<?xml version="1.0" encoding="utf-8" standalone="no"?>
<!DOCTYPE svg PUBLIC "-//W3C//DTD SVG 1.1//EN"
  "http://www.w3.org/Graphics/SVG/1.1/DTD/svg11.dtd">
<svg height="864pt" version="1.1" viewBox="0 0 1296 864" width="1296pt" xmlns="http://www.w3.org/2000/svg" xmlns:xlink="http://www.w3.org/1999/xlink">
 <metadata>
  <rdf:RDF xmlns:cc="http://creativecommons.org/ns#" xmlns:dc="http://purl.org/dc/elements/1.1/" xmlns:rdf="http://www.w3.org/1999/02/22-rdf-syntax-ns#">
   <cc:Work>
    <dc:type rdf:resource="http://purl.org/dc/dcmitype/StillImage"/>
    <dc:date>2021-09-24T05:17:49.014855</dc:date>
    <dc:format>image/svg+xml</dc:format>
    <dc:creator>
     <cc:Agent>
      <dc:title>Matplotlib v3.4.2, https://matplotlib.org/</dc:title>
     </cc:Agent>
    </dc:creator>
   </cc:Work>
  </rdf:RDF>
 </metadata>
 <defs>
  <style type="text/css">*{stroke-linecap:butt;stroke-linejoin:round;}</style>
 </defs>
 <g id="figure_1">
  <g id="patch_1">
   <path d="M 0 864 
L 1296 864 
L 1296 0 
L 0 0 
z
" style="fill:#ffffff;"/>
  </g>
  <g id="axes_1">
   <g id="patch_2">
    <path d="M 162 768.96 
L 1166.4 768.96 
L 1166.4 103.68 
L 162 103.68 
z
" style="fill:#ffffff;"/>
   </g>
   <g id="patch_3">
    <path clip-path="url(#pf6ef3ec5ef)" d="M 162.947547 768.96 
L 164.842642 768.96 
L 164.842642 768.96 
L 162.947547 768.96 
z
" style="fill:#1f77b4;"/>
   </g>
   <g id="patch_4">
    <path clip-path="url(#pf6ef3ec5ef)" d="M 166.737736 768.96 
L 168.63283 768.96 
L 168.63283 768.96 
L 166.737736 768.96 
z
" style="fill:#1f77b4;"/>
   </g>
   <g id="patch_5">
    <path clip-path="url(#pf6ef3ec5ef)" d="M 170.527925 768.96 
L 172.423019 768.96 
L 172.423019 768.96 
L 170.527925 768.96 
z
" style="fill:#1f77b4;"/>
   </g>
   <g id="patch_6">
    <path clip-path="url(#pf6ef3ec5ef)" d="M 174.318113 768.96 
L 176.213208 768.96 
L 176.213208 768.231972 
L 174.318113 768.231972 
z
" style="fill:#1f77b4;"/>
   </g>
   <g id="patch_7">
    <path clip-path="url(#pf6ef3ec5ef)" d="M 178.108302 768.96 
L 180.003396 768.96 
L 180.003396 767.020533 
L 178.108302 767.020533 
z
" style="fill:#1f77b4;"/>
   </g>
   <g id="patch_8">
    <path clip-path="url(#pf6ef3ec5ef)" d="M 181.898491 768.96 
L 183.793585 768.96 
L 183.793585 754.894496 
L 181.898491 754.894496 
z
" style="fill:#1f77b4;"/>
   </g>
   <g id="patch_9">
    <path clip-path="url(#pf6ef3ec5ef)" d="M 185.688679 768.96 
L 187.583774 768.96 
L 187.583774 667.38551 
L 185.688679 667.38551 
z
" style="fill:#1f77b4;"/>
   </g>
   <g id="patch_10">
    <path clip-path="url(#pf6ef3ec5ef)" d="M 189.478868 768.96 
L 191.373962 768.96 
L 191.373962 646.429948 
L 189.478868 646.429948 
z
" style="fill:#1f77b4;"/>
   </g>
   <g id="patch_11">
    <path clip-path="url(#pf6ef3ec5ef)" d="M 193.269057 768.96 
L 195.164151 768.96 
L 195.164151 702.12119 
L 193.269057 702.12119 
z
" style="fill:#1f77b4;"/>
   </g>
   <g id="patch_12">
    <path clip-path="url(#pf6ef3ec5ef)" d="M 197.059245 768.96 
L 198.95434 768.96 
L 198.95434 728.440864 
L 197.059245 728.440864 
z
" style="fill:#1f77b4;"/>
   </g>
   <g id="patch_13">
    <path clip-path="url(#pf6ef3ec5ef)" d="M 200.849434 768.96 
L 202.744528 768.96 
L 202.744528 705.615725 
L 200.849434 705.615725 
z
" style="fill:#1f77b4;"/>
   </g>
   <g id="patch_14">
    <path clip-path="url(#pf6ef3ec5ef)" d="M 204.639623 768.96 
L 206.534717 768.96 
L 206.534717 708.865643 
L 204.639623 708.865643 
z
" style="fill:#1f77b4;"/>
   </g>
   <g id="patch_15">
    <path clip-path="url(#pf6ef3ec5ef)" d="M 208.429811 768.96 
L 210.324906 768.96 
L 210.324906 719.79189 
L 208.429811 719.79189 
z
" style="fill:#1f77b4;"/>
   </g>
   <g id="patch_16">
    <path clip-path="url(#pf6ef3ec5ef)" d="M 212.22 768.96 
L 214.115094 768.96 
L 214.115094 709.086964 
L 212.22 709.086964 
z
" style="fill:#1f77b4;"/>
   </g>
   <g id="patch_17">
    <path clip-path="url(#pf6ef3ec5ef)" d="M 216.010189 768.96 
L 217.905283 768.96 
L 217.905283 756.711654 
L 216.010189 756.711654 
z
" style="fill:#1f77b4;"/>
   </g>
   <g id="patch_18">
    <path clip-path="url(#pf6ef3ec5ef)" d="M 219.800377 768.96 
L 221.695472 768.96 
L 221.695472 761.312792 
L 219.800377 761.312792 
z
" style="fill:#1f77b4;"/>
   </g>
   <g id="patch_19">
    <path clip-path="url(#pf6ef3ec5ef)" d="M 223.590566 768.96 
L 225.48566 768.96 
L 225.48566 765.325683 
L 223.590566 765.325683 
z
" style="fill:#1f77b4;"/>
   </g>
   <g id="patch_20">
    <path clip-path="url(#pf6ef3ec5ef)" d="M 227.380755 768.96 
L 229.275849 768.96 
L 229.275849 752.180407 
L 227.380755 752.180407 
z
" style="fill:#1f77b4;"/>
   </g>
   <g id="patch_21">
    <path clip-path="url(#pf6ef3ec5ef)" d="M 231.170943 768.96 
L 233.066038 768.96 
L 233.066038 741.842407 
L 231.170943 741.842407 
z
" style="fill:#1f77b4;"/>
   </g>
   <g id="patch_22">
    <path clip-path="url(#pf6ef3ec5ef)" d="M 234.961132 768.96 
L 236.856226 768.96 
L 236.856226 718.108689 
L 234.961132 718.108689 
z
" style="fill:#1f77b4;"/>
   </g>
   <g id="patch_23">
    <path clip-path="url(#pf6ef3ec5ef)" d="M 238.751321 768.96 
L 240.646415 768.96 
L 240.646415 717.759235 
L 238.751321 717.759235 
z
" style="fill:#1f77b4;"/>
   </g>
   <g id="patch_24">
    <path clip-path="url(#pf6ef3ec5ef)" d="M 242.541509 768.96 
L 244.436604 768.96 
L 244.436604 732.063533 
L 242.541509 732.063533 
z
" style="fill:#1f77b4;"/>
   </g>
   <g id="patch_25">
    <path clip-path="url(#pf6ef3ec5ef)" d="M 246.331698 768.96 
L 248.226792 768.96 
L 248.226792 755.05175 
L 246.331698 755.05175 
z
" style="fill:#1f77b4;"/>
   </g>
   <g id="patch_26">
    <path clip-path="url(#pf6ef3ec5ef)" d="M 250.121887 768.96 
L 252.016981 768.96 
L 252.016981 750.549624 
L 250.121887 750.549624 
z
" style="fill:#1f77b4;"/>
   </g>
   <g id="patch_27">
    <path clip-path="url(#pf6ef3ec5ef)" d="M 253.912075 768.96 
L 255.80717 768.96 
L 255.80717 721.178055 
L 253.912075 721.178055 
z
" style="fill:#1f77b4;"/>
   </g>
   <g id="patch_28">
    <path clip-path="url(#pf6ef3ec5ef)" d="M 257.702264 768.96 
L 259.597358 768.96 
L 259.597358 685.475554 
L 257.702264 685.475554 
z
" style="fill:#1f77b4;"/>
   </g>
   <g id="patch_29">
    <path clip-path="url(#pf6ef3ec5ef)" d="M 261.492453 768.96 
L 263.387547 768.96 
L 263.387547 657.967738 
L 261.492453 657.967738 
z
" style="fill:#1f77b4;"/>
   </g>
   <g id="patch_30">
    <path clip-path="url(#pf6ef3ec5ef)" d="M 265.282642 768.96 
L 267.177736 768.96 
L 267.177736 673.110724 
L 265.282642 673.110724 
z
" style="fill:#1f77b4;"/>
   </g>
   <g id="patch_31">
    <path clip-path="url(#pf6ef3ec5ef)" d="M 269.07283 768.96 
L 270.967925 768.96 
L 270.967925 684.957198 
L 269.07283 684.957198 
z
" style="fill:#1f77b4;"/>
   </g>
   <g id="patch_32">
    <path clip-path="url(#pf6ef3ec5ef)" d="M 272.863019 768.96 
L 274.758113 768.96 
L 274.758113 722.90785 
L 272.863019 722.90785 
z
" style="fill:#1f77b4;"/>
   </g>
   <g id="patch_33">
    <path clip-path="url(#pf6ef3ec5ef)" d="M 276.653208 768.96 
L 278.548302 768.96 
L 278.548302 743.152858 
L 276.653208 743.152858 
z
" style="fill:#1f77b4;"/>
   </g>
   <g id="patch_34">
    <path clip-path="url(#pf6ef3ec5ef)" d="M 280.443396 768.96 
L 282.338491 768.96 
L 282.338491 721.585751 
L 280.443396 721.585751 
z
" style="fill:#1f77b4;"/>
   </g>
   <g id="patch_35">
    <path clip-path="url(#pf6ef3ec5ef)" d="M 284.233585 768.96 
L 286.128679 768.96 
L 286.128679 667.962109 
L 284.233585 667.962109 
z
" style="fill:#1f77b4;"/>
   </g>
   <g id="patch_36">
    <path clip-path="url(#pf6ef3ec5ef)" d="M 288.023774 768.96 
L 289.918868 768.96 
L 289.918868 693.926505 
L 288.023774 693.926505 
z
" style="fill:#1f77b4;"/>
   </g>
   <g id="patch_37">
    <path clip-path="url(#pf6ef3ec5ef)" d="M 291.813962 768.96 
L 293.709057 768.96 
L 293.709057 671.747855 
L 291.813962 671.747855 
z
" style="fill:#1f77b4;"/>
   </g>
   <g id="patch_38">
    <path clip-path="url(#pf6ef3ec5ef)" d="M 295.604151 768.96 
L 297.499245 768.96 
L 297.499245 688.906023 
L 295.604151 688.906023 
z
" style="fill:#1f77b4;"/>
   </g>
   <g id="patch_39">
    <path clip-path="url(#pf6ef3ec5ef)" d="M 299.39434 768.96 
L 301.289434 768.96 
L 301.289434 700.46711 
L 299.39434 700.46711 
z
" style="fill:#1f77b4;"/>
   </g>
   <g id="patch_40">
    <path clip-path="url(#pf6ef3ec5ef)" d="M 303.184528 768.96 
L 305.079623 768.96 
L 305.079623 745.797056 
L 303.184528 745.797056 
z
" style="fill:#1f77b4;"/>
   </g>
   <g id="patch_41">
    <path clip-path="url(#pf6ef3ec5ef)" d="M 306.974717 768.96 
L 308.869811 768.96 
L 308.869811 692.569461 
L 306.974717 692.569461 
z
" style="fill:#1f77b4;"/>
   </g>
   <g id="patch_42">
    <path clip-path="url(#pf6ef3ec5ef)" d="M 310.764906 768.96 
L 312.66 768.96 
L 312.66 673.157318 
L 310.764906 673.157318 
z
" style="fill:#1f77b4;"/>
   </g>
   <g id="patch_43">
    <path clip-path="url(#pf6ef3ec5ef)" d="M 314.555094 768.96 
L 316.450189 768.96 
L 316.450189 652.982201 
L 314.555094 652.982201 
z
" style="fill:#1f77b4;"/>
   </g>
   <g id="patch_44">
    <path clip-path="url(#pf6ef3ec5ef)" d="M 318.345283 768.96 
L 320.240377 768.96 
L 320.240377 602.911336 
L 318.345283 602.911336 
z
" style="fill:#1f77b4;"/>
   </g>
   <g id="patch_45">
    <path clip-path="url(#pf6ef3ec5ef)" d="M 322.135472 768.96 
L 324.030566 768.96 
L 324.030566 624.967677 
L 322.135472 624.967677 
z
" style="fill:#1f77b4;"/>
   </g>
   <g id="patch_46">
    <path clip-path="url(#pf6ef3ec5ef)" d="M 325.92566 768.96 
L 327.820755 768.96 
L 327.820755 679.511548 
L 325.92566 679.511548 
z
" style="fill:#1f77b4;"/>
   </g>
   <g id="patch_47">
    <path clip-path="url(#pf6ef3ec5ef)" d="M 329.715849 768.96 
L 331.610943 768.96 
L 331.610943 720.613106 
L 329.715849 720.613106 
z
" style="fill:#1f77b4;"/>
   </g>
   <g id="patch_48">
    <path clip-path="url(#pf6ef3ec5ef)" d="M 333.506038 768.96 
L 335.401132 768.96 
L 335.401132 721.178055 
L 333.506038 721.178055 
z
" style="fill:#1f77b4;"/>
   </g>
   <g id="patch_49">
    <path clip-path="url(#pf6ef3ec5ef)" d="M 337.296226 768.96 
L 339.191321 768.96 
L 339.191321 679.494075 
L 337.296226 679.494075 
z
" style="fill:#1f77b4;"/>
   </g>
   <g id="patch_50">
    <path clip-path="url(#pf6ef3ec5ef)" d="M 341.086415 768.96 
L 342.981509 768.96 
L 342.981509 619.475433 
L 341.086415 619.475433 
z
" style="fill:#1f77b4;"/>
   </g>
   <g id="patch_51">
    <path clip-path="url(#pf6ef3ec5ef)" d="M 344.876604 768.96 
L 346.771698 768.96 
L 346.771698 575.921876 
L 344.876604 575.921876 
z
" style="fill:#1f77b4;"/>
   </g>
   <g id="patch_52">
    <path clip-path="url(#pf6ef3ec5ef)" d="M 348.666792 768.96 
L 350.561887 768.96 
L 350.561887 583.912713 
L 348.666792 583.912713 
z
" style="fill:#1f77b4;"/>
   </g>
   <g id="patch_53">
    <path clip-path="url(#pf6ef3ec5ef)" d="M 352.456981 768.96 
L 354.352075 768.96 
L 354.352075 740.543605 
L 352.456981 740.543605 
z
" style="fill:#1f77b4;"/>
   </g>
   <g id="patch_54">
    <path clip-path="url(#pf6ef3ec5ef)" d="M 356.24717 768.96 
L 358.142264 768.96 
L 358.142264 631.857736 
L 356.24717 631.857736 
z
" style="fill:#1f77b4;"/>
   </g>
   <g id="patch_55">
    <path clip-path="url(#pf6ef3ec5ef)" d="M 360.037358 768.96 
L 361.932453 768.96 
L 361.932453 662.516458 
L 360.037358 662.516458 
z
" style="fill:#1f77b4;"/>
   </g>
   <g id="patch_56">
    <path clip-path="url(#pf6ef3ec5ef)" d="M 363.827547 768.96 
L 365.722642 768.96 
L 365.722642 610.523599 
L 363.827547 610.523599 
z
" style="fill:#1f77b4;"/>
   </g>
   <g id="patch_57">
    <path clip-path="url(#pf6ef3ec5ef)" d="M 367.617736 768.96 
L 369.51283 768.96 
L 369.51283 463.275534 
L 367.617736 463.275534 
z
" style="fill:#1f77b4;"/>
   </g>
   <g id="patch_58">
    <path clip-path="url(#pf6ef3ec5ef)" d="M 371.407925 768.96 
L 373.303019 768.96 
L 373.303019 459.297588 
L 371.407925 459.297588 
z
" style="fill:#1f77b4;"/>
   </g>
   <g id="patch_59">
    <path clip-path="url(#pf6ef3ec5ef)" d="M 375.198113 768.96 
L 377.093208 768.96 
L 377.093208 496.665818 
L 375.198113 496.665818 
z
" style="fill:#1f77b4;"/>
   </g>
   <g id="patch_60">
    <path clip-path="url(#pf6ef3ec5ef)" d="M 378.988302 768.96 
L 380.883396 768.96 
L 380.883396 530.195883 
L 378.988302 530.195883 
z
" style="fill:#1f77b4;"/>
   </g>
   <g id="patch_61">
    <path clip-path="url(#pf6ef3ec5ef)" d="M 382.778491 768.96 
L 384.673585 768.96 
L 384.673585 653.838362 
L 382.778491 653.838362 
z
" style="fill:#1f77b4;"/>
   </g>
   <g id="patch_62">
    <path clip-path="url(#pf6ef3ec5ef)" d="M 386.568679 768.96 
L 388.463774 768.96 
L 388.463774 596.679415 
L 386.568679 596.679415 
z
" style="fill:#1f77b4;"/>
   </g>
   <g id="patch_63">
    <path clip-path="url(#pf6ef3ec5ef)" d="M 390.358868 768.96 
L 392.253962 768.96 
L 392.253962 539.706843 
L 390.358868 539.706843 
z
" style="fill:#1f77b4;"/>
   </g>
   <g id="patch_64">
    <path clip-path="url(#pf6ef3ec5ef)" d="M 394.149057 768.96 
L 396.044151 768.96 
L 396.044151 503.893681 
L 394.149057 503.893681 
z
" style="fill:#1f77b4;"/>
   </g>
   <g id="patch_65">
    <path clip-path="url(#pf6ef3ec5ef)" d="M 397.939245 768.96 
L 399.83434 768.96 
L 399.83434 379.942518 
L 397.939245 379.942518 
z
" style="fill:#1f77b4;"/>
   </g>
   <g id="patch_66">
    <path clip-path="url(#pf6ef3ec5ef)" d="M 401.729434 768.96 
L 403.624528 768.96 
L 403.624528 397.030795 
L 401.729434 397.030795 
z
" style="fill:#1f77b4;"/>
   </g>
   <g id="patch_67">
    <path clip-path="url(#pf6ef3ec5ef)" d="M 405.519623 768.96 
L 407.414717 768.96 
L 407.414717 491.027968 
L 405.519623 491.027968 
z
" style="fill:#1f77b4;"/>
   </g>
   <g id="patch_68">
    <path clip-path="url(#pf6ef3ec5ef)" d="M 409.309811 768.96 
L 411.204906 768.96 
L 411.204906 681.567499 
L 409.309811 681.567499 
z
" style="fill:#1f77b4;"/>
   </g>
   <g id="patch_69">
    <path clip-path="url(#pf6ef3ec5ef)" d="M 413.1 768.96 
L 414.995094 768.96 
L 414.995094 528.005974 
L 413.1 528.005974 
z
" style="fill:#1f77b4;"/>
   </g>
   <g id="patch_70">
    <path clip-path="url(#pf6ef3ec5ef)" d="M 416.890189 768.96 
L 418.785283 768.96 
L 418.785283 459.949901 
L 416.890189 459.949901 
z
" style="fill:#1f77b4;"/>
   </g>
   <g id="patch_71">
    <path clip-path="url(#pf6ef3ec5ef)" d="M 420.680377 768.96 
L 422.575472 768.96 
L 422.575472 429.465906 
L 420.680377 429.465906 
z
" style="fill:#1f77b4;"/>
   </g>
   <g id="patch_72">
    <path clip-path="url(#pf6ef3ec5ef)" d="M 424.470566 768.96 
L 426.36566 768.96 
L 426.36566 404.188768 
L 424.470566 404.188768 
z
" style="fill:#1f77b4;"/>
   </g>
   <g id="patch_73">
    <path clip-path="url(#pf6ef3ec5ef)" d="M 428.260755 768.96 
L 430.155849 768.96 
L 430.155849 350.384575 
L 428.260755 350.384575 
z
" style="fill:#1f77b4;"/>
   </g>
   <g id="patch_74">
    <path clip-path="url(#pf6ef3ec5ef)" d="M 432.050943 768.96 
L 433.946038 768.96 
L 433.946038 499.531337 
L 432.050943 499.531337 
z
" style="fill:#1f77b4;"/>
   </g>
   <g id="patch_75">
    <path clip-path="url(#pf6ef3ec5ef)" d="M 435.841132 768.96 
L 437.736226 768.96 
L 437.736226 498.663527 
L 435.841132 498.663527 
z
" style="fill:#1f77b4;"/>
   </g>
   <g id="patch_76">
    <path clip-path="url(#pf6ef3ec5ef)" d="M 439.631321 768.96 
L 441.526415 768.96 
L 441.526415 530.335664 
L 439.631321 530.335664 
z
" style="fill:#1f77b4;"/>
   </g>
   <g id="patch_77">
    <path clip-path="url(#pf6ef3ec5ef)" d="M 443.421509 768.96 
L 445.316604 768.96 
L 445.316604 501.94839 
L 443.421509 501.94839 
z
" style="fill:#1f77b4;"/>
   </g>
   <g id="patch_78">
    <path clip-path="url(#pf6ef3ec5ef)" d="M 447.211698 768.96 
L 449.106792 768.96 
L 449.106792 532.43821 
L 447.211698 532.43821 
z
" style="fill:#1f77b4;"/>
   </g>
   <g id="patch_79">
    <path clip-path="url(#pf6ef3ec5ef)" d="M 451.001887 768.96 
L 452.896981 768.96 
L 452.896981 497.189998 
L 451.001887 497.189998 
z
" style="fill:#1f77b4;"/>
   </g>
   <g id="patch_80">
    <path clip-path="url(#pf6ef3ec5ef)" d="M 454.792075 768.96 
L 456.68717 768.96 
L 456.68717 486.473423 
L 454.792075 486.473423 
z
" style="fill:#1f77b4;"/>
   </g>
   <g id="patch_81">
    <path clip-path="url(#pf6ef3ec5ef)" d="M 458.582264 768.96 
L 460.477358 768.96 
L 460.477358 595.042808 
L 458.582264 595.042808 
z
" style="fill:#1f77b4;"/>
   </g>
   <g id="patch_82">
    <path clip-path="url(#pf6ef3ec5ef)" d="M 462.372453 768.96 
L 464.267547 768.96 
L 464.267547 674.30469 
L 462.372453 674.30469 
z
" style="fill:#1f77b4;"/>
   </g>
   <g id="patch_83">
    <path clip-path="url(#pf6ef3ec5ef)" d="M 466.162642 768.96 
L 468.057736 768.96 
L 468.057736 616.749695 
L 466.162642 616.749695 
z
" style="fill:#1f77b4;"/>
   </g>
   <g id="patch_84">
    <path clip-path="url(#pf6ef3ec5ef)" d="M 469.95283 768.96 
L 471.847925 768.96 
L 471.847925 585.834707 
L 469.95283 585.834707 
z
" style="fill:#1f77b4;"/>
   </g>
   <g id="patch_85">
    <path clip-path="url(#pf6ef3ec5ef)" d="M 473.743019 768.96 
L 475.638113 768.96 
L 475.638113 578.705856 
L 473.743019 578.705856 
z
" style="fill:#1f77b4;"/>
   </g>
   <g id="patch_86">
    <path clip-path="url(#pf6ef3ec5ef)" d="M 477.533208 768.96 
L 479.428302 768.96 
L 479.428302 526.887723 
L 477.533208 526.887723 
z
" style="fill:#1f77b4;"/>
   </g>
   <g id="patch_87">
    <path clip-path="url(#pf6ef3ec5ef)" d="M 481.323396 768.96 
L 483.218491 768.96 
L 483.218491 465.203353 
L 481.323396 465.203353 
z
" style="fill:#1f77b4;"/>
   </g>
   <g id="patch_88">
    <path clip-path="url(#pf6ef3ec5ef)" d="M 485.113585 768.96 
L 487.008679 768.96 
L 487.008679 501.750366 
L 485.113585 501.750366 
z
" style="fill:#1f77b4;"/>
   </g>
   <g id="patch_89">
    <path clip-path="url(#pf6ef3ec5ef)" d="M 488.903774 768.96 
L 490.798868 768.96 
L 490.798868 662.895033 
L 488.903774 662.895033 
z
" style="fill:#1f77b4;"/>
   </g>
   <g id="patch_90">
    <path clip-path="url(#pf6ef3ec5ef)" d="M 492.693962 768.96 
L 494.589057 768.96 
L 494.589057 605.607952 
L 492.693962 605.607952 
z
" style="fill:#1f77b4;"/>
   </g>
   <g id="patch_91">
    <path clip-path="url(#pf6ef3ec5ef)" d="M 496.484151 768.96 
L 498.379245 768.96 
L 498.379245 474.638598 
L 496.484151 474.638598 
z
" style="fill:#1f77b4;"/>
   </g>
   <g id="patch_92">
    <path clip-path="url(#pf6ef3ec5ef)" d="M 500.27434 768.96 
L 502.169434 768.96 
L 502.169434 518.232924 
L 500.27434 518.232924 
z
" style="fill:#1f77b4;"/>
   </g>
   <g id="patch_93">
    <path clip-path="url(#pf6ef3ec5ef)" d="M 504.064528 768.96 
L 505.959623 768.96 
L 505.959623 423.012664 
L 504.064528 423.012664 
z
" style="fill:#1f77b4;"/>
   </g>
   <g id="patch_94">
    <path clip-path="url(#pf6ef3ec5ef)" d="M 507.854717 768.96 
L 509.749811 768.96 
L 509.749811 416.489532 
L 507.854717 416.489532 
z
" style="fill:#1f77b4;"/>
   </g>
   <g id="patch_95">
    <path clip-path="url(#pf6ef3ec5ef)" d="M 511.644906 768.96 
L 513.54 768.96 
L 513.54 494.074038 
L 511.644906 494.074038 
z
" style="fill:#1f77b4;"/>
   </g>
   <g id="patch_96">
    <path clip-path="url(#pf6ef3ec5ef)" d="M 515.435094 768.96 
L 517.330189 768.96 
L 517.330189 692.825727 
L 515.435094 692.825727 
z
" style="fill:#1f77b4;"/>
   </g>
   <g id="patch_97">
    <path clip-path="url(#pf6ef3ec5ef)" d="M 519.225283 768.96 
L 521.120377 768.96 
L 521.120377 510.74297 
L 519.225283 510.74297 
z
" style="fill:#1f77b4;"/>
   </g>
   <g id="patch_98">
    <path clip-path="url(#pf6ef3ec5ef)" d="M 523.015472 768.96 
L 524.910566 768.96 
L 524.910566 370.868375 
L 523.015472 370.868375 
z
" style="fill:#1f77b4;"/>
   </g>
   <g id="patch_99">
    <path clip-path="url(#pf6ef3ec5ef)" d="M 526.80566 768.96 
L 528.700755 768.96 
L 528.700755 329.597914 
L 526.80566 329.597914 
z
" style="fill:#1f77b4;"/>
   </g>
   <g id="patch_100">
    <path clip-path="url(#pf6ef3ec5ef)" d="M 530.595849 768.96 
L 532.490943 768.96 
L 532.490943 240.196056 
L 530.595849 240.196056 
z
" style="fill:#1f77b4;"/>
   </g>
   <g id="patch_101">
    <path clip-path="url(#pf6ef3ec5ef)" d="M 534.386038 768.96 
L 536.281132 768.96 
L 536.281132 135.36 
L 534.386038 135.36 
z
" style="fill:#1f77b4;"/>
   </g>
   <g id="patch_102">
    <path clip-path="url(#pf6ef3ec5ef)" d="M 538.176226 768.96 
L 540.071321 768.96 
L 540.071321 339.97086 
L 538.176226 339.97086 
z
" style="fill:#1f77b4;"/>
   </g>
   <g id="patch_103">
    <path clip-path="url(#pf6ef3ec5ef)" d="M 541.966415 768.96 
L 543.861509 768.96 
L 543.861509 564.174413 
L 541.966415 564.174413 
z
" style="fill:#1f77b4;"/>
   </g>
   <g id="patch_104">
    <path clip-path="url(#pf6ef3ec5ef)" d="M 545.756604 768.96 
L 547.651698 768.96 
L 547.651698 418.149436 
L 545.756604 418.149436 
z
" style="fill:#1f77b4;"/>
   </g>
   <g id="patch_105">
    <path clip-path="url(#pf6ef3ec5ef)" d="M 549.546792 768.96 
L 551.441887 768.96 
L 551.441887 335.777418 
L 549.546792 335.777418 
z
" style="fill:#1f77b4;"/>
   </g>
   <g id="patch_106">
    <path clip-path="url(#pf6ef3ec5ef)" d="M 553.336981 768.96 
L 555.232075 768.96 
L 555.232075 396.267822 
L 553.336981 396.267822 
z
" style="fill:#1f77b4;"/>
   </g>
   <g id="patch_107">
    <path clip-path="url(#pf6ef3ec5ef)" d="M 557.12717 768.96 
L 559.022264 768.96 
L 559.022264 260.703153 
L 557.12717 260.703153 
z
" style="fill:#1f77b4;"/>
   </g>
   <g id="patch_108">
    <path clip-path="url(#pf6ef3ec5ef)" d="M 560.917358 768.96 
L 562.812453 768.96 
L 562.812453 267.109801 
L 560.917358 267.109801 
z
" style="fill:#1f77b4;"/>
   </g>
   <g id="patch_109">
    <path clip-path="url(#pf6ef3ec5ef)" d="M 564.707547 768.96 
L 566.602642 768.96 
L 566.602642 415.872164 
L 564.707547 415.872164 
z
" style="fill:#1f77b4;"/>
   </g>
   <g id="patch_110">
    <path clip-path="url(#pf6ef3ec5ef)" d="M 568.497736 768.96 
L 570.39283 768.96 
L 570.39283 564.76266 
L 568.497736 564.76266 
z
" style="fill:#1f77b4;"/>
   </g>
   <g id="patch_111">
    <path clip-path="url(#pf6ef3ec5ef)" d="M 572.287925 768.96 
L 574.183019 768.96 
L 574.183019 477.882691 
L 572.287925 477.882691 
z
" style="fill:#1f77b4;"/>
   </g>
   <g id="patch_112">
    <path clip-path="url(#pf6ef3ec5ef)" d="M 576.078113 768.96 
L 577.973208 768.96 
L 577.973208 297.057968 
L 576.078113 297.057968 
z
" style="fill:#1f77b4;"/>
   </g>
   <g id="patch_113">
    <path clip-path="url(#pf6ef3ec5ef)" d="M 579.868302 768.96 
L 581.763396 768.96 
L 581.763396 352.294921 
L 579.868302 352.294921 
z
" style="fill:#1f77b4;"/>
   </g>
   <g id="patch_114">
    <path clip-path="url(#pf6ef3ec5ef)" d="M 583.658491 768.96 
L 585.553585 768.96 
L 585.553585 332.713875 
L 583.658491 332.713875 
z
" style="fill:#1f77b4;"/>
   </g>
   <g id="patch_115">
    <path clip-path="url(#pf6ef3ec5ef)" d="M 587.448679 768.96 
L 589.343774 768.96 
L 589.343774 364.147219 
L 587.448679 364.147219 
z
" style="fill:#1f77b4;"/>
   </g>
   <g id="patch_116">
    <path clip-path="url(#pf6ef3ec5ef)" d="M 591.238868 768.96 
L 593.133962 768.96 
L 593.133962 499.484743 
L 591.238868 499.484743 
z
" style="fill:#1f77b4;"/>
   </g>
   <g id="patch_117">
    <path clip-path="url(#pf6ef3ec5ef)" d="M 595.029057 768.96 
L 596.924151 768.96 
L 596.924151 658.387082 
L 595.029057 658.387082 
z
" style="fill:#1f77b4;"/>
   </g>
   <g id="patch_118">
    <path clip-path="url(#pf6ef3ec5ef)" d="M 598.819245 768.96 
L 600.71434 768.96 
L 600.71434 517.324345 
L 598.819245 517.324345 
z
" style="fill:#1f77b4;"/>
   </g>
   <g id="patch_119">
    <path clip-path="url(#pf6ef3ec5ef)" d="M 602.609434 768.96 
L 604.504528 768.96 
L 604.504528 408.00946 
L 602.609434 408.00946 
z
" style="fill:#1f77b4;"/>
   </g>
   <g id="patch_120">
    <path clip-path="url(#pf6ef3ec5ef)" d="M 606.399623 768.96 
L 608.294717 768.96 
L 608.294717 393.856592 
L 606.399623 393.856592 
z
" style="fill:#1f77b4;"/>
   </g>
   <g id="patch_121">
    <path clip-path="url(#pf6ef3ec5ef)" d="M 610.189811 768.96 
L 612.084906 768.96 
L 612.084906 406.372853 
L 610.189811 406.372853 
z
" style="fill:#1f77b4;"/>
   </g>
   <g id="patch_122">
    <path clip-path="url(#pf6ef3ec5ef)" d="M 613.98 768.96 
L 615.875094 768.96 
L 615.875094 454.818759 
L 613.98 454.818759 
z
" style="fill:#1f77b4;"/>
   </g>
   <g id="patch_123">
    <path clip-path="url(#pf6ef3ec5ef)" d="M 617.770189 768.96 
L 619.665283 768.96 
L 619.665283 626.050983 
L 617.770189 626.050983 
z
" style="fill:#1f77b4;"/>
   </g>
   <g id="patch_124">
    <path clip-path="url(#pf6ef3ec5ef)" d="M 621.560377 768.96 
L 623.455472 768.96 
L 623.455472 723.536867 
L 621.560377 723.536867 
z
" style="fill:#1f77b4;"/>
   </g>
   <g id="patch_125">
    <path clip-path="url(#pf6ef3ec5ef)" d="M 625.350566 768.96 
L 627.24566 768.96 
L 627.24566 613.313403 
L 625.350566 613.313403 
z
" style="fill:#1f77b4;"/>
   </g>
   <g id="patch_126">
    <path clip-path="url(#pf6ef3ec5ef)" d="M 629.140755 768.96 
L 631.035849 768.96 
L 631.035849 362.842593 
L 629.140755 362.842593 
z
" style="fill:#1f77b4;"/>
   </g>
   <g id="patch_127">
    <path clip-path="url(#pf6ef3ec5ef)" d="M 632.930943 768.96 
L 634.826038 768.96 
L 634.826038 371.287719 
L 632.930943 371.287719 
z
" style="fill:#1f77b4;"/>
   </g>
   <g id="patch_128">
    <path clip-path="url(#pf6ef3ec5ef)" d="M 636.721132 768.96 
L 638.616226 768.96 
L 638.616226 470.957687 
L 636.721132 470.957687 
z
" style="fill:#1f77b4;"/>
   </g>
   <g id="patch_129">
    <path clip-path="url(#pf6ef3ec5ef)" d="M 640.511321 768.96 
L 642.406415 768.96 
L 642.406415 323.575665 
L 640.511321 323.575665 
z
" style="fill:#1f77b4;"/>
   </g>
   <g id="patch_130">
    <path clip-path="url(#pf6ef3ec5ef)" d="M 644.301509 768.96 
L 646.196604 768.96 
L 646.196604 467.451504 
L 644.301509 467.451504 
z
" style="fill:#1f77b4;"/>
   </g>
   <g id="patch_131">
    <path clip-path="url(#pf6ef3ec5ef)" d="M 648.091698 768.96 
L 649.986792 768.96 
L 649.986792 500.533103 
L 648.091698 500.533103 
z
" style="fill:#1f77b4;"/>
   </g>
   <g id="patch_132">
    <path clip-path="url(#pf6ef3ec5ef)" d="M 651.881887 768.96 
L 653.776981 768.96 
L 653.776981 535.950218 
L 651.881887 535.950218 
z
" style="fill:#1f77b4;"/>
   </g>
   <g id="patch_133">
    <path clip-path="url(#pf6ef3ec5ef)" d="M 655.672075 768.96 
L 657.56717 768.96 
L 657.56717 460.514851 
L 655.672075 460.514851 
z
" style="fill:#1f77b4;"/>
   </g>
   <g id="patch_134">
    <path clip-path="url(#pf6ef3ec5ef)" d="M 659.462264 768.96 
L 661.357358 768.96 
L 661.357358 489.799056 
L 659.462264 489.799056 
z
" style="fill:#1f77b4;"/>
   </g>
   <g id="patch_135">
    <path clip-path="url(#pf6ef3ec5ef)" d="M 663.252453 768.96 
L 665.147547 768.96 
L 665.147547 477.96423 
L 663.252453 477.96423 
z
" style="fill:#1f77b4;"/>
   </g>
   <g id="patch_136">
    <path clip-path="url(#pf6ef3ec5ef)" d="M 667.042642 768.96 
L 668.937736 768.96 
L 668.937736 347.658837 
L 667.042642 347.658837 
z
" style="fill:#1f77b4;"/>
   </g>
   <g id="patch_137">
    <path clip-path="url(#pf6ef3ec5ef)" d="M 670.83283 768.96 
L 672.727925 768.96 
L 672.727925 534.849439 
L 670.83283 534.849439 
z
" style="fill:#1f77b4;"/>
   </g>
   <g id="patch_138">
    <path clip-path="url(#pf6ef3ec5ef)" d="M 674.623019 768.96 
L 676.518113 768.96 
L 676.518113 675.184148 
L 674.623019 675.184148 
z
" style="fill:#1f77b4;"/>
   </g>
   <g id="patch_139">
    <path clip-path="url(#pf6ef3ec5ef)" d="M 678.413208 768.96 
L 680.308302 768.96 
L 680.308302 604.658604 
L 678.413208 604.658604 
z
" style="fill:#1f77b4;"/>
   </g>
   <g id="patch_140">
    <path clip-path="url(#pf6ef3ec5ef)" d="M 682.203396 768.96 
L 684.098491 768.96 
L 684.098491 466.327428 
L 682.203396 466.327428 
z
" style="fill:#1f77b4;"/>
   </g>
   <g id="patch_141">
    <path clip-path="url(#pf6ef3ec5ef)" d="M 685.993585 768.96 
L 687.888679 768.96 
L 687.888679 498.698472 
L 685.993585 498.698472 
z
" style="fill:#1f77b4;"/>
   </g>
   <g id="patch_142">
    <path clip-path="url(#pf6ef3ec5ef)" d="M 689.783774 768.96 
L 691.678868 768.96 
L 691.678868 383.122545 
L 689.783774 383.122545 
z
" style="fill:#1f77b4;"/>
   </g>
   <g id="patch_143">
    <path clip-path="url(#pf6ef3ec5ef)" d="M 693.573962 768.96 
L 695.469057 768.96 
L 695.469057 519.304582 
L 693.573962 519.304582 
z
" style="fill:#1f77b4;"/>
   </g>
   <g id="patch_144">
    <path clip-path="url(#pf6ef3ec5ef)" d="M 697.364151 768.96 
L 699.259245 768.96 
L 699.259245 569.066763 
L 697.364151 569.066763 
z
" style="fill:#1f77b4;"/>
   </g>
   <g id="patch_145">
    <path clip-path="url(#pf6ef3ec5ef)" d="M 701.15434 768.96 
L 703.049434 768.96 
L 703.049434 677.269221 
L 701.15434 677.269221 
z
" style="fill:#1f77b4;"/>
   </g>
   <g id="patch_146">
    <path clip-path="url(#pf6ef3ec5ef)" d="M 704.944528 768.96 
L 706.839623 768.96 
L 706.839623 616.97684 
L 704.944528 616.97684 
z
" style="fill:#1f77b4;"/>
   </g>
   <g id="patch_147">
    <path clip-path="url(#pf6ef3ec5ef)" d="M 708.734717 768.96 
L 710.629811 768.96 
L 710.629811 584.384475 
L 708.734717 584.384475 
z
" style="fill:#1f77b4;"/>
   </g>
   <g id="patch_148">
    <path clip-path="url(#pf6ef3ec5ef)" d="M 712.524906 768.96 
L 714.42 768.96 
L 714.42 583.586556 
L 712.524906 583.586556 
z
" style="fill:#1f77b4;"/>
   </g>
   <g id="patch_149">
    <path clip-path="url(#pf6ef3ec5ef)" d="M 716.315094 768.96 
L 718.210189 768.96 
L 718.210189 573.627131 
L 716.315094 573.627131 
z
" style="fill:#1f77b4;"/>
   </g>
   <g id="patch_150">
    <path clip-path="url(#pf6ef3ec5ef)" d="M 720.105283 768.96 
L 722.000377 768.96 
L 722.000377 586.399657 
L 720.105283 586.399657 
z
" style="fill:#1f77b4;"/>
   </g>
   <g id="patch_151">
    <path clip-path="url(#pf6ef3ec5ef)" d="M 723.895472 768.96 
L 725.790566 768.96 
L 725.790566 644.094433 
L 723.895472 644.094433 
z
" style="fill:#1f77b4;"/>
   </g>
   <g id="patch_152">
    <path clip-path="url(#pf6ef3ec5ef)" d="M 727.68566 768.96 
L 729.580755 768.96 
L 729.580755 698.923691 
L 727.68566 698.923691 
z
" style="fill:#1f77b4;"/>
   </g>
   <g id="patch_153">
    <path clip-path="url(#pf6ef3ec5ef)" d="M 731.475849 768.96 
L 733.370943 768.96 
L 733.370943 718.067919 
L 731.475849 718.067919 
z
" style="fill:#1f77b4;"/>
   </g>
   <g id="patch_154">
    <path clip-path="url(#pf6ef3ec5ef)" d="M 735.266038 768.96 
L 737.161132 768.96 
L 737.161132 658.986977 
L 735.266038 658.986977 
z
" style="fill:#1f77b4;"/>
   </g>
   <g id="patch_155">
    <path clip-path="url(#pf6ef3ec5ef)" d="M 739.056226 768.96 
L 740.951321 768.96 
L 740.951321 652.673517 
L 739.056226 652.673517 
z
" style="fill:#1f77b4;"/>
   </g>
   <g id="patch_156">
    <path clip-path="url(#pf6ef3ec5ef)" d="M 742.846415 768.96 
L 744.741509 768.96 
L 744.741509 580.755983 
L 742.846415 580.755983 
z
" style="fill:#1f77b4;"/>
   </g>
   <g id="patch_157">
    <path clip-path="url(#pf6ef3ec5ef)" d="M 746.636604 768.96 
L 748.531698 768.96 
L 748.531698 556.247643 
L 746.636604 556.247643 
z
" style="fill:#1f77b4;"/>
   </g>
   <g id="patch_158">
    <path clip-path="url(#pf6ef3ec5ef)" d="M 750.426792 768.96 
L 752.321887 768.96 
L 752.321887 580.0629 
L 750.426792 580.0629 
z
" style="fill:#1f77b4;"/>
   </g>
   <g id="patch_159">
    <path clip-path="url(#pf6ef3ec5ef)" d="M 754.216981 768.96 
L 756.112075 768.96 
L 756.112075 634.367977 
L 754.216981 634.367977 
z
" style="fill:#1f77b4;"/>
   </g>
   <g id="patch_160">
    <path clip-path="url(#pf6ef3ec5ef)" d="M 758.00717 768.96 
L 759.902264 768.96 
L 759.902264 581.996543 
L 758.00717 581.996543 
z
" style="fill:#1f77b4;"/>
   </g>
   <g id="patch_161">
    <path clip-path="url(#pf6ef3ec5ef)" d="M 761.797358 768.96 
L 763.692453 768.96 
L 763.692453 567.826203 
L 761.797358 567.826203 
z
" style="fill:#1f77b4;"/>
   </g>
   <g id="patch_162">
    <path clip-path="url(#pf6ef3ec5ef)" d="M 765.587547 768.96 
L 767.482642 768.96 
L 767.482642 534.785373 
L 765.587547 534.785373 
z
" style="fill:#1f77b4;"/>
   </g>
   <g id="patch_163">
    <path clip-path="url(#pf6ef3ec5ef)" d="M 769.377736 768.96 
L 771.27283 768.96 
L 771.27283 606.796094 
L 769.377736 606.796094 
z
" style="fill:#1f77b4;"/>
   </g>
   <g id="patch_164">
    <path clip-path="url(#pf6ef3ec5ef)" d="M 773.167925 768.96 
L 775.063019 768.96 
L 775.063019 615.287815 
L 773.167925 615.287815 
z
" style="fill:#1f77b4;"/>
   </g>
   <g id="patch_165">
    <path clip-path="url(#pf6ef3ec5ef)" d="M 776.958113 768.96 
L 778.853208 768.96 
L 778.853208 676.715919 
L 776.958113 676.715919 
z
" style="fill:#1f77b4;"/>
   </g>
   <g id="patch_166">
    <path clip-path="url(#pf6ef3ec5ef)" d="M 780.748302 768.96 
L 782.643396 768.96 
L 782.643396 675.626789 
L 780.748302 675.626789 
z
" style="fill:#1f77b4;"/>
   </g>
   <g id="patch_167">
    <path clip-path="url(#pf6ef3ec5ef)" d="M 784.538491 768.96 
L 786.433585 768.96 
L 786.433585 484.586374 
L 784.538491 484.586374 
z
" style="fill:#1f77b4;"/>
   </g>
   <g id="patch_168">
    <path clip-path="url(#pf6ef3ec5ef)" d="M 788.328679 768.96 
L 790.223774 768.96 
L 790.223774 557.99491 
L 788.328679 557.99491 
z
" style="fill:#1f77b4;"/>
   </g>
   <g id="patch_169">
    <path clip-path="url(#pf6ef3ec5ef)" d="M 792.118868 768.96 
L 794.013962 768.96 
L 794.013962 624.315364 
L 792.118868 624.315364 
z
" style="fill:#1f77b4;"/>
   </g>
   <g id="patch_170">
    <path clip-path="url(#pf6ef3ec5ef)" d="M 795.909057 768.96 
L 797.804151 768.96 
L 797.804151 579.212563 
L 795.909057 579.212563 
z
" style="fill:#1f77b4;"/>
   </g>
   <g id="patch_171">
    <path clip-path="url(#pf6ef3ec5ef)" d="M 799.699245 768.96 
L 801.59434 768.96 
L 801.59434 677.304166 
L 799.699245 677.304166 
z
" style="fill:#1f77b4;"/>
   </g>
   <g id="patch_172">
    <path clip-path="url(#pf6ef3ec5ef)" d="M 803.489434 768.96 
L 805.384528 768.96 
L 805.384528 627.297368 
L 803.489434 627.297368 
z
" style="fill:#1f77b4;"/>
   </g>
   <g id="patch_173">
    <path clip-path="url(#pf6ef3ec5ef)" d="M 807.279623 768.96 
L 809.174717 768.96 
L 809.174717 708.376408 
L 807.279623 708.376408 
z
" style="fill:#1f77b4;"/>
   </g>
   <g id="patch_174">
    <path clip-path="url(#pf6ef3ec5ef)" d="M 811.069811 768.96 
L 812.964906 768.96 
L 812.964906 695.003987 
L 811.069811 695.003987 
z
" style="fill:#1f77b4;"/>
   </g>
   <g id="patch_175">
    <path clip-path="url(#pf6ef3ec5ef)" d="M 814.86 768.96 
L 816.755094 768.96 
L 816.755094 678.311757 
L 814.86 678.311757 
z
" style="fill:#1f77b4;"/>
   </g>
   <g id="patch_176">
    <path clip-path="url(#pf6ef3ec5ef)" d="M 818.650189 768.96 
L 820.545283 768.96 
L 820.545283 659.056868 
L 818.650189 659.056868 
z
" style="fill:#1f77b4;"/>
   </g>
   <g id="patch_177">
    <path clip-path="url(#pf6ef3ec5ef)" d="M 822.440377 768.96 
L 824.335472 768.96 
L 824.335472 635.73667 
L 822.440377 635.73667 
z
" style="fill:#1f77b4;"/>
   </g>
   <g id="patch_178">
    <path clip-path="url(#pf6ef3ec5ef)" d="M 826.230566 768.96 
L 828.12566 768.96 
L 828.12566 472.827264 
L 826.230566 472.827264 
z
" style="fill:#1f77b4;"/>
   </g>
   <g id="patch_179">
    <path clip-path="url(#pf6ef3ec5ef)" d="M 830.020755 768.96 
L 831.915849 768.96 
L 831.915849 427.29347 
L 830.020755 427.29347 
z
" style="fill:#1f77b4;"/>
   </g>
   <g id="patch_180">
    <path clip-path="url(#pf6ef3ec5ef)" d="M 833.810943 768.96 
L 835.706038 768.96 
L 835.706038 738.376993 
L 833.810943 738.376993 
z
" style="fill:#1f77b4;"/>
   </g>
   <g id="patch_181">
    <path clip-path="url(#pf6ef3ec5ef)" d="M 837.601132 768.96 
L 839.496226 768.96 
L 839.496226 692.680121 
L 837.601132 692.680121 
z
" style="fill:#1f77b4;"/>
   </g>
   <g id="patch_182">
    <path clip-path="url(#pf6ef3ec5ef)" d="M 841.391321 768.96 
L 843.286415 768.96 
L 843.286415 674.863816 
L 841.391321 674.863816 
z
" style="fill:#1f77b4;"/>
   </g>
   <g id="patch_183">
    <path clip-path="url(#pf6ef3ec5ef)" d="M 845.181509 768.96 
L 847.076604 768.96 
L 847.076604 678.527253 
L 845.181509 678.527253 
z
" style="fill:#1f77b4;"/>
   </g>
   <g id="patch_184">
    <path clip-path="url(#pf6ef3ec5ef)" d="M 848.971698 768.96 
L 850.866792 768.96 
L 850.866792 687.601396 
L 848.971698 687.601396 
z
" style="fill:#1f77b4;"/>
   </g>
   <g id="patch_185">
    <path clip-path="url(#pf6ef3ec5ef)" d="M 852.761887 768.96 
L 854.656981 768.96 
L 854.656981 687.572275 
L 852.761887 687.572275 
z
" style="fill:#1f77b4;"/>
   </g>
   <g id="patch_186">
    <path clip-path="url(#pf6ef3ec5ef)" d="M 856.552075 768.96 
L 858.44717 768.96 
L 858.44717 708.388057 
L 856.552075 708.388057 
z
" style="fill:#1f77b4;"/>
   </g>
   <g id="patch_187">
    <path clip-path="url(#pf6ef3ec5ef)" d="M 860.342264 768.96 
L 862.237358 768.96 
L 862.237358 739.90294 
L 860.342264 739.90294 
z
" style="fill:#1f77b4;"/>
   </g>
   <g id="patch_188">
    <path clip-path="url(#pf6ef3ec5ef)" d="M 864.132453 768.96 
L 866.027547 768.96 
L 866.027547 763.962815 
L 864.132453 763.962815 
z
" style="fill:#1f77b4;"/>
   </g>
   <g id="patch_189">
    <path clip-path="url(#pf6ef3ec5ef)" d="M 867.922642 768.96 
L 869.817736 768.96 
L 869.817736 721.591575 
L 867.922642 721.591575 
z
" style="fill:#1f77b4;"/>
   </g>
   <g id="patch_190">
    <path clip-path="url(#pf6ef3ec5ef)" d="M 871.71283 768.96 
L 873.607925 768.96 
L 873.607925 685.522148 
L 871.71283 685.522148 
z
" style="fill:#1f77b4;"/>
   </g>
   <g id="patch_191">
    <path clip-path="url(#pf6ef3ec5ef)" d="M 875.503019 768.96 
L 877.398113 768.96 
L 877.398113 685.306652 
L 875.503019 685.306652 
z
" style="fill:#1f77b4;"/>
   </g>
   <g id="patch_192">
    <path clip-path="url(#pf6ef3ec5ef)" d="M 879.293208 768.96 
L 881.188302 768.96 
L 881.188302 695.458276 
L 879.293208 695.458276 
z
" style="fill:#1f77b4;"/>
   </g>
   <g id="patch_193">
    <path clip-path="url(#pf6ef3ec5ef)" d="M 883.083396 768.96 
L 884.978491 768.96 
L 884.978491 707.147497 
L 883.083396 707.147497 
z
" style="fill:#1f77b4;"/>
   </g>
   <g id="patch_194">
    <path clip-path="url(#pf6ef3ec5ef)" d="M 886.873585 768.96 
L 888.768679 768.96 
L 888.768679 726.850851 
L 886.873585 726.850851 
z
" style="fill:#1f77b4;"/>
   </g>
   <g id="patch_195">
    <path clip-path="url(#pf6ef3ec5ef)" d="M 890.663774 768.96 
L 892.558868 768.96 
L 892.558868 690.053395 
L 890.663774 690.053395 
z
" style="fill:#1f77b4;"/>
   </g>
   <g id="patch_196">
    <path clip-path="url(#pf6ef3ec5ef)" d="M 894.453962 768.96 
L 896.349057 768.96 
L 896.349057 703.571422 
L 894.453962 703.571422 
z
" style="fill:#1f77b4;"/>
   </g>
   <g id="patch_197">
    <path clip-path="url(#pf6ef3ec5ef)" d="M 898.244151 768.96 
L 900.139245 768.96 
L 900.139245 706.687383 
L 898.244151 706.687383 
z
" style="fill:#1f77b4;"/>
   </g>
   <g id="patch_198">
    <path clip-path="url(#pf6ef3ec5ef)" d="M 902.03434 768.96 
L 903.929434 768.96 
L 903.929434 707.077606 
L 902.03434 707.077606 
z
" style="fill:#1f77b4;"/>
   </g>
   <g id="patch_199">
    <path clip-path="url(#pf6ef3ec5ef)" d="M 905.824528 768.96 
L 907.719623 768.96 
L 907.719623 706.570898 
L 905.824528 706.570898 
z
" style="fill:#1f77b4;"/>
   </g>
   <g id="patch_200">
    <path clip-path="url(#pf6ef3ec5ef)" d="M 909.614717 768.96 
L 911.509811 768.96 
L 911.509811 716.932195 
L 909.614717 716.932195 
z
" style="fill:#1f77b4;"/>
   </g>
   <g id="patch_201">
    <path clip-path="url(#pf6ef3ec5ef)" d="M 913.404906 768.96 
L 915.3 768.96 
L 915.3 733.630249 
L 913.404906 733.630249 
z
" style="fill:#1f77b4;"/>
   </g>
   <g id="patch_202">
    <path clip-path="url(#pf6ef3ec5ef)" d="M 917.195094 768.96 
L 919.090189 768.96 
L 919.090189 716.244937 
L 917.195094 716.244937 
z
" style="fill:#1f77b4;"/>
   </g>
   <g id="patch_203">
    <path clip-path="url(#pf6ef3ec5ef)" d="M 920.985283 768.96 
L 922.880377 768.96 
L 922.880377 698.521819 
L 920.985283 698.521819 
z
" style="fill:#1f77b4;"/>
   </g>
   <g id="patch_204">
    <path clip-path="url(#pf6ef3ec5ef)" d="M 924.775472 768.96 
L 926.670566 768.96 
L 926.670566 703.315156 
L 924.775472 703.315156 
z
" style="fill:#1f77b4;"/>
   </g>
   <g id="patch_205">
    <path clip-path="url(#pf6ef3ec5ef)" d="M 928.56566 768.96 
L 930.460755 768.96 
L 930.460755 721.125637 
L 928.56566 721.125637 
z
" style="fill:#1f77b4;"/>
   </g>
   <g id="patch_206">
    <path clip-path="url(#pf6ef3ec5ef)" d="M 932.355849 768.96 
L 934.250943 768.96 
L 934.250943 720.16464 
L 932.355849 720.16464 
z
" style="fill:#1f77b4;"/>
   </g>
   <g id="patch_207">
    <path clip-path="url(#pf6ef3ec5ef)" d="M 936.146038 768.96 
L 938.041132 768.96 
L 938.041132 738.726446 
L 936.146038 738.726446 
z
" style="fill:#1f77b4;"/>
   </g>
   <g id="patch_208">
    <path clip-path="url(#pf6ef3ec5ef)" d="M 939.936226 768.96 
L 941.831321 768.96 
L 941.831321 751.429082 
L 939.936226 751.429082 
z
" style="fill:#1f77b4;"/>
   </g>
   <g id="patch_209">
    <path clip-path="url(#pf6ef3ec5ef)" d="M 943.726415 768.96 
L 945.621509 768.96 
L 945.621509 739.536014 
L 943.726415 739.536014 
z
" style="fill:#1f77b4;"/>
   </g>
   <g id="patch_210">
    <path clip-path="url(#pf6ef3ec5ef)" d="M 947.516604 768.96 
L 949.411698 768.96 
L 949.411698 702.191081 
L 947.516604 702.191081 
z
" style="fill:#1f77b4;"/>
   </g>
   <g id="patch_211">
    <path clip-path="url(#pf6ef3ec5ef)" d="M 951.306792 768.96 
L 953.201887 768.96 
L 953.201887 656.97762 
L 951.306792 656.97762 
z
" style="fill:#1f77b4;"/>
   </g>
   <g id="patch_212">
    <path clip-path="url(#pf6ef3ec5ef)" d="M 955.096981 768.96 
L 956.992075 768.96 
L 956.992075 710.624559 
L 955.096981 710.624559 
z
" style="fill:#1f77b4;"/>
   </g>
   <g id="patch_213">
    <path clip-path="url(#pf6ef3ec5ef)" d="M 958.88717 768.96 
L 960.782264 768.96 
L 960.782264 642.422881 
L 958.88717 642.422881 
z
" style="fill:#1f77b4;"/>
   </g>
   <g id="patch_214">
    <path clip-path="url(#pf6ef3ec5ef)" d="M 962.677358 768.96 
L 964.572453 768.96 
L 964.572453 723.018511 
L 962.677358 723.018511 
z
" style="fill:#1f77b4;"/>
   </g>
   <g id="patch_215">
    <path clip-path="url(#pf6ef3ec5ef)" d="M 966.467547 768.96 
L 968.362642 768.96 
L 968.362642 734.643664 
L 966.467547 734.643664 
z
" style="fill:#1f77b4;"/>
   </g>
   <g id="patch_216">
    <path clip-path="url(#pf6ef3ec5ef)" d="M 970.257736 768.96 
L 972.15283 768.96 
L 972.15283 722.133228 
L 970.257736 722.133228 
z
" style="fill:#1f77b4;"/>
   </g>
   <g id="patch_217">
    <path clip-path="url(#pf6ef3ec5ef)" d="M 974.047925 768.96 
L 975.943019 768.96 
L 975.943019 705.557483 
L 974.047925 705.557483 
z
" style="fill:#1f77b4;"/>
   </g>
   <g id="patch_218">
    <path clip-path="url(#pf6ef3ec5ef)" d="M 977.838113 768.96 
L 979.733208 768.96 
L 979.733208 710.455657 
L 977.838113 710.455657 
z
" style="fill:#1f77b4;"/>
   </g>
   <g id="patch_219">
    <path clip-path="url(#pf6ef3ec5ef)" d="M 981.628302 768.96 
L 983.523396 768.96 
L 983.523396 708.679268 
L 981.628302 708.679268 
z
" style="fill:#1f77b4;"/>
   </g>
   <g id="patch_220">
    <path clip-path="url(#pf6ef3ec5ef)" d="M 985.418491 768.96 
L 987.313585 768.96 
L 987.313585 704.852752 
L 985.418491 704.852752 
z
" style="fill:#1f77b4;"/>
   </g>
   <g id="patch_221">
    <path clip-path="url(#pf6ef3ec5ef)" d="M 989.208679 768.96 
L 991.103774 768.96 
L 991.103774 666.564295 
L 989.208679 666.564295 
z
" style="fill:#1f77b4;"/>
   </g>
   <g id="patch_222">
    <path clip-path="url(#pf6ef3ec5ef)" d="M 992.998868 768.96 
L 994.893962 768.96 
L 994.893962 729.26208 
L 992.998868 729.26208 
z
" style="fill:#1f77b4;"/>
   </g>
   <g id="patch_223">
    <path clip-path="url(#pf6ef3ec5ef)" d="M 996.789057 768.96 
L 998.684151 768.96 
L 998.684151 723.589285 
L 996.789057 723.589285 
z
" style="fill:#1f77b4;"/>
   </g>
   <g id="patch_224">
    <path clip-path="url(#pf6ef3ec5ef)" d="M 1000.579245 768.96 
L 1002.47434 768.96 
L 1002.47434 725.785018 
L 1000.579245 725.785018 
z
" style="fill:#1f77b4;"/>
   </g>
   <g id="patch_225">
    <path clip-path="url(#pf6ef3ec5ef)" d="M 1004.369434 768.96 
L 1006.264528 768.96 
L 1006.264528 613.983188 
L 1004.369434 613.983188 
z
" style="fill:#1f77b4;"/>
   </g>
   <g id="patch_226">
    <path clip-path="url(#pf6ef3ec5ef)" d="M 1008.159623 768.96 
L 1010.054717 768.96 
L 1010.054717 632.335322 
L 1008.159623 632.335322 
z
" style="fill:#1f77b4;"/>
   </g>
   <g id="patch_227">
    <path clip-path="url(#pf6ef3ec5ef)" d="M 1011.949811 768.96 
L 1013.844906 768.96 
L 1013.844906 645.503896 
L 1011.949811 645.503896 
z
" style="fill:#1f77b4;"/>
   </g>
   <g id="patch_228">
    <path clip-path="url(#pf6ef3ec5ef)" d="M 1015.74 768.96 
L 1017.635094 768.96 
L 1017.635094 608.153139 
L 1015.74 608.153139 
z
" style="fill:#1f77b4;"/>
   </g>
   <g id="patch_229">
    <path clip-path="url(#pf6ef3ec5ef)" d="M 1019.530189 768.96 
L 1021.425283 768.96 
L 1021.425283 658.78313 
L 1019.530189 658.78313 
z
" style="fill:#1f77b4;"/>
   </g>
   <g id="patch_230">
    <path clip-path="url(#pf6ef3ec5ef)" d="M 1023.320377 768.96 
L 1025.215472 768.96 
L 1025.215472 715.097564 
L 1023.320377 715.097564 
z
" style="fill:#1f77b4;"/>
   </g>
   <g id="patch_231">
    <path clip-path="url(#pf6ef3ec5ef)" d="M 1027.110566 768.96 
L 1029.00566 768.96 
L 1029.00566 692.633527 
L 1027.110566 692.633527 
z
" style="fill:#1f77b4;"/>
   </g>
   <g id="patch_232">
    <path clip-path="url(#pf6ef3ec5ef)" d="M 1030.900755 768.96 
L 1032.795849 768.96 
L 1032.795849 697.263786 
L 1030.900755 697.263786 
z
" style="fill:#1f77b4;"/>
   </g>
   <g id="patch_233">
    <path clip-path="url(#pf6ef3ec5ef)" d="M 1034.690943 768.96 
L 1036.586038 768.96 
L 1036.586038 700.7292 
L 1034.690943 700.7292 
z
" style="fill:#1f77b4;"/>
   </g>
   <g id="patch_234">
    <path clip-path="url(#pf6ef3ec5ef)" d="M 1038.481132 768.96 
L 1040.376226 768.96 
L 1040.376226 702.849218 
L 1038.481132 702.849218 
z
" style="fill:#1f77b4;"/>
   </g>
   <g id="patch_235">
    <path clip-path="url(#pf6ef3ec5ef)" d="M 1042.271321 768.96 
L 1044.166415 768.96 
L 1044.166415 701.608658 
L 1042.271321 701.608658 
z
" style="fill:#1f77b4;"/>
   </g>
   <g id="patch_236">
    <path clip-path="url(#pf6ef3ec5ef)" d="M 1046.061509 768.96 
L 1047.956604 768.96 
L 1047.956604 724.200828 
L 1046.061509 724.200828 
z
" style="fill:#1f77b4;"/>
   </g>
   <g id="patch_237">
    <path clip-path="url(#pf6ef3ec5ef)" d="M 1049.851698 768.96 
L 1051.746792 768.96 
L 1051.746792 714.060852 
L 1049.851698 714.060852 
z
" style="fill:#1f77b4;"/>
   </g>
   <g id="patch_238">
    <path clip-path="url(#pf6ef3ec5ef)" d="M 1053.641887 768.96 
L 1055.536981 768.96 
L 1055.536981 693.122762 
L 1053.641887 693.122762 
z
" style="fill:#1f77b4;"/>
   </g>
   <g id="patch_239">
    <path clip-path="url(#pf6ef3ec5ef)" d="M 1057.432075 768.96 
L 1059.32717 768.96 
L 1059.32717 696.489164 
L 1057.432075 696.489164 
z
" style="fill:#1f77b4;"/>
   </g>
   <g id="patch_240">
    <path clip-path="url(#pf6ef3ec5ef)" d="M 1061.222264 768.96 
L 1063.117358 768.96 
L 1063.117358 692.103523 
L 1061.222264 692.103523 
z
" style="fill:#1f77b4;"/>
   </g>
   <g id="patch_241">
    <path clip-path="url(#pf6ef3ec5ef)" d="M 1065.012453 768.96 
L 1066.907547 768.96 
L 1066.907547 682.266406 
L 1065.012453 682.266406 
z
" style="fill:#1f77b4;"/>
   </g>
   <g id="patch_242">
    <path clip-path="url(#pf6ef3ec5ef)" d="M 1068.802642 768.96 
L 1070.697736 768.96 
L 1070.697736 643.826519 
L 1068.802642 643.826519 
z
" style="fill:#1f77b4;"/>
   </g>
   <g id="patch_243">
    <path clip-path="url(#pf6ef3ec5ef)" d="M 1072.59283 768.96 
L 1074.487925 768.96 
L 1074.487925 565.123762 
L 1072.59283 565.123762 
z
" style="fill:#1f77b4;"/>
   </g>
   <g id="patch_244">
    <path clip-path="url(#pf6ef3ec5ef)" d="M 1076.383019 768.96 
L 1078.278113 768.96 
L 1078.278113 674.106666 
L 1076.383019 674.106666 
z
" style="fill:#1f77b4;"/>
   </g>
   <g id="patch_245">
    <path clip-path="url(#pf6ef3ec5ef)" d="M 1080.173208 768.96 
L 1082.068302 768.96 
L 1082.068302 693.815845 
L 1080.173208 693.815845 
z
" style="fill:#1f77b4;"/>
   </g>
   <g id="patch_246">
    <path clip-path="url(#pf6ef3ec5ef)" d="M 1083.963396 768.96 
L 1085.858491 768.96 
L 1085.858491 698.801382 
L 1083.963396 698.801382 
z
" style="fill:#1f77b4;"/>
   </g>
   <g id="patch_247">
    <path clip-path="url(#pf6ef3ec5ef)" d="M 1087.753585 768.96 
L 1089.648679 768.96 
L 1089.648679 704.456705 
L 1087.753585 704.456705 
z
" style="fill:#1f77b4;"/>
   </g>
   <g id="patch_248">
    <path clip-path="url(#pf6ef3ec5ef)" d="M 1091.543774 768.96 
L 1093.438868 768.96 
L 1093.438868 703.77527 
L 1091.543774 703.77527 
z
" style="fill:#1f77b4;"/>
   </g>
   <g id="patch_249">
    <path clip-path="url(#pf6ef3ec5ef)" d="M 1095.333962 768.96 
L 1097.229057 768.96 
L 1097.229057 708.091021 
L 1095.333962 708.091021 
z
" style="fill:#1f77b4;"/>
   </g>
   <g id="patch_250">
    <path clip-path="url(#pf6ef3ec5ef)" d="M 1099.124151 768.96 
L 1101.019245 768.96 
L 1101.019245 727.287668 
L 1099.124151 727.287668 
z
" style="fill:#1f77b4;"/>
   </g>
   <g id="patch_251">
    <path clip-path="url(#pf6ef3ec5ef)" d="M 1102.91434 768.96 
L 1104.809434 768.96 
L 1104.809434 739.745686 
L 1102.91434 739.745686 
z
" style="fill:#1f77b4;"/>
   </g>
   <g id="patch_252">
    <path clip-path="url(#pf6ef3ec5ef)" d="M 1106.704528 768.96 
L 1108.599623 768.96 
L 1108.599623 732.867276 
L 1106.704528 732.867276 
z
" style="fill:#1f77b4;"/>
   </g>
   <g id="patch_253">
    <path clip-path="url(#pf6ef3ec5ef)" d="M 1110.494717 768.96 
L 1112.389811 768.96 
L 1112.389811 695.865972 
L 1110.494717 695.865972 
z
" style="fill:#1f77b4;"/>
   </g>
   <g id="patch_254">
    <path clip-path="url(#pf6ef3ec5ef)" d="M 1114.284906 768.96 
L 1116.18 768.96 
L 1116.18 704.683849 
L 1114.284906 704.683849 
z
" style="fill:#1f77b4;"/>
   </g>
   <g id="patch_255">
    <path clip-path="url(#pf6ef3ec5ef)" d="M 1118.075094 768.96 
L 1119.970189 768.96 
L 1119.970189 707.95124 
L 1118.075094 707.95124 
z
" style="fill:#1f77b4;"/>
   </g>
   <g id="patch_256">
    <path clip-path="url(#pf6ef3ec5ef)" d="M 1121.865283 768.96 
L 1123.760377 768.96 
L 1123.760377 713.233812 
L 1121.865283 713.233812 
z
" style="fill:#1f77b4;"/>
   </g>
   <g id="patch_257">
    <path clip-path="url(#pf6ef3ec5ef)" d="M 1125.655472 768.96 
L 1127.550566 768.96 
L 1127.550566 727.730309 
L 1125.655472 727.730309 
z
" style="fill:#1f77b4;"/>
   </g>
   <g id="patch_258">
    <path clip-path="url(#pf6ef3ec5ef)" d="M 1129.44566 768.96 
L 1131.340755 768.96 
L 1131.340755 722.412791 
L 1129.44566 722.412791 
z
" style="fill:#1f77b4;"/>
   </g>
   <g id="patch_259">
    <path clip-path="url(#pf6ef3ec5ef)" d="M 1133.235849 768.96 
L 1135.130943 768.96 
L 1135.130943 706.355402 
L 1133.235849 706.355402 
z
" style="fill:#1f77b4;"/>
   </g>
   <g id="patch_260">
    <path clip-path="url(#pf6ef3ec5ef)" d="M 1137.026038 768.96 
L 1138.921132 768.96 
L 1138.921132 709.634441 
L 1137.026038 709.634441 
z
" style="fill:#1f77b4;"/>
   </g>
   <g id="patch_261">
    <path clip-path="url(#pf6ef3ec5ef)" d="M 1140.816226 768.96 
L 1142.711321 768.96 
L 1142.711321 709.110261 
L 1140.816226 709.110261 
z
" style="fill:#1f77b4;"/>
   </g>
   <g id="patch_262">
    <path clip-path="url(#pf6ef3ec5ef)" d="M 1144.606415 768.96 
L 1146.501509 768.96 
L 1146.501509 706.984418 
L 1144.606415 706.984418 
z
" style="fill:#1f77b4;"/>
   </g>
   <g id="patch_263">
    <path clip-path="url(#pf6ef3ec5ef)" d="M 1148.396604 768.96 
L 1150.291698 768.96 
L 1150.291698 707.543544 
L 1148.396604 707.543544 
z
" style="fill:#1f77b4;"/>
   </g>
   <g id="patch_264">
    <path clip-path="url(#pf6ef3ec5ef)" d="M 1152.186792 768.96 
L 1154.081887 768.96 
L 1154.081887 724.923032 
L 1152.186792 724.923032 
z
" style="fill:#1f77b4;"/>
   </g>
   <g id="patch_265">
    <path clip-path="url(#pf6ef3ec5ef)" d="M 1155.976981 768.96 
L 1157.872075 768.96 
L 1157.872075 727.677891 
L 1155.976981 727.677891 
z
" style="fill:#1f77b4;"/>
   </g>
   <g id="patch_266">
    <path clip-path="url(#pf6ef3ec5ef)" d="M 1159.76717 768.96 
L 1161.662264 768.96 
L 1161.662264 698.789733 
L 1159.76717 698.789733 
z
" style="fill:#1f77b4;"/>
   </g>
   <g id="patch_267">
    <path clip-path="url(#pf6ef3ec5ef)" d="M 1163.557358 768.96 
L 1165.452453 768.96 
L 1165.452453 718.201876 
L 1163.557358 718.201876 
z
" style="fill:#1f77b4;"/>
   </g>
   <g id="matplotlib.axis_1">
    <g id="xtick_1">
     <g id="line2d_1">
      <defs>
       <path d="M 0 0 
L 0 3.5 
" id="m9dca23b5eb" style="stroke:#000000;stroke-width:0.8;"/>
      </defs>
      <g>
       <use style="stroke:#000000;stroke-width:0.8;" x="163.895094" xlink:href="#m9dca23b5eb" y="768.96"/>
      </g>
     </g>
     <g id="text_1">
      <!-- January -->
      <g transform="translate(144.939626 783.558437)scale(0.1 -0.1)">
       <defs>
        <path d="M 628 4666 
L 1259 4666 
L 1259 325 
Q 1259 -519 939 -900 
Q 619 -1281 -91 -1281 
L -331 -1281 
L -331 -750 
L -134 -750 
Q 284 -750 456 -515 
Q 628 -281 628 325 
L 628 4666 
z
" id="DejaVuSans-4a" transform="scale(0.015625)"/>
        <path d="M 2194 1759 
Q 1497 1759 1228 1600 
Q 959 1441 959 1056 
Q 959 750 1161 570 
Q 1363 391 1709 391 
Q 2188 391 2477 730 
Q 2766 1069 2766 1631 
L 2766 1759 
L 2194 1759 
z
M 3341 1997 
L 3341 0 
L 2766 0 
L 2766 531 
Q 2569 213 2275 61 
Q 1981 -91 1556 -91 
Q 1019 -91 701 211 
Q 384 513 384 1019 
Q 384 1609 779 1909 
Q 1175 2209 1959 2209 
L 2766 2209 
L 2766 2266 
Q 2766 2663 2505 2880 
Q 2244 3097 1772 3097 
Q 1472 3097 1187 3025 
Q 903 2953 641 2809 
L 641 3341 
Q 956 3463 1253 3523 
Q 1550 3584 1831 3584 
Q 2591 3584 2966 3190 
Q 3341 2797 3341 1997 
z
" id="DejaVuSans-61" transform="scale(0.015625)"/>
        <path d="M 3513 2113 
L 3513 0 
L 2938 0 
L 2938 2094 
Q 2938 2591 2744 2837 
Q 2550 3084 2163 3084 
Q 1697 3084 1428 2787 
Q 1159 2491 1159 1978 
L 1159 0 
L 581 0 
L 581 3500 
L 1159 3500 
L 1159 2956 
Q 1366 3272 1645 3428 
Q 1925 3584 2291 3584 
Q 2894 3584 3203 3211 
Q 3513 2838 3513 2113 
z
" id="DejaVuSans-6e" transform="scale(0.015625)"/>
        <path d="M 544 1381 
L 544 3500 
L 1119 3500 
L 1119 1403 
Q 1119 906 1312 657 
Q 1506 409 1894 409 
Q 2359 409 2629 706 
Q 2900 1003 2900 1516 
L 2900 3500 
L 3475 3500 
L 3475 0 
L 2900 0 
L 2900 538 
Q 2691 219 2414 64 
Q 2138 -91 1772 -91 
Q 1169 -91 856 284 
Q 544 659 544 1381 
z
M 1991 3584 
L 1991 3584 
z
" id="DejaVuSans-75" transform="scale(0.015625)"/>
        <path d="M 2631 2963 
Q 2534 3019 2420 3045 
Q 2306 3072 2169 3072 
Q 1681 3072 1420 2755 
Q 1159 2438 1159 1844 
L 1159 0 
L 581 0 
L 581 3500 
L 1159 3500 
L 1159 2956 
Q 1341 3275 1631 3429 
Q 1922 3584 2338 3584 
Q 2397 3584 2469 3576 
Q 2541 3569 2628 3553 
L 2631 2963 
z
" id="DejaVuSans-72" transform="scale(0.015625)"/>
        <path d="M 2059 -325 
Q 1816 -950 1584 -1140 
Q 1353 -1331 966 -1331 
L 506 -1331 
L 506 -850 
L 844 -850 
Q 1081 -850 1212 -737 
Q 1344 -625 1503 -206 
L 1606 56 
L 191 3500 
L 800 3500 
L 1894 763 
L 2988 3500 
L 3597 3500 
L 2059 -325 
z
" id="DejaVuSans-79" transform="scale(0.015625)"/>
       </defs>
       <use xlink:href="#DejaVuSans-4a"/>
       <use x="29.492188" xlink:href="#DejaVuSans-61"/>
       <use x="90.771484" xlink:href="#DejaVuSans-6e"/>
       <use x="154.150391" xlink:href="#DejaVuSans-75"/>
       <use x="217.529297" xlink:href="#DejaVuSans-61"/>
       <use x="278.808594" xlink:href="#DejaVuSans-72"/>
       <use x="319.921875" xlink:href="#DejaVuSans-79"/>
      </g>
     </g>
    </g>
    <g id="xtick_2">
     <g id="line2d_2">
      <g>
       <use style="stroke:#000000;stroke-width:0.8;" x="281.390943" xlink:href="#m9dca23b5eb" y="768.96"/>
      </g>
     </g>
     <g id="text_2">
      <!-- February -->
      <g transform="translate(259.236256 783.558437)scale(0.1 -0.1)">
       <defs>
        <path d="M 628 4666 
L 3309 4666 
L 3309 4134 
L 1259 4134 
L 1259 2759 
L 3109 2759 
L 3109 2228 
L 1259 2228 
L 1259 0 
L 628 0 
L 628 4666 
z
" id="DejaVuSans-46" transform="scale(0.015625)"/>
        <path d="M 3597 1894 
L 3597 1613 
L 953 1613 
Q 991 1019 1311 708 
Q 1631 397 2203 397 
Q 2534 397 2845 478 
Q 3156 559 3463 722 
L 3463 178 
Q 3153 47 2828 -22 
Q 2503 -91 2169 -91 
Q 1331 -91 842 396 
Q 353 884 353 1716 
Q 353 2575 817 3079 
Q 1281 3584 2069 3584 
Q 2775 3584 3186 3129 
Q 3597 2675 3597 1894 
z
M 3022 2063 
Q 3016 2534 2758 2815 
Q 2500 3097 2075 3097 
Q 1594 3097 1305 2825 
Q 1016 2553 972 2059 
L 3022 2063 
z
" id="DejaVuSans-65" transform="scale(0.015625)"/>
        <path d="M 3116 1747 
Q 3116 2381 2855 2742 
Q 2594 3103 2138 3103 
Q 1681 3103 1420 2742 
Q 1159 2381 1159 1747 
Q 1159 1113 1420 752 
Q 1681 391 2138 391 
Q 2594 391 2855 752 
Q 3116 1113 3116 1747 
z
M 1159 2969 
Q 1341 3281 1617 3432 
Q 1894 3584 2278 3584 
Q 2916 3584 3314 3078 
Q 3713 2572 3713 1747 
Q 3713 922 3314 415 
Q 2916 -91 2278 -91 
Q 1894 -91 1617 61 
Q 1341 213 1159 525 
L 1159 0 
L 581 0 
L 581 4863 
L 1159 4863 
L 1159 2969 
z
" id="DejaVuSans-62" transform="scale(0.015625)"/>
       </defs>
       <use xlink:href="#DejaVuSans-46"/>
       <use x="52.019531" xlink:href="#DejaVuSans-65"/>
       <use x="113.542969" xlink:href="#DejaVuSans-62"/>
       <use x="177.019531" xlink:href="#DejaVuSans-72"/>
       <use x="218.132812" xlink:href="#DejaVuSans-75"/>
       <use x="281.511719" xlink:href="#DejaVuSans-61"/>
       <use x="342.791016" xlink:href="#DejaVuSans-72"/>
       <use x="383.904297" xlink:href="#DejaVuSans-79"/>
      </g>
     </g>
    </g>
    <g id="xtick_3">
     <g id="line2d_3">
      <g>
       <use style="stroke:#000000;stroke-width:0.8;" x="387.516226" xlink:href="#m9dca23b5eb" y="768.96"/>
      </g>
     </g>
     <g id="text_3">
      <!-- March -->
      <g transform="translate(372.277164 783.558437)scale(0.1 -0.1)">
       <defs>
        <path d="M 628 4666 
L 1569 4666 
L 2759 1491 
L 3956 4666 
L 4897 4666 
L 4897 0 
L 4281 0 
L 4281 4097 
L 3078 897 
L 2444 897 
L 1241 4097 
L 1241 0 
L 628 0 
L 628 4666 
z
" id="DejaVuSans-4d" transform="scale(0.015625)"/>
        <path d="M 3122 3366 
L 3122 2828 
Q 2878 2963 2633 3030 
Q 2388 3097 2138 3097 
Q 1578 3097 1268 2742 
Q 959 2388 959 1747 
Q 959 1106 1268 751 
Q 1578 397 2138 397 
Q 2388 397 2633 464 
Q 2878 531 3122 666 
L 3122 134 
Q 2881 22 2623 -34 
Q 2366 -91 2075 -91 
Q 1284 -91 818 406 
Q 353 903 353 1747 
Q 353 2603 823 3093 
Q 1294 3584 2113 3584 
Q 2378 3584 2631 3529 
Q 2884 3475 3122 3366 
z
" id="DejaVuSans-63" transform="scale(0.015625)"/>
        <path d="M 3513 2113 
L 3513 0 
L 2938 0 
L 2938 2094 
Q 2938 2591 2744 2837 
Q 2550 3084 2163 3084 
Q 1697 3084 1428 2787 
Q 1159 2491 1159 1978 
L 1159 0 
L 581 0 
L 581 4863 
L 1159 4863 
L 1159 2956 
Q 1366 3272 1645 3428 
Q 1925 3584 2291 3584 
Q 2894 3584 3203 3211 
Q 3513 2838 3513 2113 
z
" id="DejaVuSans-68" transform="scale(0.015625)"/>
       </defs>
       <use xlink:href="#DejaVuSans-4d"/>
       <use x="86.279297" xlink:href="#DejaVuSans-61"/>
       <use x="147.558594" xlink:href="#DejaVuSans-72"/>
       <use x="186.421875" xlink:href="#DejaVuSans-63"/>
       <use x="241.402344" xlink:href="#DejaVuSans-68"/>
      </g>
     </g>
    </g>
    <g id="xtick_4">
     <g id="line2d_4">
      <g>
       <use style="stroke:#000000;stroke-width:0.8;" x="505.012075" xlink:href="#m9dca23b5eb" y="768.96"/>
      </g>
     </g>
     <g id="text_4">
      <!-- April -->
      <g transform="translate(493.58395 783.558437)scale(0.1 -0.1)">
       <defs>
        <path d="M 2188 4044 
L 1331 1722 
L 3047 1722 
L 2188 4044 
z
M 1831 4666 
L 2547 4666 
L 4325 0 
L 3669 0 
L 3244 1197 
L 1141 1197 
L 716 0 
L 50 0 
L 1831 4666 
z
" id="DejaVuSans-41" transform="scale(0.015625)"/>
        <path d="M 1159 525 
L 1159 -1331 
L 581 -1331 
L 581 3500 
L 1159 3500 
L 1159 2969 
Q 1341 3281 1617 3432 
Q 1894 3584 2278 3584 
Q 2916 3584 3314 3078 
Q 3713 2572 3713 1747 
Q 3713 922 3314 415 
Q 2916 -91 2278 -91 
Q 1894 -91 1617 61 
Q 1341 213 1159 525 
z
M 3116 1747 
Q 3116 2381 2855 2742 
Q 2594 3103 2138 3103 
Q 1681 3103 1420 2742 
Q 1159 2381 1159 1747 
Q 1159 1113 1420 752 
Q 1681 391 2138 391 
Q 2594 391 2855 752 
Q 3116 1113 3116 1747 
z
" id="DejaVuSans-70" transform="scale(0.015625)"/>
        <path d="M 603 3500 
L 1178 3500 
L 1178 0 
L 603 0 
L 603 3500 
z
M 603 4863 
L 1178 4863 
L 1178 4134 
L 603 4134 
L 603 4863 
z
" id="DejaVuSans-69" transform="scale(0.015625)"/>
        <path d="M 603 4863 
L 1178 4863 
L 1178 0 
L 603 0 
L 603 4863 
z
" id="DejaVuSans-6c" transform="scale(0.015625)"/>
       </defs>
       <use xlink:href="#DejaVuSans-41"/>
       <use x="68.408203" xlink:href="#DejaVuSans-70"/>
       <use x="131.884766" xlink:href="#DejaVuSans-72"/>
       <use x="172.998047" xlink:href="#DejaVuSans-69"/>
       <use x="200.78125" xlink:href="#DejaVuSans-6c"/>
      </g>
     </g>
    </g>
    <g id="xtick_5">
     <g id="line2d_5">
      <g>
       <use style="stroke:#000000;stroke-width:0.8;" x="618.717736" xlink:href="#m9dca23b5eb" y="768.96"/>
      </g>
     </g>
     <g id="text_5">
      <!-- May -->
      <g transform="translate(608.380236 783.558437)scale(0.1 -0.1)">
       <use xlink:href="#DejaVuSans-4d"/>
       <use x="86.279297" xlink:href="#DejaVuSans-61"/>
       <use x="147.558594" xlink:href="#DejaVuSans-79"/>
      </g>
     </g>
    </g>
    <g id="xtick_6">
     <g id="line2d_6">
      <g>
       <use style="stroke:#000000;stroke-width:0.8;" x="736.213585" xlink:href="#m9dca23b5eb" y="768.96"/>
      </g>
     </g>
     <g id="text_6">
      <!-- June -->
      <g transform="translate(725.324522 783.558437)scale(0.1 -0.1)">
       <use xlink:href="#DejaVuSans-4a"/>
       <use x="29.492188" xlink:href="#DejaVuSans-75"/>
       <use x="92.871094" xlink:href="#DejaVuSans-6e"/>
       <use x="156.25" xlink:href="#DejaVuSans-65"/>
      </g>
     </g>
    </g>
    <g id="xtick_7">
     <g id="line2d_7">
      <g>
       <use style="stroke:#000000;stroke-width:0.8;" x="849.919245" xlink:href="#m9dca23b5eb" y="768.96"/>
      </g>
     </g>
     <g id="text_7">
      <!-- July -->
      <g transform="translate(840.927058 783.558437)scale(0.1 -0.1)">
       <use xlink:href="#DejaVuSans-4a"/>
       <use x="29.492188" xlink:href="#DejaVuSans-75"/>
       <use x="92.871094" xlink:href="#DejaVuSans-6c"/>
       <use x="120.654297" xlink:href="#DejaVuSans-79"/>
      </g>
     </g>
    </g>
    <g id="xtick_8">
     <g id="line2d_8">
      <g>
       <use style="stroke:#000000;stroke-width:0.8;" x="967.415094" xlink:href="#m9dca23b5eb" y="768.96"/>
      </g>
     </g>
     <g id="text_8">
      <!-- August -->
      <g transform="translate(949.918219 783.558437)scale(0.1 -0.1)">
       <defs>
        <path d="M 2906 1791 
Q 2906 2416 2648 2759 
Q 2391 3103 1925 3103 
Q 1463 3103 1205 2759 
Q 947 2416 947 1791 
Q 947 1169 1205 825 
Q 1463 481 1925 481 
Q 2391 481 2648 825 
Q 2906 1169 2906 1791 
z
M 3481 434 
Q 3481 -459 3084 -895 
Q 2688 -1331 1869 -1331 
Q 1566 -1331 1297 -1286 
Q 1028 -1241 775 -1147 
L 775 -588 
Q 1028 -725 1275 -790 
Q 1522 -856 1778 -856 
Q 2344 -856 2625 -561 
Q 2906 -266 2906 331 
L 2906 616 
Q 2728 306 2450 153 
Q 2172 0 1784 0 
Q 1141 0 747 490 
Q 353 981 353 1791 
Q 353 2603 747 3093 
Q 1141 3584 1784 3584 
Q 2172 3584 2450 3431 
Q 2728 3278 2906 2969 
L 2906 3500 
L 3481 3500 
L 3481 434 
z
" id="DejaVuSans-67" transform="scale(0.015625)"/>
        <path d="M 2834 3397 
L 2834 2853 
Q 2591 2978 2328 3040 
Q 2066 3103 1784 3103 
Q 1356 3103 1142 2972 
Q 928 2841 928 2578 
Q 928 2378 1081 2264 
Q 1234 2150 1697 2047 
L 1894 2003 
Q 2506 1872 2764 1633 
Q 3022 1394 3022 966 
Q 3022 478 2636 193 
Q 2250 -91 1575 -91 
Q 1294 -91 989 -36 
Q 684 19 347 128 
L 347 722 
Q 666 556 975 473 
Q 1284 391 1588 391 
Q 1994 391 2212 530 
Q 2431 669 2431 922 
Q 2431 1156 2273 1281 
Q 2116 1406 1581 1522 
L 1381 1569 
Q 847 1681 609 1914 
Q 372 2147 372 2553 
Q 372 3047 722 3315 
Q 1072 3584 1716 3584 
Q 2034 3584 2315 3537 
Q 2597 3491 2834 3397 
z
" id="DejaVuSans-73" transform="scale(0.015625)"/>
        <path d="M 1172 4494 
L 1172 3500 
L 2356 3500 
L 2356 3053 
L 1172 3053 
L 1172 1153 
Q 1172 725 1289 603 
Q 1406 481 1766 481 
L 2356 481 
L 2356 0 
L 1766 0 
Q 1100 0 847 248 
Q 594 497 594 1153 
L 594 3053 
L 172 3053 
L 172 3500 
L 594 3500 
L 594 4494 
L 1172 4494 
z
" id="DejaVuSans-74" transform="scale(0.015625)"/>
       </defs>
       <use xlink:href="#DejaVuSans-41"/>
       <use x="68.408203" xlink:href="#DejaVuSans-75"/>
       <use x="131.787109" xlink:href="#DejaVuSans-67"/>
       <use x="195.263672" xlink:href="#DejaVuSans-75"/>
       <use x="258.642578" xlink:href="#DejaVuSans-73"/>
       <use x="310.742188" xlink:href="#DejaVuSans-74"/>
      </g>
     </g>
    </g>
    <g id="xtick_9">
     <g id="line2d_9">
      <g>
       <use style="stroke:#000000;stroke-width:0.8;" x="1084.910943" xlink:href="#m9dca23b5eb" y="768.96"/>
      </g>
     </g>
     <g id="text_9">
      <!-- September -->
      <g transform="translate(1057.272662 783.558437)scale(0.1 -0.1)">
       <defs>
        <path d="M 3425 4513 
L 3425 3897 
Q 3066 4069 2747 4153 
Q 2428 4238 2131 4238 
Q 1616 4238 1336 4038 
Q 1056 3838 1056 3469 
Q 1056 3159 1242 3001 
Q 1428 2844 1947 2747 
L 2328 2669 
Q 3034 2534 3370 2195 
Q 3706 1856 3706 1288 
Q 3706 609 3251 259 
Q 2797 -91 1919 -91 
Q 1588 -91 1214 -16 
Q 841 59 441 206 
L 441 856 
Q 825 641 1194 531 
Q 1563 422 1919 422 
Q 2459 422 2753 634 
Q 3047 847 3047 1241 
Q 3047 1584 2836 1778 
Q 2625 1972 2144 2069 
L 1759 2144 
Q 1053 2284 737 2584 
Q 422 2884 422 3419 
Q 422 4038 858 4394 
Q 1294 4750 2059 4750 
Q 2388 4750 2728 4690 
Q 3069 4631 3425 4513 
z
" id="DejaVuSans-53" transform="scale(0.015625)"/>
        <path d="M 3328 2828 
Q 3544 3216 3844 3400 
Q 4144 3584 4550 3584 
Q 5097 3584 5394 3201 
Q 5691 2819 5691 2113 
L 5691 0 
L 5113 0 
L 5113 2094 
Q 5113 2597 4934 2840 
Q 4756 3084 4391 3084 
Q 3944 3084 3684 2787 
Q 3425 2491 3425 1978 
L 3425 0 
L 2847 0 
L 2847 2094 
Q 2847 2600 2669 2842 
Q 2491 3084 2119 3084 
Q 1678 3084 1418 2786 
Q 1159 2488 1159 1978 
L 1159 0 
L 581 0 
L 581 3500 
L 1159 3500 
L 1159 2956 
Q 1356 3278 1631 3431 
Q 1906 3584 2284 3584 
Q 2666 3584 2933 3390 
Q 3200 3197 3328 2828 
z
" id="DejaVuSans-6d" transform="scale(0.015625)"/>
       </defs>
       <use xlink:href="#DejaVuSans-53"/>
       <use x="63.476562" xlink:href="#DejaVuSans-65"/>
       <use x="125" xlink:href="#DejaVuSans-70"/>
       <use x="188.476562" xlink:href="#DejaVuSans-74"/>
       <use x="227.685547" xlink:href="#DejaVuSans-65"/>
       <use x="289.208984" xlink:href="#DejaVuSans-6d"/>
       <use x="386.621094" xlink:href="#DejaVuSans-62"/>
       <use x="450.097656" xlink:href="#DejaVuSans-65"/>
       <use x="511.621094" xlink:href="#DejaVuSans-72"/>
      </g>
     </g>
    </g>
   </g>
   <g id="matplotlib.axis_2">
    <g id="ytick_1">
     <g id="line2d_10">
      <defs>
       <path d="M 0 0 
L -3.5 0 
" id="m6804d71899" style="stroke:#000000;stroke-width:0.8;"/>
      </defs>
      <g>
       <use style="stroke:#000000;stroke-width:0.8;" x="162" xlink:href="#m6804d71899" y="768.96"/>
      </g>
     </g>
     <g id="text_10">
      <!-- 0 -->
      <g transform="translate(148.6375 772.759219)scale(0.1 -0.1)">
       <defs>
        <path d="M 2034 4250 
Q 1547 4250 1301 3770 
Q 1056 3291 1056 2328 
Q 1056 1369 1301 889 
Q 1547 409 2034 409 
Q 2525 409 2770 889 
Q 3016 1369 3016 2328 
Q 3016 3291 2770 3770 
Q 2525 4250 2034 4250 
z
M 2034 4750 
Q 2819 4750 3233 4129 
Q 3647 3509 3647 2328 
Q 3647 1150 3233 529 
Q 2819 -91 2034 -91 
Q 1250 -91 836 529 
Q 422 1150 422 2328 
Q 422 3509 836 4129 
Q 1250 4750 2034 4750 
z
" id="DejaVuSans-30" transform="scale(0.015625)"/>
       </defs>
       <use xlink:href="#DejaVuSans-30"/>
      </g>
     </g>
    </g>
    <g id="ytick_2">
     <g id="line2d_11">
      <g>
       <use style="stroke:#000000;stroke-width:0.8;" x="162" xlink:href="#m6804d71899" y="652.475494"/>
      </g>
     </g>
     <g id="text_11">
      <!-- 20000 -->
      <g transform="translate(123.1875 656.274712)scale(0.1 -0.1)">
       <defs>
        <path d="M 1228 531 
L 3431 531 
L 3431 0 
L 469 0 
L 469 531 
Q 828 903 1448 1529 
Q 2069 2156 2228 2338 
Q 2531 2678 2651 2914 
Q 2772 3150 2772 3378 
Q 2772 3750 2511 3984 
Q 2250 4219 1831 4219 
Q 1534 4219 1204 4116 
Q 875 4013 500 3803 
L 500 4441 
Q 881 4594 1212 4672 
Q 1544 4750 1819 4750 
Q 2544 4750 2975 4387 
Q 3406 4025 3406 3419 
Q 3406 3131 3298 2873 
Q 3191 2616 2906 2266 
Q 2828 2175 2409 1742 
Q 1991 1309 1228 531 
z
" id="DejaVuSans-32" transform="scale(0.015625)"/>
       </defs>
       <use xlink:href="#DejaVuSans-32"/>
       <use x="63.623047" xlink:href="#DejaVuSans-30"/>
       <use x="127.246094" xlink:href="#DejaVuSans-30"/>
       <use x="190.869141" xlink:href="#DejaVuSans-30"/>
       <use x="254.492188" xlink:href="#DejaVuSans-30"/>
      </g>
     </g>
    </g>
    <g id="ytick_3">
     <g id="line2d_12">
      <g>
       <use style="stroke:#000000;stroke-width:0.8;" x="162" xlink:href="#m6804d71899" y="535.990987"/>
      </g>
     </g>
     <g id="text_12">
      <!-- 40000 -->
      <g transform="translate(123.1875 539.790206)scale(0.1 -0.1)">
       <defs>
        <path d="M 2419 4116 
L 825 1625 
L 2419 1625 
L 2419 4116 
z
M 2253 4666 
L 3047 4666 
L 3047 1625 
L 3713 1625 
L 3713 1100 
L 3047 1100 
L 3047 0 
L 2419 0 
L 2419 1100 
L 313 1100 
L 313 1709 
L 2253 4666 
z
" id="DejaVuSans-34" transform="scale(0.015625)"/>
       </defs>
       <use xlink:href="#DejaVuSans-34"/>
       <use x="63.623047" xlink:href="#DejaVuSans-30"/>
       <use x="127.246094" xlink:href="#DejaVuSans-30"/>
       <use x="190.869141" xlink:href="#DejaVuSans-30"/>
       <use x="254.492188" xlink:href="#DejaVuSans-30"/>
      </g>
     </g>
    </g>
    <g id="ytick_4">
     <g id="line2d_13">
      <g>
       <use style="stroke:#000000;stroke-width:0.8;" x="162" xlink:href="#m6804d71899" y="419.506481"/>
      </g>
     </g>
     <g id="text_13">
      <!-- 60000 -->
      <g transform="translate(123.1875 423.305699)scale(0.1 -0.1)">
       <defs>
        <path d="M 2113 2584 
Q 1688 2584 1439 2293 
Q 1191 2003 1191 1497 
Q 1191 994 1439 701 
Q 1688 409 2113 409 
Q 2538 409 2786 701 
Q 3034 994 3034 1497 
Q 3034 2003 2786 2293 
Q 2538 2584 2113 2584 
z
M 3366 4563 
L 3366 3988 
Q 3128 4100 2886 4159 
Q 2644 4219 2406 4219 
Q 1781 4219 1451 3797 
Q 1122 3375 1075 2522 
Q 1259 2794 1537 2939 
Q 1816 3084 2150 3084 
Q 2853 3084 3261 2657 
Q 3669 2231 3669 1497 
Q 3669 778 3244 343 
Q 2819 -91 2113 -91 
Q 1303 -91 875 529 
Q 447 1150 447 2328 
Q 447 3434 972 4092 
Q 1497 4750 2381 4750 
Q 2619 4750 2861 4703 
Q 3103 4656 3366 4563 
z
" id="DejaVuSans-36" transform="scale(0.015625)"/>
       </defs>
       <use xlink:href="#DejaVuSans-36"/>
       <use x="63.623047" xlink:href="#DejaVuSans-30"/>
       <use x="127.246094" xlink:href="#DejaVuSans-30"/>
       <use x="190.869141" xlink:href="#DejaVuSans-30"/>
       <use x="254.492188" xlink:href="#DejaVuSans-30"/>
      </g>
     </g>
    </g>
    <g id="ytick_5">
     <g id="line2d_14">
      <g>
       <use style="stroke:#000000;stroke-width:0.8;" x="162" xlink:href="#m6804d71899" y="303.021974"/>
      </g>
     </g>
     <g id="text_14">
      <!-- 80000 -->
      <g transform="translate(123.1875 306.821193)scale(0.1 -0.1)">
       <defs>
        <path d="M 2034 2216 
Q 1584 2216 1326 1975 
Q 1069 1734 1069 1313 
Q 1069 891 1326 650 
Q 1584 409 2034 409 
Q 2484 409 2743 651 
Q 3003 894 3003 1313 
Q 3003 1734 2745 1975 
Q 2488 2216 2034 2216 
z
M 1403 2484 
Q 997 2584 770 2862 
Q 544 3141 544 3541 
Q 544 4100 942 4425 
Q 1341 4750 2034 4750 
Q 2731 4750 3128 4425 
Q 3525 4100 3525 3541 
Q 3525 3141 3298 2862 
Q 3072 2584 2669 2484 
Q 3125 2378 3379 2068 
Q 3634 1759 3634 1313 
Q 3634 634 3220 271 
Q 2806 -91 2034 -91 
Q 1263 -91 848 271 
Q 434 634 434 1313 
Q 434 1759 690 2068 
Q 947 2378 1403 2484 
z
M 1172 3481 
Q 1172 3119 1398 2916 
Q 1625 2713 2034 2713 
Q 2441 2713 2670 2916 
Q 2900 3119 2900 3481 
Q 2900 3844 2670 4047 
Q 2441 4250 2034 4250 
Q 1625 4250 1398 4047 
Q 1172 3844 1172 3481 
z
" id="DejaVuSans-38" transform="scale(0.015625)"/>
       </defs>
       <use xlink:href="#DejaVuSans-38"/>
       <use x="63.623047" xlink:href="#DejaVuSans-30"/>
       <use x="127.246094" xlink:href="#DejaVuSans-30"/>
       <use x="190.869141" xlink:href="#DejaVuSans-30"/>
       <use x="254.492188" xlink:href="#DejaVuSans-30"/>
      </g>
     </g>
    </g>
    <g id="ytick_6">
     <g id="line2d_15">
      <g>
       <use style="stroke:#000000;stroke-width:0.8;" x="162" xlink:href="#m6804d71899" y="186.537468"/>
      </g>
     </g>
     <g id="text_15">
      <!-- 100000 -->
      <g transform="translate(116.825 190.336687)scale(0.1 -0.1)">
       <defs>
        <path d="M 794 531 
L 1825 531 
L 1825 4091 
L 703 3866 
L 703 4441 
L 1819 4666 
L 2450 4666 
L 2450 531 
L 3481 531 
L 3481 0 
L 794 0 
L 794 531 
z
" id="DejaVuSans-31" transform="scale(0.015625)"/>
       </defs>
       <use xlink:href="#DejaVuSans-31"/>
       <use x="63.623047" xlink:href="#DejaVuSans-30"/>
       <use x="127.246094" xlink:href="#DejaVuSans-30"/>
       <use x="190.869141" xlink:href="#DejaVuSans-30"/>
       <use x="254.492188" xlink:href="#DejaVuSans-30"/>
       <use x="318.115234" xlink:href="#DejaVuSans-30"/>
      </g>
     </g>
    </g>
    <g id="text_16">
     <!-- Persons fully vaccinated -->
     <g transform="translate(110.745312 496.922344)rotate(-90)scale(0.1 -0.1)">
      <defs>
       <path d="M 1259 4147 
L 1259 2394 
L 2053 2394 
Q 2494 2394 2734 2622 
Q 2975 2850 2975 3272 
Q 2975 3691 2734 3919 
Q 2494 4147 2053 4147 
L 1259 4147 
z
M 628 4666 
L 2053 4666 
Q 2838 4666 3239 4311 
Q 3641 3956 3641 3272 
Q 3641 2581 3239 2228 
Q 2838 1875 2053 1875 
L 1259 1875 
L 1259 0 
L 628 0 
L 628 4666 
z
" id="DejaVuSans-50" transform="scale(0.015625)"/>
       <path d="M 1959 3097 
Q 1497 3097 1228 2736 
Q 959 2375 959 1747 
Q 959 1119 1226 758 
Q 1494 397 1959 397 
Q 2419 397 2687 759 
Q 2956 1122 2956 1747 
Q 2956 2369 2687 2733 
Q 2419 3097 1959 3097 
z
M 1959 3584 
Q 2709 3584 3137 3096 
Q 3566 2609 3566 1747 
Q 3566 888 3137 398 
Q 2709 -91 1959 -91 
Q 1206 -91 779 398 
Q 353 888 353 1747 
Q 353 2609 779 3096 
Q 1206 3584 1959 3584 
z
" id="DejaVuSans-6f" transform="scale(0.015625)"/>
       <path id="DejaVuSans-20" transform="scale(0.015625)"/>
       <path d="M 2375 4863 
L 2375 4384 
L 1825 4384 
Q 1516 4384 1395 4259 
Q 1275 4134 1275 3809 
L 1275 3500 
L 2222 3500 
L 2222 3053 
L 1275 3053 
L 1275 0 
L 697 0 
L 697 3053 
L 147 3053 
L 147 3500 
L 697 3500 
L 697 3744 
Q 697 4328 969 4595 
Q 1241 4863 1831 4863 
L 2375 4863 
z
" id="DejaVuSans-66" transform="scale(0.015625)"/>
       <path d="M 191 3500 
L 800 3500 
L 1894 563 
L 2988 3500 
L 3597 3500 
L 2284 0 
L 1503 0 
L 191 3500 
z
" id="DejaVuSans-76" transform="scale(0.015625)"/>
       <path d="M 2906 2969 
L 2906 4863 
L 3481 4863 
L 3481 0 
L 2906 0 
L 2906 525 
Q 2725 213 2448 61 
Q 2172 -91 1784 -91 
Q 1150 -91 751 415 
Q 353 922 353 1747 
Q 353 2572 751 3078 
Q 1150 3584 1784 3584 
Q 2172 3584 2448 3432 
Q 2725 3281 2906 2969 
z
M 947 1747 
Q 947 1113 1208 752 
Q 1469 391 1925 391 
Q 2381 391 2643 752 
Q 2906 1113 2906 1747 
Q 2906 2381 2643 2742 
Q 2381 3103 1925 3103 
Q 1469 3103 1208 2742 
Q 947 2381 947 1747 
z
" id="DejaVuSans-64" transform="scale(0.015625)"/>
      </defs>
      <use xlink:href="#DejaVuSans-50"/>
      <use x="56.677734" xlink:href="#DejaVuSans-65"/>
      <use x="118.201172" xlink:href="#DejaVuSans-72"/>
      <use x="159.314453" xlink:href="#DejaVuSans-73"/>
      <use x="211.414062" xlink:href="#DejaVuSans-6f"/>
      <use x="272.595703" xlink:href="#DejaVuSans-6e"/>
      <use x="335.974609" xlink:href="#DejaVuSans-73"/>
      <use x="388.074219" xlink:href="#DejaVuSans-20"/>
      <use x="419.861328" xlink:href="#DejaVuSans-66"/>
      <use x="455.066406" xlink:href="#DejaVuSans-75"/>
      <use x="518.445312" xlink:href="#DejaVuSans-6c"/>
      <use x="546.228516" xlink:href="#DejaVuSans-6c"/>
      <use x="574.011719" xlink:href="#DejaVuSans-79"/>
      <use x="633.191406" xlink:href="#DejaVuSans-20"/>
      <use x="664.978516" xlink:href="#DejaVuSans-76"/>
      <use x="724.158203" xlink:href="#DejaVuSans-61"/>
      <use x="785.4375" xlink:href="#DejaVuSans-63"/>
      <use x="840.417969" xlink:href="#DejaVuSans-63"/>
      <use x="895.398438" xlink:href="#DejaVuSans-69"/>
      <use x="923.181641" xlink:href="#DejaVuSans-6e"/>
      <use x="986.560547" xlink:href="#DejaVuSans-61"/>
      <use x="1047.839844" xlink:href="#DejaVuSans-74"/>
      <use x="1087.048828" xlink:href="#DejaVuSans-65"/>
      <use x="1148.572266" xlink:href="#DejaVuSans-64"/>
     </g>
    </g>
   </g>
   <g id="line2d_16">
    <path clip-path="url(#pf6ef3ec5ef)" d="M 228.328302 743.750257 
L 232.118491 743.509799 
L 235.908679 744.748695 
L 239.698868 741.227535 
L 243.489057 740.333101 
L 247.279245 738.222235 
L 251.069434 733.793328 
L 254.859623 725.74092 
L 258.649811 717.149356 
L 262.44 710.770997 
L 266.230189 704.041521 
L 270.020377 699.449535 
L 273.810566 698.392854 
L 277.600755 698.451096 
L 281.390943 695.949175 
L 285.181132 701.086142 
L 288.971321 700.891447 
L 292.761509 701.455564 
L 296.551698 698.249744 
L 300.341887 698.627487 
L 304.132075 694.482303 
L 307.922264 695.224475 
L 311.712453 689.375289 
L 315.502642 679.541501 
L 319.29283 670.407451 
L 323.083019 667.413799 
L 326.873208 663.816092 
L 330.663396 667.903034 
L 334.453585 668.808285 
L 338.243774 664.021604 
L 342.033962 660.165967 
L 345.824151 654.300972 
L 349.61434 663.019838 
L 353.404528 650.340499 
L 357.194717 641.960271 
L 360.984906 632.107346 
L 364.775094 609.793074 
L 368.565283 593.132462 
L 372.355472 580.66862 
L 376.14566 550.618945 
L 379.935849 553.759035 
L 383.726038 544.353743 
L 387.516226 534.237063 
L 391.306415 540.039656 
L 395.096604 528.703217 
L 398.886792 514.469643 
L 402.676981 508.874226 
L 406.46717 512.835531 
L 410.257358 503.02504 
L 414.047547 491.631191 
L 417.837736 480.998652 
L 421.627925 484.462402 
L 425.418113 477.798656 
L 429.208302 479.013423 
L 432.998491 452.884284 
L 436.788679 453.217097 
L 440.578868 459.216881 
L 444.369057 473.92721 
L 448.159245 487.2131 
L 451.949434 506.654364 
L 455.739623 520.29886 
L 459.529811 545.390455 
L 467.110189 569.719076 
L 470.900377 576.32874 
L 474.690566 580.571272 
L 478.480755 577.53269 
L 482.270943 564.205199 
L 489.851321 560.98357 
L 493.641509 545.098411 
L 497.431698 536.459421 
L 501.221887 521.620127 
L 505.012075 514.66101 
L 508.802264 513.564392 
L 512.592453 517.840205 
L 516.382642 504.288065 
L 520.17283 489.463747 
L 523.963019 462.515889 
L 527.753208 436.39923 
L 531.543396 396.237869 
L 535.333585 374.223129 
L 539.123774 355.84437 
L 542.913962 342.616722 
L 546.704151 337.603728 
L 550.49434 347.128001 
L 554.284528 350.057586 
L 558.074717 368.878986 
L 561.864906 379.72203 
L 565.655094 379.806065 
L 569.445283 388.339387 
L 573.235472 382.808037 
L 577.02566 376.526194 
L 580.815849 386.81344 
L 584.606038 400.675928 
L 588.396226 412.620582 
L 592.186415 425.9955 
L 595.976604 431.630022 
L 599.766792 447.480235 
L 603.556981 453.417617 
L 607.34717 463.940328 
L 611.137358 476.893405 
L 614.927547 494.974296 
L 618.717736 504.281408 
L 622.507925 517.994131 
L 626.298113 511.541721 
L 630.088302 508.317597 
L 633.878491 517.544002 
L 637.668679 498.794988 
L 641.458868 476.13792 
L 645.249057 444.280239 
L 649.039245 433.228356 
L 652.829434 447.181535 
L 656.619623 464.111726 
L 660.409811 465.112661 
L 664.2 468.553114 
L 667.990189 478.181391 
L 671.780377 503.13154 
L 675.570566 512.947024 
L 679.360755 513.777392 
L 683.150943 515.048737 
L 686.941132 501.499925 
L 690.731321 526.020745 
L 694.521509 530.908935 
L 698.311698 531.206802 
L 702.101887 532.96655 
L 705.892075 549.831843 
L 709.682264 561.958712 
L 713.472453 589.173653 
L 717.262642 598.758663 
L 721.05283 609.476902 
L 724.843019 612.570398 
L 728.633208 627.01198 
L 732.423396 637.669481 
L 736.213585 647.539047 
L 740.003774 648.557454 
L 743.793962 644.250023 
L 751.37434 625.880417 
L 755.164528 606.441649 
L 758.954717 593.418681 
L 762.744906 576.577517 
L 766.535094 580.297533 
L 770.325283 588.731844 
L 774.115472 602.539418 
L 777.90566 608.433534 
L 781.695849 594.517795 
L 785.486038 593.113325 
L 789.276226 605.903324 
L 793.066415 601.962819 
L 796.856604 610.822298 
L 800.646792 603.762505 
L 804.436981 608.441022 
L 808.22717 638.500681 
L 812.017358 655.688802 
L 815.807547 660.651874 
L 819.597736 668.726746 
L 827.178113 610.943775 
L 830.968302 615.229573 
L 834.758491 614.897592 
L 838.548679 614.405029 
L 842.338868 617.186512 
L 846.129057 624.595759 
L 849.919245 655.273618 
L 853.709434 695.429987 
L 857.499623 695.64798 
L 861.289811 705.831222 
L 865.08 712.506616 
L 868.870189 713.505887 
L 872.660377 713.178066 
L 876.450566 714.304638 
L 880.240755 714.127415 
L 884.030943 712.262831 
L 887.821132 701.704342 
L 891.611321 699.130034 
L 899.191698 705.263776 
L 902.981887 706.851293 
L 906.772075 708.249107 
L 910.562264 709.217593 
L 914.352453 712.959242 
L 918.142642 712.23787 
L 921.93283 711.756123 
L 929.513208 715.704948 
L 933.303396 718.818412 
L 937.093585 721.361103 
L 940.883774 724.688399 
L 944.673962 725.21258 
L 948.464151 718.592931 
L 952.25434 717.092777 
L 956.044528 705.986812 
L 959.834717 703.742821 
L 967.415094 698.858792 
L 971.205283 699.339707 
L 974.995472 706.979426 
L 978.78566 706.701527 
L 982.575849 715.62008 
L 986.366038 707.555192 
L 990.156226 706.786395 
L 993.946415 706.994403 
L 997.736604 709.884051 
L 1001.526792 696.102269 
L 1005.316981 685.195991 
L 1012.897358 668.373133 
L 1016.687547 658.304711 
L 1020.477736 657.091608 
L 1024.267925 652.355681 
L 1028.058113 664.252909 
L 1031.848302 674.023463 
L 1035.638491 682.215652 
L 1039.428679 695.566441 
L 1043.218868 704.911826 
L 1047.009057 704.763724 
L 1050.799245 704.833615 
L 1054.589434 704.722955 
L 1058.379623 703.490715 
L 1062.169811 700.550313 
L 1065.96 692.295722 
L 1069.750189 669.570427 
L 1073.540377 663.862686 
L 1077.330566 663.961698 
L 1081.120755 664.292015 
L 1084.910943 666.056755 
L 1088.701132 669.12945 
L 1092.491321 678.310093 
L 1096.281509 701.476365 
L 1100.071698 710.853368 
L 1103.861887 716.432144 
L 1107.652075 716.0128 
L 1111.442264 716.045249 
L 1115.232453 716.641816 
L 1119.022642 717.3765 
L 1122.81283 717.439735 
L 1126.603019 714.963607 
L 1130.393208 711.176197 
L 1134.183396 713.143121 
L 1137.973585 713.775465 
L 1141.763774 713.637348 
L 1145.553962 712.824452 
L 1149.344151 712.423413 
L 1153.13434 713.17557 
L 1156.924528 712.09476 
L 1160.714717 713.318679 
L 1160.714717 713.318679 
" style="fill:none;stroke:#ffa500;stroke-linecap:square;stroke-width:1.5;"/>
   </g>
   <g id="patch_268">
    <path d="M 162 768.96 
L 162 103.68 
" style="fill:none;stroke:#000000;stroke-linecap:square;stroke-linejoin:miter;stroke-width:0.8;"/>
   </g>
   <g id="patch_269">
    <path d="M 1166.4 768.96 
L 1166.4 103.68 
" style="fill:none;stroke:#000000;stroke-linecap:square;stroke-linejoin:miter;stroke-width:0.8;"/>
   </g>
   <g id="patch_270">
    <path d="M 162 768.96 
L 1166.4 768.96 
" style="fill:none;stroke:#000000;stroke-linecap:square;stroke-linejoin:miter;stroke-width:0.8;"/>
   </g>
   <g id="patch_271">
    <path d="M 162 103.68 
L 1166.4 103.68 
" style="fill:none;stroke:#000000;stroke-linecap:square;stroke-linejoin:miter;stroke-width:0.8;"/>
   </g>
   <g id="text_17">
    <!-- Persons Fully Vaccinated -->
    <g transform="translate(590.380313 97.68)scale(0.12 -0.12)">
     <defs>
      <path d="M 1831 0 
L 50 4666 
L 709 4666 
L 2188 738 
L 3669 4666 
L 4325 4666 
L 2547 0 
L 1831 0 
z
" id="DejaVuSans-56" transform="scale(0.015625)"/>
     </defs>
     <use xlink:href="#DejaVuSans-50"/>
     <use x="56.677734" xlink:href="#DejaVuSans-65"/>
     <use x="118.201172" xlink:href="#DejaVuSans-72"/>
     <use x="159.314453" xlink:href="#DejaVuSans-73"/>
     <use x="211.414062" xlink:href="#DejaVuSans-6f"/>
     <use x="272.595703" xlink:href="#DejaVuSans-6e"/>
     <use x="335.974609" xlink:href="#DejaVuSans-73"/>
     <use x="388.074219" xlink:href="#DejaVuSans-20"/>
     <use x="419.861328" xlink:href="#DejaVuSans-46"/>
     <use x="471.880859" xlink:href="#DejaVuSans-75"/>
     <use x="535.259766" xlink:href="#DejaVuSans-6c"/>
     <use x="563.042969" xlink:href="#DejaVuSans-6c"/>
     <use x="590.826172" xlink:href="#DejaVuSans-79"/>
     <use x="650.005859" xlink:href="#DejaVuSans-20"/>
     <use x="681.792969" xlink:href="#DejaVuSans-56"/>
     <use x="742.451172" xlink:href="#DejaVuSans-61"/>
     <use x="803.730469" xlink:href="#DejaVuSans-63"/>
     <use x="858.710938" xlink:href="#DejaVuSans-63"/>
     <use x="913.691406" xlink:href="#DejaVuSans-69"/>
     <use x="941.474609" xlink:href="#DejaVuSans-6e"/>
     <use x="1004.853516" xlink:href="#DejaVuSans-61"/>
     <use x="1066.132812" xlink:href="#DejaVuSans-74"/>
     <use x="1105.341797" xlink:href="#DejaVuSans-65"/>
     <use x="1166.865234" xlink:href="#DejaVuSans-64"/>
    </g>
   </g>
  </g>
 </g>
 <defs>
  <clipPath id="pf6ef3ec5ef">
   <rect height="665.28" width="1004.4" x="162" y="103.68"/>
  </clipPath>
 </defs>
</svg>
