<?xml version="1.0" encoding="utf-8" standalone="no"?>
<!DOCTYPE svg PUBLIC "-//W3C//DTD SVG 1.1//EN"
  "http://www.w3.org/Graphics/SVG/1.1/DTD/svg11.dtd">
<svg height="864pt" version="1.1" viewBox="0 0 1296 864" width="1296pt" xmlns="http://www.w3.org/2000/svg" xmlns:xlink="http://www.w3.org/1999/xlink">
 <metadata>
  <rdf:RDF xmlns:cc="http://creativecommons.org/ns#" xmlns:dc="http://purl.org/dc/elements/1.1/" xmlns:rdf="http://www.w3.org/1999/02/22-rdf-syntax-ns#">
   <cc:Work>
    <dc:type rdf:resource="http://purl.org/dc/dcmitype/StillImage"/>
    <dc:date>2021-08-31T16:26:22.716507</dc:date>
    <dc:format>image/svg+xml</dc:format>
    <dc:creator>
     <cc:Agent>
      <dc:title>Matplotlib v3.4.2, https://matplotlib.org/</dc:title>
     </cc:Agent>
    </dc:creator>
   </cc:Work>
  </rdf:RDF>
 </metadata>
 <defs>
  <style type="text/css">*{stroke-linecap:butt;stroke-linejoin:round;}</style>
 </defs>
 <g id="figure_1">
  <g id="patch_1">
   <path d="M 0 864 
L 1296 864 
L 1296 0 
L 0 0 
z
" style="fill:#ffffff;"/>
  </g>
  <g id="axes_1">
   <g id="patch_2">
    <path d="M 162 768.96 
L 1166.4 768.96 
L 1166.4 103.68 
L 162 103.68 
z
" style="fill:#ffffff;"/>
   </g>
   <g id="patch_3">
    <path clip-path="url(#pf47e525fc1)" d="M 163.041909 768.96 
L 165.125726 768.96 
L 165.125726 768.96 
L 163.041909 768.96 
z
" style="fill:#1f77b4;"/>
   </g>
   <g id="patch_4">
    <path clip-path="url(#pf47e525fc1)" d="M 167.209544 768.96 
L 169.293361 768.96 
L 169.293361 768.96 
L 167.209544 768.96 
z
" style="fill:#1f77b4;"/>
   </g>
   <g id="patch_5">
    <path clip-path="url(#pf47e525fc1)" d="M 171.377178 768.96 
L 173.460996 768.96 
L 173.460996 768.96 
L 171.377178 768.96 
z
" style="fill:#1f77b4;"/>
   </g>
   <g id="patch_6">
    <path clip-path="url(#pf47e525fc1)" d="M 175.544813 768.96 
L 177.628631 768.96 
L 177.628631 768.242235 
L 175.544813 768.242235 
z
" style="fill:#1f77b4;"/>
   </g>
   <g id="patch_7">
    <path clip-path="url(#pf47e525fc1)" d="M 179.712448 768.96 
L 181.796266 768.96 
L 181.796266 767.010946 
L 179.712448 767.010946 
z
" style="fill:#1f77b4;"/>
   </g>
   <g id="patch_8">
    <path clip-path="url(#pf47e525fc1)" d="M 183.880083 768.96 
L 185.9639 768.96 
L 185.9639 754.867292 
L 183.880083 754.867292 
z
" style="fill:#1f77b4;"/>
   </g>
   <g id="patch_9">
    <path clip-path="url(#pf47e525fc1)" d="M 188.047718 768.96 
L 190.131535 768.96 
L 190.131535 667.171548 
L 188.047718 667.171548 
z
" style="fill:#1f77b4;"/>
   </g>
   <g id="patch_10">
    <path clip-path="url(#pf47e525fc1)" d="M 192.215353 768.96 
L 194.29917 768.96 
L 194.29917 646.192961 
L 192.215353 646.192961 
z
" style="fill:#1f77b4;"/>
   </g>
   <g id="patch_11">
    <path clip-path="url(#pf47e525fc1)" d="M 196.382988 768.96 
L 198.466805 768.96 
L 198.466805 701.986081 
L 196.382988 701.986081 
z
" style="fill:#1f77b4;"/>
   </g>
   <g id="patch_12">
    <path clip-path="url(#pf47e525fc1)" d="M 200.550622 768.96 
L 202.63444 768.96 
L 202.63444 728.368331 
L 200.550622 728.368331 
z
" style="fill:#1f77b4;"/>
   </g>
   <g id="patch_13">
    <path clip-path="url(#pf47e525fc1)" d="M 204.718257 768.96 
L 206.802075 768.96 
L 206.802075 705.48154 
L 204.718257 705.48154 
z
" style="fill:#1f77b4;"/>
   </g>
   <g id="patch_14">
    <path clip-path="url(#pf47e525fc1)" d="M 208.885892 768.96 
L 210.96971 768.96 
L 210.96971 708.749414 
L 208.885892 708.749414 
z
" style="fill:#1f77b4;"/>
   </g>
   <g id="patch_15">
    <path clip-path="url(#pf47e525fc1)" d="M 213.053527 768.96 
L 215.137344 768.96 
L 215.137344 719.702629 
L 213.053527 719.702629 
z
" style="fill:#1f77b4;"/>
   </g>
   <g id="patch_16">
    <path clip-path="url(#pf47e525fc1)" d="M 217.221162 768.96 
L 219.304979 768.96 
L 219.304979 709.047024 
L 217.221162 709.047024 
z
" style="fill:#1f77b4;"/>
   </g>
   <g id="patch_17">
    <path clip-path="url(#pf47e525fc1)" d="M 221.388797 768.96 
L 223.472614 768.96 
L 223.472614 756.711306 
L 221.388797 756.711306 
z
" style="fill:#1f77b4;"/>
   </g>
   <g id="patch_18">
    <path clip-path="url(#pf47e525fc1)" d="M 225.556432 768.96 
L 227.640249 768.96 
L 227.640249 761.333015 
L 225.556432 761.333015 
z
" style="fill:#1f77b4;"/>
   </g>
   <g id="patch_19">
    <path clip-path="url(#pf47e525fc1)" d="M 229.724066 768.96 
L 231.807884 768.96 
L 231.807884 765.32449 
L 229.724066 765.32449 
z
" style="fill:#1f77b4;"/>
   </g>
   <g id="patch_20">
    <path clip-path="url(#pf47e525fc1)" d="M 233.891701 768.96 
L 235.975519 768.96 
L 235.975519 752.142118 
L 233.891701 752.142118 
z
" style="fill:#1f77b4;"/>
   </g>
   <g id="patch_21">
    <path clip-path="url(#pf47e525fc1)" d="M 238.059336 768.96 
L 240.143154 768.96 
L 240.143154 741.86582 
L 238.059336 741.86582 
z
" style="fill:#1f77b4;"/>
   </g>
   <g id="patch_22">
    <path clip-path="url(#pf47e525fc1)" d="M 242.226971 768.96 
L 244.310788 768.96 
L 244.310788 718.062856 
L 242.226971 718.062856 
z
" style="fill:#1f77b4;"/>
   </g>
   <g id="patch_23">
    <path clip-path="url(#pf47e525fc1)" d="M 246.394606 768.96 
L 248.478423 768.96 
L 248.478423 717.701056 
L 246.394606 717.701056 
z
" style="fill:#1f77b4;"/>
   </g>
   <g id="patch_24">
    <path clip-path="url(#pf47e525fc1)" d="M 250.562241 768.96 
L 252.646058 768.96 
L 252.646058 732.073868 
L 250.562241 732.073868 
z
" style="fill:#1f77b4;"/>
   </g>
   <g id="patch_25">
    <path clip-path="url(#pf47e525fc1)" d="M 254.729876 768.96 
L 256.813693 768.96 
L 256.813693 755.071534 
L 254.729876 755.071534 
z
" style="fill:#1f77b4;"/>
   </g>
   <g id="patch_26">
    <path clip-path="url(#pf47e525fc1)" d="M 258.89751 768.96 
L 260.981328 768.96 
L 260.981328 750.519852 
L 258.89751 750.519852 
z
" style="fill:#1f77b4;"/>
   </g>
   <g id="patch_27">
    <path clip-path="url(#pf47e525fc1)" d="M 263.065145 768.96 
L 265.148963 768.96 
L 265.148963 721.155666 
L 263.065145 721.155666 
z
" style="fill:#1f77b4;"/>
   </g>
   <g id="patch_28">
    <path clip-path="url(#pf47e525fc1)" d="M 267.23278 768.96 
L 269.316598 768.96 
L 269.316598 685.419125 
L 267.23278 685.419125 
z
" style="fill:#1f77b4;"/>
   </g>
   <g id="patch_29">
    <path clip-path="url(#pf47e525fc1)" d="M 271.400415 768.96 
L 273.484232 768.96 
L 273.484232 657.770573 
L 271.400415 657.770573 
z
" style="fill:#1f77b4;"/>
   </g>
   <g id="patch_30">
    <path clip-path="url(#pf47e525fc1)" d="M 275.56805 768.96 
L 277.651867 768.96 
L 277.651867 672.995367 
L 275.56805 672.995367 
z
" style="fill:#1f77b4;"/>
   </g>
   <g id="patch_31">
    <path clip-path="url(#pf47e525fc1)" d="M 279.735685 768.96 
L 281.819502 768.96 
L 281.819502 684.928944 
L 279.735685 684.928944 
z
" style="fill:#1f77b4;"/>
   </g>
   <g id="patch_32">
    <path clip-path="url(#pf47e525fc1)" d="M 283.90332 768.96 
L 285.987137 768.96 
L 285.987137 723.093048 
L 283.90332 723.093048 
z
" style="fill:#1f77b4;"/>
   </g>
   <g id="patch_33">
    <path clip-path="url(#pf47e525fc1)" d="M 288.070954 768.96 
L 290.154772 768.96 
L 290.154772 743.143792 
L 288.070954 743.143792 
z
" style="fill:#1f77b4;"/>
   </g>
   <g id="patch_34">
    <path clip-path="url(#pf47e525fc1)" d="M 292.238589 768.96 
L 294.322407 768.96 
L 294.322407 721.476618 
L 292.238589 721.476618 
z
" style="fill:#1f77b4;"/>
   </g>
   <g id="patch_35">
    <path clip-path="url(#pf47e525fc1)" d="M 296.406224 768.96 
L 298.490041 768.96 
L 298.490041 667.795945 
L 296.406224 667.795945 
z
" style="fill:#1f77b4;"/>
   </g>
   <g id="patch_36">
    <path clip-path="url(#pf47e525fc1)" d="M 300.573859 768.96 
L 302.657676 768.96 
L 302.657676 693.752205 
L 300.573859 693.752205 
z
" style="fill:#1f77b4;"/>
   </g>
   <g id="patch_37">
    <path clip-path="url(#pf47e525fc1)" d="M 304.741494 768.96 
L 306.825311 768.96 
L 306.825311 671.600684 
L 304.741494 671.600684 
z
" style="fill:#1f77b4;"/>
   </g>
   <g id="patch_38">
    <path clip-path="url(#pf47e525fc1)" d="M 308.909129 768.96 
L 310.992946 768.96 
L 310.992946 688.780367 
L 308.909129 688.780367 
z
" style="fill:#1f77b4;"/>
   </g>
   <g id="patch_39">
    <path clip-path="url(#pf47e525fc1)" d="M 313.076763 768.96 
L 315.160581 768.96 
L 315.160581 700.357979 
L 313.076763 700.357979 
z
" style="fill:#1f77b4;"/>
   </g>
   <g id="patch_40">
    <path clip-path="url(#pf47e525fc1)" d="M 317.244398 768.96 
L 319.328216 768.96 
L 319.328216 745.763927 
L 317.244398 745.763927 
z
" style="fill:#1f77b4;"/>
   </g>
   <g id="patch_41">
    <path clip-path="url(#pf47e525fc1)" d="M 321.412033 768.96 
L 323.495851 768.96 
L 323.495851 692.445055 
L 321.412033 692.445055 
z
" style="fill:#1f77b4;"/>
   </g>
   <g id="patch_42">
    <path clip-path="url(#pf47e525fc1)" d="M 325.579668 768.96 
L 327.663485 768.96 
L 327.663485 673.03038 
L 325.579668 673.03038 
z
" style="fill:#1f77b4;"/>
   </g>
   <g id="patch_43">
    <path clip-path="url(#pf47e525fc1)" d="M 329.747303 768.96 
L 331.83112 768.96 
L 331.83112 652.769558 
L 329.747303 652.769558 
z
" style="fill:#1f77b4;"/>
   </g>
   <g id="patch_44">
    <path clip-path="url(#pf47e525fc1)" d="M 333.914938 768.96 
L 335.998755 768.96 
L 335.998755 602.444292 
L 333.914938 602.444292 
z
" style="fill:#1f77b4;"/>
   </g>
   <g id="patch_45">
    <path clip-path="url(#pf47e525fc1)" d="M 338.082573 768.96 
L 340.16639 768.96 
L 340.16639 624.665838 
L 338.082573 624.665838 
z
" style="fill:#1f77b4;"/>
   </g>
   <g id="patch_46">
    <path clip-path="url(#pf47e525fc1)" d="M 342.250207 768.96 
L 344.334025 768.96 
L 344.334025 679.274354 
L 342.250207 679.274354 
z
" style="fill:#1f77b4;"/>
   </g>
   <g id="patch_47">
    <path clip-path="url(#pf47e525fc1)" d="M 346.417842 768.96 
L 348.50166 768.96 
L 348.50166 720.542939 
L 346.417842 720.542939 
z
" style="fill:#1f77b4;"/>
   </g>
   <g id="patch_48">
    <path clip-path="url(#pf47e525fc1)" d="M 350.585477 768.96 
L 352.669295 768.96 
L 352.669295 721.108982 
L 350.585477 721.108982 
z
" style="fill:#1f77b4;"/>
   </g>
   <g id="patch_49">
    <path clip-path="url(#pf47e525fc1)" d="M 354.753112 768.96 
L 356.836929 768.96 
L 356.836929 679.268518 
L 354.753112 679.268518 
z
" style="fill:#1f77b4;"/>
   </g>
   <g id="patch_50">
    <path clip-path="url(#pf47e525fc1)" d="M 358.920747 768.96 
L 361.004564 768.96 
L 361.004564 619.098781 
L 358.920747 619.098781 
z
" style="fill:#1f77b4;"/>
   </g>
   <g id="patch_51">
    <path clip-path="url(#pf47e525fc1)" d="M 363.088382 768.96 
L 365.172199 768.96 
L 365.172199 575.495999 
L 363.088382 575.495999 
z
" style="fill:#1f77b4;"/>
   </g>
   <g id="patch_52">
    <path clip-path="url(#pf47e525fc1)" d="M 367.256017 768.96 
L 369.339834 768.96 
L 369.339834 583.589824 
L 367.256017 583.589824 
z
" style="fill:#1f77b4;"/>
   </g>
   <g id="patch_53">
    <path clip-path="url(#pf47e525fc1)" d="M 371.423651 768.96 
L 373.507469 768.96 
L 373.507469 740.453631 
L 371.423651 740.453631 
z
" style="fill:#1f77b4;"/>
   </g>
   <g id="patch_54">
    <path clip-path="url(#pf47e525fc1)" d="M 375.591286 768.96 
L 377.675104 768.96 
L 377.675104 631.545881 
L 375.591286 631.545881 
z
" style="fill:#1f77b4;"/>
   </g>
   <g id="patch_55">
    <path clip-path="url(#pf47e525fc1)" d="M 379.758921 768.96 
L 381.842739 768.96 
L 381.842739 662.19971 
L 379.758921 662.19971 
z
" style="fill:#1f77b4;"/>
   </g>
   <g id="patch_56">
    <path clip-path="url(#pf47e525fc1)" d="M 383.926556 768.96 
L 386.010373 768.96 
L 386.010373 610.106291 
L 383.926556 610.106291 
z
" style="fill:#1f77b4;"/>
   </g>
   <g id="patch_57">
    <path clip-path="url(#pf47e525fc1)" d="M 388.094191 768.96 
L 390.178008 768.96 
L 390.178008 462.637622 
L 388.094191 462.637622 
z
" style="fill:#1f77b4;"/>
   </g>
   <g id="patch_58">
    <path clip-path="url(#pf47e525fc1)" d="M 392.261826 768.96 
L 394.345643 768.96 
L 394.345643 458.605299 
L 392.261826 458.605299 
z
" style="fill:#1f77b4;"/>
   </g>
   <g id="patch_59">
    <path clip-path="url(#pf47e525fc1)" d="M 396.429461 768.96 
L 398.513278 768.96 
L 398.513278 495.946599 
L 396.429461 495.946599 
z
" style="fill:#1f77b4;"/>
   </g>
   <g id="patch_60">
    <path clip-path="url(#pf47e525fc1)" d="M 400.597095 768.96 
L 402.680913 768.96 
L 402.680913 529.401464 
L 400.597095 529.401464 
z
" style="fill:#1f77b4;"/>
   </g>
   <g id="patch_61">
    <path clip-path="url(#pf47e525fc1)" d="M 404.76473 768.96 
L 406.848548 768.96 
L 406.848548 653.639046 
L 404.76473 653.639046 
z
" style="fill:#1f77b4;"/>
   </g>
   <g id="patch_62">
    <path clip-path="url(#pf47e525fc1)" d="M 408.932365 768.96 
L 411.016183 768.96 
L 411.016183 596.322863 
L 408.932365 596.322863 
z
" style="fill:#1f77b4;"/>
   </g>
   <g id="patch_63">
    <path clip-path="url(#pf47e525fc1)" d="M 413.1 768.96 
L 415.183817 768.96 
L 415.183817 539.170074 
L 413.1 539.170074 
z
" style="fill:#1f77b4;"/>
   </g>
   <g id="patch_64">
    <path clip-path="url(#pf47e525fc1)" d="M 417.267635 768.96 
L 419.351452 768.96 
L 419.351452 503.159265 
L 417.267635 503.159265 
z
" style="fill:#1f77b4;"/>
   </g>
   <g id="patch_65">
    <path clip-path="url(#pf47e525fc1)" d="M 421.43527 768.96 
L 423.519087 768.96 
L 423.519087 379.137596 
L 421.43527 379.137596 
z
" style="fill:#1f77b4;"/>
   </g>
   <g id="patch_66">
    <path clip-path="url(#pf47e525fc1)" d="M 425.602905 768.96 
L 427.686722 768.96 
L 427.686722 396.148049 
L 425.602905 396.148049 
z
" style="fill:#1f77b4;"/>
   </g>
   <g id="patch_67">
    <path clip-path="url(#pf47e525fc1)" d="M 429.770539 768.96 
L 431.854357 768.96 
L 431.854357 490.437897 
L 429.770539 490.437897 
z
" style="fill:#1f77b4;"/>
   </g>
   <g id="patch_68">
    <path clip-path="url(#pf47e525fc1)" d="M 433.938174 768.96 
L 436.021992 768.96 
L 436.021992 681.392637 
L 433.938174 681.392637 
z
" style="fill:#1f77b4;"/>
   </g>
   <g id="patch_69">
    <path clip-path="url(#pf47e525fc1)" d="M 438.105809 768.96 
L 440.189627 768.96 
L 440.189627 527.586626 
L 438.105809 527.586626 
z
" style="fill:#1f77b4;"/>
   </g>
   <g id="patch_70">
    <path clip-path="url(#pf47e525fc1)" d="M 442.273444 768.96 
L 444.357261 768.96 
L 444.357261 459.311393 
L 442.273444 459.311393 
z
" style="fill:#1f77b4;"/>
   </g>
   <g id="patch_71">
    <path clip-path="url(#pf47e525fc1)" d="M 446.441079 768.96 
L 448.524896 768.96 
L 448.524896 428.861806 
L 446.441079 428.861806 
z
" style="fill:#1f77b4;"/>
   </g>
   <g id="patch_72">
    <path clip-path="url(#pf47e525fc1)" d="M 450.608714 768.96 
L 452.692531 768.96 
L 452.692531 403.255676 
L 450.608714 403.255676 
z
" style="fill:#1f77b4;"/>
   </g>
   <g id="patch_73">
    <path clip-path="url(#pf47e525fc1)" d="M 454.776349 768.96 
L 456.860166 768.96 
L 456.860166 349.376597 
L 454.776349 349.376597 
z
" style="fill:#1f77b4;"/>
   </g>
   <g id="patch_74">
    <path clip-path="url(#pf47e525fc1)" d="M 458.943983 768.96 
L 461.027801 768.96 
L 461.027801 501.309415 
L 458.943983 501.309415 
z
" style="fill:#1f77b4;"/>
   </g>
   <g id="patch_75">
    <path clip-path="url(#pf47e525fc1)" d="M 463.111618 768.96 
L 465.195436 768.96 
L 465.195436 498.035705 
L 463.111618 498.035705 
z
" style="fill:#1f77b4;"/>
   </g>
   <g id="patch_76">
    <path clip-path="url(#pf47e525fc1)" d="M 467.279253 768.96 
L 469.363071 768.96 
L 469.363071 529.850796 
L 467.279253 529.850796 
z
" style="fill:#1f77b4;"/>
   </g>
   <g id="patch_77">
    <path clip-path="url(#pf47e525fc1)" d="M 471.446888 768.96 
L 473.530705 768.96 
L 473.530705 501.54867 
L 471.446888 501.54867 
z
" style="fill:#1f77b4;"/>
   </g>
   <g id="patch_78">
    <path clip-path="url(#pf47e525fc1)" d="M 475.614523 768.96 
L 477.69834 768.96 
L 477.69834 532.16165 
L 475.614523 532.16165 
z
" style="fill:#1f77b4;"/>
   </g>
   <g id="patch_79">
    <path clip-path="url(#pf47e525fc1)" d="M 479.782158 768.96 
L 481.865975 768.96 
L 481.865975 497.078684 
L 479.782158 497.078684 
z
" style="fill:#1f77b4;"/>
   </g>
   <g id="patch_80">
    <path clip-path="url(#pf47e525fc1)" d="M 483.949793 768.96 
L 486.03361 768.96 
L 486.03361 486.113799 
L 483.949793 486.113799 
z
" style="fill:#1f77b4;"/>
   </g>
   <g id="patch_81">
    <path clip-path="url(#pf47e525fc1)" d="M 488.117427 768.96 
L 490.201245 768.96 
L 490.201245 594.858155 
L 488.117427 594.858155 
z
" style="fill:#1f77b4;"/>
   </g>
   <g id="patch_82">
    <path clip-path="url(#pf47e525fc1)" d="M 492.285062 768.96 
L 494.36888 768.96 
L 494.36888 674.109945 
L 492.285062 674.109945 
z
" style="fill:#1f77b4;"/>
   </g>
   <g id="patch_83">
    <path clip-path="url(#pf47e525fc1)" d="M 496.452697 768.96 
L 498.536515 768.96 
L 498.536515 616.647875 
L 496.452697 616.647875 
z
" style="fill:#1f77b4;"/>
   </g>
   <g id="patch_84">
    <path clip-path="url(#pf47e525fc1)" d="M 500.620332 768.96 
L 502.704149 768.96 
L 502.704149 585.731449 
L 500.620332 585.731449 
z
" style="fill:#1f77b4;"/>
   </g>
   <g id="patch_85">
    <path clip-path="url(#pf47e525fc1)" d="M 504.787967 768.96 
L 506.871784 768.96 
L 506.871784 578.647164 
L 504.787967 578.647164 
z
" style="fill:#1f77b4;"/>
   </g>
   <g id="patch_86">
    <path clip-path="url(#pf47e525fc1)" d="M 508.955602 768.96 
L 511.039419 768.96 
L 511.039419 526.699632 
L 508.955602 526.699632 
z
" style="fill:#1f77b4;"/>
   </g>
   <g id="patch_87">
    <path clip-path="url(#pf47e525fc1)" d="M 513.123237 768.96 
L 515.207054 768.96 
L 515.207054 464.890121 
L 513.123237 464.890121 
z
" style="fill:#1f77b4;"/>
   </g>
   <g id="patch_88">
    <path clip-path="url(#pf47e525fc1)" d="M 517.290871 768.96 
L 519.374689 768.96 
L 519.374689 501.321086 
L 517.290871 501.321086 
z
" style="fill:#1f77b4;"/>
   </g>
   <g id="patch_89">
    <path clip-path="url(#pf47e525fc1)" d="M 521.458506 768.96 
L 523.542324 768.96 
L 523.542324 662.736575 
L 521.458506 662.736575 
z
" style="fill:#1f77b4;"/>
   </g>
   <g id="patch_90">
    <path clip-path="url(#pf47e525fc1)" d="M 525.626141 768.96 
L 527.709959 768.96 
L 527.709959 605.373708 
L 525.626141 605.373708 
z
" style="fill:#1f77b4;"/>
   </g>
   <g id="patch_91">
    <path clip-path="url(#pf47e525fc1)" d="M 529.793776 768.96 
L 531.877593 768.96 
L 531.877593 474.28526 
L 529.793776 474.28526 
z
" style="fill:#1f77b4;"/>
   </g>
   <g id="patch_92">
    <path clip-path="url(#pf47e525fc1)" d="M 533.961411 768.96 
L 536.045228 768.96 
L 536.045228 517.98141 
L 533.961411 517.98141 
z
" style="fill:#1f77b4;"/>
   </g>
   <g id="patch_93">
    <path clip-path="url(#pf47e525fc1)" d="M 538.129046 768.96 
L 540.212863 768.96 
L 540.212863 422.483615 
L 538.129046 422.483615 
z
" style="fill:#1f77b4;"/>
   </g>
   <g id="patch_94">
    <path clip-path="url(#pf47e525fc1)" d="M 542.29668 768.96 
L 544.380498 768.96 
L 544.380498 417.050774 
L 542.29668 417.050774 
z
" style="fill:#1f77b4;"/>
   </g>
   <g id="patch_95">
    <path clip-path="url(#pf47e525fc1)" d="M 546.464315 768.96 
L 548.548133 768.96 
L 548.548133 493.443174 
L 546.464315 493.443174 
z
" style="fill:#1f77b4;"/>
   </g>
   <g id="patch_96">
    <path clip-path="url(#pf47e525fc1)" d="M 550.63195 768.96 
L 552.715768 768.96 
L 552.715768 692.730994 
L 550.63195 692.730994 
z
" style="fill:#1f77b4;"/>
   </g>
   <g id="patch_97">
    <path clip-path="url(#pf47e525fc1)" d="M 554.799585 768.96 
L 556.883402 768.96 
L 556.883402 510.459463 
L 554.799585 510.459463 
z
" style="fill:#1f77b4;"/>
   </g>
   <g id="patch_98">
    <path clip-path="url(#pf47e525fc1)" d="M 558.96722 768.96 
L 561.051037 768.96 
L 561.051037 370.308499 
L 558.96722 370.308499 
z
" style="fill:#1f77b4;"/>
   </g>
   <g id="patch_99">
    <path clip-path="url(#pf47e525fc1)" d="M 563.134855 768.96 
L 565.218672 768.96 
L 565.218672 329.162459 
L 563.134855 329.162459 
z
" style="fill:#1f77b4;"/>
   </g>
   <g id="patch_100">
    <path clip-path="url(#pf47e525fc1)" d="M 567.30249 768.96 
L 569.386307 768.96 
L 569.386307 239.67522 
L 567.30249 239.67522 
z
" style="fill:#1f77b4;"/>
   </g>
   <g id="patch_101">
    <path clip-path="url(#pf47e525fc1)" d="M 571.470124 768.96 
L 573.553942 768.96 
L 573.553942 135.36 
L 571.470124 135.36 
z
" style="fill:#1f77b4;"/>
   </g>
   <g id="patch_102">
    <path clip-path="url(#pf47e525fc1)" d="M 575.637759 768.96 
L 577.721577 768.96 
L 577.721577 339.024437 
L 575.637759 339.024437 
z
" style="fill:#1f77b4;"/>
   </g>
   <g id="patch_103">
    <path clip-path="url(#pf47e525fc1)" d="M 579.805394 768.96 
L 581.889212 768.96 
L 581.889212 563.760829 
L 579.805394 563.760829 
z
" style="fill:#1f77b4;"/>
   </g>
   <g id="patch_104">
    <path clip-path="url(#pf47e525fc1)" d="M 583.973029 768.96 
L 586.056846 768.96 
L 586.056846 417.879414 
L 583.973029 417.879414 
z
" style="fill:#1f77b4;"/>
   </g>
   <g id="patch_105">
    <path clip-path="url(#pf47e525fc1)" d="M 588.140664 768.96 
L 590.224481 768.96 
L 590.224481 335.184685 
L 588.140664 335.184685 
z
" style="fill:#1f77b4;"/>
   </g>
   <g id="patch_106">
    <path clip-path="url(#pf47e525fc1)" d="M 592.308299 768.96 
L 594.392116 768.96 
L 594.392116 395.961313 
L 592.308299 395.961313 
z
" style="fill:#1f77b4;"/>
   </g>
   <g id="patch_107">
    <path clip-path="url(#pf47e525fc1)" d="M 596.475934 768.96 
L 598.559751 768.96 
L 598.559751 259.918534 
L 596.475934 259.918534 
z
" style="fill:#1f77b4;"/>
   </g>
   <g id="patch_108">
    <path clip-path="url(#pf47e525fc1)" d="M 600.643568 768.96 
L 602.727386 768.96 
L 602.727386 266.430941 
L 600.643568 266.430941 
z
" style="fill:#1f77b4;"/>
   </g>
   <g id="patch_109">
    <path clip-path="url(#pf47e525fc1)" d="M 604.811203 768.96 
L 606.895021 768.96 
L 606.895021 415.265114 
L 604.811203 415.265114 
z
" style="fill:#1f77b4;"/>
   </g>
   <g id="patch_110">
    <path clip-path="url(#pf47e525fc1)" d="M 608.978838 768.96 
L 611.062656 768.96 
L 611.062656 564.321036 
L 608.978838 564.321036 
z
" style="fill:#1f77b4;"/>
   </g>
   <g id="patch_111">
    <path clip-path="url(#pf47e525fc1)" d="M 613.146473 768.96 
L 615.23029 768.96 
L 615.23029 477.401412 
L 613.146473 477.401412 
z
" style="fill:#1f77b4;"/>
   </g>
   <g id="patch_112">
    <path clip-path="url(#pf47e525fc1)" d="M 617.314108 768.96 
L 619.397925 768.96 
L 619.397925 296.285308 
L 617.314108 296.285308 
z
" style="fill:#1f77b4;"/>
   </g>
   <g id="patch_113">
    <path clip-path="url(#pf47e525fc1)" d="M 621.481743 768.96 
L 623.56556 768.96 
L 623.56556 351.728299 
L 621.481743 351.728299 
z
" style="fill:#1f77b4;"/>
   </g>
   <g id="patch_114">
    <path clip-path="url(#pf47e525fc1)" d="M 625.649378 768.96 
L 627.733195 768.96 
L 627.733195 332.004343 
L 625.649378 332.004343 
z
" style="fill:#1f77b4;"/>
   </g>
   <g id="patch_115">
    <path clip-path="url(#pf47e525fc1)" d="M 629.817012 768.96 
L 631.90083 768.96 
L 631.90083 363.842776 
L 629.817012 363.842776 
z
" style="fill:#1f77b4;"/>
   </g>
   <g id="patch_116">
    <path clip-path="url(#pf47e525fc1)" d="M 633.984647 768.96 
L 636.068465 768.96 
L 636.068465 498.98689 
L 633.984647 498.98689 
z
" style="fill:#1f77b4;"/>
   </g>
   <g id="patch_117">
    <path clip-path="url(#pf47e525fc1)" d="M 638.152282 768.96 
L 640.2361 768.96 
L 640.2361 658.097361 
L 638.152282 658.097361 
z
" style="fill:#1f77b4;"/>
   </g>
   <g id="patch_118">
    <path clip-path="url(#pf47e525fc1)" d="M 642.319917 768.96 
L 644.403734 768.96 
L 644.403734 517.041896 
L 642.319917 517.041896 
z
" style="fill:#1f77b4;"/>
   </g>
   <g id="patch_119">
    <path clip-path="url(#pf47e525fc1)" d="M 646.487552 768.96 
L 648.571369 768.96 
L 648.571369 407.912397 
L 646.487552 407.912397 
z
" style="fill:#1f77b4;"/>
   </g>
   <g id="patch_120">
    <path clip-path="url(#pf47e525fc1)" d="M 650.655187 768.96 
L 652.739004 768.96 
L 652.739004 393.422875 
L 650.655187 393.422875 
z
" style="fill:#1f77b4;"/>
   </g>
   <g id="patch_121">
    <path clip-path="url(#pf47e525fc1)" d="M 654.822822 768.96 
L 656.906639 768.96 
L 656.906639 405.869975 
L 654.822822 405.869975 
z
" style="fill:#1f77b4;"/>
   </g>
   <g id="patch_122">
    <path clip-path="url(#pf47e525fc1)" d="M 658.990456 768.96 
L 661.074274 768.96 
L 661.074274 454.403746 
L 658.990456 454.403746 
z
" style="fill:#1f77b4;"/>
   </g>
   <g id="patch_123">
    <path clip-path="url(#pf47e525fc1)" d="M 663.158091 768.96 
L 665.241909 768.96 
L 665.241909 625.902962 
L 663.158091 625.902962 
z
" style="fill:#1f77b4;"/>
   </g>
   <g id="patch_124">
    <path clip-path="url(#pf47e525fc1)" d="M 667.325726 768.96 
L 669.409544 768.96 
L 669.409544 723.513204 
L 667.325726 723.513204 
z
" style="fill:#1f77b4;"/>
   </g>
   <g id="patch_125">
    <path clip-path="url(#pf47e525fc1)" d="M 671.493361 768.96 
L 673.577178 768.96 
L 673.577178 613.204936 
L 671.493361 613.204936 
z
" style="fill:#1f77b4;"/>
   </g>
   <g id="patch_126">
    <path clip-path="url(#pf47e525fc1)" d="M 675.660996 768.96 
L 677.744813 768.96 
L 677.744813 362.319713 
L 675.660996 362.319713 
z
" style="fill:#1f77b4;"/>
   </g>
   <g id="patch_127">
    <path clip-path="url(#pf47e525fc1)" d="M 679.828631 768.96 
L 681.912448 768.96 
L 681.912448 370.792845 
L 679.828631 370.792845 
z
" style="fill:#1f77b4;"/>
   </g>
   <g id="patch_128">
    <path clip-path="url(#pf47e525fc1)" d="M 683.996266 768.96 
L 686.080083 768.96 
L 686.080083 470.632244 
L 683.996266 470.632244 
z
" style="fill:#1f77b4;"/>
   </g>
   <g id="patch_129">
    <path clip-path="url(#pf47e525fc1)" d="M 688.1639 768.96 
L 690.247718 768.96 
L 690.247718 322.988511 
L 688.1639 322.988511 
z
" style="fill:#1f77b4;"/>
   </g>
   <g id="patch_130">
    <path clip-path="url(#pf47e525fc1)" d="M 692.331535 768.96 
L 694.415353 768.96 
L 694.415353 466.944214 
L 692.331535 466.944214 
z
" style="fill:#1f77b4;"/>
   </g>
   <g id="patch_131">
    <path clip-path="url(#pf47e525fc1)" d="M 696.49917 768.96 
L 698.582988 768.96 
L 698.582988 499.657971 
L 696.49917 499.657971 
z
" style="fill:#1f77b4;"/>
   </g>
   <g id="patch_132">
    <path clip-path="url(#pf47e525fc1)" d="M 700.666805 768.96 
L 702.750622 768.96 
L 702.750622 535.802996 
L 700.666805 535.802996 
z
" style="fill:#1f77b4;"/>
   </g>
   <g id="patch_133">
    <path clip-path="url(#pf47e525fc1)" d="M 704.83444 768.96 
L 706.918257 768.96 
L 706.918257 460.221729 
L 704.83444 460.221729 
z
" style="fill:#1f77b4;"/>
   </g>
   <g id="patch_134">
    <path clip-path="url(#pf47e525fc1)" d="M 709.002075 768.96 
L 711.085892 768.96 
L 711.085892 489.545067 
L 709.002075 489.545067 
z
" style="fill:#1f77b4;"/>
   </g>
   <g id="patch_135">
    <path clip-path="url(#pf47e525fc1)" d="M 713.16971 768.96 
L 715.253527 768.96 
L 715.253527 477.815732 
L 713.16971 477.815732 
z
" style="fill:#1f77b4;"/>
   </g>
   <g id="patch_136">
    <path clip-path="url(#pf47e525fc1)" d="M 717.337344 768.96 
L 719.421162 768.96 
L 719.421162 347.065742 
L 717.337344 347.065742 
z
" style="fill:#1f77b4;"/>
   </g>
   <g id="patch_137">
    <path clip-path="url(#pf47e525fc1)" d="M 721.504979 768.96 
L 723.588797 768.96 
L 723.588797 534.507517 
L 721.504979 534.507517 
z
" style="fill:#1f77b4;"/>
   </g>
   <g id="patch_138">
    <path clip-path="url(#pf47e525fc1)" d="M 725.672614 768.96 
L 727.756432 768.96 
L 727.756432 674.973598 
L 725.672614 674.973598 
z
" style="fill:#1f77b4;"/>
   </g>
   <g id="patch_139">
    <path clip-path="url(#pf47e525fc1)" d="M 729.840249 768.96 
L 731.924066 768.96 
L 731.924066 604.702627 
L 729.840249 604.702627 
z
" style="fill:#1f77b4;"/>
   </g>
   <g id="patch_140">
    <path clip-path="url(#pf47e525fc1)" d="M 734.007884 768.96 
L 736.091701 768.96 
L 736.091701 466.074726 
L 734.007884 466.074726 
z
" style="fill:#1f77b4;"/>
   </g>
   <g id="patch_141">
    <path clip-path="url(#pf47e525fc1)" d="M 738.175519 768.96 
L 740.259336 768.96 
L 740.259336 498.309973 
L 738.175519 498.309973 
z
" style="fill:#1f77b4;"/>
   </g>
   <g id="patch_142">
    <path clip-path="url(#pf47e525fc1)" d="M 742.343154 768.96 
L 744.426971 768.96 
L 744.426971 382.825625 
L 742.343154 382.825625 
z
" style="fill:#1f77b4;"/>
   </g>
   <g id="patch_143">
    <path clip-path="url(#pf47e525fc1)" d="M 746.510788 768.96 
L 748.594606 768.96 
L 748.594606 519.166014 
L 746.510788 519.166014 
z
" style="fill:#1f77b4;"/>
   </g>
   <g id="patch_144">
    <path clip-path="url(#pf47e525fc1)" d="M 750.678423 768.96 
L 752.762241 768.96 
L 752.762241 568.791021 
L 750.678423 568.791021 
z
" style="fill:#1f77b4;"/>
   </g>
   <g id="patch_145">
    <path clip-path="url(#pf47e525fc1)" d="M 754.846058 768.96 
L 756.929876 768.96 
L 756.929876 677.091881 
L 754.846058 677.091881 
z
" style="fill:#1f77b4;"/>
   </g>
   <g id="patch_146">
    <path clip-path="url(#pf47e525fc1)" d="M 759.013693 768.96 
L 761.09751 768.96 
L 761.09751 616.898801 
L 759.013693 616.898801 
z
" style="fill:#1f77b4;"/>
   </g>
   <g id="patch_147">
    <path clip-path="url(#pf47e525fc1)" d="M 763.181328 768.96 
L 765.265145 768.96 
L 765.265145 584.360109 
L 763.181328 584.360109 
z
" style="fill:#1f77b4;"/>
   </g>
   <g id="patch_148">
    <path clip-path="url(#pf47e525fc1)" d="M 767.348963 768.96 
L 769.43278 768.96 
L 769.43278 583.648179 
L 767.348963 583.648179 
z
" style="fill:#1f77b4;"/>
   </g>
   <g id="patch_149">
    <path clip-path="url(#pf47e525fc1)" d="M 771.516598 768.96 
L 773.600415 768.96 
L 773.600415 573.605301 
L 771.516598 573.605301 
z
" style="fill:#1f77b4;"/>
   </g>
   <g id="patch_150">
    <path clip-path="url(#pf47e525fc1)" d="M 775.684232 768.96 
L 777.76805 768.96 
L 777.76805 586.40253 
L 775.684232 586.40253 
z
" style="fill:#1f77b4;"/>
   </g>
   <g id="patch_151">
    <path clip-path="url(#pf47e525fc1)" d="M 779.851867 768.96 
L 781.935685 768.96 
L 781.935685 643.928791 
L 779.851867 643.928791 
z
" style="fill:#1f77b4;"/>
   </g>
   <g id="patch_152">
    <path clip-path="url(#pf47e525fc1)" d="M 784.019502 768.96 
L 786.10332 768.96 
L 786.10332 698.794068 
L 784.019502 698.794068 
z
" style="fill:#1f77b4;"/>
   </g>
   <g id="patch_153">
    <path clip-path="url(#pf47e525fc1)" d="M 788.187137 768.96 
L 790.270954 768.96 
L 790.270954 717.975324 
L 788.187137 717.975324 
z
" style="fill:#1f77b4;"/>
   </g>
   <g id="patch_154">
    <path clip-path="url(#pf47e525fc1)" d="M 792.354772 768.96 
L 794.438589 768.96 
L 794.438589 659.194433 
L 792.354772 659.194433 
z
" style="fill:#1f77b4;"/>
   </g>
   <g id="patch_155">
    <path clip-path="url(#pf47e525fc1)" d="M 796.522407 768.96 
L 798.606224 768.96 
L 798.606224 653.417298 
L 796.522407 653.417298 
z
" style="fill:#1f77b4;"/>
   </g>
   <g id="patch_156">
    <path clip-path="url(#pf47e525fc1)" d="M 800.690041 768.96 
L 802.773859 768.96 
L 802.773859 580.91717 
L 800.690041 580.91717 
z
" style="fill:#1f77b4;"/>
   </g>
   <g id="patch_157">
    <path clip-path="url(#pf47e525fc1)" d="M 804.857676 768.96 
L 806.941494 768.96 
L 806.941494 556.116337 
L 804.857676 556.116337 
z
" style="fill:#1f77b4;"/>
   </g>
   <g id="patch_158">
    <path clip-path="url(#pf47e525fc1)" d="M 809.025311 768.96 
L 811.109129 768.96 
L 811.109129 579.814262 
L 809.025311 579.814262 
z
" style="fill:#1f77b4;"/>
   </g>
   <g id="patch_159">
    <path clip-path="url(#pf47e525fc1)" d="M 813.192946 768.96 
L 815.276763 768.96 
L 815.276763 634.131003 
L 813.192946 634.131003 
z
" style="fill:#1f77b4;"/>
   </g>
   <g id="patch_160">
    <path clip-path="url(#pf47e525fc1)" d="M 817.360581 768.96 
L 819.444398 768.96 
L 819.444398 581.798329 
L 817.360581 581.798329 
z
" style="fill:#1f77b4;"/>
   </g>
   <g id="patch_161">
    <path clip-path="url(#pf47e525fc1)" d="M 821.528216 768.96 
L 823.612033 768.96 
L 823.612033 567.839836 
L 821.528216 567.839836 
z
" style="fill:#1f77b4;"/>
   </g>
   <g id="patch_162">
    <path clip-path="url(#pf47e525fc1)" d="M 825.695851 768.96 
L 827.779668 768.96 
L 827.779668 534.723431 
L 825.695851 534.723431 
z
" style="fill:#1f77b4;"/>
   </g>
   <g id="patch_163">
    <path clip-path="url(#pf47e525fc1)" d="M 829.863485 768.96 
L 831.947303 768.96 
L 831.947303 606.815074 
L 829.863485 606.815074 
z
" style="fill:#1f77b4;"/>
   </g>
   <g id="patch_164">
    <path clip-path="url(#pf47e525fc1)" d="M 834.03112 768.96 
L 836.114938 768.96 
L 836.114938 615.329054 
L 834.03112 615.329054 
z
" style="fill:#1f77b4;"/>
   </g>
   <g id="patch_165">
    <path clip-path="url(#pf47e525fc1)" d="M 838.198755 768.96 
L 840.282573 768.96 
L 840.282573 676.66589 
L 838.198755 676.66589 
z
" style="fill:#1f77b4;"/>
   </g>
   <g id="patch_166">
    <path clip-path="url(#pf47e525fc1)" d="M 842.36639 768.96 
L 844.450207 768.96 
L 844.450207 675.971467 
L 842.36639 675.971467 
z
" style="fill:#1f77b4;"/>
   </g>
   <g id="patch_167">
    <path clip-path="url(#pf47e525fc1)" d="M 846.534025 768.96 
L 848.617842 768.96 
L 848.617842 484.211429 
L 846.534025 484.211429 
z
" style="fill:#1f77b4;"/>
   </g>
   <g id="patch_168">
    <path clip-path="url(#pf47e525fc1)" d="M 850.70166 768.96 
L 852.785477 768.96 
L 852.785477 558.0012 
L 850.70166 558.0012 
z
" style="fill:#1f77b4;"/>
   </g>
   <g id="patch_169">
    <path clip-path="url(#pf47e525fc1)" d="M 854.869295 768.96 
L 856.953112 768.96 
L 856.953112 625.173526 
L 854.869295 625.173526 
z
" style="fill:#1f77b4;"/>
   </g>
   <g id="patch_170">
    <path clip-path="url(#pf47e525fc1)" d="M 859.036929 768.96 
L 861.120747 768.96 
L 861.120747 579.872617 
L 859.036929 579.872617 
z
" style="fill:#1f77b4;"/>
   </g>
   <g id="patch_171">
    <path clip-path="url(#pf47e525fc1)" d="M 863.204564 768.96 
L 865.288382 768.96 
L 865.288382 678.124762 
L 863.204564 678.124762 
z
" style="fill:#1f77b4;"/>
   </g>
   <g id="patch_172">
    <path clip-path="url(#pf47e525fc1)" d="M 867.372199 768.96 
L 869.456017 768.96 
L 869.456017 627.233454 
L 867.372199 627.233454 
z
" style="fill:#1f77b4;"/>
   </g>
   <g id="patch_173">
    <path clip-path="url(#pf47e525fc1)" d="M 871.539834 768.96 
L 873.623651 768.96 
L 873.623651 708.434298 
L 871.539834 708.434298 
z
" style="fill:#1f77b4;"/>
   </g>
   <g id="patch_174">
    <path clip-path="url(#pf47e525fc1)" d="M 875.707469 768.96 
L 877.791286 768.96 
L 877.791286 695.1819 
L 875.707469 695.1819 
z
" style="fill:#1f77b4;"/>
   </g>
   <g id="patch_175">
    <path clip-path="url(#pf47e525fc1)" d="M 879.875104 768.96 
L 881.958921 768.96 
L 881.958921 678.737489 
L 879.875104 678.737489 
z
" style="fill:#1f77b4;"/>
   </g>
   <g id="patch_176">
    <path clip-path="url(#pf47e525fc1)" d="M 884.042739 768.96 
L 886.126556 768.96 
L 886.126556 659.795488 
L 884.042739 659.795488 
z
" style="fill:#1f77b4;"/>
   </g>
   <g id="patch_177">
    <path clip-path="url(#pf47e525fc1)" d="M 888.210373 768.96 
L 890.294191 768.96 
L 890.294191 636.255121 
L 888.210373 636.255121 
z
" style="fill:#1f77b4;"/>
   </g>
   <g id="patch_178">
    <path clip-path="url(#pf47e525fc1)" d="M 892.378008 768.96 
L 894.461826 768.96 
L 894.461826 472.779704 
L 892.378008 472.779704 
z
" style="fill:#1f77b4;"/>
   </g>
   <g id="patch_179">
    <path clip-path="url(#pf47e525fc1)" d="M 896.545643 768.96 
L 898.629461 768.96 
L 898.629461 427.070311 
L 896.545643 427.070311 
z
" style="fill:#1f77b4;"/>
   </g>
   <g id="patch_180">
    <path clip-path="url(#pf47e525fc1)" d="M 900.713278 768.96 
L 902.797095 768.96 
L 902.797095 738.627123 
L 900.713278 738.627123 
z
" style="fill:#1f77b4;"/>
   </g>
   <g id="patch_181">
    <path clip-path="url(#pf47e525fc1)" d="M 904.880913 768.96 
L 906.96473 768.96 
L 906.96473 692.836033 
L 904.880913 692.836033 
z
" style="fill:#1f77b4;"/>
   </g>
   <g id="patch_182">
    <path clip-path="url(#pf47e525fc1)" d="M 909.048548 768.96 
L 911.132365 768.96 
L 911.132365 675.288714 
L 909.048548 675.288714 
z
" style="fill:#1f77b4;"/>
   </g>
   <g id="patch_183">
    <path clip-path="url(#pf47e525fc1)" d="M 913.216183 768.96 
L 915.3 768.96 
L 915.3 679.303531 
L 913.216183 679.303531 
z
" style="fill:#1f77b4;"/>
   </g>
   <g id="patch_184">
    <path clip-path="url(#pf47e525fc1)" d="M 917.383817 768.96 
L 919.467635 768.96 
L 919.467635 688.465251 
L 917.383817 688.465251 
z
" style="fill:#1f77b4;"/>
   </g>
   <g id="patch_185">
    <path clip-path="url(#pf47e525fc1)" d="M 921.551452 768.96 
L 923.63527 768.96 
L 923.63527 687.829182 
L 921.551452 687.829182 
z
" style="fill:#1f77b4;"/>
   </g>
   <g id="patch_186">
    <path clip-path="url(#pf47e525fc1)" d="M 925.719087 768.96 
L 927.802905 768.96 
L 927.802905 708.533501 
L 925.719087 708.533501 
z
" style="fill:#1f77b4;"/>
   </g>
   <g id="patch_187">
    <path clip-path="url(#pf47e525fc1)" d="M 929.886722 768.96 
L 931.970539 768.96 
L 931.970539 739.840905 
L 929.886722 739.840905 
z
" style="fill:#1f77b4;"/>
   </g>
   <g id="patch_188">
    <path clip-path="url(#pf47e525fc1)" d="M 934.054357 768.96 
L 936.138174 768.96 
L 936.138174 763.988163 
L 934.054357 763.988163 
z
" style="fill:#1f77b4;"/>
   </g>
   <g id="patch_189">
    <path clip-path="url(#pf47e525fc1)" d="M 938.221992 768.96 
L 940.305809 768.96 
L 940.305809 721.739215 
L 938.221992 721.739215 
z
" style="fill:#1f77b4;"/>
   </g>
   <g id="patch_190">
    <path clip-path="url(#pf47e525fc1)" d="M 942.389627 768.96 
L 944.473444 768.96 
L 944.473444 685.95599 
L 942.389627 685.95599 
z
" style="fill:#1f77b4;"/>
   </g>
   <g id="patch_191">
    <path clip-path="url(#pf47e525fc1)" d="M 946.557261 768.96 
L 948.641079 768.96 
L 948.641079 685.588354 
L 946.557261 685.588354 
z
" style="fill:#1f77b4;"/>
   </g>
   <g id="patch_192">
    <path clip-path="url(#pf47e525fc1)" d="M 950.724896 768.96 
L 952.808714 768.96 
L 952.808714 695.695423 
L 950.724896 695.695423 
z
" style="fill:#1f77b4;"/>
   </g>
   <g id="patch_193">
    <path clip-path="url(#pf47e525fc1)" d="M 954.892531 768.96 
L 956.976349 768.96 
L 956.976349 707.162161 
L 954.892531 707.162161 
z
" style="fill:#1f77b4;"/>
   </g>
   <g id="patch_194">
    <path clip-path="url(#pf47e525fc1)" d="M 959.060166 768.96 
L 961.143983 768.96 
L 961.143983 726.926965 
L 959.060166 726.926965 
z
" style="fill:#1f77b4;"/>
   </g>
   <g id="patch_195">
    <path clip-path="url(#pf47e525fc1)" d="M 963.227801 768.96 
L 965.311618 768.96 
L 965.311618 690.180885 
L 963.227801 690.180885 
z
" style="fill:#1f77b4;"/>
   </g>
   <g id="patch_196">
    <path clip-path="url(#pf47e525fc1)" d="M 967.395436 768.96 
L 969.479253 768.96 
L 969.479253 703.975983 
L 967.395436 703.975983 
z
" style="fill:#1f77b4;"/>
   </g>
   <g id="patch_197">
    <path clip-path="url(#pf47e525fc1)" d="M 971.563071 768.96 
L 973.646888 768.96 
L 973.646888 706.835373 
L 971.563071 706.835373 
z
" style="fill:#1f77b4;"/>
   </g>
   <g id="patch_198">
    <path clip-path="url(#pf47e525fc1)" d="M 975.730705 768.96 
L 977.814523 768.96 
L 977.814523 707.378074 
L 975.730705 707.378074 
z
" style="fill:#1f77b4;"/>
   </g>
   <g id="patch_199">
    <path clip-path="url(#pf47e525fc1)" d="M 979.89834 768.96 
L 981.982158 768.96 
L 981.982158 706.695321 
L 979.89834 706.695321 
z
" style="fill:#1f77b4;"/>
   </g>
   <g id="patch_200">
    <path clip-path="url(#pf47e525fc1)" d="M 984.065975 768.96 
L 986.149793 768.96 
L 986.149793 716.942442 
L 984.065975 716.942442 
z
" style="fill:#1f77b4;"/>
   </g>
   <g id="patch_201">
    <path clip-path="url(#pf47e525fc1)" d="M 988.23361 768.96 
L 990.317427 768.96 
L 990.317427 733.602766 
L 988.23361 733.602766 
z
" style="fill:#1f77b4;"/>
   </g>
   <g id="patch_202">
    <path clip-path="url(#pf47e525fc1)" d="M 992.401245 768.96 
L 994.485062 768.96 
L 994.485062 716.300538 
L 992.401245 716.300538 
z
" style="fill:#1f77b4;"/>
   </g>
   <g id="patch_203">
    <path clip-path="url(#pf47e525fc1)" d="M 996.56888 768.96 
L 998.652697 768.96 
L 998.652697 698.776562 
L 996.56888 698.776562 
z
" style="fill:#1f77b4;"/>
   </g>
   <g id="patch_204">
    <path clip-path="url(#pf47e525fc1)" d="M 1000.736515 768.96 
L 1002.820332 768.96 
L 1002.820332 703.596676 
L 1000.736515 703.596676 
z
" style="fill:#1f77b4;"/>
   </g>
   <g id="patch_205">
    <path clip-path="url(#pf47e525fc1)" d="M 1004.904149 768.96 
L 1006.987967 768.96 
L 1006.987967 721.523302 
L 1004.904149 721.523302 
z
" style="fill:#1f77b4;"/>
   </g>
   <g id="patch_206">
    <path clip-path="url(#pf47e525fc1)" d="M 1009.071784 768.96 
L 1011.155602 768.96 
L 1011.155602 720.327026 
L 1009.071784 720.327026 
z
" style="fill:#1f77b4;"/>
   </g>
   <g id="patch_207">
    <path clip-path="url(#pf47e525fc1)" d="M 1013.239419 768.96 
L 1015.323237 768.96 
L 1015.323237 738.790517 
L 1013.239419 738.790517 
z
" style="fill:#1f77b4;"/>
   </g>
   <g id="patch_208">
    <path clip-path="url(#pf47e525fc1)" d="M 1017.407054 768.96 
L 1019.490871 768.96 
L 1019.490871 751.412682 
L 1017.407054 751.412682 
z
" style="fill:#1f77b4;"/>
   </g>
   <g id="patch_209">
    <path clip-path="url(#pf47e525fc1)" d="M 1021.574689 768.96 
L 1023.658506 768.96 
L 1023.658506 739.881753 
L 1021.574689 739.881753 
z
" style="fill:#1f77b4;"/>
   </g>
   <g id="patch_210">
    <path clip-path="url(#pf47e525fc1)" d="M 1025.742324 768.96 
L 1027.826141 768.96 
L 1027.826141 702.470427 
L 1025.742324 702.470427 
z
" style="fill:#1f77b4;"/>
   </g>
   <g id="patch_211">
    <path clip-path="url(#pf47e525fc1)" d="M 1029.909959 768.96 
L 1031.993776 768.96 
L 1031.993776 657.210366 
L 1029.909959 657.210366 
z
" style="fill:#1f77b4;"/>
   </g>
   <g id="patch_212">
    <path clip-path="url(#pf47e525fc1)" d="M 1034.077593 768.96 
L 1036.161411 768.96 
L 1036.161411 710.955229 
L 1034.077593 710.955229 
z
" style="fill:#1f77b4;"/>
   </g>
   <g id="patch_213">
    <path clip-path="url(#pf47e525fc1)" d="M 1038.245228 768.96 
L 1040.329046 768.96 
L 1040.329046 642.539944 
L 1038.245228 642.539944 
z
" style="fill:#1f77b4;"/>
   </g>
   <g id="patch_214">
    <path clip-path="url(#pf47e525fc1)" d="M 1042.412863 768.96 
L 1044.49668 768.96 
L 1044.49668 723.063871 
L 1042.412863 723.063871 
z
" style="fill:#1f77b4;"/>
   </g>
   <g id="patch_215">
    <path clip-path="url(#pf47e525fc1)" d="M 1046.580498 768.96 
L 1048.664315 768.96 
L 1048.664315 734.699838 
L 1046.580498 734.699838 
z
" style="fill:#1f77b4;"/>
   </g>
   <g id="patch_216">
    <path clip-path="url(#pf47e525fc1)" d="M 1050.748133 768.96 
L 1052.83195 768.96 
L 1052.83195 722.357777 
L 1050.748133 722.357777 
z
" style="fill:#1f77b4;"/>
   </g>
   <g id="patch_217">
    <path clip-path="url(#pf47e525fc1)" d="M 1054.915768 768.96 
L 1056.999585 768.96 
L 1056.999585 705.90753 
L 1054.915768 705.90753 
z
" style="fill:#1f77b4;"/>
   </g>
   <g id="patch_218">
    <path clip-path="url(#pf47e525fc1)" d="M 1059.083402 768.96 
L 1061.16722 768.96 
L 1061.16722 710.844355 
L 1059.083402 710.844355 
z
" style="fill:#1f77b4;"/>
   </g>
   <g id="patch_219">
    <path clip-path="url(#pf47e525fc1)" d="M 1063.251037 768.96 
L 1065.334855 768.96 
L 1065.334855 708.877795 
L 1063.251037 708.877795 
z
" style="fill:#1f77b4;"/>
   </g>
   <g id="patch_220">
    <path clip-path="url(#pf47e525fc1)" d="M 1067.418672 768.96 
L 1069.50249 768.96 
L 1069.50249 705.259791 
L 1067.418672 705.259791 
z
" style="fill:#1f77b4;"/>
   </g>
   <g id="patch_221">
    <path clip-path="url(#pf47e525fc1)" d="M 1071.586307 768.96 
L 1073.670124 768.96 
L 1073.670124 666.611341 
L 1071.586307 666.611341 
z
" style="fill:#1f77b4;"/>
   </g>
   <g id="patch_222">
    <path clip-path="url(#pf47e525fc1)" d="M 1075.753942 768.96 
L 1077.837759 768.96 
L 1077.837759 729.360365 
L 1075.753942 729.360365 
z
" style="fill:#1f77b4;"/>
   </g>
   <g id="patch_223">
    <path clip-path="url(#pf47e525fc1)" d="M 1079.921577 768.96 
L 1082.005394 768.96 
L 1082.005394 723.82832 
L 1079.921577 723.82832 
z
" style="fill:#1f77b4;"/>
   </g>
   <g id="patch_224">
    <path clip-path="url(#pf47e525fc1)" d="M 1084.089212 768.96 
L 1086.173029 768.96 
L 1086.173029 726.238378 
L 1084.089212 726.238378 
z
" style="fill:#1f77b4;"/>
   </g>
   <g id="patch_225">
    <path clip-path="url(#pf47e525fc1)" d="M 1088.256846 768.96 
L 1090.340664 768.96 
L 1090.340664 614.115272 
L 1088.256846 614.115272 
z
" style="fill:#1f77b4;"/>
   </g>
   <g id="patch_226">
    <path clip-path="url(#pf47e525fc1)" d="M 1092.424481 768.96 
L 1094.508299 768.96 
L 1094.508299 632.578763 
L 1092.424481 632.578763 
z
" style="fill:#1f77b4;"/>
   </g>
   <g id="patch_227">
    <path clip-path="url(#pf47e525fc1)" d="M 1096.592116 768.96 
L 1098.675934 768.96 
L 1098.675934 645.737793 
L 1096.592116 645.737793 
z
" style="fill:#1f77b4;"/>
   </g>
   <g id="patch_228">
    <path clip-path="url(#pf47e525fc1)" d="M 1100.759751 768.96 
L 1102.843568 768.96 
L 1102.843568 608.151401 
L 1100.759751 608.151401 
z
" style="fill:#1f77b4;"/>
   </g>
   <g id="patch_229">
    <path clip-path="url(#pf47e525fc1)" d="M 1104.927386 768.96 
L 1107.011203 768.96 
L 1107.011203 658.727594 
L 1104.927386 658.727594 
z
" style="fill:#1f77b4;"/>
   </g>
   <g id="patch_230">
    <path clip-path="url(#pf47e525fc1)" d="M 1109.095021 768.96 
L 1111.178838 768.96 
L 1111.178838 715.331847 
L 1109.095021 715.331847 
z
" style="fill:#1f77b4;"/>
   </g>
   <g id="patch_231">
    <path clip-path="url(#pf47e525fc1)" d="M 1113.262656 768.96 
L 1115.346473 768.96 
L 1115.346473 693.151149 
L 1113.262656 693.151149 
z
" style="fill:#1f77b4;"/>
   </g>
   <g id="patch_232">
    <path clip-path="url(#pf47e525fc1)" d="M 1117.43029 768.96 
L 1119.514108 768.96 
L 1119.514108 697.732009 
L 1117.43029 697.732009 
z
" style="fill:#1f77b4;"/>
   </g>
   <g id="patch_233">
    <path clip-path="url(#pf47e525fc1)" d="M 1121.597925 768.96 
L 1123.681743 768.96 
L 1123.681743 701.408368 
L 1121.597925 701.408368 
z
" style="fill:#1f77b4;"/>
   </g>
   <g id="patch_234">
    <path clip-path="url(#pf47e525fc1)" d="M 1125.76556 768.96 
L 1127.849378 768.96 
L 1127.849378 703.363257 
L 1125.76556 703.363257 
z
" style="fill:#1f77b4;"/>
   </g>
   <g id="patch_235">
    <path clip-path="url(#pf47e525fc1)" d="M 1129.933195 768.96 
L 1132.017012 768.96 
L 1132.017012 701.921891 
L 1129.933195 701.921891 
z
" style="fill:#1f77b4;"/>
   </g>
   <g id="patch_236">
    <path clip-path="url(#pf47e525fc1)" d="M 1134.10083 768.96 
L 1136.184647 768.96 
L 1136.184647 724.42354 
L 1134.10083 724.42354 
z
" style="fill:#1f77b4;"/>
   </g>
   <g id="patch_237">
    <path clip-path="url(#pf47e525fc1)" d="M 1138.268465 768.96 
L 1140.352282 768.96 
L 1140.352282 714.649094 
L 1138.268465 714.649094 
z
" style="fill:#1f77b4;"/>
   </g>
   <g id="patch_238">
    <path clip-path="url(#pf47e525fc1)" d="M 1142.4361 768.96 
L 1144.519917 768.96 
L 1144.519917 693.985624 
L 1142.4361 693.985624 
z
" style="fill:#1f77b4;"/>
   </g>
   <g id="patch_239">
    <path clip-path="url(#pf47e525fc1)" d="M 1146.603734 768.96 
L 1148.687552 768.96 
L 1148.687552 697.21265 
L 1146.603734 697.21265 
z
" style="fill:#1f77b4;"/>
   </g>
   <g id="patch_240">
    <path clip-path="url(#pf47e525fc1)" d="M 1150.771369 768.96 
L 1152.855187 768.96 
L 1152.855187 454.63133 
L 1150.771369 454.63133 
z
" style="fill:#1f77b4;"/>
   </g>
   <g id="patch_241">
    <path clip-path="url(#pf47e525fc1)" d="M 1154.939004 768.96 
L 1157.022822 768.96 
L 1157.022822 695.12938 
L 1154.939004 695.12938 
z
" style="fill:#1f77b4;"/>
   </g>
   <g id="patch_242">
    <path clip-path="url(#pf47e525fc1)" d="M 1159.106639 768.96 
L 1161.190456 768.96 
L 1161.190456 695.088532 
L 1159.106639 695.088532 
z
" style="fill:#1f77b4;"/>
   </g>
   <g id="patch_243">
    <path clip-path="url(#pf47e525fc1)" d="M 1163.274274 768.96 
L 1165.358091 768.96 
L 1165.358091 716.09046 
L 1163.274274 716.09046 
z
" style="fill:#1f77b4;"/>
   </g>
   <g id="matplotlib.axis_1">
    <g id="xtick_1">
     <g id="line2d_1">
      <defs>
       <path d="M 0 0 
L 0 3.5 
" id="m824e419f96" style="stroke:#000000;stroke-width:0.8;"/>
      </defs>
      <g>
       <use style="stroke:#000000;stroke-width:0.8;" x="164.083817" xlink:href="#m824e419f96" y="768.96"/>
      </g>
     </g>
     <g id="text_1">
      <!-- January -->
      <g transform="translate(145.128349 783.558437)scale(0.1 -0.1)">
       <defs>
        <path d="M 628 4666 
L 1259 4666 
L 1259 325 
Q 1259 -519 939 -900 
Q 619 -1281 -91 -1281 
L -331 -1281 
L -331 -750 
L -134 -750 
Q 284 -750 456 -515 
Q 628 -281 628 325 
L 628 4666 
z
" id="DejaVuSans-4a" transform="scale(0.015625)"/>
        <path d="M 2194 1759 
Q 1497 1759 1228 1600 
Q 959 1441 959 1056 
Q 959 750 1161 570 
Q 1363 391 1709 391 
Q 2188 391 2477 730 
Q 2766 1069 2766 1631 
L 2766 1759 
L 2194 1759 
z
M 3341 1997 
L 3341 0 
L 2766 0 
L 2766 531 
Q 2569 213 2275 61 
Q 1981 -91 1556 -91 
Q 1019 -91 701 211 
Q 384 513 384 1019 
Q 384 1609 779 1909 
Q 1175 2209 1959 2209 
L 2766 2209 
L 2766 2266 
Q 2766 2663 2505 2880 
Q 2244 3097 1772 3097 
Q 1472 3097 1187 3025 
Q 903 2953 641 2809 
L 641 3341 
Q 956 3463 1253 3523 
Q 1550 3584 1831 3584 
Q 2591 3584 2966 3190 
Q 3341 2797 3341 1997 
z
" id="DejaVuSans-61" transform="scale(0.015625)"/>
        <path d="M 3513 2113 
L 3513 0 
L 2938 0 
L 2938 2094 
Q 2938 2591 2744 2837 
Q 2550 3084 2163 3084 
Q 1697 3084 1428 2787 
Q 1159 2491 1159 1978 
L 1159 0 
L 581 0 
L 581 3500 
L 1159 3500 
L 1159 2956 
Q 1366 3272 1645 3428 
Q 1925 3584 2291 3584 
Q 2894 3584 3203 3211 
Q 3513 2838 3513 2113 
z
" id="DejaVuSans-6e" transform="scale(0.015625)"/>
        <path d="M 544 1381 
L 544 3500 
L 1119 3500 
L 1119 1403 
Q 1119 906 1312 657 
Q 1506 409 1894 409 
Q 2359 409 2629 706 
Q 2900 1003 2900 1516 
L 2900 3500 
L 3475 3500 
L 3475 0 
L 2900 0 
L 2900 538 
Q 2691 219 2414 64 
Q 2138 -91 1772 -91 
Q 1169 -91 856 284 
Q 544 659 544 1381 
z
M 1991 3584 
L 1991 3584 
z
" id="DejaVuSans-75" transform="scale(0.015625)"/>
        <path d="M 2631 2963 
Q 2534 3019 2420 3045 
Q 2306 3072 2169 3072 
Q 1681 3072 1420 2755 
Q 1159 2438 1159 1844 
L 1159 0 
L 581 0 
L 581 3500 
L 1159 3500 
L 1159 2956 
Q 1341 3275 1631 3429 
Q 1922 3584 2338 3584 
Q 2397 3584 2469 3576 
Q 2541 3569 2628 3553 
L 2631 2963 
z
" id="DejaVuSans-72" transform="scale(0.015625)"/>
        <path d="M 2059 -325 
Q 1816 -950 1584 -1140 
Q 1353 -1331 966 -1331 
L 506 -1331 
L 506 -850 
L 844 -850 
Q 1081 -850 1212 -737 
Q 1344 -625 1503 -206 
L 1606 56 
L 191 3500 
L 800 3500 
L 1894 763 
L 2988 3500 
L 3597 3500 
L 2059 -325 
z
" id="DejaVuSans-79" transform="scale(0.015625)"/>
       </defs>
       <use xlink:href="#DejaVuSans-4a"/>
       <use x="29.492188" xlink:href="#DejaVuSans-61"/>
       <use x="90.771484" xlink:href="#DejaVuSans-6e"/>
       <use x="154.150391" xlink:href="#DejaVuSans-75"/>
       <use x="217.529297" xlink:href="#DejaVuSans-61"/>
       <use x="278.808594" xlink:href="#DejaVuSans-72"/>
       <use x="319.921875" xlink:href="#DejaVuSans-79"/>
      </g>
     </g>
    </g>
    <g id="xtick_2">
     <g id="line2d_2">
      <g>
       <use style="stroke:#000000;stroke-width:0.8;" x="293.280498" xlink:href="#m824e419f96" y="768.96"/>
      </g>
     </g>
     <g id="text_2">
      <!-- February -->
      <g transform="translate(271.12581 783.558437)scale(0.1 -0.1)">
       <defs>
        <path d="M 628 4666 
L 3309 4666 
L 3309 4134 
L 1259 4134 
L 1259 2759 
L 3109 2759 
L 3109 2228 
L 1259 2228 
L 1259 0 
L 628 0 
L 628 4666 
z
" id="DejaVuSans-46" transform="scale(0.015625)"/>
        <path d="M 3597 1894 
L 3597 1613 
L 953 1613 
Q 991 1019 1311 708 
Q 1631 397 2203 397 
Q 2534 397 2845 478 
Q 3156 559 3463 722 
L 3463 178 
Q 3153 47 2828 -22 
Q 2503 -91 2169 -91 
Q 1331 -91 842 396 
Q 353 884 353 1716 
Q 353 2575 817 3079 
Q 1281 3584 2069 3584 
Q 2775 3584 3186 3129 
Q 3597 2675 3597 1894 
z
M 3022 2063 
Q 3016 2534 2758 2815 
Q 2500 3097 2075 3097 
Q 1594 3097 1305 2825 
Q 1016 2553 972 2059 
L 3022 2063 
z
" id="DejaVuSans-65" transform="scale(0.015625)"/>
        <path d="M 3116 1747 
Q 3116 2381 2855 2742 
Q 2594 3103 2138 3103 
Q 1681 3103 1420 2742 
Q 1159 2381 1159 1747 
Q 1159 1113 1420 752 
Q 1681 391 2138 391 
Q 2594 391 2855 752 
Q 3116 1113 3116 1747 
z
M 1159 2969 
Q 1341 3281 1617 3432 
Q 1894 3584 2278 3584 
Q 2916 3584 3314 3078 
Q 3713 2572 3713 1747 
Q 3713 922 3314 415 
Q 2916 -91 2278 -91 
Q 1894 -91 1617 61 
Q 1341 213 1159 525 
L 1159 0 
L 581 0 
L 581 4863 
L 1159 4863 
L 1159 2969 
z
" id="DejaVuSans-62" transform="scale(0.015625)"/>
       </defs>
       <use xlink:href="#DejaVuSans-46"/>
       <use x="52.019531" xlink:href="#DejaVuSans-65"/>
       <use x="113.542969" xlink:href="#DejaVuSans-62"/>
       <use x="177.019531" xlink:href="#DejaVuSans-72"/>
       <use x="218.132812" xlink:href="#DejaVuSans-75"/>
       <use x="281.511719" xlink:href="#DejaVuSans-61"/>
       <use x="342.791016" xlink:href="#DejaVuSans-72"/>
       <use x="383.904297" xlink:href="#DejaVuSans-79"/>
      </g>
     </g>
    </g>
    <g id="xtick_3">
     <g id="line2d_3">
      <g>
       <use style="stroke:#000000;stroke-width:0.8;" x="409.974274" xlink:href="#m824e419f96" y="768.96"/>
      </g>
     </g>
     <g id="text_3">
      <!-- March -->
      <g transform="translate(394.735211 783.558437)scale(0.1 -0.1)">
       <defs>
        <path d="M 628 4666 
L 1569 4666 
L 2759 1491 
L 3956 4666 
L 4897 4666 
L 4897 0 
L 4281 0 
L 4281 4097 
L 3078 897 
L 2444 897 
L 1241 4097 
L 1241 0 
L 628 0 
L 628 4666 
z
" id="DejaVuSans-4d" transform="scale(0.015625)"/>
        <path d="M 3122 3366 
L 3122 2828 
Q 2878 2963 2633 3030 
Q 2388 3097 2138 3097 
Q 1578 3097 1268 2742 
Q 959 2388 959 1747 
Q 959 1106 1268 751 
Q 1578 397 2138 397 
Q 2388 397 2633 464 
Q 2878 531 3122 666 
L 3122 134 
Q 2881 22 2623 -34 
Q 2366 -91 2075 -91 
Q 1284 -91 818 406 
Q 353 903 353 1747 
Q 353 2603 823 3093 
Q 1294 3584 2113 3584 
Q 2378 3584 2631 3529 
Q 2884 3475 3122 3366 
z
" id="DejaVuSans-63" transform="scale(0.015625)"/>
        <path d="M 3513 2113 
L 3513 0 
L 2938 0 
L 2938 2094 
Q 2938 2591 2744 2837 
Q 2550 3084 2163 3084 
Q 1697 3084 1428 2787 
Q 1159 2491 1159 1978 
L 1159 0 
L 581 0 
L 581 4863 
L 1159 4863 
L 1159 2956 
Q 1366 3272 1645 3428 
Q 1925 3584 2291 3584 
Q 2894 3584 3203 3211 
Q 3513 2838 3513 2113 
z
" id="DejaVuSans-68" transform="scale(0.015625)"/>
       </defs>
       <use xlink:href="#DejaVuSans-4d"/>
       <use x="86.279297" xlink:href="#DejaVuSans-61"/>
       <use x="147.558594" xlink:href="#DejaVuSans-72"/>
       <use x="186.421875" xlink:href="#DejaVuSans-63"/>
       <use x="241.402344" xlink:href="#DejaVuSans-68"/>
      </g>
     </g>
    </g>
    <g id="xtick_4">
     <g id="line2d_4">
      <g>
       <use style="stroke:#000000;stroke-width:0.8;" x="539.170954" xlink:href="#m824e419f96" y="768.96"/>
      </g>
     </g>
     <g id="text_4">
      <!-- April -->
      <g transform="translate(527.742829 783.558437)scale(0.1 -0.1)">
       <defs>
        <path d="M 2188 4044 
L 1331 1722 
L 3047 1722 
L 2188 4044 
z
M 1831 4666 
L 2547 4666 
L 4325 0 
L 3669 0 
L 3244 1197 
L 1141 1197 
L 716 0 
L 50 0 
L 1831 4666 
z
" id="DejaVuSans-41" transform="scale(0.015625)"/>
        <path d="M 1159 525 
L 1159 -1331 
L 581 -1331 
L 581 3500 
L 1159 3500 
L 1159 2969 
Q 1341 3281 1617 3432 
Q 1894 3584 2278 3584 
Q 2916 3584 3314 3078 
Q 3713 2572 3713 1747 
Q 3713 922 3314 415 
Q 2916 -91 2278 -91 
Q 1894 -91 1617 61 
Q 1341 213 1159 525 
z
M 3116 1747 
Q 3116 2381 2855 2742 
Q 2594 3103 2138 3103 
Q 1681 3103 1420 2742 
Q 1159 2381 1159 1747 
Q 1159 1113 1420 752 
Q 1681 391 2138 391 
Q 2594 391 2855 752 
Q 3116 1113 3116 1747 
z
" id="DejaVuSans-70" transform="scale(0.015625)"/>
        <path d="M 603 3500 
L 1178 3500 
L 1178 0 
L 603 0 
L 603 3500 
z
M 603 4863 
L 1178 4863 
L 1178 4134 
L 603 4134 
L 603 4863 
z
" id="DejaVuSans-69" transform="scale(0.015625)"/>
        <path d="M 603 4863 
L 1178 4863 
L 1178 0 
L 603 0 
L 603 4863 
z
" id="DejaVuSans-6c" transform="scale(0.015625)"/>
       </defs>
       <use xlink:href="#DejaVuSans-41"/>
       <use x="68.408203" xlink:href="#DejaVuSans-70"/>
       <use x="131.884766" xlink:href="#DejaVuSans-72"/>
       <use x="172.998047" xlink:href="#DejaVuSans-69"/>
       <use x="200.78125" xlink:href="#DejaVuSans-6c"/>
      </g>
     </g>
    </g>
    <g id="xtick_5">
     <g id="line2d_5">
      <g>
       <use style="stroke:#000000;stroke-width:0.8;" x="664.2" xlink:href="#m824e419f96" y="768.96"/>
      </g>
     </g>
     <g id="text_5">
      <!-- May -->
      <g transform="translate(653.8625 783.558437)scale(0.1 -0.1)">
       <use xlink:href="#DejaVuSans-4d"/>
       <use x="86.279297" xlink:href="#DejaVuSans-61"/>
       <use x="147.558594" xlink:href="#DejaVuSans-79"/>
      </g>
     </g>
    </g>
    <g id="xtick_6">
     <g id="line2d_6">
      <g>
       <use style="stroke:#000000;stroke-width:0.8;" x="793.39668" xlink:href="#m824e419f96" y="768.96"/>
      </g>
     </g>
     <g id="text_6">
      <!-- June -->
      <g transform="translate(782.507618 783.558437)scale(0.1 -0.1)">
       <use xlink:href="#DejaVuSans-4a"/>
       <use x="29.492188" xlink:href="#DejaVuSans-75"/>
       <use x="92.871094" xlink:href="#DejaVuSans-6e"/>
       <use x="156.25" xlink:href="#DejaVuSans-65"/>
      </g>
     </g>
    </g>
    <g id="xtick_7">
     <g id="line2d_7">
      <g>
       <use style="stroke:#000000;stroke-width:0.8;" x="918.425726" xlink:href="#m824e419f96" y="768.96"/>
      </g>
     </g>
     <g id="text_7">
      <!-- July -->
      <g transform="translate(909.433539 783.558437)scale(0.1 -0.1)">
       <use xlink:href="#DejaVuSans-4a"/>
       <use x="29.492188" xlink:href="#DejaVuSans-75"/>
       <use x="92.871094" xlink:href="#DejaVuSans-6c"/>
       <use x="120.654297" xlink:href="#DejaVuSans-79"/>
      </g>
     </g>
    </g>
    <g id="xtick_8">
     <g id="line2d_8">
      <g>
       <use style="stroke:#000000;stroke-width:0.8;" x="1047.622407" xlink:href="#m824e419f96" y="768.96"/>
      </g>
     </g>
     <g id="text_8">
      <!-- August -->
      <g transform="translate(1030.125532 783.558437)scale(0.1 -0.1)">
       <defs>
        <path d="M 2906 1791 
Q 2906 2416 2648 2759 
Q 2391 3103 1925 3103 
Q 1463 3103 1205 2759 
Q 947 2416 947 1791 
Q 947 1169 1205 825 
Q 1463 481 1925 481 
Q 2391 481 2648 825 
Q 2906 1169 2906 1791 
z
M 3481 434 
Q 3481 -459 3084 -895 
Q 2688 -1331 1869 -1331 
Q 1566 -1331 1297 -1286 
Q 1028 -1241 775 -1147 
L 775 -588 
Q 1028 -725 1275 -790 
Q 1522 -856 1778 -856 
Q 2344 -856 2625 -561 
Q 2906 -266 2906 331 
L 2906 616 
Q 2728 306 2450 153 
Q 2172 0 1784 0 
Q 1141 0 747 490 
Q 353 981 353 1791 
Q 353 2603 747 3093 
Q 1141 3584 1784 3584 
Q 2172 3584 2450 3431 
Q 2728 3278 2906 2969 
L 2906 3500 
L 3481 3500 
L 3481 434 
z
" id="DejaVuSans-67" transform="scale(0.015625)"/>
        <path d="M 2834 3397 
L 2834 2853 
Q 2591 2978 2328 3040 
Q 2066 3103 1784 3103 
Q 1356 3103 1142 2972 
Q 928 2841 928 2578 
Q 928 2378 1081 2264 
Q 1234 2150 1697 2047 
L 1894 2003 
Q 2506 1872 2764 1633 
Q 3022 1394 3022 966 
Q 3022 478 2636 193 
Q 2250 -91 1575 -91 
Q 1294 -91 989 -36 
Q 684 19 347 128 
L 347 722 
Q 666 556 975 473 
Q 1284 391 1588 391 
Q 1994 391 2212 530 
Q 2431 669 2431 922 
Q 2431 1156 2273 1281 
Q 2116 1406 1581 1522 
L 1381 1569 
Q 847 1681 609 1914 
Q 372 2147 372 2553 
Q 372 3047 722 3315 
Q 1072 3584 1716 3584 
Q 2034 3584 2315 3537 
Q 2597 3491 2834 3397 
z
" id="DejaVuSans-73" transform="scale(0.015625)"/>
        <path d="M 1172 4494 
L 1172 3500 
L 2356 3500 
L 2356 3053 
L 1172 3053 
L 1172 1153 
Q 1172 725 1289 603 
Q 1406 481 1766 481 
L 2356 481 
L 2356 0 
L 1766 0 
Q 1100 0 847 248 
Q 594 497 594 1153 
L 594 3053 
L 172 3053 
L 172 3500 
L 594 3500 
L 594 4494 
L 1172 4494 
z
" id="DejaVuSans-74" transform="scale(0.015625)"/>
       </defs>
       <use xlink:href="#DejaVuSans-41"/>
       <use x="68.408203" xlink:href="#DejaVuSans-75"/>
       <use x="131.787109" xlink:href="#DejaVuSans-67"/>
       <use x="195.263672" xlink:href="#DejaVuSans-75"/>
       <use x="258.642578" xlink:href="#DejaVuSans-73"/>
       <use x="310.742188" xlink:href="#DejaVuSans-74"/>
      </g>
     </g>
    </g>
   </g>
   <g id="matplotlib.axis_2">
    <g id="ytick_1">
     <g id="line2d_9">
      <defs>
       <path d="M 0 0 
L -3.5 0 
" id="m723d207f00" style="stroke:#000000;stroke-width:0.8;"/>
      </defs>
      <g>
       <use style="stroke:#000000;stroke-width:0.8;" x="162" xlink:href="#m723d207f00" y="768.96"/>
      </g>
     </g>
     <g id="text_9">
      <!-- 0 -->
      <g transform="translate(148.6375 772.759219)scale(0.1 -0.1)">
       <defs>
        <path d="M 2034 4250 
Q 1547 4250 1301 3770 
Q 1056 3291 1056 2328 
Q 1056 1369 1301 889 
Q 1547 409 2034 409 
Q 2525 409 2770 889 
Q 3016 1369 3016 2328 
Q 3016 3291 2770 3770 
Q 2525 4250 2034 4250 
z
M 2034 4750 
Q 2819 4750 3233 4129 
Q 3647 3509 3647 2328 
Q 3647 1150 3233 529 
Q 2819 -91 2034 -91 
Q 1250 -91 836 529 
Q 422 1150 422 2328 
Q 422 3509 836 4129 
Q 1250 4750 2034 4750 
z
" id="DejaVuSans-30" transform="scale(0.015625)"/>
       </defs>
       <use xlink:href="#DejaVuSans-30"/>
      </g>
     </g>
    </g>
    <g id="ytick_2">
     <g id="line2d_10">
      <g>
       <use style="stroke:#000000;stroke-width:0.8;" x="162" xlink:href="#m723d207f00" y="652.2502"/>
      </g>
     </g>
     <g id="text_10">
      <!-- 20000 -->
      <g transform="translate(123.1875 656.049418)scale(0.1 -0.1)">
       <defs>
        <path d="M 1228 531 
L 3431 531 
L 3431 0 
L 469 0 
L 469 531 
Q 828 903 1448 1529 
Q 2069 2156 2228 2338 
Q 2531 2678 2651 2914 
Q 2772 3150 2772 3378 
Q 2772 3750 2511 3984 
Q 2250 4219 1831 4219 
Q 1534 4219 1204 4116 
Q 875 4013 500 3803 
L 500 4441 
Q 881 4594 1212 4672 
Q 1544 4750 1819 4750 
Q 2544 4750 2975 4387 
Q 3406 4025 3406 3419 
Q 3406 3131 3298 2873 
Q 3191 2616 2906 2266 
Q 2828 2175 2409 1742 
Q 1991 1309 1228 531 
z
" id="DejaVuSans-32" transform="scale(0.015625)"/>
       </defs>
       <use xlink:href="#DejaVuSans-32"/>
       <use x="63.623047" xlink:href="#DejaVuSans-30"/>
       <use x="127.246094" xlink:href="#DejaVuSans-30"/>
       <use x="190.869141" xlink:href="#DejaVuSans-30"/>
       <use x="254.492188" xlink:href="#DejaVuSans-30"/>
      </g>
     </g>
    </g>
    <g id="ytick_3">
     <g id="line2d_11">
      <g>
       <use style="stroke:#000000;stroke-width:0.8;" x="162" xlink:href="#m723d207f00" y="535.540399"/>
      </g>
     </g>
     <g id="text_11">
      <!-- 40000 -->
      <g transform="translate(123.1875 539.339618)scale(0.1 -0.1)">
       <defs>
        <path d="M 2419 4116 
L 825 1625 
L 2419 1625 
L 2419 4116 
z
M 2253 4666 
L 3047 4666 
L 3047 1625 
L 3713 1625 
L 3713 1100 
L 3047 1100 
L 3047 0 
L 2419 0 
L 2419 1100 
L 313 1100 
L 313 1709 
L 2253 4666 
z
" id="DejaVuSans-34" transform="scale(0.015625)"/>
       </defs>
       <use xlink:href="#DejaVuSans-34"/>
       <use x="63.623047" xlink:href="#DejaVuSans-30"/>
       <use x="127.246094" xlink:href="#DejaVuSans-30"/>
       <use x="190.869141" xlink:href="#DejaVuSans-30"/>
       <use x="254.492188" xlink:href="#DejaVuSans-30"/>
      </g>
     </g>
    </g>
    <g id="ytick_4">
     <g id="line2d_12">
      <g>
       <use style="stroke:#000000;stroke-width:0.8;" x="162" xlink:href="#m723d207f00" y="418.830599"/>
      </g>
     </g>
     <g id="text_12">
      <!-- 60000 -->
      <g transform="translate(123.1875 422.629817)scale(0.1 -0.1)">
       <defs>
        <path d="M 2113 2584 
Q 1688 2584 1439 2293 
Q 1191 2003 1191 1497 
Q 1191 994 1439 701 
Q 1688 409 2113 409 
Q 2538 409 2786 701 
Q 3034 994 3034 1497 
Q 3034 2003 2786 2293 
Q 2538 2584 2113 2584 
z
M 3366 4563 
L 3366 3988 
Q 3128 4100 2886 4159 
Q 2644 4219 2406 4219 
Q 1781 4219 1451 3797 
Q 1122 3375 1075 2522 
Q 1259 2794 1537 2939 
Q 1816 3084 2150 3084 
Q 2853 3084 3261 2657 
Q 3669 2231 3669 1497 
Q 3669 778 3244 343 
Q 2819 -91 2113 -91 
Q 1303 -91 875 529 
Q 447 1150 447 2328 
Q 447 3434 972 4092 
Q 1497 4750 2381 4750 
Q 2619 4750 2861 4703 
Q 3103 4656 3366 4563 
z
" id="DejaVuSans-36" transform="scale(0.015625)"/>
       </defs>
       <use xlink:href="#DejaVuSans-36"/>
       <use x="63.623047" xlink:href="#DejaVuSans-30"/>
       <use x="127.246094" xlink:href="#DejaVuSans-30"/>
       <use x="190.869141" xlink:href="#DejaVuSans-30"/>
       <use x="254.492188" xlink:href="#DejaVuSans-30"/>
      </g>
     </g>
    </g>
    <g id="ytick_5">
     <g id="line2d_13">
      <g>
       <use style="stroke:#000000;stroke-width:0.8;" x="162" xlink:href="#m723d207f00" y="302.120798"/>
      </g>
     </g>
     <g id="text_13">
      <!-- 80000 -->
      <g transform="translate(123.1875 305.920017)scale(0.1 -0.1)">
       <defs>
        <path d="M 2034 2216 
Q 1584 2216 1326 1975 
Q 1069 1734 1069 1313 
Q 1069 891 1326 650 
Q 1584 409 2034 409 
Q 2484 409 2743 651 
Q 3003 894 3003 1313 
Q 3003 1734 2745 1975 
Q 2488 2216 2034 2216 
z
M 1403 2484 
Q 997 2584 770 2862 
Q 544 3141 544 3541 
Q 544 4100 942 4425 
Q 1341 4750 2034 4750 
Q 2731 4750 3128 4425 
Q 3525 4100 3525 3541 
Q 3525 3141 3298 2862 
Q 3072 2584 2669 2484 
Q 3125 2378 3379 2068 
Q 3634 1759 3634 1313 
Q 3634 634 3220 271 
Q 2806 -91 2034 -91 
Q 1263 -91 848 271 
Q 434 634 434 1313 
Q 434 1759 690 2068 
Q 947 2378 1403 2484 
z
M 1172 3481 
Q 1172 3119 1398 2916 
Q 1625 2713 2034 2713 
Q 2441 2713 2670 2916 
Q 2900 3119 2900 3481 
Q 2900 3844 2670 4047 
Q 2441 4250 2034 4250 
Q 1625 4250 1398 4047 
Q 1172 3844 1172 3481 
z
" id="DejaVuSans-38" transform="scale(0.015625)"/>
       </defs>
       <use xlink:href="#DejaVuSans-38"/>
       <use x="63.623047" xlink:href="#DejaVuSans-30"/>
       <use x="127.246094" xlink:href="#DejaVuSans-30"/>
       <use x="190.869141" xlink:href="#DejaVuSans-30"/>
       <use x="254.492188" xlink:href="#DejaVuSans-30"/>
      </g>
     </g>
    </g>
    <g id="ytick_6">
     <g id="line2d_14">
      <g>
       <use style="stroke:#000000;stroke-width:0.8;" x="162" xlink:href="#m723d207f00" y="185.410998"/>
      </g>
     </g>
     <g id="text_14">
      <!-- 100000 -->
      <g transform="translate(116.825 189.210217)scale(0.1 -0.1)">
       <defs>
        <path d="M 794 531 
L 1825 531 
L 1825 4091 
L 703 3866 
L 703 4441 
L 1819 4666 
L 2450 4666 
L 2450 531 
L 3481 531 
L 3481 0 
L 794 0 
L 794 531 
z
" id="DejaVuSans-31" transform="scale(0.015625)"/>
       </defs>
       <use xlink:href="#DejaVuSans-31"/>
       <use x="63.623047" xlink:href="#DejaVuSans-30"/>
       <use x="127.246094" xlink:href="#DejaVuSans-30"/>
       <use x="190.869141" xlink:href="#DejaVuSans-30"/>
       <use x="254.492188" xlink:href="#DejaVuSans-30"/>
       <use x="318.115234" xlink:href="#DejaVuSans-30"/>
      </g>
     </g>
    </g>
    <g id="text_15">
     <!-- Persons fully vaccinated -->
     <g transform="translate(110.745312 496.922344)rotate(-90)scale(0.1 -0.1)">
      <defs>
       <path d="M 1259 4147 
L 1259 2394 
L 2053 2394 
Q 2494 2394 2734 2622 
Q 2975 2850 2975 3272 
Q 2975 3691 2734 3919 
Q 2494 4147 2053 4147 
L 1259 4147 
z
M 628 4666 
L 2053 4666 
Q 2838 4666 3239 4311 
Q 3641 3956 3641 3272 
Q 3641 2581 3239 2228 
Q 2838 1875 2053 1875 
L 1259 1875 
L 1259 0 
L 628 0 
L 628 4666 
z
" id="DejaVuSans-50" transform="scale(0.015625)"/>
       <path d="M 1959 3097 
Q 1497 3097 1228 2736 
Q 959 2375 959 1747 
Q 959 1119 1226 758 
Q 1494 397 1959 397 
Q 2419 397 2687 759 
Q 2956 1122 2956 1747 
Q 2956 2369 2687 2733 
Q 2419 3097 1959 3097 
z
M 1959 3584 
Q 2709 3584 3137 3096 
Q 3566 2609 3566 1747 
Q 3566 888 3137 398 
Q 2709 -91 1959 -91 
Q 1206 -91 779 398 
Q 353 888 353 1747 
Q 353 2609 779 3096 
Q 1206 3584 1959 3584 
z
" id="DejaVuSans-6f" transform="scale(0.015625)"/>
       <path id="DejaVuSans-20" transform="scale(0.015625)"/>
       <path d="M 2375 4863 
L 2375 4384 
L 1825 4384 
Q 1516 4384 1395 4259 
Q 1275 4134 1275 3809 
L 1275 3500 
L 2222 3500 
L 2222 3053 
L 1275 3053 
L 1275 0 
L 697 0 
L 697 3053 
L 147 3053 
L 147 3500 
L 697 3500 
L 697 3744 
Q 697 4328 969 4595 
Q 1241 4863 1831 4863 
L 2375 4863 
z
" id="DejaVuSans-66" transform="scale(0.015625)"/>
       <path d="M 191 3500 
L 800 3500 
L 1894 563 
L 2988 3500 
L 3597 3500 
L 2284 0 
L 1503 0 
L 191 3500 
z
" id="DejaVuSans-76" transform="scale(0.015625)"/>
       <path d="M 2906 2969 
L 2906 4863 
L 3481 4863 
L 3481 0 
L 2906 0 
L 2906 525 
Q 2725 213 2448 61 
Q 2172 -91 1784 -91 
Q 1150 -91 751 415 
Q 353 922 353 1747 
Q 353 2572 751 3078 
Q 1150 3584 1784 3584 
Q 2172 3584 2448 3432 
Q 2725 3281 2906 2969 
z
M 947 1747 
Q 947 1113 1208 752 
Q 1469 391 1925 391 
Q 2381 391 2643 752 
Q 2906 1113 2906 1747 
Q 2906 2381 2643 2742 
Q 2381 3103 1925 3103 
Q 1469 3103 1208 2742 
Q 947 2381 947 1747 
z
" id="DejaVuSans-64" transform="scale(0.015625)"/>
      </defs>
      <use xlink:href="#DejaVuSans-50"/>
      <use x="56.677734" xlink:href="#DejaVuSans-65"/>
      <use x="118.201172" xlink:href="#DejaVuSans-72"/>
      <use x="159.314453" xlink:href="#DejaVuSans-73"/>
      <use x="211.414062" xlink:href="#DejaVuSans-6f"/>
      <use x="272.595703" xlink:href="#DejaVuSans-6e"/>
      <use x="335.974609" xlink:href="#DejaVuSans-73"/>
      <use x="388.074219" xlink:href="#DejaVuSans-20"/>
      <use x="419.861328" xlink:href="#DejaVuSans-66"/>
      <use x="455.066406" xlink:href="#DejaVuSans-75"/>
      <use x="518.445312" xlink:href="#DejaVuSans-6c"/>
      <use x="546.228516" xlink:href="#DejaVuSans-6c"/>
      <use x="574.011719" xlink:href="#DejaVuSans-79"/>
      <use x="633.191406" xlink:href="#DejaVuSans-20"/>
      <use x="664.978516" xlink:href="#DejaVuSans-76"/>
      <use x="724.158203" xlink:href="#DejaVuSans-61"/>
      <use x="785.4375" xlink:href="#DejaVuSans-63"/>
      <use x="840.417969" xlink:href="#DejaVuSans-63"/>
      <use x="895.398438" xlink:href="#DejaVuSans-69"/>
      <use x="923.181641" xlink:href="#DejaVuSans-6e"/>
      <use x="986.560547" xlink:href="#DejaVuSans-61"/>
      <use x="1047.839844" xlink:href="#DejaVuSans-74"/>
      <use x="1087.048828" xlink:href="#DejaVuSans-65"/>
      <use x="1148.572266" xlink:href="#DejaVuSans-64"/>
     </g>
    </g>
   </g>
   <g id="line2d_15">
    <path clip-path="url(#pf47e525fc1)" d="M 230.765975 743.732343 
L 234.93361 743.49809 
L 239.101245 744.73438 
L 243.26888 741.214746 
L 247.436515 740.320249 
L 251.604149 738.2053 
L 255.771784 733.778664 
L 259.939419 725.714851 
L 264.107054 717.101667 
L 268.274689 710.71514 
L 272.442324 703.980151 
L 276.609959 699.411796 
L 280.777593 698.358074 
L 284.945228 698.403924 
L 289.112863 695.886327 
L 293.280498 701.02656 
L 297.448133 700.827319 
L 301.615768 701.377523 
L 305.783402 698.129656 
L 309.951037 698.503961 
L 314.118672 694.356595 
L 318.286307 695.104371 
L 322.453942 689.249707 
L 326.621577 679.370223 
L 330.789212 670.211004 
L 334.956846 667.199058 
L 339.124481 663.596059 
L 343.292116 667.690906 
L 347.459751 668.582069 
L 351.627386 663.771958 
L 355.795021 659.922202 
L 359.962656 654.0542 
L 364.13029 662.794096 
L 368.297925 650.080231 
L 372.46556 641.664621 
L 376.633195 631.784302 
L 380.80083 609.432708 
L 384.968465 592.734037 
L 389.1361 580.213576 
L 393.303734 550.063267 
L 397.471369 553.219433 
L 401.639004 543.808455 
L 405.806639 533.67471 
L 409.974274 539.463516 
L 414.141909 528.110987 
L 418.309544 513.854051 
L 422.477178 508.287827 
L 426.644813 512.252626 
L 430.812448 502.433163 
L 434.980083 491.02478 
L 439.147718 480.410858 
L 443.315353 483.856298 
L 447.482988 477.174662 
L 451.650622 478.727736 
L 455.818257 452.533888 
L 459.985892 452.857341 
L 464.153527 458.891238 
L 468.321162 473.648358 
L 472.488797 487.051645 
L 476.656432 506.585531 
L 480.824066 519.949637 
L 484.991701 545.1031 
L 489.159336 557.502683 
L 493.326971 569.528794 
L 497.494606 576.169582 
L 501.662241 580.401146 
L 505.829876 577.369192 
L 509.99751 564.006753 
L 518.33278 560.771391 
L 522.500415 544.850507 
L 526.66805 536.18397 
L 530.835685 521.295968 
L 535.00332 514.461776 
L 539.170954 513.33636 
L 543.338589 517.621277 
L 547.506224 504.062099 
L 551.673859 489.208276 
L 555.841494 462.23414 
L 560.009129 436.118655 
L 564.176763 395.877116 
L 568.344398 373.817296 
L 572.512033 355.392987 
L 576.679668 342.167265 
L 580.847303 337.149578 
L 585.014938 346.692271 
L 589.182573 349.584173 
L 593.350207 368.308593 
L 597.517842 379.200119 
L 601.685477 379.280148 
L 605.853112 387.783291 
L 610.020747 382.226237 
L 614.188382 375.907235 
L 618.356017 386.205208 
L 622.523651 400.121184 
L 626.691286 412.081438 
L 630.858921 425.478056 
L 635.026556 431.140982 
L 639.194191 447.087709 
L 643.361826 453.044077 
L 647.529461 463.59631 
L 651.697095 476.533591 
L 655.86473 494.664459 
L 660.032365 504.009579 
L 664.2 517.747156 
L 668.367635 511.233916 
L 672.53527 508.001054 
L 676.702905 517.252807 
L 680.870539 498.479202 
L 685.038174 475.770809 
L 689.205809 443.79149 
L 693.373444 432.734071 
L 697.541079 446.720073 
L 701.708714 463.684676 
L 705.876349 464.710889 
L 710.043983 468.150493 
L 714.211618 477.802394 
L 718.379253 502.847483 
L 722.546888 512.690288 
L 726.714523 513.52643 
L 730.882158 514.778559 
L 735.049793 501.208544 
L 739.217427 525.794297 
L 743.385062 530.691941 
L 747.552697 530.994552 
L 751.720332 532.736863 
L 755.887967 549.634775 
L 760.055602 561.825947 
L 764.223237 589.080186 
L 768.390871 598.685403 
L 772.558506 609.41937 
L 776.726141 612.519683 
L 780.893776 626.959186 
L 785.061411 637.649804 
L 789.229046 647.616821 
L 793.39668 648.661373 
L 797.564315 644.334774 
L 805.899585 625.937975 
L 810.06722 606.484119 
L 814.234855 593.433462 
L 818.40249 576.477195 
L 822.570124 580.176896 
L 826.737759 588.635856 
L 830.905394 602.471802 
L 835.073029 608.449011 
L 839.240664 594.508026 
L 843.408299 593.102506 
L 847.575934 606.023949 
L 851.743568 602.175026 
L 855.911203 611.145842 
L 860.078838 604.084065 
L 864.246473 608.721612 
L 868.414108 638.860251 
L 872.581743 656.108292 
L 876.749378 661.054287 
L 880.917012 669.10893 
L 889.252282 611.179187 
L 893.419917 615.492448 
L 897.587552 615.157324 
L 901.755187 614.664642 
L 905.922822 617.451505 
L 910.090456 624.910095 
L 914.258091 655.631449 
L 918.425726 695.840476 
L 922.593361 696.013874 
L 926.760996 706.178464 
L 930.928631 712.81425 
L 935.096266 713.764601 
L 939.2639 713.353616 
L 943.431535 714.477364 
L 947.59917 714.281459 
L 951.766805 712.43661 
L 955.93444 701.892713 
L 960.102075 699.355109 
L 968.437344 705.450695 
L 972.604979 707.022109 
L 976.772614 708.419292 
L 980.940249 709.372978 
L 985.107884 713.104357 
L 989.275519 712.361582 
L 993.443154 711.898911 
L 1001.778423 715.867045 
L 1005.946058 718.988198 
L 1010.113693 721.532472 
L 1014.281328 724.901217 
L 1018.448963 725.428912 
L 1022.616598 718.802296 
L 1026.784232 717.292571 
L 1030.951867 706.180131 
L 1035.119502 703.933467 
L 1043.454772 699.042493 
L 1047.622407 699.533508 
L 1051.790041 707.195506 
L 1055.957676 706.89873 
L 1060.125311 715.858708 
L 1064.292946 707.794061 
L 1068.460581 707.031279 
L 1072.628216 707.241357 
L 1076.795851 710.145763 
L 1080.963485 696.327323 
L 1085.13112 685.427461 
L 1093.46639 668.572899 
L 1097.634025 658.482503 
L 1101.80166 657.268721 
L 1105.969295 652.541974 
L 1110.136929 664.487222 
L 1114.304564 674.320023 
L 1118.472199 682.552232 
L 1122.639834 695.948016 
L 1126.807469 705.333151 
L 1130.975104 705.235615 
L 1135.142739 705.354826 
L 1139.310373 705.280632 
L 1143.478008 670.026769 
L 1147.645643 668.850501 
L 1151.813278 667.874307 
L 1155.980913 666.683867 
L 1155.980913 666.683867 
" style="fill:none;stroke:#ffa500;stroke-linecap:square;stroke-width:1.5;"/>
   </g>
   <g id="patch_244">
    <path d="M 162 768.96 
L 162 103.68 
" style="fill:none;stroke:#000000;stroke-linecap:square;stroke-linejoin:miter;stroke-width:0.8;"/>
   </g>
   <g id="patch_245">
    <path d="M 1166.4 768.96 
L 1166.4 103.68 
" style="fill:none;stroke:#000000;stroke-linecap:square;stroke-linejoin:miter;stroke-width:0.8;"/>
   </g>
   <g id="patch_246">
    <path d="M 162 768.96 
L 1166.4 768.96 
" style="fill:none;stroke:#000000;stroke-linecap:square;stroke-linejoin:miter;stroke-width:0.8;"/>
   </g>
   <g id="patch_247">
    <path d="M 162 103.68 
L 1166.4 103.68 
" style="fill:none;stroke:#000000;stroke-linecap:square;stroke-linejoin:miter;stroke-width:0.8;"/>
   </g>
   <g id="text_16">
    <!-- Persons Fully Vaccinated -->
    <g transform="translate(590.380313 97.68)scale(0.12 -0.12)">
     <defs>
      <path d="M 1831 0 
L 50 4666 
L 709 4666 
L 2188 738 
L 3669 4666 
L 4325 4666 
L 2547 0 
L 1831 0 
z
" id="DejaVuSans-56" transform="scale(0.015625)"/>
     </defs>
     <use xlink:href="#DejaVuSans-50"/>
     <use x="56.677734" xlink:href="#DejaVuSans-65"/>
     <use x="118.201172" xlink:href="#DejaVuSans-72"/>
     <use x="159.314453" xlink:href="#DejaVuSans-73"/>
     <use x="211.414062" xlink:href="#DejaVuSans-6f"/>
     <use x="272.595703" xlink:href="#DejaVuSans-6e"/>
     <use x="335.974609" xlink:href="#DejaVuSans-73"/>
     <use x="388.074219" xlink:href="#DejaVuSans-20"/>
     <use x="419.861328" xlink:href="#DejaVuSans-46"/>
     <use x="471.880859" xlink:href="#DejaVuSans-75"/>
     <use x="535.259766" xlink:href="#DejaVuSans-6c"/>
     <use x="563.042969" xlink:href="#DejaVuSans-6c"/>
     <use x="590.826172" xlink:href="#DejaVuSans-79"/>
     <use x="650.005859" xlink:href="#DejaVuSans-20"/>
     <use x="681.792969" xlink:href="#DejaVuSans-56"/>
     <use x="742.451172" xlink:href="#DejaVuSans-61"/>
     <use x="803.730469" xlink:href="#DejaVuSans-63"/>
     <use x="858.710938" xlink:href="#DejaVuSans-63"/>
     <use x="913.691406" xlink:href="#DejaVuSans-69"/>
     <use x="941.474609" xlink:href="#DejaVuSans-6e"/>
     <use x="1004.853516" xlink:href="#DejaVuSans-61"/>
     <use x="1066.132812" xlink:href="#DejaVuSans-74"/>
     <use x="1105.341797" xlink:href="#DejaVuSans-65"/>
     <use x="1166.865234" xlink:href="#DejaVuSans-64"/>
    </g>
   </g>
  </g>
 </g>
 <defs>
  <clipPath id="pf47e525fc1">
   <rect height="665.28" width="1004.4" x="162" y="103.68"/>
  </clipPath>
 </defs>
</svg>
