<?xml version="1.0" encoding="utf-8" standalone="no"?>
<!DOCTYPE svg PUBLIC "-//W3C//DTD SVG 1.1//EN"
  "http://www.w3.org/Graphics/SVG/1.1/DTD/svg11.dtd">
<svg height="864pt" version="1.1" viewBox="0 0 1296 864" width="1296pt" xmlns="http://www.w3.org/2000/svg" xmlns:xlink="http://www.w3.org/1999/xlink">
 <metadata>
  <rdf:RDF xmlns:cc="http://creativecommons.org/ns#" xmlns:dc="http://purl.org/dc/elements/1.1/" xmlns:rdf="http://www.w3.org/1999/02/22-rdf-syntax-ns#">
   <cc:Work>
    <dc:type rdf:resource="http://purl.org/dc/dcmitype/StillImage"/>
    <dc:date>2021-10-08T00:57:14.431375</dc:date>
    <dc:format>image/svg+xml</dc:format>
    <dc:creator>
     <cc:Agent>
      <dc:title>Matplotlib v3.4.2, https://matplotlib.org/</dc:title>
     </cc:Agent>
    </dc:creator>
   </cc:Work>
  </rdf:RDF>
 </metadata>
 <defs>
  <style type="text/css">*{stroke-linecap:butt;stroke-linejoin:round;}</style>
 </defs>
 <g id="figure_1">
  <g id="patch_1">
   <path d="M 0 864 
L 1296 864 
L 1296 0 
L 0 0 
z
" style="fill:#ffffff;"/>
  </g>
  <g id="axes_1">
   <g id="patch_2">
    <path d="M 162 768.96 
L 1166.4 768.96 
L 1166.4 103.68 
L 162 103.68 
z
" style="fill:#ffffff;"/>
   </g>
   <g id="patch_3">
    <path clip-path="url(#pa666673ec4)" d="M 162.9 768.96 
L 164.7 768.96 
L 164.7 768.948346 
L 162.9 768.948346 
z
" style="fill:#1f77b4;"/>
   </g>
   <g id="patch_4">
    <path clip-path="url(#pa666673ec4)" d="M 166.5 768.96 
L 168.3 768.96 
L 168.3 768.96 
L 166.5 768.96 
z
" style="fill:#1f77b4;"/>
   </g>
   <g id="patch_5">
    <path clip-path="url(#pa666673ec4)" d="M 170.1 768.96 
L 171.9 768.96 
L 171.9 768.96 
L 170.1 768.96 
z
" style="fill:#1f77b4;"/>
   </g>
   <g id="patch_6">
    <path clip-path="url(#pa666673ec4)" d="M 173.7 768.96 
L 175.5 768.96 
L 175.5 768.21997 
L 173.7 768.21997 
z
" style="fill:#1f77b4;"/>
   </g>
   <g id="patch_7">
    <path clip-path="url(#pa666673ec4)" d="M 177.3 768.96 
L 179.1 768.96 
L 179.1 766.984643 
L 177.3 766.984643 
z
" style="fill:#1f77b4;"/>
   </g>
   <g id="patch_8">
    <path clip-path="url(#pa666673ec4)" d="M 180.9 768.96 
L 182.7 768.96 
L 182.7 754.893596 
L 180.9 754.893596 
z
" style="fill:#1f77b4;"/>
   </g>
   <g id="patch_9">
    <path clip-path="url(#pa666673ec4)" d="M 184.5 768.96 
L 186.3 768.96 
L 186.3 667.465129 
L 184.5 667.465129 
z
" style="fill:#1f77b4;"/>
   </g>
   <g id="patch_10">
    <path clip-path="url(#pa666673ec4)" d="M 188.1 768.96 
L 189.9 768.96 
L 189.9 646.551988 
L 188.1 646.551988 
z
" style="fill:#1f77b4;"/>
   </g>
   <g id="patch_11">
    <path clip-path="url(#pa666673ec4)" d="M 191.7 768.96 
L 193.5 768.96 
L 193.5 702.118361 
L 191.7 702.118361 
z
" style="fill:#1f77b4;"/>
   </g>
   <g id="patch_12">
    <path clip-path="url(#pa666673ec4)" d="M 195.3 768.96 
L 197.1 768.96 
L 197.1 728.433141 
L 195.3 728.433141 
z
" style="fill:#1f77b4;"/>
   </g>
   <g id="patch_13">
    <path clip-path="url(#pa666673ec4)" d="M 198.9 768.96 
L 200.7 768.96 
L 200.7 705.637876 
L 198.9 705.637876 
z
" style="fill:#1f77b4;"/>
   </g>
   <g id="patch_14">
    <path clip-path="url(#pa666673ec4)" d="M 202.5 768.96 
L 204.3 768.96 
L 204.3 708.82525 
L 202.5 708.82525 
z
" style="fill:#1f77b4;"/>
   </g>
   <g id="patch_15">
    <path clip-path="url(#pa666673ec4)" d="M 206.1 768.96 
L 207.9 768.96 
L 207.9 719.78003 
L 206.1 719.78003 
z
" style="fill:#1f77b4;"/>
   </g>
   <g id="patch_16">
    <path clip-path="url(#pa666673ec4)" d="M 209.7 768.96 
L 211.5 768.96 
L 211.5 709.029196 
L 209.7 709.029196 
z
" style="fill:#1f77b4;"/>
   </g>
   <g id="patch_17">
    <path clip-path="url(#pa666673ec4)" d="M 213.3 768.96 
L 215.1 768.96 
L 215.1 756.670835 
L 213.3 756.670835 
z
" style="fill:#1f77b4;"/>
   </g>
   <g id="patch_18">
    <path clip-path="url(#pa666673ec4)" d="M 216.9 768.96 
L 218.7 768.96 
L 218.7 761.332443 
L 216.9 761.332443 
z
" style="fill:#1f77b4;"/>
   </g>
   <g id="patch_19">
    <path clip-path="url(#pa666673ec4)" d="M 220.5 768.96 
L 222.3 768.96 
L 222.3 765.312291 
L 220.5 765.312291 
z
" style="fill:#1f77b4;"/>
   </g>
   <g id="patch_20">
    <path clip-path="url(#pa666673ec4)" d="M 224.1 768.96 
L 225.9 768.96 
L 225.9 752.201517 
L 224.1 752.201517 
z
" style="fill:#1f77b4;"/>
   </g>
   <g id="patch_21">
    <path clip-path="url(#pa666673ec4)" d="M 227.7 768.96 
L 229.5 768.96 
L 229.5 741.771168 
L 227.7 741.771168 
z
" style="fill:#1f77b4;"/>
   </g>
   <g id="patch_22">
    <path clip-path="url(#pa666673ec4)" d="M 231.3 768.96 
L 233.1 768.96 
L 233.1 718.101851 
L 231.3 718.101851 
z
" style="fill:#1f77b4;"/>
   </g>
   <g id="patch_23">
    <path clip-path="url(#pa666673ec4)" d="M 234.9 768.96 
L 236.7 768.96 
L 236.7 717.723096 
L 234.9 717.723096 
z
" style="fill:#1f77b4;"/>
   </g>
   <g id="patch_24">
    <path clip-path="url(#pa666673ec4)" d="M 238.5 768.96 
L 240.3 768.96 
L 240.3 731.987618 
L 238.5 731.987618 
z
" style="fill:#1f77b4;"/>
   </g>
   <g id="patch_25">
    <path clip-path="url(#pa666673ec4)" d="M 242.1 768.96 
L 243.9 768.96 
L 243.9 755.00431 
L 242.1 755.00431 
z
" style="fill:#1f77b4;"/>
   </g>
   <g id="patch_26">
    <path clip-path="url(#pa666673ec4)" d="M 245.7 768.96 
L 247.5 768.96 
L 247.5 750.418452 
L 245.7 750.418452 
z
" style="fill:#1f77b4;"/>
   </g>
   <g id="patch_27">
    <path clip-path="url(#pa666673ec4)" d="M 249.3 768.96 
L 251.1 768.96 
L 251.1 721.102762 
L 249.3 721.102762 
z
" style="fill:#1f77b4;"/>
   </g>
   <g id="patch_28">
    <path clip-path="url(#pa666673ec4)" d="M 252.9 768.96 
L 254.7 768.96 
L 254.7 685.476419 
L 252.9 685.476419 
z
" style="fill:#1f77b4;"/>
   </g>
   <g id="patch_29">
    <path clip-path="url(#pa666673ec4)" d="M 256.5 768.96 
L 258.3 768.96 
L 258.3 657.885524 
L 256.5 657.885524 
z
" style="fill:#1f77b4;"/>
   </g>
   <g id="patch_30">
    <path clip-path="url(#pa666673ec4)" d="M 260.1 768.96 
L 261.9 768.96 
L 261.9 672.989135 
L 260.1 672.989135 
z
" style="fill:#1f77b4;"/>
   </g>
   <g id="patch_31">
    <path clip-path="url(#pa666673ec4)" d="M 263.7 768.96 
L 265.5 768.96 
L 265.5 684.917026 
L 263.7 684.917026 
z
" style="fill:#1f77b4;"/>
   </g>
   <g id="patch_32">
    <path clip-path="url(#pa666673ec4)" d="M 267.3 768.96 
L 269.1 768.96 
L 269.1 723.014021 
L 267.3 723.014021 
z
" style="fill:#1f77b4;"/>
   </g>
   <g id="patch_33">
    <path clip-path="url(#pa666673ec4)" d="M 270.9 768.96 
L 272.7 768.96 
L 272.7 743.134689 
L 270.9 743.134689 
z
" style="fill:#1f77b4;"/>
   </g>
   <g id="patch_34">
    <path clip-path="url(#pa666673ec4)" d="M 274.5 768.96 
L 276.3 768.96 
L 276.3 721.551442 
L 274.5 721.551442 
z
" style="fill:#1f77b4;"/>
   </g>
   <g id="patch_35">
    <path clip-path="url(#pa666673ec4)" d="M 278.1 768.96 
L 279.9 768.96 
L 279.9 667.919636 
L 278.1 667.919636 
z
" style="fill:#1f77b4;"/>
   </g>
   <g id="patch_36">
    <path clip-path="url(#pa666673ec4)" d="M 281.7 768.96 
L 283.5 768.96 
L 283.5 693.849833 
L 281.7 693.849833 
z
" style="fill:#1f77b4;"/>
   </g>
   <g id="patch_37">
    <path clip-path="url(#pa666673ec4)" d="M 285.3 768.96 
L 287.1 768.96 
L 287.1 671.65475 
L 285.3 671.65475 
z
" style="fill:#1f77b4;"/>
   </g>
   <g id="patch_38">
    <path clip-path="url(#pa666673ec4)" d="M 288.9 768.96 
L 290.7 768.96 
L 290.7 688.844431 
L 288.9 688.844431 
z
" style="fill:#1f77b4;"/>
   </g>
   <g id="patch_39">
    <path clip-path="url(#pa666673ec4)" d="M 292.5 768.96 
L 294.3 768.96 
L 294.3 700.440182 
L 292.5 700.440182 
z
" style="fill:#1f77b4;"/>
   </g>
   <g id="patch_40">
    <path clip-path="url(#pa666673ec4)" d="M 296.1 768.96 
L 297.9 768.96 
L 297.9 745.756844 
L 296.1 745.756844 
z
" style="fill:#1f77b4;"/>
   </g>
   <g id="patch_41">
    <path clip-path="url(#pa666673ec4)" d="M 299.7 768.96 
L 301.5 768.96 
L 301.5 692.503794 
L 299.7 692.503794 
z
" style="fill:#1f77b4;"/>
   </g>
   <g id="patch_42">
    <path clip-path="url(#pa666673ec4)" d="M 303.3 768.96 
L 305.1 768.96 
L 305.1 673.059059 
L 303.3 673.059059 
z
" style="fill:#1f77b4;"/>
   </g>
   <g id="patch_43">
    <path clip-path="url(#pa666673ec4)" d="M 306.9 768.96 
L 308.7 768.96 
L 308.7 652.9617 
L 306.9 652.9617 
z
" style="fill:#1f77b4;"/>
   </g>
   <g id="patch_44">
    <path clip-path="url(#pa666673ec4)" d="M 310.5 768.96 
L 312.3 768.96 
L 312.3 602.756176 
L 310.5 602.756176 
z
" style="fill:#1f77b4;"/>
   </g>
   <g id="patch_45">
    <path clip-path="url(#pa666673ec4)" d="M 314.1 768.96 
L 315.9 768.96 
L 315.9 624.968741 
L 314.1 624.968741 
z
" style="fill:#1f77b4;"/>
   </g>
   <g id="patch_46">
    <path clip-path="url(#pa666673ec4)" d="M 317.7 768.96 
L 319.5 768.96 
L 319.5 679.497906 
L 317.7 679.497906 
z
" style="fill:#1f77b4;"/>
   </g>
   <g id="patch_47">
    <path clip-path="url(#pa666673ec4)" d="M 321.3 768.96 
L 323.1 768.96 
L 323.1 720.584158 
L 321.3 720.584158 
z
" style="fill:#1f77b4;"/>
   </g>
   <g id="patch_48">
    <path clip-path="url(#pa666673ec4)" d="M 324.9 768.96 
L 326.7 768.96 
L 326.7 721.201821 
L 324.9 721.201821 
z
" style="fill:#1f77b4;"/>
   </g>
   <g id="patch_49">
    <path clip-path="url(#pa666673ec4)" d="M 328.5 768.96 
L 330.3 768.96 
L 330.3 679.445463 
L 328.5 679.445463 
z
" style="fill:#1f77b4;"/>
   </g>
   <g id="patch_50">
    <path clip-path="url(#pa666673ec4)" d="M 332.1 768.96 
L 333.9 768.96 
L 333.9 619.380637 
L 332.1 619.380637 
z
" style="fill:#1f77b4;"/>
   </g>
   <g id="patch_51">
    <path clip-path="url(#pa666673ec4)" d="M 335.7 768.96 
L 337.5 768.96 
L 337.5 575.864522 
L 335.7 575.864522 
z
" style="fill:#1f77b4;"/>
   </g>
   <g id="patch_52">
    <path clip-path="url(#pa666673ec4)" d="M 339.3 768.96 
L 341.1 768.96 
L 341.1 583.946586 
L 339.3 583.946586 
z
" style="fill:#1f77b4;"/>
   </g>
   <g id="patch_53">
    <path clip-path="url(#pa666673ec4)" d="M 342.9 768.96 
L 344.7 768.96 
L 344.7 740.582458 
L 342.9 740.582458 
z
" style="fill:#1f77b4;"/>
   </g>
   <g id="patch_54">
    <path clip-path="url(#pa666673ec4)" d="M 346.5 768.96 
L 348.3 768.96 
L 348.3 631.943672 
L 346.5 631.943672 
z
" style="fill:#1f77b4;"/>
   </g>
   <g id="patch_55">
    <path clip-path="url(#pa666673ec4)" d="M 350.1 768.96 
L 351.9 768.96 
L 351.9 662.471381 
L 350.1 662.471381 
z
" style="fill:#1f77b4;"/>
   </g>
   <g id="patch_56">
    <path clip-path="url(#pa666673ec4)" d="M 353.7 768.96 
L 355.5 768.96 
L 355.5 610.471138 
L 353.7 610.471138 
z
" style="fill:#1f77b4;"/>
   </g>
   <g id="patch_57">
    <path clip-path="url(#pa666673ec4)" d="M 357.3 768.96 
L 359.1 768.96 
L 359.1 463.146829 
L 357.3 463.146829 
z
" style="fill:#1f77b4;"/>
   </g>
   <g id="patch_58">
    <path clip-path="url(#pa666673ec4)" d="M 360.9 768.96 
L 362.7 768.96 
L 362.7 459.271866 
L 360.9 459.271866 
z
" style="fill:#1f77b4;"/>
   </g>
   <g id="patch_59">
    <path clip-path="url(#pa666673ec4)" d="M 364.5 768.96 
L 366.3 768.96 
L 366.3 496.582215 
L 364.5 496.582215 
z
" style="fill:#1f77b4;"/>
   </g>
   <g id="patch_60">
    <path clip-path="url(#pa666673ec4)" d="M 368.1 768.96 
L 369.9 768.96 
L 369.9 530.093354 
L 368.1 530.093354 
z
" style="fill:#1f77b4;"/>
   </g>
   <g id="patch_61">
    <path clip-path="url(#pa666673ec4)" d="M 371.7 768.96 
L 373.5 768.96 
L 373.5 653.829924 
L 371.7 653.829924 
z
" style="fill:#1f77b4;"/>
   </g>
   <g id="patch_62">
    <path clip-path="url(#pa666673ec4)" d="M 375.3 768.96 
L 377.1 768.96 
L 377.1 596.742701 
L 375.3 596.742701 
z
" style="fill:#1f77b4;"/>
   </g>
   <g id="patch_63">
    <path clip-path="url(#pa666673ec4)" d="M 378.9 768.96 
L 380.7 768.96 
L 380.7 539.766191 
L 378.9 539.766191 
z
" style="fill:#1f77b4;"/>
   </g>
   <g id="patch_64">
    <path clip-path="url(#pa666673ec4)" d="M 382.5 768.96 
L 384.3 768.96 
L 384.3 503.82519 
L 382.5 503.82519 
z
" style="fill:#1f77b4;"/>
   </g>
   <g id="patch_65">
    <path clip-path="url(#pa666673ec4)" d="M 386.1 768.96 
L 387.9 768.96 
L 387.9 379.972079 
L 386.1 379.972079 
z
" style="fill:#1f77b4;"/>
   </g>
   <g id="patch_66">
    <path clip-path="url(#pa666673ec4)" d="M 389.7 768.96 
L 391.5 768.96 
L 391.5 397.033566 
L 389.7 397.033566 
z
" style="fill:#1f77b4;"/>
   </g>
   <g id="patch_67">
    <path clip-path="url(#pa666673ec4)" d="M 393.3 768.96 
L 395.1 768.96 
L 395.1 491.052382 
L 393.3 491.052382 
z
" style="fill:#1f77b4;"/>
   </g>
   <g id="patch_68">
    <path clip-path="url(#pa666673ec4)" d="M 396.9 768.96 
L 398.7 768.96 
L 398.7 681.508225 
L 396.9 681.508225 
z
" style="fill:#1f77b4;"/>
   </g>
   <g id="patch_69">
    <path clip-path="url(#pa666673ec4)" d="M 400.5 768.96 
L 402.3 768.96 
L 402.3 528.036419 
L 400.5 528.036419 
z
" style="fill:#1f77b4;"/>
   </g>
   <g id="patch_70">
    <path clip-path="url(#pa666673ec4)" d="M 404.1 768.96 
L 405.9 768.96 
L 405.9 460.046859 
L 404.1 460.046859 
z
" style="fill:#1f77b4;"/>
   </g>
   <g id="patch_71">
    <path clip-path="url(#pa666673ec4)" d="M 407.7 768.96 
L 409.5 768.96 
L 409.5 429.431745 
L 407.7 429.431745 
z
" style="fill:#1f77b4;"/>
   </g>
   <g id="patch_72">
    <path clip-path="url(#pa666673ec4)" d="M 411.3 768.96 
L 413.1 768.96 
L 413.1 404.183308 
L 411.3 404.183308 
z
" style="fill:#1f77b4;"/>
   </g>
   <g id="patch_73">
    <path clip-path="url(#pa666673ec4)" d="M 414.9 768.96 
L 416.7 768.96 
L 416.7 350.388346 
L 414.9 350.388346 
z
" style="fill:#1f77b4;"/>
   </g>
   <g id="patch_74">
    <path clip-path="url(#pa666673ec4)" d="M 418.5 768.96 
L 420.3 768.96 
L 420.3 499.507375 
L 418.5 499.507375 
z
" style="fill:#1f77b4;"/>
   </g>
   <g id="patch_75">
    <path clip-path="url(#pa666673ec4)" d="M 422.1 768.96 
L 423.9 768.96 
L 423.9 498.703247 
L 422.1 498.703247 
z
" style="fill:#1f77b4;"/>
   </g>
   <g id="patch_76">
    <path clip-path="url(#pa666673ec4)" d="M 425.7 768.96 
L 427.5 768.96 
L 427.5 530.303126 
L 425.7 530.303126 
z
" style="fill:#1f77b4;"/>
   </g>
   <g id="patch_77">
    <path clip-path="url(#pa666673ec4)" d="M 429.3 768.96 
L 431.1 768.96 
L 431.1 501.902276 
L 429.3 501.902276 
z
" style="fill:#1f77b4;"/>
   </g>
   <g id="patch_78">
    <path clip-path="url(#pa666673ec4)" d="M 432.9 768.96 
L 434.7 768.96 
L 434.7 532.540698 
L 432.9 532.540698 
z
" style="fill:#1f77b4;"/>
   </g>
   <g id="patch_79">
    <path clip-path="url(#pa666673ec4)" d="M 436.5 768.96 
L 438.3 768.96 
L 438.3 497.147436 
L 436.5 497.147436 
z
" style="fill:#1f77b4;"/>
   </g>
   <g id="patch_80">
    <path clip-path="url(#pa666673ec4)" d="M 440.1 768.96 
L 441.9 768.96 
L 441.9 486.26258 
L 440.1 486.26258 
z
" style="fill:#1f77b4;"/>
   </g>
   <g id="patch_81">
    <path clip-path="url(#pa666673ec4)" d="M 443.7 768.96 
L 445.5 768.96 
L 445.5 595.041214 
L 443.7 595.041214 
z
" style="fill:#1f77b4;"/>
   </g>
   <g id="patch_82">
    <path clip-path="url(#pa666673ec4)" d="M 447.3 768.96 
L 449.1 768.96 
L 449.1 674.271077 
L 447.3 674.271077 
z
" style="fill:#1f77b4;"/>
   </g>
   <g id="patch_83">
    <path clip-path="url(#pa666673ec4)" d="M 450.9 768.96 
L 452.7 768.96 
L 452.7 616.752656 
L 450.9 616.752656 
z
" style="fill:#1f77b4;"/>
   </g>
   <g id="patch_84">
    <path clip-path="url(#pa666673ec4)" d="M 454.5 768.96 
L 456.3 768.96 
L 456.3 585.793748 
L 454.5 585.793748 
z
" style="fill:#1f77b4;"/>
   </g>
   <g id="patch_85">
    <path clip-path="url(#pa666673ec4)" d="M 458.1 768.96 
L 459.9 768.96 
L 459.9 578.585736 
L 458.1 578.585736 
z
" style="fill:#1f77b4;"/>
   </g>
   <g id="patch_86">
    <path clip-path="url(#pa666673ec4)" d="M 461.7 768.96 
L 463.5 768.96 
L 463.5 526.894325 
L 461.7 526.894325 
z
" style="fill:#1f77b4;"/>
   </g>
   <g id="patch_87">
    <path clip-path="url(#pa666673ec4)" d="M 465.3 768.96 
L 467.1 768.96 
L 467.1 465.320303 
L 465.3 465.320303 
z
" style="fill:#1f77b4;"/>
   </g>
   <g id="patch_88">
    <path clip-path="url(#pa666673ec4)" d="M 468.9 768.96 
L 470.7 768.96 
L 470.7 501.628407 
L 468.9 501.628407 
z
" style="fill:#1f77b4;"/>
   </g>
   <g id="patch_89">
    <path clip-path="url(#pa666673ec4)" d="M 472.5 768.96 
L 474.3 768.96 
L 474.3 662.908407 
L 472.5 662.908407 
z
" style="fill:#1f77b4;"/>
   </g>
   <g id="patch_90">
    <path clip-path="url(#pa666673ec4)" d="M 476.1 768.96 
L 477.9 768.96 
L 477.9 605.389985 
L 476.1 605.389985 
z
" style="fill:#1f77b4;"/>
   </g>
   <g id="patch_91">
    <path clip-path="url(#pa666673ec4)" d="M 479.7 768.96 
L 481.5 768.96 
L 481.5 474.52698 
L 479.7 474.52698 
z
" style="fill:#1f77b4;"/>
   </g>
   <g id="patch_92">
    <path clip-path="url(#pa666673ec4)" d="M 483.3 768.96 
L 485.1 768.96 
L 485.1 518.124674 
L 483.3 518.124674 
z
" style="fill:#1f77b4;"/>
   </g>
   <g id="patch_93">
    <path clip-path="url(#pa666673ec4)" d="M 486.9 768.96 
L 488.7 768.96 
L 488.7 422.922974 
L 486.9 422.922974 
z
" style="fill:#1f77b4;"/>
   </g>
   <g id="patch_94">
    <path clip-path="url(#pa666673ec4)" d="M 490.5 768.96 
L 492.3 768.96 
L 492.3 416.449165 
L 490.5 416.449165 
z
" style="fill:#1f77b4;"/>
   </g>
   <g id="patch_95">
    <path clip-path="url(#pa666673ec4)" d="M 494.1 768.96 
L 495.9 768.96 
L 495.9 494.123217 
L 494.1 494.123217 
z
" style="fill:#1f77b4;"/>
   </g>
   <g id="patch_96">
    <path clip-path="url(#pa666673ec4)" d="M 497.7 768.96 
L 499.5 768.96 
L 499.5 692.830106 
L 497.7 692.830106 
z
" style="fill:#1f77b4;"/>
   </g>
   <g id="patch_97">
    <path clip-path="url(#pa666673ec4)" d="M 501.3 768.96 
L 503.1 768.96 
L 503.1 510.537906 
L 501.3 510.537906 
z
" style="fill:#1f77b4;"/>
   </g>
   <g id="patch_98">
    <path clip-path="url(#pa666673ec4)" d="M 504.9 768.96 
L 506.7 768.96 
L 506.7 370.742094 
L 504.9 370.742094 
z
" style="fill:#1f77b4;"/>
   </g>
   <g id="patch_99">
    <path clip-path="url(#pa666673ec4)" d="M 508.5 768.96 
L 510.3 768.96 
L 510.3 329.481032 
L 508.5 329.481032 
z
" style="fill:#1f77b4;"/>
   </g>
   <g id="patch_100">
    <path clip-path="url(#pa666673ec4)" d="M 512.1 768.96 
L 513.9 768.96 
L 513.9 240.152959 
L 512.1 240.152959 
z
" style="fill:#1f77b4;"/>
   </g>
   <g id="patch_101">
    <path clip-path="url(#pa666673ec4)" d="M 515.7 768.96 
L 517.5 768.96 
L 517.5 135.36 
L 515.7 135.36 
z
" style="fill:#1f77b4;"/>
   </g>
   <g id="patch_102">
    <path clip-path="url(#pa666673ec4)" d="M 519.3 768.96 
L 521.1 768.96 
L 521.1 339.946343 
L 519.3 339.946343 
z
" style="fill:#1f77b4;"/>
   </g>
   <g id="patch_103">
    <path clip-path="url(#pa666673ec4)" d="M 522.9 768.96 
L 524.7 768.96 
L 524.7 564.140577 
L 522.9 564.140577 
z
" style="fill:#1f77b4;"/>
   </g>
   <g id="patch_104">
    <path clip-path="url(#pa666673ec4)" d="M 526.5 768.96 
L 528.3 768.96 
L 528.3 418.051593 
L 526.5 418.051593 
z
" style="fill:#1f77b4;"/>
   </g>
   <g id="patch_105">
    <path clip-path="url(#pa666673ec4)" d="M 530.1 768.96 
L 531.9 768.96 
L 531.9 335.820819 
L 530.1 335.820819 
z
" style="fill:#1f77b4;"/>
   </g>
   <g id="patch_106">
    <path clip-path="url(#pa666673ec4)" d="M 533.7 768.96 
L 535.5 768.96 
L 535.5 396.287709 
L 533.7 396.287709 
z
" style="fill:#1f77b4;"/>
   </g>
   <g id="patch_107">
    <path clip-path="url(#pa666673ec4)" d="M 537.3 768.96 
L 539.1 768.96 
L 539.1 260.634901 
L 537.3 260.634901 
z
" style="fill:#1f77b4;"/>
   </g>
   <g id="patch_108">
    <path clip-path="url(#pa666673ec4)" d="M 540.9 768.96 
L 542.7 768.96 
L 542.7 266.99217 
L 540.9 266.99217 
z
" style="fill:#1f77b4;"/>
   </g>
   <g id="patch_109">
    <path clip-path="url(#pa666673ec4)" d="M 544.5 768.96 
L 546.3 768.96 
L 546.3 415.878118 
L 544.5 415.878118 
z
" style="fill:#1f77b4;"/>
   </g>
   <g id="patch_110">
    <path clip-path="url(#pa666673ec4)" d="M 548.1 768.96 
L 549.9 768.96 
L 549.9 564.705797 
L 548.1 564.705797 
z
" style="fill:#1f77b4;"/>
   </g>
   <g id="patch_111">
    <path clip-path="url(#pa666673ec4)" d="M 551.7 768.96 
L 553.5 768.96 
L 553.5 477.842549 
L 551.7 477.842549 
z
" style="fill:#1f77b4;"/>
   </g>
   <g id="patch_112">
    <path clip-path="url(#pa666673ec4)" d="M 555.3 768.96 
L 557.1 768.96 
L 557.1 297.141123 
L 555.3 297.141123 
z
" style="fill:#1f77b4;"/>
   </g>
   <g id="patch_113">
    <path clip-path="url(#pa666673ec4)" d="M 558.9 768.96 
L 560.7 768.96 
L 560.7 352.282124 
L 558.9 352.282124 
z
" style="fill:#1f77b4;"/>
   </g>
   <g id="patch_114">
    <path clip-path="url(#pa666673ec4)" d="M 562.5 768.96 
L 564.3 768.96 
L 564.3 332.77912 
L 562.5 332.77912 
z
" style="fill:#1f77b4;"/>
   </g>
   <g id="patch_115">
    <path clip-path="url(#pa666673ec4)" d="M 566.1 768.96 
L 567.9 768.96 
L 567.9 364.017724 
L 566.1 364.017724 
z
" style="fill:#1f77b4;"/>
   </g>
   <g id="patch_116">
    <path clip-path="url(#pa666673ec4)" d="M 569.7 768.96 
L 571.5 768.96 
L 571.5 499.565645 
L 569.7 499.565645 
z
" style="fill:#1f77b4;"/>
   </g>
   <g id="patch_117">
    <path clip-path="url(#pa666673ec4)" d="M 573.3 768.96 
L 575.1 768.96 
L 575.1 658.34003 
L 573.3 658.34003 
z
" style="fill:#1f77b4;"/>
   </g>
   <g id="patch_118">
    <path clip-path="url(#pa666673ec4)" d="M 576.9 768.96 
L 578.7 768.96 
L 578.7 517.151563 
L 576.9 517.151563 
z
" style="fill:#1f77b4;"/>
   </g>
   <g id="patch_119">
    <path clip-path="url(#pa666673ec4)" d="M 580.5 768.96 
L 582.3 768.96 
L 582.3 408.337967 
L 580.5 408.337967 
z
" style="fill:#1f77b4;"/>
   </g>
   <g id="patch_120">
    <path clip-path="url(#pa666673ec4)" d="M 584.1 768.96 
L 585.9 768.96 
L 585.9 393.951077 
L 584.1 393.951077 
z
" style="fill:#1f77b4;"/>
   </g>
   <g id="patch_121">
    <path clip-path="url(#pa666673ec4)" d="M 587.7 768.96 
L 589.5 768.96 
L 589.5 406.36261 
L 587.7 406.36261 
z
" style="fill:#1f77b4;"/>
   </g>
   <g id="patch_122">
    <path clip-path="url(#pa666673ec4)" d="M 591.3 768.96 
L 593.1 768.96 
L 593.1 454.744279 
L 591.3 454.744279 
z
" style="fill:#1f77b4;"/>
   </g>
   <g id="patch_123">
    <path clip-path="url(#pa666673ec4)" d="M 594.9 768.96 
L 596.7 768.96 
L 596.7 626.000121 
L 594.9 626.000121 
z
" style="fill:#1f77b4;"/>
   </g>
   <g id="patch_124">
    <path clip-path="url(#pa666673ec4)" d="M 598.5 768.96 
L 600.3 768.96 
L 600.3 723.491836 
L 598.5 723.491836 
z
" style="fill:#1f77b4;"/>
   </g>
   <g id="patch_125">
    <path clip-path="url(#pa666673ec4)" d="M 602.1 768.96 
L 603.9 768.96 
L 603.9 613.262276 
L 602.1 613.262276 
z
" style="fill:#1f77b4;"/>
   </g>
   <g id="patch_126">
    <path clip-path="url(#pa666673ec4)" d="M 605.7 768.96 
L 607.5 768.96 
L 607.5 362.846495 
L 605.7 362.846495 
z
" style="fill:#1f77b4;"/>
   </g>
   <g id="patch_127">
    <path clip-path="url(#pa666673ec4)" d="M 609.3 768.96 
L 611.1 768.96 
L 611.1 371.330622 
L 609.3 371.330622 
z
" style="fill:#1f77b4;"/>
   </g>
   <g id="patch_128">
    <path clip-path="url(#pa666673ec4)" d="M 612.9 768.96 
L 614.7 768.96 
L 614.7 470.925888 
L 612.9 470.925888 
z
" style="fill:#1f77b4;"/>
   </g>
   <g id="patch_129">
    <path clip-path="url(#pa666673ec4)" d="M 616.5 768.96 
L 618.3 768.96 
L 618.3 323.496692 
L 616.5 323.496692 
z
" style="fill:#1f77b4;"/>
   </g>
   <g id="patch_130">
    <path clip-path="url(#pa666673ec4)" d="M 620.1 768.96 
L 621.9 768.96 
L 621.9 467.441335 
L 620.1 467.441335 
z
" style="fill:#1f77b4;"/>
   </g>
   <g id="patch_131">
    <path clip-path="url(#pa666673ec4)" d="M 623.7 768.96 
L 625.5 768.96 
L 625.5 500.509621 
L 623.7 500.509621 
z
" style="fill:#1f77b4;"/>
   </g>
   <g id="patch_132">
    <path clip-path="url(#pa666673ec4)" d="M 627.3 768.96 
L 629.1 768.96 
L 629.1 535.90871 
L 627.3 535.90871 
z
" style="fill:#1f77b4;"/>
   </g>
   <g id="patch_133">
    <path clip-path="url(#pa666673ec4)" d="M 630.9 768.96 
L 632.7 768.96 
L 632.7 460.279939 
L 630.9 460.279939 
z
" style="fill:#1f77b4;"/>
   </g>
   <g id="patch_134">
    <path clip-path="url(#pa666673ec4)" d="M 634.5 768.96 
L 636.3 768.96 
L 636.3 489.741305 
L 634.5 489.741305 
z
" style="fill:#1f77b4;"/>
   </g>
   <g id="patch_135">
    <path clip-path="url(#pa666673ec4)" d="M 638.1 768.96 
L 639.9 768.96 
L 639.9 477.988225 
L 638.1 477.988225 
z
" style="fill:#1f77b4;"/>
   </g>
   <g id="patch_136">
    <path clip-path="url(#pa666673ec4)" d="M 641.7 768.96 
L 643.5 768.96 
L 643.5 347.63217 
L 641.7 347.63217 
z
" style="fill:#1f77b4;"/>
   </g>
   <g id="patch_137">
    <path clip-path="url(#pa666673ec4)" d="M 645.3 768.96 
L 647.1 768.96 
L 647.1 534.754962 
L 645.3 534.754962 
z
" style="fill:#1f77b4;"/>
   </g>
   <g id="patch_138">
    <path clip-path="url(#pa666673ec4)" d="M 648.9 768.96 
L 650.7 768.96 
L 650.7 674.795508 
L 648.9 674.795508 
z
" style="fill:#1f77b4;"/>
   </g>
   <g id="patch_139">
    <path clip-path="url(#pa666673ec4)" d="M 652.5 768.96 
L 654.3 768.96 
L 654.3 604.708225 
L 652.5 604.708225 
z
" style="fill:#1f77b4;"/>
   </g>
   <g id="patch_140">
    <path clip-path="url(#pa666673ec4)" d="M 656.1 768.96 
L 657.9 768.96 
L 657.9 466.16522 
L 656.1 466.16522 
z
" style="fill:#1f77b4;"/>
   </g>
   <g id="patch_141">
    <path clip-path="url(#pa666673ec4)" d="M 659.7 768.96 
L 661.5 768.96 
L 661.5 498.778998 
L 659.7 498.778998 
z
" style="fill:#1f77b4;"/>
   </g>
   <g id="patch_142">
    <path clip-path="url(#pa666673ec4)" d="M 663.3 768.96 
L 665.1 768.96 
L 665.1 383.130319 
L 663.3 383.130319 
z
" style="fill:#1f77b4;"/>
   </g>
   <g id="patch_143">
    <path clip-path="url(#pa666673ec4)" d="M 666.9 768.96 
L 668.7 768.96 
L 668.7 519.196844 
L 666.9 519.196844 
z
" style="fill:#1f77b4;"/>
   </g>
   <g id="patch_144">
    <path clip-path="url(#pa666673ec4)" d="M 670.5 768.96 
L 672.3 768.96 
L 672.3 569.093536 
L 670.5 569.093536 
z
" style="fill:#1f77b4;"/>
   </g>
   <g id="patch_145">
    <path clip-path="url(#pa666673ec4)" d="M 674.1 768.96 
L 675.9 768.96 
L 675.9 677.202064 
L 674.1 677.202064 
z
" style="fill:#1f77b4;"/>
   </g>
   <g id="patch_146">
    <path clip-path="url(#pa666673ec4)" d="M 677.7 768.96 
L 679.5 768.96 
L 679.5 616.968255 
L 677.7 616.968255 
z
" style="fill:#1f77b4;"/>
   </g>
   <g id="patch_147">
    <path clip-path="url(#pa666673ec4)" d="M 681.3 768.96 
L 683.1 768.96 
L 683.1 584.336995 
L 681.3 584.336995 
z
" style="fill:#1f77b4;"/>
   </g>
   <g id="patch_148">
    <path clip-path="url(#pa666673ec4)" d="M 684.9 768.96 
L 686.7 768.96 
L 686.7 583.416328 
L 684.9 583.416328 
z
" style="fill:#1f77b4;"/>
   </g>
   <g id="patch_149">
    <path clip-path="url(#pa666673ec4)" d="M 688.5 768.96 
L 690.3 768.96 
L 690.3 573.463794 
L 688.5 573.463794 
z
" style="fill:#1f77b4;"/>
   </g>
   <g id="patch_150">
    <path clip-path="url(#pa666673ec4)" d="M 692.1 768.96 
L 693.9 768.96 
L 693.9 586.306525 
L 692.1 586.306525 
z
" style="fill:#1f77b4;"/>
   </g>
   <g id="patch_151">
    <path clip-path="url(#pa666673ec4)" d="M 695.7 768.96 
L 697.5 768.96 
L 697.5 644.034719 
L 695.7 644.034719 
z
" style="fill:#1f77b4;"/>
   </g>
   <g id="patch_152">
    <path clip-path="url(#pa666673ec4)" d="M 699.3 768.96 
L 701.1 768.96 
L 701.1 698.878543 
L 699.3 698.878543 
z
" style="fill:#1f77b4;"/>
   </g>
   <g id="patch_153">
    <path clip-path="url(#pa666673ec4)" d="M 702.9 768.96 
L 704.7 768.96 
L 704.7 718.055235 
L 702.9 718.055235 
z
" style="fill:#1f77b4;"/>
   </g>
   <g id="patch_154">
    <path clip-path="url(#pa666673ec4)" d="M 706.5 768.96 
L 708.3 768.96 
L 708.3 658.899423 
L 706.5 658.899423 
z
" style="fill:#1f77b4;"/>
   </g>
   <g id="patch_155">
    <path clip-path="url(#pa666673ec4)" d="M 710.1 768.96 
L 711.9 768.96 
L 711.9 652.600425 
L 710.1 652.600425 
z
" style="fill:#1f77b4;"/>
   </g>
   <g id="patch_156">
    <path clip-path="url(#pa666673ec4)" d="M 713.7 768.96 
L 715.5 768.96 
L 715.5 580.68346 
L 713.7 580.68346 
z
" style="fill:#1f77b4;"/>
   </g>
   <g id="patch_157">
    <path clip-path="url(#pa666673ec4)" d="M 717.3 768.96 
L 719.1 768.96 
L 719.1 556.186707 
L 717.3 556.186707 
z
" style="fill:#1f77b4;"/>
   </g>
   <g id="patch_158">
    <path clip-path="url(#pa666673ec4)" d="M 720.9 768.96 
L 722.7 768.96 
L 722.7 580.0017 
L 720.9 580.0017 
z
" style="fill:#1f77b4;"/>
   </g>
   <g id="patch_159">
    <path clip-path="url(#pa666673ec4)" d="M 724.5 768.96 
L 726.3 768.96 
L 726.3 634.303612 
L 724.5 634.303612 
z
" style="fill:#1f77b4;"/>
   </g>
   <g id="patch_160">
    <path clip-path="url(#pa666673ec4)" d="M 728.1 768.96 
L 729.9 768.96 
L 729.9 581.854689 
L 728.1 581.854689 
z
" style="fill:#1f77b4;"/>
   </g>
   <g id="patch_161">
    <path clip-path="url(#pa666673ec4)" d="M 731.7 768.96 
L 733.5 768.96 
L 733.5 567.75915 
L 731.7 567.75915 
z
" style="fill:#1f77b4;"/>
   </g>
   <g id="patch_162">
    <path clip-path="url(#pa666673ec4)" d="M 735.3 768.96 
L 737.1 768.96 
L 737.1 534.673384 
L 735.3 534.673384 
z
" style="fill:#1f77b4;"/>
   </g>
   <g id="patch_163">
    <path clip-path="url(#pa666673ec4)" d="M 738.9 768.96 
L 740.7 768.96 
L 740.7 606.706889 
L 738.9 606.706889 
z
" style="fill:#1f77b4;"/>
   </g>
   <g id="patch_164">
    <path clip-path="url(#pa666673ec4)" d="M 742.5 768.96 
L 744.3 768.96 
L 744.3 615.208498 
L 742.5 615.208498 
z
" style="fill:#1f77b4;"/>
   </g>
   <g id="patch_165">
    <path clip-path="url(#pa666673ec4)" d="M 746.1 768.96 
L 747.9 768.96 
L 747.9 676.654325 
L 746.1 676.654325 
z
" style="fill:#1f77b4;"/>
   </g>
   <g id="patch_166">
    <path clip-path="url(#pa666673ec4)" d="M 749.7 768.96 
L 751.5 768.96 
L 751.5 675.547193 
L 749.7 675.547193 
z
" style="fill:#1f77b4;"/>
   </g>
   <g id="patch_167">
    <path clip-path="url(#pa666673ec4)" d="M 753.3 768.96 
L 755.1 768.96 
L 755.1 484.438725 
L 753.3 484.438725 
z
" style="fill:#1f77b4;"/>
   </g>
   <g id="patch_168">
    <path clip-path="url(#pa666673ec4)" d="M 756.9 768.96 
L 758.7 768.96 
L 758.7 557.917329 
L 756.9 557.917329 
z
" style="fill:#1f77b4;"/>
   </g>
   <g id="patch_169">
    <path clip-path="url(#pa666673ec4)" d="M 760.5 768.96 
L 762.3 768.96 
L 762.3 624.275326 
L 760.5 624.275326 
z
" style="fill:#1f77b4;"/>
   </g>
   <g id="patch_170">
    <path clip-path="url(#pa666673ec4)" d="M 764.1 768.96 
L 765.9 768.96 
L 765.9 579.203399 
L 764.1 579.203399 
z
" style="fill:#1f77b4;"/>
   </g>
   <g id="patch_171">
    <path clip-path="url(#pa666673ec4)" d="M 767.7 768.96 
L 769.5 768.96 
L 769.5 677.301123 
L 767.7 677.301123 
z
" style="fill:#1f77b4;"/>
   </g>
   <g id="patch_172">
    <path clip-path="url(#pa666673ec4)" d="M 771.3 768.96 
L 773.1 768.96 
L 773.1 627.235448 
L 771.3 627.235448 
z
" style="fill:#1f77b4;"/>
   </g>
   <g id="patch_173">
    <path clip-path="url(#pa666673ec4)" d="M 774.9 768.96 
L 776.7 768.96 
L 776.7 708.370744 
L 774.9 708.370744 
z
" style="fill:#1f77b4;"/>
   </g>
   <g id="patch_174">
    <path clip-path="url(#pa666673ec4)" d="M 778.5 768.96 
L 780.3 768.96 
L 780.3 694.910349 
L 778.5 694.910349 
z
" style="fill:#1f77b4;"/>
   </g>
   <g id="patch_175">
    <path clip-path="url(#pa666673ec4)" d="M 782.1 768.96 
L 783.9 768.96 
L 783.9 678.303369 
L 782.1 678.303369 
z
" style="fill:#1f77b4;"/>
   </g>
   <g id="patch_176">
    <path clip-path="url(#pa666673ec4)" d="M 785.7 768.96 
L 787.5 768.96 
L 787.5 658.986829 
L 785.7 658.986829 
z
" style="fill:#1f77b4;"/>
   </g>
   <g id="patch_177">
    <path clip-path="url(#pa666673ec4)" d="M 789.3 768.96 
L 791.1 768.96 
L 791.1 635.702094 
L 789.3 635.702094 
z
" style="fill:#1f77b4;"/>
   </g>
   <g id="patch_178">
    <path clip-path="url(#pa666673ec4)" d="M 792.9 768.96 
L 794.7 768.96 
L 794.7 472.790531 
L 792.9 472.790531 
z
" style="fill:#1f77b4;"/>
   </g>
   <g id="patch_179">
    <path clip-path="url(#pa666673ec4)" d="M 796.5 768.96 
L 798.3 768.96 
L 798.3 427.165038 
L 796.5 427.165038 
z
" style="fill:#1f77b4;"/>
   </g>
   <g id="patch_180">
    <path clip-path="url(#pa666673ec4)" d="M 800.1 768.96 
L 801.9 768.96 
L 801.9 738.368194 
L 800.1 738.368194 
z
" style="fill:#1f77b4;"/>
   </g>
   <g id="patch_181">
    <path clip-path="url(#pa666673ec4)" d="M 803.7 768.96 
L 805.5 768.96 
L 805.5 692.713566 
L 803.7 692.713566 
z
" style="fill:#1f77b4;"/>
   </g>
   <g id="patch_182">
    <path clip-path="url(#pa666673ec4)" d="M 807.3 768.96 
L 809.1 768.96 
L 809.1 674.859605 
L 807.3 674.859605 
z
" style="fill:#1f77b4;"/>
   </g>
   <g id="patch_183">
    <path clip-path="url(#pa666673ec4)" d="M 810.9 768.96 
L 812.7 768.96 
L 812.7 678.501487 
L 810.9 678.501487 
z
" style="fill:#1f77b4;"/>
   </g>
   <g id="patch_184">
    <path clip-path="url(#pa666673ec4)" d="M 814.5 768.96 
L 816.3 768.96 
L 816.3 687.597451 
L 814.5 687.597451 
z
" style="fill:#1f77b4;"/>
   </g>
   <g id="patch_185">
    <path clip-path="url(#pa666673ec4)" d="M 818.1 768.96 
L 819.9 768.96 
L 819.9 687.603278 
L 818.1 687.603278 
z
" style="fill:#1f77b4;"/>
   </g>
   <g id="patch_186">
    <path clip-path="url(#pa666673ec4)" d="M 821.7 768.96 
L 823.5 768.96 
L 823.5 708.35909 
L 821.7 708.35909 
z
" style="fill:#1f77b4;"/>
   </g>
   <g id="patch_187">
    <path clip-path="url(#pa666673ec4)" d="M 825.3 768.96 
L 827.1 768.96 
L 827.1 739.894871 
L 825.3 739.894871 
z
" style="fill:#1f77b4;"/>
   </g>
   <g id="patch_188">
    <path clip-path="url(#pa666673ec4)" d="M 828.9 768.96 
L 830.7 768.96 
L 830.7 764.012868 
L 828.9 764.012868 
z
" style="fill:#1f77b4;"/>
   </g>
   <g id="patch_189">
    <path clip-path="url(#pa666673ec4)" d="M 832.5 768.96 
L 834.3 768.96 
L 834.3 721.638847 
L 832.5 721.638847 
z
" style="fill:#1f77b4;"/>
   </g>
   <g id="patch_190">
    <path clip-path="url(#pa666673ec4)" d="M 836.1 768.96 
L 837.9 768.96 
L 837.9 685.534689 
L 836.1 685.534689 
z
" style="fill:#1f77b4;"/>
   </g>
   <g id="patch_191">
    <path clip-path="url(#pa666673ec4)" d="M 839.7 768.96 
L 841.5 768.96 
L 841.5 685.336571 
L 839.7 685.336571 
z
" style="fill:#1f77b4;"/>
   </g>
   <g id="patch_192">
    <path clip-path="url(#pa666673ec4)" d="M 843.3 768.96 
L 845.1 768.96 
L 845.1 695.469742 
L 843.3 695.469742 
z
" style="fill:#1f77b4;"/>
   </g>
   <g id="patch_193">
    <path clip-path="url(#pa666673ec4)" d="M 846.9 768.96 
L 848.7 768.96 
L 848.7 707.106282 
L 846.9 707.106282 
z
" style="fill:#1f77b4;"/>
   </g>
   <g id="patch_194">
    <path clip-path="url(#pa666673ec4)" d="M 850.5 768.96 
L 852.3 768.96 
L 852.3 726.819059 
L 850.5 726.819059 
z
" style="fill:#1f77b4;"/>
   </g>
   <g id="patch_195">
    <path clip-path="url(#pa666673ec4)" d="M 854.1 768.96 
L 855.9 768.96 
L 855.9 690.155508 
L 854.1 690.155508 
z
" style="fill:#1f77b4;"/>
   </g>
   <g id="patch_196">
    <path clip-path="url(#pa666673ec4)" d="M 857.7 768.96 
L 859.5 768.96 
L 859.5 703.586768 
L 857.7 703.586768 
z
" style="fill:#1f77b4;"/>
   </g>
   <g id="patch_197">
    <path clip-path="url(#pa666673ec4)" d="M 861.3 768.96 
L 863.1 768.96 
L 863.1 706.785797 
L 861.3 706.785797 
z
" style="fill:#1f77b4;"/>
   </g>
   <g id="patch_198">
    <path clip-path="url(#pa666673ec4)" d="M 864.9 768.96 
L 866.7 768.96 
L 866.7 707.112109 
L 864.9 707.112109 
z
" style="fill:#1f77b4;"/>
   </g>
   <g id="patch_199">
    <path clip-path="url(#pa666673ec4)" d="M 868.5 768.96 
L 870.3 768.96 
L 870.3 706.523581 
L 868.5 706.523581 
z
" style="fill:#1f77b4;"/>
   </g>
   <g id="patch_200">
    <path clip-path="url(#pa666673ec4)" d="M 872.1 768.96 
L 873.9 768.96 
L 873.9 716.907314 
L 872.1 716.907314 
z
" style="fill:#1f77b4;"/>
   </g>
   <g id="patch_201">
    <path clip-path="url(#pa666673ec4)" d="M 875.7 768.96 
L 877.5 768.96 
L 877.5 733.6017 
L 875.7 733.6017 
z
" style="fill:#1f77b4;"/>
   </g>
   <g id="patch_202">
    <path clip-path="url(#pa666673ec4)" d="M 879.3 768.96 
L 881.1 768.96 
L 881.1 716.301305 
L 879.3 716.301305 
z
" style="fill:#1f77b4;"/>
   </g>
   <g id="patch_203">
    <path clip-path="url(#pa666673ec4)" d="M 882.9 768.96 
L 884.7 768.96 
L 884.7 698.493961 
L 882.9 698.493961 
z
" style="fill:#1f77b4;"/>
   </g>
   <g id="patch_204">
    <path clip-path="url(#pa666673ec4)" d="M 886.5 768.96 
L 888.3 768.96 
L 888.3 703.208012 
L 886.5 703.208012 
z
" style="fill:#1f77b4;"/>
   </g>
   <g id="patch_205">
    <path clip-path="url(#pa666673ec4)" d="M 890.1 768.96 
L 891.9 768.96 
L 891.9 721.143551 
L 890.1 721.143551 
z
" style="fill:#1f77b4;"/>
   </g>
   <g id="patch_206">
    <path clip-path="url(#pa666673ec4)" d="M 893.7 768.96 
L 895.5 768.96 
L 895.5 720.147132 
L 893.7 720.147132 
z
" style="fill:#1f77b4;"/>
   </g>
   <g id="patch_207">
    <path clip-path="url(#pa666673ec4)" d="M 897.3 768.96 
L 899.1 768.96 
L 899.1 738.723642 
L 897.3 738.723642 
z
" style="fill:#1f77b4;"/>
   </g>
   <g id="patch_208">
    <path clip-path="url(#pa666673ec4)" d="M 900.9 768.96 
L 902.7 768.96 
L 902.7 751.420698 
L 900.9 751.420698 
z
" style="fill:#1f77b4;"/>
   </g>
   <g id="patch_209">
    <path clip-path="url(#pa666673ec4)" d="M 904.5 768.96 
L 906.3 768.96 
L 906.3 739.556904 
L 904.5 739.556904 
z
" style="fill:#1f77b4;"/>
   </g>
   <g id="patch_210">
    <path clip-path="url(#pa666673ec4)" d="M 908.1 768.96 
L 909.9 768.96 
L 909.9 702.182458 
L 908.1 702.182458 
z
" style="fill:#1f77b4;"/>
   </g>
   <g id="patch_211">
    <path clip-path="url(#pa666673ec4)" d="M 911.7 768.96 
L 913.5 768.96 
L 913.5 656.906586 
L 911.7 656.906586 
z
" style="fill:#1f77b4;"/>
   </g>
   <g id="patch_212">
    <path clip-path="url(#pa666673ec4)" d="M 915.3 768.96 
L 917.1 768.96 
L 917.1 710.643278 
L 915.3 710.643278 
z
" style="fill:#1f77b4;"/>
   </g>
   <g id="patch_213">
    <path clip-path="url(#pa666673ec4)" d="M 918.9 768.96 
L 920.7 768.96 
L 920.7 642.443945 
L 918.9 642.443945 
z
" style="fill:#1f77b4;"/>
   </g>
   <g id="patch_214">
    <path clip-path="url(#pa666673ec4)" d="M 922.5 768.96 
L 924.3 768.96 
L 924.3 722.973232 
L 922.5 722.973232 
z
" style="fill:#1f77b4;"/>
   </g>
   <g id="patch_215">
    <path clip-path="url(#pa666673ec4)" d="M 926.1 768.96 
L 927.9 768.96 
L 927.9 734.609772 
L 926.1 734.609772 
z
" style="fill:#1f77b4;"/>
   </g>
   <g id="patch_216">
    <path clip-path="url(#pa666673ec4)" d="M 929.7 768.96 
L 931.5 768.96 
L 931.5 722.087527 
L 929.7 722.087527 
z
" style="fill:#1f77b4;"/>
   </g>
   <g id="patch_217">
    <path clip-path="url(#pa666673ec4)" d="M 933.3 768.96 
L 935.1 768.96 
L 935.1 705.521335 
L 933.3 705.521335 
z
" style="fill:#1f77b4;"/>
   </g>
   <g id="patch_218">
    <path clip-path="url(#pa666673ec4)" d="M 936.9 768.96 
L 938.7 768.96 
L 938.7 710.480121 
L 936.9 710.480121 
z
" style="fill:#1f77b4;"/>
   </g>
   <g id="patch_219">
    <path clip-path="url(#pa666673ec4)" d="M 940.5 768.96 
L 942.3 768.96 
L 942.3 708.539727 
L 940.5 708.539727 
z
" style="fill:#1f77b4;"/>
   </g>
   <g id="patch_220">
    <path clip-path="url(#pa666673ec4)" d="M 944.1 768.96 
L 945.9 768.96 
L 945.9 704.746343 
L 944.1 704.746343 
z
" style="fill:#1f77b4;"/>
   </g>
   <g id="patch_221">
    <path clip-path="url(#pa666673ec4)" d="M 947.7 768.96 
L 949.5 768.96 
L 949.5 666.52698 
L 947.7 666.52698 
z
" style="fill:#1f77b4;"/>
   </g>
   <g id="patch_222">
    <path clip-path="url(#pa666673ec4)" d="M 951.3 768.96 
L 953.1 768.96 
L 953.1 729.266404 
L 951.3 729.266404 
z
" style="fill:#1f77b4;"/>
   </g>
   <g id="patch_223">
    <path clip-path="url(#pa666673ec4)" d="M 954.9 768.96 
L 956.7 768.96 
L 956.7 723.56176 
L 954.9 723.56176 
z
" style="fill:#1f77b4;"/>
   </g>
   <g id="patch_224">
    <path clip-path="url(#pa666673ec4)" d="M 958.5 768.96 
L 960.3 768.96 
L 960.3 725.758543 
L 958.5 725.758543 
z
" style="fill:#1f77b4;"/>
   </g>
   <g id="patch_225">
    <path clip-path="url(#pa666673ec4)" d="M 962.1 768.96 
L 963.9 768.96 
L 963.9 613.973171 
L 962.1 613.973171 
z
" style="fill:#1f77b4;"/>
   </g>
   <g id="patch_226">
    <path clip-path="url(#pa666673ec4)" d="M 965.7 768.96 
L 967.5 768.96 
L 967.5 632.18258 
L 965.7 632.18258 
z
" style="fill:#1f77b4;"/>
   </g>
   <g id="patch_227">
    <path clip-path="url(#pa666673ec4)" d="M 969.3 768.96 
L 971.1 768.96 
L 971.1 645.427375 
L 969.3 645.427375 
z
" style="fill:#1f77b4;"/>
   </g>
   <g id="patch_228">
    <path clip-path="url(#pa666673ec4)" d="M 972.9 768.96 
L 974.7 768.96 
L 974.7 608.134507 
L 972.9 608.134507 
z
" style="fill:#1f77b4;"/>
   </g>
   <g id="patch_229">
    <path clip-path="url(#pa666673ec4)" d="M 976.5 768.96 
L 978.3 768.96 
L 978.3 658.619727 
L 976.5 658.619727 
z
" style="fill:#1f77b4;"/>
   </g>
   <g id="patch_230">
    <path clip-path="url(#pa666673ec4)" d="M 980.1 768.96 
L 981.9 768.96 
L 981.9 715.08346 
L 980.1 715.08346 
z
" style="fill:#1f77b4;"/>
   </g>
   <g id="patch_231">
    <path clip-path="url(#pa666673ec4)" d="M 983.7 768.96 
L 985.5 768.96 
L 985.5 692.649469 
L 983.7 692.649469 
z
" style="fill:#1f77b4;"/>
   </g>
   <g id="patch_232">
    <path clip-path="url(#pa666673ec4)" d="M 987.3 768.96 
L 989.1 768.96 
L 989.1 697.200364 
L 987.3 697.200364 
z
" style="fill:#1f77b4;"/>
   </g>
   <g id="patch_233">
    <path clip-path="url(#pa666673ec4)" d="M 990.9 768.96 
L 992.7 768.96 
L 992.7 700.673263 
L 990.9 700.673263 
z
" style="fill:#1f77b4;"/>
   </g>
   <g id="patch_234">
    <path clip-path="url(#pa666673ec4)" d="M 994.5 768.96 
L 996.3 768.96 
L 996.3 702.805948 
L 994.5 702.805948 
z
" style="fill:#1f77b4;"/>
   </g>
   <g id="patch_235">
    <path clip-path="url(#pa666673ec4)" d="M 998.1 768.96 
L 999.9 768.96 
L 999.9 701.564795 
L 998.1 701.564795 
z
" style="fill:#1f77b4;"/>
   </g>
   <g id="patch_236">
    <path clip-path="url(#pa666673ec4)" d="M 1001.7 768.96 
L 1003.5 768.96 
L 1003.5 724.156115 
L 1001.7 724.156115 
z
" style="fill:#1f77b4;"/>
   </g>
   <g id="patch_237">
    <path clip-path="url(#pa666673ec4)" d="M 1005.3 768.96 
L 1007.1 768.96 
L 1007.1 714.040425 
L 1005.3 714.040425 
z
" style="fill:#1f77b4;"/>
   </g>
   <g id="patch_238">
    <path clip-path="url(#pa666673ec4)" d="M 1008.9 768.96 
L 1010.7 768.96 
L 1010.7 693.086495 
L 1008.9 693.086495 
z
" style="fill:#1f77b4;"/>
   </g>
   <g id="patch_239">
    <path clip-path="url(#pa666673ec4)" d="M 1012.5 768.96 
L 1014.3 768.96 
L 1014.3 696.425372 
L 1012.5 696.425372 
z
" style="fill:#1f77b4;"/>
   </g>
   <g id="patch_240">
    <path clip-path="url(#pa666673ec4)" d="M 1016.1 768.96 
L 1017.9 768.96 
L 1017.9 692.480486 
L 1016.1 692.480486 
z
" style="fill:#1f77b4;"/>
   </g>
   <g id="patch_241">
    <path clip-path="url(#pa666673ec4)" d="M 1019.7 768.96 
L 1021.5 768.96 
L 1021.5 682.137542 
L 1019.7 682.137542 
z
" style="fill:#1f77b4;"/>
   </g>
   <g id="patch_242">
    <path clip-path="url(#pa666673ec4)" d="M 1023.3 768.96 
L 1025.1 768.96 
L 1025.1 643.626829 
L 1023.3 643.626829 
z
" style="fill:#1f77b4;"/>
   </g>
   <g id="patch_243">
    <path clip-path="url(#pa666673ec4)" d="M 1026.9 768.96 
L 1028.7 768.96 
L 1028.7 564.822337 
L 1026.9 564.822337 
z
" style="fill:#1f77b4;"/>
   </g>
   <g id="patch_244">
    <path clip-path="url(#pa666673ec4)" d="M 1030.5 768.96 
L 1032.3 768.96 
L 1032.3 673.985554 
L 1030.5 673.985554 
z
" style="fill:#1f77b4;"/>
   </g>
   <g id="patch_245">
    <path clip-path="url(#pa666673ec4)" d="M 1034.1 768.96 
L 1035.9 768.96 
L 1035.9 693.709985 
L 1034.1 693.709985 
z
" style="fill:#1f77b4;"/>
   </g>
   <g id="patch_246">
    <path clip-path="url(#pa666673ec4)" d="M 1037.7 768.96 
L 1039.5 768.96 
L 1039.5 698.738695 
L 1037.7 698.738695 
z
" style="fill:#1f77b4;"/>
   </g>
   <g id="patch_247">
    <path clip-path="url(#pa666673ec4)" d="M 1041.3 768.96 
L 1043.1 768.96 
L 1043.1 704.431684 
L 1041.3 704.431684 
z
" style="fill:#1f77b4;"/>
   </g>
   <g id="patch_248">
    <path clip-path="url(#pa666673ec4)" d="M 1044.9 768.96 
L 1046.7 768.96 
L 1046.7 703.697481 
L 1044.9 703.697481 
z
" style="fill:#1f77b4;"/>
   </g>
   <g id="patch_249">
    <path clip-path="url(#pa666673ec4)" d="M 1048.5 768.96 
L 1050.3 768.96 
L 1050.3 708.021123 
L 1048.5 708.021123 
z
" style="fill:#1f77b4;"/>
   </g>
   <g id="patch_250">
    <path clip-path="url(#pa666673ec4)" d="M 1052.1 768.96 
L 1053.9 768.96 
L 1053.9 727.197815 
L 1052.1 727.197815 
z
" style="fill:#1f77b4;"/>
   </g>
   <g id="patch_251">
    <path clip-path="url(#pa666673ec4)" d="M 1055.7 768.96 
L 1057.5 768.96 
L 1057.5 739.54525 
L 1055.7 739.54525 
z
" style="fill:#1f77b4;"/>
   </g>
   <g id="patch_252">
    <path clip-path="url(#pa666673ec4)" d="M 1059.3 768.96 
L 1061.1 768.96 
L 1061.1 732.832534 
L 1059.3 732.832534 
z
" style="fill:#1f77b4;"/>
   </g>
   <g id="patch_253">
    <path clip-path="url(#pa666673ec4)" d="M 1062.9 768.96 
L 1064.7 768.96 
L 1064.7 695.749439 
L 1062.9 695.749439 
z
" style="fill:#1f77b4;"/>
   </g>
   <g id="patch_254">
    <path clip-path="url(#pa666673ec4)" d="M 1066.5 768.96 
L 1068.3 768.96 
L 1068.3 704.6939 
L 1066.5 704.6939 
z
" style="fill:#1f77b4;"/>
   </g>
   <g id="patch_255">
    <path clip-path="url(#pa666673ec4)" d="M 1070.1 768.96 
L 1071.9 768.96 
L 1071.9 707.642367 
L 1070.1 707.642367 
z
" style="fill:#1f77b4;"/>
   </g>
   <g id="patch_256">
    <path clip-path="url(#pa666673ec4)" d="M 1073.7 768.96 
L 1075.5 768.96 
L 1075.5 712.66525 
L 1073.7 712.66525 
z
" style="fill:#1f77b4;"/>
   </g>
   <g id="patch_257">
    <path clip-path="url(#pa666673ec4)" d="M 1077.3 768.96 
L 1079.1 768.96 
L 1079.1 727.133718 
L 1077.3 727.133718 
z
" style="fill:#1f77b4;"/>
   </g>
   <g id="patch_258">
    <path clip-path="url(#pa666673ec4)" d="M 1080.9 768.96 
L 1082.7 768.96 
L 1082.7 722.174932 
L 1080.9 722.174932 
z
" style="fill:#1f77b4;"/>
   </g>
   <g id="patch_259">
    <path clip-path="url(#pa666673ec4)" d="M 1084.5 768.96 
L 1086.3 768.96 
L 1086.3 706.15648 
L 1084.5 706.15648 
z
" style="fill:#1f77b4;"/>
   </g>
   <g id="patch_260">
    <path clip-path="url(#pa666673ec4)" d="M 1088.1 768.96 
L 1089.9 768.96 
L 1089.9 709.413778 
L 1088.1 709.413778 
z
" style="fill:#1f77b4;"/>
   </g>
   <g id="patch_261">
    <path clip-path="url(#pa666673ec4)" d="M 1091.7 768.96 
L 1093.5 768.96 
L 1093.5 708.889347 
L 1091.7 708.889347 
z
" style="fill:#1f77b4;"/>
   </g>
   <g id="patch_262">
    <path clip-path="url(#pa666673ec4)" d="M 1095.3 768.96 
L 1097.1 768.96 
L 1097.1 706.739181 
L 1095.3 706.739181 
z
" style="fill:#1f77b4;"/>
   </g>
   <g id="patch_263">
    <path clip-path="url(#pa666673ec4)" d="M 1098.9 768.96 
L 1100.7 768.96 
L 1100.7 707.764734 
L 1098.9 707.764734 
z
" style="fill:#1f77b4;"/>
   </g>
   <g id="patch_264">
    <path clip-path="url(#pa666673ec4)" d="M 1102.5 768.96 
L 1104.3 768.96 
L 1104.3 724.505736 
L 1102.5 724.505736 
z
" style="fill:#1f77b4;"/>
   </g>
   <g id="patch_265">
    <path clip-path="url(#pa666673ec4)" d="M 1106.1 768.96 
L 1107.9 768.96 
L 1107.9 727.757208 
L 1106.1 727.757208 
z
" style="fill:#1f77b4;"/>
   </g>
   <g id="patch_266">
    <path clip-path="url(#pa666673ec4)" d="M 1109.7 768.96 
L 1111.5 768.96 
L 1111.5 698.76783 
L 1109.7 698.76783 
z
" style="fill:#1f77b4;"/>
   </g>
   <g id="patch_267">
    <path clip-path="url(#pa666673ec4)" d="M 1113.3 768.96 
L 1115.1 768.96 
L 1115.1 718.2417 
L 1113.3 718.2417 
z
" style="fill:#1f77b4;"/>
   </g>
   <g id="patch_268">
    <path clip-path="url(#pa666673ec4)" d="M 1116.9 768.96 
L 1118.7 768.96 
L 1118.7 695.015235 
L 1116.9 695.015235 
z
" style="fill:#1f77b4;"/>
   </g>
   <g id="patch_269">
    <path clip-path="url(#pa666673ec4)" d="M 1120.5 768.96 
L 1122.3 768.96 
L 1122.3 698.324977 
L 1120.5 698.324977 
z
" style="fill:#1f77b4;"/>
   </g>
   <g id="patch_270">
    <path clip-path="url(#pa666673ec4)" d="M 1124.1 768.96 
L 1125.9 768.96 
L 1125.9 712.60698 
L 1124.1 712.60698 
z
" style="fill:#1f77b4;"/>
   </g>
   <g id="patch_271">
    <path clip-path="url(#pa666673ec4)" d="M 1127.7 768.96 
L 1129.5 768.96 
L 1129.5 732.028407 
L 1127.7 732.028407 
z
" style="fill:#1f77b4;"/>
   </g>
   <g id="patch_272">
    <path clip-path="url(#pa666673ec4)" d="M 1131.3 768.96 
L 1133.1 768.96 
L 1133.1 722.151624 
L 1131.3 722.151624 
z
" style="fill:#1f77b4;"/>
   </g>
   <g id="patch_273">
    <path clip-path="url(#pa666673ec4)" d="M 1134.9 768.96 
L 1136.7 768.96 
L 1136.7 713.684977 
L 1134.9 713.684977 
z
" style="fill:#1f77b4;"/>
   </g>
   <g id="patch_274">
    <path clip-path="url(#pa666673ec4)" d="M 1138.5 768.96 
L 1140.3 768.96 
L 1140.3 729.068285 
L 1138.5 729.068285 
z
" style="fill:#1f77b4;"/>
   </g>
   <g id="patch_275">
    <path clip-path="url(#pa666673ec4)" d="M 1142.1 768.96 
L 1143.9 768.96 
L 1143.9 741.2817 
L 1142.1 741.2817 
z
" style="fill:#1f77b4;"/>
   </g>
   <g id="patch_276">
    <path clip-path="url(#pa666673ec4)" d="M 1145.7 768.96 
L 1147.5 768.96 
L 1147.5 700.813111 
L 1145.7 700.813111 
z
" style="fill:#1f77b4;"/>
   </g>
   <g id="patch_277">
    <path clip-path="url(#pa666673ec4)" d="M 1149.3 768.96 
L 1151.1 768.96 
L 1151.1 681.543187 
L 1149.3 681.543187 
z
" style="fill:#1f77b4;"/>
   </g>
   <g id="patch_278">
    <path clip-path="url(#pa666673ec4)" d="M 1152.9 768.96 
L 1154.7 768.96 
L 1154.7 738.385675 
L 1152.9 738.385675 
z
" style="fill:#1f77b4;"/>
   </g>
   <g id="patch_279">
    <path clip-path="url(#pa666673ec4)" d="M 1156.5 768.96 
L 1158.3 768.96 
L 1158.3 712.793445 
L 1156.5 712.793445 
z
" style="fill:#1f77b4;"/>
   </g>
   <g id="patch_280">
    <path clip-path="url(#pa666673ec4)" d="M 1160.1 768.96 
L 1161.9 768.96 
L 1161.9 736.148103 
L 1160.1 736.148103 
z
" style="fill:#1f77b4;"/>
   </g>
   <g id="patch_281">
    <path clip-path="url(#pa666673ec4)" d="M 1163.7 768.96 
L 1165.5 768.96 
L 1165.5 701.821184 
L 1163.7 701.821184 
z
" style="fill:#1f77b4;"/>
   </g>
   <g id="matplotlib.axis_1">
    <g id="xtick_1">
     <g id="line2d_1">
      <defs>
       <path d="M 0 0 
L 0 3.5 
" id="m7f1ae34a84" style="stroke:#000000;stroke-width:0.8;"/>
      </defs>
      <g>
       <use style="stroke:#000000;stroke-width:0.8;" x="163.8" xlink:href="#m7f1ae34a84" y="768.96"/>
      </g>
     </g>
     <g id="text_1">
      <!-- January -->
      <g transform="translate(144.844531 783.558437)scale(0.1 -0.1)">
       <defs>
        <path d="M 628 4666 
L 1259 4666 
L 1259 325 
Q 1259 -519 939 -900 
Q 619 -1281 -91 -1281 
L -331 -1281 
L -331 -750 
L -134 -750 
Q 284 -750 456 -515 
Q 628 -281 628 325 
L 628 4666 
z
" id="DejaVuSans-4a" transform="scale(0.015625)"/>
        <path d="M 2194 1759 
Q 1497 1759 1228 1600 
Q 959 1441 959 1056 
Q 959 750 1161 570 
Q 1363 391 1709 391 
Q 2188 391 2477 730 
Q 2766 1069 2766 1631 
L 2766 1759 
L 2194 1759 
z
M 3341 1997 
L 3341 0 
L 2766 0 
L 2766 531 
Q 2569 213 2275 61 
Q 1981 -91 1556 -91 
Q 1019 -91 701 211 
Q 384 513 384 1019 
Q 384 1609 779 1909 
Q 1175 2209 1959 2209 
L 2766 2209 
L 2766 2266 
Q 2766 2663 2505 2880 
Q 2244 3097 1772 3097 
Q 1472 3097 1187 3025 
Q 903 2953 641 2809 
L 641 3341 
Q 956 3463 1253 3523 
Q 1550 3584 1831 3584 
Q 2591 3584 2966 3190 
Q 3341 2797 3341 1997 
z
" id="DejaVuSans-61" transform="scale(0.015625)"/>
        <path d="M 3513 2113 
L 3513 0 
L 2938 0 
L 2938 2094 
Q 2938 2591 2744 2837 
Q 2550 3084 2163 3084 
Q 1697 3084 1428 2787 
Q 1159 2491 1159 1978 
L 1159 0 
L 581 0 
L 581 3500 
L 1159 3500 
L 1159 2956 
Q 1366 3272 1645 3428 
Q 1925 3584 2291 3584 
Q 2894 3584 3203 3211 
Q 3513 2838 3513 2113 
z
" id="DejaVuSans-6e" transform="scale(0.015625)"/>
        <path d="M 544 1381 
L 544 3500 
L 1119 3500 
L 1119 1403 
Q 1119 906 1312 657 
Q 1506 409 1894 409 
Q 2359 409 2629 706 
Q 2900 1003 2900 1516 
L 2900 3500 
L 3475 3500 
L 3475 0 
L 2900 0 
L 2900 538 
Q 2691 219 2414 64 
Q 2138 -91 1772 -91 
Q 1169 -91 856 284 
Q 544 659 544 1381 
z
M 1991 3584 
L 1991 3584 
z
" id="DejaVuSans-75" transform="scale(0.015625)"/>
        <path d="M 2631 2963 
Q 2534 3019 2420 3045 
Q 2306 3072 2169 3072 
Q 1681 3072 1420 2755 
Q 1159 2438 1159 1844 
L 1159 0 
L 581 0 
L 581 3500 
L 1159 3500 
L 1159 2956 
Q 1341 3275 1631 3429 
Q 1922 3584 2338 3584 
Q 2397 3584 2469 3576 
Q 2541 3569 2628 3553 
L 2631 2963 
z
" id="DejaVuSans-72" transform="scale(0.015625)"/>
        <path d="M 2059 -325 
Q 1816 -950 1584 -1140 
Q 1353 -1331 966 -1331 
L 506 -1331 
L 506 -850 
L 844 -850 
Q 1081 -850 1212 -737 
Q 1344 -625 1503 -206 
L 1606 56 
L 191 3500 
L 800 3500 
L 1894 763 
L 2988 3500 
L 3597 3500 
L 2059 -325 
z
" id="DejaVuSans-79" transform="scale(0.015625)"/>
       </defs>
       <use xlink:href="#DejaVuSans-4a"/>
       <use x="29.492188" xlink:href="#DejaVuSans-61"/>
       <use x="90.771484" xlink:href="#DejaVuSans-6e"/>
       <use x="154.150391" xlink:href="#DejaVuSans-75"/>
       <use x="217.529297" xlink:href="#DejaVuSans-61"/>
       <use x="278.808594" xlink:href="#DejaVuSans-72"/>
       <use x="319.921875" xlink:href="#DejaVuSans-79"/>
      </g>
     </g>
    </g>
    <g id="xtick_2">
     <g id="line2d_2">
      <g>
       <use style="stroke:#000000;stroke-width:0.8;" x="275.4" xlink:href="#m7f1ae34a84" y="768.96"/>
      </g>
     </g>
     <g id="text_2">
      <!-- February -->
      <g transform="translate(253.245313 783.558437)scale(0.1 -0.1)">
       <defs>
        <path d="M 628 4666 
L 3309 4666 
L 3309 4134 
L 1259 4134 
L 1259 2759 
L 3109 2759 
L 3109 2228 
L 1259 2228 
L 1259 0 
L 628 0 
L 628 4666 
z
" id="DejaVuSans-46" transform="scale(0.015625)"/>
        <path d="M 3597 1894 
L 3597 1613 
L 953 1613 
Q 991 1019 1311 708 
Q 1631 397 2203 397 
Q 2534 397 2845 478 
Q 3156 559 3463 722 
L 3463 178 
Q 3153 47 2828 -22 
Q 2503 -91 2169 -91 
Q 1331 -91 842 396 
Q 353 884 353 1716 
Q 353 2575 817 3079 
Q 1281 3584 2069 3584 
Q 2775 3584 3186 3129 
Q 3597 2675 3597 1894 
z
M 3022 2063 
Q 3016 2534 2758 2815 
Q 2500 3097 2075 3097 
Q 1594 3097 1305 2825 
Q 1016 2553 972 2059 
L 3022 2063 
z
" id="DejaVuSans-65" transform="scale(0.015625)"/>
        <path d="M 3116 1747 
Q 3116 2381 2855 2742 
Q 2594 3103 2138 3103 
Q 1681 3103 1420 2742 
Q 1159 2381 1159 1747 
Q 1159 1113 1420 752 
Q 1681 391 2138 391 
Q 2594 391 2855 752 
Q 3116 1113 3116 1747 
z
M 1159 2969 
Q 1341 3281 1617 3432 
Q 1894 3584 2278 3584 
Q 2916 3584 3314 3078 
Q 3713 2572 3713 1747 
Q 3713 922 3314 415 
Q 2916 -91 2278 -91 
Q 1894 -91 1617 61 
Q 1341 213 1159 525 
L 1159 0 
L 581 0 
L 581 4863 
L 1159 4863 
L 1159 2969 
z
" id="DejaVuSans-62" transform="scale(0.015625)"/>
       </defs>
       <use xlink:href="#DejaVuSans-46"/>
       <use x="52.019531" xlink:href="#DejaVuSans-65"/>
       <use x="113.542969" xlink:href="#DejaVuSans-62"/>
       <use x="177.019531" xlink:href="#DejaVuSans-72"/>
       <use x="218.132812" xlink:href="#DejaVuSans-75"/>
       <use x="281.511719" xlink:href="#DejaVuSans-61"/>
       <use x="342.791016" xlink:href="#DejaVuSans-72"/>
       <use x="383.904297" xlink:href="#DejaVuSans-79"/>
      </g>
     </g>
    </g>
    <g id="xtick_3">
     <g id="line2d_3">
      <g>
       <use style="stroke:#000000;stroke-width:0.8;" x="376.2" xlink:href="#m7f1ae34a84" y="768.96"/>
      </g>
     </g>
     <g id="text_3">
      <!-- March -->
      <g transform="translate(360.960938 783.558437)scale(0.1 -0.1)">
       <defs>
        <path d="M 628 4666 
L 1569 4666 
L 2759 1491 
L 3956 4666 
L 4897 4666 
L 4897 0 
L 4281 0 
L 4281 4097 
L 3078 897 
L 2444 897 
L 1241 4097 
L 1241 0 
L 628 0 
L 628 4666 
z
" id="DejaVuSans-4d" transform="scale(0.015625)"/>
        <path d="M 3122 3366 
L 3122 2828 
Q 2878 2963 2633 3030 
Q 2388 3097 2138 3097 
Q 1578 3097 1268 2742 
Q 959 2388 959 1747 
Q 959 1106 1268 751 
Q 1578 397 2138 397 
Q 2388 397 2633 464 
Q 2878 531 3122 666 
L 3122 134 
Q 2881 22 2623 -34 
Q 2366 -91 2075 -91 
Q 1284 -91 818 406 
Q 353 903 353 1747 
Q 353 2603 823 3093 
Q 1294 3584 2113 3584 
Q 2378 3584 2631 3529 
Q 2884 3475 3122 3366 
z
" id="DejaVuSans-63" transform="scale(0.015625)"/>
        <path d="M 3513 2113 
L 3513 0 
L 2938 0 
L 2938 2094 
Q 2938 2591 2744 2837 
Q 2550 3084 2163 3084 
Q 1697 3084 1428 2787 
Q 1159 2491 1159 1978 
L 1159 0 
L 581 0 
L 581 4863 
L 1159 4863 
L 1159 2956 
Q 1366 3272 1645 3428 
Q 1925 3584 2291 3584 
Q 2894 3584 3203 3211 
Q 3513 2838 3513 2113 
z
" id="DejaVuSans-68" transform="scale(0.015625)"/>
       </defs>
       <use xlink:href="#DejaVuSans-4d"/>
       <use x="86.279297" xlink:href="#DejaVuSans-61"/>
       <use x="147.558594" xlink:href="#DejaVuSans-72"/>
       <use x="186.421875" xlink:href="#DejaVuSans-63"/>
       <use x="241.402344" xlink:href="#DejaVuSans-68"/>
      </g>
     </g>
    </g>
    <g id="xtick_4">
     <g id="line2d_4">
      <g>
       <use style="stroke:#000000;stroke-width:0.8;" x="487.8" xlink:href="#m7f1ae34a84" y="768.96"/>
      </g>
     </g>
     <g id="text_4">
      <!-- April -->
      <g transform="translate(476.371875 783.558437)scale(0.1 -0.1)">
       <defs>
        <path d="M 2188 4044 
L 1331 1722 
L 3047 1722 
L 2188 4044 
z
M 1831 4666 
L 2547 4666 
L 4325 0 
L 3669 0 
L 3244 1197 
L 1141 1197 
L 716 0 
L 50 0 
L 1831 4666 
z
" id="DejaVuSans-41" transform="scale(0.015625)"/>
        <path d="M 1159 525 
L 1159 -1331 
L 581 -1331 
L 581 3500 
L 1159 3500 
L 1159 2969 
Q 1341 3281 1617 3432 
Q 1894 3584 2278 3584 
Q 2916 3584 3314 3078 
Q 3713 2572 3713 1747 
Q 3713 922 3314 415 
Q 2916 -91 2278 -91 
Q 1894 -91 1617 61 
Q 1341 213 1159 525 
z
M 3116 1747 
Q 3116 2381 2855 2742 
Q 2594 3103 2138 3103 
Q 1681 3103 1420 2742 
Q 1159 2381 1159 1747 
Q 1159 1113 1420 752 
Q 1681 391 2138 391 
Q 2594 391 2855 752 
Q 3116 1113 3116 1747 
z
" id="DejaVuSans-70" transform="scale(0.015625)"/>
        <path d="M 603 3500 
L 1178 3500 
L 1178 0 
L 603 0 
L 603 3500 
z
M 603 4863 
L 1178 4863 
L 1178 4134 
L 603 4134 
L 603 4863 
z
" id="DejaVuSans-69" transform="scale(0.015625)"/>
        <path d="M 603 4863 
L 1178 4863 
L 1178 0 
L 603 0 
L 603 4863 
z
" id="DejaVuSans-6c" transform="scale(0.015625)"/>
       </defs>
       <use xlink:href="#DejaVuSans-41"/>
       <use x="68.408203" xlink:href="#DejaVuSans-70"/>
       <use x="131.884766" xlink:href="#DejaVuSans-72"/>
       <use x="172.998047" xlink:href="#DejaVuSans-69"/>
       <use x="200.78125" xlink:href="#DejaVuSans-6c"/>
      </g>
     </g>
    </g>
    <g id="xtick_5">
     <g id="line2d_5">
      <g>
       <use style="stroke:#000000;stroke-width:0.8;" x="595.8" xlink:href="#m7f1ae34a84" y="768.96"/>
      </g>
     </g>
     <g id="text_5">
      <!-- May -->
      <g transform="translate(585.4625 783.558437)scale(0.1 -0.1)">
       <use xlink:href="#DejaVuSans-4d"/>
       <use x="86.279297" xlink:href="#DejaVuSans-61"/>
       <use x="147.558594" xlink:href="#DejaVuSans-79"/>
      </g>
     </g>
    </g>
    <g id="xtick_6">
     <g id="line2d_6">
      <g>
       <use style="stroke:#000000;stroke-width:0.8;" x="707.4" xlink:href="#m7f1ae34a84" y="768.96"/>
      </g>
     </g>
     <g id="text_6">
      <!-- June -->
      <g transform="translate(696.510938 783.558437)scale(0.1 -0.1)">
       <use xlink:href="#DejaVuSans-4a"/>
       <use x="29.492188" xlink:href="#DejaVuSans-75"/>
       <use x="92.871094" xlink:href="#DejaVuSans-6e"/>
       <use x="156.25" xlink:href="#DejaVuSans-65"/>
      </g>
     </g>
    </g>
    <g id="xtick_7">
     <g id="line2d_7">
      <g>
       <use style="stroke:#000000;stroke-width:0.8;" x="815.4" xlink:href="#m7f1ae34a84" y="768.96"/>
      </g>
     </g>
     <g id="text_7">
      <!-- July -->
      <g transform="translate(806.407813 783.558437)scale(0.1 -0.1)">
       <use xlink:href="#DejaVuSans-4a"/>
       <use x="29.492188" xlink:href="#DejaVuSans-75"/>
       <use x="92.871094" xlink:href="#DejaVuSans-6c"/>
       <use x="120.654297" xlink:href="#DejaVuSans-79"/>
      </g>
     </g>
    </g>
    <g id="xtick_8">
     <g id="line2d_8">
      <g>
       <use style="stroke:#000000;stroke-width:0.8;" x="927" xlink:href="#m7f1ae34a84" y="768.96"/>
      </g>
     </g>
     <g id="text_8">
      <!-- August -->
      <g transform="translate(909.503125 783.558437)scale(0.1 -0.1)">
       <defs>
        <path d="M 2906 1791 
Q 2906 2416 2648 2759 
Q 2391 3103 1925 3103 
Q 1463 3103 1205 2759 
Q 947 2416 947 1791 
Q 947 1169 1205 825 
Q 1463 481 1925 481 
Q 2391 481 2648 825 
Q 2906 1169 2906 1791 
z
M 3481 434 
Q 3481 -459 3084 -895 
Q 2688 -1331 1869 -1331 
Q 1566 -1331 1297 -1286 
Q 1028 -1241 775 -1147 
L 775 -588 
Q 1028 -725 1275 -790 
Q 1522 -856 1778 -856 
Q 2344 -856 2625 -561 
Q 2906 -266 2906 331 
L 2906 616 
Q 2728 306 2450 153 
Q 2172 0 1784 0 
Q 1141 0 747 490 
Q 353 981 353 1791 
Q 353 2603 747 3093 
Q 1141 3584 1784 3584 
Q 2172 3584 2450 3431 
Q 2728 3278 2906 2969 
L 2906 3500 
L 3481 3500 
L 3481 434 
z
" id="DejaVuSans-67" transform="scale(0.015625)"/>
        <path d="M 2834 3397 
L 2834 2853 
Q 2591 2978 2328 3040 
Q 2066 3103 1784 3103 
Q 1356 3103 1142 2972 
Q 928 2841 928 2578 
Q 928 2378 1081 2264 
Q 1234 2150 1697 2047 
L 1894 2003 
Q 2506 1872 2764 1633 
Q 3022 1394 3022 966 
Q 3022 478 2636 193 
Q 2250 -91 1575 -91 
Q 1294 -91 989 -36 
Q 684 19 347 128 
L 347 722 
Q 666 556 975 473 
Q 1284 391 1588 391 
Q 1994 391 2212 530 
Q 2431 669 2431 922 
Q 2431 1156 2273 1281 
Q 2116 1406 1581 1522 
L 1381 1569 
Q 847 1681 609 1914 
Q 372 2147 372 2553 
Q 372 3047 722 3315 
Q 1072 3584 1716 3584 
Q 2034 3584 2315 3537 
Q 2597 3491 2834 3397 
z
" id="DejaVuSans-73" transform="scale(0.015625)"/>
        <path d="M 1172 4494 
L 1172 3500 
L 2356 3500 
L 2356 3053 
L 1172 3053 
L 1172 1153 
Q 1172 725 1289 603 
Q 1406 481 1766 481 
L 2356 481 
L 2356 0 
L 1766 0 
Q 1100 0 847 248 
Q 594 497 594 1153 
L 594 3053 
L 172 3053 
L 172 3500 
L 594 3500 
L 594 4494 
L 1172 4494 
z
" id="DejaVuSans-74" transform="scale(0.015625)"/>
       </defs>
       <use xlink:href="#DejaVuSans-41"/>
       <use x="68.408203" xlink:href="#DejaVuSans-75"/>
       <use x="131.787109" xlink:href="#DejaVuSans-67"/>
       <use x="195.263672" xlink:href="#DejaVuSans-75"/>
       <use x="258.642578" xlink:href="#DejaVuSans-73"/>
       <use x="310.742188" xlink:href="#DejaVuSans-74"/>
      </g>
     </g>
    </g>
    <g id="xtick_9">
     <g id="line2d_9">
      <g>
       <use style="stroke:#000000;stroke-width:0.8;" x="1038.6" xlink:href="#m7f1ae34a84" y="768.96"/>
      </g>
     </g>
     <g id="text_9">
      <!-- September -->
      <g transform="translate(1010.961719 783.558437)scale(0.1 -0.1)">
       <defs>
        <path d="M 3425 4513 
L 3425 3897 
Q 3066 4069 2747 4153 
Q 2428 4238 2131 4238 
Q 1616 4238 1336 4038 
Q 1056 3838 1056 3469 
Q 1056 3159 1242 3001 
Q 1428 2844 1947 2747 
L 2328 2669 
Q 3034 2534 3370 2195 
Q 3706 1856 3706 1288 
Q 3706 609 3251 259 
Q 2797 -91 1919 -91 
Q 1588 -91 1214 -16 
Q 841 59 441 206 
L 441 856 
Q 825 641 1194 531 
Q 1563 422 1919 422 
Q 2459 422 2753 634 
Q 3047 847 3047 1241 
Q 3047 1584 2836 1778 
Q 2625 1972 2144 2069 
L 1759 2144 
Q 1053 2284 737 2584 
Q 422 2884 422 3419 
Q 422 4038 858 4394 
Q 1294 4750 2059 4750 
Q 2388 4750 2728 4690 
Q 3069 4631 3425 4513 
z
" id="DejaVuSans-53" transform="scale(0.015625)"/>
        <path d="M 3328 2828 
Q 3544 3216 3844 3400 
Q 4144 3584 4550 3584 
Q 5097 3584 5394 3201 
Q 5691 2819 5691 2113 
L 5691 0 
L 5113 0 
L 5113 2094 
Q 5113 2597 4934 2840 
Q 4756 3084 4391 3084 
Q 3944 3084 3684 2787 
Q 3425 2491 3425 1978 
L 3425 0 
L 2847 0 
L 2847 2094 
Q 2847 2600 2669 2842 
Q 2491 3084 2119 3084 
Q 1678 3084 1418 2786 
Q 1159 2488 1159 1978 
L 1159 0 
L 581 0 
L 581 3500 
L 1159 3500 
L 1159 2956 
Q 1356 3278 1631 3431 
Q 1906 3584 2284 3584 
Q 2666 3584 2933 3390 
Q 3200 3197 3328 2828 
z
" id="DejaVuSans-6d" transform="scale(0.015625)"/>
       </defs>
       <use xlink:href="#DejaVuSans-53"/>
       <use x="63.476562" xlink:href="#DejaVuSans-65"/>
       <use x="125" xlink:href="#DejaVuSans-70"/>
       <use x="188.476562" xlink:href="#DejaVuSans-74"/>
       <use x="227.685547" xlink:href="#DejaVuSans-65"/>
       <use x="289.208984" xlink:href="#DejaVuSans-6d"/>
       <use x="386.621094" xlink:href="#DejaVuSans-62"/>
       <use x="450.097656" xlink:href="#DejaVuSans-65"/>
       <use x="511.621094" xlink:href="#DejaVuSans-72"/>
      </g>
     </g>
    </g>
    <g id="xtick_10">
     <g id="line2d_10">
      <g>
       <use style="stroke:#000000;stroke-width:0.8;" x="1146.6" xlink:href="#m7f1ae34a84" y="768.96"/>
      </g>
     </g>
     <g id="text_10">
      <!-- October -->
      <g transform="translate(1126.589063 783.558437)scale(0.1 -0.1)">
       <defs>
        <path d="M 2522 4238 
Q 1834 4238 1429 3725 
Q 1025 3213 1025 2328 
Q 1025 1447 1429 934 
Q 1834 422 2522 422 
Q 3209 422 3611 934 
Q 4013 1447 4013 2328 
Q 4013 3213 3611 3725 
Q 3209 4238 2522 4238 
z
M 2522 4750 
Q 3503 4750 4090 4092 
Q 4678 3434 4678 2328 
Q 4678 1225 4090 567 
Q 3503 -91 2522 -91 
Q 1538 -91 948 565 
Q 359 1222 359 2328 
Q 359 3434 948 4092 
Q 1538 4750 2522 4750 
z
" id="DejaVuSans-4f" transform="scale(0.015625)"/>
        <path d="M 1959 3097 
Q 1497 3097 1228 2736 
Q 959 2375 959 1747 
Q 959 1119 1226 758 
Q 1494 397 1959 397 
Q 2419 397 2687 759 
Q 2956 1122 2956 1747 
Q 2956 2369 2687 2733 
Q 2419 3097 1959 3097 
z
M 1959 3584 
Q 2709 3584 3137 3096 
Q 3566 2609 3566 1747 
Q 3566 888 3137 398 
Q 2709 -91 1959 -91 
Q 1206 -91 779 398 
Q 353 888 353 1747 
Q 353 2609 779 3096 
Q 1206 3584 1959 3584 
z
" id="DejaVuSans-6f" transform="scale(0.015625)"/>
       </defs>
       <use xlink:href="#DejaVuSans-4f"/>
       <use x="78.710938" xlink:href="#DejaVuSans-63"/>
       <use x="133.691406" xlink:href="#DejaVuSans-74"/>
       <use x="172.900391" xlink:href="#DejaVuSans-6f"/>
       <use x="234.082031" xlink:href="#DejaVuSans-62"/>
       <use x="297.558594" xlink:href="#DejaVuSans-65"/>
       <use x="359.082031" xlink:href="#DejaVuSans-72"/>
      </g>
     </g>
    </g>
   </g>
   <g id="matplotlib.axis_2">
    <g id="ytick_1">
     <g id="line2d_11">
      <defs>
       <path d="M 0 0 
L -3.5 0 
" id="m0adf008f99" style="stroke:#000000;stroke-width:0.8;"/>
      </defs>
      <g>
       <use style="stroke:#000000;stroke-width:0.8;" x="162" xlink:href="#m0adf008f99" y="768.96"/>
      </g>
     </g>
     <g id="text_11">
      <!-- 0 -->
      <g transform="translate(148.6375 772.759219)scale(0.1 -0.1)">
       <defs>
        <path d="M 2034 4250 
Q 1547 4250 1301 3770 
Q 1056 3291 1056 2328 
Q 1056 1369 1301 889 
Q 1547 409 2034 409 
Q 2525 409 2770 889 
Q 3016 1369 3016 2328 
Q 3016 3291 2770 3770 
Q 2525 4250 2034 4250 
z
M 2034 4750 
Q 2819 4750 3233 4129 
Q 3647 3509 3647 2328 
Q 3647 1150 3233 529 
Q 2819 -91 2034 -91 
Q 1250 -91 836 529 
Q 422 1150 422 2328 
Q 422 3509 836 4129 
Q 1250 4750 2034 4750 
z
" id="DejaVuSans-30" transform="scale(0.015625)"/>
       </defs>
       <use xlink:href="#DejaVuSans-30"/>
      </g>
     </g>
    </g>
    <g id="ytick_2">
     <g id="line2d_12">
      <g>
       <use style="stroke:#000000;stroke-width:0.8;" x="162" xlink:href="#m0adf008f99" y="652.419788"/>
      </g>
     </g>
     <g id="text_12">
      <!-- 20000 -->
      <g transform="translate(123.1875 656.219006)scale(0.1 -0.1)">
       <defs>
        <path d="M 1228 531 
L 3431 531 
L 3431 0 
L 469 0 
L 469 531 
Q 828 903 1448 1529 
Q 2069 2156 2228 2338 
Q 2531 2678 2651 2914 
Q 2772 3150 2772 3378 
Q 2772 3750 2511 3984 
Q 2250 4219 1831 4219 
Q 1534 4219 1204 4116 
Q 875 4013 500 3803 
L 500 4441 
Q 881 4594 1212 4672 
Q 1544 4750 1819 4750 
Q 2544 4750 2975 4387 
Q 3406 4025 3406 3419 
Q 3406 3131 3298 2873 
Q 3191 2616 2906 2266 
Q 2828 2175 2409 1742 
Q 1991 1309 1228 531 
z
" id="DejaVuSans-32" transform="scale(0.015625)"/>
       </defs>
       <use xlink:href="#DejaVuSans-32"/>
       <use x="63.623047" xlink:href="#DejaVuSans-30"/>
       <use x="127.246094" xlink:href="#DejaVuSans-30"/>
       <use x="190.869141" xlink:href="#DejaVuSans-30"/>
       <use x="254.492188" xlink:href="#DejaVuSans-30"/>
      </g>
     </g>
    </g>
    <g id="ytick_3">
     <g id="line2d_13">
      <g>
       <use style="stroke:#000000;stroke-width:0.8;" x="162" xlink:href="#m0adf008f99" y="535.879575"/>
      </g>
     </g>
     <g id="text_13">
      <!-- 40000 -->
      <g transform="translate(123.1875 539.678794)scale(0.1 -0.1)">
       <defs>
        <path d="M 2419 4116 
L 825 1625 
L 2419 1625 
L 2419 4116 
z
M 2253 4666 
L 3047 4666 
L 3047 1625 
L 3713 1625 
L 3713 1100 
L 3047 1100 
L 3047 0 
L 2419 0 
L 2419 1100 
L 313 1100 
L 313 1709 
L 2253 4666 
z
" id="DejaVuSans-34" transform="scale(0.015625)"/>
       </defs>
       <use xlink:href="#DejaVuSans-34"/>
       <use x="63.623047" xlink:href="#DejaVuSans-30"/>
       <use x="127.246094" xlink:href="#DejaVuSans-30"/>
       <use x="190.869141" xlink:href="#DejaVuSans-30"/>
       <use x="254.492188" xlink:href="#DejaVuSans-30"/>
      </g>
     </g>
    </g>
    <g id="ytick_4">
     <g id="line2d_14">
      <g>
       <use style="stroke:#000000;stroke-width:0.8;" x="162" xlink:href="#m0adf008f99" y="419.339363"/>
      </g>
     </g>
     <g id="text_14">
      <!-- 60000 -->
      <g transform="translate(123.1875 423.138581)scale(0.1 -0.1)">
       <defs>
        <path d="M 2113 2584 
Q 1688 2584 1439 2293 
Q 1191 2003 1191 1497 
Q 1191 994 1439 701 
Q 1688 409 2113 409 
Q 2538 409 2786 701 
Q 3034 994 3034 1497 
Q 3034 2003 2786 2293 
Q 2538 2584 2113 2584 
z
M 3366 4563 
L 3366 3988 
Q 3128 4100 2886 4159 
Q 2644 4219 2406 4219 
Q 1781 4219 1451 3797 
Q 1122 3375 1075 2522 
Q 1259 2794 1537 2939 
Q 1816 3084 2150 3084 
Q 2853 3084 3261 2657 
Q 3669 2231 3669 1497 
Q 3669 778 3244 343 
Q 2819 -91 2113 -91 
Q 1303 -91 875 529 
Q 447 1150 447 2328 
Q 447 3434 972 4092 
Q 1497 4750 2381 4750 
Q 2619 4750 2861 4703 
Q 3103 4656 3366 4563 
z
" id="DejaVuSans-36" transform="scale(0.015625)"/>
       </defs>
       <use xlink:href="#DejaVuSans-36"/>
       <use x="63.623047" xlink:href="#DejaVuSans-30"/>
       <use x="127.246094" xlink:href="#DejaVuSans-30"/>
       <use x="190.869141" xlink:href="#DejaVuSans-30"/>
       <use x="254.492188" xlink:href="#DejaVuSans-30"/>
      </g>
     </g>
    </g>
    <g id="ytick_5">
     <g id="line2d_15">
      <g>
       <use style="stroke:#000000;stroke-width:0.8;" x="162" xlink:href="#m0adf008f99" y="302.79915"/>
      </g>
     </g>
     <g id="text_15">
      <!-- 80000 -->
      <g transform="translate(123.1875 306.598369)scale(0.1 -0.1)">
       <defs>
        <path d="M 2034 2216 
Q 1584 2216 1326 1975 
Q 1069 1734 1069 1313 
Q 1069 891 1326 650 
Q 1584 409 2034 409 
Q 2484 409 2743 651 
Q 3003 894 3003 1313 
Q 3003 1734 2745 1975 
Q 2488 2216 2034 2216 
z
M 1403 2484 
Q 997 2584 770 2862 
Q 544 3141 544 3541 
Q 544 4100 942 4425 
Q 1341 4750 2034 4750 
Q 2731 4750 3128 4425 
Q 3525 4100 3525 3541 
Q 3525 3141 3298 2862 
Q 3072 2584 2669 2484 
Q 3125 2378 3379 2068 
Q 3634 1759 3634 1313 
Q 3634 634 3220 271 
Q 2806 -91 2034 -91 
Q 1263 -91 848 271 
Q 434 634 434 1313 
Q 434 1759 690 2068 
Q 947 2378 1403 2484 
z
M 1172 3481 
Q 1172 3119 1398 2916 
Q 1625 2713 2034 2713 
Q 2441 2713 2670 2916 
Q 2900 3119 2900 3481 
Q 2900 3844 2670 4047 
Q 2441 4250 2034 4250 
Q 1625 4250 1398 4047 
Q 1172 3844 1172 3481 
z
" id="DejaVuSans-38" transform="scale(0.015625)"/>
       </defs>
       <use xlink:href="#DejaVuSans-38"/>
       <use x="63.623047" xlink:href="#DejaVuSans-30"/>
       <use x="127.246094" xlink:href="#DejaVuSans-30"/>
       <use x="190.869141" xlink:href="#DejaVuSans-30"/>
       <use x="254.492188" xlink:href="#DejaVuSans-30"/>
      </g>
     </g>
    </g>
    <g id="ytick_6">
     <g id="line2d_16">
      <g>
       <use style="stroke:#000000;stroke-width:0.8;" x="162" xlink:href="#m0adf008f99" y="186.258938"/>
      </g>
     </g>
     <g id="text_16">
      <!-- 100000 -->
      <g transform="translate(116.825 190.058157)scale(0.1 -0.1)">
       <defs>
        <path d="M 794 531 
L 1825 531 
L 1825 4091 
L 703 3866 
L 703 4441 
L 1819 4666 
L 2450 4666 
L 2450 531 
L 3481 531 
L 3481 0 
L 794 0 
L 794 531 
z
" id="DejaVuSans-31" transform="scale(0.015625)"/>
       </defs>
       <use xlink:href="#DejaVuSans-31"/>
       <use x="63.623047" xlink:href="#DejaVuSans-30"/>
       <use x="127.246094" xlink:href="#DejaVuSans-30"/>
       <use x="190.869141" xlink:href="#DejaVuSans-30"/>
       <use x="254.492188" xlink:href="#DejaVuSans-30"/>
       <use x="318.115234" xlink:href="#DejaVuSans-30"/>
      </g>
     </g>
    </g>
    <g id="text_17">
     <!-- Persons fully vaccinated -->
     <g transform="translate(110.745312 496.922344)rotate(-90)scale(0.1 -0.1)">
      <defs>
       <path d="M 1259 4147 
L 1259 2394 
L 2053 2394 
Q 2494 2394 2734 2622 
Q 2975 2850 2975 3272 
Q 2975 3691 2734 3919 
Q 2494 4147 2053 4147 
L 1259 4147 
z
M 628 4666 
L 2053 4666 
Q 2838 4666 3239 4311 
Q 3641 3956 3641 3272 
Q 3641 2581 3239 2228 
Q 2838 1875 2053 1875 
L 1259 1875 
L 1259 0 
L 628 0 
L 628 4666 
z
" id="DejaVuSans-50" transform="scale(0.015625)"/>
       <path id="DejaVuSans-20" transform="scale(0.015625)"/>
       <path d="M 2375 4863 
L 2375 4384 
L 1825 4384 
Q 1516 4384 1395 4259 
Q 1275 4134 1275 3809 
L 1275 3500 
L 2222 3500 
L 2222 3053 
L 1275 3053 
L 1275 0 
L 697 0 
L 697 3053 
L 147 3053 
L 147 3500 
L 697 3500 
L 697 3744 
Q 697 4328 969 4595 
Q 1241 4863 1831 4863 
L 2375 4863 
z
" id="DejaVuSans-66" transform="scale(0.015625)"/>
       <path d="M 191 3500 
L 800 3500 
L 1894 563 
L 2988 3500 
L 3597 3500 
L 2284 0 
L 1503 0 
L 191 3500 
z
" id="DejaVuSans-76" transform="scale(0.015625)"/>
       <path d="M 2906 2969 
L 2906 4863 
L 3481 4863 
L 3481 0 
L 2906 0 
L 2906 525 
Q 2725 213 2448 61 
Q 2172 -91 1784 -91 
Q 1150 -91 751 415 
Q 353 922 353 1747 
Q 353 2572 751 3078 
Q 1150 3584 1784 3584 
Q 2172 3584 2448 3432 
Q 2725 3281 2906 2969 
z
M 947 1747 
Q 947 1113 1208 752 
Q 1469 391 1925 391 
Q 2381 391 2643 752 
Q 2906 1113 2906 1747 
Q 2906 2381 2643 2742 
Q 2381 3103 1925 3103 
Q 1469 3103 1208 2742 
Q 947 2381 947 1747 
z
" id="DejaVuSans-64" transform="scale(0.015625)"/>
      </defs>
      <use xlink:href="#DejaVuSans-50"/>
      <use x="56.677734" xlink:href="#DejaVuSans-65"/>
      <use x="118.201172" xlink:href="#DejaVuSans-72"/>
      <use x="159.314453" xlink:href="#DejaVuSans-73"/>
      <use x="211.414062" xlink:href="#DejaVuSans-6f"/>
      <use x="272.595703" xlink:href="#DejaVuSans-6e"/>
      <use x="335.974609" xlink:href="#DejaVuSans-73"/>
      <use x="388.074219" xlink:href="#DejaVuSans-20"/>
      <use x="419.861328" xlink:href="#DejaVuSans-66"/>
      <use x="455.066406" xlink:href="#DejaVuSans-75"/>
      <use x="518.445312" xlink:href="#DejaVuSans-6c"/>
      <use x="546.228516" xlink:href="#DejaVuSans-6c"/>
      <use x="574.011719" xlink:href="#DejaVuSans-79"/>
      <use x="633.191406" xlink:href="#DejaVuSans-20"/>
      <use x="664.978516" xlink:href="#DejaVuSans-76"/>
      <use x="724.158203" xlink:href="#DejaVuSans-61"/>
      <use x="785.4375" xlink:href="#DejaVuSans-63"/>
      <use x="840.417969" xlink:href="#DejaVuSans-63"/>
      <use x="895.398438" xlink:href="#DejaVuSans-69"/>
      <use x="923.181641" xlink:href="#DejaVuSans-6e"/>
      <use x="986.560547" xlink:href="#DejaVuSans-61"/>
      <use x="1047.839844" xlink:href="#DejaVuSans-74"/>
      <use x="1087.048828" xlink:href="#DejaVuSans-65"/>
      <use x="1148.572266" xlink:href="#DejaVuSans-64"/>
     </g>
    </g>
   </g>
   <g id="line2d_17">
    <path clip-path="url(#pa666673ec4)" d="M 225 743.728212 
L 228.6 743.488472 
L 232.2 744.730457 
L 235.8 741.204284 
L 239.4 740.300264 
L 243 738.172573 
L 246.6 733.729894 
L 250.2 725.687787 
L 253.8 717.085454 
L 257.4 710.694888 
L 261 703.970518 
L 264.6 699.400477 
L 268.2 698.359939 
L 271.8 698.424036 
L 275.4 695.915925 
L 279 701.053683 
L 282.6 700.863057 
L 286.2 701.424114 
L 289.8 698.19928 
L 293.4 698.573874 
L 297 694.42421 
L 300.6 695.158413 
L 304.2 689.317251 
L 307.8 679.474598 
L 311.4 670.349499 
L 315 667.357746 
L 318.6 663.761648 
L 322.2 667.861366 
L 325.8 668.773709 
L 329.4 663.976414 
L 333 660.13475 
L 336.6 654.274442 
L 340.2 663.000806 
L 343.8 650.33788 
L 347.4 641.947817 
L 351 632.094342 
L 354.6 609.775227 
L 358.2 593.119133 
L 361.8 580.638509 
L 365.4 550.568636 
L 369 553.695244 
L 372.6 544.305432 
L 376.2 534.204726 
L 379.8 540.01592 
L 383.4 528.687379 
L 387 514.466144 
L 390.6 508.888862 
L 394.2 512.842905 
L 397.8 503.027722 
L 401.4 491.639246 
L 405 481.011611 
L 408.6 484.470358 
L 412.2 477.806755 
L 415.8 479.014611 
L 419.4 452.899614 
L 423 453.223429 
L 426.6 459.202775 
L 430.2 473.932625 
L 433.8 487.213215 
L 437.4 506.62382 
L 441 520.271511 
L 444.6 545.35263 
L 451.8 569.687058 
L 455.4 576.264921 
L 459 580.514476 
L 462.6 577.522723 
L 466.2 564.178036 
L 473.4 560.931559 
L 477 545.036306 
L 480.6 536.399011 
L 484.2 521.545961 
L 487.8 514.56437 
L 491.4 513.4922 
L 495 517.766729 
L 498.6 504.216432 
L 502.2 489.39002 
L 509.4 436.330926 
L 513 396.175331 
L 516.6 374.150063 
L 520.2 355.765844 
L 523.8 342.553514 
L 527.4 337.56476 
L 531 347.108571 
L 534.6 350.034563 
L 538.2 368.839159 
L 541.8 379.686555 
L 545.4 379.767301 
L 549 388.308866 
L 552.6 382.783195 
L 556.2 376.496683 
L 559.8 386.803 
L 563.4 400.663794 
L 567 412.619155 
L 570.6 425.995474 
L 574.2 431.611047 
L 577.8 447.49631 
L 581.4 453.449018 
L 585 463.960945 
L 588.6 476.921882 
L 592.2 494.98395 
L 595.8 504.291351 
L 599.4 518.021452 
L 603 511.522671 
L 606.6 508.291177 
L 610.2 517.514502 
L 613.8 498.764847 
L 617.4 476.113592 
L 621 444.25899 
L 624.6 433.20848 
L 628.2 447.127544 
L 631.8 464.043356 
L 635.4 465.052261 
L 639 468.500186 
L 642.6 478.116419 
L 646.2 503.014403 
L 649.8 512.842905 
L 653.4 513.683659 
L 657 514.974758 
L 660.6 501.423629 
L 664.2 525.932868 
L 667.8 530.838378 
L 671.4 531.182172 
L 675 532.933605 
L 678.6 549.815287 
L 682.2 561.906334 
L 685.8 589.096831 
L 689.4 598.683928 
L 693 609.389811 
L 696.6 612.486451 
L 700.2 626.927449 
L 703.8 637.579224 
L 707.4 647.462666 
L 711 648.494047 
L 714.6 644.191216 
L 721.8 625.818652 
L 725.4 606.361431 
L 729 593.341392 
L 732.6 576.494672 
L 736.2 580.212304 
L 739.8 588.643989 
L 743.4 602.451507 
L 747 608.343447 
L 750.6 594.426881 
L 754.2 593.020906 
L 757.8 605.821184 
L 761.4 601.892114 
L 765 610.762489 
L 768.6 603.702649 
L 772.2 608.391728 
L 775.8 638.459103 
L 779.4 655.657108 
L 783 660.615894 
L 786.6 668.687136 
L 793.8 610.88985 
L 797.4 615.175201 
L 801 614.861374 
L 804.6 614.369408 
L 808.2 617.157217 
L 811.8 624.570839 
L 815.4 655.258374 
L 819 695.428953 
L 822.6 695.64705 
L 826.2 705.832664 
L 829.8 712.515413 
L 833.4 713.520156 
L 837 713.197173 
L 840.6 714.320954 
L 844.2 714.141981 
L 847.8 712.274008 
L 851.4 701.722957 
L 855 699.144088 
L 862.2 705.290752 
L 865.8 706.869872 
L 869.4 708.27002 
L 873 709.238968 
L 876.6 712.974082 
L 880.2 712.246538 
L 883.8 711.735426 
L 891 715.686139 
L 894.6 718.802757 
L 898.2 721.348329 
L 901.8 724.670557 
L 905.4 725.197485 
L 909 718.582996 
L 912.6 717.082957 
L 916.2 705.982502 
L 919.8 703.732443 
L 927 698.835257 
L 930.6 699.312239 
L 934.2 706.965602 
L 937.8 706.665094 
L 941.4 715.565437 
L 945 707.501687 
L 948.6 706.738348 
L 952.2 706.948953 
L 955.8 709.839983 
L 959.4 696.053276 
L 963 685.145112 
L 970.2 668.329191 
L 973.8 658.236809 
L 977.4 657.025623 
L 981 652.295755 
L 984.6 664.185354 
L 988.2 673.969738 
L 991.8 682.166677 
L 995.4 695.513861 
L 999 704.876202 
L 1002.6 704.727197 
L 1006.2 704.789629 
L 1009.8 704.678916 
L 1013.4 703.508519 
L 1017 700.55589 
L 1020.6 692.279038 
L 1024.2 669.517069 
L 1027.8 663.794945 
L 1031.4 663.884015 
L 1035 664.214489 
L 1038.6 665.921804 
L 1042.2 669.001795 
L 1045.8 678.20098 
L 1049.4 701.397477 
L 1053 710.763148 
L 1056.6 716.352083 
L 1060.2 715.925047 
L 1063.8 715.962506 
L 1071 717.189508 
L 1074.6 717.180351 
L 1078.2 714.698877 
L 1081.8 710.888012 
L 1085.4 712.840061 
L 1089 713.43941 
L 1092.6 713.310384 
L 1096.2 712.61031 
L 1099.8 712.234884 
L 1103.4 713.032352 
L 1107 711.976831 
L 1110.6 713.237962 
L 1114.2 711.255946 
L 1117.8 710.053917 
L 1121.4 710.745667 
L 1125 711.820334 
L 1128.6 711.019536 
L 1132.2 713.150557 
L 1135.8 714.697212 
L 1139.4 721.306707 
L 1143 721.662155 
L 1146.6 717.22447 
L 1150.2 718.132651 
L 1153.8 716.795768 
L 1157.4 720.004786 
L 1161 716.112343 
L 1161 716.112343 
" style="fill:none;stroke:#ffa500;stroke-linecap:square;stroke-width:1.5;"/>
   </g>
   <g id="patch_282">
    <path d="M 162 768.96 
L 162 103.68 
" style="fill:none;stroke:#000000;stroke-linecap:square;stroke-linejoin:miter;stroke-width:0.8;"/>
   </g>
   <g id="patch_283">
    <path d="M 1166.4 768.96 
L 1166.4 103.68 
" style="fill:none;stroke:#000000;stroke-linecap:square;stroke-linejoin:miter;stroke-width:0.8;"/>
   </g>
   <g id="patch_284">
    <path d="M 162 768.96 
L 1166.4 768.96 
" style="fill:none;stroke:#000000;stroke-linecap:square;stroke-linejoin:miter;stroke-width:0.8;"/>
   </g>
   <g id="patch_285">
    <path d="M 162 103.68 
L 1166.4 103.68 
" style="fill:none;stroke:#000000;stroke-linecap:square;stroke-linejoin:miter;stroke-width:0.8;"/>
   </g>
   <g id="text_18">
    <!-- Persons Fully Vaccinated -->
    <g transform="translate(590.380313 97.68)scale(0.12 -0.12)">
     <defs>
      <path d="M 1831 0 
L 50 4666 
L 709 4666 
L 2188 738 
L 3669 4666 
L 4325 4666 
L 2547 0 
L 1831 0 
z
" id="DejaVuSans-56" transform="scale(0.015625)"/>
     </defs>
     <use xlink:href="#DejaVuSans-50"/>
     <use x="56.677734" xlink:href="#DejaVuSans-65"/>
     <use x="118.201172" xlink:href="#DejaVuSans-72"/>
     <use x="159.314453" xlink:href="#DejaVuSans-73"/>
     <use x="211.414062" xlink:href="#DejaVuSans-6f"/>
     <use x="272.595703" xlink:href="#DejaVuSans-6e"/>
     <use x="335.974609" xlink:href="#DejaVuSans-73"/>
     <use x="388.074219" xlink:href="#DejaVuSans-20"/>
     <use x="419.861328" xlink:href="#DejaVuSans-46"/>
     <use x="471.880859" xlink:href="#DejaVuSans-75"/>
     <use x="535.259766" xlink:href="#DejaVuSans-6c"/>
     <use x="563.042969" xlink:href="#DejaVuSans-6c"/>
     <use x="590.826172" xlink:href="#DejaVuSans-79"/>
     <use x="650.005859" xlink:href="#DejaVuSans-20"/>
     <use x="681.792969" xlink:href="#DejaVuSans-56"/>
     <use x="742.451172" xlink:href="#DejaVuSans-61"/>
     <use x="803.730469" xlink:href="#DejaVuSans-63"/>
     <use x="858.710938" xlink:href="#DejaVuSans-63"/>
     <use x="913.691406" xlink:href="#DejaVuSans-69"/>
     <use x="941.474609" xlink:href="#DejaVuSans-6e"/>
     <use x="1004.853516" xlink:href="#DejaVuSans-61"/>
     <use x="1066.132812" xlink:href="#DejaVuSans-74"/>
     <use x="1105.341797" xlink:href="#DejaVuSans-65"/>
     <use x="1166.865234" xlink:href="#DejaVuSans-64"/>
    </g>
   </g>
  </g>
 </g>
 <defs>
  <clipPath id="pa666673ec4">
   <rect height="665.28" width="1004.4" x="162" y="103.68"/>
  </clipPath>
 </defs>
</svg>
