<?xml version="1.0" encoding="utf-8" standalone="no"?>
<!DOCTYPE svg PUBLIC "-//W3C//DTD SVG 1.1//EN"
  "http://www.w3.org/Graphics/SVG/1.1/DTD/svg11.dtd">
<svg height="864pt" version="1.1" viewBox="0 0 1296 864" width="1296pt" xmlns="http://www.w3.org/2000/svg" xmlns:xlink="http://www.w3.org/1999/xlink">
 <metadata>
  <rdf:RDF xmlns:cc="http://creativecommons.org/ns#" xmlns:dc="http://purl.org/dc/elements/1.1/" xmlns:rdf="http://www.w3.org/1999/02/22-rdf-syntax-ns#">
   <cc:Work>
    <dc:type rdf:resource="http://purl.org/dc/dcmitype/StillImage"/>
    <dc:date>2021-10-12T17:17:19.144040</dc:date>
    <dc:format>image/svg+xml</dc:format>
    <dc:creator>
     <cc:Agent>
      <dc:title>Matplotlib v3.4.2, https://matplotlib.org/</dc:title>
     </cc:Agent>
    </dc:creator>
   </cc:Work>
  </rdf:RDF>
 </metadata>
 <defs>
  <style type="text/css">*{stroke-linecap:butt;stroke-linejoin:round;}</style>
 </defs>
 <g id="figure_1">
  <g id="patch_1">
   <path d="M 0 864 
L 1296 864 
L 1296 0 
L 0 0 
z
" style="fill:#ffffff;"/>
  </g>
  <g id="axes_1">
   <g id="patch_2">
    <path d="M 162 768.96 
L 1166.4 768.96 
L 1166.4 103.68 
L 162 103.68 
z
" style="fill:#ffffff;"/>
   </g>
   <g id="patch_3">
    <path clip-path="url(#pc6f88edc53)" d="M 162.896786 768.96 
L 164.690357 768.96 
L 164.690357 768.948341 
L 162.896786 768.948341 
z
" style="fill:#1f77b4;"/>
   </g>
   <g id="patch_4">
    <path clip-path="url(#pc6f88edc53)" d="M 166.483929 768.96 
L 168.2775 768.96 
L 168.2775 768.96 
L 166.483929 768.96 
z
" style="fill:#1f77b4;"/>
   </g>
   <g id="patch_5">
    <path clip-path="url(#pc6f88edc53)" d="M 170.071071 768.96 
L 171.864643 768.96 
L 171.864643 768.96 
L 170.071071 768.96 
z
" style="fill:#1f77b4;"/>
   </g>
   <g id="patch_6">
    <path clip-path="url(#pc6f88edc53)" d="M 173.658214 768.96 
L 175.451786 768.96 
L 175.451786 768.219677 
L 173.658214 768.219677 
z
" style="fill:#1f77b4;"/>
   </g>
   <g id="patch_7">
    <path clip-path="url(#pc6f88edc53)" d="M 177.245357 768.96 
L 179.038929 768.96 
L 179.038929 766.978033 
L 177.245357 766.978033 
z
" style="fill:#1f77b4;"/>
   </g>
   <g id="patch_8">
    <path clip-path="url(#pc6f88edc53)" d="M 180.8325 768.96 
L 182.626071 768.96 
L 182.626071 754.89969 
L 180.8325 754.89969 
z
" style="fill:#1f77b4;"/>
   </g>
   <g id="patch_9">
    <path clip-path="url(#pc6f88edc53)" d="M 184.419643 768.96 
L 186.213214 768.96 
L 186.213214 667.518245 
L 184.419643 667.518245 
z
" style="fill:#1f77b4;"/>
   </g>
   <g id="patch_10">
    <path clip-path="url(#pc6f88edc53)" d="M 188.006786 768.96 
L 189.800357 768.96 
L 189.800357 646.701758 
L 188.006786 646.701758 
z
" style="fill:#1f77b4;"/>
   </g>
   <g id="patch_11">
    <path clip-path="url(#pc6f88edc53)" d="M 191.593929 768.96 
L 193.3875 768.96 
L 193.3875 702.208504 
L 191.593929 702.208504 
z
" style="fill:#1f77b4;"/>
   </g>
   <g id="patch_12">
    <path clip-path="url(#pc6f88edc53)" d="M 195.181071 768.96 
L 196.974643 768.96 
L 196.974643 728.481231 
L 195.181071 728.481231 
z
" style="fill:#1f77b4;"/>
   </g>
   <g id="patch_13">
    <path clip-path="url(#pc6f88edc53)" d="M 198.768214 768.96 
L 200.561786 768.96 
L 200.561786 705.694435 
L 198.768214 705.694435 
z
" style="fill:#1f77b4;"/>
   </g>
   <g id="patch_14">
    <path clip-path="url(#pc6f88edc53)" d="M 202.355357 768.96 
L 204.148929 768.96 
L 204.148929 708.778143 
L 202.355357 708.778143 
z
" style="fill:#1f77b4;"/>
   </g>
   <g id="patch_15">
    <path clip-path="url(#pc6f88edc53)" d="M 205.9425 768.96 
L 207.736071 768.96 
L 207.736071 719.70811 
L 205.9425 719.70811 
z
" style="fill:#1f77b4;"/>
   </g>
   <g id="patch_16">
    <path clip-path="url(#pc6f88edc53)" d="M 209.529643 768.96 
L 211.323214 768.96 
L 211.323214 708.894729 
L 209.529643 708.894729 
z
" style="fill:#1f77b4;"/>
   </g>
   <g id="patch_17">
    <path clip-path="url(#pc6f88edc53)" d="M 213.116786 768.96 
L 214.910357 768.96 
L 214.910357 756.660144 
L 213.116786 756.660144 
z
" style="fill:#1f77b4;"/>
   </g>
   <g id="patch_18">
    <path clip-path="url(#pc6f88edc53)" d="M 216.703929 768.96 
L 218.4975 768.96 
L 218.4975 761.300279 
L 216.703929 761.300279 
z
" style="fill:#1f77b4;"/>
   </g>
   <g id="patch_19">
    <path clip-path="url(#pc6f88edc53)" d="M 220.291071 768.96 
L 222.084643 768.96 
L 222.084643 765.310848 
L 220.291071 765.310848 
z
" style="fill:#1f77b4;"/>
   </g>
   <g id="patch_20">
    <path clip-path="url(#pc6f88edc53)" d="M 223.878214 768.96 
L 225.671786 768.96 
L 225.671786 752.224034 
L 223.878214 752.224034 
z
" style="fill:#1f77b4;"/>
   </g>
   <g id="patch_21">
    <path clip-path="url(#pc6f88edc53)" d="M 227.465357 768.96 
L 229.258929 768.96 
L 229.258929 741.783729 
L 227.465357 741.783729 
z
" style="fill:#1f77b4;"/>
   </g>
   <g id="patch_22">
    <path clip-path="url(#pc6f88edc53)" d="M 231.0525 768.96 
L 232.846071 768.96 
L 232.846071 718.140024 
L 231.0525 718.140024 
z
" style="fill:#1f77b4;"/>
   </g>
   <g id="patch_23">
    <path clip-path="url(#pc6f88edc53)" d="M 234.639643 768.96 
L 236.433214 768.96 
L 236.433214 717.702826 
L 234.639643 717.702826 
z
" style="fill:#1f77b4;"/>
   </g>
   <g id="patch_24">
    <path clip-path="url(#pc6f88edc53)" d="M 238.226786 768.96 
L 240.020357 768.96 
L 240.020357 731.972991 
L 238.226786 731.972991 
z
" style="fill:#1f77b4;"/>
   </g>
   <g id="patch_25">
    <path clip-path="url(#pc6f88edc53)" d="M 241.813929 768.96 
L 243.6075 768.96 
L 243.6075 755.051252 
L 241.813929 755.051252 
z
" style="fill:#1f77b4;"/>
   </g>
   <g id="patch_26">
    <path clip-path="url(#pc6f88edc53)" d="M 245.401071 768.96 
L 247.194643 768.96 
L 247.194643 750.55102 
L 245.401071 750.55102 
z
" style="fill:#1f77b4;"/>
   </g>
   <g id="patch_27">
    <path clip-path="url(#pc6f88edc53)" d="M 248.988214 768.96 
L 250.781786 768.96 
L 250.781786 721.043024 
L 248.988214 721.043024 
z
" style="fill:#1f77b4;"/>
   </g>
   <g id="patch_28">
    <path clip-path="url(#pc6f88edc53)" d="M 252.575357 768.96 
L 254.368929 768.96 
L 254.368929 685.490026 
L 252.575357 685.490026 
z
" style="fill:#1f77b4;"/>
   </g>
   <g id="patch_29">
    <path clip-path="url(#pc6f88edc53)" d="M 256.1625 768.96 
L 257.956071 768.96 
L 257.956071 657.84741 
L 256.1625 657.84741 
z
" style="fill:#1f77b4;"/>
   </g>
   <g id="patch_30">
    <path clip-path="url(#pc6f88edc53)" d="M 259.749643 768.96 
L 261.543214 768.96 
L 261.543214 672.922021 
L 259.749643 672.922021 
z
" style="fill:#1f77b4;"/>
   </g>
   <g id="patch_31">
    <path clip-path="url(#pc6f88edc53)" d="M 263.336786 768.96 
L 265.130357 768.96 
L 265.130357 684.77302 
L 263.336786 684.77302 
z
" style="fill:#1f77b4;"/>
   </g>
   <g id="patch_32">
    <path clip-path="url(#pc6f88edc53)" d="M 266.923929 768.96 
L 268.7175 768.96 
L 268.7175 722.739355 
L 266.923929 722.739355 
z
" style="fill:#1f77b4;"/>
   </g>
   <g id="patch_33">
    <path clip-path="url(#pc6f88edc53)" d="M 270.511071 768.96 
L 272.304643 768.96 
L 272.304643 743.171107 
L 270.511071 743.171107 
z
" style="fill:#1f77b4;"/>
   </g>
   <g id="patch_34">
    <path clip-path="url(#pc6f88edc53)" d="M 274.098214 768.96 
L 275.891786 768.96 
L 275.891786 721.521027 
L 274.098214 721.521027 
z
" style="fill:#1f77b4;"/>
   </g>
   <g id="patch_35">
    <path clip-path="url(#pc6f88edc53)" d="M 277.685357 768.96 
L 279.478929 768.96 
L 279.478929 667.920468 
L 277.685357 667.920468 
z
" style="fill:#1f77b4;"/>
   </g>
   <g id="patch_36">
    <path clip-path="url(#pc6f88edc53)" d="M 281.2725 768.96 
L 283.066071 768.96 
L 283.066071 693.796801 
L 281.2725 693.796801 
z
" style="fill:#1f77b4;"/>
   </g>
   <g id="patch_37">
    <path clip-path="url(#pc6f88edc53)" d="M 284.859643 768.96 
L 286.653214 768.96 
L 286.653214 671.575449 
L 284.859643 671.575449 
z
" style="fill:#1f77b4;"/>
   </g>
   <g id="patch_38">
    <path clip-path="url(#pc6f88edc53)" d="M 288.446786 768.96 
L 290.240357 768.96 
L 290.240357 688.77776 
L 288.446786 688.77776 
z
" style="fill:#1f77b4;"/>
   </g>
   <g id="patch_39">
    <path clip-path="url(#pc6f88edc53)" d="M 292.033929 768.96 
L 293.8275 768.96 
L 293.8275 700.424733 
L 292.033929 700.424733 
z
" style="fill:#1f77b4;"/>
   </g>
   <g id="patch_40">
    <path clip-path="url(#pc6f88edc53)" d="M 295.621071 768.96 
L 297.414643 768.96 
L 297.414643 745.730176 
L 295.621071 745.730176 
z
" style="fill:#1f77b4;"/>
   </g>
   <g id="patch_41">
    <path clip-path="url(#pc6f88edc53)" d="M 299.208214 768.96 
L 301.001786 768.96 
L 301.001786 692.456059 
L 299.208214 692.456059 
z
" style="fill:#1f77b4;"/>
   </g>
   <g id="patch_42">
    <path clip-path="url(#pc6f88edc53)" d="M 302.795357 768.96 
L 304.588929 768.96 
L 304.588929 673.073583 
L 302.795357 673.073583 
z
" style="fill:#1f77b4;"/>
   </g>
   <g id="patch_43">
    <path clip-path="url(#pc6f88edc53)" d="M 306.3825 768.96 
L 308.176071 768.96 
L 308.176071 653.003249 
L 306.3825 653.003249 
z
" style="fill:#1f77b4;"/>
   </g>
   <g id="patch_44">
    <path clip-path="url(#pc6f88edc53)" d="M 309.969643 768.96 
L 311.763214 768.96 
L 311.763214 602.946913 
L 309.969643 602.946913 
z
" style="fill:#1f77b4;"/>
   </g>
   <g id="patch_45">
    <path clip-path="url(#pc6f88edc53)" d="M 313.556786 768.96 
L 315.350357 768.96 
L 315.350357 625.016703 
L 313.556786 625.016703 
z
" style="fill:#1f77b4;"/>
   </g>
   <g id="patch_46">
    <path clip-path="url(#pc6f88edc53)" d="M 317.143929 768.96 
L 318.9375 768.96 
L 318.9375 679.509148 
L 317.143929 679.509148 
z
" style="fill:#1f77b4;"/>
   </g>
   <g id="patch_47">
    <path clip-path="url(#pc6f88edc53)" d="M 320.731071 768.96 
L 322.524643 768.96 
L 322.524643 720.599996 
L 320.731071 720.599996 
z
" style="fill:#1f77b4;"/>
   </g>
   <g id="patch_48">
    <path clip-path="url(#pc6f88edc53)" d="M 324.318214 768.96 
L 326.111786 768.96 
L 326.111786 721.089658 
L 324.318214 721.089658 
z
" style="fill:#1f77b4;"/>
   </g>
   <g id="patch_49">
    <path clip-path="url(#pc6f88edc53)" d="M 327.905357 768.96 
L 329.698929 768.96 
L 329.698929 679.421708 
L 327.905357 679.421708 
z
" style="fill:#1f77b4;"/>
   </g>
   <g id="patch_50">
    <path clip-path="url(#pc6f88edc53)" d="M 331.4925 768.96 
L 333.286071 768.96 
L 333.286071 619.414731 
L 331.4925 619.414731 
z
" style="fill:#1f77b4;"/>
   </g>
   <g id="patch_51">
    <path clip-path="url(#pc6f88edc53)" d="M 335.079643 768.96 
L 336.873214 768.96 
L 336.873214 575.828936 
L 335.079643 575.828936 
z
" style="fill:#1f77b4;"/>
   </g>
   <g id="patch_52">
    <path clip-path="url(#pc6f88edc53)" d="M 338.666786 768.96 
L 340.460357 768.96 
L 340.460357 583.966661 
L 338.666786 583.966661 
z
" style="fill:#1f77b4;"/>
   </g>
   <g id="patch_53">
    <path clip-path="url(#pc6f88edc53)" d="M 342.253929 768.96 
L 344.0475 768.96 
L 344.0475 740.559573 
L 342.253929 740.559573 
z
" style="fill:#1f77b4;"/>
   </g>
   <g id="patch_54">
    <path clip-path="url(#pc6f88edc53)" d="M 345.841071 768.96 
L 347.634643 768.96 
L 347.634643 631.965248 
L 345.841071 631.965248 
z
" style="fill:#1f77b4;"/>
   </g>
   <g id="patch_55">
    <path clip-path="url(#pc6f88edc53)" d="M 349.428214 768.96 
L 351.221786 768.96 
L 351.221786 662.464228 
L 349.428214 662.464228 
z
" style="fill:#1f77b4;"/>
   </g>
   <g id="patch_56">
    <path clip-path="url(#pc6f88edc53)" d="M 353.015357 768.96 
L 354.808929 768.96 
L 354.808929 610.455072 
L 353.015357 610.455072 
z
" style="fill:#1f77b4;"/>
   </g>
   <g id="patch_57">
    <path clip-path="url(#pc6f88edc53)" d="M 356.6025 768.96 
L 358.396071 768.96 
L 358.396071 463.206554 
L 356.6025 463.206554 
z
" style="fill:#1f77b4;"/>
   </g>
   <g id="patch_58">
    <path clip-path="url(#pc6f88edc53)" d="M 360.189643 768.96 
L 361.983214 768.96 
L 361.983214 459.40584 
L 360.189643 459.40584 
z
" style="fill:#1f77b4;"/>
   </g>
   <g id="patch_59">
    <path clip-path="url(#pc6f88edc53)" d="M 363.776786 768.96 
L 365.570357 768.96 
L 365.570357 496.754266 
L 363.776786 496.754266 
z
" style="fill:#1f77b4;"/>
   </g>
   <g id="patch_60">
    <path clip-path="url(#pc6f88edc53)" d="M 367.363929 768.96 
L 369.1575 768.96 
L 369.1575 530.197051 
L 367.363929 530.197051 
z
" style="fill:#1f77b4;"/>
   </g>
   <g id="patch_61">
    <path clip-path="url(#pc6f88edc53)" d="M 370.951071 768.96 
L 372.744643 768.96 
L 372.744643 653.836841 
L 370.951071 653.836841 
z
" style="fill:#1f77b4;"/>
   </g>
   <g id="patch_62">
    <path clip-path="url(#pc6f88edc53)" d="M 374.538214 768.96 
L 376.331786 768.96 
L 376.331786 596.785327 
L 374.538214 596.785327 
z
" style="fill:#1f77b4;"/>
   </g>
   <g id="patch_63">
    <path clip-path="url(#pc6f88edc53)" d="M 378.125357 768.96 
L 379.918929 768.96 
L 379.918929 539.786276 
L 378.125357 539.786276 
z
" style="fill:#1f77b4;"/>
   </g>
   <g id="patch_64">
    <path clip-path="url(#pc6f88edc53)" d="M 381.7125 768.96 
L 383.506071 768.96 
L 383.506071 503.731957 
L 381.7125 503.731957 
z
" style="fill:#1f77b4;"/>
   </g>
   <g id="patch_65">
    <path clip-path="url(#pc6f88edc53)" d="M 385.299643 768.96 
L 387.093214 768.96 
L 387.093214 379.998899 
L 385.299643 379.998899 
z
" style="fill:#1f77b4;"/>
   </g>
   <g id="patch_66">
    <path clip-path="url(#pc6f88edc53)" d="M 388.886786 768.96 
L 390.680357 768.96 
L 390.680357 397.03216 
L 388.886786 397.03216 
z
" style="fill:#1f77b4;"/>
   </g>
   <g id="patch_67">
    <path clip-path="url(#pc6f88edc53)" d="M 392.473929 768.96 
L 394.2675 768.96 
L 394.2675 491.01822 
L 392.473929 491.01822 
z
" style="fill:#1f77b4;"/>
   </g>
   <g id="patch_68">
    <path clip-path="url(#pc6f88edc53)" d="M 396.061071 768.96 
L 397.854643 768.96 
L 397.854643 681.53775 
L 396.061071 681.53775 
z
" style="fill:#1f77b4;"/>
   </g>
   <g id="patch_69">
    <path clip-path="url(#pc6f88edc53)" d="M 399.648214 768.96 
L 401.441786 768.96 
L 401.441786 528.063522 
L 399.648214 528.063522 
z
" style="fill:#1f77b4;"/>
   </g>
   <g id="patch_70">
    <path clip-path="url(#pc6f88edc53)" d="M 403.235357 768.96 
L 405.028929 768.96 
L 405.028929 460.198627 
L 403.235357 460.198627 
z
" style="fill:#1f77b4;"/>
   </g>
   <g id="patch_71">
    <path clip-path="url(#pc6f88edc53)" d="M 406.8225 768.96 
L 408.616071 768.96 
L 408.616071 429.402351 
L 406.8225 429.402351 
z
" style="fill:#1f77b4;"/>
   </g>
   <g id="patch_72">
    <path clip-path="url(#pc6f88edc53)" d="M 410.409643 768.96 
L 412.203214 768.96 
L 412.203214 404.301317 
L 410.409643 404.301317 
z
" style="fill:#1f77b4;"/>
   </g>
   <g id="patch_73">
    <path clip-path="url(#pc6f88edc53)" d="M 413.996786 768.96 
L 415.790357 768.96 
L 415.790357 350.444267 
L 413.996786 350.444267 
z
" style="fill:#1f77b4;"/>
   </g>
   <g id="patch_74">
    <path clip-path="url(#pc6f88edc53)" d="M 417.583929 768.96 
L 419.3775 768.96 
L 419.3775 499.523191 
L 417.583929 499.523191 
z
" style="fill:#1f77b4;"/>
   </g>
   <g id="patch_75">
    <path clip-path="url(#pc6f88edc53)" d="M 421.171071 768.96 
L 422.964643 768.96 
L 422.964643 498.76538 
L 421.171071 498.76538 
z
" style="fill:#1f77b4;"/>
   </g>
   <g id="patch_76">
    <path clip-path="url(#pc6f88edc53)" d="M 424.758214 768.96 
L 426.551786 768.96 
L 426.551786 530.261174 
L 424.758214 530.261174 
z
" style="fill:#1f77b4;"/>
   </g>
   <g id="patch_77">
    <path clip-path="url(#pc6f88edc53)" d="M 428.345357 768.96 
L 430.138929 768.96 
L 430.138929 502.023968 
L 428.345357 502.023968 
z
" style="fill:#1f77b4;"/>
   </g>
   <g id="patch_78">
    <path clip-path="url(#pc6f88edc53)" d="M 431.9325 768.96 
L 433.726071 768.96 
L 433.726071 532.715316 
L 431.9325 532.715316 
z
" style="fill:#1f77b4;"/>
   </g>
   <g id="patch_79">
    <path clip-path="url(#pc6f88edc53)" d="M 435.519643 768.96 
L 437.313214 768.96 
L 437.313214 497.372174 
L 435.519643 497.372174 
z
" style="fill:#1f77b4;"/>
   </g>
   <g id="patch_80">
    <path clip-path="url(#pc6f88edc53)" d="M 439.106786 768.96 
L 440.900357 768.96 
L 440.900357 486.337279 
L 439.106786 486.337279 
z
" style="fill:#1f77b4;"/>
   </g>
   <g id="patch_81">
    <path clip-path="url(#pc6f88edc53)" d="M 442.693929 768.96 
L 444.4875 768.96 
L 444.4875 594.949092 
L 442.693929 594.949092 
z
" style="fill:#1f77b4;"/>
   </g>
   <g id="patch_82">
    <path clip-path="url(#pc6f88edc53)" d="M 446.281071 768.96 
L 448.074643 768.96 
L 448.074643 674.29774 
L 446.281071 674.29774 
z
" style="fill:#1f77b4;"/>
   </g>
   <g id="patch_83">
    <path clip-path="url(#pc6f88edc53)" d="M 449.868214 768.96 
L 451.661786 768.96 
L 451.661786 616.69244 
L 449.868214 616.69244 
z
" style="fill:#1f77b4;"/>
   </g>
   <g id="patch_84">
    <path clip-path="url(#pc6f88edc53)" d="M 453.455357 768.96 
L 455.248929 768.96 
L 455.248929 585.76209 
L 453.455357 585.76209 
z
" style="fill:#1f77b4;"/>
   </g>
   <g id="patch_85">
    <path clip-path="url(#pc6f88edc53)" d="M 457.0425 768.96 
L 458.836071 768.96 
L 458.836071 578.510421 
L 457.0425 578.510421 
z
" style="fill:#1f77b4;"/>
   </g>
   <g id="patch_86">
    <path clip-path="url(#pc6f88edc53)" d="M 460.629643 768.96 
L 462.423214 768.96 
L 462.423214 526.769414 
L 460.629643 526.769414 
z
" style="fill:#1f77b4;"/>
   </g>
   <g id="patch_87">
    <path clip-path="url(#pc6f88edc53)" d="M 464.216786 768.96 
L 466.010357 768.96 
L 466.010357 465.153545 
L 464.216786 465.153545 
z
" style="fill:#1f77b4;"/>
   </g>
   <g id="patch_88">
    <path clip-path="url(#pc6f88edc53)" d="M 467.803929 768.96 
L 469.5975 768.96 
L 469.5975 501.697526 
L 467.803929 501.697526 
z
" style="fill:#1f77b4;"/>
   </g>
   <g id="patch_89">
    <path clip-path="url(#pc6f88edc53)" d="M 471.391071 768.96 
L 473.184643 768.96 
L 473.184643 662.889769 
L 471.391071 662.889769 
z
" style="fill:#1f77b4;"/>
   </g>
   <g id="patch_90">
    <path clip-path="url(#pc6f88edc53)" d="M 474.978214 768.96 
L 476.771786 768.96 
L 476.771786 605.383568 
L 474.978214 605.383568 
z
" style="fill:#1f77b4;"/>
   </g>
   <g id="patch_91">
    <path clip-path="url(#pc6f88edc53)" d="M 478.565357 768.96 
L 480.358929 768.96 
L 480.358929 474.532914 
L 478.565357 474.532914 
z
" style="fill:#1f77b4;"/>
   </g>
   <g id="patch_92">
    <path clip-path="url(#pc6f88edc53)" d="M 482.1525 768.96 
L 483.946071 768.96 
L 483.946071 518.206149 
L 482.1525 518.206149 
z
" style="fill:#1f77b4;"/>
   </g>
   <g id="patch_93">
    <path clip-path="url(#pc6f88edc53)" d="M 485.739643 768.96 
L 487.533214 768.96 
L 487.533214 422.710296 
L 485.739643 422.710296 
z
" style="fill:#1f77b4;"/>
   </g>
   <g id="patch_94">
    <path clip-path="url(#pc6f88edc53)" d="M 489.326786 768.96 
L 491.120357 768.96 
L 491.120357 416.502075 
L 489.326786 416.502075 
z
" style="fill:#1f77b4;"/>
   </g>
   <g id="patch_95">
    <path clip-path="url(#pc6f88edc53)" d="M 492.913929 768.96 
L 494.7075 768.96 
L 494.7075 494.049464 
L 492.913929 494.049464 
z
" style="fill:#1f77b4;"/>
   </g>
   <g id="patch_96">
    <path clip-path="url(#pc6f88edc53)" d="M 496.501071 768.96 
L 498.294643 768.96 
L 498.294643 692.904916 
L 496.501071 692.904916 
z
" style="fill:#1f77b4;"/>
   </g>
   <g id="patch_97">
    <path clip-path="url(#pc6f88edc53)" d="M 500.088214 768.96 
L 501.881786 768.96 
L 501.881786 510.179181 
L 500.088214 510.179181 
z
" style="fill:#1f77b4;"/>
   </g>
   <g id="patch_98">
    <path clip-path="url(#pc6f88edc53)" d="M 503.675357 768.96 
L 505.468929 768.96 
L 505.468929 370.596212 
L 503.675357 370.596212 
z
" style="fill:#1f77b4;"/>
   </g>
   <g id="patch_99">
    <path clip-path="url(#pc6f88edc53)" d="M 507.2625 768.96 
L 509.056071 768.96 
L 509.056071 329.429584 
L 507.2625 329.429584 
z
" style="fill:#1f77b4;"/>
   </g>
   <g id="patch_100">
    <path clip-path="url(#pc6f88edc53)" d="M 510.849643 768.96 
L 512.643214 768.96 
L 512.643214 239.949585 
L 510.849643 239.949585 
z
" style="fill:#1f77b4;"/>
   </g>
   <g id="patch_101">
    <path clip-path="url(#pc6f88edc53)" d="M 514.436786 768.96 
L 516.230357 768.96 
L 516.230357 135.36 
L 514.436786 135.36 
z
" style="fill:#1f77b4;"/>
   </g>
   <g id="patch_102">
    <path clip-path="url(#pc6f88edc53)" d="M 518.023929 768.96 
L 519.8175 768.96 
L 519.8175 339.834913 
L 518.023929 339.834913 
z
" style="fill:#1f77b4;"/>
   </g>
   <g id="patch_103">
    <path clip-path="url(#pc6f88edc53)" d="M 521.611071 768.96 
L 523.404643 768.96 
L 523.404643 564.176134 
L 521.611071 564.176134 
z
" style="fill:#1f77b4;"/>
   </g>
   <g id="patch_104">
    <path clip-path="url(#pc6f88edc53)" d="M 525.198214 768.96 
L 526.991786 768.96 
L 526.991786 418.017697 
L 525.198214 418.017697 
z
" style="fill:#1f77b4;"/>
   </g>
   <g id="patch_105">
    <path clip-path="url(#pc6f88edc53)" d="M 528.785357 768.96 
L 530.578929 768.96 
L 530.578929 335.830173 
L 528.785357 335.830173 
z
" style="fill:#1f77b4;"/>
   </g>
   <g id="patch_106">
    <path clip-path="url(#pc6f88edc53)" d="M 532.3725 768.96 
L 534.166071 768.96 
L 534.166071 396.320983 
L 532.3725 396.320983 
z
" style="fill:#1f77b4;"/>
   </g>
   <g id="patch_107">
    <path clip-path="url(#pc6f88edc53)" d="M 535.959643 768.96 
L 537.753214 768.96 
L 537.753214 260.661145 
L 535.959643 260.661145 
z
" style="fill:#1f77b4;"/>
   </g>
   <g id="patch_108">
    <path clip-path="url(#pc6f88edc53)" d="M 539.546786 768.96 
L 541.340357 768.96 
L 541.340357 267.125856 
L 539.546786 267.125856 
z
" style="fill:#1f77b4;"/>
   </g>
   <g id="patch_109">
    <path clip-path="url(#pc6f88edc53)" d="M 543.133929 768.96 
L 544.9275 768.96 
L 544.9275 415.895826 
L 543.133929 415.895826 
z
" style="fill:#1f77b4;"/>
   </g>
   <g id="patch_110">
    <path clip-path="url(#pc6f88edc53)" d="M 546.721071 768.96 
L 548.514643 768.96 
L 548.514643 564.619162 
L 546.721071 564.619162 
z
" style="fill:#1f77b4;"/>
   </g>
   <g id="patch_111">
    <path clip-path="url(#pc6f88edc53)" d="M 550.308214 768.96 
L 552.101786 768.96 
L 552.101786 477.937235 
L 550.308214 477.937235 
z
" style="fill:#1f77b4;"/>
   </g>
   <g id="patch_112">
    <path clip-path="url(#pc6f88edc53)" d="M 553.895357 768.96 
L 555.688929 768.96 
L 555.688929 297.3392 
L 553.895357 297.3392 
z
" style="fill:#1f77b4;"/>
   </g>
   <g id="patch_113">
    <path clip-path="url(#pc6f88edc53)" d="M 557.4825 768.96 
L 559.276071 768.96 
L 559.276071 352.455381 
L 557.4825 352.455381 
z
" style="fill:#1f77b4;"/>
   </g>
   <g id="patch_114">
    <path clip-path="url(#pc6f88edc53)" d="M 561.069643 768.96 
L 562.863214 768.96 
L 562.863214 332.769782 
L 561.069643 332.769782 
z
" style="fill:#1f77b4;"/>
   </g>
   <g id="patch_115">
    <path clip-path="url(#pc6f88edc53)" d="M 564.656786 768.96 
L 566.450357 768.96 
L 566.450357 363.97411 
L 564.656786 363.97411 
z
" style="fill:#1f77b4;"/>
   </g>
   <g id="patch_116">
    <path clip-path="url(#pc6f88edc53)" d="M 568.243929 768.96 
L 570.0375 768.96 
L 570.0375 499.843804 
L 568.243929 499.843804 
z
" style="fill:#1f77b4;"/>
   </g>
   <g id="patch_117">
    <path clip-path="url(#pc6f88edc53)" d="M 571.831071 768.96 
L 573.624643 768.96 
L 573.624643 658.313756 
L 571.831071 658.313756 
z
" style="fill:#1f77b4;"/>
   </g>
   <g id="patch_118">
    <path clip-path="url(#pc6f88edc53)" d="M 575.418214 768.96 
L 577.211786 768.96 
L 577.211786 517.156872 
L 575.418214 517.156872 
z
" style="fill:#1f77b4;"/>
   </g>
   <g id="patch_119">
    <path clip-path="url(#pc6f88edc53)" d="M 579.005357 768.96 
L 580.798929 768.96 
L 580.798929 407.828053 
L 579.005357 407.828053 
z
" style="fill:#1f77b4;"/>
   </g>
   <g id="patch_120">
    <path clip-path="url(#pc6f88edc53)" d="M 582.5925 768.96 
L 584.386071 768.96 
L 584.386071 393.575376 
L 582.5925 393.575376 
z
" style="fill:#1f77b4;"/>
   </g>
   <g id="patch_121">
    <path clip-path="url(#pc6f88edc53)" d="M 586.179643 768.96 
L 587.973214 768.96 
L 587.973214 406.417358 
L 586.179643 406.417358 
z
" style="fill:#1f77b4;"/>
   </g>
   <g id="patch_122">
    <path clip-path="url(#pc6f88edc53)" d="M 589.766786 768.96 
L 591.560357 768.96 
L 591.560357 454.619971 
L 589.766786 454.619971 
z
" style="fill:#1f77b4;"/>
   </g>
   <g id="patch_123">
    <path clip-path="url(#pc6f88edc53)" d="M 593.353929 768.96 
L 595.1475 768.96 
L 595.1475 625.972711 
L 593.353929 625.972711 
z
" style="fill:#1f77b4;"/>
   </g>
   <g id="patch_124">
    <path clip-path="url(#pc6f88edc53)" d="M 596.941071 768.96 
L 598.734643 768.96 
L 598.734643 723.514654 
L 596.941071 723.514654 
z
" style="fill:#1f77b4;"/>
   </g>
   <g id="patch_125">
    <path clip-path="url(#pc6f88edc53)" d="M 600.528214 768.96 
L 602.321786 768.96 
L 602.321786 613.305608 
L 600.528214 613.305608 
z
" style="fill:#1f77b4;"/>
   </g>
   <g id="patch_126">
    <path clip-path="url(#pc6f88edc53)" d="M 604.115357 768.96 
L 605.908929 768.96 
L 605.908929 361.747311 
L 604.115357 361.747311 
z
" style="fill:#1f77b4;"/>
   </g>
   <g id="patch_127">
    <path clip-path="url(#pc6f88edc53)" d="M 607.7025 768.96 
L 609.496071 768.96 
L 609.496071 371.243266 
L 607.7025 371.243266 
z
" style="fill:#1f77b4;"/>
   </g>
   <g id="patch_128">
    <path clip-path="url(#pc6f88edc53)" d="M 611.289643 768.96 
L 613.083214 768.96 
L 613.083214 470.889592 
L 611.289643 470.889592 
z
" style="fill:#1f77b4;"/>
   </g>
   <g id="patch_129">
    <path clip-path="url(#pc6f88edc53)" d="M 614.876786 768.96 
L 616.670357 768.96 
L 616.670357 323.442876 
L 614.876786 323.442876 
z
" style="fill:#1f77b4;"/>
   </g>
   <g id="patch_130">
    <path clip-path="url(#pc6f88edc53)" d="M 618.463929 768.96 
L 620.2575 768.96 
L 620.2575 467.432808 
L 618.463929 467.432808 
z
" style="fill:#1f77b4;"/>
   </g>
   <g id="patch_131">
    <path clip-path="url(#pc6f88edc53)" d="M 622.051071 768.96 
L 623.844643 768.96 
L 623.844643 500.391759 
L 622.051071 500.391759 
z
" style="fill:#1f77b4;"/>
   </g>
   <g id="patch_132">
    <path clip-path="url(#pc6f88edc53)" d="M 625.638214 768.96 
L 627.431786 768.96 
L 627.431786 528.996212 
L 625.638214 528.996212 
z
" style="fill:#1f77b4;"/>
   </g>
   <g id="patch_133">
    <path clip-path="url(#pc6f88edc53)" d="M 629.225357 768.96 
L 631.018929 768.96 
L 631.018929 461.008901 
L 629.225357 461.008901 
z
" style="fill:#1f77b4;"/>
   </g>
   <g id="patch_134">
    <path clip-path="url(#pc6f88edc53)" d="M 632.8125 768.96 
L 634.606071 768.96 
L 634.606071 489.922308 
L 632.8125 489.922308 
z
" style="fill:#1f77b4;"/>
   </g>
   <g id="patch_135">
    <path clip-path="url(#pc6f88edc53)" d="M 636.399643 768.96 
L 638.193214 768.96 
L 638.193214 478.356945 
L 636.399643 478.356945 
z
" style="fill:#1f77b4;"/>
   </g>
   <g id="patch_136">
    <path clip-path="url(#pc6f88edc53)" d="M 639.986786 768.96 
L 641.780357 768.96 
L 641.780357 349.74475 
L 639.986786 349.74475 
z
" style="fill:#1f77b4;"/>
   </g>
   <g id="patch_137">
    <path clip-path="url(#pc6f88edc53)" d="M 643.573929 768.96 
L 645.3675 768.96 
L 645.3675 534.330036 
L 643.573929 534.330036 
z
" style="fill:#1f77b4;"/>
   </g>
   <g id="patch_138">
    <path clip-path="url(#pc6f88edc53)" d="M 647.161071 768.96 
L 648.954643 768.96 
L 648.954643 674.711621 
L 647.161071 674.711621 
z
" style="fill:#1f77b4;"/>
   </g>
   <g id="patch_139">
    <path clip-path="url(#pc6f88edc53)" d="M 650.748214 768.96 
L 652.541786 768.96 
L 652.541786 606.269624 
L 650.748214 606.269624 
z
" style="fill:#1f77b4;"/>
   </g>
   <g id="patch_140">
    <path clip-path="url(#pc6f88edc53)" d="M 654.335357 768.96 
L 656.128929 768.96 
L 656.128929 466.535093 
L 654.335357 466.535093 
z
" style="fill:#1f77b4;"/>
   </g>
   <g id="patch_141">
    <path clip-path="url(#pc6f88edc53)" d="M 657.9225 768.96 
L 659.716071 768.96 
L 659.716071 499.756364 
L 657.9225 499.756364 
z
" style="fill:#1f77b4;"/>
   </g>
   <g id="patch_142">
    <path clip-path="url(#pc6f88edc53)" d="M 661.509643 768.96 
L 663.303214 768.96 
L 663.303214 383.752978 
L 661.509643 383.752978 
z
" style="fill:#1f77b4;"/>
   </g>
   <g id="patch_143">
    <path clip-path="url(#pc6f88edc53)" d="M 665.096786 768.96 
L 666.890357 768.96 
L 666.890357 520.07153 
L 665.096786 520.07153 
z
" style="fill:#1f77b4;"/>
   </g>
   <g id="patch_144">
    <path clip-path="url(#pc6f88edc53)" d="M 668.683929 768.96 
L 670.4775 768.96 
L 670.4775 569.008637 
L 668.683929 569.008637 
z
" style="fill:#1f77b4;"/>
   </g>
   <g id="patch_145">
    <path clip-path="url(#pc6f88edc53)" d="M 672.271071 768.96 
L 674.064643 768.96 
L 674.064643 677.154104 
L 672.271071 677.154104 
z
" style="fill:#1f77b4;"/>
   </g>
   <g id="patch_146">
    <path clip-path="url(#pc6f88edc53)" d="M 675.858214 768.96 
L 677.651786 768.96 
L 677.651786 617.899109 
L 675.858214 617.899109 
z
" style="fill:#1f77b4;"/>
   </g>
   <g id="patch_147">
    <path clip-path="url(#pc6f88edc53)" d="M 679.445357 768.96 
L 681.238929 768.96 
L 681.238929 584.695326 
L 679.445357 584.695326 
z
" style="fill:#1f77b4;"/>
   </g>
   <g id="patch_148">
    <path clip-path="url(#pc6f88edc53)" d="M 683.0325 768.96 
L 684.826071 768.96 
L 684.826071 583.815099 
L 683.0325 583.815099 
z
" style="fill:#1f77b4;"/>
   </g>
   <g id="patch_149">
    <path clip-path="url(#pc6f88edc53)" d="M 686.619643 768.96 
L 688.413214 768.96 
L 688.413214 573.199915 
L 686.619643 573.199915 
z
" style="fill:#1f77b4;"/>
   </g>
   <g id="patch_150">
    <path clip-path="url(#pc6f88edc53)" d="M 690.206786 768.96 
L 692.000357 768.96 
L 692.000357 586.391656 
L 690.206786 586.391656 
z
" style="fill:#1f77b4;"/>
   </g>
   <g id="patch_151">
    <path clip-path="url(#pc6f88edc53)" d="M 693.793929 768.96 
L 695.5875 768.96 
L 695.5875 644.026102 
L 693.793929 644.026102 
z
" style="fill:#1f77b4;"/>
   </g>
   <g id="patch_152">
    <path clip-path="url(#pc6f88edc53)" d="M 697.381071 768.96 
L 699.174643 768.96 
L 699.174643 698.868306 
L 697.381071 698.868306 
z
" style="fill:#1f77b4;"/>
   </g>
   <g id="patch_153">
    <path clip-path="url(#pc6f88edc53)" d="M 700.968214 768.96 
L 702.761786 768.96 
L 702.761786 718.058414 
L 700.968214 718.058414 
z
" style="fill:#1f77b4;"/>
   </g>
   <g id="patch_154">
    <path clip-path="url(#pc6f88edc53)" d="M 704.555357 768.96 
L 706.348929 768.96 
L 706.348929 659.141518 
L 704.555357 659.141518 
z
" style="fill:#1f77b4;"/>
   </g>
   <g id="patch_155">
    <path clip-path="url(#pc6f88edc53)" d="M 708.1425 768.96 
L 709.936071 768.96 
L 709.936071 652.962444 
L 708.1425 652.962444 
z
" style="fill:#1f77b4;"/>
   </g>
   <g id="patch_156">
    <path clip-path="url(#pc6f88edc53)" d="M 711.729643 768.96 
L 713.523214 768.96 
L 713.523214 581.156931 
L 711.729643 581.156931 
z
" style="fill:#1f77b4;"/>
   </g>
   <g id="patch_157">
    <path clip-path="url(#pc6f88edc53)" d="M 715.316786 768.96 
L 717.110357 768.96 
L 717.110357 556.912806 
L 715.316786 556.912806 
z
" style="fill:#1f77b4;"/>
   </g>
   <g id="patch_158">
    <path clip-path="url(#pc6f88edc53)" d="M 718.903929 768.96 
L 720.6975 768.96 
L 720.6975 579.658797 
L 718.903929 579.658797 
z
" style="fill:#1f77b4;"/>
   </g>
   <g id="patch_159">
    <path clip-path="url(#pc6f88edc53)" d="M 722.491071 768.96 
L 724.284643 768.96 
L 724.284643 634.238681 
L 722.491071 634.238681 
z
" style="fill:#1f77b4;"/>
   </g>
   <g id="patch_160">
    <path clip-path="url(#pc6f88edc53)" d="M 726.078214 768.96 
L 727.871786 768.96 
L 727.871786 582.520991 
L 726.078214 582.520991 
z
" style="fill:#1f77b4;"/>
   </g>
   <g id="patch_161">
    <path clip-path="url(#pc6f88edc53)" d="M 729.665357 768.96 
L 731.458929 768.96 
L 731.458929 568.676366 
L 729.665357 568.676366 
z
" style="fill:#1f77b4;"/>
   </g>
   <g id="patch_162">
    <path clip-path="url(#pc6f88edc53)" d="M 733.2525 768.96 
L 735.046071 768.96 
L 735.046071 535.274386 
L 733.2525 535.274386 
z
" style="fill:#1f77b4;"/>
   </g>
   <g id="patch_163">
    <path clip-path="url(#pc6f88edc53)" d="M 736.839643 768.96 
L 738.633214 768.96 
L 738.633214 606.89336 
L 736.839643 606.89336 
z
" style="fill:#1f77b4;"/>
   </g>
   <g id="patch_164">
    <path clip-path="url(#pc6f88edc53)" d="M 740.426786 768.96 
L 742.220357 768.96 
L 742.220357 615.555724 
L 740.426786 615.555724 
z
" style="fill:#1f77b4;"/>
   </g>
   <g id="patch_165">
    <path clip-path="url(#pc6f88edc53)" d="M 744.013929 768.96 
L 745.8075 768.96 
L 745.8075 675.609336 
L 744.013929 675.609336 
z
" style="fill:#1f77b4;"/>
   </g>
   <g id="patch_166">
    <path clip-path="url(#pc6f88edc53)" d="M 747.601071 768.96 
L 749.394643 768.96 
L 749.394643 675.533555 
L 747.601071 675.533555 
z
" style="fill:#1f77b4;"/>
   </g>
   <g id="patch_167">
    <path clip-path="url(#pc6f88edc53)" d="M 751.188214 768.96 
L 752.981786 768.96 
L 752.981786 484.87995 
L 751.188214 484.87995 
z
" style="fill:#1f77b4;"/>
   </g>
   <g id="patch_168">
    <path clip-path="url(#pc6f88edc53)" d="M 754.775357 768.96 
L 756.568929 768.96 
L 756.568929 558.125304 
L 754.775357 558.125304 
z
" style="fill:#1f77b4;"/>
   </g>
   <g id="patch_169">
    <path clip-path="url(#pc6f88edc53)" d="M 758.3625 768.96 
L 760.156071 768.96 
L 760.156071 624.608651 
L 758.3625 624.608651 
z
" style="fill:#1f77b4;"/>
   </g>
   <g id="patch_170">
    <path clip-path="url(#pc6f88edc53)" d="M 761.949643 768.96 
L 763.743214 768.96 
L 763.743214 579.250744 
L 761.949643 579.250744 
z
" style="fill:#1f77b4;"/>
   </g>
   <g id="patch_171">
    <path clip-path="url(#pc6f88edc53)" d="M 765.536786 768.96 
L 767.330357 768.96 
L 767.330357 677.690402 
L 765.536786 677.690402 
z
" style="fill:#1f77b4;"/>
   </g>
   <g id="patch_172">
    <path clip-path="url(#pc6f88edc53)" d="M 769.123929 768.96 
L 770.9175 768.96 
L 770.9175 627.150233 
L 769.123929 627.150233 
z
" style="fill:#1f77b4;"/>
   </g>
   <g id="patch_173">
    <path clip-path="url(#pc6f88edc53)" d="M 772.711071 768.96 
L 774.504643 768.96 
L 774.504643 708.364262 
L 772.711071 708.364262 
z
" style="fill:#1f77b4;"/>
   </g>
   <g id="patch_174">
    <path clip-path="url(#pc6f88edc53)" d="M 776.298214 768.96 
L 778.091786 768.96 
L 778.091786 694.799444 
L 776.298214 694.799444 
z
" style="fill:#1f77b4;"/>
   </g>
   <g id="patch_175">
    <path clip-path="url(#pc6f88edc53)" d="M 779.885357 768.96 
L 781.678929 768.96 
L 781.678929 678.582287 
L 779.885357 678.582287 
z
" style="fill:#1f77b4;"/>
   </g>
   <g id="patch_176">
    <path clip-path="url(#pc6f88edc53)" d="M 783.4725 768.96 
L 785.266071 768.96 
L 785.266071 659.29891 
L 783.4725 659.29891 
z
" style="fill:#1f77b4;"/>
   </g>
   <g id="patch_177">
    <path clip-path="url(#pc6f88edc53)" d="M 787.059643 768.96 
L 788.853214 768.96 
L 788.853214 635.789279 
L 787.059643 635.789279 
z
" style="fill:#1f77b4;"/>
   </g>
   <g id="patch_178">
    <path clip-path="url(#pc6f88edc53)" d="M 790.646786 768.96 
L 792.440357 768.96 
L 792.440357 473.081415 
L 790.646786 473.081415 
z
" style="fill:#1f77b4;"/>
   </g>
   <g id="patch_179">
    <path clip-path="url(#pc6f88edc53)" d="M 794.233929 768.96 
L 796.0275 768.96 
L 796.0275 427.181382 
L 794.233929 427.181382 
z
" style="fill:#1f77b4;"/>
   </g>
   <g id="patch_180">
    <path clip-path="url(#pc6f88edc53)" d="M 797.821071 768.96 
L 799.614643 768.96 
L 799.614643 738.36775 
L 797.821071 738.36775 
z
" style="fill:#1f77b4;"/>
   </g>
   <g id="patch_181">
    <path clip-path="url(#pc6f88edc53)" d="M 801.408214 768.96 
L 803.201786 768.96 
L 803.201786 692.95738 
L 801.408214 692.95738 
z
" style="fill:#1f77b4;"/>
   </g>
   <g id="patch_182">
    <path clip-path="url(#pc6f88edc53)" d="M 804.995357 768.96 
L 806.788929 768.96 
L 806.788929 675.06138 
L 804.995357 675.06138 
z
" style="fill:#1f77b4;"/>
   </g>
   <g id="patch_183">
    <path clip-path="url(#pc6f88edc53)" d="M 808.5825 768.96 
L 810.376071 768.96 
L 810.376071 678.687215 
L 808.5825 678.687215 
z
" style="fill:#1f77b4;"/>
   </g>
   <g id="patch_184">
    <path clip-path="url(#pc6f88edc53)" d="M 812.169643 768.96 
L 813.963214 768.96 
L 813.963214 687.780947 
L 812.169643 687.780947 
z
" style="fill:#1f77b4;"/>
   </g>
   <g id="patch_185">
    <path clip-path="url(#pc6f88edc53)" d="M 815.756786 768.96 
L 817.550357 768.96 
L 817.550357 687.716825 
L 815.756786 687.716825 
z
" style="fill:#1f77b4;"/>
   </g>
   <g id="patch_186">
    <path clip-path="url(#pc6f88edc53)" d="M 819.343929 768.96 
L 821.1375 768.96 
L 821.1375 708.335115 
L 819.343929 708.335115 
z
" style="fill:#1f77b4;"/>
   </g>
   <g id="patch_187">
    <path clip-path="url(#pc6f88edc53)" d="M 822.931071 768.96 
L 824.724643 768.96 
L 824.724643 739.883372 
L 822.931071 739.883372 
z
" style="fill:#1f77b4;"/>
   </g>
   <g id="patch_188">
    <path clip-path="url(#pc6f88edc53)" d="M 826.518214 768.96 
L 828.311786 768.96 
L 828.311786 763.981764 
L 826.518214 763.981764 
z
" style="fill:#1f77b4;"/>
   </g>
   <g id="patch_189">
    <path clip-path="url(#pc6f88edc53)" d="M 830.105357 768.96 
L 831.898929 768.96 
L 831.898929 721.818323 
L 830.105357 721.818323 
z
" style="fill:#1f77b4;"/>
   </g>
   <g id="patch_190">
    <path clip-path="url(#pc6f88edc53)" d="M 833.6925 768.96 
L 835.486071 768.96 
L 835.486071 685.810639 
L 833.6925 685.810639 
z
" style="fill:#1f77b4;"/>
   </g>
   <g id="patch_191">
    <path clip-path="url(#pc6f88edc53)" d="M 837.279643 768.96 
L 839.073214 768.96 
L 839.073214 685.507514 
L 837.279643 685.507514 
z
" style="fill:#1f77b4;"/>
   </g>
   <g id="patch_192">
    <path clip-path="url(#pc6f88edc53)" d="M 840.866786 768.96 
L 842.660357 768.96 
L 842.660357 695.644694 
L 840.866786 695.644694 
z
" style="fill:#1f77b4;"/>
   </g>
   <g id="patch_193">
    <path clip-path="url(#pc6f88edc53)" d="M 844.453929 768.96 
L 846.2475 768.96 
L 846.2475 707.093471 
L 844.453929 707.093471 
z
" style="fill:#1f77b4;"/>
   </g>
   <g id="patch_194">
    <path clip-path="url(#pc6f88edc53)" d="M 848.041071 768.96 
L 849.834643 768.96 
L 849.834643 726.819876 
L 848.041071 726.819876 
z
" style="fill:#1f77b4;"/>
   </g>
   <g id="patch_195">
    <path clip-path="url(#pc6f88edc53)" d="M 851.628214 768.96 
L 853.421786 768.96 
L 853.421786 690.258407 
L 851.628214 690.258407 
z
" style="fill:#1f77b4;"/>
   </g>
   <g id="patch_196">
    <path clip-path="url(#pc6f88edc53)" d="M 855.215357 768.96 
L 857.008929 768.96 
L 857.008929 703.712468 
L 855.215357 703.712468 
z
" style="fill:#1f77b4;"/>
   </g>
   <g id="patch_197">
    <path clip-path="url(#pc6f88edc53)" d="M 858.8025 768.96 
L 860.596071 768.96 
L 860.596071 706.883615 
L 858.8025 706.883615 
z
" style="fill:#1f77b4;"/>
   </g>
   <g id="patch_198">
    <path clip-path="url(#pc6f88edc53)" d="M 862.389643 768.96 
L 864.183214 768.96 
L 864.183214 707.26835 
L 862.389643 707.26835 
z
" style="fill:#1f77b4;"/>
   </g>
   <g id="patch_199">
    <path clip-path="url(#pc6f88edc53)" d="M 865.976786 768.96 
L 867.770357 768.96 
L 867.770357 706.568832 
L 865.976786 706.568832 
z
" style="fill:#1f77b4;"/>
   </g>
   <g id="patch_200">
    <path clip-path="url(#pc6f88edc53)" d="M 869.563929 768.96 
L 871.3575 768.96 
L 871.3575 716.904209 
L 869.563929 716.904209 
z
" style="fill:#1f77b4;"/>
   </g>
   <g id="patch_201">
    <path clip-path="url(#pc6f88edc53)" d="M 873.151071 768.96 
L 874.944643 768.96 
L 874.944643 733.59937 
L 873.151071 733.59937 
z
" style="fill:#1f77b4;"/>
   </g>
   <g id="patch_202">
    <path clip-path="url(#pc6f88edc53)" d="M 876.738214 768.96 
L 878.531786 768.96 
L 878.531786 716.455352 
L 876.738214 716.455352 
z
" style="fill:#1f77b4;"/>
   </g>
   <g id="patch_203">
    <path clip-path="url(#pc6f88edc53)" d="M 880.325357 768.96 
L 882.118929 768.96 
L 882.118929 698.617645 
L 880.325357 698.617645 
z
" style="fill:#1f77b4;"/>
   </g>
   <g id="patch_204">
    <path clip-path="url(#pc6f88edc53)" d="M 883.9125 768.96 
L 885.706071 768.96 
L 885.706071 703.339391 
L 883.9125 703.339391 
z
" style="fill:#1f77b4;"/>
   </g>
   <g id="patch_205">
    <path clip-path="url(#pc6f88edc53)" d="M 887.499643 768.96 
L 889.293214 768.96 
L 889.293214 721.293684 
L 887.499643 721.293684 
z
" style="fill:#1f77b4;"/>
   </g>
   <g id="patch_206">
    <path clip-path="url(#pc6f88edc53)" d="M 891.086786 768.96 
L 892.880357 768.96 
L 892.880357 720.296871 
L 891.086786 720.296871 
z
" style="fill:#1f77b4;"/>
   </g>
   <g id="patch_207">
    <path clip-path="url(#pc6f88edc53)" d="M 894.673929 768.96 
L 896.4675 768.96 
L 896.4675 738.694192 
L 894.673929 738.694192 
z
" style="fill:#1f77b4;"/>
   </g>
   <g id="patch_208">
    <path clip-path="url(#pc6f88edc53)" d="M 898.261071 768.96 
L 900.054643 768.96 
L 900.054643 751.390442 
L 898.261071 751.390442 
z
" style="fill:#1f77b4;"/>
   </g>
   <g id="patch_209">
    <path clip-path="url(#pc6f88edc53)" d="M 901.848214 768.96 
L 903.641786 768.96 
L 903.641786 739.609395 
L 901.848214 739.609395 
z
" style="fill:#1f77b4;"/>
   </g>
   <g id="patch_210">
    <path clip-path="url(#pc6f88edc53)" d="M 905.435357 768.96 
L 907.228929 768.96 
L 907.228929 702.173528 
L 905.435357 702.173528 
z
" style="fill:#1f77b4;"/>
   </g>
   <g id="patch_211">
    <path clip-path="url(#pc6f88edc53)" d="M 909.0225 768.96 
L 910.816071 768.96 
L 910.816071 656.99633 
L 909.0225 656.99633 
z
" style="fill:#1f77b4;"/>
   </g>
   <g id="patch_212">
    <path clip-path="url(#pc6f88edc53)" d="M 912.609643 768.96 
L 914.403214 768.96 
L 914.403214 710.690159 
L 912.609643 710.690159 
z
" style="fill:#1f77b4;"/>
   </g>
   <g id="patch_213">
    <path clip-path="url(#pc6f88edc53)" d="M 916.196786 768.96 
L 917.990357 768.96 
L 917.990357 642.568773 
L 916.196786 642.568773 
z
" style="fill:#1f77b4;"/>
   </g>
   <g id="patch_214">
    <path clip-path="url(#pc6f88edc53)" d="M 919.783929 768.96 
L 921.5775 768.96 
L 921.5775 722.972527 
L 919.783929 722.972527 
z
" style="fill:#1f77b4;"/>
   </g>
   <g id="patch_215">
    <path clip-path="url(#pc6f88edc53)" d="M 923.371071 768.96 
L 925.164643 768.96 
L 925.164643 734.508743 
L 923.371071 734.508743 
z
" style="fill:#1f77b4;"/>
   </g>
   <g id="patch_216">
    <path clip-path="url(#pc6f88edc53)" d="M 926.958214 768.96 
L 928.751786 768.96 
L 928.751786 722.133106 
L 926.958214 722.133106 
z
" style="fill:#1f77b4;"/>
   </g>
   <g id="patch_217">
    <path clip-path="url(#pc6f88edc53)" d="M 930.545357 768.96 
L 932.338929 768.96 
L 932.338929 705.577849 
L 930.545357 705.577849 
z
" style="fill:#1f77b4;"/>
   </g>
   <g id="patch_218">
    <path clip-path="url(#pc6f88edc53)" d="M 934.1325 768.96 
L 935.926071 768.96 
L 935.926071 710.608548 
L 934.1325 710.608548 
z
" style="fill:#1f77b4;"/>
   </g>
   <g id="patch_219">
    <path clip-path="url(#pc6f88edc53)" d="M 937.719643 768.96 
L 939.513214 768.96 
L 939.513214 708.649898 
L 937.719643 708.649898 
z
" style="fill:#1f77b4;"/>
   </g>
   <g id="patch_220">
    <path clip-path="url(#pc6f88edc53)" d="M 941.306786 768.96 
L 943.100357 768.96 
L 943.100357 704.831696 
L 941.306786 704.831696 
z
" style="fill:#1f77b4;"/>
   </g>
   <g id="patch_221">
    <path clip-path="url(#pc6f88edc53)" d="M 944.893929 768.96 
L 946.6875 768.96 
L 946.6875 666.428163 
L 944.893929 666.428163 
z
" style="fill:#1f77b4;"/>
   </g>
   <g id="patch_222">
    <path clip-path="url(#pc6f88edc53)" d="M 948.481071 768.96 
L 950.274643 768.96 
L 950.274643 728.953405 
L 948.481071 728.953405 
z
" style="fill:#1f77b4;"/>
   </g>
   <g id="patch_223">
    <path clip-path="url(#pc6f88edc53)" d="M 952.068214 768.96 
L 953.861786 768.96 
L 953.861786 723.642898 
L 952.068214 723.642898 
z
" style="fill:#1f77b4;"/>
   </g>
   <g id="patch_224">
    <path clip-path="url(#pc6f88edc53)" d="M 955.655357 768.96 
L 957.448929 768.96 
L 957.448929 725.840551 
L 955.655357 725.840551 
z
" style="fill:#1f77b4;"/>
   </g>
   <g id="patch_225">
    <path clip-path="url(#pc6f88edc53)" d="M 959.2425 768.96 
L 961.036071 768.96 
L 961.036071 613.958491 
L 959.2425 613.958491 
z
" style="fill:#1f77b4;"/>
   </g>
   <g id="patch_226">
    <path clip-path="url(#pc6f88edc53)" d="M 962.829643 768.96 
L 964.623214 768.96 
L 964.623214 632.361641 
L 962.829643 632.361641 
z
" style="fill:#1f77b4;"/>
   </g>
   <g id="patch_227">
    <path clip-path="url(#pc6f88edc53)" d="M 966.416786 768.96 
L 968.210357 768.96 
L 968.210357 645.58253 
L 966.416786 645.58253 
z
" style="fill:#1f77b4;"/>
   </g>
   <g id="patch_228">
    <path clip-path="url(#pc6f88edc53)" d="M 970.003929 768.96 
L 971.7975 768.96 
L 971.7975 608.059223 
L 970.003929 608.059223 
z
" style="fill:#1f77b4;"/>
   </g>
   <g id="patch_229">
    <path clip-path="url(#pc6f88edc53)" d="M 973.591071 768.96 
L 975.384643 768.96 
L 975.384643 658.476976 
L 973.591071 658.476976 
z
" style="fill:#1f77b4;"/>
   </g>
   <g id="patch_230">
    <path clip-path="url(#pc6f88edc53)" d="M 977.178214 768.96 
L 978.971786 768.96 
L 978.971786 715.19622 
L 977.178214 715.19622 
z
" style="fill:#1f77b4;"/>
   </g>
   <g id="patch_231">
    <path clip-path="url(#pc6f88edc53)" d="M 980.765357 768.96 
L 982.558929 768.96 
L 982.558929 692.864111 
L 980.765357 692.864111 
z
" style="fill:#1f77b4;"/>
   </g>
   <g id="patch_232">
    <path clip-path="url(#pc6f88edc53)" d="M 984.3525 768.96 
L 986.146071 768.96 
L 986.146071 697.282732 
L 984.3525 697.282732 
z
" style="fill:#1f77b4;"/>
   </g>
   <g id="patch_233">
    <path clip-path="url(#pc6f88edc53)" d="M 987.939643 768.96 
L 989.733214 768.96 
L 989.733214 700.757004 
L 987.939643 700.757004 
z
" style="fill:#1f77b4;"/>
   </g>
   <g id="patch_234">
    <path clip-path="url(#pc6f88edc53)" d="M 991.526786 768.96 
L 993.320357 768.96 
L 993.320357 702.937169 
L 991.526786 702.937169 
z
" style="fill:#1f77b4;"/>
   </g>
   <g id="patch_235">
    <path clip-path="url(#pc6f88edc53)" d="M 995.113929 768.96 
L 996.9075 768.96 
L 996.9075 701.503157 
L 995.113929 701.503157 
z
" style="fill:#1f77b4;"/>
   </g>
   <g id="patch_236">
    <path clip-path="url(#pc6f88edc53)" d="M 998.701071 768.96 
L 1000.494643 768.96 
L 1000.494643 724.109244 
L 998.701071 724.109244 
z
" style="fill:#1f77b4;"/>
   </g>
   <g id="patch_237">
    <path clip-path="url(#pc6f88edc53)" d="M 1002.288214 768.96 
L 1004.081786 768.96 
L 1004.081786 714.234383 
L 1002.288214 714.234383 
z
" style="fill:#1f77b4;"/>
   </g>
   <g id="patch_238">
    <path clip-path="url(#pc6f88edc53)" d="M 1005.875357 768.96 
L 1007.668929 768.96 
L 1007.668929 693.190552 
L 1005.875357 693.190552 
z
" style="fill:#1f77b4;"/>
   </g>
   <g id="patch_239">
    <path clip-path="url(#pc6f88edc53)" d="M 1009.4625 768.96 
L 1011.256071 768.96 
L 1011.256071 696.507433 
L 1009.4625 696.507433 
z
" style="fill:#1f77b4;"/>
   </g>
   <g id="patch_240">
    <path clip-path="url(#pc6f88edc53)" d="M 1013.049643 768.96 
L 1014.843214 768.96 
L 1014.843214 692.514352 
L 1013.049643 692.514352 
z
" style="fill:#1f77b4;"/>
   </g>
   <g id="patch_241">
    <path clip-path="url(#pc6f88edc53)" d="M 1016.636786 768.96 
L 1018.430357 768.96 
L 1018.430357 682.289732 
L 1016.636786 682.289732 
z
" style="fill:#1f77b4;"/>
   </g>
   <g id="patch_242">
    <path clip-path="url(#pc6f88edc53)" d="M 1020.223929 768.96 
L 1022.0175 768.96 
L 1022.0175 643.36156 
L 1020.223929 643.36156 
z
" style="fill:#1f77b4;"/>
   </g>
   <g id="patch_243">
    <path clip-path="url(#pc6f88edc53)" d="M 1023.811071 768.96 
L 1025.604643 768.96 
L 1025.604643 564.648308 
L 1023.811071 564.648308 
z
" style="fill:#1f77b4;"/>
   </g>
   <g id="patch_244">
    <path clip-path="url(#pc6f88edc53)" d="M 1027.398214 768.96 
L 1029.191786 768.96 
L 1029.191786 674.099543 
L 1027.398214 674.099543 
z
" style="fill:#1f77b4;"/>
   </g>
   <g id="patch_245">
    <path clip-path="url(#pc6f88edc53)" d="M 1030.985357 768.96 
L 1032.778929 768.96 
L 1032.778929 693.814289 
L 1030.985357 693.814289 
z
" style="fill:#1f77b4;"/>
   </g>
   <g id="patch_246">
    <path clip-path="url(#pc6f88edc53)" d="M 1034.5725 768.96 
L 1036.366071 768.96 
L 1036.366071 698.891623 
L 1034.5725 698.891623 
z
" style="fill:#1f77b4;"/>
   </g>
   <g id="patch_247">
    <path clip-path="url(#pc6f88edc53)" d="M 1038.159643 768.96 
L 1039.953214 768.96 
L 1039.953214 704.470279 
L 1038.159643 704.470279 
z
" style="fill:#1f77b4;"/>
   </g>
   <g id="patch_248">
    <path clip-path="url(#pc6f88edc53)" d="M 1041.746786 768.96 
L 1043.540357 768.96 
L 1043.540357 703.729955 
L 1041.746786 703.729955 
z
" style="fill:#1f77b4;"/>
   </g>
   <g id="patch_249">
    <path clip-path="url(#pc6f88edc53)" d="M 1045.333929 768.96 
L 1047.1275 768.96 
L 1047.1275 707.973697 
L 1045.333929 707.973697 
z
" style="fill:#1f77b4;"/>
   </g>
   <g id="patch_250">
    <path clip-path="url(#pc6f88edc53)" d="M 1048.921071 768.96 
L 1050.714643 768.96 
L 1050.714643 727.111341 
L 1048.921071 727.111341 
z
" style="fill:#1f77b4;"/>
   </g>
   <g id="patch_251">
    <path clip-path="url(#pc6f88edc53)" d="M 1052.508214 768.96 
L 1054.301786 768.96 
L 1054.301786 739.516126 
L 1052.508214 739.516126 
z
" style="fill:#1f77b4;"/>
   </g>
   <g id="patch_252">
    <path clip-path="url(#pc6f88edc53)" d="M 1056.095357 768.96 
L 1057.888929 768.96 
L 1057.888929 732.923169 
L 1056.095357 732.923169 
z
" style="fill:#1f77b4;"/>
   </g>
   <g id="patch_253">
    <path clip-path="url(#pc6f88edc53)" d="M 1059.6825 768.96 
L 1061.476071 768.96 
L 1061.476071 695.796257 
L 1059.6825 695.796257 
z
" style="fill:#1f77b4;"/>
   </g>
   <g id="patch_254">
    <path clip-path="url(#pc6f88edc53)" d="M 1063.269643 768.96 
L 1065.063214 768.96 
L 1065.063214 704.785062 
L 1063.269643 704.785062 
z
" style="fill:#1f77b4;"/>
   </g>
   <g id="patch_255">
    <path clip-path="url(#pc6f88edc53)" d="M 1066.856786 768.96 
L 1068.650357 768.96 
L 1068.650357 707.775501 
L 1066.856786 707.775501 
z
" style="fill:#1f77b4;"/>
   </g>
   <g id="patch_256">
    <path clip-path="url(#pc6f88edc53)" d="M 1070.443929 768.96 
L 1072.2375 768.96 
L 1072.2375 712.689614 
L 1070.443929 712.689614 
z
" style="fill:#1f77b4;"/>
   </g>
   <g id="patch_257">
    <path clip-path="url(#pc6f88edc53)" d="M 1074.031071 768.96 
L 1075.824643 768.96 
L 1075.824643 727.099683 
L 1074.031071 727.099683 
z
" style="fill:#1f77b4;"/>
   </g>
   <g id="patch_258">
    <path clip-path="url(#pc6f88edc53)" d="M 1077.618214 768.96 
L 1079.411786 768.96 
L 1079.411786 722.302156 
L 1077.618214 722.302156 
z
" style="fill:#1f77b4;"/>
   </g>
   <g id="patch_259">
    <path clip-path="url(#pc6f88edc53)" d="M 1081.205357 768.96 
L 1082.998929 768.96 
L 1082.998929 706.230732 
L 1081.205357 706.230732 
z
" style="fill:#1f77b4;"/>
   </g>
   <g id="patch_260">
    <path clip-path="url(#pc6f88edc53)" d="M 1084.7925 768.96 
L 1086.586071 768.96 
L 1086.586071 709.500978 
L 1084.7925 709.500978 
z
" style="fill:#1f77b4;"/>
   </g>
   <g id="patch_261">
    <path clip-path="url(#pc6f88edc53)" d="M 1088.379643 768.96 
L 1090.173214 768.96 
L 1090.173214 709.028804 
L 1088.379643 709.028804 
z
" style="fill:#1f77b4;"/>
   </g>
   <g id="patch_262">
    <path clip-path="url(#pc6f88edc53)" d="M 1091.966786 768.96 
L 1093.760357 768.96 
L 1093.760357 706.790346 
L 1091.966786 706.790346 
z
" style="fill:#1f77b4;"/>
   </g>
   <g id="patch_263">
    <path clip-path="url(#pc6f88edc53)" d="M 1095.553929 768.96 
L 1097.3475 768.96 
L 1097.3475 707.775501 
L 1095.553929 707.775501 
z
" style="fill:#1f77b4;"/>
   </g>
   <g id="patch_264">
    <path clip-path="url(#pc6f88edc53)" d="M 1099.141071 768.96 
L 1100.934643 768.96 
L 1100.934643 724.459003 
L 1099.141071 724.459003 
z
" style="fill:#1f77b4;"/>
   </g>
   <g id="patch_265">
    <path clip-path="url(#pc6f88edc53)" d="M 1102.728214 768.96 
L 1104.521786 768.96 
L 1104.521786 727.80503 
L 1102.728214 727.80503 
z
" style="fill:#1f77b4;"/>
   </g>
   <g id="patch_266">
    <path clip-path="url(#pc6f88edc53)" d="M 1106.315357 768.96 
L 1108.108929 768.96 
L 1108.108929 698.827501 
L 1106.315357 698.827501 
z
" style="fill:#1f77b4;"/>
   </g>
   <g id="patch_267">
    <path clip-path="url(#pc6f88edc53)" d="M 1109.9025 768.96 
L 1111.696071 768.96 
L 1111.696071 718.355709 
L 1109.9025 718.355709 
z
" style="fill:#1f77b4;"/>
   </g>
   <g id="patch_268">
    <path clip-path="url(#pc6f88edc53)" d="M 1113.489643 768.96 
L 1115.283214 768.96 
L 1115.283214 695.25996 
L 1113.489643 695.25996 
z
" style="fill:#1f77b4;"/>
   </g>
   <g id="patch_269">
    <path clip-path="url(#pc6f88edc53)" d="M 1117.076786 768.96 
L 1118.870357 768.96 
L 1118.870357 698.186276 
L 1117.076786 698.186276 
z
" style="fill:#1f77b4;"/>
   </g>
   <g id="patch_270">
    <path clip-path="url(#pc6f88edc53)" d="M 1120.663929 768.96 
L 1122.4575 768.96 
L 1122.4575 712.095024 
L 1120.663929 712.095024 
z
" style="fill:#1f77b4;"/>
   </g>
   <g id="patch_271">
    <path clip-path="url(#pc6f88edc53)" d="M 1124.251071 768.96 
L 1126.044643 768.96 
L 1126.044643 731.699013 
L 1124.251071 731.699013 
z
" style="fill:#1f77b4;"/>
   </g>
   <g id="patch_272">
    <path clip-path="url(#pc6f88edc53)" d="M 1127.838214 768.96 
L 1129.631786 768.96 
L 1129.631786 722.290497 
L 1127.838214 722.290497 
z
" style="fill:#1f77b4;"/>
   </g>
   <g id="patch_273">
    <path clip-path="url(#pc6f88edc53)" d="M 1131.425357 768.96 
L 1133.218929 768.96 
L 1133.218929 714.135284 
L 1131.425357 714.135284 
z
" style="fill:#1f77b4;"/>
   </g>
   <g id="patch_274">
    <path clip-path="url(#pc6f88edc53)" d="M 1135.0125 768.96 
L 1136.806071 768.96 
L 1136.806071 729.396433 
L 1135.0125 729.396433 
z
" style="fill:#1f77b4;"/>
   </g>
   <g id="patch_275">
    <path clip-path="url(#pc6f88edc53)" d="M 1138.599643 768.96 
L 1140.393214 768.96 
L 1140.393214 741.626338 
L 1138.599643 741.626338 
z
" style="fill:#1f77b4;"/>
   </g>
   <g id="patch_276">
    <path clip-path="url(#pc6f88edc53)" d="M 1142.186786 768.96 
L 1143.980357 768.96 
L 1143.980357 700.902737 
L 1142.186786 700.902737 
z
" style="fill:#1f77b4;"/>
   </g>
   <g id="patch_277">
    <path clip-path="url(#pc6f88edc53)" d="M 1145.773929 768.96 
L 1147.5675 768.96 
L 1147.5675 680.022128 
L 1145.773929 680.022128 
z
" style="fill:#1f77b4;"/>
   </g>
   <g id="patch_278">
    <path clip-path="url(#pc6f88edc53)" d="M 1149.361071 768.96 
L 1151.154643 768.96 
L 1151.154643 738.041309 
L 1149.361071 738.041309 
z
" style="fill:#1f77b4;"/>
   </g>
   <g id="patch_279">
    <path clip-path="url(#pc6f88edc53)" d="M 1152.948214 768.96 
L 1154.741786 768.96 
L 1154.741786 711.517921 
L 1152.948214 711.517921 
z
" style="fill:#1f77b4;"/>
   </g>
   <g id="patch_280">
    <path clip-path="url(#pc6f88edc53)" d="M 1156.535357 768.96 
L 1158.328929 768.96 
L 1158.328929 736.292514 
L 1156.535357 736.292514 
z
" style="fill:#1f77b4;"/>
   </g>
   <g id="patch_281">
    <path clip-path="url(#pc6f88edc53)" d="M 1160.1225 768.96 
L 1161.916071 768.96 
L 1161.916071 701.625572 
L 1160.1225 701.625572 
z
" style="fill:#1f77b4;"/>
   </g>
   <g id="patch_282">
    <path clip-path="url(#pc6f88edc53)" d="M 1163.709643 768.96 
L 1165.503214 768.96 
L 1165.503214 723.100772 
L 1163.709643 723.100772 
z
" style="fill:#1f77b4;"/>
   </g>
   <g id="matplotlib.axis_1">
    <g id="xtick_1">
     <g id="line2d_1">
      <defs>
       <path d="M 0 0 
L 0 3.5 
" id="m949de52853" style="stroke:#000000;stroke-width:0.8;"/>
      </defs>
      <g>
       <use style="stroke:#000000;stroke-width:0.8;" x="163.793571" xlink:href="#m949de52853" y="768.96"/>
      </g>
     </g>
     <g id="text_1">
      <!-- January -->
      <g transform="translate(144.838103 783.558437)scale(0.1 -0.1)">
       <defs>
        <path d="M 628 4666 
L 1259 4666 
L 1259 325 
Q 1259 -519 939 -900 
Q 619 -1281 -91 -1281 
L -331 -1281 
L -331 -750 
L -134 -750 
Q 284 -750 456 -515 
Q 628 -281 628 325 
L 628 4666 
z
" id="DejaVuSans-4a" transform="scale(0.015625)"/>
        <path d="M 2194 1759 
Q 1497 1759 1228 1600 
Q 959 1441 959 1056 
Q 959 750 1161 570 
Q 1363 391 1709 391 
Q 2188 391 2477 730 
Q 2766 1069 2766 1631 
L 2766 1759 
L 2194 1759 
z
M 3341 1997 
L 3341 0 
L 2766 0 
L 2766 531 
Q 2569 213 2275 61 
Q 1981 -91 1556 -91 
Q 1019 -91 701 211 
Q 384 513 384 1019 
Q 384 1609 779 1909 
Q 1175 2209 1959 2209 
L 2766 2209 
L 2766 2266 
Q 2766 2663 2505 2880 
Q 2244 3097 1772 3097 
Q 1472 3097 1187 3025 
Q 903 2953 641 2809 
L 641 3341 
Q 956 3463 1253 3523 
Q 1550 3584 1831 3584 
Q 2591 3584 2966 3190 
Q 3341 2797 3341 1997 
z
" id="DejaVuSans-61" transform="scale(0.015625)"/>
        <path d="M 3513 2113 
L 3513 0 
L 2938 0 
L 2938 2094 
Q 2938 2591 2744 2837 
Q 2550 3084 2163 3084 
Q 1697 3084 1428 2787 
Q 1159 2491 1159 1978 
L 1159 0 
L 581 0 
L 581 3500 
L 1159 3500 
L 1159 2956 
Q 1366 3272 1645 3428 
Q 1925 3584 2291 3584 
Q 2894 3584 3203 3211 
Q 3513 2838 3513 2113 
z
" id="DejaVuSans-6e" transform="scale(0.015625)"/>
        <path d="M 544 1381 
L 544 3500 
L 1119 3500 
L 1119 1403 
Q 1119 906 1312 657 
Q 1506 409 1894 409 
Q 2359 409 2629 706 
Q 2900 1003 2900 1516 
L 2900 3500 
L 3475 3500 
L 3475 0 
L 2900 0 
L 2900 538 
Q 2691 219 2414 64 
Q 2138 -91 1772 -91 
Q 1169 -91 856 284 
Q 544 659 544 1381 
z
M 1991 3584 
L 1991 3584 
z
" id="DejaVuSans-75" transform="scale(0.015625)"/>
        <path d="M 2631 2963 
Q 2534 3019 2420 3045 
Q 2306 3072 2169 3072 
Q 1681 3072 1420 2755 
Q 1159 2438 1159 1844 
L 1159 0 
L 581 0 
L 581 3500 
L 1159 3500 
L 1159 2956 
Q 1341 3275 1631 3429 
Q 1922 3584 2338 3584 
Q 2397 3584 2469 3576 
Q 2541 3569 2628 3553 
L 2631 2963 
z
" id="DejaVuSans-72" transform="scale(0.015625)"/>
        <path d="M 2059 -325 
Q 1816 -950 1584 -1140 
Q 1353 -1331 966 -1331 
L 506 -1331 
L 506 -850 
L 844 -850 
Q 1081 -850 1212 -737 
Q 1344 -625 1503 -206 
L 1606 56 
L 191 3500 
L 800 3500 
L 1894 763 
L 2988 3500 
L 3597 3500 
L 2059 -325 
z
" id="DejaVuSans-79" transform="scale(0.015625)"/>
       </defs>
       <use xlink:href="#DejaVuSans-4a"/>
       <use x="29.492188" xlink:href="#DejaVuSans-61"/>
       <use x="90.771484" xlink:href="#DejaVuSans-6e"/>
       <use x="154.150391" xlink:href="#DejaVuSans-75"/>
       <use x="217.529297" xlink:href="#DejaVuSans-61"/>
       <use x="278.808594" xlink:href="#DejaVuSans-72"/>
       <use x="319.921875" xlink:href="#DejaVuSans-79"/>
      </g>
     </g>
    </g>
    <g id="xtick_2">
     <g id="line2d_2">
      <g>
       <use style="stroke:#000000;stroke-width:0.8;" x="274.995" xlink:href="#m949de52853" y="768.96"/>
      </g>
     </g>
     <g id="text_2">
      <!-- February -->
      <g transform="translate(252.840313 783.558437)scale(0.1 -0.1)">
       <defs>
        <path d="M 628 4666 
L 3309 4666 
L 3309 4134 
L 1259 4134 
L 1259 2759 
L 3109 2759 
L 3109 2228 
L 1259 2228 
L 1259 0 
L 628 0 
L 628 4666 
z
" id="DejaVuSans-46" transform="scale(0.015625)"/>
        <path d="M 3597 1894 
L 3597 1613 
L 953 1613 
Q 991 1019 1311 708 
Q 1631 397 2203 397 
Q 2534 397 2845 478 
Q 3156 559 3463 722 
L 3463 178 
Q 3153 47 2828 -22 
Q 2503 -91 2169 -91 
Q 1331 -91 842 396 
Q 353 884 353 1716 
Q 353 2575 817 3079 
Q 1281 3584 2069 3584 
Q 2775 3584 3186 3129 
Q 3597 2675 3597 1894 
z
M 3022 2063 
Q 3016 2534 2758 2815 
Q 2500 3097 2075 3097 
Q 1594 3097 1305 2825 
Q 1016 2553 972 2059 
L 3022 2063 
z
" id="DejaVuSans-65" transform="scale(0.015625)"/>
        <path d="M 3116 1747 
Q 3116 2381 2855 2742 
Q 2594 3103 2138 3103 
Q 1681 3103 1420 2742 
Q 1159 2381 1159 1747 
Q 1159 1113 1420 752 
Q 1681 391 2138 391 
Q 2594 391 2855 752 
Q 3116 1113 3116 1747 
z
M 1159 2969 
Q 1341 3281 1617 3432 
Q 1894 3584 2278 3584 
Q 2916 3584 3314 3078 
Q 3713 2572 3713 1747 
Q 3713 922 3314 415 
Q 2916 -91 2278 -91 
Q 1894 -91 1617 61 
Q 1341 213 1159 525 
L 1159 0 
L 581 0 
L 581 4863 
L 1159 4863 
L 1159 2969 
z
" id="DejaVuSans-62" transform="scale(0.015625)"/>
       </defs>
       <use xlink:href="#DejaVuSans-46"/>
       <use x="52.019531" xlink:href="#DejaVuSans-65"/>
       <use x="113.542969" xlink:href="#DejaVuSans-62"/>
       <use x="177.019531" xlink:href="#DejaVuSans-72"/>
       <use x="218.132812" xlink:href="#DejaVuSans-75"/>
       <use x="281.511719" xlink:href="#DejaVuSans-61"/>
       <use x="342.791016" xlink:href="#DejaVuSans-72"/>
       <use x="383.904297" xlink:href="#DejaVuSans-79"/>
      </g>
     </g>
    </g>
    <g id="xtick_3">
     <g id="line2d_3">
      <g>
       <use style="stroke:#000000;stroke-width:0.8;" x="375.435" xlink:href="#m949de52853" y="768.96"/>
      </g>
     </g>
     <g id="text_3">
      <!-- March -->
      <g transform="translate(360.195938 783.558437)scale(0.1 -0.1)">
       <defs>
        <path d="M 628 4666 
L 1569 4666 
L 2759 1491 
L 3956 4666 
L 4897 4666 
L 4897 0 
L 4281 0 
L 4281 4097 
L 3078 897 
L 2444 897 
L 1241 4097 
L 1241 0 
L 628 0 
L 628 4666 
z
" id="DejaVuSans-4d" transform="scale(0.015625)"/>
        <path d="M 3122 3366 
L 3122 2828 
Q 2878 2963 2633 3030 
Q 2388 3097 2138 3097 
Q 1578 3097 1268 2742 
Q 959 2388 959 1747 
Q 959 1106 1268 751 
Q 1578 397 2138 397 
Q 2388 397 2633 464 
Q 2878 531 3122 666 
L 3122 134 
Q 2881 22 2623 -34 
Q 2366 -91 2075 -91 
Q 1284 -91 818 406 
Q 353 903 353 1747 
Q 353 2603 823 3093 
Q 1294 3584 2113 3584 
Q 2378 3584 2631 3529 
Q 2884 3475 3122 3366 
z
" id="DejaVuSans-63" transform="scale(0.015625)"/>
        <path d="M 3513 2113 
L 3513 0 
L 2938 0 
L 2938 2094 
Q 2938 2591 2744 2837 
Q 2550 3084 2163 3084 
Q 1697 3084 1428 2787 
Q 1159 2491 1159 1978 
L 1159 0 
L 581 0 
L 581 4863 
L 1159 4863 
L 1159 2956 
Q 1366 3272 1645 3428 
Q 1925 3584 2291 3584 
Q 2894 3584 3203 3211 
Q 3513 2838 3513 2113 
z
" id="DejaVuSans-68" transform="scale(0.015625)"/>
       </defs>
       <use xlink:href="#DejaVuSans-4d"/>
       <use x="86.279297" xlink:href="#DejaVuSans-61"/>
       <use x="147.558594" xlink:href="#DejaVuSans-72"/>
       <use x="186.421875" xlink:href="#DejaVuSans-63"/>
       <use x="241.402344" xlink:href="#DejaVuSans-68"/>
      </g>
     </g>
    </g>
    <g id="xtick_4">
     <g id="line2d_4">
      <g>
       <use style="stroke:#000000;stroke-width:0.8;" x="486.636429" xlink:href="#m949de52853" y="768.96"/>
      </g>
     </g>
     <g id="text_4">
      <!-- April -->
      <g transform="translate(475.208304 783.558437)scale(0.1 -0.1)">
       <defs>
        <path d="M 2188 4044 
L 1331 1722 
L 3047 1722 
L 2188 4044 
z
M 1831 4666 
L 2547 4666 
L 4325 0 
L 3669 0 
L 3244 1197 
L 1141 1197 
L 716 0 
L 50 0 
L 1831 4666 
z
" id="DejaVuSans-41" transform="scale(0.015625)"/>
        <path d="M 1159 525 
L 1159 -1331 
L 581 -1331 
L 581 3500 
L 1159 3500 
L 1159 2969 
Q 1341 3281 1617 3432 
Q 1894 3584 2278 3584 
Q 2916 3584 3314 3078 
Q 3713 2572 3713 1747 
Q 3713 922 3314 415 
Q 2916 -91 2278 -91 
Q 1894 -91 1617 61 
Q 1341 213 1159 525 
z
M 3116 1747 
Q 3116 2381 2855 2742 
Q 2594 3103 2138 3103 
Q 1681 3103 1420 2742 
Q 1159 2381 1159 1747 
Q 1159 1113 1420 752 
Q 1681 391 2138 391 
Q 2594 391 2855 752 
Q 3116 1113 3116 1747 
z
" id="DejaVuSans-70" transform="scale(0.015625)"/>
        <path d="M 603 3500 
L 1178 3500 
L 1178 0 
L 603 0 
L 603 3500 
z
M 603 4863 
L 1178 4863 
L 1178 4134 
L 603 4134 
L 603 4863 
z
" id="DejaVuSans-69" transform="scale(0.015625)"/>
        <path d="M 603 4863 
L 1178 4863 
L 1178 0 
L 603 0 
L 603 4863 
z
" id="DejaVuSans-6c" transform="scale(0.015625)"/>
       </defs>
       <use xlink:href="#DejaVuSans-41"/>
       <use x="68.408203" xlink:href="#DejaVuSans-70"/>
       <use x="131.884766" xlink:href="#DejaVuSans-72"/>
       <use x="172.998047" xlink:href="#DejaVuSans-69"/>
       <use x="200.78125" xlink:href="#DejaVuSans-6c"/>
      </g>
     </g>
    </g>
    <g id="xtick_5">
     <g id="line2d_5">
      <g>
       <use style="stroke:#000000;stroke-width:0.8;" x="594.250714" xlink:href="#m949de52853" y="768.96"/>
      </g>
     </g>
     <g id="text_5">
      <!-- May -->
      <g transform="translate(583.913214 783.558437)scale(0.1 -0.1)">
       <use xlink:href="#DejaVuSans-4d"/>
       <use x="86.279297" xlink:href="#DejaVuSans-61"/>
       <use x="147.558594" xlink:href="#DejaVuSans-79"/>
      </g>
     </g>
    </g>
    <g id="xtick_6">
     <g id="line2d_6">
      <g>
       <use style="stroke:#000000;stroke-width:0.8;" x="705.452143" xlink:href="#m949de52853" y="768.96"/>
      </g>
     </g>
     <g id="text_6">
      <!-- June -->
      <g transform="translate(694.56308 783.558437)scale(0.1 -0.1)">
       <use xlink:href="#DejaVuSans-4a"/>
       <use x="29.492188" xlink:href="#DejaVuSans-75"/>
       <use x="92.871094" xlink:href="#DejaVuSans-6e"/>
       <use x="156.25" xlink:href="#DejaVuSans-65"/>
      </g>
     </g>
    </g>
    <g id="xtick_7">
     <g id="line2d_7">
      <g>
       <use style="stroke:#000000;stroke-width:0.8;" x="813.066429" xlink:href="#m949de52853" y="768.96"/>
      </g>
     </g>
     <g id="text_7">
      <!-- July -->
      <g transform="translate(804.074241 783.558437)scale(0.1 -0.1)">
       <use xlink:href="#DejaVuSans-4a"/>
       <use x="29.492188" xlink:href="#DejaVuSans-75"/>
       <use x="92.871094" xlink:href="#DejaVuSans-6c"/>
       <use x="120.654297" xlink:href="#DejaVuSans-79"/>
      </g>
     </g>
    </g>
    <g id="xtick_8">
     <g id="line2d_8">
      <g>
       <use style="stroke:#000000;stroke-width:0.8;" x="924.267857" xlink:href="#m949de52853" y="768.96"/>
      </g>
     </g>
     <g id="text_8">
      <!-- August -->
      <g transform="translate(906.770982 783.558437)scale(0.1 -0.1)">
       <defs>
        <path d="M 2906 1791 
Q 2906 2416 2648 2759 
Q 2391 3103 1925 3103 
Q 1463 3103 1205 2759 
Q 947 2416 947 1791 
Q 947 1169 1205 825 
Q 1463 481 1925 481 
Q 2391 481 2648 825 
Q 2906 1169 2906 1791 
z
M 3481 434 
Q 3481 -459 3084 -895 
Q 2688 -1331 1869 -1331 
Q 1566 -1331 1297 -1286 
Q 1028 -1241 775 -1147 
L 775 -588 
Q 1028 -725 1275 -790 
Q 1522 -856 1778 -856 
Q 2344 -856 2625 -561 
Q 2906 -266 2906 331 
L 2906 616 
Q 2728 306 2450 153 
Q 2172 0 1784 0 
Q 1141 0 747 490 
Q 353 981 353 1791 
Q 353 2603 747 3093 
Q 1141 3584 1784 3584 
Q 2172 3584 2450 3431 
Q 2728 3278 2906 2969 
L 2906 3500 
L 3481 3500 
L 3481 434 
z
" id="DejaVuSans-67" transform="scale(0.015625)"/>
        <path d="M 2834 3397 
L 2834 2853 
Q 2591 2978 2328 3040 
Q 2066 3103 1784 3103 
Q 1356 3103 1142 2972 
Q 928 2841 928 2578 
Q 928 2378 1081 2264 
Q 1234 2150 1697 2047 
L 1894 2003 
Q 2506 1872 2764 1633 
Q 3022 1394 3022 966 
Q 3022 478 2636 193 
Q 2250 -91 1575 -91 
Q 1294 -91 989 -36 
Q 684 19 347 128 
L 347 722 
Q 666 556 975 473 
Q 1284 391 1588 391 
Q 1994 391 2212 530 
Q 2431 669 2431 922 
Q 2431 1156 2273 1281 
Q 2116 1406 1581 1522 
L 1381 1569 
Q 847 1681 609 1914 
Q 372 2147 372 2553 
Q 372 3047 722 3315 
Q 1072 3584 1716 3584 
Q 2034 3584 2315 3537 
Q 2597 3491 2834 3397 
z
" id="DejaVuSans-73" transform="scale(0.015625)"/>
        <path d="M 1172 4494 
L 1172 3500 
L 2356 3500 
L 2356 3053 
L 1172 3053 
L 1172 1153 
Q 1172 725 1289 603 
Q 1406 481 1766 481 
L 2356 481 
L 2356 0 
L 1766 0 
Q 1100 0 847 248 
Q 594 497 594 1153 
L 594 3053 
L 172 3053 
L 172 3500 
L 594 3500 
L 594 4494 
L 1172 4494 
z
" id="DejaVuSans-74" transform="scale(0.015625)"/>
       </defs>
       <use xlink:href="#DejaVuSans-41"/>
       <use x="68.408203" xlink:href="#DejaVuSans-75"/>
       <use x="131.787109" xlink:href="#DejaVuSans-67"/>
       <use x="195.263672" xlink:href="#DejaVuSans-75"/>
       <use x="258.642578" xlink:href="#DejaVuSans-73"/>
       <use x="310.742188" xlink:href="#DejaVuSans-74"/>
      </g>
     </g>
    </g>
    <g id="xtick_9">
     <g id="line2d_9">
      <g>
       <use style="stroke:#000000;stroke-width:0.8;" x="1035.469286" xlink:href="#m949de52853" y="768.96"/>
      </g>
     </g>
     <g id="text_9">
      <!-- September -->
      <g transform="translate(1007.831004 783.558437)scale(0.1 -0.1)">
       <defs>
        <path d="M 3425 4513 
L 3425 3897 
Q 3066 4069 2747 4153 
Q 2428 4238 2131 4238 
Q 1616 4238 1336 4038 
Q 1056 3838 1056 3469 
Q 1056 3159 1242 3001 
Q 1428 2844 1947 2747 
L 2328 2669 
Q 3034 2534 3370 2195 
Q 3706 1856 3706 1288 
Q 3706 609 3251 259 
Q 2797 -91 1919 -91 
Q 1588 -91 1214 -16 
Q 841 59 441 206 
L 441 856 
Q 825 641 1194 531 
Q 1563 422 1919 422 
Q 2459 422 2753 634 
Q 3047 847 3047 1241 
Q 3047 1584 2836 1778 
Q 2625 1972 2144 2069 
L 1759 2144 
Q 1053 2284 737 2584 
Q 422 2884 422 3419 
Q 422 4038 858 4394 
Q 1294 4750 2059 4750 
Q 2388 4750 2728 4690 
Q 3069 4631 3425 4513 
z
" id="DejaVuSans-53" transform="scale(0.015625)"/>
        <path d="M 3328 2828 
Q 3544 3216 3844 3400 
Q 4144 3584 4550 3584 
Q 5097 3584 5394 3201 
Q 5691 2819 5691 2113 
L 5691 0 
L 5113 0 
L 5113 2094 
Q 5113 2597 4934 2840 
Q 4756 3084 4391 3084 
Q 3944 3084 3684 2787 
Q 3425 2491 3425 1978 
L 3425 0 
L 2847 0 
L 2847 2094 
Q 2847 2600 2669 2842 
Q 2491 3084 2119 3084 
Q 1678 3084 1418 2786 
Q 1159 2488 1159 1978 
L 1159 0 
L 581 0 
L 581 3500 
L 1159 3500 
L 1159 2956 
Q 1356 3278 1631 3431 
Q 1906 3584 2284 3584 
Q 2666 3584 2933 3390 
Q 3200 3197 3328 2828 
z
" id="DejaVuSans-6d" transform="scale(0.015625)"/>
       </defs>
       <use xlink:href="#DejaVuSans-53"/>
       <use x="63.476562" xlink:href="#DejaVuSans-65"/>
       <use x="125" xlink:href="#DejaVuSans-70"/>
       <use x="188.476562" xlink:href="#DejaVuSans-74"/>
       <use x="227.685547" xlink:href="#DejaVuSans-65"/>
       <use x="289.208984" xlink:href="#DejaVuSans-6d"/>
       <use x="386.621094" xlink:href="#DejaVuSans-62"/>
       <use x="450.097656" xlink:href="#DejaVuSans-65"/>
       <use x="511.621094" xlink:href="#DejaVuSans-72"/>
      </g>
     </g>
    </g>
    <g id="xtick_10">
     <g id="line2d_10">
      <g>
       <use style="stroke:#000000;stroke-width:0.8;" x="1143.083571" xlink:href="#m949de52853" y="768.96"/>
      </g>
     </g>
     <g id="text_10">
      <!-- October -->
      <g transform="translate(1123.072634 783.558437)scale(0.1 -0.1)">
       <defs>
        <path d="M 2522 4238 
Q 1834 4238 1429 3725 
Q 1025 3213 1025 2328 
Q 1025 1447 1429 934 
Q 1834 422 2522 422 
Q 3209 422 3611 934 
Q 4013 1447 4013 2328 
Q 4013 3213 3611 3725 
Q 3209 4238 2522 4238 
z
M 2522 4750 
Q 3503 4750 4090 4092 
Q 4678 3434 4678 2328 
Q 4678 1225 4090 567 
Q 3503 -91 2522 -91 
Q 1538 -91 948 565 
Q 359 1222 359 2328 
Q 359 3434 948 4092 
Q 1538 4750 2522 4750 
z
" id="DejaVuSans-4f" transform="scale(0.015625)"/>
        <path d="M 1959 3097 
Q 1497 3097 1228 2736 
Q 959 2375 959 1747 
Q 959 1119 1226 758 
Q 1494 397 1959 397 
Q 2419 397 2687 759 
Q 2956 1122 2956 1747 
Q 2956 2369 2687 2733 
Q 2419 3097 1959 3097 
z
M 1959 3584 
Q 2709 3584 3137 3096 
Q 3566 2609 3566 1747 
Q 3566 888 3137 398 
Q 2709 -91 1959 -91 
Q 1206 -91 779 398 
Q 353 888 353 1747 
Q 353 2609 779 3096 
Q 1206 3584 1959 3584 
z
" id="DejaVuSans-6f" transform="scale(0.015625)"/>
       </defs>
       <use xlink:href="#DejaVuSans-4f"/>
       <use x="78.710938" xlink:href="#DejaVuSans-63"/>
       <use x="133.691406" xlink:href="#DejaVuSans-74"/>
       <use x="172.900391" xlink:href="#DejaVuSans-6f"/>
       <use x="234.082031" xlink:href="#DejaVuSans-62"/>
       <use x="297.558594" xlink:href="#DejaVuSans-65"/>
       <use x="359.082031" xlink:href="#DejaVuSans-72"/>
      </g>
     </g>
    </g>
   </g>
   <g id="matplotlib.axis_2">
    <g id="ytick_1">
     <g id="line2d_11">
      <defs>
       <path d="M 0 0 
L -3.5 0 
" id="m5ea7a17999" style="stroke:#000000;stroke-width:0.8;"/>
      </defs>
      <g>
       <use style="stroke:#000000;stroke-width:0.8;" x="162" xlink:href="#m5ea7a17999" y="768.96"/>
      </g>
     </g>
     <g id="text_11">
      <!-- 0 -->
      <g transform="translate(148.6375 772.759219)scale(0.1 -0.1)">
       <defs>
        <path d="M 2034 4250 
Q 1547 4250 1301 3770 
Q 1056 3291 1056 2328 
Q 1056 1369 1301 889 
Q 1547 409 2034 409 
Q 2525 409 2770 889 
Q 3016 1369 3016 2328 
Q 3016 3291 2770 3770 
Q 2525 4250 2034 4250 
z
M 2034 4750 
Q 2819 4750 3233 4129 
Q 3647 3509 3647 2328 
Q 3647 1150 3233 529 
Q 2819 -91 2034 -91 
Q 1250 -91 836 529 
Q 422 1150 422 2328 
Q 422 3509 836 4129 
Q 1250 4750 2034 4750 
z
" id="DejaVuSans-30" transform="scale(0.015625)"/>
       </defs>
       <use xlink:href="#DejaVuSans-30"/>
      </g>
     </g>
    </g>
    <g id="ytick_2">
     <g id="line2d_12">
      <g>
       <use style="stroke:#000000;stroke-width:0.8;" x="162" xlink:href="#m5ea7a17999" y="652.373683"/>
      </g>
     </g>
     <g id="text_12">
      <!-- 20000 -->
      <g transform="translate(123.1875 656.172901)scale(0.1 -0.1)">
       <defs>
        <path d="M 1228 531 
L 3431 531 
L 3431 0 
L 469 0 
L 469 531 
Q 828 903 1448 1529 
Q 2069 2156 2228 2338 
Q 2531 2678 2651 2914 
Q 2772 3150 2772 3378 
Q 2772 3750 2511 3984 
Q 2250 4219 1831 4219 
Q 1534 4219 1204 4116 
Q 875 4013 500 3803 
L 500 4441 
Q 881 4594 1212 4672 
Q 1544 4750 1819 4750 
Q 2544 4750 2975 4387 
Q 3406 4025 3406 3419 
Q 3406 3131 3298 2873 
Q 3191 2616 2906 2266 
Q 2828 2175 2409 1742 
Q 1991 1309 1228 531 
z
" id="DejaVuSans-32" transform="scale(0.015625)"/>
       </defs>
       <use xlink:href="#DejaVuSans-32"/>
       <use x="63.623047" xlink:href="#DejaVuSans-30"/>
       <use x="127.246094" xlink:href="#DejaVuSans-30"/>
       <use x="190.869141" xlink:href="#DejaVuSans-30"/>
       <use x="254.492188" xlink:href="#DejaVuSans-30"/>
      </g>
     </g>
    </g>
    <g id="ytick_3">
     <g id="line2d_13">
      <g>
       <use style="stroke:#000000;stroke-width:0.8;" x="162" xlink:href="#m5ea7a17999" y="535.787365"/>
      </g>
     </g>
     <g id="text_13">
      <!-- 40000 -->
      <g transform="translate(123.1875 539.586584)scale(0.1 -0.1)">
       <defs>
        <path d="M 2419 4116 
L 825 1625 
L 2419 1625 
L 2419 4116 
z
M 2253 4666 
L 3047 4666 
L 3047 1625 
L 3713 1625 
L 3713 1100 
L 3047 1100 
L 3047 0 
L 2419 0 
L 2419 1100 
L 313 1100 
L 313 1709 
L 2253 4666 
z
" id="DejaVuSans-34" transform="scale(0.015625)"/>
       </defs>
       <use xlink:href="#DejaVuSans-34"/>
       <use x="63.623047" xlink:href="#DejaVuSans-30"/>
       <use x="127.246094" xlink:href="#DejaVuSans-30"/>
       <use x="190.869141" xlink:href="#DejaVuSans-30"/>
       <use x="254.492188" xlink:href="#DejaVuSans-30"/>
      </g>
     </g>
    </g>
    <g id="ytick_4">
     <g id="line2d_14">
      <g>
       <use style="stroke:#000000;stroke-width:0.8;" x="162" xlink:href="#m5ea7a17999" y="419.201048"/>
      </g>
     </g>
     <g id="text_14">
      <!-- 60000 -->
      <g transform="translate(123.1875 423.000267)scale(0.1 -0.1)">
       <defs>
        <path d="M 2113 2584 
Q 1688 2584 1439 2293 
Q 1191 2003 1191 1497 
Q 1191 994 1439 701 
Q 1688 409 2113 409 
Q 2538 409 2786 701 
Q 3034 994 3034 1497 
Q 3034 2003 2786 2293 
Q 2538 2584 2113 2584 
z
M 3366 4563 
L 3366 3988 
Q 3128 4100 2886 4159 
Q 2644 4219 2406 4219 
Q 1781 4219 1451 3797 
Q 1122 3375 1075 2522 
Q 1259 2794 1537 2939 
Q 1816 3084 2150 3084 
Q 2853 3084 3261 2657 
Q 3669 2231 3669 1497 
Q 3669 778 3244 343 
Q 2819 -91 2113 -91 
Q 1303 -91 875 529 
Q 447 1150 447 2328 
Q 447 3434 972 4092 
Q 1497 4750 2381 4750 
Q 2619 4750 2861 4703 
Q 3103 4656 3366 4563 
z
" id="DejaVuSans-36" transform="scale(0.015625)"/>
       </defs>
       <use xlink:href="#DejaVuSans-36"/>
       <use x="63.623047" xlink:href="#DejaVuSans-30"/>
       <use x="127.246094" xlink:href="#DejaVuSans-30"/>
       <use x="190.869141" xlink:href="#DejaVuSans-30"/>
       <use x="254.492188" xlink:href="#DejaVuSans-30"/>
      </g>
     </g>
    </g>
    <g id="ytick_5">
     <g id="line2d_15">
      <g>
       <use style="stroke:#000000;stroke-width:0.8;" x="162" xlink:href="#m5ea7a17999" y="302.614731"/>
      </g>
     </g>
     <g id="text_15">
      <!-- 80000 -->
      <g transform="translate(123.1875 306.41395)scale(0.1 -0.1)">
       <defs>
        <path d="M 2034 2216 
Q 1584 2216 1326 1975 
Q 1069 1734 1069 1313 
Q 1069 891 1326 650 
Q 1584 409 2034 409 
Q 2484 409 2743 651 
Q 3003 894 3003 1313 
Q 3003 1734 2745 1975 
Q 2488 2216 2034 2216 
z
M 1403 2484 
Q 997 2584 770 2862 
Q 544 3141 544 3541 
Q 544 4100 942 4425 
Q 1341 4750 2034 4750 
Q 2731 4750 3128 4425 
Q 3525 4100 3525 3541 
Q 3525 3141 3298 2862 
Q 3072 2584 2669 2484 
Q 3125 2378 3379 2068 
Q 3634 1759 3634 1313 
Q 3634 634 3220 271 
Q 2806 -91 2034 -91 
Q 1263 -91 848 271 
Q 434 634 434 1313 
Q 434 1759 690 2068 
Q 947 2378 1403 2484 
z
M 1172 3481 
Q 1172 3119 1398 2916 
Q 1625 2713 2034 2713 
Q 2441 2713 2670 2916 
Q 2900 3119 2900 3481 
Q 2900 3844 2670 4047 
Q 2441 4250 2034 4250 
Q 1625 4250 1398 4047 
Q 1172 3844 1172 3481 
z
" id="DejaVuSans-38" transform="scale(0.015625)"/>
       </defs>
       <use xlink:href="#DejaVuSans-38"/>
       <use x="63.623047" xlink:href="#DejaVuSans-30"/>
       <use x="127.246094" xlink:href="#DejaVuSans-30"/>
       <use x="190.869141" xlink:href="#DejaVuSans-30"/>
       <use x="254.492188" xlink:href="#DejaVuSans-30"/>
      </g>
     </g>
    </g>
    <g id="ytick_6">
     <g id="line2d_16">
      <g>
       <use style="stroke:#000000;stroke-width:0.8;" x="162" xlink:href="#m5ea7a17999" y="186.028413"/>
      </g>
     </g>
     <g id="text_16">
      <!-- 100000 -->
      <g transform="translate(116.825 189.827632)scale(0.1 -0.1)">
       <defs>
        <path d="M 794 531 
L 1825 531 
L 1825 4091 
L 703 3866 
L 703 4441 
L 1819 4666 
L 2450 4666 
L 2450 531 
L 3481 531 
L 3481 0 
L 794 0 
L 794 531 
z
" id="DejaVuSans-31" transform="scale(0.015625)"/>
       </defs>
       <use xlink:href="#DejaVuSans-31"/>
       <use x="63.623047" xlink:href="#DejaVuSans-30"/>
       <use x="127.246094" xlink:href="#DejaVuSans-30"/>
       <use x="190.869141" xlink:href="#DejaVuSans-30"/>
       <use x="254.492188" xlink:href="#DejaVuSans-30"/>
       <use x="318.115234" xlink:href="#DejaVuSans-30"/>
      </g>
     </g>
    </g>
    <g id="text_17">
     <!-- Persons fully vaccinated -->
     <g transform="translate(110.745312 496.922344)rotate(-90)scale(0.1 -0.1)">
      <defs>
       <path d="M 1259 4147 
L 1259 2394 
L 2053 2394 
Q 2494 2394 2734 2622 
Q 2975 2850 2975 3272 
Q 2975 3691 2734 3919 
Q 2494 4147 2053 4147 
L 1259 4147 
z
M 628 4666 
L 2053 4666 
Q 2838 4666 3239 4311 
Q 3641 3956 3641 3272 
Q 3641 2581 3239 2228 
Q 2838 1875 2053 1875 
L 1259 1875 
L 1259 0 
L 628 0 
L 628 4666 
z
" id="DejaVuSans-50" transform="scale(0.015625)"/>
       <path id="DejaVuSans-20" transform="scale(0.015625)"/>
       <path d="M 2375 4863 
L 2375 4384 
L 1825 4384 
Q 1516 4384 1395 4259 
Q 1275 4134 1275 3809 
L 1275 3500 
L 2222 3500 
L 2222 3053 
L 1275 3053 
L 1275 0 
L 697 0 
L 697 3053 
L 147 3053 
L 147 3500 
L 697 3500 
L 697 3744 
Q 697 4328 969 4595 
Q 1241 4863 1831 4863 
L 2375 4863 
z
" id="DejaVuSans-66" transform="scale(0.015625)"/>
       <path d="M 191 3500 
L 800 3500 
L 1894 563 
L 2988 3500 
L 3597 3500 
L 2284 0 
L 1503 0 
L 191 3500 
z
" id="DejaVuSans-76" transform="scale(0.015625)"/>
       <path d="M 2906 2969 
L 2906 4863 
L 3481 4863 
L 3481 0 
L 2906 0 
L 2906 525 
Q 2725 213 2448 61 
Q 2172 -91 1784 -91 
Q 1150 -91 751 415 
Q 353 922 353 1747 
Q 353 2572 751 3078 
Q 1150 3584 1784 3584 
Q 2172 3584 2448 3432 
Q 2725 3281 2906 2969 
z
M 947 1747 
Q 947 1113 1208 752 
Q 1469 391 1925 391 
Q 2381 391 2643 752 
Q 2906 1113 2906 1747 
Q 2906 2381 2643 2742 
Q 2381 3103 1925 3103 
Q 1469 3103 1208 2742 
Q 947 2381 947 1747 
z
" id="DejaVuSans-64" transform="scale(0.015625)"/>
      </defs>
      <use xlink:href="#DejaVuSans-50"/>
      <use x="56.677734" xlink:href="#DejaVuSans-65"/>
      <use x="118.201172" xlink:href="#DejaVuSans-72"/>
      <use x="159.314453" xlink:href="#DejaVuSans-73"/>
      <use x="211.414062" xlink:href="#DejaVuSans-6f"/>
      <use x="272.595703" xlink:href="#DejaVuSans-6e"/>
      <use x="335.974609" xlink:href="#DejaVuSans-73"/>
      <use x="388.074219" xlink:href="#DejaVuSans-20"/>
      <use x="419.861328" xlink:href="#DejaVuSans-66"/>
      <use x="455.066406" xlink:href="#DejaVuSans-75"/>
      <use x="518.445312" xlink:href="#DejaVuSans-6c"/>
      <use x="546.228516" xlink:href="#DejaVuSans-6c"/>
      <use x="574.011719" xlink:href="#DejaVuSans-79"/>
      <use x="633.191406" xlink:href="#DejaVuSans-20"/>
      <use x="664.978516" xlink:href="#DejaVuSans-76"/>
      <use x="724.158203" xlink:href="#DejaVuSans-61"/>
      <use x="785.4375" xlink:href="#DejaVuSans-63"/>
      <use x="840.417969" xlink:href="#DejaVuSans-63"/>
      <use x="895.398438" xlink:href="#DejaVuSans-69"/>
      <use x="923.181641" xlink:href="#DejaVuSans-6e"/>
      <use x="986.560547" xlink:href="#DejaVuSans-61"/>
      <use x="1047.839844" xlink:href="#DejaVuSans-74"/>
      <use x="1087.048828" xlink:href="#DejaVuSans-65"/>
      <use x="1148.572266" xlink:href="#DejaVuSans-64"/>
     </g>
    </g>
   </g>
   <g id="line2d_17">
    <path clip-path="url(#pc6f88edc53)" d="M 224.775 743.697411 
L 228.362143 743.473398 
L 231.949286 744.731698 
L 235.536429 741.204962 
L 239.123571 740.312244 
L 242.710714 738.203697 
L 246.297857 733.749267 
L 249.885 725.707309 
L 253.472143 717.094078 
L 257.059286 710.696821 
L 260.646429 703.953968 
L 264.233571 699.337982 
L 267.820714 698.283709 
L 271.407857 698.351995 
L 274.995 695.842058 
L 278.582143 700.977686 
L 282.169286 700.785318 
L 285.756429 701.357424 
L 289.343571 698.169621 
L 292.930714 698.535202 
L 296.517857 694.383064 
L 300.105 695.119223 
L 303.692143 689.291573 
L 307.279286 679.487496 
L 310.866429 670.378774 
L 314.453571 667.390833 
L 318.040714 663.800807 
L 321.627857 667.891322 
L 325.215 668.798197 
L 328.802143 663.999837 
L 332.389286 660.12584 
L 335.976429 654.261548 
L 339.563571 662.983038 
L 343.150714 650.320931 
L 346.737857 641.945869 
L 350.325 632.093493 
L 353.912143 609.778039 
L 357.499286 593.146168 
L 361.086429 580.687254 
L 364.673571 550.635466 
L 368.260714 553.759979 
L 371.847857 544.377279 
L 375.435 534.281736 
L 379.022143 540.07108 
L 382.609286 528.727231 
L 386.196429 514.481216 
L 389.783571 508.88424 
L 393.370714 512.841513 
L 396.957857 503.024112 
L 400.545 491.654448 
L 404.132143 481.035933 
L 407.719286 484.507706 
L 411.306429 477.852293 
L 414.893571 479.067289 
L 418.480714 452.956951 
L 422.067857 453.270901 
L 425.655 459.24595 
L 429.242143 474.004945 
L 432.829286 487.300782 
L 436.416429 506.714069 
L 440.003571 520.34634 
L 443.590714 545.422392 
L 450.765 569.732304 
L 454.352143 576.274462 
L 457.939286 580.474068 
L 461.526429 577.44782 
L 465.113571 564.126168 
L 472.287857 560.880905 
L 475.875 544.991022 
L 479.462143 536.376126 
L 483.049286 521.510538 
L 486.636429 514.560328 
L 490.223571 513.467748 
L 493.810714 517.755626 
L 497.397857 504.154999 
L 500.985 489.306899 
L 504.572143 462.338818 
L 508.159286 436.230145 
L 511.746429 396.066992 
L 515.333571 374.036342 
L 518.920714 355.646516 
L 522.507857 342.480589 
L 526.095 337.514012 
L 529.682143 347.069926 
L 533.269286 350.028721 
L 536.856429 368.852414 
L 540.443571 379.718259 
L 544.030714 379.781549 
L 547.617857 388.341483 
L 551.205 382.842772 
L 554.792143 376.576258 
L 558.379286 386.877492 
L 561.966429 400.712956 
L 565.553571 412.705525 
L 569.140714 426.090467 
L 572.727857 431.693272 
L 576.315 447.477394 
L 579.902143 453.351679 
L 583.489286 463.872761 
L 587.076429 476.82217 
L 590.663571 494.840585 
L 594.250714 504.154999 
L 597.837857 517.890533 
L 601.425 511.30757 
L 605.012143 508.117269 
L 608.599286 517.327588 
L 612.186429 498.588003 
L 615.773571 475.939445 
L 619.360714 444.064746 
L 622.947857 432.020546 
L 626.535 446.200774 
L 630.122143 463.154922 
L 633.709286 464.221687 
L 637.296429 467.979098 
L 640.883571 477.535845 
L 644.470714 502.438682 
L 648.057857 513.477741 
L 651.645 514.267197 
L 655.232143 515.672062 
L 658.819286 502.157209 
L 662.406429 526.489607 
L 665.993571 531.443692 
L 669.580714 531.792619 
L 673.167857 533.453974 
L 676.755 550.334007 
L 680.342143 562.342397 
L 683.929286 589.406245 
L 687.516429 598.880549 
L 691.103571 609.59733 
L 694.690714 612.699359 
L 698.277857 627.007831 
L 701.865 637.643002 
L 705.452143 647.521194 
L 709.039286 648.65791 
L 712.626429 644.446646 
L 719.800714 626.018513 
L 723.387857 606.656024 
L 726.975 593.732431 
L 730.562143 576.919851 
L 734.149286 580.596484 
L 737.736429 588.974043 
L 741.323571 602.681263 
L 744.910714 608.580531 
L 748.497857 594.631811 
L 752.085 593.124516 
L 755.672143 605.886554 
L 759.259286 601.937609 
L 762.846429 610.813992 
L 766.433571 603.891263 
L 770.020714 608.581364 
L 773.607857 638.569863 
L 777.195 655.778003 
L 780.782143 660.733754 
L 784.369286 668.810688 
L 791.543571 611.013854 
L 795.130714 615.300067 
L 798.717857 615.036915 
L 802.305 614.533928 
L 805.892143 617.303686 
L 809.479286 624.731067 
L 813.066429 655.393268 
L 816.653571 695.558087 
L 820.240714 695.774605 
L 823.827857 705.920945 
L 827.415 712.600509 
L 831.002143 713.618141 
L 834.589286 713.293365 
L 838.176429 714.425917 
L 841.763571 714.24854 
L 845.350714 712.382326 
L 848.937857 701.850417 
L 852.525 699.263867 
L 859.699286 705.382983 
L 863.286429 706.943574 
L 866.873571 708.345108 
L 870.460714 709.313607 
L 874.047857 713.056028 
L 877.635 712.328196 
L 881.222143 711.821879 
L 888.396429 715.786646 
L 891.983571 718.899501 
L 895.570714 721.441083 
L 899.157857 724.748803 
L 902.745 725.256786 
L 906.332143 718.636349 
L 909.919286 717.12156 
L 913.506429 706.017546 
L 917.093571 703.771593 
L 924.267857 698.863309 
L 927.855 699.349641 
L 931.442143 707.008529 
L 935.029286 706.717063 
L 938.616429 715.611767 
L 942.203571 707.534 
L 945.790714 706.740381 
L 949.377857 706.956065 
L 952.965 709.850737 
L 956.552143 696.043586 
L 960.139286 685.145264 
L 967.313571 668.342677 
L 970.900714 658.274616 
L 974.487857 657.067947 
L 978.075 652.357028 
L 981.662143 664.260491 
L 985.249286 674.031257 
L 988.836429 682.224776 
L 992.423571 695.57391 
L 996.010714 704.949948 
L 999.597857 704.812543 
L 1003.185 704.859177 
L 1006.772143 704.74842 
L 1010.359286 703.570898 
L 1013.946429 700.621265 
L 1017.533571 692.315322 
L 1021.120714 669.535189 
L 1024.707857 663.80164 
L 1028.295 663.890745 
L 1031.882143 664.231344 
L 1035.469286 665.939333 
L 1039.056429 669.002223 
L 1042.643571 678.232528 
L 1046.230714 701.441533 
L 1049.817857 710.786759 
L 1053.405 716.373742 
L 1056.992143 715.931546 
L 1060.579286 715.976515 
L 1067.753571 717.228153 
L 1071.340714 717.226487 
L 1074.927857 714.767349 
L 1078.515 710.954143 
L 1082.102143 712.911961 
L 1085.689286 713.51821 
L 1089.276429 713.377473 
L 1092.863571 712.675457 
L 1096.450714 712.298217 
L 1100.037857 713.084342 
L 1103.625 712.026737 
L 1107.212143 713.291699 
L 1110.799286 711.324721 
L 1114.386429 710.095568 
L 1117.973571 710.712643 
L 1121.560714 711.74693 
L 1125.147857 710.95914 
L 1128.735 713.145966 
L 1132.322143 714.723212 
L 1135.909286 721.346981 
L 1139.496429 721.735047 
L 1143.083571 717.153204 
L 1146.670714 718.059247 
L 1150.257857 716.520307 
L 1153.845 719.685626 
L 1157.432143 715.71836 
L 1161.019286 713.071851 
L 1161.019286 713.071851 
" style="fill:none;stroke:#ffa500;stroke-linecap:square;stroke-width:1.5;"/>
   </g>
   <g id="patch_283">
    <path d="M 162 768.96 
L 162 103.68 
" style="fill:none;stroke:#000000;stroke-linecap:square;stroke-linejoin:miter;stroke-width:0.8;"/>
   </g>
   <g id="patch_284">
    <path d="M 1166.4 768.96 
L 1166.4 103.68 
" style="fill:none;stroke:#000000;stroke-linecap:square;stroke-linejoin:miter;stroke-width:0.8;"/>
   </g>
   <g id="patch_285">
    <path d="M 162 768.96 
L 1166.4 768.96 
" style="fill:none;stroke:#000000;stroke-linecap:square;stroke-linejoin:miter;stroke-width:0.8;"/>
   </g>
   <g id="patch_286">
    <path d="M 162 103.68 
L 1166.4 103.68 
" style="fill:none;stroke:#000000;stroke-linecap:square;stroke-linejoin:miter;stroke-width:0.8;"/>
   </g>
   <g id="text_18">
    <!-- Persons Fully Vaccinated -->
    <g transform="translate(590.380313 97.68)scale(0.12 -0.12)">
     <defs>
      <path d="M 1831 0 
L 50 4666 
L 709 4666 
L 2188 738 
L 3669 4666 
L 4325 4666 
L 2547 0 
L 1831 0 
z
" id="DejaVuSans-56" transform="scale(0.015625)"/>
     </defs>
     <use xlink:href="#DejaVuSans-50"/>
     <use x="56.677734" xlink:href="#DejaVuSans-65"/>
     <use x="118.201172" xlink:href="#DejaVuSans-72"/>
     <use x="159.314453" xlink:href="#DejaVuSans-73"/>
     <use x="211.414062" xlink:href="#DejaVuSans-6f"/>
     <use x="272.595703" xlink:href="#DejaVuSans-6e"/>
     <use x="335.974609" xlink:href="#DejaVuSans-73"/>
     <use x="388.074219" xlink:href="#DejaVuSans-20"/>
     <use x="419.861328" xlink:href="#DejaVuSans-46"/>
     <use x="471.880859" xlink:href="#DejaVuSans-75"/>
     <use x="535.259766" xlink:href="#DejaVuSans-6c"/>
     <use x="563.042969" xlink:href="#DejaVuSans-6c"/>
     <use x="590.826172" xlink:href="#DejaVuSans-79"/>
     <use x="650.005859" xlink:href="#DejaVuSans-20"/>
     <use x="681.792969" xlink:href="#DejaVuSans-56"/>
     <use x="742.451172" xlink:href="#DejaVuSans-61"/>
     <use x="803.730469" xlink:href="#DejaVuSans-63"/>
     <use x="858.710938" xlink:href="#DejaVuSans-63"/>
     <use x="913.691406" xlink:href="#DejaVuSans-69"/>
     <use x="941.474609" xlink:href="#DejaVuSans-6e"/>
     <use x="1004.853516" xlink:href="#DejaVuSans-61"/>
     <use x="1066.132812" xlink:href="#DejaVuSans-74"/>
     <use x="1105.341797" xlink:href="#DejaVuSans-65"/>
     <use x="1166.865234" xlink:href="#DejaVuSans-64"/>
    </g>
   </g>
  </g>
 </g>
 <defs>
  <clipPath id="pc6f88edc53">
   <rect height="665.28" width="1004.4" x="162" y="103.68"/>
  </clipPath>
 </defs>
</svg>
