<?xml version="1.0" encoding="utf-8" standalone="no"?>
<!DOCTYPE svg PUBLIC "-//W3C//DTD SVG 1.1//EN"
  "http://www.w3.org/Graphics/SVG/1.1/DTD/svg11.dtd">
<svg height="864pt" version="1.1" viewBox="0 0 1296 864" width="1296pt" xmlns="http://www.w3.org/2000/svg" xmlns:xlink="http://www.w3.org/1999/xlink">
 <metadata>
  <rdf:RDF xmlns:cc="http://creativecommons.org/ns#" xmlns:dc="http://purl.org/dc/elements/1.1/" xmlns:rdf="http://www.w3.org/1999/02/22-rdf-syntax-ns#">
   <cc:Work>
    <dc:type rdf:resource="http://purl.org/dc/dcmitype/StillImage"/>
    <dc:date>2021-12-21T14:19:52.385289</dc:date>
    <dc:format>image/svg+xml</dc:format>
    <dc:creator>
     <cc:Agent>
      <dc:title>Matplotlib v3.4.2, https://matplotlib.org/</dc:title>
     </cc:Agent>
    </dc:creator>
   </cc:Work>
  </rdf:RDF>
 </metadata>
 <defs>
  <style type="text/css">*{stroke-linecap:butt;stroke-linejoin:round;}</style>
 </defs>
 <g id="figure_1">
  <g id="patch_1">
   <path d="M 0 864 
L 1296 864 
L 1296 0 
L 0 0 
z
" style="fill:#ffffff;"/>
  </g>
  <g id="axes_1">
   <g id="patch_2">
    <path d="M 162 768.96 
L 1166.4 768.96 
L 1166.4 103.68 
L 162 103.68 
z
" style="fill:#ffffff;"/>
   </g>
   <g id="patch_3">
    <path clip-path="url(#p83a8a4ee24)" d="M 162.717429 768.96 
L 164.152286 768.96 
L 164.152286 768.949463 
L 162.717429 768.949463 
z
" style="fill:#1f77b4;"/>
   </g>
   <g id="patch_4">
    <path clip-path="url(#p83a8a4ee24)" d="M 165.587143 768.96 
L 167.022 768.96 
L 167.022 768.921196 
L 165.587143 768.921196 
z
" style="fill:#1f77b4;"/>
   </g>
   <g id="patch_5">
    <path clip-path="url(#p83a8a4ee24)" d="M 168.456857 768.96 
L 169.891714 768.96 
L 169.891714 768.722792 
L 168.456857 768.722792 
z
" style="fill:#1f77b4;"/>
   </g>
   <g id="patch_6">
    <path clip-path="url(#p83a8a4ee24)" d="M 171.326571 768.96 
L 172.761429 768.96 
L 172.761429 767.292914 
L 171.326571 767.292914 
z
" style="fill:#1f77b4;"/>
   </g>
   <g id="patch_7">
    <path clip-path="url(#p83a8a4ee24)" d="M 174.196286 768.96 
L 175.631143 768.96 
L 175.631143 765.577664 
L 174.196286 765.577664 
z
" style="fill:#1f77b4;"/>
   </g>
   <g id="patch_8">
    <path clip-path="url(#p83a8a4ee24)" d="M 177.066 768.96 
L 178.500857 768.96 
L 178.500857 764.642177 
L 177.066 764.642177 
z
" style="fill:#1f77b4;"/>
   </g>
   <g id="patch_9">
    <path clip-path="url(#p83a8a4ee24)" d="M 179.935714 768.96 
L 181.370571 768.96 
L 181.370571 764.074376 
L 179.935714 764.074376 
z
" style="fill:#1f77b4;"/>
   </g>
   <g id="patch_10">
    <path clip-path="url(#p83a8a4ee24)" d="M 182.805429 768.96 
L 184.240286 768.96 
L 184.240286 763.183363 
L 182.805429 763.183363 
z
" style="fill:#1f77b4;"/>
   </g>
   <g id="patch_11">
    <path clip-path="url(#p83a8a4ee24)" d="M 185.675143 768.96 
L 187.11 768.96 
L 187.11 762.334336 
L 185.675143 762.334336 
z
" style="fill:#1f77b4;"/>
   </g>
   <g id="patch_12">
    <path clip-path="url(#p83a8a4ee24)" d="M 188.544857 768.96 
L 189.979714 768.96 
L 189.979714 761.641619 
L 188.544857 761.641619 
z
" style="fill:#1f77b4;"/>
   </g>
   <g id="patch_13">
    <path clip-path="url(#p83a8a4ee24)" d="M 191.414571 768.96 
L 192.849429 768.96 
L 192.849429 760.790346 
L 191.414571 760.790346 
z
" style="fill:#1f77b4;"/>
   </g>
   <g id="patch_14">
    <path clip-path="url(#p83a8a4ee24)" d="M 194.284286 768.96 
L 195.719143 768.96 
L 195.719143 760.614566 
L 194.284286 760.614566 
z
" style="fill:#1f77b4;"/>
   </g>
   <g id="patch_15">
    <path clip-path="url(#p83a8a4ee24)" d="M 197.154 768.96 
L 198.588857 768.96 
L 198.588857 760.506151 
L 197.154 760.506151 
z
" style="fill:#1f77b4;"/>
   </g>
   <g id="patch_16">
    <path clip-path="url(#p83a8a4ee24)" d="M 200.023714 768.96 
L 201.458571 768.96 
L 201.458571 760.454431 
L 200.023714 760.454431 
z
" style="fill:#1f77b4;"/>
   </g>
   <g id="patch_17">
    <path clip-path="url(#p83a8a4ee24)" d="M 202.893429 768.96 
L 204.328286 768.96 
L 204.328286 760.217517 
L 202.893429 760.217517 
z
" style="fill:#1f77b4;"/>
   </g>
   <g id="patch_18">
    <path clip-path="url(#p83a8a4ee24)" d="M 205.763143 768.96 
L 207.198 768.96 
L 207.198 759.823865 
L 205.763143 759.823865 
z
" style="fill:#1f77b4;"/>
   </g>
   <g id="patch_19">
    <path clip-path="url(#p83a8a4ee24)" d="M 208.632857 768.96 
L 210.067714 768.96 
L 210.067714 759.066618 
L 208.632857 759.066618 
z
" style="fill:#1f77b4;"/>
   </g>
   <g id="patch_20">
    <path clip-path="url(#p83a8a4ee24)" d="M 211.502571 768.96 
L 212.937429 768.96 
L 212.937429 758.30873 
L 211.502571 758.30873 
z
" style="fill:#1f77b4;"/>
   </g>
   <g id="patch_21">
    <path clip-path="url(#p83a8a4ee24)" d="M 214.372286 768.96 
L 215.807143 768.96 
L 215.807143 757.764623 
L 214.372286 757.764623 
z
" style="fill:#1f77b4;"/>
   </g>
   <g id="patch_22">
    <path clip-path="url(#p83a8a4ee24)" d="M 217.242 768.96 
L 218.676857 768.96 
L 218.676857 757.564267 
L 217.242 757.564267 
z
" style="fill:#1f77b4;"/>
   </g>
   <g id="patch_23">
    <path clip-path="url(#p83a8a4ee24)" d="M 220.111714 768.96 
L 221.546571 768.96 
L 221.546571 757.292962 
L 220.111714 757.292962 
z
" style="fill:#1f77b4;"/>
   </g>
   <g id="patch_24">
    <path clip-path="url(#p83a8a4ee24)" d="M 222.981429 768.96 
L 224.416286 768.96 
L 224.416286 756.577408 
L 222.981429 756.577408 
z
" style="fill:#1f77b4;"/>
   </g>
   <g id="patch_25">
    <path clip-path="url(#p83a8a4ee24)" d="M 225.851143 768.96 
L 227.286 768.96 
L 227.286 755.37174 
L 225.851143 755.37174 
z
" style="fill:#1f77b4;"/>
   </g>
   <g id="patch_26">
    <path clip-path="url(#p83a8a4ee24)" d="M 228.720857 768.96 
L 230.155714 768.96 
L 230.155714 753.708505 
L 228.720857 753.708505 
z
" style="fill:#1f77b4;"/>
   </g>
   <g id="patch_27">
    <path clip-path="url(#p83a8a4ee24)" d="M 231.590571 768.96 
L 233.025429 768.96 
L 233.025429 752.296757 
L 231.590571 752.296757 
z
" style="fill:#1f77b4;"/>
   </g>
   <g id="patch_28">
    <path clip-path="url(#p83a8a4ee24)" d="M 234.460286 768.96 
L 235.895143 768.96 
L 235.895143 751.034662 
L 234.460286 751.034662 
z
" style="fill:#1f77b4;"/>
   </g>
   <g id="patch_29">
    <path clip-path="url(#p83a8a4ee24)" d="M 237.33 768.96 
L 238.764857 768.96 
L 238.764857 750.338684 
L 237.33 750.338684 
z
" style="fill:#1f77b4;"/>
   </g>
   <g id="patch_30">
    <path clip-path="url(#p83a8a4ee24)" d="M 240.199714 768.96 
L 241.634571 768.96 
L 241.634571 749.948748 
L 240.199714 749.948748 
z
" style="fill:#1f77b4;"/>
   </g>
   <g id="patch_31">
    <path clip-path="url(#p83a8a4ee24)" d="M 243.069429 768.96 
L 244.504286 768.96 
L 244.504286 749.260819 
L 243.069429 749.260819 
z
" style="fill:#1f77b4;"/>
   </g>
   <g id="patch_32">
    <path clip-path="url(#p83a8a4ee24)" d="M 245.939143 768.96 
L 247.374 768.96 
L 247.374 747.781172 
L 245.939143 747.781172 
z
" style="fill:#1f77b4;"/>
   </g>
   <g id="patch_33">
    <path clip-path="url(#p83a8a4ee24)" d="M 248.808857 768.96 
L 250.243714 768.96 
L 250.243714 746.679614 
L 248.808857 746.679614 
z
" style="fill:#1f77b4;"/>
   </g>
   <g id="patch_34">
    <path clip-path="url(#p83a8a4ee24)" d="M 251.678571 768.96 
L 253.113429 768.96 
L 253.113429 745.20101 
L 251.678571 745.20101 
z
" style="fill:#1f77b4;"/>
   </g>
   <g id="patch_35">
    <path clip-path="url(#p83a8a4ee24)" d="M 254.548286 768.96 
L 255.983143 768.96 
L 255.983143 744.018474 
L 254.548286 744.018474 
z
" style="fill:#1f77b4;"/>
   </g>
   <g id="patch_36">
    <path clip-path="url(#p83a8a4ee24)" d="M 257.418 768.96 
L 258.852857 768.96 
L 258.852857 742.981179 
L 257.418 742.981179 
z
" style="fill:#1f77b4;"/>
   </g>
   <g id="patch_37">
    <path clip-path="url(#p83a8a4ee24)" d="M 260.287714 768.96 
L 261.722571 768.96 
L 261.722571 742.628469 
L 260.287714 742.628469 
z
" style="fill:#1f77b4;"/>
   </g>
   <g id="patch_38">
    <path clip-path="url(#p83a8a4ee24)" d="M 263.157429 768.96 
L 264.592286 768.96 
L 264.592286 741.438874 
L 263.157429 741.438874 
z
" style="fill:#1f77b4;"/>
   </g>
   <g id="patch_39">
    <path clip-path="url(#p83a8a4ee24)" d="M 266.027143 768.96 
L 267.462 768.96 
L 267.462 739.967972 
L 266.027143 739.967972 
z
" style="fill:#1f77b4;"/>
   </g>
   <g id="patch_40">
    <path clip-path="url(#p83a8a4ee24)" d="M 268.896857 768.96 
L 270.331714 768.96 
L 270.331714 738.193487 
L 268.896857 738.193487 
z
" style="fill:#1f77b4;"/>
   </g>
   <g id="patch_41">
    <path clip-path="url(#p83a8a4ee24)" d="M 271.766571 768.96 
L 273.201429 768.96 
L 273.201429 735.658653 
L 271.766571 735.658653 
z
" style="fill:#1f77b4;"/>
   </g>
   <g id="patch_42">
    <path clip-path="url(#p83a8a4ee24)" d="M 274.636286 768.96 
L 276.071143 768.96 
L 276.071143 733.392851 
L 274.636286 733.392851 
z
" style="fill:#1f77b4;"/>
   </g>
   <g id="patch_43">
    <path clip-path="url(#p83a8a4ee24)" d="M 277.506 768.96 
L 278.940857 768.96 
L 278.940857 731.974712 
L 277.506 731.974712 
z
" style="fill:#1f77b4;"/>
   </g>
   <g id="patch_44">
    <path clip-path="url(#p83a8a4ee24)" d="M 280.375714 768.96 
L 281.810571 768.96 
L 281.810571 731.210593 
L 280.375714 731.210593 
z
" style="fill:#1f77b4;"/>
   </g>
   <g id="patch_45">
    <path clip-path="url(#p83a8a4ee24)" d="M 283.245429 768.96 
L 284.680286 768.96 
L 284.680286 730.462734 
L 283.245429 730.462734 
z
" style="fill:#1f77b4;"/>
   </g>
   <g id="patch_46">
    <path clip-path="url(#p83a8a4ee24)" d="M 286.115143 768.96 
L 287.55 768.96 
L 287.55 729.023976 
L 286.115143 729.023976 
z
" style="fill:#1f77b4;"/>
   </g>
   <g id="patch_47">
    <path clip-path="url(#p83a8a4ee24)" d="M 288.984857 768.96 
L 290.419714 768.96 
L 290.419714 726.633018 
L 288.984857 726.633018 
z
" style="fill:#1f77b4;"/>
   </g>
   <g id="patch_48">
    <path clip-path="url(#p83a8a4ee24)" d="M 291.854571 768.96 
L 293.289429 768.96 
L 293.289429 723.521051 
L 291.854571 723.521051 
z
" style="fill:#1f77b4;"/>
   </g>
   <g id="patch_49">
    <path clip-path="url(#p83a8a4ee24)" d="M 294.724286 768.96 
L 296.159143 768.96 
L 296.159143 720.568149 
L 294.724286 720.568149 
z
" style="fill:#1f77b4;"/>
   </g>
   <g id="patch_50">
    <path clip-path="url(#p83a8a4ee24)" d="M 297.594 768.96 
L 299.028857 768.96 
L 299.028857 720.101676 
L 297.594 720.101676 
z
" style="fill:#1f77b4;"/>
   </g>
   <g id="patch_51">
    <path clip-path="url(#p83a8a4ee24)" d="M 300.463714 768.96 
L 301.898571 768.96 
L 301.898571 717.935838 
L 300.463714 717.935838 
z
" style="fill:#1f77b4;"/>
   </g>
   <g id="patch_52">
    <path clip-path="url(#p83a8a4ee24)" d="M 303.333429 768.96 
L 304.768286 768.96 
L 304.768286 716.214384 
L 303.333429 716.214384 
z
" style="fill:#1f77b4;"/>
   </g>
   <g id="patch_53">
    <path clip-path="url(#p83a8a4ee24)" d="M 306.203143 768.96 
L 307.638 768.96 
L 307.638 713.636387 
L 306.203143 713.636387 
z
" style="fill:#1f77b4;"/>
   </g>
   <g id="patch_54">
    <path clip-path="url(#p83a8a4ee24)" d="M 309.072857 768.96 
L 310.507714 768.96 
L 310.507714 708.697545 
L 309.072857 708.697545 
z
" style="fill:#1f77b4;"/>
   </g>
   <g id="patch_55">
    <path clip-path="url(#p83a8a4ee24)" d="M 311.942571 768.96 
L 313.377429 768.96 
L 313.377429 703.582202 
L 311.942571 703.582202 
z
" style="fill:#1f77b4;"/>
   </g>
   <g id="patch_56">
    <path clip-path="url(#p83a8a4ee24)" d="M 314.812286 768.96 
L 316.247143 768.96 
L 316.247143 699.096622 
L 314.812286 699.096622 
z
" style="fill:#1f77b4;"/>
   </g>
   <g id="patch_57">
    <path clip-path="url(#p83a8a4ee24)" d="M 317.682 768.96 
L 319.116857 768.96 
L 319.116857 695.210212 
L 317.682 695.210212 
z
" style="fill:#1f77b4;"/>
   </g>
   <g id="patch_58">
    <path clip-path="url(#p83a8a4ee24)" d="M 320.551714 768.96 
L 321.986571 768.96 
L 321.986571 693.360981 
L 320.551714 693.360981 
z
" style="fill:#1f77b4;"/>
   </g>
   <g id="patch_59">
    <path clip-path="url(#p83a8a4ee24)" d="M 323.421429 768.96 
L 324.856286 768.96 
L 324.856286 690.562438 
L 323.421429 690.562438 
z
" style="fill:#1f77b4;"/>
   </g>
   <g id="patch_60">
    <path clip-path="url(#p83a8a4ee24)" d="M 326.291143 768.96 
L 327.726 768.96 
L 327.726 686.766178 
L 326.291143 686.766178 
z
" style="fill:#1f77b4;"/>
   </g>
   <g id="patch_61">
    <path clip-path="url(#p83a8a4ee24)" d="M 329.160857 768.96 
L 330.595714 768.96 
L 330.595714 682.413001 
L 329.160857 682.413001 
z
" style="fill:#1f77b4;"/>
   </g>
   <g id="patch_62">
    <path clip-path="url(#p83a8a4ee24)" d="M 332.030571 768.96 
L 333.465429 768.96 
L 333.465429 676.064365 
L 332.030571 676.064365 
z
" style="fill:#1f77b4;"/>
   </g>
   <g id="patch_63">
    <path clip-path="url(#p83a8a4ee24)" d="M 334.900286 768.96 
L 336.335143 768.96 
L 336.335143 670.101251 
L 334.900286 670.101251 
z
" style="fill:#1f77b4;"/>
   </g>
   <g id="patch_64">
    <path clip-path="url(#p83a8a4ee24)" d="M 337.77 768.96 
L 339.204857 768.96 
L 339.204857 665.623266 
L 337.77 665.623266 
z
" style="fill:#1f77b4;"/>
   </g>
   <g id="patch_65">
    <path clip-path="url(#p83a8a4ee24)" d="M 340.639714 768.96 
L 342.074571 768.96 
L 342.074571 664.217188 
L 340.639714 664.217188 
z
" style="fill:#1f77b4;"/>
   </g>
   <g id="patch_66">
    <path clip-path="url(#p83a8a4ee24)" d="M 343.509429 768.96 
L 344.944286 768.96 
L 344.944286 660.375492 
L 343.509429 660.375492 
z
" style="fill:#1f77b4;"/>
   </g>
   <g id="patch_67">
    <path clip-path="url(#p83a8a4ee24)" d="M 346.379143 768.96 
L 347.814 768.96 
L 347.814 655.403409 
L 346.379143 655.403409 
z
" style="fill:#1f77b4;"/>
   </g>
   <g id="patch_68">
    <path clip-path="url(#p83a8a4ee24)" d="M 349.248857 768.96 
L 350.683714 768.96 
L 350.683714 649.915273 
L 349.248857 649.915273 
z
" style="fill:#1f77b4;"/>
   </g>
   <g id="patch_69">
    <path clip-path="url(#p83a8a4ee24)" d="M 352.118571 768.96 
L 353.553429 768.96 
L 353.553429 644.038457 
L 352.118571 644.038457 
z
" style="fill:#1f77b4;"/>
   </g>
   <g id="patch_70">
    <path clip-path="url(#p83a8a4ee24)" d="M 354.988286 768.96 
L 356.423143 768.96 
L 356.423143 637.371609 
L 354.988286 637.371609 
z
" style="fill:#1f77b4;"/>
   </g>
   <g id="patch_71">
    <path clip-path="url(#p83a8a4ee24)" d="M 357.858 768.96 
L 359.292857 768.96 
L 359.292857 633.054642 
L 357.858 633.054642 
z
" style="fill:#1f77b4;"/>
   </g>
   <g id="patch_72">
    <path clip-path="url(#p83a8a4ee24)" d="M 360.727714 768.96 
L 362.162571 768.96 
L 362.162571 628.771745 
L 360.727714 628.771745 
z
" style="fill:#1f77b4;"/>
   </g>
   <g id="patch_73">
    <path clip-path="url(#p83a8a4ee24)" d="M 363.597429 768.96 
L 365.032286 768.96 
L 365.032286 624.958825 
L 363.597429 624.958825 
z
" style="fill:#1f77b4;"/>
   </g>
   <g id="patch_74">
    <path clip-path="url(#p83a8a4ee24)" d="M 366.467143 768.96 
L 367.902 768.96 
L 367.902 620.68847 
L 366.467143 620.68847 
z
" style="fill:#1f77b4;"/>
   </g>
   <g id="patch_75">
    <path clip-path="url(#p83a8a4ee24)" d="M 369.336857 768.96 
L 370.771714 768.96 
L 370.771714 616.875175 
L 369.336857 616.875175 
z
" style="fill:#1f77b4;"/>
   </g>
   <g id="patch_76">
    <path clip-path="url(#p83a8a4ee24)" d="M 372.206571 768.96 
L 373.641429 768.96 
L 373.641429 612.525314 
L 372.206571 612.525314 
z
" style="fill:#1f77b4;"/>
   </g>
   <g id="patch_77">
    <path clip-path="url(#p83a8a4ee24)" d="M 375.076286 768.96 
L 376.511143 768.96 
L 376.511143 608.062653 
L 375.076286 608.062653 
z
" style="fill:#1f77b4;"/>
   </g>
   <g id="patch_78">
    <path clip-path="url(#p83a8a4ee24)" d="M 377.946 768.96 
L 379.380857 768.96 
L 379.380857 605.406381 
L 377.946 605.406381 
z
" style="fill:#1f77b4;"/>
   </g>
   <g id="patch_79">
    <path clip-path="url(#p83a8a4ee24)" d="M 380.815714 768.96 
L 382.250571 768.96 
L 382.250571 603.95214 
L 380.815714 603.95214 
z
" style="fill:#1f77b4;"/>
   </g>
   <g id="patch_80">
    <path clip-path="url(#p83a8a4ee24)" d="M 383.685429 768.96 
L 385.120286 768.96 
L 385.120286 601.553239 
L 383.685429 601.553239 
z
" style="fill:#1f77b4;"/>
   </g>
   <g id="patch_81">
    <path clip-path="url(#p83a8a4ee24)" d="M 386.555143 768.96 
L 387.99 768.96 
L 387.99 598.686154 
L 386.555143 598.686154 
z
" style="fill:#1f77b4;"/>
   </g>
   <g id="patch_82">
    <path clip-path="url(#p83a8a4ee24)" d="M 389.424857 768.96 
L 390.859714 768.96 
L 390.859714 595.688886 
L 389.424857 595.688886 
z
" style="fill:#1f77b4;"/>
   </g>
   <g id="patch_83">
    <path clip-path="url(#p83a8a4ee24)" d="M 392.294571 768.96 
L 393.729429 768.96 
L 393.729429 591.827106 
L 392.294571 591.827106 
z
" style="fill:#1f77b4;"/>
   </g>
   <g id="patch_84">
    <path clip-path="url(#p83a8a4ee24)" d="M 395.164286 768.96 
L 396.599143 768.96 
L 396.599143 587.033986 
L 395.164286 587.033986 
z
" style="fill:#1f77b4;"/>
   </g>
   <g id="patch_85">
    <path clip-path="url(#p83a8a4ee24)" d="M 398.034 768.96 
L 399.468857 768.96 
L 399.468857 582.876619 
L 398.034 582.876619 
z
" style="fill:#1f77b4;"/>
   </g>
   <g id="patch_86">
    <path clip-path="url(#p83a8a4ee24)" d="M 400.903714 768.96 
L 402.338571 768.96 
L 402.338571 581.228145 
L 400.903714 581.228145 
z
" style="fill:#1f77b4;"/>
   </g>
   <g id="patch_87">
    <path clip-path="url(#p83a8a4ee24)" d="M 403.773429 768.96 
L 405.208286 768.96 
L 405.208286 578.688552 
L 403.773429 578.688552 
z
" style="fill:#1f77b4;"/>
   </g>
   <g id="patch_88">
    <path clip-path="url(#p83a8a4ee24)" d="M 406.643143 768.96 
L 408.078 768.96 
L 408.078 574.104933 
L 406.643143 574.104933 
z
" style="fill:#1f77b4;"/>
   </g>
   <g id="patch_89">
    <path clip-path="url(#p83a8a4ee24)" d="M 409.512857 768.96 
L 410.947714 768.96 
L 410.947714 570.230638 
L 409.512857 570.230638 
z
" style="fill:#1f77b4;"/>
   </g>
   <g id="patch_90">
    <path clip-path="url(#p83a8a4ee24)" d="M 412.382571 768.96 
L 413.817429 768.96 
L 413.817429 564.838989 
L 412.382571 564.838989 
z
" style="fill:#1f77b4;"/>
   </g>
   <g id="patch_91">
    <path clip-path="url(#p83a8a4ee24)" d="M 415.252286 768.96 
L 416.687143 768.96 
L 416.687143 559.401208 
L 415.252286 559.401208 
z
" style="fill:#1f77b4;"/>
   </g>
   <g id="patch_92">
    <path clip-path="url(#p83a8a4ee24)" d="M 418.122 768.96 
L 419.556857 768.96 
L 419.556857 555.24336 
L 418.122 555.24336 
z
" style="fill:#1f77b4;"/>
   </g>
   <g id="patch_93">
    <path clip-path="url(#p83a8a4ee24)" d="M 420.991714 768.96 
L 422.426571 768.96 
L 422.426571 554.090509 
L 420.991714 554.090509 
z
" style="fill:#1f77b4;"/>
   </g>
   <g id="patch_94">
    <path clip-path="url(#p83a8a4ee24)" d="M 423.861429 768.96 
L 425.296286 768.96 
L 425.296286 550.154037 
L 423.861429 550.154037 
z
" style="fill:#1f77b4;"/>
   </g>
   <g id="patch_95">
    <path clip-path="url(#p83a8a4ee24)" d="M 426.731143 768.96 
L 428.166 768.96 
L 428.166 544.13586 
L 426.731143 544.13586 
z
" style="fill:#1f77b4;"/>
   </g>
   <g id="patch_96">
    <path clip-path="url(#p83a8a4ee24)" d="M 429.600857 768.96 
L 431.035714 768.96 
L 431.035714 537.462995 
L 429.600857 537.462995 
z
" style="fill:#1f77b4;"/>
   </g>
   <g id="patch_97">
    <path clip-path="url(#p83a8a4ee24)" d="M 432.470571 768.96 
L 433.905429 768.96 
L 433.905429 529.474416 
L 432.470571 529.474416 
z
" style="fill:#1f77b4;"/>
   </g>
   <g id="patch_98">
    <path clip-path="url(#p83a8a4ee24)" d="M 435.340286 768.96 
L 436.775143 768.96 
L 436.775143 520.040206 
L 435.340286 520.040206 
z
" style="fill:#1f77b4;"/>
   </g>
   <g id="patch_99">
    <path clip-path="url(#p83a8a4ee24)" d="M 438.21 768.96 
L 439.644857 768.96 
L 439.644857 513.797283 
L 438.21 513.797283 
z
" style="fill:#1f77b4;"/>
   </g>
   <g id="patch_100">
    <path clip-path="url(#p83a8a4ee24)" d="M 441.079714 768.96 
L 442.514571 768.96 
L 442.514571 510.786296 
L 441.079714 510.786296 
z
" style="fill:#1f77b4;"/>
   </g>
   <g id="patch_101">
    <path clip-path="url(#p83a8a4ee24)" d="M 443.949429 768.96 
L 445.384286 768.96 
L 445.384286 505.629795 
L 443.949429 505.629795 
z
" style="fill:#1f77b4;"/>
   </g>
   <g id="patch_102">
    <path clip-path="url(#p83a8a4ee24)" d="M 446.819143 768.96 
L 448.254 768.96 
L 448.254 499.230775 
L 446.819143 499.230775 
z
" style="fill:#1f77b4;"/>
   </g>
   <g id="patch_103">
    <path clip-path="url(#p83a8a4ee24)" d="M 449.688857 768.96 
L 451.123714 768.96 
L 451.123714 493.709611 
L 449.688857 493.709611 
z
" style="fill:#1f77b4;"/>
   </g>
   <g id="patch_104">
    <path clip-path="url(#p83a8a4ee24)" d="M 452.558571 768.96 
L 453.993429 768.96 
L 453.993429 486.187157 
L 452.558571 486.187157 
z
" style="fill:#1f77b4;"/>
   </g>
   <g id="patch_105">
    <path clip-path="url(#p83a8a4ee24)" d="M 455.428286 768.96 
L 456.863143 768.96 
L 456.863143 478.863829 
L 455.428286 478.863829 
z
" style="fill:#1f77b4;"/>
   </g>
   <g id="patch_106">
    <path clip-path="url(#p83a8a4ee24)" d="M 458.298 768.96 
L 459.732857 768.96 
L 459.732857 473.78753 
L 458.298 473.78753 
z
" style="fill:#1f77b4;"/>
   </g>
   <g id="patch_107">
    <path clip-path="url(#p83a8a4ee24)" d="M 461.167714 768.96 
L 462.602571 768.96 
L 462.602571 470.819411 
L 461.167714 470.819411 
z
" style="fill:#1f77b4;"/>
   </g>
   <g id="patch_108">
    <path clip-path="url(#p83a8a4ee24)" d="M 464.037429 768.96 
L 465.472286 768.96 
L 465.472286 466.583207 
L 464.037429 466.583207 
z
" style="fill:#1f77b4;"/>
   </g>
   <g id="patch_109">
    <path clip-path="url(#p83a8a4ee24)" d="M 466.907143 768.96 
L 468.342 768.96 
L 468.342 459.808506 
L 466.907143 459.808506 
z
" style="fill:#1f77b4;"/>
   </g>
   <g id="patch_110">
    <path clip-path="url(#p83a8a4ee24)" d="M 469.776857 768.96 
L 471.211714 768.96 
L 471.211714 453.818408 
L 469.776857 453.818408 
z
" style="fill:#1f77b4;"/>
   </g>
   <g id="patch_111">
    <path clip-path="url(#p83a8a4ee24)" d="M 472.646571 768.96 
L 474.081429 768.96 
L 474.081429 447.528178 
L 472.646571 447.528178 
z
" style="fill:#1f77b4;"/>
   </g>
   <g id="patch_112">
    <path clip-path="url(#p83a8a4ee24)" d="M 475.516286 768.96 
L 476.951143 768.96 
L 476.951143 441.764538 
L 475.516286 441.764538 
z
" style="fill:#1f77b4;"/>
   </g>
   <g id="patch_113">
    <path clip-path="url(#p83a8a4ee24)" d="M 478.386 768.96 
L 479.820857 768.96 
L 479.820857 437.992025 
L 478.386 437.992025 
z
" style="fill:#1f77b4;"/>
   </g>
   <g id="patch_114">
    <path clip-path="url(#p83a8a4ee24)" d="M 481.255714 768.96 
L 482.690571 768.96 
L 482.690571 436.437392 
L 481.255714 436.437392 
z
" style="fill:#1f77b4;"/>
   </g>
   <g id="patch_115">
    <path clip-path="url(#p83a8a4ee24)" d="M 484.125429 768.96 
L 485.560286 768.96 
L 485.560286 432.853629 
L 484.125429 432.853629 
z
" style="fill:#1f77b4;"/>
   </g>
   <g id="patch_116">
    <path clip-path="url(#p83a8a4ee24)" d="M 486.995143 768.96 
L 488.43 768.96 
L 488.43 427.742591 
L 486.995143 427.742591 
z
" style="fill:#1f77b4;"/>
   </g>
   <g id="patch_117">
    <path clip-path="url(#p83a8a4ee24)" d="M 489.864857 768.96 
L 491.299714 768.96 
L 491.299714 422.430288 
L 489.864857 422.430288 
z
" style="fill:#1f77b4;"/>
   </g>
   <g id="patch_118">
    <path clip-path="url(#p83a8a4ee24)" d="M 492.734571 768.96 
L 494.169429 768.96 
L 494.169429 417.291143 
L 492.734571 417.291143 
z
" style="fill:#1f77b4;"/>
   </g>
   <g id="patch_119">
    <path clip-path="url(#p83a8a4ee24)" d="M 495.604286 768.96 
L 497.039143 768.96 
L 497.039143 412.862686 
L 495.604286 412.862686 
z
" style="fill:#1f77b4;"/>
   </g>
   <g id="patch_120">
    <path clip-path="url(#p83a8a4ee24)" d="M 498.474 768.96 
L 499.908857 768.96 
L 499.908857 410.889128 
L 498.474 410.889128 
z
" style="fill:#1f77b4;"/>
   </g>
   <g id="patch_121">
    <path clip-path="url(#p83a8a4ee24)" d="M 501.343714 768.96 
L 502.778571 768.96 
L 502.778571 410.248453 
L 501.343714 410.248453 
z
" style="fill:#1f77b4;"/>
   </g>
   <g id="patch_122">
    <path clip-path="url(#p83a8a4ee24)" d="M 504.213429 768.96 
L 505.648286 768.96 
L 505.648286 408.05729 
L 504.213429 408.05729 
z
" style="fill:#1f77b4;"/>
   </g>
   <g id="patch_123">
    <path clip-path="url(#p83a8a4ee24)" d="M 507.083143 768.96 
L 508.518 768.96 
L 508.518 402.333844 
L 507.083143 402.333844 
z
" style="fill:#1f77b4;"/>
   </g>
   <g id="patch_124">
    <path clip-path="url(#p83a8a4ee24)" d="M 509.952857 768.96 
L 511.387714 768.96 
L 511.387714 396.799549 
L 509.952857 396.799549 
z
" style="fill:#1f77b4;"/>
   </g>
   <g id="patch_125">
    <path clip-path="url(#p83a8a4ee24)" d="M 512.822571 768.96 
L 514.257429 768.96 
L 514.257429 392.63432 
L 512.822571 392.63432 
z
" style="fill:#1f77b4;"/>
   </g>
   <g id="patch_126">
    <path clip-path="url(#p83a8a4ee24)" d="M 515.692286 768.96 
L 517.127143 768.96 
L 517.127143 386.882474 
L 515.692286 386.882474 
z
" style="fill:#1f77b4;"/>
   </g>
   <g id="patch_127">
    <path clip-path="url(#p83a8a4ee24)" d="M 518.562 768.96 
L 519.996857 768.96 
L 519.996857 382.928031 
L 518.562 382.928031 
z
" style="fill:#1f77b4;"/>
   </g>
   <g id="patch_128">
    <path clip-path="url(#p83a8a4ee24)" d="M 521.431714 768.96 
L 522.866571 768.96 
L 522.866571 379.242405 
L 521.431714 379.242405 
z
" style="fill:#1f77b4;"/>
   </g>
   <g id="patch_129">
    <path clip-path="url(#p83a8a4ee24)" d="M 524.301429 768.96 
L 525.736286 768.96 
L 525.736286 375.89438 
L 524.301429 375.89438 
z
" style="fill:#1f77b4;"/>
   </g>
   <g id="patch_130">
    <path clip-path="url(#p83a8a4ee24)" d="M 527.171143 768.96 
L 528.606 768.96 
L 528.606 371.631299 
L 527.171143 371.631299 
z
" style="fill:#1f77b4;"/>
   </g>
   <g id="patch_131">
    <path clip-path="url(#p83a8a4ee24)" d="M 530.040857 768.96 
L 531.475714 768.96 
L 531.475714 367.751709 
L 530.040857 367.751709 
z
" style="fill:#1f77b4;"/>
   </g>
   <g id="patch_132">
    <path clip-path="url(#p83a8a4ee24)" d="M 532.910571 768.96 
L 534.345429 768.96 
L 534.345429 363.732094 
L 532.910571 363.732094 
z
" style="fill:#1f77b4;"/>
   </g>
   <g id="patch_133">
    <path clip-path="url(#p83a8a4ee24)" d="M 535.780286 768.96 
L 537.215143 768.96 
L 537.215143 357.903415 
L 535.780286 357.903415 
z
" style="fill:#1f77b4;"/>
   </g>
   <g id="patch_134">
    <path clip-path="url(#p83a8a4ee24)" d="M 538.65 768.96 
L 540.084857 768.96 
L 540.084857 354.699185 
L 538.65 354.699185 
z
" style="fill:#1f77b4;"/>
   </g>
   <g id="patch_135">
    <path clip-path="url(#p83a8a4ee24)" d="M 541.519714 768.96 
L 542.954571 768.96 
L 542.954571 353.423104 
L 541.519714 353.423104 
z
" style="fill:#1f77b4;"/>
   </g>
   <g id="patch_136">
    <path clip-path="url(#p83a8a4ee24)" d="M 544.389429 768.96 
L 545.824286 768.96 
L 545.824286 351.162811 
L 544.389429 351.162811 
z
" style="fill:#1f77b4;"/>
   </g>
   <g id="patch_137">
    <path clip-path="url(#p83a8a4ee24)" d="M 547.259143 768.96 
L 548.694 768.96 
L 548.694 346.97362 
L 547.259143 346.97362 
z
" style="fill:#1f77b4;"/>
   </g>
   <g id="patch_138">
    <path clip-path="url(#p83a8a4ee24)" d="M 550.128857 768.96 
L 551.563714 768.96 
L 551.563714 343.262162 
L 550.128857 343.262162 
z
" style="fill:#1f77b4;"/>
   </g>
   <g id="patch_139">
    <path clip-path="url(#p83a8a4ee24)" d="M 552.998571 768.96 
L 554.433429 768.96 
L 554.433429 337.922019 
L 552.998571 337.922019 
z
" style="fill:#1f77b4;"/>
   </g>
   <g id="patch_140">
    <path clip-path="url(#p83a8a4ee24)" d="M 555.868286 768.96 
L 557.303143 768.96 
L 557.303143 334.450495 
L 555.868286 334.450495 
z
" style="fill:#1f77b4;"/>
   </g>
   <g id="patch_141">
    <path clip-path="url(#p83a8a4ee24)" d="M 558.738 768.96 
L 560.172857 768.96 
L 560.172857 331.715279 
L 558.738 331.715279 
z
" style="fill:#1f77b4;"/>
   </g>
   <g id="patch_142">
    <path clip-path="url(#p83a8a4ee24)" d="M 561.607714 768.96 
L 563.042571 768.96 
L 563.042571 330.472679 
L 561.607714 330.472679 
z
" style="fill:#1f77b4;"/>
   </g>
   <g id="patch_143">
    <path clip-path="url(#p83a8a4ee24)" d="M 564.477429 768.96 
L 565.912286 768.96 
L 565.912286 328.383031 
L 564.477429 328.383031 
z
" style="fill:#1f77b4;"/>
   </g>
   <g id="patch_144">
    <path clip-path="url(#p83a8a4ee24)" d="M 567.347143 768.96 
L 568.782 768.96 
L 568.782 325.829505 
L 567.347143 325.829505 
z
" style="fill:#1f77b4;"/>
   </g>
   <g id="patch_145">
    <path clip-path="url(#p83a8a4ee24)" d="M 570.216857 768.96 
L 571.651714 768.96 
L 571.651714 323.303657 
L 570.216857 323.303657 
z
" style="fill:#1f77b4;"/>
   </g>
   <g id="patch_146">
    <path clip-path="url(#p83a8a4ee24)" d="M 573.086571 768.96 
L 574.521429 768.96 
L 574.521429 320.589166 
L 573.086571 320.589166 
z
" style="fill:#1f77b4;"/>
   </g>
   <g id="patch_147">
    <path clip-path="url(#p83a8a4ee24)" d="M 575.956286 768.96 
L 577.391143 768.96 
L 577.391143 318.070672 
L 575.956286 318.070672 
z
" style="fill:#1f77b4;"/>
   </g>
   <g id="patch_148">
    <path clip-path="url(#p83a8a4ee24)" d="M 578.826 768.96 
L 580.260857 768.96 
L 580.260857 316.350448 
L 578.826 316.350448 
z
" style="fill:#1f77b4;"/>
   </g>
   <g id="patch_149">
    <path clip-path="url(#p83a8a4ee24)" d="M 581.695714 768.96 
L 583.130571 768.96 
L 583.130571 315.384501 
L 581.695714 315.384501 
z
" style="fill:#1f77b4;"/>
   </g>
   <g id="patch_150">
    <path clip-path="url(#p83a8a4ee24)" d="M 584.565429 768.96 
L 586.000286 768.96 
L 586.000286 314.68657 
L 584.565429 314.68657 
z
" style="fill:#1f77b4;"/>
   </g>
   <g id="patch_151">
    <path clip-path="url(#p83a8a4ee24)" d="M 587.435143 768.96 
L 588.87 768.96 
L 588.87 313.182641 
L 587.435143 313.182641 
z
" style="fill:#1f77b4;"/>
   </g>
   <g id="patch_152">
    <path clip-path="url(#p83a8a4ee24)" d="M 590.304857 768.96 
L 591.739714 768.96 
L 591.739714 311.614235 
L 590.304857 311.614235 
z
" style="fill:#1f77b4;"/>
   </g>
   <g id="patch_153">
    <path clip-path="url(#p83a8a4ee24)" d="M 593.174571 768.96 
L 594.609429 768.96 
L 594.609429 309.190143 
L 593.174571 309.190143 
z
" style="fill:#1f77b4;"/>
   </g>
   <g id="patch_154">
    <path clip-path="url(#p83a8a4ee24)" d="M 596.044286 768.96 
L 597.479143 768.96 
L 597.479143 306.565588 
L 596.044286 306.565588 
z
" style="fill:#1f77b4;"/>
   </g>
   <g id="patch_155">
    <path clip-path="url(#p83a8a4ee24)" d="M 598.914 768.96 
L 600.348857 768.96 
L 600.348857 304.299171 
L 598.914 304.299171 
z
" style="fill:#1f77b4;"/>
   </g>
   <g id="patch_156">
    <path clip-path="url(#p83a8a4ee24)" d="M 601.783714 768.96 
L 603.218571 768.96 
L 603.218571 302.715495 
L 601.783714 302.715495 
z
" style="fill:#1f77b4;"/>
   </g>
   <g id="patch_157">
    <path clip-path="url(#p83a8a4ee24)" d="M 604.653429 768.96 
L 606.088286 768.96 
L 606.088286 300.540431 
L 604.653429 300.540431 
z
" style="fill:#1f77b4;"/>
   </g>
   <g id="patch_158">
    <path clip-path="url(#p83a8a4ee24)" d="M 607.523143 768.96 
L 608.958 768.96 
L 608.958 298.083392 
L 607.523143 298.083392 
z
" style="fill:#1f77b4;"/>
   </g>
   <g id="patch_159">
    <path clip-path="url(#p83a8a4ee24)" d="M 610.392857 768.96 
L 611.827714 768.96 
L 611.827714 295.120087 
L 610.392857 295.120087 
z
" style="fill:#1f77b4;"/>
   </g>
   <g id="patch_160">
    <path clip-path="url(#p83a8a4ee24)" d="M 613.262571 768.96 
L 614.697429 768.96 
L 614.697429 293.083898 
L 613.262571 293.083898 
z
" style="fill:#1f77b4;"/>
   </g>
   <g id="patch_161">
    <path clip-path="url(#p83a8a4ee24)" d="M 616.132286 768.96 
L 617.567143 768.96 
L 617.567143 291.151016 
L 616.132286 291.151016 
z
" style="fill:#1f77b4;"/>
   </g>
   <g id="patch_162">
    <path clip-path="url(#p83a8a4ee24)" d="M 619.002 768.96 
L 620.436857 768.96 
L 620.436857 289.979445 
L 619.002 289.979445 
z
" style="fill:#1f77b4;"/>
   </g>
   <g id="patch_163">
    <path clip-path="url(#p83a8a4ee24)" d="M 621.871714 768.96 
L 623.306571 768.96 
L 623.306571 288.830418 
L 621.871714 288.830418 
z
" style="fill:#1f77b4;"/>
   </g>
   <g id="patch_164">
    <path clip-path="url(#p83a8a4ee24)" d="M 624.741429 768.96 
L 626.176286 768.96 
L 626.176286 285.375341 
L 624.741429 285.375341 
z
" style="fill:#1f77b4;"/>
   </g>
   <g id="patch_165">
    <path clip-path="url(#p83a8a4ee24)" d="M 627.611143 768.96 
L 629.046 768.96 
L 629.046 282.716422 
L 627.611143 282.716422 
z
" style="fill:#1f77b4;"/>
   </g>
   <g id="patch_166">
    <path clip-path="url(#p83a8a4ee24)" d="M 630.480857 768.96 
L 631.915714 768.96 
L 631.915714 280.883584 
L 630.480857 280.883584 
z
" style="fill:#1f77b4;"/>
   </g>
   <g id="patch_167">
    <path clip-path="url(#p83a8a4ee24)" d="M 633.350571 768.96 
L 634.785429 768.96 
L 634.785429 278.461123 
L 633.350571 278.461123 
z
" style="fill:#1f77b4;"/>
   </g>
   <g id="patch_168">
    <path clip-path="url(#p83a8a4ee24)" d="M 636.220286 768.96 
L 637.655143 768.96 
L 637.655143 277.314583 
L 636.220286 277.314583 
z
" style="fill:#1f77b4;"/>
   </g>
   <g id="patch_169">
    <path clip-path="url(#p83a8a4ee24)" d="M 639.09 768.96 
L 640.524857 768.96 
L 640.524857 275.504022 
L 639.09 275.504022 
z
" style="fill:#1f77b4;"/>
   </g>
   <g id="patch_170">
    <path clip-path="url(#p83a8a4ee24)" d="M 641.959714 768.96 
L 643.394571 768.96 
L 643.394571 274.736828 
L 641.959714 274.736828 
z
" style="fill:#1f77b4;"/>
   </g>
   <g id="patch_171">
    <path clip-path="url(#p83a8a4ee24)" d="M 644.829429 768.96 
L 646.264286 768.96 
L 646.264286 273.762912 
L 644.829429 273.762912 
z
" style="fill:#1f77b4;"/>
   </g>
   <g id="patch_172">
    <path clip-path="url(#p83a8a4ee24)" d="M 647.699143 768.96 
L 649.134 768.96 
L 649.134 272.581767 
L 647.699143 272.581767 
z
" style="fill:#1f77b4;"/>
   </g>
   <g id="patch_173">
    <path clip-path="url(#p83a8a4ee24)" d="M 650.568857 768.96 
L 652.003714 768.96 
L 652.003714 271.17462 
L 650.568857 271.17462 
z
" style="fill:#1f77b4;"/>
   </g>
   <g id="patch_174">
    <path clip-path="url(#p83a8a4ee24)" d="M 653.438571 768.96 
L 654.873429 768.96 
L 654.873429 269.462071 
L 653.438571 269.462071 
z
" style="fill:#1f77b4;"/>
   </g>
   <g id="patch_175">
    <path clip-path="url(#p83a8a4ee24)" d="M 656.308286 768.96 
L 657.743143 768.96 
L 657.743143 265.475456 
L 656.308286 265.475456 
z
" style="fill:#1f77b4;"/>
   </g>
   <g id="patch_176">
    <path clip-path="url(#p83a8a4ee24)" d="M 659.178 768.96 
L 660.612857 768.96 
L 660.612857 260.845947 
L 659.178 260.845947 
z
" style="fill:#1f77b4;"/>
   </g>
   <g id="patch_177">
    <path clip-path="url(#p83a8a4ee24)" d="M 662.047714 768.96 
L 663.482571 768.96 
L 663.482571 260.461254 
L 662.047714 260.461254 
z
" style="fill:#1f77b4;"/>
   </g>
   <g id="patch_178">
    <path clip-path="url(#p83a8a4ee24)" d="M 664.917429 768.96 
L 666.352286 768.96 
L 666.352286 259.488702 
L 664.917429 259.488702 
z
" style="fill:#1f77b4;"/>
   </g>
   <g id="patch_179">
    <path clip-path="url(#p83a8a4ee24)" d="M 667.787143 768.96 
L 669.222 768.96 
L 669.222 258.278274 
L 667.787143 258.278274 
z
" style="fill:#1f77b4;"/>
   </g>
   <g id="patch_180">
    <path clip-path="url(#p83a8a4ee24)" d="M 670.656857 768.96 
L 672.091714 768.96 
L 672.091714 257.114672 
L 670.656857 257.114672 
z
" style="fill:#1f77b4;"/>
   </g>
   <g id="patch_181">
    <path clip-path="url(#p83a8a4ee24)" d="M 673.526571 768.96 
L 674.961429 768.96 
L 674.961429 256.059539 
L 673.526571 256.059539 
z
" style="fill:#1f77b4;"/>
   </g>
   <g id="patch_182">
    <path clip-path="url(#p83a8a4ee24)" d="M 676.396286 768.96 
L 677.831143 768.96 
L 677.831143 255.008899 
L 676.396286 255.008899 
z
" style="fill:#1f77b4;"/>
   </g>
   <g id="patch_183">
    <path clip-path="url(#p83a8a4ee24)" d="M 679.266 768.96 
L 680.700857 768.96 
L 680.700857 254.231408 
L 679.266 254.231408 
z
" style="fill:#1f77b4;"/>
   </g>
   <g id="patch_184">
    <path clip-path="url(#p83a8a4ee24)" d="M 682.135714 768.96 
L 683.570571 768.96 
L 683.570571 253.852223 
L 682.135714 253.852223 
z
" style="fill:#1f77b4;"/>
   </g>
   <g id="patch_185">
    <path clip-path="url(#p83a8a4ee24)" d="M 685.005429 768.96 
L 686.440286 768.96 
L 686.440286 253.784618 
L 685.005429 253.784618 
z
" style="fill:#1f77b4;"/>
   </g>
   <g id="patch_186">
    <path clip-path="url(#p83a8a4ee24)" d="M 687.875143 768.96 
L 689.31 768.96 
L 689.31 253.172825 
L 687.875143 253.172825 
z
" style="fill:#1f77b4;"/>
   </g>
   <g id="patch_187">
    <path clip-path="url(#p83a8a4ee24)" d="M 690.744857 768.96 
L 692.179714 768.96 
L 692.179714 252.082953 
L 690.744857 252.082953 
z
" style="fill:#1f77b4;"/>
   </g>
   <g id="patch_188">
    <path clip-path="url(#p83a8a4ee24)" d="M 693.614571 768.96 
L 695.049429 768.96 
L 695.049429 250.988187 
L 693.614571 250.988187 
z
" style="fill:#1f77b4;"/>
   </g>
   <g id="patch_189">
    <path clip-path="url(#p83a8a4ee24)" d="M 696.484286 768.96 
L 697.919143 768.96 
L 697.919143 250.015582 
L 696.484286 250.015582 
z
" style="fill:#1f77b4;"/>
   </g>
   <g id="patch_190">
    <path clip-path="url(#p83a8a4ee24)" d="M 699.354 768.96 
L 700.788857 768.96 
L 700.788857 249.211616 
L 699.354 249.211616 
z
" style="fill:#1f77b4;"/>
   </g>
   <g id="patch_191">
    <path clip-path="url(#p83a8a4ee24)" d="M 702.223714 768.96 
L 703.658571 768.96 
L 703.658571 248.663765 
L 702.223714 248.663765 
z
" style="fill:#1f77b4;"/>
   </g>
   <g id="patch_192">
    <path clip-path="url(#p83a8a4ee24)" d="M 705.093429 768.96 
L 706.528286 768.96 
L 706.528286 247.63246 
L 705.093429 247.63246 
z
" style="fill:#1f77b4;"/>
   </g>
   <g id="patch_193">
    <path clip-path="url(#p83a8a4ee24)" d="M 707.963143 768.96 
L 709.398 768.96 
L 709.398 246.774955 
L 707.963143 246.774955 
z
" style="fill:#1f77b4;"/>
   </g>
   <g id="patch_194">
    <path clip-path="url(#p83a8a4ee24)" d="M 710.832857 768.96 
L 712.267714 768.96 
L 712.267714 245.954489 
L 710.832857 245.954489 
z
" style="fill:#1f77b4;"/>
   </g>
   <g id="patch_195">
    <path clip-path="url(#p83a8a4ee24)" d="M 713.702571 768.96 
L 715.137429 768.96 
L 715.137429 245.141645 
L 713.702571 245.141645 
z
" style="fill:#1f77b4;"/>
   </g>
   <g id="patch_196">
    <path clip-path="url(#p83a8a4ee24)" d="M 716.572286 768.96 
L 718.007143 768.96 
L 718.007143 244.320991 
L 716.572286 244.320991 
z
" style="fill:#1f77b4;"/>
   </g>
   <g id="patch_197">
    <path clip-path="url(#p83a8a4ee24)" d="M 719.442 768.96 
L 720.876857 768.96 
L 720.876857 243.643545 
L 719.442 243.643545 
z
" style="fill:#1f77b4;"/>
   </g>
   <g id="patch_198">
    <path clip-path="url(#p83a8a4ee24)" d="M 722.311714 768.96 
L 723.746571 768.96 
L 723.746571 243.183116 
L 722.311714 243.183116 
z
" style="fill:#1f77b4;"/>
   </g>
   <g id="patch_199">
    <path clip-path="url(#p83a8a4ee24)" d="M 725.181429 768.96 
L 726.616286 768.96 
L 726.616286 242.490667 
L 725.181429 242.490667 
z
" style="fill:#1f77b4;"/>
   </g>
   <g id="patch_200">
    <path clip-path="url(#p83a8a4ee24)" d="M 728.051143 768.96 
L 729.486 768.96 
L 729.486 241.567215 
L 728.051143 241.567215 
z
" style="fill:#1f77b4;"/>
   </g>
   <g id="patch_201">
    <path clip-path="url(#p83a8a4ee24)" d="M 730.920857 768.96 
L 732.355714 768.96 
L 732.355714 240.701046 
L 730.920857 240.701046 
z
" style="fill:#1f77b4;"/>
   </g>
   <g id="patch_202">
    <path clip-path="url(#p83a8a4ee24)" d="M 733.790571 768.96 
L 735.225429 768.96 
L 735.225429 240.074277 
L 733.790571 240.074277 
z
" style="fill:#1f77b4;"/>
   </g>
   <g id="patch_203">
    <path clip-path="url(#p83a8a4ee24)" d="M 736.660286 768.96 
L 738.095143 768.96 
L 738.095143 239.425179 
L 736.660286 239.425179 
z
" style="fill:#1f77b4;"/>
   </g>
   <g id="patch_204">
    <path clip-path="url(#p83a8a4ee24)" d="M 739.53 768.96 
L 740.964857 768.96 
L 740.964857 239.02591 
L 739.53 239.02591 
z
" style="fill:#1f77b4;"/>
   </g>
   <g id="patch_205">
    <path clip-path="url(#p83a8a4ee24)" d="M 742.399714 768.96 
L 743.834571 768.96 
L 743.834571 238.79488 
L 742.399714 238.79488 
z
" style="fill:#1f77b4;"/>
   </g>
   <g id="patch_206">
    <path clip-path="url(#p83a8a4ee24)" d="M 745.269429 768.96 
L 746.704286 768.96 
L 746.704286 238.402163 
L 745.269429 238.402163 
z
" style="fill:#1f77b4;"/>
   </g>
   <g id="patch_207">
    <path clip-path="url(#p83a8a4ee24)" d="M 748.139143 768.96 
L 749.574 768.96 
L 749.574 237.522275 
L 748.139143 237.522275 
z
" style="fill:#1f77b4;"/>
   </g>
   <g id="patch_208">
    <path clip-path="url(#p83a8a4ee24)" d="M 751.008857 768.96 
L 752.443714 768.96 
L 752.443714 236.058219 
L 751.008857 236.058219 
z
" style="fill:#1f77b4;"/>
   </g>
   <g id="patch_209">
    <path clip-path="url(#p83a8a4ee24)" d="M 753.878571 768.96 
L 755.313429 768.96 
L 755.313429 235.285917 
L 753.878571 235.285917 
z
" style="fill:#1f77b4;"/>
   </g>
   <g id="patch_210">
    <path clip-path="url(#p83a8a4ee24)" d="M 756.748286 768.96 
L 758.183143 768.96 
L 758.183143 233.46038 
L 756.748286 233.46038 
z
" style="fill:#1f77b4;"/>
   </g>
   <g id="patch_211">
    <path clip-path="url(#p83a8a4ee24)" d="M 759.618 768.96 
L 761.052857 768.96 
L 761.052857 232.861905 
L 759.618 232.861905 
z
" style="fill:#1f77b4;"/>
   </g>
   <g id="patch_212">
    <path clip-path="url(#p83a8a4ee24)" d="M 762.487714 768.96 
L 763.922571 768.96 
L 763.922571 232.420543 
L 762.487714 232.420543 
z
" style="fill:#1f77b4;"/>
   </g>
   <g id="patch_213">
    <path clip-path="url(#p83a8a4ee24)" d="M 765.357429 768.96 
L 766.792286 768.96 
L 766.792286 231.818164 
L 765.357429 231.818164 
z
" style="fill:#1f77b4;"/>
   </g>
   <g id="patch_214">
    <path clip-path="url(#p83a8a4ee24)" d="M 768.227143 768.96 
L 769.662 768.96 
L 769.662 230.996762 
L 768.227143 230.996762 
z
" style="fill:#1f77b4;"/>
   </g>
   <g id="patch_215">
    <path clip-path="url(#p83a8a4ee24)" d="M 771.096857 768.96 
L 772.531714 768.96 
L 772.531714 230.245533 
L 771.096857 230.245533 
z
" style="fill:#1f77b4;"/>
   </g>
   <g id="patch_216">
    <path clip-path="url(#p83a8a4ee24)" d="M 773.966571 768.96 
L 775.401429 768.96 
L 775.401429 229.458014 
L 773.966571 229.458014 
z
" style="fill:#1f77b4;"/>
   </g>
   <g id="patch_217">
    <path clip-path="url(#p83a8a4ee24)" d="M 776.836286 768.96 
L 778.271143 768.96 
L 778.271143 228.601285 
L 776.836286 228.601285 
z
" style="fill:#1f77b4;"/>
   </g>
   <g id="patch_218">
    <path clip-path="url(#p83a8a4ee24)" d="M 779.706 768.96 
L 781.140857 768.96 
L 781.140857 227.132174 
L 779.706 227.132174 
z
" style="fill:#1f77b4;"/>
   </g>
   <g id="patch_219">
    <path clip-path="url(#p83a8a4ee24)" d="M 782.575714 768.96 
L 784.010571 768.96 
L 784.010571 226.621228 
L 782.575714 226.621228 
z
" style="fill:#1f77b4;"/>
   </g>
   <g id="patch_220">
    <path clip-path="url(#p83a8a4ee24)" d="M 785.445429 768.96 
L 786.880286 768.96 
L 786.880286 226.036098 
L 785.445429 226.036098 
z
" style="fill:#1f77b4;"/>
   </g>
   <g id="patch_221">
    <path clip-path="url(#p83a8a4ee24)" d="M 788.315143 768.96 
L 789.75 768.96 
L 789.75 225.466853 
L 788.315143 225.466853 
z
" style="fill:#1f77b4;"/>
   </g>
   <g id="patch_222">
    <path clip-path="url(#p83a8a4ee24)" d="M 791.184857 768.96 
L 792.619714 768.96 
L 792.619714 223.260634 
L 791.184857 223.260634 
z
" style="fill:#1f77b4;"/>
   </g>
   <g id="patch_223">
    <path clip-path="url(#p83a8a4ee24)" d="M 794.054571 768.96 
L 795.489429 768.96 
L 795.489429 221.336978 
L 794.054571 221.336978 
z
" style="fill:#1f77b4;"/>
   </g>
   <g id="patch_224">
    <path clip-path="url(#p83a8a4ee24)" d="M 796.924286 768.96 
L 798.359143 768.96 
L 798.359143 219.741856 
L 796.924286 219.741856 
z
" style="fill:#1f77b4;"/>
   </g>
   <g id="patch_225">
    <path clip-path="url(#p83a8a4ee24)" d="M 799.794 768.96 
L 801.228857 768.96 
L 801.228857 217.499962 
L 799.794 217.499962 
z
" style="fill:#1f77b4;"/>
   </g>
   <g id="patch_226">
    <path clip-path="url(#p83a8a4ee24)" d="M 802.663714 768.96 
L 804.098571 768.96 
L 804.098571 215.974077 
L 802.663714 215.974077 
z
" style="fill:#1f77b4;"/>
   </g>
   <g id="patch_227">
    <path clip-path="url(#p83a8a4ee24)" d="M 805.533429 768.96 
L 806.968286 768.96 
L 806.968286 215.281334 
L 805.533429 215.281334 
z
" style="fill:#1f77b4;"/>
   </g>
   <g id="patch_228">
    <path clip-path="url(#p83a8a4ee24)" d="M 808.403143 768.96 
L 809.838 768.96 
L 809.838 214.292924 
L 808.403143 214.292924 
z
" style="fill:#1f77b4;"/>
   </g>
   <g id="patch_229">
    <path clip-path="url(#p83a8a4ee24)" d="M 811.272857 768.96 
L 812.707714 768.96 
L 812.707714 213.353292 
L 811.272857 213.353292 
z
" style="fill:#1f77b4;"/>
   </g>
   <g id="patch_230">
    <path clip-path="url(#p83a8a4ee24)" d="M 814.142571 768.96 
L 815.577429 768.96 
L 815.577429 212.459231 
L 814.142571 212.459231 
z
" style="fill:#1f77b4;"/>
   </g>
   <g id="patch_231">
    <path clip-path="url(#p83a8a4ee24)" d="M 817.012286 768.96 
L 818.447143 768.96 
L 818.447143 211.59381 
L 817.012286 211.59381 
z
" style="fill:#1f77b4;"/>
   </g>
   <g id="patch_232">
    <path clip-path="url(#p83a8a4ee24)" d="M 819.882 768.96 
L 821.316857 768.96 
L 821.316857 210.72986 
L 819.882 210.72986 
z
" style="fill:#1f77b4;"/>
   </g>
   <g id="patch_233">
    <path clip-path="url(#p83a8a4ee24)" d="M 822.751714 768.96 
L 824.186571 768.96 
L 824.186571 210.157112 
L 822.751714 210.157112 
z
" style="fill:#1f77b4;"/>
   </g>
   <g id="patch_234">
    <path clip-path="url(#p83a8a4ee24)" d="M 825.621429 768.96 
L 827.056286 768.96 
L 827.056286 209.437546 
L 825.621429 209.437546 
z
" style="fill:#1f77b4;"/>
   </g>
   <g id="patch_235">
    <path clip-path="url(#p83a8a4ee24)" d="M 828.491143 768.96 
L 829.926 768.96 
L 829.926 208.43991 
L 828.491143 208.43991 
z
" style="fill:#1f77b4;"/>
   </g>
   <g id="patch_236">
    <path clip-path="url(#p83a8a4ee24)" d="M 831.360857 768.96 
L 832.795714 768.96 
L 832.795714 207.483698 
L 831.360857 207.483698 
z
" style="fill:#1f77b4;"/>
   </g>
   <g id="patch_237">
    <path clip-path="url(#p83a8a4ee24)" d="M 834.230571 768.96 
L 835.665429 768.96 
L 835.665429 206.443407 
L 834.230571 206.443407 
z
" style="fill:#1f77b4;"/>
   </g>
   <g id="patch_238">
    <path clip-path="url(#p83a8a4ee24)" d="M 837.100286 768.96 
L 838.535143 768.96 
L 838.535143 205.264749 
L 837.100286 205.264749 
z
" style="fill:#1f77b4;"/>
   </g>
   <g id="patch_239">
    <path clip-path="url(#p83a8a4ee24)" d="M 839.97 768.96 
L 841.404857 768.96 
L 841.404857 203.535165 
L 839.97 203.535165 
z
" style="fill:#1f77b4;"/>
   </g>
   <g id="patch_240">
    <path clip-path="url(#p83a8a4ee24)" d="M 842.839714 768.96 
L 844.274571 768.96 
L 844.274571 200.781095 
L 842.839714 200.781095 
z
" style="fill:#1f77b4;"/>
   </g>
   <g id="patch_241">
    <path clip-path="url(#p83a8a4ee24)" d="M 845.709429 768.96 
L 847.144286 768.96 
L 847.144286 199.557482 
L 845.709429 199.557482 
z
" style="fill:#1f77b4;"/>
   </g>
   <g id="patch_242">
    <path clip-path="url(#p83a8a4ee24)" d="M 848.579143 768.96 
L 850.014 768.96 
L 850.014 198.560033 
L 848.579143 198.560033 
z
" style="fill:#1f77b4;"/>
   </g>
   <g id="patch_243">
    <path clip-path="url(#p83a8a4ee24)" d="M 851.448857 768.96 
L 852.883714 768.96 
L 852.883714 197.633559 
L 851.448857 197.633559 
z
" style="fill:#1f77b4;"/>
   </g>
   <g id="patch_244">
    <path clip-path="url(#p83a8a4ee24)" d="M 854.318571 768.96 
L 855.753429 768.96 
L 855.753429 196.770358 
L 854.318571 196.770358 
z
" style="fill:#1f77b4;"/>
   </g>
   <g id="patch_245">
    <path clip-path="url(#p83a8a4ee24)" d="M 857.188286 768.96 
L 858.623143 768.96 
L 858.623143 195.90352 
L 857.188286 195.90352 
z
" style="fill:#1f77b4;"/>
   </g>
   <g id="patch_246">
    <path clip-path="url(#p83a8a4ee24)" d="M 860.058 768.96 
L 861.492857 768.96 
L 861.492857 195.119317 
L 860.058 195.119317 
z
" style="fill:#1f77b4;"/>
   </g>
   <g id="patch_247">
    <path clip-path="url(#p83a8a4ee24)" d="M 862.927714 768.96 
L 864.362571 768.96 
L 864.362571 194.585774 
L 862.927714 194.585774 
z
" style="fill:#1f77b4;"/>
   </g>
   <g id="patch_248">
    <path clip-path="url(#p83a8a4ee24)" d="M 865.797429 768.96 
L 867.232286 768.96 
L 867.232286 194.209263 
L 865.797429 194.209263 
z
" style="fill:#1f77b4;"/>
   </g>
   <g id="patch_249">
    <path clip-path="url(#p83a8a4ee24)" d="M 868.667143 768.96 
L 870.102 768.96 
L 870.102 193.728323 
L 868.667143 193.728323 
z
" style="fill:#1f77b4;"/>
   </g>
   <g id="patch_250">
    <path clip-path="url(#p83a8a4ee24)" d="M 871.536857 768.96 
L 872.971714 768.96 
L 872.971714 192.75791 
L 871.536857 192.75791 
z
" style="fill:#1f77b4;"/>
   </g>
   <g id="patch_251">
    <path clip-path="url(#p83a8a4ee24)" d="M 874.406571 768.96 
L 875.841429 768.96 
L 875.841429 191.899015 
L 874.406571 191.899015 
z
" style="fill:#1f77b4;"/>
   </g>
   <g id="patch_252">
    <path clip-path="url(#p83a8a4ee24)" d="M 877.276286 768.96 
L 878.711143 768.96 
L 878.711143 191.082935 
L 877.276286 191.082935 
z
" style="fill:#1f77b4;"/>
   </g>
   <g id="patch_253">
    <path clip-path="url(#p83a8a4ee24)" d="M 880.146 768.96 
L 881.580857 768.96 
L 881.580857 190.353742 
L 880.146 190.353742 
z
" style="fill:#1f77b4;"/>
   </g>
   <g id="patch_254">
    <path clip-path="url(#p83a8a4ee24)" d="M 883.015714 768.96 
L 884.450571 768.96 
L 884.450571 189.814555 
L 883.015714 189.814555 
z
" style="fill:#1f77b4;"/>
   </g>
   <g id="patch_255">
    <path clip-path="url(#p83a8a4ee24)" d="M 885.885429 768.96 
L 887.320286 768.96 
L 887.320286 189.198484 
L 885.885429 189.198484 
z
" style="fill:#1f77b4;"/>
   </g>
   <g id="patch_256">
    <path clip-path="url(#p83a8a4ee24)" d="M 888.755143 768.96 
L 890.19 768.96 
L 890.19 188.352773 
L 888.755143 188.352773 
z
" style="fill:#1f77b4;"/>
   </g>
   <g id="patch_257">
    <path clip-path="url(#p83a8a4ee24)" d="M 891.624857 768.96 
L 893.059714 768.96 
L 893.059714 187.548967 
L 891.624857 187.548967 
z
" style="fill:#1f77b4;"/>
   </g>
   <g id="patch_258">
    <path clip-path="url(#p83a8a4ee24)" d="M 894.494571 768.96 
L 895.929429 768.96 
L 895.929429 186.741043 
L 894.494571 186.741043 
z
" style="fill:#1f77b4;"/>
   </g>
   <g id="patch_259">
    <path clip-path="url(#p83a8a4ee24)" d="M 897.364286 768.96 
L 898.799143 768.96 
L 898.799143 185.905254 
L 897.364286 185.905254 
z
" style="fill:#1f77b4;"/>
   </g>
   <g id="patch_260">
    <path clip-path="url(#p83a8a4ee24)" d="M 900.234 768.96 
L 901.668857 768.96 
L 901.668857 185.096715 
L 900.234 185.096715 
z
" style="fill:#1f77b4;"/>
   </g>
   <g id="patch_261">
    <path clip-path="url(#p83a8a4ee24)" d="M 903.103714 768.96 
L 904.538571 768.96 
L 904.538571 184.516639 
L 903.103714 184.516639 
z
" style="fill:#1f77b4;"/>
   </g>
   <g id="patch_262">
    <path clip-path="url(#p83a8a4ee24)" d="M 905.973429 768.96 
L 907.408286 768.96 
L 907.408286 183.962317 
L 905.973429 183.962317 
z
" style="fill:#1f77b4;"/>
   </g>
   <g id="patch_263">
    <path clip-path="url(#p83a8a4ee24)" d="M 908.843143 768.96 
L 910.278 768.96 
L 910.278 183.020358 
L 908.843143 183.020358 
z
" style="fill:#1f77b4;"/>
   </g>
   <g id="patch_264">
    <path clip-path="url(#p83a8a4ee24)" d="M 911.712857 768.96 
L 913.147714 768.96 
L 913.147714 182.332349 
L 911.712857 182.332349 
z
" style="fill:#1f77b4;"/>
   </g>
   <g id="patch_265">
    <path clip-path="url(#p83a8a4ee24)" d="M 914.582571 768.96 
L 916.017429 768.96 
L 916.017429 181.326583 
L 914.582571 181.326583 
z
" style="fill:#1f77b4;"/>
   </g>
   <g id="patch_266">
    <path clip-path="url(#p83a8a4ee24)" d="M 917.452286 768.96 
L 918.887143 768.96 
L 918.887143 180.363792 
L 917.452286 180.363792 
z
" style="fill:#1f77b4;"/>
   </g>
   <g id="patch_267">
    <path clip-path="url(#p83a8a4ee24)" d="M 920.322 768.96 
L 921.756857 768.96 
L 921.756857 179.603978 
L 920.322 179.603978 
z
" style="fill:#1f77b4;"/>
   </g>
   <g id="patch_268">
    <path clip-path="url(#p83a8a4ee24)" d="M 923.191714 768.96 
L 924.626571 768.96 
L 924.626571 179.108971 
L 923.191714 179.108971 
z
" style="fill:#1f77b4;"/>
   </g>
   <g id="patch_269">
    <path clip-path="url(#p83a8a4ee24)" d="M 926.061429 768.96 
L 927.496286 768.96 
L 927.496286 178.477095 
L 926.061429 178.477095 
z
" style="fill:#1f77b4;"/>
   </g>
   <g id="patch_270">
    <path clip-path="url(#p83a8a4ee24)" d="M 928.931143 768.96 
L 930.366 768.96 
L 930.366 177.736322 
L 928.931143 177.736322 
z
" style="fill:#1f77b4;"/>
   </g>
   <g id="patch_271">
    <path clip-path="url(#p83a8a4ee24)" d="M 931.800857 768.96 
L 933.235714 768.96 
L 933.235714 177.195263 
L 931.800857 177.195263 
z
" style="fill:#1f77b4;"/>
   </g>
   <g id="patch_272">
    <path clip-path="url(#p83a8a4ee24)" d="M 934.670571 768.96 
L 936.105429 768.96 
L 936.105429 176.818887 
L 934.670571 176.818887 
z
" style="fill:#1f77b4;"/>
   </g>
   <g id="patch_273">
    <path clip-path="url(#p83a8a4ee24)" d="M 937.540286 768.96 
L 938.975143 768.96 
L 938.975143 175.891022 
L 937.540286 175.891022 
z
" style="fill:#1f77b4;"/>
   </g>
   <g id="patch_274">
    <path clip-path="url(#p83a8a4ee24)" d="M 940.41 768.96 
L 941.844857 768.96 
L 941.844857 174.682332 
L 940.41 174.682332 
z
" style="fill:#1f77b4;"/>
   </g>
   <g id="patch_275">
    <path clip-path="url(#p83a8a4ee24)" d="M 943.279714 768.96 
L 944.714571 768.96 
L 944.714571 174.274132 
L 943.279714 174.274132 
z
" style="fill:#1f77b4;"/>
   </g>
   <g id="patch_276">
    <path clip-path="url(#p83a8a4ee24)" d="M 946.149429 768.96 
L 947.584286 768.96 
L 947.584286 173.481906 
L 946.149429 173.481906 
z
" style="fill:#1f77b4;"/>
   </g>
   <g id="patch_277">
    <path clip-path="url(#p83a8a4ee24)" d="M 949.019143 768.96 
L 950.454 768.96 
L 950.454 173.037014 
L 949.019143 173.037014 
z
" style="fill:#1f77b4;"/>
   </g>
   <g id="patch_278">
    <path clip-path="url(#p83a8a4ee24)" d="M 951.888857 768.96 
L 953.323714 768.96 
L 953.323714 172.116718 
L 951.888857 172.116718 
z
" style="fill:#1f77b4;"/>
   </g>
   <g id="patch_279">
    <path clip-path="url(#p83a8a4ee24)" d="M 954.758571 768.96 
L 956.193429 768.96 
L 956.193429 171.488238 
L 954.758571 171.488238 
z
" style="fill:#1f77b4;"/>
   </g>
   <g id="patch_280">
    <path clip-path="url(#p83a8a4ee24)" d="M 957.628286 768.96 
L 959.063143 768.96 
L 959.063143 170.876338 
L 957.628286 170.876338 
z
" style="fill:#1f77b4;"/>
   </g>
   <g id="patch_281">
    <path clip-path="url(#p83a8a4ee24)" d="M 960.498 768.96 
L 961.932857 768.96 
L 961.932857 170.45145 
L 960.498 170.45145 
z
" style="fill:#1f77b4;"/>
   </g>
   <g id="patch_282">
    <path clip-path="url(#p83a8a4ee24)" d="M 963.367714 768.96 
L 964.802571 768.96 
L 964.802571 170.147252 
L 963.367714 170.147252 
z
" style="fill:#1f77b4;"/>
   </g>
   <g id="patch_283">
    <path clip-path="url(#p83a8a4ee24)" d="M 966.237429 768.96 
L 967.672286 768.96 
L 967.672286 169.725091 
L 966.237429 169.725091 
z
" style="fill:#1f77b4;"/>
   </g>
   <g id="patch_284">
    <path clip-path="url(#p83a8a4ee24)" d="M 969.107143 768.96 
L 970.542 768.96 
L 970.542 169.094418 
L 969.107143 169.094418 
z
" style="fill:#1f77b4;"/>
   </g>
   <g id="patch_285">
    <path clip-path="url(#p83a8a4ee24)" d="M 971.976857 768.96 
L 973.411714 768.96 
L 973.411714 168.407211 
L 971.976857 168.407211 
z
" style="fill:#1f77b4;"/>
   </g>
   <g id="patch_286">
    <path clip-path="url(#p83a8a4ee24)" d="M 974.846571 768.96 
L 976.281429 768.96 
L 976.281429 167.904234 
L 974.846571 167.904234 
z
" style="fill:#1f77b4;"/>
   </g>
   <g id="patch_287">
    <path clip-path="url(#p83a8a4ee24)" d="M 977.716286 768.96 
L 979.151143 768.96 
L 979.151143 167.063738 
L 977.716286 167.063738 
z
" style="fill:#1f77b4;"/>
   </g>
   <g id="patch_288">
    <path clip-path="url(#p83a8a4ee24)" d="M 980.586 768.96 
L 982.020857 768.96 
L 982.020857 166.574427 
L 980.586 166.574427 
z
" style="fill:#1f77b4;"/>
   </g>
   <g id="patch_289">
    <path clip-path="url(#p83a8a4ee24)" d="M 983.455714 768.96 
L 984.890571 768.96 
L 984.890571 166.288253 
L 983.455714 166.288253 
z
" style="fill:#1f77b4;"/>
   </g>
   <g id="patch_290">
    <path clip-path="url(#p83a8a4ee24)" d="M 986.325429 768.96 
L 987.760286 768.96 
L 987.760286 165.820711 
L 986.325429 165.820711 
z
" style="fill:#1f77b4;"/>
   </g>
   <g id="patch_291">
    <path clip-path="url(#p83a8a4ee24)" d="M 989.195143 768.96 
L 990.63 768.96 
L 990.63 165.269089 
L 989.195143 165.269089 
z
" style="fill:#1f77b4;"/>
   </g>
   <g id="patch_292">
    <path clip-path="url(#p83a8a4ee24)" d="M 992.064857 768.96 
L 993.499714 768.96 
L 993.499714 164.704444 
L 992.064857 164.704444 
z
" style="fill:#1f77b4;"/>
   </g>
   <g id="patch_293">
    <path clip-path="url(#p83a8a4ee24)" d="M 994.934571 768.96 
L 996.369429 768.96 
L 996.369429 164.064598 
L 994.934571 164.064598 
z
" style="fill:#1f77b4;"/>
   </g>
   <g id="patch_294">
    <path clip-path="url(#p83a8a4ee24)" d="M 997.804286 768.96 
L 999.239143 768.96 
L 999.239143 163.503108 
L 997.804286 163.503108 
z
" style="fill:#1f77b4;"/>
   </g>
   <g id="patch_295">
    <path clip-path="url(#p83a8a4ee24)" d="M 1000.674 768.96 
L 1002.108857 768.96 
L 1002.108857 163.093062 
L 1000.674 163.093062 
z
" style="fill:#1f77b4;"/>
   </g>
   <g id="patch_296">
    <path clip-path="url(#p83a8a4ee24)" d="M 1003.543714 768.96 
L 1004.978571 768.96 
L 1004.978571 162.74883 
L 1003.543714 162.74883 
z
" style="fill:#1f77b4;"/>
   </g>
   <g id="patch_297">
    <path clip-path="url(#p83a8a4ee24)" d="M 1006.413429 768.96 
L 1007.848286 768.96 
L 1007.848286 162.291156 
L 1006.413429 162.291156 
z
" style="fill:#1f77b4;"/>
   </g>
   <g id="patch_298">
    <path clip-path="url(#p83a8a4ee24)" d="M 1009.283143 768.96 
L 1010.718 768.96 
L 1010.718 161.608227 
L 1009.283143 161.608227 
z
" style="fill:#1f77b4;"/>
   </g>
   <g id="patch_299">
    <path clip-path="url(#p83a8a4ee24)" d="M 1012.152857 768.96 
L 1013.587714 768.96 
L 1013.587714 161.052487 
L 1012.152857 161.052487 
z
" style="fill:#1f77b4;"/>
   </g>
   <g id="patch_300">
    <path clip-path="url(#p83a8a4ee24)" d="M 1015.022571 768.96 
L 1016.457429 768.96 
L 1016.457429 160.544536 
L 1015.022571 160.544536 
z
" style="fill:#1f77b4;"/>
   </g>
   <g id="patch_301">
    <path clip-path="url(#p83a8a4ee24)" d="M 1017.892286 768.96 
L 1019.327143 768.96 
L 1019.327143 158.909327 
L 1017.892286 158.909327 
z
" style="fill:#1f77b4;"/>
   </g>
   <g id="patch_302">
    <path clip-path="url(#p83a8a4ee24)" d="M 1020.762 768.96 
L 1022.196857 768.96 
L 1022.196857 158.463366 
L 1020.762 158.463366 
z
" style="fill:#1f77b4;"/>
   </g>
   <g id="patch_303">
    <path clip-path="url(#p83a8a4ee24)" d="M 1023.631714 768.96 
L 1025.066571 768.96 
L 1025.066571 158.159034 
L 1023.631714 158.159034 
z
" style="fill:#1f77b4;"/>
   </g>
   <g id="patch_304">
    <path clip-path="url(#p83a8a4ee24)" d="M 1026.501429 768.96 
L 1027.936286 768.96 
L 1027.936286 157.795387 
L 1026.501429 157.795387 
z
" style="fill:#1f77b4;"/>
   </g>
   <g id="patch_305">
    <path clip-path="url(#p83a8a4ee24)" d="M 1029.371143 768.96 
L 1030.806 768.96 
L 1030.806 157.328994 
L 1029.371143 157.328994 
z
" style="fill:#1f77b4;"/>
   </g>
   <g id="patch_306">
    <path clip-path="url(#p83a8a4ee24)" d="M 1032.240857 768.96 
L 1033.675714 768.96 
L 1033.675714 157.03675 
L 1032.240857 157.03675 
z
" style="fill:#1f77b4;"/>
   </g>
   <g id="patch_307">
    <path clip-path="url(#p83a8a4ee24)" d="M 1035.110571 768.96 
L 1036.545429 768.96 
L 1036.545429 156.547305 
L 1035.110571 156.547305 
z
" style="fill:#1f77b4;"/>
   </g>
   <g id="patch_308">
    <path clip-path="url(#p83a8a4ee24)" d="M 1037.980286 768.96 
L 1039.415143 768.96 
L 1039.415143 155.990469 
L 1037.980286 155.990469 
z
" style="fill:#1f77b4;"/>
   </g>
   <g id="patch_309">
    <path clip-path="url(#p83a8a4ee24)" d="M 1040.85 768.96 
L 1042.284857 768.96 
L 1042.284857 155.334738 
L 1040.85 155.334738 
z
" style="fill:#1f77b4;"/>
   </g>
   <g id="patch_310">
    <path clip-path="url(#p83a8a4ee24)" d="M 1043.719714 768.96 
L 1045.154571 768.96 
L 1045.154571 155.128097 
L 1043.719714 155.128097 
z
" style="fill:#1f77b4;"/>
   </g>
   <g id="patch_311">
    <path clip-path="url(#p83a8a4ee24)" d="M 1046.589429 768.96 
L 1048.024286 768.96 
L 1048.024286 154.776109 
L 1046.589429 154.776109 
z
" style="fill:#1f77b4;"/>
   </g>
   <g id="patch_312">
    <path clip-path="url(#p83a8a4ee24)" d="M 1049.459143 768.96 
L 1050.894 768.96 
L 1050.894 154.258799 
L 1049.459143 154.258799 
z
" style="fill:#1f77b4;"/>
   </g>
   <g id="patch_313">
    <path clip-path="url(#p83a8a4ee24)" d="M 1052.328857 768.96 
L 1053.763714 768.96 
L 1053.763714 153.829231 
L 1052.328857 153.829231 
z
" style="fill:#1f77b4;"/>
   </g>
   <g id="patch_314">
    <path clip-path="url(#p83a8a4ee24)" d="M 1055.198571 768.96 
L 1056.633429 768.96 
L 1056.633429 153.427662 
L 1055.198571 153.427662 
z
" style="fill:#1f77b4;"/>
   </g>
   <g id="patch_315">
    <path clip-path="url(#p83a8a4ee24)" d="M 1058.068286 768.96 
L 1059.503143 768.96 
L 1059.503143 152.97908 
L 1058.068286 152.97908 
z
" style="fill:#1f77b4;"/>
   </g>
   <g id="patch_316">
    <path clip-path="url(#p83a8a4ee24)" d="M 1060.938 768.96 
L 1062.372857 768.96 
L 1062.372857 152.623884 
L 1060.938 152.623884 
z
" style="fill:#1f77b4;"/>
   </g>
   <g id="patch_317">
    <path clip-path="url(#p83a8a4ee24)" d="M 1063.807714 768.96 
L 1065.242571 768.96 
L 1065.242571 152.422779 
L 1063.807714 152.422779 
z
" style="fill:#1f77b4;"/>
   </g>
   <g id="patch_318">
    <path clip-path="url(#p83a8a4ee24)" d="M 1066.677429 768.96 
L 1068.112286 768.96 
L 1068.112286 152.097855 
L 1066.677429 152.097855 
z
" style="fill:#1f77b4;"/>
   </g>
   <g id="patch_319">
    <path clip-path="url(#p83a8a4ee24)" d="M 1069.547143 768.96 
L 1070.982 768.96 
L 1070.982 151.666655 
L 1069.547143 151.666655 
z
" style="fill:#1f77b4;"/>
   </g>
   <g id="patch_320">
    <path clip-path="url(#p83a8a4ee24)" d="M 1072.416857 768.96 
L 1073.851714 768.96 
L 1073.851714 151.246715 
L 1072.416857 151.246715 
z
" style="fill:#1f77b4;"/>
   </g>
   <g id="patch_321">
    <path clip-path="url(#p83a8a4ee24)" d="M 1075.286571 768.96 
L 1076.721429 768.96 
L 1076.721429 150.821292 
L 1075.286571 150.821292 
z
" style="fill:#1f77b4;"/>
   </g>
   <g id="patch_322">
    <path clip-path="url(#p83a8a4ee24)" d="M 1078.156286 768.96 
L 1079.591143 768.96 
L 1079.591143 150.357039 
L 1078.156286 150.357039 
z
" style="fill:#1f77b4;"/>
   </g>
   <g id="patch_323">
    <path clip-path="url(#p83a8a4ee24)" d="M 1081.026 768.96 
L 1082.460857 768.96 
L 1082.460857 150.010159 
L 1081.026 150.010159 
z
" style="fill:#1f77b4;"/>
   </g>
   <g id="patch_324">
    <path clip-path="url(#p83a8a4ee24)" d="M 1083.895714 768.96 
L 1085.330571 768.96 
L 1085.330571 149.814269 
L 1083.895714 149.814269 
z
" style="fill:#1f77b4;"/>
   </g>
   <g id="patch_325">
    <path clip-path="url(#p83a8a4ee24)" d="M 1086.765429 768.96 
L 1088.200286 768.96 
L 1088.200286 149.399516 
L 1086.765429 149.399516 
z
" style="fill:#1f77b4;"/>
   </g>
   <g id="patch_326">
    <path clip-path="url(#p83a8a4ee24)" d="M 1089.635143 768.96 
L 1091.07 768.96 
L 1091.07 148.955882 
L 1089.635143 148.955882 
z
" style="fill:#1f77b4;"/>
   </g>
   <g id="patch_327">
    <path clip-path="url(#p83a8a4ee24)" d="M 1092.504857 768.96 
L 1093.939714 768.96 
L 1093.939714 148.561748 
L 1092.504857 148.561748 
z
" style="fill:#1f77b4;"/>
   </g>
   <g id="patch_328">
    <path clip-path="url(#p83a8a4ee24)" d="M 1095.374571 768.96 
L 1096.809429 768.96 
L 1096.809429 148.369067 
L 1095.374571 148.369067 
z
" style="fill:#1f77b4;"/>
   </g>
   <g id="patch_329">
    <path clip-path="url(#p83a8a4ee24)" d="M 1098.244286 768.96 
L 1099.679143 768.96 
L 1099.679143 148.196737 
L 1098.244286 148.196737 
z
" style="fill:#1f77b4;"/>
   </g>
   <g id="patch_330">
    <path clip-path="url(#p83a8a4ee24)" d="M 1101.114 768.96 
L 1102.548857 768.96 
L 1102.548857 147.816616 
L 1101.114 147.816616 
z
" style="fill:#1f77b4;"/>
   </g>
   <g id="patch_331">
    <path clip-path="url(#p83a8a4ee24)" d="M 1103.983714 768.96 
L 1105.418571 768.96 
L 1105.418571 147.471796 
L 1103.983714 147.471796 
z
" style="fill:#1f77b4;"/>
   </g>
   <g id="patch_332">
    <path clip-path="url(#p83a8a4ee24)" d="M 1106.853429 768.96 
L 1108.288286 768.96 
L 1108.288286 146.954298 
L 1106.853429 146.954298 
z
" style="fill:#1f77b4;"/>
   </g>
   <g id="patch_333">
    <path clip-path="url(#p83a8a4ee24)" d="M 1109.723143 768.96 
L 1111.158 768.96 
L 1111.158 146.262598 
L 1109.723143 146.262598 
z
" style="fill:#1f77b4;"/>
   </g>
   <g id="patch_334">
    <path clip-path="url(#p83a8a4ee24)" d="M 1112.592857 768.96 
L 1114.027714 768.96 
L 1114.027714 145.781684 
L 1112.592857 145.781684 
z
" style="fill:#1f77b4;"/>
   </g>
   <g id="patch_335">
    <path clip-path="url(#p83a8a4ee24)" d="M 1115.462571 768.96 
L 1116.897429 768.96 
L 1116.897429 144.898346 
L 1115.462571 144.898346 
z
" style="fill:#1f77b4;"/>
   </g>
   <g id="patch_336">
    <path clip-path="url(#p83a8a4ee24)" d="M 1118.332286 768.96 
L 1119.767143 768.96 
L 1119.767143 144.107189 
L 1118.332286 144.107189 
z
" style="fill:#1f77b4;"/>
   </g>
   <g id="patch_337">
    <path clip-path="url(#p83a8a4ee24)" d="M 1121.202 768.96 
L 1122.636857 768.96 
L 1122.636857 143.313145 
L 1121.202 143.313145 
z
" style="fill:#1f77b4;"/>
   </g>
   <g id="patch_338">
    <path clip-path="url(#p83a8a4ee24)" d="M 1124.071714 768.96 
L 1125.506571 768.96 
L 1125.506571 142.82116 
L 1124.071714 142.82116 
z
" style="fill:#1f77b4;"/>
   </g>
   <g id="patch_339">
    <path clip-path="url(#p83a8a4ee24)" d="M 1126.941429 768.96 
L 1128.376286 768.96 
L 1128.376286 142.230601 
L 1126.941429 142.230601 
z
" style="fill:#1f77b4;"/>
   </g>
   <g id="patch_340">
    <path clip-path="url(#p83a8a4ee24)" d="M 1129.811143 768.96 
L 1131.246 768.96 
L 1131.246 141.545506 
L 1129.811143 141.545506 
z
" style="fill:#1f77b4;"/>
   </g>
   <g id="patch_341">
    <path clip-path="url(#p83a8a4ee24)" d="M 1132.680857 768.96 
L 1134.115714 768.96 
L 1134.115714 140.894509 
L 1132.680857 140.894509 
z
" style="fill:#1f77b4;"/>
   </g>
   <g id="patch_342">
    <path clip-path="url(#p83a8a4ee24)" d="M 1135.550571 768.96 
L 1136.985429 768.96 
L 1136.985429 140.235996 
L 1135.550571 140.235996 
z
" style="fill:#1f77b4;"/>
   </g>
   <g id="patch_343">
    <path clip-path="url(#p83a8a4ee24)" d="M 1138.420286 768.96 
L 1139.855143 768.96 
L 1139.855143 139.588181 
L 1138.420286 139.588181 
z
" style="fill:#1f77b4;"/>
   </g>
   <g id="patch_344">
    <path clip-path="url(#p83a8a4ee24)" d="M 1141.29 768.96 
L 1142.724857 768.96 
L 1142.724857 138.997542 
L 1141.29 138.997542 
z
" style="fill:#1f77b4;"/>
   </g>
   <g id="patch_345">
    <path clip-path="url(#p83a8a4ee24)" d="M 1144.159714 768.96 
L 1145.594571 768.96 
L 1145.594571 138.773251 
L 1144.159714 138.773251 
z
" style="fill:#1f77b4;"/>
   </g>
   <g id="patch_346">
    <path clip-path="url(#p83a8a4ee24)" d="M 1147.029429 768.96 
L 1148.464286 768.96 
L 1148.464286 138.128886 
L 1147.029429 138.128886 
z
" style="fill:#1f77b4;"/>
   </g>
   <g id="patch_347">
    <path clip-path="url(#p83a8a4ee24)" d="M 1149.899143 768.96 
L 1151.334 768.96 
L 1151.334 137.529849 
L 1149.899143 137.529849 
z
" style="fill:#1f77b4;"/>
   </g>
   <g id="patch_348">
    <path clip-path="url(#p83a8a4ee24)" d="M 1152.768857 768.96 
L 1154.203714 768.96 
L 1154.203714 136.911504 
L 1152.768857 136.911504 
z
" style="fill:#1f77b4;"/>
   </g>
   <g id="patch_349">
    <path clip-path="url(#p83a8a4ee24)" d="M 1155.638571 768.96 
L 1157.073429 768.96 
L 1157.073429 136.415722 
L 1155.638571 136.415722 
z
" style="fill:#1f77b4;"/>
   </g>
   <g id="patch_350">
    <path clip-path="url(#p83a8a4ee24)" d="M 1158.508286 768.96 
L 1159.943143 768.96 
L 1159.943143 136.04833 
L 1158.508286 136.04833 
z
" style="fill:#1f77b4;"/>
   </g>
   <g id="patch_351">
    <path clip-path="url(#p83a8a4ee24)" d="M 1161.378 768.96 
L 1162.812857 768.96 
L 1162.812857 135.628363 
L 1161.378 135.628363 
z
" style="fill:#1f77b4;"/>
   </g>
   <g id="patch_352">
    <path clip-path="url(#p83a8a4ee24)" d="M 1164.247714 768.96 
L 1165.682571 768.96 
L 1165.682571 135.36 
L 1164.247714 135.36 
z
" style="fill:#1f77b4;"/>
   </g>
   <g id="matplotlib.axis_1">
    <g id="xtick_1">
     <g id="line2d_1">
      <defs>
       <path d="M 0 0 
L 0 3.5 
" id="me63177d184" style="stroke:#000000;stroke-width:0.8;"/>
      </defs>
      <g>
       <use style="stroke:#000000;stroke-width:0.8;" x="163.434857" xlink:href="#me63177d184" y="768.96"/>
      </g>
     </g>
     <g id="text_1">
      <!-- January -->
      <g transform="translate(144.479388 783.558437)scale(0.1 -0.1)">
       <defs>
        <path d="M 628 4666 
L 1259 4666 
L 1259 325 
Q 1259 -519 939 -900 
Q 619 -1281 -91 -1281 
L -331 -1281 
L -331 -750 
L -134 -750 
Q 284 -750 456 -515 
Q 628 -281 628 325 
L 628 4666 
z
" id="DejaVuSans-4a" transform="scale(0.015625)"/>
        <path d="M 2194 1759 
Q 1497 1759 1228 1600 
Q 959 1441 959 1056 
Q 959 750 1161 570 
Q 1363 391 1709 391 
Q 2188 391 2477 730 
Q 2766 1069 2766 1631 
L 2766 1759 
L 2194 1759 
z
M 3341 1997 
L 3341 0 
L 2766 0 
L 2766 531 
Q 2569 213 2275 61 
Q 1981 -91 1556 -91 
Q 1019 -91 701 211 
Q 384 513 384 1019 
Q 384 1609 779 1909 
Q 1175 2209 1959 2209 
L 2766 2209 
L 2766 2266 
Q 2766 2663 2505 2880 
Q 2244 3097 1772 3097 
Q 1472 3097 1187 3025 
Q 903 2953 641 2809 
L 641 3341 
Q 956 3463 1253 3523 
Q 1550 3584 1831 3584 
Q 2591 3584 2966 3190 
Q 3341 2797 3341 1997 
z
" id="DejaVuSans-61" transform="scale(0.015625)"/>
        <path d="M 3513 2113 
L 3513 0 
L 2938 0 
L 2938 2094 
Q 2938 2591 2744 2837 
Q 2550 3084 2163 3084 
Q 1697 3084 1428 2787 
Q 1159 2491 1159 1978 
L 1159 0 
L 581 0 
L 581 3500 
L 1159 3500 
L 1159 2956 
Q 1366 3272 1645 3428 
Q 1925 3584 2291 3584 
Q 2894 3584 3203 3211 
Q 3513 2838 3513 2113 
z
" id="DejaVuSans-6e" transform="scale(0.015625)"/>
        <path d="M 544 1381 
L 544 3500 
L 1119 3500 
L 1119 1403 
Q 1119 906 1312 657 
Q 1506 409 1894 409 
Q 2359 409 2629 706 
Q 2900 1003 2900 1516 
L 2900 3500 
L 3475 3500 
L 3475 0 
L 2900 0 
L 2900 538 
Q 2691 219 2414 64 
Q 2138 -91 1772 -91 
Q 1169 -91 856 284 
Q 544 659 544 1381 
z
M 1991 3584 
L 1991 3584 
z
" id="DejaVuSans-75" transform="scale(0.015625)"/>
        <path d="M 2631 2963 
Q 2534 3019 2420 3045 
Q 2306 3072 2169 3072 
Q 1681 3072 1420 2755 
Q 1159 2438 1159 1844 
L 1159 0 
L 581 0 
L 581 3500 
L 1159 3500 
L 1159 2956 
Q 1341 3275 1631 3429 
Q 1922 3584 2338 3584 
Q 2397 3584 2469 3576 
Q 2541 3569 2628 3553 
L 2631 2963 
z
" id="DejaVuSans-72" transform="scale(0.015625)"/>
        <path d="M 2059 -325 
Q 1816 -950 1584 -1140 
Q 1353 -1331 966 -1331 
L 506 -1331 
L 506 -850 
L 844 -850 
Q 1081 -850 1212 -737 
Q 1344 -625 1503 -206 
L 1606 56 
L 191 3500 
L 800 3500 
L 1894 763 
L 2988 3500 
L 3597 3500 
L 2059 -325 
z
" id="DejaVuSans-79" transform="scale(0.015625)"/>
       </defs>
       <use xlink:href="#DejaVuSans-4a"/>
       <use x="29.492188" xlink:href="#DejaVuSans-61"/>
       <use x="90.771484" xlink:href="#DejaVuSans-6e"/>
       <use x="154.150391" xlink:href="#DejaVuSans-75"/>
       <use x="217.529297" xlink:href="#DejaVuSans-61"/>
       <use x="278.808594" xlink:href="#DejaVuSans-72"/>
       <use x="319.921875" xlink:href="#DejaVuSans-79"/>
      </g>
     </g>
    </g>
    <g id="xtick_2">
     <g id="line2d_2">
      <g>
       <use style="stroke:#000000;stroke-width:0.8;" x="252.396" xlink:href="#me63177d184" y="768.96"/>
      </g>
     </g>
     <g id="text_2">
      <!-- February -->
      <g transform="translate(230.241313 783.558437)scale(0.1 -0.1)">
       <defs>
        <path d="M 628 4666 
L 3309 4666 
L 3309 4134 
L 1259 4134 
L 1259 2759 
L 3109 2759 
L 3109 2228 
L 1259 2228 
L 1259 0 
L 628 0 
L 628 4666 
z
" id="DejaVuSans-46" transform="scale(0.015625)"/>
        <path d="M 3597 1894 
L 3597 1613 
L 953 1613 
Q 991 1019 1311 708 
Q 1631 397 2203 397 
Q 2534 397 2845 478 
Q 3156 559 3463 722 
L 3463 178 
Q 3153 47 2828 -22 
Q 2503 -91 2169 -91 
Q 1331 -91 842 396 
Q 353 884 353 1716 
Q 353 2575 817 3079 
Q 1281 3584 2069 3584 
Q 2775 3584 3186 3129 
Q 3597 2675 3597 1894 
z
M 3022 2063 
Q 3016 2534 2758 2815 
Q 2500 3097 2075 3097 
Q 1594 3097 1305 2825 
Q 1016 2553 972 2059 
L 3022 2063 
z
" id="DejaVuSans-65" transform="scale(0.015625)"/>
        <path d="M 3116 1747 
Q 3116 2381 2855 2742 
Q 2594 3103 2138 3103 
Q 1681 3103 1420 2742 
Q 1159 2381 1159 1747 
Q 1159 1113 1420 752 
Q 1681 391 2138 391 
Q 2594 391 2855 752 
Q 3116 1113 3116 1747 
z
M 1159 2969 
Q 1341 3281 1617 3432 
Q 1894 3584 2278 3584 
Q 2916 3584 3314 3078 
Q 3713 2572 3713 1747 
Q 3713 922 3314 415 
Q 2916 -91 2278 -91 
Q 1894 -91 1617 61 
Q 1341 213 1159 525 
L 1159 0 
L 581 0 
L 581 4863 
L 1159 4863 
L 1159 2969 
z
" id="DejaVuSans-62" transform="scale(0.015625)"/>
       </defs>
       <use xlink:href="#DejaVuSans-46"/>
       <use x="52.019531" xlink:href="#DejaVuSans-65"/>
       <use x="113.542969" xlink:href="#DejaVuSans-62"/>
       <use x="177.019531" xlink:href="#DejaVuSans-72"/>
       <use x="218.132812" xlink:href="#DejaVuSans-75"/>
       <use x="281.511719" xlink:href="#DejaVuSans-61"/>
       <use x="342.791016" xlink:href="#DejaVuSans-72"/>
       <use x="383.904297" xlink:href="#DejaVuSans-79"/>
      </g>
     </g>
    </g>
    <g id="xtick_3">
     <g id="line2d_3">
      <g>
       <use style="stroke:#000000;stroke-width:0.8;" x="332.748" xlink:href="#me63177d184" y="768.96"/>
      </g>
     </g>
     <g id="text_3">
      <!-- March -->
      <g transform="translate(317.508938 783.558437)scale(0.1 -0.1)">
       <defs>
        <path d="M 628 4666 
L 1569 4666 
L 2759 1491 
L 3956 4666 
L 4897 4666 
L 4897 0 
L 4281 0 
L 4281 4097 
L 3078 897 
L 2444 897 
L 1241 4097 
L 1241 0 
L 628 0 
L 628 4666 
z
" id="DejaVuSans-4d" transform="scale(0.015625)"/>
        <path d="M 3122 3366 
L 3122 2828 
Q 2878 2963 2633 3030 
Q 2388 3097 2138 3097 
Q 1578 3097 1268 2742 
Q 959 2388 959 1747 
Q 959 1106 1268 751 
Q 1578 397 2138 397 
Q 2388 397 2633 464 
Q 2878 531 3122 666 
L 3122 134 
Q 2881 22 2623 -34 
Q 2366 -91 2075 -91 
Q 1284 -91 818 406 
Q 353 903 353 1747 
Q 353 2603 823 3093 
Q 1294 3584 2113 3584 
Q 2378 3584 2631 3529 
Q 2884 3475 3122 3366 
z
" id="DejaVuSans-63" transform="scale(0.015625)"/>
        <path d="M 3513 2113 
L 3513 0 
L 2938 0 
L 2938 2094 
Q 2938 2591 2744 2837 
Q 2550 3084 2163 3084 
Q 1697 3084 1428 2787 
Q 1159 2491 1159 1978 
L 1159 0 
L 581 0 
L 581 4863 
L 1159 4863 
L 1159 2956 
Q 1366 3272 1645 3428 
Q 1925 3584 2291 3584 
Q 2894 3584 3203 3211 
Q 3513 2838 3513 2113 
z
" id="DejaVuSans-68" transform="scale(0.015625)"/>
       </defs>
       <use xlink:href="#DejaVuSans-4d"/>
       <use x="86.279297" xlink:href="#DejaVuSans-61"/>
       <use x="147.558594" xlink:href="#DejaVuSans-72"/>
       <use x="186.421875" xlink:href="#DejaVuSans-63"/>
       <use x="241.402344" xlink:href="#DejaVuSans-68"/>
      </g>
     </g>
    </g>
    <g id="xtick_4">
     <g id="line2d_4">
      <g>
       <use style="stroke:#000000;stroke-width:0.8;" x="421.709143" xlink:href="#me63177d184" y="768.96"/>
      </g>
     </g>
     <g id="text_4">
      <!-- April -->
      <g transform="translate(410.281018 783.558437)scale(0.1 -0.1)">
       <defs>
        <path d="M 2188 4044 
L 1331 1722 
L 3047 1722 
L 2188 4044 
z
M 1831 4666 
L 2547 4666 
L 4325 0 
L 3669 0 
L 3244 1197 
L 1141 1197 
L 716 0 
L 50 0 
L 1831 4666 
z
" id="DejaVuSans-41" transform="scale(0.015625)"/>
        <path d="M 1159 525 
L 1159 -1331 
L 581 -1331 
L 581 3500 
L 1159 3500 
L 1159 2969 
Q 1341 3281 1617 3432 
Q 1894 3584 2278 3584 
Q 2916 3584 3314 3078 
Q 3713 2572 3713 1747 
Q 3713 922 3314 415 
Q 2916 -91 2278 -91 
Q 1894 -91 1617 61 
Q 1341 213 1159 525 
z
M 3116 1747 
Q 3116 2381 2855 2742 
Q 2594 3103 2138 3103 
Q 1681 3103 1420 2742 
Q 1159 2381 1159 1747 
Q 1159 1113 1420 752 
Q 1681 391 2138 391 
Q 2594 391 2855 752 
Q 3116 1113 3116 1747 
z
" id="DejaVuSans-70" transform="scale(0.015625)"/>
        <path d="M 603 3500 
L 1178 3500 
L 1178 0 
L 603 0 
L 603 3500 
z
M 603 4863 
L 1178 4863 
L 1178 4134 
L 603 4134 
L 603 4863 
z
" id="DejaVuSans-69" transform="scale(0.015625)"/>
        <path d="M 603 4863 
L 1178 4863 
L 1178 0 
L 603 0 
L 603 4863 
z
" id="DejaVuSans-6c" transform="scale(0.015625)"/>
       </defs>
       <use xlink:href="#DejaVuSans-41"/>
       <use x="68.408203" xlink:href="#DejaVuSans-70"/>
       <use x="131.884766" xlink:href="#DejaVuSans-72"/>
       <use x="172.998047" xlink:href="#DejaVuSans-69"/>
       <use x="200.78125" xlink:href="#DejaVuSans-6c"/>
      </g>
     </g>
    </g>
    <g id="xtick_5">
     <g id="line2d_5">
      <g>
       <use style="stroke:#000000;stroke-width:0.8;" x="507.800571" xlink:href="#me63177d184" y="768.96"/>
      </g>
     </g>
     <g id="text_5">
      <!-- May -->
      <g transform="translate(497.463071 783.558437)scale(0.1 -0.1)">
       <use xlink:href="#DejaVuSans-4d"/>
       <use x="86.279297" xlink:href="#DejaVuSans-61"/>
       <use x="147.558594" xlink:href="#DejaVuSans-79"/>
      </g>
     </g>
    </g>
    <g id="xtick_6">
     <g id="line2d_6">
      <g>
       <use style="stroke:#000000;stroke-width:0.8;" x="596.761714" xlink:href="#me63177d184" y="768.96"/>
      </g>
     </g>
     <g id="text_6">
      <!-- June -->
      <g transform="translate(585.872652 783.558437)scale(0.1 -0.1)">
       <use xlink:href="#DejaVuSans-4a"/>
       <use x="29.492188" xlink:href="#DejaVuSans-75"/>
       <use x="92.871094" xlink:href="#DejaVuSans-6e"/>
       <use x="156.25" xlink:href="#DejaVuSans-65"/>
      </g>
     </g>
    </g>
    <g id="xtick_7">
     <g id="line2d_7">
      <g>
       <use style="stroke:#000000;stroke-width:0.8;" x="682.853143" xlink:href="#me63177d184" y="768.96"/>
      </g>
     </g>
     <g id="text_7">
      <!-- July -->
      <g transform="translate(673.860955 783.558437)scale(0.1 -0.1)">
       <use xlink:href="#DejaVuSans-4a"/>
       <use x="29.492188" xlink:href="#DejaVuSans-75"/>
       <use x="92.871094" xlink:href="#DejaVuSans-6c"/>
       <use x="120.654297" xlink:href="#DejaVuSans-79"/>
      </g>
     </g>
    </g>
    <g id="xtick_8">
     <g id="line2d_8">
      <g>
       <use style="stroke:#000000;stroke-width:0.8;" x="771.814286" xlink:href="#me63177d184" y="768.96"/>
      </g>
     </g>
     <g id="text_8">
      <!-- August -->
      <g transform="translate(754.317411 783.558437)scale(0.1 -0.1)">
       <defs>
        <path d="M 2906 1791 
Q 2906 2416 2648 2759 
Q 2391 3103 1925 3103 
Q 1463 3103 1205 2759 
Q 947 2416 947 1791 
Q 947 1169 1205 825 
Q 1463 481 1925 481 
Q 2391 481 2648 825 
Q 2906 1169 2906 1791 
z
M 3481 434 
Q 3481 -459 3084 -895 
Q 2688 -1331 1869 -1331 
Q 1566 -1331 1297 -1286 
Q 1028 -1241 775 -1147 
L 775 -588 
Q 1028 -725 1275 -790 
Q 1522 -856 1778 -856 
Q 2344 -856 2625 -561 
Q 2906 -266 2906 331 
L 2906 616 
Q 2728 306 2450 153 
Q 2172 0 1784 0 
Q 1141 0 747 490 
Q 353 981 353 1791 
Q 353 2603 747 3093 
Q 1141 3584 1784 3584 
Q 2172 3584 2450 3431 
Q 2728 3278 2906 2969 
L 2906 3500 
L 3481 3500 
L 3481 434 
z
" id="DejaVuSans-67" transform="scale(0.015625)"/>
        <path d="M 2834 3397 
L 2834 2853 
Q 2591 2978 2328 3040 
Q 2066 3103 1784 3103 
Q 1356 3103 1142 2972 
Q 928 2841 928 2578 
Q 928 2378 1081 2264 
Q 1234 2150 1697 2047 
L 1894 2003 
Q 2506 1872 2764 1633 
Q 3022 1394 3022 966 
Q 3022 478 2636 193 
Q 2250 -91 1575 -91 
Q 1294 -91 989 -36 
Q 684 19 347 128 
L 347 722 
Q 666 556 975 473 
Q 1284 391 1588 391 
Q 1994 391 2212 530 
Q 2431 669 2431 922 
Q 2431 1156 2273 1281 
Q 2116 1406 1581 1522 
L 1381 1569 
Q 847 1681 609 1914 
Q 372 2147 372 2553 
Q 372 3047 722 3315 
Q 1072 3584 1716 3584 
Q 2034 3584 2315 3537 
Q 2597 3491 2834 3397 
z
" id="DejaVuSans-73" transform="scale(0.015625)"/>
        <path d="M 1172 4494 
L 1172 3500 
L 2356 3500 
L 2356 3053 
L 1172 3053 
L 1172 1153 
Q 1172 725 1289 603 
Q 1406 481 1766 481 
L 2356 481 
L 2356 0 
L 1766 0 
Q 1100 0 847 248 
Q 594 497 594 1153 
L 594 3053 
L 172 3053 
L 172 3500 
L 594 3500 
L 594 4494 
L 1172 4494 
z
" id="DejaVuSans-74" transform="scale(0.015625)"/>
       </defs>
       <use xlink:href="#DejaVuSans-41"/>
       <use x="68.408203" xlink:href="#DejaVuSans-75"/>
       <use x="131.787109" xlink:href="#DejaVuSans-67"/>
       <use x="195.263672" xlink:href="#DejaVuSans-75"/>
       <use x="258.642578" xlink:href="#DejaVuSans-73"/>
       <use x="310.742188" xlink:href="#DejaVuSans-74"/>
      </g>
     </g>
    </g>
    <g id="xtick_9">
     <g id="line2d_9">
      <g>
       <use style="stroke:#000000;stroke-width:0.8;" x="860.775429" xlink:href="#me63177d184" y="768.96"/>
      </g>
     </g>
     <g id="text_9">
      <!-- September -->
      <g transform="translate(833.137147 783.558437)scale(0.1 -0.1)">
       <defs>
        <path d="M 3425 4513 
L 3425 3897 
Q 3066 4069 2747 4153 
Q 2428 4238 2131 4238 
Q 1616 4238 1336 4038 
Q 1056 3838 1056 3469 
Q 1056 3159 1242 3001 
Q 1428 2844 1947 2747 
L 2328 2669 
Q 3034 2534 3370 2195 
Q 3706 1856 3706 1288 
Q 3706 609 3251 259 
Q 2797 -91 1919 -91 
Q 1588 -91 1214 -16 
Q 841 59 441 206 
L 441 856 
Q 825 641 1194 531 
Q 1563 422 1919 422 
Q 2459 422 2753 634 
Q 3047 847 3047 1241 
Q 3047 1584 2836 1778 
Q 2625 1972 2144 2069 
L 1759 2144 
Q 1053 2284 737 2584 
Q 422 2884 422 3419 
Q 422 4038 858 4394 
Q 1294 4750 2059 4750 
Q 2388 4750 2728 4690 
Q 3069 4631 3425 4513 
z
" id="DejaVuSans-53" transform="scale(0.015625)"/>
        <path d="M 3328 2828 
Q 3544 3216 3844 3400 
Q 4144 3584 4550 3584 
Q 5097 3584 5394 3201 
Q 5691 2819 5691 2113 
L 5691 0 
L 5113 0 
L 5113 2094 
Q 5113 2597 4934 2840 
Q 4756 3084 4391 3084 
Q 3944 3084 3684 2787 
Q 3425 2491 3425 1978 
L 3425 0 
L 2847 0 
L 2847 2094 
Q 2847 2600 2669 2842 
Q 2491 3084 2119 3084 
Q 1678 3084 1418 2786 
Q 1159 2488 1159 1978 
L 1159 0 
L 581 0 
L 581 3500 
L 1159 3500 
L 1159 2956 
Q 1356 3278 1631 3431 
Q 1906 3584 2284 3584 
Q 2666 3584 2933 3390 
Q 3200 3197 3328 2828 
z
" id="DejaVuSans-6d" transform="scale(0.015625)"/>
       </defs>
       <use xlink:href="#DejaVuSans-53"/>
       <use x="63.476562" xlink:href="#DejaVuSans-65"/>
       <use x="125" xlink:href="#DejaVuSans-70"/>
       <use x="188.476562" xlink:href="#DejaVuSans-74"/>
       <use x="227.685547" xlink:href="#DejaVuSans-65"/>
       <use x="289.208984" xlink:href="#DejaVuSans-6d"/>
       <use x="386.621094" xlink:href="#DejaVuSans-62"/>
       <use x="450.097656" xlink:href="#DejaVuSans-65"/>
       <use x="511.621094" xlink:href="#DejaVuSans-72"/>
      </g>
     </g>
    </g>
    <g id="xtick_10">
     <g id="line2d_10">
      <g>
       <use style="stroke:#000000;stroke-width:0.8;" x="946.866857" xlink:href="#me63177d184" y="768.96"/>
      </g>
     </g>
     <g id="text_10">
      <!-- October -->
      <g transform="translate(926.85592 783.558437)scale(0.1 -0.1)">
       <defs>
        <path d="M 2522 4238 
Q 1834 4238 1429 3725 
Q 1025 3213 1025 2328 
Q 1025 1447 1429 934 
Q 1834 422 2522 422 
Q 3209 422 3611 934 
Q 4013 1447 4013 2328 
Q 4013 3213 3611 3725 
Q 3209 4238 2522 4238 
z
M 2522 4750 
Q 3503 4750 4090 4092 
Q 4678 3434 4678 2328 
Q 4678 1225 4090 567 
Q 3503 -91 2522 -91 
Q 1538 -91 948 565 
Q 359 1222 359 2328 
Q 359 3434 948 4092 
Q 1538 4750 2522 4750 
z
" id="DejaVuSans-4f" transform="scale(0.015625)"/>
        <path d="M 1959 3097 
Q 1497 3097 1228 2736 
Q 959 2375 959 1747 
Q 959 1119 1226 758 
Q 1494 397 1959 397 
Q 2419 397 2687 759 
Q 2956 1122 2956 1747 
Q 2956 2369 2687 2733 
Q 2419 3097 1959 3097 
z
M 1959 3584 
Q 2709 3584 3137 3096 
Q 3566 2609 3566 1747 
Q 3566 888 3137 398 
Q 2709 -91 1959 -91 
Q 1206 -91 779 398 
Q 353 888 353 1747 
Q 353 2609 779 3096 
Q 1206 3584 1959 3584 
z
" id="DejaVuSans-6f" transform="scale(0.015625)"/>
       </defs>
       <use xlink:href="#DejaVuSans-4f"/>
       <use x="78.710938" xlink:href="#DejaVuSans-63"/>
       <use x="133.691406" xlink:href="#DejaVuSans-74"/>
       <use x="172.900391" xlink:href="#DejaVuSans-6f"/>
       <use x="234.082031" xlink:href="#DejaVuSans-62"/>
       <use x="297.558594" xlink:href="#DejaVuSans-65"/>
       <use x="359.082031" xlink:href="#DejaVuSans-72"/>
      </g>
     </g>
    </g>
    <g id="xtick_11">
     <g id="line2d_11">
      <g>
       <use style="stroke:#000000;stroke-width:0.8;" x="1035.828" xlink:href="#me63177d184" y="768.96"/>
      </g>
     </g>
     <g id="text_11">
      <!-- November -->
      <g transform="translate(1009.8155 783.558437)scale(0.1 -0.1)">
       <defs>
        <path d="M 628 4666 
L 1478 4666 
L 3547 763 
L 3547 4666 
L 4159 4666 
L 4159 0 
L 3309 0 
L 1241 3903 
L 1241 0 
L 628 0 
L 628 4666 
z
" id="DejaVuSans-4e" transform="scale(0.015625)"/>
        <path d="M 191 3500 
L 800 3500 
L 1894 563 
L 2988 3500 
L 3597 3500 
L 2284 0 
L 1503 0 
L 191 3500 
z
" id="DejaVuSans-76" transform="scale(0.015625)"/>
       </defs>
       <use xlink:href="#DejaVuSans-4e"/>
       <use x="74.804688" xlink:href="#DejaVuSans-6f"/>
       <use x="135.986328" xlink:href="#DejaVuSans-76"/>
       <use x="195.166016" xlink:href="#DejaVuSans-65"/>
       <use x="256.689453" xlink:href="#DejaVuSans-6d"/>
       <use x="354.101562" xlink:href="#DejaVuSans-62"/>
       <use x="417.578125" xlink:href="#DejaVuSans-65"/>
       <use x="479.101562" xlink:href="#DejaVuSans-72"/>
      </g>
     </g>
    </g>
    <g id="xtick_12">
     <g id="line2d_12">
      <g>
       <use style="stroke:#000000;stroke-width:0.8;" x="1121.919429" xlink:href="#me63177d184" y="768.96"/>
      </g>
     </g>
     <g id="text_12">
      <!-- December -->
      <g transform="translate(1095.990522 783.558437)scale(0.1 -0.1)">
       <defs>
        <path d="M 1259 4147 
L 1259 519 
L 2022 519 
Q 2988 519 3436 956 
Q 3884 1394 3884 2338 
Q 3884 3275 3436 3711 
Q 2988 4147 2022 4147 
L 1259 4147 
z
M 628 4666 
L 1925 4666 
Q 3281 4666 3915 4102 
Q 4550 3538 4550 2338 
Q 4550 1131 3912 565 
Q 3275 0 1925 0 
L 628 0 
L 628 4666 
z
" id="DejaVuSans-44" transform="scale(0.015625)"/>
       </defs>
       <use xlink:href="#DejaVuSans-44"/>
       <use x="77.001953" xlink:href="#DejaVuSans-65"/>
       <use x="138.525391" xlink:href="#DejaVuSans-63"/>
       <use x="193.505859" xlink:href="#DejaVuSans-65"/>
       <use x="255.029297" xlink:href="#DejaVuSans-6d"/>
       <use x="352.441406" xlink:href="#DejaVuSans-62"/>
       <use x="415.917969" xlink:href="#DejaVuSans-65"/>
       <use x="477.441406" xlink:href="#DejaVuSans-72"/>
      </g>
     </g>
    </g>
   </g>
   <g id="matplotlib.axis_2">
    <g id="ytick_1">
     <g id="line2d_13">
      <defs>
       <path d="M 0 0 
L -3.5 0 
" id="m4d01746b72" style="stroke:#000000;stroke-width:0.8;"/>
      </defs>
      <g>
       <use style="stroke:#000000;stroke-width:0.8;" x="162" xlink:href="#m4d01746b72" y="768.96"/>
      </g>
     </g>
     <g id="text_13">
      <!-- 0.0 -->
      <g transform="translate(139.096875 772.759219)scale(0.1 -0.1)">
       <defs>
        <path d="M 2034 4250 
Q 1547 4250 1301 3770 
Q 1056 3291 1056 2328 
Q 1056 1369 1301 889 
Q 1547 409 2034 409 
Q 2525 409 2770 889 
Q 3016 1369 3016 2328 
Q 3016 3291 2770 3770 
Q 2525 4250 2034 4250 
z
M 2034 4750 
Q 2819 4750 3233 4129 
Q 3647 3509 3647 2328 
Q 3647 1150 3233 529 
Q 2819 -91 2034 -91 
Q 1250 -91 836 529 
Q 422 1150 422 2328 
Q 422 3509 836 4129 
Q 1250 4750 2034 4750 
z
" id="DejaVuSans-30" transform="scale(0.015625)"/>
        <path d="M 684 794 
L 1344 794 
L 1344 0 
L 684 0 
L 684 794 
z
" id="DejaVuSans-2e" transform="scale(0.015625)"/>
       </defs>
       <use xlink:href="#DejaVuSans-30"/>
       <use x="63.623047" xlink:href="#DejaVuSans-2e"/>
       <use x="95.410156" xlink:href="#DejaVuSans-30"/>
      </g>
     </g>
    </g>
    <g id="ytick_2">
     <g id="line2d_14">
      <g>
       <use style="stroke:#000000;stroke-width:0.8;" x="162" xlink:href="#m4d01746b72" y="635.246501"/>
      </g>
     </g>
     <g id="text_14">
      <!-- 0.5 -->
      <g transform="translate(139.096875 639.045719)scale(0.1 -0.1)">
       <defs>
        <path d="M 691 4666 
L 3169 4666 
L 3169 4134 
L 1269 4134 
L 1269 2991 
Q 1406 3038 1543 3061 
Q 1681 3084 1819 3084 
Q 2600 3084 3056 2656 
Q 3513 2228 3513 1497 
Q 3513 744 3044 326 
Q 2575 -91 1722 -91 
Q 1428 -91 1123 -41 
Q 819 9 494 109 
L 494 744 
Q 775 591 1075 516 
Q 1375 441 1709 441 
Q 2250 441 2565 725 
Q 2881 1009 2881 1497 
Q 2881 1984 2565 2268 
Q 2250 2553 1709 2553 
Q 1456 2553 1204 2497 
Q 953 2441 691 2322 
L 691 4666 
z
" id="DejaVuSans-35" transform="scale(0.015625)"/>
       </defs>
       <use xlink:href="#DejaVuSans-30"/>
       <use x="63.623047" xlink:href="#DejaVuSans-2e"/>
       <use x="95.410156" xlink:href="#DejaVuSans-35"/>
      </g>
     </g>
    </g>
    <g id="ytick_3">
     <g id="line2d_15">
      <g>
       <use style="stroke:#000000;stroke-width:0.8;" x="162" xlink:href="#m4d01746b72" y="501.533001"/>
      </g>
     </g>
     <g id="text_15">
      <!-- 1.0 -->
      <g transform="translate(139.096875 505.33222)scale(0.1 -0.1)">
       <defs>
        <path d="M 794 531 
L 1825 531 
L 1825 4091 
L 703 3866 
L 703 4441 
L 1819 4666 
L 2450 4666 
L 2450 531 
L 3481 531 
L 3481 0 
L 794 0 
L 794 531 
z
" id="DejaVuSans-31" transform="scale(0.015625)"/>
       </defs>
       <use xlink:href="#DejaVuSans-31"/>
       <use x="63.623047" xlink:href="#DejaVuSans-2e"/>
       <use x="95.410156" xlink:href="#DejaVuSans-30"/>
      </g>
     </g>
    </g>
    <g id="ytick_4">
     <g id="line2d_16">
      <g>
       <use style="stroke:#000000;stroke-width:0.8;" x="162" xlink:href="#m4d01746b72" y="367.819502"/>
      </g>
     </g>
     <g id="text_16">
      <!-- 1.5 -->
      <g transform="translate(139.096875 371.61872)scale(0.1 -0.1)">
       <use xlink:href="#DejaVuSans-31"/>
       <use x="63.623047" xlink:href="#DejaVuSans-2e"/>
       <use x="95.410156" xlink:href="#DejaVuSans-35"/>
      </g>
     </g>
    </g>
    <g id="ytick_5">
     <g id="line2d_17">
      <g>
       <use style="stroke:#000000;stroke-width:0.8;" x="162" xlink:href="#m4d01746b72" y="234.106002"/>
      </g>
     </g>
     <g id="text_17">
      <!-- 2.0 -->
      <g transform="translate(139.096875 237.905221)scale(0.1 -0.1)">
       <defs>
        <path d="M 1228 531 
L 3431 531 
L 3431 0 
L 469 0 
L 469 531 
Q 828 903 1448 1529 
Q 2069 2156 2228 2338 
Q 2531 2678 2651 2914 
Q 2772 3150 2772 3378 
Q 2772 3750 2511 3984 
Q 2250 4219 1831 4219 
Q 1534 4219 1204 4116 
Q 875 4013 500 3803 
L 500 4441 
Q 881 4594 1212 4672 
Q 1544 4750 1819 4750 
Q 2544 4750 2975 4387 
Q 3406 4025 3406 3419 
Q 3406 3131 3298 2873 
Q 3191 2616 2906 2266 
Q 2828 2175 2409 1742 
Q 1991 1309 1228 531 
z
" id="DejaVuSans-32" transform="scale(0.015625)"/>
       </defs>
       <use xlink:href="#DejaVuSans-32"/>
       <use x="63.623047" xlink:href="#DejaVuSans-2e"/>
       <use x="95.410156" xlink:href="#DejaVuSans-30"/>
      </g>
     </g>
    </g>
    <g id="text_18">
     <!-- Persons fully vaccinated (tens of millions) -->
     <g transform="translate(133.017188 540.480156)rotate(-90)scale(0.1 -0.1)">
      <defs>
       <path d="M 1259 4147 
L 1259 2394 
L 2053 2394 
Q 2494 2394 2734 2622 
Q 2975 2850 2975 3272 
Q 2975 3691 2734 3919 
Q 2494 4147 2053 4147 
L 1259 4147 
z
M 628 4666 
L 2053 4666 
Q 2838 4666 3239 4311 
Q 3641 3956 3641 3272 
Q 3641 2581 3239 2228 
Q 2838 1875 2053 1875 
L 1259 1875 
L 1259 0 
L 628 0 
L 628 4666 
z
" id="DejaVuSans-50" transform="scale(0.015625)"/>
       <path id="DejaVuSans-20" transform="scale(0.015625)"/>
       <path d="M 2375 4863 
L 2375 4384 
L 1825 4384 
Q 1516 4384 1395 4259 
Q 1275 4134 1275 3809 
L 1275 3500 
L 2222 3500 
L 2222 3053 
L 1275 3053 
L 1275 0 
L 697 0 
L 697 3053 
L 147 3053 
L 147 3500 
L 697 3500 
L 697 3744 
Q 697 4328 969 4595 
Q 1241 4863 1831 4863 
L 2375 4863 
z
" id="DejaVuSans-66" transform="scale(0.015625)"/>
       <path d="M 2906 2969 
L 2906 4863 
L 3481 4863 
L 3481 0 
L 2906 0 
L 2906 525 
Q 2725 213 2448 61 
Q 2172 -91 1784 -91 
Q 1150 -91 751 415 
Q 353 922 353 1747 
Q 353 2572 751 3078 
Q 1150 3584 1784 3584 
Q 2172 3584 2448 3432 
Q 2725 3281 2906 2969 
z
M 947 1747 
Q 947 1113 1208 752 
Q 1469 391 1925 391 
Q 2381 391 2643 752 
Q 2906 1113 2906 1747 
Q 2906 2381 2643 2742 
Q 2381 3103 1925 3103 
Q 1469 3103 1208 2742 
Q 947 2381 947 1747 
z
" id="DejaVuSans-64" transform="scale(0.015625)"/>
       <path d="M 1984 4856 
Q 1566 4138 1362 3434 
Q 1159 2731 1159 2009 
Q 1159 1288 1364 580 
Q 1569 -128 1984 -844 
L 1484 -844 
Q 1016 -109 783 600 
Q 550 1309 550 2009 
Q 550 2706 781 3412 
Q 1013 4119 1484 4856 
L 1984 4856 
z
" id="DejaVuSans-28" transform="scale(0.015625)"/>
       <path d="M 513 4856 
L 1013 4856 
Q 1481 4119 1714 3412 
Q 1947 2706 1947 2009 
Q 1947 1309 1714 600 
Q 1481 -109 1013 -844 
L 513 -844 
Q 928 -128 1133 580 
Q 1338 1288 1338 2009 
Q 1338 2731 1133 3434 
Q 928 4138 513 4856 
z
" id="DejaVuSans-29" transform="scale(0.015625)"/>
      </defs>
      <use xlink:href="#DejaVuSans-50"/>
      <use x="56.677734" xlink:href="#DejaVuSans-65"/>
      <use x="118.201172" xlink:href="#DejaVuSans-72"/>
      <use x="159.314453" xlink:href="#DejaVuSans-73"/>
      <use x="211.414062" xlink:href="#DejaVuSans-6f"/>
      <use x="272.595703" xlink:href="#DejaVuSans-6e"/>
      <use x="335.974609" xlink:href="#DejaVuSans-73"/>
      <use x="388.074219" xlink:href="#DejaVuSans-20"/>
      <use x="419.861328" xlink:href="#DejaVuSans-66"/>
      <use x="455.066406" xlink:href="#DejaVuSans-75"/>
      <use x="518.445312" xlink:href="#DejaVuSans-6c"/>
      <use x="546.228516" xlink:href="#DejaVuSans-6c"/>
      <use x="574.011719" xlink:href="#DejaVuSans-79"/>
      <use x="633.191406" xlink:href="#DejaVuSans-20"/>
      <use x="664.978516" xlink:href="#DejaVuSans-76"/>
      <use x="724.158203" xlink:href="#DejaVuSans-61"/>
      <use x="785.4375" xlink:href="#DejaVuSans-63"/>
      <use x="840.417969" xlink:href="#DejaVuSans-63"/>
      <use x="895.398438" xlink:href="#DejaVuSans-69"/>
      <use x="923.181641" xlink:href="#DejaVuSans-6e"/>
      <use x="986.560547" xlink:href="#DejaVuSans-61"/>
      <use x="1047.839844" xlink:href="#DejaVuSans-74"/>
      <use x="1087.048828" xlink:href="#DejaVuSans-65"/>
      <use x="1148.572266" xlink:href="#DejaVuSans-64"/>
      <use x="1212.048828" xlink:href="#DejaVuSans-20"/>
      <use x="1243.835938" xlink:href="#DejaVuSans-28"/>
      <use x="1282.849609" xlink:href="#DejaVuSans-74"/>
      <use x="1322.058594" xlink:href="#DejaVuSans-65"/>
      <use x="1383.582031" xlink:href="#DejaVuSans-6e"/>
      <use x="1446.960938" xlink:href="#DejaVuSans-73"/>
      <use x="1499.060547" xlink:href="#DejaVuSans-20"/>
      <use x="1530.847656" xlink:href="#DejaVuSans-6f"/>
      <use x="1592.029297" xlink:href="#DejaVuSans-66"/>
      <use x="1627.234375" xlink:href="#DejaVuSans-20"/>
      <use x="1659.021484" xlink:href="#DejaVuSans-6d"/>
      <use x="1756.433594" xlink:href="#DejaVuSans-69"/>
      <use x="1784.216797" xlink:href="#DejaVuSans-6c"/>
      <use x="1812" xlink:href="#DejaVuSans-6c"/>
      <use x="1839.783203" xlink:href="#DejaVuSans-69"/>
      <use x="1867.566406" xlink:href="#DejaVuSans-6f"/>
      <use x="1928.748047" xlink:href="#DejaVuSans-6e"/>
      <use x="1992.126953" xlink:href="#DejaVuSans-73"/>
      <use x="2044.226562" xlink:href="#DejaVuSans-29"/>
     </g>
    </g>
    <g id="text_19">
     <!-- 1e7 -->
     <g transform="translate(162 100.68)scale(0.1 -0.1)">
      <defs>
       <path d="M 525 4666 
L 3525 4666 
L 3525 4397 
L 1831 0 
L 1172 0 
L 2766 4134 
L 525 4134 
L 525 4666 
z
" id="DejaVuSans-37" transform="scale(0.015625)"/>
      </defs>
      <use xlink:href="#DejaVuSans-31"/>
      <use x="63.623047" xlink:href="#DejaVuSans-65"/>
      <use x="125.146484" xlink:href="#DejaVuSans-37"/>
     </g>
    </g>
   </g>
   <g id="patch_353">
    <path d="M 162 768.96 
L 162 103.68 
" style="fill:none;stroke:#000000;stroke-linecap:square;stroke-linejoin:miter;stroke-width:0.8;"/>
   </g>
   <g id="patch_354">
    <path d="M 1166.4 768.96 
L 1166.4 103.68 
" style="fill:none;stroke:#000000;stroke-linecap:square;stroke-linejoin:miter;stroke-width:0.8;"/>
   </g>
   <g id="patch_355">
    <path d="M 162 768.96 
L 1166.4 768.96 
" style="fill:none;stroke:#000000;stroke-linecap:square;stroke-linejoin:miter;stroke-width:0.8;"/>
   </g>
   <g id="patch_356">
    <path d="M 162 103.68 
L 1166.4 103.68 
" style="fill:none;stroke:#000000;stroke-linecap:square;stroke-linejoin:miter;stroke-width:0.8;"/>
   </g>
   <g id="text_20">
    <!-- Persons Fully Vaccinated -->
    <g transform="translate(590.380313 97.68)scale(0.12 -0.12)">
     <defs>
      <path d="M 1831 0 
L 50 4666 
L 709 4666 
L 2188 738 
L 3669 4666 
L 4325 4666 
L 2547 0 
L 1831 0 
z
" id="DejaVuSans-56" transform="scale(0.015625)"/>
     </defs>
     <use xlink:href="#DejaVuSans-50"/>
     <use x="56.677734" xlink:href="#DejaVuSans-65"/>
     <use x="118.201172" xlink:href="#DejaVuSans-72"/>
     <use x="159.314453" xlink:href="#DejaVuSans-73"/>
     <use x="211.414062" xlink:href="#DejaVuSans-6f"/>
     <use x="272.595703" xlink:href="#DejaVuSans-6e"/>
     <use x="335.974609" xlink:href="#DejaVuSans-73"/>
     <use x="388.074219" xlink:href="#DejaVuSans-20"/>
     <use x="419.861328" xlink:href="#DejaVuSans-46"/>
     <use x="471.880859" xlink:href="#DejaVuSans-75"/>
     <use x="535.259766" xlink:href="#DejaVuSans-6c"/>
     <use x="563.042969" xlink:href="#DejaVuSans-6c"/>
     <use x="590.826172" xlink:href="#DejaVuSans-79"/>
     <use x="650.005859" xlink:href="#DejaVuSans-20"/>
     <use x="681.792969" xlink:href="#DejaVuSans-56"/>
     <use x="742.451172" xlink:href="#DejaVuSans-61"/>
     <use x="803.730469" xlink:href="#DejaVuSans-63"/>
     <use x="858.710938" xlink:href="#DejaVuSans-63"/>
     <use x="913.691406" xlink:href="#DejaVuSans-69"/>
     <use x="941.474609" xlink:href="#DejaVuSans-6e"/>
     <use x="1004.853516" xlink:href="#DejaVuSans-61"/>
     <use x="1066.132812" xlink:href="#DejaVuSans-74"/>
     <use x="1105.341797" xlink:href="#DejaVuSans-65"/>
     <use x="1166.865234" xlink:href="#DejaVuSans-64"/>
    </g>
   </g>
  </g>
 </g>
 <defs>
  <clipPath id="p83a8a4ee24">
   <rect height="665.28" width="1004.4" x="162" y="103.68"/>
  </clipPath>
 </defs>
</svg>
