<?xml version="1.0" encoding="utf-8" standalone="no"?>
<!DOCTYPE svg PUBLIC "-//W3C//DTD SVG 1.1//EN"
  "http://www.w3.org/Graphics/SVG/1.1/DTD/svg11.dtd">
<svg height="864pt" version="1.1" viewBox="0 0 1296 864" width="1296pt" xmlns="http://www.w3.org/2000/svg" xmlns:xlink="http://www.w3.org/1999/xlink">
 <metadata>
  <rdf:RDF xmlns:cc="http://creativecommons.org/ns#" xmlns:dc="http://purl.org/dc/elements/1.1/" xmlns:rdf="http://www.w3.org/1999/02/22-rdf-syntax-ns#">
   <cc:Work>
    <dc:type rdf:resource="http://purl.org/dc/dcmitype/StillImage"/>
    <dc:date>2021-11-01T16:32:00.398919</dc:date>
    <dc:format>image/svg+xml</dc:format>
    <dc:creator>
     <cc:Agent>
      <dc:title>Matplotlib v3.4.2, https://matplotlib.org/</dc:title>
     </cc:Agent>
    </dc:creator>
   </cc:Work>
  </rdf:RDF>
 </metadata>
 <defs>
  <style type="text/css">*{stroke-linecap:butt;stroke-linejoin:round;}</style>
 </defs>
 <g id="figure_1">
  <g id="patch_1">
   <path d="M 0 864 
L 1296 864 
L 1296 0 
L 0 0 
z
" style="fill:#ffffff;"/>
  </g>
  <g id="axes_1">
   <g id="patch_2">
    <path d="M 162 768.96 
L 1166.4 768.96 
L 1166.4 103.68 
L 162 103.68 
z
" style="fill:#ffffff;"/>
   </g>
   <g id="patch_3">
    <path clip-path="url(#p2c7122964b)" d="M 162.834219 768.96 
L 164.502658 768.96 
L 164.502658 768.948342 
L 162.834219 768.948342 
z
" style="fill:#1f77b4;"/>
   </g>
   <g id="patch_4">
    <path clip-path="url(#p2c7122964b)" d="M 166.171096 768.96 
L 167.839535 768.96 
L 167.839535 768.96 
L 166.171096 768.96 
z
" style="fill:#1f77b4;"/>
   </g>
   <g id="patch_5">
    <path clip-path="url(#p2c7122964b)" d="M 169.507973 768.96 
L 171.176412 768.96 
L 171.176412 768.96 
L 169.507973 768.96 
z
" style="fill:#1f77b4;"/>
   </g>
   <g id="patch_6">
    <path clip-path="url(#p2c7122964b)" d="M 172.84485 768.96 
L 174.513289 768.96 
L 174.513289 768.219738 
L 172.84485 768.219738 
z
" style="fill:#1f77b4;"/>
   </g>
   <g id="patch_7">
    <path clip-path="url(#p2c7122964b)" d="M 176.181728 768.96 
L 177.850166 768.96 
L 177.850166 766.949053 
L 176.181728 766.949053 
z
" style="fill:#1f77b4;"/>
   </g>
   <g id="patch_8">
    <path clip-path="url(#p2c7122964b)" d="M 179.518605 768.96 
L 181.187043 768.96 
L 181.187043 754.889197 
L 179.518605 754.889197 
z
" style="fill:#1f77b4;"/>
   </g>
   <g id="patch_9">
    <path clip-path="url(#p2c7122964b)" d="M 182.855482 768.96 
L 184.52392 768.96 
L 184.52392 667.759798 
L 182.855482 667.759798 
z
" style="fill:#1f77b4;"/>
   </g>
   <g id="patch_10">
    <path clip-path="url(#p2c7122964b)" d="M 186.192359 768.96 
L 187.860797 768.96 
L 187.860797 646.851773 
L 186.192359 646.851773 
z
" style="fill:#1f77b4;"/>
   </g>
   <g id="patch_11">
    <path clip-path="url(#p2c7122964b)" d="M 189.529236 768.96 
L 191.197674 768.96 
L 191.197674 702.231517 
L 189.529236 702.231517 
z
" style="fill:#1f77b4;"/>
   </g>
   <g id="patch_12">
    <path clip-path="url(#p2c7122964b)" d="M 192.866113 768.96 
L 194.534551 768.96 
L 194.534551 728.560357 
L 192.866113 728.560357 
z
" style="fill:#1f77b4;"/>
   </g>
   <g id="patch_13">
    <path clip-path="url(#p2c7122964b)" d="M 196.20299 768.96 
L 197.871429 768.96 
L 197.871429 705.728817 
L 196.20299 705.728817 
z
" style="fill:#1f77b4;"/>
   </g>
   <g id="patch_14">
    <path clip-path="url(#p2c7122964b)" d="M 199.539867 768.96 
L 201.208306 768.96 
L 201.208306 708.806441 
L 199.539867 708.806441 
z
" style="fill:#1f77b4;"/>
   </g>
   <g id="patch_15">
    <path clip-path="url(#p2c7122964b)" d="M 202.876744 768.96 
L 204.545183 768.96 
L 204.545183 719.741332 
L 202.876744 719.741332 
z
" style="fill:#1f77b4;"/>
   </g>
   <g id="patch_16">
    <path clip-path="url(#p2c7122964b)" d="M 206.213621 768.96 
L 207.88206 768.96 
L 207.88206 708.870558 
L 206.213621 708.870558 
z
" style="fill:#1f77b4;"/>
   </g>
   <g id="patch_17">
    <path clip-path="url(#p2c7122964b)" d="M 209.550498 768.96 
L 211.218937 768.96 
L 211.218937 756.637847 
L 209.550498 756.637847 
z
" style="fill:#1f77b4;"/>
   </g>
   <g id="patch_18">
    <path clip-path="url(#p2c7122964b)" d="M 212.887375 768.96 
L 214.555814 768.96 
L 214.555814 761.324228 
L 212.887375 761.324228 
z
" style="fill:#1f77b4;"/>
   </g>
   <g id="patch_19">
    <path clip-path="url(#p2c7122964b)" d="M 216.224252 768.96 
L 217.892691 768.96 
L 217.892691 765.328637 
L 216.224252 765.328637 
z
" style="fill:#1f77b4;"/>
   </g>
   <g id="patch_20">
    <path clip-path="url(#p2c7122964b)" d="M 219.56113 768.96 
L 221.229568 768.96 
L 221.229568 752.248735 
L 219.56113 752.248735 
z
" style="fill:#1f77b4;"/>
   </g>
   <g id="patch_21">
    <path clip-path="url(#p2c7122964b)" d="M 222.898007 768.96 
L 224.566445 768.96 
L 224.566445 741.739349 
L 222.898007 741.739349 
z
" style="fill:#1f77b4;"/>
   </g>
   <g id="patch_22">
    <path clip-path="url(#p2c7122964b)" d="M 226.234884 768.96 
L 227.903322 768.96 
L 227.903322 718.173376 
L 226.234884 718.173376 
z
" style="fill:#1f77b4;"/>
   </g>
   <g id="patch_23">
    <path clip-path="url(#p2c7122964b)" d="M 229.571761 768.96 
L 231.240199 768.96 
L 231.240199 717.736214 
L 229.571761 717.736214 
z
" style="fill:#1f77b4;"/>
   </g>
   <g id="patch_24">
    <path clip-path="url(#p2c7122964b)" d="M 232.908638 768.96 
L 234.577076 768.96 
L 234.577076 731.999369 
L 232.908638 731.999369 
z
" style="fill:#1f77b4;"/>
   </g>
   <g id="patch_25">
    <path clip-path="url(#p2c7122964b)" d="M 236.245515 768.96 
L 237.913953 768.96 
L 237.913953 755.110692 
L 236.245515 755.110692 
z
" style="fill:#1f77b4;"/>
   </g>
   <g id="patch_26">
    <path clip-path="url(#p2c7122964b)" d="M 239.582392 768.96 
L 241.250831 768.96 
L 241.250831 750.505914 
L 239.582392 750.505914 
z
" style="fill:#1f77b4;"/>
   </g>
   <g id="patch_27">
    <path clip-path="url(#p2c7122964b)" d="M 242.919269 768.96 
L 244.587708 768.96 
L 244.587708 721.192712 
L 242.919269 721.192712 
z
" style="fill:#1f77b4;"/>
   </g>
   <g id="patch_28">
    <path clip-path="url(#p2c7122964b)" d="M 246.256146 768.96 
L 247.924585 768.96 
L 247.924585 685.461964 
L 246.256146 685.461964 
z
" style="fill:#1f77b4;"/>
   </g>
   <g id="patch_29">
    <path clip-path="url(#p2c7122964b)" d="M 249.593023 768.96 
L 251.261462 768.96 
L 251.261462 657.850781 
L 249.593023 657.850781 
z
" style="fill:#1f77b4;"/>
   </g>
   <g id="patch_30">
    <path clip-path="url(#p2c7122964b)" d="M 252.9299 768.96 
L 254.598339 768.96 
L 254.598339 672.929973 
L 252.9299 672.929973 
z
" style="fill:#1f77b4;"/>
   </g>
   <g id="patch_31">
    <path clip-path="url(#p2c7122964b)" d="M 256.266777 768.96 
L 257.935216 768.96 
L 257.935216 684.902396 
L 256.266777 684.902396 
z
" style="fill:#1f77b4;"/>
   </g>
   <g id="patch_32">
    <path clip-path="url(#p2c7122964b)" d="M 259.603654 768.96 
L 261.272093 768.96 
L 261.272093 722.824785 
L 259.603654 722.824785 
z
" style="fill:#1f77b4;"/>
   </g>
   <g id="patch_33">
    <path clip-path="url(#p2c7122964b)" d="M 262.940532 768.96 
L 264.60897 768.96 
L 264.60897 743.155755 
L 262.940532 743.155755 
z
" style="fill:#1f77b4;"/>
   </g>
   <g id="patch_34">
    <path clip-path="url(#p2c7122964b)" d="M 266.277409 768.96 
L 267.945847 768.96 
L 267.945847 721.530784 
L 266.277409 721.530784 
z
" style="fill:#1f77b4;"/>
   </g>
   <g id="patch_35">
    <path clip-path="url(#p2c7122964b)" d="M 269.614286 768.96 
L 271.282724 768.96 
L 271.282724 667.934663 
L 269.614286 667.934663 
z
" style="fill:#1f77b4;"/>
   </g>
   <g id="patch_36">
    <path clip-path="url(#p2c7122964b)" d="M 272.951163 768.96 
L 274.619601 768.96 
L 274.619601 693.832169 
L 272.951163 693.832169 
z
" style="fill:#1f77b4;"/>
   </g>
   <g id="patch_37">
    <path clip-path="url(#p2c7122964b)" d="M 276.28804 768.96 
L 277.956478 768.96 
L 277.956478 671.525224 
L 276.28804 671.525224 
z
" style="fill:#1f77b4;"/>
   </g>
   <g id="patch_38">
    <path clip-path="url(#p2c7122964b)" d="M 279.624917 768.96 
L 281.293355 768.96 
L 281.293355 688.77857 
L 279.624917 688.77857 
z
" style="fill:#1f77b4;"/>
   </g>
   <g id="patch_39">
    <path clip-path="url(#p2c7122964b)" d="M 282.961794 768.96 
L 284.630233 768.96 
L 284.630233 700.412921 
L 282.961794 700.412921 
z
" style="fill:#1f77b4;"/>
   </g>
   <g id="patch_40">
    <path clip-path="url(#p2c7122964b)" d="M 286.298671 768.96 
L 287.96711 768.96 
L 287.96711 745.714613 
L 286.298671 745.714613 
z
" style="fill:#1f77b4;"/>
   </g>
   <g id="patch_41">
    <path clip-path="url(#p2c7122964b)" d="M 289.635548 768.96 
L 291.303987 768.96 
L 291.303987 692.491537 
L 289.635548 692.491537 
z
" style="fill:#1f77b4;"/>
   </g>
   <g id="patch_42">
    <path clip-path="url(#p2c7122964b)" d="M 292.972425 768.96 
L 294.640864 768.96 
L 294.640864 672.959117 
L 292.972425 672.959117 
z
" style="fill:#1f77b4;"/>
   </g>
   <g id="patch_43">
    <path clip-path="url(#p2c7122964b)" d="M 296.309302 768.96 
L 297.977741 768.96 
L 297.977741 653.041994 
L 296.309302 653.041994 
z
" style="fill:#1f77b4;"/>
   </g>
   <g id="patch_44">
    <path clip-path="url(#p2c7122964b)" d="M 299.646179 768.96 
L 301.314618 768.96 
L 301.314618 602.983974 
L 299.646179 602.983974 
z
" style="fill:#1f77b4;"/>
   </g>
   <g id="patch_45">
    <path clip-path="url(#p2c7122964b)" d="M 302.983056 768.96 
L 304.651495 768.96 
L 304.651495 625.145198 
L 302.983056 625.145198 
z
" style="fill:#1f77b4;"/>
   </g>
   <g id="patch_46">
    <path clip-path="url(#p2c7122964b)" d="M 306.319934 768.96 
L 307.988372 768.96 
L 307.988372 679.522383 
L 306.319934 679.522383 
z
" style="fill:#1f77b4;"/>
   </g>
   <g id="patch_47">
    <path clip-path="url(#p2c7122964b)" d="M 309.656811 768.96 
L 311.325249 768.96 
L 311.325249 720.545711 
L 309.656811 720.545711 
z
" style="fill:#1f77b4;"/>
   </g>
   <g id="patch_48">
    <path clip-path="url(#p2c7122964b)" d="M 312.993688 768.96 
L 314.662126 768.96 
L 314.662126 721.157739 
L 312.993688 721.157739 
z
" style="fill:#1f77b4;"/>
   </g>
   <g id="patch_49">
    <path clip-path="url(#p2c7122964b)" d="M 316.330565 768.96 
L 317.999003 768.96 
L 317.999003 679.440779 
L 316.330565 679.440779 
z
" style="fill:#1f77b4;"/>
   </g>
   <g id="patch_50">
    <path clip-path="url(#p2c7122964b)" d="M 319.667442 768.96 
L 321.33588 768.96 
L 321.33588 619.39214 
L 319.667442 619.39214 
z
" style="fill:#1f77b4;"/>
   </g>
   <g id="patch_51">
    <path clip-path="url(#p2c7122964b)" d="M 323.004319 768.96 
L 324.672757 768.96 
L 324.672757 575.710863 
L 323.004319 575.710863 
z
" style="fill:#1f77b4;"/>
   </g>
   <g id="patch_52">
    <path clip-path="url(#p2c7122964b)" d="M 326.341196 768.96 
L 328.009635 768.96 
L 328.009635 583.160112 
L 326.341196 583.160112 
z
" style="fill:#1f77b4;"/>
   </g>
   <g id="patch_53">
    <path clip-path="url(#p2c7122964b)" d="M 329.678073 768.96 
L 331.346512 768.96 
L 331.346512 740.58524 
L 329.678073 740.58524 
z
" style="fill:#1f77b4;"/>
   </g>
   <g id="patch_54">
    <path clip-path="url(#p2c7122964b)" d="M 333.01495 768.96 
L 334.683389 768.96 
L 334.683389 631.912473 
L 333.01495 631.912473 
z
" style="fill:#1f77b4;"/>
   </g>
   <g id="patch_55">
    <path clip-path="url(#p2c7122964b)" d="M 336.351827 768.96 
L 338.020266 768.96 
L 338.020266 662.15246 
L 336.351827 662.15246 
z
" style="fill:#1f77b4;"/>
   </g>
   <g id="patch_56">
    <path clip-path="url(#p2c7122964b)" d="M 339.688704 768.96 
L 341.357143 768.96 
L 341.357143 610.573115 
L 339.688704 610.573115 
z
" style="fill:#1f77b4;"/>
   </g>
   <g id="patch_57">
    <path clip-path="url(#p2c7122964b)" d="M 343.025581 768.96 
L 344.69402 768.96 
L 344.69402 463.301815 
L 343.025581 463.301815 
z
" style="fill:#1f77b4;"/>
   </g>
   <g id="patch_58">
    <path clip-path="url(#p2c7122964b)" d="M 346.362458 768.96 
L 348.030897 768.96 
L 348.030897 459.460614 
L 346.362458 459.460614 
z
" style="fill:#1f77b4;"/>
   </g>
   <g id="patch_59">
    <path clip-path="url(#p2c7122964b)" d="M 349.699336 768.96 
L 351.367774 768.96 
L 351.367774 496.840921 
L 349.699336 496.840921 
z
" style="fill:#1f77b4;"/>
   </g>
   <g id="patch_60">
    <path clip-path="url(#p2c7122964b)" d="M 353.036213 768.96 
L 354.704651 768.96 
L 354.704651 530.292595 
L 353.036213 530.292595 
z
" style="fill:#1f77b4;"/>
   </g>
   <g id="patch_61">
    <path clip-path="url(#p2c7122964b)" d="M 356.37309 768.96 
L 358.041528 768.96 
L 358.041528 653.898832 
L 356.37309 653.898832 
z
" style="fill:#1f77b4;"/>
   </g>
   <g id="patch_62">
    <path clip-path="url(#p2c7122964b)" d="M 359.709967 768.96 
L 361.378405 768.96 
L 361.378405 596.712149 
L 359.709967 596.712149 
z
" style="fill:#1f77b4;"/>
   </g>
   <g id="patch_63">
    <path clip-path="url(#p2c7122964b)" d="M 363.046844 768.96 
L 364.715282 768.96 
L 364.715282 539.962629 
L 363.046844 539.962629 
z
" style="fill:#1f77b4;"/>
   </g>
   <g id="patch_64">
    <path clip-path="url(#p2c7122964b)" d="M 366.383721 768.96 
L 368.052159 768.96 
L 368.052159 503.806377 
L 366.383721 503.806377 
z
" style="fill:#1f77b4;"/>
   </g>
   <g id="patch_65">
    <path clip-path="url(#p2c7122964b)" d="M 369.720598 768.96 
L 371.389037 768.96 
L 371.389037 380.14768 
L 369.720598 380.14768 
z
" style="fill:#1f77b4;"/>
   </g>
   <g id="patch_66">
    <path clip-path="url(#p2c7122964b)" d="M 373.057475 768.96 
L 374.725914 768.96 
L 374.725914 397.290278 
L 373.057475 397.290278 
z
" style="fill:#1f77b4;"/>
   </g>
   <g id="patch_67">
    <path clip-path="url(#p2c7122964b)" d="M 376.394352 768.96 
L 378.062791 768.96 
L 378.062791 491.070376 
L 376.394352 491.070376 
z
" style="fill:#1f77b4;"/>
   </g>
   <g id="patch_68">
    <path clip-path="url(#p2c7122964b)" d="M 379.731229 768.96 
L 381.399668 768.96 
L 381.399668 681.568304 
L 379.731229 681.568304 
z
" style="fill:#1f77b4;"/>
   </g>
   <g id="patch_69">
    <path clip-path="url(#p2c7122964b)" d="M 383.068106 768.96 
L 384.736545 768.96 
L 384.736545 528.135927 
L 383.068106 528.135927 
z
" style="fill:#1f77b4;"/>
   </g>
   <g id="patch_70">
    <path clip-path="url(#p2c7122964b)" d="M 386.404983 768.96 
L 388.073422 768.96 
L 388.073422 460.57975 
L 386.404983 460.57975 
z
" style="fill:#1f77b4;"/>
   </g>
   <g id="patch_71">
    <path clip-path="url(#p2c7122964b)" d="M 389.74186 768.96 
L 391.410299 768.96 
L 391.410299 431.569647 
L 389.74186 431.569647 
z
" style="fill:#1f77b4;"/>
   </g>
   <g id="patch_72">
    <path clip-path="url(#p2c7122964b)" d="M 393.078738 768.96 
L 394.747176 768.96 
L 394.747176 404.599635 
L 393.078738 404.599635 
z
" style="fill:#1f77b4;"/>
   </g>
   <g id="patch_73">
    <path clip-path="url(#p2c7122964b)" d="M 396.415615 768.96 
L 398.084053 768.96 
L 398.084053 350.863622 
L 396.415615 350.863622 
z
" style="fill:#1f77b4;"/>
   </g>
   <g id="patch_74">
    <path clip-path="url(#p2c7122964b)" d="M 399.752492 768.96 
L 401.42093 768.96 
L 401.42093 499.801968 
L 399.752492 499.801968 
z
" style="fill:#1f77b4;"/>
   </g>
   <g id="patch_75">
    <path clip-path="url(#p2c7122964b)" d="M 403.089369 768.96 
L 404.757807 768.96 
L 404.757807 498.84604 
L 403.089369 498.84604 
z
" style="fill:#1f77b4;"/>
   </g>
   <g id="patch_76">
    <path clip-path="url(#p2c7122964b)" d="M 406.426246 768.96 
L 408.094684 768.96 
L 408.094684 530.403343 
L 406.426246 530.403343 
z
" style="fill:#1f77b4;"/>
   </g>
   <g id="patch_77">
    <path clip-path="url(#p2c7122964b)" d="M 409.763123 768.96 
L 411.431561 768.96 
L 411.431561 502.209276 
L 409.763123 502.209276 
z
" style="fill:#1f77b4;"/>
   </g>
   <g id="patch_78">
    <path clip-path="url(#p2c7122964b)" d="M 413.1 768.96 
L 414.768439 768.96 
L 414.768439 532.81648 
L 413.1 532.81648 
z
" style="fill:#1f77b4;"/>
   </g>
   <g id="patch_79">
    <path clip-path="url(#p2c7122964b)" d="M 416.436877 768.96 
L 418.105316 768.96 
L 418.105316 497.534552 
L 416.436877 497.534552 
z
" style="fill:#1f77b4;"/>
   </g>
   <g id="patch_80">
    <path clip-path="url(#p2c7122964b)" d="M 419.773754 768.96 
L 421.442193 768.96 
L 421.442193 486.378165 
L 419.773754 486.378165 
z
" style="fill:#1f77b4;"/>
   </g>
   <g id="patch_81">
    <path clip-path="url(#p2c7122964b)" d="M 423.110631 768.96 
L 424.77907 768.96 
L 424.77907 595.004301 
L 423.110631 595.004301 
z
" style="fill:#1f77b4;"/>
   </g>
   <g id="patch_82">
    <path clip-path="url(#p2c7122964b)" d="M 426.447508 768.96 
L 428.115947 768.96 
L 428.115947 674.369694 
L 426.447508 674.369694 
z
" style="fill:#1f77b4;"/>
   </g>
   <g id="patch_83">
    <path clip-path="url(#p2c7122964b)" d="M 429.784385 768.96 
L 431.452824 768.96 
L 431.452824 616.734192 
L 429.784385 616.734192 
z
" style="fill:#1f77b4;"/>
   </g>
   <g id="patch_84">
    <path clip-path="url(#p2c7122964b)" d="M 433.121262 768.96 
L 434.789701 768.96 
L 434.789701 585.823889 
L 433.121262 585.823889 
z
" style="fill:#1f77b4;"/>
   </g>
   <g id="patch_85">
    <path clip-path="url(#p2c7122964b)" d="M 436.45814 768.96 
L 438.126578 768.96 
L 438.126578 578.444586 
L 436.45814 578.444586 
z
" style="fill:#1f77b4;"/>
   </g>
   <g id="patch_86">
    <path clip-path="url(#p2c7122964b)" d="M 439.795017 768.96 
L 441.463455 768.96 
L 441.463455 526.911872 
L 439.795017 526.911872 
z
" style="fill:#1f77b4;"/>
   </g>
   <g id="patch_87">
    <path clip-path="url(#p2c7122964b)" d="M 443.131894 768.96 
L 444.800332 768.96 
L 444.800332 465.260303 
L 443.131894 465.260303 
z
" style="fill:#1f77b4;"/>
   </g>
   <g id="patch_88">
    <path clip-path="url(#p2c7122964b)" d="M 446.468771 768.96 
L 448.137209 768.96 
L 448.137209 501.830402 
L 446.468771 501.830402 
z
" style="fill:#1f77b4;"/>
   </g>
   <g id="patch_89">
    <path clip-path="url(#p2c7122964b)" d="M 449.805648 768.96 
L 451.474086 768.96 
L 451.474086 662.997641 
L 449.805648 662.997641 
z
" style="fill:#1f77b4;"/>
   </g>
   <g id="patch_90">
    <path clip-path="url(#p2c7122964b)" d="M 453.142525 768.96 
L 454.810963 768.96 
L 454.810963 605.397111 
L 453.142525 605.397111 
z
" style="fill:#1f77b4;"/>
   </g>
   <g id="patch_91">
    <path clip-path="url(#p2c7122964b)" d="M 456.479402 768.96 
L 458.147841 768.96 
L 458.147841 474.533976 
L 456.479402 474.533976 
z
" style="fill:#1f77b4;"/>
   </g>
   <g id="patch_92">
    <path clip-path="url(#p2c7122964b)" d="M 459.816279 768.96 
L 461.484718 768.96 
L 461.484718 518.384289 
L 459.816279 518.384289 
z
" style="fill:#1f77b4;"/>
   </g>
   <g id="patch_93">
    <path clip-path="url(#p2c7122964b)" d="M 463.153156 768.96 
L 464.821595 768.96 
L 464.821595 422.669018 
L 463.153156 422.669018 
z
" style="fill:#1f77b4;"/>
   </g>
   <g id="patch_94">
    <path clip-path="url(#p2c7122964b)" d="M 466.490033 768.96 
L 468.158472 768.96 
L 468.158472 416.443824 
L 466.490033 416.443824 
z
" style="fill:#1f77b4;"/>
   </g>
   <g id="patch_95">
    <path clip-path="url(#p2c7122964b)" d="M 469.82691 768.96 
L 471.495349 768.96 
L 471.495349 494.229604 
L 469.82691 494.229604 
z
" style="fill:#1f77b4;"/>
   </g>
   <g id="patch_96">
    <path clip-path="url(#p2c7122964b)" d="M 473.163787 768.96 
L 474.832226 768.96 
L 474.832226 692.986988 
L 473.163787 692.986988 
z
" style="fill:#1f77b4;"/>
   </g>
   <g id="patch_97">
    <path clip-path="url(#p2c7122964b)" d="M 476.500664 768.96 
L 478.169103 768.96 
L 478.169103 510.089859 
L 476.500664 510.089859 
z
" style="fill:#1f77b4;"/>
   </g>
   <g id="patch_98">
    <path clip-path="url(#p2c7122964b)" d="M 479.837542 768.96 
L 481.50598 768.96 
L 481.50598 370.751601 
L 479.837542 370.751601 
z
" style="fill:#1f77b4;"/>
   </g>
   <g id="patch_99">
    <path clip-path="url(#p2c7122964b)" d="M 483.174419 768.96 
L 484.842857 768.96 
L 484.842857 329.681642 
L 483.174419 329.681642 
z
" style="fill:#1f77b4;"/>
   </g>
   <g id="patch_100">
    <path clip-path="url(#p2c7122964b)" d="M 486.511296 768.96 
L 488.179734 768.96 
L 488.179734 238.553663 
L 486.511296 238.553663 
z
" style="fill:#1f77b4;"/>
   </g>
   <g id="patch_101">
    <path clip-path="url(#p2c7122964b)" d="M 489.848173 768.96 
L 491.516611 768.96 
L 491.516611 135.36 
L 489.848173 135.36 
z
" style="fill:#1f77b4;"/>
   </g>
   <g id="patch_102">
    <path clip-path="url(#p2c7122964b)" d="M 493.18505 768.96 
L 494.853488 768.96 
L 494.853488 340.068623 
L 493.18505 340.068623 
z
" style="fill:#1f77b4;"/>
   </g>
   <g id="patch_103">
    <path clip-path="url(#p2c7122964b)" d="M 496.521927 768.96 
L 498.190365 768.96 
L 498.190365 564.222233 
L 496.521927 564.222233 
z
" style="fill:#1f77b4;"/>
   </g>
   <g id="patch_104">
    <path clip-path="url(#p2c7122964b)" d="M 499.858804 768.96 
L 501.527243 768.96 
L 501.527243 418.186646 
L 499.858804 418.186646 
z
" style="fill:#1f77b4;"/>
   </g>
   <g id="patch_105">
    <path clip-path="url(#p2c7122964b)" d="M 503.195681 768.96 
L 504.86412 768.96 
L 504.86412 336.122503 
L 503.195681 336.122503 
z
" style="fill:#1f77b4;"/>
   </g>
   <g id="patch_106">
    <path clip-path="url(#p2c7122964b)" d="M 506.532558 768.96 
L 508.200997 768.96 
L 508.200997 396.485899 
L 506.532558 396.485899 
z
" style="fill:#1f77b4;"/>
   </g>
   <g id="patch_107">
    <path clip-path="url(#p2c7122964b)" d="M 509.869435 768.96 
L 511.537874 768.96 
L 511.537874 261.35023 
L 509.869435 261.35023 
z
" style="fill:#1f77b4;"/>
   </g>
   <g id="patch_108">
    <path clip-path="url(#p2c7122964b)" d="M 513.206312 768.96 
L 514.874751 768.96 
L 514.874751 267.464676 
L 513.206312 267.464676 
z
" style="fill:#1f77b4;"/>
   </g>
   <g id="patch_109">
    <path clip-path="url(#p2c7122964b)" d="M 516.543189 768.96 
L 518.211628 768.96 
L 518.211628 416.437996 
L 516.543189 416.437996 
z
" style="fill:#1f77b4;"/>
   </g>
   <g id="patch_110">
    <path clip-path="url(#p2c7122964b)" d="M 519.880066 768.96 
L 521.548505 768.96 
L 521.548505 564.770143 
L 519.880066 564.770143 
z
" style="fill:#1f77b4;"/>
   </g>
   <g id="patch_111">
    <path clip-path="url(#p2c7122964b)" d="M 523.216944 768.96 
L 524.885382 768.96 
L 524.885382 478.468439 
L 523.216944 478.468439 
z
" style="fill:#1f77b4;"/>
   </g>
   <g id="patch_112">
    <path clip-path="url(#p2c7122964b)" d="M 526.553821 768.96 
L 528.222259 768.96 
L 528.222259 298.036906 
L 526.553821 298.036906 
z
" style="fill:#1f77b4;"/>
   </g>
   <g id="patch_113">
    <path clip-path="url(#p2c7122964b)" d="M 529.890698 768.96 
L 531.559136 768.96 
L 531.559136 352.839596 
L 529.890698 352.839596 
z
" style="fill:#1f77b4;"/>
   </g>
   <g id="patch_114">
    <path clip-path="url(#p2c7122964b)" d="M 533.227575 768.96 
L 534.896013 768.96 
L 534.896013 333.202257 
L 533.227575 333.202257 
z
" style="fill:#1f77b4;"/>
   </g>
   <g id="patch_115">
    <path clip-path="url(#p2c7122964b)" d="M 536.564452 768.96 
L 538.23289 768.96 
L 538.23289 364.15919 
L 536.564452 364.15919 
z
" style="fill:#1f77b4;"/>
   </g>
   <g id="patch_116">
    <path clip-path="url(#p2c7122964b)" d="M 539.901329 768.96 
L 541.569767 768.96 
L 541.569767 500.59469 
L 539.901329 500.59469 
z
" style="fill:#1f77b4;"/>
   </g>
   <g id="patch_117">
    <path clip-path="url(#p2c7122964b)" d="M 543.238206 768.96 
L 544.906645 768.96 
L 544.906645 658.299601 
L 543.238206 658.299601 
z
" style="fill:#1f77b4;"/>
   </g>
   <g id="patch_118">
    <path clip-path="url(#p2c7122964b)" d="M 546.575083 768.96 
L 548.243522 768.96 
L 548.243522 517.364243 
L 546.575083 517.364243 
z
" style="fill:#1f77b4;"/>
   </g>
   <g id="patch_119">
    <path clip-path="url(#p2c7122964b)" d="M 549.91196 768.96 
L 551.580399 768.96 
L 551.580399 408.137737 
L 549.91196 408.137737 
z
" style="fill:#1f77b4;"/>
   </g>
   <g id="patch_120">
    <path clip-path="url(#p2c7122964b)" d="M 553.248837 768.96 
L 554.917276 768.96 
L 554.917276 393.78715 
L 553.248837 393.78715 
z
" style="fill:#1f77b4;"/>
   </g>
   <g id="patch_121">
    <path clip-path="url(#p2c7122964b)" d="M 556.585714 768.96 
L 558.254153 768.96 
L 558.254153 406.482348 
L 556.585714 406.482348 
z
" style="fill:#1f77b4;"/>
   </g>
   <g id="patch_122">
    <path clip-path="url(#p2c7122964b)" d="M 559.922591 768.96 
L 561.59103 768.96 
L 561.59103 454.803376 
L 559.922591 454.803376 
z
" style="fill:#1f77b4;"/>
   </g>
   <g id="patch_123">
    <path clip-path="url(#p2c7122964b)" d="M 563.259468 768.96 
L 564.927907 768.96 
L 564.927907 626.048667 
L 563.259468 626.048667 
z
" style="fill:#1f77b4;"/>
   </g>
   <g id="patch_124">
    <path clip-path="url(#p2c7122964b)" d="M 566.596346 768.96 
L 568.264784 768.96 
L 568.264784 723.541732 
L 566.596346 723.541732 
z
" style="fill:#1f77b4;"/>
   </g>
   <g id="patch_125">
    <path clip-path="url(#p2c7122964b)" d="M 569.933223 768.96 
L 571.601661 768.96 
L 571.601661 613.277693 
L 569.933223 613.277693 
z
" style="fill:#1f77b4;"/>
   </g>
   <g id="patch_126">
    <path clip-path="url(#p2c7122964b)" d="M 573.2701 768.96 
L 574.938538 768.96 
L 574.938538 361.932576 
L 573.2701 361.932576 
z
" style="fill:#1f77b4;"/>
   </g>
   <g id="patch_127">
    <path clip-path="url(#p2c7122964b)" d="M 576.606977 768.96 
L 578.275415 768.96 
L 578.275415 371.50352 
L 576.606977 371.50352 
z
" style="fill:#1f77b4;"/>
   </g>
   <g id="patch_128">
    <path clip-path="url(#p2c7122964b)" d="M 579.943854 768.96 
L 581.612292 768.96 
L 581.612292 470.896784 
L 579.943854 470.896784 
z
" style="fill:#1f77b4;"/>
   </g>
   <g id="patch_129">
    <path clip-path="url(#p2c7122964b)" d="M 583.280731 768.96 
L 584.949169 768.96 
L 584.949169 323.707088 
L 583.280731 323.707088 
z
" style="fill:#1f77b4;"/>
   </g>
   <g id="patch_130">
    <path clip-path="url(#p2c7122964b)" d="M 586.617608 768.96 
L 588.286047 768.96 
L 588.286047 467.492746 
L 586.617608 467.492746 
z
" style="fill:#1f77b4;"/>
   </g>
   <g id="patch_131">
    <path clip-path="url(#p2c7122964b)" d="M 589.954485 768.96 
L 591.622924 768.96 
L 591.622924 500.513086 
L 589.954485 500.513086 
z
" style="fill:#1f77b4;"/>
   </g>
   <g id="patch_132">
    <path clip-path="url(#p2c7122964b)" d="M 593.291362 768.96 
L 594.959801 768.96 
L 594.959801 528.981107 
L 593.291362 528.981107 
z
" style="fill:#1f77b4;"/>
   </g>
   <g id="patch_133">
    <path clip-path="url(#p2c7122964b)" d="M 596.628239 768.96 
L 598.296678 768.96 
L 598.296678 461.209264 
L 596.628239 461.209264 
z
" style="fill:#1f77b4;"/>
   </g>
   <g id="patch_134">
    <path clip-path="url(#p2c7122964b)" d="M 599.965116 768.96 
L 601.633555 768.96 
L 601.633555 490.067817 
L 599.965116 490.067817 
z
" style="fill:#1f77b4;"/>
   </g>
   <g id="patch_135">
    <path clip-path="url(#p2c7122964b)" d="M 603.301993 768.96 
L 604.970432 768.96 
L 604.970432 478.46261 
L 603.301993 478.46261 
z
" style="fill:#1f77b4;"/>
   </g>
   <g id="patch_136">
    <path clip-path="url(#p2c7122964b)" d="M 606.63887 768.96 
L 608.307309 768.96 
L 608.307309 349.965982 
L 606.63887 349.965982 
z
" style="fill:#1f77b4;"/>
   </g>
   <g id="patch_137">
    <path clip-path="url(#p2c7122964b)" d="M 609.975748 768.96 
L 611.644186 768.96 
L 611.644186 534.436895 
L 609.975748 534.436895 
z
" style="fill:#1f77b4;"/>
   </g>
   <g id="patch_138">
    <path clip-path="url(#p2c7122964b)" d="M 613.312625 768.96 
L 614.981063 768.96 
L 614.981063 674.766055 
L 613.312625 674.766055 
z
" style="fill:#1f77b4;"/>
   </g>
   <g id="patch_139">
    <path clip-path="url(#p2c7122964b)" d="M 616.649502 768.96 
L 618.31794 768.96 
L 618.31794 606.388013 
L 616.649502 606.388013 
z
" style="fill:#1f77b4;"/>
   </g>
   <g id="patch_140">
    <path clip-path="url(#p2c7122964b)" d="M 619.986379 768.96 
L 621.654817 768.96 
L 621.654817 466.606763 
L 619.986379 466.606763 
z
" style="fill:#1f77b4;"/>
   </g>
   <g id="patch_141">
    <path clip-path="url(#p2c7122964b)" d="M 623.323256 768.96 
L 624.991694 768.96 
L 624.991694 499.906887 
L 623.323256 499.906887 
z
" style="fill:#1f77b4;"/>
   </g>
   <g id="patch_142">
    <path clip-path="url(#p2c7122964b)" d="M 626.660133 768.96 
L 628.328571 768.96 
L 628.328571 383.749899 
L 626.660133 383.749899 
z
" style="fill:#1f77b4;"/>
   </g>
   <g id="patch_143">
    <path clip-path="url(#p2c7122964b)" d="M 629.99701 768.96 
L 631.665449 768.96 
L 631.665449 520.097966 
L 629.99701 520.097966 
z
" style="fill:#1f77b4;"/>
   </g>
   <g id="patch_144">
    <path clip-path="url(#p2c7122964b)" d="M 633.333887 768.96 
L 635.002326 768.96 
L 635.002326 569.036849 
L 633.333887 569.036849 
z
" style="fill:#1f77b4;"/>
   </g>
   <g id="patch_145">
    <path clip-path="url(#p2c7122964b)" d="M 636.670764 768.96 
L 638.339203 768.96 
L 638.339203 677.167534 
L 636.670764 677.167534 
z
" style="fill:#1f77b4;"/>
   </g>
   <g id="patch_146">
    <path clip-path="url(#p2c7122964b)" d="M 640.007641 768.96 
L 641.67608 768.96 
L 641.67608 617.917445 
L 640.007641 617.917445 
z
" style="fill:#1f77b4;"/>
   </g>
   <g id="patch_147">
    <path clip-path="url(#p2c7122964b)" d="M 643.344518 768.96 
L 645.012957 768.96 
L 645.012957 584.710582 
L 643.344518 584.710582 
z
" style="fill:#1f77b4;"/>
   </g>
   <g id="patch_148">
    <path clip-path="url(#p2c7122964b)" d="M 646.681395 768.96 
L 648.349834 768.96 
L 648.349834 583.754653 
L 646.681395 583.754653 
z
" style="fill:#1f77b4;"/>
   </g>
   <g id="patch_149">
    <path clip-path="url(#p2c7122964b)" d="M 650.018272 768.96 
L 651.686711 768.96 
L 651.686711 572.872222 
L 650.018272 572.872222 
z
" style="fill:#1f77b4;"/>
   </g>
   <g id="patch_150">
    <path clip-path="url(#p2c7122964b)" d="M 653.35515 768.96 
L 655.023588 768.96 
L 655.023588 586.348484 
L 653.35515 586.348484 
z
" style="fill:#1f77b4;"/>
   </g>
   <g id="patch_151">
    <path clip-path="url(#p2c7122964b)" d="M 656.692027 768.96 
L 658.360465 768.96 
L 658.360465 644.059762 
L 656.692027 644.059762 
z
" style="fill:#1f77b4;"/>
   </g>
   <g id="patch_152">
    <path clip-path="url(#p2c7122964b)" d="M 660.028904 768.96 
L 661.697342 768.96 
L 661.697342 698.862452 
L 660.028904 698.862452 
z
" style="fill:#1f77b4;"/>
   </g>
   <g id="patch_153">
    <path clip-path="url(#p2c7122964b)" d="M 663.365781 768.96 
L 665.034219 768.96 
L 665.034219 718.091772 
L 663.365781 718.091772 
z
" style="fill:#1f77b4;"/>
   </g>
   <g id="patch_154">
    <path clip-path="url(#p2c7122964b)" d="M 666.702658 768.96 
L 668.371096 768.96 
L 668.371096 659.00489 
L 666.702658 659.00489 
z
" style="fill:#1f77b4;"/>
   </g>
   <g id="patch_155">
    <path clip-path="url(#p2c7122964b)" d="M 670.039535 768.96 
L 671.707973 768.96 
L 671.707973 652.96039 
L 670.039535 652.96039 
z
" style="fill:#1f77b4;"/>
   </g>
   <g id="patch_156">
    <path clip-path="url(#p2c7122964b)" d="M 673.376412 768.96 
L 675.04485 768.96 
L 675.04485 581.085048 
L 673.376412 581.085048 
z
" style="fill:#1f77b4;"/>
   </g>
   <g id="patch_157">
    <path clip-path="url(#p2c7122964b)" d="M 676.713289 768.96 
L 678.381728 768.96 
L 678.381728 556.953678 
L 676.713289 556.953678 
z
" style="fill:#1f77b4;"/>
   </g>
   <g id="patch_158">
    <path clip-path="url(#p2c7122964b)" d="M 680.050166 768.96 
L 681.718605 768.96 
L 681.718605 579.482118 
L 680.050166 579.482118 
z
" style="fill:#1f77b4;"/>
   </g>
   <g id="patch_159">
    <path clip-path="url(#p2c7122964b)" d="M 683.387043 768.96 
L 685.055482 768.96 
L 685.055482 634.290637 
L 683.387043 634.290637 
z
" style="fill:#1f77b4;"/>
   </g>
   <g id="patch_160">
    <path clip-path="url(#p2c7122964b)" d="M 686.72392 768.96 
L 688.392359 768.96 
L 688.392359 582.466481 
L 686.72392 582.466481 
z
" style="fill:#1f77b4;"/>
   </g>
   <g id="patch_161">
    <path clip-path="url(#p2c7122964b)" d="M 690.060797 768.96 
L 691.729236 768.96 
L 691.729236 568.704606 
L 690.060797 568.704606 
z
" style="fill:#1f77b4;"/>
   </g>
   <g id="patch_162">
    <path clip-path="url(#p2c7122964b)" d="M 693.397674 768.96 
L 695.066113 768.96 
L 695.066113 535.282076 
L 693.397674 535.282076 
z
" style="fill:#1f77b4;"/>
   </g>
   <g id="patch_163">
    <path clip-path="url(#p2c7122964b)" d="M 696.734551 768.96 
L 698.40299 768.96 
L 698.40299 606.941752 
L 696.734551 606.941752 
z
" style="fill:#1f77b4;"/>
   </g>
   <g id="patch_164">
    <path clip-path="url(#p2c7122964b)" d="M 700.071429 768.96 
L 701.739867 768.96 
L 701.739867 615.562596 
L 700.071429 615.562596 
z
" style="fill:#1f77b4;"/>
   </g>
   <g id="patch_165">
    <path clip-path="url(#p2c7122964b)" d="M 703.408306 768.96 
L 705.076744 768.96 
L 705.076744 674.760226 
L 703.408306 674.760226 
z
" style="fill:#1f77b4;"/>
   </g>
   <g id="patch_166">
    <path clip-path="url(#p2c7122964b)" d="M 706.745183 768.96 
L 708.413621 768.96 
L 708.413621 675.564605 
L 706.745183 675.564605 
z
" style="fill:#1f77b4;"/>
   </g>
   <g id="patch_167">
    <path clip-path="url(#p2c7122964b)" d="M 710.08206 768.96 
L 711.750498 768.96 
L 711.750498 484.990903 
L 710.08206 484.990903 
z
" style="fill:#1f77b4;"/>
   </g>
   <g id="patch_168">
    <path clip-path="url(#p2c7122964b)" d="M 713.418937 768.96 
L 715.087375 768.96 
L 715.087375 558.177733 
L 713.418937 558.177733 
z
" style="fill:#1f77b4;"/>
   </g>
   <g id="patch_169">
    <path clip-path="url(#p2c7122964b)" d="M 716.755814 768.96 
L 718.424252 768.96 
L 718.424252 624.643918 
L 716.755814 624.643918 
z
" style="fill:#1f77b4;"/>
   </g>
   <g id="patch_170">
    <path clip-path="url(#p2c7122964b)" d="M 720.092691 768.96 
L 721.76113 768.96 
L 721.76113 579.289767 
L 720.092691 579.289767 
z
" style="fill:#1f77b4;"/>
   </g>
   <g id="patch_171">
    <path clip-path="url(#p2c7122964b)" d="M 723.429568 768.96 
L 725.098007 768.96 
L 725.098007 677.715445 
L 723.429568 677.715445 
z
" style="fill:#1f77b4;"/>
   </g>
   <g id="patch_172">
    <path clip-path="url(#p2c7122964b)" d="M 726.766445 768.96 
L 728.434884 768.96 
L 728.434884 626.98128 
L 726.766445 626.98128 
z
" style="fill:#1f77b4;"/>
   </g>
   <g id="patch_173">
    <path clip-path="url(#p2c7122964b)" d="M 730.103322 768.96 
L 731.771761 768.96 
L 731.771761 708.398423 
L 730.103322 708.398423 
z
" style="fill:#1f77b4;"/>
   </g>
   <g id="patch_174">
    <path clip-path="url(#p2c7122964b)" d="M 733.440199 768.96 
L 735.108638 768.96 
L 735.108638 694.834728 
L 733.440199 694.834728 
z
" style="fill:#1f77b4;"/>
   </g>
   <g id="patch_175">
    <path clip-path="url(#p2c7122964b)" d="M 736.777076 768.96 
L 738.445515 768.96 
L 738.445515 678.595599 
L 736.777076 678.595599 
z
" style="fill:#1f77b4;"/>
   </g>
   <g id="patch_176">
    <path clip-path="url(#p2c7122964b)" d="M 740.113953 768.96 
L 741.782392 768.96 
L 741.782392 659.372107 
L 740.113953 659.372107 
z
" style="fill:#1f77b4;"/>
   </g>
   <g id="patch_177">
    <path clip-path="url(#p2c7122964b)" d="M 743.450831 768.96 
L 745.119269 768.96 
L 745.119269 635.806134 
L 743.450831 635.806134 
z
" style="fill:#1f77b4;"/>
   </g>
   <g id="patch_178">
    <path clip-path="url(#p2c7122964b)" d="M 746.787708 768.96 
L 748.456146 768.96 
L 748.456146 473.181687 
L 746.787708 473.181687 
z
" style="fill:#1f77b4;"/>
   </g>
   <g id="patch_179">
    <path clip-path="url(#p2c7122964b)" d="M 750.124585 768.96 
L 751.793023 768.96 
L 751.793023 427.238824 
L 750.124585 427.238824 
z
" style="fill:#1f77b4;"/>
   </g>
   <g id="patch_180">
    <path clip-path="url(#p2c7122964b)" d="M 753.461462 768.96 
L 755.1299 768.96 
L 755.1299 738.370283 
L 753.461462 738.370283 
z
" style="fill:#1f77b4;"/>
   </g>
   <g id="patch_181">
    <path clip-path="url(#p2c7122964b)" d="M 756.798339 768.96 
L 758.466777 768.96 
L 758.466777 692.928699 
L 756.798339 692.928699 
z
" style="fill:#1f77b4;"/>
   </g>
   <g id="patch_182">
    <path clip-path="url(#p2c7122964b)" d="M 760.135216 768.96 
L 761.803654 768.96 
L 761.803654 675.1391 
L 760.135216 675.1391 
z
" style="fill:#1f77b4;"/>
   </g>
   <g id="patch_183">
    <path clip-path="url(#p2c7122964b)" d="M 763.472093 768.96 
L 765.140532 768.96 
L 765.140532 678.653887 
L 763.472093 678.653887 
z
" style="fill:#1f77b4;"/>
   </g>
   <g id="patch_184">
    <path clip-path="url(#p2c7122964b)" d="M 766.80897 768.96 
L 768.477409 768.96 
L 768.477409 687.810984 
L 766.80897 687.810984 
z
" style="fill:#1f77b4;"/>
   </g>
   <g id="patch_185">
    <path clip-path="url(#p2c7122964b)" d="M 770.145847 768.96 
L 771.814286 768.96 
L 771.814286 687.799326 
L 770.145847 687.799326 
z
" style="fill:#1f77b4;"/>
   </g>
   <g id="patch_186">
    <path clip-path="url(#p2c7122964b)" d="M 773.482724 768.96 
L 775.151163 768.96 
L 775.151163 708.351792 
L 773.482724 708.351792 
z
" style="fill:#1f77b4;"/>
   </g>
   <g id="patch_187">
    <path clip-path="url(#p2c7122964b)" d="M 776.819601 768.96 
L 778.48804 768.96 
L 778.48804 739.874122 
L 776.819601 739.874122 
z
" style="fill:#1f77b4;"/>
   </g>
   <g id="patch_188">
    <path clip-path="url(#p2c7122964b)" d="M 780.156478 768.96 
L 781.824917 768.96 
L 781.824917 764.005492 
L 780.156478 764.005492 
z
" style="fill:#1f77b4;"/>
   </g>
   <g id="patch_189">
    <path clip-path="url(#p2c7122964b)" d="M 783.493355 768.96 
L 785.161794 768.96 
L 785.161794 721.839712 
L 783.493355 721.839712 
z
" style="fill:#1f77b4;"/>
   </g>
   <g id="patch_190">
    <path clip-path="url(#p2c7122964b)" d="M 786.830233 768.96 
L 788.498671 768.96 
L 788.498671 685.788379 
L 786.830233 685.788379 
z
" style="fill:#1f77b4;"/>
   </g>
   <g id="patch_191">
    <path clip-path="url(#p2c7122964b)" d="M 790.16711 768.96 
L 791.835548 768.96 
L 791.835548 685.520252 
L 790.16711 685.520252 
z
" style="fill:#1f77b4;"/>
   </g>
   <g id="patch_192">
    <path clip-path="url(#p2c7122964b)" d="M 793.503987 768.96 
L 795.172425 768.96 
L 795.172425 695.679909 
L 793.503987 695.679909 
z
" style="fill:#1f77b4;"/>
   </g>
   <g id="patch_193">
    <path clip-path="url(#p2c7122964b)" d="M 796.840864 768.96 
L 798.509302 768.96 
L 798.509302 707.127737 
L 796.840864 707.127737 
z
" style="fill:#1f77b4;"/>
   </g>
   <g id="patch_194">
    <path clip-path="url(#p2c7122964b)" d="M 800.177741 768.96 
L 801.846179 768.96 
L 801.846179 726.782563 
L 800.177741 726.782563 
z
" style="fill:#1f77b4;"/>
   </g>
   <g id="patch_195">
    <path clip-path="url(#p2c7122964b)" d="M 803.514618 768.96 
L 805.183056 768.96 
L 805.183056 690.323211 
L 803.514618 690.323211 
z
" style="fill:#1f77b4;"/>
   </g>
   <g id="patch_196">
    <path clip-path="url(#p2c7122964b)" d="M 806.851495 768.96 
L 808.519934 768.96 
L 808.519934 703.694554 
L 806.851495 703.694554 
z
" style="fill:#1f77b4;"/>
   </g>
   <g id="patch_197">
    <path clip-path="url(#p2c7122964b)" d="M 810.188372 768.96 
L 811.856811 768.96 
L 811.856811 706.708061 
L 810.188372 706.708061 
z
" style="fill:#1f77b4;"/>
   </g>
   <g id="patch_198">
    <path clip-path="url(#p2c7122964b)" d="M 813.525249 768.96 
L 815.193688 768.96 
L 815.193688 707.139395 
L 813.525249 707.139395 
z
" style="fill:#1f77b4;"/>
   </g>
   <g id="patch_199">
    <path clip-path="url(#p2c7122964b)" d="M 816.862126 768.96 
L 818.530565 768.96 
L 818.530565 706.422448 
L 816.862126 706.422448 
z
" style="fill:#1f77b4;"/>
   </g>
   <g id="patch_200">
    <path clip-path="url(#p2c7122964b)" d="M 820.199003 768.96 
L 821.867442 768.96 
L 821.867442 716.920177 
L 820.199003 716.920177 
z
" style="fill:#1f77b4;"/>
   </g>
   <g id="patch_201">
    <path clip-path="url(#p2c7122964b)" d="M 823.53588 768.96 
L 825.204319 768.96 
L 825.204319 733.608127 
L 823.53588 733.608127 
z
" style="fill:#1f77b4;"/>
   </g>
   <g id="patch_202">
    <path clip-path="url(#p2c7122964b)" d="M 826.872757 768.96 
L 828.541196 768.96 
L 828.541196 716.436384 
L 826.872757 716.436384 
z
" style="fill:#1f77b4;"/>
   </g>
   <g id="patch_203">
    <path clip-path="url(#p2c7122964b)" d="M 830.209635 768.96 
L 831.878073 768.96 
L 831.878073 698.693416 
L 830.209635 698.693416 
z
" style="fill:#1f77b4;"/>
   </g>
   <g id="patch_204">
    <path clip-path="url(#p2c7122964b)" d="M 833.546512 768.96 
L 835.21495 768.96 
L 835.21495 703.391455 
L 833.546512 703.391455 
z
" style="fill:#1f77b4;"/>
   </g>
   <g id="patch_205">
    <path clip-path="url(#p2c7122964b)" d="M 836.883389 768.96 
L 838.551827 768.96 
L 838.551827 721.332604 
L 836.883389 721.332604 
z
" style="fill:#1f77b4;"/>
   </g>
   <g id="patch_206">
    <path clip-path="url(#p2c7122964b)" d="M 840.220266 768.96 
L 841.888704 768.96 
L 841.888704 720.295071 
L 840.220266 720.295071 
z
" style="fill:#1f77b4;"/>
   </g>
   <g id="patch_207">
    <path clip-path="url(#p2c7122964b)" d="M 843.557143 768.96 
L 845.225581 768.96 
L 845.225581 738.690869 
L 843.557143 738.690869 
z
" style="fill:#1f77b4;"/>
   </g>
   <g id="patch_208">
    <path clip-path="url(#p2c7122964b)" d="M 846.89402 768.96 
L 848.562458 768.96 
L 848.562458 751.362753 
L 846.89402 751.362753 
z
" style="fill:#1f77b4;"/>
   </g>
   <g id="patch_209">
    <path clip-path="url(#p2c7122964b)" d="M 850.230897 768.96 
L 851.899336 768.96 
L 851.899336 739.640969 
L 850.230897 739.640969 
z
" style="fill:#1f77b4;"/>
   </g>
   <g id="patch_210">
    <path clip-path="url(#p2c7122964b)" d="M 853.567774 768.96 
L 855.236213 768.96 
L 855.236213 702.190715 
L 853.567774 702.190715 
z
" style="fill:#1f77b4;"/>
   </g>
   <g id="patch_211">
    <path clip-path="url(#p2c7122964b)" d="M 856.904651 768.96 
L 858.57309 768.96 
L 858.57309 656.95897 
L 856.904651 656.95897 
z
" style="fill:#1f77b4;"/>
   </g>
   <g id="patch_212">
    <path clip-path="url(#p2c7122964b)" d="M 860.241528 768.96 
L 861.909967 768.96 
L 861.909967 710.694983 
L 860.241528 710.694983 
z
" style="fill:#1f77b4;"/>
   </g>
   <g id="patch_213">
    <path clip-path="url(#p2c7122964b)" d="M 863.578405 768.96 
L 865.246844 768.96 
L 865.246844 642.614211 
L 863.578405 642.614211 
z
" style="fill:#1f77b4;"/>
   </g>
   <g id="patch_214">
    <path clip-path="url(#p2c7122964b)" d="M 866.915282 768.96 
L 868.583721 768.96 
L 868.583721 722.958848 
L 866.915282 722.958848 
z
" style="fill:#1f77b4;"/>
   </g>
   <g id="patch_215">
    <path clip-path="url(#p2c7122964b)" d="M 870.252159 768.96 
L 871.920598 768.96 
L 871.920598 734.517424 
L 870.252159 734.517424 
z
" style="fill:#1f77b4;"/>
   </g>
   <g id="patch_216">
    <path clip-path="url(#p2c7122964b)" d="M 873.589037 768.96 
L 875.257475 768.96 
L 875.257475 722.183613 
L 873.589037 722.183613 
z
" style="fill:#1f77b4;"/>
   </g>
   <g id="patch_217">
    <path clip-path="url(#p2c7122964b)" d="M 876.925914 768.96 
L 878.594352 768.96 
L 878.594352 705.618069 
L 876.925914 705.618069 
z
" style="fill:#1f77b4;"/>
   </g>
   <g id="patch_218">
    <path clip-path="url(#p2c7122964b)" d="M 880.262791 768.96 
L 881.931229 768.96 
L 881.931229 710.630866 
L 880.262791 710.630866 
z
" style="fill:#1f77b4;"/>
   </g>
   <g id="patch_219">
    <path clip-path="url(#p2c7122964b)" d="M 883.599668 768.96 
L 885.268106 768.96 
L 885.268106 708.590774 
L 883.599668 708.590774 
z
" style="fill:#1f77b4;"/>
   </g>
   <g id="patch_220">
    <path clip-path="url(#p2c7122964b)" d="M 886.936545 768.96 
L 888.604983 768.96 
L 888.604983 704.685456 
L 886.936545 704.685456 
z
" style="fill:#1f77b4;"/>
   </g>
   <g id="patch_221">
    <path clip-path="url(#p2c7122964b)" d="M 890.273422 768.96 
L 891.94186 768.96 
L 891.94186 666.343391 
L 890.273422 666.343391 
z
" style="fill:#1f77b4;"/>
   </g>
   <g id="patch_222">
    <path clip-path="url(#p2c7122964b)" d="M 893.610299 768.96 
L 895.278738 768.96 
L 895.278738 728.974204 
L 893.610299 728.974204 
z
" style="fill:#1f77b4;"/>
   </g>
   <g id="patch_223">
    <path clip-path="url(#p2c7122964b)" d="M 896.947176 768.96 
L 898.615615 768.96 
L 898.615615 723.681624 
L 896.947176 723.681624 
z
" style="fill:#1f77b4;"/>
   </g>
   <g id="patch_224">
    <path clip-path="url(#p2c7122964b)" d="M 900.284053 768.96 
L 901.952492 768.96 
L 901.952492 725.715886 
L 900.284053 725.715886 
z
" style="fill:#1f77b4;"/>
   </g>
   <g id="patch_225">
    <path clip-path="url(#p2c7122964b)" d="M 903.62093 768.96 
L 905.289369 768.96 
L 905.289369 613.94218 
L 903.62093 613.94218 
z
" style="fill:#1f77b4;"/>
   </g>
   <g id="patch_226">
    <path clip-path="url(#p2c7122964b)" d="M 906.957807 768.96 
L 908.626246 768.96 
L 908.626246 632.419582 
L 906.957807 632.419582 
z
" style="fill:#1f77b4;"/>
   </g>
   <g id="patch_227">
    <path clip-path="url(#p2c7122964b)" d="M 910.294684 768.96 
L 911.963123 768.96 
L 911.963123 645.680177 
L 910.294684 645.680177 
z
" style="fill:#1f77b4;"/>
   </g>
   <g id="patch_228">
    <path clip-path="url(#p2c7122964b)" d="M 913.631561 768.96 
L 915.3 768.96 
L 915.3 607.95014 
L 913.631561 607.95014 
z
" style="fill:#1f77b4;"/>
   </g>
   <g id="patch_229">
    <path clip-path="url(#p2c7122964b)" d="M 916.968439 768.96 
L 918.636877 768.96 
L 918.636877 658.468637 
L 916.968439 658.468637 
z
" style="fill:#1f77b4;"/>
   </g>
   <g id="patch_230">
    <path clip-path="url(#p2c7122964b)" d="M 920.305316 768.96 
L 921.973754 768.96 
L 921.973754 715.218158 
L 920.305316 715.218158 
z
" style="fill:#1f77b4;"/>
   </g>
   <g id="patch_231">
    <path clip-path="url(#p2c7122964b)" d="M 923.642193 768.96 
L 925.310631 768.96 
L 925.310631 692.771321 
L 923.642193 692.771321 
z
" style="fill:#1f77b4;"/>
   </g>
   <g id="patch_232">
    <path clip-path="url(#p2c7122964b)" d="M 926.97907 768.96 
L 928.647508 768.96 
L 928.647508 697.032198 
L 926.97907 697.032198 
z
" style="fill:#1f77b4;"/>
   </g>
   <g id="patch_233">
    <path clip-path="url(#p2c7122964b)" d="M 930.315947 768.96 
L 931.984385 768.96 
L 931.984385 700.791795 
L 930.315947 700.791795 
z
" style="fill:#1f77b4;"/>
   </g>
   <g id="patch_234">
    <path clip-path="url(#p2c7122964b)" d="M 933.652824 768.96 
L 935.321262 768.96 
L 935.321262 702.989266 
L 933.652824 702.989266 
z
" style="fill:#1f77b4;"/>
   </g>
   <g id="patch_235">
    <path clip-path="url(#p2c7122964b)" d="M 936.989701 768.96 
L 938.65814 768.96 
L 938.65814 701.549544 
L 936.989701 701.549544 
z
" style="fill:#1f77b4;"/>
   </g>
   <g id="patch_236">
    <path clip-path="url(#p2c7122964b)" d="M 940.326578 768.96 
L 941.995017 768.96 
L 941.995017 724.130444 
L 940.326578 724.130444 
z
" style="fill:#1f77b4;"/>
   </g>
   <g id="patch_237">
    <path clip-path="url(#p2c7122964b)" d="M 943.663455 768.96 
L 945.331894 768.96 
L 945.331894 714.227256 
L 943.663455 714.227256 
z
" style="fill:#1f77b4;"/>
   </g>
   <g id="patch_238">
    <path clip-path="url(#p2c7122964b)" d="M 947.000332 768.96 
L 948.668771 768.96 
L 948.668771 693.202655 
L 947.000332 693.202655 
z
" style="fill:#1f77b4;"/>
   </g>
   <g id="patch_239">
    <path clip-path="url(#p2c7122964b)" d="M 950.337209 768.96 
L 952.005648 768.96 
L 952.005648 696.484288 
L 950.337209 696.484288 
z
" style="fill:#1f77b4;"/>
   </g>
   <g id="patch_240">
    <path clip-path="url(#p2c7122964b)" d="M 953.674086 768.96 
L 955.342525 768.96 
L 955.342525 692.468222 
L 953.674086 692.468222 
z
" style="fill:#1f77b4;"/>
   </g>
   <g id="patch_241">
    <path clip-path="url(#p2c7122964b)" d="M 957.010963 768.96 
L 958.679402 768.96 
L 958.679402 682.366854 
L 957.010963 682.366854 
z
" style="fill:#1f77b4;"/>
   </g>
   <g id="patch_242">
    <path clip-path="url(#p2c7122964b)" d="M 960.347841 768.96 
L 962.016279 768.96 
L 962.016279 642.940626 
L 960.347841 642.940626 
z
" style="fill:#1f77b4;"/>
   </g>
   <g id="patch_243">
    <path clip-path="url(#p2c7122964b)" d="M 963.684718 768.96 
L 965.353156 768.96 
L 965.353156 564.502017 
L 963.684718 564.502017 
z
" style="fill:#1f77b4;"/>
   </g>
   <g id="patch_244">
    <path clip-path="url(#p2c7122964b)" d="M 967.021595 768.96 
L 968.690033 768.96 
L 968.690033 674.14237 
L 967.021595 674.14237 
z
" style="fill:#1f77b4;"/>
   </g>
   <g id="patch_245">
    <path clip-path="url(#p2c7122964b)" d="M 970.358472 768.96 
L 972.02691 768.96 
L 972.02691 693.884628 
L 970.358472 693.884628 
z
" style="fill:#1f77b4;"/>
   </g>
   <g id="patch_246">
    <path clip-path="url(#p2c7122964b)" d="M 973.695349 768.96 
L 975.363787 768.96 
L 975.363787 698.92074 
L 973.695349 698.92074 
z
" style="fill:#1f77b4;"/>
   </g>
   <g id="patch_247">
    <path clip-path="url(#p2c7122964b)" d="M 977.032226 768.96 
L 978.700664 768.96 
L 978.700664 704.504762 
L 977.032226 704.504762 
z
" style="fill:#1f77b4;"/>
   </g>
   <g id="patch_248">
    <path clip-path="url(#p2c7122964b)" d="M 980.369103 768.96 
L 982.037542 768.96 
L 982.037542 703.770329 
L 980.369103 703.770329 
z
" style="fill:#1f77b4;"/>
   </g>
   <g id="patch_249">
    <path clip-path="url(#p2c7122964b)" d="M 983.70598 768.96 
L 985.374419 768.96 
L 985.374419 707.996233 
L 983.70598 707.996233 
z
" style="fill:#1f77b4;"/>
   </g>
   <g id="patch_250">
    <path clip-path="url(#p2c7122964b)" d="M 987.042857 768.96 
L 988.711296 768.96 
L 988.711296 727.103149 
L 987.042857 727.103149 
z
" style="fill:#1f77b4;"/>
   </g>
   <g id="patch_251">
    <path clip-path="url(#p2c7122964b)" d="M 990.379734 768.96 
L 992.048173 768.96 
L 992.048173 739.524392 
L 990.379734 739.524392 
z
" style="fill:#1f77b4;"/>
   </g>
   <g id="patch_252">
    <path clip-path="url(#p2c7122964b)" d="M 993.716611 768.96 
L 995.38505 768.96 
L 995.38505 732.966955 
L 993.716611 732.966955 
z
" style="fill:#1f77b4;"/>
   </g>
   <g id="patch_253">
    <path clip-path="url(#p2c7122964b)" d="M 997.053488 768.96 
L 998.721927 768.96 
L 998.721927 695.767341 
L 997.053488 695.767341 
z
" style="fill:#1f77b4;"/>
   </g>
   <g id="patch_254">
    <path clip-path="url(#p2c7122964b)" d="M 1000.390365 768.96 
L 1002.058804 768.96 
L 1002.058804 704.877808 
L 1000.390365 704.877808 
z
" style="fill:#1f77b4;"/>
   </g>
   <g id="patch_255">
    <path clip-path="url(#p2c7122964b)" d="M 1003.727243 768.96 
L 1005.395681 768.96 
L 1005.395681 707.81554 
L 1003.727243 707.81554 
z
" style="fill:#1f77b4;"/>
   </g>
   <g id="patch_256">
    <path clip-path="url(#p2c7122964b)" d="M 1007.06412 768.96 
L 1008.732558 768.96 
L 1008.732558 712.694273 
L 1007.06412 712.694273 
z
" style="fill:#1f77b4;"/>
   </g>
   <g id="patch_257">
    <path clip-path="url(#p2c7122964b)" d="M 1010.400997 768.96 
L 1012.069435 768.96 
L 1012.069435 727.091491 
L 1010.400997 727.091491 
z
" style="fill:#1f77b4;"/>
   </g>
   <g id="patch_258">
    <path clip-path="url(#p2c7122964b)" d="M 1013.737874 768.96 
L 1015.406312 768.96 
L 1015.406312 722.311848 
L 1013.737874 722.311848 
z
" style="fill:#1f77b4;"/>
   </g>
   <g id="patch_259">
    <path clip-path="url(#p2c7122964b)" d="M 1017.074751 768.96 
L 1018.743189 768.96 
L 1018.743189 706.305872 
L 1017.074751 706.305872 
z
" style="fill:#1f77b4;"/>
   </g>
   <g id="patch_260">
    <path clip-path="url(#p2c7122964b)" d="M 1020.411628 768.96 
L 1022.080066 768.96 
L 1022.080066 709.540874 
L 1020.411628 709.540874 
z
" style="fill:#1f77b4;"/>
   </g>
   <g id="patch_261">
    <path clip-path="url(#p2c7122964b)" d="M 1023.748505 768.96 
L 1025.416944 768.96 
L 1025.416944 709.039594 
L 1023.748505 709.039594 
z
" style="fill:#1f77b4;"/>
   </g>
   <g id="patch_262">
    <path clip-path="url(#p2c7122964b)" d="M 1027.085382 768.96 
L 1028.753821 768.96 
L 1028.753821 706.894584 
L 1027.085382 706.894584 
z
" style="fill:#1f77b4;"/>
   </g>
   <g id="patch_263">
    <path clip-path="url(#p2c7122964b)" d="M 1030.422259 768.96 
L 1032.090698 768.96 
L 1032.090698 707.827197 
L 1030.422259 707.827197 
z
" style="fill:#1f77b4;"/>
   </g>
   <g id="patch_264">
    <path clip-path="url(#p2c7122964b)" d="M 1033.759136 768.96 
L 1035.427575 768.96 
L 1035.427575 724.404399 
L 1033.759136 724.404399 
z
" style="fill:#1f77b4;"/>
   </g>
   <g id="patch_265">
    <path clip-path="url(#p2c7122964b)" d="M 1037.096013 768.96 
L 1038.764452 768.96 
L 1038.764452 727.820095 
L 1037.096013 727.820095 
z
" style="fill:#1f77b4;"/>
   </g>
   <g id="patch_266">
    <path clip-path="url(#p2c7122964b)" d="M 1040.43289 768.96 
L 1042.101329 768.96 
L 1042.101329 698.850794 
L 1040.43289 698.850794 
z
" style="fill:#1f77b4;"/>
   </g>
   <g id="patch_267">
    <path clip-path="url(#p2c7122964b)" d="M 1043.769767 768.96 
L 1045.438206 768.96 
L 1045.438206 718.167547 
L 1043.769767 718.167547 
z
" style="fill:#1f77b4;"/>
   </g>
   <g id="patch_268">
    <path clip-path="url(#p2c7122964b)" d="M 1047.106645 768.96 
L 1048.775083 768.96 
L 1048.775083 695.085368 
L 1047.106645 695.085368 
z
" style="fill:#1f77b4;"/>
   </g>
   <g id="patch_269">
    <path clip-path="url(#p2c7122964b)" d="M 1050.443522 768.96 
L 1052.11196 768.96 
L 1052.11196 698.180478 
L 1050.443522 698.180478 
z
" style="fill:#1f77b4;"/>
   </g>
   <g id="patch_270">
    <path clip-path="url(#p2c7122964b)" d="M 1053.780399 768.96 
L 1055.448837 768.96 
L 1055.448837 712.076417 
L 1053.780399 712.076417 
z
" style="fill:#1f77b4;"/>
   </g>
   <g id="patch_271">
    <path clip-path="url(#p2c7122964b)" d="M 1057.117276 768.96 
L 1058.785714 768.96 
L 1058.785714 731.719585 
L 1057.117276 731.719585 
z
" style="fill:#1f77b4;"/>
   </g>
   <g id="patch_272">
    <path clip-path="url(#p2c7122964b)" d="M 1060.454153 768.96 
L 1062.122591 768.96 
L 1062.122591 722.323505 
L 1060.454153 722.323505 
z
" style="fill:#1f77b4;"/>
   </g>
   <g id="patch_273">
    <path clip-path="url(#p2c7122964b)" d="M 1063.79103 768.96 
L 1065.459468 768.96 
L 1065.459468 714.174797 
L 1063.79103 714.174797 
z
" style="fill:#1f77b4;"/>
   </g>
   <g id="patch_274">
    <path clip-path="url(#p2c7122964b)" d="M 1067.127907 768.96 
L 1068.796346 768.96 
L 1068.796346 729.417195 
L 1067.127907 729.417195 
z
" style="fill:#1f77b4;"/>
   </g>
   <g id="patch_275">
    <path clip-path="url(#p2c7122964b)" d="M 1070.464784 768.96 
L 1072.133223 768.96 
L 1072.133223 741.681061 
L 1070.464784 741.681061 
z
" style="fill:#1f77b4;"/>
   </g>
   <g id="patch_276">
    <path clip-path="url(#p2c7122964b)" d="M 1073.801661 768.96 
L 1075.4701 768.96 
L 1075.4701 700.931687 
L 1073.801661 700.931687 
z
" style="fill:#1f77b4;"/>
   </g>
   <g id="patch_277">
    <path clip-path="url(#p2c7122964b)" d="M 1077.138538 768.96 
L 1078.806977 768.96 
L 1078.806977 679.942059 
L 1077.138538 679.942059 
z
" style="fill:#1f77b4;"/>
   </g>
   <g id="patch_278">
    <path clip-path="url(#p2c7122964b)" d="M 1080.475415 768.96 
L 1082.143854 768.96 
L 1082.143854 738.067184 
L 1080.475415 738.067184 
z
" style="fill:#1f77b4;"/>
   </g>
   <g id="patch_279">
    <path clip-path="url(#p2c7122964b)" d="M 1083.812292 768.96 
L 1085.480731 768.96 
L 1085.480731 711.242893 
L 1083.812292 711.242893 
z
" style="fill:#1f77b4;"/>
   </g>
   <g id="patch_280">
    <path clip-path="url(#p2c7122964b)" d="M 1087.149169 768.96 
L 1088.817608 768.96 
L 1088.817608 736.440939 
L 1087.149169 736.440939 
z
" style="fill:#1f77b4;"/>
   </g>
   <g id="patch_281">
    <path clip-path="url(#p2c7122964b)" d="M 1090.486047 768.96 
L 1092.154485 768.96 
L 1092.154485 701.724409 
L 1090.486047 701.724409 
z
" style="fill:#1f77b4;"/>
   </g>
   <g id="patch_282">
    <path clip-path="url(#p2c7122964b)" d="M 1093.822924 768.96 
L 1095.491362 768.96 
L 1095.491362 723.022965 
L 1093.822924 723.022965 
z
" style="fill:#1f77b4;"/>
   </g>
   <g id="patch_283">
    <path clip-path="url(#p2c7122964b)" d="M 1097.159801 768.96 
L 1098.828239 768.96 
L 1098.828239 724.159588 
L 1097.159801 724.159588 
z
" style="fill:#1f77b4;"/>
   </g>
   <g id="patch_284">
    <path clip-path="url(#p2c7122964b)" d="M 1100.496678 768.96 
L 1102.165116 768.96 
L 1102.165116 737.396868 
L 1100.496678 737.396868 
z
" style="fill:#1f77b4;"/>
   </g>
   <g id="patch_285">
    <path clip-path="url(#p2c7122964b)" d="M 1103.833555 768.96 
L 1105.501993 768.96 
L 1105.501993 746.046857 
L 1103.833555 746.046857 
z
" style="fill:#1f77b4;"/>
   </g>
   <g id="patch_286">
    <path clip-path="url(#p2c7122964b)" d="M 1107.170432 768.96 
L 1108.83887 768.96 
L 1108.83887 737.764085 
L 1107.170432 737.764085 
z
" style="fill:#1f77b4;"/>
   </g>
   <g id="patch_287">
    <path clip-path="url(#p2c7122964b)" d="M 1110.507309 768.96 
L 1112.175748 768.96 
L 1112.175748 722.568316 
L 1110.507309 722.568316 
z
" style="fill:#1f77b4;"/>
   </g>
   <g id="patch_288">
    <path clip-path="url(#p2c7122964b)" d="M 1113.844186 768.96 
L 1115.512625 768.96 
L 1115.512625 718.470647 
L 1113.844186 718.470647 
z
" style="fill:#1f77b4;"/>
   </g>
   <g id="patch_289">
    <path clip-path="url(#p2c7122964b)" d="M 1117.181063 768.96 
L 1118.849502 768.96 
L 1118.849502 732.413216 
L 1117.181063 732.413216 
z
" style="fill:#1f77b4;"/>
   </g>
   <g id="patch_290">
    <path clip-path="url(#p2c7122964b)" d="M 1120.51794 768.96 
L 1122.186379 768.96 
L 1122.186379 708.019549 
L 1120.51794 708.019549 
z
" style="fill:#1f77b4;"/>
   </g>
   <g id="patch_291">
    <path clip-path="url(#p2c7122964b)" d="M 1123.854817 768.96 
L 1125.523256 768.96 
L 1125.523256 732.535621 
L 1123.854817 732.535621 
z
" style="fill:#1f77b4;"/>
   </g>
   <g id="patch_292">
    <path clip-path="url(#p2c7122964b)" d="M 1127.191694 768.96 
L 1128.860133 768.96 
L 1128.860133 747.550696 
L 1127.191694 747.550696 
z
" style="fill:#1f77b4;"/>
   </g>
   <g id="patch_293">
    <path clip-path="url(#p2c7122964b)" d="M 1130.528571 768.96 
L 1132.19701 768.96 
L 1132.19701 734.581542 
L 1130.528571 734.581542 
z
" style="fill:#1f77b4;"/>
   </g>
   <g id="patch_294">
    <path clip-path="url(#p2c7122964b)" d="M 1133.865449 768.96 
L 1135.533887 768.96 
L 1135.533887 729.038321 
L 1133.865449 729.038321 
z
" style="fill:#1f77b4;"/>
   </g>
   <g id="patch_295">
    <path clip-path="url(#p2c7122964b)" d="M 1137.202326 768.96 
L 1138.870764 768.96 
L 1138.870764 727.621915 
L 1137.202326 727.621915 
z
" style="fill:#1f77b4;"/>
   </g>
   <g id="patch_296">
    <path clip-path="url(#p2c7122964b)" d="M 1140.539203 768.96 
L 1142.207641 768.96 
L 1142.207641 722.364307 
L 1140.539203 722.364307 
z
" style="fill:#1f77b4;"/>
   </g>
   <g id="patch_297">
    <path clip-path="url(#p2c7122964b)" d="M 1143.87608 768.96 
L 1145.544518 768.96 
L 1145.544518 725.476904 
L 1143.87608 725.476904 
z
" style="fill:#1f77b4;"/>
   </g>
   <g id="patch_298">
    <path clip-path="url(#p2c7122964b)" d="M 1147.212957 768.96 
L 1148.881395 768.96 
L 1148.881395 730.454728 
L 1147.212957 730.454728 
z
" style="fill:#1f77b4;"/>
   </g>
   <g id="patch_299">
    <path clip-path="url(#p2c7122964b)" d="M 1150.549834 768.96 
L 1152.218272 768.96 
L 1152.218272 737.501787 
L 1150.549834 737.501787 
z
" style="fill:#1f77b4;"/>
   </g>
   <g id="patch_300">
    <path clip-path="url(#p2c7122964b)" d="M 1153.886711 768.96 
L 1155.55515 768.96 
L 1155.55515 726.49695 
L 1153.886711 726.49695 
z
" style="fill:#1f77b4;"/>
   </g>
   <g id="patch_301">
    <path clip-path="url(#p2c7122964b)" d="M 1157.223588 768.96 
L 1158.892027 768.96 
L 1158.892027 703.01841 
L 1157.223588 703.01841 
z
" style="fill:#1f77b4;"/>
   </g>
   <g id="patch_302">
    <path clip-path="url(#p2c7122964b)" d="M 1160.560465 768.96 
L 1162.228904 768.96 
L 1162.228904 712.863309 
L 1160.560465 712.863309 
z
" style="fill:#1f77b4;"/>
   </g>
   <g id="patch_303">
    <path clip-path="url(#p2c7122964b)" d="M 1163.897342 768.96 
L 1165.565781 768.96 
L 1165.565781 714.70522 
L 1163.897342 714.70522 
z
" style="fill:#1f77b4;"/>
   </g>
   <g id="matplotlib.axis_1">
    <g id="xtick_1">
     <g id="line2d_1">
      <defs>
       <path d="M 0 0 
L 0 3.5 
" id="m0673ff0fcf" style="stroke:#000000;stroke-width:0.8;"/>
      </defs>
      <g>
       <use style="stroke:#000000;stroke-width:0.8;" x="163.668439" xlink:href="#m0673ff0fcf" y="768.96"/>
      </g>
     </g>
     <g id="text_1">
      <!-- January -->
      <g transform="translate(144.71297 783.558437)scale(0.1 -0.1)">
       <defs>
        <path d="M 628 4666 
L 1259 4666 
L 1259 325 
Q 1259 -519 939 -900 
Q 619 -1281 -91 -1281 
L -331 -1281 
L -331 -750 
L -134 -750 
Q 284 -750 456 -515 
Q 628 -281 628 325 
L 628 4666 
z
" id="DejaVuSans-4a" transform="scale(0.015625)"/>
        <path d="M 2194 1759 
Q 1497 1759 1228 1600 
Q 959 1441 959 1056 
Q 959 750 1161 570 
Q 1363 391 1709 391 
Q 2188 391 2477 730 
Q 2766 1069 2766 1631 
L 2766 1759 
L 2194 1759 
z
M 3341 1997 
L 3341 0 
L 2766 0 
L 2766 531 
Q 2569 213 2275 61 
Q 1981 -91 1556 -91 
Q 1019 -91 701 211 
Q 384 513 384 1019 
Q 384 1609 779 1909 
Q 1175 2209 1959 2209 
L 2766 2209 
L 2766 2266 
Q 2766 2663 2505 2880 
Q 2244 3097 1772 3097 
Q 1472 3097 1187 3025 
Q 903 2953 641 2809 
L 641 3341 
Q 956 3463 1253 3523 
Q 1550 3584 1831 3584 
Q 2591 3584 2966 3190 
Q 3341 2797 3341 1997 
z
" id="DejaVuSans-61" transform="scale(0.015625)"/>
        <path d="M 3513 2113 
L 3513 0 
L 2938 0 
L 2938 2094 
Q 2938 2591 2744 2837 
Q 2550 3084 2163 3084 
Q 1697 3084 1428 2787 
Q 1159 2491 1159 1978 
L 1159 0 
L 581 0 
L 581 3500 
L 1159 3500 
L 1159 2956 
Q 1366 3272 1645 3428 
Q 1925 3584 2291 3584 
Q 2894 3584 3203 3211 
Q 3513 2838 3513 2113 
z
" id="DejaVuSans-6e" transform="scale(0.015625)"/>
        <path d="M 544 1381 
L 544 3500 
L 1119 3500 
L 1119 1403 
Q 1119 906 1312 657 
Q 1506 409 1894 409 
Q 2359 409 2629 706 
Q 2900 1003 2900 1516 
L 2900 3500 
L 3475 3500 
L 3475 0 
L 2900 0 
L 2900 538 
Q 2691 219 2414 64 
Q 2138 -91 1772 -91 
Q 1169 -91 856 284 
Q 544 659 544 1381 
z
M 1991 3584 
L 1991 3584 
z
" id="DejaVuSans-75" transform="scale(0.015625)"/>
        <path d="M 2631 2963 
Q 2534 3019 2420 3045 
Q 2306 3072 2169 3072 
Q 1681 3072 1420 2755 
Q 1159 2438 1159 1844 
L 1159 0 
L 581 0 
L 581 3500 
L 1159 3500 
L 1159 2956 
Q 1341 3275 1631 3429 
Q 1922 3584 2338 3584 
Q 2397 3584 2469 3576 
Q 2541 3569 2628 3553 
L 2631 2963 
z
" id="DejaVuSans-72" transform="scale(0.015625)"/>
        <path d="M 2059 -325 
Q 1816 -950 1584 -1140 
Q 1353 -1331 966 -1331 
L 506 -1331 
L 506 -850 
L 844 -850 
Q 1081 -850 1212 -737 
Q 1344 -625 1503 -206 
L 1606 56 
L 191 3500 
L 800 3500 
L 1894 763 
L 2988 3500 
L 3597 3500 
L 2059 -325 
z
" id="DejaVuSans-79" transform="scale(0.015625)"/>
       </defs>
       <use xlink:href="#DejaVuSans-4a"/>
       <use x="29.492188" xlink:href="#DejaVuSans-61"/>
       <use x="90.771484" xlink:href="#DejaVuSans-6e"/>
       <use x="154.150391" xlink:href="#DejaVuSans-75"/>
       <use x="217.529297" xlink:href="#DejaVuSans-61"/>
       <use x="278.808594" xlink:href="#DejaVuSans-72"/>
       <use x="319.921875" xlink:href="#DejaVuSans-79"/>
      </g>
     </g>
    </g>
    <g id="xtick_2">
     <g id="line2d_2">
      <g>
       <use style="stroke:#000000;stroke-width:0.8;" x="267.111628" xlink:href="#m0673ff0fcf" y="768.96"/>
      </g>
     </g>
     <g id="text_2">
      <!-- February -->
      <g transform="translate(244.95694 783.558437)scale(0.1 -0.1)">
       <defs>
        <path d="M 628 4666 
L 3309 4666 
L 3309 4134 
L 1259 4134 
L 1259 2759 
L 3109 2759 
L 3109 2228 
L 1259 2228 
L 1259 0 
L 628 0 
L 628 4666 
z
" id="DejaVuSans-46" transform="scale(0.015625)"/>
        <path d="M 3597 1894 
L 3597 1613 
L 953 1613 
Q 991 1019 1311 708 
Q 1631 397 2203 397 
Q 2534 397 2845 478 
Q 3156 559 3463 722 
L 3463 178 
Q 3153 47 2828 -22 
Q 2503 -91 2169 -91 
Q 1331 -91 842 396 
Q 353 884 353 1716 
Q 353 2575 817 3079 
Q 1281 3584 2069 3584 
Q 2775 3584 3186 3129 
Q 3597 2675 3597 1894 
z
M 3022 2063 
Q 3016 2534 2758 2815 
Q 2500 3097 2075 3097 
Q 1594 3097 1305 2825 
Q 1016 2553 972 2059 
L 3022 2063 
z
" id="DejaVuSans-65" transform="scale(0.015625)"/>
        <path d="M 3116 1747 
Q 3116 2381 2855 2742 
Q 2594 3103 2138 3103 
Q 1681 3103 1420 2742 
Q 1159 2381 1159 1747 
Q 1159 1113 1420 752 
Q 1681 391 2138 391 
Q 2594 391 2855 752 
Q 3116 1113 3116 1747 
z
M 1159 2969 
Q 1341 3281 1617 3432 
Q 1894 3584 2278 3584 
Q 2916 3584 3314 3078 
Q 3713 2572 3713 1747 
Q 3713 922 3314 415 
Q 2916 -91 2278 -91 
Q 1894 -91 1617 61 
Q 1341 213 1159 525 
L 1159 0 
L 581 0 
L 581 4863 
L 1159 4863 
L 1159 2969 
z
" id="DejaVuSans-62" transform="scale(0.015625)"/>
       </defs>
       <use xlink:href="#DejaVuSans-46"/>
       <use x="52.019531" xlink:href="#DejaVuSans-65"/>
       <use x="113.542969" xlink:href="#DejaVuSans-62"/>
       <use x="177.019531" xlink:href="#DejaVuSans-72"/>
       <use x="218.132812" xlink:href="#DejaVuSans-75"/>
       <use x="281.511719" xlink:href="#DejaVuSans-61"/>
       <use x="342.791016" xlink:href="#DejaVuSans-72"/>
       <use x="383.904297" xlink:href="#DejaVuSans-79"/>
      </g>
     </g>
    </g>
    <g id="xtick_3">
     <g id="line2d_3">
      <g>
       <use style="stroke:#000000;stroke-width:0.8;" x="360.544186" xlink:href="#m0673ff0fcf" y="768.96"/>
      </g>
     </g>
     <g id="text_3">
      <!-- March -->
      <g transform="translate(345.305124 783.558437)scale(0.1 -0.1)">
       <defs>
        <path d="M 628 4666 
L 1569 4666 
L 2759 1491 
L 3956 4666 
L 4897 4666 
L 4897 0 
L 4281 0 
L 4281 4097 
L 3078 897 
L 2444 897 
L 1241 4097 
L 1241 0 
L 628 0 
L 628 4666 
z
" id="DejaVuSans-4d" transform="scale(0.015625)"/>
        <path d="M 3122 3366 
L 3122 2828 
Q 2878 2963 2633 3030 
Q 2388 3097 2138 3097 
Q 1578 3097 1268 2742 
Q 959 2388 959 1747 
Q 959 1106 1268 751 
Q 1578 397 2138 397 
Q 2388 397 2633 464 
Q 2878 531 3122 666 
L 3122 134 
Q 2881 22 2623 -34 
Q 2366 -91 2075 -91 
Q 1284 -91 818 406 
Q 353 903 353 1747 
Q 353 2603 823 3093 
Q 1294 3584 2113 3584 
Q 2378 3584 2631 3529 
Q 2884 3475 3122 3366 
z
" id="DejaVuSans-63" transform="scale(0.015625)"/>
        <path d="M 3513 2113 
L 3513 0 
L 2938 0 
L 2938 2094 
Q 2938 2591 2744 2837 
Q 2550 3084 2163 3084 
Q 1697 3084 1428 2787 
Q 1159 2491 1159 1978 
L 1159 0 
L 581 0 
L 581 4863 
L 1159 4863 
L 1159 2956 
Q 1366 3272 1645 3428 
Q 1925 3584 2291 3584 
Q 2894 3584 3203 3211 
Q 3513 2838 3513 2113 
z
" id="DejaVuSans-68" transform="scale(0.015625)"/>
       </defs>
       <use xlink:href="#DejaVuSans-4d"/>
       <use x="86.279297" xlink:href="#DejaVuSans-61"/>
       <use x="147.558594" xlink:href="#DejaVuSans-72"/>
       <use x="186.421875" xlink:href="#DejaVuSans-63"/>
       <use x="241.402344" xlink:href="#DejaVuSans-68"/>
      </g>
     </g>
    </g>
    <g id="xtick_4">
     <g id="line2d_4">
      <g>
       <use style="stroke:#000000;stroke-width:0.8;" x="463.987375" xlink:href="#m0673ff0fcf" y="768.96"/>
      </g>
     </g>
     <g id="text_4">
      <!-- April -->
      <g transform="translate(452.55925 783.558437)scale(0.1 -0.1)">
       <defs>
        <path d="M 2188 4044 
L 1331 1722 
L 3047 1722 
L 2188 4044 
z
M 1831 4666 
L 2547 4666 
L 4325 0 
L 3669 0 
L 3244 1197 
L 1141 1197 
L 716 0 
L 50 0 
L 1831 4666 
z
" id="DejaVuSans-41" transform="scale(0.015625)"/>
        <path d="M 1159 525 
L 1159 -1331 
L 581 -1331 
L 581 3500 
L 1159 3500 
L 1159 2969 
Q 1341 3281 1617 3432 
Q 1894 3584 2278 3584 
Q 2916 3584 3314 3078 
Q 3713 2572 3713 1747 
Q 3713 922 3314 415 
Q 2916 -91 2278 -91 
Q 1894 -91 1617 61 
Q 1341 213 1159 525 
z
M 3116 1747 
Q 3116 2381 2855 2742 
Q 2594 3103 2138 3103 
Q 1681 3103 1420 2742 
Q 1159 2381 1159 1747 
Q 1159 1113 1420 752 
Q 1681 391 2138 391 
Q 2594 391 2855 752 
Q 3116 1113 3116 1747 
z
" id="DejaVuSans-70" transform="scale(0.015625)"/>
        <path d="M 603 3500 
L 1178 3500 
L 1178 0 
L 603 0 
L 603 3500 
z
M 603 4863 
L 1178 4863 
L 1178 4134 
L 603 4134 
L 603 4863 
z
" id="DejaVuSans-69" transform="scale(0.015625)"/>
        <path d="M 603 4863 
L 1178 4863 
L 1178 0 
L 603 0 
L 603 4863 
z
" id="DejaVuSans-6c" transform="scale(0.015625)"/>
       </defs>
       <use xlink:href="#DejaVuSans-41"/>
       <use x="68.408203" xlink:href="#DejaVuSans-70"/>
       <use x="131.884766" xlink:href="#DejaVuSans-72"/>
       <use x="172.998047" xlink:href="#DejaVuSans-69"/>
       <use x="200.78125" xlink:href="#DejaVuSans-6c"/>
      </g>
     </g>
    </g>
    <g id="xtick_5">
     <g id="line2d_5">
      <g>
       <use style="stroke:#000000;stroke-width:0.8;" x="564.093688" xlink:href="#m0673ff0fcf" y="768.96"/>
      </g>
     </g>
     <g id="text_5">
      <!-- May -->
      <g transform="translate(553.756188 783.558437)scale(0.1 -0.1)">
       <use xlink:href="#DejaVuSans-4d"/>
       <use x="86.279297" xlink:href="#DejaVuSans-61"/>
       <use x="147.558594" xlink:href="#DejaVuSans-79"/>
      </g>
     </g>
    </g>
    <g id="xtick_6">
     <g id="line2d_6">
      <g>
       <use style="stroke:#000000;stroke-width:0.8;" x="667.536877" xlink:href="#m0673ff0fcf" y="768.96"/>
      </g>
     </g>
     <g id="text_6">
      <!-- June -->
      <g transform="translate(656.647815 783.558437)scale(0.1 -0.1)">
       <use xlink:href="#DejaVuSans-4a"/>
       <use x="29.492188" xlink:href="#DejaVuSans-75"/>
       <use x="92.871094" xlink:href="#DejaVuSans-6e"/>
       <use x="156.25" xlink:href="#DejaVuSans-65"/>
      </g>
     </g>
    </g>
    <g id="xtick_7">
     <g id="line2d_7">
      <g>
       <use style="stroke:#000000;stroke-width:0.8;" x="767.643189" xlink:href="#m0673ff0fcf" y="768.96"/>
      </g>
     </g>
     <g id="text_7">
      <!-- July -->
      <g transform="translate(758.651002 783.558437)scale(0.1 -0.1)">
       <use xlink:href="#DejaVuSans-4a"/>
       <use x="29.492188" xlink:href="#DejaVuSans-75"/>
       <use x="92.871094" xlink:href="#DejaVuSans-6c"/>
       <use x="120.654297" xlink:href="#DejaVuSans-79"/>
      </g>
     </g>
    </g>
    <g id="xtick_8">
     <g id="line2d_8">
      <g>
       <use style="stroke:#000000;stroke-width:0.8;" x="871.086379" xlink:href="#m0673ff0fcf" y="768.96"/>
      </g>
     </g>
     <g id="text_8">
      <!-- August -->
      <g transform="translate(853.589504 783.558437)scale(0.1 -0.1)">
       <defs>
        <path d="M 2906 1791 
Q 2906 2416 2648 2759 
Q 2391 3103 1925 3103 
Q 1463 3103 1205 2759 
Q 947 2416 947 1791 
Q 947 1169 1205 825 
Q 1463 481 1925 481 
Q 2391 481 2648 825 
Q 2906 1169 2906 1791 
z
M 3481 434 
Q 3481 -459 3084 -895 
Q 2688 -1331 1869 -1331 
Q 1566 -1331 1297 -1286 
Q 1028 -1241 775 -1147 
L 775 -588 
Q 1028 -725 1275 -790 
Q 1522 -856 1778 -856 
Q 2344 -856 2625 -561 
Q 2906 -266 2906 331 
L 2906 616 
Q 2728 306 2450 153 
Q 2172 0 1784 0 
Q 1141 0 747 490 
Q 353 981 353 1791 
Q 353 2603 747 3093 
Q 1141 3584 1784 3584 
Q 2172 3584 2450 3431 
Q 2728 3278 2906 2969 
L 2906 3500 
L 3481 3500 
L 3481 434 
z
" id="DejaVuSans-67" transform="scale(0.015625)"/>
        <path d="M 2834 3397 
L 2834 2853 
Q 2591 2978 2328 3040 
Q 2066 3103 1784 3103 
Q 1356 3103 1142 2972 
Q 928 2841 928 2578 
Q 928 2378 1081 2264 
Q 1234 2150 1697 2047 
L 1894 2003 
Q 2506 1872 2764 1633 
Q 3022 1394 3022 966 
Q 3022 478 2636 193 
Q 2250 -91 1575 -91 
Q 1294 -91 989 -36 
Q 684 19 347 128 
L 347 722 
Q 666 556 975 473 
Q 1284 391 1588 391 
Q 1994 391 2212 530 
Q 2431 669 2431 922 
Q 2431 1156 2273 1281 
Q 2116 1406 1581 1522 
L 1381 1569 
Q 847 1681 609 1914 
Q 372 2147 372 2553 
Q 372 3047 722 3315 
Q 1072 3584 1716 3584 
Q 2034 3584 2315 3537 
Q 2597 3491 2834 3397 
z
" id="DejaVuSans-73" transform="scale(0.015625)"/>
        <path d="M 1172 4494 
L 1172 3500 
L 2356 3500 
L 2356 3053 
L 1172 3053 
L 1172 1153 
Q 1172 725 1289 603 
Q 1406 481 1766 481 
L 2356 481 
L 2356 0 
L 1766 0 
Q 1100 0 847 248 
Q 594 497 594 1153 
L 594 3053 
L 172 3053 
L 172 3500 
L 594 3500 
L 594 4494 
L 1172 4494 
z
" id="DejaVuSans-74" transform="scale(0.015625)"/>
       </defs>
       <use xlink:href="#DejaVuSans-41"/>
       <use x="68.408203" xlink:href="#DejaVuSans-75"/>
       <use x="131.787109" xlink:href="#DejaVuSans-67"/>
       <use x="195.263672" xlink:href="#DejaVuSans-75"/>
       <use x="258.642578" xlink:href="#DejaVuSans-73"/>
       <use x="310.742188" xlink:href="#DejaVuSans-74"/>
      </g>
     </g>
    </g>
    <g id="xtick_9">
     <g id="line2d_9">
      <g>
       <use style="stroke:#000000;stroke-width:0.8;" x="974.529568" xlink:href="#m0673ff0fcf" y="768.96"/>
      </g>
     </g>
     <g id="text_9">
      <!-- September -->
      <g transform="translate(946.891287 783.558437)scale(0.1 -0.1)">
       <defs>
        <path d="M 3425 4513 
L 3425 3897 
Q 3066 4069 2747 4153 
Q 2428 4238 2131 4238 
Q 1616 4238 1336 4038 
Q 1056 3838 1056 3469 
Q 1056 3159 1242 3001 
Q 1428 2844 1947 2747 
L 2328 2669 
Q 3034 2534 3370 2195 
Q 3706 1856 3706 1288 
Q 3706 609 3251 259 
Q 2797 -91 1919 -91 
Q 1588 -91 1214 -16 
Q 841 59 441 206 
L 441 856 
Q 825 641 1194 531 
Q 1563 422 1919 422 
Q 2459 422 2753 634 
Q 3047 847 3047 1241 
Q 3047 1584 2836 1778 
Q 2625 1972 2144 2069 
L 1759 2144 
Q 1053 2284 737 2584 
Q 422 2884 422 3419 
Q 422 4038 858 4394 
Q 1294 4750 2059 4750 
Q 2388 4750 2728 4690 
Q 3069 4631 3425 4513 
z
" id="DejaVuSans-53" transform="scale(0.015625)"/>
        <path d="M 3328 2828 
Q 3544 3216 3844 3400 
Q 4144 3584 4550 3584 
Q 5097 3584 5394 3201 
Q 5691 2819 5691 2113 
L 5691 0 
L 5113 0 
L 5113 2094 
Q 5113 2597 4934 2840 
Q 4756 3084 4391 3084 
Q 3944 3084 3684 2787 
Q 3425 2491 3425 1978 
L 3425 0 
L 2847 0 
L 2847 2094 
Q 2847 2600 2669 2842 
Q 2491 3084 2119 3084 
Q 1678 3084 1418 2786 
Q 1159 2488 1159 1978 
L 1159 0 
L 581 0 
L 581 3500 
L 1159 3500 
L 1159 2956 
Q 1356 3278 1631 3431 
Q 1906 3584 2284 3584 
Q 2666 3584 2933 3390 
Q 3200 3197 3328 2828 
z
" id="DejaVuSans-6d" transform="scale(0.015625)"/>
       </defs>
       <use xlink:href="#DejaVuSans-53"/>
       <use x="63.476562" xlink:href="#DejaVuSans-65"/>
       <use x="125" xlink:href="#DejaVuSans-70"/>
       <use x="188.476562" xlink:href="#DejaVuSans-74"/>
       <use x="227.685547" xlink:href="#DejaVuSans-65"/>
       <use x="289.208984" xlink:href="#DejaVuSans-6d"/>
       <use x="386.621094" xlink:href="#DejaVuSans-62"/>
       <use x="450.097656" xlink:href="#DejaVuSans-65"/>
       <use x="511.621094" xlink:href="#DejaVuSans-72"/>
      </g>
     </g>
    </g>
    <g id="xtick_10">
     <g id="line2d_10">
      <g>
       <use style="stroke:#000000;stroke-width:0.8;" x="1074.63588" xlink:href="#m0673ff0fcf" y="768.96"/>
      </g>
     </g>
     <g id="text_10">
      <!-- October -->
      <g transform="translate(1054.624943 783.558437)scale(0.1 -0.1)">
       <defs>
        <path d="M 2522 4238 
Q 1834 4238 1429 3725 
Q 1025 3213 1025 2328 
Q 1025 1447 1429 934 
Q 1834 422 2522 422 
Q 3209 422 3611 934 
Q 4013 1447 4013 2328 
Q 4013 3213 3611 3725 
Q 3209 4238 2522 4238 
z
M 2522 4750 
Q 3503 4750 4090 4092 
Q 4678 3434 4678 2328 
Q 4678 1225 4090 567 
Q 3503 -91 2522 -91 
Q 1538 -91 948 565 
Q 359 1222 359 2328 
Q 359 3434 948 4092 
Q 1538 4750 2522 4750 
z
" id="DejaVuSans-4f" transform="scale(0.015625)"/>
        <path d="M 1959 3097 
Q 1497 3097 1228 2736 
Q 959 2375 959 1747 
Q 959 1119 1226 758 
Q 1494 397 1959 397 
Q 2419 397 2687 759 
Q 2956 1122 2956 1747 
Q 2956 2369 2687 2733 
Q 2419 3097 1959 3097 
z
M 1959 3584 
Q 2709 3584 3137 3096 
Q 3566 2609 3566 1747 
Q 3566 888 3137 398 
Q 2709 -91 1959 -91 
Q 1206 -91 779 398 
Q 353 888 353 1747 
Q 353 2609 779 3096 
Q 1206 3584 1959 3584 
z
" id="DejaVuSans-6f" transform="scale(0.015625)"/>
       </defs>
       <use xlink:href="#DejaVuSans-4f"/>
       <use x="78.710938" xlink:href="#DejaVuSans-63"/>
       <use x="133.691406" xlink:href="#DejaVuSans-74"/>
       <use x="172.900391" xlink:href="#DejaVuSans-6f"/>
       <use x="234.082031" xlink:href="#DejaVuSans-62"/>
       <use x="297.558594" xlink:href="#DejaVuSans-65"/>
       <use x="359.082031" xlink:href="#DejaVuSans-72"/>
      </g>
     </g>
    </g>
   </g>
   <g id="matplotlib.axis_2">
    <g id="ytick_1">
     <g id="line2d_11">
      <defs>
       <path d="M 0 0 
L -3.5 0 
" id="me41c75daec" style="stroke:#000000;stroke-width:0.8;"/>
      </defs>
      <g>
       <use style="stroke:#000000;stroke-width:0.8;" x="162" xlink:href="#me41c75daec" y="768.96"/>
      </g>
     </g>
     <g id="text_11">
      <!-- 0 -->
      <g transform="translate(148.6375 772.759219)scale(0.1 -0.1)">
       <defs>
        <path d="M 2034 4250 
Q 1547 4250 1301 3770 
Q 1056 3291 1056 2328 
Q 1056 1369 1301 889 
Q 1547 409 2034 409 
Q 2525 409 2770 889 
Q 3016 1369 3016 2328 
Q 3016 3291 2770 3770 
Q 2525 4250 2034 4250 
z
M 2034 4750 
Q 2819 4750 3233 4129 
Q 3647 3509 3647 2328 
Q 3647 1150 3233 529 
Q 2819 -91 2034 -91 
Q 1250 -91 836 529 
Q 422 1150 422 2328 
Q 422 3509 836 4129 
Q 1250 4750 2034 4750 
z
" id="DejaVuSans-30" transform="scale(0.015625)"/>
       </defs>
       <use xlink:href="#DejaVuSans-30"/>
      </g>
     </g>
    </g>
    <g id="ytick_2">
     <g id="line2d_12">
      <g>
       <use style="stroke:#000000;stroke-width:0.8;" x="162" xlink:href="#me41c75daec" y="652.383336"/>
      </g>
     </g>
     <g id="text_12">
      <!-- 20000 -->
      <g transform="translate(123.1875 656.182554)scale(0.1 -0.1)">
       <defs>
        <path d="M 1228 531 
L 3431 531 
L 3431 0 
L 469 0 
L 469 531 
Q 828 903 1448 1529 
Q 2069 2156 2228 2338 
Q 2531 2678 2651 2914 
Q 2772 3150 2772 3378 
Q 2772 3750 2511 3984 
Q 2250 4219 1831 4219 
Q 1534 4219 1204 4116 
Q 875 4013 500 3803 
L 500 4441 
Q 881 4594 1212 4672 
Q 1544 4750 1819 4750 
Q 2544 4750 2975 4387 
Q 3406 4025 3406 3419 
Q 3406 3131 3298 2873 
Q 3191 2616 2906 2266 
Q 2828 2175 2409 1742 
Q 1991 1309 1228 531 
z
" id="DejaVuSans-32" transform="scale(0.015625)"/>
       </defs>
       <use xlink:href="#DejaVuSans-32"/>
       <use x="63.623047" xlink:href="#DejaVuSans-30"/>
       <use x="127.246094" xlink:href="#DejaVuSans-30"/>
       <use x="190.869141" xlink:href="#DejaVuSans-30"/>
       <use x="254.492188" xlink:href="#DejaVuSans-30"/>
      </g>
     </g>
    </g>
    <g id="ytick_3">
     <g id="line2d_13">
      <g>
       <use style="stroke:#000000;stroke-width:0.8;" x="162" xlink:href="#me41c75daec" y="535.806671"/>
      </g>
     </g>
     <g id="text_13">
      <!-- 40000 -->
      <g transform="translate(123.1875 539.60589)scale(0.1 -0.1)">
       <defs>
        <path d="M 2419 4116 
L 825 1625 
L 2419 1625 
L 2419 4116 
z
M 2253 4666 
L 3047 4666 
L 3047 1625 
L 3713 1625 
L 3713 1100 
L 3047 1100 
L 3047 0 
L 2419 0 
L 2419 1100 
L 313 1100 
L 313 1709 
L 2253 4666 
z
" id="DejaVuSans-34" transform="scale(0.015625)"/>
       </defs>
       <use xlink:href="#DejaVuSans-34"/>
       <use x="63.623047" xlink:href="#DejaVuSans-30"/>
       <use x="127.246094" xlink:href="#DejaVuSans-30"/>
       <use x="190.869141" xlink:href="#DejaVuSans-30"/>
       <use x="254.492188" xlink:href="#DejaVuSans-30"/>
      </g>
     </g>
    </g>
    <g id="ytick_4">
     <g id="line2d_14">
      <g>
       <use style="stroke:#000000;stroke-width:0.8;" x="162" xlink:href="#me41c75daec" y="419.230007"/>
      </g>
     </g>
     <g id="text_14">
      <!-- 60000 -->
      <g transform="translate(123.1875 423.029225)scale(0.1 -0.1)">
       <defs>
        <path d="M 2113 2584 
Q 1688 2584 1439 2293 
Q 1191 2003 1191 1497 
Q 1191 994 1439 701 
Q 1688 409 2113 409 
Q 2538 409 2786 701 
Q 3034 994 3034 1497 
Q 3034 2003 2786 2293 
Q 2538 2584 2113 2584 
z
M 3366 4563 
L 3366 3988 
Q 3128 4100 2886 4159 
Q 2644 4219 2406 4219 
Q 1781 4219 1451 3797 
Q 1122 3375 1075 2522 
Q 1259 2794 1537 2939 
Q 1816 3084 2150 3084 
Q 2853 3084 3261 2657 
Q 3669 2231 3669 1497 
Q 3669 778 3244 343 
Q 2819 -91 2113 -91 
Q 1303 -91 875 529 
Q 447 1150 447 2328 
Q 447 3434 972 4092 
Q 1497 4750 2381 4750 
Q 2619 4750 2861 4703 
Q 3103 4656 3366 4563 
z
" id="DejaVuSans-36" transform="scale(0.015625)"/>
       </defs>
       <use xlink:href="#DejaVuSans-36"/>
       <use x="63.623047" xlink:href="#DejaVuSans-30"/>
       <use x="127.246094" xlink:href="#DejaVuSans-30"/>
       <use x="190.869141" xlink:href="#DejaVuSans-30"/>
       <use x="254.492188" xlink:href="#DejaVuSans-30"/>
      </g>
     </g>
    </g>
    <g id="ytick_5">
     <g id="line2d_15">
      <g>
       <use style="stroke:#000000;stroke-width:0.8;" x="162" xlink:href="#me41c75daec" y="302.653342"/>
      </g>
     </g>
     <g id="text_15">
      <!-- 80000 -->
      <g transform="translate(123.1875 306.452561)scale(0.1 -0.1)">
       <defs>
        <path d="M 2034 2216 
Q 1584 2216 1326 1975 
Q 1069 1734 1069 1313 
Q 1069 891 1326 650 
Q 1584 409 2034 409 
Q 2484 409 2743 651 
Q 3003 894 3003 1313 
Q 3003 1734 2745 1975 
Q 2488 2216 2034 2216 
z
M 1403 2484 
Q 997 2584 770 2862 
Q 544 3141 544 3541 
Q 544 4100 942 4425 
Q 1341 4750 2034 4750 
Q 2731 4750 3128 4425 
Q 3525 4100 3525 3541 
Q 3525 3141 3298 2862 
Q 3072 2584 2669 2484 
Q 3125 2378 3379 2068 
Q 3634 1759 3634 1313 
Q 3634 634 3220 271 
Q 2806 -91 2034 -91 
Q 1263 -91 848 271 
Q 434 634 434 1313 
Q 434 1759 690 2068 
Q 947 2378 1403 2484 
z
M 1172 3481 
Q 1172 3119 1398 2916 
Q 1625 2713 2034 2713 
Q 2441 2713 2670 2916 
Q 2900 3119 2900 3481 
Q 2900 3844 2670 4047 
Q 2441 4250 2034 4250 
Q 1625 4250 1398 4047 
Q 1172 3844 1172 3481 
z
" id="DejaVuSans-38" transform="scale(0.015625)"/>
       </defs>
       <use xlink:href="#DejaVuSans-38"/>
       <use x="63.623047" xlink:href="#DejaVuSans-30"/>
       <use x="127.246094" xlink:href="#DejaVuSans-30"/>
       <use x="190.869141" xlink:href="#DejaVuSans-30"/>
       <use x="254.492188" xlink:href="#DejaVuSans-30"/>
      </g>
     </g>
    </g>
    <g id="ytick_6">
     <g id="line2d_16">
      <g>
       <use style="stroke:#000000;stroke-width:0.8;" x="162" xlink:href="#me41c75daec" y="186.076678"/>
      </g>
     </g>
     <g id="text_16">
      <!-- 100000 -->
      <g transform="translate(116.825 189.875897)scale(0.1 -0.1)">
       <defs>
        <path d="M 794 531 
L 1825 531 
L 1825 4091 
L 703 3866 
L 703 4441 
L 1819 4666 
L 2450 4666 
L 2450 531 
L 3481 531 
L 3481 0 
L 794 0 
L 794 531 
z
" id="DejaVuSans-31" transform="scale(0.015625)"/>
       </defs>
       <use xlink:href="#DejaVuSans-31"/>
       <use x="63.623047" xlink:href="#DejaVuSans-30"/>
       <use x="127.246094" xlink:href="#DejaVuSans-30"/>
       <use x="190.869141" xlink:href="#DejaVuSans-30"/>
       <use x="254.492188" xlink:href="#DejaVuSans-30"/>
       <use x="318.115234" xlink:href="#DejaVuSans-30"/>
      </g>
     </g>
    </g>
    <g id="text_17">
     <!-- Persons fully vaccinated -->
     <g transform="translate(110.745312 496.922344)rotate(-90)scale(0.1 -0.1)">
      <defs>
       <path d="M 1259 4147 
L 1259 2394 
L 2053 2394 
Q 2494 2394 2734 2622 
Q 2975 2850 2975 3272 
Q 2975 3691 2734 3919 
Q 2494 4147 2053 4147 
L 1259 4147 
z
M 628 4666 
L 2053 4666 
Q 2838 4666 3239 4311 
Q 3641 3956 3641 3272 
Q 3641 2581 3239 2228 
Q 2838 1875 2053 1875 
L 1259 1875 
L 1259 0 
L 628 0 
L 628 4666 
z
" id="DejaVuSans-50" transform="scale(0.015625)"/>
       <path id="DejaVuSans-20" transform="scale(0.015625)"/>
       <path d="M 2375 4863 
L 2375 4384 
L 1825 4384 
Q 1516 4384 1395 4259 
Q 1275 4134 1275 3809 
L 1275 3500 
L 2222 3500 
L 2222 3053 
L 1275 3053 
L 1275 0 
L 697 0 
L 697 3053 
L 147 3053 
L 147 3500 
L 697 3500 
L 697 3744 
Q 697 4328 969 4595 
Q 1241 4863 1831 4863 
L 2375 4863 
z
" id="DejaVuSans-66" transform="scale(0.015625)"/>
       <path d="M 191 3500 
L 800 3500 
L 1894 563 
L 2988 3500 
L 3597 3500 
L 2284 0 
L 1503 0 
L 191 3500 
z
" id="DejaVuSans-76" transform="scale(0.015625)"/>
       <path d="M 2906 2969 
L 2906 4863 
L 3481 4863 
L 3481 0 
L 2906 0 
L 2906 525 
Q 2725 213 2448 61 
Q 2172 -91 1784 -91 
Q 1150 -91 751 415 
Q 353 922 353 1747 
Q 353 2572 751 3078 
Q 1150 3584 1784 3584 
Q 2172 3584 2448 3432 
Q 2725 3281 2906 2969 
z
M 947 1747 
Q 947 1113 1208 752 
Q 1469 391 1925 391 
Q 2381 391 2643 752 
Q 2906 1113 2906 1747 
Q 2906 2381 2643 2742 
Q 2381 3103 1925 3103 
Q 1469 3103 1208 2742 
Q 947 2381 947 1747 
z
" id="DejaVuSans-64" transform="scale(0.015625)"/>
      </defs>
      <use xlink:href="#DejaVuSans-50"/>
      <use x="56.677734" xlink:href="#DejaVuSans-65"/>
      <use x="118.201172" xlink:href="#DejaVuSans-72"/>
      <use x="159.314453" xlink:href="#DejaVuSans-73"/>
      <use x="211.414062" xlink:href="#DejaVuSans-6f"/>
      <use x="272.595703" xlink:href="#DejaVuSans-6e"/>
      <use x="335.974609" xlink:href="#DejaVuSans-73"/>
      <use x="388.074219" xlink:href="#DejaVuSans-20"/>
      <use x="419.861328" xlink:href="#DejaVuSans-66"/>
      <use x="455.066406" xlink:href="#DejaVuSans-75"/>
      <use x="518.445312" xlink:href="#DejaVuSans-6c"/>
      <use x="546.228516" xlink:href="#DejaVuSans-6c"/>
      <use x="574.011719" xlink:href="#DejaVuSans-79"/>
      <use x="633.191406" xlink:href="#DejaVuSans-20"/>
      <use x="664.978516" xlink:href="#DejaVuSans-76"/>
      <use x="724.158203" xlink:href="#DejaVuSans-61"/>
      <use x="785.4375" xlink:href="#DejaVuSans-63"/>
      <use x="840.417969" xlink:href="#DejaVuSans-63"/>
      <use x="895.398438" xlink:href="#DejaVuSans-69"/>
      <use x="923.181641" xlink:href="#DejaVuSans-6e"/>
      <use x="986.560547" xlink:href="#DejaVuSans-61"/>
      <use x="1047.839844" xlink:href="#DejaVuSans-74"/>
      <use x="1087.048828" xlink:href="#DejaVuSans-65"/>
      <use x="1148.572266" xlink:href="#DejaVuSans-64"/>
     </g>
    </g>
   </g>
   <g id="line2d_17">
    <path clip-path="url(#p2c7122964b)" d="M 220.395349 743.69867 
L 223.732226 743.474676 
L 227.069103 744.741198 
L 230.40598 741.221415 
L 233.742857 740.333767 
L 237.079734 738.216236 
L 240.416611 733.779661 
L 243.753488 725.740034 
L 247.090365 717.122521 
L 250.427243 710.721629 
L 253.76412 703.99349 
L 257.100997 699.381218 
L 260.437874 698.331195 
L 263.774751 698.379491 
L 267.111628 695.875591 
L 270.448505 701.015789 
L 273.785382 700.815111 
L 277.122259 701.36885 
L 280.459136 698.167155 
L 283.796013 698.532706 
L 287.13289 694.384242 
L 290.469767 695.102022 
L 293.806645 689.274854 
L 297.143522 679.483247 
L 300.480399 670.392765 
L 303.817276 667.408402 
L 307.154153 663.812845 
L 310.49103 667.908017 
L 313.827907 668.833968 
L 317.164784 664.026846 
L 320.501661 660.130688 
L 323.838538 654.132818 
L 327.175415 662.856083 
L 330.512292 650.194192 
L 333.849169 641.764867 
L 337.186047 631.926629 
L 340.522924 609.628011 
L 343.859801 593.020833 
L 347.196678 580.68952 
L 350.533555 550.647713 
L 353.870432 553.788622 
L 357.207309 544.440006 
L 360.544186 534.352794 
L 363.881063 540.13916 
L 367.21794 528.808741 
L 370.554817 514.58722 
L 373.891694 508.984046 
L 377.228571 512.936828 
L 380.565449 503.140224 
L 383.902326 491.799813 
L 387.239203 481.48028 
L 390.57608 484.973417 
L 393.912957 478.341037 
L 397.249834 479.588407 
L 400.586711 453.485227 
L 403.923588 453.809143 
L 407.260465 459.756219 
L 410.597342 474.220052 
L 413.934219 487.496469 
L 417.271096 506.855689 
L 420.607973 520.456023 
L 423.94485 545.53083 
L 430.618605 569.808753 
L 433.955482 576.327054 
L 437.292359 580.523814 
L 440.629236 577.506977 
L 443.966113 564.19642 
L 450.639867 560.952258 
L 453.976744 545.053699 
L 457.313621 536.473656 
L 460.650498 521.58182 
L 463.987375 514.608037 
L 467.324252 513.522209 
L 470.66113 517.806401 
L 473.998007 504.19108 
L 477.334884 489.365026 
L 484.008638 436.105312 
L 487.345515 395.95048 
L 490.682392 373.927482 
L 494.019269 355.532517 
L 497.356146 342.403487 
L 500.693023 337.456473 
L 504.0299 346.999938 
L 507.366777 350.256591 
L 510.703654 369.128687 
L 514.040532 380.038598 
L 517.377409 380.11687 
L 520.714286 388.728555 
L 524.051163 383.287756 
L 527.38804 377.05257 
L 530.724917 387.317145 
L 534.061794 401.130647 
L 537.398671 413.153032 
L 540.735548 426.514383 
L 544.072425 432.070926 
L 547.409302 447.799616 
L 550.746179 453.649267 
L 554.083056 464.117851 
L 557.419934 477.067021 
L 560.756811 494.989017 
L 564.093688 504.309322 
L 567.430565 518.011243 
L 570.767442 511.410506 
L 574.104319 508.22713 
L 577.441196 517.429193 
L 580.778073 498.701152 
L 584.11495 476.050306 
L 587.451827 444.189071 
L 590.788704 432.146701 
L 594.125581 446.329085 
L 597.462458 463.266842 
L 600.799336 464.347674 
L 604.136213 468.098944 
L 607.47309 477.662394 
L 610.809967 502.555676 
L 614.146844 513.613805 
L 617.483721 514.384876 
L 620.820598 515.790458 
L 624.157475 502.260071 
L 627.494352 526.56464 
L 630.831229 531.50749 
L 634.168106 531.850559 
L 637.504983 533.49762 
L 640.84186 550.369595 
L 644.178738 562.347847 
L 647.515615 589.365322 
L 650.852492 598.829681 
L 654.189369 609.54724 
L 657.526246 612.646514 
L 660.863123 626.957132 
L 664.2 637.570605 
L 667.536877 647.457139 
L 670.873754 648.6304 
L 674.210631 644.431142 
L 680.884385 625.981219 
L 684.221262 606.606178 
L 687.55814 593.706137 
L 690.895017 576.894949 
L 694.231894 580.588764 
L 697.568771 588.961467 
L 700.905648 602.572625 
L 704.242525 608.468906 
L 707.579402 594.543824 
L 710.916279 593.039985 
L 714.253156 605.805962 
L 717.590033 601.855678 
L 720.92691 610.734657 
L 724.263787 603.909093 
L 727.600664 608.599638 
L 730.937542 638.577328 
L 734.274419 655.77988 
L 737.611296 660.74105 
L 740.948173 668.814816 
L 747.621927 611.061071 
L 750.958804 615.342766 
L 754.295681 615.070476 
L 757.632558 614.576691 
L 760.969435 617.331231 
L 764.306312 624.760495 
L 767.643189 655.420158 
L 770.980066 695.579153 
L 774.316944 695.793987 
L 777.653821 705.947815 
L 780.990698 712.619331 
L 784.327575 713.638544 
L 787.664452 713.311297 
L 791.001329 714.437094 
L 794.338206 714.262229 
L 797.675083 712.392006 
L 801.01196 701.865966 
L 804.348837 699.273801 
L 811.022591 705.350776 
L 814.359468 706.885424 
L 817.696346 708.284344 
L 821.033223 709.259425 
L 824.3701 712.989878 
L 827.706977 712.27543 
L 831.043854 711.801629 
L 837.717608 715.811033 
L 841.054485 718.921132 
L 844.391362 721.457507 
L 847.728239 724.772448 
L 851.065116 725.272062 
L 854.401993 718.63885 
L 857.73887 717.11919 
L 861.075748 706.021924 
L 864.412625 703.774493 
L 871.086379 698.874109 
L 874.423256 699.363731 
L 877.760133 707.031145 
L 881.09701 706.730544 
L 884.433887 715.597865 
L 887.770764 707.509942 
L 891.107641 706.718053 
L 894.444518 706.932055 
L 897.781395 709.803172 
L 901.118272 695.990502 
L 904.45515 685.108903 
L 911.128904 668.337685 
L 914.465781 658.265461 
L 917.802658 657.056394 
L 921.139535 652.350028 
L 924.476412 664.22003 
L 927.813289 673.98749 
L 931.150166 682.174502 
L 934.487043 695.545846 
L 937.82392 704.926104 
L 941.160797 704.784546 
L 944.497674 704.846165 
L 947.834551 704.767892 
L 951.171429 703.57881 
L 954.508306 700.632752 
L 957.845183 692.260049 
L 961.18206 669.455988 
L 964.518937 663.729576 
L 967.855814 663.827001 
L 971.192691 664.175065 
L 974.529568 665.894571 
L 977.866445 668.95221 
L 981.203322 678.245869 
L 984.540199 701.474602 
L 987.877076 710.814891 
L 991.213953 716.39808 
L 994.550831 715.947595 
L 997.887708 716.000887 
L 1004.561462 717.249922 
L 1007.898339 717.248257 
L 1011.235216 714.789322 
L 1014.572093 710.980596 
L 1017.90897 712.948244 
L 1021.245847 713.542784 
L 1024.582724 713.411219 
L 1027.919601 712.715923 
L 1031.256478 712.332053 
L 1034.593355 713.118945 
L 1037.930233 712.053934 
L 1041.26711 713.286316 
L 1044.603987 711.292855 
L 1047.940864 710.047983 
L 1051.277741 710.655014 
L 1054.614618 711.700041 
L 1057.951495 710.914813 
L 1061.288372 713.103957 
L 1064.625249 714.711049 
L 1067.962126 721.367577 
L 1071.299003 721.760607 
L 1074.63588 717.169984 
L 1077.972757 718.076784 
L 1081.309635 716.493839 
L 1084.646512 719.674717 
L 1087.983389 715.718605 
L 1091.320266 713.053163 
L 1094.657143 716.371434 
L 1097.99402 724.579264 
L 1101.330897 725.719217 
L 1104.667774 729.507959 
L 1108.004651 727.526155 
L 1111.341528 729.918475 
L 1114.678405 731.259939 
L 1118.015282 728.95422 
L 1121.352159 728.259756 
L 1124.689037 728.47459 
L 1128.025914 728.019941 
L 1131.362791 728.944227 
L 1134.699668 730.251551 
L 1138.036545 728.815993 
L 1141.373422 731.309901 
L 1144.710299 731.01263 
L 1148.047176 729.577072 
L 1151.384053 728.42213 
L 1154.72093 724.705 
L 1158.057807 722.596628 
L 1161.394684 721.502473 
L 1161.394684 721.502473 
" style="fill:none;stroke:#ffa500;stroke-linecap:square;stroke-width:1.5;"/>
   </g>
   <g id="patch_304">
    <path d="M 162 768.96 
L 162 103.68 
" style="fill:none;stroke:#000000;stroke-linecap:square;stroke-linejoin:miter;stroke-width:0.8;"/>
   </g>
   <g id="patch_305">
    <path d="M 1166.4 768.96 
L 1166.4 103.68 
" style="fill:none;stroke:#000000;stroke-linecap:square;stroke-linejoin:miter;stroke-width:0.8;"/>
   </g>
   <g id="patch_306">
    <path d="M 162 768.96 
L 1166.4 768.96 
" style="fill:none;stroke:#000000;stroke-linecap:square;stroke-linejoin:miter;stroke-width:0.8;"/>
   </g>
   <g id="patch_307">
    <path d="M 162 103.68 
L 1166.4 103.68 
" style="fill:none;stroke:#000000;stroke-linecap:square;stroke-linejoin:miter;stroke-width:0.8;"/>
   </g>
   <g id="text_18">
    <!-- Persons Fully Vaccinated -->
    <g transform="translate(590.380313 97.68)scale(0.12 -0.12)">
     <defs>
      <path d="M 1831 0 
L 50 4666 
L 709 4666 
L 2188 738 
L 3669 4666 
L 4325 4666 
L 2547 0 
L 1831 0 
z
" id="DejaVuSans-56" transform="scale(0.015625)"/>
     </defs>
     <use xlink:href="#DejaVuSans-50"/>
     <use x="56.677734" xlink:href="#DejaVuSans-65"/>
     <use x="118.201172" xlink:href="#DejaVuSans-72"/>
     <use x="159.314453" xlink:href="#DejaVuSans-73"/>
     <use x="211.414062" xlink:href="#DejaVuSans-6f"/>
     <use x="272.595703" xlink:href="#DejaVuSans-6e"/>
     <use x="335.974609" xlink:href="#DejaVuSans-73"/>
     <use x="388.074219" xlink:href="#DejaVuSans-20"/>
     <use x="419.861328" xlink:href="#DejaVuSans-46"/>
     <use x="471.880859" xlink:href="#DejaVuSans-75"/>
     <use x="535.259766" xlink:href="#DejaVuSans-6c"/>
     <use x="563.042969" xlink:href="#DejaVuSans-6c"/>
     <use x="590.826172" xlink:href="#DejaVuSans-79"/>
     <use x="650.005859" xlink:href="#DejaVuSans-20"/>
     <use x="681.792969" xlink:href="#DejaVuSans-56"/>
     <use x="742.451172" xlink:href="#DejaVuSans-61"/>
     <use x="803.730469" xlink:href="#DejaVuSans-63"/>
     <use x="858.710938" xlink:href="#DejaVuSans-63"/>
     <use x="913.691406" xlink:href="#DejaVuSans-69"/>
     <use x="941.474609" xlink:href="#DejaVuSans-6e"/>
     <use x="1004.853516" xlink:href="#DejaVuSans-61"/>
     <use x="1066.132812" xlink:href="#DejaVuSans-74"/>
     <use x="1105.341797" xlink:href="#DejaVuSans-65"/>
     <use x="1166.865234" xlink:href="#DejaVuSans-64"/>
    </g>
   </g>
  </g>
 </g>
 <defs>
  <clipPath id="p2c7122964b">
   <rect height="665.28" width="1004.4" x="162" y="103.68"/>
  </clipPath>
 </defs>
</svg>
