<?xml version="1.0" encoding="utf-8" standalone="no"?>
<!DOCTYPE svg PUBLIC "-//W3C//DTD SVG 1.1//EN"
  "http://www.w3.org/Graphics/SVG/1.1/DTD/svg11.dtd">
<svg height="864pt" version="1.1" viewBox="0 0 1296 864" width="1296pt" xmlns="http://www.w3.org/2000/svg" xmlns:xlink="http://www.w3.org/1999/xlink">
 <metadata>
  <rdf:RDF xmlns:cc="http://creativecommons.org/ns#" xmlns:dc="http://purl.org/dc/elements/1.1/" xmlns:rdf="http://www.w3.org/1999/02/22-rdf-syntax-ns#">
   <cc:Work>
    <dc:type rdf:resource="http://purl.org/dc/dcmitype/StillImage"/>
    <dc:date>2021-10-27T04:24:18.687856</dc:date>
    <dc:format>image/svg+xml</dc:format>
    <dc:creator>
     <cc:Agent>
      <dc:title>Matplotlib v3.4.2, https://matplotlib.org/</dc:title>
     </cc:Agent>
    </dc:creator>
   </cc:Work>
  </rdf:RDF>
 </metadata>
 <defs>
  <style type="text/css">*{stroke-linecap:butt;stroke-linejoin:round;}</style>
 </defs>
 <g id="figure_1">
  <g id="patch_1">
   <path d="M 0 864 
L 1296 864 
L 1296 0 
L 0 0 
z
" style="fill:#ffffff;"/>
  </g>
  <g id="axes_1">
   <g id="patch_2">
    <path d="M 162 768.96 
L 1166.4 768.96 
L 1166.4 103.68 
L 162 103.68 
z
" style="fill:#ffffff;"/>
   </g>
   <g id="patch_3">
    <path clip-path="url(#p4d3505b262)" d="M 162.842617 768.96 
L 164.527852 768.96 
L 164.527852 768.948342 
L 162.842617 768.948342 
z
" style="fill:#1f77b4;"/>
   </g>
   <g id="patch_4">
    <path clip-path="url(#p4d3505b262)" d="M 166.213087 768.96 
L 167.898322 768.96 
L 167.898322 768.96 
L 166.213087 768.96 
z
" style="fill:#1f77b4;"/>
   </g>
   <g id="patch_5">
    <path clip-path="url(#p4d3505b262)" d="M 169.583557 768.96 
L 171.268792 768.96 
L 171.268792 768.96 
L 169.583557 768.96 
z
" style="fill:#1f77b4;"/>
   </g>
   <g id="patch_6">
    <path clip-path="url(#p4d3505b262)" d="M 172.954027 768.96 
L 174.639262 768.96 
L 174.639262 768.219738 
L 172.954027 768.219738 
z
" style="fill:#1f77b4;"/>
   </g>
   <g id="patch_7">
    <path clip-path="url(#p4d3505b262)" d="M 176.324497 768.96 
L 178.009732 768.96 
L 178.009732 766.949053 
L 176.324497 766.949053 
z
" style="fill:#1f77b4;"/>
   </g>
   <g id="patch_8">
    <path clip-path="url(#p4d3505b262)" d="M 179.694966 768.96 
L 181.380201 768.96 
L 181.380201 754.889197 
L 179.694966 754.889197 
z
" style="fill:#1f77b4;"/>
   </g>
   <g id="patch_9">
    <path clip-path="url(#p4d3505b262)" d="M 183.065436 768.96 
L 184.750671 768.96 
L 184.750671 667.759798 
L 183.065436 667.759798 
z
" style="fill:#1f77b4;"/>
   </g>
   <g id="patch_10">
    <path clip-path="url(#p4d3505b262)" d="M 186.435906 768.96 
L 188.121141 768.96 
L 188.121141 646.851773 
L 186.435906 646.851773 
z
" style="fill:#1f77b4;"/>
   </g>
   <g id="patch_11">
    <path clip-path="url(#p4d3505b262)" d="M 189.806376 768.96 
L 191.491611 768.96 
L 191.491611 702.231517 
L 189.806376 702.231517 
z
" style="fill:#1f77b4;"/>
   </g>
   <g id="patch_12">
    <path clip-path="url(#p4d3505b262)" d="M 193.176846 768.96 
L 194.862081 768.96 
L 194.862081 728.560357 
L 193.176846 728.560357 
z
" style="fill:#1f77b4;"/>
   </g>
   <g id="patch_13">
    <path clip-path="url(#p4d3505b262)" d="M 196.547315 768.96 
L 198.23255 768.96 
L 198.23255 705.728817 
L 196.547315 705.728817 
z
" style="fill:#1f77b4;"/>
   </g>
   <g id="patch_14">
    <path clip-path="url(#p4d3505b262)" d="M 199.917785 768.96 
L 201.60302 768.96 
L 201.60302 708.806441 
L 199.917785 708.806441 
z
" style="fill:#1f77b4;"/>
   </g>
   <g id="patch_15">
    <path clip-path="url(#p4d3505b262)" d="M 203.288255 768.96 
L 204.97349 768.96 
L 204.97349 719.741332 
L 203.288255 719.741332 
z
" style="fill:#1f77b4;"/>
   </g>
   <g id="patch_16">
    <path clip-path="url(#p4d3505b262)" d="M 206.658725 768.96 
L 208.34396 768.96 
L 208.34396 708.870558 
L 206.658725 708.870558 
z
" style="fill:#1f77b4;"/>
   </g>
   <g id="patch_17">
    <path clip-path="url(#p4d3505b262)" d="M 210.029195 768.96 
L 211.71443 768.96 
L 211.71443 756.637847 
L 210.029195 756.637847 
z
" style="fill:#1f77b4;"/>
   </g>
   <g id="patch_18">
    <path clip-path="url(#p4d3505b262)" d="M 213.399664 768.96 
L 215.084899 768.96 
L 215.084899 761.324228 
L 213.399664 761.324228 
z
" style="fill:#1f77b4;"/>
   </g>
   <g id="patch_19">
    <path clip-path="url(#p4d3505b262)" d="M 216.770134 768.96 
L 218.455369 768.96 
L 218.455369 765.328637 
L 216.770134 765.328637 
z
" style="fill:#1f77b4;"/>
   </g>
   <g id="patch_20">
    <path clip-path="url(#p4d3505b262)" d="M 220.140604 768.96 
L 221.825839 768.96 
L 221.825839 752.248735 
L 220.140604 752.248735 
z
" style="fill:#1f77b4;"/>
   </g>
   <g id="patch_21">
    <path clip-path="url(#p4d3505b262)" d="M 223.511074 768.96 
L 225.196309 768.96 
L 225.196309 741.739349 
L 223.511074 741.739349 
z
" style="fill:#1f77b4;"/>
   </g>
   <g id="patch_22">
    <path clip-path="url(#p4d3505b262)" d="M 226.881544 768.96 
L 228.566779 768.96 
L 228.566779 718.173376 
L 226.881544 718.173376 
z
" style="fill:#1f77b4;"/>
   </g>
   <g id="patch_23">
    <path clip-path="url(#p4d3505b262)" d="M 230.252013 768.96 
L 231.937248 768.96 
L 231.937248 717.736214 
L 230.252013 717.736214 
z
" style="fill:#1f77b4;"/>
   </g>
   <g id="patch_24">
    <path clip-path="url(#p4d3505b262)" d="M 233.622483 768.96 
L 235.307718 768.96 
L 235.307718 731.999369 
L 233.622483 731.999369 
z
" style="fill:#1f77b4;"/>
   </g>
   <g id="patch_25">
    <path clip-path="url(#p4d3505b262)" d="M 236.992953 768.96 
L 238.678188 768.96 
L 238.678188 755.110692 
L 236.992953 755.110692 
z
" style="fill:#1f77b4;"/>
   </g>
   <g id="patch_26">
    <path clip-path="url(#p4d3505b262)" d="M 240.363423 768.96 
L 242.048658 768.96 
L 242.048658 750.505914 
L 240.363423 750.505914 
z
" style="fill:#1f77b4;"/>
   </g>
   <g id="patch_27">
    <path clip-path="url(#p4d3505b262)" d="M 243.733893 768.96 
L 245.419128 768.96 
L 245.419128 721.192712 
L 243.733893 721.192712 
z
" style="fill:#1f77b4;"/>
   </g>
   <g id="patch_28">
    <path clip-path="url(#p4d3505b262)" d="M 247.104362 768.96 
L 248.789597 768.96 
L 248.789597 685.461964 
L 247.104362 685.461964 
z
" style="fill:#1f77b4;"/>
   </g>
   <g id="patch_29">
    <path clip-path="url(#p4d3505b262)" d="M 250.474832 768.96 
L 252.160067 768.96 
L 252.160067 657.850781 
L 250.474832 657.850781 
z
" style="fill:#1f77b4;"/>
   </g>
   <g id="patch_30">
    <path clip-path="url(#p4d3505b262)" d="M 253.845302 768.96 
L 255.530537 768.96 
L 255.530537 672.929973 
L 253.845302 672.929973 
z
" style="fill:#1f77b4;"/>
   </g>
   <g id="patch_31">
    <path clip-path="url(#p4d3505b262)" d="M 257.215772 768.96 
L 258.901007 768.96 
L 258.901007 684.902396 
L 257.215772 684.902396 
z
" style="fill:#1f77b4;"/>
   </g>
   <g id="patch_32">
    <path clip-path="url(#p4d3505b262)" d="M 260.586242 768.96 
L 262.271477 768.96 
L 262.271477 722.824785 
L 260.586242 722.824785 
z
" style="fill:#1f77b4;"/>
   </g>
   <g id="patch_33">
    <path clip-path="url(#p4d3505b262)" d="M 263.956711 768.96 
L 265.641946 768.96 
L 265.641946 743.155755 
L 263.956711 743.155755 
z
" style="fill:#1f77b4;"/>
   </g>
   <g id="patch_34">
    <path clip-path="url(#p4d3505b262)" d="M 267.327181 768.96 
L 269.012416 768.96 
L 269.012416 721.530784 
L 267.327181 721.530784 
z
" style="fill:#1f77b4;"/>
   </g>
   <g id="patch_35">
    <path clip-path="url(#p4d3505b262)" d="M 270.697651 768.96 
L 272.382886 768.96 
L 272.382886 667.934663 
L 270.697651 667.934663 
z
" style="fill:#1f77b4;"/>
   </g>
   <g id="patch_36">
    <path clip-path="url(#p4d3505b262)" d="M 274.068121 768.96 
L 275.753356 768.96 
L 275.753356 693.832169 
L 274.068121 693.832169 
z
" style="fill:#1f77b4;"/>
   </g>
   <g id="patch_37">
    <path clip-path="url(#p4d3505b262)" d="M 277.438591 768.96 
L 279.123826 768.96 
L 279.123826 671.525224 
L 277.438591 671.525224 
z
" style="fill:#1f77b4;"/>
   </g>
   <g id="patch_38">
    <path clip-path="url(#p4d3505b262)" d="M 280.80906 768.96 
L 282.494295 768.96 
L 282.494295 688.77857 
L 280.80906 688.77857 
z
" style="fill:#1f77b4;"/>
   </g>
   <g id="patch_39">
    <path clip-path="url(#p4d3505b262)" d="M 284.17953 768.96 
L 285.864765 768.96 
L 285.864765 700.412921 
L 284.17953 700.412921 
z
" style="fill:#1f77b4;"/>
   </g>
   <g id="patch_40">
    <path clip-path="url(#p4d3505b262)" d="M 287.55 768.96 
L 289.235235 768.96 
L 289.235235 745.714613 
L 287.55 745.714613 
z
" style="fill:#1f77b4;"/>
   </g>
   <g id="patch_41">
    <path clip-path="url(#p4d3505b262)" d="M 290.92047 768.96 
L 292.605705 768.96 
L 292.605705 692.491537 
L 290.92047 692.491537 
z
" style="fill:#1f77b4;"/>
   </g>
   <g id="patch_42">
    <path clip-path="url(#p4d3505b262)" d="M 294.29094 768.96 
L 295.976174 768.96 
L 295.976174 672.959117 
L 294.29094 672.959117 
z
" style="fill:#1f77b4;"/>
   </g>
   <g id="patch_43">
    <path clip-path="url(#p4d3505b262)" d="M 297.661409 768.96 
L 299.346644 768.96 
L 299.346644 653.041994 
L 297.661409 653.041994 
z
" style="fill:#1f77b4;"/>
   </g>
   <g id="patch_44">
    <path clip-path="url(#p4d3505b262)" d="M 301.031879 768.96 
L 302.717114 768.96 
L 302.717114 602.983974 
L 301.031879 602.983974 
z
" style="fill:#1f77b4;"/>
   </g>
   <g id="patch_45">
    <path clip-path="url(#p4d3505b262)" d="M 304.402349 768.96 
L 306.087584 768.96 
L 306.087584 625.145198 
L 304.402349 625.145198 
z
" style="fill:#1f77b4;"/>
   </g>
   <g id="patch_46">
    <path clip-path="url(#p4d3505b262)" d="M 307.772819 768.96 
L 309.458054 768.96 
L 309.458054 679.522383 
L 307.772819 679.522383 
z
" style="fill:#1f77b4;"/>
   </g>
   <g id="patch_47">
    <path clip-path="url(#p4d3505b262)" d="M 311.143289 768.96 
L 312.828523 768.96 
L 312.828523 720.545711 
L 311.143289 720.545711 
z
" style="fill:#1f77b4;"/>
   </g>
   <g id="patch_48">
    <path clip-path="url(#p4d3505b262)" d="M 314.513758 768.96 
L 316.198993 768.96 
L 316.198993 721.157739 
L 314.513758 721.157739 
z
" style="fill:#1f77b4;"/>
   </g>
   <g id="patch_49">
    <path clip-path="url(#p4d3505b262)" d="M 317.884228 768.96 
L 319.569463 768.96 
L 319.569463 679.440779 
L 317.884228 679.440779 
z
" style="fill:#1f77b4;"/>
   </g>
   <g id="patch_50">
    <path clip-path="url(#p4d3505b262)" d="M 321.254698 768.96 
L 322.939933 768.96 
L 322.939933 619.39214 
L 321.254698 619.39214 
z
" style="fill:#1f77b4;"/>
   </g>
   <g id="patch_51">
    <path clip-path="url(#p4d3505b262)" d="M 324.625168 768.96 
L 326.310403 768.96 
L 326.310403 575.710863 
L 324.625168 575.710863 
z
" style="fill:#1f77b4;"/>
   </g>
   <g id="patch_52">
    <path clip-path="url(#p4d3505b262)" d="M 327.995638 768.96 
L 329.680872 768.96 
L 329.680872 583.160112 
L 327.995638 583.160112 
z
" style="fill:#1f77b4;"/>
   </g>
   <g id="patch_53">
    <path clip-path="url(#p4d3505b262)" d="M 331.366107 768.96 
L 333.051342 768.96 
L 333.051342 740.58524 
L 331.366107 740.58524 
z
" style="fill:#1f77b4;"/>
   </g>
   <g id="patch_54">
    <path clip-path="url(#p4d3505b262)" d="M 334.736577 768.96 
L 336.421812 768.96 
L 336.421812 631.912473 
L 334.736577 631.912473 
z
" style="fill:#1f77b4;"/>
   </g>
   <g id="patch_55">
    <path clip-path="url(#p4d3505b262)" d="M 338.107047 768.96 
L 339.792282 768.96 
L 339.792282 662.15246 
L 338.107047 662.15246 
z
" style="fill:#1f77b4;"/>
   </g>
   <g id="patch_56">
    <path clip-path="url(#p4d3505b262)" d="M 341.477517 768.96 
L 343.162752 768.96 
L 343.162752 610.573115 
L 341.477517 610.573115 
z
" style="fill:#1f77b4;"/>
   </g>
   <g id="patch_57">
    <path clip-path="url(#p4d3505b262)" d="M 344.847987 768.96 
L 346.533221 768.96 
L 346.533221 463.301815 
L 344.847987 463.301815 
z
" style="fill:#1f77b4;"/>
   </g>
   <g id="patch_58">
    <path clip-path="url(#p4d3505b262)" d="M 348.218456 768.96 
L 349.903691 768.96 
L 349.903691 459.460614 
L 348.218456 459.460614 
z
" style="fill:#1f77b4;"/>
   </g>
   <g id="patch_59">
    <path clip-path="url(#p4d3505b262)" d="M 351.588926 768.96 
L 353.274161 768.96 
L 353.274161 496.840921 
L 351.588926 496.840921 
z
" style="fill:#1f77b4;"/>
   </g>
   <g id="patch_60">
    <path clip-path="url(#p4d3505b262)" d="M 354.959396 768.96 
L 356.644631 768.96 
L 356.644631 530.292595 
L 354.959396 530.292595 
z
" style="fill:#1f77b4;"/>
   </g>
   <g id="patch_61">
    <path clip-path="url(#p4d3505b262)" d="M 358.329866 768.96 
L 360.015101 768.96 
L 360.015101 653.898832 
L 358.329866 653.898832 
z
" style="fill:#1f77b4;"/>
   </g>
   <g id="patch_62">
    <path clip-path="url(#p4d3505b262)" d="M 361.700336 768.96 
L 363.38557 768.96 
L 363.38557 596.712149 
L 361.700336 596.712149 
z
" style="fill:#1f77b4;"/>
   </g>
   <g id="patch_63">
    <path clip-path="url(#p4d3505b262)" d="M 365.070805 768.96 
L 366.75604 768.96 
L 366.75604 539.962629 
L 365.070805 539.962629 
z
" style="fill:#1f77b4;"/>
   </g>
   <g id="patch_64">
    <path clip-path="url(#p4d3505b262)" d="M 368.441275 768.96 
L 370.12651 768.96 
L 370.12651 503.806377 
L 368.441275 503.806377 
z
" style="fill:#1f77b4;"/>
   </g>
   <g id="patch_65">
    <path clip-path="url(#p4d3505b262)" d="M 371.811745 768.96 
L 373.49698 768.96 
L 373.49698 380.14768 
L 371.811745 380.14768 
z
" style="fill:#1f77b4;"/>
   </g>
   <g id="patch_66">
    <path clip-path="url(#p4d3505b262)" d="M 375.182215 768.96 
L 376.86745 768.96 
L 376.86745 397.290278 
L 375.182215 397.290278 
z
" style="fill:#1f77b4;"/>
   </g>
   <g id="patch_67">
    <path clip-path="url(#p4d3505b262)" d="M 378.552685 768.96 
L 380.237919 768.96 
L 380.237919 491.070376 
L 378.552685 491.070376 
z
" style="fill:#1f77b4;"/>
   </g>
   <g id="patch_68">
    <path clip-path="url(#p4d3505b262)" d="M 381.923154 768.96 
L 383.608389 768.96 
L 383.608389 681.568304 
L 381.923154 681.568304 
z
" style="fill:#1f77b4;"/>
   </g>
   <g id="patch_69">
    <path clip-path="url(#p4d3505b262)" d="M 385.293624 768.96 
L 386.978859 768.96 
L 386.978859 528.135927 
L 385.293624 528.135927 
z
" style="fill:#1f77b4;"/>
   </g>
   <g id="patch_70">
    <path clip-path="url(#p4d3505b262)" d="M 388.664094 768.96 
L 390.349329 768.96 
L 390.349329 460.57975 
L 388.664094 460.57975 
z
" style="fill:#1f77b4;"/>
   </g>
   <g id="patch_71">
    <path clip-path="url(#p4d3505b262)" d="M 392.034564 768.96 
L 393.719799 768.96 
L 393.719799 431.569647 
L 392.034564 431.569647 
z
" style="fill:#1f77b4;"/>
   </g>
   <g id="patch_72">
    <path clip-path="url(#p4d3505b262)" d="M 395.405034 768.96 
L 397.090268 768.96 
L 397.090268 404.599635 
L 395.405034 404.599635 
z
" style="fill:#1f77b4;"/>
   </g>
   <g id="patch_73">
    <path clip-path="url(#p4d3505b262)" d="M 398.775503 768.96 
L 400.460738 768.96 
L 400.460738 350.863622 
L 398.775503 350.863622 
z
" style="fill:#1f77b4;"/>
   </g>
   <g id="patch_74">
    <path clip-path="url(#p4d3505b262)" d="M 402.145973 768.96 
L 403.831208 768.96 
L 403.831208 499.801968 
L 402.145973 499.801968 
z
" style="fill:#1f77b4;"/>
   </g>
   <g id="patch_75">
    <path clip-path="url(#p4d3505b262)" d="M 405.516443 768.96 
L 407.201678 768.96 
L 407.201678 498.84604 
L 405.516443 498.84604 
z
" style="fill:#1f77b4;"/>
   </g>
   <g id="patch_76">
    <path clip-path="url(#p4d3505b262)" d="M 408.886913 768.96 
L 410.572148 768.96 
L 410.572148 530.403343 
L 408.886913 530.403343 
z
" style="fill:#1f77b4;"/>
   </g>
   <g id="patch_77">
    <path clip-path="url(#p4d3505b262)" d="M 412.257383 768.96 
L 413.942617 768.96 
L 413.942617 502.209276 
L 412.257383 502.209276 
z
" style="fill:#1f77b4;"/>
   </g>
   <g id="patch_78">
    <path clip-path="url(#p4d3505b262)" d="M 415.627852 768.96 
L 417.313087 768.96 
L 417.313087 532.81648 
L 415.627852 532.81648 
z
" style="fill:#1f77b4;"/>
   </g>
   <g id="patch_79">
    <path clip-path="url(#p4d3505b262)" d="M 418.998322 768.96 
L 420.683557 768.96 
L 420.683557 497.534552 
L 418.998322 497.534552 
z
" style="fill:#1f77b4;"/>
   </g>
   <g id="patch_80">
    <path clip-path="url(#p4d3505b262)" d="M 422.368792 768.96 
L 424.054027 768.96 
L 424.054027 486.378165 
L 422.368792 486.378165 
z
" style="fill:#1f77b4;"/>
   </g>
   <g id="patch_81">
    <path clip-path="url(#p4d3505b262)" d="M 425.739262 768.96 
L 427.424497 768.96 
L 427.424497 595.004301 
L 425.739262 595.004301 
z
" style="fill:#1f77b4;"/>
   </g>
   <g id="patch_82">
    <path clip-path="url(#p4d3505b262)" d="M 429.109732 768.96 
L 430.794966 768.96 
L 430.794966 674.369694 
L 429.109732 674.369694 
z
" style="fill:#1f77b4;"/>
   </g>
   <g id="patch_83">
    <path clip-path="url(#p4d3505b262)" d="M 432.480201 768.96 
L 434.165436 768.96 
L 434.165436 616.734192 
L 432.480201 616.734192 
z
" style="fill:#1f77b4;"/>
   </g>
   <g id="patch_84">
    <path clip-path="url(#p4d3505b262)" d="M 435.850671 768.96 
L 437.535906 768.96 
L 437.535906 585.823889 
L 435.850671 585.823889 
z
" style="fill:#1f77b4;"/>
   </g>
   <g id="patch_85">
    <path clip-path="url(#p4d3505b262)" d="M 439.221141 768.96 
L 440.906376 768.96 
L 440.906376 578.444586 
L 439.221141 578.444586 
z
" style="fill:#1f77b4;"/>
   </g>
   <g id="patch_86">
    <path clip-path="url(#p4d3505b262)" d="M 442.591611 768.96 
L 444.276846 768.96 
L 444.276846 526.911872 
L 442.591611 526.911872 
z
" style="fill:#1f77b4;"/>
   </g>
   <g id="patch_87">
    <path clip-path="url(#p4d3505b262)" d="M 445.962081 768.96 
L 447.647315 768.96 
L 447.647315 465.260303 
L 445.962081 465.260303 
z
" style="fill:#1f77b4;"/>
   </g>
   <g id="patch_88">
    <path clip-path="url(#p4d3505b262)" d="M 449.33255 768.96 
L 451.017785 768.96 
L 451.017785 501.830402 
L 449.33255 501.830402 
z
" style="fill:#1f77b4;"/>
   </g>
   <g id="patch_89">
    <path clip-path="url(#p4d3505b262)" d="M 452.70302 768.96 
L 454.388255 768.96 
L 454.388255 662.997641 
L 452.70302 662.997641 
z
" style="fill:#1f77b4;"/>
   </g>
   <g id="patch_90">
    <path clip-path="url(#p4d3505b262)" d="M 456.07349 768.96 
L 457.758725 768.96 
L 457.758725 605.397111 
L 456.07349 605.397111 
z
" style="fill:#1f77b4;"/>
   </g>
   <g id="patch_91">
    <path clip-path="url(#p4d3505b262)" d="M 459.44396 768.96 
L 461.129195 768.96 
L 461.129195 474.533976 
L 459.44396 474.533976 
z
" style="fill:#1f77b4;"/>
   </g>
   <g id="patch_92">
    <path clip-path="url(#p4d3505b262)" d="M 462.81443 768.96 
L 464.499664 768.96 
L 464.499664 518.384289 
L 462.81443 518.384289 
z
" style="fill:#1f77b4;"/>
   </g>
   <g id="patch_93">
    <path clip-path="url(#p4d3505b262)" d="M 466.184899 768.96 
L 467.870134 768.96 
L 467.870134 422.669018 
L 466.184899 422.669018 
z
" style="fill:#1f77b4;"/>
   </g>
   <g id="patch_94">
    <path clip-path="url(#p4d3505b262)" d="M 469.555369 768.96 
L 471.240604 768.96 
L 471.240604 416.443824 
L 469.555369 416.443824 
z
" style="fill:#1f77b4;"/>
   </g>
   <g id="patch_95">
    <path clip-path="url(#p4d3505b262)" d="M 472.925839 768.96 
L 474.611074 768.96 
L 474.611074 494.229604 
L 472.925839 494.229604 
z
" style="fill:#1f77b4;"/>
   </g>
   <g id="patch_96">
    <path clip-path="url(#p4d3505b262)" d="M 476.296309 768.96 
L 477.981544 768.96 
L 477.981544 692.986988 
L 476.296309 692.986988 
z
" style="fill:#1f77b4;"/>
   </g>
   <g id="patch_97">
    <path clip-path="url(#p4d3505b262)" d="M 479.666779 768.96 
L 481.352013 768.96 
L 481.352013 510.089859 
L 479.666779 510.089859 
z
" style="fill:#1f77b4;"/>
   </g>
   <g id="patch_98">
    <path clip-path="url(#p4d3505b262)" d="M 483.037248 768.96 
L 484.722483 768.96 
L 484.722483 370.751601 
L 483.037248 370.751601 
z
" style="fill:#1f77b4;"/>
   </g>
   <g id="patch_99">
    <path clip-path="url(#p4d3505b262)" d="M 486.407718 768.96 
L 488.092953 768.96 
L 488.092953 329.681642 
L 486.407718 329.681642 
z
" style="fill:#1f77b4;"/>
   </g>
   <g id="patch_100">
    <path clip-path="url(#p4d3505b262)" d="M 489.778188 768.96 
L 491.463423 768.96 
L 491.463423 238.553663 
L 489.778188 238.553663 
z
" style="fill:#1f77b4;"/>
   </g>
   <g id="patch_101">
    <path clip-path="url(#p4d3505b262)" d="M 493.148658 768.96 
L 494.833893 768.96 
L 494.833893 135.36 
L 493.148658 135.36 
z
" style="fill:#1f77b4;"/>
   </g>
   <g id="patch_102">
    <path clip-path="url(#p4d3505b262)" d="M 496.519128 768.96 
L 498.204362 768.96 
L 498.204362 340.068623 
L 496.519128 340.068623 
z
" style="fill:#1f77b4;"/>
   </g>
   <g id="patch_103">
    <path clip-path="url(#p4d3505b262)" d="M 499.889597 768.96 
L 501.574832 768.96 
L 501.574832 564.222233 
L 499.889597 564.222233 
z
" style="fill:#1f77b4;"/>
   </g>
   <g id="patch_104">
    <path clip-path="url(#p4d3505b262)" d="M 503.260067 768.96 
L 504.945302 768.96 
L 504.945302 418.186646 
L 503.260067 418.186646 
z
" style="fill:#1f77b4;"/>
   </g>
   <g id="patch_105">
    <path clip-path="url(#p4d3505b262)" d="M 506.630537 768.96 
L 508.315772 768.96 
L 508.315772 336.122503 
L 506.630537 336.122503 
z
" style="fill:#1f77b4;"/>
   </g>
   <g id="patch_106">
    <path clip-path="url(#p4d3505b262)" d="M 510.001007 768.96 
L 511.686242 768.96 
L 511.686242 396.485899 
L 510.001007 396.485899 
z
" style="fill:#1f77b4;"/>
   </g>
   <g id="patch_107">
    <path clip-path="url(#p4d3505b262)" d="M 513.371477 768.96 
L 515.056711 768.96 
L 515.056711 261.35023 
L 513.371477 261.35023 
z
" style="fill:#1f77b4;"/>
   </g>
   <g id="patch_108">
    <path clip-path="url(#p4d3505b262)" d="M 516.741946 768.96 
L 518.427181 768.96 
L 518.427181 267.464676 
L 516.741946 267.464676 
z
" style="fill:#1f77b4;"/>
   </g>
   <g id="patch_109">
    <path clip-path="url(#p4d3505b262)" d="M 520.112416 768.96 
L 521.797651 768.96 
L 521.797651 416.437996 
L 520.112416 416.437996 
z
" style="fill:#1f77b4;"/>
   </g>
   <g id="patch_110">
    <path clip-path="url(#p4d3505b262)" d="M 523.482886 768.96 
L 525.168121 768.96 
L 525.168121 564.770143 
L 523.482886 564.770143 
z
" style="fill:#1f77b4;"/>
   </g>
   <g id="patch_111">
    <path clip-path="url(#p4d3505b262)" d="M 526.853356 768.96 
L 528.538591 768.96 
L 528.538591 478.468439 
L 526.853356 478.468439 
z
" style="fill:#1f77b4;"/>
   </g>
   <g id="patch_112">
    <path clip-path="url(#p4d3505b262)" d="M 530.223826 768.96 
L 531.90906 768.96 
L 531.90906 298.036906 
L 530.223826 298.036906 
z
" style="fill:#1f77b4;"/>
   </g>
   <g id="patch_113">
    <path clip-path="url(#p4d3505b262)" d="M 533.594295 768.96 
L 535.27953 768.96 
L 535.27953 352.839596 
L 533.594295 352.839596 
z
" style="fill:#1f77b4;"/>
   </g>
   <g id="patch_114">
    <path clip-path="url(#p4d3505b262)" d="M 536.964765 768.96 
L 538.65 768.96 
L 538.65 333.202257 
L 536.964765 333.202257 
z
" style="fill:#1f77b4;"/>
   </g>
   <g id="patch_115">
    <path clip-path="url(#p4d3505b262)" d="M 540.335235 768.96 
L 542.02047 768.96 
L 542.02047 364.15919 
L 540.335235 364.15919 
z
" style="fill:#1f77b4;"/>
   </g>
   <g id="patch_116">
    <path clip-path="url(#p4d3505b262)" d="M 543.705705 768.96 
L 545.39094 768.96 
L 545.39094 500.59469 
L 543.705705 500.59469 
z
" style="fill:#1f77b4;"/>
   </g>
   <g id="patch_117">
    <path clip-path="url(#p4d3505b262)" d="M 547.076174 768.96 
L 548.761409 768.96 
L 548.761409 658.299601 
L 547.076174 658.299601 
z
" style="fill:#1f77b4;"/>
   </g>
   <g id="patch_118">
    <path clip-path="url(#p4d3505b262)" d="M 550.446644 768.96 
L 552.131879 768.96 
L 552.131879 517.364243 
L 550.446644 517.364243 
z
" style="fill:#1f77b4;"/>
   </g>
   <g id="patch_119">
    <path clip-path="url(#p4d3505b262)" d="M 553.817114 768.96 
L 555.502349 768.96 
L 555.502349 408.137737 
L 553.817114 408.137737 
z
" style="fill:#1f77b4;"/>
   </g>
   <g id="patch_120">
    <path clip-path="url(#p4d3505b262)" d="M 557.187584 768.96 
L 558.872819 768.96 
L 558.872819 393.78715 
L 557.187584 393.78715 
z
" style="fill:#1f77b4;"/>
   </g>
   <g id="patch_121">
    <path clip-path="url(#p4d3505b262)" d="M 560.558054 768.96 
L 562.243289 768.96 
L 562.243289 406.482348 
L 560.558054 406.482348 
z
" style="fill:#1f77b4;"/>
   </g>
   <g id="patch_122">
    <path clip-path="url(#p4d3505b262)" d="M 563.928523 768.96 
L 565.613758 768.96 
L 565.613758 454.803376 
L 563.928523 454.803376 
z
" style="fill:#1f77b4;"/>
   </g>
   <g id="patch_123">
    <path clip-path="url(#p4d3505b262)" d="M 567.298993 768.96 
L 568.984228 768.96 
L 568.984228 626.048667 
L 567.298993 626.048667 
z
" style="fill:#1f77b4;"/>
   </g>
   <g id="patch_124">
    <path clip-path="url(#p4d3505b262)" d="M 570.669463 768.96 
L 572.354698 768.96 
L 572.354698 723.541732 
L 570.669463 723.541732 
z
" style="fill:#1f77b4;"/>
   </g>
   <g id="patch_125">
    <path clip-path="url(#p4d3505b262)" d="M 574.039933 768.96 
L 575.725168 768.96 
L 575.725168 613.277693 
L 574.039933 613.277693 
z
" style="fill:#1f77b4;"/>
   </g>
   <g id="patch_126">
    <path clip-path="url(#p4d3505b262)" d="M 577.410403 768.96 
L 579.095638 768.96 
L 579.095638 361.932576 
L 577.410403 361.932576 
z
" style="fill:#1f77b4;"/>
   </g>
   <g id="patch_127">
    <path clip-path="url(#p4d3505b262)" d="M 580.780872 768.96 
L 582.466107 768.96 
L 582.466107 371.50352 
L 580.780872 371.50352 
z
" style="fill:#1f77b4;"/>
   </g>
   <g id="patch_128">
    <path clip-path="url(#p4d3505b262)" d="M 584.151342 768.96 
L 585.836577 768.96 
L 585.836577 470.896784 
L 584.151342 470.896784 
z
" style="fill:#1f77b4;"/>
   </g>
   <g id="patch_129">
    <path clip-path="url(#p4d3505b262)" d="M 587.521812 768.96 
L 589.207047 768.96 
L 589.207047 323.707088 
L 587.521812 323.707088 
z
" style="fill:#1f77b4;"/>
   </g>
   <g id="patch_130">
    <path clip-path="url(#p4d3505b262)" d="M 590.892282 768.96 
L 592.577517 768.96 
L 592.577517 467.492746 
L 590.892282 467.492746 
z
" style="fill:#1f77b4;"/>
   </g>
   <g id="patch_131">
    <path clip-path="url(#p4d3505b262)" d="M 594.262752 768.96 
L 595.947987 768.96 
L 595.947987 500.513086 
L 594.262752 500.513086 
z
" style="fill:#1f77b4;"/>
   </g>
   <g id="patch_132">
    <path clip-path="url(#p4d3505b262)" d="M 597.633221 768.96 
L 599.318456 768.96 
L 599.318456 528.981107 
L 597.633221 528.981107 
z
" style="fill:#1f77b4;"/>
   </g>
   <g id="patch_133">
    <path clip-path="url(#p4d3505b262)" d="M 601.003691 768.96 
L 602.688926 768.96 
L 602.688926 461.209264 
L 601.003691 461.209264 
z
" style="fill:#1f77b4;"/>
   </g>
   <g id="patch_134">
    <path clip-path="url(#p4d3505b262)" d="M 604.374161 768.96 
L 606.059396 768.96 
L 606.059396 490.067817 
L 604.374161 490.067817 
z
" style="fill:#1f77b4;"/>
   </g>
   <g id="patch_135">
    <path clip-path="url(#p4d3505b262)" d="M 607.744631 768.96 
L 609.429866 768.96 
L 609.429866 478.46261 
L 607.744631 478.46261 
z
" style="fill:#1f77b4;"/>
   </g>
   <g id="patch_136">
    <path clip-path="url(#p4d3505b262)" d="M 611.115101 768.96 
L 612.800336 768.96 
L 612.800336 349.965982 
L 611.115101 349.965982 
z
" style="fill:#1f77b4;"/>
   </g>
   <g id="patch_137">
    <path clip-path="url(#p4d3505b262)" d="M 614.48557 768.96 
L 616.170805 768.96 
L 616.170805 534.436895 
L 614.48557 534.436895 
z
" style="fill:#1f77b4;"/>
   </g>
   <g id="patch_138">
    <path clip-path="url(#p4d3505b262)" d="M 617.85604 768.96 
L 619.541275 768.96 
L 619.541275 674.766055 
L 617.85604 674.766055 
z
" style="fill:#1f77b4;"/>
   </g>
   <g id="patch_139">
    <path clip-path="url(#p4d3505b262)" d="M 621.22651 768.96 
L 622.911745 768.96 
L 622.911745 606.388013 
L 621.22651 606.388013 
z
" style="fill:#1f77b4;"/>
   </g>
   <g id="patch_140">
    <path clip-path="url(#p4d3505b262)" d="M 624.59698 768.96 
L 626.282215 768.96 
L 626.282215 466.606763 
L 624.59698 466.606763 
z
" style="fill:#1f77b4;"/>
   </g>
   <g id="patch_141">
    <path clip-path="url(#p4d3505b262)" d="M 627.96745 768.96 
L 629.652685 768.96 
L 629.652685 499.906887 
L 627.96745 499.906887 
z
" style="fill:#1f77b4;"/>
   </g>
   <g id="patch_142">
    <path clip-path="url(#p4d3505b262)" d="M 631.337919 768.96 
L 633.023154 768.96 
L 633.023154 383.749899 
L 631.337919 383.749899 
z
" style="fill:#1f77b4;"/>
   </g>
   <g id="patch_143">
    <path clip-path="url(#p4d3505b262)" d="M 634.708389 768.96 
L 636.393624 768.96 
L 636.393624 520.097966 
L 634.708389 520.097966 
z
" style="fill:#1f77b4;"/>
   </g>
   <g id="patch_144">
    <path clip-path="url(#p4d3505b262)" d="M 638.078859 768.96 
L 639.764094 768.96 
L 639.764094 569.036849 
L 638.078859 569.036849 
z
" style="fill:#1f77b4;"/>
   </g>
   <g id="patch_145">
    <path clip-path="url(#p4d3505b262)" d="M 641.449329 768.96 
L 643.134564 768.96 
L 643.134564 677.167534 
L 641.449329 677.167534 
z
" style="fill:#1f77b4;"/>
   </g>
   <g id="patch_146">
    <path clip-path="url(#p4d3505b262)" d="M 644.819799 768.96 
L 646.505034 768.96 
L 646.505034 617.917445 
L 644.819799 617.917445 
z
" style="fill:#1f77b4;"/>
   </g>
   <g id="patch_147">
    <path clip-path="url(#p4d3505b262)" d="M 648.190268 768.96 
L 649.875503 768.96 
L 649.875503 584.710582 
L 648.190268 584.710582 
z
" style="fill:#1f77b4;"/>
   </g>
   <g id="patch_148">
    <path clip-path="url(#p4d3505b262)" d="M 651.560738 768.96 
L 653.245973 768.96 
L 653.245973 583.754653 
L 651.560738 583.754653 
z
" style="fill:#1f77b4;"/>
   </g>
   <g id="patch_149">
    <path clip-path="url(#p4d3505b262)" d="M 654.931208 768.96 
L 656.616443 768.96 
L 656.616443 572.872222 
L 654.931208 572.872222 
z
" style="fill:#1f77b4;"/>
   </g>
   <g id="patch_150">
    <path clip-path="url(#p4d3505b262)" d="M 658.301678 768.96 
L 659.986913 768.96 
L 659.986913 586.348484 
L 658.301678 586.348484 
z
" style="fill:#1f77b4;"/>
   </g>
   <g id="patch_151">
    <path clip-path="url(#p4d3505b262)" d="M 661.672148 768.96 
L 663.357383 768.96 
L 663.357383 644.059762 
L 661.672148 644.059762 
z
" style="fill:#1f77b4;"/>
   </g>
   <g id="patch_152">
    <path clip-path="url(#p4d3505b262)" d="M 665.042617 768.96 
L 666.727852 768.96 
L 666.727852 698.862452 
L 665.042617 698.862452 
z
" style="fill:#1f77b4;"/>
   </g>
   <g id="patch_153">
    <path clip-path="url(#p4d3505b262)" d="M 668.413087 768.96 
L 670.098322 768.96 
L 670.098322 718.091772 
L 668.413087 718.091772 
z
" style="fill:#1f77b4;"/>
   </g>
   <g id="patch_154">
    <path clip-path="url(#p4d3505b262)" d="M 671.783557 768.96 
L 673.468792 768.96 
L 673.468792 659.00489 
L 671.783557 659.00489 
z
" style="fill:#1f77b4;"/>
   </g>
   <g id="patch_155">
    <path clip-path="url(#p4d3505b262)" d="M 675.154027 768.96 
L 676.839262 768.96 
L 676.839262 652.96039 
L 675.154027 652.96039 
z
" style="fill:#1f77b4;"/>
   </g>
   <g id="patch_156">
    <path clip-path="url(#p4d3505b262)" d="M 678.524497 768.96 
L 680.209732 768.96 
L 680.209732 581.085048 
L 678.524497 581.085048 
z
" style="fill:#1f77b4;"/>
   </g>
   <g id="patch_157">
    <path clip-path="url(#p4d3505b262)" d="M 681.894966 768.96 
L 683.580201 768.96 
L 683.580201 556.953678 
L 681.894966 556.953678 
z
" style="fill:#1f77b4;"/>
   </g>
   <g id="patch_158">
    <path clip-path="url(#p4d3505b262)" d="M 685.265436 768.96 
L 686.950671 768.96 
L 686.950671 579.482118 
L 685.265436 579.482118 
z
" style="fill:#1f77b4;"/>
   </g>
   <g id="patch_159">
    <path clip-path="url(#p4d3505b262)" d="M 688.635906 768.96 
L 690.321141 768.96 
L 690.321141 634.290637 
L 688.635906 634.290637 
z
" style="fill:#1f77b4;"/>
   </g>
   <g id="patch_160">
    <path clip-path="url(#p4d3505b262)" d="M 692.006376 768.96 
L 693.691611 768.96 
L 693.691611 582.466481 
L 692.006376 582.466481 
z
" style="fill:#1f77b4;"/>
   </g>
   <g id="patch_161">
    <path clip-path="url(#p4d3505b262)" d="M 695.376846 768.96 
L 697.062081 768.96 
L 697.062081 568.704606 
L 695.376846 568.704606 
z
" style="fill:#1f77b4;"/>
   </g>
   <g id="patch_162">
    <path clip-path="url(#p4d3505b262)" d="M 698.747315 768.96 
L 700.43255 768.96 
L 700.43255 535.282076 
L 698.747315 535.282076 
z
" style="fill:#1f77b4;"/>
   </g>
   <g id="patch_163">
    <path clip-path="url(#p4d3505b262)" d="M 702.117785 768.96 
L 703.80302 768.96 
L 703.80302 606.941752 
L 702.117785 606.941752 
z
" style="fill:#1f77b4;"/>
   </g>
   <g id="patch_164">
    <path clip-path="url(#p4d3505b262)" d="M 705.488255 768.96 
L 707.17349 768.96 
L 707.17349 615.562596 
L 705.488255 615.562596 
z
" style="fill:#1f77b4;"/>
   </g>
   <g id="patch_165">
    <path clip-path="url(#p4d3505b262)" d="M 708.858725 768.96 
L 710.54396 768.96 
L 710.54396 674.760226 
L 708.858725 674.760226 
z
" style="fill:#1f77b4;"/>
   </g>
   <g id="patch_166">
    <path clip-path="url(#p4d3505b262)" d="M 712.229195 768.96 
L 713.91443 768.96 
L 713.91443 675.564605 
L 712.229195 675.564605 
z
" style="fill:#1f77b4;"/>
   </g>
   <g id="patch_167">
    <path clip-path="url(#p4d3505b262)" d="M 715.599664 768.96 
L 717.284899 768.96 
L 717.284899 484.990903 
L 715.599664 484.990903 
z
" style="fill:#1f77b4;"/>
   </g>
   <g id="patch_168">
    <path clip-path="url(#p4d3505b262)" d="M 718.970134 768.96 
L 720.655369 768.96 
L 720.655369 558.177733 
L 718.970134 558.177733 
z
" style="fill:#1f77b4;"/>
   </g>
   <g id="patch_169">
    <path clip-path="url(#p4d3505b262)" d="M 722.340604 768.96 
L 724.025839 768.96 
L 724.025839 624.643918 
L 722.340604 624.643918 
z
" style="fill:#1f77b4;"/>
   </g>
   <g id="patch_170">
    <path clip-path="url(#p4d3505b262)" d="M 725.711074 768.96 
L 727.396309 768.96 
L 727.396309 579.289767 
L 725.711074 579.289767 
z
" style="fill:#1f77b4;"/>
   </g>
   <g id="patch_171">
    <path clip-path="url(#p4d3505b262)" d="M 729.081544 768.96 
L 730.766779 768.96 
L 730.766779 677.715445 
L 729.081544 677.715445 
z
" style="fill:#1f77b4;"/>
   </g>
   <g id="patch_172">
    <path clip-path="url(#p4d3505b262)" d="M 732.452013 768.96 
L 734.137248 768.96 
L 734.137248 626.98128 
L 732.452013 626.98128 
z
" style="fill:#1f77b4;"/>
   </g>
   <g id="patch_173">
    <path clip-path="url(#p4d3505b262)" d="M 735.822483 768.96 
L 737.507718 768.96 
L 737.507718 708.398423 
L 735.822483 708.398423 
z
" style="fill:#1f77b4;"/>
   </g>
   <g id="patch_174">
    <path clip-path="url(#p4d3505b262)" d="M 739.192953 768.96 
L 740.878188 768.96 
L 740.878188 694.834728 
L 739.192953 694.834728 
z
" style="fill:#1f77b4;"/>
   </g>
   <g id="patch_175">
    <path clip-path="url(#p4d3505b262)" d="M 742.563423 768.96 
L 744.248658 768.96 
L 744.248658 678.595599 
L 742.563423 678.595599 
z
" style="fill:#1f77b4;"/>
   </g>
   <g id="patch_176">
    <path clip-path="url(#p4d3505b262)" d="M 745.933893 768.96 
L 747.619128 768.96 
L 747.619128 659.372107 
L 745.933893 659.372107 
z
" style="fill:#1f77b4;"/>
   </g>
   <g id="patch_177">
    <path clip-path="url(#p4d3505b262)" d="M 749.304362 768.96 
L 750.989597 768.96 
L 750.989597 635.806134 
L 749.304362 635.806134 
z
" style="fill:#1f77b4;"/>
   </g>
   <g id="patch_178">
    <path clip-path="url(#p4d3505b262)" d="M 752.674832 768.96 
L 754.360067 768.96 
L 754.360067 473.181687 
L 752.674832 473.181687 
z
" style="fill:#1f77b4;"/>
   </g>
   <g id="patch_179">
    <path clip-path="url(#p4d3505b262)" d="M 756.045302 768.96 
L 757.730537 768.96 
L 757.730537 427.238824 
L 756.045302 427.238824 
z
" style="fill:#1f77b4;"/>
   </g>
   <g id="patch_180">
    <path clip-path="url(#p4d3505b262)" d="M 759.415772 768.96 
L 761.101007 768.96 
L 761.101007 738.370283 
L 759.415772 738.370283 
z
" style="fill:#1f77b4;"/>
   </g>
   <g id="patch_181">
    <path clip-path="url(#p4d3505b262)" d="M 762.786242 768.96 
L 764.471477 768.96 
L 764.471477 692.928699 
L 762.786242 692.928699 
z
" style="fill:#1f77b4;"/>
   </g>
   <g id="patch_182">
    <path clip-path="url(#p4d3505b262)" d="M 766.156711 768.96 
L 767.841946 768.96 
L 767.841946 675.1391 
L 766.156711 675.1391 
z
" style="fill:#1f77b4;"/>
   </g>
   <g id="patch_183">
    <path clip-path="url(#p4d3505b262)" d="M 769.527181 768.96 
L 771.212416 768.96 
L 771.212416 678.653887 
L 769.527181 678.653887 
z
" style="fill:#1f77b4;"/>
   </g>
   <g id="patch_184">
    <path clip-path="url(#p4d3505b262)" d="M 772.897651 768.96 
L 774.582886 768.96 
L 774.582886 687.810984 
L 772.897651 687.810984 
z
" style="fill:#1f77b4;"/>
   </g>
   <g id="patch_185">
    <path clip-path="url(#p4d3505b262)" d="M 776.268121 768.96 
L 777.953356 768.96 
L 777.953356 687.799326 
L 776.268121 687.799326 
z
" style="fill:#1f77b4;"/>
   </g>
   <g id="patch_186">
    <path clip-path="url(#p4d3505b262)" d="M 779.638591 768.96 
L 781.323826 768.96 
L 781.323826 708.351792 
L 779.638591 708.351792 
z
" style="fill:#1f77b4;"/>
   </g>
   <g id="patch_187">
    <path clip-path="url(#p4d3505b262)" d="M 783.00906 768.96 
L 784.694295 768.96 
L 784.694295 739.874122 
L 783.00906 739.874122 
z
" style="fill:#1f77b4;"/>
   </g>
   <g id="patch_188">
    <path clip-path="url(#p4d3505b262)" d="M 786.37953 768.96 
L 788.064765 768.96 
L 788.064765 764.005492 
L 786.37953 764.005492 
z
" style="fill:#1f77b4;"/>
   </g>
   <g id="patch_189">
    <path clip-path="url(#p4d3505b262)" d="M 789.75 768.96 
L 791.435235 768.96 
L 791.435235 721.839712 
L 789.75 721.839712 
z
" style="fill:#1f77b4;"/>
   </g>
   <g id="patch_190">
    <path clip-path="url(#p4d3505b262)" d="M 793.12047 768.96 
L 794.805705 768.96 
L 794.805705 685.788379 
L 793.12047 685.788379 
z
" style="fill:#1f77b4;"/>
   </g>
   <g id="patch_191">
    <path clip-path="url(#p4d3505b262)" d="M 796.49094 768.96 
L 798.176174 768.96 
L 798.176174 685.520252 
L 796.49094 685.520252 
z
" style="fill:#1f77b4;"/>
   </g>
   <g id="patch_192">
    <path clip-path="url(#p4d3505b262)" d="M 799.861409 768.96 
L 801.546644 768.96 
L 801.546644 695.679909 
L 799.861409 695.679909 
z
" style="fill:#1f77b4;"/>
   </g>
   <g id="patch_193">
    <path clip-path="url(#p4d3505b262)" d="M 803.231879 768.96 
L 804.917114 768.96 
L 804.917114 707.127737 
L 803.231879 707.127737 
z
" style="fill:#1f77b4;"/>
   </g>
   <g id="patch_194">
    <path clip-path="url(#p4d3505b262)" d="M 806.602349 768.96 
L 808.287584 768.96 
L 808.287584 726.782563 
L 806.602349 726.782563 
z
" style="fill:#1f77b4;"/>
   </g>
   <g id="patch_195">
    <path clip-path="url(#p4d3505b262)" d="M 809.972819 768.96 
L 811.658054 768.96 
L 811.658054 690.323211 
L 809.972819 690.323211 
z
" style="fill:#1f77b4;"/>
   </g>
   <g id="patch_196">
    <path clip-path="url(#p4d3505b262)" d="M 813.343289 768.96 
L 815.028523 768.96 
L 815.028523 703.694554 
L 813.343289 703.694554 
z
" style="fill:#1f77b4;"/>
   </g>
   <g id="patch_197">
    <path clip-path="url(#p4d3505b262)" d="M 816.713758 768.96 
L 818.398993 768.96 
L 818.398993 706.708061 
L 816.713758 706.708061 
z
" style="fill:#1f77b4;"/>
   </g>
   <g id="patch_198">
    <path clip-path="url(#p4d3505b262)" d="M 820.084228 768.96 
L 821.769463 768.96 
L 821.769463 707.139395 
L 820.084228 707.139395 
z
" style="fill:#1f77b4;"/>
   </g>
   <g id="patch_199">
    <path clip-path="url(#p4d3505b262)" d="M 823.454698 768.96 
L 825.139933 768.96 
L 825.139933 706.422448 
L 823.454698 706.422448 
z
" style="fill:#1f77b4;"/>
   </g>
   <g id="patch_200">
    <path clip-path="url(#p4d3505b262)" d="M 826.825168 768.96 
L 828.510403 768.96 
L 828.510403 716.920177 
L 826.825168 716.920177 
z
" style="fill:#1f77b4;"/>
   </g>
   <g id="patch_201">
    <path clip-path="url(#p4d3505b262)" d="M 830.195638 768.96 
L 831.880872 768.96 
L 831.880872 733.608127 
L 830.195638 733.608127 
z
" style="fill:#1f77b4;"/>
   </g>
   <g id="patch_202">
    <path clip-path="url(#p4d3505b262)" d="M 833.566107 768.96 
L 835.251342 768.96 
L 835.251342 716.436384 
L 833.566107 716.436384 
z
" style="fill:#1f77b4;"/>
   </g>
   <g id="patch_203">
    <path clip-path="url(#p4d3505b262)" d="M 836.936577 768.96 
L 838.621812 768.96 
L 838.621812 698.693416 
L 836.936577 698.693416 
z
" style="fill:#1f77b4;"/>
   </g>
   <g id="patch_204">
    <path clip-path="url(#p4d3505b262)" d="M 840.307047 768.96 
L 841.992282 768.96 
L 841.992282 703.391455 
L 840.307047 703.391455 
z
" style="fill:#1f77b4;"/>
   </g>
   <g id="patch_205">
    <path clip-path="url(#p4d3505b262)" d="M 843.677517 768.96 
L 845.362752 768.96 
L 845.362752 721.332604 
L 843.677517 721.332604 
z
" style="fill:#1f77b4;"/>
   </g>
   <g id="patch_206">
    <path clip-path="url(#p4d3505b262)" d="M 847.047987 768.96 
L 848.733221 768.96 
L 848.733221 720.295071 
L 847.047987 720.295071 
z
" style="fill:#1f77b4;"/>
   </g>
   <g id="patch_207">
    <path clip-path="url(#p4d3505b262)" d="M 850.418456 768.96 
L 852.103691 768.96 
L 852.103691 738.690869 
L 850.418456 738.690869 
z
" style="fill:#1f77b4;"/>
   </g>
   <g id="patch_208">
    <path clip-path="url(#p4d3505b262)" d="M 853.788926 768.96 
L 855.474161 768.96 
L 855.474161 751.362753 
L 853.788926 751.362753 
z
" style="fill:#1f77b4;"/>
   </g>
   <g id="patch_209">
    <path clip-path="url(#p4d3505b262)" d="M 857.159396 768.96 
L 858.844631 768.96 
L 858.844631 739.640969 
L 857.159396 739.640969 
z
" style="fill:#1f77b4;"/>
   </g>
   <g id="patch_210">
    <path clip-path="url(#p4d3505b262)" d="M 860.529866 768.96 
L 862.215101 768.96 
L 862.215101 702.190715 
L 860.529866 702.190715 
z
" style="fill:#1f77b4;"/>
   </g>
   <g id="patch_211">
    <path clip-path="url(#p4d3505b262)" d="M 863.900336 768.96 
L 865.58557 768.96 
L 865.58557 656.95897 
L 863.900336 656.95897 
z
" style="fill:#1f77b4;"/>
   </g>
   <g id="patch_212">
    <path clip-path="url(#p4d3505b262)" d="M 867.270805 768.96 
L 868.95604 768.96 
L 868.95604 710.694983 
L 867.270805 710.694983 
z
" style="fill:#1f77b4;"/>
   </g>
   <g id="patch_213">
    <path clip-path="url(#p4d3505b262)" d="M 870.641275 768.96 
L 872.32651 768.96 
L 872.32651 642.614211 
L 870.641275 642.614211 
z
" style="fill:#1f77b4;"/>
   </g>
   <g id="patch_214">
    <path clip-path="url(#p4d3505b262)" d="M 874.011745 768.96 
L 875.69698 768.96 
L 875.69698 722.958848 
L 874.011745 722.958848 
z
" style="fill:#1f77b4;"/>
   </g>
   <g id="patch_215">
    <path clip-path="url(#p4d3505b262)" d="M 877.382215 768.96 
L 879.06745 768.96 
L 879.06745 734.517424 
L 877.382215 734.517424 
z
" style="fill:#1f77b4;"/>
   </g>
   <g id="patch_216">
    <path clip-path="url(#p4d3505b262)" d="M 880.752685 768.96 
L 882.437919 768.96 
L 882.437919 722.183613 
L 880.752685 722.183613 
z
" style="fill:#1f77b4;"/>
   </g>
   <g id="patch_217">
    <path clip-path="url(#p4d3505b262)" d="M 884.123154 768.96 
L 885.808389 768.96 
L 885.808389 705.618069 
L 884.123154 705.618069 
z
" style="fill:#1f77b4;"/>
   </g>
   <g id="patch_218">
    <path clip-path="url(#p4d3505b262)" d="M 887.493624 768.96 
L 889.178859 768.96 
L 889.178859 710.630866 
L 887.493624 710.630866 
z
" style="fill:#1f77b4;"/>
   </g>
   <g id="patch_219">
    <path clip-path="url(#p4d3505b262)" d="M 890.864094 768.96 
L 892.549329 768.96 
L 892.549329 708.590774 
L 890.864094 708.590774 
z
" style="fill:#1f77b4;"/>
   </g>
   <g id="patch_220">
    <path clip-path="url(#p4d3505b262)" d="M 894.234564 768.96 
L 895.919799 768.96 
L 895.919799 704.685456 
L 894.234564 704.685456 
z
" style="fill:#1f77b4;"/>
   </g>
   <g id="patch_221">
    <path clip-path="url(#p4d3505b262)" d="M 897.605034 768.96 
L 899.290268 768.96 
L 899.290268 666.343391 
L 897.605034 666.343391 
z
" style="fill:#1f77b4;"/>
   </g>
   <g id="patch_222">
    <path clip-path="url(#p4d3505b262)" d="M 900.975503 768.96 
L 902.660738 768.96 
L 902.660738 728.974204 
L 900.975503 728.974204 
z
" style="fill:#1f77b4;"/>
   </g>
   <g id="patch_223">
    <path clip-path="url(#p4d3505b262)" d="M 904.345973 768.96 
L 906.031208 768.96 
L 906.031208 723.681624 
L 904.345973 723.681624 
z
" style="fill:#1f77b4;"/>
   </g>
   <g id="patch_224">
    <path clip-path="url(#p4d3505b262)" d="M 907.716443 768.96 
L 909.401678 768.96 
L 909.401678 725.715886 
L 907.716443 725.715886 
z
" style="fill:#1f77b4;"/>
   </g>
   <g id="patch_225">
    <path clip-path="url(#p4d3505b262)" d="M 911.086913 768.96 
L 912.772148 768.96 
L 912.772148 613.94218 
L 911.086913 613.94218 
z
" style="fill:#1f77b4;"/>
   </g>
   <g id="patch_226">
    <path clip-path="url(#p4d3505b262)" d="M 914.457383 768.96 
L 916.142617 768.96 
L 916.142617 632.419582 
L 914.457383 632.419582 
z
" style="fill:#1f77b4;"/>
   </g>
   <g id="patch_227">
    <path clip-path="url(#p4d3505b262)" d="M 917.827852 768.96 
L 919.513087 768.96 
L 919.513087 645.680177 
L 917.827852 645.680177 
z
" style="fill:#1f77b4;"/>
   </g>
   <g id="patch_228">
    <path clip-path="url(#p4d3505b262)" d="M 921.198322 768.96 
L 922.883557 768.96 
L 922.883557 607.95014 
L 921.198322 607.95014 
z
" style="fill:#1f77b4;"/>
   </g>
   <g id="patch_229">
    <path clip-path="url(#p4d3505b262)" d="M 924.568792 768.96 
L 926.254027 768.96 
L 926.254027 658.468637 
L 924.568792 658.468637 
z
" style="fill:#1f77b4;"/>
   </g>
   <g id="patch_230">
    <path clip-path="url(#p4d3505b262)" d="M 927.939262 768.96 
L 929.624497 768.96 
L 929.624497 715.218158 
L 927.939262 715.218158 
z
" style="fill:#1f77b4;"/>
   </g>
   <g id="patch_231">
    <path clip-path="url(#p4d3505b262)" d="M 931.309732 768.96 
L 932.994966 768.96 
L 932.994966 692.771321 
L 931.309732 692.771321 
z
" style="fill:#1f77b4;"/>
   </g>
   <g id="patch_232">
    <path clip-path="url(#p4d3505b262)" d="M 934.680201 768.96 
L 936.365436 768.96 
L 936.365436 697.032198 
L 934.680201 697.032198 
z
" style="fill:#1f77b4;"/>
   </g>
   <g id="patch_233">
    <path clip-path="url(#p4d3505b262)" d="M 938.050671 768.96 
L 939.735906 768.96 
L 939.735906 700.791795 
L 938.050671 700.791795 
z
" style="fill:#1f77b4;"/>
   </g>
   <g id="patch_234">
    <path clip-path="url(#p4d3505b262)" d="M 941.421141 768.96 
L 943.106376 768.96 
L 943.106376 702.989266 
L 941.421141 702.989266 
z
" style="fill:#1f77b4;"/>
   </g>
   <g id="patch_235">
    <path clip-path="url(#p4d3505b262)" d="M 944.791611 768.96 
L 946.476846 768.96 
L 946.476846 701.549544 
L 944.791611 701.549544 
z
" style="fill:#1f77b4;"/>
   </g>
   <g id="patch_236">
    <path clip-path="url(#p4d3505b262)" d="M 948.162081 768.96 
L 949.847315 768.96 
L 949.847315 724.130444 
L 948.162081 724.130444 
z
" style="fill:#1f77b4;"/>
   </g>
   <g id="patch_237">
    <path clip-path="url(#p4d3505b262)" d="M 951.53255 768.96 
L 953.217785 768.96 
L 953.217785 714.227256 
L 951.53255 714.227256 
z
" style="fill:#1f77b4;"/>
   </g>
   <g id="patch_238">
    <path clip-path="url(#p4d3505b262)" d="M 954.90302 768.96 
L 956.588255 768.96 
L 956.588255 693.202655 
L 954.90302 693.202655 
z
" style="fill:#1f77b4;"/>
   </g>
   <g id="patch_239">
    <path clip-path="url(#p4d3505b262)" d="M 958.27349 768.96 
L 959.958725 768.96 
L 959.958725 696.484288 
L 958.27349 696.484288 
z
" style="fill:#1f77b4;"/>
   </g>
   <g id="patch_240">
    <path clip-path="url(#p4d3505b262)" d="M 961.64396 768.96 
L 963.329195 768.96 
L 963.329195 692.468222 
L 961.64396 692.468222 
z
" style="fill:#1f77b4;"/>
   </g>
   <g id="patch_241">
    <path clip-path="url(#p4d3505b262)" d="M 965.01443 768.96 
L 966.699664 768.96 
L 966.699664 682.366854 
L 965.01443 682.366854 
z
" style="fill:#1f77b4;"/>
   </g>
   <g id="patch_242">
    <path clip-path="url(#p4d3505b262)" d="M 968.384899 768.96 
L 970.070134 768.96 
L 970.070134 642.940626 
L 968.384899 642.940626 
z
" style="fill:#1f77b4;"/>
   </g>
   <g id="patch_243">
    <path clip-path="url(#p4d3505b262)" d="M 971.755369 768.96 
L 973.440604 768.96 
L 973.440604 564.502017 
L 971.755369 564.502017 
z
" style="fill:#1f77b4;"/>
   </g>
   <g id="patch_244">
    <path clip-path="url(#p4d3505b262)" d="M 975.125839 768.96 
L 976.811074 768.96 
L 976.811074 674.14237 
L 975.125839 674.14237 
z
" style="fill:#1f77b4;"/>
   </g>
   <g id="patch_245">
    <path clip-path="url(#p4d3505b262)" d="M 978.496309 768.96 
L 980.181544 768.96 
L 980.181544 693.884628 
L 978.496309 693.884628 
z
" style="fill:#1f77b4;"/>
   </g>
   <g id="patch_246">
    <path clip-path="url(#p4d3505b262)" d="M 981.866779 768.96 
L 983.552013 768.96 
L 983.552013 698.92074 
L 981.866779 698.92074 
z
" style="fill:#1f77b4;"/>
   </g>
   <g id="patch_247">
    <path clip-path="url(#p4d3505b262)" d="M 985.237248 768.96 
L 986.922483 768.96 
L 986.922483 704.504762 
L 985.237248 704.504762 
z
" style="fill:#1f77b4;"/>
   </g>
   <g id="patch_248">
    <path clip-path="url(#p4d3505b262)" d="M 988.607718 768.96 
L 990.292953 768.96 
L 990.292953 703.770329 
L 988.607718 703.770329 
z
" style="fill:#1f77b4;"/>
   </g>
   <g id="patch_249">
    <path clip-path="url(#p4d3505b262)" d="M 991.978188 768.96 
L 993.663423 768.96 
L 993.663423 707.996233 
L 991.978188 707.996233 
z
" style="fill:#1f77b4;"/>
   </g>
   <g id="patch_250">
    <path clip-path="url(#p4d3505b262)" d="M 995.348658 768.96 
L 997.033893 768.96 
L 997.033893 727.103149 
L 995.348658 727.103149 
z
" style="fill:#1f77b4;"/>
   </g>
   <g id="patch_251">
    <path clip-path="url(#p4d3505b262)" d="M 998.719128 768.96 
L 1000.404362 768.96 
L 1000.404362 739.524392 
L 998.719128 739.524392 
z
" style="fill:#1f77b4;"/>
   </g>
   <g id="patch_252">
    <path clip-path="url(#p4d3505b262)" d="M 1002.089597 768.96 
L 1003.774832 768.96 
L 1003.774832 732.966955 
L 1002.089597 732.966955 
z
" style="fill:#1f77b4;"/>
   </g>
   <g id="patch_253">
    <path clip-path="url(#p4d3505b262)" d="M 1005.460067 768.96 
L 1007.145302 768.96 
L 1007.145302 695.767341 
L 1005.460067 695.767341 
z
" style="fill:#1f77b4;"/>
   </g>
   <g id="patch_254">
    <path clip-path="url(#p4d3505b262)" d="M 1008.830537 768.96 
L 1010.515772 768.96 
L 1010.515772 704.877808 
L 1008.830537 704.877808 
z
" style="fill:#1f77b4;"/>
   </g>
   <g id="patch_255">
    <path clip-path="url(#p4d3505b262)" d="M 1012.201007 768.96 
L 1013.886242 768.96 
L 1013.886242 707.81554 
L 1012.201007 707.81554 
z
" style="fill:#1f77b4;"/>
   </g>
   <g id="patch_256">
    <path clip-path="url(#p4d3505b262)" d="M 1015.571477 768.96 
L 1017.256711 768.96 
L 1017.256711 712.694273 
L 1015.571477 712.694273 
z
" style="fill:#1f77b4;"/>
   </g>
   <g id="patch_257">
    <path clip-path="url(#p4d3505b262)" d="M 1018.941946 768.96 
L 1020.627181 768.96 
L 1020.627181 727.091491 
L 1018.941946 727.091491 
z
" style="fill:#1f77b4;"/>
   </g>
   <g id="patch_258">
    <path clip-path="url(#p4d3505b262)" d="M 1022.312416 768.96 
L 1023.997651 768.96 
L 1023.997651 722.311848 
L 1022.312416 722.311848 
z
" style="fill:#1f77b4;"/>
   </g>
   <g id="patch_259">
    <path clip-path="url(#p4d3505b262)" d="M 1025.682886 768.96 
L 1027.368121 768.96 
L 1027.368121 706.305872 
L 1025.682886 706.305872 
z
" style="fill:#1f77b4;"/>
   </g>
   <g id="patch_260">
    <path clip-path="url(#p4d3505b262)" d="M 1029.053356 768.96 
L 1030.738591 768.96 
L 1030.738591 709.540874 
L 1029.053356 709.540874 
z
" style="fill:#1f77b4;"/>
   </g>
   <g id="patch_261">
    <path clip-path="url(#p4d3505b262)" d="M 1032.423826 768.96 
L 1034.10906 768.96 
L 1034.10906 709.039594 
L 1032.423826 709.039594 
z
" style="fill:#1f77b4;"/>
   </g>
   <g id="patch_262">
    <path clip-path="url(#p4d3505b262)" d="M 1035.794295 768.96 
L 1037.47953 768.96 
L 1037.47953 706.894584 
L 1035.794295 706.894584 
z
" style="fill:#1f77b4;"/>
   </g>
   <g id="patch_263">
    <path clip-path="url(#p4d3505b262)" d="M 1039.164765 768.96 
L 1040.85 768.96 
L 1040.85 707.827197 
L 1039.164765 707.827197 
z
" style="fill:#1f77b4;"/>
   </g>
   <g id="patch_264">
    <path clip-path="url(#p4d3505b262)" d="M 1042.535235 768.96 
L 1044.22047 768.96 
L 1044.22047 724.404399 
L 1042.535235 724.404399 
z
" style="fill:#1f77b4;"/>
   </g>
   <g id="patch_265">
    <path clip-path="url(#p4d3505b262)" d="M 1045.905705 768.96 
L 1047.59094 768.96 
L 1047.59094 727.820095 
L 1045.905705 727.820095 
z
" style="fill:#1f77b4;"/>
   </g>
   <g id="patch_266">
    <path clip-path="url(#p4d3505b262)" d="M 1049.276174 768.96 
L 1050.961409 768.96 
L 1050.961409 698.850794 
L 1049.276174 698.850794 
z
" style="fill:#1f77b4;"/>
   </g>
   <g id="patch_267">
    <path clip-path="url(#p4d3505b262)" d="M 1052.646644 768.96 
L 1054.331879 768.96 
L 1054.331879 718.167547 
L 1052.646644 718.167547 
z
" style="fill:#1f77b4;"/>
   </g>
   <g id="patch_268">
    <path clip-path="url(#p4d3505b262)" d="M 1056.017114 768.96 
L 1057.702349 768.96 
L 1057.702349 695.085368 
L 1056.017114 695.085368 
z
" style="fill:#1f77b4;"/>
   </g>
   <g id="patch_269">
    <path clip-path="url(#p4d3505b262)" d="M 1059.387584 768.96 
L 1061.072819 768.96 
L 1061.072819 698.180478 
L 1059.387584 698.180478 
z
" style="fill:#1f77b4;"/>
   </g>
   <g id="patch_270">
    <path clip-path="url(#p4d3505b262)" d="M 1062.758054 768.96 
L 1064.443289 768.96 
L 1064.443289 712.076417 
L 1062.758054 712.076417 
z
" style="fill:#1f77b4;"/>
   </g>
   <g id="patch_271">
    <path clip-path="url(#p4d3505b262)" d="M 1066.128523 768.96 
L 1067.813758 768.96 
L 1067.813758 731.719585 
L 1066.128523 731.719585 
z
" style="fill:#1f77b4;"/>
   </g>
   <g id="patch_272">
    <path clip-path="url(#p4d3505b262)" d="M 1069.498993 768.96 
L 1071.184228 768.96 
L 1071.184228 722.323505 
L 1069.498993 722.323505 
z
" style="fill:#1f77b4;"/>
   </g>
   <g id="patch_273">
    <path clip-path="url(#p4d3505b262)" d="M 1072.869463 768.96 
L 1074.554698 768.96 
L 1074.554698 714.174797 
L 1072.869463 714.174797 
z
" style="fill:#1f77b4;"/>
   </g>
   <g id="patch_274">
    <path clip-path="url(#p4d3505b262)" d="M 1076.239933 768.96 
L 1077.925168 768.96 
L 1077.925168 729.417195 
L 1076.239933 729.417195 
z
" style="fill:#1f77b4;"/>
   </g>
   <g id="patch_275">
    <path clip-path="url(#p4d3505b262)" d="M 1079.610403 768.96 
L 1081.295638 768.96 
L 1081.295638 741.681061 
L 1079.610403 741.681061 
z
" style="fill:#1f77b4;"/>
   </g>
   <g id="patch_276">
    <path clip-path="url(#p4d3505b262)" d="M 1082.980872 768.96 
L 1084.666107 768.96 
L 1084.666107 700.931687 
L 1082.980872 700.931687 
z
" style="fill:#1f77b4;"/>
   </g>
   <g id="patch_277">
    <path clip-path="url(#p4d3505b262)" d="M 1086.351342 768.96 
L 1088.036577 768.96 
L 1088.036577 679.942059 
L 1086.351342 679.942059 
z
" style="fill:#1f77b4;"/>
   </g>
   <g id="patch_278">
    <path clip-path="url(#p4d3505b262)" d="M 1089.721812 768.96 
L 1091.407047 768.96 
L 1091.407047 738.067184 
L 1089.721812 738.067184 
z
" style="fill:#1f77b4;"/>
   </g>
   <g id="patch_279">
    <path clip-path="url(#p4d3505b262)" d="M 1093.092282 768.96 
L 1094.777517 768.96 
L 1094.777517 711.242893 
L 1093.092282 711.242893 
z
" style="fill:#1f77b4;"/>
   </g>
   <g id="patch_280">
    <path clip-path="url(#p4d3505b262)" d="M 1096.462752 768.96 
L 1098.147987 768.96 
L 1098.147987 736.440939 
L 1096.462752 736.440939 
z
" style="fill:#1f77b4;"/>
   </g>
   <g id="patch_281">
    <path clip-path="url(#p4d3505b262)" d="M 1099.833221 768.96 
L 1101.518456 768.96 
L 1101.518456 701.724409 
L 1099.833221 701.724409 
z
" style="fill:#1f77b4;"/>
   </g>
   <g id="patch_282">
    <path clip-path="url(#p4d3505b262)" d="M 1103.203691 768.96 
L 1104.888926 768.96 
L 1104.888926 723.022965 
L 1103.203691 723.022965 
z
" style="fill:#1f77b4;"/>
   </g>
   <g id="patch_283">
    <path clip-path="url(#p4d3505b262)" d="M 1106.574161 768.96 
L 1108.259396 768.96 
L 1108.259396 724.159588 
L 1106.574161 724.159588 
z
" style="fill:#1f77b4;"/>
   </g>
   <g id="patch_284">
    <path clip-path="url(#p4d3505b262)" d="M 1109.944631 768.96 
L 1111.629866 768.96 
L 1111.629866 737.396868 
L 1109.944631 737.396868 
z
" style="fill:#1f77b4;"/>
   </g>
   <g id="patch_285">
    <path clip-path="url(#p4d3505b262)" d="M 1113.315101 768.96 
L 1115.000336 768.96 
L 1115.000336 746.046857 
L 1113.315101 746.046857 
z
" style="fill:#1f77b4;"/>
   </g>
   <g id="patch_286">
    <path clip-path="url(#p4d3505b262)" d="M 1116.68557 768.96 
L 1118.370805 768.96 
L 1118.370805 737.764085 
L 1116.68557 737.764085 
z
" style="fill:#1f77b4;"/>
   </g>
   <g id="patch_287">
    <path clip-path="url(#p4d3505b262)" d="M 1120.05604 768.96 
L 1121.741275 768.96 
L 1121.741275 722.568316 
L 1120.05604 722.568316 
z
" style="fill:#1f77b4;"/>
   </g>
   <g id="patch_288">
    <path clip-path="url(#p4d3505b262)" d="M 1123.42651 768.96 
L 1125.111745 768.96 
L 1125.111745 718.470647 
L 1123.42651 718.470647 
z
" style="fill:#1f77b4;"/>
   </g>
   <g id="patch_289">
    <path clip-path="url(#p4d3505b262)" d="M 1126.79698 768.96 
L 1128.482215 768.96 
L 1128.482215 732.413216 
L 1126.79698 732.413216 
z
" style="fill:#1f77b4;"/>
   </g>
   <g id="patch_290">
    <path clip-path="url(#p4d3505b262)" d="M 1130.16745 768.96 
L 1131.852685 768.96 
L 1131.852685 708.019549 
L 1130.16745 708.019549 
z
" style="fill:#1f77b4;"/>
   </g>
   <g id="patch_291">
    <path clip-path="url(#p4d3505b262)" d="M 1133.537919 768.96 
L 1135.223154 768.96 
L 1135.223154 732.535621 
L 1133.537919 732.535621 
z
" style="fill:#1f77b4;"/>
   </g>
   <g id="patch_292">
    <path clip-path="url(#p4d3505b262)" d="M 1136.908389 768.96 
L 1138.593624 768.96 
L 1138.593624 747.550696 
L 1136.908389 747.550696 
z
" style="fill:#1f77b4;"/>
   </g>
   <g id="patch_293">
    <path clip-path="url(#p4d3505b262)" d="M 1140.278859 768.96 
L 1141.964094 768.96 
L 1141.964094 734.581542 
L 1140.278859 734.581542 
z
" style="fill:#1f77b4;"/>
   </g>
   <g id="patch_294">
    <path clip-path="url(#p4d3505b262)" d="M 1143.649329 768.96 
L 1145.334564 768.96 
L 1145.334564 729.038321 
L 1143.649329 729.038321 
z
" style="fill:#1f77b4;"/>
   </g>
   <g id="patch_295">
    <path clip-path="url(#p4d3505b262)" d="M 1147.019799 768.96 
L 1148.705034 768.96 
L 1148.705034 727.621915 
L 1147.019799 727.621915 
z
" style="fill:#1f77b4;"/>
   </g>
   <g id="patch_296">
    <path clip-path="url(#p4d3505b262)" d="M 1150.390268 768.96 
L 1152.075503 768.96 
L 1152.075503 722.364307 
L 1150.390268 722.364307 
z
" style="fill:#1f77b4;"/>
   </g>
   <g id="patch_297">
    <path clip-path="url(#p4d3505b262)" d="M 1153.760738 768.96 
L 1155.445973 768.96 
L 1155.445973 725.476904 
L 1153.760738 725.476904 
z
" style="fill:#1f77b4;"/>
   </g>
   <g id="patch_298">
    <path clip-path="url(#p4d3505b262)" d="M 1157.131208 768.96 
L 1158.816443 768.96 
L 1158.816443 730.454728 
L 1157.131208 730.454728 
z
" style="fill:#1f77b4;"/>
   </g>
   <g id="patch_299">
    <path clip-path="url(#p4d3505b262)" d="M 1160.501678 768.96 
L 1162.186913 768.96 
L 1162.186913 737.501787 
L 1160.501678 737.501787 
z
" style="fill:#1f77b4;"/>
   </g>
   <g id="patch_300">
    <path clip-path="url(#p4d3505b262)" d="M 1163.872148 768.96 
L 1165.557383 768.96 
L 1165.557383 726.49695 
L 1163.872148 726.49695 
z
" style="fill:#1f77b4;"/>
   </g>
   <g id="matplotlib.axis_1">
    <g id="xtick_1">
     <g id="line2d_1">
      <defs>
       <path d="M 0 0 
L 0 3.5 
" id="m74964ca1e0" style="stroke:#000000;stroke-width:0.8;"/>
      </defs>
      <g>
       <use style="stroke:#000000;stroke-width:0.8;" x="163.685235" xlink:href="#m74964ca1e0" y="768.96"/>
      </g>
     </g>
     <g id="text_1">
      <!-- January -->
      <g transform="translate(144.729766 783.558437)scale(0.1 -0.1)">
       <defs>
        <path d="M 628 4666 
L 1259 4666 
L 1259 325 
Q 1259 -519 939 -900 
Q 619 -1281 -91 -1281 
L -331 -1281 
L -331 -750 
L -134 -750 
Q 284 -750 456 -515 
Q 628 -281 628 325 
L 628 4666 
z
" id="DejaVuSans-4a" transform="scale(0.015625)"/>
        <path d="M 2194 1759 
Q 1497 1759 1228 1600 
Q 959 1441 959 1056 
Q 959 750 1161 570 
Q 1363 391 1709 391 
Q 2188 391 2477 730 
Q 2766 1069 2766 1631 
L 2766 1759 
L 2194 1759 
z
M 3341 1997 
L 3341 0 
L 2766 0 
L 2766 531 
Q 2569 213 2275 61 
Q 1981 -91 1556 -91 
Q 1019 -91 701 211 
Q 384 513 384 1019 
Q 384 1609 779 1909 
Q 1175 2209 1959 2209 
L 2766 2209 
L 2766 2266 
Q 2766 2663 2505 2880 
Q 2244 3097 1772 3097 
Q 1472 3097 1187 3025 
Q 903 2953 641 2809 
L 641 3341 
Q 956 3463 1253 3523 
Q 1550 3584 1831 3584 
Q 2591 3584 2966 3190 
Q 3341 2797 3341 1997 
z
" id="DejaVuSans-61" transform="scale(0.015625)"/>
        <path d="M 3513 2113 
L 3513 0 
L 2938 0 
L 2938 2094 
Q 2938 2591 2744 2837 
Q 2550 3084 2163 3084 
Q 1697 3084 1428 2787 
Q 1159 2491 1159 1978 
L 1159 0 
L 581 0 
L 581 3500 
L 1159 3500 
L 1159 2956 
Q 1366 3272 1645 3428 
Q 1925 3584 2291 3584 
Q 2894 3584 3203 3211 
Q 3513 2838 3513 2113 
z
" id="DejaVuSans-6e" transform="scale(0.015625)"/>
        <path d="M 544 1381 
L 544 3500 
L 1119 3500 
L 1119 1403 
Q 1119 906 1312 657 
Q 1506 409 1894 409 
Q 2359 409 2629 706 
Q 2900 1003 2900 1516 
L 2900 3500 
L 3475 3500 
L 3475 0 
L 2900 0 
L 2900 538 
Q 2691 219 2414 64 
Q 2138 -91 1772 -91 
Q 1169 -91 856 284 
Q 544 659 544 1381 
z
M 1991 3584 
L 1991 3584 
z
" id="DejaVuSans-75" transform="scale(0.015625)"/>
        <path d="M 2631 2963 
Q 2534 3019 2420 3045 
Q 2306 3072 2169 3072 
Q 1681 3072 1420 2755 
Q 1159 2438 1159 1844 
L 1159 0 
L 581 0 
L 581 3500 
L 1159 3500 
L 1159 2956 
Q 1341 3275 1631 3429 
Q 1922 3584 2338 3584 
Q 2397 3584 2469 3576 
Q 2541 3569 2628 3553 
L 2631 2963 
z
" id="DejaVuSans-72" transform="scale(0.015625)"/>
        <path d="M 2059 -325 
Q 1816 -950 1584 -1140 
Q 1353 -1331 966 -1331 
L 506 -1331 
L 506 -850 
L 844 -850 
Q 1081 -850 1212 -737 
Q 1344 -625 1503 -206 
L 1606 56 
L 191 3500 
L 800 3500 
L 1894 763 
L 2988 3500 
L 3597 3500 
L 2059 -325 
z
" id="DejaVuSans-79" transform="scale(0.015625)"/>
       </defs>
       <use xlink:href="#DejaVuSans-4a"/>
       <use x="29.492188" xlink:href="#DejaVuSans-61"/>
       <use x="90.771484" xlink:href="#DejaVuSans-6e"/>
       <use x="154.150391" xlink:href="#DejaVuSans-75"/>
       <use x="217.529297" xlink:href="#DejaVuSans-61"/>
       <use x="278.808594" xlink:href="#DejaVuSans-72"/>
       <use x="319.921875" xlink:href="#DejaVuSans-79"/>
      </g>
     </g>
    </g>
    <g id="xtick_2">
     <g id="line2d_2">
      <g>
       <use style="stroke:#000000;stroke-width:0.8;" x="268.169799" xlink:href="#m74964ca1e0" y="768.96"/>
      </g>
     </g>
     <g id="text_2">
      <!-- February -->
      <g transform="translate(246.015111 783.558437)scale(0.1 -0.1)">
       <defs>
        <path d="M 628 4666 
L 3309 4666 
L 3309 4134 
L 1259 4134 
L 1259 2759 
L 3109 2759 
L 3109 2228 
L 1259 2228 
L 1259 0 
L 628 0 
L 628 4666 
z
" id="DejaVuSans-46" transform="scale(0.015625)"/>
        <path d="M 3597 1894 
L 3597 1613 
L 953 1613 
Q 991 1019 1311 708 
Q 1631 397 2203 397 
Q 2534 397 2845 478 
Q 3156 559 3463 722 
L 3463 178 
Q 3153 47 2828 -22 
Q 2503 -91 2169 -91 
Q 1331 -91 842 396 
Q 353 884 353 1716 
Q 353 2575 817 3079 
Q 1281 3584 2069 3584 
Q 2775 3584 3186 3129 
Q 3597 2675 3597 1894 
z
M 3022 2063 
Q 3016 2534 2758 2815 
Q 2500 3097 2075 3097 
Q 1594 3097 1305 2825 
Q 1016 2553 972 2059 
L 3022 2063 
z
" id="DejaVuSans-65" transform="scale(0.015625)"/>
        <path d="M 3116 1747 
Q 3116 2381 2855 2742 
Q 2594 3103 2138 3103 
Q 1681 3103 1420 2742 
Q 1159 2381 1159 1747 
Q 1159 1113 1420 752 
Q 1681 391 2138 391 
Q 2594 391 2855 752 
Q 3116 1113 3116 1747 
z
M 1159 2969 
Q 1341 3281 1617 3432 
Q 1894 3584 2278 3584 
Q 2916 3584 3314 3078 
Q 3713 2572 3713 1747 
Q 3713 922 3314 415 
Q 2916 -91 2278 -91 
Q 1894 -91 1617 61 
Q 1341 213 1159 525 
L 1159 0 
L 581 0 
L 581 4863 
L 1159 4863 
L 1159 2969 
z
" id="DejaVuSans-62" transform="scale(0.015625)"/>
       </defs>
       <use xlink:href="#DejaVuSans-46"/>
       <use x="52.019531" xlink:href="#DejaVuSans-65"/>
       <use x="113.542969" xlink:href="#DejaVuSans-62"/>
       <use x="177.019531" xlink:href="#DejaVuSans-72"/>
       <use x="218.132812" xlink:href="#DejaVuSans-75"/>
       <use x="281.511719" xlink:href="#DejaVuSans-61"/>
       <use x="342.791016" xlink:href="#DejaVuSans-72"/>
       <use x="383.904297" xlink:href="#DejaVuSans-79"/>
      </g>
     </g>
    </g>
    <g id="xtick_3">
     <g id="line2d_3">
      <g>
       <use style="stroke:#000000;stroke-width:0.8;" x="362.542953" xlink:href="#m74964ca1e0" y="768.96"/>
      </g>
     </g>
     <g id="text_3">
      <!-- March -->
      <g transform="translate(347.303891 783.558437)scale(0.1 -0.1)">
       <defs>
        <path d="M 628 4666 
L 1569 4666 
L 2759 1491 
L 3956 4666 
L 4897 4666 
L 4897 0 
L 4281 0 
L 4281 4097 
L 3078 897 
L 2444 897 
L 1241 4097 
L 1241 0 
L 628 0 
L 628 4666 
z
" id="DejaVuSans-4d" transform="scale(0.015625)"/>
        <path d="M 3122 3366 
L 3122 2828 
Q 2878 2963 2633 3030 
Q 2388 3097 2138 3097 
Q 1578 3097 1268 2742 
Q 959 2388 959 1747 
Q 959 1106 1268 751 
Q 1578 397 2138 397 
Q 2388 397 2633 464 
Q 2878 531 3122 666 
L 3122 134 
Q 2881 22 2623 -34 
Q 2366 -91 2075 -91 
Q 1284 -91 818 406 
Q 353 903 353 1747 
Q 353 2603 823 3093 
Q 1294 3584 2113 3584 
Q 2378 3584 2631 3529 
Q 2884 3475 3122 3366 
z
" id="DejaVuSans-63" transform="scale(0.015625)"/>
        <path d="M 3513 2113 
L 3513 0 
L 2938 0 
L 2938 2094 
Q 2938 2591 2744 2837 
Q 2550 3084 2163 3084 
Q 1697 3084 1428 2787 
Q 1159 2491 1159 1978 
L 1159 0 
L 581 0 
L 581 4863 
L 1159 4863 
L 1159 2956 
Q 1366 3272 1645 3428 
Q 1925 3584 2291 3584 
Q 2894 3584 3203 3211 
Q 3513 2838 3513 2113 
z
" id="DejaVuSans-68" transform="scale(0.015625)"/>
       </defs>
       <use xlink:href="#DejaVuSans-4d"/>
       <use x="86.279297" xlink:href="#DejaVuSans-61"/>
       <use x="147.558594" xlink:href="#DejaVuSans-72"/>
       <use x="186.421875" xlink:href="#DejaVuSans-63"/>
       <use x="241.402344" xlink:href="#DejaVuSans-68"/>
      </g>
     </g>
    </g>
    <g id="xtick_4">
     <g id="line2d_4">
      <g>
       <use style="stroke:#000000;stroke-width:0.8;" x="467.027517" xlink:href="#m74964ca1e0" y="768.96"/>
      </g>
     </g>
     <g id="text_4">
      <!-- April -->
      <g transform="translate(455.599392 783.558437)scale(0.1 -0.1)">
       <defs>
        <path d="M 2188 4044 
L 1331 1722 
L 3047 1722 
L 2188 4044 
z
M 1831 4666 
L 2547 4666 
L 4325 0 
L 3669 0 
L 3244 1197 
L 1141 1197 
L 716 0 
L 50 0 
L 1831 4666 
z
" id="DejaVuSans-41" transform="scale(0.015625)"/>
        <path d="M 1159 525 
L 1159 -1331 
L 581 -1331 
L 581 3500 
L 1159 3500 
L 1159 2969 
Q 1341 3281 1617 3432 
Q 1894 3584 2278 3584 
Q 2916 3584 3314 3078 
Q 3713 2572 3713 1747 
Q 3713 922 3314 415 
Q 2916 -91 2278 -91 
Q 1894 -91 1617 61 
Q 1341 213 1159 525 
z
M 3116 1747 
Q 3116 2381 2855 2742 
Q 2594 3103 2138 3103 
Q 1681 3103 1420 2742 
Q 1159 2381 1159 1747 
Q 1159 1113 1420 752 
Q 1681 391 2138 391 
Q 2594 391 2855 752 
Q 3116 1113 3116 1747 
z
" id="DejaVuSans-70" transform="scale(0.015625)"/>
        <path d="M 603 3500 
L 1178 3500 
L 1178 0 
L 603 0 
L 603 3500 
z
M 603 4863 
L 1178 4863 
L 1178 4134 
L 603 4134 
L 603 4863 
z
" id="DejaVuSans-69" transform="scale(0.015625)"/>
        <path d="M 603 4863 
L 1178 4863 
L 1178 0 
L 603 0 
L 603 4863 
z
" id="DejaVuSans-6c" transform="scale(0.015625)"/>
       </defs>
       <use xlink:href="#DejaVuSans-41"/>
       <use x="68.408203" xlink:href="#DejaVuSans-70"/>
       <use x="131.884766" xlink:href="#DejaVuSans-72"/>
       <use x="172.998047" xlink:href="#DejaVuSans-69"/>
       <use x="200.78125" xlink:href="#DejaVuSans-6c"/>
      </g>
     </g>
    </g>
    <g id="xtick_5">
     <g id="line2d_5">
      <g>
       <use style="stroke:#000000;stroke-width:0.8;" x="568.141611" xlink:href="#m74964ca1e0" y="768.96"/>
      </g>
     </g>
     <g id="text_5">
      <!-- May -->
      <g transform="translate(557.804111 783.558437)scale(0.1 -0.1)">
       <use xlink:href="#DejaVuSans-4d"/>
       <use x="86.279297" xlink:href="#DejaVuSans-61"/>
       <use x="147.558594" xlink:href="#DejaVuSans-79"/>
      </g>
     </g>
    </g>
    <g id="xtick_6">
     <g id="line2d_6">
      <g>
       <use style="stroke:#000000;stroke-width:0.8;" x="672.626174" xlink:href="#m74964ca1e0" y="768.96"/>
      </g>
     </g>
     <g id="text_6">
      <!-- June -->
      <g transform="translate(661.737112 783.558437)scale(0.1 -0.1)">
       <use xlink:href="#DejaVuSans-4a"/>
       <use x="29.492188" xlink:href="#DejaVuSans-75"/>
       <use x="92.871094" xlink:href="#DejaVuSans-6e"/>
       <use x="156.25" xlink:href="#DejaVuSans-65"/>
      </g>
     </g>
    </g>
    <g id="xtick_7">
     <g id="line2d_7">
      <g>
       <use style="stroke:#000000;stroke-width:0.8;" x="773.740268" xlink:href="#m74964ca1e0" y="768.96"/>
      </g>
     </g>
     <g id="text_7">
      <!-- July -->
      <g transform="translate(764.748081 783.558437)scale(0.1 -0.1)">
       <use xlink:href="#DejaVuSans-4a"/>
       <use x="29.492188" xlink:href="#DejaVuSans-75"/>
       <use x="92.871094" xlink:href="#DejaVuSans-6c"/>
       <use x="120.654297" xlink:href="#DejaVuSans-79"/>
      </g>
     </g>
    </g>
    <g id="xtick_8">
     <g id="line2d_8">
      <g>
       <use style="stroke:#000000;stroke-width:0.8;" x="878.224832" xlink:href="#m74964ca1e0" y="768.96"/>
      </g>
     </g>
     <g id="text_8">
      <!-- August -->
      <g transform="translate(860.727957 783.558437)scale(0.1 -0.1)">
       <defs>
        <path d="M 2906 1791 
Q 2906 2416 2648 2759 
Q 2391 3103 1925 3103 
Q 1463 3103 1205 2759 
Q 947 2416 947 1791 
Q 947 1169 1205 825 
Q 1463 481 1925 481 
Q 2391 481 2648 825 
Q 2906 1169 2906 1791 
z
M 3481 434 
Q 3481 -459 3084 -895 
Q 2688 -1331 1869 -1331 
Q 1566 -1331 1297 -1286 
Q 1028 -1241 775 -1147 
L 775 -588 
Q 1028 -725 1275 -790 
Q 1522 -856 1778 -856 
Q 2344 -856 2625 -561 
Q 2906 -266 2906 331 
L 2906 616 
Q 2728 306 2450 153 
Q 2172 0 1784 0 
Q 1141 0 747 490 
Q 353 981 353 1791 
Q 353 2603 747 3093 
Q 1141 3584 1784 3584 
Q 2172 3584 2450 3431 
Q 2728 3278 2906 2969 
L 2906 3500 
L 3481 3500 
L 3481 434 
z
" id="DejaVuSans-67" transform="scale(0.015625)"/>
        <path d="M 2834 3397 
L 2834 2853 
Q 2591 2978 2328 3040 
Q 2066 3103 1784 3103 
Q 1356 3103 1142 2972 
Q 928 2841 928 2578 
Q 928 2378 1081 2264 
Q 1234 2150 1697 2047 
L 1894 2003 
Q 2506 1872 2764 1633 
Q 3022 1394 3022 966 
Q 3022 478 2636 193 
Q 2250 -91 1575 -91 
Q 1294 -91 989 -36 
Q 684 19 347 128 
L 347 722 
Q 666 556 975 473 
Q 1284 391 1588 391 
Q 1994 391 2212 530 
Q 2431 669 2431 922 
Q 2431 1156 2273 1281 
Q 2116 1406 1581 1522 
L 1381 1569 
Q 847 1681 609 1914 
Q 372 2147 372 2553 
Q 372 3047 722 3315 
Q 1072 3584 1716 3584 
Q 2034 3584 2315 3537 
Q 2597 3491 2834 3397 
z
" id="DejaVuSans-73" transform="scale(0.015625)"/>
        <path d="M 1172 4494 
L 1172 3500 
L 2356 3500 
L 2356 3053 
L 1172 3053 
L 1172 1153 
Q 1172 725 1289 603 
Q 1406 481 1766 481 
L 2356 481 
L 2356 0 
L 1766 0 
Q 1100 0 847 248 
Q 594 497 594 1153 
L 594 3053 
L 172 3053 
L 172 3500 
L 594 3500 
L 594 4494 
L 1172 4494 
z
" id="DejaVuSans-74" transform="scale(0.015625)"/>
       </defs>
       <use xlink:href="#DejaVuSans-41"/>
       <use x="68.408203" xlink:href="#DejaVuSans-75"/>
       <use x="131.787109" xlink:href="#DejaVuSans-67"/>
       <use x="195.263672" xlink:href="#DejaVuSans-75"/>
       <use x="258.642578" xlink:href="#DejaVuSans-73"/>
       <use x="310.742188" xlink:href="#DejaVuSans-74"/>
      </g>
     </g>
    </g>
    <g id="xtick_9">
     <g id="line2d_9">
      <g>
       <use style="stroke:#000000;stroke-width:0.8;" x="982.709396" xlink:href="#m74964ca1e0" y="768.96"/>
      </g>
     </g>
     <g id="text_9">
      <!-- September -->
      <g transform="translate(955.071115 783.558437)scale(0.1 -0.1)">
       <defs>
        <path d="M 3425 4513 
L 3425 3897 
Q 3066 4069 2747 4153 
Q 2428 4238 2131 4238 
Q 1616 4238 1336 4038 
Q 1056 3838 1056 3469 
Q 1056 3159 1242 3001 
Q 1428 2844 1947 2747 
L 2328 2669 
Q 3034 2534 3370 2195 
Q 3706 1856 3706 1288 
Q 3706 609 3251 259 
Q 2797 -91 1919 -91 
Q 1588 -91 1214 -16 
Q 841 59 441 206 
L 441 856 
Q 825 641 1194 531 
Q 1563 422 1919 422 
Q 2459 422 2753 634 
Q 3047 847 3047 1241 
Q 3047 1584 2836 1778 
Q 2625 1972 2144 2069 
L 1759 2144 
Q 1053 2284 737 2584 
Q 422 2884 422 3419 
Q 422 4038 858 4394 
Q 1294 4750 2059 4750 
Q 2388 4750 2728 4690 
Q 3069 4631 3425 4513 
z
" id="DejaVuSans-53" transform="scale(0.015625)"/>
        <path d="M 3328 2828 
Q 3544 3216 3844 3400 
Q 4144 3584 4550 3584 
Q 5097 3584 5394 3201 
Q 5691 2819 5691 2113 
L 5691 0 
L 5113 0 
L 5113 2094 
Q 5113 2597 4934 2840 
Q 4756 3084 4391 3084 
Q 3944 3084 3684 2787 
Q 3425 2491 3425 1978 
L 3425 0 
L 2847 0 
L 2847 2094 
Q 2847 2600 2669 2842 
Q 2491 3084 2119 3084 
Q 1678 3084 1418 2786 
Q 1159 2488 1159 1978 
L 1159 0 
L 581 0 
L 581 3500 
L 1159 3500 
L 1159 2956 
Q 1356 3278 1631 3431 
Q 1906 3584 2284 3584 
Q 2666 3584 2933 3390 
Q 3200 3197 3328 2828 
z
" id="DejaVuSans-6d" transform="scale(0.015625)"/>
       </defs>
       <use xlink:href="#DejaVuSans-53"/>
       <use x="63.476562" xlink:href="#DejaVuSans-65"/>
       <use x="125" xlink:href="#DejaVuSans-70"/>
       <use x="188.476562" xlink:href="#DejaVuSans-74"/>
       <use x="227.685547" xlink:href="#DejaVuSans-65"/>
       <use x="289.208984" xlink:href="#DejaVuSans-6d"/>
       <use x="386.621094" xlink:href="#DejaVuSans-62"/>
       <use x="450.097656" xlink:href="#DejaVuSans-65"/>
       <use x="511.621094" xlink:href="#DejaVuSans-72"/>
      </g>
     </g>
    </g>
    <g id="xtick_10">
     <g id="line2d_10">
      <g>
       <use style="stroke:#000000;stroke-width:0.8;" x="1083.82349" xlink:href="#m74964ca1e0" y="768.96"/>
      </g>
     </g>
     <g id="text_10">
      <!-- October -->
      <g transform="translate(1063.812552 783.558437)scale(0.1 -0.1)">
       <defs>
        <path d="M 2522 4238 
Q 1834 4238 1429 3725 
Q 1025 3213 1025 2328 
Q 1025 1447 1429 934 
Q 1834 422 2522 422 
Q 3209 422 3611 934 
Q 4013 1447 4013 2328 
Q 4013 3213 3611 3725 
Q 3209 4238 2522 4238 
z
M 2522 4750 
Q 3503 4750 4090 4092 
Q 4678 3434 4678 2328 
Q 4678 1225 4090 567 
Q 3503 -91 2522 -91 
Q 1538 -91 948 565 
Q 359 1222 359 2328 
Q 359 3434 948 4092 
Q 1538 4750 2522 4750 
z
" id="DejaVuSans-4f" transform="scale(0.015625)"/>
        <path d="M 1959 3097 
Q 1497 3097 1228 2736 
Q 959 2375 959 1747 
Q 959 1119 1226 758 
Q 1494 397 1959 397 
Q 2419 397 2687 759 
Q 2956 1122 2956 1747 
Q 2956 2369 2687 2733 
Q 2419 3097 1959 3097 
z
M 1959 3584 
Q 2709 3584 3137 3096 
Q 3566 2609 3566 1747 
Q 3566 888 3137 398 
Q 2709 -91 1959 -91 
Q 1206 -91 779 398 
Q 353 888 353 1747 
Q 353 2609 779 3096 
Q 1206 3584 1959 3584 
z
" id="DejaVuSans-6f" transform="scale(0.015625)"/>
       </defs>
       <use xlink:href="#DejaVuSans-4f"/>
       <use x="78.710938" xlink:href="#DejaVuSans-63"/>
       <use x="133.691406" xlink:href="#DejaVuSans-74"/>
       <use x="172.900391" xlink:href="#DejaVuSans-6f"/>
       <use x="234.082031" xlink:href="#DejaVuSans-62"/>
       <use x="297.558594" xlink:href="#DejaVuSans-65"/>
       <use x="359.082031" xlink:href="#DejaVuSans-72"/>
      </g>
     </g>
    </g>
   </g>
   <g id="matplotlib.axis_2">
    <g id="ytick_1">
     <g id="line2d_11">
      <defs>
       <path d="M 0 0 
L -3.5 0 
" id="m24b8eb8b28" style="stroke:#000000;stroke-width:0.8;"/>
      </defs>
      <g>
       <use style="stroke:#000000;stroke-width:0.8;" x="162" xlink:href="#m24b8eb8b28" y="768.96"/>
      </g>
     </g>
     <g id="text_11">
      <!-- 0 -->
      <g transform="translate(148.6375 772.759219)scale(0.1 -0.1)">
       <defs>
        <path d="M 2034 4250 
Q 1547 4250 1301 3770 
Q 1056 3291 1056 2328 
Q 1056 1369 1301 889 
Q 1547 409 2034 409 
Q 2525 409 2770 889 
Q 3016 1369 3016 2328 
Q 3016 3291 2770 3770 
Q 2525 4250 2034 4250 
z
M 2034 4750 
Q 2819 4750 3233 4129 
Q 3647 3509 3647 2328 
Q 3647 1150 3233 529 
Q 2819 -91 2034 -91 
Q 1250 -91 836 529 
Q 422 1150 422 2328 
Q 422 3509 836 4129 
Q 1250 4750 2034 4750 
z
" id="DejaVuSans-30" transform="scale(0.015625)"/>
       </defs>
       <use xlink:href="#DejaVuSans-30"/>
      </g>
     </g>
    </g>
    <g id="ytick_2">
     <g id="line2d_12">
      <g>
       <use style="stroke:#000000;stroke-width:0.8;" x="162" xlink:href="#m24b8eb8b28" y="652.383336"/>
      </g>
     </g>
     <g id="text_12">
      <!-- 20000 -->
      <g transform="translate(123.1875 656.182554)scale(0.1 -0.1)">
       <defs>
        <path d="M 1228 531 
L 3431 531 
L 3431 0 
L 469 0 
L 469 531 
Q 828 903 1448 1529 
Q 2069 2156 2228 2338 
Q 2531 2678 2651 2914 
Q 2772 3150 2772 3378 
Q 2772 3750 2511 3984 
Q 2250 4219 1831 4219 
Q 1534 4219 1204 4116 
Q 875 4013 500 3803 
L 500 4441 
Q 881 4594 1212 4672 
Q 1544 4750 1819 4750 
Q 2544 4750 2975 4387 
Q 3406 4025 3406 3419 
Q 3406 3131 3298 2873 
Q 3191 2616 2906 2266 
Q 2828 2175 2409 1742 
Q 1991 1309 1228 531 
z
" id="DejaVuSans-32" transform="scale(0.015625)"/>
       </defs>
       <use xlink:href="#DejaVuSans-32"/>
       <use x="63.623047" xlink:href="#DejaVuSans-30"/>
       <use x="127.246094" xlink:href="#DejaVuSans-30"/>
       <use x="190.869141" xlink:href="#DejaVuSans-30"/>
       <use x="254.492188" xlink:href="#DejaVuSans-30"/>
      </g>
     </g>
    </g>
    <g id="ytick_3">
     <g id="line2d_13">
      <g>
       <use style="stroke:#000000;stroke-width:0.8;" x="162" xlink:href="#m24b8eb8b28" y="535.806671"/>
      </g>
     </g>
     <g id="text_13">
      <!-- 40000 -->
      <g transform="translate(123.1875 539.60589)scale(0.1 -0.1)">
       <defs>
        <path d="M 2419 4116 
L 825 1625 
L 2419 1625 
L 2419 4116 
z
M 2253 4666 
L 3047 4666 
L 3047 1625 
L 3713 1625 
L 3713 1100 
L 3047 1100 
L 3047 0 
L 2419 0 
L 2419 1100 
L 313 1100 
L 313 1709 
L 2253 4666 
z
" id="DejaVuSans-34" transform="scale(0.015625)"/>
       </defs>
       <use xlink:href="#DejaVuSans-34"/>
       <use x="63.623047" xlink:href="#DejaVuSans-30"/>
       <use x="127.246094" xlink:href="#DejaVuSans-30"/>
       <use x="190.869141" xlink:href="#DejaVuSans-30"/>
       <use x="254.492188" xlink:href="#DejaVuSans-30"/>
      </g>
     </g>
    </g>
    <g id="ytick_4">
     <g id="line2d_14">
      <g>
       <use style="stroke:#000000;stroke-width:0.8;" x="162" xlink:href="#m24b8eb8b28" y="419.230007"/>
      </g>
     </g>
     <g id="text_14">
      <!-- 60000 -->
      <g transform="translate(123.1875 423.029225)scale(0.1 -0.1)">
       <defs>
        <path d="M 2113 2584 
Q 1688 2584 1439 2293 
Q 1191 2003 1191 1497 
Q 1191 994 1439 701 
Q 1688 409 2113 409 
Q 2538 409 2786 701 
Q 3034 994 3034 1497 
Q 3034 2003 2786 2293 
Q 2538 2584 2113 2584 
z
M 3366 4563 
L 3366 3988 
Q 3128 4100 2886 4159 
Q 2644 4219 2406 4219 
Q 1781 4219 1451 3797 
Q 1122 3375 1075 2522 
Q 1259 2794 1537 2939 
Q 1816 3084 2150 3084 
Q 2853 3084 3261 2657 
Q 3669 2231 3669 1497 
Q 3669 778 3244 343 
Q 2819 -91 2113 -91 
Q 1303 -91 875 529 
Q 447 1150 447 2328 
Q 447 3434 972 4092 
Q 1497 4750 2381 4750 
Q 2619 4750 2861 4703 
Q 3103 4656 3366 4563 
z
" id="DejaVuSans-36" transform="scale(0.015625)"/>
       </defs>
       <use xlink:href="#DejaVuSans-36"/>
       <use x="63.623047" xlink:href="#DejaVuSans-30"/>
       <use x="127.246094" xlink:href="#DejaVuSans-30"/>
       <use x="190.869141" xlink:href="#DejaVuSans-30"/>
       <use x="254.492188" xlink:href="#DejaVuSans-30"/>
      </g>
     </g>
    </g>
    <g id="ytick_5">
     <g id="line2d_15">
      <g>
       <use style="stroke:#000000;stroke-width:0.8;" x="162" xlink:href="#m24b8eb8b28" y="302.653342"/>
      </g>
     </g>
     <g id="text_15">
      <!-- 80000 -->
      <g transform="translate(123.1875 306.452561)scale(0.1 -0.1)">
       <defs>
        <path d="M 2034 2216 
Q 1584 2216 1326 1975 
Q 1069 1734 1069 1313 
Q 1069 891 1326 650 
Q 1584 409 2034 409 
Q 2484 409 2743 651 
Q 3003 894 3003 1313 
Q 3003 1734 2745 1975 
Q 2488 2216 2034 2216 
z
M 1403 2484 
Q 997 2584 770 2862 
Q 544 3141 544 3541 
Q 544 4100 942 4425 
Q 1341 4750 2034 4750 
Q 2731 4750 3128 4425 
Q 3525 4100 3525 3541 
Q 3525 3141 3298 2862 
Q 3072 2584 2669 2484 
Q 3125 2378 3379 2068 
Q 3634 1759 3634 1313 
Q 3634 634 3220 271 
Q 2806 -91 2034 -91 
Q 1263 -91 848 271 
Q 434 634 434 1313 
Q 434 1759 690 2068 
Q 947 2378 1403 2484 
z
M 1172 3481 
Q 1172 3119 1398 2916 
Q 1625 2713 2034 2713 
Q 2441 2713 2670 2916 
Q 2900 3119 2900 3481 
Q 2900 3844 2670 4047 
Q 2441 4250 2034 4250 
Q 1625 4250 1398 4047 
Q 1172 3844 1172 3481 
z
" id="DejaVuSans-38" transform="scale(0.015625)"/>
       </defs>
       <use xlink:href="#DejaVuSans-38"/>
       <use x="63.623047" xlink:href="#DejaVuSans-30"/>
       <use x="127.246094" xlink:href="#DejaVuSans-30"/>
       <use x="190.869141" xlink:href="#DejaVuSans-30"/>
       <use x="254.492188" xlink:href="#DejaVuSans-30"/>
      </g>
     </g>
    </g>
    <g id="ytick_6">
     <g id="line2d_16">
      <g>
       <use style="stroke:#000000;stroke-width:0.8;" x="162" xlink:href="#m24b8eb8b28" y="186.076678"/>
      </g>
     </g>
     <g id="text_16">
      <!-- 100000 -->
      <g transform="translate(116.825 189.875897)scale(0.1 -0.1)">
       <defs>
        <path d="M 794 531 
L 1825 531 
L 1825 4091 
L 703 3866 
L 703 4441 
L 1819 4666 
L 2450 4666 
L 2450 531 
L 3481 531 
L 3481 0 
L 794 0 
L 794 531 
z
" id="DejaVuSans-31" transform="scale(0.015625)"/>
       </defs>
       <use xlink:href="#DejaVuSans-31"/>
       <use x="63.623047" xlink:href="#DejaVuSans-30"/>
       <use x="127.246094" xlink:href="#DejaVuSans-30"/>
       <use x="190.869141" xlink:href="#DejaVuSans-30"/>
       <use x="254.492188" xlink:href="#DejaVuSans-30"/>
       <use x="318.115234" xlink:href="#DejaVuSans-30"/>
      </g>
     </g>
    </g>
    <g id="text_17">
     <!-- Persons fully vaccinated -->
     <g transform="translate(110.745312 496.922344)rotate(-90)scale(0.1 -0.1)">
      <defs>
       <path d="M 1259 4147 
L 1259 2394 
L 2053 2394 
Q 2494 2394 2734 2622 
Q 2975 2850 2975 3272 
Q 2975 3691 2734 3919 
Q 2494 4147 2053 4147 
L 1259 4147 
z
M 628 4666 
L 2053 4666 
Q 2838 4666 3239 4311 
Q 3641 3956 3641 3272 
Q 3641 2581 3239 2228 
Q 2838 1875 2053 1875 
L 1259 1875 
L 1259 0 
L 628 0 
L 628 4666 
z
" id="DejaVuSans-50" transform="scale(0.015625)"/>
       <path id="DejaVuSans-20" transform="scale(0.015625)"/>
       <path d="M 2375 4863 
L 2375 4384 
L 1825 4384 
Q 1516 4384 1395 4259 
Q 1275 4134 1275 3809 
L 1275 3500 
L 2222 3500 
L 2222 3053 
L 1275 3053 
L 1275 0 
L 697 0 
L 697 3053 
L 147 3053 
L 147 3500 
L 697 3500 
L 697 3744 
Q 697 4328 969 4595 
Q 1241 4863 1831 4863 
L 2375 4863 
z
" id="DejaVuSans-66" transform="scale(0.015625)"/>
       <path d="M 191 3500 
L 800 3500 
L 1894 563 
L 2988 3500 
L 3597 3500 
L 2284 0 
L 1503 0 
L 191 3500 
z
" id="DejaVuSans-76" transform="scale(0.015625)"/>
       <path d="M 2906 2969 
L 2906 4863 
L 3481 4863 
L 3481 0 
L 2906 0 
L 2906 525 
Q 2725 213 2448 61 
Q 2172 -91 1784 -91 
Q 1150 -91 751 415 
Q 353 922 353 1747 
Q 353 2572 751 3078 
Q 1150 3584 1784 3584 
Q 2172 3584 2448 3432 
Q 2725 3281 2906 2969 
z
M 947 1747 
Q 947 1113 1208 752 
Q 1469 391 1925 391 
Q 2381 391 2643 752 
Q 2906 1113 2906 1747 
Q 2906 2381 2643 2742 
Q 2381 3103 1925 3103 
Q 1469 3103 1208 2742 
Q 947 2381 947 1747 
z
" id="DejaVuSans-64" transform="scale(0.015625)"/>
      </defs>
      <use xlink:href="#DejaVuSans-50"/>
      <use x="56.677734" xlink:href="#DejaVuSans-65"/>
      <use x="118.201172" xlink:href="#DejaVuSans-72"/>
      <use x="159.314453" xlink:href="#DejaVuSans-73"/>
      <use x="211.414062" xlink:href="#DejaVuSans-6f"/>
      <use x="272.595703" xlink:href="#DejaVuSans-6e"/>
      <use x="335.974609" xlink:href="#DejaVuSans-73"/>
      <use x="388.074219" xlink:href="#DejaVuSans-20"/>
      <use x="419.861328" xlink:href="#DejaVuSans-66"/>
      <use x="455.066406" xlink:href="#DejaVuSans-75"/>
      <use x="518.445312" xlink:href="#DejaVuSans-6c"/>
      <use x="546.228516" xlink:href="#DejaVuSans-6c"/>
      <use x="574.011719" xlink:href="#DejaVuSans-79"/>
      <use x="633.191406" xlink:href="#DejaVuSans-20"/>
      <use x="664.978516" xlink:href="#DejaVuSans-76"/>
      <use x="724.158203" xlink:href="#DejaVuSans-61"/>
      <use x="785.4375" xlink:href="#DejaVuSans-63"/>
      <use x="840.417969" xlink:href="#DejaVuSans-63"/>
      <use x="895.398438" xlink:href="#DejaVuSans-69"/>
      <use x="923.181641" xlink:href="#DejaVuSans-6e"/>
      <use x="986.560547" xlink:href="#DejaVuSans-61"/>
      <use x="1047.839844" xlink:href="#DejaVuSans-74"/>
      <use x="1087.048828" xlink:href="#DejaVuSans-65"/>
      <use x="1148.572266" xlink:href="#DejaVuSans-64"/>
     </g>
    </g>
   </g>
   <g id="line2d_17">
    <path clip-path="url(#p4d3505b262)" d="M 220.983221 743.69867 
L 224.353691 743.474676 
L 227.724161 744.741198 
L 231.094631 741.221415 
L 234.465101 740.333767 
L 237.83557 738.216236 
L 241.20604 733.779661 
L 244.57651 725.740034 
L 247.94698 717.122521 
L 251.31745 710.721629 
L 254.687919 703.99349 
L 258.058389 699.381218 
L 261.428859 698.331195 
L 264.799329 698.379491 
L 268.169799 695.875591 
L 271.540268 701.015789 
L 274.910738 700.815111 
L 278.281208 701.36885 
L 281.651678 698.167155 
L 285.022148 698.532706 
L 288.392617 694.384242 
L 291.763087 695.102022 
L 295.133557 689.274854 
L 298.504027 679.483247 
L 301.874497 670.392765 
L 305.244966 667.408402 
L 308.615436 663.812845 
L 311.985906 667.908017 
L 315.356376 668.833968 
L 318.726846 664.026846 
L 322.097315 660.130688 
L 325.467785 654.132818 
L 328.838255 662.856083 
L 332.208725 650.194192 
L 335.579195 641.764867 
L 338.949664 631.926629 
L 342.320134 609.628011 
L 345.690604 593.020833 
L 349.061074 580.68952 
L 352.431544 550.647713 
L 355.802013 553.788622 
L 359.172483 544.440006 
L 362.542953 534.352794 
L 365.913423 540.13916 
L 369.283893 528.808741 
L 372.654362 514.58722 
L 376.024832 508.984046 
L 379.395302 512.936828 
L 382.765772 503.140224 
L 386.136242 491.799813 
L 389.506711 481.48028 
L 392.877181 484.973417 
L 396.247651 478.341037 
L 399.618121 479.588407 
L 402.988591 453.485227 
L 406.35906 453.809143 
L 409.72953 459.756219 
L 413.1 474.220052 
L 416.47047 487.496469 
L 419.84094 506.855689 
L 423.211409 520.456023 
L 426.581879 545.53083 
L 433.322819 569.808753 
L 436.693289 576.327054 
L 440.063758 580.523814 
L 443.434228 577.506977 
L 446.804698 564.19642 
L 453.545638 560.952258 
L 456.916107 545.053699 
L 460.286577 536.473656 
L 463.657047 521.58182 
L 467.027517 514.608037 
L 470.397987 513.522209 
L 473.768456 517.806401 
L 477.138926 504.19108 
L 480.509396 489.365026 
L 487.250336 436.105312 
L 490.620805 395.95048 
L 493.991275 373.927482 
L 497.361745 355.532517 
L 500.732215 342.403487 
L 504.102685 337.456473 
L 507.473154 346.999938 
L 510.843624 350.256591 
L 514.214094 369.128687 
L 517.584564 380.038598 
L 520.955034 380.11687 
L 524.325503 388.728555 
L 527.695973 383.287756 
L 531.066443 377.05257 
L 534.436913 387.317145 
L 537.807383 401.130647 
L 541.177852 413.153032 
L 544.548322 426.514383 
L 547.918792 432.070926 
L 551.289262 447.799616 
L 554.659732 453.649267 
L 558.030201 464.117851 
L 561.400671 477.067021 
L 564.771141 494.989017 
L 568.141611 504.309322 
L 571.512081 518.011243 
L 574.88255 511.410506 
L 578.25302 508.22713 
L 581.62349 517.429193 
L 584.99396 498.701152 
L 588.36443 476.050306 
L 591.734899 444.189071 
L 595.105369 432.146701 
L 598.475839 446.329085 
L 601.846309 463.266842 
L 605.216779 464.347674 
L 608.587248 468.098944 
L 611.957718 477.662394 
L 615.328188 502.555676 
L 618.698658 513.613805 
L 622.069128 514.384876 
L 625.439597 515.790458 
L 628.810067 502.260071 
L 632.180537 526.56464 
L 635.551007 531.50749 
L 638.921477 531.850559 
L 642.291946 533.49762 
L 645.662416 550.369595 
L 649.032886 562.347847 
L 652.403356 589.365322 
L 655.773826 598.829681 
L 659.144295 609.54724 
L 662.514765 612.646514 
L 665.885235 626.957132 
L 669.255705 637.570605 
L 672.626174 647.457139 
L 675.996644 648.6304 
L 679.367114 644.431142 
L 686.108054 625.981219 
L 689.478523 606.606178 
L 692.848993 593.706137 
L 696.219463 576.894949 
L 699.589933 580.588764 
L 702.960403 588.961467 
L 706.330872 602.572625 
L 709.701342 608.468906 
L 713.071812 594.543824 
L 716.442282 593.039985 
L 719.812752 605.805962 
L 723.183221 601.855678 
L 726.553691 610.734657 
L 729.924161 603.909093 
L 733.294631 608.599638 
L 736.665101 638.577328 
L 740.03557 655.77988 
L 743.40604 660.74105 
L 746.77651 668.814816 
L 753.51745 611.061071 
L 756.887919 615.342766 
L 760.258389 615.070476 
L 763.628859 614.576691 
L 766.999329 617.331231 
L 770.369799 624.760495 
L 773.740268 655.420158 
L 777.110738 695.579153 
L 780.481208 695.793987 
L 783.851678 705.947815 
L 787.222148 712.619331 
L 790.592617 713.638544 
L 793.963087 713.311297 
L 797.333557 714.437094 
L 800.704027 714.262229 
L 804.074497 712.392006 
L 807.444966 701.865966 
L 810.815436 699.273801 
L 817.556376 705.350776 
L 820.926846 706.885424 
L 824.297315 708.284344 
L 827.667785 709.259425 
L 831.038255 712.989878 
L 834.408725 712.27543 
L 837.779195 711.801629 
L 844.520134 715.811033 
L 847.890604 718.921132 
L 851.261074 721.457507 
L 854.631544 724.772448 
L 858.002013 725.272062 
L 861.372483 718.63885 
L 864.742953 717.11919 
L 868.113423 706.021924 
L 871.483893 703.774493 
L 878.224832 698.874109 
L 881.595302 699.363731 
L 884.965772 707.031145 
L 888.336242 706.730544 
L 891.706711 715.597865 
L 895.077181 707.509942 
L 898.447651 706.718053 
L 901.818121 706.932055 
L 905.188591 709.803172 
L 908.55906 695.990502 
L 911.92953 685.108903 
L 918.67047 668.337685 
L 922.04094 658.265461 
L 925.411409 657.056394 
L 928.781879 652.350028 
L 932.152349 664.22003 
L 935.522819 673.98749 
L 938.893289 682.174502 
L 942.263758 695.545846 
L 945.634228 704.926104 
L 949.004698 704.784546 
L 952.375168 704.846165 
L 955.745638 704.767892 
L 959.116107 703.57881 
L 962.486577 700.632752 
L 965.857047 692.260049 
L 969.227517 669.455988 
L 972.597987 663.729576 
L 975.968456 663.827001 
L 979.338926 664.175065 
L 982.709396 665.894571 
L 986.079866 668.95221 
L 989.450336 678.245869 
L 992.820805 701.474602 
L 996.191275 710.814891 
L 999.561745 716.39808 
L 1002.932215 715.947595 
L 1006.302685 716.000887 
L 1013.043624 717.249922 
L 1016.414094 717.248257 
L 1019.784564 714.789322 
L 1023.155034 710.980596 
L 1026.525503 712.948244 
L 1029.895973 713.542784 
L 1033.266443 713.411219 
L 1036.636913 712.715923 
L 1040.007383 712.332053 
L 1043.377852 713.118945 
L 1046.748322 712.053934 
L 1050.118792 713.286316 
L 1053.489262 711.292855 
L 1056.859732 710.047983 
L 1060.230201 710.655014 
L 1063.600671 711.700041 
L 1066.971141 710.914813 
L 1070.341611 713.103957 
L 1073.712081 714.711049 
L 1077.08255 721.367577 
L 1080.45302 721.760607 
L 1083.82349 717.169984 
L 1087.19396 718.076784 
L 1090.56443 716.493839 
L 1093.934899 719.674717 
L 1097.305369 715.718605 
L 1100.675839 713.053163 
L 1104.046309 716.371434 
L 1107.416779 724.579264 
L 1110.787248 725.719217 
L 1114.157718 729.507959 
L 1117.528188 727.526155 
L 1120.898658 729.918475 
L 1124.269128 731.259939 
L 1127.639597 728.95422 
L 1131.010067 728.259756 
L 1134.380537 728.47459 
L 1137.751007 728.019941 
L 1141.121477 728.944227 
L 1144.491946 730.251551 
L 1147.862416 728.815993 
L 1151.232886 731.309901 
L 1154.603356 731.01263 
L 1157.973826 729.577072 
L 1161.344295 728.42213 
L 1161.344295 728.42213 
" style="fill:none;stroke:#ffa500;stroke-linecap:square;stroke-width:1.5;"/>
   </g>
   <g id="patch_301">
    <path d="M 162 768.96 
L 162 103.68 
" style="fill:none;stroke:#000000;stroke-linecap:square;stroke-linejoin:miter;stroke-width:0.8;"/>
   </g>
   <g id="patch_302">
    <path d="M 1166.4 768.96 
L 1166.4 103.68 
" style="fill:none;stroke:#000000;stroke-linecap:square;stroke-linejoin:miter;stroke-width:0.8;"/>
   </g>
   <g id="patch_303">
    <path d="M 162 768.96 
L 1166.4 768.96 
" style="fill:none;stroke:#000000;stroke-linecap:square;stroke-linejoin:miter;stroke-width:0.8;"/>
   </g>
   <g id="patch_304">
    <path d="M 162 103.68 
L 1166.4 103.68 
" style="fill:none;stroke:#000000;stroke-linecap:square;stroke-linejoin:miter;stroke-width:0.8;"/>
   </g>
   <g id="text_18">
    <!-- Persons Fully Vaccinated -->
    <g transform="translate(590.380313 97.68)scale(0.12 -0.12)">
     <defs>
      <path d="M 1831 0 
L 50 4666 
L 709 4666 
L 2188 738 
L 3669 4666 
L 4325 4666 
L 2547 0 
L 1831 0 
z
" id="DejaVuSans-56" transform="scale(0.015625)"/>
     </defs>
     <use xlink:href="#DejaVuSans-50"/>
     <use x="56.677734" xlink:href="#DejaVuSans-65"/>
     <use x="118.201172" xlink:href="#DejaVuSans-72"/>
     <use x="159.314453" xlink:href="#DejaVuSans-73"/>
     <use x="211.414062" xlink:href="#DejaVuSans-6f"/>
     <use x="272.595703" xlink:href="#DejaVuSans-6e"/>
     <use x="335.974609" xlink:href="#DejaVuSans-73"/>
     <use x="388.074219" xlink:href="#DejaVuSans-20"/>
     <use x="419.861328" xlink:href="#DejaVuSans-46"/>
     <use x="471.880859" xlink:href="#DejaVuSans-75"/>
     <use x="535.259766" xlink:href="#DejaVuSans-6c"/>
     <use x="563.042969" xlink:href="#DejaVuSans-6c"/>
     <use x="590.826172" xlink:href="#DejaVuSans-79"/>
     <use x="650.005859" xlink:href="#DejaVuSans-20"/>
     <use x="681.792969" xlink:href="#DejaVuSans-56"/>
     <use x="742.451172" xlink:href="#DejaVuSans-61"/>
     <use x="803.730469" xlink:href="#DejaVuSans-63"/>
     <use x="858.710938" xlink:href="#DejaVuSans-63"/>
     <use x="913.691406" xlink:href="#DejaVuSans-69"/>
     <use x="941.474609" xlink:href="#DejaVuSans-6e"/>
     <use x="1004.853516" xlink:href="#DejaVuSans-61"/>
     <use x="1066.132812" xlink:href="#DejaVuSans-74"/>
     <use x="1105.341797" xlink:href="#DejaVuSans-65"/>
     <use x="1166.865234" xlink:href="#DejaVuSans-64"/>
    </g>
   </g>
  </g>
 </g>
 <defs>
  <clipPath id="p4d3505b262">
   <rect height="665.28" width="1004.4" x="162" y="103.68"/>
  </clipPath>
 </defs>
</svg>
