<?xml version="1.0" encoding="utf-8" standalone="no"?>
<!DOCTYPE svg PUBLIC "-//W3C//DTD SVG 1.1//EN"
  "http://www.w3.org/Graphics/SVG/1.1/DTD/svg11.dtd">
<svg height="864pt" version="1.1" viewBox="0 0 1296 864" width="1296pt" xmlns="http://www.w3.org/2000/svg" xmlns:xlink="http://www.w3.org/1999/xlink">
 <metadata>
  <rdf:RDF xmlns:cc="http://creativecommons.org/ns#" xmlns:dc="http://purl.org/dc/elements/1.1/" xmlns:rdf="http://www.w3.org/1999/02/22-rdf-syntax-ns#">
   <cc:Work>
    <dc:type rdf:resource="http://purl.org/dc/dcmitype/StillImage"/>
    <dc:date>2021-10-04T17:27:20.905293</dc:date>
    <dc:format>image/svg+xml</dc:format>
    <dc:creator>
     <cc:Agent>
      <dc:title>Matplotlib v3.4.2, https://matplotlib.org/</dc:title>
     </cc:Agent>
    </dc:creator>
   </cc:Work>
  </rdf:RDF>
 </metadata>
 <defs>
  <style type="text/css">*{stroke-linecap:butt;stroke-linejoin:round;}</style>
 </defs>
 <g id="figure_1">
  <g id="patch_1">
   <path d="M 0 864 
L 1296 864 
L 1296 0 
L 0 0 
z
" style="fill:#ffffff;"/>
  </g>
  <g id="axes_1">
   <g id="patch_2">
    <path d="M 162 768.96 
L 1166.4 768.96 
L 1166.4 103.68 
L 162 103.68 
z
" style="fill:#ffffff;"/>
   </g>
   <g id="patch_3">
    <path clip-path="url(#pab6c469c3d)" d="M 162.909783 768.96 
L 164.729348 768.96 
L 164.729348 768.948346 
L 162.909783 768.948346 
z
" style="fill:#1f77b4;"/>
   </g>
   <g id="patch_4">
    <path clip-path="url(#pab6c469c3d)" d="M 166.548913 768.96 
L 168.368478 768.96 
L 168.368478 768.96 
L 166.548913 768.96 
z
" style="fill:#1f77b4;"/>
   </g>
   <g id="patch_5">
    <path clip-path="url(#pab6c469c3d)" d="M 170.188043 768.96 
L 172.007609 768.96 
L 172.007609 768.96 
L 170.188043 768.96 
z
" style="fill:#1f77b4;"/>
   </g>
   <g id="patch_6">
    <path clip-path="url(#pab6c469c3d)" d="M 173.827174 768.96 
L 175.646739 768.96 
L 175.646739 768.21997 
L 173.827174 768.21997 
z
" style="fill:#1f77b4;"/>
   </g>
   <g id="patch_7">
    <path clip-path="url(#pab6c469c3d)" d="M 177.466304 768.96 
L 179.28587 768.96 
L 179.28587 766.984643 
L 177.466304 766.984643 
z
" style="fill:#1f77b4;"/>
   </g>
   <g id="patch_8">
    <path clip-path="url(#pab6c469c3d)" d="M 181.105435 768.96 
L 182.925 768.96 
L 182.925 754.893596 
L 181.105435 754.893596 
z
" style="fill:#1f77b4;"/>
   </g>
   <g id="patch_9">
    <path clip-path="url(#pab6c469c3d)" d="M 184.744565 768.96 
L 186.56413 768.96 
L 186.56413 667.465129 
L 184.744565 667.465129 
z
" style="fill:#1f77b4;"/>
   </g>
   <g id="patch_10">
    <path clip-path="url(#pab6c469c3d)" d="M 188.383696 768.96 
L 190.203261 768.96 
L 190.203261 646.551988 
L 188.383696 646.551988 
z
" style="fill:#1f77b4;"/>
   </g>
   <g id="patch_11">
    <path clip-path="url(#pab6c469c3d)" d="M 192.022826 768.96 
L 193.842391 768.96 
L 193.842391 702.118361 
L 192.022826 702.118361 
z
" style="fill:#1f77b4;"/>
   </g>
   <g id="patch_12">
    <path clip-path="url(#pab6c469c3d)" d="M 195.661957 768.96 
L 197.481522 768.96 
L 197.481522 728.433141 
L 195.661957 728.433141 
z
" style="fill:#1f77b4;"/>
   </g>
   <g id="patch_13">
    <path clip-path="url(#pab6c469c3d)" d="M 199.301087 768.96 
L 201.120652 768.96 
L 201.120652 705.637876 
L 199.301087 705.637876 
z
" style="fill:#1f77b4;"/>
   </g>
   <g id="patch_14">
    <path clip-path="url(#pab6c469c3d)" d="M 202.940217 768.96 
L 204.759783 768.96 
L 204.759783 708.82525 
L 202.940217 708.82525 
z
" style="fill:#1f77b4;"/>
   </g>
   <g id="patch_15">
    <path clip-path="url(#pab6c469c3d)" d="M 206.579348 768.96 
L 208.398913 768.96 
L 208.398913 719.78003 
L 206.579348 719.78003 
z
" style="fill:#1f77b4;"/>
   </g>
   <g id="patch_16">
    <path clip-path="url(#pab6c469c3d)" d="M 210.218478 768.96 
L 212.038043 768.96 
L 212.038043 709.029196 
L 210.218478 709.029196 
z
" style="fill:#1f77b4;"/>
   </g>
   <g id="patch_17">
    <path clip-path="url(#pab6c469c3d)" d="M 213.857609 768.96 
L 215.677174 768.96 
L 215.677174 756.670835 
L 213.857609 756.670835 
z
" style="fill:#1f77b4;"/>
   </g>
   <g id="patch_18">
    <path clip-path="url(#pab6c469c3d)" d="M 217.496739 768.96 
L 219.316304 768.96 
L 219.316304 761.332443 
L 217.496739 761.332443 
z
" style="fill:#1f77b4;"/>
   </g>
   <g id="patch_19">
    <path clip-path="url(#pab6c469c3d)" d="M 221.13587 768.96 
L 222.955435 768.96 
L 222.955435 765.312291 
L 221.13587 765.312291 
z
" style="fill:#1f77b4;"/>
   </g>
   <g id="patch_20">
    <path clip-path="url(#pab6c469c3d)" d="M 224.775 768.96 
L 226.594565 768.96 
L 226.594565 752.201517 
L 224.775 752.201517 
z
" style="fill:#1f77b4;"/>
   </g>
   <g id="patch_21">
    <path clip-path="url(#pab6c469c3d)" d="M 228.41413 768.96 
L 230.233696 768.96 
L 230.233696 741.771168 
L 228.41413 741.771168 
z
" style="fill:#1f77b4;"/>
   </g>
   <g id="patch_22">
    <path clip-path="url(#pab6c469c3d)" d="M 232.053261 768.96 
L 233.872826 768.96 
L 233.872826 718.101851 
L 232.053261 718.101851 
z
" style="fill:#1f77b4;"/>
   </g>
   <g id="patch_23">
    <path clip-path="url(#pab6c469c3d)" d="M 235.692391 768.96 
L 237.511957 768.96 
L 237.511957 717.723096 
L 235.692391 717.723096 
z
" style="fill:#1f77b4;"/>
   </g>
   <g id="patch_24">
    <path clip-path="url(#pab6c469c3d)" d="M 239.331522 768.96 
L 241.151087 768.96 
L 241.151087 731.987618 
L 239.331522 731.987618 
z
" style="fill:#1f77b4;"/>
   </g>
   <g id="patch_25">
    <path clip-path="url(#pab6c469c3d)" d="M 242.970652 768.96 
L 244.790217 768.96 
L 244.790217 755.00431 
L 242.970652 755.00431 
z
" style="fill:#1f77b4;"/>
   </g>
   <g id="patch_26">
    <path clip-path="url(#pab6c469c3d)" d="M 246.609783 768.96 
L 248.429348 768.96 
L 248.429348 750.418452 
L 246.609783 750.418452 
z
" style="fill:#1f77b4;"/>
   </g>
   <g id="patch_27">
    <path clip-path="url(#pab6c469c3d)" d="M 250.248913 768.96 
L 252.068478 768.96 
L 252.068478 721.102762 
L 250.248913 721.102762 
z
" style="fill:#1f77b4;"/>
   </g>
   <g id="patch_28">
    <path clip-path="url(#pab6c469c3d)" d="M 253.888043 768.96 
L 255.707609 768.96 
L 255.707609 685.476419 
L 253.888043 685.476419 
z
" style="fill:#1f77b4;"/>
   </g>
   <g id="patch_29">
    <path clip-path="url(#pab6c469c3d)" d="M 257.527174 768.96 
L 259.346739 768.96 
L 259.346739 657.885524 
L 257.527174 657.885524 
z
" style="fill:#1f77b4;"/>
   </g>
   <g id="patch_30">
    <path clip-path="url(#pab6c469c3d)" d="M 261.166304 768.96 
L 262.98587 768.96 
L 262.98587 672.989135 
L 261.166304 672.989135 
z
" style="fill:#1f77b4;"/>
   </g>
   <g id="patch_31">
    <path clip-path="url(#pab6c469c3d)" d="M 264.805435 768.96 
L 266.625 768.96 
L 266.625 684.917026 
L 264.805435 684.917026 
z
" style="fill:#1f77b4;"/>
   </g>
   <g id="patch_32">
    <path clip-path="url(#pab6c469c3d)" d="M 268.444565 768.96 
L 270.26413 768.96 
L 270.26413 723.014021 
L 268.444565 723.014021 
z
" style="fill:#1f77b4;"/>
   </g>
   <g id="patch_33">
    <path clip-path="url(#pab6c469c3d)" d="M 272.083696 768.96 
L 273.903261 768.96 
L 273.903261 743.134689 
L 272.083696 743.134689 
z
" style="fill:#1f77b4;"/>
   </g>
   <g id="patch_34">
    <path clip-path="url(#pab6c469c3d)" d="M 275.722826 768.96 
L 277.542391 768.96 
L 277.542391 721.551442 
L 275.722826 721.551442 
z
" style="fill:#1f77b4;"/>
   </g>
   <g id="patch_35">
    <path clip-path="url(#pab6c469c3d)" d="M 279.361957 768.96 
L 281.181522 768.96 
L 281.181522 667.919636 
L 279.361957 667.919636 
z
" style="fill:#1f77b4;"/>
   </g>
   <g id="patch_36">
    <path clip-path="url(#pab6c469c3d)" d="M 283.001087 768.96 
L 284.820652 768.96 
L 284.820652 693.849833 
L 283.001087 693.849833 
z
" style="fill:#1f77b4;"/>
   </g>
   <g id="patch_37">
    <path clip-path="url(#pab6c469c3d)" d="M 286.640217 768.96 
L 288.459783 768.96 
L 288.459783 671.65475 
L 286.640217 671.65475 
z
" style="fill:#1f77b4;"/>
   </g>
   <g id="patch_38">
    <path clip-path="url(#pab6c469c3d)" d="M 290.279348 768.96 
L 292.098913 768.96 
L 292.098913 688.844431 
L 290.279348 688.844431 
z
" style="fill:#1f77b4;"/>
   </g>
   <g id="patch_39">
    <path clip-path="url(#pab6c469c3d)" d="M 293.918478 768.96 
L 295.738043 768.96 
L 295.738043 700.440182 
L 293.918478 700.440182 
z
" style="fill:#1f77b4;"/>
   </g>
   <g id="patch_40">
    <path clip-path="url(#pab6c469c3d)" d="M 297.557609 768.96 
L 299.377174 768.96 
L 299.377174 745.756844 
L 297.557609 745.756844 
z
" style="fill:#1f77b4;"/>
   </g>
   <g id="patch_41">
    <path clip-path="url(#pab6c469c3d)" d="M 301.196739 768.96 
L 303.016304 768.96 
L 303.016304 692.503794 
L 301.196739 692.503794 
z
" style="fill:#1f77b4;"/>
   </g>
   <g id="patch_42">
    <path clip-path="url(#pab6c469c3d)" d="M 304.83587 768.96 
L 306.655435 768.96 
L 306.655435 673.059059 
L 304.83587 673.059059 
z
" style="fill:#1f77b4;"/>
   </g>
   <g id="patch_43">
    <path clip-path="url(#pab6c469c3d)" d="M 308.475 768.96 
L 310.294565 768.96 
L 310.294565 652.9617 
L 308.475 652.9617 
z
" style="fill:#1f77b4;"/>
   </g>
   <g id="patch_44">
    <path clip-path="url(#pab6c469c3d)" d="M 312.11413 768.96 
L 313.933696 768.96 
L 313.933696 602.756176 
L 312.11413 602.756176 
z
" style="fill:#1f77b4;"/>
   </g>
   <g id="patch_45">
    <path clip-path="url(#pab6c469c3d)" d="M 315.753261 768.96 
L 317.572826 768.96 
L 317.572826 624.968741 
L 315.753261 624.968741 
z
" style="fill:#1f77b4;"/>
   </g>
   <g id="patch_46">
    <path clip-path="url(#pab6c469c3d)" d="M 319.392391 768.96 
L 321.211957 768.96 
L 321.211957 679.497906 
L 319.392391 679.497906 
z
" style="fill:#1f77b4;"/>
   </g>
   <g id="patch_47">
    <path clip-path="url(#pab6c469c3d)" d="M 323.031522 768.96 
L 324.851087 768.96 
L 324.851087 720.584158 
L 323.031522 720.584158 
z
" style="fill:#1f77b4;"/>
   </g>
   <g id="patch_48">
    <path clip-path="url(#pab6c469c3d)" d="M 326.670652 768.96 
L 328.490217 768.96 
L 328.490217 721.201821 
L 326.670652 721.201821 
z
" style="fill:#1f77b4;"/>
   </g>
   <g id="patch_49">
    <path clip-path="url(#pab6c469c3d)" d="M 330.309783 768.96 
L 332.129348 768.96 
L 332.129348 679.445463 
L 330.309783 679.445463 
z
" style="fill:#1f77b4;"/>
   </g>
   <g id="patch_50">
    <path clip-path="url(#pab6c469c3d)" d="M 333.948913 768.96 
L 335.768478 768.96 
L 335.768478 619.380637 
L 333.948913 619.380637 
z
" style="fill:#1f77b4;"/>
   </g>
   <g id="patch_51">
    <path clip-path="url(#pab6c469c3d)" d="M 337.588043 768.96 
L 339.407609 768.96 
L 339.407609 575.864522 
L 337.588043 575.864522 
z
" style="fill:#1f77b4;"/>
   </g>
   <g id="patch_52">
    <path clip-path="url(#pab6c469c3d)" d="M 341.227174 768.96 
L 343.046739 768.96 
L 343.046739 583.946586 
L 341.227174 583.946586 
z
" style="fill:#1f77b4;"/>
   </g>
   <g id="patch_53">
    <path clip-path="url(#pab6c469c3d)" d="M 344.866304 768.96 
L 346.68587 768.96 
L 346.68587 740.582458 
L 344.866304 740.582458 
z
" style="fill:#1f77b4;"/>
   </g>
   <g id="patch_54">
    <path clip-path="url(#pab6c469c3d)" d="M 348.505435 768.96 
L 350.325 768.96 
L 350.325 631.943672 
L 348.505435 631.943672 
z
" style="fill:#1f77b4;"/>
   </g>
   <g id="patch_55">
    <path clip-path="url(#pab6c469c3d)" d="M 352.144565 768.96 
L 353.96413 768.96 
L 353.96413 662.471381 
L 352.144565 662.471381 
z
" style="fill:#1f77b4;"/>
   </g>
   <g id="patch_56">
    <path clip-path="url(#pab6c469c3d)" d="M 355.783696 768.96 
L 357.603261 768.96 
L 357.603261 610.471138 
L 355.783696 610.471138 
z
" style="fill:#1f77b4;"/>
   </g>
   <g id="patch_57">
    <path clip-path="url(#pab6c469c3d)" d="M 359.422826 768.96 
L 361.242391 768.96 
L 361.242391 463.146829 
L 359.422826 463.146829 
z
" style="fill:#1f77b4;"/>
   </g>
   <g id="patch_58">
    <path clip-path="url(#pab6c469c3d)" d="M 363.061957 768.96 
L 364.881522 768.96 
L 364.881522 459.271866 
L 363.061957 459.271866 
z
" style="fill:#1f77b4;"/>
   </g>
   <g id="patch_59">
    <path clip-path="url(#pab6c469c3d)" d="M 366.701087 768.96 
L 368.520652 768.96 
L 368.520652 496.582215 
L 366.701087 496.582215 
z
" style="fill:#1f77b4;"/>
   </g>
   <g id="patch_60">
    <path clip-path="url(#pab6c469c3d)" d="M 370.340217 768.96 
L 372.159783 768.96 
L 372.159783 530.093354 
L 370.340217 530.093354 
z
" style="fill:#1f77b4;"/>
   </g>
   <g id="patch_61">
    <path clip-path="url(#pab6c469c3d)" d="M 373.979348 768.96 
L 375.798913 768.96 
L 375.798913 653.829924 
L 373.979348 653.829924 
z
" style="fill:#1f77b4;"/>
   </g>
   <g id="patch_62">
    <path clip-path="url(#pab6c469c3d)" d="M 377.618478 768.96 
L 379.438043 768.96 
L 379.438043 596.742701 
L 377.618478 596.742701 
z
" style="fill:#1f77b4;"/>
   </g>
   <g id="patch_63">
    <path clip-path="url(#pab6c469c3d)" d="M 381.257609 768.96 
L 383.077174 768.96 
L 383.077174 539.766191 
L 381.257609 539.766191 
z
" style="fill:#1f77b4;"/>
   </g>
   <g id="patch_64">
    <path clip-path="url(#pab6c469c3d)" d="M 384.896739 768.96 
L 386.716304 768.96 
L 386.716304 503.82519 
L 384.896739 503.82519 
z
" style="fill:#1f77b4;"/>
   </g>
   <g id="patch_65">
    <path clip-path="url(#pab6c469c3d)" d="M 388.53587 768.96 
L 390.355435 768.96 
L 390.355435 379.972079 
L 388.53587 379.972079 
z
" style="fill:#1f77b4;"/>
   </g>
   <g id="patch_66">
    <path clip-path="url(#pab6c469c3d)" d="M 392.175 768.96 
L 393.994565 768.96 
L 393.994565 397.033566 
L 392.175 397.033566 
z
" style="fill:#1f77b4;"/>
   </g>
   <g id="patch_67">
    <path clip-path="url(#pab6c469c3d)" d="M 395.81413 768.96 
L 397.633696 768.96 
L 397.633696 491.052382 
L 395.81413 491.052382 
z
" style="fill:#1f77b4;"/>
   </g>
   <g id="patch_68">
    <path clip-path="url(#pab6c469c3d)" d="M 399.453261 768.96 
L 401.272826 768.96 
L 401.272826 681.508225 
L 399.453261 681.508225 
z
" style="fill:#1f77b4;"/>
   </g>
   <g id="patch_69">
    <path clip-path="url(#pab6c469c3d)" d="M 403.092391 768.96 
L 404.911957 768.96 
L 404.911957 528.036419 
L 403.092391 528.036419 
z
" style="fill:#1f77b4;"/>
   </g>
   <g id="patch_70">
    <path clip-path="url(#pab6c469c3d)" d="M 406.731522 768.96 
L 408.551087 768.96 
L 408.551087 460.046859 
L 406.731522 460.046859 
z
" style="fill:#1f77b4;"/>
   </g>
   <g id="patch_71">
    <path clip-path="url(#pab6c469c3d)" d="M 410.370652 768.96 
L 412.190217 768.96 
L 412.190217 429.431745 
L 410.370652 429.431745 
z
" style="fill:#1f77b4;"/>
   </g>
   <g id="patch_72">
    <path clip-path="url(#pab6c469c3d)" d="M 414.009783 768.96 
L 415.829348 768.96 
L 415.829348 404.183308 
L 414.009783 404.183308 
z
" style="fill:#1f77b4;"/>
   </g>
   <g id="patch_73">
    <path clip-path="url(#pab6c469c3d)" d="M 417.648913 768.96 
L 419.468478 768.96 
L 419.468478 350.388346 
L 417.648913 350.388346 
z
" style="fill:#1f77b4;"/>
   </g>
   <g id="patch_74">
    <path clip-path="url(#pab6c469c3d)" d="M 421.288043 768.96 
L 423.107609 768.96 
L 423.107609 499.507375 
L 421.288043 499.507375 
z
" style="fill:#1f77b4;"/>
   </g>
   <g id="patch_75">
    <path clip-path="url(#pab6c469c3d)" d="M 424.927174 768.96 
L 426.746739 768.96 
L 426.746739 498.703247 
L 424.927174 498.703247 
z
" style="fill:#1f77b4;"/>
   </g>
   <g id="patch_76">
    <path clip-path="url(#pab6c469c3d)" d="M 428.566304 768.96 
L 430.38587 768.96 
L 430.38587 530.303126 
L 428.566304 530.303126 
z
" style="fill:#1f77b4;"/>
   </g>
   <g id="patch_77">
    <path clip-path="url(#pab6c469c3d)" d="M 432.205435 768.96 
L 434.025 768.96 
L 434.025 501.902276 
L 432.205435 501.902276 
z
" style="fill:#1f77b4;"/>
   </g>
   <g id="patch_78">
    <path clip-path="url(#pab6c469c3d)" d="M 435.844565 768.96 
L 437.66413 768.96 
L 437.66413 532.540698 
L 435.844565 532.540698 
z
" style="fill:#1f77b4;"/>
   </g>
   <g id="patch_79">
    <path clip-path="url(#pab6c469c3d)" d="M 439.483696 768.96 
L 441.303261 768.96 
L 441.303261 497.147436 
L 439.483696 497.147436 
z
" style="fill:#1f77b4;"/>
   </g>
   <g id="patch_80">
    <path clip-path="url(#pab6c469c3d)" d="M 443.122826 768.96 
L 444.942391 768.96 
L 444.942391 486.26258 
L 443.122826 486.26258 
z
" style="fill:#1f77b4;"/>
   </g>
   <g id="patch_81">
    <path clip-path="url(#pab6c469c3d)" d="M 446.761957 768.96 
L 448.581522 768.96 
L 448.581522 595.041214 
L 446.761957 595.041214 
z
" style="fill:#1f77b4;"/>
   </g>
   <g id="patch_82">
    <path clip-path="url(#pab6c469c3d)" d="M 450.401087 768.96 
L 452.220652 768.96 
L 452.220652 674.271077 
L 450.401087 674.271077 
z
" style="fill:#1f77b4;"/>
   </g>
   <g id="patch_83">
    <path clip-path="url(#pab6c469c3d)" d="M 454.040217 768.96 
L 455.859783 768.96 
L 455.859783 616.752656 
L 454.040217 616.752656 
z
" style="fill:#1f77b4;"/>
   </g>
   <g id="patch_84">
    <path clip-path="url(#pab6c469c3d)" d="M 457.679348 768.96 
L 459.498913 768.96 
L 459.498913 585.793748 
L 457.679348 585.793748 
z
" style="fill:#1f77b4;"/>
   </g>
   <g id="patch_85">
    <path clip-path="url(#pab6c469c3d)" d="M 461.318478 768.96 
L 463.138043 768.96 
L 463.138043 578.585736 
L 461.318478 578.585736 
z
" style="fill:#1f77b4;"/>
   </g>
   <g id="patch_86">
    <path clip-path="url(#pab6c469c3d)" d="M 464.957609 768.96 
L 466.777174 768.96 
L 466.777174 526.894325 
L 464.957609 526.894325 
z
" style="fill:#1f77b4;"/>
   </g>
   <g id="patch_87">
    <path clip-path="url(#pab6c469c3d)" d="M 468.596739 768.96 
L 470.416304 768.96 
L 470.416304 465.320303 
L 468.596739 465.320303 
z
" style="fill:#1f77b4;"/>
   </g>
   <g id="patch_88">
    <path clip-path="url(#pab6c469c3d)" d="M 472.23587 768.96 
L 474.055435 768.96 
L 474.055435 501.628407 
L 472.23587 501.628407 
z
" style="fill:#1f77b4;"/>
   </g>
   <g id="patch_89">
    <path clip-path="url(#pab6c469c3d)" d="M 475.875 768.96 
L 477.694565 768.96 
L 477.694565 662.908407 
L 475.875 662.908407 
z
" style="fill:#1f77b4;"/>
   </g>
   <g id="patch_90">
    <path clip-path="url(#pab6c469c3d)" d="M 479.51413 768.96 
L 481.333696 768.96 
L 481.333696 605.389985 
L 479.51413 605.389985 
z
" style="fill:#1f77b4;"/>
   </g>
   <g id="patch_91">
    <path clip-path="url(#pab6c469c3d)" d="M 483.153261 768.96 
L 484.972826 768.96 
L 484.972826 474.52698 
L 483.153261 474.52698 
z
" style="fill:#1f77b4;"/>
   </g>
   <g id="patch_92">
    <path clip-path="url(#pab6c469c3d)" d="M 486.792391 768.96 
L 488.611957 768.96 
L 488.611957 518.124674 
L 486.792391 518.124674 
z
" style="fill:#1f77b4;"/>
   </g>
   <g id="patch_93">
    <path clip-path="url(#pab6c469c3d)" d="M 490.431522 768.96 
L 492.251087 768.96 
L 492.251087 422.922974 
L 490.431522 422.922974 
z
" style="fill:#1f77b4;"/>
   </g>
   <g id="patch_94">
    <path clip-path="url(#pab6c469c3d)" d="M 494.070652 768.96 
L 495.890217 768.96 
L 495.890217 416.449165 
L 494.070652 416.449165 
z
" style="fill:#1f77b4;"/>
   </g>
   <g id="patch_95">
    <path clip-path="url(#pab6c469c3d)" d="M 497.709783 768.96 
L 499.529348 768.96 
L 499.529348 494.123217 
L 497.709783 494.123217 
z
" style="fill:#1f77b4;"/>
   </g>
   <g id="patch_96">
    <path clip-path="url(#pab6c469c3d)" d="M 501.348913 768.96 
L 503.168478 768.96 
L 503.168478 692.830106 
L 501.348913 692.830106 
z
" style="fill:#1f77b4;"/>
   </g>
   <g id="patch_97">
    <path clip-path="url(#pab6c469c3d)" d="M 504.988043 768.96 
L 506.807609 768.96 
L 506.807609 510.537906 
L 504.988043 510.537906 
z
" style="fill:#1f77b4;"/>
   </g>
   <g id="patch_98">
    <path clip-path="url(#pab6c469c3d)" d="M 508.627174 768.96 
L 510.446739 768.96 
L 510.446739 370.742094 
L 508.627174 370.742094 
z
" style="fill:#1f77b4;"/>
   </g>
   <g id="patch_99">
    <path clip-path="url(#pab6c469c3d)" d="M 512.266304 768.96 
L 514.08587 768.96 
L 514.08587 329.481032 
L 512.266304 329.481032 
z
" style="fill:#1f77b4;"/>
   </g>
   <g id="patch_100">
    <path clip-path="url(#pab6c469c3d)" d="M 515.905435 768.96 
L 517.725 768.96 
L 517.725 240.152959 
L 515.905435 240.152959 
z
" style="fill:#1f77b4;"/>
   </g>
   <g id="patch_101">
    <path clip-path="url(#pab6c469c3d)" d="M 519.544565 768.96 
L 521.36413 768.96 
L 521.36413 135.36 
L 519.544565 135.36 
z
" style="fill:#1f77b4;"/>
   </g>
   <g id="patch_102">
    <path clip-path="url(#pab6c469c3d)" d="M 523.183696 768.96 
L 525.003261 768.96 
L 525.003261 339.946343 
L 523.183696 339.946343 
z
" style="fill:#1f77b4;"/>
   </g>
   <g id="patch_103">
    <path clip-path="url(#pab6c469c3d)" d="M 526.822826 768.96 
L 528.642391 768.96 
L 528.642391 564.140577 
L 526.822826 564.140577 
z
" style="fill:#1f77b4;"/>
   </g>
   <g id="patch_104">
    <path clip-path="url(#pab6c469c3d)" d="M 530.461957 768.96 
L 532.281522 768.96 
L 532.281522 418.051593 
L 530.461957 418.051593 
z
" style="fill:#1f77b4;"/>
   </g>
   <g id="patch_105">
    <path clip-path="url(#pab6c469c3d)" d="M 534.101087 768.96 
L 535.920652 768.96 
L 535.920652 335.820819 
L 534.101087 335.820819 
z
" style="fill:#1f77b4;"/>
   </g>
   <g id="patch_106">
    <path clip-path="url(#pab6c469c3d)" d="M 537.740217 768.96 
L 539.559783 768.96 
L 539.559783 396.287709 
L 537.740217 396.287709 
z
" style="fill:#1f77b4;"/>
   </g>
   <g id="patch_107">
    <path clip-path="url(#pab6c469c3d)" d="M 541.379348 768.96 
L 543.198913 768.96 
L 543.198913 260.634901 
L 541.379348 260.634901 
z
" style="fill:#1f77b4;"/>
   </g>
   <g id="patch_108">
    <path clip-path="url(#pab6c469c3d)" d="M 545.018478 768.96 
L 546.838043 768.96 
L 546.838043 266.99217 
L 545.018478 266.99217 
z
" style="fill:#1f77b4;"/>
   </g>
   <g id="patch_109">
    <path clip-path="url(#pab6c469c3d)" d="M 548.657609 768.96 
L 550.477174 768.96 
L 550.477174 415.878118 
L 548.657609 415.878118 
z
" style="fill:#1f77b4;"/>
   </g>
   <g id="patch_110">
    <path clip-path="url(#pab6c469c3d)" d="M 552.296739 768.96 
L 554.116304 768.96 
L 554.116304 564.705797 
L 552.296739 564.705797 
z
" style="fill:#1f77b4;"/>
   </g>
   <g id="patch_111">
    <path clip-path="url(#pab6c469c3d)" d="M 555.93587 768.96 
L 557.755435 768.96 
L 557.755435 477.842549 
L 555.93587 477.842549 
z
" style="fill:#1f77b4;"/>
   </g>
   <g id="patch_112">
    <path clip-path="url(#pab6c469c3d)" d="M 559.575 768.96 
L 561.394565 768.96 
L 561.394565 297.141123 
L 559.575 297.141123 
z
" style="fill:#1f77b4;"/>
   </g>
   <g id="patch_113">
    <path clip-path="url(#pab6c469c3d)" d="M 563.21413 768.96 
L 565.033696 768.96 
L 565.033696 352.282124 
L 563.21413 352.282124 
z
" style="fill:#1f77b4;"/>
   </g>
   <g id="patch_114">
    <path clip-path="url(#pab6c469c3d)" d="M 566.853261 768.96 
L 568.672826 768.96 
L 568.672826 332.77912 
L 566.853261 332.77912 
z
" style="fill:#1f77b4;"/>
   </g>
   <g id="patch_115">
    <path clip-path="url(#pab6c469c3d)" d="M 570.492391 768.96 
L 572.311957 768.96 
L 572.311957 364.017724 
L 570.492391 364.017724 
z
" style="fill:#1f77b4;"/>
   </g>
   <g id="patch_116">
    <path clip-path="url(#pab6c469c3d)" d="M 574.131522 768.96 
L 575.951087 768.96 
L 575.951087 499.565645 
L 574.131522 499.565645 
z
" style="fill:#1f77b4;"/>
   </g>
   <g id="patch_117">
    <path clip-path="url(#pab6c469c3d)" d="M 577.770652 768.96 
L 579.590217 768.96 
L 579.590217 658.34003 
L 577.770652 658.34003 
z
" style="fill:#1f77b4;"/>
   </g>
   <g id="patch_118">
    <path clip-path="url(#pab6c469c3d)" d="M 581.409783 768.96 
L 583.229348 768.96 
L 583.229348 517.151563 
L 581.409783 517.151563 
z
" style="fill:#1f77b4;"/>
   </g>
   <g id="patch_119">
    <path clip-path="url(#pab6c469c3d)" d="M 585.048913 768.96 
L 586.868478 768.96 
L 586.868478 408.337967 
L 585.048913 408.337967 
z
" style="fill:#1f77b4;"/>
   </g>
   <g id="patch_120">
    <path clip-path="url(#pab6c469c3d)" d="M 588.688043 768.96 
L 590.507609 768.96 
L 590.507609 393.951077 
L 588.688043 393.951077 
z
" style="fill:#1f77b4;"/>
   </g>
   <g id="patch_121">
    <path clip-path="url(#pab6c469c3d)" d="M 592.327174 768.96 
L 594.146739 768.96 
L 594.146739 406.36261 
L 592.327174 406.36261 
z
" style="fill:#1f77b4;"/>
   </g>
   <g id="patch_122">
    <path clip-path="url(#pab6c469c3d)" d="M 595.966304 768.96 
L 597.78587 768.96 
L 597.78587 454.744279 
L 595.966304 454.744279 
z
" style="fill:#1f77b4;"/>
   </g>
   <g id="patch_123">
    <path clip-path="url(#pab6c469c3d)" d="M 599.605435 768.96 
L 601.425 768.96 
L 601.425 626.000121 
L 599.605435 626.000121 
z
" style="fill:#1f77b4;"/>
   </g>
   <g id="patch_124">
    <path clip-path="url(#pab6c469c3d)" d="M 603.244565 768.96 
L 605.06413 768.96 
L 605.06413 723.491836 
L 603.244565 723.491836 
z
" style="fill:#1f77b4;"/>
   </g>
   <g id="patch_125">
    <path clip-path="url(#pab6c469c3d)" d="M 606.883696 768.96 
L 608.703261 768.96 
L 608.703261 613.262276 
L 606.883696 613.262276 
z
" style="fill:#1f77b4;"/>
   </g>
   <g id="patch_126">
    <path clip-path="url(#pab6c469c3d)" d="M 610.522826 768.96 
L 612.342391 768.96 
L 612.342391 362.846495 
L 610.522826 362.846495 
z
" style="fill:#1f77b4;"/>
   </g>
   <g id="patch_127">
    <path clip-path="url(#pab6c469c3d)" d="M 614.161957 768.96 
L 615.981522 768.96 
L 615.981522 371.330622 
L 614.161957 371.330622 
z
" style="fill:#1f77b4;"/>
   </g>
   <g id="patch_128">
    <path clip-path="url(#pab6c469c3d)" d="M 617.801087 768.96 
L 619.620652 768.96 
L 619.620652 470.925888 
L 617.801087 470.925888 
z
" style="fill:#1f77b4;"/>
   </g>
   <g id="patch_129">
    <path clip-path="url(#pab6c469c3d)" d="M 621.440217 768.96 
L 623.259783 768.96 
L 623.259783 323.496692 
L 621.440217 323.496692 
z
" style="fill:#1f77b4;"/>
   </g>
   <g id="patch_130">
    <path clip-path="url(#pab6c469c3d)" d="M 625.079348 768.96 
L 626.898913 768.96 
L 626.898913 467.441335 
L 625.079348 467.441335 
z
" style="fill:#1f77b4;"/>
   </g>
   <g id="patch_131">
    <path clip-path="url(#pab6c469c3d)" d="M 628.718478 768.96 
L 630.538043 768.96 
L 630.538043 500.509621 
L 628.718478 500.509621 
z
" style="fill:#1f77b4;"/>
   </g>
   <g id="patch_132">
    <path clip-path="url(#pab6c469c3d)" d="M 632.357609 768.96 
L 634.177174 768.96 
L 634.177174 535.90871 
L 632.357609 535.90871 
z
" style="fill:#1f77b4;"/>
   </g>
   <g id="patch_133">
    <path clip-path="url(#pab6c469c3d)" d="M 635.996739 768.96 
L 637.816304 768.96 
L 637.816304 460.279939 
L 635.996739 460.279939 
z
" style="fill:#1f77b4;"/>
   </g>
   <g id="patch_134">
    <path clip-path="url(#pab6c469c3d)" d="M 639.63587 768.96 
L 641.455435 768.96 
L 641.455435 489.741305 
L 639.63587 489.741305 
z
" style="fill:#1f77b4;"/>
   </g>
   <g id="patch_135">
    <path clip-path="url(#pab6c469c3d)" d="M 643.275 768.96 
L 645.094565 768.96 
L 645.094565 477.988225 
L 643.275 477.988225 
z
" style="fill:#1f77b4;"/>
   </g>
   <g id="patch_136">
    <path clip-path="url(#pab6c469c3d)" d="M 646.91413 768.96 
L 648.733696 768.96 
L 648.733696 347.63217 
L 646.91413 347.63217 
z
" style="fill:#1f77b4;"/>
   </g>
   <g id="patch_137">
    <path clip-path="url(#pab6c469c3d)" d="M 650.553261 768.96 
L 652.372826 768.96 
L 652.372826 534.754962 
L 650.553261 534.754962 
z
" style="fill:#1f77b4;"/>
   </g>
   <g id="patch_138">
    <path clip-path="url(#pab6c469c3d)" d="M 654.192391 768.96 
L 656.011957 768.96 
L 656.011957 674.795508 
L 654.192391 674.795508 
z
" style="fill:#1f77b4;"/>
   </g>
   <g id="patch_139">
    <path clip-path="url(#pab6c469c3d)" d="M 657.831522 768.96 
L 659.651087 768.96 
L 659.651087 604.708225 
L 657.831522 604.708225 
z
" style="fill:#1f77b4;"/>
   </g>
   <g id="patch_140">
    <path clip-path="url(#pab6c469c3d)" d="M 661.470652 768.96 
L 663.290217 768.96 
L 663.290217 466.16522 
L 661.470652 466.16522 
z
" style="fill:#1f77b4;"/>
   </g>
   <g id="patch_141">
    <path clip-path="url(#pab6c469c3d)" d="M 665.109783 768.96 
L 666.929348 768.96 
L 666.929348 498.778998 
L 665.109783 498.778998 
z
" style="fill:#1f77b4;"/>
   </g>
   <g id="patch_142">
    <path clip-path="url(#pab6c469c3d)" d="M 668.748913 768.96 
L 670.568478 768.96 
L 670.568478 383.130319 
L 668.748913 383.130319 
z
" style="fill:#1f77b4;"/>
   </g>
   <g id="patch_143">
    <path clip-path="url(#pab6c469c3d)" d="M 672.388043 768.96 
L 674.207609 768.96 
L 674.207609 519.196844 
L 672.388043 519.196844 
z
" style="fill:#1f77b4;"/>
   </g>
   <g id="patch_144">
    <path clip-path="url(#pab6c469c3d)" d="M 676.027174 768.96 
L 677.846739 768.96 
L 677.846739 569.093536 
L 676.027174 569.093536 
z
" style="fill:#1f77b4;"/>
   </g>
   <g id="patch_145">
    <path clip-path="url(#pab6c469c3d)" d="M 679.666304 768.96 
L 681.48587 768.96 
L 681.48587 677.202064 
L 679.666304 677.202064 
z
" style="fill:#1f77b4;"/>
   </g>
   <g id="patch_146">
    <path clip-path="url(#pab6c469c3d)" d="M 683.305435 768.96 
L 685.125 768.96 
L 685.125 616.968255 
L 683.305435 616.968255 
z
" style="fill:#1f77b4;"/>
   </g>
   <g id="patch_147">
    <path clip-path="url(#pab6c469c3d)" d="M 686.944565 768.96 
L 688.76413 768.96 
L 688.76413 584.336995 
L 686.944565 584.336995 
z
" style="fill:#1f77b4;"/>
   </g>
   <g id="patch_148">
    <path clip-path="url(#pab6c469c3d)" d="M 690.583696 768.96 
L 692.403261 768.96 
L 692.403261 583.416328 
L 690.583696 583.416328 
z
" style="fill:#1f77b4;"/>
   </g>
   <g id="patch_149">
    <path clip-path="url(#pab6c469c3d)" d="M 694.222826 768.96 
L 696.042391 768.96 
L 696.042391 573.463794 
L 694.222826 573.463794 
z
" style="fill:#1f77b4;"/>
   </g>
   <g id="patch_150">
    <path clip-path="url(#pab6c469c3d)" d="M 697.861957 768.96 
L 699.681522 768.96 
L 699.681522 586.306525 
L 697.861957 586.306525 
z
" style="fill:#1f77b4;"/>
   </g>
   <g id="patch_151">
    <path clip-path="url(#pab6c469c3d)" d="M 701.501087 768.96 
L 703.320652 768.96 
L 703.320652 644.034719 
L 701.501087 644.034719 
z
" style="fill:#1f77b4;"/>
   </g>
   <g id="patch_152">
    <path clip-path="url(#pab6c469c3d)" d="M 705.140217 768.96 
L 706.959783 768.96 
L 706.959783 698.878543 
L 705.140217 698.878543 
z
" style="fill:#1f77b4;"/>
   </g>
   <g id="patch_153">
    <path clip-path="url(#pab6c469c3d)" d="M 708.779348 768.96 
L 710.598913 768.96 
L 710.598913 718.055235 
L 708.779348 718.055235 
z
" style="fill:#1f77b4;"/>
   </g>
   <g id="patch_154">
    <path clip-path="url(#pab6c469c3d)" d="M 712.418478 768.96 
L 714.238043 768.96 
L 714.238043 658.899423 
L 712.418478 658.899423 
z
" style="fill:#1f77b4;"/>
   </g>
   <g id="patch_155">
    <path clip-path="url(#pab6c469c3d)" d="M 716.057609 768.96 
L 717.877174 768.96 
L 717.877174 652.600425 
L 716.057609 652.600425 
z
" style="fill:#1f77b4;"/>
   </g>
   <g id="patch_156">
    <path clip-path="url(#pab6c469c3d)" d="M 719.696739 768.96 
L 721.516304 768.96 
L 721.516304 580.68346 
L 719.696739 580.68346 
z
" style="fill:#1f77b4;"/>
   </g>
   <g id="patch_157">
    <path clip-path="url(#pab6c469c3d)" d="M 723.33587 768.96 
L 725.155435 768.96 
L 725.155435 556.186707 
L 723.33587 556.186707 
z
" style="fill:#1f77b4;"/>
   </g>
   <g id="patch_158">
    <path clip-path="url(#pab6c469c3d)" d="M 726.975 768.96 
L 728.794565 768.96 
L 728.794565 580.0017 
L 726.975 580.0017 
z
" style="fill:#1f77b4;"/>
   </g>
   <g id="patch_159">
    <path clip-path="url(#pab6c469c3d)" d="M 730.61413 768.96 
L 732.433696 768.96 
L 732.433696 634.303612 
L 730.61413 634.303612 
z
" style="fill:#1f77b4;"/>
   </g>
   <g id="patch_160">
    <path clip-path="url(#pab6c469c3d)" d="M 734.253261 768.96 
L 736.072826 768.96 
L 736.072826 581.854689 
L 734.253261 581.854689 
z
" style="fill:#1f77b4;"/>
   </g>
   <g id="patch_161">
    <path clip-path="url(#pab6c469c3d)" d="M 737.892391 768.96 
L 739.711957 768.96 
L 739.711957 567.75915 
L 737.892391 567.75915 
z
" style="fill:#1f77b4;"/>
   </g>
   <g id="patch_162">
    <path clip-path="url(#pab6c469c3d)" d="M 741.531522 768.96 
L 743.351087 768.96 
L 743.351087 534.673384 
L 741.531522 534.673384 
z
" style="fill:#1f77b4;"/>
   </g>
   <g id="patch_163">
    <path clip-path="url(#pab6c469c3d)" d="M 745.170652 768.96 
L 746.990217 768.96 
L 746.990217 606.706889 
L 745.170652 606.706889 
z
" style="fill:#1f77b4;"/>
   </g>
   <g id="patch_164">
    <path clip-path="url(#pab6c469c3d)" d="M 748.809783 768.96 
L 750.629348 768.96 
L 750.629348 615.208498 
L 748.809783 615.208498 
z
" style="fill:#1f77b4;"/>
   </g>
   <g id="patch_165">
    <path clip-path="url(#pab6c469c3d)" d="M 752.448913 768.96 
L 754.268478 768.96 
L 754.268478 676.654325 
L 752.448913 676.654325 
z
" style="fill:#1f77b4;"/>
   </g>
   <g id="patch_166">
    <path clip-path="url(#pab6c469c3d)" d="M 756.088043 768.96 
L 757.907609 768.96 
L 757.907609 675.547193 
L 756.088043 675.547193 
z
" style="fill:#1f77b4;"/>
   </g>
   <g id="patch_167">
    <path clip-path="url(#pab6c469c3d)" d="M 759.727174 768.96 
L 761.546739 768.96 
L 761.546739 484.438725 
L 759.727174 484.438725 
z
" style="fill:#1f77b4;"/>
   </g>
   <g id="patch_168">
    <path clip-path="url(#pab6c469c3d)" d="M 763.366304 768.96 
L 765.18587 768.96 
L 765.18587 557.917329 
L 763.366304 557.917329 
z
" style="fill:#1f77b4;"/>
   </g>
   <g id="patch_169">
    <path clip-path="url(#pab6c469c3d)" d="M 767.005435 768.96 
L 768.825 768.96 
L 768.825 624.275326 
L 767.005435 624.275326 
z
" style="fill:#1f77b4;"/>
   </g>
   <g id="patch_170">
    <path clip-path="url(#pab6c469c3d)" d="M 770.644565 768.96 
L 772.46413 768.96 
L 772.46413 579.203399 
L 770.644565 579.203399 
z
" style="fill:#1f77b4;"/>
   </g>
   <g id="patch_171">
    <path clip-path="url(#pab6c469c3d)" d="M 774.283696 768.96 
L 776.103261 768.96 
L 776.103261 677.301123 
L 774.283696 677.301123 
z
" style="fill:#1f77b4;"/>
   </g>
   <g id="patch_172">
    <path clip-path="url(#pab6c469c3d)" d="M 777.922826 768.96 
L 779.742391 768.96 
L 779.742391 627.235448 
L 777.922826 627.235448 
z
" style="fill:#1f77b4;"/>
   </g>
   <g id="patch_173">
    <path clip-path="url(#pab6c469c3d)" d="M 781.561957 768.96 
L 783.381522 768.96 
L 783.381522 708.370744 
L 781.561957 708.370744 
z
" style="fill:#1f77b4;"/>
   </g>
   <g id="patch_174">
    <path clip-path="url(#pab6c469c3d)" d="M 785.201087 768.96 
L 787.020652 768.96 
L 787.020652 694.910349 
L 785.201087 694.910349 
z
" style="fill:#1f77b4;"/>
   </g>
   <g id="patch_175">
    <path clip-path="url(#pab6c469c3d)" d="M 788.840217 768.96 
L 790.659783 768.96 
L 790.659783 678.303369 
L 788.840217 678.303369 
z
" style="fill:#1f77b4;"/>
   </g>
   <g id="patch_176">
    <path clip-path="url(#pab6c469c3d)" d="M 792.479348 768.96 
L 794.298913 768.96 
L 794.298913 658.986829 
L 792.479348 658.986829 
z
" style="fill:#1f77b4;"/>
   </g>
   <g id="patch_177">
    <path clip-path="url(#pab6c469c3d)" d="M 796.118478 768.96 
L 797.938043 768.96 
L 797.938043 635.702094 
L 796.118478 635.702094 
z
" style="fill:#1f77b4;"/>
   </g>
   <g id="patch_178">
    <path clip-path="url(#pab6c469c3d)" d="M 799.757609 768.96 
L 801.577174 768.96 
L 801.577174 472.790531 
L 799.757609 472.790531 
z
" style="fill:#1f77b4;"/>
   </g>
   <g id="patch_179">
    <path clip-path="url(#pab6c469c3d)" d="M 803.396739 768.96 
L 805.216304 768.96 
L 805.216304 427.165038 
L 803.396739 427.165038 
z
" style="fill:#1f77b4;"/>
   </g>
   <g id="patch_180">
    <path clip-path="url(#pab6c469c3d)" d="M 807.03587 768.96 
L 808.855435 768.96 
L 808.855435 738.368194 
L 807.03587 738.368194 
z
" style="fill:#1f77b4;"/>
   </g>
   <g id="patch_181">
    <path clip-path="url(#pab6c469c3d)" d="M 810.675 768.96 
L 812.494565 768.96 
L 812.494565 692.713566 
L 810.675 692.713566 
z
" style="fill:#1f77b4;"/>
   </g>
   <g id="patch_182">
    <path clip-path="url(#pab6c469c3d)" d="M 814.31413 768.96 
L 816.133696 768.96 
L 816.133696 674.859605 
L 814.31413 674.859605 
z
" style="fill:#1f77b4;"/>
   </g>
   <g id="patch_183">
    <path clip-path="url(#pab6c469c3d)" d="M 817.953261 768.96 
L 819.772826 768.96 
L 819.772826 678.501487 
L 817.953261 678.501487 
z
" style="fill:#1f77b4;"/>
   </g>
   <g id="patch_184">
    <path clip-path="url(#pab6c469c3d)" d="M 821.592391 768.96 
L 823.411957 768.96 
L 823.411957 687.597451 
L 821.592391 687.597451 
z
" style="fill:#1f77b4;"/>
   </g>
   <g id="patch_185">
    <path clip-path="url(#pab6c469c3d)" d="M 825.231522 768.96 
L 827.051087 768.96 
L 827.051087 687.603278 
L 825.231522 687.603278 
z
" style="fill:#1f77b4;"/>
   </g>
   <g id="patch_186">
    <path clip-path="url(#pab6c469c3d)" d="M 828.870652 768.96 
L 830.690217 768.96 
L 830.690217 708.35909 
L 828.870652 708.35909 
z
" style="fill:#1f77b4;"/>
   </g>
   <g id="patch_187">
    <path clip-path="url(#pab6c469c3d)" d="M 832.509783 768.96 
L 834.329348 768.96 
L 834.329348 739.894871 
L 832.509783 739.894871 
z
" style="fill:#1f77b4;"/>
   </g>
   <g id="patch_188">
    <path clip-path="url(#pab6c469c3d)" d="M 836.148913 768.96 
L 837.968478 768.96 
L 837.968478 764.012868 
L 836.148913 764.012868 
z
" style="fill:#1f77b4;"/>
   </g>
   <g id="patch_189">
    <path clip-path="url(#pab6c469c3d)" d="M 839.788043 768.96 
L 841.607609 768.96 
L 841.607609 721.638847 
L 839.788043 721.638847 
z
" style="fill:#1f77b4;"/>
   </g>
   <g id="patch_190">
    <path clip-path="url(#pab6c469c3d)" d="M 843.427174 768.96 
L 845.246739 768.96 
L 845.246739 685.534689 
L 843.427174 685.534689 
z
" style="fill:#1f77b4;"/>
   </g>
   <g id="patch_191">
    <path clip-path="url(#pab6c469c3d)" d="M 847.066304 768.96 
L 848.88587 768.96 
L 848.88587 685.336571 
L 847.066304 685.336571 
z
" style="fill:#1f77b4;"/>
   </g>
   <g id="patch_192">
    <path clip-path="url(#pab6c469c3d)" d="M 850.705435 768.96 
L 852.525 768.96 
L 852.525 695.469742 
L 850.705435 695.469742 
z
" style="fill:#1f77b4;"/>
   </g>
   <g id="patch_193">
    <path clip-path="url(#pab6c469c3d)" d="M 854.344565 768.96 
L 856.16413 768.96 
L 856.16413 707.106282 
L 854.344565 707.106282 
z
" style="fill:#1f77b4;"/>
   </g>
   <g id="patch_194">
    <path clip-path="url(#pab6c469c3d)" d="M 857.983696 768.96 
L 859.803261 768.96 
L 859.803261 726.819059 
L 857.983696 726.819059 
z
" style="fill:#1f77b4;"/>
   </g>
   <g id="patch_195">
    <path clip-path="url(#pab6c469c3d)" d="M 861.622826 768.96 
L 863.442391 768.96 
L 863.442391 690.155508 
L 861.622826 690.155508 
z
" style="fill:#1f77b4;"/>
   </g>
   <g id="patch_196">
    <path clip-path="url(#pab6c469c3d)" d="M 865.261957 768.96 
L 867.081522 768.96 
L 867.081522 703.586768 
L 865.261957 703.586768 
z
" style="fill:#1f77b4;"/>
   </g>
   <g id="patch_197">
    <path clip-path="url(#pab6c469c3d)" d="M 868.901087 768.96 
L 870.720652 768.96 
L 870.720652 706.785797 
L 868.901087 706.785797 
z
" style="fill:#1f77b4;"/>
   </g>
   <g id="patch_198">
    <path clip-path="url(#pab6c469c3d)" d="M 872.540217 768.96 
L 874.359783 768.96 
L 874.359783 707.112109 
L 872.540217 707.112109 
z
" style="fill:#1f77b4;"/>
   </g>
   <g id="patch_199">
    <path clip-path="url(#pab6c469c3d)" d="M 876.179348 768.96 
L 877.998913 768.96 
L 877.998913 706.523581 
L 876.179348 706.523581 
z
" style="fill:#1f77b4;"/>
   </g>
   <g id="patch_200">
    <path clip-path="url(#pab6c469c3d)" d="M 879.818478 768.96 
L 881.638043 768.96 
L 881.638043 716.907314 
L 879.818478 716.907314 
z
" style="fill:#1f77b4;"/>
   </g>
   <g id="patch_201">
    <path clip-path="url(#pab6c469c3d)" d="M 883.457609 768.96 
L 885.277174 768.96 
L 885.277174 733.6017 
L 883.457609 733.6017 
z
" style="fill:#1f77b4;"/>
   </g>
   <g id="patch_202">
    <path clip-path="url(#pab6c469c3d)" d="M 887.096739 768.96 
L 888.916304 768.96 
L 888.916304 716.301305 
L 887.096739 716.301305 
z
" style="fill:#1f77b4;"/>
   </g>
   <g id="patch_203">
    <path clip-path="url(#pab6c469c3d)" d="M 890.73587 768.96 
L 892.555435 768.96 
L 892.555435 698.493961 
L 890.73587 698.493961 
z
" style="fill:#1f77b4;"/>
   </g>
   <g id="patch_204">
    <path clip-path="url(#pab6c469c3d)" d="M 894.375 768.96 
L 896.194565 768.96 
L 896.194565 703.208012 
L 894.375 703.208012 
z
" style="fill:#1f77b4;"/>
   </g>
   <g id="patch_205">
    <path clip-path="url(#pab6c469c3d)" d="M 898.01413 768.96 
L 899.833696 768.96 
L 899.833696 721.143551 
L 898.01413 721.143551 
z
" style="fill:#1f77b4;"/>
   </g>
   <g id="patch_206">
    <path clip-path="url(#pab6c469c3d)" d="M 901.653261 768.96 
L 903.472826 768.96 
L 903.472826 720.147132 
L 901.653261 720.147132 
z
" style="fill:#1f77b4;"/>
   </g>
   <g id="patch_207">
    <path clip-path="url(#pab6c469c3d)" d="M 905.292391 768.96 
L 907.111957 768.96 
L 907.111957 738.723642 
L 905.292391 738.723642 
z
" style="fill:#1f77b4;"/>
   </g>
   <g id="patch_208">
    <path clip-path="url(#pab6c469c3d)" d="M 908.931522 768.96 
L 910.751087 768.96 
L 910.751087 751.420698 
L 908.931522 751.420698 
z
" style="fill:#1f77b4;"/>
   </g>
   <g id="patch_209">
    <path clip-path="url(#pab6c469c3d)" d="M 912.570652 768.96 
L 914.390217 768.96 
L 914.390217 739.556904 
L 912.570652 739.556904 
z
" style="fill:#1f77b4;"/>
   </g>
   <g id="patch_210">
    <path clip-path="url(#pab6c469c3d)" d="M 916.209783 768.96 
L 918.029348 768.96 
L 918.029348 702.182458 
L 916.209783 702.182458 
z
" style="fill:#1f77b4;"/>
   </g>
   <g id="patch_211">
    <path clip-path="url(#pab6c469c3d)" d="M 919.848913 768.96 
L 921.668478 768.96 
L 921.668478 656.906586 
L 919.848913 656.906586 
z
" style="fill:#1f77b4;"/>
   </g>
   <g id="patch_212">
    <path clip-path="url(#pab6c469c3d)" d="M 923.488043 768.96 
L 925.307609 768.96 
L 925.307609 710.643278 
L 923.488043 710.643278 
z
" style="fill:#1f77b4;"/>
   </g>
   <g id="patch_213">
    <path clip-path="url(#pab6c469c3d)" d="M 927.127174 768.96 
L 928.946739 768.96 
L 928.946739 642.443945 
L 927.127174 642.443945 
z
" style="fill:#1f77b4;"/>
   </g>
   <g id="patch_214">
    <path clip-path="url(#pab6c469c3d)" d="M 930.766304 768.96 
L 932.58587 768.96 
L 932.58587 722.973232 
L 930.766304 722.973232 
z
" style="fill:#1f77b4;"/>
   </g>
   <g id="patch_215">
    <path clip-path="url(#pab6c469c3d)" d="M 934.405435 768.96 
L 936.225 768.96 
L 936.225 734.609772 
L 934.405435 734.609772 
z
" style="fill:#1f77b4;"/>
   </g>
   <g id="patch_216">
    <path clip-path="url(#pab6c469c3d)" d="M 938.044565 768.96 
L 939.86413 768.96 
L 939.86413 722.087527 
L 938.044565 722.087527 
z
" style="fill:#1f77b4;"/>
   </g>
   <g id="patch_217">
    <path clip-path="url(#pab6c469c3d)" d="M 941.683696 768.96 
L 943.503261 768.96 
L 943.503261 705.521335 
L 941.683696 705.521335 
z
" style="fill:#1f77b4;"/>
   </g>
   <g id="patch_218">
    <path clip-path="url(#pab6c469c3d)" d="M 945.322826 768.96 
L 947.142391 768.96 
L 947.142391 710.480121 
L 945.322826 710.480121 
z
" style="fill:#1f77b4;"/>
   </g>
   <g id="patch_219">
    <path clip-path="url(#pab6c469c3d)" d="M 948.961957 768.96 
L 950.781522 768.96 
L 950.781522 708.539727 
L 948.961957 708.539727 
z
" style="fill:#1f77b4;"/>
   </g>
   <g id="patch_220">
    <path clip-path="url(#pab6c469c3d)" d="M 952.601087 768.96 
L 954.420652 768.96 
L 954.420652 704.746343 
L 952.601087 704.746343 
z
" style="fill:#1f77b4;"/>
   </g>
   <g id="patch_221">
    <path clip-path="url(#pab6c469c3d)" d="M 956.240217 768.96 
L 958.059783 768.96 
L 958.059783 666.52698 
L 956.240217 666.52698 
z
" style="fill:#1f77b4;"/>
   </g>
   <g id="patch_222">
    <path clip-path="url(#pab6c469c3d)" d="M 959.879348 768.96 
L 961.698913 768.96 
L 961.698913 729.266404 
L 959.879348 729.266404 
z
" style="fill:#1f77b4;"/>
   </g>
   <g id="patch_223">
    <path clip-path="url(#pab6c469c3d)" d="M 963.518478 768.96 
L 965.338043 768.96 
L 965.338043 723.56176 
L 963.518478 723.56176 
z
" style="fill:#1f77b4;"/>
   </g>
   <g id="patch_224">
    <path clip-path="url(#pab6c469c3d)" d="M 967.157609 768.96 
L 968.977174 768.96 
L 968.977174 725.758543 
L 967.157609 725.758543 
z
" style="fill:#1f77b4;"/>
   </g>
   <g id="patch_225">
    <path clip-path="url(#pab6c469c3d)" d="M 970.796739 768.96 
L 972.616304 768.96 
L 972.616304 613.973171 
L 970.796739 613.973171 
z
" style="fill:#1f77b4;"/>
   </g>
   <g id="patch_226">
    <path clip-path="url(#pab6c469c3d)" d="M 974.43587 768.96 
L 976.255435 768.96 
L 976.255435 632.18258 
L 974.43587 632.18258 
z
" style="fill:#1f77b4;"/>
   </g>
   <g id="patch_227">
    <path clip-path="url(#pab6c469c3d)" d="M 978.075 768.96 
L 979.894565 768.96 
L 979.894565 645.427375 
L 978.075 645.427375 
z
" style="fill:#1f77b4;"/>
   </g>
   <g id="patch_228">
    <path clip-path="url(#pab6c469c3d)" d="M 981.71413 768.96 
L 983.533696 768.96 
L 983.533696 608.134507 
L 981.71413 608.134507 
z
" style="fill:#1f77b4;"/>
   </g>
   <g id="patch_229">
    <path clip-path="url(#pab6c469c3d)" d="M 985.353261 768.96 
L 987.172826 768.96 
L 987.172826 658.619727 
L 985.353261 658.619727 
z
" style="fill:#1f77b4;"/>
   </g>
   <g id="patch_230">
    <path clip-path="url(#pab6c469c3d)" d="M 988.992391 768.96 
L 990.811957 768.96 
L 990.811957 715.08346 
L 988.992391 715.08346 
z
" style="fill:#1f77b4;"/>
   </g>
   <g id="patch_231">
    <path clip-path="url(#pab6c469c3d)" d="M 992.631522 768.96 
L 994.451087 768.96 
L 994.451087 692.649469 
L 992.631522 692.649469 
z
" style="fill:#1f77b4;"/>
   </g>
   <g id="patch_232">
    <path clip-path="url(#pab6c469c3d)" d="M 996.270652 768.96 
L 998.090217 768.96 
L 998.090217 697.200364 
L 996.270652 697.200364 
z
" style="fill:#1f77b4;"/>
   </g>
   <g id="patch_233">
    <path clip-path="url(#pab6c469c3d)" d="M 999.909783 768.96 
L 1001.729348 768.96 
L 1001.729348 700.673263 
L 999.909783 700.673263 
z
" style="fill:#1f77b4;"/>
   </g>
   <g id="patch_234">
    <path clip-path="url(#pab6c469c3d)" d="M 1003.548913 768.96 
L 1005.368478 768.96 
L 1005.368478 702.805948 
L 1003.548913 702.805948 
z
" style="fill:#1f77b4;"/>
   </g>
   <g id="patch_235">
    <path clip-path="url(#pab6c469c3d)" d="M 1007.188043 768.96 
L 1009.007609 768.96 
L 1009.007609 701.564795 
L 1007.188043 701.564795 
z
" style="fill:#1f77b4;"/>
   </g>
   <g id="patch_236">
    <path clip-path="url(#pab6c469c3d)" d="M 1010.827174 768.96 
L 1012.646739 768.96 
L 1012.646739 724.156115 
L 1010.827174 724.156115 
z
" style="fill:#1f77b4;"/>
   </g>
   <g id="patch_237">
    <path clip-path="url(#pab6c469c3d)" d="M 1014.466304 768.96 
L 1016.28587 768.96 
L 1016.28587 714.040425 
L 1014.466304 714.040425 
z
" style="fill:#1f77b4;"/>
   </g>
   <g id="patch_238">
    <path clip-path="url(#pab6c469c3d)" d="M 1018.105435 768.96 
L 1019.925 768.96 
L 1019.925 693.086495 
L 1018.105435 693.086495 
z
" style="fill:#1f77b4;"/>
   </g>
   <g id="patch_239">
    <path clip-path="url(#pab6c469c3d)" d="M 1021.744565 768.96 
L 1023.56413 768.96 
L 1023.56413 696.425372 
L 1021.744565 696.425372 
z
" style="fill:#1f77b4;"/>
   </g>
   <g id="patch_240">
    <path clip-path="url(#pab6c469c3d)" d="M 1025.383696 768.96 
L 1027.203261 768.96 
L 1027.203261 692.480486 
L 1025.383696 692.480486 
z
" style="fill:#1f77b4;"/>
   </g>
   <g id="patch_241">
    <path clip-path="url(#pab6c469c3d)" d="M 1029.022826 768.96 
L 1030.842391 768.96 
L 1030.842391 682.137542 
L 1029.022826 682.137542 
z
" style="fill:#1f77b4;"/>
   </g>
   <g id="patch_242">
    <path clip-path="url(#pab6c469c3d)" d="M 1032.661957 768.96 
L 1034.481522 768.96 
L 1034.481522 643.626829 
L 1032.661957 643.626829 
z
" style="fill:#1f77b4;"/>
   </g>
   <g id="patch_243">
    <path clip-path="url(#pab6c469c3d)" d="M 1036.301087 768.96 
L 1038.120652 768.96 
L 1038.120652 564.822337 
L 1036.301087 564.822337 
z
" style="fill:#1f77b4;"/>
   </g>
   <g id="patch_244">
    <path clip-path="url(#pab6c469c3d)" d="M 1039.940217 768.96 
L 1041.759783 768.96 
L 1041.759783 673.985554 
L 1039.940217 673.985554 
z
" style="fill:#1f77b4;"/>
   </g>
   <g id="patch_245">
    <path clip-path="url(#pab6c469c3d)" d="M 1043.579348 768.96 
L 1045.398913 768.96 
L 1045.398913 693.709985 
L 1043.579348 693.709985 
z
" style="fill:#1f77b4;"/>
   </g>
   <g id="patch_246">
    <path clip-path="url(#pab6c469c3d)" d="M 1047.218478 768.96 
L 1049.038043 768.96 
L 1049.038043 698.738695 
L 1047.218478 698.738695 
z
" style="fill:#1f77b4;"/>
   </g>
   <g id="patch_247">
    <path clip-path="url(#pab6c469c3d)" d="M 1050.857609 768.96 
L 1052.677174 768.96 
L 1052.677174 704.431684 
L 1050.857609 704.431684 
z
" style="fill:#1f77b4;"/>
   </g>
   <g id="patch_248">
    <path clip-path="url(#pab6c469c3d)" d="M 1054.496739 768.96 
L 1056.316304 768.96 
L 1056.316304 703.697481 
L 1054.496739 703.697481 
z
" style="fill:#1f77b4;"/>
   </g>
   <g id="patch_249">
    <path clip-path="url(#pab6c469c3d)" d="M 1058.13587 768.96 
L 1059.955435 768.96 
L 1059.955435 708.021123 
L 1058.13587 708.021123 
z
" style="fill:#1f77b4;"/>
   </g>
   <g id="patch_250">
    <path clip-path="url(#pab6c469c3d)" d="M 1061.775 768.96 
L 1063.594565 768.96 
L 1063.594565 727.197815 
L 1061.775 727.197815 
z
" style="fill:#1f77b4;"/>
   </g>
   <g id="patch_251">
    <path clip-path="url(#pab6c469c3d)" d="M 1065.41413 768.96 
L 1067.233696 768.96 
L 1067.233696 739.54525 
L 1065.41413 739.54525 
z
" style="fill:#1f77b4;"/>
   </g>
   <g id="patch_252">
    <path clip-path="url(#pab6c469c3d)" d="M 1069.053261 768.96 
L 1070.872826 768.96 
L 1070.872826 732.832534 
L 1069.053261 732.832534 
z
" style="fill:#1f77b4;"/>
   </g>
   <g id="patch_253">
    <path clip-path="url(#pab6c469c3d)" d="M 1072.692391 768.96 
L 1074.511957 768.96 
L 1074.511957 695.749439 
L 1072.692391 695.749439 
z
" style="fill:#1f77b4;"/>
   </g>
   <g id="patch_254">
    <path clip-path="url(#pab6c469c3d)" d="M 1076.331522 768.96 
L 1078.151087 768.96 
L 1078.151087 704.6939 
L 1076.331522 704.6939 
z
" style="fill:#1f77b4;"/>
   </g>
   <g id="patch_255">
    <path clip-path="url(#pab6c469c3d)" d="M 1079.970652 768.96 
L 1081.790217 768.96 
L 1081.790217 707.642367 
L 1079.970652 707.642367 
z
" style="fill:#1f77b4;"/>
   </g>
   <g id="patch_256">
    <path clip-path="url(#pab6c469c3d)" d="M 1083.609783 768.96 
L 1085.429348 768.96 
L 1085.429348 712.66525 
L 1083.609783 712.66525 
z
" style="fill:#1f77b4;"/>
   </g>
   <g id="patch_257">
    <path clip-path="url(#pab6c469c3d)" d="M 1087.248913 768.96 
L 1089.068478 768.96 
L 1089.068478 727.133718 
L 1087.248913 727.133718 
z
" style="fill:#1f77b4;"/>
   </g>
   <g id="patch_258">
    <path clip-path="url(#pab6c469c3d)" d="M 1090.888043 768.96 
L 1092.707609 768.96 
L 1092.707609 722.174932 
L 1090.888043 722.174932 
z
" style="fill:#1f77b4;"/>
   </g>
   <g id="patch_259">
    <path clip-path="url(#pab6c469c3d)" d="M 1094.527174 768.96 
L 1096.346739 768.96 
L 1096.346739 706.15648 
L 1094.527174 706.15648 
z
" style="fill:#1f77b4;"/>
   </g>
   <g id="patch_260">
    <path clip-path="url(#pab6c469c3d)" d="M 1098.166304 768.96 
L 1099.98587 768.96 
L 1099.98587 709.413778 
L 1098.166304 709.413778 
z
" style="fill:#1f77b4;"/>
   </g>
   <g id="patch_261">
    <path clip-path="url(#pab6c469c3d)" d="M 1101.805435 768.96 
L 1103.625 768.96 
L 1103.625 708.889347 
L 1101.805435 708.889347 
z
" style="fill:#1f77b4;"/>
   </g>
   <g id="patch_262">
    <path clip-path="url(#pab6c469c3d)" d="M 1105.444565 768.96 
L 1107.26413 768.96 
L 1107.26413 706.739181 
L 1105.444565 706.739181 
z
" style="fill:#1f77b4;"/>
   </g>
   <g id="patch_263">
    <path clip-path="url(#pab6c469c3d)" d="M 1109.083696 768.96 
L 1110.903261 768.96 
L 1110.903261 707.764734 
L 1109.083696 707.764734 
z
" style="fill:#1f77b4;"/>
   </g>
   <g id="patch_264">
    <path clip-path="url(#pab6c469c3d)" d="M 1112.722826 768.96 
L 1114.542391 768.96 
L 1114.542391 724.505736 
L 1112.722826 724.505736 
z
" style="fill:#1f77b4;"/>
   </g>
   <g id="patch_265">
    <path clip-path="url(#pab6c469c3d)" d="M 1116.361957 768.96 
L 1118.181522 768.96 
L 1118.181522 727.757208 
L 1116.361957 727.757208 
z
" style="fill:#1f77b4;"/>
   </g>
   <g id="patch_266">
    <path clip-path="url(#pab6c469c3d)" d="M 1120.001087 768.96 
L 1121.820652 768.96 
L 1121.820652 698.76783 
L 1120.001087 698.76783 
z
" style="fill:#1f77b4;"/>
   </g>
   <g id="patch_267">
    <path clip-path="url(#pab6c469c3d)" d="M 1123.640217 768.96 
L 1125.459783 768.96 
L 1125.459783 718.2417 
L 1123.640217 718.2417 
z
" style="fill:#1f77b4;"/>
   </g>
   <g id="patch_268">
    <path clip-path="url(#pab6c469c3d)" d="M 1127.279348 768.96 
L 1129.098913 768.96 
L 1129.098913 695.015235 
L 1127.279348 695.015235 
z
" style="fill:#1f77b4;"/>
   </g>
   <g id="patch_269">
    <path clip-path="url(#pab6c469c3d)" d="M 1130.918478 768.96 
L 1132.738043 768.96 
L 1132.738043 698.324977 
L 1130.918478 698.324977 
z
" style="fill:#1f77b4;"/>
   </g>
   <g id="patch_270">
    <path clip-path="url(#pab6c469c3d)" d="M 1134.557609 768.96 
L 1136.377174 768.96 
L 1136.377174 712.60698 
L 1134.557609 712.60698 
z
" style="fill:#1f77b4;"/>
   </g>
   <g id="patch_271">
    <path clip-path="url(#pab6c469c3d)" d="M 1138.196739 768.96 
L 1140.016304 768.96 
L 1140.016304 732.028407 
L 1138.196739 732.028407 
z
" style="fill:#1f77b4;"/>
   </g>
   <g id="patch_272">
    <path clip-path="url(#pab6c469c3d)" d="M 1141.83587 768.96 
L 1143.655435 768.96 
L 1143.655435 722.151624 
L 1141.83587 722.151624 
z
" style="fill:#1f77b4;"/>
   </g>
   <g id="patch_273">
    <path clip-path="url(#pab6c469c3d)" d="M 1145.475 768.96 
L 1147.294565 768.96 
L 1147.294565 713.684977 
L 1145.475 713.684977 
z
" style="fill:#1f77b4;"/>
   </g>
   <g id="patch_274">
    <path clip-path="url(#pab6c469c3d)" d="M 1149.11413 768.96 
L 1150.933696 768.96 
L 1150.933696 729.068285 
L 1149.11413 729.068285 
z
" style="fill:#1f77b4;"/>
   </g>
   <g id="patch_275">
    <path clip-path="url(#pab6c469c3d)" d="M 1152.753261 768.96 
L 1154.572826 768.96 
L 1154.572826 741.2817 
L 1152.753261 741.2817 
z
" style="fill:#1f77b4;"/>
   </g>
   <g id="patch_276">
    <path clip-path="url(#pab6c469c3d)" d="M 1156.392391 768.96 
L 1158.211957 768.96 
L 1158.211957 700.813111 
L 1156.392391 700.813111 
z
" style="fill:#1f77b4;"/>
   </g>
   <g id="patch_277">
    <path clip-path="url(#pab6c469c3d)" d="M 1160.031522 768.96 
L 1161.851087 768.96 
L 1161.851087 681.543187 
L 1160.031522 681.543187 
z
" style="fill:#1f77b4;"/>
   </g>
   <g id="patch_278">
    <path clip-path="url(#pab6c469c3d)" d="M 1163.670652 768.96 
L 1165.490217 768.96 
L 1165.490217 738.385675 
L 1163.670652 738.385675 
z
" style="fill:#1f77b4;"/>
   </g>
   <g id="matplotlib.axis_1">
    <g id="xtick_1">
     <g id="line2d_1">
      <defs>
       <path d="M 0 0 
L 0 3.5 
" id="me650ab5ea3" style="stroke:#000000;stroke-width:0.8;"/>
      </defs>
      <g>
       <use style="stroke:#000000;stroke-width:0.8;" x="163.819565" xlink:href="#me650ab5ea3" y="768.96"/>
      </g>
     </g>
     <g id="text_1">
      <!-- January -->
      <g transform="translate(144.864096 783.558437)scale(0.1 -0.1)">
       <defs>
        <path d="M 628 4666 
L 1259 4666 
L 1259 325 
Q 1259 -519 939 -900 
Q 619 -1281 -91 -1281 
L -331 -1281 
L -331 -750 
L -134 -750 
Q 284 -750 456 -515 
Q 628 -281 628 325 
L 628 4666 
z
" id="DejaVuSans-4a" transform="scale(0.015625)"/>
        <path d="M 2194 1759 
Q 1497 1759 1228 1600 
Q 959 1441 959 1056 
Q 959 750 1161 570 
Q 1363 391 1709 391 
Q 2188 391 2477 730 
Q 2766 1069 2766 1631 
L 2766 1759 
L 2194 1759 
z
M 3341 1997 
L 3341 0 
L 2766 0 
L 2766 531 
Q 2569 213 2275 61 
Q 1981 -91 1556 -91 
Q 1019 -91 701 211 
Q 384 513 384 1019 
Q 384 1609 779 1909 
Q 1175 2209 1959 2209 
L 2766 2209 
L 2766 2266 
Q 2766 2663 2505 2880 
Q 2244 3097 1772 3097 
Q 1472 3097 1187 3025 
Q 903 2953 641 2809 
L 641 3341 
Q 956 3463 1253 3523 
Q 1550 3584 1831 3584 
Q 2591 3584 2966 3190 
Q 3341 2797 3341 1997 
z
" id="DejaVuSans-61" transform="scale(0.015625)"/>
        <path d="M 3513 2113 
L 3513 0 
L 2938 0 
L 2938 2094 
Q 2938 2591 2744 2837 
Q 2550 3084 2163 3084 
Q 1697 3084 1428 2787 
Q 1159 2491 1159 1978 
L 1159 0 
L 581 0 
L 581 3500 
L 1159 3500 
L 1159 2956 
Q 1366 3272 1645 3428 
Q 1925 3584 2291 3584 
Q 2894 3584 3203 3211 
Q 3513 2838 3513 2113 
z
" id="DejaVuSans-6e" transform="scale(0.015625)"/>
        <path d="M 544 1381 
L 544 3500 
L 1119 3500 
L 1119 1403 
Q 1119 906 1312 657 
Q 1506 409 1894 409 
Q 2359 409 2629 706 
Q 2900 1003 2900 1516 
L 2900 3500 
L 3475 3500 
L 3475 0 
L 2900 0 
L 2900 538 
Q 2691 219 2414 64 
Q 2138 -91 1772 -91 
Q 1169 -91 856 284 
Q 544 659 544 1381 
z
M 1991 3584 
L 1991 3584 
z
" id="DejaVuSans-75" transform="scale(0.015625)"/>
        <path d="M 2631 2963 
Q 2534 3019 2420 3045 
Q 2306 3072 2169 3072 
Q 1681 3072 1420 2755 
Q 1159 2438 1159 1844 
L 1159 0 
L 581 0 
L 581 3500 
L 1159 3500 
L 1159 2956 
Q 1341 3275 1631 3429 
Q 1922 3584 2338 3584 
Q 2397 3584 2469 3576 
Q 2541 3569 2628 3553 
L 2631 2963 
z
" id="DejaVuSans-72" transform="scale(0.015625)"/>
        <path d="M 2059 -325 
Q 1816 -950 1584 -1140 
Q 1353 -1331 966 -1331 
L 506 -1331 
L 506 -850 
L 844 -850 
Q 1081 -850 1212 -737 
Q 1344 -625 1503 -206 
L 1606 56 
L 191 3500 
L 800 3500 
L 1894 763 
L 2988 3500 
L 3597 3500 
L 2059 -325 
z
" id="DejaVuSans-79" transform="scale(0.015625)"/>
       </defs>
       <use xlink:href="#DejaVuSans-4a"/>
       <use x="29.492188" xlink:href="#DejaVuSans-61"/>
       <use x="90.771484" xlink:href="#DejaVuSans-6e"/>
       <use x="154.150391" xlink:href="#DejaVuSans-75"/>
       <use x="217.529297" xlink:href="#DejaVuSans-61"/>
       <use x="278.808594" xlink:href="#DejaVuSans-72"/>
       <use x="319.921875" xlink:href="#DejaVuSans-79"/>
      </g>
     </g>
    </g>
    <g id="xtick_2">
     <g id="line2d_2">
      <g>
       <use style="stroke:#000000;stroke-width:0.8;" x="276.632609" xlink:href="#me650ab5ea3" y="768.96"/>
      </g>
     </g>
     <g id="text_2">
      <!-- February -->
      <g transform="translate(254.477921 783.558437)scale(0.1 -0.1)">
       <defs>
        <path d="M 628 4666 
L 3309 4666 
L 3309 4134 
L 1259 4134 
L 1259 2759 
L 3109 2759 
L 3109 2228 
L 1259 2228 
L 1259 0 
L 628 0 
L 628 4666 
z
" id="DejaVuSans-46" transform="scale(0.015625)"/>
        <path d="M 3597 1894 
L 3597 1613 
L 953 1613 
Q 991 1019 1311 708 
Q 1631 397 2203 397 
Q 2534 397 2845 478 
Q 3156 559 3463 722 
L 3463 178 
Q 3153 47 2828 -22 
Q 2503 -91 2169 -91 
Q 1331 -91 842 396 
Q 353 884 353 1716 
Q 353 2575 817 3079 
Q 1281 3584 2069 3584 
Q 2775 3584 3186 3129 
Q 3597 2675 3597 1894 
z
M 3022 2063 
Q 3016 2534 2758 2815 
Q 2500 3097 2075 3097 
Q 1594 3097 1305 2825 
Q 1016 2553 972 2059 
L 3022 2063 
z
" id="DejaVuSans-65" transform="scale(0.015625)"/>
        <path d="M 3116 1747 
Q 3116 2381 2855 2742 
Q 2594 3103 2138 3103 
Q 1681 3103 1420 2742 
Q 1159 2381 1159 1747 
Q 1159 1113 1420 752 
Q 1681 391 2138 391 
Q 2594 391 2855 752 
Q 3116 1113 3116 1747 
z
M 1159 2969 
Q 1341 3281 1617 3432 
Q 1894 3584 2278 3584 
Q 2916 3584 3314 3078 
Q 3713 2572 3713 1747 
Q 3713 922 3314 415 
Q 2916 -91 2278 -91 
Q 1894 -91 1617 61 
Q 1341 213 1159 525 
L 1159 0 
L 581 0 
L 581 4863 
L 1159 4863 
L 1159 2969 
z
" id="DejaVuSans-62" transform="scale(0.015625)"/>
       </defs>
       <use xlink:href="#DejaVuSans-46"/>
       <use x="52.019531" xlink:href="#DejaVuSans-65"/>
       <use x="113.542969" xlink:href="#DejaVuSans-62"/>
       <use x="177.019531" xlink:href="#DejaVuSans-72"/>
       <use x="218.132812" xlink:href="#DejaVuSans-75"/>
       <use x="281.511719" xlink:href="#DejaVuSans-61"/>
       <use x="342.791016" xlink:href="#DejaVuSans-72"/>
       <use x="383.904297" xlink:href="#DejaVuSans-79"/>
      </g>
     </g>
    </g>
    <g id="xtick_3">
     <g id="line2d_3">
      <g>
       <use style="stroke:#000000;stroke-width:0.8;" x="378.528261" xlink:href="#me650ab5ea3" y="768.96"/>
      </g>
     </g>
     <g id="text_3">
      <!-- March -->
      <g transform="translate(363.289198 783.558437)scale(0.1 -0.1)">
       <defs>
        <path d="M 628 4666 
L 1569 4666 
L 2759 1491 
L 3956 4666 
L 4897 4666 
L 4897 0 
L 4281 0 
L 4281 4097 
L 3078 897 
L 2444 897 
L 1241 4097 
L 1241 0 
L 628 0 
L 628 4666 
z
" id="DejaVuSans-4d" transform="scale(0.015625)"/>
        <path d="M 3122 3366 
L 3122 2828 
Q 2878 2963 2633 3030 
Q 2388 3097 2138 3097 
Q 1578 3097 1268 2742 
Q 959 2388 959 1747 
Q 959 1106 1268 751 
Q 1578 397 2138 397 
Q 2388 397 2633 464 
Q 2878 531 3122 666 
L 3122 134 
Q 2881 22 2623 -34 
Q 2366 -91 2075 -91 
Q 1284 -91 818 406 
Q 353 903 353 1747 
Q 353 2603 823 3093 
Q 1294 3584 2113 3584 
Q 2378 3584 2631 3529 
Q 2884 3475 3122 3366 
z
" id="DejaVuSans-63" transform="scale(0.015625)"/>
        <path d="M 3513 2113 
L 3513 0 
L 2938 0 
L 2938 2094 
Q 2938 2591 2744 2837 
Q 2550 3084 2163 3084 
Q 1697 3084 1428 2787 
Q 1159 2491 1159 1978 
L 1159 0 
L 581 0 
L 581 4863 
L 1159 4863 
L 1159 2956 
Q 1366 3272 1645 3428 
Q 1925 3584 2291 3584 
Q 2894 3584 3203 3211 
Q 3513 2838 3513 2113 
z
" id="DejaVuSans-68" transform="scale(0.015625)"/>
       </defs>
       <use xlink:href="#DejaVuSans-4d"/>
       <use x="86.279297" xlink:href="#DejaVuSans-61"/>
       <use x="147.558594" xlink:href="#DejaVuSans-72"/>
       <use x="186.421875" xlink:href="#DejaVuSans-63"/>
       <use x="241.402344" xlink:href="#DejaVuSans-68"/>
      </g>
     </g>
    </g>
    <g id="xtick_4">
     <g id="line2d_4">
      <g>
       <use style="stroke:#000000;stroke-width:0.8;" x="491.341304" xlink:href="#me650ab5ea3" y="768.96"/>
      </g>
     </g>
     <g id="text_4">
      <!-- April -->
      <g transform="translate(479.913179 783.558437)scale(0.1 -0.1)">
       <defs>
        <path d="M 2188 4044 
L 1331 1722 
L 3047 1722 
L 2188 4044 
z
M 1831 4666 
L 2547 4666 
L 4325 0 
L 3669 0 
L 3244 1197 
L 1141 1197 
L 716 0 
L 50 0 
L 1831 4666 
z
" id="DejaVuSans-41" transform="scale(0.015625)"/>
        <path d="M 1159 525 
L 1159 -1331 
L 581 -1331 
L 581 3500 
L 1159 3500 
L 1159 2969 
Q 1341 3281 1617 3432 
Q 1894 3584 2278 3584 
Q 2916 3584 3314 3078 
Q 3713 2572 3713 1747 
Q 3713 922 3314 415 
Q 2916 -91 2278 -91 
Q 1894 -91 1617 61 
Q 1341 213 1159 525 
z
M 3116 1747 
Q 3116 2381 2855 2742 
Q 2594 3103 2138 3103 
Q 1681 3103 1420 2742 
Q 1159 2381 1159 1747 
Q 1159 1113 1420 752 
Q 1681 391 2138 391 
Q 2594 391 2855 752 
Q 3116 1113 3116 1747 
z
" id="DejaVuSans-70" transform="scale(0.015625)"/>
        <path d="M 603 3500 
L 1178 3500 
L 1178 0 
L 603 0 
L 603 3500 
z
M 603 4863 
L 1178 4863 
L 1178 4134 
L 603 4134 
L 603 4863 
z
" id="DejaVuSans-69" transform="scale(0.015625)"/>
        <path d="M 603 4863 
L 1178 4863 
L 1178 0 
L 603 0 
L 603 4863 
z
" id="DejaVuSans-6c" transform="scale(0.015625)"/>
       </defs>
       <use xlink:href="#DejaVuSans-41"/>
       <use x="68.408203" xlink:href="#DejaVuSans-70"/>
       <use x="131.884766" xlink:href="#DejaVuSans-72"/>
       <use x="172.998047" xlink:href="#DejaVuSans-69"/>
       <use x="200.78125" xlink:href="#DejaVuSans-6c"/>
      </g>
     </g>
    </g>
    <g id="xtick_5">
     <g id="line2d_5">
      <g>
       <use style="stroke:#000000;stroke-width:0.8;" x="600.515217" xlink:href="#me650ab5ea3" y="768.96"/>
      </g>
     </g>
     <g id="text_5">
      <!-- May -->
      <g transform="translate(590.177717 783.558437)scale(0.1 -0.1)">
       <use xlink:href="#DejaVuSans-4d"/>
       <use x="86.279297" xlink:href="#DejaVuSans-61"/>
       <use x="147.558594" xlink:href="#DejaVuSans-79"/>
      </g>
     </g>
    </g>
    <g id="xtick_6">
     <g id="line2d_6">
      <g>
       <use style="stroke:#000000;stroke-width:0.8;" x="713.328261" xlink:href="#me650ab5ea3" y="768.96"/>
      </g>
     </g>
     <g id="text_6">
      <!-- June -->
      <g transform="translate(702.439198 783.558437)scale(0.1 -0.1)">
       <use xlink:href="#DejaVuSans-4a"/>
       <use x="29.492188" xlink:href="#DejaVuSans-75"/>
       <use x="92.871094" xlink:href="#DejaVuSans-6e"/>
       <use x="156.25" xlink:href="#DejaVuSans-65"/>
      </g>
     </g>
    </g>
    <g id="xtick_7">
     <g id="line2d_7">
      <g>
       <use style="stroke:#000000;stroke-width:0.8;" x="822.502174" xlink:href="#me650ab5ea3" y="768.96"/>
      </g>
     </g>
     <g id="text_7">
      <!-- July -->
      <g transform="translate(813.509986 783.558437)scale(0.1 -0.1)">
       <use xlink:href="#DejaVuSans-4a"/>
       <use x="29.492188" xlink:href="#DejaVuSans-75"/>
       <use x="92.871094" xlink:href="#DejaVuSans-6c"/>
       <use x="120.654297" xlink:href="#DejaVuSans-79"/>
      </g>
     </g>
    </g>
    <g id="xtick_8">
     <g id="line2d_8">
      <g>
       <use style="stroke:#000000;stroke-width:0.8;" x="935.315217" xlink:href="#me650ab5ea3" y="768.96"/>
      </g>
     </g>
     <g id="text_8">
      <!-- August -->
      <g transform="translate(917.818342 783.558437)scale(0.1 -0.1)">
       <defs>
        <path d="M 2906 1791 
Q 2906 2416 2648 2759 
Q 2391 3103 1925 3103 
Q 1463 3103 1205 2759 
Q 947 2416 947 1791 
Q 947 1169 1205 825 
Q 1463 481 1925 481 
Q 2391 481 2648 825 
Q 2906 1169 2906 1791 
z
M 3481 434 
Q 3481 -459 3084 -895 
Q 2688 -1331 1869 -1331 
Q 1566 -1331 1297 -1286 
Q 1028 -1241 775 -1147 
L 775 -588 
Q 1028 -725 1275 -790 
Q 1522 -856 1778 -856 
Q 2344 -856 2625 -561 
Q 2906 -266 2906 331 
L 2906 616 
Q 2728 306 2450 153 
Q 2172 0 1784 0 
Q 1141 0 747 490 
Q 353 981 353 1791 
Q 353 2603 747 3093 
Q 1141 3584 1784 3584 
Q 2172 3584 2450 3431 
Q 2728 3278 2906 2969 
L 2906 3500 
L 3481 3500 
L 3481 434 
z
" id="DejaVuSans-67" transform="scale(0.015625)"/>
        <path d="M 2834 3397 
L 2834 2853 
Q 2591 2978 2328 3040 
Q 2066 3103 1784 3103 
Q 1356 3103 1142 2972 
Q 928 2841 928 2578 
Q 928 2378 1081 2264 
Q 1234 2150 1697 2047 
L 1894 2003 
Q 2506 1872 2764 1633 
Q 3022 1394 3022 966 
Q 3022 478 2636 193 
Q 2250 -91 1575 -91 
Q 1294 -91 989 -36 
Q 684 19 347 128 
L 347 722 
Q 666 556 975 473 
Q 1284 391 1588 391 
Q 1994 391 2212 530 
Q 2431 669 2431 922 
Q 2431 1156 2273 1281 
Q 2116 1406 1581 1522 
L 1381 1569 
Q 847 1681 609 1914 
Q 372 2147 372 2553 
Q 372 3047 722 3315 
Q 1072 3584 1716 3584 
Q 2034 3584 2315 3537 
Q 2597 3491 2834 3397 
z
" id="DejaVuSans-73" transform="scale(0.015625)"/>
        <path d="M 1172 4494 
L 1172 3500 
L 2356 3500 
L 2356 3053 
L 1172 3053 
L 1172 1153 
Q 1172 725 1289 603 
Q 1406 481 1766 481 
L 2356 481 
L 2356 0 
L 1766 0 
Q 1100 0 847 248 
Q 594 497 594 1153 
L 594 3053 
L 172 3053 
L 172 3500 
L 594 3500 
L 594 4494 
L 1172 4494 
z
" id="DejaVuSans-74" transform="scale(0.015625)"/>
       </defs>
       <use xlink:href="#DejaVuSans-41"/>
       <use x="68.408203" xlink:href="#DejaVuSans-75"/>
       <use x="131.787109" xlink:href="#DejaVuSans-67"/>
       <use x="195.263672" xlink:href="#DejaVuSans-75"/>
       <use x="258.642578" xlink:href="#DejaVuSans-73"/>
       <use x="310.742188" xlink:href="#DejaVuSans-74"/>
      </g>
     </g>
    </g>
    <g id="xtick_9">
     <g id="line2d_9">
      <g>
       <use style="stroke:#000000;stroke-width:0.8;" x="1048.128261" xlink:href="#me650ab5ea3" y="768.96"/>
      </g>
     </g>
     <g id="text_9">
      <!-- September -->
      <g transform="translate(1020.48998 783.558437)scale(0.1 -0.1)">
       <defs>
        <path d="M 3425 4513 
L 3425 3897 
Q 3066 4069 2747 4153 
Q 2428 4238 2131 4238 
Q 1616 4238 1336 4038 
Q 1056 3838 1056 3469 
Q 1056 3159 1242 3001 
Q 1428 2844 1947 2747 
L 2328 2669 
Q 3034 2534 3370 2195 
Q 3706 1856 3706 1288 
Q 3706 609 3251 259 
Q 2797 -91 1919 -91 
Q 1588 -91 1214 -16 
Q 841 59 441 206 
L 441 856 
Q 825 641 1194 531 
Q 1563 422 1919 422 
Q 2459 422 2753 634 
Q 3047 847 3047 1241 
Q 3047 1584 2836 1778 
Q 2625 1972 2144 2069 
L 1759 2144 
Q 1053 2284 737 2584 
Q 422 2884 422 3419 
Q 422 4038 858 4394 
Q 1294 4750 2059 4750 
Q 2388 4750 2728 4690 
Q 3069 4631 3425 4513 
z
" id="DejaVuSans-53" transform="scale(0.015625)"/>
        <path d="M 3328 2828 
Q 3544 3216 3844 3400 
Q 4144 3584 4550 3584 
Q 5097 3584 5394 3201 
Q 5691 2819 5691 2113 
L 5691 0 
L 5113 0 
L 5113 2094 
Q 5113 2597 4934 2840 
Q 4756 3084 4391 3084 
Q 3944 3084 3684 2787 
Q 3425 2491 3425 1978 
L 3425 0 
L 2847 0 
L 2847 2094 
Q 2847 2600 2669 2842 
Q 2491 3084 2119 3084 
Q 1678 3084 1418 2786 
Q 1159 2488 1159 1978 
L 1159 0 
L 581 0 
L 581 3500 
L 1159 3500 
L 1159 2956 
Q 1356 3278 1631 3431 
Q 1906 3584 2284 3584 
Q 2666 3584 2933 3390 
Q 3200 3197 3328 2828 
z
" id="DejaVuSans-6d" transform="scale(0.015625)"/>
       </defs>
       <use xlink:href="#DejaVuSans-53"/>
       <use x="63.476562" xlink:href="#DejaVuSans-65"/>
       <use x="125" xlink:href="#DejaVuSans-70"/>
       <use x="188.476562" xlink:href="#DejaVuSans-74"/>
       <use x="227.685547" xlink:href="#DejaVuSans-65"/>
       <use x="289.208984" xlink:href="#DejaVuSans-6d"/>
       <use x="386.621094" xlink:href="#DejaVuSans-62"/>
       <use x="450.097656" xlink:href="#DejaVuSans-65"/>
       <use x="511.621094" xlink:href="#DejaVuSans-72"/>
      </g>
     </g>
    </g>
    <g id="xtick_10">
     <g id="line2d_10">
      <g>
       <use style="stroke:#000000;stroke-width:0.8;" x="1157.302174" xlink:href="#me650ab5ea3" y="768.96"/>
      </g>
     </g>
     <g id="text_10">
      <!-- October -->
      <g transform="translate(1137.291236 783.558437)scale(0.1 -0.1)">
       <defs>
        <path d="M 2522 4238 
Q 1834 4238 1429 3725 
Q 1025 3213 1025 2328 
Q 1025 1447 1429 934 
Q 1834 422 2522 422 
Q 3209 422 3611 934 
Q 4013 1447 4013 2328 
Q 4013 3213 3611 3725 
Q 3209 4238 2522 4238 
z
M 2522 4750 
Q 3503 4750 4090 4092 
Q 4678 3434 4678 2328 
Q 4678 1225 4090 567 
Q 3503 -91 2522 -91 
Q 1538 -91 948 565 
Q 359 1222 359 2328 
Q 359 3434 948 4092 
Q 1538 4750 2522 4750 
z
" id="DejaVuSans-4f" transform="scale(0.015625)"/>
        <path d="M 1959 3097 
Q 1497 3097 1228 2736 
Q 959 2375 959 1747 
Q 959 1119 1226 758 
Q 1494 397 1959 397 
Q 2419 397 2687 759 
Q 2956 1122 2956 1747 
Q 2956 2369 2687 2733 
Q 2419 3097 1959 3097 
z
M 1959 3584 
Q 2709 3584 3137 3096 
Q 3566 2609 3566 1747 
Q 3566 888 3137 398 
Q 2709 -91 1959 -91 
Q 1206 -91 779 398 
Q 353 888 353 1747 
Q 353 2609 779 3096 
Q 1206 3584 1959 3584 
z
" id="DejaVuSans-6f" transform="scale(0.015625)"/>
       </defs>
       <use xlink:href="#DejaVuSans-4f"/>
       <use x="78.710938" xlink:href="#DejaVuSans-63"/>
       <use x="133.691406" xlink:href="#DejaVuSans-74"/>
       <use x="172.900391" xlink:href="#DejaVuSans-6f"/>
       <use x="234.082031" xlink:href="#DejaVuSans-62"/>
       <use x="297.558594" xlink:href="#DejaVuSans-65"/>
       <use x="359.082031" xlink:href="#DejaVuSans-72"/>
      </g>
     </g>
    </g>
   </g>
   <g id="matplotlib.axis_2">
    <g id="ytick_1">
     <g id="line2d_11">
      <defs>
       <path d="M 0 0 
L -3.5 0 
" id="m43f2ecdec6" style="stroke:#000000;stroke-width:0.8;"/>
      </defs>
      <g>
       <use style="stroke:#000000;stroke-width:0.8;" x="162" xlink:href="#m43f2ecdec6" y="768.96"/>
      </g>
     </g>
     <g id="text_11">
      <!-- 0 -->
      <g transform="translate(148.6375 772.759219)scale(0.1 -0.1)">
       <defs>
        <path d="M 2034 4250 
Q 1547 4250 1301 3770 
Q 1056 3291 1056 2328 
Q 1056 1369 1301 889 
Q 1547 409 2034 409 
Q 2525 409 2770 889 
Q 3016 1369 3016 2328 
Q 3016 3291 2770 3770 
Q 2525 4250 2034 4250 
z
M 2034 4750 
Q 2819 4750 3233 4129 
Q 3647 3509 3647 2328 
Q 3647 1150 3233 529 
Q 2819 -91 2034 -91 
Q 1250 -91 836 529 
Q 422 1150 422 2328 
Q 422 3509 836 4129 
Q 1250 4750 2034 4750 
z
" id="DejaVuSans-30" transform="scale(0.015625)"/>
       </defs>
       <use xlink:href="#DejaVuSans-30"/>
      </g>
     </g>
    </g>
    <g id="ytick_2">
     <g id="line2d_12">
      <g>
       <use style="stroke:#000000;stroke-width:0.8;" x="162" xlink:href="#m43f2ecdec6" y="652.419788"/>
      </g>
     </g>
     <g id="text_12">
      <!-- 20000 -->
      <g transform="translate(123.1875 656.219006)scale(0.1 -0.1)">
       <defs>
        <path d="M 1228 531 
L 3431 531 
L 3431 0 
L 469 0 
L 469 531 
Q 828 903 1448 1529 
Q 2069 2156 2228 2338 
Q 2531 2678 2651 2914 
Q 2772 3150 2772 3378 
Q 2772 3750 2511 3984 
Q 2250 4219 1831 4219 
Q 1534 4219 1204 4116 
Q 875 4013 500 3803 
L 500 4441 
Q 881 4594 1212 4672 
Q 1544 4750 1819 4750 
Q 2544 4750 2975 4387 
Q 3406 4025 3406 3419 
Q 3406 3131 3298 2873 
Q 3191 2616 2906 2266 
Q 2828 2175 2409 1742 
Q 1991 1309 1228 531 
z
" id="DejaVuSans-32" transform="scale(0.015625)"/>
       </defs>
       <use xlink:href="#DejaVuSans-32"/>
       <use x="63.623047" xlink:href="#DejaVuSans-30"/>
       <use x="127.246094" xlink:href="#DejaVuSans-30"/>
       <use x="190.869141" xlink:href="#DejaVuSans-30"/>
       <use x="254.492188" xlink:href="#DejaVuSans-30"/>
      </g>
     </g>
    </g>
    <g id="ytick_3">
     <g id="line2d_13">
      <g>
       <use style="stroke:#000000;stroke-width:0.8;" x="162" xlink:href="#m43f2ecdec6" y="535.879575"/>
      </g>
     </g>
     <g id="text_13">
      <!-- 40000 -->
      <g transform="translate(123.1875 539.678794)scale(0.1 -0.1)">
       <defs>
        <path d="M 2419 4116 
L 825 1625 
L 2419 1625 
L 2419 4116 
z
M 2253 4666 
L 3047 4666 
L 3047 1625 
L 3713 1625 
L 3713 1100 
L 3047 1100 
L 3047 0 
L 2419 0 
L 2419 1100 
L 313 1100 
L 313 1709 
L 2253 4666 
z
" id="DejaVuSans-34" transform="scale(0.015625)"/>
       </defs>
       <use xlink:href="#DejaVuSans-34"/>
       <use x="63.623047" xlink:href="#DejaVuSans-30"/>
       <use x="127.246094" xlink:href="#DejaVuSans-30"/>
       <use x="190.869141" xlink:href="#DejaVuSans-30"/>
       <use x="254.492188" xlink:href="#DejaVuSans-30"/>
      </g>
     </g>
    </g>
    <g id="ytick_4">
     <g id="line2d_14">
      <g>
       <use style="stroke:#000000;stroke-width:0.8;" x="162" xlink:href="#m43f2ecdec6" y="419.339363"/>
      </g>
     </g>
     <g id="text_14">
      <!-- 60000 -->
      <g transform="translate(123.1875 423.138581)scale(0.1 -0.1)">
       <defs>
        <path d="M 2113 2584 
Q 1688 2584 1439 2293 
Q 1191 2003 1191 1497 
Q 1191 994 1439 701 
Q 1688 409 2113 409 
Q 2538 409 2786 701 
Q 3034 994 3034 1497 
Q 3034 2003 2786 2293 
Q 2538 2584 2113 2584 
z
M 3366 4563 
L 3366 3988 
Q 3128 4100 2886 4159 
Q 2644 4219 2406 4219 
Q 1781 4219 1451 3797 
Q 1122 3375 1075 2522 
Q 1259 2794 1537 2939 
Q 1816 3084 2150 3084 
Q 2853 3084 3261 2657 
Q 3669 2231 3669 1497 
Q 3669 778 3244 343 
Q 2819 -91 2113 -91 
Q 1303 -91 875 529 
Q 447 1150 447 2328 
Q 447 3434 972 4092 
Q 1497 4750 2381 4750 
Q 2619 4750 2861 4703 
Q 3103 4656 3366 4563 
z
" id="DejaVuSans-36" transform="scale(0.015625)"/>
       </defs>
       <use xlink:href="#DejaVuSans-36"/>
       <use x="63.623047" xlink:href="#DejaVuSans-30"/>
       <use x="127.246094" xlink:href="#DejaVuSans-30"/>
       <use x="190.869141" xlink:href="#DejaVuSans-30"/>
       <use x="254.492188" xlink:href="#DejaVuSans-30"/>
      </g>
     </g>
    </g>
    <g id="ytick_5">
     <g id="line2d_15">
      <g>
       <use style="stroke:#000000;stroke-width:0.8;" x="162" xlink:href="#m43f2ecdec6" y="302.79915"/>
      </g>
     </g>
     <g id="text_15">
      <!-- 80000 -->
      <g transform="translate(123.1875 306.598369)scale(0.1 -0.1)">
       <defs>
        <path d="M 2034 2216 
Q 1584 2216 1326 1975 
Q 1069 1734 1069 1313 
Q 1069 891 1326 650 
Q 1584 409 2034 409 
Q 2484 409 2743 651 
Q 3003 894 3003 1313 
Q 3003 1734 2745 1975 
Q 2488 2216 2034 2216 
z
M 1403 2484 
Q 997 2584 770 2862 
Q 544 3141 544 3541 
Q 544 4100 942 4425 
Q 1341 4750 2034 4750 
Q 2731 4750 3128 4425 
Q 3525 4100 3525 3541 
Q 3525 3141 3298 2862 
Q 3072 2584 2669 2484 
Q 3125 2378 3379 2068 
Q 3634 1759 3634 1313 
Q 3634 634 3220 271 
Q 2806 -91 2034 -91 
Q 1263 -91 848 271 
Q 434 634 434 1313 
Q 434 1759 690 2068 
Q 947 2378 1403 2484 
z
M 1172 3481 
Q 1172 3119 1398 2916 
Q 1625 2713 2034 2713 
Q 2441 2713 2670 2916 
Q 2900 3119 2900 3481 
Q 2900 3844 2670 4047 
Q 2441 4250 2034 4250 
Q 1625 4250 1398 4047 
Q 1172 3844 1172 3481 
z
" id="DejaVuSans-38" transform="scale(0.015625)"/>
       </defs>
       <use xlink:href="#DejaVuSans-38"/>
       <use x="63.623047" xlink:href="#DejaVuSans-30"/>
       <use x="127.246094" xlink:href="#DejaVuSans-30"/>
       <use x="190.869141" xlink:href="#DejaVuSans-30"/>
       <use x="254.492188" xlink:href="#DejaVuSans-30"/>
      </g>
     </g>
    </g>
    <g id="ytick_6">
     <g id="line2d_16">
      <g>
       <use style="stroke:#000000;stroke-width:0.8;" x="162" xlink:href="#m43f2ecdec6" y="186.258938"/>
      </g>
     </g>
     <g id="text_16">
      <!-- 100000 -->
      <g transform="translate(116.825 190.058157)scale(0.1 -0.1)">
       <defs>
        <path d="M 794 531 
L 1825 531 
L 1825 4091 
L 703 3866 
L 703 4441 
L 1819 4666 
L 2450 4666 
L 2450 531 
L 3481 531 
L 3481 0 
L 794 0 
L 794 531 
z
" id="DejaVuSans-31" transform="scale(0.015625)"/>
       </defs>
       <use xlink:href="#DejaVuSans-31"/>
       <use x="63.623047" xlink:href="#DejaVuSans-30"/>
       <use x="127.246094" xlink:href="#DejaVuSans-30"/>
       <use x="190.869141" xlink:href="#DejaVuSans-30"/>
       <use x="254.492188" xlink:href="#DejaVuSans-30"/>
       <use x="318.115234" xlink:href="#DejaVuSans-30"/>
      </g>
     </g>
    </g>
    <g id="text_17">
     <!-- Persons fully vaccinated -->
     <g transform="translate(110.745312 496.922344)rotate(-90)scale(0.1 -0.1)">
      <defs>
       <path d="M 1259 4147 
L 1259 2394 
L 2053 2394 
Q 2494 2394 2734 2622 
Q 2975 2850 2975 3272 
Q 2975 3691 2734 3919 
Q 2494 4147 2053 4147 
L 1259 4147 
z
M 628 4666 
L 2053 4666 
Q 2838 4666 3239 4311 
Q 3641 3956 3641 3272 
Q 3641 2581 3239 2228 
Q 2838 1875 2053 1875 
L 1259 1875 
L 1259 0 
L 628 0 
L 628 4666 
z
" id="DejaVuSans-50" transform="scale(0.015625)"/>
       <path id="DejaVuSans-20" transform="scale(0.015625)"/>
       <path d="M 2375 4863 
L 2375 4384 
L 1825 4384 
Q 1516 4384 1395 4259 
Q 1275 4134 1275 3809 
L 1275 3500 
L 2222 3500 
L 2222 3053 
L 1275 3053 
L 1275 0 
L 697 0 
L 697 3053 
L 147 3053 
L 147 3500 
L 697 3500 
L 697 3744 
Q 697 4328 969 4595 
Q 1241 4863 1831 4863 
L 2375 4863 
z
" id="DejaVuSans-66" transform="scale(0.015625)"/>
       <path d="M 191 3500 
L 800 3500 
L 1894 563 
L 2988 3500 
L 3597 3500 
L 2284 0 
L 1503 0 
L 191 3500 
z
" id="DejaVuSans-76" transform="scale(0.015625)"/>
       <path d="M 2906 2969 
L 2906 4863 
L 3481 4863 
L 3481 0 
L 2906 0 
L 2906 525 
Q 2725 213 2448 61 
Q 2172 -91 1784 -91 
Q 1150 -91 751 415 
Q 353 922 353 1747 
Q 353 2572 751 3078 
Q 1150 3584 1784 3584 
Q 2172 3584 2448 3432 
Q 2725 3281 2906 2969 
z
M 947 1747 
Q 947 1113 1208 752 
Q 1469 391 1925 391 
Q 2381 391 2643 752 
Q 2906 1113 2906 1747 
Q 2906 2381 2643 2742 
Q 2381 3103 1925 3103 
Q 1469 3103 1208 2742 
Q 947 2381 947 1747 
z
" id="DejaVuSans-64" transform="scale(0.015625)"/>
      </defs>
      <use xlink:href="#DejaVuSans-50"/>
      <use x="56.677734" xlink:href="#DejaVuSans-65"/>
      <use x="118.201172" xlink:href="#DejaVuSans-72"/>
      <use x="159.314453" xlink:href="#DejaVuSans-73"/>
      <use x="211.414062" xlink:href="#DejaVuSans-6f"/>
      <use x="272.595703" xlink:href="#DejaVuSans-6e"/>
      <use x="335.974609" xlink:href="#DejaVuSans-73"/>
      <use x="388.074219" xlink:href="#DejaVuSans-20"/>
      <use x="419.861328" xlink:href="#DejaVuSans-66"/>
      <use x="455.066406" xlink:href="#DejaVuSans-75"/>
      <use x="518.445312" xlink:href="#DejaVuSans-6c"/>
      <use x="546.228516" xlink:href="#DejaVuSans-6c"/>
      <use x="574.011719" xlink:href="#DejaVuSans-79"/>
      <use x="633.191406" xlink:href="#DejaVuSans-20"/>
      <use x="664.978516" xlink:href="#DejaVuSans-76"/>
      <use x="724.158203" xlink:href="#DejaVuSans-61"/>
      <use x="785.4375" xlink:href="#DejaVuSans-63"/>
      <use x="840.417969" xlink:href="#DejaVuSans-63"/>
      <use x="895.398438" xlink:href="#DejaVuSans-69"/>
      <use x="923.181641" xlink:href="#DejaVuSans-6e"/>
      <use x="986.560547" xlink:href="#DejaVuSans-61"/>
      <use x="1047.839844" xlink:href="#DejaVuSans-74"/>
      <use x="1087.048828" xlink:href="#DejaVuSans-65"/>
      <use x="1148.572266" xlink:href="#DejaVuSans-64"/>
     </g>
    </g>
   </g>
   <g id="line2d_17">
    <path clip-path="url(#pab6c469c3d)" d="M 225.684783 743.728212 
L 229.323913 743.488472 
L 232.963043 744.730457 
L 236.602174 741.204284 
L 240.241304 740.300264 
L 243.880435 738.172573 
L 247.519565 733.729894 
L 251.158696 725.687787 
L 254.797826 717.085454 
L 258.436957 710.694888 
L 262.076087 703.970518 
L 265.715217 699.400477 
L 269.354348 698.359939 
L 272.993478 698.424036 
L 276.632609 695.915925 
L 280.271739 701.053683 
L 283.91087 700.863057 
L 287.55 701.424114 
L 291.18913 698.19928 
L 294.828261 698.573874 
L 298.467391 694.42421 
L 302.106522 695.158413 
L 305.745652 689.317251 
L 309.384783 679.474598 
L 313.023913 670.349499 
L 316.663043 667.357746 
L 320.302174 663.761648 
L 323.941304 667.861366 
L 327.580435 668.773709 
L 331.219565 663.976414 
L 334.858696 660.13475 
L 338.497826 654.274442 
L 342.136957 663.000806 
L 345.776087 650.33788 
L 349.415217 641.947817 
L 353.054348 632.094342 
L 356.693478 609.775227 
L 360.332609 593.119133 
L 363.971739 580.638509 
L 367.61087 550.568636 
L 371.25 553.695244 
L 374.88913 544.305432 
L 378.528261 534.204726 
L 382.167391 540.01592 
L 385.806522 528.687379 
L 389.445652 514.466144 
L 393.084783 508.888862 
L 396.723913 512.842905 
L 400.363043 503.027722 
L 404.002174 491.639246 
L 407.641304 481.011611 
L 411.280435 484.470358 
L 414.919565 477.806755 
L 418.558696 479.014611 
L 422.197826 452.899614 
L 425.836957 453.223429 
L 429.476087 459.202775 
L 433.115217 473.932625 
L 436.754348 487.213215 
L 440.393478 506.62382 
L 444.032609 520.271511 
L 447.671739 545.35263 
L 454.95 569.687058 
L 458.58913 576.264921 
L 462.228261 580.514476 
L 465.867391 577.522723 
L 469.506522 564.178036 
L 476.784783 560.931559 
L 480.423913 545.036306 
L 484.063043 536.399011 
L 487.702174 521.545961 
L 491.341304 514.56437 
L 494.980435 513.4922 
L 498.619565 517.766729 
L 502.258696 504.216432 
L 505.897826 489.39002 
L 509.536957 462.440928 
L 513.176087 436.330926 
L 516.815217 396.175331 
L 520.454348 374.150063 
L 524.093478 355.765844 
L 527.732609 342.553514 
L 531.371739 337.56476 
L 535.01087 347.108571 
L 538.65 350.034563 
L 542.28913 368.839159 
L 545.928261 379.686555 
L 549.567391 379.767301 
L 553.206522 388.308866 
L 556.845652 382.783195 
L 560.484783 376.496683 
L 564.123913 386.803 
L 567.763043 400.663794 
L 571.402174 412.619155 
L 575.041304 425.995474 
L 578.680435 431.611047 
L 582.319565 447.49631 
L 585.958696 453.449018 
L 589.597826 463.960945 
L 593.236957 476.921882 
L 596.876087 494.98395 
L 600.515217 504.291351 
L 604.154348 518.021452 
L 607.793478 511.522671 
L 611.432609 508.291177 
L 615.071739 517.514502 
L 618.71087 498.764847 
L 622.35 476.113592 
L 625.98913 444.25899 
L 629.628261 433.20848 
L 633.267391 447.127544 
L 636.906522 464.043356 
L 640.545652 465.052261 
L 644.184783 468.500186 
L 647.823913 478.116419 
L 651.463043 503.014403 
L 655.102174 512.842905 
L 658.741304 513.683659 
L 662.380435 514.974758 
L 666.019565 501.423629 
L 669.658696 525.932868 
L 673.297826 530.838378 
L 676.936957 531.182172 
L 680.576087 532.933605 
L 684.215217 549.815287 
L 687.854348 561.906334 
L 691.493478 589.096831 
L 695.132609 598.683928 
L 698.771739 609.389811 
L 702.41087 612.486451 
L 706.05 626.927449 
L 709.68913 637.579224 
L 713.328261 647.462666 
L 716.967391 648.494047 
L 720.606522 644.191216 
L 727.884783 625.818652 
L 731.523913 606.361431 
L 735.163043 593.341392 
L 738.802174 576.494672 
L 742.441304 580.212304 
L 746.080435 588.643989 
L 749.719565 602.451507 
L 753.358696 608.343447 
L 756.997826 594.426881 
L 760.636957 593.020906 
L 764.276087 605.821184 
L 767.915217 601.892114 
L 771.554348 610.762489 
L 775.193478 603.702649 
L 778.832609 608.391728 
L 782.471739 638.459103 
L 786.11087 655.657108 
L 789.75 660.615894 
L 793.38913 668.687136 
L 800.667391 610.88985 
L 804.306522 615.175201 
L 807.945652 614.861374 
L 811.584783 614.369408 
L 815.223913 617.157217 
L 818.863043 624.570839 
L 822.502174 655.258374 
L 826.141304 695.428953 
L 829.780435 695.64705 
L 833.419565 705.832664 
L 837.058696 712.515413 
L 840.697826 713.520156 
L 844.336957 713.197173 
L 847.976087 714.320954 
L 851.615217 714.141981 
L 855.254348 712.274008 
L 858.893478 701.722957 
L 862.532609 699.144088 
L 869.81087 705.290752 
L 873.45 706.869872 
L 877.08913 708.27002 
L 880.728261 709.238968 
L 884.367391 712.974082 
L 888.006522 712.246538 
L 891.645652 711.735426 
L 898.923913 715.686139 
L 902.563043 718.802757 
L 906.202174 721.348329 
L 909.841304 724.670557 
L 913.480435 725.197485 
L 917.119565 718.582996 
L 920.758696 717.082957 
L 924.397826 705.982502 
L 928.036957 703.732443 
L 935.315217 698.835257 
L 938.954348 699.312239 
L 942.593478 706.965602 
L 946.232609 706.665094 
L 949.871739 715.565437 
L 953.51087 707.501687 
L 957.15 706.738348 
L 960.78913 706.948953 
L 964.428261 709.839983 
L 968.067391 696.053276 
L 971.706522 685.145112 
L 978.984783 668.329191 
L 982.623913 658.236809 
L 986.263043 657.025623 
L 989.902174 652.295755 
L 993.541304 664.185354 
L 997.180435 673.969738 
L 1000.819565 682.166677 
L 1004.458696 695.513861 
L 1008.097826 704.876202 
L 1011.736957 704.727197 
L 1015.376087 704.789629 
L 1019.015217 704.678916 
L 1022.654348 703.508519 
L 1026.293478 700.55589 
L 1029.932609 692.279038 
L 1033.571739 669.517069 
L 1037.21087 663.794945 
L 1040.85 663.884015 
L 1044.48913 664.214489 
L 1048.128261 665.921804 
L 1051.767391 669.001795 
L 1055.406522 678.20098 
L 1059.045652 701.397477 
L 1062.684783 710.763148 
L 1066.323913 716.352083 
L 1069.963043 715.925047 
L 1073.602174 715.962506 
L 1080.880435 717.189508 
L 1084.519565 717.180351 
L 1088.158696 714.698877 
L 1091.797826 710.888012 
L 1095.436957 712.840061 
L 1099.076087 713.43941 
L 1102.715217 713.310384 
L 1106.354348 712.61031 
L 1109.993478 712.234884 
L 1113.632609 713.032352 
L 1117.271739 711.976831 
L 1120.91087 713.237962 
L 1124.55 711.255946 
L 1128.18913 710.053917 
L 1131.828261 710.745667 
L 1135.467391 711.820334 
L 1139.106522 711.019536 
L 1142.745652 713.150557 
L 1146.384783 714.697212 
L 1150.023913 721.306707 
L 1153.663043 721.662155 
L 1157.302174 717.22447 
L 1160.941304 718.132651 
L 1160.941304 718.132651 
" style="fill:none;stroke:#ffa500;stroke-linecap:square;stroke-width:1.5;"/>
   </g>
   <g id="patch_279">
    <path d="M 162 768.96 
L 162 103.68 
" style="fill:none;stroke:#000000;stroke-linecap:square;stroke-linejoin:miter;stroke-width:0.8;"/>
   </g>
   <g id="patch_280">
    <path d="M 1166.4 768.96 
L 1166.4 103.68 
" style="fill:none;stroke:#000000;stroke-linecap:square;stroke-linejoin:miter;stroke-width:0.8;"/>
   </g>
   <g id="patch_281">
    <path d="M 162 768.96 
L 1166.4 768.96 
" style="fill:none;stroke:#000000;stroke-linecap:square;stroke-linejoin:miter;stroke-width:0.8;"/>
   </g>
   <g id="patch_282">
    <path d="M 162 103.68 
L 1166.4 103.68 
" style="fill:none;stroke:#000000;stroke-linecap:square;stroke-linejoin:miter;stroke-width:0.8;"/>
   </g>
   <g id="text_18">
    <!-- Persons Fully Vaccinated -->
    <g transform="translate(590.380313 97.68)scale(0.12 -0.12)">
     <defs>
      <path d="M 1831 0 
L 50 4666 
L 709 4666 
L 2188 738 
L 3669 4666 
L 4325 4666 
L 2547 0 
L 1831 0 
z
" id="DejaVuSans-56" transform="scale(0.015625)"/>
     </defs>
     <use xlink:href="#DejaVuSans-50"/>
     <use x="56.677734" xlink:href="#DejaVuSans-65"/>
     <use x="118.201172" xlink:href="#DejaVuSans-72"/>
     <use x="159.314453" xlink:href="#DejaVuSans-73"/>
     <use x="211.414062" xlink:href="#DejaVuSans-6f"/>
     <use x="272.595703" xlink:href="#DejaVuSans-6e"/>
     <use x="335.974609" xlink:href="#DejaVuSans-73"/>
     <use x="388.074219" xlink:href="#DejaVuSans-20"/>
     <use x="419.861328" xlink:href="#DejaVuSans-46"/>
     <use x="471.880859" xlink:href="#DejaVuSans-75"/>
     <use x="535.259766" xlink:href="#DejaVuSans-6c"/>
     <use x="563.042969" xlink:href="#DejaVuSans-6c"/>
     <use x="590.826172" xlink:href="#DejaVuSans-79"/>
     <use x="650.005859" xlink:href="#DejaVuSans-20"/>
     <use x="681.792969" xlink:href="#DejaVuSans-56"/>
     <use x="742.451172" xlink:href="#DejaVuSans-61"/>
     <use x="803.730469" xlink:href="#DejaVuSans-63"/>
     <use x="858.710938" xlink:href="#DejaVuSans-63"/>
     <use x="913.691406" xlink:href="#DejaVuSans-69"/>
     <use x="941.474609" xlink:href="#DejaVuSans-6e"/>
     <use x="1004.853516" xlink:href="#DejaVuSans-61"/>
     <use x="1066.132812" xlink:href="#DejaVuSans-74"/>
     <use x="1105.341797" xlink:href="#DejaVuSans-65"/>
     <use x="1166.865234" xlink:href="#DejaVuSans-64"/>
    </g>
   </g>
  </g>
 </g>
 <defs>
  <clipPath id="pab6c469c3d">
   <rect height="665.28" width="1004.4" x="162" y="103.68"/>
  </clipPath>
 </defs>
</svg>
