<?xml version="1.0" encoding="utf-8" standalone="no"?>
<!DOCTYPE svg PUBLIC "-//W3C//DTD SVG 1.1//EN"
  "http://www.w3.org/Graphics/SVG/1.1/DTD/svg11.dtd">
<svg height="864pt" version="1.1" viewBox="0 0 1296 864" width="1296pt" xmlns="http://www.w3.org/2000/svg" xmlns:xlink="http://www.w3.org/1999/xlink">
 <metadata>
  <rdf:RDF xmlns:cc="http://creativecommons.org/ns#" xmlns:dc="http://purl.org/dc/elements/1.1/" xmlns:rdf="http://www.w3.org/1999/02/22-rdf-syntax-ns#">
   <cc:Work>
    <dc:type rdf:resource="http://purl.org/dc/dcmitype/StillImage"/>
    <dc:date>2021-08-05T02:29:49.660314</dc:date>
    <dc:format>image/svg+xml</dc:format>
    <dc:creator>
     <cc:Agent>
      <dc:title>Matplotlib v3.4.2, https://matplotlib.org/</dc:title>
     </cc:Agent>
    </dc:creator>
   </cc:Work>
  </rdf:RDF>
 </metadata>
 <defs>
  <style type="text/css">*{stroke-linecap:butt;stroke-linejoin:round;}</style>
 </defs>
 <g id="figure_1">
  <g id="patch_1">
   <path d="M 0 864 
L 1296 864 
L 1296 0 
L 0 0 
z
" style="fill:#ffffff;"/>
  </g>
  <g id="axes_1">
   <g id="patch_2">
    <path d="M 162 768.96 
L 1166.4 768.96 
L 1166.4 103.68 
L 162 103.68 
z
" style="fill:#ffffff;"/>
   </g>
   <g id="patch_3">
    <path clip-path="url(#pfcd3021f95)" d="M 163.184434 768.96 
L 165.553302 768.96 
L 165.553302 768.947481 
L 163.184434 768.947481 
z
" style="fill:#1f77b4;"/>
   </g>
   <g id="patch_4">
    <path clip-path="url(#pfcd3021f95)" d="M 167.92217 768.96 
L 170.291038 768.96 
L 170.291038 768.921495 
L 167.92217 768.921495 
z
" style="fill:#1f77b4;"/>
   </g>
   <g id="patch_5">
    <path clip-path="url(#pfcd3021f95)" d="M 172.659906 768.96 
L 175.028774 768.96 
L 175.028774 768.699686 
L 172.659906 768.699686 
z
" style="fill:#1f77b4;"/>
   </g>
   <g id="patch_6">
    <path clip-path="url(#pfcd3021f95)" d="M 177.397642 768.96 
L 179.766509 768.96 
L 179.766509 767.065946 
L 177.397642 767.065946 
z
" style="fill:#1f77b4;"/>
   </g>
   <g id="patch_7">
    <path clip-path="url(#pfcd3021f95)" d="M 182.135377 768.96 
L 184.504245 768.96 
L 184.504245 765.109933 
L 182.135377 765.109933 
z
" style="fill:#1f77b4;"/>
   </g>
   <g id="patch_8">
    <path clip-path="url(#pfcd3021f95)" d="M 186.873113 768.96 
L 189.241981 768.96 
L 189.241981 764.028727 
L 186.873113 764.028727 
z
" style="fill:#1f77b4;"/>
   </g>
   <g id="patch_9">
    <path clip-path="url(#pfcd3021f95)" d="M 191.610849 768.96 
L 193.979717 768.96 
L 193.979717 763.369943 
L 191.610849 763.369943 
z
" style="fill:#1f77b4;"/>
   </g>
   <g id="patch_10">
    <path clip-path="url(#pfcd3021f95)" d="M 196.348585 768.96 
L 198.717453 768.96 
L 198.717453 762.347805 
L 196.348585 762.347805 
z
" style="fill:#1f77b4;"/>
   </g>
   <g id="patch_11">
    <path clip-path="url(#pfcd3021f95)" d="M 201.086321 768.96 
L 203.455189 768.96 
L 203.455189 761.384147 
L 201.086321 761.384147 
z
" style="fill:#1f77b4;"/>
   </g>
   <g id="patch_12">
    <path clip-path="url(#pfcd3021f95)" d="M 205.824057 768.96 
L 208.192925 768.96 
L 208.192925 760.598325 
L 205.824057 760.598325 
z
" style="fill:#1f77b4;"/>
   </g>
   <g id="patch_13">
    <path clip-path="url(#pfcd3021f95)" d="M 210.561792 768.96 
L 212.93066 768.96 
L 212.93066 759.644474 
L 210.561792 759.644474 
z
" style="fill:#1f77b4;"/>
   </g>
   <g id="patch_14">
    <path clip-path="url(#pfcd3021f95)" d="M 215.299528 768.96 
L 217.668396 768.96 
L 217.668396 759.457283 
L 215.299528 759.457283 
z
" style="fill:#1f77b4;"/>
   </g>
   <g id="patch_15">
    <path clip-path="url(#pfcd3021f95)" d="M 220.037264 768.96 
L 222.406132 768.96 
L 222.406132 759.341136 
L 220.037264 759.341136 
z
" style="fill:#1f77b4;"/>
   </g>
   <g id="patch_16">
    <path clip-path="url(#pfcd3021f95)" d="M 224.775 768.96 
L 227.143868 768.96 
L 227.143868 759.287311 
L 224.775 759.287311 
z
" style="fill:#1f77b4;"/>
   </g>
   <g id="patch_17">
    <path clip-path="url(#pfcd3021f95)" d="M 229.512736 768.96 
L 231.881604 768.96 
L 231.881604 759.022206 
L 229.512736 759.022206 
z
" style="fill:#1f77b4;"/>
   </g>
   <g id="patch_18">
    <path clip-path="url(#pfcd3021f95)" d="M 234.250472 768.96 
L 236.61934 768.96 
L 236.61934 758.593547 
L 234.250472 758.593547 
z
" style="fill:#1f77b4;"/>
   </g>
   <g id="patch_19">
    <path clip-path="url(#pfcd3021f95)" d="M 238.988208 768.96 
L 241.357075 768.96 
L 241.357075 757.727914 
L 238.988208 757.727914 
z
" style="fill:#1f77b4;"/>
   </g>
   <g id="patch_20">
    <path clip-path="url(#pfcd3021f95)" d="M 243.725943 768.96 
L 246.094811 768.96 
L 246.094811 756.872132 
L 243.725943 756.872132 
z
" style="fill:#1f77b4;"/>
   </g>
   <g id="patch_21">
    <path clip-path="url(#pfcd3021f95)" d="M 248.463679 768.96 
L 250.832547 768.96 
L 250.832547 756.275761 
L 248.463679 756.275761 
z
" style="fill:#1f77b4;"/>
   </g>
   <g id="patch_22">
    <path clip-path="url(#pfcd3021f95)" d="M 253.201415 768.96 
L 255.570283 768.96 
L 255.570283 756.068233 
L 253.201415 756.068233 
z
" style="fill:#1f77b4;"/>
   </g>
   <g id="patch_23">
    <path clip-path="url(#pfcd3021f95)" d="M 257.939151 768.96 
L 260.308019 768.96 
L 260.308019 755.773979 
L 257.939151 755.773979 
z
" style="fill:#1f77b4;"/>
   </g>
   <g id="patch_24">
    <path clip-path="url(#pfcd3021f95)" d="M 262.676887 768.96 
L 265.045755 768.96 
L 265.045755 754.973876 
L 262.676887 754.973876 
z
" style="fill:#1f77b4;"/>
   </g>
   <g id="patch_25">
    <path clip-path="url(#pfcd3021f95)" d="M 267.414623 768.96 
L 269.783491 768.96 
L 269.783491 753.60533 
L 267.414623 753.60533 
z
" style="fill:#1f77b4;"/>
   </g>
   <g id="patch_26">
    <path clip-path="url(#pfcd3021f95)" d="M 272.152358 768.96 
L 274.521226 768.96 
L 274.521226 751.70025 
L 272.152358 751.70025 
z
" style="fill:#1f77b4;"/>
   </g>
   <g id="patch_27">
    <path clip-path="url(#pfcd3021f95)" d="M 276.890094 768.96 
L 279.258962 768.96 
L 279.258962 750.101082 
L 276.890094 750.101082 
z
" style="fill:#1f77b4;"/>
   </g>
   <g id="patch_28">
    <path clip-path="url(#pfcd3021f95)" d="M 281.62783 768.96 
L 283.996698 768.96 
L 283.996698 748.669221 
L 281.62783 748.669221 
z
" style="fill:#1f77b4;"/>
   </g>
   <g id="patch_29">
    <path clip-path="url(#pfcd3021f95)" d="M 286.365566 768.96 
L 288.734434 768.96 
L 288.734434 747.901974 
L 286.365566 747.901974 
z
" style="fill:#1f77b4;"/>
   </g>
   <g id="patch_30">
    <path clip-path="url(#pfcd3021f95)" d="M 291.103302 768.96 
L 293.47217 768.96 
L 293.47217 747.469609 
L 291.103302 747.469609 
z
" style="fill:#1f77b4;"/>
   </g>
   <g id="patch_31">
    <path clip-path="url(#pfcd3021f95)" d="M 295.841038 768.96 
L 298.209906 768.96 
L 298.209906 746.689165 
L 295.841038 746.689165 
z
" style="fill:#1f77b4;"/>
   </g>
   <g id="patch_32">
    <path clip-path="url(#pfcd3021f95)" d="M 300.578774 768.96 
L 302.947642 768.96 
L 302.947642 744.972314 
L 300.578774 744.972314 
z
" style="fill:#1f77b4;"/>
   </g>
   <g id="patch_33">
    <path clip-path="url(#pfcd3021f95)" d="M 305.316509 768.96 
L 307.685377 768.96 
L 307.685377 743.707126 
L 305.316509 743.707126 
z
" style="fill:#1f77b4;"/>
   </g>
   <g id="patch_34">
    <path clip-path="url(#pfcd3021f95)" d="M 310.054245 768.96 
L 312.423113 768.96 
L 312.423113 741.994433 
L 310.054245 741.994433 
z
" style="fill:#1f77b4;"/>
   </g>
   <g id="patch_35">
    <path clip-path="url(#pfcd3021f95)" d="M 314.791981 768.96 
L 317.160849 768.96 
L 317.160849 740.66254 
L 314.791981 740.66254 
z
" style="fill:#1f77b4;"/>
   </g>
   <g id="patch_36">
    <path clip-path="url(#pfcd3021f95)" d="M 319.529717 768.96 
L 321.898585 768.96 
L 321.898585 739.466678 
L 319.529717 739.466678 
z
" style="fill:#1f77b4;"/>
   </g>
   <g id="patch_37">
    <path clip-path="url(#pfcd3021f95)" d="M 324.267453 768.96 
L 326.636321 768.96 
L 326.636321 739.060616 
L 324.267453 739.060616 
z
" style="fill:#1f77b4;"/>
   </g>
   <g id="patch_38">
    <path clip-path="url(#pfcd3021f95)" d="M 329.005189 768.96 
L 331.374057 768.96 
L 331.374057 737.684252 
L 329.005189 737.684252 
z
" style="fill:#1f77b4;"/>
   </g>
   <g id="patch_39">
    <path clip-path="url(#pfcd3021f95)" d="M 333.742925 768.96 
L 336.111792 768.96 
L 336.111792 735.955561 
L 333.742925 735.955561 
z
" style="fill:#1f77b4;"/>
   </g>
   <g id="patch_40">
    <path clip-path="url(#pfcd3021f95)" d="M 338.48066 768.96 
L 340.849528 768.96 
L 340.849528 733.871695 
L 338.48066 733.871695 
z
" style="fill:#1f77b4;"/>
   </g>
   <g id="patch_41">
    <path clip-path="url(#pfcd3021f95)" d="M 343.218396 768.96 
L 345.587264 768.96 
L 345.587264 730.896752 
L 343.218396 730.896752 
z
" style="fill:#1f77b4;"/>
   </g>
   <g id="patch_42">
    <path clip-path="url(#pfcd3021f95)" d="M 347.956132 768.96 
L 350.325 768.96 
L 350.325 728.203047 
L 347.956132 728.203047 
z
" style="fill:#1f77b4;"/>
   </g>
   <g id="patch_43">
    <path clip-path="url(#pfcd3021f95)" d="M 352.693868 768.96 
L 355.062736 768.96 
L 355.062736 726.531028 
L 352.693868 726.531028 
z
" style="fill:#1f77b4;"/>
   </g>
   <g id="patch_44">
    <path clip-path="url(#pfcd3021f95)" d="M 357.431604 768.96 
L 359.800472 768.96 
L 359.800472 725.634076 
L 357.431604 725.634076 
z
" style="fill:#1f77b4;"/>
   </g>
   <g id="patch_45">
    <path clip-path="url(#pfcd3021f95)" d="M 362.16934 768.96 
L 364.538208 768.96 
L 364.538208 724.744806 
L 362.16934 724.744806 
z
" style="fill:#1f77b4;"/>
   </g>
   <g id="patch_46">
    <path clip-path="url(#pfcd3021f95)" d="M 366.907075 768.96 
L 369.275943 768.96 
L 369.275943 722.956279 
L 366.907075 722.956279 
z
" style="fill:#1f77b4;"/>
   </g>
   <g id="patch_47">
    <path clip-path="url(#pfcd3021f95)" d="M 371.644811 768.96 
L 374.013679 768.96 
L 374.013679 719.962083 
L 371.644811 719.962083 
z
" style="fill:#1f77b4;"/>
   </g>
   <g id="patch_48">
    <path clip-path="url(#pfcd3021f95)" d="M 376.382547 768.96 
L 378.751415 768.96 
L 378.751415 715.899517 
L 376.382547 715.899517 
z
" style="fill:#1f77b4;"/>
   </g>
   <g id="patch_49">
    <path clip-path="url(#pfcd3021f95)" d="M 381.120283 768.96 
L 383.489151 768.96 
L 383.489151 712.151496 
L 381.120283 712.151496 
z
" style="fill:#1f77b4;"/>
   </g>
   <g id="patch_50">
    <path clip-path="url(#pfcd3021f95)" d="M 385.858019 768.96 
L 388.226887 768.96 
L 388.226887 711.425736 
L 385.858019 711.425736 
z
" style="fill:#1f77b4;"/>
   </g>
   <g id="patch_51">
    <path clip-path="url(#pfcd3021f95)" d="M 390.595755 768.96 
L 392.964623 768.96 
L 392.964623 708.698588 
L 390.595755 708.698588 
z
" style="fill:#1f77b4;"/>
   </g>
   <g id="patch_52">
    <path clip-path="url(#pfcd3021f95)" d="M 395.333491 768.96 
L 397.702358 768.96 
L 397.702358 706.449269 
L 395.333491 706.449269 
z
" style="fill:#1f77b4;"/>
   </g>
   <g id="patch_53">
    <path clip-path="url(#pfcd3021f95)" d="M 400.071226 768.96 
L 402.440094 768.96 
L 402.440094 703.095289 
L 400.071226 703.095289 
z
" style="fill:#1f77b4;"/>
   </g>
   <g id="patch_54">
    <path clip-path="url(#pfcd3021f95)" d="M 404.808962 768.96 
L 407.17783 768.96 
L 407.17783 696.938914 
L 404.808962 696.938914 
z
" style="fill:#1f77b4;"/>
   </g>
   <g id="patch_55">
    <path clip-path="url(#pfcd3021f95)" d="M 409.546698 768.96 
L 411.915566 768.96 
L 411.915566 690.542246 
L 409.546698 690.542246 
z
" style="fill:#1f77b4;"/>
   </g>
   <g id="patch_56">
    <path clip-path="url(#pfcd3021f95)" d="M 414.284434 768.96 
L 416.653302 768.96 
L 416.653302 684.847069 
L 414.284434 684.847069 
z
" style="fill:#1f77b4;"/>
   </g>
   <g id="patch_57">
    <path clip-path="url(#pfcd3021f95)" d="M 419.02217 768.96 
L 421.391038 768.96 
L 421.391038 679.844526 
L 419.02217 679.844526 
z
" style="fill:#1f77b4;"/>
   </g>
   <g id="patch_58">
    <path clip-path="url(#pfcd3021f95)" d="M 423.759906 768.96 
L 426.128774 768.96 
L 426.128774 677.334803 
L 423.759906 677.334803 
z
" style="fill:#1f77b4;"/>
   </g>
   <g id="patch_59">
    <path clip-path="url(#pfcd3021f95)" d="M 428.497642 768.96 
L 430.866509 768.96 
L 430.866509 673.795576 
L 428.497642 673.795576 
z
" style="fill:#1f77b4;"/>
   </g>
   <g id="patch_60">
    <path clip-path="url(#pfcd3021f95)" d="M 433.235377 768.96 
L 435.604245 768.96 
L 435.604245 669.00386 
L 433.235377 669.00386 
z
" style="fill:#1f77b4;"/>
   </g>
   <g id="patch_61">
    <path clip-path="url(#pfcd3021f95)" d="M 437.973113 768.96 
L 440.341981 768.96 
L 440.341981 663.616585 
L 437.973113 663.616585 
z
" style="fill:#1f77b4;"/>
   </g>
   <g id="patch_62">
    <path clip-path="url(#pfcd3021f95)" d="M 442.710849 768.96 
L 445.079717 768.96 
L 445.079717 655.79366 
L 442.710849 655.79366 
z
" style="fill:#1f77b4;"/>
   </g>
   <g id="patch_63">
    <path clip-path="url(#pfcd3021f95)" d="M 447.448585 768.96 
L 449.817453 768.96 
L 449.817453 648.358855 
L 447.448585 648.358855 
z
" style="fill:#1f77b4;"/>
   </g>
   <g id="patch_64">
    <path clip-path="url(#pfcd3021f95)" d="M 452.186321 768.96 
L 454.555189 768.96 
L 454.555189 642.56466 
L 452.186321 642.56466 
z
" style="fill:#1f77b4;"/>
   </g>
   <g id="patch_65">
    <path clip-path="url(#pfcd3021f95)" d="M 456.924057 768.96 
L 459.292925 768.96 
L 459.292925 640.767546 
L 456.924057 640.767546 
z
" style="fill:#1f77b4;"/>
   </g>
   <g id="patch_66">
    <path clip-path="url(#pfcd3021f95)" d="M 461.661792 768.96 
L 464.03066 768.96 
L 464.03066 636.056319 
L 461.661792 636.056319 
z
" style="fill:#1f77b4;"/>
   </g>
   <g id="patch_67">
    <path clip-path="url(#pfcd3021f95)" d="M 466.399528 768.96 
L 468.768396 768.96 
L 468.768396 629.932258 
L 466.399528 629.932258 
z
" style="fill:#1f77b4;"/>
   </g>
   <g id="patch_68">
    <path clip-path="url(#pfcd3021f95)" d="M 471.137264 768.96 
L 473.506132 768.96 
L 473.506132 623.139244 
L 471.137264 623.139244 
z
" style="fill:#1f77b4;"/>
   </g>
   <g id="patch_69">
    <path clip-path="url(#pfcd3021f95)" d="M 475.875 768.96 
L 478.243868 768.96 
L 478.243868 615.888828 
L 475.875 615.888828 
z
" style="fill:#1f77b4;"/>
   </g>
   <g id="patch_70">
    <path clip-path="url(#pfcd3021f95)" d="M 480.612736 768.96 
L 482.981604 768.96 
L 482.981604 607.734184 
L 480.612736 607.734184 
z
" style="fill:#1f77b4;"/>
   </g>
   <g id="patch_71">
    <path clip-path="url(#pfcd3021f95)" d="M 485.350472 768.96 
L 487.71934 768.96 
L 487.71934 602.516972 
L 485.350472 602.516972 
z
" style="fill:#1f77b4;"/>
   </g>
   <g id="patch_72">
    <path clip-path="url(#pfcd3021f95)" d="M 490.088208 768.96 
L 492.457075 768.96 
L 492.457075 597.336999 
L 490.088208 597.336999 
z
" style="fill:#1f77b4;"/>
   </g>
   <g id="patch_73">
    <path clip-path="url(#pfcd3021f95)" d="M 494.825943 768.96 
L 497.194811 768.96 
L 497.194811 592.733965 
L 494.825943 592.733965 
z
" style="fill:#1f77b4;"/>
   </g>
   <g id="patch_74">
    <path clip-path="url(#pfcd3021f95)" d="M 499.563679 768.96 
L 501.932547 768.96 
L 501.932547 587.528685 
L 499.563679 587.528685 
z
" style="fill:#1f77b4;"/>
   </g>
   <g id="patch_75">
    <path clip-path="url(#pfcd3021f95)" d="M 504.301415 768.96 
L 506.670283 768.96 
L 506.670283 582.843986 
L 504.301415 582.843986 
z
" style="fill:#1f77b4;"/>
   </g>
   <g id="patch_76">
    <path clip-path="url(#pfcd3021f95)" d="M 509.039151 768.96 
L 511.408019 768.96 
L 511.408019 577.570644 
L 509.039151 577.570644 
z
" style="fill:#1f77b4;"/>
   </g>
   <g id="patch_77">
    <path clip-path="url(#pfcd3021f95)" d="M 513.776887 768.96 
L 516.145755 768.96 
L 516.145755 572.161497 
L 513.776887 572.161497 
z
" style="fill:#1f77b4;"/>
   </g>
   <g id="patch_78">
    <path clip-path="url(#pfcd3021f95)" d="M 518.514623 768.96 
L 520.883491 768.96 
L 520.883491 568.94034 
L 518.514623 568.94034 
z
" style="fill:#1f77b4;"/>
   </g>
   <g id="patch_79">
    <path clip-path="url(#pfcd3021f95)" d="M 523.252358 768.96 
L 525.621226 768.96 
L 525.621226 567.171155 
L 523.252358 567.171155 
z
" style="fill:#1f77b4;"/>
   </g>
   <g id="patch_80">
    <path clip-path="url(#pfcd3021f95)" d="M 527.990094 768.96 
L 530.358962 768.96 
L 530.358962 564.273131 
L 527.990094 564.273131 
z
" style="fill:#1f77b4;"/>
   </g>
   <g id="patch_81">
    <path clip-path="url(#pfcd3021f95)" d="M 532.72783 768.96 
L 535.096698 768.96 
L 535.096698 560.822392 
L 532.72783 560.822392 
z
" style="fill:#1f77b4;"/>
   </g>
   <g id="patch_82">
    <path clip-path="url(#pfcd3021f95)" d="M 537.465566 768.96 
L 539.834434 768.96 
L 539.834434 557.233904 
L 537.465566 557.233904 
z
" style="fill:#1f77b4;"/>
   </g>
   <g id="patch_83">
    <path clip-path="url(#pfcd3021f95)" d="M 542.203302 768.96 
L 544.57217 768.96 
L 544.57217 552.527242 
L 542.203302 552.527242 
z
" style="fill:#1f77b4;"/>
   </g>
   <g id="patch_84">
    <path clip-path="url(#pfcd3021f95)" d="M 546.941038 768.96 
L 549.309906 768.96 
L 549.309906 546.673527 
L 546.941038 546.673527 
z
" style="fill:#1f77b4;"/>
   </g>
   <g id="patch_85">
    <path clip-path="url(#pfcd3021f95)" d="M 551.678774 768.96 
L 554.047642 768.96 
L 554.047642 541.600165 
L 551.678774 541.600165 
z
" style="fill:#1f77b4;"/>
   </g>
   <g id="patch_86">
    <path clip-path="url(#pfcd3021f95)" d="M 556.416509 768.96 
L 558.785377 768.96 
L 558.785377 539.578395 
L 556.416509 539.578395 
z
" style="fill:#1f77b4;"/>
   </g>
   <g id="patch_87">
    <path clip-path="url(#pfcd3021f95)" d="M 561.154245 768.96 
L 563.523113 768.96 
L 563.523113 536.551977 
L 561.154245 536.551977 
z
" style="fill:#1f77b4;"/>
   </g>
   <g id="patch_88">
    <path clip-path="url(#pfcd3021f95)" d="M 565.891981 768.96 
L 568.260849 768.96 
L 568.260849 531.039788 
L 565.891981 531.039788 
z
" style="fill:#1f77b4;"/>
   </g>
   <g id="patch_89">
    <path clip-path="url(#pfcd3021f95)" d="M 570.629717 768.96 
L 572.998585 768.96 
L 572.998585 526.390838 
L 570.629717 526.390838 
z
" style="fill:#1f77b4;"/>
   </g>
   <g id="patch_90">
    <path clip-path="url(#pfcd3021f95)" d="M 575.367453 768.96 
L 577.736321 768.96 
L 577.736321 519.948886 
L 575.367453 519.948886 
z
" style="fill:#1f77b4;"/>
   </g>
   <g id="patch_91">
    <path clip-path="url(#pfcd3021f95)" d="M 580.105189 768.96 
L 582.474057 768.96 
L 582.474057 513.418039 
L 580.105189 513.418039 
z
" style="fill:#1f77b4;"/>
   </g>
   <g id="patch_92">
    <path clip-path="url(#pfcd3021f95)" d="M 584.842925 768.96 
L 587.211792 768.96 
L 587.211792 508.451063 
L 584.842925 508.451063 
z
" style="fill:#1f77b4;"/>
   </g>
   <g id="patch_93">
    <path clip-path="url(#pfcd3021f95)" d="M 589.58066 768.96 
L 591.949528 768.96 
L 591.949528 507.051334 
L 589.58066 507.051334 
z
" style="fill:#1f77b4;"/>
   </g>
   <g id="patch_94">
    <path clip-path="url(#pfcd3021f95)" d="M 594.318396 768.96 
L 596.687264 768.96 
L 596.687264 502.364376 
L 594.318396 502.364376 
z
" style="fill:#1f77b4;"/>
   </g>
   <g id="patch_95">
    <path clip-path="url(#pfcd3021f95)" d="M 599.056132 768.96 
L 601.425 768.96 
L 601.425 495.036228 
L 599.056132 495.036228 
z
" style="fill:#1f77b4;"/>
   </g>
   <g id="patch_96">
    <path clip-path="url(#pfcd3021f95)" d="M 603.793868 768.96 
L 606.162736 768.96 
L 606.162736 486.898169 
L 603.793868 486.898169 
z
" style="fill:#1f77b4;"/>
   </g>
   <g id="patch_97">
    <path clip-path="url(#pfcd3021f95)" d="M 608.531604 768.96 
L 610.900472 768.96 
L 610.900472 477.275192 
L 608.531604 477.275192 
z
" style="fill:#1f77b4;"/>
   </g>
   <g id="patch_98">
    <path clip-path="url(#pfcd3021f95)" d="M 613.26934 768.96 
L 615.638208 768.96 
L 615.638208 465.967407 
L 613.26934 465.967407 
z
" style="fill:#1f77b4;"/>
   </g>
   <g id="patch_99">
    <path clip-path="url(#pfcd3021f95)" d="M 618.007075 768.96 
L 620.375943 768.96 
L 620.375943 458.489578 
L 618.007075 458.489578 
z
" style="fill:#1f77b4;"/>
   </g>
   <g id="patch_100">
    <path clip-path="url(#pfcd3021f95)" d="M 622.744811 768.96 
L 625.113679 768.96 
L 625.113679 454.777034 
L 622.744811 454.777034 
z
" style="fill:#1f77b4;"/>
   </g>
   <g id="patch_101">
    <path clip-path="url(#pfcd3021f95)" d="M 627.482547 768.96 
L 629.851415 768.96 
L 629.851415 448.524804 
L 627.482547 448.524804 
z
" style="fill:#1f77b4;"/>
   </g>
   <g id="patch_102">
    <path clip-path="url(#pfcd3021f95)" d="M 632.220283 768.96 
L 634.589151 768.96 
L 634.589151 440.798819 
L 632.220283 440.798819 
z
" style="fill:#1f77b4;"/>
   </g>
   <g id="patch_103">
    <path clip-path="url(#pfcd3021f95)" d="M 636.958019 768.96 
L 639.326887 768.96 
L 639.326887 434.152458 
L 636.958019 434.152458 
z
" style="fill:#1f77b4;"/>
   </g>
   <g id="patch_104">
    <path clip-path="url(#pfcd3021f95)" d="M 641.695755 768.96 
L 644.064623 768.96 
L 644.064623 425.185914 
L 641.695755 425.185914 
z
" style="fill:#1f77b4;"/>
   </g>
   <g id="patch_105">
    <path clip-path="url(#pfcd3021f95)" d="M 646.433491 768.96 
L 648.802358 768.96 
L 648.802358 416.455416 
L 646.433491 416.455416 
z
" style="fill:#1f77b4;"/>
   </g>
   <g id="patch_106">
    <path clip-path="url(#pfcd3021f95)" d="M 651.171226 768.96 
L 653.540094 768.96 
L 653.540094 410.387033 
L 651.171226 410.387033 
z
" style="fill:#1f77b4;"/>
   </g>
   <g id="patch_107">
    <path clip-path="url(#pfcd3021f95)" d="M 655.908962 768.96 
L 658.27783 768.96 
L 658.27783 406.891191 
L 655.908962 406.891191 
z
" style="fill:#1f77b4;"/>
   </g>
   <g id="patch_108">
    <path clip-path="url(#pfcd3021f95)" d="M 660.646698 768.96 
L 663.015566 768.96 
L 663.015566 401.857509 
L 660.646698 401.857509 
z
" style="fill:#1f77b4;"/>
   </g>
   <g id="patch_109">
    <path clip-path="url(#pfcd3021f95)" d="M 665.384434 768.96 
L 667.753302 768.96 
L 667.753302 393.817294 
L 665.384434 393.817294 
z
" style="fill:#1f77b4;"/>
   </g>
   <g id="patch_110">
    <path clip-path="url(#pfcd3021f95)" d="M 670.12217 768.96 
L 672.491038 768.96 
L 672.491038 386.648001 
L 670.12217 386.648001 
z
" style="fill:#1f77b4;"/>
   </g>
   <g id="patch_111">
    <path clip-path="url(#pfcd3021f95)" d="M 674.859906 768.96 
L 677.228774 768.96 
L 677.228774 379.052082 
L 674.859906 379.052082 
z
" style="fill:#1f77b4;"/>
   </g>
   <g id="patch_112">
    <path clip-path="url(#pfcd3021f95)" d="M 679.597642 768.96 
L 681.966509 768.96 
L 681.966509 372.048422 
L 679.597642 372.048422 
z
" style="fill:#1f77b4;"/>
   </g>
   <g id="patch_113">
    <path clip-path="url(#pfcd3021f95)" d="M 684.335377 768.96 
L 686.704245 768.96 
L 686.704245 367.361102 
L 684.335377 367.361102 
z
" style="fill:#1f77b4;"/>
   </g>
   <g id="patch_114">
    <path clip-path="url(#pfcd3021f95)" d="M 689.073113 768.96 
L 691.441981 768.96 
L 691.441981 365.343987 
L 689.073113 365.343987 
z
" style="fill:#1f77b4;"/>
   </g>
   <g id="patch_115">
    <path clip-path="url(#pfcd3021f95)" d="M 693.810849 768.96 
L 696.179717 768.96 
L 696.179717 361.028699 
L 693.810849 361.028699 
z
" style="fill:#1f77b4;"/>
   </g>
   <g id="patch_116">
    <path clip-path="url(#pfcd3021f95)" d="M 698.548585 768.96 
L 700.917453 768.96 
L 700.917453 354.885385 
L 698.548585 354.885385 
z
" style="fill:#1f77b4;"/>
   </g>
   <g id="patch_117">
    <path clip-path="url(#pfcd3021f95)" d="M 703.286321 768.96 
L 705.655189 768.96 
L 705.655189 348.479678 
L 703.286321 348.479678 
z
" style="fill:#1f77b4;"/>
   </g>
   <g id="patch_118">
    <path clip-path="url(#pfcd3021f95)" d="M 708.024057 768.96 
L 710.392925 768.96 
L 710.392925 342.245932 
L 708.024057 342.245932 
z
" style="fill:#1f77b4;"/>
   </g>
   <g id="patch_119">
    <path clip-path="url(#pfcd3021f95)" d="M 712.761792 768.96 
L 715.13066 768.96 
L 715.13066 337.000475 
L 712.761792 337.000475 
z
" style="fill:#1f77b4;"/>
   </g>
   <g id="patch_120">
    <path clip-path="url(#pfcd3021f95)" d="M 717.499528 768.96 
L 719.868396 768.96 
L 719.868396 334.649561 
L 717.499528 334.649561 
z
" style="fill:#1f77b4;"/>
   </g>
   <g id="patch_121">
    <path clip-path="url(#pfcd3021f95)" d="M 722.237264 768.96 
L 724.606132 768.96 
L 724.606132 333.840058 
L 722.237264 333.840058 
z
" style="fill:#1f77b4;"/>
   </g>
   <g id="patch_122">
    <path clip-path="url(#pfcd3021f95)" d="M 726.975 768.96 
L 729.343868 768.96 
L 729.343868 331.301231 
L 726.975 331.301231 
z
" style="fill:#1f77b4;"/>
   </g>
   <g id="patch_123">
    <path clip-path="url(#pfcd3021f95)" d="M 731.712736 768.96 
L 734.081604 768.96 
L 734.081604 324.61415 
L 731.712736 324.61415 
z
" style="fill:#1f77b4;"/>
   </g>
   <g id="patch_124">
    <path clip-path="url(#pfcd3021f95)" d="M 736.450472 768.96 
L 738.81934 768.96 
L 738.81934 318.13993 
L 736.450472 318.13993 
z
" style="fill:#1f77b4;"/>
   </g>
   <g id="patch_125">
    <path clip-path="url(#pfcd3021f95)" d="M 741.188208 768.96 
L 743.557075 768.96 
L 743.557075 313.2421 
L 741.188208 313.2421 
z
" style="fill:#1f77b4;"/>
   </g>
   <g id="patch_126">
    <path clip-path="url(#pfcd3021f95)" d="M 745.925943 768.96 
L 748.294811 768.96 
L 748.294811 306.08546 
L 745.925943 306.08546 
z
" style="fill:#1f77b4;"/>
   </g>
   <g id="patch_127">
    <path clip-path="url(#pfcd3021f95)" d="M 750.663679 768.96 
L 753.032547 768.96 
L 753.032547 301.274085 
L 750.663679 301.274085 
z
" style="fill:#1f77b4;"/>
   </g>
   <g id="patch_128">
    <path clip-path="url(#pfcd3021f95)" d="M 755.401415 768.96 
L 757.770283 768.96 
L 757.770283 297.014701 
L 755.401415 297.014701 
z
" style="fill:#1f77b4;"/>
   </g>
   <g id="patch_129">
    <path clip-path="url(#pfcd3021f95)" d="M 760.139151 768.96 
L 762.508019 768.96 
L 762.508019 293.34961 
L 760.139151 293.34961 
z
" style="fill:#1f77b4;"/>
   </g>
   <g id="patch_130">
    <path clip-path="url(#pfcd3021f95)" d="M 764.876887 768.96 
L 767.245755 768.96 
L 767.245755 288.35231 
L 764.876887 288.35231 
z
" style="fill:#1f77b4;"/>
   </g>
   <g id="patch_131">
    <path clip-path="url(#pfcd3021f95)" d="M 769.614623 768.96 
L 771.983491 768.96 
L 771.983491 283.8741 
L 769.614623 283.8741 
z
" style="fill:#1f77b4;"/>
   </g>
   <g id="patch_132">
    <path clip-path="url(#pfcd3021f95)" d="M 774.352358 768.96 
L 776.721226 768.96 
L 776.721226 279.23812 
L 774.352358 279.23812 
z
" style="fill:#1f77b4;"/>
   </g>
   <g id="patch_133">
    <path clip-path="url(#pfcd3021f95)" d="M 779.090094 768.96 
L 781.458962 768.96 
L 781.458962 272.653583 
L 779.090094 272.653583 
z
" style="fill:#1f77b4;"/>
   </g>
   <g id="patch_134">
    <path clip-path="url(#pfcd3021f95)" d="M 783.82783 768.96 
L 786.196698 768.96 
L 786.196698 268.953015 
L 783.82783 268.953015 
z
" style="fill:#1f77b4;"/>
   </g>
   <g id="patch_135">
    <path clip-path="url(#pfcd3021f95)" d="M 788.565566 768.96 
L 790.934434 768.96 
L 790.934434 267.474334 
L 788.565566 267.474334 
z
" style="fill:#1f77b4;"/>
   </g>
   <g id="patch_136">
    <path clip-path="url(#pfcd3021f95)" d="M 793.303302 768.96 
L 795.67217 768.96 
L 795.67217 264.863197 
L 793.303302 264.863197 
z
" style="fill:#1f77b4;"/>
   </g>
   <g id="patch_137">
    <path clip-path="url(#pfcd3021f95)" d="M 798.041038 768.96 
L 800.409906 768.96 
L 800.409906 260.066419 
L 798.041038 260.066419 
z
" style="fill:#1f77b4;"/>
   </g>
   <g id="patch_138">
    <path clip-path="url(#pfcd3021f95)" d="M 802.778774 768.96 
L 805.147642 768.96 
L 805.147642 255.793161 
L 802.778774 255.793161 
z
" style="fill:#1f77b4;"/>
   </g>
   <g id="patch_139">
    <path clip-path="url(#pfcd3021f95)" d="M 807.516509 768.96 
L 809.885377 768.96 
L 809.885377 250.294349 
L 807.516509 250.294349 
z
" style="fill:#1f77b4;"/>
   </g>
   <g id="patch_140">
    <path clip-path="url(#pfcd3021f95)" d="M 812.254245 768.96 
L 814.623113 768.96 
L 814.623113 246.432893 
L 812.254245 246.432893 
z
" style="fill:#1f77b4;"/>
   </g>
   <g id="patch_141">
    <path clip-path="url(#pfcd3021f95)" d="M 816.991981 768.96 
L 819.360849 768.96 
L 819.360849 243.517515 
L 816.991981 243.517515 
z
" style="fill:#1f77b4;"/>
   </g>
   <g id="patch_142">
    <path clip-path="url(#pfcd3021f95)" d="M 821.729717 768.96 
L 824.098585 768.96 
L 824.098585 242.091348 
L 821.729717 242.091348 
z
" style="fill:#1f77b4;"/>
   </g>
   <g id="patch_143">
    <path clip-path="url(#pfcd3021f95)" d="M 826.467453 768.96 
L 828.836321 768.96 
L 828.836321 239.698088 
L 826.467453 239.698088 
z
" style="fill:#1f77b4;"/>
   </g>
   <g id="patch_144">
    <path clip-path="url(#pfcd3021f95)" d="M 831.205189 768.96 
L 833.574057 768.96 
L 833.574057 236.804132 
L 831.205189 236.804132 
z
" style="fill:#1f77b4;"/>
   </g>
   <g id="patch_145">
    <path clip-path="url(#pfcd3021f95)" d="M 835.942925 768.96 
L 838.311792 768.96 
L 838.311792 233.850249 
L 835.942925 233.850249 
z
" style="fill:#1f77b4;"/>
   </g>
   <g id="patch_146">
    <path clip-path="url(#pfcd3021f95)" d="M 840.68066 768.96 
L 843.049528 768.96 
L 843.049528 230.8274 
L 840.68066 230.8274 
z
" style="fill:#1f77b4;"/>
   </g>
   <g id="patch_147">
    <path clip-path="url(#pfcd3021f95)" d="M 845.418396 768.96 
L 847.787264 768.96 
L 847.787264 228.091892 
L 845.418396 228.091892 
z
" style="fill:#1f77b4;"/>
   </g>
   <g id="patch_148">
    <path clip-path="url(#pfcd3021f95)" d="M 850.156132 768.96 
L 852.525 768.96 
L 852.525 226.240365 
L 850.156132 226.240365 
z
" style="fill:#1f77b4;"/>
   </g>
   <g id="patch_149">
    <path clip-path="url(#pfcd3021f95)" d="M 854.893868 768.96 
L 857.262736 768.96 
L 857.262736 225.327414 
L 854.893868 225.327414 
z
" style="fill:#1f77b4;"/>
   </g>
   <g id="patch_150">
    <path clip-path="url(#pfcd3021f95)" d="M 859.631604 768.96 
L 862.000472 768.96 
L 862.000472 224.545614 
L 859.631604 224.545614 
z
" style="fill:#1f77b4;"/>
   </g>
   <g id="patch_151">
    <path clip-path="url(#pfcd3021f95)" d="M 864.36934 768.96 
L 866.738208 768.96 
L 866.738208 222.822391 
L 864.36934 222.822391 
z
" style="fill:#1f77b4;"/>
   </g>
   <g id="patch_152">
    <path clip-path="url(#pfcd3021f95)" d="M 869.107075 768.96 
L 871.475943 768.96 
L 871.475943 221.02582 
L 869.107075 221.02582 
z
" style="fill:#1f77b4;"/>
   </g>
   <g id="patch_153">
    <path clip-path="url(#pfcd3021f95)" d="M 873.844811 768.96 
L 876.213679 768.96 
L 876.213679 218.532502 
L 873.844811 218.532502 
z
" style="fill:#1f77b4;"/>
   </g>
   <g id="patch_154">
    <path clip-path="url(#pfcd3021f95)" d="M 878.582547 768.96 
L 880.951415 768.96 
L 880.951415 215.913953 
L 878.582547 215.913953 
z
" style="fill:#1f77b4;"/>
   </g>
   <g id="patch_155">
    <path clip-path="url(#pfcd3021f95)" d="M 883.320283 768.96 
L 885.689151 768.96 
L 885.689151 213.657765 
L 883.320283 213.657765 
z
" style="fill:#1f77b4;"/>
   </g>
   <g id="patch_156">
    <path clip-path="url(#pfcd3021f95)" d="M 888.058019 768.96 
L 890.426887 768.96 
L 890.426887 212.187942 
L 888.058019 212.187942 
z
" style="fill:#1f77b4;"/>
   </g>
   <g id="patch_157">
    <path clip-path="url(#pfcd3021f95)" d="M 892.795755 768.96 
L 895.164623 768.96 
L 895.164623 210.088439 
L 892.795755 210.088439 
z
" style="fill:#1f77b4;"/>
   </g>
   <g id="patch_158">
    <path clip-path="url(#pfcd3021f95)" d="M 897.533491 768.96 
L 899.902358 768.96 
L 899.902358 207.617944 
L 897.533491 207.617944 
z
" style="fill:#1f77b4;"/>
   </g>
   <g id="patch_159">
    <path clip-path="url(#pfcd3021f95)" d="M 902.271226 768.96 
L 904.640094 768.96 
L 904.640094 204.604858 
L 902.271226 204.604858 
z
" style="fill:#1f77b4;"/>
   </g>
   <g id="patch_160">
    <path clip-path="url(#pfcd3021f95)" d="M 907.008962 768.96 
L 909.37783 768.96 
L 909.37783 202.432549 
L 907.008962 202.432549 
z
" style="fill:#1f77b4;"/>
   </g>
   <g id="patch_161">
    <path clip-path="url(#pfcd3021f95)" d="M 911.746698 768.96 
L 914.115566 768.96 
L 914.115566 200.399932 
L 911.746698 200.399932 
z
" style="fill:#1f77b4;"/>
   </g>
   <g id="patch_162">
    <path clip-path="url(#pfcd3021f95)" d="M 916.484434 768.96 
L 918.853302 768.96 
L 918.853302 199.192411 
L 916.484434 199.192411 
z
" style="fill:#1f77b4;"/>
   </g>
   <g id="patch_163">
    <path clip-path="url(#pfcd3021f95)" d="M 921.22217 768.96 
L 923.591038 768.96 
L 923.591038 198.02353 
L 921.22217 198.02353 
z
" style="fill:#1f77b4;"/>
   </g>
   <g id="patch_164">
    <path clip-path="url(#pfcd3021f95)" d="M 925.959906 768.96 
L 928.328774 768.96 
L 928.328774 194.443538 
L 925.959906 194.443538 
z
" style="fill:#1f77b4;"/>
   </g>
   <g id="patch_165">
    <path clip-path="url(#pfcd3021f95)" d="M 930.697642 768.96 
L 933.066509 768.96 
L 933.066509 191.675987 
L 930.697642 191.675987 
z
" style="fill:#1f77b4;"/>
   </g>
   <g id="patch_166">
    <path clip-path="url(#pfcd3021f95)" d="M 935.435377 768.96 
L 937.804245 768.96 
L 937.804245 189.717397 
L 935.435377 189.717397 
z
" style="fill:#1f77b4;"/>
   </g>
   <g id="patch_167">
    <path clip-path="url(#pfcd3021f95)" d="M 940.173113 768.96 
L 942.541981 768.96 
L 942.541981 187.24523 
L 940.173113 187.24523 
z
" style="fill:#1f77b4;"/>
   </g>
   <g id="patch_168">
    <path clip-path="url(#pfcd3021f95)" d="M 944.910849 768.96 
L 947.279717 768.96 
L 947.279717 186.002232 
L 944.910849 186.002232 
z
" style="fill:#1f77b4;"/>
   </g>
   <g id="patch_169">
    <path clip-path="url(#pfcd3021f95)" d="M 949.648585 768.96 
L 952.017453 768.96 
L 952.017453 184.104698 
L 949.648585 184.104698 
z
" style="fill:#1f77b4;"/>
   </g>
   <g id="patch_170">
    <path clip-path="url(#pfcd3021f95)" d="M 954.386321 768.96 
L 956.755189 768.96 
L 956.755189 183.297319 
L 954.386321 183.297319 
z
" style="fill:#1f77b4;"/>
   </g>
   <g id="patch_171">
    <path clip-path="url(#pfcd3021f95)" d="M 959.124057 768.96 
L 961.492925 768.96 
L 961.492925 182.233558 
L 959.124057 182.233558 
z
" style="fill:#1f77b4;"/>
   </g>
   <g id="patch_172">
    <path clip-path="url(#pfcd3021f95)" d="M 963.861792 768.96 
L 966.23066 768.96 
L 966.23066 180.976866 
L 963.861792 180.976866 
z
" style="fill:#1f77b4;"/>
   </g>
   <g id="patch_173">
    <path clip-path="url(#pfcd3021f95)" d="M 968.599528 768.96 
L 970.968396 768.96 
L 970.968396 179.448924 
L 968.599528 179.448924 
z
" style="fill:#1f77b4;"/>
   </g>
   <g id="patch_174">
    <path clip-path="url(#pfcd3021f95)" d="M 973.337264 768.96 
L 975.706132 768.96 
L 975.706132 177.611768 
L 973.337264 177.611768 
z
" style="fill:#1f77b4;"/>
   </g>
   <g id="patch_175">
    <path clip-path="url(#pfcd3021f95)" d="M 978.075 768.96 
L 980.443868 768.96 
L 980.443868 173.321156 
L 978.075 173.321156 
z
" style="fill:#1f77b4;"/>
   </g>
   <g id="patch_176">
    <path clip-path="url(#pfcd3021f95)" d="M 982.812736 768.96 
L 985.181604 768.96 
L 985.181604 168.189043 
L 982.812736 168.189043 
z
" style="fill:#1f77b4;"/>
   </g>
   <g id="patch_177">
    <path clip-path="url(#pfcd3021f95)" d="M 987.550472 768.96 
L 989.91934 768.96 
L 989.91934 167.779998 
L 987.550472 167.779998 
z
" style="fill:#1f77b4;"/>
   </g>
   <g id="patch_178">
    <path clip-path="url(#pfcd3021f95)" d="M 992.288208 768.96 
L 994.657075 768.96 
L 994.657075 166.721931 
L 992.288208 166.721931 
z
" style="fill:#1f77b4;"/>
   </g>
   <g id="patch_179">
    <path clip-path="url(#pfcd3021f95)" d="M 997.025943 768.96 
L 999.394811 768.96 
L 999.394811 165.389224 
L 997.025943 165.389224 
z
" style="fill:#1f77b4;"/>
   </g>
   <g id="patch_180">
    <path clip-path="url(#pfcd3021f95)" d="M 1001.763679 768.96 
L 1004.132547 768.96 
L 1004.132547 164.085893 
L 1001.763679 164.085893 
z
" style="fill:#1f77b4;"/>
   </g>
   <g id="patch_181">
    <path clip-path="url(#pfcd3021f95)" d="M 1006.501415 768.96 
L 1008.870283 768.96 
L 1008.870283 162.885377 
L 1006.501415 162.885377 
z
" style="fill:#1f77b4;"/>
   </g>
   <g id="patch_182">
    <path clip-path="url(#pfcd3021f95)" d="M 1011.239151 768.96 
L 1013.608019 768.96 
L 1013.608019 161.623262 
L 1011.239151 161.623262 
z
" style="fill:#1f77b4;"/>
   </g>
   <g id="patch_183">
    <path clip-path="url(#pfcd3021f95)" d="M 1015.976887 768.96 
L 1018.345755 768.96 
L 1018.345755 160.782756 
L 1015.976887 160.782756 
z
" style="fill:#1f77b4;"/>
   </g>
   <g id="patch_184">
    <path clip-path="url(#pfcd3021f95)" d="M 1020.714623 768.96 
L 1023.083491 768.96 
L 1023.083491 160.374253 
L 1020.714623 160.374253 
z
" style="fill:#1f77b4;"/>
   </g>
   <g id="patch_185">
    <path clip-path="url(#pfcd3021f95)" d="M 1025.452358 768.96 
L 1027.821226 768.96 
L 1027.821226 160.303571 
L 1025.452358 160.303571 
z
" style="fill:#1f77b4;"/>
   </g>
   <g id="patch_186">
    <path clip-path="url(#pfcd3021f95)" d="M 1030.190094 768.96 
L 1032.558962 768.96 
L 1032.558962 159.626981 
L 1030.190094 159.626981 
z
" style="fill:#1f77b4;"/>
   </g>
   <g id="patch_187">
    <path clip-path="url(#pfcd3021f95)" d="M 1034.92783 768.96 
L 1037.296698 768.96 
L 1037.296698 158.418375 
L 1034.92783 158.418375 
z
" style="fill:#1f77b4;"/>
   </g>
   <g id="patch_188">
    <path clip-path="url(#pfcd3021f95)" d="M 1039.665566 768.96 
L 1042.034434 768.96 
L 1042.034434 157.205249 
L 1039.665566 157.205249 
z
" style="fill:#1f77b4;"/>
   </g>
   <g id="patch_189">
    <path clip-path="url(#pfcd3021f95)" d="M 1044.403302 768.96 
L 1046.77217 768.96 
L 1046.77217 156.125896 
L 1044.403302 156.125896 
z
" style="fill:#1f77b4;"/>
   </g>
   <g id="patch_190">
    <path clip-path="url(#pfcd3021f95)" d="M 1049.141038 768.96 
L 1051.509906 768.96 
L 1051.509906 155.249597 
L 1049.141038 155.249597 
z
" style="fill:#1f77b4;"/>
   </g>
   <g id="patch_191">
    <path clip-path="url(#pfcd3021f95)" d="M 1053.878774 768.96 
L 1056.247642 768.96 
L 1056.247642 154.663123 
L 1053.878774 154.663123 
z
" style="fill:#1f77b4;"/>
   </g>
   <g id="patch_192">
    <path clip-path="url(#pfcd3021f95)" d="M 1058.616509 768.96 
L 1060.985377 768.96 
L 1060.985377 153.539526 
L 1058.616509 153.539526 
z
" style="fill:#1f77b4;"/>
   </g>
   <g id="patch_193">
    <path clip-path="url(#pfcd3021f95)" d="M 1063.354245 768.96 
L 1065.723113 768.96 
L 1065.723113 152.591188 
L 1063.354245 152.591188 
z
" style="fill:#1f77b4;"/>
   </g>
   <g id="patch_194">
    <path clip-path="url(#pfcd3021f95)" d="M 1068.091981 768.96 
L 1070.460849 768.96 
L 1070.460849 151.689807 
L 1068.091981 151.689807 
z
" style="fill:#1f77b4;"/>
   </g>
   <g id="patch_195">
    <path clip-path="url(#pfcd3021f95)" d="M 1072.829717 768.96 
L 1075.198585 768.96 
L 1075.198585 150.782957 
L 1072.829717 150.782957 
z
" style="fill:#1f77b4;"/>
   </g>
   <g id="patch_196">
    <path clip-path="url(#pfcd3021f95)" d="M 1077.567453 768.96 
L 1079.936321 768.96 
L 1079.936321 149.886456 
L 1077.567453 149.886456 
z
" style="fill:#1f77b4;"/>
   </g>
   <g id="patch_197">
    <path clip-path="url(#pfcd3021f95)" d="M 1082.305189 768.96 
L 1084.674057 768.96 
L 1084.674057 149.16038 
L 1082.305189 149.16038 
z
" style="fill:#1f77b4;"/>
   </g>
   <g id="patch_198">
    <path clip-path="url(#pfcd3021f95)" d="M 1087.042925 768.96 
L 1089.411792 768.96 
L 1089.411792 148.749165 
L 1087.042925 148.749165 
z
" style="fill:#1f77b4;"/>
   </g>
   <g id="patch_199">
    <path clip-path="url(#pfcd3021f95)" d="M 1091.78066 768.96 
L 1094.149528 768.96 
L 1094.149528 148.000808 
L 1091.78066 148.000808 
z
" style="fill:#1f77b4;"/>
   </g>
   <g id="patch_200">
    <path clip-path="url(#pfcd3021f95)" d="M 1096.518396 768.96 
L 1098.887264 768.96 
L 1098.887264 146.984726 
L 1096.518396 146.984726 
z
" style="fill:#1f77b4;"/>
   </g>
   <g id="patch_201">
    <path clip-path="url(#pfcd3021f95)" d="M 1101.256132 768.96 
L 1103.625 768.96 
L 1103.625 146.038694 
L 1101.256132 146.038694 
z
" style="fill:#1f77b4;"/>
   </g>
   <g id="patch_202">
    <path clip-path="url(#pfcd3021f95)" d="M 1105.993868 768.96 
L 1108.362736 768.96 
L 1108.362736 145.341179 
L 1105.993868 145.341179 
z
" style="fill:#1f77b4;"/>
   </g>
   <g id="patch_203">
    <path clip-path="url(#pfcd3021f95)" d="M 1110.731604 768.96 
L 1113.100472 768.96 
L 1113.100472 144.624548 
L 1110.731604 144.624548 
z
" style="fill:#1f77b4;"/>
   </g>
   <g id="patch_204">
    <path clip-path="url(#pfcd3021f95)" d="M 1115.46934 768.96 
L 1117.838208 768.96 
L 1117.838208 144.190421 
L 1115.46934 144.190421 
z
" style="fill:#1f77b4;"/>
   </g>
   <g id="patch_205">
    <path clip-path="url(#pfcd3021f95)" d="M 1120.207075 768.96 
L 1122.575943 768.96 
L 1122.575943 143.950399 
L 1120.207075 143.950399 
z
" style="fill:#1f77b4;"/>
   </g>
   <g id="patch_206">
    <path clip-path="url(#pfcd3021f95)" d="M 1124.944811 768.96 
L 1127.313679 768.96 
L 1127.313679 143.532948 
L 1124.944811 143.532948 
z
" style="fill:#1f77b4;"/>
   </g>
   <g id="patch_207">
    <path clip-path="url(#pfcd3021f95)" d="M 1129.682547 768.96 
L 1132.051415 768.96 
L 1132.051415 142.580272 
L 1129.682547 142.580272 
z
" style="fill:#1f77b4;"/>
   </g>
   <g id="patch_208">
    <path clip-path="url(#pfcd3021f95)" d="M 1134.420283 768.96 
L 1136.789151 768.96 
L 1136.789151 140.988562 
L 1134.420283 140.988562 
z
" style="fill:#1f77b4;"/>
   </g>
   <g id="patch_209">
    <path clip-path="url(#pfcd3021f95)" d="M 1139.158019 768.96 
L 1141.526887 768.96 
L 1141.526887 140.133232 
L 1139.158019 140.133232 
z
" style="fill:#1f77b4;"/>
   </g>
   <g id="patch_210">
    <path clip-path="url(#pfcd3021f95)" d="M 1143.895755 768.96 
L 1146.264623 768.96 
L 1146.264623 138.027583 
L 1143.895755 138.027583 
z
" style="fill:#1f77b4;"/>
   </g>
   <g id="patch_211">
    <path clip-path="url(#pfcd3021f95)" d="M 1148.633491 768.96 
L 1151.002358 768.96 
L 1151.002358 137.376799 
L 1148.633491 137.376799 
z
" style="fill:#1f77b4;"/>
   </g>
   <g id="patch_212">
    <path clip-path="url(#pfcd3021f95)" d="M 1153.371226 768.96 
L 1155.740094 768.96 
L 1155.740094 136.900913 
L 1153.371226 136.900913 
z
" style="fill:#1f77b4;"/>
   </g>
   <g id="patch_213">
    <path clip-path="url(#pfcd3021f95)" d="M 1158.108962 768.96 
L 1160.47783 768.96 
L 1160.47783 136.244389 
L 1158.108962 136.244389 
z
" style="fill:#1f77b4;"/>
   </g>
   <g id="patch_214">
    <path clip-path="url(#pfcd3021f95)" d="M 1162.846698 768.96 
L 1165.215566 768.96 
L 1165.215566 135.36 
L 1162.846698 135.36 
z
" style="fill:#1f77b4;"/>
   </g>
   <g id="matplotlib.axis_1">
    <g id="xtick_1">
     <g id="line2d_1">
      <defs>
       <path d="M 0 0 
L 0 3.5 
" id="mb90c09720b" style="stroke:#000000;stroke-width:0.8;"/>
      </defs>
      <g>
       <use style="stroke:#000000;stroke-width:0.8;" x="164.368868" xlink:href="#mb90c09720b" y="768.96"/>
      </g>
     </g>
     <g id="text_1">
      <!-- January -->
      <g transform="translate(145.413399 783.558437)scale(0.1 -0.1)">
       <defs>
        <path d="M 628 4666 
L 1259 4666 
L 1259 325 
Q 1259 -519 939 -900 
Q 619 -1281 -91 -1281 
L -331 -1281 
L -331 -750 
L -134 -750 
Q 284 -750 456 -515 
Q 628 -281 628 325 
L 628 4666 
z
" id="DejaVuSans-4a" transform="scale(0.015625)"/>
        <path d="M 2194 1759 
Q 1497 1759 1228 1600 
Q 959 1441 959 1056 
Q 959 750 1161 570 
Q 1363 391 1709 391 
Q 2188 391 2477 730 
Q 2766 1069 2766 1631 
L 2766 1759 
L 2194 1759 
z
M 3341 1997 
L 3341 0 
L 2766 0 
L 2766 531 
Q 2569 213 2275 61 
Q 1981 -91 1556 -91 
Q 1019 -91 701 211 
Q 384 513 384 1019 
Q 384 1609 779 1909 
Q 1175 2209 1959 2209 
L 2766 2209 
L 2766 2266 
Q 2766 2663 2505 2880 
Q 2244 3097 1772 3097 
Q 1472 3097 1187 3025 
Q 903 2953 641 2809 
L 641 3341 
Q 956 3463 1253 3523 
Q 1550 3584 1831 3584 
Q 2591 3584 2966 3190 
Q 3341 2797 3341 1997 
z
" id="DejaVuSans-61" transform="scale(0.015625)"/>
        <path d="M 3513 2113 
L 3513 0 
L 2938 0 
L 2938 2094 
Q 2938 2591 2744 2837 
Q 2550 3084 2163 3084 
Q 1697 3084 1428 2787 
Q 1159 2491 1159 1978 
L 1159 0 
L 581 0 
L 581 3500 
L 1159 3500 
L 1159 2956 
Q 1366 3272 1645 3428 
Q 1925 3584 2291 3584 
Q 2894 3584 3203 3211 
Q 3513 2838 3513 2113 
z
" id="DejaVuSans-6e" transform="scale(0.015625)"/>
        <path d="M 544 1381 
L 544 3500 
L 1119 3500 
L 1119 1403 
Q 1119 906 1312 657 
Q 1506 409 1894 409 
Q 2359 409 2629 706 
Q 2900 1003 2900 1516 
L 2900 3500 
L 3475 3500 
L 3475 0 
L 2900 0 
L 2900 538 
Q 2691 219 2414 64 
Q 2138 -91 1772 -91 
Q 1169 -91 856 284 
Q 544 659 544 1381 
z
M 1991 3584 
L 1991 3584 
z
" id="DejaVuSans-75" transform="scale(0.015625)"/>
        <path d="M 2631 2963 
Q 2534 3019 2420 3045 
Q 2306 3072 2169 3072 
Q 1681 3072 1420 2755 
Q 1159 2438 1159 1844 
L 1159 0 
L 581 0 
L 581 3500 
L 1159 3500 
L 1159 2956 
Q 1341 3275 1631 3429 
Q 1922 3584 2338 3584 
Q 2397 3584 2469 3576 
Q 2541 3569 2628 3553 
L 2631 2963 
z
" id="DejaVuSans-72" transform="scale(0.015625)"/>
        <path d="M 2059 -325 
Q 1816 -950 1584 -1140 
Q 1353 -1331 966 -1331 
L 506 -1331 
L 506 -850 
L 844 -850 
Q 1081 -850 1212 -737 
Q 1344 -625 1503 -206 
L 1606 56 
L 191 3500 
L 800 3500 
L 1894 763 
L 2988 3500 
L 3597 3500 
L 2059 -325 
z
" id="DejaVuSans-79" transform="scale(0.015625)"/>
       </defs>
       <use xlink:href="#DejaVuSans-4a"/>
       <use x="29.492188" xlink:href="#DejaVuSans-61"/>
       <use x="90.771484" xlink:href="#DejaVuSans-6e"/>
       <use x="154.150391" xlink:href="#DejaVuSans-75"/>
       <use x="217.529297" xlink:href="#DejaVuSans-61"/>
       <use x="278.808594" xlink:href="#DejaVuSans-72"/>
       <use x="319.921875" xlink:href="#DejaVuSans-79"/>
      </g>
     </g>
    </g>
    <g id="xtick_2">
     <g id="line2d_2">
      <g>
       <use style="stroke:#000000;stroke-width:0.8;" x="311.238679" xlink:href="#mb90c09720b" y="768.96"/>
      </g>
     </g>
     <g id="text_2">
      <!-- February -->
      <g transform="translate(289.083992 783.558437)scale(0.1 -0.1)">
       <defs>
        <path d="M 628 4666 
L 3309 4666 
L 3309 4134 
L 1259 4134 
L 1259 2759 
L 3109 2759 
L 3109 2228 
L 1259 2228 
L 1259 0 
L 628 0 
L 628 4666 
z
" id="DejaVuSans-46" transform="scale(0.015625)"/>
        <path d="M 3597 1894 
L 3597 1613 
L 953 1613 
Q 991 1019 1311 708 
Q 1631 397 2203 397 
Q 2534 397 2845 478 
Q 3156 559 3463 722 
L 3463 178 
Q 3153 47 2828 -22 
Q 2503 -91 2169 -91 
Q 1331 -91 842 396 
Q 353 884 353 1716 
Q 353 2575 817 3079 
Q 1281 3584 2069 3584 
Q 2775 3584 3186 3129 
Q 3597 2675 3597 1894 
z
M 3022 2063 
Q 3016 2534 2758 2815 
Q 2500 3097 2075 3097 
Q 1594 3097 1305 2825 
Q 1016 2553 972 2059 
L 3022 2063 
z
" id="DejaVuSans-65" transform="scale(0.015625)"/>
        <path d="M 3116 1747 
Q 3116 2381 2855 2742 
Q 2594 3103 2138 3103 
Q 1681 3103 1420 2742 
Q 1159 2381 1159 1747 
Q 1159 1113 1420 752 
Q 1681 391 2138 391 
Q 2594 391 2855 752 
Q 3116 1113 3116 1747 
z
M 1159 2969 
Q 1341 3281 1617 3432 
Q 1894 3584 2278 3584 
Q 2916 3584 3314 3078 
Q 3713 2572 3713 1747 
Q 3713 922 3314 415 
Q 2916 -91 2278 -91 
Q 1894 -91 1617 61 
Q 1341 213 1159 525 
L 1159 0 
L 581 0 
L 581 4863 
L 1159 4863 
L 1159 2969 
z
" id="DejaVuSans-62" transform="scale(0.015625)"/>
       </defs>
       <use xlink:href="#DejaVuSans-46"/>
       <use x="52.019531" xlink:href="#DejaVuSans-65"/>
       <use x="113.542969" xlink:href="#DejaVuSans-62"/>
       <use x="177.019531" xlink:href="#DejaVuSans-72"/>
       <use x="218.132812" xlink:href="#DejaVuSans-75"/>
       <use x="281.511719" xlink:href="#DejaVuSans-61"/>
       <use x="342.791016" xlink:href="#DejaVuSans-72"/>
       <use x="383.904297" xlink:href="#DejaVuSans-79"/>
      </g>
     </g>
    </g>
    <g id="xtick_3">
     <g id="line2d_3">
      <g>
       <use style="stroke:#000000;stroke-width:0.8;" x="443.895283" xlink:href="#mb90c09720b" y="768.96"/>
      </g>
     </g>
     <g id="text_3">
      <!-- March -->
      <g transform="translate(428.656221 783.558437)scale(0.1 -0.1)">
       <defs>
        <path d="M 628 4666 
L 1569 4666 
L 2759 1491 
L 3956 4666 
L 4897 4666 
L 4897 0 
L 4281 0 
L 4281 4097 
L 3078 897 
L 2444 897 
L 1241 4097 
L 1241 0 
L 628 0 
L 628 4666 
z
" id="DejaVuSans-4d" transform="scale(0.015625)"/>
        <path d="M 3122 3366 
L 3122 2828 
Q 2878 2963 2633 3030 
Q 2388 3097 2138 3097 
Q 1578 3097 1268 2742 
Q 959 2388 959 1747 
Q 959 1106 1268 751 
Q 1578 397 2138 397 
Q 2388 397 2633 464 
Q 2878 531 3122 666 
L 3122 134 
Q 2881 22 2623 -34 
Q 2366 -91 2075 -91 
Q 1284 -91 818 406 
Q 353 903 353 1747 
Q 353 2603 823 3093 
Q 1294 3584 2113 3584 
Q 2378 3584 2631 3529 
Q 2884 3475 3122 3366 
z
" id="DejaVuSans-63" transform="scale(0.015625)"/>
        <path d="M 3513 2113 
L 3513 0 
L 2938 0 
L 2938 2094 
Q 2938 2591 2744 2837 
Q 2550 3084 2163 3084 
Q 1697 3084 1428 2787 
Q 1159 2491 1159 1978 
L 1159 0 
L 581 0 
L 581 4863 
L 1159 4863 
L 1159 2956 
Q 1366 3272 1645 3428 
Q 1925 3584 2291 3584 
Q 2894 3584 3203 3211 
Q 3513 2838 3513 2113 
z
" id="DejaVuSans-68" transform="scale(0.015625)"/>
       </defs>
       <use xlink:href="#DejaVuSans-4d"/>
       <use x="86.279297" xlink:href="#DejaVuSans-61"/>
       <use x="147.558594" xlink:href="#DejaVuSans-72"/>
       <use x="186.421875" xlink:href="#DejaVuSans-63"/>
       <use x="241.402344" xlink:href="#DejaVuSans-68"/>
      </g>
     </g>
    </g>
    <g id="xtick_4">
     <g id="line2d_4">
      <g>
       <use style="stroke:#000000;stroke-width:0.8;" x="590.765094" xlink:href="#mb90c09720b" y="768.96"/>
      </g>
     </g>
     <g id="text_4">
      <!-- April -->
      <g transform="translate(579.336969 783.558437)scale(0.1 -0.1)">
       <defs>
        <path d="M 2188 4044 
L 1331 1722 
L 3047 1722 
L 2188 4044 
z
M 1831 4666 
L 2547 4666 
L 4325 0 
L 3669 0 
L 3244 1197 
L 1141 1197 
L 716 0 
L 50 0 
L 1831 4666 
z
" id="DejaVuSans-41" transform="scale(0.015625)"/>
        <path d="M 1159 525 
L 1159 -1331 
L 581 -1331 
L 581 3500 
L 1159 3500 
L 1159 2969 
Q 1341 3281 1617 3432 
Q 1894 3584 2278 3584 
Q 2916 3584 3314 3078 
Q 3713 2572 3713 1747 
Q 3713 922 3314 415 
Q 2916 -91 2278 -91 
Q 1894 -91 1617 61 
Q 1341 213 1159 525 
z
M 3116 1747 
Q 3116 2381 2855 2742 
Q 2594 3103 2138 3103 
Q 1681 3103 1420 2742 
Q 1159 2381 1159 1747 
Q 1159 1113 1420 752 
Q 1681 391 2138 391 
Q 2594 391 2855 752 
Q 3116 1113 3116 1747 
z
" id="DejaVuSans-70" transform="scale(0.015625)"/>
        <path d="M 603 3500 
L 1178 3500 
L 1178 0 
L 603 0 
L 603 3500 
z
M 603 4863 
L 1178 4863 
L 1178 4134 
L 603 4134 
L 603 4863 
z
" id="DejaVuSans-69" transform="scale(0.015625)"/>
        <path d="M 603 4863 
L 1178 4863 
L 1178 0 
L 603 0 
L 603 4863 
z
" id="DejaVuSans-6c" transform="scale(0.015625)"/>
       </defs>
       <use xlink:href="#DejaVuSans-41"/>
       <use x="68.408203" xlink:href="#DejaVuSans-70"/>
       <use x="131.884766" xlink:href="#DejaVuSans-72"/>
       <use x="172.998047" xlink:href="#DejaVuSans-69"/>
       <use x="200.78125" xlink:href="#DejaVuSans-6c"/>
      </g>
     </g>
    </g>
    <g id="xtick_5">
     <g id="line2d_5">
      <g>
       <use style="stroke:#000000;stroke-width:0.8;" x="732.89717" xlink:href="#mb90c09720b" y="768.96"/>
      </g>
     </g>
     <g id="text_5">
      <!-- May -->
      <g transform="translate(722.55967 783.558437)scale(0.1 -0.1)">
       <use xlink:href="#DejaVuSans-4d"/>
       <use x="86.279297" xlink:href="#DejaVuSans-61"/>
       <use x="147.558594" xlink:href="#DejaVuSans-79"/>
      </g>
     </g>
    </g>
    <g id="xtick_6">
     <g id="line2d_6">
      <g>
       <use style="stroke:#000000;stroke-width:0.8;" x="879.766981" xlink:href="#mb90c09720b" y="768.96"/>
      </g>
     </g>
     <g id="text_6">
      <!-- June -->
      <g transform="translate(868.877919 783.558437)scale(0.1 -0.1)">
       <use xlink:href="#DejaVuSans-4a"/>
       <use x="29.492188" xlink:href="#DejaVuSans-75"/>
       <use x="92.871094" xlink:href="#DejaVuSans-6e"/>
       <use x="156.25" xlink:href="#DejaVuSans-65"/>
      </g>
     </g>
    </g>
    <g id="xtick_7">
     <g id="line2d_7">
      <g>
       <use style="stroke:#000000;stroke-width:0.8;" x="1021.899057" xlink:href="#mb90c09720b" y="768.96"/>
      </g>
     </g>
     <g id="text_7">
      <!-- July -->
      <g transform="translate(1012.906869 783.558437)scale(0.1 -0.1)">
       <use xlink:href="#DejaVuSans-4a"/>
       <use x="29.492188" xlink:href="#DejaVuSans-75"/>
       <use x="92.871094" xlink:href="#DejaVuSans-6c"/>
       <use x="120.654297" xlink:href="#DejaVuSans-79"/>
      </g>
     </g>
    </g>
   </g>
   <g id="matplotlib.axis_2">
    <g id="ytick_1">
     <g id="line2d_8">
      <defs>
       <path d="M 0 0 
L -3.5 0 
" id="m23c518359d" style="stroke:#000000;stroke-width:0.8;"/>
      </defs>
      <g>
       <use style="stroke:#000000;stroke-width:0.8;" x="162" xlink:href="#m23c518359d" y="768.96"/>
      </g>
     </g>
     <g id="text_8">
      <!-- 0.0 -->
      <g transform="translate(139.096875 772.759219)scale(0.1 -0.1)">
       <defs>
        <path d="M 2034 4250 
Q 1547 4250 1301 3770 
Q 1056 3291 1056 2328 
Q 1056 1369 1301 889 
Q 1547 409 2034 409 
Q 2525 409 2770 889 
Q 3016 1369 3016 2328 
Q 3016 3291 2770 3770 
Q 2525 4250 2034 4250 
z
M 2034 4750 
Q 2819 4750 3233 4129 
Q 3647 3509 3647 2328 
Q 3647 1150 3233 529 
Q 2819 -91 2034 -91 
Q 1250 -91 836 529 
Q 422 1150 422 2328 
Q 422 3509 836 4129 
Q 1250 4750 2034 4750 
z
" id="DejaVuSans-30" transform="scale(0.015625)"/>
        <path d="M 684 794 
L 1344 794 
L 1344 0 
L 684 0 
L 684 794 
z
" id="DejaVuSans-2e" transform="scale(0.015625)"/>
       </defs>
       <use xlink:href="#DejaVuSans-30"/>
       <use x="63.623047" xlink:href="#DejaVuSans-2e"/>
       <use x="95.410156" xlink:href="#DejaVuSans-30"/>
      </g>
     </g>
    </g>
    <g id="ytick_2">
     <g id="line2d_9">
      <g>
       <use style="stroke:#000000;stroke-width:0.8;" x="162" xlink:href="#m23c518359d" y="678.573282"/>
      </g>
     </g>
     <g id="text_9">
      <!-- 0.2 -->
      <g transform="translate(139.096875 682.372501)scale(0.1 -0.1)">
       <defs>
        <path d="M 1228 531 
L 3431 531 
L 3431 0 
L 469 0 
L 469 531 
Q 828 903 1448 1529 
Q 2069 2156 2228 2338 
Q 2531 2678 2651 2914 
Q 2772 3150 2772 3378 
Q 2772 3750 2511 3984 
Q 2250 4219 1831 4219 
Q 1534 4219 1204 4116 
Q 875 4013 500 3803 
L 500 4441 
Q 881 4594 1212 4672 
Q 1544 4750 1819 4750 
Q 2544 4750 2975 4387 
Q 3406 4025 3406 3419 
Q 3406 3131 3298 2873 
Q 3191 2616 2906 2266 
Q 2828 2175 2409 1742 
Q 1991 1309 1228 531 
z
" id="DejaVuSans-32" transform="scale(0.015625)"/>
       </defs>
       <use xlink:href="#DejaVuSans-30"/>
       <use x="63.623047" xlink:href="#DejaVuSans-2e"/>
       <use x="95.410156" xlink:href="#DejaVuSans-32"/>
      </g>
     </g>
    </g>
    <g id="ytick_3">
     <g id="line2d_10">
      <g>
       <use style="stroke:#000000;stroke-width:0.8;" x="162" xlink:href="#m23c518359d" y="588.186564"/>
      </g>
     </g>
     <g id="text_10">
      <!-- 0.4 -->
      <g transform="translate(139.096875 591.985783)scale(0.1 -0.1)">
       <defs>
        <path d="M 2419 4116 
L 825 1625 
L 2419 1625 
L 2419 4116 
z
M 2253 4666 
L 3047 4666 
L 3047 1625 
L 3713 1625 
L 3713 1100 
L 3047 1100 
L 3047 0 
L 2419 0 
L 2419 1100 
L 313 1100 
L 313 1709 
L 2253 4666 
z
" id="DejaVuSans-34" transform="scale(0.015625)"/>
       </defs>
       <use xlink:href="#DejaVuSans-30"/>
       <use x="63.623047" xlink:href="#DejaVuSans-2e"/>
       <use x="95.410156" xlink:href="#DejaVuSans-34"/>
      </g>
     </g>
    </g>
    <g id="ytick_4">
     <g id="line2d_11">
      <g>
       <use style="stroke:#000000;stroke-width:0.8;" x="162" xlink:href="#m23c518359d" y="497.799847"/>
      </g>
     </g>
     <g id="text_11">
      <!-- 0.6 -->
      <g transform="translate(139.096875 501.599065)scale(0.1 -0.1)">
       <defs>
        <path d="M 2113 2584 
Q 1688 2584 1439 2293 
Q 1191 2003 1191 1497 
Q 1191 994 1439 701 
Q 1688 409 2113 409 
Q 2538 409 2786 701 
Q 3034 994 3034 1497 
Q 3034 2003 2786 2293 
Q 2538 2584 2113 2584 
z
M 3366 4563 
L 3366 3988 
Q 3128 4100 2886 4159 
Q 2644 4219 2406 4219 
Q 1781 4219 1451 3797 
Q 1122 3375 1075 2522 
Q 1259 2794 1537 2939 
Q 1816 3084 2150 3084 
Q 2853 3084 3261 2657 
Q 3669 2231 3669 1497 
Q 3669 778 3244 343 
Q 2819 -91 2113 -91 
Q 1303 -91 875 529 
Q 447 1150 447 2328 
Q 447 3434 972 4092 
Q 1497 4750 2381 4750 
Q 2619 4750 2861 4703 
Q 3103 4656 3366 4563 
z
" id="DejaVuSans-36" transform="scale(0.015625)"/>
       </defs>
       <use xlink:href="#DejaVuSans-30"/>
       <use x="63.623047" xlink:href="#DejaVuSans-2e"/>
       <use x="95.410156" xlink:href="#DejaVuSans-36"/>
      </g>
     </g>
    </g>
    <g id="ytick_5">
     <g id="line2d_12">
      <g>
       <use style="stroke:#000000;stroke-width:0.8;" x="162" xlink:href="#m23c518359d" y="407.413129"/>
      </g>
     </g>
     <g id="text_12">
      <!-- 0.8 -->
      <g transform="translate(139.096875 411.212348)scale(0.1 -0.1)">
       <defs>
        <path d="M 2034 2216 
Q 1584 2216 1326 1975 
Q 1069 1734 1069 1313 
Q 1069 891 1326 650 
Q 1584 409 2034 409 
Q 2484 409 2743 651 
Q 3003 894 3003 1313 
Q 3003 1734 2745 1975 
Q 2488 2216 2034 2216 
z
M 1403 2484 
Q 997 2584 770 2862 
Q 544 3141 544 3541 
Q 544 4100 942 4425 
Q 1341 4750 2034 4750 
Q 2731 4750 3128 4425 
Q 3525 4100 3525 3541 
Q 3525 3141 3298 2862 
Q 3072 2584 2669 2484 
Q 3125 2378 3379 2068 
Q 3634 1759 3634 1313 
Q 3634 634 3220 271 
Q 2806 -91 2034 -91 
Q 1263 -91 848 271 
Q 434 634 434 1313 
Q 434 1759 690 2068 
Q 947 2378 1403 2484 
z
M 1172 3481 
Q 1172 3119 1398 2916 
Q 1625 2713 2034 2713 
Q 2441 2713 2670 2916 
Q 2900 3119 2900 3481 
Q 2900 3844 2670 4047 
Q 2441 4250 2034 4250 
Q 1625 4250 1398 4047 
Q 1172 3844 1172 3481 
z
" id="DejaVuSans-38" transform="scale(0.015625)"/>
       </defs>
       <use xlink:href="#DejaVuSans-30"/>
       <use x="63.623047" xlink:href="#DejaVuSans-2e"/>
       <use x="95.410156" xlink:href="#DejaVuSans-38"/>
      </g>
     </g>
    </g>
    <g id="ytick_6">
     <g id="line2d_13">
      <g>
       <use style="stroke:#000000;stroke-width:0.8;" x="162" xlink:href="#m23c518359d" y="317.026411"/>
      </g>
     </g>
     <g id="text_13">
      <!-- 1.0 -->
      <g transform="translate(139.096875 320.82563)scale(0.1 -0.1)">
       <defs>
        <path d="M 794 531 
L 1825 531 
L 1825 4091 
L 703 3866 
L 703 4441 
L 1819 4666 
L 2450 4666 
L 2450 531 
L 3481 531 
L 3481 0 
L 794 0 
L 794 531 
z
" id="DejaVuSans-31" transform="scale(0.015625)"/>
       </defs>
       <use xlink:href="#DejaVuSans-31"/>
       <use x="63.623047" xlink:href="#DejaVuSans-2e"/>
       <use x="95.410156" xlink:href="#DejaVuSans-30"/>
      </g>
     </g>
    </g>
    <g id="ytick_7">
     <g id="line2d_14">
      <g>
       <use style="stroke:#000000;stroke-width:0.8;" x="162" xlink:href="#m23c518359d" y="226.639693"/>
      </g>
     </g>
     <g id="text_14">
      <!-- 1.2 -->
      <g transform="translate(139.096875 230.438912)scale(0.1 -0.1)">
       <use xlink:href="#DejaVuSans-31"/>
       <use x="63.623047" xlink:href="#DejaVuSans-2e"/>
       <use x="95.410156" xlink:href="#DejaVuSans-32"/>
      </g>
     </g>
    </g>
    <g id="ytick_8">
     <g id="line2d_15">
      <g>
       <use style="stroke:#000000;stroke-width:0.8;" x="162" xlink:href="#m23c518359d" y="136.252976"/>
      </g>
     </g>
     <g id="text_15">
      <!-- 1.4 -->
      <g transform="translate(139.096875 140.052194)scale(0.1 -0.1)">
       <use xlink:href="#DejaVuSans-31"/>
       <use x="63.623047" xlink:href="#DejaVuSans-2e"/>
       <use x="95.410156" xlink:href="#DejaVuSans-34"/>
      </g>
     </g>
    </g>
    <g id="text_16">
     <!-- Persons fully vaccinated (tens of millions) -->
     <g transform="translate(133.017188 540.480156)rotate(-90)scale(0.1 -0.1)">
      <defs>
       <path d="M 1259 4147 
L 1259 2394 
L 2053 2394 
Q 2494 2394 2734 2622 
Q 2975 2850 2975 3272 
Q 2975 3691 2734 3919 
Q 2494 4147 2053 4147 
L 1259 4147 
z
M 628 4666 
L 2053 4666 
Q 2838 4666 3239 4311 
Q 3641 3956 3641 3272 
Q 3641 2581 3239 2228 
Q 2838 1875 2053 1875 
L 1259 1875 
L 1259 0 
L 628 0 
L 628 4666 
z
" id="DejaVuSans-50" transform="scale(0.015625)"/>
       <path d="M 2834 3397 
L 2834 2853 
Q 2591 2978 2328 3040 
Q 2066 3103 1784 3103 
Q 1356 3103 1142 2972 
Q 928 2841 928 2578 
Q 928 2378 1081 2264 
Q 1234 2150 1697 2047 
L 1894 2003 
Q 2506 1872 2764 1633 
Q 3022 1394 3022 966 
Q 3022 478 2636 193 
Q 2250 -91 1575 -91 
Q 1294 -91 989 -36 
Q 684 19 347 128 
L 347 722 
Q 666 556 975 473 
Q 1284 391 1588 391 
Q 1994 391 2212 530 
Q 2431 669 2431 922 
Q 2431 1156 2273 1281 
Q 2116 1406 1581 1522 
L 1381 1569 
Q 847 1681 609 1914 
Q 372 2147 372 2553 
Q 372 3047 722 3315 
Q 1072 3584 1716 3584 
Q 2034 3584 2315 3537 
Q 2597 3491 2834 3397 
z
" id="DejaVuSans-73" transform="scale(0.015625)"/>
       <path d="M 1959 3097 
Q 1497 3097 1228 2736 
Q 959 2375 959 1747 
Q 959 1119 1226 758 
Q 1494 397 1959 397 
Q 2419 397 2687 759 
Q 2956 1122 2956 1747 
Q 2956 2369 2687 2733 
Q 2419 3097 1959 3097 
z
M 1959 3584 
Q 2709 3584 3137 3096 
Q 3566 2609 3566 1747 
Q 3566 888 3137 398 
Q 2709 -91 1959 -91 
Q 1206 -91 779 398 
Q 353 888 353 1747 
Q 353 2609 779 3096 
Q 1206 3584 1959 3584 
z
" id="DejaVuSans-6f" transform="scale(0.015625)"/>
       <path id="DejaVuSans-20" transform="scale(0.015625)"/>
       <path d="M 2375 4863 
L 2375 4384 
L 1825 4384 
Q 1516 4384 1395 4259 
Q 1275 4134 1275 3809 
L 1275 3500 
L 2222 3500 
L 2222 3053 
L 1275 3053 
L 1275 0 
L 697 0 
L 697 3053 
L 147 3053 
L 147 3500 
L 697 3500 
L 697 3744 
Q 697 4328 969 4595 
Q 1241 4863 1831 4863 
L 2375 4863 
z
" id="DejaVuSans-66" transform="scale(0.015625)"/>
       <path d="M 191 3500 
L 800 3500 
L 1894 563 
L 2988 3500 
L 3597 3500 
L 2284 0 
L 1503 0 
L 191 3500 
z
" id="DejaVuSans-76" transform="scale(0.015625)"/>
       <path d="M 1172 4494 
L 1172 3500 
L 2356 3500 
L 2356 3053 
L 1172 3053 
L 1172 1153 
Q 1172 725 1289 603 
Q 1406 481 1766 481 
L 2356 481 
L 2356 0 
L 1766 0 
Q 1100 0 847 248 
Q 594 497 594 1153 
L 594 3053 
L 172 3053 
L 172 3500 
L 594 3500 
L 594 4494 
L 1172 4494 
z
" id="DejaVuSans-74" transform="scale(0.015625)"/>
       <path d="M 2906 2969 
L 2906 4863 
L 3481 4863 
L 3481 0 
L 2906 0 
L 2906 525 
Q 2725 213 2448 61 
Q 2172 -91 1784 -91 
Q 1150 -91 751 415 
Q 353 922 353 1747 
Q 353 2572 751 3078 
Q 1150 3584 1784 3584 
Q 2172 3584 2448 3432 
Q 2725 3281 2906 2969 
z
M 947 1747 
Q 947 1113 1208 752 
Q 1469 391 1925 391 
Q 2381 391 2643 752 
Q 2906 1113 2906 1747 
Q 2906 2381 2643 2742 
Q 2381 3103 1925 3103 
Q 1469 3103 1208 2742 
Q 947 2381 947 1747 
z
" id="DejaVuSans-64" transform="scale(0.015625)"/>
       <path d="M 1984 4856 
Q 1566 4138 1362 3434 
Q 1159 2731 1159 2009 
Q 1159 1288 1364 580 
Q 1569 -128 1984 -844 
L 1484 -844 
Q 1016 -109 783 600 
Q 550 1309 550 2009 
Q 550 2706 781 3412 
Q 1013 4119 1484 4856 
L 1984 4856 
z
" id="DejaVuSans-28" transform="scale(0.015625)"/>
       <path d="M 3328 2828 
Q 3544 3216 3844 3400 
Q 4144 3584 4550 3584 
Q 5097 3584 5394 3201 
Q 5691 2819 5691 2113 
L 5691 0 
L 5113 0 
L 5113 2094 
Q 5113 2597 4934 2840 
Q 4756 3084 4391 3084 
Q 3944 3084 3684 2787 
Q 3425 2491 3425 1978 
L 3425 0 
L 2847 0 
L 2847 2094 
Q 2847 2600 2669 2842 
Q 2491 3084 2119 3084 
Q 1678 3084 1418 2786 
Q 1159 2488 1159 1978 
L 1159 0 
L 581 0 
L 581 3500 
L 1159 3500 
L 1159 2956 
Q 1356 3278 1631 3431 
Q 1906 3584 2284 3584 
Q 2666 3584 2933 3390 
Q 3200 3197 3328 2828 
z
" id="DejaVuSans-6d" transform="scale(0.015625)"/>
       <path d="M 513 4856 
L 1013 4856 
Q 1481 4119 1714 3412 
Q 1947 2706 1947 2009 
Q 1947 1309 1714 600 
Q 1481 -109 1013 -844 
L 513 -844 
Q 928 -128 1133 580 
Q 1338 1288 1338 2009 
Q 1338 2731 1133 3434 
Q 928 4138 513 4856 
z
" id="DejaVuSans-29" transform="scale(0.015625)"/>
      </defs>
      <use xlink:href="#DejaVuSans-50"/>
      <use x="56.677734" xlink:href="#DejaVuSans-65"/>
      <use x="118.201172" xlink:href="#DejaVuSans-72"/>
      <use x="159.314453" xlink:href="#DejaVuSans-73"/>
      <use x="211.414062" xlink:href="#DejaVuSans-6f"/>
      <use x="272.595703" xlink:href="#DejaVuSans-6e"/>
      <use x="335.974609" xlink:href="#DejaVuSans-73"/>
      <use x="388.074219" xlink:href="#DejaVuSans-20"/>
      <use x="419.861328" xlink:href="#DejaVuSans-66"/>
      <use x="455.066406" xlink:href="#DejaVuSans-75"/>
      <use x="518.445312" xlink:href="#DejaVuSans-6c"/>
      <use x="546.228516" xlink:href="#DejaVuSans-6c"/>
      <use x="574.011719" xlink:href="#DejaVuSans-79"/>
      <use x="633.191406" xlink:href="#DejaVuSans-20"/>
      <use x="664.978516" xlink:href="#DejaVuSans-76"/>
      <use x="724.158203" xlink:href="#DejaVuSans-61"/>
      <use x="785.4375" xlink:href="#DejaVuSans-63"/>
      <use x="840.417969" xlink:href="#DejaVuSans-63"/>
      <use x="895.398438" xlink:href="#DejaVuSans-69"/>
      <use x="923.181641" xlink:href="#DejaVuSans-6e"/>
      <use x="986.560547" xlink:href="#DejaVuSans-61"/>
      <use x="1047.839844" xlink:href="#DejaVuSans-74"/>
      <use x="1087.048828" xlink:href="#DejaVuSans-65"/>
      <use x="1148.572266" xlink:href="#DejaVuSans-64"/>
      <use x="1212.048828" xlink:href="#DejaVuSans-20"/>
      <use x="1243.835938" xlink:href="#DejaVuSans-28"/>
      <use x="1282.849609" xlink:href="#DejaVuSans-74"/>
      <use x="1322.058594" xlink:href="#DejaVuSans-65"/>
      <use x="1383.582031" xlink:href="#DejaVuSans-6e"/>
      <use x="1446.960938" xlink:href="#DejaVuSans-73"/>
      <use x="1499.060547" xlink:href="#DejaVuSans-20"/>
      <use x="1530.847656" xlink:href="#DejaVuSans-6f"/>
      <use x="1592.029297" xlink:href="#DejaVuSans-66"/>
      <use x="1627.234375" xlink:href="#DejaVuSans-20"/>
      <use x="1659.021484" xlink:href="#DejaVuSans-6d"/>
      <use x="1756.433594" xlink:href="#DejaVuSans-69"/>
      <use x="1784.216797" xlink:href="#DejaVuSans-6c"/>
      <use x="1812" xlink:href="#DejaVuSans-6c"/>
      <use x="1839.783203" xlink:href="#DejaVuSans-69"/>
      <use x="1867.566406" xlink:href="#DejaVuSans-6f"/>
      <use x="1928.748047" xlink:href="#DejaVuSans-6e"/>
      <use x="1992.126953" xlink:href="#DejaVuSans-73"/>
      <use x="2044.226562" xlink:href="#DejaVuSans-29"/>
     </g>
    </g>
    <g id="text_17">
     <!-- 1e7 -->
     <g transform="translate(162 100.68)scale(0.1 -0.1)">
      <defs>
       <path d="M 525 4666 
L 3525 4666 
L 3525 4397 
L 1831 0 
L 1172 0 
L 2766 4134 
L 525 4134 
L 525 4666 
z
" id="DejaVuSans-37" transform="scale(0.015625)"/>
      </defs>
      <use xlink:href="#DejaVuSans-31"/>
      <use x="63.623047" xlink:href="#DejaVuSans-65"/>
      <use x="125.146484" xlink:href="#DejaVuSans-37"/>
     </g>
    </g>
   </g>
   <g id="patch_215">
    <path d="M 162 768.96 
L 162 103.68 
" style="fill:none;stroke:#000000;stroke-linecap:square;stroke-linejoin:miter;stroke-width:0.8;"/>
   </g>
   <g id="patch_216">
    <path d="M 1166.4 768.96 
L 1166.4 103.68 
" style="fill:none;stroke:#000000;stroke-linecap:square;stroke-linejoin:miter;stroke-width:0.8;"/>
   </g>
   <g id="patch_217">
    <path d="M 162 768.96 
L 1166.4 768.96 
" style="fill:none;stroke:#000000;stroke-linecap:square;stroke-linejoin:miter;stroke-width:0.8;"/>
   </g>
   <g id="patch_218">
    <path d="M 162 103.68 
L 1166.4 103.68 
" style="fill:none;stroke:#000000;stroke-linecap:square;stroke-linejoin:miter;stroke-width:0.8;"/>
   </g>
   <g id="text_18">
    <!-- Persons Fully Vaccinated -->
    <g transform="translate(590.380313 97.68)scale(0.12 -0.12)">
     <defs>
      <path d="M 1831 0 
L 50 4666 
L 709 4666 
L 2188 738 
L 3669 4666 
L 4325 4666 
L 2547 0 
L 1831 0 
z
" id="DejaVuSans-56" transform="scale(0.015625)"/>
     </defs>
     <use xlink:href="#DejaVuSans-50"/>
     <use x="56.677734" xlink:href="#DejaVuSans-65"/>
     <use x="118.201172" xlink:href="#DejaVuSans-72"/>
     <use x="159.314453" xlink:href="#DejaVuSans-73"/>
     <use x="211.414062" xlink:href="#DejaVuSans-6f"/>
     <use x="272.595703" xlink:href="#DejaVuSans-6e"/>
     <use x="335.974609" xlink:href="#DejaVuSans-73"/>
     <use x="388.074219" xlink:href="#DejaVuSans-20"/>
     <use x="419.861328" xlink:href="#DejaVuSans-46"/>
     <use x="471.880859" xlink:href="#DejaVuSans-75"/>
     <use x="535.259766" xlink:href="#DejaVuSans-6c"/>
     <use x="563.042969" xlink:href="#DejaVuSans-6c"/>
     <use x="590.826172" xlink:href="#DejaVuSans-79"/>
     <use x="650.005859" xlink:href="#DejaVuSans-20"/>
     <use x="681.792969" xlink:href="#DejaVuSans-56"/>
     <use x="742.451172" xlink:href="#DejaVuSans-61"/>
     <use x="803.730469" xlink:href="#DejaVuSans-63"/>
     <use x="858.710938" xlink:href="#DejaVuSans-63"/>
     <use x="913.691406" xlink:href="#DejaVuSans-69"/>
     <use x="941.474609" xlink:href="#DejaVuSans-6e"/>
     <use x="1004.853516" xlink:href="#DejaVuSans-61"/>
     <use x="1066.132812" xlink:href="#DejaVuSans-74"/>
     <use x="1105.341797" xlink:href="#DejaVuSans-65"/>
     <use x="1166.865234" xlink:href="#DejaVuSans-64"/>
    </g>
   </g>
  </g>
 </g>
 <defs>
  <clipPath id="pfcd3021f95">
   <rect height="665.28" width="1004.4" x="162" y="103.68"/>
  </clipPath>
 </defs>
</svg>
