<?xml version="1.0" encoding="utf-8" standalone="no"?>
<!DOCTYPE svg PUBLIC "-//W3C//DTD SVG 1.1//EN"
  "http://www.w3.org/Graphics/SVG/1.1/DTD/svg11.dtd">
<svg height="864pt" version="1.1" viewBox="0 0 1296 864" width="1296pt" xmlns="http://www.w3.org/2000/svg" xmlns:xlink="http://www.w3.org/1999/xlink">
 <metadata>
  <rdf:RDF xmlns:cc="http://creativecommons.org/ns#" xmlns:dc="http://purl.org/dc/elements/1.1/" xmlns:rdf="http://www.w3.org/1999/02/22-rdf-syntax-ns#">
   <cc:Work>
    <dc:type rdf:resource="http://purl.org/dc/dcmitype/StillImage"/>
    <dc:date>2021-10-15T04:23:52.177835</dc:date>
    <dc:format>image/svg+xml</dc:format>
    <dc:creator>
     <cc:Agent>
      <dc:title>Matplotlib v3.4.2, https://matplotlib.org/</dc:title>
     </cc:Agent>
    </dc:creator>
   </cc:Work>
  </rdf:RDF>
 </metadata>
 <defs>
  <style type="text/css">*{stroke-linecap:butt;stroke-linejoin:round;}</style>
 </defs>
 <g id="figure_1">
  <g id="patch_1">
   <path d="M 0 864 
L 1296 864 
L 1296 0 
L 0 0 
z
" style="fill:#ffffff;"/>
  </g>
  <g id="axes_1">
   <g id="patch_2">
    <path d="M 162 768.96 
L 1166.4 768.96 
L 1166.4 103.68 
L 162 103.68 
z
" style="fill:#ffffff;"/>
   </g>
   <g id="patch_3">
    <path clip-path="url(#pb17bde892e)" d="M 162.877972 768.96 
L 164.633916 768.96 
L 164.633916 768.948341 
L 162.877972 768.948341 
z
" style="fill:#1f77b4;"/>
   </g>
   <g id="patch_4">
    <path clip-path="url(#pb17bde892e)" d="M 166.38986 768.96 
L 168.145804 768.96 
L 168.145804 768.96 
L 166.38986 768.96 
z
" style="fill:#1f77b4;"/>
   </g>
   <g id="patch_5">
    <path clip-path="url(#pb17bde892e)" d="M 169.901748 768.96 
L 171.657692 768.96 
L 171.657692 768.96 
L 169.901748 768.96 
z
" style="fill:#1f77b4;"/>
   </g>
   <g id="patch_6">
    <path clip-path="url(#pb17bde892e)" d="M 173.413636 768.96 
L 175.16958 768.96 
L 175.16958 768.219677 
L 173.413636 768.219677 
z
" style="fill:#1f77b4;"/>
   </g>
   <g id="patch_7">
    <path clip-path="url(#pb17bde892e)" d="M 176.925524 768.96 
L 178.681469 768.96 
L 178.681469 766.978033 
L 176.925524 766.978033 
z
" style="fill:#1f77b4;"/>
   </g>
   <g id="patch_8">
    <path clip-path="url(#pb17bde892e)" d="M 180.437413 768.96 
L 182.193357 768.96 
L 182.193357 754.89969 
L 180.437413 754.89969 
z
" style="fill:#1f77b4;"/>
   </g>
   <g id="patch_9">
    <path clip-path="url(#pb17bde892e)" d="M 183.949301 768.96 
L 185.705245 768.96 
L 185.705245 667.518245 
L 183.949301 667.518245 
z
" style="fill:#1f77b4;"/>
   </g>
   <g id="patch_10">
    <path clip-path="url(#pb17bde892e)" d="M 187.461189 768.96 
L 189.217133 768.96 
L 189.217133 646.701758 
L 187.461189 646.701758 
z
" style="fill:#1f77b4;"/>
   </g>
   <g id="patch_11">
    <path clip-path="url(#pb17bde892e)" d="M 190.973077 768.96 
L 192.729021 768.96 
L 192.729021 702.208504 
L 190.973077 702.208504 
z
" style="fill:#1f77b4;"/>
   </g>
   <g id="patch_12">
    <path clip-path="url(#pb17bde892e)" d="M 194.484965 768.96 
L 196.240909 768.96 
L 196.240909 728.481231 
L 194.484965 728.481231 
z
" style="fill:#1f77b4;"/>
   </g>
   <g id="patch_13">
    <path clip-path="url(#pb17bde892e)" d="M 197.996853 768.96 
L 199.752797 768.96 
L 199.752797 705.694435 
L 197.996853 705.694435 
z
" style="fill:#1f77b4;"/>
   </g>
   <g id="patch_14">
    <path clip-path="url(#pb17bde892e)" d="M 201.508741 768.96 
L 203.264685 768.96 
L 203.264685 708.778143 
L 201.508741 708.778143 
z
" style="fill:#1f77b4;"/>
   </g>
   <g id="patch_15">
    <path clip-path="url(#pb17bde892e)" d="M 205.020629 768.96 
L 206.776573 768.96 
L 206.776573 719.70811 
L 205.020629 719.70811 
z
" style="fill:#1f77b4;"/>
   </g>
   <g id="patch_16">
    <path clip-path="url(#pb17bde892e)" d="M 208.532517 768.96 
L 210.288462 768.96 
L 210.288462 708.894729 
L 208.532517 708.894729 
z
" style="fill:#1f77b4;"/>
   </g>
   <g id="patch_17">
    <path clip-path="url(#pb17bde892e)" d="M 212.044406 768.96 
L 213.80035 768.96 
L 213.80035 756.660144 
L 212.044406 756.660144 
z
" style="fill:#1f77b4;"/>
   </g>
   <g id="patch_18">
    <path clip-path="url(#pb17bde892e)" d="M 215.556294 768.96 
L 217.312238 768.96 
L 217.312238 761.300279 
L 215.556294 761.300279 
z
" style="fill:#1f77b4;"/>
   </g>
   <g id="patch_19">
    <path clip-path="url(#pb17bde892e)" d="M 219.068182 768.96 
L 220.824126 768.96 
L 220.824126 765.310848 
L 219.068182 765.310848 
z
" style="fill:#1f77b4;"/>
   </g>
   <g id="patch_20">
    <path clip-path="url(#pb17bde892e)" d="M 222.58007 768.96 
L 224.336014 768.96 
L 224.336014 752.224034 
L 222.58007 752.224034 
z
" style="fill:#1f77b4;"/>
   </g>
   <g id="patch_21">
    <path clip-path="url(#pb17bde892e)" d="M 226.091958 768.96 
L 227.847902 768.96 
L 227.847902 741.783729 
L 226.091958 741.783729 
z
" style="fill:#1f77b4;"/>
   </g>
   <g id="patch_22">
    <path clip-path="url(#pb17bde892e)" d="M 229.603846 768.96 
L 231.35979 768.96 
L 231.35979 718.140024 
L 229.603846 718.140024 
z
" style="fill:#1f77b4;"/>
   </g>
   <g id="patch_23">
    <path clip-path="url(#pb17bde892e)" d="M 233.115734 768.96 
L 234.871678 768.96 
L 234.871678 717.702826 
L 233.115734 717.702826 
z
" style="fill:#1f77b4;"/>
   </g>
   <g id="patch_24">
    <path clip-path="url(#pb17bde892e)" d="M 236.627622 768.96 
L 238.383566 768.96 
L 238.383566 731.972991 
L 236.627622 731.972991 
z
" style="fill:#1f77b4;"/>
   </g>
   <g id="patch_25">
    <path clip-path="url(#pb17bde892e)" d="M 240.13951 768.96 
L 241.895455 768.96 
L 241.895455 755.051252 
L 240.13951 755.051252 
z
" style="fill:#1f77b4;"/>
   </g>
   <g id="patch_26">
    <path clip-path="url(#pb17bde892e)" d="M 243.651399 768.96 
L 245.407343 768.96 
L 245.407343 750.55102 
L 243.651399 750.55102 
z
" style="fill:#1f77b4;"/>
   </g>
   <g id="patch_27">
    <path clip-path="url(#pb17bde892e)" d="M 247.163287 768.96 
L 248.919231 768.96 
L 248.919231 721.043024 
L 247.163287 721.043024 
z
" style="fill:#1f77b4;"/>
   </g>
   <g id="patch_28">
    <path clip-path="url(#pb17bde892e)" d="M 250.675175 768.96 
L 252.431119 768.96 
L 252.431119 685.490026 
L 250.675175 685.490026 
z
" style="fill:#1f77b4;"/>
   </g>
   <g id="patch_29">
    <path clip-path="url(#pb17bde892e)" d="M 254.187063 768.96 
L 255.943007 768.96 
L 255.943007 657.84741 
L 254.187063 657.84741 
z
" style="fill:#1f77b4;"/>
   </g>
   <g id="patch_30">
    <path clip-path="url(#pb17bde892e)" d="M 257.698951 768.96 
L 259.454895 768.96 
L 259.454895 672.922021 
L 257.698951 672.922021 
z
" style="fill:#1f77b4;"/>
   </g>
   <g id="patch_31">
    <path clip-path="url(#pb17bde892e)" d="M 261.210839 768.96 
L 262.966783 768.96 
L 262.966783 684.77302 
L 261.210839 684.77302 
z
" style="fill:#1f77b4;"/>
   </g>
   <g id="patch_32">
    <path clip-path="url(#pb17bde892e)" d="M 264.722727 768.96 
L 266.478671 768.96 
L 266.478671 722.739355 
L 264.722727 722.739355 
z
" style="fill:#1f77b4;"/>
   </g>
   <g id="patch_33">
    <path clip-path="url(#pb17bde892e)" d="M 268.234615 768.96 
L 269.990559 768.96 
L 269.990559 743.171107 
L 268.234615 743.171107 
z
" style="fill:#1f77b4;"/>
   </g>
   <g id="patch_34">
    <path clip-path="url(#pb17bde892e)" d="M 271.746503 768.96 
L 273.502448 768.96 
L 273.502448 721.521027 
L 271.746503 721.521027 
z
" style="fill:#1f77b4;"/>
   </g>
   <g id="patch_35">
    <path clip-path="url(#pb17bde892e)" d="M 275.258392 768.96 
L 277.014336 768.96 
L 277.014336 667.920468 
L 275.258392 667.920468 
z
" style="fill:#1f77b4;"/>
   </g>
   <g id="patch_36">
    <path clip-path="url(#pb17bde892e)" d="M 278.77028 768.96 
L 280.526224 768.96 
L 280.526224 693.796801 
L 278.77028 693.796801 
z
" style="fill:#1f77b4;"/>
   </g>
   <g id="patch_37">
    <path clip-path="url(#pb17bde892e)" d="M 282.282168 768.96 
L 284.038112 768.96 
L 284.038112 671.575449 
L 282.282168 671.575449 
z
" style="fill:#1f77b4;"/>
   </g>
   <g id="patch_38">
    <path clip-path="url(#pb17bde892e)" d="M 285.794056 768.96 
L 287.55 768.96 
L 287.55 688.77776 
L 285.794056 688.77776 
z
" style="fill:#1f77b4;"/>
   </g>
   <g id="patch_39">
    <path clip-path="url(#pb17bde892e)" d="M 289.305944 768.96 
L 291.061888 768.96 
L 291.061888 700.424733 
L 289.305944 700.424733 
z
" style="fill:#1f77b4;"/>
   </g>
   <g id="patch_40">
    <path clip-path="url(#pb17bde892e)" d="M 292.817832 768.96 
L 294.573776 768.96 
L 294.573776 745.730176 
L 292.817832 745.730176 
z
" style="fill:#1f77b4;"/>
   </g>
   <g id="patch_41">
    <path clip-path="url(#pb17bde892e)" d="M 296.32972 768.96 
L 298.085664 768.96 
L 298.085664 692.456059 
L 296.32972 692.456059 
z
" style="fill:#1f77b4;"/>
   </g>
   <g id="patch_42">
    <path clip-path="url(#pb17bde892e)" d="M 299.841608 768.96 
L 301.597552 768.96 
L 301.597552 673.073583 
L 299.841608 673.073583 
z
" style="fill:#1f77b4;"/>
   </g>
   <g id="patch_43">
    <path clip-path="url(#pb17bde892e)" d="M 303.353497 768.96 
L 305.109441 768.96 
L 305.109441 653.003249 
L 303.353497 653.003249 
z
" style="fill:#1f77b4;"/>
   </g>
   <g id="patch_44">
    <path clip-path="url(#pb17bde892e)" d="M 306.865385 768.96 
L 308.621329 768.96 
L 308.621329 602.946913 
L 306.865385 602.946913 
z
" style="fill:#1f77b4;"/>
   </g>
   <g id="patch_45">
    <path clip-path="url(#pb17bde892e)" d="M 310.377273 768.96 
L 312.133217 768.96 
L 312.133217 625.016703 
L 310.377273 625.016703 
z
" style="fill:#1f77b4;"/>
   </g>
   <g id="patch_46">
    <path clip-path="url(#pb17bde892e)" d="M 313.889161 768.96 
L 315.645105 768.96 
L 315.645105 679.509148 
L 313.889161 679.509148 
z
" style="fill:#1f77b4;"/>
   </g>
   <g id="patch_47">
    <path clip-path="url(#pb17bde892e)" d="M 317.401049 768.96 
L 319.156993 768.96 
L 319.156993 720.599996 
L 317.401049 720.599996 
z
" style="fill:#1f77b4;"/>
   </g>
   <g id="patch_48">
    <path clip-path="url(#pb17bde892e)" d="M 320.912937 768.96 
L 322.668881 768.96 
L 322.668881 721.089658 
L 320.912937 721.089658 
z
" style="fill:#1f77b4;"/>
   </g>
   <g id="patch_49">
    <path clip-path="url(#pb17bde892e)" d="M 324.424825 768.96 
L 326.180769 768.96 
L 326.180769 679.421708 
L 324.424825 679.421708 
z
" style="fill:#1f77b4;"/>
   </g>
   <g id="patch_50">
    <path clip-path="url(#pb17bde892e)" d="M 327.936713 768.96 
L 329.692657 768.96 
L 329.692657 619.414731 
L 327.936713 619.414731 
z
" style="fill:#1f77b4;"/>
   </g>
   <g id="patch_51">
    <path clip-path="url(#pb17bde892e)" d="M 331.448601 768.96 
L 333.204545 768.96 
L 333.204545 575.828936 
L 331.448601 575.828936 
z
" style="fill:#1f77b4;"/>
   </g>
   <g id="patch_52">
    <path clip-path="url(#pb17bde892e)" d="M 334.96049 768.96 
L 336.716434 768.96 
L 336.716434 583.966661 
L 334.96049 583.966661 
z
" style="fill:#1f77b4;"/>
   </g>
   <g id="patch_53">
    <path clip-path="url(#pb17bde892e)" d="M 338.472378 768.96 
L 340.228322 768.96 
L 340.228322 740.559573 
L 338.472378 740.559573 
z
" style="fill:#1f77b4;"/>
   </g>
   <g id="patch_54">
    <path clip-path="url(#pb17bde892e)" d="M 341.984266 768.96 
L 343.74021 768.96 
L 343.74021 631.965248 
L 341.984266 631.965248 
z
" style="fill:#1f77b4;"/>
   </g>
   <g id="patch_55">
    <path clip-path="url(#pb17bde892e)" d="M 345.496154 768.96 
L 347.252098 768.96 
L 347.252098 662.464228 
L 345.496154 662.464228 
z
" style="fill:#1f77b4;"/>
   </g>
   <g id="patch_56">
    <path clip-path="url(#pb17bde892e)" d="M 349.008042 768.96 
L 350.763986 768.96 
L 350.763986 610.455072 
L 349.008042 610.455072 
z
" style="fill:#1f77b4;"/>
   </g>
   <g id="patch_57">
    <path clip-path="url(#pb17bde892e)" d="M 352.51993 768.96 
L 354.275874 768.96 
L 354.275874 463.206554 
L 352.51993 463.206554 
z
" style="fill:#1f77b4;"/>
   </g>
   <g id="patch_58">
    <path clip-path="url(#pb17bde892e)" d="M 356.031818 768.96 
L 357.787762 768.96 
L 357.787762 459.40584 
L 356.031818 459.40584 
z
" style="fill:#1f77b4;"/>
   </g>
   <g id="patch_59">
    <path clip-path="url(#pb17bde892e)" d="M 359.543706 768.96 
L 361.29965 768.96 
L 361.29965 496.754266 
L 359.543706 496.754266 
z
" style="fill:#1f77b4;"/>
   </g>
   <g id="patch_60">
    <path clip-path="url(#pb17bde892e)" d="M 363.055594 768.96 
L 364.811538 768.96 
L 364.811538 530.197051 
L 363.055594 530.197051 
z
" style="fill:#1f77b4;"/>
   </g>
   <g id="patch_61">
    <path clip-path="url(#pb17bde892e)" d="M 366.567483 768.96 
L 368.323427 768.96 
L 368.323427 653.836841 
L 366.567483 653.836841 
z
" style="fill:#1f77b4;"/>
   </g>
   <g id="patch_62">
    <path clip-path="url(#pb17bde892e)" d="M 370.079371 768.96 
L 371.835315 768.96 
L 371.835315 596.785327 
L 370.079371 596.785327 
z
" style="fill:#1f77b4;"/>
   </g>
   <g id="patch_63">
    <path clip-path="url(#pb17bde892e)" d="M 373.591259 768.96 
L 375.347203 768.96 
L 375.347203 539.786276 
L 373.591259 539.786276 
z
" style="fill:#1f77b4;"/>
   </g>
   <g id="patch_64">
    <path clip-path="url(#pb17bde892e)" d="M 377.103147 768.96 
L 378.859091 768.96 
L 378.859091 503.731957 
L 377.103147 503.731957 
z
" style="fill:#1f77b4;"/>
   </g>
   <g id="patch_65">
    <path clip-path="url(#pb17bde892e)" d="M 380.615035 768.96 
L 382.370979 768.96 
L 382.370979 379.998899 
L 380.615035 379.998899 
z
" style="fill:#1f77b4;"/>
   </g>
   <g id="patch_66">
    <path clip-path="url(#pb17bde892e)" d="M 384.126923 768.96 
L 385.882867 768.96 
L 385.882867 397.03216 
L 384.126923 397.03216 
z
" style="fill:#1f77b4;"/>
   </g>
   <g id="patch_67">
    <path clip-path="url(#pb17bde892e)" d="M 387.638811 768.96 
L 389.394755 768.96 
L 389.394755 491.01822 
L 387.638811 491.01822 
z
" style="fill:#1f77b4;"/>
   </g>
   <g id="patch_68">
    <path clip-path="url(#pb17bde892e)" d="M 391.150699 768.96 
L 392.906643 768.96 
L 392.906643 681.53775 
L 391.150699 681.53775 
z
" style="fill:#1f77b4;"/>
   </g>
   <g id="patch_69">
    <path clip-path="url(#pb17bde892e)" d="M 394.662587 768.96 
L 396.418531 768.96 
L 396.418531 528.063522 
L 394.662587 528.063522 
z
" style="fill:#1f77b4;"/>
   </g>
   <g id="patch_70">
    <path clip-path="url(#pb17bde892e)" d="M 398.174476 768.96 
L 399.93042 768.96 
L 399.93042 460.198627 
L 398.174476 460.198627 
z
" style="fill:#1f77b4;"/>
   </g>
   <g id="patch_71">
    <path clip-path="url(#pb17bde892e)" d="M 401.686364 768.96 
L 403.442308 768.96 
L 403.442308 429.402351 
L 401.686364 429.402351 
z
" style="fill:#1f77b4;"/>
   </g>
   <g id="patch_72">
    <path clip-path="url(#pb17bde892e)" d="M 405.198252 768.96 
L 406.954196 768.96 
L 406.954196 404.301317 
L 405.198252 404.301317 
z
" style="fill:#1f77b4;"/>
   </g>
   <g id="patch_73">
    <path clip-path="url(#pb17bde892e)" d="M 408.71014 768.96 
L 410.466084 768.96 
L 410.466084 350.444267 
L 408.71014 350.444267 
z
" style="fill:#1f77b4;"/>
   </g>
   <g id="patch_74">
    <path clip-path="url(#pb17bde892e)" d="M 412.222028 768.96 
L 413.977972 768.96 
L 413.977972 499.523191 
L 412.222028 499.523191 
z
" style="fill:#1f77b4;"/>
   </g>
   <g id="patch_75">
    <path clip-path="url(#pb17bde892e)" d="M 415.733916 768.96 
L 417.48986 768.96 
L 417.48986 498.76538 
L 415.733916 498.76538 
z
" style="fill:#1f77b4;"/>
   </g>
   <g id="patch_76">
    <path clip-path="url(#pb17bde892e)" d="M 419.245804 768.96 
L 421.001748 768.96 
L 421.001748 530.261174 
L 419.245804 530.261174 
z
" style="fill:#1f77b4;"/>
   </g>
   <g id="patch_77">
    <path clip-path="url(#pb17bde892e)" d="M 422.757692 768.96 
L 424.513636 768.96 
L 424.513636 502.023968 
L 422.757692 502.023968 
z
" style="fill:#1f77b4;"/>
   </g>
   <g id="patch_78">
    <path clip-path="url(#pb17bde892e)" d="M 426.26958 768.96 
L 428.025524 768.96 
L 428.025524 532.715316 
L 426.26958 532.715316 
z
" style="fill:#1f77b4;"/>
   </g>
   <g id="patch_79">
    <path clip-path="url(#pb17bde892e)" d="M 429.781469 768.96 
L 431.537413 768.96 
L 431.537413 497.372174 
L 429.781469 497.372174 
z
" style="fill:#1f77b4;"/>
   </g>
   <g id="patch_80">
    <path clip-path="url(#pb17bde892e)" d="M 433.293357 768.96 
L 435.049301 768.96 
L 435.049301 486.337279 
L 433.293357 486.337279 
z
" style="fill:#1f77b4;"/>
   </g>
   <g id="patch_81">
    <path clip-path="url(#pb17bde892e)" d="M 436.805245 768.96 
L 438.561189 768.96 
L 438.561189 594.949092 
L 436.805245 594.949092 
z
" style="fill:#1f77b4;"/>
   </g>
   <g id="patch_82">
    <path clip-path="url(#pb17bde892e)" d="M 440.317133 768.96 
L 442.073077 768.96 
L 442.073077 674.29774 
L 440.317133 674.29774 
z
" style="fill:#1f77b4;"/>
   </g>
   <g id="patch_83">
    <path clip-path="url(#pb17bde892e)" d="M 443.829021 768.96 
L 445.584965 768.96 
L 445.584965 616.69244 
L 443.829021 616.69244 
z
" style="fill:#1f77b4;"/>
   </g>
   <g id="patch_84">
    <path clip-path="url(#pb17bde892e)" d="M 447.340909 768.96 
L 449.096853 768.96 
L 449.096853 585.76209 
L 447.340909 585.76209 
z
" style="fill:#1f77b4;"/>
   </g>
   <g id="patch_85">
    <path clip-path="url(#pb17bde892e)" d="M 450.852797 768.96 
L 452.608741 768.96 
L 452.608741 578.510421 
L 450.852797 578.510421 
z
" style="fill:#1f77b4;"/>
   </g>
   <g id="patch_86">
    <path clip-path="url(#pb17bde892e)" d="M 454.364685 768.96 
L 456.120629 768.96 
L 456.120629 526.769414 
L 454.364685 526.769414 
z
" style="fill:#1f77b4;"/>
   </g>
   <g id="patch_87">
    <path clip-path="url(#pb17bde892e)" d="M 457.876573 768.96 
L 459.632517 768.96 
L 459.632517 465.153545 
L 457.876573 465.153545 
z
" style="fill:#1f77b4;"/>
   </g>
   <g id="patch_88">
    <path clip-path="url(#pb17bde892e)" d="M 461.388462 768.96 
L 463.144406 768.96 
L 463.144406 501.697526 
L 461.388462 501.697526 
z
" style="fill:#1f77b4;"/>
   </g>
   <g id="patch_89">
    <path clip-path="url(#pb17bde892e)" d="M 464.90035 768.96 
L 466.656294 768.96 
L 466.656294 662.889769 
L 464.90035 662.889769 
z
" style="fill:#1f77b4;"/>
   </g>
   <g id="patch_90">
    <path clip-path="url(#pb17bde892e)" d="M 468.412238 768.96 
L 470.168182 768.96 
L 470.168182 605.383568 
L 468.412238 605.383568 
z
" style="fill:#1f77b4;"/>
   </g>
   <g id="patch_91">
    <path clip-path="url(#pb17bde892e)" d="M 471.924126 768.96 
L 473.68007 768.96 
L 473.68007 474.532914 
L 471.924126 474.532914 
z
" style="fill:#1f77b4;"/>
   </g>
   <g id="patch_92">
    <path clip-path="url(#pb17bde892e)" d="M 475.436014 768.96 
L 477.191958 768.96 
L 477.191958 518.206149 
L 475.436014 518.206149 
z
" style="fill:#1f77b4;"/>
   </g>
   <g id="patch_93">
    <path clip-path="url(#pb17bde892e)" d="M 478.947902 768.96 
L 480.703846 768.96 
L 480.703846 422.710296 
L 478.947902 422.710296 
z
" style="fill:#1f77b4;"/>
   </g>
   <g id="patch_94">
    <path clip-path="url(#pb17bde892e)" d="M 482.45979 768.96 
L 484.215734 768.96 
L 484.215734 416.502075 
L 482.45979 416.502075 
z
" style="fill:#1f77b4;"/>
   </g>
   <g id="patch_95">
    <path clip-path="url(#pb17bde892e)" d="M 485.971678 768.96 
L 487.727622 768.96 
L 487.727622 494.049464 
L 485.971678 494.049464 
z
" style="fill:#1f77b4;"/>
   </g>
   <g id="patch_96">
    <path clip-path="url(#pb17bde892e)" d="M 489.483566 768.96 
L 491.23951 768.96 
L 491.23951 692.904916 
L 489.483566 692.904916 
z
" style="fill:#1f77b4;"/>
   </g>
   <g id="patch_97">
    <path clip-path="url(#pb17bde892e)" d="M 492.995455 768.96 
L 494.751399 768.96 
L 494.751399 510.179181 
L 492.995455 510.179181 
z
" style="fill:#1f77b4;"/>
   </g>
   <g id="patch_98">
    <path clip-path="url(#pb17bde892e)" d="M 496.507343 768.96 
L 498.263287 768.96 
L 498.263287 370.596212 
L 496.507343 370.596212 
z
" style="fill:#1f77b4;"/>
   </g>
   <g id="patch_99">
    <path clip-path="url(#pb17bde892e)" d="M 500.019231 768.96 
L 501.775175 768.96 
L 501.775175 329.429584 
L 500.019231 329.429584 
z
" style="fill:#1f77b4;"/>
   </g>
   <g id="patch_100">
    <path clip-path="url(#pb17bde892e)" d="M 503.531119 768.96 
L 505.287063 768.96 
L 505.287063 239.949585 
L 503.531119 239.949585 
z
" style="fill:#1f77b4;"/>
   </g>
   <g id="patch_101">
    <path clip-path="url(#pb17bde892e)" d="M 507.043007 768.96 
L 508.798951 768.96 
L 508.798951 135.36 
L 507.043007 135.36 
z
" style="fill:#1f77b4;"/>
   </g>
   <g id="patch_102">
    <path clip-path="url(#pb17bde892e)" d="M 510.554895 768.96 
L 512.310839 768.96 
L 512.310839 339.834913 
L 510.554895 339.834913 
z
" style="fill:#1f77b4;"/>
   </g>
   <g id="patch_103">
    <path clip-path="url(#pb17bde892e)" d="M 514.066783 768.96 
L 515.822727 768.96 
L 515.822727 564.176134 
L 514.066783 564.176134 
z
" style="fill:#1f77b4;"/>
   </g>
   <g id="patch_104">
    <path clip-path="url(#pb17bde892e)" d="M 517.578671 768.96 
L 519.334615 768.96 
L 519.334615 418.017697 
L 517.578671 418.017697 
z
" style="fill:#1f77b4;"/>
   </g>
   <g id="patch_105">
    <path clip-path="url(#pb17bde892e)" d="M 521.090559 768.96 
L 522.846503 768.96 
L 522.846503 335.830173 
L 521.090559 335.830173 
z
" style="fill:#1f77b4;"/>
   </g>
   <g id="patch_106">
    <path clip-path="url(#pb17bde892e)" d="M 524.602448 768.96 
L 526.358392 768.96 
L 526.358392 396.320983 
L 524.602448 396.320983 
z
" style="fill:#1f77b4;"/>
   </g>
   <g id="patch_107">
    <path clip-path="url(#pb17bde892e)" d="M 528.114336 768.96 
L 529.87028 768.96 
L 529.87028 260.661145 
L 528.114336 260.661145 
z
" style="fill:#1f77b4;"/>
   </g>
   <g id="patch_108">
    <path clip-path="url(#pb17bde892e)" d="M 531.626224 768.96 
L 533.382168 768.96 
L 533.382168 267.125856 
L 531.626224 267.125856 
z
" style="fill:#1f77b4;"/>
   </g>
   <g id="patch_109">
    <path clip-path="url(#pb17bde892e)" d="M 535.138112 768.96 
L 536.894056 768.96 
L 536.894056 415.895826 
L 535.138112 415.895826 
z
" style="fill:#1f77b4;"/>
   </g>
   <g id="patch_110">
    <path clip-path="url(#pb17bde892e)" d="M 538.65 768.96 
L 540.405944 768.96 
L 540.405944 564.619162 
L 538.65 564.619162 
z
" style="fill:#1f77b4;"/>
   </g>
   <g id="patch_111">
    <path clip-path="url(#pb17bde892e)" d="M 542.161888 768.96 
L 543.917832 768.96 
L 543.917832 477.937235 
L 542.161888 477.937235 
z
" style="fill:#1f77b4;"/>
   </g>
   <g id="patch_112">
    <path clip-path="url(#pb17bde892e)" d="M 545.673776 768.96 
L 547.42972 768.96 
L 547.42972 297.3392 
L 545.673776 297.3392 
z
" style="fill:#1f77b4;"/>
   </g>
   <g id="patch_113">
    <path clip-path="url(#pb17bde892e)" d="M 549.185664 768.96 
L 550.941608 768.96 
L 550.941608 352.455381 
L 549.185664 352.455381 
z
" style="fill:#1f77b4;"/>
   </g>
   <g id="patch_114">
    <path clip-path="url(#pb17bde892e)" d="M 552.697552 768.96 
L 554.453497 768.96 
L 554.453497 332.769782 
L 552.697552 332.769782 
z
" style="fill:#1f77b4;"/>
   </g>
   <g id="patch_115">
    <path clip-path="url(#pb17bde892e)" d="M 556.209441 768.96 
L 557.965385 768.96 
L 557.965385 363.97411 
L 556.209441 363.97411 
z
" style="fill:#1f77b4;"/>
   </g>
   <g id="patch_116">
    <path clip-path="url(#pb17bde892e)" d="M 559.721329 768.96 
L 561.477273 768.96 
L 561.477273 499.843804 
L 559.721329 499.843804 
z
" style="fill:#1f77b4;"/>
   </g>
   <g id="patch_117">
    <path clip-path="url(#pb17bde892e)" d="M 563.233217 768.96 
L 564.989161 768.96 
L 564.989161 658.313756 
L 563.233217 658.313756 
z
" style="fill:#1f77b4;"/>
   </g>
   <g id="patch_118">
    <path clip-path="url(#pb17bde892e)" d="M 566.745105 768.96 
L 568.501049 768.96 
L 568.501049 517.156872 
L 566.745105 517.156872 
z
" style="fill:#1f77b4;"/>
   </g>
   <g id="patch_119">
    <path clip-path="url(#pb17bde892e)" d="M 570.256993 768.96 
L 572.012937 768.96 
L 572.012937 407.828053 
L 570.256993 407.828053 
z
" style="fill:#1f77b4;"/>
   </g>
   <g id="patch_120">
    <path clip-path="url(#pb17bde892e)" d="M 573.768881 768.96 
L 575.524825 768.96 
L 575.524825 393.575376 
L 573.768881 393.575376 
z
" style="fill:#1f77b4;"/>
   </g>
   <g id="patch_121">
    <path clip-path="url(#pb17bde892e)" d="M 577.280769 768.96 
L 579.036713 768.96 
L 579.036713 406.417358 
L 577.280769 406.417358 
z
" style="fill:#1f77b4;"/>
   </g>
   <g id="patch_122">
    <path clip-path="url(#pb17bde892e)" d="M 580.792657 768.96 
L 582.548601 768.96 
L 582.548601 454.619971 
L 580.792657 454.619971 
z
" style="fill:#1f77b4;"/>
   </g>
   <g id="patch_123">
    <path clip-path="url(#pb17bde892e)" d="M 584.304545 768.96 
L 586.06049 768.96 
L 586.06049 625.972711 
L 584.304545 625.972711 
z
" style="fill:#1f77b4;"/>
   </g>
   <g id="patch_124">
    <path clip-path="url(#pb17bde892e)" d="M 587.816434 768.96 
L 589.572378 768.96 
L 589.572378 723.514654 
L 587.816434 723.514654 
z
" style="fill:#1f77b4;"/>
   </g>
   <g id="patch_125">
    <path clip-path="url(#pb17bde892e)" d="M 591.328322 768.96 
L 593.084266 768.96 
L 593.084266 613.305608 
L 591.328322 613.305608 
z
" style="fill:#1f77b4;"/>
   </g>
   <g id="patch_126">
    <path clip-path="url(#pb17bde892e)" d="M 594.84021 768.96 
L 596.596154 768.96 
L 596.596154 361.747311 
L 594.84021 361.747311 
z
" style="fill:#1f77b4;"/>
   </g>
   <g id="patch_127">
    <path clip-path="url(#pb17bde892e)" d="M 598.352098 768.96 
L 600.108042 768.96 
L 600.108042 371.243266 
L 598.352098 371.243266 
z
" style="fill:#1f77b4;"/>
   </g>
   <g id="patch_128">
    <path clip-path="url(#pb17bde892e)" d="M 601.863986 768.96 
L 603.61993 768.96 
L 603.61993 470.889592 
L 601.863986 470.889592 
z
" style="fill:#1f77b4;"/>
   </g>
   <g id="patch_129">
    <path clip-path="url(#pb17bde892e)" d="M 605.375874 768.96 
L 607.131818 768.96 
L 607.131818 323.442876 
L 605.375874 323.442876 
z
" style="fill:#1f77b4;"/>
   </g>
   <g id="patch_130">
    <path clip-path="url(#pb17bde892e)" d="M 608.887762 768.96 
L 610.643706 768.96 
L 610.643706 467.432808 
L 608.887762 467.432808 
z
" style="fill:#1f77b4;"/>
   </g>
   <g id="patch_131">
    <path clip-path="url(#pb17bde892e)" d="M 612.39965 768.96 
L 614.155594 768.96 
L 614.155594 500.391759 
L 612.39965 500.391759 
z
" style="fill:#1f77b4;"/>
   </g>
   <g id="patch_132">
    <path clip-path="url(#pb17bde892e)" d="M 615.911538 768.96 
L 617.667483 768.96 
L 617.667483 528.996212 
L 615.911538 528.996212 
z
" style="fill:#1f77b4;"/>
   </g>
   <g id="patch_133">
    <path clip-path="url(#pb17bde892e)" d="M 619.423427 768.96 
L 621.179371 768.96 
L 621.179371 461.008901 
L 619.423427 461.008901 
z
" style="fill:#1f77b4;"/>
   </g>
   <g id="patch_134">
    <path clip-path="url(#pb17bde892e)" d="M 622.935315 768.96 
L 624.691259 768.96 
L 624.691259 489.922308 
L 622.935315 489.922308 
z
" style="fill:#1f77b4;"/>
   </g>
   <g id="patch_135">
    <path clip-path="url(#pb17bde892e)" d="M 626.447203 768.96 
L 628.203147 768.96 
L 628.203147 478.356945 
L 626.447203 478.356945 
z
" style="fill:#1f77b4;"/>
   </g>
   <g id="patch_136">
    <path clip-path="url(#pb17bde892e)" d="M 629.959091 768.96 
L 631.715035 768.96 
L 631.715035 349.74475 
L 629.959091 349.74475 
z
" style="fill:#1f77b4;"/>
   </g>
   <g id="patch_137">
    <path clip-path="url(#pb17bde892e)" d="M 633.470979 768.96 
L 635.226923 768.96 
L 635.226923 534.330036 
L 633.470979 534.330036 
z
" style="fill:#1f77b4;"/>
   </g>
   <g id="patch_138">
    <path clip-path="url(#pb17bde892e)" d="M 636.982867 768.96 
L 638.738811 768.96 
L 638.738811 674.711621 
L 636.982867 674.711621 
z
" style="fill:#1f77b4;"/>
   </g>
   <g id="patch_139">
    <path clip-path="url(#pb17bde892e)" d="M 640.494755 768.96 
L 642.250699 768.96 
L 642.250699 606.269624 
L 640.494755 606.269624 
z
" style="fill:#1f77b4;"/>
   </g>
   <g id="patch_140">
    <path clip-path="url(#pb17bde892e)" d="M 644.006643 768.96 
L 645.762587 768.96 
L 645.762587 466.535093 
L 644.006643 466.535093 
z
" style="fill:#1f77b4;"/>
   </g>
   <g id="patch_141">
    <path clip-path="url(#pb17bde892e)" d="M 647.518531 768.96 
L 649.274476 768.96 
L 649.274476 499.756364 
L 647.518531 499.756364 
z
" style="fill:#1f77b4;"/>
   </g>
   <g id="patch_142">
    <path clip-path="url(#pb17bde892e)" d="M 651.03042 768.96 
L 652.786364 768.96 
L 652.786364 383.752978 
L 651.03042 383.752978 
z
" style="fill:#1f77b4;"/>
   </g>
   <g id="patch_143">
    <path clip-path="url(#pb17bde892e)" d="M 654.542308 768.96 
L 656.298252 768.96 
L 656.298252 520.07153 
L 654.542308 520.07153 
z
" style="fill:#1f77b4;"/>
   </g>
   <g id="patch_144">
    <path clip-path="url(#pb17bde892e)" d="M 658.054196 768.96 
L 659.81014 768.96 
L 659.81014 569.008637 
L 658.054196 569.008637 
z
" style="fill:#1f77b4;"/>
   </g>
   <g id="patch_145">
    <path clip-path="url(#pb17bde892e)" d="M 661.566084 768.96 
L 663.322028 768.96 
L 663.322028 677.154104 
L 661.566084 677.154104 
z
" style="fill:#1f77b4;"/>
   </g>
   <g id="patch_146">
    <path clip-path="url(#pb17bde892e)" d="M 665.077972 768.96 
L 666.833916 768.96 
L 666.833916 617.899109 
L 665.077972 617.899109 
z
" style="fill:#1f77b4;"/>
   </g>
   <g id="patch_147">
    <path clip-path="url(#pb17bde892e)" d="M 668.58986 768.96 
L 670.345804 768.96 
L 670.345804 584.695326 
L 668.58986 584.695326 
z
" style="fill:#1f77b4;"/>
   </g>
   <g id="patch_148">
    <path clip-path="url(#pb17bde892e)" d="M 672.101748 768.96 
L 673.857692 768.96 
L 673.857692 583.815099 
L 672.101748 583.815099 
z
" style="fill:#1f77b4;"/>
   </g>
   <g id="patch_149">
    <path clip-path="url(#pb17bde892e)" d="M 675.613636 768.96 
L 677.36958 768.96 
L 677.36958 573.199915 
L 675.613636 573.199915 
z
" style="fill:#1f77b4;"/>
   </g>
   <g id="patch_150">
    <path clip-path="url(#pb17bde892e)" d="M 679.125524 768.96 
L 680.881469 768.96 
L 680.881469 586.391656 
L 679.125524 586.391656 
z
" style="fill:#1f77b4;"/>
   </g>
   <g id="patch_151">
    <path clip-path="url(#pb17bde892e)" d="M 682.637413 768.96 
L 684.393357 768.96 
L 684.393357 644.026102 
L 682.637413 644.026102 
z
" style="fill:#1f77b4;"/>
   </g>
   <g id="patch_152">
    <path clip-path="url(#pb17bde892e)" d="M 686.149301 768.96 
L 687.905245 768.96 
L 687.905245 698.868306 
L 686.149301 698.868306 
z
" style="fill:#1f77b4;"/>
   </g>
   <g id="patch_153">
    <path clip-path="url(#pb17bde892e)" d="M 689.661189 768.96 
L 691.417133 768.96 
L 691.417133 718.058414 
L 689.661189 718.058414 
z
" style="fill:#1f77b4;"/>
   </g>
   <g id="patch_154">
    <path clip-path="url(#pb17bde892e)" d="M 693.173077 768.96 
L 694.929021 768.96 
L 694.929021 659.141518 
L 693.173077 659.141518 
z
" style="fill:#1f77b4;"/>
   </g>
   <g id="patch_155">
    <path clip-path="url(#pb17bde892e)" d="M 696.684965 768.96 
L 698.440909 768.96 
L 698.440909 652.962444 
L 696.684965 652.962444 
z
" style="fill:#1f77b4;"/>
   </g>
   <g id="patch_156">
    <path clip-path="url(#pb17bde892e)" d="M 700.196853 768.96 
L 701.952797 768.96 
L 701.952797 581.156931 
L 700.196853 581.156931 
z
" style="fill:#1f77b4;"/>
   </g>
   <g id="patch_157">
    <path clip-path="url(#pb17bde892e)" d="M 703.708741 768.96 
L 705.464685 768.96 
L 705.464685 556.912806 
L 703.708741 556.912806 
z
" style="fill:#1f77b4;"/>
   </g>
   <g id="patch_158">
    <path clip-path="url(#pb17bde892e)" d="M 707.220629 768.96 
L 708.976573 768.96 
L 708.976573 579.658797 
L 707.220629 579.658797 
z
" style="fill:#1f77b4;"/>
   </g>
   <g id="patch_159">
    <path clip-path="url(#pb17bde892e)" d="M 710.732517 768.96 
L 712.488462 768.96 
L 712.488462 634.238681 
L 710.732517 634.238681 
z
" style="fill:#1f77b4;"/>
   </g>
   <g id="patch_160">
    <path clip-path="url(#pb17bde892e)" d="M 714.244406 768.96 
L 716.00035 768.96 
L 716.00035 582.520991 
L 714.244406 582.520991 
z
" style="fill:#1f77b4;"/>
   </g>
   <g id="patch_161">
    <path clip-path="url(#pb17bde892e)" d="M 717.756294 768.96 
L 719.512238 768.96 
L 719.512238 568.676366 
L 717.756294 568.676366 
z
" style="fill:#1f77b4;"/>
   </g>
   <g id="patch_162">
    <path clip-path="url(#pb17bde892e)" d="M 721.268182 768.96 
L 723.024126 768.96 
L 723.024126 535.274386 
L 721.268182 535.274386 
z
" style="fill:#1f77b4;"/>
   </g>
   <g id="patch_163">
    <path clip-path="url(#pb17bde892e)" d="M 724.78007 768.96 
L 726.536014 768.96 
L 726.536014 606.89336 
L 724.78007 606.89336 
z
" style="fill:#1f77b4;"/>
   </g>
   <g id="patch_164">
    <path clip-path="url(#pb17bde892e)" d="M 728.291958 768.96 
L 730.047902 768.96 
L 730.047902 615.555724 
L 728.291958 615.555724 
z
" style="fill:#1f77b4;"/>
   </g>
   <g id="patch_165">
    <path clip-path="url(#pb17bde892e)" d="M 731.803846 768.96 
L 733.55979 768.96 
L 733.55979 675.609336 
L 731.803846 675.609336 
z
" style="fill:#1f77b4;"/>
   </g>
   <g id="patch_166">
    <path clip-path="url(#pb17bde892e)" d="M 735.315734 768.96 
L 737.071678 768.96 
L 737.071678 675.533555 
L 735.315734 675.533555 
z
" style="fill:#1f77b4;"/>
   </g>
   <g id="patch_167">
    <path clip-path="url(#pb17bde892e)" d="M 738.827622 768.96 
L 740.583566 768.96 
L 740.583566 484.87995 
L 738.827622 484.87995 
z
" style="fill:#1f77b4;"/>
   </g>
   <g id="patch_168">
    <path clip-path="url(#pb17bde892e)" d="M 742.33951 768.96 
L 744.095455 768.96 
L 744.095455 558.125304 
L 742.33951 558.125304 
z
" style="fill:#1f77b4;"/>
   </g>
   <g id="patch_169">
    <path clip-path="url(#pb17bde892e)" d="M 745.851399 768.96 
L 747.607343 768.96 
L 747.607343 624.608651 
L 745.851399 624.608651 
z
" style="fill:#1f77b4;"/>
   </g>
   <g id="patch_170">
    <path clip-path="url(#pb17bde892e)" d="M 749.363287 768.96 
L 751.119231 768.96 
L 751.119231 579.250744 
L 749.363287 579.250744 
z
" style="fill:#1f77b4;"/>
   </g>
   <g id="patch_171">
    <path clip-path="url(#pb17bde892e)" d="M 752.875175 768.96 
L 754.631119 768.96 
L 754.631119 677.690402 
L 752.875175 677.690402 
z
" style="fill:#1f77b4;"/>
   </g>
   <g id="patch_172">
    <path clip-path="url(#pb17bde892e)" d="M 756.387063 768.96 
L 758.143007 768.96 
L 758.143007 627.150233 
L 756.387063 627.150233 
z
" style="fill:#1f77b4;"/>
   </g>
   <g id="patch_173">
    <path clip-path="url(#pb17bde892e)" d="M 759.898951 768.96 
L 761.654895 768.96 
L 761.654895 708.364262 
L 759.898951 708.364262 
z
" style="fill:#1f77b4;"/>
   </g>
   <g id="patch_174">
    <path clip-path="url(#pb17bde892e)" d="M 763.410839 768.96 
L 765.166783 768.96 
L 765.166783 694.799444 
L 763.410839 694.799444 
z
" style="fill:#1f77b4;"/>
   </g>
   <g id="patch_175">
    <path clip-path="url(#pb17bde892e)" d="M 766.922727 768.96 
L 768.678671 768.96 
L 768.678671 678.582287 
L 766.922727 678.582287 
z
" style="fill:#1f77b4;"/>
   </g>
   <g id="patch_176">
    <path clip-path="url(#pb17bde892e)" d="M 770.434615 768.96 
L 772.190559 768.96 
L 772.190559 659.29891 
L 770.434615 659.29891 
z
" style="fill:#1f77b4;"/>
   </g>
   <g id="patch_177">
    <path clip-path="url(#pb17bde892e)" d="M 773.946503 768.96 
L 775.702448 768.96 
L 775.702448 635.789279 
L 773.946503 635.789279 
z
" style="fill:#1f77b4;"/>
   </g>
   <g id="patch_178">
    <path clip-path="url(#pb17bde892e)" d="M 777.458392 768.96 
L 779.214336 768.96 
L 779.214336 473.081415 
L 777.458392 473.081415 
z
" style="fill:#1f77b4;"/>
   </g>
   <g id="patch_179">
    <path clip-path="url(#pb17bde892e)" d="M 780.97028 768.96 
L 782.726224 768.96 
L 782.726224 427.181382 
L 780.97028 427.181382 
z
" style="fill:#1f77b4;"/>
   </g>
   <g id="patch_180">
    <path clip-path="url(#pb17bde892e)" d="M 784.482168 768.96 
L 786.238112 768.96 
L 786.238112 738.36775 
L 784.482168 738.36775 
z
" style="fill:#1f77b4;"/>
   </g>
   <g id="patch_181">
    <path clip-path="url(#pb17bde892e)" d="M 787.994056 768.96 
L 789.75 768.96 
L 789.75 692.95738 
L 787.994056 692.95738 
z
" style="fill:#1f77b4;"/>
   </g>
   <g id="patch_182">
    <path clip-path="url(#pb17bde892e)" d="M 791.505944 768.96 
L 793.261888 768.96 
L 793.261888 675.06138 
L 791.505944 675.06138 
z
" style="fill:#1f77b4;"/>
   </g>
   <g id="patch_183">
    <path clip-path="url(#pb17bde892e)" d="M 795.017832 768.96 
L 796.773776 768.96 
L 796.773776 678.687215 
L 795.017832 678.687215 
z
" style="fill:#1f77b4;"/>
   </g>
   <g id="patch_184">
    <path clip-path="url(#pb17bde892e)" d="M 798.52972 768.96 
L 800.285664 768.96 
L 800.285664 687.780947 
L 798.52972 687.780947 
z
" style="fill:#1f77b4;"/>
   </g>
   <g id="patch_185">
    <path clip-path="url(#pb17bde892e)" d="M 802.041608 768.96 
L 803.797552 768.96 
L 803.797552 687.716825 
L 802.041608 687.716825 
z
" style="fill:#1f77b4;"/>
   </g>
   <g id="patch_186">
    <path clip-path="url(#pb17bde892e)" d="M 805.553497 768.96 
L 807.309441 768.96 
L 807.309441 708.335115 
L 805.553497 708.335115 
z
" style="fill:#1f77b4;"/>
   </g>
   <g id="patch_187">
    <path clip-path="url(#pb17bde892e)" d="M 809.065385 768.96 
L 810.821329 768.96 
L 810.821329 739.883372 
L 809.065385 739.883372 
z
" style="fill:#1f77b4;"/>
   </g>
   <g id="patch_188">
    <path clip-path="url(#pb17bde892e)" d="M 812.577273 768.96 
L 814.333217 768.96 
L 814.333217 763.981764 
L 812.577273 763.981764 
z
" style="fill:#1f77b4;"/>
   </g>
   <g id="patch_189">
    <path clip-path="url(#pb17bde892e)" d="M 816.089161 768.96 
L 817.845105 768.96 
L 817.845105 721.818323 
L 816.089161 721.818323 
z
" style="fill:#1f77b4;"/>
   </g>
   <g id="patch_190">
    <path clip-path="url(#pb17bde892e)" d="M 819.601049 768.96 
L 821.356993 768.96 
L 821.356993 685.810639 
L 819.601049 685.810639 
z
" style="fill:#1f77b4;"/>
   </g>
   <g id="patch_191">
    <path clip-path="url(#pb17bde892e)" d="M 823.112937 768.96 
L 824.868881 768.96 
L 824.868881 685.507514 
L 823.112937 685.507514 
z
" style="fill:#1f77b4;"/>
   </g>
   <g id="patch_192">
    <path clip-path="url(#pb17bde892e)" d="M 826.624825 768.96 
L 828.380769 768.96 
L 828.380769 695.644694 
L 826.624825 695.644694 
z
" style="fill:#1f77b4;"/>
   </g>
   <g id="patch_193">
    <path clip-path="url(#pb17bde892e)" d="M 830.136713 768.96 
L 831.892657 768.96 
L 831.892657 707.093471 
L 830.136713 707.093471 
z
" style="fill:#1f77b4;"/>
   </g>
   <g id="patch_194">
    <path clip-path="url(#pb17bde892e)" d="M 833.648601 768.96 
L 835.404545 768.96 
L 835.404545 726.819876 
L 833.648601 726.819876 
z
" style="fill:#1f77b4;"/>
   </g>
   <g id="patch_195">
    <path clip-path="url(#pb17bde892e)" d="M 837.16049 768.96 
L 838.916434 768.96 
L 838.916434 690.258407 
L 837.16049 690.258407 
z
" style="fill:#1f77b4;"/>
   </g>
   <g id="patch_196">
    <path clip-path="url(#pb17bde892e)" d="M 840.672378 768.96 
L 842.428322 768.96 
L 842.428322 703.712468 
L 840.672378 703.712468 
z
" style="fill:#1f77b4;"/>
   </g>
   <g id="patch_197">
    <path clip-path="url(#pb17bde892e)" d="M 844.184266 768.96 
L 845.94021 768.96 
L 845.94021 706.883615 
L 844.184266 706.883615 
z
" style="fill:#1f77b4;"/>
   </g>
   <g id="patch_198">
    <path clip-path="url(#pb17bde892e)" d="M 847.696154 768.96 
L 849.452098 768.96 
L 849.452098 707.26835 
L 847.696154 707.26835 
z
" style="fill:#1f77b4;"/>
   </g>
   <g id="patch_199">
    <path clip-path="url(#pb17bde892e)" d="M 851.208042 768.96 
L 852.963986 768.96 
L 852.963986 706.568832 
L 851.208042 706.568832 
z
" style="fill:#1f77b4;"/>
   </g>
   <g id="patch_200">
    <path clip-path="url(#pb17bde892e)" d="M 854.71993 768.96 
L 856.475874 768.96 
L 856.475874 716.904209 
L 854.71993 716.904209 
z
" style="fill:#1f77b4;"/>
   </g>
   <g id="patch_201">
    <path clip-path="url(#pb17bde892e)" d="M 858.231818 768.96 
L 859.987762 768.96 
L 859.987762 733.59937 
L 858.231818 733.59937 
z
" style="fill:#1f77b4;"/>
   </g>
   <g id="patch_202">
    <path clip-path="url(#pb17bde892e)" d="M 861.743706 768.96 
L 863.49965 768.96 
L 863.49965 716.455352 
L 861.743706 716.455352 
z
" style="fill:#1f77b4;"/>
   </g>
   <g id="patch_203">
    <path clip-path="url(#pb17bde892e)" d="M 865.255594 768.96 
L 867.011538 768.96 
L 867.011538 698.617645 
L 865.255594 698.617645 
z
" style="fill:#1f77b4;"/>
   </g>
   <g id="patch_204">
    <path clip-path="url(#pb17bde892e)" d="M 868.767483 768.96 
L 870.523427 768.96 
L 870.523427 703.339391 
L 868.767483 703.339391 
z
" style="fill:#1f77b4;"/>
   </g>
   <g id="patch_205">
    <path clip-path="url(#pb17bde892e)" d="M 872.279371 768.96 
L 874.035315 768.96 
L 874.035315 721.293684 
L 872.279371 721.293684 
z
" style="fill:#1f77b4;"/>
   </g>
   <g id="patch_206">
    <path clip-path="url(#pb17bde892e)" d="M 875.791259 768.96 
L 877.547203 768.96 
L 877.547203 720.296871 
L 875.791259 720.296871 
z
" style="fill:#1f77b4;"/>
   </g>
   <g id="patch_207">
    <path clip-path="url(#pb17bde892e)" d="M 879.303147 768.96 
L 881.059091 768.96 
L 881.059091 738.694192 
L 879.303147 738.694192 
z
" style="fill:#1f77b4;"/>
   </g>
   <g id="patch_208">
    <path clip-path="url(#pb17bde892e)" d="M 882.815035 768.96 
L 884.570979 768.96 
L 884.570979 751.390442 
L 882.815035 751.390442 
z
" style="fill:#1f77b4;"/>
   </g>
   <g id="patch_209">
    <path clip-path="url(#pb17bde892e)" d="M 886.326923 768.96 
L 888.082867 768.96 
L 888.082867 739.609395 
L 886.326923 739.609395 
z
" style="fill:#1f77b4;"/>
   </g>
   <g id="patch_210">
    <path clip-path="url(#pb17bde892e)" d="M 889.838811 768.96 
L 891.594755 768.96 
L 891.594755 702.173528 
L 889.838811 702.173528 
z
" style="fill:#1f77b4;"/>
   </g>
   <g id="patch_211">
    <path clip-path="url(#pb17bde892e)" d="M 893.350699 768.96 
L 895.106643 768.96 
L 895.106643 656.99633 
L 893.350699 656.99633 
z
" style="fill:#1f77b4;"/>
   </g>
   <g id="patch_212">
    <path clip-path="url(#pb17bde892e)" d="M 896.862587 768.96 
L 898.618531 768.96 
L 898.618531 710.690159 
L 896.862587 710.690159 
z
" style="fill:#1f77b4;"/>
   </g>
   <g id="patch_213">
    <path clip-path="url(#pb17bde892e)" d="M 900.374476 768.96 
L 902.13042 768.96 
L 902.13042 642.568773 
L 900.374476 642.568773 
z
" style="fill:#1f77b4;"/>
   </g>
   <g id="patch_214">
    <path clip-path="url(#pb17bde892e)" d="M 903.886364 768.96 
L 905.642308 768.96 
L 905.642308 722.972527 
L 903.886364 722.972527 
z
" style="fill:#1f77b4;"/>
   </g>
   <g id="patch_215">
    <path clip-path="url(#pb17bde892e)" d="M 907.398252 768.96 
L 909.154196 768.96 
L 909.154196 734.508743 
L 907.398252 734.508743 
z
" style="fill:#1f77b4;"/>
   </g>
   <g id="patch_216">
    <path clip-path="url(#pb17bde892e)" d="M 910.91014 768.96 
L 912.666084 768.96 
L 912.666084 722.133106 
L 910.91014 722.133106 
z
" style="fill:#1f77b4;"/>
   </g>
   <g id="patch_217">
    <path clip-path="url(#pb17bde892e)" d="M 914.422028 768.96 
L 916.177972 768.96 
L 916.177972 705.577849 
L 914.422028 705.577849 
z
" style="fill:#1f77b4;"/>
   </g>
   <g id="patch_218">
    <path clip-path="url(#pb17bde892e)" d="M 917.933916 768.96 
L 919.68986 768.96 
L 919.68986 710.608548 
L 917.933916 710.608548 
z
" style="fill:#1f77b4;"/>
   </g>
   <g id="patch_219">
    <path clip-path="url(#pb17bde892e)" d="M 921.445804 768.96 
L 923.201748 768.96 
L 923.201748 708.649898 
L 921.445804 708.649898 
z
" style="fill:#1f77b4;"/>
   </g>
   <g id="patch_220">
    <path clip-path="url(#pb17bde892e)" d="M 924.957692 768.96 
L 926.713636 768.96 
L 926.713636 704.831696 
L 924.957692 704.831696 
z
" style="fill:#1f77b4;"/>
   </g>
   <g id="patch_221">
    <path clip-path="url(#pb17bde892e)" d="M 928.46958 768.96 
L 930.225524 768.96 
L 930.225524 666.428163 
L 928.46958 666.428163 
z
" style="fill:#1f77b4;"/>
   </g>
   <g id="patch_222">
    <path clip-path="url(#pb17bde892e)" d="M 931.981469 768.96 
L 933.737413 768.96 
L 933.737413 728.953405 
L 931.981469 728.953405 
z
" style="fill:#1f77b4;"/>
   </g>
   <g id="patch_223">
    <path clip-path="url(#pb17bde892e)" d="M 935.493357 768.96 
L 937.249301 768.96 
L 937.249301 723.642898 
L 935.493357 723.642898 
z
" style="fill:#1f77b4;"/>
   </g>
   <g id="patch_224">
    <path clip-path="url(#pb17bde892e)" d="M 939.005245 768.96 
L 940.761189 768.96 
L 940.761189 725.840551 
L 939.005245 725.840551 
z
" style="fill:#1f77b4;"/>
   </g>
   <g id="patch_225">
    <path clip-path="url(#pb17bde892e)" d="M 942.517133 768.96 
L 944.273077 768.96 
L 944.273077 613.958491 
L 942.517133 613.958491 
z
" style="fill:#1f77b4;"/>
   </g>
   <g id="patch_226">
    <path clip-path="url(#pb17bde892e)" d="M 946.029021 768.96 
L 947.784965 768.96 
L 947.784965 632.361641 
L 946.029021 632.361641 
z
" style="fill:#1f77b4;"/>
   </g>
   <g id="patch_227">
    <path clip-path="url(#pb17bde892e)" d="M 949.540909 768.96 
L 951.296853 768.96 
L 951.296853 645.58253 
L 949.540909 645.58253 
z
" style="fill:#1f77b4;"/>
   </g>
   <g id="patch_228">
    <path clip-path="url(#pb17bde892e)" d="M 953.052797 768.96 
L 954.808741 768.96 
L 954.808741 608.059223 
L 953.052797 608.059223 
z
" style="fill:#1f77b4;"/>
   </g>
   <g id="patch_229">
    <path clip-path="url(#pb17bde892e)" d="M 956.564685 768.96 
L 958.320629 768.96 
L 958.320629 658.476976 
L 956.564685 658.476976 
z
" style="fill:#1f77b4;"/>
   </g>
   <g id="patch_230">
    <path clip-path="url(#pb17bde892e)" d="M 960.076573 768.96 
L 961.832517 768.96 
L 961.832517 715.19622 
L 960.076573 715.19622 
z
" style="fill:#1f77b4;"/>
   </g>
   <g id="patch_231">
    <path clip-path="url(#pb17bde892e)" d="M 963.588462 768.96 
L 965.344406 768.96 
L 965.344406 692.864111 
L 963.588462 692.864111 
z
" style="fill:#1f77b4;"/>
   </g>
   <g id="patch_232">
    <path clip-path="url(#pb17bde892e)" d="M 967.10035 768.96 
L 968.856294 768.96 
L 968.856294 697.282732 
L 967.10035 697.282732 
z
" style="fill:#1f77b4;"/>
   </g>
   <g id="patch_233">
    <path clip-path="url(#pb17bde892e)" d="M 970.612238 768.96 
L 972.368182 768.96 
L 972.368182 700.757004 
L 970.612238 700.757004 
z
" style="fill:#1f77b4;"/>
   </g>
   <g id="patch_234">
    <path clip-path="url(#pb17bde892e)" d="M 974.124126 768.96 
L 975.88007 768.96 
L 975.88007 702.937169 
L 974.124126 702.937169 
z
" style="fill:#1f77b4;"/>
   </g>
   <g id="patch_235">
    <path clip-path="url(#pb17bde892e)" d="M 977.636014 768.96 
L 979.391958 768.96 
L 979.391958 701.503157 
L 977.636014 701.503157 
z
" style="fill:#1f77b4;"/>
   </g>
   <g id="patch_236">
    <path clip-path="url(#pb17bde892e)" d="M 981.147902 768.96 
L 982.903846 768.96 
L 982.903846 724.109244 
L 981.147902 724.109244 
z
" style="fill:#1f77b4;"/>
   </g>
   <g id="patch_237">
    <path clip-path="url(#pb17bde892e)" d="M 984.65979 768.96 
L 986.415734 768.96 
L 986.415734 714.234383 
L 984.65979 714.234383 
z
" style="fill:#1f77b4;"/>
   </g>
   <g id="patch_238">
    <path clip-path="url(#pb17bde892e)" d="M 988.171678 768.96 
L 989.927622 768.96 
L 989.927622 693.190552 
L 988.171678 693.190552 
z
" style="fill:#1f77b4;"/>
   </g>
   <g id="patch_239">
    <path clip-path="url(#pb17bde892e)" d="M 991.683566 768.96 
L 993.43951 768.96 
L 993.43951 696.507433 
L 991.683566 696.507433 
z
" style="fill:#1f77b4;"/>
   </g>
   <g id="patch_240">
    <path clip-path="url(#pb17bde892e)" d="M 995.195455 768.96 
L 996.951399 768.96 
L 996.951399 692.514352 
L 995.195455 692.514352 
z
" style="fill:#1f77b4;"/>
   </g>
   <g id="patch_241">
    <path clip-path="url(#pb17bde892e)" d="M 998.707343 768.96 
L 1000.463287 768.96 
L 1000.463287 682.289732 
L 998.707343 682.289732 
z
" style="fill:#1f77b4;"/>
   </g>
   <g id="patch_242">
    <path clip-path="url(#pb17bde892e)" d="M 1002.219231 768.96 
L 1003.975175 768.96 
L 1003.975175 643.36156 
L 1002.219231 643.36156 
z
" style="fill:#1f77b4;"/>
   </g>
   <g id="patch_243">
    <path clip-path="url(#pb17bde892e)" d="M 1005.731119 768.96 
L 1007.487063 768.96 
L 1007.487063 564.648308 
L 1005.731119 564.648308 
z
" style="fill:#1f77b4;"/>
   </g>
   <g id="patch_244">
    <path clip-path="url(#pb17bde892e)" d="M 1009.243007 768.96 
L 1010.998951 768.96 
L 1010.998951 674.099543 
L 1009.243007 674.099543 
z
" style="fill:#1f77b4;"/>
   </g>
   <g id="patch_245">
    <path clip-path="url(#pb17bde892e)" d="M 1012.754895 768.96 
L 1014.510839 768.96 
L 1014.510839 693.814289 
L 1012.754895 693.814289 
z
" style="fill:#1f77b4;"/>
   </g>
   <g id="patch_246">
    <path clip-path="url(#pb17bde892e)" d="M 1016.266783 768.96 
L 1018.022727 768.96 
L 1018.022727 698.891623 
L 1016.266783 698.891623 
z
" style="fill:#1f77b4;"/>
   </g>
   <g id="patch_247">
    <path clip-path="url(#pb17bde892e)" d="M 1019.778671 768.96 
L 1021.534615 768.96 
L 1021.534615 704.470279 
L 1019.778671 704.470279 
z
" style="fill:#1f77b4;"/>
   </g>
   <g id="patch_248">
    <path clip-path="url(#pb17bde892e)" d="M 1023.290559 768.96 
L 1025.046503 768.96 
L 1025.046503 703.729955 
L 1023.290559 703.729955 
z
" style="fill:#1f77b4;"/>
   </g>
   <g id="patch_249">
    <path clip-path="url(#pb17bde892e)" d="M 1026.802448 768.96 
L 1028.558392 768.96 
L 1028.558392 707.973697 
L 1026.802448 707.973697 
z
" style="fill:#1f77b4;"/>
   </g>
   <g id="patch_250">
    <path clip-path="url(#pb17bde892e)" d="M 1030.314336 768.96 
L 1032.07028 768.96 
L 1032.07028 727.111341 
L 1030.314336 727.111341 
z
" style="fill:#1f77b4;"/>
   </g>
   <g id="patch_251">
    <path clip-path="url(#pb17bde892e)" d="M 1033.826224 768.96 
L 1035.582168 768.96 
L 1035.582168 739.516126 
L 1033.826224 739.516126 
z
" style="fill:#1f77b4;"/>
   </g>
   <g id="patch_252">
    <path clip-path="url(#pb17bde892e)" d="M 1037.338112 768.96 
L 1039.094056 768.96 
L 1039.094056 732.923169 
L 1037.338112 732.923169 
z
" style="fill:#1f77b4;"/>
   </g>
   <g id="patch_253">
    <path clip-path="url(#pb17bde892e)" d="M 1040.85 768.96 
L 1042.605944 768.96 
L 1042.605944 695.796257 
L 1040.85 695.796257 
z
" style="fill:#1f77b4;"/>
   </g>
   <g id="patch_254">
    <path clip-path="url(#pb17bde892e)" d="M 1044.361888 768.96 
L 1046.117832 768.96 
L 1046.117832 704.785062 
L 1044.361888 704.785062 
z
" style="fill:#1f77b4;"/>
   </g>
   <g id="patch_255">
    <path clip-path="url(#pb17bde892e)" d="M 1047.873776 768.96 
L 1049.62972 768.96 
L 1049.62972 707.775501 
L 1047.873776 707.775501 
z
" style="fill:#1f77b4;"/>
   </g>
   <g id="patch_256">
    <path clip-path="url(#pb17bde892e)" d="M 1051.385664 768.96 
L 1053.141608 768.96 
L 1053.141608 712.689614 
L 1051.385664 712.689614 
z
" style="fill:#1f77b4;"/>
   </g>
   <g id="patch_257">
    <path clip-path="url(#pb17bde892e)" d="M 1054.897552 768.96 
L 1056.653497 768.96 
L 1056.653497 727.099683 
L 1054.897552 727.099683 
z
" style="fill:#1f77b4;"/>
   </g>
   <g id="patch_258">
    <path clip-path="url(#pb17bde892e)" d="M 1058.409441 768.96 
L 1060.165385 768.96 
L 1060.165385 722.302156 
L 1058.409441 722.302156 
z
" style="fill:#1f77b4;"/>
   </g>
   <g id="patch_259">
    <path clip-path="url(#pb17bde892e)" d="M 1061.921329 768.96 
L 1063.677273 768.96 
L 1063.677273 706.230732 
L 1061.921329 706.230732 
z
" style="fill:#1f77b4;"/>
   </g>
   <g id="patch_260">
    <path clip-path="url(#pb17bde892e)" d="M 1065.433217 768.96 
L 1067.189161 768.96 
L 1067.189161 709.500978 
L 1065.433217 709.500978 
z
" style="fill:#1f77b4;"/>
   </g>
   <g id="patch_261">
    <path clip-path="url(#pb17bde892e)" d="M 1068.945105 768.96 
L 1070.701049 768.96 
L 1070.701049 709.028804 
L 1068.945105 709.028804 
z
" style="fill:#1f77b4;"/>
   </g>
   <g id="patch_262">
    <path clip-path="url(#pb17bde892e)" d="M 1072.456993 768.96 
L 1074.212937 768.96 
L 1074.212937 706.790346 
L 1072.456993 706.790346 
z
" style="fill:#1f77b4;"/>
   </g>
   <g id="patch_263">
    <path clip-path="url(#pb17bde892e)" d="M 1075.968881 768.96 
L 1077.724825 768.96 
L 1077.724825 707.775501 
L 1075.968881 707.775501 
z
" style="fill:#1f77b4;"/>
   </g>
   <g id="patch_264">
    <path clip-path="url(#pb17bde892e)" d="M 1079.480769 768.96 
L 1081.236713 768.96 
L 1081.236713 724.459003 
L 1079.480769 724.459003 
z
" style="fill:#1f77b4;"/>
   </g>
   <g id="patch_265">
    <path clip-path="url(#pb17bde892e)" d="M 1082.992657 768.96 
L 1084.748601 768.96 
L 1084.748601 727.80503 
L 1082.992657 727.80503 
z
" style="fill:#1f77b4;"/>
   </g>
   <g id="patch_266">
    <path clip-path="url(#pb17bde892e)" d="M 1086.504545 768.96 
L 1088.26049 768.96 
L 1088.26049 698.827501 
L 1086.504545 698.827501 
z
" style="fill:#1f77b4;"/>
   </g>
   <g id="patch_267">
    <path clip-path="url(#pb17bde892e)" d="M 1090.016434 768.96 
L 1091.772378 768.96 
L 1091.772378 718.355709 
L 1090.016434 718.355709 
z
" style="fill:#1f77b4;"/>
   </g>
   <g id="patch_268">
    <path clip-path="url(#pb17bde892e)" d="M 1093.528322 768.96 
L 1095.284266 768.96 
L 1095.284266 695.25996 
L 1093.528322 695.25996 
z
" style="fill:#1f77b4;"/>
   </g>
   <g id="patch_269">
    <path clip-path="url(#pb17bde892e)" d="M 1097.04021 768.96 
L 1098.796154 768.96 
L 1098.796154 698.186276 
L 1097.04021 698.186276 
z
" style="fill:#1f77b4;"/>
   </g>
   <g id="patch_270">
    <path clip-path="url(#pb17bde892e)" d="M 1100.552098 768.96 
L 1102.308042 768.96 
L 1102.308042 712.095024 
L 1100.552098 712.095024 
z
" style="fill:#1f77b4;"/>
   </g>
   <g id="patch_271">
    <path clip-path="url(#pb17bde892e)" d="M 1104.063986 768.96 
L 1105.81993 768.96 
L 1105.81993 731.699013 
L 1104.063986 731.699013 
z
" style="fill:#1f77b4;"/>
   </g>
   <g id="patch_272">
    <path clip-path="url(#pb17bde892e)" d="M 1107.575874 768.96 
L 1109.331818 768.96 
L 1109.331818 722.290497 
L 1107.575874 722.290497 
z
" style="fill:#1f77b4;"/>
   </g>
   <g id="patch_273">
    <path clip-path="url(#pb17bde892e)" d="M 1111.087762 768.96 
L 1112.843706 768.96 
L 1112.843706 714.135284 
L 1111.087762 714.135284 
z
" style="fill:#1f77b4;"/>
   </g>
   <g id="patch_274">
    <path clip-path="url(#pb17bde892e)" d="M 1114.59965 768.96 
L 1116.355594 768.96 
L 1116.355594 729.396433 
L 1114.59965 729.396433 
z
" style="fill:#1f77b4;"/>
   </g>
   <g id="patch_275">
    <path clip-path="url(#pb17bde892e)" d="M 1118.111538 768.96 
L 1119.867483 768.96 
L 1119.867483 741.626338 
L 1118.111538 741.626338 
z
" style="fill:#1f77b4;"/>
   </g>
   <g id="patch_276">
    <path clip-path="url(#pb17bde892e)" d="M 1121.623427 768.96 
L 1123.379371 768.96 
L 1123.379371 700.902737 
L 1121.623427 700.902737 
z
" style="fill:#1f77b4;"/>
   </g>
   <g id="patch_277">
    <path clip-path="url(#pb17bde892e)" d="M 1125.135315 768.96 
L 1126.891259 768.96 
L 1126.891259 680.022128 
L 1125.135315 680.022128 
z
" style="fill:#1f77b4;"/>
   </g>
   <g id="patch_278">
    <path clip-path="url(#pb17bde892e)" d="M 1128.647203 768.96 
L 1130.403147 768.96 
L 1130.403147 738.041309 
L 1128.647203 738.041309 
z
" style="fill:#1f77b4;"/>
   </g>
   <g id="patch_279">
    <path clip-path="url(#pb17bde892e)" d="M 1132.159091 768.96 
L 1133.915035 768.96 
L 1133.915035 711.517921 
L 1132.159091 711.517921 
z
" style="fill:#1f77b4;"/>
   </g>
   <g id="patch_280">
    <path clip-path="url(#pb17bde892e)" d="M 1135.670979 768.96 
L 1137.426923 768.96 
L 1137.426923 736.292514 
L 1135.670979 736.292514 
z
" style="fill:#1f77b4;"/>
   </g>
   <g id="patch_281">
    <path clip-path="url(#pb17bde892e)" d="M 1139.182867 768.96 
L 1140.938811 768.96 
L 1140.938811 701.625572 
L 1139.182867 701.625572 
z
" style="fill:#1f77b4;"/>
   </g>
   <g id="patch_282">
    <path clip-path="url(#pb17bde892e)" d="M 1142.694755 768.96 
L 1144.450699 768.96 
L 1144.450699 723.100772 
L 1142.694755 723.100772 
z
" style="fill:#1f77b4;"/>
   </g>
   <g id="patch_283">
    <path clip-path="url(#pb17bde892e)" d="M 1146.206643 768.96 
L 1147.962587 768.96 
L 1147.962587 724.30744 
L 1146.206643 724.30744 
z
" style="fill:#1f77b4;"/>
   </g>
   <g id="patch_284">
    <path clip-path="url(#pb17bde892e)" d="M 1149.718531 768.96 
L 1151.474476 768.96 
L 1151.474476 737.557475 
L 1149.718531 737.557475 
z
" style="fill:#1f77b4;"/>
   </g>
   <g id="patch_285">
    <path clip-path="url(#pb17bde892e)" d="M 1153.23042 768.96 
L 1154.986364 768.96 
L 1154.986364 746.161546 
L 1153.23042 746.161546 
z
" style="fill:#1f77b4;"/>
   </g>
   <g id="patch_286">
    <path clip-path="url(#pb17bde892e)" d="M 1156.742308 768.96 
L 1158.498252 768.96 
L 1158.498252 737.51667 
L 1156.742308 737.51667 
z
" style="fill:#1f77b4;"/>
   </g>
   <g id="patch_287">
    <path clip-path="url(#pb17bde892e)" d="M 1160.254196 768.96 
L 1162.01014 768.96 
L 1162.01014 722.552816 
L 1160.254196 722.552816 
z
" style="fill:#1f77b4;"/>
   </g>
   <g id="patch_288">
    <path clip-path="url(#pb17bde892e)" d="M 1163.766084 768.96 
L 1165.522028 768.96 
L 1165.522028 718.559735 
L 1163.766084 718.559735 
z
" style="fill:#1f77b4;"/>
   </g>
   <g id="matplotlib.axis_1">
    <g id="xtick_1">
     <g id="line2d_1">
      <defs>
       <path d="M 0 0 
L 0 3.5 
" id="m916bd51d65" style="stroke:#000000;stroke-width:0.8;"/>
      </defs>
      <g>
       <use style="stroke:#000000;stroke-width:0.8;" x="163.755944" xlink:href="#m916bd51d65" y="768.96"/>
      </g>
     </g>
     <g id="text_1">
      <!-- January -->
      <g transform="translate(144.800475 783.558437)scale(0.1 -0.1)">
       <defs>
        <path d="M 628 4666 
L 1259 4666 
L 1259 325 
Q 1259 -519 939 -900 
Q 619 -1281 -91 -1281 
L -331 -1281 
L -331 -750 
L -134 -750 
Q 284 -750 456 -515 
Q 628 -281 628 325 
L 628 4666 
z
" id="DejaVuSans-4a" transform="scale(0.015625)"/>
        <path d="M 2194 1759 
Q 1497 1759 1228 1600 
Q 959 1441 959 1056 
Q 959 750 1161 570 
Q 1363 391 1709 391 
Q 2188 391 2477 730 
Q 2766 1069 2766 1631 
L 2766 1759 
L 2194 1759 
z
M 3341 1997 
L 3341 0 
L 2766 0 
L 2766 531 
Q 2569 213 2275 61 
Q 1981 -91 1556 -91 
Q 1019 -91 701 211 
Q 384 513 384 1019 
Q 384 1609 779 1909 
Q 1175 2209 1959 2209 
L 2766 2209 
L 2766 2266 
Q 2766 2663 2505 2880 
Q 2244 3097 1772 3097 
Q 1472 3097 1187 3025 
Q 903 2953 641 2809 
L 641 3341 
Q 956 3463 1253 3523 
Q 1550 3584 1831 3584 
Q 2591 3584 2966 3190 
Q 3341 2797 3341 1997 
z
" id="DejaVuSans-61" transform="scale(0.015625)"/>
        <path d="M 3513 2113 
L 3513 0 
L 2938 0 
L 2938 2094 
Q 2938 2591 2744 2837 
Q 2550 3084 2163 3084 
Q 1697 3084 1428 2787 
Q 1159 2491 1159 1978 
L 1159 0 
L 581 0 
L 581 3500 
L 1159 3500 
L 1159 2956 
Q 1366 3272 1645 3428 
Q 1925 3584 2291 3584 
Q 2894 3584 3203 3211 
Q 3513 2838 3513 2113 
z
" id="DejaVuSans-6e" transform="scale(0.015625)"/>
        <path d="M 544 1381 
L 544 3500 
L 1119 3500 
L 1119 1403 
Q 1119 906 1312 657 
Q 1506 409 1894 409 
Q 2359 409 2629 706 
Q 2900 1003 2900 1516 
L 2900 3500 
L 3475 3500 
L 3475 0 
L 2900 0 
L 2900 538 
Q 2691 219 2414 64 
Q 2138 -91 1772 -91 
Q 1169 -91 856 284 
Q 544 659 544 1381 
z
M 1991 3584 
L 1991 3584 
z
" id="DejaVuSans-75" transform="scale(0.015625)"/>
        <path d="M 2631 2963 
Q 2534 3019 2420 3045 
Q 2306 3072 2169 3072 
Q 1681 3072 1420 2755 
Q 1159 2438 1159 1844 
L 1159 0 
L 581 0 
L 581 3500 
L 1159 3500 
L 1159 2956 
Q 1341 3275 1631 3429 
Q 1922 3584 2338 3584 
Q 2397 3584 2469 3576 
Q 2541 3569 2628 3553 
L 2631 2963 
z
" id="DejaVuSans-72" transform="scale(0.015625)"/>
        <path d="M 2059 -325 
Q 1816 -950 1584 -1140 
Q 1353 -1331 966 -1331 
L 506 -1331 
L 506 -850 
L 844 -850 
Q 1081 -850 1212 -737 
Q 1344 -625 1503 -206 
L 1606 56 
L 191 3500 
L 800 3500 
L 1894 763 
L 2988 3500 
L 3597 3500 
L 2059 -325 
z
" id="DejaVuSans-79" transform="scale(0.015625)"/>
       </defs>
       <use xlink:href="#DejaVuSans-4a"/>
       <use x="29.492188" xlink:href="#DejaVuSans-61"/>
       <use x="90.771484" xlink:href="#DejaVuSans-6e"/>
       <use x="154.150391" xlink:href="#DejaVuSans-75"/>
       <use x="217.529297" xlink:href="#DejaVuSans-61"/>
       <use x="278.808594" xlink:href="#DejaVuSans-72"/>
       <use x="319.921875" xlink:href="#DejaVuSans-79"/>
      </g>
     </g>
    </g>
    <g id="xtick_2">
     <g id="line2d_2">
      <g>
       <use style="stroke:#000000;stroke-width:0.8;" x="272.624476" xlink:href="#m916bd51d65" y="768.96"/>
      </g>
     </g>
     <g id="text_2">
      <!-- February -->
      <g transform="translate(250.469788 783.558437)scale(0.1 -0.1)">
       <defs>
        <path d="M 628 4666 
L 3309 4666 
L 3309 4134 
L 1259 4134 
L 1259 2759 
L 3109 2759 
L 3109 2228 
L 1259 2228 
L 1259 0 
L 628 0 
L 628 4666 
z
" id="DejaVuSans-46" transform="scale(0.015625)"/>
        <path d="M 3597 1894 
L 3597 1613 
L 953 1613 
Q 991 1019 1311 708 
Q 1631 397 2203 397 
Q 2534 397 2845 478 
Q 3156 559 3463 722 
L 3463 178 
Q 3153 47 2828 -22 
Q 2503 -91 2169 -91 
Q 1331 -91 842 396 
Q 353 884 353 1716 
Q 353 2575 817 3079 
Q 1281 3584 2069 3584 
Q 2775 3584 3186 3129 
Q 3597 2675 3597 1894 
z
M 3022 2063 
Q 3016 2534 2758 2815 
Q 2500 3097 2075 3097 
Q 1594 3097 1305 2825 
Q 1016 2553 972 2059 
L 3022 2063 
z
" id="DejaVuSans-65" transform="scale(0.015625)"/>
        <path d="M 3116 1747 
Q 3116 2381 2855 2742 
Q 2594 3103 2138 3103 
Q 1681 3103 1420 2742 
Q 1159 2381 1159 1747 
Q 1159 1113 1420 752 
Q 1681 391 2138 391 
Q 2594 391 2855 752 
Q 3116 1113 3116 1747 
z
M 1159 2969 
Q 1341 3281 1617 3432 
Q 1894 3584 2278 3584 
Q 2916 3584 3314 3078 
Q 3713 2572 3713 1747 
Q 3713 922 3314 415 
Q 2916 -91 2278 -91 
Q 1894 -91 1617 61 
Q 1341 213 1159 525 
L 1159 0 
L 581 0 
L 581 4863 
L 1159 4863 
L 1159 2969 
z
" id="DejaVuSans-62" transform="scale(0.015625)"/>
       </defs>
       <use xlink:href="#DejaVuSans-46"/>
       <use x="52.019531" xlink:href="#DejaVuSans-65"/>
       <use x="113.542969" xlink:href="#DejaVuSans-62"/>
       <use x="177.019531" xlink:href="#DejaVuSans-72"/>
       <use x="218.132812" xlink:href="#DejaVuSans-75"/>
       <use x="281.511719" xlink:href="#DejaVuSans-61"/>
       <use x="342.791016" xlink:href="#DejaVuSans-72"/>
       <use x="383.904297" xlink:href="#DejaVuSans-79"/>
      </g>
     </g>
    </g>
    <g id="xtick_3">
     <g id="line2d_3">
      <g>
       <use style="stroke:#000000;stroke-width:0.8;" x="370.957343" xlink:href="#m916bd51d65" y="768.96"/>
      </g>
     </g>
     <g id="text_3">
      <!-- March -->
      <g transform="translate(355.71828 783.558437)scale(0.1 -0.1)">
       <defs>
        <path d="M 628 4666 
L 1569 4666 
L 2759 1491 
L 3956 4666 
L 4897 4666 
L 4897 0 
L 4281 0 
L 4281 4097 
L 3078 897 
L 2444 897 
L 1241 4097 
L 1241 0 
L 628 0 
L 628 4666 
z
" id="DejaVuSans-4d" transform="scale(0.015625)"/>
        <path d="M 3122 3366 
L 3122 2828 
Q 2878 2963 2633 3030 
Q 2388 3097 2138 3097 
Q 1578 3097 1268 2742 
Q 959 2388 959 1747 
Q 959 1106 1268 751 
Q 1578 397 2138 397 
Q 2388 397 2633 464 
Q 2878 531 3122 666 
L 3122 134 
Q 2881 22 2623 -34 
Q 2366 -91 2075 -91 
Q 1284 -91 818 406 
Q 353 903 353 1747 
Q 353 2603 823 3093 
Q 1294 3584 2113 3584 
Q 2378 3584 2631 3529 
Q 2884 3475 3122 3366 
z
" id="DejaVuSans-63" transform="scale(0.015625)"/>
        <path d="M 3513 2113 
L 3513 0 
L 2938 0 
L 2938 2094 
Q 2938 2591 2744 2837 
Q 2550 3084 2163 3084 
Q 1697 3084 1428 2787 
Q 1159 2491 1159 1978 
L 1159 0 
L 581 0 
L 581 4863 
L 1159 4863 
L 1159 2956 
Q 1366 3272 1645 3428 
Q 1925 3584 2291 3584 
Q 2894 3584 3203 3211 
Q 3513 2838 3513 2113 
z
" id="DejaVuSans-68" transform="scale(0.015625)"/>
       </defs>
       <use xlink:href="#DejaVuSans-4d"/>
       <use x="86.279297" xlink:href="#DejaVuSans-61"/>
       <use x="147.558594" xlink:href="#DejaVuSans-72"/>
       <use x="186.421875" xlink:href="#DejaVuSans-63"/>
       <use x="241.402344" xlink:href="#DejaVuSans-68"/>
      </g>
     </g>
    </g>
    <g id="xtick_4">
     <g id="line2d_4">
      <g>
       <use style="stroke:#000000;stroke-width:0.8;" x="479.825874" xlink:href="#m916bd51d65" y="768.96"/>
      </g>
     </g>
     <g id="text_4">
      <!-- April -->
      <g transform="translate(468.397749 783.558437)scale(0.1 -0.1)">
       <defs>
        <path d="M 2188 4044 
L 1331 1722 
L 3047 1722 
L 2188 4044 
z
M 1831 4666 
L 2547 4666 
L 4325 0 
L 3669 0 
L 3244 1197 
L 1141 1197 
L 716 0 
L 50 0 
L 1831 4666 
z
" id="DejaVuSans-41" transform="scale(0.015625)"/>
        <path d="M 1159 525 
L 1159 -1331 
L 581 -1331 
L 581 3500 
L 1159 3500 
L 1159 2969 
Q 1341 3281 1617 3432 
Q 1894 3584 2278 3584 
Q 2916 3584 3314 3078 
Q 3713 2572 3713 1747 
Q 3713 922 3314 415 
Q 2916 -91 2278 -91 
Q 1894 -91 1617 61 
Q 1341 213 1159 525 
z
M 3116 1747 
Q 3116 2381 2855 2742 
Q 2594 3103 2138 3103 
Q 1681 3103 1420 2742 
Q 1159 2381 1159 1747 
Q 1159 1113 1420 752 
Q 1681 391 2138 391 
Q 2594 391 2855 752 
Q 3116 1113 3116 1747 
z
" id="DejaVuSans-70" transform="scale(0.015625)"/>
        <path d="M 603 3500 
L 1178 3500 
L 1178 0 
L 603 0 
L 603 3500 
z
M 603 4863 
L 1178 4863 
L 1178 4134 
L 603 4134 
L 603 4863 
z
" id="DejaVuSans-69" transform="scale(0.015625)"/>
        <path d="M 603 4863 
L 1178 4863 
L 1178 0 
L 603 0 
L 603 4863 
z
" id="DejaVuSans-6c" transform="scale(0.015625)"/>
       </defs>
       <use xlink:href="#DejaVuSans-41"/>
       <use x="68.408203" xlink:href="#DejaVuSans-70"/>
       <use x="131.884766" xlink:href="#DejaVuSans-72"/>
       <use x="172.998047" xlink:href="#DejaVuSans-69"/>
       <use x="200.78125" xlink:href="#DejaVuSans-6c"/>
      </g>
     </g>
    </g>
    <g id="xtick_5">
     <g id="line2d_5">
      <g>
       <use style="stroke:#000000;stroke-width:0.8;" x="585.182517" xlink:href="#m916bd51d65" y="768.96"/>
      </g>
     </g>
     <g id="text_5">
      <!-- May -->
      <g transform="translate(574.845017 783.558437)scale(0.1 -0.1)">
       <use xlink:href="#DejaVuSans-4d"/>
       <use x="86.279297" xlink:href="#DejaVuSans-61"/>
       <use x="147.558594" xlink:href="#DejaVuSans-79"/>
      </g>
     </g>
    </g>
    <g id="xtick_6">
     <g id="line2d_6">
      <g>
       <use style="stroke:#000000;stroke-width:0.8;" x="694.051049" xlink:href="#m916bd51d65" y="768.96"/>
      </g>
     </g>
     <g id="text_6">
      <!-- June -->
      <g transform="translate(683.161986 783.558437)scale(0.1 -0.1)">
       <use xlink:href="#DejaVuSans-4a"/>
       <use x="29.492188" xlink:href="#DejaVuSans-75"/>
       <use x="92.871094" xlink:href="#DejaVuSans-6e"/>
       <use x="156.25" xlink:href="#DejaVuSans-65"/>
      </g>
     </g>
    </g>
    <g id="xtick_7">
     <g id="line2d_7">
      <g>
       <use style="stroke:#000000;stroke-width:0.8;" x="799.407692" xlink:href="#m916bd51d65" y="768.96"/>
      </g>
     </g>
     <g id="text_7">
      <!-- July -->
      <g transform="translate(790.415505 783.558437)scale(0.1 -0.1)">
       <use xlink:href="#DejaVuSans-4a"/>
       <use x="29.492188" xlink:href="#DejaVuSans-75"/>
       <use x="92.871094" xlink:href="#DejaVuSans-6c"/>
       <use x="120.654297" xlink:href="#DejaVuSans-79"/>
      </g>
     </g>
    </g>
    <g id="xtick_8">
     <g id="line2d_8">
      <g>
       <use style="stroke:#000000;stroke-width:0.8;" x="908.276224" xlink:href="#m916bd51d65" y="768.96"/>
      </g>
     </g>
     <g id="text_8">
      <!-- August -->
      <g transform="translate(890.779349 783.558437)scale(0.1 -0.1)">
       <defs>
        <path d="M 2906 1791 
Q 2906 2416 2648 2759 
Q 2391 3103 1925 3103 
Q 1463 3103 1205 2759 
Q 947 2416 947 1791 
Q 947 1169 1205 825 
Q 1463 481 1925 481 
Q 2391 481 2648 825 
Q 2906 1169 2906 1791 
z
M 3481 434 
Q 3481 -459 3084 -895 
Q 2688 -1331 1869 -1331 
Q 1566 -1331 1297 -1286 
Q 1028 -1241 775 -1147 
L 775 -588 
Q 1028 -725 1275 -790 
Q 1522 -856 1778 -856 
Q 2344 -856 2625 -561 
Q 2906 -266 2906 331 
L 2906 616 
Q 2728 306 2450 153 
Q 2172 0 1784 0 
Q 1141 0 747 490 
Q 353 981 353 1791 
Q 353 2603 747 3093 
Q 1141 3584 1784 3584 
Q 2172 3584 2450 3431 
Q 2728 3278 2906 2969 
L 2906 3500 
L 3481 3500 
L 3481 434 
z
" id="DejaVuSans-67" transform="scale(0.015625)"/>
        <path d="M 2834 3397 
L 2834 2853 
Q 2591 2978 2328 3040 
Q 2066 3103 1784 3103 
Q 1356 3103 1142 2972 
Q 928 2841 928 2578 
Q 928 2378 1081 2264 
Q 1234 2150 1697 2047 
L 1894 2003 
Q 2506 1872 2764 1633 
Q 3022 1394 3022 966 
Q 3022 478 2636 193 
Q 2250 -91 1575 -91 
Q 1294 -91 989 -36 
Q 684 19 347 128 
L 347 722 
Q 666 556 975 473 
Q 1284 391 1588 391 
Q 1994 391 2212 530 
Q 2431 669 2431 922 
Q 2431 1156 2273 1281 
Q 2116 1406 1581 1522 
L 1381 1569 
Q 847 1681 609 1914 
Q 372 2147 372 2553 
Q 372 3047 722 3315 
Q 1072 3584 1716 3584 
Q 2034 3584 2315 3537 
Q 2597 3491 2834 3397 
z
" id="DejaVuSans-73" transform="scale(0.015625)"/>
        <path d="M 1172 4494 
L 1172 3500 
L 2356 3500 
L 2356 3053 
L 1172 3053 
L 1172 1153 
Q 1172 725 1289 603 
Q 1406 481 1766 481 
L 2356 481 
L 2356 0 
L 1766 0 
Q 1100 0 847 248 
Q 594 497 594 1153 
L 594 3053 
L 172 3053 
L 172 3500 
L 594 3500 
L 594 4494 
L 1172 4494 
z
" id="DejaVuSans-74" transform="scale(0.015625)"/>
       </defs>
       <use xlink:href="#DejaVuSans-41"/>
       <use x="68.408203" xlink:href="#DejaVuSans-75"/>
       <use x="131.787109" xlink:href="#DejaVuSans-67"/>
       <use x="195.263672" xlink:href="#DejaVuSans-75"/>
       <use x="258.642578" xlink:href="#DejaVuSans-73"/>
       <use x="310.742188" xlink:href="#DejaVuSans-74"/>
      </g>
     </g>
    </g>
    <g id="xtick_9">
     <g id="line2d_9">
      <g>
       <use style="stroke:#000000;stroke-width:0.8;" x="1017.144755" xlink:href="#m916bd51d65" y="768.96"/>
      </g>
     </g>
     <g id="text_9">
      <!-- September -->
      <g transform="translate(989.506474 783.558437)scale(0.1 -0.1)">
       <defs>
        <path d="M 3425 4513 
L 3425 3897 
Q 3066 4069 2747 4153 
Q 2428 4238 2131 4238 
Q 1616 4238 1336 4038 
Q 1056 3838 1056 3469 
Q 1056 3159 1242 3001 
Q 1428 2844 1947 2747 
L 2328 2669 
Q 3034 2534 3370 2195 
Q 3706 1856 3706 1288 
Q 3706 609 3251 259 
Q 2797 -91 1919 -91 
Q 1588 -91 1214 -16 
Q 841 59 441 206 
L 441 856 
Q 825 641 1194 531 
Q 1563 422 1919 422 
Q 2459 422 2753 634 
Q 3047 847 3047 1241 
Q 3047 1584 2836 1778 
Q 2625 1972 2144 2069 
L 1759 2144 
Q 1053 2284 737 2584 
Q 422 2884 422 3419 
Q 422 4038 858 4394 
Q 1294 4750 2059 4750 
Q 2388 4750 2728 4690 
Q 3069 4631 3425 4513 
z
" id="DejaVuSans-53" transform="scale(0.015625)"/>
        <path d="M 3328 2828 
Q 3544 3216 3844 3400 
Q 4144 3584 4550 3584 
Q 5097 3584 5394 3201 
Q 5691 2819 5691 2113 
L 5691 0 
L 5113 0 
L 5113 2094 
Q 5113 2597 4934 2840 
Q 4756 3084 4391 3084 
Q 3944 3084 3684 2787 
Q 3425 2491 3425 1978 
L 3425 0 
L 2847 0 
L 2847 2094 
Q 2847 2600 2669 2842 
Q 2491 3084 2119 3084 
Q 1678 3084 1418 2786 
Q 1159 2488 1159 1978 
L 1159 0 
L 581 0 
L 581 3500 
L 1159 3500 
L 1159 2956 
Q 1356 3278 1631 3431 
Q 1906 3584 2284 3584 
Q 2666 3584 2933 3390 
Q 3200 3197 3328 2828 
z
" id="DejaVuSans-6d" transform="scale(0.015625)"/>
       </defs>
       <use xlink:href="#DejaVuSans-53"/>
       <use x="63.476562" xlink:href="#DejaVuSans-65"/>
       <use x="125" xlink:href="#DejaVuSans-70"/>
       <use x="188.476562" xlink:href="#DejaVuSans-74"/>
       <use x="227.685547" xlink:href="#DejaVuSans-65"/>
       <use x="289.208984" xlink:href="#DejaVuSans-6d"/>
       <use x="386.621094" xlink:href="#DejaVuSans-62"/>
       <use x="450.097656" xlink:href="#DejaVuSans-65"/>
       <use x="511.621094" xlink:href="#DejaVuSans-72"/>
      </g>
     </g>
    </g>
    <g id="xtick_10">
     <g id="line2d_10">
      <g>
       <use style="stroke:#000000;stroke-width:0.8;" x="1122.501399" xlink:href="#m916bd51d65" y="768.96"/>
      </g>
     </g>
     <g id="text_10">
      <!-- October -->
      <g transform="translate(1102.490461 783.558437)scale(0.1 -0.1)">
       <defs>
        <path d="M 2522 4238 
Q 1834 4238 1429 3725 
Q 1025 3213 1025 2328 
Q 1025 1447 1429 934 
Q 1834 422 2522 422 
Q 3209 422 3611 934 
Q 4013 1447 4013 2328 
Q 4013 3213 3611 3725 
Q 3209 4238 2522 4238 
z
M 2522 4750 
Q 3503 4750 4090 4092 
Q 4678 3434 4678 2328 
Q 4678 1225 4090 567 
Q 3503 -91 2522 -91 
Q 1538 -91 948 565 
Q 359 1222 359 2328 
Q 359 3434 948 4092 
Q 1538 4750 2522 4750 
z
" id="DejaVuSans-4f" transform="scale(0.015625)"/>
        <path d="M 1959 3097 
Q 1497 3097 1228 2736 
Q 959 2375 959 1747 
Q 959 1119 1226 758 
Q 1494 397 1959 397 
Q 2419 397 2687 759 
Q 2956 1122 2956 1747 
Q 2956 2369 2687 2733 
Q 2419 3097 1959 3097 
z
M 1959 3584 
Q 2709 3584 3137 3096 
Q 3566 2609 3566 1747 
Q 3566 888 3137 398 
Q 2709 -91 1959 -91 
Q 1206 -91 779 398 
Q 353 888 353 1747 
Q 353 2609 779 3096 
Q 1206 3584 1959 3584 
z
" id="DejaVuSans-6f" transform="scale(0.015625)"/>
       </defs>
       <use xlink:href="#DejaVuSans-4f"/>
       <use x="78.710938" xlink:href="#DejaVuSans-63"/>
       <use x="133.691406" xlink:href="#DejaVuSans-74"/>
       <use x="172.900391" xlink:href="#DejaVuSans-6f"/>
       <use x="234.082031" xlink:href="#DejaVuSans-62"/>
       <use x="297.558594" xlink:href="#DejaVuSans-65"/>
       <use x="359.082031" xlink:href="#DejaVuSans-72"/>
      </g>
     </g>
    </g>
   </g>
   <g id="matplotlib.axis_2">
    <g id="ytick_1">
     <g id="line2d_11">
      <defs>
       <path d="M 0 0 
L -3.5 0 
" id="mc76b6bd05b" style="stroke:#000000;stroke-width:0.8;"/>
      </defs>
      <g>
       <use style="stroke:#000000;stroke-width:0.8;" x="162" xlink:href="#mc76b6bd05b" y="768.96"/>
      </g>
     </g>
     <g id="text_11">
      <!-- 0 -->
      <g transform="translate(148.6375 772.759219)scale(0.1 -0.1)">
       <defs>
        <path d="M 2034 4250 
Q 1547 4250 1301 3770 
Q 1056 3291 1056 2328 
Q 1056 1369 1301 889 
Q 1547 409 2034 409 
Q 2525 409 2770 889 
Q 3016 1369 3016 2328 
Q 3016 3291 2770 3770 
Q 2525 4250 2034 4250 
z
M 2034 4750 
Q 2819 4750 3233 4129 
Q 3647 3509 3647 2328 
Q 3647 1150 3233 529 
Q 2819 -91 2034 -91 
Q 1250 -91 836 529 
Q 422 1150 422 2328 
Q 422 3509 836 4129 
Q 1250 4750 2034 4750 
z
" id="DejaVuSans-30" transform="scale(0.015625)"/>
       </defs>
       <use xlink:href="#DejaVuSans-30"/>
      </g>
     </g>
    </g>
    <g id="ytick_2">
     <g id="line2d_12">
      <g>
       <use style="stroke:#000000;stroke-width:0.8;" x="162" xlink:href="#mc76b6bd05b" y="652.373683"/>
      </g>
     </g>
     <g id="text_12">
      <!-- 20000 -->
      <g transform="translate(123.1875 656.172901)scale(0.1 -0.1)">
       <defs>
        <path d="M 1228 531 
L 3431 531 
L 3431 0 
L 469 0 
L 469 531 
Q 828 903 1448 1529 
Q 2069 2156 2228 2338 
Q 2531 2678 2651 2914 
Q 2772 3150 2772 3378 
Q 2772 3750 2511 3984 
Q 2250 4219 1831 4219 
Q 1534 4219 1204 4116 
Q 875 4013 500 3803 
L 500 4441 
Q 881 4594 1212 4672 
Q 1544 4750 1819 4750 
Q 2544 4750 2975 4387 
Q 3406 4025 3406 3419 
Q 3406 3131 3298 2873 
Q 3191 2616 2906 2266 
Q 2828 2175 2409 1742 
Q 1991 1309 1228 531 
z
" id="DejaVuSans-32" transform="scale(0.015625)"/>
       </defs>
       <use xlink:href="#DejaVuSans-32"/>
       <use x="63.623047" xlink:href="#DejaVuSans-30"/>
       <use x="127.246094" xlink:href="#DejaVuSans-30"/>
       <use x="190.869141" xlink:href="#DejaVuSans-30"/>
       <use x="254.492188" xlink:href="#DejaVuSans-30"/>
      </g>
     </g>
    </g>
    <g id="ytick_3">
     <g id="line2d_13">
      <g>
       <use style="stroke:#000000;stroke-width:0.8;" x="162" xlink:href="#mc76b6bd05b" y="535.787365"/>
      </g>
     </g>
     <g id="text_13">
      <!-- 40000 -->
      <g transform="translate(123.1875 539.586584)scale(0.1 -0.1)">
       <defs>
        <path d="M 2419 4116 
L 825 1625 
L 2419 1625 
L 2419 4116 
z
M 2253 4666 
L 3047 4666 
L 3047 1625 
L 3713 1625 
L 3713 1100 
L 3047 1100 
L 3047 0 
L 2419 0 
L 2419 1100 
L 313 1100 
L 313 1709 
L 2253 4666 
z
" id="DejaVuSans-34" transform="scale(0.015625)"/>
       </defs>
       <use xlink:href="#DejaVuSans-34"/>
       <use x="63.623047" xlink:href="#DejaVuSans-30"/>
       <use x="127.246094" xlink:href="#DejaVuSans-30"/>
       <use x="190.869141" xlink:href="#DejaVuSans-30"/>
       <use x="254.492188" xlink:href="#DejaVuSans-30"/>
      </g>
     </g>
    </g>
    <g id="ytick_4">
     <g id="line2d_14">
      <g>
       <use style="stroke:#000000;stroke-width:0.8;" x="162" xlink:href="#mc76b6bd05b" y="419.201048"/>
      </g>
     </g>
     <g id="text_14">
      <!-- 60000 -->
      <g transform="translate(123.1875 423.000267)scale(0.1 -0.1)">
       <defs>
        <path d="M 2113 2584 
Q 1688 2584 1439 2293 
Q 1191 2003 1191 1497 
Q 1191 994 1439 701 
Q 1688 409 2113 409 
Q 2538 409 2786 701 
Q 3034 994 3034 1497 
Q 3034 2003 2786 2293 
Q 2538 2584 2113 2584 
z
M 3366 4563 
L 3366 3988 
Q 3128 4100 2886 4159 
Q 2644 4219 2406 4219 
Q 1781 4219 1451 3797 
Q 1122 3375 1075 2522 
Q 1259 2794 1537 2939 
Q 1816 3084 2150 3084 
Q 2853 3084 3261 2657 
Q 3669 2231 3669 1497 
Q 3669 778 3244 343 
Q 2819 -91 2113 -91 
Q 1303 -91 875 529 
Q 447 1150 447 2328 
Q 447 3434 972 4092 
Q 1497 4750 2381 4750 
Q 2619 4750 2861 4703 
Q 3103 4656 3366 4563 
z
" id="DejaVuSans-36" transform="scale(0.015625)"/>
       </defs>
       <use xlink:href="#DejaVuSans-36"/>
       <use x="63.623047" xlink:href="#DejaVuSans-30"/>
       <use x="127.246094" xlink:href="#DejaVuSans-30"/>
       <use x="190.869141" xlink:href="#DejaVuSans-30"/>
       <use x="254.492188" xlink:href="#DejaVuSans-30"/>
      </g>
     </g>
    </g>
    <g id="ytick_5">
     <g id="line2d_15">
      <g>
       <use style="stroke:#000000;stroke-width:0.8;" x="162" xlink:href="#mc76b6bd05b" y="302.614731"/>
      </g>
     </g>
     <g id="text_15">
      <!-- 80000 -->
      <g transform="translate(123.1875 306.41395)scale(0.1 -0.1)">
       <defs>
        <path d="M 2034 2216 
Q 1584 2216 1326 1975 
Q 1069 1734 1069 1313 
Q 1069 891 1326 650 
Q 1584 409 2034 409 
Q 2484 409 2743 651 
Q 3003 894 3003 1313 
Q 3003 1734 2745 1975 
Q 2488 2216 2034 2216 
z
M 1403 2484 
Q 997 2584 770 2862 
Q 544 3141 544 3541 
Q 544 4100 942 4425 
Q 1341 4750 2034 4750 
Q 2731 4750 3128 4425 
Q 3525 4100 3525 3541 
Q 3525 3141 3298 2862 
Q 3072 2584 2669 2484 
Q 3125 2378 3379 2068 
Q 3634 1759 3634 1313 
Q 3634 634 3220 271 
Q 2806 -91 2034 -91 
Q 1263 -91 848 271 
Q 434 634 434 1313 
Q 434 1759 690 2068 
Q 947 2378 1403 2484 
z
M 1172 3481 
Q 1172 3119 1398 2916 
Q 1625 2713 2034 2713 
Q 2441 2713 2670 2916 
Q 2900 3119 2900 3481 
Q 2900 3844 2670 4047 
Q 2441 4250 2034 4250 
Q 1625 4250 1398 4047 
Q 1172 3844 1172 3481 
z
" id="DejaVuSans-38" transform="scale(0.015625)"/>
       </defs>
       <use xlink:href="#DejaVuSans-38"/>
       <use x="63.623047" xlink:href="#DejaVuSans-30"/>
       <use x="127.246094" xlink:href="#DejaVuSans-30"/>
       <use x="190.869141" xlink:href="#DejaVuSans-30"/>
       <use x="254.492188" xlink:href="#DejaVuSans-30"/>
      </g>
     </g>
    </g>
    <g id="ytick_6">
     <g id="line2d_16">
      <g>
       <use style="stroke:#000000;stroke-width:0.8;" x="162" xlink:href="#mc76b6bd05b" y="186.028413"/>
      </g>
     </g>
     <g id="text_16">
      <!-- 100000 -->
      <g transform="translate(116.825 189.827632)scale(0.1 -0.1)">
       <defs>
        <path d="M 794 531 
L 1825 531 
L 1825 4091 
L 703 3866 
L 703 4441 
L 1819 4666 
L 2450 4666 
L 2450 531 
L 3481 531 
L 3481 0 
L 794 0 
L 794 531 
z
" id="DejaVuSans-31" transform="scale(0.015625)"/>
       </defs>
       <use xlink:href="#DejaVuSans-31"/>
       <use x="63.623047" xlink:href="#DejaVuSans-30"/>
       <use x="127.246094" xlink:href="#DejaVuSans-30"/>
       <use x="190.869141" xlink:href="#DejaVuSans-30"/>
       <use x="254.492188" xlink:href="#DejaVuSans-30"/>
       <use x="318.115234" xlink:href="#DejaVuSans-30"/>
      </g>
     </g>
    </g>
    <g id="text_17">
     <!-- Persons fully vaccinated -->
     <g transform="translate(110.745312 496.922344)rotate(-90)scale(0.1 -0.1)">
      <defs>
       <path d="M 1259 4147 
L 1259 2394 
L 2053 2394 
Q 2494 2394 2734 2622 
Q 2975 2850 2975 3272 
Q 2975 3691 2734 3919 
Q 2494 4147 2053 4147 
L 1259 4147 
z
M 628 4666 
L 2053 4666 
Q 2838 4666 3239 4311 
Q 3641 3956 3641 3272 
Q 3641 2581 3239 2228 
Q 2838 1875 2053 1875 
L 1259 1875 
L 1259 0 
L 628 0 
L 628 4666 
z
" id="DejaVuSans-50" transform="scale(0.015625)"/>
       <path id="DejaVuSans-20" transform="scale(0.015625)"/>
       <path d="M 2375 4863 
L 2375 4384 
L 1825 4384 
Q 1516 4384 1395 4259 
Q 1275 4134 1275 3809 
L 1275 3500 
L 2222 3500 
L 2222 3053 
L 1275 3053 
L 1275 0 
L 697 0 
L 697 3053 
L 147 3053 
L 147 3500 
L 697 3500 
L 697 3744 
Q 697 4328 969 4595 
Q 1241 4863 1831 4863 
L 2375 4863 
z
" id="DejaVuSans-66" transform="scale(0.015625)"/>
       <path d="M 191 3500 
L 800 3500 
L 1894 563 
L 2988 3500 
L 3597 3500 
L 2284 0 
L 1503 0 
L 191 3500 
z
" id="DejaVuSans-76" transform="scale(0.015625)"/>
       <path d="M 2906 2969 
L 2906 4863 
L 3481 4863 
L 3481 0 
L 2906 0 
L 2906 525 
Q 2725 213 2448 61 
Q 2172 -91 1784 -91 
Q 1150 -91 751 415 
Q 353 922 353 1747 
Q 353 2572 751 3078 
Q 1150 3584 1784 3584 
Q 2172 3584 2448 3432 
Q 2725 3281 2906 2969 
z
M 947 1747 
Q 947 1113 1208 752 
Q 1469 391 1925 391 
Q 2381 391 2643 752 
Q 2906 1113 2906 1747 
Q 2906 2381 2643 2742 
Q 2381 3103 1925 3103 
Q 1469 3103 1208 2742 
Q 947 2381 947 1747 
z
" id="DejaVuSans-64" transform="scale(0.015625)"/>
      </defs>
      <use xlink:href="#DejaVuSans-50"/>
      <use x="56.677734" xlink:href="#DejaVuSans-65"/>
      <use x="118.201172" xlink:href="#DejaVuSans-72"/>
      <use x="159.314453" xlink:href="#DejaVuSans-73"/>
      <use x="211.414062" xlink:href="#DejaVuSans-6f"/>
      <use x="272.595703" xlink:href="#DejaVuSans-6e"/>
      <use x="335.974609" xlink:href="#DejaVuSans-73"/>
      <use x="388.074219" xlink:href="#DejaVuSans-20"/>
      <use x="419.861328" xlink:href="#DejaVuSans-66"/>
      <use x="455.066406" xlink:href="#DejaVuSans-75"/>
      <use x="518.445312" xlink:href="#DejaVuSans-6c"/>
      <use x="546.228516" xlink:href="#DejaVuSans-6c"/>
      <use x="574.011719" xlink:href="#DejaVuSans-79"/>
      <use x="633.191406" xlink:href="#DejaVuSans-20"/>
      <use x="664.978516" xlink:href="#DejaVuSans-76"/>
      <use x="724.158203" xlink:href="#DejaVuSans-61"/>
      <use x="785.4375" xlink:href="#DejaVuSans-63"/>
      <use x="840.417969" xlink:href="#DejaVuSans-63"/>
      <use x="895.398438" xlink:href="#DejaVuSans-69"/>
      <use x="923.181641" xlink:href="#DejaVuSans-6e"/>
      <use x="986.560547" xlink:href="#DejaVuSans-61"/>
      <use x="1047.839844" xlink:href="#DejaVuSans-74"/>
      <use x="1087.048828" xlink:href="#DejaVuSans-65"/>
      <use x="1148.572266" xlink:href="#DejaVuSans-64"/>
     </g>
    </g>
   </g>
   <g id="line2d_17">
    <path clip-path="url(#pb17bde892e)" d="M 223.458042 743.697411 
L 226.96993 743.473398 
L 230.481818 744.731698 
L 233.993706 741.204962 
L 237.505594 740.312244 
L 241.017483 738.203697 
L 244.529371 733.749267 
L 248.041259 725.707309 
L 251.553147 717.094078 
L 255.065035 710.696821 
L 258.576923 703.953968 
L 262.088811 699.337982 
L 265.600699 698.283709 
L 269.112587 698.351995 
L 272.624476 695.842058 
L 276.136364 700.977686 
L 279.648252 700.785318 
L 283.16014 701.357424 
L 286.672028 698.169621 
L 290.183916 698.535202 
L 293.695804 694.383064 
L 297.207692 695.119223 
L 300.71958 689.291573 
L 304.231469 679.487496 
L 307.743357 670.378774 
L 311.255245 667.390833 
L 314.767133 663.800807 
L 318.279021 667.891322 
L 321.790909 668.798197 
L 325.302797 663.999837 
L 328.814685 660.12584 
L 332.326573 654.261548 
L 335.838462 662.983038 
L 339.35035 650.320931 
L 342.862238 641.945869 
L 346.374126 632.093493 
L 349.886014 609.778039 
L 353.397902 593.146168 
L 356.90979 580.687254 
L 360.421678 550.635466 
L 363.933566 553.759979 
L 367.445455 544.377279 
L 370.957343 534.281736 
L 374.469231 540.07108 
L 377.981119 528.727231 
L 381.493007 514.481216 
L 385.004895 508.88424 
L 388.516783 512.841513 
L 392.028671 503.024112 
L 395.540559 491.654448 
L 399.052448 481.035933 
L 402.564336 484.507706 
L 406.076224 477.852293 
L 409.588112 479.067289 
L 413.1 452.956951 
L 416.611888 453.270901 
L 420.123776 459.24595 
L 423.635664 474.004945 
L 427.147552 487.300782 
L 430.659441 506.714069 
L 434.171329 520.34634 
L 437.683217 545.422392 
L 444.706993 569.732304 
L 448.218881 576.274462 
L 451.730769 580.474068 
L 455.242657 577.44782 
L 458.754545 564.126168 
L 465.778322 560.880905 
L 469.29021 544.991022 
L 472.802098 536.376126 
L 476.313986 521.510538 
L 479.825874 514.560328 
L 483.337762 513.467748 
L 486.84965 517.755626 
L 490.361538 504.154999 
L 493.873427 489.306899 
L 500.897203 436.230145 
L 504.409091 396.066992 
L 507.920979 374.036342 
L 511.432867 355.646516 
L 514.944755 342.480589 
L 518.456643 337.514012 
L 521.968531 347.069926 
L 525.48042 350.028721 
L 528.992308 368.852414 
L 532.504196 379.718259 
L 536.016084 379.781549 
L 539.527972 388.341483 
L 543.03986 382.842772 
L 546.551748 376.576258 
L 550.063636 386.877492 
L 553.575524 400.712956 
L 557.087413 412.705525 
L 560.599301 426.090467 
L 564.111189 431.693272 
L 567.623077 447.477394 
L 571.134965 453.351679 
L 574.646853 463.872761 
L 578.158741 476.82217 
L 581.670629 494.840585 
L 585.182517 504.154999 
L 588.694406 517.890533 
L 592.206294 511.30757 
L 595.718182 508.117269 
L 599.23007 517.327588 
L 602.741958 498.588003 
L 606.253846 475.939445 
L 609.765734 444.064746 
L 613.277622 432.020546 
L 616.78951 446.200774 
L 620.301399 463.154922 
L 623.813287 464.221687 
L 627.325175 467.979098 
L 630.837063 477.535845 
L 634.348951 502.438682 
L 637.860839 513.477741 
L 641.372727 514.267197 
L 644.884615 515.672062 
L 648.396503 502.157209 
L 651.908392 526.489607 
L 655.42028 531.443692 
L 658.932168 531.792619 
L 662.444056 533.453974 
L 665.955944 550.334007 
L 669.467832 562.342397 
L 672.97972 589.406245 
L 676.491608 598.880549 
L 680.003497 609.59733 
L 683.515385 612.699359 
L 687.027273 627.007831 
L 690.539161 637.643002 
L 694.051049 647.521194 
L 697.562937 648.65791 
L 701.074825 644.446646 
L 708.098601 626.018513 
L 711.61049 606.656024 
L 715.122378 593.732431 
L 718.634266 576.919851 
L 722.146154 580.596484 
L 725.658042 588.974043 
L 729.16993 602.681263 
L 732.681818 608.580531 
L 736.193706 594.631811 
L 739.705594 593.124516 
L 743.217483 605.886554 
L 746.729371 601.937609 
L 750.241259 610.813992 
L 753.753147 603.891263 
L 757.265035 608.581364 
L 760.776923 638.569863 
L 764.288811 655.778003 
L 767.800699 660.733754 
L 771.312587 668.810688 
L 778.336364 611.013854 
L 781.848252 615.300067 
L 785.36014 615.036915 
L 788.872028 614.533928 
L 792.383916 617.303686 
L 795.895804 624.731067 
L 799.407692 655.393268 
L 802.91958 695.558087 
L 806.431469 695.774605 
L 809.943357 705.920945 
L 813.455245 712.600509 
L 816.967133 713.618141 
L 820.479021 713.293365 
L 823.990909 714.425917 
L 827.502797 714.24854 
L 831.014685 712.382326 
L 834.526573 701.850417 
L 838.038462 699.263867 
L 845.062238 705.382983 
L 848.574126 706.943574 
L 852.086014 708.345108 
L 855.597902 709.313607 
L 859.10979 713.056028 
L 862.621678 712.328196 
L 866.133566 711.821879 
L 873.157343 715.786646 
L 876.669231 718.899501 
L 880.181119 721.441083 
L 883.693007 724.748803 
L 887.204895 725.256786 
L 890.716783 718.636349 
L 894.228671 717.12156 
L 897.740559 706.017546 
L 901.252448 703.771593 
L 908.276224 698.863309 
L 911.788112 699.349641 
L 915.3 707.008529 
L 918.811888 706.717063 
L 922.323776 715.611767 
L 925.835664 707.534 
L 929.347552 706.740381 
L 932.859441 706.956065 
L 936.371329 709.850737 
L 939.883217 696.043586 
L 943.395105 685.145264 
L 950.418881 668.342677 
L 953.930769 658.274616 
L 957.442657 657.067947 
L 960.954545 652.357028 
L 964.466434 664.260491 
L 967.978322 674.031257 
L 971.49021 682.224776 
L 975.002098 695.57391 
L 978.513986 704.949948 
L 982.025874 704.812543 
L 985.537762 704.859177 
L 989.04965 704.74842 
L 992.561538 703.570898 
L 996.073427 700.621265 
L 999.585315 692.315322 
L 1003.097203 669.535189 
L 1006.609091 663.80164 
L 1010.120979 663.890745 
L 1013.632867 664.231344 
L 1017.144755 665.939333 
L 1020.656643 669.002223 
L 1024.168531 678.232528 
L 1027.68042 701.441533 
L 1031.192308 710.786759 
L 1034.704196 716.373742 
L 1038.216084 715.931546 
L 1041.727972 715.976515 
L 1048.751748 717.228153 
L 1052.263636 717.226487 
L 1055.775524 714.767349 
L 1059.287413 710.954143 
L 1062.799301 712.911961 
L 1066.311189 713.51821 
L 1069.823077 713.377473 
L 1073.334965 712.675457 
L 1076.846853 712.298217 
L 1080.358741 713.084342 
L 1083.870629 712.026737 
L 1087.382517 713.291699 
L 1090.894406 711.324721 
L 1094.406294 710.095568 
L 1097.918182 710.712643 
L 1101.43007 711.74693 
L 1104.941958 710.95914 
L 1108.453846 713.145966 
L 1111.965734 714.723212 
L 1115.477622 721.346981 
L 1118.98951 721.735047 
L 1122.501399 717.153204 
L 1126.013287 718.059247 
L 1129.525175 716.520307 
L 1133.037063 719.685626 
L 1136.548951 715.71836 
L 1140.060839 713.071851 
L 1143.572727 716.41538 
L 1147.084615 724.634715 
L 1150.596503 725.794749 
L 1154.108392 729.508856 
L 1157.62028 727.546042 
L 1161.132168 729.965208 
L 1161.132168 729.965208 
" style="fill:none;stroke:#ffa500;stroke-linecap:square;stroke-width:1.5;"/>
   </g>
   <g id="patch_289">
    <path d="M 162 768.96 
L 162 103.68 
" style="fill:none;stroke:#000000;stroke-linecap:square;stroke-linejoin:miter;stroke-width:0.8;"/>
   </g>
   <g id="patch_290">
    <path d="M 1166.4 768.96 
L 1166.4 103.68 
" style="fill:none;stroke:#000000;stroke-linecap:square;stroke-linejoin:miter;stroke-width:0.8;"/>
   </g>
   <g id="patch_291">
    <path d="M 162 768.96 
L 1166.4 768.96 
" style="fill:none;stroke:#000000;stroke-linecap:square;stroke-linejoin:miter;stroke-width:0.8;"/>
   </g>
   <g id="patch_292">
    <path d="M 162 103.68 
L 1166.4 103.68 
" style="fill:none;stroke:#000000;stroke-linecap:square;stroke-linejoin:miter;stroke-width:0.8;"/>
   </g>
   <g id="text_18">
    <!-- Persons Fully Vaccinated -->
    <g transform="translate(590.380313 97.68)scale(0.12 -0.12)">
     <defs>
      <path d="M 1831 0 
L 50 4666 
L 709 4666 
L 2188 738 
L 3669 4666 
L 4325 4666 
L 2547 0 
L 1831 0 
z
" id="DejaVuSans-56" transform="scale(0.015625)"/>
     </defs>
     <use xlink:href="#DejaVuSans-50"/>
     <use x="56.677734" xlink:href="#DejaVuSans-65"/>
     <use x="118.201172" xlink:href="#DejaVuSans-72"/>
     <use x="159.314453" xlink:href="#DejaVuSans-73"/>
     <use x="211.414062" xlink:href="#DejaVuSans-6f"/>
     <use x="272.595703" xlink:href="#DejaVuSans-6e"/>
     <use x="335.974609" xlink:href="#DejaVuSans-73"/>
     <use x="388.074219" xlink:href="#DejaVuSans-20"/>
     <use x="419.861328" xlink:href="#DejaVuSans-46"/>
     <use x="471.880859" xlink:href="#DejaVuSans-75"/>
     <use x="535.259766" xlink:href="#DejaVuSans-6c"/>
     <use x="563.042969" xlink:href="#DejaVuSans-6c"/>
     <use x="590.826172" xlink:href="#DejaVuSans-79"/>
     <use x="650.005859" xlink:href="#DejaVuSans-20"/>
     <use x="681.792969" xlink:href="#DejaVuSans-56"/>
     <use x="742.451172" xlink:href="#DejaVuSans-61"/>
     <use x="803.730469" xlink:href="#DejaVuSans-63"/>
     <use x="858.710938" xlink:href="#DejaVuSans-63"/>
     <use x="913.691406" xlink:href="#DejaVuSans-69"/>
     <use x="941.474609" xlink:href="#DejaVuSans-6e"/>
     <use x="1004.853516" xlink:href="#DejaVuSans-61"/>
     <use x="1066.132812" xlink:href="#DejaVuSans-74"/>
     <use x="1105.341797" xlink:href="#DejaVuSans-65"/>
     <use x="1166.865234" xlink:href="#DejaVuSans-64"/>
    </g>
   </g>
  </g>
 </g>
 <defs>
  <clipPath id="pb17bde892e">
   <rect height="665.28" width="1004.4" x="162" y="103.68"/>
  </clipPath>
 </defs>
</svg>
