<?xml version="1.0" encoding="utf-8" standalone="no"?>
<!DOCTYPE svg PUBLIC "-//W3C//DTD SVG 1.1//EN"
  "http://www.w3.org/Graphics/SVG/1.1/DTD/svg11.dtd">
<svg height="864pt" version="1.1" viewBox="0 0 1296 864" width="1296pt" xmlns="http://www.w3.org/2000/svg" xmlns:xlink="http://www.w3.org/1999/xlink">
 <metadata>
  <rdf:RDF xmlns:cc="http://creativecommons.org/ns#" xmlns:dc="http://purl.org/dc/elements/1.1/" xmlns:rdf="http://www.w3.org/1999/02/22-rdf-syntax-ns#">
   <cc:Work>
    <dc:type rdf:resource="http://purl.org/dc/dcmitype/StillImage"/>
    <dc:date>2021-07-31T04:23:13.069923</dc:date>
    <dc:format>image/svg+xml</dc:format>
    <dc:creator>
     <cc:Agent>
      <dc:title>Matplotlib v3.4.2, https://matplotlib.org/</dc:title>
     </cc:Agent>
    </dc:creator>
   </cc:Work>
  </rdf:RDF>
 </metadata>
 <defs>
  <style type="text/css">*{stroke-linecap:butt;stroke-linejoin:round;}</style>
 </defs>
 <g id="figure_1">
  <g id="patch_1">
   <path d="M 0 864 
L 1296 864 
L 1296 0 
L 0 0 
z
" style="fill:#ffffff;"/>
  </g>
  <g id="axes_1">
   <g id="patch_2">
    <path d="M 162 768.96 
L 1166.4 768.96 
L 1166.4 103.68 
L 162 103.68 
z
" style="fill:#ffffff;"/>
   </g>
   <g id="patch_3">
    <path clip-path="url(#p76ff2815c4)" d="M 163.213043 768.96 
L 165.63913 768.96 
L 165.63913 768.947386 
L 163.213043 768.947386 
z
" style="fill:#1f77b4;"/>
   </g>
   <g id="patch_4">
    <path clip-path="url(#p76ff2815c4)" d="M 168.065217 768.96 
L 170.491304 768.96 
L 170.491304 768.921203 
L 168.065217 768.921203 
z
" style="fill:#1f77b4;"/>
   </g>
   <g id="patch_5">
    <path clip-path="url(#p76ff2815c4)" d="M 172.917391 768.96 
L 175.343478 768.96 
L 175.343478 768.69771 
L 172.917391 768.69771 
z
" style="fill:#1f77b4;"/>
   </g>
   <g id="patch_6">
    <path clip-path="url(#p76ff2815c4)" d="M 177.769565 768.96 
L 180.195652 768.96 
L 180.195652 767.051569 
L 177.769565 767.051569 
z
" style="fill:#1f77b4;"/>
   </g>
   <g id="patch_7">
    <path clip-path="url(#p76ff2815c4)" d="M 182.621739 768.96 
L 185.047826 768.96 
L 185.047826 765.080708 
L 182.621739 765.080708 
z
" style="fill:#1f77b4;"/>
   </g>
   <g id="patch_8">
    <path clip-path="url(#p76ff2815c4)" d="M 187.473913 768.96 
L 189.9 768.96 
L 189.9 763.991295 
L 187.473913 763.991295 
z
" style="fill:#1f77b4;"/>
   </g>
   <g id="patch_9">
    <path clip-path="url(#p76ff2815c4)" d="M 192.326087 768.96 
L 194.752174 768.96 
L 194.752174 763.327511 
L 192.326087 763.327511 
z
" style="fill:#1f77b4;"/>
   </g>
   <g id="patch_10">
    <path clip-path="url(#p76ff2815c4)" d="M 197.178261 768.96 
L 199.604348 768.96 
L 199.604348 762.297614 
L 197.178261 762.297614 
z
" style="fill:#1f77b4;"/>
   </g>
   <g id="patch_11">
    <path clip-path="url(#p76ff2815c4)" d="M 202.030435 768.96 
L 204.456522 768.96 
L 204.456522 761.326641 
L 202.030435 761.326641 
z
" style="fill:#1f77b4;"/>
   </g>
   <g id="patch_12">
    <path clip-path="url(#p76ff2815c4)" d="M 206.882609 768.96 
L 209.308696 768.96 
L 209.308696 760.534854 
L 206.882609 760.534854 
z
" style="fill:#1f77b4;"/>
   </g>
   <g id="patch_13">
    <path clip-path="url(#p76ff2815c4)" d="M 211.734783 768.96 
L 214.16087 768.96 
L 214.16087 759.573762 
L 211.734783 759.573762 
z
" style="fill:#1f77b4;"/>
   </g>
   <g id="patch_14">
    <path clip-path="url(#p76ff2815c4)" d="M 216.586957 768.96 
L 219.013043 768.96 
L 219.013043 759.385151 
L 216.586957 759.385151 
z
" style="fill:#1f77b4;"/>
   </g>
   <g id="patch_15">
    <path clip-path="url(#p76ff2815c4)" d="M 221.43913 768.96 
L 223.865217 768.96 
L 223.865217 759.268122 
L 221.43913 759.268122 
z
" style="fill:#1f77b4;"/>
   </g>
   <g id="patch_16">
    <path clip-path="url(#p76ff2815c4)" d="M 226.291304 768.96 
L 228.717391 768.96 
L 228.717391 759.213888 
L 226.291304 759.213888 
z
" style="fill:#1f77b4;"/>
   </g>
   <g id="patch_17">
    <path clip-path="url(#p76ff2815c4)" d="M 231.143478 768.96 
L 233.569565 768.96 
L 233.569565 758.946772 
L 231.143478 758.946772 
z
" style="fill:#1f77b4;"/>
   </g>
   <g id="patch_18">
    <path clip-path="url(#p76ff2815c4)" d="M 235.995652 768.96 
L 238.421739 768.96 
L 238.421739 758.514859 
L 235.995652 758.514859 
z
" style="fill:#1f77b4;"/>
   </g>
   <g id="patch_19">
    <path clip-path="url(#p76ff2815c4)" d="M 240.847826 768.96 
L 243.273913 768.96 
L 243.273913 757.642654 
L 240.847826 757.642654 
z
" style="fill:#1f77b4;"/>
   </g>
   <g id="patch_20">
    <path clip-path="url(#p76ff2815c4)" d="M 245.7 768.96 
L 248.126087 768.96 
L 248.126087 756.780377 
L 245.7 756.780377 
z
" style="fill:#1f77b4;"/>
   </g>
   <g id="patch_21">
    <path clip-path="url(#p76ff2815c4)" d="M 250.552174 768.96 
L 252.978261 768.96 
L 252.978261 756.179479 
L 250.552174 756.179479 
z
" style="fill:#1f77b4;"/>
   </g>
   <g id="patch_22">
    <path clip-path="url(#p76ff2815c4)" d="M 255.404348 768.96 
L 257.830435 768.96 
L 257.830435 755.970375 
L 255.404348 755.970375 
z
" style="fill:#1f77b4;"/>
   </g>
   <g id="patch_23">
    <path clip-path="url(#p76ff2815c4)" d="M 260.256522 768.96 
L 262.682609 768.96 
L 262.682609 755.673888 
L 260.256522 755.673888 
z
" style="fill:#1f77b4;"/>
   </g>
   <g id="patch_24">
    <path clip-path="url(#p76ff2815c4)" d="M 265.108696 768.96 
L 267.534783 768.96 
L 267.534783 754.867711 
L 265.108696 754.867711 
z
" style="fill:#1f77b4;"/>
   </g>
   <g id="patch_25">
    <path clip-path="url(#p76ff2815c4)" d="M 269.96087 768.96 
L 272.386957 768.96 
L 272.386957 753.488778 
L 269.96087 753.488778 
z
" style="fill:#1f77b4;"/>
   </g>
   <g id="patch_26">
    <path clip-path="url(#p76ff2815c4)" d="M 274.813043 768.96 
L 277.23913 768.96 
L 277.23913 751.569236 
L 274.813043 751.569236 
z
" style="fill:#1f77b4;"/>
   </g>
   <g id="patch_27">
    <path clip-path="url(#p76ff2815c4)" d="M 279.665217 768.96 
L 282.091304 768.96 
L 282.091304 749.95793 
L 279.665217 749.95793 
z
" style="fill:#1f77b4;"/>
   </g>
   <g id="patch_28">
    <path clip-path="url(#p76ff2815c4)" d="M 284.517391 768.96 
L 286.943478 768.96 
L 286.943478 748.5152 
L 284.517391 748.5152 
z
" style="fill:#1f77b4;"/>
   </g>
   <g id="patch_29">
    <path clip-path="url(#p76ff2815c4)" d="M 289.369565 768.96 
L 291.795652 768.96 
L 291.795652 747.742129 
L 289.369565 747.742129 
z
" style="fill:#1f77b4;"/>
   </g>
   <g id="patch_30">
    <path clip-path="url(#p76ff2815c4)" d="M 294.221739 768.96 
L 296.647826 768.96 
L 296.647826 747.306482 
L 294.221739 747.306482 
z
" style="fill:#1f77b4;"/>
   </g>
   <g id="patch_31">
    <path clip-path="url(#p76ff2815c4)" d="M 299.073913 768.96 
L 301.5 768.96 
L 301.5 746.520114 
L 299.073913 746.520114 
z
" style="fill:#1f77b4;"/>
   </g>
   <g id="patch_32">
    <path clip-path="url(#p76ff2815c4)" d="M 303.926087 768.96 
L 306.352174 768.96 
L 306.352174 744.790231 
L 303.926087 744.790231 
z
" style="fill:#1f77b4;"/>
   </g>
   <g id="patch_33">
    <path clip-path="url(#p76ff2815c4)" d="M 308.778261 768.96 
L 311.204348 768.96 
L 311.204348 743.515439 
L 308.778261 743.515439 
z
" style="fill:#1f77b4;"/>
   </g>
   <g id="patch_34">
    <path clip-path="url(#p76ff2815c4)" d="M 313.630435 768.96 
L 316.056522 768.96 
L 316.056522 741.789746 
L 313.630435 741.789746 
z
" style="fill:#1f77b4;"/>
   </g>
   <g id="patch_35">
    <path clip-path="url(#p76ff2815c4)" d="M 318.482609 768.96 
L 320.908696 768.96 
L 320.908696 740.447742 
L 318.482609 740.447742 
z
" style="fill:#1f77b4;"/>
   </g>
   <g id="patch_36">
    <path clip-path="url(#p76ff2815c4)" d="M 323.334783 768.96 
L 325.76087 768.96 
L 325.76087 739.242804 
L 323.334783 739.242804 
z
" style="fill:#1f77b4;"/>
   </g>
   <g id="patch_37">
    <path clip-path="url(#p76ff2815c4)" d="M 328.186957 768.96 
L 330.613043 768.96 
L 330.613043 738.833659 
L 328.186957 738.833659 
z
" style="fill:#1f77b4;"/>
   </g>
   <g id="patch_38">
    <path clip-path="url(#p76ff2815c4)" d="M 333.03913 768.96 
L 335.465217 768.96 
L 335.465217 737.446848 
L 333.03913 737.446848 
z
" style="fill:#1f77b4;"/>
   </g>
   <g id="patch_39">
    <path clip-path="url(#p76ff2815c4)" d="M 337.891304 768.96 
L 340.317391 768.96 
L 340.317391 735.705035 
L 337.891304 735.705035 
z
" style="fill:#1f77b4;"/>
   </g>
   <g id="patch_40">
    <path clip-path="url(#p76ff2815c4)" d="M 342.743478 768.96 
L 345.169565 768.96 
L 345.169565 733.605351 
L 342.743478 733.605351 
z
" style="fill:#1f77b4;"/>
   </g>
   <g id="patch_41">
    <path clip-path="url(#p76ff2815c4)" d="M 347.595652 768.96 
L 350.021739 768.96 
L 350.021739 730.607826 
L 347.595652 730.607826 
z
" style="fill:#1f77b4;"/>
   </g>
   <g id="patch_42">
    <path clip-path="url(#p76ff2815c4)" d="M 352.447826 768.96 
L 354.873913 768.96 
L 354.873913 727.893674 
L 352.447826 727.893674 
z
" style="fill:#1f77b4;"/>
   </g>
   <g id="patch_43">
    <path clip-path="url(#p76ff2815c4)" d="M 357.3 768.96 
L 359.726087 768.96 
L 359.726087 726.208963 
L 357.3 726.208963 
z
" style="fill:#1f77b4;"/>
   </g>
   <g id="patch_44">
    <path clip-path="url(#p76ff2815c4)" d="M 362.152174 768.96 
L 364.578261 768.96 
L 364.578261 725.305202 
L 362.152174 725.305202 
z
" style="fill:#1f77b4;"/>
   </g>
   <g id="patch_45">
    <path clip-path="url(#p76ff2815c4)" d="M 367.004348 768.96 
L 369.430435 768.96 
L 369.430435 724.409182 
L 367.004348 724.409182 
z
" style="fill:#1f77b4;"/>
   </g>
   <g id="patch_46">
    <path clip-path="url(#p76ff2815c4)" d="M 371.856522 768.96 
L 374.282609 768.96 
L 374.282609 722.607079 
L 371.856522 722.607079 
z
" style="fill:#1f77b4;"/>
   </g>
   <g id="patch_47">
    <path clip-path="url(#p76ff2815c4)" d="M 376.708696 768.96 
L 379.134783 768.96 
L 379.134783 719.590155 
L 376.708696 719.590155 
z
" style="fill:#1f77b4;"/>
   </g>
   <g id="patch_48">
    <path clip-path="url(#p76ff2815c4)" d="M 381.56087 768.96 
L 383.986957 768.96 
L 383.986957 715.496751 
L 381.56087 715.496751 
z
" style="fill:#1f77b4;"/>
   </g>
   <g id="patch_49">
    <path clip-path="url(#p76ff2815c4)" d="M 386.413043 768.96 
L 388.83913 768.96 
L 388.83913 711.72028 
L 386.413043 711.72028 
z
" style="fill:#1f77b4;"/>
   </g>
   <g id="patch_50">
    <path clip-path="url(#p76ff2815c4)" d="M 391.265217 768.96 
L 393.691304 768.96 
L 393.691304 710.989011 
L 391.265217 710.989011 
z
" style="fill:#1f77b4;"/>
   </g>
   <g id="patch_51">
    <path clip-path="url(#p76ff2815c4)" d="M 396.117391 768.96 
L 398.543478 768.96 
L 398.543478 708.241162 
L 396.117391 708.241162 
z
" style="fill:#1f77b4;"/>
   </g>
   <g id="patch_52">
    <path clip-path="url(#p76ff2815c4)" d="M 400.969565 768.96 
L 403.395652 768.96 
L 403.395652 705.974769 
L 400.969565 705.974769 
z
" style="fill:#1f77b4;"/>
   </g>
   <g id="patch_53">
    <path clip-path="url(#p76ff2815c4)" d="M 405.821739 768.96 
L 408.247826 768.96 
L 408.247826 702.59533 
L 405.821739 702.59533 
z
" style="fill:#1f77b4;"/>
   </g>
   <g id="patch_54">
    <path clip-path="url(#p76ff2815c4)" d="M 410.673913 768.96 
L 413.1 768.96 
L 413.1 696.392224 
L 410.673913 696.392224 
z
" style="fill:#1f77b4;"/>
   </g>
   <g id="patch_55">
    <path clip-path="url(#p76ff2815c4)" d="M 415.526087 768.96 
L 417.952174 768.96 
L 417.952174 689.947001 
L 415.526087 689.947001 
z
" style="fill:#1f77b4;"/>
   </g>
   <g id="patch_56">
    <path clip-path="url(#p76ff2815c4)" d="M 420.378261 768.96 
L 422.804348 768.96 
L 422.804348 684.208594 
L 420.378261 684.208594 
z
" style="fill:#1f77b4;"/>
   </g>
   <g id="patch_57">
    <path clip-path="url(#p76ff2815c4)" d="M 425.230435 768.96 
L 427.656522 768.96 
L 427.656522 679.168078 
L 425.230435 679.168078 
z
" style="fill:#1f77b4;"/>
   </g>
   <g id="patch_58">
    <path clip-path="url(#p76ff2815c4)" d="M 430.082609 768.96 
L 432.508696 768.96 
L 432.508696 676.639305 
L 430.082609 676.639305 
z
" style="fill:#1f77b4;"/>
   </g>
   <g id="patch_59">
    <path clip-path="url(#p76ff2815c4)" d="M 434.934783 768.96 
L 437.36087 768.96 
L 437.36087 673.073212 
L 434.934783 673.073212 
z
" style="fill:#1f77b4;"/>
   </g>
   <g id="patch_60">
    <path clip-path="url(#p76ff2815c4)" d="M 439.786957 768.96 
L 442.213043 768.96 
L 442.213043 668.245123 
L 439.786957 668.245123 
z
" style="fill:#1f77b4;"/>
   </g>
   <g id="patch_61">
    <path clip-path="url(#p76ff2815c4)" d="M 444.63913 768.96 
L 447.065217 768.96 
L 447.065217 662.816956 
L 444.63913 662.816956 
z
" style="fill:#1f77b4;"/>
   </g>
   <g id="patch_62">
    <path clip-path="url(#p76ff2815c4)" d="M 449.491304 768.96 
L 451.917391 768.96 
L 451.917391 654.934649 
L 449.491304 654.934649 
z
" style="fill:#1f77b4;"/>
   </g>
   <g id="patch_63">
    <path clip-path="url(#p76ff2815c4)" d="M 454.343478 768.96 
L 456.769565 768.96 
L 456.769565 647.443409 
L 454.343478 647.443409 
z
" style="fill:#1f77b4;"/>
   </g>
   <g id="patch_64">
    <path clip-path="url(#p76ff2815c4)" d="M 459.195652 768.96 
L 461.621739 768.96 
L 461.621739 641.605232 
L 459.195652 641.605232 
z
" style="fill:#1f77b4;"/>
   </g>
   <g id="patch_65">
    <path clip-path="url(#p76ff2815c4)" d="M 464.047826 768.96 
L 466.473913 768.96 
L 466.473913 639.794476 
L 464.047826 639.794476 
z
" style="fill:#1f77b4;"/>
   </g>
   <g id="patch_66">
    <path clip-path="url(#p76ff2815c4)" d="M 468.9 768.96 
L 471.326087 768.96 
L 471.326087 635.047488 
L 468.9 635.047488 
z
" style="fill:#1f77b4;"/>
   </g>
   <g id="patch_67">
    <path clip-path="url(#p76ff2815c4)" d="M 473.752174 768.96 
L 476.178261 768.96 
L 476.178261 628.87694 
L 473.752174 628.87694 
z
" style="fill:#1f77b4;"/>
   </g>
   <g id="patch_68">
    <path clip-path="url(#p76ff2815c4)" d="M 478.604348 768.96 
L 481.030435 768.96 
L 481.030435 622.032363 
L 478.604348 622.032363 
z
" style="fill:#1f77b4;"/>
   </g>
   <g id="patch_69">
    <path clip-path="url(#p76ff2815c4)" d="M 483.456522 768.96 
L 485.882609 768.96 
L 485.882609 614.726911 
L 483.456522 614.726911 
z
" style="fill:#1f77b4;"/>
   </g>
   <g id="patch_70">
    <path clip-path="url(#p76ff2815c4)" d="M 488.308696 768.96 
L 490.734783 768.96 
L 490.734783 606.510368 
L 488.308696 606.510368 
z
" style="fill:#1f77b4;"/>
   </g>
   <g id="patch_71">
    <path clip-path="url(#p76ff2815c4)" d="M 493.16087 768.96 
L 495.586957 768.96 
L 495.586957 601.253554 
L 493.16087 601.253554 
z
" style="fill:#1f77b4;"/>
   </g>
   <g id="patch_72">
    <path clip-path="url(#p76ff2815c4)" d="M 498.013043 768.96 
L 500.43913 768.96 
L 500.43913 596.034262 
L 498.013043 596.034262 
z
" style="fill:#1f77b4;"/>
   </g>
   <g id="patch_73">
    <path clip-path="url(#p76ff2815c4)" d="M 502.865217 768.96 
L 505.291304 768.96 
L 505.291304 591.396287 
L 502.865217 591.396287 
z
" style="fill:#1f77b4;"/>
   </g>
   <g id="patch_74">
    <path clip-path="url(#p76ff2815c4)" d="M 507.717391 768.96 
L 510.143478 768.96 
L 510.143478 586.151495 
L 507.717391 586.151495 
z
" style="fill:#1f77b4;"/>
   </g>
   <g id="patch_75">
    <path clip-path="url(#p76ff2815c4)" d="M 512.569565 768.96 
L 514.995652 768.96 
L 514.995652 581.431236 
L 512.569565 581.431236 
z
" style="fill:#1f77b4;"/>
   </g>
   <g id="patch_76">
    <path clip-path="url(#p76ff2815c4)" d="M 517.421739 768.96 
L 519.847826 768.96 
L 519.847826 576.117866 
L 517.421739 576.117866 
z
" style="fill:#1f77b4;"/>
   </g>
   <g id="patch_77">
    <path clip-path="url(#p76ff2815c4)" d="M 522.273913 768.96 
L 524.7 768.96 
L 524.7 570.667659 
L 522.273913 570.667659 
z
" style="fill:#1f77b4;"/>
   </g>
   <g id="patch_78">
    <path clip-path="url(#p76ff2815c4)" d="M 527.126087 768.96 
L 529.552174 768.96 
L 529.552174 567.422052 
L 527.126087 567.422052 
z
" style="fill:#1f77b4;"/>
   </g>
   <g id="patch_79">
    <path clip-path="url(#p76ff2815c4)" d="M 531.978261 768.96 
L 534.404348 768.96 
L 534.404348 565.639438 
L 531.978261 565.639438 
z
" style="fill:#1f77b4;"/>
   </g>
   <g id="patch_80">
    <path clip-path="url(#p76ff2815c4)" d="M 536.830435 768.96 
L 539.256522 768.96 
L 539.256522 562.719416 
L 536.830435 562.719416 
z
" style="fill:#1f77b4;"/>
   </g>
   <g id="patch_81">
    <path clip-path="url(#p76ff2815c4)" d="M 541.682609 768.96 
L 544.108696 768.96 
L 544.108696 559.242483 
L 541.682609 559.242483 
z
" style="fill:#1f77b4;"/>
   </g>
   <g id="patch_82">
    <path clip-path="url(#p76ff2815c4)" d="M 546.534783 768.96 
L 548.96087 768.96 
L 548.96087 555.626756 
L 546.534783 555.626756 
z
" style="fill:#1f77b4;"/>
   </g>
   <g id="patch_83">
    <path clip-path="url(#p76ff2815c4)" d="M 551.386957 768.96 
L 553.813043 768.96 
L 553.813043 550.884367 
L 551.386957 550.884367 
z
" style="fill:#1f77b4;"/>
   </g>
   <g id="patch_84">
    <path clip-path="url(#p76ff2815c4)" d="M 556.23913 768.96 
L 558.665217 768.96 
L 558.665217 544.986218 
L 556.23913 544.986218 
z
" style="fill:#1f77b4;"/>
   </g>
   <g id="patch_85">
    <path clip-path="url(#p76ff2815c4)" d="M 561.091304 768.96 
L 563.517391 768.96 
L 563.517391 539.874346 
L 561.091304 539.874346 
z
" style="fill:#1f77b4;"/>
   </g>
   <g id="patch_86">
    <path clip-path="url(#p76ff2815c4)" d="M 565.943478 768.96 
L 568.369565 768.96 
L 568.369565 537.83723 
L 565.943478 537.83723 
z
" style="fill:#1f77b4;"/>
   </g>
   <g id="patch_87">
    <path clip-path="url(#p76ff2815c4)" d="M 570.795652 768.96 
L 573.221739 768.96 
L 573.221739 534.787838 
L 570.795652 534.787838 
z
" style="fill:#1f77b4;"/>
   </g>
   <g id="patch_88">
    <path clip-path="url(#p76ff2815c4)" d="M 575.647826 768.96 
L 578.073913 768.96 
L 578.073913 529.233808 
L 575.647826 529.233808 
z
" style="fill:#1f77b4;"/>
   </g>
   <g id="patch_89">
    <path clip-path="url(#p76ff2815c4)" d="M 580.5 768.96 
L 582.926087 768.96 
L 582.926087 524.549569 
L 580.5 524.549569 
z
" style="fill:#1f77b4;"/>
   </g>
   <g id="patch_90">
    <path clip-path="url(#p76ff2815c4)" d="M 585.352174 768.96 
L 587.778261 768.96 
L 587.778261 518.058718 
L 585.352174 518.058718 
z
" style="fill:#1f77b4;"/>
   </g>
   <g id="patch_91">
    <path clip-path="url(#p76ff2815c4)" d="M 590.204348 768.96 
L 592.630435 768.96 
L 592.630435 511.478298 
L 590.204348 511.478298 
z
" style="fill:#1f77b4;"/>
   </g>
   <g id="patch_92">
    <path clip-path="url(#p76ff2815c4)" d="M 595.056522 768.96 
L 597.482609 768.96 
L 597.482609 506.473619 
L 595.056522 506.473619 
z
" style="fill:#1f77b4;"/>
   </g>
   <g id="patch_93">
    <path clip-path="url(#p76ff2815c4)" d="M 599.908696 768.96 
L 602.334783 768.96 
L 602.334783 505.063265 
L 599.908696 505.063265 
z
" style="fill:#1f77b4;"/>
   </g>
   <g id="patch_94">
    <path clip-path="url(#p76ff2815c4)" d="M 604.76087 768.96 
L 607.186957 768.96 
L 607.186957 500.34073 
L 604.76087 500.34073 
z
" style="fill:#1f77b4;"/>
   </g>
   <g id="patch_95">
    <path clip-path="url(#p76ff2815c4)" d="M 609.613043 768.96 
L 612.03913 768.96 
L 612.03913 492.956956 
L 609.613043 492.956956 
z
" style="fill:#1f77b4;"/>
   </g>
   <g id="patch_96">
    <path clip-path="url(#p76ff2815c4)" d="M 614.465217 768.96 
L 616.891304 768.96 
L 616.891304 484.757124 
L 614.465217 484.757124 
z
" style="fill:#1f77b4;"/>
   </g>
   <g id="patch_97">
    <path clip-path="url(#p76ff2815c4)" d="M 619.317391 768.96 
L 621.743478 768.96 
L 621.743478 475.061102 
L 619.317391 475.061102 
z
" style="fill:#1f77b4;"/>
   </g>
   <g id="patch_98">
    <path clip-path="url(#p76ff2815c4)" d="M 624.169565 768.96 
L 626.595652 768.96 
L 626.595652 463.667483 
L 624.169565 463.667483 
z
" style="fill:#1f77b4;"/>
   </g>
   <g id="patch_99">
    <path clip-path="url(#p76ff2815c4)" d="M 629.021739 768.96 
L 631.447826 768.96 
L 631.447826 456.132892 
L 629.021739 456.132892 
z
" style="fill:#1f77b4;"/>
   </g>
   <g id="patch_100">
    <path clip-path="url(#p76ff2815c4)" d="M 633.873913 768.96 
L 636.3 768.96 
L 636.3 452.392167 
L 633.873913 452.392167 
z
" style="fill:#1f77b4;"/>
   </g>
   <g id="patch_101">
    <path clip-path="url(#p76ff2815c4)" d="M 638.726087 768.96 
L 641.152174 768.96 
L 641.152174 446.092479 
L 638.726087 446.092479 
z
" style="fill:#1f77b4;"/>
   </g>
   <g id="patch_102">
    <path clip-path="url(#p76ff2815c4)" d="M 643.578261 768.96 
L 646.004348 768.96 
L 646.004348 438.307847 
L 643.578261 438.307847 
z
" style="fill:#1f77b4;"/>
   </g>
   <g id="patch_103">
    <path clip-path="url(#p76ff2815c4)" d="M 648.430435 768.96 
L 650.856522 768.96 
L 650.856522 431.611036 
L 648.430435 431.611036 
z
" style="fill:#1f77b4;"/>
   </g>
   <g id="patch_104">
    <path clip-path="url(#p76ff2815c4)" d="M 653.282609 768.96 
L 655.708696 768.96 
L 655.708696 422.57643 
L 653.282609 422.57643 
z
" style="fill:#1f77b4;"/>
   </g>
   <g id="patch_105">
    <path clip-path="url(#p76ff2815c4)" d="M 658.134783 768.96 
L 660.56087 768.96 
L 660.56087 413.779661 
L 658.134783 413.779661 
z
" style="fill:#1f77b4;"/>
   </g>
   <g id="patch_106">
    <path clip-path="url(#p76ff2815c4)" d="M 662.986957 768.96 
L 665.413043 768.96 
L 665.413043 407.665215 
L 662.986957 407.665215 
z
" style="fill:#1f77b4;"/>
   </g>
   <g id="patch_107">
    <path clip-path="url(#p76ff2815c4)" d="M 667.83913 768.96 
L 670.265217 768.96 
L 670.265217 404.142837 
L 667.83913 404.142837 
z
" style="fill:#1f77b4;"/>
   </g>
   <g id="patch_108">
    <path clip-path="url(#p76ff2815c4)" d="M 672.691304 768.96 
L 675.117391 768.96 
L 675.117391 399.070946 
L 672.691304 399.070946 
z
" style="fill:#1f77b4;"/>
   </g>
   <g id="patch_109">
    <path clip-path="url(#p76ff2815c4)" d="M 677.543478 768.96 
L 679.969565 768.96 
L 679.969565 390.969701 
L 677.543478 390.969701 
z
" style="fill:#1f77b4;"/>
   </g>
   <g id="patch_110">
    <path clip-path="url(#p76ff2815c4)" d="M 682.395652 768.96 
L 684.821739 768.96 
L 684.821739 383.745987 
L 682.395652 383.745987 
z
" style="fill:#1f77b4;"/>
   </g>
   <g id="patch_111">
    <path clip-path="url(#p76ff2815c4)" d="M 687.247826 768.96 
L 689.673913 768.96 
L 689.673913 376.09241 
L 687.247826 376.09241 
z
" style="fill:#1f77b4;"/>
   </g>
   <g id="patch_112">
    <path clip-path="url(#p76ff2815c4)" d="M 692.1 768.96 
L 694.526087 768.96 
L 694.526087 369.035587 
L 692.1 369.035587 
z
" style="fill:#1f77b4;"/>
   </g>
   <g id="patch_113">
    <path clip-path="url(#p76ff2815c4)" d="M 696.952174 768.96 
L 699.378261 768.96 
L 699.378261 364.312687 
L 696.952174 364.312687 
z
" style="fill:#1f77b4;"/>
   </g>
   <g id="patch_114">
    <path clip-path="url(#p76ff2815c4)" d="M 701.804348 768.96 
L 704.230435 768.96 
L 704.230435 362.280261 
L 701.804348 362.280261 
z
" style="fill:#1f77b4;"/>
   </g>
   <g id="patch_115">
    <path clip-path="url(#p76ff2815c4)" d="M 706.656522 768.96 
L 709.082609 768.96 
L 709.082609 357.932217 
L 706.656522 357.932217 
z
" style="fill:#1f77b4;"/>
   </g>
   <g id="patch_116">
    <path clip-path="url(#p76ff2815c4)" d="M 711.508696 768.96 
L 713.934783 768.96 
L 713.934783 351.742271 
L 711.508696 351.742271 
z
" style="fill:#1f77b4;"/>
   </g>
   <g id="patch_117">
    <path clip-path="url(#p76ff2815c4)" d="M 716.36087 768.96 
L 718.786957 768.96 
L 718.786957 345.28794 
L 716.36087 345.28794 
z
" style="fill:#1f77b4;"/>
   </g>
   <g id="patch_118">
    <path clip-path="url(#p76ff2815c4)" d="M 721.213043 768.96 
L 723.63913 768.96 
L 723.63913 339.006876 
L 721.213043 339.006876 
z
" style="fill:#1f77b4;"/>
   </g>
   <g id="patch_119">
    <path clip-path="url(#p76ff2815c4)" d="M 726.065217 768.96 
L 728.491304 768.96 
L 728.491304 333.721602 
L 726.065217 333.721602 
z
" style="fill:#1f77b4;"/>
   </g>
   <g id="patch_120">
    <path clip-path="url(#p76ff2815c4)" d="M 730.917391 768.96 
L 733.343478 768.96 
L 733.343478 331.352843 
L 730.917391 331.352843 
z
" style="fill:#1f77b4;"/>
   </g>
   <g id="patch_121">
    <path clip-path="url(#p76ff2815c4)" d="M 735.769565 768.96 
L 738.195652 768.96 
L 738.195652 330.537195 
L 735.769565 330.537195 
z
" style="fill:#1f77b4;"/>
   </g>
   <g id="patch_122">
    <path clip-path="url(#p76ff2815c4)" d="M 740.621739 768.96 
L 743.047826 768.96 
L 743.047826 327.979096 
L 740.621739 327.979096 
z
" style="fill:#1f77b4;"/>
   </g>
   <g id="patch_123">
    <path clip-path="url(#p76ff2815c4)" d="M 745.473913 768.96 
L 747.9 768.96 
L 747.9 321.241256 
L 745.473913 321.241256 
z
" style="fill:#1f77b4;"/>
   </g>
   <g id="patch_124">
    <path clip-path="url(#p76ff2815c4)" d="M 750.326087 768.96 
L 752.752174 768.96 
L 752.752174 314.717893 
L 750.326087 314.717893 
z
" style="fill:#1f77b4;"/>
   </g>
   <g id="patch_125">
    <path clip-path="url(#p76ff2815c4)" d="M 755.178261 768.96 
L 757.604348 768.96 
L 757.604348 309.782884 
L 755.178261 309.782884 
z
" style="fill:#1f77b4;"/>
   </g>
   <g id="patch_126">
    <path clip-path="url(#p76ff2815c4)" d="M 760.030435 768.96 
L 762.456522 768.96 
L 762.456522 302.571921 
L 760.030435 302.571921 
z
" style="fill:#1f77b4;"/>
   </g>
   <g id="patch_127">
    <path clip-path="url(#p76ff2815c4)" d="M 764.882609 768.96 
L 767.308696 768.96 
L 767.308696 297.724024 
L 764.882609 297.724024 
z
" style="fill:#1f77b4;"/>
   </g>
   <g id="patch_128">
    <path clip-path="url(#p76ff2815c4)" d="M 769.734783 768.96 
L 772.16087 768.96 
L 772.16087 293.432309 
L 769.734783 293.432309 
z
" style="fill:#1f77b4;"/>
   </g>
   <g id="patch_129">
    <path clip-path="url(#p76ff2815c4)" d="M 774.586957 768.96 
L 777.013043 768.96 
L 777.013043 289.739397 
L 774.586957 289.739397 
z
" style="fill:#1f77b4;"/>
   </g>
   <g id="patch_130">
    <path clip-path="url(#p76ff2815c4)" d="M 779.43913 768.96 
L 781.865217 768.96 
L 781.865217 284.704163 
L 779.43913 284.704163 
z
" style="fill:#1f77b4;"/>
   </g>
   <g id="patch_131">
    <path clip-path="url(#p76ff2815c4)" d="M 784.291304 768.96 
L 786.717391 768.96 
L 786.717391 280.191961 
L 784.291304 280.191961 
z
" style="fill:#1f77b4;"/>
   </g>
   <g id="patch_132">
    <path clip-path="url(#p76ff2815c4)" d="M 789.143478 768.96 
L 791.569565 768.96 
L 791.569565 275.52079 
L 789.143478 275.52079 
z
" style="fill:#1f77b4;"/>
   </g>
   <g id="patch_133">
    <path clip-path="url(#p76ff2815c4)" d="M 793.995652 768.96 
L 796.421739 768.96 
L 796.421739 268.886272 
L 793.995652 268.886272 
z
" style="fill:#1f77b4;"/>
   </g>
   <g id="patch_134">
    <path clip-path="url(#p76ff2815c4)" d="M 798.847826 768.96 
L 801.273913 768.96 
L 801.273913 265.157615 
L 798.847826 265.157615 
z
" style="fill:#1f77b4;"/>
   </g>
   <g id="patch_135">
    <path clip-path="url(#p76ff2815c4)" d="M 803.7 768.96 
L 806.126087 768.96 
L 806.126087 263.667709 
L 803.7 263.667709 
z
" style="fill:#1f77b4;"/>
   </g>
   <g id="patch_136">
    <path clip-path="url(#p76ff2815c4)" d="M 808.552174 768.96 
L 810.978261 768.96 
L 810.978261 261.036752 
L 808.552174 261.036752 
z
" style="fill:#1f77b4;"/>
   </g>
   <g id="patch_137">
    <path clip-path="url(#p76ff2815c4)" d="M 813.404348 768.96 
L 815.830435 768.96 
L 815.830435 256.203563 
L 813.404348 256.203563 
z
" style="fill:#1f77b4;"/>
   </g>
   <g id="patch_138">
    <path clip-path="url(#p76ff2815c4)" d="M 818.256522 768.96 
L 820.682609 768.96 
L 820.682609 251.897868 
L 818.256522 251.897868 
z
" style="fill:#1f77b4;"/>
   </g>
   <g id="patch_139">
    <path clip-path="url(#p76ff2815c4)" d="M 823.108696 768.96 
L 825.534783 768.96 
L 825.534783 246.357317 
L 823.108696 246.357317 
z
" style="fill:#1f77b4;"/>
   </g>
   <g id="patch_140">
    <path clip-path="url(#p76ff2815c4)" d="M 827.96087 768.96 
L 830.386957 768.96 
L 830.386957 242.466549 
L 827.96087 242.466549 
z
" style="fill:#1f77b4;"/>
   </g>
   <g id="patch_141">
    <path clip-path="url(#p76ff2815c4)" d="M 832.813043 768.96 
L 835.23913 768.96 
L 835.23913 239.529041 
L 832.813043 239.529041 
z
" style="fill:#1f77b4;"/>
   </g>
   <g id="patch_142">
    <path clip-path="url(#p76ff2815c4)" d="M 837.665217 768.96 
L 840.091304 768.96 
L 840.091304 238.092049 
L 837.665217 238.092049 
z
" style="fill:#1f77b4;"/>
   </g>
   <g id="patch_143">
    <path clip-path="url(#p76ff2815c4)" d="M 842.517391 768.96 
L 844.943478 768.96 
L 844.943478 235.680623 
L 842.517391 235.680623 
z
" style="fill:#1f77b4;"/>
   </g>
   <g id="patch_144">
    <path clip-path="url(#p76ff2815c4)" d="M 847.369565 768.96 
L 849.795652 768.96 
L 849.795652 232.764699 
L 847.369565 232.764699 
z
" style="fill:#1f77b4;"/>
   </g>
   <g id="patch_145">
    <path clip-path="url(#p76ff2815c4)" d="M 852.221739 768.96 
L 854.647826 768.96 
L 854.647826 229.788394 
L 852.221739 229.788394 
z
" style="fill:#1f77b4;"/>
   </g>
   <g id="patch_146">
    <path clip-path="url(#p76ff2815c4)" d="M 857.073913 768.96 
L 859.5 768.96 
L 859.5 226.7426 
L 857.073913 226.7426 
z
" style="fill:#1f77b4;"/>
   </g>
   <g id="patch_147">
    <path clip-path="url(#p76ff2815c4)" d="M 861.926087 768.96 
L 864.352174 768.96 
L 864.352174 223.986327 
L 861.926087 223.986327 
z
" style="fill:#1f77b4;"/>
   </g>
   <g id="patch_148">
    <path clip-path="url(#p76ff2815c4)" d="M 866.778261 768.96 
L 869.204348 768.96 
L 869.204348 222.120746 
L 866.778261 222.120746 
z
" style="fill:#1f77b4;"/>
   </g>
   <g id="patch_149">
    <path clip-path="url(#p76ff2815c4)" d="M 871.630435 768.96 
L 874.056522 768.96 
L 874.056522 221.200865 
L 871.630435 221.200865 
z
" style="fill:#1f77b4;"/>
   </g>
   <g id="patch_150">
    <path clip-path="url(#p76ff2815c4)" d="M 876.482609 768.96 
L 878.908696 768.96 
L 878.908696 220.41313 
L 876.482609 220.41313 
z
" style="fill:#1f77b4;"/>
   </g>
   <g id="patch_151">
    <path clip-path="url(#p76ff2815c4)" d="M 881.334783 768.96 
L 883.76087 768.96 
L 883.76087 218.676827 
L 881.334783 218.676827 
z
" style="fill:#1f77b4;"/>
   </g>
   <g id="patch_152">
    <path clip-path="url(#p76ff2815c4)" d="M 886.186957 768.96 
L 888.613043 768.96 
L 888.613043 216.866618 
L 886.186957 216.866618 
z
" style="fill:#1f77b4;"/>
   </g>
   <g id="patch_153">
    <path clip-path="url(#p76ff2815c4)" d="M 891.03913 768.96 
L 893.465217 768.96 
L 893.465217 214.354375 
L 891.03913 214.354375 
z
" style="fill:#1f77b4;"/>
   </g>
   <g id="patch_154">
    <path clip-path="url(#p76ff2815c4)" d="M 895.891304 768.96 
L 898.317391 768.96 
L 898.317391 211.71595 
L 895.891304 211.71595 
z
" style="fill:#1f77b4;"/>
   </g>
   <g id="patch_155">
    <path clip-path="url(#p76ff2815c4)" d="M 900.743478 768.96 
L 903.169565 768.96 
L 903.169565 209.442636 
L 900.743478 209.442636 
z
" style="fill:#1f77b4;"/>
   </g>
   <g id="patch_156">
    <path clip-path="url(#p76ff2815c4)" d="M 905.595652 768.96 
L 908.021739 768.96 
L 908.021739 207.961655 
L 905.595652 207.961655 
z
" style="fill:#1f77b4;"/>
   </g>
   <g id="patch_157">
    <path clip-path="url(#p76ff2815c4)" d="M 910.447826 768.96 
L 912.873913 768.96 
L 912.873913 205.846216 
L 910.447826 205.846216 
z
" style="fill:#1f77b4;"/>
   </g>
   <g id="patch_158">
    <path clip-path="url(#p76ff2815c4)" d="M 915.3 768.96 
L 917.726087 768.96 
L 917.726087 203.356968 
L 915.3 203.356968 
z
" style="fill:#1f77b4;"/>
   </g>
   <g id="patch_159">
    <path clip-path="url(#p76ff2815c4)" d="M 920.152174 768.96 
L 922.578261 768.96 
L 922.578261 200.32101 
L 920.152174 200.32101 
z
" style="fill:#1f77b4;"/>
   </g>
   <g id="patch_160">
    <path clip-path="url(#p76ff2815c4)" d="M 925.004348 768.96 
L 927.430435 768.96 
L 927.430435 198.132211 
L 925.004348 198.132211 
z
" style="fill:#1f77b4;"/>
   </g>
   <g id="patch_161">
    <path clip-path="url(#p76ff2815c4)" d="M 929.856522 768.96 
L 932.282609 768.96 
L 932.282609 196.084166 
L 929.856522 196.084166 
z
" style="fill:#1f77b4;"/>
   </g>
   <g id="patch_162">
    <path clip-path="url(#p76ff2815c4)" d="M 934.708696 768.96 
L 937.134783 768.96 
L 937.134783 194.867479 
L 934.708696 194.867479 
z
" style="fill:#1f77b4;"/>
   </g>
   <g id="patch_163">
    <path clip-path="url(#p76ff2815c4)" d="M 939.56087 768.96 
L 941.986957 768.96 
L 941.986957 193.689725 
L 939.56087 193.689725 
z
" style="fill:#1f77b4;"/>
   </g>
   <g id="patch_164">
    <path clip-path="url(#p76ff2815c4)" d="M 944.413043 768.96 
L 946.83913 768.96 
L 946.83913 190.082559 
L 944.413043 190.082559 
z
" style="fill:#1f77b4;"/>
   </g>
   <g id="patch_165">
    <path clip-path="url(#p76ff2815c4)" d="M 949.265217 768.96 
L 951.691304 768.96 
L 951.691304 187.294 
L 949.265217 187.294 
z
" style="fill:#1f77b4;"/>
   </g>
   <g id="patch_166">
    <path clip-path="url(#p76ff2815c4)" d="M 954.117391 768.96 
L 956.543478 768.96 
L 956.543478 185.320543 
L 954.117391 185.320543 
z
" style="fill:#1f77b4;"/>
   </g>
   <g id="patch_167">
    <path clip-path="url(#p76ff2815c4)" d="M 958.969565 768.96 
L 961.395652 768.96 
L 961.395652 182.829611 
L 958.969565 182.829611 
z
" style="fill:#1f77b4;"/>
   </g>
   <g id="patch_168">
    <path clip-path="url(#p76ff2815c4)" d="M 963.821739 768.96 
L 966.247826 768.96 
L 966.247826 181.577177 
L 963.821739 181.577177 
z
" style="fill:#1f77b4;"/>
   </g>
   <g id="patch_169">
    <path clip-path="url(#p76ff2815c4)" d="M 968.673913 768.96 
L 971.1 768.96 
L 971.1 179.66524 
L 968.673913 179.66524 
z
" style="fill:#1f77b4;"/>
   </g>
   <g id="patch_170">
    <path clip-path="url(#p76ff2815c4)" d="M 973.526087 768.96 
L 975.952174 768.96 
L 975.952174 178.851732 
L 973.526087 178.851732 
z
" style="fill:#1f77b4;"/>
   </g>
   <g id="patch_171">
    <path clip-path="url(#p76ff2815c4)" d="M 978.378261 768.96 
L 980.804348 768.96 
L 980.804348 177.779896 
L 978.378261 177.779896 
z
" style="fill:#1f77b4;"/>
   </g>
   <g id="patch_172">
    <path clip-path="url(#p76ff2815c4)" d="M 983.230435 768.96 
L 985.656522 768.96 
L 985.656522 176.513665 
L 983.230435 176.513665 
z
" style="fill:#1f77b4;"/>
   </g>
   <g id="patch_173">
    <path clip-path="url(#p76ff2815c4)" d="M 988.082609 768.96 
L 990.508696 768.96 
L 990.508696 174.974125 
L 988.082609 174.974125 
z
" style="fill:#1f77b4;"/>
   </g>
   <g id="patch_174">
    <path clip-path="url(#p76ff2815c4)" d="M 992.934783 768.96 
L 995.36087 768.96 
L 995.36087 173.123024 
L 992.934783 173.123024 
z
" style="fill:#1f77b4;"/>
   </g>
   <g id="patch_175">
    <path clip-path="url(#p76ff2815c4)" d="M 997.786957 768.96 
L 1000.213043 768.96 
L 1000.213043 168.799843 
L 997.786957 168.799843 
z
" style="fill:#1f77b4;"/>
   </g>
   <g id="patch_176">
    <path clip-path="url(#p76ff2815c4)" d="M 1002.63913 768.96 
L 1005.065217 768.96 
L 1005.065217 163.628774 
L 1002.63913 163.628774 
z
" style="fill:#1f77b4;"/>
   </g>
   <g id="patch_177">
    <path clip-path="url(#p76ff2815c4)" d="M 1007.491304 768.96 
L 1009.917391 768.96 
L 1009.917391 163.216624 
L 1007.491304 163.216624 
z
" style="fill:#1f77b4;"/>
   </g>
   <g id="patch_178">
    <path clip-path="url(#p76ff2815c4)" d="M 1012.343478 768.96 
L 1014.769565 768.96 
L 1014.769565 162.150526 
L 1012.343478 162.150526 
z
" style="fill:#1f77b4;"/>
   </g>
   <g id="patch_179">
    <path clip-path="url(#p76ff2815c4)" d="M 1017.195652 768.96 
L 1019.621739 768.96 
L 1019.621739 160.807703 
L 1017.195652 160.807703 
z
" style="fill:#1f77b4;"/>
   </g>
   <g id="patch_180">
    <path clip-path="url(#p76ff2815c4)" d="M 1022.047826 768.96 
L 1024.473913 768.96 
L 1024.473913 159.494478 
L 1022.047826 159.494478 
z
" style="fill:#1f77b4;"/>
   </g>
   <g id="patch_181">
    <path clip-path="url(#p76ff2815c4)" d="M 1026.9 768.96 
L 1029.326087 768.96 
L 1029.326087 158.284849 
L 1026.9 158.284849 
z
" style="fill:#1f77b4;"/>
   </g>
   <g id="patch_182">
    <path clip-path="url(#p76ff2815c4)" d="M 1031.752174 768.96 
L 1034.178261 768.96 
L 1034.178261 157.013154 
L 1031.752174 157.013154 
z
" style="fill:#1f77b4;"/>
   </g>
   <g id="patch_183">
    <path clip-path="url(#p76ff2815c4)" d="M 1036.604348 768.96 
L 1039.030435 768.96 
L 1039.030435 156.166268 
L 1036.604348 156.166268 
z
" style="fill:#1f77b4;"/>
   </g>
   <g id="patch_184">
    <path clip-path="url(#p76ff2815c4)" d="M 1041.456522 768.96 
L 1043.882609 768.96 
L 1043.882609 155.754664 
L 1041.456522 155.754664 
z
" style="fill:#1f77b4;"/>
   </g>
   <g id="patch_185">
    <path clip-path="url(#p76ff2815c4)" d="M 1046.308696 768.96 
L 1048.734783 768.96 
L 1048.734783 155.683445 
L 1046.308696 155.683445 
z
" style="fill:#1f77b4;"/>
   </g>
   <g id="patch_186">
    <path clip-path="url(#p76ff2815c4)" d="M 1051.16087 768.96 
L 1053.586957 768.96 
L 1053.586957 155.00172 
L 1051.16087 155.00172 
z
" style="fill:#1f77b4;"/>
   </g>
   <g id="patch_187">
    <path clip-path="url(#p76ff2815c4)" d="M 1056.013043 768.96 
L 1058.43913 768.96 
L 1058.43913 153.78394 
L 1056.013043 153.78394 
z
" style="fill:#1f77b4;"/>
   </g>
   <g id="patch_188">
    <path clip-path="url(#p76ff2815c4)" d="M 1060.865217 768.96 
L 1063.291304 768.96 
L 1063.291304 152.561606 
L 1060.865217 152.561606 
z
" style="fill:#1f77b4;"/>
   </g>
   <g id="patch_189">
    <path clip-path="url(#p76ff2815c4)" d="M 1065.717391 768.96 
L 1068.143478 768.96 
L 1068.143478 151.47406 
L 1065.717391 151.47406 
z
" style="fill:#1f77b4;"/>
   </g>
   <g id="patch_190">
    <path clip-path="url(#p76ff2815c4)" d="M 1070.569565 768.96 
L 1072.995652 768.96 
L 1072.995652 150.591109 
L 1070.569565 150.591109 
z
" style="fill:#1f77b4;"/>
   </g>
   <g id="patch_191">
    <path clip-path="url(#p76ff2815c4)" d="M 1075.421739 768.96 
L 1077.847826 768.96 
L 1077.847826 150.000183 
L 1075.421739 150.000183 
z
" style="fill:#1f77b4;"/>
   </g>
   <g id="patch_192">
    <path clip-path="url(#p76ff2815c4)" d="M 1080.273913 768.96 
L 1082.7 768.96 
L 1082.7 148.868057 
L 1080.273913 148.868057 
z
" style="fill:#1f77b4;"/>
   </g>
   <g id="patch_193">
    <path clip-path="url(#p76ff2815c4)" d="M 1085.126087 768.96 
L 1087.552174 768.96 
L 1087.552174 147.912521 
L 1085.126087 147.912521 
z
" style="fill:#1f77b4;"/>
   </g>
   <g id="patch_194">
    <path clip-path="url(#p76ff2815c4)" d="M 1089.978261 768.96 
L 1092.404348 768.96 
L 1092.404348 147.004297 
L 1089.978261 147.004297 
z
" style="fill:#1f77b4;"/>
   </g>
   <g id="patch_195">
    <path clip-path="url(#p76ff2815c4)" d="M 1094.830435 768.96 
L 1097.256522 768.96 
L 1097.256522 146.090563 
L 1094.830435 146.090563 
z
" style="fill:#1f77b4;"/>
   </g>
   <g id="patch_196">
    <path clip-path="url(#p76ff2815c4)" d="M 1099.682609 768.96 
L 1102.108696 768.96 
L 1102.108696 145.187258 
L 1099.682609 145.187258 
z
" style="fill:#1f77b4;"/>
   </g>
   <g id="patch_197">
    <path clip-path="url(#p76ff2815c4)" d="M 1104.534783 768.96 
L 1106.96087 768.96 
L 1106.96087 144.45567 
L 1104.534783 144.45567 
z
" style="fill:#1f77b4;"/>
   </g>
   <g id="patch_198">
    <path clip-path="url(#p76ff2815c4)" d="M 1109.386957 768.96 
L 1111.813043 768.96 
L 1111.813043 144.041334 
L 1109.386957 144.041334 
z
" style="fill:#1f77b4;"/>
   </g>
   <g id="patch_199">
    <path clip-path="url(#p76ff2815c4)" d="M 1114.23913 768.96 
L 1116.665217 768.96 
L 1116.665217 143.287297 
L 1114.23913 143.287297 
z
" style="fill:#1f77b4;"/>
   </g>
   <g id="patch_200">
    <path clip-path="url(#p76ff2815c4)" d="M 1119.091304 768.96 
L 1121.517391 768.96 
L 1121.517391 142.263502 
L 1119.091304 142.263502 
z
" style="fill:#1f77b4;"/>
   </g>
   <g id="patch_201">
    <path clip-path="url(#p76ff2815c4)" d="M 1123.943478 768.96 
L 1126.369565 768.96 
L 1126.369565 141.310288 
L 1123.943478 141.310288 
z
" style="fill:#1f77b4;"/>
   </g>
   <g id="patch_202">
    <path clip-path="url(#p76ff2815c4)" d="M 1128.795652 768.96 
L 1131.221739 768.96 
L 1131.221739 140.607479 
L 1128.795652 140.607479 
z
" style="fill:#1f77b4;"/>
   </g>
   <g id="patch_203">
    <path clip-path="url(#p76ff2815c4)" d="M 1133.647826 768.96 
L 1136.073913 768.96 
L 1136.073913 139.885408 
L 1133.647826 139.885408 
z
" style="fill:#1f77b4;"/>
   </g>
   <g id="patch_204">
    <path clip-path="url(#p76ff2815c4)" d="M 1138.5 768.96 
L 1140.926087 768.96 
L 1140.926087 139.447985 
L 1138.5 139.447985 
z
" style="fill:#1f77b4;"/>
   </g>
   <g id="patch_205">
    <path clip-path="url(#p76ff2815c4)" d="M 1143.352174 768.96 
L 1145.778261 768.96 
L 1145.778261 139.206142 
L 1143.352174 139.206142 
z
" style="fill:#1f77b4;"/>
   </g>
   <g id="patch_206">
    <path clip-path="url(#p76ff2815c4)" d="M 1148.204348 768.96 
L 1150.630435 768.96 
L 1150.630435 138.785522 
L 1148.204348 138.785522 
z
" style="fill:#1f77b4;"/>
   </g>
   <g id="patch_207">
    <path clip-path="url(#p76ff2815c4)" d="M 1153.056522 768.96 
L 1155.482609 768.96 
L 1155.482609 137.825614 
L 1153.056522 137.825614 
z
" style="fill:#1f77b4;"/>
   </g>
   <g id="patch_208">
    <path clip-path="url(#p76ff2815c4)" d="M 1157.908696 768.96 
L 1160.334783 768.96 
L 1160.334783 136.221822 
L 1157.908696 136.221822 
z
" style="fill:#1f77b4;"/>
   </g>
   <g id="patch_209">
    <path clip-path="url(#p76ff2815c4)" d="M 1162.76087 768.96 
L 1165.186957 768.96 
L 1165.186957 135.36 
L 1162.76087 135.36 
z
" style="fill:#1f77b4;"/>
   </g>
   <g id="matplotlib.axis_1">
    <g id="xtick_1">
     <g id="line2d_1">
      <defs>
       <path d="M 0 0 
L 0 3.5 
" id="m40e30f6180" style="stroke:#000000;stroke-width:0.8;"/>
      </defs>
      <g>
       <use style="stroke:#000000;stroke-width:0.8;" x="164.426087" xlink:href="#m40e30f6180" y="768.96"/>
      </g>
     </g>
     <g id="text_1">
      <!-- January -->
      <g transform="translate(145.470618 783.558437)scale(0.1 -0.1)">
       <defs>
        <path d="M 628 4666 
L 1259 4666 
L 1259 325 
Q 1259 -519 939 -900 
Q 619 -1281 -91 -1281 
L -331 -1281 
L -331 -750 
L -134 -750 
Q 284 -750 456 -515 
Q 628 -281 628 325 
L 628 4666 
z
" id="DejaVuSans-4a" transform="scale(0.015625)"/>
        <path d="M 2194 1759 
Q 1497 1759 1228 1600 
Q 959 1441 959 1056 
Q 959 750 1161 570 
Q 1363 391 1709 391 
Q 2188 391 2477 730 
Q 2766 1069 2766 1631 
L 2766 1759 
L 2194 1759 
z
M 3341 1997 
L 3341 0 
L 2766 0 
L 2766 531 
Q 2569 213 2275 61 
Q 1981 -91 1556 -91 
Q 1019 -91 701 211 
Q 384 513 384 1019 
Q 384 1609 779 1909 
Q 1175 2209 1959 2209 
L 2766 2209 
L 2766 2266 
Q 2766 2663 2505 2880 
Q 2244 3097 1772 3097 
Q 1472 3097 1187 3025 
Q 903 2953 641 2809 
L 641 3341 
Q 956 3463 1253 3523 
Q 1550 3584 1831 3584 
Q 2591 3584 2966 3190 
Q 3341 2797 3341 1997 
z
" id="DejaVuSans-61" transform="scale(0.015625)"/>
        <path d="M 3513 2113 
L 3513 0 
L 2938 0 
L 2938 2094 
Q 2938 2591 2744 2837 
Q 2550 3084 2163 3084 
Q 1697 3084 1428 2787 
Q 1159 2491 1159 1978 
L 1159 0 
L 581 0 
L 581 3500 
L 1159 3500 
L 1159 2956 
Q 1366 3272 1645 3428 
Q 1925 3584 2291 3584 
Q 2894 3584 3203 3211 
Q 3513 2838 3513 2113 
z
" id="DejaVuSans-6e" transform="scale(0.015625)"/>
        <path d="M 544 1381 
L 544 3500 
L 1119 3500 
L 1119 1403 
Q 1119 906 1312 657 
Q 1506 409 1894 409 
Q 2359 409 2629 706 
Q 2900 1003 2900 1516 
L 2900 3500 
L 3475 3500 
L 3475 0 
L 2900 0 
L 2900 538 
Q 2691 219 2414 64 
Q 2138 -91 1772 -91 
Q 1169 -91 856 284 
Q 544 659 544 1381 
z
M 1991 3584 
L 1991 3584 
z
" id="DejaVuSans-75" transform="scale(0.015625)"/>
        <path d="M 2631 2963 
Q 2534 3019 2420 3045 
Q 2306 3072 2169 3072 
Q 1681 3072 1420 2755 
Q 1159 2438 1159 1844 
L 1159 0 
L 581 0 
L 581 3500 
L 1159 3500 
L 1159 2956 
Q 1341 3275 1631 3429 
Q 1922 3584 2338 3584 
Q 2397 3584 2469 3576 
Q 2541 3569 2628 3553 
L 2631 2963 
z
" id="DejaVuSans-72" transform="scale(0.015625)"/>
        <path d="M 2059 -325 
Q 1816 -950 1584 -1140 
Q 1353 -1331 966 -1331 
L 506 -1331 
L 506 -850 
L 844 -850 
Q 1081 -850 1212 -737 
Q 1344 -625 1503 -206 
L 1606 56 
L 191 3500 
L 800 3500 
L 1894 763 
L 2988 3500 
L 3597 3500 
L 2059 -325 
z
" id="DejaVuSans-79" transform="scale(0.015625)"/>
       </defs>
       <use xlink:href="#DejaVuSans-4a"/>
       <use x="29.492188" xlink:href="#DejaVuSans-61"/>
       <use x="90.771484" xlink:href="#DejaVuSans-6e"/>
       <use x="154.150391" xlink:href="#DejaVuSans-75"/>
       <use x="217.529297" xlink:href="#DejaVuSans-61"/>
       <use x="278.808594" xlink:href="#DejaVuSans-72"/>
       <use x="319.921875" xlink:href="#DejaVuSans-79"/>
      </g>
     </g>
    </g>
    <g id="xtick_2">
     <g id="line2d_2">
      <g>
       <use style="stroke:#000000;stroke-width:0.8;" x="314.843478" xlink:href="#m40e30f6180" y="768.96"/>
      </g>
     </g>
     <g id="text_2">
      <!-- February -->
      <g transform="translate(292.688791 783.558437)scale(0.1 -0.1)">
       <defs>
        <path d="M 628 4666 
L 3309 4666 
L 3309 4134 
L 1259 4134 
L 1259 2759 
L 3109 2759 
L 3109 2228 
L 1259 2228 
L 1259 0 
L 628 0 
L 628 4666 
z
" id="DejaVuSans-46" transform="scale(0.015625)"/>
        <path d="M 3597 1894 
L 3597 1613 
L 953 1613 
Q 991 1019 1311 708 
Q 1631 397 2203 397 
Q 2534 397 2845 478 
Q 3156 559 3463 722 
L 3463 178 
Q 3153 47 2828 -22 
Q 2503 -91 2169 -91 
Q 1331 -91 842 396 
Q 353 884 353 1716 
Q 353 2575 817 3079 
Q 1281 3584 2069 3584 
Q 2775 3584 3186 3129 
Q 3597 2675 3597 1894 
z
M 3022 2063 
Q 3016 2534 2758 2815 
Q 2500 3097 2075 3097 
Q 1594 3097 1305 2825 
Q 1016 2553 972 2059 
L 3022 2063 
z
" id="DejaVuSans-65" transform="scale(0.015625)"/>
        <path d="M 3116 1747 
Q 3116 2381 2855 2742 
Q 2594 3103 2138 3103 
Q 1681 3103 1420 2742 
Q 1159 2381 1159 1747 
Q 1159 1113 1420 752 
Q 1681 391 2138 391 
Q 2594 391 2855 752 
Q 3116 1113 3116 1747 
z
M 1159 2969 
Q 1341 3281 1617 3432 
Q 1894 3584 2278 3584 
Q 2916 3584 3314 3078 
Q 3713 2572 3713 1747 
Q 3713 922 3314 415 
Q 2916 -91 2278 -91 
Q 1894 -91 1617 61 
Q 1341 213 1159 525 
L 1159 0 
L 581 0 
L 581 4863 
L 1159 4863 
L 1159 2969 
z
" id="DejaVuSans-62" transform="scale(0.015625)"/>
       </defs>
       <use xlink:href="#DejaVuSans-46"/>
       <use x="52.019531" xlink:href="#DejaVuSans-65"/>
       <use x="113.542969" xlink:href="#DejaVuSans-62"/>
       <use x="177.019531" xlink:href="#DejaVuSans-72"/>
       <use x="218.132812" xlink:href="#DejaVuSans-75"/>
       <use x="281.511719" xlink:href="#DejaVuSans-61"/>
       <use x="342.791016" xlink:href="#DejaVuSans-72"/>
       <use x="383.904297" xlink:href="#DejaVuSans-79"/>
      </g>
     </g>
    </g>
    <g id="xtick_3">
     <g id="line2d_3">
      <g>
       <use style="stroke:#000000;stroke-width:0.8;" x="450.704348" xlink:href="#m40e30f6180" y="768.96"/>
      </g>
     </g>
     <g id="text_3">
      <!-- March -->
      <g transform="translate(435.465285 783.558437)scale(0.1 -0.1)">
       <defs>
        <path d="M 628 4666 
L 1569 4666 
L 2759 1491 
L 3956 4666 
L 4897 4666 
L 4897 0 
L 4281 0 
L 4281 4097 
L 3078 897 
L 2444 897 
L 1241 4097 
L 1241 0 
L 628 0 
L 628 4666 
z
" id="DejaVuSans-4d" transform="scale(0.015625)"/>
        <path d="M 3122 3366 
L 3122 2828 
Q 2878 2963 2633 3030 
Q 2388 3097 2138 3097 
Q 1578 3097 1268 2742 
Q 959 2388 959 1747 
Q 959 1106 1268 751 
Q 1578 397 2138 397 
Q 2388 397 2633 464 
Q 2878 531 3122 666 
L 3122 134 
Q 2881 22 2623 -34 
Q 2366 -91 2075 -91 
Q 1284 -91 818 406 
Q 353 903 353 1747 
Q 353 2603 823 3093 
Q 1294 3584 2113 3584 
Q 2378 3584 2631 3529 
Q 2884 3475 3122 3366 
z
" id="DejaVuSans-63" transform="scale(0.015625)"/>
        <path d="M 3513 2113 
L 3513 0 
L 2938 0 
L 2938 2094 
Q 2938 2591 2744 2837 
Q 2550 3084 2163 3084 
Q 1697 3084 1428 2787 
Q 1159 2491 1159 1978 
L 1159 0 
L 581 0 
L 581 4863 
L 1159 4863 
L 1159 2956 
Q 1366 3272 1645 3428 
Q 1925 3584 2291 3584 
Q 2894 3584 3203 3211 
Q 3513 2838 3513 2113 
z
" id="DejaVuSans-68" transform="scale(0.015625)"/>
       </defs>
       <use xlink:href="#DejaVuSans-4d"/>
       <use x="86.279297" xlink:href="#DejaVuSans-61"/>
       <use x="147.558594" xlink:href="#DejaVuSans-72"/>
       <use x="186.421875" xlink:href="#DejaVuSans-63"/>
       <use x="241.402344" xlink:href="#DejaVuSans-68"/>
      </g>
     </g>
    </g>
    <g id="xtick_4">
     <g id="line2d_4">
      <g>
       <use style="stroke:#000000;stroke-width:0.8;" x="601.121739" xlink:href="#m40e30f6180" y="768.96"/>
      </g>
     </g>
     <g id="text_4">
      <!-- April -->
      <g transform="translate(589.693614 783.558437)scale(0.1 -0.1)">
       <defs>
        <path d="M 2188 4044 
L 1331 1722 
L 3047 1722 
L 2188 4044 
z
M 1831 4666 
L 2547 4666 
L 4325 0 
L 3669 0 
L 3244 1197 
L 1141 1197 
L 716 0 
L 50 0 
L 1831 4666 
z
" id="DejaVuSans-41" transform="scale(0.015625)"/>
        <path d="M 1159 525 
L 1159 -1331 
L 581 -1331 
L 581 3500 
L 1159 3500 
L 1159 2969 
Q 1341 3281 1617 3432 
Q 1894 3584 2278 3584 
Q 2916 3584 3314 3078 
Q 3713 2572 3713 1747 
Q 3713 922 3314 415 
Q 2916 -91 2278 -91 
Q 1894 -91 1617 61 
Q 1341 213 1159 525 
z
M 3116 1747 
Q 3116 2381 2855 2742 
Q 2594 3103 2138 3103 
Q 1681 3103 1420 2742 
Q 1159 2381 1159 1747 
Q 1159 1113 1420 752 
Q 1681 391 2138 391 
Q 2594 391 2855 752 
Q 3116 1113 3116 1747 
z
" id="DejaVuSans-70" transform="scale(0.015625)"/>
        <path d="M 603 3500 
L 1178 3500 
L 1178 0 
L 603 0 
L 603 3500 
z
M 603 4863 
L 1178 4863 
L 1178 4134 
L 603 4134 
L 603 4863 
z
" id="DejaVuSans-69" transform="scale(0.015625)"/>
        <path d="M 603 4863 
L 1178 4863 
L 1178 0 
L 603 0 
L 603 4863 
z
" id="DejaVuSans-6c" transform="scale(0.015625)"/>
       </defs>
       <use xlink:href="#DejaVuSans-41"/>
       <use x="68.408203" xlink:href="#DejaVuSans-70"/>
       <use x="131.884766" xlink:href="#DejaVuSans-72"/>
       <use x="172.998047" xlink:href="#DejaVuSans-69"/>
       <use x="200.78125" xlink:href="#DejaVuSans-6c"/>
      </g>
     </g>
    </g>
    <g id="xtick_5">
     <g id="line2d_5">
      <g>
       <use style="stroke:#000000;stroke-width:0.8;" x="746.686957" xlink:href="#m40e30f6180" y="768.96"/>
      </g>
     </g>
     <g id="text_5">
      <!-- May -->
      <g transform="translate(736.349457 783.558437)scale(0.1 -0.1)">
       <use xlink:href="#DejaVuSans-4d"/>
       <use x="86.279297" xlink:href="#DejaVuSans-61"/>
       <use x="147.558594" xlink:href="#DejaVuSans-79"/>
      </g>
     </g>
    </g>
    <g id="xtick_6">
     <g id="line2d_6">
      <g>
       <use style="stroke:#000000;stroke-width:0.8;" x="897.104348" xlink:href="#m40e30f6180" y="768.96"/>
      </g>
     </g>
     <g id="text_6">
      <!-- June -->
      <g transform="translate(886.215285 783.558437)scale(0.1 -0.1)">
       <use xlink:href="#DejaVuSans-4a"/>
       <use x="29.492188" xlink:href="#DejaVuSans-75"/>
       <use x="92.871094" xlink:href="#DejaVuSans-6e"/>
       <use x="156.25" xlink:href="#DejaVuSans-65"/>
      </g>
     </g>
    </g>
    <g id="xtick_7">
     <g id="line2d_7">
      <g>
       <use style="stroke:#000000;stroke-width:0.8;" x="1042.669565" xlink:href="#m40e30f6180" y="768.96"/>
      </g>
     </g>
     <g id="text_7">
      <!-- July -->
      <g transform="translate(1033.677378 783.558437)scale(0.1 -0.1)">
       <use xlink:href="#DejaVuSans-4a"/>
       <use x="29.492188" xlink:href="#DejaVuSans-75"/>
       <use x="92.871094" xlink:href="#DejaVuSans-6c"/>
       <use x="120.654297" xlink:href="#DejaVuSans-79"/>
      </g>
     </g>
    </g>
   </g>
   <g id="matplotlib.axis_2">
    <g id="ytick_1">
     <g id="line2d_8">
      <defs>
       <path d="M 0 0 
L -3.5 0 
" id="md3bbbd1f6e" style="stroke:#000000;stroke-width:0.8;"/>
      </defs>
      <g>
       <use style="stroke:#000000;stroke-width:0.8;" x="162" xlink:href="#md3bbbd1f6e" y="768.96"/>
      </g>
     </g>
     <g id="text_8">
      <!-- 0.0 -->
      <g transform="translate(139.096875 772.759219)scale(0.1 -0.1)">
       <defs>
        <path d="M 2034 4250 
Q 1547 4250 1301 3770 
Q 1056 3291 1056 2328 
Q 1056 1369 1301 889 
Q 1547 409 2034 409 
Q 2525 409 2770 889 
Q 3016 1369 3016 2328 
Q 3016 3291 2770 3770 
Q 2525 4250 2034 4250 
z
M 2034 4750 
Q 2819 4750 3233 4129 
Q 3647 3509 3647 2328 
Q 3647 1150 3233 529 
Q 2819 -91 2034 -91 
Q 1250 -91 836 529 
Q 422 1150 422 2328 
Q 422 3509 836 4129 
Q 1250 4750 2034 4750 
z
" id="DejaVuSans-30" transform="scale(0.015625)"/>
        <path d="M 684 794 
L 1344 794 
L 1344 0 
L 684 0 
L 684 794 
z
" id="DejaVuSans-2e" transform="scale(0.015625)"/>
       </defs>
       <use xlink:href="#DejaVuSans-30"/>
       <use x="63.623047" xlink:href="#DejaVuSans-2e"/>
       <use x="95.410156" xlink:href="#DejaVuSans-30"/>
      </g>
     </g>
    </g>
    <g id="ytick_2">
     <g id="line2d_9">
      <g>
       <use style="stroke:#000000;stroke-width:0.8;" x="162" xlink:href="#md3bbbd1f6e" y="677.887184"/>
      </g>
     </g>
     <g id="text_9">
      <!-- 0.2 -->
      <g transform="translate(139.096875 681.686403)scale(0.1 -0.1)">
       <defs>
        <path d="M 1228 531 
L 3431 531 
L 3431 0 
L 469 0 
L 469 531 
Q 828 903 1448 1529 
Q 2069 2156 2228 2338 
Q 2531 2678 2651 2914 
Q 2772 3150 2772 3378 
Q 2772 3750 2511 3984 
Q 2250 4219 1831 4219 
Q 1534 4219 1204 4116 
Q 875 4013 500 3803 
L 500 4441 
Q 881 4594 1212 4672 
Q 1544 4750 1819 4750 
Q 2544 4750 2975 4387 
Q 3406 4025 3406 3419 
Q 3406 3131 3298 2873 
Q 3191 2616 2906 2266 
Q 2828 2175 2409 1742 
Q 1991 1309 1228 531 
z
" id="DejaVuSans-32" transform="scale(0.015625)"/>
       </defs>
       <use xlink:href="#DejaVuSans-30"/>
       <use x="63.623047" xlink:href="#DejaVuSans-2e"/>
       <use x="95.410156" xlink:href="#DejaVuSans-32"/>
      </g>
     </g>
    </g>
    <g id="ytick_3">
     <g id="line2d_10">
      <g>
       <use style="stroke:#000000;stroke-width:0.8;" x="162" xlink:href="#md3bbbd1f6e" y="586.814368"/>
      </g>
     </g>
     <g id="text_10">
      <!-- 0.4 -->
      <g transform="translate(139.096875 590.613587)scale(0.1 -0.1)">
       <defs>
        <path d="M 2419 4116 
L 825 1625 
L 2419 1625 
L 2419 4116 
z
M 2253 4666 
L 3047 4666 
L 3047 1625 
L 3713 1625 
L 3713 1100 
L 3047 1100 
L 3047 0 
L 2419 0 
L 2419 1100 
L 313 1100 
L 313 1709 
L 2253 4666 
z
" id="DejaVuSans-34" transform="scale(0.015625)"/>
       </defs>
       <use xlink:href="#DejaVuSans-30"/>
       <use x="63.623047" xlink:href="#DejaVuSans-2e"/>
       <use x="95.410156" xlink:href="#DejaVuSans-34"/>
      </g>
     </g>
    </g>
    <g id="ytick_4">
     <g id="line2d_11">
      <g>
       <use style="stroke:#000000;stroke-width:0.8;" x="162" xlink:href="#md3bbbd1f6e" y="495.741553"/>
      </g>
     </g>
     <g id="text_11">
      <!-- 0.6 -->
      <g transform="translate(139.096875 499.540771)scale(0.1 -0.1)">
       <defs>
        <path d="M 2113 2584 
Q 1688 2584 1439 2293 
Q 1191 2003 1191 1497 
Q 1191 994 1439 701 
Q 1688 409 2113 409 
Q 2538 409 2786 701 
Q 3034 994 3034 1497 
Q 3034 2003 2786 2293 
Q 2538 2584 2113 2584 
z
M 3366 4563 
L 3366 3988 
Q 3128 4100 2886 4159 
Q 2644 4219 2406 4219 
Q 1781 4219 1451 3797 
Q 1122 3375 1075 2522 
Q 1259 2794 1537 2939 
Q 1816 3084 2150 3084 
Q 2853 3084 3261 2657 
Q 3669 2231 3669 1497 
Q 3669 778 3244 343 
Q 2819 -91 2113 -91 
Q 1303 -91 875 529 
Q 447 1150 447 2328 
Q 447 3434 972 4092 
Q 1497 4750 2381 4750 
Q 2619 4750 2861 4703 
Q 3103 4656 3366 4563 
z
" id="DejaVuSans-36" transform="scale(0.015625)"/>
       </defs>
       <use xlink:href="#DejaVuSans-30"/>
       <use x="63.623047" xlink:href="#DejaVuSans-2e"/>
       <use x="95.410156" xlink:href="#DejaVuSans-36"/>
      </g>
     </g>
    </g>
    <g id="ytick_5">
     <g id="line2d_12">
      <g>
       <use style="stroke:#000000;stroke-width:0.8;" x="162" xlink:href="#md3bbbd1f6e" y="404.668737"/>
      </g>
     </g>
     <g id="text_12">
      <!-- 0.8 -->
      <g transform="translate(139.096875 408.467956)scale(0.1 -0.1)">
       <defs>
        <path d="M 2034 2216 
Q 1584 2216 1326 1975 
Q 1069 1734 1069 1313 
Q 1069 891 1326 650 
Q 1584 409 2034 409 
Q 2484 409 2743 651 
Q 3003 894 3003 1313 
Q 3003 1734 2745 1975 
Q 2488 2216 2034 2216 
z
M 1403 2484 
Q 997 2584 770 2862 
Q 544 3141 544 3541 
Q 544 4100 942 4425 
Q 1341 4750 2034 4750 
Q 2731 4750 3128 4425 
Q 3525 4100 3525 3541 
Q 3525 3141 3298 2862 
Q 3072 2584 2669 2484 
Q 3125 2378 3379 2068 
Q 3634 1759 3634 1313 
Q 3634 634 3220 271 
Q 2806 -91 2034 -91 
Q 1263 -91 848 271 
Q 434 634 434 1313 
Q 434 1759 690 2068 
Q 947 2378 1403 2484 
z
M 1172 3481 
Q 1172 3119 1398 2916 
Q 1625 2713 2034 2713 
Q 2441 2713 2670 2916 
Q 2900 3119 2900 3481 
Q 2900 3844 2670 4047 
Q 2441 4250 2034 4250 
Q 1625 4250 1398 4047 
Q 1172 3844 1172 3481 
z
" id="DejaVuSans-38" transform="scale(0.015625)"/>
       </defs>
       <use xlink:href="#DejaVuSans-30"/>
       <use x="63.623047" xlink:href="#DejaVuSans-2e"/>
       <use x="95.410156" xlink:href="#DejaVuSans-38"/>
      </g>
     </g>
    </g>
    <g id="ytick_6">
     <g id="line2d_13">
      <g>
       <use style="stroke:#000000;stroke-width:0.8;" x="162" xlink:href="#md3bbbd1f6e" y="313.595921"/>
      </g>
     </g>
     <g id="text_13">
      <!-- 1.0 -->
      <g transform="translate(139.096875 317.39514)scale(0.1 -0.1)">
       <defs>
        <path d="M 794 531 
L 1825 531 
L 1825 4091 
L 703 3866 
L 703 4441 
L 1819 4666 
L 2450 4666 
L 2450 531 
L 3481 531 
L 3481 0 
L 794 0 
L 794 531 
z
" id="DejaVuSans-31" transform="scale(0.015625)"/>
       </defs>
       <use xlink:href="#DejaVuSans-31"/>
       <use x="63.623047" xlink:href="#DejaVuSans-2e"/>
       <use x="95.410156" xlink:href="#DejaVuSans-30"/>
      </g>
     </g>
    </g>
    <g id="ytick_7">
     <g id="line2d_14">
      <g>
       <use style="stroke:#000000;stroke-width:0.8;" x="162" xlink:href="#md3bbbd1f6e" y="222.523105"/>
      </g>
     </g>
     <g id="text_14">
      <!-- 1.2 -->
      <g transform="translate(139.096875 226.322324)scale(0.1 -0.1)">
       <use xlink:href="#DejaVuSans-31"/>
       <use x="63.623047" xlink:href="#DejaVuSans-2e"/>
       <use x="95.410156" xlink:href="#DejaVuSans-32"/>
      </g>
     </g>
    </g>
    <g id="ytick_8">
     <g id="line2d_15">
      <g>
       <use style="stroke:#000000;stroke-width:0.8;" x="162" xlink:href="#md3bbbd1f6e" y="131.45029"/>
      </g>
     </g>
     <g id="text_15">
      <!-- 1.4 -->
      <g transform="translate(139.096875 135.249508)scale(0.1 -0.1)">
       <use xlink:href="#DejaVuSans-31"/>
       <use x="63.623047" xlink:href="#DejaVuSans-2e"/>
       <use x="95.410156" xlink:href="#DejaVuSans-34"/>
      </g>
     </g>
    </g>
    <g id="text_16">
     <!-- Persons fully vaccinated (tens of millions) -->
     <g transform="translate(133.017188 540.480156)rotate(-90)scale(0.1 -0.1)">
      <defs>
       <path d="M 1259 4147 
L 1259 2394 
L 2053 2394 
Q 2494 2394 2734 2622 
Q 2975 2850 2975 3272 
Q 2975 3691 2734 3919 
Q 2494 4147 2053 4147 
L 1259 4147 
z
M 628 4666 
L 2053 4666 
Q 2838 4666 3239 4311 
Q 3641 3956 3641 3272 
Q 3641 2581 3239 2228 
Q 2838 1875 2053 1875 
L 1259 1875 
L 1259 0 
L 628 0 
L 628 4666 
z
" id="DejaVuSans-50" transform="scale(0.015625)"/>
       <path d="M 2834 3397 
L 2834 2853 
Q 2591 2978 2328 3040 
Q 2066 3103 1784 3103 
Q 1356 3103 1142 2972 
Q 928 2841 928 2578 
Q 928 2378 1081 2264 
Q 1234 2150 1697 2047 
L 1894 2003 
Q 2506 1872 2764 1633 
Q 3022 1394 3022 966 
Q 3022 478 2636 193 
Q 2250 -91 1575 -91 
Q 1294 -91 989 -36 
Q 684 19 347 128 
L 347 722 
Q 666 556 975 473 
Q 1284 391 1588 391 
Q 1994 391 2212 530 
Q 2431 669 2431 922 
Q 2431 1156 2273 1281 
Q 2116 1406 1581 1522 
L 1381 1569 
Q 847 1681 609 1914 
Q 372 2147 372 2553 
Q 372 3047 722 3315 
Q 1072 3584 1716 3584 
Q 2034 3584 2315 3537 
Q 2597 3491 2834 3397 
z
" id="DejaVuSans-73" transform="scale(0.015625)"/>
       <path d="M 1959 3097 
Q 1497 3097 1228 2736 
Q 959 2375 959 1747 
Q 959 1119 1226 758 
Q 1494 397 1959 397 
Q 2419 397 2687 759 
Q 2956 1122 2956 1747 
Q 2956 2369 2687 2733 
Q 2419 3097 1959 3097 
z
M 1959 3584 
Q 2709 3584 3137 3096 
Q 3566 2609 3566 1747 
Q 3566 888 3137 398 
Q 2709 -91 1959 -91 
Q 1206 -91 779 398 
Q 353 888 353 1747 
Q 353 2609 779 3096 
Q 1206 3584 1959 3584 
z
" id="DejaVuSans-6f" transform="scale(0.015625)"/>
       <path id="DejaVuSans-20" transform="scale(0.015625)"/>
       <path d="M 2375 4863 
L 2375 4384 
L 1825 4384 
Q 1516 4384 1395 4259 
Q 1275 4134 1275 3809 
L 1275 3500 
L 2222 3500 
L 2222 3053 
L 1275 3053 
L 1275 0 
L 697 0 
L 697 3053 
L 147 3053 
L 147 3500 
L 697 3500 
L 697 3744 
Q 697 4328 969 4595 
Q 1241 4863 1831 4863 
L 2375 4863 
z
" id="DejaVuSans-66" transform="scale(0.015625)"/>
       <path d="M 191 3500 
L 800 3500 
L 1894 563 
L 2988 3500 
L 3597 3500 
L 2284 0 
L 1503 0 
L 191 3500 
z
" id="DejaVuSans-76" transform="scale(0.015625)"/>
       <path d="M 1172 4494 
L 1172 3500 
L 2356 3500 
L 2356 3053 
L 1172 3053 
L 1172 1153 
Q 1172 725 1289 603 
Q 1406 481 1766 481 
L 2356 481 
L 2356 0 
L 1766 0 
Q 1100 0 847 248 
Q 594 497 594 1153 
L 594 3053 
L 172 3053 
L 172 3500 
L 594 3500 
L 594 4494 
L 1172 4494 
z
" id="DejaVuSans-74" transform="scale(0.015625)"/>
       <path d="M 2906 2969 
L 2906 4863 
L 3481 4863 
L 3481 0 
L 2906 0 
L 2906 525 
Q 2725 213 2448 61 
Q 2172 -91 1784 -91 
Q 1150 -91 751 415 
Q 353 922 353 1747 
Q 353 2572 751 3078 
Q 1150 3584 1784 3584 
Q 2172 3584 2448 3432 
Q 2725 3281 2906 2969 
z
M 947 1747 
Q 947 1113 1208 752 
Q 1469 391 1925 391 
Q 2381 391 2643 752 
Q 2906 1113 2906 1747 
Q 2906 2381 2643 2742 
Q 2381 3103 1925 3103 
Q 1469 3103 1208 2742 
Q 947 2381 947 1747 
z
" id="DejaVuSans-64" transform="scale(0.015625)"/>
       <path d="M 1984 4856 
Q 1566 4138 1362 3434 
Q 1159 2731 1159 2009 
Q 1159 1288 1364 580 
Q 1569 -128 1984 -844 
L 1484 -844 
Q 1016 -109 783 600 
Q 550 1309 550 2009 
Q 550 2706 781 3412 
Q 1013 4119 1484 4856 
L 1984 4856 
z
" id="DejaVuSans-28" transform="scale(0.015625)"/>
       <path d="M 3328 2828 
Q 3544 3216 3844 3400 
Q 4144 3584 4550 3584 
Q 5097 3584 5394 3201 
Q 5691 2819 5691 2113 
L 5691 0 
L 5113 0 
L 5113 2094 
Q 5113 2597 4934 2840 
Q 4756 3084 4391 3084 
Q 3944 3084 3684 2787 
Q 3425 2491 3425 1978 
L 3425 0 
L 2847 0 
L 2847 2094 
Q 2847 2600 2669 2842 
Q 2491 3084 2119 3084 
Q 1678 3084 1418 2786 
Q 1159 2488 1159 1978 
L 1159 0 
L 581 0 
L 581 3500 
L 1159 3500 
L 1159 2956 
Q 1356 3278 1631 3431 
Q 1906 3584 2284 3584 
Q 2666 3584 2933 3390 
Q 3200 3197 3328 2828 
z
" id="DejaVuSans-6d" transform="scale(0.015625)"/>
       <path d="M 513 4856 
L 1013 4856 
Q 1481 4119 1714 3412 
Q 1947 2706 1947 2009 
Q 1947 1309 1714 600 
Q 1481 -109 1013 -844 
L 513 -844 
Q 928 -128 1133 580 
Q 1338 1288 1338 2009 
Q 1338 2731 1133 3434 
Q 928 4138 513 4856 
z
" id="DejaVuSans-29" transform="scale(0.015625)"/>
      </defs>
      <use xlink:href="#DejaVuSans-50"/>
      <use x="56.677734" xlink:href="#DejaVuSans-65"/>
      <use x="118.201172" xlink:href="#DejaVuSans-72"/>
      <use x="159.314453" xlink:href="#DejaVuSans-73"/>
      <use x="211.414062" xlink:href="#DejaVuSans-6f"/>
      <use x="272.595703" xlink:href="#DejaVuSans-6e"/>
      <use x="335.974609" xlink:href="#DejaVuSans-73"/>
      <use x="388.074219" xlink:href="#DejaVuSans-20"/>
      <use x="419.861328" xlink:href="#DejaVuSans-66"/>
      <use x="455.066406" xlink:href="#DejaVuSans-75"/>
      <use x="518.445312" xlink:href="#DejaVuSans-6c"/>
      <use x="546.228516" xlink:href="#DejaVuSans-6c"/>
      <use x="574.011719" xlink:href="#DejaVuSans-79"/>
      <use x="633.191406" xlink:href="#DejaVuSans-20"/>
      <use x="664.978516" xlink:href="#DejaVuSans-76"/>
      <use x="724.158203" xlink:href="#DejaVuSans-61"/>
      <use x="785.4375" xlink:href="#DejaVuSans-63"/>
      <use x="840.417969" xlink:href="#DejaVuSans-63"/>
      <use x="895.398438" xlink:href="#DejaVuSans-69"/>
      <use x="923.181641" xlink:href="#DejaVuSans-6e"/>
      <use x="986.560547" xlink:href="#DejaVuSans-61"/>
      <use x="1047.839844" xlink:href="#DejaVuSans-74"/>
      <use x="1087.048828" xlink:href="#DejaVuSans-65"/>
      <use x="1148.572266" xlink:href="#DejaVuSans-64"/>
      <use x="1212.048828" xlink:href="#DejaVuSans-20"/>
      <use x="1243.835938" xlink:href="#DejaVuSans-28"/>
      <use x="1282.849609" xlink:href="#DejaVuSans-74"/>
      <use x="1322.058594" xlink:href="#DejaVuSans-65"/>
      <use x="1383.582031" xlink:href="#DejaVuSans-6e"/>
      <use x="1446.960938" xlink:href="#DejaVuSans-73"/>
      <use x="1499.060547" xlink:href="#DejaVuSans-20"/>
      <use x="1530.847656" xlink:href="#DejaVuSans-6f"/>
      <use x="1592.029297" xlink:href="#DejaVuSans-66"/>
      <use x="1627.234375" xlink:href="#DejaVuSans-20"/>
      <use x="1659.021484" xlink:href="#DejaVuSans-6d"/>
      <use x="1756.433594" xlink:href="#DejaVuSans-69"/>
      <use x="1784.216797" xlink:href="#DejaVuSans-6c"/>
      <use x="1812" xlink:href="#DejaVuSans-6c"/>
      <use x="1839.783203" xlink:href="#DejaVuSans-69"/>
      <use x="1867.566406" xlink:href="#DejaVuSans-6f"/>
      <use x="1928.748047" xlink:href="#DejaVuSans-6e"/>
      <use x="1992.126953" xlink:href="#DejaVuSans-73"/>
      <use x="2044.226562" xlink:href="#DejaVuSans-29"/>
     </g>
    </g>
    <g id="text_17">
     <!-- 1e7 -->
     <g transform="translate(162 100.68)scale(0.1 -0.1)">
      <defs>
       <path d="M 525 4666 
L 3525 4666 
L 3525 4397 
L 1831 0 
L 1172 0 
L 2766 4134 
L 525 4134 
L 525 4666 
z
" id="DejaVuSans-37" transform="scale(0.015625)"/>
      </defs>
      <use xlink:href="#DejaVuSans-31"/>
      <use x="63.623047" xlink:href="#DejaVuSans-65"/>
      <use x="125.146484" xlink:href="#DejaVuSans-37"/>
     </g>
    </g>
   </g>
   <g id="patch_210">
    <path d="M 162 768.96 
L 162 103.68 
" style="fill:none;stroke:#000000;stroke-linecap:square;stroke-linejoin:miter;stroke-width:0.8;"/>
   </g>
   <g id="patch_211">
    <path d="M 1166.4 768.96 
L 1166.4 103.68 
" style="fill:none;stroke:#000000;stroke-linecap:square;stroke-linejoin:miter;stroke-width:0.8;"/>
   </g>
   <g id="patch_212">
    <path d="M 162 768.96 
L 1166.4 768.96 
" style="fill:none;stroke:#000000;stroke-linecap:square;stroke-linejoin:miter;stroke-width:0.8;"/>
   </g>
   <g id="patch_213">
    <path d="M 162 103.68 
L 1166.4 103.68 
" style="fill:none;stroke:#000000;stroke-linecap:square;stroke-linejoin:miter;stroke-width:0.8;"/>
   </g>
   <g id="text_18">
    <!-- Persons Fully Vaccinated -->
    <g transform="translate(590.380313 97.68)scale(0.12 -0.12)">
     <defs>
      <path d="M 1831 0 
L 50 4666 
L 709 4666 
L 2188 738 
L 3669 4666 
L 4325 4666 
L 2547 0 
L 1831 0 
z
" id="DejaVuSans-56" transform="scale(0.015625)"/>
     </defs>
     <use xlink:href="#DejaVuSans-50"/>
     <use x="56.677734" xlink:href="#DejaVuSans-65"/>
     <use x="118.201172" xlink:href="#DejaVuSans-72"/>
     <use x="159.314453" xlink:href="#DejaVuSans-73"/>
     <use x="211.414062" xlink:href="#DejaVuSans-6f"/>
     <use x="272.595703" xlink:href="#DejaVuSans-6e"/>
     <use x="335.974609" xlink:href="#DejaVuSans-73"/>
     <use x="388.074219" xlink:href="#DejaVuSans-20"/>
     <use x="419.861328" xlink:href="#DejaVuSans-46"/>
     <use x="471.880859" xlink:href="#DejaVuSans-75"/>
     <use x="535.259766" xlink:href="#DejaVuSans-6c"/>
     <use x="563.042969" xlink:href="#DejaVuSans-6c"/>
     <use x="590.826172" xlink:href="#DejaVuSans-79"/>
     <use x="650.005859" xlink:href="#DejaVuSans-20"/>
     <use x="681.792969" xlink:href="#DejaVuSans-56"/>
     <use x="742.451172" xlink:href="#DejaVuSans-61"/>
     <use x="803.730469" xlink:href="#DejaVuSans-63"/>
     <use x="858.710938" xlink:href="#DejaVuSans-63"/>
     <use x="913.691406" xlink:href="#DejaVuSans-69"/>
     <use x="941.474609" xlink:href="#DejaVuSans-6e"/>
     <use x="1004.853516" xlink:href="#DejaVuSans-61"/>
     <use x="1066.132812" xlink:href="#DejaVuSans-74"/>
     <use x="1105.341797" xlink:href="#DejaVuSans-65"/>
     <use x="1166.865234" xlink:href="#DejaVuSans-64"/>
    </g>
   </g>
  </g>
 </g>
 <defs>
  <clipPath id="p76ff2815c4">
   <rect height="665.28" width="1004.4" x="162" y="103.68"/>
  </clipPath>
 </defs>
</svg>
