<?xml version="1.0" encoding="utf-8" standalone="no"?>
<!DOCTYPE svg PUBLIC "-//W3C//DTD SVG 1.1//EN"
  "http://www.w3.org/Graphics/SVG/1.1/DTD/svg11.dtd">
<svg height="864pt" version="1.1" viewBox="0 0 1296 864" width="1296pt" xmlns="http://www.w3.org/2000/svg" xmlns:xlink="http://www.w3.org/1999/xlink">
 <metadata>
  <rdf:RDF xmlns:cc="http://creativecommons.org/ns#" xmlns:dc="http://purl.org/dc/elements/1.1/" xmlns:rdf="http://www.w3.org/1999/02/22-rdf-syntax-ns#">
   <cc:Work>
    <dc:type rdf:resource="http://purl.org/dc/dcmitype/StillImage"/>
    <dc:date>2021-09-23T04:23:21.864120</dc:date>
    <dc:format>image/svg+xml</dc:format>
    <dc:creator>
     <cc:Agent>
      <dc:title>Matplotlib v3.4.2, https://matplotlib.org/</dc:title>
     </cc:Agent>
    </dc:creator>
   </cc:Work>
  </rdf:RDF>
 </metadata>
 <defs>
  <style type="text/css">*{stroke-linecap:butt;stroke-linejoin:round;}</style>
 </defs>
 <g id="figure_1">
  <g id="patch_1">
   <path d="M 0 864 
L 1296 864 
L 1296 0 
L 0 0 
z
" style="fill:#ffffff;"/>
  </g>
  <g id="axes_1">
   <g id="patch_2">
    <path d="M 162 768.96 
L 1166.4 768.96 
L 1166.4 103.68 
L 162 103.68 
z
" style="fill:#ffffff;"/>
   </g>
   <g id="patch_3">
    <path clip-path="url(#p7b84a1664a)" d="M 162.951136 768.96 
L 164.853409 768.96 
L 164.853409 768.96 
L 162.951136 768.96 
z
" style="fill:#1f77b4;"/>
   </g>
   <g id="patch_4">
    <path clip-path="url(#p7b84a1664a)" d="M 166.755682 768.96 
L 168.657955 768.96 
L 168.657955 768.96 
L 166.755682 768.96 
z
" style="fill:#1f77b4;"/>
   </g>
   <g id="patch_5">
    <path clip-path="url(#p7b84a1664a)" d="M 170.560227 768.96 
L 172.4625 768.96 
L 172.4625 768.96 
L 170.560227 768.96 
z
" style="fill:#1f77b4;"/>
   </g>
   <g id="patch_6">
    <path clip-path="url(#p7b84a1664a)" d="M 174.364773 768.96 
L 176.267045 768.96 
L 176.267045 768.231972 
L 174.364773 768.231972 
z
" style="fill:#1f77b4;"/>
   </g>
   <g id="patch_7">
    <path clip-path="url(#p7b84a1664a)" d="M 178.169318 768.96 
L 180.071591 768.96 
L 180.071591 767.020533 
L 178.169318 767.020533 
z
" style="fill:#1f77b4;"/>
   </g>
   <g id="patch_8">
    <path clip-path="url(#p7b84a1664a)" d="M 181.973864 768.96 
L 183.876136 768.96 
L 183.876136 754.894496 
L 181.973864 754.894496 
z
" style="fill:#1f77b4;"/>
   </g>
   <g id="patch_9">
    <path clip-path="url(#p7b84a1664a)" d="M 185.778409 768.96 
L 187.680682 768.96 
L 187.680682 667.38551 
L 185.778409 667.38551 
z
" style="fill:#1f77b4;"/>
   </g>
   <g id="patch_10">
    <path clip-path="url(#p7b84a1664a)" d="M 189.582955 768.96 
L 191.485227 768.96 
L 191.485227 646.429948 
L 189.582955 646.429948 
z
" style="fill:#1f77b4;"/>
   </g>
   <g id="patch_11">
    <path clip-path="url(#p7b84a1664a)" d="M 193.3875 768.96 
L 195.289773 768.96 
L 195.289773 702.12119 
L 193.3875 702.12119 
z
" style="fill:#1f77b4;"/>
   </g>
   <g id="patch_12">
    <path clip-path="url(#p7b84a1664a)" d="M 197.192045 768.96 
L 199.094318 768.96 
L 199.094318 728.440864 
L 197.192045 728.440864 
z
" style="fill:#1f77b4;"/>
   </g>
   <g id="patch_13">
    <path clip-path="url(#p7b84a1664a)" d="M 200.996591 768.96 
L 202.898864 768.96 
L 202.898864 705.615725 
L 200.996591 705.615725 
z
" style="fill:#1f77b4;"/>
   </g>
   <g id="patch_14">
    <path clip-path="url(#p7b84a1664a)" d="M 204.801136 768.96 
L 206.703409 768.96 
L 206.703409 708.865643 
L 204.801136 708.865643 
z
" style="fill:#1f77b4;"/>
   </g>
   <g id="patch_15">
    <path clip-path="url(#p7b84a1664a)" d="M 208.605682 768.96 
L 210.507955 768.96 
L 210.507955 719.79189 
L 208.605682 719.79189 
z
" style="fill:#1f77b4;"/>
   </g>
   <g id="patch_16">
    <path clip-path="url(#p7b84a1664a)" d="M 212.410227 768.96 
L 214.3125 768.96 
L 214.3125 709.086964 
L 212.410227 709.086964 
z
" style="fill:#1f77b4;"/>
   </g>
   <g id="patch_17">
    <path clip-path="url(#p7b84a1664a)" d="M 216.214773 768.96 
L 218.117045 768.96 
L 218.117045 756.711654 
L 216.214773 756.711654 
z
" style="fill:#1f77b4;"/>
   </g>
   <g id="patch_18">
    <path clip-path="url(#p7b84a1664a)" d="M 220.019318 768.96 
L 221.921591 768.96 
L 221.921591 761.312792 
L 220.019318 761.312792 
z
" style="fill:#1f77b4;"/>
   </g>
   <g id="patch_19">
    <path clip-path="url(#p7b84a1664a)" d="M 223.823864 768.96 
L 225.726136 768.96 
L 225.726136 765.325683 
L 223.823864 765.325683 
z
" style="fill:#1f77b4;"/>
   </g>
   <g id="patch_20">
    <path clip-path="url(#p7b84a1664a)" d="M 227.628409 768.96 
L 229.530682 768.96 
L 229.530682 752.180407 
L 227.628409 752.180407 
z
" style="fill:#1f77b4;"/>
   </g>
   <g id="patch_21">
    <path clip-path="url(#p7b84a1664a)" d="M 231.432955 768.96 
L 233.335227 768.96 
L 233.335227 741.842407 
L 231.432955 741.842407 
z
" style="fill:#1f77b4;"/>
   </g>
   <g id="patch_22">
    <path clip-path="url(#p7b84a1664a)" d="M 235.2375 768.96 
L 237.139773 768.96 
L 237.139773 718.108689 
L 235.2375 718.108689 
z
" style="fill:#1f77b4;"/>
   </g>
   <g id="patch_23">
    <path clip-path="url(#p7b84a1664a)" d="M 239.042045 768.96 
L 240.944318 768.96 
L 240.944318 717.759235 
L 239.042045 717.759235 
z
" style="fill:#1f77b4;"/>
   </g>
   <g id="patch_24">
    <path clip-path="url(#p7b84a1664a)" d="M 242.846591 768.96 
L 244.748864 768.96 
L 244.748864 732.063533 
L 242.846591 732.063533 
z
" style="fill:#1f77b4;"/>
   </g>
   <g id="patch_25">
    <path clip-path="url(#p7b84a1664a)" d="M 246.651136 768.96 
L 248.553409 768.96 
L 248.553409 755.05175 
L 246.651136 755.05175 
z
" style="fill:#1f77b4;"/>
   </g>
   <g id="patch_26">
    <path clip-path="url(#p7b84a1664a)" d="M 250.455682 768.96 
L 252.357955 768.96 
L 252.357955 750.549624 
L 250.455682 750.549624 
z
" style="fill:#1f77b4;"/>
   </g>
   <g id="patch_27">
    <path clip-path="url(#p7b84a1664a)" d="M 254.260227 768.96 
L 256.1625 768.96 
L 256.1625 721.178055 
L 254.260227 721.178055 
z
" style="fill:#1f77b4;"/>
   </g>
   <g id="patch_28">
    <path clip-path="url(#p7b84a1664a)" d="M 258.064773 768.96 
L 259.967045 768.96 
L 259.967045 685.475554 
L 258.064773 685.475554 
z
" style="fill:#1f77b4;"/>
   </g>
   <g id="patch_29">
    <path clip-path="url(#p7b84a1664a)" d="M 261.869318 768.96 
L 263.771591 768.96 
L 263.771591 657.967738 
L 261.869318 657.967738 
z
" style="fill:#1f77b4;"/>
   </g>
   <g id="patch_30">
    <path clip-path="url(#p7b84a1664a)" d="M 265.673864 768.96 
L 267.576136 768.96 
L 267.576136 673.110724 
L 265.673864 673.110724 
z
" style="fill:#1f77b4;"/>
   </g>
   <g id="patch_31">
    <path clip-path="url(#p7b84a1664a)" d="M 269.478409 768.96 
L 271.380682 768.96 
L 271.380682 684.957198 
L 269.478409 684.957198 
z
" style="fill:#1f77b4;"/>
   </g>
   <g id="patch_32">
    <path clip-path="url(#p7b84a1664a)" d="M 273.282955 768.96 
L 275.185227 768.96 
L 275.185227 722.90785 
L 273.282955 722.90785 
z
" style="fill:#1f77b4;"/>
   </g>
   <g id="patch_33">
    <path clip-path="url(#p7b84a1664a)" d="M 277.0875 768.96 
L 278.989773 768.96 
L 278.989773 743.152858 
L 277.0875 743.152858 
z
" style="fill:#1f77b4;"/>
   </g>
   <g id="patch_34">
    <path clip-path="url(#p7b84a1664a)" d="M 280.892045 768.96 
L 282.794318 768.96 
L 282.794318 721.585751 
L 280.892045 721.585751 
z
" style="fill:#1f77b4;"/>
   </g>
   <g id="patch_35">
    <path clip-path="url(#p7b84a1664a)" d="M 284.696591 768.96 
L 286.598864 768.96 
L 286.598864 667.962109 
L 284.696591 667.962109 
z
" style="fill:#1f77b4;"/>
   </g>
   <g id="patch_36">
    <path clip-path="url(#p7b84a1664a)" d="M 288.501136 768.96 
L 290.403409 768.96 
L 290.403409 693.926505 
L 288.501136 693.926505 
z
" style="fill:#1f77b4;"/>
   </g>
   <g id="patch_37">
    <path clip-path="url(#p7b84a1664a)" d="M 292.305682 768.96 
L 294.207955 768.96 
L 294.207955 671.747855 
L 292.305682 671.747855 
z
" style="fill:#1f77b4;"/>
   </g>
   <g id="patch_38">
    <path clip-path="url(#p7b84a1664a)" d="M 296.110227 768.96 
L 298.0125 768.96 
L 298.0125 688.906023 
L 296.110227 688.906023 
z
" style="fill:#1f77b4;"/>
   </g>
   <g id="patch_39">
    <path clip-path="url(#p7b84a1664a)" d="M 299.914773 768.96 
L 301.817045 768.96 
L 301.817045 700.46711 
L 299.914773 700.46711 
z
" style="fill:#1f77b4;"/>
   </g>
   <g id="patch_40">
    <path clip-path="url(#p7b84a1664a)" d="M 303.719318 768.96 
L 305.621591 768.96 
L 305.621591 745.797056 
L 303.719318 745.797056 
z
" style="fill:#1f77b4;"/>
   </g>
   <g id="patch_41">
    <path clip-path="url(#p7b84a1664a)" d="M 307.523864 768.96 
L 309.426136 768.96 
L 309.426136 692.569461 
L 307.523864 692.569461 
z
" style="fill:#1f77b4;"/>
   </g>
   <g id="patch_42">
    <path clip-path="url(#p7b84a1664a)" d="M 311.328409 768.96 
L 313.230682 768.96 
L 313.230682 673.157318 
L 311.328409 673.157318 
z
" style="fill:#1f77b4;"/>
   </g>
   <g id="patch_43">
    <path clip-path="url(#p7b84a1664a)" d="M 315.132955 768.96 
L 317.035227 768.96 
L 317.035227 652.982201 
L 315.132955 652.982201 
z
" style="fill:#1f77b4;"/>
   </g>
   <g id="patch_44">
    <path clip-path="url(#p7b84a1664a)" d="M 318.9375 768.96 
L 320.839773 768.96 
L 320.839773 602.911336 
L 318.9375 602.911336 
z
" style="fill:#1f77b4;"/>
   </g>
   <g id="patch_45">
    <path clip-path="url(#p7b84a1664a)" d="M 322.742045 768.96 
L 324.644318 768.96 
L 324.644318 624.967677 
L 322.742045 624.967677 
z
" style="fill:#1f77b4;"/>
   </g>
   <g id="patch_46">
    <path clip-path="url(#p7b84a1664a)" d="M 326.546591 768.96 
L 328.448864 768.96 
L 328.448864 679.511548 
L 326.546591 679.511548 
z
" style="fill:#1f77b4;"/>
   </g>
   <g id="patch_47">
    <path clip-path="url(#p7b84a1664a)" d="M 330.351136 768.96 
L 332.253409 768.96 
L 332.253409 720.613106 
L 330.351136 720.613106 
z
" style="fill:#1f77b4;"/>
   </g>
   <g id="patch_48">
    <path clip-path="url(#p7b84a1664a)" d="M 334.155682 768.96 
L 336.057955 768.96 
L 336.057955 721.178055 
L 334.155682 721.178055 
z
" style="fill:#1f77b4;"/>
   </g>
   <g id="patch_49">
    <path clip-path="url(#p7b84a1664a)" d="M 337.960227 768.96 
L 339.8625 768.96 
L 339.8625 679.494075 
L 337.960227 679.494075 
z
" style="fill:#1f77b4;"/>
   </g>
   <g id="patch_50">
    <path clip-path="url(#p7b84a1664a)" d="M 341.764773 768.96 
L 343.667045 768.96 
L 343.667045 619.475433 
L 341.764773 619.475433 
z
" style="fill:#1f77b4;"/>
   </g>
   <g id="patch_51">
    <path clip-path="url(#p7b84a1664a)" d="M 345.569318 768.96 
L 347.471591 768.96 
L 347.471591 575.921876 
L 345.569318 575.921876 
z
" style="fill:#1f77b4;"/>
   </g>
   <g id="patch_52">
    <path clip-path="url(#p7b84a1664a)" d="M 349.373864 768.96 
L 351.276136 768.96 
L 351.276136 583.912713 
L 349.373864 583.912713 
z
" style="fill:#1f77b4;"/>
   </g>
   <g id="patch_53">
    <path clip-path="url(#p7b84a1664a)" d="M 353.178409 768.96 
L 355.080682 768.96 
L 355.080682 740.543605 
L 353.178409 740.543605 
z
" style="fill:#1f77b4;"/>
   </g>
   <g id="patch_54">
    <path clip-path="url(#p7b84a1664a)" d="M 356.982955 768.96 
L 358.885227 768.96 
L 358.885227 631.857736 
L 356.982955 631.857736 
z
" style="fill:#1f77b4;"/>
   </g>
   <g id="patch_55">
    <path clip-path="url(#p7b84a1664a)" d="M 360.7875 768.96 
L 362.689773 768.96 
L 362.689773 662.516458 
L 360.7875 662.516458 
z
" style="fill:#1f77b4;"/>
   </g>
   <g id="patch_56">
    <path clip-path="url(#p7b84a1664a)" d="M 364.592045 768.96 
L 366.494318 768.96 
L 366.494318 610.523599 
L 364.592045 610.523599 
z
" style="fill:#1f77b4;"/>
   </g>
   <g id="patch_57">
    <path clip-path="url(#p7b84a1664a)" d="M 368.396591 768.96 
L 370.298864 768.96 
L 370.298864 463.275534 
L 368.396591 463.275534 
z
" style="fill:#1f77b4;"/>
   </g>
   <g id="patch_58">
    <path clip-path="url(#p7b84a1664a)" d="M 372.201136 768.96 
L 374.103409 768.96 
L 374.103409 459.297588 
L 372.201136 459.297588 
z
" style="fill:#1f77b4;"/>
   </g>
   <g id="patch_59">
    <path clip-path="url(#p7b84a1664a)" d="M 376.005682 768.96 
L 377.907955 768.96 
L 377.907955 496.665818 
L 376.005682 496.665818 
z
" style="fill:#1f77b4;"/>
   </g>
   <g id="patch_60">
    <path clip-path="url(#p7b84a1664a)" d="M 379.810227 768.96 
L 381.7125 768.96 
L 381.7125 530.195883 
L 379.810227 530.195883 
z
" style="fill:#1f77b4;"/>
   </g>
   <g id="patch_61">
    <path clip-path="url(#p7b84a1664a)" d="M 383.614773 768.96 
L 385.517045 768.96 
L 385.517045 653.838362 
L 383.614773 653.838362 
z
" style="fill:#1f77b4;"/>
   </g>
   <g id="patch_62">
    <path clip-path="url(#p7b84a1664a)" d="M 387.419318 768.96 
L 389.321591 768.96 
L 389.321591 596.679415 
L 387.419318 596.679415 
z
" style="fill:#1f77b4;"/>
   </g>
   <g id="patch_63">
    <path clip-path="url(#p7b84a1664a)" d="M 391.223864 768.96 
L 393.126136 768.96 
L 393.126136 539.706843 
L 391.223864 539.706843 
z
" style="fill:#1f77b4;"/>
   </g>
   <g id="patch_64">
    <path clip-path="url(#p7b84a1664a)" d="M 395.028409 768.96 
L 396.930682 768.96 
L 396.930682 503.893681 
L 395.028409 503.893681 
z
" style="fill:#1f77b4;"/>
   </g>
   <g id="patch_65">
    <path clip-path="url(#p7b84a1664a)" d="M 398.832955 768.96 
L 400.735227 768.96 
L 400.735227 379.942518 
L 398.832955 379.942518 
z
" style="fill:#1f77b4;"/>
   </g>
   <g id="patch_66">
    <path clip-path="url(#p7b84a1664a)" d="M 402.6375 768.96 
L 404.539773 768.96 
L 404.539773 397.030795 
L 402.6375 397.030795 
z
" style="fill:#1f77b4;"/>
   </g>
   <g id="patch_67">
    <path clip-path="url(#p7b84a1664a)" d="M 406.442045 768.96 
L 408.344318 768.96 
L 408.344318 491.027968 
L 406.442045 491.027968 
z
" style="fill:#1f77b4;"/>
   </g>
   <g id="patch_68">
    <path clip-path="url(#p7b84a1664a)" d="M 410.246591 768.96 
L 412.148864 768.96 
L 412.148864 681.567499 
L 410.246591 681.567499 
z
" style="fill:#1f77b4;"/>
   </g>
   <g id="patch_69">
    <path clip-path="url(#p7b84a1664a)" d="M 414.051136 768.96 
L 415.953409 768.96 
L 415.953409 528.005974 
L 414.051136 528.005974 
z
" style="fill:#1f77b4;"/>
   </g>
   <g id="patch_70">
    <path clip-path="url(#p7b84a1664a)" d="M 417.855682 768.96 
L 419.757955 768.96 
L 419.757955 459.949901 
L 417.855682 459.949901 
z
" style="fill:#1f77b4;"/>
   </g>
   <g id="patch_71">
    <path clip-path="url(#p7b84a1664a)" d="M 421.660227 768.96 
L 423.5625 768.96 
L 423.5625 429.465906 
L 421.660227 429.465906 
z
" style="fill:#1f77b4;"/>
   </g>
   <g id="patch_72">
    <path clip-path="url(#p7b84a1664a)" d="M 425.464773 768.96 
L 427.367045 768.96 
L 427.367045 404.188768 
L 425.464773 404.188768 
z
" style="fill:#1f77b4;"/>
   </g>
   <g id="patch_73">
    <path clip-path="url(#p7b84a1664a)" d="M 429.269318 768.96 
L 431.171591 768.96 
L 431.171591 350.384575 
L 429.269318 350.384575 
z
" style="fill:#1f77b4;"/>
   </g>
   <g id="patch_74">
    <path clip-path="url(#p7b84a1664a)" d="M 433.073864 768.96 
L 434.976136 768.96 
L 434.976136 499.531337 
L 433.073864 499.531337 
z
" style="fill:#1f77b4;"/>
   </g>
   <g id="patch_75">
    <path clip-path="url(#p7b84a1664a)" d="M 436.878409 768.96 
L 438.780682 768.96 
L 438.780682 498.663527 
L 436.878409 498.663527 
z
" style="fill:#1f77b4;"/>
   </g>
   <g id="patch_76">
    <path clip-path="url(#p7b84a1664a)" d="M 440.682955 768.96 
L 442.585227 768.96 
L 442.585227 530.335664 
L 440.682955 530.335664 
z
" style="fill:#1f77b4;"/>
   </g>
   <g id="patch_77">
    <path clip-path="url(#p7b84a1664a)" d="M 444.4875 768.96 
L 446.389773 768.96 
L 446.389773 501.94839 
L 444.4875 501.94839 
z
" style="fill:#1f77b4;"/>
   </g>
   <g id="patch_78">
    <path clip-path="url(#p7b84a1664a)" d="M 448.292045 768.96 
L 450.194318 768.96 
L 450.194318 532.43821 
L 448.292045 532.43821 
z
" style="fill:#1f77b4;"/>
   </g>
   <g id="patch_79">
    <path clip-path="url(#p7b84a1664a)" d="M 452.096591 768.96 
L 453.998864 768.96 
L 453.998864 497.189998 
L 452.096591 497.189998 
z
" style="fill:#1f77b4;"/>
   </g>
   <g id="patch_80">
    <path clip-path="url(#p7b84a1664a)" d="M 455.901136 768.96 
L 457.803409 768.96 
L 457.803409 486.473423 
L 455.901136 486.473423 
z
" style="fill:#1f77b4;"/>
   </g>
   <g id="patch_81">
    <path clip-path="url(#p7b84a1664a)" d="M 459.705682 768.96 
L 461.607955 768.96 
L 461.607955 595.042808 
L 459.705682 595.042808 
z
" style="fill:#1f77b4;"/>
   </g>
   <g id="patch_82">
    <path clip-path="url(#p7b84a1664a)" d="M 463.510227 768.96 
L 465.4125 768.96 
L 465.4125 674.30469 
L 463.510227 674.30469 
z
" style="fill:#1f77b4;"/>
   </g>
   <g id="patch_83">
    <path clip-path="url(#p7b84a1664a)" d="M 467.314773 768.96 
L 469.217045 768.96 
L 469.217045 616.749695 
L 467.314773 616.749695 
z
" style="fill:#1f77b4;"/>
   </g>
   <g id="patch_84">
    <path clip-path="url(#p7b84a1664a)" d="M 471.119318 768.96 
L 473.021591 768.96 
L 473.021591 585.834707 
L 471.119318 585.834707 
z
" style="fill:#1f77b4;"/>
   </g>
   <g id="patch_85">
    <path clip-path="url(#p7b84a1664a)" d="M 474.923864 768.96 
L 476.826136 768.96 
L 476.826136 578.705856 
L 474.923864 578.705856 
z
" style="fill:#1f77b4;"/>
   </g>
   <g id="patch_86">
    <path clip-path="url(#p7b84a1664a)" d="M 478.728409 768.96 
L 480.630682 768.96 
L 480.630682 526.887723 
L 478.728409 526.887723 
z
" style="fill:#1f77b4;"/>
   </g>
   <g id="patch_87">
    <path clip-path="url(#p7b84a1664a)" d="M 482.532955 768.96 
L 484.435227 768.96 
L 484.435227 465.203353 
L 482.532955 465.203353 
z
" style="fill:#1f77b4;"/>
   </g>
   <g id="patch_88">
    <path clip-path="url(#p7b84a1664a)" d="M 486.3375 768.96 
L 488.239773 768.96 
L 488.239773 501.750366 
L 486.3375 501.750366 
z
" style="fill:#1f77b4;"/>
   </g>
   <g id="patch_89">
    <path clip-path="url(#p7b84a1664a)" d="M 490.142045 768.96 
L 492.044318 768.96 
L 492.044318 662.895033 
L 490.142045 662.895033 
z
" style="fill:#1f77b4;"/>
   </g>
   <g id="patch_90">
    <path clip-path="url(#p7b84a1664a)" d="M 493.946591 768.96 
L 495.848864 768.96 
L 495.848864 605.607952 
L 493.946591 605.607952 
z
" style="fill:#1f77b4;"/>
   </g>
   <g id="patch_91">
    <path clip-path="url(#p7b84a1664a)" d="M 497.751136 768.96 
L 499.653409 768.96 
L 499.653409 474.638598 
L 497.751136 474.638598 
z
" style="fill:#1f77b4;"/>
   </g>
   <g id="patch_92">
    <path clip-path="url(#p7b84a1664a)" d="M 501.555682 768.96 
L 503.457955 768.96 
L 503.457955 518.232924 
L 501.555682 518.232924 
z
" style="fill:#1f77b4;"/>
   </g>
   <g id="patch_93">
    <path clip-path="url(#p7b84a1664a)" d="M 505.360227 768.96 
L 507.2625 768.96 
L 507.2625 423.012664 
L 505.360227 423.012664 
z
" style="fill:#1f77b4;"/>
   </g>
   <g id="patch_94">
    <path clip-path="url(#p7b84a1664a)" d="M 509.164773 768.96 
L 511.067045 768.96 
L 511.067045 416.489532 
L 509.164773 416.489532 
z
" style="fill:#1f77b4;"/>
   </g>
   <g id="patch_95">
    <path clip-path="url(#p7b84a1664a)" d="M 512.969318 768.96 
L 514.871591 768.96 
L 514.871591 494.074038 
L 512.969318 494.074038 
z
" style="fill:#1f77b4;"/>
   </g>
   <g id="patch_96">
    <path clip-path="url(#p7b84a1664a)" d="M 516.773864 768.96 
L 518.676136 768.96 
L 518.676136 692.825727 
L 516.773864 692.825727 
z
" style="fill:#1f77b4;"/>
   </g>
   <g id="patch_97">
    <path clip-path="url(#p7b84a1664a)" d="M 520.578409 768.96 
L 522.480682 768.96 
L 522.480682 510.74297 
L 520.578409 510.74297 
z
" style="fill:#1f77b4;"/>
   </g>
   <g id="patch_98">
    <path clip-path="url(#p7b84a1664a)" d="M 524.382955 768.96 
L 526.285227 768.96 
L 526.285227 370.868375 
L 524.382955 370.868375 
z
" style="fill:#1f77b4;"/>
   </g>
   <g id="patch_99">
    <path clip-path="url(#p7b84a1664a)" d="M 528.1875 768.96 
L 530.089773 768.96 
L 530.089773 329.597914 
L 528.1875 329.597914 
z
" style="fill:#1f77b4;"/>
   </g>
   <g id="patch_100">
    <path clip-path="url(#p7b84a1664a)" d="M 531.992045 768.96 
L 533.894318 768.96 
L 533.894318 240.196056 
L 531.992045 240.196056 
z
" style="fill:#1f77b4;"/>
   </g>
   <g id="patch_101">
    <path clip-path="url(#p7b84a1664a)" d="M 535.796591 768.96 
L 537.698864 768.96 
L 537.698864 135.36 
L 535.796591 135.36 
z
" style="fill:#1f77b4;"/>
   </g>
   <g id="patch_102">
    <path clip-path="url(#p7b84a1664a)" d="M 539.601136 768.96 
L 541.503409 768.96 
L 541.503409 339.97086 
L 539.601136 339.97086 
z
" style="fill:#1f77b4;"/>
   </g>
   <g id="patch_103">
    <path clip-path="url(#p7b84a1664a)" d="M 543.405682 768.96 
L 545.307955 768.96 
L 545.307955 564.174413 
L 543.405682 564.174413 
z
" style="fill:#1f77b4;"/>
   </g>
   <g id="patch_104">
    <path clip-path="url(#p7b84a1664a)" d="M 547.210227 768.96 
L 549.1125 768.96 
L 549.1125 418.149436 
L 547.210227 418.149436 
z
" style="fill:#1f77b4;"/>
   </g>
   <g id="patch_105">
    <path clip-path="url(#p7b84a1664a)" d="M 551.014773 768.96 
L 552.917045 768.96 
L 552.917045 335.777418 
L 551.014773 335.777418 
z
" style="fill:#1f77b4;"/>
   </g>
   <g id="patch_106">
    <path clip-path="url(#p7b84a1664a)" d="M 554.819318 768.96 
L 556.721591 768.96 
L 556.721591 396.267822 
L 554.819318 396.267822 
z
" style="fill:#1f77b4;"/>
   </g>
   <g id="patch_107">
    <path clip-path="url(#p7b84a1664a)" d="M 558.623864 768.96 
L 560.526136 768.96 
L 560.526136 260.703153 
L 558.623864 260.703153 
z
" style="fill:#1f77b4;"/>
   </g>
   <g id="patch_108">
    <path clip-path="url(#p7b84a1664a)" d="M 562.428409 768.96 
L 564.330682 768.96 
L 564.330682 267.109801 
L 562.428409 267.109801 
z
" style="fill:#1f77b4;"/>
   </g>
   <g id="patch_109">
    <path clip-path="url(#p7b84a1664a)" d="M 566.232955 768.96 
L 568.135227 768.96 
L 568.135227 415.872164 
L 566.232955 415.872164 
z
" style="fill:#1f77b4;"/>
   </g>
   <g id="patch_110">
    <path clip-path="url(#p7b84a1664a)" d="M 570.0375 768.96 
L 571.939773 768.96 
L 571.939773 564.76266 
L 570.0375 564.76266 
z
" style="fill:#1f77b4;"/>
   </g>
   <g id="patch_111">
    <path clip-path="url(#p7b84a1664a)" d="M 573.842045 768.96 
L 575.744318 768.96 
L 575.744318 477.882691 
L 573.842045 477.882691 
z
" style="fill:#1f77b4;"/>
   </g>
   <g id="patch_112">
    <path clip-path="url(#p7b84a1664a)" d="M 577.646591 768.96 
L 579.548864 768.96 
L 579.548864 297.057968 
L 577.646591 297.057968 
z
" style="fill:#1f77b4;"/>
   </g>
   <g id="patch_113">
    <path clip-path="url(#p7b84a1664a)" d="M 581.451136 768.96 
L 583.353409 768.96 
L 583.353409 352.294921 
L 581.451136 352.294921 
z
" style="fill:#1f77b4;"/>
   </g>
   <g id="patch_114">
    <path clip-path="url(#p7b84a1664a)" d="M 585.255682 768.96 
L 587.157955 768.96 
L 587.157955 332.713875 
L 585.255682 332.713875 
z
" style="fill:#1f77b4;"/>
   </g>
   <g id="patch_115">
    <path clip-path="url(#p7b84a1664a)" d="M 589.060227 768.96 
L 590.9625 768.96 
L 590.9625 364.147219 
L 589.060227 364.147219 
z
" style="fill:#1f77b4;"/>
   </g>
   <g id="patch_116">
    <path clip-path="url(#p7b84a1664a)" d="M 592.864773 768.96 
L 594.767045 768.96 
L 594.767045 499.484743 
L 592.864773 499.484743 
z
" style="fill:#1f77b4;"/>
   </g>
   <g id="patch_117">
    <path clip-path="url(#p7b84a1664a)" d="M 596.669318 768.96 
L 598.571591 768.96 
L 598.571591 658.387082 
L 596.669318 658.387082 
z
" style="fill:#1f77b4;"/>
   </g>
   <g id="patch_118">
    <path clip-path="url(#p7b84a1664a)" d="M 600.473864 768.96 
L 602.376136 768.96 
L 602.376136 517.324345 
L 600.473864 517.324345 
z
" style="fill:#1f77b4;"/>
   </g>
   <g id="patch_119">
    <path clip-path="url(#p7b84a1664a)" d="M 604.278409 768.96 
L 606.180682 768.96 
L 606.180682 408.00946 
L 604.278409 408.00946 
z
" style="fill:#1f77b4;"/>
   </g>
   <g id="patch_120">
    <path clip-path="url(#p7b84a1664a)" d="M 608.082955 768.96 
L 609.985227 768.96 
L 609.985227 393.856592 
L 608.082955 393.856592 
z
" style="fill:#1f77b4;"/>
   </g>
   <g id="patch_121">
    <path clip-path="url(#p7b84a1664a)" d="M 611.8875 768.96 
L 613.789773 768.96 
L 613.789773 406.372853 
L 611.8875 406.372853 
z
" style="fill:#1f77b4;"/>
   </g>
   <g id="patch_122">
    <path clip-path="url(#p7b84a1664a)" d="M 615.692045 768.96 
L 617.594318 768.96 
L 617.594318 454.818759 
L 615.692045 454.818759 
z
" style="fill:#1f77b4;"/>
   </g>
   <g id="patch_123">
    <path clip-path="url(#p7b84a1664a)" d="M 619.496591 768.96 
L 621.398864 768.96 
L 621.398864 626.050983 
L 619.496591 626.050983 
z
" style="fill:#1f77b4;"/>
   </g>
   <g id="patch_124">
    <path clip-path="url(#p7b84a1664a)" d="M 623.301136 768.96 
L 625.203409 768.96 
L 625.203409 723.536867 
L 623.301136 723.536867 
z
" style="fill:#1f77b4;"/>
   </g>
   <g id="patch_125">
    <path clip-path="url(#p7b84a1664a)" d="M 627.105682 768.96 
L 629.007955 768.96 
L 629.007955 613.313403 
L 627.105682 613.313403 
z
" style="fill:#1f77b4;"/>
   </g>
   <g id="patch_126">
    <path clip-path="url(#p7b84a1664a)" d="M 630.910227 768.96 
L 632.8125 768.96 
L 632.8125 362.842593 
L 630.910227 362.842593 
z
" style="fill:#1f77b4;"/>
   </g>
   <g id="patch_127">
    <path clip-path="url(#p7b84a1664a)" d="M 634.714773 768.96 
L 636.617045 768.96 
L 636.617045 371.287719 
L 634.714773 371.287719 
z
" style="fill:#1f77b4;"/>
   </g>
   <g id="patch_128">
    <path clip-path="url(#p7b84a1664a)" d="M 638.519318 768.96 
L 640.421591 768.96 
L 640.421591 470.957687 
L 638.519318 470.957687 
z
" style="fill:#1f77b4;"/>
   </g>
   <g id="patch_129">
    <path clip-path="url(#p7b84a1664a)" d="M 642.323864 768.96 
L 644.226136 768.96 
L 644.226136 323.575665 
L 642.323864 323.575665 
z
" style="fill:#1f77b4;"/>
   </g>
   <g id="patch_130">
    <path clip-path="url(#p7b84a1664a)" d="M 646.128409 768.96 
L 648.030682 768.96 
L 648.030682 467.451504 
L 646.128409 467.451504 
z
" style="fill:#1f77b4;"/>
   </g>
   <g id="patch_131">
    <path clip-path="url(#p7b84a1664a)" d="M 649.932955 768.96 
L 651.835227 768.96 
L 651.835227 500.533103 
L 649.932955 500.533103 
z
" style="fill:#1f77b4;"/>
   </g>
   <g id="patch_132">
    <path clip-path="url(#p7b84a1664a)" d="M 653.7375 768.96 
L 655.639773 768.96 
L 655.639773 535.950218 
L 653.7375 535.950218 
z
" style="fill:#1f77b4;"/>
   </g>
   <g id="patch_133">
    <path clip-path="url(#p7b84a1664a)" d="M 657.542045 768.96 
L 659.444318 768.96 
L 659.444318 460.514851 
L 657.542045 460.514851 
z
" style="fill:#1f77b4;"/>
   </g>
   <g id="patch_134">
    <path clip-path="url(#p7b84a1664a)" d="M 661.346591 768.96 
L 663.248864 768.96 
L 663.248864 489.799056 
L 661.346591 489.799056 
z
" style="fill:#1f77b4;"/>
   </g>
   <g id="patch_135">
    <path clip-path="url(#p7b84a1664a)" d="M 665.151136 768.96 
L 667.053409 768.96 
L 667.053409 477.96423 
L 665.151136 477.96423 
z
" style="fill:#1f77b4;"/>
   </g>
   <g id="patch_136">
    <path clip-path="url(#p7b84a1664a)" d="M 668.955682 768.96 
L 670.857955 768.96 
L 670.857955 347.658837 
L 668.955682 347.658837 
z
" style="fill:#1f77b4;"/>
   </g>
   <g id="patch_137">
    <path clip-path="url(#p7b84a1664a)" d="M 672.760227 768.96 
L 674.6625 768.96 
L 674.6625 534.849439 
L 672.760227 534.849439 
z
" style="fill:#1f77b4;"/>
   </g>
   <g id="patch_138">
    <path clip-path="url(#p7b84a1664a)" d="M 676.564773 768.96 
L 678.467045 768.96 
L 678.467045 675.184148 
L 676.564773 675.184148 
z
" style="fill:#1f77b4;"/>
   </g>
   <g id="patch_139">
    <path clip-path="url(#p7b84a1664a)" d="M 680.369318 768.96 
L 682.271591 768.96 
L 682.271591 604.658604 
L 680.369318 604.658604 
z
" style="fill:#1f77b4;"/>
   </g>
   <g id="patch_140">
    <path clip-path="url(#p7b84a1664a)" d="M 684.173864 768.96 
L 686.076136 768.96 
L 686.076136 466.327428 
L 684.173864 466.327428 
z
" style="fill:#1f77b4;"/>
   </g>
   <g id="patch_141">
    <path clip-path="url(#p7b84a1664a)" d="M 687.978409 768.96 
L 689.880682 768.96 
L 689.880682 498.698472 
L 687.978409 498.698472 
z
" style="fill:#1f77b4;"/>
   </g>
   <g id="patch_142">
    <path clip-path="url(#p7b84a1664a)" d="M 691.782955 768.96 
L 693.685227 768.96 
L 693.685227 383.122545 
L 691.782955 383.122545 
z
" style="fill:#1f77b4;"/>
   </g>
   <g id="patch_143">
    <path clip-path="url(#p7b84a1664a)" d="M 695.5875 768.96 
L 697.489773 768.96 
L 697.489773 519.304582 
L 695.5875 519.304582 
z
" style="fill:#1f77b4;"/>
   </g>
   <g id="patch_144">
    <path clip-path="url(#p7b84a1664a)" d="M 699.392045 768.96 
L 701.294318 768.96 
L 701.294318 569.066763 
L 699.392045 569.066763 
z
" style="fill:#1f77b4;"/>
   </g>
   <g id="patch_145">
    <path clip-path="url(#p7b84a1664a)" d="M 703.196591 768.96 
L 705.098864 768.96 
L 705.098864 677.269221 
L 703.196591 677.269221 
z
" style="fill:#1f77b4;"/>
   </g>
   <g id="patch_146">
    <path clip-path="url(#p7b84a1664a)" d="M 707.001136 768.96 
L 708.903409 768.96 
L 708.903409 616.97684 
L 707.001136 616.97684 
z
" style="fill:#1f77b4;"/>
   </g>
   <g id="patch_147">
    <path clip-path="url(#p7b84a1664a)" d="M 710.805682 768.96 
L 712.707955 768.96 
L 712.707955 584.384475 
L 710.805682 584.384475 
z
" style="fill:#1f77b4;"/>
   </g>
   <g id="patch_148">
    <path clip-path="url(#p7b84a1664a)" d="M 714.610227 768.96 
L 716.5125 768.96 
L 716.5125 583.586556 
L 714.610227 583.586556 
z
" style="fill:#1f77b4;"/>
   </g>
   <g id="patch_149">
    <path clip-path="url(#p7b84a1664a)" d="M 718.414773 768.96 
L 720.317045 768.96 
L 720.317045 573.627131 
L 718.414773 573.627131 
z
" style="fill:#1f77b4;"/>
   </g>
   <g id="patch_150">
    <path clip-path="url(#p7b84a1664a)" d="M 722.219318 768.96 
L 724.121591 768.96 
L 724.121591 586.399657 
L 722.219318 586.399657 
z
" style="fill:#1f77b4;"/>
   </g>
   <g id="patch_151">
    <path clip-path="url(#p7b84a1664a)" d="M 726.023864 768.96 
L 727.926136 768.96 
L 727.926136 644.094433 
L 726.023864 644.094433 
z
" style="fill:#1f77b4;"/>
   </g>
   <g id="patch_152">
    <path clip-path="url(#p7b84a1664a)" d="M 729.828409 768.96 
L 731.730682 768.96 
L 731.730682 698.923691 
L 729.828409 698.923691 
z
" style="fill:#1f77b4;"/>
   </g>
   <g id="patch_153">
    <path clip-path="url(#p7b84a1664a)" d="M 733.632955 768.96 
L 735.535227 768.96 
L 735.535227 718.067919 
L 733.632955 718.067919 
z
" style="fill:#1f77b4;"/>
   </g>
   <g id="patch_154">
    <path clip-path="url(#p7b84a1664a)" d="M 737.4375 768.96 
L 739.339773 768.96 
L 739.339773 658.986977 
L 737.4375 658.986977 
z
" style="fill:#1f77b4;"/>
   </g>
   <g id="patch_155">
    <path clip-path="url(#p7b84a1664a)" d="M 741.242045 768.96 
L 743.144318 768.96 
L 743.144318 652.673517 
L 741.242045 652.673517 
z
" style="fill:#1f77b4;"/>
   </g>
   <g id="patch_156">
    <path clip-path="url(#p7b84a1664a)" d="M 745.046591 768.96 
L 746.948864 768.96 
L 746.948864 580.755983 
L 745.046591 580.755983 
z
" style="fill:#1f77b4;"/>
   </g>
   <g id="patch_157">
    <path clip-path="url(#p7b84a1664a)" d="M 748.851136 768.96 
L 750.753409 768.96 
L 750.753409 556.247643 
L 748.851136 556.247643 
z
" style="fill:#1f77b4;"/>
   </g>
   <g id="patch_158">
    <path clip-path="url(#p7b84a1664a)" d="M 752.655682 768.96 
L 754.557955 768.96 
L 754.557955 580.0629 
L 752.655682 580.0629 
z
" style="fill:#1f77b4;"/>
   </g>
   <g id="patch_159">
    <path clip-path="url(#p7b84a1664a)" d="M 756.460227 768.96 
L 758.3625 768.96 
L 758.3625 634.367977 
L 756.460227 634.367977 
z
" style="fill:#1f77b4;"/>
   </g>
   <g id="patch_160">
    <path clip-path="url(#p7b84a1664a)" d="M 760.264773 768.96 
L 762.167045 768.96 
L 762.167045 581.996543 
L 760.264773 581.996543 
z
" style="fill:#1f77b4;"/>
   </g>
   <g id="patch_161">
    <path clip-path="url(#p7b84a1664a)" d="M 764.069318 768.96 
L 765.971591 768.96 
L 765.971591 567.826203 
L 764.069318 567.826203 
z
" style="fill:#1f77b4;"/>
   </g>
   <g id="patch_162">
    <path clip-path="url(#p7b84a1664a)" d="M 767.873864 768.96 
L 769.776136 768.96 
L 769.776136 534.785373 
L 767.873864 534.785373 
z
" style="fill:#1f77b4;"/>
   </g>
   <g id="patch_163">
    <path clip-path="url(#p7b84a1664a)" d="M 771.678409 768.96 
L 773.580682 768.96 
L 773.580682 606.796094 
L 771.678409 606.796094 
z
" style="fill:#1f77b4;"/>
   </g>
   <g id="patch_164">
    <path clip-path="url(#p7b84a1664a)" d="M 775.482955 768.96 
L 777.385227 768.96 
L 777.385227 615.287815 
L 775.482955 615.287815 
z
" style="fill:#1f77b4;"/>
   </g>
   <g id="patch_165">
    <path clip-path="url(#p7b84a1664a)" d="M 779.2875 768.96 
L 781.189773 768.96 
L 781.189773 676.715919 
L 779.2875 676.715919 
z
" style="fill:#1f77b4;"/>
   </g>
   <g id="patch_166">
    <path clip-path="url(#p7b84a1664a)" d="M 783.092045 768.96 
L 784.994318 768.96 
L 784.994318 675.626789 
L 783.092045 675.626789 
z
" style="fill:#1f77b4;"/>
   </g>
   <g id="patch_167">
    <path clip-path="url(#p7b84a1664a)" d="M 786.896591 768.96 
L 788.798864 768.96 
L 788.798864 484.586374 
L 786.896591 484.586374 
z
" style="fill:#1f77b4;"/>
   </g>
   <g id="patch_168">
    <path clip-path="url(#p7b84a1664a)" d="M 790.701136 768.96 
L 792.603409 768.96 
L 792.603409 557.99491 
L 790.701136 557.99491 
z
" style="fill:#1f77b4;"/>
   </g>
   <g id="patch_169">
    <path clip-path="url(#p7b84a1664a)" d="M 794.505682 768.96 
L 796.407955 768.96 
L 796.407955 624.315364 
L 794.505682 624.315364 
z
" style="fill:#1f77b4;"/>
   </g>
   <g id="patch_170">
    <path clip-path="url(#p7b84a1664a)" d="M 798.310227 768.96 
L 800.2125 768.96 
L 800.2125 579.212563 
L 798.310227 579.212563 
z
" style="fill:#1f77b4;"/>
   </g>
   <g id="patch_171">
    <path clip-path="url(#p7b84a1664a)" d="M 802.114773 768.96 
L 804.017045 768.96 
L 804.017045 677.304166 
L 802.114773 677.304166 
z
" style="fill:#1f77b4;"/>
   </g>
   <g id="patch_172">
    <path clip-path="url(#p7b84a1664a)" d="M 805.919318 768.96 
L 807.821591 768.96 
L 807.821591 627.297368 
L 805.919318 627.297368 
z
" style="fill:#1f77b4;"/>
   </g>
   <g id="patch_173">
    <path clip-path="url(#p7b84a1664a)" d="M 809.723864 768.96 
L 811.626136 768.96 
L 811.626136 708.376408 
L 809.723864 708.376408 
z
" style="fill:#1f77b4;"/>
   </g>
   <g id="patch_174">
    <path clip-path="url(#p7b84a1664a)" d="M 813.528409 768.96 
L 815.430682 768.96 
L 815.430682 695.003987 
L 813.528409 695.003987 
z
" style="fill:#1f77b4;"/>
   </g>
   <g id="patch_175">
    <path clip-path="url(#p7b84a1664a)" d="M 817.332955 768.96 
L 819.235227 768.96 
L 819.235227 678.311757 
L 817.332955 678.311757 
z
" style="fill:#1f77b4;"/>
   </g>
   <g id="patch_176">
    <path clip-path="url(#p7b84a1664a)" d="M 821.1375 768.96 
L 823.039773 768.96 
L 823.039773 659.056868 
L 821.1375 659.056868 
z
" style="fill:#1f77b4;"/>
   </g>
   <g id="patch_177">
    <path clip-path="url(#p7b84a1664a)" d="M 824.942045 768.96 
L 826.844318 768.96 
L 826.844318 635.73667 
L 824.942045 635.73667 
z
" style="fill:#1f77b4;"/>
   </g>
   <g id="patch_178">
    <path clip-path="url(#p7b84a1664a)" d="M 828.746591 768.96 
L 830.648864 768.96 
L 830.648864 472.827264 
L 828.746591 472.827264 
z
" style="fill:#1f77b4;"/>
   </g>
   <g id="patch_179">
    <path clip-path="url(#p7b84a1664a)" d="M 832.551136 768.96 
L 834.453409 768.96 
L 834.453409 427.29347 
L 832.551136 427.29347 
z
" style="fill:#1f77b4;"/>
   </g>
   <g id="patch_180">
    <path clip-path="url(#p7b84a1664a)" d="M 836.355682 768.96 
L 838.257955 768.96 
L 838.257955 738.376993 
L 836.355682 738.376993 
z
" style="fill:#1f77b4;"/>
   </g>
   <g id="patch_181">
    <path clip-path="url(#p7b84a1664a)" d="M 840.160227 768.96 
L 842.0625 768.96 
L 842.0625 692.680121 
L 840.160227 692.680121 
z
" style="fill:#1f77b4;"/>
   </g>
   <g id="patch_182">
    <path clip-path="url(#p7b84a1664a)" d="M 843.964773 768.96 
L 845.867045 768.96 
L 845.867045 674.863816 
L 843.964773 674.863816 
z
" style="fill:#1f77b4;"/>
   </g>
   <g id="patch_183">
    <path clip-path="url(#p7b84a1664a)" d="M 847.769318 768.96 
L 849.671591 768.96 
L 849.671591 678.527253 
L 847.769318 678.527253 
z
" style="fill:#1f77b4;"/>
   </g>
   <g id="patch_184">
    <path clip-path="url(#p7b84a1664a)" d="M 851.573864 768.96 
L 853.476136 768.96 
L 853.476136 687.601396 
L 851.573864 687.601396 
z
" style="fill:#1f77b4;"/>
   </g>
   <g id="patch_185">
    <path clip-path="url(#p7b84a1664a)" d="M 855.378409 768.96 
L 857.280682 768.96 
L 857.280682 687.572275 
L 855.378409 687.572275 
z
" style="fill:#1f77b4;"/>
   </g>
   <g id="patch_186">
    <path clip-path="url(#p7b84a1664a)" d="M 859.182955 768.96 
L 861.085227 768.96 
L 861.085227 708.388057 
L 859.182955 708.388057 
z
" style="fill:#1f77b4;"/>
   </g>
   <g id="patch_187">
    <path clip-path="url(#p7b84a1664a)" d="M 862.9875 768.96 
L 864.889773 768.96 
L 864.889773 739.90294 
L 862.9875 739.90294 
z
" style="fill:#1f77b4;"/>
   </g>
   <g id="patch_188">
    <path clip-path="url(#p7b84a1664a)" d="M 866.792045 768.96 
L 868.694318 768.96 
L 868.694318 763.962815 
L 866.792045 763.962815 
z
" style="fill:#1f77b4;"/>
   </g>
   <g id="patch_189">
    <path clip-path="url(#p7b84a1664a)" d="M 870.596591 768.96 
L 872.498864 768.96 
L 872.498864 721.591575 
L 870.596591 721.591575 
z
" style="fill:#1f77b4;"/>
   </g>
   <g id="patch_190">
    <path clip-path="url(#p7b84a1664a)" d="M 874.401136 768.96 
L 876.303409 768.96 
L 876.303409 685.522148 
L 874.401136 685.522148 
z
" style="fill:#1f77b4;"/>
   </g>
   <g id="patch_191">
    <path clip-path="url(#p7b84a1664a)" d="M 878.205682 768.96 
L 880.107955 768.96 
L 880.107955 685.306652 
L 878.205682 685.306652 
z
" style="fill:#1f77b4;"/>
   </g>
   <g id="patch_192">
    <path clip-path="url(#p7b84a1664a)" d="M 882.010227 768.96 
L 883.9125 768.96 
L 883.9125 695.458276 
L 882.010227 695.458276 
z
" style="fill:#1f77b4;"/>
   </g>
   <g id="patch_193">
    <path clip-path="url(#p7b84a1664a)" d="M 885.814773 768.96 
L 887.717045 768.96 
L 887.717045 707.147497 
L 885.814773 707.147497 
z
" style="fill:#1f77b4;"/>
   </g>
   <g id="patch_194">
    <path clip-path="url(#p7b84a1664a)" d="M 889.619318 768.96 
L 891.521591 768.96 
L 891.521591 726.850851 
L 889.619318 726.850851 
z
" style="fill:#1f77b4;"/>
   </g>
   <g id="patch_195">
    <path clip-path="url(#p7b84a1664a)" d="M 893.423864 768.96 
L 895.326136 768.96 
L 895.326136 690.053395 
L 893.423864 690.053395 
z
" style="fill:#1f77b4;"/>
   </g>
   <g id="patch_196">
    <path clip-path="url(#p7b84a1664a)" d="M 897.228409 768.96 
L 899.130682 768.96 
L 899.130682 703.571422 
L 897.228409 703.571422 
z
" style="fill:#1f77b4;"/>
   </g>
   <g id="patch_197">
    <path clip-path="url(#p7b84a1664a)" d="M 901.032955 768.96 
L 902.935227 768.96 
L 902.935227 706.687383 
L 901.032955 706.687383 
z
" style="fill:#1f77b4;"/>
   </g>
   <g id="patch_198">
    <path clip-path="url(#p7b84a1664a)" d="M 904.8375 768.96 
L 906.739773 768.96 
L 906.739773 707.077606 
L 904.8375 707.077606 
z
" style="fill:#1f77b4;"/>
   </g>
   <g id="patch_199">
    <path clip-path="url(#p7b84a1664a)" d="M 908.642045 768.96 
L 910.544318 768.96 
L 910.544318 706.570898 
L 908.642045 706.570898 
z
" style="fill:#1f77b4;"/>
   </g>
   <g id="patch_200">
    <path clip-path="url(#p7b84a1664a)" d="M 912.446591 768.96 
L 914.348864 768.96 
L 914.348864 716.932195 
L 912.446591 716.932195 
z
" style="fill:#1f77b4;"/>
   </g>
   <g id="patch_201">
    <path clip-path="url(#p7b84a1664a)" d="M 916.251136 768.96 
L 918.153409 768.96 
L 918.153409 733.630249 
L 916.251136 733.630249 
z
" style="fill:#1f77b4;"/>
   </g>
   <g id="patch_202">
    <path clip-path="url(#p7b84a1664a)" d="M 920.055682 768.96 
L 921.957955 768.96 
L 921.957955 716.244937 
L 920.055682 716.244937 
z
" style="fill:#1f77b4;"/>
   </g>
   <g id="patch_203">
    <path clip-path="url(#p7b84a1664a)" d="M 923.860227 768.96 
L 925.7625 768.96 
L 925.7625 698.521819 
L 923.860227 698.521819 
z
" style="fill:#1f77b4;"/>
   </g>
   <g id="patch_204">
    <path clip-path="url(#p7b84a1664a)" d="M 927.664773 768.96 
L 929.567045 768.96 
L 929.567045 703.315156 
L 927.664773 703.315156 
z
" style="fill:#1f77b4;"/>
   </g>
   <g id="patch_205">
    <path clip-path="url(#p7b84a1664a)" d="M 931.469318 768.96 
L 933.371591 768.96 
L 933.371591 721.125637 
L 931.469318 721.125637 
z
" style="fill:#1f77b4;"/>
   </g>
   <g id="patch_206">
    <path clip-path="url(#p7b84a1664a)" d="M 935.273864 768.96 
L 937.176136 768.96 
L 937.176136 720.16464 
L 935.273864 720.16464 
z
" style="fill:#1f77b4;"/>
   </g>
   <g id="patch_207">
    <path clip-path="url(#p7b84a1664a)" d="M 939.078409 768.96 
L 940.980682 768.96 
L 940.980682 738.726446 
L 939.078409 738.726446 
z
" style="fill:#1f77b4;"/>
   </g>
   <g id="patch_208">
    <path clip-path="url(#p7b84a1664a)" d="M 942.882955 768.96 
L 944.785227 768.96 
L 944.785227 751.429082 
L 942.882955 751.429082 
z
" style="fill:#1f77b4;"/>
   </g>
   <g id="patch_209">
    <path clip-path="url(#p7b84a1664a)" d="M 946.6875 768.96 
L 948.589773 768.96 
L 948.589773 739.536014 
L 946.6875 739.536014 
z
" style="fill:#1f77b4;"/>
   </g>
   <g id="patch_210">
    <path clip-path="url(#p7b84a1664a)" d="M 950.492045 768.96 
L 952.394318 768.96 
L 952.394318 702.191081 
L 950.492045 702.191081 
z
" style="fill:#1f77b4;"/>
   </g>
   <g id="patch_211">
    <path clip-path="url(#p7b84a1664a)" d="M 954.296591 768.96 
L 956.198864 768.96 
L 956.198864 656.97762 
L 954.296591 656.97762 
z
" style="fill:#1f77b4;"/>
   </g>
   <g id="patch_212">
    <path clip-path="url(#p7b84a1664a)" d="M 958.101136 768.96 
L 960.003409 768.96 
L 960.003409 710.624559 
L 958.101136 710.624559 
z
" style="fill:#1f77b4;"/>
   </g>
   <g id="patch_213">
    <path clip-path="url(#p7b84a1664a)" d="M 961.905682 768.96 
L 963.807955 768.96 
L 963.807955 642.422881 
L 961.905682 642.422881 
z
" style="fill:#1f77b4;"/>
   </g>
   <g id="patch_214">
    <path clip-path="url(#p7b84a1664a)" d="M 965.710227 768.96 
L 967.6125 768.96 
L 967.6125 723.018511 
L 965.710227 723.018511 
z
" style="fill:#1f77b4;"/>
   </g>
   <g id="patch_215">
    <path clip-path="url(#p7b84a1664a)" d="M 969.514773 768.96 
L 971.417045 768.96 
L 971.417045 734.643664 
L 969.514773 734.643664 
z
" style="fill:#1f77b4;"/>
   </g>
   <g id="patch_216">
    <path clip-path="url(#p7b84a1664a)" d="M 973.319318 768.96 
L 975.221591 768.96 
L 975.221591 722.133228 
L 973.319318 722.133228 
z
" style="fill:#1f77b4;"/>
   </g>
   <g id="patch_217">
    <path clip-path="url(#p7b84a1664a)" d="M 977.123864 768.96 
L 979.026136 768.96 
L 979.026136 705.557483 
L 977.123864 705.557483 
z
" style="fill:#1f77b4;"/>
   </g>
   <g id="patch_218">
    <path clip-path="url(#p7b84a1664a)" d="M 980.928409 768.96 
L 982.830682 768.96 
L 982.830682 710.455657 
L 980.928409 710.455657 
z
" style="fill:#1f77b4;"/>
   </g>
   <g id="patch_219">
    <path clip-path="url(#p7b84a1664a)" d="M 984.732955 768.96 
L 986.635227 768.96 
L 986.635227 708.679268 
L 984.732955 708.679268 
z
" style="fill:#1f77b4;"/>
   </g>
   <g id="patch_220">
    <path clip-path="url(#p7b84a1664a)" d="M 988.5375 768.96 
L 990.439773 768.96 
L 990.439773 704.852752 
L 988.5375 704.852752 
z
" style="fill:#1f77b4;"/>
   </g>
   <g id="patch_221">
    <path clip-path="url(#p7b84a1664a)" d="M 992.342045 768.96 
L 994.244318 768.96 
L 994.244318 666.564295 
L 992.342045 666.564295 
z
" style="fill:#1f77b4;"/>
   </g>
   <g id="patch_222">
    <path clip-path="url(#p7b84a1664a)" d="M 996.146591 768.96 
L 998.048864 768.96 
L 998.048864 729.26208 
L 996.146591 729.26208 
z
" style="fill:#1f77b4;"/>
   </g>
   <g id="patch_223">
    <path clip-path="url(#p7b84a1664a)" d="M 999.951136 768.96 
L 1001.853409 768.96 
L 1001.853409 723.589285 
L 999.951136 723.589285 
z
" style="fill:#1f77b4;"/>
   </g>
   <g id="patch_224">
    <path clip-path="url(#p7b84a1664a)" d="M 1003.755682 768.96 
L 1005.657955 768.96 
L 1005.657955 725.785018 
L 1003.755682 725.785018 
z
" style="fill:#1f77b4;"/>
   </g>
   <g id="patch_225">
    <path clip-path="url(#p7b84a1664a)" d="M 1007.560227 768.96 
L 1009.4625 768.96 
L 1009.4625 613.983188 
L 1007.560227 613.983188 
z
" style="fill:#1f77b4;"/>
   </g>
   <g id="patch_226">
    <path clip-path="url(#p7b84a1664a)" d="M 1011.364773 768.96 
L 1013.267045 768.96 
L 1013.267045 632.335322 
L 1011.364773 632.335322 
z
" style="fill:#1f77b4;"/>
   </g>
   <g id="patch_227">
    <path clip-path="url(#p7b84a1664a)" d="M 1015.169318 768.96 
L 1017.071591 768.96 
L 1017.071591 645.503896 
L 1015.169318 645.503896 
z
" style="fill:#1f77b4;"/>
   </g>
   <g id="patch_228">
    <path clip-path="url(#p7b84a1664a)" d="M 1018.973864 768.96 
L 1020.876136 768.96 
L 1020.876136 608.153139 
L 1018.973864 608.153139 
z
" style="fill:#1f77b4;"/>
   </g>
   <g id="patch_229">
    <path clip-path="url(#p7b84a1664a)" d="M 1022.778409 768.96 
L 1024.680682 768.96 
L 1024.680682 658.78313 
L 1022.778409 658.78313 
z
" style="fill:#1f77b4;"/>
   </g>
   <g id="patch_230">
    <path clip-path="url(#p7b84a1664a)" d="M 1026.582955 768.96 
L 1028.485227 768.96 
L 1028.485227 715.097564 
L 1026.582955 715.097564 
z
" style="fill:#1f77b4;"/>
   </g>
   <g id="patch_231">
    <path clip-path="url(#p7b84a1664a)" d="M 1030.3875 768.96 
L 1032.289773 768.96 
L 1032.289773 692.633527 
L 1030.3875 692.633527 
z
" style="fill:#1f77b4;"/>
   </g>
   <g id="patch_232">
    <path clip-path="url(#p7b84a1664a)" d="M 1034.192045 768.96 
L 1036.094318 768.96 
L 1036.094318 697.263786 
L 1034.192045 697.263786 
z
" style="fill:#1f77b4;"/>
   </g>
   <g id="patch_233">
    <path clip-path="url(#p7b84a1664a)" d="M 1037.996591 768.96 
L 1039.898864 768.96 
L 1039.898864 700.7292 
L 1037.996591 700.7292 
z
" style="fill:#1f77b4;"/>
   </g>
   <g id="patch_234">
    <path clip-path="url(#p7b84a1664a)" d="M 1041.801136 768.96 
L 1043.703409 768.96 
L 1043.703409 702.849218 
L 1041.801136 702.849218 
z
" style="fill:#1f77b4;"/>
   </g>
   <g id="patch_235">
    <path clip-path="url(#p7b84a1664a)" d="M 1045.605682 768.96 
L 1047.507955 768.96 
L 1047.507955 701.608658 
L 1045.605682 701.608658 
z
" style="fill:#1f77b4;"/>
   </g>
   <g id="patch_236">
    <path clip-path="url(#p7b84a1664a)" d="M 1049.410227 768.96 
L 1051.3125 768.96 
L 1051.3125 724.200828 
L 1049.410227 724.200828 
z
" style="fill:#1f77b4;"/>
   </g>
   <g id="patch_237">
    <path clip-path="url(#p7b84a1664a)" d="M 1053.214773 768.96 
L 1055.117045 768.96 
L 1055.117045 714.060852 
L 1053.214773 714.060852 
z
" style="fill:#1f77b4;"/>
   </g>
   <g id="patch_238">
    <path clip-path="url(#p7b84a1664a)" d="M 1057.019318 768.96 
L 1058.921591 768.96 
L 1058.921591 693.122762 
L 1057.019318 693.122762 
z
" style="fill:#1f77b4;"/>
   </g>
   <g id="patch_239">
    <path clip-path="url(#p7b84a1664a)" d="M 1060.823864 768.96 
L 1062.726136 768.96 
L 1062.726136 696.489164 
L 1060.823864 696.489164 
z
" style="fill:#1f77b4;"/>
   </g>
   <g id="patch_240">
    <path clip-path="url(#p7b84a1664a)" d="M 1064.628409 768.96 
L 1066.530682 768.96 
L 1066.530682 692.103523 
L 1064.628409 692.103523 
z
" style="fill:#1f77b4;"/>
   </g>
   <g id="patch_241">
    <path clip-path="url(#p7b84a1664a)" d="M 1068.432955 768.96 
L 1070.335227 768.96 
L 1070.335227 682.266406 
L 1068.432955 682.266406 
z
" style="fill:#1f77b4;"/>
   </g>
   <g id="patch_242">
    <path clip-path="url(#p7b84a1664a)" d="M 1072.2375 768.96 
L 1074.139773 768.96 
L 1074.139773 643.826519 
L 1072.2375 643.826519 
z
" style="fill:#1f77b4;"/>
   </g>
   <g id="patch_243">
    <path clip-path="url(#p7b84a1664a)" d="M 1076.042045 768.96 
L 1077.944318 768.96 
L 1077.944318 565.123762 
L 1076.042045 565.123762 
z
" style="fill:#1f77b4;"/>
   </g>
   <g id="patch_244">
    <path clip-path="url(#p7b84a1664a)" d="M 1079.846591 768.96 
L 1081.748864 768.96 
L 1081.748864 674.106666 
L 1079.846591 674.106666 
z
" style="fill:#1f77b4;"/>
   </g>
   <g id="patch_245">
    <path clip-path="url(#p7b84a1664a)" d="M 1083.651136 768.96 
L 1085.553409 768.96 
L 1085.553409 693.815845 
L 1083.651136 693.815845 
z
" style="fill:#1f77b4;"/>
   </g>
   <g id="patch_246">
    <path clip-path="url(#p7b84a1664a)" d="M 1087.455682 768.96 
L 1089.357955 768.96 
L 1089.357955 698.801382 
L 1087.455682 698.801382 
z
" style="fill:#1f77b4;"/>
   </g>
   <g id="patch_247">
    <path clip-path="url(#p7b84a1664a)" d="M 1091.260227 768.96 
L 1093.1625 768.96 
L 1093.1625 704.456705 
L 1091.260227 704.456705 
z
" style="fill:#1f77b4;"/>
   </g>
   <g id="patch_248">
    <path clip-path="url(#p7b84a1664a)" d="M 1095.064773 768.96 
L 1096.967045 768.96 
L 1096.967045 703.77527 
L 1095.064773 703.77527 
z
" style="fill:#1f77b4;"/>
   </g>
   <g id="patch_249">
    <path clip-path="url(#p7b84a1664a)" d="M 1098.869318 768.96 
L 1100.771591 768.96 
L 1100.771591 708.091021 
L 1098.869318 708.091021 
z
" style="fill:#1f77b4;"/>
   </g>
   <g id="patch_250">
    <path clip-path="url(#p7b84a1664a)" d="M 1102.673864 768.96 
L 1104.576136 768.96 
L 1104.576136 727.287668 
L 1102.673864 727.287668 
z
" style="fill:#1f77b4;"/>
   </g>
   <g id="patch_251">
    <path clip-path="url(#p7b84a1664a)" d="M 1106.478409 768.96 
L 1108.380682 768.96 
L 1108.380682 739.745686 
L 1106.478409 739.745686 
z
" style="fill:#1f77b4;"/>
   </g>
   <g id="patch_252">
    <path clip-path="url(#p7b84a1664a)" d="M 1110.282955 768.96 
L 1112.185227 768.96 
L 1112.185227 732.867276 
L 1110.282955 732.867276 
z
" style="fill:#1f77b4;"/>
   </g>
   <g id="patch_253">
    <path clip-path="url(#p7b84a1664a)" d="M 1114.0875 768.96 
L 1115.989773 768.96 
L 1115.989773 695.865972 
L 1114.0875 695.865972 
z
" style="fill:#1f77b4;"/>
   </g>
   <g id="patch_254">
    <path clip-path="url(#p7b84a1664a)" d="M 1117.892045 768.96 
L 1119.794318 768.96 
L 1119.794318 704.683849 
L 1117.892045 704.683849 
z
" style="fill:#1f77b4;"/>
   </g>
   <g id="patch_255">
    <path clip-path="url(#p7b84a1664a)" d="M 1121.696591 768.96 
L 1123.598864 768.96 
L 1123.598864 707.95124 
L 1121.696591 707.95124 
z
" style="fill:#1f77b4;"/>
   </g>
   <g id="patch_256">
    <path clip-path="url(#p7b84a1664a)" d="M 1125.501136 768.96 
L 1127.403409 768.96 
L 1127.403409 713.233812 
L 1125.501136 713.233812 
z
" style="fill:#1f77b4;"/>
   </g>
   <g id="patch_257">
    <path clip-path="url(#p7b84a1664a)" d="M 1129.305682 768.96 
L 1131.207955 768.96 
L 1131.207955 727.730309 
L 1129.305682 727.730309 
z
" style="fill:#1f77b4;"/>
   </g>
   <g id="patch_258">
    <path clip-path="url(#p7b84a1664a)" d="M 1133.110227 768.96 
L 1135.0125 768.96 
L 1135.0125 722.412791 
L 1133.110227 722.412791 
z
" style="fill:#1f77b4;"/>
   </g>
   <g id="patch_259">
    <path clip-path="url(#p7b84a1664a)" d="M 1136.914773 768.96 
L 1138.817045 768.96 
L 1138.817045 706.355402 
L 1136.914773 706.355402 
z
" style="fill:#1f77b4;"/>
   </g>
   <g id="patch_260">
    <path clip-path="url(#p7b84a1664a)" d="M 1140.719318 768.96 
L 1142.621591 768.96 
L 1142.621591 709.634441 
L 1140.719318 709.634441 
z
" style="fill:#1f77b4;"/>
   </g>
   <g id="patch_261">
    <path clip-path="url(#p7b84a1664a)" d="M 1144.523864 768.96 
L 1146.426136 768.96 
L 1146.426136 709.110261 
L 1144.523864 709.110261 
z
" style="fill:#1f77b4;"/>
   </g>
   <g id="patch_262">
    <path clip-path="url(#p7b84a1664a)" d="M 1148.328409 768.96 
L 1150.230682 768.96 
L 1150.230682 706.984418 
L 1148.328409 706.984418 
z
" style="fill:#1f77b4;"/>
   </g>
   <g id="patch_263">
    <path clip-path="url(#p7b84a1664a)" d="M 1152.132955 768.96 
L 1154.035227 768.96 
L 1154.035227 707.543544 
L 1152.132955 707.543544 
z
" style="fill:#1f77b4;"/>
   </g>
   <g id="patch_264">
    <path clip-path="url(#p7b84a1664a)" d="M 1155.9375 768.96 
L 1157.839773 768.96 
L 1157.839773 724.923032 
L 1155.9375 724.923032 
z
" style="fill:#1f77b4;"/>
   </g>
   <g id="patch_265">
    <path clip-path="url(#p7b84a1664a)" d="M 1159.742045 768.96 
L 1161.644318 768.96 
L 1161.644318 727.677891 
L 1159.742045 727.677891 
z
" style="fill:#1f77b4;"/>
   </g>
   <g id="patch_266">
    <path clip-path="url(#p7b84a1664a)" d="M 1163.546591 768.96 
L 1165.448864 768.96 
L 1165.448864 698.789733 
L 1163.546591 698.789733 
z
" style="fill:#1f77b4;"/>
   </g>
   <g id="matplotlib.axis_1">
    <g id="xtick_1">
     <g id="line2d_1">
      <defs>
       <path d="M 0 0 
L 0 3.5 
" id="ma6a8ab765a" style="stroke:#000000;stroke-width:0.8;"/>
      </defs>
      <g>
       <use style="stroke:#000000;stroke-width:0.8;" x="163.902273" xlink:href="#ma6a8ab765a" y="768.96"/>
      </g>
     </g>
     <g id="text_1">
      <!-- January -->
      <g transform="translate(144.946804 783.558437)scale(0.1 -0.1)">
       <defs>
        <path d="M 628 4666 
L 1259 4666 
L 1259 325 
Q 1259 -519 939 -900 
Q 619 -1281 -91 -1281 
L -331 -1281 
L -331 -750 
L -134 -750 
Q 284 -750 456 -515 
Q 628 -281 628 325 
L 628 4666 
z
" id="DejaVuSans-4a" transform="scale(0.015625)"/>
        <path d="M 2194 1759 
Q 1497 1759 1228 1600 
Q 959 1441 959 1056 
Q 959 750 1161 570 
Q 1363 391 1709 391 
Q 2188 391 2477 730 
Q 2766 1069 2766 1631 
L 2766 1759 
L 2194 1759 
z
M 3341 1997 
L 3341 0 
L 2766 0 
L 2766 531 
Q 2569 213 2275 61 
Q 1981 -91 1556 -91 
Q 1019 -91 701 211 
Q 384 513 384 1019 
Q 384 1609 779 1909 
Q 1175 2209 1959 2209 
L 2766 2209 
L 2766 2266 
Q 2766 2663 2505 2880 
Q 2244 3097 1772 3097 
Q 1472 3097 1187 3025 
Q 903 2953 641 2809 
L 641 3341 
Q 956 3463 1253 3523 
Q 1550 3584 1831 3584 
Q 2591 3584 2966 3190 
Q 3341 2797 3341 1997 
z
" id="DejaVuSans-61" transform="scale(0.015625)"/>
        <path d="M 3513 2113 
L 3513 0 
L 2938 0 
L 2938 2094 
Q 2938 2591 2744 2837 
Q 2550 3084 2163 3084 
Q 1697 3084 1428 2787 
Q 1159 2491 1159 1978 
L 1159 0 
L 581 0 
L 581 3500 
L 1159 3500 
L 1159 2956 
Q 1366 3272 1645 3428 
Q 1925 3584 2291 3584 
Q 2894 3584 3203 3211 
Q 3513 2838 3513 2113 
z
" id="DejaVuSans-6e" transform="scale(0.015625)"/>
        <path d="M 544 1381 
L 544 3500 
L 1119 3500 
L 1119 1403 
Q 1119 906 1312 657 
Q 1506 409 1894 409 
Q 2359 409 2629 706 
Q 2900 1003 2900 1516 
L 2900 3500 
L 3475 3500 
L 3475 0 
L 2900 0 
L 2900 538 
Q 2691 219 2414 64 
Q 2138 -91 1772 -91 
Q 1169 -91 856 284 
Q 544 659 544 1381 
z
M 1991 3584 
L 1991 3584 
z
" id="DejaVuSans-75" transform="scale(0.015625)"/>
        <path d="M 2631 2963 
Q 2534 3019 2420 3045 
Q 2306 3072 2169 3072 
Q 1681 3072 1420 2755 
Q 1159 2438 1159 1844 
L 1159 0 
L 581 0 
L 581 3500 
L 1159 3500 
L 1159 2956 
Q 1341 3275 1631 3429 
Q 1922 3584 2338 3584 
Q 2397 3584 2469 3576 
Q 2541 3569 2628 3553 
L 2631 2963 
z
" id="DejaVuSans-72" transform="scale(0.015625)"/>
        <path d="M 2059 -325 
Q 1816 -950 1584 -1140 
Q 1353 -1331 966 -1331 
L 506 -1331 
L 506 -850 
L 844 -850 
Q 1081 -850 1212 -737 
Q 1344 -625 1503 -206 
L 1606 56 
L 191 3500 
L 800 3500 
L 1894 763 
L 2988 3500 
L 3597 3500 
L 2059 -325 
z
" id="DejaVuSans-79" transform="scale(0.015625)"/>
       </defs>
       <use xlink:href="#DejaVuSans-4a"/>
       <use x="29.492188" xlink:href="#DejaVuSans-61"/>
       <use x="90.771484" xlink:href="#DejaVuSans-6e"/>
       <use x="154.150391" xlink:href="#DejaVuSans-75"/>
       <use x="217.529297" xlink:href="#DejaVuSans-61"/>
       <use x="278.808594" xlink:href="#DejaVuSans-72"/>
       <use x="319.921875" xlink:href="#DejaVuSans-79"/>
      </g>
     </g>
    </g>
    <g id="xtick_2">
     <g id="line2d_2">
      <g>
       <use style="stroke:#000000;stroke-width:0.8;" x="281.843182" xlink:href="#ma6a8ab765a" y="768.96"/>
      </g>
     </g>
     <g id="text_2">
      <!-- February -->
      <g transform="translate(259.688494 783.558437)scale(0.1 -0.1)">
       <defs>
        <path d="M 628 4666 
L 3309 4666 
L 3309 4134 
L 1259 4134 
L 1259 2759 
L 3109 2759 
L 3109 2228 
L 1259 2228 
L 1259 0 
L 628 0 
L 628 4666 
z
" id="DejaVuSans-46" transform="scale(0.015625)"/>
        <path d="M 3597 1894 
L 3597 1613 
L 953 1613 
Q 991 1019 1311 708 
Q 1631 397 2203 397 
Q 2534 397 2845 478 
Q 3156 559 3463 722 
L 3463 178 
Q 3153 47 2828 -22 
Q 2503 -91 2169 -91 
Q 1331 -91 842 396 
Q 353 884 353 1716 
Q 353 2575 817 3079 
Q 1281 3584 2069 3584 
Q 2775 3584 3186 3129 
Q 3597 2675 3597 1894 
z
M 3022 2063 
Q 3016 2534 2758 2815 
Q 2500 3097 2075 3097 
Q 1594 3097 1305 2825 
Q 1016 2553 972 2059 
L 3022 2063 
z
" id="DejaVuSans-65" transform="scale(0.015625)"/>
        <path d="M 3116 1747 
Q 3116 2381 2855 2742 
Q 2594 3103 2138 3103 
Q 1681 3103 1420 2742 
Q 1159 2381 1159 1747 
Q 1159 1113 1420 752 
Q 1681 391 2138 391 
Q 2594 391 2855 752 
Q 3116 1113 3116 1747 
z
M 1159 2969 
Q 1341 3281 1617 3432 
Q 1894 3584 2278 3584 
Q 2916 3584 3314 3078 
Q 3713 2572 3713 1747 
Q 3713 922 3314 415 
Q 2916 -91 2278 -91 
Q 1894 -91 1617 61 
Q 1341 213 1159 525 
L 1159 0 
L 581 0 
L 581 4863 
L 1159 4863 
L 1159 2969 
z
" id="DejaVuSans-62" transform="scale(0.015625)"/>
       </defs>
       <use xlink:href="#DejaVuSans-46"/>
       <use x="52.019531" xlink:href="#DejaVuSans-65"/>
       <use x="113.542969" xlink:href="#DejaVuSans-62"/>
       <use x="177.019531" xlink:href="#DejaVuSans-72"/>
       <use x="218.132812" xlink:href="#DejaVuSans-75"/>
       <use x="281.511719" xlink:href="#DejaVuSans-61"/>
       <use x="342.791016" xlink:href="#DejaVuSans-72"/>
       <use x="383.904297" xlink:href="#DejaVuSans-79"/>
      </g>
     </g>
    </g>
    <g id="xtick_3">
     <g id="line2d_3">
      <g>
       <use style="stroke:#000000;stroke-width:0.8;" x="388.370455" xlink:href="#ma6a8ab765a" y="768.96"/>
      </g>
     </g>
     <g id="text_3">
      <!-- March -->
      <g transform="translate(373.131392 783.558437)scale(0.1 -0.1)">
       <defs>
        <path d="M 628 4666 
L 1569 4666 
L 2759 1491 
L 3956 4666 
L 4897 4666 
L 4897 0 
L 4281 0 
L 4281 4097 
L 3078 897 
L 2444 897 
L 1241 4097 
L 1241 0 
L 628 0 
L 628 4666 
z
" id="DejaVuSans-4d" transform="scale(0.015625)"/>
        <path d="M 3122 3366 
L 3122 2828 
Q 2878 2963 2633 3030 
Q 2388 3097 2138 3097 
Q 1578 3097 1268 2742 
Q 959 2388 959 1747 
Q 959 1106 1268 751 
Q 1578 397 2138 397 
Q 2388 397 2633 464 
Q 2878 531 3122 666 
L 3122 134 
Q 2881 22 2623 -34 
Q 2366 -91 2075 -91 
Q 1284 -91 818 406 
Q 353 903 353 1747 
Q 353 2603 823 3093 
Q 1294 3584 2113 3584 
Q 2378 3584 2631 3529 
Q 2884 3475 3122 3366 
z
" id="DejaVuSans-63" transform="scale(0.015625)"/>
        <path d="M 3513 2113 
L 3513 0 
L 2938 0 
L 2938 2094 
Q 2938 2591 2744 2837 
Q 2550 3084 2163 3084 
Q 1697 3084 1428 2787 
Q 1159 2491 1159 1978 
L 1159 0 
L 581 0 
L 581 4863 
L 1159 4863 
L 1159 2956 
Q 1366 3272 1645 3428 
Q 1925 3584 2291 3584 
Q 2894 3584 3203 3211 
Q 3513 2838 3513 2113 
z
" id="DejaVuSans-68" transform="scale(0.015625)"/>
       </defs>
       <use xlink:href="#DejaVuSans-4d"/>
       <use x="86.279297" xlink:href="#DejaVuSans-61"/>
       <use x="147.558594" xlink:href="#DejaVuSans-72"/>
       <use x="186.421875" xlink:href="#DejaVuSans-63"/>
       <use x="241.402344" xlink:href="#DejaVuSans-68"/>
      </g>
     </g>
    </g>
    <g id="xtick_4">
     <g id="line2d_4">
      <g>
       <use style="stroke:#000000;stroke-width:0.8;" x="506.311364" xlink:href="#ma6a8ab765a" y="768.96"/>
      </g>
     </g>
     <g id="text_4">
      <!-- April -->
      <g transform="translate(494.883239 783.558437)scale(0.1 -0.1)">
       <defs>
        <path d="M 2188 4044 
L 1331 1722 
L 3047 1722 
L 2188 4044 
z
M 1831 4666 
L 2547 4666 
L 4325 0 
L 3669 0 
L 3244 1197 
L 1141 1197 
L 716 0 
L 50 0 
L 1831 4666 
z
" id="DejaVuSans-41" transform="scale(0.015625)"/>
        <path d="M 1159 525 
L 1159 -1331 
L 581 -1331 
L 581 3500 
L 1159 3500 
L 1159 2969 
Q 1341 3281 1617 3432 
Q 1894 3584 2278 3584 
Q 2916 3584 3314 3078 
Q 3713 2572 3713 1747 
Q 3713 922 3314 415 
Q 2916 -91 2278 -91 
Q 1894 -91 1617 61 
Q 1341 213 1159 525 
z
M 3116 1747 
Q 3116 2381 2855 2742 
Q 2594 3103 2138 3103 
Q 1681 3103 1420 2742 
Q 1159 2381 1159 1747 
Q 1159 1113 1420 752 
Q 1681 391 2138 391 
Q 2594 391 2855 752 
Q 3116 1113 3116 1747 
z
" id="DejaVuSans-70" transform="scale(0.015625)"/>
        <path d="M 603 3500 
L 1178 3500 
L 1178 0 
L 603 0 
L 603 3500 
z
M 603 4863 
L 1178 4863 
L 1178 4134 
L 603 4134 
L 603 4863 
z
" id="DejaVuSans-69" transform="scale(0.015625)"/>
        <path d="M 603 4863 
L 1178 4863 
L 1178 0 
L 603 0 
L 603 4863 
z
" id="DejaVuSans-6c" transform="scale(0.015625)"/>
       </defs>
       <use xlink:href="#DejaVuSans-41"/>
       <use x="68.408203" xlink:href="#DejaVuSans-70"/>
       <use x="131.884766" xlink:href="#DejaVuSans-72"/>
       <use x="172.998047" xlink:href="#DejaVuSans-69"/>
       <use x="200.78125" xlink:href="#DejaVuSans-6c"/>
      </g>
     </g>
    </g>
    <g id="xtick_5">
     <g id="line2d_5">
      <g>
       <use style="stroke:#000000;stroke-width:0.8;" x="620.447727" xlink:href="#ma6a8ab765a" y="768.96"/>
      </g>
     </g>
     <g id="text_5">
      <!-- May -->
      <g transform="translate(610.110227 783.558437)scale(0.1 -0.1)">
       <use xlink:href="#DejaVuSans-4d"/>
       <use x="86.279297" xlink:href="#DejaVuSans-61"/>
       <use x="147.558594" xlink:href="#DejaVuSans-79"/>
      </g>
     </g>
    </g>
    <g id="xtick_6">
     <g id="line2d_6">
      <g>
       <use style="stroke:#000000;stroke-width:0.8;" x="738.388636" xlink:href="#ma6a8ab765a" y="768.96"/>
      </g>
     </g>
     <g id="text_6">
      <!-- June -->
      <g transform="translate(727.499574 783.558437)scale(0.1 -0.1)">
       <use xlink:href="#DejaVuSans-4a"/>
       <use x="29.492188" xlink:href="#DejaVuSans-75"/>
       <use x="92.871094" xlink:href="#DejaVuSans-6e"/>
       <use x="156.25" xlink:href="#DejaVuSans-65"/>
      </g>
     </g>
    </g>
    <g id="xtick_7">
     <g id="line2d_7">
      <g>
       <use style="stroke:#000000;stroke-width:0.8;" x="852.525" xlink:href="#ma6a8ab765a" y="768.96"/>
      </g>
     </g>
     <g id="text_7">
      <!-- July -->
      <g transform="translate(843.532813 783.558437)scale(0.1 -0.1)">
       <use xlink:href="#DejaVuSans-4a"/>
       <use x="29.492188" xlink:href="#DejaVuSans-75"/>
       <use x="92.871094" xlink:href="#DejaVuSans-6c"/>
       <use x="120.654297" xlink:href="#DejaVuSans-79"/>
      </g>
     </g>
    </g>
    <g id="xtick_8">
     <g id="line2d_8">
      <g>
       <use style="stroke:#000000;stroke-width:0.8;" x="970.465909" xlink:href="#ma6a8ab765a" y="768.96"/>
      </g>
     </g>
     <g id="text_8">
      <!-- August -->
      <g transform="translate(952.969034 783.558437)scale(0.1 -0.1)">
       <defs>
        <path d="M 2906 1791 
Q 2906 2416 2648 2759 
Q 2391 3103 1925 3103 
Q 1463 3103 1205 2759 
Q 947 2416 947 1791 
Q 947 1169 1205 825 
Q 1463 481 1925 481 
Q 2391 481 2648 825 
Q 2906 1169 2906 1791 
z
M 3481 434 
Q 3481 -459 3084 -895 
Q 2688 -1331 1869 -1331 
Q 1566 -1331 1297 -1286 
Q 1028 -1241 775 -1147 
L 775 -588 
Q 1028 -725 1275 -790 
Q 1522 -856 1778 -856 
Q 2344 -856 2625 -561 
Q 2906 -266 2906 331 
L 2906 616 
Q 2728 306 2450 153 
Q 2172 0 1784 0 
Q 1141 0 747 490 
Q 353 981 353 1791 
Q 353 2603 747 3093 
Q 1141 3584 1784 3584 
Q 2172 3584 2450 3431 
Q 2728 3278 2906 2969 
L 2906 3500 
L 3481 3500 
L 3481 434 
z
" id="DejaVuSans-67" transform="scale(0.015625)"/>
        <path d="M 2834 3397 
L 2834 2853 
Q 2591 2978 2328 3040 
Q 2066 3103 1784 3103 
Q 1356 3103 1142 2972 
Q 928 2841 928 2578 
Q 928 2378 1081 2264 
Q 1234 2150 1697 2047 
L 1894 2003 
Q 2506 1872 2764 1633 
Q 3022 1394 3022 966 
Q 3022 478 2636 193 
Q 2250 -91 1575 -91 
Q 1294 -91 989 -36 
Q 684 19 347 128 
L 347 722 
Q 666 556 975 473 
Q 1284 391 1588 391 
Q 1994 391 2212 530 
Q 2431 669 2431 922 
Q 2431 1156 2273 1281 
Q 2116 1406 1581 1522 
L 1381 1569 
Q 847 1681 609 1914 
Q 372 2147 372 2553 
Q 372 3047 722 3315 
Q 1072 3584 1716 3584 
Q 2034 3584 2315 3537 
Q 2597 3491 2834 3397 
z
" id="DejaVuSans-73" transform="scale(0.015625)"/>
        <path d="M 1172 4494 
L 1172 3500 
L 2356 3500 
L 2356 3053 
L 1172 3053 
L 1172 1153 
Q 1172 725 1289 603 
Q 1406 481 1766 481 
L 2356 481 
L 2356 0 
L 1766 0 
Q 1100 0 847 248 
Q 594 497 594 1153 
L 594 3053 
L 172 3053 
L 172 3500 
L 594 3500 
L 594 4494 
L 1172 4494 
z
" id="DejaVuSans-74" transform="scale(0.015625)"/>
       </defs>
       <use xlink:href="#DejaVuSans-41"/>
       <use x="68.408203" xlink:href="#DejaVuSans-75"/>
       <use x="131.787109" xlink:href="#DejaVuSans-67"/>
       <use x="195.263672" xlink:href="#DejaVuSans-75"/>
       <use x="258.642578" xlink:href="#DejaVuSans-73"/>
       <use x="310.742188" xlink:href="#DejaVuSans-74"/>
      </g>
     </g>
    </g>
    <g id="xtick_9">
     <g id="line2d_9">
      <g>
       <use style="stroke:#000000;stroke-width:0.8;" x="1088.406818" xlink:href="#ma6a8ab765a" y="768.96"/>
      </g>
     </g>
     <g id="text_9">
      <!-- September -->
      <g transform="translate(1060.768537 783.558437)scale(0.1 -0.1)">
       <defs>
        <path d="M 3425 4513 
L 3425 3897 
Q 3066 4069 2747 4153 
Q 2428 4238 2131 4238 
Q 1616 4238 1336 4038 
Q 1056 3838 1056 3469 
Q 1056 3159 1242 3001 
Q 1428 2844 1947 2747 
L 2328 2669 
Q 3034 2534 3370 2195 
Q 3706 1856 3706 1288 
Q 3706 609 3251 259 
Q 2797 -91 1919 -91 
Q 1588 -91 1214 -16 
Q 841 59 441 206 
L 441 856 
Q 825 641 1194 531 
Q 1563 422 1919 422 
Q 2459 422 2753 634 
Q 3047 847 3047 1241 
Q 3047 1584 2836 1778 
Q 2625 1972 2144 2069 
L 1759 2144 
Q 1053 2284 737 2584 
Q 422 2884 422 3419 
Q 422 4038 858 4394 
Q 1294 4750 2059 4750 
Q 2388 4750 2728 4690 
Q 3069 4631 3425 4513 
z
" id="DejaVuSans-53" transform="scale(0.015625)"/>
        <path d="M 3328 2828 
Q 3544 3216 3844 3400 
Q 4144 3584 4550 3584 
Q 5097 3584 5394 3201 
Q 5691 2819 5691 2113 
L 5691 0 
L 5113 0 
L 5113 2094 
Q 5113 2597 4934 2840 
Q 4756 3084 4391 3084 
Q 3944 3084 3684 2787 
Q 3425 2491 3425 1978 
L 3425 0 
L 2847 0 
L 2847 2094 
Q 2847 2600 2669 2842 
Q 2491 3084 2119 3084 
Q 1678 3084 1418 2786 
Q 1159 2488 1159 1978 
L 1159 0 
L 581 0 
L 581 3500 
L 1159 3500 
L 1159 2956 
Q 1356 3278 1631 3431 
Q 1906 3584 2284 3584 
Q 2666 3584 2933 3390 
Q 3200 3197 3328 2828 
z
" id="DejaVuSans-6d" transform="scale(0.015625)"/>
       </defs>
       <use xlink:href="#DejaVuSans-53"/>
       <use x="63.476562" xlink:href="#DejaVuSans-65"/>
       <use x="125" xlink:href="#DejaVuSans-70"/>
       <use x="188.476562" xlink:href="#DejaVuSans-74"/>
       <use x="227.685547" xlink:href="#DejaVuSans-65"/>
       <use x="289.208984" xlink:href="#DejaVuSans-6d"/>
       <use x="386.621094" xlink:href="#DejaVuSans-62"/>
       <use x="450.097656" xlink:href="#DejaVuSans-65"/>
       <use x="511.621094" xlink:href="#DejaVuSans-72"/>
      </g>
     </g>
    </g>
   </g>
   <g id="matplotlib.axis_2">
    <g id="ytick_1">
     <g id="line2d_10">
      <defs>
       <path d="M 0 0 
L -3.5 0 
" id="m7d7114f824" style="stroke:#000000;stroke-width:0.8;"/>
      </defs>
      <g>
       <use style="stroke:#000000;stroke-width:0.8;" x="162" xlink:href="#m7d7114f824" y="768.96"/>
      </g>
     </g>
     <g id="text_10">
      <!-- 0 -->
      <g transform="translate(148.6375 772.759219)scale(0.1 -0.1)">
       <defs>
        <path d="M 2034 4250 
Q 1547 4250 1301 3770 
Q 1056 3291 1056 2328 
Q 1056 1369 1301 889 
Q 1547 409 2034 409 
Q 2525 409 2770 889 
Q 3016 1369 3016 2328 
Q 3016 3291 2770 3770 
Q 2525 4250 2034 4250 
z
M 2034 4750 
Q 2819 4750 3233 4129 
Q 3647 3509 3647 2328 
Q 3647 1150 3233 529 
Q 2819 -91 2034 -91 
Q 1250 -91 836 529 
Q 422 1150 422 2328 
Q 422 3509 836 4129 
Q 1250 4750 2034 4750 
z
" id="DejaVuSans-30" transform="scale(0.015625)"/>
       </defs>
       <use xlink:href="#DejaVuSans-30"/>
      </g>
     </g>
    </g>
    <g id="ytick_2">
     <g id="line2d_11">
      <g>
       <use style="stroke:#000000;stroke-width:0.8;" x="162" xlink:href="#m7d7114f824" y="652.475494"/>
      </g>
     </g>
     <g id="text_11">
      <!-- 20000 -->
      <g transform="translate(123.1875 656.274712)scale(0.1 -0.1)">
       <defs>
        <path d="M 1228 531 
L 3431 531 
L 3431 0 
L 469 0 
L 469 531 
Q 828 903 1448 1529 
Q 2069 2156 2228 2338 
Q 2531 2678 2651 2914 
Q 2772 3150 2772 3378 
Q 2772 3750 2511 3984 
Q 2250 4219 1831 4219 
Q 1534 4219 1204 4116 
Q 875 4013 500 3803 
L 500 4441 
Q 881 4594 1212 4672 
Q 1544 4750 1819 4750 
Q 2544 4750 2975 4387 
Q 3406 4025 3406 3419 
Q 3406 3131 3298 2873 
Q 3191 2616 2906 2266 
Q 2828 2175 2409 1742 
Q 1991 1309 1228 531 
z
" id="DejaVuSans-32" transform="scale(0.015625)"/>
       </defs>
       <use xlink:href="#DejaVuSans-32"/>
       <use x="63.623047" xlink:href="#DejaVuSans-30"/>
       <use x="127.246094" xlink:href="#DejaVuSans-30"/>
       <use x="190.869141" xlink:href="#DejaVuSans-30"/>
       <use x="254.492188" xlink:href="#DejaVuSans-30"/>
      </g>
     </g>
    </g>
    <g id="ytick_3">
     <g id="line2d_12">
      <g>
       <use style="stroke:#000000;stroke-width:0.8;" x="162" xlink:href="#m7d7114f824" y="535.990987"/>
      </g>
     </g>
     <g id="text_12">
      <!-- 40000 -->
      <g transform="translate(123.1875 539.790206)scale(0.1 -0.1)">
       <defs>
        <path d="M 2419 4116 
L 825 1625 
L 2419 1625 
L 2419 4116 
z
M 2253 4666 
L 3047 4666 
L 3047 1625 
L 3713 1625 
L 3713 1100 
L 3047 1100 
L 3047 0 
L 2419 0 
L 2419 1100 
L 313 1100 
L 313 1709 
L 2253 4666 
z
" id="DejaVuSans-34" transform="scale(0.015625)"/>
       </defs>
       <use xlink:href="#DejaVuSans-34"/>
       <use x="63.623047" xlink:href="#DejaVuSans-30"/>
       <use x="127.246094" xlink:href="#DejaVuSans-30"/>
       <use x="190.869141" xlink:href="#DejaVuSans-30"/>
       <use x="254.492188" xlink:href="#DejaVuSans-30"/>
      </g>
     </g>
    </g>
    <g id="ytick_4">
     <g id="line2d_13">
      <g>
       <use style="stroke:#000000;stroke-width:0.8;" x="162" xlink:href="#m7d7114f824" y="419.506481"/>
      </g>
     </g>
     <g id="text_13">
      <!-- 60000 -->
      <g transform="translate(123.1875 423.305699)scale(0.1 -0.1)">
       <defs>
        <path d="M 2113 2584 
Q 1688 2584 1439 2293 
Q 1191 2003 1191 1497 
Q 1191 994 1439 701 
Q 1688 409 2113 409 
Q 2538 409 2786 701 
Q 3034 994 3034 1497 
Q 3034 2003 2786 2293 
Q 2538 2584 2113 2584 
z
M 3366 4563 
L 3366 3988 
Q 3128 4100 2886 4159 
Q 2644 4219 2406 4219 
Q 1781 4219 1451 3797 
Q 1122 3375 1075 2522 
Q 1259 2794 1537 2939 
Q 1816 3084 2150 3084 
Q 2853 3084 3261 2657 
Q 3669 2231 3669 1497 
Q 3669 778 3244 343 
Q 2819 -91 2113 -91 
Q 1303 -91 875 529 
Q 447 1150 447 2328 
Q 447 3434 972 4092 
Q 1497 4750 2381 4750 
Q 2619 4750 2861 4703 
Q 3103 4656 3366 4563 
z
" id="DejaVuSans-36" transform="scale(0.015625)"/>
       </defs>
       <use xlink:href="#DejaVuSans-36"/>
       <use x="63.623047" xlink:href="#DejaVuSans-30"/>
       <use x="127.246094" xlink:href="#DejaVuSans-30"/>
       <use x="190.869141" xlink:href="#DejaVuSans-30"/>
       <use x="254.492188" xlink:href="#DejaVuSans-30"/>
      </g>
     </g>
    </g>
    <g id="ytick_5">
     <g id="line2d_14">
      <g>
       <use style="stroke:#000000;stroke-width:0.8;" x="162" xlink:href="#m7d7114f824" y="303.021974"/>
      </g>
     </g>
     <g id="text_14">
      <!-- 80000 -->
      <g transform="translate(123.1875 306.821193)scale(0.1 -0.1)">
       <defs>
        <path d="M 2034 2216 
Q 1584 2216 1326 1975 
Q 1069 1734 1069 1313 
Q 1069 891 1326 650 
Q 1584 409 2034 409 
Q 2484 409 2743 651 
Q 3003 894 3003 1313 
Q 3003 1734 2745 1975 
Q 2488 2216 2034 2216 
z
M 1403 2484 
Q 997 2584 770 2862 
Q 544 3141 544 3541 
Q 544 4100 942 4425 
Q 1341 4750 2034 4750 
Q 2731 4750 3128 4425 
Q 3525 4100 3525 3541 
Q 3525 3141 3298 2862 
Q 3072 2584 2669 2484 
Q 3125 2378 3379 2068 
Q 3634 1759 3634 1313 
Q 3634 634 3220 271 
Q 2806 -91 2034 -91 
Q 1263 -91 848 271 
Q 434 634 434 1313 
Q 434 1759 690 2068 
Q 947 2378 1403 2484 
z
M 1172 3481 
Q 1172 3119 1398 2916 
Q 1625 2713 2034 2713 
Q 2441 2713 2670 2916 
Q 2900 3119 2900 3481 
Q 2900 3844 2670 4047 
Q 2441 4250 2034 4250 
Q 1625 4250 1398 4047 
Q 1172 3844 1172 3481 
z
" id="DejaVuSans-38" transform="scale(0.015625)"/>
       </defs>
       <use xlink:href="#DejaVuSans-38"/>
       <use x="63.623047" xlink:href="#DejaVuSans-30"/>
       <use x="127.246094" xlink:href="#DejaVuSans-30"/>
       <use x="190.869141" xlink:href="#DejaVuSans-30"/>
       <use x="254.492188" xlink:href="#DejaVuSans-30"/>
      </g>
     </g>
    </g>
    <g id="ytick_6">
     <g id="line2d_15">
      <g>
       <use style="stroke:#000000;stroke-width:0.8;" x="162" xlink:href="#m7d7114f824" y="186.537468"/>
      </g>
     </g>
     <g id="text_15">
      <!-- 100000 -->
      <g transform="translate(116.825 190.336687)scale(0.1 -0.1)">
       <defs>
        <path d="M 794 531 
L 1825 531 
L 1825 4091 
L 703 3866 
L 703 4441 
L 1819 4666 
L 2450 4666 
L 2450 531 
L 3481 531 
L 3481 0 
L 794 0 
L 794 531 
z
" id="DejaVuSans-31" transform="scale(0.015625)"/>
       </defs>
       <use xlink:href="#DejaVuSans-31"/>
       <use x="63.623047" xlink:href="#DejaVuSans-30"/>
       <use x="127.246094" xlink:href="#DejaVuSans-30"/>
       <use x="190.869141" xlink:href="#DejaVuSans-30"/>
       <use x="254.492188" xlink:href="#DejaVuSans-30"/>
       <use x="318.115234" xlink:href="#DejaVuSans-30"/>
      </g>
     </g>
    </g>
    <g id="text_16">
     <!-- Persons fully vaccinated -->
     <g transform="translate(110.745312 496.922344)rotate(-90)scale(0.1 -0.1)">
      <defs>
       <path d="M 1259 4147 
L 1259 2394 
L 2053 2394 
Q 2494 2394 2734 2622 
Q 2975 2850 2975 3272 
Q 2975 3691 2734 3919 
Q 2494 4147 2053 4147 
L 1259 4147 
z
M 628 4666 
L 2053 4666 
Q 2838 4666 3239 4311 
Q 3641 3956 3641 3272 
Q 3641 2581 3239 2228 
Q 2838 1875 2053 1875 
L 1259 1875 
L 1259 0 
L 628 0 
L 628 4666 
z
" id="DejaVuSans-50" transform="scale(0.015625)"/>
       <path d="M 1959 3097 
Q 1497 3097 1228 2736 
Q 959 2375 959 1747 
Q 959 1119 1226 758 
Q 1494 397 1959 397 
Q 2419 397 2687 759 
Q 2956 1122 2956 1747 
Q 2956 2369 2687 2733 
Q 2419 3097 1959 3097 
z
M 1959 3584 
Q 2709 3584 3137 3096 
Q 3566 2609 3566 1747 
Q 3566 888 3137 398 
Q 2709 -91 1959 -91 
Q 1206 -91 779 398 
Q 353 888 353 1747 
Q 353 2609 779 3096 
Q 1206 3584 1959 3584 
z
" id="DejaVuSans-6f" transform="scale(0.015625)"/>
       <path id="DejaVuSans-20" transform="scale(0.015625)"/>
       <path d="M 2375 4863 
L 2375 4384 
L 1825 4384 
Q 1516 4384 1395 4259 
Q 1275 4134 1275 3809 
L 1275 3500 
L 2222 3500 
L 2222 3053 
L 1275 3053 
L 1275 0 
L 697 0 
L 697 3053 
L 147 3053 
L 147 3500 
L 697 3500 
L 697 3744 
Q 697 4328 969 4595 
Q 1241 4863 1831 4863 
L 2375 4863 
z
" id="DejaVuSans-66" transform="scale(0.015625)"/>
       <path d="M 191 3500 
L 800 3500 
L 1894 563 
L 2988 3500 
L 3597 3500 
L 2284 0 
L 1503 0 
L 191 3500 
z
" id="DejaVuSans-76" transform="scale(0.015625)"/>
       <path d="M 2906 2969 
L 2906 4863 
L 3481 4863 
L 3481 0 
L 2906 0 
L 2906 525 
Q 2725 213 2448 61 
Q 2172 -91 1784 -91 
Q 1150 -91 751 415 
Q 353 922 353 1747 
Q 353 2572 751 3078 
Q 1150 3584 1784 3584 
Q 2172 3584 2448 3432 
Q 2725 3281 2906 2969 
z
M 947 1747 
Q 947 1113 1208 752 
Q 1469 391 1925 391 
Q 2381 391 2643 752 
Q 2906 1113 2906 1747 
Q 2906 2381 2643 2742 
Q 2381 3103 1925 3103 
Q 1469 3103 1208 2742 
Q 947 2381 947 1747 
z
" id="DejaVuSans-64" transform="scale(0.015625)"/>
      </defs>
      <use xlink:href="#DejaVuSans-50"/>
      <use x="56.677734" xlink:href="#DejaVuSans-65"/>
      <use x="118.201172" xlink:href="#DejaVuSans-72"/>
      <use x="159.314453" xlink:href="#DejaVuSans-73"/>
      <use x="211.414062" xlink:href="#DejaVuSans-6f"/>
      <use x="272.595703" xlink:href="#DejaVuSans-6e"/>
      <use x="335.974609" xlink:href="#DejaVuSans-73"/>
      <use x="388.074219" xlink:href="#DejaVuSans-20"/>
      <use x="419.861328" xlink:href="#DejaVuSans-66"/>
      <use x="455.066406" xlink:href="#DejaVuSans-75"/>
      <use x="518.445312" xlink:href="#DejaVuSans-6c"/>
      <use x="546.228516" xlink:href="#DejaVuSans-6c"/>
      <use x="574.011719" xlink:href="#DejaVuSans-79"/>
      <use x="633.191406" xlink:href="#DejaVuSans-20"/>
      <use x="664.978516" xlink:href="#DejaVuSans-76"/>
      <use x="724.158203" xlink:href="#DejaVuSans-61"/>
      <use x="785.4375" xlink:href="#DejaVuSans-63"/>
      <use x="840.417969" xlink:href="#DejaVuSans-63"/>
      <use x="895.398438" xlink:href="#DejaVuSans-69"/>
      <use x="923.181641" xlink:href="#DejaVuSans-6e"/>
      <use x="986.560547" xlink:href="#DejaVuSans-61"/>
      <use x="1047.839844" xlink:href="#DejaVuSans-74"/>
      <use x="1087.048828" xlink:href="#DejaVuSans-65"/>
      <use x="1148.572266" xlink:href="#DejaVuSans-64"/>
     </g>
    </g>
   </g>
   <g id="line2d_16">
    <path clip-path="url(#p7b84a1664a)" d="M 228.579545 743.750257 
L 232.384091 743.509799 
L 236.188636 744.748695 
L 239.993182 741.227535 
L 243.797727 740.333101 
L 247.602273 738.222235 
L 251.406818 733.793328 
L 255.211364 725.74092 
L 259.015909 717.149356 
L 262.820455 710.770997 
L 266.625 704.041521 
L 270.429545 699.449535 
L 274.234091 698.392854 
L 278.038636 698.451096 
L 281.843182 695.949175 
L 285.647727 701.086142 
L 289.452273 700.891447 
L 293.256818 701.455564 
L 297.061364 698.249744 
L 300.865909 698.627487 
L 304.670455 694.482303 
L 308.475 695.224475 
L 312.279545 689.375289 
L 316.084091 679.541501 
L 319.888636 670.407451 
L 323.693182 667.413799 
L 327.497727 663.816092 
L 331.302273 667.903034 
L 335.106818 668.808285 
L 338.911364 664.021604 
L 342.715909 660.165967 
L 346.520455 654.300972 
L 350.325 663.019838 
L 354.129545 650.340499 
L 357.934091 641.960271 
L 361.738636 632.107346 
L 365.543182 609.793074 
L 369.347727 593.132462 
L 373.152273 580.66862 
L 376.956818 550.618945 
L 380.761364 553.759035 
L 384.565909 544.353743 
L 388.370455 534.237063 
L 392.175 540.039656 
L 395.979545 528.703217 
L 399.784091 514.469643 
L 403.588636 508.874226 
L 407.393182 512.835531 
L 411.197727 503.02504 
L 415.002273 491.631191 
L 418.806818 480.998652 
L 422.611364 484.462402 
L 426.415909 477.798656 
L 430.220455 479.013423 
L 434.025 452.884284 
L 437.829545 453.217097 
L 441.634091 459.216881 
L 445.438636 473.92721 
L 449.243182 487.2131 
L 453.047727 506.654364 
L 456.852273 520.29886 
L 460.656818 545.390455 
L 468.265909 569.719076 
L 472.070455 576.32874 
L 475.875 580.571272 
L 479.679545 577.53269 
L 483.484091 564.205199 
L 491.093182 560.98357 
L 494.897727 545.098411 
L 498.702273 536.459421 
L 502.506818 521.620127 
L 506.311364 514.66101 
L 510.115909 513.564392 
L 513.920455 517.840205 
L 517.725 504.288065 
L 521.529545 489.463747 
L 525.334091 462.515889 
L 529.138636 436.39923 
L 532.943182 396.237869 
L 536.747727 374.223129 
L 540.552273 355.84437 
L 544.356818 342.616722 
L 548.161364 337.603728 
L 551.965909 347.128001 
L 555.770455 350.057586 
L 559.575 368.878986 
L 563.379545 379.72203 
L 567.184091 379.806065 
L 570.988636 388.339387 
L 574.793182 382.808037 
L 578.597727 376.526194 
L 582.402273 386.81344 
L 586.206818 400.675928 
L 590.011364 412.620582 
L 593.815909 425.9955 
L 597.620455 431.630022 
L 601.425 447.480235 
L 605.229545 453.417617 
L 609.034091 463.940328 
L 612.838636 476.893405 
L 616.643182 494.974296 
L 620.447727 504.281408 
L 624.252273 517.994131 
L 628.056818 511.541721 
L 631.861364 508.317597 
L 635.665909 517.544002 
L 639.470455 498.794988 
L 643.275 476.13792 
L 647.079545 444.280239 
L 650.884091 433.228356 
L 654.688636 447.181535 
L 658.493182 464.111726 
L 662.297727 465.112661 
L 666.102273 468.553114 
L 669.906818 478.181391 
L 673.711364 503.13154 
L 677.515909 512.947024 
L 681.320455 513.777392 
L 685.125 515.048737 
L 688.929545 501.499925 
L 692.734091 526.020745 
L 696.538636 530.908935 
L 700.343182 531.206802 
L 704.147727 532.96655 
L 707.952273 549.831843 
L 711.756818 561.958712 
L 715.561364 589.173653 
L 719.365909 598.758663 
L 723.170455 609.476902 
L 726.975 612.570398 
L 730.779545 627.01198 
L 734.584091 637.669481 
L 738.388636 647.539047 
L 742.193182 648.557454 
L 745.997727 644.250023 
L 753.606818 625.880417 
L 757.411364 606.441649 
L 761.215909 593.418681 
L 765.020455 576.577517 
L 768.825 580.297533 
L 772.629545 588.731844 
L 776.434091 602.539418 
L 780.238636 608.433534 
L 784.043182 594.517795 
L 787.847727 593.113325 
L 791.652273 605.903324 
L 795.456818 601.962819 
L 799.261364 610.822298 
L 803.065909 603.762505 
L 806.870455 608.441022 
L 810.675 638.500681 
L 814.479545 655.688802 
L 818.284091 660.651874 
L 822.088636 668.726746 
L 829.697727 610.943775 
L 833.502273 615.229573 
L 837.306818 614.897592 
L 841.111364 614.405029 
L 844.915909 617.186512 
L 848.720455 624.595759 
L 852.525 655.273618 
L 856.329545 695.429987 
L 860.134091 695.64798 
L 863.938636 705.831222 
L 867.743182 712.506616 
L 871.547727 713.505887 
L 875.352273 713.178066 
L 879.156818 714.304638 
L 882.961364 714.127415 
L 886.765909 712.262831 
L 890.570455 701.704342 
L 894.375 699.130034 
L 901.984091 705.263776 
L 905.788636 706.851293 
L 909.593182 708.249107 
L 913.397727 709.217593 
L 917.202273 712.959242 
L 921.006818 712.23787 
L 924.811364 711.756123 
L 932.420455 715.704948 
L 936.225 718.818412 
L 940.029545 721.361103 
L 943.834091 724.688399 
L 947.638636 725.21258 
L 951.443182 718.592931 
L 955.247727 717.092777 
L 959.052273 705.986812 
L 962.856818 703.742821 
L 970.465909 698.858792 
L 974.270455 699.339707 
L 978.075 706.979426 
L 981.879545 706.701527 
L 985.684091 715.62008 
L 989.488636 707.555192 
L 993.293182 706.786395 
L 997.097727 706.994403 
L 1000.902273 709.884051 
L 1004.706818 696.102269 
L 1008.511364 685.195991 
L 1016.120455 668.373133 
L 1019.925 658.304711 
L 1023.729545 657.091608 
L 1027.534091 652.355681 
L 1031.338636 664.252909 
L 1035.143182 674.023463 
L 1038.947727 682.215652 
L 1042.752273 695.566441 
L 1046.556818 704.911826 
L 1050.361364 704.763724 
L 1054.165909 704.833615 
L 1057.970455 704.722955 
L 1061.775 703.490715 
L 1065.579545 700.550313 
L 1069.384091 692.295722 
L 1073.188636 669.570427 
L 1076.993182 663.862686 
L 1080.797727 663.961698 
L 1084.602273 664.292015 
L 1088.406818 666.056755 
L 1092.211364 669.12945 
L 1096.015909 678.310093 
L 1099.820455 701.476365 
L 1103.625 710.853368 
L 1107.429545 716.432144 
L 1111.234091 716.0128 
L 1115.038636 716.045249 
L 1118.843182 716.641816 
L 1122.647727 717.3765 
L 1126.452273 717.439735 
L 1130.256818 714.963607 
L 1134.061364 711.176197 
L 1137.865909 713.143121 
L 1141.670455 713.775465 
L 1145.475 713.637348 
L 1149.279545 712.824452 
L 1153.084091 712.423413 
L 1156.888636 713.17557 
L 1160.693182 712.09476 
L 1160.693182 712.09476 
" style="fill:none;stroke:#ffa500;stroke-linecap:square;stroke-width:1.5;"/>
   </g>
   <g id="patch_267">
    <path d="M 162 768.96 
L 162 103.68 
" style="fill:none;stroke:#000000;stroke-linecap:square;stroke-linejoin:miter;stroke-width:0.8;"/>
   </g>
   <g id="patch_268">
    <path d="M 1166.4 768.96 
L 1166.4 103.68 
" style="fill:none;stroke:#000000;stroke-linecap:square;stroke-linejoin:miter;stroke-width:0.8;"/>
   </g>
   <g id="patch_269">
    <path d="M 162 768.96 
L 1166.4 768.96 
" style="fill:none;stroke:#000000;stroke-linecap:square;stroke-linejoin:miter;stroke-width:0.8;"/>
   </g>
   <g id="patch_270">
    <path d="M 162 103.68 
L 1166.4 103.68 
" style="fill:none;stroke:#000000;stroke-linecap:square;stroke-linejoin:miter;stroke-width:0.8;"/>
   </g>
   <g id="text_17">
    <!-- Persons Fully Vaccinated -->
    <g transform="translate(590.380313 97.68)scale(0.12 -0.12)">
     <defs>
      <path d="M 1831 0 
L 50 4666 
L 709 4666 
L 2188 738 
L 3669 4666 
L 4325 4666 
L 2547 0 
L 1831 0 
z
" id="DejaVuSans-56" transform="scale(0.015625)"/>
     </defs>
     <use xlink:href="#DejaVuSans-50"/>
     <use x="56.677734" xlink:href="#DejaVuSans-65"/>
     <use x="118.201172" xlink:href="#DejaVuSans-72"/>
     <use x="159.314453" xlink:href="#DejaVuSans-73"/>
     <use x="211.414062" xlink:href="#DejaVuSans-6f"/>
     <use x="272.595703" xlink:href="#DejaVuSans-6e"/>
     <use x="335.974609" xlink:href="#DejaVuSans-73"/>
     <use x="388.074219" xlink:href="#DejaVuSans-20"/>
     <use x="419.861328" xlink:href="#DejaVuSans-46"/>
     <use x="471.880859" xlink:href="#DejaVuSans-75"/>
     <use x="535.259766" xlink:href="#DejaVuSans-6c"/>
     <use x="563.042969" xlink:href="#DejaVuSans-6c"/>
     <use x="590.826172" xlink:href="#DejaVuSans-79"/>
     <use x="650.005859" xlink:href="#DejaVuSans-20"/>
     <use x="681.792969" xlink:href="#DejaVuSans-56"/>
     <use x="742.451172" xlink:href="#DejaVuSans-61"/>
     <use x="803.730469" xlink:href="#DejaVuSans-63"/>
     <use x="858.710938" xlink:href="#DejaVuSans-63"/>
     <use x="913.691406" xlink:href="#DejaVuSans-69"/>
     <use x="941.474609" xlink:href="#DejaVuSans-6e"/>
     <use x="1004.853516" xlink:href="#DejaVuSans-61"/>
     <use x="1066.132812" xlink:href="#DejaVuSans-74"/>
     <use x="1105.341797" xlink:href="#DejaVuSans-65"/>
     <use x="1166.865234" xlink:href="#DejaVuSans-64"/>
    </g>
   </g>
  </g>
 </g>
 <defs>
  <clipPath id="p7b84a1664a">
   <rect height="665.28" width="1004.4" x="162" y="103.68"/>
  </clipPath>
 </defs>
</svg>
