<?xml version="1.0" encoding="utf-8" standalone="no"?>
<!DOCTYPE svg PUBLIC "-//W3C//DTD SVG 1.1//EN"
  "http://www.w3.org/Graphics/SVG/1.1/DTD/svg11.dtd">
<svg height="864pt" version="1.1" viewBox="0 0 1296 864" width="1296pt" xmlns="http://www.w3.org/2000/svg" xmlns:xlink="http://www.w3.org/1999/xlink">
 <metadata>
  <rdf:RDF xmlns:cc="http://creativecommons.org/ns#" xmlns:dc="http://purl.org/dc/elements/1.1/" xmlns:rdf="http://www.w3.org/1999/02/22-rdf-syntax-ns#">
   <cc:Work>
    <dc:type rdf:resource="http://purl.org/dc/dcmitype/StillImage"/>
    <dc:date>2021-12-09T08:10:49.775627</dc:date>
    <dc:format>image/svg+xml</dc:format>
    <dc:creator>
     <cc:Agent>
      <dc:title>Matplotlib v3.4.2, https://matplotlib.org/</dc:title>
     </cc:Agent>
    </dc:creator>
   </cc:Work>
  </rdf:RDF>
 </metadata>
 <defs>
  <style type="text/css">*{stroke-linecap:butt;stroke-linejoin:round;}</style>
 </defs>
 <g id="figure_1">
  <g id="patch_1">
   <path d="M 0 864 
L 1296 864 
L 1296 0 
L 0 0 
z
" style="fill:#ffffff;"/>
  </g>
  <g id="axes_1">
   <g id="patch_2">
    <path d="M 162 768.96 
L 1166.4 768.96 
L 1166.4 103.68 
L 162 103.68 
z
" style="fill:#ffffff;"/>
   </g>
   <g id="patch_3">
    <path clip-path="url(#pa855f92abb)" d="M 162.742899 768.96 
L 164.228698 768.96 
L 164.228698 768.949359 
L 162.742899 768.949359 
z
" style="fill:#1f77b4;"/>
   </g>
   <g id="patch_4">
    <path clip-path="url(#pa855f92abb)" d="M 165.714497 768.96 
L 167.200296 768.96 
L 167.200296 768.920814 
L 165.714497 768.920814 
z
" style="fill:#1f77b4;"/>
   </g>
   <g id="patch_5">
    <path clip-path="url(#pa855f92abb)" d="M 168.686095 768.96 
L 170.171893 768.96 
L 170.171893 768.720454 
L 168.686095 768.720454 
z
" style="fill:#1f77b4;"/>
   </g>
   <g id="patch_6">
    <path clip-path="url(#pa855f92abb)" d="M 171.657692 768.96 
L 173.143491 768.96 
L 173.143491 767.276478 
L 171.657692 767.276478 
z
" style="fill:#1f77b4;"/>
   </g>
   <g id="patch_7">
    <path clip-path="url(#pa855f92abb)" d="M 174.62929 768.96 
L 176.115089 768.96 
L 176.115089 765.544318 
L 174.62929 765.544318 
z
" style="fill:#1f77b4;"/>
   </g>
   <g id="patch_8">
    <path clip-path="url(#pa855f92abb)" d="M 177.600888 768.96 
L 179.086686 768.96 
L 179.086686 764.599609 
L 177.600888 764.599609 
z
" style="fill:#1f77b4;"/>
   </g>
   <g id="patch_9">
    <path clip-path="url(#pa855f92abb)" d="M 180.572485 768.96 
L 182.058284 768.96 
L 182.058284 764.02621 
L 180.572485 764.02621 
z
" style="fill:#1f77b4;"/>
   </g>
   <g id="patch_10">
    <path clip-path="url(#pa855f92abb)" d="M 183.544083 768.96 
L 185.029882 768.96 
L 185.029882 763.126413 
L 183.544083 763.126413 
z
" style="fill:#1f77b4;"/>
   </g>
   <g id="patch_11">
    <path clip-path="url(#pa855f92abb)" d="M 186.51568 768.96 
L 188.001479 768.96 
L 188.001479 762.269015 
L 186.51568 762.269015 
z
" style="fill:#1f77b4;"/>
   </g>
   <g id="patch_12">
    <path clip-path="url(#pa855f92abb)" d="M 189.487278 768.96 
L 190.973077 768.96 
L 190.973077 761.56947 
L 189.487278 761.56947 
z
" style="fill:#1f77b4;"/>
   </g>
   <g id="patch_13">
    <path clip-path="url(#pa855f92abb)" d="M 192.458876 768.96 
L 193.944675 768.96 
L 193.944675 760.709804 
L 192.458876 760.709804 
z
" style="fill:#1f77b4;"/>
   </g>
   <g id="patch_14">
    <path clip-path="url(#pa855f92abb)" d="M 195.430473 768.96 
L 196.916272 768.96 
L 196.916272 760.532291 
L 195.430473 760.532291 
z
" style="fill:#1f77b4;"/>
   </g>
   <g id="patch_15">
    <path clip-path="url(#pa855f92abb)" d="M 198.402071 768.96 
L 199.88787 768.96 
L 199.88787 760.422807 
L 198.402071 760.422807 
z
" style="fill:#1f77b4;"/>
   </g>
   <g id="patch_16">
    <path clip-path="url(#pa855f92abb)" d="M 201.373669 768.96 
L 202.859467 768.96 
L 202.859467 760.370577 
L 201.373669 760.370577 
z
" style="fill:#1f77b4;"/>
   </g>
   <g id="patch_17">
    <path clip-path="url(#pa855f92abb)" d="M 204.345266 768.96 
L 205.831065 768.96 
L 205.831065 760.131328 
L 204.345266 760.131328 
z
" style="fill:#1f77b4;"/>
   </g>
   <g id="patch_18">
    <path clip-path="url(#pa855f92abb)" d="M 207.316864 768.96 
L 208.802663 768.96 
L 208.802663 759.733794 
L 207.316864 759.733794 
z
" style="fill:#1f77b4;"/>
   </g>
   <g id="patch_19">
    <path clip-path="url(#pa855f92abb)" d="M 210.288462 768.96 
L 211.77426 768.96 
L 211.77426 758.969082 
L 210.288462 758.969082 
z
" style="fill:#1f77b4;"/>
   </g>
   <g id="patch_20">
    <path clip-path="url(#pa855f92abb)" d="M 213.260059 768.96 
L 214.745858 768.96 
L 214.745858 758.203722 
L 213.260059 758.203722 
z
" style="fill:#1f77b4;"/>
   </g>
   <g id="patch_21">
    <path clip-path="url(#pa855f92abb)" d="M 216.231657 768.96 
L 217.717456 768.96 
L 217.717456 757.654251 
L 216.231657 757.654251 
z
" style="fill:#1f77b4;"/>
   </g>
   <g id="patch_22">
    <path clip-path="url(#pa855f92abb)" d="M 219.203254 768.96 
L 220.689053 768.96 
L 220.689053 757.45192 
L 219.203254 757.45192 
z
" style="fill:#1f77b4;"/>
   </g>
   <g id="patch_23">
    <path clip-path="url(#pa855f92abb)" d="M 222.174852 768.96 
L 223.660651 768.96 
L 223.660651 757.17794 
L 222.174852 757.17794 
z
" style="fill:#1f77b4;"/>
   </g>
   <g id="patch_24">
    <path clip-path="url(#pa855f92abb)" d="M 225.14645 768.96 
L 226.632249 768.96 
L 226.632249 756.455331 
L 225.14645 756.455331 
z
" style="fill:#1f77b4;"/>
   </g>
   <g id="patch_25">
    <path clip-path="url(#pa855f92abb)" d="M 228.118047 768.96 
L 229.603846 768.96 
L 229.603846 755.237777 
L 228.118047 755.237777 
z
" style="fill:#1f77b4;"/>
   </g>
   <g id="patch_26">
    <path clip-path="url(#pa855f92abb)" d="M 231.089645 768.96 
L 232.575444 768.96 
L 232.575444 753.558144 
L 231.089645 753.558144 
z
" style="fill:#1f77b4;"/>
   </g>
   <g id="patch_27">
    <path clip-path="url(#pa855f92abb)" d="M 234.061243 768.96 
L 235.547041 768.96 
L 235.547041 752.132479 
L 234.061243 752.132479 
z
" style="fill:#1f77b4;"/>
   </g>
   <g id="patch_28">
    <path clip-path="url(#pa855f92abb)" d="M 237.03284 768.96 
L 238.518639 768.96 
L 238.518639 750.857941 
L 237.03284 750.857941 
z
" style="fill:#1f77b4;"/>
   </g>
   <g id="patch_29">
    <path clip-path="url(#pa855f92abb)" d="M 240.004438 768.96 
L 241.490237 768.96 
L 241.490237 750.155101 
L 240.004438 750.155101 
z
" style="fill:#1f77b4;"/>
   </g>
   <g id="patch_30">
    <path clip-path="url(#pa855f92abb)" d="M 242.976036 768.96 
L 244.461834 768.96 
L 244.461834 749.761322 
L 242.976036 749.761322 
z
" style="fill:#1f77b4;"/>
   </g>
   <g id="patch_31">
    <path clip-path="url(#pa855f92abb)" d="M 245.947633 768.96 
L 247.433432 768.96 
L 247.433432 749.06661 
L 245.947633 749.06661 
z
" style="fill:#1f77b4;"/>
   </g>
   <g id="patch_32">
    <path clip-path="url(#pa855f92abb)" d="M 248.919231 768.96 
L 250.40503 768.96 
L 250.40503 747.572376 
L 248.919231 747.572376 
z
" style="fill:#1f77b4;"/>
   </g>
   <g id="patch_33">
    <path clip-path="url(#pa855f92abb)" d="M 251.890828 768.96 
L 253.376627 768.96 
L 253.376627 746.459958 
L 251.890828 746.459958 
z
" style="fill:#1f77b4;"/>
   </g>
   <g id="patch_34">
    <path clip-path="url(#pa855f92abb)" d="M 254.862426 768.96 
L 256.348225 768.96 
L 256.348225 744.966777 
L 254.862426 744.966777 
z
" style="fill:#1f77b4;"/>
   </g>
   <g id="patch_35">
    <path clip-path="url(#pa855f92abb)" d="M 257.834024 768.96 
L 259.319822 768.96 
L 259.319822 743.772583 
L 257.834024 743.772583 
z
" style="fill:#1f77b4;"/>
   </g>
   <g id="patch_36">
    <path clip-path="url(#pa855f92abb)" d="M 260.805621 768.96 
L 262.29142 768.96 
L 262.29142 742.725061 
L 260.805621 742.725061 
z
" style="fill:#1f77b4;"/>
   </g>
   <g id="patch_37">
    <path clip-path="url(#pa855f92abb)" d="M 263.777219 768.96 
L 265.263018 768.96 
L 265.263018 742.368874 
L 263.777219 742.368874 
z
" style="fill:#1f77b4;"/>
   </g>
   <g id="patch_38">
    <path clip-path="url(#pa855f92abb)" d="M 266.748817 768.96 
L 268.234615 768.96 
L 268.234615 741.16755 
L 266.748817 741.16755 
z
" style="fill:#1f77b4;"/>
   </g>
   <g id="patch_39">
    <path clip-path="url(#pa855f92abb)" d="M 269.720414 768.96 
L 271.206213 768.96 
L 271.206213 739.682147 
L 269.720414 739.682147 
z
" style="fill:#1f77b4;"/>
   </g>
   <g id="patch_40">
    <path clip-path="url(#pa855f92abb)" d="M 272.692012 768.96 
L 274.177811 768.96 
L 274.177811 737.890168 
L 272.692012 737.890168 
z
" style="fill:#1f77b4;"/>
   </g>
   <g id="patch_41">
    <path clip-path="url(#pa855f92abb)" d="M 275.663609 768.96 
L 277.149408 768.96 
L 277.149408 735.330344 
L 275.663609 735.330344 
z
" style="fill:#1f77b4;"/>
   </g>
   <g id="patch_42">
    <path clip-path="url(#pa855f92abb)" d="M 278.635207 768.96 
L 280.121006 768.96 
L 280.121006 733.042204 
L 278.635207 733.042204 
z
" style="fill:#1f77b4;"/>
   </g>
   <g id="patch_43">
    <path clip-path="url(#pa855f92abb)" d="M 281.606805 768.96 
L 283.092604 768.96 
L 283.092604 731.610085 
L 281.606805 731.610085 
z
" style="fill:#1f77b4;"/>
   </g>
   <g id="patch_44">
    <path clip-path="url(#pa855f92abb)" d="M 284.578402 768.96 
L 286.064201 768.96 
L 286.064201 730.838432 
L 284.578402 730.838432 
z
" style="fill:#1f77b4;"/>
   </g>
   <g id="patch_45">
    <path clip-path="url(#pa855f92abb)" d="M 287.55 768.96 
L 289.035799 768.96 
L 289.035799 730.0832 
L 287.55 730.0832 
z
" style="fill:#1f77b4;"/>
   </g>
   <g id="patch_46">
    <path clip-path="url(#pa855f92abb)" d="M 290.521598 768.96 
L 292.007396 768.96 
L 292.007396 728.630258 
L 290.521598 728.630258 
z
" style="fill:#1f77b4;"/>
   </g>
   <g id="patch_47">
    <path clip-path="url(#pa855f92abb)" d="M 293.493195 768.96 
L 294.978994 768.96 
L 294.978994 726.215728 
L 293.493195 726.215728 
z
" style="fill:#1f77b4;"/>
   </g>
   <g id="patch_48">
    <path clip-path="url(#pa855f92abb)" d="M 296.464793 768.96 
L 297.950592 768.96 
L 297.950592 723.073081 
L 296.464793 723.073081 
z
" style="fill:#1f77b4;"/>
   </g>
   <g id="patch_49">
    <path clip-path="url(#pa855f92abb)" d="M 299.436391 768.96 
L 300.922189 768.96 
L 300.922189 720.091067 
L 299.436391 720.091067 
z
" style="fill:#1f77b4;"/>
   </g>
   <g id="patch_50">
    <path clip-path="url(#pa855f92abb)" d="M 302.407988 768.96 
L 303.893787 768.96 
L 303.893787 719.619995 
L 302.407988 719.619995 
z
" style="fill:#1f77b4;"/>
   </g>
   <g id="patch_51">
    <path clip-path="url(#pa855f92abb)" d="M 305.379586 768.96 
L 306.865385 768.96 
L 306.865385 717.432805 
L 305.379586 717.432805 
z
" style="fill:#1f77b4;"/>
   </g>
   <g id="patch_52">
    <path clip-path="url(#pa855f92abb)" d="M 308.351183 768.96 
L 309.836982 768.96 
L 309.836982 715.694379 
L 308.351183 715.694379 
z
" style="fill:#1f77b4;"/>
   </g>
   <g id="patch_53">
    <path clip-path="url(#pa855f92abb)" d="M 311.322781 768.96 
L 312.80858 768.96 
L 312.80858 713.090967 
L 311.322781 713.090967 
z
" style="fill:#1f77b4;"/>
   </g>
   <g id="patch_54">
    <path clip-path="url(#pa855f92abb)" d="M 314.294379 768.96 
L 315.780178 768.96 
L 315.780178 708.103435 
L 314.294379 708.103435 
z
" style="fill:#1f77b4;"/>
   </g>
   <g id="patch_55">
    <path clip-path="url(#pa855f92abb)" d="M 317.265976 768.96 
L 318.751775 768.96 
L 318.751775 702.93766 
L 317.265976 702.93766 
z
" style="fill:#1f77b4;"/>
   </g>
   <g id="patch_56">
    <path clip-path="url(#pa855f92abb)" d="M 320.237574 768.96 
L 321.723373 768.96 
L 321.723373 698.407858 
L 320.237574 698.407858 
z
" style="fill:#1f77b4;"/>
   </g>
   <g id="patch_57">
    <path clip-path="url(#pa855f92abb)" d="M 323.209172 768.96 
L 324.69497 768.96 
L 324.69497 694.483134 
L 323.209172 694.483134 
z
" style="fill:#1f77b4;"/>
   </g>
   <g id="patch_58">
    <path clip-path="url(#pa855f92abb)" d="M 326.180769 768.96 
L 327.666568 768.96 
L 327.666568 692.615672 
L 326.180769 692.615672 
z
" style="fill:#1f77b4;"/>
   </g>
   <g id="patch_59">
    <path clip-path="url(#pa855f92abb)" d="M 329.152367 768.96 
L 330.638166 768.96 
L 330.638166 689.789538 
L 329.152367 689.789538 
z
" style="fill:#1f77b4;"/>
   </g>
   <g id="patch_60">
    <path clip-path="url(#pa855f92abb)" d="M 332.123964 768.96 
L 333.609763 768.96 
L 333.609763 685.955852 
L 332.123964 685.955852 
z
" style="fill:#1f77b4;"/>
   </g>
   <g id="patch_61">
    <path clip-path="url(#pa855f92abb)" d="M 335.095562 768.96 
L 336.581361 768.96 
L 336.581361 681.559758 
L 335.095562 681.559758 
z
" style="fill:#1f77b4;"/>
   </g>
   <g id="patch_62">
    <path clip-path="url(#pa855f92abb)" d="M 338.06716 768.96 
L 339.552959 768.96 
L 339.552959 675.148532 
L 338.06716 675.148532 
z
" style="fill:#1f77b4;"/>
   </g>
   <g id="patch_63">
    <path clip-path="url(#pa855f92abb)" d="M 341.038757 768.96 
L 342.524556 768.96 
L 342.524556 669.12663 
L 341.038757 669.12663 
z
" style="fill:#1f77b4;"/>
   </g>
   <g id="patch_64">
    <path clip-path="url(#pa855f92abb)" d="M 344.010355 768.96 
L 345.496154 768.96 
L 345.496154 664.604498 
L 344.010355 664.604498 
z
" style="fill:#1f77b4;"/>
   </g>
   <g id="patch_65">
    <path clip-path="url(#pa855f92abb)" d="M 346.981953 768.96 
L 348.467751 768.96 
L 348.467751 663.184558 
L 346.981953 663.184558 
z
" style="fill:#1f77b4;"/>
   </g>
   <g id="patch_66">
    <path clip-path="url(#pa855f92abb)" d="M 349.95355 768.96 
L 351.439349 768.96 
L 351.439349 659.304988 
L 349.95355 659.304988 
z
" style="fill:#1f77b4;"/>
   </g>
   <g id="patch_67">
    <path clip-path="url(#pa855f92abb)" d="M 352.925148 768.96 
L 354.410947 768.96 
L 354.410947 654.283886 
L 352.925148 654.283886 
z
" style="fill:#1f77b4;"/>
   </g>
   <g id="patch_68">
    <path clip-path="url(#pa855f92abb)" d="M 355.896746 768.96 
L 357.382544 768.96 
L 357.382544 648.741643 
L 355.896746 648.741643 
z
" style="fill:#1f77b4;"/>
   </g>
   <g id="patch_69">
    <path clip-path="url(#pa855f92abb)" d="M 358.868343 768.96 
L 360.354142 768.96 
L 360.354142 642.80689 
L 358.868343 642.80689 
z
" style="fill:#1f77b4;"/>
   </g>
   <g id="patch_70">
    <path clip-path="url(#pa855f92abb)" d="M 361.839941 768.96 
L 363.32574 768.96 
L 363.32574 636.074316 
L 361.839941 636.074316 
z
" style="fill:#1f77b4;"/>
   </g>
   <g id="patch_71">
    <path clip-path="url(#pa855f92abb)" d="M 364.811538 768.96 
L 366.297337 768.96 
L 366.297337 631.714789 
L 364.811538 631.714789 
z
" style="fill:#1f77b4;"/>
   </g>
   <g id="patch_72">
    <path clip-path="url(#pa855f92abb)" d="M 367.783136 768.96 
L 369.268935 768.96 
L 369.268935 627.389668 
L 367.783136 627.389668 
z
" style="fill:#1f77b4;"/>
   </g>
   <g id="patch_73">
    <path clip-path="url(#pa855f92abb)" d="M 370.754734 768.96 
L 372.240533 768.96 
L 372.240533 623.539157 
L 370.754734 623.539157 
z
" style="fill:#1f77b4;"/>
   </g>
   <g id="patch_74">
    <path clip-path="url(#pa855f92abb)" d="M 373.726331 768.96 
L 375.21213 768.96 
L 375.21213 619.226702 
L 373.726331 619.226702 
z
" style="fill:#1f77b4;"/>
   </g>
   <g id="patch_75">
    <path clip-path="url(#pa855f92abb)" d="M 376.697929 768.96 
L 378.183728 768.96 
L 378.183728 615.375813 
L 376.697929 615.375813 
z
" style="fill:#1f77b4;"/>
   </g>
   <g id="patch_76">
    <path clip-path="url(#pa855f92abb)" d="M 379.669527 768.96 
L 381.155325 768.96 
L 381.155325 610.983068 
L 379.669527 610.983068 
z
" style="fill:#1f77b4;"/>
   </g>
   <g id="patch_77">
    <path clip-path="url(#pa855f92abb)" d="M 382.641124 768.96 
L 384.126923 768.96 
L 384.126923 606.476411 
L 382.641124 606.476411 
z
" style="fill:#1f77b4;"/>
   </g>
   <g id="patch_78">
    <path clip-path="url(#pa855f92abb)" d="M 385.612722 768.96 
L 387.098521 768.96 
L 387.098521 603.793951 
L 385.612722 603.793951 
z
" style="fill:#1f77b4;"/>
   </g>
   <g id="patch_79">
    <path clip-path="url(#pa855f92abb)" d="M 388.58432 768.96 
L 390.070118 768.96 
L 390.070118 602.325373 
L 388.58432 602.325373 
z
" style="fill:#1f77b4;"/>
   </g>
   <g id="patch_80">
    <path clip-path="url(#pa855f92abb)" d="M 391.555917 768.96 
L 393.041716 768.96 
L 393.041716 599.902822 
L 391.555917 599.902822 
z
" style="fill:#1f77b4;"/>
   </g>
   <g id="patch_81">
    <path clip-path="url(#pa855f92abb)" d="M 394.527515 768.96 
L 396.013314 768.96 
L 396.013314 597.007472 
L 394.527515 597.007472 
z
" style="fill:#1f77b4;"/>
   </g>
   <g id="patch_82">
    <path clip-path="url(#pa855f92abb)" d="M 397.499112 768.96 
L 398.984911 768.96 
L 398.984911 593.980654 
L 397.499112 593.980654 
z
" style="fill:#1f77b4;"/>
   </g>
   <g id="patch_83">
    <path clip-path="url(#pa855f92abb)" d="M 400.47071 768.96 
L 401.956509 768.96 
L 401.956509 590.080802 
L 400.47071 590.080802 
z
" style="fill:#1f77b4;"/>
   </g>
   <g id="patch_84">
    <path clip-path="url(#pa855f92abb)" d="M 403.442308 768.96 
L 404.928107 768.96 
L 404.928107 585.240427 
L 403.442308 585.240427 
z
" style="fill:#1f77b4;"/>
   </g>
   <g id="patch_85">
    <path clip-path="url(#pa855f92abb)" d="M 406.413905 768.96 
L 407.899704 768.96 
L 407.899704 581.042074 
L 406.413905 581.042074 
z
" style="fill:#1f77b4;"/>
   </g>
   <g id="patch_86">
    <path clip-path="url(#pa855f92abb)" d="M 409.385503 768.96 
L 410.871302 768.96 
L 410.871302 579.377349 
L 409.385503 579.377349 
z
" style="fill:#1f77b4;"/>
   </g>
   <g id="patch_87">
    <path clip-path="url(#pa855f92abb)" d="M 412.357101 768.96 
L 413.842899 768.96 
L 413.842899 576.812718 
L 412.357101 576.812718 
z
" style="fill:#1f77b4;"/>
   </g>
   <g id="patch_88">
    <path clip-path="url(#pa855f92abb)" d="M 415.328698 768.96 
L 416.814497 768.96 
L 416.814497 572.183911 
L 415.328698 572.183911 
z
" style="fill:#1f77b4;"/>
   </g>
   <g id="patch_89">
    <path clip-path="url(#pa855f92abb)" d="M 418.300296 768.96 
L 419.786095 768.96 
L 419.786095 568.27142 
L 418.300296 568.27142 
z
" style="fill:#1f77b4;"/>
   </g>
   <g id="patch_90">
    <path clip-path="url(#pa855f92abb)" d="M 421.271893 768.96 
L 422.757692 768.96 
L 422.757692 562.826616 
L 421.271893 562.826616 
z
" style="fill:#1f77b4;"/>
   </g>
   <g id="patch_91">
    <path clip-path="url(#pa855f92abb)" d="M 424.243491 768.96 
L 425.72929 768.96 
L 425.72929 557.335226 
L 424.243491 557.335226 
z
" style="fill:#1f77b4;"/>
   </g>
   <g id="patch_92">
    <path clip-path="url(#pa855f92abb)" d="M 427.215089 768.96 
L 428.700888 768.96 
L 428.700888 553.136387 
L 427.215089 553.136387 
z
" style="fill:#1f77b4;"/>
   </g>
   <g id="patch_93">
    <path clip-path="url(#pa855f92abb)" d="M 430.186686 768.96 
L 431.672485 768.96 
L 431.672485 551.97217 
L 430.186686 551.97217 
z
" style="fill:#1f77b4;"/>
   </g>
   <g id="patch_94">
    <path clip-path="url(#pa855f92abb)" d="M 433.158284 768.96 
L 434.644083 768.96 
L 434.644083 547.99689 
L 433.158284 547.99689 
z
" style="fill:#1f77b4;"/>
   </g>
   <g id="patch_95">
    <path clip-path="url(#pa855f92abb)" d="M 436.129882 768.96 
L 437.61568 768.96 
L 437.61568 541.919381 
L 436.129882 541.919381 
z
" style="fill:#1f77b4;"/>
   </g>
   <g id="patch_96">
    <path clip-path="url(#pa855f92abb)" d="M 439.101479 768.96 
L 440.587278 768.96 
L 440.587278 535.18073 
L 439.101479 535.18073 
z
" style="fill:#1f77b4;"/>
   </g>
   <g id="patch_97">
    <path clip-path="url(#pa855f92abb)" d="M 442.073077 768.96 
L 443.558876 768.96 
L 443.558876 527.113393 
L 442.073077 527.113393 
z
" style="fill:#1f77b4;"/>
   </g>
   <g id="patch_98">
    <path clip-path="url(#pa855f92abb)" d="M 445.044675 768.96 
L 446.530473 768.96 
L 446.530473 517.586175 
L 445.044675 517.586175 
z
" style="fill:#1f77b4;"/>
   </g>
   <g id="patch_99">
    <path clip-path="url(#pa855f92abb)" d="M 448.016272 768.96 
L 449.502071 768.96 
L 449.502071 511.281705 
L 448.016272 511.281705 
z
" style="fill:#1f77b4;"/>
   </g>
   <g id="patch_100">
    <path clip-path="url(#pa855f92abb)" d="M 450.98787 768.96 
L 452.473669 768.96 
L 452.473669 508.241033 
L 450.98787 508.241033 
z
" style="fill:#1f77b4;"/>
   </g>
   <g id="patch_101">
    <path clip-path="url(#pa855f92abb)" d="M 453.959467 768.96 
L 455.445266 768.96 
L 455.445266 503.033696 
L 453.959467 503.033696 
z
" style="fill:#1f77b4;"/>
   </g>
   <g id="patch_102">
    <path clip-path="url(#pa855f92abb)" d="M 456.931065 768.96 
L 458.416864 768.96 
L 458.416864 496.57159 
L 456.931065 496.57159 
z
" style="fill:#1f77b4;"/>
   </g>
   <g id="patch_103">
    <path clip-path="url(#pa855f92abb)" d="M 459.902663 768.96 
L 461.388462 768.96 
L 461.388462 490.995994 
L 459.902663 490.995994 
z
" style="fill:#1f77b4;"/>
   </g>
   <g id="patch_104">
    <path clip-path="url(#pa855f92abb)" d="M 462.87426 768.96 
L 464.360059 768.96 
L 464.360059 483.399378 
L 462.87426 483.399378 
z
" style="fill:#1f77b4;"/>
   </g>
   <g id="patch_105">
    <path clip-path="url(#pa855f92abb)" d="M 465.845858 768.96 
L 467.331657 768.96 
L 467.331657 476.003851 
L 465.845858 476.003851 
z
" style="fill:#1f77b4;"/>
   </g>
   <g id="patch_106">
    <path clip-path="url(#pa855f92abb)" d="M 468.817456 768.96 
L 470.303254 768.96 
L 470.303254 470.877506 
L 468.817456 470.877506 
z
" style="fill:#1f77b4;"/>
   </g>
   <g id="patch_107">
    <path clip-path="url(#pa855f92abb)" d="M 471.789053 768.96 
L 473.274852 768.96 
L 473.274852 467.880126 
L 471.789053 467.880126 
z
" style="fill:#1f77b4;"/>
   </g>
   <g id="patch_108">
    <path clip-path="url(#pa855f92abb)" d="M 474.760651 768.96 
L 476.24645 768.96 
L 476.24645 463.602158 
L 474.760651 463.602158 
z
" style="fill:#1f77b4;"/>
   </g>
   <g id="patch_109">
    <path clip-path="url(#pa855f92abb)" d="M 477.732249 768.96 
L 479.218047 768.96 
L 479.218047 456.760667 
L 477.732249 456.760667 
z
" style="fill:#1f77b4;"/>
   </g>
   <g id="patch_110">
    <path clip-path="url(#pa855f92abb)" d="M 480.703846 768.96 
L 482.189645 768.96 
L 482.189645 450.711514 
L 480.703846 450.711514 
z
" style="fill:#1f77b4;"/>
   </g>
   <g id="patch_111">
    <path clip-path="url(#pa855f92abb)" d="M 483.675444 768.96 
L 485.161243 768.96 
L 485.161243 444.35927 
L 483.675444 444.35927 
z
" style="fill:#1f77b4;"/>
   </g>
   <g id="patch_112">
    <path clip-path="url(#pa855f92abb)" d="M 486.647041 768.96 
L 488.13284 768.96 
L 488.13284 438.538808 
L 486.647041 438.538808 
z
" style="fill:#1f77b4;"/>
   </g>
   <g id="patch_113">
    <path clip-path="url(#pa855f92abb)" d="M 489.618639 768.96 
L 491.104438 768.96 
L 491.104438 434.729103 
L 489.618639 434.729103 
z
" style="fill:#1f77b4;"/>
   </g>
   <g id="patch_114">
    <path clip-path="url(#pa855f92abb)" d="M 492.590237 768.96 
L 494.076036 768.96 
L 494.076036 433.159143 
L 492.590237 433.159143 
z
" style="fill:#1f77b4;"/>
   </g>
   <g id="patch_115">
    <path clip-path="url(#pa855f92abb)" d="M 495.561834 768.96 
L 497.047633 768.96 
L 497.047633 429.540049 
L 495.561834 429.540049 
z
" style="fill:#1f77b4;"/>
   </g>
   <g id="patch_116">
    <path clip-path="url(#pa855f92abb)" d="M 498.533432 768.96 
L 500.019231 768.96 
L 500.019231 424.378623 
L 498.533432 424.378623 
z
" style="fill:#1f77b4;"/>
   </g>
   <g id="patch_117">
    <path clip-path="url(#pa855f92abb)" d="M 501.50503 768.96 
L 502.990828 768.96 
L 502.990828 419.013947 
L 501.50503 419.013947 
z
" style="fill:#1f77b4;"/>
   </g>
   <g id="patch_118">
    <path clip-path="url(#pa855f92abb)" d="M 504.476627 768.96 
L 505.962426 768.96 
L 505.962426 413.824137 
L 504.476627 413.824137 
z
" style="fill:#1f77b4;"/>
   </g>
   <g id="patch_119">
    <path clip-path="url(#pa855f92abb)" d="M 507.448225 768.96 
L 508.934024 768.96 
L 508.934024 409.35202 
L 507.448225 409.35202 
z
" style="fill:#1f77b4;"/>
   </g>
   <g id="patch_120">
    <path clip-path="url(#pa855f92abb)" d="M 510.419822 768.96 
L 511.905621 768.96 
L 511.905621 407.359006 
L 510.419822 407.359006 
z
" style="fill:#1f77b4;"/>
   </g>
   <g id="patch_121">
    <path clip-path="url(#pa855f92abb)" d="M 513.39142 768.96 
L 514.877219 768.96 
L 514.877219 406.712015 
L 513.39142 406.712015 
z
" style="fill:#1f77b4;"/>
   </g>
   <g id="patch_122">
    <path clip-path="url(#pa855f92abb)" d="M 516.363018 768.96 
L 517.848817 768.96 
L 517.848817 404.49925 
L 516.363018 404.49925 
z
" style="fill:#1f77b4;"/>
   </g>
   <g id="patch_123">
    <path clip-path="url(#pa855f92abb)" d="M 519.334615 768.96 
L 520.820414 768.96 
L 520.820414 398.719378 
L 519.334615 398.719378 
z
" style="fill:#1f77b4;"/>
   </g>
   <g id="patch_124">
    <path clip-path="url(#pa855f92abb)" d="M 522.306213 768.96 
L 523.792012 768.96 
L 523.792012 393.130522 
L 522.306213 393.130522 
z
" style="fill:#1f77b4;"/>
   </g>
   <g id="patch_125">
    <path clip-path="url(#pa855f92abb)" d="M 525.277811 768.96 
L 526.763609 768.96 
L 526.763609 388.924229 
L 525.277811 388.924229 
z
" style="fill:#1f77b4;"/>
   </g>
   <g id="patch_126">
    <path clip-path="url(#pa855f92abb)" d="M 528.249408 768.96 
L 529.735207 768.96 
L 529.735207 383.115677 
L 528.249408 383.115677 
z
" style="fill:#1f77b4;"/>
   </g>
   <g id="patch_127">
    <path clip-path="url(#pa855f92abb)" d="M 531.221006 768.96 
L 532.706805 768.96 
L 532.706805 379.122248 
L 531.221006 379.122248 
z
" style="fill:#1f77b4;"/>
   </g>
   <g id="patch_128">
    <path clip-path="url(#pa855f92abb)" d="M 534.192604 768.96 
L 535.678402 768.96 
L 535.678402 375.400287 
L 534.192604 375.400287 
z
" style="fill:#1f77b4;"/>
   </g>
   <g id="patch_129">
    <path clip-path="url(#pa855f92abb)" d="M 537.164201 768.96 
L 538.65 768.96 
L 538.65 372.019254 
L 537.164201 372.019254 
z
" style="fill:#1f77b4;"/>
   </g>
   <g id="patch_130">
    <path clip-path="url(#pa855f92abb)" d="M 540.135799 768.96 
L 541.621598 768.96 
L 541.621598 367.714145 
L 540.135799 367.714145 
z
" style="fill:#1f77b4;"/>
   </g>
   <g id="patch_131">
    <path clip-path="url(#pa855f92abb)" d="M 543.107396 768.96 
L 544.593195 768.96 
L 544.593195 363.796307 
L 543.107396 363.796307 
z
" style="fill:#1f77b4;"/>
   </g>
   <g id="patch_132">
    <path clip-path="url(#pa855f92abb)" d="M 546.078994 768.96 
L 547.564793 768.96 
L 547.564793 359.737064 
L 546.078994 359.737064 
z
" style="fill:#1f77b4;"/>
   </g>
   <g id="patch_133">
    <path clip-path="url(#pa855f92abb)" d="M 549.050592 768.96 
L 550.536391 768.96 
L 550.536391 353.850922 
L 549.050592 353.850922 
z
" style="fill:#1f77b4;"/>
   </g>
   <g id="patch_134">
    <path clip-path="url(#pa855f92abb)" d="M 552.022189 768.96 
L 553.507988 768.96 
L 553.507988 350.615102 
L 552.022189 350.615102 
z
" style="fill:#1f77b4;"/>
   </g>
   <g id="patch_135">
    <path clip-path="url(#pa855f92abb)" d="M 554.993787 768.96 
L 556.479586 768.96 
L 556.479586 349.32644 
L 554.993787 349.32644 
z
" style="fill:#1f77b4;"/>
   </g>
   <g id="patch_136">
    <path clip-path="url(#pa855f92abb)" d="M 557.965385 768.96 
L 559.451183 768.96 
L 559.451183 347.043864 
L 557.965385 347.043864 
z
" style="fill:#1f77b4;"/>
   </g>
   <g id="patch_137">
    <path clip-path="url(#pa855f92abb)" d="M 560.936982 768.96 
L 562.422781 768.96 
L 562.422781 342.813373 
L 560.936982 342.813373 
z
" style="fill:#1f77b4;"/>
   </g>
   <g id="patch_138">
    <path clip-path="url(#pa855f92abb)" d="M 563.90858 768.96 
L 565.394379 768.96 
L 565.394379 339.065324 
L 563.90858 339.065324 
z
" style="fill:#1f77b4;"/>
   </g>
   <g id="patch_139">
    <path clip-path="url(#pa855f92abb)" d="M 566.880178 768.96 
L 568.365976 768.96 
L 568.365976 333.672534 
L 566.880178 333.672534 
z
" style="fill:#1f77b4;"/>
   </g>
   <g id="patch_140">
    <path clip-path="url(#pa855f92abb)" d="M 569.851775 768.96 
L 571.337574 768.96 
L 571.337574 330.166786 
L 569.851775 330.166786 
z
" style="fill:#1f77b4;"/>
   </g>
   <g id="patch_141">
    <path clip-path="url(#pa855f92abb)" d="M 572.823373 768.96 
L 574.309172 768.96 
L 574.309172 327.404604 
L 572.823373 327.404604 
z
" style="fill:#1f77b4;"/>
   </g>
   <g id="patch_142">
    <path clip-path="url(#pa855f92abb)" d="M 575.79497 768.96 
L 577.280769 768.96 
L 577.280769 326.149754 
L 575.79497 326.149754 
z
" style="fill:#1f77b4;"/>
   </g>
   <g id="patch_143">
    <path clip-path="url(#pa855f92abb)" d="M 578.766568 768.96 
L 580.252367 768.96 
L 580.252367 324.039505 
L 578.766568 324.039505 
z
" style="fill:#1f77b4;"/>
   </g>
   <g id="patch_144">
    <path clip-path="url(#pa855f92abb)" d="M 581.738166 768.96 
L 583.223964 768.96 
L 583.223964 321.460804 
L 581.738166 321.460804 
z
" style="fill:#1f77b4;"/>
   </g>
   <g id="patch_145">
    <path clip-path="url(#pa855f92abb)" d="M 584.709763 768.96 
L 586.195562 768.96 
L 586.195562 318.910054 
L 584.709763 318.910054 
z
" style="fill:#1f77b4;"/>
   </g>
   <g id="patch_146">
    <path clip-path="url(#pa855f92abb)" d="M 587.681361 768.96 
L 589.16716 768.96 
L 589.16716 316.168801 
L 587.681361 316.168801 
z
" style="fill:#1f77b4;"/>
   </g>
   <g id="patch_147">
    <path clip-path="url(#pa855f92abb)" d="M 590.652959 768.96 
L 592.138757 768.96 
L 592.138757 313.625479 
L 590.652959 313.625479 
z
" style="fill:#1f77b4;"/>
   </g>
   <g id="patch_148">
    <path clip-path="url(#pa855f92abb)" d="M 593.624556 768.96 
L 595.110355 768.96 
L 595.110355 311.888295 
L 593.624556 311.888295 
z
" style="fill:#1f77b4;"/>
   </g>
   <g id="patch_149">
    <path clip-path="url(#pa855f92abb)" d="M 596.596154 768.96 
L 598.081953 768.96 
L 598.081953 310.912826 
L 596.596154 310.912826 
z
" style="fill:#1f77b4;"/>
   </g>
   <g id="patch_150">
    <path clip-path="url(#pa855f92abb)" d="M 599.567751 768.96 
L 601.05355 768.96 
L 601.05355 310.208014 
L 599.567751 310.208014 
z
" style="fill:#1f77b4;"/>
   </g>
   <g id="patch_151">
    <path clip-path="url(#pa855f92abb)" d="M 602.539349 768.96 
L 604.025148 768.96 
L 604.025148 308.689258 
L 602.539349 308.689258 
z
" style="fill:#1f77b4;"/>
   </g>
   <g id="patch_152">
    <path clip-path="url(#pa855f92abb)" d="M 605.510947 768.96 
L 606.996746 768.96 
L 606.996746 307.10539 
L 605.510947 307.10539 
z
" style="fill:#1f77b4;"/>
   </g>
   <g id="patch_153">
    <path clip-path="url(#pa855f92abb)" d="M 608.482544 768.96 
L 609.968343 768.96 
L 609.968343 304.657399 
L 608.482544 304.657399 
z
" style="fill:#1f77b4;"/>
   </g>
   <g id="patch_154">
    <path clip-path="url(#pa855f92abb)" d="M 611.454142 768.96 
L 612.939941 768.96 
L 612.939941 302.006969 
L 611.454142 302.006969 
z
" style="fill:#1f77b4;"/>
   </g>
   <g id="patch_155">
    <path clip-path="url(#pa855f92abb)" d="M 614.42574 768.96 
L 615.911538 768.96 
L 615.911538 299.718208 
L 614.42574 299.718208 
z
" style="fill:#1f77b4;"/>
   </g>
   <g id="patch_156">
    <path clip-path="url(#pa855f92abb)" d="M 617.397337 768.96 
L 618.883136 768.96 
L 618.883136 298.118919 
L 617.397337 298.118919 
z
" style="fill:#1f77b4;"/>
   </g>
   <g id="patch_157">
    <path clip-path="url(#pa855f92abb)" d="M 620.368935 768.96 
L 621.854734 768.96 
L 621.854734 295.922412 
L 620.368935 295.922412 
z
" style="fill:#1f77b4;"/>
   </g>
   <g id="patch_158">
    <path clip-path="url(#pa855f92abb)" d="M 623.340533 768.96 
L 624.826331 768.96 
L 624.826331 293.44115 
L 623.340533 293.44115 
z
" style="fill:#1f77b4;"/>
   </g>
   <g id="patch_159">
    <path clip-path="url(#pa855f92abb)" d="M 626.31213 768.96 
L 627.797929 768.96 
L 627.797929 290.44863 
L 626.31213 290.44863 
z
" style="fill:#1f77b4;"/>
   </g>
   <g id="patch_160">
    <path clip-path="url(#pa855f92abb)" d="M 629.283728 768.96 
L 630.769527 768.96 
L 630.769527 288.392367 
L 629.283728 288.392367 
z
" style="fill:#1f77b4;"/>
   </g>
   <g id="patch_161">
    <path clip-path="url(#pa855f92abb)" d="M 632.255325 768.96 
L 633.741124 768.96 
L 633.741124 286.440429 
L 632.255325 286.440429 
z
" style="fill:#1f77b4;"/>
   </g>
   <g id="patch_162">
    <path clip-path="url(#pa855f92abb)" d="M 635.226923 768.96 
L 636.712722 768.96 
L 636.712722 285.257308 
L 635.226923 285.257308 
z
" style="fill:#1f77b4;"/>
   </g>
   <g id="patch_163">
    <path clip-path="url(#pa855f92abb)" d="M 638.198521 768.96 
L 639.68432 768.96 
L 639.68432 284.096953 
L 638.198521 284.096953 
z
" style="fill:#1f77b4;"/>
   </g>
   <g id="patch_164">
    <path clip-path="url(#pa855f92abb)" d="M 641.170118 768.96 
L 642.655917 768.96 
L 642.655917 280.607814 
L 641.170118 280.607814 
z
" style="fill:#1f77b4;"/>
   </g>
   <g id="patch_165">
    <path clip-path="url(#pa855f92abb)" d="M 644.141716 768.96 
L 645.627515 768.96 
L 645.627515 277.92268 
L 644.141716 277.92268 
z
" style="fill:#1f77b4;"/>
   </g>
   <g id="patch_166">
    <path clip-path="url(#pa855f92abb)" d="M 647.113314 768.96 
L 648.599112 768.96 
L 648.599112 276.071773 
L 647.113314 276.071773 
z
" style="fill:#1f77b4;"/>
   </g>
   <g id="patch_167">
    <path clip-path="url(#pa855f92abb)" d="M 650.084911 768.96 
L 651.57071 768.96 
L 651.57071 273.62543 
L 650.084911 273.62543 
z
" style="fill:#1f77b4;"/>
   </g>
   <g id="patch_168">
    <path clip-path="url(#pa855f92abb)" d="M 653.056509 768.96 
L 654.542308 768.96 
L 654.542308 272.467587 
L 653.056509 272.467587 
z
" style="fill:#1f77b4;"/>
   </g>
   <g id="patch_169">
    <path clip-path="url(#pa855f92abb)" d="M 656.028107 768.96 
L 657.513905 768.96 
L 657.513905 270.639176 
L 656.028107 270.639176 
z
" style="fill:#1f77b4;"/>
   </g>
   <g id="patch_170">
    <path clip-path="url(#pa855f92abb)" d="M 658.999704 768.96 
L 660.485503 768.96 
L 660.485503 269.864418 
L 658.999704 269.864418 
z
" style="fill:#1f77b4;"/>
   </g>
   <g id="patch_171">
    <path clip-path="url(#pa855f92abb)" d="M 661.971302 768.96 
L 663.457101 768.96 
L 663.457101 268.880901 
L 661.971302 268.880901 
z
" style="fill:#1f77b4;"/>
   </g>
   <g id="patch_172">
    <path clip-path="url(#pa855f92abb)" d="M 664.942899 768.96 
L 666.428698 768.96 
L 666.428698 267.688111 
L 664.942899 267.688111 
z
" style="fill:#1f77b4;"/>
   </g>
   <g id="patch_173">
    <path clip-path="url(#pa855f92abb)" d="M 667.914497 768.96 
L 669.400296 768.96 
L 669.400296 266.267091 
L 667.914497 266.267091 
z
" style="fill:#1f77b4;"/>
   </g>
   <g id="patch_174">
    <path clip-path="url(#pa855f92abb)" d="M 670.886095 768.96 
L 672.371893 768.96 
L 672.371893 264.537659 
L 670.886095 264.537659 
z
" style="fill:#1f77b4;"/>
   </g>
   <g id="patch_175">
    <path clip-path="url(#pa855f92abb)" d="M 673.857692 768.96 
L 675.343491 768.96 
L 675.343491 260.511741 
L 673.857692 260.511741 
z
" style="fill:#1f77b4;"/>
   </g>
   <g id="patch_176">
    <path clip-path="url(#pa855f92abb)" d="M 676.82929 768.96 
L 678.315089 768.96 
L 678.315089 255.836591 
L 676.82929 255.836591 
z
" style="fill:#1f77b4;"/>
   </g>
   <g id="patch_177">
    <path clip-path="url(#pa855f92abb)" d="M 679.800888 768.96 
L 681.286686 768.96 
L 681.286686 255.448105 
L 679.800888 255.448105 
z
" style="fill:#1f77b4;"/>
   </g>
   <g id="patch_178">
    <path clip-path="url(#pa855f92abb)" d="M 682.772485 768.96 
L 684.258284 768.96 
L 684.258284 254.465965 
L 682.772485 254.465965 
z
" style="fill:#1f77b4;"/>
   </g>
   <g id="patch_179">
    <path clip-path="url(#pa855f92abb)" d="M 685.744083 768.96 
L 687.229882 768.96 
L 687.229882 253.243604 
L 685.744083 253.243604 
z
" style="fill:#1f77b4;"/>
   </g>
   <g id="patch_180">
    <path clip-path="url(#pa855f92abb)" d="M 688.71568 768.96 
L 690.201479 768.96 
L 690.201479 252.06853 
L 688.71568 252.06853 
z
" style="fill:#1f77b4;"/>
   </g>
   <g id="patch_181">
    <path clip-path="url(#pa855f92abb)" d="M 691.687278 768.96 
L 693.173077 768.96 
L 693.173077 251.002995 
L 691.687278 251.002995 
z
" style="fill:#1f77b4;"/>
   </g>
   <g id="patch_182">
    <path clip-path="url(#pa855f92abb)" d="M 694.658876 768.96 
L 696.144675 768.96 
L 696.144675 249.941997 
L 694.658876 249.941997 
z
" style="fill:#1f77b4;"/>
   </g>
   <g id="patch_183">
    <path clip-path="url(#pa855f92abb)" d="M 697.630473 768.96 
L 699.116272 768.96 
L 699.116272 249.156841 
L 697.630473 249.156841 
z
" style="fill:#1f77b4;"/>
   </g>
   <g id="patch_184">
    <path clip-path="url(#pa855f92abb)" d="M 700.602071 768.96 
L 702.08787 768.96 
L 702.08787 248.773918 
L 700.602071 248.773918 
z
" style="fill:#1f77b4;"/>
   </g>
   <g id="patch_185">
    <path clip-path="url(#pa855f92abb)" d="M 703.573669 768.96 
L 705.059467 768.96 
L 705.059467 248.705646 
L 703.573669 248.705646 
z
" style="fill:#1f77b4;"/>
   </g>
   <g id="patch_186">
    <path clip-path="url(#pa855f92abb)" d="M 706.545266 768.96 
L 708.031065 768.96 
L 708.031065 248.087822 
L 706.545266 248.087822 
z
" style="fill:#1f77b4;"/>
   </g>
   <g id="patch_187">
    <path clip-path="url(#pa855f92abb)" d="M 709.516864 768.96 
L 711.002663 768.96 
L 711.002663 246.987205 
L 709.516864 246.987205 
z
" style="fill:#1f77b4;"/>
   </g>
   <g id="patch_188">
    <path clip-path="url(#pa855f92abb)" d="M 712.488462 768.96 
L 713.97426 768.96 
L 713.97426 245.881646 
L 712.488462 245.881646 
z
" style="fill:#1f77b4;"/>
   </g>
   <g id="patch_189">
    <path clip-path="url(#pa855f92abb)" d="M 715.460059 768.96 
L 716.945858 768.96 
L 716.945858 244.899452 
L 715.460059 244.899452 
z
" style="fill:#1f77b4;"/>
   </g>
   <g id="patch_190">
    <path clip-path="url(#pa855f92abb)" d="M 718.431657 768.96 
L 719.917456 768.96 
L 719.917456 244.08756 
L 718.431657 244.08756 
z
" style="fill:#1f77b4;"/>
   </g>
   <g id="patch_191">
    <path clip-path="url(#pa855f92abb)" d="M 721.403254 768.96 
L 722.889053 768.96 
L 722.889053 243.534308 
L 721.403254 243.534308 
z
" style="fill:#1f77b4;"/>
   </g>
   <g id="patch_192">
    <path clip-path="url(#pa855f92abb)" d="M 724.374852 768.96 
L 725.860651 768.96 
L 725.860651 242.492835 
L 724.374852 242.492835 
z
" style="fill:#1f77b4;"/>
   </g>
   <g id="patch_193">
    <path clip-path="url(#pa855f92abb)" d="M 727.34645 768.96 
L 728.832249 768.96 
L 728.832249 241.626877 
L 727.34645 241.626877 
z
" style="fill:#1f77b4;"/>
   </g>
   <g id="patch_194">
    <path clip-path="url(#pa855f92abb)" d="M 730.318047 768.96 
L 731.803846 768.96 
L 731.803846 240.798322 
L 730.318047 240.798322 
z
" style="fill:#1f77b4;"/>
   </g>
   <g id="patch_195">
    <path clip-path="url(#pa855f92abb)" d="M 733.289645 768.96 
L 734.775444 768.96 
L 734.775444 239.977464 
L 733.289645 239.977464 
z
" style="fill:#1f77b4;"/>
   </g>
   <g id="patch_196">
    <path clip-path="url(#pa855f92abb)" d="M 736.261243 768.96 
L 737.747041 768.96 
L 737.747041 239.14872 
L 736.261243 239.14872 
z
" style="fill:#1f77b4;"/>
   </g>
   <g id="patch_197">
    <path clip-path="url(#pa855f92abb)" d="M 739.23284 768.96 
L 740.718639 768.96 
L 740.718639 238.464595 
L 739.23284 238.464595 
z
" style="fill:#1f77b4;"/>
   </g>
   <g id="patch_198">
    <path clip-path="url(#pa855f92abb)" d="M 742.204438 768.96 
L 743.690237 768.96 
L 743.690237 237.999627 
L 742.204438 237.999627 
z
" style="fill:#1f77b4;"/>
   </g>
   <g id="patch_199">
    <path clip-path="url(#pa855f92abb)" d="M 745.176036 768.96 
L 746.661834 768.96 
L 746.661834 237.300352 
L 745.176036 237.300352 
z
" style="fill:#1f77b4;"/>
   </g>
   <g id="patch_200">
    <path clip-path="url(#pa855f92abb)" d="M 748.147633 768.96 
L 749.633432 768.96 
L 749.633432 236.367795 
L 748.147633 236.367795 
z
" style="fill:#1f77b4;"/>
   </g>
   <g id="patch_201">
    <path clip-path="url(#pa855f92abb)" d="M 751.119231 768.96 
L 752.60503 768.96 
L 752.60503 235.493087 
L 751.119231 235.493087 
z
" style="fill:#1f77b4;"/>
   </g>
   <g id="patch_202">
    <path clip-path="url(#pa855f92abb)" d="M 754.090828 768.96 
L 755.576627 768.96 
L 755.576627 234.860139 
L 754.090828 234.860139 
z
" style="fill:#1f77b4;"/>
   </g>
   <g id="patch_203">
    <path clip-path="url(#pa855f92abb)" d="M 757.062426 768.96 
L 758.548225 768.96 
L 758.548225 234.204641 
L 757.062426 234.204641 
z
" style="fill:#1f77b4;"/>
   </g>
   <g id="patch_204">
    <path clip-path="url(#pa855f92abb)" d="M 760.034024 768.96 
L 761.519822 768.96 
L 761.519822 233.801436 
L 760.034024 233.801436 
z
" style="fill:#1f77b4;"/>
   </g>
   <g id="patch_205">
    <path clip-path="url(#pa855f92abb)" d="M 763.005621 768.96 
L 764.49142 768.96 
L 764.49142 233.568128 
L 763.005621 233.568128 
z
" style="fill:#1f77b4;"/>
   </g>
   <g id="patch_206">
    <path clip-path="url(#pa855f92abb)" d="M 765.977219 768.96 
L 767.463018 768.96 
L 767.463018 233.17154 
L 765.977219 233.17154 
z
" style="fill:#1f77b4;"/>
   </g>
   <g id="patch_207">
    <path clip-path="url(#pa855f92abb)" d="M 768.948817 768.96 
L 770.434615 768.96 
L 770.434615 232.282977 
L 768.948817 232.282977 
z
" style="fill:#1f77b4;"/>
   </g>
   <g id="patch_208">
    <path clip-path="url(#pa855f92abb)" d="M 771.920414 768.96 
L 773.406213 768.96 
L 773.406213 230.804488 
L 771.920414 230.804488 
z
" style="fill:#1f77b4;"/>
   </g>
   <g id="patch_209">
    <path clip-path="url(#pa855f92abb)" d="M 774.892012 768.96 
L 776.377811 768.96 
L 776.377811 230.024571 
L 774.892012 230.024571 
z
" style="fill:#1f77b4;"/>
   </g>
   <g id="patch_210">
    <path clip-path="url(#pa855f92abb)" d="M 777.863609 768.96 
L 779.349408 768.96 
L 779.349408 228.181037 
L 777.863609 228.181037 
z
" style="fill:#1f77b4;"/>
   </g>
   <g id="patch_211">
    <path clip-path="url(#pa855f92abb)" d="M 780.835207 768.96 
L 782.321006 768.96 
L 782.321006 227.576662 
L 780.835207 227.576662 
z
" style="fill:#1f77b4;"/>
   </g>
   <g id="patch_212">
    <path clip-path="url(#pa855f92abb)" d="M 783.806805 768.96 
L 785.292604 768.96 
L 785.292604 227.130949 
L 783.806805 227.130949 
z
" style="fill:#1f77b4;"/>
   </g>
   <g id="patch_213">
    <path clip-path="url(#pa855f92abb)" d="M 786.778402 768.96 
L 788.264201 768.96 
L 788.264201 226.522631 
L 786.778402 226.522631 
z
" style="fill:#1f77b4;"/>
   </g>
   <g id="patch_214">
    <path clip-path="url(#pa855f92abb)" d="M 789.75 768.96 
L 791.235799 768.96 
L 791.235799 225.693131 
L 789.75 225.693131 
z
" style="fill:#1f77b4;"/>
   </g>
   <g id="patch_215">
    <path clip-path="url(#pa855f92abb)" d="M 792.721598 768.96 
L 794.207396 768.96 
L 794.207396 224.934496 
L 792.721598 224.934496 
z
" style="fill:#1f77b4;"/>
   </g>
   <g id="patch_216">
    <path clip-path="url(#pa855f92abb)" d="M 795.693195 768.96 
L 797.178994 768.96 
L 797.178994 224.139213 
L 795.693195 224.139213 
z
" style="fill:#1f77b4;"/>
   </g>
   <g id="patch_217">
    <path clip-path="url(#pa855f92abb)" d="M 798.664793 768.96 
L 800.150592 768.96 
L 800.150592 223.274037 
L 798.664793 223.274037 
z
" style="fill:#1f77b4;"/>
   </g>
   <g id="patch_218">
    <path clip-path="url(#pa855f92abb)" d="M 801.636391 768.96 
L 803.122189 768.96 
L 803.122189 221.790444 
L 801.636391 221.790444 
z
" style="fill:#1f77b4;"/>
   </g>
   <g id="patch_219">
    <path clip-path="url(#pa855f92abb)" d="M 804.607988 768.96 
L 806.093787 768.96 
L 806.093787 221.27446 
L 804.607988 221.27446 
z
" style="fill:#1f77b4;"/>
   </g>
   <g id="patch_220">
    <path clip-path="url(#pa855f92abb)" d="M 807.579586 768.96 
L 809.065385 768.96 
L 809.065385 220.683561 
L 807.579586 220.683561 
z
" style="fill:#1f77b4;"/>
   </g>
   <g id="patch_221">
    <path clip-path="url(#pa855f92abb)" d="M 810.551183 768.96 
L 812.036982 768.96 
L 812.036982 220.108704 
L 810.551183 220.108704 
z
" style="fill:#1f77b4;"/>
   </g>
   <g id="patch_222">
    <path clip-path="url(#pa855f92abb)" d="M 813.522781 768.96 
L 815.00858 768.96 
L 815.00858 217.880734 
L 813.522781 217.880734 
z
" style="fill:#1f77b4;"/>
   </g>
   <g id="patch_223">
    <path clip-path="url(#pa855f92abb)" d="M 816.494379 768.96 
L 817.980178 768.96 
L 817.980178 215.938114 
L 816.494379 215.938114 
z
" style="fill:#1f77b4;"/>
   </g>
   <g id="patch_224">
    <path clip-path="url(#pa855f92abb)" d="M 819.465976 768.96 
L 820.951775 768.96 
L 820.951775 214.327266 
L 819.465976 214.327266 
z
" style="fill:#1f77b4;"/>
   </g>
   <g id="patch_225">
    <path clip-path="url(#pa855f92abb)" d="M 822.437574 768.96 
L 823.923373 768.96 
L 823.923373 212.06327 
L 822.437574 212.06327 
z
" style="fill:#1f77b4;"/>
   </g>
   <g id="patch_226">
    <path clip-path="url(#pa855f92abb)" d="M 825.409172 768.96 
L 826.89497 768.96 
L 826.89497 210.522342 
L 825.409172 210.522342 
z
" style="fill:#1f77b4;"/>
   </g>
   <g id="patch_227">
    <path clip-path="url(#pa855f92abb)" d="M 828.380769 768.96 
L 829.866568 768.96 
L 829.866568 209.822769 
L 828.380769 209.822769 
z
" style="fill:#1f77b4;"/>
   </g>
   <g id="patch_228">
    <path clip-path="url(#pa855f92abb)" d="M 831.352367 768.96 
L 832.838166 768.96 
L 832.838166 208.824614 
L 831.352367 208.824614 
z
" style="fill:#1f77b4;"/>
   </g>
   <g id="patch_229">
    <path clip-path="url(#pa855f92abb)" d="M 834.323964 768.96 
L 835.809763 768.96 
L 835.809763 207.875719 
L 834.323964 207.875719 
z
" style="fill:#1f77b4;"/>
   </g>
   <g id="patch_230">
    <path clip-path="url(#pa855f92abb)" d="M 837.295562 768.96 
L 838.781361 768.96 
L 838.781361 206.972843 
L 837.295562 206.972843 
z
" style="fill:#1f77b4;"/>
   </g>
   <g id="patch_231">
    <path clip-path="url(#pa855f92abb)" d="M 840.26716 768.96 
L 841.752959 768.96 
L 841.752959 206.098891 
L 840.26716 206.098891 
z
" style="fill:#1f77b4;"/>
   </g>
   <g id="patch_232">
    <path clip-path="url(#pa855f92abb)" d="M 843.238757 768.96 
L 844.724556 768.96 
L 844.724556 205.226424 
L 843.238757 205.226424 
z
" style="fill:#1f77b4;"/>
   </g>
   <g id="patch_233">
    <path clip-path="url(#pa855f92abb)" d="M 846.210355 768.96 
L 847.696154 768.96 
L 847.696154 204.648029 
L 846.210355 204.648029 
z
" style="fill:#1f77b4;"/>
   </g>
   <g id="patch_234">
    <path clip-path="url(#pa855f92abb)" d="M 849.181953 768.96 
L 850.667751 768.96 
L 850.667751 203.921369 
L 849.181953 203.921369 
z
" style="fill:#1f77b4;"/>
   </g>
   <g id="patch_235">
    <path clip-path="url(#pa855f92abb)" d="M 852.15355 768.96 
L 853.639349 768.96 
L 853.639349 202.913897 
L 852.15355 202.913897 
z
" style="fill:#1f77b4;"/>
   </g>
   <g id="patch_236">
    <path clip-path="url(#pa855f92abb)" d="M 855.125148 768.96 
L 856.610947 768.96 
L 856.610947 201.948258 
L 855.125148 201.948258 
z
" style="fill:#1f77b4;"/>
   </g>
   <g id="patch_237">
    <path clip-path="url(#pa855f92abb)" d="M 858.096746 768.96 
L 859.582544 768.96 
L 859.582544 200.897711 
L 858.096746 200.897711 
z
" style="fill:#1f77b4;"/>
   </g>
   <g id="patch_238">
    <path clip-path="url(#pa855f92abb)" d="M 861.068343 768.96 
L 862.554142 768.96 
L 862.554142 199.707433 
L 861.068343 199.707433 
z
" style="fill:#1f77b4;"/>
   </g>
   <g id="patch_239">
    <path clip-path="url(#pa855f92abb)" d="M 864.039941 768.96 
L 865.52574 768.96 
L 865.52574 197.960798 
L 864.039941 197.960798 
z
" style="fill:#1f77b4;"/>
   </g>
   <g id="patch_240">
    <path clip-path="url(#pa855f92abb)" d="M 867.011538 768.96 
L 868.497337 768.96 
L 868.497337 195.179576 
L 867.011538 195.179576 
z
" style="fill:#1f77b4;"/>
   </g>
   <g id="patch_241">
    <path clip-path="url(#pa855f92abb)" d="M 869.983136 768.96 
L 871.468935 768.96 
L 871.468935 193.9439 
L 869.983136 193.9439 
z
" style="fill:#1f77b4;"/>
   </g>
   <g id="patch_242">
    <path clip-path="url(#pa855f92abb)" d="M 872.954734 768.96 
L 874.440533 768.96 
L 874.440533 192.936617 
L 872.954734 192.936617 
z
" style="fill:#1f77b4;"/>
   </g>
   <g id="patch_243">
    <path clip-path="url(#pa855f92abb)" d="M 875.926331 768.96 
L 877.41213 768.96 
L 877.41213 192.001009 
L 875.926331 192.001009 
z
" style="fill:#1f77b4;"/>
   </g>
   <g id="patch_244">
    <path clip-path="url(#pa855f92abb)" d="M 878.897929 768.96 
L 880.383728 768.96 
L 880.383728 191.129299 
L 878.897929 191.129299 
z
" style="fill:#1f77b4;"/>
   </g>
   <g id="patch_245">
    <path clip-path="url(#pa855f92abb)" d="M 881.869527 768.96 
L 883.355325 768.96 
L 883.355325 190.253915 
L 881.869527 190.253915 
z
" style="fill:#1f77b4;"/>
   </g>
   <g id="patch_246">
    <path clip-path="url(#pa855f92abb)" d="M 884.841124 768.96 
L 886.326923 768.96 
L 886.326923 189.461981 
L 884.841124 189.461981 
z
" style="fill:#1f77b4;"/>
   </g>
   <g id="patch_247">
    <path clip-path="url(#pa855f92abb)" d="M 887.812722 768.96 
L 889.298521 768.96 
L 889.298521 188.923177 
L 887.812722 188.923177 
z
" style="fill:#1f77b4;"/>
   </g>
   <g id="patch_248">
    <path clip-path="url(#pa855f92abb)" d="M 890.78432 768.96 
L 892.270118 768.96 
L 892.270118 188.542955 
L 890.78432 188.542955 
z
" style="fill:#1f77b4;"/>
   </g>
   <g id="patch_249">
    <path clip-path="url(#pa855f92abb)" d="M 893.755917 768.96 
L 895.241716 768.96 
L 895.241716 188.057272 
L 893.755917 188.057272 
z
" style="fill:#1f77b4;"/>
   </g>
   <g id="patch_250">
    <path clip-path="url(#pa855f92abb)" d="M 896.727515 768.96 
L 898.213314 768.96 
L 898.213314 187.077293 
L 896.727515 187.077293 
z
" style="fill:#1f77b4;"/>
   </g>
   <g id="patch_251">
    <path clip-path="url(#pa855f92abb)" d="M 899.699112 768.96 
L 901.184911 768.96 
L 901.184911 186.20993 
L 899.699112 186.20993 
z
" style="fill:#1f77b4;"/>
   </g>
   <g id="patch_252">
    <path clip-path="url(#pa855f92abb)" d="M 902.67071 768.96 
L 904.156509 768.96 
L 904.156509 185.385804 
L 902.67071 185.385804 
z
" style="fill:#1f77b4;"/>
   </g>
   <g id="patch_253">
    <path clip-path="url(#pa855f92abb)" d="M 905.642308 768.96 
L 907.128107 768.96 
L 907.128107 184.649422 
L 905.642308 184.649422 
z
" style="fill:#1f77b4;"/>
   </g>
   <g id="patch_254">
    <path clip-path="url(#pa855f92abb)" d="M 908.613905 768.96 
L 910.099704 768.96 
L 910.099704 184.10492 
L 908.613905 184.10492 
z
" style="fill:#1f77b4;"/>
   </g>
   <g id="patch_255">
    <path clip-path="url(#pa855f92abb)" d="M 911.585503 768.96 
L 913.071302 768.96 
L 913.071302 183.482775 
L 911.585503 183.482775 
z
" style="fill:#1f77b4;"/>
   </g>
   <g id="patch_256">
    <path clip-path="url(#pa855f92abb)" d="M 914.557101 768.96 
L 916.042899 768.96 
L 916.042899 182.628726 
L 914.557101 182.628726 
z
" style="fill:#1f77b4;"/>
   </g>
   <g id="patch_257">
    <path clip-path="url(#pa855f92abb)" d="M 917.528698 768.96 
L 919.014497 768.96 
L 919.014497 181.816996 
L 917.528698 181.816996 
z
" style="fill:#1f77b4;"/>
   </g>
   <g id="patch_258">
    <path clip-path="url(#pa855f92abb)" d="M 920.500296 768.96 
L 921.986095 768.96 
L 921.986095 181.001108 
L 920.500296 181.001108 
z
" style="fill:#1f77b4;"/>
   </g>
   <g id="patch_259">
    <path clip-path="url(#pa855f92abb)" d="M 923.471893 768.96 
L 924.957692 768.96 
L 924.957692 180.157078 
L 923.471893 180.157078 
z
" style="fill:#1f77b4;"/>
   </g>
   <g id="patch_260">
    <path clip-path="url(#pa855f92abb)" d="M 926.443491 768.96 
L 927.92929 768.96 
L 927.92929 179.340568 
L 926.443491 179.340568 
z
" style="fill:#1f77b4;"/>
   </g>
   <g id="patch_261">
    <path clip-path="url(#pa855f92abb)" d="M 929.415089 768.96 
L 930.900888 768.96 
L 930.900888 178.754773 
L 929.415089 178.754773 
z
" style="fill:#1f77b4;"/>
   </g>
   <g id="patch_262">
    <path clip-path="url(#pa855f92abb)" d="M 932.386686 768.96 
L 933.872485 768.96 
L 933.872485 178.194986 
L 932.386686 178.194986 
z
" style="fill:#1f77b4;"/>
   </g>
   <g id="patch_263">
    <path clip-path="url(#pa855f92abb)" d="M 935.358284 768.96 
L 936.844083 768.96 
L 936.844083 177.243741 
L 935.358284 177.243741 
z
" style="fill:#1f77b4;"/>
   </g>
   <g id="patch_264">
    <path clip-path="url(#pa855f92abb)" d="M 938.329882 768.96 
L 939.81568 768.96 
L 939.81568 176.548949 
L 938.329882 176.548949 
z
" style="fill:#1f77b4;"/>
   </g>
   <g id="patch_265">
    <path clip-path="url(#pa855f92abb)" d="M 941.301479 768.96 
L 942.787278 768.96 
L 942.787278 175.533267 
L 941.301479 175.533267 
z
" style="fill:#1f77b4;"/>
   </g>
   <g id="patch_266">
    <path clip-path="url(#pa855f92abb)" d="M 944.273077 768.96 
L 945.758876 768.96 
L 945.758876 174.560985 
L 944.273077 174.560985 
z
" style="fill:#1f77b4;"/>
   </g>
   <g id="patch_267">
    <path clip-path="url(#pa855f92abb)" d="M 947.244675 768.96 
L 948.730473 768.96 
L 948.730473 173.79368 
L 947.244675 173.79368 
z
" style="fill:#1f77b4;"/>
   </g>
   <g id="patch_268">
    <path clip-path="url(#pa855f92abb)" d="M 950.216272 768.96 
L 951.702071 768.96 
L 951.702071 173.293793 
L 950.216272 173.293793 
z
" style="fill:#1f77b4;"/>
   </g>
   <g id="patch_269">
    <path clip-path="url(#pa855f92abb)" d="M 953.18787 768.96 
L 954.673669 768.96 
L 954.673669 172.655687 
L 953.18787 172.655687 
z
" style="fill:#1f77b4;"/>
   </g>
   <g id="patch_270">
    <path clip-path="url(#pa855f92abb)" d="M 956.159467 768.96 
L 957.645266 768.96 
L 957.645266 171.907611 
L 956.159467 171.907611 
z
" style="fill:#1f77b4;"/>
   </g>
   <g id="patch_271">
    <path clip-path="url(#pa855f92abb)" d="M 959.131065 768.96 
L 960.616864 768.96 
L 960.616864 171.361218 
L 959.131065 171.361218 
z
" style="fill:#1f77b4;"/>
   </g>
   <g id="patch_272">
    <path clip-path="url(#pa855f92abb)" d="M 962.102663 768.96 
L 963.588462 768.96 
L 963.588462 170.981131 
L 962.102663 170.981131 
z
" style="fill:#1f77b4;"/>
   </g>
   <g id="patch_273">
    <path clip-path="url(#pa855f92abb)" d="M 965.07426 768.96 
L 966.560059 768.96 
L 966.560059 170.044119 
L 965.07426 170.044119 
z
" style="fill:#1f77b4;"/>
   </g>
   <g id="patch_274">
    <path clip-path="url(#pa855f92abb)" d="M 968.045858 768.96 
L 969.531657 768.96 
L 969.531657 168.823513 
L 968.045858 168.823513 
z
" style="fill:#1f77b4;"/>
   </g>
   <g id="patch_275">
    <path clip-path="url(#pa855f92abb)" d="M 971.017456 768.96 
L 972.503254 768.96 
L 972.503254 168.411288 
L 971.017456 168.411288 
z
" style="fill:#1f77b4;"/>
   </g>
   <g id="patch_276">
    <path clip-path="url(#pa855f92abb)" d="M 973.989053 768.96 
L 975.474852 768.96 
L 975.474852 167.611252 
L 973.989053 167.611252 
z
" style="fill:#1f77b4;"/>
   </g>
   <g id="patch_277">
    <path clip-path="url(#pa855f92abb)" d="M 976.960651 768.96 
L 978.44645 768.96 
L 978.44645 167.161974 
L 976.960651 167.161974 
z
" style="fill:#1f77b4;"/>
   </g>
   <g id="patch_278">
    <path clip-path="url(#pa855f92abb)" d="M 979.932249 768.96 
L 981.418047 768.96 
L 981.418047 166.232605 
L 979.932249 166.232605 
z
" style="fill:#1f77b4;"/>
   </g>
   <g id="patch_279">
    <path clip-path="url(#pa855f92abb)" d="M 982.903846 768.96 
L 984.389645 768.96 
L 984.389645 165.597928 
L 982.903846 165.597928 
z
" style="fill:#1f77b4;"/>
   </g>
   <g id="patch_280">
    <path clip-path="url(#pa855f92abb)" d="M 985.875444 768.96 
L 987.361243 768.96 
L 987.361243 164.979996 
L 985.875444 164.979996 
z
" style="fill:#1f77b4;"/>
   </g>
   <g id="patch_281">
    <path clip-path="url(#pa855f92abb)" d="M 988.847041 768.96 
L 990.33284 768.96 
L 990.33284 164.550919 
L 988.847041 164.550919 
z
" style="fill:#1f77b4;"/>
   </g>
   <g id="patch_282">
    <path clip-path="url(#pa855f92abb)" d="M 991.818639 768.96 
L 993.304438 768.96 
L 993.304438 164.243722 
L 991.818639 164.243722 
z
" style="fill:#1f77b4;"/>
   </g>
   <g id="patch_283">
    <path clip-path="url(#pa855f92abb)" d="M 994.790237 768.96 
L 996.276036 768.96 
L 996.276036 163.8174 
L 994.790237 163.8174 
z
" style="fill:#1f77b4;"/>
   </g>
   <g id="patch_284">
    <path clip-path="url(#pa855f92abb)" d="M 997.761834 768.96 
L 999.247633 768.96 
L 999.247633 163.180509 
L 997.761834 163.180509 
z
" style="fill:#1f77b4;"/>
   </g>
   <g id="patch_285">
    <path clip-path="url(#pa855f92abb)" d="M 1000.733432 768.96 
L 1002.219231 768.96 
L 1002.219231 162.486527 
L 1000.733432 162.486527 
z
" style="fill:#1f77b4;"/>
   </g>
   <g id="patch_286">
    <path clip-path="url(#pa855f92abb)" d="M 1003.70503 768.96 
L 1005.190828 768.96 
L 1005.190828 161.978592 
L 1003.70503 161.978592 
z
" style="fill:#1f77b4;"/>
   </g>
   <g id="patch_287">
    <path clip-path="url(#pa855f92abb)" d="M 1006.676627 768.96 
L 1008.162426 768.96 
L 1008.162426 161.129809 
L 1006.676627 161.129809 
z
" style="fill:#1f77b4;"/>
   </g>
   <g id="patch_288">
    <path clip-path="url(#pa855f92abb)" d="M 1009.648225 768.96 
L 1011.134024 768.96 
L 1011.134024 160.635674 
L 1009.648225 160.635674 
z
" style="fill:#1f77b4;"/>
   </g>
   <g id="patch_289">
    <path clip-path="url(#pa855f92abb)" d="M 1012.619822 768.96 
L 1014.105621 768.96 
L 1014.105621 160.346679 
L 1012.619822 160.346679 
z
" style="fill:#1f77b4;"/>
   </g>
   <g id="patch_290">
    <path clip-path="url(#pa855f92abb)" d="M 1015.59142 768.96 
L 1017.077219 768.96 
L 1017.077219 159.874527 
L 1015.59142 159.874527 
z
" style="fill:#1f77b4;"/>
   </g>
   <g id="patch_291">
    <path clip-path="url(#pa855f92abb)" d="M 1018.563018 768.96 
L 1020.048817 768.96 
L 1020.048817 159.317467 
L 1018.563018 159.317467 
z
" style="fill:#1f77b4;"/>
   </g>
   <g id="patch_292">
    <path clip-path="url(#pa855f92abb)" d="M 1021.534615 768.96 
L 1023.020414 768.96 
L 1023.020414 158.747255 
L 1021.534615 158.747255 
z
" style="fill:#1f77b4;"/>
   </g>
   <g id="patch_293">
    <path clip-path="url(#pa855f92abb)" d="M 1024.506213 768.96 
L 1025.992012 768.96 
L 1025.992012 158.101101 
L 1024.506213 158.101101 
z
" style="fill:#1f77b4;"/>
   </g>
   <g id="patch_294">
    <path clip-path="url(#pa855f92abb)" d="M 1027.477811 768.96 
L 1028.963609 768.96 
L 1028.963609 157.534076 
L 1027.477811 157.534076 
z
" style="fill:#1f77b4;"/>
   </g>
   <g id="patch_295">
    <path clip-path="url(#pa855f92abb)" d="M 1030.449408 768.96 
L 1031.935207 768.96 
L 1031.935207 157.119987 
L 1030.449408 157.119987 
z
" style="fill:#1f77b4;"/>
   </g>
   <g id="patch_296">
    <path clip-path="url(#pa855f92abb)" d="M 1033.421006 768.96 
L 1034.906805 768.96 
L 1034.906805 156.772362 
L 1033.421006 156.772362 
z
" style="fill:#1f77b4;"/>
   </g>
   <g id="patch_297">
    <path clip-path="url(#pa855f92abb)" d="M 1036.392604 768.96 
L 1037.878402 768.96 
L 1037.878402 156.310175 
L 1036.392604 156.310175 
z
" style="fill:#1f77b4;"/>
   </g>
   <g id="patch_298">
    <path clip-path="url(#pa855f92abb)" d="M 1039.364201 768.96 
L 1040.85 768.96 
L 1040.85 155.620514 
L 1039.364201 155.620514 
z
" style="fill:#1f77b4;"/>
   </g>
   <g id="patch_299">
    <path clip-path="url(#pa855f92abb)" d="M 1042.335799 768.96 
L 1043.821598 768.96 
L 1043.821598 155.059295 
L 1042.335799 155.059295 
z
" style="fill:#1f77b4;"/>
   </g>
   <g id="patch_300">
    <path clip-path="url(#pa855f92abb)" d="M 1045.307396 768.96 
L 1046.793195 768.96 
L 1046.793195 154.546336 
L 1045.307396 154.546336 
z
" style="fill:#1f77b4;"/>
   </g>
   <g id="patch_301">
    <path clip-path="url(#pa855f92abb)" d="M 1048.278994 768.96 
L 1049.764793 768.96 
L 1049.764793 152.895006 
L 1048.278994 152.895006 
z
" style="fill:#1f77b4;"/>
   </g>
   <g id="patch_302">
    <path clip-path="url(#pa855f92abb)" d="M 1051.250592 768.96 
L 1052.736391 768.96 
L 1052.736391 152.444648 
L 1051.250592 152.444648 
z
" style="fill:#1f77b4;"/>
   </g>
   <g id="patch_303">
    <path clip-path="url(#pa855f92abb)" d="M 1054.222189 768.96 
L 1055.707988 768.96 
L 1055.707988 152.137316 
L 1054.222189 152.137316 
z
" style="fill:#1f77b4;"/>
   </g>
   <g id="patch_304">
    <path clip-path="url(#pa855f92abb)" d="M 1057.193787 768.96 
L 1058.679586 768.96 
L 1058.679586 151.770084 
L 1057.193787 151.770084 
z
" style="fill:#1f77b4;"/>
   </g>
   <g id="patch_305">
    <path clip-path="url(#pa855f92abb)" d="M 1060.165385 768.96 
L 1061.651183 768.96 
L 1061.651183 151.299093 
L 1060.165385 151.299093 
z
" style="fill:#1f77b4;"/>
   </g>
   <g id="patch_306">
    <path clip-path="url(#pa855f92abb)" d="M 1063.136982 768.96 
L 1064.622781 768.96 
L 1064.622781 151.003968 
L 1063.136982 151.003968 
z
" style="fill:#1f77b4;"/>
   </g>
   <g id="patch_307">
    <path clip-path="url(#pa855f92abb)" d="M 1066.10858 768.96 
L 1067.594379 768.96 
L 1067.594379 150.509697 
L 1066.10858 150.509697 
z
" style="fill:#1f77b4;"/>
   </g>
   <g id="patch_308">
    <path clip-path="url(#pa855f92abb)" d="M 1069.080178 768.96 
L 1070.565976 768.96 
L 1070.565976 149.947371 
L 1069.080178 149.947371 
z
" style="fill:#1f77b4;"/>
   </g>
   <g id="patch_309">
    <path clip-path="url(#pa855f92abb)" d="M 1072.051775 768.96 
L 1073.537574 768.96 
L 1073.537574 149.285176 
L 1072.051775 149.285176 
z
" style="fill:#1f77b4;"/>
   </g>
   <g id="patch_310">
    <path clip-path="url(#pa855f92abb)" d="M 1075.023373 768.96 
L 1076.509172 768.96 
L 1076.509172 149.076498 
L 1075.023373 149.076498 
z
" style="fill:#1f77b4;"/>
   </g>
   <g id="patch_311">
    <path clip-path="url(#pa855f92abb)" d="M 1077.99497 768.96 
L 1079.480769 768.96 
L 1079.480769 148.72104 
L 1077.99497 148.72104 
z
" style="fill:#1f77b4;"/>
   </g>
   <g id="patch_312">
    <path clip-path="url(#pa855f92abb)" d="M 1080.966568 768.96 
L 1082.452367 768.96 
L 1082.452367 148.198629 
L 1080.966568 148.198629 
z
" style="fill:#1f77b4;"/>
   </g>
   <g id="patch_313">
    <path clip-path="url(#pa855f92abb)" d="M 1083.938166 768.96 
L 1085.423964 768.96 
L 1085.423964 147.764826 
L 1083.938166 147.764826 
z
" style="fill:#1f77b4;"/>
   </g>
   <g id="patch_314">
    <path clip-path="url(#pa855f92abb)" d="M 1086.909763 768.96 
L 1088.395562 768.96 
L 1088.395562 147.359299 
L 1086.909763 147.359299 
z
" style="fill:#1f77b4;"/>
   </g>
   <g id="patch_315">
    <path clip-path="url(#pa855f92abb)" d="M 1089.881361 768.96 
L 1091.36716 768.96 
L 1091.36716 146.906294 
L 1089.881361 146.906294 
z
" style="fill:#1f77b4;"/>
   </g>
   <g id="patch_316">
    <path clip-path="url(#pa855f92abb)" d="M 1092.852959 768.96 
L 1094.338757 768.96 
L 1094.338757 146.547596 
L 1092.852959 146.547596 
z
" style="fill:#1f77b4;"/>
   </g>
   <g id="patch_317">
    <path clip-path="url(#pa855f92abb)" d="M 1095.824556 768.96 
L 1097.310355 768.96 
L 1097.310355 146.344508 
L 1095.824556 146.344508 
z
" style="fill:#1f77b4;"/>
   </g>
   <g id="patch_318">
    <path clip-path="url(#pa855f92abb)" d="M 1098.796154 768.96 
L 1100.281953 768.96 
L 1100.281953 146.016381 
L 1098.796154 146.016381 
z
" style="fill:#1f77b4;"/>
   </g>
   <g id="patch_319">
    <path clip-path="url(#pa855f92abb)" d="M 1101.767751 768.96 
L 1103.25355 768.96 
L 1103.25355 145.580931 
L 1101.767751 145.580931 
z
" style="fill:#1f77b4;"/>
   </g>
   <g id="patch_320">
    <path clip-path="url(#pa855f92abb)" d="M 1104.739349 768.96 
L 1106.225148 768.96 
L 1106.225148 145.15685 
L 1104.739349 145.15685 
z
" style="fill:#1f77b4;"/>
   </g>
   <g id="patch_321">
    <path clip-path="url(#pa855f92abb)" d="M 1107.710947 768.96 
L 1109.196746 768.96 
L 1109.196746 144.727233 
L 1107.710947 144.727233 
z
" style="fill:#1f77b4;"/>
   </g>
   <g id="patch_322">
    <path clip-path="url(#pa855f92abb)" d="M 1110.682544 768.96 
L 1112.168343 768.96 
L 1112.168343 144.258403 
L 1110.682544 144.258403 
z
" style="fill:#1f77b4;"/>
   </g>
   <g id="patch_323">
    <path clip-path="url(#pa855f92abb)" d="M 1113.654142 768.96 
L 1115.139941 768.96 
L 1115.139941 143.908104 
L 1113.654142 143.908104 
z
" style="fill:#1f77b4;"/>
   </g>
   <g id="patch_324">
    <path clip-path="url(#pa855f92abb)" d="M 1116.62574 768.96 
L 1118.111538 768.96 
L 1118.111538 143.710282 
L 1116.62574 143.710282 
z
" style="fill:#1f77b4;"/>
   </g>
   <g id="patch_325">
    <path clip-path="url(#pa855f92abb)" d="M 1119.597337 768.96 
L 1121.083136 768.96 
L 1121.083136 143.291441 
L 1119.597337 143.291441 
z
" style="fill:#1f77b4;"/>
   </g>
   <g id="patch_326">
    <path clip-path="url(#pa855f92abb)" d="M 1122.568935 768.96 
L 1124.054734 768.96 
L 1124.054734 142.843432 
L 1122.568935 142.843432 
z
" style="fill:#1f77b4;"/>
   </g>
   <g id="patch_327">
    <path clip-path="url(#pa855f92abb)" d="M 1125.540533 768.96 
L 1127.026331 768.96 
L 1127.026331 142.445413 
L 1125.540533 142.445413 
z
" style="fill:#1f77b4;"/>
   </g>
   <g id="patch_328">
    <path clip-path="url(#pa855f92abb)" d="M 1128.51213 768.96 
L 1129.997929 768.96 
L 1129.997929 142.250832 
L 1128.51213 142.250832 
z
" style="fill:#1f77b4;"/>
   </g>
   <g id="patch_329">
    <path clip-path="url(#pa855f92abb)" d="M 1131.483728 768.96 
L 1132.969527 768.96 
L 1132.969527 142.076803 
L 1131.483728 142.076803 
z
" style="fill:#1f77b4;"/>
   </g>
   <g id="patch_330">
    <path clip-path="url(#pa855f92abb)" d="M 1134.455325 768.96 
L 1135.941124 768.96 
L 1135.941124 141.692935 
L 1134.455325 141.692935 
z
" style="fill:#1f77b4;"/>
   </g>
   <g id="patch_331">
    <path clip-path="url(#pa855f92abb)" d="M 1137.426923 768.96 
L 1138.912722 768.96 
L 1138.912722 141.344715 
L 1137.426923 141.344715 
z
" style="fill:#1f77b4;"/>
   </g>
   <g id="patch_332">
    <path clip-path="url(#pa855f92abb)" d="M 1140.398521 768.96 
L 1141.88432 768.96 
L 1141.88432 140.822115 
L 1140.398521 140.822115 
z
" style="fill:#1f77b4;"/>
   </g>
   <g id="patch_333">
    <path clip-path="url(#pa855f92abb)" d="M 1143.370118 768.96 
L 1144.855917 768.96 
L 1144.855917 140.123596 
L 1143.370118 140.123596 
z
" style="fill:#1f77b4;"/>
   </g>
   <g id="patch_334">
    <path clip-path="url(#pa855f92abb)" d="M 1146.341716 768.96 
L 1147.827515 768.96 
L 1147.827515 139.637941 
L 1146.341716 139.637941 
z
" style="fill:#1f77b4;"/>
   </g>
   <g id="patch_335">
    <path clip-path="url(#pa855f92abb)" d="M 1149.313314 768.96 
L 1150.799112 768.96 
L 1150.799112 138.745894 
L 1149.313314 138.745894 
z
" style="fill:#1f77b4;"/>
   </g>
   <g id="patch_336">
    <path clip-path="url(#pa855f92abb)" d="M 1152.284911 768.96 
L 1153.77071 768.96 
L 1153.77071 137.946938 
L 1152.284911 137.946938 
z
" style="fill:#1f77b4;"/>
   </g>
   <g id="patch_337">
    <path clip-path="url(#pa855f92abb)" d="M 1155.256509 768.96 
L 1156.742308 768.96 
L 1156.742308 137.145066 
L 1155.256509 137.145066 
z
" style="fill:#1f77b4;"/>
   </g>
   <g id="patch_338">
    <path clip-path="url(#pa855f92abb)" d="M 1158.228107 768.96 
L 1159.713905 768.96 
L 1159.713905 136.64823 
L 1158.228107 136.64823 
z
" style="fill:#1f77b4;"/>
   </g>
   <g id="patch_339">
    <path clip-path="url(#pa855f92abb)" d="M 1161.199704 768.96 
L 1162.685503 768.96 
L 1162.685503 136.051849 
L 1161.199704 136.051849 
z
" style="fill:#1f77b4;"/>
   </g>
   <g id="patch_340">
    <path clip-path="url(#pa855f92abb)" d="M 1164.171302 768.96 
L 1165.657101 768.96 
L 1165.657101 135.36 
L 1164.171302 135.36 
z
" style="fill:#1f77b4;"/>
   </g>
   <g id="matplotlib.axis_1">
    <g id="xtick_1">
     <g id="line2d_1">
      <defs>
       <path d="M 0 0 
L 0 3.5 
" id="m602ab8f8b8" style="stroke:#000000;stroke-width:0.8;"/>
      </defs>
      <g>
       <use style="stroke:#000000;stroke-width:0.8;" x="163.485799" xlink:href="#m602ab8f8b8" y="768.96"/>
      </g>
     </g>
     <g id="text_1">
      <!-- January -->
      <g transform="translate(144.53033 783.558437)scale(0.1 -0.1)">
       <defs>
        <path d="M 628 4666 
L 1259 4666 
L 1259 325 
Q 1259 -519 939 -900 
Q 619 -1281 -91 -1281 
L -331 -1281 
L -331 -750 
L -134 -750 
Q 284 -750 456 -515 
Q 628 -281 628 325 
L 628 4666 
z
" id="DejaVuSans-4a" transform="scale(0.015625)"/>
        <path d="M 2194 1759 
Q 1497 1759 1228 1600 
Q 959 1441 959 1056 
Q 959 750 1161 570 
Q 1363 391 1709 391 
Q 2188 391 2477 730 
Q 2766 1069 2766 1631 
L 2766 1759 
L 2194 1759 
z
M 3341 1997 
L 3341 0 
L 2766 0 
L 2766 531 
Q 2569 213 2275 61 
Q 1981 -91 1556 -91 
Q 1019 -91 701 211 
Q 384 513 384 1019 
Q 384 1609 779 1909 
Q 1175 2209 1959 2209 
L 2766 2209 
L 2766 2266 
Q 2766 2663 2505 2880 
Q 2244 3097 1772 3097 
Q 1472 3097 1187 3025 
Q 903 2953 641 2809 
L 641 3341 
Q 956 3463 1253 3523 
Q 1550 3584 1831 3584 
Q 2591 3584 2966 3190 
Q 3341 2797 3341 1997 
z
" id="DejaVuSans-61" transform="scale(0.015625)"/>
        <path d="M 3513 2113 
L 3513 0 
L 2938 0 
L 2938 2094 
Q 2938 2591 2744 2837 
Q 2550 3084 2163 3084 
Q 1697 3084 1428 2787 
Q 1159 2491 1159 1978 
L 1159 0 
L 581 0 
L 581 3500 
L 1159 3500 
L 1159 2956 
Q 1366 3272 1645 3428 
Q 1925 3584 2291 3584 
Q 2894 3584 3203 3211 
Q 3513 2838 3513 2113 
z
" id="DejaVuSans-6e" transform="scale(0.015625)"/>
        <path d="M 544 1381 
L 544 3500 
L 1119 3500 
L 1119 1403 
Q 1119 906 1312 657 
Q 1506 409 1894 409 
Q 2359 409 2629 706 
Q 2900 1003 2900 1516 
L 2900 3500 
L 3475 3500 
L 3475 0 
L 2900 0 
L 2900 538 
Q 2691 219 2414 64 
Q 2138 -91 1772 -91 
Q 1169 -91 856 284 
Q 544 659 544 1381 
z
M 1991 3584 
L 1991 3584 
z
" id="DejaVuSans-75" transform="scale(0.015625)"/>
        <path d="M 2631 2963 
Q 2534 3019 2420 3045 
Q 2306 3072 2169 3072 
Q 1681 3072 1420 2755 
Q 1159 2438 1159 1844 
L 1159 0 
L 581 0 
L 581 3500 
L 1159 3500 
L 1159 2956 
Q 1341 3275 1631 3429 
Q 1922 3584 2338 3584 
Q 2397 3584 2469 3576 
Q 2541 3569 2628 3553 
L 2631 2963 
z
" id="DejaVuSans-72" transform="scale(0.015625)"/>
        <path d="M 2059 -325 
Q 1816 -950 1584 -1140 
Q 1353 -1331 966 -1331 
L 506 -1331 
L 506 -850 
L 844 -850 
Q 1081 -850 1212 -737 
Q 1344 -625 1503 -206 
L 1606 56 
L 191 3500 
L 800 3500 
L 1894 763 
L 2988 3500 
L 3597 3500 
L 2059 -325 
z
" id="DejaVuSans-79" transform="scale(0.015625)"/>
       </defs>
       <use xlink:href="#DejaVuSans-4a"/>
       <use x="29.492188" xlink:href="#DejaVuSans-61"/>
       <use x="90.771484" xlink:href="#DejaVuSans-6e"/>
       <use x="154.150391" xlink:href="#DejaVuSans-75"/>
       <use x="217.529297" xlink:href="#DejaVuSans-61"/>
       <use x="278.808594" xlink:href="#DejaVuSans-72"/>
       <use x="319.921875" xlink:href="#DejaVuSans-79"/>
      </g>
     </g>
    </g>
    <g id="xtick_2">
     <g id="line2d_2">
      <g>
       <use style="stroke:#000000;stroke-width:0.8;" x="255.605325" xlink:href="#m602ab8f8b8" y="768.96"/>
      </g>
     </g>
     <g id="text_2">
      <!-- February -->
      <g transform="translate(233.450638 783.558437)scale(0.1 -0.1)">
       <defs>
        <path d="M 628 4666 
L 3309 4666 
L 3309 4134 
L 1259 4134 
L 1259 2759 
L 3109 2759 
L 3109 2228 
L 1259 2228 
L 1259 0 
L 628 0 
L 628 4666 
z
" id="DejaVuSans-46" transform="scale(0.015625)"/>
        <path d="M 3597 1894 
L 3597 1613 
L 953 1613 
Q 991 1019 1311 708 
Q 1631 397 2203 397 
Q 2534 397 2845 478 
Q 3156 559 3463 722 
L 3463 178 
Q 3153 47 2828 -22 
Q 2503 -91 2169 -91 
Q 1331 -91 842 396 
Q 353 884 353 1716 
Q 353 2575 817 3079 
Q 1281 3584 2069 3584 
Q 2775 3584 3186 3129 
Q 3597 2675 3597 1894 
z
M 3022 2063 
Q 3016 2534 2758 2815 
Q 2500 3097 2075 3097 
Q 1594 3097 1305 2825 
Q 1016 2553 972 2059 
L 3022 2063 
z
" id="DejaVuSans-65" transform="scale(0.015625)"/>
        <path d="M 3116 1747 
Q 3116 2381 2855 2742 
Q 2594 3103 2138 3103 
Q 1681 3103 1420 2742 
Q 1159 2381 1159 1747 
Q 1159 1113 1420 752 
Q 1681 391 2138 391 
Q 2594 391 2855 752 
Q 3116 1113 3116 1747 
z
M 1159 2969 
Q 1341 3281 1617 3432 
Q 1894 3584 2278 3584 
Q 2916 3584 3314 3078 
Q 3713 2572 3713 1747 
Q 3713 922 3314 415 
Q 2916 -91 2278 -91 
Q 1894 -91 1617 61 
Q 1341 213 1159 525 
L 1159 0 
L 581 0 
L 581 4863 
L 1159 4863 
L 1159 2969 
z
" id="DejaVuSans-62" transform="scale(0.015625)"/>
       </defs>
       <use xlink:href="#DejaVuSans-46"/>
       <use x="52.019531" xlink:href="#DejaVuSans-65"/>
       <use x="113.542969" xlink:href="#DejaVuSans-62"/>
       <use x="177.019531" xlink:href="#DejaVuSans-72"/>
       <use x="218.132812" xlink:href="#DejaVuSans-75"/>
       <use x="281.511719" xlink:href="#DejaVuSans-61"/>
       <use x="342.791016" xlink:href="#DejaVuSans-72"/>
       <use x="383.904297" xlink:href="#DejaVuSans-79"/>
      </g>
     </g>
    </g>
    <g id="xtick_3">
     <g id="line2d_3">
      <g>
       <use style="stroke:#000000;stroke-width:0.8;" x="338.810059" xlink:href="#m602ab8f8b8" y="768.96"/>
      </g>
     </g>
     <g id="text_3">
      <!-- March -->
      <g transform="translate(323.570997 783.558437)scale(0.1 -0.1)">
       <defs>
        <path d="M 628 4666 
L 1569 4666 
L 2759 1491 
L 3956 4666 
L 4897 4666 
L 4897 0 
L 4281 0 
L 4281 4097 
L 3078 897 
L 2444 897 
L 1241 4097 
L 1241 0 
L 628 0 
L 628 4666 
z
" id="DejaVuSans-4d" transform="scale(0.015625)"/>
        <path d="M 3122 3366 
L 3122 2828 
Q 2878 2963 2633 3030 
Q 2388 3097 2138 3097 
Q 1578 3097 1268 2742 
Q 959 2388 959 1747 
Q 959 1106 1268 751 
Q 1578 397 2138 397 
Q 2388 397 2633 464 
Q 2878 531 3122 666 
L 3122 134 
Q 2881 22 2623 -34 
Q 2366 -91 2075 -91 
Q 1284 -91 818 406 
Q 353 903 353 1747 
Q 353 2603 823 3093 
Q 1294 3584 2113 3584 
Q 2378 3584 2631 3529 
Q 2884 3475 3122 3366 
z
" id="DejaVuSans-63" transform="scale(0.015625)"/>
        <path d="M 3513 2113 
L 3513 0 
L 2938 0 
L 2938 2094 
Q 2938 2591 2744 2837 
Q 2550 3084 2163 3084 
Q 1697 3084 1428 2787 
Q 1159 2491 1159 1978 
L 1159 0 
L 581 0 
L 581 4863 
L 1159 4863 
L 1159 2956 
Q 1366 3272 1645 3428 
Q 1925 3584 2291 3584 
Q 2894 3584 3203 3211 
Q 3513 2838 3513 2113 
z
" id="DejaVuSans-68" transform="scale(0.015625)"/>
       </defs>
       <use xlink:href="#DejaVuSans-4d"/>
       <use x="86.279297" xlink:href="#DejaVuSans-61"/>
       <use x="147.558594" xlink:href="#DejaVuSans-72"/>
       <use x="186.421875" xlink:href="#DejaVuSans-63"/>
       <use x="241.402344" xlink:href="#DejaVuSans-68"/>
      </g>
     </g>
    </g>
    <g id="xtick_4">
     <g id="line2d_4">
      <g>
       <use style="stroke:#000000;stroke-width:0.8;" x="430.929586" xlink:href="#m602ab8f8b8" y="768.96"/>
      </g>
     </g>
     <g id="text_4">
      <!-- April -->
      <g transform="translate(419.501461 783.558437)scale(0.1 -0.1)">
       <defs>
        <path d="M 2188 4044 
L 1331 1722 
L 3047 1722 
L 2188 4044 
z
M 1831 4666 
L 2547 4666 
L 4325 0 
L 3669 0 
L 3244 1197 
L 1141 1197 
L 716 0 
L 50 0 
L 1831 4666 
z
" id="DejaVuSans-41" transform="scale(0.015625)"/>
        <path d="M 1159 525 
L 1159 -1331 
L 581 -1331 
L 581 3500 
L 1159 3500 
L 1159 2969 
Q 1341 3281 1617 3432 
Q 1894 3584 2278 3584 
Q 2916 3584 3314 3078 
Q 3713 2572 3713 1747 
Q 3713 922 3314 415 
Q 2916 -91 2278 -91 
Q 1894 -91 1617 61 
Q 1341 213 1159 525 
z
M 3116 1747 
Q 3116 2381 2855 2742 
Q 2594 3103 2138 3103 
Q 1681 3103 1420 2742 
Q 1159 2381 1159 1747 
Q 1159 1113 1420 752 
Q 1681 391 2138 391 
Q 2594 391 2855 752 
Q 3116 1113 3116 1747 
z
" id="DejaVuSans-70" transform="scale(0.015625)"/>
        <path d="M 603 3500 
L 1178 3500 
L 1178 0 
L 603 0 
L 603 3500 
z
M 603 4863 
L 1178 4863 
L 1178 4134 
L 603 4134 
L 603 4863 
z
" id="DejaVuSans-69" transform="scale(0.015625)"/>
        <path d="M 603 4863 
L 1178 4863 
L 1178 0 
L 603 0 
L 603 4863 
z
" id="DejaVuSans-6c" transform="scale(0.015625)"/>
       </defs>
       <use xlink:href="#DejaVuSans-41"/>
       <use x="68.408203" xlink:href="#DejaVuSans-70"/>
       <use x="131.884766" xlink:href="#DejaVuSans-72"/>
       <use x="172.998047" xlink:href="#DejaVuSans-69"/>
       <use x="200.78125" xlink:href="#DejaVuSans-6c"/>
      </g>
     </g>
    </g>
    <g id="xtick_5">
     <g id="line2d_5">
      <g>
       <use style="stroke:#000000;stroke-width:0.8;" x="520.077515" xlink:href="#m602ab8f8b8" y="768.96"/>
      </g>
     </g>
     <g id="text_5">
      <!-- May -->
      <g transform="translate(509.740015 783.558437)scale(0.1 -0.1)">
       <use xlink:href="#DejaVuSans-4d"/>
       <use x="86.279297" xlink:href="#DejaVuSans-61"/>
       <use x="147.558594" xlink:href="#DejaVuSans-79"/>
      </g>
     </g>
    </g>
    <g id="xtick_6">
     <g id="line2d_6">
      <g>
       <use style="stroke:#000000;stroke-width:0.8;" x="612.197041" xlink:href="#m602ab8f8b8" y="768.96"/>
      </g>
     </g>
     <g id="text_6">
      <!-- June -->
      <g transform="translate(601.307979 783.558437)scale(0.1 -0.1)">
       <use xlink:href="#DejaVuSans-4a"/>
       <use x="29.492188" xlink:href="#DejaVuSans-75"/>
       <use x="92.871094" xlink:href="#DejaVuSans-6e"/>
       <use x="156.25" xlink:href="#DejaVuSans-65"/>
      </g>
     </g>
    </g>
    <g id="xtick_7">
     <g id="line2d_7">
      <g>
       <use style="stroke:#000000;stroke-width:0.8;" x="701.34497" xlink:href="#m602ab8f8b8" y="768.96"/>
      </g>
     </g>
     <g id="text_7">
      <!-- July -->
      <g transform="translate(692.352783 783.558437)scale(0.1 -0.1)">
       <use xlink:href="#DejaVuSans-4a"/>
       <use x="29.492188" xlink:href="#DejaVuSans-75"/>
       <use x="92.871094" xlink:href="#DejaVuSans-6c"/>
       <use x="120.654297" xlink:href="#DejaVuSans-79"/>
      </g>
     </g>
    </g>
    <g id="xtick_8">
     <g id="line2d_8">
      <g>
       <use style="stroke:#000000;stroke-width:0.8;" x="793.464497" xlink:href="#m602ab8f8b8" y="768.96"/>
      </g>
     </g>
     <g id="text_8">
      <!-- August -->
      <g transform="translate(775.967622 783.558437)scale(0.1 -0.1)">
       <defs>
        <path d="M 2906 1791 
Q 2906 2416 2648 2759 
Q 2391 3103 1925 3103 
Q 1463 3103 1205 2759 
Q 947 2416 947 1791 
Q 947 1169 1205 825 
Q 1463 481 1925 481 
Q 2391 481 2648 825 
Q 2906 1169 2906 1791 
z
M 3481 434 
Q 3481 -459 3084 -895 
Q 2688 -1331 1869 -1331 
Q 1566 -1331 1297 -1286 
Q 1028 -1241 775 -1147 
L 775 -588 
Q 1028 -725 1275 -790 
Q 1522 -856 1778 -856 
Q 2344 -856 2625 -561 
Q 2906 -266 2906 331 
L 2906 616 
Q 2728 306 2450 153 
Q 2172 0 1784 0 
Q 1141 0 747 490 
Q 353 981 353 1791 
Q 353 2603 747 3093 
Q 1141 3584 1784 3584 
Q 2172 3584 2450 3431 
Q 2728 3278 2906 2969 
L 2906 3500 
L 3481 3500 
L 3481 434 
z
" id="DejaVuSans-67" transform="scale(0.015625)"/>
        <path d="M 2834 3397 
L 2834 2853 
Q 2591 2978 2328 3040 
Q 2066 3103 1784 3103 
Q 1356 3103 1142 2972 
Q 928 2841 928 2578 
Q 928 2378 1081 2264 
Q 1234 2150 1697 2047 
L 1894 2003 
Q 2506 1872 2764 1633 
Q 3022 1394 3022 966 
Q 3022 478 2636 193 
Q 2250 -91 1575 -91 
Q 1294 -91 989 -36 
Q 684 19 347 128 
L 347 722 
Q 666 556 975 473 
Q 1284 391 1588 391 
Q 1994 391 2212 530 
Q 2431 669 2431 922 
Q 2431 1156 2273 1281 
Q 2116 1406 1581 1522 
L 1381 1569 
Q 847 1681 609 1914 
Q 372 2147 372 2553 
Q 372 3047 722 3315 
Q 1072 3584 1716 3584 
Q 2034 3584 2315 3537 
Q 2597 3491 2834 3397 
z
" id="DejaVuSans-73" transform="scale(0.015625)"/>
        <path d="M 1172 4494 
L 1172 3500 
L 2356 3500 
L 2356 3053 
L 1172 3053 
L 1172 1153 
Q 1172 725 1289 603 
Q 1406 481 1766 481 
L 2356 481 
L 2356 0 
L 1766 0 
Q 1100 0 847 248 
Q 594 497 594 1153 
L 594 3053 
L 172 3053 
L 172 3500 
L 594 3500 
L 594 4494 
L 1172 4494 
z
" id="DejaVuSans-74" transform="scale(0.015625)"/>
       </defs>
       <use xlink:href="#DejaVuSans-41"/>
       <use x="68.408203" xlink:href="#DejaVuSans-75"/>
       <use x="131.787109" xlink:href="#DejaVuSans-67"/>
       <use x="195.263672" xlink:href="#DejaVuSans-75"/>
       <use x="258.642578" xlink:href="#DejaVuSans-73"/>
       <use x="310.742188" xlink:href="#DejaVuSans-74"/>
      </g>
     </g>
    </g>
    <g id="xtick_9">
     <g id="line2d_9">
      <g>
       <use style="stroke:#000000;stroke-width:0.8;" x="885.584024" xlink:href="#m602ab8f8b8" y="768.96"/>
      </g>
     </g>
     <g id="text_9">
      <!-- September -->
      <g transform="translate(857.945742 783.558437)scale(0.1 -0.1)">
       <defs>
        <path d="M 3425 4513 
L 3425 3897 
Q 3066 4069 2747 4153 
Q 2428 4238 2131 4238 
Q 1616 4238 1336 4038 
Q 1056 3838 1056 3469 
Q 1056 3159 1242 3001 
Q 1428 2844 1947 2747 
L 2328 2669 
Q 3034 2534 3370 2195 
Q 3706 1856 3706 1288 
Q 3706 609 3251 259 
Q 2797 -91 1919 -91 
Q 1588 -91 1214 -16 
Q 841 59 441 206 
L 441 856 
Q 825 641 1194 531 
Q 1563 422 1919 422 
Q 2459 422 2753 634 
Q 3047 847 3047 1241 
Q 3047 1584 2836 1778 
Q 2625 1972 2144 2069 
L 1759 2144 
Q 1053 2284 737 2584 
Q 422 2884 422 3419 
Q 422 4038 858 4394 
Q 1294 4750 2059 4750 
Q 2388 4750 2728 4690 
Q 3069 4631 3425 4513 
z
" id="DejaVuSans-53" transform="scale(0.015625)"/>
        <path d="M 3328 2828 
Q 3544 3216 3844 3400 
Q 4144 3584 4550 3584 
Q 5097 3584 5394 3201 
Q 5691 2819 5691 2113 
L 5691 0 
L 5113 0 
L 5113 2094 
Q 5113 2597 4934 2840 
Q 4756 3084 4391 3084 
Q 3944 3084 3684 2787 
Q 3425 2491 3425 1978 
L 3425 0 
L 2847 0 
L 2847 2094 
Q 2847 2600 2669 2842 
Q 2491 3084 2119 3084 
Q 1678 3084 1418 2786 
Q 1159 2488 1159 1978 
L 1159 0 
L 581 0 
L 581 3500 
L 1159 3500 
L 1159 2956 
Q 1356 3278 1631 3431 
Q 1906 3584 2284 3584 
Q 2666 3584 2933 3390 
Q 3200 3197 3328 2828 
z
" id="DejaVuSans-6d" transform="scale(0.015625)"/>
       </defs>
       <use xlink:href="#DejaVuSans-53"/>
       <use x="63.476562" xlink:href="#DejaVuSans-65"/>
       <use x="125" xlink:href="#DejaVuSans-70"/>
       <use x="188.476562" xlink:href="#DejaVuSans-74"/>
       <use x="227.685547" xlink:href="#DejaVuSans-65"/>
       <use x="289.208984" xlink:href="#DejaVuSans-6d"/>
       <use x="386.621094" xlink:href="#DejaVuSans-62"/>
       <use x="450.097656" xlink:href="#DejaVuSans-65"/>
       <use x="511.621094" xlink:href="#DejaVuSans-72"/>
      </g>
     </g>
    </g>
    <g id="xtick_10">
     <g id="line2d_10">
      <g>
       <use style="stroke:#000000;stroke-width:0.8;" x="974.731953" xlink:href="#m602ab8f8b8" y="768.96"/>
      </g>
     </g>
     <g id="text_10">
      <!-- October -->
      <g transform="translate(954.721015 783.558437)scale(0.1 -0.1)">
       <defs>
        <path d="M 2522 4238 
Q 1834 4238 1429 3725 
Q 1025 3213 1025 2328 
Q 1025 1447 1429 934 
Q 1834 422 2522 422 
Q 3209 422 3611 934 
Q 4013 1447 4013 2328 
Q 4013 3213 3611 3725 
Q 3209 4238 2522 4238 
z
M 2522 4750 
Q 3503 4750 4090 4092 
Q 4678 3434 4678 2328 
Q 4678 1225 4090 567 
Q 3503 -91 2522 -91 
Q 1538 -91 948 565 
Q 359 1222 359 2328 
Q 359 3434 948 4092 
Q 1538 4750 2522 4750 
z
" id="DejaVuSans-4f" transform="scale(0.015625)"/>
        <path d="M 1959 3097 
Q 1497 3097 1228 2736 
Q 959 2375 959 1747 
Q 959 1119 1226 758 
Q 1494 397 1959 397 
Q 2419 397 2687 759 
Q 2956 1122 2956 1747 
Q 2956 2369 2687 2733 
Q 2419 3097 1959 3097 
z
M 1959 3584 
Q 2709 3584 3137 3096 
Q 3566 2609 3566 1747 
Q 3566 888 3137 398 
Q 2709 -91 1959 -91 
Q 1206 -91 779 398 
Q 353 888 353 1747 
Q 353 2609 779 3096 
Q 1206 3584 1959 3584 
z
" id="DejaVuSans-6f" transform="scale(0.015625)"/>
       </defs>
       <use xlink:href="#DejaVuSans-4f"/>
       <use x="78.710938" xlink:href="#DejaVuSans-63"/>
       <use x="133.691406" xlink:href="#DejaVuSans-74"/>
       <use x="172.900391" xlink:href="#DejaVuSans-6f"/>
       <use x="234.082031" xlink:href="#DejaVuSans-62"/>
       <use x="297.558594" xlink:href="#DejaVuSans-65"/>
       <use x="359.082031" xlink:href="#DejaVuSans-72"/>
      </g>
     </g>
    </g>
    <g id="xtick_11">
     <g id="line2d_11">
      <g>
       <use style="stroke:#000000;stroke-width:0.8;" x="1066.851479" xlink:href="#m602ab8f8b8" y="768.96"/>
      </g>
     </g>
     <g id="text_11">
      <!-- November -->
      <g transform="translate(1040.838979 783.558437)scale(0.1 -0.1)">
       <defs>
        <path d="M 628 4666 
L 1478 4666 
L 3547 763 
L 3547 4666 
L 4159 4666 
L 4159 0 
L 3309 0 
L 1241 3903 
L 1241 0 
L 628 0 
L 628 4666 
z
" id="DejaVuSans-4e" transform="scale(0.015625)"/>
        <path d="M 191 3500 
L 800 3500 
L 1894 563 
L 2988 3500 
L 3597 3500 
L 2284 0 
L 1503 0 
L 191 3500 
z
" id="DejaVuSans-76" transform="scale(0.015625)"/>
       </defs>
       <use xlink:href="#DejaVuSans-4e"/>
       <use x="74.804688" xlink:href="#DejaVuSans-6f"/>
       <use x="135.986328" xlink:href="#DejaVuSans-76"/>
       <use x="195.166016" xlink:href="#DejaVuSans-65"/>
       <use x="256.689453" xlink:href="#DejaVuSans-6d"/>
       <use x="354.101562" xlink:href="#DejaVuSans-62"/>
       <use x="417.578125" xlink:href="#DejaVuSans-65"/>
       <use x="479.101562" xlink:href="#DejaVuSans-72"/>
      </g>
     </g>
    </g>
    <g id="xtick_12">
     <g id="line2d_12">
      <g>
       <use style="stroke:#000000;stroke-width:0.8;" x="1155.999408" xlink:href="#m602ab8f8b8" y="768.96"/>
      </g>
     </g>
     <g id="text_12">
      <!-- December -->
      <g transform="translate(1130.070502 783.558437)scale(0.1 -0.1)">
       <defs>
        <path d="M 1259 4147 
L 1259 519 
L 2022 519 
Q 2988 519 3436 956 
Q 3884 1394 3884 2338 
Q 3884 3275 3436 3711 
Q 2988 4147 2022 4147 
L 1259 4147 
z
M 628 4666 
L 1925 4666 
Q 3281 4666 3915 4102 
Q 4550 3538 4550 2338 
Q 4550 1131 3912 565 
Q 3275 0 1925 0 
L 628 0 
L 628 4666 
z
" id="DejaVuSans-44" transform="scale(0.015625)"/>
       </defs>
       <use xlink:href="#DejaVuSans-44"/>
       <use x="77.001953" xlink:href="#DejaVuSans-65"/>
       <use x="138.525391" xlink:href="#DejaVuSans-63"/>
       <use x="193.505859" xlink:href="#DejaVuSans-65"/>
       <use x="255.029297" xlink:href="#DejaVuSans-6d"/>
       <use x="352.441406" xlink:href="#DejaVuSans-62"/>
       <use x="415.917969" xlink:href="#DejaVuSans-65"/>
       <use x="477.441406" xlink:href="#DejaVuSans-72"/>
      </g>
     </g>
    </g>
   </g>
   <g id="matplotlib.axis_2">
    <g id="ytick_1">
     <g id="line2d_13">
      <defs>
       <path d="M 0 0 
L -3.5 0 
" id="ma1450048c8" style="stroke:#000000;stroke-width:0.8;"/>
      </defs>
      <g>
       <use style="stroke:#000000;stroke-width:0.8;" x="162" xlink:href="#ma1450048c8" y="768.96"/>
      </g>
     </g>
     <g id="text_13">
      <!-- 0.0 -->
      <g transform="translate(139.096875 772.759219)scale(0.1 -0.1)">
       <defs>
        <path d="M 2034 4250 
Q 1547 4250 1301 3770 
Q 1056 3291 1056 2328 
Q 1056 1369 1301 889 
Q 1547 409 2034 409 
Q 2525 409 2770 889 
Q 3016 1369 3016 2328 
Q 3016 3291 2770 3770 
Q 2525 4250 2034 4250 
z
M 2034 4750 
Q 2819 4750 3233 4129 
Q 3647 3509 3647 2328 
Q 3647 1150 3233 529 
Q 2819 -91 2034 -91 
Q 1250 -91 836 529 
Q 422 1150 422 2328 
Q 422 3509 836 4129 
Q 1250 4750 2034 4750 
z
" id="DejaVuSans-30" transform="scale(0.015625)"/>
        <path d="M 684 794 
L 1344 794 
L 1344 0 
L 684 0 
L 684 794 
z
" id="DejaVuSans-2e" transform="scale(0.015625)"/>
       </defs>
       <use xlink:href="#DejaVuSans-30"/>
       <use x="63.623047" xlink:href="#DejaVuSans-2e"/>
       <use x="95.410156" xlink:href="#DejaVuSans-30"/>
      </g>
     </g>
    </g>
    <g id="ytick_2">
     <g id="line2d_14">
      <g>
       <use style="stroke:#000000;stroke-width:0.8;" x="162" xlink:href="#ma1450048c8" y="633.928256"/>
      </g>
     </g>
     <g id="text_14">
      <!-- 0.5 -->
      <g transform="translate(139.096875 637.727475)scale(0.1 -0.1)">
       <defs>
        <path d="M 691 4666 
L 3169 4666 
L 3169 4134 
L 1269 4134 
L 1269 2991 
Q 1406 3038 1543 3061 
Q 1681 3084 1819 3084 
Q 2600 3084 3056 2656 
Q 3513 2228 3513 1497 
Q 3513 744 3044 326 
Q 2575 -91 1722 -91 
Q 1428 -91 1123 -41 
Q 819 9 494 109 
L 494 744 
Q 775 591 1075 516 
Q 1375 441 1709 441 
Q 2250 441 2565 725 
Q 2881 1009 2881 1497 
Q 2881 1984 2565 2268 
Q 2250 2553 1709 2553 
Q 1456 2553 1204 2497 
Q 953 2441 691 2322 
L 691 4666 
z
" id="DejaVuSans-35" transform="scale(0.015625)"/>
       </defs>
       <use xlink:href="#DejaVuSans-30"/>
       <use x="63.623047" xlink:href="#DejaVuSans-2e"/>
       <use x="95.410156" xlink:href="#DejaVuSans-35"/>
      </g>
     </g>
    </g>
    <g id="ytick_3">
     <g id="line2d_15">
      <g>
       <use style="stroke:#000000;stroke-width:0.8;" x="162" xlink:href="#ma1450048c8" y="498.896512"/>
      </g>
     </g>
     <g id="text_15">
      <!-- 1.0 -->
      <g transform="translate(139.096875 502.695731)scale(0.1 -0.1)">
       <defs>
        <path d="M 794 531 
L 1825 531 
L 1825 4091 
L 703 3866 
L 703 4441 
L 1819 4666 
L 2450 4666 
L 2450 531 
L 3481 531 
L 3481 0 
L 794 0 
L 794 531 
z
" id="DejaVuSans-31" transform="scale(0.015625)"/>
       </defs>
       <use xlink:href="#DejaVuSans-31"/>
       <use x="63.623047" xlink:href="#DejaVuSans-2e"/>
       <use x="95.410156" xlink:href="#DejaVuSans-30"/>
      </g>
     </g>
    </g>
    <g id="ytick_4">
     <g id="line2d_16">
      <g>
       <use style="stroke:#000000;stroke-width:0.8;" x="162" xlink:href="#ma1450048c8" y="363.864768"/>
      </g>
     </g>
     <g id="text_16">
      <!-- 1.5 -->
      <g transform="translate(139.096875 367.663987)scale(0.1 -0.1)">
       <use xlink:href="#DejaVuSans-31"/>
       <use x="63.623047" xlink:href="#DejaVuSans-2e"/>
       <use x="95.410156" xlink:href="#DejaVuSans-35"/>
      </g>
     </g>
    </g>
    <g id="ytick_5">
     <g id="line2d_17">
      <g>
       <use style="stroke:#000000;stroke-width:0.8;" x="162" xlink:href="#ma1450048c8" y="228.833024"/>
      </g>
     </g>
     <g id="text_17">
      <!-- 2.0 -->
      <g transform="translate(139.096875 232.632243)scale(0.1 -0.1)">
       <defs>
        <path d="M 1228 531 
L 3431 531 
L 3431 0 
L 469 0 
L 469 531 
Q 828 903 1448 1529 
Q 2069 2156 2228 2338 
Q 2531 2678 2651 2914 
Q 2772 3150 2772 3378 
Q 2772 3750 2511 3984 
Q 2250 4219 1831 4219 
Q 1534 4219 1204 4116 
Q 875 4013 500 3803 
L 500 4441 
Q 881 4594 1212 4672 
Q 1544 4750 1819 4750 
Q 2544 4750 2975 4387 
Q 3406 4025 3406 3419 
Q 3406 3131 3298 2873 
Q 3191 2616 2906 2266 
Q 2828 2175 2409 1742 
Q 1991 1309 1228 531 
z
" id="DejaVuSans-32" transform="scale(0.015625)"/>
       </defs>
       <use xlink:href="#DejaVuSans-32"/>
       <use x="63.623047" xlink:href="#DejaVuSans-2e"/>
       <use x="95.410156" xlink:href="#DejaVuSans-30"/>
      </g>
     </g>
    </g>
    <g id="text_18">
     <!-- Persons fully vaccinated (tens of millions) -->
     <g transform="translate(133.017188 540.480156)rotate(-90)scale(0.1 -0.1)">
      <defs>
       <path d="M 1259 4147 
L 1259 2394 
L 2053 2394 
Q 2494 2394 2734 2622 
Q 2975 2850 2975 3272 
Q 2975 3691 2734 3919 
Q 2494 4147 2053 4147 
L 1259 4147 
z
M 628 4666 
L 2053 4666 
Q 2838 4666 3239 4311 
Q 3641 3956 3641 3272 
Q 3641 2581 3239 2228 
Q 2838 1875 2053 1875 
L 1259 1875 
L 1259 0 
L 628 0 
L 628 4666 
z
" id="DejaVuSans-50" transform="scale(0.015625)"/>
       <path id="DejaVuSans-20" transform="scale(0.015625)"/>
       <path d="M 2375 4863 
L 2375 4384 
L 1825 4384 
Q 1516 4384 1395 4259 
Q 1275 4134 1275 3809 
L 1275 3500 
L 2222 3500 
L 2222 3053 
L 1275 3053 
L 1275 0 
L 697 0 
L 697 3053 
L 147 3053 
L 147 3500 
L 697 3500 
L 697 3744 
Q 697 4328 969 4595 
Q 1241 4863 1831 4863 
L 2375 4863 
z
" id="DejaVuSans-66" transform="scale(0.015625)"/>
       <path d="M 2906 2969 
L 2906 4863 
L 3481 4863 
L 3481 0 
L 2906 0 
L 2906 525 
Q 2725 213 2448 61 
Q 2172 -91 1784 -91 
Q 1150 -91 751 415 
Q 353 922 353 1747 
Q 353 2572 751 3078 
Q 1150 3584 1784 3584 
Q 2172 3584 2448 3432 
Q 2725 3281 2906 2969 
z
M 947 1747 
Q 947 1113 1208 752 
Q 1469 391 1925 391 
Q 2381 391 2643 752 
Q 2906 1113 2906 1747 
Q 2906 2381 2643 2742 
Q 2381 3103 1925 3103 
Q 1469 3103 1208 2742 
Q 947 2381 947 1747 
z
" id="DejaVuSans-64" transform="scale(0.015625)"/>
       <path d="M 1984 4856 
Q 1566 4138 1362 3434 
Q 1159 2731 1159 2009 
Q 1159 1288 1364 580 
Q 1569 -128 1984 -844 
L 1484 -844 
Q 1016 -109 783 600 
Q 550 1309 550 2009 
Q 550 2706 781 3412 
Q 1013 4119 1484 4856 
L 1984 4856 
z
" id="DejaVuSans-28" transform="scale(0.015625)"/>
       <path d="M 513 4856 
L 1013 4856 
Q 1481 4119 1714 3412 
Q 1947 2706 1947 2009 
Q 1947 1309 1714 600 
Q 1481 -109 1013 -844 
L 513 -844 
Q 928 -128 1133 580 
Q 1338 1288 1338 2009 
Q 1338 2731 1133 3434 
Q 928 4138 513 4856 
z
" id="DejaVuSans-29" transform="scale(0.015625)"/>
      </defs>
      <use xlink:href="#DejaVuSans-50"/>
      <use x="56.677734" xlink:href="#DejaVuSans-65"/>
      <use x="118.201172" xlink:href="#DejaVuSans-72"/>
      <use x="159.314453" xlink:href="#DejaVuSans-73"/>
      <use x="211.414062" xlink:href="#DejaVuSans-6f"/>
      <use x="272.595703" xlink:href="#DejaVuSans-6e"/>
      <use x="335.974609" xlink:href="#DejaVuSans-73"/>
      <use x="388.074219" xlink:href="#DejaVuSans-20"/>
      <use x="419.861328" xlink:href="#DejaVuSans-66"/>
      <use x="455.066406" xlink:href="#DejaVuSans-75"/>
      <use x="518.445312" xlink:href="#DejaVuSans-6c"/>
      <use x="546.228516" xlink:href="#DejaVuSans-6c"/>
      <use x="574.011719" xlink:href="#DejaVuSans-79"/>
      <use x="633.191406" xlink:href="#DejaVuSans-20"/>
      <use x="664.978516" xlink:href="#DejaVuSans-76"/>
      <use x="724.158203" xlink:href="#DejaVuSans-61"/>
      <use x="785.4375" xlink:href="#DejaVuSans-63"/>
      <use x="840.417969" xlink:href="#DejaVuSans-63"/>
      <use x="895.398438" xlink:href="#DejaVuSans-69"/>
      <use x="923.181641" xlink:href="#DejaVuSans-6e"/>
      <use x="986.560547" xlink:href="#DejaVuSans-61"/>
      <use x="1047.839844" xlink:href="#DejaVuSans-74"/>
      <use x="1087.048828" xlink:href="#DejaVuSans-65"/>
      <use x="1148.572266" xlink:href="#DejaVuSans-64"/>
      <use x="1212.048828" xlink:href="#DejaVuSans-20"/>
      <use x="1243.835938" xlink:href="#DejaVuSans-28"/>
      <use x="1282.849609" xlink:href="#DejaVuSans-74"/>
      <use x="1322.058594" xlink:href="#DejaVuSans-65"/>
      <use x="1383.582031" xlink:href="#DejaVuSans-6e"/>
      <use x="1446.960938" xlink:href="#DejaVuSans-73"/>
      <use x="1499.060547" xlink:href="#DejaVuSans-20"/>
      <use x="1530.847656" xlink:href="#DejaVuSans-6f"/>
      <use x="1592.029297" xlink:href="#DejaVuSans-66"/>
      <use x="1627.234375" xlink:href="#DejaVuSans-20"/>
      <use x="1659.021484" xlink:href="#DejaVuSans-6d"/>
      <use x="1756.433594" xlink:href="#DejaVuSans-69"/>
      <use x="1784.216797" xlink:href="#DejaVuSans-6c"/>
      <use x="1812" xlink:href="#DejaVuSans-6c"/>
      <use x="1839.783203" xlink:href="#DejaVuSans-69"/>
      <use x="1867.566406" xlink:href="#DejaVuSans-6f"/>
      <use x="1928.748047" xlink:href="#DejaVuSans-6e"/>
      <use x="1992.126953" xlink:href="#DejaVuSans-73"/>
      <use x="2044.226562" xlink:href="#DejaVuSans-29"/>
     </g>
    </g>
    <g id="text_19">
     <!-- 1e7 -->
     <g transform="translate(162 100.68)scale(0.1 -0.1)">
      <defs>
       <path d="M 525 4666 
L 3525 4666 
L 3525 4397 
L 1831 0 
L 1172 0 
L 2766 4134 
L 525 4134 
L 525 4666 
z
" id="DejaVuSans-37" transform="scale(0.015625)"/>
      </defs>
      <use xlink:href="#DejaVuSans-31"/>
      <use x="63.623047" xlink:href="#DejaVuSans-65"/>
      <use x="125.146484" xlink:href="#DejaVuSans-37"/>
     </g>
    </g>
   </g>
   <g id="patch_341">
    <path d="M 162 768.96 
L 162 103.68 
" style="fill:none;stroke:#000000;stroke-linecap:square;stroke-linejoin:miter;stroke-width:0.8;"/>
   </g>
   <g id="patch_342">
    <path d="M 1166.4 768.96 
L 1166.4 103.68 
" style="fill:none;stroke:#000000;stroke-linecap:square;stroke-linejoin:miter;stroke-width:0.8;"/>
   </g>
   <g id="patch_343">
    <path d="M 162 768.96 
L 1166.4 768.96 
" style="fill:none;stroke:#000000;stroke-linecap:square;stroke-linejoin:miter;stroke-width:0.8;"/>
   </g>
   <g id="patch_344">
    <path d="M 162 103.68 
L 1166.4 103.68 
" style="fill:none;stroke:#000000;stroke-linecap:square;stroke-linejoin:miter;stroke-width:0.8;"/>
   </g>
   <g id="text_20">
    <!-- Persons Fully Vaccinated -->
    <g transform="translate(590.380313 97.68)scale(0.12 -0.12)">
     <defs>
      <path d="M 1831 0 
L 50 4666 
L 709 4666 
L 2188 738 
L 3669 4666 
L 4325 4666 
L 2547 0 
L 1831 0 
z
" id="DejaVuSans-56" transform="scale(0.015625)"/>
     </defs>
     <use xlink:href="#DejaVuSans-50"/>
     <use x="56.677734" xlink:href="#DejaVuSans-65"/>
     <use x="118.201172" xlink:href="#DejaVuSans-72"/>
     <use x="159.314453" xlink:href="#DejaVuSans-73"/>
     <use x="211.414062" xlink:href="#DejaVuSans-6f"/>
     <use x="272.595703" xlink:href="#DejaVuSans-6e"/>
     <use x="335.974609" xlink:href="#DejaVuSans-73"/>
     <use x="388.074219" xlink:href="#DejaVuSans-20"/>
     <use x="419.861328" xlink:href="#DejaVuSans-46"/>
     <use x="471.880859" xlink:href="#DejaVuSans-75"/>
     <use x="535.259766" xlink:href="#DejaVuSans-6c"/>
     <use x="563.042969" xlink:href="#DejaVuSans-6c"/>
     <use x="590.826172" xlink:href="#DejaVuSans-79"/>
     <use x="650.005859" xlink:href="#DejaVuSans-20"/>
     <use x="681.792969" xlink:href="#DejaVuSans-56"/>
     <use x="742.451172" xlink:href="#DejaVuSans-61"/>
     <use x="803.730469" xlink:href="#DejaVuSans-63"/>
     <use x="858.710938" xlink:href="#DejaVuSans-63"/>
     <use x="913.691406" xlink:href="#DejaVuSans-69"/>
     <use x="941.474609" xlink:href="#DejaVuSans-6e"/>
     <use x="1004.853516" xlink:href="#DejaVuSans-61"/>
     <use x="1066.132812" xlink:href="#DejaVuSans-74"/>
     <use x="1105.341797" xlink:href="#DejaVuSans-65"/>
     <use x="1166.865234" xlink:href="#DejaVuSans-64"/>
    </g>
   </g>
  </g>
 </g>
 <defs>
  <clipPath id="pa855f92abb">
   <rect height="665.28" width="1004.4" x="162" y="103.68"/>
  </clipPath>
 </defs>
</svg>
