<?xml version="1.0" encoding="utf-8" standalone="no"?>
<!DOCTYPE svg PUBLIC "-//W3C//DTD SVG 1.1//EN"
  "http://www.w3.org/Graphics/SVG/1.1/DTD/svg11.dtd">
<svg height="864pt" version="1.1" viewBox="0 0 1296 864" width="1296pt" xmlns="http://www.w3.org/2000/svg" xmlns:xlink="http://www.w3.org/1999/xlink">
 <metadata>
  <rdf:RDF xmlns:cc="http://creativecommons.org/ns#" xmlns:dc="http://purl.org/dc/elements/1.1/" xmlns:rdf="http://www.w3.org/1999/02/22-rdf-syntax-ns#">
   <cc:Work>
    <dc:type rdf:resource="http://purl.org/dc/dcmitype/StillImage"/>
    <dc:date>2021-11-12T19:17:48.923062</dc:date>
    <dc:format>image/svg+xml</dc:format>
    <dc:creator>
     <cc:Agent>
      <dc:title>Matplotlib v3.4.2, https://matplotlib.org/</dc:title>
     </cc:Agent>
    </dc:creator>
   </cc:Work>
  </rdf:RDF>
 </metadata>
 <defs>
  <style type="text/css">*{stroke-linecap:butt;stroke-linejoin:round;}</style>
 </defs>
 <g id="figure_1">
  <g id="patch_1">
   <path d="M 0 864 
L 1296 864 
L 1296 0 
L 0 0 
z
" style="fill:#ffffff;"/>
  </g>
  <g id="axes_1">
   <g id="patch_2">
    <path d="M 162 768.96 
L 1166.4 768.96 
L 1166.4 103.68 
L 162 103.68 
z
" style="fill:#ffffff;"/>
   </g>
   <g id="patch_3">
    <path clip-path="url(#p5f93c3ba30)" d="M 162.797143 768.96 
L 164.391429 768.96 
L 164.391429 768.948267 
L 162.797143 768.948267 
z
" style="fill:#1f77b4;"/>
   </g>
   <g id="patch_4">
    <path clip-path="url(#p5f93c3ba30)" d="M 165.985714 768.96 
L 167.58 768.96 
L 167.58 768.96 
L 165.985714 768.96 
z
" style="fill:#1f77b4;"/>
   </g>
   <g id="patch_5">
    <path clip-path="url(#p5f93c3ba30)" d="M 169.174286 768.96 
L 170.768571 768.96 
L 170.768571 768.96 
L 169.174286 768.96 
z
" style="fill:#1f77b4;"/>
   </g>
   <g id="patch_6">
    <path clip-path="url(#p5f93c3ba30)" d="M 172.362857 768.96 
L 173.957143 768.96 
L 173.957143 768.209074 
L 172.362857 768.209074 
z
" style="fill:#1f77b4;"/>
   </g>
   <g id="patch_7">
    <path clip-path="url(#p5f93c3ba30)" d="M 175.551429 768.96 
L 177.145714 768.96 
L 177.145714 766.971218 
L 175.551429 766.971218 
z
" style="fill:#1f77b4;"/>
   </g>
   <g id="patch_8">
    <path clip-path="url(#p5f93c3ba30)" d="M 178.74 768.96 
L 180.334286 768.96 
L 180.334286 754.797998 
L 178.74 754.797998 
z
" style="fill:#1f77b4;"/>
   </g>
   <g id="patch_9">
    <path clip-path="url(#p5f93c3ba30)" d="M 181.928571 768.96 
L 183.522857 768.96 
L 183.522857 666.998277 
L 181.928571 666.998277 
z
" style="fill:#1f77b4;"/>
   </g>
   <g id="patch_10">
    <path clip-path="url(#p5f93c3ba30)" d="M 185.117143 768.96 
L 186.711429 768.96 
L 186.711429 646.031005 
L 185.117143 646.031005 
z
" style="fill:#1f77b4;"/>
   </g>
   <g id="patch_11">
    <path clip-path="url(#p5f93c3ba30)" d="M 188.305714 768.96 
L 189.9 768.96 
L 189.9 701.816622 
L 188.305714 701.816622 
z
" style="fill:#1f77b4;"/>
   </g>
   <g id="patch_12">
    <path clip-path="url(#p5f93c3ba30)" d="M 191.494286 768.96 
L 193.088571 768.96 
L 193.088571 728.31611 
L 191.494286 728.31611 
z
" style="fill:#1f77b4;"/>
   </g>
   <g id="patch_13">
    <path clip-path="url(#p5f93c3ba30)" d="M 194.682857 768.96 
L 196.277143 768.96 
L 196.277143 705.307256 
L 194.682857 705.307256 
z
" style="fill:#1f77b4;"/>
   </g>
   <g id="patch_14">
    <path clip-path="url(#p5f93c3ba30)" d="M 197.871429 768.96 
L 199.465714 768.96 
L 199.465714 708.457627 
L 197.871429 708.457627 
z
" style="fill:#1f77b4;"/>
   </g>
   <g id="patch_15">
    <path clip-path="url(#p5f93c3ba30)" d="M 201.06 768.96 
L 202.654286 768.96 
L 202.654286 719.398859 
L 201.06 719.398859 
z
" style="fill:#1f77b4;"/>
   </g>
   <g id="patch_16">
    <path clip-path="url(#p5f93c3ba30)" d="M 204.248571 768.96 
L 205.842857 768.96 
L 205.842857 708.393094 
L 204.248571 708.393094 
z
" style="fill:#1f77b4;"/>
   </g>
   <g id="patch_17">
    <path clip-path="url(#p5f93c3ba30)" d="M 207.437143 768.96 
L 209.031429 768.96 
L 209.031429 756.575581 
L 207.437143 756.575581 
z
" style="fill:#1f77b4;"/>
   </g>
   <g id="patch_18">
    <path clip-path="url(#p5f93c3ba30)" d="M 210.625714 768.96 
L 212.22 768.96 
L 212.22 761.274738 
L 210.625714 761.274738 
z
" style="fill:#1f77b4;"/>
   </g>
   <g id="patch_19">
    <path clip-path="url(#p5f93c3ba30)" d="M 213.814286 768.96 
L 215.408571 768.96 
L 215.408571 765.293367 
L 213.814286 765.293367 
z
" style="fill:#1f77b4;"/>
   </g>
   <g id="patch_20">
    <path clip-path="url(#p5f93c3ba30)" d="M 217.002857 768.96 
L 218.597143 768.96 
L 218.597143 752.134556 
L 217.002857 752.134556 
z
" style="fill:#1f77b4;"/>
   </g>
   <g id="patch_21">
    <path clip-path="url(#p5f93c3ba30)" d="M 220.191429 768.96 
L 221.785714 768.96 
L 221.785714 742.466379 
L 220.191429 742.466379 
z
" style="fill:#1f77b4;"/>
   </g>
   <g id="patch_22">
    <path clip-path="url(#p5f93c3ba30)" d="M 223.38 768.96 
L 224.974286 768.96 
L 224.974286 720.419649 
L 223.38 720.419649 
z
" style="fill:#1f77b4;"/>
   </g>
   <g id="patch_23">
    <path clip-path="url(#p5f93c3ba30)" d="M 226.568571 768.96 
L 228.162857 768.96 
L 228.162857 719.979654 
L 226.568571 719.979654 
z
" style="fill:#1f77b4;"/>
   </g>
   <g id="patch_24">
    <path clip-path="url(#p5f93c3ba30)" d="M 229.757143 768.96 
L 231.351429 768.96 
L 231.351429 732.059008 
L 229.757143 732.059008 
z
" style="fill:#1f77b4;"/>
   </g>
   <g id="patch_25">
    <path clip-path="url(#p5f93c3ba30)" d="M 232.945714 768.96 
L 234.54 768.96 
L 234.54 755.325993 
L 232.945714 755.325993 
z
" style="fill:#1f77b4;"/>
   </g>
   <g id="patch_26">
    <path clip-path="url(#p5f93c3ba30)" d="M 236.134286 768.96 
L 237.728571 768.96 
L 237.728571 751.671093 
L 236.134286 751.671093 
z
" style="fill:#1f77b4;"/>
   </g>
   <g id="patch_27">
    <path clip-path="url(#p5f93c3ba30)" d="M 239.322857 768.96 
L 240.917143 768.96 
L 240.917143 720.883112 
L 239.322857 720.883112 
z
" style="fill:#1f77b4;"/>
   </g>
   <g id="patch_28">
    <path clip-path="url(#p5f93c3ba30)" d="M 242.511429 768.96 
L 244.105714 768.96 
L 244.105714 687.343689 
L 242.511429 687.343689 
z
" style="fill:#1f77b4;"/>
   </g>
   <g id="patch_29">
    <path clip-path="url(#p5f93c3ba30)" d="M 245.7 768.96 
L 247.294286 768.96 
L 247.294286 659.688478 
L 245.7 659.688478 
z
" style="fill:#1f77b4;"/>
   </g>
   <g id="patch_30">
    <path clip-path="url(#p5f93c3ba30)" d="M 248.888571 768.96 
L 250.482857 768.96 
L 250.482857 675.088336 
L 248.888571 675.088336 
z
" style="fill:#1f77b4;"/>
   </g>
   <g id="patch_31">
    <path clip-path="url(#p5f93c3ba30)" d="M 252.077143 768.96 
L 253.671429 768.96 
L 253.671429 689.033273 
L 252.077143 689.033273 
z
" style="fill:#1f77b4;"/>
   </g>
   <g id="patch_32">
    <path clip-path="url(#p5f93c3ba30)" d="M 255.265714 768.96 
L 256.86 768.96 
L 256.86 725.183339 
L 255.265714 725.183339 
z
" style="fill:#1f77b4;"/>
   </g>
   <g id="patch_33">
    <path clip-path="url(#p5f93c3ba30)" d="M 258.454286 768.96 
L 260.048571 768.96 
L 260.048571 744.906889 
L 258.454286 744.906889 
z
" style="fill:#1f77b4;"/>
   </g>
   <g id="patch_34">
    <path clip-path="url(#p5f93c3ba30)" d="M 261.642857 768.96 
L 263.237143 768.96 
L 263.237143 721.334841 
L 261.642857 721.334841 
z
" style="fill:#1f77b4;"/>
   </g>
   <g id="patch_35">
    <path clip-path="url(#p5f93c3ba30)" d="M 264.831429 768.96 
L 266.425714 768.96 
L 266.425714 669.91985 
L 264.831429 669.91985 
z
" style="fill:#1f77b4;"/>
   </g>
   <g id="patch_36">
    <path clip-path="url(#p5f93c3ba30)" d="M 268.02 768.96 
L 269.614286 768.96 
L 269.614286 693.398033 
L 268.02 693.398033 
z
" style="fill:#1f77b4;"/>
   </g>
   <g id="patch_37">
    <path clip-path="url(#p5f93c3ba30)" d="M 271.208571 768.96 
L 272.802857 768.96 
L 272.802857 678.696302 
L 271.208571 678.696302 
z
" style="fill:#1f77b4;"/>
   </g>
   <g id="patch_38">
    <path clip-path="url(#p5f93c3ba30)" d="M 274.397143 768.96 
L 275.991429 768.96 
L 275.991429 688.100482 
L 274.397143 688.100482 
z
" style="fill:#1f77b4;"/>
   </g>
   <g id="patch_39">
    <path clip-path="url(#p5f93c3ba30)" d="M 277.585714 768.96 
L 279.18 768.96 
L 279.18 703.054477 
L 277.585714 703.054477 
z
" style="fill:#1f77b4;"/>
   </g>
   <g id="patch_40">
    <path clip-path="url(#p5f93c3ba30)" d="M 280.774286 768.96 
L 282.368571 768.96 
L 282.368571 745.59915 
L 280.774286 745.59915 
z
" style="fill:#1f77b4;"/>
   </g>
   <g id="patch_41">
    <path clip-path="url(#p5f93c3ba30)" d="M 283.962857 768.96 
L 285.557143 768.96 
L 285.557143 702.039553 
L 283.962857 702.039553 
z
" style="fill:#1f77b4;"/>
   </g>
   <g id="patch_42">
    <path clip-path="url(#p5f93c3ba30)" d="M 287.151429 768.96 
L 288.745714 768.96 
L 288.745714 676.073927 
L 287.151429 676.073927 
z
" style="fill:#1f77b4;"/>
   </g>
   <g id="patch_43">
    <path clip-path="url(#p5f93c3ba30)" d="M 290.34 768.96 
L 291.934286 768.96 
L 291.934286 654.408527 
L 290.34 654.408527 
z
" style="fill:#1f77b4;"/>
   </g>
   <g id="patch_44">
    <path clip-path="url(#p5f93c3ba30)" d="M 293.528571 768.96 
L 295.122857 768.96 
L 295.122857 605.023385 
L 293.528571 605.023385 
z
" style="fill:#1f77b4;"/>
   </g>
   <g id="patch_45">
    <path clip-path="url(#p5f93c3ba30)" d="M 296.717143 768.96 
L 298.311429 768.96 
L 298.311429 626.307454 
L 296.717143 626.307454 
z
" style="fill:#1f77b4;"/>
   </g>
   <g id="patch_46">
    <path clip-path="url(#p5f93c3ba30)" d="M 299.905714 768.96 
L 301.5 768.96 
L 301.5 682.574133 
L 299.905714 682.574133 
z
" style="fill:#1f77b4;"/>
   </g>
   <g id="patch_47">
    <path clip-path="url(#p5f93c3ba30)" d="M 303.094286 768.96 
L 304.688571 768.96 
L 304.688571 721.956702 
L 303.094286 721.956702 
z
" style="fill:#1f77b4;"/>
   </g>
   <g id="patch_48">
    <path clip-path="url(#p5f93c3ba30)" d="M 306.282857 768.96 
L 307.877143 768.96 
L 307.877143 720.976978 
L 306.282857 720.976978 
z
" style="fill:#1f77b4;"/>
   </g>
   <g id="patch_49">
    <path clip-path="url(#p5f93c3ba30)" d="M 309.471429 768.96 
L 311.065714 768.96 
L 311.065714 678.854701 
L 309.471429 678.854701 
z
" style="fill:#1f77b4;"/>
   </g>
   <g id="patch_50">
    <path clip-path="url(#p5f93c3ba30)" d="M 312.66 768.96 
L 314.254286 768.96 
L 314.254286 622.212559 
L 312.66 622.212559 
z
" style="fill:#1f77b4;"/>
   </g>
   <g id="patch_51">
    <path clip-path="url(#p5f93c3ba30)" d="M 315.848571 768.96 
L 317.442857 768.96 
L 317.442857 578.1719 
L 315.848571 578.1719 
z
" style="fill:#1f77b4;"/>
   </g>
   <g id="patch_52">
    <path clip-path="url(#p5f93c3ba30)" d="M 319.037143 768.96 
L 320.631429 768.96 
L 320.631429 584.918504 
L 319.037143 584.918504 
z
" style="fill:#1f77b4;"/>
   </g>
   <g id="patch_53">
    <path clip-path="url(#p5f93c3ba30)" d="M 322.225714 768.96 
L 323.82 768.96 
L 323.82 740.407198 
L 322.225714 740.407198 
z
" style="fill:#1f77b4;"/>
   </g>
   <g id="patch_54">
    <path clip-path="url(#p5f93c3ba30)" d="M 325.414286 768.96 
L 327.008571 768.96 
L 327.008571 636.931889 
L 325.414286 636.931889 
z
" style="fill:#1f77b4;"/>
   </g>
   <g id="patch_55">
    <path clip-path="url(#p5f93c3ba30)" d="M 328.602857 768.96 
L 330.197143 768.96 
L 330.197143 662.574852 
L 328.602857 662.574852 
z
" style="fill:#1f77b4;"/>
   </g>
   <g id="patch_56">
    <path clip-path="url(#p5f93c3ba30)" d="M 331.791429 768.96 
L 333.385714 768.96 
L 333.385714 613.524106 
L 331.791429 613.524106 
z
" style="fill:#1f77b4;"/>
   </g>
   <g id="patch_57">
    <path clip-path="url(#p5f93c3ba30)" d="M 334.98 768.96 
L 336.574286 768.96 
L 336.574286 464.072156 
L 334.98 464.072156 
z
" style="fill:#1f77b4;"/>
   </g>
   <g id="patch_58">
    <path clip-path="url(#p5f93c3ba30)" d="M 338.168571 768.96 
L 339.762857 768.96 
L 339.762857 460.816187 
L 338.168571 460.816187 
z
" style="fill:#1f77b4;"/>
   </g>
   <g id="patch_59">
    <path clip-path="url(#p5f93c3ba30)" d="M 341.357143 768.96 
L 342.951429 768.96 
L 342.951429 495.200401 
L 341.357143 495.200401 
z
" style="fill:#1f77b4;"/>
   </g>
   <g id="patch_60">
    <path clip-path="url(#p5f93c3ba30)" d="M 344.545714 768.96 
L 346.14 768.96 
L 346.14 532.242192 
L 344.545714 532.242192 
z
" style="fill:#1f77b4;"/>
   </g>
   <g id="patch_61">
    <path clip-path="url(#p5f93c3ba30)" d="M 347.734286 768.96 
L 349.328571 768.96 
L 349.328571 657.077836 
L 347.734286 657.077836 
z
" style="fill:#1f77b4;"/>
   </g>
   <g id="patch_62">
    <path clip-path="url(#p5f93c3ba30)" d="M 350.922857 768.96 
L 352.517143 768.96 
L 352.517143 596.235199 
L 350.922857 596.235199 
z
" style="fill:#1f77b4;"/>
   </g>
   <g id="patch_63">
    <path clip-path="url(#p5f93c3ba30)" d="M 354.111429 768.96 
L 355.705714 768.96 
L 355.705714 540.273584 
L 354.111429 540.273584 
z
" style="fill:#1f77b4;"/>
   </g>
   <g id="patch_64">
    <path clip-path="url(#p5f93c3ba30)" d="M 357.3 768.96 
L 358.894286 768.96 
L 358.894286 503.871255 
L 357.3 503.871255 
z
" style="fill:#1f77b4;"/>
   </g>
   <g id="patch_65">
    <path clip-path="url(#p5f93c3ba30)" d="M 360.488571 768.96 
L 362.082857 768.96 
L 362.082857 379.346541 
L 360.488571 379.346541 
z
" style="fill:#1f77b4;"/>
   </g>
   <g id="patch_66">
    <path clip-path="url(#p5f93c3ba30)" d="M 363.677143 768.96 
L 365.271429 768.96 
L 365.271429 397.204509 
L 363.677143 397.204509 
z
" style="fill:#1f77b4;"/>
   </g>
   <g id="patch_67">
    <path clip-path="url(#p5f93c3ba30)" d="M 366.865714 768.96 
L 368.46 768.96 
L 368.46 494.965737 
L 366.865714 494.965737 
z
" style="fill:#1f77b4;"/>
   </g>
   <g id="patch_68">
    <path clip-path="url(#p5f93c3ba30)" d="M 370.054286 768.96 
L 371.648571 768.96 
L 371.648571 681.47121 
L 370.054286 681.47121 
z
" style="fill:#1f77b4;"/>
   </g>
   <g id="patch_69">
    <path clip-path="url(#p5f93c3ba30)" d="M 373.242857 768.96 
L 374.837143 768.96 
L 374.837143 529.549417 
L 373.242857 529.549417 
z
" style="fill:#1f77b4;"/>
   </g>
   <g id="patch_70">
    <path clip-path="url(#p5f93c3ba30)" d="M 376.431429 768.96 
L 378.025714 768.96 
L 378.025714 461.643379 
L 376.431429 461.643379 
z
" style="fill:#1f77b4;"/>
   </g>
   <g id="patch_71">
    <path clip-path="url(#p5f93c3ba30)" d="M 379.62 768.96 
L 381.214286 768.96 
L 381.214286 431.670856 
L 379.62 431.670856 
z
" style="fill:#1f77b4;"/>
   </g>
   <g id="patch_72">
    <path clip-path="url(#p5f93c3ba30)" d="M 382.808571 768.96 
L 384.402857 768.96 
L 384.402857 402.724991 
L 382.808571 402.724991 
z
" style="fill:#1f77b4;"/>
   </g>
   <g id="patch_73">
    <path clip-path="url(#p5f93c3ba30)" d="M 385.997143 768.96 
L 387.591429 768.96 
L 387.591429 350.987337 
L 385.997143 350.987337 
z
" style="fill:#1f77b4;"/>
   </g>
   <g id="patch_74">
    <path clip-path="url(#p5f93c3ba30)" d="M 389.185714 768.96 
L 390.78 768.96 
L 390.78 500.990748 
L 389.185714 500.990748 
z
" style="fill:#1f77b4;"/>
   </g>
   <g id="patch_75">
    <path clip-path="url(#p5f93c3ba30)" d="M 392.374286 768.96 
L 393.968571 768.96 
L 393.968571 501.278212 
L 392.374286 501.278212 
z
" style="fill:#1f77b4;"/>
   </g>
   <g id="patch_76">
    <path clip-path="url(#p5f93c3ba30)" d="M 395.562857 768.96 
L 397.157143 768.96 
L 397.157143 529.965946 
L 395.562857 529.965946 
z
" style="fill:#1f77b4;"/>
   </g>
   <g id="patch_77">
    <path clip-path="url(#p5f93c3ba30)" d="M 398.751429 768.96 
L 400.345714 768.96 
L 400.345714 502.158204 
L 398.751429 502.158204 
z
" style="fill:#1f77b4;"/>
   </g>
   <g id="patch_78">
    <path clip-path="url(#p5f93c3ba30)" d="M 401.94 768.96 
L 403.534286 768.96 
L 403.534286 531.502999 
L 401.94 531.502999 
z
" style="fill:#1f77b4;"/>
   </g>
   <g id="patch_79">
    <path clip-path="url(#p5f93c3ba30)" d="M 405.128571 768.96 
L 406.722857 768.96 
L 406.722857 497.981176 
L 405.128571 497.981176 
z
" style="fill:#1f77b4;"/>
   </g>
   <g id="patch_80">
    <path clip-path="url(#p5f93c3ba30)" d="M 408.317143 768.96 
L 409.911429 768.96 
L 409.911429 486.377017 
L 408.317143 486.377017 
z
" style="fill:#1f77b4;"/>
   </g>
   <g id="patch_81">
    <path clip-path="url(#p5f93c3ba30)" d="M 411.505714 768.96 
L 413.1 768.96 
L 413.1 595.120543 
L 411.505714 595.120543 
z
" style="fill:#1f77b4;"/>
   </g>
   <g id="patch_82">
    <path clip-path="url(#p5f93c3ba30)" d="M 414.694286 768.96 
L 416.288571 768.96 
L 416.288571 674.971004 
L 414.694286 674.971004 
z
" style="fill:#1f77b4;"/>
   </g>
   <g id="patch_83">
    <path clip-path="url(#p5f93c3ba30)" d="M 417.882857 768.96 
L 419.477143 768.96 
L 419.477143 619.343785 
L 417.882857 619.343785 
z
" style="fill:#1f77b4;"/>
   </g>
   <g id="patch_84">
    <path clip-path="url(#p5f93c3ba30)" d="M 421.071429 768.96 
L 422.665714 768.96 
L 422.665714 586.203292 
L 421.071429 586.203292 
z
" style="fill:#1f77b4;"/>
   </g>
   <g id="patch_85">
    <path clip-path="url(#p5f93c3ba30)" d="M 424.26 768.96 
L 425.854286 768.96 
L 425.854286 577.948969 
L 424.26 577.948969 
z
" style="fill:#1f77b4;"/>
   </g>
   <g id="patch_86">
    <path clip-path="url(#p5f93c3ba30)" d="M 427.448571 768.96 
L 429.042857 768.96 
L 429.042857 527.560635 
L 427.448571 527.560635 
z
" style="fill:#1f77b4;"/>
   </g>
   <g id="patch_87">
    <path clip-path="url(#p5f93c3ba30)" d="M 430.637143 768.96 
L 432.231429 768.96 
L 432.231429 465.755874 
L 430.637143 465.755874 
z
" style="fill:#1f77b4;"/>
   </g>
   <g id="patch_88">
    <path clip-path="url(#p5f93c3ba30)" d="M 433.825714 768.96 
L 435.42 768.96 
L 435.42 502.967796 
L 433.825714 502.967796 
z
" style="fill:#1f77b4;"/>
   </g>
   <g id="patch_89">
    <path clip-path="url(#p5f93c3ba30)" d="M 437.014286 768.96 
L 438.608571 768.96 
L 438.608571 663.607375 
L 437.014286 663.607375 
z
" style="fill:#1f77b4;"/>
   </g>
   <g id="patch_90">
    <path clip-path="url(#p5f93c3ba30)" d="M 440.202857 768.96 
L 441.797143 768.96 
L 441.797143 605.563113 
L 440.202857 605.563113 
z
" style="fill:#1f77b4;"/>
   </g>
   <g id="patch_91">
    <path clip-path="url(#p5f93c3ba30)" d="M 443.391429 768.96 
L 444.985714 768.96 
L 444.985714 474.937122 
L 443.391429 474.937122 
z
" style="fill:#1f77b4;"/>
   </g>
   <g id="patch_92">
    <path clip-path="url(#p5f93c3ba30)" d="M 446.58 768.96 
L 448.174286 768.96 
L 448.174286 518.660984 
L 446.58 518.660984 
z
" style="fill:#1f77b4;"/>
   </g>
   <g id="patch_93">
    <path clip-path="url(#p5f93c3ba30)" d="M 449.768571 768.96 
L 451.362857 768.96 
L 451.362857 421.93228 
L 449.768571 421.93228 
z
" style="fill:#1f77b4;"/>
   </g>
   <g id="patch_94">
    <path clip-path="url(#p5f93c3ba30)" d="M 452.957143 768.96 
L 454.551429 768.96 
L 454.551429 417.051258 
L 452.957143 417.051258 
z
" style="fill:#1f77b4;"/>
   </g>
   <g id="patch_95">
    <path clip-path="url(#p5f93c3ba30)" d="M 456.145714 768.96 
L 457.74 768.96 
L 457.74 494.643073 
L 456.145714 494.643073 
z
" style="fill:#1f77b4;"/>
   </g>
   <g id="patch_96">
    <path clip-path="url(#p5f93c3ba30)" d="M 459.334286 768.96 
L 460.928571 768.96 
L 460.928571 693.046036 
L 459.334286 693.046036 
z
" style="fill:#1f77b4;"/>
   </g>
   <g id="patch_97">
    <path clip-path="url(#p5f93c3ba30)" d="M 462.522857 768.96 
L 464.117143 768.96 
L 464.117143 508.816809 
L 462.522857 508.816809 
z
" style="fill:#1f77b4;"/>
   </g>
   <g id="patch_98">
    <path clip-path="url(#p5f93c3ba30)" d="M 465.711429 768.96 
L 467.305714 768.96 
L 467.305714 370.710887 
L 465.711429 370.710887 
z
" style="fill:#1f77b4;"/>
   </g>
   <g id="patch_99">
    <path clip-path="url(#p5f93c3ba30)" d="M 468.9 768.96 
L 470.494286 768.96 
L 470.494286 329.474469 
L 468.9 329.474469 
z
" style="fill:#1f77b4;"/>
   </g>
   <g id="patch_100">
    <path clip-path="url(#p5f93c3ba30)" d="M 472.088571 768.96 
L 473.682857 768.96 
L 473.682857 238.131315 
L 472.088571 238.131315 
z
" style="fill:#1f77b4;"/>
   </g>
   <g id="patch_101">
    <path clip-path="url(#p5f93c3ba30)" d="M 475.277143 768.96 
L 476.871429 768.96 
L 476.871429 135.36 
L 475.277143 135.36 
z
" style="fill:#1f77b4;"/>
   </g>
   <g id="patch_102">
    <path clip-path="url(#p5f93c3ba30)" d="M 478.465714 768.96 
L 480.06 768.96 
L 480.06 340.855697 
L 478.465714 340.855697 
z
" style="fill:#1f77b4;"/>
   </g>
   <g id="patch_103">
    <path clip-path="url(#p5f93c3ba30)" d="M 481.654286 768.96 
L 483.248571 768.96 
L 483.248571 564.238696 
L 481.654286 564.238696 
z
" style="fill:#1f77b4;"/>
   </g>
   <g id="patch_104">
    <path clip-path="url(#p5f93c3ba30)" d="M 484.842857 768.96 
L 486.437143 768.96 
L 486.437143 419.673634 
L 484.842857 419.673634 
z
" style="fill:#1f77b4;"/>
   </g>
   <g id="patch_105">
    <path clip-path="url(#p5f93c3ba30)" d="M 488.031429 768.96 
L 489.625714 768.96 
L 489.625714 336.567204 
L 488.031429 336.567204 
z
" style="fill:#1f77b4;"/>
   </g>
   <g id="patch_106">
    <path clip-path="url(#p5f93c3ba30)" d="M 491.22 768.96 
L 492.814286 768.96 
L 492.814286 396.477049 
L 491.22 396.477049 
z
" style="fill:#1f77b4;"/>
   </g>
   <g id="patch_107">
    <path clip-path="url(#p5f93c3ba30)" d="M 494.408571 768.96 
L 496.002857 768.96 
L 496.002857 261.275101 
L 494.408571 261.275101 
z
" style="fill:#1f77b4;"/>
   </g>
   <g id="patch_108">
    <path clip-path="url(#p5f93c3ba30)" d="M 497.597143 768.96 
L 499.191429 768.96 
L 499.191429 268.502767 
L 497.597143 268.502767 
z
" style="fill:#1f77b4;"/>
   </g>
   <g id="patch_109">
    <path clip-path="url(#p5f93c3ba30)" d="M 500.785714 768.96 
L 502.38 768.96 
L 502.38 416.54673 
L 500.785714 416.54673 
z
" style="fill:#1f77b4;"/>
   </g>
   <g id="patch_110">
    <path clip-path="url(#p5f93c3ba30)" d="M 503.974286 768.96 
L 505.568571 768.96 
L 505.568571 564.848823 
L 503.974286 564.848823 
z
" style="fill:#1f77b4;"/>
   </g>
   <g id="patch_111">
    <path clip-path="url(#p5f93c3ba30)" d="M 507.162857 768.96 
L 508.757143 768.96 
L 508.757143 477.049103 
L 507.162857 477.049103 
z
" style="fill:#1f77b4;"/>
   </g>
   <g id="patch_112">
    <path clip-path="url(#p5f93c3ba30)" d="M 510.351429 768.96 
L 511.945714 768.96 
L 511.945714 298.346224 
L 510.351429 298.346224 
z
" style="fill:#1f77b4;"/>
   </g>
   <g id="patch_113">
    <path clip-path="url(#p5f93c3ba30)" d="M 513.54 768.96 
L 515.134286 768.96 
L 515.134286 352.348391 
L 513.54 352.348391 
z
" style="fill:#1f77b4;"/>
   </g>
   <g id="patch_114">
    <path clip-path="url(#p5f93c3ba30)" d="M 516.728571 768.96 
L 518.322857 768.96 
L 518.322857 331.304852 
L 516.728571 331.304852 
z
" style="fill:#1f77b4;"/>
   </g>
   <g id="patch_115">
    <path clip-path="url(#p5f93c3ba30)" d="M 519.917143 768.96 
L 521.511429 768.96 
L 521.511429 363.682686 
L 519.917143 363.682686 
z
" style="fill:#1f77b4;"/>
   </g>
   <g id="patch_116">
    <path clip-path="url(#p5f93c3ba30)" d="M 523.105714 768.96 
L 524.7 768.96 
L 524.7 500.280888 
L 523.105714 500.280888 
z
" style="fill:#1f77b4;"/>
   </g>
   <g id="patch_117">
    <path clip-path="url(#p5f93c3ba30)" d="M 526.294286 768.96 
L 527.888571 768.96 
L 527.888571 658.650088 
L 526.294286 658.650088 
z
" style="fill:#1f77b4;"/>
   </g>
   <g id="patch_118">
    <path clip-path="url(#p5f93c3ba30)" d="M 529.482857 768.96 
L 531.077143 768.96 
L 531.077143 516.20874 
L 529.482857 516.20874 
z
" style="fill:#1f77b4;"/>
   </g>
   <g id="patch_119">
    <path clip-path="url(#p5f93c3ba30)" d="M 532.671429 768.96 
L 534.265714 768.96 
L 534.265714 407.776144 
L 532.671429 407.776144 
z
" style="fill:#1f77b4;"/>
   </g>
   <g id="patch_120">
    <path clip-path="url(#p5f93c3ba30)" d="M 535.86 768.96 
L 537.454286 768.96 
L 537.454286 393.268012 
L 535.86 393.268012 
z
" style="fill:#1f77b4;"/>
   </g>
   <g id="patch_121">
    <path clip-path="url(#p5f93c3ba30)" d="M 539.048571 768.96 
L 540.642857 768.96 
L 540.642857 406.649755 
L 539.048571 406.649755 
z
" style="fill:#1f77b4;"/>
   </g>
   <g id="patch_122">
    <path clip-path="url(#p5f93c3ba30)" d="M 542.237143 768.96 
L 543.831429 768.96 
L 543.831429 454.433312 
L 542.237143 454.433312 
z
" style="fill:#1f77b4;"/>
   </g>
   <g id="patch_123">
    <path clip-path="url(#p5f93c3ba30)" d="M 545.425714 768.96 
L 547.02 768.96 
L 547.02 626.448253 
L 545.425714 626.448253 
z
" style="fill:#1f77b4;"/>
   </g>
   <g id="patch_124">
    <path clip-path="url(#p5f93c3ba30)" d="M 548.614286 768.96 
L 550.208571 768.96 
L 550.208571 723.364689 
L 548.614286 723.364689 
z
" style="fill:#1f77b4;"/>
   </g>
   <g id="patch_125">
    <path clip-path="url(#p5f93c3ba30)" d="M 551.802857 768.96 
L 553.397143 768.96 
L 553.397143 612.579581 
L 551.802857 612.579581 
z
" style="fill:#1f77b4;"/>
   </g>
   <g id="patch_126">
    <path clip-path="url(#p5f93c3ba30)" d="M 554.991429 768.96 
L 556.585714 768.96 
L 556.585714 363.236823 
L 554.991429 363.236823 
z
" style="fill:#1f77b4;"/>
   </g>
   <g id="patch_127">
    <path clip-path="url(#p5f93c3ba30)" d="M 558.18 768.96 
L 559.774286 768.96 
L 559.774286 371.479414 
L 558.18 371.479414 
z
" style="fill:#1f77b4;"/>
   </g>
   <g id="patch_128">
    <path clip-path="url(#p5f93c3ba30)" d="M 561.368571 768.96 
L 562.962857 768.96 
L 562.962857 470.449164 
L 561.368571 470.449164 
z
" style="fill:#1f77b4;"/>
   </g>
   <g id="patch_129">
    <path clip-path="url(#p5f93c3ba30)" d="M 564.557143 768.96 
L 566.151429 768.96 
L 566.151429 352.80012 
L 564.557143 352.80012 
z
" style="fill:#1f77b4;"/>
   </g>
   <g id="patch_130">
    <path clip-path="url(#p5f93c3ba30)" d="M 567.745714 768.96 
L 569.34 768.96 
L 569.34 479.648012 
L 567.745714 479.648012 
z
" style="fill:#1f77b4;"/>
   </g>
   <g id="patch_131">
    <path clip-path="url(#p5f93c3ba30)" d="M 570.934286 768.96 
L 572.528571 768.96 
L 572.528571 500.556619 
L 570.934286 500.556619 
z
" style="fill:#1f77b4;"/>
   </g>
   <g id="patch_132">
    <path clip-path="url(#p5f93c3ba30)" d="M 574.122857 768.96 
L 575.717143 768.96 
L 575.717143 528.346761 
L 574.122857 528.346761 
z
" style="fill:#1f77b4;"/>
   </g>
   <g id="patch_133">
    <path clip-path="url(#p5f93c3ba30)" d="M 577.311429 768.96 
L 578.905714 768.96 
L 578.905714 461.197516 
L 577.311429 461.197516 
z
" style="fill:#1f77b4;"/>
   </g>
   <g id="patch_134">
    <path clip-path="url(#p5f93c3ba30)" d="M 580.5 768.96 
L 582.094286 768.96 
L 582.094286 489.814851 
L 580.5 489.814851 
z
" style="fill:#1f77b4;"/>
   </g>
   <g id="patch_135">
    <path clip-path="url(#p5f93c3ba30)" d="M 583.688571 768.96 
L 585.282857 768.96 
L 585.282857 478.09336 
L 583.688571 478.09336 
z
" style="fill:#1f77b4;"/>
   </g>
   <g id="patch_136">
    <path clip-path="url(#p5f93c3ba30)" d="M 586.877143 768.96 
L 588.471429 768.96 
L 588.471429 349.467884 
L 586.877143 349.467884 
z
" style="fill:#1f77b4;"/>
   </g>
   <g id="patch_137">
    <path clip-path="url(#p5f93c3ba30)" d="M 590.065714 768.96 
L 591.66 768.96 
L 591.66 534.031509 
L 590.065714 534.031509 
z
" style="fill:#1f77b4;"/>
   </g>
   <g id="patch_138">
    <path clip-path="url(#p5f93c3ba30)" d="M 593.254286 768.96 
L 594.848571 768.96 
L 594.848571 675.076603 
L 593.254286 675.076603 
z
" style="fill:#1f77b4;"/>
   </g>
   <g id="patch_139">
    <path clip-path="url(#p5f93c3ba30)" d="M 596.442857 768.96 
L 598.037143 768.96 
L 598.037143 605.563113 
L 596.442857 605.563113 
z
" style="fill:#1f77b4;"/>
   </g>
   <g id="patch_140">
    <path clip-path="url(#p5f93c3ba30)" d="M 599.631429 768.96 
L 601.225714 768.96 
L 601.225714 465.239612 
L 599.631429 465.239612 
z
" style="fill:#1f77b4;"/>
   </g>
   <g id="patch_141">
    <path clip-path="url(#p5f93c3ba30)" d="M 602.82 768.96 
L 604.414286 768.96 
L 604.414286 501.020081 
L 602.82 501.020081 
z
" style="fill:#1f77b4;"/>
   </g>
   <g id="patch_142">
    <path clip-path="url(#p5f93c3ba30)" d="M 606.008571 768.96 
L 607.602857 768.96 
L 607.602857 383.482503 
L 606.008571 383.482503 
z
" style="fill:#1f77b4;"/>
   </g>
   <g id="patch_143">
    <path clip-path="url(#p5f93c3ba30)" d="M 609.197143 768.96 
L 610.791429 768.96 
L 610.791429 519.452977 
L 609.197143 519.452977 
z
" style="fill:#1f77b4;"/>
   </g>
   <g id="patch_144">
    <path clip-path="url(#p5f93c3ba30)" d="M 612.385714 768.96 
L 613.98 768.96 
L 613.98 568.755987 
L 612.385714 568.755987 
z
" style="fill:#1f77b4;"/>
   </g>
   <g id="patch_145">
    <path clip-path="url(#p5f93c3ba30)" d="M 615.574286 768.96 
L 617.168571 768.96 
L 617.168571 678.432305 
L 615.574286 678.432305 
z
" style="fill:#1f77b4;"/>
   </g>
   <g id="patch_146">
    <path clip-path="url(#p5f93c3ba30)" d="M 618.762857 768.96 
L 620.357143 768.96 
L 620.357143 618.012064 
L 618.762857 618.012064 
z
" style="fill:#1f77b4;"/>
   </g>
   <g id="patch_147">
    <path clip-path="url(#p5f93c3ba30)" d="M 621.951429 768.96 
L 623.545714 768.96 
L 623.545714 586.655021 
L 621.951429 586.655021 
z
" style="fill:#1f77b4;"/>
   </g>
   <g id="patch_148">
    <path clip-path="url(#p5f93c3ba30)" d="M 625.14 768.96 
L 626.734286 768.96 
L 626.734286 588.432605 
L 625.14 588.432605 
z
" style="fill:#1f77b4;"/>
   </g>
   <g id="patch_149">
    <path clip-path="url(#p5f93c3ba30)" d="M 628.328571 768.96 
L 629.922857 768.96 
L 629.922857 573.525543 
L 628.328571 573.525543 
z
" style="fill:#1f77b4;"/>
   </g>
   <g id="patch_150">
    <path clip-path="url(#p5f93c3ba30)" d="M 631.517143 768.96 
L 633.111429 768.96 
L 633.111429 586.825153 
L 631.517143 586.825153 
z
" style="fill:#1f77b4;"/>
   </g>
   <g id="patch_151">
    <path clip-path="url(#p5f93c3ba30)" d="M 634.705714 768.96 
L 636.3 768.96 
L 636.3 644.452886 
L 634.705714 644.452886 
z
" style="fill:#1f77b4;"/>
   </g>
   <g id="patch_152">
    <path clip-path="url(#p5f93c3ba30)" d="M 637.894286 768.96 
L 639.488571 768.96 
L 639.488571 698.824649 
L 637.894286 698.824649 
z
" style="fill:#1f77b4;"/>
   </g>
   <g id="patch_153">
    <path clip-path="url(#p5f93c3ba30)" d="M 641.082857 768.96 
L 642.677143 768.96 
L 642.677143 718.084738 
L 641.082857 718.084738 
z
" style="fill:#1f77b4;"/>
   </g>
   <g id="patch_154">
    <path clip-path="url(#p5f93c3ba30)" d="M 644.271429 768.96 
L 645.865714 768.96 
L 645.865714 659.219149 
L 644.271429 659.219149 
z
" style="fill:#1f77b4;"/>
   </g>
   <g id="patch_155">
    <path clip-path="url(#p5f93c3ba30)" d="M 647.46 768.96 
L 649.054286 768.96 
L 649.054286 654.572792 
L 647.46 654.572792 
z
" style="fill:#1f77b4;"/>
   </g>
   <g id="patch_156">
    <path clip-path="url(#p5f93c3ba30)" d="M 650.648571 768.96 
L 652.242857 768.96 
L 652.242857 586.719554 
L 650.648571 586.719554 
z
" style="fill:#1f77b4;"/>
   </g>
   <g id="patch_157">
    <path clip-path="url(#p5f93c3ba30)" d="M 653.837143 768.96 
L 655.431429 768.96 
L 655.431429 557.826488 
L 653.837143 557.826488 
z
" style="fill:#1f77b4;"/>
   </g>
   <g id="patch_158">
    <path clip-path="url(#p5f93c3ba30)" d="M 657.025714 768.96 
L 658.62 768.96 
L 658.62 580.242814 
L 657.025714 580.242814 
z
" style="fill:#1f77b4;"/>
   </g>
   <g id="patch_159">
    <path clip-path="url(#p5f93c3ba30)" d="M 660.214286 768.96 
L 661.808571 768.96 
L 661.808571 633.881251 
L 660.214286 633.881251 
z
" style="fill:#1f77b4;"/>
   </g>
   <g id="patch_160">
    <path clip-path="url(#p5f93c3ba30)" d="M 663.402857 768.96 
L 664.997143 768.96 
L 664.997143 582.959056 
L 663.402857 582.959056 
z
" style="fill:#1f77b4;"/>
   </g>
   <g id="patch_161">
    <path clip-path="url(#p5f93c3ba30)" d="M 666.591429 768.96 
L 668.185714 768.96 
L 668.185714 568.967185 
L 666.591429 568.967185 
z
" style="fill:#1f77b4;"/>
   </g>
   <g id="patch_162">
    <path clip-path="url(#p5f93c3ba30)" d="M 669.78 768.96 
L 671.374286 768.96 
L 671.374286 536.108289 
L 669.78 536.108289 
z
" style="fill:#1f77b4;"/>
   </g>
   <g id="patch_163">
    <path clip-path="url(#p5f93c3ba30)" d="M 672.968571 768.96 
L 674.562857 768.96 
L 674.562857 607.364163 
L 672.968571 607.364163 
z
" style="fill:#1f77b4;"/>
   </g>
   <g id="patch_164">
    <path clip-path="url(#p5f93c3ba30)" d="M 676.157143 768.96 
L 677.751429 768.96 
L 677.751429 615.870751 
L 676.157143 615.870751 
z
" style="fill:#1f77b4;"/>
   </g>
   <g id="patch_165">
    <path clip-path="url(#p5f93c3ba30)" d="M 679.345714 768.96 
L 680.94 768.96 
L 680.94 675.323 
L 679.345714 675.323 
z
" style="fill:#1f77b4;"/>
   </g>
   <g id="patch_166">
    <path clip-path="url(#p5f93c3ba30)" d="M 682.534286 768.96 
L 684.128571 768.96 
L 684.128571 675.276067 
L 682.534286 675.276067 
z
" style="fill:#1f77b4;"/>
   </g>
   <g id="patch_167">
    <path clip-path="url(#p5f93c3ba30)" d="M 685.722857 768.96 
L 687.317143 768.96 
L 687.317143 484.165304 
L 685.722857 484.165304 
z
" style="fill:#1f77b4;"/>
   </g>
   <g id="patch_168">
    <path clip-path="url(#p5f93c3ba30)" d="M 688.911429 768.96 
L 690.505714 768.96 
L 690.505714 558.160885 
L 688.911429 558.160885 
z
" style="fill:#1f77b4;"/>
   </g>
   <g id="patch_169">
    <path clip-path="url(#p5f93c3ba30)" d="M 692.1 768.96 
L 693.694286 768.96 
L 693.694286 624.852534 
L 692.1 624.852534 
z
" style="fill:#1f77b4;"/>
   </g>
   <g id="patch_170">
    <path clip-path="url(#p5f93c3ba30)" d="M 695.288571 768.96 
L 696.882857 768.96 
L 696.882857 579.398022 
L 695.288571 579.398022 
z
" style="fill:#1f77b4;"/>
   </g>
   <g id="patch_171">
    <path clip-path="url(#p5f93c3ba30)" d="M 698.477143 768.96 
L 700.071429 768.96 
L 700.071429 677.822177 
L 698.477143 677.822177 
z
" style="fill:#1f77b4;"/>
   </g>
   <g id="patch_172">
    <path clip-path="url(#p5f93c3ba30)" d="M 701.665714 768.96 
L 703.26 768.96 
L 703.26 627.363444 
L 701.665714 627.363444 
z
" style="fill:#1f77b4;"/>
   </g>
   <g id="patch_173">
    <path clip-path="url(#p5f93c3ba30)" d="M 704.854286 768.96 
L 706.448571 768.96 
L 706.448571 708.176029 
L 704.854286 708.176029 
z
" style="fill:#1f77b4;"/>
   </g>
   <g id="patch_174">
    <path clip-path="url(#p5f93c3ba30)" d="M 708.042857 768.96 
L 709.637143 768.96 
L 709.637143 694.718021 
L 708.042857 694.718021 
z
" style="fill:#1f77b4;"/>
   </g>
   <g id="patch_175">
    <path clip-path="url(#p5f93c3ba30)" d="M 711.231429 768.96 
L 712.825714 768.96 
L 712.825714 678.784302 
L 711.231429 678.784302 
z
" style="fill:#1f77b4;"/>
   </g>
   <g id="patch_176">
    <path clip-path="url(#p5f93c3ba30)" d="M 714.42 768.96 
L 716.014286 768.96 
L 716.014286 659.471414 
L 714.42 659.471414 
z
" style="fill:#1f77b4;"/>
   </g>
   <g id="patch_177">
    <path clip-path="url(#p5f93c3ba30)" d="M 717.608571 768.96 
L 719.202857 768.96 
L 719.202857 637.278019 
L 717.608571 637.278019 
z
" style="fill:#1f77b4;"/>
   </g>
   <g id="patch_178">
    <path clip-path="url(#p5f93c3ba30)" d="M 720.797143 768.96 
L 722.391429 768.96 
L 722.391429 475.975513 
L 720.797143 475.975513 
z
" style="fill:#1f77b4;"/>
   </g>
   <g id="patch_179">
    <path clip-path="url(#p5f93c3ba30)" d="M 723.985714 768.96 
L 725.58 768.96 
L 725.58 428.655418 
L 723.985714 428.655418 
z
" style="fill:#1f77b4;"/>
   </g>
   <g id="patch_180">
    <path clip-path="url(#p5f93c3ba30)" d="M 727.174286 768.96 
L 728.768571 768.96 
L 728.768571 738.254151 
L 727.174286 738.254151 
z
" style="fill:#1f77b4;"/>
   </g>
   <g id="patch_181">
    <path clip-path="url(#p5f93c3ba30)" d="M 730.362857 768.96 
L 731.957143 768.96 
L 731.957143 693.216168 
L 730.362857 693.216168 
z
" style="fill:#1f77b4;"/>
   </g>
   <g id="patch_182">
    <path clip-path="url(#p5f93c3ba30)" d="M 733.551429 768.96 
L 735.145714 768.96 
L 735.145714 675.217401 
L 733.551429 675.217401 
z
" style="fill:#1f77b4;"/>
   </g>
   <g id="patch_183">
    <path clip-path="url(#p5f93c3ba30)" d="M 736.74 768.96 
L 738.334286 768.96 
L 738.334286 679.060032 
L 736.74 679.060032 
z
" style="fill:#1f77b4;"/>
   </g>
   <g id="patch_184">
    <path clip-path="url(#p5f93c3ba30)" d="M 739.928571 768.96 
L 741.522857 768.96 
L 741.522857 687.91275 
L 739.928571 687.91275 
z
" style="fill:#1f77b4;"/>
   </g>
   <g id="patch_185">
    <path clip-path="url(#p5f93c3ba30)" d="M 743.117143 768.96 
L 744.711429 768.96 
L 744.711429 688.147415 
L 743.117143 688.147415 
z
" style="fill:#1f77b4;"/>
   </g>
   <g id="patch_186">
    <path clip-path="url(#p5f93c3ba30)" d="M 746.305714 768.96 
L 747.9 768.96 
L 747.9 708.422427 
L 746.305714 708.422427 
z
" style="fill:#1f77b4;"/>
   </g>
   <g id="patch_187">
    <path clip-path="url(#p5f93c3ba30)" d="M 749.494286 768.96 
L 751.088571 768.96 
L 751.088571 739.785337 
L 749.494286 739.785337 
z
" style="fill:#1f77b4;"/>
   </g>
   <g id="patch_188">
    <path clip-path="url(#p5f93c3ba30)" d="M 752.682857 768.96 
L 754.277143 768.96 
L 754.277143 763.985113 
L 752.682857 763.985113 
z
" style="fill:#1f77b4;"/>
   </g>
   <g id="patch_189">
    <path clip-path="url(#p5f93c3ba30)" d="M 755.871429 768.96 
L 757.465714 768.96 
L 757.465714 721.76897 
L 755.871429 721.76897 
z
" style="fill:#1f77b4;"/>
   </g>
   <g id="patch_190">
    <path clip-path="url(#p5f93c3ba30)" d="M 759.06 768.96 
L 760.654286 768.96 
L 760.654286 685.613038 
L 759.06 685.613038 
z
" style="fill:#1f77b4;"/>
   </g>
   <g id="patch_191">
    <path clip-path="url(#p5f93c3ba30)" d="M 762.248571 768.96 
L 763.842857 768.96 
L 763.842857 685.290375 
L 762.248571 685.290375 
z
" style="fill:#1f77b4;"/>
   </g>
   <g id="patch_192">
    <path clip-path="url(#p5f93c3ba30)" d="M 765.437143 768.96 
L 767.031429 768.96 
L 767.031429 695.433747 
L 765.437143 695.433747 
z
" style="fill:#1f77b4;"/>
   </g>
   <g id="patch_193">
    <path clip-path="url(#p5f93c3ba30)" d="M 768.625714 768.96 
L 770.22 768.96 
L 770.22 706.932308 
L 768.625714 706.932308 
z
" style="fill:#1f77b4;"/>
   </g>
   <g id="patch_194">
    <path clip-path="url(#p5f93c3ba30)" d="M 771.814286 768.96 
L 773.408571 768.96 
L 773.408571 726.638259 
L 771.814286 726.638259 
z
" style="fill:#1f77b4;"/>
   </g>
   <g id="patch_195">
    <path clip-path="url(#p5f93c3ba30)" d="M 775.002857 768.96 
L 776.597143 768.96 
L 776.597143 690.065797 
L 775.002857 690.065797 
z
" style="fill:#1f77b4;"/>
   </g>
   <g id="patch_196">
    <path clip-path="url(#p5f93c3ba30)" d="M 778.191429 768.96 
L 779.785714 768.96 
L 779.785714 703.875803 
L 778.191429 703.875803 
z
" style="fill:#1f77b4;"/>
   </g>
   <g id="patch_197">
    <path clip-path="url(#p5f93c3ba30)" d="M 781.38 768.96 
L 782.974286 768.96 
L 782.974286 706.545111 
L 781.38 706.545111 
z
" style="fill:#1f77b4;"/>
   </g>
   <g id="patch_198">
    <path clip-path="url(#p5f93c3ba30)" d="M 784.568571 768.96 
L 786.162857 768.96 
L 786.162857 707.020307 
L 784.568571 707.020307 
z
" style="fill:#1f77b4;"/>
   </g>
   <g id="patch_199">
    <path clip-path="url(#p5f93c3ba30)" d="M 787.757143 768.96 
L 789.351429 768.96 
L 789.351429 706.157915 
L 787.757143 706.157915 
z
" style="fill:#1f77b4;"/>
   </g>
   <g id="patch_200">
    <path clip-path="url(#p5f93c3ba30)" d="M 790.945714 768.96 
L 792.54 768.96 
L 792.54 716.717817 
L 790.945714 716.717817 
z
" style="fill:#1f77b4;"/>
   </g>
   <g id="patch_201">
    <path clip-path="url(#p5f93c3ba30)" d="M 794.134286 768.96 
L 795.728571 768.96 
L 795.728571 733.420062 
L 794.134286 733.420062 
z
" style="fill:#1f77b4;"/>
   </g>
   <g id="patch_202">
    <path clip-path="url(#p5f93c3ba30)" d="M 797.322857 768.96 
L 798.917143 768.96 
L 798.917143 716.230888 
L 797.322857 716.230888 
z
" style="fill:#1f77b4;"/>
   </g>
   <g id="patch_203">
    <path clip-path="url(#p5f93c3ba30)" d="M 800.511429 768.96 
L 802.105714 768.96 
L 802.105714 698.554785 
L 800.511429 698.554785 
z
" style="fill:#1f77b4;"/>
   </g>
   <g id="patch_204">
    <path clip-path="url(#p5f93c3ba30)" d="M 803.7 768.96 
L 805.294286 768.96 
L 805.294286 703.195276 
L 803.7 703.195276 
z
" style="fill:#1f77b4;"/>
   </g>
   <g id="patch_205">
    <path clip-path="url(#p5f93c3ba30)" d="M 806.888571 768.96 
L 808.482857 768.96 
L 808.482857 721.364174 
L 806.888571 721.364174 
z
" style="fill:#1f77b4;"/>
   </g>
   <g id="patch_206">
    <path clip-path="url(#p5f93c3ba30)" d="M 810.077143 768.96 
L 811.671429 768.96 
L 811.671429 720.302317 
L 810.077143 720.302317 
z
" style="fill:#1f77b4;"/>
   </g>
   <g id="patch_207">
    <path clip-path="url(#p5f93c3ba30)" d="M 813.265714 768.96 
L 814.86 768.96 
L 814.86 738.600281 
L 813.265714 738.600281 
z
" style="fill:#1f77b4;"/>
   </g>
   <g id="patch_208">
    <path clip-path="url(#p5f93c3ba30)" d="M 816.454286 768.96 
L 818.048571 768.96 
L 818.048571 751.324963 
L 816.454286 751.324963 
z
" style="fill:#1f77b4;"/>
   </g>
   <g id="patch_209">
    <path clip-path="url(#p5f93c3ba30)" d="M 819.642857 768.96 
L 821.237143 768.96 
L 821.237143 739.668005 
L 819.642857 739.668005 
z
" style="fill:#1f77b4;"/>
   </g>
   <g id="patch_210">
    <path clip-path="url(#p5f93c3ba30)" d="M 822.831429 768.96 
L 824.425714 768.96 
L 824.425714 702.121686 
L 822.831429 702.121686 
z
" style="fill:#1f77b4;"/>
   </g>
   <g id="patch_211">
    <path clip-path="url(#p5f93c3ba30)" d="M 826.02 768.96 
L 827.614286 768.96 
L 827.614286 656.931171 
L 826.02 656.931171 
z
" style="fill:#1f77b4;"/>
   </g>
   <g id="patch_212">
    <path clip-path="url(#p5f93c3ba30)" d="M 829.208571 768.96 
L 830.802857 768.96 
L 830.802857 710.927471 
L 829.208571 710.927471 
z
" style="fill:#1f77b4;"/>
   </g>
   <g id="patch_213">
    <path clip-path="url(#p5f93c3ba30)" d="M 832.397143 768.96 
L 833.991429 768.96 
L 833.991429 642.276373 
L 832.397143 642.276373 
z
" style="fill:#1f77b4;"/>
   </g>
   <g id="patch_214">
    <path clip-path="url(#p5f93c3ba30)" d="M 835.585714 768.96 
L 837.18 768.96 
L 837.18 722.959893 
L 835.585714 722.959893 
z
" style="fill:#1f77b4;"/>
   </g>
   <g id="patch_215">
    <path clip-path="url(#p5f93c3ba30)" d="M 838.774286 768.96 
L 840.368571 768.96 
L 840.368571 734.493652 
L 838.774286 734.493652 
z
" style="fill:#1f77b4;"/>
   </g>
   <g id="patch_216">
    <path clip-path="url(#p5f93c3ba30)" d="M 841.962857 768.96 
L 843.557143 768.96 
L 843.557143 722.291099 
L 841.962857 722.291099 
z
" style="fill:#1f77b4;"/>
   </g>
   <g id="patch_217">
    <path clip-path="url(#p5f93c3ba30)" d="M 845.151429 768.96 
L 846.745714 768.96 
L 846.745714 705.518454 
L 845.151429 705.518454 
z
" style="fill:#1f77b4;"/>
   </g>
   <g id="patch_218">
    <path clip-path="url(#p5f93c3ba30)" d="M 848.34 768.96 
L 849.934286 768.96 
L 849.934286 710.645873 
L 848.34 710.645873 
z
" style="fill:#1f77b4;"/>
   </g>
   <g id="patch_219">
    <path clip-path="url(#p5f93c3ba30)" d="M 851.528571 768.96 
L 853.122857 768.96 
L 853.122857 708.528026 
L 851.528571 708.528026 
z
" style="fill:#1f77b4;"/>
   </g>
   <g id="patch_220">
    <path clip-path="url(#p5f93c3ba30)" d="M 854.717143 768.96 
L 856.311429 768.96 
L 856.311429 704.603263 
L 854.717143 704.603263 
z
" style="fill:#1f77b4;"/>
   </g>
   <g id="patch_221">
    <path clip-path="url(#p5f93c3ba30)" d="M 857.905714 768.96 
L 859.5 768.96 
L 859.5 665.977487 
L 857.905714 665.977487 
z
" style="fill:#1f77b4;"/>
   </g>
   <g id="patch_222">
    <path clip-path="url(#p5f93c3ba30)" d="M 861.094286 768.96 
L 862.688571 768.96 
L 862.688571 728.838238 
L 861.094286 728.838238 
z
" style="fill:#1f77b4;"/>
   </g>
   <g id="patch_223">
    <path clip-path="url(#p5f93c3ba30)" d="M 864.282857 768.96 
L 865.877143 768.96 
L 865.877143 723.564154 
L 864.282857 723.564154 
z
" style="fill:#1f77b4;"/>
   </g>
   <g id="patch_224">
    <path clip-path="url(#p5f93c3ba30)" d="M 867.471429 768.96 
L 869.065714 768.96 
L 869.065714 725.588135 
L 867.471429 725.588135 
z
" style="fill:#1f77b4;"/>
   </g>
   <g id="patch_225">
    <path clip-path="url(#p5f93c3ba30)" d="M 870.66 768.96 
L 872.254286 768.96 
L 872.254286 613.348108 
L 870.66 613.348108 
z
" style="fill:#1f77b4;"/>
   </g>
   <g id="patch_226">
    <path clip-path="url(#p5f93c3ba30)" d="M 873.848571 768.96 
L 875.442857 768.96 
L 875.442857 631.892469 
L 873.848571 631.892469 
z
" style="fill:#1f77b4;"/>
   </g>
   <g id="patch_227">
    <path clip-path="url(#p5f93c3ba30)" d="M 877.037143 768.96 
L 878.631429 768.96 
L 878.631429 645.239012 
L 877.037143 645.239012 
z
" style="fill:#1f77b4;"/>
   </g>
   <g id="patch_228">
    <path clip-path="url(#p5f93c3ba30)" d="M 880.225714 768.96 
L 881.82 768.96 
L 881.82 607.158831 
L 880.225714 607.158831 
z
" style="fill:#1f77b4;"/>
   </g>
   <g id="patch_229">
    <path clip-path="url(#p5f93c3ba30)" d="M 883.414286 768.96 
L 885.008571 768.96 
L 885.008571 657.875695 
L 883.414286 657.875695 
z
" style="fill:#1f77b4;"/>
   </g>
   <g id="patch_230">
    <path clip-path="url(#p5f93c3ba30)" d="M 886.602857 768.96 
L 888.197143 768.96 
L 888.197143 715.151432 
L 886.602857 715.151432 
z
" style="fill:#1f77b4;"/>
   </g>
   <g id="patch_231">
    <path clip-path="url(#p5f93c3ba30)" d="M 889.791429 768.96 
L 891.385714 768.96 
L 891.385714 692.600174 
L 889.791429 692.600174 
z
" style="fill:#1f77b4;"/>
   </g>
   <g id="patch_232">
    <path clip-path="url(#p5f93c3ba30)" d="M 892.98 768.96 
L 894.574286 768.96 
L 894.574286 696.923867 
L 892.98 696.923867 
z
" style="fill:#1f77b4;"/>
   </g>
   <g id="patch_233">
    <path clip-path="url(#p5f93c3ba30)" d="M 896.168571 768.96 
L 897.762857 768.96 
L 897.762857 700.778231 
L 896.168571 700.778231 
z
" style="fill:#1f77b4;"/>
   </g>
   <g id="patch_234">
    <path clip-path="url(#p5f93c3ba30)" d="M 899.357143 768.96 
L 900.951429 768.96 
L 900.951429 702.901945 
L 899.357143 702.901945 
z
" style="fill:#1f77b4;"/>
   </g>
   <g id="patch_235">
    <path clip-path="url(#p5f93c3ba30)" d="M 902.545714 768.96 
L 904.14 768.96 
L 904.14 701.394226 
L 902.545714 701.394226 
z
" style="fill:#1f77b4;"/>
   </g>
   <g id="patch_236">
    <path clip-path="url(#p5f93c3ba30)" d="M 905.734286 768.96 
L 907.328571 768.96 
L 907.328571 724.010016 
L 905.734286 724.010016 
z
" style="fill:#1f77b4;"/>
   </g>
   <g id="patch_237">
    <path clip-path="url(#p5f93c3ba30)" d="M 908.922857 768.96 
L 910.517143 768.96 
L 910.517143 714.095441 
L 908.922857 714.095441 
z
" style="fill:#1f77b4;"/>
   </g>
   <g id="patch_238">
    <path clip-path="url(#p5f93c3ba30)" d="M 912.111429 768.96 
L 913.705714 768.96 
L 913.705714 693.010837 
L 912.111429 693.010837 
z
" style="fill:#1f77b4;"/>
   </g>
   <g id="patch_239">
    <path clip-path="url(#p5f93c3ba30)" d="M 915.3 768.96 
L 916.894286 768.96 
L 916.894286 696.249207 
L 915.3 696.249207 
z
" style="fill:#1f77b4;"/>
   </g>
   <g id="patch_240">
    <path clip-path="url(#p5f93c3ba30)" d="M 918.488571 768.96 
L 920.082857 768.96 
L 920.082857 692.160178 
L 918.488571 692.160178 
z
" style="fill:#1f77b4;"/>
   </g>
   <g id="patch_241">
    <path clip-path="url(#p5f93c3ba30)" d="M 921.677143 768.96 
L 923.271429 768.96 
L 923.271429 682.081338 
L 921.677143 682.081338 
z
" style="fill:#1f77b4;"/>
   </g>
   <g id="patch_242">
    <path clip-path="url(#p5f93c3ba30)" d="M 924.865714 768.96 
L 926.46 768.96 
L 926.46 642.317439 
L 924.865714 642.317439 
z
" style="fill:#1f77b4;"/>
   </g>
   <g id="patch_243">
    <path clip-path="url(#p5f93c3ba30)" d="M 928.054286 768.96 
L 929.648571 768.96 
L 929.648571 563.610968 
L 928.054286 563.610968 
z
" style="fill:#1f77b4;"/>
   </g>
   <g id="patch_244">
    <path clip-path="url(#p5f93c3ba30)" d="M 931.242857 768.96 
L 932.837143 768.96 
L 932.837143 673.739015 
L 931.242857 673.739015 
z
" style="fill:#1f77b4;"/>
   </g>
   <g id="patch_245">
    <path clip-path="url(#p5f93c3ba30)" d="M 934.431429 768.96 
L 936.025714 768.96 
L 936.025714 693.667897 
L 934.431429 693.667897 
z
" style="fill:#1f77b4;"/>
   </g>
   <g id="patch_246">
    <path clip-path="url(#p5f93c3ba30)" d="M 937.62 768.96 
L 939.214286 768.96 
L 939.214286 698.713184 
L 937.62 698.713184 
z
" style="fill:#1f77b4;"/>
   </g>
   <g id="patch_247">
    <path clip-path="url(#p5f93c3ba30)" d="M 940.808571 768.96 
L 942.402857 768.96 
L 942.402857 704.321665 
L 940.808571 704.321665 
z
" style="fill:#1f77b4;"/>
   </g>
   <g id="patch_248">
    <path clip-path="url(#p5f93c3ba30)" d="M 943.997143 768.96 
L 945.591429 768.96 
L 945.591429 703.459273 
L 943.997143 703.459273 
z
" style="fill:#1f77b4;"/>
   </g>
   <g id="patch_249">
    <path clip-path="url(#p5f93c3ba30)" d="M 947.185714 768.96 
L 948.78 768.96 
L 948.78 707.677367 
L 947.185714 707.677367 
z
" style="fill:#1f77b4;"/>
   </g>
   <g id="patch_250">
    <path clip-path="url(#p5f93c3ba30)" d="M 950.374286 768.96 
L 951.968571 768.96 
L 951.968571 726.890523 
L 950.374286 726.890523 
z
" style="fill:#1f77b4;"/>
   </g>
   <g id="patch_251">
    <path clip-path="url(#p5f93c3ba30)" d="M 953.562857 768.96 
L 955.157143 768.96 
L 955.157143 739.374674 
L 953.562857 739.374674 
z
" style="fill:#1f77b4;"/>
   </g>
   <g id="patch_252">
    <path clip-path="url(#p5f93c3ba30)" d="M 956.751429 768.96 
L 958.345714 768.96 
L 958.345714 732.839268 
L 956.751429 732.839268 
z
" style="fill:#1f77b4;"/>
   </g>
   <g id="patch_253">
    <path clip-path="url(#p5f93c3ba30)" d="M 959.94 768.96 
L 961.534286 768.96 
L 961.534286 695.545213 
L 959.94 695.545213 
z
" style="fill:#1f77b4;"/>
   </g>
   <g id="patch_254">
    <path clip-path="url(#p5f93c3ba30)" d="M 963.128571 768.96 
L 964.722857 768.96 
L 964.722857 704.714728 
L 963.128571 704.714728 
z
" style="fill:#1f77b4;"/>
   </g>
   <g id="patch_255">
    <path clip-path="url(#p5f93c3ba30)" d="M 966.317143 768.96 
L 967.911429 768.96 
L 967.911429 707.689101 
L 966.317143 707.689101 
z
" style="fill:#1f77b4;"/>
   </g>
   <g id="patch_256">
    <path clip-path="url(#p5f93c3ba30)" d="M 969.505714 768.96 
L 971.1 768.96 
L 971.1 712.405857 
L 969.505714 712.405857 
z
" style="fill:#1f77b4;"/>
   </g>
   <g id="patch_257">
    <path clip-path="url(#p5f93c3ba30)" d="M 972.694286 768.96 
L 974.288571 768.96 
L 974.288571 726.931589 
L 972.694286 726.931589 
z
" style="fill:#1f77b4;"/>
   </g>
   <g id="patch_258">
    <path clip-path="url(#p5f93c3ba30)" d="M 975.882857 768.96 
L 977.477143 768.96 
L 977.477143 722.267632 
L 975.882857 722.267632 
z
" style="fill:#1f77b4;"/>
   </g>
   <g id="patch_259">
    <path clip-path="url(#p5f93c3ba30)" d="M 979.071429 768.96 
L 980.665714 768.96 
L 980.665714 706.093382 
L 979.071429 706.093382 
z
" style="fill:#1f77b4;"/>
   </g>
   <g id="patch_260">
    <path clip-path="url(#p5f93c3ba30)" d="M 982.26 768.96 
L 983.854286 768.96 
L 983.854286 709.384552 
L 982.26 709.384552 
z
" style="fill:#1f77b4;"/>
   </g>
   <g id="patch_261">
    <path clip-path="url(#p5f93c3ba30)" d="M 985.448571 768.96 
L 987.042857 768.96 
L 987.042857 708.979755 
L 985.448571 708.979755 
z
" style="fill:#1f77b4;"/>
   </g>
   <g id="patch_262">
    <path clip-path="url(#p5f93c3ba30)" d="M 988.637143 768.96 
L 990.231429 768.96 
L 990.231429 706.603777 
L 988.637143 706.603777 
z
" style="fill:#1f77b4;"/>
   </g>
   <g id="patch_263">
    <path clip-path="url(#p5f93c3ba30)" d="M 991.825714 768.96 
L 993.42 768.96 
L 993.42 707.548302 
L 991.825714 707.548302 
z
" style="fill:#1f77b4;"/>
   </g>
   <g id="patch_264">
    <path clip-path="url(#p5f93c3ba30)" d="M 995.014286 768.96 
L 996.608571 768.96 
L 996.608571 724.215348 
L 995.014286 724.215348 
z
" style="fill:#1f77b4;"/>
   </g>
   <g id="patch_265">
    <path clip-path="url(#p5f93c3ba30)" d="M 998.202857 768.96 
L 999.797143 768.96 
L 999.797143 727.705982 
L 998.202857 727.705982 
z
" style="fill:#1f77b4;"/>
   </g>
   <g id="patch_266">
    <path clip-path="url(#p5f93c3ba30)" d="M 1001.391429 768.96 
L 1002.985714 768.96 
L 1002.985714 698.595852 
L 1001.391429 698.595852 
z
" style="fill:#1f77b4;"/>
   </g>
   <g id="patch_267">
    <path clip-path="url(#p5f93c3ba30)" d="M 1004.58 768.96 
L 1006.174286 768.96 
L 1006.174286 718.020205 
L 1004.58 718.020205 
z
" style="fill:#1f77b4;"/>
   </g>
   <g id="patch_268">
    <path clip-path="url(#p5f93c3ba30)" d="M 1007.768571 768.96 
L 1009.362857 768.96 
L 1009.362857 694.77082 
L 1007.768571 694.77082 
z
" style="fill:#1f77b4;"/>
   </g>
   <g id="patch_269">
    <path clip-path="url(#p5f93c3ba30)" d="M 1010.957143 768.96 
L 1012.551429 768.96 
L 1012.551429 697.909458 
L 1010.957143 697.909458 
z
" style="fill:#1f77b4;"/>
   </g>
   <g id="patch_270">
    <path clip-path="url(#p5f93c3ba30)" d="M 1014.145714 768.96 
L 1015.74 768.96 
L 1015.74 711.643197 
L 1014.145714 711.643197 
z
" style="fill:#1f77b4;"/>
   </g>
   <g id="patch_271">
    <path clip-path="url(#p5f93c3ba30)" d="M 1017.334286 768.96 
L 1018.928571 768.96 
L 1018.928571 731.337415 
L 1017.334286 731.337415 
z
" style="fill:#1f77b4;"/>
   </g>
   <g id="patch_272">
    <path clip-path="url(#p5f93c3ba30)" d="M 1020.522857 768.96 
L 1022.117143 768.96 
L 1022.117143 722.009501 
L 1020.522857 722.009501 
z
" style="fill:#1f77b4;"/>
   </g>
   <g id="patch_273">
    <path clip-path="url(#p5f93c3ba30)" d="M 1023.711429 768.96 
L 1025.305714 768.96 
L 1025.305714 713.878377 
L 1023.711429 713.878377 
z
" style="fill:#1f77b4;"/>
   </g>
   <g id="patch_274">
    <path clip-path="url(#p5f93c3ba30)" d="M 1026.9 768.96 
L 1028.494286 768.96 
L 1028.494286 729.143302 
L 1026.9 729.143302 
z
" style="fill:#1f77b4;"/>
   </g>
   <g id="patch_275">
    <path clip-path="url(#p5f93c3ba30)" d="M 1030.088571 768.96 
L 1031.682857 768.96 
L 1031.682857 741.375189 
L 1030.088571 741.375189 
z
" style="fill:#1f77b4;"/>
   </g>
   <g id="patch_276">
    <path clip-path="url(#p5f93c3ba30)" d="M 1033.277143 768.96 
L 1034.871429 768.96 
L 1034.871429 699.79264 
L 1033.277143 699.79264 
z
" style="fill:#1f77b4;"/>
   </g>
   <g id="patch_277">
    <path clip-path="url(#p5f93c3ba30)" d="M 1036.465714 768.96 
L 1038.06 768.96 
L 1038.06 678.326706 
L 1036.465714 678.326706 
z
" style="fill:#1f77b4;"/>
   </g>
   <g id="patch_278">
    <path clip-path="url(#p5f93c3ba30)" d="M 1039.654286 768.96 
L 1041.248571 768.96 
L 1041.248571 737.690956 
L 1039.654286 737.690956 
z
" style="fill:#1f77b4;"/>
   </g>
   <g id="patch_279">
    <path clip-path="url(#p5f93c3ba30)" d="M 1042.842857 768.96 
L 1044.437143 768.96 
L 1044.437143 710.745606 
L 1042.842857 710.745606 
z
" style="fill:#1f77b4;"/>
   </g>
   <g id="patch_280">
    <path clip-path="url(#p5f93c3ba30)" d="M 1046.031429 768.96 
L 1047.625714 768.96 
L 1047.625714 735.807774 
L 1046.031429 735.807774 
z
" style="fill:#1f77b4;"/>
   </g>
   <g id="patch_281">
    <path clip-path="url(#p5f93c3ba30)" d="M 1049.22 768.96 
L 1050.814286 768.96 
L 1050.814286 700.420368 
L 1049.22 700.420368 
z
" style="fill:#1f77b4;"/>
   </g>
   <g id="patch_282">
    <path clip-path="url(#p5f93c3ba30)" d="M 1052.408571 768.96 
L 1054.002857 768.96 
L 1054.002857 721.575372 
L 1052.408571 721.575372 
z
" style="fill:#1f77b4;"/>
   </g>
   <g id="patch_283">
    <path clip-path="url(#p5f93c3ba30)" d="M 1055.597143 768.96 
L 1057.191429 768.96 
L 1057.191429 722.942293 
L 1055.597143 722.942293 
z
" style="fill:#1f77b4;"/>
   </g>
   <g id="patch_284">
    <path clip-path="url(#p5f93c3ba30)" d="M 1058.785714 768.96 
L 1060.38 768.96 
L 1060.38 737.039762 
L 1058.785714 737.039762 
z
" style="fill:#1f77b4;"/>
   </g>
   <g id="patch_285">
    <path clip-path="url(#p5f93c3ba30)" d="M 1061.974286 768.96 
L 1063.568571 768.96 
L 1063.568571 745.734082 
L 1061.974286 745.734082 
z
" style="fill:#1f77b4;"/>
   </g>
   <g id="patch_286">
    <path clip-path="url(#p5f93c3ba30)" d="M 1065.162857 768.96 
L 1066.757143 768.96 
L 1066.757143 736.717099 
L 1065.162857 736.717099 
z
" style="fill:#1f77b4;"/>
   </g>
   <g id="patch_287">
    <path clip-path="url(#p5f93c3ba30)" d="M 1068.351429 768.96 
L 1069.945714 768.96 
L 1069.945714 722.068168 
L 1068.351429 722.068168 
z
" style="fill:#1f77b4;"/>
   </g>
   <g id="patch_288">
    <path clip-path="url(#p5f93c3ba30)" d="M 1071.54 768.96 
L 1073.134286 768.96 
L 1073.134286 717.345545 
L 1071.54 717.345545 
z
" style="fill:#1f77b4;"/>
   </g>
   <g id="patch_289">
    <path clip-path="url(#p5f93c3ba30)" d="M 1074.728571 768.96 
L 1076.322857 768.96 
L 1076.322857 731.765678 
L 1074.728571 731.765678 
z
" style="fill:#1f77b4;"/>
   </g>
   <g id="patch_290">
    <path clip-path="url(#p5f93c3ba30)" d="M 1077.917143 768.96 
L 1079.511429 768.96 
L 1079.511429 706.715243 
L 1077.917143 706.715243 
z
" style="fill:#1f77b4;"/>
   </g>
   <g id="patch_291">
    <path clip-path="url(#p5f93c3ba30)" d="M 1081.105714 768.96 
L 1082.7 768.96 
L 1082.7 731.783278 
L 1081.105714 731.783278 
z
" style="fill:#1f77b4;"/>
   </g>
   <g id="patch_292">
    <path clip-path="url(#p5f93c3ba30)" d="M 1084.294286 768.96 
L 1085.888571 768.96 
L 1085.888571 747.083403 
L 1084.294286 747.083403 
z
" style="fill:#1f77b4;"/>
   </g>
   <g id="patch_293">
    <path clip-path="url(#p5f93c3ba30)" d="M 1087.482857 768.96 
L 1089.077143 768.96 
L 1089.077143 733.959791 
L 1087.482857 733.959791 
z
" style="fill:#1f77b4;"/>
   </g>
   <g id="patch_294">
    <path clip-path="url(#p5f93c3ba30)" d="M 1090.671429 768.96 
L 1092.265714 768.96 
L 1092.265714 727.688382 
L 1090.671429 727.688382 
z
" style="fill:#1f77b4;"/>
   </g>
   <g id="patch_295">
    <path clip-path="url(#p5f93c3ba30)" d="M 1093.86 768.96 
L 1095.454286 768.96 
L 1095.454286 726.573726 
L 1093.86 726.573726 
z
" style="fill:#1f77b4;"/>
   </g>
   <g id="patch_296">
    <path clip-path="url(#p5f93c3ba30)" d="M 1097.048571 768.96 
L 1098.642857 768.96 
L 1098.642857 720.407916 
L 1097.048571 720.407916 
z
" style="fill:#1f77b4;"/>
   </g>
   <g id="patch_297">
    <path clip-path="url(#p5f93c3ba30)" d="M 1100.237143 768.96 
L 1101.831429 768.96 
L 1101.831429 726.022264 
L 1100.237143 726.022264 
z
" style="fill:#1f77b4;"/>
   </g>
   <g id="patch_298">
    <path clip-path="url(#p5f93c3ba30)" d="M 1103.425714 768.96 
L 1105.02 768.96 
L 1105.02 737.737889 
L 1103.425714 737.737889 
z
" style="fill:#1f77b4;"/>
   </g>
   <g id="patch_299">
    <path clip-path="url(#p5f93c3ba30)" d="M 1106.614286 768.96 
L 1108.208571 768.96 
L 1108.208571 742.777309 
L 1106.614286 742.777309 
z
" style="fill:#1f77b4;"/>
   </g>
   <g id="patch_300">
    <path clip-path="url(#p5f93c3ba30)" d="M 1109.802857 768.96 
L 1111.397143 768.96 
L 1111.397143 735.144846 
L 1109.802857 735.144846 
z
" style="fill:#1f77b4;"/>
   </g>
   <g id="patch_301">
    <path clip-path="url(#p5f93c3ba30)" d="M 1112.991429 768.96 
L 1114.585714 768.96 
L 1114.585714 718.178604 
L 1112.991429 718.178604 
z
" style="fill:#1f77b4;"/>
   </g>
   <g id="patch_302">
    <path clip-path="url(#p5f93c3ba30)" d="M 1116.18 768.96 
L 1117.774286 768.96 
L 1117.774286 728.210511 
L 1116.18 728.210511 
z
" style="fill:#1f77b4;"/>
   </g>
   <g id="patch_303">
    <path clip-path="url(#p5f93c3ba30)" d="M 1119.368571 768.96 
L 1120.962857 768.96 
L 1120.962857 730.234492 
L 1119.368571 730.234492 
z
" style="fill:#1f77b4;"/>
   </g>
   <g id="patch_304">
    <path clip-path="url(#p5f93c3ba30)" d="M 1122.557143 768.96 
L 1124.151429 768.96 
L 1124.151429 647.128061 
L 1122.557143 647.128061 
z
" style="fill:#1f77b4;"/>
   </g>
   <g id="patch_305">
    <path clip-path="url(#p5f93c3ba30)" d="M 1125.745714 768.96 
L 1127.34 768.96 
L 1127.34 735.045114 
L 1125.745714 735.045114 
z
" style="fill:#1f77b4;"/>
   </g>
   <g id="patch_306">
    <path clip-path="url(#p5f93c3ba30)" d="M 1128.934286 768.96 
L 1130.528571 768.96 
L 1130.528571 745.869014 
L 1128.934286 745.869014 
z
" style="fill:#1f77b4;"/>
   </g>
   <g id="patch_307">
    <path clip-path="url(#p5f93c3ba30)" d="M 1132.122857 768.96 
L 1133.717143 768.96 
L 1133.717143 741.850384 
L 1132.122857 741.850384 
z
" style="fill:#1f77b4;"/>
   </g>
   <g id="patch_308">
    <path clip-path="url(#p5f93c3ba30)" d="M 1135.311429 768.96 
L 1136.905714 768.96 
L 1136.905714 733.414196 
L 1135.311429 733.414196 
z
" style="fill:#1f77b4;"/>
   </g>
   <g id="patch_309">
    <path clip-path="url(#p5f93c3ba30)" d="M 1138.5 768.96 
L 1140.094286 768.96 
L 1140.094286 747.535132 
L 1138.5 747.535132 
z
" style="fill:#1f77b4;"/>
   </g>
   <g id="patch_310">
    <path clip-path="url(#p5f93c3ba30)" d="M 1141.688571 768.96 
L 1143.282857 768.96 
L 1143.282857 735.338445 
L 1141.688571 735.338445 
z
" style="fill:#1f77b4;"/>
   </g>
   <g id="patch_311">
    <path clip-path="url(#p5f93c3ba30)" d="M 1144.877143 768.96 
L 1146.471429 768.96 
L 1146.471429 726.919856 
L 1144.877143 726.919856 
z
" style="fill:#1f77b4;"/>
   </g>
   <g id="patch_312">
    <path clip-path="url(#p5f93c3ba30)" d="M 1148.065714 768.96 
L 1149.66 768.96 
L 1149.66 718.847397 
L 1148.065714 718.847397 
z
" style="fill:#1f77b4;"/>
   </g>
   <g id="patch_313">
    <path clip-path="url(#p5f93c3ba30)" d="M 1151.254286 768.96 
L 1152.848571 768.96 
L 1152.848571 753.255079 
L 1151.254286 753.255079 
z
" style="fill:#1f77b4;"/>
   </g>
   <g id="patch_314">
    <path clip-path="url(#p5f93c3ba30)" d="M 1154.442857 768.96 
L 1156.037143 768.96 
L 1156.037143 744.07383 
L 1154.442857 744.07383 
z
" style="fill:#1f77b4;"/>
   </g>
   <g id="patch_315">
    <path clip-path="url(#p5f93c3ba30)" d="M 1157.631429 768.96 
L 1159.225714 768.96 
L 1159.225714 716.688484 
L 1157.631429 716.688484 
z
" style="fill:#1f77b4;"/>
   </g>
   <g id="patch_316">
    <path clip-path="url(#p5f93c3ba30)" d="M 1160.82 768.96 
L 1162.414286 768.96 
L 1162.414286 725.476669 
L 1160.82 725.476669 
z
" style="fill:#1f77b4;"/>
   </g>
   <g id="patch_317">
    <path clip-path="url(#p5f93c3ba30)" d="M 1164.008571 768.96 
L 1165.602857 768.96 
L 1165.602857 727.840914 
L 1164.008571 727.840914 
z
" style="fill:#1f77b4;"/>
   </g>
   <g id="matplotlib.axis_1">
    <g id="xtick_1">
     <g id="line2d_1">
      <defs>
       <path d="M 0 0 
L 0 3.5 
" id="m24036ab1e6" style="stroke:#000000;stroke-width:0.8;"/>
      </defs>
      <g>
       <use style="stroke:#000000;stroke-width:0.8;" x="163.594286" xlink:href="#m24036ab1e6" y="768.96"/>
      </g>
     </g>
     <g id="text_1">
      <!-- January -->
      <g transform="translate(144.638817 783.558437)scale(0.1 -0.1)">
       <defs>
        <path d="M 628 4666 
L 1259 4666 
L 1259 325 
Q 1259 -519 939 -900 
Q 619 -1281 -91 -1281 
L -331 -1281 
L -331 -750 
L -134 -750 
Q 284 -750 456 -515 
Q 628 -281 628 325 
L 628 4666 
z
" id="DejaVuSans-4a" transform="scale(0.015625)"/>
        <path d="M 2194 1759 
Q 1497 1759 1228 1600 
Q 959 1441 959 1056 
Q 959 750 1161 570 
Q 1363 391 1709 391 
Q 2188 391 2477 730 
Q 2766 1069 2766 1631 
L 2766 1759 
L 2194 1759 
z
M 3341 1997 
L 3341 0 
L 2766 0 
L 2766 531 
Q 2569 213 2275 61 
Q 1981 -91 1556 -91 
Q 1019 -91 701 211 
Q 384 513 384 1019 
Q 384 1609 779 1909 
Q 1175 2209 1959 2209 
L 2766 2209 
L 2766 2266 
Q 2766 2663 2505 2880 
Q 2244 3097 1772 3097 
Q 1472 3097 1187 3025 
Q 903 2953 641 2809 
L 641 3341 
Q 956 3463 1253 3523 
Q 1550 3584 1831 3584 
Q 2591 3584 2966 3190 
Q 3341 2797 3341 1997 
z
" id="DejaVuSans-61" transform="scale(0.015625)"/>
        <path d="M 3513 2113 
L 3513 0 
L 2938 0 
L 2938 2094 
Q 2938 2591 2744 2837 
Q 2550 3084 2163 3084 
Q 1697 3084 1428 2787 
Q 1159 2491 1159 1978 
L 1159 0 
L 581 0 
L 581 3500 
L 1159 3500 
L 1159 2956 
Q 1366 3272 1645 3428 
Q 1925 3584 2291 3584 
Q 2894 3584 3203 3211 
Q 3513 2838 3513 2113 
z
" id="DejaVuSans-6e" transform="scale(0.015625)"/>
        <path d="M 544 1381 
L 544 3500 
L 1119 3500 
L 1119 1403 
Q 1119 906 1312 657 
Q 1506 409 1894 409 
Q 2359 409 2629 706 
Q 2900 1003 2900 1516 
L 2900 3500 
L 3475 3500 
L 3475 0 
L 2900 0 
L 2900 538 
Q 2691 219 2414 64 
Q 2138 -91 1772 -91 
Q 1169 -91 856 284 
Q 544 659 544 1381 
z
M 1991 3584 
L 1991 3584 
z
" id="DejaVuSans-75" transform="scale(0.015625)"/>
        <path d="M 2631 2963 
Q 2534 3019 2420 3045 
Q 2306 3072 2169 3072 
Q 1681 3072 1420 2755 
Q 1159 2438 1159 1844 
L 1159 0 
L 581 0 
L 581 3500 
L 1159 3500 
L 1159 2956 
Q 1341 3275 1631 3429 
Q 1922 3584 2338 3584 
Q 2397 3584 2469 3576 
Q 2541 3569 2628 3553 
L 2631 2963 
z
" id="DejaVuSans-72" transform="scale(0.015625)"/>
        <path d="M 2059 -325 
Q 1816 -950 1584 -1140 
Q 1353 -1331 966 -1331 
L 506 -1331 
L 506 -850 
L 844 -850 
Q 1081 -850 1212 -737 
Q 1344 -625 1503 -206 
L 1606 56 
L 191 3500 
L 800 3500 
L 1894 763 
L 2988 3500 
L 3597 3500 
L 2059 -325 
z
" id="DejaVuSans-79" transform="scale(0.015625)"/>
       </defs>
       <use xlink:href="#DejaVuSans-4a"/>
       <use x="29.492188" xlink:href="#DejaVuSans-61"/>
       <use x="90.771484" xlink:href="#DejaVuSans-6e"/>
       <use x="154.150391" xlink:href="#DejaVuSans-75"/>
       <use x="217.529297" xlink:href="#DejaVuSans-61"/>
       <use x="278.808594" xlink:href="#DejaVuSans-72"/>
       <use x="319.921875" xlink:href="#DejaVuSans-79"/>
      </g>
     </g>
    </g>
    <g id="xtick_2">
     <g id="line2d_2">
      <g>
       <use style="stroke:#000000;stroke-width:0.8;" x="262.44" xlink:href="#m24036ab1e6" y="768.96"/>
      </g>
     </g>
     <g id="text_2">
      <!-- February -->
      <g transform="translate(240.285313 783.558437)scale(0.1 -0.1)">
       <defs>
        <path d="M 628 4666 
L 3309 4666 
L 3309 4134 
L 1259 4134 
L 1259 2759 
L 3109 2759 
L 3109 2228 
L 1259 2228 
L 1259 0 
L 628 0 
L 628 4666 
z
" id="DejaVuSans-46" transform="scale(0.015625)"/>
        <path d="M 3597 1894 
L 3597 1613 
L 953 1613 
Q 991 1019 1311 708 
Q 1631 397 2203 397 
Q 2534 397 2845 478 
Q 3156 559 3463 722 
L 3463 178 
Q 3153 47 2828 -22 
Q 2503 -91 2169 -91 
Q 1331 -91 842 396 
Q 353 884 353 1716 
Q 353 2575 817 3079 
Q 1281 3584 2069 3584 
Q 2775 3584 3186 3129 
Q 3597 2675 3597 1894 
z
M 3022 2063 
Q 3016 2534 2758 2815 
Q 2500 3097 2075 3097 
Q 1594 3097 1305 2825 
Q 1016 2553 972 2059 
L 3022 2063 
z
" id="DejaVuSans-65" transform="scale(0.015625)"/>
        <path d="M 3116 1747 
Q 3116 2381 2855 2742 
Q 2594 3103 2138 3103 
Q 1681 3103 1420 2742 
Q 1159 2381 1159 1747 
Q 1159 1113 1420 752 
Q 1681 391 2138 391 
Q 2594 391 2855 752 
Q 3116 1113 3116 1747 
z
M 1159 2969 
Q 1341 3281 1617 3432 
Q 1894 3584 2278 3584 
Q 2916 3584 3314 3078 
Q 3713 2572 3713 1747 
Q 3713 922 3314 415 
Q 2916 -91 2278 -91 
Q 1894 -91 1617 61 
Q 1341 213 1159 525 
L 1159 0 
L 581 0 
L 581 4863 
L 1159 4863 
L 1159 2969 
z
" id="DejaVuSans-62" transform="scale(0.015625)"/>
       </defs>
       <use xlink:href="#DejaVuSans-46"/>
       <use x="52.019531" xlink:href="#DejaVuSans-65"/>
       <use x="113.542969" xlink:href="#DejaVuSans-62"/>
       <use x="177.019531" xlink:href="#DejaVuSans-72"/>
       <use x="218.132812" xlink:href="#DejaVuSans-75"/>
       <use x="281.511719" xlink:href="#DejaVuSans-61"/>
       <use x="342.791016" xlink:href="#DejaVuSans-72"/>
       <use x="383.904297" xlink:href="#DejaVuSans-79"/>
      </g>
     </g>
    </g>
    <g id="xtick_3">
     <g id="line2d_3">
      <g>
       <use style="stroke:#000000;stroke-width:0.8;" x="351.72" xlink:href="#m24036ab1e6" y="768.96"/>
      </g>
     </g>
     <g id="text_3">
      <!-- March -->
      <g transform="translate(336.480938 783.558437)scale(0.1 -0.1)">
       <defs>
        <path d="M 628 4666 
L 1569 4666 
L 2759 1491 
L 3956 4666 
L 4897 4666 
L 4897 0 
L 4281 0 
L 4281 4097 
L 3078 897 
L 2444 897 
L 1241 4097 
L 1241 0 
L 628 0 
L 628 4666 
z
" id="DejaVuSans-4d" transform="scale(0.015625)"/>
        <path d="M 3122 3366 
L 3122 2828 
Q 2878 2963 2633 3030 
Q 2388 3097 2138 3097 
Q 1578 3097 1268 2742 
Q 959 2388 959 1747 
Q 959 1106 1268 751 
Q 1578 397 2138 397 
Q 2388 397 2633 464 
Q 2878 531 3122 666 
L 3122 134 
Q 2881 22 2623 -34 
Q 2366 -91 2075 -91 
Q 1284 -91 818 406 
Q 353 903 353 1747 
Q 353 2603 823 3093 
Q 1294 3584 2113 3584 
Q 2378 3584 2631 3529 
Q 2884 3475 3122 3366 
z
" id="DejaVuSans-63" transform="scale(0.015625)"/>
        <path d="M 3513 2113 
L 3513 0 
L 2938 0 
L 2938 2094 
Q 2938 2591 2744 2837 
Q 2550 3084 2163 3084 
Q 1697 3084 1428 2787 
Q 1159 2491 1159 1978 
L 1159 0 
L 581 0 
L 581 4863 
L 1159 4863 
L 1159 2956 
Q 1366 3272 1645 3428 
Q 1925 3584 2291 3584 
Q 2894 3584 3203 3211 
Q 3513 2838 3513 2113 
z
" id="DejaVuSans-68" transform="scale(0.015625)"/>
       </defs>
       <use xlink:href="#DejaVuSans-4d"/>
       <use x="86.279297" xlink:href="#DejaVuSans-61"/>
       <use x="147.558594" xlink:href="#DejaVuSans-72"/>
       <use x="186.421875" xlink:href="#DejaVuSans-63"/>
       <use x="241.402344" xlink:href="#DejaVuSans-68"/>
      </g>
     </g>
    </g>
    <g id="xtick_4">
     <g id="line2d_4">
      <g>
       <use style="stroke:#000000;stroke-width:0.8;" x="450.565714" xlink:href="#m24036ab1e6" y="768.96"/>
      </g>
     </g>
     <g id="text_4">
      <!-- April -->
      <g transform="translate(439.137589 783.558437)scale(0.1 -0.1)">
       <defs>
        <path d="M 2188 4044 
L 1331 1722 
L 3047 1722 
L 2188 4044 
z
M 1831 4666 
L 2547 4666 
L 4325 0 
L 3669 0 
L 3244 1197 
L 1141 1197 
L 716 0 
L 50 0 
L 1831 4666 
z
" id="DejaVuSans-41" transform="scale(0.015625)"/>
        <path d="M 1159 525 
L 1159 -1331 
L 581 -1331 
L 581 3500 
L 1159 3500 
L 1159 2969 
Q 1341 3281 1617 3432 
Q 1894 3584 2278 3584 
Q 2916 3584 3314 3078 
Q 3713 2572 3713 1747 
Q 3713 922 3314 415 
Q 2916 -91 2278 -91 
Q 1894 -91 1617 61 
Q 1341 213 1159 525 
z
M 3116 1747 
Q 3116 2381 2855 2742 
Q 2594 3103 2138 3103 
Q 1681 3103 1420 2742 
Q 1159 2381 1159 1747 
Q 1159 1113 1420 752 
Q 1681 391 2138 391 
Q 2594 391 2855 752 
Q 3116 1113 3116 1747 
z
" id="DejaVuSans-70" transform="scale(0.015625)"/>
        <path d="M 603 3500 
L 1178 3500 
L 1178 0 
L 603 0 
L 603 3500 
z
M 603 4863 
L 1178 4863 
L 1178 4134 
L 603 4134 
L 603 4863 
z
" id="DejaVuSans-69" transform="scale(0.015625)"/>
        <path d="M 603 4863 
L 1178 4863 
L 1178 0 
L 603 0 
L 603 4863 
z
" id="DejaVuSans-6c" transform="scale(0.015625)"/>
       </defs>
       <use xlink:href="#DejaVuSans-41"/>
       <use x="68.408203" xlink:href="#DejaVuSans-70"/>
       <use x="131.884766" xlink:href="#DejaVuSans-72"/>
       <use x="172.998047" xlink:href="#DejaVuSans-69"/>
       <use x="200.78125" xlink:href="#DejaVuSans-6c"/>
      </g>
     </g>
    </g>
    <g id="xtick_5">
     <g id="line2d_5">
      <g>
       <use style="stroke:#000000;stroke-width:0.8;" x="546.222857" xlink:href="#m24036ab1e6" y="768.96"/>
      </g>
     </g>
     <g id="text_5">
      <!-- May -->
      <g transform="translate(535.885357 783.558437)scale(0.1 -0.1)">
       <use xlink:href="#DejaVuSans-4d"/>
       <use x="86.279297" xlink:href="#DejaVuSans-61"/>
       <use x="147.558594" xlink:href="#DejaVuSans-79"/>
      </g>
     </g>
    </g>
    <g id="xtick_6">
     <g id="line2d_6">
      <g>
       <use style="stroke:#000000;stroke-width:0.8;" x="645.068571" xlink:href="#m24036ab1e6" y="768.96"/>
      </g>
     </g>
     <g id="text_6">
      <!-- June -->
      <g transform="translate(634.179509 783.558437)scale(0.1 -0.1)">
       <use xlink:href="#DejaVuSans-4a"/>
       <use x="29.492188" xlink:href="#DejaVuSans-75"/>
       <use x="92.871094" xlink:href="#DejaVuSans-6e"/>
       <use x="156.25" xlink:href="#DejaVuSans-65"/>
      </g>
     </g>
    </g>
    <g id="xtick_7">
     <g id="line2d_7">
      <g>
       <use style="stroke:#000000;stroke-width:0.8;" x="740.725714" xlink:href="#m24036ab1e6" y="768.96"/>
      </g>
     </g>
     <g id="text_7">
      <!-- July -->
      <g transform="translate(731.733527 783.558437)scale(0.1 -0.1)">
       <use xlink:href="#DejaVuSans-4a"/>
       <use x="29.492188" xlink:href="#DejaVuSans-75"/>
       <use x="92.871094" xlink:href="#DejaVuSans-6c"/>
       <use x="120.654297" xlink:href="#DejaVuSans-79"/>
      </g>
     </g>
    </g>
    <g id="xtick_8">
     <g id="line2d_8">
      <g>
       <use style="stroke:#000000;stroke-width:0.8;" x="839.571429" xlink:href="#m24036ab1e6" y="768.96"/>
      </g>
     </g>
     <g id="text_8">
      <!-- August -->
      <g transform="translate(822.074554 783.558437)scale(0.1 -0.1)">
       <defs>
        <path d="M 2906 1791 
Q 2906 2416 2648 2759 
Q 2391 3103 1925 3103 
Q 1463 3103 1205 2759 
Q 947 2416 947 1791 
Q 947 1169 1205 825 
Q 1463 481 1925 481 
Q 2391 481 2648 825 
Q 2906 1169 2906 1791 
z
M 3481 434 
Q 3481 -459 3084 -895 
Q 2688 -1331 1869 -1331 
Q 1566 -1331 1297 -1286 
Q 1028 -1241 775 -1147 
L 775 -588 
Q 1028 -725 1275 -790 
Q 1522 -856 1778 -856 
Q 2344 -856 2625 -561 
Q 2906 -266 2906 331 
L 2906 616 
Q 2728 306 2450 153 
Q 2172 0 1784 0 
Q 1141 0 747 490 
Q 353 981 353 1791 
Q 353 2603 747 3093 
Q 1141 3584 1784 3584 
Q 2172 3584 2450 3431 
Q 2728 3278 2906 2969 
L 2906 3500 
L 3481 3500 
L 3481 434 
z
" id="DejaVuSans-67" transform="scale(0.015625)"/>
        <path d="M 2834 3397 
L 2834 2853 
Q 2591 2978 2328 3040 
Q 2066 3103 1784 3103 
Q 1356 3103 1142 2972 
Q 928 2841 928 2578 
Q 928 2378 1081 2264 
Q 1234 2150 1697 2047 
L 1894 2003 
Q 2506 1872 2764 1633 
Q 3022 1394 3022 966 
Q 3022 478 2636 193 
Q 2250 -91 1575 -91 
Q 1294 -91 989 -36 
Q 684 19 347 128 
L 347 722 
Q 666 556 975 473 
Q 1284 391 1588 391 
Q 1994 391 2212 530 
Q 2431 669 2431 922 
Q 2431 1156 2273 1281 
Q 2116 1406 1581 1522 
L 1381 1569 
Q 847 1681 609 1914 
Q 372 2147 372 2553 
Q 372 3047 722 3315 
Q 1072 3584 1716 3584 
Q 2034 3584 2315 3537 
Q 2597 3491 2834 3397 
z
" id="DejaVuSans-73" transform="scale(0.015625)"/>
        <path d="M 1172 4494 
L 1172 3500 
L 2356 3500 
L 2356 3053 
L 1172 3053 
L 1172 1153 
Q 1172 725 1289 603 
Q 1406 481 1766 481 
L 2356 481 
L 2356 0 
L 1766 0 
Q 1100 0 847 248 
Q 594 497 594 1153 
L 594 3053 
L 172 3053 
L 172 3500 
L 594 3500 
L 594 4494 
L 1172 4494 
z
" id="DejaVuSans-74" transform="scale(0.015625)"/>
       </defs>
       <use xlink:href="#DejaVuSans-41"/>
       <use x="68.408203" xlink:href="#DejaVuSans-75"/>
       <use x="131.787109" xlink:href="#DejaVuSans-67"/>
       <use x="195.263672" xlink:href="#DejaVuSans-75"/>
       <use x="258.642578" xlink:href="#DejaVuSans-73"/>
       <use x="310.742188" xlink:href="#DejaVuSans-74"/>
      </g>
     </g>
    </g>
    <g id="xtick_9">
     <g id="line2d_9">
      <g>
       <use style="stroke:#000000;stroke-width:0.8;" x="938.417143" xlink:href="#m24036ab1e6" y="768.96"/>
      </g>
     </g>
     <g id="text_9">
      <!-- September -->
      <g transform="translate(910.778862 783.558437)scale(0.1 -0.1)">
       <defs>
        <path d="M 3425 4513 
L 3425 3897 
Q 3066 4069 2747 4153 
Q 2428 4238 2131 4238 
Q 1616 4238 1336 4038 
Q 1056 3838 1056 3469 
Q 1056 3159 1242 3001 
Q 1428 2844 1947 2747 
L 2328 2669 
Q 3034 2534 3370 2195 
Q 3706 1856 3706 1288 
Q 3706 609 3251 259 
Q 2797 -91 1919 -91 
Q 1588 -91 1214 -16 
Q 841 59 441 206 
L 441 856 
Q 825 641 1194 531 
Q 1563 422 1919 422 
Q 2459 422 2753 634 
Q 3047 847 3047 1241 
Q 3047 1584 2836 1778 
Q 2625 1972 2144 2069 
L 1759 2144 
Q 1053 2284 737 2584 
Q 422 2884 422 3419 
Q 422 4038 858 4394 
Q 1294 4750 2059 4750 
Q 2388 4750 2728 4690 
Q 3069 4631 3425 4513 
z
" id="DejaVuSans-53" transform="scale(0.015625)"/>
        <path d="M 3328 2828 
Q 3544 3216 3844 3400 
Q 4144 3584 4550 3584 
Q 5097 3584 5394 3201 
Q 5691 2819 5691 2113 
L 5691 0 
L 5113 0 
L 5113 2094 
Q 5113 2597 4934 2840 
Q 4756 3084 4391 3084 
Q 3944 3084 3684 2787 
Q 3425 2491 3425 1978 
L 3425 0 
L 2847 0 
L 2847 2094 
Q 2847 2600 2669 2842 
Q 2491 3084 2119 3084 
Q 1678 3084 1418 2786 
Q 1159 2488 1159 1978 
L 1159 0 
L 581 0 
L 581 3500 
L 1159 3500 
L 1159 2956 
Q 1356 3278 1631 3431 
Q 1906 3584 2284 3584 
Q 2666 3584 2933 3390 
Q 3200 3197 3328 2828 
z
" id="DejaVuSans-6d" transform="scale(0.015625)"/>
       </defs>
       <use xlink:href="#DejaVuSans-53"/>
       <use x="63.476562" xlink:href="#DejaVuSans-65"/>
       <use x="125" xlink:href="#DejaVuSans-70"/>
       <use x="188.476562" xlink:href="#DejaVuSans-74"/>
       <use x="227.685547" xlink:href="#DejaVuSans-65"/>
       <use x="289.208984" xlink:href="#DejaVuSans-6d"/>
       <use x="386.621094" xlink:href="#DejaVuSans-62"/>
       <use x="450.097656" xlink:href="#DejaVuSans-65"/>
       <use x="511.621094" xlink:href="#DejaVuSans-72"/>
      </g>
     </g>
    </g>
    <g id="xtick_10">
     <g id="line2d_10">
      <g>
       <use style="stroke:#000000;stroke-width:0.8;" x="1034.074286" xlink:href="#m24036ab1e6" y="768.96"/>
      </g>
     </g>
     <g id="text_10">
      <!-- October -->
      <g transform="translate(1014.063348 783.558437)scale(0.1 -0.1)">
       <defs>
        <path d="M 2522 4238 
Q 1834 4238 1429 3725 
Q 1025 3213 1025 2328 
Q 1025 1447 1429 934 
Q 1834 422 2522 422 
Q 3209 422 3611 934 
Q 4013 1447 4013 2328 
Q 4013 3213 3611 3725 
Q 3209 4238 2522 4238 
z
M 2522 4750 
Q 3503 4750 4090 4092 
Q 4678 3434 4678 2328 
Q 4678 1225 4090 567 
Q 3503 -91 2522 -91 
Q 1538 -91 948 565 
Q 359 1222 359 2328 
Q 359 3434 948 4092 
Q 1538 4750 2522 4750 
z
" id="DejaVuSans-4f" transform="scale(0.015625)"/>
        <path d="M 1959 3097 
Q 1497 3097 1228 2736 
Q 959 2375 959 1747 
Q 959 1119 1226 758 
Q 1494 397 1959 397 
Q 2419 397 2687 759 
Q 2956 1122 2956 1747 
Q 2956 2369 2687 2733 
Q 2419 3097 1959 3097 
z
M 1959 3584 
Q 2709 3584 3137 3096 
Q 3566 2609 3566 1747 
Q 3566 888 3137 398 
Q 2709 -91 1959 -91 
Q 1206 -91 779 398 
Q 353 888 353 1747 
Q 353 2609 779 3096 
Q 1206 3584 1959 3584 
z
" id="DejaVuSans-6f" transform="scale(0.015625)"/>
       </defs>
       <use xlink:href="#DejaVuSans-4f"/>
       <use x="78.710938" xlink:href="#DejaVuSans-63"/>
       <use x="133.691406" xlink:href="#DejaVuSans-74"/>
       <use x="172.900391" xlink:href="#DejaVuSans-6f"/>
       <use x="234.082031" xlink:href="#DejaVuSans-62"/>
       <use x="297.558594" xlink:href="#DejaVuSans-65"/>
       <use x="359.082031" xlink:href="#DejaVuSans-72"/>
      </g>
     </g>
    </g>
    <g id="xtick_11">
     <g id="line2d_11">
      <g>
       <use style="stroke:#000000;stroke-width:0.8;" x="1132.92" xlink:href="#m24036ab1e6" y="768.96"/>
      </g>
     </g>
     <g id="text_11">
      <!-- November -->
      <g transform="translate(1106.9075 783.558437)scale(0.1 -0.1)">
       <defs>
        <path d="M 628 4666 
L 1478 4666 
L 3547 763 
L 3547 4666 
L 4159 4666 
L 4159 0 
L 3309 0 
L 1241 3903 
L 1241 0 
L 628 0 
L 628 4666 
z
" id="DejaVuSans-4e" transform="scale(0.015625)"/>
        <path d="M 191 3500 
L 800 3500 
L 1894 563 
L 2988 3500 
L 3597 3500 
L 2284 0 
L 1503 0 
L 191 3500 
z
" id="DejaVuSans-76" transform="scale(0.015625)"/>
       </defs>
       <use xlink:href="#DejaVuSans-4e"/>
       <use x="74.804688" xlink:href="#DejaVuSans-6f"/>
       <use x="135.986328" xlink:href="#DejaVuSans-76"/>
       <use x="195.166016" xlink:href="#DejaVuSans-65"/>
       <use x="256.689453" xlink:href="#DejaVuSans-6d"/>
       <use x="354.101562" xlink:href="#DejaVuSans-62"/>
       <use x="417.578125" xlink:href="#DejaVuSans-65"/>
       <use x="479.101562" xlink:href="#DejaVuSans-72"/>
      </g>
     </g>
    </g>
   </g>
   <g id="matplotlib.axis_2">
    <g id="ytick_1">
     <g id="line2d_12">
      <defs>
       <path d="M 0 0 
L -3.5 0 
" id="m6f304fb586" style="stroke:#000000;stroke-width:0.8;"/>
      </defs>
      <g>
       <use style="stroke:#000000;stroke-width:0.8;" x="162" xlink:href="#m6f304fb586" y="768.96"/>
      </g>
     </g>
     <g id="text_12">
      <!-- 0 -->
      <g transform="translate(148.6375 772.759219)scale(0.1 -0.1)">
       <defs>
        <path d="M 2034 4250 
Q 1547 4250 1301 3770 
Q 1056 3291 1056 2328 
Q 1056 1369 1301 889 
Q 1547 409 2034 409 
Q 2525 409 2770 889 
Q 3016 1369 3016 2328 
Q 3016 3291 2770 3770 
Q 2525 4250 2034 4250 
z
M 2034 4750 
Q 2819 4750 3233 4129 
Q 3647 3509 3647 2328 
Q 3647 1150 3233 529 
Q 2819 -91 2034 -91 
Q 1250 -91 836 529 
Q 422 1150 422 2328 
Q 422 3509 836 4129 
Q 1250 4750 2034 4750 
z
" id="DejaVuSans-30" transform="scale(0.015625)"/>
       </defs>
       <use xlink:href="#DejaVuSans-30"/>
      </g>
     </g>
    </g>
    <g id="ytick_2">
     <g id="line2d_13">
      <g>
       <use style="stroke:#000000;stroke-width:0.8;" x="162" xlink:href="#m6f304fb586" y="651.627753"/>
      </g>
     </g>
     <g id="text_13">
      <!-- 20000 -->
      <g transform="translate(123.1875 655.426972)scale(0.1 -0.1)">
       <defs>
        <path d="M 1228 531 
L 3431 531 
L 3431 0 
L 469 0 
L 469 531 
Q 828 903 1448 1529 
Q 2069 2156 2228 2338 
Q 2531 2678 2651 2914 
Q 2772 3150 2772 3378 
Q 2772 3750 2511 3984 
Q 2250 4219 1831 4219 
Q 1534 4219 1204 4116 
Q 875 4013 500 3803 
L 500 4441 
Q 881 4594 1212 4672 
Q 1544 4750 1819 4750 
Q 2544 4750 2975 4387 
Q 3406 4025 3406 3419 
Q 3406 3131 3298 2873 
Q 3191 2616 2906 2266 
Q 2828 2175 2409 1742 
Q 1991 1309 1228 531 
z
" id="DejaVuSans-32" transform="scale(0.015625)"/>
       </defs>
       <use xlink:href="#DejaVuSans-32"/>
       <use x="63.623047" xlink:href="#DejaVuSans-30"/>
       <use x="127.246094" xlink:href="#DejaVuSans-30"/>
       <use x="190.869141" xlink:href="#DejaVuSans-30"/>
       <use x="254.492188" xlink:href="#DejaVuSans-30"/>
      </g>
     </g>
    </g>
    <g id="ytick_3">
     <g id="line2d_14">
      <g>
       <use style="stroke:#000000;stroke-width:0.8;" x="162" xlink:href="#m6f304fb586" y="534.295506"/>
      </g>
     </g>
     <g id="text_14">
      <!-- 40000 -->
      <g transform="translate(123.1875 538.094725)scale(0.1 -0.1)">
       <defs>
        <path d="M 2419 4116 
L 825 1625 
L 2419 1625 
L 2419 4116 
z
M 2253 4666 
L 3047 4666 
L 3047 1625 
L 3713 1625 
L 3713 1100 
L 3047 1100 
L 3047 0 
L 2419 0 
L 2419 1100 
L 313 1100 
L 313 1709 
L 2253 4666 
z
" id="DejaVuSans-34" transform="scale(0.015625)"/>
       </defs>
       <use xlink:href="#DejaVuSans-34"/>
       <use x="63.623047" xlink:href="#DejaVuSans-30"/>
       <use x="127.246094" xlink:href="#DejaVuSans-30"/>
       <use x="190.869141" xlink:href="#DejaVuSans-30"/>
       <use x="254.492188" xlink:href="#DejaVuSans-30"/>
      </g>
     </g>
    </g>
    <g id="ytick_4">
     <g id="line2d_15">
      <g>
       <use style="stroke:#000000;stroke-width:0.8;" x="162" xlink:href="#m6f304fb586" y="416.963259"/>
      </g>
     </g>
     <g id="text_15">
      <!-- 60000 -->
      <g transform="translate(123.1875 420.762478)scale(0.1 -0.1)">
       <defs>
        <path d="M 2113 2584 
Q 1688 2584 1439 2293 
Q 1191 2003 1191 1497 
Q 1191 994 1439 701 
Q 1688 409 2113 409 
Q 2538 409 2786 701 
Q 3034 994 3034 1497 
Q 3034 2003 2786 2293 
Q 2538 2584 2113 2584 
z
M 3366 4563 
L 3366 3988 
Q 3128 4100 2886 4159 
Q 2644 4219 2406 4219 
Q 1781 4219 1451 3797 
Q 1122 3375 1075 2522 
Q 1259 2794 1537 2939 
Q 1816 3084 2150 3084 
Q 2853 3084 3261 2657 
Q 3669 2231 3669 1497 
Q 3669 778 3244 343 
Q 2819 -91 2113 -91 
Q 1303 -91 875 529 
Q 447 1150 447 2328 
Q 447 3434 972 4092 
Q 1497 4750 2381 4750 
Q 2619 4750 2861 4703 
Q 3103 4656 3366 4563 
z
" id="DejaVuSans-36" transform="scale(0.015625)"/>
       </defs>
       <use xlink:href="#DejaVuSans-36"/>
       <use x="63.623047" xlink:href="#DejaVuSans-30"/>
       <use x="127.246094" xlink:href="#DejaVuSans-30"/>
       <use x="190.869141" xlink:href="#DejaVuSans-30"/>
       <use x="254.492188" xlink:href="#DejaVuSans-30"/>
      </g>
     </g>
    </g>
    <g id="ytick_5">
     <g id="line2d_16">
      <g>
       <use style="stroke:#000000;stroke-width:0.8;" x="162" xlink:href="#m6f304fb586" y="299.631012"/>
      </g>
     </g>
     <g id="text_16">
      <!-- 80000 -->
      <g transform="translate(123.1875 303.430231)scale(0.1 -0.1)">
       <defs>
        <path d="M 2034 2216 
Q 1584 2216 1326 1975 
Q 1069 1734 1069 1313 
Q 1069 891 1326 650 
Q 1584 409 2034 409 
Q 2484 409 2743 651 
Q 3003 894 3003 1313 
Q 3003 1734 2745 1975 
Q 2488 2216 2034 2216 
z
M 1403 2484 
Q 997 2584 770 2862 
Q 544 3141 544 3541 
Q 544 4100 942 4425 
Q 1341 4750 2034 4750 
Q 2731 4750 3128 4425 
Q 3525 4100 3525 3541 
Q 3525 3141 3298 2862 
Q 3072 2584 2669 2484 
Q 3125 2378 3379 2068 
Q 3634 1759 3634 1313 
Q 3634 634 3220 271 
Q 2806 -91 2034 -91 
Q 1263 -91 848 271 
Q 434 634 434 1313 
Q 434 1759 690 2068 
Q 947 2378 1403 2484 
z
M 1172 3481 
Q 1172 3119 1398 2916 
Q 1625 2713 2034 2713 
Q 2441 2713 2670 2916 
Q 2900 3119 2900 3481 
Q 2900 3844 2670 4047 
Q 2441 4250 2034 4250 
Q 1625 4250 1398 4047 
Q 1172 3844 1172 3481 
z
" id="DejaVuSans-38" transform="scale(0.015625)"/>
       </defs>
       <use xlink:href="#DejaVuSans-38"/>
       <use x="63.623047" xlink:href="#DejaVuSans-30"/>
       <use x="127.246094" xlink:href="#DejaVuSans-30"/>
       <use x="190.869141" xlink:href="#DejaVuSans-30"/>
       <use x="254.492188" xlink:href="#DejaVuSans-30"/>
      </g>
     </g>
    </g>
    <g id="ytick_6">
     <g id="line2d_17">
      <g>
       <use style="stroke:#000000;stroke-width:0.8;" x="162" xlink:href="#m6f304fb586" y="182.298765"/>
      </g>
     </g>
     <g id="text_17">
      <!-- 100000 -->
      <g transform="translate(116.825 186.097984)scale(0.1 -0.1)">
       <defs>
        <path d="M 794 531 
L 1825 531 
L 1825 4091 
L 703 3866 
L 703 4441 
L 1819 4666 
L 2450 4666 
L 2450 531 
L 3481 531 
L 3481 0 
L 794 0 
L 794 531 
z
" id="DejaVuSans-31" transform="scale(0.015625)"/>
       </defs>
       <use xlink:href="#DejaVuSans-31"/>
       <use x="63.623047" xlink:href="#DejaVuSans-30"/>
       <use x="127.246094" xlink:href="#DejaVuSans-30"/>
       <use x="190.869141" xlink:href="#DejaVuSans-30"/>
       <use x="254.492188" xlink:href="#DejaVuSans-30"/>
       <use x="318.115234" xlink:href="#DejaVuSans-30"/>
      </g>
     </g>
    </g>
    <g id="text_18">
     <!-- Persons fully vaccinated -->
     <g transform="translate(110.745312 496.922344)rotate(-90)scale(0.1 -0.1)">
      <defs>
       <path d="M 1259 4147 
L 1259 2394 
L 2053 2394 
Q 2494 2394 2734 2622 
Q 2975 2850 2975 3272 
Q 2975 3691 2734 3919 
Q 2494 4147 2053 4147 
L 1259 4147 
z
M 628 4666 
L 2053 4666 
Q 2838 4666 3239 4311 
Q 3641 3956 3641 3272 
Q 3641 2581 3239 2228 
Q 2838 1875 2053 1875 
L 1259 1875 
L 1259 0 
L 628 0 
L 628 4666 
z
" id="DejaVuSans-50" transform="scale(0.015625)"/>
       <path id="DejaVuSans-20" transform="scale(0.015625)"/>
       <path d="M 2375 4863 
L 2375 4384 
L 1825 4384 
Q 1516 4384 1395 4259 
Q 1275 4134 1275 3809 
L 1275 3500 
L 2222 3500 
L 2222 3053 
L 1275 3053 
L 1275 0 
L 697 0 
L 697 3053 
L 147 3053 
L 147 3500 
L 697 3500 
L 697 3744 
Q 697 4328 969 4595 
Q 1241 4863 1831 4863 
L 2375 4863 
z
" id="DejaVuSans-66" transform="scale(0.015625)"/>
       <path d="M 2906 2969 
L 2906 4863 
L 3481 4863 
L 3481 0 
L 2906 0 
L 2906 525 
Q 2725 213 2448 61 
Q 2172 -91 1784 -91 
Q 1150 -91 751 415 
Q 353 922 353 1747 
Q 353 2572 751 3078 
Q 1150 3584 1784 3584 
Q 2172 3584 2448 3432 
Q 2725 3281 2906 2969 
z
M 947 1747 
Q 947 1113 1208 752 
Q 1469 391 1925 391 
Q 2381 391 2643 752 
Q 2906 1113 2906 1747 
Q 2906 2381 2643 2742 
Q 2381 3103 1925 3103 
Q 1469 3103 1208 2742 
Q 947 2381 947 1747 
z
" id="DejaVuSans-64" transform="scale(0.015625)"/>
      </defs>
      <use xlink:href="#DejaVuSans-50"/>
      <use x="56.677734" xlink:href="#DejaVuSans-65"/>
      <use x="118.201172" xlink:href="#DejaVuSans-72"/>
      <use x="159.314453" xlink:href="#DejaVuSans-73"/>
      <use x="211.414062" xlink:href="#DejaVuSans-6f"/>
      <use x="272.595703" xlink:href="#DejaVuSans-6e"/>
      <use x="335.974609" xlink:href="#DejaVuSans-73"/>
      <use x="388.074219" xlink:href="#DejaVuSans-20"/>
      <use x="419.861328" xlink:href="#DejaVuSans-66"/>
      <use x="455.066406" xlink:href="#DejaVuSans-75"/>
      <use x="518.445312" xlink:href="#DejaVuSans-6c"/>
      <use x="546.228516" xlink:href="#DejaVuSans-6c"/>
      <use x="574.011719" xlink:href="#DejaVuSans-79"/>
      <use x="633.191406" xlink:href="#DejaVuSans-20"/>
      <use x="664.978516" xlink:href="#DejaVuSans-76"/>
      <use x="724.158203" xlink:href="#DejaVuSans-61"/>
      <use x="785.4375" xlink:href="#DejaVuSans-63"/>
      <use x="840.417969" xlink:href="#DejaVuSans-63"/>
      <use x="895.398438" xlink:href="#DejaVuSans-69"/>
      <use x="923.181641" xlink:href="#DejaVuSans-6e"/>
      <use x="986.560547" xlink:href="#DejaVuSans-61"/>
      <use x="1047.839844" xlink:href="#DejaVuSans-74"/>
      <use x="1087.048828" xlink:href="#DejaVuSans-65"/>
      <use x="1148.572266" xlink:href="#DejaVuSans-64"/>
     </g>
    </g>
   </g>
   <g id="line2d_18">
    <path clip-path="url(#p5f93c3ba30)" d="M 217.8 743.648082 
L 220.988571 743.793909 
L 224.177143 745.449132 
L 227.365714 741.946764 
L 230.554286 741.096944 
L 233.742857 739.150905 
L 236.931429 734.686413 
L 240.12 726.811743 
L 243.308571 718.135861 
L 246.497143 711.722816 
L 249.685714 705.576282 
L 252.874286 701.270189 
L 256.062857 700.303874 
L 259.251429 700.368407 
L 262.44 697.879287 
L 265.628571 702.694937 
L 268.817143 703.210361 
L 272.005714 703.077105 
L 275.194286 699.915839 
L 278.382857 700.014734 
L 281.571429 697.258264 
L 284.76 698.137418 
L 287.948571 692.567488 
L 291.137143 682.042786 
L 294.325714 673.21521 
L 297.514286 670.289447 
L 300.702857 666.911954 
L 303.891429 669.617301 
L 307.08 670.014554 
L 310.268571 665.41513 
L 313.457143 661.579204 
L 316.645714 655.666497 
L 319.834286 663.928363 
L 323.022857 651.781961 
L 326.211429 643.4388 
L 329.4 634.105858 
L 332.588571 611.514372 
L 335.777143 594.74927 
L 338.965714 581.932398 
L 342.154286 552.19454 
L 345.342857 555.072533 
L 348.531429 545.59544 
L 351.72 535.131079 
L 354.908571 540.816665 
L 358.097143 529.178144 
L 361.285714 515.178731 
L 364.474286 509.853523 
L 367.662857 513.338291 
L 370.851429 503.81175 
L 374.04 492.578864 
L 377.228571 482.264521 
L 380.417143 485.6043 
L 383.605714 479.001847 
L 386.794286 479.862563 
L 389.982857 454.120706 
L 393.171429 454.18021 
L 396.36 459.968042 
L 399.548571 474.229777 
L 402.737143 487.837803 
L 405.925714 507.179186 
L 409.114286 520.626299 
L 412.302857 545.439555 
L 415.491429 558.207818 
L 418.68 570.214259 
L 421.868571 576.849398 
L 425.057143 581.075035 
L 428.245714 578.129157 
L 431.434286 564.964479 
L 434.622857 563.341104 
L 437.811429 561.372436 
L 441 545.477269 
L 444.188571 537.007557 
L 447.377143 521.917792 
L 450.565714 514.95999 
L 453.754286 513.770744 
L 456.942857 517.976267 
L 460.131429 504.155366 
L 463.32 489.265904 
L 469.697143 435.981978 
L 472.885714 395.74037 
L 476.074286 373.770745 
L 479.262857 355.369696 
L 482.451429 342.634957 
L 485.64 337.757288 
L 488.828571 347.329085 
L 492.017143 350.63534 
L 495.205714 369.655735 
L 498.394286 380.46874 
L 501.582857 380.555901 
L 504.771429 388.752397 
L 507.96 383.292257 
L 511.148571 376.988163 
L 514.337143 386.992413 
L 517.525714 400.589544 
L 520.714286 412.551567 
L 523.902857 425.951747 
L 527.091429 431.545981 
L 530.28 447.178827 
L 533.468571 453.024487 
L 536.657143 463.788045 
L 539.845714 476.75242 
L 543.034286 494.776329 
L 546.222857 504.021272 
L 549.411429 517.788535 
L 552.6 511.425775 
L 555.788571 508.313118 
L 558.977143 517.427319 
L 562.165714 502.908292 
L 565.354286 481.936829 
L 568.542857 450.107105 
L 571.731429 438.073845 
L 574.92 452.068229 
L 578.108571 468.973292 
L 581.297143 470.06532 
L 584.485714 469.589286 
L 587.674286 477.358357 
L 590.862857 502.289783 
L 594.051429 513.320691 
L 597.24 513.898133 
L 600.428571 515.49888 
L 603.617143 501.983043 
L 606.805714 526.266628 
L 609.994286 531.227268 
L 613.182857 531.706654 
L 616.371429 533.485076 
L 619.56 550.830134 
L 622.748571 563.317637 
L 625.937143 590.466643 
L 629.125714 600.09124 
L 632.314286 610.905083 
L 635.502857 613.818275 
L 638.691429 628.114371 
L 641.88 638.480675 
L 645.068571 647.929273 
L 648.257143 649.814132 
L 651.445714 645.671465 
L 657.822857 627.22097 
L 661.011429 607.917301 
L 664.2 595.024163 
L 667.388571 578.100662 
L 670.577143 581.049892 
L 673.765714 589.34193 
L 676.954286 602.924814 
L 680.142857 608.838359 
L 683.331429 594.724966 
L 686.52 593.181209 
L 689.708571 605.858958 
L 692.897143 601.863795 
L 696.085714 610.713999 
L 699.274286 603.862633 
L 702.462857 608.562628 
L 705.651429 638.641588 
L 708.84 655.873504 
L 712.028571 660.819058 
L 715.217143 669.08763 
L 721.594286 611.865531 
L 724.782857 616.162405 
L 727.971429 615.947855 
L 731.16 615.438298 
L 734.348571 618.236672 
L 737.537143 625.470205 
L 740.725714 655.780477 
L 743.914286 695.747192 
L 747.102857 695.965933 
L 750.291429 706.075782 
L 753.48 712.726006 
L 756.668571 713.66215 
L 759.857143 713.287525 
L 763.045714 714.32843 
L 766.234286 714.115555 
L 769.422857 712.237401 
L 772.611429 701.677499 
L 775.8 699.121332 
L 782.177143 705.215905 
L 785.365714 706.747928 
L 788.554286 708.145858 
L 791.742857 709.114687 
L 794.931429 712.852558 
L 798.12 712.092412 
L 801.308571 711.613864 
L 807.685714 715.683617 
L 810.874286 718.809683 
L 814.062857 721.367526 
L 817.251429 724.715686 
L 820.44 725.225243 
L 823.628571 718.616085 
L 826.817143 717.125128 
L 830.005714 705.978564 
L 833.194286 703.744223 
L 839.571429 698.857335 
L 842.76 699.342587 
L 845.948571 707.016116 
L 849.137143 706.673339 
L 852.325714 715.57718 
L 855.514286 707.436836 
L 858.702857 706.62892 
L 861.891429 706.810785 
L 865.08 709.677882 
L 868.268571 695.778201 
L 871.457143 684.830265 
L 877.834286 667.946992 
L 881.022857 657.809486 
L 884.211429 656.607669 
L 887.4 651.895103 
L 890.588571 663.834497 
L 893.777143 673.67532 
L 896.965714 681.912882 
L 900.154286 695.375081 
L 903.342857 704.822841 
L 906.531429 704.671986 
L 909.72 704.730652 
L 912.908571 704.634272 
L 916.097143 703.403121 
L 919.285714 700.428749 
L 922.474286 691.989208 
L 925.662857 669.075058 
L 928.851429 663.309854 
L 932.04 663.40372 
L 935.228571 663.755717 
L 938.417143 665.493072 
L 941.605714 668.547063 
L 944.794286 677.884196 
L 947.982857 701.209846 
L 951.171429 710.586369 
L 954.36 716.182279 
L 957.548571 715.729712 
L 960.737143 715.785864 
L 967.114286 717.065623 
L 970.302857 717.07149 
L 973.491429 714.627627 
L 976.68 710.806786 
L 979.868571 712.783834 
L 983.057143 713.393124 
L 986.245714 713.238078 
L 989.434286 712.544141 
L 992.622857 712.156107 
L 995.811429 712.933014 
L 999 711.861938 
L 1002.188571 713.095603 
L 1005.377143 711.065755 
L 1008.565714 709.823709 
L 1011.754286 710.408695 
L 1014.942857 711.426133 
L 1018.131429 710.61235 
L 1021.32 712.795568 
L 1024.508571 714.384582 
L 1027.697143 721.042348 
L 1030.885714 721.311375 
L 1034.074286 716.551876 
L 1037.262857 717.459524 
L 1040.451429 715.850397 
L 1043.64 718.983168 
L 1046.828571 714.879891 
L 1050.017143 712.051346 
L 1053.205714 715.358439 
L 1056.394286 723.746019 
L 1059.582857 724.895037 
L 1062.771429 728.60525 
L 1065.96 726.642449 
L 1069.148571 729.060331 
L 1072.337143 730.516089 
L 1075.525714 728.197939 
L 1078.714286 727.447013 
L 1081.902857 727.639773 
L 1085.091429 727.245872 
L 1088.28 728.04876 
L 1091.468571 729.367071 
L 1094.657143 727.744534 
L 1097.845714 730.50268 
L 1101.034286 731.353339 
L 1104.222857 730.738182 
L 1107.411429 730.907476 
L 1110.6 729.548936 
L 1113.788571 729.782763 
L 1116.977143 731.186559 
L 1120.165714 719.915959 
L 1123.354286 719.531277 
L 1126.542857 719.972949 
L 1129.731429 720.930883 
L 1132.92 723.107396 
L 1136.108571 725.868056 
L 1139.297143 726.597192 
L 1142.485714 737.99602 
L 1145.674286 735.682061 
L 1148.862857 736.737213 
L 1152.051429 737.054848 
L 1155.24 734.66546 
L 1158.428571 731.514251 
L 1161.617143 730.443176 
L 1161.617143 730.443176 
" style="fill:none;stroke:#ffa500;stroke-linecap:square;stroke-width:1.5;"/>
   </g>
   <g id="patch_318">
    <path d="M 162 768.96 
L 162 103.68 
" style="fill:none;stroke:#000000;stroke-linecap:square;stroke-linejoin:miter;stroke-width:0.8;"/>
   </g>
   <g id="patch_319">
    <path d="M 1166.4 768.96 
L 1166.4 103.68 
" style="fill:none;stroke:#000000;stroke-linecap:square;stroke-linejoin:miter;stroke-width:0.8;"/>
   </g>
   <g id="patch_320">
    <path d="M 162 768.96 
L 1166.4 768.96 
" style="fill:none;stroke:#000000;stroke-linecap:square;stroke-linejoin:miter;stroke-width:0.8;"/>
   </g>
   <g id="patch_321">
    <path d="M 162 103.68 
L 1166.4 103.68 
" style="fill:none;stroke:#000000;stroke-linecap:square;stroke-linejoin:miter;stroke-width:0.8;"/>
   </g>
   <g id="text_19">
    <!-- Persons Fully Vaccinated -->
    <g transform="translate(590.380313 97.68)scale(0.12 -0.12)">
     <defs>
      <path d="M 1831 0 
L 50 4666 
L 709 4666 
L 2188 738 
L 3669 4666 
L 4325 4666 
L 2547 0 
L 1831 0 
z
" id="DejaVuSans-56" transform="scale(0.015625)"/>
     </defs>
     <use xlink:href="#DejaVuSans-50"/>
     <use x="56.677734" xlink:href="#DejaVuSans-65"/>
     <use x="118.201172" xlink:href="#DejaVuSans-72"/>
     <use x="159.314453" xlink:href="#DejaVuSans-73"/>
     <use x="211.414062" xlink:href="#DejaVuSans-6f"/>
     <use x="272.595703" xlink:href="#DejaVuSans-6e"/>
     <use x="335.974609" xlink:href="#DejaVuSans-73"/>
     <use x="388.074219" xlink:href="#DejaVuSans-20"/>
     <use x="419.861328" xlink:href="#DejaVuSans-46"/>
     <use x="471.880859" xlink:href="#DejaVuSans-75"/>
     <use x="535.259766" xlink:href="#DejaVuSans-6c"/>
     <use x="563.042969" xlink:href="#DejaVuSans-6c"/>
     <use x="590.826172" xlink:href="#DejaVuSans-79"/>
     <use x="650.005859" xlink:href="#DejaVuSans-20"/>
     <use x="681.792969" xlink:href="#DejaVuSans-56"/>
     <use x="742.451172" xlink:href="#DejaVuSans-61"/>
     <use x="803.730469" xlink:href="#DejaVuSans-63"/>
     <use x="858.710938" xlink:href="#DejaVuSans-63"/>
     <use x="913.691406" xlink:href="#DejaVuSans-69"/>
     <use x="941.474609" xlink:href="#DejaVuSans-6e"/>
     <use x="1004.853516" xlink:href="#DejaVuSans-61"/>
     <use x="1066.132812" xlink:href="#DejaVuSans-74"/>
     <use x="1105.341797" xlink:href="#DejaVuSans-65"/>
     <use x="1166.865234" xlink:href="#DejaVuSans-64"/>
    </g>
   </g>
  </g>
 </g>
 <defs>
  <clipPath id="p5f93c3ba30">
   <rect height="665.28" width="1004.4" x="162" y="103.68"/>
  </clipPath>
 </defs>
</svg>
