<?xml version="1.0" encoding="utf-8" standalone="no"?>
<!DOCTYPE svg PUBLIC "-//W3C//DTD SVG 1.1//EN"
  "http://www.w3.org/Graphics/SVG/1.1/DTD/svg11.dtd">
<svg height="864pt" version="1.1" viewBox="0 0 1296 864" width="1296pt" xmlns="http://www.w3.org/2000/svg" xmlns:xlink="http://www.w3.org/1999/xlink">
 <metadata>
  <rdf:RDF xmlns:cc="http://creativecommons.org/ns#" xmlns:dc="http://purl.org/dc/elements/1.1/" xmlns:rdf="http://www.w3.org/1999/02/22-rdf-syntax-ns#">
   <cc:Work>
    <dc:type rdf:resource="http://purl.org/dc/dcmitype/StillImage"/>
    <dc:date>2021-09-17T17:24:49.209564</dc:date>
    <dc:format>image/svg+xml</dc:format>
    <dc:creator>
     <cc:Agent>
      <dc:title>Matplotlib v3.4.2, https://matplotlib.org/</dc:title>
     </cc:Agent>
    </dc:creator>
   </cc:Work>
  </rdf:RDF>
 </metadata>
 <defs>
  <style type="text/css">*{stroke-linecap:butt;stroke-linejoin:round;}</style>
 </defs>
 <g id="figure_1">
  <g id="patch_1">
   <path d="M 0 864 
L 1296 864 
L 1296 0 
L 0 0 
z
" style="fill:#ffffff;"/>
  </g>
  <g id="axes_1">
   <g id="patch_2">
    <path d="M 162 768.96 
L 1166.4 768.96 
L 1166.4 103.68 
L 162 103.68 
z
" style="fill:#ffffff;"/>
   </g>
   <g id="patch_3">
    <path clip-path="url(#pa15ca5dee5)" d="M 162.969498 768.96 
L 164.908494 768.96 
L 164.908494 768.96 
L 162.969498 768.96 
z
" style="fill:#1f77b4;"/>
   </g>
   <g id="patch_4">
    <path clip-path="url(#pa15ca5dee5)" d="M 166.84749 768.96 
L 168.786486 768.96 
L 168.786486 768.96 
L 166.84749 768.96 
z
" style="fill:#1f77b4;"/>
   </g>
   <g id="patch_5">
    <path clip-path="url(#pa15ca5dee5)" d="M 170.725483 768.96 
L 172.664479 768.96 
L 172.664479 768.96 
L 170.725483 768.96 
z
" style="fill:#1f77b4;"/>
   </g>
   <g id="patch_6">
    <path clip-path="url(#pa15ca5dee5)" d="M 174.603475 768.96 
L 176.542471 768.96 
L 176.542471 768.231972 
L 174.603475 768.231972 
z
" style="fill:#1f77b4;"/>
   </g>
   <g id="patch_7">
    <path clip-path="url(#pa15ca5dee5)" d="M 178.481467 768.96 
L 180.420463 768.96 
L 180.420463 767.020533 
L 178.481467 767.020533 
z
" style="fill:#1f77b4;"/>
   </g>
   <g id="patch_8">
    <path clip-path="url(#pa15ca5dee5)" d="M 182.359459 768.96 
L 184.298456 768.96 
L 184.298456 754.894496 
L 182.359459 754.894496 
z
" style="fill:#1f77b4;"/>
   </g>
   <g id="patch_9">
    <path clip-path="url(#pa15ca5dee5)" d="M 186.237452 768.96 
L 188.176448 768.96 
L 188.176448 667.38551 
L 186.237452 667.38551 
z
" style="fill:#1f77b4;"/>
   </g>
   <g id="patch_10">
    <path clip-path="url(#pa15ca5dee5)" d="M 190.115444 768.96 
L 192.05444 768.96 
L 192.05444 646.429948 
L 190.115444 646.429948 
z
" style="fill:#1f77b4;"/>
   </g>
   <g id="patch_11">
    <path clip-path="url(#pa15ca5dee5)" d="M 193.993436 768.96 
L 195.932432 768.96 
L 195.932432 702.12119 
L 193.993436 702.12119 
z
" style="fill:#1f77b4;"/>
   </g>
   <g id="patch_12">
    <path clip-path="url(#pa15ca5dee5)" d="M 197.871429 768.96 
L 199.810425 768.96 
L 199.810425 728.440864 
L 197.871429 728.440864 
z
" style="fill:#1f77b4;"/>
   </g>
   <g id="patch_13">
    <path clip-path="url(#pa15ca5dee5)" d="M 201.749421 768.96 
L 203.688417 768.96 
L 203.688417 705.615725 
L 201.749421 705.615725 
z
" style="fill:#1f77b4;"/>
   </g>
   <g id="patch_14">
    <path clip-path="url(#pa15ca5dee5)" d="M 205.627413 768.96 
L 207.566409 768.96 
L 207.566409 708.865643 
L 205.627413 708.865643 
z
" style="fill:#1f77b4;"/>
   </g>
   <g id="patch_15">
    <path clip-path="url(#pa15ca5dee5)" d="M 209.505405 768.96 
L 211.444402 768.96 
L 211.444402 719.79189 
L 209.505405 719.79189 
z
" style="fill:#1f77b4;"/>
   </g>
   <g id="patch_16">
    <path clip-path="url(#pa15ca5dee5)" d="M 213.383398 768.96 
L 215.322394 768.96 
L 215.322394 709.086964 
L 213.383398 709.086964 
z
" style="fill:#1f77b4;"/>
   </g>
   <g id="patch_17">
    <path clip-path="url(#pa15ca5dee5)" d="M 217.26139 768.96 
L 219.200386 768.96 
L 219.200386 756.711654 
L 217.26139 756.711654 
z
" style="fill:#1f77b4;"/>
   </g>
   <g id="patch_18">
    <path clip-path="url(#pa15ca5dee5)" d="M 221.139382 768.96 
L 223.078378 768.96 
L 223.078378 761.312792 
L 221.139382 761.312792 
z
" style="fill:#1f77b4;"/>
   </g>
   <g id="patch_19">
    <path clip-path="url(#pa15ca5dee5)" d="M 225.017375 768.96 
L 226.956371 768.96 
L 226.956371 765.325683 
L 225.017375 765.325683 
z
" style="fill:#1f77b4;"/>
   </g>
   <g id="patch_20">
    <path clip-path="url(#pa15ca5dee5)" d="M 228.895367 768.96 
L 230.834363 768.96 
L 230.834363 752.180407 
L 228.895367 752.180407 
z
" style="fill:#1f77b4;"/>
   </g>
   <g id="patch_21">
    <path clip-path="url(#pa15ca5dee5)" d="M 232.773359 768.96 
L 234.712355 768.96 
L 234.712355 741.842407 
L 232.773359 741.842407 
z
" style="fill:#1f77b4;"/>
   </g>
   <g id="patch_22">
    <path clip-path="url(#pa15ca5dee5)" d="M 236.651351 768.96 
L 238.590347 768.96 
L 238.590347 718.108689 
L 236.651351 718.108689 
z
" style="fill:#1f77b4;"/>
   </g>
   <g id="patch_23">
    <path clip-path="url(#pa15ca5dee5)" d="M 240.529344 768.96 
L 242.46834 768.96 
L 242.46834 717.759235 
L 240.529344 717.759235 
z
" style="fill:#1f77b4;"/>
   </g>
   <g id="patch_24">
    <path clip-path="url(#pa15ca5dee5)" d="M 244.407336 768.96 
L 246.346332 768.96 
L 246.346332 732.063533 
L 244.407336 732.063533 
z
" style="fill:#1f77b4;"/>
   </g>
   <g id="patch_25">
    <path clip-path="url(#pa15ca5dee5)" d="M 248.285328 768.96 
L 250.224324 768.96 
L 250.224324 755.05175 
L 248.285328 755.05175 
z
" style="fill:#1f77b4;"/>
   </g>
   <g id="patch_26">
    <path clip-path="url(#pa15ca5dee5)" d="M 252.16332 768.96 
L 254.102317 768.96 
L 254.102317 750.549624 
L 252.16332 750.549624 
z
" style="fill:#1f77b4;"/>
   </g>
   <g id="patch_27">
    <path clip-path="url(#pa15ca5dee5)" d="M 256.041313 768.96 
L 257.980309 768.96 
L 257.980309 721.178055 
L 256.041313 721.178055 
z
" style="fill:#1f77b4;"/>
   </g>
   <g id="patch_28">
    <path clip-path="url(#pa15ca5dee5)" d="M 259.919305 768.96 
L 261.858301 768.96 
L 261.858301 685.475554 
L 259.919305 685.475554 
z
" style="fill:#1f77b4;"/>
   </g>
   <g id="patch_29">
    <path clip-path="url(#pa15ca5dee5)" d="M 263.797297 768.96 
L 265.736293 768.96 
L 265.736293 657.967738 
L 263.797297 657.967738 
z
" style="fill:#1f77b4;"/>
   </g>
   <g id="patch_30">
    <path clip-path="url(#pa15ca5dee5)" d="M 267.67529 768.96 
L 269.614286 768.96 
L 269.614286 673.110724 
L 267.67529 673.110724 
z
" style="fill:#1f77b4;"/>
   </g>
   <g id="patch_31">
    <path clip-path="url(#pa15ca5dee5)" d="M 271.553282 768.96 
L 273.492278 768.96 
L 273.492278 684.957198 
L 271.553282 684.957198 
z
" style="fill:#1f77b4;"/>
   </g>
   <g id="patch_32">
    <path clip-path="url(#pa15ca5dee5)" d="M 275.431274 768.96 
L 277.37027 768.96 
L 277.37027 722.90785 
L 275.431274 722.90785 
z
" style="fill:#1f77b4;"/>
   </g>
   <g id="patch_33">
    <path clip-path="url(#pa15ca5dee5)" d="M 279.309266 768.96 
L 281.248263 768.96 
L 281.248263 743.152858 
L 279.309266 743.152858 
z
" style="fill:#1f77b4;"/>
   </g>
   <g id="patch_34">
    <path clip-path="url(#pa15ca5dee5)" d="M 283.187259 768.96 
L 285.126255 768.96 
L 285.126255 721.585751 
L 283.187259 721.585751 
z
" style="fill:#1f77b4;"/>
   </g>
   <g id="patch_35">
    <path clip-path="url(#pa15ca5dee5)" d="M 287.065251 768.96 
L 289.004247 768.96 
L 289.004247 667.962109 
L 287.065251 667.962109 
z
" style="fill:#1f77b4;"/>
   </g>
   <g id="patch_36">
    <path clip-path="url(#pa15ca5dee5)" d="M 290.943243 768.96 
L 292.882239 768.96 
L 292.882239 693.926505 
L 290.943243 693.926505 
z
" style="fill:#1f77b4;"/>
   </g>
   <g id="patch_37">
    <path clip-path="url(#pa15ca5dee5)" d="M 294.821236 768.96 
L 296.760232 768.96 
L 296.760232 671.747855 
L 294.821236 671.747855 
z
" style="fill:#1f77b4;"/>
   </g>
   <g id="patch_38">
    <path clip-path="url(#pa15ca5dee5)" d="M 298.699228 768.96 
L 300.638224 768.96 
L 300.638224 688.906023 
L 298.699228 688.906023 
z
" style="fill:#1f77b4;"/>
   </g>
   <g id="patch_39">
    <path clip-path="url(#pa15ca5dee5)" d="M 302.57722 768.96 
L 304.516216 768.96 
L 304.516216 700.46711 
L 302.57722 700.46711 
z
" style="fill:#1f77b4;"/>
   </g>
   <g id="patch_40">
    <path clip-path="url(#pa15ca5dee5)" d="M 306.455212 768.96 
L 308.394208 768.96 
L 308.394208 745.797056 
L 306.455212 745.797056 
z
" style="fill:#1f77b4;"/>
   </g>
   <g id="patch_41">
    <path clip-path="url(#pa15ca5dee5)" d="M 310.333205 768.96 
L 312.272201 768.96 
L 312.272201 692.569461 
L 310.333205 692.569461 
z
" style="fill:#1f77b4;"/>
   </g>
   <g id="patch_42">
    <path clip-path="url(#pa15ca5dee5)" d="M 314.211197 768.96 
L 316.150193 768.96 
L 316.150193 673.157318 
L 314.211197 673.157318 
z
" style="fill:#1f77b4;"/>
   </g>
   <g id="patch_43">
    <path clip-path="url(#pa15ca5dee5)" d="M 318.089189 768.96 
L 320.028185 768.96 
L 320.028185 652.982201 
L 318.089189 652.982201 
z
" style="fill:#1f77b4;"/>
   </g>
   <g id="patch_44">
    <path clip-path="url(#pa15ca5dee5)" d="M 321.967181 768.96 
L 323.906178 768.96 
L 323.906178 602.911336 
L 321.967181 602.911336 
z
" style="fill:#1f77b4;"/>
   </g>
   <g id="patch_45">
    <path clip-path="url(#pa15ca5dee5)" d="M 325.845174 768.96 
L 327.78417 768.96 
L 327.78417 624.967677 
L 325.845174 624.967677 
z
" style="fill:#1f77b4;"/>
   </g>
   <g id="patch_46">
    <path clip-path="url(#pa15ca5dee5)" d="M 329.723166 768.96 
L 331.662162 768.96 
L 331.662162 679.511548 
L 329.723166 679.511548 
z
" style="fill:#1f77b4;"/>
   </g>
   <g id="patch_47">
    <path clip-path="url(#pa15ca5dee5)" d="M 333.601158 768.96 
L 335.540154 768.96 
L 335.540154 720.613106 
L 333.601158 720.613106 
z
" style="fill:#1f77b4;"/>
   </g>
   <g id="patch_48">
    <path clip-path="url(#pa15ca5dee5)" d="M 337.479151 768.96 
L 339.418147 768.96 
L 339.418147 721.178055 
L 337.479151 721.178055 
z
" style="fill:#1f77b4;"/>
   </g>
   <g id="patch_49">
    <path clip-path="url(#pa15ca5dee5)" d="M 341.357143 768.96 
L 343.296139 768.96 
L 343.296139 679.494075 
L 341.357143 679.494075 
z
" style="fill:#1f77b4;"/>
   </g>
   <g id="patch_50">
    <path clip-path="url(#pa15ca5dee5)" d="M 345.235135 768.96 
L 347.174131 768.96 
L 347.174131 619.475433 
L 345.235135 619.475433 
z
" style="fill:#1f77b4;"/>
   </g>
   <g id="patch_51">
    <path clip-path="url(#pa15ca5dee5)" d="M 349.113127 768.96 
L 351.052124 768.96 
L 351.052124 575.921876 
L 349.113127 575.921876 
z
" style="fill:#1f77b4;"/>
   </g>
   <g id="patch_52">
    <path clip-path="url(#pa15ca5dee5)" d="M 352.99112 768.96 
L 354.930116 768.96 
L 354.930116 583.912713 
L 352.99112 583.912713 
z
" style="fill:#1f77b4;"/>
   </g>
   <g id="patch_53">
    <path clip-path="url(#pa15ca5dee5)" d="M 356.869112 768.96 
L 358.808108 768.96 
L 358.808108 740.543605 
L 356.869112 740.543605 
z
" style="fill:#1f77b4;"/>
   </g>
   <g id="patch_54">
    <path clip-path="url(#pa15ca5dee5)" d="M 360.747104 768.96 
L 362.6861 768.96 
L 362.6861 631.857736 
L 360.747104 631.857736 
z
" style="fill:#1f77b4;"/>
   </g>
   <g id="patch_55">
    <path clip-path="url(#pa15ca5dee5)" d="M 364.625097 768.96 
L 366.564093 768.96 
L 366.564093 662.516458 
L 364.625097 662.516458 
z
" style="fill:#1f77b4;"/>
   </g>
   <g id="patch_56">
    <path clip-path="url(#pa15ca5dee5)" d="M 368.503089 768.96 
L 370.442085 768.96 
L 370.442085 610.523599 
L 368.503089 610.523599 
z
" style="fill:#1f77b4;"/>
   </g>
   <g id="patch_57">
    <path clip-path="url(#pa15ca5dee5)" d="M 372.381081 768.96 
L 374.320077 768.96 
L 374.320077 463.275534 
L 372.381081 463.275534 
z
" style="fill:#1f77b4;"/>
   </g>
   <g id="patch_58">
    <path clip-path="url(#pa15ca5dee5)" d="M 376.259073 768.96 
L 378.198069 768.96 
L 378.198069 459.297588 
L 376.259073 459.297588 
z
" style="fill:#1f77b4;"/>
   </g>
   <g id="patch_59">
    <path clip-path="url(#pa15ca5dee5)" d="M 380.137066 768.96 
L 382.076062 768.96 
L 382.076062 496.665818 
L 380.137066 496.665818 
z
" style="fill:#1f77b4;"/>
   </g>
   <g id="patch_60">
    <path clip-path="url(#pa15ca5dee5)" d="M 384.015058 768.96 
L 385.954054 768.96 
L 385.954054 530.195883 
L 384.015058 530.195883 
z
" style="fill:#1f77b4;"/>
   </g>
   <g id="patch_61">
    <path clip-path="url(#pa15ca5dee5)" d="M 387.89305 768.96 
L 389.832046 768.96 
L 389.832046 653.838362 
L 387.89305 653.838362 
z
" style="fill:#1f77b4;"/>
   </g>
   <g id="patch_62">
    <path clip-path="url(#pa15ca5dee5)" d="M 391.771042 768.96 
L 393.710039 768.96 
L 393.710039 596.679415 
L 391.771042 596.679415 
z
" style="fill:#1f77b4;"/>
   </g>
   <g id="patch_63">
    <path clip-path="url(#pa15ca5dee5)" d="M 395.649035 768.96 
L 397.588031 768.96 
L 397.588031 539.706843 
L 395.649035 539.706843 
z
" style="fill:#1f77b4;"/>
   </g>
   <g id="patch_64">
    <path clip-path="url(#pa15ca5dee5)" d="M 399.527027 768.96 
L 401.466023 768.96 
L 401.466023 503.893681 
L 399.527027 503.893681 
z
" style="fill:#1f77b4;"/>
   </g>
   <g id="patch_65">
    <path clip-path="url(#pa15ca5dee5)" d="M 403.405019 768.96 
L 405.344015 768.96 
L 405.344015 379.942518 
L 403.405019 379.942518 
z
" style="fill:#1f77b4;"/>
   </g>
   <g id="patch_66">
    <path clip-path="url(#pa15ca5dee5)" d="M 407.283012 768.96 
L 409.222008 768.96 
L 409.222008 397.030795 
L 407.283012 397.030795 
z
" style="fill:#1f77b4;"/>
   </g>
   <g id="patch_67">
    <path clip-path="url(#pa15ca5dee5)" d="M 411.161004 768.96 
L 413.1 768.96 
L 413.1 491.027968 
L 411.161004 491.027968 
z
" style="fill:#1f77b4;"/>
   </g>
   <g id="patch_68">
    <path clip-path="url(#pa15ca5dee5)" d="M 415.038996 768.96 
L 416.977992 768.96 
L 416.977992 681.567499 
L 415.038996 681.567499 
z
" style="fill:#1f77b4;"/>
   </g>
   <g id="patch_69">
    <path clip-path="url(#pa15ca5dee5)" d="M 418.916988 768.96 
L 420.855985 768.96 
L 420.855985 528.005974 
L 418.916988 528.005974 
z
" style="fill:#1f77b4;"/>
   </g>
   <g id="patch_70">
    <path clip-path="url(#pa15ca5dee5)" d="M 422.794981 768.96 
L 424.733977 768.96 
L 424.733977 459.949901 
L 422.794981 459.949901 
z
" style="fill:#1f77b4;"/>
   </g>
   <g id="patch_71">
    <path clip-path="url(#pa15ca5dee5)" d="M 426.672973 768.96 
L 428.611969 768.96 
L 428.611969 429.465906 
L 426.672973 429.465906 
z
" style="fill:#1f77b4;"/>
   </g>
   <g id="patch_72">
    <path clip-path="url(#pa15ca5dee5)" d="M 430.550965 768.96 
L 432.489961 768.96 
L 432.489961 404.188768 
L 430.550965 404.188768 
z
" style="fill:#1f77b4;"/>
   </g>
   <g id="patch_73">
    <path clip-path="url(#pa15ca5dee5)" d="M 434.428958 768.96 
L 436.367954 768.96 
L 436.367954 350.384575 
L 434.428958 350.384575 
z
" style="fill:#1f77b4;"/>
   </g>
   <g id="patch_74">
    <path clip-path="url(#pa15ca5dee5)" d="M 438.30695 768.96 
L 440.245946 768.96 
L 440.245946 499.531337 
L 438.30695 499.531337 
z
" style="fill:#1f77b4;"/>
   </g>
   <g id="patch_75">
    <path clip-path="url(#pa15ca5dee5)" d="M 442.184942 768.96 
L 444.123938 768.96 
L 444.123938 498.663527 
L 442.184942 498.663527 
z
" style="fill:#1f77b4;"/>
   </g>
   <g id="patch_76">
    <path clip-path="url(#pa15ca5dee5)" d="M 446.062934 768.96 
L 448.001931 768.96 
L 448.001931 530.335664 
L 446.062934 530.335664 
z
" style="fill:#1f77b4;"/>
   </g>
   <g id="patch_77">
    <path clip-path="url(#pa15ca5dee5)" d="M 449.940927 768.96 
L 451.879923 768.96 
L 451.879923 501.94839 
L 449.940927 501.94839 
z
" style="fill:#1f77b4;"/>
   </g>
   <g id="patch_78">
    <path clip-path="url(#pa15ca5dee5)" d="M 453.818919 768.96 
L 455.757915 768.96 
L 455.757915 532.43821 
L 453.818919 532.43821 
z
" style="fill:#1f77b4;"/>
   </g>
   <g id="patch_79">
    <path clip-path="url(#pa15ca5dee5)" d="M 457.696911 768.96 
L 459.635907 768.96 
L 459.635907 497.189998 
L 457.696911 497.189998 
z
" style="fill:#1f77b4;"/>
   </g>
   <g id="patch_80">
    <path clip-path="url(#pa15ca5dee5)" d="M 461.574903 768.96 
L 463.5139 768.96 
L 463.5139 486.473423 
L 461.574903 486.473423 
z
" style="fill:#1f77b4;"/>
   </g>
   <g id="patch_81">
    <path clip-path="url(#pa15ca5dee5)" d="M 465.452896 768.96 
L 467.391892 768.96 
L 467.391892 595.042808 
L 465.452896 595.042808 
z
" style="fill:#1f77b4;"/>
   </g>
   <g id="patch_82">
    <path clip-path="url(#pa15ca5dee5)" d="M 469.330888 768.96 
L 471.269884 768.96 
L 471.269884 674.30469 
L 469.330888 674.30469 
z
" style="fill:#1f77b4;"/>
   </g>
   <g id="patch_83">
    <path clip-path="url(#pa15ca5dee5)" d="M 473.20888 768.96 
L 475.147876 768.96 
L 475.147876 616.749695 
L 473.20888 616.749695 
z
" style="fill:#1f77b4;"/>
   </g>
   <g id="patch_84">
    <path clip-path="url(#pa15ca5dee5)" d="M 477.086873 768.96 
L 479.025869 768.96 
L 479.025869 585.834707 
L 477.086873 585.834707 
z
" style="fill:#1f77b4;"/>
   </g>
   <g id="patch_85">
    <path clip-path="url(#pa15ca5dee5)" d="M 480.964865 768.96 
L 482.903861 768.96 
L 482.903861 578.705856 
L 480.964865 578.705856 
z
" style="fill:#1f77b4;"/>
   </g>
   <g id="patch_86">
    <path clip-path="url(#pa15ca5dee5)" d="M 484.842857 768.96 
L 486.781853 768.96 
L 486.781853 526.887723 
L 484.842857 526.887723 
z
" style="fill:#1f77b4;"/>
   </g>
   <g id="patch_87">
    <path clip-path="url(#pa15ca5dee5)" d="M 488.720849 768.96 
L 490.659846 768.96 
L 490.659846 465.203353 
L 488.720849 465.203353 
z
" style="fill:#1f77b4;"/>
   </g>
   <g id="patch_88">
    <path clip-path="url(#pa15ca5dee5)" d="M 492.598842 768.96 
L 494.537838 768.96 
L 494.537838 501.750366 
L 492.598842 501.750366 
z
" style="fill:#1f77b4;"/>
   </g>
   <g id="patch_89">
    <path clip-path="url(#pa15ca5dee5)" d="M 496.476834 768.96 
L 498.41583 768.96 
L 498.41583 662.895033 
L 496.476834 662.895033 
z
" style="fill:#1f77b4;"/>
   </g>
   <g id="patch_90">
    <path clip-path="url(#pa15ca5dee5)" d="M 500.354826 768.96 
L 502.293822 768.96 
L 502.293822 605.607952 
L 500.354826 605.607952 
z
" style="fill:#1f77b4;"/>
   </g>
   <g id="patch_91">
    <path clip-path="url(#pa15ca5dee5)" d="M 504.232819 768.96 
L 506.171815 768.96 
L 506.171815 474.638598 
L 504.232819 474.638598 
z
" style="fill:#1f77b4;"/>
   </g>
   <g id="patch_92">
    <path clip-path="url(#pa15ca5dee5)" d="M 508.110811 768.96 
L 510.049807 768.96 
L 510.049807 518.232924 
L 508.110811 518.232924 
z
" style="fill:#1f77b4;"/>
   </g>
   <g id="patch_93">
    <path clip-path="url(#pa15ca5dee5)" d="M 511.988803 768.96 
L 513.927799 768.96 
L 513.927799 423.012664 
L 511.988803 423.012664 
z
" style="fill:#1f77b4;"/>
   </g>
   <g id="patch_94">
    <path clip-path="url(#pa15ca5dee5)" d="M 515.866795 768.96 
L 517.805792 768.96 
L 517.805792 416.489532 
L 515.866795 416.489532 
z
" style="fill:#1f77b4;"/>
   </g>
   <g id="patch_95">
    <path clip-path="url(#pa15ca5dee5)" d="M 519.744788 768.96 
L 521.683784 768.96 
L 521.683784 494.074038 
L 519.744788 494.074038 
z
" style="fill:#1f77b4;"/>
   </g>
   <g id="patch_96">
    <path clip-path="url(#pa15ca5dee5)" d="M 523.62278 768.96 
L 525.561776 768.96 
L 525.561776 692.825727 
L 523.62278 692.825727 
z
" style="fill:#1f77b4;"/>
   </g>
   <g id="patch_97">
    <path clip-path="url(#pa15ca5dee5)" d="M 527.500772 768.96 
L 529.439768 768.96 
L 529.439768 510.74297 
L 527.500772 510.74297 
z
" style="fill:#1f77b4;"/>
   </g>
   <g id="patch_98">
    <path clip-path="url(#pa15ca5dee5)" d="M 531.378764 768.96 
L 533.317761 768.96 
L 533.317761 370.868375 
L 531.378764 370.868375 
z
" style="fill:#1f77b4;"/>
   </g>
   <g id="patch_99">
    <path clip-path="url(#pa15ca5dee5)" d="M 535.256757 768.96 
L 537.195753 768.96 
L 537.195753 329.597914 
L 535.256757 329.597914 
z
" style="fill:#1f77b4;"/>
   </g>
   <g id="patch_100">
    <path clip-path="url(#pa15ca5dee5)" d="M 539.134749 768.96 
L 541.073745 768.96 
L 541.073745 240.196056 
L 539.134749 240.196056 
z
" style="fill:#1f77b4;"/>
   </g>
   <g id="patch_101">
    <path clip-path="url(#pa15ca5dee5)" d="M 543.012741 768.96 
L 544.951737 768.96 
L 544.951737 135.36 
L 543.012741 135.36 
z
" style="fill:#1f77b4;"/>
   </g>
   <g id="patch_102">
    <path clip-path="url(#pa15ca5dee5)" d="M 546.890734 768.96 
L 548.82973 768.96 
L 548.82973 339.97086 
L 546.890734 339.97086 
z
" style="fill:#1f77b4;"/>
   </g>
   <g id="patch_103">
    <path clip-path="url(#pa15ca5dee5)" d="M 550.768726 768.96 
L 552.707722 768.96 
L 552.707722 564.174413 
L 550.768726 564.174413 
z
" style="fill:#1f77b4;"/>
   </g>
   <g id="patch_104">
    <path clip-path="url(#pa15ca5dee5)" d="M 554.646718 768.96 
L 556.585714 768.96 
L 556.585714 418.149436 
L 554.646718 418.149436 
z
" style="fill:#1f77b4;"/>
   </g>
   <g id="patch_105">
    <path clip-path="url(#pa15ca5dee5)" d="M 558.52471 768.96 
L 560.463707 768.96 
L 560.463707 335.777418 
L 558.52471 335.777418 
z
" style="fill:#1f77b4;"/>
   </g>
   <g id="patch_106">
    <path clip-path="url(#pa15ca5dee5)" d="M 562.402703 768.96 
L 564.341699 768.96 
L 564.341699 396.267822 
L 562.402703 396.267822 
z
" style="fill:#1f77b4;"/>
   </g>
   <g id="patch_107">
    <path clip-path="url(#pa15ca5dee5)" d="M 566.280695 768.96 
L 568.219691 768.96 
L 568.219691 260.703153 
L 566.280695 260.703153 
z
" style="fill:#1f77b4;"/>
   </g>
   <g id="patch_108">
    <path clip-path="url(#pa15ca5dee5)" d="M 570.158687 768.96 
L 572.097683 768.96 
L 572.097683 267.109801 
L 570.158687 267.109801 
z
" style="fill:#1f77b4;"/>
   </g>
   <g id="patch_109">
    <path clip-path="url(#pa15ca5dee5)" d="M 574.03668 768.96 
L 575.975676 768.96 
L 575.975676 415.872164 
L 574.03668 415.872164 
z
" style="fill:#1f77b4;"/>
   </g>
   <g id="patch_110">
    <path clip-path="url(#pa15ca5dee5)" d="M 577.914672 768.96 
L 579.853668 768.96 
L 579.853668 564.76266 
L 577.914672 564.76266 
z
" style="fill:#1f77b4;"/>
   </g>
   <g id="patch_111">
    <path clip-path="url(#pa15ca5dee5)" d="M 581.792664 768.96 
L 583.73166 768.96 
L 583.73166 477.882691 
L 581.792664 477.882691 
z
" style="fill:#1f77b4;"/>
   </g>
   <g id="patch_112">
    <path clip-path="url(#pa15ca5dee5)" d="M 585.670656 768.96 
L 587.609653 768.96 
L 587.609653 297.057968 
L 585.670656 297.057968 
z
" style="fill:#1f77b4;"/>
   </g>
   <g id="patch_113">
    <path clip-path="url(#pa15ca5dee5)" d="M 589.548649 768.96 
L 591.487645 768.96 
L 591.487645 352.294921 
L 589.548649 352.294921 
z
" style="fill:#1f77b4;"/>
   </g>
   <g id="patch_114">
    <path clip-path="url(#pa15ca5dee5)" d="M 593.426641 768.96 
L 595.365637 768.96 
L 595.365637 332.713875 
L 593.426641 332.713875 
z
" style="fill:#1f77b4;"/>
   </g>
   <g id="patch_115">
    <path clip-path="url(#pa15ca5dee5)" d="M 597.304633 768.96 
L 599.243629 768.96 
L 599.243629 364.147219 
L 597.304633 364.147219 
z
" style="fill:#1f77b4;"/>
   </g>
   <g id="patch_116">
    <path clip-path="url(#pa15ca5dee5)" d="M 601.182625 768.96 
L 603.121622 768.96 
L 603.121622 499.484743 
L 601.182625 499.484743 
z
" style="fill:#1f77b4;"/>
   </g>
   <g id="patch_117">
    <path clip-path="url(#pa15ca5dee5)" d="M 605.060618 768.96 
L 606.999614 768.96 
L 606.999614 658.387082 
L 605.060618 658.387082 
z
" style="fill:#1f77b4;"/>
   </g>
   <g id="patch_118">
    <path clip-path="url(#pa15ca5dee5)" d="M 608.93861 768.96 
L 610.877606 768.96 
L 610.877606 517.324345 
L 608.93861 517.324345 
z
" style="fill:#1f77b4;"/>
   </g>
   <g id="patch_119">
    <path clip-path="url(#pa15ca5dee5)" d="M 612.816602 768.96 
L 614.755598 768.96 
L 614.755598 408.00946 
L 612.816602 408.00946 
z
" style="fill:#1f77b4;"/>
   </g>
   <g id="patch_120">
    <path clip-path="url(#pa15ca5dee5)" d="M 616.694595 768.96 
L 618.633591 768.96 
L 618.633591 393.856592 
L 616.694595 393.856592 
z
" style="fill:#1f77b4;"/>
   </g>
   <g id="patch_121">
    <path clip-path="url(#pa15ca5dee5)" d="M 620.572587 768.96 
L 622.511583 768.96 
L 622.511583 406.372853 
L 620.572587 406.372853 
z
" style="fill:#1f77b4;"/>
   </g>
   <g id="patch_122">
    <path clip-path="url(#pa15ca5dee5)" d="M 624.450579 768.96 
L 626.389575 768.96 
L 626.389575 454.818759 
L 624.450579 454.818759 
z
" style="fill:#1f77b4;"/>
   </g>
   <g id="patch_123">
    <path clip-path="url(#pa15ca5dee5)" d="M 628.328571 768.96 
L 630.267568 768.96 
L 630.267568 626.050983 
L 628.328571 626.050983 
z
" style="fill:#1f77b4;"/>
   </g>
   <g id="patch_124">
    <path clip-path="url(#pa15ca5dee5)" d="M 632.206564 768.96 
L 634.14556 768.96 
L 634.14556 723.536867 
L 632.206564 723.536867 
z
" style="fill:#1f77b4;"/>
   </g>
   <g id="patch_125">
    <path clip-path="url(#pa15ca5dee5)" d="M 636.084556 768.96 
L 638.023552 768.96 
L 638.023552 613.313403 
L 636.084556 613.313403 
z
" style="fill:#1f77b4;"/>
   </g>
   <g id="patch_126">
    <path clip-path="url(#pa15ca5dee5)" d="M 639.962548 768.96 
L 641.901544 768.96 
L 641.901544 362.842593 
L 639.962548 362.842593 
z
" style="fill:#1f77b4;"/>
   </g>
   <g id="patch_127">
    <path clip-path="url(#pa15ca5dee5)" d="M 643.840541 768.96 
L 645.779537 768.96 
L 645.779537 371.287719 
L 643.840541 371.287719 
z
" style="fill:#1f77b4;"/>
   </g>
   <g id="patch_128">
    <path clip-path="url(#pa15ca5dee5)" d="M 647.718533 768.96 
L 649.657529 768.96 
L 649.657529 470.957687 
L 647.718533 470.957687 
z
" style="fill:#1f77b4;"/>
   </g>
   <g id="patch_129">
    <path clip-path="url(#pa15ca5dee5)" d="M 651.596525 768.96 
L 653.535521 768.96 
L 653.535521 323.575665 
L 651.596525 323.575665 
z
" style="fill:#1f77b4;"/>
   </g>
   <g id="patch_130">
    <path clip-path="url(#pa15ca5dee5)" d="M 655.474517 768.96 
L 657.413514 768.96 
L 657.413514 467.451504 
L 655.474517 467.451504 
z
" style="fill:#1f77b4;"/>
   </g>
   <g id="patch_131">
    <path clip-path="url(#pa15ca5dee5)" d="M 659.35251 768.96 
L 661.291506 768.96 
L 661.291506 500.533103 
L 659.35251 500.533103 
z
" style="fill:#1f77b4;"/>
   </g>
   <g id="patch_132">
    <path clip-path="url(#pa15ca5dee5)" d="M 663.230502 768.96 
L 665.169498 768.96 
L 665.169498 535.950218 
L 663.230502 535.950218 
z
" style="fill:#1f77b4;"/>
   </g>
   <g id="patch_133">
    <path clip-path="url(#pa15ca5dee5)" d="M 667.108494 768.96 
L 669.04749 768.96 
L 669.04749 460.514851 
L 667.108494 460.514851 
z
" style="fill:#1f77b4;"/>
   </g>
   <g id="patch_134">
    <path clip-path="url(#pa15ca5dee5)" d="M 670.986486 768.96 
L 672.925483 768.96 
L 672.925483 489.799056 
L 670.986486 489.799056 
z
" style="fill:#1f77b4;"/>
   </g>
   <g id="patch_135">
    <path clip-path="url(#pa15ca5dee5)" d="M 674.864479 768.96 
L 676.803475 768.96 
L 676.803475 477.96423 
L 674.864479 477.96423 
z
" style="fill:#1f77b4;"/>
   </g>
   <g id="patch_136">
    <path clip-path="url(#pa15ca5dee5)" d="M 678.742471 768.96 
L 680.681467 768.96 
L 680.681467 347.658837 
L 678.742471 347.658837 
z
" style="fill:#1f77b4;"/>
   </g>
   <g id="patch_137">
    <path clip-path="url(#pa15ca5dee5)" d="M 682.620463 768.96 
L 684.559459 768.96 
L 684.559459 534.849439 
L 682.620463 534.849439 
z
" style="fill:#1f77b4;"/>
   </g>
   <g id="patch_138">
    <path clip-path="url(#pa15ca5dee5)" d="M 686.498456 768.96 
L 688.437452 768.96 
L 688.437452 675.184148 
L 686.498456 675.184148 
z
" style="fill:#1f77b4;"/>
   </g>
   <g id="patch_139">
    <path clip-path="url(#pa15ca5dee5)" d="M 690.376448 768.96 
L 692.315444 768.96 
L 692.315444 604.658604 
L 690.376448 604.658604 
z
" style="fill:#1f77b4;"/>
   </g>
   <g id="patch_140">
    <path clip-path="url(#pa15ca5dee5)" d="M 694.25444 768.96 
L 696.193436 768.96 
L 696.193436 466.327428 
L 694.25444 466.327428 
z
" style="fill:#1f77b4;"/>
   </g>
   <g id="patch_141">
    <path clip-path="url(#pa15ca5dee5)" d="M 698.132432 768.96 
L 700.071429 768.96 
L 700.071429 498.698472 
L 698.132432 498.698472 
z
" style="fill:#1f77b4;"/>
   </g>
   <g id="patch_142">
    <path clip-path="url(#pa15ca5dee5)" d="M 702.010425 768.96 
L 703.949421 768.96 
L 703.949421 383.122545 
L 702.010425 383.122545 
z
" style="fill:#1f77b4;"/>
   </g>
   <g id="patch_143">
    <path clip-path="url(#pa15ca5dee5)" d="M 705.888417 768.96 
L 707.827413 768.96 
L 707.827413 519.304582 
L 705.888417 519.304582 
z
" style="fill:#1f77b4;"/>
   </g>
   <g id="patch_144">
    <path clip-path="url(#pa15ca5dee5)" d="M 709.766409 768.96 
L 711.705405 768.96 
L 711.705405 569.066763 
L 709.766409 569.066763 
z
" style="fill:#1f77b4;"/>
   </g>
   <g id="patch_145">
    <path clip-path="url(#pa15ca5dee5)" d="M 713.644402 768.96 
L 715.583398 768.96 
L 715.583398 677.269221 
L 713.644402 677.269221 
z
" style="fill:#1f77b4;"/>
   </g>
   <g id="patch_146">
    <path clip-path="url(#pa15ca5dee5)" d="M 717.522394 768.96 
L 719.46139 768.96 
L 719.46139 616.97684 
L 717.522394 616.97684 
z
" style="fill:#1f77b4;"/>
   </g>
   <g id="patch_147">
    <path clip-path="url(#pa15ca5dee5)" d="M 721.400386 768.96 
L 723.339382 768.96 
L 723.339382 584.384475 
L 721.400386 584.384475 
z
" style="fill:#1f77b4;"/>
   </g>
   <g id="patch_148">
    <path clip-path="url(#pa15ca5dee5)" d="M 725.278378 768.96 
L 727.217375 768.96 
L 727.217375 583.586556 
L 725.278378 583.586556 
z
" style="fill:#1f77b4;"/>
   </g>
   <g id="patch_149">
    <path clip-path="url(#pa15ca5dee5)" d="M 729.156371 768.96 
L 731.095367 768.96 
L 731.095367 573.627131 
L 729.156371 573.627131 
z
" style="fill:#1f77b4;"/>
   </g>
   <g id="patch_150">
    <path clip-path="url(#pa15ca5dee5)" d="M 733.034363 768.96 
L 734.973359 768.96 
L 734.973359 586.399657 
L 733.034363 586.399657 
z
" style="fill:#1f77b4;"/>
   </g>
   <g id="patch_151">
    <path clip-path="url(#pa15ca5dee5)" d="M 736.912355 768.96 
L 738.851351 768.96 
L 738.851351 644.094433 
L 736.912355 644.094433 
z
" style="fill:#1f77b4;"/>
   </g>
   <g id="patch_152">
    <path clip-path="url(#pa15ca5dee5)" d="M 740.790347 768.96 
L 742.729344 768.96 
L 742.729344 698.923691 
L 740.790347 698.923691 
z
" style="fill:#1f77b4;"/>
   </g>
   <g id="patch_153">
    <path clip-path="url(#pa15ca5dee5)" d="M 744.66834 768.96 
L 746.607336 768.96 
L 746.607336 718.067919 
L 744.66834 718.067919 
z
" style="fill:#1f77b4;"/>
   </g>
   <g id="patch_154">
    <path clip-path="url(#pa15ca5dee5)" d="M 748.546332 768.96 
L 750.485328 768.96 
L 750.485328 658.986977 
L 748.546332 658.986977 
z
" style="fill:#1f77b4;"/>
   </g>
   <g id="patch_155">
    <path clip-path="url(#pa15ca5dee5)" d="M 752.424324 768.96 
L 754.36332 768.96 
L 754.36332 652.673517 
L 752.424324 652.673517 
z
" style="fill:#1f77b4;"/>
   </g>
   <g id="patch_156">
    <path clip-path="url(#pa15ca5dee5)" d="M 756.302317 768.96 
L 758.241313 768.96 
L 758.241313 580.755983 
L 756.302317 580.755983 
z
" style="fill:#1f77b4;"/>
   </g>
   <g id="patch_157">
    <path clip-path="url(#pa15ca5dee5)" d="M 760.180309 768.96 
L 762.119305 768.96 
L 762.119305 556.247643 
L 760.180309 556.247643 
z
" style="fill:#1f77b4;"/>
   </g>
   <g id="patch_158">
    <path clip-path="url(#pa15ca5dee5)" d="M 764.058301 768.96 
L 765.997297 768.96 
L 765.997297 580.0629 
L 764.058301 580.0629 
z
" style="fill:#1f77b4;"/>
   </g>
   <g id="patch_159">
    <path clip-path="url(#pa15ca5dee5)" d="M 767.936293 768.96 
L 769.87529 768.96 
L 769.87529 634.367977 
L 767.936293 634.367977 
z
" style="fill:#1f77b4;"/>
   </g>
   <g id="patch_160">
    <path clip-path="url(#pa15ca5dee5)" d="M 771.814286 768.96 
L 773.753282 768.96 
L 773.753282 581.996543 
L 771.814286 581.996543 
z
" style="fill:#1f77b4;"/>
   </g>
   <g id="patch_161">
    <path clip-path="url(#pa15ca5dee5)" d="M 775.692278 768.96 
L 777.631274 768.96 
L 777.631274 567.826203 
L 775.692278 567.826203 
z
" style="fill:#1f77b4;"/>
   </g>
   <g id="patch_162">
    <path clip-path="url(#pa15ca5dee5)" d="M 779.57027 768.96 
L 781.509266 768.96 
L 781.509266 534.785373 
L 779.57027 534.785373 
z
" style="fill:#1f77b4;"/>
   </g>
   <g id="patch_163">
    <path clip-path="url(#pa15ca5dee5)" d="M 783.448263 768.96 
L 785.387259 768.96 
L 785.387259 606.796094 
L 783.448263 606.796094 
z
" style="fill:#1f77b4;"/>
   </g>
   <g id="patch_164">
    <path clip-path="url(#pa15ca5dee5)" d="M 787.326255 768.96 
L 789.265251 768.96 
L 789.265251 615.287815 
L 787.326255 615.287815 
z
" style="fill:#1f77b4;"/>
   </g>
   <g id="patch_165">
    <path clip-path="url(#pa15ca5dee5)" d="M 791.204247 768.96 
L 793.143243 768.96 
L 793.143243 676.715919 
L 791.204247 676.715919 
z
" style="fill:#1f77b4;"/>
   </g>
   <g id="patch_166">
    <path clip-path="url(#pa15ca5dee5)" d="M 795.082239 768.96 
L 797.021236 768.96 
L 797.021236 675.626789 
L 795.082239 675.626789 
z
" style="fill:#1f77b4;"/>
   </g>
   <g id="patch_167">
    <path clip-path="url(#pa15ca5dee5)" d="M 798.960232 768.96 
L 800.899228 768.96 
L 800.899228 484.586374 
L 798.960232 484.586374 
z
" style="fill:#1f77b4;"/>
   </g>
   <g id="patch_168">
    <path clip-path="url(#pa15ca5dee5)" d="M 802.838224 768.96 
L 804.77722 768.96 
L 804.77722 557.99491 
L 802.838224 557.99491 
z
" style="fill:#1f77b4;"/>
   </g>
   <g id="patch_169">
    <path clip-path="url(#pa15ca5dee5)" d="M 806.716216 768.96 
L 808.655212 768.96 
L 808.655212 624.315364 
L 806.716216 624.315364 
z
" style="fill:#1f77b4;"/>
   </g>
   <g id="patch_170">
    <path clip-path="url(#pa15ca5dee5)" d="M 810.594208 768.96 
L 812.533205 768.96 
L 812.533205 579.212563 
L 810.594208 579.212563 
z
" style="fill:#1f77b4;"/>
   </g>
   <g id="patch_171">
    <path clip-path="url(#pa15ca5dee5)" d="M 814.472201 768.96 
L 816.411197 768.96 
L 816.411197 677.304166 
L 814.472201 677.304166 
z
" style="fill:#1f77b4;"/>
   </g>
   <g id="patch_172">
    <path clip-path="url(#pa15ca5dee5)" d="M 818.350193 768.96 
L 820.289189 768.96 
L 820.289189 627.297368 
L 818.350193 627.297368 
z
" style="fill:#1f77b4;"/>
   </g>
   <g id="patch_173">
    <path clip-path="url(#pa15ca5dee5)" d="M 822.228185 768.96 
L 824.167181 768.96 
L 824.167181 708.376408 
L 822.228185 708.376408 
z
" style="fill:#1f77b4;"/>
   </g>
   <g id="patch_174">
    <path clip-path="url(#pa15ca5dee5)" d="M 826.106178 768.96 
L 828.045174 768.96 
L 828.045174 695.003987 
L 826.106178 695.003987 
z
" style="fill:#1f77b4;"/>
   </g>
   <g id="patch_175">
    <path clip-path="url(#pa15ca5dee5)" d="M 829.98417 768.96 
L 831.923166 768.96 
L 831.923166 678.311757 
L 829.98417 678.311757 
z
" style="fill:#1f77b4;"/>
   </g>
   <g id="patch_176">
    <path clip-path="url(#pa15ca5dee5)" d="M 833.862162 768.96 
L 835.801158 768.96 
L 835.801158 659.056868 
L 833.862162 659.056868 
z
" style="fill:#1f77b4;"/>
   </g>
   <g id="patch_177">
    <path clip-path="url(#pa15ca5dee5)" d="M 837.740154 768.96 
L 839.679151 768.96 
L 839.679151 635.73667 
L 837.740154 635.73667 
z
" style="fill:#1f77b4;"/>
   </g>
   <g id="patch_178">
    <path clip-path="url(#pa15ca5dee5)" d="M 841.618147 768.96 
L 843.557143 768.96 
L 843.557143 472.827264 
L 841.618147 472.827264 
z
" style="fill:#1f77b4;"/>
   </g>
   <g id="patch_179">
    <path clip-path="url(#pa15ca5dee5)" d="M 845.496139 768.96 
L 847.435135 768.96 
L 847.435135 427.29347 
L 845.496139 427.29347 
z
" style="fill:#1f77b4;"/>
   </g>
   <g id="patch_180">
    <path clip-path="url(#pa15ca5dee5)" d="M 849.374131 768.96 
L 851.313127 768.96 
L 851.313127 738.376993 
L 849.374131 738.376993 
z
" style="fill:#1f77b4;"/>
   </g>
   <g id="patch_181">
    <path clip-path="url(#pa15ca5dee5)" d="M 853.252124 768.96 
L 855.19112 768.96 
L 855.19112 692.680121 
L 853.252124 692.680121 
z
" style="fill:#1f77b4;"/>
   </g>
   <g id="patch_182">
    <path clip-path="url(#pa15ca5dee5)" d="M 857.130116 768.96 
L 859.069112 768.96 
L 859.069112 674.863816 
L 857.130116 674.863816 
z
" style="fill:#1f77b4;"/>
   </g>
   <g id="patch_183">
    <path clip-path="url(#pa15ca5dee5)" d="M 861.008108 768.96 
L 862.947104 768.96 
L 862.947104 678.527253 
L 861.008108 678.527253 
z
" style="fill:#1f77b4;"/>
   </g>
   <g id="patch_184">
    <path clip-path="url(#pa15ca5dee5)" d="M 864.8861 768.96 
L 866.825097 768.96 
L 866.825097 687.601396 
L 864.8861 687.601396 
z
" style="fill:#1f77b4;"/>
   </g>
   <g id="patch_185">
    <path clip-path="url(#pa15ca5dee5)" d="M 868.764093 768.96 
L 870.703089 768.96 
L 870.703089 687.572275 
L 868.764093 687.572275 
z
" style="fill:#1f77b4;"/>
   </g>
   <g id="patch_186">
    <path clip-path="url(#pa15ca5dee5)" d="M 872.642085 768.96 
L 874.581081 768.96 
L 874.581081 708.388057 
L 872.642085 708.388057 
z
" style="fill:#1f77b4;"/>
   </g>
   <g id="patch_187">
    <path clip-path="url(#pa15ca5dee5)" d="M 876.520077 768.96 
L 878.459073 768.96 
L 878.459073 739.90294 
L 876.520077 739.90294 
z
" style="fill:#1f77b4;"/>
   </g>
   <g id="patch_188">
    <path clip-path="url(#pa15ca5dee5)" d="M 880.398069 768.96 
L 882.337066 768.96 
L 882.337066 763.962815 
L 880.398069 763.962815 
z
" style="fill:#1f77b4;"/>
   </g>
   <g id="patch_189">
    <path clip-path="url(#pa15ca5dee5)" d="M 884.276062 768.96 
L 886.215058 768.96 
L 886.215058 721.591575 
L 884.276062 721.591575 
z
" style="fill:#1f77b4;"/>
   </g>
   <g id="patch_190">
    <path clip-path="url(#pa15ca5dee5)" d="M 888.154054 768.96 
L 890.09305 768.96 
L 890.09305 685.522148 
L 888.154054 685.522148 
z
" style="fill:#1f77b4;"/>
   </g>
   <g id="patch_191">
    <path clip-path="url(#pa15ca5dee5)" d="M 892.032046 768.96 
L 893.971042 768.96 
L 893.971042 685.306652 
L 892.032046 685.306652 
z
" style="fill:#1f77b4;"/>
   </g>
   <g id="patch_192">
    <path clip-path="url(#pa15ca5dee5)" d="M 895.910039 768.96 
L 897.849035 768.96 
L 897.849035 695.458276 
L 895.910039 695.458276 
z
" style="fill:#1f77b4;"/>
   </g>
   <g id="patch_193">
    <path clip-path="url(#pa15ca5dee5)" d="M 899.788031 768.96 
L 901.727027 768.96 
L 901.727027 707.147497 
L 899.788031 707.147497 
z
" style="fill:#1f77b4;"/>
   </g>
   <g id="patch_194">
    <path clip-path="url(#pa15ca5dee5)" d="M 903.666023 768.96 
L 905.605019 768.96 
L 905.605019 726.850851 
L 903.666023 726.850851 
z
" style="fill:#1f77b4;"/>
   </g>
   <g id="patch_195">
    <path clip-path="url(#pa15ca5dee5)" d="M 907.544015 768.96 
L 909.483012 768.96 
L 909.483012 690.053395 
L 907.544015 690.053395 
z
" style="fill:#1f77b4;"/>
   </g>
   <g id="patch_196">
    <path clip-path="url(#pa15ca5dee5)" d="M 911.422008 768.96 
L 913.361004 768.96 
L 913.361004 703.571422 
L 911.422008 703.571422 
z
" style="fill:#1f77b4;"/>
   </g>
   <g id="patch_197">
    <path clip-path="url(#pa15ca5dee5)" d="M 915.3 768.96 
L 917.238996 768.96 
L 917.238996 706.687383 
L 915.3 706.687383 
z
" style="fill:#1f77b4;"/>
   </g>
   <g id="patch_198">
    <path clip-path="url(#pa15ca5dee5)" d="M 919.177992 768.96 
L 921.116988 768.96 
L 921.116988 707.077606 
L 919.177992 707.077606 
z
" style="fill:#1f77b4;"/>
   </g>
   <g id="patch_199">
    <path clip-path="url(#pa15ca5dee5)" d="M 923.055985 768.96 
L 924.994981 768.96 
L 924.994981 706.570898 
L 923.055985 706.570898 
z
" style="fill:#1f77b4;"/>
   </g>
   <g id="patch_200">
    <path clip-path="url(#pa15ca5dee5)" d="M 926.933977 768.96 
L 928.872973 768.96 
L 928.872973 716.932195 
L 926.933977 716.932195 
z
" style="fill:#1f77b4;"/>
   </g>
   <g id="patch_201">
    <path clip-path="url(#pa15ca5dee5)" d="M 930.811969 768.96 
L 932.750965 768.96 
L 932.750965 733.630249 
L 930.811969 733.630249 
z
" style="fill:#1f77b4;"/>
   </g>
   <g id="patch_202">
    <path clip-path="url(#pa15ca5dee5)" d="M 934.689961 768.96 
L 936.628958 768.96 
L 936.628958 716.244937 
L 934.689961 716.244937 
z
" style="fill:#1f77b4;"/>
   </g>
   <g id="patch_203">
    <path clip-path="url(#pa15ca5dee5)" d="M 938.567954 768.96 
L 940.50695 768.96 
L 940.50695 698.521819 
L 938.567954 698.521819 
z
" style="fill:#1f77b4;"/>
   </g>
   <g id="patch_204">
    <path clip-path="url(#pa15ca5dee5)" d="M 942.445946 768.96 
L 944.384942 768.96 
L 944.384942 703.315156 
L 942.445946 703.315156 
z
" style="fill:#1f77b4;"/>
   </g>
   <g id="patch_205">
    <path clip-path="url(#pa15ca5dee5)" d="M 946.323938 768.96 
L 948.262934 768.96 
L 948.262934 721.125637 
L 946.323938 721.125637 
z
" style="fill:#1f77b4;"/>
   </g>
   <g id="patch_206">
    <path clip-path="url(#pa15ca5dee5)" d="M 950.201931 768.96 
L 952.140927 768.96 
L 952.140927 720.16464 
L 950.201931 720.16464 
z
" style="fill:#1f77b4;"/>
   </g>
   <g id="patch_207">
    <path clip-path="url(#pa15ca5dee5)" d="M 954.079923 768.96 
L 956.018919 768.96 
L 956.018919 738.726446 
L 954.079923 738.726446 
z
" style="fill:#1f77b4;"/>
   </g>
   <g id="patch_208">
    <path clip-path="url(#pa15ca5dee5)" d="M 957.957915 768.96 
L 959.896911 768.96 
L 959.896911 751.429082 
L 957.957915 751.429082 
z
" style="fill:#1f77b4;"/>
   </g>
   <g id="patch_209">
    <path clip-path="url(#pa15ca5dee5)" d="M 961.835907 768.96 
L 963.774903 768.96 
L 963.774903 739.536014 
L 961.835907 739.536014 
z
" style="fill:#1f77b4;"/>
   </g>
   <g id="patch_210">
    <path clip-path="url(#pa15ca5dee5)" d="M 965.7139 768.96 
L 967.652896 768.96 
L 967.652896 702.191081 
L 965.7139 702.191081 
z
" style="fill:#1f77b4;"/>
   </g>
   <g id="patch_211">
    <path clip-path="url(#pa15ca5dee5)" d="M 969.591892 768.96 
L 971.530888 768.96 
L 971.530888 656.97762 
L 969.591892 656.97762 
z
" style="fill:#1f77b4;"/>
   </g>
   <g id="patch_212">
    <path clip-path="url(#pa15ca5dee5)" d="M 973.469884 768.96 
L 975.40888 768.96 
L 975.40888 710.624559 
L 973.469884 710.624559 
z
" style="fill:#1f77b4;"/>
   </g>
   <g id="patch_213">
    <path clip-path="url(#pa15ca5dee5)" d="M 977.347876 768.96 
L 979.286873 768.96 
L 979.286873 642.422881 
L 977.347876 642.422881 
z
" style="fill:#1f77b4;"/>
   </g>
   <g id="patch_214">
    <path clip-path="url(#pa15ca5dee5)" d="M 981.225869 768.96 
L 983.164865 768.96 
L 983.164865 723.018511 
L 981.225869 723.018511 
z
" style="fill:#1f77b4;"/>
   </g>
   <g id="patch_215">
    <path clip-path="url(#pa15ca5dee5)" d="M 985.103861 768.96 
L 987.042857 768.96 
L 987.042857 734.643664 
L 985.103861 734.643664 
z
" style="fill:#1f77b4;"/>
   </g>
   <g id="patch_216">
    <path clip-path="url(#pa15ca5dee5)" d="M 988.981853 768.96 
L 990.920849 768.96 
L 990.920849 722.133228 
L 988.981853 722.133228 
z
" style="fill:#1f77b4;"/>
   </g>
   <g id="patch_217">
    <path clip-path="url(#pa15ca5dee5)" d="M 992.859846 768.96 
L 994.798842 768.96 
L 994.798842 705.557483 
L 992.859846 705.557483 
z
" style="fill:#1f77b4;"/>
   </g>
   <g id="patch_218">
    <path clip-path="url(#pa15ca5dee5)" d="M 996.737838 768.96 
L 998.676834 768.96 
L 998.676834 710.455657 
L 996.737838 710.455657 
z
" style="fill:#1f77b4;"/>
   </g>
   <g id="patch_219">
    <path clip-path="url(#pa15ca5dee5)" d="M 1000.61583 768.96 
L 1002.554826 768.96 
L 1002.554826 708.679268 
L 1000.61583 708.679268 
z
" style="fill:#1f77b4;"/>
   </g>
   <g id="patch_220">
    <path clip-path="url(#pa15ca5dee5)" d="M 1004.493822 768.96 
L 1006.432819 768.96 
L 1006.432819 704.852752 
L 1004.493822 704.852752 
z
" style="fill:#1f77b4;"/>
   </g>
   <g id="patch_221">
    <path clip-path="url(#pa15ca5dee5)" d="M 1008.371815 768.96 
L 1010.310811 768.96 
L 1010.310811 666.564295 
L 1008.371815 666.564295 
z
" style="fill:#1f77b4;"/>
   </g>
   <g id="patch_222">
    <path clip-path="url(#pa15ca5dee5)" d="M 1012.249807 768.96 
L 1014.188803 768.96 
L 1014.188803 729.26208 
L 1012.249807 729.26208 
z
" style="fill:#1f77b4;"/>
   </g>
   <g id="patch_223">
    <path clip-path="url(#pa15ca5dee5)" d="M 1016.127799 768.96 
L 1018.066795 768.96 
L 1018.066795 723.589285 
L 1016.127799 723.589285 
z
" style="fill:#1f77b4;"/>
   </g>
   <g id="patch_224">
    <path clip-path="url(#pa15ca5dee5)" d="M 1020.005792 768.96 
L 1021.944788 768.96 
L 1021.944788 725.785018 
L 1020.005792 725.785018 
z
" style="fill:#1f77b4;"/>
   </g>
   <g id="patch_225">
    <path clip-path="url(#pa15ca5dee5)" d="M 1023.883784 768.96 
L 1025.82278 768.96 
L 1025.82278 613.983188 
L 1023.883784 613.983188 
z
" style="fill:#1f77b4;"/>
   </g>
   <g id="patch_226">
    <path clip-path="url(#pa15ca5dee5)" d="M 1027.761776 768.96 
L 1029.700772 768.96 
L 1029.700772 632.335322 
L 1027.761776 632.335322 
z
" style="fill:#1f77b4;"/>
   </g>
   <g id="patch_227">
    <path clip-path="url(#pa15ca5dee5)" d="M 1031.639768 768.96 
L 1033.578764 768.96 
L 1033.578764 645.503896 
L 1031.639768 645.503896 
z
" style="fill:#1f77b4;"/>
   </g>
   <g id="patch_228">
    <path clip-path="url(#pa15ca5dee5)" d="M 1035.517761 768.96 
L 1037.456757 768.96 
L 1037.456757 608.153139 
L 1035.517761 608.153139 
z
" style="fill:#1f77b4;"/>
   </g>
   <g id="patch_229">
    <path clip-path="url(#pa15ca5dee5)" d="M 1039.395753 768.96 
L 1041.334749 768.96 
L 1041.334749 658.78313 
L 1039.395753 658.78313 
z
" style="fill:#1f77b4;"/>
   </g>
   <g id="patch_230">
    <path clip-path="url(#pa15ca5dee5)" d="M 1043.273745 768.96 
L 1045.212741 768.96 
L 1045.212741 715.097564 
L 1043.273745 715.097564 
z
" style="fill:#1f77b4;"/>
   </g>
   <g id="patch_231">
    <path clip-path="url(#pa15ca5dee5)" d="M 1047.151737 768.96 
L 1049.090734 768.96 
L 1049.090734 692.633527 
L 1047.151737 692.633527 
z
" style="fill:#1f77b4;"/>
   </g>
   <g id="patch_232">
    <path clip-path="url(#pa15ca5dee5)" d="M 1051.02973 768.96 
L 1052.968726 768.96 
L 1052.968726 697.263786 
L 1051.02973 697.263786 
z
" style="fill:#1f77b4;"/>
   </g>
   <g id="patch_233">
    <path clip-path="url(#pa15ca5dee5)" d="M 1054.907722 768.96 
L 1056.846718 768.96 
L 1056.846718 700.7292 
L 1054.907722 700.7292 
z
" style="fill:#1f77b4;"/>
   </g>
   <g id="patch_234">
    <path clip-path="url(#pa15ca5dee5)" d="M 1058.785714 768.96 
L 1060.72471 768.96 
L 1060.72471 702.849218 
L 1058.785714 702.849218 
z
" style="fill:#1f77b4;"/>
   </g>
   <g id="patch_235">
    <path clip-path="url(#pa15ca5dee5)" d="M 1062.663707 768.96 
L 1064.602703 768.96 
L 1064.602703 701.608658 
L 1062.663707 701.608658 
z
" style="fill:#1f77b4;"/>
   </g>
   <g id="patch_236">
    <path clip-path="url(#pa15ca5dee5)" d="M 1066.541699 768.96 
L 1068.480695 768.96 
L 1068.480695 724.200828 
L 1066.541699 724.200828 
z
" style="fill:#1f77b4;"/>
   </g>
   <g id="patch_237">
    <path clip-path="url(#pa15ca5dee5)" d="M 1070.419691 768.96 
L 1072.358687 768.96 
L 1072.358687 714.060852 
L 1070.419691 714.060852 
z
" style="fill:#1f77b4;"/>
   </g>
   <g id="patch_238">
    <path clip-path="url(#pa15ca5dee5)" d="M 1074.297683 768.96 
L 1076.23668 768.96 
L 1076.23668 693.122762 
L 1074.297683 693.122762 
z
" style="fill:#1f77b4;"/>
   </g>
   <g id="patch_239">
    <path clip-path="url(#pa15ca5dee5)" d="M 1078.175676 768.96 
L 1080.114672 768.96 
L 1080.114672 696.489164 
L 1078.175676 696.489164 
z
" style="fill:#1f77b4;"/>
   </g>
   <g id="patch_240">
    <path clip-path="url(#pa15ca5dee5)" d="M 1082.053668 768.96 
L 1083.992664 768.96 
L 1083.992664 692.103523 
L 1082.053668 692.103523 
z
" style="fill:#1f77b4;"/>
   </g>
   <g id="patch_241">
    <path clip-path="url(#pa15ca5dee5)" d="M 1085.93166 768.96 
L 1087.870656 768.96 
L 1087.870656 682.266406 
L 1085.93166 682.266406 
z
" style="fill:#1f77b4;"/>
   </g>
   <g id="patch_242">
    <path clip-path="url(#pa15ca5dee5)" d="M 1089.809653 768.96 
L 1091.748649 768.96 
L 1091.748649 643.826519 
L 1089.809653 643.826519 
z
" style="fill:#1f77b4;"/>
   </g>
   <g id="patch_243">
    <path clip-path="url(#pa15ca5dee5)" d="M 1093.687645 768.96 
L 1095.626641 768.96 
L 1095.626641 565.123762 
L 1093.687645 565.123762 
z
" style="fill:#1f77b4;"/>
   </g>
   <g id="patch_244">
    <path clip-path="url(#pa15ca5dee5)" d="M 1097.565637 768.96 
L 1099.504633 768.96 
L 1099.504633 674.106666 
L 1097.565637 674.106666 
z
" style="fill:#1f77b4;"/>
   </g>
   <g id="patch_245">
    <path clip-path="url(#pa15ca5dee5)" d="M 1101.443629 768.96 
L 1103.382625 768.96 
L 1103.382625 693.815845 
L 1101.443629 693.815845 
z
" style="fill:#1f77b4;"/>
   </g>
   <g id="patch_246">
    <path clip-path="url(#pa15ca5dee5)" d="M 1105.321622 768.96 
L 1107.260618 768.96 
L 1107.260618 698.801382 
L 1105.321622 698.801382 
z
" style="fill:#1f77b4;"/>
   </g>
   <g id="patch_247">
    <path clip-path="url(#pa15ca5dee5)" d="M 1109.199614 768.96 
L 1111.13861 768.96 
L 1111.13861 704.456705 
L 1109.199614 704.456705 
z
" style="fill:#1f77b4;"/>
   </g>
   <g id="patch_248">
    <path clip-path="url(#pa15ca5dee5)" d="M 1113.077606 768.96 
L 1115.016602 768.96 
L 1115.016602 703.77527 
L 1113.077606 703.77527 
z
" style="fill:#1f77b4;"/>
   </g>
   <g id="patch_249">
    <path clip-path="url(#pa15ca5dee5)" d="M 1116.955598 768.96 
L 1118.894595 768.96 
L 1118.894595 708.091021 
L 1116.955598 708.091021 
z
" style="fill:#1f77b4;"/>
   </g>
   <g id="patch_250">
    <path clip-path="url(#pa15ca5dee5)" d="M 1120.833591 768.96 
L 1122.772587 768.96 
L 1122.772587 727.287668 
L 1120.833591 727.287668 
z
" style="fill:#1f77b4;"/>
   </g>
   <g id="patch_251">
    <path clip-path="url(#pa15ca5dee5)" d="M 1124.711583 768.96 
L 1126.650579 768.96 
L 1126.650579 739.745686 
L 1124.711583 739.745686 
z
" style="fill:#1f77b4;"/>
   </g>
   <g id="patch_252">
    <path clip-path="url(#pa15ca5dee5)" d="M 1128.589575 768.96 
L 1130.528571 768.96 
L 1130.528571 732.867276 
L 1128.589575 732.867276 
z
" style="fill:#1f77b4;"/>
   </g>
   <g id="patch_253">
    <path clip-path="url(#pa15ca5dee5)" d="M 1132.467568 768.96 
L 1134.406564 768.96 
L 1134.406564 695.865972 
L 1132.467568 695.865972 
z
" style="fill:#1f77b4;"/>
   </g>
   <g id="patch_254">
    <path clip-path="url(#pa15ca5dee5)" d="M 1136.34556 768.96 
L 1138.284556 768.96 
L 1138.284556 704.683849 
L 1136.34556 704.683849 
z
" style="fill:#1f77b4;"/>
   </g>
   <g id="patch_255">
    <path clip-path="url(#pa15ca5dee5)" d="M 1140.223552 768.96 
L 1142.162548 768.96 
L 1142.162548 707.95124 
L 1140.223552 707.95124 
z
" style="fill:#1f77b4;"/>
   </g>
   <g id="patch_256">
    <path clip-path="url(#pa15ca5dee5)" d="M 1144.101544 768.96 
L 1146.040541 768.96 
L 1146.040541 713.233812 
L 1144.101544 713.233812 
z
" style="fill:#1f77b4;"/>
   </g>
   <g id="patch_257">
    <path clip-path="url(#pa15ca5dee5)" d="M 1147.979537 768.96 
L 1149.918533 768.96 
L 1149.918533 727.730309 
L 1147.979537 727.730309 
z
" style="fill:#1f77b4;"/>
   </g>
   <g id="patch_258">
    <path clip-path="url(#pa15ca5dee5)" d="M 1151.857529 768.96 
L 1153.796525 768.96 
L 1153.796525 722.412791 
L 1151.857529 722.412791 
z
" style="fill:#1f77b4;"/>
   </g>
   <g id="patch_259">
    <path clip-path="url(#pa15ca5dee5)" d="M 1155.735521 768.96 
L 1157.674517 768.96 
L 1157.674517 706.355402 
L 1155.735521 706.355402 
z
" style="fill:#1f77b4;"/>
   </g>
   <g id="patch_260">
    <path clip-path="url(#pa15ca5dee5)" d="M 1159.613514 768.96 
L 1161.55251 768.96 
L 1161.55251 709.634441 
L 1159.613514 709.634441 
z
" style="fill:#1f77b4;"/>
   </g>
   <g id="patch_261">
    <path clip-path="url(#pa15ca5dee5)" d="M 1163.491506 768.96 
L 1165.430502 768.96 
L 1165.430502 709.110261 
L 1163.491506 709.110261 
z
" style="fill:#1f77b4;"/>
   </g>
   <g id="matplotlib.axis_1">
    <g id="xtick_1">
     <g id="line2d_1">
      <defs>
       <path d="M 0 0 
L 0 3.5 
" id="m3f55b01f24" style="stroke:#000000;stroke-width:0.8;"/>
      </defs>
      <g>
       <use style="stroke:#000000;stroke-width:0.8;" x="163.938996" xlink:href="#m3f55b01f24" y="768.96"/>
      </g>
     </g>
     <g id="text_1">
      <!-- January -->
      <g transform="translate(144.983527 783.558437)scale(0.1 -0.1)">
       <defs>
        <path d="M 628 4666 
L 1259 4666 
L 1259 325 
Q 1259 -519 939 -900 
Q 619 -1281 -91 -1281 
L -331 -1281 
L -331 -750 
L -134 -750 
Q 284 -750 456 -515 
Q 628 -281 628 325 
L 628 4666 
z
" id="DejaVuSans-4a" transform="scale(0.015625)"/>
        <path d="M 2194 1759 
Q 1497 1759 1228 1600 
Q 959 1441 959 1056 
Q 959 750 1161 570 
Q 1363 391 1709 391 
Q 2188 391 2477 730 
Q 2766 1069 2766 1631 
L 2766 1759 
L 2194 1759 
z
M 3341 1997 
L 3341 0 
L 2766 0 
L 2766 531 
Q 2569 213 2275 61 
Q 1981 -91 1556 -91 
Q 1019 -91 701 211 
Q 384 513 384 1019 
Q 384 1609 779 1909 
Q 1175 2209 1959 2209 
L 2766 2209 
L 2766 2266 
Q 2766 2663 2505 2880 
Q 2244 3097 1772 3097 
Q 1472 3097 1187 3025 
Q 903 2953 641 2809 
L 641 3341 
Q 956 3463 1253 3523 
Q 1550 3584 1831 3584 
Q 2591 3584 2966 3190 
Q 3341 2797 3341 1997 
z
" id="DejaVuSans-61" transform="scale(0.015625)"/>
        <path d="M 3513 2113 
L 3513 0 
L 2938 0 
L 2938 2094 
Q 2938 2591 2744 2837 
Q 2550 3084 2163 3084 
Q 1697 3084 1428 2787 
Q 1159 2491 1159 1978 
L 1159 0 
L 581 0 
L 581 3500 
L 1159 3500 
L 1159 2956 
Q 1366 3272 1645 3428 
Q 1925 3584 2291 3584 
Q 2894 3584 3203 3211 
Q 3513 2838 3513 2113 
z
" id="DejaVuSans-6e" transform="scale(0.015625)"/>
        <path d="M 544 1381 
L 544 3500 
L 1119 3500 
L 1119 1403 
Q 1119 906 1312 657 
Q 1506 409 1894 409 
Q 2359 409 2629 706 
Q 2900 1003 2900 1516 
L 2900 3500 
L 3475 3500 
L 3475 0 
L 2900 0 
L 2900 538 
Q 2691 219 2414 64 
Q 2138 -91 1772 -91 
Q 1169 -91 856 284 
Q 544 659 544 1381 
z
M 1991 3584 
L 1991 3584 
z
" id="DejaVuSans-75" transform="scale(0.015625)"/>
        <path d="M 2631 2963 
Q 2534 3019 2420 3045 
Q 2306 3072 2169 3072 
Q 1681 3072 1420 2755 
Q 1159 2438 1159 1844 
L 1159 0 
L 581 0 
L 581 3500 
L 1159 3500 
L 1159 2956 
Q 1341 3275 1631 3429 
Q 1922 3584 2338 3584 
Q 2397 3584 2469 3576 
Q 2541 3569 2628 3553 
L 2631 2963 
z
" id="DejaVuSans-72" transform="scale(0.015625)"/>
        <path d="M 2059 -325 
Q 1816 -950 1584 -1140 
Q 1353 -1331 966 -1331 
L 506 -1331 
L 506 -850 
L 844 -850 
Q 1081 -850 1212 -737 
Q 1344 -625 1503 -206 
L 1606 56 
L 191 3500 
L 800 3500 
L 1894 763 
L 2988 3500 
L 3597 3500 
L 2059 -325 
z
" id="DejaVuSans-79" transform="scale(0.015625)"/>
       </defs>
       <use xlink:href="#DejaVuSans-4a"/>
       <use x="29.492188" xlink:href="#DejaVuSans-61"/>
       <use x="90.771484" xlink:href="#DejaVuSans-6e"/>
       <use x="154.150391" xlink:href="#DejaVuSans-75"/>
       <use x="217.529297" xlink:href="#DejaVuSans-61"/>
       <use x="278.808594" xlink:href="#DejaVuSans-72"/>
       <use x="319.921875" xlink:href="#DejaVuSans-79"/>
      </g>
     </g>
    </g>
    <g id="xtick_2">
     <g id="line2d_2">
      <g>
       <use style="stroke:#000000;stroke-width:0.8;" x="284.156757" xlink:href="#m3f55b01f24" y="768.96"/>
      </g>
     </g>
     <g id="text_2">
      <!-- February -->
      <g transform="translate(262.002069 783.558437)scale(0.1 -0.1)">
       <defs>
        <path d="M 628 4666 
L 3309 4666 
L 3309 4134 
L 1259 4134 
L 1259 2759 
L 3109 2759 
L 3109 2228 
L 1259 2228 
L 1259 0 
L 628 0 
L 628 4666 
z
" id="DejaVuSans-46" transform="scale(0.015625)"/>
        <path d="M 3597 1894 
L 3597 1613 
L 953 1613 
Q 991 1019 1311 708 
Q 1631 397 2203 397 
Q 2534 397 2845 478 
Q 3156 559 3463 722 
L 3463 178 
Q 3153 47 2828 -22 
Q 2503 -91 2169 -91 
Q 1331 -91 842 396 
Q 353 884 353 1716 
Q 353 2575 817 3079 
Q 1281 3584 2069 3584 
Q 2775 3584 3186 3129 
Q 3597 2675 3597 1894 
z
M 3022 2063 
Q 3016 2534 2758 2815 
Q 2500 3097 2075 3097 
Q 1594 3097 1305 2825 
Q 1016 2553 972 2059 
L 3022 2063 
z
" id="DejaVuSans-65" transform="scale(0.015625)"/>
        <path d="M 3116 1747 
Q 3116 2381 2855 2742 
Q 2594 3103 2138 3103 
Q 1681 3103 1420 2742 
Q 1159 2381 1159 1747 
Q 1159 1113 1420 752 
Q 1681 391 2138 391 
Q 2594 391 2855 752 
Q 3116 1113 3116 1747 
z
M 1159 2969 
Q 1341 3281 1617 3432 
Q 1894 3584 2278 3584 
Q 2916 3584 3314 3078 
Q 3713 2572 3713 1747 
Q 3713 922 3314 415 
Q 2916 -91 2278 -91 
Q 1894 -91 1617 61 
Q 1341 213 1159 525 
L 1159 0 
L 581 0 
L 581 4863 
L 1159 4863 
L 1159 2969 
z
" id="DejaVuSans-62" transform="scale(0.015625)"/>
       </defs>
       <use xlink:href="#DejaVuSans-46"/>
       <use x="52.019531" xlink:href="#DejaVuSans-65"/>
       <use x="113.542969" xlink:href="#DejaVuSans-62"/>
       <use x="177.019531" xlink:href="#DejaVuSans-72"/>
       <use x="218.132812" xlink:href="#DejaVuSans-75"/>
       <use x="281.511719" xlink:href="#DejaVuSans-61"/>
       <use x="342.791016" xlink:href="#DejaVuSans-72"/>
       <use x="383.904297" xlink:href="#DejaVuSans-79"/>
      </g>
     </g>
    </g>
    <g id="xtick_3">
     <g id="line2d_3">
      <g>
       <use style="stroke:#000000;stroke-width:0.8;" x="392.740541" xlink:href="#m3f55b01f24" y="768.96"/>
      </g>
     </g>
     <g id="text_3">
      <!-- March -->
      <g transform="translate(377.501478 783.558437)scale(0.1 -0.1)">
       <defs>
        <path d="M 628 4666 
L 1569 4666 
L 2759 1491 
L 3956 4666 
L 4897 4666 
L 4897 0 
L 4281 0 
L 4281 4097 
L 3078 897 
L 2444 897 
L 1241 4097 
L 1241 0 
L 628 0 
L 628 4666 
z
" id="DejaVuSans-4d" transform="scale(0.015625)"/>
        <path d="M 3122 3366 
L 3122 2828 
Q 2878 2963 2633 3030 
Q 2388 3097 2138 3097 
Q 1578 3097 1268 2742 
Q 959 2388 959 1747 
Q 959 1106 1268 751 
Q 1578 397 2138 397 
Q 2388 397 2633 464 
Q 2878 531 3122 666 
L 3122 134 
Q 2881 22 2623 -34 
Q 2366 -91 2075 -91 
Q 1284 -91 818 406 
Q 353 903 353 1747 
Q 353 2603 823 3093 
Q 1294 3584 2113 3584 
Q 2378 3584 2631 3529 
Q 2884 3475 3122 3366 
z
" id="DejaVuSans-63" transform="scale(0.015625)"/>
        <path d="M 3513 2113 
L 3513 0 
L 2938 0 
L 2938 2094 
Q 2938 2591 2744 2837 
Q 2550 3084 2163 3084 
Q 1697 3084 1428 2787 
Q 1159 2491 1159 1978 
L 1159 0 
L 581 0 
L 581 4863 
L 1159 4863 
L 1159 2956 
Q 1366 3272 1645 3428 
Q 1925 3584 2291 3584 
Q 2894 3584 3203 3211 
Q 3513 2838 3513 2113 
z
" id="DejaVuSans-68" transform="scale(0.015625)"/>
       </defs>
       <use xlink:href="#DejaVuSans-4d"/>
       <use x="86.279297" xlink:href="#DejaVuSans-61"/>
       <use x="147.558594" xlink:href="#DejaVuSans-72"/>
       <use x="186.421875" xlink:href="#DejaVuSans-63"/>
       <use x="241.402344" xlink:href="#DejaVuSans-68"/>
      </g>
     </g>
    </g>
    <g id="xtick_4">
     <g id="line2d_4">
      <g>
       <use style="stroke:#000000;stroke-width:0.8;" x="512.958301" xlink:href="#m3f55b01f24" y="768.96"/>
      </g>
     </g>
     <g id="text_4">
      <!-- April -->
      <g transform="translate(501.530176 783.558437)scale(0.1 -0.1)">
       <defs>
        <path d="M 2188 4044 
L 1331 1722 
L 3047 1722 
L 2188 4044 
z
M 1831 4666 
L 2547 4666 
L 4325 0 
L 3669 0 
L 3244 1197 
L 1141 1197 
L 716 0 
L 50 0 
L 1831 4666 
z
" id="DejaVuSans-41" transform="scale(0.015625)"/>
        <path d="M 1159 525 
L 1159 -1331 
L 581 -1331 
L 581 3500 
L 1159 3500 
L 1159 2969 
Q 1341 3281 1617 3432 
Q 1894 3584 2278 3584 
Q 2916 3584 3314 3078 
Q 3713 2572 3713 1747 
Q 3713 922 3314 415 
Q 2916 -91 2278 -91 
Q 1894 -91 1617 61 
Q 1341 213 1159 525 
z
M 3116 1747 
Q 3116 2381 2855 2742 
Q 2594 3103 2138 3103 
Q 1681 3103 1420 2742 
Q 1159 2381 1159 1747 
Q 1159 1113 1420 752 
Q 1681 391 2138 391 
Q 2594 391 2855 752 
Q 3116 1113 3116 1747 
z
" id="DejaVuSans-70" transform="scale(0.015625)"/>
        <path d="M 603 3500 
L 1178 3500 
L 1178 0 
L 603 0 
L 603 3500 
z
M 603 4863 
L 1178 4863 
L 1178 4134 
L 603 4134 
L 603 4863 
z
" id="DejaVuSans-69" transform="scale(0.015625)"/>
        <path d="M 603 4863 
L 1178 4863 
L 1178 0 
L 603 0 
L 603 4863 
z
" id="DejaVuSans-6c" transform="scale(0.015625)"/>
       </defs>
       <use xlink:href="#DejaVuSans-41"/>
       <use x="68.408203" xlink:href="#DejaVuSans-70"/>
       <use x="131.884766" xlink:href="#DejaVuSans-72"/>
       <use x="172.998047" xlink:href="#DejaVuSans-69"/>
       <use x="200.78125" xlink:href="#DejaVuSans-6c"/>
      </g>
     </g>
    </g>
    <g id="xtick_5">
     <g id="line2d_5">
      <g>
       <use style="stroke:#000000;stroke-width:0.8;" x="629.298069" xlink:href="#m3f55b01f24" y="768.96"/>
      </g>
     </g>
     <g id="text_5">
      <!-- May -->
      <g transform="translate(618.960569 783.558437)scale(0.1 -0.1)">
       <use xlink:href="#DejaVuSans-4d"/>
       <use x="86.279297" xlink:href="#DejaVuSans-61"/>
       <use x="147.558594" xlink:href="#DejaVuSans-79"/>
      </g>
     </g>
    </g>
    <g id="xtick_6">
     <g id="line2d_6">
      <g>
       <use style="stroke:#000000;stroke-width:0.8;" x="749.51583" xlink:href="#m3f55b01f24" y="768.96"/>
      </g>
     </g>
     <g id="text_6">
      <!-- June -->
      <g transform="translate(738.626768 783.558437)scale(0.1 -0.1)">
       <use xlink:href="#DejaVuSans-4a"/>
       <use x="29.492188" xlink:href="#DejaVuSans-75"/>
       <use x="92.871094" xlink:href="#DejaVuSans-6e"/>
       <use x="156.25" xlink:href="#DejaVuSans-65"/>
      </g>
     </g>
    </g>
    <g id="xtick_7">
     <g id="line2d_7">
      <g>
       <use style="stroke:#000000;stroke-width:0.8;" x="865.855598" xlink:href="#m3f55b01f24" y="768.96"/>
      </g>
     </g>
     <g id="text_7">
      <!-- July -->
      <g transform="translate(856.863411 783.558437)scale(0.1 -0.1)">
       <use xlink:href="#DejaVuSans-4a"/>
       <use x="29.492188" xlink:href="#DejaVuSans-75"/>
       <use x="92.871094" xlink:href="#DejaVuSans-6c"/>
       <use x="120.654297" xlink:href="#DejaVuSans-79"/>
      </g>
     </g>
    </g>
    <g id="xtick_8">
     <g id="line2d_8">
      <g>
       <use style="stroke:#000000;stroke-width:0.8;" x="986.073359" xlink:href="#m3f55b01f24" y="768.96"/>
      </g>
     </g>
     <g id="text_8">
      <!-- August -->
      <g transform="translate(968.576484 783.558437)scale(0.1 -0.1)">
       <defs>
        <path d="M 2906 1791 
Q 2906 2416 2648 2759 
Q 2391 3103 1925 3103 
Q 1463 3103 1205 2759 
Q 947 2416 947 1791 
Q 947 1169 1205 825 
Q 1463 481 1925 481 
Q 2391 481 2648 825 
Q 2906 1169 2906 1791 
z
M 3481 434 
Q 3481 -459 3084 -895 
Q 2688 -1331 1869 -1331 
Q 1566 -1331 1297 -1286 
Q 1028 -1241 775 -1147 
L 775 -588 
Q 1028 -725 1275 -790 
Q 1522 -856 1778 -856 
Q 2344 -856 2625 -561 
Q 2906 -266 2906 331 
L 2906 616 
Q 2728 306 2450 153 
Q 2172 0 1784 0 
Q 1141 0 747 490 
Q 353 981 353 1791 
Q 353 2603 747 3093 
Q 1141 3584 1784 3584 
Q 2172 3584 2450 3431 
Q 2728 3278 2906 2969 
L 2906 3500 
L 3481 3500 
L 3481 434 
z
" id="DejaVuSans-67" transform="scale(0.015625)"/>
        <path d="M 2834 3397 
L 2834 2853 
Q 2591 2978 2328 3040 
Q 2066 3103 1784 3103 
Q 1356 3103 1142 2972 
Q 928 2841 928 2578 
Q 928 2378 1081 2264 
Q 1234 2150 1697 2047 
L 1894 2003 
Q 2506 1872 2764 1633 
Q 3022 1394 3022 966 
Q 3022 478 2636 193 
Q 2250 -91 1575 -91 
Q 1294 -91 989 -36 
Q 684 19 347 128 
L 347 722 
Q 666 556 975 473 
Q 1284 391 1588 391 
Q 1994 391 2212 530 
Q 2431 669 2431 922 
Q 2431 1156 2273 1281 
Q 2116 1406 1581 1522 
L 1381 1569 
Q 847 1681 609 1914 
Q 372 2147 372 2553 
Q 372 3047 722 3315 
Q 1072 3584 1716 3584 
Q 2034 3584 2315 3537 
Q 2597 3491 2834 3397 
z
" id="DejaVuSans-73" transform="scale(0.015625)"/>
        <path d="M 1172 4494 
L 1172 3500 
L 2356 3500 
L 2356 3053 
L 1172 3053 
L 1172 1153 
Q 1172 725 1289 603 
Q 1406 481 1766 481 
L 2356 481 
L 2356 0 
L 1766 0 
Q 1100 0 847 248 
Q 594 497 594 1153 
L 594 3053 
L 172 3053 
L 172 3500 
L 594 3500 
L 594 4494 
L 1172 4494 
z
" id="DejaVuSans-74" transform="scale(0.015625)"/>
       </defs>
       <use xlink:href="#DejaVuSans-41"/>
       <use x="68.408203" xlink:href="#DejaVuSans-75"/>
       <use x="131.787109" xlink:href="#DejaVuSans-67"/>
       <use x="195.263672" xlink:href="#DejaVuSans-75"/>
       <use x="258.642578" xlink:href="#DejaVuSans-73"/>
       <use x="310.742188" xlink:href="#DejaVuSans-74"/>
      </g>
     </g>
    </g>
    <g id="xtick_9">
     <g id="line2d_9">
      <g>
       <use style="stroke:#000000;stroke-width:0.8;" x="1106.29112" xlink:href="#m3f55b01f24" y="768.96"/>
      </g>
     </g>
     <g id="text_9">
      <!-- September -->
      <g transform="translate(1078.652838 783.558437)scale(0.1 -0.1)">
       <defs>
        <path d="M 3425 4513 
L 3425 3897 
Q 3066 4069 2747 4153 
Q 2428 4238 2131 4238 
Q 1616 4238 1336 4038 
Q 1056 3838 1056 3469 
Q 1056 3159 1242 3001 
Q 1428 2844 1947 2747 
L 2328 2669 
Q 3034 2534 3370 2195 
Q 3706 1856 3706 1288 
Q 3706 609 3251 259 
Q 2797 -91 1919 -91 
Q 1588 -91 1214 -16 
Q 841 59 441 206 
L 441 856 
Q 825 641 1194 531 
Q 1563 422 1919 422 
Q 2459 422 2753 634 
Q 3047 847 3047 1241 
Q 3047 1584 2836 1778 
Q 2625 1972 2144 2069 
L 1759 2144 
Q 1053 2284 737 2584 
Q 422 2884 422 3419 
Q 422 4038 858 4394 
Q 1294 4750 2059 4750 
Q 2388 4750 2728 4690 
Q 3069 4631 3425 4513 
z
" id="DejaVuSans-53" transform="scale(0.015625)"/>
        <path d="M 3328 2828 
Q 3544 3216 3844 3400 
Q 4144 3584 4550 3584 
Q 5097 3584 5394 3201 
Q 5691 2819 5691 2113 
L 5691 0 
L 5113 0 
L 5113 2094 
Q 5113 2597 4934 2840 
Q 4756 3084 4391 3084 
Q 3944 3084 3684 2787 
Q 3425 2491 3425 1978 
L 3425 0 
L 2847 0 
L 2847 2094 
Q 2847 2600 2669 2842 
Q 2491 3084 2119 3084 
Q 1678 3084 1418 2786 
Q 1159 2488 1159 1978 
L 1159 0 
L 581 0 
L 581 3500 
L 1159 3500 
L 1159 2956 
Q 1356 3278 1631 3431 
Q 1906 3584 2284 3584 
Q 2666 3584 2933 3390 
Q 3200 3197 3328 2828 
z
" id="DejaVuSans-6d" transform="scale(0.015625)"/>
       </defs>
       <use xlink:href="#DejaVuSans-53"/>
       <use x="63.476562" xlink:href="#DejaVuSans-65"/>
       <use x="125" xlink:href="#DejaVuSans-70"/>
       <use x="188.476562" xlink:href="#DejaVuSans-74"/>
       <use x="227.685547" xlink:href="#DejaVuSans-65"/>
       <use x="289.208984" xlink:href="#DejaVuSans-6d"/>
       <use x="386.621094" xlink:href="#DejaVuSans-62"/>
       <use x="450.097656" xlink:href="#DejaVuSans-65"/>
       <use x="511.621094" xlink:href="#DejaVuSans-72"/>
      </g>
     </g>
    </g>
   </g>
   <g id="matplotlib.axis_2">
    <g id="ytick_1">
     <g id="line2d_10">
      <defs>
       <path d="M 0 0 
L -3.5 0 
" id="m25151a175f" style="stroke:#000000;stroke-width:0.8;"/>
      </defs>
      <g>
       <use style="stroke:#000000;stroke-width:0.8;" x="162" xlink:href="#m25151a175f" y="768.96"/>
      </g>
     </g>
     <g id="text_10">
      <!-- 0 -->
      <g transform="translate(148.6375 772.759219)scale(0.1 -0.1)">
       <defs>
        <path d="M 2034 4250 
Q 1547 4250 1301 3770 
Q 1056 3291 1056 2328 
Q 1056 1369 1301 889 
Q 1547 409 2034 409 
Q 2525 409 2770 889 
Q 3016 1369 3016 2328 
Q 3016 3291 2770 3770 
Q 2525 4250 2034 4250 
z
M 2034 4750 
Q 2819 4750 3233 4129 
Q 3647 3509 3647 2328 
Q 3647 1150 3233 529 
Q 2819 -91 2034 -91 
Q 1250 -91 836 529 
Q 422 1150 422 2328 
Q 422 3509 836 4129 
Q 1250 4750 2034 4750 
z
" id="DejaVuSans-30" transform="scale(0.015625)"/>
       </defs>
       <use xlink:href="#DejaVuSans-30"/>
      </g>
     </g>
    </g>
    <g id="ytick_2">
     <g id="line2d_11">
      <g>
       <use style="stroke:#000000;stroke-width:0.8;" x="162" xlink:href="#m25151a175f" y="652.475494"/>
      </g>
     </g>
     <g id="text_11">
      <!-- 20000 -->
      <g transform="translate(123.1875 656.274712)scale(0.1 -0.1)">
       <defs>
        <path d="M 1228 531 
L 3431 531 
L 3431 0 
L 469 0 
L 469 531 
Q 828 903 1448 1529 
Q 2069 2156 2228 2338 
Q 2531 2678 2651 2914 
Q 2772 3150 2772 3378 
Q 2772 3750 2511 3984 
Q 2250 4219 1831 4219 
Q 1534 4219 1204 4116 
Q 875 4013 500 3803 
L 500 4441 
Q 881 4594 1212 4672 
Q 1544 4750 1819 4750 
Q 2544 4750 2975 4387 
Q 3406 4025 3406 3419 
Q 3406 3131 3298 2873 
Q 3191 2616 2906 2266 
Q 2828 2175 2409 1742 
Q 1991 1309 1228 531 
z
" id="DejaVuSans-32" transform="scale(0.015625)"/>
       </defs>
       <use xlink:href="#DejaVuSans-32"/>
       <use x="63.623047" xlink:href="#DejaVuSans-30"/>
       <use x="127.246094" xlink:href="#DejaVuSans-30"/>
       <use x="190.869141" xlink:href="#DejaVuSans-30"/>
       <use x="254.492188" xlink:href="#DejaVuSans-30"/>
      </g>
     </g>
    </g>
    <g id="ytick_3">
     <g id="line2d_12">
      <g>
       <use style="stroke:#000000;stroke-width:0.8;" x="162" xlink:href="#m25151a175f" y="535.990987"/>
      </g>
     </g>
     <g id="text_12">
      <!-- 40000 -->
      <g transform="translate(123.1875 539.790206)scale(0.1 -0.1)">
       <defs>
        <path d="M 2419 4116 
L 825 1625 
L 2419 1625 
L 2419 4116 
z
M 2253 4666 
L 3047 4666 
L 3047 1625 
L 3713 1625 
L 3713 1100 
L 3047 1100 
L 3047 0 
L 2419 0 
L 2419 1100 
L 313 1100 
L 313 1709 
L 2253 4666 
z
" id="DejaVuSans-34" transform="scale(0.015625)"/>
       </defs>
       <use xlink:href="#DejaVuSans-34"/>
       <use x="63.623047" xlink:href="#DejaVuSans-30"/>
       <use x="127.246094" xlink:href="#DejaVuSans-30"/>
       <use x="190.869141" xlink:href="#DejaVuSans-30"/>
       <use x="254.492188" xlink:href="#DejaVuSans-30"/>
      </g>
     </g>
    </g>
    <g id="ytick_4">
     <g id="line2d_13">
      <g>
       <use style="stroke:#000000;stroke-width:0.8;" x="162" xlink:href="#m25151a175f" y="419.506481"/>
      </g>
     </g>
     <g id="text_13">
      <!-- 60000 -->
      <g transform="translate(123.1875 423.305699)scale(0.1 -0.1)">
       <defs>
        <path d="M 2113 2584 
Q 1688 2584 1439 2293 
Q 1191 2003 1191 1497 
Q 1191 994 1439 701 
Q 1688 409 2113 409 
Q 2538 409 2786 701 
Q 3034 994 3034 1497 
Q 3034 2003 2786 2293 
Q 2538 2584 2113 2584 
z
M 3366 4563 
L 3366 3988 
Q 3128 4100 2886 4159 
Q 2644 4219 2406 4219 
Q 1781 4219 1451 3797 
Q 1122 3375 1075 2522 
Q 1259 2794 1537 2939 
Q 1816 3084 2150 3084 
Q 2853 3084 3261 2657 
Q 3669 2231 3669 1497 
Q 3669 778 3244 343 
Q 2819 -91 2113 -91 
Q 1303 -91 875 529 
Q 447 1150 447 2328 
Q 447 3434 972 4092 
Q 1497 4750 2381 4750 
Q 2619 4750 2861 4703 
Q 3103 4656 3366 4563 
z
" id="DejaVuSans-36" transform="scale(0.015625)"/>
       </defs>
       <use xlink:href="#DejaVuSans-36"/>
       <use x="63.623047" xlink:href="#DejaVuSans-30"/>
       <use x="127.246094" xlink:href="#DejaVuSans-30"/>
       <use x="190.869141" xlink:href="#DejaVuSans-30"/>
       <use x="254.492188" xlink:href="#DejaVuSans-30"/>
      </g>
     </g>
    </g>
    <g id="ytick_5">
     <g id="line2d_14">
      <g>
       <use style="stroke:#000000;stroke-width:0.8;" x="162" xlink:href="#m25151a175f" y="303.021974"/>
      </g>
     </g>
     <g id="text_14">
      <!-- 80000 -->
      <g transform="translate(123.1875 306.821193)scale(0.1 -0.1)">
       <defs>
        <path d="M 2034 2216 
Q 1584 2216 1326 1975 
Q 1069 1734 1069 1313 
Q 1069 891 1326 650 
Q 1584 409 2034 409 
Q 2484 409 2743 651 
Q 3003 894 3003 1313 
Q 3003 1734 2745 1975 
Q 2488 2216 2034 2216 
z
M 1403 2484 
Q 997 2584 770 2862 
Q 544 3141 544 3541 
Q 544 4100 942 4425 
Q 1341 4750 2034 4750 
Q 2731 4750 3128 4425 
Q 3525 4100 3525 3541 
Q 3525 3141 3298 2862 
Q 3072 2584 2669 2484 
Q 3125 2378 3379 2068 
Q 3634 1759 3634 1313 
Q 3634 634 3220 271 
Q 2806 -91 2034 -91 
Q 1263 -91 848 271 
Q 434 634 434 1313 
Q 434 1759 690 2068 
Q 947 2378 1403 2484 
z
M 1172 3481 
Q 1172 3119 1398 2916 
Q 1625 2713 2034 2713 
Q 2441 2713 2670 2916 
Q 2900 3119 2900 3481 
Q 2900 3844 2670 4047 
Q 2441 4250 2034 4250 
Q 1625 4250 1398 4047 
Q 1172 3844 1172 3481 
z
" id="DejaVuSans-38" transform="scale(0.015625)"/>
       </defs>
       <use xlink:href="#DejaVuSans-38"/>
       <use x="63.623047" xlink:href="#DejaVuSans-30"/>
       <use x="127.246094" xlink:href="#DejaVuSans-30"/>
       <use x="190.869141" xlink:href="#DejaVuSans-30"/>
       <use x="254.492188" xlink:href="#DejaVuSans-30"/>
      </g>
     </g>
    </g>
    <g id="ytick_6">
     <g id="line2d_15">
      <g>
       <use style="stroke:#000000;stroke-width:0.8;" x="162" xlink:href="#m25151a175f" y="186.537468"/>
      </g>
     </g>
     <g id="text_15">
      <!-- 100000 -->
      <g transform="translate(116.825 190.336687)scale(0.1 -0.1)">
       <defs>
        <path d="M 794 531 
L 1825 531 
L 1825 4091 
L 703 3866 
L 703 4441 
L 1819 4666 
L 2450 4666 
L 2450 531 
L 3481 531 
L 3481 0 
L 794 0 
L 794 531 
z
" id="DejaVuSans-31" transform="scale(0.015625)"/>
       </defs>
       <use xlink:href="#DejaVuSans-31"/>
       <use x="63.623047" xlink:href="#DejaVuSans-30"/>
       <use x="127.246094" xlink:href="#DejaVuSans-30"/>
       <use x="190.869141" xlink:href="#DejaVuSans-30"/>
       <use x="254.492188" xlink:href="#DejaVuSans-30"/>
       <use x="318.115234" xlink:href="#DejaVuSans-30"/>
      </g>
     </g>
    </g>
    <g id="text_16">
     <!-- Persons fully vaccinated -->
     <g transform="translate(110.745312 496.922344)rotate(-90)scale(0.1 -0.1)">
      <defs>
       <path d="M 1259 4147 
L 1259 2394 
L 2053 2394 
Q 2494 2394 2734 2622 
Q 2975 2850 2975 3272 
Q 2975 3691 2734 3919 
Q 2494 4147 2053 4147 
L 1259 4147 
z
M 628 4666 
L 2053 4666 
Q 2838 4666 3239 4311 
Q 3641 3956 3641 3272 
Q 3641 2581 3239 2228 
Q 2838 1875 2053 1875 
L 1259 1875 
L 1259 0 
L 628 0 
L 628 4666 
z
" id="DejaVuSans-50" transform="scale(0.015625)"/>
       <path d="M 1959 3097 
Q 1497 3097 1228 2736 
Q 959 2375 959 1747 
Q 959 1119 1226 758 
Q 1494 397 1959 397 
Q 2419 397 2687 759 
Q 2956 1122 2956 1747 
Q 2956 2369 2687 2733 
Q 2419 3097 1959 3097 
z
M 1959 3584 
Q 2709 3584 3137 3096 
Q 3566 2609 3566 1747 
Q 3566 888 3137 398 
Q 2709 -91 1959 -91 
Q 1206 -91 779 398 
Q 353 888 353 1747 
Q 353 2609 779 3096 
Q 1206 3584 1959 3584 
z
" id="DejaVuSans-6f" transform="scale(0.015625)"/>
       <path id="DejaVuSans-20" transform="scale(0.015625)"/>
       <path d="M 2375 4863 
L 2375 4384 
L 1825 4384 
Q 1516 4384 1395 4259 
Q 1275 4134 1275 3809 
L 1275 3500 
L 2222 3500 
L 2222 3053 
L 1275 3053 
L 1275 0 
L 697 0 
L 697 3053 
L 147 3053 
L 147 3500 
L 697 3500 
L 697 3744 
Q 697 4328 969 4595 
Q 1241 4863 1831 4863 
L 2375 4863 
z
" id="DejaVuSans-66" transform="scale(0.015625)"/>
       <path d="M 191 3500 
L 800 3500 
L 1894 563 
L 2988 3500 
L 3597 3500 
L 2284 0 
L 1503 0 
L 191 3500 
z
" id="DejaVuSans-76" transform="scale(0.015625)"/>
       <path d="M 2906 2969 
L 2906 4863 
L 3481 4863 
L 3481 0 
L 2906 0 
L 2906 525 
Q 2725 213 2448 61 
Q 2172 -91 1784 -91 
Q 1150 -91 751 415 
Q 353 922 353 1747 
Q 353 2572 751 3078 
Q 1150 3584 1784 3584 
Q 2172 3584 2448 3432 
Q 2725 3281 2906 2969 
z
M 947 1747 
Q 947 1113 1208 752 
Q 1469 391 1925 391 
Q 2381 391 2643 752 
Q 2906 1113 2906 1747 
Q 2906 2381 2643 2742 
Q 2381 3103 1925 3103 
Q 1469 3103 1208 2742 
Q 947 2381 947 1747 
z
" id="DejaVuSans-64" transform="scale(0.015625)"/>
      </defs>
      <use xlink:href="#DejaVuSans-50"/>
      <use x="56.677734" xlink:href="#DejaVuSans-65"/>
      <use x="118.201172" xlink:href="#DejaVuSans-72"/>
      <use x="159.314453" xlink:href="#DejaVuSans-73"/>
      <use x="211.414062" xlink:href="#DejaVuSans-6f"/>
      <use x="272.595703" xlink:href="#DejaVuSans-6e"/>
      <use x="335.974609" xlink:href="#DejaVuSans-73"/>
      <use x="388.074219" xlink:href="#DejaVuSans-20"/>
      <use x="419.861328" xlink:href="#DejaVuSans-66"/>
      <use x="455.066406" xlink:href="#DejaVuSans-75"/>
      <use x="518.445312" xlink:href="#DejaVuSans-6c"/>
      <use x="546.228516" xlink:href="#DejaVuSans-6c"/>
      <use x="574.011719" xlink:href="#DejaVuSans-79"/>
      <use x="633.191406" xlink:href="#DejaVuSans-20"/>
      <use x="664.978516" xlink:href="#DejaVuSans-76"/>
      <use x="724.158203" xlink:href="#DejaVuSans-61"/>
      <use x="785.4375" xlink:href="#DejaVuSans-63"/>
      <use x="840.417969" xlink:href="#DejaVuSans-63"/>
      <use x="895.398438" xlink:href="#DejaVuSans-69"/>
      <use x="923.181641" xlink:href="#DejaVuSans-6e"/>
      <use x="986.560547" xlink:href="#DejaVuSans-61"/>
      <use x="1047.839844" xlink:href="#DejaVuSans-74"/>
      <use x="1087.048828" xlink:href="#DejaVuSans-65"/>
      <use x="1148.572266" xlink:href="#DejaVuSans-64"/>
     </g>
    </g>
   </g>
   <g id="line2d_16">
    <path clip-path="url(#pa15ca5dee5)" d="M 229.864865 743.750257 
L 233.742857 743.509799 
L 237.620849 744.748695 
L 241.498842 741.227535 
L 245.376834 740.333101 
L 249.254826 738.222235 
L 253.132819 733.793328 
L 257.010811 725.74092 
L 260.888803 717.149356 
L 264.766795 710.770997 
L 268.644788 704.041521 
L 272.52278 699.449535 
L 276.400772 698.392854 
L 280.278764 698.451096 
L 284.156757 695.949175 
L 288.034749 701.086142 
L 291.912741 700.891447 
L 295.790734 701.455564 
L 299.668726 698.249744 
L 303.546718 698.627487 
L 307.42471 694.482303 
L 311.302703 695.224475 
L 315.180695 689.375289 
L 319.058687 679.541501 
L 322.93668 670.407451 
L 326.814672 667.413799 
L 330.692664 663.816092 
L 334.570656 667.903034 
L 338.448649 668.808285 
L 342.326641 664.021604 
L 346.204633 660.165967 
L 350.082625 654.300972 
L 353.960618 663.019838 
L 357.83861 650.340499 
L 361.716602 641.960271 
L 365.594595 632.107346 
L 369.472587 609.793074 
L 373.350579 593.132462 
L 377.228571 580.66862 
L 381.106564 550.618945 
L 384.984556 553.759035 
L 388.862548 544.353743 
L 392.740541 534.237063 
L 396.618533 540.039656 
L 400.496525 528.703217 
L 404.374517 514.469643 
L 408.25251 508.874226 
L 412.130502 512.835531 
L 416.008494 503.02504 
L 419.886486 491.631191 
L 423.764479 480.998652 
L 427.642471 484.462402 
L 431.520463 477.798656 
L 435.398456 479.013423 
L 439.276448 452.884284 
L 443.15444 453.217097 
L 447.032432 459.216881 
L 450.910425 473.92721 
L 454.788417 487.2131 
L 458.666409 506.654364 
L 462.544402 520.29886 
L 466.422394 545.390455 
L 474.178378 569.719076 
L 478.056371 576.32874 
L 481.934363 580.571272 
L 485.812355 577.53269 
L 489.690347 564.205199 
L 497.446332 560.98357 
L 501.324324 545.098411 
L 505.202317 536.459421 
L 509.080309 521.620127 
L 512.958301 514.66101 
L 516.836293 513.564392 
L 520.714286 517.840205 
L 524.592278 504.288065 
L 528.47027 489.463747 
L 532.348263 462.515889 
L 536.226255 436.39923 
L 540.104247 396.237869 
L 543.982239 374.223129 
L 547.860232 355.84437 
L 551.738224 342.616722 
L 555.616216 337.603728 
L 559.494208 347.128001 
L 563.372201 350.057586 
L 567.250193 368.878986 
L 571.128185 379.72203 
L 575.006178 379.806065 
L 578.88417 388.339387 
L 582.762162 382.808037 
L 586.640154 376.526194 
L 590.518147 386.81344 
L 594.396139 400.675928 
L 598.274131 412.620582 
L 602.152124 425.9955 
L 606.030116 431.630022 
L 609.908108 447.480235 
L 613.7861 453.417617 
L 617.664093 463.940328 
L 621.542085 476.893405 
L 625.420077 494.974296 
L 629.298069 504.281408 
L 633.176062 517.994131 
L 637.054054 511.541721 
L 640.932046 508.317597 
L 644.810039 517.544002 
L 648.688031 498.794988 
L 652.566023 476.13792 
L 656.444015 444.280239 
L 660.322008 433.228356 
L 664.2 447.181535 
L 668.077992 464.111726 
L 671.955985 465.112661 
L 675.833977 468.553114 
L 679.711969 478.181391 
L 683.589961 503.13154 
L 687.467954 512.947024 
L 691.345946 513.777392 
L 695.223938 515.048737 
L 699.101931 501.499925 
L 702.979923 526.020745 
L 706.857915 530.908935 
L 710.735907 531.206802 
L 714.6139 532.96655 
L 718.491892 549.831843 
L 722.369884 561.958712 
L 726.247876 589.173653 
L 730.125869 598.758663 
L 734.003861 609.476902 
L 737.881853 612.570398 
L 741.759846 627.01198 
L 745.637838 637.669481 
L 749.51583 647.539047 
L 753.393822 648.557454 
L 757.271815 644.250023 
L 765.027799 625.880417 
L 768.905792 606.441649 
L 772.783784 593.418681 
L 776.661776 576.577517 
L 780.539768 580.297533 
L 784.417761 588.731844 
L 788.295753 602.539418 
L 792.173745 608.433534 
L 796.051737 594.517795 
L 799.92973 593.113325 
L 803.807722 605.903324 
L 807.685714 601.962819 
L 811.563707 610.822298 
L 815.441699 603.762505 
L 819.319691 608.441022 
L 823.197683 638.500681 
L 827.075676 655.688802 
L 830.953668 660.651874 
L 834.83166 668.726746 
L 842.587645 610.943775 
L 846.465637 615.229573 
L 850.343629 614.897592 
L 854.221622 614.405029 
L 858.099614 617.186512 
L 861.977606 624.595759 
L 865.855598 655.273618 
L 869.733591 695.429987 
L 873.611583 695.64798 
L 877.489575 705.831222 
L 881.367568 712.506616 
L 885.24556 713.505887 
L 889.123552 713.178066 
L 893.001544 714.304638 
L 896.879537 714.127415 
L 900.757529 712.262831 
L 904.635521 701.704342 
L 908.513514 699.130034 
L 916.269498 705.263776 
L 920.14749 706.851293 
L 924.025483 708.249107 
L 927.903475 709.217593 
L 931.781467 712.959242 
L 935.659459 712.23787 
L 939.537452 711.756123 
L 947.293436 715.704948 
L 951.171429 718.818412 
L 955.049421 721.361103 
L 958.927413 724.688399 
L 962.805405 725.21258 
L 966.683398 718.592931 
L 970.56139 717.092777 
L 974.439382 705.986812 
L 978.317375 703.742821 
L 986.073359 698.858792 
L 989.951351 699.339707 
L 993.829344 706.979426 
L 997.707336 706.701527 
L 1001.585328 715.62008 
L 1005.46332 707.555192 
L 1009.341313 706.786395 
L 1013.219305 706.994403 
L 1017.097297 709.884051 
L 1020.97529 696.102269 
L 1024.853282 685.195991 
L 1032.609266 668.373133 
L 1036.487259 658.304711 
L 1040.365251 657.091608 
L 1044.243243 652.355681 
L 1048.121236 664.252909 
L 1051.999228 674.023463 
L 1055.87722 682.215652 
L 1059.755212 695.566441 
L 1063.633205 704.911826 
L 1067.511197 704.763724 
L 1071.389189 704.833615 
L 1075.267181 704.722955 
L 1079.145174 703.490715 
L 1083.023166 700.550313 
L 1086.901158 692.295722 
L 1090.779151 669.570427 
L 1094.657143 663.862686 
L 1098.535135 663.961698 
L 1102.413127 664.292015 
L 1106.29112 666.056755 
L 1110.169112 669.12945 
L 1114.047104 678.310093 
L 1117.925097 701.476365 
L 1121.803089 710.853368 
L 1125.681081 716.432144 
L 1129.559073 716.0128 
L 1133.437066 716.045249 
L 1137.315058 716.641816 
L 1141.19305 717.3765 
L 1145.071042 717.439735 
L 1148.949035 714.963607 
L 1152.827027 711.176197 
L 1156.705019 713.143121 
L 1160.583012 713.775465 
L 1160.583012 713.775465 
" style="fill:none;stroke:#ffa500;stroke-linecap:square;stroke-width:1.5;"/>
   </g>
   <g id="patch_262">
    <path d="M 162 768.96 
L 162 103.68 
" style="fill:none;stroke:#000000;stroke-linecap:square;stroke-linejoin:miter;stroke-width:0.8;"/>
   </g>
   <g id="patch_263">
    <path d="M 1166.4 768.96 
L 1166.4 103.68 
" style="fill:none;stroke:#000000;stroke-linecap:square;stroke-linejoin:miter;stroke-width:0.8;"/>
   </g>
   <g id="patch_264">
    <path d="M 162 768.96 
L 1166.4 768.96 
" style="fill:none;stroke:#000000;stroke-linecap:square;stroke-linejoin:miter;stroke-width:0.8;"/>
   </g>
   <g id="patch_265">
    <path d="M 162 103.68 
L 1166.4 103.68 
" style="fill:none;stroke:#000000;stroke-linecap:square;stroke-linejoin:miter;stroke-width:0.8;"/>
   </g>
   <g id="text_17">
    <!-- Persons Fully Vaccinated -->
    <g transform="translate(590.380313 97.68)scale(0.12 -0.12)">
     <defs>
      <path d="M 1831 0 
L 50 4666 
L 709 4666 
L 2188 738 
L 3669 4666 
L 4325 4666 
L 2547 0 
L 1831 0 
z
" id="DejaVuSans-56" transform="scale(0.015625)"/>
     </defs>
     <use xlink:href="#DejaVuSans-50"/>
     <use x="56.677734" xlink:href="#DejaVuSans-65"/>
     <use x="118.201172" xlink:href="#DejaVuSans-72"/>
     <use x="159.314453" xlink:href="#DejaVuSans-73"/>
     <use x="211.414062" xlink:href="#DejaVuSans-6f"/>
     <use x="272.595703" xlink:href="#DejaVuSans-6e"/>
     <use x="335.974609" xlink:href="#DejaVuSans-73"/>
     <use x="388.074219" xlink:href="#DejaVuSans-20"/>
     <use x="419.861328" xlink:href="#DejaVuSans-46"/>
     <use x="471.880859" xlink:href="#DejaVuSans-75"/>
     <use x="535.259766" xlink:href="#DejaVuSans-6c"/>
     <use x="563.042969" xlink:href="#DejaVuSans-6c"/>
     <use x="590.826172" xlink:href="#DejaVuSans-79"/>
     <use x="650.005859" xlink:href="#DejaVuSans-20"/>
     <use x="681.792969" xlink:href="#DejaVuSans-56"/>
     <use x="742.451172" xlink:href="#DejaVuSans-61"/>
     <use x="803.730469" xlink:href="#DejaVuSans-63"/>
     <use x="858.710938" xlink:href="#DejaVuSans-63"/>
     <use x="913.691406" xlink:href="#DejaVuSans-69"/>
     <use x="941.474609" xlink:href="#DejaVuSans-6e"/>
     <use x="1004.853516" xlink:href="#DejaVuSans-61"/>
     <use x="1066.132812" xlink:href="#DejaVuSans-74"/>
     <use x="1105.341797" xlink:href="#DejaVuSans-65"/>
     <use x="1166.865234" xlink:href="#DejaVuSans-64"/>
    </g>
   </g>
  </g>
 </g>
 <defs>
  <clipPath id="pa15ca5dee5">
   <rect height="665.28" width="1004.4" x="162" y="103.68"/>
  </clipPath>
 </defs>
</svg>
