<?xml version="1.0" encoding="utf-8" standalone="no"?>
<!DOCTYPE svg PUBLIC "-//W3C//DTD SVG 1.1//EN"
  "http://www.w3.org/Graphics/SVG/1.1/DTD/svg11.dtd">
<svg height="864pt" version="1.1" viewBox="0 0 1296 864" width="1296pt" xmlns="http://www.w3.org/2000/svg" xmlns:xlink="http://www.w3.org/1999/xlink">
 <metadata>
  <rdf:RDF xmlns:cc="http://creativecommons.org/ns#" xmlns:dc="http://purl.org/dc/elements/1.1/" xmlns:rdf="http://www.w3.org/1999/02/22-rdf-syntax-ns#">
   <cc:Work>
    <dc:type rdf:resource="http://purl.org/dc/dcmitype/StillImage"/>
    <dc:date>2021-09-28T14:28:26.979421</dc:date>
    <dc:format>image/svg+xml</dc:format>
    <dc:creator>
     <cc:Agent>
      <dc:title>Matplotlib v3.4.2, https://matplotlib.org/</dc:title>
     </cc:Agent>
    </dc:creator>
   </cc:Work>
  </rdf:RDF>
 </metadata>
 <defs>
  <style type="text/css">*{stroke-linecap:butt;stroke-linejoin:round;}</style>
 </defs>
 <g id="figure_1">
  <g id="patch_1">
   <path d="M 0 864 
L 1296 864 
L 1296 0 
L 0 0 
z
" style="fill:#ffffff;"/>
  </g>
  <g id="axes_1">
   <g id="patch_2">
    <path d="M 162 768.96 
L 1166.4 768.96 
L 1166.4 103.68 
L 162 103.68 
z
" style="fill:#ffffff;"/>
   </g>
   <g id="patch_3">
    <path clip-path="url(#p1957652d59)" d="M 162.933457 768.96 
L 164.800372 768.96 
L 164.800372 768.96 
L 162.933457 768.96 
z
" style="fill:#1f77b4;"/>
   </g>
   <g id="patch_4">
    <path clip-path="url(#p1957652d59)" d="M 166.667286 768.96 
L 168.534201 768.96 
L 168.534201 768.96 
L 166.667286 768.96 
z
" style="fill:#1f77b4;"/>
   </g>
   <g id="patch_5">
    <path clip-path="url(#p1957652d59)" d="M 170.401115 768.96 
L 172.26803 768.96 
L 172.26803 768.96 
L 170.401115 768.96 
z
" style="fill:#1f77b4;"/>
   </g>
   <g id="patch_6">
    <path clip-path="url(#p1957652d59)" d="M 174.134944 768.96 
L 176.001859 768.96 
L 176.001859 768.231972 
L 174.134944 768.231972 
z
" style="fill:#1f77b4;"/>
   </g>
   <g id="patch_7">
    <path clip-path="url(#p1957652d59)" d="M 177.868773 768.96 
L 179.735688 768.96 
L 179.735688 767.020533 
L 177.868773 767.020533 
z
" style="fill:#1f77b4;"/>
   </g>
   <g id="patch_8">
    <path clip-path="url(#p1957652d59)" d="M 181.602602 768.96 
L 183.469517 768.96 
L 183.469517 754.894496 
L 181.602602 754.894496 
z
" style="fill:#1f77b4;"/>
   </g>
   <g id="patch_9">
    <path clip-path="url(#p1957652d59)" d="M 185.336431 768.96 
L 187.203346 768.96 
L 187.203346 667.38551 
L 185.336431 667.38551 
z
" style="fill:#1f77b4;"/>
   </g>
   <g id="patch_10">
    <path clip-path="url(#p1957652d59)" d="M 189.07026 768.96 
L 190.937175 768.96 
L 190.937175 646.429948 
L 189.07026 646.429948 
z
" style="fill:#1f77b4;"/>
   </g>
   <g id="patch_11">
    <path clip-path="url(#p1957652d59)" d="M 192.804089 768.96 
L 194.671004 768.96 
L 194.671004 702.12119 
L 192.804089 702.12119 
z
" style="fill:#1f77b4;"/>
   </g>
   <g id="patch_12">
    <path clip-path="url(#p1957652d59)" d="M 196.537918 768.96 
L 198.404833 768.96 
L 198.404833 728.440864 
L 196.537918 728.440864 
z
" style="fill:#1f77b4;"/>
   </g>
   <g id="patch_13">
    <path clip-path="url(#p1957652d59)" d="M 200.271747 768.96 
L 202.138662 768.96 
L 202.138662 705.615725 
L 200.271747 705.615725 
z
" style="fill:#1f77b4;"/>
   </g>
   <g id="patch_14">
    <path clip-path="url(#p1957652d59)" d="M 204.005576 768.96 
L 205.872491 768.96 
L 205.872491 708.865643 
L 204.005576 708.865643 
z
" style="fill:#1f77b4;"/>
   </g>
   <g id="patch_15">
    <path clip-path="url(#p1957652d59)" d="M 207.739405 768.96 
L 209.60632 768.96 
L 209.60632 719.79189 
L 207.739405 719.79189 
z
" style="fill:#1f77b4;"/>
   </g>
   <g id="patch_16">
    <path clip-path="url(#p1957652d59)" d="M 211.473234 768.96 
L 213.340149 768.96 
L 213.340149 709.086964 
L 211.473234 709.086964 
z
" style="fill:#1f77b4;"/>
   </g>
   <g id="patch_17">
    <path clip-path="url(#p1957652d59)" d="M 215.207063 768.96 
L 217.073978 768.96 
L 217.073978 756.711654 
L 215.207063 756.711654 
z
" style="fill:#1f77b4;"/>
   </g>
   <g id="patch_18">
    <path clip-path="url(#p1957652d59)" d="M 218.940892 768.96 
L 220.807807 768.96 
L 220.807807 761.312792 
L 218.940892 761.312792 
z
" style="fill:#1f77b4;"/>
   </g>
   <g id="patch_19">
    <path clip-path="url(#p1957652d59)" d="M 222.674721 768.96 
L 224.541636 768.96 
L 224.541636 765.325683 
L 222.674721 765.325683 
z
" style="fill:#1f77b4;"/>
   </g>
   <g id="patch_20">
    <path clip-path="url(#p1957652d59)" d="M 226.40855 768.96 
L 228.275465 768.96 
L 228.275465 752.180407 
L 226.40855 752.180407 
z
" style="fill:#1f77b4;"/>
   </g>
   <g id="patch_21">
    <path clip-path="url(#p1957652d59)" d="M 230.142379 768.96 
L 232.009294 768.96 
L 232.009294 741.842407 
L 230.142379 741.842407 
z
" style="fill:#1f77b4;"/>
   </g>
   <g id="patch_22">
    <path clip-path="url(#p1957652d59)" d="M 233.876208 768.96 
L 235.743123 768.96 
L 235.743123 718.108689 
L 233.876208 718.108689 
z
" style="fill:#1f77b4;"/>
   </g>
   <g id="patch_23">
    <path clip-path="url(#p1957652d59)" d="M 237.610037 768.96 
L 239.476952 768.96 
L 239.476952 717.759235 
L 237.610037 717.759235 
z
" style="fill:#1f77b4;"/>
   </g>
   <g id="patch_24">
    <path clip-path="url(#p1957652d59)" d="M 241.343866 768.96 
L 243.210781 768.96 
L 243.210781 732.063533 
L 241.343866 732.063533 
z
" style="fill:#1f77b4;"/>
   </g>
   <g id="patch_25">
    <path clip-path="url(#p1957652d59)" d="M 245.077695 768.96 
L 246.94461 768.96 
L 246.94461 755.05175 
L 245.077695 755.05175 
z
" style="fill:#1f77b4;"/>
   </g>
   <g id="patch_26">
    <path clip-path="url(#p1957652d59)" d="M 248.811524 768.96 
L 250.678439 768.96 
L 250.678439 750.549624 
L 248.811524 750.549624 
z
" style="fill:#1f77b4;"/>
   </g>
   <g id="patch_27">
    <path clip-path="url(#p1957652d59)" d="M 252.545353 768.96 
L 254.412268 768.96 
L 254.412268 721.178055 
L 252.545353 721.178055 
z
" style="fill:#1f77b4;"/>
   </g>
   <g id="patch_28">
    <path clip-path="url(#p1957652d59)" d="M 256.279182 768.96 
L 258.146097 768.96 
L 258.146097 685.475554 
L 256.279182 685.475554 
z
" style="fill:#1f77b4;"/>
   </g>
   <g id="patch_29">
    <path clip-path="url(#p1957652d59)" d="M 260.013011 768.96 
L 261.879926 768.96 
L 261.879926 657.967738 
L 260.013011 657.967738 
z
" style="fill:#1f77b4;"/>
   </g>
   <g id="patch_30">
    <path clip-path="url(#p1957652d59)" d="M 263.74684 768.96 
L 265.613755 768.96 
L 265.613755 673.110724 
L 263.74684 673.110724 
z
" style="fill:#1f77b4;"/>
   </g>
   <g id="patch_31">
    <path clip-path="url(#p1957652d59)" d="M 267.480669 768.96 
L 269.347584 768.96 
L 269.347584 684.957198 
L 267.480669 684.957198 
z
" style="fill:#1f77b4;"/>
   </g>
   <g id="patch_32">
    <path clip-path="url(#p1957652d59)" d="M 271.214498 768.96 
L 273.081413 768.96 
L 273.081413 722.90785 
L 271.214498 722.90785 
z
" style="fill:#1f77b4;"/>
   </g>
   <g id="patch_33">
    <path clip-path="url(#p1957652d59)" d="M 274.948327 768.96 
L 276.815242 768.96 
L 276.815242 743.152858 
L 274.948327 743.152858 
z
" style="fill:#1f77b4;"/>
   </g>
   <g id="patch_34">
    <path clip-path="url(#p1957652d59)" d="M 278.682156 768.96 
L 280.549071 768.96 
L 280.549071 721.585751 
L 278.682156 721.585751 
z
" style="fill:#1f77b4;"/>
   </g>
   <g id="patch_35">
    <path clip-path="url(#p1957652d59)" d="M 282.415985 768.96 
L 284.2829 768.96 
L 284.2829 667.962109 
L 282.415985 667.962109 
z
" style="fill:#1f77b4;"/>
   </g>
   <g id="patch_36">
    <path clip-path="url(#p1957652d59)" d="M 286.149814 768.96 
L 288.016729 768.96 
L 288.016729 693.926505 
L 286.149814 693.926505 
z
" style="fill:#1f77b4;"/>
   </g>
   <g id="patch_37">
    <path clip-path="url(#p1957652d59)" d="M 289.883643 768.96 
L 291.750558 768.96 
L 291.750558 671.747855 
L 289.883643 671.747855 
z
" style="fill:#1f77b4;"/>
   </g>
   <g id="patch_38">
    <path clip-path="url(#p1957652d59)" d="M 293.617472 768.96 
L 295.484387 768.96 
L 295.484387 688.906023 
L 293.617472 688.906023 
z
" style="fill:#1f77b4;"/>
   </g>
   <g id="patch_39">
    <path clip-path="url(#p1957652d59)" d="M 297.351301 768.96 
L 299.218216 768.96 
L 299.218216 700.46711 
L 297.351301 700.46711 
z
" style="fill:#1f77b4;"/>
   </g>
   <g id="patch_40">
    <path clip-path="url(#p1957652d59)" d="M 301.08513 768.96 
L 302.952045 768.96 
L 302.952045 745.797056 
L 301.08513 745.797056 
z
" style="fill:#1f77b4;"/>
   </g>
   <g id="patch_41">
    <path clip-path="url(#p1957652d59)" d="M 304.818959 768.96 
L 306.685874 768.96 
L 306.685874 692.569461 
L 304.818959 692.569461 
z
" style="fill:#1f77b4;"/>
   </g>
   <g id="patch_42">
    <path clip-path="url(#p1957652d59)" d="M 308.552788 768.96 
L 310.419703 768.96 
L 310.419703 673.157318 
L 308.552788 673.157318 
z
" style="fill:#1f77b4;"/>
   </g>
   <g id="patch_43">
    <path clip-path="url(#p1957652d59)" d="M 312.286617 768.96 
L 314.153532 768.96 
L 314.153532 652.982201 
L 312.286617 652.982201 
z
" style="fill:#1f77b4;"/>
   </g>
   <g id="patch_44">
    <path clip-path="url(#p1957652d59)" d="M 316.020446 768.96 
L 317.887361 768.96 
L 317.887361 602.911336 
L 316.020446 602.911336 
z
" style="fill:#1f77b4;"/>
   </g>
   <g id="patch_45">
    <path clip-path="url(#p1957652d59)" d="M 319.754275 768.96 
L 321.62119 768.96 
L 321.62119 624.967677 
L 319.754275 624.967677 
z
" style="fill:#1f77b4;"/>
   </g>
   <g id="patch_46">
    <path clip-path="url(#p1957652d59)" d="M 323.488104 768.96 
L 325.355019 768.96 
L 325.355019 679.511548 
L 323.488104 679.511548 
z
" style="fill:#1f77b4;"/>
   </g>
   <g id="patch_47">
    <path clip-path="url(#p1957652d59)" d="M 327.221933 768.96 
L 329.088848 768.96 
L 329.088848 720.613106 
L 327.221933 720.613106 
z
" style="fill:#1f77b4;"/>
   </g>
   <g id="patch_48">
    <path clip-path="url(#p1957652d59)" d="M 330.955762 768.96 
L 332.822677 768.96 
L 332.822677 721.178055 
L 330.955762 721.178055 
z
" style="fill:#1f77b4;"/>
   </g>
   <g id="patch_49">
    <path clip-path="url(#p1957652d59)" d="M 334.689591 768.96 
L 336.556506 768.96 
L 336.556506 679.494075 
L 334.689591 679.494075 
z
" style="fill:#1f77b4;"/>
   </g>
   <g id="patch_50">
    <path clip-path="url(#p1957652d59)" d="M 338.42342 768.96 
L 340.290335 768.96 
L 340.290335 619.475433 
L 338.42342 619.475433 
z
" style="fill:#1f77b4;"/>
   </g>
   <g id="patch_51">
    <path clip-path="url(#p1957652d59)" d="M 342.157249 768.96 
L 344.024164 768.96 
L 344.024164 575.921876 
L 342.157249 575.921876 
z
" style="fill:#1f77b4;"/>
   </g>
   <g id="patch_52">
    <path clip-path="url(#p1957652d59)" d="M 345.891078 768.96 
L 347.757993 768.96 
L 347.757993 583.912713 
L 345.891078 583.912713 
z
" style="fill:#1f77b4;"/>
   </g>
   <g id="patch_53">
    <path clip-path="url(#p1957652d59)" d="M 349.624907 768.96 
L 351.491822 768.96 
L 351.491822 740.543605 
L 349.624907 740.543605 
z
" style="fill:#1f77b4;"/>
   </g>
   <g id="patch_54">
    <path clip-path="url(#p1957652d59)" d="M 353.358736 768.96 
L 355.225651 768.96 
L 355.225651 631.857736 
L 353.358736 631.857736 
z
" style="fill:#1f77b4;"/>
   </g>
   <g id="patch_55">
    <path clip-path="url(#p1957652d59)" d="M 357.092565 768.96 
L 358.95948 768.96 
L 358.95948 662.516458 
L 357.092565 662.516458 
z
" style="fill:#1f77b4;"/>
   </g>
   <g id="patch_56">
    <path clip-path="url(#p1957652d59)" d="M 360.826394 768.96 
L 362.693309 768.96 
L 362.693309 610.523599 
L 360.826394 610.523599 
z
" style="fill:#1f77b4;"/>
   </g>
   <g id="patch_57">
    <path clip-path="url(#p1957652d59)" d="M 364.560223 768.96 
L 366.427138 768.96 
L 366.427138 463.275534 
L 364.560223 463.275534 
z
" style="fill:#1f77b4;"/>
   </g>
   <g id="patch_58">
    <path clip-path="url(#p1957652d59)" d="M 368.294052 768.96 
L 370.160967 768.96 
L 370.160967 459.297588 
L 368.294052 459.297588 
z
" style="fill:#1f77b4;"/>
   </g>
   <g id="patch_59">
    <path clip-path="url(#p1957652d59)" d="M 372.027881 768.96 
L 373.894796 768.96 
L 373.894796 496.665818 
L 372.027881 496.665818 
z
" style="fill:#1f77b4;"/>
   </g>
   <g id="patch_60">
    <path clip-path="url(#p1957652d59)" d="M 375.76171 768.96 
L 377.628625 768.96 
L 377.628625 530.195883 
L 375.76171 530.195883 
z
" style="fill:#1f77b4;"/>
   </g>
   <g id="patch_61">
    <path clip-path="url(#p1957652d59)" d="M 379.495539 768.96 
L 381.362454 768.96 
L 381.362454 653.838362 
L 379.495539 653.838362 
z
" style="fill:#1f77b4;"/>
   </g>
   <g id="patch_62">
    <path clip-path="url(#p1957652d59)" d="M 383.229368 768.96 
L 385.096283 768.96 
L 385.096283 596.679415 
L 383.229368 596.679415 
z
" style="fill:#1f77b4;"/>
   </g>
   <g id="patch_63">
    <path clip-path="url(#p1957652d59)" d="M 386.963197 768.96 
L 388.830112 768.96 
L 388.830112 539.706843 
L 386.963197 539.706843 
z
" style="fill:#1f77b4;"/>
   </g>
   <g id="patch_64">
    <path clip-path="url(#p1957652d59)" d="M 390.697026 768.96 
L 392.563941 768.96 
L 392.563941 503.893681 
L 390.697026 503.893681 
z
" style="fill:#1f77b4;"/>
   </g>
   <g id="patch_65">
    <path clip-path="url(#p1957652d59)" d="M 394.430855 768.96 
L 396.29777 768.96 
L 396.29777 379.942518 
L 394.430855 379.942518 
z
" style="fill:#1f77b4;"/>
   </g>
   <g id="patch_66">
    <path clip-path="url(#p1957652d59)" d="M 398.164684 768.96 
L 400.031599 768.96 
L 400.031599 397.030795 
L 398.164684 397.030795 
z
" style="fill:#1f77b4;"/>
   </g>
   <g id="patch_67">
    <path clip-path="url(#p1957652d59)" d="M 401.898513 768.96 
L 403.765428 768.96 
L 403.765428 491.027968 
L 401.898513 491.027968 
z
" style="fill:#1f77b4;"/>
   </g>
   <g id="patch_68">
    <path clip-path="url(#p1957652d59)" d="M 405.632342 768.96 
L 407.499257 768.96 
L 407.499257 681.567499 
L 405.632342 681.567499 
z
" style="fill:#1f77b4;"/>
   </g>
   <g id="patch_69">
    <path clip-path="url(#p1957652d59)" d="M 409.366171 768.96 
L 411.233086 768.96 
L 411.233086 528.005974 
L 409.366171 528.005974 
z
" style="fill:#1f77b4;"/>
   </g>
   <g id="patch_70">
    <path clip-path="url(#p1957652d59)" d="M 413.1 768.96 
L 414.966914 768.96 
L 414.966914 459.949901 
L 413.1 459.949901 
z
" style="fill:#1f77b4;"/>
   </g>
   <g id="patch_71">
    <path clip-path="url(#p1957652d59)" d="M 416.833829 768.96 
L 418.700743 768.96 
L 418.700743 429.465906 
L 416.833829 429.465906 
z
" style="fill:#1f77b4;"/>
   </g>
   <g id="patch_72">
    <path clip-path="url(#p1957652d59)" d="M 420.567658 768.96 
L 422.434572 768.96 
L 422.434572 404.188768 
L 420.567658 404.188768 
z
" style="fill:#1f77b4;"/>
   </g>
   <g id="patch_73">
    <path clip-path="url(#p1957652d59)" d="M 424.301487 768.96 
L 426.168401 768.96 
L 426.168401 350.384575 
L 424.301487 350.384575 
z
" style="fill:#1f77b4;"/>
   </g>
   <g id="patch_74">
    <path clip-path="url(#p1957652d59)" d="M 428.035316 768.96 
L 429.90223 768.96 
L 429.90223 499.531337 
L 428.035316 499.531337 
z
" style="fill:#1f77b4;"/>
   </g>
   <g id="patch_75">
    <path clip-path="url(#p1957652d59)" d="M 431.769145 768.96 
L 433.636059 768.96 
L 433.636059 498.663527 
L 431.769145 498.663527 
z
" style="fill:#1f77b4;"/>
   </g>
   <g id="patch_76">
    <path clip-path="url(#p1957652d59)" d="M 435.502974 768.96 
L 437.369888 768.96 
L 437.369888 530.335664 
L 435.502974 530.335664 
z
" style="fill:#1f77b4;"/>
   </g>
   <g id="patch_77">
    <path clip-path="url(#p1957652d59)" d="M 439.236803 768.96 
L 441.103717 768.96 
L 441.103717 501.94839 
L 439.236803 501.94839 
z
" style="fill:#1f77b4;"/>
   </g>
   <g id="patch_78">
    <path clip-path="url(#p1957652d59)" d="M 442.970632 768.96 
L 444.837546 768.96 
L 444.837546 532.43821 
L 442.970632 532.43821 
z
" style="fill:#1f77b4;"/>
   </g>
   <g id="patch_79">
    <path clip-path="url(#p1957652d59)" d="M 446.704461 768.96 
L 448.571375 768.96 
L 448.571375 497.189998 
L 446.704461 497.189998 
z
" style="fill:#1f77b4;"/>
   </g>
   <g id="patch_80">
    <path clip-path="url(#p1957652d59)" d="M 450.43829 768.96 
L 452.305204 768.96 
L 452.305204 486.473423 
L 450.43829 486.473423 
z
" style="fill:#1f77b4;"/>
   </g>
   <g id="patch_81">
    <path clip-path="url(#p1957652d59)" d="M 454.172119 768.96 
L 456.039033 768.96 
L 456.039033 595.042808 
L 454.172119 595.042808 
z
" style="fill:#1f77b4;"/>
   </g>
   <g id="patch_82">
    <path clip-path="url(#p1957652d59)" d="M 457.905948 768.96 
L 459.772862 768.96 
L 459.772862 674.30469 
L 457.905948 674.30469 
z
" style="fill:#1f77b4;"/>
   </g>
   <g id="patch_83">
    <path clip-path="url(#p1957652d59)" d="M 461.639777 768.96 
L 463.506691 768.96 
L 463.506691 616.749695 
L 461.639777 616.749695 
z
" style="fill:#1f77b4;"/>
   </g>
   <g id="patch_84">
    <path clip-path="url(#p1957652d59)" d="M 465.373606 768.96 
L 467.24052 768.96 
L 467.24052 585.834707 
L 465.373606 585.834707 
z
" style="fill:#1f77b4;"/>
   </g>
   <g id="patch_85">
    <path clip-path="url(#p1957652d59)" d="M 469.107435 768.96 
L 470.974349 768.96 
L 470.974349 578.705856 
L 469.107435 578.705856 
z
" style="fill:#1f77b4;"/>
   </g>
   <g id="patch_86">
    <path clip-path="url(#p1957652d59)" d="M 472.841264 768.96 
L 474.708178 768.96 
L 474.708178 526.887723 
L 472.841264 526.887723 
z
" style="fill:#1f77b4;"/>
   </g>
   <g id="patch_87">
    <path clip-path="url(#p1957652d59)" d="M 476.575093 768.96 
L 478.442007 768.96 
L 478.442007 465.203353 
L 476.575093 465.203353 
z
" style="fill:#1f77b4;"/>
   </g>
   <g id="patch_88">
    <path clip-path="url(#p1957652d59)" d="M 480.308922 768.96 
L 482.175836 768.96 
L 482.175836 501.750366 
L 480.308922 501.750366 
z
" style="fill:#1f77b4;"/>
   </g>
   <g id="patch_89">
    <path clip-path="url(#p1957652d59)" d="M 484.042751 768.96 
L 485.909665 768.96 
L 485.909665 662.895033 
L 484.042751 662.895033 
z
" style="fill:#1f77b4;"/>
   </g>
   <g id="patch_90">
    <path clip-path="url(#p1957652d59)" d="M 487.77658 768.96 
L 489.643494 768.96 
L 489.643494 605.607952 
L 487.77658 605.607952 
z
" style="fill:#1f77b4;"/>
   </g>
   <g id="patch_91">
    <path clip-path="url(#p1957652d59)" d="M 491.510409 768.96 
L 493.377323 768.96 
L 493.377323 474.638598 
L 491.510409 474.638598 
z
" style="fill:#1f77b4;"/>
   </g>
   <g id="patch_92">
    <path clip-path="url(#p1957652d59)" d="M 495.244238 768.96 
L 497.111152 768.96 
L 497.111152 518.232924 
L 495.244238 518.232924 
z
" style="fill:#1f77b4;"/>
   </g>
   <g id="patch_93">
    <path clip-path="url(#p1957652d59)" d="M 498.978067 768.96 
L 500.844981 768.96 
L 500.844981 423.012664 
L 498.978067 423.012664 
z
" style="fill:#1f77b4;"/>
   </g>
   <g id="patch_94">
    <path clip-path="url(#p1957652d59)" d="M 502.711896 768.96 
L 504.57881 768.96 
L 504.57881 416.489532 
L 502.711896 416.489532 
z
" style="fill:#1f77b4;"/>
   </g>
   <g id="patch_95">
    <path clip-path="url(#p1957652d59)" d="M 506.445725 768.96 
L 508.312639 768.96 
L 508.312639 494.074038 
L 506.445725 494.074038 
z
" style="fill:#1f77b4;"/>
   </g>
   <g id="patch_96">
    <path clip-path="url(#p1957652d59)" d="M 510.179554 768.96 
L 512.046468 768.96 
L 512.046468 692.825727 
L 510.179554 692.825727 
z
" style="fill:#1f77b4;"/>
   </g>
   <g id="patch_97">
    <path clip-path="url(#p1957652d59)" d="M 513.913383 768.96 
L 515.780297 768.96 
L 515.780297 510.74297 
L 513.913383 510.74297 
z
" style="fill:#1f77b4;"/>
   </g>
   <g id="patch_98">
    <path clip-path="url(#p1957652d59)" d="M 517.647212 768.96 
L 519.514126 768.96 
L 519.514126 370.868375 
L 517.647212 370.868375 
z
" style="fill:#1f77b4;"/>
   </g>
   <g id="patch_99">
    <path clip-path="url(#p1957652d59)" d="M 521.381041 768.96 
L 523.247955 768.96 
L 523.247955 329.597914 
L 521.381041 329.597914 
z
" style="fill:#1f77b4;"/>
   </g>
   <g id="patch_100">
    <path clip-path="url(#p1957652d59)" d="M 525.11487 768.96 
L 526.981784 768.96 
L 526.981784 240.196056 
L 525.11487 240.196056 
z
" style="fill:#1f77b4;"/>
   </g>
   <g id="patch_101">
    <path clip-path="url(#p1957652d59)" d="M 528.848699 768.96 
L 530.715613 768.96 
L 530.715613 135.36 
L 528.848699 135.36 
z
" style="fill:#1f77b4;"/>
   </g>
   <g id="patch_102">
    <path clip-path="url(#p1957652d59)" d="M 532.582528 768.96 
L 534.449442 768.96 
L 534.449442 339.97086 
L 532.582528 339.97086 
z
" style="fill:#1f77b4;"/>
   </g>
   <g id="patch_103">
    <path clip-path="url(#p1957652d59)" d="M 536.316357 768.96 
L 538.183271 768.96 
L 538.183271 564.174413 
L 536.316357 564.174413 
z
" style="fill:#1f77b4;"/>
   </g>
   <g id="patch_104">
    <path clip-path="url(#p1957652d59)" d="M 540.050186 768.96 
L 541.9171 768.96 
L 541.9171 418.149436 
L 540.050186 418.149436 
z
" style="fill:#1f77b4;"/>
   </g>
   <g id="patch_105">
    <path clip-path="url(#p1957652d59)" d="M 543.784015 768.96 
L 545.650929 768.96 
L 545.650929 335.777418 
L 543.784015 335.777418 
z
" style="fill:#1f77b4;"/>
   </g>
   <g id="patch_106">
    <path clip-path="url(#p1957652d59)" d="M 547.517844 768.96 
L 549.384758 768.96 
L 549.384758 396.267822 
L 547.517844 396.267822 
z
" style="fill:#1f77b4;"/>
   </g>
   <g id="patch_107">
    <path clip-path="url(#p1957652d59)" d="M 551.251673 768.96 
L 553.118587 768.96 
L 553.118587 260.703153 
L 551.251673 260.703153 
z
" style="fill:#1f77b4;"/>
   </g>
   <g id="patch_108">
    <path clip-path="url(#p1957652d59)" d="M 554.985502 768.96 
L 556.852416 768.96 
L 556.852416 267.109801 
L 554.985502 267.109801 
z
" style="fill:#1f77b4;"/>
   </g>
   <g id="patch_109">
    <path clip-path="url(#p1957652d59)" d="M 558.719331 768.96 
L 560.586245 768.96 
L 560.586245 415.872164 
L 558.719331 415.872164 
z
" style="fill:#1f77b4;"/>
   </g>
   <g id="patch_110">
    <path clip-path="url(#p1957652d59)" d="M 562.45316 768.96 
L 564.320074 768.96 
L 564.320074 564.76266 
L 562.45316 564.76266 
z
" style="fill:#1f77b4;"/>
   </g>
   <g id="patch_111">
    <path clip-path="url(#p1957652d59)" d="M 566.186989 768.96 
L 568.053903 768.96 
L 568.053903 477.882691 
L 566.186989 477.882691 
z
" style="fill:#1f77b4;"/>
   </g>
   <g id="patch_112">
    <path clip-path="url(#p1957652d59)" d="M 569.920818 768.96 
L 571.787732 768.96 
L 571.787732 297.057968 
L 569.920818 297.057968 
z
" style="fill:#1f77b4;"/>
   </g>
   <g id="patch_113">
    <path clip-path="url(#p1957652d59)" d="M 573.654647 768.96 
L 575.521561 768.96 
L 575.521561 352.294921 
L 573.654647 352.294921 
z
" style="fill:#1f77b4;"/>
   </g>
   <g id="patch_114">
    <path clip-path="url(#p1957652d59)" d="M 577.388476 768.96 
L 579.25539 768.96 
L 579.25539 332.713875 
L 577.388476 332.713875 
z
" style="fill:#1f77b4;"/>
   </g>
   <g id="patch_115">
    <path clip-path="url(#p1957652d59)" d="M 581.122305 768.96 
L 582.989219 768.96 
L 582.989219 364.147219 
L 581.122305 364.147219 
z
" style="fill:#1f77b4;"/>
   </g>
   <g id="patch_116">
    <path clip-path="url(#p1957652d59)" d="M 584.856134 768.96 
L 586.723048 768.96 
L 586.723048 499.484743 
L 584.856134 499.484743 
z
" style="fill:#1f77b4;"/>
   </g>
   <g id="patch_117">
    <path clip-path="url(#p1957652d59)" d="M 588.589963 768.96 
L 590.456877 768.96 
L 590.456877 658.387082 
L 588.589963 658.387082 
z
" style="fill:#1f77b4;"/>
   </g>
   <g id="patch_118">
    <path clip-path="url(#p1957652d59)" d="M 592.323792 768.96 
L 594.190706 768.96 
L 594.190706 517.324345 
L 592.323792 517.324345 
z
" style="fill:#1f77b4;"/>
   </g>
   <g id="patch_119">
    <path clip-path="url(#p1957652d59)" d="M 596.057621 768.96 
L 597.924535 768.96 
L 597.924535 408.00946 
L 596.057621 408.00946 
z
" style="fill:#1f77b4;"/>
   </g>
   <g id="patch_120">
    <path clip-path="url(#p1957652d59)" d="M 599.79145 768.96 
L 601.658364 768.96 
L 601.658364 393.856592 
L 599.79145 393.856592 
z
" style="fill:#1f77b4;"/>
   </g>
   <g id="patch_121">
    <path clip-path="url(#p1957652d59)" d="M 603.525279 768.96 
L 605.392193 768.96 
L 605.392193 406.372853 
L 603.525279 406.372853 
z
" style="fill:#1f77b4;"/>
   </g>
   <g id="patch_122">
    <path clip-path="url(#p1957652d59)" d="M 607.259108 768.96 
L 609.126022 768.96 
L 609.126022 454.818759 
L 607.259108 454.818759 
z
" style="fill:#1f77b4;"/>
   </g>
   <g id="patch_123">
    <path clip-path="url(#p1957652d59)" d="M 610.992937 768.96 
L 612.859851 768.96 
L 612.859851 626.050983 
L 610.992937 626.050983 
z
" style="fill:#1f77b4;"/>
   </g>
   <g id="patch_124">
    <path clip-path="url(#p1957652d59)" d="M 614.726766 768.96 
L 616.59368 768.96 
L 616.59368 723.536867 
L 614.726766 723.536867 
z
" style="fill:#1f77b4;"/>
   </g>
   <g id="patch_125">
    <path clip-path="url(#p1957652d59)" d="M 618.460595 768.96 
L 620.327509 768.96 
L 620.327509 613.313403 
L 618.460595 613.313403 
z
" style="fill:#1f77b4;"/>
   </g>
   <g id="patch_126">
    <path clip-path="url(#p1957652d59)" d="M 622.194424 768.96 
L 624.061338 768.96 
L 624.061338 362.842593 
L 622.194424 362.842593 
z
" style="fill:#1f77b4;"/>
   </g>
   <g id="patch_127">
    <path clip-path="url(#p1957652d59)" d="M 625.928253 768.96 
L 627.795167 768.96 
L 627.795167 371.287719 
L 625.928253 371.287719 
z
" style="fill:#1f77b4;"/>
   </g>
   <g id="patch_128">
    <path clip-path="url(#p1957652d59)" d="M 629.662082 768.96 
L 631.528996 768.96 
L 631.528996 470.957687 
L 629.662082 470.957687 
z
" style="fill:#1f77b4;"/>
   </g>
   <g id="patch_129">
    <path clip-path="url(#p1957652d59)" d="M 633.395911 768.96 
L 635.262825 768.96 
L 635.262825 323.575665 
L 633.395911 323.575665 
z
" style="fill:#1f77b4;"/>
   </g>
   <g id="patch_130">
    <path clip-path="url(#p1957652d59)" d="M 637.12974 768.96 
L 638.996654 768.96 
L 638.996654 467.451504 
L 637.12974 467.451504 
z
" style="fill:#1f77b4;"/>
   </g>
   <g id="patch_131">
    <path clip-path="url(#p1957652d59)" d="M 640.863569 768.96 
L 642.730483 768.96 
L 642.730483 500.533103 
L 640.863569 500.533103 
z
" style="fill:#1f77b4;"/>
   </g>
   <g id="patch_132">
    <path clip-path="url(#p1957652d59)" d="M 644.597398 768.96 
L 646.464312 768.96 
L 646.464312 535.950218 
L 644.597398 535.950218 
z
" style="fill:#1f77b4;"/>
   </g>
   <g id="patch_133">
    <path clip-path="url(#p1957652d59)" d="M 648.331227 768.96 
L 650.198141 768.96 
L 650.198141 460.514851 
L 648.331227 460.514851 
z
" style="fill:#1f77b4;"/>
   </g>
   <g id="patch_134">
    <path clip-path="url(#p1957652d59)" d="M 652.065056 768.96 
L 653.93197 768.96 
L 653.93197 489.799056 
L 652.065056 489.799056 
z
" style="fill:#1f77b4;"/>
   </g>
   <g id="patch_135">
    <path clip-path="url(#p1957652d59)" d="M 655.798885 768.96 
L 657.665799 768.96 
L 657.665799 477.96423 
L 655.798885 477.96423 
z
" style="fill:#1f77b4;"/>
   </g>
   <g id="patch_136">
    <path clip-path="url(#p1957652d59)" d="M 659.532714 768.96 
L 661.399628 768.96 
L 661.399628 347.658837 
L 659.532714 347.658837 
z
" style="fill:#1f77b4;"/>
   </g>
   <g id="patch_137">
    <path clip-path="url(#p1957652d59)" d="M 663.266543 768.96 
L 665.133457 768.96 
L 665.133457 534.849439 
L 663.266543 534.849439 
z
" style="fill:#1f77b4;"/>
   </g>
   <g id="patch_138">
    <path clip-path="url(#p1957652d59)" d="M 667.000372 768.96 
L 668.867286 768.96 
L 668.867286 675.184148 
L 667.000372 675.184148 
z
" style="fill:#1f77b4;"/>
   </g>
   <g id="patch_139">
    <path clip-path="url(#p1957652d59)" d="M 670.734201 768.96 
L 672.601115 768.96 
L 672.601115 604.658604 
L 670.734201 604.658604 
z
" style="fill:#1f77b4;"/>
   </g>
   <g id="patch_140">
    <path clip-path="url(#p1957652d59)" d="M 674.46803 768.96 
L 676.334944 768.96 
L 676.334944 466.327428 
L 674.46803 466.327428 
z
" style="fill:#1f77b4;"/>
   </g>
   <g id="patch_141">
    <path clip-path="url(#p1957652d59)" d="M 678.201859 768.96 
L 680.068773 768.96 
L 680.068773 498.698472 
L 678.201859 498.698472 
z
" style="fill:#1f77b4;"/>
   </g>
   <g id="patch_142">
    <path clip-path="url(#p1957652d59)" d="M 681.935688 768.96 
L 683.802602 768.96 
L 683.802602 383.122545 
L 681.935688 383.122545 
z
" style="fill:#1f77b4;"/>
   </g>
   <g id="patch_143">
    <path clip-path="url(#p1957652d59)" d="M 685.669517 768.96 
L 687.536431 768.96 
L 687.536431 519.304582 
L 685.669517 519.304582 
z
" style="fill:#1f77b4;"/>
   </g>
   <g id="patch_144">
    <path clip-path="url(#p1957652d59)" d="M 689.403346 768.96 
L 691.27026 768.96 
L 691.27026 569.066763 
L 689.403346 569.066763 
z
" style="fill:#1f77b4;"/>
   </g>
   <g id="patch_145">
    <path clip-path="url(#p1957652d59)" d="M 693.137175 768.96 
L 695.004089 768.96 
L 695.004089 677.269221 
L 693.137175 677.269221 
z
" style="fill:#1f77b4;"/>
   </g>
   <g id="patch_146">
    <path clip-path="url(#p1957652d59)" d="M 696.871004 768.96 
L 698.737918 768.96 
L 698.737918 616.97684 
L 696.871004 616.97684 
z
" style="fill:#1f77b4;"/>
   </g>
   <g id="patch_147">
    <path clip-path="url(#p1957652d59)" d="M 700.604833 768.96 
L 702.471747 768.96 
L 702.471747 584.384475 
L 700.604833 584.384475 
z
" style="fill:#1f77b4;"/>
   </g>
   <g id="patch_148">
    <path clip-path="url(#p1957652d59)" d="M 704.338662 768.96 
L 706.205576 768.96 
L 706.205576 583.586556 
L 704.338662 583.586556 
z
" style="fill:#1f77b4;"/>
   </g>
   <g id="patch_149">
    <path clip-path="url(#p1957652d59)" d="M 708.072491 768.96 
L 709.939405 768.96 
L 709.939405 573.627131 
L 708.072491 573.627131 
z
" style="fill:#1f77b4;"/>
   </g>
   <g id="patch_150">
    <path clip-path="url(#p1957652d59)" d="M 711.80632 768.96 
L 713.673234 768.96 
L 713.673234 586.399657 
L 711.80632 586.399657 
z
" style="fill:#1f77b4;"/>
   </g>
   <g id="patch_151">
    <path clip-path="url(#p1957652d59)" d="M 715.540149 768.96 
L 717.407063 768.96 
L 717.407063 644.094433 
L 715.540149 644.094433 
z
" style="fill:#1f77b4;"/>
   </g>
   <g id="patch_152">
    <path clip-path="url(#p1957652d59)" d="M 719.273978 768.96 
L 721.140892 768.96 
L 721.140892 698.923691 
L 719.273978 698.923691 
z
" style="fill:#1f77b4;"/>
   </g>
   <g id="patch_153">
    <path clip-path="url(#p1957652d59)" d="M 723.007807 768.96 
L 724.874721 768.96 
L 724.874721 718.067919 
L 723.007807 718.067919 
z
" style="fill:#1f77b4;"/>
   </g>
   <g id="patch_154">
    <path clip-path="url(#p1957652d59)" d="M 726.741636 768.96 
L 728.60855 768.96 
L 728.60855 658.986977 
L 726.741636 658.986977 
z
" style="fill:#1f77b4;"/>
   </g>
   <g id="patch_155">
    <path clip-path="url(#p1957652d59)" d="M 730.475465 768.96 
L 732.342379 768.96 
L 732.342379 652.673517 
L 730.475465 652.673517 
z
" style="fill:#1f77b4;"/>
   </g>
   <g id="patch_156">
    <path clip-path="url(#p1957652d59)" d="M 734.209294 768.96 
L 736.076208 768.96 
L 736.076208 580.755983 
L 734.209294 580.755983 
z
" style="fill:#1f77b4;"/>
   </g>
   <g id="patch_157">
    <path clip-path="url(#p1957652d59)" d="M 737.943123 768.96 
L 739.810037 768.96 
L 739.810037 556.247643 
L 737.943123 556.247643 
z
" style="fill:#1f77b4;"/>
   </g>
   <g id="patch_158">
    <path clip-path="url(#p1957652d59)" d="M 741.676952 768.96 
L 743.543866 768.96 
L 743.543866 580.0629 
L 741.676952 580.0629 
z
" style="fill:#1f77b4;"/>
   </g>
   <g id="patch_159">
    <path clip-path="url(#p1957652d59)" d="M 745.410781 768.96 
L 747.277695 768.96 
L 747.277695 634.367977 
L 745.410781 634.367977 
z
" style="fill:#1f77b4;"/>
   </g>
   <g id="patch_160">
    <path clip-path="url(#p1957652d59)" d="M 749.14461 768.96 
L 751.011524 768.96 
L 751.011524 581.996543 
L 749.14461 581.996543 
z
" style="fill:#1f77b4;"/>
   </g>
   <g id="patch_161">
    <path clip-path="url(#p1957652d59)" d="M 752.878439 768.96 
L 754.745353 768.96 
L 754.745353 567.826203 
L 752.878439 567.826203 
z
" style="fill:#1f77b4;"/>
   </g>
   <g id="patch_162">
    <path clip-path="url(#p1957652d59)" d="M 756.612268 768.96 
L 758.479182 768.96 
L 758.479182 534.785373 
L 756.612268 534.785373 
z
" style="fill:#1f77b4;"/>
   </g>
   <g id="patch_163">
    <path clip-path="url(#p1957652d59)" d="M 760.346097 768.96 
L 762.213011 768.96 
L 762.213011 606.796094 
L 760.346097 606.796094 
z
" style="fill:#1f77b4;"/>
   </g>
   <g id="patch_164">
    <path clip-path="url(#p1957652d59)" d="M 764.079926 768.96 
L 765.94684 768.96 
L 765.94684 615.287815 
L 764.079926 615.287815 
z
" style="fill:#1f77b4;"/>
   </g>
   <g id="patch_165">
    <path clip-path="url(#p1957652d59)" d="M 767.813755 768.96 
L 769.680669 768.96 
L 769.680669 676.715919 
L 767.813755 676.715919 
z
" style="fill:#1f77b4;"/>
   </g>
   <g id="patch_166">
    <path clip-path="url(#p1957652d59)" d="M 771.547584 768.96 
L 773.414498 768.96 
L 773.414498 675.626789 
L 771.547584 675.626789 
z
" style="fill:#1f77b4;"/>
   </g>
   <g id="patch_167">
    <path clip-path="url(#p1957652d59)" d="M 775.281413 768.96 
L 777.148327 768.96 
L 777.148327 484.586374 
L 775.281413 484.586374 
z
" style="fill:#1f77b4;"/>
   </g>
   <g id="patch_168">
    <path clip-path="url(#p1957652d59)" d="M 779.015242 768.96 
L 780.882156 768.96 
L 780.882156 557.99491 
L 779.015242 557.99491 
z
" style="fill:#1f77b4;"/>
   </g>
   <g id="patch_169">
    <path clip-path="url(#p1957652d59)" d="M 782.749071 768.96 
L 784.615985 768.96 
L 784.615985 624.315364 
L 782.749071 624.315364 
z
" style="fill:#1f77b4;"/>
   </g>
   <g id="patch_170">
    <path clip-path="url(#p1957652d59)" d="M 786.4829 768.96 
L 788.349814 768.96 
L 788.349814 579.212563 
L 786.4829 579.212563 
z
" style="fill:#1f77b4;"/>
   </g>
   <g id="patch_171">
    <path clip-path="url(#p1957652d59)" d="M 790.216729 768.96 
L 792.083643 768.96 
L 792.083643 677.304166 
L 790.216729 677.304166 
z
" style="fill:#1f77b4;"/>
   </g>
   <g id="patch_172">
    <path clip-path="url(#p1957652d59)" d="M 793.950558 768.96 
L 795.817472 768.96 
L 795.817472 627.297368 
L 793.950558 627.297368 
z
" style="fill:#1f77b4;"/>
   </g>
   <g id="patch_173">
    <path clip-path="url(#p1957652d59)" d="M 797.684387 768.96 
L 799.551301 768.96 
L 799.551301 708.376408 
L 797.684387 708.376408 
z
" style="fill:#1f77b4;"/>
   </g>
   <g id="patch_174">
    <path clip-path="url(#p1957652d59)" d="M 801.418216 768.96 
L 803.28513 768.96 
L 803.28513 695.003987 
L 801.418216 695.003987 
z
" style="fill:#1f77b4;"/>
   </g>
   <g id="patch_175">
    <path clip-path="url(#p1957652d59)" d="M 805.152045 768.96 
L 807.018959 768.96 
L 807.018959 678.311757 
L 805.152045 678.311757 
z
" style="fill:#1f77b4;"/>
   </g>
   <g id="patch_176">
    <path clip-path="url(#p1957652d59)" d="M 808.885874 768.96 
L 810.752788 768.96 
L 810.752788 659.056868 
L 808.885874 659.056868 
z
" style="fill:#1f77b4;"/>
   </g>
   <g id="patch_177">
    <path clip-path="url(#p1957652d59)" d="M 812.619703 768.96 
L 814.486617 768.96 
L 814.486617 635.73667 
L 812.619703 635.73667 
z
" style="fill:#1f77b4;"/>
   </g>
   <g id="patch_178">
    <path clip-path="url(#p1957652d59)" d="M 816.353532 768.96 
L 818.220446 768.96 
L 818.220446 472.827264 
L 816.353532 472.827264 
z
" style="fill:#1f77b4;"/>
   </g>
   <g id="patch_179">
    <path clip-path="url(#p1957652d59)" d="M 820.087361 768.96 
L 821.954275 768.96 
L 821.954275 427.29347 
L 820.087361 427.29347 
z
" style="fill:#1f77b4;"/>
   </g>
   <g id="patch_180">
    <path clip-path="url(#p1957652d59)" d="M 823.82119 768.96 
L 825.688104 768.96 
L 825.688104 738.376993 
L 823.82119 738.376993 
z
" style="fill:#1f77b4;"/>
   </g>
   <g id="patch_181">
    <path clip-path="url(#p1957652d59)" d="M 827.555019 768.96 
L 829.421933 768.96 
L 829.421933 692.680121 
L 827.555019 692.680121 
z
" style="fill:#1f77b4;"/>
   </g>
   <g id="patch_182">
    <path clip-path="url(#p1957652d59)" d="M 831.288848 768.96 
L 833.155762 768.96 
L 833.155762 674.863816 
L 831.288848 674.863816 
z
" style="fill:#1f77b4;"/>
   </g>
   <g id="patch_183">
    <path clip-path="url(#p1957652d59)" d="M 835.022677 768.96 
L 836.889591 768.96 
L 836.889591 678.527253 
L 835.022677 678.527253 
z
" style="fill:#1f77b4;"/>
   </g>
   <g id="patch_184">
    <path clip-path="url(#p1957652d59)" d="M 838.756506 768.96 
L 840.62342 768.96 
L 840.62342 687.601396 
L 838.756506 687.601396 
z
" style="fill:#1f77b4;"/>
   </g>
   <g id="patch_185">
    <path clip-path="url(#p1957652d59)" d="M 842.490335 768.96 
L 844.357249 768.96 
L 844.357249 687.572275 
L 842.490335 687.572275 
z
" style="fill:#1f77b4;"/>
   </g>
   <g id="patch_186">
    <path clip-path="url(#p1957652d59)" d="M 846.224164 768.96 
L 848.091078 768.96 
L 848.091078 708.388057 
L 846.224164 708.388057 
z
" style="fill:#1f77b4;"/>
   </g>
   <g id="patch_187">
    <path clip-path="url(#p1957652d59)" d="M 849.957993 768.96 
L 851.824907 768.96 
L 851.824907 739.90294 
L 849.957993 739.90294 
z
" style="fill:#1f77b4;"/>
   </g>
   <g id="patch_188">
    <path clip-path="url(#p1957652d59)" d="M 853.691822 768.96 
L 855.558736 768.96 
L 855.558736 763.962815 
L 853.691822 763.962815 
z
" style="fill:#1f77b4;"/>
   </g>
   <g id="patch_189">
    <path clip-path="url(#p1957652d59)" d="M 857.425651 768.96 
L 859.292565 768.96 
L 859.292565 721.591575 
L 857.425651 721.591575 
z
" style="fill:#1f77b4;"/>
   </g>
   <g id="patch_190">
    <path clip-path="url(#p1957652d59)" d="M 861.15948 768.96 
L 863.026394 768.96 
L 863.026394 685.522148 
L 861.15948 685.522148 
z
" style="fill:#1f77b4;"/>
   </g>
   <g id="patch_191">
    <path clip-path="url(#p1957652d59)" d="M 864.893309 768.96 
L 866.760223 768.96 
L 866.760223 685.306652 
L 864.893309 685.306652 
z
" style="fill:#1f77b4;"/>
   </g>
   <g id="patch_192">
    <path clip-path="url(#p1957652d59)" d="M 868.627138 768.96 
L 870.494052 768.96 
L 870.494052 695.458276 
L 868.627138 695.458276 
z
" style="fill:#1f77b4;"/>
   </g>
   <g id="patch_193">
    <path clip-path="url(#p1957652d59)" d="M 872.360967 768.96 
L 874.227881 768.96 
L 874.227881 707.147497 
L 872.360967 707.147497 
z
" style="fill:#1f77b4;"/>
   </g>
   <g id="patch_194">
    <path clip-path="url(#p1957652d59)" d="M 876.094796 768.96 
L 877.96171 768.96 
L 877.96171 726.850851 
L 876.094796 726.850851 
z
" style="fill:#1f77b4;"/>
   </g>
   <g id="patch_195">
    <path clip-path="url(#p1957652d59)" d="M 879.828625 768.96 
L 881.695539 768.96 
L 881.695539 690.053395 
L 879.828625 690.053395 
z
" style="fill:#1f77b4;"/>
   </g>
   <g id="patch_196">
    <path clip-path="url(#p1957652d59)" d="M 883.562454 768.96 
L 885.429368 768.96 
L 885.429368 703.571422 
L 883.562454 703.571422 
z
" style="fill:#1f77b4;"/>
   </g>
   <g id="patch_197">
    <path clip-path="url(#p1957652d59)" d="M 887.296283 768.96 
L 889.163197 768.96 
L 889.163197 706.687383 
L 887.296283 706.687383 
z
" style="fill:#1f77b4;"/>
   </g>
   <g id="patch_198">
    <path clip-path="url(#p1957652d59)" d="M 891.030112 768.96 
L 892.897026 768.96 
L 892.897026 707.077606 
L 891.030112 707.077606 
z
" style="fill:#1f77b4;"/>
   </g>
   <g id="patch_199">
    <path clip-path="url(#p1957652d59)" d="M 894.763941 768.96 
L 896.630855 768.96 
L 896.630855 706.570898 
L 894.763941 706.570898 
z
" style="fill:#1f77b4;"/>
   </g>
   <g id="patch_200">
    <path clip-path="url(#p1957652d59)" d="M 898.49777 768.96 
L 900.364684 768.96 
L 900.364684 716.932195 
L 898.49777 716.932195 
z
" style="fill:#1f77b4;"/>
   </g>
   <g id="patch_201">
    <path clip-path="url(#p1957652d59)" d="M 902.231599 768.96 
L 904.098513 768.96 
L 904.098513 733.630249 
L 902.231599 733.630249 
z
" style="fill:#1f77b4;"/>
   </g>
   <g id="patch_202">
    <path clip-path="url(#p1957652d59)" d="M 905.965428 768.96 
L 907.832342 768.96 
L 907.832342 716.244937 
L 905.965428 716.244937 
z
" style="fill:#1f77b4;"/>
   </g>
   <g id="patch_203">
    <path clip-path="url(#p1957652d59)" d="M 909.699257 768.96 
L 911.566171 768.96 
L 911.566171 698.521819 
L 909.699257 698.521819 
z
" style="fill:#1f77b4;"/>
   </g>
   <g id="patch_204">
    <path clip-path="url(#p1957652d59)" d="M 913.433086 768.96 
L 915.3 768.96 
L 915.3 703.315156 
L 913.433086 703.315156 
z
" style="fill:#1f77b4;"/>
   </g>
   <g id="patch_205">
    <path clip-path="url(#p1957652d59)" d="M 917.166914 768.96 
L 919.033829 768.96 
L 919.033829 721.125637 
L 917.166914 721.125637 
z
" style="fill:#1f77b4;"/>
   </g>
   <g id="patch_206">
    <path clip-path="url(#p1957652d59)" d="M 920.900743 768.96 
L 922.767658 768.96 
L 922.767658 720.16464 
L 920.900743 720.16464 
z
" style="fill:#1f77b4;"/>
   </g>
   <g id="patch_207">
    <path clip-path="url(#p1957652d59)" d="M 924.634572 768.96 
L 926.501487 768.96 
L 926.501487 738.726446 
L 924.634572 738.726446 
z
" style="fill:#1f77b4;"/>
   </g>
   <g id="patch_208">
    <path clip-path="url(#p1957652d59)" d="M 928.368401 768.96 
L 930.235316 768.96 
L 930.235316 751.429082 
L 928.368401 751.429082 
z
" style="fill:#1f77b4;"/>
   </g>
   <g id="patch_209">
    <path clip-path="url(#p1957652d59)" d="M 932.10223 768.96 
L 933.969145 768.96 
L 933.969145 739.536014 
L 932.10223 739.536014 
z
" style="fill:#1f77b4;"/>
   </g>
   <g id="patch_210">
    <path clip-path="url(#p1957652d59)" d="M 935.836059 768.96 
L 937.702974 768.96 
L 937.702974 702.191081 
L 935.836059 702.191081 
z
" style="fill:#1f77b4;"/>
   </g>
   <g id="patch_211">
    <path clip-path="url(#p1957652d59)" d="M 939.569888 768.96 
L 941.436803 768.96 
L 941.436803 656.97762 
L 939.569888 656.97762 
z
" style="fill:#1f77b4;"/>
   </g>
   <g id="patch_212">
    <path clip-path="url(#p1957652d59)" d="M 943.303717 768.96 
L 945.170632 768.96 
L 945.170632 710.624559 
L 943.303717 710.624559 
z
" style="fill:#1f77b4;"/>
   </g>
   <g id="patch_213">
    <path clip-path="url(#p1957652d59)" d="M 947.037546 768.96 
L 948.904461 768.96 
L 948.904461 642.422881 
L 947.037546 642.422881 
z
" style="fill:#1f77b4;"/>
   </g>
   <g id="patch_214">
    <path clip-path="url(#p1957652d59)" d="M 950.771375 768.96 
L 952.63829 768.96 
L 952.63829 723.018511 
L 950.771375 723.018511 
z
" style="fill:#1f77b4;"/>
   </g>
   <g id="patch_215">
    <path clip-path="url(#p1957652d59)" d="M 954.505204 768.96 
L 956.372119 768.96 
L 956.372119 734.643664 
L 954.505204 734.643664 
z
" style="fill:#1f77b4;"/>
   </g>
   <g id="patch_216">
    <path clip-path="url(#p1957652d59)" d="M 958.239033 768.96 
L 960.105948 768.96 
L 960.105948 722.133228 
L 958.239033 722.133228 
z
" style="fill:#1f77b4;"/>
   </g>
   <g id="patch_217">
    <path clip-path="url(#p1957652d59)" d="M 961.972862 768.96 
L 963.839777 768.96 
L 963.839777 705.557483 
L 961.972862 705.557483 
z
" style="fill:#1f77b4;"/>
   </g>
   <g id="patch_218">
    <path clip-path="url(#p1957652d59)" d="M 965.706691 768.96 
L 967.573606 768.96 
L 967.573606 710.455657 
L 965.706691 710.455657 
z
" style="fill:#1f77b4;"/>
   </g>
   <g id="patch_219">
    <path clip-path="url(#p1957652d59)" d="M 969.44052 768.96 
L 971.307435 768.96 
L 971.307435 708.679268 
L 969.44052 708.679268 
z
" style="fill:#1f77b4;"/>
   </g>
   <g id="patch_220">
    <path clip-path="url(#p1957652d59)" d="M 973.174349 768.96 
L 975.041264 768.96 
L 975.041264 704.852752 
L 973.174349 704.852752 
z
" style="fill:#1f77b4;"/>
   </g>
   <g id="patch_221">
    <path clip-path="url(#p1957652d59)" d="M 976.908178 768.96 
L 978.775093 768.96 
L 978.775093 666.564295 
L 976.908178 666.564295 
z
" style="fill:#1f77b4;"/>
   </g>
   <g id="patch_222">
    <path clip-path="url(#p1957652d59)" d="M 980.642007 768.96 
L 982.508922 768.96 
L 982.508922 729.26208 
L 980.642007 729.26208 
z
" style="fill:#1f77b4;"/>
   </g>
   <g id="patch_223">
    <path clip-path="url(#p1957652d59)" d="M 984.375836 768.96 
L 986.242751 768.96 
L 986.242751 723.589285 
L 984.375836 723.589285 
z
" style="fill:#1f77b4;"/>
   </g>
   <g id="patch_224">
    <path clip-path="url(#p1957652d59)" d="M 988.109665 768.96 
L 989.97658 768.96 
L 989.97658 725.785018 
L 988.109665 725.785018 
z
" style="fill:#1f77b4;"/>
   </g>
   <g id="patch_225">
    <path clip-path="url(#p1957652d59)" d="M 991.843494 768.96 
L 993.710409 768.96 
L 993.710409 613.983188 
L 991.843494 613.983188 
z
" style="fill:#1f77b4;"/>
   </g>
   <g id="patch_226">
    <path clip-path="url(#p1957652d59)" d="M 995.577323 768.96 
L 997.444238 768.96 
L 997.444238 632.335322 
L 995.577323 632.335322 
z
" style="fill:#1f77b4;"/>
   </g>
   <g id="patch_227">
    <path clip-path="url(#p1957652d59)" d="M 999.311152 768.96 
L 1001.178067 768.96 
L 1001.178067 645.503896 
L 999.311152 645.503896 
z
" style="fill:#1f77b4;"/>
   </g>
   <g id="patch_228">
    <path clip-path="url(#p1957652d59)" d="M 1003.044981 768.96 
L 1004.911896 768.96 
L 1004.911896 608.153139 
L 1003.044981 608.153139 
z
" style="fill:#1f77b4;"/>
   </g>
   <g id="patch_229">
    <path clip-path="url(#p1957652d59)" d="M 1006.77881 768.96 
L 1008.645725 768.96 
L 1008.645725 658.78313 
L 1006.77881 658.78313 
z
" style="fill:#1f77b4;"/>
   </g>
   <g id="patch_230">
    <path clip-path="url(#p1957652d59)" d="M 1010.512639 768.96 
L 1012.379554 768.96 
L 1012.379554 715.097564 
L 1010.512639 715.097564 
z
" style="fill:#1f77b4;"/>
   </g>
   <g id="patch_231">
    <path clip-path="url(#p1957652d59)" d="M 1014.246468 768.96 
L 1016.113383 768.96 
L 1016.113383 692.633527 
L 1014.246468 692.633527 
z
" style="fill:#1f77b4;"/>
   </g>
   <g id="patch_232">
    <path clip-path="url(#p1957652d59)" d="M 1017.980297 768.96 
L 1019.847212 768.96 
L 1019.847212 697.263786 
L 1017.980297 697.263786 
z
" style="fill:#1f77b4;"/>
   </g>
   <g id="patch_233">
    <path clip-path="url(#p1957652d59)" d="M 1021.714126 768.96 
L 1023.581041 768.96 
L 1023.581041 700.7292 
L 1021.714126 700.7292 
z
" style="fill:#1f77b4;"/>
   </g>
   <g id="patch_234">
    <path clip-path="url(#p1957652d59)" d="M 1025.447955 768.96 
L 1027.31487 768.96 
L 1027.31487 702.849218 
L 1025.447955 702.849218 
z
" style="fill:#1f77b4;"/>
   </g>
   <g id="patch_235">
    <path clip-path="url(#p1957652d59)" d="M 1029.181784 768.96 
L 1031.048699 768.96 
L 1031.048699 701.608658 
L 1029.181784 701.608658 
z
" style="fill:#1f77b4;"/>
   </g>
   <g id="patch_236">
    <path clip-path="url(#p1957652d59)" d="M 1032.915613 768.96 
L 1034.782528 768.96 
L 1034.782528 724.200828 
L 1032.915613 724.200828 
z
" style="fill:#1f77b4;"/>
   </g>
   <g id="patch_237">
    <path clip-path="url(#p1957652d59)" d="M 1036.649442 768.96 
L 1038.516357 768.96 
L 1038.516357 714.060852 
L 1036.649442 714.060852 
z
" style="fill:#1f77b4;"/>
   </g>
   <g id="patch_238">
    <path clip-path="url(#p1957652d59)" d="M 1040.383271 768.96 
L 1042.250186 768.96 
L 1042.250186 693.122762 
L 1040.383271 693.122762 
z
" style="fill:#1f77b4;"/>
   </g>
   <g id="patch_239">
    <path clip-path="url(#p1957652d59)" d="M 1044.1171 768.96 
L 1045.984015 768.96 
L 1045.984015 696.489164 
L 1044.1171 696.489164 
z
" style="fill:#1f77b4;"/>
   </g>
   <g id="patch_240">
    <path clip-path="url(#p1957652d59)" d="M 1047.850929 768.96 
L 1049.717844 768.96 
L 1049.717844 692.103523 
L 1047.850929 692.103523 
z
" style="fill:#1f77b4;"/>
   </g>
   <g id="patch_241">
    <path clip-path="url(#p1957652d59)" d="M 1051.584758 768.96 
L 1053.451673 768.96 
L 1053.451673 682.266406 
L 1051.584758 682.266406 
z
" style="fill:#1f77b4;"/>
   </g>
   <g id="patch_242">
    <path clip-path="url(#p1957652d59)" d="M 1055.318587 768.96 
L 1057.185502 768.96 
L 1057.185502 643.826519 
L 1055.318587 643.826519 
z
" style="fill:#1f77b4;"/>
   </g>
   <g id="patch_243">
    <path clip-path="url(#p1957652d59)" d="M 1059.052416 768.96 
L 1060.919331 768.96 
L 1060.919331 565.123762 
L 1059.052416 565.123762 
z
" style="fill:#1f77b4;"/>
   </g>
   <g id="patch_244">
    <path clip-path="url(#p1957652d59)" d="M 1062.786245 768.96 
L 1064.65316 768.96 
L 1064.65316 674.106666 
L 1062.786245 674.106666 
z
" style="fill:#1f77b4;"/>
   </g>
   <g id="patch_245">
    <path clip-path="url(#p1957652d59)" d="M 1066.520074 768.96 
L 1068.386989 768.96 
L 1068.386989 693.815845 
L 1066.520074 693.815845 
z
" style="fill:#1f77b4;"/>
   </g>
   <g id="patch_246">
    <path clip-path="url(#p1957652d59)" d="M 1070.253903 768.96 
L 1072.120818 768.96 
L 1072.120818 698.801382 
L 1070.253903 698.801382 
z
" style="fill:#1f77b4;"/>
   </g>
   <g id="patch_247">
    <path clip-path="url(#p1957652d59)" d="M 1073.987732 768.96 
L 1075.854647 768.96 
L 1075.854647 704.456705 
L 1073.987732 704.456705 
z
" style="fill:#1f77b4;"/>
   </g>
   <g id="patch_248">
    <path clip-path="url(#p1957652d59)" d="M 1077.721561 768.96 
L 1079.588476 768.96 
L 1079.588476 703.77527 
L 1077.721561 703.77527 
z
" style="fill:#1f77b4;"/>
   </g>
   <g id="patch_249">
    <path clip-path="url(#p1957652d59)" d="M 1081.45539 768.96 
L 1083.322305 768.96 
L 1083.322305 708.091021 
L 1081.45539 708.091021 
z
" style="fill:#1f77b4;"/>
   </g>
   <g id="patch_250">
    <path clip-path="url(#p1957652d59)" d="M 1085.189219 768.96 
L 1087.056134 768.96 
L 1087.056134 727.287668 
L 1085.189219 727.287668 
z
" style="fill:#1f77b4;"/>
   </g>
   <g id="patch_251">
    <path clip-path="url(#p1957652d59)" d="M 1088.923048 768.96 
L 1090.789963 768.96 
L 1090.789963 739.745686 
L 1088.923048 739.745686 
z
" style="fill:#1f77b4;"/>
   </g>
   <g id="patch_252">
    <path clip-path="url(#p1957652d59)" d="M 1092.656877 768.96 
L 1094.523792 768.96 
L 1094.523792 732.867276 
L 1092.656877 732.867276 
z
" style="fill:#1f77b4;"/>
   </g>
   <g id="patch_253">
    <path clip-path="url(#p1957652d59)" d="M 1096.390706 768.96 
L 1098.257621 768.96 
L 1098.257621 695.865972 
L 1096.390706 695.865972 
z
" style="fill:#1f77b4;"/>
   </g>
   <g id="patch_254">
    <path clip-path="url(#p1957652d59)" d="M 1100.124535 768.96 
L 1101.99145 768.96 
L 1101.99145 704.683849 
L 1100.124535 704.683849 
z
" style="fill:#1f77b4;"/>
   </g>
   <g id="patch_255">
    <path clip-path="url(#p1957652d59)" d="M 1103.858364 768.96 
L 1105.725279 768.96 
L 1105.725279 707.95124 
L 1103.858364 707.95124 
z
" style="fill:#1f77b4;"/>
   </g>
   <g id="patch_256">
    <path clip-path="url(#p1957652d59)" d="M 1107.592193 768.96 
L 1109.459108 768.96 
L 1109.459108 713.233812 
L 1107.592193 713.233812 
z
" style="fill:#1f77b4;"/>
   </g>
   <g id="patch_257">
    <path clip-path="url(#p1957652d59)" d="M 1111.326022 768.96 
L 1113.192937 768.96 
L 1113.192937 727.730309 
L 1111.326022 727.730309 
z
" style="fill:#1f77b4;"/>
   </g>
   <g id="patch_258">
    <path clip-path="url(#p1957652d59)" d="M 1115.059851 768.96 
L 1116.926766 768.96 
L 1116.926766 722.412791 
L 1115.059851 722.412791 
z
" style="fill:#1f77b4;"/>
   </g>
   <g id="patch_259">
    <path clip-path="url(#p1957652d59)" d="M 1118.79368 768.96 
L 1120.660595 768.96 
L 1120.660595 706.355402 
L 1118.79368 706.355402 
z
" style="fill:#1f77b4;"/>
   </g>
   <g id="patch_260">
    <path clip-path="url(#p1957652d59)" d="M 1122.527509 768.96 
L 1124.394424 768.96 
L 1124.394424 709.634441 
L 1122.527509 709.634441 
z
" style="fill:#1f77b4;"/>
   </g>
   <g id="patch_261">
    <path clip-path="url(#p1957652d59)" d="M 1126.261338 768.96 
L 1128.128253 768.96 
L 1128.128253 709.110261 
L 1126.261338 709.110261 
z
" style="fill:#1f77b4;"/>
   </g>
   <g id="patch_262">
    <path clip-path="url(#p1957652d59)" d="M 1129.995167 768.96 
L 1131.862082 768.96 
L 1131.862082 706.984418 
L 1129.995167 706.984418 
z
" style="fill:#1f77b4;"/>
   </g>
   <g id="patch_263">
    <path clip-path="url(#p1957652d59)" d="M 1133.728996 768.96 
L 1135.595911 768.96 
L 1135.595911 707.543544 
L 1133.728996 707.543544 
z
" style="fill:#1f77b4;"/>
   </g>
   <g id="patch_264">
    <path clip-path="url(#p1957652d59)" d="M 1137.462825 768.96 
L 1139.32974 768.96 
L 1139.32974 724.923032 
L 1137.462825 724.923032 
z
" style="fill:#1f77b4;"/>
   </g>
   <g id="patch_265">
    <path clip-path="url(#p1957652d59)" d="M 1141.196654 768.96 
L 1143.063569 768.96 
L 1143.063569 727.677891 
L 1141.196654 727.677891 
z
" style="fill:#1f77b4;"/>
   </g>
   <g id="patch_266">
    <path clip-path="url(#p1957652d59)" d="M 1144.930483 768.96 
L 1146.797398 768.96 
L 1146.797398 698.789733 
L 1144.930483 698.789733 
z
" style="fill:#1f77b4;"/>
   </g>
   <g id="patch_267">
    <path clip-path="url(#p1957652d59)" d="M 1148.664312 768.96 
L 1150.531227 768.96 
L 1150.531227 718.201876 
L 1148.664312 718.201876 
z
" style="fill:#1f77b4;"/>
   </g>
   <g id="patch_268">
    <path clip-path="url(#p1957652d59)" d="M 1152.398141 768.96 
L 1154.265056 768.96 
L 1154.265056 695.39421 
L 1152.398141 695.39421 
z
" style="fill:#1f77b4;"/>
   </g>
   <g id="patch_269">
    <path clip-path="url(#p1957652d59)" d="M 1156.13197 768.96 
L 1157.998885 768.96 
L 1157.998885 698.341268 
L 1156.13197 698.341268 
z
" style="fill:#1f77b4;"/>
   </g>
   <g id="patch_270">
    <path clip-path="url(#p1957652d59)" d="M 1159.865799 768.96 
L 1161.732714 768.96 
L 1161.732714 712.633917 
L 1159.865799 712.633917 
z
" style="fill:#1f77b4;"/>
   </g>
   <g id="patch_271">
    <path clip-path="url(#p1957652d59)" d="M 1163.599628 768.96 
L 1165.466543 768.96 
L 1165.466543 732.04606 
L 1163.599628 732.04606 
z
" style="fill:#1f77b4;"/>
   </g>
   <g id="matplotlib.axis_1">
    <g id="xtick_1">
     <g id="line2d_1">
      <defs>
       <path d="M 0 0 
L 0 3.5 
" id="md2073c54c1" style="stroke:#000000;stroke-width:0.8;"/>
      </defs>
      <g>
       <use style="stroke:#000000;stroke-width:0.8;" x="163.866914" xlink:href="#md2073c54c1" y="768.96"/>
      </g>
     </g>
     <g id="text_1">
      <!-- January -->
      <g transform="translate(144.911446 783.558437)scale(0.1 -0.1)">
       <defs>
        <path d="M 628 4666 
L 1259 4666 
L 1259 325 
Q 1259 -519 939 -900 
Q 619 -1281 -91 -1281 
L -331 -1281 
L -331 -750 
L -134 -750 
Q 284 -750 456 -515 
Q 628 -281 628 325 
L 628 4666 
z
" id="DejaVuSans-4a" transform="scale(0.015625)"/>
        <path d="M 2194 1759 
Q 1497 1759 1228 1600 
Q 959 1441 959 1056 
Q 959 750 1161 570 
Q 1363 391 1709 391 
Q 2188 391 2477 730 
Q 2766 1069 2766 1631 
L 2766 1759 
L 2194 1759 
z
M 3341 1997 
L 3341 0 
L 2766 0 
L 2766 531 
Q 2569 213 2275 61 
Q 1981 -91 1556 -91 
Q 1019 -91 701 211 
Q 384 513 384 1019 
Q 384 1609 779 1909 
Q 1175 2209 1959 2209 
L 2766 2209 
L 2766 2266 
Q 2766 2663 2505 2880 
Q 2244 3097 1772 3097 
Q 1472 3097 1187 3025 
Q 903 2953 641 2809 
L 641 3341 
Q 956 3463 1253 3523 
Q 1550 3584 1831 3584 
Q 2591 3584 2966 3190 
Q 3341 2797 3341 1997 
z
" id="DejaVuSans-61" transform="scale(0.015625)"/>
        <path d="M 3513 2113 
L 3513 0 
L 2938 0 
L 2938 2094 
Q 2938 2591 2744 2837 
Q 2550 3084 2163 3084 
Q 1697 3084 1428 2787 
Q 1159 2491 1159 1978 
L 1159 0 
L 581 0 
L 581 3500 
L 1159 3500 
L 1159 2956 
Q 1366 3272 1645 3428 
Q 1925 3584 2291 3584 
Q 2894 3584 3203 3211 
Q 3513 2838 3513 2113 
z
" id="DejaVuSans-6e" transform="scale(0.015625)"/>
        <path d="M 544 1381 
L 544 3500 
L 1119 3500 
L 1119 1403 
Q 1119 906 1312 657 
Q 1506 409 1894 409 
Q 2359 409 2629 706 
Q 2900 1003 2900 1516 
L 2900 3500 
L 3475 3500 
L 3475 0 
L 2900 0 
L 2900 538 
Q 2691 219 2414 64 
Q 2138 -91 1772 -91 
Q 1169 -91 856 284 
Q 544 659 544 1381 
z
M 1991 3584 
L 1991 3584 
z
" id="DejaVuSans-75" transform="scale(0.015625)"/>
        <path d="M 2631 2963 
Q 2534 3019 2420 3045 
Q 2306 3072 2169 3072 
Q 1681 3072 1420 2755 
Q 1159 2438 1159 1844 
L 1159 0 
L 581 0 
L 581 3500 
L 1159 3500 
L 1159 2956 
Q 1341 3275 1631 3429 
Q 1922 3584 2338 3584 
Q 2397 3584 2469 3576 
Q 2541 3569 2628 3553 
L 2631 2963 
z
" id="DejaVuSans-72" transform="scale(0.015625)"/>
        <path d="M 2059 -325 
Q 1816 -950 1584 -1140 
Q 1353 -1331 966 -1331 
L 506 -1331 
L 506 -850 
L 844 -850 
Q 1081 -850 1212 -737 
Q 1344 -625 1503 -206 
L 1606 56 
L 191 3500 
L 800 3500 
L 1894 763 
L 2988 3500 
L 3597 3500 
L 2059 -325 
z
" id="DejaVuSans-79" transform="scale(0.015625)"/>
       </defs>
       <use xlink:href="#DejaVuSans-4a"/>
       <use x="29.492188" xlink:href="#DejaVuSans-61"/>
       <use x="90.771484" xlink:href="#DejaVuSans-6e"/>
       <use x="154.150391" xlink:href="#DejaVuSans-75"/>
       <use x="217.529297" xlink:href="#DejaVuSans-61"/>
       <use x="278.808594" xlink:href="#DejaVuSans-72"/>
       <use x="319.921875" xlink:href="#DejaVuSans-79"/>
      </g>
     </g>
    </g>
    <g id="xtick_2">
     <g id="line2d_2">
      <g>
       <use style="stroke:#000000;stroke-width:0.8;" x="279.615613" xlink:href="#md2073c54c1" y="768.96"/>
      </g>
     </g>
     <g id="text_2">
      <!-- February -->
      <g transform="translate(257.460926 783.558437)scale(0.1 -0.1)">
       <defs>
        <path d="M 628 4666 
L 3309 4666 
L 3309 4134 
L 1259 4134 
L 1259 2759 
L 3109 2759 
L 3109 2228 
L 1259 2228 
L 1259 0 
L 628 0 
L 628 4666 
z
" id="DejaVuSans-46" transform="scale(0.015625)"/>
        <path d="M 3597 1894 
L 3597 1613 
L 953 1613 
Q 991 1019 1311 708 
Q 1631 397 2203 397 
Q 2534 397 2845 478 
Q 3156 559 3463 722 
L 3463 178 
Q 3153 47 2828 -22 
Q 2503 -91 2169 -91 
Q 1331 -91 842 396 
Q 353 884 353 1716 
Q 353 2575 817 3079 
Q 1281 3584 2069 3584 
Q 2775 3584 3186 3129 
Q 3597 2675 3597 1894 
z
M 3022 2063 
Q 3016 2534 2758 2815 
Q 2500 3097 2075 3097 
Q 1594 3097 1305 2825 
Q 1016 2553 972 2059 
L 3022 2063 
z
" id="DejaVuSans-65" transform="scale(0.015625)"/>
        <path d="M 3116 1747 
Q 3116 2381 2855 2742 
Q 2594 3103 2138 3103 
Q 1681 3103 1420 2742 
Q 1159 2381 1159 1747 
Q 1159 1113 1420 752 
Q 1681 391 2138 391 
Q 2594 391 2855 752 
Q 3116 1113 3116 1747 
z
M 1159 2969 
Q 1341 3281 1617 3432 
Q 1894 3584 2278 3584 
Q 2916 3584 3314 3078 
Q 3713 2572 3713 1747 
Q 3713 922 3314 415 
Q 2916 -91 2278 -91 
Q 1894 -91 1617 61 
Q 1341 213 1159 525 
L 1159 0 
L 581 0 
L 581 4863 
L 1159 4863 
L 1159 2969 
z
" id="DejaVuSans-62" transform="scale(0.015625)"/>
       </defs>
       <use xlink:href="#DejaVuSans-46"/>
       <use x="52.019531" xlink:href="#DejaVuSans-65"/>
       <use x="113.542969" xlink:href="#DejaVuSans-62"/>
       <use x="177.019531" xlink:href="#DejaVuSans-72"/>
       <use x="218.132812" xlink:href="#DejaVuSans-75"/>
       <use x="281.511719" xlink:href="#DejaVuSans-61"/>
       <use x="342.791016" xlink:href="#DejaVuSans-72"/>
       <use x="383.904297" xlink:href="#DejaVuSans-79"/>
      </g>
     </g>
    </g>
    <g id="xtick_3">
     <g id="line2d_3">
      <g>
       <use style="stroke:#000000;stroke-width:0.8;" x="384.162825" xlink:href="#md2073c54c1" y="768.96"/>
      </g>
     </g>
     <g id="text_3">
      <!-- March -->
      <g transform="translate(368.923763 783.558437)scale(0.1 -0.1)">
       <defs>
        <path d="M 628 4666 
L 1569 4666 
L 2759 1491 
L 3956 4666 
L 4897 4666 
L 4897 0 
L 4281 0 
L 4281 4097 
L 3078 897 
L 2444 897 
L 1241 4097 
L 1241 0 
L 628 0 
L 628 4666 
z
" id="DejaVuSans-4d" transform="scale(0.015625)"/>
        <path d="M 3122 3366 
L 3122 2828 
Q 2878 2963 2633 3030 
Q 2388 3097 2138 3097 
Q 1578 3097 1268 2742 
Q 959 2388 959 1747 
Q 959 1106 1268 751 
Q 1578 397 2138 397 
Q 2388 397 2633 464 
Q 2878 531 3122 666 
L 3122 134 
Q 2881 22 2623 -34 
Q 2366 -91 2075 -91 
Q 1284 -91 818 406 
Q 353 903 353 1747 
Q 353 2603 823 3093 
Q 1294 3584 2113 3584 
Q 2378 3584 2631 3529 
Q 2884 3475 3122 3366 
z
" id="DejaVuSans-63" transform="scale(0.015625)"/>
        <path d="M 3513 2113 
L 3513 0 
L 2938 0 
L 2938 2094 
Q 2938 2591 2744 2837 
Q 2550 3084 2163 3084 
Q 1697 3084 1428 2787 
Q 1159 2491 1159 1978 
L 1159 0 
L 581 0 
L 581 4863 
L 1159 4863 
L 1159 2956 
Q 1366 3272 1645 3428 
Q 1925 3584 2291 3584 
Q 2894 3584 3203 3211 
Q 3513 2838 3513 2113 
z
" id="DejaVuSans-68" transform="scale(0.015625)"/>
       </defs>
       <use xlink:href="#DejaVuSans-4d"/>
       <use x="86.279297" xlink:href="#DejaVuSans-61"/>
       <use x="147.558594" xlink:href="#DejaVuSans-72"/>
       <use x="186.421875" xlink:href="#DejaVuSans-63"/>
       <use x="241.402344" xlink:href="#DejaVuSans-68"/>
      </g>
     </g>
    </g>
    <g id="xtick_4">
     <g id="line2d_4">
      <g>
       <use style="stroke:#000000;stroke-width:0.8;" x="499.911524" xlink:href="#md2073c54c1" y="768.96"/>
      </g>
     </g>
     <g id="text_4">
      <!-- April -->
      <g transform="translate(488.483399 783.558437)scale(0.1 -0.1)">
       <defs>
        <path d="M 2188 4044 
L 1331 1722 
L 3047 1722 
L 2188 4044 
z
M 1831 4666 
L 2547 4666 
L 4325 0 
L 3669 0 
L 3244 1197 
L 1141 1197 
L 716 0 
L 50 0 
L 1831 4666 
z
" id="DejaVuSans-41" transform="scale(0.015625)"/>
        <path d="M 1159 525 
L 1159 -1331 
L 581 -1331 
L 581 3500 
L 1159 3500 
L 1159 2969 
Q 1341 3281 1617 3432 
Q 1894 3584 2278 3584 
Q 2916 3584 3314 3078 
Q 3713 2572 3713 1747 
Q 3713 922 3314 415 
Q 2916 -91 2278 -91 
Q 1894 -91 1617 61 
Q 1341 213 1159 525 
z
M 3116 1747 
Q 3116 2381 2855 2742 
Q 2594 3103 2138 3103 
Q 1681 3103 1420 2742 
Q 1159 2381 1159 1747 
Q 1159 1113 1420 752 
Q 1681 391 2138 391 
Q 2594 391 2855 752 
Q 3116 1113 3116 1747 
z
" id="DejaVuSans-70" transform="scale(0.015625)"/>
        <path d="M 603 3500 
L 1178 3500 
L 1178 0 
L 603 0 
L 603 3500 
z
M 603 4863 
L 1178 4863 
L 1178 4134 
L 603 4134 
L 603 4863 
z
" id="DejaVuSans-69" transform="scale(0.015625)"/>
        <path d="M 603 4863 
L 1178 4863 
L 1178 0 
L 603 0 
L 603 4863 
z
" id="DejaVuSans-6c" transform="scale(0.015625)"/>
       </defs>
       <use xlink:href="#DejaVuSans-41"/>
       <use x="68.408203" xlink:href="#DejaVuSans-70"/>
       <use x="131.884766" xlink:href="#DejaVuSans-72"/>
       <use x="172.998047" xlink:href="#DejaVuSans-69"/>
       <use x="200.78125" xlink:href="#DejaVuSans-6c"/>
      </g>
     </g>
    </g>
    <g id="xtick_5">
     <g id="line2d_5">
      <g>
       <use style="stroke:#000000;stroke-width:0.8;" x="611.926394" xlink:href="#md2073c54c1" y="768.96"/>
      </g>
     </g>
     <g id="text_5">
      <!-- May -->
      <g transform="translate(601.588894 783.558437)scale(0.1 -0.1)">
       <use xlink:href="#DejaVuSans-4d"/>
       <use x="86.279297" xlink:href="#DejaVuSans-61"/>
       <use x="147.558594" xlink:href="#DejaVuSans-79"/>
      </g>
     </g>
    </g>
    <g id="xtick_6">
     <g id="line2d_6">
      <g>
       <use style="stroke:#000000;stroke-width:0.8;" x="727.675093" xlink:href="#md2073c54c1" y="768.96"/>
      </g>
     </g>
     <g id="text_6">
      <!-- June -->
      <g transform="translate(716.78603 783.558437)scale(0.1 -0.1)">
       <use xlink:href="#DejaVuSans-4a"/>
       <use x="29.492188" xlink:href="#DejaVuSans-75"/>
       <use x="92.871094" xlink:href="#DejaVuSans-6e"/>
       <use x="156.25" xlink:href="#DejaVuSans-65"/>
      </g>
     </g>
    </g>
    <g id="xtick_7">
     <g id="line2d_7">
      <g>
       <use style="stroke:#000000;stroke-width:0.8;" x="839.689963" xlink:href="#md2073c54c1" y="768.96"/>
      </g>
     </g>
     <g id="text_7">
      <!-- July -->
      <g transform="translate(830.697775 783.558437)scale(0.1 -0.1)">
       <use xlink:href="#DejaVuSans-4a"/>
       <use x="29.492188" xlink:href="#DejaVuSans-75"/>
       <use x="92.871094" xlink:href="#DejaVuSans-6c"/>
       <use x="120.654297" xlink:href="#DejaVuSans-79"/>
      </g>
     </g>
    </g>
    <g id="xtick_8">
     <g id="line2d_8">
      <g>
       <use style="stroke:#000000;stroke-width:0.8;" x="955.438662" xlink:href="#md2073c54c1" y="768.96"/>
      </g>
     </g>
     <g id="text_8">
      <!-- August -->
      <g transform="translate(937.941787 783.558437)scale(0.1 -0.1)">
       <defs>
        <path d="M 2906 1791 
Q 2906 2416 2648 2759 
Q 2391 3103 1925 3103 
Q 1463 3103 1205 2759 
Q 947 2416 947 1791 
Q 947 1169 1205 825 
Q 1463 481 1925 481 
Q 2391 481 2648 825 
Q 2906 1169 2906 1791 
z
M 3481 434 
Q 3481 -459 3084 -895 
Q 2688 -1331 1869 -1331 
Q 1566 -1331 1297 -1286 
Q 1028 -1241 775 -1147 
L 775 -588 
Q 1028 -725 1275 -790 
Q 1522 -856 1778 -856 
Q 2344 -856 2625 -561 
Q 2906 -266 2906 331 
L 2906 616 
Q 2728 306 2450 153 
Q 2172 0 1784 0 
Q 1141 0 747 490 
Q 353 981 353 1791 
Q 353 2603 747 3093 
Q 1141 3584 1784 3584 
Q 2172 3584 2450 3431 
Q 2728 3278 2906 2969 
L 2906 3500 
L 3481 3500 
L 3481 434 
z
" id="DejaVuSans-67" transform="scale(0.015625)"/>
        <path d="M 2834 3397 
L 2834 2853 
Q 2591 2978 2328 3040 
Q 2066 3103 1784 3103 
Q 1356 3103 1142 2972 
Q 928 2841 928 2578 
Q 928 2378 1081 2264 
Q 1234 2150 1697 2047 
L 1894 2003 
Q 2506 1872 2764 1633 
Q 3022 1394 3022 966 
Q 3022 478 2636 193 
Q 2250 -91 1575 -91 
Q 1294 -91 989 -36 
Q 684 19 347 128 
L 347 722 
Q 666 556 975 473 
Q 1284 391 1588 391 
Q 1994 391 2212 530 
Q 2431 669 2431 922 
Q 2431 1156 2273 1281 
Q 2116 1406 1581 1522 
L 1381 1569 
Q 847 1681 609 1914 
Q 372 2147 372 2553 
Q 372 3047 722 3315 
Q 1072 3584 1716 3584 
Q 2034 3584 2315 3537 
Q 2597 3491 2834 3397 
z
" id="DejaVuSans-73" transform="scale(0.015625)"/>
        <path d="M 1172 4494 
L 1172 3500 
L 2356 3500 
L 2356 3053 
L 1172 3053 
L 1172 1153 
Q 1172 725 1289 603 
Q 1406 481 1766 481 
L 2356 481 
L 2356 0 
L 1766 0 
Q 1100 0 847 248 
Q 594 497 594 1153 
L 594 3053 
L 172 3053 
L 172 3500 
L 594 3500 
L 594 4494 
L 1172 4494 
z
" id="DejaVuSans-74" transform="scale(0.015625)"/>
       </defs>
       <use xlink:href="#DejaVuSans-41"/>
       <use x="68.408203" xlink:href="#DejaVuSans-75"/>
       <use x="131.787109" xlink:href="#DejaVuSans-67"/>
       <use x="195.263672" xlink:href="#DejaVuSans-75"/>
       <use x="258.642578" xlink:href="#DejaVuSans-73"/>
       <use x="310.742188" xlink:href="#DejaVuSans-74"/>
      </g>
     </g>
    </g>
    <g id="xtick_9">
     <g id="line2d_9">
      <g>
       <use style="stroke:#000000;stroke-width:0.8;" x="1071.187361" xlink:href="#md2073c54c1" y="768.96"/>
      </g>
     </g>
     <g id="text_9">
      <!-- September -->
      <g transform="translate(1043.549079 783.558437)scale(0.1 -0.1)">
       <defs>
        <path d="M 3425 4513 
L 3425 3897 
Q 3066 4069 2747 4153 
Q 2428 4238 2131 4238 
Q 1616 4238 1336 4038 
Q 1056 3838 1056 3469 
Q 1056 3159 1242 3001 
Q 1428 2844 1947 2747 
L 2328 2669 
Q 3034 2534 3370 2195 
Q 3706 1856 3706 1288 
Q 3706 609 3251 259 
Q 2797 -91 1919 -91 
Q 1588 -91 1214 -16 
Q 841 59 441 206 
L 441 856 
Q 825 641 1194 531 
Q 1563 422 1919 422 
Q 2459 422 2753 634 
Q 3047 847 3047 1241 
Q 3047 1584 2836 1778 
Q 2625 1972 2144 2069 
L 1759 2144 
Q 1053 2284 737 2584 
Q 422 2884 422 3419 
Q 422 4038 858 4394 
Q 1294 4750 2059 4750 
Q 2388 4750 2728 4690 
Q 3069 4631 3425 4513 
z
" id="DejaVuSans-53" transform="scale(0.015625)"/>
        <path d="M 3328 2828 
Q 3544 3216 3844 3400 
Q 4144 3584 4550 3584 
Q 5097 3584 5394 3201 
Q 5691 2819 5691 2113 
L 5691 0 
L 5113 0 
L 5113 2094 
Q 5113 2597 4934 2840 
Q 4756 3084 4391 3084 
Q 3944 3084 3684 2787 
Q 3425 2491 3425 1978 
L 3425 0 
L 2847 0 
L 2847 2094 
Q 2847 2600 2669 2842 
Q 2491 3084 2119 3084 
Q 1678 3084 1418 2786 
Q 1159 2488 1159 1978 
L 1159 0 
L 581 0 
L 581 3500 
L 1159 3500 
L 1159 2956 
Q 1356 3278 1631 3431 
Q 1906 3584 2284 3584 
Q 2666 3584 2933 3390 
Q 3200 3197 3328 2828 
z
" id="DejaVuSans-6d" transform="scale(0.015625)"/>
       </defs>
       <use xlink:href="#DejaVuSans-53"/>
       <use x="63.476562" xlink:href="#DejaVuSans-65"/>
       <use x="125" xlink:href="#DejaVuSans-70"/>
       <use x="188.476562" xlink:href="#DejaVuSans-74"/>
       <use x="227.685547" xlink:href="#DejaVuSans-65"/>
       <use x="289.208984" xlink:href="#DejaVuSans-6d"/>
       <use x="386.621094" xlink:href="#DejaVuSans-62"/>
       <use x="450.097656" xlink:href="#DejaVuSans-65"/>
       <use x="511.621094" xlink:href="#DejaVuSans-72"/>
      </g>
     </g>
    </g>
   </g>
   <g id="matplotlib.axis_2">
    <g id="ytick_1">
     <g id="line2d_10">
      <defs>
       <path d="M 0 0 
L -3.5 0 
" id="m6bc49473bd" style="stroke:#000000;stroke-width:0.8;"/>
      </defs>
      <g>
       <use style="stroke:#000000;stroke-width:0.8;" x="162" xlink:href="#m6bc49473bd" y="768.96"/>
      </g>
     </g>
     <g id="text_10">
      <!-- 0 -->
      <g transform="translate(148.6375 772.759219)scale(0.1 -0.1)">
       <defs>
        <path d="M 2034 4250 
Q 1547 4250 1301 3770 
Q 1056 3291 1056 2328 
Q 1056 1369 1301 889 
Q 1547 409 2034 409 
Q 2525 409 2770 889 
Q 3016 1369 3016 2328 
Q 3016 3291 2770 3770 
Q 2525 4250 2034 4250 
z
M 2034 4750 
Q 2819 4750 3233 4129 
Q 3647 3509 3647 2328 
Q 3647 1150 3233 529 
Q 2819 -91 2034 -91 
Q 1250 -91 836 529 
Q 422 1150 422 2328 
Q 422 3509 836 4129 
Q 1250 4750 2034 4750 
z
" id="DejaVuSans-30" transform="scale(0.015625)"/>
       </defs>
       <use xlink:href="#DejaVuSans-30"/>
      </g>
     </g>
    </g>
    <g id="ytick_2">
     <g id="line2d_11">
      <g>
       <use style="stroke:#000000;stroke-width:0.8;" x="162" xlink:href="#m6bc49473bd" y="652.475494"/>
      </g>
     </g>
     <g id="text_11">
      <!-- 20000 -->
      <g transform="translate(123.1875 656.274712)scale(0.1 -0.1)">
       <defs>
        <path d="M 1228 531 
L 3431 531 
L 3431 0 
L 469 0 
L 469 531 
Q 828 903 1448 1529 
Q 2069 2156 2228 2338 
Q 2531 2678 2651 2914 
Q 2772 3150 2772 3378 
Q 2772 3750 2511 3984 
Q 2250 4219 1831 4219 
Q 1534 4219 1204 4116 
Q 875 4013 500 3803 
L 500 4441 
Q 881 4594 1212 4672 
Q 1544 4750 1819 4750 
Q 2544 4750 2975 4387 
Q 3406 4025 3406 3419 
Q 3406 3131 3298 2873 
Q 3191 2616 2906 2266 
Q 2828 2175 2409 1742 
Q 1991 1309 1228 531 
z
" id="DejaVuSans-32" transform="scale(0.015625)"/>
       </defs>
       <use xlink:href="#DejaVuSans-32"/>
       <use x="63.623047" xlink:href="#DejaVuSans-30"/>
       <use x="127.246094" xlink:href="#DejaVuSans-30"/>
       <use x="190.869141" xlink:href="#DejaVuSans-30"/>
       <use x="254.492188" xlink:href="#DejaVuSans-30"/>
      </g>
     </g>
    </g>
    <g id="ytick_3">
     <g id="line2d_12">
      <g>
       <use style="stroke:#000000;stroke-width:0.8;" x="162" xlink:href="#m6bc49473bd" y="535.990987"/>
      </g>
     </g>
     <g id="text_12">
      <!-- 40000 -->
      <g transform="translate(123.1875 539.790206)scale(0.1 -0.1)">
       <defs>
        <path d="M 2419 4116 
L 825 1625 
L 2419 1625 
L 2419 4116 
z
M 2253 4666 
L 3047 4666 
L 3047 1625 
L 3713 1625 
L 3713 1100 
L 3047 1100 
L 3047 0 
L 2419 0 
L 2419 1100 
L 313 1100 
L 313 1709 
L 2253 4666 
z
" id="DejaVuSans-34" transform="scale(0.015625)"/>
       </defs>
       <use xlink:href="#DejaVuSans-34"/>
       <use x="63.623047" xlink:href="#DejaVuSans-30"/>
       <use x="127.246094" xlink:href="#DejaVuSans-30"/>
       <use x="190.869141" xlink:href="#DejaVuSans-30"/>
       <use x="254.492188" xlink:href="#DejaVuSans-30"/>
      </g>
     </g>
    </g>
    <g id="ytick_4">
     <g id="line2d_13">
      <g>
       <use style="stroke:#000000;stroke-width:0.8;" x="162" xlink:href="#m6bc49473bd" y="419.506481"/>
      </g>
     </g>
     <g id="text_13">
      <!-- 60000 -->
      <g transform="translate(123.1875 423.305699)scale(0.1 -0.1)">
       <defs>
        <path d="M 2113 2584 
Q 1688 2584 1439 2293 
Q 1191 2003 1191 1497 
Q 1191 994 1439 701 
Q 1688 409 2113 409 
Q 2538 409 2786 701 
Q 3034 994 3034 1497 
Q 3034 2003 2786 2293 
Q 2538 2584 2113 2584 
z
M 3366 4563 
L 3366 3988 
Q 3128 4100 2886 4159 
Q 2644 4219 2406 4219 
Q 1781 4219 1451 3797 
Q 1122 3375 1075 2522 
Q 1259 2794 1537 2939 
Q 1816 3084 2150 3084 
Q 2853 3084 3261 2657 
Q 3669 2231 3669 1497 
Q 3669 778 3244 343 
Q 2819 -91 2113 -91 
Q 1303 -91 875 529 
Q 447 1150 447 2328 
Q 447 3434 972 4092 
Q 1497 4750 2381 4750 
Q 2619 4750 2861 4703 
Q 3103 4656 3366 4563 
z
" id="DejaVuSans-36" transform="scale(0.015625)"/>
       </defs>
       <use xlink:href="#DejaVuSans-36"/>
       <use x="63.623047" xlink:href="#DejaVuSans-30"/>
       <use x="127.246094" xlink:href="#DejaVuSans-30"/>
       <use x="190.869141" xlink:href="#DejaVuSans-30"/>
       <use x="254.492188" xlink:href="#DejaVuSans-30"/>
      </g>
     </g>
    </g>
    <g id="ytick_5">
     <g id="line2d_14">
      <g>
       <use style="stroke:#000000;stroke-width:0.8;" x="162" xlink:href="#m6bc49473bd" y="303.021974"/>
      </g>
     </g>
     <g id="text_14">
      <!-- 80000 -->
      <g transform="translate(123.1875 306.821193)scale(0.1 -0.1)">
       <defs>
        <path d="M 2034 2216 
Q 1584 2216 1326 1975 
Q 1069 1734 1069 1313 
Q 1069 891 1326 650 
Q 1584 409 2034 409 
Q 2484 409 2743 651 
Q 3003 894 3003 1313 
Q 3003 1734 2745 1975 
Q 2488 2216 2034 2216 
z
M 1403 2484 
Q 997 2584 770 2862 
Q 544 3141 544 3541 
Q 544 4100 942 4425 
Q 1341 4750 2034 4750 
Q 2731 4750 3128 4425 
Q 3525 4100 3525 3541 
Q 3525 3141 3298 2862 
Q 3072 2584 2669 2484 
Q 3125 2378 3379 2068 
Q 3634 1759 3634 1313 
Q 3634 634 3220 271 
Q 2806 -91 2034 -91 
Q 1263 -91 848 271 
Q 434 634 434 1313 
Q 434 1759 690 2068 
Q 947 2378 1403 2484 
z
M 1172 3481 
Q 1172 3119 1398 2916 
Q 1625 2713 2034 2713 
Q 2441 2713 2670 2916 
Q 2900 3119 2900 3481 
Q 2900 3844 2670 4047 
Q 2441 4250 2034 4250 
Q 1625 4250 1398 4047 
Q 1172 3844 1172 3481 
z
" id="DejaVuSans-38" transform="scale(0.015625)"/>
       </defs>
       <use xlink:href="#DejaVuSans-38"/>
       <use x="63.623047" xlink:href="#DejaVuSans-30"/>
       <use x="127.246094" xlink:href="#DejaVuSans-30"/>
       <use x="190.869141" xlink:href="#DejaVuSans-30"/>
       <use x="254.492188" xlink:href="#DejaVuSans-30"/>
      </g>
     </g>
    </g>
    <g id="ytick_6">
     <g id="line2d_15">
      <g>
       <use style="stroke:#000000;stroke-width:0.8;" x="162" xlink:href="#m6bc49473bd" y="186.537468"/>
      </g>
     </g>
     <g id="text_15">
      <!-- 100000 -->
      <g transform="translate(116.825 190.336687)scale(0.1 -0.1)">
       <defs>
        <path d="M 794 531 
L 1825 531 
L 1825 4091 
L 703 3866 
L 703 4441 
L 1819 4666 
L 2450 4666 
L 2450 531 
L 3481 531 
L 3481 0 
L 794 0 
L 794 531 
z
" id="DejaVuSans-31" transform="scale(0.015625)"/>
       </defs>
       <use xlink:href="#DejaVuSans-31"/>
       <use x="63.623047" xlink:href="#DejaVuSans-30"/>
       <use x="127.246094" xlink:href="#DejaVuSans-30"/>
       <use x="190.869141" xlink:href="#DejaVuSans-30"/>
       <use x="254.492188" xlink:href="#DejaVuSans-30"/>
       <use x="318.115234" xlink:href="#DejaVuSans-30"/>
      </g>
     </g>
    </g>
    <g id="text_16">
     <!-- Persons fully vaccinated -->
     <g transform="translate(110.745312 496.922344)rotate(-90)scale(0.1 -0.1)">
      <defs>
       <path d="M 1259 4147 
L 1259 2394 
L 2053 2394 
Q 2494 2394 2734 2622 
Q 2975 2850 2975 3272 
Q 2975 3691 2734 3919 
Q 2494 4147 2053 4147 
L 1259 4147 
z
M 628 4666 
L 2053 4666 
Q 2838 4666 3239 4311 
Q 3641 3956 3641 3272 
Q 3641 2581 3239 2228 
Q 2838 1875 2053 1875 
L 1259 1875 
L 1259 0 
L 628 0 
L 628 4666 
z
" id="DejaVuSans-50" transform="scale(0.015625)"/>
       <path d="M 1959 3097 
Q 1497 3097 1228 2736 
Q 959 2375 959 1747 
Q 959 1119 1226 758 
Q 1494 397 1959 397 
Q 2419 397 2687 759 
Q 2956 1122 2956 1747 
Q 2956 2369 2687 2733 
Q 2419 3097 1959 3097 
z
M 1959 3584 
Q 2709 3584 3137 3096 
Q 3566 2609 3566 1747 
Q 3566 888 3137 398 
Q 2709 -91 1959 -91 
Q 1206 -91 779 398 
Q 353 888 353 1747 
Q 353 2609 779 3096 
Q 1206 3584 1959 3584 
z
" id="DejaVuSans-6f" transform="scale(0.015625)"/>
       <path id="DejaVuSans-20" transform="scale(0.015625)"/>
       <path d="M 2375 4863 
L 2375 4384 
L 1825 4384 
Q 1516 4384 1395 4259 
Q 1275 4134 1275 3809 
L 1275 3500 
L 2222 3500 
L 2222 3053 
L 1275 3053 
L 1275 0 
L 697 0 
L 697 3053 
L 147 3053 
L 147 3500 
L 697 3500 
L 697 3744 
Q 697 4328 969 4595 
Q 1241 4863 1831 4863 
L 2375 4863 
z
" id="DejaVuSans-66" transform="scale(0.015625)"/>
       <path d="M 191 3500 
L 800 3500 
L 1894 563 
L 2988 3500 
L 3597 3500 
L 2284 0 
L 1503 0 
L 191 3500 
z
" id="DejaVuSans-76" transform="scale(0.015625)"/>
       <path d="M 2906 2969 
L 2906 4863 
L 3481 4863 
L 3481 0 
L 2906 0 
L 2906 525 
Q 2725 213 2448 61 
Q 2172 -91 1784 -91 
Q 1150 -91 751 415 
Q 353 922 353 1747 
Q 353 2572 751 3078 
Q 1150 3584 1784 3584 
Q 2172 3584 2448 3432 
Q 2725 3281 2906 2969 
z
M 947 1747 
Q 947 1113 1208 752 
Q 1469 391 1925 391 
Q 2381 391 2643 752 
Q 2906 1113 2906 1747 
Q 2906 2381 2643 2742 
Q 2381 3103 1925 3103 
Q 1469 3103 1208 2742 
Q 947 2381 947 1747 
z
" id="DejaVuSans-64" transform="scale(0.015625)"/>
      </defs>
      <use xlink:href="#DejaVuSans-50"/>
      <use x="56.677734" xlink:href="#DejaVuSans-65"/>
      <use x="118.201172" xlink:href="#DejaVuSans-72"/>
      <use x="159.314453" xlink:href="#DejaVuSans-73"/>
      <use x="211.414062" xlink:href="#DejaVuSans-6f"/>
      <use x="272.595703" xlink:href="#DejaVuSans-6e"/>
      <use x="335.974609" xlink:href="#DejaVuSans-73"/>
      <use x="388.074219" xlink:href="#DejaVuSans-20"/>
      <use x="419.861328" xlink:href="#DejaVuSans-66"/>
      <use x="455.066406" xlink:href="#DejaVuSans-75"/>
      <use x="518.445312" xlink:href="#DejaVuSans-6c"/>
      <use x="546.228516" xlink:href="#DejaVuSans-6c"/>
      <use x="574.011719" xlink:href="#DejaVuSans-79"/>
      <use x="633.191406" xlink:href="#DejaVuSans-20"/>
      <use x="664.978516" xlink:href="#DejaVuSans-76"/>
      <use x="724.158203" xlink:href="#DejaVuSans-61"/>
      <use x="785.4375" xlink:href="#DejaVuSans-63"/>
      <use x="840.417969" xlink:href="#DejaVuSans-63"/>
      <use x="895.398438" xlink:href="#DejaVuSans-69"/>
      <use x="923.181641" xlink:href="#DejaVuSans-6e"/>
      <use x="986.560547" xlink:href="#DejaVuSans-61"/>
      <use x="1047.839844" xlink:href="#DejaVuSans-74"/>
      <use x="1087.048828" xlink:href="#DejaVuSans-65"/>
      <use x="1148.572266" xlink:href="#DejaVuSans-64"/>
     </g>
    </g>
   </g>
   <g id="line2d_16">
    <path clip-path="url(#p1957652d59)" d="M 227.342007 743.750257 
L 231.075836 743.509799 
L 234.809665 744.748695 
L 238.543494 741.227535 
L 242.277323 740.333101 
L 246.011152 738.222235 
L 249.744981 733.793328 
L 253.47881 725.74092 
L 257.212639 717.149356 
L 260.946468 710.770997 
L 264.680297 704.041521 
L 268.414126 699.449535 
L 272.147955 698.392854 
L 275.881784 698.451096 
L 279.615613 695.949175 
L 283.349442 701.086142 
L 287.083271 700.891447 
L 290.8171 701.455564 
L 294.550929 698.249744 
L 298.284758 698.627487 
L 302.018587 694.482303 
L 305.752416 695.224475 
L 309.486245 689.375289 
L 313.220074 679.541501 
L 316.953903 670.407451 
L 320.687732 667.413799 
L 324.421561 663.816092 
L 328.15539 667.903034 
L 331.889219 668.808285 
L 335.623048 664.021604 
L 339.356877 660.165967 
L 343.090706 654.300972 
L 346.824535 663.019838 
L 350.558364 650.340499 
L 354.292193 641.960271 
L 358.026022 632.107346 
L 361.759851 609.793074 
L 365.49368 593.132462 
L 369.227509 580.66862 
L 372.961338 550.618945 
L 376.695167 553.759035 
L 380.428996 544.353743 
L 384.162825 534.237063 
L 387.896654 540.039656 
L 391.630483 528.703217 
L 395.364312 514.469643 
L 399.098141 508.874226 
L 402.83197 512.835531 
L 406.565799 503.02504 
L 410.299628 491.631191 
L 414.033457 480.998652 
L 417.767286 484.462402 
L 421.501115 477.798656 
L 425.234944 479.013423 
L 428.968773 452.884284 
L 432.702602 453.217097 
L 436.436431 459.216881 
L 440.17026 473.92721 
L 443.904089 487.2131 
L 447.637918 506.654364 
L 451.371747 520.29886 
L 455.105576 545.390455 
L 462.573234 569.719076 
L 466.307063 576.32874 
L 470.040892 580.571272 
L 473.774721 577.53269 
L 477.50855 564.205199 
L 484.976208 560.98357 
L 488.710037 545.098411 
L 492.443866 536.459421 
L 496.177695 521.620127 
L 499.911524 514.66101 
L 503.645353 513.564392 
L 507.379182 517.840205 
L 511.113011 504.288065 
L 514.84684 489.463747 
L 518.580669 462.515889 
L 522.314498 436.39923 
L 526.048327 396.237869 
L 529.782156 374.223129 
L 533.515985 355.84437 
L 537.249814 342.616722 
L 540.983643 337.603728 
L 544.717472 347.128001 
L 548.451301 350.057586 
L 552.18513 368.878986 
L 555.918959 379.72203 
L 559.652788 379.806065 
L 563.386617 388.339387 
L 567.120446 382.808037 
L 570.854275 376.526194 
L 574.588104 386.81344 
L 578.321933 400.675928 
L 582.055762 412.620582 
L 585.789591 425.9955 
L 589.52342 431.630022 
L 593.257249 447.480235 
L 596.991078 453.417617 
L 600.724907 463.940328 
L 604.458736 476.893405 
L 608.192565 494.974296 
L 611.926394 504.281408 
L 615.660223 517.994131 
L 619.394052 511.541721 
L 623.127881 508.317597 
L 626.86171 517.544002 
L 630.595539 498.794988 
L 634.329368 476.13792 
L 638.063197 444.280239 
L 641.797026 433.228356 
L 645.530855 447.181535 
L 649.264684 464.111726 
L 652.998513 465.112661 
L 656.732342 468.553114 
L 660.466171 478.181391 
L 664.2 503.13154 
L 667.933829 512.947024 
L 671.667658 513.777392 
L 675.401487 515.048737 
L 679.135316 501.499925 
L 682.869145 526.020745 
L 686.602974 530.908935 
L 690.336803 531.206802 
L 694.070632 532.96655 
L 697.804461 549.831843 
L 701.53829 561.958712 
L 705.272119 589.173653 
L 709.005948 598.758663 
L 712.739777 609.476902 
L 716.473606 612.570398 
L 720.207435 627.01198 
L 723.941264 637.669481 
L 727.675093 647.539047 
L 731.408922 648.557454 
L 735.142751 644.250023 
L 742.610409 625.880417 
L 746.344238 606.441649 
L 750.078067 593.418681 
L 753.811896 576.577517 
L 757.545725 580.297533 
L 761.279554 588.731844 
L 765.013383 602.539418 
L 768.747212 608.433534 
L 772.481041 594.517795 
L 776.21487 593.113325 
L 779.948699 605.903324 
L 783.682528 601.962819 
L 787.416357 610.822298 
L 791.150186 603.762505 
L 794.884015 608.441022 
L 798.617844 638.500681 
L 802.351673 655.688802 
L 806.085502 660.651874 
L 809.819331 668.726746 
L 817.286989 610.943775 
L 821.020818 615.229573 
L 824.754647 614.897592 
L 828.488476 614.405029 
L 832.222305 617.186512 
L 835.956134 624.595759 
L 839.689963 655.273618 
L 843.423792 695.429987 
L 847.157621 695.64798 
L 850.89145 705.831222 
L 854.625279 712.506616 
L 858.359108 713.505887 
L 862.092937 713.178066 
L 865.826766 714.304638 
L 869.560595 714.127415 
L 873.294424 712.262831 
L 877.028253 701.704342 
L 880.762082 699.130034 
L 888.22974 705.263776 
L 891.963569 706.851293 
L 895.697398 708.249107 
L 899.431227 709.217593 
L 903.165056 712.959242 
L 906.898885 712.23787 
L 910.632714 711.756123 
L 918.100372 715.704948 
L 921.834201 718.818412 
L 925.56803 721.361103 
L 929.301859 724.688399 
L 933.035688 725.21258 
L 936.769517 718.592931 
L 940.503346 717.092777 
L 944.237175 705.986812 
L 947.971004 703.742821 
L 955.438662 698.858792 
L 959.172491 699.339707 
L 962.90632 706.979426 
L 966.640149 706.701527 
L 970.373978 715.62008 
L 974.107807 707.555192 
L 977.841636 706.786395 
L 981.575465 706.994403 
L 985.309294 709.884051 
L 989.043123 696.102269 
L 992.776952 685.195991 
L 1000.24461 668.373133 
L 1003.978439 658.304711 
L 1007.712268 657.091608 
L 1011.446097 652.355681 
L 1015.179926 664.252909 
L 1018.913755 674.023463 
L 1022.647584 682.215652 
L 1026.381413 695.566441 
L 1030.115242 704.911826 
L 1033.849071 704.763724 
L 1037.5829 704.833615 
L 1041.316729 704.722955 
L 1045.050558 703.490715 
L 1048.784387 700.550313 
L 1052.518216 692.295722 
L 1056.252045 669.570427 
L 1059.985874 663.862686 
L 1063.719703 663.961698 
L 1067.453532 664.292015 
L 1071.187361 666.056755 
L 1074.92119 669.12945 
L 1078.655019 678.310093 
L 1082.388848 701.476365 
L 1086.122677 710.853368 
L 1089.856506 716.432144 
L 1093.590335 716.0128 
L 1097.324164 716.045249 
L 1101.057993 716.641816 
L 1104.791822 717.3765 
L 1108.525651 717.439735 
L 1112.25948 714.963607 
L 1115.993309 711.176197 
L 1119.727138 713.143121 
L 1123.460967 713.775465 
L 1127.194796 713.637348 
L 1130.928625 712.824452 
L 1134.662454 712.423413 
L 1138.396283 713.17557 
L 1142.130112 712.09476 
L 1145.863941 713.318679 
L 1149.59777 711.359244 
L 1153.331599 710.124508 
L 1157.065428 710.851704 
L 1160.799257 711.869279 
L 1160.799257 711.869279 
" style="fill:none;stroke:#ffa500;stroke-linecap:square;stroke-width:1.5;"/>
   </g>
   <g id="patch_272">
    <path d="M 162 768.96 
L 162 103.68 
" style="fill:none;stroke:#000000;stroke-linecap:square;stroke-linejoin:miter;stroke-width:0.8;"/>
   </g>
   <g id="patch_273">
    <path d="M 1166.4 768.96 
L 1166.4 103.68 
" style="fill:none;stroke:#000000;stroke-linecap:square;stroke-linejoin:miter;stroke-width:0.8;"/>
   </g>
   <g id="patch_274">
    <path d="M 162 768.96 
L 1166.4 768.96 
" style="fill:none;stroke:#000000;stroke-linecap:square;stroke-linejoin:miter;stroke-width:0.8;"/>
   </g>
   <g id="patch_275">
    <path d="M 162 103.68 
L 1166.4 103.68 
" style="fill:none;stroke:#000000;stroke-linecap:square;stroke-linejoin:miter;stroke-width:0.8;"/>
   </g>
   <g id="text_17">
    <!-- Persons Fully Vaccinated -->
    <g transform="translate(590.380313 97.68)scale(0.12 -0.12)">
     <defs>
      <path d="M 1831 0 
L 50 4666 
L 709 4666 
L 2188 738 
L 3669 4666 
L 4325 4666 
L 2547 0 
L 1831 0 
z
" id="DejaVuSans-56" transform="scale(0.015625)"/>
     </defs>
     <use xlink:href="#DejaVuSans-50"/>
     <use x="56.677734" xlink:href="#DejaVuSans-65"/>
     <use x="118.201172" xlink:href="#DejaVuSans-72"/>
     <use x="159.314453" xlink:href="#DejaVuSans-73"/>
     <use x="211.414062" xlink:href="#DejaVuSans-6f"/>
     <use x="272.595703" xlink:href="#DejaVuSans-6e"/>
     <use x="335.974609" xlink:href="#DejaVuSans-73"/>
     <use x="388.074219" xlink:href="#DejaVuSans-20"/>
     <use x="419.861328" xlink:href="#DejaVuSans-46"/>
     <use x="471.880859" xlink:href="#DejaVuSans-75"/>
     <use x="535.259766" xlink:href="#DejaVuSans-6c"/>
     <use x="563.042969" xlink:href="#DejaVuSans-6c"/>
     <use x="590.826172" xlink:href="#DejaVuSans-79"/>
     <use x="650.005859" xlink:href="#DejaVuSans-20"/>
     <use x="681.792969" xlink:href="#DejaVuSans-56"/>
     <use x="742.451172" xlink:href="#DejaVuSans-61"/>
     <use x="803.730469" xlink:href="#DejaVuSans-63"/>
     <use x="858.710938" xlink:href="#DejaVuSans-63"/>
     <use x="913.691406" xlink:href="#DejaVuSans-69"/>
     <use x="941.474609" xlink:href="#DejaVuSans-6e"/>
     <use x="1004.853516" xlink:href="#DejaVuSans-61"/>
     <use x="1066.132812" xlink:href="#DejaVuSans-74"/>
     <use x="1105.341797" xlink:href="#DejaVuSans-65"/>
     <use x="1166.865234" xlink:href="#DejaVuSans-64"/>
    </g>
   </g>
  </g>
 </g>
 <defs>
  <clipPath id="p1957652d59">
   <rect height="665.28" width="1004.4" x="162" y="103.68"/>
  </clipPath>
 </defs>
</svg>
