<?xml version="1.0" encoding="utf-8" standalone="no"?>
<!DOCTYPE svg PUBLIC "-//W3C//DTD SVG 1.1//EN"
  "http://www.w3.org/Graphics/SVG/1.1/DTD/svg11.dtd">
<svg height="864pt" version="1.1" viewBox="0 0 1296 864" width="1296pt" xmlns="http://www.w3.org/2000/svg" xmlns:xlink="http://www.w3.org/1999/xlink">
 <metadata>
  <rdf:RDF xmlns:cc="http://creativecommons.org/ns#" xmlns:dc="http://purl.org/dc/elements/1.1/" xmlns:rdf="http://www.w3.org/1999/02/22-rdf-syntax-ns#">
   <cc:Work>
    <dc:type rdf:resource="http://purl.org/dc/dcmitype/StillImage"/>
    <dc:date>2021-10-26T13:26:54.352601</dc:date>
    <dc:format>image/svg+xml</dc:format>
    <dc:creator>
     <cc:Agent>
      <dc:title>Matplotlib v3.4.2, https://matplotlib.org/</dc:title>
     </cc:Agent>
    </dc:creator>
   </cc:Work>
  </rdf:RDF>
 </metadata>
 <defs>
  <style type="text/css">*{stroke-linecap:butt;stroke-linejoin:round;}</style>
 </defs>
 <g id="figure_1">
  <g id="patch_1">
   <path d="M 0 864 
L 1296 864 
L 1296 0 
L 0 0 
z
" style="fill:#ffffff;"/>
  </g>
  <g id="axes_1">
   <g id="patch_2">
    <path d="M 162 768.96 
L 1166.4 768.96 
L 1166.4 103.68 
L 162 103.68 
z
" style="fill:#ffffff;"/>
   </g>
   <g id="patch_3">
    <path clip-path="url(#p581288a338)" d="M 162.845455 768.96 
L 164.536364 768.96 
L 164.536364 768.948341 
L 162.845455 768.948341 
z
" style="fill:#1f77b4;"/>
   </g>
   <g id="patch_4">
    <path clip-path="url(#p581288a338)" d="M 166.227273 768.96 
L 167.918182 768.96 
L 167.918182 768.96 
L 166.227273 768.96 
z
" style="fill:#1f77b4;"/>
   </g>
   <g id="patch_5">
    <path clip-path="url(#p581288a338)" d="M 169.609091 768.96 
L 171.3 768.96 
L 171.3 768.96 
L 169.609091 768.96 
z
" style="fill:#1f77b4;"/>
   </g>
   <g id="patch_6">
    <path clip-path="url(#p581288a338)" d="M 172.990909 768.96 
L 174.681818 768.96 
L 174.681818 768.219677 
L 172.990909 768.219677 
z
" style="fill:#1f77b4;"/>
   </g>
   <g id="patch_7">
    <path clip-path="url(#p581288a338)" d="M 176.372727 768.96 
L 178.063636 768.96 
L 178.063636 766.978033 
L 176.372727 766.978033 
z
" style="fill:#1f77b4;"/>
   </g>
   <g id="patch_8">
    <path clip-path="url(#p581288a338)" d="M 179.754545 768.96 
L 181.445455 768.96 
L 181.445455 754.89969 
L 179.754545 754.89969 
z
" style="fill:#1f77b4;"/>
   </g>
   <g id="patch_9">
    <path clip-path="url(#p581288a338)" d="M 183.136364 768.96 
L 184.827273 768.96 
L 184.827273 667.518245 
L 183.136364 667.518245 
z
" style="fill:#1f77b4;"/>
   </g>
   <g id="patch_10">
    <path clip-path="url(#p581288a338)" d="M 186.518182 768.96 
L 188.209091 768.96 
L 188.209091 646.701758 
L 186.518182 646.701758 
z
" style="fill:#1f77b4;"/>
   </g>
   <g id="patch_11">
    <path clip-path="url(#p581288a338)" d="M 189.9 768.96 
L 191.590909 768.96 
L 191.590909 702.208504 
L 189.9 702.208504 
z
" style="fill:#1f77b4;"/>
   </g>
   <g id="patch_12">
    <path clip-path="url(#p581288a338)" d="M 193.281818 768.96 
L 194.972727 768.96 
L 194.972727 728.481231 
L 193.281818 728.481231 
z
" style="fill:#1f77b4;"/>
   </g>
   <g id="patch_13">
    <path clip-path="url(#p581288a338)" d="M 196.663636 768.96 
L 198.354545 768.96 
L 198.354545 705.694435 
L 196.663636 705.694435 
z
" style="fill:#1f77b4;"/>
   </g>
   <g id="patch_14">
    <path clip-path="url(#p581288a338)" d="M 200.045455 768.96 
L 201.736364 768.96 
L 201.736364 708.778143 
L 200.045455 708.778143 
z
" style="fill:#1f77b4;"/>
   </g>
   <g id="patch_15">
    <path clip-path="url(#p581288a338)" d="M 203.427273 768.96 
L 205.118182 768.96 
L 205.118182 719.70811 
L 203.427273 719.70811 
z
" style="fill:#1f77b4;"/>
   </g>
   <g id="patch_16">
    <path clip-path="url(#p581288a338)" d="M 206.809091 768.96 
L 208.5 768.96 
L 208.5 708.894729 
L 206.809091 708.894729 
z
" style="fill:#1f77b4;"/>
   </g>
   <g id="patch_17">
    <path clip-path="url(#p581288a338)" d="M 210.190909 768.96 
L 211.881818 768.96 
L 211.881818 756.660144 
L 210.190909 756.660144 
z
" style="fill:#1f77b4;"/>
   </g>
   <g id="patch_18">
    <path clip-path="url(#p581288a338)" d="M 213.572727 768.96 
L 215.263636 768.96 
L 215.263636 761.300279 
L 213.572727 761.300279 
z
" style="fill:#1f77b4;"/>
   </g>
   <g id="patch_19">
    <path clip-path="url(#p581288a338)" d="M 216.954545 768.96 
L 218.645455 768.96 
L 218.645455 765.310848 
L 216.954545 765.310848 
z
" style="fill:#1f77b4;"/>
   </g>
   <g id="patch_20">
    <path clip-path="url(#p581288a338)" d="M 220.336364 768.96 
L 222.027273 768.96 
L 222.027273 752.224034 
L 220.336364 752.224034 
z
" style="fill:#1f77b4;"/>
   </g>
   <g id="patch_21">
    <path clip-path="url(#p581288a338)" d="M 223.718182 768.96 
L 225.409091 768.96 
L 225.409091 741.783729 
L 223.718182 741.783729 
z
" style="fill:#1f77b4;"/>
   </g>
   <g id="patch_22">
    <path clip-path="url(#p581288a338)" d="M 227.1 768.96 
L 228.790909 768.96 
L 228.790909 718.140024 
L 227.1 718.140024 
z
" style="fill:#1f77b4;"/>
   </g>
   <g id="patch_23">
    <path clip-path="url(#p581288a338)" d="M 230.481818 768.96 
L 232.172727 768.96 
L 232.172727 717.702826 
L 230.481818 717.702826 
z
" style="fill:#1f77b4;"/>
   </g>
   <g id="patch_24">
    <path clip-path="url(#p581288a338)" d="M 233.863636 768.96 
L 235.554545 768.96 
L 235.554545 731.972991 
L 233.863636 731.972991 
z
" style="fill:#1f77b4;"/>
   </g>
   <g id="patch_25">
    <path clip-path="url(#p581288a338)" d="M 237.245455 768.96 
L 238.936364 768.96 
L 238.936364 755.051252 
L 237.245455 755.051252 
z
" style="fill:#1f77b4;"/>
   </g>
   <g id="patch_26">
    <path clip-path="url(#p581288a338)" d="M 240.627273 768.96 
L 242.318182 768.96 
L 242.318182 750.55102 
L 240.627273 750.55102 
z
" style="fill:#1f77b4;"/>
   </g>
   <g id="patch_27">
    <path clip-path="url(#p581288a338)" d="M 244.009091 768.96 
L 245.7 768.96 
L 245.7 721.043024 
L 244.009091 721.043024 
z
" style="fill:#1f77b4;"/>
   </g>
   <g id="patch_28">
    <path clip-path="url(#p581288a338)" d="M 247.390909 768.96 
L 249.081818 768.96 
L 249.081818 685.490026 
L 247.390909 685.490026 
z
" style="fill:#1f77b4;"/>
   </g>
   <g id="patch_29">
    <path clip-path="url(#p581288a338)" d="M 250.772727 768.96 
L 252.463636 768.96 
L 252.463636 657.84741 
L 250.772727 657.84741 
z
" style="fill:#1f77b4;"/>
   </g>
   <g id="patch_30">
    <path clip-path="url(#p581288a338)" d="M 254.154545 768.96 
L 255.845455 768.96 
L 255.845455 672.922021 
L 254.154545 672.922021 
z
" style="fill:#1f77b4;"/>
   </g>
   <g id="patch_31">
    <path clip-path="url(#p581288a338)" d="M 257.536364 768.96 
L 259.227273 768.96 
L 259.227273 684.77302 
L 257.536364 684.77302 
z
" style="fill:#1f77b4;"/>
   </g>
   <g id="patch_32">
    <path clip-path="url(#p581288a338)" d="M 260.918182 768.96 
L 262.609091 768.96 
L 262.609091 722.739355 
L 260.918182 722.739355 
z
" style="fill:#1f77b4;"/>
   </g>
   <g id="patch_33">
    <path clip-path="url(#p581288a338)" d="M 264.3 768.96 
L 265.990909 768.96 
L 265.990909 743.171107 
L 264.3 743.171107 
z
" style="fill:#1f77b4;"/>
   </g>
   <g id="patch_34">
    <path clip-path="url(#p581288a338)" d="M 267.681818 768.96 
L 269.372727 768.96 
L 269.372727 721.521027 
L 267.681818 721.521027 
z
" style="fill:#1f77b4;"/>
   </g>
   <g id="patch_35">
    <path clip-path="url(#p581288a338)" d="M 271.063636 768.96 
L 272.754545 768.96 
L 272.754545 667.920468 
L 271.063636 667.920468 
z
" style="fill:#1f77b4;"/>
   </g>
   <g id="patch_36">
    <path clip-path="url(#p581288a338)" d="M 274.445455 768.96 
L 276.136364 768.96 
L 276.136364 693.796801 
L 274.445455 693.796801 
z
" style="fill:#1f77b4;"/>
   </g>
   <g id="patch_37">
    <path clip-path="url(#p581288a338)" d="M 277.827273 768.96 
L 279.518182 768.96 
L 279.518182 671.575449 
L 277.827273 671.575449 
z
" style="fill:#1f77b4;"/>
   </g>
   <g id="patch_38">
    <path clip-path="url(#p581288a338)" d="M 281.209091 768.96 
L 282.9 768.96 
L 282.9 688.77776 
L 281.209091 688.77776 
z
" style="fill:#1f77b4;"/>
   </g>
   <g id="patch_39">
    <path clip-path="url(#p581288a338)" d="M 284.590909 768.96 
L 286.281818 768.96 
L 286.281818 700.424733 
L 284.590909 700.424733 
z
" style="fill:#1f77b4;"/>
   </g>
   <g id="patch_40">
    <path clip-path="url(#p581288a338)" d="M 287.972727 768.96 
L 289.663636 768.96 
L 289.663636 745.730176 
L 287.972727 745.730176 
z
" style="fill:#1f77b4;"/>
   </g>
   <g id="patch_41">
    <path clip-path="url(#p581288a338)" d="M 291.354545 768.96 
L 293.045455 768.96 
L 293.045455 692.456059 
L 291.354545 692.456059 
z
" style="fill:#1f77b4;"/>
   </g>
   <g id="patch_42">
    <path clip-path="url(#p581288a338)" d="M 294.736364 768.96 
L 296.427273 768.96 
L 296.427273 673.073583 
L 294.736364 673.073583 
z
" style="fill:#1f77b4;"/>
   </g>
   <g id="patch_43">
    <path clip-path="url(#p581288a338)" d="M 298.118182 768.96 
L 299.809091 768.96 
L 299.809091 653.003249 
L 298.118182 653.003249 
z
" style="fill:#1f77b4;"/>
   </g>
   <g id="patch_44">
    <path clip-path="url(#p581288a338)" d="M 301.5 768.96 
L 303.190909 768.96 
L 303.190909 602.946913 
L 301.5 602.946913 
z
" style="fill:#1f77b4;"/>
   </g>
   <g id="patch_45">
    <path clip-path="url(#p581288a338)" d="M 304.881818 768.96 
L 306.572727 768.96 
L 306.572727 625.016703 
L 304.881818 625.016703 
z
" style="fill:#1f77b4;"/>
   </g>
   <g id="patch_46">
    <path clip-path="url(#p581288a338)" d="M 308.263636 768.96 
L 309.954545 768.96 
L 309.954545 679.509148 
L 308.263636 679.509148 
z
" style="fill:#1f77b4;"/>
   </g>
   <g id="patch_47">
    <path clip-path="url(#p581288a338)" d="M 311.645455 768.96 
L 313.336364 768.96 
L 313.336364 720.599996 
L 311.645455 720.599996 
z
" style="fill:#1f77b4;"/>
   </g>
   <g id="patch_48">
    <path clip-path="url(#p581288a338)" d="M 315.027273 768.96 
L 316.718182 768.96 
L 316.718182 721.089658 
L 315.027273 721.089658 
z
" style="fill:#1f77b4;"/>
   </g>
   <g id="patch_49">
    <path clip-path="url(#p581288a338)" d="M 318.409091 768.96 
L 320.1 768.96 
L 320.1 679.421708 
L 318.409091 679.421708 
z
" style="fill:#1f77b4;"/>
   </g>
   <g id="patch_50">
    <path clip-path="url(#p581288a338)" d="M 321.790909 768.96 
L 323.481818 768.96 
L 323.481818 619.414731 
L 321.790909 619.414731 
z
" style="fill:#1f77b4;"/>
   </g>
   <g id="patch_51">
    <path clip-path="url(#p581288a338)" d="M 325.172727 768.96 
L 326.863636 768.96 
L 326.863636 575.828936 
L 325.172727 575.828936 
z
" style="fill:#1f77b4;"/>
   </g>
   <g id="patch_52">
    <path clip-path="url(#p581288a338)" d="M 328.554545 768.96 
L 330.245455 768.96 
L 330.245455 583.966661 
L 328.554545 583.966661 
z
" style="fill:#1f77b4;"/>
   </g>
   <g id="patch_53">
    <path clip-path="url(#p581288a338)" d="M 331.936364 768.96 
L 333.627273 768.96 
L 333.627273 740.559573 
L 331.936364 740.559573 
z
" style="fill:#1f77b4;"/>
   </g>
   <g id="patch_54">
    <path clip-path="url(#p581288a338)" d="M 335.318182 768.96 
L 337.009091 768.96 
L 337.009091 631.965248 
L 335.318182 631.965248 
z
" style="fill:#1f77b4;"/>
   </g>
   <g id="patch_55">
    <path clip-path="url(#p581288a338)" d="M 338.7 768.96 
L 340.390909 768.96 
L 340.390909 662.464228 
L 338.7 662.464228 
z
" style="fill:#1f77b4;"/>
   </g>
   <g id="patch_56">
    <path clip-path="url(#p581288a338)" d="M 342.081818 768.96 
L 343.772727 768.96 
L 343.772727 610.455072 
L 342.081818 610.455072 
z
" style="fill:#1f77b4;"/>
   </g>
   <g id="patch_57">
    <path clip-path="url(#p581288a338)" d="M 345.463636 768.96 
L 347.154545 768.96 
L 347.154545 463.206554 
L 345.463636 463.206554 
z
" style="fill:#1f77b4;"/>
   </g>
   <g id="patch_58">
    <path clip-path="url(#p581288a338)" d="M 348.845455 768.96 
L 350.536364 768.96 
L 350.536364 459.40584 
L 348.845455 459.40584 
z
" style="fill:#1f77b4;"/>
   </g>
   <g id="patch_59">
    <path clip-path="url(#p581288a338)" d="M 352.227273 768.96 
L 353.918182 768.96 
L 353.918182 496.754266 
L 352.227273 496.754266 
z
" style="fill:#1f77b4;"/>
   </g>
   <g id="patch_60">
    <path clip-path="url(#p581288a338)" d="M 355.609091 768.96 
L 357.3 768.96 
L 357.3 530.197051 
L 355.609091 530.197051 
z
" style="fill:#1f77b4;"/>
   </g>
   <g id="patch_61">
    <path clip-path="url(#p581288a338)" d="M 358.990909 768.96 
L 360.681818 768.96 
L 360.681818 653.836841 
L 358.990909 653.836841 
z
" style="fill:#1f77b4;"/>
   </g>
   <g id="patch_62">
    <path clip-path="url(#p581288a338)" d="M 362.372727 768.96 
L 364.063636 768.96 
L 364.063636 596.785327 
L 362.372727 596.785327 
z
" style="fill:#1f77b4;"/>
   </g>
   <g id="patch_63">
    <path clip-path="url(#p581288a338)" d="M 365.754545 768.96 
L 367.445455 768.96 
L 367.445455 539.786276 
L 365.754545 539.786276 
z
" style="fill:#1f77b4;"/>
   </g>
   <g id="patch_64">
    <path clip-path="url(#p581288a338)" d="M 369.136364 768.96 
L 370.827273 768.96 
L 370.827273 503.731957 
L 369.136364 503.731957 
z
" style="fill:#1f77b4;"/>
   </g>
   <g id="patch_65">
    <path clip-path="url(#p581288a338)" d="M 372.518182 768.96 
L 374.209091 768.96 
L 374.209091 379.998899 
L 372.518182 379.998899 
z
" style="fill:#1f77b4;"/>
   </g>
   <g id="patch_66">
    <path clip-path="url(#p581288a338)" d="M 375.9 768.96 
L 377.590909 768.96 
L 377.590909 397.03216 
L 375.9 397.03216 
z
" style="fill:#1f77b4;"/>
   </g>
   <g id="patch_67">
    <path clip-path="url(#p581288a338)" d="M 379.281818 768.96 
L 380.972727 768.96 
L 380.972727 491.01822 
L 379.281818 491.01822 
z
" style="fill:#1f77b4;"/>
   </g>
   <g id="patch_68">
    <path clip-path="url(#p581288a338)" d="M 382.663636 768.96 
L 384.354545 768.96 
L 384.354545 681.53775 
L 382.663636 681.53775 
z
" style="fill:#1f77b4;"/>
   </g>
   <g id="patch_69">
    <path clip-path="url(#p581288a338)" d="M 386.045455 768.96 
L 387.736364 768.96 
L 387.736364 528.063522 
L 386.045455 528.063522 
z
" style="fill:#1f77b4;"/>
   </g>
   <g id="patch_70">
    <path clip-path="url(#p581288a338)" d="M 389.427273 768.96 
L 391.118182 768.96 
L 391.118182 460.198627 
L 389.427273 460.198627 
z
" style="fill:#1f77b4;"/>
   </g>
   <g id="patch_71">
    <path clip-path="url(#p581288a338)" d="M 392.809091 768.96 
L 394.5 768.96 
L 394.5 429.402351 
L 392.809091 429.402351 
z
" style="fill:#1f77b4;"/>
   </g>
   <g id="patch_72">
    <path clip-path="url(#p581288a338)" d="M 396.190909 768.96 
L 397.881818 768.96 
L 397.881818 404.301317 
L 396.190909 404.301317 
z
" style="fill:#1f77b4;"/>
   </g>
   <g id="patch_73">
    <path clip-path="url(#p581288a338)" d="M 399.572727 768.96 
L 401.263636 768.96 
L 401.263636 350.444267 
L 399.572727 350.444267 
z
" style="fill:#1f77b4;"/>
   </g>
   <g id="patch_74">
    <path clip-path="url(#p581288a338)" d="M 402.954545 768.96 
L 404.645455 768.96 
L 404.645455 499.523191 
L 402.954545 499.523191 
z
" style="fill:#1f77b4;"/>
   </g>
   <g id="patch_75">
    <path clip-path="url(#p581288a338)" d="M 406.336364 768.96 
L 408.027273 768.96 
L 408.027273 498.76538 
L 406.336364 498.76538 
z
" style="fill:#1f77b4;"/>
   </g>
   <g id="patch_76">
    <path clip-path="url(#p581288a338)" d="M 409.718182 768.96 
L 411.409091 768.96 
L 411.409091 530.261174 
L 409.718182 530.261174 
z
" style="fill:#1f77b4;"/>
   </g>
   <g id="patch_77">
    <path clip-path="url(#p581288a338)" d="M 413.1 768.96 
L 414.790909 768.96 
L 414.790909 502.023968 
L 413.1 502.023968 
z
" style="fill:#1f77b4;"/>
   </g>
   <g id="patch_78">
    <path clip-path="url(#p581288a338)" d="M 416.481818 768.96 
L 418.172727 768.96 
L 418.172727 532.715316 
L 416.481818 532.715316 
z
" style="fill:#1f77b4;"/>
   </g>
   <g id="patch_79">
    <path clip-path="url(#p581288a338)" d="M 419.863636 768.96 
L 421.554545 768.96 
L 421.554545 497.372174 
L 419.863636 497.372174 
z
" style="fill:#1f77b4;"/>
   </g>
   <g id="patch_80">
    <path clip-path="url(#p581288a338)" d="M 423.245455 768.96 
L 424.936364 768.96 
L 424.936364 486.337279 
L 423.245455 486.337279 
z
" style="fill:#1f77b4;"/>
   </g>
   <g id="patch_81">
    <path clip-path="url(#p581288a338)" d="M 426.627273 768.96 
L 428.318182 768.96 
L 428.318182 594.949092 
L 426.627273 594.949092 
z
" style="fill:#1f77b4;"/>
   </g>
   <g id="patch_82">
    <path clip-path="url(#p581288a338)" d="M 430.009091 768.96 
L 431.7 768.96 
L 431.7 674.29774 
L 430.009091 674.29774 
z
" style="fill:#1f77b4;"/>
   </g>
   <g id="patch_83">
    <path clip-path="url(#p581288a338)" d="M 433.390909 768.96 
L 435.081818 768.96 
L 435.081818 616.69244 
L 433.390909 616.69244 
z
" style="fill:#1f77b4;"/>
   </g>
   <g id="patch_84">
    <path clip-path="url(#p581288a338)" d="M 436.772727 768.96 
L 438.463636 768.96 
L 438.463636 585.76209 
L 436.772727 585.76209 
z
" style="fill:#1f77b4;"/>
   </g>
   <g id="patch_85">
    <path clip-path="url(#p581288a338)" d="M 440.154545 768.96 
L 441.845455 768.96 
L 441.845455 578.510421 
L 440.154545 578.510421 
z
" style="fill:#1f77b4;"/>
   </g>
   <g id="patch_86">
    <path clip-path="url(#p581288a338)" d="M 443.536364 768.96 
L 445.227273 768.96 
L 445.227273 526.769414 
L 443.536364 526.769414 
z
" style="fill:#1f77b4;"/>
   </g>
   <g id="patch_87">
    <path clip-path="url(#p581288a338)" d="M 446.918182 768.96 
L 448.609091 768.96 
L 448.609091 465.153545 
L 446.918182 465.153545 
z
" style="fill:#1f77b4;"/>
   </g>
   <g id="patch_88">
    <path clip-path="url(#p581288a338)" d="M 450.3 768.96 
L 451.990909 768.96 
L 451.990909 501.697526 
L 450.3 501.697526 
z
" style="fill:#1f77b4;"/>
   </g>
   <g id="patch_89">
    <path clip-path="url(#p581288a338)" d="M 453.681818 768.96 
L 455.372727 768.96 
L 455.372727 662.889769 
L 453.681818 662.889769 
z
" style="fill:#1f77b4;"/>
   </g>
   <g id="patch_90">
    <path clip-path="url(#p581288a338)" d="M 457.063636 768.96 
L 458.754545 768.96 
L 458.754545 605.383568 
L 457.063636 605.383568 
z
" style="fill:#1f77b4;"/>
   </g>
   <g id="patch_91">
    <path clip-path="url(#p581288a338)" d="M 460.445455 768.96 
L 462.136364 768.96 
L 462.136364 474.532914 
L 460.445455 474.532914 
z
" style="fill:#1f77b4;"/>
   </g>
   <g id="patch_92">
    <path clip-path="url(#p581288a338)" d="M 463.827273 768.96 
L 465.518182 768.96 
L 465.518182 518.206149 
L 463.827273 518.206149 
z
" style="fill:#1f77b4;"/>
   </g>
   <g id="patch_93">
    <path clip-path="url(#p581288a338)" d="M 467.209091 768.96 
L 468.9 768.96 
L 468.9 422.710296 
L 467.209091 422.710296 
z
" style="fill:#1f77b4;"/>
   </g>
   <g id="patch_94">
    <path clip-path="url(#p581288a338)" d="M 470.590909 768.96 
L 472.281818 768.96 
L 472.281818 416.502075 
L 470.590909 416.502075 
z
" style="fill:#1f77b4;"/>
   </g>
   <g id="patch_95">
    <path clip-path="url(#p581288a338)" d="M 473.972727 768.96 
L 475.663636 768.96 
L 475.663636 494.049464 
L 473.972727 494.049464 
z
" style="fill:#1f77b4;"/>
   </g>
   <g id="patch_96">
    <path clip-path="url(#p581288a338)" d="M 477.354545 768.96 
L 479.045455 768.96 
L 479.045455 692.904916 
L 477.354545 692.904916 
z
" style="fill:#1f77b4;"/>
   </g>
   <g id="patch_97">
    <path clip-path="url(#p581288a338)" d="M 480.736364 768.96 
L 482.427273 768.96 
L 482.427273 510.179181 
L 480.736364 510.179181 
z
" style="fill:#1f77b4;"/>
   </g>
   <g id="patch_98">
    <path clip-path="url(#p581288a338)" d="M 484.118182 768.96 
L 485.809091 768.96 
L 485.809091 370.596212 
L 484.118182 370.596212 
z
" style="fill:#1f77b4;"/>
   </g>
   <g id="patch_99">
    <path clip-path="url(#p581288a338)" d="M 487.5 768.96 
L 489.190909 768.96 
L 489.190909 329.429584 
L 487.5 329.429584 
z
" style="fill:#1f77b4;"/>
   </g>
   <g id="patch_100">
    <path clip-path="url(#p581288a338)" d="M 490.881818 768.96 
L 492.572727 768.96 
L 492.572727 239.949585 
L 490.881818 239.949585 
z
" style="fill:#1f77b4;"/>
   </g>
   <g id="patch_101">
    <path clip-path="url(#p581288a338)" d="M 494.263636 768.96 
L 495.954545 768.96 
L 495.954545 135.36 
L 494.263636 135.36 
z
" style="fill:#1f77b4;"/>
   </g>
   <g id="patch_102">
    <path clip-path="url(#p581288a338)" d="M 497.645455 768.96 
L 499.336364 768.96 
L 499.336364 339.834913 
L 497.645455 339.834913 
z
" style="fill:#1f77b4;"/>
   </g>
   <g id="patch_103">
    <path clip-path="url(#p581288a338)" d="M 501.027273 768.96 
L 502.718182 768.96 
L 502.718182 564.176134 
L 501.027273 564.176134 
z
" style="fill:#1f77b4;"/>
   </g>
   <g id="patch_104">
    <path clip-path="url(#p581288a338)" d="M 504.409091 768.96 
L 506.1 768.96 
L 506.1 418.017697 
L 504.409091 418.017697 
z
" style="fill:#1f77b4;"/>
   </g>
   <g id="patch_105">
    <path clip-path="url(#p581288a338)" d="M 507.790909 768.96 
L 509.481818 768.96 
L 509.481818 335.830173 
L 507.790909 335.830173 
z
" style="fill:#1f77b4;"/>
   </g>
   <g id="patch_106">
    <path clip-path="url(#p581288a338)" d="M 511.172727 768.96 
L 512.863636 768.96 
L 512.863636 396.320983 
L 511.172727 396.320983 
z
" style="fill:#1f77b4;"/>
   </g>
   <g id="patch_107">
    <path clip-path="url(#p581288a338)" d="M 514.554545 768.96 
L 516.245455 768.96 
L 516.245455 260.661145 
L 514.554545 260.661145 
z
" style="fill:#1f77b4;"/>
   </g>
   <g id="patch_108">
    <path clip-path="url(#p581288a338)" d="M 517.936364 768.96 
L 519.627273 768.96 
L 519.627273 267.125856 
L 517.936364 267.125856 
z
" style="fill:#1f77b4;"/>
   </g>
   <g id="patch_109">
    <path clip-path="url(#p581288a338)" d="M 521.318182 768.96 
L 523.009091 768.96 
L 523.009091 415.895826 
L 521.318182 415.895826 
z
" style="fill:#1f77b4;"/>
   </g>
   <g id="patch_110">
    <path clip-path="url(#p581288a338)" d="M 524.7 768.96 
L 526.390909 768.96 
L 526.390909 564.619162 
L 524.7 564.619162 
z
" style="fill:#1f77b4;"/>
   </g>
   <g id="patch_111">
    <path clip-path="url(#p581288a338)" d="M 528.081818 768.96 
L 529.772727 768.96 
L 529.772727 477.937235 
L 528.081818 477.937235 
z
" style="fill:#1f77b4;"/>
   </g>
   <g id="patch_112">
    <path clip-path="url(#p581288a338)" d="M 531.463636 768.96 
L 533.154545 768.96 
L 533.154545 297.3392 
L 531.463636 297.3392 
z
" style="fill:#1f77b4;"/>
   </g>
   <g id="patch_113">
    <path clip-path="url(#p581288a338)" d="M 534.845455 768.96 
L 536.536364 768.96 
L 536.536364 352.455381 
L 534.845455 352.455381 
z
" style="fill:#1f77b4;"/>
   </g>
   <g id="patch_114">
    <path clip-path="url(#p581288a338)" d="M 538.227273 768.96 
L 539.918182 768.96 
L 539.918182 332.769782 
L 538.227273 332.769782 
z
" style="fill:#1f77b4;"/>
   </g>
   <g id="patch_115">
    <path clip-path="url(#p581288a338)" d="M 541.609091 768.96 
L 543.3 768.96 
L 543.3 363.97411 
L 541.609091 363.97411 
z
" style="fill:#1f77b4;"/>
   </g>
   <g id="patch_116">
    <path clip-path="url(#p581288a338)" d="M 544.990909 768.96 
L 546.681818 768.96 
L 546.681818 499.843804 
L 544.990909 499.843804 
z
" style="fill:#1f77b4;"/>
   </g>
   <g id="patch_117">
    <path clip-path="url(#p581288a338)" d="M 548.372727 768.96 
L 550.063636 768.96 
L 550.063636 658.313756 
L 548.372727 658.313756 
z
" style="fill:#1f77b4;"/>
   </g>
   <g id="patch_118">
    <path clip-path="url(#p581288a338)" d="M 551.754545 768.96 
L 553.445455 768.96 
L 553.445455 517.156872 
L 551.754545 517.156872 
z
" style="fill:#1f77b4;"/>
   </g>
   <g id="patch_119">
    <path clip-path="url(#p581288a338)" d="M 555.136364 768.96 
L 556.827273 768.96 
L 556.827273 407.828053 
L 555.136364 407.828053 
z
" style="fill:#1f77b4;"/>
   </g>
   <g id="patch_120">
    <path clip-path="url(#p581288a338)" d="M 558.518182 768.96 
L 560.209091 768.96 
L 560.209091 393.575376 
L 558.518182 393.575376 
z
" style="fill:#1f77b4;"/>
   </g>
   <g id="patch_121">
    <path clip-path="url(#p581288a338)" d="M 561.9 768.96 
L 563.590909 768.96 
L 563.590909 406.417358 
L 561.9 406.417358 
z
" style="fill:#1f77b4;"/>
   </g>
   <g id="patch_122">
    <path clip-path="url(#p581288a338)" d="M 565.281818 768.96 
L 566.972727 768.96 
L 566.972727 454.619971 
L 565.281818 454.619971 
z
" style="fill:#1f77b4;"/>
   </g>
   <g id="patch_123">
    <path clip-path="url(#p581288a338)" d="M 568.663636 768.96 
L 570.354545 768.96 
L 570.354545 625.972711 
L 568.663636 625.972711 
z
" style="fill:#1f77b4;"/>
   </g>
   <g id="patch_124">
    <path clip-path="url(#p581288a338)" d="M 572.045455 768.96 
L 573.736364 768.96 
L 573.736364 723.514654 
L 572.045455 723.514654 
z
" style="fill:#1f77b4;"/>
   </g>
   <g id="patch_125">
    <path clip-path="url(#p581288a338)" d="M 575.427273 768.96 
L 577.118182 768.96 
L 577.118182 613.305608 
L 575.427273 613.305608 
z
" style="fill:#1f77b4;"/>
   </g>
   <g id="patch_126">
    <path clip-path="url(#p581288a338)" d="M 578.809091 768.96 
L 580.5 768.96 
L 580.5 361.747311 
L 578.809091 361.747311 
z
" style="fill:#1f77b4;"/>
   </g>
   <g id="patch_127">
    <path clip-path="url(#p581288a338)" d="M 582.190909 768.96 
L 583.881818 768.96 
L 583.881818 371.243266 
L 582.190909 371.243266 
z
" style="fill:#1f77b4;"/>
   </g>
   <g id="patch_128">
    <path clip-path="url(#p581288a338)" d="M 585.572727 768.96 
L 587.263636 768.96 
L 587.263636 470.889592 
L 585.572727 470.889592 
z
" style="fill:#1f77b4;"/>
   </g>
   <g id="patch_129">
    <path clip-path="url(#p581288a338)" d="M 588.954545 768.96 
L 590.645455 768.96 
L 590.645455 323.442876 
L 588.954545 323.442876 
z
" style="fill:#1f77b4;"/>
   </g>
   <g id="patch_130">
    <path clip-path="url(#p581288a338)" d="M 592.336364 768.96 
L 594.027273 768.96 
L 594.027273 467.432808 
L 592.336364 467.432808 
z
" style="fill:#1f77b4;"/>
   </g>
   <g id="patch_131">
    <path clip-path="url(#p581288a338)" d="M 595.718182 768.96 
L 597.409091 768.96 
L 597.409091 500.391759 
L 595.718182 500.391759 
z
" style="fill:#1f77b4;"/>
   </g>
   <g id="patch_132">
    <path clip-path="url(#p581288a338)" d="M 599.1 768.96 
L 600.790909 768.96 
L 600.790909 528.996212 
L 599.1 528.996212 
z
" style="fill:#1f77b4;"/>
   </g>
   <g id="patch_133">
    <path clip-path="url(#p581288a338)" d="M 602.481818 768.96 
L 604.172727 768.96 
L 604.172727 461.008901 
L 602.481818 461.008901 
z
" style="fill:#1f77b4;"/>
   </g>
   <g id="patch_134">
    <path clip-path="url(#p581288a338)" d="M 605.863636 768.96 
L 607.554545 768.96 
L 607.554545 489.922308 
L 605.863636 489.922308 
z
" style="fill:#1f77b4;"/>
   </g>
   <g id="patch_135">
    <path clip-path="url(#p581288a338)" d="M 609.245455 768.96 
L 610.936364 768.96 
L 610.936364 478.356945 
L 609.245455 478.356945 
z
" style="fill:#1f77b4;"/>
   </g>
   <g id="patch_136">
    <path clip-path="url(#p581288a338)" d="M 612.627273 768.96 
L 614.318182 768.96 
L 614.318182 349.74475 
L 612.627273 349.74475 
z
" style="fill:#1f77b4;"/>
   </g>
   <g id="patch_137">
    <path clip-path="url(#p581288a338)" d="M 616.009091 768.96 
L 617.7 768.96 
L 617.7 534.330036 
L 616.009091 534.330036 
z
" style="fill:#1f77b4;"/>
   </g>
   <g id="patch_138">
    <path clip-path="url(#p581288a338)" d="M 619.390909 768.96 
L 621.081818 768.96 
L 621.081818 674.711621 
L 619.390909 674.711621 
z
" style="fill:#1f77b4;"/>
   </g>
   <g id="patch_139">
    <path clip-path="url(#p581288a338)" d="M 622.772727 768.96 
L 624.463636 768.96 
L 624.463636 606.269624 
L 622.772727 606.269624 
z
" style="fill:#1f77b4;"/>
   </g>
   <g id="patch_140">
    <path clip-path="url(#p581288a338)" d="M 626.154545 768.96 
L 627.845455 768.96 
L 627.845455 466.535093 
L 626.154545 466.535093 
z
" style="fill:#1f77b4;"/>
   </g>
   <g id="patch_141">
    <path clip-path="url(#p581288a338)" d="M 629.536364 768.96 
L 631.227273 768.96 
L 631.227273 499.756364 
L 629.536364 499.756364 
z
" style="fill:#1f77b4;"/>
   </g>
   <g id="patch_142">
    <path clip-path="url(#p581288a338)" d="M 632.918182 768.96 
L 634.609091 768.96 
L 634.609091 383.752978 
L 632.918182 383.752978 
z
" style="fill:#1f77b4;"/>
   </g>
   <g id="patch_143">
    <path clip-path="url(#p581288a338)" d="M 636.3 768.96 
L 637.990909 768.96 
L 637.990909 520.07153 
L 636.3 520.07153 
z
" style="fill:#1f77b4;"/>
   </g>
   <g id="patch_144">
    <path clip-path="url(#p581288a338)" d="M 639.681818 768.96 
L 641.372727 768.96 
L 641.372727 569.008637 
L 639.681818 569.008637 
z
" style="fill:#1f77b4;"/>
   </g>
   <g id="patch_145">
    <path clip-path="url(#p581288a338)" d="M 643.063636 768.96 
L 644.754545 768.96 
L 644.754545 677.154104 
L 643.063636 677.154104 
z
" style="fill:#1f77b4;"/>
   </g>
   <g id="patch_146">
    <path clip-path="url(#p581288a338)" d="M 646.445455 768.96 
L 648.136364 768.96 
L 648.136364 617.899109 
L 646.445455 617.899109 
z
" style="fill:#1f77b4;"/>
   </g>
   <g id="patch_147">
    <path clip-path="url(#p581288a338)" d="M 649.827273 768.96 
L 651.518182 768.96 
L 651.518182 584.695326 
L 649.827273 584.695326 
z
" style="fill:#1f77b4;"/>
   </g>
   <g id="patch_148">
    <path clip-path="url(#p581288a338)" d="M 653.209091 768.96 
L 654.9 768.96 
L 654.9 583.815099 
L 653.209091 583.815099 
z
" style="fill:#1f77b4;"/>
   </g>
   <g id="patch_149">
    <path clip-path="url(#p581288a338)" d="M 656.590909 768.96 
L 658.281818 768.96 
L 658.281818 573.199915 
L 656.590909 573.199915 
z
" style="fill:#1f77b4;"/>
   </g>
   <g id="patch_150">
    <path clip-path="url(#p581288a338)" d="M 659.972727 768.96 
L 661.663636 768.96 
L 661.663636 586.391656 
L 659.972727 586.391656 
z
" style="fill:#1f77b4;"/>
   </g>
   <g id="patch_151">
    <path clip-path="url(#p581288a338)" d="M 663.354545 768.96 
L 665.045455 768.96 
L 665.045455 644.026102 
L 663.354545 644.026102 
z
" style="fill:#1f77b4;"/>
   </g>
   <g id="patch_152">
    <path clip-path="url(#p581288a338)" d="M 666.736364 768.96 
L 668.427273 768.96 
L 668.427273 698.868306 
L 666.736364 698.868306 
z
" style="fill:#1f77b4;"/>
   </g>
   <g id="patch_153">
    <path clip-path="url(#p581288a338)" d="M 670.118182 768.96 
L 671.809091 768.96 
L 671.809091 718.058414 
L 670.118182 718.058414 
z
" style="fill:#1f77b4;"/>
   </g>
   <g id="patch_154">
    <path clip-path="url(#p581288a338)" d="M 673.5 768.96 
L 675.190909 768.96 
L 675.190909 659.141518 
L 673.5 659.141518 
z
" style="fill:#1f77b4;"/>
   </g>
   <g id="patch_155">
    <path clip-path="url(#p581288a338)" d="M 676.881818 768.96 
L 678.572727 768.96 
L 678.572727 652.962444 
L 676.881818 652.962444 
z
" style="fill:#1f77b4;"/>
   </g>
   <g id="patch_156">
    <path clip-path="url(#p581288a338)" d="M 680.263636 768.96 
L 681.954545 768.96 
L 681.954545 581.156931 
L 680.263636 581.156931 
z
" style="fill:#1f77b4;"/>
   </g>
   <g id="patch_157">
    <path clip-path="url(#p581288a338)" d="M 683.645455 768.96 
L 685.336364 768.96 
L 685.336364 556.912806 
L 683.645455 556.912806 
z
" style="fill:#1f77b4;"/>
   </g>
   <g id="patch_158">
    <path clip-path="url(#p581288a338)" d="M 687.027273 768.96 
L 688.718182 768.96 
L 688.718182 579.658797 
L 687.027273 579.658797 
z
" style="fill:#1f77b4;"/>
   </g>
   <g id="patch_159">
    <path clip-path="url(#p581288a338)" d="M 690.409091 768.96 
L 692.1 768.96 
L 692.1 634.238681 
L 690.409091 634.238681 
z
" style="fill:#1f77b4;"/>
   </g>
   <g id="patch_160">
    <path clip-path="url(#p581288a338)" d="M 693.790909 768.96 
L 695.481818 768.96 
L 695.481818 582.520991 
L 693.790909 582.520991 
z
" style="fill:#1f77b4;"/>
   </g>
   <g id="patch_161">
    <path clip-path="url(#p581288a338)" d="M 697.172727 768.96 
L 698.863636 768.96 
L 698.863636 568.676366 
L 697.172727 568.676366 
z
" style="fill:#1f77b4;"/>
   </g>
   <g id="patch_162">
    <path clip-path="url(#p581288a338)" d="M 700.554545 768.96 
L 702.245455 768.96 
L 702.245455 535.274386 
L 700.554545 535.274386 
z
" style="fill:#1f77b4;"/>
   </g>
   <g id="patch_163">
    <path clip-path="url(#p581288a338)" d="M 703.936364 768.96 
L 705.627273 768.96 
L 705.627273 606.89336 
L 703.936364 606.89336 
z
" style="fill:#1f77b4;"/>
   </g>
   <g id="patch_164">
    <path clip-path="url(#p581288a338)" d="M 707.318182 768.96 
L 709.009091 768.96 
L 709.009091 615.555724 
L 707.318182 615.555724 
z
" style="fill:#1f77b4;"/>
   </g>
   <g id="patch_165">
    <path clip-path="url(#p581288a338)" d="M 710.7 768.96 
L 712.390909 768.96 
L 712.390909 675.609336 
L 710.7 675.609336 
z
" style="fill:#1f77b4;"/>
   </g>
   <g id="patch_166">
    <path clip-path="url(#p581288a338)" d="M 714.081818 768.96 
L 715.772727 768.96 
L 715.772727 675.533555 
L 714.081818 675.533555 
z
" style="fill:#1f77b4;"/>
   </g>
   <g id="patch_167">
    <path clip-path="url(#p581288a338)" d="M 717.463636 768.96 
L 719.154545 768.96 
L 719.154545 484.87995 
L 717.463636 484.87995 
z
" style="fill:#1f77b4;"/>
   </g>
   <g id="patch_168">
    <path clip-path="url(#p581288a338)" d="M 720.845455 768.96 
L 722.536364 768.96 
L 722.536364 558.125304 
L 720.845455 558.125304 
z
" style="fill:#1f77b4;"/>
   </g>
   <g id="patch_169">
    <path clip-path="url(#p581288a338)" d="M 724.227273 768.96 
L 725.918182 768.96 
L 725.918182 624.608651 
L 724.227273 624.608651 
z
" style="fill:#1f77b4;"/>
   </g>
   <g id="patch_170">
    <path clip-path="url(#p581288a338)" d="M 727.609091 768.96 
L 729.3 768.96 
L 729.3 579.250744 
L 727.609091 579.250744 
z
" style="fill:#1f77b4;"/>
   </g>
   <g id="patch_171">
    <path clip-path="url(#p581288a338)" d="M 730.990909 768.96 
L 732.681818 768.96 
L 732.681818 677.690402 
L 730.990909 677.690402 
z
" style="fill:#1f77b4;"/>
   </g>
   <g id="patch_172">
    <path clip-path="url(#p581288a338)" d="M 734.372727 768.96 
L 736.063636 768.96 
L 736.063636 627.150233 
L 734.372727 627.150233 
z
" style="fill:#1f77b4;"/>
   </g>
   <g id="patch_173">
    <path clip-path="url(#p581288a338)" d="M 737.754545 768.96 
L 739.445455 768.96 
L 739.445455 708.364262 
L 737.754545 708.364262 
z
" style="fill:#1f77b4;"/>
   </g>
   <g id="patch_174">
    <path clip-path="url(#p581288a338)" d="M 741.136364 768.96 
L 742.827273 768.96 
L 742.827273 694.799444 
L 741.136364 694.799444 
z
" style="fill:#1f77b4;"/>
   </g>
   <g id="patch_175">
    <path clip-path="url(#p581288a338)" d="M 744.518182 768.96 
L 746.209091 768.96 
L 746.209091 678.582287 
L 744.518182 678.582287 
z
" style="fill:#1f77b4;"/>
   </g>
   <g id="patch_176">
    <path clip-path="url(#p581288a338)" d="M 747.9 768.96 
L 749.590909 768.96 
L 749.590909 659.29891 
L 747.9 659.29891 
z
" style="fill:#1f77b4;"/>
   </g>
   <g id="patch_177">
    <path clip-path="url(#p581288a338)" d="M 751.281818 768.96 
L 752.972727 768.96 
L 752.972727 635.789279 
L 751.281818 635.789279 
z
" style="fill:#1f77b4;"/>
   </g>
   <g id="patch_178">
    <path clip-path="url(#p581288a338)" d="M 754.663636 768.96 
L 756.354545 768.96 
L 756.354545 473.081415 
L 754.663636 473.081415 
z
" style="fill:#1f77b4;"/>
   </g>
   <g id="patch_179">
    <path clip-path="url(#p581288a338)" d="M 758.045455 768.96 
L 759.736364 768.96 
L 759.736364 427.181382 
L 758.045455 427.181382 
z
" style="fill:#1f77b4;"/>
   </g>
   <g id="patch_180">
    <path clip-path="url(#p581288a338)" d="M 761.427273 768.96 
L 763.118182 768.96 
L 763.118182 738.36775 
L 761.427273 738.36775 
z
" style="fill:#1f77b4;"/>
   </g>
   <g id="patch_181">
    <path clip-path="url(#p581288a338)" d="M 764.809091 768.96 
L 766.5 768.96 
L 766.5 692.95738 
L 764.809091 692.95738 
z
" style="fill:#1f77b4;"/>
   </g>
   <g id="patch_182">
    <path clip-path="url(#p581288a338)" d="M 768.190909 768.96 
L 769.881818 768.96 
L 769.881818 675.06138 
L 768.190909 675.06138 
z
" style="fill:#1f77b4;"/>
   </g>
   <g id="patch_183">
    <path clip-path="url(#p581288a338)" d="M 771.572727 768.96 
L 773.263636 768.96 
L 773.263636 678.687215 
L 771.572727 678.687215 
z
" style="fill:#1f77b4;"/>
   </g>
   <g id="patch_184">
    <path clip-path="url(#p581288a338)" d="M 774.954545 768.96 
L 776.645455 768.96 
L 776.645455 687.780947 
L 774.954545 687.780947 
z
" style="fill:#1f77b4;"/>
   </g>
   <g id="patch_185">
    <path clip-path="url(#p581288a338)" d="M 778.336364 768.96 
L 780.027273 768.96 
L 780.027273 687.716825 
L 778.336364 687.716825 
z
" style="fill:#1f77b4;"/>
   </g>
   <g id="patch_186">
    <path clip-path="url(#p581288a338)" d="M 781.718182 768.96 
L 783.409091 768.96 
L 783.409091 708.335115 
L 781.718182 708.335115 
z
" style="fill:#1f77b4;"/>
   </g>
   <g id="patch_187">
    <path clip-path="url(#p581288a338)" d="M 785.1 768.96 
L 786.790909 768.96 
L 786.790909 739.883372 
L 785.1 739.883372 
z
" style="fill:#1f77b4;"/>
   </g>
   <g id="patch_188">
    <path clip-path="url(#p581288a338)" d="M 788.481818 768.96 
L 790.172727 768.96 
L 790.172727 763.981764 
L 788.481818 763.981764 
z
" style="fill:#1f77b4;"/>
   </g>
   <g id="patch_189">
    <path clip-path="url(#p581288a338)" d="M 791.863636 768.96 
L 793.554545 768.96 
L 793.554545 721.818323 
L 791.863636 721.818323 
z
" style="fill:#1f77b4;"/>
   </g>
   <g id="patch_190">
    <path clip-path="url(#p581288a338)" d="M 795.245455 768.96 
L 796.936364 768.96 
L 796.936364 685.810639 
L 795.245455 685.810639 
z
" style="fill:#1f77b4;"/>
   </g>
   <g id="patch_191">
    <path clip-path="url(#p581288a338)" d="M 798.627273 768.96 
L 800.318182 768.96 
L 800.318182 685.507514 
L 798.627273 685.507514 
z
" style="fill:#1f77b4;"/>
   </g>
   <g id="patch_192">
    <path clip-path="url(#p581288a338)" d="M 802.009091 768.96 
L 803.7 768.96 
L 803.7 695.644694 
L 802.009091 695.644694 
z
" style="fill:#1f77b4;"/>
   </g>
   <g id="patch_193">
    <path clip-path="url(#p581288a338)" d="M 805.390909 768.96 
L 807.081818 768.96 
L 807.081818 707.093471 
L 805.390909 707.093471 
z
" style="fill:#1f77b4;"/>
   </g>
   <g id="patch_194">
    <path clip-path="url(#p581288a338)" d="M 808.772727 768.96 
L 810.463636 768.96 
L 810.463636 726.819876 
L 808.772727 726.819876 
z
" style="fill:#1f77b4;"/>
   </g>
   <g id="patch_195">
    <path clip-path="url(#p581288a338)" d="M 812.154545 768.96 
L 813.845455 768.96 
L 813.845455 690.258407 
L 812.154545 690.258407 
z
" style="fill:#1f77b4;"/>
   </g>
   <g id="patch_196">
    <path clip-path="url(#p581288a338)" d="M 815.536364 768.96 
L 817.227273 768.96 
L 817.227273 703.712468 
L 815.536364 703.712468 
z
" style="fill:#1f77b4;"/>
   </g>
   <g id="patch_197">
    <path clip-path="url(#p581288a338)" d="M 818.918182 768.96 
L 820.609091 768.96 
L 820.609091 706.883615 
L 818.918182 706.883615 
z
" style="fill:#1f77b4;"/>
   </g>
   <g id="patch_198">
    <path clip-path="url(#p581288a338)" d="M 822.3 768.96 
L 823.990909 768.96 
L 823.990909 707.26835 
L 822.3 707.26835 
z
" style="fill:#1f77b4;"/>
   </g>
   <g id="patch_199">
    <path clip-path="url(#p581288a338)" d="M 825.681818 768.96 
L 827.372727 768.96 
L 827.372727 706.568832 
L 825.681818 706.568832 
z
" style="fill:#1f77b4;"/>
   </g>
   <g id="patch_200">
    <path clip-path="url(#p581288a338)" d="M 829.063636 768.96 
L 830.754545 768.96 
L 830.754545 716.904209 
L 829.063636 716.904209 
z
" style="fill:#1f77b4;"/>
   </g>
   <g id="patch_201">
    <path clip-path="url(#p581288a338)" d="M 832.445455 768.96 
L 834.136364 768.96 
L 834.136364 733.59937 
L 832.445455 733.59937 
z
" style="fill:#1f77b4;"/>
   </g>
   <g id="patch_202">
    <path clip-path="url(#p581288a338)" d="M 835.827273 768.96 
L 837.518182 768.96 
L 837.518182 716.455352 
L 835.827273 716.455352 
z
" style="fill:#1f77b4;"/>
   </g>
   <g id="patch_203">
    <path clip-path="url(#p581288a338)" d="M 839.209091 768.96 
L 840.9 768.96 
L 840.9 698.617645 
L 839.209091 698.617645 
z
" style="fill:#1f77b4;"/>
   </g>
   <g id="patch_204">
    <path clip-path="url(#p581288a338)" d="M 842.590909 768.96 
L 844.281818 768.96 
L 844.281818 703.339391 
L 842.590909 703.339391 
z
" style="fill:#1f77b4;"/>
   </g>
   <g id="patch_205">
    <path clip-path="url(#p581288a338)" d="M 845.972727 768.96 
L 847.663636 768.96 
L 847.663636 721.293684 
L 845.972727 721.293684 
z
" style="fill:#1f77b4;"/>
   </g>
   <g id="patch_206">
    <path clip-path="url(#p581288a338)" d="M 849.354545 768.96 
L 851.045455 768.96 
L 851.045455 720.296871 
L 849.354545 720.296871 
z
" style="fill:#1f77b4;"/>
   </g>
   <g id="patch_207">
    <path clip-path="url(#p581288a338)" d="M 852.736364 768.96 
L 854.427273 768.96 
L 854.427273 738.694192 
L 852.736364 738.694192 
z
" style="fill:#1f77b4;"/>
   </g>
   <g id="patch_208">
    <path clip-path="url(#p581288a338)" d="M 856.118182 768.96 
L 857.809091 768.96 
L 857.809091 751.390442 
L 856.118182 751.390442 
z
" style="fill:#1f77b4;"/>
   </g>
   <g id="patch_209">
    <path clip-path="url(#p581288a338)" d="M 859.5 768.96 
L 861.190909 768.96 
L 861.190909 739.609395 
L 859.5 739.609395 
z
" style="fill:#1f77b4;"/>
   </g>
   <g id="patch_210">
    <path clip-path="url(#p581288a338)" d="M 862.881818 768.96 
L 864.572727 768.96 
L 864.572727 702.173528 
L 862.881818 702.173528 
z
" style="fill:#1f77b4;"/>
   </g>
   <g id="patch_211">
    <path clip-path="url(#p581288a338)" d="M 866.263636 768.96 
L 867.954545 768.96 
L 867.954545 656.99633 
L 866.263636 656.99633 
z
" style="fill:#1f77b4;"/>
   </g>
   <g id="patch_212">
    <path clip-path="url(#p581288a338)" d="M 869.645455 768.96 
L 871.336364 768.96 
L 871.336364 710.690159 
L 869.645455 710.690159 
z
" style="fill:#1f77b4;"/>
   </g>
   <g id="patch_213">
    <path clip-path="url(#p581288a338)" d="M 873.027273 768.96 
L 874.718182 768.96 
L 874.718182 642.568773 
L 873.027273 642.568773 
z
" style="fill:#1f77b4;"/>
   </g>
   <g id="patch_214">
    <path clip-path="url(#p581288a338)" d="M 876.409091 768.96 
L 878.1 768.96 
L 878.1 722.972527 
L 876.409091 722.972527 
z
" style="fill:#1f77b4;"/>
   </g>
   <g id="patch_215">
    <path clip-path="url(#p581288a338)" d="M 879.790909 768.96 
L 881.481818 768.96 
L 881.481818 734.508743 
L 879.790909 734.508743 
z
" style="fill:#1f77b4;"/>
   </g>
   <g id="patch_216">
    <path clip-path="url(#p581288a338)" d="M 883.172727 768.96 
L 884.863636 768.96 
L 884.863636 722.133106 
L 883.172727 722.133106 
z
" style="fill:#1f77b4;"/>
   </g>
   <g id="patch_217">
    <path clip-path="url(#p581288a338)" d="M 886.554545 768.96 
L 888.245455 768.96 
L 888.245455 705.577849 
L 886.554545 705.577849 
z
" style="fill:#1f77b4;"/>
   </g>
   <g id="patch_218">
    <path clip-path="url(#p581288a338)" d="M 889.936364 768.96 
L 891.627273 768.96 
L 891.627273 710.608548 
L 889.936364 710.608548 
z
" style="fill:#1f77b4;"/>
   </g>
   <g id="patch_219">
    <path clip-path="url(#p581288a338)" d="M 893.318182 768.96 
L 895.009091 768.96 
L 895.009091 708.649898 
L 893.318182 708.649898 
z
" style="fill:#1f77b4;"/>
   </g>
   <g id="patch_220">
    <path clip-path="url(#p581288a338)" d="M 896.7 768.96 
L 898.390909 768.96 
L 898.390909 704.831696 
L 896.7 704.831696 
z
" style="fill:#1f77b4;"/>
   </g>
   <g id="patch_221">
    <path clip-path="url(#p581288a338)" d="M 900.081818 768.96 
L 901.772727 768.96 
L 901.772727 666.428163 
L 900.081818 666.428163 
z
" style="fill:#1f77b4;"/>
   </g>
   <g id="patch_222">
    <path clip-path="url(#p581288a338)" d="M 903.463636 768.96 
L 905.154545 768.96 
L 905.154545 728.953405 
L 903.463636 728.953405 
z
" style="fill:#1f77b4;"/>
   </g>
   <g id="patch_223">
    <path clip-path="url(#p581288a338)" d="M 906.845455 768.96 
L 908.536364 768.96 
L 908.536364 723.642898 
L 906.845455 723.642898 
z
" style="fill:#1f77b4;"/>
   </g>
   <g id="patch_224">
    <path clip-path="url(#p581288a338)" d="M 910.227273 768.96 
L 911.918182 768.96 
L 911.918182 725.840551 
L 910.227273 725.840551 
z
" style="fill:#1f77b4;"/>
   </g>
   <g id="patch_225">
    <path clip-path="url(#p581288a338)" d="M 913.609091 768.96 
L 915.3 768.96 
L 915.3 613.958491 
L 913.609091 613.958491 
z
" style="fill:#1f77b4;"/>
   </g>
   <g id="patch_226">
    <path clip-path="url(#p581288a338)" d="M 916.990909 768.96 
L 918.681818 768.96 
L 918.681818 632.361641 
L 916.990909 632.361641 
z
" style="fill:#1f77b4;"/>
   </g>
   <g id="patch_227">
    <path clip-path="url(#p581288a338)" d="M 920.372727 768.96 
L 922.063636 768.96 
L 922.063636 645.58253 
L 920.372727 645.58253 
z
" style="fill:#1f77b4;"/>
   </g>
   <g id="patch_228">
    <path clip-path="url(#p581288a338)" d="M 923.754545 768.96 
L 925.445455 768.96 
L 925.445455 608.059223 
L 923.754545 608.059223 
z
" style="fill:#1f77b4;"/>
   </g>
   <g id="patch_229">
    <path clip-path="url(#p581288a338)" d="M 927.136364 768.96 
L 928.827273 768.96 
L 928.827273 658.476976 
L 927.136364 658.476976 
z
" style="fill:#1f77b4;"/>
   </g>
   <g id="patch_230">
    <path clip-path="url(#p581288a338)" d="M 930.518182 768.96 
L 932.209091 768.96 
L 932.209091 715.19622 
L 930.518182 715.19622 
z
" style="fill:#1f77b4;"/>
   </g>
   <g id="patch_231">
    <path clip-path="url(#p581288a338)" d="M 933.9 768.96 
L 935.590909 768.96 
L 935.590909 692.864111 
L 933.9 692.864111 
z
" style="fill:#1f77b4;"/>
   </g>
   <g id="patch_232">
    <path clip-path="url(#p581288a338)" d="M 937.281818 768.96 
L 938.972727 768.96 
L 938.972727 697.282732 
L 937.281818 697.282732 
z
" style="fill:#1f77b4;"/>
   </g>
   <g id="patch_233">
    <path clip-path="url(#p581288a338)" d="M 940.663636 768.96 
L 942.354545 768.96 
L 942.354545 700.757004 
L 940.663636 700.757004 
z
" style="fill:#1f77b4;"/>
   </g>
   <g id="patch_234">
    <path clip-path="url(#p581288a338)" d="M 944.045455 768.96 
L 945.736364 768.96 
L 945.736364 702.937169 
L 944.045455 702.937169 
z
" style="fill:#1f77b4;"/>
   </g>
   <g id="patch_235">
    <path clip-path="url(#p581288a338)" d="M 947.427273 768.96 
L 949.118182 768.96 
L 949.118182 701.503157 
L 947.427273 701.503157 
z
" style="fill:#1f77b4;"/>
   </g>
   <g id="patch_236">
    <path clip-path="url(#p581288a338)" d="M 950.809091 768.96 
L 952.5 768.96 
L 952.5 724.109244 
L 950.809091 724.109244 
z
" style="fill:#1f77b4;"/>
   </g>
   <g id="patch_237">
    <path clip-path="url(#p581288a338)" d="M 954.190909 768.96 
L 955.881818 768.96 
L 955.881818 714.234383 
L 954.190909 714.234383 
z
" style="fill:#1f77b4;"/>
   </g>
   <g id="patch_238">
    <path clip-path="url(#p581288a338)" d="M 957.572727 768.96 
L 959.263636 768.96 
L 959.263636 693.190552 
L 957.572727 693.190552 
z
" style="fill:#1f77b4;"/>
   </g>
   <g id="patch_239">
    <path clip-path="url(#p581288a338)" d="M 960.954545 768.96 
L 962.645455 768.96 
L 962.645455 696.507433 
L 960.954545 696.507433 
z
" style="fill:#1f77b4;"/>
   </g>
   <g id="patch_240">
    <path clip-path="url(#p581288a338)" d="M 964.336364 768.96 
L 966.027273 768.96 
L 966.027273 692.514352 
L 964.336364 692.514352 
z
" style="fill:#1f77b4;"/>
   </g>
   <g id="patch_241">
    <path clip-path="url(#p581288a338)" d="M 967.718182 768.96 
L 969.409091 768.96 
L 969.409091 682.289732 
L 967.718182 682.289732 
z
" style="fill:#1f77b4;"/>
   </g>
   <g id="patch_242">
    <path clip-path="url(#p581288a338)" d="M 971.1 768.96 
L 972.790909 768.96 
L 972.790909 643.36156 
L 971.1 643.36156 
z
" style="fill:#1f77b4;"/>
   </g>
   <g id="patch_243">
    <path clip-path="url(#p581288a338)" d="M 974.481818 768.96 
L 976.172727 768.96 
L 976.172727 564.648308 
L 974.481818 564.648308 
z
" style="fill:#1f77b4;"/>
   </g>
   <g id="patch_244">
    <path clip-path="url(#p581288a338)" d="M 977.863636 768.96 
L 979.554545 768.96 
L 979.554545 674.099543 
L 977.863636 674.099543 
z
" style="fill:#1f77b4;"/>
   </g>
   <g id="patch_245">
    <path clip-path="url(#p581288a338)" d="M 981.245455 768.96 
L 982.936364 768.96 
L 982.936364 693.814289 
L 981.245455 693.814289 
z
" style="fill:#1f77b4;"/>
   </g>
   <g id="patch_246">
    <path clip-path="url(#p581288a338)" d="M 984.627273 768.96 
L 986.318182 768.96 
L 986.318182 698.891623 
L 984.627273 698.891623 
z
" style="fill:#1f77b4;"/>
   </g>
   <g id="patch_247">
    <path clip-path="url(#p581288a338)" d="M 988.009091 768.96 
L 989.7 768.96 
L 989.7 704.470279 
L 988.009091 704.470279 
z
" style="fill:#1f77b4;"/>
   </g>
   <g id="patch_248">
    <path clip-path="url(#p581288a338)" d="M 991.390909 768.96 
L 993.081818 768.96 
L 993.081818 703.729955 
L 991.390909 703.729955 
z
" style="fill:#1f77b4;"/>
   </g>
   <g id="patch_249">
    <path clip-path="url(#p581288a338)" d="M 994.772727 768.96 
L 996.463636 768.96 
L 996.463636 707.973697 
L 994.772727 707.973697 
z
" style="fill:#1f77b4;"/>
   </g>
   <g id="patch_250">
    <path clip-path="url(#p581288a338)" d="M 998.154545 768.96 
L 999.845455 768.96 
L 999.845455 727.111341 
L 998.154545 727.111341 
z
" style="fill:#1f77b4;"/>
   </g>
   <g id="patch_251">
    <path clip-path="url(#p581288a338)" d="M 1001.536364 768.96 
L 1003.227273 768.96 
L 1003.227273 739.516126 
L 1001.536364 739.516126 
z
" style="fill:#1f77b4;"/>
   </g>
   <g id="patch_252">
    <path clip-path="url(#p581288a338)" d="M 1004.918182 768.96 
L 1006.609091 768.96 
L 1006.609091 732.923169 
L 1004.918182 732.923169 
z
" style="fill:#1f77b4;"/>
   </g>
   <g id="patch_253">
    <path clip-path="url(#p581288a338)" d="M 1008.3 768.96 
L 1009.990909 768.96 
L 1009.990909 695.796257 
L 1008.3 695.796257 
z
" style="fill:#1f77b4;"/>
   </g>
   <g id="patch_254">
    <path clip-path="url(#p581288a338)" d="M 1011.681818 768.96 
L 1013.372727 768.96 
L 1013.372727 704.785062 
L 1011.681818 704.785062 
z
" style="fill:#1f77b4;"/>
   </g>
   <g id="patch_255">
    <path clip-path="url(#p581288a338)" d="M 1015.063636 768.96 
L 1016.754545 768.96 
L 1016.754545 707.775501 
L 1015.063636 707.775501 
z
" style="fill:#1f77b4;"/>
   </g>
   <g id="patch_256">
    <path clip-path="url(#p581288a338)" d="M 1018.445455 768.96 
L 1020.136364 768.96 
L 1020.136364 712.689614 
L 1018.445455 712.689614 
z
" style="fill:#1f77b4;"/>
   </g>
   <g id="patch_257">
    <path clip-path="url(#p581288a338)" d="M 1021.827273 768.96 
L 1023.518182 768.96 
L 1023.518182 727.099683 
L 1021.827273 727.099683 
z
" style="fill:#1f77b4;"/>
   </g>
   <g id="patch_258">
    <path clip-path="url(#p581288a338)" d="M 1025.209091 768.96 
L 1026.9 768.96 
L 1026.9 722.302156 
L 1025.209091 722.302156 
z
" style="fill:#1f77b4;"/>
   </g>
   <g id="patch_259">
    <path clip-path="url(#p581288a338)" d="M 1028.590909 768.96 
L 1030.281818 768.96 
L 1030.281818 706.230732 
L 1028.590909 706.230732 
z
" style="fill:#1f77b4;"/>
   </g>
   <g id="patch_260">
    <path clip-path="url(#p581288a338)" d="M 1031.972727 768.96 
L 1033.663636 768.96 
L 1033.663636 709.500978 
L 1031.972727 709.500978 
z
" style="fill:#1f77b4;"/>
   </g>
   <g id="patch_261">
    <path clip-path="url(#p581288a338)" d="M 1035.354545 768.96 
L 1037.045455 768.96 
L 1037.045455 709.028804 
L 1035.354545 709.028804 
z
" style="fill:#1f77b4;"/>
   </g>
   <g id="patch_262">
    <path clip-path="url(#p581288a338)" d="M 1038.736364 768.96 
L 1040.427273 768.96 
L 1040.427273 706.790346 
L 1038.736364 706.790346 
z
" style="fill:#1f77b4;"/>
   </g>
   <g id="patch_263">
    <path clip-path="url(#p581288a338)" d="M 1042.118182 768.96 
L 1043.809091 768.96 
L 1043.809091 707.775501 
L 1042.118182 707.775501 
z
" style="fill:#1f77b4;"/>
   </g>
   <g id="patch_264">
    <path clip-path="url(#p581288a338)" d="M 1045.5 768.96 
L 1047.190909 768.96 
L 1047.190909 724.459003 
L 1045.5 724.459003 
z
" style="fill:#1f77b4;"/>
   </g>
   <g id="patch_265">
    <path clip-path="url(#p581288a338)" d="M 1048.881818 768.96 
L 1050.572727 768.96 
L 1050.572727 727.80503 
L 1048.881818 727.80503 
z
" style="fill:#1f77b4;"/>
   </g>
   <g id="patch_266">
    <path clip-path="url(#p581288a338)" d="M 1052.263636 768.96 
L 1053.954545 768.96 
L 1053.954545 698.827501 
L 1052.263636 698.827501 
z
" style="fill:#1f77b4;"/>
   </g>
   <g id="patch_267">
    <path clip-path="url(#p581288a338)" d="M 1055.645455 768.96 
L 1057.336364 768.96 
L 1057.336364 718.355709 
L 1055.645455 718.355709 
z
" style="fill:#1f77b4;"/>
   </g>
   <g id="patch_268">
    <path clip-path="url(#p581288a338)" d="M 1059.027273 768.96 
L 1060.718182 768.96 
L 1060.718182 695.25996 
L 1059.027273 695.25996 
z
" style="fill:#1f77b4;"/>
   </g>
   <g id="patch_269">
    <path clip-path="url(#p581288a338)" d="M 1062.409091 768.96 
L 1064.1 768.96 
L 1064.1 698.186276 
L 1062.409091 698.186276 
z
" style="fill:#1f77b4;"/>
   </g>
   <g id="patch_270">
    <path clip-path="url(#p581288a338)" d="M 1065.790909 768.96 
L 1067.481818 768.96 
L 1067.481818 712.095024 
L 1065.790909 712.095024 
z
" style="fill:#1f77b4;"/>
   </g>
   <g id="patch_271">
    <path clip-path="url(#p581288a338)" d="M 1069.172727 768.96 
L 1070.863636 768.96 
L 1070.863636 731.699013 
L 1069.172727 731.699013 
z
" style="fill:#1f77b4;"/>
   </g>
   <g id="patch_272">
    <path clip-path="url(#p581288a338)" d="M 1072.554545 768.96 
L 1074.245455 768.96 
L 1074.245455 722.290497 
L 1072.554545 722.290497 
z
" style="fill:#1f77b4;"/>
   </g>
   <g id="patch_273">
    <path clip-path="url(#p581288a338)" d="M 1075.936364 768.96 
L 1077.627273 768.96 
L 1077.627273 714.135284 
L 1075.936364 714.135284 
z
" style="fill:#1f77b4;"/>
   </g>
   <g id="patch_274">
    <path clip-path="url(#p581288a338)" d="M 1079.318182 768.96 
L 1081.009091 768.96 
L 1081.009091 729.396433 
L 1079.318182 729.396433 
z
" style="fill:#1f77b4;"/>
   </g>
   <g id="patch_275">
    <path clip-path="url(#p581288a338)" d="M 1082.7 768.96 
L 1084.390909 768.96 
L 1084.390909 741.626338 
L 1082.7 741.626338 
z
" style="fill:#1f77b4;"/>
   </g>
   <g id="patch_276">
    <path clip-path="url(#p581288a338)" d="M 1086.081818 768.96 
L 1087.772727 768.96 
L 1087.772727 700.902737 
L 1086.081818 700.902737 
z
" style="fill:#1f77b4;"/>
   </g>
   <g id="patch_277">
    <path clip-path="url(#p581288a338)" d="M 1089.463636 768.96 
L 1091.154545 768.96 
L 1091.154545 680.022128 
L 1089.463636 680.022128 
z
" style="fill:#1f77b4;"/>
   </g>
   <g id="patch_278">
    <path clip-path="url(#p581288a338)" d="M 1092.845455 768.96 
L 1094.536364 768.96 
L 1094.536364 738.041309 
L 1092.845455 738.041309 
z
" style="fill:#1f77b4;"/>
   </g>
   <g id="patch_279">
    <path clip-path="url(#p581288a338)" d="M 1096.227273 768.96 
L 1097.918182 768.96 
L 1097.918182 711.517921 
L 1096.227273 711.517921 
z
" style="fill:#1f77b4;"/>
   </g>
   <g id="patch_280">
    <path clip-path="url(#p581288a338)" d="M 1099.609091 768.96 
L 1101.3 768.96 
L 1101.3 736.292514 
L 1099.609091 736.292514 
z
" style="fill:#1f77b4;"/>
   </g>
   <g id="patch_281">
    <path clip-path="url(#p581288a338)" d="M 1102.990909 768.96 
L 1104.681818 768.96 
L 1104.681818 701.625572 
L 1102.990909 701.625572 
z
" style="fill:#1f77b4;"/>
   </g>
   <g id="patch_282">
    <path clip-path="url(#p581288a338)" d="M 1106.372727 768.96 
L 1108.063636 768.96 
L 1108.063636 723.100772 
L 1106.372727 723.100772 
z
" style="fill:#1f77b4;"/>
   </g>
   <g id="patch_283">
    <path clip-path="url(#p581288a338)" d="M 1109.754545 768.96 
L 1111.445455 768.96 
L 1111.445455 724.30744 
L 1109.754545 724.30744 
z
" style="fill:#1f77b4;"/>
   </g>
   <g id="patch_284">
    <path clip-path="url(#p581288a338)" d="M 1113.136364 768.96 
L 1114.827273 768.96 
L 1114.827273 737.557475 
L 1113.136364 737.557475 
z
" style="fill:#1f77b4;"/>
   </g>
   <g id="patch_285">
    <path clip-path="url(#p581288a338)" d="M 1116.518182 768.96 
L 1118.209091 768.96 
L 1118.209091 746.161546 
L 1116.518182 746.161546 
z
" style="fill:#1f77b4;"/>
   </g>
   <g id="patch_286">
    <path clip-path="url(#p581288a338)" d="M 1119.9 768.96 
L 1121.590909 768.96 
L 1121.590909 737.51667 
L 1119.9 737.51667 
z
" style="fill:#1f77b4;"/>
   </g>
   <g id="patch_287">
    <path clip-path="url(#p581288a338)" d="M 1123.281818 768.96 
L 1124.972727 768.96 
L 1124.972727 722.552816 
L 1123.281818 722.552816 
z
" style="fill:#1f77b4;"/>
   </g>
   <g id="patch_288">
    <path clip-path="url(#p581288a338)" d="M 1126.663636 768.96 
L 1128.354545 768.96 
L 1128.354545 718.559735 
L 1126.663636 718.559735 
z
" style="fill:#1f77b4;"/>
   </g>
   <g id="patch_289">
    <path clip-path="url(#p581288a338)" d="M 1130.045455 768.96 
L 1131.736364 768.96 
L 1131.736364 732.118724 
L 1130.045455 732.118724 
z
" style="fill:#1f77b4;"/>
   </g>
   <g id="patch_290">
    <path clip-path="url(#p581288a338)" d="M 1133.427273 768.96 
L 1135.118182 768.96 
L 1135.118182 708.276822 
L 1133.427273 708.276822 
z
" style="fill:#1f77b4;"/>
   </g>
   <g id="patch_291">
    <path clip-path="url(#p581288a338)" d="M 1136.809091 768.96 
L 1138.5 768.96 
L 1138.5 732.620045 
L 1136.809091 732.620045 
z
" style="fill:#1f77b4;"/>
   </g>
   <g id="patch_292">
    <path clip-path="url(#p581288a338)" d="M 1140.190909 768.96 
L 1141.881818 768.96 
L 1141.881818 747.770437 
L 1140.190909 747.770437 
z
" style="fill:#1f77b4;"/>
   </g>
   <g id="patch_293">
    <path clip-path="url(#p581288a338)" d="M 1143.572727 768.96 
L 1145.263636 768.96 
L 1145.263636 734.642818 
L 1143.572727 734.642818 
z
" style="fill:#1f77b4;"/>
   </g>
   <g id="patch_294">
    <path clip-path="url(#p581288a338)" d="M 1146.954545 768.96 
L 1148.645455 768.96 
L 1148.645455 729.040845 
L 1146.954545 729.040845 
z
" style="fill:#1f77b4;"/>
   </g>
   <g id="patch_295">
    <path clip-path="url(#p581288a338)" d="M 1150.336364 768.96 
L 1152.027273 768.96 
L 1152.027273 727.863323 
L 1150.336364 727.863323 
z
" style="fill:#1f77b4;"/>
   </g>
   <g id="patch_296">
    <path clip-path="url(#p581288a338)" d="M 1153.718182 768.96 
L 1155.409091 768.96 
L 1155.409091 722.890917 
L 1153.718182 722.890917 
z
" style="fill:#1f77b4;"/>
   </g>
   <g id="patch_297">
    <path clip-path="url(#p581288a338)" d="M 1157.1 768.96 
L 1158.790909 768.96 
L 1158.790909 725.566573 
L 1157.1 725.566573 
z
" style="fill:#1f77b4;"/>
   </g>
   <g id="patch_298">
    <path clip-path="url(#p581288a338)" d="M 1160.481818 768.96 
L 1162.172727 768.96 
L 1162.172727 730.912055 
L 1160.481818 730.912055 
z
" style="fill:#1f77b4;"/>
   </g>
   <g id="patch_299">
    <path clip-path="url(#p581288a338)" d="M 1163.863636 768.96 
L 1165.554545 768.96 
L 1165.554545 737.499182 
L 1163.863636 737.499182 
z
" style="fill:#1f77b4;"/>
   </g>
   <g id="matplotlib.axis_1">
    <g id="xtick_1">
     <g id="line2d_1">
      <defs>
       <path d="M 0 0 
L 0 3.5 
" id="m743e398b45" style="stroke:#000000;stroke-width:0.8;"/>
      </defs>
      <g>
       <use style="stroke:#000000;stroke-width:0.8;" x="163.690909" xlink:href="#m743e398b45" y="768.96"/>
      </g>
     </g>
     <g id="text_1">
      <!-- January -->
      <g transform="translate(144.73544 783.558437)scale(0.1 -0.1)">
       <defs>
        <path d="M 628 4666 
L 1259 4666 
L 1259 325 
Q 1259 -519 939 -900 
Q 619 -1281 -91 -1281 
L -331 -1281 
L -331 -750 
L -134 -750 
Q 284 -750 456 -515 
Q 628 -281 628 325 
L 628 4666 
z
" id="DejaVuSans-4a" transform="scale(0.015625)"/>
        <path d="M 2194 1759 
Q 1497 1759 1228 1600 
Q 959 1441 959 1056 
Q 959 750 1161 570 
Q 1363 391 1709 391 
Q 2188 391 2477 730 
Q 2766 1069 2766 1631 
L 2766 1759 
L 2194 1759 
z
M 3341 1997 
L 3341 0 
L 2766 0 
L 2766 531 
Q 2569 213 2275 61 
Q 1981 -91 1556 -91 
Q 1019 -91 701 211 
Q 384 513 384 1019 
Q 384 1609 779 1909 
Q 1175 2209 1959 2209 
L 2766 2209 
L 2766 2266 
Q 2766 2663 2505 2880 
Q 2244 3097 1772 3097 
Q 1472 3097 1187 3025 
Q 903 2953 641 2809 
L 641 3341 
Q 956 3463 1253 3523 
Q 1550 3584 1831 3584 
Q 2591 3584 2966 3190 
Q 3341 2797 3341 1997 
z
" id="DejaVuSans-61" transform="scale(0.015625)"/>
        <path d="M 3513 2113 
L 3513 0 
L 2938 0 
L 2938 2094 
Q 2938 2591 2744 2837 
Q 2550 3084 2163 3084 
Q 1697 3084 1428 2787 
Q 1159 2491 1159 1978 
L 1159 0 
L 581 0 
L 581 3500 
L 1159 3500 
L 1159 2956 
Q 1366 3272 1645 3428 
Q 1925 3584 2291 3584 
Q 2894 3584 3203 3211 
Q 3513 2838 3513 2113 
z
" id="DejaVuSans-6e" transform="scale(0.015625)"/>
        <path d="M 544 1381 
L 544 3500 
L 1119 3500 
L 1119 1403 
Q 1119 906 1312 657 
Q 1506 409 1894 409 
Q 2359 409 2629 706 
Q 2900 1003 2900 1516 
L 2900 3500 
L 3475 3500 
L 3475 0 
L 2900 0 
L 2900 538 
Q 2691 219 2414 64 
Q 2138 -91 1772 -91 
Q 1169 -91 856 284 
Q 544 659 544 1381 
z
M 1991 3584 
L 1991 3584 
z
" id="DejaVuSans-75" transform="scale(0.015625)"/>
        <path d="M 2631 2963 
Q 2534 3019 2420 3045 
Q 2306 3072 2169 3072 
Q 1681 3072 1420 2755 
Q 1159 2438 1159 1844 
L 1159 0 
L 581 0 
L 581 3500 
L 1159 3500 
L 1159 2956 
Q 1341 3275 1631 3429 
Q 1922 3584 2338 3584 
Q 2397 3584 2469 3576 
Q 2541 3569 2628 3553 
L 2631 2963 
z
" id="DejaVuSans-72" transform="scale(0.015625)"/>
        <path d="M 2059 -325 
Q 1816 -950 1584 -1140 
Q 1353 -1331 966 -1331 
L 506 -1331 
L 506 -850 
L 844 -850 
Q 1081 -850 1212 -737 
Q 1344 -625 1503 -206 
L 1606 56 
L 191 3500 
L 800 3500 
L 1894 763 
L 2988 3500 
L 3597 3500 
L 2059 -325 
z
" id="DejaVuSans-79" transform="scale(0.015625)"/>
       </defs>
       <use xlink:href="#DejaVuSans-4a"/>
       <use x="29.492188" xlink:href="#DejaVuSans-61"/>
       <use x="90.771484" xlink:href="#DejaVuSans-6e"/>
       <use x="154.150391" xlink:href="#DejaVuSans-75"/>
       <use x="217.529297" xlink:href="#DejaVuSans-61"/>
       <use x="278.808594" xlink:href="#DejaVuSans-72"/>
       <use x="319.921875" xlink:href="#DejaVuSans-79"/>
      </g>
     </g>
    </g>
    <g id="xtick_2">
     <g id="line2d_2">
      <g>
       <use style="stroke:#000000;stroke-width:0.8;" x="268.527273" xlink:href="#m743e398b45" y="768.96"/>
      </g>
     </g>
     <g id="text_2">
      <!-- February -->
      <g transform="translate(246.372585 783.558437)scale(0.1 -0.1)">
       <defs>
        <path d="M 628 4666 
L 3309 4666 
L 3309 4134 
L 1259 4134 
L 1259 2759 
L 3109 2759 
L 3109 2228 
L 1259 2228 
L 1259 0 
L 628 0 
L 628 4666 
z
" id="DejaVuSans-46" transform="scale(0.015625)"/>
        <path d="M 3597 1894 
L 3597 1613 
L 953 1613 
Q 991 1019 1311 708 
Q 1631 397 2203 397 
Q 2534 397 2845 478 
Q 3156 559 3463 722 
L 3463 178 
Q 3153 47 2828 -22 
Q 2503 -91 2169 -91 
Q 1331 -91 842 396 
Q 353 884 353 1716 
Q 353 2575 817 3079 
Q 1281 3584 2069 3584 
Q 2775 3584 3186 3129 
Q 3597 2675 3597 1894 
z
M 3022 2063 
Q 3016 2534 2758 2815 
Q 2500 3097 2075 3097 
Q 1594 3097 1305 2825 
Q 1016 2553 972 2059 
L 3022 2063 
z
" id="DejaVuSans-65" transform="scale(0.015625)"/>
        <path d="M 3116 1747 
Q 3116 2381 2855 2742 
Q 2594 3103 2138 3103 
Q 1681 3103 1420 2742 
Q 1159 2381 1159 1747 
Q 1159 1113 1420 752 
Q 1681 391 2138 391 
Q 2594 391 2855 752 
Q 3116 1113 3116 1747 
z
M 1159 2969 
Q 1341 3281 1617 3432 
Q 1894 3584 2278 3584 
Q 2916 3584 3314 3078 
Q 3713 2572 3713 1747 
Q 3713 922 3314 415 
Q 2916 -91 2278 -91 
Q 1894 -91 1617 61 
Q 1341 213 1159 525 
L 1159 0 
L 581 0 
L 581 4863 
L 1159 4863 
L 1159 2969 
z
" id="DejaVuSans-62" transform="scale(0.015625)"/>
       </defs>
       <use xlink:href="#DejaVuSans-46"/>
       <use x="52.019531" xlink:href="#DejaVuSans-65"/>
       <use x="113.542969" xlink:href="#DejaVuSans-62"/>
       <use x="177.019531" xlink:href="#DejaVuSans-72"/>
       <use x="218.132812" xlink:href="#DejaVuSans-75"/>
       <use x="281.511719" xlink:href="#DejaVuSans-61"/>
       <use x="342.791016" xlink:href="#DejaVuSans-72"/>
       <use x="383.904297" xlink:href="#DejaVuSans-79"/>
      </g>
     </g>
    </g>
    <g id="xtick_3">
     <g id="line2d_3">
      <g>
       <use style="stroke:#000000;stroke-width:0.8;" x="363.218182" xlink:href="#m743e398b45" y="768.96"/>
      </g>
     </g>
     <g id="text_3">
      <!-- March -->
      <g transform="translate(347.979119 783.558437)scale(0.1 -0.1)">
       <defs>
        <path d="M 628 4666 
L 1569 4666 
L 2759 1491 
L 3956 4666 
L 4897 4666 
L 4897 0 
L 4281 0 
L 4281 4097 
L 3078 897 
L 2444 897 
L 1241 4097 
L 1241 0 
L 628 0 
L 628 4666 
z
" id="DejaVuSans-4d" transform="scale(0.015625)"/>
        <path d="M 3122 3366 
L 3122 2828 
Q 2878 2963 2633 3030 
Q 2388 3097 2138 3097 
Q 1578 3097 1268 2742 
Q 959 2388 959 1747 
Q 959 1106 1268 751 
Q 1578 397 2138 397 
Q 2388 397 2633 464 
Q 2878 531 3122 666 
L 3122 134 
Q 2881 22 2623 -34 
Q 2366 -91 2075 -91 
Q 1284 -91 818 406 
Q 353 903 353 1747 
Q 353 2603 823 3093 
Q 1294 3584 2113 3584 
Q 2378 3584 2631 3529 
Q 2884 3475 3122 3366 
z
" id="DejaVuSans-63" transform="scale(0.015625)"/>
        <path d="M 3513 2113 
L 3513 0 
L 2938 0 
L 2938 2094 
Q 2938 2591 2744 2837 
Q 2550 3084 2163 3084 
Q 1697 3084 1428 2787 
Q 1159 2491 1159 1978 
L 1159 0 
L 581 0 
L 581 4863 
L 1159 4863 
L 1159 2956 
Q 1366 3272 1645 3428 
Q 1925 3584 2291 3584 
Q 2894 3584 3203 3211 
Q 3513 2838 3513 2113 
z
" id="DejaVuSans-68" transform="scale(0.015625)"/>
       </defs>
       <use xlink:href="#DejaVuSans-4d"/>
       <use x="86.279297" xlink:href="#DejaVuSans-61"/>
       <use x="147.558594" xlink:href="#DejaVuSans-72"/>
       <use x="186.421875" xlink:href="#DejaVuSans-63"/>
       <use x="241.402344" xlink:href="#DejaVuSans-68"/>
      </g>
     </g>
    </g>
    <g id="xtick_4">
     <g id="line2d_4">
      <g>
       <use style="stroke:#000000;stroke-width:0.8;" x="468.054545" xlink:href="#m743e398b45" y="768.96"/>
      </g>
     </g>
     <g id="text_4">
      <!-- April -->
      <g transform="translate(456.62642 783.558437)scale(0.1 -0.1)">
       <defs>
        <path d="M 2188 4044 
L 1331 1722 
L 3047 1722 
L 2188 4044 
z
M 1831 4666 
L 2547 4666 
L 4325 0 
L 3669 0 
L 3244 1197 
L 1141 1197 
L 716 0 
L 50 0 
L 1831 4666 
z
" id="DejaVuSans-41" transform="scale(0.015625)"/>
        <path d="M 1159 525 
L 1159 -1331 
L 581 -1331 
L 581 3500 
L 1159 3500 
L 1159 2969 
Q 1341 3281 1617 3432 
Q 1894 3584 2278 3584 
Q 2916 3584 3314 3078 
Q 3713 2572 3713 1747 
Q 3713 922 3314 415 
Q 2916 -91 2278 -91 
Q 1894 -91 1617 61 
Q 1341 213 1159 525 
z
M 3116 1747 
Q 3116 2381 2855 2742 
Q 2594 3103 2138 3103 
Q 1681 3103 1420 2742 
Q 1159 2381 1159 1747 
Q 1159 1113 1420 752 
Q 1681 391 2138 391 
Q 2594 391 2855 752 
Q 3116 1113 3116 1747 
z
" id="DejaVuSans-70" transform="scale(0.015625)"/>
        <path d="M 603 3500 
L 1178 3500 
L 1178 0 
L 603 0 
L 603 3500 
z
M 603 4863 
L 1178 4863 
L 1178 4134 
L 603 4134 
L 603 4863 
z
" id="DejaVuSans-69" transform="scale(0.015625)"/>
        <path d="M 603 4863 
L 1178 4863 
L 1178 0 
L 603 0 
L 603 4863 
z
" id="DejaVuSans-6c" transform="scale(0.015625)"/>
       </defs>
       <use xlink:href="#DejaVuSans-41"/>
       <use x="68.408203" xlink:href="#DejaVuSans-70"/>
       <use x="131.884766" xlink:href="#DejaVuSans-72"/>
       <use x="172.998047" xlink:href="#DejaVuSans-69"/>
       <use x="200.78125" xlink:href="#DejaVuSans-6c"/>
      </g>
     </g>
    </g>
    <g id="xtick_5">
     <g id="line2d_5">
      <g>
       <use style="stroke:#000000;stroke-width:0.8;" x="569.509091" xlink:href="#m743e398b45" y="768.96"/>
      </g>
     </g>
     <g id="text_5">
      <!-- May -->
      <g transform="translate(559.171591 783.558437)scale(0.1 -0.1)">
       <use xlink:href="#DejaVuSans-4d"/>
       <use x="86.279297" xlink:href="#DejaVuSans-61"/>
       <use x="147.558594" xlink:href="#DejaVuSans-79"/>
      </g>
     </g>
    </g>
    <g id="xtick_6">
     <g id="line2d_6">
      <g>
       <use style="stroke:#000000;stroke-width:0.8;" x="674.345455" xlink:href="#m743e398b45" y="768.96"/>
      </g>
     </g>
     <g id="text_6">
      <!-- June -->
      <g transform="translate(663.456392 783.558437)scale(0.1 -0.1)">
       <use xlink:href="#DejaVuSans-4a"/>
       <use x="29.492188" xlink:href="#DejaVuSans-75"/>
       <use x="92.871094" xlink:href="#DejaVuSans-6e"/>
       <use x="156.25" xlink:href="#DejaVuSans-65"/>
      </g>
     </g>
    </g>
    <g id="xtick_7">
     <g id="line2d_7">
      <g>
       <use style="stroke:#000000;stroke-width:0.8;" x="775.8" xlink:href="#m743e398b45" y="768.96"/>
      </g>
     </g>
     <g id="text_7">
      <!-- July -->
      <g transform="translate(766.807812 783.558437)scale(0.1 -0.1)">
       <use xlink:href="#DejaVuSans-4a"/>
       <use x="29.492188" xlink:href="#DejaVuSans-75"/>
       <use x="92.871094" xlink:href="#DejaVuSans-6c"/>
       <use x="120.654297" xlink:href="#DejaVuSans-79"/>
      </g>
     </g>
    </g>
    <g id="xtick_8">
     <g id="line2d_8">
      <g>
       <use style="stroke:#000000;stroke-width:0.8;" x="880.636364" xlink:href="#m743e398b45" y="768.96"/>
      </g>
     </g>
     <g id="text_8">
      <!-- August -->
      <g transform="translate(863.139489 783.558437)scale(0.1 -0.1)">
       <defs>
        <path d="M 2906 1791 
Q 2906 2416 2648 2759 
Q 2391 3103 1925 3103 
Q 1463 3103 1205 2759 
Q 947 2416 947 1791 
Q 947 1169 1205 825 
Q 1463 481 1925 481 
Q 2391 481 2648 825 
Q 2906 1169 2906 1791 
z
M 3481 434 
Q 3481 -459 3084 -895 
Q 2688 -1331 1869 -1331 
Q 1566 -1331 1297 -1286 
Q 1028 -1241 775 -1147 
L 775 -588 
Q 1028 -725 1275 -790 
Q 1522 -856 1778 -856 
Q 2344 -856 2625 -561 
Q 2906 -266 2906 331 
L 2906 616 
Q 2728 306 2450 153 
Q 2172 0 1784 0 
Q 1141 0 747 490 
Q 353 981 353 1791 
Q 353 2603 747 3093 
Q 1141 3584 1784 3584 
Q 2172 3584 2450 3431 
Q 2728 3278 2906 2969 
L 2906 3500 
L 3481 3500 
L 3481 434 
z
" id="DejaVuSans-67" transform="scale(0.015625)"/>
        <path d="M 2834 3397 
L 2834 2853 
Q 2591 2978 2328 3040 
Q 2066 3103 1784 3103 
Q 1356 3103 1142 2972 
Q 928 2841 928 2578 
Q 928 2378 1081 2264 
Q 1234 2150 1697 2047 
L 1894 2003 
Q 2506 1872 2764 1633 
Q 3022 1394 3022 966 
Q 3022 478 2636 193 
Q 2250 -91 1575 -91 
Q 1294 -91 989 -36 
Q 684 19 347 128 
L 347 722 
Q 666 556 975 473 
Q 1284 391 1588 391 
Q 1994 391 2212 530 
Q 2431 669 2431 922 
Q 2431 1156 2273 1281 
Q 2116 1406 1581 1522 
L 1381 1569 
Q 847 1681 609 1914 
Q 372 2147 372 2553 
Q 372 3047 722 3315 
Q 1072 3584 1716 3584 
Q 2034 3584 2315 3537 
Q 2597 3491 2834 3397 
z
" id="DejaVuSans-73" transform="scale(0.015625)"/>
        <path d="M 1172 4494 
L 1172 3500 
L 2356 3500 
L 2356 3053 
L 1172 3053 
L 1172 1153 
Q 1172 725 1289 603 
Q 1406 481 1766 481 
L 2356 481 
L 2356 0 
L 1766 0 
Q 1100 0 847 248 
Q 594 497 594 1153 
L 594 3053 
L 172 3053 
L 172 3500 
L 594 3500 
L 594 4494 
L 1172 4494 
z
" id="DejaVuSans-74" transform="scale(0.015625)"/>
       </defs>
       <use xlink:href="#DejaVuSans-41"/>
       <use x="68.408203" xlink:href="#DejaVuSans-75"/>
       <use x="131.787109" xlink:href="#DejaVuSans-67"/>
       <use x="195.263672" xlink:href="#DejaVuSans-75"/>
       <use x="258.642578" xlink:href="#DejaVuSans-73"/>
       <use x="310.742188" xlink:href="#DejaVuSans-74"/>
      </g>
     </g>
    </g>
    <g id="xtick_9">
     <g id="line2d_9">
      <g>
       <use style="stroke:#000000;stroke-width:0.8;" x="985.472727" xlink:href="#m743e398b45" y="768.96"/>
      </g>
     </g>
     <g id="text_9">
      <!-- September -->
      <g transform="translate(957.834446 783.558437)scale(0.1 -0.1)">
       <defs>
        <path d="M 3425 4513 
L 3425 3897 
Q 3066 4069 2747 4153 
Q 2428 4238 2131 4238 
Q 1616 4238 1336 4038 
Q 1056 3838 1056 3469 
Q 1056 3159 1242 3001 
Q 1428 2844 1947 2747 
L 2328 2669 
Q 3034 2534 3370 2195 
Q 3706 1856 3706 1288 
Q 3706 609 3251 259 
Q 2797 -91 1919 -91 
Q 1588 -91 1214 -16 
Q 841 59 441 206 
L 441 856 
Q 825 641 1194 531 
Q 1563 422 1919 422 
Q 2459 422 2753 634 
Q 3047 847 3047 1241 
Q 3047 1584 2836 1778 
Q 2625 1972 2144 2069 
L 1759 2144 
Q 1053 2284 737 2584 
Q 422 2884 422 3419 
Q 422 4038 858 4394 
Q 1294 4750 2059 4750 
Q 2388 4750 2728 4690 
Q 3069 4631 3425 4513 
z
" id="DejaVuSans-53" transform="scale(0.015625)"/>
        <path d="M 3328 2828 
Q 3544 3216 3844 3400 
Q 4144 3584 4550 3584 
Q 5097 3584 5394 3201 
Q 5691 2819 5691 2113 
L 5691 0 
L 5113 0 
L 5113 2094 
Q 5113 2597 4934 2840 
Q 4756 3084 4391 3084 
Q 3944 3084 3684 2787 
Q 3425 2491 3425 1978 
L 3425 0 
L 2847 0 
L 2847 2094 
Q 2847 2600 2669 2842 
Q 2491 3084 2119 3084 
Q 1678 3084 1418 2786 
Q 1159 2488 1159 1978 
L 1159 0 
L 581 0 
L 581 3500 
L 1159 3500 
L 1159 2956 
Q 1356 3278 1631 3431 
Q 1906 3584 2284 3584 
Q 2666 3584 2933 3390 
Q 3200 3197 3328 2828 
z
" id="DejaVuSans-6d" transform="scale(0.015625)"/>
       </defs>
       <use xlink:href="#DejaVuSans-53"/>
       <use x="63.476562" xlink:href="#DejaVuSans-65"/>
       <use x="125" xlink:href="#DejaVuSans-70"/>
       <use x="188.476562" xlink:href="#DejaVuSans-74"/>
       <use x="227.685547" xlink:href="#DejaVuSans-65"/>
       <use x="289.208984" xlink:href="#DejaVuSans-6d"/>
       <use x="386.621094" xlink:href="#DejaVuSans-62"/>
       <use x="450.097656" xlink:href="#DejaVuSans-65"/>
       <use x="511.621094" xlink:href="#DejaVuSans-72"/>
      </g>
     </g>
    </g>
    <g id="xtick_10">
     <g id="line2d_10">
      <g>
       <use style="stroke:#000000;stroke-width:0.8;" x="1086.927273" xlink:href="#m743e398b45" y="768.96"/>
      </g>
     </g>
     <g id="text_10">
      <!-- October -->
      <g transform="translate(1066.916335 783.558437)scale(0.1 -0.1)">
       <defs>
        <path d="M 2522 4238 
Q 1834 4238 1429 3725 
Q 1025 3213 1025 2328 
Q 1025 1447 1429 934 
Q 1834 422 2522 422 
Q 3209 422 3611 934 
Q 4013 1447 4013 2328 
Q 4013 3213 3611 3725 
Q 3209 4238 2522 4238 
z
M 2522 4750 
Q 3503 4750 4090 4092 
Q 4678 3434 4678 2328 
Q 4678 1225 4090 567 
Q 3503 -91 2522 -91 
Q 1538 -91 948 565 
Q 359 1222 359 2328 
Q 359 3434 948 4092 
Q 1538 4750 2522 4750 
z
" id="DejaVuSans-4f" transform="scale(0.015625)"/>
        <path d="M 1959 3097 
Q 1497 3097 1228 2736 
Q 959 2375 959 1747 
Q 959 1119 1226 758 
Q 1494 397 1959 397 
Q 2419 397 2687 759 
Q 2956 1122 2956 1747 
Q 2956 2369 2687 2733 
Q 2419 3097 1959 3097 
z
M 1959 3584 
Q 2709 3584 3137 3096 
Q 3566 2609 3566 1747 
Q 3566 888 3137 398 
Q 2709 -91 1959 -91 
Q 1206 -91 779 398 
Q 353 888 353 1747 
Q 353 2609 779 3096 
Q 1206 3584 1959 3584 
z
" id="DejaVuSans-6f" transform="scale(0.015625)"/>
       </defs>
       <use xlink:href="#DejaVuSans-4f"/>
       <use x="78.710938" xlink:href="#DejaVuSans-63"/>
       <use x="133.691406" xlink:href="#DejaVuSans-74"/>
       <use x="172.900391" xlink:href="#DejaVuSans-6f"/>
       <use x="234.082031" xlink:href="#DejaVuSans-62"/>
       <use x="297.558594" xlink:href="#DejaVuSans-65"/>
       <use x="359.082031" xlink:href="#DejaVuSans-72"/>
      </g>
     </g>
    </g>
   </g>
   <g id="matplotlib.axis_2">
    <g id="ytick_1">
     <g id="line2d_11">
      <defs>
       <path d="M 0 0 
L -3.5 0 
" id="m59faa6e92d" style="stroke:#000000;stroke-width:0.8;"/>
      </defs>
      <g>
       <use style="stroke:#000000;stroke-width:0.8;" x="162" xlink:href="#m59faa6e92d" y="768.96"/>
      </g>
     </g>
     <g id="text_11">
      <!-- 0 -->
      <g transform="translate(148.6375 772.759219)scale(0.1 -0.1)">
       <defs>
        <path d="M 2034 4250 
Q 1547 4250 1301 3770 
Q 1056 3291 1056 2328 
Q 1056 1369 1301 889 
Q 1547 409 2034 409 
Q 2525 409 2770 889 
Q 3016 1369 3016 2328 
Q 3016 3291 2770 3770 
Q 2525 4250 2034 4250 
z
M 2034 4750 
Q 2819 4750 3233 4129 
Q 3647 3509 3647 2328 
Q 3647 1150 3233 529 
Q 2819 -91 2034 -91 
Q 1250 -91 836 529 
Q 422 1150 422 2328 
Q 422 3509 836 4129 
Q 1250 4750 2034 4750 
z
" id="DejaVuSans-30" transform="scale(0.015625)"/>
       </defs>
       <use xlink:href="#DejaVuSans-30"/>
      </g>
     </g>
    </g>
    <g id="ytick_2">
     <g id="line2d_12">
      <g>
       <use style="stroke:#000000;stroke-width:0.8;" x="162" xlink:href="#m59faa6e92d" y="652.373683"/>
      </g>
     </g>
     <g id="text_12">
      <!-- 20000 -->
      <g transform="translate(123.1875 656.172901)scale(0.1 -0.1)">
       <defs>
        <path d="M 1228 531 
L 3431 531 
L 3431 0 
L 469 0 
L 469 531 
Q 828 903 1448 1529 
Q 2069 2156 2228 2338 
Q 2531 2678 2651 2914 
Q 2772 3150 2772 3378 
Q 2772 3750 2511 3984 
Q 2250 4219 1831 4219 
Q 1534 4219 1204 4116 
Q 875 4013 500 3803 
L 500 4441 
Q 881 4594 1212 4672 
Q 1544 4750 1819 4750 
Q 2544 4750 2975 4387 
Q 3406 4025 3406 3419 
Q 3406 3131 3298 2873 
Q 3191 2616 2906 2266 
Q 2828 2175 2409 1742 
Q 1991 1309 1228 531 
z
" id="DejaVuSans-32" transform="scale(0.015625)"/>
       </defs>
       <use xlink:href="#DejaVuSans-32"/>
       <use x="63.623047" xlink:href="#DejaVuSans-30"/>
       <use x="127.246094" xlink:href="#DejaVuSans-30"/>
       <use x="190.869141" xlink:href="#DejaVuSans-30"/>
       <use x="254.492188" xlink:href="#DejaVuSans-30"/>
      </g>
     </g>
    </g>
    <g id="ytick_3">
     <g id="line2d_13">
      <g>
       <use style="stroke:#000000;stroke-width:0.8;" x="162" xlink:href="#m59faa6e92d" y="535.787365"/>
      </g>
     </g>
     <g id="text_13">
      <!-- 40000 -->
      <g transform="translate(123.1875 539.586584)scale(0.1 -0.1)">
       <defs>
        <path d="M 2419 4116 
L 825 1625 
L 2419 1625 
L 2419 4116 
z
M 2253 4666 
L 3047 4666 
L 3047 1625 
L 3713 1625 
L 3713 1100 
L 3047 1100 
L 3047 0 
L 2419 0 
L 2419 1100 
L 313 1100 
L 313 1709 
L 2253 4666 
z
" id="DejaVuSans-34" transform="scale(0.015625)"/>
       </defs>
       <use xlink:href="#DejaVuSans-34"/>
       <use x="63.623047" xlink:href="#DejaVuSans-30"/>
       <use x="127.246094" xlink:href="#DejaVuSans-30"/>
       <use x="190.869141" xlink:href="#DejaVuSans-30"/>
       <use x="254.492188" xlink:href="#DejaVuSans-30"/>
      </g>
     </g>
    </g>
    <g id="ytick_4">
     <g id="line2d_14">
      <g>
       <use style="stroke:#000000;stroke-width:0.8;" x="162" xlink:href="#m59faa6e92d" y="419.201048"/>
      </g>
     </g>
     <g id="text_14">
      <!-- 60000 -->
      <g transform="translate(123.1875 423.000267)scale(0.1 -0.1)">
       <defs>
        <path d="M 2113 2584 
Q 1688 2584 1439 2293 
Q 1191 2003 1191 1497 
Q 1191 994 1439 701 
Q 1688 409 2113 409 
Q 2538 409 2786 701 
Q 3034 994 3034 1497 
Q 3034 2003 2786 2293 
Q 2538 2584 2113 2584 
z
M 3366 4563 
L 3366 3988 
Q 3128 4100 2886 4159 
Q 2644 4219 2406 4219 
Q 1781 4219 1451 3797 
Q 1122 3375 1075 2522 
Q 1259 2794 1537 2939 
Q 1816 3084 2150 3084 
Q 2853 3084 3261 2657 
Q 3669 2231 3669 1497 
Q 3669 778 3244 343 
Q 2819 -91 2113 -91 
Q 1303 -91 875 529 
Q 447 1150 447 2328 
Q 447 3434 972 4092 
Q 1497 4750 2381 4750 
Q 2619 4750 2861 4703 
Q 3103 4656 3366 4563 
z
" id="DejaVuSans-36" transform="scale(0.015625)"/>
       </defs>
       <use xlink:href="#DejaVuSans-36"/>
       <use x="63.623047" xlink:href="#DejaVuSans-30"/>
       <use x="127.246094" xlink:href="#DejaVuSans-30"/>
       <use x="190.869141" xlink:href="#DejaVuSans-30"/>
       <use x="254.492188" xlink:href="#DejaVuSans-30"/>
      </g>
     </g>
    </g>
    <g id="ytick_5">
     <g id="line2d_15">
      <g>
       <use style="stroke:#000000;stroke-width:0.8;" x="162" xlink:href="#m59faa6e92d" y="302.614731"/>
      </g>
     </g>
     <g id="text_15">
      <!-- 80000 -->
      <g transform="translate(123.1875 306.41395)scale(0.1 -0.1)">
       <defs>
        <path d="M 2034 2216 
Q 1584 2216 1326 1975 
Q 1069 1734 1069 1313 
Q 1069 891 1326 650 
Q 1584 409 2034 409 
Q 2484 409 2743 651 
Q 3003 894 3003 1313 
Q 3003 1734 2745 1975 
Q 2488 2216 2034 2216 
z
M 1403 2484 
Q 997 2584 770 2862 
Q 544 3141 544 3541 
Q 544 4100 942 4425 
Q 1341 4750 2034 4750 
Q 2731 4750 3128 4425 
Q 3525 4100 3525 3541 
Q 3525 3141 3298 2862 
Q 3072 2584 2669 2484 
Q 3125 2378 3379 2068 
Q 3634 1759 3634 1313 
Q 3634 634 3220 271 
Q 2806 -91 2034 -91 
Q 1263 -91 848 271 
Q 434 634 434 1313 
Q 434 1759 690 2068 
Q 947 2378 1403 2484 
z
M 1172 3481 
Q 1172 3119 1398 2916 
Q 1625 2713 2034 2713 
Q 2441 2713 2670 2916 
Q 2900 3119 2900 3481 
Q 2900 3844 2670 4047 
Q 2441 4250 2034 4250 
Q 1625 4250 1398 4047 
Q 1172 3844 1172 3481 
z
" id="DejaVuSans-38" transform="scale(0.015625)"/>
       </defs>
       <use xlink:href="#DejaVuSans-38"/>
       <use x="63.623047" xlink:href="#DejaVuSans-30"/>
       <use x="127.246094" xlink:href="#DejaVuSans-30"/>
       <use x="190.869141" xlink:href="#DejaVuSans-30"/>
       <use x="254.492188" xlink:href="#DejaVuSans-30"/>
      </g>
     </g>
    </g>
    <g id="ytick_6">
     <g id="line2d_16">
      <g>
       <use style="stroke:#000000;stroke-width:0.8;" x="162" xlink:href="#m59faa6e92d" y="186.028413"/>
      </g>
     </g>
     <g id="text_16">
      <!-- 100000 -->
      <g transform="translate(116.825 189.827632)scale(0.1 -0.1)">
       <defs>
        <path d="M 794 531 
L 1825 531 
L 1825 4091 
L 703 3866 
L 703 4441 
L 1819 4666 
L 2450 4666 
L 2450 531 
L 3481 531 
L 3481 0 
L 794 0 
L 794 531 
z
" id="DejaVuSans-31" transform="scale(0.015625)"/>
       </defs>
       <use xlink:href="#DejaVuSans-31"/>
       <use x="63.623047" xlink:href="#DejaVuSans-30"/>
       <use x="127.246094" xlink:href="#DejaVuSans-30"/>
       <use x="190.869141" xlink:href="#DejaVuSans-30"/>
       <use x="254.492188" xlink:href="#DejaVuSans-30"/>
       <use x="318.115234" xlink:href="#DejaVuSans-30"/>
      </g>
     </g>
    </g>
    <g id="text_17">
     <!-- Persons fully vaccinated -->
     <g transform="translate(110.745312 496.922344)rotate(-90)scale(0.1 -0.1)">
      <defs>
       <path d="M 1259 4147 
L 1259 2394 
L 2053 2394 
Q 2494 2394 2734 2622 
Q 2975 2850 2975 3272 
Q 2975 3691 2734 3919 
Q 2494 4147 2053 4147 
L 1259 4147 
z
M 628 4666 
L 2053 4666 
Q 2838 4666 3239 4311 
Q 3641 3956 3641 3272 
Q 3641 2581 3239 2228 
Q 2838 1875 2053 1875 
L 1259 1875 
L 1259 0 
L 628 0 
L 628 4666 
z
" id="DejaVuSans-50" transform="scale(0.015625)"/>
       <path id="DejaVuSans-20" transform="scale(0.015625)"/>
       <path d="M 2375 4863 
L 2375 4384 
L 1825 4384 
Q 1516 4384 1395 4259 
Q 1275 4134 1275 3809 
L 1275 3500 
L 2222 3500 
L 2222 3053 
L 1275 3053 
L 1275 0 
L 697 0 
L 697 3053 
L 147 3053 
L 147 3500 
L 697 3500 
L 697 3744 
Q 697 4328 969 4595 
Q 1241 4863 1831 4863 
L 2375 4863 
z
" id="DejaVuSans-66" transform="scale(0.015625)"/>
       <path d="M 191 3500 
L 800 3500 
L 1894 563 
L 2988 3500 
L 3597 3500 
L 2284 0 
L 1503 0 
L 191 3500 
z
" id="DejaVuSans-76" transform="scale(0.015625)"/>
       <path d="M 2906 2969 
L 2906 4863 
L 3481 4863 
L 3481 0 
L 2906 0 
L 2906 525 
Q 2725 213 2448 61 
Q 2172 -91 1784 -91 
Q 1150 -91 751 415 
Q 353 922 353 1747 
Q 353 2572 751 3078 
Q 1150 3584 1784 3584 
Q 2172 3584 2448 3432 
Q 2725 3281 2906 2969 
z
M 947 1747 
Q 947 1113 1208 752 
Q 1469 391 1925 391 
Q 2381 391 2643 752 
Q 2906 1113 2906 1747 
Q 2906 2381 2643 2742 
Q 2381 3103 1925 3103 
Q 1469 3103 1208 2742 
Q 947 2381 947 1747 
z
" id="DejaVuSans-64" transform="scale(0.015625)"/>
      </defs>
      <use xlink:href="#DejaVuSans-50"/>
      <use x="56.677734" xlink:href="#DejaVuSans-65"/>
      <use x="118.201172" xlink:href="#DejaVuSans-72"/>
      <use x="159.314453" xlink:href="#DejaVuSans-73"/>
      <use x="211.414062" xlink:href="#DejaVuSans-6f"/>
      <use x="272.595703" xlink:href="#DejaVuSans-6e"/>
      <use x="335.974609" xlink:href="#DejaVuSans-73"/>
      <use x="388.074219" xlink:href="#DejaVuSans-20"/>
      <use x="419.861328" xlink:href="#DejaVuSans-66"/>
      <use x="455.066406" xlink:href="#DejaVuSans-75"/>
      <use x="518.445312" xlink:href="#DejaVuSans-6c"/>
      <use x="546.228516" xlink:href="#DejaVuSans-6c"/>
      <use x="574.011719" xlink:href="#DejaVuSans-79"/>
      <use x="633.191406" xlink:href="#DejaVuSans-20"/>
      <use x="664.978516" xlink:href="#DejaVuSans-76"/>
      <use x="724.158203" xlink:href="#DejaVuSans-61"/>
      <use x="785.4375" xlink:href="#DejaVuSans-63"/>
      <use x="840.417969" xlink:href="#DejaVuSans-63"/>
      <use x="895.398438" xlink:href="#DejaVuSans-69"/>
      <use x="923.181641" xlink:href="#DejaVuSans-6e"/>
      <use x="986.560547" xlink:href="#DejaVuSans-61"/>
      <use x="1047.839844" xlink:href="#DejaVuSans-74"/>
      <use x="1087.048828" xlink:href="#DejaVuSans-65"/>
      <use x="1148.572266" xlink:href="#DejaVuSans-64"/>
     </g>
    </g>
   </g>
   <g id="line2d_17">
    <path clip-path="url(#p581288a338)" d="M 221.181818 743.697411 
L 224.563636 743.473398 
L 227.945455 744.731698 
L 231.327273 741.204962 
L 234.709091 740.312244 
L 238.090909 738.203697 
L 241.472727 733.749267 
L 244.854545 725.707309 
L 248.236364 717.094078 
L 251.618182 710.696821 
L 255 703.953968 
L 258.381818 699.337982 
L 261.763636 698.283709 
L 265.145455 698.351995 
L 268.527273 695.842058 
L 271.909091 700.977686 
L 275.290909 700.785318 
L 278.672727 701.357424 
L 282.054545 698.169621 
L 285.436364 698.535202 
L 288.818182 694.383064 
L 292.2 695.119223 
L 295.581818 689.291573 
L 298.963636 679.487496 
L 302.345455 670.378774 
L 305.727273 667.390833 
L 309.109091 663.800807 
L 312.490909 667.891322 
L 315.872727 668.798197 
L 319.254545 663.999837 
L 322.636364 660.12584 
L 326.018182 654.261548 
L 329.4 662.983038 
L 332.781818 650.320931 
L 336.163636 641.945869 
L 339.545455 632.093493 
L 342.927273 609.778039 
L 346.309091 593.146168 
L 349.690909 580.687254 
L 353.072727 550.635466 
L 356.454545 553.759979 
L 359.836364 544.377279 
L 363.218182 534.281736 
L 366.6 540.07108 
L 369.981818 528.727231 
L 373.363636 514.481216 
L 376.745455 508.88424 
L 380.127273 512.841513 
L 383.509091 503.024112 
L 386.890909 491.654448 
L 390.272727 481.035933 
L 393.654545 484.507706 
L 397.036364 477.852293 
L 400.418182 479.067289 
L 403.8 452.956951 
L 407.181818 453.270901 
L 410.563636 459.24595 
L 413.945455 474.004945 
L 417.327273 487.300782 
L 420.709091 506.714069 
L 424.090909 520.34634 
L 427.472727 545.422392 
L 434.236364 569.732304 
L 437.618182 576.274462 
L 441 580.474068 
L 444.381818 577.44782 
L 447.763636 564.126168 
L 454.527273 560.880905 
L 457.909091 544.991022 
L 461.290909 536.376126 
L 464.672727 521.510538 
L 468.054545 514.560328 
L 471.436364 513.467748 
L 474.818182 517.755626 
L 478.2 504.154999 
L 481.581818 489.306899 
L 488.345455 436.230145 
L 491.727273 396.066992 
L 495.109091 374.036342 
L 498.490909 355.646516 
L 501.872727 342.480589 
L 505.254545 337.514012 
L 508.636364 347.069926 
L 512.018182 350.028721 
L 515.4 368.852414 
L 518.781818 379.718259 
L 522.163636 379.781549 
L 525.545455 388.341483 
L 528.927273 382.842772 
L 532.309091 376.576258 
L 535.690909 386.877492 
L 539.072727 400.712956 
L 542.454545 412.705525 
L 545.836364 426.090467 
L 549.218182 431.693272 
L 552.6 447.477394 
L 555.981818 453.351679 
L 559.363636 463.872761 
L 562.745455 476.82217 
L 566.127273 494.840585 
L 569.509091 504.154999 
L 572.890909 517.890533 
L 576.272727 511.30757 
L 579.654545 508.117269 
L 583.036364 517.327588 
L 586.418182 498.588003 
L 589.8 475.939445 
L 593.181818 444.064746 
L 596.563636 432.020546 
L 599.945455 446.200774 
L 603.327273 463.154922 
L 606.709091 464.221687 
L 610.090909 467.979098 
L 613.472727 477.535845 
L 616.854545 502.438682 
L 620.236364 513.477741 
L 623.618182 514.267197 
L 627 515.672062 
L 630.381818 502.157209 
L 633.763636 526.489607 
L 637.145455 531.443692 
L 640.527273 531.792619 
L 643.909091 533.453974 
L 647.290909 550.334007 
L 650.672727 562.342397 
L 654.054545 589.406245 
L 657.436364 598.880549 
L 660.818182 609.59733 
L 664.2 612.699359 
L 667.581818 627.007831 
L 670.963636 637.643002 
L 674.345455 647.521194 
L 677.727273 648.65791 
L 681.109091 644.446646 
L 687.872727 626.018513 
L 691.254545 606.656024 
L 694.636364 593.732431 
L 698.018182 576.919851 
L 701.4 580.596484 
L 704.781818 588.974043 
L 708.163636 602.681263 
L 711.545455 608.580531 
L 714.927273 594.631811 
L 718.309091 593.124516 
L 721.690909 605.886554 
L 725.072727 601.937609 
L 728.454545 610.813992 
L 731.836364 603.891263 
L 735.218182 608.581364 
L 738.6 638.569863 
L 741.981818 655.778003 
L 745.363636 660.733754 
L 748.745455 668.810688 
L 755.509091 611.013854 
L 758.890909 615.300067 
L 762.272727 615.036915 
L 765.654545 614.533928 
L 769.036364 617.303686 
L 772.418182 624.731067 
L 775.8 655.393268 
L 779.181818 695.558087 
L 782.563636 695.774605 
L 785.945455 705.920945 
L 789.327273 712.600509 
L 792.709091 713.618141 
L 796.090909 713.293365 
L 799.472727 714.425917 
L 802.854545 714.24854 
L 806.236364 712.382326 
L 809.618182 701.850417 
L 813 699.263867 
L 819.763636 705.382983 
L 823.145455 706.943574 
L 826.527273 708.345108 
L 829.909091 709.313607 
L 833.290909 713.056028 
L 836.672727 712.328196 
L 840.054545 711.821879 
L 846.818182 715.786646 
L 850.2 718.899501 
L 853.581818 721.441083 
L 856.963636 724.748803 
L 860.345455 725.256786 
L 863.727273 718.636349 
L 867.109091 717.12156 
L 870.490909 706.017546 
L 873.872727 703.771593 
L 880.636364 698.863309 
L 884.018182 699.349641 
L 887.4 707.008529 
L 890.781818 706.717063 
L 894.163636 715.611767 
L 897.545455 707.534 
L 900.927273 706.740381 
L 904.309091 706.956065 
L 907.690909 709.850737 
L 911.072727 696.043586 
L 914.454545 685.145264 
L 921.218182 668.342677 
L 924.6 658.274616 
L 927.981818 657.067947 
L 931.363636 652.357028 
L 934.745455 664.260491 
L 938.127273 674.031257 
L 941.509091 682.224776 
L 944.890909 695.57391 
L 948.272727 704.949948 
L 951.654545 704.812543 
L 955.036364 704.859177 
L 958.418182 704.74842 
L 961.8 703.570898 
L 965.181818 700.621265 
L 968.563636 692.315322 
L 971.945455 669.535189 
L 975.327273 663.80164 
L 978.709091 663.890745 
L 982.090909 664.231344 
L 985.472727 665.939333 
L 988.854545 669.002223 
L 992.236364 678.232528 
L 995.618182 701.441533 
L 999 710.786759 
L 1002.381818 716.373742 
L 1005.763636 715.931546 
L 1009.145455 715.976515 
L 1015.909091 717.228153 
L 1019.290909 717.226487 
L 1022.672727 714.767349 
L 1026.054545 710.954143 
L 1029.436364 712.911961 
L 1032.818182 713.51821 
L 1036.2 713.377473 
L 1039.581818 712.675457 
L 1042.963636 712.298217 
L 1046.345455 713.084342 
L 1049.727273 712.026737 
L 1053.109091 713.291699 
L 1056.490909 711.324721 
L 1059.872727 710.095568 
L 1063.254545 710.712643 
L 1066.636364 711.74693 
L 1070.018182 710.95914 
L 1073.4 713.145966 
L 1076.781818 714.723212 
L 1080.163636 721.346981 
L 1083.545455 721.735047 
L 1086.927273 717.153204 
L 1090.309091 718.059247 
L 1093.690909 716.520307 
L 1097.072727 719.685626 
L 1100.454545 715.71836 
L 1103.836364 713.071851 
L 1107.218182 716.41538 
L 1110.6 724.634715 
L 1113.981818 725.794749 
L 1117.363636 729.508856 
L 1120.745455 727.546042 
L 1124.127273 729.965208 
L 1127.509091 731.253487 
L 1130.890909 728.963398 
L 1134.272727 728.258051 
L 1137.654545 728.487893 
L 1141.036364 728.077342 
L 1144.418182 729.004204 
L 1147.8 730.333288 
L 1151.181818 729.015029 
L 1154.563636 731.484994 
L 1157.945455 731.240995 
L 1161.327273 729.773673 
L 1161.327273 729.773673 
" style="fill:none;stroke:#ffa500;stroke-linecap:square;stroke-width:1.5;"/>
   </g>
   <g id="patch_300">
    <path d="M 162 768.96 
L 162 103.68 
" style="fill:none;stroke:#000000;stroke-linecap:square;stroke-linejoin:miter;stroke-width:0.8;"/>
   </g>
   <g id="patch_301">
    <path d="M 1166.4 768.96 
L 1166.4 103.68 
" style="fill:none;stroke:#000000;stroke-linecap:square;stroke-linejoin:miter;stroke-width:0.8;"/>
   </g>
   <g id="patch_302">
    <path d="M 162 768.96 
L 1166.4 768.96 
" style="fill:none;stroke:#000000;stroke-linecap:square;stroke-linejoin:miter;stroke-width:0.8;"/>
   </g>
   <g id="patch_303">
    <path d="M 162 103.68 
L 1166.4 103.68 
" style="fill:none;stroke:#000000;stroke-linecap:square;stroke-linejoin:miter;stroke-width:0.8;"/>
   </g>
   <g id="text_18">
    <!-- Persons Fully Vaccinated -->
    <g transform="translate(590.380313 97.68)scale(0.12 -0.12)">
     <defs>
      <path d="M 1831 0 
L 50 4666 
L 709 4666 
L 2188 738 
L 3669 4666 
L 4325 4666 
L 2547 0 
L 1831 0 
z
" id="DejaVuSans-56" transform="scale(0.015625)"/>
     </defs>
     <use xlink:href="#DejaVuSans-50"/>
     <use x="56.677734" xlink:href="#DejaVuSans-65"/>
     <use x="118.201172" xlink:href="#DejaVuSans-72"/>
     <use x="159.314453" xlink:href="#DejaVuSans-73"/>
     <use x="211.414062" xlink:href="#DejaVuSans-6f"/>
     <use x="272.595703" xlink:href="#DejaVuSans-6e"/>
     <use x="335.974609" xlink:href="#DejaVuSans-73"/>
     <use x="388.074219" xlink:href="#DejaVuSans-20"/>
     <use x="419.861328" xlink:href="#DejaVuSans-46"/>
     <use x="471.880859" xlink:href="#DejaVuSans-75"/>
     <use x="535.259766" xlink:href="#DejaVuSans-6c"/>
     <use x="563.042969" xlink:href="#DejaVuSans-6c"/>
     <use x="590.826172" xlink:href="#DejaVuSans-79"/>
     <use x="650.005859" xlink:href="#DejaVuSans-20"/>
     <use x="681.792969" xlink:href="#DejaVuSans-56"/>
     <use x="742.451172" xlink:href="#DejaVuSans-61"/>
     <use x="803.730469" xlink:href="#DejaVuSans-63"/>
     <use x="858.710938" xlink:href="#DejaVuSans-63"/>
     <use x="913.691406" xlink:href="#DejaVuSans-69"/>
     <use x="941.474609" xlink:href="#DejaVuSans-6e"/>
     <use x="1004.853516" xlink:href="#DejaVuSans-61"/>
     <use x="1066.132812" xlink:href="#DejaVuSans-74"/>
     <use x="1105.341797" xlink:href="#DejaVuSans-65"/>
     <use x="1166.865234" xlink:href="#DejaVuSans-64"/>
    </g>
   </g>
  </g>
 </g>
 <defs>
  <clipPath id="p581288a338">
   <rect height="665.28" width="1004.4" x="162" y="103.68"/>
  </clipPath>
 </defs>
</svg>
