<?xml version="1.0" encoding="utf-8" standalone="no"?>
<!DOCTYPE svg PUBLIC "-//W3C//DTD SVG 1.1//EN"
  "http://www.w3.org/Graphics/SVG/1.1/DTD/svg11.dtd">
<svg height="864pt" version="1.1" viewBox="0 0 1296 864" width="1296pt" xmlns="http://www.w3.org/2000/svg" xmlns:xlink="http://www.w3.org/1999/xlink">
 <metadata>
  <rdf:RDF xmlns:cc="http://creativecommons.org/ns#" xmlns:dc="http://purl.org/dc/elements/1.1/" xmlns:rdf="http://www.w3.org/1999/02/22-rdf-syntax-ns#">
   <cc:Work>
    <dc:type rdf:resource="http://purl.org/dc/dcmitype/StillImage"/>
    <dc:date>2021-10-01T12:27:25.808531</dc:date>
    <dc:format>image/svg+xml</dc:format>
    <dc:creator>
     <cc:Agent>
      <dc:title>Matplotlib v3.4.2, https://matplotlib.org/</dc:title>
     </cc:Agent>
    </dc:creator>
   </cc:Work>
  </rdf:RDF>
 </metadata>
 <defs>
  <style type="text/css">*{stroke-linecap:butt;stroke-linejoin:round;}</style>
 </defs>
 <g id="figure_1">
  <g id="patch_1">
   <path d="M 0 864 
L 1296 864 
L 1296 0 
L 0 0 
z
" style="fill:#ffffff;"/>
  </g>
  <g id="axes_1">
   <g id="patch_2">
    <path d="M 162 768.96 
L 1166.4 768.96 
L 1166.4 103.68 
L 162 103.68 
z
" style="fill:#ffffff;"/>
   </g>
   <g id="patch_3">
    <path clip-path="url(#p2bd2332714)" d="M 162.93 768.96 
L 164.79 768.96 
L 164.79 768.957293 
L 162.93 768.957293 
z
" style="fill:#1f77b4;"/>
   </g>
   <g id="patch_4">
    <path clip-path="url(#p2bd2332714)" d="M 166.65 768.96 
L 168.51 768.96 
L 168.51 768.94605 
L 166.65 768.94605 
z
" style="fill:#1f77b4;"/>
   </g>
   <g id="patch_5">
    <path clip-path="url(#p2bd2332714)" d="M 170.37 768.96 
L 172.23 768.96 
L 172.23 768.916566 
L 170.37 768.916566 
z
" style="fill:#1f77b4;"/>
   </g>
   <g id="patch_6">
    <path clip-path="url(#p2bd2332714)" d="M 174.09 768.96 
L 175.95 768.96 
L 175.95 768.708226 
L 174.09 768.708226 
z
" style="fill:#1f77b4;"/>
   </g>
   <g id="patch_7">
    <path clip-path="url(#p2bd2332714)" d="M 177.81 768.96 
L 179.67 768.96 
L 179.67 767.202244 
L 177.81 767.202244 
z
" style="fill:#1f77b4;"/>
   </g>
   <g id="patch_8">
    <path clip-path="url(#p2bd2332714)" d="M 181.53 768.96 
L 183.39 768.96 
L 183.39 765.399097 
L 181.53 765.399097 
z
" style="fill:#1f77b4;"/>
   </g>
   <g id="patch_9">
    <path clip-path="url(#p2bd2332714)" d="M 185.25 768.96 
L 187.11 768.96 
L 187.11 764.415486 
L 185.25 764.415486 
z
" style="fill:#1f77b4;"/>
   </g>
   <g id="patch_10">
    <path clip-path="url(#p2bd2332714)" d="M 188.97 768.96 
L 190.83 768.96 
L 190.83 763.818282 
L 188.97 763.818282 
z
" style="fill:#1f77b4;"/>
   </g>
   <g id="patch_11">
    <path clip-path="url(#p2bd2332714)" d="M 192.69 768.96 
L 194.55 768.96 
L 194.55 762.881562 
L 192.69 762.881562 
z
" style="fill:#1f77b4;"/>
   </g>
   <g id="patch_12">
    <path clip-path="url(#p2bd2332714)" d="M 196.41 768.96 
L 198.27 768.96 
L 198.27 761.990399 
L 196.41 761.990399 
z
" style="fill:#1f77b4;"/>
   </g>
   <g id="patch_13">
    <path clip-path="url(#p2bd2332714)" d="M 200.13 768.96 
L 201.99 768.96 
L 201.99 761.26331 
L 200.13 761.26331 
z
" style="fill:#1f77b4;"/>
   </g>
   <g id="patch_14">
    <path clip-path="url(#p2bd2332714)" d="M 203.85 768.96 
L 205.71 768.96 
L 205.71 760.374688 
L 203.85 760.374688 
z
" style="fill:#1f77b4;"/>
   </g>
   <g id="patch_15">
    <path clip-path="url(#p2bd2332714)" d="M 207.57 768.96 
L 209.43 768.96 
L 209.43 760.189376 
L 207.57 760.189376 
z
" style="fill:#1f77b4;"/>
   </g>
   <g id="patch_16">
    <path clip-path="url(#p2bd2332714)" d="M 211.29 768.96 
L 213.15 768.96 
L 213.15 760.074816 
L 211.29 760.074816 
z
" style="fill:#1f77b4;"/>
   </g>
   <g id="patch_17">
    <path clip-path="url(#p2bd2332714)" d="M 215.01 768.96 
L 216.87 768.96 
L 216.87 760.020346 
L 215.01 760.020346 
z
" style="fill:#1f77b4;"/>
   </g>
   <g id="patch_18">
    <path clip-path="url(#p2bd2332714)" d="M 218.73 768.96 
L 220.59 768.96 
L 220.59 759.770946 
L 218.73 759.770946 
z
" style="fill:#1f77b4;"/>
   </g>
   <g id="patch_19">
    <path clip-path="url(#p2bd2332714)" d="M 222.45 768.96 
L 224.31 768.96 
L 224.31 759.35289 
L 222.45 759.35289 
z
" style="fill:#1f77b4;"/>
   </g>
   <g id="patch_20">
    <path clip-path="url(#p2bd2332714)" d="M 226.17 768.96 
L 228.03 768.96 
L 228.03 758.536144 
L 226.17 758.536144 
z
" style="fill:#1f77b4;"/>
   </g>
   <g id="patch_21">
    <path clip-path="url(#p2bd2332714)" d="M 229.89 768.96 
L 231.75 768.96 
L 231.75 757.725519 
L 229.89 757.725519 
z
" style="fill:#1f77b4;"/>
   </g>
   <g id="patch_22">
    <path clip-path="url(#p2bd2332714)" d="M 233.61 768.96 
L 235.47 768.96 
L 235.47 757.141682 
L 233.61 757.141682 
z
" style="fill:#1f77b4;"/>
   </g>
   <g id="patch_23">
    <path clip-path="url(#p2bd2332714)" d="M 237.33 768.96 
L 239.19 768.96 
L 239.19 756.928761 
L 237.33 756.928761 
z
" style="fill:#1f77b4;"/>
   </g>
   <g id="patch_24">
    <path clip-path="url(#p2bd2332714)" d="M 241.05 768.96 
L 242.91 768.96 
L 242.91 756.638342 
L 241.05 756.638342 
z
" style="fill:#1f77b4;"/>
   </g>
   <g id="patch_25">
    <path clip-path="url(#p2bd2332714)" d="M 244.77 768.96 
L 246.63 768.96 
L 246.63 755.864196 
L 244.77 755.864196 
z
" style="fill:#1f77b4;"/>
   </g>
   <g id="patch_26">
    <path clip-path="url(#p2bd2332714)" d="M 248.49 768.96 
L 250.35 768.96 
L 250.35 754.578923 
L 248.49 754.578923 
z
" style="fill:#1f77b4;"/>
   </g>
   <g id="patch_27">
    <path clip-path="url(#p2bd2332714)" d="M 252.21 768.96 
L 254.07 768.96 
L 254.07 752.795848 
L 252.21 752.795848 
z
" style="fill:#1f77b4;"/>
   </g>
   <g id="patch_28">
    <path clip-path="url(#p2bd2332714)" d="M 255.93 768.96 
L 257.79 768.96 
L 257.79 751.291074 
L 255.93 751.291074 
z
" style="fill:#1f77b4;"/>
   </g>
   <g id="patch_29">
    <path clip-path="url(#p2bd2332714)" d="M 259.65 768.96 
L 261.51 768.96 
L 261.51 749.930676 
L 259.65 749.930676 
z
" style="fill:#1f77b4;"/>
   </g>
   <g id="patch_30">
    <path clip-path="url(#p2bd2332714)" d="M 263.37 768.96 
L 265.23 768.96 
L 265.23 749.181558 
L 263.37 749.181558 
z
" style="fill:#1f77b4;"/>
   </g>
   <g id="patch_31">
    <path clip-path="url(#p2bd2332714)" d="M 267.09 768.96 
L 268.95 768.96 
L 268.95 748.759505 
L 267.09 748.759505 
z
" style="fill:#1f77b4;"/>
   </g>
   <g id="patch_32">
    <path clip-path="url(#p2bd2332714)" d="M 270.81 768.96 
L 272.67 768.96 
L 272.67 748.027128 
L 270.81 748.027128 
z
" style="fill:#1f77b4;"/>
   </g>
   <g id="patch_33">
    <path clip-path="url(#p2bd2332714)" d="M 274.53 768.96 
L 276.39 768.96 
L 276.39 746.440733 
L 274.53 746.440733 
z
" style="fill:#1f77b4;"/>
   </g>
   <g id="patch_34">
    <path clip-path="url(#p2bd2332714)" d="M 278.25 768.96 
L 280.11 768.96 
L 280.11 745.262899 
L 278.25 745.262899 
z
" style="fill:#1f77b4;"/>
   </g>
   <g id="patch_35">
    <path clip-path="url(#p2bd2332714)" d="M 281.97 768.96 
L 283.83 768.96 
L 283.83 743.657681 
L 281.97 743.657681 
z
" style="fill:#1f77b4;"/>
   </g>
   <g id="patch_36">
    <path clip-path="url(#p2bd2332714)" d="M 285.69 768.96 
L 287.55 768.96 
L 287.55 742.394188 
L 285.69 742.394188 
z
" style="fill:#1f77b4;"/>
   </g>
   <g id="patch_37">
    <path clip-path="url(#p2bd2332714)" d="M 289.41 768.96 
L 291.27 768.96 
L 291.27 741.271739 
L 289.41 741.271739 
z
" style="fill:#1f77b4;"/>
   </g>
   <g id="patch_38">
    <path clip-path="url(#p2bd2332714)" d="M 293.13 768.96 
L 294.99 768.96 
L 294.99 740.888414 
L 293.13 740.888414 
z
" style="fill:#1f77b4;"/>
   </g>
   <g id="patch_39">
    <path clip-path="url(#p2bd2332714)" d="M 296.85 768.96 
L 298.71 768.96 
L 298.71 739.587233 
L 296.85 739.587233 
z
" style="fill:#1f77b4;"/>
   </g>
   <g id="patch_40">
    <path clip-path="url(#p2bd2332714)" d="M 300.57 768.96 
L 302.43 768.96 
L 302.43 737.985097 
L 300.57 737.985097 
z
" style="fill:#1f77b4;"/>
   </g>
   <g id="patch_41">
    <path clip-path="url(#p2bd2332714)" d="M 304.29 768.96 
L 306.15 768.96 
L 306.15 736.046443 
L 304.29 736.046443 
z
" style="fill:#1f77b4;"/>
   </g>
   <g id="patch_42">
    <path clip-path="url(#p2bd2332714)" d="M 308.01 768.96 
L 309.87 768.96 
L 309.87 733.280382 
L 308.01 733.280382 
z
" style="fill:#1f77b4;"/>
   </g>
   <g id="patch_43">
    <path clip-path="url(#p2bd2332714)" d="M 311.73 768.96 
L 313.59 768.96 
L 313.59 730.780088 
L 311.73 730.780088 
z
" style="fill:#1f77b4;"/>
   </g>
   <g id="patch_44">
    <path clip-path="url(#p2bd2332714)" d="M 315.45 768.96 
L 317.31 768.96 
L 317.31 729.215472 
L 315.45 729.215472 
z
" style="fill:#1f77b4;"/>
   </g>
   <g id="patch_45">
    <path clip-path="url(#p2bd2332714)" d="M 319.17 768.96 
L 321.03 768.96 
L 321.03 728.3707 
L 319.17 728.3707 
z
" style="fill:#1f77b4;"/>
   </g>
   <g id="patch_46">
    <path clip-path="url(#p2bd2332714)" d="M 322.89 768.96 
L 324.75 768.96 
L 324.75 727.550997 
L 322.89 727.550997 
z
" style="fill:#1f77b4;"/>
   </g>
   <g id="patch_47">
    <path clip-path="url(#p2bd2332714)" d="M 326.61 768.96 
L 328.47 768.96 
L 328.47 725.947154 
L 326.61 725.947154 
z
" style="fill:#1f77b4;"/>
   </g>
   <g id="patch_48">
    <path clip-path="url(#p2bd2332714)" d="M 330.33 768.96 
L 332.19 768.96 
L 332.19 723.288115 
L 330.33 723.288115 
z
" style="fill:#1f77b4;"/>
   </g>
   <g id="patch_49">
    <path clip-path="url(#p2bd2332714)" d="M 334.05 768.96 
L 335.91 768.96 
L 335.91 719.821867 
L 334.05 719.821867 
z
" style="fill:#1f77b4;"/>
   </g>
   <g id="patch_50">
    <path clip-path="url(#p2bd2332714)" d="M 337.77 768.96 
L 339.63 768.96 
L 339.63 716.564209 
L 337.77 716.564209 
z
" style="fill:#1f77b4;"/>
   </g>
   <g id="patch_51">
    <path clip-path="url(#p2bd2332714)" d="M 341.49 768.96 
L 343.35 768.96 
L 343.35 716.040547 
L 341.49 716.040547 
z
" style="fill:#1f77b4;"/>
   </g>
   <g id="patch_52">
    <path clip-path="url(#p2bd2332714)" d="M 345.21 768.96 
L 347.07 768.96 
L 347.07 713.645942 
L 345.21 713.645942 
z
" style="fill:#1f77b4;"/>
   </g>
   <g id="patch_53">
    <path clip-path="url(#p2bd2332714)" d="M 348.93 768.96 
L 350.79 768.96 
L 350.79 711.728235 
L 348.93 711.728235 
z
" style="fill:#1f77b4;"/>
   </g>
   <g id="patch_54">
    <path clip-path="url(#p2bd2332714)" d="M 352.65 768.96 
L 354.51 768.96 
L 354.51 708.838369 
L 352.65 708.838369 
z
" style="fill:#1f77b4;"/>
   </g>
   <g id="patch_55">
    <path clip-path="url(#p2bd2332714)" d="M 356.37 768.96 
L 358.23 768.96 
L 358.23 703.325694 
L 356.37 703.325694 
z
" style="fill:#1f77b4;"/>
   </g>
   <g id="patch_56">
    <path clip-path="url(#p2bd2332714)" d="M 360.09 768.96 
L 361.95 768.96 
L 361.95 697.548336 
L 360.09 697.548336 
z
" style="fill:#1f77b4;"/>
   </g>
   <g id="patch_57">
    <path clip-path="url(#p2bd2332714)" d="M 363.81 768.96 
L 365.67 768.96 
L 365.67 692.491903 
L 363.81 692.491903 
z
" style="fill:#1f77b4;"/>
   </g>
   <g id="patch_58">
    <path clip-path="url(#p2bd2332714)" d="M 367.53 768.96 
L 369.39 768.96 
L 369.39 688.134908 
L 367.53 688.134908 
z
" style="fill:#1f77b4;"/>
   </g>
   <g id="patch_59">
    <path clip-path="url(#p2bd2332714)" d="M 371.25 768.96 
L 373.11 768.96 
L 373.11 686.077946 
L 371.25 686.077946 
z
" style="fill:#1f77b4;"/>
   </g>
   <g id="patch_60">
    <path clip-path="url(#p2bd2332714)" d="M 374.97 768.96 
L 376.83 768.96 
L 376.83 682.940595 
L 374.97 682.940595 
z
" style="fill:#1f77b4;"/>
   </g>
   <g id="patch_61">
    <path clip-path="url(#p2bd2332714)" d="M 378.69 768.96 
L 380.55 768.96 
L 380.55 678.651396 
L 378.69 678.651396 
z
" style="fill:#1f77b4;"/>
   </g>
   <g id="patch_62">
    <path clip-path="url(#p2bd2332714)" d="M 382.41 768.96 
L 384.27 768.96 
L 384.27 673.757371 
L 382.41 673.757371 
z
" style="fill:#1f77b4;"/>
   </g>
   <g id="patch_63">
    <path clip-path="url(#p2bd2332714)" d="M 386.13 768.96 
L 387.99 768.96 
L 387.99 666.638813 
L 386.13 666.638813 
z
" style="fill:#1f77b4;"/>
   </g>
   <g id="patch_64">
    <path clip-path="url(#p2bd2332714)" d="M 389.85 768.96 
L 391.71 768.96 
L 391.71 660.002482 
L 389.85 660.002482 
z
" style="fill:#1f77b4;"/>
   </g>
   <g id="patch_65">
    <path clip-path="url(#p2bd2332714)" d="M 393.57 768.96 
L 395.43 768.96 
L 395.43 655.009888 
L 393.57 655.009888 
z
" style="fill:#1f77b4;"/>
   </g>
   <g id="patch_66">
    <path clip-path="url(#p2bd2332714)" d="M 397.29 768.96 
L 399.15 768.96 
L 399.15 653.43557 
L 397.29 653.43557 
z
" style="fill:#1f77b4;"/>
   </g>
   <g id="patch_67">
    <path clip-path="url(#p2bd2332714)" d="M 401.01 768.96 
L 402.87 768.96 
L 402.87 649.166942 
L 401.01 649.166942 
z
" style="fill:#1f77b4;"/>
   </g>
   <g id="patch_68">
    <path clip-path="url(#p2bd2332714)" d="M 404.73 768.96 
L 406.59 768.96 
L 406.59 643.610542 
L 404.73 643.610542 
z
" style="fill:#1f77b4;"/>
   </g>
   <g id="patch_69">
    <path clip-path="url(#p2bd2332714)" d="M 408.45 768.96 
L 410.31 768.96 
L 410.31 637.425414 
L 408.45 637.425414 
z
" style="fill:#1f77b4;"/>
   </g>
   <g id="patch_70">
    <path clip-path="url(#p2bd2332714)" d="M 412.17 768.96 
L 414.03 768.96 
L 414.03 630.856503 
L 412.17 630.856503 
z
" style="fill:#1f77b4;"/>
   </g>
   <g id="patch_71">
    <path clip-path="url(#p2bd2332714)" d="M 415.89 768.96 
L 417.75 768.96 
L 417.75 623.443486 
L 415.89 623.443486 
z
" style="fill:#1f77b4;"/>
   </g>
   <g id="patch_72">
    <path clip-path="url(#p2bd2332714)" d="M 419.61 768.96 
L 421.47 768.96 
L 421.47 618.63254 
L 419.61 618.63254 
z
" style="fill:#1f77b4;"/>
   </g>
   <g id="patch_73">
    <path clip-path="url(#p2bd2332714)" d="M 423.33 768.96 
L 425.19 768.96 
L 425.19 613.882142 
L 423.33 613.882142 
z
" style="fill:#1f77b4;"/>
   </g>
   <g id="patch_74">
    <path clip-path="url(#p2bd2332714)" d="M 427.05 768.96 
L 428.91 768.96 
L 428.91 609.667859 
L 427.05 609.667859 
z
" style="fill:#1f77b4;"/>
   </g>
   <g id="patch_75">
    <path clip-path="url(#p2bd2332714)" d="M 430.77 768.96 
L 432.63 768.96 
L 432.63 604.905884 
L 430.77 604.905884 
z
" style="fill:#1f77b4;"/>
   </g>
   <g id="patch_76">
    <path clip-path="url(#p2bd2332714)" d="M 434.49 768.96 
L 436.35 768.96 
L 436.35 600.640963 
L 434.49 600.640963 
z
" style="fill:#1f77b4;"/>
   </g>
   <g id="patch_77">
    <path clip-path="url(#p2bd2332714)" d="M 438.21 768.96 
L 440.07 768.96 
L 440.07 595.789872 
L 438.21 595.789872 
z
" style="fill:#1f77b4;"/>
   </g>
   <g id="patch_78">
    <path clip-path="url(#p2bd2332714)" d="M 441.93 768.96 
L 443.79 768.96 
L 443.79 590.841837 
L 441.93 590.841837 
z
" style="fill:#1f77b4;"/>
   </g>
   <g id="patch_79">
    <path clip-path="url(#p2bd2332714)" d="M 445.65 768.96 
L 447.51 768.96 
L 447.51 587.93877 
L 445.65 587.93877 
z
" style="fill:#1f77b4;"/>
   </g>
   <g id="patch_80">
    <path clip-path="url(#p2bd2332714)" d="M 449.37 768.96 
L 451.23 768.96 
L 451.23 586.337134 
L 449.37 586.337134 
z
" style="fill:#1f77b4;"/>
   </g>
   <g id="patch_81">
    <path clip-path="url(#p2bd2332714)" d="M 453.09 768.96 
L 454.95 768.96 
L 454.95 583.686174 
L 453.09 583.686174 
z
" style="fill:#1f77b4;"/>
   </g>
   <g id="patch_82">
    <path clip-path="url(#p2bd2332714)" d="M 456.81 768.96 
L 458.67 768.96 
L 458.67 580.51959 
L 456.81 580.51959 
z
" style="fill:#1f77b4;"/>
   </g>
   <g id="patch_83">
    <path clip-path="url(#p2bd2332714)" d="M 460.53 768.96 
L 462.39 768.96 
L 462.39 577.213917 
L 460.53 577.213917 
z
" style="fill:#1f77b4;"/>
   </g>
   <g id="patch_84">
    <path clip-path="url(#p2bd2332714)" d="M 464.25 768.96 
L 466.11 768.96 
L 466.11 572.912058 
L 464.25 572.912058 
z
" style="fill:#1f77b4;"/>
   </g>
   <g id="patch_85">
    <path clip-path="url(#p2bd2332714)" d="M 467.97 768.96 
L 469.83 768.96 
L 469.83 567.583571 
L 467.97 567.583571 
z
" style="fill:#1f77b4;"/>
   </g>
   <g id="patch_86">
    <path clip-path="url(#p2bd2332714)" d="M 471.69 768.96 
L 473.55 768.96 
L 473.55 562.977092 
L 471.69 562.977092 
z
" style="fill:#1f77b4;"/>
   </g>
   <g id="patch_87">
    <path clip-path="url(#p2bd2332714)" d="M 475.41 768.96 
L 477.27 768.96 
L 477.27 561.150999 
L 475.41 561.150999 
z
" style="fill:#1f77b4;"/>
   </g>
   <g id="patch_88">
    <path clip-path="url(#p2bd2332714)" d="M 479.13 768.96 
L 480.99 768.96 
L 480.99 558.362409 
L 479.13 558.362409 
z
" style="fill:#1f77b4;"/>
   </g>
   <g id="patch_89">
    <path clip-path="url(#p2bd2332714)" d="M 482.85 768.96 
L 484.71 768.96 
L 484.71 553.303228 
L 482.85 553.303228 
z
" style="fill:#1f77b4;"/>
   </g>
   <g id="patch_90">
    <path clip-path="url(#p2bd2332714)" d="M 486.57 768.96 
L 488.43 768.96 
L 488.43 549.030727 
L 486.57 549.030727 
z
" style="fill:#1f77b4;"/>
   </g>
   <g id="patch_91">
    <path clip-path="url(#p2bd2332714)" d="M 490.29 768.96 
L 492.15 768.96 
L 492.15 543.110616 
L 490.29 543.110616 
z
" style="fill:#1f77b4;"/>
   </g>
   <g id="patch_92">
    <path clip-path="url(#p2bd2332714)" d="M 494.01 768.96 
L 495.87 768.96 
L 495.87 537.122627 
L 494.01 537.122627 
z
" style="fill:#1f77b4;"/>
   </g>
   <g id="patch_93">
    <path clip-path="url(#p2bd2332714)" d="M 497.73 768.96 
L 499.59 768.96 
L 499.59 532.576739 
L 497.73 532.576739 
z
" style="fill:#1f77b4;"/>
   </g>
   <g id="patch_94">
    <path clip-path="url(#p2bd2332714)" d="M 501.45 768.96 
L 503.31 768.96 
L 503.31 531.310289 
L 501.45 531.310289 
z
" style="fill:#1f77b4;"/>
   </g>
   <g id="patch_95">
    <path clip-path="url(#p2bd2332714)" d="M 505.17 768.96 
L 507.03 768.96 
L 507.03 527.040369 
L 505.17 527.040369 
z
" style="fill:#1f77b4;"/>
   </g>
   <g id="patch_96">
    <path clip-path="url(#p2bd2332714)" d="M 508.89 768.96 
L 510.75 768.96 
L 510.75 520.475706 
L 508.89 520.475706 
z
" style="fill:#1f77b4;"/>
   </g>
   <g id="patch_97">
    <path clip-path="url(#p2bd2332714)" d="M 512.61 768.96 
L 514.47 768.96 
L 514.47 513.183538 
L 512.61 513.183538 
z
" style="fill:#1f77b4;"/>
   </g>
   <g id="patch_98">
    <path clip-path="url(#p2bd2332714)" d="M 516.33 768.96 
L 518.19 768.96 
L 518.19 504.520686 
L 516.33 504.520686 
z
" style="fill:#1f77b4;"/>
   </g>
   <g id="patch_99">
    <path clip-path="url(#p2bd2332714)" d="M 520.05 768.96 
L 521.91 768.96 
L 521.91 494.308377 
L 520.05 494.308377 
z
" style="fill:#1f77b4;"/>
   </g>
   <g id="patch_100">
    <path clip-path="url(#p2bd2332714)" d="M 523.77 768.96 
L 525.63 768.96 
L 525.63 487.605833 
L 523.77 487.605833 
z
" style="fill:#1f77b4;"/>
   </g>
   <g id="patch_101">
    <path clip-path="url(#p2bd2332714)" d="M 527.49 768.96 
L 529.35 768.96 
L 529.35 484.36654 
L 527.49 484.36654 
z
" style="fill:#1f77b4;"/>
   </g>
   <g id="patch_102">
    <path clip-path="url(#p2bd2332714)" d="M 531.21 768.96 
L 533.07 768.96 
L 533.07 478.767997 
L 531.21 478.767997 
z
" style="fill:#1f77b4;"/>
   </g>
   <g id="patch_103">
    <path clip-path="url(#p2bd2332714)" d="M 534.93 768.96 
L 536.79 768.96 
L 536.79 471.82738 
L 534.93 471.82738 
z
" style="fill:#1f77b4;"/>
   </g>
   <g id="patch_104">
    <path clip-path="url(#p2bd2332714)" d="M 538.65 768.96 
L 540.51 768.96 
L 540.51 465.836809 
L 538.65 465.836809 
z
" style="fill:#1f77b4;"/>
   </g>
   <g id="patch_105">
    <path clip-path="url(#p2bd2332714)" d="M 542.37 768.96 
L 544.23 768.96 
L 544.23 457.676506 
L 542.37 457.676506 
z
" style="fill:#1f77b4;"/>
   </g>
   <g id="patch_106">
    <path clip-path="url(#p2bd2332714)" d="M 546.09 768.96 
L 547.95 768.96 
L 547.95 449.766895 
L 546.09 449.766895 
z
" style="fill:#1f77b4;"/>
   </g>
   <g id="patch_107">
    <path clip-path="url(#p2bd2332714)" d="M 549.81 768.96 
L 551.67 768.96 
L 551.67 444.328137 
L 549.81 444.328137 
z
" style="fill:#1f77b4;"/>
   </g>
   <g id="patch_108">
    <path clip-path="url(#p2bd2332714)" d="M 553.53 768.96 
L 555.39 768.96 
L 555.39 441.1506 
L 553.53 441.1506 
z
" style="fill:#1f77b4;"/>
   </g>
   <g id="patch_109">
    <path clip-path="url(#p2bd2332714)" d="M 557.25 768.96 
L 559.11 768.96 
L 559.11 436.597882 
L 557.25 436.597882 
z
" style="fill:#1f77b4;"/>
   </g>
   <g id="patch_110">
    <path clip-path="url(#p2bd2332714)" d="M 560.97 768.96 
L 562.83 768.96 
L 562.83 429.343109 
L 560.97 429.343109 
z
" style="fill:#1f77b4;"/>
   </g>
   <g id="patch_111">
    <path clip-path="url(#p2bd2332714)" d="M 564.69 768.96 
L 566.55 768.96 
L 566.55 422.940271 
L 564.69 422.940271 
z
" style="fill:#1f77b4;"/>
   </g>
   <g id="patch_112">
    <path clip-path="url(#p2bd2332714)" d="M 568.41 768.96 
L 570.27 768.96 
L 570.27 416.227817 
L 568.41 416.227817 
z
" style="fill:#1f77b4;"/>
   </g>
   <g id="patch_113">
    <path clip-path="url(#p2bd2332714)" d="M 572.13 768.96 
L 573.99 768.96 
L 573.99 410.094868 
L 572.13 410.094868 
z
" style="fill:#1f77b4;"/>
   </g>
   <g id="patch_114">
    <path clip-path="url(#p2bd2332714)" d="M 575.85 768.96 
L 577.71 768.96 
L 577.71 406.088716 
L 575.85 406.088716 
z
" style="fill:#1f77b4;"/>
   </g>
   <g id="patch_115">
    <path clip-path="url(#p2bd2332714)" d="M 579.57 768.96 
L 581.43 768.96 
L 581.43 404.441106 
L 579.57 404.441106 
z
" style="fill:#1f77b4;"/>
   </g>
   <g id="patch_116">
    <path clip-path="url(#p2bd2332714)" d="M 583.29 768.96 
L 585.15 768.96 
L 585.15 400.635508 
L 583.29 400.635508 
z
" style="fill:#1f77b4;"/>
   </g>
   <g id="patch_117">
    <path clip-path="url(#p2bd2332714)" d="M 587.01 768.96 
L 588.87 768.96 
L 588.87 395.21449 
L 587.01 395.21449 
z
" style="fill:#1f77b4;"/>
   </g>
   <g id="patch_118">
    <path clip-path="url(#p2bd2332714)" d="M 590.73 768.96 
L 592.59 768.96 
L 592.59 389.581633 
L 590.73 389.581633 
z
" style="fill:#1f77b4;"/>
   </g>
   <g id="patch_119">
    <path clip-path="url(#p2bd2332714)" d="M 594.45 768.96 
L 596.31 768.96 
L 596.31 384.112975 
L 594.45 384.112975 
z
" style="fill:#1f77b4;"/>
   </g>
   <g id="patch_120">
    <path clip-path="url(#p2bd2332714)" d="M 598.17 768.96 
L 600.03 768.96 
L 600.03 379.419171 
L 598.17 379.419171 
z
" style="fill:#1f77b4;"/>
   </g>
   <g id="patch_121">
    <path clip-path="url(#p2bd2332714)" d="M 601.89 768.96 
L 603.75 768.96 
L 603.75 377.334974 
L 601.89 377.334974 
z
" style="fill:#1f77b4;"/>
   </g>
   <g id="patch_122">
    <path clip-path="url(#p2bd2332714)" d="M 605.61 768.96 
L 607.47 768.96 
L 607.47 376.658607 
L 605.61 376.658607 
z
" style="fill:#1f77b4;"/>
   </g>
   <g id="patch_123">
    <path clip-path="url(#p2bd2332714)" d="M 609.33 768.96 
L 611.19 768.96 
L 611.19 374.347289 
L 609.33 374.347289 
z
" style="fill:#1f77b4;"/>
   </g>
   <g id="patch_124">
    <path clip-path="url(#p2bd2332714)" d="M 613.05 768.96 
L 614.91 768.96 
L 614.91 368.32511 
L 613.05 368.32511 
z
" style="fill:#1f77b4;"/>
   </g>
   <g id="patch_125">
    <path clip-path="url(#p2bd2332714)" d="M 616.77 768.96 
L 618.63 768.96 
L 618.63 362.500279 
L 616.77 362.500279 
z
" style="fill:#1f77b4;"/>
   </g>
   <g id="patch_126">
    <path clip-path="url(#p2bd2332714)" d="M 620.49 768.96 
L 622.35 768.96 
L 622.35 358.114009 
L 620.49 358.114009 
z
" style="fill:#1f77b4;"/>
   </g>
   <g id="patch_127">
    <path clip-path="url(#p2bd2332714)" d="M 624.21 768.96 
L 626.07 768.96 
L 626.07 351.654536 
L 624.21 351.654536 
z
" style="fill:#1f77b4;"/>
   </g>
   <g id="patch_128">
    <path clip-path="url(#p2bd2332714)" d="M 627.93 768.96 
L 629.79 768.96 
L 629.79 347.351094 
L 627.93 347.351094 
z
" style="fill:#1f77b4;"/>
   </g>
   <g id="patch_129">
    <path clip-path="url(#p2bd2332714)" d="M 631.65 768.96 
L 633.51 768.96 
L 633.51 343.518845 
L 631.65 343.518845 
z
" style="fill:#1f77b4;"/>
   </g>
   <g id="patch_130">
    <path clip-path="url(#p2bd2332714)" d="M 635.37 768.96 
L 637.23 768.96 
L 637.23 340.11377 
L 635.37 340.11377 
z
" style="fill:#1f77b4;"/>
   </g>
   <g id="patch_131">
    <path clip-path="url(#p2bd2332714)" d="M 639.09 768.96 
L 640.95 768.96 
L 640.95 335.611274 
L 639.09 335.611274 
z
" style="fill:#1f77b4;"/>
   </g>
   <g id="patch_132">
    <path clip-path="url(#p2bd2332714)" d="M 642.81 768.96 
L 644.67 768.96 
L 644.67 331.527167 
L 642.81 331.527167 
z
" style="fill:#1f77b4;"/>
   </g>
   <g id="patch_133">
    <path clip-path="url(#p2bd2332714)" d="M 646.53 768.96 
L 648.39 768.96 
L 648.39 327.304304 
L 646.53 327.304304 
z
" style="fill:#1f77b4;"/>
   </g>
   <g id="patch_134">
    <path clip-path="url(#p2bd2332714)" d="M 650.25 768.96 
L 652.11 768.96 
L 652.11 321.156905 
L 650.25 321.156905 
z
" style="fill:#1f77b4;"/>
   </g>
   <g id="patch_135">
    <path clip-path="url(#p2bd2332714)" d="M 653.97 768.96 
L 655.83 768.96 
L 655.83 317.822624 
L 653.97 317.822624 
z
" style="fill:#1f77b4;"/>
   </g>
   <g id="patch_136">
    <path clip-path="url(#p2bd2332714)" d="M 657.69 768.96 
L 659.55 768.96 
L 659.55 316.493292 
L 657.69 316.493292 
z
" style="fill:#1f77b4;"/>
   </g>
   <g id="patch_137">
    <path clip-path="url(#p2bd2332714)" d="M 661.41 768.96 
L 663.27 768.96 
L 663.27 314.103518 
L 661.41 314.103518 
z
" style="fill:#1f77b4;"/>
   </g>
   <g id="patch_138">
    <path clip-path="url(#p2bd2332714)" d="M 665.13 768.96 
L 666.99 768.96 
L 666.99 309.725119 
L 665.13 309.725119 
z
" style="fill:#1f77b4;"/>
   </g>
   <g id="patch_139">
    <path clip-path="url(#p2bd2332714)" d="M 668.85 768.96 
L 670.71 768.96 
L 670.71 305.79684 
L 668.85 305.79684 
z
" style="fill:#1f77b4;"/>
   </g>
   <g id="patch_140">
    <path clip-path="url(#p2bd2332714)" d="M 672.57 768.96 
L 674.43 768.96 
L 674.43 300.195549 
L 672.57 300.195549 
z
" style="fill:#1f77b4;"/>
   </g>
   <g id="patch_141">
    <path clip-path="url(#p2bd2332714)" d="M 676.29 768.96 
L 678.15 768.96 
L 678.15 296.534036 
L 676.29 296.534036 
z
" style="fill:#1f77b4;"/>
   </g>
   <g id="patch_142">
    <path clip-path="url(#p2bd2332714)" d="M 680.01 768.96 
L 681.87 768.96 
L 681.87 293.686063 
L 680.01 293.686063 
z
" style="fill:#1f77b4;"/>
   </g>
   <g id="patch_143">
    <path clip-path="url(#p2bd2332714)" d="M 683.73 768.96 
L 685.59 768.96 
L 685.59 292.379052 
L 683.73 292.379052 
z
" style="fill:#1f77b4;"/>
   </g>
   <g id="patch_144">
    <path clip-path="url(#p2bd2332714)" d="M 687.45 768.96 
L 689.31 768.96 
L 689.31 290.172174 
L 687.45 290.172174 
z
" style="fill:#1f77b4;"/>
   </g>
   <g id="patch_145">
    <path clip-path="url(#p2bd2332714)" d="M 691.17 768.96 
L 693.03 768.96 
L 693.03 287.441302 
L 691.17 287.441302 
z
" style="fill:#1f77b4;"/>
   </g>
   <g id="patch_146">
    <path clip-path="url(#p2bd2332714)" d="M 694.89 768.96 
L 696.75 768.96 
L 696.75 284.701684 
L 694.89 284.701684 
z
" style="fill:#1f77b4;"/>
   </g>
   <g id="patch_147">
    <path clip-path="url(#p2bd2332714)" d="M 698.61 768.96 
L 700.47 768.96 
L 700.47 281.842426 
L 698.61 281.842426 
z
" style="fill:#1f77b4;"/>
   </g>
   <g id="patch_148">
    <path clip-path="url(#p2bd2332714)" d="M 702.33 768.96 
L 704.19 768.96 
L 704.19 279.192008 
L 702.33 279.192008 
z
" style="fill:#1f77b4;"/>
   </g>
   <g id="patch_149">
    <path clip-path="url(#p2bd2332714)" d="M 706.05 768.96 
L 707.91 768.96 
L 707.91 277.385737 
L 706.05 277.385737 
z
" style="fill:#1f77b4;"/>
   </g>
   <g id="patch_150">
    <path clip-path="url(#p2bd2332714)" d="M 709.77 768.96 
L 711.63 768.96 
L 711.63 276.37685 
L 709.77 276.37685 
z
" style="fill:#1f77b4;"/>
   </g>
   <g id="patch_151">
    <path clip-path="url(#p2bd2332714)" d="M 713.49 768.96 
L 715.35 768.96 
L 715.35 275.648636 
L 713.49 275.648636 
z
" style="fill:#1f77b4;"/>
   </g>
   <g id="patch_152">
    <path clip-path="url(#p2bd2332714)" d="M 717.21 768.96 
L 719.07 768.96 
L 719.07 274.071362 
L 717.21 274.071362 
z
" style="fill:#1f77b4;"/>
   </g>
   <g id="patch_153">
    <path clip-path="url(#p2bd2332714)" d="M 720.93 768.96 
L 722.79 768.96 
L 722.79 272.400181 
L 720.93 272.400181 
z
" style="fill:#1f77b4;"/>
   </g>
   <g id="patch_154">
    <path clip-path="url(#p2bd2332714)" d="M 724.65 768.96 
L 726.51 768.96 
L 726.51 269.818891 
L 724.65 269.818891 
z
" style="fill:#1f77b4;"/>
   </g>
   <g id="patch_155">
    <path clip-path="url(#p2bd2332714)" d="M 728.37 768.96 
L 730.23 768.96 
L 730.23 267.201704 
L 728.37 267.201704 
z
" style="fill:#1f77b4;"/>
   </g>
   <g id="patch_156">
    <path clip-path="url(#p2bd2332714)" d="M 732.09 768.96 
L 733.95 768.96 
L 733.95 264.999574 
L 732.09 264.999574 
z
" style="fill:#1f77b4;"/>
   </g>
   <g id="patch_157">
    <path clip-path="url(#p2bd2332714)" d="M 735.81 768.96 
L 737.67 768.96 
L 737.67 263.492718 
L 735.81 263.492718 
z
" style="fill:#1f77b4;"/>
   </g>
   <g id="patch_158">
    <path clip-path="url(#p2bd2332714)" d="M 739.53 768.96 
L 741.39 768.96 
L 741.39 261.409479 
L 739.53 261.409479 
z
" style="fill:#1f77b4;"/>
   </g>
   <g id="patch_159">
    <path clip-path="url(#p2bd2332714)" d="M 743.25 768.96 
L 745.11 768.96 
L 745.11 258.97698 
L 743.25 258.97698 
z
" style="fill:#1f77b4;"/>
   </g>
   <g id="patch_160">
    <path clip-path="url(#p2bd2332714)" d="M 746.97 768.96 
L 748.83 768.96 
L 748.83 255.987462 
L 746.97 255.987462 
z
" style="fill:#1f77b4;"/>
   </g>
   <g id="patch_161">
    <path clip-path="url(#p2bd2332714)" d="M 750.69 768.96 
L 752.55 768.96 
L 752.55 253.946574 
L 750.69 253.946574 
z
" style="fill:#1f77b4;"/>
   </g>
   <g id="patch_162">
    <path clip-path="url(#p2bd2332714)" d="M 754.41 768.96 
L 756.27 768.96 
L 756.27 252.00767 
L 754.41 252.00767 
z
" style="fill:#1f77b4;"/>
   </g>
   <g id="patch_163">
    <path clip-path="url(#p2bd2332714)" d="M 758.13 768.96 
L 759.99 768.96 
L 759.99 250.861443 
L 758.13 250.861443 
z
" style="fill:#1f77b4;"/>
   </g>
   <g id="patch_164">
    <path clip-path="url(#p2bd2332714)" d="M 761.85 768.96 
L 763.71 768.96 
L 763.71 249.738453 
L 761.85 249.738453 
z
" style="fill:#1f77b4;"/>
   </g>
   <g id="patch_165">
    <path clip-path="url(#p2bd2332714)" d="M 765.57 768.96 
L 767.43 768.96 
L 767.43 246.35749 
L 765.57 246.35749 
z
" style="fill:#1f77b4;"/>
   </g>
   <g id="patch_166">
    <path clip-path="url(#p2bd2332714)" d="M 769.29 768.96 
L 771.15 768.96 
L 771.15 243.696786 
L 769.29 243.696786 
z
" style="fill:#1f77b4;"/>
   </g>
   <g id="patch_167">
    <path clip-path="url(#p2bd2332714)" d="M 773.01 768.96 
L 774.87 768.96 
L 774.87 241.851704 
L 773.01 241.851704 
z
" style="fill:#1f77b4;"/>
   </g>
   <g id="patch_168">
    <path clip-path="url(#p2bd2332714)" d="M 776.73 768.96 
L 778.59 768.96 
L 778.59 239.416373 
L 776.73 239.416373 
z
" style="fill:#1f77b4;"/>
   </g>
   <g id="patch_169">
    <path clip-path="url(#p2bd2332714)" d="M 780.45 768.96 
L 782.31 768.96 
L 782.31 238.263316 
L 780.45 238.263316 
z
" style="fill:#1f77b4;"/>
   </g>
   <g id="patch_170">
    <path clip-path="url(#p2bd2332714)" d="M 784.17 768.96 
L 786.03 768.96 
L 786.03 236.44347 
L 784.17 236.44347 
z
" style="fill:#1f77b4;"/>
   </g>
   <g id="patch_171">
    <path clip-path="url(#p2bd2332714)" d="M 787.89 768.96 
L 789.75 768.96 
L 789.75 235.678694 
L 787.89 235.678694 
z
" style="fill:#1f77b4;"/>
   </g>
   <g id="patch_172">
    <path clip-path="url(#p2bd2332714)" d="M 791.61 768.96 
L 793.47 768.96 
L 793.47 234.688213 
L 791.61 234.688213 
z
" style="fill:#1f77b4;"/>
   </g>
   <g id="patch_173">
    <path clip-path="url(#p2bd2332714)" d="M 795.33 768.96 
L 797.19 768.96 
L 797.19 233.477647 
L 795.33 233.477647 
z
" style="fill:#1f77b4;"/>
   </g>
   <g id="patch_174">
    <path clip-path="url(#p2bd2332714)" d="M 799.05 768.96 
L 800.91 768.96 
L 800.91 232.050912 
L 799.05 232.050912 
z
" style="fill:#1f77b4;"/>
   </g>
   <g id="patch_175">
    <path clip-path="url(#p2bd2332714)" d="M 802.77 768.96 
L 804.63 768.96 
L 804.63 230.292532 
L 802.77 230.292532 
z
" style="fill:#1f77b4;"/>
   </g>
   <g id="patch_176">
    <path clip-path="url(#p2bd2332714)" d="M 806.49 768.96 
L 808.35 768.96 
L 808.35 226.11935 
L 806.49 226.11935 
z
" style="fill:#1f77b4;"/>
   </g>
   <g id="patch_177">
    <path clip-path="url(#p2bd2332714)" d="M 810.21 768.96 
L 812.07 768.96 
L 812.07 221.319105 
L 810.21 221.319105 
z
" style="fill:#1f77b4;"/>
   </g>
   <g id="patch_178">
    <path clip-path="url(#p2bd2332714)" d="M 813.93 768.96 
L 815.79 768.96 
L 815.79 220.937321 
L 813.93 220.937321 
z
" style="fill:#1f77b4;"/>
   </g>
   <g id="patch_179">
    <path clip-path="url(#p2bd2332714)" d="M 817.65 768.96 
L 819.51 768.96 
L 819.51 219.950213 
L 817.65 219.950213 
z
" style="fill:#1f77b4;"/>
   </g>
   <g id="patch_180">
    <path clip-path="url(#p2bd2332714)" d="M 821.37 768.96 
L 823.23 768.96 
L 823.23 218.718368 
L 821.37 218.718368 
z
" style="fill:#1f77b4;"/>
   </g>
   <g id="patch_181">
    <path clip-path="url(#p2bd2332714)" d="M 825.09 768.96 
L 826.95 768.96 
L 826.95 217.531122 
L 825.09 217.531122 
z
" style="fill:#1f77b4;"/>
   </g>
   <g id="patch_182">
    <path clip-path="url(#p2bd2332714)" d="M 828.81 768.96 
L 830.67 768.96 
L 830.67 216.450608 
L 828.81 216.450608 
z
" style="fill:#1f77b4;"/>
   </g>
   <g id="patch_183">
    <path clip-path="url(#p2bd2332714)" d="M 832.53 768.96 
L 834.39 768.96 
L 834.39 215.373675 
L 832.53 215.373675 
z
" style="fill:#1f77b4;"/>
   </g>
   <g id="patch_184">
    <path clip-path="url(#p2bd2332714)" d="M 836.25 768.96 
L 838.11 768.96 
L 838.11 214.587495 
L 836.25 214.587495 
z
" style="fill:#1f77b4;"/>
   </g>
   <g id="patch_185">
    <path clip-path="url(#p2bd2332714)" d="M 839.97 768.96 
L 841.83 768.96 
L 841.83 214.20342 
L 839.97 214.20342 
z
" style="fill:#1f77b4;"/>
   </g>
   <g id="patch_186">
    <path clip-path="url(#p2bd2332714)" d="M 843.69 768.96 
L 845.55 768.96 
L 845.55 214.133335 
L 843.69 214.133335 
z
" style="fill:#1f77b4;"/>
   </g>
   <g id="patch_187">
    <path clip-path="url(#p2bd2332714)" d="M 847.41 768.96 
L 849.27 768.96 
L 849.27 213.511645 
L 847.41 213.511645 
z
" style="fill:#1f77b4;"/>
   </g>
   <g id="patch_188">
    <path clip-path="url(#p2bd2332714)" d="M 851.13 768.96 
L 852.99 768.96 
L 852.99 212.397108 
L 851.13 212.397108 
z
" style="fill:#1f77b4;"/>
   </g>
   <g id="patch_189">
    <path clip-path="url(#p2bd2332714)" d="M 854.85 768.96 
L 856.71 768.96 
L 856.71 211.279324 
L 854.85 211.279324 
z
" style="fill:#1f77b4;"/>
   </g>
   <g id="patch_190">
    <path clip-path="url(#p2bd2332714)" d="M 858.57 768.96 
L 860.43 768.96 
L 860.43 210.281888 
L 858.57 210.281888 
z
" style="fill:#1f77b4;"/>
   </g>
   <g id="patch_191">
    <path clip-path="url(#p2bd2332714)" d="M 862.29 768.96 
L 864.15 768.96 
L 864.15 209.467806 
L 862.29 209.467806 
z
" style="fill:#1f77b4;"/>
   </g>
   <g id="patch_192">
    <path clip-path="url(#p2bd2332714)" d="M 866.01 768.96 
L 867.87 768.96 
L 867.87 208.914453 
L 866.01 208.914453 
z
" style="fill:#1f77b4;"/>
   </g>
   <g id="patch_193">
    <path clip-path="url(#p2bd2332714)" d="M 869.73 768.96 
L 871.59 768.96 
L 871.59 207.862256 
L 869.73 207.862256 
z
" style="fill:#1f77b4;"/>
   </g>
   <g id="patch_194">
    <path clip-path="url(#p2bd2332714)" d="M 873.45 768.96 
L 875.31 768.96 
L 875.31 206.978505 
L 873.45 206.978505 
z
" style="fill:#1f77b4;"/>
   </g>
   <g id="patch_195">
    <path clip-path="url(#p2bd2332714)" d="M 877.17 768.96 
L 879.03 768.96 
L 879.03 206.141312 
L 877.17 206.141312 
z
" style="fill:#1f77b4;"/>
   </g>
   <g id="patch_196">
    <path clip-path="url(#p2bd2332714)" d="M 880.89 768.96 
L 882.75 768.96 
L 882.75 205.310615 
L 880.89 205.310615 
z
" style="fill:#1f77b4;"/>
   </g>
   <g id="patch_197">
    <path clip-path="url(#p2bd2332714)" d="M 884.61 768.96 
L 886.47 768.96 
L 886.47 204.476254 
L 884.61 204.476254 
z
" style="fill:#1f77b4;"/>
   </g>
   <g id="patch_198">
    <path clip-path="url(#p2bd2332714)" d="M 888.33 768.96 
L 890.19 768.96 
L 890.19 203.790475 
L 888.33 203.790475 
z
" style="fill:#1f77b4;"/>
   </g>
   <g id="patch_199">
    <path clip-path="url(#p2bd2332714)" d="M 892.05 768.96 
L 893.91 768.96 
L 893.91 203.32453 
L 892.05 203.32453 
z
" style="fill:#1f77b4;"/>
   </g>
   <g id="patch_200">
    <path clip-path="url(#p2bd2332714)" d="M 895.77 768.96 
L 897.63 768.96 
L 897.63 202.618679 
L 895.77 202.618679 
z
" style="fill:#1f77b4;"/>
   </g>
   <g id="patch_201">
    <path clip-path="url(#p2bd2332714)" d="M 899.49 768.96 
L 901.35 768.96 
L 901.35 201.670132 
L 899.49 201.670132 
z
" style="fill:#1f77b4;"/>
   </g>
   <g id="patch_202">
    <path clip-path="url(#p2bd2332714)" d="M 903.21 768.96 
L 905.07 768.96 
L 905.07 200.781301 
L 903.21 200.781301 
z
" style="fill:#1f77b4;"/>
   </g>
   <g id="patch_203">
    <path clip-path="url(#p2bd2332714)" d="M 906.93 768.96 
L 908.79 768.96 
L 908.79 200.133917 
L 906.93 200.133917 
z
" style="fill:#1f77b4;"/>
   </g>
   <g id="patch_204">
    <path clip-path="url(#p2bd2332714)" d="M 910.65 768.96 
L 912.51 768.96 
L 912.51 199.460381 
L 910.65 199.460381 
z
" style="fill:#1f77b4;"/>
   </g>
   <g id="patch_205">
    <path clip-path="url(#p2bd2332714)" d="M 914.37 768.96 
L 916.23 768.96 
L 916.23 199.052695 
L 914.37 199.052695 
z
" style="fill:#1f77b4;"/>
   </g>
   <g id="patch_206">
    <path clip-path="url(#p2bd2332714)" d="M 918.09 768.96 
L 919.95 768.96 
L 919.95 198.816995 
L 918.09 198.816995 
z
" style="fill:#1f77b4;"/>
   </g>
   <g id="patch_207">
    <path clip-path="url(#p2bd2332714)" d="M 921.81 768.96 
L 923.67 768.96 
L 923.67 198.408351 
L 921.81 198.408351 
z
" style="fill:#1f77b4;"/>
   </g>
   <g id="patch_208">
    <path clip-path="url(#p2bd2332714)" d="M 925.53 768.96 
L 927.39 768.96 
L 927.39 197.505403 
L 925.53 197.505403 
z
" style="fill:#1f77b4;"/>
   </g>
   <g id="patch_209">
    <path clip-path="url(#p2bd2332714)" d="M 929.25 768.96 
L 931.11 768.96 
L 931.11 196.010873 
L 929.25 196.010873 
z
" style="fill:#1f77b4;"/>
   </g>
   <g id="patch_210">
    <path clip-path="url(#p2bd2332714)" d="M 932.97 768.96 
L 934.83 768.96 
L 934.83 195.210493 
L 932.97 195.210493 
z
" style="fill:#1f77b4;"/>
   </g>
   <g id="patch_211">
    <path clip-path="url(#p2bd2332714)" d="M 936.69 768.96 
L 938.55 768.96 
L 938.55 193.257597 
L 936.69 193.257597 
z
" style="fill:#1f77b4;"/>
   </g>
   <g id="patch_212">
    <path clip-path="url(#p2bd2332714)" d="M 940.41 768.96 
L 942.27 768.96 
L 942.27 192.646484 
L 940.41 192.646484 
z
" style="fill:#1f77b4;"/>
   </g>
   <g id="patch_213">
    <path clip-path="url(#p2bd2332714)" d="M 944.13 768.96 
L 945.99 768.96 
L 945.99 192.201028 
L 944.13 192.201028 
z
" style="fill:#1f77b4;"/>
   </g>
   <g id="patch_214">
    <path clip-path="url(#p2bd2332714)" d="M 947.85 768.96 
L 949.71 768.96 
L 949.71 191.587375 
L 947.85 191.587375 
z
" style="fill:#1f77b4;"/>
   </g>
   <g id="patch_215">
    <path clip-path="url(#p2bd2332714)" d="M 951.57 768.96 
L 953.43 768.96 
L 953.43 190.751222 
L 951.57 190.751222 
z
" style="fill:#1f77b4;"/>
   </g>
   <g id="patch_216">
    <path clip-path="url(#p2bd2332714)" d="M 955.29 768.96 
L 957.15 768.96 
L 957.15 189.986863 
L 955.29 189.986863 
z
" style="fill:#1f77b4;"/>
   </g>
   <g id="patch_217">
    <path clip-path="url(#p2bd2332714)" d="M 959.01 768.96 
L 960.87 768.96 
L 960.87 189.182151 
L 959.01 189.182151 
z
" style="fill:#1f77b4;"/>
   </g>
   <g id="patch_218">
    <path clip-path="url(#p2bd2332714)" d="M 962.73 768.96 
L 964.59 768.96 
L 964.59 188.298651 
L 962.73 188.298651 
z
" style="fill:#1f77b4;"/>
   </g>
   <g id="patch_219">
    <path clip-path="url(#p2bd2332714)" d="M 966.45 768.96 
L 968.31 768.96 
L 968.31 186.739366 
L 966.45 186.739366 
z
" style="fill:#1f77b4;"/>
   </g>
   <g id="patch_220">
    <path clip-path="url(#p2bd2332714)" d="M 970.17 768.96 
L 972.03 768.96 
L 972.03 186.231111 
L 970.17 186.231111 
z
" style="fill:#1f77b4;"/>
   </g>
   <g id="patch_221">
    <path clip-path="url(#p2bd2332714)" d="M 973.89 768.96 
L 975.75 768.96 
L 975.75 185.636323 
L 973.89 185.636323 
z
" style="fill:#1f77b4;"/>
   </g>
   <g id="patch_222">
    <path clip-path="url(#p2bd2332714)" d="M 977.61 768.96 
L 979.47 768.96 
L 979.47 185.053402 
L 977.61 185.053402 
z
" style="fill:#1f77b4;"/>
   </g>
   <g id="patch_223">
    <path clip-path="url(#p2bd2332714)" d="M 981.33 768.96 
L 983.19 768.96 
L 983.19 182.717806 
L 981.33 182.717806 
z
" style="fill:#1f77b4;"/>
   </g>
   <g id="patch_224">
    <path clip-path="url(#p2bd2332714)" d="M 985.05 768.96 
L 986.91 768.96 
L 986.91 180.688287 
L 985.05 180.688287 
z
" style="fill:#1f77b4;"/>
   </g>
   <g id="patch_225">
    <path clip-path="url(#p2bd2332714)" d="M 988.77 768.96 
L 990.63 768.96 
L 990.63 179.073075 
L 988.77 179.073075 
z
" style="fill:#1f77b4;"/>
   </g>
   <g id="patch_226">
    <path clip-path="url(#p2bd2332714)" d="M 992.49 768.96 
L 994.35 768.96 
L 994.35 176.73419 
L 992.49 176.73419 
z
" style="fill:#1f77b4;"/>
   </g>
   <g id="patch_227">
    <path clip-path="url(#p2bd2332714)" d="M 996.21 768.96 
L 998.07 768.96 
L 998.07 175.150085 
L 996.21 175.150085 
z
" style="fill:#1f77b4;"/>
   </g>
   <g id="patch_228">
    <path clip-path="url(#p2bd2332714)" d="M 999.93 768.96 
L 1001.79 768.96 
L 1001.79 174.446608 
L 999.93 174.446608 
z
" style="fill:#1f77b4;"/>
   </g>
   <g id="patch_229">
    <path clip-path="url(#p2bd2332714)" d="M 1003.65 768.96 
L 1005.51 768.96 
L 1005.51 173.438886 
L 1003.65 173.438886 
z
" style="fill:#1f77b4;"/>
   </g>
   <g id="patch_230">
    <path clip-path="url(#p2bd2332714)" d="M 1007.37 768.96 
L 1009.23 768.96 
L 1009.23 172.484842 
L 1007.37 172.484842 
z
" style="fill:#1f77b4;"/>
   </g>
   <g id="patch_231">
    <path clip-path="url(#p2bd2332714)" d="M 1011.09 768.96 
L 1012.95 768.96 
L 1012.95 171.566195 
L 1011.09 171.566195 
z
" style="fill:#1f77b4;"/>
   </g>
   <g id="patch_232">
    <path clip-path="url(#p2bd2332714)" d="M 1014.81 768.96 
L 1016.67 768.96 
L 1016.67 170.678114 
L 1014.81 170.678114 
z
" style="fill:#1f77b4;"/>
   </g>
   <g id="patch_233">
    <path clip-path="url(#p2bd2332714)" d="M 1018.53 768.96 
L 1020.39 768.96 
L 1020.39 169.807814 
L 1018.53 169.807814 
z
" style="fill:#1f77b4;"/>
   </g>
   <g id="patch_234">
    <path clip-path="url(#p2bd2332714)" d="M 1022.25 768.96 
L 1024.11 768.96 
L 1024.11 169.233764 
L 1022.25 169.233764 
z
" style="fill:#1f77b4;"/>
   </g>
   <g id="patch_235">
    <path clip-path="url(#p2bd2332714)" d="M 1025.97 768.96 
L 1027.83 768.96 
L 1027.83 168.495889 
L 1025.97 168.495889 
z
" style="fill:#1f77b4;"/>
   </g>
   <g id="patch_236">
    <path clip-path="url(#p2bd2332714)" d="M 1029.69 768.96 
L 1031.55 768.96 
L 1031.55 167.47405 
L 1029.69 167.47405 
z
" style="fill:#1f77b4;"/>
   </g>
   <g id="patch_237">
    <path clip-path="url(#p2bd2332714)" d="M 1033.41 768.96 
L 1035.27 768.96 
L 1035.27 166.496645 
L 1033.41 166.496645 
z
" style="fill:#1f77b4;"/>
   </g>
   <g id="patch_238">
    <path clip-path="url(#p2bd2332714)" d="M 1037.13 768.96 
L 1038.99 768.96 
L 1038.99 165.418962 
L 1037.13 165.418962 
z
" style="fill:#1f77b4;"/>
   </g>
   <g id="patch_239">
    <path clip-path="url(#p2bd2332714)" d="M 1040.85 768.96 
L 1042.71 768.96 
L 1042.71 164.192906 
L 1040.85 164.192906 
z
" style="fill:#1f77b4;"/>
   </g>
   <g id="patch_240">
    <path clip-path="url(#p2bd2332714)" d="M 1044.57 768.96 
L 1046.43 768.96 
L 1046.43 162.408956 
L 1044.57 162.408956 
z
" style="fill:#1f77b4;"/>
   </g>
   <g id="patch_241">
    <path clip-path="url(#p2bd2332714)" d="M 1048.29 768.96 
L 1050.15 768.96 
L 1050.15 159.585969 
L 1048.29 159.585969 
z
" style="fill:#1f77b4;"/>
   </g>
   <g id="patch_242">
    <path clip-path="url(#p2bd2332714)" d="M 1052.01 768.96 
L 1053.87 768.96 
L 1053.87 158.351375 
L 1052.01 158.351375 
z
" style="fill:#1f77b4;"/>
   </g>
   <g id="patch_243">
    <path clip-path="url(#p2bd2332714)" d="M 1055.73 768.96 
L 1057.59 768.96 
L 1057.59 157.324914 
L 1055.73 157.324914 
z
" style="fill:#1f77b4;"/>
   </g>
   <g id="patch_244">
    <path clip-path="url(#p2bd2332714)" d="M 1059.45 768.96 
L 1061.31 768.96 
L 1061.31 156.371286 
L 1059.45 156.371286 
z
" style="fill:#1f77b4;"/>
   </g>
   <g id="patch_245">
    <path clip-path="url(#p2bd2332714)" d="M 1063.17 768.96 
L 1065.03 768.96 
L 1065.03 155.480665 
L 1063.17 155.480665 
z
" style="fill:#1f77b4;"/>
   </g>
   <g id="patch_246">
    <path clip-path="url(#p2bd2332714)" d="M 1066.89 768.96 
L 1068.75 768.96 
L 1068.75 154.591293 
L 1066.89 154.591293 
z
" style="fill:#1f77b4;"/>
   </g>
   <g id="patch_247">
    <path clip-path="url(#p2bd2332714)" d="M 1070.61 768.96 
L 1072.47 768.96 
L 1072.47 153.802281 
L 1070.61 153.802281 
z
" style="fill:#1f77b4;"/>
   </g>
   <g id="patch_248">
    <path clip-path="url(#p2bd2332714)" d="M 1074.33 768.96 
L 1076.19 768.96 
L 1076.19 153.270456 
L 1074.33 153.270456 
z
" style="fill:#1f77b4;"/>
   </g>
   <g id="patch_249">
    <path clip-path="url(#p2bd2332714)" d="M 1078.05 768.96 
L 1079.91 768.96 
L 1079.91 152.893045 
L 1078.05 152.893045 
z
" style="fill:#1f77b4;"/>
   </g>
   <g id="patch_250">
    <path clip-path="url(#p2bd2332714)" d="M 1081.77 768.96 
L 1083.63 768.96 
L 1083.63 152.398158 
L 1081.77 152.398158 
z
" style="fill:#1f77b4;"/>
   </g>
   <g id="patch_251">
    <path clip-path="url(#p2bd2332714)" d="M 1085.49 768.96 
L 1087.35 768.96 
L 1087.35 151.404553 
L 1085.49 151.404553 
z
" style="fill:#1f77b4;"/>
   </g>
   <g id="patch_252">
    <path clip-path="url(#p2bd2332714)" d="M 1089.21 768.96 
L 1091.07 768.96 
L 1091.07 150.517971 
L 1089.21 150.517971 
z
" style="fill:#1f77b4;"/>
   </g>
   <g id="patch_253">
    <path clip-path="url(#p2bd2332714)" d="M 1092.93 768.96 
L 1094.79 768.96 
L 1094.79 149.673449 
L 1092.93 149.673449 
z
" style="fill:#1f77b4;"/>
   </g>
   <g id="patch_254">
    <path clip-path="url(#p2bd2332714)" d="M 1096.65 768.96 
L 1098.51 768.96 
L 1098.51 148.937781 
L 1096.65 148.937781 
z
" style="fill:#1f77b4;"/>
   </g>
   <g id="patch_255">
    <path clip-path="url(#p2bd2332714)" d="M 1100.37 768.96 
L 1102.23 768.96 
L 1102.23 148.395171 
L 1100.37 148.395171 
z
" style="fill:#1f77b4;"/>
   </g>
   <g id="patch_256">
    <path clip-path="url(#p2bd2332714)" d="M 1104.09 768.96 
L 1105.95 768.96 
L 1105.95 147.760489 
L 1104.09 147.760489 
z
" style="fill:#1f77b4;"/>
   </g>
   <g id="patch_257">
    <path clip-path="url(#p2bd2332714)" d="M 1107.81 768.96 
L 1109.67 768.96 
L 1109.67 146.883484 
L 1107.81 146.883484 
z
" style="fill:#1f77b4;"/>
   </g>
   <g id="patch_258">
    <path clip-path="url(#p2bd2332714)" d="M 1111.53 768.96 
L 1113.39 768.96 
L 1113.39 146.047415 
L 1111.53 146.047415 
z
" style="fill:#1f77b4;"/>
   </g>
   <g id="patch_259">
    <path clip-path="url(#p2bd2332714)" d="M 1115.25 768.96 
L 1117.11 768.96 
L 1117.11 145.208265 
L 1115.25 145.208265 
z
" style="fill:#1f77b4;"/>
   </g>
   <g id="patch_260">
    <path clip-path="url(#p2bd2332714)" d="M 1118.97 768.96 
L 1120.83 768.96 
L 1120.83 144.343879 
L 1118.97 144.343879 
z
" style="fill:#1f77b4;"/>
   </g>
   <g id="patch_261">
    <path clip-path="url(#p2bd2332714)" d="M 1122.69 768.96 
L 1124.55 768.96 
L 1124.55 143.518887 
L 1122.69 143.518887 
z
" style="fill:#1f77b4;"/>
   </g>
   <g id="patch_262">
    <path clip-path="url(#p2bd2332714)" d="M 1126.41 768.96 
L 1128.27 768.96 
L 1128.27 142.933509 
L 1126.41 142.933509 
z
" style="fill:#1f77b4;"/>
   </g>
   <g id="patch_263">
    <path clip-path="url(#p2bd2332714)" d="M 1130.13 768.96 
L 1131.99 768.96 
L 1131.99 142.359584 
L 1130.13 142.359584 
z
" style="fill:#1f77b4;"/>
   </g>
   <g id="patch_264">
    <path clip-path="url(#p2bd2332714)" d="M 1133.85 768.96 
L 1135.71 768.96 
L 1135.71 141.386676 
L 1133.85 141.386676 
z
" style="fill:#1f77b4;"/>
   </g>
   <g id="patch_265">
    <path clip-path="url(#p2bd2332714)" d="M 1137.57 768.96 
L 1139.43 768.96 
L 1139.43 140.672746 
L 1137.57 140.672746 
z
" style="fill:#1f77b4;"/>
   </g>
   <g id="patch_266">
    <path clip-path="url(#p2bd2332714)" d="M 1141.29 768.96 
L 1143.15 768.96 
L 1143.15 139.629003 
L 1141.29 139.629003 
z
" style="fill:#1f77b4;"/>
   </g>
   <g id="patch_267">
    <path clip-path="url(#p2bd2332714)" d="M 1145.01 768.96 
L 1146.87 768.96 
L 1146.87 138.633524 
L 1145.01 138.633524 
z
" style="fill:#1f77b4;"/>
   </g>
   <g id="patch_268">
    <path clip-path="url(#p2bd2332714)" d="M 1148.73 768.96 
L 1150.59 768.96 
L 1150.59 137.861502 
L 1148.73 137.861502 
z
" style="fill:#1f77b4;"/>
   </g>
   <g id="patch_269">
    <path clip-path="url(#p2bd2332714)" d="M 1152.45 768.96 
L 1154.31 768.96 
L 1154.31 137.361035 
L 1152.45 137.361035 
z
" style="fill:#1f77b4;"/>
   </g>
   <g id="patch_270">
    <path clip-path="url(#p2bd2332714)" d="M 1156.17 768.96 
L 1158.03 768.96 
L 1158.03 136.706655 
L 1156.17 136.706655 
z
" style="fill:#1f77b4;"/>
   </g>
   <g id="patch_271">
    <path clip-path="url(#p2bd2332714)" d="M 1159.89 768.96 
L 1161.75 768.96 
L 1161.75 135.932426 
L 1159.89 135.932426 
z
" style="fill:#1f77b4;"/>
   </g>
   <g id="patch_272">
    <path clip-path="url(#p2bd2332714)" d="M 1163.61 768.96 
L 1165.47 768.96 
L 1165.47 135.36 
L 1163.61 135.36 
z
" style="fill:#1f77b4;"/>
   </g>
   <g id="matplotlib.axis_1">
    <g id="xtick_1">
     <g id="line2d_1">
      <defs>
       <path d="M 0 0 
L 0 3.5 
" id="m2a3036ffe4" style="stroke:#000000;stroke-width:0.8;"/>
      </defs>
      <g>
       <use style="stroke:#000000;stroke-width:0.8;" x="163.86" xlink:href="#m2a3036ffe4" y="768.96"/>
      </g>
     </g>
     <g id="text_1">
      <!-- January -->
      <g transform="translate(144.904531 783.558437)scale(0.1 -0.1)">
       <defs>
        <path d="M 628 4666 
L 1259 4666 
L 1259 325 
Q 1259 -519 939 -900 
Q 619 -1281 -91 -1281 
L -331 -1281 
L -331 -750 
L -134 -750 
Q 284 -750 456 -515 
Q 628 -281 628 325 
L 628 4666 
z
" id="DejaVuSans-4a" transform="scale(0.015625)"/>
        <path d="M 2194 1759 
Q 1497 1759 1228 1600 
Q 959 1441 959 1056 
Q 959 750 1161 570 
Q 1363 391 1709 391 
Q 2188 391 2477 730 
Q 2766 1069 2766 1631 
L 2766 1759 
L 2194 1759 
z
M 3341 1997 
L 3341 0 
L 2766 0 
L 2766 531 
Q 2569 213 2275 61 
Q 1981 -91 1556 -91 
Q 1019 -91 701 211 
Q 384 513 384 1019 
Q 384 1609 779 1909 
Q 1175 2209 1959 2209 
L 2766 2209 
L 2766 2266 
Q 2766 2663 2505 2880 
Q 2244 3097 1772 3097 
Q 1472 3097 1187 3025 
Q 903 2953 641 2809 
L 641 3341 
Q 956 3463 1253 3523 
Q 1550 3584 1831 3584 
Q 2591 3584 2966 3190 
Q 3341 2797 3341 1997 
z
" id="DejaVuSans-61" transform="scale(0.015625)"/>
        <path d="M 3513 2113 
L 3513 0 
L 2938 0 
L 2938 2094 
Q 2938 2591 2744 2837 
Q 2550 3084 2163 3084 
Q 1697 3084 1428 2787 
Q 1159 2491 1159 1978 
L 1159 0 
L 581 0 
L 581 3500 
L 1159 3500 
L 1159 2956 
Q 1366 3272 1645 3428 
Q 1925 3584 2291 3584 
Q 2894 3584 3203 3211 
Q 3513 2838 3513 2113 
z
" id="DejaVuSans-6e" transform="scale(0.015625)"/>
        <path d="M 544 1381 
L 544 3500 
L 1119 3500 
L 1119 1403 
Q 1119 906 1312 657 
Q 1506 409 1894 409 
Q 2359 409 2629 706 
Q 2900 1003 2900 1516 
L 2900 3500 
L 3475 3500 
L 3475 0 
L 2900 0 
L 2900 538 
Q 2691 219 2414 64 
Q 2138 -91 1772 -91 
Q 1169 -91 856 284 
Q 544 659 544 1381 
z
M 1991 3584 
L 1991 3584 
z
" id="DejaVuSans-75" transform="scale(0.015625)"/>
        <path d="M 2631 2963 
Q 2534 3019 2420 3045 
Q 2306 3072 2169 3072 
Q 1681 3072 1420 2755 
Q 1159 2438 1159 1844 
L 1159 0 
L 581 0 
L 581 3500 
L 1159 3500 
L 1159 2956 
Q 1341 3275 1631 3429 
Q 1922 3584 2338 3584 
Q 2397 3584 2469 3576 
Q 2541 3569 2628 3553 
L 2631 2963 
z
" id="DejaVuSans-72" transform="scale(0.015625)"/>
        <path d="M 2059 -325 
Q 1816 -950 1584 -1140 
Q 1353 -1331 966 -1331 
L 506 -1331 
L 506 -850 
L 844 -850 
Q 1081 -850 1212 -737 
Q 1344 -625 1503 -206 
L 1606 56 
L 191 3500 
L 800 3500 
L 1894 763 
L 2988 3500 
L 3597 3500 
L 2059 -325 
z
" id="DejaVuSans-79" transform="scale(0.015625)"/>
       </defs>
       <use xlink:href="#DejaVuSans-4a"/>
       <use x="29.492188" xlink:href="#DejaVuSans-61"/>
       <use x="90.771484" xlink:href="#DejaVuSans-6e"/>
       <use x="154.150391" xlink:href="#DejaVuSans-75"/>
       <use x="217.529297" xlink:href="#DejaVuSans-61"/>
       <use x="278.808594" xlink:href="#DejaVuSans-72"/>
       <use x="319.921875" xlink:href="#DejaVuSans-79"/>
      </g>
     </g>
    </g>
    <g id="xtick_2">
     <g id="line2d_2">
      <g>
       <use style="stroke:#000000;stroke-width:0.8;" x="279.18" xlink:href="#m2a3036ffe4" y="768.96"/>
      </g>
     </g>
     <g id="text_2">
      <!-- February -->
      <g transform="translate(257.025313 783.558437)scale(0.1 -0.1)">
       <defs>
        <path d="M 628 4666 
L 3309 4666 
L 3309 4134 
L 1259 4134 
L 1259 2759 
L 3109 2759 
L 3109 2228 
L 1259 2228 
L 1259 0 
L 628 0 
L 628 4666 
z
" id="DejaVuSans-46" transform="scale(0.015625)"/>
        <path d="M 3597 1894 
L 3597 1613 
L 953 1613 
Q 991 1019 1311 708 
Q 1631 397 2203 397 
Q 2534 397 2845 478 
Q 3156 559 3463 722 
L 3463 178 
Q 3153 47 2828 -22 
Q 2503 -91 2169 -91 
Q 1331 -91 842 396 
Q 353 884 353 1716 
Q 353 2575 817 3079 
Q 1281 3584 2069 3584 
Q 2775 3584 3186 3129 
Q 3597 2675 3597 1894 
z
M 3022 2063 
Q 3016 2534 2758 2815 
Q 2500 3097 2075 3097 
Q 1594 3097 1305 2825 
Q 1016 2553 972 2059 
L 3022 2063 
z
" id="DejaVuSans-65" transform="scale(0.015625)"/>
        <path d="M 3116 1747 
Q 3116 2381 2855 2742 
Q 2594 3103 2138 3103 
Q 1681 3103 1420 2742 
Q 1159 2381 1159 1747 
Q 1159 1113 1420 752 
Q 1681 391 2138 391 
Q 2594 391 2855 752 
Q 3116 1113 3116 1747 
z
M 1159 2969 
Q 1341 3281 1617 3432 
Q 1894 3584 2278 3584 
Q 2916 3584 3314 3078 
Q 3713 2572 3713 1747 
Q 3713 922 3314 415 
Q 2916 -91 2278 -91 
Q 1894 -91 1617 61 
Q 1341 213 1159 525 
L 1159 0 
L 581 0 
L 581 4863 
L 1159 4863 
L 1159 2969 
z
" id="DejaVuSans-62" transform="scale(0.015625)"/>
       </defs>
       <use xlink:href="#DejaVuSans-46"/>
       <use x="52.019531" xlink:href="#DejaVuSans-65"/>
       <use x="113.542969" xlink:href="#DejaVuSans-62"/>
       <use x="177.019531" xlink:href="#DejaVuSans-72"/>
       <use x="218.132812" xlink:href="#DejaVuSans-75"/>
       <use x="281.511719" xlink:href="#DejaVuSans-61"/>
       <use x="342.791016" xlink:href="#DejaVuSans-72"/>
       <use x="383.904297" xlink:href="#DejaVuSans-79"/>
      </g>
     </g>
    </g>
    <g id="xtick_3">
     <g id="line2d_3">
      <g>
       <use style="stroke:#000000;stroke-width:0.8;" x="383.34" xlink:href="#m2a3036ffe4" y="768.96"/>
      </g>
     </g>
     <g id="text_3">
      <!-- March -->
      <g transform="translate(368.100938 783.558437)scale(0.1 -0.1)">
       <defs>
        <path d="M 628 4666 
L 1569 4666 
L 2759 1491 
L 3956 4666 
L 4897 4666 
L 4897 0 
L 4281 0 
L 4281 4097 
L 3078 897 
L 2444 897 
L 1241 4097 
L 1241 0 
L 628 0 
L 628 4666 
z
" id="DejaVuSans-4d" transform="scale(0.015625)"/>
        <path d="M 3122 3366 
L 3122 2828 
Q 2878 2963 2633 3030 
Q 2388 3097 2138 3097 
Q 1578 3097 1268 2742 
Q 959 2388 959 1747 
Q 959 1106 1268 751 
Q 1578 397 2138 397 
Q 2388 397 2633 464 
Q 2878 531 3122 666 
L 3122 134 
Q 2881 22 2623 -34 
Q 2366 -91 2075 -91 
Q 1284 -91 818 406 
Q 353 903 353 1747 
Q 353 2603 823 3093 
Q 1294 3584 2113 3584 
Q 2378 3584 2631 3529 
Q 2884 3475 3122 3366 
z
" id="DejaVuSans-63" transform="scale(0.015625)"/>
        <path d="M 3513 2113 
L 3513 0 
L 2938 0 
L 2938 2094 
Q 2938 2591 2744 2837 
Q 2550 3084 2163 3084 
Q 1697 3084 1428 2787 
Q 1159 2491 1159 1978 
L 1159 0 
L 581 0 
L 581 4863 
L 1159 4863 
L 1159 2956 
Q 1366 3272 1645 3428 
Q 1925 3584 2291 3584 
Q 2894 3584 3203 3211 
Q 3513 2838 3513 2113 
z
" id="DejaVuSans-68" transform="scale(0.015625)"/>
       </defs>
       <use xlink:href="#DejaVuSans-4d"/>
       <use x="86.279297" xlink:href="#DejaVuSans-61"/>
       <use x="147.558594" xlink:href="#DejaVuSans-72"/>
       <use x="186.421875" xlink:href="#DejaVuSans-63"/>
       <use x="241.402344" xlink:href="#DejaVuSans-68"/>
      </g>
     </g>
    </g>
    <g id="xtick_4">
     <g id="line2d_4">
      <g>
       <use style="stroke:#000000;stroke-width:0.8;" x="498.66" xlink:href="#m2a3036ffe4" y="768.96"/>
      </g>
     </g>
     <g id="text_4">
      <!-- April -->
      <g transform="translate(487.231875 783.558437)scale(0.1 -0.1)">
       <defs>
        <path d="M 2188 4044 
L 1331 1722 
L 3047 1722 
L 2188 4044 
z
M 1831 4666 
L 2547 4666 
L 4325 0 
L 3669 0 
L 3244 1197 
L 1141 1197 
L 716 0 
L 50 0 
L 1831 4666 
z
" id="DejaVuSans-41" transform="scale(0.015625)"/>
        <path d="M 1159 525 
L 1159 -1331 
L 581 -1331 
L 581 3500 
L 1159 3500 
L 1159 2969 
Q 1341 3281 1617 3432 
Q 1894 3584 2278 3584 
Q 2916 3584 3314 3078 
Q 3713 2572 3713 1747 
Q 3713 922 3314 415 
Q 2916 -91 2278 -91 
Q 1894 -91 1617 61 
Q 1341 213 1159 525 
z
M 3116 1747 
Q 3116 2381 2855 2742 
Q 2594 3103 2138 3103 
Q 1681 3103 1420 2742 
Q 1159 2381 1159 1747 
Q 1159 1113 1420 752 
Q 1681 391 2138 391 
Q 2594 391 2855 752 
Q 3116 1113 3116 1747 
z
" id="DejaVuSans-70" transform="scale(0.015625)"/>
        <path d="M 603 3500 
L 1178 3500 
L 1178 0 
L 603 0 
L 603 3500 
z
M 603 4863 
L 1178 4863 
L 1178 4134 
L 603 4134 
L 603 4863 
z
" id="DejaVuSans-69" transform="scale(0.015625)"/>
        <path d="M 603 4863 
L 1178 4863 
L 1178 0 
L 603 0 
L 603 4863 
z
" id="DejaVuSans-6c" transform="scale(0.015625)"/>
       </defs>
       <use xlink:href="#DejaVuSans-41"/>
       <use x="68.408203" xlink:href="#DejaVuSans-70"/>
       <use x="131.884766" xlink:href="#DejaVuSans-72"/>
       <use x="172.998047" xlink:href="#DejaVuSans-69"/>
       <use x="200.78125" xlink:href="#DejaVuSans-6c"/>
      </g>
     </g>
    </g>
    <g id="xtick_5">
     <g id="line2d_5">
      <g>
       <use style="stroke:#000000;stroke-width:0.8;" x="610.26" xlink:href="#m2a3036ffe4" y="768.96"/>
      </g>
     </g>
     <g id="text_5">
      <!-- May -->
      <g transform="translate(599.9225 783.558437)scale(0.1 -0.1)">
       <use xlink:href="#DejaVuSans-4d"/>
       <use x="86.279297" xlink:href="#DejaVuSans-61"/>
       <use x="147.558594" xlink:href="#DejaVuSans-79"/>
      </g>
     </g>
    </g>
    <g id="xtick_6">
     <g id="line2d_6">
      <g>
       <use style="stroke:#000000;stroke-width:0.8;" x="725.58" xlink:href="#m2a3036ffe4" y="768.96"/>
      </g>
     </g>
     <g id="text_6">
      <!-- June -->
      <g transform="translate(714.690938 783.558437)scale(0.1 -0.1)">
       <use xlink:href="#DejaVuSans-4a"/>
       <use x="29.492188" xlink:href="#DejaVuSans-75"/>
       <use x="92.871094" xlink:href="#DejaVuSans-6e"/>
       <use x="156.25" xlink:href="#DejaVuSans-65"/>
      </g>
     </g>
    </g>
    <g id="xtick_7">
     <g id="line2d_7">
      <g>
       <use style="stroke:#000000;stroke-width:0.8;" x="837.18" xlink:href="#m2a3036ffe4" y="768.96"/>
      </g>
     </g>
     <g id="text_7">
      <!-- July -->
      <g transform="translate(828.187813 783.558437)scale(0.1 -0.1)">
       <use xlink:href="#DejaVuSans-4a"/>
       <use x="29.492188" xlink:href="#DejaVuSans-75"/>
       <use x="92.871094" xlink:href="#DejaVuSans-6c"/>
       <use x="120.654297" xlink:href="#DejaVuSans-79"/>
      </g>
     </g>
    </g>
    <g id="xtick_8">
     <g id="line2d_8">
      <g>
       <use style="stroke:#000000;stroke-width:0.8;" x="952.5" xlink:href="#m2a3036ffe4" y="768.96"/>
      </g>
     </g>
     <g id="text_8">
      <!-- August -->
      <g transform="translate(935.003125 783.558437)scale(0.1 -0.1)">
       <defs>
        <path d="M 2906 1791 
Q 2906 2416 2648 2759 
Q 2391 3103 1925 3103 
Q 1463 3103 1205 2759 
Q 947 2416 947 1791 
Q 947 1169 1205 825 
Q 1463 481 1925 481 
Q 2391 481 2648 825 
Q 2906 1169 2906 1791 
z
M 3481 434 
Q 3481 -459 3084 -895 
Q 2688 -1331 1869 -1331 
Q 1566 -1331 1297 -1286 
Q 1028 -1241 775 -1147 
L 775 -588 
Q 1028 -725 1275 -790 
Q 1522 -856 1778 -856 
Q 2344 -856 2625 -561 
Q 2906 -266 2906 331 
L 2906 616 
Q 2728 306 2450 153 
Q 2172 0 1784 0 
Q 1141 0 747 490 
Q 353 981 353 1791 
Q 353 2603 747 3093 
Q 1141 3584 1784 3584 
Q 2172 3584 2450 3431 
Q 2728 3278 2906 2969 
L 2906 3500 
L 3481 3500 
L 3481 434 
z
" id="DejaVuSans-67" transform="scale(0.015625)"/>
        <path d="M 2834 3397 
L 2834 2853 
Q 2591 2978 2328 3040 
Q 2066 3103 1784 3103 
Q 1356 3103 1142 2972 
Q 928 2841 928 2578 
Q 928 2378 1081 2264 
Q 1234 2150 1697 2047 
L 1894 2003 
Q 2506 1872 2764 1633 
Q 3022 1394 3022 966 
Q 3022 478 2636 193 
Q 2250 -91 1575 -91 
Q 1294 -91 989 -36 
Q 684 19 347 128 
L 347 722 
Q 666 556 975 473 
Q 1284 391 1588 391 
Q 1994 391 2212 530 
Q 2431 669 2431 922 
Q 2431 1156 2273 1281 
Q 2116 1406 1581 1522 
L 1381 1569 
Q 847 1681 609 1914 
Q 372 2147 372 2553 
Q 372 3047 722 3315 
Q 1072 3584 1716 3584 
Q 2034 3584 2315 3537 
Q 2597 3491 2834 3397 
z
" id="DejaVuSans-73" transform="scale(0.015625)"/>
        <path d="M 1172 4494 
L 1172 3500 
L 2356 3500 
L 2356 3053 
L 1172 3053 
L 1172 1153 
Q 1172 725 1289 603 
Q 1406 481 1766 481 
L 2356 481 
L 2356 0 
L 1766 0 
Q 1100 0 847 248 
Q 594 497 594 1153 
L 594 3053 
L 172 3053 
L 172 3500 
L 594 3500 
L 594 4494 
L 1172 4494 
z
" id="DejaVuSans-74" transform="scale(0.015625)"/>
       </defs>
       <use xlink:href="#DejaVuSans-41"/>
       <use x="68.408203" xlink:href="#DejaVuSans-75"/>
       <use x="131.787109" xlink:href="#DejaVuSans-67"/>
       <use x="195.263672" xlink:href="#DejaVuSans-75"/>
       <use x="258.642578" xlink:href="#DejaVuSans-73"/>
       <use x="310.742188" xlink:href="#DejaVuSans-74"/>
      </g>
     </g>
    </g>
    <g id="xtick_9">
     <g id="line2d_9">
      <g>
       <use style="stroke:#000000;stroke-width:0.8;" x="1067.82" xlink:href="#m2a3036ffe4" y="768.96"/>
      </g>
     </g>
     <g id="text_9">
      <!-- September -->
      <g transform="translate(1040.181719 783.558437)scale(0.1 -0.1)">
       <defs>
        <path d="M 3425 4513 
L 3425 3897 
Q 3066 4069 2747 4153 
Q 2428 4238 2131 4238 
Q 1616 4238 1336 4038 
Q 1056 3838 1056 3469 
Q 1056 3159 1242 3001 
Q 1428 2844 1947 2747 
L 2328 2669 
Q 3034 2534 3370 2195 
Q 3706 1856 3706 1288 
Q 3706 609 3251 259 
Q 2797 -91 1919 -91 
Q 1588 -91 1214 -16 
Q 841 59 441 206 
L 441 856 
Q 825 641 1194 531 
Q 1563 422 1919 422 
Q 2459 422 2753 634 
Q 3047 847 3047 1241 
Q 3047 1584 2836 1778 
Q 2625 1972 2144 2069 
L 1759 2144 
Q 1053 2284 737 2584 
Q 422 2884 422 3419 
Q 422 4038 858 4394 
Q 1294 4750 2059 4750 
Q 2388 4750 2728 4690 
Q 3069 4631 3425 4513 
z
" id="DejaVuSans-53" transform="scale(0.015625)"/>
        <path d="M 3328 2828 
Q 3544 3216 3844 3400 
Q 4144 3584 4550 3584 
Q 5097 3584 5394 3201 
Q 5691 2819 5691 2113 
L 5691 0 
L 5113 0 
L 5113 2094 
Q 5113 2597 4934 2840 
Q 4756 3084 4391 3084 
Q 3944 3084 3684 2787 
Q 3425 2491 3425 1978 
L 3425 0 
L 2847 0 
L 2847 2094 
Q 2847 2600 2669 2842 
Q 2491 3084 2119 3084 
Q 1678 3084 1418 2786 
Q 1159 2488 1159 1978 
L 1159 0 
L 581 0 
L 581 3500 
L 1159 3500 
L 1159 2956 
Q 1356 3278 1631 3431 
Q 1906 3584 2284 3584 
Q 2666 3584 2933 3390 
Q 3200 3197 3328 2828 
z
" id="DejaVuSans-6d" transform="scale(0.015625)"/>
       </defs>
       <use xlink:href="#DejaVuSans-53"/>
       <use x="63.476562" xlink:href="#DejaVuSans-65"/>
       <use x="125" xlink:href="#DejaVuSans-70"/>
       <use x="188.476562" xlink:href="#DejaVuSans-74"/>
       <use x="227.685547" xlink:href="#DejaVuSans-65"/>
       <use x="289.208984" xlink:href="#DejaVuSans-6d"/>
       <use x="386.621094" xlink:href="#DejaVuSans-62"/>
       <use x="450.097656" xlink:href="#DejaVuSans-65"/>
       <use x="511.621094" xlink:href="#DejaVuSans-72"/>
      </g>
     </g>
    </g>
   </g>
   <g id="matplotlib.axis_2">
    <g id="ytick_1">
     <g id="line2d_10">
      <defs>
       <path d="M 0 0 
L -3.5 0 
" id="m9f575267e0" style="stroke:#000000;stroke-width:0.8;"/>
      </defs>
      <g>
       <use style="stroke:#000000;stroke-width:0.8;" x="162" xlink:href="#m9f575267e0" y="768.96"/>
      </g>
     </g>
     <g id="text_10">
      <!-- 0.0 -->
      <g transform="translate(139.096875 772.759219)scale(0.1 -0.1)">
       <defs>
        <path d="M 2034 4250 
Q 1547 4250 1301 3770 
Q 1056 3291 1056 2328 
Q 1056 1369 1301 889 
Q 1547 409 2034 409 
Q 2525 409 2770 889 
Q 3016 1369 3016 2328 
Q 3016 3291 2770 3770 
Q 2525 4250 2034 4250 
z
M 2034 4750 
Q 2819 4750 3233 4129 
Q 3647 3509 3647 2328 
Q 3647 1150 3233 529 
Q 2819 -91 2034 -91 
Q 1250 -91 836 529 
Q 422 1150 422 2328 
Q 422 3509 836 4129 
Q 1250 4750 2034 4750 
z
" id="DejaVuSans-30" transform="scale(0.015625)"/>
        <path d="M 684 794 
L 1344 794 
L 1344 0 
L 684 0 
L 684 794 
z
" id="DejaVuSans-2e" transform="scale(0.015625)"/>
       </defs>
       <use xlink:href="#DejaVuSans-30"/>
       <use x="63.623047" xlink:href="#DejaVuSans-2e"/>
       <use x="95.410156" xlink:href="#DejaVuSans-30"/>
      </g>
     </g>
    </g>
    <g id="ytick_2">
     <g id="line2d_11">
      <g>
       <use style="stroke:#000000;stroke-width:0.8;" x="162" xlink:href="#m9f575267e0" y="685.673758"/>
      </g>
     </g>
     <g id="text_11">
      <!-- 0.2 -->
      <g transform="translate(139.096875 689.472977)scale(0.1 -0.1)">
       <defs>
        <path d="M 1228 531 
L 3431 531 
L 3431 0 
L 469 0 
L 469 531 
Q 828 903 1448 1529 
Q 2069 2156 2228 2338 
Q 2531 2678 2651 2914 
Q 2772 3150 2772 3378 
Q 2772 3750 2511 3984 
Q 2250 4219 1831 4219 
Q 1534 4219 1204 4116 
Q 875 4013 500 3803 
L 500 4441 
Q 881 4594 1212 4672 
Q 1544 4750 1819 4750 
Q 2544 4750 2975 4387 
Q 3406 4025 3406 3419 
Q 3406 3131 3298 2873 
Q 3191 2616 2906 2266 
Q 2828 2175 2409 1742 
Q 1991 1309 1228 531 
z
" id="DejaVuSans-32" transform="scale(0.015625)"/>
       </defs>
       <use xlink:href="#DejaVuSans-30"/>
       <use x="63.623047" xlink:href="#DejaVuSans-2e"/>
       <use x="95.410156" xlink:href="#DejaVuSans-32"/>
      </g>
     </g>
    </g>
    <g id="ytick_3">
     <g id="line2d_12">
      <g>
       <use style="stroke:#000000;stroke-width:0.8;" x="162" xlink:href="#m9f575267e0" y="602.387517"/>
      </g>
     </g>
     <g id="text_12">
      <!-- 0.4 -->
      <g transform="translate(139.096875 606.186735)scale(0.1 -0.1)">
       <defs>
        <path d="M 2419 4116 
L 825 1625 
L 2419 1625 
L 2419 4116 
z
M 2253 4666 
L 3047 4666 
L 3047 1625 
L 3713 1625 
L 3713 1100 
L 3047 1100 
L 3047 0 
L 2419 0 
L 2419 1100 
L 313 1100 
L 313 1709 
L 2253 4666 
z
" id="DejaVuSans-34" transform="scale(0.015625)"/>
       </defs>
       <use xlink:href="#DejaVuSans-30"/>
       <use x="63.623047" xlink:href="#DejaVuSans-2e"/>
       <use x="95.410156" xlink:href="#DejaVuSans-34"/>
      </g>
     </g>
    </g>
    <g id="ytick_4">
     <g id="line2d_13">
      <g>
       <use style="stroke:#000000;stroke-width:0.8;" x="162" xlink:href="#m9f575267e0" y="519.101275"/>
      </g>
     </g>
     <g id="text_13">
      <!-- 0.6 -->
      <g transform="translate(139.096875 522.900494)scale(0.1 -0.1)">
       <defs>
        <path d="M 2113 2584 
Q 1688 2584 1439 2293 
Q 1191 2003 1191 1497 
Q 1191 994 1439 701 
Q 1688 409 2113 409 
Q 2538 409 2786 701 
Q 3034 994 3034 1497 
Q 3034 2003 2786 2293 
Q 2538 2584 2113 2584 
z
M 3366 4563 
L 3366 3988 
Q 3128 4100 2886 4159 
Q 2644 4219 2406 4219 
Q 1781 4219 1451 3797 
Q 1122 3375 1075 2522 
Q 1259 2794 1537 2939 
Q 1816 3084 2150 3084 
Q 2853 3084 3261 2657 
Q 3669 2231 3669 1497 
Q 3669 778 3244 343 
Q 2819 -91 2113 -91 
Q 1303 -91 875 529 
Q 447 1150 447 2328 
Q 447 3434 972 4092 
Q 1497 4750 2381 4750 
Q 2619 4750 2861 4703 
Q 3103 4656 3366 4563 
z
" id="DejaVuSans-36" transform="scale(0.015625)"/>
       </defs>
       <use xlink:href="#DejaVuSans-30"/>
       <use x="63.623047" xlink:href="#DejaVuSans-2e"/>
       <use x="95.410156" xlink:href="#DejaVuSans-36"/>
      </g>
     </g>
    </g>
    <g id="ytick_5">
     <g id="line2d_14">
      <g>
       <use style="stroke:#000000;stroke-width:0.8;" x="162" xlink:href="#m9f575267e0" y="435.815033"/>
      </g>
     </g>
     <g id="text_14">
      <!-- 0.8 -->
      <g transform="translate(139.096875 439.614252)scale(0.1 -0.1)">
       <defs>
        <path d="M 2034 2216 
Q 1584 2216 1326 1975 
Q 1069 1734 1069 1313 
Q 1069 891 1326 650 
Q 1584 409 2034 409 
Q 2484 409 2743 651 
Q 3003 894 3003 1313 
Q 3003 1734 2745 1975 
Q 2488 2216 2034 2216 
z
M 1403 2484 
Q 997 2584 770 2862 
Q 544 3141 544 3541 
Q 544 4100 942 4425 
Q 1341 4750 2034 4750 
Q 2731 4750 3128 4425 
Q 3525 4100 3525 3541 
Q 3525 3141 3298 2862 
Q 3072 2584 2669 2484 
Q 3125 2378 3379 2068 
Q 3634 1759 3634 1313 
Q 3634 634 3220 271 
Q 2806 -91 2034 -91 
Q 1263 -91 848 271 
Q 434 634 434 1313 
Q 434 1759 690 2068 
Q 947 2378 1403 2484 
z
M 1172 3481 
Q 1172 3119 1398 2916 
Q 1625 2713 2034 2713 
Q 2441 2713 2670 2916 
Q 2900 3119 2900 3481 
Q 2900 3844 2670 4047 
Q 2441 4250 2034 4250 
Q 1625 4250 1398 4047 
Q 1172 3844 1172 3481 
z
" id="DejaVuSans-38" transform="scale(0.015625)"/>
       </defs>
       <use xlink:href="#DejaVuSans-30"/>
       <use x="63.623047" xlink:href="#DejaVuSans-2e"/>
       <use x="95.410156" xlink:href="#DejaVuSans-38"/>
      </g>
     </g>
    </g>
    <g id="ytick_6">
     <g id="line2d_15">
      <g>
       <use style="stroke:#000000;stroke-width:0.8;" x="162" xlink:href="#m9f575267e0" y="352.528792"/>
      </g>
     </g>
     <g id="text_15">
      <!-- 1.0 -->
      <g transform="translate(139.096875 356.328011)scale(0.1 -0.1)">
       <defs>
        <path d="M 794 531 
L 1825 531 
L 1825 4091 
L 703 3866 
L 703 4441 
L 1819 4666 
L 2450 4666 
L 2450 531 
L 3481 531 
L 3481 0 
L 794 0 
L 794 531 
z
" id="DejaVuSans-31" transform="scale(0.015625)"/>
       </defs>
       <use xlink:href="#DejaVuSans-31"/>
       <use x="63.623047" xlink:href="#DejaVuSans-2e"/>
       <use x="95.410156" xlink:href="#DejaVuSans-30"/>
      </g>
     </g>
    </g>
    <g id="ytick_7">
     <g id="line2d_16">
      <g>
       <use style="stroke:#000000;stroke-width:0.8;" x="162" xlink:href="#m9f575267e0" y="269.24255"/>
      </g>
     </g>
     <g id="text_16">
      <!-- 1.2 -->
      <g transform="translate(139.096875 273.041769)scale(0.1 -0.1)">
       <use xlink:href="#DejaVuSans-31"/>
       <use x="63.623047" xlink:href="#DejaVuSans-2e"/>
       <use x="95.410156" xlink:href="#DejaVuSans-32"/>
      </g>
     </g>
    </g>
    <g id="ytick_8">
     <g id="line2d_17">
      <g>
       <use style="stroke:#000000;stroke-width:0.8;" x="162" xlink:href="#m9f575267e0" y="185.956309"/>
      </g>
     </g>
     <g id="text_17">
      <!-- 1.4 -->
      <g transform="translate(139.096875 189.755527)scale(0.1 -0.1)">
       <use xlink:href="#DejaVuSans-31"/>
       <use x="63.623047" xlink:href="#DejaVuSans-2e"/>
       <use x="95.410156" xlink:href="#DejaVuSans-34"/>
      </g>
     </g>
    </g>
    <g id="text_18">
     <!-- Persons fully vaccinated (tens of millions) -->
     <g transform="translate(133.017188 540.480156)rotate(-90)scale(0.1 -0.1)">
      <defs>
       <path d="M 1259 4147 
L 1259 2394 
L 2053 2394 
Q 2494 2394 2734 2622 
Q 2975 2850 2975 3272 
Q 2975 3691 2734 3919 
Q 2494 4147 2053 4147 
L 1259 4147 
z
M 628 4666 
L 2053 4666 
Q 2838 4666 3239 4311 
Q 3641 3956 3641 3272 
Q 3641 2581 3239 2228 
Q 2838 1875 2053 1875 
L 1259 1875 
L 1259 0 
L 628 0 
L 628 4666 
z
" id="DejaVuSans-50" transform="scale(0.015625)"/>
       <path d="M 1959 3097 
Q 1497 3097 1228 2736 
Q 959 2375 959 1747 
Q 959 1119 1226 758 
Q 1494 397 1959 397 
Q 2419 397 2687 759 
Q 2956 1122 2956 1747 
Q 2956 2369 2687 2733 
Q 2419 3097 1959 3097 
z
M 1959 3584 
Q 2709 3584 3137 3096 
Q 3566 2609 3566 1747 
Q 3566 888 3137 398 
Q 2709 -91 1959 -91 
Q 1206 -91 779 398 
Q 353 888 353 1747 
Q 353 2609 779 3096 
Q 1206 3584 1959 3584 
z
" id="DejaVuSans-6f" transform="scale(0.015625)"/>
       <path id="DejaVuSans-20" transform="scale(0.015625)"/>
       <path d="M 2375 4863 
L 2375 4384 
L 1825 4384 
Q 1516 4384 1395 4259 
Q 1275 4134 1275 3809 
L 1275 3500 
L 2222 3500 
L 2222 3053 
L 1275 3053 
L 1275 0 
L 697 0 
L 697 3053 
L 147 3053 
L 147 3500 
L 697 3500 
L 697 3744 
Q 697 4328 969 4595 
Q 1241 4863 1831 4863 
L 2375 4863 
z
" id="DejaVuSans-66" transform="scale(0.015625)"/>
       <path d="M 191 3500 
L 800 3500 
L 1894 563 
L 2988 3500 
L 3597 3500 
L 2284 0 
L 1503 0 
L 191 3500 
z
" id="DejaVuSans-76" transform="scale(0.015625)"/>
       <path d="M 2906 2969 
L 2906 4863 
L 3481 4863 
L 3481 0 
L 2906 0 
L 2906 525 
Q 2725 213 2448 61 
Q 2172 -91 1784 -91 
Q 1150 -91 751 415 
Q 353 922 353 1747 
Q 353 2572 751 3078 
Q 1150 3584 1784 3584 
Q 2172 3584 2448 3432 
Q 2725 3281 2906 2969 
z
M 947 1747 
Q 947 1113 1208 752 
Q 1469 391 1925 391 
Q 2381 391 2643 752 
Q 2906 1113 2906 1747 
Q 2906 2381 2643 2742 
Q 2381 3103 1925 3103 
Q 1469 3103 1208 2742 
Q 947 2381 947 1747 
z
" id="DejaVuSans-64" transform="scale(0.015625)"/>
       <path d="M 1984 4856 
Q 1566 4138 1362 3434 
Q 1159 2731 1159 2009 
Q 1159 1288 1364 580 
Q 1569 -128 1984 -844 
L 1484 -844 
Q 1016 -109 783 600 
Q 550 1309 550 2009 
Q 550 2706 781 3412 
Q 1013 4119 1484 4856 
L 1984 4856 
z
" id="DejaVuSans-28" transform="scale(0.015625)"/>
       <path d="M 513 4856 
L 1013 4856 
Q 1481 4119 1714 3412 
Q 1947 2706 1947 2009 
Q 1947 1309 1714 600 
Q 1481 -109 1013 -844 
L 513 -844 
Q 928 -128 1133 580 
Q 1338 1288 1338 2009 
Q 1338 2731 1133 3434 
Q 928 4138 513 4856 
z
" id="DejaVuSans-29" transform="scale(0.015625)"/>
      </defs>
      <use xlink:href="#DejaVuSans-50"/>
      <use x="56.677734" xlink:href="#DejaVuSans-65"/>
      <use x="118.201172" xlink:href="#DejaVuSans-72"/>
      <use x="159.314453" xlink:href="#DejaVuSans-73"/>
      <use x="211.414062" xlink:href="#DejaVuSans-6f"/>
      <use x="272.595703" xlink:href="#DejaVuSans-6e"/>
      <use x="335.974609" xlink:href="#DejaVuSans-73"/>
      <use x="388.074219" xlink:href="#DejaVuSans-20"/>
      <use x="419.861328" xlink:href="#DejaVuSans-66"/>
      <use x="455.066406" xlink:href="#DejaVuSans-75"/>
      <use x="518.445312" xlink:href="#DejaVuSans-6c"/>
      <use x="546.228516" xlink:href="#DejaVuSans-6c"/>
      <use x="574.011719" xlink:href="#DejaVuSans-79"/>
      <use x="633.191406" xlink:href="#DejaVuSans-20"/>
      <use x="664.978516" xlink:href="#DejaVuSans-76"/>
      <use x="724.158203" xlink:href="#DejaVuSans-61"/>
      <use x="785.4375" xlink:href="#DejaVuSans-63"/>
      <use x="840.417969" xlink:href="#DejaVuSans-63"/>
      <use x="895.398438" xlink:href="#DejaVuSans-69"/>
      <use x="923.181641" xlink:href="#DejaVuSans-6e"/>
      <use x="986.560547" xlink:href="#DejaVuSans-61"/>
      <use x="1047.839844" xlink:href="#DejaVuSans-74"/>
      <use x="1087.048828" xlink:href="#DejaVuSans-65"/>
      <use x="1148.572266" xlink:href="#DejaVuSans-64"/>
      <use x="1212.048828" xlink:href="#DejaVuSans-20"/>
      <use x="1243.835938" xlink:href="#DejaVuSans-28"/>
      <use x="1282.849609" xlink:href="#DejaVuSans-74"/>
      <use x="1322.058594" xlink:href="#DejaVuSans-65"/>
      <use x="1383.582031" xlink:href="#DejaVuSans-6e"/>
      <use x="1446.960938" xlink:href="#DejaVuSans-73"/>
      <use x="1499.060547" xlink:href="#DejaVuSans-20"/>
      <use x="1530.847656" xlink:href="#DejaVuSans-6f"/>
      <use x="1592.029297" xlink:href="#DejaVuSans-66"/>
      <use x="1627.234375" xlink:href="#DejaVuSans-20"/>
      <use x="1659.021484" xlink:href="#DejaVuSans-6d"/>
      <use x="1756.433594" xlink:href="#DejaVuSans-69"/>
      <use x="1784.216797" xlink:href="#DejaVuSans-6c"/>
      <use x="1812" xlink:href="#DejaVuSans-6c"/>
      <use x="1839.783203" xlink:href="#DejaVuSans-69"/>
      <use x="1867.566406" xlink:href="#DejaVuSans-6f"/>
      <use x="1928.748047" xlink:href="#DejaVuSans-6e"/>
      <use x="1992.126953" xlink:href="#DejaVuSans-73"/>
      <use x="2044.226562" xlink:href="#DejaVuSans-29"/>
     </g>
    </g>
    <g id="text_19">
     <!-- 1e7 -->
     <g transform="translate(162 100.68)scale(0.1 -0.1)">
      <defs>
       <path d="M 525 4666 
L 3525 4666 
L 3525 4397 
L 1831 0 
L 1172 0 
L 2766 4134 
L 525 4134 
L 525 4666 
z
" id="DejaVuSans-37" transform="scale(0.015625)"/>
      </defs>
      <use xlink:href="#DejaVuSans-31"/>
      <use x="63.623047" xlink:href="#DejaVuSans-65"/>
      <use x="125.146484" xlink:href="#DejaVuSans-37"/>
     </g>
    </g>
   </g>
   <g id="patch_273">
    <path d="M 162 768.96 
L 162 103.68 
" style="fill:none;stroke:#000000;stroke-linecap:square;stroke-linejoin:miter;stroke-width:0.8;"/>
   </g>
   <g id="patch_274">
    <path d="M 1166.4 768.96 
L 1166.4 103.68 
" style="fill:none;stroke:#000000;stroke-linecap:square;stroke-linejoin:miter;stroke-width:0.8;"/>
   </g>
   <g id="patch_275">
    <path d="M 162 768.96 
L 1166.4 768.96 
" style="fill:none;stroke:#000000;stroke-linecap:square;stroke-linejoin:miter;stroke-width:0.8;"/>
   </g>
   <g id="patch_276">
    <path d="M 162 103.68 
L 1166.4 103.68 
" style="fill:none;stroke:#000000;stroke-linecap:square;stroke-linejoin:miter;stroke-width:0.8;"/>
   </g>
   <g id="text_20">
    <!-- Persons Fully Vaccinated -->
    <g transform="translate(590.380313 97.68)scale(0.12 -0.12)">
     <defs>
      <path d="M 1831 0 
L 50 4666 
L 709 4666 
L 2188 738 
L 3669 4666 
L 4325 4666 
L 2547 0 
L 1831 0 
z
" id="DejaVuSans-56" transform="scale(0.015625)"/>
     </defs>
     <use xlink:href="#DejaVuSans-50"/>
     <use x="56.677734" xlink:href="#DejaVuSans-65"/>
     <use x="118.201172" xlink:href="#DejaVuSans-72"/>
     <use x="159.314453" xlink:href="#DejaVuSans-73"/>
     <use x="211.414062" xlink:href="#DejaVuSans-6f"/>
     <use x="272.595703" xlink:href="#DejaVuSans-6e"/>
     <use x="335.974609" xlink:href="#DejaVuSans-73"/>
     <use x="388.074219" xlink:href="#DejaVuSans-20"/>
     <use x="419.861328" xlink:href="#DejaVuSans-46"/>
     <use x="471.880859" xlink:href="#DejaVuSans-75"/>
     <use x="535.259766" xlink:href="#DejaVuSans-6c"/>
     <use x="563.042969" xlink:href="#DejaVuSans-6c"/>
     <use x="590.826172" xlink:href="#DejaVuSans-79"/>
     <use x="650.005859" xlink:href="#DejaVuSans-20"/>
     <use x="681.792969" xlink:href="#DejaVuSans-56"/>
     <use x="742.451172" xlink:href="#DejaVuSans-61"/>
     <use x="803.730469" xlink:href="#DejaVuSans-63"/>
     <use x="858.710938" xlink:href="#DejaVuSans-63"/>
     <use x="913.691406" xlink:href="#DejaVuSans-69"/>
     <use x="941.474609" xlink:href="#DejaVuSans-6e"/>
     <use x="1004.853516" xlink:href="#DejaVuSans-61"/>
     <use x="1066.132812" xlink:href="#DejaVuSans-74"/>
     <use x="1105.341797" xlink:href="#DejaVuSans-65"/>
     <use x="1166.865234" xlink:href="#DejaVuSans-64"/>
    </g>
   </g>
  </g>
 </g>
 <defs>
  <clipPath id="p2bd2332714">
   <rect height="665.28" width="1004.4" x="162" y="103.68"/>
  </clipPath>
 </defs>
</svg>
