<?xml version="1.0" encoding="utf-8" standalone="no"?>
<!DOCTYPE svg PUBLIC "-//W3C//DTD SVG 1.1//EN"
  "http://www.w3.org/Graphics/SVG/1.1/DTD/svg11.dtd">
<svg height="864pt" version="1.1" viewBox="0 0 1296 864" width="1296pt" xmlns="http://www.w3.org/2000/svg" xmlns:xlink="http://www.w3.org/1999/xlink">
 <metadata>
  <rdf:RDF xmlns:cc="http://creativecommons.org/ns#" xmlns:dc="http://purl.org/dc/elements/1.1/" xmlns:rdf="http://www.w3.org/1999/02/22-rdf-syntax-ns#">
   <cc:Work>
    <dc:type rdf:resource="http://purl.org/dc/dcmitype/StillImage"/>
    <dc:date>2021-09-02T16:48:29.859707</dc:date>
    <dc:format>image/svg+xml</dc:format>
    <dc:creator>
     <cc:Agent>
      <dc:title>Matplotlib v3.4.2, https://matplotlib.org/</dc:title>
     </cc:Agent>
    </dc:creator>
   </cc:Work>
  </rdf:RDF>
 </metadata>
 <defs>
  <style type="text/css">*{stroke-linecap:butt;stroke-linejoin:round;}</style>
 </defs>
 <g id="figure_1">
  <g id="patch_1">
   <path d="M 0 864 
L 1296 864 
L 1296 0 
L 0 0 
z
" style="fill:#ffffff;"/>
  </g>
  <g id="axes_1">
   <g id="patch_2">
    <path d="M 162 768.96 
L 1166.4 768.96 
L 1166.4 103.68 
L 162 103.68 
z
" style="fill:#ffffff;"/>
   </g>
   <g id="patch_3">
    <path clip-path="url(#pcde182e9d3)" d="M 163.04625 768.96 
L 165.13875 768.96 
L 165.13875 768.948683 
L 163.04625 768.948683 
z
" style="fill:#1f77b4;"/>
   </g>
   <g id="patch_4">
    <path clip-path="url(#pcde182e9d3)" d="M 167.23125 768.96 
L 169.32375 768.96 
L 169.32375 768.918489 
L 167.23125 768.918489 
z
" style="fill:#1f77b4;"/>
   </g>
   <g id="patch_5">
    <path clip-path="url(#pcde182e9d3)" d="M 171.41625 768.96 
L 173.50875 768.96 
L 173.50875 768.702293 
L 171.41625 768.702293 
z
" style="fill:#1f77b4;"/>
   </g>
   <g id="patch_6">
    <path clip-path="url(#pcde182e9d3)" d="M 175.60125 768.96 
L 177.69375 768.96 
L 177.69375 767.137955 
L 175.60125 767.137955 
z
" style="fill:#1f77b4;"/>
   </g>
   <g id="patch_7">
    <path clip-path="url(#pcde182e9d3)" d="M 179.78625 768.96 
L 181.87875 768.96 
L 181.87875 765.264895 
L 179.78625 765.264895 
z
" style="fill:#1f77b4;"/>
   </g>
   <g id="patch_8">
    <path clip-path="url(#pcde182e9d3)" d="M 183.97125 768.96 
L 186.06375 768.96 
L 186.06375 764.243961 
L 183.97125 764.243961 
z
" style="fill:#1f77b4;"/>
   </g>
   <g id="patch_9">
    <path clip-path="url(#pcde182e9d3)" d="M 188.15625 768.96 
L 190.24875 768.96 
L 190.24875 763.624359 
L 188.15625 763.624359 
z
" style="fill:#1f77b4;"/>
   </g>
   <g id="patch_10">
    <path clip-path="url(#pcde182e9d3)" d="M 192.34125 768.96 
L 194.43375 768.96 
L 194.43375 762.651717 
L 192.34125 762.651717 
z
" style="fill:#1f77b4;"/>
   </g>
   <g id="patch_11">
    <path clip-path="url(#pcde182e9d3)" d="M 196.52625 768.96 
L 198.61875 768.96 
L 198.61875 761.727671 
L 196.52625 761.727671 
z
" style="fill:#1f77b4;"/>
   </g>
   <g id="patch_12">
    <path clip-path="url(#pcde182e9d3)" d="M 200.71125 768.96 
L 202.80375 768.96 
L 202.80375 760.973471 
L 200.71125 760.973471 
z
" style="fill:#1f77b4;"/>
   </g>
   <g id="patch_13">
    <path clip-path="url(#pcde182e9d3)" d="M 204.89625 768.96 
L 206.98875 768.96 
L 206.98875 760.053486 
L 204.89625 760.053486 
z
" style="fill:#1f77b4;"/>
   </g>
   <g id="patch_14">
    <path clip-path="url(#pcde182e9d3)" d="M 209.08125 768.96 
L 211.17375 768.96 
L 211.17375 759.862257 
L 209.08125 759.862257 
z
" style="fill:#1f77b4;"/>
   </g>
   <g id="patch_15">
    <path clip-path="url(#pcde182e9d3)" d="M 213.26625 768.96 
L 215.35875 768.96 
L 215.35875 759.743642 
L 213.26625 759.743642 
z
" style="fill:#1f77b4;"/>
   </g>
   <g id="patch_16">
    <path clip-path="url(#pcde182e9d3)" d="M 217.45125 768.96 
L 219.54375 768.96 
L 219.54375 759.687444 
L 217.45125 759.687444 
z
" style="fill:#1f77b4;"/>
   </g>
   <g id="patch_17">
    <path clip-path="url(#pcde182e9d3)" d="M 221.63625 768.96 
L 223.72875 768.96 
L 223.72875 759.428139 
L 221.63625 759.428139 
z
" style="fill:#1f77b4;"/>
   </g>
   <g id="patch_18">
    <path clip-path="url(#pcde182e9d3)" d="M 225.82125 768.96 
L 227.91375 768.96 
L 227.91375 758.997087 
L 225.82125 758.997087 
z
" style="fill:#1f77b4;"/>
   </g>
   <g id="patch_19">
    <path clip-path="url(#pcde182e9d3)" d="M 230.00625 768.96 
L 232.09875 768.96 
L 232.09875 758.150405 
L 230.00625 758.150405 
z
" style="fill:#1f77b4;"/>
   </g>
   <g id="patch_20">
    <path clip-path="url(#pcde182e9d3)" d="M 234.19125 768.96 
L 236.28375 768.96 
L 236.28375 757.310591 
L 234.19125 757.310591 
z
" style="fill:#1f77b4;"/>
   </g>
   <g id="patch_21">
    <path clip-path="url(#pcde182e9d3)" d="M 238.37625 768.96 
L 240.46875 768.96 
L 240.46875 756.707231 
L 238.37625 756.707231 
z
" style="fill:#1f77b4;"/>
   </g>
   <g id="patch_22">
    <path clip-path="url(#pcde182e9d3)" d="M 242.56125 768.96 
L 244.65375 768.96 
L 244.65375 756.487796 
L 242.56125 756.487796 
z
" style="fill:#1f77b4;"/>
   </g>
   <g id="patch_23">
    <path clip-path="url(#pcde182e9d3)" d="M 246.74625 768.96 
L 248.83875 768.96 
L 248.83875 756.188794 
L 246.74625 756.188794 
z
" style="fill:#1f77b4;"/>
   </g>
   <g id="patch_24">
    <path clip-path="url(#pcde182e9d3)" d="M 250.93125 768.96 
L 253.02375 768.96 
L 253.02375 755.387769 
L 250.93125 755.387769 
z
" style="fill:#1f77b4;"/>
   </g>
   <g id="patch_25">
    <path clip-path="url(#pcde182e9d3)" d="M 255.11625 768.96 
L 257.20875 768.96 
L 257.20875 754.055695 
L 255.11625 754.055695 
z
" style="fill:#1f77b4;"/>
   </g>
   <g id="patch_26">
    <path clip-path="url(#pcde182e9d3)" d="M 259.30125 768.96 
L 261.39375 768.96 
L 261.39375 752.207128 
L 259.30125 752.207128 
z
" style="fill:#1f77b4;"/>
   </g>
   <g id="patch_27">
    <path clip-path="url(#pcde182e9d3)" d="M 263.48625 768.96 
L 265.57875 768.96 
L 265.57875 750.649009 
L 263.48625 750.649009 
z
" style="fill:#1f77b4;"/>
   </g>
   <g id="patch_28">
    <path clip-path="url(#pcde182e9d3)" d="M 267.67125 768.96 
L 269.76375 768.96 
L 269.76375 749.240176 
L 267.67125 749.240176 
z
" style="fill:#1f77b4;"/>
   </g>
   <g id="patch_29">
    <path clip-path="url(#pcde182e9d3)" d="M 271.85625 768.96 
L 273.94875 768.96 
L 273.94875 748.465976 
L 271.85625 748.465976 
z
" style="fill:#1f77b4;"/>
   </g>
   <g id="patch_30">
    <path clip-path="url(#pcde182e9d3)" d="M 276.04125 768.96 
L 278.13375 768.96 
L 278.13375 748.028963 
L 276.04125 748.028963 
z
" style="fill:#1f77b4;"/>
   </g>
   <g id="patch_31">
    <path clip-path="url(#pcde182e9d3)" d="M 280.22625 768.96 
L 282.31875 768.96 
L 282.31875 747.269493 
L 280.22625 747.269493 
z
" style="fill:#1f77b4;"/>
   </g>
   <g id="patch_32">
    <path clip-path="url(#pcde182e9d3)" d="M 284.41125 768.96 
L 286.50375 768.96 
L 286.50375 745.624465 
L 284.41125 745.624465 
z
" style="fill:#1f77b4;"/>
   </g>
   <g id="patch_33">
    <path clip-path="url(#pcde182e9d3)" d="M 288.59625 768.96 
L 290.68875 768.96 
L 290.68875 744.402842 
L 288.59625 744.402842 
z
" style="fill:#1f77b4;"/>
   </g>
   <g id="patch_34">
    <path clip-path="url(#pcde182e9d3)" d="M 292.78125 768.96 
L 294.87375 768.96 
L 294.87375 742.739887 
L 292.78125 742.739887 
z
" style="fill:#1f77b4;"/>
   </g>
   <g id="patch_35">
    <path clip-path="url(#pcde182e9d3)" d="M 296.96625 768.96 
L 299.05875 768.96 
L 299.05875 741.430664 
L 296.96625 741.430664 
z
" style="fill:#1f77b4;"/>
   </g>
   <g id="patch_36">
    <path clip-path="url(#pcde182e9d3)" d="M 301.15125 768.96 
L 303.24375 768.96 
L 303.24375 740.266967 
L 301.15125 740.266967 
z
" style="fill:#1f77b4;"/>
   </g>
   <g id="patch_37">
    <path clip-path="url(#pcde182e9d3)" d="M 305.33625 768.96 
L 307.42875 768.96 
L 307.42875 739.87004 
L 305.33625 739.87004 
z
" style="fill:#1f77b4;"/>
   </g>
   <g id="patch_38">
    <path clip-path="url(#pcde182e9d3)" d="M 309.52125 768.96 
L 311.61375 768.96 
L 311.61375 738.521162 
L 309.52125 738.521162 
z
" style="fill:#1f77b4;"/>
   </g>
   <g id="patch_39">
    <path clip-path="url(#pcde182e9d3)" d="M 313.70625 768.96 
L 315.79875 768.96 
L 315.79875 736.861317 
L 313.70625 736.861317 
z
" style="fill:#1f77b4;"/>
   </g>
   <g id="patch_40">
    <path clip-path="url(#pcde182e9d3)" d="M 317.89125 768.96 
L 319.98375 768.96 
L 319.98375 734.850377 
L 317.89125 734.850377 
z
" style="fill:#1f77b4;"/>
   </g>
   <g id="patch_41">
    <path clip-path="url(#pcde182e9d3)" d="M 322.07625 768.96 
L 324.16875 768.96 
L 324.16875 731.980615 
L 322.07625 731.980615 
z
" style="fill:#1f77b4;"/>
   </g>
   <g id="patch_42">
    <path clip-path="url(#pcde182e9d3)" d="M 326.26125 768.96 
L 328.35375 768.96 
L 328.35375 729.385278 
L 326.26125 729.385278 
z
" style="fill:#1f77b4;"/>
   </g>
   <g id="patch_43">
    <path clip-path="url(#pcde182e9d3)" d="M 330.44625 768.96 
L 332.53875 768.96 
L 332.53875 727.760206 
L 330.44625 727.760206 
z
" style="fill:#1f77b4;"/>
   </g>
   <g id="patch_44">
    <path clip-path="url(#pcde182e9d3)" d="M 334.63125 768.96 
L 336.72375 768.96 
L 336.72375 726.884452 
L 334.63125 726.884452 
z
" style="fill:#1f77b4;"/>
   </g>
   <g id="patch_45">
    <path clip-path="url(#pcde182e9d3)" d="M 338.81625 768.96 
L 340.90875 768.96 
L 340.90875 726.033882 
L 338.81625 726.033882 
z
" style="fill:#1f77b4;"/>
   </g>
   <g id="patch_46">
    <path clip-path="url(#pcde182e9d3)" d="M 343.00125 768.96 
L 345.09375 768.96 
L 345.09375 724.369243 
L 343.00125 724.369243 
z
" style="fill:#1f77b4;"/>
   </g>
   <g id="patch_47">
    <path clip-path="url(#pcde182e9d3)" d="M 347.18625 768.96 
L 349.27875 768.96 
L 349.27875 721.610279 
L 347.18625 721.610279 
z
" style="fill:#1f77b4;"/>
   </g>
   <g id="patch_48">
    <path clip-path="url(#pcde182e9d3)" d="M 351.37125 768.96 
L 353.46375 768.96 
L 353.46375 718.013272 
L 351.37125 718.013272 
z
" style="fill:#1f77b4;"/>
   </g>
   <g id="patch_49">
    <path clip-path="url(#pcde182e9d3)" d="M 355.55625 768.96 
L 357.64875 768.96 
L 357.64875 714.632547 
L 355.55625 714.632547 
z
" style="fill:#1f77b4;"/>
   </g>
   <g id="patch_50">
    <path clip-path="url(#pcde182e9d3)" d="M 359.74125 768.96 
L 361.83375 768.96 
L 361.83375 714.087674 
L 359.74125 714.087674 
z
" style="fill:#1f77b4;"/>
   </g>
   <g id="patch_51">
    <path clip-path="url(#pcde182e9d3)" d="M 363.92625 768.96 
L 366.01875 768.96 
L 366.01875 711.600369 
L 363.92625 711.600369 
z
" style="fill:#1f77b4;"/>
   </g>
   <g id="patch_52">
    <path clip-path="url(#pcde182e9d3)" d="M 368.11125 768.96 
L 370.20375 768.96 
L 370.20375 709.609039 
L 368.11125 709.609039 
z
" style="fill:#1f77b4;"/>
   </g>
   <g id="patch_53">
    <path clip-path="url(#pcde182e9d3)" d="M 372.29625 768.96 
L 374.38875 768.96 
L 374.38875 706.609043 
L 372.29625 706.609043 
z
" style="fill:#1f77b4;"/>
   </g>
   <g id="patch_54">
    <path clip-path="url(#pcde182e9d3)" d="M 376.48125 768.96 
L 378.57375 768.96 
L 378.57375 700.889304 
L 376.48125 700.889304 
z
" style="fill:#1f77b4;"/>
   </g>
   <g id="patch_55">
    <path clip-path="url(#pcde182e9d3)" d="M 380.66625 768.96 
L 382.75875 768.96 
L 382.75875 694.892377 
L 380.66625 694.892377 
z
" style="fill:#1f77b4;"/>
   </g>
   <g id="patch_56">
    <path clip-path="url(#pcde182e9d3)" d="M 384.85125 768.96 
L 386.94375 768.96 
L 386.94375 689.642955 
L 384.85125 689.642955 
z
" style="fill:#1f77b4;"/>
   </g>
   <g id="patch_57">
    <path clip-path="url(#pcde182e9d3)" d="M 389.03625 768.96 
L 391.12875 768.96 
L 391.12875 685.116676 
L 389.03625 685.116676 
z
" style="fill:#1f77b4;"/>
   </g>
   <g id="patch_58">
    <path clip-path="url(#pcde182e9d3)" d="M 393.22125 768.96 
L 395.31375 768.96 
L 395.31375 682.983102 
L 393.22125 682.983102 
z
" style="fill:#1f77b4;"/>
   </g>
   <g id="patch_59">
    <path clip-path="url(#pcde182e9d3)" d="M 397.40625 768.96 
L 399.49875 768.96 
L 399.49875 679.725441 
L 397.40625 679.725441 
z
" style="fill:#1f77b4;"/>
   </g>
   <g id="patch_60">
    <path clip-path="url(#pcde182e9d3)" d="M 401.59125 768.96 
L 403.68375 768.96 
L 403.68375 675.271126 
L 401.59125 675.271126 
z
" style="fill:#1f77b4;"/>
   </g>
   <g id="patch_61">
    <path clip-path="url(#pcde182e9d3)" d="M 405.77625 768.96 
L 407.86875 768.96 
L 407.86875 670.188742 
L 405.77625 670.188742 
z
" style="fill:#1f77b4;"/>
   </g>
   <g id="patch_62">
    <path clip-path="url(#pcde182e9d3)" d="M 409.96125 768.96 
L 412.05375 768.96 
L 412.05375 662.79849 
L 409.96125 662.79849 
z
" style="fill:#1f77b4;"/>
   </g>
   <g id="patch_63">
    <path clip-path="url(#pcde182e9d3)" d="M 414.14625 768.96 
L 416.23875 768.96 
L 416.23875 655.90689 
L 414.14625 655.90689 
z
" style="fill:#1f77b4;"/>
   </g>
   <g id="patch_64">
    <path clip-path="url(#pcde182e9d3)" d="M 418.33125 768.96 
L 420.42375 768.96 
L 420.42375 650.723342 
L 418.33125 650.723342 
z
" style="fill:#1f77b4;"/>
   </g>
   <g id="patch_65">
    <path clip-path="url(#pcde182e9d3)" d="M 422.51625 768.96 
L 424.60875 768.96 
L 424.60875 649.090278 
L 422.51625 649.090278 
z
" style="fill:#1f77b4;"/>
   </g>
   <g id="patch_66">
    <path clip-path="url(#pcde182e9d3)" d="M 426.70125 768.96 
L 428.79375 768.96 
L 428.79375 644.660239 
L 426.70125 644.660239 
z
" style="fill:#1f77b4;"/>
   </g>
   <g id="patch_67">
    <path clip-path="url(#pcde182e9d3)" d="M 430.88625 768.96 
L 432.97875 768.96 
L 432.97875 638.890091 
L 430.88625 638.890091 
z
" style="fill:#1f77b4;"/>
   </g>
   <g id="patch_68">
    <path clip-path="url(#pcde182e9d3)" d="M 435.07125 768.96 
L 437.16375 768.96 
L 437.16375 632.471875 
L 435.07125 632.471875 
z
" style="fill:#1f77b4;"/>
   </g>
   <g id="patch_69">
    <path clip-path="url(#pcde182e9d3)" d="M 439.25625 768.96 
L 441.34875 768.96 
L 441.34875 625.64982 
L 439.25625 625.64982 
z
" style="fill:#1f77b4;"/>
   </g>
   <g id="patch_70">
    <path clip-path="url(#pcde182e9d3)" d="M 443.44125 768.96 
L 445.53375 768.96 
L 445.53375 617.951451 
L 443.44125 617.951451 
z
" style="fill:#1f77b4;"/>
   </g>
   <g id="patch_71">
    <path clip-path="url(#pcde182e9d3)" d="M 447.62625 768.96 
L 449.71875 768.96 
L 449.71875 612.999347 
L 447.62625 612.999347 
z
" style="fill:#1f77b4;"/>
   </g>
   <g id="patch_72">
    <path clip-path="url(#pcde182e9d3)" d="M 451.81125 768.96 
L 453.90375 768.96 
L 453.90375 608.066507 
L 451.81125 608.066507 
z
" style="fill:#1f77b4;"/>
   </g>
   <g id="patch_73">
    <path clip-path="url(#pcde182e9d3)" d="M 455.99625 768.96 
L 458.08875 768.96 
L 458.08875 603.692666 
L 455.99625 603.692666 
z
" style="fill:#1f77b4;"/>
   </g>
   <g id="patch_74">
    <path clip-path="url(#pcde182e9d3)" d="M 460.18125 768.96 
L 462.27375 768.96 
L 462.27375 598.753001 
L 460.18125 598.753001 
z
" style="fill:#1f77b4;"/>
   </g>
   <g id="patch_75">
    <path clip-path="url(#pcde182e9d3)" d="M 464.36625 768.96 
L 466.45875 768.96 
L 466.45875 594.326245 
L 464.36625 594.326245 
z
" style="fill:#1f77b4;"/>
   </g>
   <g id="patch_76">
    <path clip-path="url(#pcde182e9d3)" d="M 468.55125 768.96 
L 470.64375 768.96 
L 470.64375 589.298418 
L 468.55125 589.298418 
z
" style="fill:#1f77b4;"/>
   </g>
   <g id="patch_77">
    <path clip-path="url(#pcde182e9d3)" d="M 472.73625 768.96 
L 474.82875 768.96 
L 474.82875 584.169037 
L 472.73625 584.169037 
z
" style="fill:#1f77b4;"/>
   </g>
   <g id="patch_78">
    <path clip-path="url(#pcde182e9d3)" d="M 476.92125 768.96 
L 479.01375 768.96 
L 479.01375 581.1585 
L 476.92125 581.1585 
z
" style="fill:#1f77b4;"/>
   </g>
   <g id="patch_79">
    <path clip-path="url(#pcde182e9d3)" d="M 481.10625 768.96 
L 483.19875 768.96 
L 483.19875 579.496625 
L 481.10625 579.496625 
z
" style="fill:#1f77b4;"/>
   </g>
   <g id="patch_80">
    <path clip-path="url(#pcde182e9d3)" d="M 485.29125 768.96 
L 487.38375 768.96 
L 487.38375 576.748849 
L 485.29125 576.748849 
z
" style="fill:#1f77b4;"/>
   </g>
   <g id="patch_81">
    <path clip-path="url(#pcde182e9d3)" d="M 489.47625 768.96 
L 491.56875 768.96 
L 491.56875 573.467604 
L 489.47625 573.467604 
z
" style="fill:#1f77b4;"/>
   </g>
   <g id="patch_82">
    <path clip-path="url(#pcde182e9d3)" d="M 493.66125 768.96 
L 495.75375 768.96 
L 495.75375 570.043683 
L 493.66125 570.043683 
z
" style="fill:#1f77b4;"/>
   </g>
   <g id="patch_83">
    <path clip-path="url(#pcde182e9d3)" d="M 497.84625 768.96 
L 499.93875 768.96 
L 499.93875 565.583018 
L 497.84625 565.583018 
z
" style="fill:#1f77b4;"/>
   </g>
   <g id="patch_84">
    <path clip-path="url(#pcde182e9d3)" d="M 502.03125 768.96 
L 504.12375 768.96 
L 504.12375 560.055242 
L 502.03125 560.055242 
z
" style="fill:#1f77b4;"/>
   </g>
   <g id="patch_85">
    <path clip-path="url(#pcde182e9d3)" d="M 506.21625 768.96 
L 508.30875 768.96 
L 508.30875 555.277648 
L 506.21625 555.277648 
z
" style="fill:#1f77b4;"/>
   </g>
   <g id="patch_86">
    <path clip-path="url(#pcde182e9d3)" d="M 510.40125 768.96 
L 512.49375 768.96 
L 512.49375 553.382861 
L 510.40125 553.382861 
z
" style="fill:#1f77b4;"/>
   </g>
   <g id="patch_87">
    <path clip-path="url(#pcde182e9d3)" d="M 514.58625 768.96 
L 516.67875 768.96 
L 516.67875 550.493748 
L 514.58625 550.493748 
z
" style="fill:#1f77b4;"/>
   </g>
   <g id="patch_88">
    <path clip-path="url(#pcde182e9d3)" d="M 518.77125 768.96 
L 520.86375 768.96 
L 520.86375 545.248948 
L 518.77125 545.248948 
z
" style="fill:#1f77b4;"/>
   </g>
   <g id="patch_89">
    <path clip-path="url(#pcde182e9d3)" d="M 522.95625 768.96 
L 525.04875 768.96 
L 525.04875 540.820723 
L 522.95625 540.820723 
z
" style="fill:#1f77b4;"/>
   </g>
   <g id="patch_90">
    <path clip-path="url(#pcde182e9d3)" d="M 527.14125 768.96 
L 529.23375 768.96 
L 529.23375 534.679997 
L 527.14125 534.679997 
z
" style="fill:#1f77b4;"/>
   </g>
   <g id="patch_91">
    <path clip-path="url(#pcde182e9d3)" d="M 531.32625 768.96 
L 533.41875 768.96 
L 533.41875 528.487912 
L 531.32625 528.487912 
z
" style="fill:#1f77b4;"/>
   </g>
   <g id="patch_92">
    <path clip-path="url(#pcde182e9d3)" d="M 535.51125 768.96 
L 537.60375 768.96 
L 537.60375 523.766862 
L 535.51125 523.766862 
z
" style="fill:#1f77b4;"/>
   </g>
   <g id="patch_93">
    <path clip-path="url(#pcde182e9d3)" d="M 539.69625 768.96 
L 541.78875 768.96 
L 541.78875 522.453318 
L 539.69625 522.453318 
z
" style="fill:#1f77b4;"/>
   </g>
   <g id="patch_94">
    <path clip-path="url(#pcde182e9d3)" d="M 543.88125 768.96 
L 545.97375 768.96 
L 545.97375 518.028592 
L 543.88125 518.028592 
z
" style="fill:#1f77b4;"/>
   </g>
   <g id="patch_95">
    <path clip-path="url(#pcde182e9d3)" d="M 548.06625 768.96 
L 550.15875 768.96 
L 550.15875 511.221613 
L 548.06625 511.221613 
z
" style="fill:#1f77b4;"/>
   </g>
   <g id="patch_96">
    <path clip-path="url(#pcde182e9d3)" d="M 552.25125 768.96 
L 554.34375 768.96 
L 554.34375 503.662119 
L 552.25125 503.662119 
z
" style="fill:#1f77b4;"/>
   </g>
   <g id="patch_97">
    <path clip-path="url(#pcde182e9d3)" d="M 556.43625 768.96 
L 558.52875 768.96 
L 558.52875 494.68053 
L 556.43625 494.68053 
z
" style="fill:#1f77b4;"/>
   </g>
   <g id="patch_98">
    <path clip-path="url(#pcde182e9d3)" d="M 560.62125 768.96 
L 562.71375 768.96 
L 562.71375 484.102465 
L 560.62125 484.102465 
z
" style="fill:#1f77b4;"/>
   </g>
   <g id="patch_99">
    <path clip-path="url(#pcde182e9d3)" d="M 564.80625 768.96 
L 566.89875 768.96 
L 566.89875 477.144559 
L 564.80625 477.144559 
z
" style="fill:#1f77b4;"/>
   </g>
   <g id="patch_100">
    <path clip-path="url(#pcde182e9d3)" d="M 568.99125 768.96 
L 571.08375 768.96 
L 571.08375 473.78284 
L 568.99125 473.78284 
z
" style="fill:#1f77b4;"/>
   </g>
   <g id="patch_101">
    <path clip-path="url(#pcde182e9d3)" d="M 573.17625 768.96 
L 575.26875 768.96 
L 575.26875 467.980813 
L 573.17625 467.980813 
z
" style="fill:#1f77b4;"/>
   </g>
   <g id="patch_102">
    <path clip-path="url(#pcde182e9d3)" d="M 577.36125 768.96 
L 579.45375 768.96 
L 579.45375 460.780536 
L 577.36125 460.780536 
z
" style="fill:#1f77b4;"/>
   </g>
   <g id="patch_103">
    <path clip-path="url(#pcde182e9d3)" d="M 581.54625 768.96 
L 583.63875 768.96 
L 583.63875 454.569444 
L 581.54625 454.569444 
z
" style="fill:#1f77b4;"/>
   </g>
   <g id="patch_104">
    <path clip-path="url(#pcde182e9d3)" d="M 585.73125 768.96 
L 587.82375 768.96 
L 587.82375 446.104953 
L 585.73125 446.104953 
z
" style="fill:#1f77b4;"/>
   </g>
   <g id="patch_105">
    <path clip-path="url(#pcde182e9d3)" d="M 589.91625 768.96 
L 592.00875 768.96 
L 592.00875 437.903828 
L 589.91625 437.903828 
z
" style="fill:#1f77b4;"/>
   </g>
   <g id="patch_106">
    <path clip-path="url(#pcde182e9d3)" d="M 594.10125 768.96 
L 596.19375 768.96 
L 596.19375 432.260373 
L 594.10125 432.260373 
z
" style="fill:#1f77b4;"/>
   </g>
   <g id="patch_107">
    <path clip-path="url(#pcde182e9d3)" d="M 598.28625 768.96 
L 600.37875 768.96 
L 600.37875 428.962929 
L 598.28625 428.962929 
z
" style="fill:#1f77b4;"/>
   </g>
   <g id="patch_108">
    <path clip-path="url(#pcde182e9d3)" d="M 602.47125 768.96 
L 604.56375 768.96 
L 604.56375 424.239849 
L 602.47125 424.239849 
z
" style="fill:#1f77b4;"/>
   </g>
   <g id="patch_109">
    <path clip-path="url(#pcde182e9d3)" d="M 606.65625 768.96 
L 608.74875 768.96 
L 608.74875 416.711672 
L 606.65625 416.711672 
z
" style="fill:#1f77b4;"/>
   </g>
   <g id="patch_110">
    <path clip-path="url(#pcde182e9d3)" d="M 610.84125 768.96 
L 612.93375 768.96 
L 612.93375 410.070695 
L 610.84125 410.070695 
z
" style="fill:#1f77b4;"/>
   </g>
   <g id="patch_111">
    <path clip-path="url(#pcde182e9d3)" d="M 615.02625 768.96 
L 617.11875 768.96 
L 617.11875 403.10631 
L 615.02625 403.10631 
z
" style="fill:#1f77b4;"/>
   </g>
   <g id="patch_112">
    <path clip-path="url(#pcde182e9d3)" d="M 619.21125 768.96 
L 621.30375 768.96 
L 621.30375 396.751765 
L 619.21125 396.751765 
z
" style="fill:#1f77b4;"/>
   </g>
   <g id="patch_113">
    <path clip-path="url(#pcde182e9d3)" d="M 623.39625 768.96 
L 625.48875 768.96 
L 625.48875 392.593038 
L 623.39625 392.593038 
z
" style="fill:#1f77b4;"/>
   </g>
   <g id="patch_114">
    <path clip-path="url(#pcde182e9d3)" d="M 627.58125 768.96 
L 629.67375 768.96 
L 629.67375 390.882784 
L 627.58125 390.882784 
z
" style="fill:#1f77b4;"/>
   </g>
   <g id="patch_115">
    <path clip-path="url(#pcde182e9d3)" d="M 631.76625 768.96 
L 633.85875 768.96 
L 633.85875 386.939433 
L 631.76625 386.939433 
z
" style="fill:#1f77b4;"/>
   </g>
   <g id="patch_116">
    <path clip-path="url(#pcde182e9d3)" d="M 635.95125 768.96 
L 638.04375 768.96 
L 638.04375 381.318915 
L 635.95125 381.318915 
z
" style="fill:#1f77b4;"/>
   </g>
   <g id="patch_117">
    <path clip-path="url(#pcde182e9d3)" d="M 640.13625 768.96 
L 642.22875 768.96 
L 642.22875 375.476845 
L 640.13625 375.476845 
z
" style="fill:#1f77b4;"/>
   </g>
   <g id="patch_118">
    <path clip-path="url(#pcde182e9d3)" d="M 644.32125 768.96 
L 646.41375 768.96 
L 646.41375 369.804838 
L 644.32125 369.804838 
z
" style="fill:#1f77b4;"/>
   </g>
   <g id="patch_119">
    <path clip-path="url(#pcde182e9d3)" d="M 648.50625 768.96 
L 650.59875 768.96 
L 650.59875 364.938089 
L 648.50625 364.938089 
z
" style="fill:#1f77b4;"/>
   </g>
   <g id="patch_120">
    <path clip-path="url(#pcde182e9d3)" d="M 652.69125 768.96 
L 654.78375 768.96 
L 654.78375 362.778252 
L 652.69125 362.778252 
z
" style="fill:#1f77b4;"/>
   </g>
   <g id="patch_121">
    <path clip-path="url(#pcde182e9d3)" d="M 656.87625 768.96 
L 658.96875 768.96 
L 658.96875 362.078003 
L 656.87625 362.078003 
z
" style="fill:#1f77b4;"/>
   </g>
   <g id="patch_122">
    <path clip-path="url(#pcde182e9d3)" d="M 661.06125 768.96 
L 663.15375 768.96 
L 663.15375 359.683613 
L 661.06125 359.683613 
z
" style="fill:#1f77b4;"/>
   </g>
   <g id="patch_123">
    <path clip-path="url(#pcde182e9d3)" d="M 665.24625 768.96 
L 667.33875 768.96 
L 667.33875 353.437878 
L 665.24625 353.437878 
z
" style="fill:#1f77b4;"/>
   </g>
   <g id="patch_124">
    <path clip-path="url(#pcde182e9d3)" d="M 669.43125 768.96 
L 671.52375 768.96 
L 671.52375 347.396805 
L 669.43125 347.396805 
z
" style="fill:#1f77b4;"/>
   </g>
   <g id="patch_125">
    <path clip-path="url(#pcde182e9d3)" d="M 673.61625 768.96 
L 675.70875 768.96 
L 675.70875 342.849186 
L 673.61625 342.849186 
z
" style="fill:#1f77b4;"/>
   </g>
   <g id="patch_126">
    <path clip-path="url(#pcde182e9d3)" d="M 677.80125 768.96 
L 679.89375 768.96 
L 679.89375 336.151061 
L 677.80125 336.151061 
z
" style="fill:#1f77b4;"/>
   </g>
   <g id="patch_127">
    <path clip-path="url(#pcde182e9d3)" d="M 681.98625 768.96 
L 684.07875 768.96 
L 684.07875 331.686508 
L 681.98625 331.686508 
z
" style="fill:#1f77b4;"/>
   </g>
   <g id="patch_128">
    <path clip-path="url(#pcde182e9d3)" d="M 686.17125 768.96 
L 688.26375 768.96 
L 688.26375 327.704712 
L 686.17125 327.704712 
z
" style="fill:#1f77b4;"/>
   </g>
   <g id="patch_129">
    <path clip-path="url(#pcde182e9d3)" d="M 690.35625 768.96 
L 692.44875 768.96 
L 692.44875 324.176732 
L 690.35625 324.176732 
z
" style="fill:#1f77b4;"/>
   </g>
   <g id="patch_130">
    <path clip-path="url(#pcde182e9d3)" d="M 694.54125 768.96 
L 696.63375 768.96 
L 696.63375 319.512355 
L 694.54125 319.512355 
z
" style="fill:#1f77b4;"/>
   </g>
   <g id="patch_131">
    <path clip-path="url(#pcde182e9d3)" d="M 698.72625 768.96 
L 700.81875 768.96 
L 700.81875 315.279635 
L 698.72625 315.279635 
z
" style="fill:#1f77b4;"/>
   </g>
   <g id="patch_132">
    <path clip-path="url(#pcde182e9d3)" d="M 702.91125 768.96 
L 705.00375 768.96 
L 705.00375 310.90359 
L 702.91125 310.90359 
z
" style="fill:#1f77b4;"/>
   </g>
   <g id="patch_133">
    <path clip-path="url(#pcde182e9d3)" d="M 707.09625 768.96 
L 709.18875 768.96 
L 709.18875 304.527749 
L 707.09625 304.527749 
z
" style="fill:#1f77b4;"/>
   </g>
   <g id="patch_134">
    <path clip-path="url(#pcde182e9d3)" d="M 711.28125 768.96 
L 713.37375 768.96 
L 713.37375 301.070135 
L 711.28125 301.070135 
z
" style="fill:#1f77b4;"/>
   </g>
   <g id="patch_135">
    <path clip-path="url(#pcde182e9d3)" d="M 715.46625 768.96 
L 717.55875 768.96 
L 717.55875 299.695945 
L 715.46625 299.695945 
z
" style="fill:#1f77b4;"/>
   </g>
   <g id="patch_136">
    <path clip-path="url(#pcde182e9d3)" d="M 719.65125 768.96 
L 721.74375 768.96 
L 721.74375 297.220821 
L 719.65125 297.220821 
z
" style="fill:#1f77b4;"/>
   </g>
   <g id="patch_137">
    <path clip-path="url(#pcde182e9d3)" d="M 723.83625 768.96 
L 725.92875 768.96 
L 725.92875 292.685297 
L 723.83625 292.685297 
z
" style="fill:#1f77b4;"/>
   </g>
   <g id="patch_138">
    <path clip-path="url(#pcde182e9d3)" d="M 728.02125 768.96 
L 730.11375 768.96 
L 730.11375 288.609335 
L 728.02125 288.609335 
z
" style="fill:#1f77b4;"/>
   </g>
   <g id="patch_139">
    <path clip-path="url(#pcde182e9d3)" d="M 732.20625 768.96 
L 734.29875 768.96 
L 734.29875 282.802945 
L 732.20625 282.802945 
z
" style="fill:#1f77b4;"/>
   </g>
   <g id="patch_140">
    <path clip-path="url(#pcde182e9d3)" d="M 736.39125 768.96 
L 738.48375 768.96 
L 738.48375 279.010477 
L 736.39125 279.010477 
z
" style="fill:#1f77b4;"/>
   </g>
   <g id="patch_141">
    <path clip-path="url(#pcde182e9d3)" d="M 740.57625 768.96 
L 742.66875 768.96 
L 742.66875 276.056483 
L 740.57625 276.056483 
z
" style="fill:#1f77b4;"/>
   </g>
   <g id="patch_142">
    <path clip-path="url(#pcde182e9d3)" d="M 744.76125 768.96 
L 746.85375 768.96 
L 746.85375 274.701126 
L 744.76125 274.701126 
z
" style="fill:#1f77b4;"/>
   </g>
   <g id="patch_143">
    <path clip-path="url(#pcde182e9d3)" d="M 748.94625 768.96 
L 751.03875 768.96 
L 751.03875 272.414942 
L 748.94625 272.414942 
z
" style="fill:#1f77b4;"/>
   </g>
   <g id="patch_144">
    <path clip-path="url(#pcde182e9d3)" d="M 753.13125 768.96 
L 755.22375 768.96 
L 755.22375 269.587383 
L 753.13125 269.587383 
z
" style="fill:#1f77b4;"/>
   </g>
   <g id="patch_145">
    <path clip-path="url(#pcde182e9d3)" d="M 757.31625 768.96 
L 759.40875 768.96 
L 759.40875 266.753388 
L 757.31625 266.753388 
z
" style="fill:#1f77b4;"/>
   </g>
   <g id="patch_146">
    <path clip-path="url(#pcde182e9d3)" d="M 761.50125 768.96 
L 763.59375 768.96 
L 763.59375 263.794038 
L 761.50125 263.794038 
z
" style="fill:#1f77b4;"/>
   </g>
   <g id="patch_147">
    <path clip-path="url(#pcde182e9d3)" d="M 765.68625 768.96 
L 767.77875 768.96 
L 767.77875 261.050495 
L 765.68625 261.050495 
z
" style="fill:#1f77b4;"/>
   </g>
   <g id="patch_148">
    <path clip-path="url(#pcde182e9d3)" d="M 769.87125 768.96 
L 771.96375 768.96 
L 771.96375 259.178127 
L 769.87125 259.178127 
z
" style="fill:#1f77b4;"/>
   </g>
   <g id="patch_149">
    <path clip-path="url(#pcde182e9d3)" d="M 774.05625 768.96 
L 776.14875 768.96 
L 776.14875 258.132009 
L 774.05625 258.132009 
z
" style="fill:#1f77b4;"/>
   </g>
   <g id="patch_150">
    <path clip-path="url(#pcde182e9d3)" d="M 778.24125 768.96 
L 780.33375 768.96 
L 780.33375 257.37647 
L 778.24125 257.37647 
z
" style="fill:#1f77b4;"/>
   </g>
   <g id="patch_151">
    <path clip-path="url(#pcde182e9d3)" d="M 782.42625 768.96 
L 784.51875 768.96 
L 784.51875 255.747467 
L 782.42625 255.747467 
z
" style="fill:#1f77b4;"/>
   </g>
   <g id="patch_152">
    <path clip-path="url(#pcde182e9d3)" d="M 786.61125 768.96 
L 788.70375 768.96 
L 788.70375 254.029827 
L 786.61125 254.029827 
z
" style="fill:#1f77b4;"/>
   </g>
   <g id="patch_153">
    <path clip-path="url(#pcde182e9d3)" d="M 790.79625 768.96 
L 792.88875 768.96 
L 792.88875 251.360192 
L 790.79625 251.360192 
z
" style="fill:#1f77b4;"/>
   </g>
   <g id="patch_154">
    <path clip-path="url(#pcde182e9d3)" d="M 794.98125 768.96 
L 797.07375 768.96 
L 797.07375 248.649737 
L 794.98125 248.649737 
z
" style="fill:#1f77b4;"/>
   </g>
   <g id="patch_155">
    <path clip-path="url(#pcde182e9d3)" d="M 799.16625 768.96 
L 801.25875 768.96 
L 801.25875 246.366619 
L 799.16625 246.366619 
z
" style="fill:#1f77b4;"/>
   </g>
   <g id="patch_156">
    <path clip-path="url(#pcde182e9d3)" d="M 803.35125 768.96 
L 805.44375 768.96 
L 805.44375 244.804138 
L 803.35125 244.804138 
z
" style="fill:#1f77b4;"/>
   </g>
   <g id="patch_157">
    <path clip-path="url(#pcde182e9d3)" d="M 807.53625 768.96 
L 809.62875 768.96 
L 809.62875 242.646288 
L 807.53625 242.646288 
z
" style="fill:#1f77b4;"/>
   </g>
   <g id="patch_158">
    <path clip-path="url(#pcde182e9d3)" d="M 811.72125 768.96 
L 813.81375 768.96 
L 813.81375 240.129135 
L 811.72125 240.129135 
z
" style="fill:#1f77b4;"/>
   </g>
   <g id="patch_159">
    <path clip-path="url(#pcde182e9d3)" d="M 815.90625 768.96 
L 817.99875 768.96 
L 817.99875 237.03402 
L 815.90625 237.03402 
z
" style="fill:#1f77b4;"/>
   </g>
   <g id="patch_160">
    <path clip-path="url(#pcde182e9d3)" d="M 820.09125 768.96 
L 822.18375 768.96 
L 822.18375 234.922995 
L 820.09125 234.922995 
z
" style="fill:#1f77b4;"/>
   </g>
   <g id="patch_161">
    <path clip-path="url(#pcde182e9d3)" d="M 824.27625 768.96 
L 826.36875 768.96 
L 826.36875 232.917281 
L 824.27625 232.917281 
z
" style="fill:#1f77b4;"/>
   </g>
   <g id="patch_162">
    <path clip-path="url(#pcde182e9d3)" d="M 828.46125 768.96 
L 830.55375 768.96 
L 830.55375 231.73056 
L 828.46125 231.73056 
z
" style="fill:#1f77b4;"/>
   </g>
   <g id="patch_163">
    <path clip-path="url(#pcde182e9d3)" d="M 832.64625 768.96 
L 834.73875 768.96 
L 834.73875 230.571701 
L 832.64625 230.571701 
z
" style="fill:#1f77b4;"/>
   </g>
   <g id="patch_164">
    <path clip-path="url(#pcde182e9d3)" d="M 836.83125 768.96 
L 838.92375 768.96 
L 838.92375 227.067263 
L 836.83125 227.067263 
z
" style="fill:#1f77b4;"/>
   </g>
   <g id="patch_165">
    <path clip-path="url(#pcde182e9d3)" d="M 841.01625 768.96 
L 843.10875 768.96 
L 843.10875 224.313094 
L 841.01625 224.313094 
z
" style="fill:#1f77b4;"/>
   </g>
   <g id="patch_166">
    <path clip-path="url(#pcde182e9d3)" d="M 845.20125 768.96 
L 847.29375 768.96 
L 847.29375 222.413728 
L 845.20125 222.413728 
z
" style="fill:#1f77b4;"/>
   </g>
   <g id="patch_167">
    <path clip-path="url(#pcde182e9d3)" d="M 849.38625 768.96 
L 851.47875 768.96 
L 851.47875 219.899296 
L 849.38625 219.899296 
z
" style="fill:#1f77b4;"/>
   </g>
   <g id="patch_168">
    <path clip-path="url(#pcde182e9d3)" d="M 853.57125 768.96 
L 855.66375 768.96 
L 855.66375 218.716421 
L 853.57125 218.716421 
z
" style="fill:#1f77b4;"/>
   </g>
   <g id="patch_169">
    <path clip-path="url(#pcde182e9d3)" d="M 857.75625 768.96 
L 859.84875 768.96 
L 859.84875 216.831223 
L 857.75625 216.831223 
z
" style="fill:#1f77b4;"/>
   </g>
   <g id="patch_170">
    <path clip-path="url(#pcde182e9d3)" d="M 861.94125 768.96 
L 864.03375 768.96 
L 864.03375 216.039443 
L 861.94125 216.039443 
z
" style="fill:#1f77b4;"/>
   </g>
   <g id="patch_171">
    <path clip-path="url(#pcde182e9d3)" d="M 866.12625 768.96 
L 868.21875 768.96 
L 868.21875 215.018162 
L 866.12625 215.018162 
z
" style="fill:#1f77b4;"/>
   </g>
   <g id="patch_172">
    <path clip-path="url(#pcde182e9d3)" d="M 870.31125 768.96 
L 872.40375 768.96 
L 872.40375 213.771098 
L 870.31125 213.771098 
z
" style="fill:#1f77b4;"/>
   </g>
   <g id="patch_173">
    <path clip-path="url(#pcde182e9d3)" d="M 874.49625 768.96 
L 876.58875 768.96 
L 876.58875 212.304684 
L 874.49625 212.304684 
z
" style="fill:#1f77b4;"/>
   </g>
   <g id="patch_174">
    <path clip-path="url(#pcde182e9d3)" d="M 878.68125 768.96 
L 880.77375 768.96 
L 880.77375 210.491796 
L 878.68125 210.491796 
z
" style="fill:#1f77b4;"/>
   </g>
   <g id="patch_175">
    <path clip-path="url(#pcde182e9d3)" d="M 882.86625 768.96 
L 884.95875 768.96 
L 884.95875 206.169099 
L 882.86625 206.169099 
z
" style="fill:#1f77b4;"/>
   </g>
   <g id="patch_176">
    <path clip-path="url(#pcde182e9d3)" d="M 887.05125 768.96 
L 889.14375 768.96 
L 889.14375 201.194618 
L 887.05125 201.194618 
z
" style="fill:#1f77b4;"/>
   </g>
   <g id="patch_177">
    <path clip-path="url(#pcde182e9d3)" d="M 891.23625 768.96 
L 893.32875 768.96 
L 893.32875 200.802141 
L 891.23625 200.802141 
z
" style="fill:#1f77b4;"/>
   </g>
   <g id="patch_178">
    <path clip-path="url(#pcde182e9d3)" d="M 895.42125 768.96 
L 897.51375 768.96 
L 897.51375 199.781595 
L 895.42125 199.781595 
z
" style="fill:#1f77b4;"/>
   </g>
   <g id="patch_179">
    <path clip-path="url(#pcde182e9d3)" d="M 899.60625 768.96 
L 901.69875 768.96 
L 901.69875 198.512846 
L 899.60625 198.512846 
z
" style="fill:#1f77b4;"/>
   </g>
   <g id="patch_180">
    <path clip-path="url(#pcde182e9d3)" d="M 903.79125 768.96 
L 905.88375 768.96 
L 905.88375 197.293858 
L 903.79125 197.293858 
z
" style="fill:#1f77b4;"/>
   </g>
   <g id="patch_181">
    <path clip-path="url(#pcde182e9d3)" d="M 907.97625 768.96 
L 910.06875 768.96 
L 910.06875 196.186661 
L 907.97625 196.186661 
z
" style="fill:#1f77b4;"/>
   </g>
   <g id="patch_182">
    <path clip-path="url(#pcde182e9d3)" d="M 912.16125 768.96 
L 914.25375 768.96 
L 914.25375 195.074756 
L 912.16125 195.074756 
z
" style="fill:#1f77b4;"/>
   </g>
   <g id="patch_183">
    <path clip-path="url(#pcde182e9d3)" d="M 916.34625 768.96 
L 918.43875 768.96 
L 918.43875 194.263494 
L 916.34625 194.263494 
z
" style="fill:#1f77b4;"/>
   </g>
   <g id="patch_184">
    <path clip-path="url(#pcde182e9d3)" d="M 920.53125 768.96 
L 922.62375 768.96 
L 922.62375 193.864797 
L 920.53125 193.864797 
z
" style="fill:#1f77b4;"/>
   </g>
   <g id="patch_185">
    <path clip-path="url(#pcde182e9d3)" d="M 924.71625 768.96 
L 926.80875 768.96 
L 926.80875 193.791752 
L 924.71625 193.791752 
z
" style="fill:#1f77b4;"/>
   </g>
   <g id="patch_186">
    <path clip-path="url(#pcde182e9d3)" d="M 928.90125 768.96 
L 930.99375 768.96 
L 930.99375 193.149775 
L 928.90125 193.149775 
z
" style="fill:#1f77b4;"/>
   </g>
   <g id="patch_187">
    <path clip-path="url(#pcde182e9d3)" d="M 933.08625 768.96 
L 935.17875 768.96 
L 935.17875 192.001715 
L 933.08625 192.001715 
z
" style="fill:#1f77b4;"/>
   </g>
   <g id="patch_188">
    <path clip-path="url(#pcde182e9d3)" d="M 937.27125 768.96 
L 939.36375 768.96 
L 939.36375 190.847824 
L 937.27125 190.847824 
z
" style="fill:#1f77b4;"/>
   </g>
   <g id="patch_189">
    <path clip-path="url(#pcde182e9d3)" d="M 941.45625 768.96 
L 943.54875 768.96 
L 943.54875 189.818812 
L 941.45625 189.818812 
z
" style="fill:#1f77b4;"/>
   </g>
   <g id="patch_190">
    <path clip-path="url(#pcde182e9d3)" d="M 945.64125 768.96 
L 947.73375 768.96 
L 947.73375 188.976794 
L 945.64125 188.976794 
z
" style="fill:#1f77b4;"/>
   </g>
   <g id="patch_191">
    <path clip-path="url(#pcde182e9d3)" d="M 949.82625 768.96 
L 951.91875 768.96 
L 951.91875 188.405443 
L 949.82625 188.405443 
z
" style="fill:#1f77b4;"/>
   </g>
   <g id="patch_192">
    <path clip-path="url(#pcde182e9d3)" d="M 954.01125 768.96 
L 956.10375 768.96 
L 956.10375 187.316172 
L 954.01125 187.316172 
z
" style="fill:#1f77b4;"/>
   </g>
   <g id="patch_193">
    <path clip-path="url(#pcde182e9d3)" d="M 958.19625 768.96 
L 960.28875 768.96 
L 960.28875 186.407201 
L 958.19625 186.407201 
z
" style="fill:#1f77b4;"/>
   </g>
   <g id="patch_194">
    <path clip-path="url(#pcde182e9d3)" d="M 962.38125 768.96 
L 964.47375 768.96 
L 964.47375 185.540692 
L 962.38125 185.540692 
z
" style="fill:#1f77b4;"/>
   </g>
   <g id="patch_195">
    <path clip-path="url(#pcde182e9d3)" d="M 966.56625 768.96 
L 968.65875 768.96 
L 968.65875 184.684463 
L 966.56625 184.684463 
z
" style="fill:#1f77b4;"/>
   </g>
   <g id="patch_196">
    <path clip-path="url(#pcde182e9d3)" d="M 970.75125 768.96 
L 972.84375 768.96 
L 972.84375 183.822922 
L 970.75125 183.822922 
z
" style="fill:#1f77b4;"/>
   </g>
   <g id="patch_197">
    <path clip-path="url(#pcde182e9d3)" d="M 974.93625 768.96 
L 977.02875 768.96 
L 977.02875 183.113386 
L 974.93625 183.113386 
z
" style="fill:#1f77b4;"/>
   </g>
   <g id="patch_198">
    <path clip-path="url(#pcde182e9d3)" d="M 979.12125 768.96 
L 981.21375 768.96 
L 981.21375 182.630845 
L 979.12125 182.630845 
z
" style="fill:#1f77b4;"/>
   </g>
   <g id="patch_199">
    <path clip-path="url(#pcde182e9d3)" d="M 983.30625 768.96 
L 985.39875 768.96 
L 985.39875 181.9001 
L 983.30625 181.9001 
z
" style="fill:#1f77b4;"/>
   </g>
   <g id="patch_200">
    <path clip-path="url(#pcde182e9d3)" d="M 987.49125 768.96 
L 989.58375 768.96 
L 989.58375 180.922362 
L 987.49125 180.922362 
z
" style="fill:#1f77b4;"/>
   </g>
   <g id="patch_201">
    <path clip-path="url(#pcde182e9d3)" d="M 991.67625 768.96 
L 993.76875 768.96 
L 993.76875 180.007992 
L 991.67625 180.007992 
z
" style="fill:#1f77b4;"/>
   </g>
   <g id="patch_202">
    <path clip-path="url(#pcde182e9d3)" d="M 995.86125 768.96 
L 997.95375 768.96 
L 997.95375 179.343855 
L 995.86125 179.343855 
z
" style="fill:#1f77b4;"/>
   </g>
   <g id="patch_203">
    <path clip-path="url(#pcde182e9d3)" d="M 1000.04625 768.96 
L 1002.13875 768.96 
L 1002.13875 178.649179 
L 1000.04625 178.649179 
z
" style="fill:#1f77b4;"/>
   </g>
   <g id="patch_204">
    <path clip-path="url(#pcde182e9d3)" d="M 1004.23125 768.96 
L 1006.32375 768.96 
L 1006.32375 178.227889 
L 1004.23125 178.227889 
z
" style="fill:#1f77b4;"/>
   </g>
   <g id="patch_205">
    <path clip-path="url(#pcde182e9d3)" d="M 1008.41625 768.96 
L 1010.50875 768.96 
L 1010.50875 177.98379 
L 1008.41625 177.98379 
z
" style="fill:#1f77b4;"/>
   </g>
   <g id="patch_206">
    <path clip-path="url(#pcde182e9d3)" d="M 1012.60125 768.96 
L 1014.69375 768.96 
L 1014.69375 177.565438 
L 1012.60125 177.565438 
z
" style="fill:#1f77b4;"/>
   </g>
   <g id="patch_207">
    <path clip-path="url(#pcde182e9d3)" d="M 1016.78625 768.96 
L 1018.87875 768.96 
L 1018.87875 176.634653 
L 1016.78625 176.634653 
z
" style="fill:#1f77b4;"/>
   </g>
   <g id="patch_208">
    <path clip-path="url(#pcde182e9d3)" d="M 1020.97125 768.96 
L 1023.06375 768.96 
L 1023.06375 175.091264 
L 1020.97125 175.091264 
z
" style="fill:#1f77b4;"/>
   </g>
   <g id="patch_209">
    <path clip-path="url(#pcde182e9d3)" d="M 1025.15625 768.96 
L 1027.24875 768.96 
L 1027.24875 174.266655 
L 1025.15625 174.266655 
z
" style="fill:#1f77b4;"/>
   </g>
   <g id="patch_210">
    <path clip-path="url(#pcde182e9d3)" d="M 1029.34125 768.96 
L 1031.43375 768.96 
L 1031.43375 172.245045 
L 1029.34125 172.245045 
z
" style="fill:#1f77b4;"/>
   </g>
   <g id="patch_211">
    <path clip-path="url(#pcde182e9d3)" d="M 1033.52625 768.96 
L 1035.61875 768.96 
L 1035.61875 171.613089 
L 1033.52625 171.613089 
z
" style="fill:#1f77b4;"/>
   </g>
   <g id="patch_212">
    <path clip-path="url(#pcde182e9d3)" d="M 1037.71125 768.96 
L 1039.80375 768.96 
L 1039.80375 171.152751 
L 1037.71125 171.152751 
z
" style="fill:#1f77b4;"/>
   </g>
   <g id="patch_213">
    <path clip-path="url(#pcde182e9d3)" d="M 1041.89625 768.96 
L 1043.98875 768.96 
L 1043.98875 170.521227 
L 1041.89625 170.521227 
z
" style="fill:#1f77b4;"/>
   </g>
   <g id="patch_214">
    <path clip-path="url(#pcde182e9d3)" d="M 1046.08125 768.96 
L 1048.17375 768.96 
L 1048.17375 169.660895 
L 1046.08125 169.660895 
z
" style="fill:#1f77b4;"/>
   </g>
   <g id="patch_215">
    <path clip-path="url(#pcde182e9d3)" d="M 1050.26625 768.96 
L 1052.35875 768.96 
L 1052.35875 168.8746 
L 1050.26625 168.8746 
z
" style="fill:#1f77b4;"/>
   </g>
   <g id="patch_216">
    <path clip-path="url(#pcde182e9d3)" d="M 1054.45125 768.96 
L 1056.54375 768.96 
L 1056.54375 168.045412 
L 1054.45125 168.045412 
z
" style="fill:#1f77b4;"/>
   </g>
   <g id="patch_217">
    <path clip-path="url(#pcde182e9d3)" d="M 1058.63625 768.96 
L 1060.72875 768.96 
L 1060.72875 167.138212 
L 1058.63625 167.138212 
z
" style="fill:#1f77b4;"/>
   </g>
   <g id="patch_218">
    <path clip-path="url(#pcde182e9d3)" d="M 1062.82125 768.96 
L 1064.91375 768.96 
L 1064.91375 165.524242 
L 1062.82125 165.524242 
z
" style="fill:#1f77b4;"/>
   </g>
   <g id="patch_219">
    <path clip-path="url(#pcde182e9d3)" d="M 1067.00625 768.96 
L 1069.09875 768.96 
L 1069.09875 164.998893 
L 1067.00625 164.998893 
z
" style="fill:#1f77b4;"/>
   </g>
   <g id="patch_220">
    <path clip-path="url(#pcde182e9d3)" d="M 1071.19125 768.96 
L 1073.28375 768.96 
L 1073.28375 164.386808 
L 1071.19125 164.386808 
z
" style="fill:#1f77b4;"/>
   </g>
   <g id="patch_221">
    <path clip-path="url(#pcde182e9d3)" d="M 1075.37625 768.96 
L 1077.46875 768.96 
L 1077.46875 163.790489 
L 1075.37625 163.790489 
z
" style="fill:#1f77b4;"/>
   </g>
   <g id="patch_222">
    <path clip-path="url(#pcde182e9d3)" d="M 1079.56125 768.96 
L 1081.65375 768.96 
L 1081.65375 161.3726 
L 1079.56125 161.3726 
z
" style="fill:#1f77b4;"/>
   </g>
   <g id="patch_223">
    <path clip-path="url(#pcde182e9d3)" d="M 1083.74625 768.96 
L 1085.83875 768.96 
L 1085.83875 159.276477 
L 1083.74625 159.276477 
z
" style="fill:#1f77b4;"/>
   </g>
   <g id="patch_224">
    <path clip-path="url(#pcde182e9d3)" d="M 1087.93125 768.96 
L 1090.02375 768.96 
L 1090.02375 157.607777 
L 1087.93125 157.607777 
z
" style="fill:#1f77b4;"/>
   </g>
   <g id="patch_225">
    <path clip-path="url(#pcde182e9d3)" d="M 1092.11625 768.96 
L 1094.20875 768.96 
L 1094.20875 155.184747 
L 1092.11625 155.184747 
z
" style="fill:#1f77b4;"/>
   </g>
   <g id="patch_226">
    <path clip-path="url(#pcde182e9d3)" d="M 1096.30125 768.96 
L 1098.39375 768.96 
L 1098.39375 153.545377 
L 1096.30125 153.545377 
z
" style="fill:#1f77b4;"/>
   </g>
   <g id="patch_227">
    <path clip-path="url(#pcde182e9d3)" d="M 1100.48625 768.96 
L 1102.57875 768.96 
L 1102.57875 152.820723 
L 1100.48625 152.820723 
z
" style="fill:#1f77b4;"/>
   </g>
   <g id="patch_228">
    <path clip-path="url(#pcde182e9d3)" d="M 1104.67125 768.96 
L 1106.76375 768.96 
L 1106.76375 151.784713 
L 1104.67125 151.784713 
z
" style="fill:#1f77b4;"/>
   </g>
   <g id="patch_229">
    <path clip-path="url(#pcde182e9d3)" d="M 1108.85625 768.96 
L 1110.94875 768.96 
L 1110.94875 150.804556 
L 1108.85625 150.804556 
z
" style="fill:#1f77b4;"/>
   </g>
   <g id="patch_230">
    <path clip-path="url(#pcde182e9d3)" d="M 1113.04125 768.96 
L 1115.13375 768.96 
L 1115.13375 149.863404 
L 1113.04125 149.863404 
z
" style="fill:#1f77b4;"/>
   </g>
   <g id="patch_231">
    <path clip-path="url(#pcde182e9d3)" d="M 1117.22625 768.96 
L 1119.31875 768.96 
L 1119.31875 148.951107 
L 1117.22625 148.951107 
z
" style="fill:#1f77b4;"/>
   </g>
   <g id="patch_232">
    <path clip-path="url(#pcde182e9d3)" d="M 1121.41125 768.96 
L 1123.50375 768.96 
L 1123.50375 148.054274 
L 1121.41125 148.054274 
z
" style="fill:#1f77b4;"/>
   </g>
   <g id="patch_233">
    <path clip-path="url(#pcde182e9d3)" d="M 1125.59625 768.96 
L 1127.68875 768.96 
L 1127.68875 147.463052 
L 1125.59625 147.463052 
z
" style="fill:#1f77b4;"/>
   </g>
   <g id="patch_234">
    <path clip-path="url(#pcde182e9d3)" d="M 1129.78125 768.96 
L 1131.87375 768.96 
L 1131.87375 146.707729 
L 1129.78125 146.707729 
z
" style="fill:#1f77b4;"/>
   </g>
   <g id="patch_235">
    <path clip-path="url(#pcde182e9d3)" d="M 1133.96625 768.96 
L 1136.05875 768.96 
L 1136.05875 145.661914 
L 1133.96625 145.661914 
z
" style="fill:#1f77b4;"/>
   </g>
   <g id="patch_236">
    <path clip-path="url(#pcde182e9d3)" d="M 1138.15125 768.96 
L 1140.24375 768.96 
L 1140.24375 144.661066 
L 1138.15125 144.661066 
z
" style="fill:#1f77b4;"/>
   </g>
   <g id="patch_237">
    <path clip-path="url(#pcde182e9d3)" d="M 1142.33625 768.96 
L 1144.42875 768.96 
L 1144.42875 140.001656 
L 1142.33625 140.001656 
z
" style="fill:#1f77b4;"/>
   </g>
   <g id="patch_238">
    <path clip-path="url(#pcde182e9d3)" d="M 1146.52125 768.96 
L 1148.61375 768.96 
L 1148.61375 138.964393 
L 1146.52125 138.964393 
z
" style="fill:#1f77b4;"/>
   </g>
   <g id="patch_239">
    <path clip-path="url(#pcde182e9d3)" d="M 1150.70625 768.96 
L 1152.79875 768.96 
L 1152.79875 137.960305 
L 1150.70625 137.960305 
z
" style="fill:#1f77b4;"/>
   </g>
   <g id="patch_240">
    <path clip-path="url(#pcde182e9d3)" d="M 1154.89125 768.96 
L 1156.98375 768.96 
L 1156.98375 137.252282 
L 1154.89125 137.252282 
z
" style="fill:#1f77b4;"/>
   </g>
   <g id="patch_241">
    <path clip-path="url(#pcde182e9d3)" d="M 1159.07625 768.96 
L 1161.16875 768.96 
L 1161.16875 136.415016 
L 1159.07625 136.415016 
z
" style="fill:#1f77b4;"/>
   </g>
   <g id="patch_242">
    <path clip-path="url(#pcde182e9d3)" d="M 1163.26125 768.96 
L 1165.35375 768.96 
L 1165.35375 135.36 
L 1163.26125 135.36 
z
" style="fill:#1f77b4;"/>
   </g>
   <g id="matplotlib.axis_1">
    <g id="xtick_1">
     <g id="line2d_1">
      <defs>
       <path d="M 0 0 
L 0 3.5 
" id="md071470a71" style="stroke:#000000;stroke-width:0.8;"/>
      </defs>
      <g>
       <use style="stroke:#000000;stroke-width:0.8;" x="164.0925" xlink:href="#md071470a71" y="768.96"/>
      </g>
     </g>
     <g id="text_1">
      <!-- January -->
      <g transform="translate(145.137031 783.558437)scale(0.1 -0.1)">
       <defs>
        <path d="M 628 4666 
L 1259 4666 
L 1259 325 
Q 1259 -519 939 -900 
Q 619 -1281 -91 -1281 
L -331 -1281 
L -331 -750 
L -134 -750 
Q 284 -750 456 -515 
Q 628 -281 628 325 
L 628 4666 
z
" id="DejaVuSans-4a" transform="scale(0.015625)"/>
        <path d="M 2194 1759 
Q 1497 1759 1228 1600 
Q 959 1441 959 1056 
Q 959 750 1161 570 
Q 1363 391 1709 391 
Q 2188 391 2477 730 
Q 2766 1069 2766 1631 
L 2766 1759 
L 2194 1759 
z
M 3341 1997 
L 3341 0 
L 2766 0 
L 2766 531 
Q 2569 213 2275 61 
Q 1981 -91 1556 -91 
Q 1019 -91 701 211 
Q 384 513 384 1019 
Q 384 1609 779 1909 
Q 1175 2209 1959 2209 
L 2766 2209 
L 2766 2266 
Q 2766 2663 2505 2880 
Q 2244 3097 1772 3097 
Q 1472 3097 1187 3025 
Q 903 2953 641 2809 
L 641 3341 
Q 956 3463 1253 3523 
Q 1550 3584 1831 3584 
Q 2591 3584 2966 3190 
Q 3341 2797 3341 1997 
z
" id="DejaVuSans-61" transform="scale(0.015625)"/>
        <path d="M 3513 2113 
L 3513 0 
L 2938 0 
L 2938 2094 
Q 2938 2591 2744 2837 
Q 2550 3084 2163 3084 
Q 1697 3084 1428 2787 
Q 1159 2491 1159 1978 
L 1159 0 
L 581 0 
L 581 3500 
L 1159 3500 
L 1159 2956 
Q 1366 3272 1645 3428 
Q 1925 3584 2291 3584 
Q 2894 3584 3203 3211 
Q 3513 2838 3513 2113 
z
" id="DejaVuSans-6e" transform="scale(0.015625)"/>
        <path d="M 544 1381 
L 544 3500 
L 1119 3500 
L 1119 1403 
Q 1119 906 1312 657 
Q 1506 409 1894 409 
Q 2359 409 2629 706 
Q 2900 1003 2900 1516 
L 2900 3500 
L 3475 3500 
L 3475 0 
L 2900 0 
L 2900 538 
Q 2691 219 2414 64 
Q 2138 -91 1772 -91 
Q 1169 -91 856 284 
Q 544 659 544 1381 
z
M 1991 3584 
L 1991 3584 
z
" id="DejaVuSans-75" transform="scale(0.015625)"/>
        <path d="M 2631 2963 
Q 2534 3019 2420 3045 
Q 2306 3072 2169 3072 
Q 1681 3072 1420 2755 
Q 1159 2438 1159 1844 
L 1159 0 
L 581 0 
L 581 3500 
L 1159 3500 
L 1159 2956 
Q 1341 3275 1631 3429 
Q 1922 3584 2338 3584 
Q 2397 3584 2469 3576 
Q 2541 3569 2628 3553 
L 2631 2963 
z
" id="DejaVuSans-72" transform="scale(0.015625)"/>
        <path d="M 2059 -325 
Q 1816 -950 1584 -1140 
Q 1353 -1331 966 -1331 
L 506 -1331 
L 506 -850 
L 844 -850 
Q 1081 -850 1212 -737 
Q 1344 -625 1503 -206 
L 1606 56 
L 191 3500 
L 800 3500 
L 1894 763 
L 2988 3500 
L 3597 3500 
L 2059 -325 
z
" id="DejaVuSans-79" transform="scale(0.015625)"/>
       </defs>
       <use xlink:href="#DejaVuSans-4a"/>
       <use x="29.492188" xlink:href="#DejaVuSans-61"/>
       <use x="90.771484" xlink:href="#DejaVuSans-6e"/>
       <use x="154.150391" xlink:href="#DejaVuSans-75"/>
       <use x="217.529297" xlink:href="#DejaVuSans-61"/>
       <use x="278.808594" xlink:href="#DejaVuSans-72"/>
       <use x="319.921875" xlink:href="#DejaVuSans-79"/>
      </g>
     </g>
    </g>
    <g id="xtick_2">
     <g id="line2d_2">
      <g>
       <use style="stroke:#000000;stroke-width:0.8;" x="293.8275" xlink:href="#md071470a71" y="768.96"/>
      </g>
     </g>
     <g id="text_2">
      <!-- February -->
      <g transform="translate(271.672812 783.558437)scale(0.1 -0.1)">
       <defs>
        <path d="M 628 4666 
L 3309 4666 
L 3309 4134 
L 1259 4134 
L 1259 2759 
L 3109 2759 
L 3109 2228 
L 1259 2228 
L 1259 0 
L 628 0 
L 628 4666 
z
" id="DejaVuSans-46" transform="scale(0.015625)"/>
        <path d="M 3597 1894 
L 3597 1613 
L 953 1613 
Q 991 1019 1311 708 
Q 1631 397 2203 397 
Q 2534 397 2845 478 
Q 3156 559 3463 722 
L 3463 178 
Q 3153 47 2828 -22 
Q 2503 -91 2169 -91 
Q 1331 -91 842 396 
Q 353 884 353 1716 
Q 353 2575 817 3079 
Q 1281 3584 2069 3584 
Q 2775 3584 3186 3129 
Q 3597 2675 3597 1894 
z
M 3022 2063 
Q 3016 2534 2758 2815 
Q 2500 3097 2075 3097 
Q 1594 3097 1305 2825 
Q 1016 2553 972 2059 
L 3022 2063 
z
" id="DejaVuSans-65" transform="scale(0.015625)"/>
        <path d="M 3116 1747 
Q 3116 2381 2855 2742 
Q 2594 3103 2138 3103 
Q 1681 3103 1420 2742 
Q 1159 2381 1159 1747 
Q 1159 1113 1420 752 
Q 1681 391 2138 391 
Q 2594 391 2855 752 
Q 3116 1113 3116 1747 
z
M 1159 2969 
Q 1341 3281 1617 3432 
Q 1894 3584 2278 3584 
Q 2916 3584 3314 3078 
Q 3713 2572 3713 1747 
Q 3713 922 3314 415 
Q 2916 -91 2278 -91 
Q 1894 -91 1617 61 
Q 1341 213 1159 525 
L 1159 0 
L 581 0 
L 581 4863 
L 1159 4863 
L 1159 2969 
z
" id="DejaVuSans-62" transform="scale(0.015625)"/>
       </defs>
       <use xlink:href="#DejaVuSans-46"/>
       <use x="52.019531" xlink:href="#DejaVuSans-65"/>
       <use x="113.542969" xlink:href="#DejaVuSans-62"/>
       <use x="177.019531" xlink:href="#DejaVuSans-72"/>
       <use x="218.132812" xlink:href="#DejaVuSans-75"/>
       <use x="281.511719" xlink:href="#DejaVuSans-61"/>
       <use x="342.791016" xlink:href="#DejaVuSans-72"/>
       <use x="383.904297" xlink:href="#DejaVuSans-79"/>
      </g>
     </g>
    </g>
    <g id="xtick_3">
     <g id="line2d_3">
      <g>
       <use style="stroke:#000000;stroke-width:0.8;" x="411.0075" xlink:href="#md071470a71" y="768.96"/>
      </g>
     </g>
     <g id="text_3">
      <!-- March -->
      <g transform="translate(395.768438 783.558437)scale(0.1 -0.1)">
       <defs>
        <path d="M 628 4666 
L 1569 4666 
L 2759 1491 
L 3956 4666 
L 4897 4666 
L 4897 0 
L 4281 0 
L 4281 4097 
L 3078 897 
L 2444 897 
L 1241 4097 
L 1241 0 
L 628 0 
L 628 4666 
z
" id="DejaVuSans-4d" transform="scale(0.015625)"/>
        <path d="M 3122 3366 
L 3122 2828 
Q 2878 2963 2633 3030 
Q 2388 3097 2138 3097 
Q 1578 3097 1268 2742 
Q 959 2388 959 1747 
Q 959 1106 1268 751 
Q 1578 397 2138 397 
Q 2388 397 2633 464 
Q 2878 531 3122 666 
L 3122 134 
Q 2881 22 2623 -34 
Q 2366 -91 2075 -91 
Q 1284 -91 818 406 
Q 353 903 353 1747 
Q 353 2603 823 3093 
Q 1294 3584 2113 3584 
Q 2378 3584 2631 3529 
Q 2884 3475 3122 3366 
z
" id="DejaVuSans-63" transform="scale(0.015625)"/>
        <path d="M 3513 2113 
L 3513 0 
L 2938 0 
L 2938 2094 
Q 2938 2591 2744 2837 
Q 2550 3084 2163 3084 
Q 1697 3084 1428 2787 
Q 1159 2491 1159 1978 
L 1159 0 
L 581 0 
L 581 4863 
L 1159 4863 
L 1159 2956 
Q 1366 3272 1645 3428 
Q 1925 3584 2291 3584 
Q 2894 3584 3203 3211 
Q 3513 2838 3513 2113 
z
" id="DejaVuSans-68" transform="scale(0.015625)"/>
       </defs>
       <use xlink:href="#DejaVuSans-4d"/>
       <use x="86.279297" xlink:href="#DejaVuSans-61"/>
       <use x="147.558594" xlink:href="#DejaVuSans-72"/>
       <use x="186.421875" xlink:href="#DejaVuSans-63"/>
       <use x="241.402344" xlink:href="#DejaVuSans-68"/>
      </g>
     </g>
    </g>
    <g id="xtick_4">
     <g id="line2d_4">
      <g>
       <use style="stroke:#000000;stroke-width:0.8;" x="540.7425" xlink:href="#md071470a71" y="768.96"/>
      </g>
     </g>
     <g id="text_4">
      <!-- April -->
      <g transform="translate(529.314375 783.558437)scale(0.1 -0.1)">
       <defs>
        <path d="M 2188 4044 
L 1331 1722 
L 3047 1722 
L 2188 4044 
z
M 1831 4666 
L 2547 4666 
L 4325 0 
L 3669 0 
L 3244 1197 
L 1141 1197 
L 716 0 
L 50 0 
L 1831 4666 
z
" id="DejaVuSans-41" transform="scale(0.015625)"/>
        <path d="M 1159 525 
L 1159 -1331 
L 581 -1331 
L 581 3500 
L 1159 3500 
L 1159 2969 
Q 1341 3281 1617 3432 
Q 1894 3584 2278 3584 
Q 2916 3584 3314 3078 
Q 3713 2572 3713 1747 
Q 3713 922 3314 415 
Q 2916 -91 2278 -91 
Q 1894 -91 1617 61 
Q 1341 213 1159 525 
z
M 3116 1747 
Q 3116 2381 2855 2742 
Q 2594 3103 2138 3103 
Q 1681 3103 1420 2742 
Q 1159 2381 1159 1747 
Q 1159 1113 1420 752 
Q 1681 391 2138 391 
Q 2594 391 2855 752 
Q 3116 1113 3116 1747 
z
" id="DejaVuSans-70" transform="scale(0.015625)"/>
        <path d="M 603 3500 
L 1178 3500 
L 1178 0 
L 603 0 
L 603 3500 
z
M 603 4863 
L 1178 4863 
L 1178 4134 
L 603 4134 
L 603 4863 
z
" id="DejaVuSans-69" transform="scale(0.015625)"/>
        <path d="M 603 4863 
L 1178 4863 
L 1178 0 
L 603 0 
L 603 4863 
z
" id="DejaVuSans-6c" transform="scale(0.015625)"/>
       </defs>
       <use xlink:href="#DejaVuSans-41"/>
       <use x="68.408203" xlink:href="#DejaVuSans-70"/>
       <use x="131.884766" xlink:href="#DejaVuSans-72"/>
       <use x="172.998047" xlink:href="#DejaVuSans-69"/>
       <use x="200.78125" xlink:href="#DejaVuSans-6c"/>
      </g>
     </g>
    </g>
    <g id="xtick_5">
     <g id="line2d_5">
      <g>
       <use style="stroke:#000000;stroke-width:0.8;" x="666.2925" xlink:href="#md071470a71" y="768.96"/>
      </g>
     </g>
     <g id="text_5">
      <!-- May -->
      <g transform="translate(655.955 783.558437)scale(0.1 -0.1)">
       <use xlink:href="#DejaVuSans-4d"/>
       <use x="86.279297" xlink:href="#DejaVuSans-61"/>
       <use x="147.558594" xlink:href="#DejaVuSans-79"/>
      </g>
     </g>
    </g>
    <g id="xtick_6">
     <g id="line2d_6">
      <g>
       <use style="stroke:#000000;stroke-width:0.8;" x="796.0275" xlink:href="#md071470a71" y="768.96"/>
      </g>
     </g>
     <g id="text_6">
      <!-- June -->
      <g transform="translate(785.138438 783.558437)scale(0.1 -0.1)">
       <use xlink:href="#DejaVuSans-4a"/>
       <use x="29.492188" xlink:href="#DejaVuSans-75"/>
       <use x="92.871094" xlink:href="#DejaVuSans-6e"/>
       <use x="156.25" xlink:href="#DejaVuSans-65"/>
      </g>
     </g>
    </g>
    <g id="xtick_7">
     <g id="line2d_7">
      <g>
       <use style="stroke:#000000;stroke-width:0.8;" x="921.5775" xlink:href="#md071470a71" y="768.96"/>
      </g>
     </g>
     <g id="text_7">
      <!-- July -->
      <g transform="translate(912.585313 783.558437)scale(0.1 -0.1)">
       <use xlink:href="#DejaVuSans-4a"/>
       <use x="29.492188" xlink:href="#DejaVuSans-75"/>
       <use x="92.871094" xlink:href="#DejaVuSans-6c"/>
       <use x="120.654297" xlink:href="#DejaVuSans-79"/>
      </g>
     </g>
    </g>
    <g id="xtick_8">
     <g id="line2d_8">
      <g>
       <use style="stroke:#000000;stroke-width:0.8;" x="1051.3125" xlink:href="#md071470a71" y="768.96"/>
      </g>
     </g>
     <g id="text_8">
      <!-- August -->
      <g transform="translate(1033.815625 783.558437)scale(0.1 -0.1)">
       <defs>
        <path d="M 2906 1791 
Q 2906 2416 2648 2759 
Q 2391 3103 1925 3103 
Q 1463 3103 1205 2759 
Q 947 2416 947 1791 
Q 947 1169 1205 825 
Q 1463 481 1925 481 
Q 2391 481 2648 825 
Q 2906 1169 2906 1791 
z
M 3481 434 
Q 3481 -459 3084 -895 
Q 2688 -1331 1869 -1331 
Q 1566 -1331 1297 -1286 
Q 1028 -1241 775 -1147 
L 775 -588 
Q 1028 -725 1275 -790 
Q 1522 -856 1778 -856 
Q 2344 -856 2625 -561 
Q 2906 -266 2906 331 
L 2906 616 
Q 2728 306 2450 153 
Q 2172 0 1784 0 
Q 1141 0 747 490 
Q 353 981 353 1791 
Q 353 2603 747 3093 
Q 1141 3584 1784 3584 
Q 2172 3584 2450 3431 
Q 2728 3278 2906 2969 
L 2906 3500 
L 3481 3500 
L 3481 434 
z
" id="DejaVuSans-67" transform="scale(0.015625)"/>
        <path d="M 2834 3397 
L 2834 2853 
Q 2591 2978 2328 3040 
Q 2066 3103 1784 3103 
Q 1356 3103 1142 2972 
Q 928 2841 928 2578 
Q 928 2378 1081 2264 
Q 1234 2150 1697 2047 
L 1894 2003 
Q 2506 1872 2764 1633 
Q 3022 1394 3022 966 
Q 3022 478 2636 193 
Q 2250 -91 1575 -91 
Q 1294 -91 989 -36 
Q 684 19 347 128 
L 347 722 
Q 666 556 975 473 
Q 1284 391 1588 391 
Q 1994 391 2212 530 
Q 2431 669 2431 922 
Q 2431 1156 2273 1281 
Q 2116 1406 1581 1522 
L 1381 1569 
Q 847 1681 609 1914 
Q 372 2147 372 2553 
Q 372 3047 722 3315 
Q 1072 3584 1716 3584 
Q 2034 3584 2315 3537 
Q 2597 3491 2834 3397 
z
" id="DejaVuSans-73" transform="scale(0.015625)"/>
        <path d="M 1172 4494 
L 1172 3500 
L 2356 3500 
L 2356 3053 
L 1172 3053 
L 1172 1153 
Q 1172 725 1289 603 
Q 1406 481 1766 481 
L 2356 481 
L 2356 0 
L 1766 0 
Q 1100 0 847 248 
Q 594 497 594 1153 
L 594 3053 
L 172 3053 
L 172 3500 
L 594 3500 
L 594 4494 
L 1172 4494 
z
" id="DejaVuSans-74" transform="scale(0.015625)"/>
       </defs>
       <use xlink:href="#DejaVuSans-41"/>
       <use x="68.408203" xlink:href="#DejaVuSans-75"/>
       <use x="131.787109" xlink:href="#DejaVuSans-67"/>
       <use x="195.263672" xlink:href="#DejaVuSans-75"/>
       <use x="258.642578" xlink:href="#DejaVuSans-73"/>
       <use x="310.742188" xlink:href="#DejaVuSans-74"/>
      </g>
     </g>
    </g>
   </g>
   <g id="matplotlib.axis_2">
    <g id="ytick_1">
     <g id="line2d_9">
      <defs>
       <path d="M 0 0 
L -3.5 0 
" id="ma267db67cb" style="stroke:#000000;stroke-width:0.8;"/>
      </defs>
      <g>
       <use style="stroke:#000000;stroke-width:0.8;" x="162" xlink:href="#ma267db67cb" y="768.96"/>
      </g>
     </g>
     <g id="text_9">
      <!-- 0.0 -->
      <g transform="translate(139.096875 772.759219)scale(0.1 -0.1)">
       <defs>
        <path d="M 2034 4250 
Q 1547 4250 1301 3770 
Q 1056 3291 1056 2328 
Q 1056 1369 1301 889 
Q 1547 409 2034 409 
Q 2525 409 2770 889 
Q 3016 1369 3016 2328 
Q 3016 3291 2770 3770 
Q 2525 4250 2034 4250 
z
M 2034 4750 
Q 2819 4750 3233 4129 
Q 3647 3509 3647 2328 
Q 3647 1150 3233 529 
Q 2819 -91 2034 -91 
Q 1250 -91 836 529 
Q 422 1150 422 2328 
Q 422 3509 836 4129 
Q 1250 4750 2034 4750 
z
" id="DejaVuSans-30" transform="scale(0.015625)"/>
        <path d="M 684 794 
L 1344 794 
L 1344 0 
L 684 0 
L 684 794 
z
" id="DejaVuSans-2e" transform="scale(0.015625)"/>
       </defs>
       <use xlink:href="#DejaVuSans-30"/>
       <use x="63.623047" xlink:href="#DejaVuSans-2e"/>
       <use x="95.410156" xlink:href="#DejaVuSans-30"/>
      </g>
     </g>
    </g>
    <g id="ytick_2">
     <g id="line2d_10">
      <g>
       <use style="stroke:#000000;stroke-width:0.8;" x="162" xlink:href="#ma267db67cb" y="682.568248"/>
      </g>
     </g>
     <g id="text_10">
      <!-- 0.2 -->
      <g transform="translate(139.096875 686.367467)scale(0.1 -0.1)">
       <defs>
        <path d="M 1228 531 
L 3431 531 
L 3431 0 
L 469 0 
L 469 531 
Q 828 903 1448 1529 
Q 2069 2156 2228 2338 
Q 2531 2678 2651 2914 
Q 2772 3150 2772 3378 
Q 2772 3750 2511 3984 
Q 2250 4219 1831 4219 
Q 1534 4219 1204 4116 
Q 875 4013 500 3803 
L 500 4441 
Q 881 4594 1212 4672 
Q 1544 4750 1819 4750 
Q 2544 4750 2975 4387 
Q 3406 4025 3406 3419 
Q 3406 3131 3298 2873 
Q 3191 2616 2906 2266 
Q 2828 2175 2409 1742 
Q 1991 1309 1228 531 
z
" id="DejaVuSans-32" transform="scale(0.015625)"/>
       </defs>
       <use xlink:href="#DejaVuSans-30"/>
       <use x="63.623047" xlink:href="#DejaVuSans-2e"/>
       <use x="95.410156" xlink:href="#DejaVuSans-32"/>
      </g>
     </g>
    </g>
    <g id="ytick_3">
     <g id="line2d_11">
      <g>
       <use style="stroke:#000000;stroke-width:0.8;" x="162" xlink:href="#ma267db67cb" y="596.176497"/>
      </g>
     </g>
     <g id="text_11">
      <!-- 0.4 -->
      <g transform="translate(139.096875 599.975716)scale(0.1 -0.1)">
       <defs>
        <path d="M 2419 4116 
L 825 1625 
L 2419 1625 
L 2419 4116 
z
M 2253 4666 
L 3047 4666 
L 3047 1625 
L 3713 1625 
L 3713 1100 
L 3047 1100 
L 3047 0 
L 2419 0 
L 2419 1100 
L 313 1100 
L 313 1709 
L 2253 4666 
z
" id="DejaVuSans-34" transform="scale(0.015625)"/>
       </defs>
       <use xlink:href="#DejaVuSans-30"/>
       <use x="63.623047" xlink:href="#DejaVuSans-2e"/>
       <use x="95.410156" xlink:href="#DejaVuSans-34"/>
      </g>
     </g>
    </g>
    <g id="ytick_4">
     <g id="line2d_12">
      <g>
       <use style="stroke:#000000;stroke-width:0.8;" x="162" xlink:href="#ma267db67cb" y="509.784745"/>
      </g>
     </g>
     <g id="text_12">
      <!-- 0.6 -->
      <g transform="translate(139.096875 513.583964)scale(0.1 -0.1)">
       <defs>
        <path d="M 2113 2584 
Q 1688 2584 1439 2293 
Q 1191 2003 1191 1497 
Q 1191 994 1439 701 
Q 1688 409 2113 409 
Q 2538 409 2786 701 
Q 3034 994 3034 1497 
Q 3034 2003 2786 2293 
Q 2538 2584 2113 2584 
z
M 3366 4563 
L 3366 3988 
Q 3128 4100 2886 4159 
Q 2644 4219 2406 4219 
Q 1781 4219 1451 3797 
Q 1122 3375 1075 2522 
Q 1259 2794 1537 2939 
Q 1816 3084 2150 3084 
Q 2853 3084 3261 2657 
Q 3669 2231 3669 1497 
Q 3669 778 3244 343 
Q 2819 -91 2113 -91 
Q 1303 -91 875 529 
Q 447 1150 447 2328 
Q 447 3434 972 4092 
Q 1497 4750 2381 4750 
Q 2619 4750 2861 4703 
Q 3103 4656 3366 4563 
z
" id="DejaVuSans-36" transform="scale(0.015625)"/>
       </defs>
       <use xlink:href="#DejaVuSans-30"/>
       <use x="63.623047" xlink:href="#DejaVuSans-2e"/>
       <use x="95.410156" xlink:href="#DejaVuSans-36"/>
      </g>
     </g>
    </g>
    <g id="ytick_5">
     <g id="line2d_13">
      <g>
       <use style="stroke:#000000;stroke-width:0.8;" x="162" xlink:href="#ma267db67cb" y="423.392994"/>
      </g>
     </g>
     <g id="text_13">
      <!-- 0.8 -->
      <g transform="translate(139.096875 427.192213)scale(0.1 -0.1)">
       <defs>
        <path d="M 2034 2216 
Q 1584 2216 1326 1975 
Q 1069 1734 1069 1313 
Q 1069 891 1326 650 
Q 1584 409 2034 409 
Q 2484 409 2743 651 
Q 3003 894 3003 1313 
Q 3003 1734 2745 1975 
Q 2488 2216 2034 2216 
z
M 1403 2484 
Q 997 2584 770 2862 
Q 544 3141 544 3541 
Q 544 4100 942 4425 
Q 1341 4750 2034 4750 
Q 2731 4750 3128 4425 
Q 3525 4100 3525 3541 
Q 3525 3141 3298 2862 
Q 3072 2584 2669 2484 
Q 3125 2378 3379 2068 
Q 3634 1759 3634 1313 
Q 3634 634 3220 271 
Q 2806 -91 2034 -91 
Q 1263 -91 848 271 
Q 434 634 434 1313 
Q 434 1759 690 2068 
Q 947 2378 1403 2484 
z
M 1172 3481 
Q 1172 3119 1398 2916 
Q 1625 2713 2034 2713 
Q 2441 2713 2670 2916 
Q 2900 3119 2900 3481 
Q 2900 3844 2670 4047 
Q 2441 4250 2034 4250 
Q 1625 4250 1398 4047 
Q 1172 3844 1172 3481 
z
" id="DejaVuSans-38" transform="scale(0.015625)"/>
       </defs>
       <use xlink:href="#DejaVuSans-30"/>
       <use x="63.623047" xlink:href="#DejaVuSans-2e"/>
       <use x="95.410156" xlink:href="#DejaVuSans-38"/>
      </g>
     </g>
    </g>
    <g id="ytick_6">
     <g id="line2d_14">
      <g>
       <use style="stroke:#000000;stroke-width:0.8;" x="162" xlink:href="#ma267db67cb" y="337.001242"/>
      </g>
     </g>
     <g id="text_14">
      <!-- 1.0 -->
      <g transform="translate(139.096875 340.800461)scale(0.1 -0.1)">
       <defs>
        <path d="M 794 531 
L 1825 531 
L 1825 4091 
L 703 3866 
L 703 4441 
L 1819 4666 
L 2450 4666 
L 2450 531 
L 3481 531 
L 3481 0 
L 794 0 
L 794 531 
z
" id="DejaVuSans-31" transform="scale(0.015625)"/>
       </defs>
       <use xlink:href="#DejaVuSans-31"/>
       <use x="63.623047" xlink:href="#DejaVuSans-2e"/>
       <use x="95.410156" xlink:href="#DejaVuSans-30"/>
      </g>
     </g>
    </g>
    <g id="ytick_7">
     <g id="line2d_15">
      <g>
       <use style="stroke:#000000;stroke-width:0.8;" x="162" xlink:href="#ma267db67cb" y="250.609491"/>
      </g>
     </g>
     <g id="text_15">
      <!-- 1.2 -->
      <g transform="translate(139.096875 254.408709)scale(0.1 -0.1)">
       <use xlink:href="#DejaVuSans-31"/>
       <use x="63.623047" xlink:href="#DejaVuSans-2e"/>
       <use x="95.410156" xlink:href="#DejaVuSans-32"/>
      </g>
     </g>
    </g>
    <g id="ytick_8">
     <g id="line2d_16">
      <g>
       <use style="stroke:#000000;stroke-width:0.8;" x="162" xlink:href="#ma267db67cb" y="164.217739"/>
      </g>
     </g>
     <g id="text_16">
      <!-- 1.4 -->
      <g transform="translate(139.096875 168.016958)scale(0.1 -0.1)">
       <use xlink:href="#DejaVuSans-31"/>
       <use x="63.623047" xlink:href="#DejaVuSans-2e"/>
       <use x="95.410156" xlink:href="#DejaVuSans-34"/>
      </g>
     </g>
    </g>
    <g id="text_17">
     <!-- Persons fully vaccinated (tens of millions) -->
     <g transform="translate(133.017188 540.480156)rotate(-90)scale(0.1 -0.1)">
      <defs>
       <path d="M 1259 4147 
L 1259 2394 
L 2053 2394 
Q 2494 2394 2734 2622 
Q 2975 2850 2975 3272 
Q 2975 3691 2734 3919 
Q 2494 4147 2053 4147 
L 1259 4147 
z
M 628 4666 
L 2053 4666 
Q 2838 4666 3239 4311 
Q 3641 3956 3641 3272 
Q 3641 2581 3239 2228 
Q 2838 1875 2053 1875 
L 1259 1875 
L 1259 0 
L 628 0 
L 628 4666 
z
" id="DejaVuSans-50" transform="scale(0.015625)"/>
       <path d="M 1959 3097 
Q 1497 3097 1228 2736 
Q 959 2375 959 1747 
Q 959 1119 1226 758 
Q 1494 397 1959 397 
Q 2419 397 2687 759 
Q 2956 1122 2956 1747 
Q 2956 2369 2687 2733 
Q 2419 3097 1959 3097 
z
M 1959 3584 
Q 2709 3584 3137 3096 
Q 3566 2609 3566 1747 
Q 3566 888 3137 398 
Q 2709 -91 1959 -91 
Q 1206 -91 779 398 
Q 353 888 353 1747 
Q 353 2609 779 3096 
Q 1206 3584 1959 3584 
z
" id="DejaVuSans-6f" transform="scale(0.015625)"/>
       <path id="DejaVuSans-20" transform="scale(0.015625)"/>
       <path d="M 2375 4863 
L 2375 4384 
L 1825 4384 
Q 1516 4384 1395 4259 
Q 1275 4134 1275 3809 
L 1275 3500 
L 2222 3500 
L 2222 3053 
L 1275 3053 
L 1275 0 
L 697 0 
L 697 3053 
L 147 3053 
L 147 3500 
L 697 3500 
L 697 3744 
Q 697 4328 969 4595 
Q 1241 4863 1831 4863 
L 2375 4863 
z
" id="DejaVuSans-66" transform="scale(0.015625)"/>
       <path d="M 191 3500 
L 800 3500 
L 1894 563 
L 2988 3500 
L 3597 3500 
L 2284 0 
L 1503 0 
L 191 3500 
z
" id="DejaVuSans-76" transform="scale(0.015625)"/>
       <path d="M 2906 2969 
L 2906 4863 
L 3481 4863 
L 3481 0 
L 2906 0 
L 2906 525 
Q 2725 213 2448 61 
Q 2172 -91 1784 -91 
Q 1150 -91 751 415 
Q 353 922 353 1747 
Q 353 2572 751 3078 
Q 1150 3584 1784 3584 
Q 2172 3584 2448 3432 
Q 2725 3281 2906 2969 
z
M 947 1747 
Q 947 1113 1208 752 
Q 1469 391 1925 391 
Q 2381 391 2643 752 
Q 2906 1113 2906 1747 
Q 2906 2381 2643 2742 
Q 2381 3103 1925 3103 
Q 1469 3103 1208 2742 
Q 947 2381 947 1747 
z
" id="DejaVuSans-64" transform="scale(0.015625)"/>
       <path d="M 1984 4856 
Q 1566 4138 1362 3434 
Q 1159 2731 1159 2009 
Q 1159 1288 1364 580 
Q 1569 -128 1984 -844 
L 1484 -844 
Q 1016 -109 783 600 
Q 550 1309 550 2009 
Q 550 2706 781 3412 
Q 1013 4119 1484 4856 
L 1984 4856 
z
" id="DejaVuSans-28" transform="scale(0.015625)"/>
       <path d="M 3328 2828 
Q 3544 3216 3844 3400 
Q 4144 3584 4550 3584 
Q 5097 3584 5394 3201 
Q 5691 2819 5691 2113 
L 5691 0 
L 5113 0 
L 5113 2094 
Q 5113 2597 4934 2840 
Q 4756 3084 4391 3084 
Q 3944 3084 3684 2787 
Q 3425 2491 3425 1978 
L 3425 0 
L 2847 0 
L 2847 2094 
Q 2847 2600 2669 2842 
Q 2491 3084 2119 3084 
Q 1678 3084 1418 2786 
Q 1159 2488 1159 1978 
L 1159 0 
L 581 0 
L 581 3500 
L 1159 3500 
L 1159 2956 
Q 1356 3278 1631 3431 
Q 1906 3584 2284 3584 
Q 2666 3584 2933 3390 
Q 3200 3197 3328 2828 
z
" id="DejaVuSans-6d" transform="scale(0.015625)"/>
       <path d="M 513 4856 
L 1013 4856 
Q 1481 4119 1714 3412 
Q 1947 2706 1947 2009 
Q 1947 1309 1714 600 
Q 1481 -109 1013 -844 
L 513 -844 
Q 928 -128 1133 580 
Q 1338 1288 1338 2009 
Q 1338 2731 1133 3434 
Q 928 4138 513 4856 
z
" id="DejaVuSans-29" transform="scale(0.015625)"/>
      </defs>
      <use xlink:href="#DejaVuSans-50"/>
      <use x="56.677734" xlink:href="#DejaVuSans-65"/>
      <use x="118.201172" xlink:href="#DejaVuSans-72"/>
      <use x="159.314453" xlink:href="#DejaVuSans-73"/>
      <use x="211.414062" xlink:href="#DejaVuSans-6f"/>
      <use x="272.595703" xlink:href="#DejaVuSans-6e"/>
      <use x="335.974609" xlink:href="#DejaVuSans-73"/>
      <use x="388.074219" xlink:href="#DejaVuSans-20"/>
      <use x="419.861328" xlink:href="#DejaVuSans-66"/>
      <use x="455.066406" xlink:href="#DejaVuSans-75"/>
      <use x="518.445312" xlink:href="#DejaVuSans-6c"/>
      <use x="546.228516" xlink:href="#DejaVuSans-6c"/>
      <use x="574.011719" xlink:href="#DejaVuSans-79"/>
      <use x="633.191406" xlink:href="#DejaVuSans-20"/>
      <use x="664.978516" xlink:href="#DejaVuSans-76"/>
      <use x="724.158203" xlink:href="#DejaVuSans-61"/>
      <use x="785.4375" xlink:href="#DejaVuSans-63"/>
      <use x="840.417969" xlink:href="#DejaVuSans-63"/>
      <use x="895.398438" xlink:href="#DejaVuSans-69"/>
      <use x="923.181641" xlink:href="#DejaVuSans-6e"/>
      <use x="986.560547" xlink:href="#DejaVuSans-61"/>
      <use x="1047.839844" xlink:href="#DejaVuSans-74"/>
      <use x="1087.048828" xlink:href="#DejaVuSans-65"/>
      <use x="1148.572266" xlink:href="#DejaVuSans-64"/>
      <use x="1212.048828" xlink:href="#DejaVuSans-20"/>
      <use x="1243.835938" xlink:href="#DejaVuSans-28"/>
      <use x="1282.849609" xlink:href="#DejaVuSans-74"/>
      <use x="1322.058594" xlink:href="#DejaVuSans-65"/>
      <use x="1383.582031" xlink:href="#DejaVuSans-6e"/>
      <use x="1446.960938" xlink:href="#DejaVuSans-73"/>
      <use x="1499.060547" xlink:href="#DejaVuSans-20"/>
      <use x="1530.847656" xlink:href="#DejaVuSans-6f"/>
      <use x="1592.029297" xlink:href="#DejaVuSans-66"/>
      <use x="1627.234375" xlink:href="#DejaVuSans-20"/>
      <use x="1659.021484" xlink:href="#DejaVuSans-6d"/>
      <use x="1756.433594" xlink:href="#DejaVuSans-69"/>
      <use x="1784.216797" xlink:href="#DejaVuSans-6c"/>
      <use x="1812" xlink:href="#DejaVuSans-6c"/>
      <use x="1839.783203" xlink:href="#DejaVuSans-69"/>
      <use x="1867.566406" xlink:href="#DejaVuSans-6f"/>
      <use x="1928.748047" xlink:href="#DejaVuSans-6e"/>
      <use x="1992.126953" xlink:href="#DejaVuSans-73"/>
      <use x="2044.226562" xlink:href="#DejaVuSans-29"/>
     </g>
    </g>
    <g id="text_18">
     <!-- 1e7 -->
     <g transform="translate(162 100.68)scale(0.1 -0.1)">
      <defs>
       <path d="M 525 4666 
L 3525 4666 
L 3525 4397 
L 1831 0 
L 1172 0 
L 2766 4134 
L 525 4134 
L 525 4666 
z
" id="DejaVuSans-37" transform="scale(0.015625)"/>
      </defs>
      <use xlink:href="#DejaVuSans-31"/>
      <use x="63.623047" xlink:href="#DejaVuSans-65"/>
      <use x="125.146484" xlink:href="#DejaVuSans-37"/>
     </g>
    </g>
   </g>
   <g id="patch_243">
    <path d="M 162 768.96 
L 162 103.68 
" style="fill:none;stroke:#000000;stroke-linecap:square;stroke-linejoin:miter;stroke-width:0.8;"/>
   </g>
   <g id="patch_244">
    <path d="M 1166.4 768.96 
L 1166.4 103.68 
" style="fill:none;stroke:#000000;stroke-linecap:square;stroke-linejoin:miter;stroke-width:0.8;"/>
   </g>
   <g id="patch_245">
    <path d="M 162 768.96 
L 1166.4 768.96 
" style="fill:none;stroke:#000000;stroke-linecap:square;stroke-linejoin:miter;stroke-width:0.8;"/>
   </g>
   <g id="patch_246">
    <path d="M 162 103.68 
L 1166.4 103.68 
" style="fill:none;stroke:#000000;stroke-linecap:square;stroke-linejoin:miter;stroke-width:0.8;"/>
   </g>
   <g id="text_19">
    <!-- Persons Fully Vaccinated -->
    <g transform="translate(590.380313 97.68)scale(0.12 -0.12)">
     <defs>
      <path d="M 1831 0 
L 50 4666 
L 709 4666 
L 2188 738 
L 3669 4666 
L 4325 4666 
L 2547 0 
L 1831 0 
z
" id="DejaVuSans-56" transform="scale(0.015625)"/>
     </defs>
     <use xlink:href="#DejaVuSans-50"/>
     <use x="56.677734" xlink:href="#DejaVuSans-65"/>
     <use x="118.201172" xlink:href="#DejaVuSans-72"/>
     <use x="159.314453" xlink:href="#DejaVuSans-73"/>
     <use x="211.414062" xlink:href="#DejaVuSans-6f"/>
     <use x="272.595703" xlink:href="#DejaVuSans-6e"/>
     <use x="335.974609" xlink:href="#DejaVuSans-73"/>
     <use x="388.074219" xlink:href="#DejaVuSans-20"/>
     <use x="419.861328" xlink:href="#DejaVuSans-46"/>
     <use x="471.880859" xlink:href="#DejaVuSans-75"/>
     <use x="535.259766" xlink:href="#DejaVuSans-6c"/>
     <use x="563.042969" xlink:href="#DejaVuSans-6c"/>
     <use x="590.826172" xlink:href="#DejaVuSans-79"/>
     <use x="650.005859" xlink:href="#DejaVuSans-20"/>
     <use x="681.792969" xlink:href="#DejaVuSans-56"/>
     <use x="742.451172" xlink:href="#DejaVuSans-61"/>
     <use x="803.730469" xlink:href="#DejaVuSans-63"/>
     <use x="858.710938" xlink:href="#DejaVuSans-63"/>
     <use x="913.691406" xlink:href="#DejaVuSans-69"/>
     <use x="941.474609" xlink:href="#DejaVuSans-6e"/>
     <use x="1004.853516" xlink:href="#DejaVuSans-61"/>
     <use x="1066.132812" xlink:href="#DejaVuSans-74"/>
     <use x="1105.341797" xlink:href="#DejaVuSans-65"/>
     <use x="1166.865234" xlink:href="#DejaVuSans-64"/>
    </g>
   </g>
  </g>
 </g>
 <defs>
  <clipPath id="pcde182e9d3">
   <rect height="665.28" width="1004.4" x="162" y="103.68"/>
  </clipPath>
 </defs>
</svg>
