<?xml version="1.0" encoding="utf-8" standalone="no"?>
<!DOCTYPE svg PUBLIC "-//W3C//DTD SVG 1.1//EN"
  "http://www.w3.org/Graphics/SVG/1.1/DTD/svg11.dtd">
<svg height="864pt" version="1.1" viewBox="0 0 1296 864" width="1296pt" xmlns="http://www.w3.org/2000/svg" xmlns:xlink="http://www.w3.org/1999/xlink">
 <metadata>
  <rdf:RDF xmlns:cc="http://creativecommons.org/ns#" xmlns:dc="http://purl.org/dc/elements/1.1/" xmlns:rdf="http://www.w3.org/1999/02/22-rdf-syntax-ns#">
   <cc:Work>
    <dc:type rdf:resource="http://purl.org/dc/dcmitype/StillImage"/>
    <dc:date>2021-09-08T02:30:02.585738</dc:date>
    <dc:format>image/svg+xml</dc:format>
    <dc:creator>
     <cc:Agent>
      <dc:title>Matplotlib v3.4.2, https://matplotlib.org/</dc:title>
     </cc:Agent>
    </dc:creator>
   </cc:Work>
  </rdf:RDF>
 </metadata>
 <defs>
  <style type="text/css">*{stroke-linecap:butt;stroke-linejoin:round;}</style>
 </defs>
 <g id="figure_1">
  <g id="patch_1">
   <path d="M 0 864 
L 1296 864 
L 1296 0 
L 0 0 
z
" style="fill:#ffffff;"/>
  </g>
  <g id="axes_1">
   <g id="patch_2">
    <path d="M 162 768.96 
L 1166.4 768.96 
L 1166.4 103.68 
L 162 103.68 
z
" style="fill:#ffffff;"/>
   </g>
   <g id="patch_3">
    <path clip-path="url(#p53872548a8)" d="M 163.020732 768.96 
L 165.062195 768.96 
L 165.062195 768.948763 
L 163.020732 768.948763 
z
" style="fill:#1f77b4;"/>
   </g>
   <g id="patch_4">
    <path clip-path="url(#p53872548a8)" d="M 167.103659 768.96 
L 169.145122 768.96 
L 169.145122 768.918784 
L 167.103659 768.918784 
z
" style="fill:#1f77b4;"/>
   </g>
   <g id="patch_5">
    <path clip-path="url(#p53872548a8)" d="M 171.186585 768.96 
L 173.228049 768.96 
L 173.228049 768.704128 
L 171.186585 768.704128 
z
" style="fill:#1f77b4;"/>
   </g>
   <g id="patch_6">
    <path clip-path="url(#p53872548a8)" d="M 175.269512 768.96 
L 177.310976 768.96 
L 177.310976 767.150926 
L 175.269512 767.150926 
z
" style="fill:#1f77b4;"/>
   </g>
   <g id="patch_7">
    <path clip-path="url(#p53872548a8)" d="M 179.352439 768.96 
L 181.393902 768.96 
L 181.393902 765.291201 
L 179.352439 765.291201 
z
" style="fill:#1f77b4;"/>
   </g>
   <g id="patch_8">
    <path clip-path="url(#p53872548a8)" d="M 183.435366 768.96 
L 185.476829 768.96 
L 185.476829 764.277534 
L 183.435366 764.277534 
z
" style="fill:#1f77b4;"/>
   </g>
   <g id="patch_9">
    <path clip-path="url(#p53872548a8)" d="M 187.518293 768.96 
L 189.559756 768.96 
L 189.559756 763.662344 
L 187.518293 763.662344 
z
" style="fill:#1f77b4;"/>
   </g>
   <g id="patch_10">
    <path clip-path="url(#p53872548a8)" d="M 191.60122 768.96 
L 193.642683 768.96 
L 193.642683 762.696626 
L 191.60122 762.696626 
z
" style="fill:#1f77b4;"/>
   </g>
   <g id="patch_11">
    <path clip-path="url(#p53872548a8)" d="M 195.684146 768.96 
L 197.72561 768.96 
L 197.72561 761.779158 
L 195.684146 761.779158 
z
" style="fill:#1f77b4;"/>
   </g>
   <g id="patch_12">
    <path clip-path="url(#p53872548a8)" d="M 199.767073 768.96 
L 201.808537 768.96 
L 201.808537 761.030328 
L 199.767073 761.030328 
z
" style="fill:#1f77b4;"/>
   </g>
   <g id="patch_13">
    <path clip-path="url(#p53872548a8)" d="M 203.85 768.96 
L 205.891463 768.96 
L 205.891463 760.116891 
L 203.85 760.116891 
z
" style="fill:#1f77b4;"/>
   </g>
   <g id="patch_14">
    <path clip-path="url(#p53872548a8)" d="M 207.932927 768.96 
L 209.97439 768.96 
L 209.97439 759.927024 
L 207.932927 759.927024 
z
" style="fill:#1f77b4;"/>
   </g>
   <g id="patch_15">
    <path clip-path="url(#p53872548a8)" d="M 212.015854 768.96 
L 214.057317 768.96 
L 214.057317 759.809253 
L 212.015854 759.809253 
z
" style="fill:#1f77b4;"/>
   </g>
   <g id="patch_16">
    <path clip-path="url(#p53872548a8)" d="M 216.09878 768.96 
L 218.140244 768.96 
L 218.140244 759.753455 
L 216.09878 759.753455 
z
" style="fill:#1f77b4;"/>
   </g>
   <g id="patch_17">
    <path clip-path="url(#p53872548a8)" d="M 220.181707 768.96 
L 222.223171 768.96 
L 222.223171 759.495996 
L 220.181707 759.495996 
z
" style="fill:#1f77b4;"/>
   </g>
   <g id="patch_18">
    <path clip-path="url(#p53872548a8)" d="M 224.264634 768.96 
L 226.306098 768.96 
L 226.306098 759.068013 
L 224.264634 759.068013 
z
" style="fill:#1f77b4;"/>
   </g>
   <g id="patch_19">
    <path clip-path="url(#p53872548a8)" d="M 228.347561 768.96 
L 230.389024 768.96 
L 230.389024 758.227359 
L 228.347561 758.227359 
z
" style="fill:#1f77b4;"/>
   </g>
   <g id="patch_20">
    <path clip-path="url(#p53872548a8)" d="M 232.430488 768.96 
L 234.471951 768.96 
L 234.471951 757.393523 
L 232.430488 757.393523 
z
" style="fill:#1f77b4;"/>
   </g>
   <g id="patch_21">
    <path clip-path="url(#p53872548a8)" d="M 236.513415 768.96 
L 238.554878 768.96 
L 238.554878 756.794458 
L 236.513415 756.794458 
z
" style="fill:#1f77b4;"/>
   </g>
   <g id="patch_22">
    <path clip-path="url(#p53872548a8)" d="M 240.596341 768.96 
L 242.637805 768.96 
L 242.637805 756.576586 
L 240.596341 756.576586 
z
" style="fill:#1f77b4;"/>
   </g>
   <g id="patch_23">
    <path clip-path="url(#p53872548a8)" d="M 244.679268 768.96 
L 246.720732 768.96 
L 246.720732 756.279712 
L 244.679268 756.279712 
z
" style="fill:#1f77b4;"/>
   </g>
   <g id="patch_24">
    <path clip-path="url(#p53872548a8)" d="M 248.762195 768.96 
L 250.803659 768.96 
L 250.803659 755.48439 
L 248.762195 755.48439 
z
" style="fill:#1f77b4;"/>
   </g>
   <g id="patch_25">
    <path clip-path="url(#p53872548a8)" d="M 252.845122 768.96 
L 254.886585 768.96 
L 254.886585 754.161799 
L 252.845122 754.161799 
z
" style="fill:#1f77b4;"/>
   </g>
   <g id="patch_26">
    <path clip-path="url(#p53872548a8)" d="M 256.928049 768.96 
L 258.969512 768.96 
L 258.969512 752.326392 
L 256.928049 752.326392 
z
" style="fill:#1f77b4;"/>
   </g>
   <g id="patch_27">
    <path clip-path="url(#p53872548a8)" d="M 261.010976 768.96 
L 263.052439 768.96 
L 263.052439 750.779365 
L 261.010976 750.779365 
z
" style="fill:#1f77b4;"/>
   </g>
   <g id="patch_28">
    <path clip-path="url(#p53872548a8)" d="M 265.093902 768.96 
L 267.135366 768.96 
L 267.135366 749.380561 
L 265.093902 749.380561 
z
" style="fill:#1f77b4;"/>
   </g>
   <g id="patch_29">
    <path clip-path="url(#p53872548a8)" d="M 269.176829 768.96 
L 271.218293 768.96 
L 271.218293 748.611873 
L 269.176829 748.611873 
z
" style="fill:#1f77b4;"/>
   </g>
   <g id="patch_30">
    <path clip-path="url(#p53872548a8)" d="M 273.259756 768.96 
L 275.30122 768.96 
L 275.30122 748.177972 
L 273.259756 748.177972 
z
" style="fill:#1f77b4;"/>
   </g>
   <g id="patch_31">
    <path clip-path="url(#p53872548a8)" d="M 277.342683 768.96 
L 279.384146 768.96 
L 279.384146 747.423909 
L 277.342683 747.423909 
z
" style="fill:#1f77b4;"/>
   </g>
   <g id="patch_32">
    <path clip-path="url(#p53872548a8)" d="M 281.42561 768.96 
L 283.467073 768.96 
L 283.467073 745.790591 
L 281.42561 745.790591 
z
" style="fill:#1f77b4;"/>
   </g>
   <g id="patch_33">
    <path clip-path="url(#p53872548a8)" d="M 285.508537 768.96 
L 287.55 768.96 
L 287.55 744.577665 
L 285.508537 744.577665 
z
" style="fill:#1f77b4;"/>
   </g>
   <g id="patch_34">
    <path clip-path="url(#p53872548a8)" d="M 289.591463 768.96 
L 291.632927 768.96 
L 291.632927 742.926549 
L 289.591463 742.926549 
z
" style="fill:#1f77b4;"/>
   </g>
   <g id="patch_35">
    <path clip-path="url(#p53872548a8)" d="M 293.67439 768.96 
L 295.715854 768.96 
L 295.715854 741.626646 
L 293.67439 741.626646 
z
" style="fill:#1f77b4;"/>
   </g>
   <g id="patch_36">
    <path clip-path="url(#p53872548a8)" d="M 297.757317 768.96 
L 299.79878 768.96 
L 299.79878 740.471233 
L 297.757317 740.471233 
z
" style="fill:#1f77b4;"/>
   </g>
   <g id="patch_37">
    <path clip-path="url(#p53872548a8)" d="M 301.840244 768.96 
L 303.881707 768.96 
L 303.881707 740.077132 
L 301.840244 740.077132 
z
" style="fill:#1f77b4;"/>
   </g>
   <g id="patch_38">
    <path clip-path="url(#p53872548a8)" d="M 305.923171 768.96 
L 307.964634 768.96 
L 307.964634 738.737857 
L 305.923171 738.737857 
z
" style="fill:#1f77b4;"/>
   </g>
   <g id="patch_39">
    <path clip-path="url(#p53872548a8)" d="M 310.006098 768.96 
L 312.047561 768.96 
L 312.047561 737.089829 
L 310.006098 737.089829 
z
" style="fill:#1f77b4;"/>
   </g>
   <g id="patch_40">
    <path clip-path="url(#p53872548a8)" d="M 314.089024 768.96 
L 316.130488 768.96 
L 316.130488 735.093204 
L 314.089024 735.093204 
z
" style="fill:#1f77b4;"/>
   </g>
   <g id="patch_41">
    <path clip-path="url(#p53872548a8)" d="M 318.171951 768.96 
L 320.213415 768.96 
L 320.213415 732.243873 
L 318.171951 732.243873 
z
" style="fill:#1f77b4;"/>
   </g>
   <g id="patch_42">
    <path clip-path="url(#p53872548a8)" d="M 322.254878 768.96 
L 324.296341 768.96 
L 324.296341 729.667011 
L 322.254878 729.667011 
z
" style="fill:#1f77b4;"/>
   </g>
   <g id="patch_43">
    <path clip-path="url(#p53872548a8)" d="M 326.337805 768.96 
L 328.379268 768.96 
L 328.379268 728.053508 
L 326.337805 728.053508 
z
" style="fill:#1f77b4;"/>
   </g>
   <g id="patch_44">
    <path clip-path="url(#p53872548a8)" d="M 330.420732 768.96 
L 332.462195 768.96 
L 332.462195 727.183989 
L 330.420732 727.183989 
z
" style="fill:#1f77b4;"/>
   </g>
   <g id="patch_45">
    <path clip-path="url(#p53872548a8)" d="M 334.503659 768.96 
L 336.545122 768.96 
L 336.545122 726.339474 
L 334.503659 726.339474 
z
" style="fill:#1f77b4;"/>
   </g>
   <g id="patch_46">
    <path clip-path="url(#p53872548a8)" d="M 338.586585 768.96 
L 340.628049 768.96 
L 340.628049 724.686686 
L 338.586585 724.686686 
z
" style="fill:#1f77b4;"/>
   </g>
   <g id="patch_47">
    <path clip-path="url(#p53872548a8)" d="M 342.669512 768.96 
L 344.710976 768.96 
L 344.710976 721.947363 
L 342.669512 721.947363 
z
" style="fill:#1f77b4;"/>
   </g>
   <g id="patch_48">
    <path clip-path="url(#p53872548a8)" d="M 346.752439 768.96 
L 348.793902 768.96 
L 348.793902 718.375963 
L 346.752439 718.375963 
z
" style="fill:#1f77b4;"/>
   </g>
   <g id="patch_49">
    <path clip-path="url(#p53872548a8)" d="M 350.835366 768.96 
L 352.876829 768.96 
L 352.876829 715.019305 
L 350.835366 715.019305 
z
" style="fill:#1f77b4;"/>
   </g>
   <g id="patch_50">
    <path clip-path="url(#p53872548a8)" d="M 354.918293 768.96 
L 356.959756 768.96 
L 356.959756 714.478312 
L 354.918293 714.478312 
z
" style="fill:#1f77b4;"/>
   </g>
   <g id="patch_51">
    <path clip-path="url(#p53872548a8)" d="M 359.00122 768.96 
L 361.042683 768.96 
L 361.042683 712.008714 
L 359.00122 712.008714 
z
" style="fill:#1f77b4;"/>
   </g>
   <g id="patch_52">
    <path clip-path="url(#p53872548a8)" d="M 363.084146 768.96 
L 365.12561 768.96 
L 365.12561 710.03156 
L 363.084146 710.03156 
z
" style="fill:#1f77b4;"/>
   </g>
   <g id="patch_53">
    <path clip-path="url(#p53872548a8)" d="M 367.167073 768.96 
L 369.208537 768.96 
L 369.208537 707.052921 
L 367.167073 707.052921 
z
" style="fill:#1f77b4;"/>
   </g>
   <g id="patch_54">
    <path clip-path="url(#p53872548a8)" d="M 371.25 768.96 
L 373.291463 768.96 
L 373.291463 701.373901 
L 371.25 701.373901 
z
" style="fill:#1f77b4;"/>
   </g>
   <g id="patch_55">
    <path clip-path="url(#p53872548a8)" d="M 375.332927 768.96 
L 377.37439 768.96 
L 377.37439 695.419666 
L 375.332927 695.419666 
z
" style="fill:#1f77b4;"/>
   </g>
   <g id="patch_56">
    <path clip-path="url(#p53872548a8)" d="M 379.415854 768.96 
L 381.457317 768.96 
L 381.457317 690.207615 
L 379.415854 690.207615 
z
" style="fill:#1f77b4;"/>
   </g>
   <g id="patch_57">
    <path clip-path="url(#p53872548a8)" d="M 383.49878 768.96 
L 385.540244 768.96 
L 385.540244 685.713558 
L 383.49878 685.713558 
z
" style="fill:#1f77b4;"/>
   </g>
   <g id="patch_58">
    <path clip-path="url(#p53872548a8)" d="M 387.581707 768.96 
L 389.623171 768.96 
L 389.623171 683.595173 
L 387.581707 683.595173 
z
" style="fill:#1f77b4;"/>
   </g>
   <g id="patch_59">
    <path clip-path="url(#p53872548a8)" d="M 391.664634 768.96 
L 393.706098 768.96 
L 393.706098 680.360704 
L 391.664634 680.360704 
z
" style="fill:#1f77b4;"/>
   </g>
   <g id="patch_60">
    <path clip-path="url(#p53872548a8)" d="M 395.747561 768.96 
L 397.789024 768.96 
L 397.789024 675.938099 
L 395.747561 675.938099 
z
" style="fill:#1f77b4;"/>
   </g>
   <g id="patch_61">
    <path clip-path="url(#p53872548a8)" d="M 399.830488 768.96 
L 401.871951 768.96 
L 401.871951 670.891897 
L 399.830488 670.891897 
z
" style="fill:#1f77b4;"/>
   </g>
   <g id="patch_62">
    <path clip-path="url(#p53872548a8)" d="M 403.913415 768.96 
L 405.954878 768.96 
L 405.954878 663.554256 
L 403.913415 663.554256 
z
" style="fill:#1f77b4;"/>
   </g>
   <g id="patch_63">
    <path clip-path="url(#p53872548a8)" d="M 407.996341 768.96 
L 410.037805 768.96 
L 410.037805 656.711718 
L 407.996341 656.711718 
z
" style="fill:#1f77b4;"/>
   </g>
   <g id="patch_64">
    <path clip-path="url(#p53872548a8)" d="M 412.079268 768.96 
L 414.120732 768.96 
L 414.120732 651.565071 
L 412.079268 651.565071 
z
" style="fill:#1f77b4;"/>
   </g>
   <g id="patch_65">
    <path clip-path="url(#p53872548a8)" d="M 416.162195 768.96 
L 418.203659 768.96 
L 418.203659 649.943634 
L 416.162195 649.943634 
z
" style="fill:#1f77b4;"/>
   </g>
   <g id="patch_66">
    <path clip-path="url(#p53872548a8)" d="M 420.245122 768.96 
L 422.286585 768.96 
L 422.286585 645.545132 
L 420.245122 645.545132 
z
" style="fill:#1f77b4;"/>
   </g>
   <g id="patch_67">
    <path clip-path="url(#p53872548a8)" d="M 424.328049 768.96 
L 426.369512 768.96 
L 426.369512 639.816061 
L 424.328049 639.816061 
z
" style="fill:#1f77b4;"/>
   </g>
   <g id="patch_68">
    <path clip-path="url(#p53872548a8)" d="M 428.410976 768.96 
L 430.452439 768.96 
L 430.452439 633.443537 
L 428.410976 633.443537 
z
" style="fill:#1f77b4;"/>
   </g>
   <g id="patch_69">
    <path clip-path="url(#p53872548a8)" d="M 432.493902 768.96 
L 434.535366 768.96 
L 434.535366 626.670049 
L 432.493902 626.670049 
z
" style="fill:#1f77b4;"/>
   </g>
   <g id="patch_70">
    <path clip-path="url(#p53872548a8)" d="M 436.576829 768.96 
L 438.618293 768.96 
L 438.618293 619.026485 
L 436.576829 619.026485 
z
" style="fill:#1f77b4;"/>
   </g>
   <g id="patch_71">
    <path clip-path="url(#p53872548a8)" d="M 440.659756 768.96 
L 442.70122 768.96 
L 442.70122 614.109634 
L 440.659756 614.109634 
z
" style="fill:#1f77b4;"/>
   </g>
   <g id="patch_72">
    <path clip-path="url(#p53872548a8)" d="M 444.742683 768.96 
L 446.784146 768.96 
L 446.784146 609.211912 
L 444.742683 609.211912 
z
" style="fill:#1f77b4;"/>
   </g>
   <g id="patch_73">
    <path clip-path="url(#p53872548a8)" d="M 448.82561 768.96 
L 450.867073 768.96 
L 450.867073 604.869207 
L 448.82561 604.869207 
z
" style="fill:#1f77b4;"/>
   </g>
   <g id="patch_74">
    <path clip-path="url(#p53872548a8)" d="M 452.908537 768.96 
L 454.95 768.96 
L 454.95 599.964709 
L 452.908537 599.964709 
z
" style="fill:#1f77b4;"/>
   </g>
   <g id="patch_75">
    <path clip-path="url(#p53872548a8)" d="M 456.991463 768.96 
L 459.032927 768.96 
L 459.032927 595.569466 
L 456.991463 595.569466 
z
" style="fill:#1f77b4;"/>
   </g>
   <g id="patch_76">
    <path clip-path="url(#p53872548a8)" d="M 461.07439 768.96 
L 463.115854 768.96 
L 463.115854 590.577432 
L 461.07439 590.577432 
z
" style="fill:#1f77b4;"/>
   </g>
   <g id="patch_77">
    <path clip-path="url(#p53872548a8)" d="M 465.157317 768.96 
L 467.19878 768.96 
L 467.19878 585.484568 
L 465.157317 585.484568 
z
" style="fill:#1f77b4;"/>
   </g>
   <g id="patch_78">
    <path clip-path="url(#p53872548a8)" d="M 469.240244 768.96 
L 471.281707 768.96 
L 471.281707 582.495463 
L 469.240244 582.495463 
z
" style="fill:#1f77b4;"/>
   </g>
   <g id="patch_79">
    <path clip-path="url(#p53872548a8)" d="M 473.323171 768.96 
L 475.364634 768.96 
L 475.364634 580.845419 
L 473.323171 580.845419 
z
" style="fill:#1f77b4;"/>
   </g>
   <g id="patch_80">
    <path clip-path="url(#p53872548a8)" d="M 477.406098 768.96 
L 479.447561 768.96 
L 479.447561 578.117205 
L 477.406098 578.117205 
z
" style="fill:#1f77b4;"/>
   </g>
   <g id="patch_81">
    <path clip-path="url(#p53872548a8)" d="M 481.489024 768.96 
L 483.530488 768.96 
L 483.530488 574.859319 
L 481.489024 574.859319 
z
" style="fill:#1f77b4;"/>
   </g>
   <g id="patch_82">
    <path clip-path="url(#p53872548a8)" d="M 485.571951 768.96 
L 487.613415 768.96 
L 487.613415 571.459773 
L 485.571951 571.459773 
z
" style="fill:#1f77b4;"/>
   </g>
   <g id="patch_83">
    <path clip-path="url(#p53872548a8)" d="M 489.654878 768.96 
L 491.696341 768.96 
L 491.696341 567.030863 
L 489.654878 567.030863 
z
" style="fill:#1f77b4;"/>
   </g>
   <g id="patch_84">
    <path clip-path="url(#p53872548a8)" d="M 493.737805 768.96 
L 495.779268 768.96 
L 495.779268 561.542439 
L 493.737805 561.542439 
z
" style="fill:#1f77b4;"/>
   </g>
   <g id="patch_85">
    <path clip-path="url(#p53872548a8)" d="M 497.820732 768.96 
L 499.862195 768.96 
L 499.862195 556.798857 
L 497.820732 556.798857 
z
" style="fill:#1f77b4;"/>
   </g>
   <g id="patch_86">
    <path clip-path="url(#p53872548a8)" d="M 501.903659 768.96 
L 503.945122 768.96 
L 503.945122 554.917559 
L 501.903659 554.917559 
z
" style="fill:#1f77b4;"/>
   </g>
   <g id="patch_87">
    <path clip-path="url(#p53872548a8)" d="M 505.986585 768.96 
L 508.028049 768.96 
L 508.028049 552.049014 
L 505.986585 552.049014 
z
" style="fill:#1f77b4;"/>
   </g>
   <g id="patch_88">
    <path clip-path="url(#p53872548a8)" d="M 510.069512 768.96 
L 512.110976 768.96 
L 512.110976 546.841552 
L 510.069512 546.841552 
z
" style="fill:#1f77b4;"/>
   </g>
   <g id="patch_89">
    <path clip-path="url(#p53872548a8)" d="M 514.152439 768.96 
L 516.193902 768.96 
L 516.193902 542.444851 
L 514.152439 542.444851 
z
" style="fill:#1f77b4;"/>
   </g>
   <g id="patch_90">
    <path clip-path="url(#p53872548a8)" d="M 518.235366 768.96 
L 520.276829 768.96 
L 520.276829 536.347842 
L 518.235366 536.347842 
z
" style="fill:#1f77b4;"/>
   </g>
   <g id="patch_91">
    <path clip-path="url(#p53872548a8)" d="M 522.318293 768.96 
L 524.359756 768.96 
L 524.359756 530.199838 
L 522.318293 530.199838 
z
" style="fill:#1f77b4;"/>
   </g>
   <g id="patch_92">
    <path clip-path="url(#p53872548a8)" d="M 526.40122 768.96 
L 528.442683 768.96 
L 528.442683 525.512397 
L 526.40122 525.512397 
z
" style="fill:#1f77b4;"/>
   </g>
   <g id="patch_93">
    <path clip-path="url(#p53872548a8)" d="M 530.484146 768.96 
L 532.52561 768.96 
L 532.52561 524.208205 
L 530.484146 524.208205 
z
" style="fill:#1f77b4;"/>
   </g>
   <g id="patch_94">
    <path clip-path="url(#p53872548a8)" d="M 534.567073 768.96 
L 536.608537 768.96 
L 536.608537 519.814978 
L 534.567073 519.814978 
z
" style="fill:#1f77b4;"/>
   </g>
   <g id="patch_95">
    <path clip-path="url(#p53872548a8)" d="M 538.65 768.96 
L 540.691463 768.96 
L 540.691463 513.056458 
L 538.65 513.056458 
z
" style="fill:#1f77b4;"/>
   </g>
   <g id="patch_96">
    <path clip-path="url(#p53872548a8)" d="M 542.732927 768.96 
L 544.77439 768.96 
L 544.77439 505.55078 
L 542.732927 505.55078 
z
" style="fill:#1f77b4;"/>
   </g>
   <g id="patch_97">
    <path clip-path="url(#p53872548a8)" d="M 546.815854 768.96 
L 548.857317 768.96 
L 548.857317 496.633131 
L 546.815854 496.633131 
z
" style="fill:#1f77b4;"/>
   </g>
   <g id="patch_98">
    <path clip-path="url(#p53872548a8)" d="M 550.89878 768.96 
L 552.940244 768.96 
L 552.940244 486.130372 
L 550.89878 486.130372 
z
" style="fill:#1f77b4;"/>
   </g>
   <g id="patch_99">
    <path clip-path="url(#p53872548a8)" d="M 554.981707 768.96 
L 557.023171 768.96 
L 557.023171 479.222 
L 554.981707 479.222 
z
" style="fill:#1f77b4;"/>
   </g>
   <g id="patch_100">
    <path clip-path="url(#p53872548a8)" d="M 559.064634 768.96 
L 561.106098 768.96 
L 561.106098 475.884213 
L 559.064634 475.884213 
z
" style="fill:#1f77b4;"/>
   </g>
   <g id="patch_101">
    <path clip-path="url(#p53872548a8)" d="M 563.147561 768.96 
L 565.189024 768.96 
L 565.189024 470.123491 
L 563.147561 470.123491 
z
" style="fill:#1f77b4;"/>
   </g>
   <g id="patch_102">
    <path clip-path="url(#p53872548a8)" d="M 567.230488 768.96 
L 569.271951 768.96 
L 569.271951 462.974472 
L 567.230488 462.974472 
z
" style="fill:#1f77b4;"/>
   </g>
   <g id="patch_103">
    <path clip-path="url(#p53872548a8)" d="M 571.313415 768.96 
L 573.354878 768.96 
L 573.354878 456.807598 
L 571.313415 456.807598 
z
" style="fill:#1f77b4;"/>
   </g>
   <g id="patch_104">
    <path clip-path="url(#p53872548a8)" d="M 575.396341 768.96 
L 577.437805 768.96 
L 577.437805 448.403365 
L 575.396341 448.403365 
z
" style="fill:#1f77b4;"/>
   </g>
   <g id="patch_105">
    <path clip-path="url(#p53872548a8)" d="M 579.479268 768.96 
L 581.520732 768.96 
L 581.520732 440.260624 
L 579.479268 440.260624 
z
" style="fill:#1f77b4;"/>
   </g>
   <g id="patch_106">
    <path clip-path="url(#p53872548a8)" d="M 583.562195 768.96 
L 585.603659 768.96 
L 585.603659 434.657345 
L 583.562195 434.657345 
z
" style="fill:#1f77b4;"/>
   </g>
   <g id="patch_107">
    <path clip-path="url(#p53872548a8)" d="M 587.645122 768.96 
L 589.686585 768.96 
L 589.686585 431.383376 
L 587.645122 431.383376 
z
" style="fill:#1f77b4;"/>
   </g>
   <g id="patch_108">
    <path clip-path="url(#p53872548a8)" d="M 591.728049 768.96 
L 593.769512 768.96 
L 593.769512 426.693919 
L 591.728049 426.693919 
z
" style="fill:#1f77b4;"/>
   </g>
   <g id="patch_109">
    <path clip-path="url(#p53872548a8)" d="M 595.810976 768.96 
L 597.852439 768.96 
L 597.852439 419.219335 
L 595.810976 419.219335 
z
" style="fill:#1f77b4;"/>
   </g>
   <g id="patch_110">
    <path clip-path="url(#p53872548a8)" d="M 599.893902 768.96 
L 601.935366 768.96 
L 601.935366 412.625635 
L 599.893902 412.625635 
z
" style="fill:#1f77b4;"/>
   </g>
   <g id="patch_111">
    <path clip-path="url(#p53872548a8)" d="M 603.976829 768.96 
L 606.018293 768.96 
L 606.018293 405.71083 
L 603.976829 405.71083 
z
" style="fill:#1f77b4;"/>
   </g>
   <g id="patch_112">
    <path clip-path="url(#p53872548a8)" d="M 608.059756 768.96 
L 610.10122 768.96 
L 610.10122 399.401523 
L 608.059756 399.401523 
z
" style="fill:#1f77b4;"/>
   </g>
   <g id="patch_113">
    <path clip-path="url(#p53872548a8)" d="M 612.142683 768.96 
L 614.184146 768.96 
L 614.184146 395.272403 
L 612.142683 395.272403 
z
" style="fill:#1f77b4;"/>
   </g>
   <g id="patch_114">
    <path clip-path="url(#p53872548a8)" d="M 616.22561 768.96 
L 618.267073 768.96 
L 618.267073 393.574324 
L 616.22561 393.574324 
z
" style="fill:#1f77b4;"/>
   </g>
   <g id="patch_115">
    <path clip-path="url(#p53872548a8)" d="M 620.308537 768.96 
L 622.35 768.96 
L 622.35 389.659045 
L 620.308537 389.659045 
z
" style="fill:#1f77b4;"/>
   </g>
   <g id="patch_116">
    <path clip-path="url(#p53872548a8)" d="M 624.391463 768.96 
L 626.432927 768.96 
L 626.432927 384.07854 
L 624.391463 384.07854 
z
" style="fill:#1f77b4;"/>
   </g>
   <g id="patch_117">
    <path clip-path="url(#p53872548a8)" d="M 628.47439 768.96 
L 630.515854 768.96 
L 630.515854 378.278061 
L 628.47439 378.278061 
z
" style="fill:#1f77b4;"/>
   </g>
   <g id="patch_118">
    <path clip-path="url(#p53872548a8)" d="M 632.557317 768.96 
L 634.59878 768.96 
L 634.59878 372.646432 
L 632.557317 372.646432 
z
" style="fill:#1f77b4;"/>
   </g>
   <g id="patch_119">
    <path clip-path="url(#p53872548a8)" d="M 636.640244 768.96 
L 638.681707 768.96 
L 638.681707 367.814329 
L 636.640244 367.814329 
z
" style="fill:#1f77b4;"/>
   </g>
   <g id="patch_120">
    <path clip-path="url(#p53872548a8)" d="M 640.723171 768.96 
L 642.764634 768.96 
L 642.764634 365.669868 
L 640.723171 365.669868 
z
" style="fill:#1f77b4;"/>
   </g>
   <g id="patch_121">
    <path clip-path="url(#p53872548a8)" d="M 644.806098 768.96 
L 646.847561 768.96 
L 646.847561 364.974605 
L 644.806098 364.974605 
z
" style="fill:#1f77b4;"/>
   </g>
   <g id="patch_122">
    <path clip-path="url(#p53872548a8)" d="M 648.889024 768.96 
L 650.930488 768.96 
L 650.930488 362.59726 
L 648.889024 362.59726 
z
" style="fill:#1f77b4;"/>
   </g>
   <g id="patch_123">
    <path clip-path="url(#p53872548a8)" d="M 652.971951 768.96 
L 655.013415 768.96 
L 655.013415 356.395989 
L 652.971951 356.395989 
z
" style="fill:#1f77b4;"/>
   </g>
   <g id="patch_124">
    <path clip-path="url(#p53872548a8)" d="M 657.054878 768.96 
L 659.096341 768.96 
L 659.096341 350.397922 
L 657.054878 350.397922 
z
" style="fill:#1f77b4;"/>
   </g>
   <g id="patch_125">
    <path clip-path="url(#p53872548a8)" d="M 661.137805 768.96 
L 663.179268 768.96 
L 663.179268 345.882678 
L 661.137805 345.882678 
z
" style="fill:#1f77b4;"/>
   </g>
   <g id="patch_126">
    <path clip-path="url(#p53872548a8)" d="M 665.220732 768.96 
L 667.262195 768.96 
L 667.262195 339.232237 
L 665.220732 339.232237 
z
" style="fill:#1f77b4;"/>
   </g>
   <g id="patch_127">
    <path clip-path="url(#p53872548a8)" d="M 669.303659 768.96 
L 671.345122 768.96 
L 671.345122 334.799468 
L 669.303659 334.799468 
z
" style="fill:#1f77b4;"/>
   </g>
   <g id="patch_128">
    <path clip-path="url(#p53872548a8)" d="M 673.386585 768.96 
L 675.428049 768.96 
L 675.428049 330.846018 
L 673.386585 330.846018 
z
" style="fill:#1f77b4;"/>
   </g>
   <g id="patch_129">
    <path clip-path="url(#p53872548a8)" d="M 677.469512 768.96 
L 679.510976 768.96 
L 679.510976 327.343154 
L 677.469512 327.343154 
z
" style="fill:#1f77b4;"/>
   </g>
   <g id="patch_130">
    <path clip-path="url(#p53872548a8)" d="M 681.552439 768.96 
L 683.593902 768.96 
L 683.593902 322.711983 
L 681.552439 322.711983 
z
" style="fill:#1f77b4;"/>
   </g>
   <g id="patch_131">
    <path clip-path="url(#p53872548a8)" d="M 685.635366 768.96 
L 687.676829 768.96 
L 687.676829 318.509395 
L 685.635366 318.509395 
z
" style="fill:#1f77b4;"/>
   </g>
   <g id="patch_132">
    <path clip-path="url(#p53872548a8)" d="M 689.718293 768.96 
L 691.759756 768.96 
L 691.759756 314.164503 
L 689.718293 314.164503 
z
" style="fill:#1f77b4;"/>
   </g>
   <g id="patch_133">
    <path clip-path="url(#p53872548a8)" d="M 693.80122 768.96 
L 695.842683 768.96 
L 695.842683 307.834052 
L 693.80122 307.834052 
z
" style="fill:#1f77b4;"/>
   </g>
   <g id="patch_134">
    <path clip-path="url(#p53872548a8)" d="M 697.884146 768.96 
L 699.92561 768.96 
L 699.92561 304.401053 
L 697.884146 304.401053 
z
" style="fill:#1f77b4;"/>
   </g>
   <g id="patch_135">
    <path clip-path="url(#p53872548a8)" d="M 701.967073 768.96 
L 704.008537 768.96 
L 704.008537 303.036646 
L 701.967073 303.036646 
z
" style="fill:#1f77b4;"/>
   </g>
   <g id="patch_136">
    <path clip-path="url(#p53872548a8)" d="M 706.05 768.96 
L 708.091463 768.96 
L 708.091463 300.579143 
L 706.05 300.579143 
z
" style="fill:#1f77b4;"/>
   </g>
   <g id="patch_137">
    <path clip-path="url(#p53872548a8)" d="M 710.132927 768.96 
L 712.17439 768.96 
L 712.17439 296.075907 
L 710.132927 296.075907 
z
" style="fill:#1f77b4;"/>
   </g>
   <g id="patch_138">
    <path clip-path="url(#p53872548a8)" d="M 714.215854 768.96 
L 716.257317 768.96 
L 716.257317 292.028961 
L 714.215854 292.028961 
z
" style="fill:#1f77b4;"/>
   </g>
   <g id="patch_139">
    <path clip-path="url(#p53872548a8)" d="M 718.29878 768.96 
L 720.340244 768.96 
L 720.340244 286.263908 
L 718.29878 286.263908 
z
" style="fill:#1f77b4;"/>
   </g>
   <g id="patch_140">
    <path clip-path="url(#p53872548a8)" d="M 722.381707 768.96 
L 724.423171 768.96 
L 724.423171 282.498438 
L 722.381707 282.498438 
z
" style="fill:#1f77b4;"/>
   </g>
   <g id="patch_141">
    <path clip-path="url(#p53872548a8)" d="M 726.464634 768.96 
L 728.506098 768.96 
L 728.506098 279.565474 
L 726.464634 279.565474 
z
" style="fill:#1f77b4;"/>
   </g>
   <g id="patch_142">
    <path clip-path="url(#p53872548a8)" d="M 730.547561 768.96 
L 732.589024 768.96 
L 732.589024 278.219766 
L 730.547561 278.219766 
z
" style="fill:#1f77b4;"/>
   </g>
   <g id="patch_143">
    <path clip-path="url(#p53872548a8)" d="M 734.630488 768.96 
L 736.671951 768.96 
L 736.671951 275.949857 
L 734.630488 275.949857 
z
" style="fill:#1f77b4;"/>
   </g>
   <g id="patch_144">
    <path clip-path="url(#p53872548a8)" d="M 738.713415 768.96 
L 740.754878 768.96 
L 740.754878 273.142427 
L 738.713415 273.142427 
z
" style="fill:#1f77b4;"/>
   </g>
   <g id="patch_145">
    <path clip-path="url(#p53872548a8)" d="M 742.796341 768.96 
L 744.837805 768.96 
L 744.837805 270.328607 
L 742.796341 270.328607 
z
" style="fill:#1f77b4;"/>
   </g>
   <g id="patch_146">
    <path clip-path="url(#p53872548a8)" d="M 746.879268 768.96 
L 748.920732 768.96 
L 748.920732 267.390326 
L 746.879268 267.390326 
z
" style="fill:#1f77b4;"/>
   </g>
   <g id="patch_147">
    <path clip-path="url(#p53872548a8)" d="M 750.962195 768.96 
L 753.003659 768.96 
L 753.003659 264.666314 
L 750.962195 264.666314 
z
" style="fill:#1f77b4;"/>
   </g>
   <g id="patch_148">
    <path clip-path="url(#p53872548a8)" d="M 755.045122 768.96 
L 757.086585 768.96 
L 757.086585 262.807275 
L 755.045122 262.807275 
z
" style="fill:#1f77b4;"/>
   </g>
   <g id="patch_149">
    <path clip-path="url(#p53872548a8)" d="M 759.128049 768.96 
L 761.169512 768.96 
L 761.169512 261.768605 
L 759.128049 261.768605 
z
" style="fill:#1f77b4;"/>
   </g>
   <g id="patch_150">
    <path clip-path="url(#p53872548a8)" d="M 763.210976 768.96 
L 765.252439 768.96 
L 765.252439 261.018444 
L 763.210976 261.018444 
z
" style="fill:#1f77b4;"/>
   </g>
   <g id="patch_151">
    <path clip-path="url(#p53872548a8)" d="M 767.293902 768.96 
L 769.335366 768.96 
L 769.335366 259.401038 
L 767.293902 259.401038 
z
" style="fill:#1f77b4;"/>
   </g>
   <g id="patch_152">
    <path clip-path="url(#p53872548a8)" d="M 771.376829 768.96 
L 773.418293 768.96 
L 773.418293 257.695626 
L 771.376829 257.695626 
z
" style="fill:#1f77b4;"/>
   </g>
   <g id="patch_153">
    <path clip-path="url(#p53872548a8)" d="M 775.459756 768.96 
L 777.50122 768.96 
L 777.50122 255.044996 
L 775.459756 255.044996 
z
" style="fill:#1f77b4;"/>
   </g>
   <g id="patch_154">
    <path clip-path="url(#p53872548a8)" d="M 779.542683 768.96 
L 781.584146 768.96 
L 781.584146 252.353837 
L 779.542683 252.353837 
z
" style="fill:#1f77b4;"/>
   </g>
   <g id="patch_155">
    <path clip-path="url(#p53872548a8)" d="M 783.62561 768.96 
L 785.667073 768.96 
L 785.667073 250.086973 
L 783.62561 250.086973 
z
" style="fill:#1f77b4;"/>
   </g>
   <g id="patch_156">
    <path clip-path="url(#p53872548a8)" d="M 787.708537 768.96 
L 789.75 768.96 
L 789.75 248.535615 
L 787.708537 248.535615 
z
" style="fill:#1f77b4;"/>
   </g>
   <g id="patch_157">
    <path clip-path="url(#p53872548a8)" d="M 791.791463 768.96 
L 793.832927 768.96 
L 793.832927 246.393126 
L 791.791463 246.393126 
z
" style="fill:#1f77b4;"/>
   </g>
   <g id="patch_158">
    <path clip-path="url(#p53872548a8)" d="M 795.87439 768.96 
L 797.915854 768.96 
L 797.915854 243.893893 
L 795.87439 243.893893 
z
" style="fill:#1f77b4;"/>
   </g>
   <g id="patch_159">
    <path clip-path="url(#p53872548a8)" d="M 799.957317 768.96 
L 801.99878 768.96 
L 801.99878 240.820813 
L 799.957317 240.820813 
z
" style="fill:#1f77b4;"/>
   </g>
   <g id="patch_160">
    <path clip-path="url(#p53872548a8)" d="M 804.040244 768.96 
L 806.081707 768.96 
L 806.081707 238.724816 
L 804.040244 238.724816 
z
" style="fill:#1f77b4;"/>
   </g>
   <g id="patch_161">
    <path clip-path="url(#p53872548a8)" d="M 808.123171 768.96 
L 810.164634 768.96 
L 810.164634 236.73338 
L 808.123171 236.73338 
z
" style="fill:#1f77b4;"/>
   </g>
   <g id="patch_162">
    <path clip-path="url(#p53872548a8)" d="M 812.206098 768.96 
L 814.247561 768.96 
L 814.247561 235.555108 
L 812.206098 235.555108 
z
" style="fill:#1f77b4;"/>
   </g>
   <g id="patch_163">
    <path clip-path="url(#p53872548a8)" d="M 816.289024 768.96 
L 818.330488 768.96 
L 818.330488 234.404499 
L 816.289024 234.404499 
z
" style="fill:#1f77b4;"/>
   </g>
   <g id="patch_164">
    <path clip-path="url(#p53872548a8)" d="M 820.371951 768.96 
L 822.413415 768.96 
L 822.413415 230.925009 
L 820.371951 230.925009 
z
" style="fill:#1f77b4;"/>
   </g>
   <g id="patch_165">
    <path clip-path="url(#p53872548a8)" d="M 824.454878 768.96 
L 826.496341 768.96 
L 826.496341 228.190447 
L 824.454878 228.190447 
z
" style="fill:#1f77b4;"/>
   </g>
   <g id="patch_166">
    <path clip-path="url(#p53872548a8)" d="M 828.537805 768.96 
L 830.579268 768.96 
L 830.579268 226.304603 
L 828.537805 226.304603 
z
" style="fill:#1f77b4;"/>
   </g>
   <g id="patch_167">
    <path clip-path="url(#p53872548a8)" d="M 832.620732 768.96 
L 834.662195 768.96 
L 834.662195 223.808071 
L 832.620732 223.808071 
z
" style="fill:#1f77b4;"/>
   </g>
   <g id="patch_168">
    <path clip-path="url(#p53872548a8)" d="M 836.703659 768.96 
L 838.745122 768.96 
L 838.745122 222.633616 
L 836.703659 222.633616 
z
" style="fill:#1f77b4;"/>
   </g>
   <g id="patch_169">
    <path clip-path="url(#p53872548a8)" d="M 840.786585 768.96 
L 842.828049 768.96 
L 842.828049 220.76184 
L 840.786585 220.76184 
z
" style="fill:#1f77b4;"/>
   </g>
   <g id="patch_170">
    <path clip-path="url(#p53872548a8)" d="M 844.869512 768.96 
L 846.910976 768.96 
L 846.910976 219.975696 
L 844.869512 219.975696 
z
" style="fill:#1f77b4;"/>
   </g>
   <g id="patch_171">
    <path clip-path="url(#p53872548a8)" d="M 848.952439 768.96 
L 850.993902 768.96 
L 850.993902 218.961686 
L 848.952439 218.961686 
z
" style="fill:#1f77b4;"/>
   </g>
   <g id="patch_172">
    <path clip-path="url(#p53872548a8)" d="M 853.035366 768.96 
L 855.076829 768.96 
L 855.076829 217.723499 
L 853.035366 217.723499 
z
" style="fill:#1f77b4;"/>
   </g>
   <g id="patch_173">
    <path clip-path="url(#p53872548a8)" d="M 857.118293 768.96 
L 859.159756 768.96 
L 859.159756 216.267525 
L 857.118293 216.267525 
z
" style="fill:#1f77b4;"/>
   </g>
   <g id="patch_174">
    <path clip-path="url(#p53872548a8)" d="M 861.20122 768.96 
L 863.242683 768.96 
L 863.242683 214.467543 
L 861.20122 214.467543 
z
" style="fill:#1f77b4;"/>
   </g>
   <g id="patch_175">
    <path clip-path="url(#p53872548a8)" d="M 865.284146 768.96 
L 867.32561 768.96 
L 867.32561 210.175619 
L 865.284146 210.175619 
z
" style="fill:#1f77b4;"/>
   </g>
   <g id="patch_176">
    <path clip-path="url(#p53872548a8)" d="M 869.367073 768.96 
L 871.408537 768.96 
L 871.408537 205.236552 
L 869.367073 205.236552 
z
" style="fill:#1f77b4;"/>
   </g>
   <g id="patch_177">
    <path clip-path="url(#p53872548a8)" d="M 873.45 768.96 
L 875.491463 768.96 
L 875.491463 204.846869 
L 873.45 204.846869 
z
" style="fill:#1f77b4;"/>
   </g>
   <g id="patch_178">
    <path clip-path="url(#p53872548a8)" d="M 877.532927 768.96 
L 879.57439 768.96 
L 879.57439 203.833588 
L 877.532927 203.833588 
z
" style="fill:#1f77b4;"/>
   </g>
   <g id="patch_179">
    <path clip-path="url(#p53872548a8)" d="M 881.615854 768.96 
L 883.657317 768.96 
L 883.657317 202.573871 
L 881.615854 202.573871 
z
" style="fill:#1f77b4;"/>
   </g>
   <g id="patch_180">
    <path clip-path="url(#p53872548a8)" d="M 885.69878 768.96 
L 887.740244 768.96 
L 887.740244 201.363562 
L 885.69878 201.363562 
z
" style="fill:#1f77b4;"/>
   </g>
   <g id="patch_181">
    <path clip-path="url(#p53872548a8)" d="M 889.781707 768.96 
L 891.823171 768.96 
L 891.823171 200.264247 
L 889.781707 200.264247 
z
" style="fill:#1f77b4;"/>
   </g>
   <g id="patch_182">
    <path clip-path="url(#p53872548a8)" d="M 893.864634 768.96 
L 895.906098 768.96 
L 895.906098 199.160258 
L 893.864634 199.160258 
z
" style="fill:#1f77b4;"/>
   </g>
   <g id="patch_183">
    <path clip-path="url(#p53872548a8)" d="M 897.947561 768.96 
L 899.989024 768.96 
L 899.989024 198.354771 
L 897.947561 198.354771 
z
" style="fill:#1f77b4;"/>
   </g>
   <g id="patch_184">
    <path clip-path="url(#p53872548a8)" d="M 902.030488 768.96 
L 904.071951 768.96 
L 904.071951 197.958912 
L 902.030488 197.958912 
z
" style="fill:#1f77b4;"/>
   </g>
   <g id="patch_185">
    <path clip-path="url(#p53872548a8)" d="M 906.113415 768.96 
L 908.154878 768.96 
L 908.154878 197.886387 
L 906.113415 197.886387 
z
" style="fill:#1f77b4;"/>
   </g>
   <g id="patch_186">
    <path clip-path="url(#p53872548a8)" d="M 910.196341 768.96 
L 912.237805 768.96 
L 912.237805 197.248981 
L 910.196341 197.248981 
z
" style="fill:#1f77b4;"/>
   </g>
   <g id="patch_187">
    <path clip-path="url(#p53872548a8)" d="M 914.279268 768.96 
L 916.320732 768.96 
L 916.320732 196.109094 
L 914.279268 196.109094 
z
" style="fill:#1f77b4;"/>
   </g>
   <g id="patch_188">
    <path clip-path="url(#p53872548a8)" d="M 918.362195 768.96 
L 920.403659 768.96 
L 920.403659 194.963417 
L 918.362195 194.963417 
z
" style="fill:#1f77b4;"/>
   </g>
   <g id="patch_189">
    <path clip-path="url(#p53872548a8)" d="M 922.445122 768.96 
L 924.486585 768.96 
L 924.486585 193.94173 
L 922.445122 193.94173 
z
" style="fill:#1f77b4;"/>
   </g>
   <g id="patch_190">
    <path clip-path="url(#p53872548a8)" d="M 926.528049 768.96 
L 928.569512 768.96 
L 928.569512 193.105707 
L 926.528049 193.105707 
z
" style="fill:#1f77b4;"/>
   </g>
   <g id="patch_191">
    <path clip-path="url(#p53872548a8)" d="M 930.610976 768.96 
L 932.652439 768.96 
L 932.652439 192.538423 
L 930.610976 192.538423 
z
" style="fill:#1f77b4;"/>
   </g>
   <g id="patch_192">
    <path clip-path="url(#p53872548a8)" d="M 934.693902 768.96 
L 936.735366 768.96 
L 936.735366 191.456907 
L 934.693902 191.456907 
z
" style="fill:#1f77b4;"/>
   </g>
   <g id="patch_193">
    <path clip-path="url(#p53872548a8)" d="M 938.776829 768.96 
L 940.818293 768.96 
L 940.818293 190.554407 
L 938.776829 190.554407 
z
" style="fill:#1f77b4;"/>
   </g>
   <g id="patch_194">
    <path clip-path="url(#p53872548a8)" d="M 942.859756 768.96 
L 944.90122 768.96 
L 944.90122 189.694067 
L 942.859756 189.694067 
z
" style="fill:#1f77b4;"/>
   </g>
   <g id="patch_195">
    <path clip-path="url(#p53872548a8)" d="M 946.942683 768.96 
L 948.984146 768.96 
L 948.984146 188.843934 
L 946.942683 188.843934 
z
" style="fill:#1f77b4;"/>
   </g>
   <g id="patch_196">
    <path clip-path="url(#p53872548a8)" d="M 951.02561 768.96 
L 953.067073 768.96 
L 953.067073 187.988525 
L 951.02561 187.988525 
z
" style="fill:#1f77b4;"/>
   </g>
   <g id="patch_197">
    <path clip-path="url(#p53872548a8)" d="M 955.108537 768.96 
L 957.15 768.96 
L 957.15 187.284041 
L 955.108537 187.284041 
z
" style="fill:#1f77b4;"/>
   </g>
   <g id="patch_198">
    <path clip-path="url(#p53872548a8)" d="M 959.191463 768.96 
L 961.232927 768.96 
L 961.232927 186.804935 
L 959.191463 186.804935 
z
" style="fill:#1f77b4;"/>
   </g>
   <g id="patch_199">
    <path clip-path="url(#p53872548a8)" d="M 963.27439 768.96 
L 965.315854 768.96 
L 965.315854 186.079393 
L 963.27439 186.079393 
z
" style="fill:#1f77b4;"/>
   </g>
   <g id="patch_200">
    <path clip-path="url(#p53872548a8)" d="M 967.357317 768.96 
L 969.39878 768.96 
L 969.39878 185.108614 
L 967.357317 185.108614 
z
" style="fill:#1f77b4;"/>
   </g>
   <g id="patch_201">
    <path clip-path="url(#p53872548a8)" d="M 971.440244 768.96 
L 973.481707 768.96 
L 973.481707 184.200754 
L 971.440244 184.200754 
z
" style="fill:#1f77b4;"/>
   </g>
   <g id="patch_202">
    <path clip-path="url(#p53872548a8)" d="M 975.523171 768.96 
L 977.564634 768.96 
L 977.564634 183.541345 
L 975.523171 183.541345 
z
" style="fill:#1f77b4;"/>
   </g>
   <g id="patch_203">
    <path clip-path="url(#p53872548a8)" d="M 979.606098 768.96 
L 981.647561 768.96 
L 981.647561 182.851614 
L 979.606098 182.851614 
z
" style="fill:#1f77b4;"/>
   </g>
   <g id="patch_204">
    <path clip-path="url(#p53872548a8)" d="M 983.689024 768.96 
L 985.730488 768.96 
L 985.730488 182.433324 
L 983.689024 182.433324 
z
" style="fill:#1f77b4;"/>
   </g>
   <g id="patch_205">
    <path clip-path="url(#p53872548a8)" d="M 987.771951 768.96 
L 989.813415 768.96 
L 989.813415 182.190962 
L 987.771951 182.190962 
z
" style="fill:#1f77b4;"/>
   </g>
   <g id="patch_206">
    <path clip-path="url(#p53872548a8)" d="M 991.854878 768.96 
L 993.896341 768.96 
L 993.896341 181.775588 
L 991.854878 181.775588 
z
" style="fill:#1f77b4;"/>
   </g>
   <g id="patch_207">
    <path clip-path="url(#p53872548a8)" d="M 995.937805 768.96 
L 997.979268 768.96 
L 997.979268 180.85143 
L 995.937805 180.85143 
z
" style="fill:#1f77b4;"/>
   </g>
   <g id="patch_208">
    <path clip-path="url(#p53872548a8)" d="M 1000.020732 768.96 
L 1002.062195 768.96 
L 1002.062195 179.319029 
L 1000.020732 179.319029 
z
" style="fill:#1f77b4;"/>
   </g>
   <g id="patch_209">
    <path clip-path="url(#p53872548a8)" d="M 1004.103659 768.96 
L 1006.145122 768.96 
L 1006.145122 178.50029 
L 1004.103659 178.50029 
z
" style="fill:#1f77b4;"/>
   </g>
   <g id="patch_210">
    <path clip-path="url(#p53872548a8)" d="M 1008.186585 768.96 
L 1010.228049 768.96 
L 1010.228049 176.493071 
L 1008.186585 176.493071 
z
" style="fill:#1f77b4;"/>
   </g>
   <g id="patch_211">
    <path clip-path="url(#p53872548a8)" d="M 1012.269512 768.96 
L 1014.310976 768.96 
L 1014.310976 175.865615 
L 1012.269512 175.865615 
z
" style="fill:#1f77b4;"/>
   </g>
   <g id="patch_212">
    <path clip-path="url(#p53872548a8)" d="M 1016.352439 768.96 
L 1018.393902 768.96 
L 1018.393902 175.408553 
L 1016.352439 175.408553 
z
" style="fill:#1f77b4;"/>
   </g>
   <g id="patch_213">
    <path clip-path="url(#p53872548a8)" d="M 1020.435366 768.96 
L 1022.476829 768.96 
L 1022.476829 174.781525 
L 1020.435366 174.781525 
z
" style="fill:#1f77b4;"/>
   </g>
   <g id="patch_214">
    <path clip-path="url(#p53872548a8)" d="M 1024.518293 768.96 
L 1026.559756 768.96 
L 1026.559756 173.927318 
L 1024.518293 173.927318 
z
" style="fill:#1f77b4;"/>
   </g>
   <g id="patch_215">
    <path clip-path="url(#p53872548a8)" d="M 1028.60122 768.96 
L 1030.642683 768.96 
L 1030.642683 173.146621 
L 1028.60122 173.146621 
z
" style="fill:#1f77b4;"/>
   </g>
   <g id="patch_216">
    <path clip-path="url(#p53872548a8)" d="M 1032.684146 768.96 
L 1034.72561 768.96 
L 1034.72561 172.323336 
L 1032.684146 172.323336 
z
" style="fill:#1f77b4;"/>
   </g>
   <g id="patch_217">
    <path clip-path="url(#p53872548a8)" d="M 1036.767073 768.96 
L 1038.808537 768.96 
L 1038.808537 171.422595 
L 1036.767073 171.422595 
z
" style="fill:#1f77b4;"/>
   </g>
   <g id="patch_218">
    <path clip-path="url(#p53872548a8)" d="M 1040.85 768.96 
L 1042.891463 768.96 
L 1042.891463 169.820114 
L 1040.85 169.820114 
z
" style="fill:#1f77b4;"/>
   </g>
   <g id="patch_219">
    <path clip-path="url(#p53872548a8)" d="M 1044.932927 768.96 
L 1046.97439 768.96 
L 1046.97439 169.298506 
L 1044.932927 169.298506 
z
" style="fill:#1f77b4;"/>
   </g>
   <g id="patch_220">
    <path clip-path="url(#p53872548a8)" d="M 1049.015854 768.96 
L 1051.057317 768.96 
L 1051.057317 168.690777 
L 1049.015854 168.690777 
z
" style="fill:#1f77b4;"/>
   </g>
   <g id="patch_221">
    <path clip-path="url(#p53872548a8)" d="M 1053.09878 768.96 
L 1055.140244 768.96 
L 1055.140244 168.098704 
L 1053.09878 168.098704 
z
" style="fill:#1f77b4;"/>
   </g>
   <g id="patch_222">
    <path clip-path="url(#p53872548a8)" d="M 1057.181707 768.96 
L 1059.223171 768.96 
L 1059.223171 165.698027 
L 1057.181707 165.698027 
z
" style="fill:#1f77b4;"/>
   </g>
   <g id="patch_223">
    <path clip-path="url(#p53872548a8)" d="M 1061.264634 768.96 
L 1063.306098 768.96 
L 1063.306098 163.616827 
L 1061.264634 163.616827 
z
" style="fill:#1f77b4;"/>
   </g>
   <g id="patch_224">
    <path clip-path="url(#p53872548a8)" d="M 1065.347561 768.96 
L 1067.389024 768.96 
L 1067.389024 161.960006 
L 1065.347561 161.960006 
z
" style="fill:#1f77b4;"/>
   </g>
   <g id="patch_225">
    <path clip-path="url(#p53872548a8)" d="M 1069.430488 768.96 
L 1071.471951 768.96 
L 1071.471951 159.554226 
L 1069.430488 159.554226 
z
" style="fill:#1f77b4;"/>
   </g>
   <g id="patch_226">
    <path clip-path="url(#p53872548a8)" d="M 1073.513415 768.96 
L 1075.554878 768.96 
L 1075.554878 157.926527 
L 1073.513415 157.926527 
z
" style="fill:#1f77b4;"/>
   </g>
   <g id="patch_227">
    <path clip-path="url(#p53872548a8)" d="M 1077.596341 768.96 
L 1079.637805 768.96 
L 1079.637805 157.207032 
L 1077.596341 157.207032 
z
" style="fill:#1f77b4;"/>
   </g>
   <g id="patch_228">
    <path clip-path="url(#p53872548a8)" d="M 1081.679268 768.96 
L 1083.720732 768.96 
L 1083.720732 156.178398 
L 1081.679268 156.178398 
z
" style="fill:#1f77b4;"/>
   </g>
   <g id="patch_229">
    <path clip-path="url(#p53872548a8)" d="M 1085.762195 768.96 
L 1087.803659 768.96 
L 1087.803659 155.205218 
L 1085.762195 155.205218 
z
" style="fill:#1f77b4;"/>
   </g>
   <g id="patch_230">
    <path clip-path="url(#p53872548a8)" d="M 1089.845122 768.96 
L 1091.886585 768.96 
L 1091.886585 154.270766 
L 1089.845122 154.270766 
z
" style="fill:#1f77b4;"/>
   </g>
   <g id="patch_231">
    <path clip-path="url(#p53872548a8)" d="M 1093.928049 768.96 
L 1095.969512 768.96 
L 1095.969512 153.364964 
L 1093.928049 153.364964 
z
" style="fill:#1f77b4;"/>
   </g>
   <g id="patch_232">
    <path clip-path="url(#p53872548a8)" d="M 1098.010976 768.96 
L 1100.052439 768.96 
L 1100.052439 152.474516 
L 1098.010976 152.474516 
z
" style="fill:#1f77b4;"/>
   </g>
   <g id="patch_233">
    <path clip-path="url(#p53872548a8)" d="M 1102.093902 768.96 
L 1104.135366 768.96 
L 1104.135366 151.887503 
L 1102.093902 151.887503 
z
" style="fill:#1f77b4;"/>
   </g>
   <g id="patch_234">
    <path clip-path="url(#p53872548a8)" d="M 1106.176829 768.96 
L 1108.218293 768.96 
L 1108.218293 151.137557 
L 1106.176829 151.137557 
z
" style="fill:#1f77b4;"/>
   </g>
   <g id="patch_235">
    <path clip-path="url(#p53872548a8)" d="M 1110.259756 768.96 
L 1112.30122 768.96 
L 1112.30122 150.099187 
L 1110.259756 150.099187 
z
" style="fill:#1f77b4;"/>
   </g>
   <g id="patch_236">
    <path clip-path="url(#p53872548a8)" d="M 1114.342683 768.96 
L 1116.384146 768.96 
L 1116.384146 149.105463 
L 1114.342683 149.105463 
z
" style="fill:#1f77b4;"/>
   </g>
   <g id="patch_237">
    <path clip-path="url(#p53872548a8)" d="M 1118.42561 768.96 
L 1120.467073 768.96 
L 1120.467073 144.479224 
L 1118.42561 144.479224 
z
" style="fill:#1f77b4;"/>
   </g>
   <g id="patch_238">
    <path clip-path="url(#p53872548a8)" d="M 1122.508537 768.96 
L 1124.55 768.96 
L 1124.55 143.449346 
L 1122.508537 143.449346 
z
" style="fill:#1f77b4;"/>
   </g>
   <g id="patch_239">
    <path clip-path="url(#p53872548a8)" d="M 1126.591463 768.96 
L 1128.632927 768.96 
L 1128.632927 142.452406 
L 1126.591463 142.452406 
z
" style="fill:#1f77b4;"/>
   </g>
   <g id="patch_240">
    <path clip-path="url(#p53872548a8)" d="M 1130.67439 768.96 
L 1132.715854 768.96 
L 1132.715854 141.749423 
L 1130.67439 141.749423 
z
" style="fill:#1f77b4;"/>
   </g>
   <g id="patch_241">
    <path clip-path="url(#p53872548a8)" d="M 1134.757317 768.96 
L 1136.79878 768.96 
L 1136.79878 140.918117 
L 1134.757317 140.918117 
z
" style="fill:#1f77b4;"/>
   </g>
   <g id="patch_242">
    <path clip-path="url(#p53872548a8)" d="M 1138.840244 768.96 
L 1140.881707 768.96 
L 1140.881707 139.870612 
L 1138.840244 139.870612 
z
" style="fill:#1f77b4;"/>
   </g>
   <g id="patch_243">
    <path clip-path="url(#p53872548a8)" d="M 1142.923171 768.96 
L 1144.964634 768.96 
L 1144.964634 138.898848 
L 1142.923171 138.898848 
z
" style="fill:#1f77b4;"/>
   </g>
   <g id="patch_244">
    <path clip-path="url(#p53872548a8)" d="M 1147.006098 768.96 
L 1149.047561 768.96 
L 1149.047561 137.987856 
L 1147.006098 137.987856 
z
" style="fill:#1f77b4;"/>
   </g>
   <g id="patch_245">
    <path clip-path="url(#p53872548a8)" d="M 1151.089024 768.96 
L 1153.130488 768.96 
L 1153.130488 137.084284 
L 1151.089024 137.084284 
z
" style="fill:#1f77b4;"/>
   </g>
   <g id="patch_246">
    <path clip-path="url(#p53872548a8)" d="M 1155.171951 768.96 
L 1157.213415 768.96 
L 1157.213415 136.28107 
L 1155.171951 136.28107 
z
" style="fill:#1f77b4;"/>
   </g>
   <g id="patch_247">
    <path clip-path="url(#p53872548a8)" d="M 1159.254878 768.96 
L 1161.296341 768.96 
L 1161.296341 135.740977 
L 1159.254878 135.740977 
z
" style="fill:#1f77b4;"/>
   </g>
   <g id="patch_248">
    <path clip-path="url(#p53872548a8)" d="M 1163.337805 768.96 
L 1165.379268 768.96 
L 1165.379268 135.36 
L 1163.337805 135.36 
z
" style="fill:#1f77b4;"/>
   </g>
   <g id="matplotlib.axis_1">
    <g id="xtick_1">
     <g id="line2d_1">
      <defs>
       <path d="M 0 0 
L 0 3.5 
" id="m3a90fa1161" style="stroke:#000000;stroke-width:0.8;"/>
      </defs>
      <g>
       <use style="stroke:#000000;stroke-width:0.8;" x="164.041463" xlink:href="#m3a90fa1161" y="768.96"/>
      </g>
     </g>
     <g id="text_1">
      <!-- January -->
      <g transform="translate(145.085995 783.558437)scale(0.1 -0.1)">
       <defs>
        <path d="M 628 4666 
L 1259 4666 
L 1259 325 
Q 1259 -519 939 -900 
Q 619 -1281 -91 -1281 
L -331 -1281 
L -331 -750 
L -134 -750 
Q 284 -750 456 -515 
Q 628 -281 628 325 
L 628 4666 
z
" id="DejaVuSans-4a" transform="scale(0.015625)"/>
        <path d="M 2194 1759 
Q 1497 1759 1228 1600 
Q 959 1441 959 1056 
Q 959 750 1161 570 
Q 1363 391 1709 391 
Q 2188 391 2477 730 
Q 2766 1069 2766 1631 
L 2766 1759 
L 2194 1759 
z
M 3341 1997 
L 3341 0 
L 2766 0 
L 2766 531 
Q 2569 213 2275 61 
Q 1981 -91 1556 -91 
Q 1019 -91 701 211 
Q 384 513 384 1019 
Q 384 1609 779 1909 
Q 1175 2209 1959 2209 
L 2766 2209 
L 2766 2266 
Q 2766 2663 2505 2880 
Q 2244 3097 1772 3097 
Q 1472 3097 1187 3025 
Q 903 2953 641 2809 
L 641 3341 
Q 956 3463 1253 3523 
Q 1550 3584 1831 3584 
Q 2591 3584 2966 3190 
Q 3341 2797 3341 1997 
z
" id="DejaVuSans-61" transform="scale(0.015625)"/>
        <path d="M 3513 2113 
L 3513 0 
L 2938 0 
L 2938 2094 
Q 2938 2591 2744 2837 
Q 2550 3084 2163 3084 
Q 1697 3084 1428 2787 
Q 1159 2491 1159 1978 
L 1159 0 
L 581 0 
L 581 3500 
L 1159 3500 
L 1159 2956 
Q 1366 3272 1645 3428 
Q 1925 3584 2291 3584 
Q 2894 3584 3203 3211 
Q 3513 2838 3513 2113 
z
" id="DejaVuSans-6e" transform="scale(0.015625)"/>
        <path d="M 544 1381 
L 544 3500 
L 1119 3500 
L 1119 1403 
Q 1119 906 1312 657 
Q 1506 409 1894 409 
Q 2359 409 2629 706 
Q 2900 1003 2900 1516 
L 2900 3500 
L 3475 3500 
L 3475 0 
L 2900 0 
L 2900 538 
Q 2691 219 2414 64 
Q 2138 -91 1772 -91 
Q 1169 -91 856 284 
Q 544 659 544 1381 
z
M 1991 3584 
L 1991 3584 
z
" id="DejaVuSans-75" transform="scale(0.015625)"/>
        <path d="M 2631 2963 
Q 2534 3019 2420 3045 
Q 2306 3072 2169 3072 
Q 1681 3072 1420 2755 
Q 1159 2438 1159 1844 
L 1159 0 
L 581 0 
L 581 3500 
L 1159 3500 
L 1159 2956 
Q 1341 3275 1631 3429 
Q 1922 3584 2338 3584 
Q 2397 3584 2469 3576 
Q 2541 3569 2628 3553 
L 2631 2963 
z
" id="DejaVuSans-72" transform="scale(0.015625)"/>
        <path d="M 2059 -325 
Q 1816 -950 1584 -1140 
Q 1353 -1331 966 -1331 
L 506 -1331 
L 506 -850 
L 844 -850 
Q 1081 -850 1212 -737 
Q 1344 -625 1503 -206 
L 1606 56 
L 191 3500 
L 800 3500 
L 1894 763 
L 2988 3500 
L 3597 3500 
L 2059 -325 
z
" id="DejaVuSans-79" transform="scale(0.015625)"/>
       </defs>
       <use xlink:href="#DejaVuSans-4a"/>
       <use x="29.492188" xlink:href="#DejaVuSans-61"/>
       <use x="90.771484" xlink:href="#DejaVuSans-6e"/>
       <use x="154.150391" xlink:href="#DejaVuSans-75"/>
       <use x="217.529297" xlink:href="#DejaVuSans-61"/>
       <use x="278.808594" xlink:href="#DejaVuSans-72"/>
       <use x="319.921875" xlink:href="#DejaVuSans-79"/>
      </g>
     </g>
    </g>
    <g id="xtick_2">
     <g id="line2d_2">
      <g>
       <use style="stroke:#000000;stroke-width:0.8;" x="290.612195" xlink:href="#m3a90fa1161" y="768.96"/>
      </g>
     </g>
     <g id="text_2">
      <!-- February -->
      <g transform="translate(268.457508 783.558437)scale(0.1 -0.1)">
       <defs>
        <path d="M 628 4666 
L 3309 4666 
L 3309 4134 
L 1259 4134 
L 1259 2759 
L 3109 2759 
L 3109 2228 
L 1259 2228 
L 1259 0 
L 628 0 
L 628 4666 
z
" id="DejaVuSans-46" transform="scale(0.015625)"/>
        <path d="M 3597 1894 
L 3597 1613 
L 953 1613 
Q 991 1019 1311 708 
Q 1631 397 2203 397 
Q 2534 397 2845 478 
Q 3156 559 3463 722 
L 3463 178 
Q 3153 47 2828 -22 
Q 2503 -91 2169 -91 
Q 1331 -91 842 396 
Q 353 884 353 1716 
Q 353 2575 817 3079 
Q 1281 3584 2069 3584 
Q 2775 3584 3186 3129 
Q 3597 2675 3597 1894 
z
M 3022 2063 
Q 3016 2534 2758 2815 
Q 2500 3097 2075 3097 
Q 1594 3097 1305 2825 
Q 1016 2553 972 2059 
L 3022 2063 
z
" id="DejaVuSans-65" transform="scale(0.015625)"/>
        <path d="M 3116 1747 
Q 3116 2381 2855 2742 
Q 2594 3103 2138 3103 
Q 1681 3103 1420 2742 
Q 1159 2381 1159 1747 
Q 1159 1113 1420 752 
Q 1681 391 2138 391 
Q 2594 391 2855 752 
Q 3116 1113 3116 1747 
z
M 1159 2969 
Q 1341 3281 1617 3432 
Q 1894 3584 2278 3584 
Q 2916 3584 3314 3078 
Q 3713 2572 3713 1747 
Q 3713 922 3314 415 
Q 2916 -91 2278 -91 
Q 1894 -91 1617 61 
Q 1341 213 1159 525 
L 1159 0 
L 581 0 
L 581 4863 
L 1159 4863 
L 1159 2969 
z
" id="DejaVuSans-62" transform="scale(0.015625)"/>
       </defs>
       <use xlink:href="#DejaVuSans-46"/>
       <use x="52.019531" xlink:href="#DejaVuSans-65"/>
       <use x="113.542969" xlink:href="#DejaVuSans-62"/>
       <use x="177.019531" xlink:href="#DejaVuSans-72"/>
       <use x="218.132812" xlink:href="#DejaVuSans-75"/>
       <use x="281.511719" xlink:href="#DejaVuSans-61"/>
       <use x="342.791016" xlink:href="#DejaVuSans-72"/>
       <use x="383.904297" xlink:href="#DejaVuSans-79"/>
      </g>
     </g>
    </g>
    <g id="xtick_3">
     <g id="line2d_3">
      <g>
       <use style="stroke:#000000;stroke-width:0.8;" x="404.934146" xlink:href="#m3a90fa1161" y="768.96"/>
      </g>
     </g>
     <g id="text_3">
      <!-- March -->
      <g transform="translate(389.695084 783.558437)scale(0.1 -0.1)">
       <defs>
        <path d="M 628 4666 
L 1569 4666 
L 2759 1491 
L 3956 4666 
L 4897 4666 
L 4897 0 
L 4281 0 
L 4281 4097 
L 3078 897 
L 2444 897 
L 1241 4097 
L 1241 0 
L 628 0 
L 628 4666 
z
" id="DejaVuSans-4d" transform="scale(0.015625)"/>
        <path d="M 3122 3366 
L 3122 2828 
Q 2878 2963 2633 3030 
Q 2388 3097 2138 3097 
Q 1578 3097 1268 2742 
Q 959 2388 959 1747 
Q 959 1106 1268 751 
Q 1578 397 2138 397 
Q 2388 397 2633 464 
Q 2878 531 3122 666 
L 3122 134 
Q 2881 22 2623 -34 
Q 2366 -91 2075 -91 
Q 1284 -91 818 406 
Q 353 903 353 1747 
Q 353 2603 823 3093 
Q 1294 3584 2113 3584 
Q 2378 3584 2631 3529 
Q 2884 3475 3122 3366 
z
" id="DejaVuSans-63" transform="scale(0.015625)"/>
        <path d="M 3513 2113 
L 3513 0 
L 2938 0 
L 2938 2094 
Q 2938 2591 2744 2837 
Q 2550 3084 2163 3084 
Q 1697 3084 1428 2787 
Q 1159 2491 1159 1978 
L 1159 0 
L 581 0 
L 581 4863 
L 1159 4863 
L 1159 2956 
Q 1366 3272 1645 3428 
Q 1925 3584 2291 3584 
Q 2894 3584 3203 3211 
Q 3513 2838 3513 2113 
z
" id="DejaVuSans-68" transform="scale(0.015625)"/>
       </defs>
       <use xlink:href="#DejaVuSans-4d"/>
       <use x="86.279297" xlink:href="#DejaVuSans-61"/>
       <use x="147.558594" xlink:href="#DejaVuSans-72"/>
       <use x="186.421875" xlink:href="#DejaVuSans-63"/>
       <use x="241.402344" xlink:href="#DejaVuSans-68"/>
      </g>
     </g>
    </g>
    <g id="xtick_4">
     <g id="line2d_4">
      <g>
       <use style="stroke:#000000;stroke-width:0.8;" x="531.504878" xlink:href="#m3a90fa1161" y="768.96"/>
      </g>
     </g>
     <g id="text_4">
      <!-- April -->
      <g transform="translate(520.076753 783.558437)scale(0.1 -0.1)">
       <defs>
        <path d="M 2188 4044 
L 1331 1722 
L 3047 1722 
L 2188 4044 
z
M 1831 4666 
L 2547 4666 
L 4325 0 
L 3669 0 
L 3244 1197 
L 1141 1197 
L 716 0 
L 50 0 
L 1831 4666 
z
" id="DejaVuSans-41" transform="scale(0.015625)"/>
        <path d="M 1159 525 
L 1159 -1331 
L 581 -1331 
L 581 3500 
L 1159 3500 
L 1159 2969 
Q 1341 3281 1617 3432 
Q 1894 3584 2278 3584 
Q 2916 3584 3314 3078 
Q 3713 2572 3713 1747 
Q 3713 922 3314 415 
Q 2916 -91 2278 -91 
Q 1894 -91 1617 61 
Q 1341 213 1159 525 
z
M 3116 1747 
Q 3116 2381 2855 2742 
Q 2594 3103 2138 3103 
Q 1681 3103 1420 2742 
Q 1159 2381 1159 1747 
Q 1159 1113 1420 752 
Q 1681 391 2138 391 
Q 2594 391 2855 752 
Q 3116 1113 3116 1747 
z
" id="DejaVuSans-70" transform="scale(0.015625)"/>
        <path d="M 603 3500 
L 1178 3500 
L 1178 0 
L 603 0 
L 603 3500 
z
M 603 4863 
L 1178 4863 
L 1178 4134 
L 603 4134 
L 603 4863 
z
" id="DejaVuSans-69" transform="scale(0.015625)"/>
        <path d="M 603 4863 
L 1178 4863 
L 1178 0 
L 603 0 
L 603 4863 
z
" id="DejaVuSans-6c" transform="scale(0.015625)"/>
       </defs>
       <use xlink:href="#DejaVuSans-41"/>
       <use x="68.408203" xlink:href="#DejaVuSans-70"/>
       <use x="131.884766" xlink:href="#DejaVuSans-72"/>
       <use x="172.998047" xlink:href="#DejaVuSans-69"/>
       <use x="200.78125" xlink:href="#DejaVuSans-6c"/>
      </g>
     </g>
    </g>
    <g id="xtick_5">
     <g id="line2d_5">
      <g>
       <use style="stroke:#000000;stroke-width:0.8;" x="653.992683" xlink:href="#m3a90fa1161" y="768.96"/>
      </g>
     </g>
     <g id="text_5">
      <!-- May -->
      <g transform="translate(643.655183 783.558437)scale(0.1 -0.1)">
       <use xlink:href="#DejaVuSans-4d"/>
       <use x="86.279297" xlink:href="#DejaVuSans-61"/>
       <use x="147.558594" xlink:href="#DejaVuSans-79"/>
      </g>
     </g>
    </g>
    <g id="xtick_6">
     <g id="line2d_6">
      <g>
       <use style="stroke:#000000;stroke-width:0.8;" x="780.563415" xlink:href="#m3a90fa1161" y="768.96"/>
      </g>
     </g>
     <g id="text_6">
      <!-- June -->
      <g transform="translate(769.674352 783.558437)scale(0.1 -0.1)">
       <use xlink:href="#DejaVuSans-4a"/>
       <use x="29.492188" xlink:href="#DejaVuSans-75"/>
       <use x="92.871094" xlink:href="#DejaVuSans-6e"/>
       <use x="156.25" xlink:href="#DejaVuSans-65"/>
      </g>
     </g>
    </g>
    <g id="xtick_7">
     <g id="line2d_7">
      <g>
       <use style="stroke:#000000;stroke-width:0.8;" x="903.05122" xlink:href="#m3a90fa1161" y="768.96"/>
      </g>
     </g>
     <g id="text_7">
      <!-- July -->
      <g transform="translate(894.059032 783.558437)scale(0.1 -0.1)">
       <use xlink:href="#DejaVuSans-4a"/>
       <use x="29.492188" xlink:href="#DejaVuSans-75"/>
       <use x="92.871094" xlink:href="#DejaVuSans-6c"/>
       <use x="120.654297" xlink:href="#DejaVuSans-79"/>
      </g>
     </g>
    </g>
    <g id="xtick_8">
     <g id="line2d_8">
      <g>
       <use style="stroke:#000000;stroke-width:0.8;" x="1029.621951" xlink:href="#m3a90fa1161" y="768.96"/>
      </g>
     </g>
     <g id="text_8">
      <!-- August -->
      <g transform="translate(1012.125076 783.558437)scale(0.1 -0.1)">
       <defs>
        <path d="M 2906 1791 
Q 2906 2416 2648 2759 
Q 2391 3103 1925 3103 
Q 1463 3103 1205 2759 
Q 947 2416 947 1791 
Q 947 1169 1205 825 
Q 1463 481 1925 481 
Q 2391 481 2648 825 
Q 2906 1169 2906 1791 
z
M 3481 434 
Q 3481 -459 3084 -895 
Q 2688 -1331 1869 -1331 
Q 1566 -1331 1297 -1286 
Q 1028 -1241 775 -1147 
L 775 -588 
Q 1028 -725 1275 -790 
Q 1522 -856 1778 -856 
Q 2344 -856 2625 -561 
Q 2906 -266 2906 331 
L 2906 616 
Q 2728 306 2450 153 
Q 2172 0 1784 0 
Q 1141 0 747 490 
Q 353 981 353 1791 
Q 353 2603 747 3093 
Q 1141 3584 1784 3584 
Q 2172 3584 2450 3431 
Q 2728 3278 2906 2969 
L 2906 3500 
L 3481 3500 
L 3481 434 
z
" id="DejaVuSans-67" transform="scale(0.015625)"/>
        <path d="M 2834 3397 
L 2834 2853 
Q 2591 2978 2328 3040 
Q 2066 3103 1784 3103 
Q 1356 3103 1142 2972 
Q 928 2841 928 2578 
Q 928 2378 1081 2264 
Q 1234 2150 1697 2047 
L 1894 2003 
Q 2506 1872 2764 1633 
Q 3022 1394 3022 966 
Q 3022 478 2636 193 
Q 2250 -91 1575 -91 
Q 1294 -91 989 -36 
Q 684 19 347 128 
L 347 722 
Q 666 556 975 473 
Q 1284 391 1588 391 
Q 1994 391 2212 530 
Q 2431 669 2431 922 
Q 2431 1156 2273 1281 
Q 2116 1406 1581 1522 
L 1381 1569 
Q 847 1681 609 1914 
Q 372 2147 372 2553 
Q 372 3047 722 3315 
Q 1072 3584 1716 3584 
Q 2034 3584 2315 3537 
Q 2597 3491 2834 3397 
z
" id="DejaVuSans-73" transform="scale(0.015625)"/>
        <path d="M 1172 4494 
L 1172 3500 
L 2356 3500 
L 2356 3053 
L 1172 3053 
L 1172 1153 
Q 1172 725 1289 603 
Q 1406 481 1766 481 
L 2356 481 
L 2356 0 
L 1766 0 
Q 1100 0 847 248 
Q 594 497 594 1153 
L 594 3053 
L 172 3053 
L 172 3500 
L 594 3500 
L 594 4494 
L 1172 4494 
z
" id="DejaVuSans-74" transform="scale(0.015625)"/>
       </defs>
       <use xlink:href="#DejaVuSans-41"/>
       <use x="68.408203" xlink:href="#DejaVuSans-75"/>
       <use x="131.787109" xlink:href="#DejaVuSans-67"/>
       <use x="195.263672" xlink:href="#DejaVuSans-75"/>
       <use x="258.642578" xlink:href="#DejaVuSans-73"/>
       <use x="310.742188" xlink:href="#DejaVuSans-74"/>
      </g>
     </g>
    </g>
    <g id="xtick_9">
     <g id="line2d_9">
      <g>
       <use style="stroke:#000000;stroke-width:0.8;" x="1156.192683" xlink:href="#m3a90fa1161" y="768.96"/>
      </g>
     </g>
     <g id="text_9">
      <!-- September -->
      <g transform="translate(1128.554402 783.558437)scale(0.1 -0.1)">
       <defs>
        <path d="M 3425 4513 
L 3425 3897 
Q 3066 4069 2747 4153 
Q 2428 4238 2131 4238 
Q 1616 4238 1336 4038 
Q 1056 3838 1056 3469 
Q 1056 3159 1242 3001 
Q 1428 2844 1947 2747 
L 2328 2669 
Q 3034 2534 3370 2195 
Q 3706 1856 3706 1288 
Q 3706 609 3251 259 
Q 2797 -91 1919 -91 
Q 1588 -91 1214 -16 
Q 841 59 441 206 
L 441 856 
Q 825 641 1194 531 
Q 1563 422 1919 422 
Q 2459 422 2753 634 
Q 3047 847 3047 1241 
Q 3047 1584 2836 1778 
Q 2625 1972 2144 2069 
L 1759 2144 
Q 1053 2284 737 2584 
Q 422 2884 422 3419 
Q 422 4038 858 4394 
Q 1294 4750 2059 4750 
Q 2388 4750 2728 4690 
Q 3069 4631 3425 4513 
z
" id="DejaVuSans-53" transform="scale(0.015625)"/>
        <path d="M 3328 2828 
Q 3544 3216 3844 3400 
Q 4144 3584 4550 3584 
Q 5097 3584 5394 3201 
Q 5691 2819 5691 2113 
L 5691 0 
L 5113 0 
L 5113 2094 
Q 5113 2597 4934 2840 
Q 4756 3084 4391 3084 
Q 3944 3084 3684 2787 
Q 3425 2491 3425 1978 
L 3425 0 
L 2847 0 
L 2847 2094 
Q 2847 2600 2669 2842 
Q 2491 3084 2119 3084 
Q 1678 3084 1418 2786 
Q 1159 2488 1159 1978 
L 1159 0 
L 581 0 
L 581 3500 
L 1159 3500 
L 1159 2956 
Q 1356 3278 1631 3431 
Q 1906 3584 2284 3584 
Q 2666 3584 2933 3390 
Q 3200 3197 3328 2828 
z
" id="DejaVuSans-6d" transform="scale(0.015625)"/>
       </defs>
       <use xlink:href="#DejaVuSans-53"/>
       <use x="63.476562" xlink:href="#DejaVuSans-65"/>
       <use x="125" xlink:href="#DejaVuSans-70"/>
       <use x="188.476562" xlink:href="#DejaVuSans-74"/>
       <use x="227.685547" xlink:href="#DejaVuSans-65"/>
       <use x="289.208984" xlink:href="#DejaVuSans-6d"/>
       <use x="386.621094" xlink:href="#DejaVuSans-62"/>
       <use x="450.097656" xlink:href="#DejaVuSans-65"/>
       <use x="511.621094" xlink:href="#DejaVuSans-72"/>
      </g>
     </g>
    </g>
   </g>
   <g id="matplotlib.axis_2">
    <g id="ytick_1">
     <g id="line2d_10">
      <defs>
       <path d="M 0 0 
L -3.5 0 
" id="m848630dc45" style="stroke:#000000;stroke-width:0.8;"/>
      </defs>
      <g>
       <use style="stroke:#000000;stroke-width:0.8;" x="162" xlink:href="#m848630dc45" y="768.96"/>
      </g>
     </g>
     <g id="text_10">
      <!-- 0.0 -->
      <g transform="translate(139.096875 772.759219)scale(0.1 -0.1)">
       <defs>
        <path d="M 2034 4250 
Q 1547 4250 1301 3770 
Q 1056 3291 1056 2328 
Q 1056 1369 1301 889 
Q 1547 409 2034 409 
Q 2525 409 2770 889 
Q 3016 1369 3016 2328 
Q 3016 3291 2770 3770 
Q 2525 4250 2034 4250 
z
M 2034 4750 
Q 2819 4750 3233 4129 
Q 3647 3509 3647 2328 
Q 3647 1150 3233 529 
Q 2819 -91 2034 -91 
Q 1250 -91 836 529 
Q 422 1150 422 2328 
Q 422 3509 836 4129 
Q 1250 4750 2034 4750 
z
" id="DejaVuSans-30" transform="scale(0.015625)"/>
        <path d="M 684 794 
L 1344 794 
L 1344 0 
L 684 0 
L 684 794 
z
" id="DejaVuSans-2e" transform="scale(0.015625)"/>
       </defs>
       <use xlink:href="#DejaVuSans-30"/>
       <use x="63.623047" xlink:href="#DejaVuSans-2e"/>
       <use x="95.410156" xlink:href="#DejaVuSans-30"/>
      </g>
     </g>
    </g>
    <g id="ytick_2">
     <g id="line2d_11">
      <g>
       <use style="stroke:#000000;stroke-width:0.8;" x="162" xlink:href="#m848630dc45" y="683.183273"/>
      </g>
     </g>
     <g id="text_11">
      <!-- 0.2 -->
      <g transform="translate(139.096875 686.982492)scale(0.1 -0.1)">
       <defs>
        <path d="M 1228 531 
L 3431 531 
L 3431 0 
L 469 0 
L 469 531 
Q 828 903 1448 1529 
Q 2069 2156 2228 2338 
Q 2531 2678 2651 2914 
Q 2772 3150 2772 3378 
Q 2772 3750 2511 3984 
Q 2250 4219 1831 4219 
Q 1534 4219 1204 4116 
Q 875 4013 500 3803 
L 500 4441 
Q 881 4594 1212 4672 
Q 1544 4750 1819 4750 
Q 2544 4750 2975 4387 
Q 3406 4025 3406 3419 
Q 3406 3131 3298 2873 
Q 3191 2616 2906 2266 
Q 2828 2175 2409 1742 
Q 1991 1309 1228 531 
z
" id="DejaVuSans-32" transform="scale(0.015625)"/>
       </defs>
       <use xlink:href="#DejaVuSans-30"/>
       <use x="63.623047" xlink:href="#DejaVuSans-2e"/>
       <use x="95.410156" xlink:href="#DejaVuSans-32"/>
      </g>
     </g>
    </g>
    <g id="ytick_3">
     <g id="line2d_12">
      <g>
       <use style="stroke:#000000;stroke-width:0.8;" x="162" xlink:href="#m848630dc45" y="597.406546"/>
      </g>
     </g>
     <g id="text_12">
      <!-- 0.4 -->
      <g transform="translate(139.096875 601.205765)scale(0.1 -0.1)">
       <defs>
        <path d="M 2419 4116 
L 825 1625 
L 2419 1625 
L 2419 4116 
z
M 2253 4666 
L 3047 4666 
L 3047 1625 
L 3713 1625 
L 3713 1100 
L 3047 1100 
L 3047 0 
L 2419 0 
L 2419 1100 
L 313 1100 
L 313 1709 
L 2253 4666 
z
" id="DejaVuSans-34" transform="scale(0.015625)"/>
       </defs>
       <use xlink:href="#DejaVuSans-30"/>
       <use x="63.623047" xlink:href="#DejaVuSans-2e"/>
       <use x="95.410156" xlink:href="#DejaVuSans-34"/>
      </g>
     </g>
    </g>
    <g id="ytick_4">
     <g id="line2d_13">
      <g>
       <use style="stroke:#000000;stroke-width:0.8;" x="162" xlink:href="#m848630dc45" y="511.62982"/>
      </g>
     </g>
     <g id="text_13">
      <!-- 0.6 -->
      <g transform="translate(139.096875 515.429038)scale(0.1 -0.1)">
       <defs>
        <path d="M 2113 2584 
Q 1688 2584 1439 2293 
Q 1191 2003 1191 1497 
Q 1191 994 1439 701 
Q 1688 409 2113 409 
Q 2538 409 2786 701 
Q 3034 994 3034 1497 
Q 3034 2003 2786 2293 
Q 2538 2584 2113 2584 
z
M 3366 4563 
L 3366 3988 
Q 3128 4100 2886 4159 
Q 2644 4219 2406 4219 
Q 1781 4219 1451 3797 
Q 1122 3375 1075 2522 
Q 1259 2794 1537 2939 
Q 1816 3084 2150 3084 
Q 2853 3084 3261 2657 
Q 3669 2231 3669 1497 
Q 3669 778 3244 343 
Q 2819 -91 2113 -91 
Q 1303 -91 875 529 
Q 447 1150 447 2328 
Q 447 3434 972 4092 
Q 1497 4750 2381 4750 
Q 2619 4750 2861 4703 
Q 3103 4656 3366 4563 
z
" id="DejaVuSans-36" transform="scale(0.015625)"/>
       </defs>
       <use xlink:href="#DejaVuSans-30"/>
       <use x="63.623047" xlink:href="#DejaVuSans-2e"/>
       <use x="95.410156" xlink:href="#DejaVuSans-36"/>
      </g>
     </g>
    </g>
    <g id="ytick_5">
     <g id="line2d_14">
      <g>
       <use style="stroke:#000000;stroke-width:0.8;" x="162" xlink:href="#m848630dc45" y="425.853093"/>
      </g>
     </g>
     <g id="text_14">
      <!-- 0.8 -->
      <g transform="translate(139.096875 429.652312)scale(0.1 -0.1)">
       <defs>
        <path d="M 2034 2216 
Q 1584 2216 1326 1975 
Q 1069 1734 1069 1313 
Q 1069 891 1326 650 
Q 1584 409 2034 409 
Q 2484 409 2743 651 
Q 3003 894 3003 1313 
Q 3003 1734 2745 1975 
Q 2488 2216 2034 2216 
z
M 1403 2484 
Q 997 2584 770 2862 
Q 544 3141 544 3541 
Q 544 4100 942 4425 
Q 1341 4750 2034 4750 
Q 2731 4750 3128 4425 
Q 3525 4100 3525 3541 
Q 3525 3141 3298 2862 
Q 3072 2584 2669 2484 
Q 3125 2378 3379 2068 
Q 3634 1759 3634 1313 
Q 3634 634 3220 271 
Q 2806 -91 2034 -91 
Q 1263 -91 848 271 
Q 434 634 434 1313 
Q 434 1759 690 2068 
Q 947 2378 1403 2484 
z
M 1172 3481 
Q 1172 3119 1398 2916 
Q 1625 2713 2034 2713 
Q 2441 2713 2670 2916 
Q 2900 3119 2900 3481 
Q 2900 3844 2670 4047 
Q 2441 4250 2034 4250 
Q 1625 4250 1398 4047 
Q 1172 3844 1172 3481 
z
" id="DejaVuSans-38" transform="scale(0.015625)"/>
       </defs>
       <use xlink:href="#DejaVuSans-30"/>
       <use x="63.623047" xlink:href="#DejaVuSans-2e"/>
       <use x="95.410156" xlink:href="#DejaVuSans-38"/>
      </g>
     </g>
    </g>
    <g id="ytick_6">
     <g id="line2d_15">
      <g>
       <use style="stroke:#000000;stroke-width:0.8;" x="162" xlink:href="#m848630dc45" y="340.076366"/>
      </g>
     </g>
     <g id="text_15">
      <!-- 1.0 -->
      <g transform="translate(139.096875 343.875585)scale(0.1 -0.1)">
       <defs>
        <path d="M 794 531 
L 1825 531 
L 1825 4091 
L 703 3866 
L 703 4441 
L 1819 4666 
L 2450 4666 
L 2450 531 
L 3481 531 
L 3481 0 
L 794 0 
L 794 531 
z
" id="DejaVuSans-31" transform="scale(0.015625)"/>
       </defs>
       <use xlink:href="#DejaVuSans-31"/>
       <use x="63.623047" xlink:href="#DejaVuSans-2e"/>
       <use x="95.410156" xlink:href="#DejaVuSans-30"/>
      </g>
     </g>
    </g>
    <g id="ytick_7">
     <g id="line2d_16">
      <g>
       <use style="stroke:#000000;stroke-width:0.8;" x="162" xlink:href="#m848630dc45" y="254.299639"/>
      </g>
     </g>
     <g id="text_16">
      <!-- 1.2 -->
      <g transform="translate(139.096875 258.098858)scale(0.1 -0.1)">
       <use xlink:href="#DejaVuSans-31"/>
       <use x="63.623047" xlink:href="#DejaVuSans-2e"/>
       <use x="95.410156" xlink:href="#DejaVuSans-32"/>
      </g>
     </g>
    </g>
    <g id="ytick_8">
     <g id="line2d_17">
      <g>
       <use style="stroke:#000000;stroke-width:0.8;" x="162" xlink:href="#m848630dc45" y="168.522912"/>
      </g>
     </g>
     <g id="text_17">
      <!-- 1.4 -->
      <g transform="translate(139.096875 172.322131)scale(0.1 -0.1)">
       <use xlink:href="#DejaVuSans-31"/>
       <use x="63.623047" xlink:href="#DejaVuSans-2e"/>
       <use x="95.410156" xlink:href="#DejaVuSans-34"/>
      </g>
     </g>
    </g>
    <g id="text_18">
     <!-- Persons fully vaccinated (tens of millions) -->
     <g transform="translate(133.017188 540.480156)rotate(-90)scale(0.1 -0.1)">
      <defs>
       <path d="M 1259 4147 
L 1259 2394 
L 2053 2394 
Q 2494 2394 2734 2622 
Q 2975 2850 2975 3272 
Q 2975 3691 2734 3919 
Q 2494 4147 2053 4147 
L 1259 4147 
z
M 628 4666 
L 2053 4666 
Q 2838 4666 3239 4311 
Q 3641 3956 3641 3272 
Q 3641 2581 3239 2228 
Q 2838 1875 2053 1875 
L 1259 1875 
L 1259 0 
L 628 0 
L 628 4666 
z
" id="DejaVuSans-50" transform="scale(0.015625)"/>
       <path d="M 1959 3097 
Q 1497 3097 1228 2736 
Q 959 2375 959 1747 
Q 959 1119 1226 758 
Q 1494 397 1959 397 
Q 2419 397 2687 759 
Q 2956 1122 2956 1747 
Q 2956 2369 2687 2733 
Q 2419 3097 1959 3097 
z
M 1959 3584 
Q 2709 3584 3137 3096 
Q 3566 2609 3566 1747 
Q 3566 888 3137 398 
Q 2709 -91 1959 -91 
Q 1206 -91 779 398 
Q 353 888 353 1747 
Q 353 2609 779 3096 
Q 1206 3584 1959 3584 
z
" id="DejaVuSans-6f" transform="scale(0.015625)"/>
       <path id="DejaVuSans-20" transform="scale(0.015625)"/>
       <path d="M 2375 4863 
L 2375 4384 
L 1825 4384 
Q 1516 4384 1395 4259 
Q 1275 4134 1275 3809 
L 1275 3500 
L 2222 3500 
L 2222 3053 
L 1275 3053 
L 1275 0 
L 697 0 
L 697 3053 
L 147 3053 
L 147 3500 
L 697 3500 
L 697 3744 
Q 697 4328 969 4595 
Q 1241 4863 1831 4863 
L 2375 4863 
z
" id="DejaVuSans-66" transform="scale(0.015625)"/>
       <path d="M 191 3500 
L 800 3500 
L 1894 563 
L 2988 3500 
L 3597 3500 
L 2284 0 
L 1503 0 
L 191 3500 
z
" id="DejaVuSans-76" transform="scale(0.015625)"/>
       <path d="M 2906 2969 
L 2906 4863 
L 3481 4863 
L 3481 0 
L 2906 0 
L 2906 525 
Q 2725 213 2448 61 
Q 2172 -91 1784 -91 
Q 1150 -91 751 415 
Q 353 922 353 1747 
Q 353 2572 751 3078 
Q 1150 3584 1784 3584 
Q 2172 3584 2448 3432 
Q 2725 3281 2906 2969 
z
M 947 1747 
Q 947 1113 1208 752 
Q 1469 391 1925 391 
Q 2381 391 2643 752 
Q 2906 1113 2906 1747 
Q 2906 2381 2643 2742 
Q 2381 3103 1925 3103 
Q 1469 3103 1208 2742 
Q 947 2381 947 1747 
z
" id="DejaVuSans-64" transform="scale(0.015625)"/>
       <path d="M 1984 4856 
Q 1566 4138 1362 3434 
Q 1159 2731 1159 2009 
Q 1159 1288 1364 580 
Q 1569 -128 1984 -844 
L 1484 -844 
Q 1016 -109 783 600 
Q 550 1309 550 2009 
Q 550 2706 781 3412 
Q 1013 4119 1484 4856 
L 1984 4856 
z
" id="DejaVuSans-28" transform="scale(0.015625)"/>
       <path d="M 513 4856 
L 1013 4856 
Q 1481 4119 1714 3412 
Q 1947 2706 1947 2009 
Q 1947 1309 1714 600 
Q 1481 -109 1013 -844 
L 513 -844 
Q 928 -128 1133 580 
Q 1338 1288 1338 2009 
Q 1338 2731 1133 3434 
Q 928 4138 513 4856 
z
" id="DejaVuSans-29" transform="scale(0.015625)"/>
      </defs>
      <use xlink:href="#DejaVuSans-50"/>
      <use x="56.677734" xlink:href="#DejaVuSans-65"/>
      <use x="118.201172" xlink:href="#DejaVuSans-72"/>
      <use x="159.314453" xlink:href="#DejaVuSans-73"/>
      <use x="211.414062" xlink:href="#DejaVuSans-6f"/>
      <use x="272.595703" xlink:href="#DejaVuSans-6e"/>
      <use x="335.974609" xlink:href="#DejaVuSans-73"/>
      <use x="388.074219" xlink:href="#DejaVuSans-20"/>
      <use x="419.861328" xlink:href="#DejaVuSans-66"/>
      <use x="455.066406" xlink:href="#DejaVuSans-75"/>
      <use x="518.445312" xlink:href="#DejaVuSans-6c"/>
      <use x="546.228516" xlink:href="#DejaVuSans-6c"/>
      <use x="574.011719" xlink:href="#DejaVuSans-79"/>
      <use x="633.191406" xlink:href="#DejaVuSans-20"/>
      <use x="664.978516" xlink:href="#DejaVuSans-76"/>
      <use x="724.158203" xlink:href="#DejaVuSans-61"/>
      <use x="785.4375" xlink:href="#DejaVuSans-63"/>
      <use x="840.417969" xlink:href="#DejaVuSans-63"/>
      <use x="895.398438" xlink:href="#DejaVuSans-69"/>
      <use x="923.181641" xlink:href="#DejaVuSans-6e"/>
      <use x="986.560547" xlink:href="#DejaVuSans-61"/>
      <use x="1047.839844" xlink:href="#DejaVuSans-74"/>
      <use x="1087.048828" xlink:href="#DejaVuSans-65"/>
      <use x="1148.572266" xlink:href="#DejaVuSans-64"/>
      <use x="1212.048828" xlink:href="#DejaVuSans-20"/>
      <use x="1243.835938" xlink:href="#DejaVuSans-28"/>
      <use x="1282.849609" xlink:href="#DejaVuSans-74"/>
      <use x="1322.058594" xlink:href="#DejaVuSans-65"/>
      <use x="1383.582031" xlink:href="#DejaVuSans-6e"/>
      <use x="1446.960938" xlink:href="#DejaVuSans-73"/>
      <use x="1499.060547" xlink:href="#DejaVuSans-20"/>
      <use x="1530.847656" xlink:href="#DejaVuSans-6f"/>
      <use x="1592.029297" xlink:href="#DejaVuSans-66"/>
      <use x="1627.234375" xlink:href="#DejaVuSans-20"/>
      <use x="1659.021484" xlink:href="#DejaVuSans-6d"/>
      <use x="1756.433594" xlink:href="#DejaVuSans-69"/>
      <use x="1784.216797" xlink:href="#DejaVuSans-6c"/>
      <use x="1812" xlink:href="#DejaVuSans-6c"/>
      <use x="1839.783203" xlink:href="#DejaVuSans-69"/>
      <use x="1867.566406" xlink:href="#DejaVuSans-6f"/>
      <use x="1928.748047" xlink:href="#DejaVuSans-6e"/>
      <use x="1992.126953" xlink:href="#DejaVuSans-73"/>
      <use x="2044.226562" xlink:href="#DejaVuSans-29"/>
     </g>
    </g>
    <g id="text_19">
     <!-- 1e7 -->
     <g transform="translate(162 100.68)scale(0.1 -0.1)">
      <defs>
       <path d="M 525 4666 
L 3525 4666 
L 3525 4397 
L 1831 0 
L 1172 0 
L 2766 4134 
L 525 4134 
L 525 4666 
z
" id="DejaVuSans-37" transform="scale(0.015625)"/>
      </defs>
      <use xlink:href="#DejaVuSans-31"/>
      <use x="63.623047" xlink:href="#DejaVuSans-65"/>
      <use x="125.146484" xlink:href="#DejaVuSans-37"/>
     </g>
    </g>
   </g>
   <g id="patch_249">
    <path d="M 162 768.96 
L 162 103.68 
" style="fill:none;stroke:#000000;stroke-linecap:square;stroke-linejoin:miter;stroke-width:0.8;"/>
   </g>
   <g id="patch_250">
    <path d="M 1166.4 768.96 
L 1166.4 103.68 
" style="fill:none;stroke:#000000;stroke-linecap:square;stroke-linejoin:miter;stroke-width:0.8;"/>
   </g>
   <g id="patch_251">
    <path d="M 162 768.96 
L 1166.4 768.96 
" style="fill:none;stroke:#000000;stroke-linecap:square;stroke-linejoin:miter;stroke-width:0.8;"/>
   </g>
   <g id="patch_252">
    <path d="M 162 103.68 
L 1166.4 103.68 
" style="fill:none;stroke:#000000;stroke-linecap:square;stroke-linejoin:miter;stroke-width:0.8;"/>
   </g>
   <g id="text_20">
    <!-- Persons Fully Vaccinated -->
    <g transform="translate(590.380313 97.68)scale(0.12 -0.12)">
     <defs>
      <path d="M 1831 0 
L 50 4666 
L 709 4666 
L 2188 738 
L 3669 4666 
L 4325 4666 
L 2547 0 
L 1831 0 
z
" id="DejaVuSans-56" transform="scale(0.015625)"/>
     </defs>
     <use xlink:href="#DejaVuSans-50"/>
     <use x="56.677734" xlink:href="#DejaVuSans-65"/>
     <use x="118.201172" xlink:href="#DejaVuSans-72"/>
     <use x="159.314453" xlink:href="#DejaVuSans-73"/>
     <use x="211.414062" xlink:href="#DejaVuSans-6f"/>
     <use x="272.595703" xlink:href="#DejaVuSans-6e"/>
     <use x="335.974609" xlink:href="#DejaVuSans-73"/>
     <use x="388.074219" xlink:href="#DejaVuSans-20"/>
     <use x="419.861328" xlink:href="#DejaVuSans-46"/>
     <use x="471.880859" xlink:href="#DejaVuSans-75"/>
     <use x="535.259766" xlink:href="#DejaVuSans-6c"/>
     <use x="563.042969" xlink:href="#DejaVuSans-6c"/>
     <use x="590.826172" xlink:href="#DejaVuSans-79"/>
     <use x="650.005859" xlink:href="#DejaVuSans-20"/>
     <use x="681.792969" xlink:href="#DejaVuSans-56"/>
     <use x="742.451172" xlink:href="#DejaVuSans-61"/>
     <use x="803.730469" xlink:href="#DejaVuSans-63"/>
     <use x="858.710938" xlink:href="#DejaVuSans-63"/>
     <use x="913.691406" xlink:href="#DejaVuSans-69"/>
     <use x="941.474609" xlink:href="#DejaVuSans-6e"/>
     <use x="1004.853516" xlink:href="#DejaVuSans-61"/>
     <use x="1066.132812" xlink:href="#DejaVuSans-74"/>
     <use x="1105.341797" xlink:href="#DejaVuSans-65"/>
     <use x="1166.865234" xlink:href="#DejaVuSans-64"/>
    </g>
   </g>
  </g>
 </g>
 <defs>
  <clipPath id="p53872548a8">
   <rect height="665.28" width="1004.4" x="162" y="103.68"/>
  </clipPath>
 </defs>
</svg>
