<?xml version="1.0" encoding="utf-8" standalone="no"?>
<!DOCTYPE svg PUBLIC "-//W3C//DTD SVG 1.1//EN"
  "http://www.w3.org/Graphics/SVG/1.1/DTD/svg11.dtd">
<svg height="864pt" version="1.1" viewBox="0 0 1296 864" width="1296pt" xmlns="http://www.w3.org/2000/svg" xmlns:xlink="http://www.w3.org/1999/xlink">
 <metadata>
  <rdf:RDF xmlns:cc="http://creativecommons.org/ns#" xmlns:dc="http://purl.org/dc/elements/1.1/" xmlns:rdf="http://www.w3.org/1999/02/22-rdf-syntax-ns#">
   <cc:Work>
    <dc:type rdf:resource="http://purl.org/dc/dcmitype/StillImage"/>
    <dc:date>2021-08-25T09:39:03.050132</dc:date>
    <dc:format>image/svg+xml</dc:format>
    <dc:creator>
     <cc:Agent>
      <dc:title>Matplotlib v3.4.2, https://matplotlib.org/</dc:title>
     </cc:Agent>
    </dc:creator>
   </cc:Work>
  </rdf:RDF>
 </metadata>
 <defs>
  <style type="text/css">*{stroke-linecap:butt;stroke-linejoin:round;}</style>
 </defs>
 <g id="figure_1">
  <g id="patch_1">
   <path d="M 0 864 
L 1296 864 
L 1296 0 
L 0 0 
z
" style="fill:#ffffff;"/>
  </g>
  <g id="axes_1">
   <g id="patch_2">
    <path d="M 162 768.96 
L 1166.4 768.96 
L 1166.4 103.68 
L 162 103.68 
z
" style="fill:#ffffff;"/>
   </g>
   <g id="patch_3">
    <path clip-path="url(#p588acfeb83)" d="M 163.082328 768.96 
L 165.246983 768.96 
L 165.246983 768.947978 
L 163.082328 768.947978 
z
" style="fill:#1f77b4;"/>
   </g>
   <g id="patch_4">
    <path clip-path="url(#p588acfeb83)" d="M 167.411638 768.96 
L 169.576293 768.96 
L 169.576293 768.923197 
L 167.411638 768.923197 
z
" style="fill:#1f77b4;"/>
   </g>
   <g id="patch_5">
    <path clip-path="url(#p588acfeb83)" d="M 171.740948 768.96 
L 173.905603 768.96 
L 173.905603 768.710801 
L 171.740948 768.710801 
z
" style="fill:#1f77b4;"/>
   </g>
   <g id="patch_6">
    <path clip-path="url(#p588acfeb83)" d="M 176.070259 768.96 
L 178.234914 768.96 
L 178.234914 767.143133 
L 176.070259 767.143133 
z
" style="fill:#1f77b4;"/>
   </g>
   <g id="patch_7">
    <path clip-path="url(#p588acfeb83)" d="M 180.399569 768.96 
L 182.564224 768.96 
L 182.564224 765.271452 
L 180.399569 765.271452 
z
" style="fill:#1f77b4;"/>
   </g>
   <g id="patch_8">
    <path clip-path="url(#p588acfeb83)" d="M 184.728879 768.96 
L 186.893534 768.96 
L 186.893534 764.251005 
L 184.728879 764.251005 
z
" style="fill:#1f77b4;"/>
   </g>
   <g id="patch_9">
    <path clip-path="url(#p588acfeb83)" d="M 189.05819 768.96 
L 191.222845 768.96 
L 191.222845 763.631046 
L 189.05819 763.631046 
z
" style="fill:#1f77b4;"/>
   </g>
   <g id="patch_10">
    <path clip-path="url(#p588acfeb83)" d="M 193.3875 768.96 
L 195.552155 768.96 
L 195.552155 762.655561 
L 193.3875 762.655561 
z
" style="fill:#1f77b4;"/>
   </g>
   <g id="patch_11">
    <path clip-path="url(#p588acfeb83)" d="M 197.71681 768.96 
L 199.881466 768.96 
L 199.881466 761.731113 
L 197.71681 761.731113 
z
" style="fill:#1f77b4;"/>
   </g>
   <g id="patch_12">
    <path clip-path="url(#p588acfeb83)" d="M 202.046121 768.96 
L 204.210776 768.96 
L 204.210776 760.976833 
L 202.046121 760.976833 
z
" style="fill:#1f77b4;"/>
   </g>
   <g id="patch_13">
    <path clip-path="url(#p588acfeb83)" d="M 206.375431 768.96 
L 208.540086 768.96 
L 208.540086 760.061933 
L 206.375431 760.061933 
z
" style="fill:#1f77b4;"/>
   </g>
   <g id="patch_14">
    <path clip-path="url(#p588acfeb83)" d="M 210.704741 768.96 
L 212.869397 768.96 
L 212.869397 759.882564 
L 210.704741 759.882564 
z
" style="fill:#1f77b4;"/>
   </g>
   <g id="patch_15">
    <path clip-path="url(#p588acfeb83)" d="M 215.034052 768.96 
L 217.198707 768.96 
L 217.198707 759.770854 
L 215.034052 759.770854 
z
" style="fill:#1f77b4;"/>
   </g>
   <g id="patch_16">
    <path clip-path="url(#p588acfeb83)" d="M 219.363362 768.96 
L 221.528017 768.96 
L 221.528017 759.719166 
L 219.363362 759.719166 
z
" style="fill:#1f77b4;"/>
   </g>
   <g id="patch_17">
    <path clip-path="url(#p588acfeb83)" d="M 223.692672 768.96 
L 225.857328 768.96 
L 225.857328 759.464455 
L 223.692672 759.464455 
z
" style="fill:#1f77b4;"/>
   </g>
   <g id="patch_18">
    <path clip-path="url(#p588acfeb83)" d="M 228.021983 768.96 
L 230.186638 768.96 
L 230.186638 759.051902 
L 228.021983 759.051902 
z
" style="fill:#1f77b4;"/>
   </g>
   <g id="patch_19">
    <path clip-path="url(#p588acfeb83)" d="M 232.351293 768.96 
L 234.515948 768.96 
L 234.515948 758.215685 
L 232.351293 758.215685 
z
" style="fill:#1f77b4;"/>
   </g>
   <g id="patch_20">
    <path clip-path="url(#p588acfeb83)" d="M 236.680603 768.96 
L 238.845259 768.96 
L 238.845259 757.391446 
L 236.680603 757.391446 
z
" style="fill:#1f77b4;"/>
   </g>
   <g id="patch_21">
    <path clip-path="url(#p588acfeb83)" d="M 241.009914 768.96 
L 243.174569 768.96 
L 243.174569 756.814756 
L 241.009914 756.814756 
z
" style="fill:#1f77b4;"/>
   </g>
   <g id="patch_22">
    <path clip-path="url(#p588acfeb83)" d="M 245.339224 768.96 
L 247.503879 768.96 
L 247.503879 756.614729 
L 245.339224 756.614729 
z
" style="fill:#1f77b4;"/>
   </g>
   <g id="patch_23">
    <path clip-path="url(#p588acfeb83)" d="M 249.668534 768.96 
L 251.83319 768.96 
L 251.83319 756.331722 
L 249.668534 756.331722 
z
" style="fill:#1f77b4;"/>
   </g>
   <g id="patch_24">
    <path clip-path="url(#p588acfeb83)" d="M 253.997845 768.96 
L 256.1625 768.96 
L 256.1625 755.560777 
L 253.997845 755.560777 
z
" style="fill:#1f77b4;"/>
   </g>
   <g id="patch_25">
    <path clip-path="url(#p588acfeb83)" d="M 258.327155 768.96 
L 260.49181 768.96 
L 260.49181 754.245562 
L 258.327155 754.245562 
z
" style="fill:#1f77b4;"/>
   </g>
   <g id="patch_26">
    <path clip-path="url(#p588acfeb83)" d="M 262.656466 768.96 
L 264.821121 768.96 
L 264.821121 752.411509 
L 262.656466 752.411509 
z
" style="fill:#1f77b4;"/>
   </g>
   <g id="patch_27">
    <path clip-path="url(#p588acfeb83)" d="M 266.985776 768.96 
L 269.150431 768.96 
L 269.150431 750.884462 
L 266.985776 750.884462 
z
" style="fill:#1f77b4;"/>
   </g>
   <g id="patch_28">
    <path clip-path="url(#p588acfeb83)" d="M 271.315086 768.96 
L 273.479741 768.96 
L 273.479741 749.505754 
L 271.315086 749.505754 
z
" style="fill:#1f77b4;"/>
   </g>
   <g id="patch_29">
    <path clip-path="url(#p588acfeb83)" d="M 275.644397 768.96 
L 277.809052 768.96 
L 277.809052 748.766838 
L 275.644397 748.766838 
z
" style="fill:#1f77b4;"/>
   </g>
   <g id="patch_30">
    <path clip-path="url(#p588acfeb83)" d="M 279.973707 768.96 
L 282.138362 768.96 
L 282.138362 748.351767 
L 279.973707 748.351767 
z
" style="fill:#1f77b4;"/>
   </g>
   <g id="patch_31">
    <path clip-path="url(#p588acfeb83)" d="M 284.303017 768.96 
L 286.467672 768.96 
L 286.467672 747.600786 
L 284.303017 747.600786 
z
" style="fill:#1f77b4;"/>
   </g>
   <g id="patch_32">
    <path clip-path="url(#p588acfeb83)" d="M 288.632328 768.96 
L 290.796983 768.96 
L 290.796983 745.956952 
L 288.632328 745.956952 
z
" style="fill:#1f77b4;"/>
   </g>
   <g id="patch_33">
    <path clip-path="url(#p588acfeb83)" d="M 292.961638 768.96 
L 295.126293 768.96 
L 295.126293 744.748282 
L 292.961638 744.748282 
z
" style="fill:#1f77b4;"/>
   </g>
   <g id="patch_34">
    <path clip-path="url(#p588acfeb83)" d="M 297.290948 768.96 
L 299.455603 768.96 
L 299.455603 743.101757 
L 297.290948 743.101757 
z
" style="fill:#1f77b4;"/>
   </g>
   <g id="patch_35">
    <path clip-path="url(#p588acfeb83)" d="M 301.620259 768.96 
L 303.784914 768.96 
L 303.784914 741.818787 
L 301.620259 741.818787 
z
" style="fill:#1f77b4;"/>
   </g>
   <g id="patch_36">
    <path clip-path="url(#p588acfeb83)" d="M 305.949569 768.96 
L 308.114224 768.96 
L 308.114224 740.666884 
L 305.949569 740.666884 
z
" style="fill:#1f77b4;"/>
   </g>
   <g id="patch_37">
    <path clip-path="url(#p588acfeb83)" d="M 310.278879 768.96 
L 312.443534 768.96 
L 312.443534 740.276204 
L 310.278879 740.276204 
z
" style="fill:#1f77b4;"/>
   </g>
   <g id="patch_38">
    <path clip-path="url(#p588acfeb83)" d="M 314.60819 768.96 
L 316.772845 768.96 
L 316.772845 738.949748 
L 314.60819 738.949748 
z
" style="fill:#1f77b4;"/>
   </g>
   <g id="patch_39">
    <path clip-path="url(#p588acfeb83)" d="M 318.9375 768.96 
L 321.102155 768.96 
L 321.102155 737.297928 
L 318.9375 737.297928 
z
" style="fill:#1f77b4;"/>
   </g>
   <g id="patch_40">
    <path clip-path="url(#p588acfeb83)" d="M 323.26681 768.96 
L 325.431466 768.96 
L 325.431466 735.301475 
L 323.26681 735.301475 
z
" style="fill:#1f77b4;"/>
   </g>
   <g id="patch_41">
    <path clip-path="url(#p588acfeb83)" d="M 327.596121 768.96 
L 329.760776 768.96 
L 329.760776 732.437383 
L 327.596121 732.437383 
z
" style="fill:#1f77b4;"/>
   </g>
   <g id="patch_42">
    <path clip-path="url(#p588acfeb83)" d="M 331.925431 768.96 
L 334.090086 768.96 
L 334.090086 729.845578 
L 331.925431 729.845578 
z
" style="fill:#1f77b4;"/>
   </g>
   <g id="patch_43">
    <path clip-path="url(#p588acfeb83)" d="M 336.254741 768.96 
L 338.419397 768.96 
L 338.419397 728.236159 
L 336.254741 728.236159 
z
" style="fill:#1f77b4;"/>
   </g>
   <g id="patch_44">
    <path clip-path="url(#p588acfeb83)" d="M 340.584052 768.96 
L 342.748707 768.96 
L 342.748707 727.366829 
L 340.584052 727.366829 
z
" style="fill:#1f77b4;"/>
   </g>
   <g id="patch_45">
    <path clip-path="url(#p588acfeb83)" d="M 344.913362 768.96 
L 347.078017 768.96 
L 347.078017 726.525751 
L 344.913362 726.525751 
z
" style="fill:#1f77b4;"/>
   </g>
   <g id="patch_46">
    <path clip-path="url(#p588acfeb83)" d="M 349.242672 768.96 
L 351.407328 768.96 
L 351.407328 724.782315 
L 349.242672 724.782315 
z
" style="fill:#1f77b4;"/>
   </g>
   <g id="patch_47">
    <path clip-path="url(#p588acfeb83)" d="M 353.571983 768.96 
L 355.736638 768.96 
L 355.736638 721.962794 
L 353.571983 721.962794 
z
" style="fill:#1f77b4;"/>
   </g>
   <g id="patch_48">
    <path clip-path="url(#p588acfeb83)" d="M 357.901293 768.96 
L 360.065948 768.96 
L 360.065948 718.201205 
L 357.901293 718.201205 
z
" style="fill:#1f77b4;"/>
   </g>
   <g id="patch_49">
    <path clip-path="url(#p588acfeb83)" d="M 362.230603 768.96 
L 364.395259 768.96 
L 364.395259 714.740721 
L 362.230603 714.740721 
z
" style="fill:#1f77b4;"/>
   </g>
   <g id="patch_50">
    <path clip-path="url(#p588acfeb83)" d="M 366.559914 768.96 
L 368.724569 768.96 
L 368.724569 714.043338 
L 366.559914 714.043338 
z
" style="fill:#1f77b4;"/>
   </g>
   <g id="patch_51">
    <path clip-path="url(#p588acfeb83)" d="M 370.889224 768.96 
L 373.053879 768.96 
L 373.053879 711.479829 
L 370.889224 711.479829 
z
" style="fill:#1f77b4;"/>
   </g>
   <g id="patch_52">
    <path clip-path="url(#p588acfeb83)" d="M 375.218534 768.96 
L 377.38319 768.96 
L 377.38319 709.453647 
L 375.218534 709.453647 
z
" style="fill:#1f77b4;"/>
   </g>
   <g id="patch_53">
    <path clip-path="url(#p588acfeb83)" d="M 379.547845 768.96 
L 381.7125 768.96 
L 381.7125 706.43041 
L 379.547845 706.43041 
z
" style="fill:#1f77b4;"/>
   </g>
   <g id="patch_54">
    <path clip-path="url(#p588acfeb83)" d="M 383.877155 768.96 
L 386.04181 768.96 
L 386.04181 700.671891 
L 383.877155 700.671891 
z
" style="fill:#1f77b4;"/>
   </g>
   <g id="patch_55">
    <path clip-path="url(#p588acfeb83)" d="M 388.206466 768.96 
L 390.371121 768.96 
L 390.371121 694.619471 
L 388.206466 694.619471 
z
" style="fill:#1f77b4;"/>
   </g>
   <g id="patch_56">
    <path clip-path="url(#p588acfeb83)" d="M 392.535776 768.96 
L 394.700431 768.96 
L 394.700431 689.244558 
L 392.535776 689.244558 
z
" style="fill:#1f77b4;"/>
   </g>
   <g id="patch_57">
    <path clip-path="url(#p588acfeb83)" d="M 396.865086 768.96 
L 399.029741 768.96 
L 399.029741 684.54485 
L 396.865086 684.54485 
z
" style="fill:#1f77b4;"/>
   </g>
   <g id="patch_58">
    <path clip-path="url(#p588acfeb83)" d="M 401.194397 768.96 
L 403.359052 768.96 
L 403.359052 682.292297 
L 401.194397 682.292297 
z
" style="fill:#1f77b4;"/>
   </g>
   <g id="patch_59">
    <path clip-path="url(#p588acfeb83)" d="M 405.523707 768.96 
L 407.688362 768.96 
L 407.688362 678.903942 
L 405.523707 678.903942 
z
" style="fill:#1f77b4;"/>
   </g>
   <g id="patch_60">
    <path clip-path="url(#p588acfeb83)" d="M 409.853017 768.96 
L 412.017672 768.96 
L 412.017672 674.366939 
L 409.853017 674.366939 
z
" style="fill:#1f77b4;"/>
   </g>
   <g id="patch_61">
    <path clip-path="url(#p588acfeb83)" d="M 414.182328 768.96 
L 416.346983 768.96 
L 416.346983 669.194222 
L 414.182328 669.194222 
z
" style="fill:#1f77b4;"/>
   </g>
   <g id="patch_62">
    <path clip-path="url(#p588acfeb83)" d="M 418.511638 768.96 
L 420.676293 768.96 
L 420.676293 661.684933 
L 418.511638 661.684933 
z
" style="fill:#1f77b4;"/>
   </g>
   <g id="patch_63">
    <path clip-path="url(#p588acfeb83)" d="M 422.840948 768.96 
L 425.005603 768.96 
L 425.005603 654.650431 
L 422.840948 654.650431 
z
" style="fill:#1f77b4;"/>
   </g>
   <g id="patch_64">
    <path clip-path="url(#p588acfeb83)" d="M 427.170259 768.96 
L 429.334914 768.96 
L 429.334914 649.097494 
L 427.170259 649.097494 
z
" style="fill:#1f77b4;"/>
   </g>
   <g id="patch_65">
    <path clip-path="url(#p588acfeb83)" d="M 431.499569 768.96 
L 433.664224 768.96 
L 433.664224 647.37081 
L 431.499569 647.37081 
z
" style="fill:#1f77b4;"/>
   </g>
   <g id="patch_66">
    <path clip-path="url(#p588acfeb83)" d="M 435.828879 768.96 
L 437.993534 768.96 
L 437.993534 642.846132 
L 435.828879 642.846132 
z
" style="fill:#1f77b4;"/>
   </g>
   <g id="patch_67">
    <path clip-path="url(#p588acfeb83)" d="M 440.15819 768.96 
L 442.322845 768.96 
L 442.322845 637.009884 
L 440.15819 637.009884 
z
" style="fill:#1f77b4;"/>
   </g>
   <g id="patch_68">
    <path clip-path="url(#p588acfeb83)" d="M 444.4875 768.96 
L 446.652155 768.96 
L 446.652155 630.529417 
L 444.4875 630.529417 
z
" style="fill:#1f77b4;"/>
   </g>
   <g id="patch_69">
    <path clip-path="url(#p588acfeb83)" d="M 448.81681 768.96 
L 450.981466 768.96 
L 450.981466 623.581367 
L 448.81681 623.581367 
z
" style="fill:#1f77b4;"/>
   </g>
   <g id="patch_70">
    <path clip-path="url(#p588acfeb83)" d="M 453.146121 768.96 
L 455.310776 768.96 
L 455.310776 615.805041 
L 453.146121 615.805041 
z
" style="fill:#1f77b4;"/>
   </g>
   <g id="patch_71">
    <path clip-path="url(#p588acfeb83)" d="M 457.475431 768.96 
L 459.640086 768.96 
L 459.640086 610.801756 
L 457.475431 610.801756 
z
" style="fill:#1f77b4;"/>
   </g>
   <g id="patch_72">
    <path clip-path="url(#p588acfeb83)" d="M 461.804741 768.96 
L 463.969397 768.96 
L 463.969397 605.803244 
L 461.804741 605.803244 
z
" style="fill:#1f77b4;"/>
   </g>
   <g id="patch_73">
    <path clip-path="url(#p588acfeb83)" d="M 466.134052 768.96 
L 468.298707 768.96 
L 468.298707 601.407896 
L 466.134052 601.407896 
z
" style="fill:#1f77b4;"/>
   </g>
   <g id="patch_74">
    <path clip-path="url(#p588acfeb83)" d="M 470.463362 768.96 
L 472.628017 768.96 
L 472.628017 596.436899 
L 470.463362 596.436899 
z
" style="fill:#1f77b4;"/>
   </g>
   <g id="patch_75">
    <path clip-path="url(#p588acfeb83)" d="M 474.792672 768.96 
L 476.957328 768.96 
L 476.957328 591.970593 
L 474.792672 591.970593 
z
" style="fill:#1f77b4;"/>
   </g>
   <g id="patch_76">
    <path clip-path="url(#p588acfeb83)" d="M 479.121983 768.96 
L 481.286638 768.96 
L 481.286638 586.925905 
L 479.121983 586.925905 
z
" style="fill:#1f77b4;"/>
   </g>
   <g id="patch_77">
    <path clip-path="url(#p588acfeb83)" d="M 483.451293 768.96 
L 485.615948 768.96 
L 485.615948 581.74746 
L 483.451293 581.74746 
z
" style="fill:#1f77b4;"/>
   </g>
   <g id="patch_78">
    <path clip-path="url(#p588acfeb83)" d="M 487.780603 768.96 
L 489.945259 768.96 
L 489.945259 578.677351 
L 487.780603 578.677351 
z
" style="fill:#1f77b4;"/>
   </g>
   <g id="patch_79">
    <path clip-path="url(#p588acfeb83)" d="M 492.109914 768.96 
L 494.274569 768.96 
L 494.274569 576.973409 
L 492.109914 576.973409 
z
" style="fill:#1f77b4;"/>
   </g>
   <g id="patch_80">
    <path clip-path="url(#p588acfeb83)" d="M 496.439224 768.96 
L 498.603879 768.96 
L 498.603879 574.216166 
L 496.439224 574.216166 
z
" style="fill:#1f77b4;"/>
   </g>
   <g id="patch_81">
    <path clip-path="url(#p588acfeb83)" d="M 500.768534 768.96 
L 502.93319 768.96 
L 502.93319 570.913742 
L 500.768534 570.913742 
z
" style="fill:#1f77b4;"/>
   </g>
   <g id="patch_82">
    <path clip-path="url(#p588acfeb83)" d="M 505.097845 768.96 
L 507.2625 768.96 
L 507.2625 567.478385 
L 505.097845 567.478385 
z
" style="fill:#1f77b4;"/>
   </g>
   <g id="patch_83">
    <path clip-path="url(#p588acfeb83)" d="M 509.427155 768.96 
L 511.59181 768.96 
L 511.59181 562.970286 
L 509.427155 562.970286 
z
" style="fill:#1f77b4;"/>
   </g>
   <g id="patch_84">
    <path clip-path="url(#p588acfeb83)" d="M 513.756466 768.96 
L 515.921121 768.96 
L 515.921121 557.342832 
L 513.756466 557.342832 
z
" style="fill:#1f77b4;"/>
   </g>
   <g id="patch_85">
    <path clip-path="url(#p588acfeb83)" d="M 518.085776 768.96 
L 520.250431 768.96 
L 520.250431 552.522821 
L 518.085776 552.522821 
z
" style="fill:#1f77b4;"/>
   </g>
   <g id="patch_86">
    <path clip-path="url(#p588acfeb83)" d="M 522.415086 768.96 
L 524.579741 768.96 
L 524.579741 550.602794 
L 522.415086 550.602794 
z
" style="fill:#1f77b4;"/>
   </g>
   <g id="patch_87">
    <path clip-path="url(#p588acfeb83)" d="M 526.744397 768.96 
L 528.909052 768.96 
L 528.909052 547.700554 
L 526.744397 547.700554 
z
" style="fill:#1f77b4;"/>
   </g>
   <g id="patch_88">
    <path clip-path="url(#p588acfeb83)" d="M 531.073707 768.96 
L 533.238362 768.96 
L 533.238362 542.413958 
L 531.073707 542.413958 
z
" style="fill:#1f77b4;"/>
   </g>
   <g id="patch_89">
    <path clip-path="url(#p588acfeb83)" d="M 535.403017 768.96 
L 537.567672 768.96 
L 537.567672 537.951081 
L 535.403017 537.951081 
z
" style="fill:#1f77b4;"/>
   </g>
   <g id="patch_90">
    <path clip-path="url(#p588acfeb83)" d="M 539.732328 768.96 
L 541.896983 768.96 
L 541.896983 531.754489 
L 539.732328 531.754489 
z
" style="fill:#1f77b4;"/>
   </g>
   <g id="patch_91">
    <path clip-path="url(#p588acfeb83)" d="M 544.061638 768.96 
L 546.226293 768.96 
L 546.226293 525.471098 
L 544.061638 525.471098 
z
" style="fill:#1f77b4;"/>
   </g>
   <g id="patch_92">
    <path clip-path="url(#p588acfeb83)" d="M 548.390948 768.96 
L 550.555603 768.96 
L 550.555603 520.686718 
L 548.390948 520.686718 
z
" style="fill:#1f77b4;"/>
   </g>
   <g id="patch_93">
    <path clip-path="url(#p588acfeb83)" d="M 552.720259 768.96 
L 554.884914 768.96 
L 554.884914 519.349674 
L 552.720259 519.349674 
z
" style="fill:#1f77b4;"/>
   </g>
   <g id="patch_94">
    <path clip-path="url(#p588acfeb83)" d="M 557.049569 768.96 
L 559.214224 768.96 
L 559.214224 514.846695 
L 557.049569 514.846695 
z
" style="fill:#1f77b4;"/>
   </g>
   <g id="patch_95">
    <path clip-path="url(#p588acfeb83)" d="M 561.378879 768.96 
L 563.543534 768.96 
L 563.543534 507.835716 
L 561.378879 507.835716 
z
" style="fill:#1f77b4;"/>
   </g>
   <g id="patch_96">
    <path clip-path="url(#p588acfeb83)" d="M 565.70819 768.96 
L 567.872845 768.96 
L 567.872845 500.013387 
L 565.70819 500.013387 
z
" style="fill:#1f77b4;"/>
   </g>
   <g id="patch_97">
    <path clip-path="url(#p588acfeb83)" d="M 570.0375 768.96 
L 572.202155 768.96 
L 572.202155 490.842425 
L 570.0375 490.842425 
z
" style="fill:#1f77b4;"/>
   </g>
   <g id="patch_98">
    <path clip-path="url(#p588acfeb83)" d="M 574.36681 768.96 
L 576.531466 768.96 
L 576.531466 480.001634 
L 574.36681 480.001634 
z
" style="fill:#1f77b4;"/>
   </g>
   <g id="patch_99">
    <path clip-path="url(#p588acfeb83)" d="M 578.696121 768.96 
L 580.860776 768.96 
L 580.860776 472.815451 
L 578.696121 472.815451 
z
" style="fill:#1f77b4;"/>
   </g>
   <g id="patch_100">
    <path clip-path="url(#p588acfeb83)" d="M 583.025431 768.96 
L 585.190086 768.96 
L 585.190086 469.25376 
L 583.025431 469.25376 
z
" style="fill:#1f77b4;"/>
   </g>
   <g id="patch_101">
    <path clip-path="url(#p588acfeb83)" d="M 587.354741 768.96 
L 589.519397 768.96 
L 589.519397 463.243784 
L 587.354741 463.243784 
z
" style="fill:#1f77b4;"/>
   </g>
   <g id="patch_102">
    <path clip-path="url(#p588acfeb83)" d="M 591.684052 768.96 
L 593.848707 768.96 
L 593.848707 455.825329 
L 591.684052 455.825329 
z
" style="fill:#1f77b4;"/>
   </g>
   <g id="patch_103">
    <path clip-path="url(#p588acfeb83)" d="M 596.013362 768.96 
L 598.178017 768.96 
L 598.178017 449.456355 
L 596.013362 449.456355 
z
" style="fill:#1f77b4;"/>
   </g>
   <g id="patch_104">
    <path clip-path="url(#p588acfeb83)" d="M 600.342672 768.96 
L 602.507328 768.96 
L 602.507328 440.849107 
L 600.342672 440.849107 
z
" style="fill:#1f77b4;"/>
   </g>
   <g id="patch_105">
    <path clip-path="url(#p588acfeb83)" d="M 604.671983 768.96 
L 606.836638 768.96 
L 606.836638 432.468447 
L 604.671983 432.468447 
z
" style="fill:#1f77b4;"/>
   </g>
   <g id="patch_106">
    <path clip-path="url(#p588acfeb83)" d="M 609.001293 768.96 
L 611.165948 768.96 
L 611.165948 426.643873 
L 609.001293 426.643873 
z
" style="fill:#1f77b4;"/>
   </g>
   <g id="patch_107">
    <path clip-path="url(#p588acfeb83)" d="M 613.330603 768.96 
L 615.495259 768.96 
L 615.495259 423.277174 
L 613.330603 423.277174 
z
" style="fill:#1f77b4;"/>
   </g>
   <g id="patch_108">
    <path clip-path="url(#p588acfeb83)" d="M 617.659914 768.96 
L 619.824569 768.96 
L 619.824569 418.458119 
L 617.659914 418.458119 
z
" style="fill:#1f77b4;"/>
   </g>
   <g id="patch_109">
    <path clip-path="url(#p588acfeb83)" d="M 621.989224 768.96 
L 624.153879 768.96 
L 624.153879 410.744809 
L 621.989224 410.744809 
z
" style="fill:#1f77b4;"/>
   </g>
   <g id="patch_110">
    <path clip-path="url(#p588acfeb83)" d="M 626.318534 768.96 
L 628.48319 768.96 
L 628.48319 403.86368 
L 626.318534 403.86368 
z
" style="fill:#1f77b4;"/>
   </g>
   <g id="patch_111">
    <path clip-path="url(#p588acfeb83)" d="M 630.647845 768.96 
L 632.8125 768.96 
L 632.8125 396.577376 
L 630.647845 396.577376 
z
" style="fill:#1f77b4;"/>
   </g>
   <g id="patch_112">
    <path clip-path="url(#p588acfeb83)" d="M 634.977155 768.96 
L 637.14181 768.96 
L 637.14181 389.848882 
L 634.977155 389.848882 
z
" style="fill:#1f77b4;"/>
   </g>
   <g id="patch_113">
    <path clip-path="url(#p588acfeb83)" d="M 639.306466 768.96 
L 641.471121 768.96 
L 641.471121 385.373462 
L 639.306466 385.373462 
z
" style="fill:#1f77b4;"/>
   </g>
   <g id="patch_114">
    <path clip-path="url(#p588acfeb83)" d="M 643.635776 768.96 
L 645.800431 768.96 
L 645.800431 383.445102 
L 643.635776 383.445102 
z
" style="fill:#1f77b4;"/>
   </g>
   <g id="patch_115">
    <path clip-path="url(#p588acfeb83)" d="M 647.965086 768.96 
L 650.129741 768.96 
L 650.129741 379.307849 
L 647.965086 379.307849 
z
" style="fill:#1f77b4;"/>
   </g>
   <g id="patch_116">
    <path clip-path="url(#p588acfeb83)" d="M 652.294397 768.96 
L 654.459052 768.96 
L 654.459052 373.458582 
L 652.294397 373.458582 
z
" style="fill:#1f77b4;"/>
   </g>
   <g id="patch_117">
    <path clip-path="url(#p588acfeb83)" d="M 656.623707 768.96 
L 658.788362 768.96 
L 658.788362 367.317801 
L 656.623707 367.317801 
z
" style="fill:#1f77b4;"/>
   </g>
   <g id="patch_118">
    <path clip-path="url(#p588acfeb83)" d="M 660.953017 768.96 
L 663.117672 768.96 
L 663.117672 361.34311 
L 660.953017 361.34311 
z
" style="fill:#1f77b4;"/>
   </g>
   <g id="patch_119">
    <path clip-path="url(#p588acfeb83)" d="M 665.282328 768.96 
L 667.446983 768.96 
L 667.446983 356.313481 
L 665.282328 356.313481 
z
" style="fill:#1f77b4;"/>
   </g>
   <g id="patch_120">
    <path clip-path="url(#p588acfeb83)" d="M 669.611638 768.96 
L 671.776293 768.96 
L 671.776293 354.056545 
L 669.611638 354.056545 
z
" style="fill:#1f77b4;"/>
   </g>
   <g id="patch_121">
    <path clip-path="url(#p588acfeb83)" d="M 673.940948 768.96 
L 676.105603 768.96 
L 676.105603 353.276486 
L 673.940948 353.276486 
z
" style="fill:#1f77b4;"/>
   </g>
   <g id="patch_122">
    <path clip-path="url(#p588acfeb83)" d="M 678.270259 768.96 
L 680.434914 768.96 
L 680.434914 350.857541 
L 678.270259 350.857541 
z
" style="fill:#1f77b4;"/>
   </g>
   <g id="patch_123">
    <path clip-path="url(#p588acfeb83)" d="M 682.599569 768.96 
L 684.764224 768.96 
L 684.764224 344.454238 
L 682.599569 344.454238 
z
" style="fill:#1f77b4;"/>
   </g>
   <g id="patch_124">
    <path clip-path="url(#p588acfeb83)" d="M 686.928879 768.96 
L 689.093534 768.96 
L 689.093534 338.247013 
L 686.928879 338.247013 
z
" style="fill:#1f77b4;"/>
   </g>
   <g id="patch_125">
    <path clip-path="url(#p588acfeb83)" d="M 691.25819 768.96 
L 693.422845 768.96 
L 693.422845 333.557114 
L 691.25819 333.557114 
z
" style="fill:#1f77b4;"/>
   </g>
   <g id="patch_126">
    <path clip-path="url(#p588acfeb83)" d="M 695.5875 768.96 
L 697.752155 768.96 
L 697.752155 326.693822 
L 695.5875 326.693822 
z
" style="fill:#1f77b4;"/>
   </g>
   <g id="patch_127">
    <path clip-path="url(#p588acfeb83)" d="M 699.91681 768.96 
L 702.081466 768.96 
L 702.081466 322.072451 
L 699.91681 322.072451 
z
" style="fill:#1f77b4;"/>
   </g>
   <g id="patch_128">
    <path clip-path="url(#p588acfeb83)" d="M 704.246121 768.96 
L 706.410776 768.96 
L 706.410776 317.958373 
L 704.246121 317.958373 
z
" style="fill:#1f77b4;"/>
   </g>
   <g id="patch_129">
    <path clip-path="url(#p588acfeb83)" d="M 708.575431 768.96 
L 710.740086 768.96 
L 710.740086 314.403451 
L 708.575431 314.403451 
z
" style="fill:#1f77b4;"/>
   </g>
   <g id="patch_130">
    <path clip-path="url(#p588acfeb83)" d="M 712.904741 768.96 
L 715.069397 768.96 
L 715.069397 309.620547 
L 712.904741 309.620547 
z
" style="fill:#1f77b4;"/>
   </g>
   <g id="patch_131">
    <path clip-path="url(#p588acfeb83)" d="M 717.234052 768.96 
L 719.398707 768.96 
L 719.398707 305.282877 
L 717.234052 305.282877 
z
" style="fill:#1f77b4;"/>
   </g>
   <g id="patch_132">
    <path clip-path="url(#p588acfeb83)" d="M 721.563362 768.96 
L 723.728017 768.96 
L 723.728017 300.818914 
L 721.563362 300.818914 
z
" style="fill:#1f77b4;"/>
   </g>
   <g id="patch_133">
    <path clip-path="url(#p588acfeb83)" d="M 725.892672 768.96 
L 728.057328 768.96 
L 728.057328 294.32929 
L 725.892672 294.32929 
z
" style="fill:#1f77b4;"/>
   </g>
   <g id="patch_134">
    <path clip-path="url(#p588acfeb83)" d="M 730.221983 768.96 
L 732.386638 768.96 
L 732.386638 290.769204 
L 730.221983 290.769204 
z
" style="fill:#1f77b4;"/>
   </g>
   <g id="patch_135">
    <path clip-path="url(#p588acfeb83)" d="M 734.551293 768.96 
L 736.715948 768.96 
L 736.715948 289.305043 
L 734.551293 289.305043 
z
" style="fill:#1f77b4;"/>
   </g>
   <g id="patch_136">
    <path clip-path="url(#p588acfeb83)" d="M 738.880603 768.96 
L 741.045259 768.96 
L 741.045259 286.801078 
L 738.880603 286.801078 
z
" style="fill:#1f77b4;"/>
   </g>
   <g id="patch_137">
    <path clip-path="url(#p588acfeb83)" d="M 743.209914 768.96 
L 745.374569 768.96 
L 745.374569 282.160307 
L 743.209914 282.160307 
z
" style="fill:#1f77b4;"/>
   </g>
   <g id="patch_138">
    <path clip-path="url(#p588acfeb83)" d="M 747.539224 768.96 
L 749.703879 768.96 
L 749.703879 278.014678 
L 747.539224 278.014678 
z
" style="fill:#1f77b4;"/>
   </g>
   <g id="patch_139">
    <path clip-path="url(#p588acfeb83)" d="M 751.868534 768.96 
L 754.03319 768.96 
L 754.03319 272.141063 
L 751.868534 272.141063 
z
" style="fill:#1f77b4;"/>
   </g>
   <g id="patch_140">
    <path clip-path="url(#p588acfeb83)" d="M 756.197845 768.96 
L 758.3625 768.96 
L 758.3625 268.288943 
L 756.197845 268.288943 
z
" style="fill:#1f77b4;"/>
   </g>
   <g id="patch_141">
    <path clip-path="url(#p588acfeb83)" d="M 760.527155 768.96 
L 762.69181 768.96 
L 762.69181 265.269873 
L 760.527155 265.269873 
z
" style="fill:#1f77b4;"/>
   </g>
   <g id="patch_142">
    <path clip-path="url(#p588acfeb83)" d="M 764.856466 768.96 
L 767.021121 768.96 
L 767.021121 263.87719 
L 764.856466 263.87719 
z
" style="fill:#1f77b4;"/>
   </g>
   <g id="patch_143">
    <path clip-path="url(#p588acfeb83)" d="M 769.185776 768.96 
L 771.350431 768.96 
L 771.350431 261.572862 
L 769.185776 261.572862 
z
" style="fill:#1f77b4;"/>
   </g>
   <g id="patch_144">
    <path clip-path="url(#p588acfeb83)" d="M 773.515086 768.96 
L 775.679741 768.96 
L 775.679741 258.720705 
L 773.515086 258.720705 
z
" style="fill:#1f77b4;"/>
   </g>
   <g id="patch_145">
    <path clip-path="url(#p588acfeb83)" d="M 777.844397 768.96 
L 780.009052 768.96 
L 780.009052 255.825713 
L 777.844397 255.825713 
z
" style="fill:#1f77b4;"/>
   </g>
   <g id="patch_146">
    <path clip-path="url(#p588acfeb83)" d="M 782.173707 768.96 
L 784.338362 768.96 
L 784.338362 252.800436 
L 782.173707 252.800436 
z
" style="fill:#1f77b4;"/>
   </g>
   <g id="patch_147">
    <path clip-path="url(#p588acfeb83)" d="M 786.503017 768.96 
L 788.667672 768.96 
L 788.667672 250.038897 
L 786.503017 250.038897 
z
" style="fill:#1f77b4;"/>
   </g>
   <g id="patch_148">
    <path clip-path="url(#p588acfeb83)" d="M 790.832328 768.96 
L 792.996983 768.96 
L 792.996983 248.152851 
L 790.832328 248.152851 
z
" style="fill:#1f77b4;"/>
   </g>
   <g id="patch_149">
    <path clip-path="url(#p588acfeb83)" d="M 795.161638 768.96 
L 797.326293 768.96 
L 797.326293 247.104629 
L 795.161638 247.104629 
z
" style="fill:#1f77b4;"/>
   </g>
   <g id="patch_150">
    <path clip-path="url(#p588acfeb83)" d="M 799.490948 768.96 
L 801.655603 768.96 
L 801.655603 246.328042 
L 799.490948 246.328042 
z
" style="fill:#1f77b4;"/>
   </g>
   <g id="patch_151">
    <path clip-path="url(#p588acfeb83)" d="M 803.820259 768.96 
L 805.984914 768.96 
L 805.984914 244.665155 
L 803.820259 244.665155 
z
" style="fill:#1f77b4;"/>
   </g>
   <g id="patch_152">
    <path clip-path="url(#p588acfeb83)" d="M 808.149569 768.96 
L 810.314224 768.96 
L 810.314224 242.907094 
L 808.149569 242.907094 
z
" style="fill:#1f77b4;"/>
   </g>
   <g id="patch_153">
    <path clip-path="url(#p588acfeb83)" d="M 812.478879 768.96 
L 814.643534 768.96 
L 814.643534 240.192686 
L 812.478879 240.192686 
z
" style="fill:#1f77b4;"/>
   </g>
   <g id="patch_154">
    <path clip-path="url(#p588acfeb83)" d="M 816.80819 768.96 
L 818.972845 768.96 
L 818.972845 237.445816 
L 816.80819 237.445816 
z
" style="fill:#1f77b4;"/>
   </g>
   <g id="patch_155">
    <path clip-path="url(#p588acfeb83)" d="M 821.1375 768.96 
L 823.302155 768.96 
L 823.302155 235.117184 
L 821.1375 235.117184 
z
" style="fill:#1f77b4;"/>
   </g>
   <g id="patch_156">
    <path clip-path="url(#p588acfeb83)" d="M 825.46681 768.96 
L 827.631466 768.96 
L 827.631466 233.520482 
L 825.46681 233.520482 
z
" style="fill:#1f77b4;"/>
   </g>
   <g id="patch_157">
    <path clip-path="url(#p588acfeb83)" d="M 829.796121 768.96 
L 831.960776 768.96 
L 831.960776 231.353426 
L 829.796121 231.353426 
z
" style="fill:#1f77b4;"/>
   </g>
   <g id="patch_158">
    <path clip-path="url(#p588acfeb83)" d="M 834.125431 768.96 
L 836.290086 768.96 
L 836.290086 228.834315 
L 834.125431 228.834315 
z
" style="fill:#1f77b4;"/>
   </g>
   <g id="patch_159">
    <path clip-path="url(#p588acfeb83)" d="M 838.454741 768.96 
L 840.619397 768.96 
L 840.619397 225.691252 
L 838.454741 225.691252 
z
" style="fill:#1f77b4;"/>
   </g>
   <g id="patch_160">
    <path clip-path="url(#p588acfeb83)" d="M 842.784052 768.96 
L 844.948707 768.96 
L 844.948707 223.55922 
L 842.784052 223.55922 
z
" style="fill:#1f77b4;"/>
   </g>
   <g id="patch_161">
    <path clip-path="url(#p588acfeb83)" d="M 847.113362 768.96 
L 849.278017 768.96 
L 849.278017 221.550614 
L 847.113362 221.550614 
z
" style="fill:#1f77b4;"/>
   </g>
   <g id="patch_162">
    <path clip-path="url(#p588acfeb83)" d="M 851.442672 768.96 
L 853.607328 768.96 
L 853.607328 220.363167 
L 851.442672 220.363167 
z
" style="fill:#1f77b4;"/>
   </g>
   <g id="patch_163">
    <path clip-path="url(#p588acfeb83)" d="M 855.771983 768.96 
L 857.936638 768.96 
L 857.936638 219.193643 
L 855.771983 219.193643 
z
" style="fill:#1f77b4;"/>
   </g>
   <g id="patch_164">
    <path clip-path="url(#p588acfeb83)" d="M 860.101293 768.96 
L 862.265948 768.96 
L 862.265948 215.677651 
L 860.101293 215.677651 
z
" style="fill:#1f77b4;"/>
   </g>
   <g id="patch_165">
    <path clip-path="url(#p588acfeb83)" d="M 864.430603 768.96 
L 866.595259 768.96 
L 866.595259 212.916545 
L 864.430603 212.916545 
z
" style="fill:#1f77b4;"/>
   </g>
   <g id="patch_166">
    <path clip-path="url(#p588acfeb83)" d="M 868.759914 768.96 
L 870.924569 768.96 
L 870.924569 211.009928 
L 868.759914 211.009928 
z
" style="fill:#1f77b4;"/>
   </g>
   <g id="patch_167">
    <path clip-path="url(#p588acfeb83)" d="M 873.089224 768.96 
L 875.253879 768.96 
L 875.253879 208.477016 
L 873.089224 208.477016 
z
" style="fill:#1f77b4;"/>
   </g>
   <g id="patch_168">
    <path clip-path="url(#p588acfeb83)" d="M 877.418534 768.96 
L 879.58319 768.96 
L 879.58319 207.286357 
L 877.418534 207.286357 
z
" style="fill:#1f77b4;"/>
   </g>
   <g id="patch_169">
    <path clip-path="url(#p588acfeb83)" d="M 881.747845 768.96 
L 883.9125 768.96 
L 883.9125 205.401874 
L 881.747845 205.401874 
z
" style="fill:#1f77b4;"/>
   </g>
   <g id="patch_170">
    <path clip-path="url(#p588acfeb83)" d="M 886.077155 768.96 
L 888.24181 768.96 
L 888.24181 204.605324 
L 886.077155 204.605324 
z
" style="fill:#1f77b4;"/>
   </g>
   <g id="patch_171">
    <path clip-path="url(#p588acfeb83)" d="M 890.406466 768.96 
L 892.571121 768.96 
L 892.571121 203.58084 
L 890.406466 203.58084 
z
" style="fill:#1f77b4;"/>
   </g>
   <g id="patch_172">
    <path clip-path="url(#p588acfeb83)" d="M 894.735776 768.96 
L 896.900431 768.96 
L 896.900431 202.336713 
L 894.735776 202.336713 
z
" style="fill:#1f77b4;"/>
   </g>
   <g id="patch_173">
    <path clip-path="url(#p588acfeb83)" d="M 899.065086 768.96 
L 901.229741 768.96 
L 901.229741 200.866606 
L 899.065086 200.866606 
z
" style="fill:#1f77b4;"/>
   </g>
   <g id="patch_174">
    <path clip-path="url(#p588acfeb83)" d="M 903.394397 768.96 
L 905.559052 768.96 
L 905.559052 199.049956 
L 903.394397 199.049956 
z
" style="fill:#1f77b4;"/>
   </g>
   <g id="patch_175">
    <path clip-path="url(#p588acfeb83)" d="M 907.723707 768.96 
L 909.888362 768.96 
L 909.888362 194.693971 
L 907.723707 194.693971 
z
" style="fill:#1f77b4;"/>
   </g>
   <g id="patch_176">
    <path clip-path="url(#p588acfeb83)" d="M 912.053017 768.96 
L 914.217672 768.96 
L 914.217672 189.68079 
L 912.053017 189.68079 
z
" style="fill:#1f77b4;"/>
   </g>
   <g id="patch_177">
    <path clip-path="url(#p588acfeb83)" d="M 916.382328 768.96 
L 918.546983 768.96 
L 918.546983 189.284511 
L 916.382328 189.284511 
z
" style="fill:#1f77b4;"/>
   </g>
   <g id="patch_178">
    <path clip-path="url(#p588acfeb83)" d="M 920.711638 768.96 
L 922.876293 768.96 
L 922.876293 188.264368 
L 920.711638 188.264368 
z
" style="fill:#1f77b4;"/>
   </g>
   <g id="patch_179">
    <path clip-path="url(#p588acfeb83)" d="M 925.040948 768.96 
L 927.205603 768.96 
L 927.205603 186.99789 
L 925.040948 186.99789 
z
" style="fill:#1f77b4;"/>
   </g>
   <g id="patch_180">
    <path clip-path="url(#p588acfeb83)" d="M 929.370259 768.96 
L 931.534914 768.96 
L 931.534914 185.77325 
L 929.370259 185.77325 
z
" style="fill:#1f77b4;"/>
   </g>
   <g id="patch_181">
    <path clip-path="url(#p588acfeb83)" d="M 933.699569 768.96 
L 935.864224 768.96 
L 935.864224 184.663009 
L 933.699569 184.663009 
z
" style="fill:#1f77b4;"/>
   </g>
   <g id="patch_182">
    <path clip-path="url(#p588acfeb83)" d="M 938.028879 768.96 
L 940.193534 768.96 
L 940.193534 183.552682 
L 938.028879 183.552682 
z
" style="fill:#1f77b4;"/>
   </g>
   <g id="patch_183">
    <path clip-path="url(#p588acfeb83)" d="M 942.35819 768.96 
L 944.522845 768.96 
L 944.522845 182.738034 
L 942.35819 182.738034 
z
" style="fill:#1f77b4;"/>
   </g>
   <g id="patch_184">
    <path clip-path="url(#p588acfeb83)" d="M 946.6875 768.96 
L 948.852155 768.96 
L 948.852155 182.337763 
L 946.6875 182.337763 
z
" style="fill:#1f77b4;"/>
   </g>
   <g id="patch_185">
    <path clip-path="url(#p588acfeb83)" d="M 951.01681 768.96 
L 953.181466 768.96 
L 953.181466 182.26585 
L 951.01681 182.26585 
z
" style="fill:#1f77b4;"/>
   </g>
   <g id="patch_186">
    <path clip-path="url(#p588acfeb83)" d="M 955.346121 768.96 
L 957.510776 768.96 
L 957.510776 181.627751 
L 955.346121 181.627751 
z
" style="fill:#1f77b4;"/>
   </g>
   <g id="patch_187">
    <path clip-path="url(#p588acfeb83)" d="M 959.675431 768.96 
L 961.840086 768.96 
L 961.840086 180.480925 
L 959.675431 180.480925 
z
" style="fill:#1f77b4;"/>
   </g>
   <g id="patch_188">
    <path clip-path="url(#p588acfeb83)" d="M 964.004741 768.96 
L 966.169397 768.96 
L 966.169397 179.326678 
L 964.004741 179.326678 
z
" style="fill:#1f77b4;"/>
   </g>
   <g id="patch_189">
    <path clip-path="url(#p588acfeb83)" d="M 968.334052 768.96 
L 970.498707 768.96 
L 970.498707 178.302498 
L 968.334052 178.302498 
z
" style="fill:#1f77b4;"/>
   </g>
   <g id="patch_190">
    <path clip-path="url(#p588acfeb83)" d="M 972.663362 768.96 
L 974.828017 768.96 
L 974.828017 177.458079 
L 972.663362 177.458079 
z
" style="fill:#1f77b4;"/>
   </g>
   <g id="patch_191">
    <path clip-path="url(#p588acfeb83)" d="M 976.992672 768.96 
L 979.157328 768.96 
L 979.157328 176.884991 
L 976.992672 176.884991 
z
" style="fill:#1f77b4;"/>
   </g>
   <g id="patch_192">
    <path clip-path="url(#p588acfeb83)" d="M 981.321983 768.96 
L 983.486638 768.96 
L 983.486638 175.805608 
L 981.321983 175.805608 
z
" style="fill:#1f77b4;"/>
   </g>
   <g id="patch_193">
    <path clip-path="url(#p588acfeb83)" d="M 985.651293 768.96 
L 987.815948 768.96 
L 987.815948 174.89878 
L 985.651293 174.89878 
z
" style="fill:#1f77b4;"/>
   </g>
   <g id="patch_194">
    <path clip-path="url(#p588acfeb83)" d="M 989.980603 768.96 
L 992.145259 768.96 
L 992.145259 174.037 
L 989.980603 174.037 
z
" style="fill:#1f77b4;"/>
   </g>
   <g id="patch_195">
    <path clip-path="url(#p588acfeb83)" d="M 994.309914 768.96 
L 996.474569 768.96 
L 996.474569 173.185941 
L 994.309914 173.185941 
z
" style="fill:#1f77b4;"/>
   </g>
   <g id="patch_196">
    <path clip-path="url(#p588acfeb83)" d="M 998.639224 768.96 
L 1000.803879 768.96 
L 1000.803879 172.324508 
L 998.639224 172.324508 
z
" style="fill:#1f77b4;"/>
   </g>
   <g id="patch_197">
    <path clip-path="url(#p588acfeb83)" d="M 1002.968534 768.96 
L 1005.13319 768.96 
L 1005.13319 171.614887 
L 1002.968534 171.614887 
z
" style="fill:#1f77b4;"/>
   </g>
   <g id="patch_198">
    <path clip-path="url(#p588acfeb83)" d="M 1007.297845 768.96 
L 1009.4625 768.96 
L 1009.4625 171.130638 
L 1007.297845 171.130638 
z
" style="fill:#1f77b4;"/>
   </g>
   <g id="patch_199">
    <path clip-path="url(#p588acfeb83)" d="M 1011.627155 768.96 
L 1013.79181 768.96 
L 1013.79181 170.403092 
L 1011.627155 170.403092 
z
" style="fill:#1f77b4;"/>
   </g>
   <g id="patch_200">
    <path clip-path="url(#p588acfeb83)" d="M 1015.956466 768.96 
L 1018.121121 768.96 
L 1018.121121 169.426739 
L 1015.956466 169.426739 
z
" style="fill:#1f77b4;"/>
   </g>
   <g id="patch_201">
    <path clip-path="url(#p588acfeb83)" d="M 1020.285776 768.96 
L 1022.450431 768.96 
L 1022.450431 168.515701 
L 1020.285776 168.515701 
z
" style="fill:#1f77b4;"/>
   </g>
   <g id="patch_202">
    <path clip-path="url(#p588acfeb83)" d="M 1024.615086 768.96 
L 1026.779741 768.96 
L 1026.779741 167.850217 
L 1024.615086 167.850217 
z
" style="fill:#1f77b4;"/>
   </g>
   <g id="patch_203">
    <path clip-path="url(#p588acfeb83)" d="M 1028.944397 768.96 
L 1031.109052 768.96 
L 1031.109052 167.160819 
L 1028.944397 167.160819 
z
" style="fill:#1f77b4;"/>
   </g>
   <g id="patch_204">
    <path clip-path="url(#p588acfeb83)" d="M 1033.273707 768.96 
L 1035.438362 768.96 
L 1035.438362 166.739542 
L 1033.273707 166.739542 
z
" style="fill:#1f77b4;"/>
   </g>
   <g id="patch_205">
    <path clip-path="url(#p588acfeb83)" d="M 1037.603017 768.96 
L 1039.767672 768.96 
L 1039.767672 166.496507 
L 1037.603017 166.496507 
z
" style="fill:#1f77b4;"/>
   </g>
   <g id="patch_206">
    <path clip-path="url(#p588acfeb83)" d="M 1041.932328 768.96 
L 1044.096983 768.96 
L 1044.096983 166.0843 
L 1041.932328 166.0843 
z
" style="fill:#1f77b4;"/>
   </g>
   <g id="patch_207">
    <path clip-path="url(#p588acfeb83)" d="M 1046.261638 768.96 
L 1048.426293 768.96 
L 1048.426293 165.163411 
L 1046.261638 165.163411 
z
" style="fill:#1f77b4;"/>
   </g>
   <g id="patch_208">
    <path clip-path="url(#p588acfeb83)" d="M 1050.590948 768.96 
L 1052.755603 768.96 
L 1052.755603 163.626165 
L 1050.590948 163.626165 
z
" style="fill:#1f77b4;"/>
   </g>
   <g id="patch_209">
    <path clip-path="url(#p588acfeb83)" d="M 1054.920259 768.96 
L 1057.084914 768.96 
L 1057.084914 162.808436 
L 1054.920259 162.808436 
z
" style="fill:#1f77b4;"/>
   </g>
   <g id="patch_210">
    <path clip-path="url(#p588acfeb83)" d="M 1059.249569 768.96 
L 1061.414224 768.96 
L 1061.414224 160.777524 
L 1059.249569 160.777524 
z
" style="fill:#1f77b4;"/>
   </g>
   <g id="patch_211">
    <path clip-path="url(#p588acfeb83)" d="M 1063.578879 768.96 
L 1065.743534 768.96 
L 1065.743534 160.145977 
L 1063.578879 160.145977 
z
" style="fill:#1f77b4;"/>
   </g>
   <g id="patch_212">
    <path clip-path="url(#p588acfeb83)" d="M 1067.90819 768.96 
L 1070.072845 768.96 
L 1070.072845 159.684773 
L 1067.90819 159.684773 
z
" style="fill:#1f77b4;"/>
   </g>
   <g id="patch_213">
    <path clip-path="url(#p588acfeb83)" d="M 1072.2375 768.96 
L 1074.402155 768.96 
L 1074.402155 159.056525 
L 1072.2375 159.056525 
z
" style="fill:#1f77b4;"/>
   </g>
   <g id="patch_214">
    <path clip-path="url(#p588acfeb83)" d="M 1076.56681 768.96 
L 1078.731466 768.96 
L 1078.731466 158.205162 
L 1076.56681 158.205162 
z
" style="fill:#1f77b4;"/>
   </g>
   <g id="patch_215">
    <path clip-path="url(#p588acfeb83)" d="M 1080.896121 768.96 
L 1083.060776 768.96 
L 1083.060776 157.424582 
L 1080.896121 157.424582 
z
" style="fill:#1f77b4;"/>
   </g>
   <g id="patch_216">
    <path clip-path="url(#p588acfeb83)" d="M 1085.225431 768.96 
L 1087.390086 768.96 
L 1087.390086 156.601341 
L 1085.225431 156.601341 
z
" style="fill:#1f77b4;"/>
   </g>
   <g id="patch_217">
    <path clip-path="url(#p588acfeb83)" d="M 1089.554741 768.96 
L 1091.719397 768.96 
L 1091.719397 155.702759 
L 1089.554741 155.702759 
z
" style="fill:#1f77b4;"/>
   </g>
   <g id="patch_218">
    <path clip-path="url(#p588acfeb83)" d="M 1093.884052 768.96 
L 1096.048707 768.96 
L 1096.048707 154.085616 
L 1093.884052 154.085616 
z
" style="fill:#1f77b4;"/>
   </g>
   <g id="patch_219">
    <path clip-path="url(#p588acfeb83)" d="M 1098.213362 768.96 
L 1100.378017 768.96 
L 1100.378017 153.565172 
L 1098.213362 153.565172 
z
" style="fill:#1f77b4;"/>
   </g>
   <g id="patch_220">
    <path clip-path="url(#p588acfeb83)" d="M 1102.542672 768.96 
L 1104.707328 768.96 
L 1104.707328 152.960055 
L 1102.542672 152.960055 
z
" style="fill:#1f77b4;"/>
   </g>
   <g id="patch_221">
    <path clip-path="url(#p588acfeb83)" d="M 1106.871983 768.96 
L 1109.036638 768.96 
L 1109.036638 152.370303 
L 1106.871983 152.370303 
z
" style="fill:#1f77b4;"/>
   </g>
   <g id="patch_222">
    <path clip-path="url(#p588acfeb83)" d="M 1111.201293 768.96 
L 1113.365948 768.96 
L 1113.365948 149.964985 
L 1111.201293 149.964985 
z
" style="fill:#1f77b4;"/>
   </g>
   <g id="patch_223">
    <path clip-path="url(#p588acfeb83)" d="M 1115.530603 768.96 
L 1117.695259 768.96 
L 1117.695259 147.876351 
L 1115.530603 147.876351 
z
" style="fill:#1f77b4;"/>
   </g>
   <g id="patch_224">
    <path clip-path="url(#p588acfeb83)" d="M 1119.859914 768.96 
L 1122.024569 768.96 
L 1122.024569 146.255952 
L 1119.859914 146.255952 
z
" style="fill:#1f77b4;"/>
   </g>
   <g id="patch_225">
    <path clip-path="url(#p588acfeb83)" d="M 1124.189224 768.96 
L 1126.353879 768.96 
L 1126.353879 143.839264 
L 1124.189224 143.839264 
z
" style="fill:#1f77b4;"/>
   </g>
   <g id="patch_226">
    <path clip-path="url(#p588acfeb83)" d="M 1128.518534 768.96 
L 1130.68319 768.96 
L 1130.68319 142.195863 
L 1128.518534 142.195863 
z
" style="fill:#1f77b4;"/>
   </g>
   <g id="patch_227">
    <path clip-path="url(#p588acfeb83)" d="M 1132.847845 768.96 
L 1135.0125 768.96 
L 1135.0125 141.477909 
L 1132.847845 141.477909 
z
" style="fill:#1f77b4;"/>
   </g>
   <g id="patch_228">
    <path clip-path="url(#p588acfeb83)" d="M 1137.177155 768.96 
L 1139.34181 768.96 
L 1139.34181 140.445874 
L 1137.177155 140.445874 
z
" style="fill:#1f77b4;"/>
   </g>
   <g id="patch_229">
    <path clip-path="url(#p588acfeb83)" d="M 1141.506466 768.96 
L 1143.671121 768.96 
L 1143.671121 139.471908 
L 1141.506466 139.471908 
z
" style="fill:#1f77b4;"/>
   </g>
   <g id="patch_230">
    <path clip-path="url(#p588acfeb83)" d="M 1145.835776 768.96 
L 1148.000431 768.96 
L 1148.000431 138.522635 
L 1145.835776 138.522635 
z
" style="fill:#1f77b4;"/>
   </g>
   <g id="patch_231">
    <path clip-path="url(#p588acfeb83)" d="M 1150.165086 768.96 
L 1152.329741 768.96 
L 1152.329741 137.607431 
L 1150.165086 137.607431 
z
" style="fill:#1f77b4;"/>
   </g>
   <g id="patch_232">
    <path clip-path="url(#p588acfeb83)" d="M 1154.494397 768.96 
L 1156.659052 768.96 
L 1156.659052 136.711757 
L 1154.494397 136.711757 
z
" style="fill:#1f77b4;"/>
   </g>
   <g id="patch_233">
    <path clip-path="url(#p588acfeb83)" d="M 1158.823707 768.96 
L 1160.988362 768.96 
L 1160.988362 136.120616 
L 1158.823707 136.120616 
z
" style="fill:#1f77b4;"/>
   </g>
   <g id="patch_234">
    <path clip-path="url(#p588acfeb83)" d="M 1163.153017 768.96 
L 1165.317672 768.96 
L 1165.317672 135.36 
L 1163.153017 135.36 
z
" style="fill:#1f77b4;"/>
   </g>
   <g id="matplotlib.axis_1">
    <g id="xtick_1">
     <g id="line2d_1">
      <defs>
       <path d="M 0 0 
L 0 3.5 
" id="ma13fa0127d" style="stroke:#000000;stroke-width:0.8;"/>
      </defs>
      <g>
       <use style="stroke:#000000;stroke-width:0.8;" x="164.164655" xlink:href="#ma13fa0127d" y="768.96"/>
      </g>
     </g>
     <g id="text_1">
      <!-- January -->
      <g transform="translate(145.209186 783.558437)scale(0.1 -0.1)">
       <defs>
        <path d="M 628 4666 
L 1259 4666 
L 1259 325 
Q 1259 -519 939 -900 
Q 619 -1281 -91 -1281 
L -331 -1281 
L -331 -750 
L -134 -750 
Q 284 -750 456 -515 
Q 628 -281 628 325 
L 628 4666 
z
" id="DejaVuSans-4a" transform="scale(0.015625)"/>
        <path d="M 2194 1759 
Q 1497 1759 1228 1600 
Q 959 1441 959 1056 
Q 959 750 1161 570 
Q 1363 391 1709 391 
Q 2188 391 2477 730 
Q 2766 1069 2766 1631 
L 2766 1759 
L 2194 1759 
z
M 3341 1997 
L 3341 0 
L 2766 0 
L 2766 531 
Q 2569 213 2275 61 
Q 1981 -91 1556 -91 
Q 1019 -91 701 211 
Q 384 513 384 1019 
Q 384 1609 779 1909 
Q 1175 2209 1959 2209 
L 2766 2209 
L 2766 2266 
Q 2766 2663 2505 2880 
Q 2244 3097 1772 3097 
Q 1472 3097 1187 3025 
Q 903 2953 641 2809 
L 641 3341 
Q 956 3463 1253 3523 
Q 1550 3584 1831 3584 
Q 2591 3584 2966 3190 
Q 3341 2797 3341 1997 
z
" id="DejaVuSans-61" transform="scale(0.015625)"/>
        <path d="M 3513 2113 
L 3513 0 
L 2938 0 
L 2938 2094 
Q 2938 2591 2744 2837 
Q 2550 3084 2163 3084 
Q 1697 3084 1428 2787 
Q 1159 2491 1159 1978 
L 1159 0 
L 581 0 
L 581 3500 
L 1159 3500 
L 1159 2956 
Q 1366 3272 1645 3428 
Q 1925 3584 2291 3584 
Q 2894 3584 3203 3211 
Q 3513 2838 3513 2113 
z
" id="DejaVuSans-6e" transform="scale(0.015625)"/>
        <path d="M 544 1381 
L 544 3500 
L 1119 3500 
L 1119 1403 
Q 1119 906 1312 657 
Q 1506 409 1894 409 
Q 2359 409 2629 706 
Q 2900 1003 2900 1516 
L 2900 3500 
L 3475 3500 
L 3475 0 
L 2900 0 
L 2900 538 
Q 2691 219 2414 64 
Q 2138 -91 1772 -91 
Q 1169 -91 856 284 
Q 544 659 544 1381 
z
M 1991 3584 
L 1991 3584 
z
" id="DejaVuSans-75" transform="scale(0.015625)"/>
        <path d="M 2631 2963 
Q 2534 3019 2420 3045 
Q 2306 3072 2169 3072 
Q 1681 3072 1420 2755 
Q 1159 2438 1159 1844 
L 1159 0 
L 581 0 
L 581 3500 
L 1159 3500 
L 1159 2956 
Q 1341 3275 1631 3429 
Q 1922 3584 2338 3584 
Q 2397 3584 2469 3576 
Q 2541 3569 2628 3553 
L 2631 2963 
z
" id="DejaVuSans-72" transform="scale(0.015625)"/>
        <path d="M 2059 -325 
Q 1816 -950 1584 -1140 
Q 1353 -1331 966 -1331 
L 506 -1331 
L 506 -850 
L 844 -850 
Q 1081 -850 1212 -737 
Q 1344 -625 1503 -206 
L 1606 56 
L 191 3500 
L 800 3500 
L 1894 763 
L 2988 3500 
L 3597 3500 
L 2059 -325 
z
" id="DejaVuSans-79" transform="scale(0.015625)"/>
       </defs>
       <use xlink:href="#DejaVuSans-4a"/>
       <use x="29.492188" xlink:href="#DejaVuSans-61"/>
       <use x="90.771484" xlink:href="#DejaVuSans-6e"/>
       <use x="154.150391" xlink:href="#DejaVuSans-75"/>
       <use x="217.529297" xlink:href="#DejaVuSans-61"/>
       <use x="278.808594" xlink:href="#DejaVuSans-72"/>
       <use x="319.921875" xlink:href="#DejaVuSans-79"/>
      </g>
     </g>
    </g>
    <g id="xtick_2">
     <g id="line2d_2">
      <g>
       <use style="stroke:#000000;stroke-width:0.8;" x="298.373276" xlink:href="#ma13fa0127d" y="768.96"/>
      </g>
     </g>
     <g id="text_2">
      <!-- February -->
      <g transform="translate(276.218588 783.558437)scale(0.1 -0.1)">
       <defs>
        <path d="M 628 4666 
L 3309 4666 
L 3309 4134 
L 1259 4134 
L 1259 2759 
L 3109 2759 
L 3109 2228 
L 1259 2228 
L 1259 0 
L 628 0 
L 628 4666 
z
" id="DejaVuSans-46" transform="scale(0.015625)"/>
        <path d="M 3597 1894 
L 3597 1613 
L 953 1613 
Q 991 1019 1311 708 
Q 1631 397 2203 397 
Q 2534 397 2845 478 
Q 3156 559 3463 722 
L 3463 178 
Q 3153 47 2828 -22 
Q 2503 -91 2169 -91 
Q 1331 -91 842 396 
Q 353 884 353 1716 
Q 353 2575 817 3079 
Q 1281 3584 2069 3584 
Q 2775 3584 3186 3129 
Q 3597 2675 3597 1894 
z
M 3022 2063 
Q 3016 2534 2758 2815 
Q 2500 3097 2075 3097 
Q 1594 3097 1305 2825 
Q 1016 2553 972 2059 
L 3022 2063 
z
" id="DejaVuSans-65" transform="scale(0.015625)"/>
        <path d="M 3116 1747 
Q 3116 2381 2855 2742 
Q 2594 3103 2138 3103 
Q 1681 3103 1420 2742 
Q 1159 2381 1159 1747 
Q 1159 1113 1420 752 
Q 1681 391 2138 391 
Q 2594 391 2855 752 
Q 3116 1113 3116 1747 
z
M 1159 2969 
Q 1341 3281 1617 3432 
Q 1894 3584 2278 3584 
Q 2916 3584 3314 3078 
Q 3713 2572 3713 1747 
Q 3713 922 3314 415 
Q 2916 -91 2278 -91 
Q 1894 -91 1617 61 
Q 1341 213 1159 525 
L 1159 0 
L 581 0 
L 581 4863 
L 1159 4863 
L 1159 2969 
z
" id="DejaVuSans-62" transform="scale(0.015625)"/>
       </defs>
       <use xlink:href="#DejaVuSans-46"/>
       <use x="52.019531" xlink:href="#DejaVuSans-65"/>
       <use x="113.542969" xlink:href="#DejaVuSans-62"/>
       <use x="177.019531" xlink:href="#DejaVuSans-72"/>
       <use x="218.132812" xlink:href="#DejaVuSans-75"/>
       <use x="281.511719" xlink:href="#DejaVuSans-61"/>
       <use x="342.791016" xlink:href="#DejaVuSans-72"/>
       <use x="383.904297" xlink:href="#DejaVuSans-79"/>
      </g>
     </g>
    </g>
    <g id="xtick_3">
     <g id="line2d_3">
      <g>
       <use style="stroke:#000000;stroke-width:0.8;" x="419.593966" xlink:href="#ma13fa0127d" y="768.96"/>
      </g>
     </g>
     <g id="text_3">
      <!-- March -->
      <g transform="translate(404.354903 783.558437)scale(0.1 -0.1)">
       <defs>
        <path d="M 628 4666 
L 1569 4666 
L 2759 1491 
L 3956 4666 
L 4897 4666 
L 4897 0 
L 4281 0 
L 4281 4097 
L 3078 897 
L 2444 897 
L 1241 4097 
L 1241 0 
L 628 0 
L 628 4666 
z
" id="DejaVuSans-4d" transform="scale(0.015625)"/>
        <path d="M 3122 3366 
L 3122 2828 
Q 2878 2963 2633 3030 
Q 2388 3097 2138 3097 
Q 1578 3097 1268 2742 
Q 959 2388 959 1747 
Q 959 1106 1268 751 
Q 1578 397 2138 397 
Q 2388 397 2633 464 
Q 2878 531 3122 666 
L 3122 134 
Q 2881 22 2623 -34 
Q 2366 -91 2075 -91 
Q 1284 -91 818 406 
Q 353 903 353 1747 
Q 353 2603 823 3093 
Q 1294 3584 2113 3584 
Q 2378 3584 2631 3529 
Q 2884 3475 3122 3366 
z
" id="DejaVuSans-63" transform="scale(0.015625)"/>
        <path d="M 3513 2113 
L 3513 0 
L 2938 0 
L 2938 2094 
Q 2938 2591 2744 2837 
Q 2550 3084 2163 3084 
Q 1697 3084 1428 2787 
Q 1159 2491 1159 1978 
L 1159 0 
L 581 0 
L 581 4863 
L 1159 4863 
L 1159 2956 
Q 1366 3272 1645 3428 
Q 1925 3584 2291 3584 
Q 2894 3584 3203 3211 
Q 3513 2838 3513 2113 
z
" id="DejaVuSans-68" transform="scale(0.015625)"/>
       </defs>
       <use xlink:href="#DejaVuSans-4d"/>
       <use x="86.279297" xlink:href="#DejaVuSans-61"/>
       <use x="147.558594" xlink:href="#DejaVuSans-72"/>
       <use x="186.421875" xlink:href="#DejaVuSans-63"/>
       <use x="241.402344" xlink:href="#DejaVuSans-68"/>
      </g>
     </g>
    </g>
    <g id="xtick_4">
     <g id="line2d_4">
      <g>
       <use style="stroke:#000000;stroke-width:0.8;" x="553.802586" xlink:href="#ma13fa0127d" y="768.96"/>
      </g>
     </g>
     <g id="text_4">
      <!-- April -->
      <g transform="translate(542.374461 783.558437)scale(0.1 -0.1)">
       <defs>
        <path d="M 2188 4044 
L 1331 1722 
L 3047 1722 
L 2188 4044 
z
M 1831 4666 
L 2547 4666 
L 4325 0 
L 3669 0 
L 3244 1197 
L 1141 1197 
L 716 0 
L 50 0 
L 1831 4666 
z
" id="DejaVuSans-41" transform="scale(0.015625)"/>
        <path d="M 1159 525 
L 1159 -1331 
L 581 -1331 
L 581 3500 
L 1159 3500 
L 1159 2969 
Q 1341 3281 1617 3432 
Q 1894 3584 2278 3584 
Q 2916 3584 3314 3078 
Q 3713 2572 3713 1747 
Q 3713 922 3314 415 
Q 2916 -91 2278 -91 
Q 1894 -91 1617 61 
Q 1341 213 1159 525 
z
M 3116 1747 
Q 3116 2381 2855 2742 
Q 2594 3103 2138 3103 
Q 1681 3103 1420 2742 
Q 1159 2381 1159 1747 
Q 1159 1113 1420 752 
Q 1681 391 2138 391 
Q 2594 391 2855 752 
Q 3116 1113 3116 1747 
z
" id="DejaVuSans-70" transform="scale(0.015625)"/>
        <path d="M 603 3500 
L 1178 3500 
L 1178 0 
L 603 0 
L 603 3500 
z
M 603 4863 
L 1178 4863 
L 1178 4134 
L 603 4134 
L 603 4863 
z
" id="DejaVuSans-69" transform="scale(0.015625)"/>
        <path d="M 603 4863 
L 1178 4863 
L 1178 0 
L 603 0 
L 603 4863 
z
" id="DejaVuSans-6c" transform="scale(0.015625)"/>
       </defs>
       <use xlink:href="#DejaVuSans-41"/>
       <use x="68.408203" xlink:href="#DejaVuSans-70"/>
       <use x="131.884766" xlink:href="#DejaVuSans-72"/>
       <use x="172.998047" xlink:href="#DejaVuSans-69"/>
       <use x="200.78125" xlink:href="#DejaVuSans-6c"/>
      </g>
     </g>
    </g>
    <g id="xtick_5">
     <g id="line2d_5">
      <g>
       <use style="stroke:#000000;stroke-width:0.8;" x="683.681897" xlink:href="#ma13fa0127d" y="768.96"/>
      </g>
     </g>
     <g id="text_5">
      <!-- May -->
      <g transform="translate(673.344397 783.558437)scale(0.1 -0.1)">
       <use xlink:href="#DejaVuSans-4d"/>
       <use x="86.279297" xlink:href="#DejaVuSans-61"/>
       <use x="147.558594" xlink:href="#DejaVuSans-79"/>
      </g>
     </g>
    </g>
    <g id="xtick_6">
     <g id="line2d_6">
      <g>
       <use style="stroke:#000000;stroke-width:0.8;" x="817.890517" xlink:href="#ma13fa0127d" y="768.96"/>
      </g>
     </g>
     <g id="text_6">
      <!-- June -->
      <g transform="translate(807.001455 783.558437)scale(0.1 -0.1)">
       <use xlink:href="#DejaVuSans-4a"/>
       <use x="29.492188" xlink:href="#DejaVuSans-75"/>
       <use x="92.871094" xlink:href="#DejaVuSans-6e"/>
       <use x="156.25" xlink:href="#DejaVuSans-65"/>
      </g>
     </g>
    </g>
    <g id="xtick_7">
     <g id="line2d_7">
      <g>
       <use style="stroke:#000000;stroke-width:0.8;" x="947.769828" xlink:href="#ma13fa0127d" y="768.96"/>
      </g>
     </g>
     <g id="text_7">
      <!-- July -->
      <g transform="translate(938.77764 783.558437)scale(0.1 -0.1)">
       <use xlink:href="#DejaVuSans-4a"/>
       <use x="29.492188" xlink:href="#DejaVuSans-75"/>
       <use x="92.871094" xlink:href="#DejaVuSans-6c"/>
       <use x="120.654297" xlink:href="#DejaVuSans-79"/>
      </g>
     </g>
    </g>
    <g id="xtick_8">
     <g id="line2d_8">
      <g>
       <use style="stroke:#000000;stroke-width:0.8;" x="1081.978448" xlink:href="#ma13fa0127d" y="768.96"/>
      </g>
     </g>
     <g id="text_8">
      <!-- August -->
      <g transform="translate(1064.481573 783.558437)scale(0.1 -0.1)">
       <defs>
        <path d="M 2906 1791 
Q 2906 2416 2648 2759 
Q 2391 3103 1925 3103 
Q 1463 3103 1205 2759 
Q 947 2416 947 1791 
Q 947 1169 1205 825 
Q 1463 481 1925 481 
Q 2391 481 2648 825 
Q 2906 1169 2906 1791 
z
M 3481 434 
Q 3481 -459 3084 -895 
Q 2688 -1331 1869 -1331 
Q 1566 -1331 1297 -1286 
Q 1028 -1241 775 -1147 
L 775 -588 
Q 1028 -725 1275 -790 
Q 1522 -856 1778 -856 
Q 2344 -856 2625 -561 
Q 2906 -266 2906 331 
L 2906 616 
Q 2728 306 2450 153 
Q 2172 0 1784 0 
Q 1141 0 747 490 
Q 353 981 353 1791 
Q 353 2603 747 3093 
Q 1141 3584 1784 3584 
Q 2172 3584 2450 3431 
Q 2728 3278 2906 2969 
L 2906 3500 
L 3481 3500 
L 3481 434 
z
" id="DejaVuSans-67" transform="scale(0.015625)"/>
        <path d="M 2834 3397 
L 2834 2853 
Q 2591 2978 2328 3040 
Q 2066 3103 1784 3103 
Q 1356 3103 1142 2972 
Q 928 2841 928 2578 
Q 928 2378 1081 2264 
Q 1234 2150 1697 2047 
L 1894 2003 
Q 2506 1872 2764 1633 
Q 3022 1394 3022 966 
Q 3022 478 2636 193 
Q 2250 -91 1575 -91 
Q 1294 -91 989 -36 
Q 684 19 347 128 
L 347 722 
Q 666 556 975 473 
Q 1284 391 1588 391 
Q 1994 391 2212 530 
Q 2431 669 2431 922 
Q 2431 1156 2273 1281 
Q 2116 1406 1581 1522 
L 1381 1569 
Q 847 1681 609 1914 
Q 372 2147 372 2553 
Q 372 3047 722 3315 
Q 1072 3584 1716 3584 
Q 2034 3584 2315 3537 
Q 2597 3491 2834 3397 
z
" id="DejaVuSans-73" transform="scale(0.015625)"/>
        <path d="M 1172 4494 
L 1172 3500 
L 2356 3500 
L 2356 3053 
L 1172 3053 
L 1172 1153 
Q 1172 725 1289 603 
Q 1406 481 1766 481 
L 2356 481 
L 2356 0 
L 1766 0 
Q 1100 0 847 248 
Q 594 497 594 1153 
L 594 3053 
L 172 3053 
L 172 3500 
L 594 3500 
L 594 4494 
L 1172 4494 
z
" id="DejaVuSans-74" transform="scale(0.015625)"/>
       </defs>
       <use xlink:href="#DejaVuSans-41"/>
       <use x="68.408203" xlink:href="#DejaVuSans-75"/>
       <use x="131.787109" xlink:href="#DejaVuSans-67"/>
       <use x="195.263672" xlink:href="#DejaVuSans-75"/>
       <use x="258.642578" xlink:href="#DejaVuSans-73"/>
       <use x="310.742188" xlink:href="#DejaVuSans-74"/>
      </g>
     </g>
    </g>
   </g>
   <g id="matplotlib.axis_2">
    <g id="ytick_1">
     <g id="line2d_9">
      <defs>
       <path d="M 0 0 
L -3.5 0 
" id="meae055d7e3" style="stroke:#000000;stroke-width:0.8;"/>
      </defs>
      <g>
       <use style="stroke:#000000;stroke-width:0.8;" x="162" xlink:href="#meae055d7e3" y="768.96"/>
      </g>
     </g>
     <g id="text_9">
      <!-- 0.0 -->
      <g transform="translate(139.096875 772.759219)scale(0.1 -0.1)">
       <defs>
        <path d="M 2034 4250 
Q 1547 4250 1301 3770 
Q 1056 3291 1056 2328 
Q 1056 1369 1301 889 
Q 1547 409 2034 409 
Q 2525 409 2770 889 
Q 3016 1369 3016 2328 
Q 3016 3291 2770 3770 
Q 2525 4250 2034 4250 
z
M 2034 4750 
Q 2819 4750 3233 4129 
Q 3647 3509 3647 2328 
Q 3647 1150 3233 529 
Q 2819 -91 2034 -91 
Q 1250 -91 836 529 
Q 422 1150 422 2328 
Q 422 3509 836 4129 
Q 1250 4750 2034 4750 
z
" id="DejaVuSans-30" transform="scale(0.015625)"/>
        <path d="M 684 794 
L 1344 794 
L 1344 0 
L 684 0 
L 684 794 
z
" id="DejaVuSans-2e" transform="scale(0.015625)"/>
       </defs>
       <use xlink:href="#DejaVuSans-30"/>
       <use x="63.623047" xlink:href="#DejaVuSans-2e"/>
       <use x="95.410156" xlink:href="#DejaVuSans-30"/>
      </g>
     </g>
    </g>
    <g id="ytick_2">
     <g id="line2d_10">
      <g>
       <use style="stroke:#000000;stroke-width:0.8;" x="162" xlink:href="#meae055d7e3" y="682.161449"/>
      </g>
     </g>
     <g id="text_10">
      <!-- 0.2 -->
      <g transform="translate(139.096875 685.960667)scale(0.1 -0.1)">
       <defs>
        <path d="M 1228 531 
L 3431 531 
L 3431 0 
L 469 0 
L 469 531 
Q 828 903 1448 1529 
Q 2069 2156 2228 2338 
Q 2531 2678 2651 2914 
Q 2772 3150 2772 3378 
Q 2772 3750 2511 3984 
Q 2250 4219 1831 4219 
Q 1534 4219 1204 4116 
Q 875 4013 500 3803 
L 500 4441 
Q 881 4594 1212 4672 
Q 1544 4750 1819 4750 
Q 2544 4750 2975 4387 
Q 3406 4025 3406 3419 
Q 3406 3131 3298 2873 
Q 3191 2616 2906 2266 
Q 2828 2175 2409 1742 
Q 1991 1309 1228 531 
z
" id="DejaVuSans-32" transform="scale(0.015625)"/>
       </defs>
       <use xlink:href="#DejaVuSans-30"/>
       <use x="63.623047" xlink:href="#DejaVuSans-2e"/>
       <use x="95.410156" xlink:href="#DejaVuSans-32"/>
      </g>
     </g>
    </g>
    <g id="ytick_3">
     <g id="line2d_11">
      <g>
       <use style="stroke:#000000;stroke-width:0.8;" x="162" xlink:href="#meae055d7e3" y="595.362897"/>
      </g>
     </g>
     <g id="text_11">
      <!-- 0.4 -->
      <g transform="translate(139.096875 599.162116)scale(0.1 -0.1)">
       <defs>
        <path d="M 2419 4116 
L 825 1625 
L 2419 1625 
L 2419 4116 
z
M 2253 4666 
L 3047 4666 
L 3047 1625 
L 3713 1625 
L 3713 1100 
L 3047 1100 
L 3047 0 
L 2419 0 
L 2419 1100 
L 313 1100 
L 313 1709 
L 2253 4666 
z
" id="DejaVuSans-34" transform="scale(0.015625)"/>
       </defs>
       <use xlink:href="#DejaVuSans-30"/>
       <use x="63.623047" xlink:href="#DejaVuSans-2e"/>
       <use x="95.410156" xlink:href="#DejaVuSans-34"/>
      </g>
     </g>
    </g>
    <g id="ytick_4">
     <g id="line2d_12">
      <g>
       <use style="stroke:#000000;stroke-width:0.8;" x="162" xlink:href="#meae055d7e3" y="508.564346"/>
      </g>
     </g>
     <g id="text_12">
      <!-- 0.6 -->
      <g transform="translate(139.096875 512.363565)scale(0.1 -0.1)">
       <defs>
        <path d="M 2113 2584 
Q 1688 2584 1439 2293 
Q 1191 2003 1191 1497 
Q 1191 994 1439 701 
Q 1688 409 2113 409 
Q 2538 409 2786 701 
Q 3034 994 3034 1497 
Q 3034 2003 2786 2293 
Q 2538 2584 2113 2584 
z
M 3366 4563 
L 3366 3988 
Q 3128 4100 2886 4159 
Q 2644 4219 2406 4219 
Q 1781 4219 1451 3797 
Q 1122 3375 1075 2522 
Q 1259 2794 1537 2939 
Q 1816 3084 2150 3084 
Q 2853 3084 3261 2657 
Q 3669 2231 3669 1497 
Q 3669 778 3244 343 
Q 2819 -91 2113 -91 
Q 1303 -91 875 529 
Q 447 1150 447 2328 
Q 447 3434 972 4092 
Q 1497 4750 2381 4750 
Q 2619 4750 2861 4703 
Q 3103 4656 3366 4563 
z
" id="DejaVuSans-36" transform="scale(0.015625)"/>
       </defs>
       <use xlink:href="#DejaVuSans-30"/>
       <use x="63.623047" xlink:href="#DejaVuSans-2e"/>
       <use x="95.410156" xlink:href="#DejaVuSans-36"/>
      </g>
     </g>
    </g>
    <g id="ytick_5">
     <g id="line2d_13">
      <g>
       <use style="stroke:#000000;stroke-width:0.8;" x="162" xlink:href="#meae055d7e3" y="421.765795"/>
      </g>
     </g>
     <g id="text_13">
      <!-- 0.8 -->
      <g transform="translate(139.096875 425.565013)scale(0.1 -0.1)">
       <defs>
        <path d="M 2034 2216 
Q 1584 2216 1326 1975 
Q 1069 1734 1069 1313 
Q 1069 891 1326 650 
Q 1584 409 2034 409 
Q 2484 409 2743 651 
Q 3003 894 3003 1313 
Q 3003 1734 2745 1975 
Q 2488 2216 2034 2216 
z
M 1403 2484 
Q 997 2584 770 2862 
Q 544 3141 544 3541 
Q 544 4100 942 4425 
Q 1341 4750 2034 4750 
Q 2731 4750 3128 4425 
Q 3525 4100 3525 3541 
Q 3525 3141 3298 2862 
Q 3072 2584 2669 2484 
Q 3125 2378 3379 2068 
Q 3634 1759 3634 1313 
Q 3634 634 3220 271 
Q 2806 -91 2034 -91 
Q 1263 -91 848 271 
Q 434 634 434 1313 
Q 434 1759 690 2068 
Q 947 2378 1403 2484 
z
M 1172 3481 
Q 1172 3119 1398 2916 
Q 1625 2713 2034 2713 
Q 2441 2713 2670 2916 
Q 2900 3119 2900 3481 
Q 2900 3844 2670 4047 
Q 2441 4250 2034 4250 
Q 1625 4250 1398 4047 
Q 1172 3844 1172 3481 
z
" id="DejaVuSans-38" transform="scale(0.015625)"/>
       </defs>
       <use xlink:href="#DejaVuSans-30"/>
       <use x="63.623047" xlink:href="#DejaVuSans-2e"/>
       <use x="95.410156" xlink:href="#DejaVuSans-38"/>
      </g>
     </g>
    </g>
    <g id="ytick_6">
     <g id="line2d_14">
      <g>
       <use style="stroke:#000000;stroke-width:0.8;" x="162" xlink:href="#meae055d7e3" y="334.967243"/>
      </g>
     </g>
     <g id="text_14">
      <!-- 1.0 -->
      <g transform="translate(139.096875 338.766462)scale(0.1 -0.1)">
       <defs>
        <path d="M 794 531 
L 1825 531 
L 1825 4091 
L 703 3866 
L 703 4441 
L 1819 4666 
L 2450 4666 
L 2450 531 
L 3481 531 
L 3481 0 
L 794 0 
L 794 531 
z
" id="DejaVuSans-31" transform="scale(0.015625)"/>
       </defs>
       <use xlink:href="#DejaVuSans-31"/>
       <use x="63.623047" xlink:href="#DejaVuSans-2e"/>
       <use x="95.410156" xlink:href="#DejaVuSans-30"/>
      </g>
     </g>
    </g>
    <g id="ytick_7">
     <g id="line2d_15">
      <g>
       <use style="stroke:#000000;stroke-width:0.8;" x="162" xlink:href="#meae055d7e3" y="248.168692"/>
      </g>
     </g>
     <g id="text_15">
      <!-- 1.2 -->
      <g transform="translate(139.096875 251.967911)scale(0.1 -0.1)">
       <use xlink:href="#DejaVuSans-31"/>
       <use x="63.623047" xlink:href="#DejaVuSans-2e"/>
       <use x="95.410156" xlink:href="#DejaVuSans-32"/>
      </g>
     </g>
    </g>
    <g id="ytick_8">
     <g id="line2d_16">
      <g>
       <use style="stroke:#000000;stroke-width:0.8;" x="162" xlink:href="#meae055d7e3" y="161.370141"/>
      </g>
     </g>
     <g id="text_16">
      <!-- 1.4 -->
      <g transform="translate(139.096875 165.169359)scale(0.1 -0.1)">
       <use xlink:href="#DejaVuSans-31"/>
       <use x="63.623047" xlink:href="#DejaVuSans-2e"/>
       <use x="95.410156" xlink:href="#DejaVuSans-34"/>
      </g>
     </g>
    </g>
    <g id="text_17">
     <!-- Persons fully vaccinated (tens of millions) -->
     <g transform="translate(133.017188 540.480156)rotate(-90)scale(0.1 -0.1)">
      <defs>
       <path d="M 1259 4147 
L 1259 2394 
L 2053 2394 
Q 2494 2394 2734 2622 
Q 2975 2850 2975 3272 
Q 2975 3691 2734 3919 
Q 2494 4147 2053 4147 
L 1259 4147 
z
M 628 4666 
L 2053 4666 
Q 2838 4666 3239 4311 
Q 3641 3956 3641 3272 
Q 3641 2581 3239 2228 
Q 2838 1875 2053 1875 
L 1259 1875 
L 1259 0 
L 628 0 
L 628 4666 
z
" id="DejaVuSans-50" transform="scale(0.015625)"/>
       <path d="M 1959 3097 
Q 1497 3097 1228 2736 
Q 959 2375 959 1747 
Q 959 1119 1226 758 
Q 1494 397 1959 397 
Q 2419 397 2687 759 
Q 2956 1122 2956 1747 
Q 2956 2369 2687 2733 
Q 2419 3097 1959 3097 
z
M 1959 3584 
Q 2709 3584 3137 3096 
Q 3566 2609 3566 1747 
Q 3566 888 3137 398 
Q 2709 -91 1959 -91 
Q 1206 -91 779 398 
Q 353 888 353 1747 
Q 353 2609 779 3096 
Q 1206 3584 1959 3584 
z
" id="DejaVuSans-6f" transform="scale(0.015625)"/>
       <path id="DejaVuSans-20" transform="scale(0.015625)"/>
       <path d="M 2375 4863 
L 2375 4384 
L 1825 4384 
Q 1516 4384 1395 4259 
Q 1275 4134 1275 3809 
L 1275 3500 
L 2222 3500 
L 2222 3053 
L 1275 3053 
L 1275 0 
L 697 0 
L 697 3053 
L 147 3053 
L 147 3500 
L 697 3500 
L 697 3744 
Q 697 4328 969 4595 
Q 1241 4863 1831 4863 
L 2375 4863 
z
" id="DejaVuSans-66" transform="scale(0.015625)"/>
       <path d="M 191 3500 
L 800 3500 
L 1894 563 
L 2988 3500 
L 3597 3500 
L 2284 0 
L 1503 0 
L 191 3500 
z
" id="DejaVuSans-76" transform="scale(0.015625)"/>
       <path d="M 2906 2969 
L 2906 4863 
L 3481 4863 
L 3481 0 
L 2906 0 
L 2906 525 
Q 2725 213 2448 61 
Q 2172 -91 1784 -91 
Q 1150 -91 751 415 
Q 353 922 353 1747 
Q 353 2572 751 3078 
Q 1150 3584 1784 3584 
Q 2172 3584 2448 3432 
Q 2725 3281 2906 2969 
z
M 947 1747 
Q 947 1113 1208 752 
Q 1469 391 1925 391 
Q 2381 391 2643 752 
Q 2906 1113 2906 1747 
Q 2906 2381 2643 2742 
Q 2381 3103 1925 3103 
Q 1469 3103 1208 2742 
Q 947 2381 947 1747 
z
" id="DejaVuSans-64" transform="scale(0.015625)"/>
       <path d="M 1984 4856 
Q 1566 4138 1362 3434 
Q 1159 2731 1159 2009 
Q 1159 1288 1364 580 
Q 1569 -128 1984 -844 
L 1484 -844 
Q 1016 -109 783 600 
Q 550 1309 550 2009 
Q 550 2706 781 3412 
Q 1013 4119 1484 4856 
L 1984 4856 
z
" id="DejaVuSans-28" transform="scale(0.015625)"/>
       <path d="M 3328 2828 
Q 3544 3216 3844 3400 
Q 4144 3584 4550 3584 
Q 5097 3584 5394 3201 
Q 5691 2819 5691 2113 
L 5691 0 
L 5113 0 
L 5113 2094 
Q 5113 2597 4934 2840 
Q 4756 3084 4391 3084 
Q 3944 3084 3684 2787 
Q 3425 2491 3425 1978 
L 3425 0 
L 2847 0 
L 2847 2094 
Q 2847 2600 2669 2842 
Q 2491 3084 2119 3084 
Q 1678 3084 1418 2786 
Q 1159 2488 1159 1978 
L 1159 0 
L 581 0 
L 581 3500 
L 1159 3500 
L 1159 2956 
Q 1356 3278 1631 3431 
Q 1906 3584 2284 3584 
Q 2666 3584 2933 3390 
Q 3200 3197 3328 2828 
z
" id="DejaVuSans-6d" transform="scale(0.015625)"/>
       <path d="M 513 4856 
L 1013 4856 
Q 1481 4119 1714 3412 
Q 1947 2706 1947 2009 
Q 1947 1309 1714 600 
Q 1481 -109 1013 -844 
L 513 -844 
Q 928 -128 1133 580 
Q 1338 1288 1338 2009 
Q 1338 2731 1133 3434 
Q 928 4138 513 4856 
z
" id="DejaVuSans-29" transform="scale(0.015625)"/>
      </defs>
      <use xlink:href="#DejaVuSans-50"/>
      <use x="56.677734" xlink:href="#DejaVuSans-65"/>
      <use x="118.201172" xlink:href="#DejaVuSans-72"/>
      <use x="159.314453" xlink:href="#DejaVuSans-73"/>
      <use x="211.414062" xlink:href="#DejaVuSans-6f"/>
      <use x="272.595703" xlink:href="#DejaVuSans-6e"/>
      <use x="335.974609" xlink:href="#DejaVuSans-73"/>
      <use x="388.074219" xlink:href="#DejaVuSans-20"/>
      <use x="419.861328" xlink:href="#DejaVuSans-66"/>
      <use x="455.066406" xlink:href="#DejaVuSans-75"/>
      <use x="518.445312" xlink:href="#DejaVuSans-6c"/>
      <use x="546.228516" xlink:href="#DejaVuSans-6c"/>
      <use x="574.011719" xlink:href="#DejaVuSans-79"/>
      <use x="633.191406" xlink:href="#DejaVuSans-20"/>
      <use x="664.978516" xlink:href="#DejaVuSans-76"/>
      <use x="724.158203" xlink:href="#DejaVuSans-61"/>
      <use x="785.4375" xlink:href="#DejaVuSans-63"/>
      <use x="840.417969" xlink:href="#DejaVuSans-63"/>
      <use x="895.398438" xlink:href="#DejaVuSans-69"/>
      <use x="923.181641" xlink:href="#DejaVuSans-6e"/>
      <use x="986.560547" xlink:href="#DejaVuSans-61"/>
      <use x="1047.839844" xlink:href="#DejaVuSans-74"/>
      <use x="1087.048828" xlink:href="#DejaVuSans-65"/>
      <use x="1148.572266" xlink:href="#DejaVuSans-64"/>
      <use x="1212.048828" xlink:href="#DejaVuSans-20"/>
      <use x="1243.835938" xlink:href="#DejaVuSans-28"/>
      <use x="1282.849609" xlink:href="#DejaVuSans-74"/>
      <use x="1322.058594" xlink:href="#DejaVuSans-65"/>
      <use x="1383.582031" xlink:href="#DejaVuSans-6e"/>
      <use x="1446.960938" xlink:href="#DejaVuSans-73"/>
      <use x="1499.060547" xlink:href="#DejaVuSans-20"/>
      <use x="1530.847656" xlink:href="#DejaVuSans-6f"/>
      <use x="1592.029297" xlink:href="#DejaVuSans-66"/>
      <use x="1627.234375" xlink:href="#DejaVuSans-20"/>
      <use x="1659.021484" xlink:href="#DejaVuSans-6d"/>
      <use x="1756.433594" xlink:href="#DejaVuSans-69"/>
      <use x="1784.216797" xlink:href="#DejaVuSans-6c"/>
      <use x="1812" xlink:href="#DejaVuSans-6c"/>
      <use x="1839.783203" xlink:href="#DejaVuSans-69"/>
      <use x="1867.566406" xlink:href="#DejaVuSans-6f"/>
      <use x="1928.748047" xlink:href="#DejaVuSans-6e"/>
      <use x="1992.126953" xlink:href="#DejaVuSans-73"/>
      <use x="2044.226562" xlink:href="#DejaVuSans-29"/>
     </g>
    </g>
    <g id="text_18">
     <!-- 1e7 -->
     <g transform="translate(162 100.68)scale(0.1 -0.1)">
      <defs>
       <path d="M 525 4666 
L 3525 4666 
L 3525 4397 
L 1831 0 
L 1172 0 
L 2766 4134 
L 525 4134 
L 525 4666 
z
" id="DejaVuSans-37" transform="scale(0.015625)"/>
      </defs>
      <use xlink:href="#DejaVuSans-31"/>
      <use x="63.623047" xlink:href="#DejaVuSans-65"/>
      <use x="125.146484" xlink:href="#DejaVuSans-37"/>
     </g>
    </g>
   </g>
   <g id="patch_235">
    <path d="M 162 768.96 
L 162 103.68 
" style="fill:none;stroke:#000000;stroke-linecap:square;stroke-linejoin:miter;stroke-width:0.8;"/>
   </g>
   <g id="patch_236">
    <path d="M 1166.4 768.96 
L 1166.4 103.68 
" style="fill:none;stroke:#000000;stroke-linecap:square;stroke-linejoin:miter;stroke-width:0.8;"/>
   </g>
   <g id="patch_237">
    <path d="M 162 768.96 
L 1166.4 768.96 
" style="fill:none;stroke:#000000;stroke-linecap:square;stroke-linejoin:miter;stroke-width:0.8;"/>
   </g>
   <g id="patch_238">
    <path d="M 162 103.68 
L 1166.4 103.68 
" style="fill:none;stroke:#000000;stroke-linecap:square;stroke-linejoin:miter;stroke-width:0.8;"/>
   </g>
   <g id="text_19">
    <!-- Persons Fully Vaccinated -->
    <g transform="translate(590.380313 97.68)scale(0.12 -0.12)">
     <defs>
      <path d="M 1831 0 
L 50 4666 
L 709 4666 
L 2188 738 
L 3669 4666 
L 4325 4666 
L 2547 0 
L 1831 0 
z
" id="DejaVuSans-56" transform="scale(0.015625)"/>
     </defs>
     <use xlink:href="#DejaVuSans-50"/>
     <use x="56.677734" xlink:href="#DejaVuSans-65"/>
     <use x="118.201172" xlink:href="#DejaVuSans-72"/>
     <use x="159.314453" xlink:href="#DejaVuSans-73"/>
     <use x="211.414062" xlink:href="#DejaVuSans-6f"/>
     <use x="272.595703" xlink:href="#DejaVuSans-6e"/>
     <use x="335.974609" xlink:href="#DejaVuSans-73"/>
     <use x="388.074219" xlink:href="#DejaVuSans-20"/>
     <use x="419.861328" xlink:href="#DejaVuSans-46"/>
     <use x="471.880859" xlink:href="#DejaVuSans-75"/>
     <use x="535.259766" xlink:href="#DejaVuSans-6c"/>
     <use x="563.042969" xlink:href="#DejaVuSans-6c"/>
     <use x="590.826172" xlink:href="#DejaVuSans-79"/>
     <use x="650.005859" xlink:href="#DejaVuSans-20"/>
     <use x="681.792969" xlink:href="#DejaVuSans-56"/>
     <use x="742.451172" xlink:href="#DejaVuSans-61"/>
     <use x="803.730469" xlink:href="#DejaVuSans-63"/>
     <use x="858.710938" xlink:href="#DejaVuSans-63"/>
     <use x="913.691406" xlink:href="#DejaVuSans-69"/>
     <use x="941.474609" xlink:href="#DejaVuSans-6e"/>
     <use x="1004.853516" xlink:href="#DejaVuSans-61"/>
     <use x="1066.132812" xlink:href="#DejaVuSans-74"/>
     <use x="1105.341797" xlink:href="#DejaVuSans-65"/>
     <use x="1166.865234" xlink:href="#DejaVuSans-64"/>
    </g>
   </g>
  </g>
 </g>
 <defs>
  <clipPath id="p588acfeb83">
   <rect height="665.28" width="1004.4" x="162" y="103.68"/>
  </clipPath>
 </defs>
</svg>
