<?xml version="1.0" encoding="utf-8" standalone="no"?>
<!DOCTYPE svg PUBLIC "-//W3C//DTD SVG 1.1//EN"
  "http://www.w3.org/Graphics/SVG/1.1/DTD/svg11.dtd">
<svg height="864pt" version="1.1" viewBox="0 0 1296 864" width="1296pt" xmlns="http://www.w3.org/2000/svg" xmlns:xlink="http://www.w3.org/1999/xlink">
 <metadata>
  <rdf:RDF xmlns:cc="http://creativecommons.org/ns#" xmlns:dc="http://purl.org/dc/elements/1.1/" xmlns:rdf="http://www.w3.org/1999/02/22-rdf-syntax-ns#">
   <cc:Work>
    <dc:type rdf:resource="http://purl.org/dc/dcmitype/StillImage"/>
    <dc:date>2021-12-06T17:22:49.178511</dc:date>
    <dc:format>image/svg+xml</dc:format>
    <dc:creator>
     <cc:Agent>
      <dc:title>Matplotlib v3.4.2, https://matplotlib.org/</dc:title>
     </cc:Agent>
    </dc:creator>
   </cc:Work>
  </rdf:RDF>
 </metadata>
 <defs>
  <style type="text/css">*{stroke-linecap:butt;stroke-linejoin:round;}</style>
 </defs>
 <g id="figure_1">
  <g id="patch_1">
   <path d="M 0 864 
L 1296 864 
L 1296 0 
L 0 0 
z
" style="fill:#ffffff;"/>
  </g>
  <g id="axes_1">
   <g id="patch_2">
    <path d="M 162 768.96 
L 1166.4 768.96 
L 1166.4 103.68 
L 162 103.68 
z
" style="fill:#ffffff;"/>
   </g>
   <g id="patch_3">
    <path clip-path="url(#pa95b89a9b0)" d="M 162.754054 768.96 
L 164.262162 768.96 
L 164.262162 768.94914 
L 162.754054 768.94914 
z
" style="fill:#1f77b4;"/>
   </g>
   <g id="patch_4">
    <path clip-path="url(#pa95b89a9b0)" d="M 165.77027 768.96 
L 167.278378 768.96 
L 167.278378 768.92001 
L 165.77027 768.92001 
z
" style="fill:#1f77b4;"/>
   </g>
   <g id="patch_5">
    <path clip-path="url(#pa95b89a9b0)" d="M 168.786486 768.96 
L 170.294595 768.96 
L 170.294595 768.718702 
L 168.786486 768.718702 
z
" style="fill:#1f77b4;"/>
   </g>
   <g id="patch_6">
    <path clip-path="url(#pa95b89a9b0)" d="M 171.802703 768.96 
L 173.310811 768.96 
L 173.310811 767.267029 
L 171.802703 767.267029 
z
" style="fill:#1f77b4;"/>
   </g>
   <g id="patch_7">
    <path clip-path="url(#pa95b89a9b0)" d="M 174.818919 768.96 
L 176.327027 768.96 
L 176.327027 765.525625 
L 174.818919 765.525625 
z
" style="fill:#1f77b4;"/>
   </g>
   <g id="patch_8">
    <path clip-path="url(#pa95b89a9b0)" d="M 177.835135 768.96 
L 179.343243 768.96 
L 179.343243 764.575336 
L 177.835135 764.575336 
z
" style="fill:#1f77b4;"/>
   </g>
   <g id="patch_9">
    <path clip-path="url(#pa95b89a9b0)" d="M 180.851351 768.96 
L 182.359459 768.96 
L 182.359459 763.998914 
L 180.851351 763.998914 
z
" style="fill:#1f77b4;"/>
   </g>
   <g id="patch_10">
    <path clip-path="url(#pa95b89a9b0)" d="M 183.867568 768.96 
L 185.375676 768.96 
L 185.375676 763.09399 
L 183.867568 763.09399 
z
" style="fill:#1f77b4;"/>
   </g>
   <g id="patch_11">
    <path clip-path="url(#pa95b89a9b0)" d="M 186.883784 768.96 
L 188.391892 768.96 
L 188.391892 762.232967 
L 186.883784 762.232967 
z
" style="fill:#1f77b4;"/>
   </g>
   <g id="patch_12">
    <path clip-path="url(#pa95b89a9b0)" d="M 189.9 768.96 
L 191.408108 768.96 
L 191.408108 761.528999 
L 189.9 761.528999 
z
" style="fill:#1f77b4;"/>
   </g>
   <g id="patch_13">
    <path clip-path="url(#pa95b89a9b0)" d="M 192.916216 768.96 
L 194.424324 768.96 
L 194.424324 760.665967 
L 192.916216 760.665967 
z
" style="fill:#1f77b4;"/>
   </g>
   <g id="patch_14">
    <path clip-path="url(#pa95b89a9b0)" d="M 195.932432 768.96 
L 197.440541 768.96 
L 197.440541 760.487328 
L 195.932432 760.487328 
z
" style="fill:#1f77b4;"/>
   </g>
   <g id="patch_15">
    <path clip-path="url(#pa95b89a9b0)" d="M 198.948649 768.96 
L 200.456757 768.96 
L 200.456757 760.376913 
L 198.948649 760.376913 
z
" style="fill:#1f77b4;"/>
   </g>
   <g id="patch_16">
    <path clip-path="url(#pa95b89a9b0)" d="M 201.964865 768.96 
L 203.472973 768.96 
L 203.472973 760.324489 
L 201.964865 760.324489 
z
" style="fill:#1f77b4;"/>
   </g>
   <g id="patch_17">
    <path clip-path="url(#pa95b89a9b0)" d="M 204.981081 768.96 
L 206.489189 768.96 
L 206.489189 760.084385 
L 204.981081 760.084385 
z
" style="fill:#1f77b4;"/>
   </g>
   <g id="patch_18">
    <path clip-path="url(#pa95b89a9b0)" d="M 207.997297 768.96 
L 209.505405 768.96 
L 209.505405 759.684891 
L 207.997297 759.684891 
z
" style="fill:#1f77b4;"/>
   </g>
   <g id="patch_19">
    <path clip-path="url(#pa95b89a9b0)" d="M 211.013514 768.96 
L 212.521622 768.96 
L 212.521622 758.916445 
L 211.013514 758.916445 
z
" style="fill:#1f77b4;"/>
   </g>
   <g id="patch_20">
    <path clip-path="url(#pa95b89a9b0)" d="M 214.02973 768.96 
L 215.537838 768.96 
L 215.537838 758.147809 
L 214.02973 758.147809 
z
" style="fill:#1f77b4;"/>
   </g>
   <g id="patch_21">
    <path clip-path="url(#pa95b89a9b0)" d="M 217.045946 768.96 
L 218.554054 768.96 
L 218.554054 757.595602 
L 217.045946 757.595602 
z
" style="fill:#1f77b4;"/>
   </g>
   <g id="patch_22">
    <path clip-path="url(#pa95b89a9b0)" d="M 220.062162 768.96 
L 221.57027 768.96 
L 221.57027 757.392611 
L 220.062162 757.392611 
z
" style="fill:#1f77b4;"/>
   </g>
   <g id="patch_23">
    <path clip-path="url(#pa95b89a9b0)" d="M 223.078378 768.96 
L 224.586486 768.96 
L 224.586486 757.117105 
L 223.078378 757.117105 
z
" style="fill:#1f77b4;"/>
   </g>
   <g id="patch_24">
    <path clip-path="url(#pa95b89a9b0)" d="M 226.094595 768.96 
L 227.602703 768.96 
L 227.602703 756.391147 
L 226.094595 756.391147 
z
" style="fill:#1f77b4;"/>
   </g>
   <g id="patch_25">
    <path clip-path="url(#pa95b89a9b0)" d="M 229.110811 768.96 
L 230.618919 768.96 
L 230.618919 755.168529 
L 229.110811 755.168529 
z
" style="fill:#1f77b4;"/>
   </g>
   <g id="patch_26">
    <path clip-path="url(#pa95b89a9b0)" d="M 232.127027 768.96 
L 233.635135 768.96 
L 233.635135 753.480608 
L 232.127027 753.480608 
z
" style="fill:#1f77b4;"/>
   </g>
   <g id="patch_27">
    <path clip-path="url(#pa95b89a9b0)" d="M 235.143243 768.96 
L 236.651351 768.96 
L 236.651351 752.048102 
L 235.143243 752.048102 
z
" style="fill:#1f77b4;"/>
   </g>
   <g id="patch_28">
    <path clip-path="url(#pa95b89a9b0)" d="M 238.159459 768.96 
L 239.667568 768.96 
L 239.667568 750.765947 
L 238.159459 750.765947 
z
" style="fill:#1f77b4;"/>
   </g>
   <g id="patch_29">
    <path clip-path="url(#pa95b89a9b0)" d="M 241.175676 768.96 
L 242.683784 768.96 
L 242.683784 750.059807 
L 241.175676 750.059807 
z
" style="fill:#1f77b4;"/>
   </g>
   <g id="patch_30">
    <path clip-path="url(#pa95b89a9b0)" d="M 244.191892 768.96 
L 245.7 768.96 
L 245.7 749.663978 
L 244.191892 749.663978 
z
" style="fill:#1f77b4;"/>
   </g>
   <g id="patch_31">
    <path clip-path="url(#pa95b89a9b0)" d="M 247.208108 768.96 
L 248.716216 768.96 
L 248.716216 748.96544 
L 247.208108 748.96544 
z
" style="fill:#1f77b4;"/>
   </g>
   <g id="patch_32">
    <path clip-path="url(#pa95b89a9b0)" d="M 250.224324 768.96 
L 251.732432 768.96 
L 251.732432 747.462348 
L 250.224324 747.462348 
z
" style="fill:#1f77b4;"/>
   </g>
   <g id="patch_33">
    <path clip-path="url(#pa95b89a9b0)" d="M 253.240541 768.96 
L 254.748649 768.96 
L 254.748649 746.345284 
L 253.240541 746.345284 
z
" style="fill:#1f77b4;"/>
   </g>
   <g id="patch_34">
    <path clip-path="url(#pa95b89a9b0)" d="M 256.256757 768.96 
L 257.764865 768.96 
L 257.764865 744.844337 
L 256.256757 744.844337 
z
" style="fill:#1f77b4;"/>
   </g>
   <g id="patch_35">
    <path clip-path="url(#pa95b89a9b0)" d="M 259.272973 768.96 
L 260.781081 768.96 
L 260.781081 743.643628 
L 259.272973 743.643628 
z
" style="fill:#1f77b4;"/>
   </g>
   <g id="patch_36">
    <path clip-path="url(#pa95b89a9b0)" d="M 262.289189 768.96 
L 263.797297 768.96 
L 263.797297 742.589875 
L 262.289189 742.589875 
z
" style="fill:#1f77b4;"/>
   </g>
   <g id="patch_37">
    <path clip-path="url(#pa95b89a9b0)" d="M 265.305405 768.96 
L 266.813514 768.96 
L 266.813514 742.231918 
L 265.305405 742.231918 
z
" style="fill:#1f77b4;"/>
   </g>
   <g id="patch_38">
    <path clip-path="url(#pa95b89a9b0)" d="M 268.321622 768.96 
L 269.82973 768.96 
L 269.82973 741.025535 
L 268.321622 741.025535 
z
" style="fill:#1f77b4;"/>
   </g>
   <g id="patch_39">
    <path clip-path="url(#pa95b89a9b0)" d="M 271.337838 768.96 
L 272.845946 768.96 
L 272.845946 739.533465 
L 271.337838 739.533465 
z
" style="fill:#1f77b4;"/>
   </g>
   <g id="patch_40">
    <path clip-path="url(#pa95b89a9b0)" d="M 274.354054 768.96 
L 275.862162 768.96 
L 275.862162 737.73266 
L 274.354054 737.73266 
z
" style="fill:#1f77b4;"/>
   </g>
   <g id="patch_41">
    <path clip-path="url(#pa95b89a9b0)" d="M 277.37027 768.96 
L 278.878378 768.96 
L 278.878378 735.161888 
L 277.37027 735.161888 
z
" style="fill:#1f77b4;"/>
   </g>
   <g id="patch_42">
    <path clip-path="url(#pa95b89a9b0)" d="M 280.386486 768.96 
L 281.894595 768.96 
L 281.894595 732.861897 
L 280.386486 732.861897 
z
" style="fill:#1f77b4;"/>
   </g>
   <g id="patch_43">
    <path clip-path="url(#pa95b89a9b0)" d="M 283.402703 768.96 
L 284.910811 768.96 
L 284.910811 731.421274 
L 283.402703 731.421274 
z
" style="fill:#1f77b4;"/>
   </g>
   <g id="patch_44">
    <path clip-path="url(#pa95b89a9b0)" d="M 286.418919 768.96 
L 287.927027 768.96 
L 287.927027 730.644548 
L 286.418919 730.644548 
z
" style="fill:#1f77b4;"/>
   </g>
   <g id="patch_45">
    <path clip-path="url(#pa95b89a9b0)" d="M 289.435135 768.96 
L 290.943243 768.96 
L 290.943243 729.884273 
L 289.435135 729.884273 
z
" style="fill:#1f77b4;"/>
   </g>
   <g id="patch_46">
    <path clip-path="url(#pa95b89a9b0)" d="M 292.451351 768.96 
L 293.959459 768.96 
L 293.959459 728.422529 
L 292.451351 728.422529 
z
" style="fill:#1f77b4;"/>
   </g>
   <g id="patch_47">
    <path clip-path="url(#pa95b89a9b0)" d="M 295.467568 768.96 
L 296.975676 768.96 
L 296.975676 725.99627 
L 295.467568 725.99627 
z
" style="fill:#1f77b4;"/>
   </g>
   <g id="patch_48">
    <path clip-path="url(#pa95b89a9b0)" d="M 298.483784 768.96 
L 299.991892 768.96 
L 299.991892 722.83303 
L 298.483784 722.83303 
z
" style="fill:#1f77b4;"/>
   </g>
   <g id="patch_49">
    <path clip-path="url(#pa95b89a9b0)" d="M 301.5 768.96 
L 303.008108 768.96 
L 303.008108 719.837108 
L 301.5 719.837108 
z
" style="fill:#1f77b4;"/>
   </g>
   <g id="patch_50">
    <path clip-path="url(#pa95b89a9b0)" d="M 304.516216 768.96 
L 306.024324 768.96 
L 306.024324 719.364013 
L 304.516216 719.364013 
z
" style="fill:#1f77b4;"/>
   </g>
   <g id="patch_51">
    <path clip-path="url(#pa95b89a9b0)" d="M 307.532432 768.96 
L 309.040541 768.96 
L 309.040541 717.165098 
L 307.532432 717.165098 
z
" style="fill:#1f77b4;"/>
   </g>
   <g id="patch_52">
    <path clip-path="url(#pa95b89a9b0)" d="M 310.548649 768.96 
L 312.056757 768.96 
L 312.056757 715.417286 
L 310.548649 715.417286 
z
" style="fill:#1f77b4;"/>
   </g>
   <g id="patch_53">
    <path clip-path="url(#pa95b89a9b0)" d="M 313.564865 768.96 
L 315.072973 768.96 
L 315.072973 712.800768 
L 313.564865 712.800768 
z
" style="fill:#1f77b4;"/>
   </g>
   <g id="patch_54">
    <path clip-path="url(#pa95b89a9b0)" d="M 316.581081 768.96 
L 318.089189 768.96 
L 318.089189 707.787964 
L 316.581081 707.787964 
z
" style="fill:#1f77b4;"/>
   </g>
   <g id="patch_55">
    <path clip-path="url(#pa95b89a9b0)" d="M 319.597297 768.96 
L 321.105405 768.96 
L 321.105405 702.59595 
L 319.597297 702.59595 
z
" style="fill:#1f77b4;"/>
   </g>
   <g id="patch_56">
    <path clip-path="url(#pa95b89a9b0)" d="M 322.613514 768.96 
L 324.121622 768.96 
L 324.121622 698.043371 
L 322.613514 698.043371 
z
" style="fill:#1f77b4;"/>
   </g>
   <g id="patch_57">
    <path clip-path="url(#pa95b89a9b0)" d="M 325.62973 768.96 
L 327.137838 768.96 
L 327.137838 694.099766 
L 325.62973 694.099766 
z
" style="fill:#1f77b4;"/>
   </g>
   <g id="patch_58">
    <path clip-path="url(#pa95b89a9b0)" d="M 328.645946 768.96 
L 330.154054 768.96 
L 330.154054 692.223596 
L 328.645946 692.223596 
z
" style="fill:#1f77b4;"/>
   </g>
   <g id="patch_59">
    <path clip-path="url(#pa95b89a9b0)" d="M 331.662162 768.96 
L 333.17027 768.96 
L 333.17027 689.379489 
L 331.662162 689.379489 
z
" style="fill:#1f77b4;"/>
   </g>
   <g id="patch_60">
    <path clip-path="url(#pa95b89a9b0)" d="M 334.678378 768.96 
L 336.186486 768.96 
L 336.186486 685.525829 
L 334.678378 685.525829 
z
" style="fill:#1f77b4;"/>
   </g>
   <g id="patch_61">
    <path clip-path="url(#pa95b89a9b0)" d="M 337.694595 768.96 
L 339.202703 768.96 
L 339.202703 681.1056 
L 337.694595 681.1056 
z
" style="fill:#1f77b4;"/>
   </g>
   <g id="patch_62">
    <path clip-path="url(#pa95b89a9b0)" d="M 340.710811 768.96 
L 342.218919 768.96 
L 342.218919 674.657467 
L 340.710811 674.657467 
z
" style="fill:#1f77b4;"/>
   </g>
   <g id="patch_63">
    <path clip-path="url(#pa95b89a9b0)" d="M 343.727027 768.96 
L 345.235135 768.96 
L 345.235135 668.602909 
L 343.727027 668.602909 
z
" style="fill:#1f77b4;"/>
   </g>
   <g id="patch_64">
    <path clip-path="url(#pa95b89a9b0)" d="M 346.743243 768.96 
L 348.251351 768.96 
L 348.251351 664.05519 
L 346.743243 664.05519 
z
" style="fill:#1f77b4;"/>
   </g>
   <g id="patch_65">
    <path clip-path="url(#pa95b89a9b0)" d="M 349.759459 768.96 
L 351.267568 768.96 
L 351.267568 662.627245 
L 349.759459 662.627245 
z
" style="fill:#1f77b4;"/>
   </g>
   <g id="patch_66">
    <path clip-path="url(#pa95b89a9b0)" d="M 352.775676 768.96 
L 354.283784 768.96 
L 354.283784 658.727215 
L 352.775676 658.727215 
z
" style="fill:#1f77b4;"/>
   </g>
   <g id="patch_67">
    <path clip-path="url(#pa95b89a9b0)" d="M 355.791892 768.96 
L 357.3 768.96 
L 357.3 653.679877 
L 355.791892 653.679877 
z
" style="fill:#1f77b4;"/>
   </g>
   <g id="patch_68">
    <path clip-path="url(#pa95b89a9b0)" d="M 358.808108 768.96 
L 360.316216 768.96 
L 360.316216 648.104305 
L 358.808108 648.104305 
z
" style="fill:#1f77b4;"/>
   </g>
   <g id="patch_69">
    <path clip-path="url(#pa95b89a9b0)" d="M 361.824324 768.96 
L 363.332432 768.96 
L 363.332432 642.138007 
L 361.824324 642.138007 
z
" style="fill:#1f77b4;"/>
   </g>
   <g id="patch_70">
    <path clip-path="url(#pa95b89a9b0)" d="M 364.840541 768.96 
L 366.348649 768.96 
L 366.348649 635.366695 
L 364.840541 635.366695 
z
" style="fill:#1f77b4;"/>
   </g>
   <g id="patch_71">
    <path clip-path="url(#pa95b89a9b0)" d="M 367.856757 768.96 
L 369.364865 768.96 
L 369.364865 630.981787 
L 367.856757 630.981787 
z
" style="fill:#1f77b4;"/>
   </g>
   <g id="patch_72">
    <path clip-path="url(#pa95b89a9b0)" d="M 370.872973 768.96 
L 372.381081 768.96 
L 372.381081 626.632878 
L 370.872973 626.632878 
z
" style="fill:#1f77b4;"/>
   </g>
   <g id="patch_73">
    <path clip-path="url(#pa95b89a9b0)" d="M 373.889189 768.96 
L 375.397297 768.96 
L 375.397297 622.761815 
L 373.889189 622.761815 
z
" style="fill:#1f77b4;"/>
   </g>
   <g id="patch_74">
    <path clip-path="url(#pa95b89a9b0)" d="M 376.905405 768.96 
L 378.413514 768.96 
L 378.413514 618.424119 
L 376.905405 618.424119 
z
" style="fill:#1f77b4;"/>
   </g>
   <g id="patch_75">
    <path clip-path="url(#pa95b89a9b0)" d="M 379.921622 768.96 
L 381.42973 768.96 
L 381.42973 614.552432 
L 379.921622 614.552432 
z
" style="fill:#1f77b4;"/>
   </g>
   <g id="patch_76">
    <path clip-path="url(#pa95b89a9b0)" d="M 382.937838 768.96 
L 384.445946 768.96 
L 384.445946 610.137171 
L 382.937838 610.137171 
z
" style="fill:#1f77b4;"/>
   </g>
   <g id="patch_77">
    <path clip-path="url(#pa95b89a9b0)" d="M 385.954054 768.96 
L 387.462162 768.96 
L 387.462162 605.603108 
L 385.954054 605.603108 
z
" style="fill:#1f77b4;"/>
   </g>
   <g id="patch_78">
    <path clip-path="url(#pa95b89a9b0)" d="M 388.97027 768.96 
L 390.478378 768.96 
L 390.478378 602.905714 
L 388.97027 602.905714 
z
" style="fill:#1f77b4;"/>
   </g>
   <g id="patch_79">
    <path clip-path="url(#pa95b89a9b0)" d="M 391.986486 768.96 
L 393.494595 768.96 
L 393.494595 601.430286 
L 391.986486 601.430286 
z
" style="fill:#1f77b4;"/>
   </g>
   <g id="patch_80">
    <path clip-path="url(#pa95b89a9b0)" d="M 395.002703 768.96 
L 396.510811 768.96 
L 396.510811 598.994688 
L 395.002703 598.994688 
z
" style="fill:#1f77b4;"/>
   </g>
   <g id="patch_81">
    <path clip-path="url(#pa95b89a9b0)" d="M 398.018919 768.96 
L 399.527027 768.96 
L 399.527027 596.083334 
L 398.018919 596.083334 
z
" style="fill:#1f77b4;"/>
   </g>
   <g id="patch_82">
    <path clip-path="url(#pa95b89a9b0)" d="M 401.035135 768.96 
L 402.543243 768.96 
L 402.543243 593.042671 
L 401.035135 593.042671 
z
" style="fill:#1f77b4;"/>
   </g>
   <g id="patch_83">
    <path clip-path="url(#pa95b89a9b0)" d="M 404.051351 768.96 
L 405.559459 768.96 
L 405.559459 589.121329 
L 404.051351 589.121329 
z
" style="fill:#1f77b4;"/>
   </g>
   <g id="patch_84">
    <path clip-path="url(#pa95b89a9b0)" d="M 407.067568 768.96 
L 408.575676 768.96 
L 408.575676 584.25643 
L 407.067568 584.25643 
z
" style="fill:#1f77b4;"/>
   </g>
   <g id="patch_85">
    <path clip-path="url(#pa95b89a9b0)" d="M 410.083784 768.96 
L 411.591892 768.96 
L 411.591892 580.035447 
L 410.083784 580.035447 
z
" style="fill:#1f77b4;"/>
   </g>
   <g id="patch_86">
    <path clip-path="url(#pa95b89a9b0)" d="M 413.1 768.96 
L 414.608108 768.96 
L 414.608108 578.360367 
L 413.1 578.360367 
z
" style="fill:#1f77b4;"/>
   </g>
   <g id="patch_87">
    <path clip-path="url(#pa95b89a9b0)" d="M 416.116216 768.96 
L 417.624324 768.96 
L 417.624324 575.784111 
L 416.116216 575.784111 
z
" style="fill:#1f77b4;"/>
   </g>
   <g id="patch_88">
    <path clip-path="url(#pa95b89a9b0)" d="M 419.132432 768.96 
L 420.640541 768.96 
L 420.640541 571.132167 
L 419.132432 571.132167 
z
" style="fill:#1f77b4;"/>
   </g>
   <g id="patch_89">
    <path clip-path="url(#pa95b89a9b0)" d="M 422.148649 768.96 
L 423.656757 768.96 
L 423.656757 567.200128 
L 422.148649 567.200128 
z
" style="fill:#1f77b4;"/>
   </g>
   <g id="patch_90">
    <path clip-path="url(#pa95b89a9b0)" d="M 425.164865 768.96 
L 426.672973 768.96 
L 426.672973 561.727152 
L 425.164865 561.727152 
z
" style="fill:#1f77b4;"/>
   </g>
   <g id="patch_91">
    <path clip-path="url(#pa95b89a9b0)" d="M 428.181081 768.96 
L 429.689189 768.96 
L 429.689189 556.206366 
L 428.181081 556.206366 
z
" style="fill:#1f77b4;"/>
   </g>
   <g id="patch_92">
    <path clip-path="url(#pa95b89a9b0)" d="M 431.197297 768.96 
L 432.705405 768.96 
L 432.705405 551.98359 
L 431.197297 551.98359 
z
" style="fill:#1f77b4;"/>
   </g>
   <g id="patch_93">
    <path clip-path="url(#pa95b89a9b0)" d="M 434.213514 768.96 
L 435.721622 768.96 
L 435.721622 550.814863 
L 434.213514 550.814863 
z
" style="fill:#1f77b4;"/>
   </g>
   <g id="patch_94">
    <path clip-path="url(#pa95b89a9b0)" d="M 437.22973 768.96 
L 438.737838 768.96 
L 438.737838 546.821902 
L 437.22973 546.821902 
z
" style="fill:#1f77b4;"/>
   </g>
   <g id="patch_95">
    <path clip-path="url(#pa95b89a9b0)" d="M 440.245946 768.96 
L 441.754054 768.96 
L 441.754054 540.712205 
L 440.245946 540.712205 
z
" style="fill:#1f77b4;"/>
   </g>
   <g id="patch_96">
    <path clip-path="url(#pa95b89a9b0)" d="M 443.262162 768.96 
L 444.77027 768.96 
L 444.77027 533.936195 
L 443.262162 533.936195 
z
" style="fill:#1f77b4;"/>
   </g>
   <g id="patch_97">
    <path clip-path="url(#pa95b89a9b0)" d="M 446.278378 768.96 
L 447.786486 768.96 
L 447.786486 525.823896 
L 446.278378 525.823896 
z
" style="fill:#1f77b4;"/>
   </g>
   <g id="patch_98">
    <path clip-path="url(#pa95b89a9b0)" d="M 449.294595 768.96 
L 450.802703 768.96 
L 450.802703 516.244585 
L 449.294595 516.244585 
z
" style="fill:#1f77b4;"/>
   </g>
   <g id="patch_99">
    <path clip-path="url(#pa95b89a9b0)" d="M 452.310811 768.96 
L 453.818919 768.96 
L 453.818919 509.905589 
L 452.310811 509.905589 
z
" style="fill:#1f77b4;"/>
   </g>
   <g id="patch_100">
    <path clip-path="url(#pa95b89a9b0)" d="M 455.327027 768.96 
L 456.835135 768.96 
L 456.835135 506.849505 
L 455.327027 506.849505 
z
" style="fill:#1f77b4;"/>
   </g>
   <g id="patch_101">
    <path clip-path="url(#pa95b89a9b0)" d="M 458.343243 768.96 
L 459.851351 768.96 
L 459.851351 501.612126 
L 458.343243 501.612126 
z
" style="fill:#1f77b4;"/>
   </g>
   <g id="patch_102">
    <path clip-path="url(#pa95b89a9b0)" d="M 461.359459 768.96 
L 462.867568 768.96 
L 462.867568 495.111676 
L 461.359459 495.111676 
z
" style="fill:#1f77b4;"/>
   </g>
   <g id="patch_103">
    <path clip-path="url(#pa95b89a9b0)" d="M 464.375676 768.96 
L 465.883784 768.96 
L 465.883784 489.504666 
L 464.375676 489.504666 
z
" style="fill:#1f77b4;"/>
   </g>
   <g id="patch_104">
    <path clip-path="url(#pa95b89a9b0)" d="M 467.391892 768.96 
L 468.9 768.96 
L 468.9 481.864402 
L 467.391892 481.864402 
z
" style="fill:#1f77b4;"/>
   </g>
   <g id="patch_105">
    <path clip-path="url(#pa95b89a9b0)" d="M 470.408108 768.96 
L 471.916216 768.96 
L 471.916216 474.426343 
L 470.408108 474.426343 
z
" style="fill:#1f77b4;"/>
   </g>
   <g id="patch_106">
    <path clip-path="url(#pa95b89a9b0)" d="M 473.424324 768.96 
L 474.932432 768.96 
L 474.932432 469.272934 
L 473.424324 469.272934 
z
" style="fill:#1f77b4;"/>
   </g>
   <g id="patch_107">
    <path clip-path="url(#pa95b89a9b0)" d="M 476.440541 768.96 
L 477.948649 768.96 
L 477.948649 466.25904 
L 476.440541 466.25904 
z
" style="fill:#1f77b4;"/>
   </g>
   <g id="patch_108">
    <path clip-path="url(#pa95b89a9b0)" d="M 479.456757 768.96 
L 480.964865 768.96 
L 480.964865 461.957289 
L 479.456757 461.957289 
z
" style="fill:#1f77b4;"/>
   </g>
   <g id="patch_109">
    <path clip-path="url(#pa95b89a9b0)" d="M 482.472973 768.96 
L 483.981081 768.96 
L 483.981081 455.074992 
L 482.472973 455.074992 
z
" style="fill:#1f77b4;"/>
   </g>
   <g id="patch_110">
    <path clip-path="url(#pa95b89a9b0)" d="M 485.489189 768.96 
L 486.997297 768.96 
L 486.997297 448.991846 
L 485.489189 448.991846 
z
" style="fill:#1f77b4;"/>
   </g>
   <g id="patch_111">
    <path clip-path="url(#pa95b89a9b0)" d="M 488.505405 768.96 
L 490.013514 768.96 
L 490.013514 442.60287 
L 488.505405 442.60287 
z
" style="fill:#1f77b4;"/>
   </g>
   <g id="patch_112">
    <path clip-path="url(#pa95b89a9b0)" d="M 491.521622 768.96 
L 493.02973 768.96 
L 493.02973 436.75 
L 491.521622 436.75 
z
" style="fill:#1f77b4;"/>
   </g>
   <g id="patch_113">
    <path clip-path="url(#pa95b89a9b0)" d="M 494.537838 768.96 
L 496.045946 768.96 
L 496.045946 432.918737 
L 494.537838 432.918737 
z
" style="fill:#1f77b4;"/>
   </g>
   <g id="patch_114">
    <path clip-path="url(#pa95b89a9b0)" d="M 497.554054 768.96 
L 499.062162 768.96 
L 499.062162 431.340199 
L 497.554054 431.340199 
z
" style="fill:#1f77b4;"/>
   </g>
   <g id="patch_115">
    <path clip-path="url(#pa95b89a9b0)" d="M 500.57027 768.96 
L 502.078378 768.96 
L 502.078378 427.699194 
L 500.57027 427.699194 
z
" style="fill:#1f77b4;"/>
   </g>
   <g id="patch_116">
    <path clip-path="url(#pa95b89a9b0)" d="M 503.586486 768.96 
L 505.094595 768.96 
L 505.094595 422.509325 
L 503.586486 422.509325 
z
" style="fill:#1f77b4;"/>
   </g>
   <g id="patch_117">
    <path clip-path="url(#pa95b89a9b0)" d="M 506.602703 768.96 
L 508.110811 768.96 
L 508.110811 417.112718 
L 506.602703 417.112718 
z
" style="fill:#1f77b4;"/>
   </g>
   <g id="patch_118">
    <path clip-path="url(#pa95b89a9b0)" d="M 509.618919 768.96 
L 511.127027 768.96 
L 511.127027 411.889836 
L 509.618919 411.889836 
z
" style="fill:#1f77b4;"/>
   </g>
   <g id="patch_119">
    <path clip-path="url(#pa95b89a9b0)" d="M 512.635135 768.96 
L 514.143243 768.96 
L 514.143243 407.393401 
L 512.635135 407.393401 
z
" style="fill:#1f77b4;"/>
   </g>
   <g id="patch_120">
    <path clip-path="url(#pa95b89a9b0)" d="M 515.651351 768.96 
L 517.159459 768.96 
L 517.159459 405.389929 
L 515.651351 405.389929 
z
" style="fill:#1f77b4;"/>
   </g>
   <g id="patch_121">
    <path clip-path="url(#pa95b89a9b0)" d="M 518.667568 768.96 
L 520.175676 768.96 
L 520.175676 404.739363 
L 518.667568 404.739363 
z
" style="fill:#1f77b4;"/>
   </g>
   <g id="patch_122">
    <path clip-path="url(#pa95b89a9b0)" d="M 521.683784 768.96 
L 523.191892 768.96 
L 523.191892 402.512349 
L 521.683784 402.512349 
z
" style="fill:#1f77b4;"/>
   </g>
   <g id="patch_123">
    <path clip-path="url(#pa95b89a9b0)" d="M 524.7 768.96 
L 526.208108 768.96 
L 526.208108 396.703813 
L 524.7 396.703813 
z
" style="fill:#1f77b4;"/>
   </g>
   <g id="patch_124">
    <path clip-path="url(#pa95b89a9b0)" d="M 527.716216 768.96 
L 529.224324 768.96 
L 529.224324 391.082577 
L 527.716216 391.082577 
z
" style="fill:#1f77b4;"/>
   </g>
   <g id="patch_125">
    <path clip-path="url(#pa95b89a9b0)" d="M 530.732432 768.96 
L 532.240541 768.96 
L 532.240541 386.853177 
L 530.732432 386.853177 
z
" style="fill:#1f77b4;"/>
   </g>
   <g id="patch_126">
    <path clip-path="url(#pa95b89a9b0)" d="M 533.748649 768.96 
L 535.256757 768.96 
L 535.256757 381.012498 
L 533.748649 381.012498 
z
" style="fill:#1f77b4;"/>
   </g>
   <g id="patch_127">
    <path clip-path="url(#pa95b89a9b0)" d="M 536.764865 768.96 
L 538.272973 768.96 
L 538.272973 376.996677 
L 536.764865 376.996677 
z
" style="fill:#1f77b4;"/>
   </g>
   <g id="patch_128">
    <path clip-path="url(#pa95b89a9b0)" d="M 539.781081 768.96 
L 541.289189 768.96 
L 541.289189 373.252996 
L 539.781081 373.252996 
z
" style="fill:#1f77b4;"/>
   </g>
   <g id="patch_129">
    <path clip-path="url(#pa95b89a9b0)" d="M 542.797297 768.96 
L 544.305405 768.96 
L 544.305405 369.853725 
L 542.797297 369.853725 
z
" style="fill:#1f77b4;"/>
   </g>
   <g id="patch_130">
    <path clip-path="url(#pa95b89a9b0)" d="M 545.813514 768.96 
L 547.321622 768.96 
L 547.321622 365.518499 
L 545.813514 365.518499 
z
" style="fill:#1f77b4;"/>
   </g>
   <g id="patch_131">
    <path clip-path="url(#pa95b89a9b0)" d="M 548.82973 768.96 
L 550.337838 768.96 
L 550.337838 361.579347 
L 548.82973 361.579347 
z
" style="fill:#1f77b4;"/>
   </g>
   <g id="patch_132">
    <path clip-path="url(#pa95b89a9b0)" d="M 551.845946 768.96 
L 553.354054 768.96 
L 553.354054 357.49799 
L 551.845946 357.49799 
z
" style="fill:#1f77b4;"/>
   </g>
   <g id="patch_133">
    <path clip-path="url(#pa95b89a9b0)" d="M 554.862162 768.96 
L 556.37027 768.96 
L 556.37027 351.579312 
L 554.862162 351.579312 
z
" style="fill:#1f77b4;"/>
   </g>
   <g id="patch_134">
    <path clip-path="url(#pa95b89a9b0)" d="M 557.878378 768.96 
L 559.386486 768.96 
L 559.386486 348.325802 
L 557.878378 348.325802 
z
" style="fill:#1f77b4;"/>
   </g>
   <g id="patch_135">
    <path clip-path="url(#pa95b89a9b0)" d="M 560.894595 768.96 
L 562.402703 768.96 
L 562.402703 347.029991 
L 560.894595 347.029991 
z
" style="fill:#1f77b4;"/>
   </g>
   <g id="patch_136">
    <path clip-path="url(#pa95b89a9b0)" d="M 563.910811 768.96 
L 565.418919 768.96 
L 565.418919 344.734914 
L 563.910811 344.734914 
z
" style="fill:#1f77b4;"/>
   </g>
   <g id="patch_137">
    <path clip-path="url(#pa95b89a9b0)" d="M 566.927027 768.96 
L 568.435135 768.96 
L 568.435135 340.480891 
L 566.927027 340.480891 
z
" style="fill:#1f77b4;"/>
   </g>
   <g id="patch_138">
    <path clip-path="url(#pa95b89a9b0)" d="M 569.943243 768.96 
L 571.451351 768.96 
L 571.451351 336.712477 
L 569.943243 336.712477 
z
" style="fill:#1f77b4;"/>
   </g>
   <g id="patch_139">
    <path clip-path="url(#pa95b89a9b0)" d="M 572.959459 768.96 
L 574.467568 768.96 
L 574.467568 331.28883 
L 572.959459 331.28883 
z
" style="fill:#1f77b4;"/>
   </g>
   <g id="patch_140">
    <path clip-path="url(#pa95b89a9b0)" d="M 575.975676 768.96 
L 577.483784 768.96 
L 577.483784 327.763697 
L 575.975676 327.763697 
z
" style="fill:#1f77b4;"/>
   </g>
   <g id="patch_141">
    <path clip-path="url(#pa95b89a9b0)" d="M 578.991892 768.96 
L 580.5 768.96 
L 580.5 324.987571 
L 578.991892 324.987571 
z
" style="fill:#1f77b4;"/>
   </g>
   <g id="patch_142">
    <path clip-path="url(#pa95b89a9b0)" d="M 582.008108 768.96 
L 583.516216 768.96 
L 583.516216 323.725804 
L 582.008108 323.725804 
z
" style="fill:#1f77b4;"/>
   </g>
   <g id="patch_143">
    <path clip-path="url(#pa95b89a9b0)" d="M 585.024324 768.96 
L 586.532432 768.96 
L 586.532432 321.604752 
L 585.024324 321.604752 
z
" style="fill:#1f77b4;"/>
   </g>
   <g id="patch_144">
    <path clip-path="url(#pa95b89a9b0)" d="M 588.040541 768.96 
L 589.548649 768.96 
L 589.548649 319.011256 
L 588.040541 319.011256 
z
" style="fill:#1f77b4;"/>
   </g>
   <g id="patch_145">
    <path clip-path="url(#pa95b89a9b0)" d="M 591.056757 768.96 
L 592.564865 768.96 
L 592.564865 316.446348 
L 591.056757 316.446348 
z
" style="fill:#1f77b4;"/>
   </g>
   <g id="patch_146">
    <path clip-path="url(#pa95b89a9b0)" d="M 594.072973 768.96 
L 595.581081 768.96 
L 595.581081 313.690448 
L 594.072973 313.690448 
z
" style="fill:#1f77b4;"/>
   </g>
   <g id="patch_147">
    <path clip-path="url(#pa95b89a9b0)" d="M 597.089189 768.96 
L 598.597297 768.96 
L 598.597297 311.133278 
L 597.089189 311.133278 
z
" style="fill:#1f77b4;"/>
   </g>
   <g id="patch_148">
    <path clip-path="url(#pa95b89a9b0)" d="M 600.105405 768.96 
L 601.613514 768.96 
L 601.613514 309.386416 
L 600.105405 309.386416 
z
" style="fill:#1f77b4;"/>
   </g>
   <g id="patch_149">
    <path clip-path="url(#pa95b89a9b0)" d="M 603.121622 768.96 
L 604.62973 768.96 
L 604.62973 308.406101 
L 603.121622 308.406101 
z
" style="fill:#1f77b4;"/>
   </g>
   <g id="patch_150">
    <path clip-path="url(#pa95b89a9b0)" d="M 606.137838 768.96 
L 607.645946 768.96 
L 607.645946 307.6976 
L 606.137838 307.6976 
z
" style="fill:#1f77b4;"/>
   </g>
   <g id="patch_151">
    <path clip-path="url(#pa95b89a9b0)" d="M 609.154054 768.96 
L 610.662162 768.96 
L 610.662162 306.170915 
L 609.154054 306.170915 
z
" style="fill:#1f77b4;"/>
   </g>
   <g id="patch_152">
    <path clip-path="url(#pa95b89a9b0)" d="M 612.17027 768.96 
L 613.678378 768.96 
L 613.678378 304.578069 
L 612.17027 304.578069 
z
" style="fill:#1f77b4;"/>
   </g>
   <g id="patch_153">
    <path clip-path="url(#pa95b89a9b0)" d="M 615.186486 768.96 
L 616.694595 768.96 
L 616.694595 302.116815 
L 615.186486 302.116815 
z
" style="fill:#1f77b4;"/>
   </g>
   <g id="patch_154">
    <path clip-path="url(#pa95b89a9b0)" d="M 618.202703 768.96 
L 619.710811 768.96 
L 619.710811 299.45276 
L 618.202703 299.45276 
z
" style="fill:#1f77b4;"/>
   </g>
   <g id="patch_155">
    <path clip-path="url(#pa95b89a9b0)" d="M 621.218919 768.96 
L 622.727027 768.96 
L 622.727027 297.151738 
L 621.218919 297.151738 
z
" style="fill:#1f77b4;"/>
   </g>
   <g id="patch_156">
    <path clip-path="url(#pa95b89a9b0)" d="M 624.235135 768.96 
L 625.743243 768.96 
L 625.743243 295.54377 
L 624.235135 295.54377 
z
" style="fill:#1f77b4;"/>
   </g>
   <g id="patch_157">
    <path clip-path="url(#pa95b89a9b0)" d="M 627.251351 768.96 
L 628.759459 768.96 
L 628.759459 293.335651 
L 627.251351 293.335651 
z
" style="fill:#1f77b4;"/>
   </g>
   <g id="patch_158">
    <path clip-path="url(#pa95b89a9b0)" d="M 630.267568 768.96 
L 631.775676 768.96 
L 631.775676 290.840325 
L 630.267568 290.840325 
z
" style="fill:#1f77b4;"/>
   </g>
   <g id="patch_159">
    <path clip-path="url(#pa95b89a9b0)" d="M 633.283784 768.96 
L 634.791892 768.96 
L 634.791892 287.831317 
L 633.283784 287.831317 
z
" style="fill:#1f77b4;"/>
   </g>
   <g id="patch_160">
    <path clip-path="url(#pa95b89a9b0)" d="M 636.3 768.96 
L 637.808108 768.96 
L 637.808108 285.763368 
L 636.3 285.763368 
z
" style="fill:#1f77b4;"/>
   </g>
   <g id="patch_161">
    <path clip-path="url(#pa95b89a9b0)" d="M 639.316216 768.96 
L 640.824324 768.96 
L 640.824324 283.800973 
L 639.316216 283.800973 
z
" style="fill:#1f77b4;"/>
   </g>
   <g id="patch_162">
    <path clip-path="url(#pa95b89a9b0)" d="M 642.332432 768.96 
L 643.840541 768.96 
L 643.840541 282.612046 
L 642.332432 282.612046 
z
" style="fill:#1f77b4;"/>
   </g>
   <g id="patch_163">
    <path clip-path="url(#pa95b89a9b0)" d="M 645.348649 768.96 
L 646.856757 768.96 
L 646.856757 281.445164 
L 645.348649 281.445164 
z
" style="fill:#1f77b4;"/>
   </g>
   <g id="patch_164">
    <path clip-path="url(#pa95b89a9b0)" d="M 648.364865 768.96 
L 649.872973 768.96 
L 649.872973 277.936972 
L 648.364865 277.936972 
z
" style="fill:#1f77b4;"/>
   </g>
   <g id="patch_165">
    <path clip-path="url(#pa95b89a9b0)" d="M 651.381081 768.96 
L 652.889189 768.96 
L 652.889189 275.2367 
L 651.381081 275.2367 
z
" style="fill:#1f77b4;"/>
   </g>
   <g id="patch_166">
    <path clip-path="url(#pa95b89a9b0)" d="M 654.397297 768.96 
L 655.905405 768.96 
L 655.905405 273.37576 
L 654.397297 273.37576 
z
" style="fill:#1f77b4;"/>
   </g>
   <g id="patch_167">
    <path clip-path="url(#pa95b89a9b0)" d="M 657.413514 768.96 
L 658.921622 768.96 
L 658.921622 270.916569 
L 657.413514 270.916569 
z
" style="fill:#1f77b4;"/>
   </g>
   <g id="patch_168">
    <path clip-path="url(#pa95b89a9b0)" d="M 660.42973 768.96 
L 661.937838 768.96 
L 661.937838 269.751751 
L 660.42973 269.751751 
z
" style="fill:#1f77b4;"/>
   </g>
   <g id="patch_169">
    <path clip-path="url(#pa95b89a9b0)" d="M 663.445946 768.96 
L 664.954054 768.96 
L 664.954054 267.913616 
L 663.445946 267.913616 
z
" style="fill:#1f77b4;"/>
   </g>
   <g id="patch_170">
    <path clip-path="url(#pa95b89a9b0)" d="M 666.462162 768.96 
L 667.97027 768.96 
L 667.97027 267.134364 
L 666.462162 267.134364 
z
" style="fill:#1f77b4;"/>
   </g>
   <g id="patch_171">
    <path clip-path="url(#pa95b89a9b0)" d="M 669.478378 768.96 
L 670.986486 768.96 
L 670.986486 266.145823 
L 669.478378 266.145823 
z
" style="fill:#1f77b4;"/>
   </g>
   <g id="patch_172">
    <path clip-path="url(#pa95b89a9b0)" d="M 672.494595 768.96 
L 674.002703 768.96 
L 674.002703 264.945928 
L 672.494595 264.945928 
z
" style="fill:#1f77b4;"/>
   </g>
   <g id="patch_173">
    <path clip-path="url(#pa95b89a9b0)" d="M 675.510811 768.96 
L 677.018919 768.96 
L 677.018919 263.517387 
L 675.510811 263.517387 
z
" style="fill:#1f77b4;"/>
   </g>
   <g id="patch_174">
    <path clip-path="url(#pa95b89a9b0)" d="M 678.527027 768.96 
L 680.035135 768.96 
L 680.035135 261.778046 
L 678.527027 261.778046 
z
" style="fill:#1f77b4;"/>
   </g>
   <g id="patch_175">
    <path clip-path="url(#pa95b89a9b0)" d="M 681.543243 768.96 
L 683.051351 768.96 
L 683.051351 257.727367 
L 681.543243 257.727367 
z
" style="fill:#1f77b4;"/>
   </g>
   <g id="patch_176">
    <path clip-path="url(#pa95b89a9b0)" d="M 684.559459 768.96 
L 686.067568 768.96 
L 686.067568 253.026908 
L 684.559459 253.026908 
z
" style="fill:#1f77b4;"/>
   </g>
   <g id="patch_177">
    <path clip-path="url(#pa95b89a9b0)" d="M 687.575676 768.96 
L 689.083784 768.96 
L 689.083784 252.636319 
L 687.575676 252.636319 
z
" style="fill:#1f77b4;"/>
   </g>
   <g id="patch_178">
    <path clip-path="url(#pa95b89a9b0)" d="M 690.591892 768.96 
L 692.1 768.96 
L 692.1 251.648728 
L 690.591892 251.648728 
z
" style="fill:#1f77b4;"/>
   </g>
   <g id="patch_179">
    <path clip-path="url(#pa95b89a9b0)" d="M 693.608108 768.96 
L 695.116216 768.96 
L 695.116216 250.419322 
L 693.608108 250.419322 
z
" style="fill:#1f77b4;"/>
   </g>
   <g id="patch_180">
    <path clip-path="url(#pa95b89a9b0)" d="M 696.624324 768.96 
L 698.132432 768.96 
L 698.132432 249.237536 
L 696.624324 249.237536 
z
" style="fill:#1f77b4;"/>
   </g>
   <g id="patch_181">
    <path clip-path="url(#pa95b89a9b0)" d="M 699.640541 768.96 
L 701.148649 768.96 
L 701.148649 248.16611 
L 699.640541 248.16611 
z
" style="fill:#1f77b4;"/>
   </g>
   <g id="patch_182">
    <path clip-path="url(#pa95b89a9b0)" d="M 702.656757 768.96 
L 704.164865 768.96 
L 704.164865 247.09919 
L 702.656757 247.09919 
z
" style="fill:#1f77b4;"/>
   </g>
   <g id="patch_183">
    <path clip-path="url(#pa95b89a9b0)" d="M 705.672973 768.96 
L 707.181081 768.96 
L 707.181081 246.309812 
L 705.672973 246.309812 
z
" style="fill:#1f77b4;"/>
   </g>
   <g id="patch_184">
    <path clip-path="url(#pa95b89a9b0)" d="M 708.689189 768.96 
L 710.197297 768.96 
L 710.197297 245.924869 
L 708.689189 245.924869 
z
" style="fill:#1f77b4;"/>
   </g>
   <g id="patch_185">
    <path clip-path="url(#pa95b89a9b0)" d="M 711.705405 768.96 
L 713.213514 768.96 
L 713.213514 245.856183 
L 711.705405 245.856183 
z
" style="fill:#1f77b4;"/>
   </g>
   <g id="patch_186">
    <path clip-path="url(#pa95b89a9b0)" d="M 714.721622 768.96 
L 716.22973 768.96 
L 716.22973 245.235127 
L 714.721622 245.235127 
z
" style="fill:#1f77b4;"/>
   </g>
   <g id="patch_187">
    <path clip-path="url(#pa95b89a9b0)" d="M 717.737838 768.96 
L 719.245946 768.96 
L 719.245946 244.127864 
L 717.737838 244.127864 
z
" style="fill:#1f77b4;"/>
   </g>
   <g id="patch_188">
    <path clip-path="url(#pa95b89a9b0)" d="M 720.754054 768.96 
L 722.262162 768.96 
L 722.262162 243.017153 
L 720.754054 243.017153 
z
" style="fill:#1f77b4;"/>
   </g>
   <g id="patch_189">
    <path clip-path="url(#pa95b89a9b0)" d="M 723.77027 768.96 
L 725.278378 768.96 
L 725.278378 242.029997 
L 723.77027 242.029997 
z
" style="fill:#1f77b4;"/>
   </g>
   <g id="patch_190">
    <path clip-path="url(#pa95b89a9b0)" d="M 726.786486 768.96 
L 728.294595 768.96 
L 728.294595 241.213579 
L 726.786486 241.213579 
z
" style="fill:#1f77b4;"/>
   </g>
   <g id="patch_191">
    <path clip-path="url(#pa95b89a9b0)" d="M 729.802703 768.96 
L 731.310811 768.96 
L 731.310811 240.657979 
L 729.802703 240.657979 
z
" style="fill:#1f77b4;"/>
   </g>
   <g id="patch_192">
    <path clip-path="url(#pa95b89a9b0)" d="M 732.818919 768.96 
L 734.327027 768.96 
L 734.327027 239.610715 
L 732.818919 239.610715 
z
" style="fill:#1f77b4;"/>
   </g>
   <g id="patch_193">
    <path clip-path="url(#pa95b89a9b0)" d="M 735.835135 768.96 
L 737.343243 768.96 
L 737.343243 238.740189 
L 735.835135 238.740189 
z
" style="fill:#1f77b4;"/>
   </g>
   <g id="patch_194">
    <path clip-path="url(#pa95b89a9b0)" d="M 738.851351 768.96 
L 740.359459 768.96 
L 740.359459 237.907455 
L 738.851351 237.907455 
z
" style="fill:#1f77b4;"/>
   </g>
   <g id="patch_195">
    <path clip-path="url(#pa95b89a9b0)" d="M 741.867568 768.96 
L 743.375676 768.96 
L 743.375676 237.081833 
L 741.867568 237.081833 
z
" style="fill:#1f77b4;"/>
   </g>
   <g id="patch_196">
    <path clip-path="url(#pa95b89a9b0)" d="M 744.883784 768.96 
L 746.391892 768.96 
L 746.391892 236.248284 
L 744.883784 236.248284 
z
" style="fill:#1f77b4;"/>
   </g>
   <g id="patch_197">
    <path clip-path="url(#pa95b89a9b0)" d="M 747.9 768.96 
L 749.408108 768.96 
L 749.408108 235.560768 
L 747.9 235.560768 
z
" style="fill:#1f77b4;"/>
   </g>
   <g id="patch_198">
    <path clip-path="url(#pa95b89a9b0)" d="M 750.916216 768.96 
L 752.424324 768.96 
L 752.424324 235.093022 
L 750.916216 235.093022 
z
" style="fill:#1f77b4;"/>
   </g>
   <g id="patch_199">
    <path clip-path="url(#pa95b89a9b0)" d="M 753.932432 768.96 
L 755.440541 768.96 
L 755.440541 234.390656 
L 753.932432 234.390656 
z
" style="fill:#1f77b4;"/>
   </g>
   <g id="patch_200">
    <path clip-path="url(#pa95b89a9b0)" d="M 756.948649 768.96 
L 758.456757 768.96 
L 758.456757 233.452476 
L 756.948649 233.452476 
z
" style="fill:#1f77b4;"/>
   </g>
   <g id="patch_201">
    <path clip-path="url(#pa95b89a9b0)" d="M 759.964865 768.96 
L 761.472973 768.96 
L 761.472973 232.573371 
L 759.964865 232.573371 
z
" style="fill:#1f77b4;"/>
   </g>
   <g id="patch_202">
    <path clip-path="url(#pa95b89a9b0)" d="M 762.981081 768.96 
L 764.489189 768.96 
L 764.489189 231.937139 
L 762.981081 231.937139 
z
" style="fill:#1f77b4;"/>
   </g>
   <g id="patch_203">
    <path clip-path="url(#pa95b89a9b0)" d="M 765.997297 768.96 
L 767.505405 768.96 
L 767.505405 231.277831 
L 765.997297 231.277831 
z
" style="fill:#1f77b4;"/>
   </g>
   <g id="patch_204">
    <path clip-path="url(#pa95b89a9b0)" d="M 769.013514 768.96 
L 770.521622 768.96 
L 770.521622 230.872744 
L 769.013514 230.872744 
z
" style="fill:#1f77b4;"/>
   </g>
   <g id="patch_205">
    <path clip-path="url(#pa95b89a9b0)" d="M 772.02973 768.96 
L 773.537838 768.96 
L 773.537838 230.637826 
L 772.02973 230.637826 
z
" style="fill:#1f77b4;"/>
   </g>
   <g id="patch_206">
    <path clip-path="url(#pa95b89a9b0)" d="M 775.045946 768.96 
L 776.554054 768.96 
L 776.554054 230.239255 
L 775.045946 230.239255 
z
" style="fill:#1f77b4;"/>
   </g>
   <g id="patch_207">
    <path clip-path="url(#pa95b89a9b0)" d="M 778.062162 768.96 
L 779.57027 768.96 
L 779.57027 229.345327 
L 778.062162 229.345327 
z
" style="fill:#1f77b4;"/>
   </g>
   <g id="patch_208">
    <path clip-path="url(#pa95b89a9b0)" d="M 781.078378 768.96 
L 782.586486 768.96 
L 782.586486 227.85866 
L 781.078378 227.85866 
z
" style="fill:#1f77b4;"/>
   </g>
   <g id="patch_209">
    <path clip-path="url(#pa95b89a9b0)" d="M 784.094595 768.96 
L 785.602703 768.96 
L 785.602703 227.074657 
L 784.094595 227.074657 
z
" style="fill:#1f77b4;"/>
   </g>
   <g id="patch_210">
    <path clip-path="url(#pa95b89a9b0)" d="M 787.110811 768.96 
L 788.618919 768.96 
L 788.618919 225.221943 
L 787.110811 225.221943 
z
" style="fill:#1f77b4;"/>
   </g>
   <g id="patch_211">
    <path clip-path="url(#pa95b89a9b0)" d="M 790.127027 768.96 
L 791.635135 768.96 
L 791.635135 224.614245 
L 790.127027 224.614245 
z
" style="fill:#1f77b4;"/>
   </g>
   <g id="patch_212">
    <path clip-path="url(#pa95b89a9b0)" d="M 793.143243 768.96 
L 794.651351 768.96 
L 794.651351 224.165584 
L 793.143243 224.165584 
z
" style="fill:#1f77b4;"/>
   </g>
   <g id="patch_213">
    <path clip-path="url(#pa95b89a9b0)" d="M 796.159459 768.96 
L 797.667568 768.96 
L 797.667568 223.553922 
L 796.159459 223.553922 
z
" style="fill:#1f77b4;"/>
   </g>
   <g id="patch_214">
    <path clip-path="url(#pa95b89a9b0)" d="M 799.175676 768.96 
L 800.683784 768.96 
L 800.683784 222.719233 
L 799.175676 222.719233 
z
" style="fill:#1f77b4;"/>
   </g>
   <g id="patch_215">
    <path clip-path="url(#pa95b89a9b0)" d="M 802.191892 768.96 
L 803.7 768.96 
L 803.7 221.956298 
L 802.191892 221.956298 
z
" style="fill:#1f77b4;"/>
   </g>
   <g id="patch_216">
    <path clip-path="url(#pa95b89a9b0)" d="M 805.208108 768.96 
L 806.716216 768.96 
L 806.716216 221.156495 
L 805.208108 221.156495 
z
" style="fill:#1f77b4;"/>
   </g>
   <g id="patch_217">
    <path clip-path="url(#pa95b89a9b0)" d="M 808.224324 768.96 
L 809.732432 768.96 
L 809.732432 220.285644 
L 808.224324 220.285644 
z
" style="fill:#1f77b4;"/>
   </g>
   <g id="patch_218">
    <path clip-path="url(#pa95b89a9b0)" d="M 811.240541 768.96 
L 812.748649 768.96 
L 812.748649 218.79466 
L 811.240541 218.79466 
z
" style="fill:#1f77b4;"/>
   </g>
   <g id="patch_219">
    <path clip-path="url(#pa95b89a9b0)" d="M 814.256757 768.96 
L 815.764865 768.96 
L 815.764865 218.275928 
L 814.256757 218.275928 
z
" style="fill:#1f77b4;"/>
   </g>
   <g id="patch_220">
    <path clip-path="url(#pa95b89a9b0)" d="M 817.272973 768.96 
L 818.781081 768.96 
L 818.781081 217.68099 
L 817.272973 217.68099 
z
" style="fill:#1f77b4;"/>
   </g>
   <g id="patch_221">
    <path clip-path="url(#pa95b89a9b0)" d="M 820.289189 768.96 
L 821.797297 768.96 
L 821.797297 217.102694 
L 820.289189 217.102694 
z
" style="fill:#1f77b4;"/>
   </g>
   <g id="patch_222">
    <path clip-path="url(#pa95b89a9b0)" d="M 823.305405 768.96 
L 824.813514 768.96 
L 824.813514 214.862621 
L 823.305405 214.862621 
z
" style="fill:#1f77b4;"/>
   </g>
   <g id="patch_223">
    <path clip-path="url(#pa95b89a9b0)" d="M 826.321622 768.96 
L 827.82973 768.96 
L 827.82973 212.909863 
L 826.321622 212.909863 
z
" style="fill:#1f77b4;"/>
   </g>
   <g id="patch_224">
    <path clip-path="url(#pa95b89a9b0)" d="M 829.337838 768.96 
L 830.845946 768.96 
L 830.845946 211.290059 
L 829.337838 211.290059 
z
" style="fill:#1f77b4;"/>
   </g>
   <g id="patch_225">
    <path clip-path="url(#pa95b89a9b0)" d="M 832.354054 768.96 
L 833.862162 768.96 
L 833.862162 209.016131 
L 832.354054 209.016131 
z
" style="fill:#1f77b4;"/>
   </g>
   <g id="patch_226">
    <path clip-path="url(#pa95b89a9b0)" d="M 835.37027 768.96 
L 836.878378 768.96 
L 836.878378 207.468081 
L 835.37027 207.468081 
z
" style="fill:#1f77b4;"/>
   </g>
   <g id="patch_227">
    <path clip-path="url(#pa95b89a9b0)" d="M 838.386486 768.96 
L 839.894595 768.96 
L 839.894595 206.764303 
L 838.386486 206.764303 
z
" style="fill:#1f77b4;"/>
   </g>
   <g id="patch_228">
    <path clip-path="url(#pa95b89a9b0)" d="M 841.402703 768.96 
L 842.910811 768.96 
L 842.910811 205.760422 
L 841.402703 205.760422 
z
" style="fill:#1f77b4;"/>
   </g>
   <g id="patch_229">
    <path clip-path="url(#pa95b89a9b0)" d="M 844.418919 768.96 
L 845.927027 768.96 
L 845.927027 204.806197 
L 844.418919 204.806197 
z
" style="fill:#1f77b4;"/>
   </g>
   <g id="patch_230">
    <path clip-path="url(#pa95b89a9b0)" d="M 847.435135 768.96 
L 848.943243 768.96 
L 848.943243 203.897745 
L 847.435135 203.897745 
z
" style="fill:#1f77b4;"/>
   </g>
   <g id="patch_231">
    <path clip-path="url(#pa95b89a9b0)" d="M 850.451351 768.96 
L 851.959459 768.96 
L 851.959459 203.018966 
L 850.451351 203.018966 
z
" style="fill:#1f77b4;"/>
   </g>
   <g id="patch_232">
    <path clip-path="url(#pa95b89a9b0)" d="M 853.467568 768.96 
L 854.975676 768.96 
L 854.975676 202.142006 
L 853.467568 202.142006 
z
" style="fill:#1f77b4;"/>
   </g>
   <g id="patch_233">
    <path clip-path="url(#pa95b89a9b0)" d="M 856.483784 768.96 
L 857.991892 768.96 
L 857.991892 201.560588 
L 856.483784 201.560588 
z
" style="fill:#1f77b4;"/>
   </g>
   <g id="patch_234">
    <path clip-path="url(#pa95b89a9b0)" d="M 859.5 768.96 
L 861.008108 768.96 
L 861.008108 200.830258 
L 859.5 200.830258 
z
" style="fill:#1f77b4;"/>
   </g>
   <g id="patch_235">
    <path clip-path="url(#pa95b89a9b0)" d="M 862.516216 768.96 
L 864.024324 768.96 
L 864.024324 199.817283 
L 862.516216 199.817283 
z
" style="fill:#1f77b4;"/>
   </g>
   <g id="patch_236">
    <path clip-path="url(#pa95b89a9b0)" d="M 865.532432 768.96 
L 867.040541 768.96 
L 867.040541 198.846959 
L 865.532432 198.846959 
z
" style="fill:#1f77b4;"/>
   </g>
   <g id="patch_237">
    <path clip-path="url(#pa95b89a9b0)" d="M 868.548649 768.96 
L 870.056757 768.96 
L 870.056757 197.791305 
L 868.548649 197.791305 
z
" style="fill:#1f77b4;"/>
   </g>
   <g id="patch_238">
    <path clip-path="url(#pa95b89a9b0)" d="M 871.564865 768.96 
L 873.072973 768.96 
L 873.072973 196.594261 
L 871.564865 196.594261 
z
" style="fill:#1f77b4;"/>
   </g>
   <g id="patch_239">
    <path clip-path="url(#pa95b89a9b0)" d="M 874.581081 768.96 
L 876.089189 768.96 
L 876.089189 194.839717 
L 874.581081 194.839717 
z
" style="fill:#1f77b4;"/>
   </g>
   <g id="patch_240">
    <path clip-path="url(#pa95b89a9b0)" d="M 877.597297 768.96 
L 879.105405 768.96 
L 879.105405 192.051999 
L 877.597297 192.051999 
z
" style="fill:#1f77b4;"/>
   </g>
   <g id="patch_241">
    <path clip-path="url(#pa95b89a9b0)" d="M 880.613514 768.96 
L 882.121622 768.96 
L 882.121622 190.809997 
L 880.613514 190.809997 
z
" style="fill:#1f77b4;"/>
   </g>
   <g id="patch_242">
    <path clip-path="url(#pa95b89a9b0)" d="M 883.62973 768.96 
L 885.137838 768.96 
L 885.137838 189.79732 
L 883.62973 189.79732 
z
" style="fill:#1f77b4;"/>
   </g>
   <g id="patch_243">
    <path clip-path="url(#pa95b89a9b0)" d="M 886.645946 768.96 
L 888.154054 768.96 
L 888.154054 188.856479 
L 886.645946 188.856479 
z
" style="fill:#1f77b4;"/>
   </g>
   <g id="patch_244">
    <path clip-path="url(#pa95b89a9b0)" d="M 889.662162 768.96 
L 891.17027 768.96 
L 891.17027 187.981284 
L 889.662162 187.981284 
z
" style="fill:#1f77b4;"/>
   </g>
   <g id="patch_245">
    <path clip-path="url(#pa95b89a9b0)" d="M 892.678378 768.96 
L 894.186486 768.96 
L 894.186486 187.101528 
L 892.678378 187.101528 
z
" style="fill:#1f77b4;"/>
   </g>
   <g id="patch_246">
    <path clip-path="url(#pa95b89a9b0)" d="M 895.694595 768.96 
L 897.202703 768.96 
L 897.202703 186.30539 
L 895.694595 186.30539 
z
" style="fill:#1f77b4;"/>
   </g>
   <g id="patch_247">
    <path clip-path="url(#pa95b89a9b0)" d="M 898.710811 768.96 
L 900.218919 768.96 
L 900.218919 185.763826 
L 898.710811 185.763826 
z
" style="fill:#1f77b4;"/>
   </g>
   <g id="patch_248">
    <path clip-path="url(#pa95b89a9b0)" d="M 901.727027 768.96 
L 903.235135 768.96 
L 903.235135 185.381571 
L 901.727027 185.381571 
z
" style="fill:#1f77b4;"/>
   </g>
   <g id="patch_249">
    <path clip-path="url(#pa95b89a9b0)" d="M 904.743243 768.96 
L 906.251351 768.96 
L 906.251351 184.893436 
L 904.743243 184.893436 
z
" style="fill:#1f77b4;"/>
   </g>
   <g id="patch_250">
    <path clip-path="url(#pa95b89a9b0)" d="M 907.759459 768.96 
L 909.267568 768.96 
L 909.267568 183.908044 
L 907.759459 183.908044 
z
" style="fill:#1f77b4;"/>
   </g>
   <g id="patch_251">
    <path clip-path="url(#pa95b89a9b0)" d="M 910.775676 768.96 
L 912.283784 768.96 
L 912.283784 183.036731 
L 910.775676 183.036731 
z
" style="fill:#1f77b4;"/>
   </g>
   <g id="patch_252">
    <path clip-path="url(#pa95b89a9b0)" d="M 913.791892 768.96 
L 915.3 768.96 
L 915.3 182.207852 
L 913.791892 182.207852 
z
" style="fill:#1f77b4;"/>
   </g>
   <g id="patch_253">
    <path clip-path="url(#pa95b89a9b0)" d="M 916.808108 768.96 
L 918.316216 768.96 
L 918.316216 181.46726 
L 916.808108 181.46726 
z
" style="fill:#1f77b4;"/>
   </g>
   <g id="patch_254">
    <path clip-path="url(#pa95b89a9b0)" d="M 919.824324 768.96 
L 921.332432 768.96 
L 921.332432 180.919262 
L 919.824324 180.919262 
z
" style="fill:#1f77b4;"/>
   </g>
   <g id="patch_255">
    <path clip-path="url(#pa95b89a9b0)" d="M 922.840541 768.96 
L 924.348649 768.96 
L 924.348649 180.29313 
L 922.840541 180.29313 
z
" style="fill:#1f77b4;"/>
   </g>
   <g id="patch_256">
    <path clip-path="url(#pa95b89a9b0)" d="M 925.856757 768.96 
L 927.364865 768.96 
L 927.364865 179.434767 
L 925.856757 179.434767 
z
" style="fill:#1f77b4;"/>
   </g>
   <g id="patch_257">
    <path clip-path="url(#pa95b89a9b0)" d="M 928.872973 768.96 
L 930.381081 768.96 
L 930.381081 178.618267 
L 928.872973 178.618267 
z
" style="fill:#1f77b4;"/>
   </g>
   <g id="patch_258">
    <path clip-path="url(#pa95b89a9b0)" d="M 931.889189 768.96 
L 933.397297 768.96 
L 933.397297 177.798374 
L 931.889189 177.798374 
z
" style="fill:#1f77b4;"/>
   </g>
   <g id="patch_259">
    <path clip-path="url(#pa95b89a9b0)" d="M 934.905405 768.96 
L 936.413514 768.96 
L 936.413514 176.950138 
L 934.905405 176.950138 
z
" style="fill:#1f77b4;"/>
   </g>
   <g id="patch_260">
    <path clip-path="url(#pa95b89a9b0)" d="M 937.921622 768.96 
L 939.42973 768.96 
L 939.42973 176.130571 
L 937.921622 176.130571 
z
" style="fill:#1f77b4;"/>
   </g>
   <g id="patch_261">
    <path clip-path="url(#pa95b89a9b0)" d="M 940.937838 768.96 
L 942.445946 768.96 
L 942.445946 175.542501 
L 940.937838 175.542501 
z
" style="fill:#1f77b4;"/>
   </g>
   <g id="patch_262">
    <path clip-path="url(#pa95b89a9b0)" d="M 943.954054 768.96 
L 945.462162 768.96 
L 945.462162 174.979707 
L 943.954054 174.979707 
z
" style="fill:#1f77b4;"/>
   </g>
   <g id="patch_263">
    <path clip-path="url(#pa95b89a9b0)" d="M 946.97027 768.96 
L 948.478378 768.96 
L 948.478378 174.024314 
L 946.97027 174.024314 
z
" style="fill:#1f77b4;"/>
   </g>
   <g id="patch_264">
    <path clip-path="url(#pa95b89a9b0)" d="M 949.986486 768.96 
L 951.494595 768.96 
L 951.494595 173.326074 
L 949.986486 173.326074 
z
" style="fill:#1f77b4;"/>
   </g>
   <g id="patch_265">
    <path clip-path="url(#pa95b89a9b0)" d="M 953.002703 768.96 
L 954.510811 768.96 
L 954.510811 172.305769 
L 953.002703 172.305769 
z
" style="fill:#1f77b4;"/>
   </g>
   <g id="patch_266">
    <path clip-path="url(#pa95b89a9b0)" d="M 956.018919 768.96 
L 957.527027 768.96 
L 957.527027 171.329635 
L 956.018919 171.329635 
z
" style="fill:#1f77b4;"/>
   </g>
   <g id="patch_267">
    <path clip-path="url(#pa95b89a9b0)" d="M 959.035135 768.96 
L 960.543243 768.96 
L 960.543243 170.559207 
L 959.035135 170.559207 
z
" style="fill:#1f77b4;"/>
   </g>
   <g id="patch_268">
    <path clip-path="url(#pa95b89a9b0)" d="M 962.051351 768.96 
L 963.559459 768.96 
L 963.559459 170.057959 
L 962.051351 170.057959 
z
" style="fill:#1f77b4;"/>
   </g>
   <g id="patch_269">
    <path clip-path="url(#pa95b89a9b0)" d="M 965.067568 768.96 
L 966.575676 768.96 
L 966.575676 169.418496 
L 965.067568 169.418496 
z
" style="fill:#1f77b4;"/>
   </g>
   <g id="patch_270">
    <path clip-path="url(#pa95b89a9b0)" d="M 968.083784 768.96 
L 969.591892 768.96 
L 969.591892 168.666584 
L 968.083784 168.666584 
z
" style="fill:#1f77b4;"/>
   </g>
   <g id="patch_271">
    <path clip-path="url(#pa95b89a9b0)" d="M 971.1 768.96 
L 972.608108 768.96 
L 972.608108 168.117934 
L 971.1 168.117934 
z
" style="fill:#1f77b4;"/>
   </g>
   <g id="patch_272">
    <path clip-path="url(#pa95b89a9b0)" d="M 974.116216 768.96 
L 975.624324 768.96 
L 975.624324 167.736467 
L 974.116216 167.736467 
z
" style="fill:#1f77b4;"/>
   </g>
   <g id="patch_273">
    <path clip-path="url(#pa95b89a9b0)" d="M 977.132432 768.96 
L 978.640541 768.96 
L 978.640541 166.79492 
L 977.132432 166.79492 
z
" style="fill:#1f77b4;"/>
   </g>
   <g id="patch_274">
    <path clip-path="url(#pa95b89a9b0)" d="M 980.148649 768.96 
L 981.656757 768.96 
L 981.656757 165.571379 
L 980.148649 165.571379 
z
" style="fill:#1f77b4;"/>
   </g>
   <g id="patch_275">
    <path clip-path="url(#pa95b89a9b0)" d="M 983.164865 768.96 
L 984.672973 768.96 
L 984.672973 165.157957 
L 983.164865 165.157957 
z
" style="fill:#1f77b4;"/>
   </g>
   <g id="patch_276">
    <path clip-path="url(#pa95b89a9b0)" d="M 986.181081 768.96 
L 987.689189 768.96 
L 987.689189 164.355168 
L 986.181081 164.355168 
z
" style="fill:#1f77b4;"/>
   </g>
   <g id="patch_277">
    <path clip-path="url(#pa95b89a9b0)" d="M 989.197297 768.96 
L 990.705405 768.96 
L 990.705405 163.903575 
L 989.197297 163.903575 
z
" style="fill:#1f77b4;"/>
   </g>
   <g id="patch_278">
    <path clip-path="url(#pa95b89a9b0)" d="M 992.213514 768.96 
L 993.721622 768.96 
L 993.721622 162.970037 
L 992.213514 162.970037 
z
" style="fill:#1f77b4;"/>
   </g>
   <g id="patch_279">
    <path clip-path="url(#pa95b89a9b0)" d="M 995.22973 768.96 
L 996.737838 768.96 
L 996.737838 162.332013 
L 995.22973 162.332013 
z
" style="fill:#1f77b4;"/>
   </g>
   <g id="patch_280">
    <path clip-path="url(#pa95b89a9b0)" d="M 998.245946 768.96 
L 999.754054 768.96 
L 999.754054 161.711284 
L 998.245946 161.711284 
z
" style="fill:#1f77b4;"/>
   </g>
   <g id="patch_281">
    <path clip-path="url(#pa95b89a9b0)" d="M 1001.262162 768.96 
L 1002.77027 768.96 
L 1002.77027 161.280487 
L 1001.262162 161.280487 
z
" style="fill:#1f77b4;"/>
   </g>
   <g id="patch_282">
    <path clip-path="url(#pa95b89a9b0)" d="M 1004.278378 768.96 
L 1005.786486 768.96 
L 1005.786486 160.97205 
L 1004.278378 160.97205 
z
" style="fill:#1f77b4;"/>
   </g>
   <g id="patch_283">
    <path clip-path="url(#pa95b89a9b0)" d="M 1007.294595 768.96 
L 1008.802703 768.96 
L 1008.802703 160.543669 
L 1007.294595 160.543669 
z
" style="fill:#1f77b4;"/>
   </g>
   <g id="patch_284">
    <path clip-path="url(#pa95b89a9b0)" d="M 1010.310811 768.96 
L 1011.818919 768.96 
L 1011.818919 159.903582 
L 1010.310811 159.903582 
z
" style="fill:#1f77b4;"/>
   </g>
   <g id="patch_285">
    <path clip-path="url(#pa95b89a9b0)" d="M 1013.327027 768.96 
L 1014.835135 768.96 
L 1014.835135 159.205506 
L 1013.327027 159.205506 
z
" style="fill:#1f77b4;"/>
   </g>
   <g id="patch_286">
    <path clip-path="url(#pa95b89a9b0)" d="M 1016.343243 768.96 
L 1017.851351 768.96 
L 1017.851351 158.695163 
L 1016.343243 158.695163 
z
" style="fill:#1f77b4;"/>
   </g>
   <g id="patch_287">
    <path clip-path="url(#pa95b89a9b0)" d="M 1019.359459 768.96 
L 1020.867568 768.96 
L 1020.867568 157.842881 
L 1019.359459 157.842881 
z
" style="fill:#1f77b4;"/>
   </g>
   <g id="patch_288">
    <path clip-path="url(#pa95b89a9b0)" d="M 1022.375676 768.96 
L 1023.883784 768.96 
L 1023.883784 157.34652 
L 1022.375676 157.34652 
z
" style="fill:#1f77b4;"/>
   </g>
   <g id="patch_289">
    <path clip-path="url(#pa95b89a9b0)" d="M 1025.391892 768.96 
L 1026.9 768.96 
L 1026.9 157.055648 
L 1025.391892 157.055648 
z
" style="fill:#1f77b4;"/>
   </g>
   <g id="patch_290">
    <path clip-path="url(#pa95b89a9b0)" d="M 1028.408108 768.96 
L 1029.916216 768.96 
L 1029.916216 156.582554 
L 1028.408108 156.582554 
z
" style="fill:#1f77b4;"/>
   </g>
   <g id="patch_291">
    <path clip-path="url(#pa95b89a9b0)" d="M 1031.424324 768.96 
L 1032.932432 768.96 
L 1032.932432 156.022827 
L 1031.424324 156.022827 
z
" style="fill:#1f77b4;"/>
   </g>
   <g id="patch_292">
    <path clip-path="url(#pa95b89a9b0)" d="M 1034.440541 768.96 
L 1035.948649 768.96 
L 1035.948649 155.448413 
L 1034.440541 155.448413 
z
" style="fill:#1f77b4;"/>
   </g>
   <g id="patch_293">
    <path clip-path="url(#pa95b89a9b0)" d="M 1037.456757 768.96 
L 1038.964865 768.96 
L 1038.964865 154.79858 
L 1037.456757 154.79858 
z
" style="fill:#1f77b4;"/>
   </g>
   <g id="patch_294">
    <path clip-path="url(#pa95b89a9b0)" d="M 1040.472973 768.96 
L 1041.981081 768.96 
L 1041.981081 154.227723 
L 1040.472973 154.227723 
z
" style="fill:#1f77b4;"/>
   </g>
   <g id="patch_295">
    <path clip-path="url(#pa95b89a9b0)" d="M 1043.489189 768.96 
L 1044.997297 768.96 
L 1044.997297 153.810826 
L 1043.489189 153.810826 
z
" style="fill:#1f77b4;"/>
   </g>
   <g id="patch_296">
    <path clip-path="url(#pa95b89a9b0)" d="M 1046.505405 768.96 
L 1048.013514 768.96 
L 1048.013514 153.461557 
L 1046.505405 153.461557 
z
" style="fill:#1f77b4;"/>
   </g>
   <g id="patch_297">
    <path clip-path="url(#pa95b89a9b0)" d="M 1049.521622 768.96 
L 1051.02973 768.96 
L 1051.02973 152.99696 
L 1049.521622 152.99696 
z
" style="fill:#1f77b4;"/>
   </g>
   <g id="patch_298">
    <path clip-path="url(#pa95b89a9b0)" d="M 1052.537838 768.96 
L 1054.045946 768.96 
L 1054.045946 152.303825 
L 1052.537838 152.303825 
z
" style="fill:#1f77b4;"/>
   </g>
   <g id="patch_299">
    <path clip-path="url(#pa95b89a9b0)" d="M 1055.554054 768.96 
L 1057.062162 768.96 
L 1057.062162 151.743338 
L 1055.554054 151.743338 
z
" style="fill:#1f77b4;"/>
   </g>
   <g id="patch_300">
    <path clip-path="url(#pa95b89a9b0)" d="M 1058.57027 768.96 
L 1060.078378 768.96 
L 1060.078378 151.22743 
L 1058.57027 151.22743 
z
" style="fill:#1f77b4;"/>
   </g>
   <g id="patch_301">
    <path clip-path="url(#pa95b89a9b0)" d="M 1061.586486 768.96 
L 1063.094595 768.96 
L 1063.094595 149.571001 
L 1061.586486 149.571001 
z
" style="fill:#1f77b4;"/>
   </g>
   <g id="patch_302">
    <path clip-path="url(#pa95b89a9b0)" d="M 1064.602703 768.96 
L 1066.110811 768.96 
L 1066.110811 149.119951 
L 1064.602703 149.119951 
z
" style="fill:#1f77b4;"/>
   </g>
   <g id="patch_303">
    <path clip-path="url(#pa95b89a9b0)" d="M 1067.618919 768.96 
L 1069.127027 768.96 
L 1069.127027 148.811026 
L 1067.618919 148.811026 
z
" style="fill:#1f77b4;"/>
   </g>
   <g id="patch_304">
    <path clip-path="url(#pa95b89a9b0)" d="M 1070.635135 768.96 
L 1072.143243 768.96 
L 1072.143243 148.443132 
L 1070.635135 148.443132 
z
" style="fill:#1f77b4;"/>
   </g>
   <g id="patch_305">
    <path clip-path="url(#pa95b89a9b0)" d="M 1073.651351 768.96 
L 1075.159459 768.96 
L 1075.159459 147.971259 
L 1073.651351 147.971259 
z
" style="fill:#1f77b4;"/>
   </g>
   <g id="patch_306">
    <path clip-path="url(#pa95b89a9b0)" d="M 1076.667568 768.96 
L 1078.175676 768.96 
L 1078.175676 147.673817 
L 1076.667568 147.673817 
z
" style="fill:#1f77b4;"/>
   </g>
   <g id="patch_307">
    <path clip-path="url(#pa95b89a9b0)" d="M 1079.683784 768.96 
L 1081.191892 768.96 
L 1081.191892 147.179411 
L 1079.683784 147.179411 
z
" style="fill:#1f77b4;"/>
   </g>
   <g id="patch_308">
    <path clip-path="url(#pa95b89a9b0)" d="M 1082.7 768.96 
L 1084.208108 768.96 
L 1084.208108 146.615721 
L 1082.7 146.615721 
z
" style="fill:#1f77b4;"/>
   </g>
   <g id="patch_309">
    <path clip-path="url(#pa95b89a9b0)" d="M 1085.716216 768.96 
L 1087.224324 768.96 
L 1087.224324 145.950657 
L 1085.716216 145.950657 
z
" style="fill:#1f77b4;"/>
   </g>
   <g id="patch_310">
    <path clip-path="url(#pa95b89a9b0)" d="M 1088.732432 768.96 
L 1090.240541 768.96 
L 1090.240541 145.740933 
L 1088.732432 145.740933 
z
" style="fill:#1f77b4;"/>
   </g>
   <g id="patch_311">
    <path clip-path="url(#pa95b89a9b0)" d="M 1091.748649 768.96 
L 1093.256757 768.96 
L 1093.256757 145.383058 
L 1091.748649 145.383058 
z
" style="fill:#1f77b4;"/>
   </g>
   <g id="patch_312">
    <path clip-path="url(#pa95b89a9b0)" d="M 1094.764865 768.96 
L 1096.272973 768.96 
L 1096.272973 144.856914 
L 1094.764865 144.856914 
z
" style="fill:#1f77b4;"/>
   </g>
   <g id="patch_313">
    <path clip-path="url(#pa95b89a9b0)" d="M 1097.781081 768.96 
L 1099.289189 768.96 
L 1099.289189 144.419276 
L 1097.781081 144.419276 
z
" style="fill:#1f77b4;"/>
   </g>
   <g id="patch_314">
    <path clip-path="url(#pa95b89a9b0)" d="M 1100.797297 768.96 
L 1102.305405 768.96 
L 1102.305405 144.010578 
L 1100.797297 144.010578 
z
" style="fill:#1f77b4;"/>
   </g>
   <g id="patch_315">
    <path clip-path="url(#pa95b89a9b0)" d="M 1103.813514 768.96 
L 1105.321622 768.96 
L 1105.321622 143.555456 
L 1103.813514 143.555456 
z
" style="fill:#1f77b4;"/>
   </g>
   <g id="patch_316">
    <path clip-path="url(#pa95b89a9b0)" d="M 1106.82973 768.96 
L 1108.337838 768.96 
L 1108.337838 143.194812 
L 1106.82973 143.194812 
z
" style="fill:#1f77b4;"/>
   </g>
   <g id="patch_317">
    <path clip-path="url(#pa95b89a9b0)" d="M 1109.845946 768.96 
L 1111.354054 768.96 
L 1111.354054 142.99068 
L 1109.845946 142.99068 
z
" style="fill:#1f77b4;"/>
   </g>
   <g id="patch_318">
    <path clip-path="url(#pa95b89a9b0)" d="M 1112.862162 768.96 
L 1114.37027 768.96 
L 1114.37027 142.659628 
L 1112.862162 142.659628 
z
" style="fill:#1f77b4;"/>
   </g>
   <g id="patch_319">
    <path clip-path="url(#pa95b89a9b0)" d="M 1115.878378 768.96 
L 1117.386486 768.96 
L 1117.386486 142.220958 
L 1115.878378 142.220958 
z
" style="fill:#1f77b4;"/>
   </g>
   <g id="patch_320">
    <path clip-path="url(#pa95b89a9b0)" d="M 1118.894595 768.96 
L 1120.402703 768.96 
L 1120.402703 141.795537 
L 1118.894595 141.795537 
z
" style="fill:#1f77b4;"/>
   </g>
   <g id="patch_321">
    <path clip-path="url(#pa95b89a9b0)" d="M 1121.910811 768.96 
L 1123.418919 768.96 
L 1123.418919 141.362324 
L 1121.910811 141.362324 
z
" style="fill:#1f77b4;"/>
   </g>
   <g id="patch_322">
    <path clip-path="url(#pa95b89a9b0)" d="M 1124.927027 768.96 
L 1126.435135 768.96 
L 1126.435135 140.890288 
L 1124.927027 140.890288 
z
" style="fill:#1f77b4;"/>
   </g>
   <g id="patch_323">
    <path clip-path="url(#pa95b89a9b0)" d="M 1127.943243 768.96 
L 1129.451351 768.96 
L 1129.451351 140.539417 
L 1127.943243 140.539417 
z
" style="fill:#1f77b4;"/>
   </g>
   <g id="patch_324">
    <path clip-path="url(#pa95b89a9b0)" d="M 1130.959459 768.96 
L 1132.467568 768.96 
L 1132.467568 140.344163 
L 1130.959459 140.344163 
z
" style="fill:#1f77b4;"/>
   </g>
   <g id="patch_325">
    <path clip-path="url(#pa95b89a9b0)" d="M 1133.975676 768.96 
L 1135.483784 768.96 
L 1135.483784 139.921918 
L 1133.975676 139.921918 
z
" style="fill:#1f77b4;"/>
   </g>
   <g id="patch_326">
    <path clip-path="url(#pa95b89a9b0)" d="M 1136.991892 768.96 
L 1138.5 768.96 
L 1138.5 139.472063 
L 1136.991892 139.472063 
z
" style="fill:#1f77b4;"/>
   </g>
   <g id="patch_327">
    <path clip-path="url(#pa95b89a9b0)" d="M 1140.008108 768.96 
L 1141.516216 768.96 
L 1141.516216 139.072107 
L 1140.008108 139.072107 
z
" style="fill:#1f77b4;"/>
   </g>
   <g id="patch_328">
    <path clip-path="url(#pa95b89a9b0)" d="M 1143.024324 768.96 
L 1144.532432 768.96 
L 1144.532432 138.878998 
L 1143.024324 138.878998 
z
" style="fill:#1f77b4;"/>
   </g>
   <g id="patch_329">
    <path clip-path="url(#pa95b89a9b0)" d="M 1146.040541 768.96 
L 1147.548649 768.96 
L 1147.548649 138.702938 
L 1146.040541 138.702938 
z
" style="fill:#1f77b4;"/>
   </g>
   <g id="patch_330">
    <path clip-path="url(#pa95b89a9b0)" d="M 1149.056757 768.96 
L 1150.564865 768.96 
L 1150.564865 138.318674 
L 1149.056757 138.318674 
z
" style="fill:#1f77b4;"/>
   </g>
   <g id="patch_331">
    <path clip-path="url(#pa95b89a9b0)" d="M 1152.072973 768.96 
L 1153.581081 768.96 
L 1153.581081 137.97212 
L 1152.072973 137.97212 
z
" style="fill:#1f77b4;"/>
   </g>
   <g id="patch_332">
    <path clip-path="url(#pa95b89a9b0)" d="M 1155.089189 768.96 
L 1156.597297 768.96 
L 1156.597297 137.44451 
L 1155.089189 137.44451 
z
" style="fill:#1f77b4;"/>
   </g>
   <g id="patch_333">
    <path clip-path="url(#pa95b89a9b0)" d="M 1158.105405 768.96 
L 1159.613514 768.96 
L 1159.613514 136.74114 
L 1158.105405 136.74114 
z
" style="fill:#1f77b4;"/>
   </g>
   <g id="patch_334">
    <path clip-path="url(#pa95b89a9b0)" d="M 1161.121622 768.96 
L 1162.62973 768.96 
L 1162.62973 136.252679 
L 1161.121622 136.252679 
z
" style="fill:#1f77b4;"/>
   </g>
   <g id="patch_335">
    <path clip-path="url(#pa95b89a9b0)" d="M 1164.137838 768.96 
L 1165.645946 768.96 
L 1165.645946 135.36 
L 1164.137838 135.36 
z
" style="fill:#1f77b4;"/>
   </g>
   <g id="matplotlib.axis_1">
    <g id="xtick_1">
     <g id="line2d_1">
      <defs>
       <path d="M 0 0 
L 0 3.5 
" id="m7c21d94d9f" style="stroke:#000000;stroke-width:0.8;"/>
      </defs>
      <g>
       <use style="stroke:#000000;stroke-width:0.8;" x="163.508108" xlink:href="#m7c21d94d9f" y="768.96"/>
      </g>
     </g>
     <g id="text_1">
      <!-- January -->
      <g transform="translate(144.552639 783.558437)scale(0.1 -0.1)">
       <defs>
        <path d="M 628 4666 
L 1259 4666 
L 1259 325 
Q 1259 -519 939 -900 
Q 619 -1281 -91 -1281 
L -331 -1281 
L -331 -750 
L -134 -750 
Q 284 -750 456 -515 
Q 628 -281 628 325 
L 628 4666 
z
" id="DejaVuSans-4a" transform="scale(0.015625)"/>
        <path d="M 2194 1759 
Q 1497 1759 1228 1600 
Q 959 1441 959 1056 
Q 959 750 1161 570 
Q 1363 391 1709 391 
Q 2188 391 2477 730 
Q 2766 1069 2766 1631 
L 2766 1759 
L 2194 1759 
z
M 3341 1997 
L 3341 0 
L 2766 0 
L 2766 531 
Q 2569 213 2275 61 
Q 1981 -91 1556 -91 
Q 1019 -91 701 211 
Q 384 513 384 1019 
Q 384 1609 779 1909 
Q 1175 2209 1959 2209 
L 2766 2209 
L 2766 2266 
Q 2766 2663 2505 2880 
Q 2244 3097 1772 3097 
Q 1472 3097 1187 3025 
Q 903 2953 641 2809 
L 641 3341 
Q 956 3463 1253 3523 
Q 1550 3584 1831 3584 
Q 2591 3584 2966 3190 
Q 3341 2797 3341 1997 
z
" id="DejaVuSans-61" transform="scale(0.015625)"/>
        <path d="M 3513 2113 
L 3513 0 
L 2938 0 
L 2938 2094 
Q 2938 2591 2744 2837 
Q 2550 3084 2163 3084 
Q 1697 3084 1428 2787 
Q 1159 2491 1159 1978 
L 1159 0 
L 581 0 
L 581 3500 
L 1159 3500 
L 1159 2956 
Q 1366 3272 1645 3428 
Q 1925 3584 2291 3584 
Q 2894 3584 3203 3211 
Q 3513 2838 3513 2113 
z
" id="DejaVuSans-6e" transform="scale(0.015625)"/>
        <path d="M 544 1381 
L 544 3500 
L 1119 3500 
L 1119 1403 
Q 1119 906 1312 657 
Q 1506 409 1894 409 
Q 2359 409 2629 706 
Q 2900 1003 2900 1516 
L 2900 3500 
L 3475 3500 
L 3475 0 
L 2900 0 
L 2900 538 
Q 2691 219 2414 64 
Q 2138 -91 1772 -91 
Q 1169 -91 856 284 
Q 544 659 544 1381 
z
M 1991 3584 
L 1991 3584 
z
" id="DejaVuSans-75" transform="scale(0.015625)"/>
        <path d="M 2631 2963 
Q 2534 3019 2420 3045 
Q 2306 3072 2169 3072 
Q 1681 3072 1420 2755 
Q 1159 2438 1159 1844 
L 1159 0 
L 581 0 
L 581 3500 
L 1159 3500 
L 1159 2956 
Q 1341 3275 1631 3429 
Q 1922 3584 2338 3584 
Q 2397 3584 2469 3576 
Q 2541 3569 2628 3553 
L 2631 2963 
z
" id="DejaVuSans-72" transform="scale(0.015625)"/>
        <path d="M 2059 -325 
Q 1816 -950 1584 -1140 
Q 1353 -1331 966 -1331 
L 506 -1331 
L 506 -850 
L 844 -850 
Q 1081 -850 1212 -737 
Q 1344 -625 1503 -206 
L 1606 56 
L 191 3500 
L 800 3500 
L 1894 763 
L 2988 3500 
L 3597 3500 
L 2059 -325 
z
" id="DejaVuSans-79" transform="scale(0.015625)"/>
       </defs>
       <use xlink:href="#DejaVuSans-4a"/>
       <use x="29.492188" xlink:href="#DejaVuSans-61"/>
       <use x="90.771484" xlink:href="#DejaVuSans-6e"/>
       <use x="154.150391" xlink:href="#DejaVuSans-75"/>
       <use x="217.529297" xlink:href="#DejaVuSans-61"/>
       <use x="278.808594" xlink:href="#DejaVuSans-72"/>
       <use x="319.921875" xlink:href="#DejaVuSans-79"/>
      </g>
     </g>
    </g>
    <g id="xtick_2">
     <g id="line2d_2">
      <g>
       <use style="stroke:#000000;stroke-width:0.8;" x="257.010811" xlink:href="#m7c21d94d9f" y="768.96"/>
      </g>
     </g>
     <g id="text_2">
      <!-- February -->
      <g transform="translate(234.856123 783.558437)scale(0.1 -0.1)">
       <defs>
        <path d="M 628 4666 
L 3309 4666 
L 3309 4134 
L 1259 4134 
L 1259 2759 
L 3109 2759 
L 3109 2228 
L 1259 2228 
L 1259 0 
L 628 0 
L 628 4666 
z
" id="DejaVuSans-46" transform="scale(0.015625)"/>
        <path d="M 3597 1894 
L 3597 1613 
L 953 1613 
Q 991 1019 1311 708 
Q 1631 397 2203 397 
Q 2534 397 2845 478 
Q 3156 559 3463 722 
L 3463 178 
Q 3153 47 2828 -22 
Q 2503 -91 2169 -91 
Q 1331 -91 842 396 
Q 353 884 353 1716 
Q 353 2575 817 3079 
Q 1281 3584 2069 3584 
Q 2775 3584 3186 3129 
Q 3597 2675 3597 1894 
z
M 3022 2063 
Q 3016 2534 2758 2815 
Q 2500 3097 2075 3097 
Q 1594 3097 1305 2825 
Q 1016 2553 972 2059 
L 3022 2063 
z
" id="DejaVuSans-65" transform="scale(0.015625)"/>
        <path d="M 3116 1747 
Q 3116 2381 2855 2742 
Q 2594 3103 2138 3103 
Q 1681 3103 1420 2742 
Q 1159 2381 1159 1747 
Q 1159 1113 1420 752 
Q 1681 391 2138 391 
Q 2594 391 2855 752 
Q 3116 1113 3116 1747 
z
M 1159 2969 
Q 1341 3281 1617 3432 
Q 1894 3584 2278 3584 
Q 2916 3584 3314 3078 
Q 3713 2572 3713 1747 
Q 3713 922 3314 415 
Q 2916 -91 2278 -91 
Q 1894 -91 1617 61 
Q 1341 213 1159 525 
L 1159 0 
L 581 0 
L 581 4863 
L 1159 4863 
L 1159 2969 
z
" id="DejaVuSans-62" transform="scale(0.015625)"/>
       </defs>
       <use xlink:href="#DejaVuSans-46"/>
       <use x="52.019531" xlink:href="#DejaVuSans-65"/>
       <use x="113.542969" xlink:href="#DejaVuSans-62"/>
       <use x="177.019531" xlink:href="#DejaVuSans-72"/>
       <use x="218.132812" xlink:href="#DejaVuSans-75"/>
       <use x="281.511719" xlink:href="#DejaVuSans-61"/>
       <use x="342.791016" xlink:href="#DejaVuSans-72"/>
       <use x="383.904297" xlink:href="#DejaVuSans-79"/>
      </g>
     </g>
    </g>
    <g id="xtick_3">
     <g id="line2d_3">
      <g>
       <use style="stroke:#000000;stroke-width:0.8;" x="341.464865" xlink:href="#m7c21d94d9f" y="768.96"/>
      </g>
     </g>
     <g id="text_3">
      <!-- March -->
      <g transform="translate(326.225802 783.558437)scale(0.1 -0.1)">
       <defs>
        <path d="M 628 4666 
L 1569 4666 
L 2759 1491 
L 3956 4666 
L 4897 4666 
L 4897 0 
L 4281 0 
L 4281 4097 
L 3078 897 
L 2444 897 
L 1241 4097 
L 1241 0 
L 628 0 
L 628 4666 
z
" id="DejaVuSans-4d" transform="scale(0.015625)"/>
        <path d="M 3122 3366 
L 3122 2828 
Q 2878 2963 2633 3030 
Q 2388 3097 2138 3097 
Q 1578 3097 1268 2742 
Q 959 2388 959 1747 
Q 959 1106 1268 751 
Q 1578 397 2138 397 
Q 2388 397 2633 464 
Q 2878 531 3122 666 
L 3122 134 
Q 2881 22 2623 -34 
Q 2366 -91 2075 -91 
Q 1284 -91 818 406 
Q 353 903 353 1747 
Q 353 2603 823 3093 
Q 1294 3584 2113 3584 
Q 2378 3584 2631 3529 
Q 2884 3475 3122 3366 
z
" id="DejaVuSans-63" transform="scale(0.015625)"/>
        <path d="M 3513 2113 
L 3513 0 
L 2938 0 
L 2938 2094 
Q 2938 2591 2744 2837 
Q 2550 3084 2163 3084 
Q 1697 3084 1428 2787 
Q 1159 2491 1159 1978 
L 1159 0 
L 581 0 
L 581 4863 
L 1159 4863 
L 1159 2956 
Q 1366 3272 1645 3428 
Q 1925 3584 2291 3584 
Q 2894 3584 3203 3211 
Q 3513 2838 3513 2113 
z
" id="DejaVuSans-68" transform="scale(0.015625)"/>
       </defs>
       <use xlink:href="#DejaVuSans-4d"/>
       <use x="86.279297" xlink:href="#DejaVuSans-61"/>
       <use x="147.558594" xlink:href="#DejaVuSans-72"/>
       <use x="186.421875" xlink:href="#DejaVuSans-63"/>
       <use x="241.402344" xlink:href="#DejaVuSans-68"/>
      </g>
     </g>
    </g>
    <g id="xtick_4">
     <g id="line2d_4">
      <g>
       <use style="stroke:#000000;stroke-width:0.8;" x="434.967568" xlink:href="#m7c21d94d9f" y="768.96"/>
      </g>
     </g>
     <g id="text_4">
      <!-- April -->
      <g transform="translate(423.539443 783.558437)scale(0.1 -0.1)">
       <defs>
        <path d="M 2188 4044 
L 1331 1722 
L 3047 1722 
L 2188 4044 
z
M 1831 4666 
L 2547 4666 
L 4325 0 
L 3669 0 
L 3244 1197 
L 1141 1197 
L 716 0 
L 50 0 
L 1831 4666 
z
" id="DejaVuSans-41" transform="scale(0.015625)"/>
        <path d="M 1159 525 
L 1159 -1331 
L 581 -1331 
L 581 3500 
L 1159 3500 
L 1159 2969 
Q 1341 3281 1617 3432 
Q 1894 3584 2278 3584 
Q 2916 3584 3314 3078 
Q 3713 2572 3713 1747 
Q 3713 922 3314 415 
Q 2916 -91 2278 -91 
Q 1894 -91 1617 61 
Q 1341 213 1159 525 
z
M 3116 1747 
Q 3116 2381 2855 2742 
Q 2594 3103 2138 3103 
Q 1681 3103 1420 2742 
Q 1159 2381 1159 1747 
Q 1159 1113 1420 752 
Q 1681 391 2138 391 
Q 2594 391 2855 752 
Q 3116 1113 3116 1747 
z
" id="DejaVuSans-70" transform="scale(0.015625)"/>
        <path d="M 603 3500 
L 1178 3500 
L 1178 0 
L 603 0 
L 603 3500 
z
M 603 4863 
L 1178 4863 
L 1178 4134 
L 603 4134 
L 603 4863 
z
" id="DejaVuSans-69" transform="scale(0.015625)"/>
        <path d="M 603 4863 
L 1178 4863 
L 1178 0 
L 603 0 
L 603 4863 
z
" id="DejaVuSans-6c" transform="scale(0.015625)"/>
       </defs>
       <use xlink:href="#DejaVuSans-41"/>
       <use x="68.408203" xlink:href="#DejaVuSans-70"/>
       <use x="131.884766" xlink:href="#DejaVuSans-72"/>
       <use x="172.998047" xlink:href="#DejaVuSans-69"/>
       <use x="200.78125" xlink:href="#DejaVuSans-6c"/>
      </g>
     </g>
    </g>
    <g id="xtick_5">
     <g id="line2d_5">
      <g>
       <use style="stroke:#000000;stroke-width:0.8;" x="525.454054" xlink:href="#m7c21d94d9f" y="768.96"/>
      </g>
     </g>
     <g id="text_5">
      <!-- May -->
      <g transform="translate(515.116554 783.558437)scale(0.1 -0.1)">
       <use xlink:href="#DejaVuSans-4d"/>
       <use x="86.279297" xlink:href="#DejaVuSans-61"/>
       <use x="147.558594" xlink:href="#DejaVuSans-79"/>
      </g>
     </g>
    </g>
    <g id="xtick_6">
     <g id="line2d_6">
      <g>
       <use style="stroke:#000000;stroke-width:0.8;" x="618.956757" xlink:href="#m7c21d94d9f" y="768.96"/>
      </g>
     </g>
     <g id="text_6">
      <!-- June -->
      <g transform="translate(608.067694 783.558437)scale(0.1 -0.1)">
       <use xlink:href="#DejaVuSans-4a"/>
       <use x="29.492188" xlink:href="#DejaVuSans-75"/>
       <use x="92.871094" xlink:href="#DejaVuSans-6e"/>
       <use x="156.25" xlink:href="#DejaVuSans-65"/>
      </g>
     </g>
    </g>
    <g id="xtick_7">
     <g id="line2d_7">
      <g>
       <use style="stroke:#000000;stroke-width:0.8;" x="709.443243" xlink:href="#m7c21d94d9f" y="768.96"/>
      </g>
     </g>
     <g id="text_7">
      <!-- July -->
      <g transform="translate(700.451056 783.558437)scale(0.1 -0.1)">
       <use xlink:href="#DejaVuSans-4a"/>
       <use x="29.492188" xlink:href="#DejaVuSans-75"/>
       <use x="92.871094" xlink:href="#DejaVuSans-6c"/>
       <use x="120.654297" xlink:href="#DejaVuSans-79"/>
      </g>
     </g>
    </g>
    <g id="xtick_8">
     <g id="line2d_8">
      <g>
       <use style="stroke:#000000;stroke-width:0.8;" x="802.945946" xlink:href="#m7c21d94d9f" y="768.96"/>
      </g>
     </g>
     <g id="text_8">
      <!-- August -->
      <g transform="translate(785.449071 783.558437)scale(0.1 -0.1)">
       <defs>
        <path d="M 2906 1791 
Q 2906 2416 2648 2759 
Q 2391 3103 1925 3103 
Q 1463 3103 1205 2759 
Q 947 2416 947 1791 
Q 947 1169 1205 825 
Q 1463 481 1925 481 
Q 2391 481 2648 825 
Q 2906 1169 2906 1791 
z
M 3481 434 
Q 3481 -459 3084 -895 
Q 2688 -1331 1869 -1331 
Q 1566 -1331 1297 -1286 
Q 1028 -1241 775 -1147 
L 775 -588 
Q 1028 -725 1275 -790 
Q 1522 -856 1778 -856 
Q 2344 -856 2625 -561 
Q 2906 -266 2906 331 
L 2906 616 
Q 2728 306 2450 153 
Q 2172 0 1784 0 
Q 1141 0 747 490 
Q 353 981 353 1791 
Q 353 2603 747 3093 
Q 1141 3584 1784 3584 
Q 2172 3584 2450 3431 
Q 2728 3278 2906 2969 
L 2906 3500 
L 3481 3500 
L 3481 434 
z
" id="DejaVuSans-67" transform="scale(0.015625)"/>
        <path d="M 2834 3397 
L 2834 2853 
Q 2591 2978 2328 3040 
Q 2066 3103 1784 3103 
Q 1356 3103 1142 2972 
Q 928 2841 928 2578 
Q 928 2378 1081 2264 
Q 1234 2150 1697 2047 
L 1894 2003 
Q 2506 1872 2764 1633 
Q 3022 1394 3022 966 
Q 3022 478 2636 193 
Q 2250 -91 1575 -91 
Q 1294 -91 989 -36 
Q 684 19 347 128 
L 347 722 
Q 666 556 975 473 
Q 1284 391 1588 391 
Q 1994 391 2212 530 
Q 2431 669 2431 922 
Q 2431 1156 2273 1281 
Q 2116 1406 1581 1522 
L 1381 1569 
Q 847 1681 609 1914 
Q 372 2147 372 2553 
Q 372 3047 722 3315 
Q 1072 3584 1716 3584 
Q 2034 3584 2315 3537 
Q 2597 3491 2834 3397 
z
" id="DejaVuSans-73" transform="scale(0.015625)"/>
        <path d="M 1172 4494 
L 1172 3500 
L 2356 3500 
L 2356 3053 
L 1172 3053 
L 1172 1153 
Q 1172 725 1289 603 
Q 1406 481 1766 481 
L 2356 481 
L 2356 0 
L 1766 0 
Q 1100 0 847 248 
Q 594 497 594 1153 
L 594 3053 
L 172 3053 
L 172 3500 
L 594 3500 
L 594 4494 
L 1172 4494 
z
" id="DejaVuSans-74" transform="scale(0.015625)"/>
       </defs>
       <use xlink:href="#DejaVuSans-41"/>
       <use x="68.408203" xlink:href="#DejaVuSans-75"/>
       <use x="131.787109" xlink:href="#DejaVuSans-67"/>
       <use x="195.263672" xlink:href="#DejaVuSans-75"/>
       <use x="258.642578" xlink:href="#DejaVuSans-73"/>
       <use x="310.742188" xlink:href="#DejaVuSans-74"/>
      </g>
     </g>
    </g>
    <g id="xtick_9">
     <g id="line2d_9">
      <g>
       <use style="stroke:#000000;stroke-width:0.8;" x="896.448649" xlink:href="#m7c21d94d9f" y="768.96"/>
      </g>
     </g>
     <g id="text_9">
      <!-- September -->
      <g transform="translate(868.810367 783.558437)scale(0.1 -0.1)">
       <defs>
        <path d="M 3425 4513 
L 3425 3897 
Q 3066 4069 2747 4153 
Q 2428 4238 2131 4238 
Q 1616 4238 1336 4038 
Q 1056 3838 1056 3469 
Q 1056 3159 1242 3001 
Q 1428 2844 1947 2747 
L 2328 2669 
Q 3034 2534 3370 2195 
Q 3706 1856 3706 1288 
Q 3706 609 3251 259 
Q 2797 -91 1919 -91 
Q 1588 -91 1214 -16 
Q 841 59 441 206 
L 441 856 
Q 825 641 1194 531 
Q 1563 422 1919 422 
Q 2459 422 2753 634 
Q 3047 847 3047 1241 
Q 3047 1584 2836 1778 
Q 2625 1972 2144 2069 
L 1759 2144 
Q 1053 2284 737 2584 
Q 422 2884 422 3419 
Q 422 4038 858 4394 
Q 1294 4750 2059 4750 
Q 2388 4750 2728 4690 
Q 3069 4631 3425 4513 
z
" id="DejaVuSans-53" transform="scale(0.015625)"/>
        <path d="M 3328 2828 
Q 3544 3216 3844 3400 
Q 4144 3584 4550 3584 
Q 5097 3584 5394 3201 
Q 5691 2819 5691 2113 
L 5691 0 
L 5113 0 
L 5113 2094 
Q 5113 2597 4934 2840 
Q 4756 3084 4391 3084 
Q 3944 3084 3684 2787 
Q 3425 2491 3425 1978 
L 3425 0 
L 2847 0 
L 2847 2094 
Q 2847 2600 2669 2842 
Q 2491 3084 2119 3084 
Q 1678 3084 1418 2786 
Q 1159 2488 1159 1978 
L 1159 0 
L 581 0 
L 581 3500 
L 1159 3500 
L 1159 2956 
Q 1356 3278 1631 3431 
Q 1906 3584 2284 3584 
Q 2666 3584 2933 3390 
Q 3200 3197 3328 2828 
z
" id="DejaVuSans-6d" transform="scale(0.015625)"/>
       </defs>
       <use xlink:href="#DejaVuSans-53"/>
       <use x="63.476562" xlink:href="#DejaVuSans-65"/>
       <use x="125" xlink:href="#DejaVuSans-70"/>
       <use x="188.476562" xlink:href="#DejaVuSans-74"/>
       <use x="227.685547" xlink:href="#DejaVuSans-65"/>
       <use x="289.208984" xlink:href="#DejaVuSans-6d"/>
       <use x="386.621094" xlink:href="#DejaVuSans-62"/>
       <use x="450.097656" xlink:href="#DejaVuSans-65"/>
       <use x="511.621094" xlink:href="#DejaVuSans-72"/>
      </g>
     </g>
    </g>
    <g id="xtick_10">
     <g id="line2d_10">
      <g>
       <use style="stroke:#000000;stroke-width:0.8;" x="986.935135" xlink:href="#m7c21d94d9f" y="768.96"/>
      </g>
     </g>
     <g id="text_10">
      <!-- October -->
      <g transform="translate(966.924198 783.558437)scale(0.1 -0.1)">
       <defs>
        <path d="M 2522 4238 
Q 1834 4238 1429 3725 
Q 1025 3213 1025 2328 
Q 1025 1447 1429 934 
Q 1834 422 2522 422 
Q 3209 422 3611 934 
Q 4013 1447 4013 2328 
Q 4013 3213 3611 3725 
Q 3209 4238 2522 4238 
z
M 2522 4750 
Q 3503 4750 4090 4092 
Q 4678 3434 4678 2328 
Q 4678 1225 4090 567 
Q 3503 -91 2522 -91 
Q 1538 -91 948 565 
Q 359 1222 359 2328 
Q 359 3434 948 4092 
Q 1538 4750 2522 4750 
z
" id="DejaVuSans-4f" transform="scale(0.015625)"/>
        <path d="M 1959 3097 
Q 1497 3097 1228 2736 
Q 959 2375 959 1747 
Q 959 1119 1226 758 
Q 1494 397 1959 397 
Q 2419 397 2687 759 
Q 2956 1122 2956 1747 
Q 2956 2369 2687 2733 
Q 2419 3097 1959 3097 
z
M 1959 3584 
Q 2709 3584 3137 3096 
Q 3566 2609 3566 1747 
Q 3566 888 3137 398 
Q 2709 -91 1959 -91 
Q 1206 -91 779 398 
Q 353 888 353 1747 
Q 353 2609 779 3096 
Q 1206 3584 1959 3584 
z
" id="DejaVuSans-6f" transform="scale(0.015625)"/>
       </defs>
       <use xlink:href="#DejaVuSans-4f"/>
       <use x="78.710938" xlink:href="#DejaVuSans-63"/>
       <use x="133.691406" xlink:href="#DejaVuSans-74"/>
       <use x="172.900391" xlink:href="#DejaVuSans-6f"/>
       <use x="234.082031" xlink:href="#DejaVuSans-62"/>
       <use x="297.558594" xlink:href="#DejaVuSans-65"/>
       <use x="359.082031" xlink:href="#DejaVuSans-72"/>
      </g>
     </g>
    </g>
    <g id="xtick_11">
     <g id="line2d_11">
      <g>
       <use style="stroke:#000000;stroke-width:0.8;" x="1080.437838" xlink:href="#m7c21d94d9f" y="768.96"/>
      </g>
     </g>
     <g id="text_11">
      <!-- November -->
      <g transform="translate(1054.425338 783.558437)scale(0.1 -0.1)">
       <defs>
        <path d="M 628 4666 
L 1478 4666 
L 3547 763 
L 3547 4666 
L 4159 4666 
L 4159 0 
L 3309 0 
L 1241 3903 
L 1241 0 
L 628 0 
L 628 4666 
z
" id="DejaVuSans-4e" transform="scale(0.015625)"/>
        <path d="M 191 3500 
L 800 3500 
L 1894 563 
L 2988 3500 
L 3597 3500 
L 2284 0 
L 1503 0 
L 191 3500 
z
" id="DejaVuSans-76" transform="scale(0.015625)"/>
       </defs>
       <use xlink:href="#DejaVuSans-4e"/>
       <use x="74.804688" xlink:href="#DejaVuSans-6f"/>
       <use x="135.986328" xlink:href="#DejaVuSans-76"/>
       <use x="195.166016" xlink:href="#DejaVuSans-65"/>
       <use x="256.689453" xlink:href="#DejaVuSans-6d"/>
       <use x="354.101562" xlink:href="#DejaVuSans-62"/>
       <use x="417.578125" xlink:href="#DejaVuSans-65"/>
       <use x="479.101562" xlink:href="#DejaVuSans-72"/>
      </g>
     </g>
    </g>
   </g>
   <g id="matplotlib.axis_2">
    <g id="ytick_1">
     <g id="line2d_12">
      <defs>
       <path d="M 0 0 
L -3.5 0 
" id="m95d3a6927e" style="stroke:#000000;stroke-width:0.8;"/>
      </defs>
      <g>
       <use style="stroke:#000000;stroke-width:0.8;" x="162" xlink:href="#m95d3a6927e" y="768.96"/>
      </g>
     </g>
     <g id="text_12">
      <!-- 0.0 -->
      <g transform="translate(139.096875 772.759219)scale(0.1 -0.1)">
       <defs>
        <path d="M 2034 4250 
Q 1547 4250 1301 3770 
Q 1056 3291 1056 2328 
Q 1056 1369 1301 889 
Q 1547 409 2034 409 
Q 2525 409 2770 889 
Q 3016 1369 3016 2328 
Q 3016 3291 2770 3770 
Q 2525 4250 2034 4250 
z
M 2034 4750 
Q 2819 4750 3233 4129 
Q 3647 3509 3647 2328 
Q 3647 1150 3233 529 
Q 2819 -91 2034 -91 
Q 1250 -91 836 529 
Q 422 1150 422 2328 
Q 422 3509 836 4129 
Q 1250 4750 2034 4750 
z
" id="DejaVuSans-30" transform="scale(0.015625)"/>
        <path d="M 684 794 
L 1344 794 
L 1344 0 
L 684 0 
L 684 794 
z
" id="DejaVuSans-2e" transform="scale(0.015625)"/>
       </defs>
       <use xlink:href="#DejaVuSans-30"/>
       <use x="63.623047" xlink:href="#DejaVuSans-2e"/>
       <use x="95.410156" xlink:href="#DejaVuSans-30"/>
      </g>
     </g>
    </g>
    <g id="ytick_2">
     <g id="line2d_13">
      <g>
       <use style="stroke:#000000;stroke-width:0.8;" x="162" xlink:href="#m95d3a6927e" y="633.216104"/>
      </g>
     </g>
     <g id="text_13">
      <!-- 0.5 -->
      <g transform="translate(139.096875 637.015323)scale(0.1 -0.1)">
       <defs>
        <path d="M 691 4666 
L 3169 4666 
L 3169 4134 
L 1269 4134 
L 1269 2991 
Q 1406 3038 1543 3061 
Q 1681 3084 1819 3084 
Q 2600 3084 3056 2656 
Q 3513 2228 3513 1497 
Q 3513 744 3044 326 
Q 2575 -91 1722 -91 
Q 1428 -91 1123 -41 
Q 819 9 494 109 
L 494 744 
Q 775 591 1075 516 
Q 1375 441 1709 441 
Q 2250 441 2565 725 
Q 2881 1009 2881 1497 
Q 2881 1984 2565 2268 
Q 2250 2553 1709 2553 
Q 1456 2553 1204 2497 
Q 953 2441 691 2322 
L 691 4666 
z
" id="DejaVuSans-35" transform="scale(0.015625)"/>
       </defs>
       <use xlink:href="#DejaVuSans-30"/>
       <use x="63.623047" xlink:href="#DejaVuSans-2e"/>
       <use x="95.410156" xlink:href="#DejaVuSans-35"/>
      </g>
     </g>
    </g>
    <g id="ytick_3">
     <g id="line2d_14">
      <g>
       <use style="stroke:#000000;stroke-width:0.8;" x="162" xlink:href="#m95d3a6927e" y="497.472208"/>
      </g>
     </g>
     <g id="text_14">
      <!-- 1.0 -->
      <g transform="translate(139.096875 501.271427)scale(0.1 -0.1)">
       <defs>
        <path d="M 794 531 
L 1825 531 
L 1825 4091 
L 703 3866 
L 703 4441 
L 1819 4666 
L 2450 4666 
L 2450 531 
L 3481 531 
L 3481 0 
L 794 0 
L 794 531 
z
" id="DejaVuSans-31" transform="scale(0.015625)"/>
       </defs>
       <use xlink:href="#DejaVuSans-31"/>
       <use x="63.623047" xlink:href="#DejaVuSans-2e"/>
       <use x="95.410156" xlink:href="#DejaVuSans-30"/>
      </g>
     </g>
    </g>
    <g id="ytick_4">
     <g id="line2d_15">
      <g>
       <use style="stroke:#000000;stroke-width:0.8;" x="162" xlink:href="#m95d3a6927e" y="361.728313"/>
      </g>
     </g>
     <g id="text_15">
      <!-- 1.5 -->
      <g transform="translate(139.096875 365.527531)scale(0.1 -0.1)">
       <use xlink:href="#DejaVuSans-31"/>
       <use x="63.623047" xlink:href="#DejaVuSans-2e"/>
       <use x="95.410156" xlink:href="#DejaVuSans-35"/>
      </g>
     </g>
    </g>
    <g id="ytick_5">
     <g id="line2d_16">
      <g>
       <use style="stroke:#000000;stroke-width:0.8;" x="162" xlink:href="#m95d3a6927e" y="225.984417"/>
      </g>
     </g>
     <g id="text_16">
      <!-- 2.0 -->
      <g transform="translate(139.096875 229.783635)scale(0.1 -0.1)">
       <defs>
        <path d="M 1228 531 
L 3431 531 
L 3431 0 
L 469 0 
L 469 531 
Q 828 903 1448 1529 
Q 2069 2156 2228 2338 
Q 2531 2678 2651 2914 
Q 2772 3150 2772 3378 
Q 2772 3750 2511 3984 
Q 2250 4219 1831 4219 
Q 1534 4219 1204 4116 
Q 875 4013 500 3803 
L 500 4441 
Q 881 4594 1212 4672 
Q 1544 4750 1819 4750 
Q 2544 4750 2975 4387 
Q 3406 4025 3406 3419 
Q 3406 3131 3298 2873 
Q 3191 2616 2906 2266 
Q 2828 2175 2409 1742 
Q 1991 1309 1228 531 
z
" id="DejaVuSans-32" transform="scale(0.015625)"/>
       </defs>
       <use xlink:href="#DejaVuSans-32"/>
       <use x="63.623047" xlink:href="#DejaVuSans-2e"/>
       <use x="95.410156" xlink:href="#DejaVuSans-30"/>
      </g>
     </g>
    </g>
    <g id="text_17">
     <!-- Persons fully vaccinated (tens of millions) -->
     <g transform="translate(133.017188 540.480156)rotate(-90)scale(0.1 -0.1)">
      <defs>
       <path d="M 1259 4147 
L 1259 2394 
L 2053 2394 
Q 2494 2394 2734 2622 
Q 2975 2850 2975 3272 
Q 2975 3691 2734 3919 
Q 2494 4147 2053 4147 
L 1259 4147 
z
M 628 4666 
L 2053 4666 
Q 2838 4666 3239 4311 
Q 3641 3956 3641 3272 
Q 3641 2581 3239 2228 
Q 2838 1875 2053 1875 
L 1259 1875 
L 1259 0 
L 628 0 
L 628 4666 
z
" id="DejaVuSans-50" transform="scale(0.015625)"/>
       <path id="DejaVuSans-20" transform="scale(0.015625)"/>
       <path d="M 2375 4863 
L 2375 4384 
L 1825 4384 
Q 1516 4384 1395 4259 
Q 1275 4134 1275 3809 
L 1275 3500 
L 2222 3500 
L 2222 3053 
L 1275 3053 
L 1275 0 
L 697 0 
L 697 3053 
L 147 3053 
L 147 3500 
L 697 3500 
L 697 3744 
Q 697 4328 969 4595 
Q 1241 4863 1831 4863 
L 2375 4863 
z
" id="DejaVuSans-66" transform="scale(0.015625)"/>
       <path d="M 2906 2969 
L 2906 4863 
L 3481 4863 
L 3481 0 
L 2906 0 
L 2906 525 
Q 2725 213 2448 61 
Q 2172 -91 1784 -91 
Q 1150 -91 751 415 
Q 353 922 353 1747 
Q 353 2572 751 3078 
Q 1150 3584 1784 3584 
Q 2172 3584 2448 3432 
Q 2725 3281 2906 2969 
z
M 947 1747 
Q 947 1113 1208 752 
Q 1469 391 1925 391 
Q 2381 391 2643 752 
Q 2906 1113 2906 1747 
Q 2906 2381 2643 2742 
Q 2381 3103 1925 3103 
Q 1469 3103 1208 2742 
Q 947 2381 947 1747 
z
" id="DejaVuSans-64" transform="scale(0.015625)"/>
       <path d="M 1984 4856 
Q 1566 4138 1362 3434 
Q 1159 2731 1159 2009 
Q 1159 1288 1364 580 
Q 1569 -128 1984 -844 
L 1484 -844 
Q 1016 -109 783 600 
Q 550 1309 550 2009 
Q 550 2706 781 3412 
Q 1013 4119 1484 4856 
L 1984 4856 
z
" id="DejaVuSans-28" transform="scale(0.015625)"/>
       <path d="M 513 4856 
L 1013 4856 
Q 1481 4119 1714 3412 
Q 1947 2706 1947 2009 
Q 1947 1309 1714 600 
Q 1481 -109 1013 -844 
L 513 -844 
Q 928 -128 1133 580 
Q 1338 1288 1338 2009 
Q 1338 2731 1133 3434 
Q 928 4138 513 4856 
z
" id="DejaVuSans-29" transform="scale(0.015625)"/>
      </defs>
      <use xlink:href="#DejaVuSans-50"/>
      <use x="56.677734" xlink:href="#DejaVuSans-65"/>
      <use x="118.201172" xlink:href="#DejaVuSans-72"/>
      <use x="159.314453" xlink:href="#DejaVuSans-73"/>
      <use x="211.414062" xlink:href="#DejaVuSans-6f"/>
      <use x="272.595703" xlink:href="#DejaVuSans-6e"/>
      <use x="335.974609" xlink:href="#DejaVuSans-73"/>
      <use x="388.074219" xlink:href="#DejaVuSans-20"/>
      <use x="419.861328" xlink:href="#DejaVuSans-66"/>
      <use x="455.066406" xlink:href="#DejaVuSans-75"/>
      <use x="518.445312" xlink:href="#DejaVuSans-6c"/>
      <use x="546.228516" xlink:href="#DejaVuSans-6c"/>
      <use x="574.011719" xlink:href="#DejaVuSans-79"/>
      <use x="633.191406" xlink:href="#DejaVuSans-20"/>
      <use x="664.978516" xlink:href="#DejaVuSans-76"/>
      <use x="724.158203" xlink:href="#DejaVuSans-61"/>
      <use x="785.4375" xlink:href="#DejaVuSans-63"/>
      <use x="840.417969" xlink:href="#DejaVuSans-63"/>
      <use x="895.398438" xlink:href="#DejaVuSans-69"/>
      <use x="923.181641" xlink:href="#DejaVuSans-6e"/>
      <use x="986.560547" xlink:href="#DejaVuSans-61"/>
      <use x="1047.839844" xlink:href="#DejaVuSans-74"/>
      <use x="1087.048828" xlink:href="#DejaVuSans-65"/>
      <use x="1148.572266" xlink:href="#DejaVuSans-64"/>
      <use x="1212.048828" xlink:href="#DejaVuSans-20"/>
      <use x="1243.835938" xlink:href="#DejaVuSans-28"/>
      <use x="1282.849609" xlink:href="#DejaVuSans-74"/>
      <use x="1322.058594" xlink:href="#DejaVuSans-65"/>
      <use x="1383.582031" xlink:href="#DejaVuSans-6e"/>
      <use x="1446.960938" xlink:href="#DejaVuSans-73"/>
      <use x="1499.060547" xlink:href="#DejaVuSans-20"/>
      <use x="1530.847656" xlink:href="#DejaVuSans-6f"/>
      <use x="1592.029297" xlink:href="#DejaVuSans-66"/>
      <use x="1627.234375" xlink:href="#DejaVuSans-20"/>
      <use x="1659.021484" xlink:href="#DejaVuSans-6d"/>
      <use x="1756.433594" xlink:href="#DejaVuSans-69"/>
      <use x="1784.216797" xlink:href="#DejaVuSans-6c"/>
      <use x="1812" xlink:href="#DejaVuSans-6c"/>
      <use x="1839.783203" xlink:href="#DejaVuSans-69"/>
      <use x="1867.566406" xlink:href="#DejaVuSans-6f"/>
      <use x="1928.748047" xlink:href="#DejaVuSans-6e"/>
      <use x="1992.126953" xlink:href="#DejaVuSans-73"/>
      <use x="2044.226562" xlink:href="#DejaVuSans-29"/>
     </g>
    </g>
    <g id="text_18">
     <!-- 1e7 -->
     <g transform="translate(162 100.68)scale(0.1 -0.1)">
      <defs>
       <path d="M 525 4666 
L 3525 4666 
L 3525 4397 
L 1831 0 
L 1172 0 
L 2766 4134 
L 525 4134 
L 525 4666 
z
" id="DejaVuSans-37" transform="scale(0.015625)"/>
      </defs>
      <use xlink:href="#DejaVuSans-31"/>
      <use x="63.623047" xlink:href="#DejaVuSans-65"/>
      <use x="125.146484" xlink:href="#DejaVuSans-37"/>
     </g>
    </g>
   </g>
   <g id="patch_336">
    <path d="M 162 768.96 
L 162 103.68 
" style="fill:none;stroke:#000000;stroke-linecap:square;stroke-linejoin:miter;stroke-width:0.8;"/>
   </g>
   <g id="patch_337">
    <path d="M 1166.4 768.96 
L 1166.4 103.68 
" style="fill:none;stroke:#000000;stroke-linecap:square;stroke-linejoin:miter;stroke-width:0.8;"/>
   </g>
   <g id="patch_338">
    <path d="M 162 768.96 
L 1166.4 768.96 
" style="fill:none;stroke:#000000;stroke-linecap:square;stroke-linejoin:miter;stroke-width:0.8;"/>
   </g>
   <g id="patch_339">
    <path d="M 162 103.68 
L 1166.4 103.68 
" style="fill:none;stroke:#000000;stroke-linecap:square;stroke-linejoin:miter;stroke-width:0.8;"/>
   </g>
   <g id="text_19">
    <!-- Persons Fully Vaccinated -->
    <g transform="translate(590.380313 97.68)scale(0.12 -0.12)">
     <defs>
      <path d="M 1831 0 
L 50 4666 
L 709 4666 
L 2188 738 
L 3669 4666 
L 4325 4666 
L 2547 0 
L 1831 0 
z
" id="DejaVuSans-56" transform="scale(0.015625)"/>
     </defs>
     <use xlink:href="#DejaVuSans-50"/>
     <use x="56.677734" xlink:href="#DejaVuSans-65"/>
     <use x="118.201172" xlink:href="#DejaVuSans-72"/>
     <use x="159.314453" xlink:href="#DejaVuSans-73"/>
     <use x="211.414062" xlink:href="#DejaVuSans-6f"/>
     <use x="272.595703" xlink:href="#DejaVuSans-6e"/>
     <use x="335.974609" xlink:href="#DejaVuSans-73"/>
     <use x="388.074219" xlink:href="#DejaVuSans-20"/>
     <use x="419.861328" xlink:href="#DejaVuSans-46"/>
     <use x="471.880859" xlink:href="#DejaVuSans-75"/>
     <use x="535.259766" xlink:href="#DejaVuSans-6c"/>
     <use x="563.042969" xlink:href="#DejaVuSans-6c"/>
     <use x="590.826172" xlink:href="#DejaVuSans-79"/>
     <use x="650.005859" xlink:href="#DejaVuSans-20"/>
     <use x="681.792969" xlink:href="#DejaVuSans-56"/>
     <use x="742.451172" xlink:href="#DejaVuSans-61"/>
     <use x="803.730469" xlink:href="#DejaVuSans-63"/>
     <use x="858.710938" xlink:href="#DejaVuSans-63"/>
     <use x="913.691406" xlink:href="#DejaVuSans-69"/>
     <use x="941.474609" xlink:href="#DejaVuSans-6e"/>
     <use x="1004.853516" xlink:href="#DejaVuSans-61"/>
     <use x="1066.132812" xlink:href="#DejaVuSans-74"/>
     <use x="1105.341797" xlink:href="#DejaVuSans-65"/>
     <use x="1166.865234" xlink:href="#DejaVuSans-64"/>
    </g>
   </g>
  </g>
 </g>
 <defs>
  <clipPath id="pa95b89a9b0">
   <rect height="665.28" width="1004.4" x="162" y="103.68"/>
  </clipPath>
 </defs>
</svg>
