<?xml version="1.0" encoding="utf-8" standalone="no"?>
<!DOCTYPE svg PUBLIC "-//W3C//DTD SVG 1.1//EN"
  "http://www.w3.org/Graphics/SVG/1.1/DTD/svg11.dtd">
<svg height="864pt" version="1.1" viewBox="0 0 1296 864" width="1296pt" xmlns="http://www.w3.org/2000/svg" xmlns:xlink="http://www.w3.org/1999/xlink">
 <metadata>
  <rdf:RDF xmlns:cc="http://creativecommons.org/ns#" xmlns:dc="http://purl.org/dc/elements/1.1/" xmlns:rdf="http://www.w3.org/1999/02/22-rdf-syntax-ns#">
   <cc:Work>
    <dc:type rdf:resource="http://purl.org/dc/dcmitype/StillImage"/>
    <dc:date>2021-09-22T09:39:25.012869</dc:date>
    <dc:format>image/svg+xml</dc:format>
    <dc:creator>
     <cc:Agent>
      <dc:title>Matplotlib v3.4.2, https://matplotlib.org/</dc:title>
     </cc:Agent>
    </dc:creator>
   </cc:Work>
  </rdf:RDF>
 </metadata>
 <defs>
  <style type="text/css">*{stroke-linecap:butt;stroke-linejoin:round;}</style>
 </defs>
 <g id="figure_1">
  <g id="patch_1">
   <path d="M 0 864 
L 1296 864 
L 1296 0 
L 0 0 
z
" style="fill:#ffffff;"/>
  </g>
  <g id="axes_1">
   <g id="patch_2">
    <path d="M 162 768.96 
L 1166.4 768.96 
L 1166.4 103.68 
L 162 103.68 
z
" style="fill:#ffffff;"/>
   </g>
   <g id="patch_3">
    <path clip-path="url(#p2c5afd96c4)" d="M 162.965769 768.96 
L 164.897308 768.96 
L 164.897308 768.948802 
L 162.965769 768.948802 
z
" style="fill:#1f77b4;"/>
   </g>
   <g id="patch_4">
    <path clip-path="url(#p2c5afd96c4)" d="M 166.828846 768.96 
L 168.760385 768.96 
L 168.760385 768.919502 
L 166.828846 768.919502 
z
" style="fill:#1f77b4;"/>
   </g>
   <g id="patch_5">
    <path clip-path="url(#p2c5afd96c4)" d="M 170.691923 768.96 
L 172.623462 768.96 
L 172.623462 768.708803 
L 170.691923 768.708803 
z
" style="fill:#1f77b4;"/>
   </g>
   <g id="patch_6">
    <path clip-path="url(#p2c5afd96c4)" d="M 174.555 768.96 
L 176.486538 768.96 
L 176.486538 767.184489 
L 174.555 767.184489 
z
" style="fill:#1f77b4;"/>
   </g>
   <g id="patch_7">
    <path clip-path="url(#p2c5afd96c4)" d="M 178.418077 768.96 
L 180.349615 768.96 
L 180.349615 765.359009 
L 178.418077 765.359009 
z
" style="fill:#1f77b4;"/>
   </g>
   <g id="patch_8">
    <path clip-path="url(#p2c5afd96c4)" d="M 182.281154 768.96 
L 184.212692 768.96 
L 184.212692 764.364157 
L 182.281154 764.364157 
z
" style="fill:#1f77b4;"/>
   </g>
   <g id="patch_9">
    <path clip-path="url(#p2c5afd96c4)" d="M 186.144231 768.96 
L 188.075769 768.96 
L 188.075769 763.760266 
L 186.144231 763.760266 
z
" style="fill:#1f77b4;"/>
   </g>
   <g id="patch_10">
    <path clip-path="url(#p2c5afd96c4)" d="M 190.007308 768.96 
L 191.938846 768.96 
L 191.938846 762.812564 
L 190.007308 762.812564 
z
" style="fill:#1f77b4;"/>
   </g>
   <g id="patch_11">
    <path clip-path="url(#p2c5afd96c4)" d="M 193.870385 768.96 
L 195.801923 768.96 
L 195.801923 761.911885 
L 193.870385 761.911885 
z
" style="fill:#1f77b4;"/>
   </g>
   <g id="patch_12">
    <path clip-path="url(#p2c5afd96c4)" d="M 197.733462 768.96 
L 199.665 768.96 
L 199.665 761.176691 
L 197.733462 761.176691 
z
" style="fill:#1f77b4;"/>
   </g>
   <g id="patch_13">
    <path clip-path="url(#p2c5afd96c4)" d="M 201.596538 768.96 
L 203.528077 768.96 
L 203.528077 760.278874 
L 201.596538 760.278874 
z
" style="fill:#1f77b4;"/>
   </g>
   <g id="patch_14">
    <path clip-path="url(#p2c5afd96c4)" d="M 205.459615 768.96 
L 207.391154 768.96 
L 207.391154 760.092087 
L 205.459615 760.092087 
z
" style="fill:#1f77b4;"/>
   </g>
   <g id="patch_15">
    <path clip-path="url(#p2c5afd96c4)" d="M 209.322692 768.96 
L 211.254231 768.96 
L 211.254231 759.975898 
L 209.322692 759.975898 
z
" style="fill:#1f77b4;"/>
   </g>
   <g id="patch_16">
    <path clip-path="url(#p2c5afd96c4)" d="M 213.185769 768.96 
L 215.117308 768.96 
L 215.117308 759.921086 
L 213.185769 759.921086 
z
" style="fill:#1f77b4;"/>
   </g>
   <g id="patch_17">
    <path clip-path="url(#p2c5afd96c4)" d="M 217.048846 768.96 
L 218.980385 768.96 
L 218.980385 759.668458 
L 217.048846 759.668458 
z
" style="fill:#1f77b4;"/>
   </g>
   <g id="patch_18">
    <path clip-path="url(#p2c5afd96c4)" d="M 220.911923 768.96 
L 222.843462 768.96 
L 222.843462 759.246977 
L 220.911923 759.246977 
z
" style="fill:#1f77b4;"/>
   </g>
   <g id="patch_19">
    <path clip-path="url(#p2c5afd96c4)" d="M 224.775 768.96 
L 226.706538 768.96 
L 226.706538 758.420937 
L 224.775 758.420937 
z
" style="fill:#1f77b4;"/>
   </g>
   <g id="patch_20">
    <path clip-path="url(#p2c5afd96c4)" d="M 228.638077 768.96 
L 230.569615 768.96 
L 230.569615 757.601716 
L 228.638077 757.601716 
z
" style="fill:#1f77b4;"/>
   </g>
   <g id="patch_21">
    <path clip-path="url(#p2c5afd96c4)" d="M 232.501154 768.96 
L 234.432692 768.96 
L 234.432692 757.012517 
L 232.501154 757.012517 
z
" style="fill:#1f77b4;"/>
   </g>
   <g id="patch_22">
    <path clip-path="url(#p2c5afd96c4)" d="M 236.364231 768.96 
L 238.295769 768.96 
L 238.295769 756.798072 
L 236.364231 756.798072 
z
" style="fill:#1f77b4;"/>
   </g>
   <g id="patch_23">
    <path clip-path="url(#p2c5afd96c4)" d="M 240.227308 768.96 
L 242.158846 768.96 
L 242.158846 756.506756 
L 240.227308 756.506756 
z
" style="fill:#1f77b4;"/>
   </g>
   <g id="patch_24">
    <path clip-path="url(#p2c5afd96c4)" d="M 244.090385 768.96 
L 246.021923 768.96 
L 246.021923 755.725171 
L 244.090385 755.725171 
z
" style="fill:#1f77b4;"/>
   </g>
   <g id="patch_25">
    <path clip-path="url(#p2c5afd96c4)" d="M 247.953462 768.96 
L 249.885 768.96 
L 249.885 754.425111 
L 247.953462 754.425111 
z
" style="fill:#1f77b4;"/>
   </g>
   <g id="patch_26">
    <path clip-path="url(#p2c5afd96c4)" d="M 251.816538 768.96 
L 253.748077 768.96 
L 253.748077 752.623206 
L 251.816538 752.623206 
z
" style="fill:#1f77b4;"/>
   </g>
   <g id="patch_27">
    <path clip-path="url(#p2c5afd96c4)" d="M 255.679615 768.96 
L 257.611154 768.96 
L 257.611154 751.103522 
L 255.679615 751.103522 
z
" style="fill:#1f77b4;"/>
   </g>
   <g id="patch_28">
    <path clip-path="url(#p2c5afd96c4)" d="M 259.542692 768.96 
L 261.474231 768.96 
L 261.474231 749.728024 
L 259.542692 749.728024 
z
" style="fill:#1f77b4;"/>
   </g>
   <g id="patch_29">
    <path clip-path="url(#p2c5afd96c4)" d="M 263.405769 768.96 
L 265.337308 768.96 
L 265.337308 748.968835 
L 263.405769 748.968835 
z
" style="fill:#1f77b4;"/>
   </g>
   <g id="patch_30">
    <path clip-path="url(#p2c5afd96c4)" d="M 267.268846 768.96 
L 269.200385 768.96 
L 269.200385 748.542301 
L 267.268846 748.542301 
z
" style="fill:#1f77b4;"/>
   </g>
   <g id="patch_31">
    <path clip-path="url(#p2c5afd96c4)" d="M 271.131923 768.96 
L 273.063462 768.96 
L 273.063462 747.802351 
L 271.131923 747.802351 
z
" style="fill:#1f77b4;"/>
   </g>
   <g id="patch_32">
    <path clip-path="url(#p2c5afd96c4)" d="M 274.995 768.96 
L 276.926538 768.96 
L 276.926538 746.198514 
L 274.995 746.198514 
z
" style="fill:#1f77b4;"/>
   </g>
   <g id="patch_33">
    <path clip-path="url(#p2c5afd96c4)" d="M 278.858077 768.96 
L 280.789615 768.96 
L 280.789615 745.008414 
L 278.858077 745.008414 
z
" style="fill:#1f77b4;"/>
   </g>
   <g id="patch_34">
    <path clip-path="url(#p2c5afd96c4)" d="M 282.721154 768.96 
L 284.652692 768.96 
L 284.652692 743.38677 
L 282.721154 743.38677 
z
" style="fill:#1f77b4;"/>
   </g>
   <g id="patch_35">
    <path clip-path="url(#p2c5afd96c4)" d="M 286.584231 768.96 
L 288.515769 768.96 
L 288.515769 742.110074 
L 286.584231 742.110074 
z
" style="fill:#1f77b4;"/>
   </g>
   <g id="patch_36">
    <path clip-path="url(#p2c5afd96c4)" d="M 290.447308 768.96 
L 292.378846 768.96 
L 292.378846 740.975543 
L 290.447308 740.975543 
z
" style="fill:#1f77b4;"/>
   </g>
   <g id="patch_37">
    <path clip-path="url(#p2c5afd96c4)" d="M 294.310385 768.96 
L 296.241923 768.96 
L 296.241923 740.588497 
L 294.310385 740.588497 
z
" style="fill:#1f77b4;"/>
   </g>
   <g id="patch_38">
    <path clip-path="url(#p2c5afd96c4)" d="M 298.173462 768.96 
L 300.105 768.96 
L 300.105 739.27345 
L 298.173462 739.27345 
z
" style="fill:#1f77b4;"/>
   </g>
   <g id="patch_39">
    <path clip-path="url(#p2c5afd96c4)" d="M 302.036538 768.96 
L 303.968077 768.96 
L 303.968077 737.654838 
L 302.036538 737.654838 
z
" style="fill:#1f77b4;"/>
   </g>
   <g id="patch_40">
    <path clip-path="url(#p2c5afd96c4)" d="M 305.899615 768.96 
L 307.831154 768.96 
L 307.831154 735.694771 
L 305.899615 735.694771 
z
" style="fill:#1f77b4;"/>
   </g>
   <g id="patch_41">
    <path clip-path="url(#p2c5afd96c4)" d="M 309.762692 768.96 
L 311.694231 768.96 
L 311.694231 732.899865 
L 309.762692 732.899865 
z
" style="fill:#1f77b4;"/>
   </g>
   <g id="patch_42">
    <path clip-path="url(#p2c5afd96c4)" d="M 313.625769 768.96 
L 315.557308 768.96 
L 315.557308 730.371017 
L 313.625769 730.371017 
z
" style="fill:#1f77b4;"/>
   </g>
   <g id="patch_43">
    <path clip-path="url(#p2c5afd96c4)" d="M 317.488846 768.96 
L 319.420385 768.96 
L 319.420385 728.788693 
L 317.488846 728.788693 
z
" style="fill:#1f77b4;"/>
   </g>
   <g id="patch_44">
    <path clip-path="url(#p2c5afd96c4)" d="M 321.351923 768.96 
L 323.283462 768.96 
L 323.283462 727.934742 
L 321.351923 727.934742 
z
" style="fill:#1f77b4;"/>
   </g>
   <g id="patch_45">
    <path clip-path="url(#p2c5afd96c4)" d="M 325.215 768.96 
L 327.146538 768.96 
L 327.146538 727.105208 
L 325.215 727.105208 
z
" style="fill:#1f77b4;"/>
   </g>
   <g id="patch_46">
    <path clip-path="url(#p2c5afd96c4)" d="M 329.078077 768.96 
L 331.009615 768.96 
L 331.009615 725.48369 
L 329.078077 725.48369 
z
" style="fill:#1f77b4;"/>
   </g>
   <g id="patch_47">
    <path clip-path="url(#p2c5afd96c4)" d="M 332.941154 768.96 
L 334.872692 768.96 
L 334.872692 722.796302 
L 332.941154 722.796302 
z
" style="fill:#1f77b4;"/>
   </g>
   <g id="patch_48">
    <path clip-path="url(#p2c5afd96c4)" d="M 336.804231 768.96 
L 338.735769 768.96 
L 338.735769 719.292094 
L 336.804231 719.292094 
z
" style="fill:#1f77b4;"/>
   </g>
   <g id="patch_49">
    <path clip-path="url(#p2c5afd96c4)" d="M 340.667308 768.96 
L 342.598846 768.96 
L 342.598846 715.996815 
L 340.667308 715.996815 
z
" style="fill:#1f77b4;"/>
   </g>
   <g id="patch_50">
    <path clip-path="url(#p2c5afd96c4)" d="M 344.530385 768.96 
L 346.461923 768.96 
L 346.461923 715.466343 
L 344.530385 715.466343 
z
" style="fill:#1f77b4;"/>
   </g>
   <g id="patch_51">
    <path clip-path="url(#p2c5afd96c4)" d="M 348.393462 768.96 
L 350.325 768.96 
L 350.325 713.042823 
L 348.393462 713.042823 
z
" style="fill:#1f77b4;"/>
   </g>
   <g id="patch_52">
    <path clip-path="url(#p2c5afd96c4)" d="M 352.256538 768.96 
L 354.188077 768.96 
L 354.188077 711.103931 
L 352.256538 711.103931 
z
" style="fill:#1f77b4;"/>
   </g>
   <g id="patch_53">
    <path clip-path="url(#p2c5afd96c4)" d="M 356.119615 768.96 
L 358.051154 768.96 
L 358.051154 708.181975 
L 356.119615 708.181975 
z
" style="fill:#1f77b4;"/>
   </g>
   <g id="patch_54">
    <path clip-path="url(#p2c5afd96c4)" d="M 359.982692 768.96 
L 361.914231 768.96 
L 361.914231 702.608709 
L 359.982692 702.608709 
z
" style="fill:#1f77b4;"/>
   </g>
   <g id="patch_55">
    <path clip-path="url(#p2c5afd96c4)" d="M 363.845769 768.96 
L 365.777308 768.96 
L 365.777308 696.766018 
L 363.845769 696.766018 
z
" style="fill:#1f77b4;"/>
   </g>
   <g id="patch_56">
    <path clip-path="url(#p2c5afd96c4)" d="M 367.708846 768.96 
L 369.640385 768.96 
L 369.640385 691.653763 
L 367.708846 691.653763 
z
" style="fill:#1f77b4;"/>
   </g>
   <g id="patch_57">
    <path clip-path="url(#p2c5afd96c4)" d="M 371.571923 768.96 
L 373.503462 768.96 
L 373.503462 687.248159 
L 371.571923 687.248159 
z
" style="fill:#1f77b4;"/>
   </g>
   <g id="patch_58">
    <path clip-path="url(#p2c5afd96c4)" d="M 375.435 768.96 
L 377.366538 768.96 
L 377.366538 685.168198 
L 375.435 685.168198 
z
" style="fill:#1f77b4;"/>
   </g>
   <g id="patch_59">
    <path clip-path="url(#p2c5afd96c4)" d="M 379.298077 768.96 
L 381.229615 768.96 
L 381.229615 681.993825 
L 379.298077 681.993825 
z
" style="fill:#1f77b4;"/>
   </g>
   <g id="patch_60">
    <path clip-path="url(#p2c5afd96c4)" d="M 383.161154 768.96 
L 385.092692 768.96 
L 385.092692 677.654483 
L 383.161154 677.654483 
z
" style="fill:#1f77b4;"/>
   </g>
   <g id="patch_61">
    <path clip-path="url(#p2c5afd96c4)" d="M 387.024231 768.96 
L 388.955769 768.96 
L 388.955769 672.705988 
L 387.024231 672.705988 
z
" style="fill:#1f77b4;"/>
   </g>
   <g id="patch_62">
    <path clip-path="url(#p2c5afd96c4)" d="M 390.887308 768.96 
L 392.818846 768.96 
L 392.818846 665.505226 
L 390.887308 665.505226 
z
" style="fill:#1f77b4;"/>
   </g>
   <g id="patch_63">
    <path clip-path="url(#p2c5afd96c4)" d="M 394.750385 768.96 
L 396.681923 768.96 
L 396.681923 658.792966 
L 394.750385 658.792966 
z
" style="fill:#1f77b4;"/>
   </g>
   <g id="patch_64">
    <path clip-path="url(#p2c5afd96c4)" d="M 398.613462 768.96 
L 400.545 768.96 
L 400.545 653.742763 
L 398.613462 653.742763 
z
" style="fill:#1f77b4;"/>
   </g>
   <g id="patch_65">
    <path clip-path="url(#p2c5afd96c4)" d="M 402.476538 768.96 
L 404.408077 768.96 
L 404.408077 652.151303 
L 402.476538 652.151303 
z
" style="fill:#1f77b4;"/>
   </g>
   <g id="patch_66">
    <path clip-path="url(#p2c5afd96c4)" d="M 406.339615 768.96 
L 408.271154 768.96 
L 408.271154 647.833389 
L 406.339615 647.833389 
z
" style="fill:#1f77b4;"/>
   </g>
   <g id="patch_67">
    <path clip-path="url(#p2c5afd96c4)" d="M 410.202692 768.96 
L 412.134231 768.96 
L 412.134231 642.211837 
L 410.202692 642.211837 
z
" style="fill:#1f77b4;"/>
   </g>
   <g id="patch_68">
    <path clip-path="url(#p2c5afd96c4)" d="M 414.065769 768.96 
L 415.997308 768.96 
L 415.997308 635.956967 
L 414.065769 635.956967 
z
" style="fill:#1f77b4;"/>
   </g>
   <g id="patch_69">
    <path clip-path="url(#p2c5afd96c4)" d="M 417.928846 768.96 
L 419.860385 768.96 
L 419.860385 629.313031 
L 417.928846 629.313031 
z
" style="fill:#1f77b4;"/>
   </g>
   <g id="patch_70">
    <path clip-path="url(#p2c5afd96c4)" d="M 421.791923 768.96 
L 423.723462 768.96 
L 423.723462 621.814976 
L 421.791923 621.814976 
z
" style="fill:#1f77b4;"/>
   </g>
   <g id="patch_71">
    <path clip-path="url(#p2c5afd96c4)" d="M 425.655 768.96 
L 427.586538 768.96 
L 427.586538 616.949203 
L 425.655 616.949203 
z
" style="fill:#1f77b4;"/>
   </g>
   <g id="patch_72">
    <path clip-path="url(#p2c5afd96c4)" d="M 429.518077 768.96 
L 431.449615 768.96 
L 431.449615 612.143798 
L 429.518077 612.143798 
z
" style="fill:#1f77b4;"/>
   </g>
   <g id="patch_73">
    <path clip-path="url(#p2c5afd96c4)" d="M 433.381154 768.96 
L 435.312692 768.96 
L 435.312692 607.881747 
L 433.381154 607.881747 
z
" style="fill:#1f77b4;"/>
   </g>
   <g id="patch_74">
    <path clip-path="url(#p2c5afd96c4)" d="M 437.244231 768.96 
L 439.175769 768.96 
L 439.175769 603.065944 
L 437.244231 603.065944 
z
" style="fill:#1f77b4;"/>
   </g>
   <g id="patch_75">
    <path clip-path="url(#p2c5afd96c4)" d="M 441.107308 768.96 
L 443.038846 768.96 
L 443.038846 598.749924 
L 441.107308 598.749924 
z
" style="fill:#1f77b4;"/>
   </g>
   <g id="patch_76">
    <path clip-path="url(#p2c5afd96c4)" d="M 444.970385 768.96 
L 446.901923 768.96 
L 446.901923 593.843948 
L 444.970385 593.843948 
z
" style="fill:#1f77b4;"/>
   </g>
   <g id="patch_77">
    <path clip-path="url(#p2c5afd96c4)" d="M 448.833462 768.96 
L 450.765 768.96 
L 450.765 588.843125 
L 448.833462 588.843125 
z
" style="fill:#1f77b4;"/>
   </g>
   <g id="patch_78">
    <path clip-path="url(#p2c5afd96c4)" d="M 452.696538 768.96 
L 454.628077 768.96 
L 454.628077 585.90694 
L 452.696538 585.90694 
z
" style="fill:#1f77b4;"/>
   </g>
   <g id="patch_79">
    <path clip-path="url(#p2c5afd96c4)" d="M 456.559615 768.96 
L 458.491154 768.96 
L 458.491154 584.28757 
L 456.559615 584.28757 
z
" style="fill:#1f77b4;"/>
   </g>
   <g id="patch_80">
    <path clip-path="url(#p2c5afd96c4)" d="M 460.422692 768.96 
L 462.354231 768.96 
L 462.354231 581.606286 
L 460.422692 581.606286 
z
" style="fill:#1f77b4;"/>
   </g>
   <g id="patch_81">
    <path clip-path="url(#p2c5afd96c4)" d="M 464.285769 768.96 
L 466.217308 768.96 
L 466.217308 578.40417 
L 464.285769 578.40417 
z
" style="fill:#1f77b4;"/>
   </g>
   <g id="patch_82">
    <path clip-path="url(#p2c5afd96c4)" d="M 468.148846 768.96 
L 470.080385 768.96 
L 470.080385 575.062416 
L 468.148846 575.062416 
z
" style="fill:#1f77b4;"/>
   </g>
   <g id="patch_83">
    <path clip-path="url(#p2c5afd96c4)" d="M 472.011923 768.96 
L 473.943462 768.96 
L 473.943462 570.710992 
L 472.011923 570.710992 
z
" style="fill:#1f77b4;"/>
   </g>
   <g id="patch_84">
    <path clip-path="url(#p2c5afd96c4)" d="M 475.875 768.96 
L 477.806538 768.96 
L 477.806538 565.319672 
L 475.875 565.319672 
z
" style="fill:#1f77b4;"/>
   </g>
   <g id="patch_85">
    <path clip-path="url(#p2c5afd96c4)" d="M 479.738077 768.96 
L 481.669615 768.96 
L 481.669615 560.662409 
L 479.738077 560.662409 
z
" style="fill:#1f77b4;"/>
   </g>
   <g id="patch_86">
    <path clip-path="url(#p2c5afd96c4)" d="M 483.601154 768.96 
L 485.532692 768.96 
L 485.532692 558.815079 
L 483.601154 558.815079 
z
" style="fill:#1f77b4;"/>
   </g>
   <g id="patch_87">
    <path clip-path="url(#p2c5afd96c4)" d="M 487.464231 768.96 
L 489.395769 768.96 
L 489.395769 555.998073 
L 487.464231 555.998073 
z
" style="fill:#1f77b4;"/>
   </g>
   <g id="patch_88">
    <path clip-path="url(#p2c5afd96c4)" d="M 491.327308 768.96 
L 493.258846 768.96 
L 493.258846 550.882745 
L 491.327308 550.882745 
z
" style="fill:#1f77b4;"/>
   </g>
   <g id="patch_89">
    <path clip-path="url(#p2c5afd96c4)" d="M 495.190385 768.96 
L 497.121923 768.96 
L 497.121923 546.563315 
L 495.190385 546.563315 
z
" style="fill:#1f77b4;"/>
   </g>
   <g id="patch_90">
    <path clip-path="url(#p2c5afd96c4)" d="M 499.053462 768.96 
L 500.985 768.96 
L 500.985 540.576818 
L 499.053462 540.576818 
z
" style="fill:#1f77b4;"/>
   </g>
   <g id="patch_91">
    <path clip-path="url(#p2c5afd96c4)" d="M 502.916538 768.96 
L 504.848077 768.96 
L 504.848077 534.521365 
L 502.916538 534.521365 
z
" style="fill:#1f77b4;"/>
   </g>
   <g id="patch_92">
    <path clip-path="url(#p2c5afd96c4)" d="M 506.779615 768.96 
L 508.711154 768.96 
L 508.711154 529.92287 
L 506.779615 529.92287 
z
" style="fill:#1f77b4;"/>
   </g>
   <g id="patch_93">
    <path clip-path="url(#p2c5afd96c4)" d="M 510.642692 768.96 
L 512.574231 768.96 
L 512.574231 528.642049 
L 510.642692 528.642049 
z
" style="fill:#1f77b4;"/>
   </g>
   <g id="patch_94">
    <path clip-path="url(#p2c5afd96c4)" d="M 514.505769 768.96 
L 516.437308 768.96 
L 516.437308 524.326619 
L 514.505769 524.326619 
z
" style="fill:#1f77b4;"/>
   </g>
   <g id="patch_95">
    <path clip-path="url(#p2c5afd96c4)" d="M 518.368846 768.96 
L 520.300385 768.96 
L 520.300385 517.688871 
L 518.368846 517.688871 
z
" style="fill:#1f77b4;"/>
   </g>
   <g id="patch_96">
    <path clip-path="url(#p2c5afd96c4)" d="M 522.231923 768.96 
L 524.163462 768.96 
L 524.163462 510.315425 
L 522.231923 510.315425 
z
" style="fill:#1f77b4;"/>
   </g>
   <g id="patch_97">
    <path clip-path="url(#p2c5afd96c4)" d="M 526.095 768.96 
L 528.026538 768.96 
L 528.026538 501.554651 
L 526.095 501.554651 
z
" style="fill:#1f77b4;"/>
   </g>
   <g id="patch_98">
    <path clip-path="url(#p2c5afd96c4)" d="M 529.958077 768.96 
L 531.889615 768.96 
L 531.889615 491.225865 
L 529.958077 491.225865 
z
" style="fill:#1f77b4;"/>
   </g>
   <g id="patch_99">
    <path clip-path="url(#p2c5afd96c4)" d="M 533.821154 768.96 
L 535.752692 768.96 
L 535.752692 484.447343 
L 533.821154 484.447343 
z
" style="fill:#1f77b4;"/>
   </g>
   <g id="patch_100">
    <path clip-path="url(#p2c5afd96c4)" d="M 537.684231 768.96 
L 539.615769 768.96 
L 539.615769 481.171556 
L 537.684231 481.171556 
z
" style="fill:#1f77b4;"/>
   </g>
   <g id="patch_101">
    <path clip-path="url(#p2c5afd96c4)" d="M 541.547308 768.96 
L 543.478846 768.96 
L 543.478846 475.5106 
L 541.547308 475.5106 
z
" style="fill:#1f77b4;"/>
   </g>
   <g id="patch_102">
    <path clip-path="url(#p2c5afd96c4)" d="M 545.410385 768.96 
L 547.341923 768.96 
L 547.341923 468.489848 
L 545.410385 468.489848 
z
" style="fill:#1f77b4;"/>
   </g>
   <g id="patch_103">
    <path clip-path="url(#p2c5afd96c4)" d="M 549.273462 768.96 
L 551.205 768.96 
L 551.205 462.43027 
L 549.273462 462.43027 
z
" style="fill:#1f77b4;"/>
   </g>
   <g id="patch_104">
    <path clip-path="url(#p2c5afd96c4)" d="M 553.136538 768.96 
L 555.068077 768.96 
L 555.068077 454.177783 
L 553.136538 454.177783 
z
" style="fill:#1f77b4;"/>
   </g>
   <g id="patch_105">
    <path clip-path="url(#p2c5afd96c4)" d="M 556.999615 768.96 
L 558.931154 768.96 
L 558.931154 446.180323 
L 556.999615 446.180323 
z
" style="fill:#1f77b4;"/>
   </g>
   <g id="patch_106">
    <path clip-path="url(#p2c5afd96c4)" d="M 560.862692 768.96 
L 562.794231 768.96 
L 562.794231 440.679465 
L 560.862692 440.679465 
z
" style="fill:#1f77b4;"/>
   </g>
   <g id="patch_107">
    <path clip-path="url(#p2c5afd96c4)" d="M 564.725769 768.96 
L 566.657308 768.96 
L 566.657308 437.466572 
L 564.725769 437.466572 
z
" style="fill:#1f77b4;"/>
   </g>
   <g id="patch_108">
    <path clip-path="url(#p2c5afd96c4)" d="M 568.588846 768.96 
L 570.520385 768.96 
L 570.520385 432.862309 
L 568.588846 432.862309 
z
" style="fill:#1f77b4;"/>
   </g>
   <g id="patch_109">
    <path clip-path="url(#p2c5afd96c4)" d="M 572.451923 768.96 
L 574.383462 768.96 
L 574.383462 425.523425 
L 572.451923 425.523425 
z
" style="fill:#1f77b4;"/>
   </g>
   <g id="patch_110">
    <path clip-path="url(#p2c5afd96c4)" d="M 576.315 768.96 
L 578.246538 768.96 
L 578.246538 419.047627 
L 576.315 419.047627 
z
" style="fill:#1f77b4;"/>
   </g>
   <g id="patch_111">
    <path clip-path="url(#p2c5afd96c4)" d="M 580.178077 768.96 
L 582.109615 768.96 
L 582.109615 412.257781 
L 580.178077 412.257781 
z
" style="fill:#1f77b4;"/>
   </g>
   <g id="patch_112">
    <path clip-path="url(#p2c5afd96c4)" d="M 584.041154 768.96 
L 585.972692 768.96 
L 585.972692 406.056586 
L 584.041154 406.056586 
z
" style="fill:#1f77b4;"/>
   </g>
   <g id="patch_113">
    <path clip-path="url(#p2c5afd96c4)" d="M 587.904231 768.96 
L 589.835769 768.96 
L 589.835769 402.003382 
L 587.904231 402.003382 
z
" style="fill:#1f77b4;"/>
   </g>
   <g id="patch_114">
    <path clip-path="url(#p2c5afd96c4)" d="M 591.767308 768.96 
L 593.698846 768.96 
L 593.698846 400.337704 
L 591.767308 400.337704 
z
" style="fill:#1f77b4;"/>
   </g>
   <g id="patch_115">
    <path clip-path="url(#p2c5afd96c4)" d="M 595.630385 768.96 
L 597.561923 768.96 
L 597.561923 396.491452 
L 595.630385 396.491452 
z
" style="fill:#1f77b4;"/>
   </g>
   <g id="patch_116">
    <path clip-path="url(#p2c5afd96c4)" d="M 599.493462 768.96 
L 601.425 768.96 
L 601.425 391.003349 
L 599.493462 391.003349 
z
" style="fill:#1f77b4;"/>
   </g>
   <g id="patch_117">
    <path clip-path="url(#p2c5afd96c4)" d="M 603.356538 768.96 
L 605.288077 768.96 
L 605.288077 385.305095 
L 603.356538 385.305095 
z
" style="fill:#1f77b4;"/>
   </g>
   <g id="patch_118">
    <path clip-path="url(#p2c5afd96c4)" d="M 607.219615 768.96 
L 609.151154 768.96 
L 609.151154 379.774179 
L 607.219615 379.774179 
z
" style="fill:#1f77b4;"/>
   </g>
   <g id="patch_119">
    <path clip-path="url(#p2c5afd96c4)" d="M 611.082692 768.96 
L 613.014231 768.96 
L 613.014231 375.028005 
L 611.082692 375.028005 
z
" style="fill:#1f77b4;"/>
   </g>
   <g id="patch_120">
    <path clip-path="url(#p2c5afd96c4)" d="M 614.945769 768.96 
L 616.877308 768.96 
L 616.877308 372.920849 
L 614.945769 372.920849 
z
" style="fill:#1f77b4;"/>
   </g>
   <g id="patch_121">
    <path clip-path="url(#p2c5afd96c4)" d="M 618.808846 768.96 
L 620.740385 768.96 
L 620.740385 372.237394 
L 618.808846 372.237394 
z
" style="fill:#1f77b4;"/>
   </g>
   <g id="patch_122">
    <path clip-path="url(#p2c5afd96c4)" d="M 622.671923 768.96 
L 624.603462 768.96 
L 624.603462 369.900511 
L 622.671923 369.900511 
z
" style="fill:#1f77b4;"/>
   </g>
   <g id="patch_123">
    <path clip-path="url(#p2c5afd96c4)" d="M 626.535 768.96 
L 628.466538 768.96 
L 628.466538 363.809401 
L 626.535 363.809401 
z
" style="fill:#1f77b4;"/>
   </g>
   <g id="patch_124">
    <path clip-path="url(#p2c5afd96c4)" d="M 630.398077 768.96 
L 632.329615 768.96 
L 632.329615 357.91733 
L 630.398077 357.91733 
z
" style="fill:#1f77b4;"/>
   </g>
   <g id="patch_125">
    <path clip-path="url(#p2c5afd96c4)" d="M 634.261154 768.96 
L 636.192692 768.96 
L 636.192692 353.481458 
L 634.261154 353.481458 
z
" style="fill:#1f77b4;"/>
   </g>
   <g id="patch_126">
    <path clip-path="url(#p2c5afd96c4)" d="M 638.124231 768.96 
L 640.055769 768.96 
L 640.055769 346.949375 
L 638.124231 346.949375 
z
" style="fill:#1f77b4;"/>
   </g>
   <g id="patch_127">
    <path clip-path="url(#p2c5afd96c4)" d="M 641.987308 768.96 
L 643.918846 768.96 
L 643.918846 342.596941 
L 641.987308 342.596941 
z
" style="fill:#1f77b4;"/>
   </g>
   <g id="patch_128">
    <path clip-path="url(#p2c5afd96c4)" d="M 645.850385 768.96 
L 647.781923 768.96 
L 647.781923 338.721305 
L 645.850385 338.721305 
z
" style="fill:#1f77b4;"/>
   </g>
   <g id="patch_129">
    <path clip-path="url(#p2c5afd96c4)" d="M 649.713462 768.96 
L 651.645 768.96 
L 651.645 335.277927 
L 649.713462 335.277927 
z
" style="fill:#1f77b4;"/>
   </g>
   <g id="patch_130">
    <path clip-path="url(#p2c5afd96c4)" d="M 653.576538 768.96 
L 655.508077 768.96 
L 655.508077 330.727802 
L 653.576538 330.727802 
z
" style="fill:#1f77b4;"/>
   </g>
   <g id="patch_131">
    <path clip-path="url(#p2c5afd96c4)" d="M 657.439615 768.96 
L 659.371154 768.96 
L 659.371154 326.598064 
L 657.439615 326.598064 
z
" style="fill:#1f77b4;"/>
   </g>
   <g id="patch_132">
    <path clip-path="url(#p2c5afd96c4)" d="M 661.302692 768.96 
L 663.234231 768.96 
L 663.234231 322.326373 
L 661.302692 322.326373 
z
" style="fill:#1f77b4;"/>
   </g>
   <g id="patch_133">
    <path clip-path="url(#p2c5afd96c4)" d="M 665.165769 768.96 
L 667.097308 768.96 
L 667.097308 316.109139 
L 665.165769 316.109139 
z
" style="fill:#1f77b4;"/>
   </g>
   <g id="patch_134">
    <path clip-path="url(#p2c5afd96c4)" d="M 669.028846 768.96 
L 670.960385 768.96 
L 670.960385 312.738085 
L 669.028846 312.738085 
z
" style="fill:#1f77b4;"/>
   </g>
   <g id="patch_135">
    <path clip-path="url(#p2c5afd96c4)" d="M 672.891923 768.96 
L 674.823462 768.96 
L 674.823462 311.39917 
L 672.891923 311.39917 
z
" style="fill:#1f77b4;"/>
   </g>
   <g id="patch_136">
    <path clip-path="url(#p2c5afd96c4)" d="M 676.755 768.96 
L 678.686538 768.96 
L 678.686538 308.981249 
L 676.755 308.981249 
z
" style="fill:#1f77b4;"/>
   </g>
   <g id="patch_137">
    <path clip-path="url(#p2c5afd96c4)" d="M 680.618077 768.96 
L 682.549615 768.96 
L 682.549615 304.555312 
L 680.618077 304.555312 
z
" style="fill:#1f77b4;"/>
   </g>
   <g id="patch_138">
    <path clip-path="url(#p2c5afd96c4)" d="M 684.481154 768.96 
L 686.412692 768.96 
L 686.412692 300.580662 
L 684.481154 300.580662 
z
" style="fill:#1f77b4;"/>
   </g>
   <g id="patch_139">
    <path clip-path="url(#p2c5afd96c4)" d="M 688.344231 768.96 
L 690.275769 768.96 
L 690.275769 294.914865 
L 688.344231 294.914865 
z
" style="fill:#1f77b4;"/>
   </g>
   <g id="patch_140">
    <path clip-path="url(#p2c5afd96c4)" d="M 692.207308 768.96 
L 694.138846 768.96 
L 694.138846 291.213092 
L 692.207308 291.213092 
z
" style="fill:#1f77b4;"/>
   </g>
   <g id="patch_141">
    <path clip-path="url(#p2c5afd96c4)" d="M 696.070385 768.96 
L 698.001923 768.96 
L 698.001923 288.332307 
L 696.070385 288.332307 
z
" style="fill:#1f77b4;"/>
   </g>
   <g id="patch_142">
    <path clip-path="url(#p2c5afd96c4)" d="M 699.933462 768.96 
L 701.865 768.96 
L 701.865 287.011451 
L 699.933462 287.011451 
z
" style="fill:#1f77b4;"/>
   </g>
   <g id="patch_143">
    <path clip-path="url(#p2c5afd96c4)" d="M 703.796538 768.96 
L 705.728077 768.96 
L 705.728077 284.779518 
L 703.796538 284.779518 
z
" style="fill:#1f77b4;"/>
   </g>
   <g id="patch_144">
    <path clip-path="url(#p2c5afd96c4)" d="M 707.659615 768.96 
L 709.591154 768.96 
L 709.591154 282.018164 
L 707.659615 282.018164 
z
" style="fill:#1f77b4;"/>
   </g>
   <g id="patch_145">
    <path clip-path="url(#p2c5afd96c4)" d="M 711.522692 768.96 
L 713.454231 768.96 
L 713.454231 279.249696 
L 711.522692 279.249696 
z
" style="fill:#1f77b4;"/>
   </g>
   <g id="patch_146">
    <path clip-path="url(#p2c5afd96c4)" d="M 715.385769 768.96 
L 717.317308 768.96 
L 717.317308 276.359735 
L 715.385769 276.359735 
z
" style="fill:#1f77b4;"/>
   </g>
   <g id="patch_147">
    <path clip-path="url(#p2c5afd96c4)" d="M 719.248846 768.96 
L 721.180385 768.96 
L 721.180385 273.680219 
L 719.248846 273.680219 
z
" style="fill:#1f77b4;"/>
   </g>
   <g id="patch_148">
    <path clip-path="url(#p2c5afd96c4)" d="M 723.111923 768.96 
L 725.043462 768.96 
L 725.043462 271.854191 
L 723.111923 271.854191 
z
" style="fill:#1f77b4;"/>
   </g>
   <g id="patch_149">
    <path clip-path="url(#p2c5afd96c4)" d="M 726.975 768.96 
L 728.906538 768.96 
L 728.906538 270.834502 
L 726.975 270.834502 
z
" style="fill:#1f77b4;"/>
   </g>
   <g id="patch_150">
    <path clip-path="url(#p2c5afd96c4)" d="M 730.838077 768.96 
L 732.769615 768.96 
L 732.769615 270.09813 
L 730.838077 270.09813 
z
" style="fill:#1f77b4;"/>
   </g>
   <g id="patch_151">
    <path clip-path="url(#p2c5afd96c4)" d="M 734.701154 768.96 
L 736.632692 768.96 
L 736.632692 268.503976 
L 734.701154 268.503976 
z
" style="fill:#1f77b4;"/>
   </g>
   <g id="patch_152">
    <path clip-path="url(#p2c5afd96c4)" d="M 738.564231 768.96 
L 740.495769 768.96 
L 740.495769 266.814681 
L 738.564231 266.814681 
z
" style="fill:#1f77b4;"/>
   </g>
   <g id="patch_153">
    <path clip-path="url(#p2c5afd96c4)" d="M 742.427308 768.96 
L 744.358846 768.96 
L 744.358846 264.204795 
L 742.427308 264.204795 
z
" style="fill:#1f77b4;"/>
   </g>
   <g id="patch_154">
    <path clip-path="url(#p2c5afd96c4)" d="M 746.290385 768.96 
L 748.221923 768.96 
L 748.221923 261.558368 
L 746.290385 261.558368 
z
" style="fill:#1f77b4;"/>
   </g>
   <g id="patch_155">
    <path clip-path="url(#p2c5afd96c4)" d="M 750.153462 768.96 
L 752.085 768.96 
L 752.085 259.33157 
L 750.153462 259.33157 
z
" style="fill:#1f77b4;"/>
   </g>
   <g id="patch_156">
    <path clip-path="url(#p2c5afd96c4)" d="M 754.016538 768.96 
L 755.948077 768.96 
L 755.948077 257.808309 
L 754.016538 257.808309 
z
" style="fill:#1f77b4;"/>
   </g>
   <g id="patch_157">
    <path clip-path="url(#p2c5afd96c4)" d="M 757.879615 768.96 
L 759.811154 768.96 
L 759.811154 255.702753 
L 757.879615 255.702753 
z
" style="fill:#1f77b4;"/>
   </g>
   <g id="patch_158">
    <path clip-path="url(#p2c5afd96c4)" d="M 761.742692 768.96 
L 763.674231 768.96 
L 763.674231 253.243071 
L 761.742692 253.243071 
z
" style="fill:#1f77b4;"/>
   </g>
   <g id="patch_159">
    <path clip-path="url(#p2c5afd96c4)" d="M 765.605769 768.96 
L 767.537308 768.96 
L 767.537308 250.220923 
L 765.605769 250.220923 
z
" style="fill:#1f77b4;"/>
   </g>
   <g id="patch_160">
    <path clip-path="url(#p2c5afd96c4)" d="M 769.468846 768.96 
L 771.400385 768.96 
L 771.400385 248.158095 
L 769.468846 248.158095 
z
" style="fill:#1f77b4;"/>
   </g>
   <g id="patch_161">
    <path clip-path="url(#p2c5afd96c4)" d="M 773.331923 768.96 
L 775.263462 768.96 
L 775.263462 246.198029 
L 773.331923 246.198029 
z
" style="fill:#1f77b4;"/>
   </g>
   <g id="patch_162">
    <path clip-path="url(#p2c5afd96c4)" d="M 777.195 768.96 
L 779.126538 768.96 
L 779.126538 245.039543 
L 777.195 245.039543 
z
" style="fill:#1f77b4;"/>
   </g>
   <g id="patch_163">
    <path clip-path="url(#p2c5afd96c4)" d="M 781.058077 768.96 
L 782.989615 768.96 
L 782.989615 243.904506 
L 781.058077 243.904506 
z
" style="fill:#1f77b4;"/>
   </g>
   <g id="patch_164">
    <path clip-path="url(#p2c5afd96c4)" d="M 784.921154 768.96 
L 786.852692 768.96 
L 786.852692 240.486682 
L 784.921154 240.486682 
z
" style="fill:#1f77b4;"/>
   </g>
   <g id="patch_165">
    <path clip-path="url(#p2c5afd96c4)" d="M 788.784231 768.96 
L 790.715769 768.96 
L 790.715769 237.796431 
L 788.784231 237.796431 
z
" style="fill:#1f77b4;"/>
   </g>
   <g id="patch_166">
    <path clip-path="url(#p2c5afd96c4)" d="M 792.647308 768.96 
L 794.578846 768.96 
L 794.578846 235.930832 
L 792.647308 235.930832 
z
" style="fill:#1f77b4;"/>
   </g>
   <g id="patch_167">
    <path clip-path="url(#p2c5afd96c4)" d="M 796.510385 768.96 
L 798.441923 768.96 
L 798.441923 233.467235 
L 796.510385 233.467235 
z
" style="fill:#1f77b4;"/>
   </g>
   <g id="patch_168">
    <path clip-path="url(#p2c5afd96c4)" d="M 800.373462 768.96 
L 802.305 768.96 
L 802.305 232.30092 
L 800.373462 232.30092 
z
" style="fill:#1f77b4;"/>
   </g>
   <g id="patch_169">
    <path clip-path="url(#p2c5afd96c4)" d="M 804.236538 768.96 
L 806.168077 768.96 
L 806.168077 230.461042 
L 804.236538 230.461042 
z
" style="fill:#1f77b4;"/>
   </g>
   <g id="patch_170">
    <path clip-path="url(#p2c5afd96c4)" d="M 808.099615 768.96 
L 810.031154 768.96 
L 810.031154 229.687539 
L 808.099615 229.687539 
z
" style="fill:#1f77b4;"/>
   </g>
   <g id="patch_171">
    <path clip-path="url(#p2c5afd96c4)" d="M 811.962692 768.96 
L 813.894231 768.96 
L 813.894231 228.687131 
L 811.962692 228.687131 
z
" style="fill:#1f77b4;"/>
   </g>
   <g id="patch_172">
    <path clip-path="url(#p2c5afd96c4)" d="M 815.825769 768.96 
L 817.757308 768.96 
L 817.757308 227.46272 
L 815.825769 227.46272 
z
" style="fill:#1f77b4;"/>
   </g>
   <g id="patch_173">
    <path clip-path="url(#p2c5afd96c4)" d="M 819.688846 768.96 
L 821.620385 768.96 
L 821.620385 226.020371 
L 819.688846 226.020371 
z
" style="fill:#1f77b4;"/>
   </g>
   <g id="patch_174">
    <path clip-path="url(#p2c5afd96c4)" d="M 823.551923 768.96 
L 825.483462 768.96 
L 825.483462 224.242124 
L 823.551923 224.242124 
z
" style="fill:#1f77b4;"/>
   </g>
   <g id="patch_175">
    <path clip-path="url(#p2c5afd96c4)" d="M 827.415 768.96 
L 829.346538 768.96 
L 829.346538 220.021918 
L 827.415 220.021918 
z
" style="fill:#1f77b4;"/>
   </g>
   <g id="patch_176">
    <path clip-path="url(#p2c5afd96c4)" d="M 831.278077 768.96 
L 833.209615 768.96 
L 833.209615 215.168774 
L 831.278077 215.168774 
z
" style="fill:#1f77b4;"/>
   </g>
   <g id="patch_177">
    <path clip-path="url(#p2c5afd96c4)" d="M 835.141154 768.96 
L 837.072692 768.96 
L 837.072692 214.782739 
L 835.141154 214.782739 
z
" style="fill:#1f77b4;"/>
   </g>
   <g id="patch_178">
    <path clip-path="url(#p2c5afd96c4)" d="M 839.004231 768.96 
L 840.935769 768.96 
L 840.935769 213.783551 
L 839.004231 213.783551 
z
" style="fill:#1f77b4;"/>
   </g>
   <g id="patch_179">
    <path clip-path="url(#p2c5afd96c4)" d="M 842.867308 768.96 
L 844.798846 768.96 
L 844.798846 212.537545 
L 842.867308 212.537545 
z
" style="fill:#1f77b4;"/>
   </g>
   <g id="patch_180">
    <path clip-path="url(#p2c5afd96c4)" d="M 846.730385 768.96 
L 848.661923 768.96 
L 848.661923 211.337046 
L 846.730385 211.337046 
z
" style="fill:#1f77b4;"/>
   </g>
   <g id="patch_181">
    <path clip-path="url(#p2c5afd96c4)" d="M 850.593462 768.96 
L 852.525 768.96 
L 852.525 210.244022 
L 850.593462 210.244022 
z
" style="fill:#1f77b4;"/>
   </g>
   <g id="patch_182">
    <path clip-path="url(#p2c5afd96c4)" d="M 854.456538 768.96 
L 856.388077 768.96 
L 856.388077 209.154198 
L 854.456538 209.154198 
z
" style="fill:#1f77b4;"/>
   </g>
   <g id="patch_183">
    <path clip-path="url(#p2c5afd96c4)" d="M 858.319615 768.96 
L 860.251154 768.96 
L 860.251154 208.359437 
L 858.319615 208.359437 
z
" style="fill:#1f77b4;"/>
   </g>
   <g id="patch_184">
    <path clip-path="url(#p2c5afd96c4)" d="M 862.182692 768.96 
L 864.114231 768.96 
L 864.114231 207.971044 
L 862.182692 207.971044 
z
" style="fill:#1f77b4;"/>
   </g>
   <g id="patch_185">
    <path clip-path="url(#p2c5afd96c4)" d="M 866.045769 768.96 
L 867.977308 768.96 
L 867.977308 207.899393 
L 866.045769 207.899393 
z
" style="fill:#1f77b4;"/>
   </g>
   <g id="patch_186">
    <path clip-path="url(#p2c5afd96c4)" d="M 869.908846 768.96 
L 871.840385 768.96 
L 871.840385 207.269907 
L 869.908846 207.269907 
z
" style="fill:#1f77b4;"/>
   </g>
   <g id="patch_187">
    <path clip-path="url(#p2c5afd96c4)" d="M 873.771923 768.96 
L 875.703462 768.96 
L 875.703462 206.142406 
L 873.771923 206.142406 
z
" style="fill:#1f77b4;"/>
   </g>
   <g id="patch_188">
    <path clip-path="url(#p2c5afd96c4)" d="M 877.635 768.96 
L 879.566538 768.96 
L 879.566538 205.011242 
L 877.635 205.011242 
z
" style="fill:#1f77b4;"/>
   </g>
   <g id="patch_189">
    <path clip-path="url(#p2c5afd96c4)" d="M 881.498077 768.96 
L 883.429615 768.96 
L 883.429615 204.002287 
L 881.498077 204.002287 
z
" style="fill:#1f77b4;"/>
   </g>
   <g id="patch_190">
    <path clip-path="url(#p2c5afd96c4)" d="M 885.361154 768.96 
L 887.292692 768.96 
L 887.292692 203.179531 
L 885.361154 203.179531 
z
" style="fill:#1f77b4;"/>
   </g>
   <g id="patch_191">
    <path clip-path="url(#p2c5afd96c4)" d="M 889.224231 768.96 
L 891.155769 768.96 
L 891.155769 202.620221 
L 889.224231 202.620221 
z
" style="fill:#1f77b4;"/>
   </g>
   <g id="patch_192">
    <path clip-path="url(#p2c5afd96c4)" d="M 893.087308 768.96 
L 895.018846 768.96 
L 895.018846 201.554351 
L 893.087308 201.554351 
z
" style="fill:#1f77b4;"/>
   </g>
   <g id="patch_193">
    <path clip-path="url(#p2c5afd96c4)" d="M 896.950385 768.96 
L 898.881923 768.96 
L 898.881923 200.660155 
L 896.950385 200.660155 
z
" style="fill:#1f77b4;"/>
   </g>
   <g id="patch_194">
    <path clip-path="url(#p2c5afd96c4)" d="M 900.813462 768.96 
L 902.745 768.96 
L 902.745 199.811382 
L 900.813462 199.811382 
z
" style="fill:#1f77b4;"/>
   </g>
   <g id="patch_195">
    <path clip-path="url(#p2c5afd96c4)" d="M 904.676538 768.96 
L 906.608077 768.96 
L 906.608077 198.970228 
L 904.676538 198.970228 
z
" style="fill:#1f77b4;"/>
   </g>
   <g id="patch_196">
    <path clip-path="url(#p2c5afd96c4)" d="M 908.539615 768.96 
L 910.471154 768.96 
L 910.471154 198.126802 
L 908.539615 198.126802 
z
" style="fill:#1f77b4;"/>
   </g>
   <g id="patch_197">
    <path clip-path="url(#p2c5afd96c4)" d="M 912.402692 768.96 
L 914.334231 768.96 
L 914.334231 197.433496 
L 912.402692 197.433496 
z
" style="fill:#1f77b4;"/>
   </g>
   <g id="patch_198">
    <path clip-path="url(#p2c5afd96c4)" d="M 916.265769 768.96 
L 918.197308 768.96 
L 918.197308 196.962802 
L 916.265769 196.962802 
z
" style="fill:#1f77b4;"/>
   </g>
   <g id="patch_199">
    <path clip-path="url(#p2c5afd96c4)" d="M 920.128846 768.96 
L 922.060385 768.96 
L 922.060385 196.247899 
L 920.128846 196.247899 
z
" style="fill:#1f77b4;"/>
   </g>
   <g id="patch_200">
    <path clip-path="url(#p2c5afd96c4)" d="M 923.991923 768.96 
L 925.923462 768.96 
L 925.923462 195.288915 
L 923.991923 195.288915 
z
" style="fill:#1f77b4;"/>
   </g>
   <g id="patch_201">
    <path clip-path="url(#p2c5afd96c4)" d="M 927.855 768.96 
L 929.786538 768.96 
L 929.786538 194.391309 
L 927.855 194.391309 
z
" style="fill:#1f77b4;"/>
   </g>
   <g id="patch_202">
    <path clip-path="url(#p2c5afd96c4)" d="M 931.718077 768.96 
L 933.649615 768.96 
L 933.649615 193.736185 
L 931.718077 193.736185 
z
" style="fill:#1f77b4;"/>
   </g>
   <g id="patch_203">
    <path clip-path="url(#p2c5afd96c4)" d="M 935.581154 768.96 
L 937.512692 768.96 
L 937.512692 193.055382 
L 935.581154 193.055382 
z
" style="fill:#1f77b4;"/>
   </g>
   <g id="patch_204">
    <path clip-path="url(#p2c5afd96c4)" d="M 939.444231 768.96 
L 941.375769 768.96 
L 941.375769 192.642951 
L 939.444231 192.642951 
z
" style="fill:#1f77b4;"/>
   </g>
   <g id="patch_205">
    <path clip-path="url(#p2c5afd96c4)" d="M 943.307308 768.96 
L 945.238846 768.96 
L 945.238846 192.404678 
L 943.307308 192.404678 
z
" style="fill:#1f77b4;"/>
   </g>
   <g id="patch_206">
    <path clip-path="url(#p2c5afd96c4)" d="M 947.170385 768.96 
L 949.101923 768.96 
L 949.101923 191.991027 
L 947.170385 191.991027 
z
" style="fill:#1f77b4;"/>
   </g>
   <g id="patch_207">
    <path clip-path="url(#p2c5afd96c4)" d="M 951.033462 768.96 
L 952.965 768.96 
L 952.965 191.077634 
L 951.033462 191.077634 
z
" style="fill:#1f77b4;"/>
   </g>
   <g id="patch_208">
    <path clip-path="url(#p2c5afd96c4)" d="M 954.896538 768.96 
L 956.828077 768.96 
L 956.828077 189.567044 
L 954.896538 189.567044 
z
" style="fill:#1f77b4;"/>
   </g>
   <g id="patch_209">
    <path clip-path="url(#p2c5afd96c4)" d="M 958.759615 768.96 
L 960.691154 768.96 
L 960.691154 188.757127 
L 958.759615 188.757127 
z
" style="fill:#1f77b4;"/>
   </g>
   <g id="patch_210">
    <path clip-path="url(#p2c5afd96c4)" d="M 962.622692 768.96 
L 964.554231 768.96 
L 964.554231 186.781358 
L 962.622692 186.781358 
z
" style="fill:#1f77b4;"/>
   </g>
   <g id="patch_211">
    <path clip-path="url(#p2c5afd96c4)" d="M 966.485769 768.96 
L 968.417308 768.96 
L 968.417308 186.163743 
L 966.485769 186.163743 
z
" style="fill:#1f77b4;"/>
   </g>
   <g id="patch_212">
    <path clip-path="url(#p2c5afd96c4)" d="M 970.348846 768.96 
L 972.280385 768.96 
L 972.280385 185.713593 
L 970.348846 185.713593 
z
" style="fill:#1f77b4;"/>
   </g>
   <g id="patch_213">
    <path clip-path="url(#p2c5afd96c4)" d="M 974.211923 768.96 
L 976.143462 768.96 
L 976.143462 185.093453 
L 974.211923 185.093453 
z
" style="fill:#1f77b4;"/>
   </g>
   <g id="patch_214">
    <path clip-path="url(#p2c5afd96c4)" d="M 978.075 768.96 
L 980.006538 768.96 
L 980.006538 184.248047 
L 978.075 184.248047 
z
" style="fill:#1f77b4;"/>
   </g>
   <g id="patch_215">
    <path clip-path="url(#p2c5afd96c4)" d="M 981.938077 768.96 
L 983.869615 768.96 
L 983.869615 183.474419 
L 981.938077 183.474419 
z
" style="fill:#1f77b4;"/>
   </g>
   <g id="patch_216">
    <path clip-path="url(#p2c5afd96c4)" d="M 985.801154 768.96 
L 987.732692 768.96 
L 987.732692 182.661934 
L 985.801154 182.661934 
z
" style="fill:#1f77b4;"/>
   </g>
   <g id="patch_217">
    <path clip-path="url(#p2c5afd96c4)" d="M 989.664231 768.96 
L 991.595769 768.96 
L 991.595769 181.769674 
L 989.664231 181.769674 
z
" style="fill:#1f77b4;"/>
   </g>
   <g id="patch_218">
    <path clip-path="url(#p2c5afd96c4)" d="M 993.527308 768.96 
L 995.458846 768.96 
L 995.458846 180.192991 
L 993.527308 180.192991 
z
" style="fill:#1f77b4;"/>
   </g>
   <g id="patch_219">
    <path clip-path="url(#p2c5afd96c4)" d="M 997.390385 768.96 
L 999.321923 768.96 
L 999.321923 179.678768 
L 997.390385 179.678768 
z
" style="fill:#1f77b4;"/>
   </g>
   <g id="patch_220">
    <path clip-path="url(#p2c5afd96c4)" d="M 1001.253462 768.96 
L 1003.185 768.96 
L 1003.185 179.077445 
L 1001.253462 179.077445 
z
" style="fill:#1f77b4;"/>
   </g>
   <g id="patch_221">
    <path clip-path="url(#p2c5afd96c4)" d="M 1005.116538 768.96 
L 1007.048077 768.96 
L 1007.048077 178.488373 
L 1005.116538 178.488373 
z
" style="fill:#1f77b4;"/>
   </g>
   <g id="patch_222">
    <path clip-path="url(#p2c5afd96c4)" d="M 1008.979615 768.96 
L 1010.911154 768.96 
L 1010.911154 176.125937 
L 1008.979615 176.125937 
z
" style="fill:#1f77b4;"/>
   </g>
   <g id="patch_223">
    <path clip-path="url(#p2c5afd96c4)" d="M 1012.842692 768.96 
L 1014.774231 768.96 
L 1014.774231 174.075612 
L 1012.842692 174.075612 
z
" style="fill:#1f77b4;"/>
   </g>
   <g id="patch_224">
    <path clip-path="url(#p2c5afd96c4)" d="M 1016.705769 768.96 
L 1018.637308 768.96 
L 1018.637308 172.44315 
L 1016.705769 172.44315 
z
" style="fill:#1f77b4;"/>
   </g>
   <g id="patch_225">
    <path clip-path="url(#p2c5afd96c4)" d="M 1020.568846 768.96 
L 1022.500385 768.96 
L 1022.500385 170.077683 
L 1020.568846 170.077683 
z
" style="fill:#1f77b4;"/>
   </g>
   <g id="patch_226">
    <path clip-path="url(#p2c5afd96c4)" d="M 1024.431923 768.96 
L 1026.363462 768.96 
L 1026.363462 168.477845 
L 1024.431923 168.477845 
z
" style="fill:#1f77b4;"/>
   </g>
   <g id="patch_227">
    <path clip-path="url(#p2c5afd96c4)" d="M 1028.295 768.96 
L 1030.226538 768.96 
L 1030.226538 167.766479 
L 1028.295 167.766479 
z
" style="fill:#1f77b4;"/>
   </g>
   <g id="patch_228">
    <path clip-path="url(#p2c5afd96c4)" d="M 1032.158077 768.96 
L 1034.089615 768.96 
L 1034.089615 166.746621 
L 1032.158077 166.746621 
z
" style="fill:#1f77b4;"/>
   </g>
   <g id="patch_229">
    <path clip-path="url(#p2c5afd96c4)" d="M 1036.021154 768.96 
L 1037.952692 768.96 
L 1037.952692 165.782711 
L 1036.021154 165.782711 
z
" style="fill:#1f77b4;"/>
   </g>
   <g id="patch_230">
    <path clip-path="url(#p2c5afd96c4)" d="M 1039.884231 768.96 
L 1041.815769 768.96 
L 1041.815769 164.854206 
L 1039.884231 164.854206 
z
" style="fill:#1f77b4;"/>
   </g>
   <g id="patch_231">
    <path clip-path="url(#p2c5afd96c4)" d="M 1043.747308 768.96 
L 1045.678846 768.96 
L 1045.678846 163.956473 
L 1043.747308 163.956473 
z
" style="fill:#1f77b4;"/>
   </g>
   <g id="patch_232">
    <path clip-path="url(#p2c5afd96c4)" d="M 1047.610385 768.96 
L 1049.541923 768.96 
L 1049.541923 163.076801 
L 1047.610385 163.076801 
z
" style="fill:#1f77b4;"/>
   </g>
   <g id="patch_233">
    <path clip-path="url(#p2c5afd96c4)" d="M 1051.473462 768.96 
L 1053.405 768.96 
L 1053.405 162.496821 
L 1051.473462 162.496821 
z
" style="fill:#1f77b4;"/>
   </g>
   <g id="patch_234">
    <path clip-path="url(#p2c5afd96c4)" d="M 1055.336538 768.96 
L 1057.268077 768.96 
L 1057.268077 161.750682 
L 1055.336538 161.750682 
z
" style="fill:#1f77b4;"/>
   </g>
   <g id="patch_235">
    <path clip-path="url(#p2c5afd96c4)" d="M 1059.199615 768.96 
L 1061.131154 768.96 
L 1061.131154 160.717522 
L 1059.199615 160.717522 
z
" style="fill:#1f77b4;"/>
   </g>
   <g id="patch_236">
    <path clip-path="url(#p2c5afd96c4)" d="M 1063.062692 768.96 
L 1064.994231 768.96 
L 1064.994231 159.729742 
L 1063.062692 159.729742 
z
" style="fill:#1f77b4;"/>
   </g>
   <g id="patch_237">
    <path clip-path="url(#p2c5afd96c4)" d="M 1066.925769 768.96 
L 1068.857308 768.96 
L 1068.857308 158.632214 
L 1066.925769 158.632214 
z
" style="fill:#1f77b4;"/>
   </g>
   <g id="patch_238">
    <path clip-path="url(#p2c5afd96c4)" d="M 1070.788846 768.96 
L 1072.720385 768.96 
L 1072.720385 157.393702 
L 1070.788846 157.393702 
z
" style="fill:#1f77b4;"/>
   </g>
   <g id="patch_239">
    <path clip-path="url(#p2c5afd96c4)" d="M 1074.651923 768.96 
L 1076.583462 768.96 
L 1076.583462 155.592217 
L 1074.651923 155.592217 
z
" style="fill:#1f77b4;"/>
   </g>
   <g id="patch_240">
    <path clip-path="url(#p2c5afd96c4)" d="M 1078.515 768.96 
L 1080.446538 768.96 
L 1080.446538 152.741195 
L 1078.515 152.741195 
z
" style="fill:#1f77b4;"/>
   </g>
   <g id="patch_241">
    <path clip-path="url(#p2c5afd96c4)" d="M 1082.378077 768.96 
L 1084.309615 768.96 
L 1084.309615 151.49401 
L 1082.378077 151.49401 
z
" style="fill:#1f77b4;"/>
   </g>
   <g id="patch_242">
    <path clip-path="url(#p2c5afd96c4)" d="M 1086.241154 768.96 
L 1088.172692 768.96 
L 1088.172692 150.457145 
L 1086.241154 150.457145 
z
" style="fill:#1f77b4;"/>
   </g>
   <g id="patch_243">
    <path clip-path="url(#p2c5afd96c4)" d="M 1090.104231 768.96 
L 1092.035769 768.96 
L 1092.035769 149.493487 
L 1090.104231 149.493487 
z
" style="fill:#1f77b4;"/>
   </g>
   <g id="patch_244">
    <path clip-path="url(#p2c5afd96c4)" d="M 1093.967308 768.96 
L 1095.898846 768.96 
L 1095.898846 148.592934 
L 1093.967308 148.592934 
z
" style="fill:#1f77b4;"/>
   </g>
   <g id="patch_245">
    <path clip-path="url(#p2c5afd96c4)" d="M 1097.830385 768.96 
L 1099.761923 768.96 
L 1099.761923 147.694318 
L 1097.830385 147.694318 
z
" style="fill:#1f77b4;"/>
   </g>
   <g id="patch_246">
    <path clip-path="url(#p2c5afd96c4)" d="M 1101.693462 768.96 
L 1103.625 768.96 
L 1103.625 146.897115 
L 1101.693462 146.897115 
z
" style="fill:#1f77b4;"/>
   </g>
   <g id="patch_247">
    <path clip-path="url(#p2c5afd96c4)" d="M 1105.556538 768.96 
L 1107.488077 768.96 
L 1107.488077 146.36037 
L 1105.556538 146.36037 
z
" style="fill:#1f77b4;"/>
   </g>
   <g id="patch_248">
    <path clip-path="url(#p2c5afd96c4)" d="M 1109.419615 768.96 
L 1111.351154 768.96 
L 1111.351154 145.981112 
L 1109.419615 145.981112 
z
" style="fill:#1f77b4;"/>
   </g>
   <g id="patch_249">
    <path clip-path="url(#p2c5afd96c4)" d="M 1113.282692 768.96 
L 1115.214231 768.96 
L 1115.214231 145.480865 
L 1113.282692 145.480865 
z
" style="fill:#1f77b4;"/>
   </g>
   <g id="patch_250">
    <path clip-path="url(#p2c5afd96c4)" d="M 1117.145769 768.96 
L 1119.077308 768.96 
L 1119.077308 144.477341 
L 1117.145769 144.477341 
z
" style="fill:#1f77b4;"/>
   </g>
   <g id="patch_251">
    <path clip-path="url(#p2c5afd96c4)" d="M 1121.008846 768.96 
L 1122.940385 768.96 
L 1122.940385 143.579988 
L 1121.008846 143.579988 
z
" style="fill:#1f77b4;"/>
   </g>
   <g id="patch_252">
    <path clip-path="url(#p2c5afd96c4)" d="M 1124.871923 768.96 
L 1126.803462 768.96 
L 1126.803462 142.730036 
L 1124.871923 142.730036 
z
" style="fill:#1f77b4;"/>
   </g>
   <g id="patch_253">
    <path clip-path="url(#p2c5afd96c4)" d="M 1128.735 768.96 
L 1130.666538 768.96 
L 1130.666538 141.993412 
L 1128.735 141.993412 
z
" style="fill:#1f77b4;"/>
   </g>
   <g id="patch_254">
    <path clip-path="url(#p2c5afd96c4)" d="M 1132.598077 768.96 
L 1134.529615 768.96 
L 1134.529615 141.451867 
L 1132.598077 141.451867 
z
" style="fill:#1f77b4;"/>
   </g>
   <g id="patch_255">
    <path clip-path="url(#p2c5afd96c4)" d="M 1136.461154 768.96 
L 1138.392692 768.96 
L 1138.392692 140.812404 
L 1136.461154 140.812404 
z
" style="fill:#1f77b4;"/>
   </g>
   <g id="patch_256">
    <path clip-path="url(#p2c5afd96c4)" d="M 1140.324231 768.96 
L 1142.255769 768.96 
L 1142.255769 139.927217 
L 1140.324231 139.927217 
z
" style="fill:#1f77b4;"/>
   </g>
   <g id="patch_257">
    <path clip-path="url(#p2c5afd96c4)" d="M 1144.187308 768.96 
L 1146.118846 768.96 
L 1146.118846 139.083832 
L 1144.187308 139.083832 
z
" style="fill:#1f77b4;"/>
   </g>
   <g id="patch_258">
    <path clip-path="url(#p2c5afd96c4)" d="M 1148.050385 768.96 
L 1149.981923 768.96 
L 1149.981923 138.237417 
L 1148.050385 138.237417 
z
" style="fill:#1f77b4;"/>
   </g>
   <g id="patch_259">
    <path clip-path="url(#p2c5afd96c4)" d="M 1151.913462 768.96 
L 1153.845 768.96 
L 1153.845 137.366627 
L 1151.913462 137.366627 
z
" style="fill:#1f77b4;"/>
   </g>
   <g id="patch_260">
    <path clip-path="url(#p2c5afd96c4)" d="M 1155.776538 768.96 
L 1157.708077 768.96 
L 1157.708077 136.528673 
L 1155.776538 136.528673 
z
" style="fill:#1f77b4;"/>
   </g>
   <g id="patch_261">
    <path clip-path="url(#p2c5afd96c4)" d="M 1159.639615 768.96 
L 1161.571154 768.96 
L 1161.571154 135.942211 
L 1159.639615 135.942211 
z
" style="fill:#1f77b4;"/>
   </g>
   <g id="patch_262">
    <path clip-path="url(#p2c5afd96c4)" d="M 1163.502692 768.96 
L 1165.434231 768.96 
L 1165.434231 135.36 
L 1163.502692 135.36 
z
" style="fill:#1f77b4;"/>
   </g>
   <g id="matplotlib.axis_1">
    <g id="xtick_1">
     <g id="line2d_1">
      <defs>
       <path d="M 0 0 
L 0 3.5 
" id="m7b153531c3" style="stroke:#000000;stroke-width:0.8;"/>
      </defs>
      <g>
       <use style="stroke:#000000;stroke-width:0.8;" x="163.931538" xlink:href="#m7b153531c3" y="768.96"/>
      </g>
     </g>
     <g id="text_1">
      <!-- January -->
      <g transform="translate(144.97607 783.558437)scale(0.1 -0.1)">
       <defs>
        <path d="M 628 4666 
L 1259 4666 
L 1259 325 
Q 1259 -519 939 -900 
Q 619 -1281 -91 -1281 
L -331 -1281 
L -331 -750 
L -134 -750 
Q 284 -750 456 -515 
Q 628 -281 628 325 
L 628 4666 
z
" id="DejaVuSans-4a" transform="scale(0.015625)"/>
        <path d="M 2194 1759 
Q 1497 1759 1228 1600 
Q 959 1441 959 1056 
Q 959 750 1161 570 
Q 1363 391 1709 391 
Q 2188 391 2477 730 
Q 2766 1069 2766 1631 
L 2766 1759 
L 2194 1759 
z
M 3341 1997 
L 3341 0 
L 2766 0 
L 2766 531 
Q 2569 213 2275 61 
Q 1981 -91 1556 -91 
Q 1019 -91 701 211 
Q 384 513 384 1019 
Q 384 1609 779 1909 
Q 1175 2209 1959 2209 
L 2766 2209 
L 2766 2266 
Q 2766 2663 2505 2880 
Q 2244 3097 1772 3097 
Q 1472 3097 1187 3025 
Q 903 2953 641 2809 
L 641 3341 
Q 956 3463 1253 3523 
Q 1550 3584 1831 3584 
Q 2591 3584 2966 3190 
Q 3341 2797 3341 1997 
z
" id="DejaVuSans-61" transform="scale(0.015625)"/>
        <path d="M 3513 2113 
L 3513 0 
L 2938 0 
L 2938 2094 
Q 2938 2591 2744 2837 
Q 2550 3084 2163 3084 
Q 1697 3084 1428 2787 
Q 1159 2491 1159 1978 
L 1159 0 
L 581 0 
L 581 3500 
L 1159 3500 
L 1159 2956 
Q 1366 3272 1645 3428 
Q 1925 3584 2291 3584 
Q 2894 3584 3203 3211 
Q 3513 2838 3513 2113 
z
" id="DejaVuSans-6e" transform="scale(0.015625)"/>
        <path d="M 544 1381 
L 544 3500 
L 1119 3500 
L 1119 1403 
Q 1119 906 1312 657 
Q 1506 409 1894 409 
Q 2359 409 2629 706 
Q 2900 1003 2900 1516 
L 2900 3500 
L 3475 3500 
L 3475 0 
L 2900 0 
L 2900 538 
Q 2691 219 2414 64 
Q 2138 -91 1772 -91 
Q 1169 -91 856 284 
Q 544 659 544 1381 
z
M 1991 3584 
L 1991 3584 
z
" id="DejaVuSans-75" transform="scale(0.015625)"/>
        <path d="M 2631 2963 
Q 2534 3019 2420 3045 
Q 2306 3072 2169 3072 
Q 1681 3072 1420 2755 
Q 1159 2438 1159 1844 
L 1159 0 
L 581 0 
L 581 3500 
L 1159 3500 
L 1159 2956 
Q 1341 3275 1631 3429 
Q 1922 3584 2338 3584 
Q 2397 3584 2469 3576 
Q 2541 3569 2628 3553 
L 2631 2963 
z
" id="DejaVuSans-72" transform="scale(0.015625)"/>
        <path d="M 2059 -325 
Q 1816 -950 1584 -1140 
Q 1353 -1331 966 -1331 
L 506 -1331 
L 506 -850 
L 844 -850 
Q 1081 -850 1212 -737 
Q 1344 -625 1503 -206 
L 1606 56 
L 191 3500 
L 800 3500 
L 1894 763 
L 2988 3500 
L 3597 3500 
L 2059 -325 
z
" id="DejaVuSans-79" transform="scale(0.015625)"/>
       </defs>
       <use xlink:href="#DejaVuSans-4a"/>
       <use x="29.492188" xlink:href="#DejaVuSans-61"/>
       <use x="90.771484" xlink:href="#DejaVuSans-6e"/>
       <use x="154.150391" xlink:href="#DejaVuSans-75"/>
       <use x="217.529297" xlink:href="#DejaVuSans-61"/>
       <use x="278.808594" xlink:href="#DejaVuSans-72"/>
       <use x="319.921875" xlink:href="#DejaVuSans-79"/>
      </g>
     </g>
    </g>
    <g id="xtick_2">
     <g id="line2d_2">
      <g>
       <use style="stroke:#000000;stroke-width:0.8;" x="283.686923" xlink:href="#m7b153531c3" y="768.96"/>
      </g>
     </g>
     <g id="text_2">
      <!-- February -->
      <g transform="translate(261.532236 783.558437)scale(0.1 -0.1)">
       <defs>
        <path d="M 628 4666 
L 3309 4666 
L 3309 4134 
L 1259 4134 
L 1259 2759 
L 3109 2759 
L 3109 2228 
L 1259 2228 
L 1259 0 
L 628 0 
L 628 4666 
z
" id="DejaVuSans-46" transform="scale(0.015625)"/>
        <path d="M 3597 1894 
L 3597 1613 
L 953 1613 
Q 991 1019 1311 708 
Q 1631 397 2203 397 
Q 2534 397 2845 478 
Q 3156 559 3463 722 
L 3463 178 
Q 3153 47 2828 -22 
Q 2503 -91 2169 -91 
Q 1331 -91 842 396 
Q 353 884 353 1716 
Q 353 2575 817 3079 
Q 1281 3584 2069 3584 
Q 2775 3584 3186 3129 
Q 3597 2675 3597 1894 
z
M 3022 2063 
Q 3016 2534 2758 2815 
Q 2500 3097 2075 3097 
Q 1594 3097 1305 2825 
Q 1016 2553 972 2059 
L 3022 2063 
z
" id="DejaVuSans-65" transform="scale(0.015625)"/>
        <path d="M 3116 1747 
Q 3116 2381 2855 2742 
Q 2594 3103 2138 3103 
Q 1681 3103 1420 2742 
Q 1159 2381 1159 1747 
Q 1159 1113 1420 752 
Q 1681 391 2138 391 
Q 2594 391 2855 752 
Q 3116 1113 3116 1747 
z
M 1159 2969 
Q 1341 3281 1617 3432 
Q 1894 3584 2278 3584 
Q 2916 3584 3314 3078 
Q 3713 2572 3713 1747 
Q 3713 922 3314 415 
Q 2916 -91 2278 -91 
Q 1894 -91 1617 61 
Q 1341 213 1159 525 
L 1159 0 
L 581 0 
L 581 4863 
L 1159 4863 
L 1159 2969 
z
" id="DejaVuSans-62" transform="scale(0.015625)"/>
       </defs>
       <use xlink:href="#DejaVuSans-46"/>
       <use x="52.019531" xlink:href="#DejaVuSans-65"/>
       <use x="113.542969" xlink:href="#DejaVuSans-62"/>
       <use x="177.019531" xlink:href="#DejaVuSans-72"/>
       <use x="218.132812" xlink:href="#DejaVuSans-75"/>
       <use x="281.511719" xlink:href="#DejaVuSans-61"/>
       <use x="342.791016" xlink:href="#DejaVuSans-72"/>
       <use x="383.904297" xlink:href="#DejaVuSans-79"/>
      </g>
     </g>
    </g>
    <g id="xtick_3">
     <g id="line2d_3">
      <g>
       <use style="stroke:#000000;stroke-width:0.8;" x="391.853077" xlink:href="#m7b153531c3" y="768.96"/>
      </g>
     </g>
     <g id="text_3">
      <!-- March -->
      <g transform="translate(376.614014 783.558437)scale(0.1 -0.1)">
       <defs>
        <path d="M 628 4666 
L 1569 4666 
L 2759 1491 
L 3956 4666 
L 4897 4666 
L 4897 0 
L 4281 0 
L 4281 4097 
L 3078 897 
L 2444 897 
L 1241 4097 
L 1241 0 
L 628 0 
L 628 4666 
z
" id="DejaVuSans-4d" transform="scale(0.015625)"/>
        <path d="M 3122 3366 
L 3122 2828 
Q 2878 2963 2633 3030 
Q 2388 3097 2138 3097 
Q 1578 3097 1268 2742 
Q 959 2388 959 1747 
Q 959 1106 1268 751 
Q 1578 397 2138 397 
Q 2388 397 2633 464 
Q 2878 531 3122 666 
L 3122 134 
Q 2881 22 2623 -34 
Q 2366 -91 2075 -91 
Q 1284 -91 818 406 
Q 353 903 353 1747 
Q 353 2603 823 3093 
Q 1294 3584 2113 3584 
Q 2378 3584 2631 3529 
Q 2884 3475 3122 3366 
z
" id="DejaVuSans-63" transform="scale(0.015625)"/>
        <path d="M 3513 2113 
L 3513 0 
L 2938 0 
L 2938 2094 
Q 2938 2591 2744 2837 
Q 2550 3084 2163 3084 
Q 1697 3084 1428 2787 
Q 1159 2491 1159 1978 
L 1159 0 
L 581 0 
L 581 4863 
L 1159 4863 
L 1159 2956 
Q 1366 3272 1645 3428 
Q 1925 3584 2291 3584 
Q 2894 3584 3203 3211 
Q 3513 2838 3513 2113 
z
" id="DejaVuSans-68" transform="scale(0.015625)"/>
       </defs>
       <use xlink:href="#DejaVuSans-4d"/>
       <use x="86.279297" xlink:href="#DejaVuSans-61"/>
       <use x="147.558594" xlink:href="#DejaVuSans-72"/>
       <use x="186.421875" xlink:href="#DejaVuSans-63"/>
       <use x="241.402344" xlink:href="#DejaVuSans-68"/>
      </g>
     </g>
    </g>
    <g id="xtick_4">
     <g id="line2d_4">
      <g>
       <use style="stroke:#000000;stroke-width:0.8;" x="511.608462" xlink:href="#m7b153531c3" y="768.96"/>
      </g>
     </g>
     <g id="text_4">
      <!-- April -->
      <g transform="translate(500.180337 783.558437)scale(0.1 -0.1)">
       <defs>
        <path d="M 2188 4044 
L 1331 1722 
L 3047 1722 
L 2188 4044 
z
M 1831 4666 
L 2547 4666 
L 4325 0 
L 3669 0 
L 3244 1197 
L 1141 1197 
L 716 0 
L 50 0 
L 1831 4666 
z
" id="DejaVuSans-41" transform="scale(0.015625)"/>
        <path d="M 1159 525 
L 1159 -1331 
L 581 -1331 
L 581 3500 
L 1159 3500 
L 1159 2969 
Q 1341 3281 1617 3432 
Q 1894 3584 2278 3584 
Q 2916 3584 3314 3078 
Q 3713 2572 3713 1747 
Q 3713 922 3314 415 
Q 2916 -91 2278 -91 
Q 1894 -91 1617 61 
Q 1341 213 1159 525 
z
M 3116 1747 
Q 3116 2381 2855 2742 
Q 2594 3103 2138 3103 
Q 1681 3103 1420 2742 
Q 1159 2381 1159 1747 
Q 1159 1113 1420 752 
Q 1681 391 2138 391 
Q 2594 391 2855 752 
Q 3116 1113 3116 1747 
z
" id="DejaVuSans-70" transform="scale(0.015625)"/>
        <path d="M 603 3500 
L 1178 3500 
L 1178 0 
L 603 0 
L 603 3500 
z
M 603 4863 
L 1178 4863 
L 1178 4134 
L 603 4134 
L 603 4863 
z
" id="DejaVuSans-69" transform="scale(0.015625)"/>
        <path d="M 603 4863 
L 1178 4863 
L 1178 0 
L 603 0 
L 603 4863 
z
" id="DejaVuSans-6c" transform="scale(0.015625)"/>
       </defs>
       <use xlink:href="#DejaVuSans-41"/>
       <use x="68.408203" xlink:href="#DejaVuSans-70"/>
       <use x="131.884766" xlink:href="#DejaVuSans-72"/>
       <use x="172.998047" xlink:href="#DejaVuSans-69"/>
       <use x="200.78125" xlink:href="#DejaVuSans-6c"/>
      </g>
     </g>
    </g>
    <g id="xtick_5">
     <g id="line2d_5">
      <g>
       <use style="stroke:#000000;stroke-width:0.8;" x="627.500769" xlink:href="#m7b153531c3" y="768.96"/>
      </g>
     </g>
     <g id="text_5">
      <!-- May -->
      <g transform="translate(617.163269 783.558437)scale(0.1 -0.1)">
       <use xlink:href="#DejaVuSans-4d"/>
       <use x="86.279297" xlink:href="#DejaVuSans-61"/>
       <use x="147.558594" xlink:href="#DejaVuSans-79"/>
      </g>
     </g>
    </g>
    <g id="xtick_6">
     <g id="line2d_6">
      <g>
       <use style="stroke:#000000;stroke-width:0.8;" x="747.256154" xlink:href="#m7b153531c3" y="768.96"/>
      </g>
     </g>
     <g id="text_6">
      <!-- June -->
      <g transform="translate(736.367091 783.558437)scale(0.1 -0.1)">
       <use xlink:href="#DejaVuSans-4a"/>
       <use x="29.492188" xlink:href="#DejaVuSans-75"/>
       <use x="92.871094" xlink:href="#DejaVuSans-6e"/>
       <use x="156.25" xlink:href="#DejaVuSans-65"/>
      </g>
     </g>
    </g>
    <g id="xtick_7">
     <g id="line2d_7">
      <g>
       <use style="stroke:#000000;stroke-width:0.8;" x="863.148462" xlink:href="#m7b153531c3" y="768.96"/>
      </g>
     </g>
     <g id="text_7">
      <!-- July -->
      <g transform="translate(854.156274 783.558437)scale(0.1 -0.1)">
       <use xlink:href="#DejaVuSans-4a"/>
       <use x="29.492188" xlink:href="#DejaVuSans-75"/>
       <use x="92.871094" xlink:href="#DejaVuSans-6c"/>
       <use x="120.654297" xlink:href="#DejaVuSans-79"/>
      </g>
     </g>
    </g>
    <g id="xtick_8">
     <g id="line2d_8">
      <g>
       <use style="stroke:#000000;stroke-width:0.8;" x="982.903846" xlink:href="#m7b153531c3" y="768.96"/>
      </g>
     </g>
     <g id="text_8">
      <!-- August -->
      <g transform="translate(965.406971 783.558437)scale(0.1 -0.1)">
       <defs>
        <path d="M 2906 1791 
Q 2906 2416 2648 2759 
Q 2391 3103 1925 3103 
Q 1463 3103 1205 2759 
Q 947 2416 947 1791 
Q 947 1169 1205 825 
Q 1463 481 1925 481 
Q 2391 481 2648 825 
Q 2906 1169 2906 1791 
z
M 3481 434 
Q 3481 -459 3084 -895 
Q 2688 -1331 1869 -1331 
Q 1566 -1331 1297 -1286 
Q 1028 -1241 775 -1147 
L 775 -588 
Q 1028 -725 1275 -790 
Q 1522 -856 1778 -856 
Q 2344 -856 2625 -561 
Q 2906 -266 2906 331 
L 2906 616 
Q 2728 306 2450 153 
Q 2172 0 1784 0 
Q 1141 0 747 490 
Q 353 981 353 1791 
Q 353 2603 747 3093 
Q 1141 3584 1784 3584 
Q 2172 3584 2450 3431 
Q 2728 3278 2906 2969 
L 2906 3500 
L 3481 3500 
L 3481 434 
z
" id="DejaVuSans-67" transform="scale(0.015625)"/>
        <path d="M 2834 3397 
L 2834 2853 
Q 2591 2978 2328 3040 
Q 2066 3103 1784 3103 
Q 1356 3103 1142 2972 
Q 928 2841 928 2578 
Q 928 2378 1081 2264 
Q 1234 2150 1697 2047 
L 1894 2003 
Q 2506 1872 2764 1633 
Q 3022 1394 3022 966 
Q 3022 478 2636 193 
Q 2250 -91 1575 -91 
Q 1294 -91 989 -36 
Q 684 19 347 128 
L 347 722 
Q 666 556 975 473 
Q 1284 391 1588 391 
Q 1994 391 2212 530 
Q 2431 669 2431 922 
Q 2431 1156 2273 1281 
Q 2116 1406 1581 1522 
L 1381 1569 
Q 847 1681 609 1914 
Q 372 2147 372 2553 
Q 372 3047 722 3315 
Q 1072 3584 1716 3584 
Q 2034 3584 2315 3537 
Q 2597 3491 2834 3397 
z
" id="DejaVuSans-73" transform="scale(0.015625)"/>
        <path d="M 1172 4494 
L 1172 3500 
L 2356 3500 
L 2356 3053 
L 1172 3053 
L 1172 1153 
Q 1172 725 1289 603 
Q 1406 481 1766 481 
L 2356 481 
L 2356 0 
L 1766 0 
Q 1100 0 847 248 
Q 594 497 594 1153 
L 594 3053 
L 172 3053 
L 172 3500 
L 594 3500 
L 594 4494 
L 1172 4494 
z
" id="DejaVuSans-74" transform="scale(0.015625)"/>
       </defs>
       <use xlink:href="#DejaVuSans-41"/>
       <use x="68.408203" xlink:href="#DejaVuSans-75"/>
       <use x="131.787109" xlink:href="#DejaVuSans-67"/>
       <use x="195.263672" xlink:href="#DejaVuSans-75"/>
       <use x="258.642578" xlink:href="#DejaVuSans-73"/>
       <use x="310.742188" xlink:href="#DejaVuSans-74"/>
      </g>
     </g>
    </g>
    <g id="xtick_9">
     <g id="line2d_9">
      <g>
       <use style="stroke:#000000;stroke-width:0.8;" x="1102.659231" xlink:href="#m7b153531c3" y="768.96"/>
      </g>
     </g>
     <g id="text_9">
      <!-- September -->
      <g transform="translate(1075.02095 783.558437)scale(0.1 -0.1)">
       <defs>
        <path d="M 3425 4513 
L 3425 3897 
Q 3066 4069 2747 4153 
Q 2428 4238 2131 4238 
Q 1616 4238 1336 4038 
Q 1056 3838 1056 3469 
Q 1056 3159 1242 3001 
Q 1428 2844 1947 2747 
L 2328 2669 
Q 3034 2534 3370 2195 
Q 3706 1856 3706 1288 
Q 3706 609 3251 259 
Q 2797 -91 1919 -91 
Q 1588 -91 1214 -16 
Q 841 59 441 206 
L 441 856 
Q 825 641 1194 531 
Q 1563 422 1919 422 
Q 2459 422 2753 634 
Q 3047 847 3047 1241 
Q 3047 1584 2836 1778 
Q 2625 1972 2144 2069 
L 1759 2144 
Q 1053 2284 737 2584 
Q 422 2884 422 3419 
Q 422 4038 858 4394 
Q 1294 4750 2059 4750 
Q 2388 4750 2728 4690 
Q 3069 4631 3425 4513 
z
" id="DejaVuSans-53" transform="scale(0.015625)"/>
        <path d="M 3328 2828 
Q 3544 3216 3844 3400 
Q 4144 3584 4550 3584 
Q 5097 3584 5394 3201 
Q 5691 2819 5691 2113 
L 5691 0 
L 5113 0 
L 5113 2094 
Q 5113 2597 4934 2840 
Q 4756 3084 4391 3084 
Q 3944 3084 3684 2787 
Q 3425 2491 3425 1978 
L 3425 0 
L 2847 0 
L 2847 2094 
Q 2847 2600 2669 2842 
Q 2491 3084 2119 3084 
Q 1678 3084 1418 2786 
Q 1159 2488 1159 1978 
L 1159 0 
L 581 0 
L 581 3500 
L 1159 3500 
L 1159 2956 
Q 1356 3278 1631 3431 
Q 1906 3584 2284 3584 
Q 2666 3584 2933 3390 
Q 3200 3197 3328 2828 
z
" id="DejaVuSans-6d" transform="scale(0.015625)"/>
       </defs>
       <use xlink:href="#DejaVuSans-53"/>
       <use x="63.476562" xlink:href="#DejaVuSans-65"/>
       <use x="125" xlink:href="#DejaVuSans-70"/>
       <use x="188.476562" xlink:href="#DejaVuSans-74"/>
       <use x="227.685547" xlink:href="#DejaVuSans-65"/>
       <use x="289.208984" xlink:href="#DejaVuSans-6d"/>
       <use x="386.621094" xlink:href="#DejaVuSans-62"/>
       <use x="450.097656" xlink:href="#DejaVuSans-65"/>
       <use x="511.621094" xlink:href="#DejaVuSans-72"/>
      </g>
     </g>
    </g>
   </g>
   <g id="matplotlib.axis_2">
    <g id="ytick_1">
     <g id="line2d_10">
      <defs>
       <path d="M 0 0 
L -3.5 0 
" id="m8027b9948e" style="stroke:#000000;stroke-width:0.8;"/>
      </defs>
      <g>
       <use style="stroke:#000000;stroke-width:0.8;" x="162" xlink:href="#m8027b9948e" y="768.96"/>
      </g>
     </g>
     <g id="text_10">
      <!-- 0.0 -->
      <g transform="translate(139.096875 772.759219)scale(0.1 -0.1)">
       <defs>
        <path d="M 2034 4250 
Q 1547 4250 1301 3770 
Q 1056 3291 1056 2328 
Q 1056 1369 1301 889 
Q 1547 409 2034 409 
Q 2525 409 2770 889 
Q 3016 1369 3016 2328 
Q 3016 3291 2770 3770 
Q 2525 4250 2034 4250 
z
M 2034 4750 
Q 2819 4750 3233 4129 
Q 3647 3509 3647 2328 
Q 3647 1150 3233 529 
Q 2819 -91 2034 -91 
Q 1250 -91 836 529 
Q 422 1150 422 2328 
Q 422 3509 836 4129 
Q 1250 4750 2034 4750 
z
" id="DejaVuSans-30" transform="scale(0.015625)"/>
        <path d="M 684 794 
L 1344 794 
L 1344 0 
L 684 0 
L 684 794 
z
" id="DejaVuSans-2e" transform="scale(0.015625)"/>
       </defs>
       <use xlink:href="#DejaVuSans-30"/>
       <use x="63.623047" xlink:href="#DejaVuSans-2e"/>
       <use x="95.410156" xlink:href="#DejaVuSans-30"/>
      </g>
     </g>
    </g>
    <g id="ytick_2">
     <g id="line2d_11">
      <g>
       <use style="stroke:#000000;stroke-width:0.8;" x="162" xlink:href="#m8027b9948e" y="684.764692"/>
      </g>
     </g>
     <g id="text_11">
      <!-- 0.2 -->
      <g transform="translate(139.096875 688.563911)scale(0.1 -0.1)">
       <defs>
        <path d="M 1228 531 
L 3431 531 
L 3431 0 
L 469 0 
L 469 531 
Q 828 903 1448 1529 
Q 2069 2156 2228 2338 
Q 2531 2678 2651 2914 
Q 2772 3150 2772 3378 
Q 2772 3750 2511 3984 
Q 2250 4219 1831 4219 
Q 1534 4219 1204 4116 
Q 875 4013 500 3803 
L 500 4441 
Q 881 4594 1212 4672 
Q 1544 4750 1819 4750 
Q 2544 4750 2975 4387 
Q 3406 4025 3406 3419 
Q 3406 3131 3298 2873 
Q 3191 2616 2906 2266 
Q 2828 2175 2409 1742 
Q 1991 1309 1228 531 
z
" id="DejaVuSans-32" transform="scale(0.015625)"/>
       </defs>
       <use xlink:href="#DejaVuSans-30"/>
       <use x="63.623047" xlink:href="#DejaVuSans-2e"/>
       <use x="95.410156" xlink:href="#DejaVuSans-32"/>
      </g>
     </g>
    </g>
    <g id="ytick_3">
     <g id="line2d_12">
      <g>
       <use style="stroke:#000000;stroke-width:0.8;" x="162" xlink:href="#m8027b9948e" y="600.569385"/>
      </g>
     </g>
     <g id="text_12">
      <!-- 0.4 -->
      <g transform="translate(139.096875 604.368604)scale(0.1 -0.1)">
       <defs>
        <path d="M 2419 4116 
L 825 1625 
L 2419 1625 
L 2419 4116 
z
M 2253 4666 
L 3047 4666 
L 3047 1625 
L 3713 1625 
L 3713 1100 
L 3047 1100 
L 3047 0 
L 2419 0 
L 2419 1100 
L 313 1100 
L 313 1709 
L 2253 4666 
z
" id="DejaVuSans-34" transform="scale(0.015625)"/>
       </defs>
       <use xlink:href="#DejaVuSans-30"/>
       <use x="63.623047" xlink:href="#DejaVuSans-2e"/>
       <use x="95.410156" xlink:href="#DejaVuSans-34"/>
      </g>
     </g>
    </g>
    <g id="ytick_4">
     <g id="line2d_13">
      <g>
       <use style="stroke:#000000;stroke-width:0.8;" x="162" xlink:href="#m8027b9948e" y="516.374077"/>
      </g>
     </g>
     <g id="text_13">
      <!-- 0.6 -->
      <g transform="translate(139.096875 520.173296)scale(0.1 -0.1)">
       <defs>
        <path d="M 2113 2584 
Q 1688 2584 1439 2293 
Q 1191 2003 1191 1497 
Q 1191 994 1439 701 
Q 1688 409 2113 409 
Q 2538 409 2786 701 
Q 3034 994 3034 1497 
Q 3034 2003 2786 2293 
Q 2538 2584 2113 2584 
z
M 3366 4563 
L 3366 3988 
Q 3128 4100 2886 4159 
Q 2644 4219 2406 4219 
Q 1781 4219 1451 3797 
Q 1122 3375 1075 2522 
Q 1259 2794 1537 2939 
Q 1816 3084 2150 3084 
Q 2853 3084 3261 2657 
Q 3669 2231 3669 1497 
Q 3669 778 3244 343 
Q 2819 -91 2113 -91 
Q 1303 -91 875 529 
Q 447 1150 447 2328 
Q 447 3434 972 4092 
Q 1497 4750 2381 4750 
Q 2619 4750 2861 4703 
Q 3103 4656 3366 4563 
z
" id="DejaVuSans-36" transform="scale(0.015625)"/>
       </defs>
       <use xlink:href="#DejaVuSans-30"/>
       <use x="63.623047" xlink:href="#DejaVuSans-2e"/>
       <use x="95.410156" xlink:href="#DejaVuSans-36"/>
      </g>
     </g>
    </g>
    <g id="ytick_5">
     <g id="line2d_14">
      <g>
       <use style="stroke:#000000;stroke-width:0.8;" x="162" xlink:href="#m8027b9948e" y="432.17877"/>
      </g>
     </g>
     <g id="text_14">
      <!-- 0.8 -->
      <g transform="translate(139.096875 435.977988)scale(0.1 -0.1)">
       <defs>
        <path d="M 2034 2216 
Q 1584 2216 1326 1975 
Q 1069 1734 1069 1313 
Q 1069 891 1326 650 
Q 1584 409 2034 409 
Q 2484 409 2743 651 
Q 3003 894 3003 1313 
Q 3003 1734 2745 1975 
Q 2488 2216 2034 2216 
z
M 1403 2484 
Q 997 2584 770 2862 
Q 544 3141 544 3541 
Q 544 4100 942 4425 
Q 1341 4750 2034 4750 
Q 2731 4750 3128 4425 
Q 3525 4100 3525 3541 
Q 3525 3141 3298 2862 
Q 3072 2584 2669 2484 
Q 3125 2378 3379 2068 
Q 3634 1759 3634 1313 
Q 3634 634 3220 271 
Q 2806 -91 2034 -91 
Q 1263 -91 848 271 
Q 434 634 434 1313 
Q 434 1759 690 2068 
Q 947 2378 1403 2484 
z
M 1172 3481 
Q 1172 3119 1398 2916 
Q 1625 2713 2034 2713 
Q 2441 2713 2670 2916 
Q 2900 3119 2900 3481 
Q 2900 3844 2670 4047 
Q 2441 4250 2034 4250 
Q 1625 4250 1398 4047 
Q 1172 3844 1172 3481 
z
" id="DejaVuSans-38" transform="scale(0.015625)"/>
       </defs>
       <use xlink:href="#DejaVuSans-30"/>
       <use x="63.623047" xlink:href="#DejaVuSans-2e"/>
       <use x="95.410156" xlink:href="#DejaVuSans-38"/>
      </g>
     </g>
    </g>
    <g id="ytick_6">
     <g id="line2d_15">
      <g>
       <use style="stroke:#000000;stroke-width:0.8;" x="162" xlink:href="#m8027b9948e" y="347.983462"/>
      </g>
     </g>
     <g id="text_15">
      <!-- 1.0 -->
      <g transform="translate(139.096875 351.782681)scale(0.1 -0.1)">
       <defs>
        <path d="M 794 531 
L 1825 531 
L 1825 4091 
L 703 3866 
L 703 4441 
L 1819 4666 
L 2450 4666 
L 2450 531 
L 3481 531 
L 3481 0 
L 794 0 
L 794 531 
z
" id="DejaVuSans-31" transform="scale(0.015625)"/>
       </defs>
       <use xlink:href="#DejaVuSans-31"/>
       <use x="63.623047" xlink:href="#DejaVuSans-2e"/>
       <use x="95.410156" xlink:href="#DejaVuSans-30"/>
      </g>
     </g>
    </g>
    <g id="ytick_7">
     <g id="line2d_16">
      <g>
       <use style="stroke:#000000;stroke-width:0.8;" x="162" xlink:href="#m8027b9948e" y="263.788154"/>
      </g>
     </g>
     <g id="text_16">
      <!-- 1.2 -->
      <g transform="translate(139.096875 267.587373)scale(0.1 -0.1)">
       <use xlink:href="#DejaVuSans-31"/>
       <use x="63.623047" xlink:href="#DejaVuSans-2e"/>
       <use x="95.410156" xlink:href="#DejaVuSans-32"/>
      </g>
     </g>
    </g>
    <g id="ytick_8">
     <g id="line2d_17">
      <g>
       <use style="stroke:#000000;stroke-width:0.8;" x="162" xlink:href="#m8027b9948e" y="179.592847"/>
      </g>
     </g>
     <g id="text_17">
      <!-- 1.4 -->
      <g transform="translate(139.096875 183.392066)scale(0.1 -0.1)">
       <use xlink:href="#DejaVuSans-31"/>
       <use x="63.623047" xlink:href="#DejaVuSans-2e"/>
       <use x="95.410156" xlink:href="#DejaVuSans-34"/>
      </g>
     </g>
    </g>
    <g id="text_18">
     <!-- Persons fully vaccinated (tens of millions) -->
     <g transform="translate(133.017188 540.480156)rotate(-90)scale(0.1 -0.1)">
      <defs>
       <path d="M 1259 4147 
L 1259 2394 
L 2053 2394 
Q 2494 2394 2734 2622 
Q 2975 2850 2975 3272 
Q 2975 3691 2734 3919 
Q 2494 4147 2053 4147 
L 1259 4147 
z
M 628 4666 
L 2053 4666 
Q 2838 4666 3239 4311 
Q 3641 3956 3641 3272 
Q 3641 2581 3239 2228 
Q 2838 1875 2053 1875 
L 1259 1875 
L 1259 0 
L 628 0 
L 628 4666 
z
" id="DejaVuSans-50" transform="scale(0.015625)"/>
       <path d="M 1959 3097 
Q 1497 3097 1228 2736 
Q 959 2375 959 1747 
Q 959 1119 1226 758 
Q 1494 397 1959 397 
Q 2419 397 2687 759 
Q 2956 1122 2956 1747 
Q 2956 2369 2687 2733 
Q 2419 3097 1959 3097 
z
M 1959 3584 
Q 2709 3584 3137 3096 
Q 3566 2609 3566 1747 
Q 3566 888 3137 398 
Q 2709 -91 1959 -91 
Q 1206 -91 779 398 
Q 353 888 353 1747 
Q 353 2609 779 3096 
Q 1206 3584 1959 3584 
z
" id="DejaVuSans-6f" transform="scale(0.015625)"/>
       <path id="DejaVuSans-20" transform="scale(0.015625)"/>
       <path d="M 2375 4863 
L 2375 4384 
L 1825 4384 
Q 1516 4384 1395 4259 
Q 1275 4134 1275 3809 
L 1275 3500 
L 2222 3500 
L 2222 3053 
L 1275 3053 
L 1275 0 
L 697 0 
L 697 3053 
L 147 3053 
L 147 3500 
L 697 3500 
L 697 3744 
Q 697 4328 969 4595 
Q 1241 4863 1831 4863 
L 2375 4863 
z
" id="DejaVuSans-66" transform="scale(0.015625)"/>
       <path d="M 191 3500 
L 800 3500 
L 1894 563 
L 2988 3500 
L 3597 3500 
L 2284 0 
L 1503 0 
L 191 3500 
z
" id="DejaVuSans-76" transform="scale(0.015625)"/>
       <path d="M 2906 2969 
L 2906 4863 
L 3481 4863 
L 3481 0 
L 2906 0 
L 2906 525 
Q 2725 213 2448 61 
Q 2172 -91 1784 -91 
Q 1150 -91 751 415 
Q 353 922 353 1747 
Q 353 2572 751 3078 
Q 1150 3584 1784 3584 
Q 2172 3584 2448 3432 
Q 2725 3281 2906 2969 
z
M 947 1747 
Q 947 1113 1208 752 
Q 1469 391 1925 391 
Q 2381 391 2643 752 
Q 2906 1113 2906 1747 
Q 2906 2381 2643 2742 
Q 2381 3103 1925 3103 
Q 1469 3103 1208 2742 
Q 947 2381 947 1747 
z
" id="DejaVuSans-64" transform="scale(0.015625)"/>
       <path d="M 1984 4856 
Q 1566 4138 1362 3434 
Q 1159 2731 1159 2009 
Q 1159 1288 1364 580 
Q 1569 -128 1984 -844 
L 1484 -844 
Q 1016 -109 783 600 
Q 550 1309 550 2009 
Q 550 2706 781 3412 
Q 1013 4119 1484 4856 
L 1984 4856 
z
" id="DejaVuSans-28" transform="scale(0.015625)"/>
       <path d="M 513 4856 
L 1013 4856 
Q 1481 4119 1714 3412 
Q 1947 2706 1947 2009 
Q 1947 1309 1714 600 
Q 1481 -109 1013 -844 
L 513 -844 
Q 928 -128 1133 580 
Q 1338 1288 1338 2009 
Q 1338 2731 1133 3434 
Q 928 4138 513 4856 
z
" id="DejaVuSans-29" transform="scale(0.015625)"/>
      </defs>
      <use xlink:href="#DejaVuSans-50"/>
      <use x="56.677734" xlink:href="#DejaVuSans-65"/>
      <use x="118.201172" xlink:href="#DejaVuSans-72"/>
      <use x="159.314453" xlink:href="#DejaVuSans-73"/>
      <use x="211.414062" xlink:href="#DejaVuSans-6f"/>
      <use x="272.595703" xlink:href="#DejaVuSans-6e"/>
      <use x="335.974609" xlink:href="#DejaVuSans-73"/>
      <use x="388.074219" xlink:href="#DejaVuSans-20"/>
      <use x="419.861328" xlink:href="#DejaVuSans-66"/>
      <use x="455.066406" xlink:href="#DejaVuSans-75"/>
      <use x="518.445312" xlink:href="#DejaVuSans-6c"/>
      <use x="546.228516" xlink:href="#DejaVuSans-6c"/>
      <use x="574.011719" xlink:href="#DejaVuSans-79"/>
      <use x="633.191406" xlink:href="#DejaVuSans-20"/>
      <use x="664.978516" xlink:href="#DejaVuSans-76"/>
      <use x="724.158203" xlink:href="#DejaVuSans-61"/>
      <use x="785.4375" xlink:href="#DejaVuSans-63"/>
      <use x="840.417969" xlink:href="#DejaVuSans-63"/>
      <use x="895.398438" xlink:href="#DejaVuSans-69"/>
      <use x="923.181641" xlink:href="#DejaVuSans-6e"/>
      <use x="986.560547" xlink:href="#DejaVuSans-61"/>
      <use x="1047.839844" xlink:href="#DejaVuSans-74"/>
      <use x="1087.048828" xlink:href="#DejaVuSans-65"/>
      <use x="1148.572266" xlink:href="#DejaVuSans-64"/>
      <use x="1212.048828" xlink:href="#DejaVuSans-20"/>
      <use x="1243.835938" xlink:href="#DejaVuSans-28"/>
      <use x="1282.849609" xlink:href="#DejaVuSans-74"/>
      <use x="1322.058594" xlink:href="#DejaVuSans-65"/>
      <use x="1383.582031" xlink:href="#DejaVuSans-6e"/>
      <use x="1446.960938" xlink:href="#DejaVuSans-73"/>
      <use x="1499.060547" xlink:href="#DejaVuSans-20"/>
      <use x="1530.847656" xlink:href="#DejaVuSans-6f"/>
      <use x="1592.029297" xlink:href="#DejaVuSans-66"/>
      <use x="1627.234375" xlink:href="#DejaVuSans-20"/>
      <use x="1659.021484" xlink:href="#DejaVuSans-6d"/>
      <use x="1756.433594" xlink:href="#DejaVuSans-69"/>
      <use x="1784.216797" xlink:href="#DejaVuSans-6c"/>
      <use x="1812" xlink:href="#DejaVuSans-6c"/>
      <use x="1839.783203" xlink:href="#DejaVuSans-69"/>
      <use x="1867.566406" xlink:href="#DejaVuSans-6f"/>
      <use x="1928.748047" xlink:href="#DejaVuSans-6e"/>
      <use x="1992.126953" xlink:href="#DejaVuSans-73"/>
      <use x="2044.226562" xlink:href="#DejaVuSans-29"/>
     </g>
    </g>
    <g id="text_19">
     <!-- 1e7 -->
     <g transform="translate(162 100.68)scale(0.1 -0.1)">
      <defs>
       <path d="M 525 4666 
L 3525 4666 
L 3525 4397 
L 1831 0 
L 1172 0 
L 2766 4134 
L 525 4134 
L 525 4666 
z
" id="DejaVuSans-37" transform="scale(0.015625)"/>
      </defs>
      <use xlink:href="#DejaVuSans-31"/>
      <use x="63.623047" xlink:href="#DejaVuSans-65"/>
      <use x="125.146484" xlink:href="#DejaVuSans-37"/>
     </g>
    </g>
   </g>
   <g id="patch_263">
    <path d="M 162 768.96 
L 162 103.68 
" style="fill:none;stroke:#000000;stroke-linecap:square;stroke-linejoin:miter;stroke-width:0.8;"/>
   </g>
   <g id="patch_264">
    <path d="M 1166.4 768.96 
L 1166.4 103.68 
" style="fill:none;stroke:#000000;stroke-linecap:square;stroke-linejoin:miter;stroke-width:0.8;"/>
   </g>
   <g id="patch_265">
    <path d="M 162 768.96 
L 1166.4 768.96 
" style="fill:none;stroke:#000000;stroke-linecap:square;stroke-linejoin:miter;stroke-width:0.8;"/>
   </g>
   <g id="patch_266">
    <path d="M 162 103.68 
L 1166.4 103.68 
" style="fill:none;stroke:#000000;stroke-linecap:square;stroke-linejoin:miter;stroke-width:0.8;"/>
   </g>
   <g id="text_20">
    <!-- Persons Fully Vaccinated -->
    <g transform="translate(590.380313 97.68)scale(0.12 -0.12)">
     <defs>
      <path d="M 1831 0 
L 50 4666 
L 709 4666 
L 2188 738 
L 3669 4666 
L 4325 4666 
L 2547 0 
L 1831 0 
z
" id="DejaVuSans-56" transform="scale(0.015625)"/>
     </defs>
     <use xlink:href="#DejaVuSans-50"/>
     <use x="56.677734" xlink:href="#DejaVuSans-65"/>
     <use x="118.201172" xlink:href="#DejaVuSans-72"/>
     <use x="159.314453" xlink:href="#DejaVuSans-73"/>
     <use x="211.414062" xlink:href="#DejaVuSans-6f"/>
     <use x="272.595703" xlink:href="#DejaVuSans-6e"/>
     <use x="335.974609" xlink:href="#DejaVuSans-73"/>
     <use x="388.074219" xlink:href="#DejaVuSans-20"/>
     <use x="419.861328" xlink:href="#DejaVuSans-46"/>
     <use x="471.880859" xlink:href="#DejaVuSans-75"/>
     <use x="535.259766" xlink:href="#DejaVuSans-6c"/>
     <use x="563.042969" xlink:href="#DejaVuSans-6c"/>
     <use x="590.826172" xlink:href="#DejaVuSans-79"/>
     <use x="650.005859" xlink:href="#DejaVuSans-20"/>
     <use x="681.792969" xlink:href="#DejaVuSans-56"/>
     <use x="742.451172" xlink:href="#DejaVuSans-61"/>
     <use x="803.730469" xlink:href="#DejaVuSans-63"/>
     <use x="858.710938" xlink:href="#DejaVuSans-63"/>
     <use x="913.691406" xlink:href="#DejaVuSans-69"/>
     <use x="941.474609" xlink:href="#DejaVuSans-6e"/>
     <use x="1004.853516" xlink:href="#DejaVuSans-61"/>
     <use x="1066.132812" xlink:href="#DejaVuSans-74"/>
     <use x="1105.341797" xlink:href="#DejaVuSans-65"/>
     <use x="1166.865234" xlink:href="#DejaVuSans-64"/>
    </g>
   </g>
  </g>
 </g>
 <defs>
  <clipPath id="p2c5afd96c4">
   <rect height="665.28" width="1004.4" x="162" y="103.68"/>
  </clipPath>
 </defs>
</svg>
