<?xml version="1.0" encoding="utf-8" standalone="no"?>
<!DOCTYPE svg PUBLIC "-//W3C//DTD SVG 1.1//EN"
  "http://www.w3.org/Graphics/SVG/1.1/DTD/svg11.dtd">
<svg height="864pt" version="1.1" viewBox="0 0 1296 864" width="1296pt" xmlns="http://www.w3.org/2000/svg" xmlns:xlink="http://www.w3.org/1999/xlink">
 <metadata>
  <rdf:RDF xmlns:cc="http://creativecommons.org/ns#" xmlns:dc="http://purl.org/dc/elements/1.1/" xmlns:rdf="http://www.w3.org/1999/02/22-rdf-syntax-ns#">
   <cc:Work>
    <dc:type rdf:resource="http://purl.org/dc/dcmitype/StillImage"/>
    <dc:date>2021-08-17T08:21:11.265106</dc:date>
    <dc:format>image/svg+xml</dc:format>
    <dc:creator>
     <cc:Agent>
      <dc:title>Matplotlib v3.4.2, https://matplotlib.org/</dc:title>
     </cc:Agent>
    </dc:creator>
   </cc:Work>
  </rdf:RDF>
 </metadata>
 <defs>
  <style type="text/css">*{stroke-linecap:butt;stroke-linejoin:round;}</style>
 </defs>
 <g id="figure_1">
  <g id="patch_1">
   <path d="M 0 864 
L 1296 864 
L 1296 0 
L 0 0 
z
" style="fill:#ffffff;"/>
  </g>
  <g id="axes_1">
   <g id="patch_2">
    <path d="M 162 768.96 
L 1166.4 768.96 
L 1166.4 103.68 
L 162 103.68 
z
" style="fill:#ffffff;"/>
   </g>
   <g id="patch_3">
    <path clip-path="url(#pb94a799ceb)" d="M 163.106167 768.96 
L 165.318502 768.96 
L 165.318502 768.96 
L 163.106167 768.96 
z
" style="fill:#1f77b4;"/>
   </g>
   <g id="patch_4">
    <path clip-path="url(#pb94a799ceb)" d="M 167.530837 768.96 
L 169.743172 768.96 
L 169.743172 768.96 
L 167.530837 768.96 
z
" style="fill:#1f77b4;"/>
   </g>
   <g id="patch_5">
    <path clip-path="url(#pb94a799ceb)" d="M 171.955507 768.96 
L 174.167841 768.96 
L 174.167841 768.96 
L 171.955507 768.96 
z
" style="fill:#1f77b4;"/>
   </g>
   <g id="patch_6">
    <path clip-path="url(#pb94a799ceb)" d="M 176.380176 768.96 
L 178.592511 768.96 
L 178.592511 768.376964 
L 176.380176 768.376964 
z
" style="fill:#1f77b4;"/>
   </g>
   <g id="patch_7">
    <path clip-path="url(#pb94a799ceb)" d="M 180.804846 768.96 
L 183.017181 768.96 
L 183.017181 767.382373 
L 180.804846 767.382373 
z
" style="fill:#1f77b4;"/>
   </g>
   <g id="patch_8">
    <path clip-path="url(#pb94a799ceb)" d="M 185.229515 768.96 
L 187.44185 768.96 
L 187.44185 755.441569 
L 185.229515 755.441569 
z
" style="fill:#1f77b4;"/>
   </g>
   <g id="patch_9">
    <path clip-path="url(#pb94a799ceb)" d="M 189.654185 768.96 
L 191.86652 768.96 
L 191.86652 669.489499 
L 189.654185 669.489499 
z
" style="fill:#1f77b4;"/>
   </g>
   <g id="patch_10">
    <path clip-path="url(#pb94a799ceb)" d="M 194.078855 768.96 
L 196.291189 768.96 
L 196.291189 649.329031 
L 194.078855 649.329031 
z
" style="fill:#1f77b4;"/>
   </g>
   <g id="patch_11">
    <path clip-path="url(#pb94a799ceb)" d="M 198.503524 768.96 
L 200.715859 768.96 
L 200.715859 703.671409 
L 198.503524 703.671409 
z
" style="fill:#1f77b4;"/>
   </g>
   <g id="patch_12">
    <path clip-path="url(#pb94a799ceb)" d="M 202.928194 768.96 
L 205.140529 768.96 
L 205.140529 729.359285 
L 202.928194 729.359285 
z
" style="fill:#1f77b4;"/>
   </g>
   <g id="patch_13">
    <path clip-path="url(#pb94a799ceb)" d="M 207.352863 768.96 
L 209.565198 768.96 
L 209.565198 706.866674 
L 207.352863 706.866674 
z
" style="fill:#1f77b4;"/>
   </g>
   <g id="patch_14">
    <path clip-path="url(#pb94a799ceb)" d="M 211.777533 768.96 
L 213.989868 768.96 
L 213.989868 710.187692 
L 211.777533 710.187692 
z
" style="fill:#1f77b4;"/>
   </g>
   <g id="patch_15">
    <path clip-path="url(#pb94a799ceb)" d="M 216.202203 768.96 
L 218.414537 768.96 
L 218.414537 720.876684 
L 216.202203 720.876684 
z
" style="fill:#1f77b4;"/>
   </g>
   <g id="patch_16">
    <path clip-path="url(#pb94a799ceb)" d="M 220.626872 768.96 
L 222.839207 768.96 
L 222.839207 710.793593 
L 220.626872 710.793593 
z
" style="fill:#1f77b4;"/>
   </g>
   <g id="patch_17">
    <path clip-path="url(#pb94a799ceb)" d="M 225.051542 768.96 
L 227.263877 768.96 
L 227.263877 757.670824 
L 225.051542 757.670824 
z
" style="fill:#1f77b4;"/>
   </g>
   <g id="patch_18">
    <path clip-path="url(#pb94a799ceb)" d="M 229.476211 768.96 
L 231.688546 768.96 
L 231.688546 761.88926 
L 229.476211 761.88926 
z
" style="fill:#1f77b4;"/>
   </g>
   <g id="patch_19">
    <path clip-path="url(#pb94a799ceb)" d="M 233.900881 768.96 
L 236.113216 768.96 
L 236.113216 765.661846 
L 233.900881 765.661846 
z
" style="fill:#1f77b4;"/>
   </g>
   <g id="patch_20">
    <path clip-path="url(#pb94a799ceb)" d="M 238.325551 768.96 
L 240.537885 768.96 
L 240.537885 752.772179 
L 238.325551 752.772179 
z
" style="fill:#1f77b4;"/>
   </g>
   <g id="patch_21">
    <path clip-path="url(#pb94a799ceb)" d="M 242.75022 768.96 
L 244.962555 768.96 
L 244.962555 743.489333 
L 242.75022 743.489333 
z
" style="fill:#1f77b4;"/>
   </g>
   <g id="patch_22">
    <path clip-path="url(#pb94a799ceb)" d="M 247.17489 768.96 
L 249.387225 768.96 
L 249.387225 719.842081 
L 247.17489 719.842081 
z
" style="fill:#1f77b4;"/>
   </g>
   <g id="patch_23">
    <path clip-path="url(#pb94a799ceb)" d="M 251.599559 768.96 
L 253.811894 768.96 
L 253.811894 719.762057 
L 251.599559 719.762057 
z
" style="fill:#1f77b4;"/>
   </g>
   <g id="patch_24">
    <path clip-path="url(#pb94a799ceb)" d="M 256.024229 768.96 
L 258.236564 768.96 
L 258.236564 734.412264 
L 256.024229 734.412264 
z
" style="fill:#1f77b4;"/>
   </g>
   <g id="patch_25">
    <path clip-path="url(#pb94a799ceb)" d="M 260.448899 768.96 
L 262.661233 768.96 
L 262.661233 756.476172 
L 260.448899 756.476172 
z
" style="fill:#1f77b4;"/>
   </g>
   <g id="patch_26">
    <path clip-path="url(#pb94a799ceb)" d="M 264.873568 768.96 
L 267.085903 768.96 
L 267.085903 751.834749 
L 264.873568 751.834749 
z
" style="fill:#1f77b4;"/>
   </g>
   <g id="patch_27">
    <path clip-path="url(#pb94a799ceb)" d="M 269.298238 768.96 
L 271.510573 768.96 
L 271.510573 723.957629 
L 269.298238 723.957629 
z
" style="fill:#1f77b4;"/>
   </g>
   <g id="patch_28">
    <path clip-path="url(#pb94a799ceb)" d="M 273.722907 768.96 
L 275.935242 768.96 
L 275.935242 688.306697 
L 273.722907 688.306697 
z
" style="fill:#1f77b4;"/>
   </g>
   <g id="patch_29">
    <path clip-path="url(#pb94a799ceb)" d="M 278.147577 768.96 
L 280.359912 768.96 
L 280.359912 661.126934 
L 278.147577 661.126934 
z
" style="fill:#1f77b4;"/>
   </g>
   <g id="patch_30">
    <path clip-path="url(#pb94a799ceb)" d="M 282.572247 768.96 
L 284.784581 768.96 
L 284.784581 676.84604 
L 282.572247 676.84604 
z
" style="fill:#1f77b4;"/>
   </g>
   <g id="patch_31">
    <path clip-path="url(#pb94a799ceb)" d="M 286.996916 768.96 
L 289.209251 768.96 
L 289.209251 688.48961 
L 286.996916 688.48961 
z
" style="fill:#1f77b4;"/>
   </g>
   <g id="patch_32">
    <path clip-path="url(#pb94a799ceb)" d="M 291.421586 768.96 
L 293.633921 768.96 
L 293.633921 726.026835 
L 291.421586 726.026835 
z
" style="fill:#1f77b4;"/>
   </g>
   <g id="patch_33">
    <path clip-path="url(#pb94a799ceb)" d="M 295.846256 768.96 
L 298.05859 768.96 
L 298.05859 744.929774 
L 295.846256 744.929774 
z
" style="fill:#1f77b4;"/>
   </g>
   <g id="patch_34">
    <path clip-path="url(#pb94a799ceb)" d="M 300.270925 768.96 
L 302.48326 768.96 
L 302.48326 723.048779 
L 300.270925 723.048779 
z
" style="fill:#1f77b4;"/>
   </g>
   <g id="patch_35">
    <path clip-path="url(#pb94a799ceb)" d="M 304.695595 768.96 
L 306.90793 768.96 
L 306.90793 670.249732 
L 304.695595 670.249732 
z
" style="fill:#1f77b4;"/>
   </g>
   <g id="patch_36">
    <path clip-path="url(#pb94a799ceb)" d="M 309.120264 768.96 
L 311.332599 768.96 
L 311.332599 696.149102 
L 309.120264 696.149102 
z
" style="fill:#1f77b4;"/>
   </g>
   <g id="patch_37">
    <path clip-path="url(#pb94a799ceb)" d="M 313.544934 768.96 
L 315.757269 768.96 
L 315.757269 674.69681 
L 313.544934 674.69681 
z
" style="fill:#1f77b4;"/>
   </g>
   <g id="patch_38">
    <path clip-path="url(#pb94a799ceb)" d="M 317.969604 768.96 
L 320.181938 768.96 
L 320.181938 691.98211 
L 317.969604 691.98211 
z
" style="fill:#1f77b4;"/>
   </g>
   <g id="patch_39">
    <path clip-path="url(#pb94a799ceb)" d="M 322.394273 768.96 
L 324.606608 768.96 
L 324.606608 702.562497 
L 322.394273 702.562497 
z
" style="fill:#1f77b4;"/>
   </g>
   <g id="patch_40">
    <path clip-path="url(#pb94a799ceb)" d="M 326.818943 768.96 
L 329.031278 768.96 
L 329.031278 746.633154 
L 326.818943 746.633154 
z
" style="fill:#1f77b4;"/>
   </g>
   <g id="patch_41">
    <path clip-path="url(#pb94a799ceb)" d="M 331.243612 768.96 
L 333.455947 768.96 
L 333.455947 695.406017 
L 331.243612 695.406017 
z
" style="fill:#1f77b4;"/>
   </g>
   <g id="patch_42">
    <path clip-path="url(#pb94a799ceb)" d="M 335.668282 768.96 
L 337.880617 768.96 
L 337.880617 675.719981 
L 335.668282 675.719981 
z
" style="fill:#1f77b4;"/>
   </g>
   <g id="patch_43">
    <path clip-path="url(#pb94a799ceb)" d="M 340.092952 768.96 
L 342.305286 768.96 
L 342.305286 656.262586 
L 340.092952 656.262586 
z
" style="fill:#1f77b4;"/>
   </g>
   <g id="patch_44">
    <path clip-path="url(#pb94a799ceb)" d="M 344.517621 768.96 
L 346.729956 768.96 
L 346.729956 606.567347 
L 344.517621 606.567347 
z
" style="fill:#1f77b4;"/>
   </g>
   <g id="patch_45">
    <path clip-path="url(#pb94a799ceb)" d="M 348.942291 768.96 
L 351.154626 768.96 
L 351.154626 628.374034 
L 348.942291 628.374034 
z
" style="fill:#1f77b4;"/>
   </g>
   <g id="patch_46">
    <path clip-path="url(#pb94a799ceb)" d="M 353.36696 768.96 
L 355.579295 768.96 
L 355.579295 682.316289 
L 353.36696 682.316289 
z
" style="fill:#1f77b4;"/>
   </g>
   <g id="patch_47">
    <path clip-path="url(#pb94a799ceb)" d="M 357.79163 768.96 
L 360.003965 768.96 
L 360.003965 722.059904 
L 357.79163 722.059904 
z
" style="fill:#1f77b4;"/>
   </g>
   <g id="patch_48">
    <path clip-path="url(#pb94a799ceb)" d="M 362.2163 768.96 
L 364.428634 768.96 
L 364.428634 722.757261 
L 362.2163 722.757261 
z
" style="fill:#1f77b4;"/>
   </g>
   <g id="patch_49">
    <path clip-path="url(#pb94a799ceb)" d="M 366.640969 768.96 
L 368.853304 768.96 
L 368.853304 677.680582 
L 366.640969 677.680582 
z
" style="fill:#1f77b4;"/>
   </g>
   <g id="patch_50">
    <path clip-path="url(#pb94a799ceb)" d="M 371.065639 768.96 
L 373.277974 768.96 
L 373.277974 619.685655 
L 371.065639 619.685655 
z
" style="fill:#1f77b4;"/>
   </g>
   <g id="patch_51">
    <path clip-path="url(#pb94a799ceb)" d="M 375.490308 768.96 
L 377.702643 768.96 
L 377.702643 571.893858 
L 375.490308 571.893858 
z
" style="fill:#1f77b4;"/>
   </g>
   <g id="patch_52">
    <path clip-path="url(#pb94a799ceb)" d="M 379.914978 768.96 
L 382.127313 768.96 
L 382.127313 584.37197 
L 379.914978 584.37197 
z
" style="fill:#1f77b4;"/>
   </g>
   <g id="patch_53">
    <path clip-path="url(#pb94a799ceb)" d="M 384.339648 768.96 
L 386.551982 768.96 
L 386.551982 733.154735 
L 384.339648 733.154735 
z
" style="fill:#1f77b4;"/>
   </g>
   <g id="patch_54">
    <path clip-path="url(#pb94a799ceb)" d="M 388.764317 768.96 
L 390.976652 768.96 
L 390.976652 631.094868 
L 388.764317 631.094868 
z
" style="fill:#1f77b4;"/>
   </g>
   <g id="patch_55">
    <path clip-path="url(#pb94a799ceb)" d="M 393.188987 768.96 
L 395.401322 768.96 
L 395.401322 663.024659 
L 393.188987 663.024659 
z
" style="fill:#1f77b4;"/>
   </g>
   <g id="patch_56">
    <path clip-path="url(#pb94a799ceb)" d="M 397.613656 768.96 
L 399.825991 768.96 
L 399.825991 612.929298 
L 397.613656 612.929298 
z
" style="fill:#1f77b4;"/>
   </g>
   <g id="patch_57">
    <path clip-path="url(#pb94a799ceb)" d="M 402.038326 768.96 
L 404.250661 768.96 
L 404.250661 468.273512 
L 402.038326 468.273512 
z
" style="fill:#1f77b4;"/>
   </g>
   <g id="patch_58">
    <path clip-path="url(#pb94a799ceb)" d="M 406.462996 768.96 
L 408.67533 768.96 
L 408.67533 463.677818 
L 406.462996 463.677818 
z
" style="fill:#1f77b4;"/>
   </g>
   <g id="patch_59">
    <path clip-path="url(#pb94a799ceb)" d="M 410.887665 768.96 
L 413.1 768.96 
L 413.1 496.41357 
L 410.887665 496.41357 
z
" style="fill:#1f77b4;"/>
   </g>
   <g id="patch_60">
    <path clip-path="url(#pb94a799ceb)" d="M 415.312335 768.96 
L 417.52467 768.96 
L 417.52467 526.862907 
L 415.312335 526.862907 
z
" style="fill:#1f77b4;"/>
   </g>
   <g id="patch_61">
    <path clip-path="url(#pb94a799ceb)" d="M 419.737004 768.96 
L 421.949339 768.96 
L 421.949339 650.540831 
L 419.737004 650.540831 
z
" style="fill:#1f77b4;"/>
   </g>
   <g id="patch_62">
    <path clip-path="url(#pb94a799ceb)" d="M 424.161674 768.96 
L 426.374009 768.96 
L 426.374009 594.094951 
L 424.161674 594.094951 
z
" style="fill:#1f77b4;"/>
   </g>
   <g id="patch_63">
    <path clip-path="url(#pb94a799ceb)" d="M 428.586344 768.96 
L 430.798678 768.96 
L 430.798678 540.747164 
L 428.586344 540.747164 
z
" style="fill:#1f77b4;"/>
   </g>
   <g id="patch_64">
    <path clip-path="url(#pb94a799ceb)" d="M 433.011013 768.96 
L 435.223348 768.96 
L 435.223348 505.221985 
L 433.011013 505.221985 
z
" style="fill:#1f77b4;"/>
   </g>
   <g id="patch_65">
    <path clip-path="url(#pb94a799ceb)" d="M 437.435683 768.96 
L 439.648018 768.96 
L 439.648018 382.847318 
L 437.435683 382.847318 
z
" style="fill:#1f77b4;"/>
   </g>
   <g id="patch_66">
    <path clip-path="url(#pb94a799ceb)" d="M 441.860352 768.96 
L 444.072687 768.96 
L 444.072687 398.246325 
L 441.860352 398.246325 
z
" style="fill:#1f77b4;"/>
   </g>
   <g id="patch_67">
    <path clip-path="url(#pb94a799ceb)" d="M 446.285022 768.96 
L 448.497357 768.96 
L 448.497357 479.036813 
L 446.285022 479.036813 
z
" style="fill:#1f77b4;"/>
   </g>
   <g id="patch_68">
    <path clip-path="url(#pb94a799ceb)" d="M 450.709692 768.96 
L 452.922026 768.96 
L 452.922026 678.886666 
L 450.709692 678.886666 
z
" style="fill:#1f77b4;"/>
   </g>
   <g id="patch_69">
    <path clip-path="url(#pb94a799ceb)" d="M 455.134361 768.96 
L 457.346696 768.96 
L 457.346696 528.749199 
L 455.134361 528.749199 
z
" style="fill:#1f77b4;"/>
   </g>
   <g id="patch_70">
    <path clip-path="url(#pb94a799ceb)" d="M 459.559031 768.96 
L 461.771366 768.96 
L 461.771366 463.797854 
L 459.559031 463.797854 
z
" style="fill:#1f77b4;"/>
   </g>
   <g id="patch_71">
    <path clip-path="url(#pb94a799ceb)" d="M 463.9837 768.96 
L 466.196035 768.96 
L 466.196035 434.251651 
L 463.9837 434.251651 
z
" style="fill:#1f77b4;"/>
   </g>
   <g id="patch_72">
    <path clip-path="url(#pb94a799ceb)" d="M 468.40837 768.96 
L 470.620705 768.96 
L 470.620705 406.008705 
L 468.40837 406.008705 
z
" style="fill:#1f77b4;"/>
   </g>
   <g id="patch_73">
    <path clip-path="url(#pb94a799ceb)" d="M 472.83304 768.96 
L 475.045374 768.96 
L 475.045374 355.850468 
L 472.83304 355.850468 
z
" style="fill:#1f77b4;"/>
   </g>
   <g id="patch_74">
    <path clip-path="url(#pb94a799ceb)" d="M 477.257709 768.96 
L 479.470044 768.96 
L 479.470044 505.422046 
L 477.257709 505.422046 
z
" style="fill:#1f77b4;"/>
   </g>
   <g id="patch_75">
    <path clip-path="url(#pb94a799ceb)" d="M 481.682379 768.96 
L 483.894714 768.96 
L 483.894714 501.500844 
L 481.682379 501.500844 
z
" style="fill:#1f77b4;"/>
   </g>
   <g id="patch_76">
    <path clip-path="url(#pb94a799ceb)" d="M 486.107048 768.96 
L 488.319383 768.96 
L 488.319383 534.77962 
L 486.107048 534.77962 
z
" style="fill:#1f77b4;"/>
   </g>
   <g id="patch_77">
    <path clip-path="url(#pb94a799ceb)" d="M 490.531718 768.96 
L 492.744053 768.96 
L 492.744053 506.776748 
L 490.531718 506.776748 
z
" style="fill:#1f77b4;"/>
   </g>
   <g id="patch_78">
    <path clip-path="url(#pb94a799ceb)" d="M 494.956388 768.96 
L 497.168722 768.96 
L 497.168722 536.191482 
L 494.956388 536.191482 
z
" style="fill:#1f77b4;"/>
   </g>
   <g id="patch_79">
    <path clip-path="url(#pb94a799ceb)" d="M 499.381057 768.96 
L 501.593392 768.96 
L 501.593392 503.232804 
L 499.381057 503.232804 
z
" style="fill:#1f77b4;"/>
   </g>
   <g id="patch_80">
    <path clip-path="url(#pb94a799ceb)" d="M 503.805727 768.96 
L 506.018062 768.96 
L 506.018062 490.663235 
L 503.805727 490.663235 
z
" style="fill:#1f77b4;"/>
   </g>
   <g id="patch_81">
    <path clip-path="url(#pb94a799ceb)" d="M 508.230396 768.96 
L 510.442731 768.96 
L 510.442731 595.518245 
L 508.230396 595.518245 
z
" style="fill:#1f77b4;"/>
   </g>
   <g id="patch_82">
    <path clip-path="url(#pb94a799ceb)" d="M 512.655066 768.96 
L 514.867401 768.96 
L 514.867401 674.222378 
L 512.655066 674.222378 
z
" style="fill:#1f77b4;"/>
   </g>
   <g id="patch_83">
    <path clip-path="url(#pb94a799ceb)" d="M 517.079736 768.96 
L 519.29207 768.96 
L 519.29207 620.074346 
L 517.079736 620.074346 
z
" style="fill:#1f77b4;"/>
   </g>
   <g id="patch_84">
    <path clip-path="url(#pb94a799ceb)" d="M 521.504405 768.96 
L 523.71674 768.96 
L 523.71674 589.350639 
L 521.504405 589.350639 
z
" style="fill:#1f77b4;"/>
   </g>
   <g id="patch_85">
    <path clip-path="url(#pb94a799ceb)" d="M 525.929075 768.96 
L 528.14141 768.96 
L 528.14141 582.662874 
L 525.929075 582.662874 
z
" style="fill:#1f77b4;"/>
   </g>
   <g id="patch_86">
    <path clip-path="url(#pb94a799ceb)" d="M 530.353744 768.96 
L 532.566079 768.96 
L 532.566079 530.241085 
L 530.353744 530.241085 
z
" style="fill:#1f77b4;"/>
   </g>
   <g id="patch_87">
    <path clip-path="url(#pb94a799ceb)" d="M 534.778414 768.96 
L 536.990749 768.96 
L 536.990749 467.038848 
L 534.778414 467.038848 
z
" style="fill:#1f77b4;"/>
   </g>
   <g id="patch_88">
    <path clip-path="url(#pb94a799ceb)" d="M 539.203084 768.96 
L 541.415419 768.96 
L 541.415419 505.71928 
L 539.203084 505.71928 
z
" style="fill:#1f77b4;"/>
   </g>
   <g id="patch_89">
    <path clip-path="url(#pb94a799ceb)" d="M 543.627753 768.96 
L 545.840088 768.96 
L 545.840088 664.002102 
L 543.627753 664.002102 
z
" style="fill:#1f77b4;"/>
   </g>
   <g id="patch_90">
    <path clip-path="url(#pb94a799ceb)" d="M 548.052423 768.96 
L 550.264758 768.96 
L 550.264758 608.870911 
L 548.052423 608.870911 
z
" style="fill:#1f77b4;"/>
   </g>
   <g id="patch_91">
    <path clip-path="url(#pb94a799ceb)" d="M 552.477093 768.96 
L 554.689427 768.96 
L 554.689427 479.625565 
L 552.477093 479.625565 
z
" style="fill:#1f77b4;"/>
   </g>
   <g id="patch_92">
    <path clip-path="url(#pb94a799ceb)" d="M 556.901762 768.96 
L 559.114097 768.96 
L 559.114097 522.478705 
L 556.901762 522.478705 
z
" style="fill:#1f77b4;"/>
   </g>
   <g id="patch_93">
    <path clip-path="url(#pb94a799ceb)" d="M 561.326432 768.96 
L 563.538767 768.96 
L 563.538767 428.186935 
L 561.326432 428.186935 
z
" style="fill:#1f77b4;"/>
   </g>
   <g id="patch_94">
    <path clip-path="url(#pb94a799ceb)" d="M 565.751101 768.96 
L 567.963436 768.96 
L 567.963436 420.6189 
L 565.751101 420.6189 
z
" style="fill:#1f77b4;"/>
   </g>
   <g id="patch_95">
    <path clip-path="url(#pb94a799ceb)" d="M 570.175771 768.96 
L 572.388106 768.96 
L 572.388106 496.739384 
L 570.175771 496.739384 
z
" style="fill:#1f77b4;"/>
   </g>
   <g id="patch_96">
    <path clip-path="url(#pb94a799ceb)" d="M 574.600441 768.96 
L 576.812775 768.96 
L 576.812775 693.308231 
L 574.600441 693.308231 
z
" style="fill:#1f77b4;"/>
   </g>
   <g id="patch_97">
    <path clip-path="url(#pb94a799ceb)" d="M 579.02511 768.96 
L 581.237445 768.96 
L 581.237445 512.298441 
L 579.02511 512.298441 
z
" style="fill:#1f77b4;"/>
   </g>
   <g id="patch_98">
    <path clip-path="url(#pb94a799ceb)" d="M 583.44978 768.96 
L 585.662115 768.96 
L 585.662115 367.917025 
L 583.44978 367.917025 
z
" style="fill:#1f77b4;"/>
   </g>
   <g id="patch_99">
    <path clip-path="url(#pb94a799ceb)" d="M 587.874449 768.96 
L 590.086784 768.96 
L 590.086784 324.286503 
L 587.874449 324.286503 
z
" style="fill:#1f77b4;"/>
   </g>
   <g id="patch_100">
    <path clip-path="url(#pb94a799ceb)" d="M 592.299119 768.96 
L 594.511454 768.96 
L 594.511454 241.632587 
L 592.299119 241.632587 
z
" style="fill:#1f77b4;"/>
   </g>
   <g id="patch_101">
    <path clip-path="url(#pb94a799ceb)" d="M 596.723789 768.96 
L 598.936123 768.96 
L 598.936123 135.36 
L 596.723789 135.36 
z
" style="fill:#1f77b4;"/>
   </g>
   <g id="patch_102">
    <path clip-path="url(#pb94a799ceb)" d="M 601.148458 768.96 
L 603.360793 768.96 
L 603.360793 335.655704 
L 601.148458 335.655704 
z
" style="fill:#1f77b4;"/>
   </g>
   <g id="patch_103">
    <path clip-path="url(#pb94a799ceb)" d="M 605.573128 768.96 
L 607.785463 768.96 
L 607.785463 556.289073 
L 605.573128 556.289073 
z
" style="fill:#1f77b4;"/>
   </g>
   <g id="patch_104">
    <path clip-path="url(#pb94a799ceb)" d="M 609.997797 768.96 
L 612.210132 768.96 
L 612.210132 414.034023 
L 609.997797 414.034023 
z
" style="fill:#1f77b4;"/>
   </g>
   <g id="patch_105">
    <path clip-path="url(#pb94a799ceb)" d="M 614.422467 768.96 
L 616.634802 768.96 
L 616.634802 333.683671 
L 614.422467 333.683671 
z
" style="fill:#1f77b4;"/>
   </g>
   <g id="patch_106">
    <path clip-path="url(#pb94a799ceb)" d="M 618.847137 768.96 
L 621.059471 768.96 
L 621.059471 396.217132 
L 618.847137 396.217132 
z
" style="fill:#1f77b4;"/>
   </g>
   <g id="patch_107">
    <path clip-path="url(#pb94a799ceb)" d="M 623.271806 768.96 
L 625.484141 768.96 
L 625.484141 264.445297 
L 623.271806 264.445297 
z
" style="fill:#1f77b4;"/>
   </g>
   <g id="patch_108">
    <path clip-path="url(#pb94a799ceb)" d="M 627.696476 768.96 
L 629.908811 768.96 
L 629.908811 268.532264 
L 627.696476 268.532264 
z
" style="fill:#1f77b4;"/>
   </g>
   <g id="patch_109">
    <path clip-path="url(#pb94a799ceb)" d="M 632.121145 768.96 
L 634.33348 768.96 
L 634.33348 412.799359 
L 632.121145 412.799359 
z
" style="fill:#1f77b4;"/>
   </g>
   <g id="patch_110">
    <path clip-path="url(#pb94a799ceb)" d="M 636.545815 768.96 
L 638.75815 768.96 
L 638.75815 565.08034 
L 636.545815 565.08034 
z
" style="fill:#1f77b4;"/>
   </g>
   <g id="patch_111">
    <path clip-path="url(#pb94a799ceb)" d="M 640.970485 768.96 
L 643.182819 768.96 
L 643.182819 478.985369 
L 640.970485 478.985369 
z
" style="fill:#1f77b4;"/>
   </g>
   <g id="patch_112">
    <path clip-path="url(#pb94a799ceb)" d="M 645.395154 768.96 
L 647.607489 768.96 
L 647.607489 297.249641 
L 645.395154 297.249641 
z
" style="fill:#1f77b4;"/>
   </g>
   <g id="patch_113">
    <path clip-path="url(#pb94a799ceb)" d="M 649.819824 768.96 
L 652.032159 768.96 
L 652.032159 347.602224 
L 649.819824 347.602224 
z
" style="fill:#1f77b4;"/>
   </g>
   <g id="patch_114">
    <path clip-path="url(#pb94a799ceb)" d="M 654.244493 768.96 
L 656.456828 768.96 
L 656.456828 322.851778 
L 654.244493 322.851778 
z
" style="fill:#1f77b4;"/>
   </g>
   <g id="patch_115">
    <path clip-path="url(#pb94a799ceb)" d="M 658.669163 768.96 
L 660.881498 768.96 
L 660.881498 349.962948 
L 658.669163 349.962948 
z
" style="fill:#1f77b4;"/>
   </g>
   <g id="patch_116">
    <path clip-path="url(#pb94a799ceb)" d="M 663.093833 768.96 
L 665.306167 768.96 
L 665.306167 485.015789 
L 663.093833 485.015789 
z
" style="fill:#1f77b4;"/>
   </g>
   <g id="patch_117">
    <path clip-path="url(#pb94a799ceb)" d="M 667.518502 768.96 
L 669.730837 768.96 
L 669.730837 646.350975 
L 667.518502 646.350975 
z
" style="fill:#1f77b4;"/>
   </g>
   <g id="patch_118">
    <path clip-path="url(#pb94a799ceb)" d="M 671.943172 768.96 
L 674.155507 768.96 
L 674.155507 510.920875 
L 671.943172 510.920875 
z
" style="fill:#1f77b4;"/>
   </g>
   <g id="patch_119">
    <path clip-path="url(#pb94a799ceb)" d="M 676.367841 768.96 
L 678.580176 768.96 
L 678.580176 402.436181 
L 676.367841 402.436181 
z
" style="fill:#1f77b4;"/>
   </g>
   <g id="patch_120">
    <path clip-path="url(#pb94a799ceb)" d="M 680.792511 768.96 
L 683.004846 768.96 
L 683.004846 383.43607 
L 680.792511 383.43607 
z
" style="fill:#1f77b4;"/>
   </g>
   <g id="patch_121">
    <path clip-path="url(#pb94a799ceb)" d="M 685.217181 768.96 
L 687.429515 768.96 
L 687.429515 395.422602 
L 685.217181 395.422602 
z
" style="fill:#1f77b4;"/>
   </g>
   <g id="patch_122">
    <path clip-path="url(#pb94a799ceb)" d="M 689.64185 768.96 
L 691.854185 768.96 
L 691.854185 451.702717 
L 689.64185 451.702717 
z
" style="fill:#1f77b4;"/>
   </g>
   <g id="patch_123">
    <path clip-path="url(#pb94a799ceb)" d="M 694.06652 768.96 
L 696.278855 768.96 
L 696.278855 623.018106 
L 694.06652 623.018106 
z
" style="fill:#1f77b4;"/>
   </g>
   <g id="patch_124">
    <path clip-path="url(#pb94a799ceb)" d="M 698.491189 768.96 
L 700.703524 768.96 
L 700.703524 719.247613 
L 698.491189 719.247613 
z
" style="fill:#1f77b4;"/>
   </g>
   <g id="patch_125">
    <path clip-path="url(#pb94a799ceb)" d="M 702.915859 768.96 
L 705.128194 768.96 
L 705.128194 615.604404 
L 702.915859 615.604404 
z
" style="fill:#1f77b4;"/>
   </g>
   <g id="patch_126">
    <path clip-path="url(#pb94a799ceb)" d="M 707.340529 768.96 
L 709.552863 768.96 
L 709.552863 361.995209 
L 707.340529 361.995209 
z
" style="fill:#1f77b4;"/>
   </g>
   <g id="patch_127">
    <path clip-path="url(#pb94a799ceb)" d="M 711.765198 768.96 
L 713.977533 768.96 
L 713.977533 369.660417 
L 711.765198 369.660417 
z
" style="fill:#1f77b4;"/>
   </g>
   <g id="patch_128">
    <path clip-path="url(#pb94a799ceb)" d="M 716.189868 768.96 
L 718.402203 768.96 
L 718.402203 468.799388 
L 716.189868 468.799388 
z
" style="fill:#1f77b4;"/>
   </g>
   <g id="patch_129">
    <path clip-path="url(#pb94a799ceb)" d="M 720.614537 768.96 
L 722.826872 768.96 
L 722.826872 322.926086 
L 720.614537 322.926086 
z
" style="fill:#1f77b4;"/>
   </g>
   <g id="patch_130">
    <path clip-path="url(#pb94a799ceb)" d="M 725.039207 768.96 
L 727.251542 768.96 
L 727.251542 463.614941 
L 725.039207 463.614941 
z
" style="fill:#1f77b4;"/>
   </g>
   <g id="patch_131">
    <path clip-path="url(#pb94a799ceb)" d="M 729.463877 768.96 
L 731.676211 768.96 
L 731.676211 497.213815 
L 729.463877 497.213815 
z
" style="fill:#1f77b4;"/>
   </g>
   <g id="patch_132">
    <path clip-path="url(#pb94a799ceb)" d="M 733.888546 768.96 
L 736.100881 768.96 
L 736.100881 539.958351 
L 733.888546 539.958351 
z
" style="fill:#1f77b4;"/>
   </g>
   <g id="patch_133">
    <path clip-path="url(#pb94a799ceb)" d="M 738.313216 768.96 
L 740.525551 768.96 
L 740.525551 460.082429 
L 738.313216 460.082429 
z
" style="fill:#1f77b4;"/>
   </g>
   <g id="patch_134">
    <path clip-path="url(#pb94a799ceb)" d="M 742.737885 768.96 
L 744.95022 768.96 
L 744.95022 489.58862 
L 742.737885 489.58862 
z
" style="fill:#1f77b4;"/>
   </g>
   <g id="patch_135">
    <path clip-path="url(#pb94a799ceb)" d="M 747.162555 768.96 
L 749.37489 768.96 
L 749.37489 479.259738 
L 747.162555 479.259738 
z
" style="fill:#1f77b4;"/>
   </g>
   <g id="patch_136">
    <path clip-path="url(#pb94a799ceb)" d="M 751.587225 768.96 
L 753.799559 768.96 
L 753.799559 350.088701 
L 751.587225 350.088701 
z
" style="fill:#1f77b4;"/>
   </g>
   <g id="patch_137">
    <path clip-path="url(#pb94a799ceb)" d="M 756.011894 768.96 
L 758.224229 768.96 
L 758.224229 533.242006 
L 756.011894 533.242006 
z
" style="fill:#1f77b4;"/>
   </g>
   <g id="patch_138">
    <path clip-path="url(#pb94a799ceb)" d="M 760.436564 768.96 
L 762.648899 768.96 
L 762.648899 671.084273 
L 760.436564 671.084273 
z
" style="fill:#1f77b4;"/>
   </g>
   <g id="patch_139">
    <path clip-path="url(#pb94a799ceb)" d="M 764.861233 768.96 
L 767.073568 768.96 
L 767.073568 607.041778 
L 764.861233 607.041778 
z
" style="fill:#1f77b4;"/>
   </g>
   <g id="patch_140">
    <path clip-path="url(#pb94a799ceb)" d="M 769.285903 768.96 
L 771.498238 768.96 
L 771.498238 466.770194 
L 769.285903 466.770194 
z
" style="fill:#1f77b4;"/>
   </g>
   <g id="patch_141">
    <path clip-path="url(#pb94a799ceb)" d="M 773.710573 768.96 
L 775.922907 768.96 
L 775.922907 500.460525 
L 773.710573 500.460525 
z
" style="fill:#1f77b4;"/>
   </g>
   <g id="patch_142">
    <path clip-path="url(#pb94a799ceb)" d="M 778.135242 768.96 
L 780.347577 768.96 
L 780.347577 388.140369 
L 778.135242 388.140369 
z
" style="fill:#1f77b4;"/>
   </g>
   <g id="patch_143">
    <path clip-path="url(#pb94a799ceb)" d="M 782.559912 768.96 
L 784.772247 768.96 
L 784.772247 521.489831 
L 782.559912 521.489831 
z
" style="fill:#1f77b4;"/>
   </g>
   <g id="patch_144">
    <path clip-path="url(#pb94a799ceb)" d="M 786.984581 768.96 
L 789.196916 768.96 
L 789.196916 569.384517 
L 786.984581 569.384517 
z
" style="fill:#1f77b4;"/>
   </g>
   <g id="patch_145">
    <path clip-path="url(#pb94a799ceb)" d="M 791.409251 768.96 
L 793.621586 768.96 
L 793.621586 676.943213 
L 791.409251 676.943213 
z
" style="fill:#1f77b4;"/>
   </g>
   <g id="patch_146">
    <path clip-path="url(#pb94a799ceb)" d="M 795.833921 768.96 
L 798.046256 768.96 
L 798.046256 619.565619 
L 795.833921 619.565619 
z
" style="fill:#1f77b4;"/>
   </g>
   <g id="patch_147">
    <path clip-path="url(#pb94a799ceb)" d="M 800.25859 768.96 
L 802.470925 768.96 
L 802.470925 587.424334 
L 800.25859 587.424334 
z
" style="fill:#1f77b4;"/>
   </g>
   <g id="patch_148">
    <path clip-path="url(#pb94a799ceb)" d="M 804.68326 768.96 
L 806.895595 768.96 
L 806.895595 584.246217 
L 804.68326 584.246217 
z
" style="fill:#1f77b4;"/>
   </g>
   <g id="patch_149">
    <path clip-path="url(#pb94a799ceb)" d="M 809.10793 768.96 
L 811.320264 768.96 
L 811.320264 574.237434 
L 809.10793 574.237434 
z
" style="fill:#1f77b4;"/>
   </g>
   <g id="patch_150">
    <path clip-path="url(#pb94a799ceb)" d="M 813.532599 768.96 
L 815.744934 768.96 
L 815.744934 589.790774 
L 813.532599 589.790774 
z
" style="fill:#1f77b4;"/>
   </g>
   <g id="patch_151">
    <path clip-path="url(#pb94a799ceb)" d="M 817.957269 768.96 
L 820.169604 768.96 
L 820.169604 646.288098 
L 817.957269 646.288098 
z
" style="fill:#1f77b4;"/>
   </g>
   <g id="patch_152">
    <path clip-path="url(#pb94a799ceb)" d="M 822.381938 768.96 
L 824.594273 768.96 
L 824.594273 700.544736 
L 822.381938 700.544736 
z
" style="fill:#1f77b4;"/>
   </g>
   <g id="patch_153">
    <path clip-path="url(#pb94a799ceb)" d="M 826.806608 768.96 
L 829.018943 768.96 
L 829.018943 717.82432 
L 826.806608 717.82432 
z
" style="fill:#1f77b4;"/>
   </g>
   <g id="patch_154">
    <path clip-path="url(#pb94a799ceb)" d="M 831.231278 768.96 
L 833.443612 768.96 
L 833.443612 659.829394 
L 831.231278 659.829394 
z
" style="fill:#1f77b4;"/>
   </g>
   <g id="patch_155">
    <path clip-path="url(#pb94a799ceb)" d="M 835.655947 768.96 
L 837.868282 768.96 
L 837.868282 653.581764 
L 835.655947 653.581764 
z
" style="fill:#1f77b4;"/>
   </g>
   <g id="patch_156">
    <path clip-path="url(#pb94a799ceb)" d="M 840.080617 768.96 
L 842.292952 768.96 
L 842.292952 581.811185 
L 840.080617 581.811185 
z
" style="fill:#1f77b4;"/>
   </g>
   <g id="patch_157">
    <path clip-path="url(#pb94a799ceb)" d="M 844.505286 768.96 
L 846.717621 768.96 
L 846.717621 557.889564 
L 844.505286 557.889564 
z
" style="fill:#1f77b4;"/>
   </g>
   <g id="patch_158">
    <path clip-path="url(#pb94a799ceb)" d="M 848.929956 768.96 
L 851.142291 768.96 
L 851.142291 580.405039 
L 848.929956 580.405039 
z
" style="fill:#1f77b4;"/>
   </g>
   <g id="patch_159">
    <path clip-path="url(#pb94a799ceb)" d="M 853.354626 768.96 
L 855.56696 768.96 
L 855.56696 634.330146 
L 853.354626 634.330146 
z
" style="fill:#1f77b4;"/>
   </g>
   <g id="patch_160">
    <path clip-path="url(#pb94a799ceb)" d="M 857.779295 768.96 
L 859.99163 768.96 
L 859.99163 585.698091 
L 857.779295 585.698091 
z
" style="fill:#1f77b4;"/>
   </g>
   <g id="patch_161">
    <path clip-path="url(#pb94a799ceb)" d="M 862.203965 768.96 
L 864.4163 768.96 
L 864.4163 572.779844 
L 862.203965 572.779844 
z
" style="fill:#1f77b4;"/>
   </g>
   <g id="patch_162">
    <path clip-path="url(#pb94a799ceb)" d="M 866.628634 768.96 
L 868.840969 768.96 
L 868.840969 536.231494 
L 866.628634 536.231494 
z
" style="fill:#1f77b4;"/>
   </g>
   <g id="patch_163">
    <path clip-path="url(#pb94a799ceb)" d="M 871.053304 768.96 
L 873.265639 768.96 
L 873.265639 608.893775 
L 871.053304 608.893775 
z
" style="fill:#1f77b4;"/>
   </g>
   <g id="patch_164">
    <path clip-path="url(#pb94a799ceb)" d="M 875.477974 768.96 
L 877.690308 768.96 
L 877.690308 618.931138 
L 875.477974 618.931138 
z
" style="fill:#1f77b4;"/>
   </g>
   <g id="patch_165">
    <path clip-path="url(#pb94a799ceb)" d="M 879.902643 768.96 
L 882.114978 768.96 
L 882.114978 678.869518 
L 879.902643 678.869518 
z
" style="fill:#1f77b4;"/>
   </g>
   <g id="patch_166">
    <path clip-path="url(#pb94a799ceb)" d="M 884.327313 768.96 
L 886.539648 768.96 
L 886.539648 677.406212 
L 884.327313 677.406212 
z
" style="fill:#1f77b4;"/>
   </g>
   <g id="patch_167">
    <path clip-path="url(#pb94a799ceb)" d="M 888.751982 768.96 
L 890.964317 768.96 
L 890.964317 490.303125 
L 888.751982 490.303125 
z
" style="fill:#1f77b4;"/>
   </g>
   <g id="patch_168">
    <path clip-path="url(#pb94a799ceb)" d="M 893.176652 768.96 
L 895.388987 768.96 
L 895.388987 562.645308 
L 893.176652 562.645308 
z
" style="fill:#1f77b4;"/>
   </g>
   <g id="patch_169">
    <path clip-path="url(#pb94a799ceb)" d="M 897.601322 768.96 
L 899.813656 768.96 
L 899.813656 627.973911 
L 897.601322 627.973911 
z
" style="fill:#1f77b4;"/>
   </g>
   <g id="patch_170">
    <path clip-path="url(#pb94a799ceb)" d="M 902.025991 768.96 
L 904.238326 768.96 
L 904.238326 583.131589 
L 902.025991 583.131589 
z
" style="fill:#1f77b4;"/>
   </g>
   <g id="patch_171">
    <path clip-path="url(#pb94a799ceb)" d="M 906.450661 768.96 
L 908.662996 768.96 
L 908.662996 679.658331 
L 906.450661 679.658331 
z
" style="fill:#1f77b4;"/>
   </g>
   <g id="patch_172">
    <path clip-path="url(#pb94a799ceb)" d="M 910.87533 768.96 
L 913.087665 768.96 
L 913.087665 631.237769 
L 910.87533 631.237769 
z
" style="fill:#1f77b4;"/>
   </g>
   <g id="patch_173">
    <path clip-path="url(#pb94a799ceb)" d="M 915.3 768.96 
L 917.512335 768.96 
L 917.512335 709.610373 
L 915.3 709.610373 
z
" style="fill:#1f77b4;"/>
   </g>
   <g id="patch_174">
    <path clip-path="url(#pb94a799ceb)" d="M 919.72467 768.96 
L 921.937004 768.96 
L 921.937004 696.80073 
L 919.72467 696.80073 
z
" style="fill:#1f77b4;"/>
   </g>
   <g id="patch_175">
    <path clip-path="url(#pb94a799ceb)" d="M 924.149339 768.96 
L 926.361674 768.96 
L 926.361674 681.075909 
L 924.149339 681.075909 
z
" style="fill:#1f77b4;"/>
   </g>
   <g id="patch_176">
    <path clip-path="url(#pb94a799ceb)" d="M 928.574009 768.96 
L 930.786344 768.96 
L 930.786344 662.138673 
L 928.574009 662.138673 
z
" style="fill:#1f77b4;"/>
   </g>
   <g id="patch_177">
    <path clip-path="url(#pb94a799ceb)" d="M 932.998678 768.96 
L 935.211013 768.96 
L 935.211013 639.314532 
L 932.998678 639.314532 
z
" style="fill:#1f77b4;"/>
   </g>
   <g id="patch_178">
    <path clip-path="url(#pb94a799ceb)" d="M 937.423348 768.96 
L 939.635683 768.96 
L 939.635683 478.025074 
L 937.423348 478.025074 
z
" style="fill:#1f77b4;"/>
   </g>
   <g id="patch_179">
    <path clip-path="url(#pb94a799ceb)" d="M 941.848018 768.96 
L 944.060352 768.96 
L 944.060352 433.056999 
L 941.848018 433.056999 
z
" style="fill:#1f77b4;"/>
   </g>
   <g id="patch_180">
    <path clip-path="url(#pb94a799ceb)" d="M 946.272687 768.96 
L 948.485022 768.96 
L 948.485022 739.036539 
L 946.272687 739.036539 
z
" style="fill:#1f77b4;"/>
   </g>
   <g id="patch_181">
    <path clip-path="url(#pb94a799ceb)" d="M 950.697357 768.96 
L 952.909692 768.96 
L 952.909692 694.760105 
L 950.697357 694.760105 
z
" style="fill:#1f77b4;"/>
   </g>
   <g id="patch_182">
    <path clip-path="url(#pb94a799ceb)" d="M 955.122026 768.96 
L 957.334361 768.96 
L 957.334361 677.652002 
L 955.122026 677.652002 
z
" style="fill:#1f77b4;"/>
   </g>
   <g id="patch_183">
    <path clip-path="url(#pb94a799ceb)" d="M 959.546696 768.96 
L 961.759031 768.96 
L 961.759031 680.961588 
L 959.546696 680.961588 
z
" style="fill:#1f77b4;"/>
   </g>
   <g id="patch_184">
    <path clip-path="url(#pb94a799ceb)" d="M 963.971366 768.96 
L 966.1837 768.96 
L 966.1837 690.101533 
L 963.971366 690.101533 
z
" style="fill:#1f77b4;"/>
   </g>
   <g id="patch_185">
    <path clip-path="url(#pb94a799ceb)" d="M 968.396035 768.96 
L 970.60837 768.96 
L 970.60837 689.895756 
L 968.396035 689.895756 
z
" style="fill:#1f77b4;"/>
   </g>
   <g id="patch_186">
    <path clip-path="url(#pb94a799ceb)" d="M 972.820705 768.96 
L 975.03304 768.96 
L 975.03304 709.764706 
L 972.820705 709.764706 
z
" style="fill:#1f77b4;"/>
   </g>
   <g id="patch_187">
    <path clip-path="url(#pb94a799ceb)" d="M 977.245374 768.96 
L 979.457709 768.96 
L 979.457709 740.459832 
L 977.245374 740.459832 
z
" style="fill:#1f77b4;"/>
   </g>
   <g id="patch_188">
    <path clip-path="url(#pb94a799ceb)" d="M 981.670044 768.96 
L 983.882379 768.96 
L 983.882379 764.187108 
L 981.670044 764.187108 
z
" style="fill:#1f77b4;"/>
   </g>
   <g id="patch_189">
    <path clip-path="url(#pb94a799ceb)" d="M 986.094714 768.96 
L 988.307048 768.96 
L 988.307048 723.105939 
L 986.094714 723.105939 
z
" style="fill:#1f77b4;"/>
   </g>
   <g id="patch_190">
    <path clip-path="url(#pb94a799ceb)" d="M 990.519383 768.96 
L 992.731718 768.96 
L 992.731718 688.026611 
L 990.519383 688.026611 
z
" style="fill:#1f77b4;"/>
   </g>
   <g id="patch_191">
    <path clip-path="url(#pb94a799ceb)" d="M 994.944053 768.96 
L 997.156388 768.96 
L 997.156388 687.575044 
L 994.944053 687.575044 
z
" style="fill:#1f77b4;"/>
   </g>
   <g id="patch_192">
    <path clip-path="url(#pb94a799ceb)" d="M 999.368722 768.96 
L 1001.581057 768.96 
L 1001.581057 697.743877 
L 999.368722 697.743877 
z
" style="fill:#1f77b4;"/>
   </g>
   <g id="patch_193">
    <path clip-path="url(#pb94a799ceb)" d="M 1003.793392 768.96 
L 1006.005727 768.96 
L 1006.005727 708.524325 
L 1003.793392 708.524325 
z
" style="fill:#1f77b4;"/>
   </g>
   <g id="patch_194">
    <path clip-path="url(#pb94a799ceb)" d="M 1008.218062 768.96 
L 1010.430396 768.96 
L 1010.430396 727.873115 
L 1008.218062 727.873115 
z
" style="fill:#1f77b4;"/>
   </g>
   <g id="patch_195">
    <path clip-path="url(#pb94a799ceb)" d="M 1012.642731 768.96 
L 1014.855066 768.96 
L 1014.855066 692.770923 
L 1012.642731 692.770923 
z
" style="fill:#1f77b4;"/>
   </g>
   <g id="patch_196">
    <path clip-path="url(#pb94a799ceb)" d="M 1017.067401 768.96 
L 1019.279736 768.96 
L 1019.279736 705.649158 
L 1017.067401 705.649158 
z
" style="fill:#1f77b4;"/>
   </g>
   <g id="patch_197">
    <path clip-path="url(#pb94a799ceb)" d="M 1021.49207 768.96 
L 1023.704405 768.96 
L 1023.704405 708.638646 
L 1021.49207 708.638646 
z
" style="fill:#1f77b4;"/>
   </g>
   <g id="patch_198">
    <path clip-path="url(#pb94a799ceb)" d="M 1025.91674 768.96 
L 1028.129075 768.96 
L 1028.129075 709.164522 
L 1025.91674 709.164522 
z
" style="fill:#1f77b4;"/>
   </g>
   <g id="patch_199">
    <path clip-path="url(#pb94a799ceb)" d="M 1030.34141 768.96 
L 1032.553744 768.96 
L 1032.553744 708.278536 
L 1030.34141 708.278536 
z
" style="fill:#1f77b4;"/>
   </g>
   <g id="patch_200">
    <path clip-path="url(#pb94a799ceb)" d="M 1034.766079 768.96 
L 1036.978414 768.96 
L 1036.978414 718.207294 
L 1034.766079 718.207294 
z
" style="fill:#1f77b4;"/>
   </g>
   <g id="patch_201">
    <path clip-path="url(#pb94a799ceb)" d="M 1039.190749 768.96 
L 1041.403084 768.96 
L 1041.403084 734.343671 
L 1039.190749 734.343671 
z
" style="fill:#1f77b4;"/>
   </g>
   <g id="patch_202">
    <path clip-path="url(#pb94a799ceb)" d="M 1043.615419 768.96 
L 1045.827753 768.96 
L 1045.827753 717.778592 
L 1043.615419 717.778592 
z
" style="fill:#1f77b4;"/>
   </g>
   <g id="patch_203">
    <path clip-path="url(#pb94a799ceb)" d="M 1048.040088 768.96 
L 1050.252423 768.96 
L 1050.252423 700.601896 
L 1048.040088 700.601896 
z
" style="fill:#1f77b4;"/>
   </g>
   <g id="patch_204">
    <path clip-path="url(#pb94a799ceb)" d="M 1052.464758 768.96 
L 1054.677093 768.96 
L 1054.677093 705.363356 
L 1052.464758 705.363356 
z
" style="fill:#1f77b4;"/>
   </g>
   <g id="patch_205">
    <path clip-path="url(#pb94a799ceb)" d="M 1056.889427 768.96 
L 1059.101762 768.96 
L 1059.101762 722.637224 
L 1056.889427 722.637224 
z
" style="fill:#1f77b4;"/>
   </g>
   <g id="patch_206">
    <path clip-path="url(#pb94a799ceb)" d="M 1061.314097 768.96 
L 1063.526432 768.96 
L 1063.526432 721.911287 
L 1061.314097 721.911287 
z
" style="fill:#1f77b4;"/>
   </g>
   <g id="patch_207">
    <path clip-path="url(#pb94a799ceb)" d="M 1065.738767 768.96 
L 1067.951101 768.96 
L 1067.951101 739.522402 
L 1065.738767 739.522402 
z
" style="fill:#1f77b4;"/>
   </g>
   <g id="patch_208">
    <path clip-path="url(#pb94a799ceb)" d="M 1070.163436 768.96 
L 1072.375771 768.96 
L 1072.375771 751.909057 
L 1070.163436 751.909057 
z
" style="fill:#1f77b4;"/>
   </g>
   <g id="patch_209">
    <path clip-path="url(#pb94a799ceb)" d="M 1074.588106 768.96 
L 1076.800441 768.96 
L 1076.800441 741.008572 
L 1074.588106 741.008572 
z
" style="fill:#1f77b4;"/>
   </g>
   <g id="patch_210">
    <path clip-path="url(#pb94a799ceb)" d="M 1079.012775 768.96 
L 1081.22511 768.96 
L 1081.22511 704.717444 
L 1079.012775 704.717444 
z
" style="fill:#1f77b4;"/>
   </g>
   <g id="patch_211">
    <path clip-path="url(#pb94a799ceb)" d="M 1083.437445 768.96 
L 1085.64978 768.96 
L 1085.64978 660.343837 
L 1083.437445 660.343837 
z
" style="fill:#1f77b4;"/>
   </g>
   <g id="patch_212">
    <path clip-path="url(#pb94a799ceb)" d="M 1087.862115 768.96 
L 1090.074449 768.96 
L 1090.074449 712.851366 
L 1087.862115 712.851366 
z
" style="fill:#1f77b4;"/>
   </g>
   <g id="patch_213">
    <path clip-path="url(#pb94a799ceb)" d="M 1092.286784 768.96 
L 1094.499119 768.96 
L 1094.499119 645.264928 
L 1092.286784 645.264928 
z
" style="fill:#1f77b4;"/>
   </g>
   <g id="patch_214">
    <path clip-path="url(#pb94a799ceb)" d="M 1096.711454 768.96 
L 1098.923789 768.96 
L 1098.923789 724.214851 
L 1096.711454 724.214851 
z
" style="fill:#1f77b4;"/>
   </g>
   <g id="patch_215">
    <path clip-path="url(#pb94a799ceb)" d="M 1101.136123 768.96 
L 1103.348458 768.96 
L 1103.348458 735.504027 
L 1101.136123 735.504027 
z
" style="fill:#1f77b4;"/>
   </g>
   <g id="patch_216">
    <path clip-path="url(#pb94a799ceb)" d="M 1105.560793 768.96 
L 1107.773128 768.96 
L 1107.773128 723.677543 
L 1105.560793 723.677543 
z
" style="fill:#1f77b4;"/>
   </g>
   <g id="patch_217">
    <path clip-path="url(#pb94a799ceb)" d="M 1109.985463 768.96 
L 1112.197797 768.96 
L 1112.197797 707.99845 
L 1109.985463 707.99845 
z
" style="fill:#1f77b4;"/>
   </g>
   <g id="patch_218">
    <path clip-path="url(#pb94a799ceb)" d="M 1114.410132 768.96 
L 1116.622467 768.96 
L 1116.622467 712.582713 
L 1114.410132 712.582713 
z
" style="fill:#1f77b4;"/>
   </g>
   <g id="patch_219">
    <path clip-path="url(#pb94a799ceb)" d="M 1118.834802 768.96 
L 1121.047137 768.96 
L 1121.047137 710.736432 
L 1118.834802 710.736432 
z
" style="fill:#1f77b4;"/>
   </g>
   <g id="patch_220">
    <path clip-path="url(#pb94a799ceb)" d="M 1123.259471 768.96 
L 1125.471806 768.96 
L 1125.471806 707.39255 
L 1123.259471 707.39255 
z
" style="fill:#1f77b4;"/>
   </g>
   <g id="patch_221">
    <path clip-path="url(#pb94a799ceb)" d="M 1127.684141 768.96 
L 1129.896476 768.96 
L 1129.896476 669.077944 
L 1127.684141 669.077944 
z
" style="fill:#1f77b4;"/>
   </g>
   <g id="patch_222">
    <path clip-path="url(#pb94a799ceb)" d="M 1132.108811 768.96 
L 1134.321145 768.96 
L 1134.321145 730.696838 
L 1132.108811 730.696838 
z
" style="fill:#1f77b4;"/>
   </g>
   <g id="patch_223">
    <path clip-path="url(#pb94a799ceb)" d="M 1136.53348 768.96 
L 1138.745815 768.96 
L 1138.745815 725.420935 
L 1136.53348 725.420935 
z
" style="fill:#1f77b4;"/>
   </g>
   <g id="patch_224">
    <path clip-path="url(#pb94a799ceb)" d="M 1140.95815 768.96 
L 1143.170485 768.96 
L 1143.170485 727.884548 
L 1140.95815 727.884548 
z
" style="fill:#1f77b4;"/>
   </g>
   <g id="patch_225">
    <path clip-path="url(#pb94a799ceb)" d="M 1145.382819 768.96 
L 1147.595154 768.96 
L 1147.595154 618.976867 
L 1145.382819 618.976867 
z
" style="fill:#1f77b4;"/>
   </g>
   <g id="patch_226">
    <path clip-path="url(#pb94a799ceb)" d="M 1149.807489 768.96 
L 1152.019824 768.96 
L 1152.019824 636.725166 
L 1149.807489 636.725166 
z
" style="fill:#1f77b4;"/>
   </g>
   <g id="patch_227">
    <path clip-path="url(#pb94a799ceb)" d="M 1154.232159 768.96 
L 1156.444493 768.96 
L 1156.444493 653.34169 
L 1154.232159 653.34169 
z
" style="fill:#1f77b4;"/>
   </g>
   <g id="patch_228">
    <path clip-path="url(#pb94a799ceb)" d="M 1158.656828 768.96 
L 1160.869163 768.96 
L 1160.869163 612.683508 
L 1158.656828 612.683508 
z
" style="fill:#1f77b4;"/>
   </g>
   <g id="patch_229">
    <path clip-path="url(#pb94a799ceb)" d="M 1163.081498 768.96 
L 1165.293833 768.96 
L 1165.293833 661.304131 
L 1163.081498 661.304131 
z
" style="fill:#1f77b4;"/>
   </g>
   <g id="matplotlib.axis_1">
    <g id="xtick_1">
     <g id="line2d_1">
      <defs>
       <path d="M 0 0 
L 0 3.5 
" id="m2f93ee5075" style="stroke:#000000;stroke-width:0.8;"/>
      </defs>
      <g>
       <use style="stroke:#000000;stroke-width:0.8;" x="164.212335" xlink:href="#m2f93ee5075" y="768.96"/>
      </g>
     </g>
     <g id="text_1">
      <!-- January -->
      <g transform="translate(145.256866 783.558437)scale(0.1 -0.1)">
       <defs>
        <path d="M 628 4666 
L 1259 4666 
L 1259 325 
Q 1259 -519 939 -900 
Q 619 -1281 -91 -1281 
L -331 -1281 
L -331 -750 
L -134 -750 
Q 284 -750 456 -515 
Q 628 -281 628 325 
L 628 4666 
z
" id="DejaVuSans-4a" transform="scale(0.015625)"/>
        <path d="M 2194 1759 
Q 1497 1759 1228 1600 
Q 959 1441 959 1056 
Q 959 750 1161 570 
Q 1363 391 1709 391 
Q 2188 391 2477 730 
Q 2766 1069 2766 1631 
L 2766 1759 
L 2194 1759 
z
M 3341 1997 
L 3341 0 
L 2766 0 
L 2766 531 
Q 2569 213 2275 61 
Q 1981 -91 1556 -91 
Q 1019 -91 701 211 
Q 384 513 384 1019 
Q 384 1609 779 1909 
Q 1175 2209 1959 2209 
L 2766 2209 
L 2766 2266 
Q 2766 2663 2505 2880 
Q 2244 3097 1772 3097 
Q 1472 3097 1187 3025 
Q 903 2953 641 2809 
L 641 3341 
Q 956 3463 1253 3523 
Q 1550 3584 1831 3584 
Q 2591 3584 2966 3190 
Q 3341 2797 3341 1997 
z
" id="DejaVuSans-61" transform="scale(0.015625)"/>
        <path d="M 3513 2113 
L 3513 0 
L 2938 0 
L 2938 2094 
Q 2938 2591 2744 2837 
Q 2550 3084 2163 3084 
Q 1697 3084 1428 2787 
Q 1159 2491 1159 1978 
L 1159 0 
L 581 0 
L 581 3500 
L 1159 3500 
L 1159 2956 
Q 1366 3272 1645 3428 
Q 1925 3584 2291 3584 
Q 2894 3584 3203 3211 
Q 3513 2838 3513 2113 
z
" id="DejaVuSans-6e" transform="scale(0.015625)"/>
        <path d="M 544 1381 
L 544 3500 
L 1119 3500 
L 1119 1403 
Q 1119 906 1312 657 
Q 1506 409 1894 409 
Q 2359 409 2629 706 
Q 2900 1003 2900 1516 
L 2900 3500 
L 3475 3500 
L 3475 0 
L 2900 0 
L 2900 538 
Q 2691 219 2414 64 
Q 2138 -91 1772 -91 
Q 1169 -91 856 284 
Q 544 659 544 1381 
z
M 1991 3584 
L 1991 3584 
z
" id="DejaVuSans-75" transform="scale(0.015625)"/>
        <path d="M 2631 2963 
Q 2534 3019 2420 3045 
Q 2306 3072 2169 3072 
Q 1681 3072 1420 2755 
Q 1159 2438 1159 1844 
L 1159 0 
L 581 0 
L 581 3500 
L 1159 3500 
L 1159 2956 
Q 1341 3275 1631 3429 
Q 1922 3584 2338 3584 
Q 2397 3584 2469 3576 
Q 2541 3569 2628 3553 
L 2631 2963 
z
" id="DejaVuSans-72" transform="scale(0.015625)"/>
        <path d="M 2059 -325 
Q 1816 -950 1584 -1140 
Q 1353 -1331 966 -1331 
L 506 -1331 
L 506 -850 
L 844 -850 
Q 1081 -850 1212 -737 
Q 1344 -625 1503 -206 
L 1606 56 
L 191 3500 
L 800 3500 
L 1894 763 
L 2988 3500 
L 3597 3500 
L 2059 -325 
z
" id="DejaVuSans-79" transform="scale(0.015625)"/>
       </defs>
       <use xlink:href="#DejaVuSans-4a"/>
       <use x="29.492188" xlink:href="#DejaVuSans-61"/>
       <use x="90.771484" xlink:href="#DejaVuSans-6e"/>
       <use x="154.150391" xlink:href="#DejaVuSans-75"/>
       <use x="217.529297" xlink:href="#DejaVuSans-61"/>
       <use x="278.808594" xlink:href="#DejaVuSans-72"/>
       <use x="319.921875" xlink:href="#DejaVuSans-79"/>
      </g>
     </g>
    </g>
    <g id="xtick_2">
     <g id="line2d_2">
      <g>
       <use style="stroke:#000000;stroke-width:0.8;" x="301.377093" xlink:href="#m2f93ee5075" y="768.96"/>
      </g>
     </g>
     <g id="text_2">
      <!-- February -->
      <g transform="translate(279.222405 783.558437)scale(0.1 -0.1)">
       <defs>
        <path d="M 628 4666 
L 3309 4666 
L 3309 4134 
L 1259 4134 
L 1259 2759 
L 3109 2759 
L 3109 2228 
L 1259 2228 
L 1259 0 
L 628 0 
L 628 4666 
z
" id="DejaVuSans-46" transform="scale(0.015625)"/>
        <path d="M 3597 1894 
L 3597 1613 
L 953 1613 
Q 991 1019 1311 708 
Q 1631 397 2203 397 
Q 2534 397 2845 478 
Q 3156 559 3463 722 
L 3463 178 
Q 3153 47 2828 -22 
Q 2503 -91 2169 -91 
Q 1331 -91 842 396 
Q 353 884 353 1716 
Q 353 2575 817 3079 
Q 1281 3584 2069 3584 
Q 2775 3584 3186 3129 
Q 3597 2675 3597 1894 
z
M 3022 2063 
Q 3016 2534 2758 2815 
Q 2500 3097 2075 3097 
Q 1594 3097 1305 2825 
Q 1016 2553 972 2059 
L 3022 2063 
z
" id="DejaVuSans-65" transform="scale(0.015625)"/>
        <path d="M 3116 1747 
Q 3116 2381 2855 2742 
Q 2594 3103 2138 3103 
Q 1681 3103 1420 2742 
Q 1159 2381 1159 1747 
Q 1159 1113 1420 752 
Q 1681 391 2138 391 
Q 2594 391 2855 752 
Q 3116 1113 3116 1747 
z
M 1159 2969 
Q 1341 3281 1617 3432 
Q 1894 3584 2278 3584 
Q 2916 3584 3314 3078 
Q 3713 2572 3713 1747 
Q 3713 922 3314 415 
Q 2916 -91 2278 -91 
Q 1894 -91 1617 61 
Q 1341 213 1159 525 
L 1159 0 
L 581 0 
L 581 4863 
L 1159 4863 
L 1159 2969 
z
" id="DejaVuSans-62" transform="scale(0.015625)"/>
       </defs>
       <use xlink:href="#DejaVuSans-46"/>
       <use x="52.019531" xlink:href="#DejaVuSans-65"/>
       <use x="113.542969" xlink:href="#DejaVuSans-62"/>
       <use x="177.019531" xlink:href="#DejaVuSans-72"/>
       <use x="218.132812" xlink:href="#DejaVuSans-75"/>
       <use x="281.511719" xlink:href="#DejaVuSans-61"/>
       <use x="342.791016" xlink:href="#DejaVuSans-72"/>
       <use x="383.904297" xlink:href="#DejaVuSans-79"/>
      </g>
     </g>
    </g>
    <g id="xtick_3">
     <g id="line2d_3">
      <g>
       <use style="stroke:#000000;stroke-width:0.8;" x="425.267841" xlink:href="#m2f93ee5075" y="768.96"/>
      </g>
     </g>
     <g id="text_3">
      <!-- March -->
      <g transform="translate(410.028779 783.558437)scale(0.1 -0.1)">
       <defs>
        <path d="M 628 4666 
L 1569 4666 
L 2759 1491 
L 3956 4666 
L 4897 4666 
L 4897 0 
L 4281 0 
L 4281 4097 
L 3078 897 
L 2444 897 
L 1241 4097 
L 1241 0 
L 628 0 
L 628 4666 
z
" id="DejaVuSans-4d" transform="scale(0.015625)"/>
        <path d="M 3122 3366 
L 3122 2828 
Q 2878 2963 2633 3030 
Q 2388 3097 2138 3097 
Q 1578 3097 1268 2742 
Q 959 2388 959 1747 
Q 959 1106 1268 751 
Q 1578 397 2138 397 
Q 2388 397 2633 464 
Q 2878 531 3122 666 
L 3122 134 
Q 2881 22 2623 -34 
Q 2366 -91 2075 -91 
Q 1284 -91 818 406 
Q 353 903 353 1747 
Q 353 2603 823 3093 
Q 1294 3584 2113 3584 
Q 2378 3584 2631 3529 
Q 2884 3475 3122 3366 
z
" id="DejaVuSans-63" transform="scale(0.015625)"/>
        <path d="M 3513 2113 
L 3513 0 
L 2938 0 
L 2938 2094 
Q 2938 2591 2744 2837 
Q 2550 3084 2163 3084 
Q 1697 3084 1428 2787 
Q 1159 2491 1159 1978 
L 1159 0 
L 581 0 
L 581 4863 
L 1159 4863 
L 1159 2956 
Q 1366 3272 1645 3428 
Q 1925 3584 2291 3584 
Q 2894 3584 3203 3211 
Q 3513 2838 3513 2113 
z
" id="DejaVuSans-68" transform="scale(0.015625)"/>
       </defs>
       <use xlink:href="#DejaVuSans-4d"/>
       <use x="86.279297" xlink:href="#DejaVuSans-61"/>
       <use x="147.558594" xlink:href="#DejaVuSans-72"/>
       <use x="186.421875" xlink:href="#DejaVuSans-63"/>
       <use x="241.402344" xlink:href="#DejaVuSans-68"/>
      </g>
     </g>
    </g>
    <g id="xtick_4">
     <g id="line2d_4">
      <g>
       <use style="stroke:#000000;stroke-width:0.8;" x="562.432599" xlink:href="#m2f93ee5075" y="768.96"/>
      </g>
     </g>
     <g id="text_4">
      <!-- April -->
      <g transform="translate(551.004474 783.558437)scale(0.1 -0.1)">
       <defs>
        <path d="M 2188 4044 
L 1331 1722 
L 3047 1722 
L 2188 4044 
z
M 1831 4666 
L 2547 4666 
L 4325 0 
L 3669 0 
L 3244 1197 
L 1141 1197 
L 716 0 
L 50 0 
L 1831 4666 
z
" id="DejaVuSans-41" transform="scale(0.015625)"/>
        <path d="M 1159 525 
L 1159 -1331 
L 581 -1331 
L 581 3500 
L 1159 3500 
L 1159 2969 
Q 1341 3281 1617 3432 
Q 1894 3584 2278 3584 
Q 2916 3584 3314 3078 
Q 3713 2572 3713 1747 
Q 3713 922 3314 415 
Q 2916 -91 2278 -91 
Q 1894 -91 1617 61 
Q 1341 213 1159 525 
z
M 3116 1747 
Q 3116 2381 2855 2742 
Q 2594 3103 2138 3103 
Q 1681 3103 1420 2742 
Q 1159 2381 1159 1747 
Q 1159 1113 1420 752 
Q 1681 391 2138 391 
Q 2594 391 2855 752 
Q 3116 1113 3116 1747 
z
" id="DejaVuSans-70" transform="scale(0.015625)"/>
        <path d="M 603 3500 
L 1178 3500 
L 1178 0 
L 603 0 
L 603 3500 
z
M 603 4863 
L 1178 4863 
L 1178 4134 
L 603 4134 
L 603 4863 
z
" id="DejaVuSans-69" transform="scale(0.015625)"/>
        <path d="M 603 4863 
L 1178 4863 
L 1178 0 
L 603 0 
L 603 4863 
z
" id="DejaVuSans-6c" transform="scale(0.015625)"/>
       </defs>
       <use xlink:href="#DejaVuSans-41"/>
       <use x="68.408203" xlink:href="#DejaVuSans-70"/>
       <use x="131.884766" xlink:href="#DejaVuSans-72"/>
       <use x="172.998047" xlink:href="#DejaVuSans-69"/>
       <use x="200.78125" xlink:href="#DejaVuSans-6c"/>
      </g>
     </g>
    </g>
    <g id="xtick_5">
     <g id="line2d_5">
      <g>
       <use style="stroke:#000000;stroke-width:0.8;" x="695.172687" xlink:href="#m2f93ee5075" y="768.96"/>
      </g>
     </g>
     <g id="text_5">
      <!-- May -->
      <g transform="translate(684.835187 783.558437)scale(0.1 -0.1)">
       <use xlink:href="#DejaVuSans-4d"/>
       <use x="86.279297" xlink:href="#DejaVuSans-61"/>
       <use x="147.558594" xlink:href="#DejaVuSans-79"/>
      </g>
     </g>
    </g>
    <g id="xtick_6">
     <g id="line2d_6">
      <g>
       <use style="stroke:#000000;stroke-width:0.8;" x="832.337445" xlink:href="#m2f93ee5075" y="768.96"/>
      </g>
     </g>
     <g id="text_6">
      <!-- June -->
      <g transform="translate(821.448382 783.558437)scale(0.1 -0.1)">
       <use xlink:href="#DejaVuSans-4a"/>
       <use x="29.492188" xlink:href="#DejaVuSans-75"/>
       <use x="92.871094" xlink:href="#DejaVuSans-6e"/>
       <use x="156.25" xlink:href="#DejaVuSans-65"/>
      </g>
     </g>
    </g>
    <g id="xtick_7">
     <g id="line2d_7">
      <g>
       <use style="stroke:#000000;stroke-width:0.8;" x="965.077533" xlink:href="#m2f93ee5075" y="768.96"/>
      </g>
     </g>
     <g id="text_7">
      <!-- July -->
      <g transform="translate(956.085346 783.558437)scale(0.1 -0.1)">
       <use xlink:href="#DejaVuSans-4a"/>
       <use x="29.492188" xlink:href="#DejaVuSans-75"/>
       <use x="92.871094" xlink:href="#DejaVuSans-6c"/>
       <use x="120.654297" xlink:href="#DejaVuSans-79"/>
      </g>
     </g>
    </g>
    <g id="xtick_8">
     <g id="line2d_8">
      <g>
       <use style="stroke:#000000;stroke-width:0.8;" x="1102.242291" xlink:href="#m2f93ee5075" y="768.96"/>
      </g>
     </g>
     <g id="text_8">
      <!-- August -->
      <g transform="translate(1084.745416 783.558437)scale(0.1 -0.1)">
       <defs>
        <path d="M 2906 1791 
Q 2906 2416 2648 2759 
Q 2391 3103 1925 3103 
Q 1463 3103 1205 2759 
Q 947 2416 947 1791 
Q 947 1169 1205 825 
Q 1463 481 1925 481 
Q 2391 481 2648 825 
Q 2906 1169 2906 1791 
z
M 3481 434 
Q 3481 -459 3084 -895 
Q 2688 -1331 1869 -1331 
Q 1566 -1331 1297 -1286 
Q 1028 -1241 775 -1147 
L 775 -588 
Q 1028 -725 1275 -790 
Q 1522 -856 1778 -856 
Q 2344 -856 2625 -561 
Q 2906 -266 2906 331 
L 2906 616 
Q 2728 306 2450 153 
Q 2172 0 1784 0 
Q 1141 0 747 490 
Q 353 981 353 1791 
Q 353 2603 747 3093 
Q 1141 3584 1784 3584 
Q 2172 3584 2450 3431 
Q 2728 3278 2906 2969 
L 2906 3500 
L 3481 3500 
L 3481 434 
z
" id="DejaVuSans-67" transform="scale(0.015625)"/>
        <path d="M 2834 3397 
L 2834 2853 
Q 2591 2978 2328 3040 
Q 2066 3103 1784 3103 
Q 1356 3103 1142 2972 
Q 928 2841 928 2578 
Q 928 2378 1081 2264 
Q 1234 2150 1697 2047 
L 1894 2003 
Q 2506 1872 2764 1633 
Q 3022 1394 3022 966 
Q 3022 478 2636 193 
Q 2250 -91 1575 -91 
Q 1294 -91 989 -36 
Q 684 19 347 128 
L 347 722 
Q 666 556 975 473 
Q 1284 391 1588 391 
Q 1994 391 2212 530 
Q 2431 669 2431 922 
Q 2431 1156 2273 1281 
Q 2116 1406 1581 1522 
L 1381 1569 
Q 847 1681 609 1914 
Q 372 2147 372 2553 
Q 372 3047 722 3315 
Q 1072 3584 1716 3584 
Q 2034 3584 2315 3537 
Q 2597 3491 2834 3397 
z
" id="DejaVuSans-73" transform="scale(0.015625)"/>
        <path d="M 1172 4494 
L 1172 3500 
L 2356 3500 
L 2356 3053 
L 1172 3053 
L 1172 1153 
Q 1172 725 1289 603 
Q 1406 481 1766 481 
L 2356 481 
L 2356 0 
L 1766 0 
Q 1100 0 847 248 
Q 594 497 594 1153 
L 594 3053 
L 172 3053 
L 172 3500 
L 594 3500 
L 594 4494 
L 1172 4494 
z
" id="DejaVuSans-74" transform="scale(0.015625)"/>
       </defs>
       <use xlink:href="#DejaVuSans-41"/>
       <use x="68.408203" xlink:href="#DejaVuSans-75"/>
       <use x="131.787109" xlink:href="#DejaVuSans-67"/>
       <use x="195.263672" xlink:href="#DejaVuSans-75"/>
       <use x="258.642578" xlink:href="#DejaVuSans-73"/>
       <use x="310.742188" xlink:href="#DejaVuSans-74"/>
      </g>
     </g>
    </g>
   </g>
   <g id="matplotlib.axis_2">
    <g id="ytick_1">
     <g id="line2d_9">
      <defs>
       <path d="M 0 0 
L -3.5 0 
" id="mb592b461a8" style="stroke:#000000;stroke-width:0.8;"/>
      </defs>
      <g>
       <use style="stroke:#000000;stroke-width:0.8;" x="162" xlink:href="#mb592b461a8" y="768.96"/>
      </g>
     </g>
     <g id="text_9">
      <!-- 0 -->
      <g transform="translate(148.6375 772.759219)scale(0.1 -0.1)">
       <defs>
        <path d="M 2034 4250 
Q 1547 4250 1301 3770 
Q 1056 3291 1056 2328 
Q 1056 1369 1301 889 
Q 1547 409 2034 409 
Q 2525 409 2770 889 
Q 3016 1369 3016 2328 
Q 3016 3291 2770 3770 
Q 2525 4250 2034 4250 
z
M 2034 4750 
Q 2819 4750 3233 4129 
Q 3647 3509 3647 2328 
Q 3647 1150 3233 529 
Q 2819 -91 2034 -91 
Q 1250 -91 836 529 
Q 422 1150 422 2328 
Q 422 3509 836 4129 
Q 1250 4750 2034 4750 
z
" id="DejaVuSans-30" transform="scale(0.015625)"/>
       </defs>
       <use xlink:href="#DejaVuSans-30"/>
      </g>
     </g>
    </g>
    <g id="ytick_2">
     <g id="line2d_10">
      <g>
       <use style="stroke:#000000;stroke-width:0.8;" x="162" xlink:href="#mb592b461a8" y="654.639231"/>
      </g>
     </g>
     <g id="text_10">
      <!-- 20000 -->
      <g transform="translate(123.1875 658.438449)scale(0.1 -0.1)">
       <defs>
        <path d="M 1228 531 
L 3431 531 
L 3431 0 
L 469 0 
L 469 531 
Q 828 903 1448 1529 
Q 2069 2156 2228 2338 
Q 2531 2678 2651 2914 
Q 2772 3150 2772 3378 
Q 2772 3750 2511 3984 
Q 2250 4219 1831 4219 
Q 1534 4219 1204 4116 
Q 875 4013 500 3803 
L 500 4441 
Q 881 4594 1212 4672 
Q 1544 4750 1819 4750 
Q 2544 4750 2975 4387 
Q 3406 4025 3406 3419 
Q 3406 3131 3298 2873 
Q 3191 2616 2906 2266 
Q 2828 2175 2409 1742 
Q 1991 1309 1228 531 
z
" id="DejaVuSans-32" transform="scale(0.015625)"/>
       </defs>
       <use xlink:href="#DejaVuSans-32"/>
       <use x="63.623047" xlink:href="#DejaVuSans-30"/>
       <use x="127.246094" xlink:href="#DejaVuSans-30"/>
       <use x="190.869141" xlink:href="#DejaVuSans-30"/>
       <use x="254.492188" xlink:href="#DejaVuSans-30"/>
      </g>
     </g>
    </g>
    <g id="ytick_3">
     <g id="line2d_11">
      <g>
       <use style="stroke:#000000;stroke-width:0.8;" x="162" xlink:href="#mb592b461a8" y="540.318461"/>
      </g>
     </g>
     <g id="text_11">
      <!-- 40000 -->
      <g transform="translate(123.1875 544.11768)scale(0.1 -0.1)">
       <defs>
        <path d="M 2419 4116 
L 825 1625 
L 2419 1625 
L 2419 4116 
z
M 2253 4666 
L 3047 4666 
L 3047 1625 
L 3713 1625 
L 3713 1100 
L 3047 1100 
L 3047 0 
L 2419 0 
L 2419 1100 
L 313 1100 
L 313 1709 
L 2253 4666 
z
" id="DejaVuSans-34" transform="scale(0.015625)"/>
       </defs>
       <use xlink:href="#DejaVuSans-34"/>
       <use x="63.623047" xlink:href="#DejaVuSans-30"/>
       <use x="127.246094" xlink:href="#DejaVuSans-30"/>
       <use x="190.869141" xlink:href="#DejaVuSans-30"/>
       <use x="254.492188" xlink:href="#DejaVuSans-30"/>
      </g>
     </g>
    </g>
    <g id="ytick_4">
     <g id="line2d_12">
      <g>
       <use style="stroke:#000000;stroke-width:0.8;" x="162" xlink:href="#mb592b461a8" y="425.997692"/>
      </g>
     </g>
     <g id="text_12">
      <!-- 60000 -->
      <g transform="translate(123.1875 429.796911)scale(0.1 -0.1)">
       <defs>
        <path d="M 2113 2584 
Q 1688 2584 1439 2293 
Q 1191 2003 1191 1497 
Q 1191 994 1439 701 
Q 1688 409 2113 409 
Q 2538 409 2786 701 
Q 3034 994 3034 1497 
Q 3034 2003 2786 2293 
Q 2538 2584 2113 2584 
z
M 3366 4563 
L 3366 3988 
Q 3128 4100 2886 4159 
Q 2644 4219 2406 4219 
Q 1781 4219 1451 3797 
Q 1122 3375 1075 2522 
Q 1259 2794 1537 2939 
Q 1816 3084 2150 3084 
Q 2853 3084 3261 2657 
Q 3669 2231 3669 1497 
Q 3669 778 3244 343 
Q 2819 -91 2113 -91 
Q 1303 -91 875 529 
Q 447 1150 447 2328 
Q 447 3434 972 4092 
Q 1497 4750 2381 4750 
Q 2619 4750 2861 4703 
Q 3103 4656 3366 4563 
z
" id="DejaVuSans-36" transform="scale(0.015625)"/>
       </defs>
       <use xlink:href="#DejaVuSans-36"/>
       <use x="63.623047" xlink:href="#DejaVuSans-30"/>
       <use x="127.246094" xlink:href="#DejaVuSans-30"/>
       <use x="190.869141" xlink:href="#DejaVuSans-30"/>
       <use x="254.492188" xlink:href="#DejaVuSans-30"/>
      </g>
     </g>
    </g>
    <g id="ytick_5">
     <g id="line2d_13">
      <g>
       <use style="stroke:#000000;stroke-width:0.8;" x="162" xlink:href="#mb592b461a8" y="311.676923"/>
      </g>
     </g>
     <g id="text_13">
      <!-- 80000 -->
      <g transform="translate(123.1875 315.476141)scale(0.1 -0.1)">
       <defs>
        <path d="M 2034 2216 
Q 1584 2216 1326 1975 
Q 1069 1734 1069 1313 
Q 1069 891 1326 650 
Q 1584 409 2034 409 
Q 2484 409 2743 651 
Q 3003 894 3003 1313 
Q 3003 1734 2745 1975 
Q 2488 2216 2034 2216 
z
M 1403 2484 
Q 997 2584 770 2862 
Q 544 3141 544 3541 
Q 544 4100 942 4425 
Q 1341 4750 2034 4750 
Q 2731 4750 3128 4425 
Q 3525 4100 3525 3541 
Q 3525 3141 3298 2862 
Q 3072 2584 2669 2484 
Q 3125 2378 3379 2068 
Q 3634 1759 3634 1313 
Q 3634 634 3220 271 
Q 2806 -91 2034 -91 
Q 1263 -91 848 271 
Q 434 634 434 1313 
Q 434 1759 690 2068 
Q 947 2378 1403 2484 
z
M 1172 3481 
Q 1172 3119 1398 2916 
Q 1625 2713 2034 2713 
Q 2441 2713 2670 2916 
Q 2900 3119 2900 3481 
Q 2900 3844 2670 4047 
Q 2441 4250 2034 4250 
Q 1625 4250 1398 4047 
Q 1172 3844 1172 3481 
z
" id="DejaVuSans-38" transform="scale(0.015625)"/>
       </defs>
       <use xlink:href="#DejaVuSans-38"/>
       <use x="63.623047" xlink:href="#DejaVuSans-30"/>
       <use x="127.246094" xlink:href="#DejaVuSans-30"/>
       <use x="190.869141" xlink:href="#DejaVuSans-30"/>
       <use x="254.492188" xlink:href="#DejaVuSans-30"/>
      </g>
     </g>
    </g>
    <g id="ytick_6">
     <g id="line2d_14">
      <g>
       <use style="stroke:#000000;stroke-width:0.8;" x="162" xlink:href="#mb592b461a8" y="197.356153"/>
      </g>
     </g>
     <g id="text_14">
      <!-- 100000 -->
      <g transform="translate(116.825 201.155372)scale(0.1 -0.1)">
       <defs>
        <path d="M 794 531 
L 1825 531 
L 1825 4091 
L 703 3866 
L 703 4441 
L 1819 4666 
L 2450 4666 
L 2450 531 
L 3481 531 
L 3481 0 
L 794 0 
L 794 531 
z
" id="DejaVuSans-31" transform="scale(0.015625)"/>
       </defs>
       <use xlink:href="#DejaVuSans-31"/>
       <use x="63.623047" xlink:href="#DejaVuSans-30"/>
       <use x="127.246094" xlink:href="#DejaVuSans-30"/>
       <use x="190.869141" xlink:href="#DejaVuSans-30"/>
       <use x="254.492188" xlink:href="#DejaVuSans-30"/>
       <use x="318.115234" xlink:href="#DejaVuSans-30"/>
      </g>
     </g>
    </g>
    <g id="text_15">
     <!-- Persons fully vaccinated -->
     <g transform="translate(110.745312 496.922344)rotate(-90)scale(0.1 -0.1)">
      <defs>
       <path d="M 1259 4147 
L 1259 2394 
L 2053 2394 
Q 2494 2394 2734 2622 
Q 2975 2850 2975 3272 
Q 2975 3691 2734 3919 
Q 2494 4147 2053 4147 
L 1259 4147 
z
M 628 4666 
L 2053 4666 
Q 2838 4666 3239 4311 
Q 3641 3956 3641 3272 
Q 3641 2581 3239 2228 
Q 2838 1875 2053 1875 
L 1259 1875 
L 1259 0 
L 628 0 
L 628 4666 
z
" id="DejaVuSans-50" transform="scale(0.015625)"/>
       <path d="M 1959 3097 
Q 1497 3097 1228 2736 
Q 959 2375 959 1747 
Q 959 1119 1226 758 
Q 1494 397 1959 397 
Q 2419 397 2687 759 
Q 2956 1122 2956 1747 
Q 2956 2369 2687 2733 
Q 2419 3097 1959 3097 
z
M 1959 3584 
Q 2709 3584 3137 3096 
Q 3566 2609 3566 1747 
Q 3566 888 3137 398 
Q 2709 -91 1959 -91 
Q 1206 -91 779 398 
Q 353 888 353 1747 
Q 353 2609 779 3096 
Q 1206 3584 1959 3584 
z
" id="DejaVuSans-6f" transform="scale(0.015625)"/>
       <path id="DejaVuSans-20" transform="scale(0.015625)"/>
       <path d="M 2375 4863 
L 2375 4384 
L 1825 4384 
Q 1516 4384 1395 4259 
Q 1275 4134 1275 3809 
L 1275 3500 
L 2222 3500 
L 2222 3053 
L 1275 3053 
L 1275 0 
L 697 0 
L 697 3053 
L 147 3053 
L 147 3500 
L 697 3500 
L 697 3744 
Q 697 4328 969 4595 
Q 1241 4863 1831 4863 
L 2375 4863 
z
" id="DejaVuSans-66" transform="scale(0.015625)"/>
       <path d="M 191 3500 
L 800 3500 
L 1894 563 
L 2988 3500 
L 3597 3500 
L 2284 0 
L 1503 0 
L 191 3500 
z
" id="DejaVuSans-76" transform="scale(0.015625)"/>
       <path d="M 2906 2969 
L 2906 4863 
L 3481 4863 
L 3481 0 
L 2906 0 
L 2906 525 
Q 2725 213 2448 61 
Q 2172 -91 1784 -91 
Q 1150 -91 751 415 
Q 353 922 353 1747 
Q 353 2572 751 3078 
Q 1150 3584 1784 3584 
Q 2172 3584 2448 3432 
Q 2725 3281 2906 2969 
z
M 947 1747 
Q 947 1113 1208 752 
Q 1469 391 1925 391 
Q 2381 391 2643 752 
Q 2906 1113 2906 1747 
Q 2906 2381 2643 2742 
Q 2381 3103 1925 3103 
Q 1469 3103 1208 2742 
Q 947 2381 947 1747 
z
" id="DejaVuSans-64" transform="scale(0.015625)"/>
      </defs>
      <use xlink:href="#DejaVuSans-50"/>
      <use x="56.677734" xlink:href="#DejaVuSans-65"/>
      <use x="118.201172" xlink:href="#DejaVuSans-72"/>
      <use x="159.314453" xlink:href="#DejaVuSans-73"/>
      <use x="211.414062" xlink:href="#DejaVuSans-6f"/>
      <use x="272.595703" xlink:href="#DejaVuSans-6e"/>
      <use x="335.974609" xlink:href="#DejaVuSans-73"/>
      <use x="388.074219" xlink:href="#DejaVuSans-20"/>
      <use x="419.861328" xlink:href="#DejaVuSans-66"/>
      <use x="455.066406" xlink:href="#DejaVuSans-75"/>
      <use x="518.445312" xlink:href="#DejaVuSans-6c"/>
      <use x="546.228516" xlink:href="#DejaVuSans-6c"/>
      <use x="574.011719" xlink:href="#DejaVuSans-79"/>
      <use x="633.191406" xlink:href="#DejaVuSans-20"/>
      <use x="664.978516" xlink:href="#DejaVuSans-76"/>
      <use x="724.158203" xlink:href="#DejaVuSans-61"/>
      <use x="785.4375" xlink:href="#DejaVuSans-63"/>
      <use x="840.417969" xlink:href="#DejaVuSans-63"/>
      <use x="895.398438" xlink:href="#DejaVuSans-69"/>
      <use x="923.181641" xlink:href="#DejaVuSans-6e"/>
      <use x="986.560547" xlink:href="#DejaVuSans-61"/>
      <use x="1047.839844" xlink:href="#DejaVuSans-74"/>
      <use x="1087.048828" xlink:href="#DejaVuSans-65"/>
      <use x="1148.572266" xlink:href="#DejaVuSans-64"/>
     </g>
    </g>
   </g>
   <g id="line2d_15">
    <path clip-path="url(#pb94a799ceb)" d="M 239.431718 744.736246 
L 243.856388 744.588445 
L 248.281057 745.869654 
L 252.705727 742.547003 
L 257.130396 741.773704 
L 261.555066 739.798405 
L 265.979736 735.682041 
L 270.404405 727.798807 
L 274.829075 719.410929 
L 279.253744 713.280069 
L 283.678414 706.71969 
L 288.103084 702.369785 
L 292.527753 701.38336 
L 296.952423 701.253524 
L 301.377093 698.673958 
L 305.801762 703.677125 
L 310.226432 703.370092 
L 314.651101 703.86902 
L 319.075771 700.516972 
L 323.500441 700.760312 
L 327.92511 696.811346 
L 332.34978 697.59281 
L 336.774449 691.894736 
L 341.199119 682.161956 
L 345.623789 673.075088 
L 350.048458 670.182772 
L 354.473128 666.672308 
L 358.897797 670.579629 
L 363.322467 670.859715 
L 367.747137 665.634439 
L 372.171806 660.681083 
L 376.596476 654.395074 
L 381.021145 661.657709 
L 385.445815 648.662704 
L 389.870485 640.129475 
L 394.295154 630.879292 
L 398.719824 609.248986 
L 403.144493 593.789551 
L 407.569163 581.224066 
L 411.993833 551.753805 
L 416.418502 554.531799 
L 420.843172 544.684698 
L 425.267841 534.372965 
L 429.692511 539.651318 
L 434.117181 528.104104 
L 438.54185 514.080212 
L 442.96652 507.247912 
L 447.391189 511.297317 
L 451.815859 501.96221 
L 456.240529 490.969451 
L 460.665198 480.830832 
L 465.089868 484.139602 
L 469.514537 478.083051 
L 473.939207 481.85237 
L 478.363877 456.511538 
L 482.788546 457.373027 
L 487.213216 463.512869 
L 491.637885 478.075702 
L 496.062555 491.964859 
L 500.487225 511.223825 
L 504.911894 524.094711 
L 509.336564 548.769216 
L 513.761233 560.954177 
L 518.185903 572.750447 
L 522.610573 579.389217 
L 527.035242 583.247543 
L 531.459912 579.872631 
L 535.884581 567.044207 
L 540.309251 565.584168 
L 544.733921 563.983677 
L 549.15859 548.308666 
L 553.58326 539.710928 
L 558.00793 525.131764 
L 562.432599 518.500342 
L 566.857269 517.2175 
L 571.281938 521.40409 
L 575.706608 507.608023 
L 580.131278 491.64966 
L 584.555947 463.336488 
L 588.980617 436.685867 
L 593.405286 395.934596 
L 597.829956 372.922642 
L 602.254626 353.348476 
L 606.679295 339.310702 
L 611.103965 334.420223 
L 615.528634 344.696027 
L 619.953304 347.954986 
L 624.377974 366.979595 
L 628.802643 378.000117 
L 633.227313 379.256012 
L 637.651982 388.534776 
L 642.076652 383.329915 
L 646.501322 376.384928 
L 650.925991 384.728711 
L 655.350661 396.361666 
L 659.77533 406.678298 
L 664.2 418.288389 
L 668.62467 422.850604 
L 673.049339 437.877253 
L 677.474009 442.996374 
L 681.898678 453.363634 
L 686.323348 467.897887 
L 690.748018 487.612504 
L 695.172687 498.026309 
L 699.597357 512.981099 
L 704.022026 507.203817 
L 708.446696 505.235867 
L 712.871366 515.718265 
L 717.296035 497.321603 
L 721.720705 474.549723 
L 726.145374 442.830609 
L 730.570044 432.02403 
L 734.994714 446.03649 
L 739.419383 463.16909 
L 743.844053 464.663426 
L 748.268722 468.543799 
L 752.693392 478.490523 
L 757.118062 503.32916 
L 761.542731 512.912507 
L 765.967401 513.867902 
L 770.39207 515.421031 
L 774.81674 502.403978 
L 779.24141 526.889854 
L 783.666079 532.05307 
L 788.090749 532.890061 
L 792.515419 534.679181 
L 796.940088 551.915487 
L 801.364758 563.884871 
L 805.789427 590.470166 
L 810.214097 600.227444 
L 814.638767 611.21367 
L 819.063436 614.585316 
L 823.488106 628.622273 
L 827.912775 638.965853 
L 832.337445 648.870931 
L 836.762115 649.952896 
L 841.186784 645.39558 
L 850.036123 626.524487 
L 854.460793 607.649312 
L 858.885463 595.213662 
L 863.310132 578.449337 
L 867.734802 582.318279 
L 872.159471 591.038504 
L 876.584141 605.104858 
L 881.008811 611.258582 
L 885.43348 597.630729 
L 889.85815 596.182938 
L 894.282819 609.288998 
L 898.707489 605.608686 
L 903.132159 614.283999 
L 907.556828 607.479464 
L 911.981498 612.080058 
L 916.406167 641.579716 
L 920.830837 658.498373 
L 925.255507 663.379053 
L 929.680176 671.405188 
L 938.529515 614.288899 
L 942.954185 618.492637 
L 947.378855 618.201119 
L 951.803524 617.711989 
L 956.228194 620.400977 
L 960.652863 627.656263 
L 965.077533 657.923503 
L 969.502203 697.453175 
L 973.926872 697.656503 
L 978.351542 707.574646 
L 982.776211 714.068066 
L 987.200881 715.077355 
L 991.625551 714.716428 
L 996.05022 715.837588 
L 1000.47489 715.660391 
L 1004.899559 713.862289 
L 1009.324229 703.659977 
L 1013.748899 701.166151 
L 1018.173568 704.110727 
L 1022.598238 707.194938 
L 1027.022907 708.699889 
L 1031.447577 710.083171 
L 1035.872247 711.007536 
L 1040.296916 714.58006 
L 1044.721586 713.859022 
L 1049.146256 713.391124 
L 1057.995595 717.263332 
L 1062.420264 720.308347 
L 1066.844934 722.817688 
L 1071.269604 726.136256 
L 1075.694273 726.724192 
L 1080.118943 720.292832 
L 1084.543612 718.894852 
L 1088.968282 707.945372 
L 1093.392952 705.758579 
L 1097.817621 703.415003 
L 1102.242291 700.939142 
L 1106.66696 701.407857 
L 1111.09163 708.870554 
L 1115.5163 708.56842 
L 1119.940969 717.443795 
L 1124.365639 709.567094 
L 1128.790308 708.880353 
L 1133.214978 709.129409 
L 1137.639648 711.97028 
L 1142.064317 698.598016 
L 1146.488987 688.024978 
L 1150.913656 680.303427 
L 1155.338326 672.247079 
L 1159.762996 662.333835 
L 1159.762996 662.333835 
" style="fill:none;stroke:#ffa500;stroke-linecap:square;stroke-width:1.5;"/>
   </g>
   <g id="patch_230">
    <path d="M 162 768.96 
L 162 103.68 
" style="fill:none;stroke:#000000;stroke-linecap:square;stroke-linejoin:miter;stroke-width:0.8;"/>
   </g>
   <g id="patch_231">
    <path d="M 1166.4 768.96 
L 1166.4 103.68 
" style="fill:none;stroke:#000000;stroke-linecap:square;stroke-linejoin:miter;stroke-width:0.8;"/>
   </g>
   <g id="patch_232">
    <path d="M 162 768.96 
L 1166.4 768.96 
" style="fill:none;stroke:#000000;stroke-linecap:square;stroke-linejoin:miter;stroke-width:0.8;"/>
   </g>
   <g id="patch_233">
    <path d="M 162 103.68 
L 1166.4 103.68 
" style="fill:none;stroke:#000000;stroke-linecap:square;stroke-linejoin:miter;stroke-width:0.8;"/>
   </g>
   <g id="text_16">
    <!-- Persons Fully Vaccinated -->
    <g transform="translate(590.380313 97.68)scale(0.12 -0.12)">
     <defs>
      <path d="M 1831 0 
L 50 4666 
L 709 4666 
L 2188 738 
L 3669 4666 
L 4325 4666 
L 2547 0 
L 1831 0 
z
" id="DejaVuSans-56" transform="scale(0.015625)"/>
     </defs>
     <use xlink:href="#DejaVuSans-50"/>
     <use x="56.677734" xlink:href="#DejaVuSans-65"/>
     <use x="118.201172" xlink:href="#DejaVuSans-72"/>
     <use x="159.314453" xlink:href="#DejaVuSans-73"/>
     <use x="211.414062" xlink:href="#DejaVuSans-6f"/>
     <use x="272.595703" xlink:href="#DejaVuSans-6e"/>
     <use x="335.974609" xlink:href="#DejaVuSans-73"/>
     <use x="388.074219" xlink:href="#DejaVuSans-20"/>
     <use x="419.861328" xlink:href="#DejaVuSans-46"/>
     <use x="471.880859" xlink:href="#DejaVuSans-75"/>
     <use x="535.259766" xlink:href="#DejaVuSans-6c"/>
     <use x="563.042969" xlink:href="#DejaVuSans-6c"/>
     <use x="590.826172" xlink:href="#DejaVuSans-79"/>
     <use x="650.005859" xlink:href="#DejaVuSans-20"/>
     <use x="681.792969" xlink:href="#DejaVuSans-56"/>
     <use x="742.451172" xlink:href="#DejaVuSans-61"/>
     <use x="803.730469" xlink:href="#DejaVuSans-63"/>
     <use x="858.710938" xlink:href="#DejaVuSans-63"/>
     <use x="913.691406" xlink:href="#DejaVuSans-69"/>
     <use x="941.474609" xlink:href="#DejaVuSans-6e"/>
     <use x="1004.853516" xlink:href="#DejaVuSans-61"/>
     <use x="1066.132812" xlink:href="#DejaVuSans-74"/>
     <use x="1105.341797" xlink:href="#DejaVuSans-65"/>
     <use x="1166.865234" xlink:href="#DejaVuSans-64"/>
    </g>
   </g>
  </g>
 </g>
 <defs>
  <clipPath id="pb94a799ceb">
   <rect height="665.28" width="1004.4" x="162" y="103.68"/>
  </clipPath>
 </defs>
</svg>
