<?xml version="1.0" encoding="utf-8" standalone="no"?>
<!DOCTYPE svg PUBLIC "-//W3C//DTD SVG 1.1//EN"
  "http://www.w3.org/Graphics/SVG/1.1/DTD/svg11.dtd">
<svg height="864pt" version="1.1" viewBox="0 0 1296 864" width="1296pt" xmlns="http://www.w3.org/2000/svg" xmlns:xlink="http://www.w3.org/1999/xlink">
 <metadata>
  <rdf:RDF xmlns:cc="http://creativecommons.org/ns#" xmlns:dc="http://purl.org/dc/elements/1.1/" xmlns:rdf="http://www.w3.org/1999/02/22-rdf-syntax-ns#">
   <cc:Work>
    <dc:type rdf:resource="http://purl.org/dc/dcmitype/StillImage"/>
    <dc:date>2021-08-13T05:18:15.936481</dc:date>
    <dc:format>image/svg+xml</dc:format>
    <dc:creator>
     <cc:Agent>
      <dc:title>Matplotlib v3.4.2, https://matplotlib.org/</dc:title>
     </cc:Agent>
    </dc:creator>
   </cc:Work>
  </rdf:RDF>
 </metadata>
 <defs>
  <style type="text/css">*{stroke-linecap:butt;stroke-linejoin:round;}</style>
 </defs>
 <g id="figure_1">
  <g id="patch_1">
   <path d="M 0 864 
L 1296 864 
L 1296 0 
L 0 0 
z
" style="fill:#ffffff;"/>
  </g>
  <g id="axes_1">
   <g id="patch_2">
    <path d="M 162 768.96 
L 1166.4 768.96 
L 1166.4 103.68 
L 162 103.68 
z
" style="fill:#ffffff;"/>
   </g>
   <g id="patch_3">
    <path clip-path="url(#pa4feeca673)" d="M 163.141364 768.96 
L 165.424091 768.96 
L 165.424091 768.947695 
L 163.141364 768.947695 
z
" style="fill:#1f77b4;"/>
   </g>
   <g id="patch_4">
    <path clip-path="url(#pa4feeca673)" d="M 167.706818 768.96 
L 169.989545 768.96 
L 169.989545 768.922329 
L 167.706818 768.922329 
z
" style="fill:#1f77b4;"/>
   </g>
   <g id="patch_5">
    <path clip-path="url(#pa4feeca673)" d="M 172.272273 768.96 
L 174.555 768.96 
L 174.555 768.704922 
L 172.272273 768.704922 
z
" style="fill:#1f77b4;"/>
   </g>
   <g id="patch_6">
    <path clip-path="url(#pa4feeca673)" d="M 176.837727 768.96 
L 179.120455 768.96 
L 179.120455 767.100264 
L 176.837727 767.100264 
z
" style="fill:#1f77b4;"/>
   </g>
   <g id="patch_7">
    <path clip-path="url(#pa4feeca673)" d="M 181.403182 768.96 
L 183.685909 768.96 
L 183.685909 765.184422 
L 181.403182 765.184422 
z
" style="fill:#1f77b4;"/>
   </g>
   <g id="patch_8">
    <path clip-path="url(#pa4feeca673)" d="M 185.968636 768.96 
L 188.251364 768.96 
L 188.251364 764.139898 
L 185.968636 764.139898 
z
" style="fill:#1f77b4;"/>
   </g>
   <g id="patch_9">
    <path clip-path="url(#pa4feeca673)" d="M 190.534091 768.96 
L 192.816818 768.96 
L 192.816818 763.505311 
L 190.534091 763.505311 
z
" style="fill:#1f77b4;"/>
   </g>
   <g id="patch_10">
    <path clip-path="url(#pa4feeca673)" d="M 195.099545 768.96 
L 197.382273 768.96 
L 197.382273 762.50681 
L 195.099545 762.50681 
z
" style="fill:#1f77b4;"/>
   </g>
   <g id="patch_11">
    <path clip-path="url(#pa4feeca673)" d="M 199.665 768.96 
L 201.947727 768.96 
L 201.947727 761.56055 
L 199.665 761.56055 
z
" style="fill:#1f77b4;"/>
   </g>
   <g id="patch_12">
    <path clip-path="url(#pa4feeca673)" d="M 204.230455 768.96 
L 206.513182 768.96 
L 206.513182 760.788473 
L 204.230455 760.788473 
z
" style="fill:#1f77b4;"/>
   </g>
   <g id="patch_13">
    <path clip-path="url(#pa4feeca673)" d="M 208.795909 768.96 
L 211.078636 768.96 
L 211.078636 759.851986 
L 208.795909 759.851986 
z
" style="fill:#1f77b4;"/>
   </g>
   <g id="patch_14">
    <path clip-path="url(#pa4feeca673)" d="M 213.361364 768.96 
L 215.644091 768.96 
L 215.644091 759.668385 
L 213.361364 759.668385 
z
" style="fill:#1f77b4;"/>
   </g>
   <g id="patch_15">
    <path clip-path="url(#pa4feeca673)" d="M 217.926818 768.96 
L 220.209545 768.96 
L 220.209545 759.554039 
L 217.926818 759.554039 
z
" style="fill:#1f77b4;"/>
   </g>
   <g id="patch_16">
    <path clip-path="url(#pa4feeca673)" d="M 222.492273 768.96 
L 224.775 768.96 
L 224.775 759.501131 
L 222.492273 759.501131 
z
" style="fill:#1f77b4;"/>
   </g>
   <g id="patch_17">
    <path clip-path="url(#pa4feeca673)" d="M 227.057727 768.96 
L 229.340455 768.96 
L 229.340455 759.240411 
L 227.057727 759.240411 
z
" style="fill:#1f77b4;"/>
   </g>
   <g id="patch_18">
    <path clip-path="url(#pa4feeca673)" d="M 231.623182 768.96 
L 233.905909 768.96 
L 233.905909 758.818124 
L 231.623182 758.818124 
z
" style="fill:#1f77b4;"/>
   </g>
   <g id="patch_19">
    <path clip-path="url(#pa4feeca673)" d="M 236.188636 768.96 
L 238.471364 768.96 
L 238.471364 757.962176 
L 236.188636 757.962176 
z
" style="fill:#1f77b4;"/>
   </g>
   <g id="patch_20">
    <path clip-path="url(#pa4feeca673)" d="M 240.754091 768.96 
L 243.036818 768.96 
L 243.036818 757.118489 
L 240.754091 757.118489 
z
" style="fill:#1f77b4;"/>
   </g>
   <g id="patch_21">
    <path clip-path="url(#pa4feeca673)" d="M 245.319545 768.96 
L 247.602273 768.96 
L 247.602273 756.528193 
L 245.319545 756.528193 
z
" style="fill:#1f77b4;"/>
   </g>
   <g id="patch_22">
    <path clip-path="url(#pa4feeca673)" d="M 249.885 768.96 
L 252.167727 768.96 
L 252.167727 756.323446 
L 249.885 756.323446 
z
" style="fill:#1f77b4;"/>
   </g>
   <g id="patch_23">
    <path clip-path="url(#pa4feeca673)" d="M 254.450455 768.96 
L 256.733182 768.96 
L 256.733182 756.033762 
L 254.450455 756.033762 
z
" style="fill:#1f77b4;"/>
   </g>
   <g id="patch_24">
    <path clip-path="url(#pa4feeca673)" d="M 259.015909 768.96 
L 261.298636 768.96 
L 261.298636 755.244627 
L 259.015909 755.244627 
z
" style="fill:#1f77b4;"/>
   </g>
   <g id="patch_25">
    <path clip-path="url(#pa4feeca673)" d="M 263.581364 768.96 
L 265.864091 768.96 
L 265.864091 753.89838 
L 263.581364 753.89838 
z
" style="fill:#1f77b4;"/>
   </g>
   <g id="patch_26">
    <path clip-path="url(#pa4feeca673)" d="M 268.146818 768.96 
L 270.429545 768.96 
L 270.429545 752.021053 
L 268.146818 752.021053 
z
" style="fill:#1f77b4;"/>
   </g>
   <g id="patch_27">
    <path clip-path="url(#pa4feeca673)" d="M 272.712273 768.96 
L 274.995 768.96 
L 274.995 750.457976 
L 272.712273 750.457976 
z
" style="fill:#1f77b4;"/>
   </g>
   <g id="patch_28">
    <path clip-path="url(#pa4feeca673)" d="M 277.277727 768.96 
L 279.560455 768.96 
L 279.560455 749.046737 
L 277.277727 749.046737 
z
" style="fill:#1f77b4;"/>
   </g>
   <g id="patch_29">
    <path clip-path="url(#pa4feeca673)" d="M 281.843182 768.96 
L 284.125909 768.96 
L 284.125909 748.290387 
L 281.843182 748.290387 
z
" style="fill:#1f77b4;"/>
   </g>
   <g id="patch_30">
    <path clip-path="url(#pa4feeca673)" d="M 286.408636 768.96 
L 288.691364 768.96 
L 288.691364 747.865523 
L 286.408636 747.865523 
z
" style="fill:#1f77b4;"/>
   </g>
   <g id="patch_31">
    <path clip-path="url(#pa4feeca673)" d="M 290.974091 768.96 
L 293.256818 768.96 
L 293.256818 747.096822 
L 290.974091 747.096822 
z
" style="fill:#1f77b4;"/>
   </g>
   <g id="patch_32">
    <path clip-path="url(#pa4feeca673)" d="M 295.539545 768.96 
L 297.822273 768.96 
L 297.822273 745.414202 
L 295.539545 745.414202 
z
" style="fill:#1f77b4;"/>
   </g>
   <g id="patch_33">
    <path clip-path="url(#pa4feeca673)" d="M 300.105 768.96 
L 302.387727 768.96 
L 302.387727 744.177014 
L 300.105 744.177014 
z
" style="fill:#1f77b4;"/>
   </g>
   <g id="patch_34">
    <path clip-path="url(#pa4feeca673)" d="M 304.670455 768.96 
L 306.953182 768.96 
L 306.953182 742.49164 
L 304.670455 742.49164 
z
" style="fill:#1f77b4;"/>
   </g>
   <g id="patch_35">
    <path clip-path="url(#pa4feeca673)" d="M 309.235909 768.96 
L 311.518636 768.96 
L 311.518636 741.178399 
L 309.235909 741.178399 
z
" style="fill:#1f77b4;"/>
   </g>
   <g id="patch_36">
    <path clip-path="url(#pa4feeca673)" d="M 313.801364 768.96 
L 316.084091 768.96 
L 316.084091 739.999317 
L 313.801364 739.999317 
z
" style="fill:#1f77b4;"/>
   </g>
   <g id="patch_37">
    <path clip-path="url(#pa4feeca673)" d="M 318.366818 768.96 
L 320.649545 768.96 
L 320.649545 739.599419 
L 318.366818 739.599419 
z
" style="fill:#1f77b4;"/>
   </g>
   <g id="patch_38">
    <path clip-path="url(#pa4feeca673)" d="M 322.932273 768.96 
L 325.215 768.96 
L 325.215 738.241666 
L 322.932273 738.241666 
z
" style="fill:#1f77b4;"/>
   </g>
   <g id="patch_39">
    <path clip-path="url(#pa4feeca673)" d="M 327.497727 768.96 
L 329.780455 768.96 
L 329.780455 736.550872 
L 327.497727 736.550872 
z
" style="fill:#1f77b4;"/>
   </g>
   <g id="patch_40">
    <path clip-path="url(#pa4feeca673)" d="M 332.063182 768.96 
L 334.345909 768.96 
L 334.345909 734.507313 
L 332.063182 734.507313 
z
" style="fill:#1f77b4;"/>
   </g>
   <g id="patch_41">
    <path clip-path="url(#pa4feeca673)" d="M 336.628636 768.96 
L 338.911364 768.96 
L 338.911364 731.575644 
L 336.628636 731.575644 
z
" style="fill:#1f77b4;"/>
   </g>
   <g id="patch_42">
    <path clip-path="url(#pa4feeca673)" d="M 341.194091 768.96 
L 343.476818 768.96 
L 343.476818 728.922686 
L 341.194091 728.922686 
z
" style="fill:#1f77b4;"/>
   </g>
   <g id="patch_43">
    <path clip-path="url(#pa4feeca673)" d="M 345.759545 768.96 
L 348.042273 768.96 
L 348.042273 727.275294 
L 345.759545 727.275294 
z
" style="fill:#1f77b4;"/>
   </g>
   <g id="patch_44">
    <path clip-path="url(#pa4feeca673)" d="M 350.325 768.96 
L 352.607727 768.96 
L 352.607727 726.385451 
L 350.325 726.385451 
z
" style="fill:#1f77b4;"/>
   </g>
   <g id="patch_45">
    <path clip-path="url(#pa4feeca673)" d="M 354.890455 768.96 
L 357.173182 768.96 
L 357.173182 725.524528 
L 354.890455 725.524528 
z
" style="fill:#1f77b4;"/>
   </g>
   <g id="patch_46">
    <path clip-path="url(#pa4feeca673)" d="M 359.455909 768.96 
L 361.738636 768.96 
L 361.738636 723.739957 
L 359.455909 723.739957 
z
" style="fill:#1f77b4;"/>
   </g>
   <g id="patch_47">
    <path clip-path="url(#pa4feeca673)" d="M 364.021364 768.96 
L 366.304091 768.96 
L 366.304091 720.853911 
L 364.021364 720.853911 
z
" style="fill:#1f77b4;"/>
   </g>
   <g id="patch_48">
    <path clip-path="url(#pa4feeca673)" d="M 368.586818 768.96 
L 370.869545 768.96 
L 370.869545 717.003568 
L 368.586818 717.003568 
z
" style="fill:#1f77b4;"/>
   </g>
   <g id="patch_49">
    <path clip-path="url(#pa4feeca673)" d="M 373.152273 768.96 
L 375.435 768.96 
L 375.435 713.461435 
L 373.152273 713.461435 
z
" style="fill:#1f77b4;"/>
   </g>
   <g id="patch_50">
    <path clip-path="url(#pa4feeca673)" d="M 377.717727 768.96 
L 380.000455 768.96 
L 380.000455 712.747597 
L 377.717727 712.747597 
z
" style="fill:#1f77b4;"/>
   </g>
   <g id="patch_51">
    <path clip-path="url(#pa4feeca673)" d="M 382.283182 768.96 
L 384.565909 768.96 
L 384.565909 710.123604 
L 382.283182 710.123604 
z
" style="fill:#1f77b4;"/>
   </g>
   <g id="patch_52">
    <path clip-path="url(#pa4feeca673)" d="M 386.848636 768.96 
L 389.131364 768.96 
L 389.131364 708.049614 
L 386.848636 708.049614 
z
" style="fill:#1f77b4;"/>
   </g>
   <g id="patch_53">
    <path clip-path="url(#pa4feeca673)" d="M 391.414091 768.96 
L 393.696818 768.96 
L 393.696818 704.955045 
L 391.414091 704.955045 
z
" style="fill:#1f77b4;"/>
   </g>
   <g id="patch_54">
    <path clip-path="url(#pa4feeca673)" d="M 395.979545 768.96 
L 398.262273 768.96 
L 398.262273 699.060655 
L 395.979545 699.060655 
z
" style="fill:#1f77b4;"/>
   </g>
   <g id="patch_55">
    <path clip-path="url(#pa4feeca673)" d="M 400.545 768.96 
L 402.827727 768.96 
L 402.827727 692.865431 
L 400.545 692.865431 
z
" style="fill:#1f77b4;"/>
   </g>
   <g id="patch_56">
    <path clip-path="url(#pa4feeca673)" d="M 405.110455 768.96 
L 407.393182 768.96 
L 407.393182 687.363698 
L 405.110455 687.363698 
z
" style="fill:#1f77b4;"/>
   </g>
   <g id="patch_57">
    <path clip-path="url(#pa4feeca673)" d="M 409.675909 768.96 
L 411.958636 768.96 
L 411.958636 682.553102 
L 409.675909 682.553102 
z
" style="fill:#1f77b4;"/>
   </g>
   <g id="patch_58">
    <path clip-path="url(#pa4feeca673)" d="M 414.241364 768.96 
L 416.524091 768.96 
L 416.524091 680.247401 
L 414.241364 680.247401 
z
" style="fill:#1f77b4;"/>
   </g>
   <g id="patch_59">
    <path clip-path="url(#pa4feeca673)" d="M 418.806818 768.96 
L 421.089545 768.96 
L 421.089545 676.779099 
L 418.806818 676.779099 
z
" style="fill:#1f77b4;"/>
   </g>
   <g id="patch_60">
    <path clip-path="url(#pa4feeca673)" d="M 423.372273 768.96 
L 425.655 768.96 
L 425.655 672.135046 
L 423.372273 672.135046 
z
" style="fill:#1f77b4;"/>
   </g>
   <g id="patch_61">
    <path clip-path="url(#pa4feeca673)" d="M 427.937727 768.96 
L 430.220455 768.96 
L 430.220455 666.840282 
L 427.937727 666.840282 
z
" style="fill:#1f77b4;"/>
   </g>
   <g id="patch_62">
    <path clip-path="url(#pa4feeca673)" d="M 432.503182 768.96 
L 434.785909 768.96 
L 434.785909 659.153813 
L 432.503182 659.153813 
z
" style="fill:#1f77b4;"/>
   </g>
   <g id="patch_63">
    <path clip-path="url(#pa4feeca673)" d="M 437.068636 768.96 
L 439.351364 768.96 
L 439.351364 651.953334 
L 437.068636 651.953334 
z
" style="fill:#1f77b4;"/>
   </g>
   <g id="patch_64">
    <path clip-path="url(#pa4feeca673)" d="M 441.634091 768.96 
L 443.916818 768.96 
L 443.916818 646.269377 
L 441.634091 646.269377 
z
" style="fill:#1f77b4;"/>
   </g>
   <g id="patch_65">
    <path clip-path="url(#pa4feeca673)" d="M 446.199545 768.96 
L 448.482273 768.96 
L 448.482273 644.501953 
L 446.199545 644.501953 
z
" style="fill:#1f77b4;"/>
   </g>
   <g id="patch_66">
    <path clip-path="url(#pa4feeca673)" d="M 450.765 768.96 
L 453.047727 768.96 
L 453.047727 639.870516 
L 450.765 639.870516 
z
" style="fill:#1f77b4;"/>
   </g>
   <g id="patch_67">
    <path clip-path="url(#pa4feeca673)" d="M 455.330455 768.96 
L 457.613182 768.96 
L 457.613182 633.896564 
L 455.330455 633.896564 
z
" style="fill:#1f77b4;"/>
   </g>
   <g id="patch_68">
    <path clip-path="url(#pa4feeca673)" d="M 459.895909 768.96 
L 462.178636 768.96 
L 462.178636 627.263193 
L 459.895909 627.263193 
z
" style="fill:#1f77b4;"/>
   </g>
   <g id="patch_69">
    <path clip-path="url(#pa4feeca673)" d="M 464.461364 768.96 
L 466.744091 768.96 
L 466.744091 620.151206 
L 464.461364 620.151206 
z
" style="fill:#1f77b4;"/>
   </g>
   <g id="patch_70">
    <path clip-path="url(#pa4feeca673)" d="M 469.026818 768.96 
L 471.309545 768.96 
L 471.309545 612.1914 
L 469.026818 612.1914 
z
" style="fill:#1f77b4;"/>
   </g>
   <g id="patch_71">
    <path clip-path="url(#pa4feeca673)" d="M 473.592273 768.96 
L 475.875 768.96 
L 475.875 607.070064 
L 473.592273 607.070064 
z
" style="fill:#1f77b4;"/>
   </g>
   <g id="patch_72">
    <path clip-path="url(#pa4feeca673)" d="M 478.157727 768.96 
L 480.440455 768.96 
L 480.440455 601.953614 
L 478.157727 601.953614 
z
" style="fill:#1f77b4;"/>
   </g>
   <g id="patch_73">
    <path clip-path="url(#pa4feeca673)" d="M 482.723182 768.96 
L 485.005909 768.96 
L 485.005909 597.454559 
L 482.723182 597.454559 
z
" style="fill:#1f77b4;"/>
   </g>
   <g id="patch_74">
    <path clip-path="url(#pa4feeca673)" d="M 487.288636 768.96 
L 489.571364 768.96 
L 489.571364 592.366273 
L 487.288636 592.366273 
z
" style="fill:#1f77b4;"/>
   </g>
   <g id="patch_75">
    <path clip-path="url(#pa4feeca673)" d="M 491.854091 768.96 
L 494.136818 768.96 
L 494.136818 587.794586 
L 491.854091 587.794586 
z
" style="fill:#1f77b4;"/>
   </g>
   <g id="patch_76">
    <path clip-path="url(#pa4feeca673)" d="M 496.419545 768.96 
L 498.702273 768.96 
L 498.702273 582.63087 
L 496.419545 582.63087 
z
" style="fill:#1f77b4;"/>
   </g>
   <g id="patch_77">
    <path clip-path="url(#pa4feeca673)" d="M 500.985 768.96 
L 503.267727 768.96 
L 503.267727 577.330241 
L 500.985 577.330241 
z
" style="fill:#1f77b4;"/>
   </g>
   <g id="patch_78">
    <path clip-path="url(#pa4feeca673)" d="M 505.550455 768.96 
L 507.833182 768.96 
L 507.833182 574.187695 
L 505.550455 574.187695 
z
" style="fill:#1f77b4;"/>
   </g>
   <g id="patch_79">
    <path clip-path="url(#pa4feeca673)" d="M 510.115909 768.96 
L 512.398636 768.96 
L 512.398636 572.443548 
L 510.115909 572.443548 
z
" style="fill:#1f77b4;"/>
   </g>
   <g id="patch_80">
    <path clip-path="url(#pa4feeca673)" d="M 514.681364 768.96 
L 516.964091 768.96 
L 516.964091 569.621249 
L 514.681364 569.621249 
z
" style="fill:#1f77b4;"/>
   </g>
   <g id="patch_81">
    <path clip-path="url(#pa4feeca673)" d="M 519.246818 768.96 
L 521.529545 768.96 
L 521.529545 566.240905 
L 519.246818 566.240905 
z
" style="fill:#1f77b4;"/>
   </g>
   <g id="patch_82">
    <path clip-path="url(#pa4feeca673)" d="M 523.812273 768.96 
L 526.095 768.96 
L 526.095 562.724493 
L 523.812273 562.724493 
z
" style="fill:#1f77b4;"/>
   </g>
   <g id="patch_83">
    <path clip-path="url(#pa4feeca673)" d="M 528.377727 768.96 
L 530.660455 768.96 
L 530.660455 558.110026 
L 528.377727 558.110026 
z
" style="fill:#1f77b4;"/>
   </g>
   <g id="patch_84">
    <path clip-path="url(#pa4feeca673)" d="M 532.943182 768.96 
L 535.225909 768.96 
L 535.225909 552.349794 
L 532.943182 552.349794 
z
" style="fill:#1f77b4;"/>
   </g>
   <g id="patch_85">
    <path clip-path="url(#pa4feeca673)" d="M 537.508636 768.96 
L 539.791364 768.96 
L 539.791364 547.416057 
L 537.508636 547.416057 
z
" style="fill:#1f77b4;"/>
   </g>
   <g id="patch_86">
    <path clip-path="url(#pa4feeca673)" d="M 542.074091 768.96 
L 544.356818 768.96 
L 544.356818 545.450727 
L 542.074091 545.450727 
z
" style="fill:#1f77b4;"/>
   </g>
   <g id="patch_87">
    <path clip-path="url(#pa4feeca673)" d="M 546.639545 768.96 
L 548.922273 768.96 
L 548.922273 542.48001 
L 546.639545 542.48001 
z
" style="fill:#1f77b4;"/>
   </g>
   <g id="patch_88">
    <path clip-path="url(#pa4feeca673)" d="M 551.205 768.96 
L 553.487727 768.96 
L 553.487727 537.068679 
L 551.205 537.068679 
z
" style="fill:#1f77b4;"/>
   </g>
   <g id="patch_89">
    <path clip-path="url(#pa4feeca673)" d="M 555.770455 768.96 
L 558.053182 768.96 
L 558.053182 532.500501 
L 555.770455 532.500501 
z
" style="fill:#1f77b4;"/>
   </g>
   <g id="patch_90">
    <path clip-path="url(#pa4feeca673)" d="M 560.335909 768.96 
L 562.618636 768.96 
L 562.618636 526.157702 
L 560.335909 526.157702 
z
" style="fill:#1f77b4;"/>
   </g>
   <g id="patch_91">
    <path clip-path="url(#pa4feeca673)" d="M 564.901364 768.96 
L 567.184091 768.96 
L 567.184091 519.726057 
L 564.901364 519.726057 
z
" style="fill:#1f77b4;"/>
   </g>
   <g id="patch_92">
    <path clip-path="url(#pa4feeca673)" d="M 569.466818 768.96 
L 571.749545 768.96 
L 571.749545 514.828792 
L 569.466818 514.828792 
z
" style="fill:#1f77b4;"/>
   </g>
   <g id="patch_93">
    <path clip-path="url(#pa4feeca673)" d="M 574.032273 768.96 
L 576.315 768.96 
L 576.315 513.4602 
L 574.032273 513.4602 
z
" style="fill:#1f77b4;"/>
   </g>
   <g id="patch_94">
    <path clip-path="url(#pa4feeca673)" d="M 578.597727 768.96 
L 580.880455 768.96 
L 580.880455 508.850975 
L 578.597727 508.850975 
z
" style="fill:#1f77b4;"/>
   </g>
   <g id="patch_95">
    <path clip-path="url(#pa4feeca673)" d="M 583.163182 768.96 
L 585.445909 768.96 
L 585.445909 501.674574 
L 583.163182 501.674574 
z
" style="fill:#1f77b4;"/>
   </g>
   <g id="patch_96">
    <path clip-path="url(#pa4feeca673)" d="M 587.728636 768.96 
L 590.011364 768.96 
L 590.011364 493.667679 
L 587.728636 493.667679 
z
" style="fill:#1f77b4;"/>
   </g>
   <g id="patch_97">
    <path clip-path="url(#pa4feeca673)" d="M 592.294091 768.96 
L 594.576818 768.96 
L 594.576818 484.280332 
L 592.294091 484.280332 
z
" style="fill:#1f77b4;"/>
   </g>
   <g id="patch_98">
    <path clip-path="url(#pa4feeca673)" d="M 596.859545 768.96 
L 599.142273 768.96 
L 599.142273 473.183756 
L 596.859545 473.183756 
z
" style="fill:#1f77b4;"/>
   </g>
   <g id="patch_99">
    <path clip-path="url(#pa4feeca673)" d="M 601.425 768.96 
L 603.707727 768.96 
L 603.707727 465.828018 
L 601.425 465.828018 
z
" style="fill:#1f77b4;"/>
   </g>
   <g id="patch_100">
    <path clip-path="url(#pa4feeca673)" d="M 605.990455 768.96 
L 608.273182 768.96 
L 608.273182 462.182289 
L 605.990455 462.182289 
z
" style="fill:#1f77b4;"/>
   </g>
   <g id="patch_101">
    <path clip-path="url(#pa4feeca673)" d="M 610.555909 768.96 
L 612.838636 768.96 
L 612.838636 456.03051 
L 610.555909 456.03051 
z
" style="fill:#1f77b4;"/>
   </g>
   <g id="patch_102">
    <path clip-path="url(#pa4feeca673)" d="M 615.121364 768.96 
L 617.404091 768.96 
L 617.404091 448.437019 
L 615.121364 448.437019 
z
" style="fill:#1f77b4;"/>
   </g>
   <g id="patch_103">
    <path clip-path="url(#pa4feeca673)" d="M 619.686818 768.96 
L 621.969545 768.96 
L 621.969545 441.917771 
L 619.686818 441.917771 
z
" style="fill:#1f77b4;"/>
   </g>
   <g id="patch_104">
    <path clip-path="url(#pa4feeca673)" d="M 624.252273 768.96 
L 626.535 768.96 
L 626.535 433.107438 
L 624.252273 433.107438 
z
" style="fill:#1f77b4;"/>
   </g>
   <g id="patch_105">
    <path clip-path="url(#pa4feeca673)" d="M 628.817727 768.96 
L 631.100455 768.96 
L 631.100455 424.529039 
L 628.817727 424.529039 
z
" style="fill:#1f77b4;"/>
   </g>
   <g id="patch_106">
    <path clip-path="url(#pa4feeca673)" d="M 633.383182 768.96 
L 635.665909 768.96 
L 635.665909 418.567036 
L 633.383182 418.567036 
z
" style="fill:#1f77b4;"/>
   </g>
   <g id="patch_107">
    <path clip-path="url(#pa4feeca673)" d="M 637.948636 768.96 
L 640.231364 768.96 
L 640.231364 415.120901 
L 637.948636 415.120901 
z
" style="fill:#1f77b4;"/>
   </g>
   <g id="patch_108">
    <path clip-path="url(#pa4feeca673)" d="M 642.514091 768.96 
L 644.796818 768.96 
L 644.796818 410.188142 
L 642.514091 410.188142 
z
" style="fill:#1f77b4;"/>
   </g>
   <g id="patch_109">
    <path clip-path="url(#pa4feeca673)" d="M 647.079545 768.96 
L 649.362273 768.96 
L 649.362273 402.292839 
L 647.079545 402.292839 
z
" style="fill:#1f77b4;"/>
   </g>
   <g id="patch_110">
    <path clip-path="url(#pa4feeca673)" d="M 651.645 768.96 
L 653.927727 768.96 
L 653.927727 395.249352 
L 651.645 395.249352 
z
" style="fill:#1f77b4;"/>
   </g>
   <g id="patch_111">
    <path clip-path="url(#pa4feeca673)" d="M 656.210455 768.96 
L 658.493182 768.96 
L 658.493182 387.79113 
L 656.210455 387.79113 
z
" style="fill:#1f77b4;"/>
   </g>
   <g id="patch_112">
    <path clip-path="url(#pa4feeca673)" d="M 660.775909 768.96 
L 663.058636 768.96 
L 663.058636 380.90388 
L 660.775909 380.90388 
z
" style="fill:#1f77b4;"/>
   </g>
   <g id="patch_113">
    <path clip-path="url(#pa4feeca673)" d="M 665.341364 768.96 
L 667.624091 768.96 
L 667.624091 376.322864 
L 665.341364 376.322864 
z
" style="fill:#1f77b4;"/>
   </g>
   <g id="patch_114">
    <path clip-path="url(#pa4feeca673)" d="M 669.906818 768.96 
L 672.189545 768.96 
L 672.189545 374.349005 
L 669.906818 374.349005 
z
" style="fill:#1f77b4;"/>
   </g>
   <g id="patch_115">
    <path clip-path="url(#pa4feeca673)" d="M 674.472273 768.96 
L 676.755 768.96 
L 676.755 370.114134 
L 674.472273 370.114134 
z
" style="fill:#1f77b4;"/>
   </g>
   <g id="patch_116">
    <path clip-path="url(#pa4feeca673)" d="M 679.037727 768.96 
L 681.320455 768.96 
L 681.320455 364.126855 
L 679.037727 364.126855 
z
" style="fill:#1f77b4;"/>
   </g>
   <g id="patch_117">
    <path clip-path="url(#pa4feeca673)" d="M 683.603182 768.96 
L 685.885909 768.96 
L 685.885909 357.841185 
L 683.603182 357.841185 
z
" style="fill:#1f77b4;"/>
   </g>
   <g id="patch_118">
    <path clip-path="url(#pa4feeca673)" d="M 688.168636 768.96 
L 690.451364 768.96 
L 690.451364 351.725523 
L 688.168636 351.725523 
z
" style="fill:#1f77b4;"/>
   </g>
   <g id="patch_119">
    <path clip-path="url(#pa4feeca673)" d="M 692.734091 768.96 
L 695.016818 768.96 
L 695.016818 346.577221 
L 692.734091 346.577221 
z
" style="fill:#1f77b4;"/>
   </g>
   <g id="patch_120">
    <path clip-path="url(#pa4feeca673)" d="M 697.299545 768.96 
L 699.582273 768.96 
L 699.582273 344.267034 
L 697.299545 344.267034 
z
" style="fill:#1f77b4;"/>
   </g>
   <g id="patch_121">
    <path clip-path="url(#pa4feeca673)" d="M 701.865 768.96 
L 704.147727 768.96 
L 704.147727 343.46857 
L 701.865 343.46857 
z
" style="fill:#1f77b4;"/>
   </g>
   <g id="patch_122">
    <path clip-path="url(#pa4feeca673)" d="M 706.430455 768.96 
L 708.713182 768.96 
L 708.713182 340.99255 
L 706.430455 340.99255 
z
" style="fill:#1f77b4;"/>
   </g>
   <g id="patch_123">
    <path clip-path="url(#pa4feeca673)" d="M 710.995909 768.96 
L 713.278636 768.96 
L 713.278636 334.438164 
L 710.995909 334.438164 
z
" style="fill:#1f77b4;"/>
   </g>
   <g id="patch_124">
    <path clip-path="url(#pa4feeca673)" d="M 715.561364 768.96 
L 717.844091 768.96 
L 717.844091 328.084482 
L 715.561364 328.084482 
z
" style="fill:#1f77b4;"/>
   </g>
   <g id="patch_125">
    <path clip-path="url(#pa4feeca673)" d="M 720.126818 768.96 
L 722.409545 768.96 
L 722.409545 323.283926 
L 720.126818 323.283926 
z
" style="fill:#1f77b4;"/>
   </g>
   <g id="patch_126">
    <path clip-path="url(#pa4feeca673)" d="M 724.692273 768.96 
L 726.975 768.96 
L 726.975 316.258697 
L 724.692273 316.258697 
z
" style="fill:#1f77b4;"/>
   </g>
   <g id="patch_127">
    <path clip-path="url(#pa4feeca673)" d="M 729.257727 768.96 
L 731.540455 768.96 
L 731.540455 311.528285 
L 729.257727 311.528285 
z
" style="fill:#1f77b4;"/>
   </g>
   <g id="patch_128">
    <path clip-path="url(#pa4feeca673)" d="M 733.823182 768.96 
L 736.105909 768.96 
L 736.105909 307.317137 
L 733.823182 307.317137 
z
" style="fill:#1f77b4;"/>
   </g>
   <g id="patch_129">
    <path clip-path="url(#pa4feeca673)" d="M 738.388636 768.96 
L 740.671364 768.96 
L 740.671364 303.678338 
L 738.388636 303.678338 
z
" style="fill:#1f77b4;"/>
   </g>
   <g id="patch_130">
    <path clip-path="url(#pa4feeca673)" d="M 742.954091 768.96 
L 745.236818 768.96 
L 745.236818 298.782583 
L 742.954091 298.782583 
z
" style="fill:#1f77b4;"/>
   </g>
   <g id="patch_131">
    <path clip-path="url(#pa4feeca673)" d="M 747.519545 768.96 
L 749.802273 768.96 
L 749.802273 294.342567 
L 747.519545 294.342567 
z
" style="fill:#1f77b4;"/>
   </g>
   <g id="patch_132">
    <path clip-path="url(#pa4feeca673)" d="M 752.085 768.96 
L 754.367727 768.96 
L 754.367727 289.773278 
L 752.085 289.773278 
z
" style="fill:#1f77b4;"/>
   </g>
   <g id="patch_133">
    <path clip-path="url(#pa4feeca673)" d="M 756.650455 768.96 
L 758.933182 768.96 
L 758.933182 283.130534 
L 756.650455 283.130534 
z
" style="fill:#1f77b4;"/>
   </g>
   <g id="patch_134">
    <path clip-path="url(#pa4feeca673)" d="M 761.215909 768.96 
L 763.498636 768.96 
L 763.498636 279.486449 
L 761.215909 279.486449 
z
" style="fill:#1f77b4;"/>
   </g>
   <g id="patch_135">
    <path clip-path="url(#pa4feeca673)" d="M 765.781364 768.96 
L 768.064091 768.96 
L 768.064091 277.987741 
L 765.781364 277.987741 
z
" style="fill:#1f77b4;"/>
   </g>
   <g id="patch_136">
    <path clip-path="url(#pa4feeca673)" d="M 770.346818 768.96 
L 772.629545 768.96 
L 772.629545 275.424696 
L 770.346818 275.424696 
z
" style="fill:#1f77b4;"/>
   </g>
   <g id="patch_137">
    <path clip-path="url(#pa4feeca673)" d="M 774.912273 768.96 
L 777.195 768.96 
L 777.195 270.674427 
L 774.912273 270.674427 
z
" style="fill:#1f77b4;"/>
   </g>
   <g id="patch_138">
    <path clip-path="url(#pa4feeca673)" d="M 779.477727 768.96 
L 781.760455 768.96 
L 781.760455 266.430984 
L 779.477727 266.430984 
z
" style="fill:#1f77b4;"/>
   </g>
   <g id="patch_139">
    <path clip-path="url(#pa4feeca673)" d="M 784.043182 768.96 
L 786.325909 768.96 
L 786.325909 260.418783 
L 784.043182 260.418783 
z
" style="fill:#1f77b4;"/>
   </g>
   <g id="patch_140">
    <path clip-path="url(#pa4feeca673)" d="M 788.608636 768.96 
L 790.891364 768.96 
L 790.891364 256.475774 
L 788.608636 256.475774 
z
" style="fill:#1f77b4;"/>
   </g>
   <g id="patch_141">
    <path clip-path="url(#pa4feeca673)" d="M 793.174091 768.96 
L 795.456818 768.96 
L 795.456818 253.385469 
L 793.174091 253.385469 
z
" style="fill:#1f77b4;"/>
   </g>
   <g id="patch_142">
    <path clip-path="url(#pa4feeca673)" d="M 797.739545 768.96 
L 800.022273 768.96 
L 800.022273 251.959927 
L 797.739545 251.959927 
z
" style="fill:#1f77b4;"/>
   </g>
   <g id="patch_143">
    <path clip-path="url(#pa4feeca673)" d="M 802.305 768.96 
L 804.587727 768.96 
L 804.587727 249.601229 
L 802.305 249.601229 
z
" style="fill:#1f77b4;"/>
   </g>
   <g id="patch_144">
    <path clip-path="url(#pa4feeca673)" d="M 806.870455 768.96 
L 809.153182 768.96 
L 809.153182 246.681776 
L 806.870455 246.681776 
z
" style="fill:#1f77b4;"/>
   </g>
   <g id="patch_145">
    <path clip-path="url(#pa4feeca673)" d="M 811.435909 768.96 
L 813.718636 768.96 
L 813.718636 243.718478 
L 811.435909 243.718478 
z
" style="fill:#1f77b4;"/>
   </g>
   <g id="patch_146">
    <path clip-path="url(#pa4feeca673)" d="M 816.001364 768.96 
L 818.284091 768.96 
L 818.284091 240.62182 
L 816.001364 240.62182 
z
" style="fill:#1f77b4;"/>
   </g>
   <g id="patch_147">
    <path clip-path="url(#pa4feeca673)" d="M 820.566818 768.96 
L 822.849545 768.96 
L 822.849545 237.795124 
L 820.566818 237.795124 
z
" style="fill:#1f77b4;"/>
   </g>
   <g id="patch_148">
    <path clip-path="url(#pa4feeca673)" d="M 825.132273 768.96 
L 827.415 768.96 
L 827.415 235.864577 
L 825.132273 235.864577 
z
" style="fill:#1f77b4;"/>
   </g>
   <g id="patch_149">
    <path clip-path="url(#pa4feeca673)" d="M 829.697727 768.96 
L 831.980455 768.96 
L 831.980455 234.791622 
L 829.697727 234.791622 
z
" style="fill:#1f77b4;"/>
   </g>
   <g id="patch_150">
    <path clip-path="url(#pa4feeca673)" d="M 834.263182 768.96 
L 836.545909 768.96 
L 836.545909 233.996712 
L 834.263182 233.996712 
z
" style="fill:#1f77b4;"/>
   </g>
   <g id="patch_151">
    <path clip-path="url(#pa4feeca673)" d="M 838.828636 768.96 
L 841.111364 768.96 
L 841.111364 232.29459 
L 838.828636 232.29459 
z
" style="fill:#1f77b4;"/>
   </g>
   <g id="patch_152">
    <path clip-path="url(#pa4feeca673)" d="M 843.394091 768.96 
L 845.676818 768.96 
L 845.676818 230.495048 
L 843.394091 230.495048 
z
" style="fill:#1f77b4;"/>
   </g>
   <g id="patch_153">
    <path clip-path="url(#pa4feeca673)" d="M 847.959545 768.96 
L 850.242273 768.96 
L 850.242273 227.716595 
L 847.959545 227.716595 
z
" style="fill:#1f77b4;"/>
   </g>
   <g id="patch_154">
    <path clip-path="url(#pa4feeca673)" d="M 852.525 768.96 
L 854.807727 768.96 
L 854.807727 224.904913 
L 852.525 224.904913 
z
" style="fill:#1f77b4;"/>
   </g>
   <g id="patch_155">
    <path clip-path="url(#pa4feeca673)" d="M 857.090455 768.96 
L 859.373182 768.96 
L 859.373182 222.521338 
L 857.090455 222.521338 
z
" style="fill:#1f77b4;"/>
   </g>
   <g id="patch_156">
    <path clip-path="url(#pa4feeca673)" d="M 861.655909 768.96 
L 863.938636 768.96 
L 863.938636 220.886962 
L 861.655909 220.886962 
z
" style="fill:#1f77b4;"/>
   </g>
   <g id="patch_157">
    <path clip-path="url(#pa4feeca673)" d="M 866.221364 768.96 
L 868.504091 768.96 
L 868.504091 218.668775 
L 866.221364 218.668775 
z
" style="fill:#1f77b4;"/>
   </g>
   <g id="patch_158">
    <path clip-path="url(#pa4feeca673)" d="M 870.786818 768.96 
L 873.069545 768.96 
L 873.069545 216.090226 
L 870.786818 216.090226 
z
" style="fill:#1f77b4;"/>
   </g>
   <g id="patch_159">
    <path clip-path="url(#pa4feeca673)" d="M 875.352273 768.96 
L 877.635 768.96 
L 877.635 212.873004 
L 875.352273 212.873004 
z
" style="fill:#1f77b4;"/>
   </g>
   <g id="patch_160">
    <path clip-path="url(#pa4feeca673)" d="M 879.917727 768.96 
L 882.200455 768.96 
L 882.200455 210.690667 
L 879.917727 210.690667 
z
" style="fill:#1f77b4;"/>
   </g>
   <g id="patch_161">
    <path clip-path="url(#pa4feeca673)" d="M 884.483182 768.96 
L 886.765909 768.96 
L 886.765909 208.634669 
L 884.483182 208.634669 
z
" style="fill:#1f77b4;"/>
   </g>
   <g id="patch_162">
    <path clip-path="url(#pa4feeca673)" d="M 889.048636 768.96 
L 891.331364 768.96 
L 891.331364 207.419204 
L 889.048636 207.419204 
z
" style="fill:#1f77b4;"/>
   </g>
   <g id="patch_163">
    <path clip-path="url(#pa4feeca673)" d="M 893.614091 768.96 
L 895.896818 768.96 
L 895.896818 206.222086 
L 893.614091 206.222086 
z
" style="fill:#1f77b4;"/>
   </g>
   <g id="patch_164">
    <path clip-path="url(#pa4feeca673)" d="M 898.179545 768.96 
L 900.462273 768.96 
L 900.462273 202.623135 
L 898.179545 202.623135 
z
" style="fill:#1f77b4;"/>
   </g>
   <g id="patch_165">
    <path clip-path="url(#pa4feeca673)" d="M 902.745 768.96 
L 905.027727 768.96 
L 905.027727 199.796882 
L 902.745 199.796882 
z
" style="fill:#1f77b4;"/>
   </g>
   <g id="patch_166">
    <path clip-path="url(#pa4feeca673)" d="M 907.310455 768.96 
L 909.593182 768.96 
L 909.593182 197.845279 
L 907.310455 197.845279 
z
" style="fill:#1f77b4;"/>
   </g>
   <g id="patch_167">
    <path clip-path="url(#pa4feeca673)" d="M 911.875909 768.96 
L 914.158636 768.96 
L 914.158636 195.252604 
L 911.875909 195.252604 
z
" style="fill:#1f77b4;"/>
   </g>
   <g id="patch_168">
    <path clip-path="url(#pa4feeca673)" d="M 916.441364 768.96 
L 918.724091 768.96 
L 918.724091 194.033852 
L 916.441364 194.033852 
z
" style="fill:#1f77b4;"/>
   </g>
   <g id="patch_169">
    <path clip-path="url(#pa4feeca673)" d="M 921.006818 768.96 
L 923.289545 768.96 
L 923.289545 192.104905 
L 921.006818 192.104905 
z
" style="fill:#1f77b4;"/>
   </g>
   <g id="patch_170">
    <path clip-path="url(#pa4feeca673)" d="M 925.572273 768.96 
L 927.855 768.96 
L 927.855 191.28956 
L 925.572273 191.28956 
z
" style="fill:#1f77b4;"/>
   </g>
   <g id="patch_171">
    <path clip-path="url(#pa4feeca673)" d="M 930.137727 768.96 
L 932.420455 768.96 
L 932.420455 190.240904 
L 930.137727 190.240904 
z
" style="fill:#1f77b4;"/>
   </g>
   <g id="patch_172">
    <path clip-path="url(#pa4feeca673)" d="M 934.703182 768.96 
L 936.985909 768.96 
L 936.985909 188.967422 
L 934.703182 188.967422 
z
" style="fill:#1f77b4;"/>
   </g>
   <g id="patch_173">
    <path clip-path="url(#pa4feeca673)" d="M 939.268636 768.96 
L 941.551364 768.96 
L 941.551364 187.462629 
L 939.268636 187.462629 
z
" style="fill:#1f77b4;"/>
   </g>
   <g id="patch_174">
    <path clip-path="url(#pa4feeca673)" d="M 943.834091 768.96 
L 946.116818 768.96 
L 946.116818 185.603115 
L 943.834091 185.603115 
z
" style="fill:#1f77b4;"/>
   </g>
   <g id="patch_175">
    <path clip-path="url(#pa4feeca673)" d="M 948.399545 768.96 
L 950.682273 768.96 
L 950.682273 181.144352 
L 948.399545 181.144352 
z
" style="fill:#1f77b4;"/>
   </g>
   <g id="patch_176">
    <path clip-path="url(#pa4feeca673)" d="M 952.965 768.96 
L 955.247727 768.96 
L 955.247727 176.012887 
L 952.965 176.012887 
z
" style="fill:#1f77b4;"/>
   </g>
   <g id="patch_177">
    <path clip-path="url(#pa4feeca673)" d="M 957.530455 768.96 
L 959.813182 768.96 
L 959.813182 175.607258 
L 957.530455 175.607258 
z
" style="fill:#1f77b4;"/>
   </g>
   <g id="patch_178">
    <path clip-path="url(#pa4feeca673)" d="M 962.095909 768.96 
L 964.378636 768.96 
L 964.378636 174.563045 
L 962.095909 174.563045 
z
" style="fill:#1f77b4;"/>
   </g>
   <g id="patch_179">
    <path clip-path="url(#pa4feeca673)" d="M 966.661364 768.96 
L 968.944091 768.96 
L 968.944091 173.266685 
L 966.661364 173.266685 
z
" style="fill:#1f77b4;"/>
   </g>
   <g id="patch_180">
    <path clip-path="url(#pa4feeca673)" d="M 971.226818 768.96 
L 973.509545 768.96 
L 973.509545 172.013149 
L 971.226818 172.013149 
z
" style="fill:#1f77b4;"/>
   </g>
   <g id="patch_181">
    <path clip-path="url(#pa4feeca673)" d="M 975.792273 768.96 
L 978.075 768.96 
L 978.075 170.876713 
L 975.792273 170.876713 
z
" style="fill:#1f77b4;"/>
   </g>
   <g id="patch_182">
    <path clip-path="url(#pa4feeca673)" d="M 980.357727 768.96 
L 982.640455 768.96 
L 982.640455 169.740188 
L 980.357727 169.740188 
z
" style="fill:#1f77b4;"/>
   </g>
   <g id="patch_183">
    <path clip-path="url(#pa4feeca673)" d="M 984.923182 768.96 
L 987.205909 768.96 
L 987.205909 168.906319 
L 984.923182 168.906319 
z
" style="fill:#1f77b4;"/>
   </g>
   <g id="patch_184">
    <path clip-path="url(#pa4feeca673)" d="M 989.488636 768.96 
L 991.771364 768.96 
L 991.771364 168.496603 
L 989.488636 168.496603 
z
" style="fill:#1f77b4;"/>
   </g>
   <g id="patch_185">
    <path clip-path="url(#pa4feeca673)" d="M 994.054091 768.96 
L 996.336818 768.96 
L 996.336818 168.422994 
L 994.054091 168.422994 
z
" style="fill:#1f77b4;"/>
   </g>
   <g id="patch_186">
    <path clip-path="url(#pa4feeca673)" d="M 998.619545 768.96 
L 1000.902273 768.96 
L 1000.902273 167.769839 
L 998.619545 167.769839 
z
" style="fill:#1f77b4;"/>
   </g>
   <g id="patch_187">
    <path clip-path="url(#pa4feeca673)" d="M 1003.185 768.96 
L 1005.467727 768.96 
L 1005.467727 166.595954 
L 1003.185 166.595954 
z
" style="fill:#1f77b4;"/>
   </g>
   <g id="patch_188">
    <path clip-path="url(#pa4feeca673)" d="M 1007.750455 768.96 
L 1010.033182 768.96 
L 1010.033182 165.414473 
L 1007.750455 165.414473 
z
" style="fill:#1f77b4;"/>
   </g>
   <g id="patch_189">
    <path clip-path="url(#pa4feeca673)" d="M 1012.315909 768.96 
L 1014.598636 768.96 
L 1014.598636 164.366128 
L 1012.315909 164.366128 
z
" style="fill:#1f77b4;"/>
   </g>
   <g id="patch_190">
    <path clip-path="url(#pa4feeca673)" d="M 1016.881364 768.96 
L 1019.164091 768.96 
L 1019.164091 163.501784 
L 1016.881364 163.501784 
z
" style="fill:#1f77b4;"/>
   </g>
   <g id="patch_191">
    <path clip-path="url(#pa4feeca673)" d="M 1021.446818 768.96 
L 1023.729545 768.96 
L 1023.729545 162.915175 
L 1021.446818 162.915175 
z
" style="fill:#1f77b4;"/>
   </g>
   <g id="patch_192">
    <path clip-path="url(#pa4feeca673)" d="M 1026.012273 768.96 
L 1028.295 768.96 
L 1028.295 161.810324 
L 1026.012273 161.810324 
z
" style="fill:#1f77b4;"/>
   </g>
   <g id="patch_193">
    <path clip-path="url(#pa4feeca673)" d="M 1030.577727 768.96 
L 1032.860455 768.96 
L 1032.860455 160.8821 
L 1030.577727 160.8821 
z
" style="fill:#1f77b4;"/>
   </g>
   <g id="patch_194">
    <path clip-path="url(#pa4feeca673)" d="M 1035.143182 768.96 
L 1037.425909 768.96 
L 1037.425909 159.999987 
L 1035.143182 159.999987 
z
" style="fill:#1f77b4;"/>
   </g>
   <g id="patch_195">
    <path clip-path="url(#pa4feeca673)" d="M 1039.708636 768.96 
L 1041.991364 768.96 
L 1041.991364 159.128847 
L 1039.708636 159.128847 
z
" style="fill:#1f77b4;"/>
   </g>
   <g id="patch_196">
    <path clip-path="url(#pa4feeca673)" d="M 1044.274091 768.96 
L 1046.556818 768.96 
L 1046.556818 158.247089 
L 1044.274091 158.247089 
z
" style="fill:#1f77b4;"/>
   </g>
   <g id="patch_197">
    <path clip-path="url(#pa4feeca673)" d="M 1048.839545 768.96 
L 1051.122273 768.96 
L 1051.122273 157.520725 
L 1048.839545 157.520725 
z
" style="fill:#1f77b4;"/>
   </g>
   <g id="patch_198">
    <path clip-path="url(#pa4feeca673)" d="M 1053.405 768.96 
L 1055.687727 768.96 
L 1055.687727 157.02505 
L 1053.405 157.02505 
z
" style="fill:#1f77b4;"/>
   </g>
   <g id="patch_199">
    <path clip-path="url(#pa4feeca673)" d="M 1057.970455 768.96 
L 1060.253182 768.96 
L 1060.253182 156.280338 
L 1057.970455 156.280338 
z
" style="fill:#1f77b4;"/>
   </g>
   <g id="patch_200">
    <path clip-path="url(#pa4feeca673)" d="M 1062.535909 768.96 
L 1064.818636 768.96 
L 1064.818636 155.280948 
L 1062.535909 155.280948 
z
" style="fill:#1f77b4;"/>
   </g>
   <g id="patch_201">
    <path clip-path="url(#pa4feeca673)" d="M 1067.101364 768.96 
L 1069.384091 768.96 
L 1069.384091 154.348415 
L 1067.101364 154.348415 
z
" style="fill:#1f77b4;"/>
   </g>
   <g id="patch_202">
    <path clip-path="url(#pa4feeca673)" d="M 1071.666818 768.96 
L 1073.949545 768.96 
L 1073.949545 153.667228 
L 1071.666818 153.667228 
z
" style="fill:#1f77b4;"/>
   </g>
   <g id="patch_203">
    <path clip-path="url(#pa4feeca673)" d="M 1076.232273 768.96 
L 1078.515 768.96 
L 1078.515 152.961565 
L 1076.232273 152.961565 
z
" style="fill:#1f77b4;"/>
   </g>
   <g id="patch_204">
    <path clip-path="url(#pa4feeca673)" d="M 1080.797727 768.96 
L 1083.080455 768.96 
L 1083.080455 152.530348 
L 1080.797727 152.530348 
z
" style="fill:#1f77b4;"/>
   </g>
   <g id="patch_205">
    <path clip-path="url(#pa4feeca673)" d="M 1085.363182 768.96 
L 1087.645909 768.96 
L 1087.645909 152.281578 
L 1085.363182 152.281578 
z
" style="fill:#1f77b4;"/>
   </g>
   <g id="patch_206">
    <path clip-path="url(#pa4feeca673)" d="M 1089.928636 768.96 
L 1092.211364 768.96 
L 1092.211364 151.859646 
L 1089.928636 151.859646 
z
" style="fill:#1f77b4;"/>
   </g>
   <g id="patch_207">
    <path clip-path="url(#pa4feeca673)" d="M 1094.494091 768.96 
L 1096.776818 768.96 
L 1096.776818 150.917028 
L 1094.494091 150.917028 
z
" style="fill:#1f77b4;"/>
   </g>
   <g id="patch_208">
    <path clip-path="url(#pa4feeca673)" d="M 1099.059545 768.96 
L 1101.342273 768.96 
L 1101.342273 149.343512 
L 1099.059545 149.343512 
z
" style="fill:#1f77b4;"/>
   </g>
   <g id="patch_209">
    <path clip-path="url(#pa4feeca673)" d="M 1103.625 768.96 
L 1105.907727 768.96 
L 1105.907727 148.506488 
L 1103.625 148.506488 
z
" style="fill:#1f77b4;"/>
   </g>
   <g id="patch_210">
    <path clip-path="url(#pa4feeca673)" d="M 1108.190455 768.96 
L 1110.473182 768.96 
L 1110.473182 146.427657 
L 1108.190455 146.427657 
z
" style="fill:#1f77b4;"/>
   </g>
   <g id="patch_211">
    <path clip-path="url(#pa4feeca673)" d="M 1112.755909 768.96 
L 1115.038636 768.96 
L 1115.038636 145.78121 
L 1112.755909 145.78121 
z
" style="fill:#1f77b4;"/>
   </g>
   <g id="patch_212">
    <path clip-path="url(#pa4feeca673)" d="M 1117.321364 768.96 
L 1119.604091 768.96 
L 1119.604091 145.309124 
L 1117.321364 145.309124 
z
" style="fill:#1f77b4;"/>
   </g>
   <g id="patch_213">
    <path clip-path="url(#pa4feeca673)" d="M 1121.886818 768.96 
L 1124.169545 768.96 
L 1124.169545 144.666053 
L 1121.886818 144.666053 
z
" style="fill:#1f77b4;"/>
   </g>
   <g id="patch_214">
    <path clip-path="url(#pa4feeca673)" d="M 1126.452273 768.96 
L 1128.735 768.96 
L 1128.735 143.794601 
L 1126.452273 143.794601 
z
" style="fill:#1f77b4;"/>
   </g>
   <g id="patch_215">
    <path clip-path="url(#pa4feeca673)" d="M 1131.017727 768.96 
L 1133.300455 768.96 
L 1133.300455 142.995604 
L 1131.017727 142.995604 
z
" style="fill:#1f77b4;"/>
   </g>
   <g id="patch_216">
    <path clip-path="url(#pa4feeca673)" d="M 1135.583182 768.96 
L 1137.865909 768.96 
L 1137.865909 142.15294 
L 1135.583182 142.15294 
z
" style="fill:#1f77b4;"/>
   </g>
   <g id="patch_217">
    <path clip-path="url(#pa4feeca673)" d="M 1140.148636 768.96 
L 1142.431364 768.96 
L 1142.431364 141.233156 
L 1140.148636 141.233156 
z
" style="fill:#1f77b4;"/>
   </g>
   <g id="patch_218">
    <path clip-path="url(#pa4feeca673)" d="M 1144.714091 768.96 
L 1146.996818 768.96 
L 1146.996818 139.577856 
L 1144.714091 139.577856 
z
" style="fill:#1f77b4;"/>
   </g>
   <g id="patch_219">
    <path clip-path="url(#pa4feeca673)" d="M 1149.279545 768.96 
L 1151.562273 768.96 
L 1151.562273 139.045132 
L 1149.279545 139.045132 
z
" style="fill:#1f77b4;"/>
   </g>
   <g id="patch_220">
    <path clip-path="url(#pa4feeca673)" d="M 1153.845 768.96 
L 1156.127727 768.96 
L 1156.127727 138.425739 
L 1153.845 138.425739 
z
" style="fill:#1f77b4;"/>
   </g>
   <g id="patch_221">
    <path clip-path="url(#pa4feeca673)" d="M 1158.410455 768.96 
L 1160.693182 768.96 
L 1160.693182 137.822071 
L 1158.410455 137.822071 
z
" style="fill:#1f77b4;"/>
   </g>
   <g id="patch_222">
    <path clip-path="url(#pa4feeca673)" d="M 1162.975909 768.96 
L 1165.258636 768.96 
L 1165.258636 135.36 
L 1162.975909 135.36 
z
" style="fill:#1f77b4;"/>
   </g>
   <g id="matplotlib.axis_1">
    <g id="xtick_1">
     <g id="line2d_1">
      <defs>
       <path d="M 0 0 
L 0 3.5 
" id="mbe7b1c2bc5" style="stroke:#000000;stroke-width:0.8;"/>
      </defs>
      <g>
       <use style="stroke:#000000;stroke-width:0.8;" x="164.282727" xlink:href="#mbe7b1c2bc5" y="768.96"/>
      </g>
     </g>
     <g id="text_1">
      <!-- January -->
      <g transform="translate(145.327259 783.558437)scale(0.1 -0.1)">
       <defs>
        <path d="M 628 4666 
L 1259 4666 
L 1259 325 
Q 1259 -519 939 -900 
Q 619 -1281 -91 -1281 
L -331 -1281 
L -331 -750 
L -134 -750 
Q 284 -750 456 -515 
Q 628 -281 628 325 
L 628 4666 
z
" id="DejaVuSans-4a" transform="scale(0.015625)"/>
        <path d="M 2194 1759 
Q 1497 1759 1228 1600 
Q 959 1441 959 1056 
Q 959 750 1161 570 
Q 1363 391 1709 391 
Q 2188 391 2477 730 
Q 2766 1069 2766 1631 
L 2766 1759 
L 2194 1759 
z
M 3341 1997 
L 3341 0 
L 2766 0 
L 2766 531 
Q 2569 213 2275 61 
Q 1981 -91 1556 -91 
Q 1019 -91 701 211 
Q 384 513 384 1019 
Q 384 1609 779 1909 
Q 1175 2209 1959 2209 
L 2766 2209 
L 2766 2266 
Q 2766 2663 2505 2880 
Q 2244 3097 1772 3097 
Q 1472 3097 1187 3025 
Q 903 2953 641 2809 
L 641 3341 
Q 956 3463 1253 3523 
Q 1550 3584 1831 3584 
Q 2591 3584 2966 3190 
Q 3341 2797 3341 1997 
z
" id="DejaVuSans-61" transform="scale(0.015625)"/>
        <path d="M 3513 2113 
L 3513 0 
L 2938 0 
L 2938 2094 
Q 2938 2591 2744 2837 
Q 2550 3084 2163 3084 
Q 1697 3084 1428 2787 
Q 1159 2491 1159 1978 
L 1159 0 
L 581 0 
L 581 3500 
L 1159 3500 
L 1159 2956 
Q 1366 3272 1645 3428 
Q 1925 3584 2291 3584 
Q 2894 3584 3203 3211 
Q 3513 2838 3513 2113 
z
" id="DejaVuSans-6e" transform="scale(0.015625)"/>
        <path d="M 544 1381 
L 544 3500 
L 1119 3500 
L 1119 1403 
Q 1119 906 1312 657 
Q 1506 409 1894 409 
Q 2359 409 2629 706 
Q 2900 1003 2900 1516 
L 2900 3500 
L 3475 3500 
L 3475 0 
L 2900 0 
L 2900 538 
Q 2691 219 2414 64 
Q 2138 -91 1772 -91 
Q 1169 -91 856 284 
Q 544 659 544 1381 
z
M 1991 3584 
L 1991 3584 
z
" id="DejaVuSans-75" transform="scale(0.015625)"/>
        <path d="M 2631 2963 
Q 2534 3019 2420 3045 
Q 2306 3072 2169 3072 
Q 1681 3072 1420 2755 
Q 1159 2438 1159 1844 
L 1159 0 
L 581 0 
L 581 3500 
L 1159 3500 
L 1159 2956 
Q 1341 3275 1631 3429 
Q 1922 3584 2338 3584 
Q 2397 3584 2469 3576 
Q 2541 3569 2628 3553 
L 2631 2963 
z
" id="DejaVuSans-72" transform="scale(0.015625)"/>
        <path d="M 2059 -325 
Q 1816 -950 1584 -1140 
Q 1353 -1331 966 -1331 
L 506 -1331 
L 506 -850 
L 844 -850 
Q 1081 -850 1212 -737 
Q 1344 -625 1503 -206 
L 1606 56 
L 191 3500 
L 800 3500 
L 1894 763 
L 2988 3500 
L 3597 3500 
L 2059 -325 
z
" id="DejaVuSans-79" transform="scale(0.015625)"/>
       </defs>
       <use xlink:href="#DejaVuSans-4a"/>
       <use x="29.492188" xlink:href="#DejaVuSans-61"/>
       <use x="90.771484" xlink:href="#DejaVuSans-6e"/>
       <use x="154.150391" xlink:href="#DejaVuSans-75"/>
       <use x="217.529297" xlink:href="#DejaVuSans-61"/>
       <use x="278.808594" xlink:href="#DejaVuSans-72"/>
       <use x="319.921875" xlink:href="#DejaVuSans-79"/>
      </g>
     </g>
    </g>
    <g id="xtick_2">
     <g id="line2d_2">
      <g>
       <use style="stroke:#000000;stroke-width:0.8;" x="305.811818" xlink:href="#mbe7b1c2bc5" y="768.96"/>
      </g>
     </g>
     <g id="text_2">
      <!-- February -->
      <g transform="translate(283.657131 783.558437)scale(0.1 -0.1)">
       <defs>
        <path d="M 628 4666 
L 3309 4666 
L 3309 4134 
L 1259 4134 
L 1259 2759 
L 3109 2759 
L 3109 2228 
L 1259 2228 
L 1259 0 
L 628 0 
L 628 4666 
z
" id="DejaVuSans-46" transform="scale(0.015625)"/>
        <path d="M 3597 1894 
L 3597 1613 
L 953 1613 
Q 991 1019 1311 708 
Q 1631 397 2203 397 
Q 2534 397 2845 478 
Q 3156 559 3463 722 
L 3463 178 
Q 3153 47 2828 -22 
Q 2503 -91 2169 -91 
Q 1331 -91 842 396 
Q 353 884 353 1716 
Q 353 2575 817 3079 
Q 1281 3584 2069 3584 
Q 2775 3584 3186 3129 
Q 3597 2675 3597 1894 
z
M 3022 2063 
Q 3016 2534 2758 2815 
Q 2500 3097 2075 3097 
Q 1594 3097 1305 2825 
Q 1016 2553 972 2059 
L 3022 2063 
z
" id="DejaVuSans-65" transform="scale(0.015625)"/>
        <path d="M 3116 1747 
Q 3116 2381 2855 2742 
Q 2594 3103 2138 3103 
Q 1681 3103 1420 2742 
Q 1159 2381 1159 1747 
Q 1159 1113 1420 752 
Q 1681 391 2138 391 
Q 2594 391 2855 752 
Q 3116 1113 3116 1747 
z
M 1159 2969 
Q 1341 3281 1617 3432 
Q 1894 3584 2278 3584 
Q 2916 3584 3314 3078 
Q 3713 2572 3713 1747 
Q 3713 922 3314 415 
Q 2916 -91 2278 -91 
Q 1894 -91 1617 61 
Q 1341 213 1159 525 
L 1159 0 
L 581 0 
L 581 4863 
L 1159 4863 
L 1159 2969 
z
" id="DejaVuSans-62" transform="scale(0.015625)"/>
       </defs>
       <use xlink:href="#DejaVuSans-46"/>
       <use x="52.019531" xlink:href="#DejaVuSans-65"/>
       <use x="113.542969" xlink:href="#DejaVuSans-62"/>
       <use x="177.019531" xlink:href="#DejaVuSans-72"/>
       <use x="218.132812" xlink:href="#DejaVuSans-75"/>
       <use x="281.511719" xlink:href="#DejaVuSans-61"/>
       <use x="342.791016" xlink:href="#DejaVuSans-72"/>
       <use x="383.904297" xlink:href="#DejaVuSans-79"/>
      </g>
     </g>
    </g>
    <g id="xtick_3">
     <g id="line2d_3">
      <g>
       <use style="stroke:#000000;stroke-width:0.8;" x="433.644545" xlink:href="#mbe7b1c2bc5" y="768.96"/>
      </g>
     </g>
     <g id="text_3">
      <!-- March -->
      <g transform="translate(418.405483 783.558437)scale(0.1 -0.1)">
       <defs>
        <path d="M 628 4666 
L 1569 4666 
L 2759 1491 
L 3956 4666 
L 4897 4666 
L 4897 0 
L 4281 0 
L 4281 4097 
L 3078 897 
L 2444 897 
L 1241 4097 
L 1241 0 
L 628 0 
L 628 4666 
z
" id="DejaVuSans-4d" transform="scale(0.015625)"/>
        <path d="M 3122 3366 
L 3122 2828 
Q 2878 2963 2633 3030 
Q 2388 3097 2138 3097 
Q 1578 3097 1268 2742 
Q 959 2388 959 1747 
Q 959 1106 1268 751 
Q 1578 397 2138 397 
Q 2388 397 2633 464 
Q 2878 531 3122 666 
L 3122 134 
Q 2881 22 2623 -34 
Q 2366 -91 2075 -91 
Q 1284 -91 818 406 
Q 353 903 353 1747 
Q 353 2603 823 3093 
Q 1294 3584 2113 3584 
Q 2378 3584 2631 3529 
Q 2884 3475 3122 3366 
z
" id="DejaVuSans-63" transform="scale(0.015625)"/>
        <path d="M 3513 2113 
L 3513 0 
L 2938 0 
L 2938 2094 
Q 2938 2591 2744 2837 
Q 2550 3084 2163 3084 
Q 1697 3084 1428 2787 
Q 1159 2491 1159 1978 
L 1159 0 
L 581 0 
L 581 4863 
L 1159 4863 
L 1159 2956 
Q 1366 3272 1645 3428 
Q 1925 3584 2291 3584 
Q 2894 3584 3203 3211 
Q 3513 2838 3513 2113 
z
" id="DejaVuSans-68" transform="scale(0.015625)"/>
       </defs>
       <use xlink:href="#DejaVuSans-4d"/>
       <use x="86.279297" xlink:href="#DejaVuSans-61"/>
       <use x="147.558594" xlink:href="#DejaVuSans-72"/>
       <use x="186.421875" xlink:href="#DejaVuSans-63"/>
       <use x="241.402344" xlink:href="#DejaVuSans-68"/>
      </g>
     </g>
    </g>
    <g id="xtick_4">
     <g id="line2d_4">
      <g>
       <use style="stroke:#000000;stroke-width:0.8;" x="575.173636" xlink:href="#mbe7b1c2bc5" y="768.96"/>
      </g>
     </g>
     <g id="text_4">
      <!-- April -->
      <g transform="translate(563.745511 783.558437)scale(0.1 -0.1)">
       <defs>
        <path d="M 2188 4044 
L 1331 1722 
L 3047 1722 
L 2188 4044 
z
M 1831 4666 
L 2547 4666 
L 4325 0 
L 3669 0 
L 3244 1197 
L 1141 1197 
L 716 0 
L 50 0 
L 1831 4666 
z
" id="DejaVuSans-41" transform="scale(0.015625)"/>
        <path d="M 1159 525 
L 1159 -1331 
L 581 -1331 
L 581 3500 
L 1159 3500 
L 1159 2969 
Q 1341 3281 1617 3432 
Q 1894 3584 2278 3584 
Q 2916 3584 3314 3078 
Q 3713 2572 3713 1747 
Q 3713 922 3314 415 
Q 2916 -91 2278 -91 
Q 1894 -91 1617 61 
Q 1341 213 1159 525 
z
M 3116 1747 
Q 3116 2381 2855 2742 
Q 2594 3103 2138 3103 
Q 1681 3103 1420 2742 
Q 1159 2381 1159 1747 
Q 1159 1113 1420 752 
Q 1681 391 2138 391 
Q 2594 391 2855 752 
Q 3116 1113 3116 1747 
z
" id="DejaVuSans-70" transform="scale(0.015625)"/>
        <path d="M 603 3500 
L 1178 3500 
L 1178 0 
L 603 0 
L 603 3500 
z
M 603 4863 
L 1178 4863 
L 1178 4134 
L 603 4134 
L 603 4863 
z
" id="DejaVuSans-69" transform="scale(0.015625)"/>
        <path d="M 603 4863 
L 1178 4863 
L 1178 0 
L 603 0 
L 603 4863 
z
" id="DejaVuSans-6c" transform="scale(0.015625)"/>
       </defs>
       <use xlink:href="#DejaVuSans-41"/>
       <use x="68.408203" xlink:href="#DejaVuSans-70"/>
       <use x="131.884766" xlink:href="#DejaVuSans-72"/>
       <use x="172.998047" xlink:href="#DejaVuSans-69"/>
       <use x="200.78125" xlink:href="#DejaVuSans-6c"/>
      </g>
     </g>
    </g>
    <g id="xtick_5">
     <g id="line2d_5">
      <g>
       <use style="stroke:#000000;stroke-width:0.8;" x="712.137273" xlink:href="#mbe7b1c2bc5" y="768.96"/>
      </g>
     </g>
     <g id="text_5">
      <!-- May -->
      <g transform="translate(701.799773 783.558437)scale(0.1 -0.1)">
       <use xlink:href="#DejaVuSans-4d"/>
       <use x="86.279297" xlink:href="#DejaVuSans-61"/>
       <use x="147.558594" xlink:href="#DejaVuSans-79"/>
      </g>
     </g>
    </g>
    <g id="xtick_6">
     <g id="line2d_6">
      <g>
       <use style="stroke:#000000;stroke-width:0.8;" x="853.666364" xlink:href="#mbe7b1c2bc5" y="768.96"/>
      </g>
     </g>
     <g id="text_6">
      <!-- June -->
      <g transform="translate(842.777301 783.558437)scale(0.1 -0.1)">
       <use xlink:href="#DejaVuSans-4a"/>
       <use x="29.492188" xlink:href="#DejaVuSans-75"/>
       <use x="92.871094" xlink:href="#DejaVuSans-6e"/>
       <use x="156.25" xlink:href="#DejaVuSans-65"/>
      </g>
     </g>
    </g>
    <g id="xtick_7">
     <g id="line2d_7">
      <g>
       <use style="stroke:#000000;stroke-width:0.8;" x="990.63" xlink:href="#mbe7b1c2bc5" y="768.96"/>
      </g>
     </g>
     <g id="text_7">
      <!-- July -->
      <g transform="translate(981.637812 783.558437)scale(0.1 -0.1)">
       <use xlink:href="#DejaVuSans-4a"/>
       <use x="29.492188" xlink:href="#DejaVuSans-75"/>
       <use x="92.871094" xlink:href="#DejaVuSans-6c"/>
       <use x="120.654297" xlink:href="#DejaVuSans-79"/>
      </g>
     </g>
    </g>
    <g id="xtick_8">
     <g id="line2d_8">
      <g>
       <use style="stroke:#000000;stroke-width:0.8;" x="1132.159091" xlink:href="#mbe7b1c2bc5" y="768.96"/>
      </g>
     </g>
     <g id="text_8">
      <!-- August -->
      <g transform="translate(1114.662216 783.558437)scale(0.1 -0.1)">
       <defs>
        <path d="M 2906 1791 
Q 2906 2416 2648 2759 
Q 2391 3103 1925 3103 
Q 1463 3103 1205 2759 
Q 947 2416 947 1791 
Q 947 1169 1205 825 
Q 1463 481 1925 481 
Q 2391 481 2648 825 
Q 2906 1169 2906 1791 
z
M 3481 434 
Q 3481 -459 3084 -895 
Q 2688 -1331 1869 -1331 
Q 1566 -1331 1297 -1286 
Q 1028 -1241 775 -1147 
L 775 -588 
Q 1028 -725 1275 -790 
Q 1522 -856 1778 -856 
Q 2344 -856 2625 -561 
Q 2906 -266 2906 331 
L 2906 616 
Q 2728 306 2450 153 
Q 2172 0 1784 0 
Q 1141 0 747 490 
Q 353 981 353 1791 
Q 353 2603 747 3093 
Q 1141 3584 1784 3584 
Q 2172 3584 2450 3431 
Q 2728 3278 2906 2969 
L 2906 3500 
L 3481 3500 
L 3481 434 
z
" id="DejaVuSans-67" transform="scale(0.015625)"/>
        <path d="M 2834 3397 
L 2834 2853 
Q 2591 2978 2328 3040 
Q 2066 3103 1784 3103 
Q 1356 3103 1142 2972 
Q 928 2841 928 2578 
Q 928 2378 1081 2264 
Q 1234 2150 1697 2047 
L 1894 2003 
Q 2506 1872 2764 1633 
Q 3022 1394 3022 966 
Q 3022 478 2636 193 
Q 2250 -91 1575 -91 
Q 1294 -91 989 -36 
Q 684 19 347 128 
L 347 722 
Q 666 556 975 473 
Q 1284 391 1588 391 
Q 1994 391 2212 530 
Q 2431 669 2431 922 
Q 2431 1156 2273 1281 
Q 2116 1406 1581 1522 
L 1381 1569 
Q 847 1681 609 1914 
Q 372 2147 372 2553 
Q 372 3047 722 3315 
Q 1072 3584 1716 3584 
Q 2034 3584 2315 3537 
Q 2597 3491 2834 3397 
z
" id="DejaVuSans-73" transform="scale(0.015625)"/>
        <path d="M 1172 4494 
L 1172 3500 
L 2356 3500 
L 2356 3053 
L 1172 3053 
L 1172 1153 
Q 1172 725 1289 603 
Q 1406 481 1766 481 
L 2356 481 
L 2356 0 
L 1766 0 
Q 1100 0 847 248 
Q 594 497 594 1153 
L 594 3053 
L 172 3053 
L 172 3500 
L 594 3500 
L 594 4494 
L 1172 4494 
z
" id="DejaVuSans-74" transform="scale(0.015625)"/>
       </defs>
       <use xlink:href="#DejaVuSans-41"/>
       <use x="68.408203" xlink:href="#DejaVuSans-75"/>
       <use x="131.787109" xlink:href="#DejaVuSans-67"/>
       <use x="195.263672" xlink:href="#DejaVuSans-75"/>
       <use x="258.642578" xlink:href="#DejaVuSans-73"/>
       <use x="310.742188" xlink:href="#DejaVuSans-74"/>
      </g>
     </g>
    </g>
   </g>
   <g id="matplotlib.axis_2">
    <g id="ytick_1">
     <g id="line2d_9">
      <defs>
       <path d="M 0 0 
L -3.5 0 
" id="m483fdea028" style="stroke:#000000;stroke-width:0.8;"/>
      </defs>
      <g>
       <use style="stroke:#000000;stroke-width:0.8;" x="162" xlink:href="#m483fdea028" y="768.96"/>
      </g>
     </g>
     <g id="text_9">
      <!-- 0.0 -->
      <g transform="translate(139.096875 772.759219)scale(0.1 -0.1)">
       <defs>
        <path d="M 2034 4250 
Q 1547 4250 1301 3770 
Q 1056 3291 1056 2328 
Q 1056 1369 1301 889 
Q 1547 409 2034 409 
Q 2525 409 2770 889 
Q 3016 1369 3016 2328 
Q 3016 3291 2770 3770 
Q 2525 4250 2034 4250 
z
M 2034 4750 
Q 2819 4750 3233 4129 
Q 3647 3509 3647 2328 
Q 3647 1150 3233 529 
Q 2819 -91 2034 -91 
Q 1250 -91 836 529 
Q 422 1150 422 2328 
Q 422 3509 836 4129 
Q 1250 4750 2034 4750 
z
" id="DejaVuSans-30" transform="scale(0.015625)"/>
        <path d="M 684 794 
L 1344 794 
L 1344 0 
L 684 0 
L 684 794 
z
" id="DejaVuSans-2e" transform="scale(0.015625)"/>
       </defs>
       <use xlink:href="#DejaVuSans-30"/>
       <use x="63.623047" xlink:href="#DejaVuSans-2e"/>
       <use x="95.410156" xlink:href="#DejaVuSans-30"/>
      </g>
     </g>
    </g>
    <g id="ytick_2">
     <g id="line2d_10">
      <g>
       <use style="stroke:#000000;stroke-width:0.8;" x="162" xlink:href="#m483fdea028" y="680.113465"/>
      </g>
     </g>
     <g id="text_10">
      <!-- 0.2 -->
      <g transform="translate(139.096875 683.912684)scale(0.1 -0.1)">
       <defs>
        <path d="M 1228 531 
L 3431 531 
L 3431 0 
L 469 0 
L 469 531 
Q 828 903 1448 1529 
Q 2069 2156 2228 2338 
Q 2531 2678 2651 2914 
Q 2772 3150 2772 3378 
Q 2772 3750 2511 3984 
Q 2250 4219 1831 4219 
Q 1534 4219 1204 4116 
Q 875 4013 500 3803 
L 500 4441 
Q 881 4594 1212 4672 
Q 1544 4750 1819 4750 
Q 2544 4750 2975 4387 
Q 3406 4025 3406 3419 
Q 3406 3131 3298 2873 
Q 3191 2616 2906 2266 
Q 2828 2175 2409 1742 
Q 1991 1309 1228 531 
z
" id="DejaVuSans-32" transform="scale(0.015625)"/>
       </defs>
       <use xlink:href="#DejaVuSans-30"/>
       <use x="63.623047" xlink:href="#DejaVuSans-2e"/>
       <use x="95.410156" xlink:href="#DejaVuSans-32"/>
      </g>
     </g>
    </g>
    <g id="ytick_3">
     <g id="line2d_11">
      <g>
       <use style="stroke:#000000;stroke-width:0.8;" x="162" xlink:href="#m483fdea028" y="591.266931"/>
      </g>
     </g>
     <g id="text_11">
      <!-- 0.4 -->
      <g transform="translate(139.096875 595.066149)scale(0.1 -0.1)">
       <defs>
        <path d="M 2419 4116 
L 825 1625 
L 2419 1625 
L 2419 4116 
z
M 2253 4666 
L 3047 4666 
L 3047 1625 
L 3713 1625 
L 3713 1100 
L 3047 1100 
L 3047 0 
L 2419 0 
L 2419 1100 
L 313 1100 
L 313 1709 
L 2253 4666 
z
" id="DejaVuSans-34" transform="scale(0.015625)"/>
       </defs>
       <use xlink:href="#DejaVuSans-30"/>
       <use x="63.623047" xlink:href="#DejaVuSans-2e"/>
       <use x="95.410156" xlink:href="#DejaVuSans-34"/>
      </g>
     </g>
    </g>
    <g id="ytick_4">
     <g id="line2d_12">
      <g>
       <use style="stroke:#000000;stroke-width:0.8;" x="162" xlink:href="#m483fdea028" y="502.420396"/>
      </g>
     </g>
     <g id="text_12">
      <!-- 0.6 -->
      <g transform="translate(139.096875 506.219615)scale(0.1 -0.1)">
       <defs>
        <path d="M 2113 2584 
Q 1688 2584 1439 2293 
Q 1191 2003 1191 1497 
Q 1191 994 1439 701 
Q 1688 409 2113 409 
Q 2538 409 2786 701 
Q 3034 994 3034 1497 
Q 3034 2003 2786 2293 
Q 2538 2584 2113 2584 
z
M 3366 4563 
L 3366 3988 
Q 3128 4100 2886 4159 
Q 2644 4219 2406 4219 
Q 1781 4219 1451 3797 
Q 1122 3375 1075 2522 
Q 1259 2794 1537 2939 
Q 1816 3084 2150 3084 
Q 2853 3084 3261 2657 
Q 3669 2231 3669 1497 
Q 3669 778 3244 343 
Q 2819 -91 2113 -91 
Q 1303 -91 875 529 
Q 447 1150 447 2328 
Q 447 3434 972 4092 
Q 1497 4750 2381 4750 
Q 2619 4750 2861 4703 
Q 3103 4656 3366 4563 
z
" id="DejaVuSans-36" transform="scale(0.015625)"/>
       </defs>
       <use xlink:href="#DejaVuSans-30"/>
       <use x="63.623047" xlink:href="#DejaVuSans-2e"/>
       <use x="95.410156" xlink:href="#DejaVuSans-36"/>
      </g>
     </g>
    </g>
    <g id="ytick_5">
     <g id="line2d_13">
      <g>
       <use style="stroke:#000000;stroke-width:0.8;" x="162" xlink:href="#m483fdea028" y="413.573861"/>
      </g>
     </g>
     <g id="text_13">
      <!-- 0.8 -->
      <g transform="translate(139.096875 417.37308)scale(0.1 -0.1)">
       <defs>
        <path d="M 2034 2216 
Q 1584 2216 1326 1975 
Q 1069 1734 1069 1313 
Q 1069 891 1326 650 
Q 1584 409 2034 409 
Q 2484 409 2743 651 
Q 3003 894 3003 1313 
Q 3003 1734 2745 1975 
Q 2488 2216 2034 2216 
z
M 1403 2484 
Q 997 2584 770 2862 
Q 544 3141 544 3541 
Q 544 4100 942 4425 
Q 1341 4750 2034 4750 
Q 2731 4750 3128 4425 
Q 3525 4100 3525 3541 
Q 3525 3141 3298 2862 
Q 3072 2584 2669 2484 
Q 3125 2378 3379 2068 
Q 3634 1759 3634 1313 
Q 3634 634 3220 271 
Q 2806 -91 2034 -91 
Q 1263 -91 848 271 
Q 434 634 434 1313 
Q 434 1759 690 2068 
Q 947 2378 1403 2484 
z
M 1172 3481 
Q 1172 3119 1398 2916 
Q 1625 2713 2034 2713 
Q 2441 2713 2670 2916 
Q 2900 3119 2900 3481 
Q 2900 3844 2670 4047 
Q 2441 4250 2034 4250 
Q 1625 4250 1398 4047 
Q 1172 3844 1172 3481 
z
" id="DejaVuSans-38" transform="scale(0.015625)"/>
       </defs>
       <use xlink:href="#DejaVuSans-30"/>
       <use x="63.623047" xlink:href="#DejaVuSans-2e"/>
       <use x="95.410156" xlink:href="#DejaVuSans-38"/>
      </g>
     </g>
    </g>
    <g id="ytick_6">
     <g id="line2d_14">
      <g>
       <use style="stroke:#000000;stroke-width:0.8;" x="162" xlink:href="#m483fdea028" y="324.727326"/>
      </g>
     </g>
     <g id="text_14">
      <!-- 1.0 -->
      <g transform="translate(139.096875 328.526545)scale(0.1 -0.1)">
       <defs>
        <path d="M 794 531 
L 1825 531 
L 1825 4091 
L 703 3866 
L 703 4441 
L 1819 4666 
L 2450 4666 
L 2450 531 
L 3481 531 
L 3481 0 
L 794 0 
L 794 531 
z
" id="DejaVuSans-31" transform="scale(0.015625)"/>
       </defs>
       <use xlink:href="#DejaVuSans-31"/>
       <use x="63.623047" xlink:href="#DejaVuSans-2e"/>
       <use x="95.410156" xlink:href="#DejaVuSans-30"/>
      </g>
     </g>
    </g>
    <g id="ytick_7">
     <g id="line2d_15">
      <g>
       <use style="stroke:#000000;stroke-width:0.8;" x="162" xlink:href="#m483fdea028" y="235.880792"/>
      </g>
     </g>
     <g id="text_15">
      <!-- 1.2 -->
      <g transform="translate(139.096875 239.68001)scale(0.1 -0.1)">
       <use xlink:href="#DejaVuSans-31"/>
       <use x="63.623047" xlink:href="#DejaVuSans-2e"/>
       <use x="95.410156" xlink:href="#DejaVuSans-32"/>
      </g>
     </g>
    </g>
    <g id="ytick_8">
     <g id="line2d_16">
      <g>
       <use style="stroke:#000000;stroke-width:0.8;" x="162" xlink:href="#m483fdea028" y="147.034257"/>
      </g>
     </g>
     <g id="text_16">
      <!-- 1.4 -->
      <g transform="translate(139.096875 150.833476)scale(0.1 -0.1)">
       <use xlink:href="#DejaVuSans-31"/>
       <use x="63.623047" xlink:href="#DejaVuSans-2e"/>
       <use x="95.410156" xlink:href="#DejaVuSans-34"/>
      </g>
     </g>
    </g>
    <g id="text_17">
     <!-- Persons fully vaccinated (tens of millions) -->
     <g transform="translate(133.017188 540.480156)rotate(-90)scale(0.1 -0.1)">
      <defs>
       <path d="M 1259 4147 
L 1259 2394 
L 2053 2394 
Q 2494 2394 2734 2622 
Q 2975 2850 2975 3272 
Q 2975 3691 2734 3919 
Q 2494 4147 2053 4147 
L 1259 4147 
z
M 628 4666 
L 2053 4666 
Q 2838 4666 3239 4311 
Q 3641 3956 3641 3272 
Q 3641 2581 3239 2228 
Q 2838 1875 2053 1875 
L 1259 1875 
L 1259 0 
L 628 0 
L 628 4666 
z
" id="DejaVuSans-50" transform="scale(0.015625)"/>
       <path d="M 1959 3097 
Q 1497 3097 1228 2736 
Q 959 2375 959 1747 
Q 959 1119 1226 758 
Q 1494 397 1959 397 
Q 2419 397 2687 759 
Q 2956 1122 2956 1747 
Q 2956 2369 2687 2733 
Q 2419 3097 1959 3097 
z
M 1959 3584 
Q 2709 3584 3137 3096 
Q 3566 2609 3566 1747 
Q 3566 888 3137 398 
Q 2709 -91 1959 -91 
Q 1206 -91 779 398 
Q 353 888 353 1747 
Q 353 2609 779 3096 
Q 1206 3584 1959 3584 
z
" id="DejaVuSans-6f" transform="scale(0.015625)"/>
       <path id="DejaVuSans-20" transform="scale(0.015625)"/>
       <path d="M 2375 4863 
L 2375 4384 
L 1825 4384 
Q 1516 4384 1395 4259 
Q 1275 4134 1275 3809 
L 1275 3500 
L 2222 3500 
L 2222 3053 
L 1275 3053 
L 1275 0 
L 697 0 
L 697 3053 
L 147 3053 
L 147 3500 
L 697 3500 
L 697 3744 
Q 697 4328 969 4595 
Q 1241 4863 1831 4863 
L 2375 4863 
z
" id="DejaVuSans-66" transform="scale(0.015625)"/>
       <path d="M 191 3500 
L 800 3500 
L 1894 563 
L 2988 3500 
L 3597 3500 
L 2284 0 
L 1503 0 
L 191 3500 
z
" id="DejaVuSans-76" transform="scale(0.015625)"/>
       <path d="M 2906 2969 
L 2906 4863 
L 3481 4863 
L 3481 0 
L 2906 0 
L 2906 525 
Q 2725 213 2448 61 
Q 2172 -91 1784 -91 
Q 1150 -91 751 415 
Q 353 922 353 1747 
Q 353 2572 751 3078 
Q 1150 3584 1784 3584 
Q 2172 3584 2448 3432 
Q 2725 3281 2906 2969 
z
M 947 1747 
Q 947 1113 1208 752 
Q 1469 391 1925 391 
Q 2381 391 2643 752 
Q 2906 1113 2906 1747 
Q 2906 2381 2643 2742 
Q 2381 3103 1925 3103 
Q 1469 3103 1208 2742 
Q 947 2381 947 1747 
z
" id="DejaVuSans-64" transform="scale(0.015625)"/>
       <path d="M 1984 4856 
Q 1566 4138 1362 3434 
Q 1159 2731 1159 2009 
Q 1159 1288 1364 580 
Q 1569 -128 1984 -844 
L 1484 -844 
Q 1016 -109 783 600 
Q 550 1309 550 2009 
Q 550 2706 781 3412 
Q 1013 4119 1484 4856 
L 1984 4856 
z
" id="DejaVuSans-28" transform="scale(0.015625)"/>
       <path d="M 3328 2828 
Q 3544 3216 3844 3400 
Q 4144 3584 4550 3584 
Q 5097 3584 5394 3201 
Q 5691 2819 5691 2113 
L 5691 0 
L 5113 0 
L 5113 2094 
Q 5113 2597 4934 2840 
Q 4756 3084 4391 3084 
Q 3944 3084 3684 2787 
Q 3425 2491 3425 1978 
L 3425 0 
L 2847 0 
L 2847 2094 
Q 2847 2600 2669 2842 
Q 2491 3084 2119 3084 
Q 1678 3084 1418 2786 
Q 1159 2488 1159 1978 
L 1159 0 
L 581 0 
L 581 3500 
L 1159 3500 
L 1159 2956 
Q 1356 3278 1631 3431 
Q 1906 3584 2284 3584 
Q 2666 3584 2933 3390 
Q 3200 3197 3328 2828 
z
" id="DejaVuSans-6d" transform="scale(0.015625)"/>
       <path d="M 513 4856 
L 1013 4856 
Q 1481 4119 1714 3412 
Q 1947 2706 1947 2009 
Q 1947 1309 1714 600 
Q 1481 -109 1013 -844 
L 513 -844 
Q 928 -128 1133 580 
Q 1338 1288 1338 2009 
Q 1338 2731 1133 3434 
Q 928 4138 513 4856 
z
" id="DejaVuSans-29" transform="scale(0.015625)"/>
      </defs>
      <use xlink:href="#DejaVuSans-50"/>
      <use x="56.677734" xlink:href="#DejaVuSans-65"/>
      <use x="118.201172" xlink:href="#DejaVuSans-72"/>
      <use x="159.314453" xlink:href="#DejaVuSans-73"/>
      <use x="211.414062" xlink:href="#DejaVuSans-6f"/>
      <use x="272.595703" xlink:href="#DejaVuSans-6e"/>
      <use x="335.974609" xlink:href="#DejaVuSans-73"/>
      <use x="388.074219" xlink:href="#DejaVuSans-20"/>
      <use x="419.861328" xlink:href="#DejaVuSans-66"/>
      <use x="455.066406" xlink:href="#DejaVuSans-75"/>
      <use x="518.445312" xlink:href="#DejaVuSans-6c"/>
      <use x="546.228516" xlink:href="#DejaVuSans-6c"/>
      <use x="574.011719" xlink:href="#DejaVuSans-79"/>
      <use x="633.191406" xlink:href="#DejaVuSans-20"/>
      <use x="664.978516" xlink:href="#DejaVuSans-76"/>
      <use x="724.158203" xlink:href="#DejaVuSans-61"/>
      <use x="785.4375" xlink:href="#DejaVuSans-63"/>
      <use x="840.417969" xlink:href="#DejaVuSans-63"/>
      <use x="895.398438" xlink:href="#DejaVuSans-69"/>
      <use x="923.181641" xlink:href="#DejaVuSans-6e"/>
      <use x="986.560547" xlink:href="#DejaVuSans-61"/>
      <use x="1047.839844" xlink:href="#DejaVuSans-74"/>
      <use x="1087.048828" xlink:href="#DejaVuSans-65"/>
      <use x="1148.572266" xlink:href="#DejaVuSans-64"/>
      <use x="1212.048828" xlink:href="#DejaVuSans-20"/>
      <use x="1243.835938" xlink:href="#DejaVuSans-28"/>
      <use x="1282.849609" xlink:href="#DejaVuSans-74"/>
      <use x="1322.058594" xlink:href="#DejaVuSans-65"/>
      <use x="1383.582031" xlink:href="#DejaVuSans-6e"/>
      <use x="1446.960938" xlink:href="#DejaVuSans-73"/>
      <use x="1499.060547" xlink:href="#DejaVuSans-20"/>
      <use x="1530.847656" xlink:href="#DejaVuSans-6f"/>
      <use x="1592.029297" xlink:href="#DejaVuSans-66"/>
      <use x="1627.234375" xlink:href="#DejaVuSans-20"/>
      <use x="1659.021484" xlink:href="#DejaVuSans-6d"/>
      <use x="1756.433594" xlink:href="#DejaVuSans-69"/>
      <use x="1784.216797" xlink:href="#DejaVuSans-6c"/>
      <use x="1812" xlink:href="#DejaVuSans-6c"/>
      <use x="1839.783203" xlink:href="#DejaVuSans-69"/>
      <use x="1867.566406" xlink:href="#DejaVuSans-6f"/>
      <use x="1928.748047" xlink:href="#DejaVuSans-6e"/>
      <use x="1992.126953" xlink:href="#DejaVuSans-73"/>
      <use x="2044.226562" xlink:href="#DejaVuSans-29"/>
     </g>
    </g>
    <g id="text_18">
     <!-- 1e7 -->
     <g transform="translate(162 100.68)scale(0.1 -0.1)">
      <defs>
       <path d="M 525 4666 
L 3525 4666 
L 3525 4397 
L 1831 0 
L 1172 0 
L 2766 4134 
L 525 4134 
L 525 4666 
z
" id="DejaVuSans-37" transform="scale(0.015625)"/>
      </defs>
      <use xlink:href="#DejaVuSans-31"/>
      <use x="63.623047" xlink:href="#DejaVuSans-65"/>
      <use x="125.146484" xlink:href="#DejaVuSans-37"/>
     </g>
    </g>
   </g>
   <g id="patch_223">
    <path d="M 162 768.96 
L 162 103.68 
" style="fill:none;stroke:#000000;stroke-linecap:square;stroke-linejoin:miter;stroke-width:0.8;"/>
   </g>
   <g id="patch_224">
    <path d="M 1166.4 768.96 
L 1166.4 103.68 
" style="fill:none;stroke:#000000;stroke-linecap:square;stroke-linejoin:miter;stroke-width:0.8;"/>
   </g>
   <g id="patch_225">
    <path d="M 162 768.96 
L 1166.4 768.96 
" style="fill:none;stroke:#000000;stroke-linecap:square;stroke-linejoin:miter;stroke-width:0.8;"/>
   </g>
   <g id="patch_226">
    <path d="M 162 103.68 
L 1166.4 103.68 
" style="fill:none;stroke:#000000;stroke-linecap:square;stroke-linejoin:miter;stroke-width:0.8;"/>
   </g>
   <g id="text_19">
    <!-- Persons Fully Vaccinated -->
    <g transform="translate(590.380313 97.68)scale(0.12 -0.12)">
     <defs>
      <path d="M 1831 0 
L 50 4666 
L 709 4666 
L 2188 738 
L 3669 4666 
L 4325 4666 
L 2547 0 
L 1831 0 
z
" id="DejaVuSans-56" transform="scale(0.015625)"/>
     </defs>
     <use xlink:href="#DejaVuSans-50"/>
     <use x="56.677734" xlink:href="#DejaVuSans-65"/>
     <use x="118.201172" xlink:href="#DejaVuSans-72"/>
     <use x="159.314453" xlink:href="#DejaVuSans-73"/>
     <use x="211.414062" xlink:href="#DejaVuSans-6f"/>
     <use x="272.595703" xlink:href="#DejaVuSans-6e"/>
     <use x="335.974609" xlink:href="#DejaVuSans-73"/>
     <use x="388.074219" xlink:href="#DejaVuSans-20"/>
     <use x="419.861328" xlink:href="#DejaVuSans-46"/>
     <use x="471.880859" xlink:href="#DejaVuSans-75"/>
     <use x="535.259766" xlink:href="#DejaVuSans-6c"/>
     <use x="563.042969" xlink:href="#DejaVuSans-6c"/>
     <use x="590.826172" xlink:href="#DejaVuSans-79"/>
     <use x="650.005859" xlink:href="#DejaVuSans-20"/>
     <use x="681.792969" xlink:href="#DejaVuSans-56"/>
     <use x="742.451172" xlink:href="#DejaVuSans-61"/>
     <use x="803.730469" xlink:href="#DejaVuSans-63"/>
     <use x="858.710938" xlink:href="#DejaVuSans-63"/>
     <use x="913.691406" xlink:href="#DejaVuSans-69"/>
     <use x="941.474609" xlink:href="#DejaVuSans-6e"/>
     <use x="1004.853516" xlink:href="#DejaVuSans-61"/>
     <use x="1066.132812" xlink:href="#DejaVuSans-74"/>
     <use x="1105.341797" xlink:href="#DejaVuSans-65"/>
     <use x="1166.865234" xlink:href="#DejaVuSans-64"/>
    </g>
   </g>
  </g>
 </g>
 <defs>
  <clipPath id="pa4feeca673">
   <rect height="665.28" width="1004.4" x="162" y="103.68"/>
  </clipPath>
 </defs>
</svg>
