<?xml version="1.0" encoding="utf-8" standalone="no"?>
<!DOCTYPE svg PUBLIC "-//W3C//DTD SVG 1.1//EN"
  "http://www.w3.org/Graphics/SVG/1.1/DTD/svg11.dtd">
<svg height="864pt" version="1.1" viewBox="0 0 1296 864" width="1296pt" xmlns="http://www.w3.org/2000/svg" xmlns:xlink="http://www.w3.org/1999/xlink">
 <metadata>
  <rdf:RDF xmlns:cc="http://creativecommons.org/ns#" xmlns:dc="http://purl.org/dc/elements/1.1/" xmlns:rdf="http://www.w3.org/1999/02/22-rdf-syntax-ns#">
   <cc:Work>
    <dc:type rdf:resource="http://purl.org/dc/dcmitype/StillImage"/>
    <dc:date>2021-07-27T05:17:41.992632</dc:date>
    <dc:format>image/svg+xml</dc:format>
    <dc:creator>
     <cc:Agent>
      <dc:title>Matplotlib v3.4.2, https://matplotlib.org/</dc:title>
     </cc:Agent>
    </dc:creator>
   </cc:Work>
  </rdf:RDF>
 </metadata>
 <defs>
  <style type="text/css">*{stroke-linecap:butt;stroke-linejoin:round;}</style>
 </defs>
 <g id="figure_1">
  <g id="patch_1">
   <path d="M 0 864 
L 1296 864 
L 1296 0 
L 0 0 
z
" style="fill:#ffffff;"/>
  </g>
  <g id="axes_1">
   <g id="patch_2">
    <path d="M 162 768.96 
L 1166.4 768.96 
L 1166.4 103.68 
L 162 103.68 
z
" style="fill:#ffffff;"/>
   </g>
   <g id="patch_3">
    <path clip-path="url(#p3c368122f5)" d="M 163.218932 768.96 
L 165.656796 768.96 
L 165.656796 768.96 
L 163.218932 768.96 
z
" style="fill:#1f77b4;"/>
   </g>
   <g id="patch_4">
    <path clip-path="url(#p3c368122f5)" d="M 168.09466 768.96 
L 170.532524 768.96 
L 170.532524 768.96 
L 168.09466 768.96 
z
" style="fill:#1f77b4;"/>
   </g>
   <g id="patch_5">
    <path clip-path="url(#p3c368122f5)" d="M 172.970388 768.96 
L 175.408252 768.96 
L 175.408252 768.96 
L 172.970388 768.96 
z
" style="fill:#1f77b4;"/>
   </g>
   <g id="patch_6">
    <path clip-path="url(#p3c368122f5)" d="M 177.846117 768.96 
L 180.283981 768.96 
L 180.283981 768.33203 
L 177.846117 768.33203 
z
" style="fill:#1f77b4;"/>
   </g>
   <g id="patch_7">
    <path clip-path="url(#p3c368122f5)" d="M 182.721845 768.96 
L 185.159709 768.96 
L 185.159709 767.33728 
L 182.721845 767.33728 
z
" style="fill:#1f77b4;"/>
   </g>
   <g id="patch_8">
    <path clip-path="url(#p3c368122f5)" d="M 187.597573 768.96 
L 190.035437 768.96 
L 190.035437 755.439184 
L 187.597573 755.439184 
z
" style="fill:#1f77b4;"/>
   </g>
   <g id="patch_9">
    <path clip-path="url(#p3c368122f5)" d="M 192.473301 768.96 
L 194.911165 768.96 
L 194.911165 668.723683 
L 192.473301 668.723683 
z
" style="fill:#1f77b4;"/>
   </g>
   <g id="patch_10">
    <path clip-path="url(#p3c368122f5)" d="M 197.349029 768.96 
L 199.786893 768.96 
L 199.786893 647.572748 
L 197.349029 647.572748 
z
" style="fill:#1f77b4;"/>
   </g>
   <g id="patch_11">
    <path clip-path="url(#p3c368122f5)" d="M 202.224757 768.96 
L 204.662621 768.96 
L 204.662621 701.850516 
L 202.224757 701.850516 
z
" style="fill:#1f77b4;"/>
   </g>
   <g id="patch_12">
    <path clip-path="url(#p3c368122f5)" d="M 207.100485 768.96 
L 209.53835 768.96 
L 209.53835 728.50314 
L 207.100485 728.50314 
z
" style="fill:#1f77b4;"/>
   </g>
   <g id="patch_13">
    <path clip-path="url(#p3c368122f5)" d="M 211.976214 768.96 
L 214.414078 768.96 
L 214.414078 706.035134 
L 211.976214 706.035134 
z
" style="fill:#1f77b4;"/>
   </g>
   <g id="patch_14">
    <path clip-path="url(#p3c368122f5)" d="M 216.851942 768.96 
L 219.289806 768.96 
L 219.289806 709.397276 
L 216.851942 709.397276 
z
" style="fill:#1f77b4;"/>
   </g>
   <g id="patch_15">
    <path clip-path="url(#p3c368122f5)" d="M 221.72767 768.96 
L 224.165534 768.96 
L 224.165534 720.02276 
L 221.72767 720.02276 
z
" style="fill:#1f77b4;"/>
   </g>
   <g id="patch_16">
    <path clip-path="url(#p3c368122f5)" d="M 226.603398 768.96 
L 229.041262 768.96 
L 229.041262 708.997154 
L 226.603398 708.997154 
z
" style="fill:#1f77b4;"/>
   </g>
   <g id="patch_17">
    <path clip-path="url(#p3c368122f5)" d="M 231.479126 768.96 
L 233.91699 768.96 
L 233.91699 757.528714 
L 231.479126 757.528714 
z
" style="fill:#1f77b4;"/>
   </g>
   <g id="patch_18">
    <path clip-path="url(#p3c368122f5)" d="M 236.354854 768.96 
L 238.792718 768.96 
L 238.792718 761.896721 
L 236.354854 761.896721 
z
" style="fill:#1f77b4;"/>
   </g>
   <g id="patch_19">
    <path clip-path="url(#p3c368122f5)" d="M 241.230583 768.96 
L 243.668447 768.96 
L 243.668447 765.625643 
L 241.230583 765.625643 
z
" style="fill:#1f77b4;"/>
   </g>
   <g id="patch_20">
    <path clip-path="url(#p3c368122f5)" d="M 246.106311 768.96 
L 248.544175 768.96 
L 248.544175 752.421591 
L 246.106311 752.421591 
z
" style="fill:#1f77b4;"/>
   </g>
   <g id="patch_21">
    <path clip-path="url(#p3c368122f5)" d="M 250.982039 768.96 
L 253.419903 768.96 
L 253.419903 743.757821 
L 250.982039 743.757821 
z
" style="fill:#1f77b4;"/>
   </g>
   <g id="patch_22">
    <path clip-path="url(#p3c368122f5)" d="M 255.857767 768.96 
L 258.295631 768.96 
L 258.295631 720.378424 
L 255.857767 720.378424 
z
" style="fill:#1f77b4;"/>
   </g>
   <g id="patch_23">
    <path clip-path="url(#p3c368122f5)" d="M 260.733495 768.96 
L 263.171359 768.96 
L 263.171359 720.272836 
L 260.733495 720.272836 
z
" style="fill:#1f77b4;"/>
   </g>
   <g id="patch_24">
    <path clip-path="url(#p3c368122f5)" d="M 265.609223 768.96 
L 268.047087 768.96 
L 268.047087 734.577226 
L 265.609223 734.577226 
z
" style="fill:#1f77b4;"/>
   </g>
   <g id="patch_25">
    <path clip-path="url(#p3c368122f5)" d="M 270.484951 768.96 
L 272.922816 768.96 
L 272.922816 756.656224 
L 270.484951 756.656224 
z
" style="fill:#1f77b4;"/>
   </g>
   <g id="patch_26">
    <path clip-path="url(#p3c368122f5)" d="M 275.36068 768.96 
L 277.798544 768.96 
L 277.798544 751.943667 
L 275.36068 751.943667 
z
" style="fill:#1f77b4;"/>
   </g>
   <g id="patch_27">
    <path clip-path="url(#p3c368122f5)" d="M 280.236408 768.96 
L 282.674272 768.96 
L 282.674272 724.679744 
L 280.236408 724.679744 
z
" style="fill:#1f77b4;"/>
   </g>
   <g id="patch_28">
    <path clip-path="url(#p3c368122f5)" d="M 285.112136 768.96 
L 287.55 768.96 
L 287.55 688.313028 
L 285.112136 688.313028 
z
" style="fill:#1f77b4;"/>
   </g>
   <g id="patch_29">
    <path clip-path="url(#p3c368122f5)" d="M 289.987864 768.96 
L 292.425728 768.96 
L 292.425728 661.482572 
L 289.987864 661.482572 
z
" style="fill:#1f77b4;"/>
   </g>
   <g id="patch_30">
    <path clip-path="url(#p3c368122f5)" d="M 294.863592 768.96 
L 297.301456 768.96 
L 297.301456 676.353802 
L 294.863592 676.353802 
z
" style="fill:#1f77b4;"/>
   </g>
   <g id="patch_31">
    <path clip-path="url(#p3c368122f5)" d="M 299.73932 768.96 
L 302.177184 768.96 
L 302.177184 689.185518 
L 299.73932 689.185518 
z
" style="fill:#1f77b4;"/>
   </g>
   <g id="patch_32">
    <path clip-path="url(#p3c368122f5)" d="M 304.615049 768.96 
L 307.052913 768.96 
L 307.052913 726.258006 
L 304.615049 726.258006 
z
" style="fill:#1f77b4;"/>
   </g>
   <g id="patch_33">
    <path clip-path="url(#p3c368122f5)" d="M 309.490777 768.96 
L 311.928641 768.96 
L 311.928641 745.252725 
L 309.490777 745.252725 
z
" style="fill:#1f77b4;"/>
   </g>
   <g id="patch_34">
    <path clip-path="url(#p3c368122f5)" d="M 314.366505 768.96 
L 316.804369 768.96 
L 316.804369 723.49049 
L 314.366505 723.49049 
z
" style="fill:#1f77b4;"/>
   </g>
   <g id="patch_35">
    <path clip-path="url(#p3c368122f5)" d="M 319.242233 768.96 
L 321.680097 768.96 
L 321.680097 670.585366 
L 319.242233 670.585366 
z
" style="fill:#1f77b4;"/>
   </g>
   <g id="patch_36">
    <path clip-path="url(#p3c368122f5)" d="M 324.117961 768.96 
L 326.555825 768.96 
L 326.555825 695.87646 
L 324.117961 695.87646 
z
" style="fill:#1f77b4;"/>
   </g>
   <g id="patch_37">
    <path clip-path="url(#p3c368122f5)" d="M 328.993689 768.96 
L 331.431553 768.96 
L 331.431553 675.83142 
L 328.993689 675.83142 
z
" style="fill:#1f77b4;"/>
   </g>
   <g id="patch_38">
    <path clip-path="url(#p3c368122f5)" d="M 333.869417 768.96 
L 336.307282 768.96 
L 336.307282 692.908883 
L 333.869417 692.908883 
z
" style="fill:#1f77b4;"/>
   </g>
   <g id="patch_39">
    <path clip-path="url(#p3c368122f5)" d="M 338.745146 768.96 
L 341.18301 768.96 
L 341.18301 702.773021 
L 338.745146 702.773021 
z
" style="fill:#1f77b4;"/>
   </g>
   <g id="patch_40">
    <path clip-path="url(#p3c368122f5)" d="M 343.620874 768.96 
L 346.058738 768.96 
L 346.058738 746.58091 
L 343.620874 746.58091 
z
" style="fill:#1f77b4;"/>
   </g>
   <g id="patch_41">
    <path clip-path="url(#p3c368122f5)" d="M 348.496602 768.96 
L 350.934466 768.96 
L 350.934466 695.987606 
L 348.496602 695.987606 
z
" style="fill:#1f77b4;"/>
   </g>
   <g id="patch_42">
    <path clip-path="url(#p3c368122f5)" d="M 353.37233 768.96 
L 355.810194 768.96 
L 355.810194 675.620244 
L 353.37233 675.620244 
z
" style="fill:#1f77b4;"/>
   </g>
   <g id="patch_43">
    <path clip-path="url(#p3c368122f5)" d="M 358.248058 768.96 
L 360.685922 768.96 
L 360.685922 656.825587 
L 358.248058 656.825587 
z
" style="fill:#1f77b4;"/>
   </g>
   <g id="patch_44">
    <path clip-path="url(#p3c368122f5)" d="M 363.123786 768.96 
L 365.56165 768.96 
L 365.56165 608.466302 
L 363.123786 608.466302 
z
" style="fill:#1f77b4;"/>
   </g>
   <g id="patch_45">
    <path clip-path="url(#p3c368122f5)" d="M 367.999515 768.96 
L 370.437379 768.96 
L 370.437379 629.02261 
L 367.999515 629.02261 
z
" style="fill:#1f77b4;"/>
   </g>
   <g id="patch_46">
    <path clip-path="url(#p3c368122f5)" d="M 372.875243 768.96 
L 375.313107 768.96 
L 375.313107 683.722731 
L 372.875243 683.722731 
z
" style="fill:#1f77b4;"/>
   </g>
   <g id="patch_47">
    <path clip-path="url(#p3c368122f5)" d="M 377.750971 768.96 
L 380.188835 768.96 
L 380.188835 723.107039 
L 377.750971 723.107039 
z
" style="fill:#1f77b4;"/>
   </g>
   <g id="patch_48">
    <path clip-path="url(#p3c368122f5)" d="M 382.626699 768.96 
L 385.064563 768.96 
L 385.064563 722.512412 
L 382.626699 722.512412 
z
" style="fill:#1f77b4;"/>
   </g>
   <g id="patch_49">
    <path clip-path="url(#p3c368122f5)" d="M 387.502427 768.96 
L 389.940291 768.96 
L 389.940291 680.171641 
L 387.502427 680.171641 
z
" style="fill:#1f77b4;"/>
   </g>
   <g id="patch_50">
    <path clip-path="url(#p3c368122f5)" d="M 392.378155 768.96 
L 394.816019 768.96 
L 394.816019 618.308211 
L 392.378155 618.308211 
z
" style="fill:#1f77b4;"/>
   </g>
   <g id="patch_51">
    <path clip-path="url(#p3c368122f5)" d="M 397.253883 768.96 
L 399.691748 768.96 
L 399.691748 567.348128 
L 397.253883 567.348128 
z
" style="fill:#1f77b4;"/>
   </g>
   <g id="patch_52">
    <path clip-path="url(#p3c368122f5)" d="M 402.129612 768.96 
L 404.567476 768.96 
L 404.567476 579.635232 
L 402.129612 579.635232 
z
" style="fill:#1f77b4;"/>
   </g>
   <g id="patch_53">
    <path clip-path="url(#p3c368122f5)" d="M 407.00534 768.96 
L 409.443204 768.96 
L 409.443204 733.815881 
L 407.00534 733.815881 
z
" style="fill:#1f77b4;"/>
   </g>
   <g id="patch_54">
    <path clip-path="url(#p3c368122f5)" d="M 411.881068 768.96 
L 414.318932 768.96 
L 414.318932 630.045146 
L 411.881068 630.045146 
z
" style="fill:#1f77b4;"/>
   </g>
   <g id="patch_55">
    <path clip-path="url(#p3c368122f5)" d="M 416.756796 768.96 
L 419.19466 768.96 
L 419.19466 657.859238 
L 416.756796 657.859238 
z
" style="fill:#1f77b4;"/>
   </g>
   <g id="patch_56">
    <path clip-path="url(#p3c368122f5)" d="M 421.632524 768.96 
L 424.070388 768.96 
L 424.070388 604.83741 
L 421.632524 604.83741 
z
" style="fill:#1f77b4;"/>
   </g>
   <g id="patch_57">
    <path clip-path="url(#p3c368122f5)" d="M 426.508252 768.96 
L 428.946117 768.96 
L 428.946117 465.155655 
L 426.508252 465.155655 
z
" style="fill:#1f77b4;"/>
   </g>
   <g id="patch_58">
    <path clip-path="url(#p3c368122f5)" d="M 431.383981 768.96 
L 433.821845 768.96 
L 433.821845 463.760782 
L 431.383981 463.760782 
z
" style="fill:#1f77b4;"/>
   </g>
   <g id="patch_59">
    <path clip-path="url(#p3c368122f5)" d="M 436.259709 768.96 
L 438.697573 768.96 
L 438.697573 495.003704 
L 436.259709 495.003704 
z
" style="fill:#1f77b4;"/>
   </g>
   <g id="patch_60">
    <path clip-path="url(#p3c368122f5)" d="M 441.135437 768.96 
L 443.573301 768.96 
L 443.573301 524.79618 
L 441.135437 524.79618 
z
" style="fill:#1f77b4;"/>
   </g>
   <g id="patch_61">
    <path clip-path="url(#p3c368122f5)" d="M 446.011165 768.96 
L 448.449029 768.96 
L 448.449029 645.13311 
L 446.011165 645.13311 
z
" style="fill:#1f77b4;"/>
   </g>
   <g id="patch_62">
    <path clip-path="url(#p3c368122f5)" d="M 450.886893 768.96 
L 453.324757 768.96 
L 453.324757 595.084417 
L 450.886893 595.084417 
z
" style="fill:#1f77b4;"/>
   </g>
   <g id="patch_63">
    <path clip-path="url(#p3c368122f5)" d="M 455.762621 768.96 
L 458.200485 768.96 
L 458.200485 540.762191 
L 455.762621 540.762191 
z
" style="fill:#1f77b4;"/>
   </g>
   <g id="patch_64">
    <path clip-path="url(#p3c368122f5)" d="M 460.63835 768.96 
L 463.076214 768.96 
L 463.076214 508.17997 
L 460.63835 508.17997 
z
" style="fill:#1f77b4;"/>
   </g>
   <g id="patch_65">
    <path clip-path="url(#p3c368122f5)" d="M 465.514078 768.96 
L 467.951942 768.96 
L 467.951942 388.215376 
L 465.514078 388.215376 
z
" style="fill:#1f77b4;"/>
   </g>
   <g id="patch_66">
    <path clip-path="url(#p3c368122f5)" d="M 470.389806 768.96 
L 472.82767 768.96 
L 472.82767 395.289769 
L 470.389806 395.289769 
z
" style="fill:#1f77b4;"/>
   </g>
   <g id="patch_67">
    <path clip-path="url(#p3c368122f5)" d="M 475.265534 768.96 
L 477.703398 768.96 
L 477.703398 480.015771 
L 475.265534 480.015771 
z
" style="fill:#1f77b4;"/>
   </g>
   <g id="patch_68">
    <path clip-path="url(#p3c368122f5)" d="M 480.141262 768.96 
L 482.579126 768.96 
L 482.579126 679.643701 
L 480.141262 679.643701 
z
" style="fill:#1f77b4;"/>
   </g>
   <g id="patch_69">
    <path clip-path="url(#p3c368122f5)" d="M 485.01699 768.96 
L 487.454854 768.96 
L 487.454854 530.898053 
L 485.01699 530.898053 
z
" style="fill:#1f77b4;"/>
   </g>
   <g id="patch_70">
    <path clip-path="url(#p3c368122f5)" d="M 489.892718 768.96 
L 492.330583 768.96 
L 492.330583 466.339351 
L 489.892718 466.339351 
z
" style="fill:#1f77b4;"/>
   </g>
   <g id="patch_71">
    <path clip-path="url(#p3c368122f5)" d="M 494.768447 768.96 
L 497.206311 768.96 
L 497.206311 436.708036 
L 494.768447 436.708036 
z
" style="fill:#1f77b4;"/>
   </g>
   <g id="patch_72">
    <path clip-path="url(#p3c368122f5)" d="M 499.644175 768.96 
L 502.082039 768.96 
L 502.082039 409.760877 
L 499.644175 409.760877 
z
" style="fill:#1f77b4;"/>
   </g>
   <g id="patch_73">
    <path clip-path="url(#p3c368122f5)" d="M 504.519903 768.96 
L 506.957767 768.96 
L 506.957767 357.783815 
L 504.519903 357.783815 
z
" style="fill:#1f77b4;"/>
   </g>
   <g id="patch_74">
    <path clip-path="url(#p3c368122f5)" d="M 509.395631 768.96 
L 511.833495 768.96 
L 511.833495 508.152183 
L 509.395631 508.152183 
z
" style="fill:#1f77b4;"/>
   </g>
   <g id="patch_75">
    <path clip-path="url(#p3c368122f5)" d="M 514.271359 768.96 
L 516.709223 768.96 
L 516.709223 504.995659 
L 514.271359 504.995659 
z
" style="fill:#1f77b4;"/>
   </g>
   <g id="patch_76">
    <path clip-path="url(#p3c368122f5)" d="M 519.147087 768.96 
L 521.584951 768.96 
L 521.584951 532.198452 
L 519.147087 532.198452 
z
" style="fill:#1f77b4;"/>
   </g>
   <g id="patch_77">
    <path clip-path="url(#p3c368122f5)" d="M 524.022816 768.96 
L 526.46068 768.96 
L 526.46068 508.513405 
L 524.022816 508.513405 
z
" style="fill:#1f77b4;"/>
   </g>
   <g id="patch_78">
    <path clip-path="url(#p3c368122f5)" d="M 528.898544 768.96 
L 531.336408 768.96 
L 531.336408 537.055498 
L 528.898544 537.055498 
z
" style="fill:#1f77b4;"/>
   </g>
   <g id="patch_79">
    <path clip-path="url(#p3c368122f5)" d="M 533.774272 768.96 
L 536.212136 768.96 
L 536.212136 504.890071 
L 533.774272 504.890071 
z
" style="fill:#1f77b4;"/>
   </g>
   <g id="patch_80">
    <path clip-path="url(#p3c368122f5)" d="M 538.65 768.96 
L 541.087864 768.96 
L 541.087864 489.757649 
L 538.65 489.757649 
z
" style="fill:#1f77b4;"/>
   </g>
   <g id="patch_81">
    <path clip-path="url(#p3c368122f5)" d="M 543.525728 768.96 
L 545.963592 768.96 
L 545.963592 593.700659 
L 543.525728 593.700659 
z
" style="fill:#1f77b4;"/>
   </g>
   <g id="patch_82">
    <path clip-path="url(#p3c368122f5)" d="M 548.401456 768.96 
L 550.83932 768.96 
L 550.83932 675.197892 
L 548.401456 675.197892 
z
" style="fill:#1f77b4;"/>
   </g>
   <g id="patch_83">
    <path clip-path="url(#p3c368122f5)" d="M 553.277184 768.96 
L 555.715049 768.96 
L 555.715049 620.431085 
L 553.277184 620.431085 
z
" style="fill:#1f77b4;"/>
   </g>
   <g id="patch_84">
    <path clip-path="url(#p3c368122f5)" d="M 558.152913 768.96 
L 560.590777 768.96 
L 560.590777 590.771983 
L 558.152913 590.771983 
z
" style="fill:#1f77b4;"/>
   </g>
   <g id="patch_85">
    <path clip-path="url(#p3c368122f5)" d="M 563.028641 768.96 
L 565.466505 768.96 
L 565.466505 583.658689 
L 563.028641 583.658689 
z
" style="fill:#1f77b4;"/>
   </g>
   <g id="patch_86">
    <path clip-path="url(#p3c368122f5)" d="M 567.904369 768.96 
L 570.342233 768.96 
L 570.342233 532.065077 
L 567.904369 532.065077 
z
" style="fill:#1f77b4;"/>
   </g>
   <g id="patch_87">
    <path clip-path="url(#p3c368122f5)" d="M 572.780097 768.96 
L 575.217961 768.96 
L 575.217961 470.212762 
L 572.780097 470.212762 
z
" style="fill:#1f77b4;"/>
   </g>
   <g id="patch_88">
    <path clip-path="url(#p3c368122f5)" d="M 577.655825 768.96 
L 580.093689 768.96 
L 580.093689 505.123476 
L 577.655825 505.123476 
z
" style="fill:#1f77b4;"/>
   </g>
   <g id="patch_89">
    <path clip-path="url(#p3c368122f5)" d="M 582.531553 768.96 
L 584.969417 768.96 
L 584.969417 663.649904 
L 582.531553 663.649904 
z
" style="fill:#1f77b4;"/>
   </g>
   <g id="patch_90">
    <path clip-path="url(#p3c368122f5)" d="M 587.407282 768.96 
L 589.845146 768.96 
L 589.845146 610.378 
L 587.407282 610.378 
z
" style="fill:#1f77b4;"/>
   </g>
   <g id="patch_91">
    <path clip-path="url(#p3c368122f5)" d="M 592.28301 768.96 
L 594.720874 768.96 
L 594.720874 482.083072 
L 592.28301 482.083072 
z
" style="fill:#1f77b4;"/>
   </g>
   <g id="patch_92">
    <path clip-path="url(#p3c368122f5)" d="M 597.158738 768.96 
L 599.596602 768.96 
L 599.596602 524.034835 
L 597.158738 524.034835 
z
" style="fill:#1f77b4;"/>
   </g>
   <g id="patch_93">
    <path clip-path="url(#p3c368122f5)" d="M 602.034466 768.96 
L 604.47233 768.96 
L 604.47233 430.700637 
L 602.034466 430.700637 
z
" style="fill:#1f77b4;"/>
   </g>
   <g id="patch_94">
    <path clip-path="url(#p3c368122f5)" d="M 606.910194 768.96 
L 609.348058 768.96 
L 609.348058 422.914914 
L 606.910194 422.914914 
z
" style="fill:#1f77b4;"/>
   </g>
   <g id="patch_95">
    <path clip-path="url(#p3c368122f5)" d="M 611.785922 768.96 
L 614.223786 768.96 
L 614.223786 497.554487 
L 611.785922 497.554487 
z
" style="fill:#1f77b4;"/>
   </g>
   <g id="patch_96">
    <path clip-path="url(#p3c368122f5)" d="M 616.66165 768.96 
L 619.099515 768.96 
L 619.099515 693.364578 
L 616.66165 693.364578 
z
" style="fill:#1f77b4;"/>
   </g>
   <g id="patch_97">
    <path clip-path="url(#p3c368122f5)" d="M 621.537379 768.96 
L 623.975243 768.96 
L 623.975243 514.44856 
L 621.537379 514.44856 
z
" style="fill:#1f77b4;"/>
   </g>
   <g id="patch_98">
    <path clip-path="url(#p3c368122f5)" d="M 626.413107 768.96 
L 628.850971 768.96 
L 628.850971 368.570458 
L 626.413107 368.570458 
z
" style="fill:#1f77b4;"/>
   </g>
   <g id="patch_99">
    <path clip-path="url(#p3c368122f5)" d="M 631.288835 768.96 
L 633.726699 768.96 
L 633.726699 328.25253 
L 631.288835 328.25253 
z
" style="fill:#1f77b4;"/>
   </g>
   <g id="patch_100">
    <path clip-path="url(#p3c368122f5)" d="M 636.164563 768.96 
L 638.602427 768.96 
L 638.602427 240.23663 
L 636.164563 240.23663 
z
" style="fill:#1f77b4;"/>
   </g>
   <g id="patch_101">
    <path clip-path="url(#p3c368122f5)" d="M 641.040291 768.96 
L 643.478155 768.96 
L 643.478155 135.36 
L 641.040291 135.36 
z
" style="fill:#1f77b4;"/>
   </g>
   <g id="patch_102">
    <path clip-path="url(#p3c368122f5)" d="M 645.916019 768.96 
L 648.353883 768.96 
L 648.353883 335.543656 
L 645.916019 335.543656 
z
" style="fill:#1f77b4;"/>
   </g>
   <g id="patch_103">
    <path clip-path="url(#p3c368122f5)" d="M 650.791748 768.96 
L 653.229612 768.96 
L 653.229612 556.016872 
L 650.791748 556.016872 
z
" style="fill:#1f77b4;"/>
   </g>
   <g id="patch_104">
    <path clip-path="url(#p3c368122f5)" d="M 655.667476 768.96 
L 658.10534 768.96 
L 658.10534 416.068368 
L 655.667476 416.068368 
z
" style="fill:#1f77b4;"/>
   </g>
   <g id="patch_105">
    <path clip-path="url(#p3c368122f5)" d="M 660.543204 768.96 
L 662.981068 768.96 
L 662.981068 336.688452 
L 660.543204 336.688452 
z
" style="fill:#1f77b4;"/>
   </g>
   <g id="patch_106">
    <path clip-path="url(#p3c368122f5)" d="M 665.418932 768.96 
L 667.856796 768.96 
L 667.856796 398.457408 
L 665.418932 398.457408 
z
" style="fill:#1f77b4;"/>
   </g>
   <g id="patch_107">
    <path clip-path="url(#p3c368122f5)" d="M 670.29466 768.96 
L 672.732524 768.96 
L 672.732524 269.056585 
L 670.29466 269.056585 
z
" style="fill:#1f77b4;"/>
   </g>
   <g id="patch_108">
    <path clip-path="url(#p3c368122f5)" d="M 675.170388 768.96 
L 677.608252 768.96 
L 677.608252 272.324255 
L 675.170388 272.324255 
z
" style="fill:#1f77b4;"/>
   </g>
   <g id="patch_109">
    <path clip-path="url(#p3c368122f5)" d="M 680.046117 768.96 
L 682.483981 768.96 
L 682.483981 414.112212 
L 680.046117 414.112212 
z
" style="fill:#1f77b4;"/>
   </g>
   <g id="patch_110">
    <path clip-path="url(#p3c368122f5)" d="M 684.921845 768.96 
L 687.359709 768.96 
L 687.359709 566.069958 
L 684.921845 566.069958 
z
" style="fill:#1f77b4;"/>
   </g>
   <g id="patch_111">
    <path clip-path="url(#p3c368122f5)" d="M 689.797573 768.96 
L 692.235437 768.96 
L 692.235437 481.49956 
L 689.797573 481.49956 
z
" style="fill:#1f77b4;"/>
   </g>
   <g id="patch_112">
    <path clip-path="url(#p3c368122f5)" d="M 694.673301 768.96 
L 697.111165 768.96 
L 697.111165 301.61102 
L 694.673301 301.61102 
z
" style="fill:#1f77b4;"/>
   </g>
   <g id="patch_113">
    <path clip-path="url(#p3c368122f5)" d="M 699.549029 768.96 
L 701.986893 768.96 
L 701.986893 350.931712 
L 699.549029 350.931712 
z
" style="fill:#1f77b4;"/>
   </g>
   <g id="patch_114">
    <path clip-path="url(#p3c368122f5)" d="M 704.424757 768.96 
L 706.862621 768.96 
L 706.862621 327.741262 
L 704.424757 327.741262 
z
" style="fill:#1f77b4;"/>
   </g>
   <g id="patch_115">
    <path clip-path="url(#p3c368122f5)" d="M 709.300485 768.96 
L 711.73835 768.96 
L 711.73835 353.287991 
L 709.300485 353.287991 
z
" style="fill:#1f77b4;"/>
   </g>
   <g id="patch_116">
    <path clip-path="url(#p3c368122f5)" d="M 714.176214 768.96 
L 716.614078 768.96 
L 716.614078 485.96204 
L 714.176214 485.96204 
z
" style="fill:#1f77b4;"/>
   </g>
   <g id="patch_117">
    <path clip-path="url(#p3c368122f5)" d="M 719.051942 768.96 
L 721.489806 768.96 
L 721.489806 645.933356 
L 719.051942 645.933356 
z
" style="fill:#1f77b4;"/>
   </g>
   <g id="patch_118">
    <path clip-path="url(#p3c368122f5)" d="M 723.92767 768.96 
L 726.365534 768.96 
L 726.365534 513.442696 
L 723.92767 513.442696 
z
" style="fill:#1f77b4;"/>
   </g>
   <g id="patch_119">
    <path clip-path="url(#p3c368122f5)" d="M 728.803398 768.96 
L 731.241262 768.96 
L 731.241262 403.725692 
L 728.803398 403.725692 
z
" style="fill:#1f77b4;"/>
   </g>
   <g id="patch_120">
    <path clip-path="url(#p3c368122f5)" d="M 733.679126 768.96 
L 736.11699 768.96 
L 736.11699 387.47626 
L 733.679126 387.47626 
z
" style="fill:#1f77b4;"/>
   </g>
   <g id="patch_121">
    <path clip-path="url(#p3c368122f5)" d="M 738.554854 768.96 
L 740.992718 768.96 
L 740.992718 399.046478 
L 738.554854 399.046478 
z
" style="fill:#1f77b4;"/>
   </g>
   <g id="patch_122">
    <path clip-path="url(#p3c368122f5)" d="M 743.430583 768.96 
L 745.868447 768.96 
L 745.868447 454.213408 
L 743.430583 454.213408 
z
" style="fill:#1f77b4;"/>
   </g>
   <g id="patch_123">
    <path clip-path="url(#p3c368122f5)" d="M 748.306311 768.96 
L 750.744175 768.96 
L 750.744175 625.08807 
L 748.306311 625.08807 
z
" style="fill:#1f77b4;"/>
   </g>
   <g id="patch_124">
    <path clip-path="url(#p3c368122f5)" d="M 753.182039 768.96 
L 755.619903 768.96 
L 755.619903 719.872713 
L 753.182039 719.872713 
z
" style="fill:#1f77b4;"/>
   </g>
   <g id="patch_125">
    <path clip-path="url(#p3c368122f5)" d="M 758.057767 768.96 
L 760.495631 768.96 
L 760.495631 616.313154 
L 758.057767 616.313154 
z
" style="fill:#1f77b4;"/>
   </g>
   <g id="patch_126">
    <path clip-path="url(#p3c368122f5)" d="M 762.933495 768.96 
L 765.371359 768.96 
L 765.371359 365.925202 
L 762.933495 365.925202 
z
" style="fill:#1f77b4;"/>
   </g>
   <g id="patch_127">
    <path clip-path="url(#p3c368122f5)" d="M 767.809223 768.96 
L 770.247087 768.96 
L 770.247087 373.988788 
L 767.809223 373.988788 
z
" style="fill:#1f77b4;"/>
   </g>
   <g id="patch_128">
    <path clip-path="url(#p3c368122f5)" d="M 772.684951 768.96 
L 775.122816 768.96 
L 775.122816 471.935513 
L 772.684951 471.935513 
z
" style="fill:#1f77b4;"/>
   </g>
   <g id="patch_129">
    <path clip-path="url(#p3c368122f5)" d="M 777.56068 768.96 
L 779.998544 768.96 
L 779.998544 326.563122 
L 777.56068 326.563122 
z
" style="fill:#1f77b4;"/>
   </g>
   <g id="patch_130">
    <path clip-path="url(#p3c368122f5)" d="M 782.436408 768.96 
L 784.874272 768.96 
L 784.874272 467.650865 
L 782.436408 467.650865 
z
" style="fill:#1f77b4;"/>
   </g>
   <g id="patch_131">
    <path clip-path="url(#p3c368122f5)" d="M 787.312136 768.96 
L 789.75 768.96 
L 789.75 502.950587 
L 787.312136 502.950587 
z
" style="fill:#1f77b4;"/>
   </g>
   <g id="patch_132">
    <path clip-path="url(#p3c368122f5)" d="M 792.187864 768.96 
L 794.625728 768.96 
L 794.625728 545.296916 
L 792.187864 545.296916 
z
" style="fill:#1f77b4;"/>
   </g>
   <g id="patch_133">
    <path clip-path="url(#p3c368122f5)" d="M 797.063592 768.96 
L 799.501456 768.96 
L 799.501456 463.205056 
L 797.063592 463.205056 
z
" style="fill:#1f77b4;"/>
   </g>
   <g id="patch_134">
    <path clip-path="url(#p3c368122f5)" d="M 801.93932 768.96 
L 804.377184 768.96 
L 804.377184 495.487185 
L 801.93932 495.487185 
z
" style="fill:#1f77b4;"/>
   </g>
   <g id="patch_135">
    <path clip-path="url(#p3c368122f5)" d="M 806.815049 768.96 
L 809.252913 768.96 
L 809.252913 483.416815 
L 806.815049 483.416815 
z
" style="fill:#1f77b4;"/>
   </g>
   <g id="patch_136">
    <path clip-path="url(#p3c368122f5)" d="M 811.690777 768.96 
L 814.128641 768.96 
L 814.128641 365.791828 
L 811.690777 365.791828 
z
" style="fill:#1f77b4;"/>
   </g>
   <g id="patch_137">
    <path clip-path="url(#p3c368122f5)" d="M 816.566505 768.96 
L 819.004369 768.96 
L 819.004369 536.144107 
L 816.566505 536.144107 
z
" style="fill:#1f77b4;"/>
   </g>
   <g id="patch_138">
    <path clip-path="url(#p3c368122f5)" d="M 821.442233 768.96 
L 823.880097 768.96 
L 823.880097 673.358439 
L 821.442233 673.358439 
z
" style="fill:#1f77b4;"/>
   </g>
   <g id="patch_139">
    <path clip-path="url(#p3c368122f5)" d="M 826.317961 768.96 
L 828.755825 768.96 
L 828.755825 608.727493 
L 826.317961 608.727493 
z
" style="fill:#1f77b4;"/>
   </g>
   <g id="patch_140">
    <path clip-path="url(#p3c368122f5)" d="M 831.193689 768.96 
L 833.631553 768.96 
L 833.631553 473.508218 
L 831.193689 473.508218 
z
" style="fill:#1f77b4;"/>
   </g>
   <g id="patch_141">
    <path clip-path="url(#p3c368122f5)" d="M 836.069417 768.96 
L 838.507282 768.96 
L 838.507282 506.685066 
L 836.069417 506.685066 
z
" style="fill:#1f77b4;"/>
   </g>
   <g id="patch_142">
    <path clip-path="url(#p3c368122f5)" d="M 840.945146 768.96 
L 843.38301 768.96 
L 843.38301 431.000729 
L 840.945146 431.000729 
z
" style="fill:#1f77b4;"/>
   </g>
   <g id="patch_143">
    <path clip-path="url(#p3c368122f5)" d="M 845.820874 768.96 
L 848.258738 768.96 
L 848.258738 534.010119 
L 845.820874 534.010119 
z
" style="fill:#1f77b4;"/>
   </g>
   <g id="patch_144">
    <path clip-path="url(#p3c368122f5)" d="M 850.696602 768.96 
L 853.134466 768.96 
L 853.134466 585.042447 
L 850.696602 585.042447 
z
" style="fill:#1f77b4;"/>
   </g>
   <g id="patch_145">
    <path clip-path="url(#p3c368122f5)" d="M 855.57233 768.96 
L 858.010194 768.96 
L 858.010194 678.515577 
L 855.57233 678.515577 
z
" style="fill:#1f77b4;"/>
   </g>
   <g id="patch_146">
    <path clip-path="url(#p3c368122f5)" d="M 860.448058 768.96 
L 862.885922 768.96 
L 862.885922 620.892338 
L 860.448058 620.892338 
z
" style="fill:#1f77b4;"/>
   </g>
   <g id="patch_147">
    <path clip-path="url(#p3c368122f5)" d="M 865.323786 768.96 
L 867.76165 768.96 
L 867.76165 593.722888 
L 865.323786 593.722888 
z
" style="fill:#1f77b4;"/>
   </g>
   <g id="patch_148">
    <path clip-path="url(#p3c368122f5)" d="M 870.199515 768.96 
L 872.637379 768.96 
L 872.637379 590.605265 
L 870.199515 590.605265 
z
" style="fill:#1f77b4;"/>
   </g>
   <g id="patch_149">
    <path clip-path="url(#p3c368122f5)" d="M 875.075243 768.96 
L 877.513107 768.96 
L 877.513107 583.936552 
L 875.075243 583.936552 
z
" style="fill:#1f77b4;"/>
   </g>
   <g id="patch_150">
    <path clip-path="url(#p3c368122f5)" d="M 879.950971 768.96 
L 882.388835 768.96 
L 882.388835 599.341279 
L 879.950971 599.341279 
z
" style="fill:#1f77b4;"/>
   </g>
   <g id="patch_151">
    <path clip-path="url(#p3c368122f5)" d="M 884.826699 768.96 
L 887.264563 768.96 
L 887.264563 653.780208 
L 884.826699 653.780208 
z
" style="fill:#1f77b4;"/>
   </g>
   <g id="patch_152">
    <path clip-path="url(#p3c368122f5)" d="M 889.702427 768.96 
L 892.140291 768.96 
L 892.140291 712.381526 
L 889.702427 712.381526 
z
" style="fill:#1f77b4;"/>
   </g>
   <g id="patch_153">
    <path clip-path="url(#p3c368122f5)" d="M 894.578155 768.96 
L 897.016019 768.96 
L 897.016019 720.006088 
L 894.578155 720.006088 
z
" style="fill:#1f77b4;"/>
   </g>
   <g id="patch_154">
    <path clip-path="url(#p3c368122f5)" d="M 899.453883 768.96 
L 901.891748 768.96 
L 901.891748 661.06022 
L 899.453883 661.06022 
z
" style="fill:#1f77b4;"/>
   </g>
   <g id="patch_155">
    <path clip-path="url(#p3c368122f5)" d="M 904.329612 768.96 
L 906.767476 768.96 
L 906.767476 656.180945 
L 904.329612 656.180945 
z
" style="fill:#1f77b4;"/>
   </g>
   <g id="patch_156">
    <path clip-path="url(#p3c368122f5)" d="M 909.20534 768.96 
L 911.643204 768.96 
L 911.643204 604.681807 
L 909.20534 604.681807 
z
" style="fill:#1f77b4;"/>
   </g>
   <g id="patch_157">
    <path clip-path="url(#p3c368122f5)" d="M 914.081068 768.96 
L 916.518932 768.96 
L 916.518932 579.629675 
L 914.081068 579.629675 
z
" style="fill:#1f77b4;"/>
   </g>
   <g id="patch_158">
    <path clip-path="url(#p3c368122f5)" d="M 918.956796 768.96 
L 921.39466 768.96 
L 921.39466 595.073303 
L 918.956796 595.073303 
z
" style="fill:#1f77b4;"/>
   </g>
   <g id="patch_159">
    <path clip-path="url(#p3c368122f5)" d="M 923.832524 768.96 
L 926.270388 768.96 
L 926.270388 650.701486 
L 923.832524 650.701486 
z
" style="fill:#1f77b4;"/>
   </g>
   <g id="patch_160">
    <path clip-path="url(#p3c368122f5)" d="M 928.708252 768.96 
L 931.146117 768.96 
L 931.146117 603.170232 
L 928.708252 603.170232 
z
" style="fill:#1f77b4;"/>
   </g>
   <g id="patch_161">
    <path clip-path="url(#p3c368122f5)" d="M 933.583981 768.96 
L 936.021845 768.96 
L 936.021845 586.581808 
L 933.583981 586.581808 
z
" style="fill:#1f77b4;"/>
   </g>
   <g id="patch_162">
    <path clip-path="url(#p3c368122f5)" d="M 938.459709 768.96 
L 940.897573 768.96 
L 940.897573 555.744567 
L 938.459709 555.744567 
z
" style="fill:#1f77b4;"/>
   </g>
   <g id="patch_163">
    <path clip-path="url(#p3c368122f5)" d="M 943.335437 768.96 
L 945.773301 768.96 
L 945.773301 614.173609 
L 943.335437 614.173609 
z
" style="fill:#1f77b4;"/>
   </g>
   <g id="patch_164">
    <path clip-path="url(#p3c368122f5)" d="M 948.211165 768.96 
L 950.649029 768.96 
L 950.649029 625.343704 
L 948.211165 625.343704 
z
" style="fill:#1f77b4;"/>
   </g>
   <g id="patch_165">
    <path clip-path="url(#p3c368122f5)" d="M 953.086893 768.96 
L 955.524757 768.96 
L 955.524757 682.783553 
L 953.086893 682.783553 
z
" style="fill:#1f77b4;"/>
   </g>
   <g id="patch_166">
    <path clip-path="url(#p3c368122f5)" d="M 957.962621 768.96 
L 960.400485 768.96 
L 960.400485 681.044131 
L 957.962621 681.044131 
z
" style="fill:#1f77b4;"/>
   </g>
   <g id="patch_167">
    <path clip-path="url(#p3c368122f5)" d="M 962.83835 768.96 
L 965.276214 768.96 
L 965.276214 499.966338 
L 962.83835 499.966338 
z
" style="fill:#1f77b4;"/>
   </g>
   <g id="patch_168">
    <path clip-path="url(#p3c368122f5)" d="M 967.714078 768.96 
L 970.151942 768.96 
L 970.151942 572.683098 
L 967.714078 572.683098 
z
" style="fill:#1f77b4;"/>
   </g>
   <g id="patch_169">
    <path clip-path="url(#p3c368122f5)" d="M 972.589806 768.96 
L 975.02767 768.96 
L 975.02767 631.979073 
L 972.589806 631.979073 
z
" style="fill:#1f77b4;"/>
   </g>
   <g id="patch_170">
    <path clip-path="url(#p3c368122f5)" d="M 977.465534 768.96 
L 979.903398 768.96 
L 979.903398 596.957214 
L 977.465534 596.957214 
z
" style="fill:#1f77b4;"/>
   </g>
   <g id="patch_171">
    <path clip-path="url(#p3c368122f5)" d="M 982.341262 768.96 
L 984.779126 768.96 
L 984.779126 680.738481 
L 982.341262 680.738481 
z
" style="fill:#1f77b4;"/>
   </g>
   <g id="patch_172">
    <path clip-path="url(#p3c368122f5)" d="M 987.21699 768.96 
L 989.654854 768.96 
L 989.654854 637.05841 
L 987.21699 637.05841 
z
" style="fill:#1f77b4;"/>
   </g>
   <g id="patch_173">
    <path clip-path="url(#p3c368122f5)" d="M 992.092718 768.96 
L 994.530583 768.96 
L 994.530583 711.681311 
L 992.092718 711.681311 
z
" style="fill:#1f77b4;"/>
   </g>
   <g id="patch_174">
    <path clip-path="url(#p3c368122f5)" d="M 996.968447 768.96 
L 999.406311 768.96 
L 999.406311 697.98822 
L 996.968447 697.98822 
z
" style="fill:#1f77b4;"/>
   </g>
   <g id="patch_175">
    <path clip-path="url(#p3c368122f5)" d="M 1001.844175 768.96 
L 1004.282039 768.96 
L 1004.282039 684.828626 
L 1001.844175 684.828626 
z
" style="fill:#1f77b4;"/>
   </g>
   <g id="patch_176">
    <path clip-path="url(#p3c368122f5)" d="M 1006.719903 768.96 
L 1009.157767 768.96 
L 1009.157767 663.594331 
L 1006.719903 663.594331 
z
" style="fill:#1f77b4;"/>
   </g>
   <g id="patch_177">
    <path clip-path="url(#p3c368122f5)" d="M 1011.595631 768.96 
L 1014.033495 768.96 
L 1014.033495 644.560712 
L 1011.595631 644.560712 
z
" style="fill:#1f77b4;"/>
   </g>
   <g id="patch_178">
    <path clip-path="url(#p3c368122f5)" d="M 1016.471359 768.96 
L 1018.909223 768.96 
L 1018.909223 494.025626 
L 1016.471359 494.025626 
z
" style="fill:#1f77b4;"/>
   </g>
   <g id="patch_179">
    <path clip-path="url(#p3c368122f5)" d="M 1021.347087 768.96 
L 1023.784951 768.96 
L 1023.784951 442.265297 
L 1021.347087 442.265297 
z
" style="fill:#1f77b4;"/>
   </g>
   <g id="patch_180">
    <path clip-path="url(#p3c368122f5)" d="M 1026.222816 768.96 
L 1028.66068 768.96 
L 1028.66068 739.428715 
L 1026.222816 739.428715 
z
" style="fill:#1f77b4;"/>
   </g>
   <g id="patch_181">
    <path clip-path="url(#p3c368122f5)" d="M 1031.098544 768.96 
L 1033.536408 768.96 
L 1033.536408 696.148766 
L 1031.098544 696.148766 
z
" style="fill:#1f77b4;"/>
   </g>
   <g id="patch_182">
    <path clip-path="url(#p3c368122f5)" d="M 1035.974272 768.96 
L 1038.412136 768.96 
L 1038.412136 677.437468 
L 1035.974272 677.437468 
z
" style="fill:#1f77b4;"/>
   </g>
   <g id="patch_183">
    <path clip-path="url(#p3c368122f5)" d="M 1040.85 768.96 
L 1043.287864 768.96 
L 1043.287864 679.871549 
L 1040.85 679.871549 
z
" style="fill:#1f77b4;"/>
   </g>
   <g id="patch_184">
    <path clip-path="url(#p3c368122f5)" d="M 1045.725728 768.96 
L 1048.163592 768.96 
L 1048.163592 688.151868 
L 1045.725728 688.151868 
z
" style="fill:#1f77b4;"/>
   </g>
   <g id="patch_185">
    <path clip-path="url(#p3c368122f5)" d="M 1050.601456 768.96 
L 1053.03932 768.96 
L 1053.03932 683.739402 
L 1050.601456 683.739402 
z
" style="fill:#1f77b4;"/>
   </g>
   <g id="patch_186">
    <path clip-path="url(#p3c368122f5)" d="M 1055.477184 768.96 
L 1057.915049 768.96 
L 1057.915049 710.969981 
L 1055.477184 710.969981 
z
" style="fill:#1f77b4;"/>
   </g>
   <g id="patch_187">
    <path clip-path="url(#p3c368122f5)" d="M 1060.352913 768.96 
L 1062.790777 768.96 
L 1062.790777 741.279283 
L 1060.352913 741.279283 
z
" style="fill:#1f77b4;"/>
   </g>
   <g id="patch_188">
    <path clip-path="url(#p3c368122f5)" d="M 1065.228641 768.96 
L 1067.666505 768.96 
L 1067.666505 764.47529 
L 1065.228641 764.47529 
z
" style="fill:#1f77b4;"/>
   </g>
   <g id="patch_189">
    <path clip-path="url(#p3c368122f5)" d="M 1070.104369 768.96 
L 1072.542233 768.96 
L 1072.542233 723.129268 
L 1070.104369 723.129268 
z
" style="fill:#1f77b4;"/>
   </g>
   <g id="patch_190">
    <path clip-path="url(#p3c368122f5)" d="M 1074.980097 768.96 
L 1077.417961 768.96 
L 1077.417961 687.86289 
L 1074.980097 687.86289 
z
" style="fill:#1f77b4;"/>
   </g>
   <g id="patch_191">
    <path clip-path="url(#p3c368122f5)" d="M 1079.855825 768.96 
L 1082.293689 768.96 
L 1082.293689 687.773974 
L 1079.855825 687.773974 
z
" style="fill:#1f77b4;"/>
   </g>
   <g id="patch_192">
    <path clip-path="url(#p3c368122f5)" d="M 1084.731553 768.96 
L 1087.169417 768.96 
L 1087.169417 697.693685 
L 1084.731553 697.693685 
z
" style="fill:#1f77b4;"/>
   </g>
   <g id="patch_193">
    <path clip-path="url(#p3c368122f5)" d="M 1089.607282 768.96 
L 1092.045146 768.96 
L 1092.045146 709.191658 
L 1089.607282 709.191658 
z
" style="fill:#1f77b4;"/>
   </g>
   <g id="patch_194">
    <path clip-path="url(#p3c368122f5)" d="M 1094.48301 768.96 
L 1096.920874 768.96 
L 1096.920874 728.931049 
L 1094.48301 728.931049 
z
" style="fill:#1f77b4;"/>
   </g>
   <g id="patch_195">
    <path clip-path="url(#p3c368122f5)" d="M 1099.358738 768.96 
L 1101.796602 768.96 
L 1101.796602 693.353464 
L 1099.358738 693.353464 
z
" style="fill:#1f77b4;"/>
   </g>
   <g id="patch_196">
    <path clip-path="url(#p3c368122f5)" d="M 1104.234466 768.96 
L 1106.67233 768.96 
L 1106.67233 705.751713 
L 1104.234466 705.751713 
z
" style="fill:#1f77b4;"/>
   </g>
   <g id="patch_197">
    <path clip-path="url(#p3c368122f5)" d="M 1109.110194 768.96 
L 1111.548058 768.96 
L 1111.548058 708.785978 
L 1109.110194 708.785978 
z
" style="fill:#1f77b4;"/>
   </g>
   <g id="patch_198">
    <path clip-path="url(#p3c368122f5)" d="M 1113.985922 768.96 
L 1116.423786 768.96 
L 1116.423786 708.402527 
L 1113.985922 708.402527 
z
" style="fill:#1f77b4;"/>
   </g>
   <g id="patch_199">
    <path clip-path="url(#p3c368122f5)" d="M 1118.86165 768.96 
L 1121.299515 768.96 
L 1121.299515 708.663718 
L 1118.86165 708.663718 
z
" style="fill:#1f77b4;"/>
   </g>
   <g id="patch_200">
    <path clip-path="url(#p3c368122f5)" d="M 1123.737379 768.96 
L 1126.175243 768.96 
L 1126.175243 719.316987 
L 1123.737379 719.316987 
z
" style="fill:#1f77b4;"/>
   </g>
   <g id="patch_201">
    <path clip-path="url(#p3c368122f5)" d="M 1128.613107 768.96 
L 1131.050971 768.96 
L 1131.050971 741.190367 
L 1128.613107 741.190367 
z
" style="fill:#1f77b4;"/>
   </g>
   <g id="patch_202">
    <path clip-path="url(#p3c368122f5)" d="M 1133.488835 768.96 
L 1135.926699 768.96 
L 1135.926699 718.450055 
L 1133.488835 718.450055 
z
" style="fill:#1f77b4;"/>
   </g>
   <g id="patch_203">
    <path clip-path="url(#p3c368122f5)" d="M 1138.364563 768.96 
L 1140.802427 768.96 
L 1140.802427 701.189202 
L 1138.364563 701.189202 
z
" style="fill:#1f77b4;"/>
   </g>
   <g id="patch_204">
    <path clip-path="url(#p3c368122f5)" d="M 1143.240291 768.96 
L 1145.678155 768.96 
L 1145.678155 705.968446 
L 1143.240291 705.968446 
z
" style="fill:#1f77b4;"/>
   </g>
   <g id="patch_205">
    <path clip-path="url(#p3c368122f5)" d="M 1148.116019 768.96 
L 1150.553883 768.96 
L 1150.553883 722.162305 
L 1148.116019 722.162305 
z
" style="fill:#1f77b4;"/>
   </g>
   <g id="patch_206">
    <path clip-path="url(#p3c368122f5)" d="M 1152.991748 768.96 
L 1155.429612 768.96 
L 1155.429612 722.301237 
L 1152.991748 722.301237 
z
" style="fill:#1f77b4;"/>
   </g>
   <g id="patch_207">
    <path clip-path="url(#p3c368122f5)" d="M 1157.867476 768.96 
L 1160.30534 768.96 
L 1160.30534 739.856624 
L 1157.867476 739.856624 
z
" style="fill:#1f77b4;"/>
   </g>
   <g id="patch_208">
    <path clip-path="url(#p3c368122f5)" d="M 1162.743204 768.96 
L 1165.181068 768.96 
L 1165.181068 752.78837 
L 1162.743204 752.78837 
z
" style="fill:#1f77b4;"/>
   </g>
   <g id="matplotlib.axis_1">
    <g id="xtick_1">
     <g id="line2d_1">
      <defs>
       <path d="M 0 0 
L 0 3.5 
" id="m9f9e42fab6" style="stroke:#000000;stroke-width:0.8;"/>
      </defs>
      <g>
       <use style="stroke:#000000;stroke-width:0.8;" x="164.437864" xlink:href="#m9f9e42fab6" y="768.96"/>
      </g>
     </g>
     <g id="text_1">
      <!-- January -->
      <g transform="translate(145.482395 783.558437)scale(0.1 -0.1)">
       <defs>
        <path d="M 628 4666 
L 1259 4666 
L 1259 325 
Q 1259 -519 939 -900 
Q 619 -1281 -91 -1281 
L -331 -1281 
L -331 -750 
L -134 -750 
Q 284 -750 456 -515 
Q 628 -281 628 325 
L 628 4666 
z
" id="DejaVuSans-4a" transform="scale(0.015625)"/>
        <path d="M 2194 1759 
Q 1497 1759 1228 1600 
Q 959 1441 959 1056 
Q 959 750 1161 570 
Q 1363 391 1709 391 
Q 2188 391 2477 730 
Q 2766 1069 2766 1631 
L 2766 1759 
L 2194 1759 
z
M 3341 1997 
L 3341 0 
L 2766 0 
L 2766 531 
Q 2569 213 2275 61 
Q 1981 -91 1556 -91 
Q 1019 -91 701 211 
Q 384 513 384 1019 
Q 384 1609 779 1909 
Q 1175 2209 1959 2209 
L 2766 2209 
L 2766 2266 
Q 2766 2663 2505 2880 
Q 2244 3097 1772 3097 
Q 1472 3097 1187 3025 
Q 903 2953 641 2809 
L 641 3341 
Q 956 3463 1253 3523 
Q 1550 3584 1831 3584 
Q 2591 3584 2966 3190 
Q 3341 2797 3341 1997 
z
" id="DejaVuSans-61" transform="scale(0.015625)"/>
        <path d="M 3513 2113 
L 3513 0 
L 2938 0 
L 2938 2094 
Q 2938 2591 2744 2837 
Q 2550 3084 2163 3084 
Q 1697 3084 1428 2787 
Q 1159 2491 1159 1978 
L 1159 0 
L 581 0 
L 581 3500 
L 1159 3500 
L 1159 2956 
Q 1366 3272 1645 3428 
Q 1925 3584 2291 3584 
Q 2894 3584 3203 3211 
Q 3513 2838 3513 2113 
z
" id="DejaVuSans-6e" transform="scale(0.015625)"/>
        <path d="M 544 1381 
L 544 3500 
L 1119 3500 
L 1119 1403 
Q 1119 906 1312 657 
Q 1506 409 1894 409 
Q 2359 409 2629 706 
Q 2900 1003 2900 1516 
L 2900 3500 
L 3475 3500 
L 3475 0 
L 2900 0 
L 2900 538 
Q 2691 219 2414 64 
Q 2138 -91 1772 -91 
Q 1169 -91 856 284 
Q 544 659 544 1381 
z
M 1991 3584 
L 1991 3584 
z
" id="DejaVuSans-75" transform="scale(0.015625)"/>
        <path d="M 2631 2963 
Q 2534 3019 2420 3045 
Q 2306 3072 2169 3072 
Q 1681 3072 1420 2755 
Q 1159 2438 1159 1844 
L 1159 0 
L 581 0 
L 581 3500 
L 1159 3500 
L 1159 2956 
Q 1341 3275 1631 3429 
Q 1922 3584 2338 3584 
Q 2397 3584 2469 3576 
Q 2541 3569 2628 3553 
L 2631 2963 
z
" id="DejaVuSans-72" transform="scale(0.015625)"/>
        <path d="M 2059 -325 
Q 1816 -950 1584 -1140 
Q 1353 -1331 966 -1331 
L 506 -1331 
L 506 -850 
L 844 -850 
Q 1081 -850 1212 -737 
Q 1344 -625 1503 -206 
L 1606 56 
L 191 3500 
L 800 3500 
L 1894 763 
L 2988 3500 
L 3597 3500 
L 2059 -325 
z
" id="DejaVuSans-79" transform="scale(0.015625)"/>
       </defs>
       <use xlink:href="#DejaVuSans-4a"/>
       <use x="29.492188" xlink:href="#DejaVuSans-61"/>
       <use x="90.771484" xlink:href="#DejaVuSans-6e"/>
       <use x="154.150391" xlink:href="#DejaVuSans-75"/>
       <use x="217.529297" xlink:href="#DejaVuSans-61"/>
       <use x="278.808594" xlink:href="#DejaVuSans-72"/>
       <use x="319.921875" xlink:href="#DejaVuSans-79"/>
      </g>
     </g>
    </g>
    <g id="xtick_2">
     <g id="line2d_2">
      <g>
       <use style="stroke:#000000;stroke-width:0.8;" x="315.585437" xlink:href="#m9f9e42fab6" y="768.96"/>
      </g>
     </g>
     <g id="text_2">
      <!-- February -->
      <g transform="translate(293.430749 783.558437)scale(0.1 -0.1)">
       <defs>
        <path d="M 628 4666 
L 3309 4666 
L 3309 4134 
L 1259 4134 
L 1259 2759 
L 3109 2759 
L 3109 2228 
L 1259 2228 
L 1259 0 
L 628 0 
L 628 4666 
z
" id="DejaVuSans-46" transform="scale(0.015625)"/>
        <path d="M 3597 1894 
L 3597 1613 
L 953 1613 
Q 991 1019 1311 708 
Q 1631 397 2203 397 
Q 2534 397 2845 478 
Q 3156 559 3463 722 
L 3463 178 
Q 3153 47 2828 -22 
Q 2503 -91 2169 -91 
Q 1331 -91 842 396 
Q 353 884 353 1716 
Q 353 2575 817 3079 
Q 1281 3584 2069 3584 
Q 2775 3584 3186 3129 
Q 3597 2675 3597 1894 
z
M 3022 2063 
Q 3016 2534 2758 2815 
Q 2500 3097 2075 3097 
Q 1594 3097 1305 2825 
Q 1016 2553 972 2059 
L 3022 2063 
z
" id="DejaVuSans-65" transform="scale(0.015625)"/>
        <path d="M 3116 1747 
Q 3116 2381 2855 2742 
Q 2594 3103 2138 3103 
Q 1681 3103 1420 2742 
Q 1159 2381 1159 1747 
Q 1159 1113 1420 752 
Q 1681 391 2138 391 
Q 2594 391 2855 752 
Q 3116 1113 3116 1747 
z
M 1159 2969 
Q 1341 3281 1617 3432 
Q 1894 3584 2278 3584 
Q 2916 3584 3314 3078 
Q 3713 2572 3713 1747 
Q 3713 922 3314 415 
Q 2916 -91 2278 -91 
Q 1894 -91 1617 61 
Q 1341 213 1159 525 
L 1159 0 
L 581 0 
L 581 4863 
L 1159 4863 
L 1159 2969 
z
" id="DejaVuSans-62" transform="scale(0.015625)"/>
       </defs>
       <use xlink:href="#DejaVuSans-46"/>
       <use x="52.019531" xlink:href="#DejaVuSans-65"/>
       <use x="113.542969" xlink:href="#DejaVuSans-62"/>
       <use x="177.019531" xlink:href="#DejaVuSans-72"/>
       <use x="218.132812" xlink:href="#DejaVuSans-75"/>
       <use x="281.511719" xlink:href="#DejaVuSans-61"/>
       <use x="342.791016" xlink:href="#DejaVuSans-72"/>
       <use x="383.904297" xlink:href="#DejaVuSans-79"/>
      </g>
     </g>
    </g>
    <g id="xtick_3">
     <g id="line2d_3">
      <g>
       <use style="stroke:#000000;stroke-width:0.8;" x="452.105825" xlink:href="#m9f9e42fab6" y="768.96"/>
      </g>
     </g>
     <g id="text_3">
      <!-- March -->
      <g transform="translate(436.866763 783.558437)scale(0.1 -0.1)">
       <defs>
        <path d="M 628 4666 
L 1569 4666 
L 2759 1491 
L 3956 4666 
L 4897 4666 
L 4897 0 
L 4281 0 
L 4281 4097 
L 3078 897 
L 2444 897 
L 1241 4097 
L 1241 0 
L 628 0 
L 628 4666 
z
" id="DejaVuSans-4d" transform="scale(0.015625)"/>
        <path d="M 3122 3366 
L 3122 2828 
Q 2878 2963 2633 3030 
Q 2388 3097 2138 3097 
Q 1578 3097 1268 2742 
Q 959 2388 959 1747 
Q 959 1106 1268 751 
Q 1578 397 2138 397 
Q 2388 397 2633 464 
Q 2878 531 3122 666 
L 3122 134 
Q 2881 22 2623 -34 
Q 2366 -91 2075 -91 
Q 1284 -91 818 406 
Q 353 903 353 1747 
Q 353 2603 823 3093 
Q 1294 3584 2113 3584 
Q 2378 3584 2631 3529 
Q 2884 3475 3122 3366 
z
" id="DejaVuSans-63" transform="scale(0.015625)"/>
        <path d="M 3513 2113 
L 3513 0 
L 2938 0 
L 2938 2094 
Q 2938 2591 2744 2837 
Q 2550 3084 2163 3084 
Q 1697 3084 1428 2787 
Q 1159 2491 1159 1978 
L 1159 0 
L 581 0 
L 581 4863 
L 1159 4863 
L 1159 2956 
Q 1366 3272 1645 3428 
Q 1925 3584 2291 3584 
Q 2894 3584 3203 3211 
Q 3513 2838 3513 2113 
z
" id="DejaVuSans-68" transform="scale(0.015625)"/>
       </defs>
       <use xlink:href="#DejaVuSans-4d"/>
       <use x="86.279297" xlink:href="#DejaVuSans-61"/>
       <use x="147.558594" xlink:href="#DejaVuSans-72"/>
       <use x="186.421875" xlink:href="#DejaVuSans-63"/>
       <use x="241.402344" xlink:href="#DejaVuSans-68"/>
      </g>
     </g>
    </g>
    <g id="xtick_4">
     <g id="line2d_4">
      <g>
       <use style="stroke:#000000;stroke-width:0.8;" x="603.253398" xlink:href="#m9f9e42fab6" y="768.96"/>
      </g>
     </g>
     <g id="text_4">
      <!-- April -->
      <g transform="translate(591.825273 783.558437)scale(0.1 -0.1)">
       <defs>
        <path d="M 2188 4044 
L 1331 1722 
L 3047 1722 
L 2188 4044 
z
M 1831 4666 
L 2547 4666 
L 4325 0 
L 3669 0 
L 3244 1197 
L 1141 1197 
L 716 0 
L 50 0 
L 1831 4666 
z
" id="DejaVuSans-41" transform="scale(0.015625)"/>
        <path d="M 1159 525 
L 1159 -1331 
L 581 -1331 
L 581 3500 
L 1159 3500 
L 1159 2969 
Q 1341 3281 1617 3432 
Q 1894 3584 2278 3584 
Q 2916 3584 3314 3078 
Q 3713 2572 3713 1747 
Q 3713 922 3314 415 
Q 2916 -91 2278 -91 
Q 1894 -91 1617 61 
Q 1341 213 1159 525 
z
M 3116 1747 
Q 3116 2381 2855 2742 
Q 2594 3103 2138 3103 
Q 1681 3103 1420 2742 
Q 1159 2381 1159 1747 
Q 1159 1113 1420 752 
Q 1681 391 2138 391 
Q 2594 391 2855 752 
Q 3116 1113 3116 1747 
z
" id="DejaVuSans-70" transform="scale(0.015625)"/>
        <path d="M 603 3500 
L 1178 3500 
L 1178 0 
L 603 0 
L 603 3500 
z
M 603 4863 
L 1178 4863 
L 1178 4134 
L 603 4134 
L 603 4863 
z
" id="DejaVuSans-69" transform="scale(0.015625)"/>
        <path d="M 603 4863 
L 1178 4863 
L 1178 0 
L 603 0 
L 603 4863 
z
" id="DejaVuSans-6c" transform="scale(0.015625)"/>
       </defs>
       <use xlink:href="#DejaVuSans-41"/>
       <use x="68.408203" xlink:href="#DejaVuSans-70"/>
       <use x="131.884766" xlink:href="#DejaVuSans-72"/>
       <use x="172.998047" xlink:href="#DejaVuSans-69"/>
       <use x="200.78125" xlink:href="#DejaVuSans-6c"/>
      </g>
     </g>
    </g>
    <g id="xtick_5">
     <g id="line2d_5">
      <g>
       <use style="stroke:#000000;stroke-width:0.8;" x="749.525243" xlink:href="#m9f9e42fab6" y="768.96"/>
      </g>
     </g>
     <g id="text_5">
      <!-- May -->
      <g transform="translate(739.187743 783.558437)scale(0.1 -0.1)">
       <use xlink:href="#DejaVuSans-4d"/>
       <use x="86.279297" xlink:href="#DejaVuSans-61"/>
       <use x="147.558594" xlink:href="#DejaVuSans-79"/>
      </g>
     </g>
    </g>
    <g id="xtick_6">
     <g id="line2d_6">
      <g>
       <use style="stroke:#000000;stroke-width:0.8;" x="900.672816" xlink:href="#m9f9e42fab6" y="768.96"/>
      </g>
     </g>
     <g id="text_6">
      <!-- June -->
      <g transform="translate(889.783753 783.558437)scale(0.1 -0.1)">
       <use xlink:href="#DejaVuSans-4a"/>
       <use x="29.492188" xlink:href="#DejaVuSans-75"/>
       <use x="92.871094" xlink:href="#DejaVuSans-6e"/>
       <use x="156.25" xlink:href="#DejaVuSans-65"/>
      </g>
     </g>
    </g>
    <g id="xtick_7">
     <g id="line2d_7">
      <g>
       <use style="stroke:#000000;stroke-width:0.8;" x="1046.94466" xlink:href="#m9f9e42fab6" y="768.96"/>
      </g>
     </g>
     <g id="text_7">
      <!-- July -->
      <g transform="translate(1037.952473 783.558437)scale(0.1 -0.1)">
       <use xlink:href="#DejaVuSans-4a"/>
       <use x="29.492188" xlink:href="#DejaVuSans-75"/>
       <use x="92.871094" xlink:href="#DejaVuSans-6c"/>
       <use x="120.654297" xlink:href="#DejaVuSans-79"/>
      </g>
     </g>
    </g>
   </g>
   <g id="matplotlib.axis_2">
    <g id="ytick_1">
     <g id="line2d_8">
      <defs>
       <path d="M 0 0 
L -3.5 0 
" id="m0da116fc7d" style="stroke:#000000;stroke-width:0.8;"/>
      </defs>
      <g>
       <use style="stroke:#000000;stroke-width:0.8;" x="162" xlink:href="#m0da116fc7d" y="768.96"/>
      </g>
     </g>
     <g id="text_8">
      <!-- 0 -->
      <g transform="translate(148.6375 772.759219)scale(0.1 -0.1)">
       <defs>
        <path d="M 2034 4250 
Q 1547 4250 1301 3770 
Q 1056 3291 1056 2328 
Q 1056 1369 1301 889 
Q 1547 409 2034 409 
Q 2525 409 2770 889 
Q 3016 1369 3016 2328 
Q 3016 3291 2770 3770 
Q 2525 4250 2034 4250 
z
M 2034 4750 
Q 2819 4750 3233 4129 
Q 3647 3509 3647 2328 
Q 3647 1150 3233 529 
Q 2819 -91 2034 -91 
Q 1250 -91 836 529 
Q 422 1150 422 2328 
Q 422 3509 836 4129 
Q 1250 4750 2034 4750 
z
" id="DejaVuSans-30" transform="scale(0.015625)"/>
       </defs>
       <use xlink:href="#DejaVuSans-30"/>
      </g>
     </g>
    </g>
    <g id="ytick_2">
     <g id="line2d_9">
      <g>
       <use style="stroke:#000000;stroke-width:0.8;" x="162" xlink:href="#m0da116fc7d" y="657.81478"/>
      </g>
     </g>
     <g id="text_9">
      <!-- 20000 -->
      <g transform="translate(123.1875 661.613998)scale(0.1 -0.1)">
       <defs>
        <path d="M 1228 531 
L 3431 531 
L 3431 0 
L 469 0 
L 469 531 
Q 828 903 1448 1529 
Q 2069 2156 2228 2338 
Q 2531 2678 2651 2914 
Q 2772 3150 2772 3378 
Q 2772 3750 2511 3984 
Q 2250 4219 1831 4219 
Q 1534 4219 1204 4116 
Q 875 4013 500 3803 
L 500 4441 
Q 881 4594 1212 4672 
Q 1544 4750 1819 4750 
Q 2544 4750 2975 4387 
Q 3406 4025 3406 3419 
Q 3406 3131 3298 2873 
Q 3191 2616 2906 2266 
Q 2828 2175 2409 1742 
Q 1991 1309 1228 531 
z
" id="DejaVuSans-32" transform="scale(0.015625)"/>
       </defs>
       <use xlink:href="#DejaVuSans-32"/>
       <use x="63.623047" xlink:href="#DejaVuSans-30"/>
       <use x="127.246094" xlink:href="#DejaVuSans-30"/>
       <use x="190.869141" xlink:href="#DejaVuSans-30"/>
       <use x="254.492188" xlink:href="#DejaVuSans-30"/>
      </g>
     </g>
    </g>
    <g id="ytick_3">
     <g id="line2d_10">
      <g>
       <use style="stroke:#000000;stroke-width:0.8;" x="162" xlink:href="#m0da116fc7d" y="546.669559"/>
      </g>
     </g>
     <g id="text_10">
      <!-- 40000 -->
      <g transform="translate(123.1875 550.468778)scale(0.1 -0.1)">
       <defs>
        <path d="M 2419 4116 
L 825 1625 
L 2419 1625 
L 2419 4116 
z
M 2253 4666 
L 3047 4666 
L 3047 1625 
L 3713 1625 
L 3713 1100 
L 3047 1100 
L 3047 0 
L 2419 0 
L 2419 1100 
L 313 1100 
L 313 1709 
L 2253 4666 
z
" id="DejaVuSans-34" transform="scale(0.015625)"/>
       </defs>
       <use xlink:href="#DejaVuSans-34"/>
       <use x="63.623047" xlink:href="#DejaVuSans-30"/>
       <use x="127.246094" xlink:href="#DejaVuSans-30"/>
       <use x="190.869141" xlink:href="#DejaVuSans-30"/>
       <use x="254.492188" xlink:href="#DejaVuSans-30"/>
      </g>
     </g>
    </g>
    <g id="ytick_4">
     <g id="line2d_11">
      <g>
       <use style="stroke:#000000;stroke-width:0.8;" x="162" xlink:href="#m0da116fc7d" y="435.524339"/>
      </g>
     </g>
     <g id="text_11">
      <!-- 60000 -->
      <g transform="translate(123.1875 439.323558)scale(0.1 -0.1)">
       <defs>
        <path d="M 2113 2584 
Q 1688 2584 1439 2293 
Q 1191 2003 1191 1497 
Q 1191 994 1439 701 
Q 1688 409 2113 409 
Q 2538 409 2786 701 
Q 3034 994 3034 1497 
Q 3034 2003 2786 2293 
Q 2538 2584 2113 2584 
z
M 3366 4563 
L 3366 3988 
Q 3128 4100 2886 4159 
Q 2644 4219 2406 4219 
Q 1781 4219 1451 3797 
Q 1122 3375 1075 2522 
Q 1259 2794 1537 2939 
Q 1816 3084 2150 3084 
Q 2853 3084 3261 2657 
Q 3669 2231 3669 1497 
Q 3669 778 3244 343 
Q 2819 -91 2113 -91 
Q 1303 -91 875 529 
Q 447 1150 447 2328 
Q 447 3434 972 4092 
Q 1497 4750 2381 4750 
Q 2619 4750 2861 4703 
Q 3103 4656 3366 4563 
z
" id="DejaVuSans-36" transform="scale(0.015625)"/>
       </defs>
       <use xlink:href="#DejaVuSans-36"/>
       <use x="63.623047" xlink:href="#DejaVuSans-30"/>
       <use x="127.246094" xlink:href="#DejaVuSans-30"/>
       <use x="190.869141" xlink:href="#DejaVuSans-30"/>
       <use x="254.492188" xlink:href="#DejaVuSans-30"/>
      </g>
     </g>
    </g>
    <g id="ytick_5">
     <g id="line2d_12">
      <g>
       <use style="stroke:#000000;stroke-width:0.8;" x="162" xlink:href="#m0da116fc7d" y="324.379119"/>
      </g>
     </g>
     <g id="text_12">
      <!-- 80000 -->
      <g transform="translate(123.1875 328.178338)scale(0.1 -0.1)">
       <defs>
        <path d="M 2034 2216 
Q 1584 2216 1326 1975 
Q 1069 1734 1069 1313 
Q 1069 891 1326 650 
Q 1584 409 2034 409 
Q 2484 409 2743 651 
Q 3003 894 3003 1313 
Q 3003 1734 2745 1975 
Q 2488 2216 2034 2216 
z
M 1403 2484 
Q 997 2584 770 2862 
Q 544 3141 544 3541 
Q 544 4100 942 4425 
Q 1341 4750 2034 4750 
Q 2731 4750 3128 4425 
Q 3525 4100 3525 3541 
Q 3525 3141 3298 2862 
Q 3072 2584 2669 2484 
Q 3125 2378 3379 2068 
Q 3634 1759 3634 1313 
Q 3634 634 3220 271 
Q 2806 -91 2034 -91 
Q 1263 -91 848 271 
Q 434 634 434 1313 
Q 434 1759 690 2068 
Q 947 2378 1403 2484 
z
M 1172 3481 
Q 1172 3119 1398 2916 
Q 1625 2713 2034 2713 
Q 2441 2713 2670 2916 
Q 2900 3119 2900 3481 
Q 2900 3844 2670 4047 
Q 2441 4250 2034 4250 
Q 1625 4250 1398 4047 
Q 1172 3844 1172 3481 
z
" id="DejaVuSans-38" transform="scale(0.015625)"/>
       </defs>
       <use xlink:href="#DejaVuSans-38"/>
       <use x="63.623047" xlink:href="#DejaVuSans-30"/>
       <use x="127.246094" xlink:href="#DejaVuSans-30"/>
       <use x="190.869141" xlink:href="#DejaVuSans-30"/>
       <use x="254.492188" xlink:href="#DejaVuSans-30"/>
      </g>
     </g>
    </g>
    <g id="ytick_6">
     <g id="line2d_13">
      <g>
       <use style="stroke:#000000;stroke-width:0.8;" x="162" xlink:href="#m0da116fc7d" y="213.233899"/>
      </g>
     </g>
     <g id="text_13">
      <!-- 100000 -->
      <g transform="translate(116.825 217.033117)scale(0.1 -0.1)">
       <defs>
        <path d="M 794 531 
L 1825 531 
L 1825 4091 
L 703 3866 
L 703 4441 
L 1819 4666 
L 2450 4666 
L 2450 531 
L 3481 531 
L 3481 0 
L 794 0 
L 794 531 
z
" id="DejaVuSans-31" transform="scale(0.015625)"/>
       </defs>
       <use xlink:href="#DejaVuSans-31"/>
       <use x="63.623047" xlink:href="#DejaVuSans-30"/>
       <use x="127.246094" xlink:href="#DejaVuSans-30"/>
       <use x="190.869141" xlink:href="#DejaVuSans-30"/>
       <use x="254.492188" xlink:href="#DejaVuSans-30"/>
       <use x="318.115234" xlink:href="#DejaVuSans-30"/>
      </g>
     </g>
    </g>
    <g id="text_14">
     <!-- Persons fully vaccinated -->
     <g transform="translate(110.745312 496.922344)rotate(-90)scale(0.1 -0.1)">
      <defs>
       <path d="M 1259 4147 
L 1259 2394 
L 2053 2394 
Q 2494 2394 2734 2622 
Q 2975 2850 2975 3272 
Q 2975 3691 2734 3919 
Q 2494 4147 2053 4147 
L 1259 4147 
z
M 628 4666 
L 2053 4666 
Q 2838 4666 3239 4311 
Q 3641 3956 3641 3272 
Q 3641 2581 3239 2228 
Q 2838 1875 2053 1875 
L 1259 1875 
L 1259 0 
L 628 0 
L 628 4666 
z
" id="DejaVuSans-50" transform="scale(0.015625)"/>
       <path d="M 2834 3397 
L 2834 2853 
Q 2591 2978 2328 3040 
Q 2066 3103 1784 3103 
Q 1356 3103 1142 2972 
Q 928 2841 928 2578 
Q 928 2378 1081 2264 
Q 1234 2150 1697 2047 
L 1894 2003 
Q 2506 1872 2764 1633 
Q 3022 1394 3022 966 
Q 3022 478 2636 193 
Q 2250 -91 1575 -91 
Q 1294 -91 989 -36 
Q 684 19 347 128 
L 347 722 
Q 666 556 975 473 
Q 1284 391 1588 391 
Q 1994 391 2212 530 
Q 2431 669 2431 922 
Q 2431 1156 2273 1281 
Q 2116 1406 1581 1522 
L 1381 1569 
Q 847 1681 609 1914 
Q 372 2147 372 2553 
Q 372 3047 722 3315 
Q 1072 3584 1716 3584 
Q 2034 3584 2315 3537 
Q 2597 3491 2834 3397 
z
" id="DejaVuSans-73" transform="scale(0.015625)"/>
       <path d="M 1959 3097 
Q 1497 3097 1228 2736 
Q 959 2375 959 1747 
Q 959 1119 1226 758 
Q 1494 397 1959 397 
Q 2419 397 2687 759 
Q 2956 1122 2956 1747 
Q 2956 2369 2687 2733 
Q 2419 3097 1959 3097 
z
M 1959 3584 
Q 2709 3584 3137 3096 
Q 3566 2609 3566 1747 
Q 3566 888 3137 398 
Q 2709 -91 1959 -91 
Q 1206 -91 779 398 
Q 353 888 353 1747 
Q 353 2609 779 3096 
Q 1206 3584 1959 3584 
z
" id="DejaVuSans-6f" transform="scale(0.015625)"/>
       <path id="DejaVuSans-20" transform="scale(0.015625)"/>
       <path d="M 2375 4863 
L 2375 4384 
L 1825 4384 
Q 1516 4384 1395 4259 
Q 1275 4134 1275 3809 
L 1275 3500 
L 2222 3500 
L 2222 3053 
L 1275 3053 
L 1275 0 
L 697 0 
L 697 3053 
L 147 3053 
L 147 3500 
L 697 3500 
L 697 3744 
Q 697 4328 969 4595 
Q 1241 4863 1831 4863 
L 2375 4863 
z
" id="DejaVuSans-66" transform="scale(0.015625)"/>
       <path d="M 191 3500 
L 800 3500 
L 1894 563 
L 2988 3500 
L 3597 3500 
L 2284 0 
L 1503 0 
L 191 3500 
z
" id="DejaVuSans-76" transform="scale(0.015625)"/>
       <path d="M 1172 4494 
L 1172 3500 
L 2356 3500 
L 2356 3053 
L 1172 3053 
L 1172 1153 
Q 1172 725 1289 603 
Q 1406 481 1766 481 
L 2356 481 
L 2356 0 
L 1766 0 
Q 1100 0 847 248 
Q 594 497 594 1153 
L 594 3053 
L 172 3053 
L 172 3500 
L 594 3500 
L 594 4494 
L 1172 4494 
z
" id="DejaVuSans-74" transform="scale(0.015625)"/>
       <path d="M 2906 2969 
L 2906 4863 
L 3481 4863 
L 3481 0 
L 2906 0 
L 2906 525 
Q 2725 213 2448 61 
Q 2172 -91 1784 -91 
Q 1150 -91 751 415 
Q 353 922 353 1747 
Q 353 2572 751 3078 
Q 1150 3584 1784 3584 
Q 2172 3584 2448 3432 
Q 2725 3281 2906 2969 
z
M 947 1747 
Q 947 1113 1208 752 
Q 1469 391 1925 391 
Q 2381 391 2643 752 
Q 2906 1113 2906 1747 
Q 2906 2381 2643 2742 
Q 2381 3103 1925 3103 
Q 1469 3103 1208 2742 
Q 947 2381 947 1747 
z
" id="DejaVuSans-64" transform="scale(0.015625)"/>
      </defs>
      <use xlink:href="#DejaVuSans-50"/>
      <use x="56.677734" xlink:href="#DejaVuSans-65"/>
      <use x="118.201172" xlink:href="#DejaVuSans-72"/>
      <use x="159.314453" xlink:href="#DejaVuSans-73"/>
      <use x="211.414062" xlink:href="#DejaVuSans-6f"/>
      <use x="272.595703" xlink:href="#DejaVuSans-6e"/>
      <use x="335.974609" xlink:href="#DejaVuSans-73"/>
      <use x="388.074219" xlink:href="#DejaVuSans-20"/>
      <use x="419.861328" xlink:href="#DejaVuSans-66"/>
      <use x="455.066406" xlink:href="#DejaVuSans-75"/>
      <use x="518.445312" xlink:href="#DejaVuSans-6c"/>
      <use x="546.228516" xlink:href="#DejaVuSans-6c"/>
      <use x="574.011719" xlink:href="#DejaVuSans-79"/>
      <use x="633.191406" xlink:href="#DejaVuSans-20"/>
      <use x="664.978516" xlink:href="#DejaVuSans-76"/>
      <use x="724.158203" xlink:href="#DejaVuSans-61"/>
      <use x="785.4375" xlink:href="#DejaVuSans-63"/>
      <use x="840.417969" xlink:href="#DejaVuSans-63"/>
      <use x="895.398438" xlink:href="#DejaVuSans-69"/>
      <use x="923.181641" xlink:href="#DejaVuSans-6e"/>
      <use x="986.560547" xlink:href="#DejaVuSans-61"/>
      <use x="1047.839844" xlink:href="#DejaVuSans-74"/>
      <use x="1087.048828" xlink:href="#DejaVuSans-65"/>
      <use x="1148.572266" xlink:href="#DejaVuSans-64"/>
     </g>
    </g>
   </g>
   <g id="line2d_14">
    <path clip-path="url(#p3c368122f5)" d="M 247.325243 744.321486 
L 252.200971 744.372296 
L 257.076699 745.983107 
L 261.952427 742.704323 
L 266.828155 741.955681 
L 271.703883 740.001113 
L 276.579612 736.037992 
L 281.45534 728.117307 
L 286.331068 719.703614 
L 291.206796 713.429466 
L 296.082524 706.944937 
L 300.958252 702.602334 
L 305.833981 701.646485 
L 310.709709 701.476592 
L 315.585437 698.944068 
L 320.461165 703.857481 
L 325.336893 703.782855 
L 330.212621 704.314764 
L 335.08835 700.959766 
L 339.964078 701.149507 
L 344.839806 697.220524 
L 349.715534 697.939792 
L 354.591262 692.361096 
L 359.46699 682.737508 
L 364.342718 673.610897 
L 369.218447 670.889427 
L 374.094175 667.536017 
L 378.969903 671.325275 
L 383.845631 671.975475 
L 388.721359 666.472992 
L 393.597087 660.598967 
L 398.472816 653.543628 
L 403.348544 660.699792 
L 408.224272 647.405236 
L 413.1 638.169068 
L 417.975728 627.407035 
L 422.851456 605.528099 
L 427.727184 590.729906 
L 432.602913 578.639688 
L 437.478641 548.779731 
L 442.354369 550.935154 
L 452.105825 532.81372 
L 456.981553 538.960051 
L 461.857282 528.16785 
L 466.73301 513.923002 
L 471.608738 507.525801 
L 476.484466 512.455885 
L 481.360194 503.286404 
L 486.235922 492.65457 
L 491.11165 482.444294 
L 495.987379 485.522223 
L 500.863107 480.164229 
L 505.738835 484.183717 
L 510.614563 459.233996 
L 515.490291 459.419768 
L 520.366019 465.444632 
L 525.241748 479.779984 
L 530.117476 493.369869 
L 534.993204 512.223274 
L 539.868932 524.444485 
L 544.74466 548.75909 
L 549.620388 561.363751 
L 554.496117 573.114977 
L 559.371845 579.772576 
L 564.247573 583.654719 
L 569.123301 580.862593 
L 573.999029 568.208709 
L 578.874757 566.558997 
L 583.750485 565.122842 
L 588.626214 549.595854 
L 593.501942 541.078161 
L 598.37767 526.597527 
L 603.253398 519.840691 
L 608.129126 518.759407 
L 613.004854 523.00436 
L 617.880583 509.300155 
L 622.756311 493.084067 
L 627.632039 465.115166 
L 632.507767 437.906022 
L 637.383495 396.826749 
L 642.259223 373.682345 
L 647.134951 354.061244 
L 652.01068 340.006931 
L 656.886408 335.452358 
L 661.762136 345.481627 
L 666.637864 349.598763 
L 671.513592 369.165085 
L 676.38932 380.389165 
L 681.265049 381.82532 
L 686.140777 391.172633 
L 691.016505 386.161571 
L 695.892233 379.372186 
L 700.767961 387.755711 
L 705.643689 399.321959 
L 710.519417 409.58622 
L 715.395146 420.995277 
L 720.270874 425.558582 
L 725.146602 440.146393 
L 730.02233 445.367042 
L 734.898058 455.553502 
L 739.773786 469.971418 
L 744.649515 489.846566 
L 749.525243 500.409331 
L 754.400971 515.105111 
L 759.276699 509.705041 
L 764.152427 507.778259 
L 769.028155 518.190978 
L 773.903883 499.955223 
L 778.779612 477.464194 
L 783.65534 446.475319 
L 788.531068 436.330142 
L 793.406796 450.227264 
L 798.282524 467.584178 
L 803.158252 469.224364 
L 808.033981 474.828465 
L 812.909709 484.613213 
L 817.785437 508.957192 
L 822.661165 518.018703 
L 827.536893 519.490584 
L 832.412621 521.090281 
L 837.28835 513.602269 
L 842.164078 537.633453 
L 847.039806 544.61893 
L 851.915534 545.355664 
L 856.791262 547.093499 
L 861.66699 564.267023 
L 866.542718 576.255623 
L 871.418447 598.103598 
L 876.294175 607.436621 
L 881.169903 617.256301 
L 886.045631 622.094294 
L 890.921359 636.253401 
L 895.797087 645.87302 
L 900.672816 655.240974 
L 905.548544 658.204582 
L 910.424272 655.388638 
L 915.3 647.001938 
L 920.175728 638.190503 
L 925.051456 621.499667 
L 929.927184 610.859894 
L 934.802913 596.51184 
L 939.678641 597.867811 
L 944.554369 604.398387 
L 949.430097 616.928423 
L 954.305825 621.263086 
L 959.181553 606.519673 
L 964.057282 604.534143 
L 968.93301 615.424787 
L 973.808738 612.965302 
L 978.684466 620.878841 
L 983.560194 614.346678 
L 988.435922 618.723418 
L 993.31165 647.012258 
L 998.187379 663.033048 
L 1003.063107 667.549513 
L 1007.938835 674.350013 
L 1012.814563 647.676748 
L 1017.690291 619.84916 
L 1022.566019 623.813075 
L 1027.441748 623.550296 
L 1032.317476 622.494417 
L 1037.193204 624.819733 
L 1042.068932 631.047041 
L 1046.94466 658.149009 
L 1051.820388 696.535393 
L 1056.696117 696.79976 
L 1061.571845 706.560692 
L 1066.447573 713.088092 
L 1071.323301 714.229712 
L 1076.199029 714.175727 
L 1081.074757 716.169196 
L 1085.950485 715.91515 
L 1090.826214 714.151116 
L 1095.701942 703.990855 
L 1100.57767 701.508347 
L 1110.329126 707.444296 
L 1115.204854 709.011444 
L 1120.080583 710.457919 
L 1124.956311 712.209251 
L 1129.832039 715.794478 
L 1134.707767 715.14269 
L 1139.583495 714.740186 
L 1149.334951 718.654086 
L 1154.21068 721.588319 
L 1159.086408 723.245177 
L 1159.086408 723.245177 
" style="fill:none;stroke:#ffa500;stroke-linecap:square;stroke-width:1.5;"/>
   </g>
   <g id="patch_209">
    <path d="M 162 768.96 
L 162 103.68 
" style="fill:none;stroke:#000000;stroke-linecap:square;stroke-linejoin:miter;stroke-width:0.8;"/>
   </g>
   <g id="patch_210">
    <path d="M 1166.4 768.96 
L 1166.4 103.68 
" style="fill:none;stroke:#000000;stroke-linecap:square;stroke-linejoin:miter;stroke-width:0.8;"/>
   </g>
   <g id="patch_211">
    <path d="M 162 768.96 
L 1166.4 768.96 
" style="fill:none;stroke:#000000;stroke-linecap:square;stroke-linejoin:miter;stroke-width:0.8;"/>
   </g>
   <g id="patch_212">
    <path d="M 162 103.68 
L 1166.4 103.68 
" style="fill:none;stroke:#000000;stroke-linecap:square;stroke-linejoin:miter;stroke-width:0.8;"/>
   </g>
   <g id="text_15">
    <!-- Persons Fully Vaccinated -->
    <g transform="translate(590.380313 97.68)scale(0.12 -0.12)">
     <defs>
      <path d="M 1831 0 
L 50 4666 
L 709 4666 
L 2188 738 
L 3669 4666 
L 4325 4666 
L 2547 0 
L 1831 0 
z
" id="DejaVuSans-56" transform="scale(0.015625)"/>
     </defs>
     <use xlink:href="#DejaVuSans-50"/>
     <use x="56.677734" xlink:href="#DejaVuSans-65"/>
     <use x="118.201172" xlink:href="#DejaVuSans-72"/>
     <use x="159.314453" xlink:href="#DejaVuSans-73"/>
     <use x="211.414062" xlink:href="#DejaVuSans-6f"/>
     <use x="272.595703" xlink:href="#DejaVuSans-6e"/>
     <use x="335.974609" xlink:href="#DejaVuSans-73"/>
     <use x="388.074219" xlink:href="#DejaVuSans-20"/>
     <use x="419.861328" xlink:href="#DejaVuSans-46"/>
     <use x="471.880859" xlink:href="#DejaVuSans-75"/>
     <use x="535.259766" xlink:href="#DejaVuSans-6c"/>
     <use x="563.042969" xlink:href="#DejaVuSans-6c"/>
     <use x="590.826172" xlink:href="#DejaVuSans-79"/>
     <use x="650.005859" xlink:href="#DejaVuSans-20"/>
     <use x="681.792969" xlink:href="#DejaVuSans-56"/>
     <use x="742.451172" xlink:href="#DejaVuSans-61"/>
     <use x="803.730469" xlink:href="#DejaVuSans-63"/>
     <use x="858.710938" xlink:href="#DejaVuSans-63"/>
     <use x="913.691406" xlink:href="#DejaVuSans-69"/>
     <use x="941.474609" xlink:href="#DejaVuSans-6e"/>
     <use x="1004.853516" xlink:href="#DejaVuSans-61"/>
     <use x="1066.132812" xlink:href="#DejaVuSans-74"/>
     <use x="1105.341797" xlink:href="#DejaVuSans-65"/>
     <use x="1166.865234" xlink:href="#DejaVuSans-64"/>
    </g>
   </g>
  </g>
 </g>
 <defs>
  <clipPath id="p3c368122f5">
   <rect height="665.28" width="1004.4" x="162" y="103.68"/>
  </clipPath>
 </defs>
</svg>
