<?xml version="1.0" encoding="utf-8" standalone="no"?>
<!DOCTYPE svg PUBLIC "-//W3C//DTD SVG 1.1//EN"
  "http://www.w3.org/Graphics/SVG/1.1/DTD/svg11.dtd">
<svg height="864pt" version="1.1" viewBox="0 0 1296 864" width="1296pt" xmlns="http://www.w3.org/2000/svg" xmlns:xlink="http://www.w3.org/1999/xlink">
 <metadata>
  <rdf:RDF xmlns:cc="http://creativecommons.org/ns#" xmlns:dc="http://purl.org/dc/elements/1.1/" xmlns:rdf="http://www.w3.org/1999/02/22-rdf-syntax-ns#">
   <cc:Work>
    <dc:type rdf:resource="http://purl.org/dc/dcmitype/StillImage"/>
    <dc:date>2021-08-26T20:19:36.740407</dc:date>
    <dc:format>image/svg+xml</dc:format>
    <dc:creator>
     <cc:Agent>
      <dc:title>Matplotlib v3.4.2, https://matplotlib.org/</dc:title>
     </cc:Agent>
    </dc:creator>
   </cc:Work>
  </rdf:RDF>
 </metadata>
 <defs>
  <style type="text/css">*{stroke-linecap:butt;stroke-linejoin:round;}</style>
 </defs>
 <g id="figure_1">
  <g id="patch_1">
   <path d="M 0 864 
L 1296 864 
L 1296 0 
L 0 0 
z
" style="fill:#ffffff;"/>
  </g>
  <g id="axes_1">
   <g id="patch_2">
    <path d="M 162 768.96 
L 1166.4 768.96 
L 1166.4 103.68 
L 162 103.68 
z
" style="fill:#ffffff;"/>
   </g>
   <g id="patch_3">
    <path clip-path="url(#p91a45fe9cb)" d="M 163.059494 768.96 
L 165.178481 768.96 
L 165.178481 768.96 
L 163.059494 768.96 
z
" style="fill:#1f77b4;"/>
   </g>
   <g id="patch_4">
    <path clip-path="url(#p91a45fe9cb)" d="M 167.297468 768.96 
L 169.416456 768.96 
L 169.416456 768.96 
L 167.297468 768.96 
z
" style="fill:#1f77b4;"/>
   </g>
   <g id="patch_5">
    <path clip-path="url(#p91a45fe9cb)" d="M 171.535443 768.96 
L 173.65443 768.96 
L 173.65443 768.96 
L 171.535443 768.96 
z
" style="fill:#1f77b4;"/>
   </g>
   <g id="patch_6">
    <path clip-path="url(#p91a45fe9cb)" d="M 175.773418 768.96 
L 177.892405 768.96 
L 177.892405 768.376964 
L 175.773418 768.376964 
z
" style="fill:#1f77b4;"/>
   </g>
   <g id="patch_7">
    <path clip-path="url(#p91a45fe9cb)" d="M 180.011392 768.96 
L 182.13038 768.96 
L 182.13038 767.382373 
L 180.011392 767.382373 
z
" style="fill:#1f77b4;"/>
   </g>
   <g id="patch_8">
    <path clip-path="url(#p91a45fe9cb)" d="M 184.249367 768.96 
L 186.368354 768.96 
L 186.368354 755.441569 
L 184.249367 755.441569 
z
" style="fill:#1f77b4;"/>
   </g>
   <g id="patch_9">
    <path clip-path="url(#p91a45fe9cb)" d="M 188.487342 768.96 
L 190.606329 768.96 
L 190.606329 669.489499 
L 188.487342 669.489499 
z
" style="fill:#1f77b4;"/>
   </g>
   <g id="patch_10">
    <path clip-path="url(#p91a45fe9cb)" d="M 192.725316 768.96 
L 194.844304 768.96 
L 194.844304 649.329031 
L 192.725316 649.329031 
z
" style="fill:#1f77b4;"/>
   </g>
   <g id="patch_11">
    <path clip-path="url(#p91a45fe9cb)" d="M 196.963291 768.96 
L 199.082278 768.96 
L 199.082278 703.671409 
L 196.963291 703.671409 
z
" style="fill:#1f77b4;"/>
   </g>
   <g id="patch_12">
    <path clip-path="url(#p91a45fe9cb)" d="M 201.201266 768.96 
L 203.320253 768.96 
L 203.320253 729.359285 
L 201.201266 729.359285 
z
" style="fill:#1f77b4;"/>
   </g>
   <g id="patch_13">
    <path clip-path="url(#p91a45fe9cb)" d="M 205.439241 768.96 
L 207.558228 768.96 
L 207.558228 706.866674 
L 205.439241 706.866674 
z
" style="fill:#1f77b4;"/>
   </g>
   <g id="patch_14">
    <path clip-path="url(#p91a45fe9cb)" d="M 209.677215 768.96 
L 211.796203 768.96 
L 211.796203 710.187692 
L 209.677215 710.187692 
z
" style="fill:#1f77b4;"/>
   </g>
   <g id="patch_15">
    <path clip-path="url(#p91a45fe9cb)" d="M 213.91519 768.96 
L 216.034177 768.96 
L 216.034177 720.876684 
L 213.91519 720.876684 
z
" style="fill:#1f77b4;"/>
   </g>
   <g id="patch_16">
    <path clip-path="url(#p91a45fe9cb)" d="M 218.153165 768.96 
L 220.272152 768.96 
L 220.272152 710.793593 
L 218.153165 710.793593 
z
" style="fill:#1f77b4;"/>
   </g>
   <g id="patch_17">
    <path clip-path="url(#p91a45fe9cb)" d="M 222.391139 768.96 
L 224.510127 768.96 
L 224.510127 757.670824 
L 222.391139 757.670824 
z
" style="fill:#1f77b4;"/>
   </g>
   <g id="patch_18">
    <path clip-path="url(#p91a45fe9cb)" d="M 226.629114 768.96 
L 228.748101 768.96 
L 228.748101 761.88926 
L 226.629114 761.88926 
z
" style="fill:#1f77b4;"/>
   </g>
   <g id="patch_19">
    <path clip-path="url(#p91a45fe9cb)" d="M 230.867089 768.96 
L 232.986076 768.96 
L 232.986076 765.661846 
L 230.867089 765.661846 
z
" style="fill:#1f77b4;"/>
   </g>
   <g id="patch_20">
    <path clip-path="url(#p91a45fe9cb)" d="M 235.105063 768.96 
L 237.224051 768.96 
L 237.224051 752.772179 
L 235.105063 752.772179 
z
" style="fill:#1f77b4;"/>
   </g>
   <g id="patch_21">
    <path clip-path="url(#p91a45fe9cb)" d="M 239.343038 768.96 
L 241.462025 768.96 
L 241.462025 743.489333 
L 239.343038 743.489333 
z
" style="fill:#1f77b4;"/>
   </g>
   <g id="patch_22">
    <path clip-path="url(#p91a45fe9cb)" d="M 243.581013 768.96 
L 245.7 768.96 
L 245.7 719.842081 
L 243.581013 719.842081 
z
" style="fill:#1f77b4;"/>
   </g>
   <g id="patch_23">
    <path clip-path="url(#p91a45fe9cb)" d="M 247.818987 768.96 
L 249.937975 768.96 
L 249.937975 719.762057 
L 247.818987 719.762057 
z
" style="fill:#1f77b4;"/>
   </g>
   <g id="patch_24">
    <path clip-path="url(#p91a45fe9cb)" d="M 252.056962 768.96 
L 254.175949 768.96 
L 254.175949 734.412264 
L 252.056962 734.412264 
z
" style="fill:#1f77b4;"/>
   </g>
   <g id="patch_25">
    <path clip-path="url(#p91a45fe9cb)" d="M 256.294937 768.96 
L 258.413924 768.96 
L 258.413924 756.476172 
L 256.294937 756.476172 
z
" style="fill:#1f77b4;"/>
   </g>
   <g id="patch_26">
    <path clip-path="url(#p91a45fe9cb)" d="M 260.532911 768.96 
L 262.651899 768.96 
L 262.651899 751.834749 
L 260.532911 751.834749 
z
" style="fill:#1f77b4;"/>
   </g>
   <g id="patch_27">
    <path clip-path="url(#p91a45fe9cb)" d="M 264.770886 768.96 
L 266.889873 768.96 
L 266.889873 723.957629 
L 264.770886 723.957629 
z
" style="fill:#1f77b4;"/>
   </g>
   <g id="patch_28">
    <path clip-path="url(#p91a45fe9cb)" d="M 269.008861 768.96 
L 271.127848 768.96 
L 271.127848 688.306697 
L 269.008861 688.306697 
z
" style="fill:#1f77b4;"/>
   </g>
   <g id="patch_29">
    <path clip-path="url(#p91a45fe9cb)" d="M 273.246835 768.96 
L 275.365823 768.96 
L 275.365823 661.126934 
L 273.246835 661.126934 
z
" style="fill:#1f77b4;"/>
   </g>
   <g id="patch_30">
    <path clip-path="url(#p91a45fe9cb)" d="M 277.48481 768.96 
L 279.603797 768.96 
L 279.603797 676.84604 
L 277.48481 676.84604 
z
" style="fill:#1f77b4;"/>
   </g>
   <g id="patch_31">
    <path clip-path="url(#p91a45fe9cb)" d="M 281.722785 768.96 
L 283.841772 768.96 
L 283.841772 688.48961 
L 281.722785 688.48961 
z
" style="fill:#1f77b4;"/>
   </g>
   <g id="patch_32">
    <path clip-path="url(#p91a45fe9cb)" d="M 285.960759 768.96 
L 288.079747 768.96 
L 288.079747 726.026835 
L 285.960759 726.026835 
z
" style="fill:#1f77b4;"/>
   </g>
   <g id="patch_33">
    <path clip-path="url(#p91a45fe9cb)" d="M 290.198734 768.96 
L 292.317722 768.96 
L 292.317722 744.929774 
L 290.198734 744.929774 
z
" style="fill:#1f77b4;"/>
   </g>
   <g id="patch_34">
    <path clip-path="url(#p91a45fe9cb)" d="M 294.436709 768.96 
L 296.555696 768.96 
L 296.555696 723.048779 
L 294.436709 723.048779 
z
" style="fill:#1f77b4;"/>
   </g>
   <g id="patch_35">
    <path clip-path="url(#p91a45fe9cb)" d="M 298.674684 768.96 
L 300.793671 768.96 
L 300.793671 670.249732 
L 298.674684 670.249732 
z
" style="fill:#1f77b4;"/>
   </g>
   <g id="patch_36">
    <path clip-path="url(#p91a45fe9cb)" d="M 302.912658 768.96 
L 305.031646 768.96 
L 305.031646 696.149102 
L 302.912658 696.149102 
z
" style="fill:#1f77b4;"/>
   </g>
   <g id="patch_37">
    <path clip-path="url(#p91a45fe9cb)" d="M 307.150633 768.96 
L 309.26962 768.96 
L 309.26962 674.69681 
L 307.150633 674.69681 
z
" style="fill:#1f77b4;"/>
   </g>
   <g id="patch_38">
    <path clip-path="url(#p91a45fe9cb)" d="M 311.388608 768.96 
L 313.507595 768.96 
L 313.507595 691.98211 
L 311.388608 691.98211 
z
" style="fill:#1f77b4;"/>
   </g>
   <g id="patch_39">
    <path clip-path="url(#p91a45fe9cb)" d="M 315.626582 768.96 
L 317.74557 768.96 
L 317.74557 702.562497 
L 315.626582 702.562497 
z
" style="fill:#1f77b4;"/>
   </g>
   <g id="patch_40">
    <path clip-path="url(#p91a45fe9cb)" d="M 319.864557 768.96 
L 321.983544 768.96 
L 321.983544 746.633154 
L 319.864557 746.633154 
z
" style="fill:#1f77b4;"/>
   </g>
   <g id="patch_41">
    <path clip-path="url(#p91a45fe9cb)" d="M 324.102532 768.96 
L 326.221519 768.96 
L 326.221519 695.406017 
L 324.102532 695.406017 
z
" style="fill:#1f77b4;"/>
   </g>
   <g id="patch_42">
    <path clip-path="url(#p91a45fe9cb)" d="M 328.340506 768.96 
L 330.459494 768.96 
L 330.459494 675.719981 
L 328.340506 675.719981 
z
" style="fill:#1f77b4;"/>
   </g>
   <g id="patch_43">
    <path clip-path="url(#p91a45fe9cb)" d="M 332.578481 768.96 
L 334.697468 768.96 
L 334.697468 656.262586 
L 332.578481 656.262586 
z
" style="fill:#1f77b4;"/>
   </g>
   <g id="patch_44">
    <path clip-path="url(#p91a45fe9cb)" d="M 336.816456 768.96 
L 338.935443 768.96 
L 338.935443 606.567347 
L 336.816456 606.567347 
z
" style="fill:#1f77b4;"/>
   </g>
   <g id="patch_45">
    <path clip-path="url(#p91a45fe9cb)" d="M 341.05443 768.96 
L 343.173418 768.96 
L 343.173418 628.374034 
L 341.05443 628.374034 
z
" style="fill:#1f77b4;"/>
   </g>
   <g id="patch_46">
    <path clip-path="url(#p91a45fe9cb)" d="M 345.292405 768.96 
L 347.411392 768.96 
L 347.411392 682.316289 
L 345.292405 682.316289 
z
" style="fill:#1f77b4;"/>
   </g>
   <g id="patch_47">
    <path clip-path="url(#p91a45fe9cb)" d="M 349.53038 768.96 
L 351.649367 768.96 
L 351.649367 722.059904 
L 349.53038 722.059904 
z
" style="fill:#1f77b4;"/>
   </g>
   <g id="patch_48">
    <path clip-path="url(#p91a45fe9cb)" d="M 353.768354 768.96 
L 355.887342 768.96 
L 355.887342 722.757261 
L 353.768354 722.757261 
z
" style="fill:#1f77b4;"/>
   </g>
   <g id="patch_49">
    <path clip-path="url(#p91a45fe9cb)" d="M 358.006329 768.96 
L 360.125316 768.96 
L 360.125316 677.680582 
L 358.006329 677.680582 
z
" style="fill:#1f77b4;"/>
   </g>
   <g id="patch_50">
    <path clip-path="url(#p91a45fe9cb)" d="M 362.244304 768.96 
L 364.363291 768.96 
L 364.363291 619.685655 
L 362.244304 619.685655 
z
" style="fill:#1f77b4;"/>
   </g>
   <g id="patch_51">
    <path clip-path="url(#p91a45fe9cb)" d="M 366.482278 768.96 
L 368.601266 768.96 
L 368.601266 571.893858 
L 366.482278 571.893858 
z
" style="fill:#1f77b4;"/>
   </g>
   <g id="patch_52">
    <path clip-path="url(#p91a45fe9cb)" d="M 370.720253 768.96 
L 372.839241 768.96 
L 372.839241 584.37197 
L 370.720253 584.37197 
z
" style="fill:#1f77b4;"/>
   </g>
   <g id="patch_53">
    <path clip-path="url(#p91a45fe9cb)" d="M 374.958228 768.96 
L 377.077215 768.96 
L 377.077215 733.154735 
L 374.958228 733.154735 
z
" style="fill:#1f77b4;"/>
   </g>
   <g id="patch_54">
    <path clip-path="url(#p91a45fe9cb)" d="M 379.196203 768.96 
L 381.31519 768.96 
L 381.31519 631.094868 
L 379.196203 631.094868 
z
" style="fill:#1f77b4;"/>
   </g>
   <g id="patch_55">
    <path clip-path="url(#p91a45fe9cb)" d="M 383.434177 768.96 
L 385.553165 768.96 
L 385.553165 663.024659 
L 383.434177 663.024659 
z
" style="fill:#1f77b4;"/>
   </g>
   <g id="patch_56">
    <path clip-path="url(#p91a45fe9cb)" d="M 387.672152 768.96 
L 389.791139 768.96 
L 389.791139 612.929298 
L 387.672152 612.929298 
z
" style="fill:#1f77b4;"/>
   </g>
   <g id="patch_57">
    <path clip-path="url(#p91a45fe9cb)" d="M 391.910127 768.96 
L 394.029114 768.96 
L 394.029114 468.273512 
L 391.910127 468.273512 
z
" style="fill:#1f77b4;"/>
   </g>
   <g id="patch_58">
    <path clip-path="url(#p91a45fe9cb)" d="M 396.148101 768.96 
L 398.267089 768.96 
L 398.267089 463.677818 
L 396.148101 463.677818 
z
" style="fill:#1f77b4;"/>
   </g>
   <g id="patch_59">
    <path clip-path="url(#p91a45fe9cb)" d="M 400.386076 768.96 
L 402.505063 768.96 
L 402.505063 496.41357 
L 400.386076 496.41357 
z
" style="fill:#1f77b4;"/>
   </g>
   <g id="patch_60">
    <path clip-path="url(#p91a45fe9cb)" d="M 404.624051 768.96 
L 406.743038 768.96 
L 406.743038 526.862907 
L 404.624051 526.862907 
z
" style="fill:#1f77b4;"/>
   </g>
   <g id="patch_61">
    <path clip-path="url(#p91a45fe9cb)" d="M 408.862025 768.96 
L 410.981013 768.96 
L 410.981013 650.540831 
L 408.862025 650.540831 
z
" style="fill:#1f77b4;"/>
   </g>
   <g id="patch_62">
    <path clip-path="url(#p91a45fe9cb)" d="M 413.1 768.96 
L 415.218987 768.96 
L 415.218987 594.094951 
L 413.1 594.094951 
z
" style="fill:#1f77b4;"/>
   </g>
   <g id="patch_63">
    <path clip-path="url(#p91a45fe9cb)" d="M 417.337975 768.96 
L 419.456962 768.96 
L 419.456962 540.747164 
L 417.337975 540.747164 
z
" style="fill:#1f77b4;"/>
   </g>
   <g id="patch_64">
    <path clip-path="url(#p91a45fe9cb)" d="M 421.575949 768.96 
L 423.694937 768.96 
L 423.694937 505.221985 
L 421.575949 505.221985 
z
" style="fill:#1f77b4;"/>
   </g>
   <g id="patch_65">
    <path clip-path="url(#p91a45fe9cb)" d="M 425.813924 768.96 
L 427.932911 768.96 
L 427.932911 382.847318 
L 425.813924 382.847318 
z
" style="fill:#1f77b4;"/>
   </g>
   <g id="patch_66">
    <path clip-path="url(#p91a45fe9cb)" d="M 430.051899 768.96 
L 432.170886 768.96 
L 432.170886 398.246325 
L 430.051899 398.246325 
z
" style="fill:#1f77b4;"/>
   </g>
   <g id="patch_67">
    <path clip-path="url(#p91a45fe9cb)" d="M 434.289873 768.96 
L 436.408861 768.96 
L 436.408861 479.036813 
L 434.289873 479.036813 
z
" style="fill:#1f77b4;"/>
   </g>
   <g id="patch_68">
    <path clip-path="url(#p91a45fe9cb)" d="M 438.527848 768.96 
L 440.646835 768.96 
L 440.646835 678.886666 
L 438.527848 678.886666 
z
" style="fill:#1f77b4;"/>
   </g>
   <g id="patch_69">
    <path clip-path="url(#p91a45fe9cb)" d="M 442.765823 768.96 
L 444.88481 768.96 
L 444.88481 528.749199 
L 442.765823 528.749199 
z
" style="fill:#1f77b4;"/>
   </g>
   <g id="patch_70">
    <path clip-path="url(#p91a45fe9cb)" d="M 447.003797 768.96 
L 449.122785 768.96 
L 449.122785 463.797854 
L 447.003797 463.797854 
z
" style="fill:#1f77b4;"/>
   </g>
   <g id="patch_71">
    <path clip-path="url(#p91a45fe9cb)" d="M 451.241772 768.96 
L 453.360759 768.96 
L 453.360759 434.251651 
L 451.241772 434.251651 
z
" style="fill:#1f77b4;"/>
   </g>
   <g id="patch_72">
    <path clip-path="url(#p91a45fe9cb)" d="M 455.479747 768.96 
L 457.598734 768.96 
L 457.598734 406.008705 
L 455.479747 406.008705 
z
" style="fill:#1f77b4;"/>
   </g>
   <g id="patch_73">
    <path clip-path="url(#p91a45fe9cb)" d="M 459.717722 768.96 
L 461.836709 768.96 
L 461.836709 355.850468 
L 459.717722 355.850468 
z
" style="fill:#1f77b4;"/>
   </g>
   <g id="patch_74">
    <path clip-path="url(#p91a45fe9cb)" d="M 463.955696 768.96 
L 466.074684 768.96 
L 466.074684 505.422046 
L 463.955696 505.422046 
z
" style="fill:#1f77b4;"/>
   </g>
   <g id="patch_75">
    <path clip-path="url(#p91a45fe9cb)" d="M 468.193671 768.96 
L 470.312658 768.96 
L 470.312658 501.500844 
L 468.193671 501.500844 
z
" style="fill:#1f77b4;"/>
   </g>
   <g id="patch_76">
    <path clip-path="url(#p91a45fe9cb)" d="M 472.431646 768.96 
L 474.550633 768.96 
L 474.550633 534.77962 
L 472.431646 534.77962 
z
" style="fill:#1f77b4;"/>
   </g>
   <g id="patch_77">
    <path clip-path="url(#p91a45fe9cb)" d="M 476.66962 768.96 
L 478.788608 768.96 
L 478.788608 506.776748 
L 476.66962 506.776748 
z
" style="fill:#1f77b4;"/>
   </g>
   <g id="patch_78">
    <path clip-path="url(#p91a45fe9cb)" d="M 480.907595 768.96 
L 483.026582 768.96 
L 483.026582 536.191482 
L 480.907595 536.191482 
z
" style="fill:#1f77b4;"/>
   </g>
   <g id="patch_79">
    <path clip-path="url(#p91a45fe9cb)" d="M 485.14557 768.96 
L 487.264557 768.96 
L 487.264557 503.232804 
L 485.14557 503.232804 
z
" style="fill:#1f77b4;"/>
   </g>
   <g id="patch_80">
    <path clip-path="url(#p91a45fe9cb)" d="M 489.383544 768.96 
L 491.502532 768.96 
L 491.502532 490.663235 
L 489.383544 490.663235 
z
" style="fill:#1f77b4;"/>
   </g>
   <g id="patch_81">
    <path clip-path="url(#p91a45fe9cb)" d="M 493.621519 768.96 
L 495.740506 768.96 
L 495.740506 595.518245 
L 493.621519 595.518245 
z
" style="fill:#1f77b4;"/>
   </g>
   <g id="patch_82">
    <path clip-path="url(#p91a45fe9cb)" d="M 497.859494 768.96 
L 499.978481 768.96 
L 499.978481 674.222378 
L 497.859494 674.222378 
z
" style="fill:#1f77b4;"/>
   </g>
   <g id="patch_83">
    <path clip-path="url(#p91a45fe9cb)" d="M 502.097468 768.96 
L 504.216456 768.96 
L 504.216456 620.074346 
L 502.097468 620.074346 
z
" style="fill:#1f77b4;"/>
   </g>
   <g id="patch_84">
    <path clip-path="url(#p91a45fe9cb)" d="M 506.335443 768.96 
L 508.45443 768.96 
L 508.45443 589.350639 
L 506.335443 589.350639 
z
" style="fill:#1f77b4;"/>
   </g>
   <g id="patch_85">
    <path clip-path="url(#p91a45fe9cb)" d="M 510.573418 768.96 
L 512.692405 768.96 
L 512.692405 582.662874 
L 510.573418 582.662874 
z
" style="fill:#1f77b4;"/>
   </g>
   <g id="patch_86">
    <path clip-path="url(#p91a45fe9cb)" d="M 514.811392 768.96 
L 516.93038 768.96 
L 516.93038 530.241085 
L 514.811392 530.241085 
z
" style="fill:#1f77b4;"/>
   </g>
   <g id="patch_87">
    <path clip-path="url(#p91a45fe9cb)" d="M 519.049367 768.96 
L 521.168354 768.96 
L 521.168354 467.038848 
L 519.049367 467.038848 
z
" style="fill:#1f77b4;"/>
   </g>
   <g id="patch_88">
    <path clip-path="url(#p91a45fe9cb)" d="M 523.287342 768.96 
L 525.406329 768.96 
L 525.406329 505.71928 
L 523.287342 505.71928 
z
" style="fill:#1f77b4;"/>
   </g>
   <g id="patch_89">
    <path clip-path="url(#p91a45fe9cb)" d="M 527.525316 768.96 
L 529.644304 768.96 
L 529.644304 664.002102 
L 527.525316 664.002102 
z
" style="fill:#1f77b4;"/>
   </g>
   <g id="patch_90">
    <path clip-path="url(#p91a45fe9cb)" d="M 531.763291 768.96 
L 533.882278 768.96 
L 533.882278 608.870911 
L 531.763291 608.870911 
z
" style="fill:#1f77b4;"/>
   </g>
   <g id="patch_91">
    <path clip-path="url(#p91a45fe9cb)" d="M 536.001266 768.96 
L 538.120253 768.96 
L 538.120253 479.625565 
L 536.001266 479.625565 
z
" style="fill:#1f77b4;"/>
   </g>
   <g id="patch_92">
    <path clip-path="url(#p91a45fe9cb)" d="M 540.239241 768.96 
L 542.358228 768.96 
L 542.358228 522.478705 
L 540.239241 522.478705 
z
" style="fill:#1f77b4;"/>
   </g>
   <g id="patch_93">
    <path clip-path="url(#p91a45fe9cb)" d="M 544.477215 768.96 
L 546.596203 768.96 
L 546.596203 428.186935 
L 544.477215 428.186935 
z
" style="fill:#1f77b4;"/>
   </g>
   <g id="patch_94">
    <path clip-path="url(#p91a45fe9cb)" d="M 548.71519 768.96 
L 550.834177 768.96 
L 550.834177 420.6189 
L 548.71519 420.6189 
z
" style="fill:#1f77b4;"/>
   </g>
   <g id="patch_95">
    <path clip-path="url(#p91a45fe9cb)" d="M 552.953165 768.96 
L 555.072152 768.96 
L 555.072152 496.739384 
L 552.953165 496.739384 
z
" style="fill:#1f77b4;"/>
   </g>
   <g id="patch_96">
    <path clip-path="url(#p91a45fe9cb)" d="M 557.191139 768.96 
L 559.310127 768.96 
L 559.310127 693.308231 
L 557.191139 693.308231 
z
" style="fill:#1f77b4;"/>
   </g>
   <g id="patch_97">
    <path clip-path="url(#p91a45fe9cb)" d="M 561.429114 768.96 
L 563.548101 768.96 
L 563.548101 512.298441 
L 561.429114 512.298441 
z
" style="fill:#1f77b4;"/>
   </g>
   <g id="patch_98">
    <path clip-path="url(#p91a45fe9cb)" d="M 565.667089 768.96 
L 567.786076 768.96 
L 567.786076 367.917025 
L 565.667089 367.917025 
z
" style="fill:#1f77b4;"/>
   </g>
   <g id="patch_99">
    <path clip-path="url(#p91a45fe9cb)" d="M 569.905063 768.96 
L 572.024051 768.96 
L 572.024051 324.286503 
L 569.905063 324.286503 
z
" style="fill:#1f77b4;"/>
   </g>
   <g id="patch_100">
    <path clip-path="url(#p91a45fe9cb)" d="M 574.143038 768.96 
L 576.262025 768.96 
L 576.262025 241.632587 
L 574.143038 241.632587 
z
" style="fill:#1f77b4;"/>
   </g>
   <g id="patch_101">
    <path clip-path="url(#p91a45fe9cb)" d="M 578.381013 768.96 
L 580.5 768.96 
L 580.5 135.36 
L 578.381013 135.36 
z
" style="fill:#1f77b4;"/>
   </g>
   <g id="patch_102">
    <path clip-path="url(#p91a45fe9cb)" d="M 582.618987 768.96 
L 584.737975 768.96 
L 584.737975 335.655704 
L 582.618987 335.655704 
z
" style="fill:#1f77b4;"/>
   </g>
   <g id="patch_103">
    <path clip-path="url(#p91a45fe9cb)" d="M 586.856962 768.96 
L 588.975949 768.96 
L 588.975949 556.289073 
L 586.856962 556.289073 
z
" style="fill:#1f77b4;"/>
   </g>
   <g id="patch_104">
    <path clip-path="url(#p91a45fe9cb)" d="M 591.094937 768.96 
L 593.213924 768.96 
L 593.213924 414.034023 
L 591.094937 414.034023 
z
" style="fill:#1f77b4;"/>
   </g>
   <g id="patch_105">
    <path clip-path="url(#p91a45fe9cb)" d="M 595.332911 768.96 
L 597.451899 768.96 
L 597.451899 333.683671 
L 595.332911 333.683671 
z
" style="fill:#1f77b4;"/>
   </g>
   <g id="patch_106">
    <path clip-path="url(#p91a45fe9cb)" d="M 599.570886 768.96 
L 601.689873 768.96 
L 601.689873 396.217132 
L 599.570886 396.217132 
z
" style="fill:#1f77b4;"/>
   </g>
   <g id="patch_107">
    <path clip-path="url(#p91a45fe9cb)" d="M 603.808861 768.96 
L 605.927848 768.96 
L 605.927848 264.445297 
L 603.808861 264.445297 
z
" style="fill:#1f77b4;"/>
   </g>
   <g id="patch_108">
    <path clip-path="url(#p91a45fe9cb)" d="M 608.046835 768.96 
L 610.165823 768.96 
L 610.165823 268.532264 
L 608.046835 268.532264 
z
" style="fill:#1f77b4;"/>
   </g>
   <g id="patch_109">
    <path clip-path="url(#p91a45fe9cb)" d="M 612.28481 768.96 
L 614.403797 768.96 
L 614.403797 412.799359 
L 612.28481 412.799359 
z
" style="fill:#1f77b4;"/>
   </g>
   <g id="patch_110">
    <path clip-path="url(#p91a45fe9cb)" d="M 616.522785 768.96 
L 618.641772 768.96 
L 618.641772 565.08034 
L 616.522785 565.08034 
z
" style="fill:#1f77b4;"/>
   </g>
   <g id="patch_111">
    <path clip-path="url(#p91a45fe9cb)" d="M 620.760759 768.96 
L 622.879747 768.96 
L 622.879747 478.985369 
L 620.760759 478.985369 
z
" style="fill:#1f77b4;"/>
   </g>
   <g id="patch_112">
    <path clip-path="url(#p91a45fe9cb)" d="M 624.998734 768.96 
L 627.117722 768.96 
L 627.117722 297.249641 
L 624.998734 297.249641 
z
" style="fill:#1f77b4;"/>
   </g>
   <g id="patch_113">
    <path clip-path="url(#p91a45fe9cb)" d="M 629.236709 768.96 
L 631.355696 768.96 
L 631.355696 347.602224 
L 629.236709 347.602224 
z
" style="fill:#1f77b4;"/>
   </g>
   <g id="patch_114">
    <path clip-path="url(#p91a45fe9cb)" d="M 633.474684 768.96 
L 635.593671 768.96 
L 635.593671 322.851778 
L 633.474684 322.851778 
z
" style="fill:#1f77b4;"/>
   </g>
   <g id="patch_115">
    <path clip-path="url(#p91a45fe9cb)" d="M 637.712658 768.96 
L 639.831646 768.96 
L 639.831646 349.962948 
L 637.712658 349.962948 
z
" style="fill:#1f77b4;"/>
   </g>
   <g id="patch_116">
    <path clip-path="url(#p91a45fe9cb)" d="M 641.950633 768.96 
L 644.06962 768.96 
L 644.06962 485.015789 
L 641.950633 485.015789 
z
" style="fill:#1f77b4;"/>
   </g>
   <g id="patch_117">
    <path clip-path="url(#p91a45fe9cb)" d="M 646.188608 768.96 
L 648.307595 768.96 
L 648.307595 646.350975 
L 646.188608 646.350975 
z
" style="fill:#1f77b4;"/>
   </g>
   <g id="patch_118">
    <path clip-path="url(#p91a45fe9cb)" d="M 650.426582 768.96 
L 652.54557 768.96 
L 652.54557 510.920875 
L 650.426582 510.920875 
z
" style="fill:#1f77b4;"/>
   </g>
   <g id="patch_119">
    <path clip-path="url(#p91a45fe9cb)" d="M 654.664557 768.96 
L 656.783544 768.96 
L 656.783544 402.436181 
L 654.664557 402.436181 
z
" style="fill:#1f77b4;"/>
   </g>
   <g id="patch_120">
    <path clip-path="url(#p91a45fe9cb)" d="M 658.902532 768.96 
L 661.021519 768.96 
L 661.021519 383.43607 
L 658.902532 383.43607 
z
" style="fill:#1f77b4;"/>
   </g>
   <g id="patch_121">
    <path clip-path="url(#p91a45fe9cb)" d="M 663.140506 768.96 
L 665.259494 768.96 
L 665.259494 395.422602 
L 663.140506 395.422602 
z
" style="fill:#1f77b4;"/>
   </g>
   <g id="patch_122">
    <path clip-path="url(#p91a45fe9cb)" d="M 667.378481 768.96 
L 669.497468 768.96 
L 669.497468 451.702717 
L 667.378481 451.702717 
z
" style="fill:#1f77b4;"/>
   </g>
   <g id="patch_123">
    <path clip-path="url(#p91a45fe9cb)" d="M 671.616456 768.96 
L 673.735443 768.96 
L 673.735443 623.018106 
L 671.616456 623.018106 
z
" style="fill:#1f77b4;"/>
   </g>
   <g id="patch_124">
    <path clip-path="url(#p91a45fe9cb)" d="M 675.85443 768.96 
L 677.973418 768.96 
L 677.973418 719.247613 
L 675.85443 719.247613 
z
" style="fill:#1f77b4;"/>
   </g>
   <g id="patch_125">
    <path clip-path="url(#p91a45fe9cb)" d="M 680.092405 768.96 
L 682.211392 768.96 
L 682.211392 615.604404 
L 680.092405 615.604404 
z
" style="fill:#1f77b4;"/>
   </g>
   <g id="patch_126">
    <path clip-path="url(#p91a45fe9cb)" d="M 684.33038 768.96 
L 686.449367 768.96 
L 686.449367 361.995209 
L 684.33038 361.995209 
z
" style="fill:#1f77b4;"/>
   </g>
   <g id="patch_127">
    <path clip-path="url(#p91a45fe9cb)" d="M 688.568354 768.96 
L 690.687342 768.96 
L 690.687342 369.660417 
L 688.568354 369.660417 
z
" style="fill:#1f77b4;"/>
   </g>
   <g id="patch_128">
    <path clip-path="url(#p91a45fe9cb)" d="M 692.806329 768.96 
L 694.925316 768.96 
L 694.925316 468.799388 
L 692.806329 468.799388 
z
" style="fill:#1f77b4;"/>
   </g>
   <g id="patch_129">
    <path clip-path="url(#p91a45fe9cb)" d="M 697.044304 768.96 
L 699.163291 768.96 
L 699.163291 322.926086 
L 697.044304 322.926086 
z
" style="fill:#1f77b4;"/>
   </g>
   <g id="patch_130">
    <path clip-path="url(#p91a45fe9cb)" d="M 701.282278 768.96 
L 703.401266 768.96 
L 703.401266 463.614941 
L 701.282278 463.614941 
z
" style="fill:#1f77b4;"/>
   </g>
   <g id="patch_131">
    <path clip-path="url(#p91a45fe9cb)" d="M 705.520253 768.96 
L 707.639241 768.96 
L 707.639241 497.213815 
L 705.520253 497.213815 
z
" style="fill:#1f77b4;"/>
   </g>
   <g id="patch_132">
    <path clip-path="url(#p91a45fe9cb)" d="M 709.758228 768.96 
L 711.877215 768.96 
L 711.877215 539.958351 
L 709.758228 539.958351 
z
" style="fill:#1f77b4;"/>
   </g>
   <g id="patch_133">
    <path clip-path="url(#p91a45fe9cb)" d="M 713.996203 768.96 
L 716.11519 768.96 
L 716.11519 460.082429 
L 713.996203 460.082429 
z
" style="fill:#1f77b4;"/>
   </g>
   <g id="patch_134">
    <path clip-path="url(#p91a45fe9cb)" d="M 718.234177 768.96 
L 720.353165 768.96 
L 720.353165 489.58862 
L 718.234177 489.58862 
z
" style="fill:#1f77b4;"/>
   </g>
   <g id="patch_135">
    <path clip-path="url(#p91a45fe9cb)" d="M 722.472152 768.96 
L 724.591139 768.96 
L 724.591139 479.259738 
L 722.472152 479.259738 
z
" style="fill:#1f77b4;"/>
   </g>
   <g id="patch_136">
    <path clip-path="url(#p91a45fe9cb)" d="M 726.710127 768.96 
L 728.829114 768.96 
L 728.829114 350.088701 
L 726.710127 350.088701 
z
" style="fill:#1f77b4;"/>
   </g>
   <g id="patch_137">
    <path clip-path="url(#p91a45fe9cb)" d="M 730.948101 768.96 
L 733.067089 768.96 
L 733.067089 533.242006 
L 730.948101 533.242006 
z
" style="fill:#1f77b4;"/>
   </g>
   <g id="patch_138">
    <path clip-path="url(#p91a45fe9cb)" d="M 735.186076 768.96 
L 737.305063 768.96 
L 737.305063 671.084273 
L 735.186076 671.084273 
z
" style="fill:#1f77b4;"/>
   </g>
   <g id="patch_139">
    <path clip-path="url(#p91a45fe9cb)" d="M 739.424051 768.96 
L 741.543038 768.96 
L 741.543038 607.041778 
L 739.424051 607.041778 
z
" style="fill:#1f77b4;"/>
   </g>
   <g id="patch_140">
    <path clip-path="url(#p91a45fe9cb)" d="M 743.662025 768.96 
L 745.781013 768.96 
L 745.781013 466.770194 
L 743.662025 466.770194 
z
" style="fill:#1f77b4;"/>
   </g>
   <g id="patch_141">
    <path clip-path="url(#p91a45fe9cb)" d="M 747.9 768.96 
L 750.018987 768.96 
L 750.018987 500.460525 
L 747.9 500.460525 
z
" style="fill:#1f77b4;"/>
   </g>
   <g id="patch_142">
    <path clip-path="url(#p91a45fe9cb)" d="M 752.137975 768.96 
L 754.256962 768.96 
L 754.256962 388.140369 
L 752.137975 388.140369 
z
" style="fill:#1f77b4;"/>
   </g>
   <g id="patch_143">
    <path clip-path="url(#p91a45fe9cb)" d="M 756.375949 768.96 
L 758.494937 768.96 
L 758.494937 521.489831 
L 756.375949 521.489831 
z
" style="fill:#1f77b4;"/>
   </g>
   <g id="patch_144">
    <path clip-path="url(#p91a45fe9cb)" d="M 760.613924 768.96 
L 762.732911 768.96 
L 762.732911 569.384517 
L 760.613924 569.384517 
z
" style="fill:#1f77b4;"/>
   </g>
   <g id="patch_145">
    <path clip-path="url(#p91a45fe9cb)" d="M 764.851899 768.96 
L 766.970886 768.96 
L 766.970886 676.943213 
L 764.851899 676.943213 
z
" style="fill:#1f77b4;"/>
   </g>
   <g id="patch_146">
    <path clip-path="url(#p91a45fe9cb)" d="M 769.089873 768.96 
L 771.208861 768.96 
L 771.208861 619.565619 
L 769.089873 619.565619 
z
" style="fill:#1f77b4;"/>
   </g>
   <g id="patch_147">
    <path clip-path="url(#p91a45fe9cb)" d="M 773.327848 768.96 
L 775.446835 768.96 
L 775.446835 587.424334 
L 773.327848 587.424334 
z
" style="fill:#1f77b4;"/>
   </g>
   <g id="patch_148">
    <path clip-path="url(#p91a45fe9cb)" d="M 777.565823 768.96 
L 779.68481 768.96 
L 779.68481 584.246217 
L 777.565823 584.246217 
z
" style="fill:#1f77b4;"/>
   </g>
   <g id="patch_149">
    <path clip-path="url(#p91a45fe9cb)" d="M 781.803797 768.96 
L 783.922785 768.96 
L 783.922785 574.237434 
L 781.803797 574.237434 
z
" style="fill:#1f77b4;"/>
   </g>
   <g id="patch_150">
    <path clip-path="url(#p91a45fe9cb)" d="M 786.041772 768.96 
L 788.160759 768.96 
L 788.160759 589.790774 
L 786.041772 589.790774 
z
" style="fill:#1f77b4;"/>
   </g>
   <g id="patch_151">
    <path clip-path="url(#p91a45fe9cb)" d="M 790.279747 768.96 
L 792.398734 768.96 
L 792.398734 646.288098 
L 790.279747 646.288098 
z
" style="fill:#1f77b4;"/>
   </g>
   <g id="patch_152">
    <path clip-path="url(#p91a45fe9cb)" d="M 794.517722 768.96 
L 796.636709 768.96 
L 796.636709 700.544736 
L 794.517722 700.544736 
z
" style="fill:#1f77b4;"/>
   </g>
   <g id="patch_153">
    <path clip-path="url(#p91a45fe9cb)" d="M 798.755696 768.96 
L 800.874684 768.96 
L 800.874684 717.82432 
L 798.755696 717.82432 
z
" style="fill:#1f77b4;"/>
   </g>
   <g id="patch_154">
    <path clip-path="url(#p91a45fe9cb)" d="M 802.993671 768.96 
L 805.112658 768.96 
L 805.112658 659.829394 
L 802.993671 659.829394 
z
" style="fill:#1f77b4;"/>
   </g>
   <g id="patch_155">
    <path clip-path="url(#p91a45fe9cb)" d="M 807.231646 768.96 
L 809.350633 768.96 
L 809.350633 653.581764 
L 807.231646 653.581764 
z
" style="fill:#1f77b4;"/>
   </g>
   <g id="patch_156">
    <path clip-path="url(#p91a45fe9cb)" d="M 811.46962 768.96 
L 813.588608 768.96 
L 813.588608 581.811185 
L 811.46962 581.811185 
z
" style="fill:#1f77b4;"/>
   </g>
   <g id="patch_157">
    <path clip-path="url(#p91a45fe9cb)" d="M 815.707595 768.96 
L 817.826582 768.96 
L 817.826582 557.889564 
L 815.707595 557.889564 
z
" style="fill:#1f77b4;"/>
   </g>
   <g id="patch_158">
    <path clip-path="url(#p91a45fe9cb)" d="M 819.94557 768.96 
L 822.064557 768.96 
L 822.064557 580.405039 
L 819.94557 580.405039 
z
" style="fill:#1f77b4;"/>
   </g>
   <g id="patch_159">
    <path clip-path="url(#p91a45fe9cb)" d="M 824.183544 768.96 
L 826.302532 768.96 
L 826.302532 634.330146 
L 824.183544 634.330146 
z
" style="fill:#1f77b4;"/>
   </g>
   <g id="patch_160">
    <path clip-path="url(#p91a45fe9cb)" d="M 828.421519 768.96 
L 830.540506 768.96 
L 830.540506 585.698091 
L 828.421519 585.698091 
z
" style="fill:#1f77b4;"/>
   </g>
   <g id="patch_161">
    <path clip-path="url(#p91a45fe9cb)" d="M 832.659494 768.96 
L 834.778481 768.96 
L 834.778481 572.779844 
L 832.659494 572.779844 
z
" style="fill:#1f77b4;"/>
   </g>
   <g id="patch_162">
    <path clip-path="url(#p91a45fe9cb)" d="M 836.897468 768.96 
L 839.016456 768.96 
L 839.016456 536.231494 
L 836.897468 536.231494 
z
" style="fill:#1f77b4;"/>
   </g>
   <g id="patch_163">
    <path clip-path="url(#p91a45fe9cb)" d="M 841.135443 768.96 
L 843.25443 768.96 
L 843.25443 608.893775 
L 841.135443 608.893775 
z
" style="fill:#1f77b4;"/>
   </g>
   <g id="patch_164">
    <path clip-path="url(#p91a45fe9cb)" d="M 845.373418 768.96 
L 847.492405 768.96 
L 847.492405 618.931138 
L 845.373418 618.931138 
z
" style="fill:#1f77b4;"/>
   </g>
   <g id="patch_165">
    <path clip-path="url(#p91a45fe9cb)" d="M 849.611392 768.96 
L 851.73038 768.96 
L 851.73038 678.869518 
L 849.611392 678.869518 
z
" style="fill:#1f77b4;"/>
   </g>
   <g id="patch_166">
    <path clip-path="url(#p91a45fe9cb)" d="M 853.849367 768.96 
L 855.968354 768.96 
L 855.968354 677.406212 
L 853.849367 677.406212 
z
" style="fill:#1f77b4;"/>
   </g>
   <g id="patch_167">
    <path clip-path="url(#p91a45fe9cb)" d="M 858.087342 768.96 
L 860.206329 768.96 
L 860.206329 490.303125 
L 858.087342 490.303125 
z
" style="fill:#1f77b4;"/>
   </g>
   <g id="patch_168">
    <path clip-path="url(#p91a45fe9cb)" d="M 862.325316 768.96 
L 864.444304 768.96 
L 864.444304 562.645308 
L 862.325316 562.645308 
z
" style="fill:#1f77b4;"/>
   </g>
   <g id="patch_169">
    <path clip-path="url(#p91a45fe9cb)" d="M 866.563291 768.96 
L 868.682278 768.96 
L 868.682278 627.973911 
L 866.563291 627.973911 
z
" style="fill:#1f77b4;"/>
   </g>
   <g id="patch_170">
    <path clip-path="url(#p91a45fe9cb)" d="M 870.801266 768.96 
L 872.920253 768.96 
L 872.920253 583.131589 
L 870.801266 583.131589 
z
" style="fill:#1f77b4;"/>
   </g>
   <g id="patch_171">
    <path clip-path="url(#p91a45fe9cb)" d="M 875.039241 768.96 
L 877.158228 768.96 
L 877.158228 679.658331 
L 875.039241 679.658331 
z
" style="fill:#1f77b4;"/>
   </g>
   <g id="patch_172">
    <path clip-path="url(#p91a45fe9cb)" d="M 879.277215 768.96 
L 881.396203 768.96 
L 881.396203 631.237769 
L 879.277215 631.237769 
z
" style="fill:#1f77b4;"/>
   </g>
   <g id="patch_173">
    <path clip-path="url(#p91a45fe9cb)" d="M 883.51519 768.96 
L 885.634177 768.96 
L 885.634177 709.610373 
L 883.51519 709.610373 
z
" style="fill:#1f77b4;"/>
   </g>
   <g id="patch_174">
    <path clip-path="url(#p91a45fe9cb)" d="M 887.753165 768.96 
L 889.872152 768.96 
L 889.872152 696.80073 
L 887.753165 696.80073 
z
" style="fill:#1f77b4;"/>
   </g>
   <g id="patch_175">
    <path clip-path="url(#p91a45fe9cb)" d="M 891.991139 768.96 
L 894.110127 768.96 
L 894.110127 681.075909 
L 891.991139 681.075909 
z
" style="fill:#1f77b4;"/>
   </g>
   <g id="patch_176">
    <path clip-path="url(#p91a45fe9cb)" d="M 896.229114 768.96 
L 898.348101 768.96 
L 898.348101 662.138673 
L 896.229114 662.138673 
z
" style="fill:#1f77b4;"/>
   </g>
   <g id="patch_177">
    <path clip-path="url(#p91a45fe9cb)" d="M 900.467089 768.96 
L 902.586076 768.96 
L 902.586076 639.314532 
L 900.467089 639.314532 
z
" style="fill:#1f77b4;"/>
   </g>
   <g id="patch_178">
    <path clip-path="url(#p91a45fe9cb)" d="M 904.705063 768.96 
L 906.824051 768.96 
L 906.824051 478.025074 
L 904.705063 478.025074 
z
" style="fill:#1f77b4;"/>
   </g>
   <g id="patch_179">
    <path clip-path="url(#p91a45fe9cb)" d="M 908.943038 768.96 
L 911.062025 768.96 
L 911.062025 433.056999 
L 908.943038 433.056999 
z
" style="fill:#1f77b4;"/>
   </g>
   <g id="patch_180">
    <path clip-path="url(#p91a45fe9cb)" d="M 913.181013 768.96 
L 915.3 768.96 
L 915.3 739.036539 
L 913.181013 739.036539 
z
" style="fill:#1f77b4;"/>
   </g>
   <g id="patch_181">
    <path clip-path="url(#p91a45fe9cb)" d="M 917.418987 768.96 
L 919.537975 768.96 
L 919.537975 694.760105 
L 917.418987 694.760105 
z
" style="fill:#1f77b4;"/>
   </g>
   <g id="patch_182">
    <path clip-path="url(#p91a45fe9cb)" d="M 921.656962 768.96 
L 923.775949 768.96 
L 923.775949 677.652002 
L 921.656962 677.652002 
z
" style="fill:#1f77b4;"/>
   </g>
   <g id="patch_183">
    <path clip-path="url(#p91a45fe9cb)" d="M 925.894937 768.96 
L 928.013924 768.96 
L 928.013924 680.961588 
L 925.894937 680.961588 
z
" style="fill:#1f77b4;"/>
   </g>
   <g id="patch_184">
    <path clip-path="url(#p91a45fe9cb)" d="M 930.132911 768.96 
L 932.251899 768.96 
L 932.251899 690.101533 
L 930.132911 690.101533 
z
" style="fill:#1f77b4;"/>
   </g>
   <g id="patch_185">
    <path clip-path="url(#p91a45fe9cb)" d="M 934.370886 768.96 
L 936.489873 768.96 
L 936.489873 689.895756 
L 934.370886 689.895756 
z
" style="fill:#1f77b4;"/>
   </g>
   <g id="patch_186">
    <path clip-path="url(#p91a45fe9cb)" d="M 938.608861 768.96 
L 940.727848 768.96 
L 940.727848 709.764706 
L 938.608861 709.764706 
z
" style="fill:#1f77b4;"/>
   </g>
   <g id="patch_187">
    <path clip-path="url(#p91a45fe9cb)" d="M 942.846835 768.96 
L 944.965823 768.96 
L 944.965823 740.459832 
L 942.846835 740.459832 
z
" style="fill:#1f77b4;"/>
   </g>
   <g id="patch_188">
    <path clip-path="url(#p91a45fe9cb)" d="M 947.08481 768.96 
L 949.203797 768.96 
L 949.203797 764.187108 
L 947.08481 764.187108 
z
" style="fill:#1f77b4;"/>
   </g>
   <g id="patch_189">
    <path clip-path="url(#p91a45fe9cb)" d="M 951.322785 768.96 
L 953.441772 768.96 
L 953.441772 723.105939 
L 951.322785 723.105939 
z
" style="fill:#1f77b4;"/>
   </g>
   <g id="patch_190">
    <path clip-path="url(#p91a45fe9cb)" d="M 955.560759 768.96 
L 957.679747 768.96 
L 957.679747 688.026611 
L 955.560759 688.026611 
z
" style="fill:#1f77b4;"/>
   </g>
   <g id="patch_191">
    <path clip-path="url(#p91a45fe9cb)" d="M 959.798734 768.96 
L 961.917722 768.96 
L 961.917722 687.575044 
L 959.798734 687.575044 
z
" style="fill:#1f77b4;"/>
   </g>
   <g id="patch_192">
    <path clip-path="url(#p91a45fe9cb)" d="M 964.036709 768.96 
L 966.155696 768.96 
L 966.155696 697.743877 
L 964.036709 697.743877 
z
" style="fill:#1f77b4;"/>
   </g>
   <g id="patch_193">
    <path clip-path="url(#p91a45fe9cb)" d="M 968.274684 768.96 
L 970.393671 768.96 
L 970.393671 708.524325 
L 968.274684 708.524325 
z
" style="fill:#1f77b4;"/>
   </g>
   <g id="patch_194">
    <path clip-path="url(#p91a45fe9cb)" d="M 972.512658 768.96 
L 974.631646 768.96 
L 974.631646 727.873115 
L 972.512658 727.873115 
z
" style="fill:#1f77b4;"/>
   </g>
   <g id="patch_195">
    <path clip-path="url(#p91a45fe9cb)" d="M 976.750633 768.96 
L 978.86962 768.96 
L 978.86962 692.770923 
L 976.750633 692.770923 
z
" style="fill:#1f77b4;"/>
   </g>
   <g id="patch_196">
    <path clip-path="url(#p91a45fe9cb)" d="M 980.988608 768.96 
L 983.107595 768.96 
L 983.107595 705.649158 
L 980.988608 705.649158 
z
" style="fill:#1f77b4;"/>
   </g>
   <g id="patch_197">
    <path clip-path="url(#p91a45fe9cb)" d="M 985.226582 768.96 
L 987.34557 768.96 
L 987.34557 708.638646 
L 985.226582 708.638646 
z
" style="fill:#1f77b4;"/>
   </g>
   <g id="patch_198">
    <path clip-path="url(#p91a45fe9cb)" d="M 989.464557 768.96 
L 991.583544 768.96 
L 991.583544 709.164522 
L 989.464557 709.164522 
z
" style="fill:#1f77b4;"/>
   </g>
   <g id="patch_199">
    <path clip-path="url(#p91a45fe9cb)" d="M 993.702532 768.96 
L 995.821519 768.96 
L 995.821519 708.278536 
L 993.702532 708.278536 
z
" style="fill:#1f77b4;"/>
   </g>
   <g id="patch_200">
    <path clip-path="url(#p91a45fe9cb)" d="M 997.940506 768.96 
L 1000.059494 768.96 
L 1000.059494 718.207294 
L 997.940506 718.207294 
z
" style="fill:#1f77b4;"/>
   </g>
   <g id="patch_201">
    <path clip-path="url(#p91a45fe9cb)" d="M 1002.178481 768.96 
L 1004.297468 768.96 
L 1004.297468 734.343671 
L 1002.178481 734.343671 
z
" style="fill:#1f77b4;"/>
   </g>
   <g id="patch_202">
    <path clip-path="url(#p91a45fe9cb)" d="M 1006.416456 768.96 
L 1008.535443 768.96 
L 1008.535443 717.778592 
L 1006.416456 717.778592 
z
" style="fill:#1f77b4;"/>
   </g>
   <g id="patch_203">
    <path clip-path="url(#p91a45fe9cb)" d="M 1010.65443 768.96 
L 1012.773418 768.96 
L 1012.773418 700.601896 
L 1010.65443 700.601896 
z
" style="fill:#1f77b4;"/>
   </g>
   <g id="patch_204">
    <path clip-path="url(#p91a45fe9cb)" d="M 1014.892405 768.96 
L 1017.011392 768.96 
L 1017.011392 705.363356 
L 1014.892405 705.363356 
z
" style="fill:#1f77b4;"/>
   </g>
   <g id="patch_205">
    <path clip-path="url(#p91a45fe9cb)" d="M 1019.13038 768.96 
L 1021.249367 768.96 
L 1021.249367 722.637224 
L 1019.13038 722.637224 
z
" style="fill:#1f77b4;"/>
   </g>
   <g id="patch_206">
    <path clip-path="url(#p91a45fe9cb)" d="M 1023.368354 768.96 
L 1025.487342 768.96 
L 1025.487342 721.911287 
L 1023.368354 721.911287 
z
" style="fill:#1f77b4;"/>
   </g>
   <g id="patch_207">
    <path clip-path="url(#p91a45fe9cb)" d="M 1027.606329 768.96 
L 1029.725316 768.96 
L 1029.725316 739.522402 
L 1027.606329 739.522402 
z
" style="fill:#1f77b4;"/>
   </g>
   <g id="patch_208">
    <path clip-path="url(#p91a45fe9cb)" d="M 1031.844304 768.96 
L 1033.963291 768.96 
L 1033.963291 751.909057 
L 1031.844304 751.909057 
z
" style="fill:#1f77b4;"/>
   </g>
   <g id="patch_209">
    <path clip-path="url(#p91a45fe9cb)" d="M 1036.082278 768.96 
L 1038.201266 768.96 
L 1038.201266 741.008572 
L 1036.082278 741.008572 
z
" style="fill:#1f77b4;"/>
   </g>
   <g id="patch_210">
    <path clip-path="url(#p91a45fe9cb)" d="M 1040.320253 768.96 
L 1042.439241 768.96 
L 1042.439241 704.717444 
L 1040.320253 704.717444 
z
" style="fill:#1f77b4;"/>
   </g>
   <g id="patch_211">
    <path clip-path="url(#p91a45fe9cb)" d="M 1044.558228 768.96 
L 1046.677215 768.96 
L 1046.677215 660.343837 
L 1044.558228 660.343837 
z
" style="fill:#1f77b4;"/>
   </g>
   <g id="patch_212">
    <path clip-path="url(#p91a45fe9cb)" d="M 1048.796203 768.96 
L 1050.91519 768.96 
L 1050.91519 712.851366 
L 1048.796203 712.851366 
z
" style="fill:#1f77b4;"/>
   </g>
   <g id="patch_213">
    <path clip-path="url(#p91a45fe9cb)" d="M 1053.034177 768.96 
L 1055.153165 768.96 
L 1055.153165 645.264928 
L 1053.034177 645.264928 
z
" style="fill:#1f77b4;"/>
   </g>
   <g id="patch_214">
    <path clip-path="url(#p91a45fe9cb)" d="M 1057.272152 768.96 
L 1059.391139 768.96 
L 1059.391139 724.214851 
L 1057.272152 724.214851 
z
" style="fill:#1f77b4;"/>
   </g>
   <g id="patch_215">
    <path clip-path="url(#p91a45fe9cb)" d="M 1061.510127 768.96 
L 1063.629114 768.96 
L 1063.629114 735.504027 
L 1061.510127 735.504027 
z
" style="fill:#1f77b4;"/>
   </g>
   <g id="patch_216">
    <path clip-path="url(#p91a45fe9cb)" d="M 1065.748101 768.96 
L 1067.867089 768.96 
L 1067.867089 723.677543 
L 1065.748101 723.677543 
z
" style="fill:#1f77b4;"/>
   </g>
   <g id="patch_217">
    <path clip-path="url(#p91a45fe9cb)" d="M 1069.986076 768.96 
L 1072.105063 768.96 
L 1072.105063 707.99845 
L 1069.986076 707.99845 
z
" style="fill:#1f77b4;"/>
   </g>
   <g id="patch_218">
    <path clip-path="url(#p91a45fe9cb)" d="M 1074.224051 768.96 
L 1076.343038 768.96 
L 1076.343038 712.582713 
L 1074.224051 712.582713 
z
" style="fill:#1f77b4;"/>
   </g>
   <g id="patch_219">
    <path clip-path="url(#p91a45fe9cb)" d="M 1078.462025 768.96 
L 1080.581013 768.96 
L 1080.581013 710.736432 
L 1078.462025 710.736432 
z
" style="fill:#1f77b4;"/>
   </g>
   <g id="patch_220">
    <path clip-path="url(#p91a45fe9cb)" d="M 1082.7 768.96 
L 1084.818987 768.96 
L 1084.818987 707.39255 
L 1082.7 707.39255 
z
" style="fill:#1f77b4;"/>
   </g>
   <g id="patch_221">
    <path clip-path="url(#p91a45fe9cb)" d="M 1086.937975 768.96 
L 1089.056962 768.96 
L 1089.056962 669.077944 
L 1086.937975 669.077944 
z
" style="fill:#1f77b4;"/>
   </g>
   <g id="patch_222">
    <path clip-path="url(#p91a45fe9cb)" d="M 1091.175949 768.96 
L 1093.294937 768.96 
L 1093.294937 730.696838 
L 1091.175949 730.696838 
z
" style="fill:#1f77b4;"/>
   </g>
   <g id="patch_223">
    <path clip-path="url(#p91a45fe9cb)" d="M 1095.413924 768.96 
L 1097.532911 768.96 
L 1097.532911 725.420935 
L 1095.413924 725.420935 
z
" style="fill:#1f77b4;"/>
   </g>
   <g id="patch_224">
    <path clip-path="url(#p91a45fe9cb)" d="M 1099.651899 768.96 
L 1101.770886 768.96 
L 1101.770886 727.884548 
L 1099.651899 727.884548 
z
" style="fill:#1f77b4;"/>
   </g>
   <g id="patch_225">
    <path clip-path="url(#p91a45fe9cb)" d="M 1103.889873 768.96 
L 1106.008861 768.96 
L 1106.008861 618.976867 
L 1103.889873 618.976867 
z
" style="fill:#1f77b4;"/>
   </g>
   <g id="patch_226">
    <path clip-path="url(#p91a45fe9cb)" d="M 1108.127848 768.96 
L 1110.246835 768.96 
L 1110.246835 636.725166 
L 1108.127848 636.725166 
z
" style="fill:#1f77b4;"/>
   </g>
   <g id="patch_227">
    <path clip-path="url(#p91a45fe9cb)" d="M 1112.365823 768.96 
L 1114.48481 768.96 
L 1114.48481 653.34169 
L 1112.365823 653.34169 
z
" style="fill:#1f77b4;"/>
   </g>
   <g id="patch_228">
    <path clip-path="url(#p91a45fe9cb)" d="M 1116.603797 768.96 
L 1118.722785 768.96 
L 1118.722785 612.683508 
L 1116.603797 612.683508 
z
" style="fill:#1f77b4;"/>
   </g>
   <g id="patch_229">
    <path clip-path="url(#p91a45fe9cb)" d="M 1120.841772 768.96 
L 1122.960759 768.96 
L 1122.960759 661.304131 
L 1120.841772 661.304131 
z
" style="fill:#1f77b4;"/>
   </g>
   <g id="patch_230">
    <path clip-path="url(#p91a45fe9cb)" d="M 1125.079747 768.96 
L 1127.198734 768.96 
L 1127.198734 717.109815 
L 1125.079747 717.109815 
z
" style="fill:#1f77b4;"/>
   </g>
   <g id="patch_231">
    <path clip-path="url(#p91a45fe9cb)" d="M 1129.317722 768.96 
L 1131.436709 768.96 
L 1131.436709 695.360289 
L 1129.317722 695.360289 
z
" style="fill:#1f77b4;"/>
   </g>
   <g id="patch_232">
    <path clip-path="url(#p91a45fe9cb)" d="M 1133.555696 768.96 
L 1135.674684 768.96 
L 1135.674684 699.898823 
L 1133.555696 699.898823 
z
" style="fill:#1f77b4;"/>
   </g>
   <g id="patch_233">
    <path clip-path="url(#p91a45fe9cb)" d="M 1137.793671 768.96 
L 1139.912658 768.96 
L 1139.912658 702.568213 
L 1137.793671 702.568213 
z
" style="fill:#1f77b4;"/>
   </g>
   <g id="patch_234">
    <path clip-path="url(#p91a45fe9cb)" d="M 1142.031646 768.96 
L 1144.150633 768.96 
L 1144.150633 704.768888 
L 1142.031646 704.768888 
z
" style="fill:#1f77b4;"/>
   </g>
   <g id="patch_235">
    <path clip-path="url(#p91a45fe9cb)" d="M 1146.26962 768.96 
L 1148.388608 768.96 
L 1148.388608 703.751433 
L 1146.26962 703.751433 
z
" style="fill:#1f77b4;"/>
   </g>
   <g id="patch_236">
    <path clip-path="url(#p91a45fe9cb)" d="M 1150.507595 768.96 
L 1152.626582 768.96 
L 1152.626582 725.580984 
L 1150.507595 725.580984 
z
" style="fill:#1f77b4;"/>
   </g>
   <g id="patch_237">
    <path clip-path="url(#p91a45fe9cb)" d="M 1154.74557 768.96 
L 1156.864557 768.96 
L 1156.864557 715.669373 
L 1154.74557 715.669373 
z
" style="fill:#1f77b4;"/>
   </g>
   <g id="patch_238">
    <path clip-path="url(#p91a45fe9cb)" d="M 1158.983544 768.96 
L 1161.102532 768.96 
L 1161.102532 695.474609 
L 1158.983544 695.474609 
z
" style="fill:#1f77b4;"/>
   </g>
   <g id="patch_239">
    <path clip-path="url(#p91a45fe9cb)" d="M 1163.221519 768.96 
L 1165.340506 768.96 
L 1165.340506 698.526974 
L 1163.221519 698.526974 
z
" style="fill:#1f77b4;"/>
   </g>
   <g id="matplotlib.axis_1">
    <g id="xtick_1">
     <g id="line2d_1">
      <defs>
       <path d="M 0 0 
L 0 3.5 
" id="m681fe933ea" style="stroke:#000000;stroke-width:0.8;"/>
      </defs>
      <g>
       <use style="stroke:#000000;stroke-width:0.8;" x="164.118987" xlink:href="#m681fe933ea" y="768.96"/>
      </g>
     </g>
     <g id="text_1">
      <!-- January -->
      <g transform="translate(145.163519 783.558437)scale(0.1 -0.1)">
       <defs>
        <path d="M 628 4666 
L 1259 4666 
L 1259 325 
Q 1259 -519 939 -900 
Q 619 -1281 -91 -1281 
L -331 -1281 
L -331 -750 
L -134 -750 
Q 284 -750 456 -515 
Q 628 -281 628 325 
L 628 4666 
z
" id="DejaVuSans-4a" transform="scale(0.015625)"/>
        <path d="M 2194 1759 
Q 1497 1759 1228 1600 
Q 959 1441 959 1056 
Q 959 750 1161 570 
Q 1363 391 1709 391 
Q 2188 391 2477 730 
Q 2766 1069 2766 1631 
L 2766 1759 
L 2194 1759 
z
M 3341 1997 
L 3341 0 
L 2766 0 
L 2766 531 
Q 2569 213 2275 61 
Q 1981 -91 1556 -91 
Q 1019 -91 701 211 
Q 384 513 384 1019 
Q 384 1609 779 1909 
Q 1175 2209 1959 2209 
L 2766 2209 
L 2766 2266 
Q 2766 2663 2505 2880 
Q 2244 3097 1772 3097 
Q 1472 3097 1187 3025 
Q 903 2953 641 2809 
L 641 3341 
Q 956 3463 1253 3523 
Q 1550 3584 1831 3584 
Q 2591 3584 2966 3190 
Q 3341 2797 3341 1997 
z
" id="DejaVuSans-61" transform="scale(0.015625)"/>
        <path d="M 3513 2113 
L 3513 0 
L 2938 0 
L 2938 2094 
Q 2938 2591 2744 2837 
Q 2550 3084 2163 3084 
Q 1697 3084 1428 2787 
Q 1159 2491 1159 1978 
L 1159 0 
L 581 0 
L 581 3500 
L 1159 3500 
L 1159 2956 
Q 1366 3272 1645 3428 
Q 1925 3584 2291 3584 
Q 2894 3584 3203 3211 
Q 3513 2838 3513 2113 
z
" id="DejaVuSans-6e" transform="scale(0.015625)"/>
        <path d="M 544 1381 
L 544 3500 
L 1119 3500 
L 1119 1403 
Q 1119 906 1312 657 
Q 1506 409 1894 409 
Q 2359 409 2629 706 
Q 2900 1003 2900 1516 
L 2900 3500 
L 3475 3500 
L 3475 0 
L 2900 0 
L 2900 538 
Q 2691 219 2414 64 
Q 2138 -91 1772 -91 
Q 1169 -91 856 284 
Q 544 659 544 1381 
z
M 1991 3584 
L 1991 3584 
z
" id="DejaVuSans-75" transform="scale(0.015625)"/>
        <path d="M 2631 2963 
Q 2534 3019 2420 3045 
Q 2306 3072 2169 3072 
Q 1681 3072 1420 2755 
Q 1159 2438 1159 1844 
L 1159 0 
L 581 0 
L 581 3500 
L 1159 3500 
L 1159 2956 
Q 1341 3275 1631 3429 
Q 1922 3584 2338 3584 
Q 2397 3584 2469 3576 
Q 2541 3569 2628 3553 
L 2631 2963 
z
" id="DejaVuSans-72" transform="scale(0.015625)"/>
        <path d="M 2059 -325 
Q 1816 -950 1584 -1140 
Q 1353 -1331 966 -1331 
L 506 -1331 
L 506 -850 
L 844 -850 
Q 1081 -850 1212 -737 
Q 1344 -625 1503 -206 
L 1606 56 
L 191 3500 
L 800 3500 
L 1894 763 
L 2988 3500 
L 3597 3500 
L 2059 -325 
z
" id="DejaVuSans-79" transform="scale(0.015625)"/>
       </defs>
       <use xlink:href="#DejaVuSans-4a"/>
       <use x="29.492188" xlink:href="#DejaVuSans-61"/>
       <use x="90.771484" xlink:href="#DejaVuSans-6e"/>
       <use x="154.150391" xlink:href="#DejaVuSans-75"/>
       <use x="217.529297" xlink:href="#DejaVuSans-61"/>
       <use x="278.808594" xlink:href="#DejaVuSans-72"/>
       <use x="319.921875" xlink:href="#DejaVuSans-79"/>
      </g>
     </g>
    </g>
    <g id="xtick_2">
     <g id="line2d_2">
      <g>
       <use style="stroke:#000000;stroke-width:0.8;" x="295.496203" xlink:href="#m681fe933ea" y="768.96"/>
      </g>
     </g>
     <g id="text_2">
      <!-- February -->
      <g transform="translate(273.341515 783.558437)scale(0.1 -0.1)">
       <defs>
        <path d="M 628 4666 
L 3309 4666 
L 3309 4134 
L 1259 4134 
L 1259 2759 
L 3109 2759 
L 3109 2228 
L 1259 2228 
L 1259 0 
L 628 0 
L 628 4666 
z
" id="DejaVuSans-46" transform="scale(0.015625)"/>
        <path d="M 3597 1894 
L 3597 1613 
L 953 1613 
Q 991 1019 1311 708 
Q 1631 397 2203 397 
Q 2534 397 2845 478 
Q 3156 559 3463 722 
L 3463 178 
Q 3153 47 2828 -22 
Q 2503 -91 2169 -91 
Q 1331 -91 842 396 
Q 353 884 353 1716 
Q 353 2575 817 3079 
Q 1281 3584 2069 3584 
Q 2775 3584 3186 3129 
Q 3597 2675 3597 1894 
z
M 3022 2063 
Q 3016 2534 2758 2815 
Q 2500 3097 2075 3097 
Q 1594 3097 1305 2825 
Q 1016 2553 972 2059 
L 3022 2063 
z
" id="DejaVuSans-65" transform="scale(0.015625)"/>
        <path d="M 3116 1747 
Q 3116 2381 2855 2742 
Q 2594 3103 2138 3103 
Q 1681 3103 1420 2742 
Q 1159 2381 1159 1747 
Q 1159 1113 1420 752 
Q 1681 391 2138 391 
Q 2594 391 2855 752 
Q 3116 1113 3116 1747 
z
M 1159 2969 
Q 1341 3281 1617 3432 
Q 1894 3584 2278 3584 
Q 2916 3584 3314 3078 
Q 3713 2572 3713 1747 
Q 3713 922 3314 415 
Q 2916 -91 2278 -91 
Q 1894 -91 1617 61 
Q 1341 213 1159 525 
L 1159 0 
L 581 0 
L 581 4863 
L 1159 4863 
L 1159 2969 
z
" id="DejaVuSans-62" transform="scale(0.015625)"/>
       </defs>
       <use xlink:href="#DejaVuSans-46"/>
       <use x="52.019531" xlink:href="#DejaVuSans-65"/>
       <use x="113.542969" xlink:href="#DejaVuSans-62"/>
       <use x="177.019531" xlink:href="#DejaVuSans-72"/>
       <use x="218.132812" xlink:href="#DejaVuSans-75"/>
       <use x="281.511719" xlink:href="#DejaVuSans-61"/>
       <use x="342.791016" xlink:href="#DejaVuSans-72"/>
       <use x="383.904297" xlink:href="#DejaVuSans-79"/>
      </g>
     </g>
    </g>
    <g id="xtick_3">
     <g id="line2d_3">
      <g>
       <use style="stroke:#000000;stroke-width:0.8;" x="414.159494" xlink:href="#m681fe933ea" y="768.96"/>
      </g>
     </g>
     <g id="text_3">
      <!-- March -->
      <g transform="translate(398.920431 783.558437)scale(0.1 -0.1)">
       <defs>
        <path d="M 628 4666 
L 1569 4666 
L 2759 1491 
L 3956 4666 
L 4897 4666 
L 4897 0 
L 4281 0 
L 4281 4097 
L 3078 897 
L 2444 897 
L 1241 4097 
L 1241 0 
L 628 0 
L 628 4666 
z
" id="DejaVuSans-4d" transform="scale(0.015625)"/>
        <path d="M 3122 3366 
L 3122 2828 
Q 2878 2963 2633 3030 
Q 2388 3097 2138 3097 
Q 1578 3097 1268 2742 
Q 959 2388 959 1747 
Q 959 1106 1268 751 
Q 1578 397 2138 397 
Q 2388 397 2633 464 
Q 2878 531 3122 666 
L 3122 134 
Q 2881 22 2623 -34 
Q 2366 -91 2075 -91 
Q 1284 -91 818 406 
Q 353 903 353 1747 
Q 353 2603 823 3093 
Q 1294 3584 2113 3584 
Q 2378 3584 2631 3529 
Q 2884 3475 3122 3366 
z
" id="DejaVuSans-63" transform="scale(0.015625)"/>
        <path d="M 3513 2113 
L 3513 0 
L 2938 0 
L 2938 2094 
Q 2938 2591 2744 2837 
Q 2550 3084 2163 3084 
Q 1697 3084 1428 2787 
Q 1159 2491 1159 1978 
L 1159 0 
L 581 0 
L 581 4863 
L 1159 4863 
L 1159 2956 
Q 1366 3272 1645 3428 
Q 1925 3584 2291 3584 
Q 2894 3584 3203 3211 
Q 3513 2838 3513 2113 
z
" id="DejaVuSans-68" transform="scale(0.015625)"/>
       </defs>
       <use xlink:href="#DejaVuSans-4d"/>
       <use x="86.279297" xlink:href="#DejaVuSans-61"/>
       <use x="147.558594" xlink:href="#DejaVuSans-72"/>
       <use x="186.421875" xlink:href="#DejaVuSans-63"/>
       <use x="241.402344" xlink:href="#DejaVuSans-68"/>
      </g>
     </g>
    </g>
    <g id="xtick_4">
     <g id="line2d_4">
      <g>
       <use style="stroke:#000000;stroke-width:0.8;" x="545.536709" xlink:href="#m681fe933ea" y="768.96"/>
      </g>
     </g>
     <g id="text_4">
      <!-- April -->
      <g transform="translate(534.108584 783.558437)scale(0.1 -0.1)">
       <defs>
        <path d="M 2188 4044 
L 1331 1722 
L 3047 1722 
L 2188 4044 
z
M 1831 4666 
L 2547 4666 
L 4325 0 
L 3669 0 
L 3244 1197 
L 1141 1197 
L 716 0 
L 50 0 
L 1831 4666 
z
" id="DejaVuSans-41" transform="scale(0.015625)"/>
        <path d="M 1159 525 
L 1159 -1331 
L 581 -1331 
L 581 3500 
L 1159 3500 
L 1159 2969 
Q 1341 3281 1617 3432 
Q 1894 3584 2278 3584 
Q 2916 3584 3314 3078 
Q 3713 2572 3713 1747 
Q 3713 922 3314 415 
Q 2916 -91 2278 -91 
Q 1894 -91 1617 61 
Q 1341 213 1159 525 
z
M 3116 1747 
Q 3116 2381 2855 2742 
Q 2594 3103 2138 3103 
Q 1681 3103 1420 2742 
Q 1159 2381 1159 1747 
Q 1159 1113 1420 752 
Q 1681 391 2138 391 
Q 2594 391 2855 752 
Q 3116 1113 3116 1747 
z
" id="DejaVuSans-70" transform="scale(0.015625)"/>
        <path d="M 603 3500 
L 1178 3500 
L 1178 0 
L 603 0 
L 603 3500 
z
M 603 4863 
L 1178 4863 
L 1178 4134 
L 603 4134 
L 603 4863 
z
" id="DejaVuSans-69" transform="scale(0.015625)"/>
        <path d="M 603 4863 
L 1178 4863 
L 1178 0 
L 603 0 
L 603 4863 
z
" id="DejaVuSans-6c" transform="scale(0.015625)"/>
       </defs>
       <use xlink:href="#DejaVuSans-41"/>
       <use x="68.408203" xlink:href="#DejaVuSans-70"/>
       <use x="131.884766" xlink:href="#DejaVuSans-72"/>
       <use x="172.998047" xlink:href="#DejaVuSans-69"/>
       <use x="200.78125" xlink:href="#DejaVuSans-6c"/>
      </g>
     </g>
    </g>
    <g id="xtick_5">
     <g id="line2d_5">
      <g>
       <use style="stroke:#000000;stroke-width:0.8;" x="672.675949" xlink:href="#m681fe933ea" y="768.96"/>
      </g>
     </g>
     <g id="text_5">
      <!-- May -->
      <g transform="translate(662.338449 783.558437)scale(0.1 -0.1)">
       <use xlink:href="#DejaVuSans-4d"/>
       <use x="86.279297" xlink:href="#DejaVuSans-61"/>
       <use x="147.558594" xlink:href="#DejaVuSans-79"/>
      </g>
     </g>
    </g>
    <g id="xtick_6">
     <g id="line2d_6">
      <g>
       <use style="stroke:#000000;stroke-width:0.8;" x="804.053165" xlink:href="#m681fe933ea" y="768.96"/>
      </g>
     </g>
     <g id="text_6">
      <!-- June -->
      <g transform="translate(793.164102 783.558437)scale(0.1 -0.1)">
       <use xlink:href="#DejaVuSans-4a"/>
       <use x="29.492188" xlink:href="#DejaVuSans-75"/>
       <use x="92.871094" xlink:href="#DejaVuSans-6e"/>
       <use x="156.25" xlink:href="#DejaVuSans-65"/>
      </g>
     </g>
    </g>
    <g id="xtick_7">
     <g id="line2d_7">
      <g>
       <use style="stroke:#000000;stroke-width:0.8;" x="931.192405" xlink:href="#m681fe933ea" y="768.96"/>
      </g>
     </g>
     <g id="text_7">
      <!-- July -->
      <g transform="translate(922.200218 783.558437)scale(0.1 -0.1)">
       <use xlink:href="#DejaVuSans-4a"/>
       <use x="29.492188" xlink:href="#DejaVuSans-75"/>
       <use x="92.871094" xlink:href="#DejaVuSans-6c"/>
       <use x="120.654297" xlink:href="#DejaVuSans-79"/>
      </g>
     </g>
    </g>
    <g id="xtick_8">
     <g id="line2d_8">
      <g>
       <use style="stroke:#000000;stroke-width:0.8;" x="1062.56962" xlink:href="#m681fe933ea" y="768.96"/>
      </g>
     </g>
     <g id="text_8">
      <!-- August -->
      <g transform="translate(1045.072745 783.558437)scale(0.1 -0.1)">
       <defs>
        <path d="M 2906 1791 
Q 2906 2416 2648 2759 
Q 2391 3103 1925 3103 
Q 1463 3103 1205 2759 
Q 947 2416 947 1791 
Q 947 1169 1205 825 
Q 1463 481 1925 481 
Q 2391 481 2648 825 
Q 2906 1169 2906 1791 
z
M 3481 434 
Q 3481 -459 3084 -895 
Q 2688 -1331 1869 -1331 
Q 1566 -1331 1297 -1286 
Q 1028 -1241 775 -1147 
L 775 -588 
Q 1028 -725 1275 -790 
Q 1522 -856 1778 -856 
Q 2344 -856 2625 -561 
Q 2906 -266 2906 331 
L 2906 616 
Q 2728 306 2450 153 
Q 2172 0 1784 0 
Q 1141 0 747 490 
Q 353 981 353 1791 
Q 353 2603 747 3093 
Q 1141 3584 1784 3584 
Q 2172 3584 2450 3431 
Q 2728 3278 2906 2969 
L 2906 3500 
L 3481 3500 
L 3481 434 
z
" id="DejaVuSans-67" transform="scale(0.015625)"/>
        <path d="M 2834 3397 
L 2834 2853 
Q 2591 2978 2328 3040 
Q 2066 3103 1784 3103 
Q 1356 3103 1142 2972 
Q 928 2841 928 2578 
Q 928 2378 1081 2264 
Q 1234 2150 1697 2047 
L 1894 2003 
Q 2506 1872 2764 1633 
Q 3022 1394 3022 966 
Q 3022 478 2636 193 
Q 2250 -91 1575 -91 
Q 1294 -91 989 -36 
Q 684 19 347 128 
L 347 722 
Q 666 556 975 473 
Q 1284 391 1588 391 
Q 1994 391 2212 530 
Q 2431 669 2431 922 
Q 2431 1156 2273 1281 
Q 2116 1406 1581 1522 
L 1381 1569 
Q 847 1681 609 1914 
Q 372 2147 372 2553 
Q 372 3047 722 3315 
Q 1072 3584 1716 3584 
Q 2034 3584 2315 3537 
Q 2597 3491 2834 3397 
z
" id="DejaVuSans-73" transform="scale(0.015625)"/>
        <path d="M 1172 4494 
L 1172 3500 
L 2356 3500 
L 2356 3053 
L 1172 3053 
L 1172 1153 
Q 1172 725 1289 603 
Q 1406 481 1766 481 
L 2356 481 
L 2356 0 
L 1766 0 
Q 1100 0 847 248 
Q 594 497 594 1153 
L 594 3053 
L 172 3053 
L 172 3500 
L 594 3500 
L 594 4494 
L 1172 4494 
z
" id="DejaVuSans-74" transform="scale(0.015625)"/>
       </defs>
       <use xlink:href="#DejaVuSans-41"/>
       <use x="68.408203" xlink:href="#DejaVuSans-75"/>
       <use x="131.787109" xlink:href="#DejaVuSans-67"/>
       <use x="195.263672" xlink:href="#DejaVuSans-75"/>
       <use x="258.642578" xlink:href="#DejaVuSans-73"/>
       <use x="310.742188" xlink:href="#DejaVuSans-74"/>
      </g>
     </g>
    </g>
   </g>
   <g id="matplotlib.axis_2">
    <g id="ytick_1">
     <g id="line2d_9">
      <defs>
       <path d="M 0 0 
L -3.5 0 
" id="m07f79d1cc4" style="stroke:#000000;stroke-width:0.8;"/>
      </defs>
      <g>
       <use style="stroke:#000000;stroke-width:0.8;" x="162" xlink:href="#m07f79d1cc4" y="768.96"/>
      </g>
     </g>
     <g id="text_9">
      <!-- 0 -->
      <g transform="translate(148.6375 772.759219)scale(0.1 -0.1)">
       <defs>
        <path d="M 2034 4250 
Q 1547 4250 1301 3770 
Q 1056 3291 1056 2328 
Q 1056 1369 1301 889 
Q 1547 409 2034 409 
Q 2525 409 2770 889 
Q 3016 1369 3016 2328 
Q 3016 3291 2770 3770 
Q 2525 4250 2034 4250 
z
M 2034 4750 
Q 2819 4750 3233 4129 
Q 3647 3509 3647 2328 
Q 3647 1150 3233 529 
Q 2819 -91 2034 -91 
Q 1250 -91 836 529 
Q 422 1150 422 2328 
Q 422 3509 836 4129 
Q 1250 4750 2034 4750 
z
" id="DejaVuSans-30" transform="scale(0.015625)"/>
       </defs>
       <use xlink:href="#DejaVuSans-30"/>
      </g>
     </g>
    </g>
    <g id="ytick_2">
     <g id="line2d_10">
      <g>
       <use style="stroke:#000000;stroke-width:0.8;" x="162" xlink:href="#m07f79d1cc4" y="654.639231"/>
      </g>
     </g>
     <g id="text_10">
      <!-- 20000 -->
      <g transform="translate(123.1875 658.438449)scale(0.1 -0.1)">
       <defs>
        <path d="M 1228 531 
L 3431 531 
L 3431 0 
L 469 0 
L 469 531 
Q 828 903 1448 1529 
Q 2069 2156 2228 2338 
Q 2531 2678 2651 2914 
Q 2772 3150 2772 3378 
Q 2772 3750 2511 3984 
Q 2250 4219 1831 4219 
Q 1534 4219 1204 4116 
Q 875 4013 500 3803 
L 500 4441 
Q 881 4594 1212 4672 
Q 1544 4750 1819 4750 
Q 2544 4750 2975 4387 
Q 3406 4025 3406 3419 
Q 3406 3131 3298 2873 
Q 3191 2616 2906 2266 
Q 2828 2175 2409 1742 
Q 1991 1309 1228 531 
z
" id="DejaVuSans-32" transform="scale(0.015625)"/>
       </defs>
       <use xlink:href="#DejaVuSans-32"/>
       <use x="63.623047" xlink:href="#DejaVuSans-30"/>
       <use x="127.246094" xlink:href="#DejaVuSans-30"/>
       <use x="190.869141" xlink:href="#DejaVuSans-30"/>
       <use x="254.492188" xlink:href="#DejaVuSans-30"/>
      </g>
     </g>
    </g>
    <g id="ytick_3">
     <g id="line2d_11">
      <g>
       <use style="stroke:#000000;stroke-width:0.8;" x="162" xlink:href="#m07f79d1cc4" y="540.318461"/>
      </g>
     </g>
     <g id="text_11">
      <!-- 40000 -->
      <g transform="translate(123.1875 544.11768)scale(0.1 -0.1)">
       <defs>
        <path d="M 2419 4116 
L 825 1625 
L 2419 1625 
L 2419 4116 
z
M 2253 4666 
L 3047 4666 
L 3047 1625 
L 3713 1625 
L 3713 1100 
L 3047 1100 
L 3047 0 
L 2419 0 
L 2419 1100 
L 313 1100 
L 313 1709 
L 2253 4666 
z
" id="DejaVuSans-34" transform="scale(0.015625)"/>
       </defs>
       <use xlink:href="#DejaVuSans-34"/>
       <use x="63.623047" xlink:href="#DejaVuSans-30"/>
       <use x="127.246094" xlink:href="#DejaVuSans-30"/>
       <use x="190.869141" xlink:href="#DejaVuSans-30"/>
       <use x="254.492188" xlink:href="#DejaVuSans-30"/>
      </g>
     </g>
    </g>
    <g id="ytick_4">
     <g id="line2d_12">
      <g>
       <use style="stroke:#000000;stroke-width:0.8;" x="162" xlink:href="#m07f79d1cc4" y="425.997692"/>
      </g>
     </g>
     <g id="text_12">
      <!-- 60000 -->
      <g transform="translate(123.1875 429.796911)scale(0.1 -0.1)">
       <defs>
        <path d="M 2113 2584 
Q 1688 2584 1439 2293 
Q 1191 2003 1191 1497 
Q 1191 994 1439 701 
Q 1688 409 2113 409 
Q 2538 409 2786 701 
Q 3034 994 3034 1497 
Q 3034 2003 2786 2293 
Q 2538 2584 2113 2584 
z
M 3366 4563 
L 3366 3988 
Q 3128 4100 2886 4159 
Q 2644 4219 2406 4219 
Q 1781 4219 1451 3797 
Q 1122 3375 1075 2522 
Q 1259 2794 1537 2939 
Q 1816 3084 2150 3084 
Q 2853 3084 3261 2657 
Q 3669 2231 3669 1497 
Q 3669 778 3244 343 
Q 2819 -91 2113 -91 
Q 1303 -91 875 529 
Q 447 1150 447 2328 
Q 447 3434 972 4092 
Q 1497 4750 2381 4750 
Q 2619 4750 2861 4703 
Q 3103 4656 3366 4563 
z
" id="DejaVuSans-36" transform="scale(0.015625)"/>
       </defs>
       <use xlink:href="#DejaVuSans-36"/>
       <use x="63.623047" xlink:href="#DejaVuSans-30"/>
       <use x="127.246094" xlink:href="#DejaVuSans-30"/>
       <use x="190.869141" xlink:href="#DejaVuSans-30"/>
       <use x="254.492188" xlink:href="#DejaVuSans-30"/>
      </g>
     </g>
    </g>
    <g id="ytick_5">
     <g id="line2d_13">
      <g>
       <use style="stroke:#000000;stroke-width:0.8;" x="162" xlink:href="#m07f79d1cc4" y="311.676923"/>
      </g>
     </g>
     <g id="text_13">
      <!-- 80000 -->
      <g transform="translate(123.1875 315.476141)scale(0.1 -0.1)">
       <defs>
        <path d="M 2034 2216 
Q 1584 2216 1326 1975 
Q 1069 1734 1069 1313 
Q 1069 891 1326 650 
Q 1584 409 2034 409 
Q 2484 409 2743 651 
Q 3003 894 3003 1313 
Q 3003 1734 2745 1975 
Q 2488 2216 2034 2216 
z
M 1403 2484 
Q 997 2584 770 2862 
Q 544 3141 544 3541 
Q 544 4100 942 4425 
Q 1341 4750 2034 4750 
Q 2731 4750 3128 4425 
Q 3525 4100 3525 3541 
Q 3525 3141 3298 2862 
Q 3072 2584 2669 2484 
Q 3125 2378 3379 2068 
Q 3634 1759 3634 1313 
Q 3634 634 3220 271 
Q 2806 -91 2034 -91 
Q 1263 -91 848 271 
Q 434 634 434 1313 
Q 434 1759 690 2068 
Q 947 2378 1403 2484 
z
M 1172 3481 
Q 1172 3119 1398 2916 
Q 1625 2713 2034 2713 
Q 2441 2713 2670 2916 
Q 2900 3119 2900 3481 
Q 2900 3844 2670 4047 
Q 2441 4250 2034 4250 
Q 1625 4250 1398 4047 
Q 1172 3844 1172 3481 
z
" id="DejaVuSans-38" transform="scale(0.015625)"/>
       </defs>
       <use xlink:href="#DejaVuSans-38"/>
       <use x="63.623047" xlink:href="#DejaVuSans-30"/>
       <use x="127.246094" xlink:href="#DejaVuSans-30"/>
       <use x="190.869141" xlink:href="#DejaVuSans-30"/>
       <use x="254.492188" xlink:href="#DejaVuSans-30"/>
      </g>
     </g>
    </g>
    <g id="ytick_6">
     <g id="line2d_14">
      <g>
       <use style="stroke:#000000;stroke-width:0.8;" x="162" xlink:href="#m07f79d1cc4" y="197.356153"/>
      </g>
     </g>
     <g id="text_14">
      <!-- 100000 -->
      <g transform="translate(116.825 201.155372)scale(0.1 -0.1)">
       <defs>
        <path d="M 794 531 
L 1825 531 
L 1825 4091 
L 703 3866 
L 703 4441 
L 1819 4666 
L 2450 4666 
L 2450 531 
L 3481 531 
L 3481 0 
L 794 0 
L 794 531 
z
" id="DejaVuSans-31" transform="scale(0.015625)"/>
       </defs>
       <use xlink:href="#DejaVuSans-31"/>
       <use x="63.623047" xlink:href="#DejaVuSans-30"/>
       <use x="127.246094" xlink:href="#DejaVuSans-30"/>
       <use x="190.869141" xlink:href="#DejaVuSans-30"/>
       <use x="254.492188" xlink:href="#DejaVuSans-30"/>
       <use x="318.115234" xlink:href="#DejaVuSans-30"/>
      </g>
     </g>
    </g>
    <g id="text_15">
     <!-- Persons fully vaccinated -->
     <g transform="translate(110.745312 496.922344)rotate(-90)scale(0.1 -0.1)">
      <defs>
       <path d="M 1259 4147 
L 1259 2394 
L 2053 2394 
Q 2494 2394 2734 2622 
Q 2975 2850 2975 3272 
Q 2975 3691 2734 3919 
Q 2494 4147 2053 4147 
L 1259 4147 
z
M 628 4666 
L 2053 4666 
Q 2838 4666 3239 4311 
Q 3641 3956 3641 3272 
Q 3641 2581 3239 2228 
Q 2838 1875 2053 1875 
L 1259 1875 
L 1259 0 
L 628 0 
L 628 4666 
z
" id="DejaVuSans-50" transform="scale(0.015625)"/>
       <path d="M 1959 3097 
Q 1497 3097 1228 2736 
Q 959 2375 959 1747 
Q 959 1119 1226 758 
Q 1494 397 1959 397 
Q 2419 397 2687 759 
Q 2956 1122 2956 1747 
Q 2956 2369 2687 2733 
Q 2419 3097 1959 3097 
z
M 1959 3584 
Q 2709 3584 3137 3096 
Q 3566 2609 3566 1747 
Q 3566 888 3137 398 
Q 2709 -91 1959 -91 
Q 1206 -91 779 398 
Q 353 888 353 1747 
Q 353 2609 779 3096 
Q 1206 3584 1959 3584 
z
" id="DejaVuSans-6f" transform="scale(0.015625)"/>
       <path id="DejaVuSans-20" transform="scale(0.015625)"/>
       <path d="M 2375 4863 
L 2375 4384 
L 1825 4384 
Q 1516 4384 1395 4259 
Q 1275 4134 1275 3809 
L 1275 3500 
L 2222 3500 
L 2222 3053 
L 1275 3053 
L 1275 0 
L 697 0 
L 697 3053 
L 147 3053 
L 147 3500 
L 697 3500 
L 697 3744 
Q 697 4328 969 4595 
Q 1241 4863 1831 4863 
L 2375 4863 
z
" id="DejaVuSans-66" transform="scale(0.015625)"/>
       <path d="M 191 3500 
L 800 3500 
L 1894 563 
L 2988 3500 
L 3597 3500 
L 2284 0 
L 1503 0 
L 191 3500 
z
" id="DejaVuSans-76" transform="scale(0.015625)"/>
       <path d="M 2906 2969 
L 2906 4863 
L 3481 4863 
L 3481 0 
L 2906 0 
L 2906 525 
Q 2725 213 2448 61 
Q 2172 -91 1784 -91 
Q 1150 -91 751 415 
Q 353 922 353 1747 
Q 353 2572 751 3078 
Q 1150 3584 1784 3584 
Q 2172 3584 2448 3432 
Q 2725 3281 2906 2969 
z
M 947 1747 
Q 947 1113 1208 752 
Q 1469 391 1925 391 
Q 2381 391 2643 752 
Q 2906 1113 2906 1747 
Q 2906 2381 2643 2742 
Q 2381 3103 1925 3103 
Q 1469 3103 1208 2742 
Q 947 2381 947 1747 
z
" id="DejaVuSans-64" transform="scale(0.015625)"/>
      </defs>
      <use xlink:href="#DejaVuSans-50"/>
      <use x="56.677734" xlink:href="#DejaVuSans-65"/>
      <use x="118.201172" xlink:href="#DejaVuSans-72"/>
      <use x="159.314453" xlink:href="#DejaVuSans-73"/>
      <use x="211.414062" xlink:href="#DejaVuSans-6f"/>
      <use x="272.595703" xlink:href="#DejaVuSans-6e"/>
      <use x="335.974609" xlink:href="#DejaVuSans-73"/>
      <use x="388.074219" xlink:href="#DejaVuSans-20"/>
      <use x="419.861328" xlink:href="#DejaVuSans-66"/>
      <use x="455.066406" xlink:href="#DejaVuSans-75"/>
      <use x="518.445312" xlink:href="#DejaVuSans-6c"/>
      <use x="546.228516" xlink:href="#DejaVuSans-6c"/>
      <use x="574.011719" xlink:href="#DejaVuSans-79"/>
      <use x="633.191406" xlink:href="#DejaVuSans-20"/>
      <use x="664.978516" xlink:href="#DejaVuSans-76"/>
      <use x="724.158203" xlink:href="#DejaVuSans-61"/>
      <use x="785.4375" xlink:href="#DejaVuSans-63"/>
      <use x="840.417969" xlink:href="#DejaVuSans-63"/>
      <use x="895.398438" xlink:href="#DejaVuSans-69"/>
      <use x="923.181641" xlink:href="#DejaVuSans-6e"/>
      <use x="986.560547" xlink:href="#DejaVuSans-61"/>
      <use x="1047.839844" xlink:href="#DejaVuSans-74"/>
      <use x="1087.048828" xlink:href="#DejaVuSans-65"/>
      <use x="1148.572266" xlink:href="#DejaVuSans-64"/>
     </g>
    </g>
   </g>
   <g id="line2d_15">
    <path clip-path="url(#p91a45fe9cb)" d="M 236.164557 744.736246 
L 240.402532 744.588445 
L 244.640506 745.869654 
L 248.878481 742.547003 
L 253.116456 741.773704 
L 257.35443 739.798405 
L 261.592405 735.682041 
L 265.83038 727.798807 
L 270.068354 719.410929 
L 274.306329 713.280069 
L 278.544304 706.71969 
L 282.782278 702.369785 
L 287.020253 701.38336 
L 291.258228 701.253524 
L 295.496203 698.673958 
L 299.734177 703.677125 
L 303.972152 703.370092 
L 308.210127 703.86902 
L 312.448101 700.516972 
L 316.686076 700.760312 
L 320.924051 696.811346 
L 325.162025 697.59281 
L 329.4 691.894736 
L 333.637975 682.161956 
L 337.875949 673.075088 
L 342.113924 670.182772 
L 346.351899 666.672308 
L 350.589873 670.579629 
L 354.827848 670.859715 
L 359.065823 665.634439 
L 363.303797 660.681083 
L 367.541772 654.395074 
L 371.779747 661.657709 
L 376.017722 648.662704 
L 380.255696 640.129475 
L 384.493671 630.879292 
L 388.731646 609.248986 
L 392.96962 593.789551 
L 397.207595 581.224066 
L 401.44557 551.753805 
L 405.683544 554.531799 
L 409.921519 544.684698 
L 414.159494 534.372965 
L 418.397468 539.651318 
L 422.635443 528.104104 
L 426.873418 514.080212 
L 431.111392 507.247912 
L 435.349367 511.297317 
L 439.587342 501.96221 
L 443.825316 490.969451 
L 448.063291 480.830832 
L 452.301266 484.139602 
L 456.539241 478.083051 
L 460.777215 481.85237 
L 465.01519 456.511538 
L 469.253165 457.373027 
L 473.491139 463.512869 
L 477.729114 478.075702 
L 481.967089 491.964859 
L 486.205063 511.223825 
L 490.443038 524.094711 
L 494.681013 548.769216 
L 498.918987 560.954177 
L 503.156962 572.750447 
L 507.394937 579.389217 
L 511.632911 583.247543 
L 515.870886 579.872631 
L 520.108861 567.044207 
L 524.346835 565.584168 
L 528.58481 563.983677 
L 532.822785 548.308666 
L 537.060759 539.710928 
L 541.298734 525.131764 
L 545.536709 518.500342 
L 549.774684 517.2175 
L 554.012658 521.40409 
L 558.250633 507.608023 
L 562.488608 491.64966 
L 566.726582 463.336488 
L 570.964557 436.685867 
L 575.202532 395.934596 
L 579.440506 372.922642 
L 583.678481 353.348476 
L 587.916456 339.310702 
L 592.15443 334.420223 
L 596.392405 344.696027 
L 600.63038 347.954986 
L 604.868354 366.979595 
L 609.106329 378.000117 
L 613.344304 379.256012 
L 617.582278 388.534776 
L 621.820253 383.329915 
L 626.058228 376.384928 
L 630.296203 384.728711 
L 634.534177 396.361666 
L 638.772152 406.678298 
L 643.010127 418.288389 
L 647.248101 422.850604 
L 651.486076 437.877253 
L 655.724051 442.996374 
L 659.962025 453.363634 
L 664.2 467.897887 
L 668.437975 487.612504 
L 672.675949 498.026309 
L 676.913924 512.981099 
L 681.151899 507.203817 
L 685.389873 505.235867 
L 689.627848 515.718265 
L 693.865823 497.321603 
L 698.103797 474.549723 
L 702.341772 442.830609 
L 706.579747 432.02403 
L 710.817722 446.03649 
L 715.055696 463.16909 
L 719.293671 464.663426 
L 723.531646 468.543799 
L 727.76962 478.490523 
L 732.007595 503.32916 
L 736.24557 512.912507 
L 740.483544 513.867902 
L 744.721519 515.421031 
L 748.959494 502.403978 
L 753.197468 526.889854 
L 757.435443 532.05307 
L 761.673418 532.890061 
L 765.911392 534.679181 
L 770.149367 551.915487 
L 774.387342 563.884871 
L 778.625316 590.470166 
L 782.863291 600.227444 
L 787.101266 611.21367 
L 791.339241 614.585316 
L 795.577215 628.622273 
L 799.81519 638.965853 
L 804.053165 648.870931 
L 808.291139 649.952896 
L 812.529114 645.39558 
L 821.005063 626.524487 
L 825.243038 607.649312 
L 829.481013 595.213662 
L 833.718987 578.449337 
L 837.956962 582.318279 
L 842.194937 591.038504 
L 846.432911 605.104858 
L 850.670886 611.258582 
L 854.908861 597.630729 
L 859.146835 596.182938 
L 863.38481 609.288998 
L 867.622785 605.608686 
L 871.860759 614.283999 
L 876.098734 607.479464 
L 880.336709 612.080058 
L 884.574684 641.579716 
L 888.812658 658.498373 
L 893.050633 663.379053 
L 897.288608 671.405188 
L 905.764557 614.288899 
L 910.002532 618.492637 
L 914.240506 618.201119 
L 918.478481 617.711989 
L 922.716456 620.400977 
L 926.95443 627.656263 
L 931.192405 657.923503 
L 935.43038 697.453175 
L 939.668354 697.656503 
L 943.906329 707.574646 
L 948.144304 714.068066 
L 952.382278 715.077355 
L 956.620253 714.716428 
L 960.858228 715.837588 
L 965.096203 715.660391 
L 969.334177 713.862289 
L 973.572152 703.659977 
L 977.810127 701.166151 
L 982.048101 704.110727 
L 986.286076 707.194938 
L 990.524051 708.699889 
L 994.762025 710.083171 
L 999 711.007536 
L 1003.237975 714.58006 
L 1007.475949 713.859022 
L 1011.713924 713.391124 
L 1020.189873 717.263332 
L 1024.427848 720.308347 
L 1028.665823 722.817688 
L 1032.903797 726.136256 
L 1037.141772 726.724192 
L 1041.379747 720.292832 
L 1045.617722 718.894852 
L 1049.855696 707.945372 
L 1054.093671 705.758579 
L 1058.331646 703.415003 
L 1062.56962 700.939142 
L 1066.807595 701.407857 
L 1071.04557 708.870554 
L 1075.283544 708.56842 
L 1079.521519 717.443795 
L 1083.759494 709.567094 
L 1087.997468 708.880353 
L 1092.235443 709.129409 
L 1096.473418 711.97028 
L 1100.711392 698.598016 
L 1104.949367 688.024978 
L 1109.187342 680.303427 
L 1113.425316 672.247079 
L 1117.663291 662.333835 
L 1121.901266 661.146532 
L 1126.139241 656.500209 
L 1130.377215 668.060489 
L 1134.61519 677.466639 
L 1138.853165 684.813381 
L 1143.091139 697.823085 
L 1147.329114 707.005492 
L 1151.567089 706.799715 
L 1155.805063 706.816046 
L 1160.043038 706.620068 
L 1160.043038 706.620068 
" style="fill:none;stroke:#ffa500;stroke-linecap:square;stroke-width:1.5;"/>
   </g>
   <g id="patch_240">
    <path d="M 162 768.96 
L 162 103.68 
" style="fill:none;stroke:#000000;stroke-linecap:square;stroke-linejoin:miter;stroke-width:0.8;"/>
   </g>
   <g id="patch_241">
    <path d="M 1166.4 768.96 
L 1166.4 103.68 
" style="fill:none;stroke:#000000;stroke-linecap:square;stroke-linejoin:miter;stroke-width:0.8;"/>
   </g>
   <g id="patch_242">
    <path d="M 162 768.96 
L 1166.4 768.96 
" style="fill:none;stroke:#000000;stroke-linecap:square;stroke-linejoin:miter;stroke-width:0.8;"/>
   </g>
   <g id="patch_243">
    <path d="M 162 103.68 
L 1166.4 103.68 
" style="fill:none;stroke:#000000;stroke-linecap:square;stroke-linejoin:miter;stroke-width:0.8;"/>
   </g>
   <g id="text_16">
    <!-- Persons Fully Vaccinated -->
    <g transform="translate(590.380313 97.68)scale(0.12 -0.12)">
     <defs>
      <path d="M 1831 0 
L 50 4666 
L 709 4666 
L 2188 738 
L 3669 4666 
L 4325 4666 
L 2547 0 
L 1831 0 
z
" id="DejaVuSans-56" transform="scale(0.015625)"/>
     </defs>
     <use xlink:href="#DejaVuSans-50"/>
     <use x="56.677734" xlink:href="#DejaVuSans-65"/>
     <use x="118.201172" xlink:href="#DejaVuSans-72"/>
     <use x="159.314453" xlink:href="#DejaVuSans-73"/>
     <use x="211.414062" xlink:href="#DejaVuSans-6f"/>
     <use x="272.595703" xlink:href="#DejaVuSans-6e"/>
     <use x="335.974609" xlink:href="#DejaVuSans-73"/>
     <use x="388.074219" xlink:href="#DejaVuSans-20"/>
     <use x="419.861328" xlink:href="#DejaVuSans-46"/>
     <use x="471.880859" xlink:href="#DejaVuSans-75"/>
     <use x="535.259766" xlink:href="#DejaVuSans-6c"/>
     <use x="563.042969" xlink:href="#DejaVuSans-6c"/>
     <use x="590.826172" xlink:href="#DejaVuSans-79"/>
     <use x="650.005859" xlink:href="#DejaVuSans-20"/>
     <use x="681.792969" xlink:href="#DejaVuSans-56"/>
     <use x="742.451172" xlink:href="#DejaVuSans-61"/>
     <use x="803.730469" xlink:href="#DejaVuSans-63"/>
     <use x="858.710938" xlink:href="#DejaVuSans-63"/>
     <use x="913.691406" xlink:href="#DejaVuSans-69"/>
     <use x="941.474609" xlink:href="#DejaVuSans-6e"/>
     <use x="1004.853516" xlink:href="#DejaVuSans-61"/>
     <use x="1066.132812" xlink:href="#DejaVuSans-74"/>
     <use x="1105.341797" xlink:href="#DejaVuSans-65"/>
     <use x="1166.865234" xlink:href="#DejaVuSans-64"/>
    </g>
   </g>
  </g>
 </g>
 <defs>
  <clipPath id="p91a45fe9cb">
   <rect height="665.28" width="1004.4" x="162" y="103.68"/>
  </clipPath>
 </defs>
</svg>
