<?xml version="1.0" encoding="utf-8" standalone="no"?>
<!DOCTYPE svg PUBLIC "-//W3C//DTD SVG 1.1//EN"
  "http://www.w3.org/Graphics/SVG/1.1/DTD/svg11.dtd">
<svg height="864pt" version="1.1" viewBox="0 0 1296 864" width="1296pt" xmlns="http://www.w3.org/2000/svg" xmlns:xlink="http://www.w3.org/1999/xlink">
 <metadata>
  <rdf:RDF xmlns:cc="http://creativecommons.org/ns#" xmlns:dc="http://purl.org/dc/elements/1.1/" xmlns:rdf="http://www.w3.org/1999/02/22-rdf-syntax-ns#">
   <cc:Work>
    <dc:type rdf:resource="http://purl.org/dc/dcmitype/StillImage"/>
    <dc:date>2021-08-25T22:19:49.145170</dc:date>
    <dc:format>image/svg+xml</dc:format>
    <dc:creator>
     <cc:Agent>
      <dc:title>Matplotlib v3.4.2, https://matplotlib.org/</dc:title>
     </cc:Agent>
    </dc:creator>
   </cc:Work>
  </rdf:RDF>
 </metadata>
 <defs>
  <style type="text/css">*{stroke-linecap:butt;stroke-linejoin:round;}</style>
 </defs>
 <g id="figure_1">
  <g id="patch_1">
   <path d="M 0 864 
L 1296 864 
L 1296 0 
L 0 0 
z
" style="fill:#ffffff;"/>
  </g>
  <g id="axes_1">
   <g id="patch_2">
    <path d="M 162 768.96 
L 1166.4 768.96 
L 1166.4 103.68 
L 162 103.68 
z
" style="fill:#ffffff;"/>
   </g>
   <g id="patch_3">
    <path clip-path="url(#p02d14e554e)" d="M 163.063983 768.96 
L 165.191949 768.96 
L 165.191949 768.96 
L 163.063983 768.96 
z
" style="fill:#1f77b4;"/>
   </g>
   <g id="patch_4">
    <path clip-path="url(#p02d14e554e)" d="M 167.319915 768.96 
L 169.447881 768.96 
L 169.447881 768.96 
L 167.319915 768.96 
z
" style="fill:#1f77b4;"/>
   </g>
   <g id="patch_5">
    <path clip-path="url(#p02d14e554e)" d="M 171.575847 768.96 
L 173.703814 768.96 
L 173.703814 768.96 
L 171.575847 768.96 
z
" style="fill:#1f77b4;"/>
   </g>
   <g id="patch_6">
    <path clip-path="url(#p02d14e554e)" d="M 175.83178 768.96 
L 177.959746 768.96 
L 177.959746 768.376964 
L 175.83178 768.376964 
z
" style="fill:#1f77b4;"/>
   </g>
   <g id="patch_7">
    <path clip-path="url(#p02d14e554e)" d="M 180.087712 768.96 
L 182.215678 768.96 
L 182.215678 767.382373 
L 180.087712 767.382373 
z
" style="fill:#1f77b4;"/>
   </g>
   <g id="patch_8">
    <path clip-path="url(#p02d14e554e)" d="M 184.343644 768.96 
L 186.47161 768.96 
L 186.47161 755.441569 
L 184.343644 755.441569 
z
" style="fill:#1f77b4;"/>
   </g>
   <g id="patch_9">
    <path clip-path="url(#p02d14e554e)" d="M 188.599576 768.96 
L 190.727542 768.96 
L 190.727542 669.489499 
L 188.599576 669.489499 
z
" style="fill:#1f77b4;"/>
   </g>
   <g id="patch_10">
    <path clip-path="url(#p02d14e554e)" d="M 192.855508 768.96 
L 194.983475 768.96 
L 194.983475 649.329031 
L 192.855508 649.329031 
z
" style="fill:#1f77b4;"/>
   </g>
   <g id="patch_11">
    <path clip-path="url(#p02d14e554e)" d="M 197.111441 768.96 
L 199.239407 768.96 
L 199.239407 703.671409 
L 197.111441 703.671409 
z
" style="fill:#1f77b4;"/>
   </g>
   <g id="patch_12">
    <path clip-path="url(#p02d14e554e)" d="M 201.367373 768.96 
L 203.495339 768.96 
L 203.495339 729.359285 
L 201.367373 729.359285 
z
" style="fill:#1f77b4;"/>
   </g>
   <g id="patch_13">
    <path clip-path="url(#p02d14e554e)" d="M 205.623305 768.96 
L 207.751271 768.96 
L 207.751271 706.866674 
L 205.623305 706.866674 
z
" style="fill:#1f77b4;"/>
   </g>
   <g id="patch_14">
    <path clip-path="url(#p02d14e554e)" d="M 209.879237 768.96 
L 212.007203 768.96 
L 212.007203 710.187692 
L 209.879237 710.187692 
z
" style="fill:#1f77b4;"/>
   </g>
   <g id="patch_15">
    <path clip-path="url(#p02d14e554e)" d="M 214.135169 768.96 
L 216.263136 768.96 
L 216.263136 720.876684 
L 214.135169 720.876684 
z
" style="fill:#1f77b4;"/>
   </g>
   <g id="patch_16">
    <path clip-path="url(#p02d14e554e)" d="M 218.391102 768.96 
L 220.519068 768.96 
L 220.519068 710.793593 
L 218.391102 710.793593 
z
" style="fill:#1f77b4;"/>
   </g>
   <g id="patch_17">
    <path clip-path="url(#p02d14e554e)" d="M 222.647034 768.96 
L 224.775 768.96 
L 224.775 757.670824 
L 222.647034 757.670824 
z
" style="fill:#1f77b4;"/>
   </g>
   <g id="patch_18">
    <path clip-path="url(#p02d14e554e)" d="M 226.902966 768.96 
L 229.030932 768.96 
L 229.030932 761.88926 
L 226.902966 761.88926 
z
" style="fill:#1f77b4;"/>
   </g>
   <g id="patch_19">
    <path clip-path="url(#p02d14e554e)" d="M 231.158898 768.96 
L 233.286864 768.96 
L 233.286864 765.661846 
L 231.158898 765.661846 
z
" style="fill:#1f77b4;"/>
   </g>
   <g id="patch_20">
    <path clip-path="url(#p02d14e554e)" d="M 235.414831 768.96 
L 237.542797 768.96 
L 237.542797 752.772179 
L 235.414831 752.772179 
z
" style="fill:#1f77b4;"/>
   </g>
   <g id="patch_21">
    <path clip-path="url(#p02d14e554e)" d="M 239.670763 768.96 
L 241.798729 768.96 
L 241.798729 743.489333 
L 239.670763 743.489333 
z
" style="fill:#1f77b4;"/>
   </g>
   <g id="patch_22">
    <path clip-path="url(#p02d14e554e)" d="M 243.926695 768.96 
L 246.054661 768.96 
L 246.054661 719.842081 
L 243.926695 719.842081 
z
" style="fill:#1f77b4;"/>
   </g>
   <g id="patch_23">
    <path clip-path="url(#p02d14e554e)" d="M 248.182627 768.96 
L 250.310593 768.96 
L 250.310593 719.762057 
L 248.182627 719.762057 
z
" style="fill:#1f77b4;"/>
   </g>
   <g id="patch_24">
    <path clip-path="url(#p02d14e554e)" d="M 252.438559 768.96 
L 254.566525 768.96 
L 254.566525 734.412264 
L 252.438559 734.412264 
z
" style="fill:#1f77b4;"/>
   </g>
   <g id="patch_25">
    <path clip-path="url(#p02d14e554e)" d="M 256.694492 768.96 
L 258.822458 768.96 
L 258.822458 756.476172 
L 256.694492 756.476172 
z
" style="fill:#1f77b4;"/>
   </g>
   <g id="patch_26">
    <path clip-path="url(#p02d14e554e)" d="M 260.950424 768.96 
L 263.07839 768.96 
L 263.07839 751.834749 
L 260.950424 751.834749 
z
" style="fill:#1f77b4;"/>
   </g>
   <g id="patch_27">
    <path clip-path="url(#p02d14e554e)" d="M 265.206356 768.96 
L 267.334322 768.96 
L 267.334322 723.957629 
L 265.206356 723.957629 
z
" style="fill:#1f77b4;"/>
   </g>
   <g id="patch_28">
    <path clip-path="url(#p02d14e554e)" d="M 269.462288 768.96 
L 271.590254 768.96 
L 271.590254 688.306697 
L 269.462288 688.306697 
z
" style="fill:#1f77b4;"/>
   </g>
   <g id="patch_29">
    <path clip-path="url(#p02d14e554e)" d="M 273.71822 768.96 
L 275.846186 768.96 
L 275.846186 661.126934 
L 273.71822 661.126934 
z
" style="fill:#1f77b4;"/>
   </g>
   <g id="patch_30">
    <path clip-path="url(#p02d14e554e)" d="M 277.974153 768.96 
L 280.102119 768.96 
L 280.102119 676.84604 
L 277.974153 676.84604 
z
" style="fill:#1f77b4;"/>
   </g>
   <g id="patch_31">
    <path clip-path="url(#p02d14e554e)" d="M 282.230085 768.96 
L 284.358051 768.96 
L 284.358051 688.48961 
L 282.230085 688.48961 
z
" style="fill:#1f77b4;"/>
   </g>
   <g id="patch_32">
    <path clip-path="url(#p02d14e554e)" d="M 286.486017 768.96 
L 288.613983 768.96 
L 288.613983 726.026835 
L 286.486017 726.026835 
z
" style="fill:#1f77b4;"/>
   </g>
   <g id="patch_33">
    <path clip-path="url(#p02d14e554e)" d="M 290.741949 768.96 
L 292.869915 768.96 
L 292.869915 744.929774 
L 290.741949 744.929774 
z
" style="fill:#1f77b4;"/>
   </g>
   <g id="patch_34">
    <path clip-path="url(#p02d14e554e)" d="M 294.997881 768.96 
L 297.125847 768.96 
L 297.125847 723.048779 
L 294.997881 723.048779 
z
" style="fill:#1f77b4;"/>
   </g>
   <g id="patch_35">
    <path clip-path="url(#p02d14e554e)" d="M 299.253814 768.96 
L 301.38178 768.96 
L 301.38178 670.249732 
L 299.253814 670.249732 
z
" style="fill:#1f77b4;"/>
   </g>
   <g id="patch_36">
    <path clip-path="url(#p02d14e554e)" d="M 303.509746 768.96 
L 305.637712 768.96 
L 305.637712 696.149102 
L 303.509746 696.149102 
z
" style="fill:#1f77b4;"/>
   </g>
   <g id="patch_37">
    <path clip-path="url(#p02d14e554e)" d="M 307.765678 768.96 
L 309.893644 768.96 
L 309.893644 674.69681 
L 307.765678 674.69681 
z
" style="fill:#1f77b4;"/>
   </g>
   <g id="patch_38">
    <path clip-path="url(#p02d14e554e)" d="M 312.02161 768.96 
L 314.149576 768.96 
L 314.149576 691.98211 
L 312.02161 691.98211 
z
" style="fill:#1f77b4;"/>
   </g>
   <g id="patch_39">
    <path clip-path="url(#p02d14e554e)" d="M 316.277542 768.96 
L 318.405508 768.96 
L 318.405508 702.562497 
L 316.277542 702.562497 
z
" style="fill:#1f77b4;"/>
   </g>
   <g id="patch_40">
    <path clip-path="url(#p02d14e554e)" d="M 320.533475 768.96 
L 322.661441 768.96 
L 322.661441 746.633154 
L 320.533475 746.633154 
z
" style="fill:#1f77b4;"/>
   </g>
   <g id="patch_41">
    <path clip-path="url(#p02d14e554e)" d="M 324.789407 768.96 
L 326.917373 768.96 
L 326.917373 695.406017 
L 324.789407 695.406017 
z
" style="fill:#1f77b4;"/>
   </g>
   <g id="patch_42">
    <path clip-path="url(#p02d14e554e)" d="M 329.045339 768.96 
L 331.173305 768.96 
L 331.173305 675.719981 
L 329.045339 675.719981 
z
" style="fill:#1f77b4;"/>
   </g>
   <g id="patch_43">
    <path clip-path="url(#p02d14e554e)" d="M 333.301271 768.96 
L 335.429237 768.96 
L 335.429237 656.262586 
L 333.301271 656.262586 
z
" style="fill:#1f77b4;"/>
   </g>
   <g id="patch_44">
    <path clip-path="url(#p02d14e554e)" d="M 337.557203 768.96 
L 339.685169 768.96 
L 339.685169 606.567347 
L 337.557203 606.567347 
z
" style="fill:#1f77b4;"/>
   </g>
   <g id="patch_45">
    <path clip-path="url(#p02d14e554e)" d="M 341.813136 768.96 
L 343.941102 768.96 
L 343.941102 628.374034 
L 341.813136 628.374034 
z
" style="fill:#1f77b4;"/>
   </g>
   <g id="patch_46">
    <path clip-path="url(#p02d14e554e)" d="M 346.069068 768.96 
L 348.197034 768.96 
L 348.197034 682.316289 
L 346.069068 682.316289 
z
" style="fill:#1f77b4;"/>
   </g>
   <g id="patch_47">
    <path clip-path="url(#p02d14e554e)" d="M 350.325 768.96 
L 352.452966 768.96 
L 352.452966 722.059904 
L 350.325 722.059904 
z
" style="fill:#1f77b4;"/>
   </g>
   <g id="patch_48">
    <path clip-path="url(#p02d14e554e)" d="M 354.580932 768.96 
L 356.708898 768.96 
L 356.708898 722.757261 
L 354.580932 722.757261 
z
" style="fill:#1f77b4;"/>
   </g>
   <g id="patch_49">
    <path clip-path="url(#p02d14e554e)" d="M 358.836864 768.96 
L 360.964831 768.96 
L 360.964831 677.680582 
L 358.836864 677.680582 
z
" style="fill:#1f77b4;"/>
   </g>
   <g id="patch_50">
    <path clip-path="url(#p02d14e554e)" d="M 363.092797 768.96 
L 365.220763 768.96 
L 365.220763 619.685655 
L 363.092797 619.685655 
z
" style="fill:#1f77b4;"/>
   </g>
   <g id="patch_51">
    <path clip-path="url(#p02d14e554e)" d="M 367.348729 768.96 
L 369.476695 768.96 
L 369.476695 571.893858 
L 367.348729 571.893858 
z
" style="fill:#1f77b4;"/>
   </g>
   <g id="patch_52">
    <path clip-path="url(#p02d14e554e)" d="M 371.604661 768.96 
L 373.732627 768.96 
L 373.732627 584.37197 
L 371.604661 584.37197 
z
" style="fill:#1f77b4;"/>
   </g>
   <g id="patch_53">
    <path clip-path="url(#p02d14e554e)" d="M 375.860593 768.96 
L 377.988559 768.96 
L 377.988559 733.154735 
L 375.860593 733.154735 
z
" style="fill:#1f77b4;"/>
   </g>
   <g id="patch_54">
    <path clip-path="url(#p02d14e554e)" d="M 380.116525 768.96 
L 382.244492 768.96 
L 382.244492 631.094868 
L 380.116525 631.094868 
z
" style="fill:#1f77b4;"/>
   </g>
   <g id="patch_55">
    <path clip-path="url(#p02d14e554e)" d="M 384.372458 768.96 
L 386.500424 768.96 
L 386.500424 663.024659 
L 384.372458 663.024659 
z
" style="fill:#1f77b4;"/>
   </g>
   <g id="patch_56">
    <path clip-path="url(#p02d14e554e)" d="M 388.62839 768.96 
L 390.756356 768.96 
L 390.756356 612.929298 
L 388.62839 612.929298 
z
" style="fill:#1f77b4;"/>
   </g>
   <g id="patch_57">
    <path clip-path="url(#p02d14e554e)" d="M 392.884322 768.96 
L 395.012288 768.96 
L 395.012288 468.273512 
L 392.884322 468.273512 
z
" style="fill:#1f77b4;"/>
   </g>
   <g id="patch_58">
    <path clip-path="url(#p02d14e554e)" d="M 397.140254 768.96 
L 399.26822 768.96 
L 399.26822 463.677818 
L 397.140254 463.677818 
z
" style="fill:#1f77b4;"/>
   </g>
   <g id="patch_59">
    <path clip-path="url(#p02d14e554e)" d="M 401.396186 768.96 
L 403.524153 768.96 
L 403.524153 496.41357 
L 401.396186 496.41357 
z
" style="fill:#1f77b4;"/>
   </g>
   <g id="patch_60">
    <path clip-path="url(#p02d14e554e)" d="M 405.652119 768.96 
L 407.780085 768.96 
L 407.780085 526.862907 
L 405.652119 526.862907 
z
" style="fill:#1f77b4;"/>
   </g>
   <g id="patch_61">
    <path clip-path="url(#p02d14e554e)" d="M 409.908051 768.96 
L 412.036017 768.96 
L 412.036017 650.540831 
L 409.908051 650.540831 
z
" style="fill:#1f77b4;"/>
   </g>
   <g id="patch_62">
    <path clip-path="url(#p02d14e554e)" d="M 414.163983 768.96 
L 416.291949 768.96 
L 416.291949 594.094951 
L 414.163983 594.094951 
z
" style="fill:#1f77b4;"/>
   </g>
   <g id="patch_63">
    <path clip-path="url(#p02d14e554e)" d="M 418.419915 768.96 
L 420.547881 768.96 
L 420.547881 540.747164 
L 418.419915 540.747164 
z
" style="fill:#1f77b4;"/>
   </g>
   <g id="patch_64">
    <path clip-path="url(#p02d14e554e)" d="M 422.675847 768.96 
L 424.803814 768.96 
L 424.803814 505.221985 
L 422.675847 505.221985 
z
" style="fill:#1f77b4;"/>
   </g>
   <g id="patch_65">
    <path clip-path="url(#p02d14e554e)" d="M 426.93178 768.96 
L 429.059746 768.96 
L 429.059746 382.847318 
L 426.93178 382.847318 
z
" style="fill:#1f77b4;"/>
   </g>
   <g id="patch_66">
    <path clip-path="url(#p02d14e554e)" d="M 431.187712 768.96 
L 433.315678 768.96 
L 433.315678 398.246325 
L 431.187712 398.246325 
z
" style="fill:#1f77b4;"/>
   </g>
   <g id="patch_67">
    <path clip-path="url(#p02d14e554e)" d="M 435.443644 768.96 
L 437.57161 768.96 
L 437.57161 479.036813 
L 435.443644 479.036813 
z
" style="fill:#1f77b4;"/>
   </g>
   <g id="patch_68">
    <path clip-path="url(#p02d14e554e)" d="M 439.699576 768.96 
L 441.827542 768.96 
L 441.827542 678.886666 
L 439.699576 678.886666 
z
" style="fill:#1f77b4;"/>
   </g>
   <g id="patch_69">
    <path clip-path="url(#p02d14e554e)" d="M 443.955508 768.96 
L 446.083475 768.96 
L 446.083475 528.749199 
L 443.955508 528.749199 
z
" style="fill:#1f77b4;"/>
   </g>
   <g id="patch_70">
    <path clip-path="url(#p02d14e554e)" d="M 448.211441 768.96 
L 450.339407 768.96 
L 450.339407 463.797854 
L 448.211441 463.797854 
z
" style="fill:#1f77b4;"/>
   </g>
   <g id="patch_71">
    <path clip-path="url(#p02d14e554e)" d="M 452.467373 768.96 
L 454.595339 768.96 
L 454.595339 434.251651 
L 452.467373 434.251651 
z
" style="fill:#1f77b4;"/>
   </g>
   <g id="patch_72">
    <path clip-path="url(#p02d14e554e)" d="M 456.723305 768.96 
L 458.851271 768.96 
L 458.851271 406.008705 
L 456.723305 406.008705 
z
" style="fill:#1f77b4;"/>
   </g>
   <g id="patch_73">
    <path clip-path="url(#p02d14e554e)" d="M 460.979237 768.96 
L 463.107203 768.96 
L 463.107203 355.850468 
L 460.979237 355.850468 
z
" style="fill:#1f77b4;"/>
   </g>
   <g id="patch_74">
    <path clip-path="url(#p02d14e554e)" d="M 465.235169 768.96 
L 467.363136 768.96 
L 467.363136 505.422046 
L 465.235169 505.422046 
z
" style="fill:#1f77b4;"/>
   </g>
   <g id="patch_75">
    <path clip-path="url(#p02d14e554e)" d="M 469.491102 768.96 
L 471.619068 768.96 
L 471.619068 501.500844 
L 469.491102 501.500844 
z
" style="fill:#1f77b4;"/>
   </g>
   <g id="patch_76">
    <path clip-path="url(#p02d14e554e)" d="M 473.747034 768.96 
L 475.875 768.96 
L 475.875 534.77962 
L 473.747034 534.77962 
z
" style="fill:#1f77b4;"/>
   </g>
   <g id="patch_77">
    <path clip-path="url(#p02d14e554e)" d="M 478.002966 768.96 
L 480.130932 768.96 
L 480.130932 506.776748 
L 478.002966 506.776748 
z
" style="fill:#1f77b4;"/>
   </g>
   <g id="patch_78">
    <path clip-path="url(#p02d14e554e)" d="M 482.258898 768.96 
L 484.386864 768.96 
L 484.386864 536.191482 
L 482.258898 536.191482 
z
" style="fill:#1f77b4;"/>
   </g>
   <g id="patch_79">
    <path clip-path="url(#p02d14e554e)" d="M 486.514831 768.96 
L 488.642797 768.96 
L 488.642797 503.232804 
L 486.514831 503.232804 
z
" style="fill:#1f77b4;"/>
   </g>
   <g id="patch_80">
    <path clip-path="url(#p02d14e554e)" d="M 490.770763 768.96 
L 492.898729 768.96 
L 492.898729 490.663235 
L 490.770763 490.663235 
z
" style="fill:#1f77b4;"/>
   </g>
   <g id="patch_81">
    <path clip-path="url(#p02d14e554e)" d="M 495.026695 768.96 
L 497.154661 768.96 
L 497.154661 595.518245 
L 495.026695 595.518245 
z
" style="fill:#1f77b4;"/>
   </g>
   <g id="patch_82">
    <path clip-path="url(#p02d14e554e)" d="M 499.282627 768.96 
L 501.410593 768.96 
L 501.410593 674.222378 
L 499.282627 674.222378 
z
" style="fill:#1f77b4;"/>
   </g>
   <g id="patch_83">
    <path clip-path="url(#p02d14e554e)" d="M 503.538559 768.96 
L 505.666525 768.96 
L 505.666525 620.074346 
L 503.538559 620.074346 
z
" style="fill:#1f77b4;"/>
   </g>
   <g id="patch_84">
    <path clip-path="url(#p02d14e554e)" d="M 507.794492 768.96 
L 509.922458 768.96 
L 509.922458 589.350639 
L 507.794492 589.350639 
z
" style="fill:#1f77b4;"/>
   </g>
   <g id="patch_85">
    <path clip-path="url(#p02d14e554e)" d="M 512.050424 768.96 
L 514.17839 768.96 
L 514.17839 582.662874 
L 512.050424 582.662874 
z
" style="fill:#1f77b4;"/>
   </g>
   <g id="patch_86">
    <path clip-path="url(#p02d14e554e)" d="M 516.306356 768.96 
L 518.434322 768.96 
L 518.434322 530.241085 
L 516.306356 530.241085 
z
" style="fill:#1f77b4;"/>
   </g>
   <g id="patch_87">
    <path clip-path="url(#p02d14e554e)" d="M 520.562288 768.96 
L 522.690254 768.96 
L 522.690254 467.038848 
L 520.562288 467.038848 
z
" style="fill:#1f77b4;"/>
   </g>
   <g id="patch_88">
    <path clip-path="url(#p02d14e554e)" d="M 524.81822 768.96 
L 526.946186 768.96 
L 526.946186 505.71928 
L 524.81822 505.71928 
z
" style="fill:#1f77b4;"/>
   </g>
   <g id="patch_89">
    <path clip-path="url(#p02d14e554e)" d="M 529.074153 768.96 
L 531.202119 768.96 
L 531.202119 664.002102 
L 529.074153 664.002102 
z
" style="fill:#1f77b4;"/>
   </g>
   <g id="patch_90">
    <path clip-path="url(#p02d14e554e)" d="M 533.330085 768.96 
L 535.458051 768.96 
L 535.458051 608.870911 
L 533.330085 608.870911 
z
" style="fill:#1f77b4;"/>
   </g>
   <g id="patch_91">
    <path clip-path="url(#p02d14e554e)" d="M 537.586017 768.96 
L 539.713983 768.96 
L 539.713983 479.625565 
L 537.586017 479.625565 
z
" style="fill:#1f77b4;"/>
   </g>
   <g id="patch_92">
    <path clip-path="url(#p02d14e554e)" d="M 541.841949 768.96 
L 543.969915 768.96 
L 543.969915 522.478705 
L 541.841949 522.478705 
z
" style="fill:#1f77b4;"/>
   </g>
   <g id="patch_93">
    <path clip-path="url(#p02d14e554e)" d="M 546.097881 768.96 
L 548.225847 768.96 
L 548.225847 428.186935 
L 546.097881 428.186935 
z
" style="fill:#1f77b4;"/>
   </g>
   <g id="patch_94">
    <path clip-path="url(#p02d14e554e)" d="M 550.353814 768.96 
L 552.48178 768.96 
L 552.48178 420.6189 
L 550.353814 420.6189 
z
" style="fill:#1f77b4;"/>
   </g>
   <g id="patch_95">
    <path clip-path="url(#p02d14e554e)" d="M 554.609746 768.96 
L 556.737712 768.96 
L 556.737712 496.739384 
L 554.609746 496.739384 
z
" style="fill:#1f77b4;"/>
   </g>
   <g id="patch_96">
    <path clip-path="url(#p02d14e554e)" d="M 558.865678 768.96 
L 560.993644 768.96 
L 560.993644 693.308231 
L 558.865678 693.308231 
z
" style="fill:#1f77b4;"/>
   </g>
   <g id="patch_97">
    <path clip-path="url(#p02d14e554e)" d="M 563.12161 768.96 
L 565.249576 768.96 
L 565.249576 512.298441 
L 563.12161 512.298441 
z
" style="fill:#1f77b4;"/>
   </g>
   <g id="patch_98">
    <path clip-path="url(#p02d14e554e)" d="M 567.377542 768.96 
L 569.505508 768.96 
L 569.505508 367.917025 
L 567.377542 367.917025 
z
" style="fill:#1f77b4;"/>
   </g>
   <g id="patch_99">
    <path clip-path="url(#p02d14e554e)" d="M 571.633475 768.96 
L 573.761441 768.96 
L 573.761441 324.286503 
L 571.633475 324.286503 
z
" style="fill:#1f77b4;"/>
   </g>
   <g id="patch_100">
    <path clip-path="url(#p02d14e554e)" d="M 575.889407 768.96 
L 578.017373 768.96 
L 578.017373 241.632587 
L 575.889407 241.632587 
z
" style="fill:#1f77b4;"/>
   </g>
   <g id="patch_101">
    <path clip-path="url(#p02d14e554e)" d="M 580.145339 768.96 
L 582.273305 768.96 
L 582.273305 135.36 
L 580.145339 135.36 
z
" style="fill:#1f77b4;"/>
   </g>
   <g id="patch_102">
    <path clip-path="url(#p02d14e554e)" d="M 584.401271 768.96 
L 586.529237 768.96 
L 586.529237 335.655704 
L 584.401271 335.655704 
z
" style="fill:#1f77b4;"/>
   </g>
   <g id="patch_103">
    <path clip-path="url(#p02d14e554e)" d="M 588.657203 768.96 
L 590.785169 768.96 
L 590.785169 556.289073 
L 588.657203 556.289073 
z
" style="fill:#1f77b4;"/>
   </g>
   <g id="patch_104">
    <path clip-path="url(#p02d14e554e)" d="M 592.913136 768.96 
L 595.041102 768.96 
L 595.041102 414.034023 
L 592.913136 414.034023 
z
" style="fill:#1f77b4;"/>
   </g>
   <g id="patch_105">
    <path clip-path="url(#p02d14e554e)" d="M 597.169068 768.96 
L 599.297034 768.96 
L 599.297034 333.683671 
L 597.169068 333.683671 
z
" style="fill:#1f77b4;"/>
   </g>
   <g id="patch_106">
    <path clip-path="url(#p02d14e554e)" d="M 601.425 768.96 
L 603.552966 768.96 
L 603.552966 396.217132 
L 601.425 396.217132 
z
" style="fill:#1f77b4;"/>
   </g>
   <g id="patch_107">
    <path clip-path="url(#p02d14e554e)" d="M 605.680932 768.96 
L 607.808898 768.96 
L 607.808898 264.445297 
L 605.680932 264.445297 
z
" style="fill:#1f77b4;"/>
   </g>
   <g id="patch_108">
    <path clip-path="url(#p02d14e554e)" d="M 609.936864 768.96 
L 612.064831 768.96 
L 612.064831 268.532264 
L 609.936864 268.532264 
z
" style="fill:#1f77b4;"/>
   </g>
   <g id="patch_109">
    <path clip-path="url(#p02d14e554e)" d="M 614.192797 768.96 
L 616.320763 768.96 
L 616.320763 412.799359 
L 614.192797 412.799359 
z
" style="fill:#1f77b4;"/>
   </g>
   <g id="patch_110">
    <path clip-path="url(#p02d14e554e)" d="M 618.448729 768.96 
L 620.576695 768.96 
L 620.576695 565.08034 
L 618.448729 565.08034 
z
" style="fill:#1f77b4;"/>
   </g>
   <g id="patch_111">
    <path clip-path="url(#p02d14e554e)" d="M 622.704661 768.96 
L 624.832627 768.96 
L 624.832627 478.985369 
L 622.704661 478.985369 
z
" style="fill:#1f77b4;"/>
   </g>
   <g id="patch_112">
    <path clip-path="url(#p02d14e554e)" d="M 626.960593 768.96 
L 629.088559 768.96 
L 629.088559 297.249641 
L 626.960593 297.249641 
z
" style="fill:#1f77b4;"/>
   </g>
   <g id="patch_113">
    <path clip-path="url(#p02d14e554e)" d="M 631.216525 768.96 
L 633.344492 768.96 
L 633.344492 347.602224 
L 631.216525 347.602224 
z
" style="fill:#1f77b4;"/>
   </g>
   <g id="patch_114">
    <path clip-path="url(#p02d14e554e)" d="M 635.472458 768.96 
L 637.600424 768.96 
L 637.600424 322.851778 
L 635.472458 322.851778 
z
" style="fill:#1f77b4;"/>
   </g>
   <g id="patch_115">
    <path clip-path="url(#p02d14e554e)" d="M 639.72839 768.96 
L 641.856356 768.96 
L 641.856356 349.962948 
L 639.72839 349.962948 
z
" style="fill:#1f77b4;"/>
   </g>
   <g id="patch_116">
    <path clip-path="url(#p02d14e554e)" d="M 643.984322 768.96 
L 646.112288 768.96 
L 646.112288 485.015789 
L 643.984322 485.015789 
z
" style="fill:#1f77b4;"/>
   </g>
   <g id="patch_117">
    <path clip-path="url(#p02d14e554e)" d="M 648.240254 768.96 
L 650.36822 768.96 
L 650.36822 646.350975 
L 648.240254 646.350975 
z
" style="fill:#1f77b4;"/>
   </g>
   <g id="patch_118">
    <path clip-path="url(#p02d14e554e)" d="M 652.496186 768.96 
L 654.624153 768.96 
L 654.624153 510.920875 
L 652.496186 510.920875 
z
" style="fill:#1f77b4;"/>
   </g>
   <g id="patch_119">
    <path clip-path="url(#p02d14e554e)" d="M 656.752119 768.96 
L 658.880085 768.96 
L 658.880085 402.436181 
L 656.752119 402.436181 
z
" style="fill:#1f77b4;"/>
   </g>
   <g id="patch_120">
    <path clip-path="url(#p02d14e554e)" d="M 661.008051 768.96 
L 663.136017 768.96 
L 663.136017 383.43607 
L 661.008051 383.43607 
z
" style="fill:#1f77b4;"/>
   </g>
   <g id="patch_121">
    <path clip-path="url(#p02d14e554e)" d="M 665.263983 768.96 
L 667.391949 768.96 
L 667.391949 395.422602 
L 665.263983 395.422602 
z
" style="fill:#1f77b4;"/>
   </g>
   <g id="patch_122">
    <path clip-path="url(#p02d14e554e)" d="M 669.519915 768.96 
L 671.647881 768.96 
L 671.647881 451.702717 
L 669.519915 451.702717 
z
" style="fill:#1f77b4;"/>
   </g>
   <g id="patch_123">
    <path clip-path="url(#p02d14e554e)" d="M 673.775847 768.96 
L 675.903814 768.96 
L 675.903814 623.018106 
L 673.775847 623.018106 
z
" style="fill:#1f77b4;"/>
   </g>
   <g id="patch_124">
    <path clip-path="url(#p02d14e554e)" d="M 678.03178 768.96 
L 680.159746 768.96 
L 680.159746 719.247613 
L 678.03178 719.247613 
z
" style="fill:#1f77b4;"/>
   </g>
   <g id="patch_125">
    <path clip-path="url(#p02d14e554e)" d="M 682.287712 768.96 
L 684.415678 768.96 
L 684.415678 615.604404 
L 682.287712 615.604404 
z
" style="fill:#1f77b4;"/>
   </g>
   <g id="patch_126">
    <path clip-path="url(#p02d14e554e)" d="M 686.543644 768.96 
L 688.67161 768.96 
L 688.67161 361.995209 
L 686.543644 361.995209 
z
" style="fill:#1f77b4;"/>
   </g>
   <g id="patch_127">
    <path clip-path="url(#p02d14e554e)" d="M 690.799576 768.96 
L 692.927542 768.96 
L 692.927542 369.660417 
L 690.799576 369.660417 
z
" style="fill:#1f77b4;"/>
   </g>
   <g id="patch_128">
    <path clip-path="url(#p02d14e554e)" d="M 695.055508 768.96 
L 697.183475 768.96 
L 697.183475 468.799388 
L 695.055508 468.799388 
z
" style="fill:#1f77b4;"/>
   </g>
   <g id="patch_129">
    <path clip-path="url(#p02d14e554e)" d="M 699.311441 768.96 
L 701.439407 768.96 
L 701.439407 322.926086 
L 699.311441 322.926086 
z
" style="fill:#1f77b4;"/>
   </g>
   <g id="patch_130">
    <path clip-path="url(#p02d14e554e)" d="M 703.567373 768.96 
L 705.695339 768.96 
L 705.695339 463.614941 
L 703.567373 463.614941 
z
" style="fill:#1f77b4;"/>
   </g>
   <g id="patch_131">
    <path clip-path="url(#p02d14e554e)" d="M 707.823305 768.96 
L 709.951271 768.96 
L 709.951271 497.213815 
L 707.823305 497.213815 
z
" style="fill:#1f77b4;"/>
   </g>
   <g id="patch_132">
    <path clip-path="url(#p02d14e554e)" d="M 712.079237 768.96 
L 714.207203 768.96 
L 714.207203 539.958351 
L 712.079237 539.958351 
z
" style="fill:#1f77b4;"/>
   </g>
   <g id="patch_133">
    <path clip-path="url(#p02d14e554e)" d="M 716.335169 768.96 
L 718.463136 768.96 
L 718.463136 460.082429 
L 716.335169 460.082429 
z
" style="fill:#1f77b4;"/>
   </g>
   <g id="patch_134">
    <path clip-path="url(#p02d14e554e)" d="M 720.591102 768.96 
L 722.719068 768.96 
L 722.719068 489.58862 
L 720.591102 489.58862 
z
" style="fill:#1f77b4;"/>
   </g>
   <g id="patch_135">
    <path clip-path="url(#p02d14e554e)" d="M 724.847034 768.96 
L 726.975 768.96 
L 726.975 479.259738 
L 724.847034 479.259738 
z
" style="fill:#1f77b4;"/>
   </g>
   <g id="patch_136">
    <path clip-path="url(#p02d14e554e)" d="M 729.102966 768.96 
L 731.230932 768.96 
L 731.230932 350.088701 
L 729.102966 350.088701 
z
" style="fill:#1f77b4;"/>
   </g>
   <g id="patch_137">
    <path clip-path="url(#p02d14e554e)" d="M 733.358898 768.96 
L 735.486864 768.96 
L 735.486864 533.242006 
L 733.358898 533.242006 
z
" style="fill:#1f77b4;"/>
   </g>
   <g id="patch_138">
    <path clip-path="url(#p02d14e554e)" d="M 737.614831 768.96 
L 739.742797 768.96 
L 739.742797 671.084273 
L 737.614831 671.084273 
z
" style="fill:#1f77b4;"/>
   </g>
   <g id="patch_139">
    <path clip-path="url(#p02d14e554e)" d="M 741.870763 768.96 
L 743.998729 768.96 
L 743.998729 607.041778 
L 741.870763 607.041778 
z
" style="fill:#1f77b4;"/>
   </g>
   <g id="patch_140">
    <path clip-path="url(#p02d14e554e)" d="M 746.126695 768.96 
L 748.254661 768.96 
L 748.254661 466.770194 
L 746.126695 466.770194 
z
" style="fill:#1f77b4;"/>
   </g>
   <g id="patch_141">
    <path clip-path="url(#p02d14e554e)" d="M 750.382627 768.96 
L 752.510593 768.96 
L 752.510593 500.460525 
L 750.382627 500.460525 
z
" style="fill:#1f77b4;"/>
   </g>
   <g id="patch_142">
    <path clip-path="url(#p02d14e554e)" d="M 754.638559 768.96 
L 756.766525 768.96 
L 756.766525 388.140369 
L 754.638559 388.140369 
z
" style="fill:#1f77b4;"/>
   </g>
   <g id="patch_143">
    <path clip-path="url(#p02d14e554e)" d="M 758.894492 768.96 
L 761.022458 768.96 
L 761.022458 521.489831 
L 758.894492 521.489831 
z
" style="fill:#1f77b4;"/>
   </g>
   <g id="patch_144">
    <path clip-path="url(#p02d14e554e)" d="M 763.150424 768.96 
L 765.27839 768.96 
L 765.27839 569.384517 
L 763.150424 569.384517 
z
" style="fill:#1f77b4;"/>
   </g>
   <g id="patch_145">
    <path clip-path="url(#p02d14e554e)" d="M 767.406356 768.96 
L 769.534322 768.96 
L 769.534322 676.943213 
L 767.406356 676.943213 
z
" style="fill:#1f77b4;"/>
   </g>
   <g id="patch_146">
    <path clip-path="url(#p02d14e554e)" d="M 771.662288 768.96 
L 773.790254 768.96 
L 773.790254 619.565619 
L 771.662288 619.565619 
z
" style="fill:#1f77b4;"/>
   </g>
   <g id="patch_147">
    <path clip-path="url(#p02d14e554e)" d="M 775.91822 768.96 
L 778.046186 768.96 
L 778.046186 587.424334 
L 775.91822 587.424334 
z
" style="fill:#1f77b4;"/>
   </g>
   <g id="patch_148">
    <path clip-path="url(#p02d14e554e)" d="M 780.174153 768.96 
L 782.302119 768.96 
L 782.302119 584.246217 
L 780.174153 584.246217 
z
" style="fill:#1f77b4;"/>
   </g>
   <g id="patch_149">
    <path clip-path="url(#p02d14e554e)" d="M 784.430085 768.96 
L 786.558051 768.96 
L 786.558051 574.237434 
L 784.430085 574.237434 
z
" style="fill:#1f77b4;"/>
   </g>
   <g id="patch_150">
    <path clip-path="url(#p02d14e554e)" d="M 788.686017 768.96 
L 790.813983 768.96 
L 790.813983 589.790774 
L 788.686017 589.790774 
z
" style="fill:#1f77b4;"/>
   </g>
   <g id="patch_151">
    <path clip-path="url(#p02d14e554e)" d="M 792.941949 768.96 
L 795.069915 768.96 
L 795.069915 646.288098 
L 792.941949 646.288098 
z
" style="fill:#1f77b4;"/>
   </g>
   <g id="patch_152">
    <path clip-path="url(#p02d14e554e)" d="M 797.197881 768.96 
L 799.325847 768.96 
L 799.325847 700.544736 
L 797.197881 700.544736 
z
" style="fill:#1f77b4;"/>
   </g>
   <g id="patch_153">
    <path clip-path="url(#p02d14e554e)" d="M 801.453814 768.96 
L 803.58178 768.96 
L 803.58178 717.82432 
L 801.453814 717.82432 
z
" style="fill:#1f77b4;"/>
   </g>
   <g id="patch_154">
    <path clip-path="url(#p02d14e554e)" d="M 805.709746 768.96 
L 807.837712 768.96 
L 807.837712 659.829394 
L 805.709746 659.829394 
z
" style="fill:#1f77b4;"/>
   </g>
   <g id="patch_155">
    <path clip-path="url(#p02d14e554e)" d="M 809.965678 768.96 
L 812.093644 768.96 
L 812.093644 653.581764 
L 809.965678 653.581764 
z
" style="fill:#1f77b4;"/>
   </g>
   <g id="patch_156">
    <path clip-path="url(#p02d14e554e)" d="M 814.22161 768.96 
L 816.349576 768.96 
L 816.349576 581.811185 
L 814.22161 581.811185 
z
" style="fill:#1f77b4;"/>
   </g>
   <g id="patch_157">
    <path clip-path="url(#p02d14e554e)" d="M 818.477542 768.96 
L 820.605508 768.96 
L 820.605508 557.889564 
L 818.477542 557.889564 
z
" style="fill:#1f77b4;"/>
   </g>
   <g id="patch_158">
    <path clip-path="url(#p02d14e554e)" d="M 822.733475 768.96 
L 824.861441 768.96 
L 824.861441 580.405039 
L 822.733475 580.405039 
z
" style="fill:#1f77b4;"/>
   </g>
   <g id="patch_159">
    <path clip-path="url(#p02d14e554e)" d="M 826.989407 768.96 
L 829.117373 768.96 
L 829.117373 634.330146 
L 826.989407 634.330146 
z
" style="fill:#1f77b4;"/>
   </g>
   <g id="patch_160">
    <path clip-path="url(#p02d14e554e)" d="M 831.245339 768.96 
L 833.373305 768.96 
L 833.373305 585.698091 
L 831.245339 585.698091 
z
" style="fill:#1f77b4;"/>
   </g>
   <g id="patch_161">
    <path clip-path="url(#p02d14e554e)" d="M 835.501271 768.96 
L 837.629237 768.96 
L 837.629237 572.779844 
L 835.501271 572.779844 
z
" style="fill:#1f77b4;"/>
   </g>
   <g id="patch_162">
    <path clip-path="url(#p02d14e554e)" d="M 839.757203 768.96 
L 841.885169 768.96 
L 841.885169 536.231494 
L 839.757203 536.231494 
z
" style="fill:#1f77b4;"/>
   </g>
   <g id="patch_163">
    <path clip-path="url(#p02d14e554e)" d="M 844.013136 768.96 
L 846.141102 768.96 
L 846.141102 608.893775 
L 844.013136 608.893775 
z
" style="fill:#1f77b4;"/>
   </g>
   <g id="patch_164">
    <path clip-path="url(#p02d14e554e)" d="M 848.269068 768.96 
L 850.397034 768.96 
L 850.397034 618.931138 
L 848.269068 618.931138 
z
" style="fill:#1f77b4;"/>
   </g>
   <g id="patch_165">
    <path clip-path="url(#p02d14e554e)" d="M 852.525 768.96 
L 854.652966 768.96 
L 854.652966 678.869518 
L 852.525 678.869518 
z
" style="fill:#1f77b4;"/>
   </g>
   <g id="patch_166">
    <path clip-path="url(#p02d14e554e)" d="M 856.780932 768.96 
L 858.908898 768.96 
L 858.908898 677.406212 
L 856.780932 677.406212 
z
" style="fill:#1f77b4;"/>
   </g>
   <g id="patch_167">
    <path clip-path="url(#p02d14e554e)" d="M 861.036864 768.96 
L 863.164831 768.96 
L 863.164831 490.303125 
L 861.036864 490.303125 
z
" style="fill:#1f77b4;"/>
   </g>
   <g id="patch_168">
    <path clip-path="url(#p02d14e554e)" d="M 865.292797 768.96 
L 867.420763 768.96 
L 867.420763 562.645308 
L 865.292797 562.645308 
z
" style="fill:#1f77b4;"/>
   </g>
   <g id="patch_169">
    <path clip-path="url(#p02d14e554e)" d="M 869.548729 768.96 
L 871.676695 768.96 
L 871.676695 627.973911 
L 869.548729 627.973911 
z
" style="fill:#1f77b4;"/>
   </g>
   <g id="patch_170">
    <path clip-path="url(#p02d14e554e)" d="M 873.804661 768.96 
L 875.932627 768.96 
L 875.932627 583.131589 
L 873.804661 583.131589 
z
" style="fill:#1f77b4;"/>
   </g>
   <g id="patch_171">
    <path clip-path="url(#p02d14e554e)" d="M 878.060593 768.96 
L 880.188559 768.96 
L 880.188559 679.658331 
L 878.060593 679.658331 
z
" style="fill:#1f77b4;"/>
   </g>
   <g id="patch_172">
    <path clip-path="url(#p02d14e554e)" d="M 882.316525 768.96 
L 884.444492 768.96 
L 884.444492 631.237769 
L 882.316525 631.237769 
z
" style="fill:#1f77b4;"/>
   </g>
   <g id="patch_173">
    <path clip-path="url(#p02d14e554e)" d="M 886.572458 768.96 
L 888.700424 768.96 
L 888.700424 709.610373 
L 886.572458 709.610373 
z
" style="fill:#1f77b4;"/>
   </g>
   <g id="patch_174">
    <path clip-path="url(#p02d14e554e)" d="M 890.82839 768.96 
L 892.956356 768.96 
L 892.956356 696.80073 
L 890.82839 696.80073 
z
" style="fill:#1f77b4;"/>
   </g>
   <g id="patch_175">
    <path clip-path="url(#p02d14e554e)" d="M 895.084322 768.96 
L 897.212288 768.96 
L 897.212288 681.075909 
L 895.084322 681.075909 
z
" style="fill:#1f77b4;"/>
   </g>
   <g id="patch_176">
    <path clip-path="url(#p02d14e554e)" d="M 899.340254 768.96 
L 901.46822 768.96 
L 901.46822 662.138673 
L 899.340254 662.138673 
z
" style="fill:#1f77b4;"/>
   </g>
   <g id="patch_177">
    <path clip-path="url(#p02d14e554e)" d="M 903.596186 768.96 
L 905.724153 768.96 
L 905.724153 639.314532 
L 903.596186 639.314532 
z
" style="fill:#1f77b4;"/>
   </g>
   <g id="patch_178">
    <path clip-path="url(#p02d14e554e)" d="M 907.852119 768.96 
L 909.980085 768.96 
L 909.980085 478.025074 
L 907.852119 478.025074 
z
" style="fill:#1f77b4;"/>
   </g>
   <g id="patch_179">
    <path clip-path="url(#p02d14e554e)" d="M 912.108051 768.96 
L 914.236017 768.96 
L 914.236017 433.056999 
L 912.108051 433.056999 
z
" style="fill:#1f77b4;"/>
   </g>
   <g id="patch_180">
    <path clip-path="url(#p02d14e554e)" d="M 916.363983 768.96 
L 918.491949 768.96 
L 918.491949 739.036539 
L 916.363983 739.036539 
z
" style="fill:#1f77b4;"/>
   </g>
   <g id="patch_181">
    <path clip-path="url(#p02d14e554e)" d="M 920.619915 768.96 
L 922.747881 768.96 
L 922.747881 694.760105 
L 920.619915 694.760105 
z
" style="fill:#1f77b4;"/>
   </g>
   <g id="patch_182">
    <path clip-path="url(#p02d14e554e)" d="M 924.875847 768.96 
L 927.003814 768.96 
L 927.003814 677.652002 
L 924.875847 677.652002 
z
" style="fill:#1f77b4;"/>
   </g>
   <g id="patch_183">
    <path clip-path="url(#p02d14e554e)" d="M 929.13178 768.96 
L 931.259746 768.96 
L 931.259746 680.961588 
L 929.13178 680.961588 
z
" style="fill:#1f77b4;"/>
   </g>
   <g id="patch_184">
    <path clip-path="url(#p02d14e554e)" d="M 933.387712 768.96 
L 935.515678 768.96 
L 935.515678 690.101533 
L 933.387712 690.101533 
z
" style="fill:#1f77b4;"/>
   </g>
   <g id="patch_185">
    <path clip-path="url(#p02d14e554e)" d="M 937.643644 768.96 
L 939.77161 768.96 
L 939.77161 689.895756 
L 937.643644 689.895756 
z
" style="fill:#1f77b4;"/>
   </g>
   <g id="patch_186">
    <path clip-path="url(#p02d14e554e)" d="M 941.899576 768.96 
L 944.027542 768.96 
L 944.027542 709.764706 
L 941.899576 709.764706 
z
" style="fill:#1f77b4;"/>
   </g>
   <g id="patch_187">
    <path clip-path="url(#p02d14e554e)" d="M 946.155508 768.96 
L 948.283475 768.96 
L 948.283475 740.459832 
L 946.155508 740.459832 
z
" style="fill:#1f77b4;"/>
   </g>
   <g id="patch_188">
    <path clip-path="url(#p02d14e554e)" d="M 950.411441 768.96 
L 952.539407 768.96 
L 952.539407 764.187108 
L 950.411441 764.187108 
z
" style="fill:#1f77b4;"/>
   </g>
   <g id="patch_189">
    <path clip-path="url(#p02d14e554e)" d="M 954.667373 768.96 
L 956.795339 768.96 
L 956.795339 723.105939 
L 954.667373 723.105939 
z
" style="fill:#1f77b4;"/>
   </g>
   <g id="patch_190">
    <path clip-path="url(#p02d14e554e)" d="M 958.923305 768.96 
L 961.051271 768.96 
L 961.051271 688.026611 
L 958.923305 688.026611 
z
" style="fill:#1f77b4;"/>
   </g>
   <g id="patch_191">
    <path clip-path="url(#p02d14e554e)" d="M 963.179237 768.96 
L 965.307203 768.96 
L 965.307203 687.575044 
L 963.179237 687.575044 
z
" style="fill:#1f77b4;"/>
   </g>
   <g id="patch_192">
    <path clip-path="url(#p02d14e554e)" d="M 967.435169 768.96 
L 969.563136 768.96 
L 969.563136 697.743877 
L 967.435169 697.743877 
z
" style="fill:#1f77b4;"/>
   </g>
   <g id="patch_193">
    <path clip-path="url(#p02d14e554e)" d="M 971.691102 768.96 
L 973.819068 768.96 
L 973.819068 708.524325 
L 971.691102 708.524325 
z
" style="fill:#1f77b4;"/>
   </g>
   <g id="patch_194">
    <path clip-path="url(#p02d14e554e)" d="M 975.947034 768.96 
L 978.075 768.96 
L 978.075 727.873115 
L 975.947034 727.873115 
z
" style="fill:#1f77b4;"/>
   </g>
   <g id="patch_195">
    <path clip-path="url(#p02d14e554e)" d="M 980.202966 768.96 
L 982.330932 768.96 
L 982.330932 692.770923 
L 980.202966 692.770923 
z
" style="fill:#1f77b4;"/>
   </g>
   <g id="patch_196">
    <path clip-path="url(#p02d14e554e)" d="M 984.458898 768.96 
L 986.586864 768.96 
L 986.586864 705.649158 
L 984.458898 705.649158 
z
" style="fill:#1f77b4;"/>
   </g>
   <g id="patch_197">
    <path clip-path="url(#p02d14e554e)" d="M 988.714831 768.96 
L 990.842797 768.96 
L 990.842797 708.638646 
L 988.714831 708.638646 
z
" style="fill:#1f77b4;"/>
   </g>
   <g id="patch_198">
    <path clip-path="url(#p02d14e554e)" d="M 992.970763 768.96 
L 995.098729 768.96 
L 995.098729 709.164522 
L 992.970763 709.164522 
z
" style="fill:#1f77b4;"/>
   </g>
   <g id="patch_199">
    <path clip-path="url(#p02d14e554e)" d="M 997.226695 768.96 
L 999.354661 768.96 
L 999.354661 708.278536 
L 997.226695 708.278536 
z
" style="fill:#1f77b4;"/>
   </g>
   <g id="patch_200">
    <path clip-path="url(#p02d14e554e)" d="M 1001.482627 768.96 
L 1003.610593 768.96 
L 1003.610593 718.207294 
L 1001.482627 718.207294 
z
" style="fill:#1f77b4;"/>
   </g>
   <g id="patch_201">
    <path clip-path="url(#p02d14e554e)" d="M 1005.738559 768.96 
L 1007.866525 768.96 
L 1007.866525 734.343671 
L 1005.738559 734.343671 
z
" style="fill:#1f77b4;"/>
   </g>
   <g id="patch_202">
    <path clip-path="url(#p02d14e554e)" d="M 1009.994492 768.96 
L 1012.122458 768.96 
L 1012.122458 717.778592 
L 1009.994492 717.778592 
z
" style="fill:#1f77b4;"/>
   </g>
   <g id="patch_203">
    <path clip-path="url(#p02d14e554e)" d="M 1014.250424 768.96 
L 1016.37839 768.96 
L 1016.37839 700.601896 
L 1014.250424 700.601896 
z
" style="fill:#1f77b4;"/>
   </g>
   <g id="patch_204">
    <path clip-path="url(#p02d14e554e)" d="M 1018.506356 768.96 
L 1020.634322 768.96 
L 1020.634322 705.363356 
L 1018.506356 705.363356 
z
" style="fill:#1f77b4;"/>
   </g>
   <g id="patch_205">
    <path clip-path="url(#p02d14e554e)" d="M 1022.762288 768.96 
L 1024.890254 768.96 
L 1024.890254 722.637224 
L 1022.762288 722.637224 
z
" style="fill:#1f77b4;"/>
   </g>
   <g id="patch_206">
    <path clip-path="url(#p02d14e554e)" d="M 1027.01822 768.96 
L 1029.146186 768.96 
L 1029.146186 721.911287 
L 1027.01822 721.911287 
z
" style="fill:#1f77b4;"/>
   </g>
   <g id="patch_207">
    <path clip-path="url(#p02d14e554e)" d="M 1031.274153 768.96 
L 1033.402119 768.96 
L 1033.402119 739.522402 
L 1031.274153 739.522402 
z
" style="fill:#1f77b4;"/>
   </g>
   <g id="patch_208">
    <path clip-path="url(#p02d14e554e)" d="M 1035.530085 768.96 
L 1037.658051 768.96 
L 1037.658051 751.909057 
L 1035.530085 751.909057 
z
" style="fill:#1f77b4;"/>
   </g>
   <g id="patch_209">
    <path clip-path="url(#p02d14e554e)" d="M 1039.786017 768.96 
L 1041.913983 768.96 
L 1041.913983 741.008572 
L 1039.786017 741.008572 
z
" style="fill:#1f77b4;"/>
   </g>
   <g id="patch_210">
    <path clip-path="url(#p02d14e554e)" d="M 1044.041949 768.96 
L 1046.169915 768.96 
L 1046.169915 704.717444 
L 1044.041949 704.717444 
z
" style="fill:#1f77b4;"/>
   </g>
   <g id="patch_211">
    <path clip-path="url(#p02d14e554e)" d="M 1048.297881 768.96 
L 1050.425847 768.96 
L 1050.425847 660.343837 
L 1048.297881 660.343837 
z
" style="fill:#1f77b4;"/>
   </g>
   <g id="patch_212">
    <path clip-path="url(#p02d14e554e)" d="M 1052.553814 768.96 
L 1054.68178 768.96 
L 1054.68178 712.851366 
L 1052.553814 712.851366 
z
" style="fill:#1f77b4;"/>
   </g>
   <g id="patch_213">
    <path clip-path="url(#p02d14e554e)" d="M 1056.809746 768.96 
L 1058.937712 768.96 
L 1058.937712 645.264928 
L 1056.809746 645.264928 
z
" style="fill:#1f77b4;"/>
   </g>
   <g id="patch_214">
    <path clip-path="url(#p02d14e554e)" d="M 1061.065678 768.96 
L 1063.193644 768.96 
L 1063.193644 724.214851 
L 1061.065678 724.214851 
z
" style="fill:#1f77b4;"/>
   </g>
   <g id="patch_215">
    <path clip-path="url(#p02d14e554e)" d="M 1065.32161 768.96 
L 1067.449576 768.96 
L 1067.449576 735.504027 
L 1065.32161 735.504027 
z
" style="fill:#1f77b4;"/>
   </g>
   <g id="patch_216">
    <path clip-path="url(#p02d14e554e)" d="M 1069.577542 768.96 
L 1071.705508 768.96 
L 1071.705508 723.677543 
L 1069.577542 723.677543 
z
" style="fill:#1f77b4;"/>
   </g>
   <g id="patch_217">
    <path clip-path="url(#p02d14e554e)" d="M 1073.833475 768.96 
L 1075.961441 768.96 
L 1075.961441 707.99845 
L 1073.833475 707.99845 
z
" style="fill:#1f77b4;"/>
   </g>
   <g id="patch_218">
    <path clip-path="url(#p02d14e554e)" d="M 1078.089407 768.96 
L 1080.217373 768.96 
L 1080.217373 712.582713 
L 1078.089407 712.582713 
z
" style="fill:#1f77b4;"/>
   </g>
   <g id="patch_219">
    <path clip-path="url(#p02d14e554e)" d="M 1082.345339 768.96 
L 1084.473305 768.96 
L 1084.473305 710.736432 
L 1082.345339 710.736432 
z
" style="fill:#1f77b4;"/>
   </g>
   <g id="patch_220">
    <path clip-path="url(#p02d14e554e)" d="M 1086.601271 768.96 
L 1088.729237 768.96 
L 1088.729237 707.39255 
L 1086.601271 707.39255 
z
" style="fill:#1f77b4;"/>
   </g>
   <g id="patch_221">
    <path clip-path="url(#p02d14e554e)" d="M 1090.857203 768.96 
L 1092.985169 768.96 
L 1092.985169 669.077944 
L 1090.857203 669.077944 
z
" style="fill:#1f77b4;"/>
   </g>
   <g id="patch_222">
    <path clip-path="url(#p02d14e554e)" d="M 1095.113136 768.96 
L 1097.241102 768.96 
L 1097.241102 730.696838 
L 1095.113136 730.696838 
z
" style="fill:#1f77b4;"/>
   </g>
   <g id="patch_223">
    <path clip-path="url(#p02d14e554e)" d="M 1099.369068 768.96 
L 1101.497034 768.96 
L 1101.497034 725.420935 
L 1099.369068 725.420935 
z
" style="fill:#1f77b4;"/>
   </g>
   <g id="patch_224">
    <path clip-path="url(#p02d14e554e)" d="M 1103.625 768.96 
L 1105.752966 768.96 
L 1105.752966 727.884548 
L 1103.625 727.884548 
z
" style="fill:#1f77b4;"/>
   </g>
   <g id="patch_225">
    <path clip-path="url(#p02d14e554e)" d="M 1107.880932 768.96 
L 1110.008898 768.96 
L 1110.008898 618.976867 
L 1107.880932 618.976867 
z
" style="fill:#1f77b4;"/>
   </g>
   <g id="patch_226">
    <path clip-path="url(#p02d14e554e)" d="M 1112.136864 768.96 
L 1114.264831 768.96 
L 1114.264831 636.725166 
L 1112.136864 636.725166 
z
" style="fill:#1f77b4;"/>
   </g>
   <g id="patch_227">
    <path clip-path="url(#p02d14e554e)" d="M 1116.392797 768.96 
L 1118.520763 768.96 
L 1118.520763 653.34169 
L 1116.392797 653.34169 
z
" style="fill:#1f77b4;"/>
   </g>
   <g id="patch_228">
    <path clip-path="url(#p02d14e554e)" d="M 1120.648729 768.96 
L 1122.776695 768.96 
L 1122.776695 612.683508 
L 1120.648729 612.683508 
z
" style="fill:#1f77b4;"/>
   </g>
   <g id="patch_229">
    <path clip-path="url(#p02d14e554e)" d="M 1124.904661 768.96 
L 1127.032627 768.96 
L 1127.032627 661.304131 
L 1124.904661 661.304131 
z
" style="fill:#1f77b4;"/>
   </g>
   <g id="patch_230">
    <path clip-path="url(#p02d14e554e)" d="M 1129.160593 768.96 
L 1131.288559 768.96 
L 1131.288559 717.109815 
L 1129.160593 717.109815 
z
" style="fill:#1f77b4;"/>
   </g>
   <g id="patch_231">
    <path clip-path="url(#p02d14e554e)" d="M 1133.416525 768.96 
L 1135.544492 768.96 
L 1135.544492 695.360289 
L 1133.416525 695.360289 
z
" style="fill:#1f77b4;"/>
   </g>
   <g id="patch_232">
    <path clip-path="url(#p02d14e554e)" d="M 1137.672458 768.96 
L 1139.800424 768.96 
L 1139.800424 699.898823 
L 1137.672458 699.898823 
z
" style="fill:#1f77b4;"/>
   </g>
   <g id="patch_233">
    <path clip-path="url(#p02d14e554e)" d="M 1141.92839 768.96 
L 1144.056356 768.96 
L 1144.056356 702.568213 
L 1141.92839 702.568213 
z
" style="fill:#1f77b4;"/>
   </g>
   <g id="patch_234">
    <path clip-path="url(#p02d14e554e)" d="M 1146.184322 768.96 
L 1148.312288 768.96 
L 1148.312288 704.768888 
L 1146.184322 704.768888 
z
" style="fill:#1f77b4;"/>
   </g>
   <g id="patch_235">
    <path clip-path="url(#p02d14e554e)" d="M 1150.440254 768.96 
L 1152.56822 768.96 
L 1152.56822 703.751433 
L 1150.440254 703.751433 
z
" style="fill:#1f77b4;"/>
   </g>
   <g id="patch_236">
    <path clip-path="url(#p02d14e554e)" d="M 1154.696186 768.96 
L 1156.824153 768.96 
L 1156.824153 725.580984 
L 1154.696186 725.580984 
z
" style="fill:#1f77b4;"/>
   </g>
   <g id="patch_237">
    <path clip-path="url(#p02d14e554e)" d="M 1158.952119 768.96 
L 1161.080085 768.96 
L 1161.080085 715.669373 
L 1158.952119 715.669373 
z
" style="fill:#1f77b4;"/>
   </g>
   <g id="patch_238">
    <path clip-path="url(#p02d14e554e)" d="M 1163.208051 768.96 
L 1165.336017 768.96 
L 1165.336017 695.474609 
L 1163.208051 695.474609 
z
" style="fill:#1f77b4;"/>
   </g>
   <g id="matplotlib.axis_1">
    <g id="xtick_1">
     <g id="line2d_1">
      <defs>
       <path d="M 0 0 
L 0 3.5 
" id="me54c492f82" style="stroke:#000000;stroke-width:0.8;"/>
      </defs>
      <g>
       <use style="stroke:#000000;stroke-width:0.8;" x="164.127966" xlink:href="#me54c492f82" y="768.96"/>
      </g>
     </g>
     <g id="text_1">
      <!-- January -->
      <g transform="translate(145.172497 783.558437)scale(0.1 -0.1)">
       <defs>
        <path d="M 628 4666 
L 1259 4666 
L 1259 325 
Q 1259 -519 939 -900 
Q 619 -1281 -91 -1281 
L -331 -1281 
L -331 -750 
L -134 -750 
Q 284 -750 456 -515 
Q 628 -281 628 325 
L 628 4666 
z
" id="DejaVuSans-4a" transform="scale(0.015625)"/>
        <path d="M 2194 1759 
Q 1497 1759 1228 1600 
Q 959 1441 959 1056 
Q 959 750 1161 570 
Q 1363 391 1709 391 
Q 2188 391 2477 730 
Q 2766 1069 2766 1631 
L 2766 1759 
L 2194 1759 
z
M 3341 1997 
L 3341 0 
L 2766 0 
L 2766 531 
Q 2569 213 2275 61 
Q 1981 -91 1556 -91 
Q 1019 -91 701 211 
Q 384 513 384 1019 
Q 384 1609 779 1909 
Q 1175 2209 1959 2209 
L 2766 2209 
L 2766 2266 
Q 2766 2663 2505 2880 
Q 2244 3097 1772 3097 
Q 1472 3097 1187 3025 
Q 903 2953 641 2809 
L 641 3341 
Q 956 3463 1253 3523 
Q 1550 3584 1831 3584 
Q 2591 3584 2966 3190 
Q 3341 2797 3341 1997 
z
" id="DejaVuSans-61" transform="scale(0.015625)"/>
        <path d="M 3513 2113 
L 3513 0 
L 2938 0 
L 2938 2094 
Q 2938 2591 2744 2837 
Q 2550 3084 2163 3084 
Q 1697 3084 1428 2787 
Q 1159 2491 1159 1978 
L 1159 0 
L 581 0 
L 581 3500 
L 1159 3500 
L 1159 2956 
Q 1366 3272 1645 3428 
Q 1925 3584 2291 3584 
Q 2894 3584 3203 3211 
Q 3513 2838 3513 2113 
z
" id="DejaVuSans-6e" transform="scale(0.015625)"/>
        <path d="M 544 1381 
L 544 3500 
L 1119 3500 
L 1119 1403 
Q 1119 906 1312 657 
Q 1506 409 1894 409 
Q 2359 409 2629 706 
Q 2900 1003 2900 1516 
L 2900 3500 
L 3475 3500 
L 3475 0 
L 2900 0 
L 2900 538 
Q 2691 219 2414 64 
Q 2138 -91 1772 -91 
Q 1169 -91 856 284 
Q 544 659 544 1381 
z
M 1991 3584 
L 1991 3584 
z
" id="DejaVuSans-75" transform="scale(0.015625)"/>
        <path d="M 2631 2963 
Q 2534 3019 2420 3045 
Q 2306 3072 2169 3072 
Q 1681 3072 1420 2755 
Q 1159 2438 1159 1844 
L 1159 0 
L 581 0 
L 581 3500 
L 1159 3500 
L 1159 2956 
Q 1341 3275 1631 3429 
Q 1922 3584 2338 3584 
Q 2397 3584 2469 3576 
Q 2541 3569 2628 3553 
L 2631 2963 
z
" id="DejaVuSans-72" transform="scale(0.015625)"/>
        <path d="M 2059 -325 
Q 1816 -950 1584 -1140 
Q 1353 -1331 966 -1331 
L 506 -1331 
L 506 -850 
L 844 -850 
Q 1081 -850 1212 -737 
Q 1344 -625 1503 -206 
L 1606 56 
L 191 3500 
L 800 3500 
L 1894 763 
L 2988 3500 
L 3597 3500 
L 2059 -325 
z
" id="DejaVuSans-79" transform="scale(0.015625)"/>
       </defs>
       <use xlink:href="#DejaVuSans-4a"/>
       <use x="29.492188" xlink:href="#DejaVuSans-61"/>
       <use x="90.771484" xlink:href="#DejaVuSans-6e"/>
       <use x="154.150391" xlink:href="#DejaVuSans-75"/>
       <use x="217.529297" xlink:href="#DejaVuSans-61"/>
       <use x="278.808594" xlink:href="#DejaVuSans-72"/>
       <use x="319.921875" xlink:href="#DejaVuSans-79"/>
      </g>
     </g>
    </g>
    <g id="xtick_2">
     <g id="line2d_2">
      <g>
       <use style="stroke:#000000;stroke-width:0.8;" x="296.061864" xlink:href="#me54c492f82" y="768.96"/>
      </g>
     </g>
     <g id="text_2">
      <!-- February -->
      <g transform="translate(273.907177 783.558437)scale(0.1 -0.1)">
       <defs>
        <path d="M 628 4666 
L 3309 4666 
L 3309 4134 
L 1259 4134 
L 1259 2759 
L 3109 2759 
L 3109 2228 
L 1259 2228 
L 1259 0 
L 628 0 
L 628 4666 
z
" id="DejaVuSans-46" transform="scale(0.015625)"/>
        <path d="M 3597 1894 
L 3597 1613 
L 953 1613 
Q 991 1019 1311 708 
Q 1631 397 2203 397 
Q 2534 397 2845 478 
Q 3156 559 3463 722 
L 3463 178 
Q 3153 47 2828 -22 
Q 2503 -91 2169 -91 
Q 1331 -91 842 396 
Q 353 884 353 1716 
Q 353 2575 817 3079 
Q 1281 3584 2069 3584 
Q 2775 3584 3186 3129 
Q 3597 2675 3597 1894 
z
M 3022 2063 
Q 3016 2534 2758 2815 
Q 2500 3097 2075 3097 
Q 1594 3097 1305 2825 
Q 1016 2553 972 2059 
L 3022 2063 
z
" id="DejaVuSans-65" transform="scale(0.015625)"/>
        <path d="M 3116 1747 
Q 3116 2381 2855 2742 
Q 2594 3103 2138 3103 
Q 1681 3103 1420 2742 
Q 1159 2381 1159 1747 
Q 1159 1113 1420 752 
Q 1681 391 2138 391 
Q 2594 391 2855 752 
Q 3116 1113 3116 1747 
z
M 1159 2969 
Q 1341 3281 1617 3432 
Q 1894 3584 2278 3584 
Q 2916 3584 3314 3078 
Q 3713 2572 3713 1747 
Q 3713 922 3314 415 
Q 2916 -91 2278 -91 
Q 1894 -91 1617 61 
Q 1341 213 1159 525 
L 1159 0 
L 581 0 
L 581 4863 
L 1159 4863 
L 1159 2969 
z
" id="DejaVuSans-62" transform="scale(0.015625)"/>
       </defs>
       <use xlink:href="#DejaVuSans-46"/>
       <use x="52.019531" xlink:href="#DejaVuSans-65"/>
       <use x="113.542969" xlink:href="#DejaVuSans-62"/>
       <use x="177.019531" xlink:href="#DejaVuSans-72"/>
       <use x="218.132812" xlink:href="#DejaVuSans-75"/>
       <use x="281.511719" xlink:href="#DejaVuSans-61"/>
       <use x="342.791016" xlink:href="#DejaVuSans-72"/>
       <use x="383.904297" xlink:href="#DejaVuSans-79"/>
      </g>
     </g>
    </g>
    <g id="xtick_3">
     <g id="line2d_3">
      <g>
       <use style="stroke:#000000;stroke-width:0.8;" x="415.227966" xlink:href="#me54c492f82" y="768.96"/>
      </g>
     </g>
     <g id="text_3">
      <!-- March -->
      <g transform="translate(399.988904 783.558437)scale(0.1 -0.1)">
       <defs>
        <path d="M 628 4666 
L 1569 4666 
L 2759 1491 
L 3956 4666 
L 4897 4666 
L 4897 0 
L 4281 0 
L 4281 4097 
L 3078 897 
L 2444 897 
L 1241 4097 
L 1241 0 
L 628 0 
L 628 4666 
z
" id="DejaVuSans-4d" transform="scale(0.015625)"/>
        <path d="M 3122 3366 
L 3122 2828 
Q 2878 2963 2633 3030 
Q 2388 3097 2138 3097 
Q 1578 3097 1268 2742 
Q 959 2388 959 1747 
Q 959 1106 1268 751 
Q 1578 397 2138 397 
Q 2388 397 2633 464 
Q 2878 531 3122 666 
L 3122 134 
Q 2881 22 2623 -34 
Q 2366 -91 2075 -91 
Q 1284 -91 818 406 
Q 353 903 353 1747 
Q 353 2603 823 3093 
Q 1294 3584 2113 3584 
Q 2378 3584 2631 3529 
Q 2884 3475 3122 3366 
z
" id="DejaVuSans-63" transform="scale(0.015625)"/>
        <path d="M 3513 2113 
L 3513 0 
L 2938 0 
L 2938 2094 
Q 2938 2591 2744 2837 
Q 2550 3084 2163 3084 
Q 1697 3084 1428 2787 
Q 1159 2491 1159 1978 
L 1159 0 
L 581 0 
L 581 4863 
L 1159 4863 
L 1159 2956 
Q 1366 3272 1645 3428 
Q 1925 3584 2291 3584 
Q 2894 3584 3203 3211 
Q 3513 2838 3513 2113 
z
" id="DejaVuSans-68" transform="scale(0.015625)"/>
       </defs>
       <use xlink:href="#DejaVuSans-4d"/>
       <use x="86.279297" xlink:href="#DejaVuSans-61"/>
       <use x="147.558594" xlink:href="#DejaVuSans-72"/>
       <use x="186.421875" xlink:href="#DejaVuSans-63"/>
       <use x="241.402344" xlink:href="#DejaVuSans-68"/>
      </g>
     </g>
    </g>
    <g id="xtick_4">
     <g id="line2d_4">
      <g>
       <use style="stroke:#000000;stroke-width:0.8;" x="547.161864" xlink:href="#me54c492f82" y="768.96"/>
      </g>
     </g>
     <g id="text_4">
      <!-- April -->
      <g transform="translate(535.733739 783.558437)scale(0.1 -0.1)">
       <defs>
        <path d="M 2188 4044 
L 1331 1722 
L 3047 1722 
L 2188 4044 
z
M 1831 4666 
L 2547 4666 
L 4325 0 
L 3669 0 
L 3244 1197 
L 1141 1197 
L 716 0 
L 50 0 
L 1831 4666 
z
" id="DejaVuSans-41" transform="scale(0.015625)"/>
        <path d="M 1159 525 
L 1159 -1331 
L 581 -1331 
L 581 3500 
L 1159 3500 
L 1159 2969 
Q 1341 3281 1617 3432 
Q 1894 3584 2278 3584 
Q 2916 3584 3314 3078 
Q 3713 2572 3713 1747 
Q 3713 922 3314 415 
Q 2916 -91 2278 -91 
Q 1894 -91 1617 61 
Q 1341 213 1159 525 
z
M 3116 1747 
Q 3116 2381 2855 2742 
Q 2594 3103 2138 3103 
Q 1681 3103 1420 2742 
Q 1159 2381 1159 1747 
Q 1159 1113 1420 752 
Q 1681 391 2138 391 
Q 2594 391 2855 752 
Q 3116 1113 3116 1747 
z
" id="DejaVuSans-70" transform="scale(0.015625)"/>
        <path d="M 603 3500 
L 1178 3500 
L 1178 0 
L 603 0 
L 603 3500 
z
M 603 4863 
L 1178 4863 
L 1178 4134 
L 603 4134 
L 603 4863 
z
" id="DejaVuSans-69" transform="scale(0.015625)"/>
        <path d="M 603 4863 
L 1178 4863 
L 1178 0 
L 603 0 
L 603 4863 
z
" id="DejaVuSans-6c" transform="scale(0.015625)"/>
       </defs>
       <use xlink:href="#DejaVuSans-41"/>
       <use x="68.408203" xlink:href="#DejaVuSans-70"/>
       <use x="131.884766" xlink:href="#DejaVuSans-72"/>
       <use x="172.998047" xlink:href="#DejaVuSans-69"/>
       <use x="200.78125" xlink:href="#DejaVuSans-6c"/>
      </g>
     </g>
    </g>
    <g id="xtick_5">
     <g id="line2d_5">
      <g>
       <use style="stroke:#000000;stroke-width:0.8;" x="674.839831" xlink:href="#me54c492f82" y="768.96"/>
      </g>
     </g>
     <g id="text_5">
      <!-- May -->
      <g transform="translate(664.502331 783.558437)scale(0.1 -0.1)">
       <use xlink:href="#DejaVuSans-4d"/>
       <use x="86.279297" xlink:href="#DejaVuSans-61"/>
       <use x="147.558594" xlink:href="#DejaVuSans-79"/>
      </g>
     </g>
    </g>
    <g id="xtick_6">
     <g id="line2d_6">
      <g>
       <use style="stroke:#000000;stroke-width:0.8;" x="806.773729" xlink:href="#me54c492f82" y="768.96"/>
      </g>
     </g>
     <g id="text_6">
      <!-- June -->
      <g transform="translate(795.884666 783.558437)scale(0.1 -0.1)">
       <use xlink:href="#DejaVuSans-4a"/>
       <use x="29.492188" xlink:href="#DejaVuSans-75"/>
       <use x="92.871094" xlink:href="#DejaVuSans-6e"/>
       <use x="156.25" xlink:href="#DejaVuSans-65"/>
      </g>
     </g>
    </g>
    <g id="xtick_7">
     <g id="line2d_7">
      <g>
       <use style="stroke:#000000;stroke-width:0.8;" x="934.451695" xlink:href="#me54c492f82" y="768.96"/>
      </g>
     </g>
     <g id="text_7">
      <!-- July -->
      <g transform="translate(925.459507 783.558437)scale(0.1 -0.1)">
       <use xlink:href="#DejaVuSans-4a"/>
       <use x="29.492188" xlink:href="#DejaVuSans-75"/>
       <use x="92.871094" xlink:href="#DejaVuSans-6c"/>
       <use x="120.654297" xlink:href="#DejaVuSans-79"/>
      </g>
     </g>
    </g>
    <g id="xtick_8">
     <g id="line2d_8">
      <g>
       <use style="stroke:#000000;stroke-width:0.8;" x="1066.385593" xlink:href="#me54c492f82" y="768.96"/>
      </g>
     </g>
     <g id="text_8">
      <!-- August -->
      <g transform="translate(1048.888718 783.558437)scale(0.1 -0.1)">
       <defs>
        <path d="M 2906 1791 
Q 2906 2416 2648 2759 
Q 2391 3103 1925 3103 
Q 1463 3103 1205 2759 
Q 947 2416 947 1791 
Q 947 1169 1205 825 
Q 1463 481 1925 481 
Q 2391 481 2648 825 
Q 2906 1169 2906 1791 
z
M 3481 434 
Q 3481 -459 3084 -895 
Q 2688 -1331 1869 -1331 
Q 1566 -1331 1297 -1286 
Q 1028 -1241 775 -1147 
L 775 -588 
Q 1028 -725 1275 -790 
Q 1522 -856 1778 -856 
Q 2344 -856 2625 -561 
Q 2906 -266 2906 331 
L 2906 616 
Q 2728 306 2450 153 
Q 2172 0 1784 0 
Q 1141 0 747 490 
Q 353 981 353 1791 
Q 353 2603 747 3093 
Q 1141 3584 1784 3584 
Q 2172 3584 2450 3431 
Q 2728 3278 2906 2969 
L 2906 3500 
L 3481 3500 
L 3481 434 
z
" id="DejaVuSans-67" transform="scale(0.015625)"/>
        <path d="M 2834 3397 
L 2834 2853 
Q 2591 2978 2328 3040 
Q 2066 3103 1784 3103 
Q 1356 3103 1142 2972 
Q 928 2841 928 2578 
Q 928 2378 1081 2264 
Q 1234 2150 1697 2047 
L 1894 2003 
Q 2506 1872 2764 1633 
Q 3022 1394 3022 966 
Q 3022 478 2636 193 
Q 2250 -91 1575 -91 
Q 1294 -91 989 -36 
Q 684 19 347 128 
L 347 722 
Q 666 556 975 473 
Q 1284 391 1588 391 
Q 1994 391 2212 530 
Q 2431 669 2431 922 
Q 2431 1156 2273 1281 
Q 2116 1406 1581 1522 
L 1381 1569 
Q 847 1681 609 1914 
Q 372 2147 372 2553 
Q 372 3047 722 3315 
Q 1072 3584 1716 3584 
Q 2034 3584 2315 3537 
Q 2597 3491 2834 3397 
z
" id="DejaVuSans-73" transform="scale(0.015625)"/>
        <path d="M 1172 4494 
L 1172 3500 
L 2356 3500 
L 2356 3053 
L 1172 3053 
L 1172 1153 
Q 1172 725 1289 603 
Q 1406 481 1766 481 
L 2356 481 
L 2356 0 
L 1766 0 
Q 1100 0 847 248 
Q 594 497 594 1153 
L 594 3053 
L 172 3053 
L 172 3500 
L 594 3500 
L 594 4494 
L 1172 4494 
z
" id="DejaVuSans-74" transform="scale(0.015625)"/>
       </defs>
       <use xlink:href="#DejaVuSans-41"/>
       <use x="68.408203" xlink:href="#DejaVuSans-75"/>
       <use x="131.787109" xlink:href="#DejaVuSans-67"/>
       <use x="195.263672" xlink:href="#DejaVuSans-75"/>
       <use x="258.642578" xlink:href="#DejaVuSans-73"/>
       <use x="310.742188" xlink:href="#DejaVuSans-74"/>
      </g>
     </g>
    </g>
   </g>
   <g id="matplotlib.axis_2">
    <g id="ytick_1">
     <g id="line2d_9">
      <defs>
       <path d="M 0 0 
L -3.5 0 
" id="mbc986aebb1" style="stroke:#000000;stroke-width:0.8;"/>
      </defs>
      <g>
       <use style="stroke:#000000;stroke-width:0.8;" x="162" xlink:href="#mbc986aebb1" y="768.96"/>
      </g>
     </g>
     <g id="text_9">
      <!-- 0 -->
      <g transform="translate(148.6375 772.759219)scale(0.1 -0.1)">
       <defs>
        <path d="M 2034 4250 
Q 1547 4250 1301 3770 
Q 1056 3291 1056 2328 
Q 1056 1369 1301 889 
Q 1547 409 2034 409 
Q 2525 409 2770 889 
Q 3016 1369 3016 2328 
Q 3016 3291 2770 3770 
Q 2525 4250 2034 4250 
z
M 2034 4750 
Q 2819 4750 3233 4129 
Q 3647 3509 3647 2328 
Q 3647 1150 3233 529 
Q 2819 -91 2034 -91 
Q 1250 -91 836 529 
Q 422 1150 422 2328 
Q 422 3509 836 4129 
Q 1250 4750 2034 4750 
z
" id="DejaVuSans-30" transform="scale(0.015625)"/>
       </defs>
       <use xlink:href="#DejaVuSans-30"/>
      </g>
     </g>
    </g>
    <g id="ytick_2">
     <g id="line2d_10">
      <g>
       <use style="stroke:#000000;stroke-width:0.8;" x="162" xlink:href="#mbc986aebb1" y="654.639231"/>
      </g>
     </g>
     <g id="text_10">
      <!-- 20000 -->
      <g transform="translate(123.1875 658.438449)scale(0.1 -0.1)">
       <defs>
        <path d="M 1228 531 
L 3431 531 
L 3431 0 
L 469 0 
L 469 531 
Q 828 903 1448 1529 
Q 2069 2156 2228 2338 
Q 2531 2678 2651 2914 
Q 2772 3150 2772 3378 
Q 2772 3750 2511 3984 
Q 2250 4219 1831 4219 
Q 1534 4219 1204 4116 
Q 875 4013 500 3803 
L 500 4441 
Q 881 4594 1212 4672 
Q 1544 4750 1819 4750 
Q 2544 4750 2975 4387 
Q 3406 4025 3406 3419 
Q 3406 3131 3298 2873 
Q 3191 2616 2906 2266 
Q 2828 2175 2409 1742 
Q 1991 1309 1228 531 
z
" id="DejaVuSans-32" transform="scale(0.015625)"/>
       </defs>
       <use xlink:href="#DejaVuSans-32"/>
       <use x="63.623047" xlink:href="#DejaVuSans-30"/>
       <use x="127.246094" xlink:href="#DejaVuSans-30"/>
       <use x="190.869141" xlink:href="#DejaVuSans-30"/>
       <use x="254.492188" xlink:href="#DejaVuSans-30"/>
      </g>
     </g>
    </g>
    <g id="ytick_3">
     <g id="line2d_11">
      <g>
       <use style="stroke:#000000;stroke-width:0.8;" x="162" xlink:href="#mbc986aebb1" y="540.318461"/>
      </g>
     </g>
     <g id="text_11">
      <!-- 40000 -->
      <g transform="translate(123.1875 544.11768)scale(0.1 -0.1)">
       <defs>
        <path d="M 2419 4116 
L 825 1625 
L 2419 1625 
L 2419 4116 
z
M 2253 4666 
L 3047 4666 
L 3047 1625 
L 3713 1625 
L 3713 1100 
L 3047 1100 
L 3047 0 
L 2419 0 
L 2419 1100 
L 313 1100 
L 313 1709 
L 2253 4666 
z
" id="DejaVuSans-34" transform="scale(0.015625)"/>
       </defs>
       <use xlink:href="#DejaVuSans-34"/>
       <use x="63.623047" xlink:href="#DejaVuSans-30"/>
       <use x="127.246094" xlink:href="#DejaVuSans-30"/>
       <use x="190.869141" xlink:href="#DejaVuSans-30"/>
       <use x="254.492188" xlink:href="#DejaVuSans-30"/>
      </g>
     </g>
    </g>
    <g id="ytick_4">
     <g id="line2d_12">
      <g>
       <use style="stroke:#000000;stroke-width:0.8;" x="162" xlink:href="#mbc986aebb1" y="425.997692"/>
      </g>
     </g>
     <g id="text_12">
      <!-- 60000 -->
      <g transform="translate(123.1875 429.796911)scale(0.1 -0.1)">
       <defs>
        <path d="M 2113 2584 
Q 1688 2584 1439 2293 
Q 1191 2003 1191 1497 
Q 1191 994 1439 701 
Q 1688 409 2113 409 
Q 2538 409 2786 701 
Q 3034 994 3034 1497 
Q 3034 2003 2786 2293 
Q 2538 2584 2113 2584 
z
M 3366 4563 
L 3366 3988 
Q 3128 4100 2886 4159 
Q 2644 4219 2406 4219 
Q 1781 4219 1451 3797 
Q 1122 3375 1075 2522 
Q 1259 2794 1537 2939 
Q 1816 3084 2150 3084 
Q 2853 3084 3261 2657 
Q 3669 2231 3669 1497 
Q 3669 778 3244 343 
Q 2819 -91 2113 -91 
Q 1303 -91 875 529 
Q 447 1150 447 2328 
Q 447 3434 972 4092 
Q 1497 4750 2381 4750 
Q 2619 4750 2861 4703 
Q 3103 4656 3366 4563 
z
" id="DejaVuSans-36" transform="scale(0.015625)"/>
       </defs>
       <use xlink:href="#DejaVuSans-36"/>
       <use x="63.623047" xlink:href="#DejaVuSans-30"/>
       <use x="127.246094" xlink:href="#DejaVuSans-30"/>
       <use x="190.869141" xlink:href="#DejaVuSans-30"/>
       <use x="254.492188" xlink:href="#DejaVuSans-30"/>
      </g>
     </g>
    </g>
    <g id="ytick_5">
     <g id="line2d_13">
      <g>
       <use style="stroke:#000000;stroke-width:0.8;" x="162" xlink:href="#mbc986aebb1" y="311.676923"/>
      </g>
     </g>
     <g id="text_13">
      <!-- 80000 -->
      <g transform="translate(123.1875 315.476141)scale(0.1 -0.1)">
       <defs>
        <path d="M 2034 2216 
Q 1584 2216 1326 1975 
Q 1069 1734 1069 1313 
Q 1069 891 1326 650 
Q 1584 409 2034 409 
Q 2484 409 2743 651 
Q 3003 894 3003 1313 
Q 3003 1734 2745 1975 
Q 2488 2216 2034 2216 
z
M 1403 2484 
Q 997 2584 770 2862 
Q 544 3141 544 3541 
Q 544 4100 942 4425 
Q 1341 4750 2034 4750 
Q 2731 4750 3128 4425 
Q 3525 4100 3525 3541 
Q 3525 3141 3298 2862 
Q 3072 2584 2669 2484 
Q 3125 2378 3379 2068 
Q 3634 1759 3634 1313 
Q 3634 634 3220 271 
Q 2806 -91 2034 -91 
Q 1263 -91 848 271 
Q 434 634 434 1313 
Q 434 1759 690 2068 
Q 947 2378 1403 2484 
z
M 1172 3481 
Q 1172 3119 1398 2916 
Q 1625 2713 2034 2713 
Q 2441 2713 2670 2916 
Q 2900 3119 2900 3481 
Q 2900 3844 2670 4047 
Q 2441 4250 2034 4250 
Q 1625 4250 1398 4047 
Q 1172 3844 1172 3481 
z
" id="DejaVuSans-38" transform="scale(0.015625)"/>
       </defs>
       <use xlink:href="#DejaVuSans-38"/>
       <use x="63.623047" xlink:href="#DejaVuSans-30"/>
       <use x="127.246094" xlink:href="#DejaVuSans-30"/>
       <use x="190.869141" xlink:href="#DejaVuSans-30"/>
       <use x="254.492188" xlink:href="#DejaVuSans-30"/>
      </g>
     </g>
    </g>
    <g id="ytick_6">
     <g id="line2d_14">
      <g>
       <use style="stroke:#000000;stroke-width:0.8;" x="162" xlink:href="#mbc986aebb1" y="197.356153"/>
      </g>
     </g>
     <g id="text_14">
      <!-- 100000 -->
      <g transform="translate(116.825 201.155372)scale(0.1 -0.1)">
       <defs>
        <path d="M 794 531 
L 1825 531 
L 1825 4091 
L 703 3866 
L 703 4441 
L 1819 4666 
L 2450 4666 
L 2450 531 
L 3481 531 
L 3481 0 
L 794 0 
L 794 531 
z
" id="DejaVuSans-31" transform="scale(0.015625)"/>
       </defs>
       <use xlink:href="#DejaVuSans-31"/>
       <use x="63.623047" xlink:href="#DejaVuSans-30"/>
       <use x="127.246094" xlink:href="#DejaVuSans-30"/>
       <use x="190.869141" xlink:href="#DejaVuSans-30"/>
       <use x="254.492188" xlink:href="#DejaVuSans-30"/>
       <use x="318.115234" xlink:href="#DejaVuSans-30"/>
      </g>
     </g>
    </g>
    <g id="text_15">
     <!-- Persons fully vaccinated -->
     <g transform="translate(110.745312 496.922344)rotate(-90)scale(0.1 -0.1)">
      <defs>
       <path d="M 1259 4147 
L 1259 2394 
L 2053 2394 
Q 2494 2394 2734 2622 
Q 2975 2850 2975 3272 
Q 2975 3691 2734 3919 
Q 2494 4147 2053 4147 
L 1259 4147 
z
M 628 4666 
L 2053 4666 
Q 2838 4666 3239 4311 
Q 3641 3956 3641 3272 
Q 3641 2581 3239 2228 
Q 2838 1875 2053 1875 
L 1259 1875 
L 1259 0 
L 628 0 
L 628 4666 
z
" id="DejaVuSans-50" transform="scale(0.015625)"/>
       <path d="M 1959 3097 
Q 1497 3097 1228 2736 
Q 959 2375 959 1747 
Q 959 1119 1226 758 
Q 1494 397 1959 397 
Q 2419 397 2687 759 
Q 2956 1122 2956 1747 
Q 2956 2369 2687 2733 
Q 2419 3097 1959 3097 
z
M 1959 3584 
Q 2709 3584 3137 3096 
Q 3566 2609 3566 1747 
Q 3566 888 3137 398 
Q 2709 -91 1959 -91 
Q 1206 -91 779 398 
Q 353 888 353 1747 
Q 353 2609 779 3096 
Q 1206 3584 1959 3584 
z
" id="DejaVuSans-6f" transform="scale(0.015625)"/>
       <path id="DejaVuSans-20" transform="scale(0.015625)"/>
       <path d="M 2375 4863 
L 2375 4384 
L 1825 4384 
Q 1516 4384 1395 4259 
Q 1275 4134 1275 3809 
L 1275 3500 
L 2222 3500 
L 2222 3053 
L 1275 3053 
L 1275 0 
L 697 0 
L 697 3053 
L 147 3053 
L 147 3500 
L 697 3500 
L 697 3744 
Q 697 4328 969 4595 
Q 1241 4863 1831 4863 
L 2375 4863 
z
" id="DejaVuSans-66" transform="scale(0.015625)"/>
       <path d="M 191 3500 
L 800 3500 
L 1894 563 
L 2988 3500 
L 3597 3500 
L 2284 0 
L 1503 0 
L 191 3500 
z
" id="DejaVuSans-76" transform="scale(0.015625)"/>
       <path d="M 2906 2969 
L 2906 4863 
L 3481 4863 
L 3481 0 
L 2906 0 
L 2906 525 
Q 2725 213 2448 61 
Q 2172 -91 1784 -91 
Q 1150 -91 751 415 
Q 353 922 353 1747 
Q 353 2572 751 3078 
Q 1150 3584 1784 3584 
Q 2172 3584 2448 3432 
Q 2725 3281 2906 2969 
z
M 947 1747 
Q 947 1113 1208 752 
Q 1469 391 1925 391 
Q 2381 391 2643 752 
Q 2906 1113 2906 1747 
Q 2906 2381 2643 2742 
Q 2381 3103 1925 3103 
Q 1469 3103 1208 2742 
Q 947 2381 947 1747 
z
" id="DejaVuSans-64" transform="scale(0.015625)"/>
      </defs>
      <use xlink:href="#DejaVuSans-50"/>
      <use x="56.677734" xlink:href="#DejaVuSans-65"/>
      <use x="118.201172" xlink:href="#DejaVuSans-72"/>
      <use x="159.314453" xlink:href="#DejaVuSans-73"/>
      <use x="211.414062" xlink:href="#DejaVuSans-6f"/>
      <use x="272.595703" xlink:href="#DejaVuSans-6e"/>
      <use x="335.974609" xlink:href="#DejaVuSans-73"/>
      <use x="388.074219" xlink:href="#DejaVuSans-20"/>
      <use x="419.861328" xlink:href="#DejaVuSans-66"/>
      <use x="455.066406" xlink:href="#DejaVuSans-75"/>
      <use x="518.445312" xlink:href="#DejaVuSans-6c"/>
      <use x="546.228516" xlink:href="#DejaVuSans-6c"/>
      <use x="574.011719" xlink:href="#DejaVuSans-79"/>
      <use x="633.191406" xlink:href="#DejaVuSans-20"/>
      <use x="664.978516" xlink:href="#DejaVuSans-76"/>
      <use x="724.158203" xlink:href="#DejaVuSans-61"/>
      <use x="785.4375" xlink:href="#DejaVuSans-63"/>
      <use x="840.417969" xlink:href="#DejaVuSans-63"/>
      <use x="895.398438" xlink:href="#DejaVuSans-69"/>
      <use x="923.181641" xlink:href="#DejaVuSans-6e"/>
      <use x="986.560547" xlink:href="#DejaVuSans-61"/>
      <use x="1047.839844" xlink:href="#DejaVuSans-74"/>
      <use x="1087.048828" xlink:href="#DejaVuSans-65"/>
      <use x="1148.572266" xlink:href="#DejaVuSans-64"/>
     </g>
    </g>
   </g>
   <g id="line2d_15">
    <path clip-path="url(#p02d14e554e)" d="M 236.478814 744.736246 
L 240.734746 744.588445 
L 244.990678 745.869654 
L 249.24661 742.547003 
L 253.502542 741.773704 
L 257.758475 739.798405 
L 262.014407 735.682041 
L 266.270339 727.798807 
L 270.526271 719.410929 
L 274.782203 713.280069 
L 279.038136 706.71969 
L 283.294068 702.369785 
L 287.55 701.38336 
L 291.805932 701.253524 
L 296.061864 698.673958 
L 300.317797 703.677125 
L 304.573729 703.370092 
L 308.829661 703.86902 
L 313.085593 700.516972 
L 317.341525 700.760312 
L 321.597458 696.811346 
L 325.85339 697.59281 
L 330.109322 691.894736 
L 334.365254 682.161956 
L 338.621186 673.075088 
L 342.877119 670.182772 
L 347.133051 666.672308 
L 351.388983 670.579629 
L 355.644915 670.859715 
L 359.900847 665.634439 
L 364.15678 660.681083 
L 368.412712 654.395074 
L 372.668644 661.657709 
L 376.924576 648.662704 
L 381.180508 640.129475 
L 385.436441 630.879292 
L 389.692373 609.248986 
L 393.948305 593.789551 
L 398.204237 581.224066 
L 402.460169 551.753805 
L 406.716102 554.531799 
L 410.972034 544.684698 
L 415.227966 534.372965 
L 419.483898 539.651318 
L 423.739831 528.104104 
L 427.995763 514.080212 
L 432.251695 507.247912 
L 436.507627 511.297317 
L 440.763559 501.96221 
L 445.019492 490.969451 
L 449.275424 480.830832 
L 453.531356 484.139602 
L 457.787288 478.083051 
L 462.04322 481.85237 
L 466.299153 456.511538 
L 470.555085 457.373027 
L 474.811017 463.512869 
L 479.066949 478.075702 
L 483.322881 491.964859 
L 487.578814 511.223825 
L 491.834746 524.094711 
L 496.090678 548.769216 
L 500.34661 560.954177 
L 504.602542 572.750447 
L 508.858475 579.389217 
L 513.114407 583.247543 
L 517.370339 579.872631 
L 521.626271 567.044207 
L 525.882203 565.584168 
L 530.138136 563.983677 
L 534.394068 548.308666 
L 538.65 539.710928 
L 542.905932 525.131764 
L 547.161864 518.500342 
L 551.417797 517.2175 
L 555.673729 521.40409 
L 559.929661 507.608023 
L 564.185593 491.64966 
L 568.441525 463.336488 
L 572.697458 436.685867 
L 576.95339 395.934596 
L 581.209322 372.922642 
L 585.465254 353.348476 
L 589.721186 339.310702 
L 593.977119 334.420223 
L 598.233051 344.696027 
L 602.488983 347.954986 
L 606.744915 366.979595 
L 611.000847 378.000117 
L 615.25678 379.256012 
L 619.512712 388.534776 
L 623.768644 383.329915 
L 628.024576 376.384928 
L 632.280508 384.728711 
L 636.536441 396.361666 
L 640.792373 406.678298 
L 645.048305 418.288389 
L 649.304237 422.850604 
L 653.560169 437.877253 
L 657.816102 442.996374 
L 662.072034 453.363634 
L 666.327966 467.897887 
L 670.583898 487.612504 
L 674.839831 498.026309 
L 679.095763 512.981099 
L 683.351695 507.203817 
L 687.607627 505.235867 
L 691.863559 515.718265 
L 696.119492 497.321603 
L 700.375424 474.549723 
L 704.631356 442.830609 
L 708.887288 432.02403 
L 713.14322 446.03649 
L 717.399153 463.16909 
L 721.655085 464.663426 
L 725.911017 468.543799 
L 730.166949 478.490523 
L 734.422881 503.32916 
L 738.678814 512.912507 
L 742.934746 513.867902 
L 747.190678 515.421031 
L 751.44661 502.403978 
L 755.702542 526.889854 
L 759.958475 532.05307 
L 764.214407 532.890061 
L 768.470339 534.679181 
L 772.726271 551.915487 
L 776.982203 563.884871 
L 781.238136 590.470166 
L 785.494068 600.227444 
L 789.75 611.21367 
L 794.005932 614.585316 
L 798.261864 628.622273 
L 802.517797 638.965853 
L 806.773729 648.870931 
L 811.029661 649.952896 
L 815.285593 645.39558 
L 823.797458 626.524487 
L 828.05339 607.649312 
L 832.309322 595.213662 
L 836.565254 578.449337 
L 840.821186 582.318279 
L 845.077119 591.038504 
L 849.333051 605.104858 
L 853.588983 611.258582 
L 857.844915 597.630729 
L 862.100847 596.182938 
L 866.35678 609.288998 
L 870.612712 605.608686 
L 874.868644 614.283999 
L 879.124576 607.479464 
L 883.380508 612.080058 
L 887.636441 641.579716 
L 891.892373 658.498373 
L 896.148305 663.379053 
L 900.404237 671.405188 
L 908.916102 614.288899 
L 913.172034 618.492637 
L 917.427966 618.201119 
L 921.683898 617.711989 
L 925.939831 620.400977 
L 930.195763 627.656263 
L 934.451695 657.923503 
L 938.707627 697.453175 
L 942.963559 697.656503 
L 947.219492 707.574646 
L 951.475424 714.068066 
L 955.731356 715.077355 
L 959.987288 714.716428 
L 964.24322 715.837588 
L 968.499153 715.660391 
L 972.755085 713.862289 
L 977.011017 703.659977 
L 981.266949 701.166151 
L 985.522881 704.110727 
L 989.778814 707.194938 
L 994.034746 708.699889 
L 998.290678 710.083171 
L 1002.54661 711.007536 
L 1006.802542 714.58006 
L 1011.058475 713.859022 
L 1015.314407 713.391124 
L 1023.826271 717.263332 
L 1028.082203 720.308347 
L 1032.338136 722.817688 
L 1036.594068 726.136256 
L 1040.85 726.724192 
L 1045.105932 720.292832 
L 1049.361864 718.894852 
L 1053.617797 707.945372 
L 1057.873729 705.758579 
L 1062.129661 703.415003 
L 1066.385593 700.939142 
L 1070.641525 701.407857 
L 1074.897458 708.870554 
L 1079.15339 708.56842 
L 1083.409322 717.443795 
L 1087.665254 709.567094 
L 1091.921186 708.880353 
L 1096.177119 709.129409 
L 1100.433051 711.97028 
L 1104.688983 698.598016 
L 1108.944915 688.024978 
L 1113.200847 680.303427 
L 1117.45678 672.247079 
L 1121.712712 662.333835 
L 1125.968644 661.146532 
L 1130.224576 656.500209 
L 1134.480508 668.060489 
L 1138.736441 677.466639 
L 1142.992373 684.813381 
L 1147.248305 697.823085 
L 1151.504237 707.005492 
L 1155.760169 706.799715 
L 1160.016102 706.816046 
L 1160.016102 706.816046 
" style="fill:none;stroke:#ffa500;stroke-linecap:square;stroke-width:1.5;"/>
   </g>
   <g id="patch_239">
    <path d="M 162 768.96 
L 162 103.68 
" style="fill:none;stroke:#000000;stroke-linecap:square;stroke-linejoin:miter;stroke-width:0.8;"/>
   </g>
   <g id="patch_240">
    <path d="M 1166.4 768.96 
L 1166.4 103.68 
" style="fill:none;stroke:#000000;stroke-linecap:square;stroke-linejoin:miter;stroke-width:0.8;"/>
   </g>
   <g id="patch_241">
    <path d="M 162 768.96 
L 1166.4 768.96 
" style="fill:none;stroke:#000000;stroke-linecap:square;stroke-linejoin:miter;stroke-width:0.8;"/>
   </g>
   <g id="patch_242">
    <path d="M 162 103.68 
L 1166.4 103.68 
" style="fill:none;stroke:#000000;stroke-linecap:square;stroke-linejoin:miter;stroke-width:0.8;"/>
   </g>
   <g id="text_16">
    <!-- Persons Fully Vaccinated -->
    <g transform="translate(590.380313 97.68)scale(0.12 -0.12)">
     <defs>
      <path d="M 1831 0 
L 50 4666 
L 709 4666 
L 2188 738 
L 3669 4666 
L 4325 4666 
L 2547 0 
L 1831 0 
z
" id="DejaVuSans-56" transform="scale(0.015625)"/>
     </defs>
     <use xlink:href="#DejaVuSans-50"/>
     <use x="56.677734" xlink:href="#DejaVuSans-65"/>
     <use x="118.201172" xlink:href="#DejaVuSans-72"/>
     <use x="159.314453" xlink:href="#DejaVuSans-73"/>
     <use x="211.414062" xlink:href="#DejaVuSans-6f"/>
     <use x="272.595703" xlink:href="#DejaVuSans-6e"/>
     <use x="335.974609" xlink:href="#DejaVuSans-73"/>
     <use x="388.074219" xlink:href="#DejaVuSans-20"/>
     <use x="419.861328" xlink:href="#DejaVuSans-46"/>
     <use x="471.880859" xlink:href="#DejaVuSans-75"/>
     <use x="535.259766" xlink:href="#DejaVuSans-6c"/>
     <use x="563.042969" xlink:href="#DejaVuSans-6c"/>
     <use x="590.826172" xlink:href="#DejaVuSans-79"/>
     <use x="650.005859" xlink:href="#DejaVuSans-20"/>
     <use x="681.792969" xlink:href="#DejaVuSans-56"/>
     <use x="742.451172" xlink:href="#DejaVuSans-61"/>
     <use x="803.730469" xlink:href="#DejaVuSans-63"/>
     <use x="858.710938" xlink:href="#DejaVuSans-63"/>
     <use x="913.691406" xlink:href="#DejaVuSans-69"/>
     <use x="941.474609" xlink:href="#DejaVuSans-6e"/>
     <use x="1004.853516" xlink:href="#DejaVuSans-61"/>
     <use x="1066.132812" xlink:href="#DejaVuSans-74"/>
     <use x="1105.341797" xlink:href="#DejaVuSans-65"/>
     <use x="1166.865234" xlink:href="#DejaVuSans-64"/>
    </g>
   </g>
  </g>
 </g>
 <defs>
  <clipPath id="p02d14e554e">
   <rect height="665.28" width="1004.4" x="162" y="103.68"/>
  </clipPath>
 </defs>
</svg>
