<?xml version="1.0" encoding="utf-8" standalone="no"?>
<!DOCTYPE svg PUBLIC "-//W3C//DTD SVG 1.1//EN"
  "http://www.w3.org/Graphics/SVG/1.1/DTD/svg11.dtd">
<svg height="864pt" version="1.1" viewBox="0 0 1296 864" width="1296pt" xmlns="http://www.w3.org/2000/svg" xmlns:xlink="http://www.w3.org/1999/xlink">
 <metadata>
  <rdf:RDF xmlns:cc="http://creativecommons.org/ns#" xmlns:dc="http://purl.org/dc/elements/1.1/" xmlns:rdf="http://www.w3.org/1999/02/22-rdf-syntax-ns#">
   <cc:Work>
    <dc:type rdf:resource="http://purl.org/dc/dcmitype/StillImage"/>
    <dc:date>2021-09-02T14:18:13.125724</dc:date>
    <dc:format>image/svg+xml</dc:format>
    <dc:creator>
     <cc:Agent>
      <dc:title>Matplotlib v3.4.2, https://matplotlib.org/</dc:title>
     </cc:Agent>
    </dc:creator>
   </cc:Work>
  </rdf:RDF>
 </metadata>
 <defs>
  <style type="text/css">*{stroke-linecap:butt;stroke-linejoin:round;}</style>
 </defs>
 <g id="figure_1">
  <g id="patch_1">
   <path d="M 0 864 
L 1296 864 
L 1296 0 
L 0 0 
z
" style="fill:#ffffff;"/>
  </g>
  <g id="axes_1">
   <g id="patch_2">
    <path d="M 162 768.96 
L 1166.4 768.96 
L 1166.4 103.68 
L 162 103.68 
z
" style="fill:#ffffff;"/>
   </g>
   <g id="patch_3">
    <path clip-path="url(#p94b4433754)" d="M 163.033333 768.96 
L 165.1 768.96 
L 165.1 768.96 
L 163.033333 768.96 
z
" style="fill:#1f77b4;"/>
   </g>
   <g id="patch_4">
    <path clip-path="url(#p94b4433754)" d="M 167.166667 768.96 
L 169.233333 768.96 
L 169.233333 768.96 
L 167.166667 768.96 
z
" style="fill:#1f77b4;"/>
   </g>
   <g id="patch_5">
    <path clip-path="url(#p94b4433754)" d="M 171.3 768.96 
L 173.366667 768.96 
L 173.366667 768.96 
L 171.3 768.96 
z
" style="fill:#1f77b4;"/>
   </g>
   <g id="patch_6">
    <path clip-path="url(#p94b4433754)" d="M 175.433333 768.96 
L 177.5 768.96 
L 177.5 768.242235 
L 175.433333 768.242235 
z
" style="fill:#1f77b4;"/>
   </g>
   <g id="patch_7">
    <path clip-path="url(#p94b4433754)" d="M 179.566667 768.96 
L 181.633333 768.96 
L 181.633333 767.010946 
L 179.566667 767.010946 
z
" style="fill:#1f77b4;"/>
   </g>
   <g id="patch_8">
    <path clip-path="url(#p94b4433754)" d="M 183.7 768.96 
L 185.766667 768.96 
L 185.766667 754.867292 
L 183.7 754.867292 
z
" style="fill:#1f77b4;"/>
   </g>
   <g id="patch_9">
    <path clip-path="url(#p94b4433754)" d="M 187.833333 768.96 
L 189.9 768.96 
L 189.9 667.171548 
L 187.833333 667.171548 
z
" style="fill:#1f77b4;"/>
   </g>
   <g id="patch_10">
    <path clip-path="url(#p94b4433754)" d="M 191.966667 768.96 
L 194.033333 768.96 
L 194.033333 646.192961 
L 191.966667 646.192961 
z
" style="fill:#1f77b4;"/>
   </g>
   <g id="patch_11">
    <path clip-path="url(#p94b4433754)" d="M 196.1 768.96 
L 198.166667 768.96 
L 198.166667 701.986081 
L 196.1 701.986081 
z
" style="fill:#1f77b4;"/>
   </g>
   <g id="patch_12">
    <path clip-path="url(#p94b4433754)" d="M 200.233333 768.96 
L 202.3 768.96 
L 202.3 728.368331 
L 200.233333 728.368331 
z
" style="fill:#1f77b4;"/>
   </g>
   <g id="patch_13">
    <path clip-path="url(#p94b4433754)" d="M 204.366667 768.96 
L 206.433333 768.96 
L 206.433333 705.48154 
L 204.366667 705.48154 
z
" style="fill:#1f77b4;"/>
   </g>
   <g id="patch_14">
    <path clip-path="url(#p94b4433754)" d="M 208.5 768.96 
L 210.566667 768.96 
L 210.566667 708.749414 
L 208.5 708.749414 
z
" style="fill:#1f77b4;"/>
   </g>
   <g id="patch_15">
    <path clip-path="url(#p94b4433754)" d="M 212.633333 768.96 
L 214.7 768.96 
L 214.7 719.702629 
L 212.633333 719.702629 
z
" style="fill:#1f77b4;"/>
   </g>
   <g id="patch_16">
    <path clip-path="url(#p94b4433754)" d="M 216.766667 768.96 
L 218.833333 768.96 
L 218.833333 709.047024 
L 216.766667 709.047024 
z
" style="fill:#1f77b4;"/>
   </g>
   <g id="patch_17">
    <path clip-path="url(#p94b4433754)" d="M 220.9 768.96 
L 222.966667 768.96 
L 222.966667 756.711306 
L 220.9 756.711306 
z
" style="fill:#1f77b4;"/>
   </g>
   <g id="patch_18">
    <path clip-path="url(#p94b4433754)" d="M 225.033333 768.96 
L 227.1 768.96 
L 227.1 761.333015 
L 225.033333 761.333015 
z
" style="fill:#1f77b4;"/>
   </g>
   <g id="patch_19">
    <path clip-path="url(#p94b4433754)" d="M 229.166667 768.96 
L 231.233333 768.96 
L 231.233333 765.32449 
L 229.166667 765.32449 
z
" style="fill:#1f77b4;"/>
   </g>
   <g id="patch_20">
    <path clip-path="url(#p94b4433754)" d="M 233.3 768.96 
L 235.366667 768.96 
L 235.366667 752.142118 
L 233.3 752.142118 
z
" style="fill:#1f77b4;"/>
   </g>
   <g id="patch_21">
    <path clip-path="url(#p94b4433754)" d="M 237.433333 768.96 
L 239.5 768.96 
L 239.5 741.86582 
L 237.433333 741.86582 
z
" style="fill:#1f77b4;"/>
   </g>
   <g id="patch_22">
    <path clip-path="url(#p94b4433754)" d="M 241.566667 768.96 
L 243.633333 768.96 
L 243.633333 718.062856 
L 241.566667 718.062856 
z
" style="fill:#1f77b4;"/>
   </g>
   <g id="patch_23">
    <path clip-path="url(#p94b4433754)" d="M 245.7 768.96 
L 247.766667 768.96 
L 247.766667 717.701056 
L 245.7 717.701056 
z
" style="fill:#1f77b4;"/>
   </g>
   <g id="patch_24">
    <path clip-path="url(#p94b4433754)" d="M 249.833333 768.96 
L 251.9 768.96 
L 251.9 732.073868 
L 249.833333 732.073868 
z
" style="fill:#1f77b4;"/>
   </g>
   <g id="patch_25">
    <path clip-path="url(#p94b4433754)" d="M 253.966667 768.96 
L 256.033333 768.96 
L 256.033333 755.071534 
L 253.966667 755.071534 
z
" style="fill:#1f77b4;"/>
   </g>
   <g id="patch_26">
    <path clip-path="url(#p94b4433754)" d="M 258.1 768.96 
L 260.166667 768.96 
L 260.166667 750.519852 
L 258.1 750.519852 
z
" style="fill:#1f77b4;"/>
   </g>
   <g id="patch_27">
    <path clip-path="url(#p94b4433754)" d="M 262.233333 768.96 
L 264.3 768.96 
L 264.3 721.155666 
L 262.233333 721.155666 
z
" style="fill:#1f77b4;"/>
   </g>
   <g id="patch_28">
    <path clip-path="url(#p94b4433754)" d="M 266.366667 768.96 
L 268.433333 768.96 
L 268.433333 685.419125 
L 266.366667 685.419125 
z
" style="fill:#1f77b4;"/>
   </g>
   <g id="patch_29">
    <path clip-path="url(#p94b4433754)" d="M 270.5 768.96 
L 272.566667 768.96 
L 272.566667 657.770573 
L 270.5 657.770573 
z
" style="fill:#1f77b4;"/>
   </g>
   <g id="patch_30">
    <path clip-path="url(#p94b4433754)" d="M 274.633333 768.96 
L 276.7 768.96 
L 276.7 672.995367 
L 274.633333 672.995367 
z
" style="fill:#1f77b4;"/>
   </g>
   <g id="patch_31">
    <path clip-path="url(#p94b4433754)" d="M 278.766667 768.96 
L 280.833333 768.96 
L 280.833333 684.928944 
L 278.766667 684.928944 
z
" style="fill:#1f77b4;"/>
   </g>
   <g id="patch_32">
    <path clip-path="url(#p94b4433754)" d="M 282.9 768.96 
L 284.966667 768.96 
L 284.966667 723.093048 
L 282.9 723.093048 
z
" style="fill:#1f77b4;"/>
   </g>
   <g id="patch_33">
    <path clip-path="url(#p94b4433754)" d="M 287.033333 768.96 
L 289.1 768.96 
L 289.1 743.143792 
L 287.033333 743.143792 
z
" style="fill:#1f77b4;"/>
   </g>
   <g id="patch_34">
    <path clip-path="url(#p94b4433754)" d="M 291.166667 768.96 
L 293.233333 768.96 
L 293.233333 721.476618 
L 291.166667 721.476618 
z
" style="fill:#1f77b4;"/>
   </g>
   <g id="patch_35">
    <path clip-path="url(#p94b4433754)" d="M 295.3 768.96 
L 297.366667 768.96 
L 297.366667 667.795945 
L 295.3 667.795945 
z
" style="fill:#1f77b4;"/>
   </g>
   <g id="patch_36">
    <path clip-path="url(#p94b4433754)" d="M 299.433333 768.96 
L 301.5 768.96 
L 301.5 693.752205 
L 299.433333 693.752205 
z
" style="fill:#1f77b4;"/>
   </g>
   <g id="patch_37">
    <path clip-path="url(#p94b4433754)" d="M 303.566667 768.96 
L 305.633333 768.96 
L 305.633333 671.600684 
L 303.566667 671.600684 
z
" style="fill:#1f77b4;"/>
   </g>
   <g id="patch_38">
    <path clip-path="url(#p94b4433754)" d="M 307.7 768.96 
L 309.766667 768.96 
L 309.766667 688.780367 
L 307.7 688.780367 
z
" style="fill:#1f77b4;"/>
   </g>
   <g id="patch_39">
    <path clip-path="url(#p94b4433754)" d="M 311.833333 768.96 
L 313.9 768.96 
L 313.9 700.357979 
L 311.833333 700.357979 
z
" style="fill:#1f77b4;"/>
   </g>
   <g id="patch_40">
    <path clip-path="url(#p94b4433754)" d="M 315.966667 768.96 
L 318.033333 768.96 
L 318.033333 745.763927 
L 315.966667 745.763927 
z
" style="fill:#1f77b4;"/>
   </g>
   <g id="patch_41">
    <path clip-path="url(#p94b4433754)" d="M 320.1 768.96 
L 322.166667 768.96 
L 322.166667 692.445055 
L 320.1 692.445055 
z
" style="fill:#1f77b4;"/>
   </g>
   <g id="patch_42">
    <path clip-path="url(#p94b4433754)" d="M 324.233333 768.96 
L 326.3 768.96 
L 326.3 673.03038 
L 324.233333 673.03038 
z
" style="fill:#1f77b4;"/>
   </g>
   <g id="patch_43">
    <path clip-path="url(#p94b4433754)" d="M 328.366667 768.96 
L 330.433333 768.96 
L 330.433333 652.769558 
L 328.366667 652.769558 
z
" style="fill:#1f77b4;"/>
   </g>
   <g id="patch_44">
    <path clip-path="url(#p94b4433754)" d="M 332.5 768.96 
L 334.566667 768.96 
L 334.566667 602.444292 
L 332.5 602.444292 
z
" style="fill:#1f77b4;"/>
   </g>
   <g id="patch_45">
    <path clip-path="url(#p94b4433754)" d="M 336.633333 768.96 
L 338.7 768.96 
L 338.7 624.665838 
L 336.633333 624.665838 
z
" style="fill:#1f77b4;"/>
   </g>
   <g id="patch_46">
    <path clip-path="url(#p94b4433754)" d="M 340.766667 768.96 
L 342.833333 768.96 
L 342.833333 679.274354 
L 340.766667 679.274354 
z
" style="fill:#1f77b4;"/>
   </g>
   <g id="patch_47">
    <path clip-path="url(#p94b4433754)" d="M 344.9 768.96 
L 346.966667 768.96 
L 346.966667 720.542939 
L 344.9 720.542939 
z
" style="fill:#1f77b4;"/>
   </g>
   <g id="patch_48">
    <path clip-path="url(#p94b4433754)" d="M 349.033333 768.96 
L 351.1 768.96 
L 351.1 721.108982 
L 349.033333 721.108982 
z
" style="fill:#1f77b4;"/>
   </g>
   <g id="patch_49">
    <path clip-path="url(#p94b4433754)" d="M 353.166667 768.96 
L 355.233333 768.96 
L 355.233333 679.268518 
L 353.166667 679.268518 
z
" style="fill:#1f77b4;"/>
   </g>
   <g id="patch_50">
    <path clip-path="url(#p94b4433754)" d="M 357.3 768.96 
L 359.366667 768.96 
L 359.366667 619.098781 
L 357.3 619.098781 
z
" style="fill:#1f77b4;"/>
   </g>
   <g id="patch_51">
    <path clip-path="url(#p94b4433754)" d="M 361.433333 768.96 
L 363.5 768.96 
L 363.5 575.495999 
L 361.433333 575.495999 
z
" style="fill:#1f77b4;"/>
   </g>
   <g id="patch_52">
    <path clip-path="url(#p94b4433754)" d="M 365.566667 768.96 
L 367.633333 768.96 
L 367.633333 583.589824 
L 365.566667 583.589824 
z
" style="fill:#1f77b4;"/>
   </g>
   <g id="patch_53">
    <path clip-path="url(#p94b4433754)" d="M 369.7 768.96 
L 371.766667 768.96 
L 371.766667 740.453631 
L 369.7 740.453631 
z
" style="fill:#1f77b4;"/>
   </g>
   <g id="patch_54">
    <path clip-path="url(#p94b4433754)" d="M 373.833333 768.96 
L 375.9 768.96 
L 375.9 631.545881 
L 373.833333 631.545881 
z
" style="fill:#1f77b4;"/>
   </g>
   <g id="patch_55">
    <path clip-path="url(#p94b4433754)" d="M 377.966667 768.96 
L 380.033333 768.96 
L 380.033333 662.19971 
L 377.966667 662.19971 
z
" style="fill:#1f77b4;"/>
   </g>
   <g id="patch_56">
    <path clip-path="url(#p94b4433754)" d="M 382.1 768.96 
L 384.166667 768.96 
L 384.166667 610.106291 
L 382.1 610.106291 
z
" style="fill:#1f77b4;"/>
   </g>
   <g id="patch_57">
    <path clip-path="url(#p94b4433754)" d="M 386.233333 768.96 
L 388.3 768.96 
L 388.3 462.637622 
L 386.233333 462.637622 
z
" style="fill:#1f77b4;"/>
   </g>
   <g id="patch_58">
    <path clip-path="url(#p94b4433754)" d="M 390.366667 768.96 
L 392.433333 768.96 
L 392.433333 458.605299 
L 390.366667 458.605299 
z
" style="fill:#1f77b4;"/>
   </g>
   <g id="patch_59">
    <path clip-path="url(#p94b4433754)" d="M 394.5 768.96 
L 396.566667 768.96 
L 396.566667 495.946599 
L 394.5 495.946599 
z
" style="fill:#1f77b4;"/>
   </g>
   <g id="patch_60">
    <path clip-path="url(#p94b4433754)" d="M 398.633333 768.96 
L 400.7 768.96 
L 400.7 529.401464 
L 398.633333 529.401464 
z
" style="fill:#1f77b4;"/>
   </g>
   <g id="patch_61">
    <path clip-path="url(#p94b4433754)" d="M 402.766667 768.96 
L 404.833333 768.96 
L 404.833333 653.639046 
L 402.766667 653.639046 
z
" style="fill:#1f77b4;"/>
   </g>
   <g id="patch_62">
    <path clip-path="url(#p94b4433754)" d="M 406.9 768.96 
L 408.966667 768.96 
L 408.966667 596.322863 
L 406.9 596.322863 
z
" style="fill:#1f77b4;"/>
   </g>
   <g id="patch_63">
    <path clip-path="url(#p94b4433754)" d="M 411.033333 768.96 
L 413.1 768.96 
L 413.1 539.170074 
L 411.033333 539.170074 
z
" style="fill:#1f77b4;"/>
   </g>
   <g id="patch_64">
    <path clip-path="url(#p94b4433754)" d="M 415.166667 768.96 
L 417.233333 768.96 
L 417.233333 503.159265 
L 415.166667 503.159265 
z
" style="fill:#1f77b4;"/>
   </g>
   <g id="patch_65">
    <path clip-path="url(#p94b4433754)" d="M 419.3 768.96 
L 421.366667 768.96 
L 421.366667 379.137596 
L 419.3 379.137596 
z
" style="fill:#1f77b4;"/>
   </g>
   <g id="patch_66">
    <path clip-path="url(#p94b4433754)" d="M 423.433333 768.96 
L 425.5 768.96 
L 425.5 396.148049 
L 423.433333 396.148049 
z
" style="fill:#1f77b4;"/>
   </g>
   <g id="patch_67">
    <path clip-path="url(#p94b4433754)" d="M 427.566667 768.96 
L 429.633333 768.96 
L 429.633333 490.437897 
L 427.566667 490.437897 
z
" style="fill:#1f77b4;"/>
   </g>
   <g id="patch_68">
    <path clip-path="url(#p94b4433754)" d="M 431.7 768.96 
L 433.766667 768.96 
L 433.766667 681.392637 
L 431.7 681.392637 
z
" style="fill:#1f77b4;"/>
   </g>
   <g id="patch_69">
    <path clip-path="url(#p94b4433754)" d="M 435.833333 768.96 
L 437.9 768.96 
L 437.9 527.586626 
L 435.833333 527.586626 
z
" style="fill:#1f77b4;"/>
   </g>
   <g id="patch_70">
    <path clip-path="url(#p94b4433754)" d="M 439.966667 768.96 
L 442.033333 768.96 
L 442.033333 459.311393 
L 439.966667 459.311393 
z
" style="fill:#1f77b4;"/>
   </g>
   <g id="patch_71">
    <path clip-path="url(#p94b4433754)" d="M 444.1 768.96 
L 446.166667 768.96 
L 446.166667 428.861806 
L 444.1 428.861806 
z
" style="fill:#1f77b4;"/>
   </g>
   <g id="patch_72">
    <path clip-path="url(#p94b4433754)" d="M 448.233333 768.96 
L 450.3 768.96 
L 450.3 403.255676 
L 448.233333 403.255676 
z
" style="fill:#1f77b4;"/>
   </g>
   <g id="patch_73">
    <path clip-path="url(#p94b4433754)" d="M 452.366667 768.96 
L 454.433333 768.96 
L 454.433333 349.376597 
L 452.366667 349.376597 
z
" style="fill:#1f77b4;"/>
   </g>
   <g id="patch_74">
    <path clip-path="url(#p94b4433754)" d="M 456.5 768.96 
L 458.566667 768.96 
L 458.566667 501.309415 
L 456.5 501.309415 
z
" style="fill:#1f77b4;"/>
   </g>
   <g id="patch_75">
    <path clip-path="url(#p94b4433754)" d="M 460.633333 768.96 
L 462.7 768.96 
L 462.7 498.035705 
L 460.633333 498.035705 
z
" style="fill:#1f77b4;"/>
   </g>
   <g id="patch_76">
    <path clip-path="url(#p94b4433754)" d="M 464.766667 768.96 
L 466.833333 768.96 
L 466.833333 529.850796 
L 464.766667 529.850796 
z
" style="fill:#1f77b4;"/>
   </g>
   <g id="patch_77">
    <path clip-path="url(#p94b4433754)" d="M 468.9 768.96 
L 470.966667 768.96 
L 470.966667 501.54867 
L 468.9 501.54867 
z
" style="fill:#1f77b4;"/>
   </g>
   <g id="patch_78">
    <path clip-path="url(#p94b4433754)" d="M 473.033333 768.96 
L 475.1 768.96 
L 475.1 532.16165 
L 473.033333 532.16165 
z
" style="fill:#1f77b4;"/>
   </g>
   <g id="patch_79">
    <path clip-path="url(#p94b4433754)" d="M 477.166667 768.96 
L 479.233333 768.96 
L 479.233333 497.078684 
L 477.166667 497.078684 
z
" style="fill:#1f77b4;"/>
   </g>
   <g id="patch_80">
    <path clip-path="url(#p94b4433754)" d="M 481.3 768.96 
L 483.366667 768.96 
L 483.366667 486.113799 
L 481.3 486.113799 
z
" style="fill:#1f77b4;"/>
   </g>
   <g id="patch_81">
    <path clip-path="url(#p94b4433754)" d="M 485.433333 768.96 
L 487.5 768.96 
L 487.5 594.858155 
L 485.433333 594.858155 
z
" style="fill:#1f77b4;"/>
   </g>
   <g id="patch_82">
    <path clip-path="url(#p94b4433754)" d="M 489.566667 768.96 
L 491.633333 768.96 
L 491.633333 674.109945 
L 489.566667 674.109945 
z
" style="fill:#1f77b4;"/>
   </g>
   <g id="patch_83">
    <path clip-path="url(#p94b4433754)" d="M 493.7 768.96 
L 495.766667 768.96 
L 495.766667 616.647875 
L 493.7 616.647875 
z
" style="fill:#1f77b4;"/>
   </g>
   <g id="patch_84">
    <path clip-path="url(#p94b4433754)" d="M 497.833333 768.96 
L 499.9 768.96 
L 499.9 585.731449 
L 497.833333 585.731449 
z
" style="fill:#1f77b4;"/>
   </g>
   <g id="patch_85">
    <path clip-path="url(#p94b4433754)" d="M 501.966667 768.96 
L 504.033333 768.96 
L 504.033333 578.647164 
L 501.966667 578.647164 
z
" style="fill:#1f77b4;"/>
   </g>
   <g id="patch_86">
    <path clip-path="url(#p94b4433754)" d="M 506.1 768.96 
L 508.166667 768.96 
L 508.166667 526.699632 
L 506.1 526.699632 
z
" style="fill:#1f77b4;"/>
   </g>
   <g id="patch_87">
    <path clip-path="url(#p94b4433754)" d="M 510.233333 768.96 
L 512.3 768.96 
L 512.3 464.890121 
L 510.233333 464.890121 
z
" style="fill:#1f77b4;"/>
   </g>
   <g id="patch_88">
    <path clip-path="url(#p94b4433754)" d="M 514.366667 768.96 
L 516.433333 768.96 
L 516.433333 501.321086 
L 514.366667 501.321086 
z
" style="fill:#1f77b4;"/>
   </g>
   <g id="patch_89">
    <path clip-path="url(#p94b4433754)" d="M 518.5 768.96 
L 520.566667 768.96 
L 520.566667 662.736575 
L 518.5 662.736575 
z
" style="fill:#1f77b4;"/>
   </g>
   <g id="patch_90">
    <path clip-path="url(#p94b4433754)" d="M 522.633333 768.96 
L 524.7 768.96 
L 524.7 605.373708 
L 522.633333 605.373708 
z
" style="fill:#1f77b4;"/>
   </g>
   <g id="patch_91">
    <path clip-path="url(#p94b4433754)" d="M 526.766667 768.96 
L 528.833333 768.96 
L 528.833333 474.28526 
L 526.766667 474.28526 
z
" style="fill:#1f77b4;"/>
   </g>
   <g id="patch_92">
    <path clip-path="url(#p94b4433754)" d="M 530.9 768.96 
L 532.966667 768.96 
L 532.966667 517.98141 
L 530.9 517.98141 
z
" style="fill:#1f77b4;"/>
   </g>
   <g id="patch_93">
    <path clip-path="url(#p94b4433754)" d="M 535.033333 768.96 
L 537.1 768.96 
L 537.1 422.483615 
L 535.033333 422.483615 
z
" style="fill:#1f77b4;"/>
   </g>
   <g id="patch_94">
    <path clip-path="url(#p94b4433754)" d="M 539.166667 768.96 
L 541.233333 768.96 
L 541.233333 417.050774 
L 539.166667 417.050774 
z
" style="fill:#1f77b4;"/>
   </g>
   <g id="patch_95">
    <path clip-path="url(#p94b4433754)" d="M 543.3 768.96 
L 545.366667 768.96 
L 545.366667 493.443174 
L 543.3 493.443174 
z
" style="fill:#1f77b4;"/>
   </g>
   <g id="patch_96">
    <path clip-path="url(#p94b4433754)" d="M 547.433333 768.96 
L 549.5 768.96 
L 549.5 692.730994 
L 547.433333 692.730994 
z
" style="fill:#1f77b4;"/>
   </g>
   <g id="patch_97">
    <path clip-path="url(#p94b4433754)" d="M 551.566667 768.96 
L 553.633333 768.96 
L 553.633333 510.459463 
L 551.566667 510.459463 
z
" style="fill:#1f77b4;"/>
   </g>
   <g id="patch_98">
    <path clip-path="url(#p94b4433754)" d="M 555.7 768.96 
L 557.766667 768.96 
L 557.766667 370.308499 
L 555.7 370.308499 
z
" style="fill:#1f77b4;"/>
   </g>
   <g id="patch_99">
    <path clip-path="url(#p94b4433754)" d="M 559.833333 768.96 
L 561.9 768.96 
L 561.9 329.162459 
L 559.833333 329.162459 
z
" style="fill:#1f77b4;"/>
   </g>
   <g id="patch_100">
    <path clip-path="url(#p94b4433754)" d="M 563.966667 768.96 
L 566.033333 768.96 
L 566.033333 239.67522 
L 563.966667 239.67522 
z
" style="fill:#1f77b4;"/>
   </g>
   <g id="patch_101">
    <path clip-path="url(#p94b4433754)" d="M 568.1 768.96 
L 570.166667 768.96 
L 570.166667 135.36 
L 568.1 135.36 
z
" style="fill:#1f77b4;"/>
   </g>
   <g id="patch_102">
    <path clip-path="url(#p94b4433754)" d="M 572.233333 768.96 
L 574.3 768.96 
L 574.3 339.024437 
L 572.233333 339.024437 
z
" style="fill:#1f77b4;"/>
   </g>
   <g id="patch_103">
    <path clip-path="url(#p94b4433754)" d="M 576.366667 768.96 
L 578.433333 768.96 
L 578.433333 563.760829 
L 576.366667 563.760829 
z
" style="fill:#1f77b4;"/>
   </g>
   <g id="patch_104">
    <path clip-path="url(#p94b4433754)" d="M 580.5 768.96 
L 582.566667 768.96 
L 582.566667 417.879414 
L 580.5 417.879414 
z
" style="fill:#1f77b4;"/>
   </g>
   <g id="patch_105">
    <path clip-path="url(#p94b4433754)" d="M 584.633333 768.96 
L 586.7 768.96 
L 586.7 335.184685 
L 584.633333 335.184685 
z
" style="fill:#1f77b4;"/>
   </g>
   <g id="patch_106">
    <path clip-path="url(#p94b4433754)" d="M 588.766667 768.96 
L 590.833333 768.96 
L 590.833333 395.961313 
L 588.766667 395.961313 
z
" style="fill:#1f77b4;"/>
   </g>
   <g id="patch_107">
    <path clip-path="url(#p94b4433754)" d="M 592.9 768.96 
L 594.966667 768.96 
L 594.966667 259.918534 
L 592.9 259.918534 
z
" style="fill:#1f77b4;"/>
   </g>
   <g id="patch_108">
    <path clip-path="url(#p94b4433754)" d="M 597.033333 768.96 
L 599.1 768.96 
L 599.1 266.430941 
L 597.033333 266.430941 
z
" style="fill:#1f77b4;"/>
   </g>
   <g id="patch_109">
    <path clip-path="url(#p94b4433754)" d="M 601.166667 768.96 
L 603.233333 768.96 
L 603.233333 415.265114 
L 601.166667 415.265114 
z
" style="fill:#1f77b4;"/>
   </g>
   <g id="patch_110">
    <path clip-path="url(#p94b4433754)" d="M 605.3 768.96 
L 607.366667 768.96 
L 607.366667 564.321036 
L 605.3 564.321036 
z
" style="fill:#1f77b4;"/>
   </g>
   <g id="patch_111">
    <path clip-path="url(#p94b4433754)" d="M 609.433333 768.96 
L 611.5 768.96 
L 611.5 477.401412 
L 609.433333 477.401412 
z
" style="fill:#1f77b4;"/>
   </g>
   <g id="patch_112">
    <path clip-path="url(#p94b4433754)" d="M 613.566667 768.96 
L 615.633333 768.96 
L 615.633333 296.285308 
L 613.566667 296.285308 
z
" style="fill:#1f77b4;"/>
   </g>
   <g id="patch_113">
    <path clip-path="url(#p94b4433754)" d="M 617.7 768.96 
L 619.766667 768.96 
L 619.766667 351.728299 
L 617.7 351.728299 
z
" style="fill:#1f77b4;"/>
   </g>
   <g id="patch_114">
    <path clip-path="url(#p94b4433754)" d="M 621.833333 768.96 
L 623.9 768.96 
L 623.9 332.004343 
L 621.833333 332.004343 
z
" style="fill:#1f77b4;"/>
   </g>
   <g id="patch_115">
    <path clip-path="url(#p94b4433754)" d="M 625.966667 768.96 
L 628.033333 768.96 
L 628.033333 363.842776 
L 625.966667 363.842776 
z
" style="fill:#1f77b4;"/>
   </g>
   <g id="patch_116">
    <path clip-path="url(#p94b4433754)" d="M 630.1 768.96 
L 632.166667 768.96 
L 632.166667 498.98689 
L 630.1 498.98689 
z
" style="fill:#1f77b4;"/>
   </g>
   <g id="patch_117">
    <path clip-path="url(#p94b4433754)" d="M 634.233333 768.96 
L 636.3 768.96 
L 636.3 658.097361 
L 634.233333 658.097361 
z
" style="fill:#1f77b4;"/>
   </g>
   <g id="patch_118">
    <path clip-path="url(#p94b4433754)" d="M 638.366667 768.96 
L 640.433333 768.96 
L 640.433333 517.041896 
L 638.366667 517.041896 
z
" style="fill:#1f77b4;"/>
   </g>
   <g id="patch_119">
    <path clip-path="url(#p94b4433754)" d="M 642.5 768.96 
L 644.566667 768.96 
L 644.566667 407.912397 
L 642.5 407.912397 
z
" style="fill:#1f77b4;"/>
   </g>
   <g id="patch_120">
    <path clip-path="url(#p94b4433754)" d="M 646.633333 768.96 
L 648.7 768.96 
L 648.7 393.422875 
L 646.633333 393.422875 
z
" style="fill:#1f77b4;"/>
   </g>
   <g id="patch_121">
    <path clip-path="url(#p94b4433754)" d="M 650.766667 768.96 
L 652.833333 768.96 
L 652.833333 405.869975 
L 650.766667 405.869975 
z
" style="fill:#1f77b4;"/>
   </g>
   <g id="patch_122">
    <path clip-path="url(#p94b4433754)" d="M 654.9 768.96 
L 656.966667 768.96 
L 656.966667 454.403746 
L 654.9 454.403746 
z
" style="fill:#1f77b4;"/>
   </g>
   <g id="patch_123">
    <path clip-path="url(#p94b4433754)" d="M 659.033333 768.96 
L 661.1 768.96 
L 661.1 625.902962 
L 659.033333 625.902962 
z
" style="fill:#1f77b4;"/>
   </g>
   <g id="patch_124">
    <path clip-path="url(#p94b4433754)" d="M 663.166667 768.96 
L 665.233333 768.96 
L 665.233333 723.513204 
L 663.166667 723.513204 
z
" style="fill:#1f77b4;"/>
   </g>
   <g id="patch_125">
    <path clip-path="url(#p94b4433754)" d="M 667.3 768.96 
L 669.366667 768.96 
L 669.366667 613.204936 
L 667.3 613.204936 
z
" style="fill:#1f77b4;"/>
   </g>
   <g id="patch_126">
    <path clip-path="url(#p94b4433754)" d="M 671.433333 768.96 
L 673.5 768.96 
L 673.5 362.319713 
L 671.433333 362.319713 
z
" style="fill:#1f77b4;"/>
   </g>
   <g id="patch_127">
    <path clip-path="url(#p94b4433754)" d="M 675.566667 768.96 
L 677.633333 768.96 
L 677.633333 370.792845 
L 675.566667 370.792845 
z
" style="fill:#1f77b4;"/>
   </g>
   <g id="patch_128">
    <path clip-path="url(#p94b4433754)" d="M 679.7 768.96 
L 681.766667 768.96 
L 681.766667 470.632244 
L 679.7 470.632244 
z
" style="fill:#1f77b4;"/>
   </g>
   <g id="patch_129">
    <path clip-path="url(#p94b4433754)" d="M 683.833333 768.96 
L 685.9 768.96 
L 685.9 322.988511 
L 683.833333 322.988511 
z
" style="fill:#1f77b4;"/>
   </g>
   <g id="patch_130">
    <path clip-path="url(#p94b4433754)" d="M 687.966667 768.96 
L 690.033333 768.96 
L 690.033333 466.944214 
L 687.966667 466.944214 
z
" style="fill:#1f77b4;"/>
   </g>
   <g id="patch_131">
    <path clip-path="url(#p94b4433754)" d="M 692.1 768.96 
L 694.166667 768.96 
L 694.166667 499.657971 
L 692.1 499.657971 
z
" style="fill:#1f77b4;"/>
   </g>
   <g id="patch_132">
    <path clip-path="url(#p94b4433754)" d="M 696.233333 768.96 
L 698.3 768.96 
L 698.3 535.802996 
L 696.233333 535.802996 
z
" style="fill:#1f77b4;"/>
   </g>
   <g id="patch_133">
    <path clip-path="url(#p94b4433754)" d="M 700.366667 768.96 
L 702.433333 768.96 
L 702.433333 460.221729 
L 700.366667 460.221729 
z
" style="fill:#1f77b4;"/>
   </g>
   <g id="patch_134">
    <path clip-path="url(#p94b4433754)" d="M 704.5 768.96 
L 706.566667 768.96 
L 706.566667 489.545067 
L 704.5 489.545067 
z
" style="fill:#1f77b4;"/>
   </g>
   <g id="patch_135">
    <path clip-path="url(#p94b4433754)" d="M 708.633333 768.96 
L 710.7 768.96 
L 710.7 477.815732 
L 708.633333 477.815732 
z
" style="fill:#1f77b4;"/>
   </g>
   <g id="patch_136">
    <path clip-path="url(#p94b4433754)" d="M 712.766667 768.96 
L 714.833333 768.96 
L 714.833333 347.065742 
L 712.766667 347.065742 
z
" style="fill:#1f77b4;"/>
   </g>
   <g id="patch_137">
    <path clip-path="url(#p94b4433754)" d="M 716.9 768.96 
L 718.966667 768.96 
L 718.966667 534.507517 
L 716.9 534.507517 
z
" style="fill:#1f77b4;"/>
   </g>
   <g id="patch_138">
    <path clip-path="url(#p94b4433754)" d="M 721.033333 768.96 
L 723.1 768.96 
L 723.1 674.973598 
L 721.033333 674.973598 
z
" style="fill:#1f77b4;"/>
   </g>
   <g id="patch_139">
    <path clip-path="url(#p94b4433754)" d="M 725.166667 768.96 
L 727.233333 768.96 
L 727.233333 604.702627 
L 725.166667 604.702627 
z
" style="fill:#1f77b4;"/>
   </g>
   <g id="patch_140">
    <path clip-path="url(#p94b4433754)" d="M 729.3 768.96 
L 731.366667 768.96 
L 731.366667 466.074726 
L 729.3 466.074726 
z
" style="fill:#1f77b4;"/>
   </g>
   <g id="patch_141">
    <path clip-path="url(#p94b4433754)" d="M 733.433333 768.96 
L 735.5 768.96 
L 735.5 498.309973 
L 733.433333 498.309973 
z
" style="fill:#1f77b4;"/>
   </g>
   <g id="patch_142">
    <path clip-path="url(#p94b4433754)" d="M 737.566667 768.96 
L 739.633333 768.96 
L 739.633333 382.825625 
L 737.566667 382.825625 
z
" style="fill:#1f77b4;"/>
   </g>
   <g id="patch_143">
    <path clip-path="url(#p94b4433754)" d="M 741.7 768.96 
L 743.766667 768.96 
L 743.766667 519.166014 
L 741.7 519.166014 
z
" style="fill:#1f77b4;"/>
   </g>
   <g id="patch_144">
    <path clip-path="url(#p94b4433754)" d="M 745.833333 768.96 
L 747.9 768.96 
L 747.9 568.791021 
L 745.833333 568.791021 
z
" style="fill:#1f77b4;"/>
   </g>
   <g id="patch_145">
    <path clip-path="url(#p94b4433754)" d="M 749.966667 768.96 
L 752.033333 768.96 
L 752.033333 677.091881 
L 749.966667 677.091881 
z
" style="fill:#1f77b4;"/>
   </g>
   <g id="patch_146">
    <path clip-path="url(#p94b4433754)" d="M 754.1 768.96 
L 756.166667 768.96 
L 756.166667 616.898801 
L 754.1 616.898801 
z
" style="fill:#1f77b4;"/>
   </g>
   <g id="patch_147">
    <path clip-path="url(#p94b4433754)" d="M 758.233333 768.96 
L 760.3 768.96 
L 760.3 584.360109 
L 758.233333 584.360109 
z
" style="fill:#1f77b4;"/>
   </g>
   <g id="patch_148">
    <path clip-path="url(#p94b4433754)" d="M 762.366667 768.96 
L 764.433333 768.96 
L 764.433333 583.648179 
L 762.366667 583.648179 
z
" style="fill:#1f77b4;"/>
   </g>
   <g id="patch_149">
    <path clip-path="url(#p94b4433754)" d="M 766.5 768.96 
L 768.566667 768.96 
L 768.566667 573.605301 
L 766.5 573.605301 
z
" style="fill:#1f77b4;"/>
   </g>
   <g id="patch_150">
    <path clip-path="url(#p94b4433754)" d="M 770.633333 768.96 
L 772.7 768.96 
L 772.7 586.40253 
L 770.633333 586.40253 
z
" style="fill:#1f77b4;"/>
   </g>
   <g id="patch_151">
    <path clip-path="url(#p94b4433754)" d="M 774.766667 768.96 
L 776.833333 768.96 
L 776.833333 643.928791 
L 774.766667 643.928791 
z
" style="fill:#1f77b4;"/>
   </g>
   <g id="patch_152">
    <path clip-path="url(#p94b4433754)" d="M 778.9 768.96 
L 780.966667 768.96 
L 780.966667 698.794068 
L 778.9 698.794068 
z
" style="fill:#1f77b4;"/>
   </g>
   <g id="patch_153">
    <path clip-path="url(#p94b4433754)" d="M 783.033333 768.96 
L 785.1 768.96 
L 785.1 717.975324 
L 783.033333 717.975324 
z
" style="fill:#1f77b4;"/>
   </g>
   <g id="patch_154">
    <path clip-path="url(#p94b4433754)" d="M 787.166667 768.96 
L 789.233333 768.96 
L 789.233333 659.194433 
L 787.166667 659.194433 
z
" style="fill:#1f77b4;"/>
   </g>
   <g id="patch_155">
    <path clip-path="url(#p94b4433754)" d="M 791.3 768.96 
L 793.366667 768.96 
L 793.366667 653.417298 
L 791.3 653.417298 
z
" style="fill:#1f77b4;"/>
   </g>
   <g id="patch_156">
    <path clip-path="url(#p94b4433754)" d="M 795.433333 768.96 
L 797.5 768.96 
L 797.5 580.91717 
L 795.433333 580.91717 
z
" style="fill:#1f77b4;"/>
   </g>
   <g id="patch_157">
    <path clip-path="url(#p94b4433754)" d="M 799.566667 768.96 
L 801.633333 768.96 
L 801.633333 556.116337 
L 799.566667 556.116337 
z
" style="fill:#1f77b4;"/>
   </g>
   <g id="patch_158">
    <path clip-path="url(#p94b4433754)" d="M 803.7 768.96 
L 805.766667 768.96 
L 805.766667 579.814262 
L 803.7 579.814262 
z
" style="fill:#1f77b4;"/>
   </g>
   <g id="patch_159">
    <path clip-path="url(#p94b4433754)" d="M 807.833333 768.96 
L 809.9 768.96 
L 809.9 634.131003 
L 807.833333 634.131003 
z
" style="fill:#1f77b4;"/>
   </g>
   <g id="patch_160">
    <path clip-path="url(#p94b4433754)" d="M 811.966667 768.96 
L 814.033333 768.96 
L 814.033333 581.798329 
L 811.966667 581.798329 
z
" style="fill:#1f77b4;"/>
   </g>
   <g id="patch_161">
    <path clip-path="url(#p94b4433754)" d="M 816.1 768.96 
L 818.166667 768.96 
L 818.166667 567.839836 
L 816.1 567.839836 
z
" style="fill:#1f77b4;"/>
   </g>
   <g id="patch_162">
    <path clip-path="url(#p94b4433754)" d="M 820.233333 768.96 
L 822.3 768.96 
L 822.3 534.723431 
L 820.233333 534.723431 
z
" style="fill:#1f77b4;"/>
   </g>
   <g id="patch_163">
    <path clip-path="url(#p94b4433754)" d="M 824.366667 768.96 
L 826.433333 768.96 
L 826.433333 606.815074 
L 824.366667 606.815074 
z
" style="fill:#1f77b4;"/>
   </g>
   <g id="patch_164">
    <path clip-path="url(#p94b4433754)" d="M 828.5 768.96 
L 830.566667 768.96 
L 830.566667 615.329054 
L 828.5 615.329054 
z
" style="fill:#1f77b4;"/>
   </g>
   <g id="patch_165">
    <path clip-path="url(#p94b4433754)" d="M 832.633333 768.96 
L 834.7 768.96 
L 834.7 676.66589 
L 832.633333 676.66589 
z
" style="fill:#1f77b4;"/>
   </g>
   <g id="patch_166">
    <path clip-path="url(#p94b4433754)" d="M 836.766667 768.96 
L 838.833333 768.96 
L 838.833333 675.971467 
L 836.766667 675.971467 
z
" style="fill:#1f77b4;"/>
   </g>
   <g id="patch_167">
    <path clip-path="url(#p94b4433754)" d="M 840.9 768.96 
L 842.966667 768.96 
L 842.966667 484.211429 
L 840.9 484.211429 
z
" style="fill:#1f77b4;"/>
   </g>
   <g id="patch_168">
    <path clip-path="url(#p94b4433754)" d="M 845.033333 768.96 
L 847.1 768.96 
L 847.1 558.0012 
L 845.033333 558.0012 
z
" style="fill:#1f77b4;"/>
   </g>
   <g id="patch_169">
    <path clip-path="url(#p94b4433754)" d="M 849.166667 768.96 
L 851.233333 768.96 
L 851.233333 625.173526 
L 849.166667 625.173526 
z
" style="fill:#1f77b4;"/>
   </g>
   <g id="patch_170">
    <path clip-path="url(#p94b4433754)" d="M 853.3 768.96 
L 855.366667 768.96 
L 855.366667 579.872617 
L 853.3 579.872617 
z
" style="fill:#1f77b4;"/>
   </g>
   <g id="patch_171">
    <path clip-path="url(#p94b4433754)" d="M 857.433333 768.96 
L 859.5 768.96 
L 859.5 678.124762 
L 857.433333 678.124762 
z
" style="fill:#1f77b4;"/>
   </g>
   <g id="patch_172">
    <path clip-path="url(#p94b4433754)" d="M 861.566667 768.96 
L 863.633333 768.96 
L 863.633333 627.233454 
L 861.566667 627.233454 
z
" style="fill:#1f77b4;"/>
   </g>
   <g id="patch_173">
    <path clip-path="url(#p94b4433754)" d="M 865.7 768.96 
L 867.766667 768.96 
L 867.766667 708.434298 
L 865.7 708.434298 
z
" style="fill:#1f77b4;"/>
   </g>
   <g id="patch_174">
    <path clip-path="url(#p94b4433754)" d="M 869.833333 768.96 
L 871.9 768.96 
L 871.9 695.1819 
L 869.833333 695.1819 
z
" style="fill:#1f77b4;"/>
   </g>
   <g id="patch_175">
    <path clip-path="url(#p94b4433754)" d="M 873.966667 768.96 
L 876.033333 768.96 
L 876.033333 678.737489 
L 873.966667 678.737489 
z
" style="fill:#1f77b4;"/>
   </g>
   <g id="patch_176">
    <path clip-path="url(#p94b4433754)" d="M 878.1 768.96 
L 880.166667 768.96 
L 880.166667 659.795488 
L 878.1 659.795488 
z
" style="fill:#1f77b4;"/>
   </g>
   <g id="patch_177">
    <path clip-path="url(#p94b4433754)" d="M 882.233333 768.96 
L 884.3 768.96 
L 884.3 636.255121 
L 882.233333 636.255121 
z
" style="fill:#1f77b4;"/>
   </g>
   <g id="patch_178">
    <path clip-path="url(#p94b4433754)" d="M 886.366667 768.96 
L 888.433333 768.96 
L 888.433333 472.779704 
L 886.366667 472.779704 
z
" style="fill:#1f77b4;"/>
   </g>
   <g id="patch_179">
    <path clip-path="url(#p94b4433754)" d="M 890.5 768.96 
L 892.566667 768.96 
L 892.566667 427.070311 
L 890.5 427.070311 
z
" style="fill:#1f77b4;"/>
   </g>
   <g id="patch_180">
    <path clip-path="url(#p94b4433754)" d="M 894.633333 768.96 
L 896.7 768.96 
L 896.7 738.627123 
L 894.633333 738.627123 
z
" style="fill:#1f77b4;"/>
   </g>
   <g id="patch_181">
    <path clip-path="url(#p94b4433754)" d="M 898.766667 768.96 
L 900.833333 768.96 
L 900.833333 692.836033 
L 898.766667 692.836033 
z
" style="fill:#1f77b4;"/>
   </g>
   <g id="patch_182">
    <path clip-path="url(#p94b4433754)" d="M 902.9 768.96 
L 904.966667 768.96 
L 904.966667 675.288714 
L 902.9 675.288714 
z
" style="fill:#1f77b4;"/>
   </g>
   <g id="patch_183">
    <path clip-path="url(#p94b4433754)" d="M 907.033333 768.96 
L 909.1 768.96 
L 909.1 679.303531 
L 907.033333 679.303531 
z
" style="fill:#1f77b4;"/>
   </g>
   <g id="patch_184">
    <path clip-path="url(#p94b4433754)" d="M 911.166667 768.96 
L 913.233333 768.96 
L 913.233333 688.465251 
L 911.166667 688.465251 
z
" style="fill:#1f77b4;"/>
   </g>
   <g id="patch_185">
    <path clip-path="url(#p94b4433754)" d="M 915.3 768.96 
L 917.366667 768.96 
L 917.366667 687.829182 
L 915.3 687.829182 
z
" style="fill:#1f77b4;"/>
   </g>
   <g id="patch_186">
    <path clip-path="url(#p94b4433754)" d="M 919.433333 768.96 
L 921.5 768.96 
L 921.5 708.533501 
L 919.433333 708.533501 
z
" style="fill:#1f77b4;"/>
   </g>
   <g id="patch_187">
    <path clip-path="url(#p94b4433754)" d="M 923.566667 768.96 
L 925.633333 768.96 
L 925.633333 739.840905 
L 923.566667 739.840905 
z
" style="fill:#1f77b4;"/>
   </g>
   <g id="patch_188">
    <path clip-path="url(#p94b4433754)" d="M 927.7 768.96 
L 929.766667 768.96 
L 929.766667 763.988163 
L 927.7 763.988163 
z
" style="fill:#1f77b4;"/>
   </g>
   <g id="patch_189">
    <path clip-path="url(#p94b4433754)" d="M 931.833333 768.96 
L 933.9 768.96 
L 933.9 721.739215 
L 931.833333 721.739215 
z
" style="fill:#1f77b4;"/>
   </g>
   <g id="patch_190">
    <path clip-path="url(#p94b4433754)" d="M 935.966667 768.96 
L 938.033333 768.96 
L 938.033333 685.95599 
L 935.966667 685.95599 
z
" style="fill:#1f77b4;"/>
   </g>
   <g id="patch_191">
    <path clip-path="url(#p94b4433754)" d="M 940.1 768.96 
L 942.166667 768.96 
L 942.166667 685.588354 
L 940.1 685.588354 
z
" style="fill:#1f77b4;"/>
   </g>
   <g id="patch_192">
    <path clip-path="url(#p94b4433754)" d="M 944.233333 768.96 
L 946.3 768.96 
L 946.3 695.695423 
L 944.233333 695.695423 
z
" style="fill:#1f77b4;"/>
   </g>
   <g id="patch_193">
    <path clip-path="url(#p94b4433754)" d="M 948.366667 768.96 
L 950.433333 768.96 
L 950.433333 707.162161 
L 948.366667 707.162161 
z
" style="fill:#1f77b4;"/>
   </g>
   <g id="patch_194">
    <path clip-path="url(#p94b4433754)" d="M 952.5 768.96 
L 954.566667 768.96 
L 954.566667 726.926965 
L 952.5 726.926965 
z
" style="fill:#1f77b4;"/>
   </g>
   <g id="patch_195">
    <path clip-path="url(#p94b4433754)" d="M 956.633333 768.96 
L 958.7 768.96 
L 958.7 690.180885 
L 956.633333 690.180885 
z
" style="fill:#1f77b4;"/>
   </g>
   <g id="patch_196">
    <path clip-path="url(#p94b4433754)" d="M 960.766667 768.96 
L 962.833333 768.96 
L 962.833333 703.975983 
L 960.766667 703.975983 
z
" style="fill:#1f77b4;"/>
   </g>
   <g id="patch_197">
    <path clip-path="url(#p94b4433754)" d="M 964.9 768.96 
L 966.966667 768.96 
L 966.966667 706.835373 
L 964.9 706.835373 
z
" style="fill:#1f77b4;"/>
   </g>
   <g id="patch_198">
    <path clip-path="url(#p94b4433754)" d="M 969.033333 768.96 
L 971.1 768.96 
L 971.1 707.378074 
L 969.033333 707.378074 
z
" style="fill:#1f77b4;"/>
   </g>
   <g id="patch_199">
    <path clip-path="url(#p94b4433754)" d="M 973.166667 768.96 
L 975.233333 768.96 
L 975.233333 706.695321 
L 973.166667 706.695321 
z
" style="fill:#1f77b4;"/>
   </g>
   <g id="patch_200">
    <path clip-path="url(#p94b4433754)" d="M 977.3 768.96 
L 979.366667 768.96 
L 979.366667 716.942442 
L 977.3 716.942442 
z
" style="fill:#1f77b4;"/>
   </g>
   <g id="patch_201">
    <path clip-path="url(#p94b4433754)" d="M 981.433333 768.96 
L 983.5 768.96 
L 983.5 733.602766 
L 981.433333 733.602766 
z
" style="fill:#1f77b4;"/>
   </g>
   <g id="patch_202">
    <path clip-path="url(#p94b4433754)" d="M 985.566667 768.96 
L 987.633333 768.96 
L 987.633333 716.300538 
L 985.566667 716.300538 
z
" style="fill:#1f77b4;"/>
   </g>
   <g id="patch_203">
    <path clip-path="url(#p94b4433754)" d="M 989.7 768.96 
L 991.766667 768.96 
L 991.766667 698.776562 
L 989.7 698.776562 
z
" style="fill:#1f77b4;"/>
   </g>
   <g id="patch_204">
    <path clip-path="url(#p94b4433754)" d="M 993.833333 768.96 
L 995.9 768.96 
L 995.9 703.596676 
L 993.833333 703.596676 
z
" style="fill:#1f77b4;"/>
   </g>
   <g id="patch_205">
    <path clip-path="url(#p94b4433754)" d="M 997.966667 768.96 
L 1000.033333 768.96 
L 1000.033333 721.523302 
L 997.966667 721.523302 
z
" style="fill:#1f77b4;"/>
   </g>
   <g id="patch_206">
    <path clip-path="url(#p94b4433754)" d="M 1002.1 768.96 
L 1004.166667 768.96 
L 1004.166667 720.327026 
L 1002.1 720.327026 
z
" style="fill:#1f77b4;"/>
   </g>
   <g id="patch_207">
    <path clip-path="url(#p94b4433754)" d="M 1006.233333 768.96 
L 1008.3 768.96 
L 1008.3 738.790517 
L 1006.233333 738.790517 
z
" style="fill:#1f77b4;"/>
   </g>
   <g id="patch_208">
    <path clip-path="url(#p94b4433754)" d="M 1010.366667 768.96 
L 1012.433333 768.96 
L 1012.433333 751.412682 
L 1010.366667 751.412682 
z
" style="fill:#1f77b4;"/>
   </g>
   <g id="patch_209">
    <path clip-path="url(#p94b4433754)" d="M 1014.5 768.96 
L 1016.566667 768.96 
L 1016.566667 739.881753 
L 1014.5 739.881753 
z
" style="fill:#1f77b4;"/>
   </g>
   <g id="patch_210">
    <path clip-path="url(#p94b4433754)" d="M 1018.633333 768.96 
L 1020.7 768.96 
L 1020.7 702.470427 
L 1018.633333 702.470427 
z
" style="fill:#1f77b4;"/>
   </g>
   <g id="patch_211">
    <path clip-path="url(#p94b4433754)" d="M 1022.766667 768.96 
L 1024.833333 768.96 
L 1024.833333 657.210366 
L 1022.766667 657.210366 
z
" style="fill:#1f77b4;"/>
   </g>
   <g id="patch_212">
    <path clip-path="url(#p94b4433754)" d="M 1026.9 768.96 
L 1028.966667 768.96 
L 1028.966667 710.955229 
L 1026.9 710.955229 
z
" style="fill:#1f77b4;"/>
   </g>
   <g id="patch_213">
    <path clip-path="url(#p94b4433754)" d="M 1031.033333 768.96 
L 1033.1 768.96 
L 1033.1 642.539944 
L 1031.033333 642.539944 
z
" style="fill:#1f77b4;"/>
   </g>
   <g id="patch_214">
    <path clip-path="url(#p94b4433754)" d="M 1035.166667 768.96 
L 1037.233333 768.96 
L 1037.233333 723.063871 
L 1035.166667 723.063871 
z
" style="fill:#1f77b4;"/>
   </g>
   <g id="patch_215">
    <path clip-path="url(#p94b4433754)" d="M 1039.3 768.96 
L 1041.366667 768.96 
L 1041.366667 734.699838 
L 1039.3 734.699838 
z
" style="fill:#1f77b4;"/>
   </g>
   <g id="patch_216">
    <path clip-path="url(#p94b4433754)" d="M 1043.433333 768.96 
L 1045.5 768.96 
L 1045.5 722.357777 
L 1043.433333 722.357777 
z
" style="fill:#1f77b4;"/>
   </g>
   <g id="patch_217">
    <path clip-path="url(#p94b4433754)" d="M 1047.566667 768.96 
L 1049.633333 768.96 
L 1049.633333 705.90753 
L 1047.566667 705.90753 
z
" style="fill:#1f77b4;"/>
   </g>
   <g id="patch_218">
    <path clip-path="url(#p94b4433754)" d="M 1051.7 768.96 
L 1053.766667 768.96 
L 1053.766667 710.844355 
L 1051.7 710.844355 
z
" style="fill:#1f77b4;"/>
   </g>
   <g id="patch_219">
    <path clip-path="url(#p94b4433754)" d="M 1055.833333 768.96 
L 1057.9 768.96 
L 1057.9 708.877795 
L 1055.833333 708.877795 
z
" style="fill:#1f77b4;"/>
   </g>
   <g id="patch_220">
    <path clip-path="url(#p94b4433754)" d="M 1059.966667 768.96 
L 1062.033333 768.96 
L 1062.033333 705.259791 
L 1059.966667 705.259791 
z
" style="fill:#1f77b4;"/>
   </g>
   <g id="patch_221">
    <path clip-path="url(#p94b4433754)" d="M 1064.1 768.96 
L 1066.166667 768.96 
L 1066.166667 666.611341 
L 1064.1 666.611341 
z
" style="fill:#1f77b4;"/>
   </g>
   <g id="patch_222">
    <path clip-path="url(#p94b4433754)" d="M 1068.233333 768.96 
L 1070.3 768.96 
L 1070.3 729.360365 
L 1068.233333 729.360365 
z
" style="fill:#1f77b4;"/>
   </g>
   <g id="patch_223">
    <path clip-path="url(#p94b4433754)" d="M 1072.366667 768.96 
L 1074.433333 768.96 
L 1074.433333 723.82832 
L 1072.366667 723.82832 
z
" style="fill:#1f77b4;"/>
   </g>
   <g id="patch_224">
    <path clip-path="url(#p94b4433754)" d="M 1076.5 768.96 
L 1078.566667 768.96 
L 1078.566667 726.238378 
L 1076.5 726.238378 
z
" style="fill:#1f77b4;"/>
   </g>
   <g id="patch_225">
    <path clip-path="url(#p94b4433754)" d="M 1080.633333 768.96 
L 1082.7 768.96 
L 1082.7 614.115272 
L 1080.633333 614.115272 
z
" style="fill:#1f77b4;"/>
   </g>
   <g id="patch_226">
    <path clip-path="url(#p94b4433754)" d="M 1084.766667 768.96 
L 1086.833333 768.96 
L 1086.833333 632.578763 
L 1084.766667 632.578763 
z
" style="fill:#1f77b4;"/>
   </g>
   <g id="patch_227">
    <path clip-path="url(#p94b4433754)" d="M 1088.9 768.96 
L 1090.966667 768.96 
L 1090.966667 645.737793 
L 1088.9 645.737793 
z
" style="fill:#1f77b4;"/>
   </g>
   <g id="patch_228">
    <path clip-path="url(#p94b4433754)" d="M 1093.033333 768.96 
L 1095.1 768.96 
L 1095.1 608.151401 
L 1093.033333 608.151401 
z
" style="fill:#1f77b4;"/>
   </g>
   <g id="patch_229">
    <path clip-path="url(#p94b4433754)" d="M 1097.166667 768.96 
L 1099.233333 768.96 
L 1099.233333 658.727594 
L 1097.166667 658.727594 
z
" style="fill:#1f77b4;"/>
   </g>
   <g id="patch_230">
    <path clip-path="url(#p94b4433754)" d="M 1101.3 768.96 
L 1103.366667 768.96 
L 1103.366667 715.331847 
L 1101.3 715.331847 
z
" style="fill:#1f77b4;"/>
   </g>
   <g id="patch_231">
    <path clip-path="url(#p94b4433754)" d="M 1105.433333 768.96 
L 1107.5 768.96 
L 1107.5 693.151149 
L 1105.433333 693.151149 
z
" style="fill:#1f77b4;"/>
   </g>
   <g id="patch_232">
    <path clip-path="url(#p94b4433754)" d="M 1109.566667 768.96 
L 1111.633333 768.96 
L 1111.633333 697.732009 
L 1109.566667 697.732009 
z
" style="fill:#1f77b4;"/>
   </g>
   <g id="patch_233">
    <path clip-path="url(#p94b4433754)" d="M 1113.7 768.96 
L 1115.766667 768.96 
L 1115.766667 701.408368 
L 1113.7 701.408368 
z
" style="fill:#1f77b4;"/>
   </g>
   <g id="patch_234">
    <path clip-path="url(#p94b4433754)" d="M 1117.833333 768.96 
L 1119.9 768.96 
L 1119.9 703.363257 
L 1117.833333 703.363257 
z
" style="fill:#1f77b4;"/>
   </g>
   <g id="patch_235">
    <path clip-path="url(#p94b4433754)" d="M 1121.966667 768.96 
L 1124.033333 768.96 
L 1124.033333 701.921891 
L 1121.966667 701.921891 
z
" style="fill:#1f77b4;"/>
   </g>
   <g id="patch_236">
    <path clip-path="url(#p94b4433754)" d="M 1126.1 768.96 
L 1128.166667 768.96 
L 1128.166667 724.42354 
L 1126.1 724.42354 
z
" style="fill:#1f77b4;"/>
   </g>
   <g id="patch_237">
    <path clip-path="url(#p94b4433754)" d="M 1130.233333 768.96 
L 1132.3 768.96 
L 1132.3 714.649094 
L 1130.233333 714.649094 
z
" style="fill:#1f77b4;"/>
   </g>
   <g id="patch_238">
    <path clip-path="url(#p94b4433754)" d="M 1134.366667 768.96 
L 1136.433333 768.96 
L 1136.433333 693.985624 
L 1134.366667 693.985624 
z
" style="fill:#1f77b4;"/>
   </g>
   <g id="patch_239">
    <path clip-path="url(#p94b4433754)" d="M 1138.5 768.96 
L 1140.566667 768.96 
L 1140.566667 697.21265 
L 1138.5 697.21265 
z
" style="fill:#1f77b4;"/>
   </g>
   <g id="patch_240">
    <path clip-path="url(#p94b4433754)" d="M 1142.633333 768.96 
L 1144.7 768.96 
L 1144.7 454.63133 
L 1142.633333 454.63133 
z
" style="fill:#1f77b4;"/>
   </g>
   <g id="patch_241">
    <path clip-path="url(#p94b4433754)" d="M 1146.766667 768.96 
L 1148.833333 768.96 
L 1148.833333 695.12938 
L 1146.766667 695.12938 
z
" style="fill:#1f77b4;"/>
   </g>
   <g id="patch_242">
    <path clip-path="url(#p94b4433754)" d="M 1150.9 768.96 
L 1152.966667 768.96 
L 1152.966667 695.088532 
L 1150.9 695.088532 
z
" style="fill:#1f77b4;"/>
   </g>
   <g id="patch_243">
    <path clip-path="url(#p94b4433754)" d="M 1155.033333 768.96 
L 1157.1 768.96 
L 1157.1 716.09046 
L 1155.033333 716.09046 
z
" style="fill:#1f77b4;"/>
   </g>
   <g id="patch_244">
    <path clip-path="url(#p94b4433754)" d="M 1159.166667 768.96 
L 1161.233333 768.96 
L 1161.233333 709.443837 
L 1159.166667 709.443837 
z
" style="fill:#1f77b4;"/>
   </g>
   <g id="patch_245">
    <path clip-path="url(#p94b4433754)" d="M 1163.3 768.96 
L 1165.366667 768.96 
L 1165.366667 694.283234 
L 1163.3 694.283234 
z
" style="fill:#1f77b4;"/>
   </g>
   <g id="matplotlib.axis_1">
    <g id="xtick_1">
     <g id="line2d_1">
      <defs>
       <path d="M 0 0 
L 0 3.5 
" id="ma6774d4a9a" style="stroke:#000000;stroke-width:0.8;"/>
      </defs>
      <g>
       <use style="stroke:#000000;stroke-width:0.8;" x="164.066667" xlink:href="#ma6774d4a9a" y="768.96"/>
      </g>
     </g>
     <g id="text_1">
      <!-- January -->
      <g transform="translate(145.111198 783.558437)scale(0.1 -0.1)">
       <defs>
        <path d="M 628 4666 
L 1259 4666 
L 1259 325 
Q 1259 -519 939 -900 
Q 619 -1281 -91 -1281 
L -331 -1281 
L -331 -750 
L -134 -750 
Q 284 -750 456 -515 
Q 628 -281 628 325 
L 628 4666 
z
" id="DejaVuSans-4a" transform="scale(0.015625)"/>
        <path d="M 2194 1759 
Q 1497 1759 1228 1600 
Q 959 1441 959 1056 
Q 959 750 1161 570 
Q 1363 391 1709 391 
Q 2188 391 2477 730 
Q 2766 1069 2766 1631 
L 2766 1759 
L 2194 1759 
z
M 3341 1997 
L 3341 0 
L 2766 0 
L 2766 531 
Q 2569 213 2275 61 
Q 1981 -91 1556 -91 
Q 1019 -91 701 211 
Q 384 513 384 1019 
Q 384 1609 779 1909 
Q 1175 2209 1959 2209 
L 2766 2209 
L 2766 2266 
Q 2766 2663 2505 2880 
Q 2244 3097 1772 3097 
Q 1472 3097 1187 3025 
Q 903 2953 641 2809 
L 641 3341 
Q 956 3463 1253 3523 
Q 1550 3584 1831 3584 
Q 2591 3584 2966 3190 
Q 3341 2797 3341 1997 
z
" id="DejaVuSans-61" transform="scale(0.015625)"/>
        <path d="M 3513 2113 
L 3513 0 
L 2938 0 
L 2938 2094 
Q 2938 2591 2744 2837 
Q 2550 3084 2163 3084 
Q 1697 3084 1428 2787 
Q 1159 2491 1159 1978 
L 1159 0 
L 581 0 
L 581 3500 
L 1159 3500 
L 1159 2956 
Q 1366 3272 1645 3428 
Q 1925 3584 2291 3584 
Q 2894 3584 3203 3211 
Q 3513 2838 3513 2113 
z
" id="DejaVuSans-6e" transform="scale(0.015625)"/>
        <path d="M 544 1381 
L 544 3500 
L 1119 3500 
L 1119 1403 
Q 1119 906 1312 657 
Q 1506 409 1894 409 
Q 2359 409 2629 706 
Q 2900 1003 2900 1516 
L 2900 3500 
L 3475 3500 
L 3475 0 
L 2900 0 
L 2900 538 
Q 2691 219 2414 64 
Q 2138 -91 1772 -91 
Q 1169 -91 856 284 
Q 544 659 544 1381 
z
M 1991 3584 
L 1991 3584 
z
" id="DejaVuSans-75" transform="scale(0.015625)"/>
        <path d="M 2631 2963 
Q 2534 3019 2420 3045 
Q 2306 3072 2169 3072 
Q 1681 3072 1420 2755 
Q 1159 2438 1159 1844 
L 1159 0 
L 581 0 
L 581 3500 
L 1159 3500 
L 1159 2956 
Q 1341 3275 1631 3429 
Q 1922 3584 2338 3584 
Q 2397 3584 2469 3576 
Q 2541 3569 2628 3553 
L 2631 2963 
z
" id="DejaVuSans-72" transform="scale(0.015625)"/>
        <path d="M 2059 -325 
Q 1816 -950 1584 -1140 
Q 1353 -1331 966 -1331 
L 506 -1331 
L 506 -850 
L 844 -850 
Q 1081 -850 1212 -737 
Q 1344 -625 1503 -206 
L 1606 56 
L 191 3500 
L 800 3500 
L 1894 763 
L 2988 3500 
L 3597 3500 
L 2059 -325 
z
" id="DejaVuSans-79" transform="scale(0.015625)"/>
       </defs>
       <use xlink:href="#DejaVuSans-4a"/>
       <use x="29.492188" xlink:href="#DejaVuSans-61"/>
       <use x="90.771484" xlink:href="#DejaVuSans-6e"/>
       <use x="154.150391" xlink:href="#DejaVuSans-75"/>
       <use x="217.529297" xlink:href="#DejaVuSans-61"/>
       <use x="278.808594" xlink:href="#DejaVuSans-72"/>
       <use x="319.921875" xlink:href="#DejaVuSans-79"/>
      </g>
     </g>
    </g>
    <g id="xtick_2">
     <g id="line2d_2">
      <g>
       <use style="stroke:#000000;stroke-width:0.8;" x="292.2" xlink:href="#ma6774d4a9a" y="768.96"/>
      </g>
     </g>
     <g id="text_2">
      <!-- February -->
      <g transform="translate(270.045313 783.558437)scale(0.1 -0.1)">
       <defs>
        <path d="M 628 4666 
L 3309 4666 
L 3309 4134 
L 1259 4134 
L 1259 2759 
L 3109 2759 
L 3109 2228 
L 1259 2228 
L 1259 0 
L 628 0 
L 628 4666 
z
" id="DejaVuSans-46" transform="scale(0.015625)"/>
        <path d="M 3597 1894 
L 3597 1613 
L 953 1613 
Q 991 1019 1311 708 
Q 1631 397 2203 397 
Q 2534 397 2845 478 
Q 3156 559 3463 722 
L 3463 178 
Q 3153 47 2828 -22 
Q 2503 -91 2169 -91 
Q 1331 -91 842 396 
Q 353 884 353 1716 
Q 353 2575 817 3079 
Q 1281 3584 2069 3584 
Q 2775 3584 3186 3129 
Q 3597 2675 3597 1894 
z
M 3022 2063 
Q 3016 2534 2758 2815 
Q 2500 3097 2075 3097 
Q 1594 3097 1305 2825 
Q 1016 2553 972 2059 
L 3022 2063 
z
" id="DejaVuSans-65" transform="scale(0.015625)"/>
        <path d="M 3116 1747 
Q 3116 2381 2855 2742 
Q 2594 3103 2138 3103 
Q 1681 3103 1420 2742 
Q 1159 2381 1159 1747 
Q 1159 1113 1420 752 
Q 1681 391 2138 391 
Q 2594 391 2855 752 
Q 3116 1113 3116 1747 
z
M 1159 2969 
Q 1341 3281 1617 3432 
Q 1894 3584 2278 3584 
Q 2916 3584 3314 3078 
Q 3713 2572 3713 1747 
Q 3713 922 3314 415 
Q 2916 -91 2278 -91 
Q 1894 -91 1617 61 
Q 1341 213 1159 525 
L 1159 0 
L 581 0 
L 581 4863 
L 1159 4863 
L 1159 2969 
z
" id="DejaVuSans-62" transform="scale(0.015625)"/>
       </defs>
       <use xlink:href="#DejaVuSans-46"/>
       <use x="52.019531" xlink:href="#DejaVuSans-65"/>
       <use x="113.542969" xlink:href="#DejaVuSans-62"/>
       <use x="177.019531" xlink:href="#DejaVuSans-72"/>
       <use x="218.132812" xlink:href="#DejaVuSans-75"/>
       <use x="281.511719" xlink:href="#DejaVuSans-61"/>
       <use x="342.791016" xlink:href="#DejaVuSans-72"/>
       <use x="383.904297" xlink:href="#DejaVuSans-79"/>
      </g>
     </g>
    </g>
    <g id="xtick_3">
     <g id="line2d_3">
      <g>
       <use style="stroke:#000000;stroke-width:0.8;" x="407.933333" xlink:href="#ma6774d4a9a" y="768.96"/>
      </g>
     </g>
     <g id="text_3">
      <!-- March -->
      <g transform="translate(392.694271 783.558437)scale(0.1 -0.1)">
       <defs>
        <path d="M 628 4666 
L 1569 4666 
L 2759 1491 
L 3956 4666 
L 4897 4666 
L 4897 0 
L 4281 0 
L 4281 4097 
L 3078 897 
L 2444 897 
L 1241 4097 
L 1241 0 
L 628 0 
L 628 4666 
z
" id="DejaVuSans-4d" transform="scale(0.015625)"/>
        <path d="M 3122 3366 
L 3122 2828 
Q 2878 2963 2633 3030 
Q 2388 3097 2138 3097 
Q 1578 3097 1268 2742 
Q 959 2388 959 1747 
Q 959 1106 1268 751 
Q 1578 397 2138 397 
Q 2388 397 2633 464 
Q 2878 531 3122 666 
L 3122 134 
Q 2881 22 2623 -34 
Q 2366 -91 2075 -91 
Q 1284 -91 818 406 
Q 353 903 353 1747 
Q 353 2603 823 3093 
Q 1294 3584 2113 3584 
Q 2378 3584 2631 3529 
Q 2884 3475 3122 3366 
z
" id="DejaVuSans-63" transform="scale(0.015625)"/>
        <path d="M 3513 2113 
L 3513 0 
L 2938 0 
L 2938 2094 
Q 2938 2591 2744 2837 
Q 2550 3084 2163 3084 
Q 1697 3084 1428 2787 
Q 1159 2491 1159 1978 
L 1159 0 
L 581 0 
L 581 4863 
L 1159 4863 
L 1159 2956 
Q 1366 3272 1645 3428 
Q 1925 3584 2291 3584 
Q 2894 3584 3203 3211 
Q 3513 2838 3513 2113 
z
" id="DejaVuSans-68" transform="scale(0.015625)"/>
       </defs>
       <use xlink:href="#DejaVuSans-4d"/>
       <use x="86.279297" xlink:href="#DejaVuSans-61"/>
       <use x="147.558594" xlink:href="#DejaVuSans-72"/>
       <use x="186.421875" xlink:href="#DejaVuSans-63"/>
       <use x="241.402344" xlink:href="#DejaVuSans-68"/>
      </g>
     </g>
    </g>
    <g id="xtick_4">
     <g id="line2d_4">
      <g>
       <use style="stroke:#000000;stroke-width:0.8;" x="536.066667" xlink:href="#ma6774d4a9a" y="768.96"/>
      </g>
     </g>
     <g id="text_4">
      <!-- April -->
      <g transform="translate(524.638542 783.558437)scale(0.1 -0.1)">
       <defs>
        <path d="M 2188 4044 
L 1331 1722 
L 3047 1722 
L 2188 4044 
z
M 1831 4666 
L 2547 4666 
L 4325 0 
L 3669 0 
L 3244 1197 
L 1141 1197 
L 716 0 
L 50 0 
L 1831 4666 
z
" id="DejaVuSans-41" transform="scale(0.015625)"/>
        <path d="M 1159 525 
L 1159 -1331 
L 581 -1331 
L 581 3500 
L 1159 3500 
L 1159 2969 
Q 1341 3281 1617 3432 
Q 1894 3584 2278 3584 
Q 2916 3584 3314 3078 
Q 3713 2572 3713 1747 
Q 3713 922 3314 415 
Q 2916 -91 2278 -91 
Q 1894 -91 1617 61 
Q 1341 213 1159 525 
z
M 3116 1747 
Q 3116 2381 2855 2742 
Q 2594 3103 2138 3103 
Q 1681 3103 1420 2742 
Q 1159 2381 1159 1747 
Q 1159 1113 1420 752 
Q 1681 391 2138 391 
Q 2594 391 2855 752 
Q 3116 1113 3116 1747 
z
" id="DejaVuSans-70" transform="scale(0.015625)"/>
        <path d="M 603 3500 
L 1178 3500 
L 1178 0 
L 603 0 
L 603 3500 
z
M 603 4863 
L 1178 4863 
L 1178 4134 
L 603 4134 
L 603 4863 
z
" id="DejaVuSans-69" transform="scale(0.015625)"/>
        <path d="M 603 4863 
L 1178 4863 
L 1178 0 
L 603 0 
L 603 4863 
z
" id="DejaVuSans-6c" transform="scale(0.015625)"/>
       </defs>
       <use xlink:href="#DejaVuSans-41"/>
       <use x="68.408203" xlink:href="#DejaVuSans-70"/>
       <use x="131.884766" xlink:href="#DejaVuSans-72"/>
       <use x="172.998047" xlink:href="#DejaVuSans-69"/>
       <use x="200.78125" xlink:href="#DejaVuSans-6c"/>
      </g>
     </g>
    </g>
    <g id="xtick_5">
     <g id="line2d_5">
      <g>
       <use style="stroke:#000000;stroke-width:0.8;" x="660.066667" xlink:href="#ma6774d4a9a" y="768.96"/>
      </g>
     </g>
     <g id="text_5">
      <!-- May -->
      <g transform="translate(649.729167 783.558437)scale(0.1 -0.1)">
       <use xlink:href="#DejaVuSans-4d"/>
       <use x="86.279297" xlink:href="#DejaVuSans-61"/>
       <use x="147.558594" xlink:href="#DejaVuSans-79"/>
      </g>
     </g>
    </g>
    <g id="xtick_6">
     <g id="line2d_6">
      <g>
       <use style="stroke:#000000;stroke-width:0.8;" x="788.2" xlink:href="#ma6774d4a9a" y="768.96"/>
      </g>
     </g>
     <g id="text_6">
      <!-- June -->
      <g transform="translate(777.310938 783.558437)scale(0.1 -0.1)">
       <use xlink:href="#DejaVuSans-4a"/>
       <use x="29.492188" xlink:href="#DejaVuSans-75"/>
       <use x="92.871094" xlink:href="#DejaVuSans-6e"/>
       <use x="156.25" xlink:href="#DejaVuSans-65"/>
      </g>
     </g>
    </g>
    <g id="xtick_7">
     <g id="line2d_7">
      <g>
       <use style="stroke:#000000;stroke-width:0.8;" x="912.2" xlink:href="#ma6774d4a9a" y="768.96"/>
      </g>
     </g>
     <g id="text_7">
      <!-- July -->
      <g transform="translate(903.207813 783.558437)scale(0.1 -0.1)">
       <use xlink:href="#DejaVuSans-4a"/>
       <use x="29.492188" xlink:href="#DejaVuSans-75"/>
       <use x="92.871094" xlink:href="#DejaVuSans-6c"/>
       <use x="120.654297" xlink:href="#DejaVuSans-79"/>
      </g>
     </g>
    </g>
    <g id="xtick_8">
     <g id="line2d_8">
      <g>
       <use style="stroke:#000000;stroke-width:0.8;" x="1040.333333" xlink:href="#ma6774d4a9a" y="768.96"/>
      </g>
     </g>
     <g id="text_8">
      <!-- August -->
      <g transform="translate(1022.836458 783.558437)scale(0.1 -0.1)">
       <defs>
        <path d="M 2906 1791 
Q 2906 2416 2648 2759 
Q 2391 3103 1925 3103 
Q 1463 3103 1205 2759 
Q 947 2416 947 1791 
Q 947 1169 1205 825 
Q 1463 481 1925 481 
Q 2391 481 2648 825 
Q 2906 1169 2906 1791 
z
M 3481 434 
Q 3481 -459 3084 -895 
Q 2688 -1331 1869 -1331 
Q 1566 -1331 1297 -1286 
Q 1028 -1241 775 -1147 
L 775 -588 
Q 1028 -725 1275 -790 
Q 1522 -856 1778 -856 
Q 2344 -856 2625 -561 
Q 2906 -266 2906 331 
L 2906 616 
Q 2728 306 2450 153 
Q 2172 0 1784 0 
Q 1141 0 747 490 
Q 353 981 353 1791 
Q 353 2603 747 3093 
Q 1141 3584 1784 3584 
Q 2172 3584 2450 3431 
Q 2728 3278 2906 2969 
L 2906 3500 
L 3481 3500 
L 3481 434 
z
" id="DejaVuSans-67" transform="scale(0.015625)"/>
        <path d="M 2834 3397 
L 2834 2853 
Q 2591 2978 2328 3040 
Q 2066 3103 1784 3103 
Q 1356 3103 1142 2972 
Q 928 2841 928 2578 
Q 928 2378 1081 2264 
Q 1234 2150 1697 2047 
L 1894 2003 
Q 2506 1872 2764 1633 
Q 3022 1394 3022 966 
Q 3022 478 2636 193 
Q 2250 -91 1575 -91 
Q 1294 -91 989 -36 
Q 684 19 347 128 
L 347 722 
Q 666 556 975 473 
Q 1284 391 1588 391 
Q 1994 391 2212 530 
Q 2431 669 2431 922 
Q 2431 1156 2273 1281 
Q 2116 1406 1581 1522 
L 1381 1569 
Q 847 1681 609 1914 
Q 372 2147 372 2553 
Q 372 3047 722 3315 
Q 1072 3584 1716 3584 
Q 2034 3584 2315 3537 
Q 2597 3491 2834 3397 
z
" id="DejaVuSans-73" transform="scale(0.015625)"/>
        <path d="M 1172 4494 
L 1172 3500 
L 2356 3500 
L 2356 3053 
L 1172 3053 
L 1172 1153 
Q 1172 725 1289 603 
Q 1406 481 1766 481 
L 2356 481 
L 2356 0 
L 1766 0 
Q 1100 0 847 248 
Q 594 497 594 1153 
L 594 3053 
L 172 3053 
L 172 3500 
L 594 3500 
L 594 4494 
L 1172 4494 
z
" id="DejaVuSans-74" transform="scale(0.015625)"/>
       </defs>
       <use xlink:href="#DejaVuSans-41"/>
       <use x="68.408203" xlink:href="#DejaVuSans-75"/>
       <use x="131.787109" xlink:href="#DejaVuSans-67"/>
       <use x="195.263672" xlink:href="#DejaVuSans-75"/>
       <use x="258.642578" xlink:href="#DejaVuSans-73"/>
       <use x="310.742188" xlink:href="#DejaVuSans-74"/>
      </g>
     </g>
    </g>
   </g>
   <g id="matplotlib.axis_2">
    <g id="ytick_1">
     <g id="line2d_9">
      <defs>
       <path d="M 0 0 
L -3.5 0 
" id="m9a81fc1fed" style="stroke:#000000;stroke-width:0.8;"/>
      </defs>
      <g>
       <use style="stroke:#000000;stroke-width:0.8;" x="162" xlink:href="#m9a81fc1fed" y="768.96"/>
      </g>
     </g>
     <g id="text_9">
      <!-- 0 -->
      <g transform="translate(148.6375 772.759219)scale(0.1 -0.1)">
       <defs>
        <path d="M 2034 4250 
Q 1547 4250 1301 3770 
Q 1056 3291 1056 2328 
Q 1056 1369 1301 889 
Q 1547 409 2034 409 
Q 2525 409 2770 889 
Q 3016 1369 3016 2328 
Q 3016 3291 2770 3770 
Q 2525 4250 2034 4250 
z
M 2034 4750 
Q 2819 4750 3233 4129 
Q 3647 3509 3647 2328 
Q 3647 1150 3233 529 
Q 2819 -91 2034 -91 
Q 1250 -91 836 529 
Q 422 1150 422 2328 
Q 422 3509 836 4129 
Q 1250 4750 2034 4750 
z
" id="DejaVuSans-30" transform="scale(0.015625)"/>
       </defs>
       <use xlink:href="#DejaVuSans-30"/>
      </g>
     </g>
    </g>
    <g id="ytick_2">
     <g id="line2d_10">
      <g>
       <use style="stroke:#000000;stroke-width:0.8;" x="162" xlink:href="#m9a81fc1fed" y="652.2502"/>
      </g>
     </g>
     <g id="text_10">
      <!-- 20000 -->
      <g transform="translate(123.1875 656.049418)scale(0.1 -0.1)">
       <defs>
        <path d="M 1228 531 
L 3431 531 
L 3431 0 
L 469 0 
L 469 531 
Q 828 903 1448 1529 
Q 2069 2156 2228 2338 
Q 2531 2678 2651 2914 
Q 2772 3150 2772 3378 
Q 2772 3750 2511 3984 
Q 2250 4219 1831 4219 
Q 1534 4219 1204 4116 
Q 875 4013 500 3803 
L 500 4441 
Q 881 4594 1212 4672 
Q 1544 4750 1819 4750 
Q 2544 4750 2975 4387 
Q 3406 4025 3406 3419 
Q 3406 3131 3298 2873 
Q 3191 2616 2906 2266 
Q 2828 2175 2409 1742 
Q 1991 1309 1228 531 
z
" id="DejaVuSans-32" transform="scale(0.015625)"/>
       </defs>
       <use xlink:href="#DejaVuSans-32"/>
       <use x="63.623047" xlink:href="#DejaVuSans-30"/>
       <use x="127.246094" xlink:href="#DejaVuSans-30"/>
       <use x="190.869141" xlink:href="#DejaVuSans-30"/>
       <use x="254.492188" xlink:href="#DejaVuSans-30"/>
      </g>
     </g>
    </g>
    <g id="ytick_3">
     <g id="line2d_11">
      <g>
       <use style="stroke:#000000;stroke-width:0.8;" x="162" xlink:href="#m9a81fc1fed" y="535.540399"/>
      </g>
     </g>
     <g id="text_11">
      <!-- 40000 -->
      <g transform="translate(123.1875 539.339618)scale(0.1 -0.1)">
       <defs>
        <path d="M 2419 4116 
L 825 1625 
L 2419 1625 
L 2419 4116 
z
M 2253 4666 
L 3047 4666 
L 3047 1625 
L 3713 1625 
L 3713 1100 
L 3047 1100 
L 3047 0 
L 2419 0 
L 2419 1100 
L 313 1100 
L 313 1709 
L 2253 4666 
z
" id="DejaVuSans-34" transform="scale(0.015625)"/>
       </defs>
       <use xlink:href="#DejaVuSans-34"/>
       <use x="63.623047" xlink:href="#DejaVuSans-30"/>
       <use x="127.246094" xlink:href="#DejaVuSans-30"/>
       <use x="190.869141" xlink:href="#DejaVuSans-30"/>
       <use x="254.492188" xlink:href="#DejaVuSans-30"/>
      </g>
     </g>
    </g>
    <g id="ytick_4">
     <g id="line2d_12">
      <g>
       <use style="stroke:#000000;stroke-width:0.8;" x="162" xlink:href="#m9a81fc1fed" y="418.830599"/>
      </g>
     </g>
     <g id="text_12">
      <!-- 60000 -->
      <g transform="translate(123.1875 422.629817)scale(0.1 -0.1)">
       <defs>
        <path d="M 2113 2584 
Q 1688 2584 1439 2293 
Q 1191 2003 1191 1497 
Q 1191 994 1439 701 
Q 1688 409 2113 409 
Q 2538 409 2786 701 
Q 3034 994 3034 1497 
Q 3034 2003 2786 2293 
Q 2538 2584 2113 2584 
z
M 3366 4563 
L 3366 3988 
Q 3128 4100 2886 4159 
Q 2644 4219 2406 4219 
Q 1781 4219 1451 3797 
Q 1122 3375 1075 2522 
Q 1259 2794 1537 2939 
Q 1816 3084 2150 3084 
Q 2853 3084 3261 2657 
Q 3669 2231 3669 1497 
Q 3669 778 3244 343 
Q 2819 -91 2113 -91 
Q 1303 -91 875 529 
Q 447 1150 447 2328 
Q 447 3434 972 4092 
Q 1497 4750 2381 4750 
Q 2619 4750 2861 4703 
Q 3103 4656 3366 4563 
z
" id="DejaVuSans-36" transform="scale(0.015625)"/>
       </defs>
       <use xlink:href="#DejaVuSans-36"/>
       <use x="63.623047" xlink:href="#DejaVuSans-30"/>
       <use x="127.246094" xlink:href="#DejaVuSans-30"/>
       <use x="190.869141" xlink:href="#DejaVuSans-30"/>
       <use x="254.492188" xlink:href="#DejaVuSans-30"/>
      </g>
     </g>
    </g>
    <g id="ytick_5">
     <g id="line2d_13">
      <g>
       <use style="stroke:#000000;stroke-width:0.8;" x="162" xlink:href="#m9a81fc1fed" y="302.120798"/>
      </g>
     </g>
     <g id="text_13">
      <!-- 80000 -->
      <g transform="translate(123.1875 305.920017)scale(0.1 -0.1)">
       <defs>
        <path d="M 2034 2216 
Q 1584 2216 1326 1975 
Q 1069 1734 1069 1313 
Q 1069 891 1326 650 
Q 1584 409 2034 409 
Q 2484 409 2743 651 
Q 3003 894 3003 1313 
Q 3003 1734 2745 1975 
Q 2488 2216 2034 2216 
z
M 1403 2484 
Q 997 2584 770 2862 
Q 544 3141 544 3541 
Q 544 4100 942 4425 
Q 1341 4750 2034 4750 
Q 2731 4750 3128 4425 
Q 3525 4100 3525 3541 
Q 3525 3141 3298 2862 
Q 3072 2584 2669 2484 
Q 3125 2378 3379 2068 
Q 3634 1759 3634 1313 
Q 3634 634 3220 271 
Q 2806 -91 2034 -91 
Q 1263 -91 848 271 
Q 434 634 434 1313 
Q 434 1759 690 2068 
Q 947 2378 1403 2484 
z
M 1172 3481 
Q 1172 3119 1398 2916 
Q 1625 2713 2034 2713 
Q 2441 2713 2670 2916 
Q 2900 3119 2900 3481 
Q 2900 3844 2670 4047 
Q 2441 4250 2034 4250 
Q 1625 4250 1398 4047 
Q 1172 3844 1172 3481 
z
" id="DejaVuSans-38" transform="scale(0.015625)"/>
       </defs>
       <use xlink:href="#DejaVuSans-38"/>
       <use x="63.623047" xlink:href="#DejaVuSans-30"/>
       <use x="127.246094" xlink:href="#DejaVuSans-30"/>
       <use x="190.869141" xlink:href="#DejaVuSans-30"/>
       <use x="254.492188" xlink:href="#DejaVuSans-30"/>
      </g>
     </g>
    </g>
    <g id="ytick_6">
     <g id="line2d_14">
      <g>
       <use style="stroke:#000000;stroke-width:0.8;" x="162" xlink:href="#m9a81fc1fed" y="185.410998"/>
      </g>
     </g>
     <g id="text_14">
      <!-- 100000 -->
      <g transform="translate(116.825 189.210217)scale(0.1 -0.1)">
       <defs>
        <path d="M 794 531 
L 1825 531 
L 1825 4091 
L 703 3866 
L 703 4441 
L 1819 4666 
L 2450 4666 
L 2450 531 
L 3481 531 
L 3481 0 
L 794 0 
L 794 531 
z
" id="DejaVuSans-31" transform="scale(0.015625)"/>
       </defs>
       <use xlink:href="#DejaVuSans-31"/>
       <use x="63.623047" xlink:href="#DejaVuSans-30"/>
       <use x="127.246094" xlink:href="#DejaVuSans-30"/>
       <use x="190.869141" xlink:href="#DejaVuSans-30"/>
       <use x="254.492188" xlink:href="#DejaVuSans-30"/>
       <use x="318.115234" xlink:href="#DejaVuSans-30"/>
      </g>
     </g>
    </g>
    <g id="text_15">
     <!-- Persons fully vaccinated -->
     <g transform="translate(110.745312 496.922344)rotate(-90)scale(0.1 -0.1)">
      <defs>
       <path d="M 1259 4147 
L 1259 2394 
L 2053 2394 
Q 2494 2394 2734 2622 
Q 2975 2850 2975 3272 
Q 2975 3691 2734 3919 
Q 2494 4147 2053 4147 
L 1259 4147 
z
M 628 4666 
L 2053 4666 
Q 2838 4666 3239 4311 
Q 3641 3956 3641 3272 
Q 3641 2581 3239 2228 
Q 2838 1875 2053 1875 
L 1259 1875 
L 1259 0 
L 628 0 
L 628 4666 
z
" id="DejaVuSans-50" transform="scale(0.015625)"/>
       <path d="M 1959 3097 
Q 1497 3097 1228 2736 
Q 959 2375 959 1747 
Q 959 1119 1226 758 
Q 1494 397 1959 397 
Q 2419 397 2687 759 
Q 2956 1122 2956 1747 
Q 2956 2369 2687 2733 
Q 2419 3097 1959 3097 
z
M 1959 3584 
Q 2709 3584 3137 3096 
Q 3566 2609 3566 1747 
Q 3566 888 3137 398 
Q 2709 -91 1959 -91 
Q 1206 -91 779 398 
Q 353 888 353 1747 
Q 353 2609 779 3096 
Q 1206 3584 1959 3584 
z
" id="DejaVuSans-6f" transform="scale(0.015625)"/>
       <path id="DejaVuSans-20" transform="scale(0.015625)"/>
       <path d="M 2375 4863 
L 2375 4384 
L 1825 4384 
Q 1516 4384 1395 4259 
Q 1275 4134 1275 3809 
L 1275 3500 
L 2222 3500 
L 2222 3053 
L 1275 3053 
L 1275 0 
L 697 0 
L 697 3053 
L 147 3053 
L 147 3500 
L 697 3500 
L 697 3744 
Q 697 4328 969 4595 
Q 1241 4863 1831 4863 
L 2375 4863 
z
" id="DejaVuSans-66" transform="scale(0.015625)"/>
       <path d="M 191 3500 
L 800 3500 
L 1894 563 
L 2988 3500 
L 3597 3500 
L 2284 0 
L 1503 0 
L 191 3500 
z
" id="DejaVuSans-76" transform="scale(0.015625)"/>
       <path d="M 2906 2969 
L 2906 4863 
L 3481 4863 
L 3481 0 
L 2906 0 
L 2906 525 
Q 2725 213 2448 61 
Q 2172 -91 1784 -91 
Q 1150 -91 751 415 
Q 353 922 353 1747 
Q 353 2572 751 3078 
Q 1150 3584 1784 3584 
Q 2172 3584 2448 3432 
Q 2725 3281 2906 2969 
z
M 947 1747 
Q 947 1113 1208 752 
Q 1469 391 1925 391 
Q 2381 391 2643 752 
Q 2906 1113 2906 1747 
Q 2906 2381 2643 2742 
Q 2381 3103 1925 3103 
Q 1469 3103 1208 2742 
Q 947 2381 947 1747 
z
" id="DejaVuSans-64" transform="scale(0.015625)"/>
      </defs>
      <use xlink:href="#DejaVuSans-50"/>
      <use x="56.677734" xlink:href="#DejaVuSans-65"/>
      <use x="118.201172" xlink:href="#DejaVuSans-72"/>
      <use x="159.314453" xlink:href="#DejaVuSans-73"/>
      <use x="211.414062" xlink:href="#DejaVuSans-6f"/>
      <use x="272.595703" xlink:href="#DejaVuSans-6e"/>
      <use x="335.974609" xlink:href="#DejaVuSans-73"/>
      <use x="388.074219" xlink:href="#DejaVuSans-20"/>
      <use x="419.861328" xlink:href="#DejaVuSans-66"/>
      <use x="455.066406" xlink:href="#DejaVuSans-75"/>
      <use x="518.445312" xlink:href="#DejaVuSans-6c"/>
      <use x="546.228516" xlink:href="#DejaVuSans-6c"/>
      <use x="574.011719" xlink:href="#DejaVuSans-79"/>
      <use x="633.191406" xlink:href="#DejaVuSans-20"/>
      <use x="664.978516" xlink:href="#DejaVuSans-76"/>
      <use x="724.158203" xlink:href="#DejaVuSans-61"/>
      <use x="785.4375" xlink:href="#DejaVuSans-63"/>
      <use x="840.417969" xlink:href="#DejaVuSans-63"/>
      <use x="895.398438" xlink:href="#DejaVuSans-69"/>
      <use x="923.181641" xlink:href="#DejaVuSans-6e"/>
      <use x="986.560547" xlink:href="#DejaVuSans-61"/>
      <use x="1047.839844" xlink:href="#DejaVuSans-74"/>
      <use x="1087.048828" xlink:href="#DejaVuSans-65"/>
      <use x="1148.572266" xlink:href="#DejaVuSans-64"/>
     </g>
    </g>
   </g>
   <g id="line2d_15">
    <path clip-path="url(#p94b4433754)" d="M 230.2 743.732343 
L 234.333333 743.49809 
L 238.466667 744.73438 
L 242.6 741.214746 
L 246.733333 740.320249 
L 250.866667 738.2053 
L 255 733.778664 
L 259.133333 725.714851 
L 263.266667 717.101667 
L 267.4 710.71514 
L 271.533333 703.980151 
L 275.666667 699.411796 
L 279.8 698.358074 
L 283.933333 698.403924 
L 288.066667 695.886327 
L 292.2 701.02656 
L 296.333333 700.827319 
L 300.466667 701.377523 
L 304.6 698.129656 
L 308.733333 698.503961 
L 312.866667 694.356595 
L 317 695.104371 
L 321.133333 689.249707 
L 325.266667 679.370223 
L 329.4 670.211004 
L 333.533333 667.199058 
L 337.666667 663.596059 
L 341.8 667.690906 
L 345.933333 668.582069 
L 350.066667 663.771958 
L 354.2 659.922202 
L 358.333333 654.0542 
L 362.466667 662.794096 
L 366.6 650.080231 
L 370.733333 641.664621 
L 374.866667 631.784302 
L 379 609.432708 
L 383.133333 592.734037 
L 387.266667 580.213576 
L 391.4 550.063267 
L 395.533333 553.219433 
L 399.666667 543.808455 
L 403.8 533.67471 
L 407.933333 539.463516 
L 412.066667 528.110987 
L 416.2 513.854051 
L 420.333333 508.287827 
L 424.466667 512.252626 
L 428.6 502.433163 
L 432.733333 491.02478 
L 436.866667 480.410858 
L 441 483.856298 
L 445.133333 477.174662 
L 449.266667 478.727736 
L 453.4 452.533888 
L 457.533333 452.857341 
L 461.666667 458.891238 
L 465.8 473.648358 
L 469.933333 487.051645 
L 474.066667 506.585531 
L 478.2 519.949637 
L 482.333333 545.1031 
L 486.466667 557.502683 
L 490.6 569.528794 
L 494.733333 576.169582 
L 498.866667 580.401146 
L 503 577.369192 
L 507.133333 564.006753 
L 515.4 560.771391 
L 519.533333 544.850507 
L 523.666667 536.18397 
L 527.8 521.295968 
L 531.933333 514.461776 
L 536.066667 513.33636 
L 540.2 517.621277 
L 544.333333 504.062099 
L 548.466667 489.208276 
L 552.6 462.23414 
L 556.733333 436.118655 
L 560.866667 395.877116 
L 565 373.817296 
L 569.133333 355.392987 
L 573.266667 342.167265 
L 577.4 337.149578 
L 581.533333 346.692271 
L 585.666667 349.584173 
L 589.8 368.308593 
L 593.933333 379.200119 
L 598.066667 379.280148 
L 602.2 387.783291 
L 606.333333 382.226237 
L 610.466667 375.907235 
L 614.6 386.205208 
L 618.733333 400.121184 
L 622.866667 412.081438 
L 627 425.478056 
L 631.133333 431.140982 
L 635.266667 447.087709 
L 639.4 453.044077 
L 643.533333 463.59631 
L 647.666667 476.533591 
L 651.8 494.664459 
L 655.933333 504.009579 
L 660.066667 517.747156 
L 664.2 511.233916 
L 668.333333 508.001054 
L 672.466667 517.252807 
L 676.6 498.479202 
L 680.733333 475.770809 
L 684.866667 443.79149 
L 689 432.734071 
L 693.133333 446.720073 
L 697.266667 463.684676 
L 701.4 464.710889 
L 705.533333 468.150493 
L 709.666667 477.802394 
L 713.8 502.847483 
L 717.933333 512.690288 
L 722.066667 513.52643 
L 726.2 514.778559 
L 730.333333 501.208544 
L 734.466667 525.794297 
L 738.6 530.691941 
L 742.733333 530.994552 
L 746.866667 532.736863 
L 751 549.634775 
L 755.133333 561.825947 
L 759.266667 589.080186 
L 763.4 598.685403 
L 767.533333 609.41937 
L 771.666667 612.519683 
L 775.8 626.959186 
L 779.933333 637.649804 
L 784.066667 647.616821 
L 788.2 648.661373 
L 792.333333 644.334774 
L 800.6 625.937975 
L 804.733333 606.484119 
L 808.866667 593.433462 
L 813 576.477195 
L 817.133333 580.176896 
L 821.266667 588.635856 
L 825.4 602.471802 
L 829.533333 608.449011 
L 833.666667 594.508026 
L 837.8 593.102506 
L 841.933333 606.023949 
L 846.066667 602.175026 
L 850.2 611.145842 
L 854.333333 604.084065 
L 858.466667 608.721612 
L 862.6 638.860251 
L 866.733333 656.108292 
L 870.866667 661.054287 
L 875 669.10893 
L 883.266667 611.179187 
L 887.4 615.492448 
L 891.533333 615.157324 
L 895.666667 614.664642 
L 899.8 617.451505 
L 903.933333 624.910095 
L 908.066667 655.631449 
L 912.2 695.840476 
L 916.333333 696.013874 
L 920.466667 706.178464 
L 924.6 712.81425 
L 928.733333 713.764601 
L 932.866667 713.353616 
L 937 714.477364 
L 941.133333 714.281459 
L 945.266667 712.43661 
L 949.4 701.892713 
L 953.533333 699.355109 
L 961.8 705.450695 
L 965.933333 707.022109 
L 970.066667 708.419292 
L 974.2 709.372978 
L 978.333333 713.104357 
L 982.466667 712.361582 
L 986.6 711.898911 
L 994.866667 715.867045 
L 999 718.988198 
L 1003.133333 721.532472 
L 1007.266667 724.901217 
L 1011.4 725.428912 
L 1015.533333 718.802296 
L 1019.666667 717.292571 
L 1023.8 706.180131 
L 1027.933333 703.933467 
L 1036.2 699.042493 
L 1040.333333 699.533508 
L 1044.466667 707.195506 
L 1048.6 706.89873 
L 1052.733333 715.858708 
L 1056.866667 707.794061 
L 1061 707.031279 
L 1065.133333 707.241357 
L 1069.266667 710.145763 
L 1073.4 696.327323 
L 1077.533333 685.427461 
L 1085.8 668.572899 
L 1089.933333 658.482503 
L 1094.066667 657.268721 
L 1098.2 652.541974 
L 1102.333333 664.487222 
L 1106.466667 674.320023 
L 1110.6 682.552232 
L 1114.733333 695.948016 
L 1118.866667 705.333151 
L 1123 705.235615 
L 1127.133333 705.354826 
L 1131.266667 705.280632 
L 1135.4 670.026769 
L 1139.533333 668.850501 
L 1143.666667 667.874307 
L 1147.8 666.683867 
L 1151.933333 665.940259 
L 1156.066667 665.982775 
L 1156.066667 665.982775 
" style="fill:none;stroke:#ffa500;stroke-linecap:square;stroke-width:1.5;"/>
   </g>
   <g id="patch_246">
    <path d="M 162 768.96 
L 162 103.68 
" style="fill:none;stroke:#000000;stroke-linecap:square;stroke-linejoin:miter;stroke-width:0.8;"/>
   </g>
   <g id="patch_247">
    <path d="M 1166.4 768.96 
L 1166.4 103.68 
" style="fill:none;stroke:#000000;stroke-linecap:square;stroke-linejoin:miter;stroke-width:0.8;"/>
   </g>
   <g id="patch_248">
    <path d="M 162 768.96 
L 1166.4 768.96 
" style="fill:none;stroke:#000000;stroke-linecap:square;stroke-linejoin:miter;stroke-width:0.8;"/>
   </g>
   <g id="patch_249">
    <path d="M 162 103.68 
L 1166.4 103.68 
" style="fill:none;stroke:#000000;stroke-linecap:square;stroke-linejoin:miter;stroke-width:0.8;"/>
   </g>
   <g id="text_16">
    <!-- Persons Fully Vaccinated -->
    <g transform="translate(590.380313 97.68)scale(0.12 -0.12)">
     <defs>
      <path d="M 1831 0 
L 50 4666 
L 709 4666 
L 2188 738 
L 3669 4666 
L 4325 4666 
L 2547 0 
L 1831 0 
z
" id="DejaVuSans-56" transform="scale(0.015625)"/>
     </defs>
     <use xlink:href="#DejaVuSans-50"/>
     <use x="56.677734" xlink:href="#DejaVuSans-65"/>
     <use x="118.201172" xlink:href="#DejaVuSans-72"/>
     <use x="159.314453" xlink:href="#DejaVuSans-73"/>
     <use x="211.414062" xlink:href="#DejaVuSans-6f"/>
     <use x="272.595703" xlink:href="#DejaVuSans-6e"/>
     <use x="335.974609" xlink:href="#DejaVuSans-73"/>
     <use x="388.074219" xlink:href="#DejaVuSans-20"/>
     <use x="419.861328" xlink:href="#DejaVuSans-46"/>
     <use x="471.880859" xlink:href="#DejaVuSans-75"/>
     <use x="535.259766" xlink:href="#DejaVuSans-6c"/>
     <use x="563.042969" xlink:href="#DejaVuSans-6c"/>
     <use x="590.826172" xlink:href="#DejaVuSans-79"/>
     <use x="650.005859" xlink:href="#DejaVuSans-20"/>
     <use x="681.792969" xlink:href="#DejaVuSans-56"/>
     <use x="742.451172" xlink:href="#DejaVuSans-61"/>
     <use x="803.730469" xlink:href="#DejaVuSans-63"/>
     <use x="858.710938" xlink:href="#DejaVuSans-63"/>
     <use x="913.691406" xlink:href="#DejaVuSans-69"/>
     <use x="941.474609" xlink:href="#DejaVuSans-6e"/>
     <use x="1004.853516" xlink:href="#DejaVuSans-61"/>
     <use x="1066.132812" xlink:href="#DejaVuSans-74"/>
     <use x="1105.341797" xlink:href="#DejaVuSans-65"/>
     <use x="1166.865234" xlink:href="#DejaVuSans-64"/>
    </g>
   </g>
  </g>
 </g>
 <defs>
  <clipPath id="p94b4433754">
   <rect height="665.28" width="1004.4" x="162" y="103.68"/>
  </clipPath>
 </defs>
</svg>
