<?xml version="1.0" encoding="utf-8" standalone="no"?>
<!DOCTYPE svg PUBLIC "-//W3C//DTD SVG 1.1//EN"
  "http://www.w3.org/Graphics/SVG/1.1/DTD/svg11.dtd">
<svg height="864pt" version="1.1" viewBox="0 0 1296 864" width="1296pt" xmlns="http://www.w3.org/2000/svg" xmlns:xlink="http://www.w3.org/1999/xlink">
 <metadata>
  <rdf:RDF xmlns:cc="http://creativecommons.org/ns#" xmlns:dc="http://purl.org/dc/elements/1.1/" xmlns:rdf="http://www.w3.org/1999/02/22-rdf-syntax-ns#">
   <cc:Work>
    <dc:type rdf:resource="http://purl.org/dc/dcmitype/StillImage"/>
    <dc:date>2021-11-06T13:12:26.391422</dc:date>
    <dc:format>image/svg+xml</dc:format>
    <dc:creator>
     <cc:Agent>
      <dc:title>Matplotlib v3.4.2, https://matplotlib.org/</dc:title>
     </cc:Agent>
    </dc:creator>
   </cc:Work>
  </rdf:RDF>
 </metadata>
 <defs>
  <style type="text/css">*{stroke-linecap:butt;stroke-linejoin:round;}</style>
 </defs>
 <g id="figure_1">
  <g id="patch_1">
   <path d="M 0 864 
L 1296 864 
L 1296 0 
L 0 0 
z
" style="fill:#ffffff;"/>
  </g>
  <g id="axes_1">
   <g id="patch_2">
    <path d="M 162 768.96 
L 1166.4 768.96 
L 1166.4 103.68 
L 162 103.68 
z
" style="fill:#ffffff;"/>
   </g>
   <g id="patch_3">
    <path clip-path="url(#p97fbbbefb1)" d="M 162.820588 768.96 
L 164.461765 768.96 
L 164.461765 768.95731 
L 162.820588 768.95731 
z
" style="fill:#1f77b4;"/>
   </g>
   <g id="patch_4">
    <path clip-path="url(#p97fbbbefb1)" d="M 166.102941 768.96 
L 167.744118 768.96 
L 167.744118 768.946468 
L 166.102941 768.946468 
z
" style="fill:#1f77b4;"/>
   </g>
   <g id="patch_5">
    <path clip-path="url(#p97fbbbefb1)" d="M 169.385294 768.96 
L 171.026471 768.96 
L 171.026471 768.917516 
L 169.385294 768.917516 
z
" style="fill:#1f77b4;"/>
   </g>
   <g id="patch_6">
    <path clip-path="url(#p97fbbbefb1)" d="M 172.667647 768.96 
L 174.308824 768.96 
L 174.308824 768.716581 
L 172.667647 768.716581 
z
" style="fill:#1f77b4;"/>
   </g>
   <g id="patch_7">
    <path clip-path="url(#p97fbbbefb1)" d="M 175.95 768.96 
L 177.591176 768.96 
L 177.591176 767.269118 
L 175.95 767.269118 
z
" style="fill:#1f77b4;"/>
   </g>
   <g id="patch_8">
    <path clip-path="url(#p97fbbbefb1)" d="M 179.232353 768.96 
L 180.873529 768.96 
L 180.873529 765.535352 
L 179.232353 765.535352 
z
" style="fill:#1f77b4;"/>
   </g>
   <g id="patch_9">
    <path clip-path="url(#p97fbbbefb1)" d="M 182.514706 768.96 
L 184.155882 768.96 
L 184.155882 764.58866 
L 182.514706 764.58866 
z
" style="fill:#1f77b4;"/>
   </g>
   <g id="patch_10">
    <path clip-path="url(#p97fbbbefb1)" d="M 185.797059 768.96 
L 187.438235 768.96 
L 187.438235 764.014727 
L 185.797059 764.014727 
z
" style="fill:#1f77b4;"/>
   </g>
   <g id="patch_11">
    <path clip-path="url(#p97fbbbefb1)" d="M 189.079412 768.96 
L 190.720588 768.96 
L 190.720588 763.113009 
L 189.079412 763.113009 
z
" style="fill:#1f77b4;"/>
   </g>
   <g id="patch_12">
    <path clip-path="url(#p97fbbbefb1)" d="M 192.361765 768.96 
L 194.002941 768.96 
L 194.002941 762.253695 
L 192.361765 762.253695 
z
" style="fill:#1f77b4;"/>
   </g>
   <g id="patch_13">
    <path clip-path="url(#p97fbbbefb1)" d="M 195.644118 768.96 
L 197.285294 768.96 
L 197.285294 761.552189 
L 195.644118 761.552189 
z
" style="fill:#1f77b4;"/>
   </g>
   <g id="patch_14">
    <path clip-path="url(#p97fbbbefb1)" d="M 198.926471 768.96 
L 200.567647 768.96 
L 200.567647 760.693075 
L 198.926471 760.693075 
z
" style="fill:#1f77b4;"/>
   </g>
   <g id="patch_15">
    <path clip-path="url(#p97fbbbefb1)" d="M 202.208824 768.96 
L 203.85 768.96 
L 203.85 760.513904 
L 202.208824 760.513904 
z
" style="fill:#1f77b4;"/>
   </g>
   <g id="patch_16">
    <path clip-path="url(#p97fbbbefb1)" d="M 205.491176 768.96 
L 207.132353 768.96 
L 207.132353 760.403358 
L 205.491176 760.403358 
z
" style="fill:#1f77b4;"/>
   </g>
   <g id="patch_17">
    <path clip-path="url(#p97fbbbefb1)" d="M 208.773529 768.96 
L 210.414706 768.96 
L 210.414706 760.350996 
L 208.773529 760.350996 
z
" style="fill:#1f77b4;"/>
   </g>
   <g id="patch_18">
    <path clip-path="url(#p97fbbbefb1)" d="M 212.055882 768.96 
L 213.697059 768.96 
L 213.697059 760.111191 
L 212.055882 760.111191 
z
" style="fill:#1f77b4;"/>
   </g>
   <g id="patch_19">
    <path clip-path="url(#p97fbbbefb1)" d="M 215.338235 768.96 
L 216.979412 768.96 
L 216.979412 759.707434 
L 215.338235 759.707434 
z
" style="fill:#1f77b4;"/>
   </g>
   <g id="patch_20">
    <path clip-path="url(#p97fbbbefb1)" d="M 218.620588 768.96 
L 220.261765 768.96 
L 220.261765 758.921001 
L 218.620588 758.921001 
z
" style="fill:#1f77b4;"/>
   </g>
   <g id="patch_21">
    <path clip-path="url(#p97fbbbefb1)" d="M 221.902941 768.96 
L 223.544118 768.96 
L 223.544118 758.139426 
L 221.902941 758.139426 
z
" style="fill:#1f77b4;"/>
   </g>
   <g id="patch_22">
    <path clip-path="url(#p97fbbbefb1)" d="M 225.185294 768.96 
L 226.826471 768.96 
L 226.826471 757.576575 
L 225.185294 757.576575 
z
" style="fill:#1f77b4;"/>
   </g>
   <g id="patch_23">
    <path clip-path="url(#p97fbbbefb1)" d="M 228.467647 768.96 
L 230.108824 768.96 
L 230.108824 757.372709 
L 228.467647 757.372709 
z
" style="fill:#1f77b4;"/>
   </g>
   <g id="patch_24">
    <path clip-path="url(#p97fbbbefb1)" d="M 231.75 768.96 
L 233.391176 768.96 
L 233.391176 757.093753 
L 231.75 757.093753 
z
" style="fill:#1f77b4;"/>
   </g>
   <g id="patch_25">
    <path clip-path="url(#p97fbbbefb1)" d="M 235.032353 768.96 
L 236.673529 768.96 
L 236.673529 756.349001 
L 235.032353 756.349001 
z
" style="fill:#1f77b4;"/>
   </g>
   <g id="patch_26">
    <path clip-path="url(#p97fbbbefb1)" d="M 238.314706 768.96 
L 239.955882 768.96 
L 239.955882 755.109781 
L 238.314706 755.109781 
z
" style="fill:#1f77b4;"/>
   </g>
   <g id="patch_27">
    <path clip-path="url(#p97fbbbefb1)" d="M 241.597059 768.96 
L 243.238235 768.96 
L 243.238235 753.390028 
L 241.597059 753.390028 
z
" style="fill:#1f77b4;"/>
   </g>
   <g id="patch_28">
    <path clip-path="url(#p97fbbbefb1)" d="M 244.879412 768.96 
L 246.520588 768.96 
L 246.520588 751.938309 
L 244.879412 751.938309 
z
" style="fill:#1f77b4;"/>
   </g>
   <g id="patch_29">
    <path clip-path="url(#p97fbbbefb1)" d="M 248.161765 768.96 
L 249.802941 768.96 
L 249.802941 750.626289 
L 248.161765 750.626289 
z
" style="fill:#1f77b4;"/>
   </g>
   <g id="patch_30">
    <path clip-path="url(#p97fbbbefb1)" d="M 251.444118 768.96 
L 253.085294 768.96 
L 253.085294 749.901052 
L 251.444118 749.901052 
z
" style="fill:#1f77b4;"/>
   </g>
   <g id="patch_31">
    <path clip-path="url(#p97fbbbefb1)" d="M 254.726471 768.96 
L 256.367647 768.96 
L 256.367647 749.494604 
L 254.726471 749.494604 
z
" style="fill:#1f77b4;"/>
   </g>
   <g id="patch_32">
    <path clip-path="url(#p97fbbbefb1)" d="M 258.008824 768.96 
L 259.65 768.96 
L 259.65 748.788441 
L 258.008824 748.788441 
z
" style="fill:#1f77b4;"/>
   </g>
   <g id="patch_33">
    <path clip-path="url(#p97fbbbefb1)" d="M 261.291176 768.96 
L 262.932353 768.96 
L 262.932353 747.259343 
L 261.291176 747.259343 
z
" style="fill:#1f77b4;"/>
   </g>
   <g id="patch_34">
    <path clip-path="url(#p97fbbbefb1)" d="M 264.573529 768.96 
L 266.214706 768.96 
L 266.214706 746.123482 
L 264.573529 746.123482 
z
" style="fill:#1f77b4;"/>
   </g>
   <g id="patch_35">
    <path clip-path="url(#p97fbbbefb1)" d="M 267.855882 768.96 
L 269.497059 768.96 
L 269.497059 744.573946 
L 267.855882 744.573946 
z
" style="fill:#1f77b4;"/>
   </g>
   <g id="patch_36">
    <path clip-path="url(#p97fbbbefb1)" d="M 271.138235 768.96 
L 272.779412 768.96 
L 272.779412 743.354844 
L 271.138235 743.354844 
z
" style="fill:#1f77b4;"/>
   </g>
   <g id="patch_37">
    <path clip-path="url(#p97fbbbefb1)" d="M 274.420588 768.96 
L 276.061765 768.96 
L 276.061765 742.271907 
L 274.420588 742.271907 
z
" style="fill:#1f77b4;"/>
   </g>
   <g id="patch_38">
    <path clip-path="url(#p97fbbbefb1)" d="M 277.702941 768.96 
L 279.344118 768.96 
L 279.344118 741.901639 
L 277.702941 741.901639 
z
" style="fill:#1f77b4;"/>
   </g>
   <g id="patch_39">
    <path clip-path="url(#p97fbbbefb1)" d="M 280.985294 768.96 
L 282.626471 768.96 
L 282.626471 740.64708 
L 280.985294 740.64708 
z
" style="fill:#1f77b4;"/>
   </g>
   <g id="patch_40">
    <path clip-path="url(#p97fbbbefb1)" d="M 284.267647 768.96 
L 285.908824 768.96 
L 285.908824 739.101399 
L 284.267647 739.101399 
z
" style="fill:#1f77b4;"/>
   </g>
   <g id="patch_41">
    <path clip-path="url(#p97fbbbefb1)" d="M 287.55 768.96 
L 289.191176 768.96 
L 289.191176 737.234197 
L 287.55 737.234197 
z
" style="fill:#1f77b4;"/>
   </g>
   <g id="patch_42">
    <path clip-path="url(#p97fbbbefb1)" d="M 290.832353 768.96 
L 292.473529 768.96 
L 292.473529 734.571287 
L 290.832353 734.571287 
z
" style="fill:#1f77b4;"/>
   </g>
   <g id="patch_43">
    <path clip-path="url(#p97fbbbefb1)" d="M 294.114706 768.96 
L 295.755882 768.96 
L 295.755882 732.164323 
L 294.114706 732.164323 
z
" style="fill:#1f77b4;"/>
   </g>
   <g id="patch_44">
    <path clip-path="url(#p97fbbbefb1)" d="M 297.397059 768.96 
L 299.038235 768.96 
L 299.038235 730.656227 
L 297.397059 730.656227 
z
" style="fill:#1f77b4;"/>
   </g>
   <g id="patch_45">
    <path clip-path="url(#p97fbbbefb1)" d="M 300.679412 768.96 
L 302.320588 768.96 
L 302.320588 729.841284 
L 300.679412 729.841284 
z
" style="fill:#1f77b4;"/>
   </g>
   <g id="patch_46">
    <path clip-path="url(#p97fbbbefb1)" d="M 303.961765 768.96 
L 305.602941 768.96 
L 305.602941 729.050193 
L 303.961765 729.050193 
z
" style="fill:#1f77b4;"/>
   </g>
   <g id="patch_47">
    <path clip-path="url(#p97fbbbefb1)" d="M 307.244118 768.96 
L 308.885294 768.96 
L 308.885294 727.503909 
L 307.244118 727.503909 
z
" style="fill:#1f77b4;"/>
   </g>
   <g id="patch_48">
    <path clip-path="url(#p97fbbbefb1)" d="M 310.526471 768.96 
L 312.167647 768.96 
L 312.167647 724.941265 
L 310.526471 724.941265 
z
" style="fill:#1f77b4;"/>
   </g>
   <g id="patch_49">
    <path clip-path="url(#p97fbbbefb1)" d="M 313.808824 768.96 
L 315.45 768.96 
L 315.45 721.598372 
L 313.808824 721.598372 
z
" style="fill:#1f77b4;"/>
   </g>
   <g id="patch_50">
    <path clip-path="url(#p97fbbbefb1)" d="M 317.091176 768.96 
L 318.732353 768.96 
L 318.732353 718.445532 
L 317.091176 718.445532 
z
" style="fill:#1f77b4;"/>
   </g>
   <g id="patch_51">
    <path clip-path="url(#p97fbbbefb1)" d="M 320.373529 768.96 
L 322.014706 768.96 
L 322.014706 717.940825 
L 320.373529 717.940825 
z
" style="fill:#1f77b4;"/>
   </g>
   <g id="patch_52">
    <path clip-path="url(#p97fbbbefb1)" d="M 323.655882 768.96 
L 325.297059 768.96 
L 325.297059 715.632241 
L 323.655882 715.632241 
z
" style="fill:#1f77b4;"/>
   </g>
   <g id="patch_53">
    <path clip-path="url(#p97fbbbefb1)" d="M 326.938235 768.96 
L 328.579412 768.96 
L 328.579412 713.778612 
L 326.938235 713.778612 
z
" style="fill:#1f77b4;"/>
   </g>
   <g id="patch_54">
    <path clip-path="url(#p97fbbbefb1)" d="M 330.220588 768.96 
L 331.861765 768.96 
L 331.861765 710.994112 
L 330.220588 710.994112 
z
" style="fill:#1f77b4;"/>
   </g>
   <g id="patch_55">
    <path clip-path="url(#p97fbbbefb1)" d="M 333.502941 768.96 
L 335.144118 768.96 
L 335.144118 705.682707 
L 333.502941 705.682707 
z
" style="fill:#1f77b4;"/>
   </g>
   <g id="patch_56">
    <path clip-path="url(#p97fbbbefb1)" d="M 336.785294 768.96 
L 338.426471 768.96 
L 338.426471 700.11684 
L 336.785294 700.11684 
z
" style="fill:#1f77b4;"/>
   </g>
   <g id="patch_57">
    <path clip-path="url(#p97fbbbefb1)" d="M 340.067647 768.96 
L 341.708824 768.96 
L 341.708824 695.247178 
L 340.067647 695.247178 
z
" style="fill:#1f77b4;"/>
   </g>
   <g id="patch_58">
    <path clip-path="url(#p97fbbbefb1)" d="M 343.35 768.96 
L 344.991176 768.96 
L 344.991176 691.051115 
L 343.35 691.051115 
z
" style="fill:#1f77b4;"/>
   </g>
   <g id="patch_59">
    <path clip-path="url(#p97fbbbefb1)" d="M 346.632353 768.96 
L 348.273529 768.96 
L 348.273529 689.069833 
L 346.632353 689.069833 
z
" style="fill:#1f77b4;"/>
   </g>
   <g id="patch_60">
    <path clip-path="url(#p97fbbbefb1)" d="M 349.914706 768.96 
L 351.555882 768.96 
L 351.555882 686.045448 
L 349.914706 686.045448 
z
" style="fill:#1f77b4;"/>
   </g>
   <g id="patch_61">
    <path clip-path="url(#p97fbbbefb1)" d="M 353.197059 768.96 
L 354.838235 768.96 
L 354.838235 681.914476 
L 353.197059 681.914476 
z
" style="fill:#1f77b4;"/>
   </g>
   <g id="patch_62">
    <path clip-path="url(#p97fbbbefb1)" d="M 356.479412 768.96 
L 358.120588 768.96 
L 358.120588 677.196961 
L 356.479412 677.196961 
z
" style="fill:#1f77b4;"/>
   </g>
   <g id="patch_63">
    <path clip-path="url(#p97fbbbefb1)" d="M 359.761765 768.96 
L 361.402941 768.96 
L 361.402941 670.338187 
L 359.761765 670.338187 
z
" style="fill:#1f77b4;"/>
   </g>
   <g id="patch_64">
    <path clip-path="url(#p97fbbbefb1)" d="M 363.044118 768.96 
L 364.685294 768.96 
L 364.685294 663.945612 
L 363.044118 663.945612 
z
" style="fill:#1f77b4;"/>
   </g>
   <g id="patch_65">
    <path clip-path="url(#p97fbbbefb1)" d="M 366.326471 768.96 
L 367.967647 768.96 
L 367.967647 659.133412 
L 366.326471 659.133412 
z
" style="fill:#1f77b4;"/>
   </g>
   <g id="patch_66">
    <path clip-path="url(#p97fbbbefb1)" d="M 369.608824 768.96 
L 371.25 768.96 
L 371.25 657.616762 
L 369.608824 657.616762 
z
" style="fill:#1f77b4;"/>
   </g>
   <g id="patch_67">
    <path clip-path="url(#p97fbbbefb1)" d="M 372.891176 768.96 
L 374.532353 768.96 
L 374.532353 653.503699 
L 372.891176 653.503699 
z
" style="fill:#1f77b4;"/>
   </g>
   <g id="patch_68">
    <path clip-path="url(#p97fbbbefb1)" d="M 376.173529 768.96 
L 377.814706 768.96 
L 377.814706 648.157278 
L 376.173529 648.157278 
z
" style="fill:#1f77b4;"/>
   </g>
   <g id="patch_69">
    <path clip-path="url(#p97fbbbefb1)" d="M 379.455882 768.96 
L 381.097059 768.96 
L 381.097059 642.226323 
L 379.455882 642.226323 
z
" style="fill:#1f77b4;"/>
   </g>
   <g id="patch_70">
    <path clip-path="url(#p97fbbbefb1)" d="M 382.738235 768.96 
L 384.379412 768.96 
L 384.379412 635.90173 
L 382.738235 635.90173 
z
" style="fill:#1f77b4;"/>
   </g>
   <g id="patch_71">
    <path clip-path="url(#p97fbbbefb1)" d="M 386.020588 768.96 
L 387.661765 768.96 
L 387.661765 628.764282 
L 386.020588 628.764282 
z
" style="fill:#1f77b4;"/>
   </g>
   <g id="patch_72">
    <path clip-path="url(#p97fbbbefb1)" d="M 389.302941 768.96 
L 390.944118 768.96 
L 390.944118 624.132136 
L 389.302941 624.132136 
z
" style="fill:#1f77b4;"/>
   </g>
   <g id="patch_73">
    <path clip-path="url(#p97fbbbefb1)" d="M 392.585294 768.96 
L 394.226471 768.96 
L 394.226471 619.555364 
L 392.585294 619.555364 
z
" style="fill:#1f77b4;"/>
   </g>
   <g id="patch_74">
    <path clip-path="url(#p97fbbbefb1)" d="M 395.867647 768.96 
L 397.508824 768.96 
L 397.508824 615.494903 
L 395.867647 615.494903 
z
" style="fill:#1f77b4;"/>
   </g>
   <g id="patch_75">
    <path clip-path="url(#p97fbbbefb1)" d="M 399.15 768.96 
L 400.791176 768.96 
L 400.791176 610.9099 
L 399.15 610.9099 
z
" style="fill:#1f77b4;"/>
   </g>
   <g id="patch_76">
    <path clip-path="url(#p97fbbbefb1)" d="M 402.432353 768.96 
L 404.073529 768.96 
L 404.073529 606.804224 
L 402.432353 606.804224 
z
" style="fill:#1f77b4;"/>
   </g>
   <g id="patch_77">
    <path clip-path="url(#p97fbbbefb1)" d="M 405.714706 768.96 
L 407.355882 768.96 
L 407.355882 602.135337 
L 405.714706 602.135337 
z
" style="fill:#1f77b4;"/>
   </g>
   <g id="patch_78">
    <path clip-path="url(#p97fbbbefb1)" d="M 408.997059 768.96 
L 410.638235 768.96 
L 410.638235 597.368432 
L 408.997059 597.368432 
z
" style="fill:#1f77b4;"/>
   </g>
   <g id="patch_79">
    <path clip-path="url(#p97fbbbefb1)" d="M 412.279412 768.96 
L 413.920588 768.96 
L 413.920588 594.569717 
L 412.279412 594.569717 
z
" style="fill:#1f77b4;"/>
   </g>
   <g id="patch_80">
    <path clip-path="url(#p97fbbbefb1)" d="M 415.561765 768.96 
L 417.202941 768.96 
L 417.202941 593.027208 
L 415.561765 593.027208 
z
" style="fill:#1f77b4;"/>
   </g>
   <g id="patch_81">
    <path clip-path="url(#p97fbbbefb1)" d="M 418.844118 768.96 
L 420.485294 768.96 
L 420.485294 590.472716 
L 418.844118 590.472716 
z
" style="fill:#1f77b4;"/>
   </g>
   <g id="patch_82">
    <path clip-path="url(#p97fbbbefb1)" d="M 422.126471 768.96 
L 423.767647 768.96 
L 423.767647 587.420785 
L 422.126471 587.420785 
z
" style="fill:#1f77b4;"/>
   </g>
   <g id="patch_83">
    <path clip-path="url(#p97fbbbefb1)" d="M 425.408824 768.96 
L 427.05 768.96 
L 427.05 584.232408 
L 425.408824 584.232408 
z
" style="fill:#1f77b4;"/>
   </g>
   <g id="patch_84">
    <path clip-path="url(#p97fbbbefb1)" d="M 428.691176 768.96 
L 430.332353 768.96 
L 430.332353 580.086096 
L 428.691176 580.086096 
z
" style="fill:#1f77b4;"/>
   </g>
   <g id="patch_85">
    <path clip-path="url(#p97fbbbefb1)" d="M 431.973529 768.96 
L 433.614706 768.96 
L 433.614706 574.948802 
L 431.973529 574.948802 
z
" style="fill:#1f77b4;"/>
   </g>
   <g id="patch_86">
    <path clip-path="url(#p97fbbbefb1)" d="M 435.255882 768.96 
L 436.897059 768.96 
L 436.897059 570.512251 
L 435.255882 570.512251 
z
" style="fill:#1f77b4;"/>
   </g>
   <g id="patch_87">
    <path clip-path="url(#p97fbbbefb1)" d="M 438.538235 768.96 
L 440.179412 768.96 
L 440.179412 568.753788 
L 438.538235 568.753788 
z
" style="fill:#1f77b4;"/>
   </g>
   <g id="patch_88">
    <path clip-path="url(#p97fbbbefb1)" d="M 441.820588 768.96 
L 443.461765 768.96 
L 443.461765 566.066504 
L 441.820588 566.066504 
z
" style="fill:#1f77b4;"/>
   </g>
   <g id="patch_89">
    <path clip-path="url(#p97fbbbefb1)" d="M 445.102941 768.96 
L 446.744118 768.96 
L 446.744118 561.189936 
L 445.102941 561.189936 
z
" style="fill:#1f77b4;"/>
   </g>
   <g id="patch_90">
    <path clip-path="url(#p97fbbbefb1)" d="M 448.385294 768.96 
L 450.026471 768.96 
L 450.026471 557.075627 
L 448.385294 557.075627 
z
" style="fill:#1f77b4;"/>
   </g>
   <g id="patch_91">
    <path clip-path="url(#p97fbbbefb1)" d="M 451.667647 768.96 
L 453.308824 768.96 
L 453.308824 551.363837 
L 451.667647 551.363837 
z
" style="fill:#1f77b4;"/>
   </g>
   <g id="patch_92">
    <path clip-path="url(#p97fbbbefb1)" d="M 454.95 768.96 
L 456.591176 768.96 
L 456.591176 545.592016 
L 454.95 545.592016 
z
" style="fill:#1f77b4;"/>
   </g>
   <g id="patch_93">
    <path clip-path="url(#p97fbbbefb1)" d="M 458.232353 768.96 
L 459.873529 768.96 
L 459.873529 541.211923 
L 458.232353 541.211923 
z
" style="fill:#1f77b4;"/>
   </g>
   <g id="patch_94">
    <path clip-path="url(#p97fbbbefb1)" d="M 461.514706 768.96 
L 463.155882 768.96 
L 463.155882 539.993744 
L 461.514706 539.993744 
z
" style="fill:#1f77b4;"/>
   </g>
   <g id="patch_95">
    <path clip-path="url(#p97fbbbefb1)" d="M 464.797059 768.96 
L 466.438235 768.96 
L 466.438235 535.872329 
L 464.797059 535.872329 
z
" style="fill:#1f77b4;"/>
   </g>
   <g id="patch_96">
    <path clip-path="url(#p97fbbbefb1)" d="M 468.079412 768.96 
L 469.720588 768.96 
L 469.720588 529.544202 
L 468.079412 529.544202 
z
" style="fill:#1f77b4;"/>
   </g>
   <g id="patch_97">
    <path clip-path="url(#p97fbbbefb1)" d="M 471.361765 768.96 
L 473.002941 768.96 
L 473.002941 522.518063 
L 471.361765 522.518063 
z
" style="fill:#1f77b4;"/>
   </g>
   <g id="patch_98">
    <path clip-path="url(#p97fbbbefb1)" d="M 474.644118 768.96 
L 476.285294 768.96 
L 476.285294 514.142198 
L 474.644118 514.142198 
z
" style="fill:#1f77b4;"/>
   </g>
   <g id="patch_99">
    <path clip-path="url(#p97fbbbefb1)" d="M 477.926471 768.96 
L 479.567647 768.96 
L 479.567647 504.297428 
L 477.926471 504.297428 
z
" style="fill:#1f77b4;"/>
   </g>
   <g id="patch_100">
    <path clip-path="url(#p97fbbbefb1)" d="M 481.208824 768.96 
L 482.85 768.96 
L 482.85 497.838878 
L 481.208824 497.838878 
z
" style="fill:#1f77b4;"/>
   </g>
   <g id="patch_101">
    <path clip-path="url(#p97fbbbefb1)" d="M 484.491176 768.96 
L 486.132353 768.96 
L 486.132353 494.717359 
L 484.491176 494.717359 
z
" style="fill:#1f77b4;"/>
   </g>
   <g id="patch_102">
    <path clip-path="url(#p97fbbbefb1)" d="M 487.773529 768.96 
L 489.414706 768.96 
L 489.414706 489.322471 
L 487.773529 489.322471 
z
" style="fill:#1f77b4;"/>
   </g>
   <g id="patch_103">
    <path clip-path="url(#p97fbbbefb1)" d="M 491.055882 768.96 
L 492.697059 768.96 
L 492.697059 482.637167 
L 491.055882 482.637167 
z
" style="fill:#1f77b4;"/>
   </g>
   <g id="patch_104">
    <path clip-path="url(#p97fbbbefb1)" d="M 494.338235 768.96 
L 495.979412 768.96 
L 495.979412 476.865105 
L 494.338235 476.865105 
z
" style="fill:#1f77b4;"/>
   </g>
   <g id="patch_105">
    <path clip-path="url(#p97fbbbefb1)" d="M 497.620588 768.96 
L 499.261765 768.96 
L 499.261765 469.010209 
L 497.620588 469.010209 
z
" style="fill:#1f77b4;"/>
   </g>
   <g id="patch_106">
    <path clip-path="url(#p97fbbbefb1)" d="M 500.902941 768.96 
L 502.544118 768.96 
L 502.544118 461.393031 
L 500.902941 461.393031 
z
" style="fill:#1f77b4;"/>
   </g>
   <g id="patch_107">
    <path clip-path="url(#p97fbbbefb1)" d="M 504.185294 768.96 
L 505.826471 768.96 
L 505.826471 456.158682 
L 504.185294 456.158682 
z
" style="fill:#1f77b4;"/>
   </g>
   <g id="patch_108">
    <path clip-path="url(#p97fbbbefb1)" d="M 507.467647 768.96 
L 509.108824 768.96 
L 509.108824 453.096351 
L 507.467647 453.096351 
z
" style="fill:#1f77b4;"/>
   </g>
   <g id="patch_109">
    <path clip-path="url(#p97fbbbefb1)" d="M 510.75 768.96 
L 512.391176 768.96 
L 512.391176 448.717784 
L 510.75 448.717784 
z
" style="fill:#1f77b4;"/>
   </g>
   <g id="patch_110">
    <path clip-path="url(#p97fbbbefb1)" d="M 514.032353 768.96 
L 515.673529 768.96 
L 515.673529 441.737903 
L 514.032353 441.737903 
z
" style="fill:#1f77b4;"/>
   </g>
   <g id="patch_111">
    <path clip-path="url(#p97fbbbefb1)" d="M 517.314706 768.96 
L 518.955882 768.96 
L 518.955882 435.574251 
L 517.314706 435.574251 
z
" style="fill:#1f77b4;"/>
   </g>
   <g id="patch_112">
    <path clip-path="url(#p97fbbbefb1)" d="M 520.597059 768.96 
L 522.238235 768.96 
L 522.238235 429.109878 
L 520.597059 429.109878 
z
" style="fill:#1f77b4;"/>
   </g>
   <g id="patch_113">
    <path clip-path="url(#p97fbbbefb1)" d="M 523.879412 768.96 
L 525.520588 768.96 
L 525.520588 423.200527 
L 523.879412 423.200527 
z
" style="fill:#1f77b4;"/>
   </g>
   <g id="patch_114">
    <path clip-path="url(#p97fbbbefb1)" d="M 527.161765 768.96 
L 528.802941 768.96 
L 528.802941 419.353329 
L 527.161765 419.353329 
z
" style="fill:#1f77b4;"/>
   </g>
   <g id="patch_115">
    <path clip-path="url(#p97fbbbefb1)" d="M 530.444118 768.96 
L 532.085294 768.96 
L 532.085294 417.764561 
L 530.444118 417.764561 
z
" style="fill:#1f77b4;"/>
   </g>
   <g id="patch_116">
    <path clip-path="url(#p97fbbbefb1)" d="M 533.726471 768.96 
L 535.367647 768.96 
L 535.367647 414.098863 
L 533.726471 414.098863 
z
" style="fill:#1f77b4;"/>
   </g>
   <g id="patch_117">
    <path clip-path="url(#p97fbbbefb1)" d="M 537.008824 768.96 
L 538.65 768.96 
L 538.65 408.87118 
L 537.008824 408.87118 
z
" style="fill:#1f77b4;"/>
   </g>
   <g id="patch_118">
    <path clip-path="url(#p97fbbbefb1)" d="M 540.291176 768.96 
L 541.932353 768.96 
L 541.932353 403.438868 
L 540.291176 403.438868 
z
" style="fill:#1f77b4;"/>
   </g>
   <g id="patch_119">
    <path clip-path="url(#p97fbbbefb1)" d="M 543.573529 768.96 
L 545.214706 768.96 
L 545.214706 398.169144 
L 543.573529 398.169144 
z
" style="fill:#1f77b4;"/>
   </g>
   <g id="patch_120">
    <path clip-path="url(#p97fbbbefb1)" d="M 546.855882 768.96 
L 548.497059 768.96 
L 548.497059 393.645456 
L 546.855882 393.645456 
z
" style="fill:#1f77b4;"/>
   </g>
   <g id="patch_121">
    <path clip-path="url(#p97fbbbefb1)" d="M 550.138235 768.96 
L 551.779412 768.96 
L 551.779412 391.63707 
L 550.138235 391.63707 
z
" style="fill:#1f77b4;"/>
   </g>
   <g id="patch_122">
    <path clip-path="url(#p97fbbbefb1)" d="M 553.420588 768.96 
L 555.061765 768.96 
L 555.061765 390.985839 
L 553.420588 390.985839 
z
" style="fill:#1f77b4;"/>
   </g>
   <g id="patch_123">
    <path clip-path="url(#p97fbbbefb1)" d="M 556.702941 768.96 
L 558.344118 768.96 
L 558.344118 388.758086 
L 556.702941 388.758086 
z
" style="fill:#1f77b4;"/>
   </g>
   <g id="patch_124">
    <path clip-path="url(#p97fbbbefb1)" d="M 559.985294 768.96 
L 561.626471 768.96 
L 561.626471 382.940529 
L 559.985294 382.940529 
z
" style="fill:#1f77b4;"/>
   </g>
   <g id="patch_125">
    <path clip-path="url(#p97fbbbefb1)" d="M 563.267647 768.96 
L 564.908824 768.96 
L 564.908824 377.328564 
L 563.267647 377.328564 
z
" style="fill:#1f77b4;"/>
   </g>
   <g id="patch_126">
    <path clip-path="url(#p97fbbbefb1)" d="M 566.55 768.96 
L 568.191176 768.96 
L 568.191176 373.100216 
L 566.55 373.100216 
z
" style="fill:#1f77b4;"/>
   </g>
   <g id="patch_127">
    <path clip-path="url(#p97fbbbefb1)" d="M 569.832353 768.96 
L 571.473529 768.96 
L 571.473529 366.876853 
L 569.832353 366.876853 
z
" style="fill:#1f77b4;"/>
   </g>
   <g id="patch_128">
    <path clip-path="url(#p97fbbbefb1)" d="M 573.114706 768.96 
L 574.755882 768.96 
L 574.755882 362.729216 
L 573.114706 362.729216 
z
" style="fill:#1f77b4;"/>
   </g>
   <g id="patch_129">
    <path clip-path="url(#p97fbbbefb1)" d="M 576.397059 768.96 
L 578.038235 768.96 
L 578.038235 359.035249 
L 576.397059 359.035249 
z
" style="fill:#1f77b4;"/>
   </g>
   <g id="patch_130">
    <path clip-path="url(#p97fbbbefb1)" d="M 579.679412 768.96 
L 581.320588 768.96 
L 581.320588 355.656819 
L 579.679412 355.656819 
z
" style="fill:#1f77b4;"/>
   </g>
   <g id="patch_131">
    <path clip-path="url(#p97fbbbefb1)" d="M 582.961765 768.96 
L 584.602941 768.96 
L 584.602941 351.329529 
L 582.961765 351.329529 
z
" style="fill:#1f77b4;"/>
   </g>
   <g id="patch_132">
    <path clip-path="url(#p97fbbbefb1)" d="M 586.244118 768.96 
L 587.885294 768.96 
L 587.885294 347.397483 
L 586.244118 347.397483 
z
" style="fill:#1f77b4;"/>
   </g>
   <g id="patch_133">
    <path clip-path="url(#p97fbbbefb1)" d="M 589.526471 768.96 
L 591.167647 768.96 
L 591.167647 343.334172 
L 589.526471 343.334172 
z
" style="fill:#1f77b4;"/>
   </g>
   <g id="patch_134">
    <path clip-path="url(#p97fbbbefb1)" d="M 592.808824 768.96 
L 594.45 768.96 
L 594.45 337.442087 
L 592.808824 337.442087 
z
" style="fill:#1f77b4;"/>
   </g>
   <g id="patch_135">
    <path clip-path="url(#p97fbbbefb1)" d="M 596.091176 768.96 
L 597.732353 768.96 
L 597.732353 334.223674 
L 596.091176 334.223674 
z
" style="fill:#1f77b4;"/>
   </g>
   <g id="patch_136">
    <path clip-path="url(#p97fbbbefb1)" d="M 599.373529 768.96 
L 601.014706 768.96 
L 601.014706 332.94193 
L 599.373529 332.94193 
z
" style="fill:#1f77b4;"/>
   </g>
   <g id="patch_137">
    <path clip-path="url(#p97fbbbefb1)" d="M 602.655882 768.96 
L 604.297059 768.96 
L 604.297059 330.663382 
L 602.655882 330.663382 
z
" style="fill:#1f77b4;"/>
   </g>
   <g id="patch_138">
    <path clip-path="url(#p97fbbbefb1)" d="M 605.938235 768.96 
L 607.579412 768.96 
L 607.579412 326.449208 
L 605.938235 326.449208 
z
" style="fill:#1f77b4;"/>
   </g>
   <g id="patch_139">
    <path clip-path="url(#p97fbbbefb1)" d="M 609.220588 768.96 
L 610.861765 768.96 
L 610.861765 322.679228 
L 609.220588 322.679228 
z
" style="fill:#1f77b4;"/>
   </g>
   <g id="patch_140">
    <path clip-path="url(#p97fbbbefb1)" d="M 612.502941 768.96 
L 614.144118 768.96 
L 614.144118 317.28928 
L 612.502941 317.28928 
z
" style="fill:#1f77b4;"/>
   </g>
   <g id="patch_141">
    <path clip-path="url(#p97fbbbefb1)" d="M 615.785294 768.96 
L 617.426471 768.96 
L 617.426471 313.772797 
L 615.785294 313.772797 
z
" style="fill:#1f77b4;"/>
   </g>
   <g id="patch_142">
    <path clip-path="url(#p97fbbbefb1)" d="M 619.067647 768.96 
L 620.708824 768.96 
L 620.708824 311.026967 
L 619.067647 311.026967 
z
" style="fill:#1f77b4;"/>
   </g>
   <g id="patch_143">
    <path clip-path="url(#p97fbbbefb1)" d="M 622.35 768.96 
L 623.991176 768.96 
L 623.991176 309.766666 
L 622.35 309.766666 
z
" style="fill:#1f77b4;"/>
   </g>
   <g id="patch_144">
    <path clip-path="url(#p97fbbbefb1)" d="M 625.632353 768.96 
L 627.273529 768.96 
L 627.273529 307.652512 
L 625.632353 307.652512 
z
" style="fill:#1f77b4;"/>
   </g>
   <g id="patch_145">
    <path clip-path="url(#p97fbbbefb1)" d="M 628.914706 768.96 
L 630.555882 768.96 
L 630.555882 305.026182 
L 628.914706 305.026182 
z
" style="fill:#1f77b4;"/>
   </g>
   <g id="patch_146">
    <path clip-path="url(#p97fbbbefb1)" d="M 632.197059 768.96 
L 633.838235 768.96 
L 633.838235 302.391501 
L 632.197059 302.391501 
z
" style="fill:#1f77b4;"/>
   </g>
   <g id="patch_147">
    <path clip-path="url(#p97fbbbefb1)" d="M 635.479412 768.96 
L 637.120588 768.96 
L 637.120588 299.631375 
L 635.479412 299.631375 
z
" style="fill:#1f77b4;"/>
   </g>
   <g id="patch_148">
    <path clip-path="url(#p97fbbbefb1)" d="M 638.761765 768.96 
L 640.402941 768.96 
L 640.402941 297.078168 
L 638.761765 297.078168 
z
" style="fill:#1f77b4;"/>
   </g>
   <g id="patch_149">
    <path clip-path="url(#p97fbbbefb1)" d="M 642.044118 768.96 
L 643.685294 768.96 
L 643.685294 295.337293 
L 642.044118 295.337293 
z
" style="fill:#1f77b4;"/>
   </g>
   <g id="patch_150">
    <path clip-path="url(#p97fbbbefb1)" d="M 645.326471 768.96 
L 646.967647 768.96 
L 646.967647 294.364421 
L 645.326471 294.364421 
z
" style="fill:#1f77b4;"/>
   </g>
   <g id="patch_151">
    <path clip-path="url(#p97fbbbefb1)" d="M 648.608824 768.96 
L 650.25 768.96 
L 650.25 293.662875 
L 648.608824 293.662875 
z
" style="fill:#1f77b4;"/>
   </g>
   <g id="patch_152">
    <path clip-path="url(#p97fbbbefb1)" d="M 651.891176 768.96 
L 653.532353 768.96 
L 653.532353 292.144499 
L 651.891176 292.144499 
z
" style="fill:#1f77b4;"/>
   </g>
   <g id="patch_153">
    <path clip-path="url(#p97fbbbefb1)" d="M 655.173529 768.96 
L 656.814706 768.96 
L 656.814706 290.539027 
L 655.173529 290.539027 
z
" style="fill:#1f77b4;"/>
   </g>
   <g id="patch_154">
    <path clip-path="url(#p97fbbbefb1)" d="M 658.455882 768.96 
L 660.097059 768.96 
L 660.097059 288.054525 
L 658.455882 288.054525 
z
" style="fill:#1f77b4;"/>
   </g>
   <g id="patch_155">
    <path clip-path="url(#p97fbbbefb1)" d="M 661.738235 768.96 
L 663.379412 768.96 
L 663.379412 285.54095 
L 661.738235 285.54095 
z
" style="fill:#1f77b4;"/>
   </g>
   <g id="patch_156">
    <path clip-path="url(#p97fbbbefb1)" d="M 665.020588 768.96 
L 666.661765 768.96 
L 666.661765 283.413023 
L 665.020588 283.413023 
z
" style="fill:#1f77b4;"/>
   </g>
   <g id="patch_157">
    <path clip-path="url(#p97fbbbefb1)" d="M 668.302941 768.96 
L 669.944118 768.96 
L 669.944118 281.96022 
L 668.302941 281.96022 
z
" style="fill:#1f77b4;"/>
   </g>
   <g id="patch_158">
    <path clip-path="url(#p97fbbbefb1)" d="M 671.585294 768.96 
L 673.226471 768.96 
L 673.226471 279.959262 
L 671.585294 279.959262 
z
" style="fill:#1f77b4;"/>
   </g>
   <g id="patch_159">
    <path clip-path="url(#p97fbbbefb1)" d="M 674.867647 768.96 
L 676.508824 768.96 
L 676.508824 277.627228 
L 674.867647 277.627228 
z
" style="fill:#1f77b4;"/>
   </g>
   <g id="patch_160">
    <path clip-path="url(#p97fbbbefb1)" d="M 678.15 768.96 
L 679.791176 768.96 
L 679.791176 274.751938 
L 678.15 274.751938 
z
" style="fill:#1f77b4;"/>
   </g>
   <g id="patch_161">
    <path clip-path="url(#p97fbbbefb1)" d="M 681.432353 768.96 
L 683.073529 768.96 
L 683.073529 272.787923 
L 681.432353 272.787923 
z
" style="fill:#1f77b4;"/>
   </g>
   <g id="patch_162">
    <path clip-path="url(#p97fbbbefb1)" d="M 684.714706 768.96 
L 686.355882 768.96 
L 686.355882 270.924255 
L 684.714706 270.924255 
z
" style="fill:#1f77b4;"/>
   </g>
   <g id="patch_163">
    <path clip-path="url(#p97fbbbefb1)" d="M 687.997059 768.96 
L 689.638235 768.96 
L 689.638235 269.793815 
L 687.997059 269.793815 
z
" style="fill:#1f77b4;"/>
   </g>
   <g id="patch_164">
    <path clip-path="url(#p97fbbbefb1)" d="M 691.279412 768.96 
L 692.920588 768.96 
L 692.920588 268.71136 
L 691.279412 268.71136 
z
" style="fill:#1f77b4;"/>
   </g>
   <g id="patch_165">
    <path clip-path="url(#p97fbbbefb1)" d="M 694.561765 768.96 
L 696.202941 768.96 
L 696.202941 265.458816 
L 694.561765 265.458816 
z
" style="fill:#1f77b4;"/>
   </g>
   <g id="patch_166">
    <path clip-path="url(#p97fbbbefb1)" d="M 697.844118 768.96 
L 699.485294 768.96 
L 699.485294 262.897778 
L 697.844118 262.897778 
z
" style="fill:#1f77b4;"/>
   </g>
   <g id="patch_167">
    <path clip-path="url(#p97fbbbefb1)" d="M 701.126471 768.96 
L 702.767647 768.96 
L 702.767647 261.123535 
L 701.126471 261.123535 
z
" style="fill:#1f77b4;"/>
   </g>
   <g id="patch_168">
    <path clip-path="url(#p97fbbbefb1)" d="M 704.408824 768.96 
L 706.05 768.96 
L 706.05 258.777045 
L 704.408824 258.777045 
z
" style="fill:#1f77b4;"/>
   </g>
   <g id="patch_169">
    <path clip-path="url(#p97fbbbefb1)" d="M 707.691176 768.96 
L 709.332353 768.96 
L 709.332353 257.670618 
L 707.691176 257.670618 
z
" style="fill:#1f77b4;"/>
   </g>
   <g id="patch_170">
    <path clip-path="url(#p97fbbbefb1)" d="M 710.973529 768.96 
L 712.614706 768.96 
L 712.614706 255.912597 
L 710.973529 255.912597 
z
" style="fill:#1f77b4;"/>
   </g>
   <g id="patch_171">
    <path clip-path="url(#p97fbbbefb1)" d="M 714.255882 768.96 
L 715.897059 768.96 
L 715.897059 255.175675 
L 714.255882 255.175675 
z
" style="fill:#1f77b4;"/>
   </g>
   <g id="patch_172">
    <path clip-path="url(#p97fbbbefb1)" d="M 717.538235 768.96 
L 719.179412 768.96 
L 719.179412 254.219387 
L 717.538235 254.219387 
z
" style="fill:#1f77b4;"/>
   </g>
   <g id="patch_173">
    <path clip-path="url(#p97fbbbefb1)" d="M 720.820588 768.96 
L 722.461765 768.96 
L 722.461765 253.056421 
L 720.820588 253.056421 
z
" style="fill:#1f77b4;"/>
   </g>
   <g id="patch_174">
    <path clip-path="url(#p97fbbbefb1)" d="M 724.102941 768.96 
L 725.744118 768.96 
L 725.744118 251.685975 
L 724.102941 251.685975 
z
" style="fill:#1f77b4;"/>
   </g>
   <g id="patch_175">
    <path clip-path="url(#p97fbbbefb1)" d="M 727.385294 768.96 
L 729.026471 768.96 
L 729.026471 249.992966 
L 727.385294 249.992966 
z
" style="fill:#1f77b4;"/>
   </g>
   <g id="patch_176">
    <path clip-path="url(#p97fbbbefb1)" d="M 730.667647 768.96 
L 732.308824 768.96 
L 732.308824 245.975953 
L 730.667647 245.975953 
z
" style="fill:#1f77b4;"/>
   </g>
   <g id="patch_177">
    <path clip-path="url(#p97fbbbefb1)" d="M 733.95 768.96 
L 735.591176 768.96 
L 735.591176 241.349911 
L 733.95 241.349911 
z
" style="fill:#1f77b4;"/>
   </g>
   <g id="patch_178">
    <path clip-path="url(#p97fbbbefb1)" d="M 737.232353 768.96 
L 738.873529 768.96 
L 738.873529 240.981971 
L 737.232353 240.981971 
z
" style="fill:#1f77b4;"/>
   </g>
   <g id="patch_179">
    <path clip-path="url(#p97fbbbefb1)" d="M 740.514706 768.96 
L 742.155882 768.96 
L 742.155882 240.033674 
L 740.514706 240.033674 
z
" style="fill:#1f77b4;"/>
   </g>
   <g id="patch_180">
    <path clip-path="url(#p97fbbbefb1)" d="M 743.797059 768.96 
L 745.438235 768.96 
L 745.438235 238.850511 
L 743.797059 238.850511 
z
" style="fill:#1f77b4;"/>
   </g>
   <g id="patch_181">
    <path clip-path="url(#p97fbbbefb1)" d="M 747.079412 768.96 
L 748.720588 768.96 
L 748.720588 237.708426 
L 747.079412 237.708426 
z
" style="fill:#1f77b4;"/>
   </g>
   <g id="patch_182">
    <path clip-path="url(#p97fbbbefb1)" d="M 750.361765 768.96 
L 752.002941 768.96 
L 752.002941 236.66978 
L 750.361765 236.66978 
z
" style="fill:#1f77b4;"/>
   </g>
   <g id="patch_183">
    <path clip-path="url(#p97fbbbefb1)" d="M 753.644118 768.96 
L 755.285294 768.96 
L 755.285294 235.634386 
L 753.644118 235.634386 
z
" style="fill:#1f77b4;"/>
   </g>
   <g id="patch_184">
    <path clip-path="url(#p97fbbbefb1)" d="M 756.926471 768.96 
L 758.567647 768.96 
L 758.567647 234.876704 
L 756.926471 234.876704 
z
" style="fill:#1f77b4;"/>
   </g>
   <g id="patch_185">
    <path clip-path="url(#p97fbbbefb1)" d="M 760.208824 768.96 
L 761.85 768.96 
L 761.85 234.506235 
L 760.208824 234.506235 
z
" style="fill:#1f77b4;"/>
   </g>
   <g id="patch_186">
    <path clip-path="url(#p97fbbbefb1)" d="M 763.491176 768.96 
L 765.132353 768.96 
L 765.132353 234.438614 
L 763.491176 234.438614 
z
" style="fill:#1f77b4;"/>
   </g>
   <g id="patch_187">
    <path clip-path="url(#p97fbbbefb1)" d="M 766.773529 768.96 
L 768.414706 768.96 
L 768.414706 233.841873 
L 766.773529 233.841873 
z
" style="fill:#1f77b4;"/>
   </g>
   <g id="patch_188">
    <path clip-path="url(#p97fbbbefb1)" d="M 770.055882 768.96 
L 771.697059 768.96 
L 771.697059 232.771264 
L 770.055882 232.771264 
z
" style="fill:#1f77b4;"/>
   </g>
   <g id="patch_189">
    <path clip-path="url(#p97fbbbefb1)" d="M 773.338235 768.96 
L 774.979412 768.96 
L 774.979412 231.6968 
L 773.338235 231.6968 
z
" style="fill:#1f77b4;"/>
   </g>
   <g id="patch_190">
    <path clip-path="url(#p97fbbbefb1)" d="M 776.620588 768.96 
L 778.261765 768.96 
L 778.261765 230.737901 
L 776.620588 230.737901 
z
" style="fill:#1f77b4;"/>
   </g>
   <g id="patch_191">
    <path clip-path="url(#p97fbbbefb1)" d="M 779.902941 768.96 
L 781.544118 768.96 
L 781.544118 229.953315 
L 779.902941 229.953315 
z
" style="fill:#1f77b4;"/>
   </g>
   <g id="patch_192">
    <path clip-path="url(#p97fbbbefb1)" d="M 783.185294 768.96 
L 784.826471 768.96 
L 784.826471 229.419496 
L 783.185294 229.419496 
z
" style="fill:#1f77b4;"/>
   </g>
   <g id="patch_193">
    <path clip-path="url(#p97fbbbefb1)" d="M 786.467647 768.96 
L 788.108824 768.96 
L 788.108824 228.407754 
L 786.467647 228.407754 
z
" style="fill:#1f77b4;"/>
   </g>
   <g id="patch_194">
    <path clip-path="url(#p97fbbbefb1)" d="M 789.75 768.96 
L 791.391176 768.96 
L 791.391176 227.557595 
L 789.75 227.557595 
z
" style="fill:#1f77b4;"/>
   </g>
   <g id="patch_195">
    <path clip-path="url(#p97fbbbefb1)" d="M 793.032353 768.96 
L 794.673529 768.96 
L 794.673529 226.749157 
L 793.032353 226.749157 
z
" style="fill:#1f77b4;"/>
   </g>
   <g id="patch_196">
    <path clip-path="url(#p97fbbbefb1)" d="M 796.314706 768.96 
L 797.955882 768.96 
L 797.955882 225.948871 
L 796.314706 225.948871 
z
" style="fill:#1f77b4;"/>
   </g>
   <g id="patch_197">
    <path clip-path="url(#p97fbbbefb1)" d="M 799.597059 768.96 
L 801.238235 768.96 
L 801.238235 225.143645 
L 799.597059 225.143645 
z
" style="fill:#1f77b4;"/>
   </g>
   <g id="patch_198">
    <path clip-path="url(#p97fbbbefb1)" d="M 802.879412 768.96 
L 804.520588 768.96 
L 804.520588 224.482816 
L 802.879412 224.482816 
z
" style="fill:#1f77b4;"/>
   </g>
   <g id="patch_199">
    <path clip-path="url(#p97fbbbefb1)" d="M 806.161765 768.96 
L 807.802941 768.96 
L 807.802941 224.033764 
L 806.161765 224.033764 
z
" style="fill:#1f77b4;"/>
   </g>
   <g id="patch_200">
    <path clip-path="url(#p97fbbbefb1)" d="M 809.444118 768.96 
L 811.085294 768.96 
L 811.085294 223.354785 
L 809.444118 223.354785 
z
" style="fill:#1f77b4;"/>
   </g>
   <g id="patch_201">
    <path clip-path="url(#p97fbbbefb1)" d="M 812.726471 768.96 
L 814.367647 768.96 
L 814.367647 222.443029 
L 812.726471 222.443029 
z
" style="fill:#1f77b4;"/>
   </g>
   <g id="patch_202">
    <path clip-path="url(#p97fbbbefb1)" d="M 816.008824 768.96 
L 817.65 768.96 
L 817.65 221.588935 
L 816.008824 221.588935 
z
" style="fill:#1f77b4;"/>
   </g>
   <g id="patch_203">
    <path clip-path="url(#p97fbbbefb1)" d="M 819.291176 768.96 
L 820.932353 768.96 
L 820.932353 220.967699 
L 819.291176 220.967699 
z
" style="fill:#1f77b4;"/>
   </g>
   <g id="patch_204">
    <path clip-path="url(#p97fbbbefb1)" d="M 822.573529 768.96 
L 824.214706 768.96 
L 824.214706 220.321165 
L 822.573529 220.321165 
z
" style="fill:#1f77b4;"/>
   </g>
   <g id="patch_205">
    <path clip-path="url(#p97fbbbefb1)" d="M 825.855882 768.96 
L 827.497059 768.96 
L 827.497059 219.927647 
L 825.855882 219.927647 
z
" style="fill:#1f77b4;"/>
   </g>
   <g id="patch_206">
    <path clip-path="url(#p97fbbbefb1)" d="M 829.138235 768.96 
L 830.779412 768.96 
L 830.779412 219.699728 
L 829.138235 219.699728 
z
" style="fill:#1f77b4;"/>
   </g>
   <g id="patch_207">
    <path clip-path="url(#p97fbbbefb1)" d="M 832.420588 768.96 
L 834.061765 768.96 
L 834.061765 219.307295 
L 832.420588 219.307295 
z
" style="fill:#1f77b4;"/>
   </g>
   <g id="patch_208">
    <path clip-path="url(#p97fbbbefb1)" d="M 835.702941 768.96 
L 837.344118 768.96 
L 837.344118 218.437018 
L 835.702941 218.437018 
z
" style="fill:#1f77b4;"/>
   </g>
   <g id="patch_209">
    <path clip-path="url(#p97fbbbefb1)" d="M 838.985294 768.96 
L 840.626471 768.96 
L 840.626471 216.997707 
L 838.985294 216.997707 
z
" style="fill:#1f77b4;"/>
   </g>
   <g id="patch_210">
    <path clip-path="url(#p97fbbbefb1)" d="M 842.267647 768.96 
L 843.908824 768.96 
L 843.908824 216.227014 
L 842.267647 216.227014 
z
" style="fill:#1f77b4;"/>
   </g>
   <g id="patch_211">
    <path clip-path="url(#p97fbbbefb1)" d="M 845.55 768.96 
L 847.191176 768.96 
L 847.191176 214.347646 
L 845.55 214.347646 
z
" style="fill:#1f77b4;"/>
   </g>
   <g id="patch_212">
    <path clip-path="url(#p97fbbbefb1)" d="M 848.832353 768.96 
L 850.473529 768.96 
L 850.473529 213.758494 
L 848.832353 213.758494 
z
" style="fill:#1f77b4;"/>
   </g>
   <g id="patch_213">
    <path clip-path="url(#p97fbbbefb1)" d="M 852.114706 768.96 
L 853.755882 768.96 
L 853.755882 213.328074 
L 852.114706 213.328074 
z
" style="fill:#1f77b4;"/>
   </g>
   <g id="patch_214">
    <path clip-path="url(#p97fbbbefb1)" d="M 855.397059 768.96 
L 857.038235 768.96 
L 857.038235 212.737797 
L 855.397059 212.737797 
z
" style="fill:#1f77b4;"/>
   </g>
   <g id="patch_215">
    <path clip-path="url(#p97fbbbefb1)" d="M 858.679412 768.96 
L 860.320588 768.96 
L 860.320588 211.933093 
L 858.679412 211.933093 
z
" style="fill:#1f77b4;"/>
   </g>
   <g id="patch_216">
    <path clip-path="url(#p97fbbbefb1)" d="M 861.961765 768.96 
L 863.602941 768.96 
L 863.602941 211.19838 
L 861.961765 211.19838 
z
" style="fill:#1f77b4;"/>
   </g>
   <g id="patch_217">
    <path clip-path="url(#p97fbbbefb1)" d="M 865.244118 768.96 
L 866.885294 768.96 
L 866.885294 210.423672 
L 865.244118 210.423672 
z
" style="fill:#1f77b4;"/>
   </g>
   <g id="patch_218">
    <path clip-path="url(#p97fbbbefb1)" d="M 868.526471 768.96 
L 870.167647 768.96 
L 870.167647 209.571746 
L 868.526471 209.571746 
z
" style="fill:#1f77b4;"/>
   </g>
   <g id="patch_219">
    <path clip-path="url(#p97fbbbefb1)" d="M 871.808824 768.96 
L 873.45 768.96 
L 873.45 208.067223 
L 871.808824 208.067223 
z
" style="fill:#1f77b4;"/>
   </g>
   <g id="patch_220">
    <path clip-path="url(#p97fbbbefb1)" d="M 875.091176 768.96 
L 876.732353 768.96 
L 876.732353 207.57388 
L 875.091176 207.57388 
z
" style="fill:#1f77b4;"/>
   </g>
   <g id="patch_221">
    <path clip-path="url(#p97fbbbefb1)" d="M 878.373529 768.96 
L 880.014706 768.96 
L 880.014706 207.002276 
L 878.373529 207.002276 
z
" style="fill:#1f77b4;"/>
   </g>
   <g id="patch_222">
    <path clip-path="url(#p97fbbbefb1)" d="M 881.655882 768.96 
L 883.297059 768.96 
L 883.297059 206.439867 
L 881.655882 206.439867 
z
" style="fill:#1f77b4;"/>
   </g>
   <g id="patch_223">
    <path clip-path="url(#p97fbbbefb1)" d="M 884.938235 768.96 
L 886.579412 768.96 
L 886.579412 204.188584 
L 884.938235 204.188584 
z
" style="fill:#1f77b4;"/>
   </g>
   <g id="patch_224">
    <path clip-path="url(#p97fbbbefb1)" d="M 888.220588 768.96 
L 889.861765 768.96 
L 889.861765 202.23537 
L 888.220588 202.23537 
z
" style="fill:#1f77b4;"/>
   </g>
   <g id="patch_225">
    <path clip-path="url(#p97fbbbefb1)" d="M 891.502941 768.96 
L 893.144118 768.96 
L 893.144118 200.681658 
L 891.502941 200.681658 
z
" style="fill:#1f77b4;"/>
   </g>
   <g id="patch_226">
    <path clip-path="url(#p97fbbbefb1)" d="M 894.785294 768.96 
L 896.426471 768.96 
L 896.426471 198.424552 
L 894.785294 198.424552 
z
" style="fill:#1f77b4;"/>
   </g>
   <g id="patch_227">
    <path clip-path="url(#p97fbbbefb1)" d="M 898.067647 768.96 
L 899.708824 768.96 
L 899.708824 196.895375 
L 898.067647 196.895375 
z
" style="fill:#1f77b4;"/>
   </g>
   <g id="patch_228">
    <path clip-path="url(#p97fbbbefb1)" d="M 901.35 768.96 
L 902.991176 768.96 
L 902.991176 196.219126 
L 901.35 196.219126 
z
" style="fill:#1f77b4;"/>
   </g>
   <g id="patch_229">
    <path clip-path="url(#p97fbbbefb1)" d="M 904.632353 768.96 
L 906.273529 768.96 
L 906.273529 195.248543 
L 904.632353 195.248543 
z
" style="fill:#1f77b4;"/>
   </g>
   <g id="patch_230">
    <path clip-path="url(#p97fbbbefb1)" d="M 907.914706 768.96 
L 909.555882 768.96 
L 909.555882 194.325142 
L 907.914706 194.325142 
z
" style="fill:#1f77b4;"/>
   </g>
   <g id="patch_231">
    <path clip-path="url(#p97fbbbefb1)" d="M 911.197059 768.96 
L 912.838235 768.96 
L 912.838235 193.441534 
L 911.197059 193.441534 
z
" style="fill:#1f77b4;"/>
   </g>
   <g id="patch_232">
    <path clip-path="url(#p97fbbbefb1)" d="M 914.479412 768.96 
L 916.120588 768.96 
L 916.120588 192.588082 
L 914.479412 192.588082 
z
" style="fill:#1f77b4;"/>
   </g>
   <g id="patch_233">
    <path clip-path="url(#p97fbbbefb1)" d="M 917.761765 768.96 
L 919.402941 768.96 
L 919.402941 191.749046 
L 917.761765 191.749046 
z
" style="fill:#1f77b4;"/>
   </g>
   <g id="patch_234">
    <path clip-path="url(#p97fbbbefb1)" d="M 921.044118 768.96 
L 922.685294 768.96 
L 922.685294 191.19535 
L 921.044118 191.19535 
z
" style="fill:#1f77b4;"/>
   </g>
   <g id="patch_235">
    <path clip-path="url(#p97fbbbefb1)" d="M 924.326471 768.96 
L 925.967647 768.96 
L 925.967647 190.486175 
L 924.326471 190.486175 
z
" style="fill:#1f77b4;"/>
   </g>
   <g id="patch_236">
    <path clip-path="url(#p97fbbbefb1)" d="M 927.608824 768.96 
L 929.25 768.96 
L 929.25 189.502822 
L 927.608824 189.502822 
z
" style="fill:#1f77b4;"/>
   </g>
   <g id="patch_237">
    <path clip-path="url(#p97fbbbefb1)" d="M 930.891176 768.96 
L 932.532353 768.96 
L 932.532353 188.561512 
L 930.891176 188.561512 
z
" style="fill:#1f77b4;"/>
   </g>
   <g id="patch_238">
    <path clip-path="url(#p97fbbbefb1)" d="M 934.173529 768.96 
L 935.814706 768.96 
L 935.814706 187.522585 
L 934.173529 187.522585 
z
" style="fill:#1f77b4;"/>
   </g>
   <g id="patch_239">
    <path clip-path="url(#p97fbbbefb1)" d="M 937.455882 768.96 
L 939.097059 768.96 
L 939.097059 186.34408 
L 937.455882 186.34408 
z
" style="fill:#1f77b4;"/>
   </g>
   <g id="patch_240">
    <path clip-path="url(#p97fbbbefb1)" d="M 940.738235 768.96 
L 942.379412 768.96 
L 942.379412 184.615292 
L 940.738235 184.615292 
z
" style="fill:#1f77b4;"/>
   </g>
   <g id="patch_241">
    <path clip-path="url(#p97fbbbefb1)" d="M 944.020588 768.96 
L 945.661765 768.96 
L 945.661765 181.890141 
L 944.020588 181.890141 
z
" style="fill:#1f77b4;"/>
   </g>
   <g id="patch_242">
    <path clip-path="url(#p97fbbbefb1)" d="M 947.302941 768.96 
L 948.944118 768.96 
L 948.944118 180.70224 
L 947.302941 180.70224 
z
" style="fill:#1f77b4;"/>
   </g>
   <g id="patch_243">
    <path clip-path="url(#p97fbbbefb1)" d="M 950.585294 768.96 
L 952.226471 768.96 
L 952.226471 179.715554 
L 950.585294 179.715554 
z
" style="fill:#1f77b4;"/>
   </g>
   <g id="patch_244">
    <path clip-path="url(#p97fbbbefb1)" d="M 953.867647 768.96 
L 955.508824 768.96 
L 955.508824 178.79922 
L 953.867647 178.79922 
z
" style="fill:#1f77b4;"/>
   </g>
   <g id="patch_245">
    <path clip-path="url(#p97fbbbefb1)" d="M 957.15 768.96 
L 958.791176 768.96 
L 958.791176 177.941793 
L 957.15 177.941793 
z
" style="fill:#1f77b4;"/>
   </g>
   <g id="patch_246">
    <path clip-path="url(#p97fbbbefb1)" d="M 960.432353 768.96 
L 962.073529 768.96 
L 962.073529 177.085771 
L 960.432353 177.085771 
z
" style="fill:#1f77b4;"/>
   </g>
   <g id="patch_247">
    <path clip-path="url(#p97fbbbefb1)" d="M 963.714706 768.96 
L 965.355882 768.96 
L 965.355882 176.325037 
L 963.714706 176.325037 
z
" style="fill:#1f77b4;"/>
   </g>
   <g id="patch_248">
    <path clip-path="url(#p97fbbbefb1)" d="M 966.997059 768.96 
L 968.638235 768.96 
L 968.638235 175.811256 
L 966.997059 175.811256 
z
" style="fill:#1f77b4;"/>
   </g>
   <g id="patch_249">
    <path clip-path="url(#p97fbbbefb1)" d="M 970.279412 768.96 
L 971.920588 768.96 
L 971.920588 175.447212 
L 970.279412 175.447212 
z
" style="fill:#1f77b4;"/>
   </g>
   <g id="patch_250">
    <path clip-path="url(#p97fbbbefb1)" d="M 973.561765 768.96 
L 975.202941 768.96 
L 975.202941 174.971818 
L 973.561765 174.971818 
z
" style="fill:#1f77b4;"/>
   </g>
   <g id="patch_251">
    <path clip-path="url(#p97fbbbefb1)" d="M 976.844118 768.96 
L 978.485294 768.96 
L 978.485294 174.014847 
L 976.844118 174.014847 
z
" style="fill:#1f77b4;"/>
   </g>
   <g id="patch_252">
    <path clip-path="url(#p97fbbbefb1)" d="M 980.126471 768.96 
L 981.767647 768.96 
L 981.767647 173.162801 
L 980.126471 173.162801 
z
" style="fill:#1f77b4;"/>
   </g>
   <g id="patch_253">
    <path clip-path="url(#p97fbbbefb1)" d="M 983.408824 768.96 
L 985.05 768.96 
L 985.05 172.35111 
L 983.408824 172.35111 
z
" style="fill:#1f77b4;"/>
   </g>
   <g id="patch_254">
    <path clip-path="url(#p97fbbbefb1)" d="M 986.691176 768.96 
L 988.332353 768.96 
L 988.332353 171.642337 
L 986.691176 171.642337 
z
" style="fill:#1f77b4;"/>
   </g>
   <g id="patch_255">
    <path clip-path="url(#p97fbbbefb1)" d="M 989.973529 768.96 
L 991.614706 768.96 
L 991.614706 171.118797 
L 989.973529 171.118797 
z
" style="fill:#1f77b4;"/>
   </g>
   <g id="patch_256">
    <path clip-path="url(#p97fbbbefb1)" d="M 993.255882 768.96 
L 994.897059 768.96 
L 994.897059 170.509447 
L 993.255882 170.509447 
z
" style="fill:#1f77b4;"/>
   </g>
   <g id="patch_257">
    <path clip-path="url(#p97fbbbefb1)" d="M 996.538235 768.96 
L 998.179412 768.96 
L 998.179412 169.666436 
L 996.538235 169.666436 
z
" style="fill:#1f77b4;"/>
   </g>
   <g id="patch_258">
    <path clip-path="url(#p97fbbbefb1)" d="M 999.820588 768.96 
L 1001.461765 768.96 
L 1001.461765 168.862535 
L 999.820588 168.862535 
z
" style="fill:#1f77b4;"/>
   </g>
   <g id="patch_259">
    <path clip-path="url(#p97fbbbefb1)" d="M 1003.102941 768.96 
L 1004.744118 768.96 
L 1004.744118 168.055663 
L 1003.102941 168.055663 
z
" style="fill:#1f77b4;"/>
   </g>
   <g id="patch_260">
    <path clip-path="url(#p97fbbbefb1)" d="M 1006.385294 768.96 
L 1008.026471 768.96 
L 1008.026471 167.22502 
L 1006.385294 167.22502 
z
" style="fill:#1f77b4;"/>
   </g>
   <g id="patch_261">
    <path clip-path="url(#p97fbbbefb1)" d="M 1009.667647 768.96 
L 1011.308824 768.96 
L 1011.308824 166.430877 
L 1009.667647 166.430877 
z
" style="fill:#1f77b4;"/>
   </g>
   <g id="patch_262">
    <path clip-path="url(#p97fbbbefb1)" d="M 1012.95 768.96 
L 1014.591176 768.96 
L 1014.591176 165.865576 
L 1012.95 165.865576 
z
" style="fill:#1f77b4;"/>
   </g>
   <g id="patch_263">
    <path clip-path="url(#p97fbbbefb1)" d="M 1016.232353 768.96 
L 1017.873529 768.96 
L 1017.873529 165.313527 
L 1016.232353 165.313527 
z
" style="fill:#1f77b4;"/>
   </g>
   <g id="patch_264">
    <path clip-path="url(#p97fbbbefb1)" d="M 1019.514706 768.96 
L 1021.155882 768.96 
L 1021.155882 164.377116 
L 1019.514706 164.377116 
z
" style="fill:#1f77b4;"/>
   </g>
   <g id="patch_265">
    <path clip-path="url(#p97fbbbefb1)" d="M 1022.797059 768.96 
L 1024.438235 768.96 
L 1024.438235 163.688821 
L 1022.797059 163.688821 
z
" style="fill:#1f77b4;"/>
   </g>
   <g id="patch_266">
    <path clip-path="url(#p97fbbbefb1)" d="M 1026.079412 768.96 
L 1027.720588 768.96 
L 1027.720588 162.684347 
L 1026.079412 162.684347 
z
" style="fill:#1f77b4;"/>
   </g>
   <g id="patch_267">
    <path clip-path="url(#p97fbbbefb1)" d="M 1029.361765 768.96 
L 1031.002941 768.96 
L 1031.002941 161.7232 
L 1029.361765 161.7232 
z
" style="fill:#1f77b4;"/>
   </g>
   <g id="patch_268">
    <path clip-path="url(#p97fbbbefb1)" d="M 1032.644118 768.96 
L 1034.285294 768.96 
L 1034.285294 160.972464 
L 1032.644118 160.972464 
z
" style="fill:#1f77b4;"/>
   </g>
   <g id="patch_269">
    <path clip-path="url(#p97fbbbefb1)" d="M 1035.926471 768.96 
L 1037.567647 768.96 
L 1037.567647 160.48655 
L 1035.926471 160.48655 
z
" style="fill:#1f77b4;"/>
   </g>
   <g id="patch_270">
    <path clip-path="url(#p97fbbbefb1)" d="M 1039.208824 768.96 
L 1040.85 768.96 
L 1040.85 159.858407 
L 1039.208824 159.858407 
z
" style="fill:#1f77b4;"/>
   </g>
   <g id="patch_271">
    <path clip-path="url(#p97fbbbefb1)" d="M 1042.491176 768.96 
L 1044.132353 768.96 
L 1044.132353 159.119759 
L 1042.491176 159.119759 
z
" style="fill:#1f77b4;"/>
   </g>
   <g id="patch_272">
    <path clip-path="url(#p97fbbbefb1)" d="M 1045.773529 768.96 
L 1047.414706 768.96 
L 1047.414706 158.574014 
L 1045.773529 158.574014 
z
" style="fill:#1f77b4;"/>
   </g>
   <g id="patch_273">
    <path clip-path="url(#p97fbbbefb1)" d="M 1049.055882 768.96 
L 1050.697059 768.96 
L 1050.697059 158.196317 
L 1049.055882 158.196317 
z
" style="fill:#1f77b4;"/>
   </g>
   <g id="patch_274">
    <path clip-path="url(#p97fbbbefb1)" d="M 1052.338235 768.96 
L 1053.979412 768.96 
L 1053.979412 157.267896 
L 1052.338235 157.267896 
z
" style="fill:#1f77b4;"/>
   </g>
   <g id="patch_275">
    <path clip-path="url(#p97fbbbefb1)" d="M 1055.620588 768.96 
L 1057.261765 768.96 
L 1057.261765 156.068751 
L 1055.620588 156.068751 
z
" style="fill:#1f77b4;"/>
   </g>
   <g id="patch_276">
    <path clip-path="url(#p97fbbbefb1)" d="M 1058.902941 768.96 
L 1060.544118 768.96 
L 1060.544118 155.667564 
L 1058.902941 155.667564 
z
" style="fill:#1f77b4;"/>
   </g>
   <g id="patch_277">
    <path clip-path="url(#p97fbbbefb1)" d="M 1062.185294 768.96 
L 1063.826471 768.96 
L 1063.826471 154.867478 
L 1062.185294 154.867478 
z
" style="fill:#1f77b4;"/>
   </g>
   <g id="patch_278">
    <path clip-path="url(#p97fbbbefb1)" d="M 1065.467647 768.96 
L 1067.108824 768.96 
L 1067.108824 154.414049 
L 1065.467647 154.414049 
z
" style="fill:#1f77b4;"/>
   </g>
   <g id="patch_279">
    <path clip-path="url(#p97fbbbefb1)" d="M 1068.75 768.96 
L 1070.391176 768.96 
L 1070.391176 153.489925 
L 1068.75 153.489925 
z
" style="fill:#1f77b4;"/>
   </g>
   <g id="patch_280">
    <path clip-path="url(#p97fbbbefb1)" d="M 1072.032353 768.96 
L 1073.673529 768.96 
L 1073.673529 152.855317 
L 1072.032353 152.855317 
z
" style="fill:#1f77b4;"/>
   </g>
   <g id="patch_281">
    <path clip-path="url(#p97fbbbefb1)" d="M 1075.314706 768.96 
L 1076.955882 768.96 
L 1076.955882 152.240908 
L 1075.314706 152.240908 
z
" style="fill:#1f77b4;"/>
   </g>
   <g id="patch_282">
    <path clip-path="url(#p97fbbbefb1)" d="M 1078.597059 768.96 
L 1080.238235 768.96 
L 1080.238235 151.819281 
L 1078.597059 151.819281 
z
" style="fill:#1f77b4;"/>
   </g>
   <g id="patch_283">
    <path clip-path="url(#p97fbbbefb1)" d="M 1081.879412 768.96 
L 1083.520588 768.96 
L 1083.520588 151.519806 
L 1081.879412 151.519806 
z
" style="fill:#1f77b4;"/>
   </g>
   <g id="patch_284">
    <path clip-path="url(#p97fbbbefb1)" d="M 1085.161765 768.96 
L 1086.802941 768.96 
L 1086.802941 151.096293 
L 1085.161765 151.096293 
z
" style="fill:#1f77b4;"/>
   </g>
   <g id="patch_285">
    <path clip-path="url(#p97fbbbefb1)" d="M 1088.444118 768.96 
L 1090.085294 768.96 
L 1090.085294 150.463412 
L 1088.444118 150.463412 
z
" style="fill:#1f77b4;"/>
   </g>
   <g id="patch_286">
    <path clip-path="url(#p97fbbbefb1)" d="M 1091.726471 768.96 
L 1093.367647 768.96 
L 1093.367647 149.77062 
L 1091.726471 149.77062 
z
" style="fill:#1f77b4;"/>
   </g>
   <g id="patch_287">
    <path clip-path="url(#p97fbbbefb1)" d="M 1095.008824 768.96 
L 1096.65 768.96 
L 1096.65 149.26495 
L 1095.008824 149.26495 
z
" style="fill:#1f77b4;"/>
   </g>
   <g id="patch_288">
    <path clip-path="url(#p97fbbbefb1)" d="M 1098.291176 768.96 
L 1099.932353 768.96 
L 1099.932353 148.426235 
L 1098.291176 148.426235 
z
" style="fill:#1f77b4;"/>
   </g>
   <g id="patch_289">
    <path clip-path="url(#p97fbbbefb1)" d="M 1101.573529 768.96 
L 1103.214706 768.96 
L 1103.214706 147.941204 
L 1101.573529 147.941204 
z
" style="fill:#1f77b4;"/>
   </g>
   <g id="patch_290">
    <path clip-path="url(#p97fbbbefb1)" d="M 1104.855882 768.96 
L 1106.497059 768.96 
L 1106.497059 147.658474 
L 1104.855882 147.658474 
z
" style="fill:#1f77b4;"/>
   </g>
   <g id="patch_291">
    <path clip-path="url(#p97fbbbefb1)" d="M 1108.138235 768.96 
L 1109.779412 768.96 
L 1109.779412 147.187738 
L 1108.138235 147.187738 
z
" style="fill:#1f77b4;"/>
   </g>
   <g id="patch_292">
    <path clip-path="url(#p97fbbbefb1)" d="M 1111.420588 768.96 
L 1113.061765 768.96 
L 1113.061765 146.631192 
L 1111.420588 146.631192 
z
" style="fill:#1f77b4;"/>
   </g>
   <g id="patch_293">
    <path clip-path="url(#p97fbbbefb1)" d="M 1114.702941 768.96 
L 1116.344118 768.96 
L 1116.344118 146.055531 
L 1114.702941 146.055531 
z
" style="fill:#1f77b4;"/>
   </g>
   <g id="patch_294">
    <path clip-path="url(#p97fbbbefb1)" d="M 1117.985294 768.96 
L 1119.626471 768.96 
L 1119.626471 145.405544 
L 1117.985294 145.405544 
z
" style="fill:#1f77b4;"/>
   </g>
   <g id="patch_295">
    <path clip-path="url(#p97fbbbefb1)" d="M 1121.267647 768.96 
L 1122.908824 768.96 
L 1122.908824 144.799246 
L 1121.267647 144.799246 
z
" style="fill:#1f77b4;"/>
   </g>
   <g id="patch_296">
    <path clip-path="url(#p97fbbbefb1)" d="M 1124.55 768.96 
L 1126.191176 768.96 
L 1126.191176 144.262375 
L 1124.55 144.262375 
z
" style="fill:#1f77b4;"/>
   </g>
   <g id="patch_297">
    <path clip-path="url(#p97fbbbefb1)" d="M 1127.832353 768.96 
L 1129.473529 768.96 
L 1129.473529 143.83047 
L 1127.832353 143.83047 
z
" style="fill:#1f77b4;"/>
   </g>
   <g id="patch_298">
    <path clip-path="url(#p97fbbbefb1)" d="M 1131.114706 768.96 
L 1132.755882 768.96 
L 1132.755882 143.22389 
L 1131.114706 143.22389 
z
" style="fill:#1f77b4;"/>
   </g>
   <g id="patch_299">
    <path clip-path="url(#p97fbbbefb1)" d="M 1134.397059 768.96 
L 1136.038235 768.96 
L 1136.038235 142.272059 
L 1134.397059 142.272059 
z
" style="fill:#1f77b4;"/>
   </g>
   <g id="patch_300">
    <path clip-path="url(#p97fbbbefb1)" d="M 1137.679412 768.96 
L 1139.320588 768.96 
L 1139.320588 141.451494 
L 1137.679412 141.451494 
z
" style="fill:#1f77b4;"/>
   </g>
   <g id="patch_301">
    <path clip-path="url(#p97fbbbefb1)" d="M 1140.961765 768.96 
L 1142.602941 768.96 
L 1142.602941 140.656508 
L 1140.961765 140.656508 
z
" style="fill:#1f77b4;"/>
   </g>
   <g id="patch_302">
    <path clip-path="url(#p97fbbbefb1)" d="M 1144.244118 768.96 
L 1145.885294 768.96 
L 1145.885294 138.730761 
L 1144.244118 138.730761 
z
" style="fill:#1f77b4;"/>
   </g>
   <g id="patch_303">
    <path clip-path="url(#p97fbbbefb1)" d="M 1147.526471 768.96 
L 1149.167647 768.96 
L 1149.167647 138.058247 
L 1147.526471 138.058247 
z
" style="fill:#1f77b4;"/>
   </g>
   <g id="patch_304">
    <path clip-path="url(#p97fbbbefb1)" d="M 1150.808824 768.96 
L 1152.45 768.96 
L 1152.45 137.59759 
L 1150.808824 137.59759 
z
" style="fill:#1f77b4;"/>
   </g>
   <g id="patch_305">
    <path clip-path="url(#p97fbbbefb1)" d="M 1154.091176 768.96 
L 1155.732353 768.96 
L 1155.732353 137.061884 
L 1154.091176 137.061884 
z
" style="fill:#1f77b4;"/>
   </g>
   <g id="patch_306">
    <path clip-path="url(#p97fbbbefb1)" d="M 1157.373529 768.96 
L 1159.014706 768.96 
L 1159.014706 136.363671 
L 1157.373529 136.363671 
z
" style="fill:#1f77b4;"/>
   </g>
   <g id="patch_307">
    <path clip-path="url(#p97fbbbefb1)" d="M 1160.655882 768.96 
L 1162.297059 768.96 
L 1162.297059 135.974972 
L 1160.655882 135.974972 
z
" style="fill:#1f77b4;"/>
   </g>
   <g id="patch_308">
    <path clip-path="url(#p97fbbbefb1)" d="M 1163.938235 768.96 
L 1165.579412 768.96 
L 1165.579412 135.36 
L 1163.938235 135.36 
z
" style="fill:#1f77b4;"/>
   </g>
   <g id="matplotlib.axis_1">
    <g id="xtick_1">
     <g id="line2d_1">
      <defs>
       <path d="M 0 0 
L 0 3.5 
" id="m1634b2f346" style="stroke:#000000;stroke-width:0.8;"/>
      </defs>
      <g>
       <use style="stroke:#000000;stroke-width:0.8;" x="163.641176" xlink:href="#m1634b2f346" y="768.96"/>
      </g>
     </g>
     <g id="text_1">
      <!-- January -->
      <g transform="translate(144.685708 783.558437)scale(0.1 -0.1)">
       <defs>
        <path d="M 628 4666 
L 1259 4666 
L 1259 325 
Q 1259 -519 939 -900 
Q 619 -1281 -91 -1281 
L -331 -1281 
L -331 -750 
L -134 -750 
Q 284 -750 456 -515 
Q 628 -281 628 325 
L 628 4666 
z
" id="DejaVuSans-4a" transform="scale(0.015625)"/>
        <path d="M 2194 1759 
Q 1497 1759 1228 1600 
Q 959 1441 959 1056 
Q 959 750 1161 570 
Q 1363 391 1709 391 
Q 2188 391 2477 730 
Q 2766 1069 2766 1631 
L 2766 1759 
L 2194 1759 
z
M 3341 1997 
L 3341 0 
L 2766 0 
L 2766 531 
Q 2569 213 2275 61 
Q 1981 -91 1556 -91 
Q 1019 -91 701 211 
Q 384 513 384 1019 
Q 384 1609 779 1909 
Q 1175 2209 1959 2209 
L 2766 2209 
L 2766 2266 
Q 2766 2663 2505 2880 
Q 2244 3097 1772 3097 
Q 1472 3097 1187 3025 
Q 903 2953 641 2809 
L 641 3341 
Q 956 3463 1253 3523 
Q 1550 3584 1831 3584 
Q 2591 3584 2966 3190 
Q 3341 2797 3341 1997 
z
" id="DejaVuSans-61" transform="scale(0.015625)"/>
        <path d="M 3513 2113 
L 3513 0 
L 2938 0 
L 2938 2094 
Q 2938 2591 2744 2837 
Q 2550 3084 2163 3084 
Q 1697 3084 1428 2787 
Q 1159 2491 1159 1978 
L 1159 0 
L 581 0 
L 581 3500 
L 1159 3500 
L 1159 2956 
Q 1366 3272 1645 3428 
Q 1925 3584 2291 3584 
Q 2894 3584 3203 3211 
Q 3513 2838 3513 2113 
z
" id="DejaVuSans-6e" transform="scale(0.015625)"/>
        <path d="M 544 1381 
L 544 3500 
L 1119 3500 
L 1119 1403 
Q 1119 906 1312 657 
Q 1506 409 1894 409 
Q 2359 409 2629 706 
Q 2900 1003 2900 1516 
L 2900 3500 
L 3475 3500 
L 3475 0 
L 2900 0 
L 2900 538 
Q 2691 219 2414 64 
Q 2138 -91 1772 -91 
Q 1169 -91 856 284 
Q 544 659 544 1381 
z
M 1991 3584 
L 1991 3584 
z
" id="DejaVuSans-75" transform="scale(0.015625)"/>
        <path d="M 2631 2963 
Q 2534 3019 2420 3045 
Q 2306 3072 2169 3072 
Q 1681 3072 1420 2755 
Q 1159 2438 1159 1844 
L 1159 0 
L 581 0 
L 581 3500 
L 1159 3500 
L 1159 2956 
Q 1341 3275 1631 3429 
Q 1922 3584 2338 3584 
Q 2397 3584 2469 3576 
Q 2541 3569 2628 3553 
L 2631 2963 
z
" id="DejaVuSans-72" transform="scale(0.015625)"/>
        <path d="M 2059 -325 
Q 1816 -950 1584 -1140 
Q 1353 -1331 966 -1331 
L 506 -1331 
L 506 -850 
L 844 -850 
Q 1081 -850 1212 -737 
Q 1344 -625 1503 -206 
L 1606 56 
L 191 3500 
L 800 3500 
L 1894 763 
L 2988 3500 
L 3597 3500 
L 2059 -325 
z
" id="DejaVuSans-79" transform="scale(0.015625)"/>
       </defs>
       <use xlink:href="#DejaVuSans-4a"/>
       <use x="29.492188" xlink:href="#DejaVuSans-61"/>
       <use x="90.771484" xlink:href="#DejaVuSans-6e"/>
       <use x="154.150391" xlink:href="#DejaVuSans-75"/>
       <use x="217.529297" xlink:href="#DejaVuSans-61"/>
       <use x="278.808594" xlink:href="#DejaVuSans-72"/>
       <use x="319.921875" xlink:href="#DejaVuSans-79"/>
      </g>
     </g>
    </g>
    <g id="xtick_2">
     <g id="line2d_2">
      <g>
       <use style="stroke:#000000;stroke-width:0.8;" x="265.394118" xlink:href="#m1634b2f346" y="768.96"/>
      </g>
     </g>
     <g id="text_2">
      <!-- February -->
      <g transform="translate(243.23943 783.558437)scale(0.1 -0.1)">
       <defs>
        <path d="M 628 4666 
L 3309 4666 
L 3309 4134 
L 1259 4134 
L 1259 2759 
L 3109 2759 
L 3109 2228 
L 1259 2228 
L 1259 0 
L 628 0 
L 628 4666 
z
" id="DejaVuSans-46" transform="scale(0.015625)"/>
        <path d="M 3597 1894 
L 3597 1613 
L 953 1613 
Q 991 1019 1311 708 
Q 1631 397 2203 397 
Q 2534 397 2845 478 
Q 3156 559 3463 722 
L 3463 178 
Q 3153 47 2828 -22 
Q 2503 -91 2169 -91 
Q 1331 -91 842 396 
Q 353 884 353 1716 
Q 353 2575 817 3079 
Q 1281 3584 2069 3584 
Q 2775 3584 3186 3129 
Q 3597 2675 3597 1894 
z
M 3022 2063 
Q 3016 2534 2758 2815 
Q 2500 3097 2075 3097 
Q 1594 3097 1305 2825 
Q 1016 2553 972 2059 
L 3022 2063 
z
" id="DejaVuSans-65" transform="scale(0.015625)"/>
        <path d="M 3116 1747 
Q 3116 2381 2855 2742 
Q 2594 3103 2138 3103 
Q 1681 3103 1420 2742 
Q 1159 2381 1159 1747 
Q 1159 1113 1420 752 
Q 1681 391 2138 391 
Q 2594 391 2855 752 
Q 3116 1113 3116 1747 
z
M 1159 2969 
Q 1341 3281 1617 3432 
Q 1894 3584 2278 3584 
Q 2916 3584 3314 3078 
Q 3713 2572 3713 1747 
Q 3713 922 3314 415 
Q 2916 -91 2278 -91 
Q 1894 -91 1617 61 
Q 1341 213 1159 525 
L 1159 0 
L 581 0 
L 581 4863 
L 1159 4863 
L 1159 2969 
z
" id="DejaVuSans-62" transform="scale(0.015625)"/>
       </defs>
       <use xlink:href="#DejaVuSans-46"/>
       <use x="52.019531" xlink:href="#DejaVuSans-65"/>
       <use x="113.542969" xlink:href="#DejaVuSans-62"/>
       <use x="177.019531" xlink:href="#DejaVuSans-72"/>
       <use x="218.132812" xlink:href="#DejaVuSans-75"/>
       <use x="281.511719" xlink:href="#DejaVuSans-61"/>
       <use x="342.791016" xlink:href="#DejaVuSans-72"/>
       <use x="383.904297" xlink:href="#DejaVuSans-79"/>
      </g>
     </g>
    </g>
    <g id="xtick_3">
     <g id="line2d_3">
      <g>
       <use style="stroke:#000000;stroke-width:0.8;" x="357.3" xlink:href="#m1634b2f346" y="768.96"/>
      </g>
     </g>
     <g id="text_3">
      <!-- March -->
      <g transform="translate(342.060938 783.558437)scale(0.1 -0.1)">
       <defs>
        <path d="M 628 4666 
L 1569 4666 
L 2759 1491 
L 3956 4666 
L 4897 4666 
L 4897 0 
L 4281 0 
L 4281 4097 
L 3078 897 
L 2444 897 
L 1241 4097 
L 1241 0 
L 628 0 
L 628 4666 
z
" id="DejaVuSans-4d" transform="scale(0.015625)"/>
        <path d="M 3122 3366 
L 3122 2828 
Q 2878 2963 2633 3030 
Q 2388 3097 2138 3097 
Q 1578 3097 1268 2742 
Q 959 2388 959 1747 
Q 959 1106 1268 751 
Q 1578 397 2138 397 
Q 2388 397 2633 464 
Q 2878 531 3122 666 
L 3122 134 
Q 2881 22 2623 -34 
Q 2366 -91 2075 -91 
Q 1284 -91 818 406 
Q 353 903 353 1747 
Q 353 2603 823 3093 
Q 1294 3584 2113 3584 
Q 2378 3584 2631 3529 
Q 2884 3475 3122 3366 
z
" id="DejaVuSans-63" transform="scale(0.015625)"/>
        <path d="M 3513 2113 
L 3513 0 
L 2938 0 
L 2938 2094 
Q 2938 2591 2744 2837 
Q 2550 3084 2163 3084 
Q 1697 3084 1428 2787 
Q 1159 2491 1159 1978 
L 1159 0 
L 581 0 
L 581 4863 
L 1159 4863 
L 1159 2956 
Q 1366 3272 1645 3428 
Q 1925 3584 2291 3584 
Q 2894 3584 3203 3211 
Q 3513 2838 3513 2113 
z
" id="DejaVuSans-68" transform="scale(0.015625)"/>
       </defs>
       <use xlink:href="#DejaVuSans-4d"/>
       <use x="86.279297" xlink:href="#DejaVuSans-61"/>
       <use x="147.558594" xlink:href="#DejaVuSans-72"/>
       <use x="186.421875" xlink:href="#DejaVuSans-63"/>
       <use x="241.402344" xlink:href="#DejaVuSans-68"/>
      </g>
     </g>
    </g>
    <g id="xtick_4">
     <g id="line2d_4">
      <g>
       <use style="stroke:#000000;stroke-width:0.8;" x="459.052941" xlink:href="#m1634b2f346" y="768.96"/>
      </g>
     </g>
     <g id="text_4">
      <!-- April -->
      <g transform="translate(447.624816 783.558437)scale(0.1 -0.1)">
       <defs>
        <path d="M 2188 4044 
L 1331 1722 
L 3047 1722 
L 2188 4044 
z
M 1831 4666 
L 2547 4666 
L 4325 0 
L 3669 0 
L 3244 1197 
L 1141 1197 
L 716 0 
L 50 0 
L 1831 4666 
z
" id="DejaVuSans-41" transform="scale(0.015625)"/>
        <path d="M 1159 525 
L 1159 -1331 
L 581 -1331 
L 581 3500 
L 1159 3500 
L 1159 2969 
Q 1341 3281 1617 3432 
Q 1894 3584 2278 3584 
Q 2916 3584 3314 3078 
Q 3713 2572 3713 1747 
Q 3713 922 3314 415 
Q 2916 -91 2278 -91 
Q 1894 -91 1617 61 
Q 1341 213 1159 525 
z
M 3116 1747 
Q 3116 2381 2855 2742 
Q 2594 3103 2138 3103 
Q 1681 3103 1420 2742 
Q 1159 2381 1159 1747 
Q 1159 1113 1420 752 
Q 1681 391 2138 391 
Q 2594 391 2855 752 
Q 3116 1113 3116 1747 
z
" id="DejaVuSans-70" transform="scale(0.015625)"/>
        <path d="M 603 3500 
L 1178 3500 
L 1178 0 
L 603 0 
L 603 3500 
z
M 603 4863 
L 1178 4863 
L 1178 4134 
L 603 4134 
L 603 4863 
z
" id="DejaVuSans-69" transform="scale(0.015625)"/>
        <path d="M 603 4863 
L 1178 4863 
L 1178 0 
L 603 0 
L 603 4863 
z
" id="DejaVuSans-6c" transform="scale(0.015625)"/>
       </defs>
       <use xlink:href="#DejaVuSans-41"/>
       <use x="68.408203" xlink:href="#DejaVuSans-70"/>
       <use x="131.884766" xlink:href="#DejaVuSans-72"/>
       <use x="172.998047" xlink:href="#DejaVuSans-69"/>
       <use x="200.78125" xlink:href="#DejaVuSans-6c"/>
      </g>
     </g>
    </g>
    <g id="xtick_5">
     <g id="line2d_5">
      <g>
       <use style="stroke:#000000;stroke-width:0.8;" x="557.523529" xlink:href="#m1634b2f346" y="768.96"/>
      </g>
     </g>
     <g id="text_5">
      <!-- May -->
      <g transform="translate(547.186029 783.558437)scale(0.1 -0.1)">
       <use xlink:href="#DejaVuSans-4d"/>
       <use x="86.279297" xlink:href="#DejaVuSans-61"/>
       <use x="147.558594" xlink:href="#DejaVuSans-79"/>
      </g>
     </g>
    </g>
    <g id="xtick_6">
     <g id="line2d_6">
      <g>
       <use style="stroke:#000000;stroke-width:0.8;" x="659.276471" xlink:href="#m1634b2f346" y="768.96"/>
      </g>
     </g>
     <g id="text_6">
      <!-- June -->
      <g transform="translate(648.387408 783.558437)scale(0.1 -0.1)">
       <use xlink:href="#DejaVuSans-4a"/>
       <use x="29.492188" xlink:href="#DejaVuSans-75"/>
       <use x="92.871094" xlink:href="#DejaVuSans-6e"/>
       <use x="156.25" xlink:href="#DejaVuSans-65"/>
      </g>
     </g>
    </g>
    <g id="xtick_7">
     <g id="line2d_7">
      <g>
       <use style="stroke:#000000;stroke-width:0.8;" x="757.747059" xlink:href="#m1634b2f346" y="768.96"/>
      </g>
     </g>
     <g id="text_7">
      <!-- July -->
      <g transform="translate(748.754871 783.558437)scale(0.1 -0.1)">
       <use xlink:href="#DejaVuSans-4a"/>
       <use x="29.492188" xlink:href="#DejaVuSans-75"/>
       <use x="92.871094" xlink:href="#DejaVuSans-6c"/>
       <use x="120.654297" xlink:href="#DejaVuSans-79"/>
      </g>
     </g>
    </g>
    <g id="xtick_8">
     <g id="line2d_8">
      <g>
       <use style="stroke:#000000;stroke-width:0.8;" x="859.5" xlink:href="#m1634b2f346" y="768.96"/>
      </g>
     </g>
     <g id="text_8">
      <!-- August -->
      <g transform="translate(842.003125 783.558437)scale(0.1 -0.1)">
       <defs>
        <path d="M 2906 1791 
Q 2906 2416 2648 2759 
Q 2391 3103 1925 3103 
Q 1463 3103 1205 2759 
Q 947 2416 947 1791 
Q 947 1169 1205 825 
Q 1463 481 1925 481 
Q 2391 481 2648 825 
Q 2906 1169 2906 1791 
z
M 3481 434 
Q 3481 -459 3084 -895 
Q 2688 -1331 1869 -1331 
Q 1566 -1331 1297 -1286 
Q 1028 -1241 775 -1147 
L 775 -588 
Q 1028 -725 1275 -790 
Q 1522 -856 1778 -856 
Q 2344 -856 2625 -561 
Q 2906 -266 2906 331 
L 2906 616 
Q 2728 306 2450 153 
Q 2172 0 1784 0 
Q 1141 0 747 490 
Q 353 981 353 1791 
Q 353 2603 747 3093 
Q 1141 3584 1784 3584 
Q 2172 3584 2450 3431 
Q 2728 3278 2906 2969 
L 2906 3500 
L 3481 3500 
L 3481 434 
z
" id="DejaVuSans-67" transform="scale(0.015625)"/>
        <path d="M 2834 3397 
L 2834 2853 
Q 2591 2978 2328 3040 
Q 2066 3103 1784 3103 
Q 1356 3103 1142 2972 
Q 928 2841 928 2578 
Q 928 2378 1081 2264 
Q 1234 2150 1697 2047 
L 1894 2003 
Q 2506 1872 2764 1633 
Q 3022 1394 3022 966 
Q 3022 478 2636 193 
Q 2250 -91 1575 -91 
Q 1294 -91 989 -36 
Q 684 19 347 128 
L 347 722 
Q 666 556 975 473 
Q 1284 391 1588 391 
Q 1994 391 2212 530 
Q 2431 669 2431 922 
Q 2431 1156 2273 1281 
Q 2116 1406 1581 1522 
L 1381 1569 
Q 847 1681 609 1914 
Q 372 2147 372 2553 
Q 372 3047 722 3315 
Q 1072 3584 1716 3584 
Q 2034 3584 2315 3537 
Q 2597 3491 2834 3397 
z
" id="DejaVuSans-73" transform="scale(0.015625)"/>
        <path d="M 1172 4494 
L 1172 3500 
L 2356 3500 
L 2356 3053 
L 1172 3053 
L 1172 1153 
Q 1172 725 1289 603 
Q 1406 481 1766 481 
L 2356 481 
L 2356 0 
L 1766 0 
Q 1100 0 847 248 
Q 594 497 594 1153 
L 594 3053 
L 172 3053 
L 172 3500 
L 594 3500 
L 594 4494 
L 1172 4494 
z
" id="DejaVuSans-74" transform="scale(0.015625)"/>
       </defs>
       <use xlink:href="#DejaVuSans-41"/>
       <use x="68.408203" xlink:href="#DejaVuSans-75"/>
       <use x="131.787109" xlink:href="#DejaVuSans-67"/>
       <use x="195.263672" xlink:href="#DejaVuSans-75"/>
       <use x="258.642578" xlink:href="#DejaVuSans-73"/>
       <use x="310.742188" xlink:href="#DejaVuSans-74"/>
      </g>
     </g>
    </g>
    <g id="xtick_9">
     <g id="line2d_9">
      <g>
       <use style="stroke:#000000;stroke-width:0.8;" x="961.252941" xlink:href="#m1634b2f346" y="768.96"/>
      </g>
     </g>
     <g id="text_9">
      <!-- September -->
      <g transform="translate(933.61466 783.558437)scale(0.1 -0.1)">
       <defs>
        <path d="M 3425 4513 
L 3425 3897 
Q 3066 4069 2747 4153 
Q 2428 4238 2131 4238 
Q 1616 4238 1336 4038 
Q 1056 3838 1056 3469 
Q 1056 3159 1242 3001 
Q 1428 2844 1947 2747 
L 2328 2669 
Q 3034 2534 3370 2195 
Q 3706 1856 3706 1288 
Q 3706 609 3251 259 
Q 2797 -91 1919 -91 
Q 1588 -91 1214 -16 
Q 841 59 441 206 
L 441 856 
Q 825 641 1194 531 
Q 1563 422 1919 422 
Q 2459 422 2753 634 
Q 3047 847 3047 1241 
Q 3047 1584 2836 1778 
Q 2625 1972 2144 2069 
L 1759 2144 
Q 1053 2284 737 2584 
Q 422 2884 422 3419 
Q 422 4038 858 4394 
Q 1294 4750 2059 4750 
Q 2388 4750 2728 4690 
Q 3069 4631 3425 4513 
z
" id="DejaVuSans-53" transform="scale(0.015625)"/>
        <path d="M 3328 2828 
Q 3544 3216 3844 3400 
Q 4144 3584 4550 3584 
Q 5097 3584 5394 3201 
Q 5691 2819 5691 2113 
L 5691 0 
L 5113 0 
L 5113 2094 
Q 5113 2597 4934 2840 
Q 4756 3084 4391 3084 
Q 3944 3084 3684 2787 
Q 3425 2491 3425 1978 
L 3425 0 
L 2847 0 
L 2847 2094 
Q 2847 2600 2669 2842 
Q 2491 3084 2119 3084 
Q 1678 3084 1418 2786 
Q 1159 2488 1159 1978 
L 1159 0 
L 581 0 
L 581 3500 
L 1159 3500 
L 1159 2956 
Q 1356 3278 1631 3431 
Q 1906 3584 2284 3584 
Q 2666 3584 2933 3390 
Q 3200 3197 3328 2828 
z
" id="DejaVuSans-6d" transform="scale(0.015625)"/>
       </defs>
       <use xlink:href="#DejaVuSans-53"/>
       <use x="63.476562" xlink:href="#DejaVuSans-65"/>
       <use x="125" xlink:href="#DejaVuSans-70"/>
       <use x="188.476562" xlink:href="#DejaVuSans-74"/>
       <use x="227.685547" xlink:href="#DejaVuSans-65"/>
       <use x="289.208984" xlink:href="#DejaVuSans-6d"/>
       <use x="386.621094" xlink:href="#DejaVuSans-62"/>
       <use x="450.097656" xlink:href="#DejaVuSans-65"/>
       <use x="511.621094" xlink:href="#DejaVuSans-72"/>
      </g>
     </g>
    </g>
    <g id="xtick_10">
     <g id="line2d_10">
      <g>
       <use style="stroke:#000000;stroke-width:0.8;" x="1059.723529" xlink:href="#m1634b2f346" y="768.96"/>
      </g>
     </g>
     <g id="text_10">
      <!-- October -->
      <g transform="translate(1039.712592 783.558437)scale(0.1 -0.1)">
       <defs>
        <path d="M 2522 4238 
Q 1834 4238 1429 3725 
Q 1025 3213 1025 2328 
Q 1025 1447 1429 934 
Q 1834 422 2522 422 
Q 3209 422 3611 934 
Q 4013 1447 4013 2328 
Q 4013 3213 3611 3725 
Q 3209 4238 2522 4238 
z
M 2522 4750 
Q 3503 4750 4090 4092 
Q 4678 3434 4678 2328 
Q 4678 1225 4090 567 
Q 3503 -91 2522 -91 
Q 1538 -91 948 565 
Q 359 1222 359 2328 
Q 359 3434 948 4092 
Q 1538 4750 2522 4750 
z
" id="DejaVuSans-4f" transform="scale(0.015625)"/>
        <path d="M 1959 3097 
Q 1497 3097 1228 2736 
Q 959 2375 959 1747 
Q 959 1119 1226 758 
Q 1494 397 1959 397 
Q 2419 397 2687 759 
Q 2956 1122 2956 1747 
Q 2956 2369 2687 2733 
Q 2419 3097 1959 3097 
z
M 1959 3584 
Q 2709 3584 3137 3096 
Q 3566 2609 3566 1747 
Q 3566 888 3137 398 
Q 2709 -91 1959 -91 
Q 1206 -91 779 398 
Q 353 888 353 1747 
Q 353 2609 779 3096 
Q 1206 3584 1959 3584 
z
" id="DejaVuSans-6f" transform="scale(0.015625)"/>
       </defs>
       <use xlink:href="#DejaVuSans-4f"/>
       <use x="78.710938" xlink:href="#DejaVuSans-63"/>
       <use x="133.691406" xlink:href="#DejaVuSans-74"/>
       <use x="172.900391" xlink:href="#DejaVuSans-6f"/>
       <use x="234.082031" xlink:href="#DejaVuSans-62"/>
       <use x="297.558594" xlink:href="#DejaVuSans-65"/>
       <use x="359.082031" xlink:href="#DejaVuSans-72"/>
      </g>
     </g>
    </g>
    <g id="xtick_11">
     <g id="line2d_11">
      <g>
       <use style="stroke:#000000;stroke-width:0.8;" x="1161.476471" xlink:href="#m1634b2f346" y="768.96"/>
      </g>
     </g>
     <g id="text_11">
      <!-- November -->
      <g transform="translate(1135.463971 783.558437)scale(0.1 -0.1)">
       <defs>
        <path d="M 628 4666 
L 1478 4666 
L 3547 763 
L 3547 4666 
L 4159 4666 
L 4159 0 
L 3309 0 
L 1241 3903 
L 1241 0 
L 628 0 
L 628 4666 
z
" id="DejaVuSans-4e" transform="scale(0.015625)"/>
        <path d="M 191 3500 
L 800 3500 
L 1894 563 
L 2988 3500 
L 3597 3500 
L 2284 0 
L 1503 0 
L 191 3500 
z
" id="DejaVuSans-76" transform="scale(0.015625)"/>
       </defs>
       <use xlink:href="#DejaVuSans-4e"/>
       <use x="74.804688" xlink:href="#DejaVuSans-6f"/>
       <use x="135.986328" xlink:href="#DejaVuSans-76"/>
       <use x="195.166016" xlink:href="#DejaVuSans-65"/>
       <use x="256.689453" xlink:href="#DejaVuSans-6d"/>
       <use x="354.101562" xlink:href="#DejaVuSans-62"/>
       <use x="417.578125" xlink:href="#DejaVuSans-65"/>
       <use x="479.101562" xlink:href="#DejaVuSans-72"/>
      </g>
     </g>
    </g>
   </g>
   <g id="matplotlib.axis_2">
    <g id="ytick_1">
     <g id="line2d_12">
      <defs>
       <path d="M 0 0 
L -3.5 0 
" id="m95a4f7aa50" style="stroke:#000000;stroke-width:0.8;"/>
      </defs>
      <g>
       <use style="stroke:#000000;stroke-width:0.8;" x="162" xlink:href="#m95a4f7aa50" y="768.96"/>
      </g>
     </g>
     <g id="text_12">
      <!-- 0.0 -->
      <g transform="translate(139.096875 772.759219)scale(0.1 -0.1)">
       <defs>
        <path d="M 2034 4250 
Q 1547 4250 1301 3770 
Q 1056 3291 1056 2328 
Q 1056 1369 1301 889 
Q 1547 409 2034 409 
Q 2525 409 2770 889 
Q 3016 1369 3016 2328 
Q 3016 3291 2770 3770 
Q 2525 4250 2034 4250 
z
M 2034 4750 
Q 2819 4750 3233 4129 
Q 3647 3509 3647 2328 
Q 3647 1150 3233 529 
Q 2819 -91 2034 -91 
Q 1250 -91 836 529 
Q 422 1150 422 2328 
Q 422 3509 836 4129 
Q 1250 4750 2034 4750 
z
" id="DejaVuSans-30" transform="scale(0.015625)"/>
        <path d="M 684 794 
L 1344 794 
L 1344 0 
L 684 0 
L 684 794 
z
" id="DejaVuSans-2e" transform="scale(0.015625)"/>
       </defs>
       <use xlink:href="#DejaVuSans-30"/>
       <use x="63.623047" xlink:href="#DejaVuSans-2e"/>
       <use x="95.410156" xlink:href="#DejaVuSans-30"/>
      </g>
     </g>
    </g>
    <g id="ytick_2">
     <g id="line2d_13">
      <g>
       <use style="stroke:#000000;stroke-width:0.8;" x="162" xlink:href="#m95a4f7aa50" y="688.650255"/>
      </g>
     </g>
     <g id="text_13">
      <!-- 0.2 -->
      <g transform="translate(139.096875 692.449474)scale(0.1 -0.1)">
       <defs>
        <path d="M 1228 531 
L 3431 531 
L 3431 0 
L 469 0 
L 469 531 
Q 828 903 1448 1529 
Q 2069 2156 2228 2338 
Q 2531 2678 2651 2914 
Q 2772 3150 2772 3378 
Q 2772 3750 2511 3984 
Q 2250 4219 1831 4219 
Q 1534 4219 1204 4116 
Q 875 4013 500 3803 
L 500 4441 
Q 881 4594 1212 4672 
Q 1544 4750 1819 4750 
Q 2544 4750 2975 4387 
Q 3406 4025 3406 3419 
Q 3406 3131 3298 2873 
Q 3191 2616 2906 2266 
Q 2828 2175 2409 1742 
Q 1991 1309 1228 531 
z
" id="DejaVuSans-32" transform="scale(0.015625)"/>
       </defs>
       <use xlink:href="#DejaVuSans-30"/>
       <use x="63.623047" xlink:href="#DejaVuSans-2e"/>
       <use x="95.410156" xlink:href="#DejaVuSans-32"/>
      </g>
     </g>
    </g>
    <g id="ytick_3">
     <g id="line2d_14">
      <g>
       <use style="stroke:#000000;stroke-width:0.8;" x="162" xlink:href="#m95a4f7aa50" y="608.34051"/>
      </g>
     </g>
     <g id="text_14">
      <!-- 0.4 -->
      <g transform="translate(139.096875 612.139728)scale(0.1 -0.1)">
       <defs>
        <path d="M 2419 4116 
L 825 1625 
L 2419 1625 
L 2419 4116 
z
M 2253 4666 
L 3047 4666 
L 3047 1625 
L 3713 1625 
L 3713 1100 
L 3047 1100 
L 3047 0 
L 2419 0 
L 2419 1100 
L 313 1100 
L 313 1709 
L 2253 4666 
z
" id="DejaVuSans-34" transform="scale(0.015625)"/>
       </defs>
       <use xlink:href="#DejaVuSans-30"/>
       <use x="63.623047" xlink:href="#DejaVuSans-2e"/>
       <use x="95.410156" xlink:href="#DejaVuSans-34"/>
      </g>
     </g>
    </g>
    <g id="ytick_4">
     <g id="line2d_15">
      <g>
       <use style="stroke:#000000;stroke-width:0.8;" x="162" xlink:href="#m95a4f7aa50" y="528.030765"/>
      </g>
     </g>
     <g id="text_15">
      <!-- 0.6 -->
      <g transform="translate(139.096875 531.829983)scale(0.1 -0.1)">
       <defs>
        <path d="M 2113 2584 
Q 1688 2584 1439 2293 
Q 1191 2003 1191 1497 
Q 1191 994 1439 701 
Q 1688 409 2113 409 
Q 2538 409 2786 701 
Q 3034 994 3034 1497 
Q 3034 2003 2786 2293 
Q 2538 2584 2113 2584 
z
M 3366 4563 
L 3366 3988 
Q 3128 4100 2886 4159 
Q 2644 4219 2406 4219 
Q 1781 4219 1451 3797 
Q 1122 3375 1075 2522 
Q 1259 2794 1537 2939 
Q 1816 3084 2150 3084 
Q 2853 3084 3261 2657 
Q 3669 2231 3669 1497 
Q 3669 778 3244 343 
Q 2819 -91 2113 -91 
Q 1303 -91 875 529 
Q 447 1150 447 2328 
Q 447 3434 972 4092 
Q 1497 4750 2381 4750 
Q 2619 4750 2861 4703 
Q 3103 4656 3366 4563 
z
" id="DejaVuSans-36" transform="scale(0.015625)"/>
       </defs>
       <use xlink:href="#DejaVuSans-30"/>
       <use x="63.623047" xlink:href="#DejaVuSans-2e"/>
       <use x="95.410156" xlink:href="#DejaVuSans-36"/>
      </g>
     </g>
    </g>
    <g id="ytick_5">
     <g id="line2d_16">
      <g>
       <use style="stroke:#000000;stroke-width:0.8;" x="162" xlink:href="#m95a4f7aa50" y="447.721019"/>
      </g>
     </g>
     <g id="text_16">
      <!-- 0.8 -->
      <g transform="translate(139.096875 451.520238)scale(0.1 -0.1)">
       <defs>
        <path d="M 2034 2216 
Q 1584 2216 1326 1975 
Q 1069 1734 1069 1313 
Q 1069 891 1326 650 
Q 1584 409 2034 409 
Q 2484 409 2743 651 
Q 3003 894 3003 1313 
Q 3003 1734 2745 1975 
Q 2488 2216 2034 2216 
z
M 1403 2484 
Q 997 2584 770 2862 
Q 544 3141 544 3541 
Q 544 4100 942 4425 
Q 1341 4750 2034 4750 
Q 2731 4750 3128 4425 
Q 3525 4100 3525 3541 
Q 3525 3141 3298 2862 
Q 3072 2584 2669 2484 
Q 3125 2378 3379 2068 
Q 3634 1759 3634 1313 
Q 3634 634 3220 271 
Q 2806 -91 2034 -91 
Q 1263 -91 848 271 
Q 434 634 434 1313 
Q 434 1759 690 2068 
Q 947 2378 1403 2484 
z
M 1172 3481 
Q 1172 3119 1398 2916 
Q 1625 2713 2034 2713 
Q 2441 2713 2670 2916 
Q 2900 3119 2900 3481 
Q 2900 3844 2670 4047 
Q 2441 4250 2034 4250 
Q 1625 4250 1398 4047 
Q 1172 3844 1172 3481 
z
" id="DejaVuSans-38" transform="scale(0.015625)"/>
       </defs>
       <use xlink:href="#DejaVuSans-30"/>
       <use x="63.623047" xlink:href="#DejaVuSans-2e"/>
       <use x="95.410156" xlink:href="#DejaVuSans-38"/>
      </g>
     </g>
    </g>
    <g id="ytick_6">
     <g id="line2d_17">
      <g>
       <use style="stroke:#000000;stroke-width:0.8;" x="162" xlink:href="#m95a4f7aa50" y="367.411274"/>
      </g>
     </g>
     <g id="text_17">
      <!-- 1.0 -->
      <g transform="translate(139.096875 371.210493)scale(0.1 -0.1)">
       <defs>
        <path d="M 794 531 
L 1825 531 
L 1825 4091 
L 703 3866 
L 703 4441 
L 1819 4666 
L 2450 4666 
L 2450 531 
L 3481 531 
L 3481 0 
L 794 0 
L 794 531 
z
" id="DejaVuSans-31" transform="scale(0.015625)"/>
       </defs>
       <use xlink:href="#DejaVuSans-31"/>
       <use x="63.623047" xlink:href="#DejaVuSans-2e"/>
       <use x="95.410156" xlink:href="#DejaVuSans-30"/>
      </g>
     </g>
    </g>
    <g id="ytick_7">
     <g id="line2d_18">
      <g>
       <use style="stroke:#000000;stroke-width:0.8;" x="162" xlink:href="#m95a4f7aa50" y="287.101529"/>
      </g>
     </g>
     <g id="text_18">
      <!-- 1.2 -->
      <g transform="translate(139.096875 290.900748)scale(0.1 -0.1)">
       <use xlink:href="#DejaVuSans-31"/>
       <use x="63.623047" xlink:href="#DejaVuSans-2e"/>
       <use x="95.410156" xlink:href="#DejaVuSans-32"/>
      </g>
     </g>
    </g>
    <g id="ytick_8">
     <g id="line2d_19">
      <g>
       <use style="stroke:#000000;stroke-width:0.8;" x="162" xlink:href="#m95a4f7aa50" y="206.791784"/>
      </g>
     </g>
     <g id="text_19">
      <!-- 1.4 -->
      <g transform="translate(139.096875 210.591003)scale(0.1 -0.1)">
       <use xlink:href="#DejaVuSans-31"/>
       <use x="63.623047" xlink:href="#DejaVuSans-2e"/>
       <use x="95.410156" xlink:href="#DejaVuSans-34"/>
      </g>
     </g>
    </g>
    <g id="ytick_9">
     <g id="line2d_20">
      <g>
       <use style="stroke:#000000;stroke-width:0.8;" x="162" xlink:href="#m95a4f7aa50" y="126.482039"/>
      </g>
     </g>
     <g id="text_20">
      <!-- 1.6 -->
      <g transform="translate(139.096875 130.281258)scale(0.1 -0.1)">
       <use xlink:href="#DejaVuSans-31"/>
       <use x="63.623047" xlink:href="#DejaVuSans-2e"/>
       <use x="95.410156" xlink:href="#DejaVuSans-36"/>
      </g>
     </g>
    </g>
    <g id="text_21">
     <!-- Persons fully vaccinated (tens of millions) -->
     <g transform="translate(133.017188 540.480156)rotate(-90)scale(0.1 -0.1)">
      <defs>
       <path d="M 1259 4147 
L 1259 2394 
L 2053 2394 
Q 2494 2394 2734 2622 
Q 2975 2850 2975 3272 
Q 2975 3691 2734 3919 
Q 2494 4147 2053 4147 
L 1259 4147 
z
M 628 4666 
L 2053 4666 
Q 2838 4666 3239 4311 
Q 3641 3956 3641 3272 
Q 3641 2581 3239 2228 
Q 2838 1875 2053 1875 
L 1259 1875 
L 1259 0 
L 628 0 
L 628 4666 
z
" id="DejaVuSans-50" transform="scale(0.015625)"/>
       <path id="DejaVuSans-20" transform="scale(0.015625)"/>
       <path d="M 2375 4863 
L 2375 4384 
L 1825 4384 
Q 1516 4384 1395 4259 
Q 1275 4134 1275 3809 
L 1275 3500 
L 2222 3500 
L 2222 3053 
L 1275 3053 
L 1275 0 
L 697 0 
L 697 3053 
L 147 3053 
L 147 3500 
L 697 3500 
L 697 3744 
Q 697 4328 969 4595 
Q 1241 4863 1831 4863 
L 2375 4863 
z
" id="DejaVuSans-66" transform="scale(0.015625)"/>
       <path d="M 2906 2969 
L 2906 4863 
L 3481 4863 
L 3481 0 
L 2906 0 
L 2906 525 
Q 2725 213 2448 61 
Q 2172 -91 1784 -91 
Q 1150 -91 751 415 
Q 353 922 353 1747 
Q 353 2572 751 3078 
Q 1150 3584 1784 3584 
Q 2172 3584 2448 3432 
Q 2725 3281 2906 2969 
z
M 947 1747 
Q 947 1113 1208 752 
Q 1469 391 1925 391 
Q 2381 391 2643 752 
Q 2906 1113 2906 1747 
Q 2906 2381 2643 2742 
Q 2381 3103 1925 3103 
Q 1469 3103 1208 2742 
Q 947 2381 947 1747 
z
" id="DejaVuSans-64" transform="scale(0.015625)"/>
       <path d="M 1984 4856 
Q 1566 4138 1362 3434 
Q 1159 2731 1159 2009 
Q 1159 1288 1364 580 
Q 1569 -128 1984 -844 
L 1484 -844 
Q 1016 -109 783 600 
Q 550 1309 550 2009 
Q 550 2706 781 3412 
Q 1013 4119 1484 4856 
L 1984 4856 
z
" id="DejaVuSans-28" transform="scale(0.015625)"/>
       <path d="M 513 4856 
L 1013 4856 
Q 1481 4119 1714 3412 
Q 1947 2706 1947 2009 
Q 1947 1309 1714 600 
Q 1481 -109 1013 -844 
L 513 -844 
Q 928 -128 1133 580 
Q 1338 1288 1338 2009 
Q 1338 2731 1133 3434 
Q 928 4138 513 4856 
z
" id="DejaVuSans-29" transform="scale(0.015625)"/>
      </defs>
      <use xlink:href="#DejaVuSans-50"/>
      <use x="56.677734" xlink:href="#DejaVuSans-65"/>
      <use x="118.201172" xlink:href="#DejaVuSans-72"/>
      <use x="159.314453" xlink:href="#DejaVuSans-73"/>
      <use x="211.414062" xlink:href="#DejaVuSans-6f"/>
      <use x="272.595703" xlink:href="#DejaVuSans-6e"/>
      <use x="335.974609" xlink:href="#DejaVuSans-73"/>
      <use x="388.074219" xlink:href="#DejaVuSans-20"/>
      <use x="419.861328" xlink:href="#DejaVuSans-66"/>
      <use x="455.066406" xlink:href="#DejaVuSans-75"/>
      <use x="518.445312" xlink:href="#DejaVuSans-6c"/>
      <use x="546.228516" xlink:href="#DejaVuSans-6c"/>
      <use x="574.011719" xlink:href="#DejaVuSans-79"/>
      <use x="633.191406" xlink:href="#DejaVuSans-20"/>
      <use x="664.978516" xlink:href="#DejaVuSans-76"/>
      <use x="724.158203" xlink:href="#DejaVuSans-61"/>
      <use x="785.4375" xlink:href="#DejaVuSans-63"/>
      <use x="840.417969" xlink:href="#DejaVuSans-63"/>
      <use x="895.398438" xlink:href="#DejaVuSans-69"/>
      <use x="923.181641" xlink:href="#DejaVuSans-6e"/>
      <use x="986.560547" xlink:href="#DejaVuSans-61"/>
      <use x="1047.839844" xlink:href="#DejaVuSans-74"/>
      <use x="1087.048828" xlink:href="#DejaVuSans-65"/>
      <use x="1148.572266" xlink:href="#DejaVuSans-64"/>
      <use x="1212.048828" xlink:href="#DejaVuSans-20"/>
      <use x="1243.835938" xlink:href="#DejaVuSans-28"/>
      <use x="1282.849609" xlink:href="#DejaVuSans-74"/>
      <use x="1322.058594" xlink:href="#DejaVuSans-65"/>
      <use x="1383.582031" xlink:href="#DejaVuSans-6e"/>
      <use x="1446.960938" xlink:href="#DejaVuSans-73"/>
      <use x="1499.060547" xlink:href="#DejaVuSans-20"/>
      <use x="1530.847656" xlink:href="#DejaVuSans-6f"/>
      <use x="1592.029297" xlink:href="#DejaVuSans-66"/>
      <use x="1627.234375" xlink:href="#DejaVuSans-20"/>
      <use x="1659.021484" xlink:href="#DejaVuSans-6d"/>
      <use x="1756.433594" xlink:href="#DejaVuSans-69"/>
      <use x="1784.216797" xlink:href="#DejaVuSans-6c"/>
      <use x="1812" xlink:href="#DejaVuSans-6c"/>
      <use x="1839.783203" xlink:href="#DejaVuSans-69"/>
      <use x="1867.566406" xlink:href="#DejaVuSans-6f"/>
      <use x="1928.748047" xlink:href="#DejaVuSans-6e"/>
      <use x="1992.126953" xlink:href="#DejaVuSans-73"/>
      <use x="2044.226562" xlink:href="#DejaVuSans-29"/>
     </g>
    </g>
    <g id="text_22">
     <!-- 1e7 -->
     <g transform="translate(162 100.68)scale(0.1 -0.1)">
      <defs>
       <path d="M 525 4666 
L 3525 4666 
L 3525 4397 
L 1831 0 
L 1172 0 
L 2766 4134 
L 525 4134 
L 525 4666 
z
" id="DejaVuSans-37" transform="scale(0.015625)"/>
      </defs>
      <use xlink:href="#DejaVuSans-31"/>
      <use x="63.623047" xlink:href="#DejaVuSans-65"/>
      <use x="125.146484" xlink:href="#DejaVuSans-37"/>
     </g>
    </g>
   </g>
   <g id="patch_309">
    <path d="M 162 768.96 
L 162 103.68 
" style="fill:none;stroke:#000000;stroke-linecap:square;stroke-linejoin:miter;stroke-width:0.8;"/>
   </g>
   <g id="patch_310">
    <path d="M 1166.4 768.96 
L 1166.4 103.68 
" style="fill:none;stroke:#000000;stroke-linecap:square;stroke-linejoin:miter;stroke-width:0.8;"/>
   </g>
   <g id="patch_311">
    <path d="M 162 768.96 
L 1166.4 768.96 
" style="fill:none;stroke:#000000;stroke-linecap:square;stroke-linejoin:miter;stroke-width:0.8;"/>
   </g>
   <g id="patch_312">
    <path d="M 162 103.68 
L 1166.4 103.68 
" style="fill:none;stroke:#000000;stroke-linecap:square;stroke-linejoin:miter;stroke-width:0.8;"/>
   </g>
   <g id="text_23">
    <!-- Persons Fully Vaccinated -->
    <g transform="translate(590.380313 97.68)scale(0.12 -0.12)">
     <defs>
      <path d="M 1831 0 
L 50 4666 
L 709 4666 
L 2188 738 
L 3669 4666 
L 4325 4666 
L 2547 0 
L 1831 0 
z
" id="DejaVuSans-56" transform="scale(0.015625)"/>
     </defs>
     <use xlink:href="#DejaVuSans-50"/>
     <use x="56.677734" xlink:href="#DejaVuSans-65"/>
     <use x="118.201172" xlink:href="#DejaVuSans-72"/>
     <use x="159.314453" xlink:href="#DejaVuSans-73"/>
     <use x="211.414062" xlink:href="#DejaVuSans-6f"/>
     <use x="272.595703" xlink:href="#DejaVuSans-6e"/>
     <use x="335.974609" xlink:href="#DejaVuSans-73"/>
     <use x="388.074219" xlink:href="#DejaVuSans-20"/>
     <use x="419.861328" xlink:href="#DejaVuSans-46"/>
     <use x="471.880859" xlink:href="#DejaVuSans-75"/>
     <use x="535.259766" xlink:href="#DejaVuSans-6c"/>
     <use x="563.042969" xlink:href="#DejaVuSans-6c"/>
     <use x="590.826172" xlink:href="#DejaVuSans-79"/>
     <use x="650.005859" xlink:href="#DejaVuSans-20"/>
     <use x="681.792969" xlink:href="#DejaVuSans-56"/>
     <use x="742.451172" xlink:href="#DejaVuSans-61"/>
     <use x="803.730469" xlink:href="#DejaVuSans-63"/>
     <use x="858.710938" xlink:href="#DejaVuSans-63"/>
     <use x="913.691406" xlink:href="#DejaVuSans-69"/>
     <use x="941.474609" xlink:href="#DejaVuSans-6e"/>
     <use x="1004.853516" xlink:href="#DejaVuSans-61"/>
     <use x="1066.132812" xlink:href="#DejaVuSans-74"/>
     <use x="1105.341797" xlink:href="#DejaVuSans-65"/>
     <use x="1166.865234" xlink:href="#DejaVuSans-64"/>
    </g>
   </g>
  </g>
 </g>
 <defs>
  <clipPath id="p97fbbbefb1">
   <rect height="665.28" width="1004.4" x="162" y="103.68"/>
  </clipPath>
 </defs>
</svg>
