<?xml version="1.0" encoding="utf-8" standalone="no"?>
<!DOCTYPE svg PUBLIC "-//W3C//DTD SVG 1.1//EN"
  "http://www.w3.org/Graphics/SVG/1.1/DTD/svg11.dtd">
<svg height="864pt" version="1.1" viewBox="0 0 1296 864" width="1296pt" xmlns="http://www.w3.org/2000/svg" xmlns:xlink="http://www.w3.org/1999/xlink">
 <metadata>
  <rdf:RDF xmlns:cc="http://creativecommons.org/ns#" xmlns:dc="http://purl.org/dc/elements/1.1/" xmlns:rdf="http://www.w3.org/1999/02/22-rdf-syntax-ns#">
   <cc:Work>
    <dc:type rdf:resource="http://purl.org/dc/dcmitype/StillImage"/>
    <dc:date>2021-08-29T11:16:36.784614</dc:date>
    <dc:format>image/svg+xml</dc:format>
    <dc:creator>
     <cc:Agent>
      <dc:title>Matplotlib v3.4.2, https://matplotlib.org/</dc:title>
     </cc:Agent>
    </dc:creator>
   </cc:Work>
  </rdf:RDF>
 </metadata>
 <defs>
  <style type="text/css">*{stroke-linecap:butt;stroke-linejoin:round;}</style>
 </defs>
 <g id="figure_1">
  <g id="patch_1">
   <path d="M 0 864 
L 1296 864 
L 1296 0 
L 0 0 
z
" style="fill:#ffffff;"/>
  </g>
  <g id="axes_1">
   <g id="patch_2">
    <path d="M 162 768.96 
L 1166.4 768.96 
L 1166.4 103.68 
L 162 103.68 
z
" style="fill:#ffffff;"/>
   </g>
   <g id="patch_3">
    <path clip-path="url(#pc73015cb14)" d="M 163.068511 768.96 
L 165.205532 768.96 
L 165.205532 768.948035 
L 163.068511 768.948035 
z
" style="fill:#1f77b4;"/>
   </g>
   <g id="patch_4">
    <path clip-path="url(#pc73015cb14)" d="M 167.342553 768.96 
L 169.479574 768.96 
L 169.479574 768.923371 
L 167.342553 768.923371 
z
" style="fill:#1f77b4;"/>
   </g>
   <g id="patch_5">
    <path clip-path="url(#pc73015cb14)" d="M 171.616596 768.96 
L 173.753617 768.96 
L 173.753617 768.711975 
L 171.616596 768.711975 
z
" style="fill:#1f77b4;"/>
   </g>
   <g id="patch_6">
    <path clip-path="url(#pc73015cb14)" d="M 175.890638 768.96 
L 178.02766 768.96 
L 178.02766 767.151693 
L 175.890638 767.151693 
z
" style="fill:#1f77b4;"/>
   </g>
   <g id="patch_7">
    <path clip-path="url(#pc73015cb14)" d="M 180.164681 768.96 
L 182.301702 768.96 
L 182.301702 765.28883 
L 180.164681 765.28883 
z
" style="fill:#1f77b4;"/>
   </g>
   <g id="patch_8">
    <path clip-path="url(#pc73015cb14)" d="M 184.438723 768.96 
L 186.575745 768.96 
L 186.575745 764.273191 
L 184.438723 764.273191 
z
" style="fill:#1f77b4;"/>
   </g>
   <g id="patch_9">
    <path clip-path="url(#pc73015cb14)" d="M 188.712766 768.96 
L 190.849787 768.96 
L 190.849787 763.656153 
L 188.712766 763.656153 
z
" style="fill:#1f77b4;"/>
   </g>
   <g id="patch_10">
    <path clip-path="url(#pc73015cb14)" d="M 192.986809 768.96 
L 195.12383 768.96 
L 195.12383 762.685263 
L 192.986809 762.685263 
z
" style="fill:#1f77b4;"/>
   </g>
   <g id="patch_11">
    <path clip-path="url(#pc73015cb14)" d="M 197.260851 768.96 
L 199.397872 768.96 
L 199.397872 761.765171 
L 197.260851 761.765171 
z
" style="fill:#1f77b4;"/>
   </g>
   <g id="patch_12">
    <path clip-path="url(#pc73015cb14)" d="M 201.534894 768.96 
L 203.671915 768.96 
L 203.671915 761.014445 
L 201.534894 761.014445 
z
" style="fill:#1f77b4;"/>
   </g>
   <g id="patch_13">
    <path clip-path="url(#pc73015cb14)" d="M 205.808936 768.96 
L 207.945957 768.96 
L 207.945957 760.103855 
L 205.808936 760.103855 
z
" style="fill:#1f77b4;"/>
   </g>
   <g id="patch_14">
    <path clip-path="url(#pc73015cb14)" d="M 210.082979 768.96 
L 212.22 768.96 
L 212.22 759.925331 
L 210.082979 759.925331 
z
" style="fill:#1f77b4;"/>
   </g>
   <g id="patch_15">
    <path clip-path="url(#pc73015cb14)" d="M 214.357021 768.96 
L 216.494043 768.96 
L 216.494043 759.814148 
L 214.357021 759.814148 
z
" style="fill:#1f77b4;"/>
   </g>
   <g id="patch_16">
    <path clip-path="url(#pc73015cb14)" d="M 218.631064 768.96 
L 220.768085 768.96 
L 220.768085 759.762703 
L 218.631064 759.762703 
z
" style="fill:#1f77b4;"/>
   </g>
   <g id="patch_17">
    <path clip-path="url(#pc73015cb14)" d="M 222.905106 768.96 
L 225.042128 768.96 
L 225.042128 759.509192 
L 222.905106 759.509192 
z
" style="fill:#1f77b4;"/>
   </g>
   <g id="patch_18">
    <path clip-path="url(#pc73015cb14)" d="M 227.179149 768.96 
L 229.31617 768.96 
L 229.31617 759.098582 
L 227.179149 759.098582 
z
" style="fill:#1f77b4;"/>
   </g>
   <g id="patch_19">
    <path clip-path="url(#pc73015cb14)" d="M 231.453191 768.96 
L 233.590213 768.96 
L 233.590213 758.266305 
L 231.453191 758.266305 
z
" style="fill:#1f77b4;"/>
   </g>
   <g id="patch_20">
    <path clip-path="url(#pc73015cb14)" d="M 235.727234 768.96 
L 237.864255 768.96 
L 237.864255 757.445949 
L 235.727234 757.445949 
z
" style="fill:#1f77b4;"/>
   </g>
   <g id="patch_21">
    <path clip-path="url(#pc73015cb14)" d="M 240.001277 768.96 
L 242.138298 768.96 
L 242.138298 756.871977 
L 240.001277 756.871977 
z
" style="fill:#1f77b4;"/>
   </g>
   <g id="patch_22">
    <path clip-path="url(#pc73015cb14)" d="M 244.275319 768.96 
L 246.41234 768.96 
L 246.41234 756.672892 
L 244.275319 756.672892 
z
" style="fill:#1f77b4;"/>
   </g>
   <g id="patch_23">
    <path clip-path="url(#pc73015cb14)" d="M 248.549362 768.96 
L 250.686383 768.96 
L 250.686383 756.391218 
L 248.549362 756.391218 
z
" style="fill:#1f77b4;"/>
   </g>
   <g id="patch_24">
    <path clip-path="url(#pc73015cb14)" d="M 252.823404 768.96 
L 254.960426 768.96 
L 254.960426 755.623906 
L 252.823404 755.623906 
z
" style="fill:#1f77b4;"/>
   </g>
   <g id="patch_25">
    <path clip-path="url(#pc73015cb14)" d="M 257.097447 768.96 
L 259.234468 768.96 
L 259.234468 754.314887 
L 257.097447 754.314887 
z
" style="fill:#1f77b4;"/>
   </g>
   <g id="patch_26">
    <path clip-path="url(#pc73015cb14)" d="M 261.371489 768.96 
L 263.508511 768.96 
L 263.508511 752.489475 
L 261.371489 752.489475 
z
" style="fill:#1f77b4;"/>
   </g>
   <g id="patch_27">
    <path clip-path="url(#pc73015cb14)" d="M 265.645532 768.96 
L 267.782553 768.96 
L 267.782553 750.969622 
L 265.645532 750.969622 
z
" style="fill:#1f77b4;"/>
   </g>
   <g id="patch_28">
    <path clip-path="url(#pc73015cb14)" d="M 269.919574 768.96 
L 272.056596 768.96 
L 272.056596 749.59741 
L 269.919574 749.59741 
z
" style="fill:#1f77b4;"/>
   </g>
   <g id="patch_29">
    <path clip-path="url(#pc73015cb14)" d="M 274.193617 768.96 
L 276.330638 768.96 
L 276.330638 748.861975 
L 274.193617 748.861975 
z
" style="fill:#1f77b4;"/>
   </g>
   <g id="patch_30">
    <path clip-path="url(#pc73015cb14)" d="M 278.46766 768.96 
L 280.604681 768.96 
L 280.604681 748.44886 
L 278.46766 748.44886 
z
" style="fill:#1f77b4;"/>
   </g>
   <g id="patch_31">
    <path clip-path="url(#pc73015cb14)" d="M 282.741702 768.96 
L 284.878723 768.96 
L 284.878723 747.701417 
L 282.741702 747.701417 
z
" style="fill:#1f77b4;"/>
   </g>
   <g id="patch_32">
    <path clip-path="url(#pc73015cb14)" d="M 287.015745 768.96 
L 289.152766 768.96 
L 289.152766 746.065327 
L 287.015745 746.065327 
z
" style="fill:#1f77b4;"/>
   </g>
   <g id="patch_33">
    <path clip-path="url(#pc73015cb14)" d="M 291.289787 768.96 
L 293.426809 768.96 
L 293.426809 744.862352 
L 291.289787 744.862352 
z
" style="fill:#1f77b4;"/>
   </g>
   <g id="patch_34">
    <path clip-path="url(#pc73015cb14)" d="M 295.56383 768.96 
L 297.700851 768.96 
L 297.700851 743.223584 
L 295.56383 743.223584 
z
" style="fill:#1f77b4;"/>
   </g>
   <g id="patch_35">
    <path clip-path="url(#pc73015cb14)" d="M 299.837872 768.96 
L 301.974894 768.96 
L 301.974894 741.946659 
L 299.837872 741.946659 
z
" style="fill:#1f77b4;"/>
   </g>
   <g id="patch_36">
    <path clip-path="url(#pc73015cb14)" d="M 304.111915 768.96 
L 306.248936 768.96 
L 306.248936 740.800182 
L 304.111915 740.800182 
z
" style="fill:#1f77b4;"/>
   </g>
   <g id="patch_37">
    <path clip-path="url(#pc73015cb14)" d="M 308.385957 768.96 
L 310.522979 768.96 
L 310.522979 740.411343 
L 308.385957 740.411343 
z
" style="fill:#1f77b4;"/>
   </g>
   <g id="patch_38">
    <path clip-path="url(#pc73015cb14)" d="M 312.66 768.96 
L 314.797021 768.96 
L 314.797021 739.091137 
L 312.66 739.091137 
z
" style="fill:#1f77b4;"/>
   </g>
   <g id="patch_39">
    <path clip-path="url(#pc73015cb14)" d="M 316.934043 768.96 
L 319.071064 768.96 
L 319.071064 737.447099 
L 316.934043 737.447099 
z
" style="fill:#1f77b4;"/>
   </g>
   <g id="patch_40">
    <path clip-path="url(#pc73015cb14)" d="M 321.208085 768.96 
L 323.345106 768.96 
L 323.345106 735.460052 
L 321.208085 735.460052 
z
" style="fill:#1f77b4;"/>
   </g>
   <g id="patch_41">
    <path clip-path="url(#pc73015cb14)" d="M 325.482128 768.96 
L 327.619149 768.96 
L 327.619149 732.609454 
L 325.482128 732.609454 
z
" style="fill:#1f77b4;"/>
   </g>
   <g id="patch_42">
    <path clip-path="url(#pc73015cb14)" d="M 329.75617 768.96 
L 331.893191 768.96 
L 331.893191 730.02986 
L 329.75617 730.02986 
z
" style="fill:#1f77b4;"/>
   </g>
   <g id="patch_43">
    <path clip-path="url(#pc73015cb14)" d="M 334.030213 768.96 
L 336.167234 768.96 
L 336.167234 728.428023 
L 334.030213 728.428023 
z
" style="fill:#1f77b4;"/>
   </g>
   <g id="patch_44">
    <path clip-path="url(#pc73015cb14)" d="M 338.304255 768.96 
L 340.441277 768.96 
L 340.441277 727.562788 
L 338.304255 727.562788 
z
" style="fill:#1f77b4;"/>
   </g>
   <g id="patch_45">
    <path clip-path="url(#pc73015cb14)" d="M 342.578298 768.96 
L 344.715319 768.96 
L 344.715319 726.725673 
L 342.578298 726.725673 
z
" style="fill:#1f77b4;"/>
   </g>
   <g id="patch_46">
    <path clip-path="url(#pc73015cb14)" d="M 346.85234 768.96 
L 348.989362 768.96 
L 348.989362 724.990451 
L 346.85234 724.990451 
z
" style="fill:#1f77b4;"/>
   </g>
   <g id="patch_47">
    <path clip-path="url(#pc73015cb14)" d="M 351.126383 768.96 
L 353.263404 768.96 
L 353.263404 722.184214 
L 351.126383 722.184214 
z
" style="fill:#1f77b4;"/>
   </g>
   <g id="patch_48">
    <path clip-path="url(#pc73015cb14)" d="M 355.400426 768.96 
L 357.537447 768.96 
L 357.537447 718.440347 
L 355.400426 718.440347 
z
" style="fill:#1f77b4;"/>
   </g>
   <g id="patch_49">
    <path clip-path="url(#pc73015cb14)" d="M 359.674468 768.96 
L 361.811489 768.96 
L 361.811489 714.996166 
L 359.674468 714.996166 
z
" style="fill:#1f77b4;"/>
   </g>
   <g id="patch_50">
    <path clip-path="url(#pc73015cb14)" d="M 363.948511 768.96 
L 366.085532 768.96 
L 366.085532 714.302069 
L 363.948511 714.302069 
z
" style="fill:#1f77b4;"/>
   </g>
   <g id="patch_51">
    <path clip-path="url(#pc73015cb14)" d="M 368.222553 768.96 
L 370.359574 768.96 
L 370.359574 711.750638 
L 368.222553 711.750638 
z
" style="fill:#1f77b4;"/>
   </g>
   <g id="patch_52">
    <path clip-path="url(#pc73015cb14)" d="M 372.496596 768.96 
L 374.633617 768.96 
L 374.633617 709.734002 
L 372.496596 709.734002 
z
" style="fill:#1f77b4;"/>
   </g>
   <g id="patch_53">
    <path clip-path="url(#pc73015cb14)" d="M 376.770638 768.96 
L 378.90766 768.96 
L 378.90766 706.725009 
L 376.770638 706.725009 
z
" style="fill:#1f77b4;"/>
   </g>
   <g id="patch_54">
    <path clip-path="url(#pc73015cb14)" d="M 381.044681 768.96 
L 383.181702 768.96 
L 383.181702 700.993619 
L 381.044681 700.993619 
z
" style="fill:#1f77b4;"/>
   </g>
   <g id="patch_55">
    <path clip-path="url(#pc73015cb14)" d="M 385.318723 768.96 
L 387.455745 768.96 
L 387.455745 694.969715 
L 385.318723 694.969715 
z
" style="fill:#1f77b4;"/>
   </g>
   <g id="patch_56">
    <path clip-path="url(#pc73015cb14)" d="M 389.592766 768.96 
L 391.729787 768.96 
L 391.729787 689.620124 
L 389.592766 689.620124 
z
" style="fill:#1f77b4;"/>
   </g>
   <g id="patch_57">
    <path clip-path="url(#pc73015cb14)" d="M 393.866809 768.96 
L 396.00383 768.96 
L 396.00383 684.942559 
L 393.866809 684.942559 
z
" style="fill:#1f77b4;"/>
   </g>
   <g id="patch_58">
    <path clip-path="url(#pc73015cb14)" d="M 398.140851 768.96 
L 400.277872 768.96 
L 400.277872 682.700619 
L 398.140851 682.700619 
z
" style="fill:#1f77b4;"/>
   </g>
   <g id="patch_59">
    <path clip-path="url(#pc73015cb14)" d="M 402.414894 768.96 
L 404.551915 768.96 
L 404.551915 679.328227 
L 402.414894 679.328227 
z
" style="fill:#1f77b4;"/>
   </g>
   <g id="patch_60">
    <path clip-path="url(#pc73015cb14)" d="M 406.688936 768.96 
L 408.825957 768.96 
L 408.825957 674.812599 
L 406.688936 674.812599 
z
" style="fill:#1f77b4;"/>
   </g>
   <g id="patch_61">
    <path clip-path="url(#pc73015cb14)" d="M 410.962979 768.96 
L 413.1 768.96 
L 413.1 669.664253 
L 410.962979 669.664253 
z
" style="fill:#1f77b4;"/>
   </g>
   <g id="patch_62">
    <path clip-path="url(#pc73015cb14)" d="M 415.237021 768.96 
L 417.374043 768.96 
L 417.374043 662.190342 
L 415.237021 662.190342 
z
" style="fill:#1f77b4;"/>
   </g>
   <g id="patch_63">
    <path clip-path="url(#pc73015cb14)" d="M 419.511064 768.96 
L 421.648085 768.96 
L 421.648085 655.188982 
L 419.511064 655.188982 
z
" style="fill:#1f77b4;"/>
   </g>
   <g id="patch_64">
    <path clip-path="url(#pc73015cb14)" d="M 423.785106 768.96 
L 425.922128 768.96 
L 425.922128 649.662207 
L 423.785106 649.662207 
z
" style="fill:#1f77b4;"/>
   </g>
   <g id="patch_65">
    <path clip-path="url(#pc73015cb14)" d="M 428.059149 768.96 
L 430.19617 768.96 
L 430.19617 647.943658 
L 428.059149 647.943658 
z
" style="fill:#1f77b4;"/>
   </g>
   <g id="patch_66">
    <path clip-path="url(#pc73015cb14)" d="M 432.333191 768.96 
L 434.470213 768.96 
L 434.470213 643.440297 
L 432.333191 643.440297 
z
" style="fill:#1f77b4;"/>
   </g>
   <g id="patch_67">
    <path clip-path="url(#pc73015cb14)" d="M 436.607234 768.96 
L 438.744255 768.96 
L 438.744255 637.631546 
L 436.607234 637.631546 
z
" style="fill:#1f77b4;"/>
   </g>
   <g id="patch_68">
    <path clip-path="url(#pc73015cb14)" d="M 440.881277 768.96 
L 443.018298 768.96 
L 443.018298 631.181611 
L 440.881277 631.181611 
z
" style="fill:#1f77b4;"/>
   </g>
   <g id="patch_69">
    <path clip-path="url(#pc73015cb14)" d="M 445.155319 768.96 
L 447.29234 768.96 
L 447.29234 624.266295 
L 445.155319 624.266295 
z
" style="fill:#1f77b4;"/>
   </g>
   <g id="patch_70">
    <path clip-path="url(#pc73015cb14)" d="M 449.429362 768.96 
L 451.566383 768.96 
L 451.566383 616.526607 
L 449.429362 616.526607 
z
" style="fill:#1f77b4;"/>
   </g>
   <g id="patch_71">
    <path clip-path="url(#pc73015cb14)" d="M 453.703404 768.96 
L 455.840426 768.96 
L 455.840426 611.546893 
L 453.703404 611.546893 
z
" style="fill:#1f77b4;"/>
   </g>
   <g id="patch_72">
    <path clip-path="url(#pc73015cb14)" d="M 457.977447 768.96 
L 460.114468 768.96 
L 460.114468 606.571931 
L 457.977447 606.571931 
z
" style="fill:#1f77b4;"/>
   </g>
   <g id="patch_73">
    <path clip-path="url(#pc73015cb14)" d="M 462.251489 768.96 
L 464.388511 768.96 
L 464.388511 602.197291 
L 462.251489 602.197291 
z
" style="fill:#1f77b4;"/>
   </g>
   <g id="patch_74">
    <path clip-path="url(#pc73015cb14)" d="M 466.525532 768.96 
L 468.662553 768.96 
L 468.662553 597.249715 
L 466.525532 597.249715 
z
" style="fill:#1f77b4;"/>
   </g>
   <g id="patch_75">
    <path clip-path="url(#pc73015cb14)" d="M 470.799574 768.96 
L 472.936596 768.96 
L 472.936596 592.804451 
L 470.799574 592.804451 
z
" style="fill:#1f77b4;"/>
   </g>
   <g id="patch_76">
    <path clip-path="url(#pc73015cb14)" d="M 475.073617 768.96 
L 477.210638 768.96 
L 477.210638 587.78353 
L 475.073617 587.78353 
z
" style="fill:#1f77b4;"/>
   </g>
   <g id="patch_77">
    <path clip-path="url(#pc73015cb14)" d="M 479.34766 768.96 
L 481.484681 768.96 
L 481.484681 582.629482 
L 479.34766 582.629482 
z
" style="fill:#1f77b4;"/>
   </g>
   <g id="patch_78">
    <path clip-path="url(#pc73015cb14)" d="M 483.621702 768.96 
L 485.758723 768.96 
L 485.758723 579.573838 
L 483.621702 579.573838 
z
" style="fill:#1f77b4;"/>
   </g>
   <g id="patch_79">
    <path clip-path="url(#pc73015cb14)" d="M 487.895745 768.96 
L 490.032766 768.96 
L 490.032766 577.877924 
L 487.895745 577.877924 
z
" style="fill:#1f77b4;"/>
   </g>
   <g id="patch_80">
    <path clip-path="url(#pc73015cb14)" d="M 492.169787 768.96 
L 494.306809 768.96 
L 494.306809 575.133671 
L 492.169787 575.133671 
z
" style="fill:#1f77b4;"/>
   </g>
   <g id="patch_81">
    <path clip-path="url(#pc73015cb14)" d="M 496.44383 768.96 
L 498.580851 768.96 
L 498.580851 571.846806 
L 496.44383 571.846806 
z
" style="fill:#1f77b4;"/>
   </g>
   <g id="patch_82">
    <path clip-path="url(#pc73015cb14)" d="M 500.717872 768.96 
L 502.854894 768.96 
L 502.854894 568.427634 
L 500.717872 568.427634 
z
" style="fill:#1f77b4;"/>
   </g>
   <g id="patch_83">
    <path clip-path="url(#pc73015cb14)" d="M 504.991915 768.96 
L 507.128936 768.96 
L 507.128936 563.940774 
L 504.991915 563.940774 
z
" style="fill:#1f77b4;"/>
   </g>
   <g id="patch_84">
    <path clip-path="url(#pc73015cb14)" d="M 509.265957 768.96 
L 511.402979 768.96 
L 511.402979 558.339833 
L 509.265957 558.339833 
z
" style="fill:#1f77b4;"/>
   </g>
   <g id="patch_85">
    <path clip-path="url(#pc73015cb14)" d="M 513.54 768.96 
L 515.677021 768.96 
L 515.677021 553.542531 
L 513.54 553.542531 
z
" style="fill:#1f77b4;"/>
   </g>
   <g id="patch_86">
    <path clip-path="url(#pc73015cb14)" d="M 517.814043 768.96 
L 519.951064 768.96 
L 519.951064 551.63155 
L 517.814043 551.63155 
z
" style="fill:#1f77b4;"/>
   </g>
   <g id="patch_87">
    <path clip-path="url(#pc73015cb14)" d="M 522.088085 768.96 
L 524.225106 768.96 
L 524.225106 548.742983 
L 522.088085 548.742983 
z
" style="fill:#1f77b4;"/>
   </g>
   <g id="patch_88">
    <path clip-path="url(#pc73015cb14)" d="M 526.362128 768.96 
L 528.499149 768.96 
L 528.499149 543.481294 
L 526.362128 543.481294 
z
" style="fill:#1f77b4;"/>
   </g>
   <g id="patch_89">
    <path clip-path="url(#pc73015cb14)" d="M 530.63617 768.96 
L 532.773191 768.96 
L 532.773191 539.039443 
L 530.63617 539.039443 
z
" style="fill:#1f77b4;"/>
   </g>
   <g id="patch_90">
    <path clip-path="url(#pc73015cb14)" d="M 534.910213 768.96 
L 537.047234 768.96 
L 537.047234 532.872045 
L 534.910213 532.872045 
z
" style="fill:#1f77b4;"/>
   </g>
   <g id="patch_91">
    <path clip-path="url(#pc73015cb14)" d="M 539.184255 768.96 
L 541.321277 768.96 
L 541.321277 526.618258 
L 539.184255 526.618258 
z
" style="fill:#1f77b4;"/>
   </g>
   <g id="patch_92">
    <path clip-path="url(#pc73015cb14)" d="M 543.458298 768.96 
L 545.595319 768.96 
L 545.595319 521.856419 
L 543.458298 521.856419 
z
" style="fill:#1f77b4;"/>
   </g>
   <g id="patch_93">
    <path clip-path="url(#pc73015cb14)" d="M 547.73234 768.96 
L 549.869362 768.96 
L 549.869362 520.525673 
L 547.73234 520.525673 
z
" style="fill:#1f77b4;"/>
   </g>
   <g id="patch_94">
    <path clip-path="url(#pc73015cb14)" d="M 552.006383 768.96 
L 554.143404 768.96 
L 554.143404 516.04391 
L 552.006383 516.04391 
z
" style="fill:#1f77b4;"/>
   </g>
   <g id="patch_95">
    <path clip-path="url(#pc73015cb14)" d="M 556.280426 768.96 
L 558.417447 768.96 
L 558.417447 509.065962 
L 556.280426 509.065962 
z
" style="fill:#1f77b4;"/>
   </g>
   <g id="patch_96">
    <path clip-path="url(#pc73015cb14)" d="M 560.554468 768.96 
L 562.691489 768.96 
L 562.691489 501.280486 
L 560.554468 501.280486 
z
" style="fill:#1f77b4;"/>
   </g>
   <g id="patch_97">
    <path clip-path="url(#pc73015cb14)" d="M 564.828511 768.96 
L 566.965532 768.96 
L 566.965532 492.152733 
L 564.828511 492.152733 
z
" style="fill:#1f77b4;"/>
   </g>
   <g id="patch_98">
    <path clip-path="url(#pc73015cb14)" d="M 569.102553 768.96 
L 571.239574 768.96 
L 571.239574 481.363015 
L 569.102553 481.363015 
z
" style="fill:#1f77b4;"/>
   </g>
   <g id="patch_99">
    <path clip-path="url(#pc73015cb14)" d="M 573.376596 768.96 
L 575.513617 768.96 
L 575.513617 474.21069 
L 573.376596 474.21069 
z
" style="fill:#1f77b4;"/>
   </g>
   <g id="patch_100">
    <path clip-path="url(#pc73015cb14)" d="M 577.650638 768.96 
L 579.78766 768.96 
L 579.78766 470.665778 
L 577.650638 470.665778 
z
" style="fill:#1f77b4;"/>
   </g>
   <g id="patch_101">
    <path clip-path="url(#pc73015cb14)" d="M 581.924681 768.96 
L 584.061702 768.96 
L 584.061702 464.684118 
L 581.924681 464.684118 
z
" style="fill:#1f77b4;"/>
   </g>
   <g id="patch_102">
    <path clip-path="url(#pc73015cb14)" d="M 586.198723 768.96 
L 588.335745 768.96 
L 588.335745 457.300614 
L 586.198723 457.300614 
z
" style="fill:#1f77b4;"/>
   </g>
   <g id="patch_103">
    <path clip-path="url(#pc73015cb14)" d="M 590.472766 768.96 
L 592.609787 768.96 
L 592.609787 450.961646 
L 590.472766 450.961646 
z
" style="fill:#1f77b4;"/>
   </g>
   <g id="patch_104">
    <path clip-path="url(#pc73015cb14)" d="M 594.746809 768.96 
L 596.88383 768.96 
L 596.88383 442.39495 
L 594.746809 442.39495 
z
" style="fill:#1f77b4;"/>
   </g>
   <g id="patch_105">
    <path clip-path="url(#pc73015cb14)" d="M 599.020851 768.96 
L 601.157872 768.96 
L 601.157872 434.053774 
L 599.020851 434.053774 
z
" style="fill:#1f77b4;"/>
   </g>
   <g id="patch_106">
    <path clip-path="url(#pc73015cb14)" d="M 603.294894 768.96 
L 605.431915 768.96 
L 605.431915 428.256642 
L 603.294894 428.256642 
z
" style="fill:#1f77b4;"/>
   </g>
   <g id="patch_107">
    <path clip-path="url(#pc73015cb14)" d="M 607.568936 768.96 
L 609.705957 768.96 
L 609.705957 424.905805 
L 607.568936 424.905805 
z
" style="fill:#1f77b4;"/>
   </g>
   <g id="patch_108">
    <path clip-path="url(#pc73015cb14)" d="M 611.842979 768.96 
L 613.98 768.96 
L 613.98 420.109453 
L 611.842979 420.109453 
z
" style="fill:#1f77b4;"/>
   </g>
   <g id="patch_109">
    <path clip-path="url(#pc73015cb14)" d="M 616.117021 768.96 
L 618.254043 768.96 
L 618.254043 412.432484 
L 616.117021 412.432484 
z
" style="fill:#1f77b4;"/>
   </g>
   <g id="patch_110">
    <path clip-path="url(#pc73015cb14)" d="M 620.391064 768.96 
L 622.528085 768.96 
L 622.528085 405.583774 
L 620.391064 405.583774 
z
" style="fill:#1f77b4;"/>
   </g>
   <g id="patch_111">
    <path clip-path="url(#pc73015cb14)" d="M 624.665106 768.96 
L 626.802128 768.96 
L 626.802128 398.331798 
L 624.665106 398.331798 
z
" style="fill:#1f77b4;"/>
   </g>
   <g id="patch_112">
    <path clip-path="url(#pc73015cb14)" d="M 628.939149 768.96 
L 631.07617 768.96 
L 631.07617 391.635005 
L 628.939149 391.635005 
z
" style="fill:#1f77b4;"/>
   </g>
   <g id="patch_113">
    <path clip-path="url(#pc73015cb14)" d="M 633.213191 768.96 
L 635.350213 768.96 
L 635.350213 387.18067 
L 633.213191 387.18067 
z
" style="fill:#1f77b4;"/>
   </g>
   <g id="patch_114">
    <path clip-path="url(#pc73015cb14)" d="M 637.487234 768.96 
L 639.624255 768.96 
L 639.624255 385.261395 
L 637.487234 385.261395 
z
" style="fill:#1f77b4;"/>
   </g>
   <g id="patch_115">
    <path clip-path="url(#pc73015cb14)" d="M 641.761277 768.96 
L 643.898298 768.96 
L 643.898298 381.143634 
L 641.761277 381.143634 
z
" style="fill:#1f77b4;"/>
   </g>
   <g id="patch_116">
    <path clip-path="url(#pc73015cb14)" d="M 646.035319 768.96 
L 648.17234 768.96 
L 648.17234 375.321924 
L 646.035319 375.321924 
z
" style="fill:#1f77b4;"/>
   </g>
   <g id="patch_117">
    <path clip-path="url(#pc73015cb14)" d="M 650.309362 768.96 
L 652.446383 768.96 
L 652.446383 369.210075 
L 650.309362 369.210075 
z
" style="fill:#1f77b4;"/>
   </g>
   <g id="patch_118">
    <path clip-path="url(#pc73015cb14)" d="M 654.583404 768.96 
L 656.720426 768.96 
L 656.720426 363.263533 
L 654.583404 363.263533 
z
" style="fill:#1f77b4;"/>
   </g>
   <g id="patch_119">
    <path clip-path="url(#pc73015cb14)" d="M 658.857447 768.96 
L 660.994468 768.96 
L 660.994468 358.2576 
L 658.857447 358.2576 
z
" style="fill:#1f77b4;"/>
   </g>
   <g id="patch_120">
    <path clip-path="url(#pc73015cb14)" d="M 663.131489 768.96 
L 665.268511 768.96 
L 665.268511 356.011297 
L 663.131489 356.011297 
z
" style="fill:#1f77b4;"/>
   </g>
   <g id="patch_121">
    <path clip-path="url(#pc73015cb14)" d="M 667.405532 768.96 
L 669.542553 768.96 
L 669.542553 355.234914 
L 667.405532 355.234914 
z
" style="fill:#1f77b4;"/>
   </g>
   <g id="patch_122">
    <path clip-path="url(#pc73015cb14)" d="M 671.679574 768.96 
L 673.816596 768.96 
L 673.816596 352.827365 
L 671.679574 352.827365 
z
" style="fill:#1f77b4;"/>
   </g>
   <g id="patch_123">
    <path clip-path="url(#pc73015cb14)" d="M 675.953617 768.96 
L 678.090638 768.96 
L 678.090638 346.45423 
L 675.953617 346.45423 
z
" style="fill:#1f77b4;"/>
   </g>
   <g id="patch_124">
    <path clip-path="url(#pc73015cb14)" d="M 680.22766 768.96 
L 682.364681 768.96 
L 682.364681 340.27625 
L 680.22766 340.27625 
z
" style="fill:#1f77b4;"/>
   </g>
   <g id="patch_125">
    <path clip-path="url(#pc73015cb14)" d="M 684.501702 768.96 
L 686.638723 768.96 
L 686.638723 335.608446 
L 684.501702 335.608446 
z
" style="fill:#1f77b4;"/>
   </g>
   <g id="patch_126">
    <path clip-path="url(#pc73015cb14)" d="M 688.775745 768.96 
L 690.912766 768.96 
L 690.912766 328.77749 
L 688.775745 328.77749 
z
" style="fill:#1f77b4;"/>
   </g>
   <g id="patch_127">
    <path clip-path="url(#pc73015cb14)" d="M 693.049787 768.96 
L 695.186809 768.96 
L 695.186809 324.177891 
L 693.049787 324.177891 
z
" style="fill:#1f77b4;"/>
   </g>
   <g id="patch_128">
    <path clip-path="url(#pc73015cb14)" d="M 697.32383 768.96 
L 699.460851 768.96 
L 699.460851 320.083196 
L 697.32383 320.083196 
z
" style="fill:#1f77b4;"/>
   </g>
   <g id="patch_129">
    <path clip-path="url(#pc73015cb14)" d="M 701.597872 768.96 
L 703.734894 768.96 
L 703.734894 316.545023 
L 701.597872 316.545023 
z
" style="fill:#1f77b4;"/>
   </g>
   <g id="patch_130">
    <path clip-path="url(#pc73015cb14)" d="M 705.871915 768.96 
L 708.008936 768.96 
L 708.008936 311.784653 
L 705.871915 311.784653 
z
" style="fill:#1f77b4;"/>
   </g>
   <g id="patch_131">
    <path clip-path="url(#pc73015cb14)" d="M 710.145957 768.96 
L 712.282979 768.96 
L 712.282979 307.467418 
L 710.145957 307.467418 
z
" style="fill:#1f77b4;"/>
   </g>
   <g id="patch_132">
    <path clip-path="url(#pc73015cb14)" d="M 714.42 768.96 
L 716.557021 768.96 
L 716.557021 303.024487 
L 714.42 303.024487 
z
" style="fill:#1f77b4;"/>
   </g>
   <g id="patch_133">
    <path clip-path="url(#pc73015cb14)" d="M 718.694043 768.96 
L 720.831064 768.96 
L 720.831064 296.565438 
L 718.694043 296.565438 
z
" style="fill:#1f77b4;"/>
   </g>
   <g id="patch_134">
    <path clip-path="url(#pc73015cb14)" d="M 722.968085 768.96 
L 725.105106 768.96 
L 725.105106 293.022125 
L 722.968085 293.022125 
z
" style="fill:#1f77b4;"/>
   </g>
   <g id="patch_135">
    <path clip-path="url(#pc73015cb14)" d="M 727.242128 768.96 
L 729.379149 768.96 
L 729.379149 291.564862 
L 727.242128 291.564862 
z
" style="fill:#1f77b4;"/>
   </g>
   <g id="patch_136">
    <path clip-path="url(#pc73015cb14)" d="M 731.51617 768.96 
L 733.653191 768.96 
L 733.653191 289.072694 
L 731.51617 289.072694 
z
" style="fill:#1f77b4;"/>
   </g>
   <g id="patch_137">
    <path clip-path="url(#pc73015cb14)" d="M 735.790213 768.96 
L 737.927234 768.96 
L 737.927234 284.453787 
L 735.790213 284.453787 
z
" style="fill:#1f77b4;"/>
   </g>
   <g id="patch_138">
    <path clip-path="url(#pc73015cb14)" d="M 740.064255 768.96 
L 742.201277 768.96 
L 742.201277 280.327689 
L 740.064255 280.327689 
z
" style="fill:#1f77b4;"/>
   </g>
   <g id="patch_139">
    <path clip-path="url(#pc73015cb14)" d="M 744.338298 768.96 
L 746.475319 768.96 
L 746.475319 274.481747 
L 744.338298 274.481747 
z
" style="fill:#1f77b4;"/>
   </g>
   <g id="patch_140">
    <path clip-path="url(#pc73015cb14)" d="M 748.61234 768.96 
L 750.749362 768.96 
L 750.749362 270.647776 
L 748.61234 270.647776 
z
" style="fill:#1f77b4;"/>
   </g>
   <g id="patch_141">
    <path clip-path="url(#pc73015cb14)" d="M 752.886383 768.96 
L 755.023404 768.96 
L 755.023404 267.64293 
L 752.886383 267.64293 
z
" style="fill:#1f77b4;"/>
   </g>
   <g id="patch_142">
    <path clip-path="url(#pc73015cb14)" d="M 757.160426 768.96 
L 759.297447 768.96 
L 759.297447 266.256808 
L 757.160426 266.256808 
z
" style="fill:#1f77b4;"/>
   </g>
   <g id="patch_143">
    <path clip-path="url(#pc73015cb14)" d="M 761.434468 768.96 
L 763.571489 768.96 
L 763.571489 263.963337 
L 761.434468 263.963337 
z
" style="fill:#1f77b4;"/>
   </g>
   <g id="patch_144">
    <path clip-path="url(#pc73015cb14)" d="M 765.708511 768.96 
L 767.845532 768.96 
L 767.845532 261.124617 
L 765.708511 261.124617 
z
" style="fill:#1f77b4;"/>
   </g>
   <g id="patch_145">
    <path clip-path="url(#pc73015cb14)" d="M 769.982553 768.96 
L 772.119574 768.96 
L 772.119574 258.243264 
L 769.982553 258.243264 
z
" style="fill:#1f77b4;"/>
   </g>
   <g id="patch_146">
    <path clip-path="url(#pc73015cb14)" d="M 774.256596 768.96 
L 776.393617 768.96 
L 776.393617 255.232241 
L 774.256596 255.232241 
z
" style="fill:#1f77b4;"/>
   </g>
   <g id="patch_147">
    <path clip-path="url(#pc73015cb14)" d="M 778.530638 768.96 
L 780.66766 768.96 
L 780.66766 252.483712 
L 778.530638 252.483712 
z
" style="fill:#1f77b4;"/>
   </g>
   <g id="patch_148">
    <path clip-path="url(#pc73015cb14)" d="M 782.804681 768.96 
L 784.941702 768.96 
L 784.941702 250.606552 
L 782.804681 250.606552 
z
" style="fill:#1f77b4;"/>
   </g>
   <g id="patch_149">
    <path clip-path="url(#pc73015cb14)" d="M 787.078723 768.96 
L 789.215745 768.96 
L 789.215745 249.563268 
L 787.078723 249.563268 
z
" style="fill:#1f77b4;"/>
   </g>
   <g id="patch_150">
    <path clip-path="url(#pc73015cb14)" d="M 791.352766 768.96 
L 793.489787 768.96 
L 793.489787 248.79034 
L 791.352766 248.79034 
z
" style="fill:#1f77b4;"/>
   </g>
   <g id="patch_151">
    <path clip-path="url(#pc73015cb14)" d="M 795.626809 768.96 
L 797.76383 768.96 
L 797.76383 247.135288 
L 795.626809 247.135288 
z
" style="fill:#1f77b4;"/>
   </g>
   <g id="patch_152">
    <path clip-path="url(#pc73015cb14)" d="M 799.900851 768.96 
L 802.037872 768.96 
L 802.037872 245.38551 
L 799.900851 245.38551 
z
" style="fill:#1f77b4;"/>
   </g>
   <g id="patch_153">
    <path clip-path="url(#pc73015cb14)" d="M 804.174894 768.96 
L 806.311915 768.96 
L 806.311915 242.68389 
L 804.174894 242.68389 
z
" style="fill:#1f77b4;"/>
   </g>
   <g id="patch_154">
    <path clip-path="url(#pc73015cb14)" d="M 808.448936 768.96 
L 810.585957 768.96 
L 810.585957 239.949961 
L 808.448936 239.949961 
z
" style="fill:#1f77b4;"/>
   </g>
   <g id="patch_155">
    <path clip-path="url(#pc73015cb14)" d="M 812.722979 768.96 
L 814.86 768.96 
L 814.86 237.632301 
L 812.722979 237.632301 
z
" style="fill:#1f77b4;"/>
   </g>
   <g id="patch_156">
    <path clip-path="url(#pc73015cb14)" d="M 816.997021 768.96 
L 819.134043 768.96 
L 819.134043 236.043121 
L 816.997021 236.043121 
z
" style="fill:#1f77b4;"/>
   </g>
   <g id="patch_157">
    <path clip-path="url(#pc73015cb14)" d="M 821.271064 768.96 
L 823.408085 768.96 
L 823.408085 233.886274 
L 821.271064 233.886274 
z
" style="fill:#1f77b4;"/>
   </g>
   <g id="patch_158">
    <path clip-path="url(#pc73015cb14)" d="M 825.545106 768.96 
L 827.682128 768.96 
L 827.682128 231.379032 
L 825.545106 231.379032 
z
" style="fill:#1f77b4;"/>
   </g>
   <g id="patch_159">
    <path clip-path="url(#pc73015cb14)" d="M 829.819149 768.96 
L 831.95617 768.96 
L 831.95617 228.250778 
L 829.819149 228.250778 
z
" style="fill:#1f77b4;"/>
   </g>
   <g id="patch_160">
    <path clip-path="url(#pc73015cb14)" d="M 834.093191 768.96 
L 836.230213 768.96 
L 836.230213 226.12879 
L 834.093191 226.12879 
z
" style="fill:#1f77b4;"/>
   </g>
   <g id="patch_161">
    <path clip-path="url(#pc73015cb14)" d="M 838.367234 768.96 
L 840.504255 768.96 
L 840.504255 224.129647 
L 838.367234 224.129647 
z
" style="fill:#1f77b4;"/>
   </g>
   <g id="patch_162">
    <path clip-path="url(#pc73015cb14)" d="M 842.641277 768.96 
L 844.778298 768.96 
L 844.778298 222.947794 
L 842.641277 222.947794 
z
" style="fill:#1f77b4;"/>
   </g>
   <g id="patch_163">
    <path clip-path="url(#pc73015cb14)" d="M 846.915319 768.96 
L 849.05234 768.96 
L 849.05234 221.783781 
L 846.915319 221.783781 
z
" style="fill:#1f77b4;"/>
   </g>
   <g id="patch_164">
    <path clip-path="url(#pc73015cb14)" d="M 851.189362 768.96 
L 853.326383 768.96 
L 853.326383 218.284353 
L 851.189362 218.284353 
z
" style="fill:#1f77b4;"/>
   </g>
   <g id="patch_165">
    <path clip-path="url(#pc73015cb14)" d="M 855.463404 768.96 
L 857.600426 768.96 
L 857.600426 215.536257 
L 855.463404 215.536257 
z
" style="fill:#1f77b4;"/>
   </g>
   <g id="patch_166">
    <path clip-path="url(#pc73015cb14)" d="M 859.737447 768.96 
L 861.874468 768.96 
L 861.874468 213.638622 
L 859.737447 213.638622 
z
" style="fill:#1f77b4;"/>
   </g>
   <g id="patch_167">
    <path clip-path="url(#pc73015cb14)" d="M 864.011489 768.96 
L 866.148511 768.96 
L 866.148511 211.117644 
L 864.011489 211.117644 
z
" style="fill:#1f77b4;"/>
   </g>
   <g id="patch_168">
    <path clip-path="url(#pc73015cb14)" d="M 868.285532 768.96 
L 870.422553 768.96 
L 870.422553 209.932594 
L 868.285532 209.932594 
z
" style="fill:#1f77b4;"/>
   </g>
   <g id="patch_169">
    <path clip-path="url(#pc73015cb14)" d="M 872.559574 768.96 
L 874.696596 768.96 
L 874.696596 208.056989 
L 872.559574 208.056989 
z
" style="fill:#1f77b4;"/>
   </g>
   <g id="patch_170">
    <path clip-path="url(#pc73015cb14)" d="M 876.833617 768.96 
L 878.970638 768.96 
L 878.970638 207.264192 
L 876.833617 207.264192 
z
" style="fill:#1f77b4;"/>
   </g>
   <g id="patch_171">
    <path clip-path="url(#pc73015cb14)" d="M 881.10766 768.96 
L 883.244681 768.96 
L 883.244681 206.244535 
L 881.10766 206.244535 
z
" style="fill:#1f77b4;"/>
   </g>
   <g id="patch_172">
    <path clip-path="url(#pc73015cb14)" d="M 885.381702 768.96 
L 887.518723 768.96 
L 887.518723 205.00627 
L 885.381702 205.00627 
z
" style="fill:#1f77b4;"/>
   </g>
   <g id="patch_173">
    <path clip-path="url(#pc73015cb14)" d="M 889.655745 768.96 
L 891.792766 768.96 
L 891.792766 203.543089 
L 889.655745 203.543089 
z
" style="fill:#1f77b4;"/>
   </g>
   <g id="patch_174">
    <path clip-path="url(#pc73015cb14)" d="M 893.929787 768.96 
L 896.066809 768.96 
L 896.066809 201.734998 
L 893.929787 201.734998 
z
" style="fill:#1f77b4;"/>
   </g>
   <g id="patch_175">
    <path clip-path="url(#pc73015cb14)" d="M 898.20383 768.96 
L 900.340851 768.96 
L 900.340851 197.399535 
L 898.20383 197.399535 
z
" style="fill:#1f77b4;"/>
   </g>
   <g id="patch_176">
    <path clip-path="url(#pc73015cb14)" d="M 902.477872 768.96 
L 904.614894 768.96 
L 904.614894 192.409973 
L 902.477872 192.409973 
z
" style="fill:#1f77b4;"/>
   </g>
   <g id="patch_177">
    <path clip-path="url(#pc73015cb14)" d="M 906.751915 768.96 
L 908.888936 768.96 
L 908.888936 192.015561 
L 906.751915 192.015561 
z
" style="fill:#1f77b4;"/>
   </g>
   <g id="patch_178">
    <path clip-path="url(#pc73015cb14)" d="M 911.025957 768.96 
L 913.162979 768.96 
L 913.162979 191.000224 
L 911.025957 191.000224 
z
" style="fill:#1f77b4;"/>
   </g>
   <g id="patch_179">
    <path clip-path="url(#pc73015cb14)" d="M 915.3 768.96 
L 917.437021 768.96 
L 917.437021 189.739713 
L 915.3 189.739713 
z
" style="fill:#1f77b4;"/>
   </g>
   <g id="patch_180">
    <path clip-path="url(#pc73015cb14)" d="M 919.574043 768.96 
L 921.711064 768.96 
L 921.711064 188.520842 
L 919.574043 188.520842 
z
" style="fill:#1f77b4;"/>
   </g>
   <g id="patch_181">
    <path clip-path="url(#pc73015cb14)" d="M 923.848085 768.96 
L 925.985106 768.96 
L 925.985106 187.415833 
L 923.848085 187.415833 
z
" style="fill:#1f77b4;"/>
   </g>
   <g id="patch_182">
    <path clip-path="url(#pc73015cb14)" d="M 928.122128 768.96 
L 930.259149 768.96 
L 930.259149 186.310737 
L 928.122128 186.310737 
z
" style="fill:#1f77b4;"/>
   </g>
   <g id="patch_183">
    <path clip-path="url(#pc73015cb14)" d="M 932.39617 768.96 
L 934.533191 768.96 
L 934.533191 185.499927 
L 932.39617 185.499927 
z
" style="fill:#1f77b4;"/>
   </g>
   <g id="patch_184">
    <path clip-path="url(#pc73015cb14)" d="M 936.670213 768.96 
L 938.807234 768.96 
L 938.807234 185.101541 
L 936.670213 185.101541 
z
" style="fill:#1f77b4;"/>
   </g>
   <g id="patch_185">
    <path clip-path="url(#pc73015cb14)" d="M 940.944255 768.96 
L 943.081277 768.96 
L 943.081277 185.029968 
L 940.944255 185.029968 
z
" style="fill:#1f77b4;"/>
   </g>
   <g id="patch_186">
    <path clip-path="url(#pc73015cb14)" d="M 945.218298 768.96 
L 947.355319 768.96 
L 947.355319 184.394874 
L 945.218298 184.394874 
z
" style="fill:#1f77b4;"/>
   </g>
   <g id="patch_187">
    <path clip-path="url(#pc73015cb14)" d="M 949.49234 768.96 
L 951.629362 768.96 
L 951.629362 183.253452 
L 949.49234 183.253452 
z
" style="fill:#1f77b4;"/>
   </g>
   <g id="patch_188">
    <path clip-path="url(#pc73015cb14)" d="M 953.766383 768.96 
L 955.903404 768.96 
L 955.903404 182.104642 
L 953.766383 182.104642 
z
" style="fill:#1f77b4;"/>
   </g>
   <g id="patch_189">
    <path clip-path="url(#pc73015cb14)" d="M 958.040426 768.96 
L 960.177447 768.96 
L 960.177447 181.085288 
L 958.040426 181.085288 
z
" style="fill:#1f77b4;"/>
   </g>
   <g id="patch_190">
    <path clip-path="url(#pc73015cb14)" d="M 962.314468 768.96 
L 964.451489 768.96 
L 964.451489 180.244847 
L 962.314468 180.244847 
z
" style="fill:#1f77b4;"/>
   </g>
   <g id="patch_191">
    <path clip-path="url(#pc73015cb14)" d="M 966.588511 768.96 
L 968.725532 768.96 
L 968.725532 179.674459 
L 966.588511 179.674459 
z
" style="fill:#1f77b4;"/>
   </g>
   <g id="patch_192">
    <path clip-path="url(#pc73015cb14)" d="M 970.862553 768.96 
L 972.999574 768.96 
L 972.999574 178.600161 
L 970.862553 178.600161 
z
" style="fill:#1f77b4;"/>
   </g>
   <g id="patch_193">
    <path clip-path="url(#pc73015cb14)" d="M 975.136596 768.96 
L 977.273617 768.96 
L 977.273617 177.697606 
L 975.136596 177.697606 
z
" style="fill:#1f77b4;"/>
   </g>
   <g id="patch_194">
    <path clip-path="url(#pc73015cb14)" d="M 979.410638 768.96 
L 981.54766 768.96 
L 981.54766 176.839887 
L 979.410638 176.839887 
z
" style="fill:#1f77b4;"/>
   </g>
   <g id="patch_195">
    <path clip-path="url(#pc73015cb14)" d="M 983.684681 768.96 
L 985.821702 768.96 
L 985.821702 175.992836 
L 983.684681 175.992836 
z
" style="fill:#1f77b4;"/>
   </g>
   <g id="patch_196">
    <path clip-path="url(#pc73015cb14)" d="M 987.958723 768.96 
L 990.095745 768.96 
L 990.095745 175.135463 
L 987.958723 175.135463 
z
" style="fill:#1f77b4;"/>
   </g>
   <g id="patch_197">
    <path clip-path="url(#pc73015cb14)" d="M 992.232766 768.96 
L 994.369787 768.96 
L 994.369787 174.429184 
L 992.232766 174.429184 
z
" style="fill:#1f77b4;"/>
   </g>
   <g id="patch_198">
    <path clip-path="url(#pc73015cb14)" d="M 996.506809 768.96 
L 998.64383 768.96 
L 998.64383 173.947217 
L 996.506809 173.947217 
z
" style="fill:#1f77b4;"/>
   </g>
   <g id="patch_199">
    <path clip-path="url(#pc73015cb14)" d="M 1000.780851 768.96 
L 1002.917872 768.96 
L 1002.917872 173.223099 
L 1000.780851 173.223099 
z
" style="fill:#1f77b4;"/>
   </g>
   <g id="patch_200">
    <path clip-path="url(#pc73015cb14)" d="M 1005.054894 768.96 
L 1007.191915 768.96 
L 1007.191915 172.251345 
L 1005.054894 172.251345 
z
" style="fill:#1f77b4;"/>
   </g>
   <g id="patch_201">
    <path clip-path="url(#pc73015cb14)" d="M 1009.328936 768.96 
L 1011.465957 768.96 
L 1011.465957 171.3446 
L 1009.328936 171.3446 
z
" style="fill:#1f77b4;"/>
   </g>
   <g id="patch_202">
    <path clip-path="url(#pc73015cb14)" d="M 1013.602979 768.96 
L 1015.74 768.96 
L 1015.74 170.682251 
L 1013.602979 170.682251 
z
" style="fill:#1f77b4;"/>
   </g>
   <g id="patch_203">
    <path clip-path="url(#pc73015cb14)" d="M 1017.877021 768.96 
L 1020.014043 768.96 
L 1020.014043 169.996101 
L 1017.877021 169.996101 
z
" style="fill:#1f77b4;"/>
   </g>
   <g id="patch_204">
    <path clip-path="url(#pc73015cb14)" d="M 1022.151064 768.96 
L 1024.288085 768.96 
L 1024.288085 169.576809 
L 1022.151064 169.576809 
z
" style="fill:#1f77b4;"/>
   </g>
   <g id="patch_205">
    <path clip-path="url(#pc73015cb14)" d="M 1026.425106 768.96 
L 1028.562128 768.96 
L 1028.562128 169.334918 
L 1026.425106 169.334918 
z
" style="fill:#1f77b4;"/>
   </g>
   <g id="patch_206">
    <path clip-path="url(#pc73015cb14)" d="M 1030.699149 768.96 
L 1032.83617 768.96 
L 1032.83617 168.924654 
L 1030.699149 168.924654 
z
" style="fill:#1f77b4;"/>
   </g>
   <g id="patch_207">
    <path clip-path="url(#pc73015cb14)" d="M 1034.973191 768.96 
L 1037.110213 768.96 
L 1037.110213 168.008104 
L 1034.973191 168.008104 
z
" style="fill:#1f77b4;"/>
   </g>
   <g id="patch_208">
    <path clip-path="url(#pc73015cb14)" d="M 1039.247234 768.96 
L 1041.384255 768.96 
L 1041.384255 166.4781 
L 1039.247234 166.4781 
z
" style="fill:#1f77b4;"/>
   </g>
   <g id="patch_209">
    <path clip-path="url(#pc73015cb14)" d="M 1043.521277 768.96 
L 1045.658298 768.96 
L 1045.658298 165.664224 
L 1043.521277 165.664224 
z
" style="fill:#1f77b4;"/>
   </g>
   <g id="patch_210">
    <path clip-path="url(#pc73015cb14)" d="M 1047.795319 768.96 
L 1049.93234 768.96 
L 1049.93234 163.64288 
L 1047.795319 163.64288 
z
" style="fill:#1f77b4;"/>
   </g>
   <g id="patch_211">
    <path clip-path="url(#pc73015cb14)" d="M 1052.069362 768.96 
L 1054.206383 768.96 
L 1054.206383 163.014309 
L 1052.069362 163.014309 
z
" style="fill:#1f77b4;"/>
   </g>
   <g id="patch_212">
    <path clip-path="url(#pc73015cb14)" d="M 1056.343404 768.96 
L 1058.480426 768.96 
L 1058.480426 162.555278 
L 1056.343404 162.555278 
z
" style="fill:#1f77b4;"/>
   </g>
   <g id="patch_213">
    <path clip-path="url(#pc73015cb14)" d="M 1060.617447 768.96 
L 1062.754468 768.96 
L 1062.754468 161.92999 
L 1060.617447 161.92999 
z
" style="fill:#1f77b4;"/>
   </g>
   <g id="patch_214">
    <path clip-path="url(#pc73015cb14)" d="M 1064.891489 768.96 
L 1067.028511 768.96 
L 1067.028511 161.082637 
L 1064.891489 161.082637 
z
" style="fill:#1f77b4;"/>
   </g>
   <g id="patch_215">
    <path clip-path="url(#pc73015cb14)" d="M 1069.165532 768.96 
L 1071.302553 768.96 
L 1071.302553 160.305735 
L 1069.165532 160.305735 
z
" style="fill:#1f77b4;"/>
   </g>
   <g id="patch_216">
    <path clip-path="url(#pc73015cb14)" d="M 1073.439574 768.96 
L 1075.576596 768.96 
L 1075.576596 159.486373 
L 1073.439574 159.486373 
z
" style="fill:#1f77b4;"/>
   </g>
   <g id="patch_217">
    <path clip-path="url(#pc73015cb14)" d="M 1077.713617 768.96 
L 1079.850638 768.96 
L 1079.850638 158.592024 
L 1077.713617 158.592024 
z
" style="fill:#1f77b4;"/>
   </g>
   <g id="patch_218">
    <path clip-path="url(#pc73015cb14)" d="M 1081.98766 768.96 
L 1084.124681 768.96 
L 1084.124681 156.9825 
L 1081.98766 156.9825 
z
" style="fill:#1f77b4;"/>
   </g>
   <g id="patch_219">
    <path clip-path="url(#pc73015cb14)" d="M 1086.261702 768.96 
L 1088.398723 768.96 
L 1088.398723 156.464507 
L 1086.261702 156.464507 
z
" style="fill:#1f77b4;"/>
   </g>
   <g id="patch_220">
    <path clip-path="url(#pc73015cb14)" d="M 1090.535745 768.96 
L 1092.672766 768.96 
L 1092.672766 155.862242 
L 1090.535745 155.862242 
z
" style="fill:#1f77b4;"/>
   </g>
   <g id="patch_221">
    <path clip-path="url(#pc73015cb14)" d="M 1094.809787 768.96 
L 1096.946809 768.96 
L 1096.946809 155.275268 
L 1094.809787 155.275268 
z
" style="fill:#1f77b4;"/>
   </g>
   <g id="patch_222">
    <path clip-path="url(#pc73015cb14)" d="M 1099.08383 768.96 
L 1101.220851 768.96 
L 1101.220851 152.881282 
L 1099.08383 152.881282 
z
" style="fill:#1f77b4;"/>
   </g>
   <g id="patch_223">
    <path clip-path="url(#pc73015cb14)" d="M 1103.357872 768.96 
L 1105.494894 768.96 
L 1105.494894 150.802489 
L 1103.357872 150.802489 
z
" style="fill:#1f77b4;"/>
   </g>
   <g id="patch_224">
    <path clip-path="url(#pc73015cb14)" d="M 1107.631915 768.96 
L 1109.768936 768.96 
L 1109.768936 149.189724 
L 1107.631915 149.189724 
z
" style="fill:#1f77b4;"/>
   </g>
   <g id="patch_225">
    <path clip-path="url(#pc73015cb14)" d="M 1111.905957 768.96 
L 1114.042979 768.96 
L 1114.042979 146.784422 
L 1111.905957 146.784422 
z
" style="fill:#1f77b4;"/>
   </g>
   <g id="patch_226">
    <path clip-path="url(#pc73015cb14)" d="M 1116.18 768.96 
L 1118.317021 768.96 
L 1118.317021 145.148764 
L 1116.18 145.148764 
z
" style="fill:#1f77b4;"/>
   </g>
   <g id="patch_227">
    <path clip-path="url(#pc73015cb14)" d="M 1120.454043 768.96 
L 1122.591064 768.96 
L 1122.591064 144.434192 
L 1120.454043 144.434192 
z
" style="fill:#1f77b4;"/>
   </g>
   <g id="patch_228">
    <path clip-path="url(#pc73015cb14)" d="M 1124.728085 768.96 
L 1126.865106 768.96 
L 1126.865106 143.40702 
L 1124.728085 143.40702 
z
" style="fill:#1f77b4;"/>
   </g>
   <g id="patch_229">
    <path clip-path="url(#pc73015cb14)" d="M 1129.002128 768.96 
L 1131.139149 768.96 
L 1131.139149 142.437642 
L 1129.002128 142.437642 
z
" style="fill:#1f77b4;"/>
   </g>
   <g id="patch_230">
    <path clip-path="url(#pc73015cb14)" d="M 1133.27617 768.96 
L 1135.413191 768.96 
L 1135.413191 141.492842 
L 1133.27617 141.492842 
z
" style="fill:#1f77b4;"/>
   </g>
   <g id="patch_231">
    <path clip-path="url(#pc73015cb14)" d="M 1137.550213 768.96 
L 1139.687234 768.96 
L 1139.687234 140.58195 
L 1137.550213 140.58195 
z
" style="fill:#1f77b4;"/>
   </g>
   <g id="patch_232">
    <path clip-path="url(#pc73015cb14)" d="M 1141.824255 768.96 
L 1143.961277 768.96 
L 1143.961277 139.690495 
L 1141.824255 139.690495 
z
" style="fill:#1f77b4;"/>
   </g>
   <g id="patch_233">
    <path clip-path="url(#pc73015cb14)" d="M 1146.098298 768.96 
L 1148.235319 768.96 
L 1148.235319 139.102139 
L 1146.098298 139.102139 
z
" style="fill:#1f77b4;"/>
   </g>
   <g id="patch_234">
    <path clip-path="url(#pc73015cb14)" d="M 1150.37234 768.96 
L 1152.509362 768.96 
L 1152.509362 138.345107 
L 1150.37234 138.345107 
z
" style="fill:#1f77b4;"/>
   </g>
   <g id="patch_235">
    <path clip-path="url(#pc73015cb14)" d="M 1154.646383 768.96 
L 1156.783404 768.96 
L 1156.783404 137.298281 
L 1154.646383 137.298281 
z
" style="fill:#1f77b4;"/>
   </g>
   <g id="patch_236">
    <path clip-path="url(#pc73015cb14)" d="M 1158.920426 768.96 
L 1161.057447 768.96 
L 1161.057447 136.29452 
L 1158.920426 136.29452 
z
" style="fill:#1f77b4;"/>
   </g>
   <g id="patch_237">
    <path clip-path="url(#pc73015cb14)" d="M 1163.194468 768.96 
L 1165.331489 768.96 
L 1165.331489 135.36 
L 1163.194468 135.36 
z
" style="fill:#1f77b4;"/>
   </g>
   <g id="matplotlib.axis_1">
    <g id="xtick_1">
     <g id="line2d_1">
      <defs>
       <path d="M 0 0 
L 0 3.5 
" id="m29d7cf2110" style="stroke:#000000;stroke-width:0.8;"/>
      </defs>
      <g>
       <use style="stroke:#000000;stroke-width:0.8;" x="164.137021" xlink:href="#m29d7cf2110" y="768.96"/>
      </g>
     </g>
     <g id="text_1">
      <!-- January -->
      <g transform="translate(145.181553 783.558437)scale(0.1 -0.1)">
       <defs>
        <path d="M 628 4666 
L 1259 4666 
L 1259 325 
Q 1259 -519 939 -900 
Q 619 -1281 -91 -1281 
L -331 -1281 
L -331 -750 
L -134 -750 
Q 284 -750 456 -515 
Q 628 -281 628 325 
L 628 4666 
z
" id="DejaVuSans-4a" transform="scale(0.015625)"/>
        <path d="M 2194 1759 
Q 1497 1759 1228 1600 
Q 959 1441 959 1056 
Q 959 750 1161 570 
Q 1363 391 1709 391 
Q 2188 391 2477 730 
Q 2766 1069 2766 1631 
L 2766 1759 
L 2194 1759 
z
M 3341 1997 
L 3341 0 
L 2766 0 
L 2766 531 
Q 2569 213 2275 61 
Q 1981 -91 1556 -91 
Q 1019 -91 701 211 
Q 384 513 384 1019 
Q 384 1609 779 1909 
Q 1175 2209 1959 2209 
L 2766 2209 
L 2766 2266 
Q 2766 2663 2505 2880 
Q 2244 3097 1772 3097 
Q 1472 3097 1187 3025 
Q 903 2953 641 2809 
L 641 3341 
Q 956 3463 1253 3523 
Q 1550 3584 1831 3584 
Q 2591 3584 2966 3190 
Q 3341 2797 3341 1997 
z
" id="DejaVuSans-61" transform="scale(0.015625)"/>
        <path d="M 3513 2113 
L 3513 0 
L 2938 0 
L 2938 2094 
Q 2938 2591 2744 2837 
Q 2550 3084 2163 3084 
Q 1697 3084 1428 2787 
Q 1159 2491 1159 1978 
L 1159 0 
L 581 0 
L 581 3500 
L 1159 3500 
L 1159 2956 
Q 1366 3272 1645 3428 
Q 1925 3584 2291 3584 
Q 2894 3584 3203 3211 
Q 3513 2838 3513 2113 
z
" id="DejaVuSans-6e" transform="scale(0.015625)"/>
        <path d="M 544 1381 
L 544 3500 
L 1119 3500 
L 1119 1403 
Q 1119 906 1312 657 
Q 1506 409 1894 409 
Q 2359 409 2629 706 
Q 2900 1003 2900 1516 
L 2900 3500 
L 3475 3500 
L 3475 0 
L 2900 0 
L 2900 538 
Q 2691 219 2414 64 
Q 2138 -91 1772 -91 
Q 1169 -91 856 284 
Q 544 659 544 1381 
z
M 1991 3584 
L 1991 3584 
z
" id="DejaVuSans-75" transform="scale(0.015625)"/>
        <path d="M 2631 2963 
Q 2534 3019 2420 3045 
Q 2306 3072 2169 3072 
Q 1681 3072 1420 2755 
Q 1159 2438 1159 1844 
L 1159 0 
L 581 0 
L 581 3500 
L 1159 3500 
L 1159 2956 
Q 1341 3275 1631 3429 
Q 1922 3584 2338 3584 
Q 2397 3584 2469 3576 
Q 2541 3569 2628 3553 
L 2631 2963 
z
" id="DejaVuSans-72" transform="scale(0.015625)"/>
        <path d="M 2059 -325 
Q 1816 -950 1584 -1140 
Q 1353 -1331 966 -1331 
L 506 -1331 
L 506 -850 
L 844 -850 
Q 1081 -850 1212 -737 
Q 1344 -625 1503 -206 
L 1606 56 
L 191 3500 
L 800 3500 
L 1894 763 
L 2988 3500 
L 3597 3500 
L 2059 -325 
z
" id="DejaVuSans-79" transform="scale(0.015625)"/>
       </defs>
       <use xlink:href="#DejaVuSans-4a"/>
       <use x="29.492188" xlink:href="#DejaVuSans-61"/>
       <use x="90.771484" xlink:href="#DejaVuSans-6e"/>
       <use x="154.150391" xlink:href="#DejaVuSans-75"/>
       <use x="217.529297" xlink:href="#DejaVuSans-61"/>
       <use x="278.808594" xlink:href="#DejaVuSans-72"/>
       <use x="319.921875" xlink:href="#DejaVuSans-79"/>
      </g>
     </g>
    </g>
    <g id="xtick_2">
     <g id="line2d_2">
      <g>
       <use style="stroke:#000000;stroke-width:0.8;" x="296.63234" xlink:href="#m29d7cf2110" y="768.96"/>
      </g>
     </g>
     <g id="text_2">
      <!-- February -->
      <g transform="translate(274.477653 783.558437)scale(0.1 -0.1)">
       <defs>
        <path d="M 628 4666 
L 3309 4666 
L 3309 4134 
L 1259 4134 
L 1259 2759 
L 3109 2759 
L 3109 2228 
L 1259 2228 
L 1259 0 
L 628 0 
L 628 4666 
z
" id="DejaVuSans-46" transform="scale(0.015625)"/>
        <path d="M 3597 1894 
L 3597 1613 
L 953 1613 
Q 991 1019 1311 708 
Q 1631 397 2203 397 
Q 2534 397 2845 478 
Q 3156 559 3463 722 
L 3463 178 
Q 3153 47 2828 -22 
Q 2503 -91 2169 -91 
Q 1331 -91 842 396 
Q 353 884 353 1716 
Q 353 2575 817 3079 
Q 1281 3584 2069 3584 
Q 2775 3584 3186 3129 
Q 3597 2675 3597 1894 
z
M 3022 2063 
Q 3016 2534 2758 2815 
Q 2500 3097 2075 3097 
Q 1594 3097 1305 2825 
Q 1016 2553 972 2059 
L 3022 2063 
z
" id="DejaVuSans-65" transform="scale(0.015625)"/>
        <path d="M 3116 1747 
Q 3116 2381 2855 2742 
Q 2594 3103 2138 3103 
Q 1681 3103 1420 2742 
Q 1159 2381 1159 1747 
Q 1159 1113 1420 752 
Q 1681 391 2138 391 
Q 2594 391 2855 752 
Q 3116 1113 3116 1747 
z
M 1159 2969 
Q 1341 3281 1617 3432 
Q 1894 3584 2278 3584 
Q 2916 3584 3314 3078 
Q 3713 2572 3713 1747 
Q 3713 922 3314 415 
Q 2916 -91 2278 -91 
Q 1894 -91 1617 61 
Q 1341 213 1159 525 
L 1159 0 
L 581 0 
L 581 4863 
L 1159 4863 
L 1159 2969 
z
" id="DejaVuSans-62" transform="scale(0.015625)"/>
       </defs>
       <use xlink:href="#DejaVuSans-46"/>
       <use x="52.019531" xlink:href="#DejaVuSans-65"/>
       <use x="113.542969" xlink:href="#DejaVuSans-62"/>
       <use x="177.019531" xlink:href="#DejaVuSans-72"/>
       <use x="218.132812" xlink:href="#DejaVuSans-75"/>
       <use x="281.511719" xlink:href="#DejaVuSans-61"/>
       <use x="342.791016" xlink:href="#DejaVuSans-72"/>
       <use x="383.904297" xlink:href="#DejaVuSans-79"/>
      </g>
     </g>
    </g>
    <g id="xtick_3">
     <g id="line2d_3">
      <g>
       <use style="stroke:#000000;stroke-width:0.8;" x="416.305532" xlink:href="#m29d7cf2110" y="768.96"/>
      </g>
     </g>
     <g id="text_3">
      <!-- March -->
      <g transform="translate(401.066469 783.558437)scale(0.1 -0.1)">
       <defs>
        <path d="M 628 4666 
L 1569 4666 
L 2759 1491 
L 3956 4666 
L 4897 4666 
L 4897 0 
L 4281 0 
L 4281 4097 
L 3078 897 
L 2444 897 
L 1241 4097 
L 1241 0 
L 628 0 
L 628 4666 
z
" id="DejaVuSans-4d" transform="scale(0.015625)"/>
        <path d="M 3122 3366 
L 3122 2828 
Q 2878 2963 2633 3030 
Q 2388 3097 2138 3097 
Q 1578 3097 1268 2742 
Q 959 2388 959 1747 
Q 959 1106 1268 751 
Q 1578 397 2138 397 
Q 2388 397 2633 464 
Q 2878 531 3122 666 
L 3122 134 
Q 2881 22 2623 -34 
Q 2366 -91 2075 -91 
Q 1284 -91 818 406 
Q 353 903 353 1747 
Q 353 2603 823 3093 
Q 1294 3584 2113 3584 
Q 2378 3584 2631 3529 
Q 2884 3475 3122 3366 
z
" id="DejaVuSans-63" transform="scale(0.015625)"/>
        <path d="M 3513 2113 
L 3513 0 
L 2938 0 
L 2938 2094 
Q 2938 2591 2744 2837 
Q 2550 3084 2163 3084 
Q 1697 3084 1428 2787 
Q 1159 2491 1159 1978 
L 1159 0 
L 581 0 
L 581 4863 
L 1159 4863 
L 1159 2956 
Q 1366 3272 1645 3428 
Q 1925 3584 2291 3584 
Q 2894 3584 3203 3211 
Q 3513 2838 3513 2113 
z
" id="DejaVuSans-68" transform="scale(0.015625)"/>
       </defs>
       <use xlink:href="#DejaVuSans-4d"/>
       <use x="86.279297" xlink:href="#DejaVuSans-61"/>
       <use x="147.558594" xlink:href="#DejaVuSans-72"/>
       <use x="186.421875" xlink:href="#DejaVuSans-63"/>
       <use x="241.402344" xlink:href="#DejaVuSans-68"/>
      </g>
     </g>
    </g>
    <g id="xtick_4">
     <g id="line2d_4">
      <g>
       <use style="stroke:#000000;stroke-width:0.8;" x="548.800851" xlink:href="#m29d7cf2110" y="768.96"/>
      </g>
     </g>
     <g id="text_4">
      <!-- April -->
      <g transform="translate(537.372726 783.558437)scale(0.1 -0.1)">
       <defs>
        <path d="M 2188 4044 
L 1331 1722 
L 3047 1722 
L 2188 4044 
z
M 1831 4666 
L 2547 4666 
L 4325 0 
L 3669 0 
L 3244 1197 
L 1141 1197 
L 716 0 
L 50 0 
L 1831 4666 
z
" id="DejaVuSans-41" transform="scale(0.015625)"/>
        <path d="M 1159 525 
L 1159 -1331 
L 581 -1331 
L 581 3500 
L 1159 3500 
L 1159 2969 
Q 1341 3281 1617 3432 
Q 1894 3584 2278 3584 
Q 2916 3584 3314 3078 
Q 3713 2572 3713 1747 
Q 3713 922 3314 415 
Q 2916 -91 2278 -91 
Q 1894 -91 1617 61 
Q 1341 213 1159 525 
z
M 3116 1747 
Q 3116 2381 2855 2742 
Q 2594 3103 2138 3103 
Q 1681 3103 1420 2742 
Q 1159 2381 1159 1747 
Q 1159 1113 1420 752 
Q 1681 391 2138 391 
Q 2594 391 2855 752 
Q 3116 1113 3116 1747 
z
" id="DejaVuSans-70" transform="scale(0.015625)"/>
        <path d="M 603 3500 
L 1178 3500 
L 1178 0 
L 603 0 
L 603 3500 
z
M 603 4863 
L 1178 4863 
L 1178 4134 
L 603 4134 
L 603 4863 
z
" id="DejaVuSans-69" transform="scale(0.015625)"/>
        <path d="M 603 4863 
L 1178 4863 
L 1178 0 
L 603 0 
L 603 4863 
z
" id="DejaVuSans-6c" transform="scale(0.015625)"/>
       </defs>
       <use xlink:href="#DejaVuSans-41"/>
       <use x="68.408203" xlink:href="#DejaVuSans-70"/>
       <use x="131.884766" xlink:href="#DejaVuSans-72"/>
       <use x="172.998047" xlink:href="#DejaVuSans-69"/>
       <use x="200.78125" xlink:href="#DejaVuSans-6c"/>
      </g>
     </g>
    </g>
    <g id="xtick_5">
     <g id="line2d_5">
      <g>
       <use style="stroke:#000000;stroke-width:0.8;" x="677.022128" xlink:href="#m29d7cf2110" y="768.96"/>
      </g>
     </g>
     <g id="text_5">
      <!-- May -->
      <g transform="translate(666.684628 783.558437)scale(0.1 -0.1)">
       <use xlink:href="#DejaVuSans-4d"/>
       <use x="86.279297" xlink:href="#DejaVuSans-61"/>
       <use x="147.558594" xlink:href="#DejaVuSans-79"/>
      </g>
     </g>
    </g>
    <g id="xtick_6">
     <g id="line2d_6">
      <g>
       <use style="stroke:#000000;stroke-width:0.8;" x="809.517447" xlink:href="#m29d7cf2110" y="768.96"/>
      </g>
     </g>
     <g id="text_6">
      <!-- June -->
      <g transform="translate(798.628384 783.558437)scale(0.1 -0.1)">
       <use xlink:href="#DejaVuSans-4a"/>
       <use x="29.492188" xlink:href="#DejaVuSans-75"/>
       <use x="92.871094" xlink:href="#DejaVuSans-6e"/>
       <use x="156.25" xlink:href="#DejaVuSans-65"/>
      </g>
     </g>
    </g>
    <g id="xtick_7">
     <g id="line2d_7">
      <g>
       <use style="stroke:#000000;stroke-width:0.8;" x="937.738723" xlink:href="#m29d7cf2110" y="768.96"/>
      </g>
     </g>
     <g id="text_7">
      <!-- July -->
      <g transform="translate(928.746536 783.558437)scale(0.1 -0.1)">
       <use xlink:href="#DejaVuSans-4a"/>
       <use x="29.492188" xlink:href="#DejaVuSans-75"/>
       <use x="92.871094" xlink:href="#DejaVuSans-6c"/>
       <use x="120.654297" xlink:href="#DejaVuSans-79"/>
      </g>
     </g>
    </g>
    <g id="xtick_8">
     <g id="line2d_8">
      <g>
       <use style="stroke:#000000;stroke-width:0.8;" x="1070.234043" xlink:href="#m29d7cf2110" y="768.96"/>
      </g>
     </g>
     <g id="text_8">
      <!-- August -->
      <g transform="translate(1052.737168 783.558437)scale(0.1 -0.1)">
       <defs>
        <path d="M 2906 1791 
Q 2906 2416 2648 2759 
Q 2391 3103 1925 3103 
Q 1463 3103 1205 2759 
Q 947 2416 947 1791 
Q 947 1169 1205 825 
Q 1463 481 1925 481 
Q 2391 481 2648 825 
Q 2906 1169 2906 1791 
z
M 3481 434 
Q 3481 -459 3084 -895 
Q 2688 -1331 1869 -1331 
Q 1566 -1331 1297 -1286 
Q 1028 -1241 775 -1147 
L 775 -588 
Q 1028 -725 1275 -790 
Q 1522 -856 1778 -856 
Q 2344 -856 2625 -561 
Q 2906 -266 2906 331 
L 2906 616 
Q 2728 306 2450 153 
Q 2172 0 1784 0 
Q 1141 0 747 490 
Q 353 981 353 1791 
Q 353 2603 747 3093 
Q 1141 3584 1784 3584 
Q 2172 3584 2450 3431 
Q 2728 3278 2906 2969 
L 2906 3500 
L 3481 3500 
L 3481 434 
z
" id="DejaVuSans-67" transform="scale(0.015625)"/>
        <path d="M 2834 3397 
L 2834 2853 
Q 2591 2978 2328 3040 
Q 2066 3103 1784 3103 
Q 1356 3103 1142 2972 
Q 928 2841 928 2578 
Q 928 2378 1081 2264 
Q 1234 2150 1697 2047 
L 1894 2003 
Q 2506 1872 2764 1633 
Q 3022 1394 3022 966 
Q 3022 478 2636 193 
Q 2250 -91 1575 -91 
Q 1294 -91 989 -36 
Q 684 19 347 128 
L 347 722 
Q 666 556 975 473 
Q 1284 391 1588 391 
Q 1994 391 2212 530 
Q 2431 669 2431 922 
Q 2431 1156 2273 1281 
Q 2116 1406 1581 1522 
L 1381 1569 
Q 847 1681 609 1914 
Q 372 2147 372 2553 
Q 372 3047 722 3315 
Q 1072 3584 1716 3584 
Q 2034 3584 2315 3537 
Q 2597 3491 2834 3397 
z
" id="DejaVuSans-73" transform="scale(0.015625)"/>
        <path d="M 1172 4494 
L 1172 3500 
L 2356 3500 
L 2356 3053 
L 1172 3053 
L 1172 1153 
Q 1172 725 1289 603 
Q 1406 481 1766 481 
L 2356 481 
L 2356 0 
L 1766 0 
Q 1100 0 847 248 
Q 594 497 594 1153 
L 594 3053 
L 172 3053 
L 172 3500 
L 594 3500 
L 594 4494 
L 1172 4494 
z
" id="DejaVuSans-74" transform="scale(0.015625)"/>
       </defs>
       <use xlink:href="#DejaVuSans-41"/>
       <use x="68.408203" xlink:href="#DejaVuSans-75"/>
       <use x="131.787109" xlink:href="#DejaVuSans-67"/>
       <use x="195.263672" xlink:href="#DejaVuSans-75"/>
       <use x="258.642578" xlink:href="#DejaVuSans-73"/>
       <use x="310.742188" xlink:href="#DejaVuSans-74"/>
      </g>
     </g>
    </g>
   </g>
   <g id="matplotlib.axis_2">
    <g id="ytick_1">
     <g id="line2d_9">
      <defs>
       <path d="M 0 0 
L -3.5 0 
" id="m2d170f8c32" style="stroke:#000000;stroke-width:0.8;"/>
      </defs>
      <g>
       <use style="stroke:#000000;stroke-width:0.8;" x="162" xlink:href="#m2d170f8c32" y="768.96"/>
      </g>
     </g>
     <g id="text_9">
      <!-- 0.0 -->
      <g transform="translate(139.096875 772.759219)scale(0.1 -0.1)">
       <defs>
        <path d="M 2034 4250 
Q 1547 4250 1301 3770 
Q 1056 3291 1056 2328 
Q 1056 1369 1301 889 
Q 1547 409 2034 409 
Q 2525 409 2770 889 
Q 3016 1369 3016 2328 
Q 3016 3291 2770 3770 
Q 2525 4250 2034 4250 
z
M 2034 4750 
Q 2819 4750 3233 4129 
Q 3647 3509 3647 2328 
Q 3647 1150 3233 529 
Q 2819 -91 2034 -91 
Q 1250 -91 836 529 
Q 422 1150 422 2328 
Q 422 3509 836 4129 
Q 1250 4750 2034 4750 
z
" id="DejaVuSans-30" transform="scale(0.015625)"/>
        <path d="M 684 794 
L 1344 794 
L 1344 0 
L 684 0 
L 684 794 
z
" id="DejaVuSans-2e" transform="scale(0.015625)"/>
       </defs>
       <use xlink:href="#DejaVuSans-30"/>
       <use x="63.623047" xlink:href="#DejaVuSans-2e"/>
       <use x="95.410156" xlink:href="#DejaVuSans-30"/>
      </g>
     </g>
    </g>
    <g id="ytick_2">
     <g id="line2d_10">
      <g>
       <use style="stroke:#000000;stroke-width:0.8;" x="162" xlink:href="#m2d170f8c32" y="682.570386"/>
      </g>
     </g>
     <g id="text_10">
      <!-- 0.2 -->
      <g transform="translate(139.096875 686.369605)scale(0.1 -0.1)">
       <defs>
        <path d="M 1228 531 
L 3431 531 
L 3431 0 
L 469 0 
L 469 531 
Q 828 903 1448 1529 
Q 2069 2156 2228 2338 
Q 2531 2678 2651 2914 
Q 2772 3150 2772 3378 
Q 2772 3750 2511 3984 
Q 2250 4219 1831 4219 
Q 1534 4219 1204 4116 
Q 875 4013 500 3803 
L 500 4441 
Q 881 4594 1212 4672 
Q 1544 4750 1819 4750 
Q 2544 4750 2975 4387 
Q 3406 4025 3406 3419 
Q 3406 3131 3298 2873 
Q 3191 2616 2906 2266 
Q 2828 2175 2409 1742 
Q 1991 1309 1228 531 
z
" id="DejaVuSans-32" transform="scale(0.015625)"/>
       </defs>
       <use xlink:href="#DejaVuSans-30"/>
       <use x="63.623047" xlink:href="#DejaVuSans-2e"/>
       <use x="95.410156" xlink:href="#DejaVuSans-32"/>
      </g>
     </g>
    </g>
    <g id="ytick_3">
     <g id="line2d_11">
      <g>
       <use style="stroke:#000000;stroke-width:0.8;" x="162" xlink:href="#m2d170f8c32" y="596.180773"/>
      </g>
     </g>
     <g id="text_11">
      <!-- 0.4 -->
      <g transform="translate(139.096875 599.979992)scale(0.1 -0.1)">
       <defs>
        <path d="M 2419 4116 
L 825 1625 
L 2419 1625 
L 2419 4116 
z
M 2253 4666 
L 3047 4666 
L 3047 1625 
L 3713 1625 
L 3713 1100 
L 3047 1100 
L 3047 0 
L 2419 0 
L 2419 1100 
L 313 1100 
L 313 1709 
L 2253 4666 
z
" id="DejaVuSans-34" transform="scale(0.015625)"/>
       </defs>
       <use xlink:href="#DejaVuSans-30"/>
       <use x="63.623047" xlink:href="#DejaVuSans-2e"/>
       <use x="95.410156" xlink:href="#DejaVuSans-34"/>
      </g>
     </g>
    </g>
    <g id="ytick_4">
     <g id="line2d_12">
      <g>
       <use style="stroke:#000000;stroke-width:0.8;" x="162" xlink:href="#m2d170f8c32" y="509.791159"/>
      </g>
     </g>
     <g id="text_12">
      <!-- 0.6 -->
      <g transform="translate(139.096875 513.590378)scale(0.1 -0.1)">
       <defs>
        <path d="M 2113 2584 
Q 1688 2584 1439 2293 
Q 1191 2003 1191 1497 
Q 1191 994 1439 701 
Q 1688 409 2113 409 
Q 2538 409 2786 701 
Q 3034 994 3034 1497 
Q 3034 2003 2786 2293 
Q 2538 2584 2113 2584 
z
M 3366 4563 
L 3366 3988 
Q 3128 4100 2886 4159 
Q 2644 4219 2406 4219 
Q 1781 4219 1451 3797 
Q 1122 3375 1075 2522 
Q 1259 2794 1537 2939 
Q 1816 3084 2150 3084 
Q 2853 3084 3261 2657 
Q 3669 2231 3669 1497 
Q 3669 778 3244 343 
Q 2819 -91 2113 -91 
Q 1303 -91 875 529 
Q 447 1150 447 2328 
Q 447 3434 972 4092 
Q 1497 4750 2381 4750 
Q 2619 4750 2861 4703 
Q 3103 4656 3366 4563 
z
" id="DejaVuSans-36" transform="scale(0.015625)"/>
       </defs>
       <use xlink:href="#DejaVuSans-30"/>
       <use x="63.623047" xlink:href="#DejaVuSans-2e"/>
       <use x="95.410156" xlink:href="#DejaVuSans-36"/>
      </g>
     </g>
    </g>
    <g id="ytick_5">
     <g id="line2d_13">
      <g>
       <use style="stroke:#000000;stroke-width:0.8;" x="162" xlink:href="#m2d170f8c32" y="423.401546"/>
      </g>
     </g>
     <g id="text_13">
      <!-- 0.8 -->
      <g transform="translate(139.096875 427.200764)scale(0.1 -0.1)">
       <defs>
        <path d="M 2034 2216 
Q 1584 2216 1326 1975 
Q 1069 1734 1069 1313 
Q 1069 891 1326 650 
Q 1584 409 2034 409 
Q 2484 409 2743 651 
Q 3003 894 3003 1313 
Q 3003 1734 2745 1975 
Q 2488 2216 2034 2216 
z
M 1403 2484 
Q 997 2584 770 2862 
Q 544 3141 544 3541 
Q 544 4100 942 4425 
Q 1341 4750 2034 4750 
Q 2731 4750 3128 4425 
Q 3525 4100 3525 3541 
Q 3525 3141 3298 2862 
Q 3072 2584 2669 2484 
Q 3125 2378 3379 2068 
Q 3634 1759 3634 1313 
Q 3634 634 3220 271 
Q 2806 -91 2034 -91 
Q 1263 -91 848 271 
Q 434 634 434 1313 
Q 434 1759 690 2068 
Q 947 2378 1403 2484 
z
M 1172 3481 
Q 1172 3119 1398 2916 
Q 1625 2713 2034 2713 
Q 2441 2713 2670 2916 
Q 2900 3119 2900 3481 
Q 2900 3844 2670 4047 
Q 2441 4250 2034 4250 
Q 1625 4250 1398 4047 
Q 1172 3844 1172 3481 
z
" id="DejaVuSans-38" transform="scale(0.015625)"/>
       </defs>
       <use xlink:href="#DejaVuSans-30"/>
       <use x="63.623047" xlink:href="#DejaVuSans-2e"/>
       <use x="95.410156" xlink:href="#DejaVuSans-38"/>
      </g>
     </g>
    </g>
    <g id="ytick_6">
     <g id="line2d_14">
      <g>
       <use style="stroke:#000000;stroke-width:0.8;" x="162" xlink:href="#m2d170f8c32" y="337.011932"/>
      </g>
     </g>
     <g id="text_14">
      <!-- 1.0 -->
      <g transform="translate(139.096875 340.811151)scale(0.1 -0.1)">
       <defs>
        <path d="M 794 531 
L 1825 531 
L 1825 4091 
L 703 3866 
L 703 4441 
L 1819 4666 
L 2450 4666 
L 2450 531 
L 3481 531 
L 3481 0 
L 794 0 
L 794 531 
z
" id="DejaVuSans-31" transform="scale(0.015625)"/>
       </defs>
       <use xlink:href="#DejaVuSans-31"/>
       <use x="63.623047" xlink:href="#DejaVuSans-2e"/>
       <use x="95.410156" xlink:href="#DejaVuSans-30"/>
      </g>
     </g>
    </g>
    <g id="ytick_7">
     <g id="line2d_15">
      <g>
       <use style="stroke:#000000;stroke-width:0.8;" x="162" xlink:href="#m2d170f8c32" y="250.622318"/>
      </g>
     </g>
     <g id="text_15">
      <!-- 1.2 -->
      <g transform="translate(139.096875 254.421537)scale(0.1 -0.1)">
       <use xlink:href="#DejaVuSans-31"/>
       <use x="63.623047" xlink:href="#DejaVuSans-2e"/>
       <use x="95.410156" xlink:href="#DejaVuSans-32"/>
      </g>
     </g>
    </g>
    <g id="ytick_8">
     <g id="line2d_16">
      <g>
       <use style="stroke:#000000;stroke-width:0.8;" x="162" xlink:href="#m2d170f8c32" y="164.232705"/>
      </g>
     </g>
     <g id="text_16">
      <!-- 1.4 -->
      <g transform="translate(139.096875 168.031923)scale(0.1 -0.1)">
       <use xlink:href="#DejaVuSans-31"/>
       <use x="63.623047" xlink:href="#DejaVuSans-2e"/>
       <use x="95.410156" xlink:href="#DejaVuSans-34"/>
      </g>
     </g>
    </g>
    <g id="text_17">
     <!-- Persons fully vaccinated (tens of millions) -->
     <g transform="translate(133.017188 540.480156)rotate(-90)scale(0.1 -0.1)">
      <defs>
       <path d="M 1259 4147 
L 1259 2394 
L 2053 2394 
Q 2494 2394 2734 2622 
Q 2975 2850 2975 3272 
Q 2975 3691 2734 3919 
Q 2494 4147 2053 4147 
L 1259 4147 
z
M 628 4666 
L 2053 4666 
Q 2838 4666 3239 4311 
Q 3641 3956 3641 3272 
Q 3641 2581 3239 2228 
Q 2838 1875 2053 1875 
L 1259 1875 
L 1259 0 
L 628 0 
L 628 4666 
z
" id="DejaVuSans-50" transform="scale(0.015625)"/>
       <path d="M 1959 3097 
Q 1497 3097 1228 2736 
Q 959 2375 959 1747 
Q 959 1119 1226 758 
Q 1494 397 1959 397 
Q 2419 397 2687 759 
Q 2956 1122 2956 1747 
Q 2956 2369 2687 2733 
Q 2419 3097 1959 3097 
z
M 1959 3584 
Q 2709 3584 3137 3096 
Q 3566 2609 3566 1747 
Q 3566 888 3137 398 
Q 2709 -91 1959 -91 
Q 1206 -91 779 398 
Q 353 888 353 1747 
Q 353 2609 779 3096 
Q 1206 3584 1959 3584 
z
" id="DejaVuSans-6f" transform="scale(0.015625)"/>
       <path id="DejaVuSans-20" transform="scale(0.015625)"/>
       <path d="M 2375 4863 
L 2375 4384 
L 1825 4384 
Q 1516 4384 1395 4259 
Q 1275 4134 1275 3809 
L 1275 3500 
L 2222 3500 
L 2222 3053 
L 1275 3053 
L 1275 0 
L 697 0 
L 697 3053 
L 147 3053 
L 147 3500 
L 697 3500 
L 697 3744 
Q 697 4328 969 4595 
Q 1241 4863 1831 4863 
L 2375 4863 
z
" id="DejaVuSans-66" transform="scale(0.015625)"/>
       <path d="M 191 3500 
L 800 3500 
L 1894 563 
L 2988 3500 
L 3597 3500 
L 2284 0 
L 1503 0 
L 191 3500 
z
" id="DejaVuSans-76" transform="scale(0.015625)"/>
       <path d="M 2906 2969 
L 2906 4863 
L 3481 4863 
L 3481 0 
L 2906 0 
L 2906 525 
Q 2725 213 2448 61 
Q 2172 -91 1784 -91 
Q 1150 -91 751 415 
Q 353 922 353 1747 
Q 353 2572 751 3078 
Q 1150 3584 1784 3584 
Q 2172 3584 2448 3432 
Q 2725 3281 2906 2969 
z
M 947 1747 
Q 947 1113 1208 752 
Q 1469 391 1925 391 
Q 2381 391 2643 752 
Q 2906 1113 2906 1747 
Q 2906 2381 2643 2742 
Q 2381 3103 1925 3103 
Q 1469 3103 1208 2742 
Q 947 2381 947 1747 
z
" id="DejaVuSans-64" transform="scale(0.015625)"/>
       <path d="M 1984 4856 
Q 1566 4138 1362 3434 
Q 1159 2731 1159 2009 
Q 1159 1288 1364 580 
Q 1569 -128 1984 -844 
L 1484 -844 
Q 1016 -109 783 600 
Q 550 1309 550 2009 
Q 550 2706 781 3412 
Q 1013 4119 1484 4856 
L 1984 4856 
z
" id="DejaVuSans-28" transform="scale(0.015625)"/>
       <path d="M 3328 2828 
Q 3544 3216 3844 3400 
Q 4144 3584 4550 3584 
Q 5097 3584 5394 3201 
Q 5691 2819 5691 2113 
L 5691 0 
L 5113 0 
L 5113 2094 
Q 5113 2597 4934 2840 
Q 4756 3084 4391 3084 
Q 3944 3084 3684 2787 
Q 3425 2491 3425 1978 
L 3425 0 
L 2847 0 
L 2847 2094 
Q 2847 2600 2669 2842 
Q 2491 3084 2119 3084 
Q 1678 3084 1418 2786 
Q 1159 2488 1159 1978 
L 1159 0 
L 581 0 
L 581 3500 
L 1159 3500 
L 1159 2956 
Q 1356 3278 1631 3431 
Q 1906 3584 2284 3584 
Q 2666 3584 2933 3390 
Q 3200 3197 3328 2828 
z
" id="DejaVuSans-6d" transform="scale(0.015625)"/>
       <path d="M 513 4856 
L 1013 4856 
Q 1481 4119 1714 3412 
Q 1947 2706 1947 2009 
Q 1947 1309 1714 600 
Q 1481 -109 1013 -844 
L 513 -844 
Q 928 -128 1133 580 
Q 1338 1288 1338 2009 
Q 1338 2731 1133 3434 
Q 928 4138 513 4856 
z
" id="DejaVuSans-29" transform="scale(0.015625)"/>
      </defs>
      <use xlink:href="#DejaVuSans-50"/>
      <use x="56.677734" xlink:href="#DejaVuSans-65"/>
      <use x="118.201172" xlink:href="#DejaVuSans-72"/>
      <use x="159.314453" xlink:href="#DejaVuSans-73"/>
      <use x="211.414062" xlink:href="#DejaVuSans-6f"/>
      <use x="272.595703" xlink:href="#DejaVuSans-6e"/>
      <use x="335.974609" xlink:href="#DejaVuSans-73"/>
      <use x="388.074219" xlink:href="#DejaVuSans-20"/>
      <use x="419.861328" xlink:href="#DejaVuSans-66"/>
      <use x="455.066406" xlink:href="#DejaVuSans-75"/>
      <use x="518.445312" xlink:href="#DejaVuSans-6c"/>
      <use x="546.228516" xlink:href="#DejaVuSans-6c"/>
      <use x="574.011719" xlink:href="#DejaVuSans-79"/>
      <use x="633.191406" xlink:href="#DejaVuSans-20"/>
      <use x="664.978516" xlink:href="#DejaVuSans-76"/>
      <use x="724.158203" xlink:href="#DejaVuSans-61"/>
      <use x="785.4375" xlink:href="#DejaVuSans-63"/>
      <use x="840.417969" xlink:href="#DejaVuSans-63"/>
      <use x="895.398438" xlink:href="#DejaVuSans-69"/>
      <use x="923.181641" xlink:href="#DejaVuSans-6e"/>
      <use x="986.560547" xlink:href="#DejaVuSans-61"/>
      <use x="1047.839844" xlink:href="#DejaVuSans-74"/>
      <use x="1087.048828" xlink:href="#DejaVuSans-65"/>
      <use x="1148.572266" xlink:href="#DejaVuSans-64"/>
      <use x="1212.048828" xlink:href="#DejaVuSans-20"/>
      <use x="1243.835938" xlink:href="#DejaVuSans-28"/>
      <use x="1282.849609" xlink:href="#DejaVuSans-74"/>
      <use x="1322.058594" xlink:href="#DejaVuSans-65"/>
      <use x="1383.582031" xlink:href="#DejaVuSans-6e"/>
      <use x="1446.960938" xlink:href="#DejaVuSans-73"/>
      <use x="1499.060547" xlink:href="#DejaVuSans-20"/>
      <use x="1530.847656" xlink:href="#DejaVuSans-6f"/>
      <use x="1592.029297" xlink:href="#DejaVuSans-66"/>
      <use x="1627.234375" xlink:href="#DejaVuSans-20"/>
      <use x="1659.021484" xlink:href="#DejaVuSans-6d"/>
      <use x="1756.433594" xlink:href="#DejaVuSans-69"/>
      <use x="1784.216797" xlink:href="#DejaVuSans-6c"/>
      <use x="1812" xlink:href="#DejaVuSans-6c"/>
      <use x="1839.783203" xlink:href="#DejaVuSans-69"/>
      <use x="1867.566406" xlink:href="#DejaVuSans-6f"/>
      <use x="1928.748047" xlink:href="#DejaVuSans-6e"/>
      <use x="1992.126953" xlink:href="#DejaVuSans-73"/>
      <use x="2044.226562" xlink:href="#DejaVuSans-29"/>
     </g>
    </g>
    <g id="text_18">
     <!-- 1e7 -->
     <g transform="translate(162 100.68)scale(0.1 -0.1)">
      <defs>
       <path d="M 525 4666 
L 3525 4666 
L 3525 4397 
L 1831 0 
L 1172 0 
L 2766 4134 
L 525 4134 
L 525 4666 
z
" id="DejaVuSans-37" transform="scale(0.015625)"/>
      </defs>
      <use xlink:href="#DejaVuSans-31"/>
      <use x="63.623047" xlink:href="#DejaVuSans-65"/>
      <use x="125.146484" xlink:href="#DejaVuSans-37"/>
     </g>
    </g>
   </g>
   <g id="patch_238">
    <path d="M 162 768.96 
L 162 103.68 
" style="fill:none;stroke:#000000;stroke-linecap:square;stroke-linejoin:miter;stroke-width:0.8;"/>
   </g>
   <g id="patch_239">
    <path d="M 1166.4 768.96 
L 1166.4 103.68 
" style="fill:none;stroke:#000000;stroke-linecap:square;stroke-linejoin:miter;stroke-width:0.8;"/>
   </g>
   <g id="patch_240">
    <path d="M 162 768.96 
L 1166.4 768.96 
" style="fill:none;stroke:#000000;stroke-linecap:square;stroke-linejoin:miter;stroke-width:0.8;"/>
   </g>
   <g id="patch_241">
    <path d="M 162 103.68 
L 1166.4 103.68 
" style="fill:none;stroke:#000000;stroke-linecap:square;stroke-linejoin:miter;stroke-width:0.8;"/>
   </g>
   <g id="text_19">
    <!-- Persons Fully Vaccinated -->
    <g transform="translate(590.380313 97.68)scale(0.12 -0.12)">
     <defs>
      <path d="M 1831 0 
L 50 4666 
L 709 4666 
L 2188 738 
L 3669 4666 
L 4325 4666 
L 2547 0 
L 1831 0 
z
" id="DejaVuSans-56" transform="scale(0.015625)"/>
     </defs>
     <use xlink:href="#DejaVuSans-50"/>
     <use x="56.677734" xlink:href="#DejaVuSans-65"/>
     <use x="118.201172" xlink:href="#DejaVuSans-72"/>
     <use x="159.314453" xlink:href="#DejaVuSans-73"/>
     <use x="211.414062" xlink:href="#DejaVuSans-6f"/>
     <use x="272.595703" xlink:href="#DejaVuSans-6e"/>
     <use x="335.974609" xlink:href="#DejaVuSans-73"/>
     <use x="388.074219" xlink:href="#DejaVuSans-20"/>
     <use x="419.861328" xlink:href="#DejaVuSans-46"/>
     <use x="471.880859" xlink:href="#DejaVuSans-75"/>
     <use x="535.259766" xlink:href="#DejaVuSans-6c"/>
     <use x="563.042969" xlink:href="#DejaVuSans-6c"/>
     <use x="590.826172" xlink:href="#DejaVuSans-79"/>
     <use x="650.005859" xlink:href="#DejaVuSans-20"/>
     <use x="681.792969" xlink:href="#DejaVuSans-56"/>
     <use x="742.451172" xlink:href="#DejaVuSans-61"/>
     <use x="803.730469" xlink:href="#DejaVuSans-63"/>
     <use x="858.710938" xlink:href="#DejaVuSans-63"/>
     <use x="913.691406" xlink:href="#DejaVuSans-69"/>
     <use x="941.474609" xlink:href="#DejaVuSans-6e"/>
     <use x="1004.853516" xlink:href="#DejaVuSans-61"/>
     <use x="1066.132812" xlink:href="#DejaVuSans-74"/>
     <use x="1105.341797" xlink:href="#DejaVuSans-65"/>
     <use x="1166.865234" xlink:href="#DejaVuSans-64"/>
    </g>
   </g>
  </g>
 </g>
 <defs>
  <clipPath id="pc73015cb14">
   <rect height="665.28" width="1004.4" x="162" y="103.68"/>
  </clipPath>
 </defs>
</svg>
