<?xml version="1.0" encoding="utf-8" standalone="no"?>
<!DOCTYPE svg PUBLIC "-//W3C//DTD SVG 1.1//EN"
  "http://www.w3.org/Graphics/SVG/1.1/DTD/svg11.dtd">
<svg height="864pt" version="1.1" viewBox="0 0 1296 864" width="1296pt" xmlns="http://www.w3.org/2000/svg" xmlns:xlink="http://www.w3.org/1999/xlink">
 <metadata>
  <rdf:RDF xmlns:cc="http://creativecommons.org/ns#" xmlns:dc="http://purl.org/dc/elements/1.1/" xmlns:rdf="http://www.w3.org/1999/02/22-rdf-syntax-ns#">
   <cc:Work>
    <dc:type rdf:resource="http://purl.org/dc/dcmitype/StillImage"/>
    <dc:date>2021-09-15T09:18:44.911874</dc:date>
    <dc:format>image/svg+xml</dc:format>
    <dc:creator>
     <cc:Agent>
      <dc:title>Matplotlib v3.4.2, https://matplotlib.org/</dc:title>
     </cc:Agent>
    </dc:creator>
   </cc:Work>
  </rdf:RDF>
 </metadata>
 <defs>
  <style type="text/css">*{stroke-linecap:butt;stroke-linejoin:round;}</style>
 </defs>
 <g id="figure_1">
  <g id="patch_1">
   <path d="M 0 864 
L 1296 864 
L 1296 0 
L 0 0 
z
" style="fill:#ffffff;"/>
  </g>
  <g id="axes_1">
   <g id="patch_2">
    <path d="M 162 768.96 
L 1166.4 768.96 
L 1166.4 103.68 
L 162 103.68 
z
" style="fill:#ffffff;"/>
   </g>
   <g id="patch_3">
    <path clip-path="url(#p5106e08046)" d="M 162.99249 768.96 
L 164.97747 768.96 
L 164.97747 768.948705 
L 162.99249 768.948705 
z
" style="fill:#1f77b4;"/>
   </g>
   <g id="patch_4">
    <path clip-path="url(#p5106e08046)" d="M 166.962451 768.96 
L 168.947431 768.96 
L 168.947431 768.919151 
L 166.962451 768.919151 
z
" style="fill:#1f77b4;"/>
   </g>
   <g id="patch_5">
    <path clip-path="url(#p5106e08046)" d="M 170.932411 768.96 
L 172.917391 768.96 
L 172.917391 768.706623 
L 170.932411 768.706623 
z
" style="fill:#1f77b4;"/>
   </g>
   <g id="patch_6">
    <path clip-path="url(#p5106e08046)" d="M 174.902372 768.96 
L 176.887352 768.96 
L 176.887352 767.169078 
L 174.902372 767.169078 
z
" style="fill:#1f77b4;"/>
   </g>
   <g id="patch_7">
    <path clip-path="url(#p5106e08046)" d="M 178.872332 768.96 
L 180.857312 768.96 
L 180.857312 765.327752 
L 178.872332 765.327752 
z
" style="fill:#1f77b4;"/>
   </g>
   <g id="patch_8">
    <path clip-path="url(#p5106e08046)" d="M 182.842292 768.96 
L 184.827273 768.96 
L 184.827273 764.324265 
L 182.842292 764.324265 
z
" style="fill:#1f77b4;"/>
   </g>
   <g id="patch_9">
    <path clip-path="url(#p5106e08046)" d="M 186.812253 768.96 
L 188.797233 768.96 
L 188.797233 763.715132 
L 186.812253 763.715132 
z
" style="fill:#1f77b4;"/>
   </g>
   <g id="patch_10">
    <path clip-path="url(#p5106e08046)" d="M 190.782213 768.96 
L 192.767194 768.96 
L 192.767194 762.759203 
L 190.782213 762.759203 
z
" style="fill:#1f77b4;"/>
   </g>
   <g id="patch_11">
    <path clip-path="url(#p5106e08046)" d="M 194.752174 768.96 
L 196.737154 768.96 
L 196.737154 761.850706 
L 194.752174 761.850706 
z
" style="fill:#1f77b4;"/>
   </g>
   <g id="patch_12">
    <path clip-path="url(#p5106e08046)" d="M 198.722134 768.96 
L 200.707115 768.96 
L 200.707115 761.109131 
L 198.722134 761.109131 
z
" style="fill:#1f77b4;"/>
   </g>
   <g id="patch_13">
    <path clip-path="url(#p5106e08046)" d="M 202.692095 768.96 
L 204.677075 768.96 
L 204.677075 760.203521 
L 202.692095 760.203521 
z
" style="fill:#1f77b4;"/>
   </g>
   <g id="patch_14">
    <path clip-path="url(#p5106e08046)" d="M 206.662055 768.96 
L 208.647036 768.96 
L 208.647036 760.015112 
L 206.662055 760.015112 
z
" style="fill:#1f77b4;"/>
   </g>
   <g id="patch_15">
    <path clip-path="url(#p5106e08046)" d="M 210.632016 768.96 
L 212.616996 768.96 
L 212.616996 759.897914 
L 210.632016 759.897914 
z
" style="fill:#1f77b4;"/>
   </g>
   <g id="patch_16">
    <path clip-path="url(#p5106e08046)" d="M 214.601976 768.96 
L 216.586957 768.96 
L 216.586957 759.842627 
L 214.601976 759.842627 
z
" style="fill:#1f77b4;"/>
   </g>
   <g id="patch_17">
    <path clip-path="url(#p5106e08046)" d="M 218.571937 768.96 
L 220.556917 768.96 
L 220.556917 759.587807 
L 218.571937 759.587807 
z
" style="fill:#1f77b4;"/>
   </g>
   <g id="patch_18">
    <path clip-path="url(#p5106e08046)" d="M 222.541897 768.96 
L 224.526877 768.96 
L 224.526877 759.162666 
L 222.541897 759.162666 
z
" style="fill:#1f77b4;"/>
   </g>
   <g id="patch_19">
    <path clip-path="url(#p5106e08046)" d="M 226.511858 768.96 
L 228.496838 768.96 
L 228.496838 758.329456 
L 226.511858 758.329456 
z
" style="fill:#1f77b4;"/>
   </g>
   <g id="patch_20">
    <path clip-path="url(#p5106e08046)" d="M 230.481818 768.96 
L 232.466798 768.96 
L 232.466798 757.503125 
L 230.481818 757.503125 
z
" style="fill:#1f77b4;"/>
   </g>
   <g id="patch_21">
    <path clip-path="url(#p5106e08046)" d="M 234.451779 768.96 
L 236.436759 768.96 
L 236.436759 756.908812 
L 234.451779 756.908812 
z
" style="fill:#1f77b4;"/>
   </g>
   <g id="patch_22">
    <path clip-path="url(#p5106e08046)" d="M 238.421739 768.96 
L 240.406719 768.96 
L 240.406719 756.692505 
L 238.421739 756.692505 
z
" style="fill:#1f77b4;"/>
   </g>
   <g id="patch_23">
    <path clip-path="url(#p5106e08046)" d="M 242.3917 768.96 
L 244.37668 768.96 
L 244.37668 756.39866 
L 242.3917 756.39866 
z
" style="fill:#1f77b4;"/>
   </g>
   <g id="patch_24">
    <path clip-path="url(#p5106e08046)" d="M 246.36166 768.96 
L 248.34664 768.96 
L 248.34664 755.610291 
L 246.36166 755.610291 
z
" style="fill:#1f77b4;"/>
   </g>
   <g id="patch_25">
    <path clip-path="url(#p5106e08046)" d="M 250.331621 768.96 
L 252.316601 768.96 
L 252.316601 754.298947 
L 250.331621 754.298947 
z
" style="fill:#1f77b4;"/>
   </g>
   <g id="patch_26">
    <path clip-path="url(#p5106e08046)" d="M 254.301581 768.96 
L 256.286561 768.96 
L 256.286561 752.4814 
L 254.301581 752.4814 
z
" style="fill:#1f77b4;"/>
   </g>
   <g id="patch_27">
    <path clip-path="url(#p5106e08046)" d="M 258.271542 768.96 
L 260.256522 768.96 
L 260.256522 750.948526 
L 258.271542 750.948526 
z
" style="fill:#1f77b4;"/>
   </g>
   <g id="patch_28">
    <path clip-path="url(#p5106e08046)" d="M 262.241502 768.96 
L 264.226482 768.96 
L 264.226482 749.561088 
L 262.241502 749.561088 
z
" style="fill:#1f77b4;"/>
   </g>
   <g id="patch_29">
    <path clip-path="url(#p5106e08046)" d="M 266.211462 768.96 
L 268.196443 768.96 
L 268.196443 748.795309 
L 266.211462 748.795309 
z
" style="fill:#1f77b4;"/>
   </g>
   <g id="patch_30">
    <path clip-path="url(#p5106e08046)" d="M 270.181423 768.96 
L 272.166403 768.96 
L 272.166403 748.365073 
L 270.181423 748.365073 
z
" style="fill:#1f77b4;"/>
   </g>
   <g id="patch_31">
    <path clip-path="url(#p5106e08046)" d="M 274.151383 768.96 
L 276.136364 768.96 
L 276.136364 747.618699 
L 274.151383 747.618699 
z
" style="fill:#1f77b4;"/>
   </g>
   <g id="patch_32">
    <path clip-path="url(#p5106e08046)" d="M 278.121344 768.96 
L 280.106324 768.96 
L 280.106324 746.000942 
L 278.121344 746.000942 
z
" style="fill:#1f77b4;"/>
   </g>
   <g id="patch_33">
    <path clip-path="url(#p5106e08046)" d="M 282.091304 768.96 
L 284.076285 768.96 
L 284.076285 744.800511 
L 282.091304 744.800511 
z
" style="fill:#1f77b4;"/>
   </g>
   <g id="patch_34">
    <path clip-path="url(#p5106e08046)" d="M 286.061265 768.96 
L 288.046245 768.96 
L 288.046245 743.164791 
L 286.061265 743.164791 
z
" style="fill:#1f77b4;"/>
   </g>
   <g id="patch_35">
    <path clip-path="url(#p5106e08046)" d="M 290.031225 768.96 
L 292.016206 768.96 
L 292.016206 741.877013 
L 290.031225 741.877013 
z
" style="fill:#1f77b4;"/>
   </g>
   <g id="patch_36">
    <path clip-path="url(#p5106e08046)" d="M 294.001186 768.96 
L 295.986166 768.96 
L 295.986166 740.732634 
L 294.001186 740.732634 
z
" style="fill:#1f77b4;"/>
   </g>
   <g id="patch_37">
    <path clip-path="url(#p5106e08046)" d="M 297.971146 768.96 
L 299.956126 768.96 
L 299.956126 740.342228 
L 297.971146 740.342228 
z
" style="fill:#1f77b4;"/>
   </g>
   <g id="patch_38">
    <path clip-path="url(#p5106e08046)" d="M 301.941107 768.96 
L 303.926087 768.96 
L 303.926087 739.015767 
L 301.941107 739.015767 
z
" style="fill:#1f77b4;"/>
   </g>
   <g id="patch_39">
    <path clip-path="url(#p5106e08046)" d="M 305.911067 768.96 
L 307.896047 768.96 
L 307.896047 737.383105 
L 305.911067 737.383105 
z
" style="fill:#1f77b4;"/>
   </g>
   <g id="patch_40">
    <path clip-path="url(#p5106e08046)" d="M 309.881028 768.96 
L 311.866008 768.96 
L 311.866008 735.406024 
L 309.881028 735.406024 
z
" style="fill:#1f77b4;"/>
   </g>
   <g id="patch_41">
    <path clip-path="url(#p5106e08046)" d="M 313.850988 768.96 
L 315.835968 768.96 
L 315.835968 732.586859 
L 313.850988 732.586859 
z
" style="fill:#1f77b4;"/>
   </g>
   <g id="patch_42">
    <path clip-path="url(#p5106e08046)" d="M 317.820949 768.96 
L 319.805929 768.96 
L 319.805929 730.03606 
L 317.820949 730.03606 
z
" style="fill:#1f77b4;"/>
   </g>
   <g id="patch_43">
    <path clip-path="url(#p5106e08046)" d="M 321.790909 768.96 
L 323.775889 768.96 
L 323.775889 728.44 
L 321.790909 728.44 
z
" style="fill:#1f77b4;"/>
   </g>
   <g id="patch_44">
    <path clip-path="url(#p5106e08046)" d="M 325.76087 768.96 
L 327.74585 768.96 
L 327.74585 727.578637 
L 325.76087 727.578637 
z
" style="fill:#1f77b4;"/>
   </g>
   <g id="patch_45">
    <path clip-path="url(#p5106e08046)" d="M 329.73083 768.96 
L 331.71581 768.96 
L 331.71581 726.741902 
L 329.73083 726.741902 
z
" style="fill:#1f77b4;"/>
   </g>
   <g id="patch_46">
    <path clip-path="url(#p5106e08046)" d="M 333.700791 768.96 
L 335.685771 768.96 
L 335.685771 725.10631 
L 333.700791 725.10631 
z
" style="fill:#1f77b4;"/>
   </g>
   <g id="patch_47">
    <path clip-path="url(#p5106e08046)" d="M 337.670751 768.96 
L 339.655731 768.96 
L 339.655731 722.395595 
L 337.670751 722.395595 
z
" style="fill:#1f77b4;"/>
   </g>
   <g id="patch_48">
    <path clip-path="url(#p5106e08046)" d="M 341.640711 768.96 
L 343.625692 768.96 
L 343.625692 718.86097 
L 341.640711 718.86097 
z
" style="fill:#1f77b4;"/>
   </g>
   <g id="patch_49">
    <path clip-path="url(#p5106e08046)" d="M 345.610672 768.96 
L 347.595652 768.96 
L 347.595652 715.537088 
L 345.610672 715.537088 
z
" style="fill:#1f77b4;"/>
   </g>
   <g id="patch_50">
    <path clip-path="url(#p5106e08046)" d="M 349.580632 768.96 
L 351.565613 768.96 
L 351.565613 715.002011 
L 349.580632 715.002011 
z
" style="fill:#1f77b4;"/>
   </g>
   <g id="patch_51">
    <path clip-path="url(#p5106e08046)" d="M 353.550593 768.96 
L 355.535573 768.96 
L 355.535573 712.557455 
L 353.550593 712.557455 
z
" style="fill:#1f77b4;"/>
   </g>
   <g id="patch_52">
    <path clip-path="url(#p5106e08046)" d="M 357.520553 768.96 
L 359.505534 768.96 
L 359.505534 710.601733 
L 357.520553 710.601733 
z
" style="fill:#1f77b4;"/>
   </g>
   <g id="patch_53">
    <path clip-path="url(#p5106e08046)" d="M 361.490514 768.96 
L 363.475494 768.96 
L 363.475494 707.654414 
L 361.490514 707.654414 
z
" style="fill:#1f77b4;"/>
   </g>
   <g id="patch_54">
    <path clip-path="url(#p5106e08046)" d="M 365.460474 768.96 
L 367.445455 768.96 
L 367.445455 702.032771 
L 365.460474 702.032771 
z
" style="fill:#1f77b4;"/>
   </g>
   <g id="patch_55">
    <path clip-path="url(#p5106e08046)" d="M 369.430435 768.96 
L 371.415415 768.96 
L 371.415415 696.139365 
L 369.430435 696.139365 
z
" style="fill:#1f77b4;"/>
   </g>
   <g id="patch_56">
    <path clip-path="url(#p5106e08046)" d="M 373.400395 768.96 
L 375.385375 768.96 
L 375.385375 690.982735 
L 373.400395 690.982735 
z
" style="fill:#1f77b4;"/>
   </g>
   <g id="patch_57">
    <path clip-path="url(#p5106e08046)" d="M 377.370356 768.96 
L 379.355336 768.96 
L 379.355336 686.53889 
L 377.370356 686.53889 
z
" style="fill:#1f77b4;"/>
   </g>
   <g id="patch_58">
    <path clip-path="url(#p5106e08046)" d="M 381.340316 768.96 
L 383.325296 768.96 
L 383.325296 684.440875 
L 381.340316 684.440875 
z
" style="fill:#1f77b4;"/>
   </g>
   <g id="patch_59">
    <path clip-path="url(#p5106e08046)" d="M 385.310277 768.96 
L 387.295257 768.96 
L 387.295257 681.238947 
L 385.310277 681.238947 
z
" style="fill:#1f77b4;"/>
   </g>
   <g id="patch_60">
    <path clip-path="url(#p5106e08046)" d="M 389.280237 768.96 
L 391.265217 768.96 
L 391.265217 676.861939 
L 389.280237 676.861939 
z
" style="fill:#1f77b4;"/>
   </g>
   <g id="patch_61">
    <path clip-path="url(#p5106e08046)" d="M 393.250198 768.96 
L 395.235178 768.96 
L 395.235178 671.87049 
L 393.250198 671.87049 
z
" style="fill:#1f77b4;"/>
   </g>
   <g id="patch_62">
    <path clip-path="url(#p5106e08046)" d="M 397.220158 768.96 
L 399.205138 768.96 
L 399.205138 664.607225 
L 397.220158 664.607225 
z
" style="fill:#1f77b4;"/>
   </g>
   <g id="patch_63">
    <path clip-path="url(#p5106e08046)" d="M 401.190119 768.96 
L 403.175099 768.96 
L 403.175099 657.836701 
L 401.190119 657.836701 
z
" style="fill:#1f77b4;"/>
   </g>
   <g id="patch_64">
    <path clip-path="url(#p5106e08046)" d="M 405.160079 768.96 
L 407.145059 768.96 
L 407.145059 652.742662 
L 405.160079 652.742662 
z
" style="fill:#1f77b4;"/>
   </g>
   <g id="patch_65">
    <path clip-path="url(#p5106e08046)" d="M 409.13004 768.96 
L 411.11502 768.96 
L 411.11502 651.137388 
L 409.13004 651.137388 
z
" style="fill:#1f77b4;"/>
   </g>
   <g id="patch_66">
    <path clip-path="url(#p5106e08046)" d="M 413.1 768.96 
L 415.08498 768.96 
L 415.08498 646.781994 
L 413.1 646.781994 
z
" style="fill:#1f77b4;"/>
   </g>
   <g id="patch_67">
    <path clip-path="url(#p5106e08046)" d="M 417.06996 768.96 
L 419.054941 768.96 
L 419.054941 641.111646 
L 417.06996 641.111646 
z
" style="fill:#1f77b4;"/>
   </g>
   <g id="patch_68">
    <path clip-path="url(#p5106e08046)" d="M 421.039921 768.96 
L 423.024901 768.96 
L 423.024901 634.802483 
L 421.039921 634.802483 
z
" style="fill:#1f77b4;"/>
   </g>
   <g id="patch_69">
    <path clip-path="url(#p5106e08046)" d="M 425.009881 768.96 
L 426.994862 768.96 
L 426.994862 628.100877 
L 425.009881 628.100877 
z
" style="fill:#1f77b4;"/>
   </g>
   <g id="patch_70">
    <path clip-path="url(#p5106e08046)" d="M 428.979842 768.96 
L 430.964822 768.96 
L 430.964822 620.537738 
L 428.979842 620.537738 
z
" style="fill:#1f77b4;"/>
   </g>
   <g id="patch_71">
    <path clip-path="url(#p5106e08046)" d="M 432.949802 768.96 
L 434.934783 768.96 
L 434.934783 615.629729 
L 432.949802 615.629729 
z
" style="fill:#1f77b4;"/>
   </g>
   <g id="patch_72">
    <path clip-path="url(#p5106e08046)" d="M 436.919763 768.96 
L 438.904743 768.96 
L 438.904743 610.782613 
L 436.919763 610.782613 
z
" style="fill:#1f77b4;"/>
   </g>
   <g id="patch_73">
    <path clip-path="url(#p5106e08046)" d="M 440.889723 768.96 
L 442.874704 768.96 
L 442.874704 606.483567 
L 440.889723 606.483567 
z
" style="fill:#1f77b4;"/>
   </g>
   <g id="patch_74">
    <path clip-path="url(#p5106e08046)" d="M 444.859684 768.96 
L 446.844664 768.96 
L 446.844664 601.625962 
L 444.859684 601.625962 
z
" style="fill:#1f77b4;"/>
   </g>
   <g id="patch_75">
    <path clip-path="url(#p5106e08046)" d="M 448.829644 768.96 
L 450.814625 768.96 
L 450.814625 597.272478 
L 448.829644 597.272478 
z
" style="fill:#1f77b4;"/>
   </g>
   <g id="patch_76">
    <path clip-path="url(#p5106e08046)" d="M 452.799605 768.96 
L 454.784585 768.96 
L 454.784585 592.323917 
L 452.799605 592.323917 
z
" style="fill:#1f77b4;"/>
   </g>
   <g id="patch_77">
    <path clip-path="url(#p5106e08046)" d="M 456.769565 768.96 
L 458.754545 768.96 
L 458.754545 587.279687 
L 456.769565 587.279687 
z
" style="fill:#1f77b4;"/>
   </g>
   <g id="patch_78">
    <path clip-path="url(#p5106e08046)" d="M 460.739526 768.96 
L 462.724506 768.96 
L 462.724506 584.318016 
L 460.739526 584.318016 
z
" style="fill:#1f77b4;"/>
   </g>
   <g id="patch_79">
    <path clip-path="url(#p5106e08046)" d="M 464.709486 768.96 
L 466.694466 768.96 
L 466.694466 582.684589 
L 464.709486 582.684589 
z
" style="fill:#1f77b4;"/>
   </g>
   <g id="patch_80">
    <path clip-path="url(#p5106e08046)" d="M 468.679447 768.96 
L 470.664427 768.96 
L 470.664427 579.980031 
L 468.679447 579.980031 
z
" style="fill:#1f77b4;"/>
   </g>
   <g id="patch_81">
    <path clip-path="url(#p5106e08046)" d="M 472.649407 768.96 
L 474.634387 768.96 
L 474.634387 576.750121 
L 472.649407 576.750121 
z
" style="fill:#1f77b4;"/>
   </g>
   <g id="patch_82">
    <path clip-path="url(#p5106e08046)" d="M 476.619368 768.96 
L 478.604348 768.96 
L 478.604348 573.37936 
L 476.619368 573.37936 
z
" style="fill:#1f77b4;"/>
   </g>
   <g id="patch_83">
    <path clip-path="url(#p5106e08046)" d="M 480.589328 768.96 
L 482.574308 768.96 
L 482.574308 568.990165 
L 480.589328 568.990165 
z
" style="fill:#1f77b4;"/>
   </g>
   <g id="patch_84">
    <path clip-path="url(#p5106e08046)" d="M 484.559289 768.96 
L 486.544269 768.96 
L 486.544269 563.552047 
L 484.559289 563.552047 
z
" style="fill:#1f77b4;"/>
   </g>
   <g id="patch_85">
    <path clip-path="url(#p5106e08046)" d="M 488.529249 768.96 
L 490.514229 768.96 
L 490.514229 558.854358 
L 488.529249 558.854358 
z
" style="fill:#1f77b4;"/>
   </g>
   <g id="patch_86">
    <path clip-path="url(#p5106e08046)" d="M 492.499209 768.96 
L 494.48419 768.96 
L 494.48419 556.990994 
L 492.499209 556.990994 
z
" style="fill:#1f77b4;"/>
   </g>
   <g id="patch_87">
    <path clip-path="url(#p5106e08046)" d="M 496.46917 768.96 
L 498.45415 768.96 
L 498.45415 554.149535 
L 496.46917 554.149535 
z
" style="fill:#1f77b4;"/>
   </g>
   <g id="patch_88">
    <path clip-path="url(#p5106e08046)" d="M 500.43913 768.96 
L 502.424111 768.96 
L 502.424111 548.989806 
L 500.43913 548.989806 
z
" style="fill:#1f77b4;"/>
   </g>
   <g id="patch_89">
    <path clip-path="url(#p5106e08046)" d="M 504.409091 768.96 
L 506.394071 768.96 
L 506.394071 544.632883 
L 504.409091 544.632883 
z
" style="fill:#1f77b4;"/>
   </g>
   <g id="patch_90">
    <path clip-path="url(#p5106e08046)" d="M 508.379051 768.96 
L 510.364032 768.96 
L 510.364032 538.594422 
L 508.379051 538.594422 
z
" style="fill:#1f77b4;"/>
   </g>
   <g id="patch_91">
    <path clip-path="url(#p5106e08046)" d="M 512.349012 768.96 
L 514.333992 768.96 
L 514.333992 532.486407 
L 512.349012 532.486407 
z
" style="fill:#1f77b4;"/>
   </g>
   <g id="patch_92">
    <path clip-path="url(#p5106e08046)" d="M 516.318972 768.96 
L 518.303953 768.96 
L 518.303953 527.847997 
L 516.318972 527.847997 
z
" style="fill:#1f77b4;"/>
   </g>
   <g id="patch_93">
    <path clip-path="url(#p5106e08046)" d="M 520.288933 768.96 
L 522.273913 768.96 
L 522.273913 526.556058 
L 520.288933 526.556058 
z
" style="fill:#1f77b4;"/>
   </g>
   <g id="patch_94">
    <path clip-path="url(#p5106e08046)" d="M 524.258893 768.96 
L 526.243874 768.96 
L 526.243874 522.203169 
L 524.258893 522.203169 
z
" style="fill:#1f77b4;"/>
   </g>
   <g id="patch_95">
    <path clip-path="url(#p5106e08046)" d="M 528.228854 768.96 
L 530.213834 768.96 
L 530.213834 515.507805 
L 528.228854 515.507805 
z
" style="fill:#1f77b4;"/>
   </g>
   <g id="patch_96">
    <path clip-path="url(#p5106e08046)" d="M 532.198814 768.96 
L 534.183794 768.96 
L 534.183794 508.070356 
L 532.198814 508.070356 
z
" style="fill:#1f77b4;"/>
   </g>
   <g id="patch_97">
    <path clip-path="url(#p5106e08046)" d="M 536.168775 768.96 
L 538.153755 768.96 
L 538.153755 499.233537 
L 536.168775 499.233537 
z
" style="fill:#1f77b4;"/>
   </g>
   <g id="patch_98">
    <path clip-path="url(#p5106e08046)" d="M 540.138735 768.96 
L 542.123715 768.96 
L 542.123715 488.815096 
L 540.138735 488.815096 
z
" style="fill:#1f77b4;"/>
   </g>
   <g id="patch_99">
    <path clip-path="url(#p5106e08046)" d="M 544.108696 768.96 
L 546.093676 768.96 
L 546.093676 481.977735 
L 544.108696 481.977735 
z
" style="fill:#1f77b4;"/>
   </g>
   <g id="patch_100">
    <path clip-path="url(#p5106e08046)" d="M 548.078656 768.96 
L 550.063636 768.96 
L 550.063636 478.673514 
L 548.078656 478.673514 
z
" style="fill:#1f77b4;"/>
   </g>
   <g id="patch_101">
    <path clip-path="url(#p5106e08046)" d="M 552.048617 768.96 
L 554.033597 768.96 
L 554.033597 472.963421 
L 552.048617 472.963421 
z
" style="fill:#1f77b4;"/>
   </g>
   <g id="patch_102">
    <path clip-path="url(#p5106e08046)" d="M 556.018577 768.96 
L 558.003557 768.96 
L 558.003557 465.881728 
L 556.018577 465.881728 
z
" style="fill:#1f77b4;"/>
   </g>
   <g id="patch_103">
    <path clip-path="url(#p5106e08046)" d="M 559.988538 768.96 
L 561.973518 768.96 
L 561.973518 459.769551 
L 559.988538 459.769551 
z
" style="fill:#1f77b4;"/>
   </g>
   <g id="patch_104">
    <path clip-path="url(#p5106e08046)" d="M 563.958498 768.96 
L 565.943478 768.96 
L 565.943478 451.445432 
L 563.958498 451.445432 
z
" style="fill:#1f77b4;"/>
   </g>
   <g id="patch_105">
    <path clip-path="url(#p5106e08046)" d="M 567.928458 768.96 
L 569.913439 768.96 
L 569.913439 443.378553 
L 567.928458 443.378553 
z
" style="fill:#1f77b4;"/>
   </g>
   <g id="patch_106">
    <path clip-path="url(#p5106e08046)" d="M 571.898419 768.96 
L 573.883399 768.96 
L 573.883399 437.829946 
L 571.898419 437.829946 
z
" style="fill:#1f77b4;"/>
   </g>
   <g id="patch_107">
    <path clip-path="url(#p5106e08046)" d="M 575.868379 768.96 
L 577.85336 768.96 
L 577.85336 434.589165 
L 575.868379 434.589165 
z
" style="fill:#1f77b4;"/>
   </g>
   <g id="patch_108">
    <path clip-path="url(#p5106e08046)" d="M 579.83834 768.96 
L 581.82332 768.96 
L 581.82332 429.944937 
L 579.83834 429.944937 
z
" style="fill:#1f77b4;"/>
   </g>
   <g id="patch_109">
    <path clip-path="url(#p5106e08046)" d="M 583.8083 768.96 
L 585.793281 768.96 
L 585.793281 422.54235 
L 583.8083 422.54235 
z
" style="fill:#1f77b4;"/>
   </g>
   <g id="patch_110">
    <path clip-path="url(#p5106e08046)" d="M 587.778261 768.96 
L 589.763241 768.96 
L 589.763241 416.010342 
L 587.778261 416.010342 
z
" style="fill:#1f77b4;"/>
   </g>
   <g id="patch_111">
    <path clip-path="url(#p5106e08046)" d="M 591.748221 768.96 
L 593.733202 768.96 
L 593.733202 409.161559 
L 591.748221 409.161559 
z
" style="fill:#1f77b4;"/>
   </g>
   <g id="patch_112">
    <path clip-path="url(#p5106e08046)" d="M 595.718182 768.96 
L 597.703162 768.96 
L 597.703162 402.906537 
L 595.718182 402.906537 
z
" style="fill:#1f77b4;"/>
   </g>
   <g id="patch_113">
    <path clip-path="url(#p5106e08046)" d="M 599.688142 768.96 
L 601.673123 768.96 
L 601.673123 398.81815 
L 599.688142 398.81815 
z
" style="fill:#1f77b4;"/>
   </g>
   <g id="patch_114">
    <path clip-path="url(#p5106e08046)" d="M 603.658103 768.96 
L 605.643083 768.96 
L 605.643083 397.138014 
L 603.658103 397.138014 
z
" style="fill:#1f77b4;"/>
   </g>
   <g id="patch_115">
    <path clip-path="url(#p5106e08046)" d="M 607.628063 768.96 
L 609.613043 768.96 
L 609.613043 393.258376 
L 607.628063 393.258376 
z
" style="fill:#1f77b4;"/>
   </g>
   <g id="patch_116">
    <path clip-path="url(#p5106e08046)" d="M 611.598024 768.96 
L 613.583004 768.96 
L 613.583004 387.722636 
L 611.598024 387.722636 
z
" style="fill:#1f77b4;"/>
   </g>
   <g id="patch_117">
    <path clip-path="url(#p5106e08046)" d="M 615.567984 768.96 
L 617.552964 768.96 
L 617.552964 381.97492 
L 615.567984 381.97492 
z
" style="fill:#1f77b4;"/>
   </g>
   <g id="patch_118">
    <path clip-path="url(#p5106e08046)" d="M 619.537945 768.96 
L 621.522925 768.96 
L 621.522925 376.395995 
L 619.537945 376.395995 
z
" style="fill:#1f77b4;"/>
   </g>
   <g id="patch_119">
    <path clip-path="url(#p5106e08046)" d="M 623.507905 768.96 
L 625.492885 768.96 
L 625.492885 371.608624 
L 623.507905 371.608624 
z
" style="fill:#1f77b4;"/>
   </g>
   <g id="patch_120">
    <path clip-path="url(#p5106e08046)" d="M 627.477866 768.96 
L 629.462846 768.96 
L 629.462846 369.483177 
L 627.477866 369.483177 
z
" style="fill:#1f77b4;"/>
   </g>
   <g id="patch_121">
    <path clip-path="url(#p5106e08046)" d="M 631.447826 768.96 
L 633.432806 768.96 
L 633.432806 368.793789 
L 631.447826 368.793789 
z
" style="fill:#1f77b4;"/>
   </g>
   <g id="patch_122">
    <path clip-path="url(#p5106e08046)" d="M 635.417787 768.96 
L 637.402767 768.96 
L 637.402767 366.436622 
L 635.417787 366.436622 
z
" style="fill:#1f77b4;"/>
   </g>
   <g id="patch_123">
    <path clip-path="url(#p5106e08046)" d="M 639.387747 768.96 
L 641.372727 768.96 
L 641.372727 360.292641 
L 639.387747 360.292641 
z
" style="fill:#1f77b4;"/>
   </g>
   <g id="patch_124">
    <path clip-path="url(#p5106e08046)" d="M 643.357708 768.96 
L 645.342688 768.96 
L 645.342688 354.349425 
L 643.357708 354.349425 
z
" style="fill:#1f77b4;"/>
   </g>
   <g id="patch_125">
    <path clip-path="url(#p5106e08046)" d="M 647.327668 768.96 
L 649.312648 768.96 
L 649.312648 349.875049 
L 647.327668 349.875049 
z
" style="fill:#1f77b4;"/>
   </g>
   <g id="patch_126">
    <path clip-path="url(#p5106e08046)" d="M 651.297628 768.96 
L 653.282609 768.96 
L 653.282609 343.286267 
L 651.297628 343.286267 
z
" style="fill:#1f77b4;"/>
   </g>
   <g id="patch_127">
    <path clip-path="url(#p5106e08046)" d="M 655.267589 768.96 
L 657.252569 768.96 
L 657.252569 338.896053 
L 655.267589 338.896053 
z
" style="fill:#1f77b4;"/>
   </g>
   <g id="patch_128">
    <path clip-path="url(#p5106e08046)" d="M 659.237549 768.96 
L 661.22253 768.96 
L 661.22253 334.986776 
L 659.237549 334.986776 
z
" style="fill:#1f77b4;"/>
   </g>
   <g id="patch_129">
    <path clip-path="url(#p5106e08046)" d="M 663.20751 768.96 
L 665.19249 768.96 
L 665.19249 331.513509 
L 663.20751 331.513509 
z
" style="fill:#1f77b4;"/>
   </g>
   <g id="patch_130">
    <path clip-path="url(#p5106e08046)" d="M 667.17747 768.96 
L 669.162451 768.96 
L 669.162451 326.923889 
L 667.17747 326.923889 
z
" style="fill:#1f77b4;"/>
   </g>
   <g id="patch_131">
    <path clip-path="url(#p5106e08046)" d="M 671.147431 768.96 
L 673.132411 768.96 
L 673.132411 322.758304 
L 671.147431 322.758304 
z
" style="fill:#1f77b4;"/>
   </g>
   <g id="patch_132">
    <path clip-path="url(#p5106e08046)" d="M 675.117391 768.96 
L 677.102372 768.96 
L 677.102372 318.449535 
L 675.117391 318.449535 
z
" style="fill:#1f77b4;"/>
   </g>
   <g id="patch_133">
    <path clip-path="url(#p5106e08046)" d="M 679.087352 768.96 
L 681.072332 768.96 
L 681.072332 312.178334 
L 679.087352 312.178334 
z
" style="fill:#1f77b4;"/>
   </g>
   <g id="patch_134">
    <path clip-path="url(#p5106e08046)" d="M 683.057312 768.96 
L 685.042292 768.96 
L 685.042292 308.778019 
L 683.057312 308.778019 
z
" style="fill:#1f77b4;"/>
   </g>
   <g id="patch_135">
    <path clip-path="url(#p5106e08046)" d="M 687.027273 768.96 
L 689.012253 768.96 
L 689.012253 307.427481 
L 687.027273 307.427481 
z
" style="fill:#1f77b4;"/>
   </g>
   <g id="patch_136">
    <path clip-path="url(#p5106e08046)" d="M 690.997233 768.96 
L 692.982213 768.96 
L 692.982213 304.988572 
L 690.997233 304.988572 
z
" style="fill:#1f77b4;"/>
   </g>
   <g id="patch_137">
    <path clip-path="url(#p5106e08046)" d="M 694.967194 768.96 
L 696.952174 768.96 
L 696.952174 300.524218 
L 694.967194 300.524218 
z
" style="fill:#1f77b4;"/>
   </g>
   <g id="patch_138">
    <path clip-path="url(#p5106e08046)" d="M 698.937154 768.96 
L 700.922134 768.96 
L 700.922134 296.515067 
L 698.937154 296.515067 
z
" style="fill:#1f77b4;"/>
   </g>
   <g id="patch_139">
    <path clip-path="url(#p5106e08046)" d="M 702.907115 768.96 
L 704.892095 768.96 
L 704.892095 290.800091 
L 702.907115 290.800091 
z
" style="fill:#1f77b4;"/>
   </g>
   <g id="patch_140">
    <path clip-path="url(#p5106e08046)" d="M 706.877075 768.96 
L 708.862055 768.96 
L 708.862055 287.066186 
L 706.877075 287.066186 
z
" style="fill:#1f77b4;"/>
   </g>
   <g id="patch_141">
    <path clip-path="url(#p5106e08046)" d="M 710.847036 768.96 
L 712.832016 768.96 
L 712.832016 284.160396 
L 710.847036 284.160396 
z
" style="fill:#1f77b4;"/>
   </g>
   <g id="patch_142">
    <path clip-path="url(#p5106e08046)" d="M 714.816996 768.96 
L 716.801976 768.96 
L 716.801976 282.828074 
L 714.816996 282.828074 
z
" style="fill:#1f77b4;"/>
   </g>
   <g id="patch_143">
    <path clip-path="url(#p5106e08046)" d="M 718.786957 768.96 
L 720.771937 768.96 
L 720.771937 280.576768 
L 718.786957 280.576768 
z
" style="fill:#1f77b4;"/>
   </g>
   <g id="patch_144">
    <path clip-path="url(#p5106e08046)" d="M 722.756917 768.96 
L 724.741897 768.96 
L 724.741897 277.791445 
L 722.756917 277.791445 
z
" style="fill:#1f77b4;"/>
   </g>
   <g id="patch_145">
    <path clip-path="url(#p5106e08046)" d="M 726.726877 768.96 
L 728.711858 768.96 
L 728.711858 274.998947 
L 726.726877 274.998947 
z
" style="fill:#1f77b4;"/>
   </g>
   <g id="patch_146">
    <path clip-path="url(#p5106e08046)" d="M 730.696838 768.96 
L 732.681818 768.96 
L 732.681818 272.083899 
L 730.696838 272.083899 
z
" style="fill:#1f77b4;"/>
   </g>
   <g id="patch_147">
    <path clip-path="url(#p5106e08046)" d="M 734.666798 768.96 
L 736.651779 768.96 
L 736.651779 269.381125 
L 734.666798 269.381125 
z
" style="fill:#1f77b4;"/>
   </g>
   <g id="patch_148">
    <path clip-path="url(#p5106e08046)" d="M 738.636759 768.96 
L 740.621739 768.96 
L 740.621739 267.539247 
L 738.636759 267.539247 
z
" style="fill:#1f77b4;"/>
   </g>
   <g id="patch_149">
    <path clip-path="url(#p5106e08046)" d="M 742.606719 768.96 
L 744.5917 768.96 
L 744.5917 266.510707 
L 742.606719 266.510707 
z
" style="fill:#1f77b4;"/>
   </g>
   <g id="patch_150">
    <path clip-path="url(#p5106e08046)" d="M 746.57668 768.96 
L 748.56166 768.96 
L 748.56166 265.767943 
L 746.57668 265.767943 
z
" style="fill:#1f77b4;"/>
   </g>
   <g id="patch_151">
    <path clip-path="url(#p5106e08046)" d="M 750.54664 768.96 
L 752.531621 768.96 
L 752.531621 264.159951 
L 750.54664 264.159951 
z
" style="fill:#1f77b4;"/>
   </g>
   <g id="patch_152">
    <path clip-path="url(#p5106e08046)" d="M 754.516601 768.96 
L 756.501581 768.96 
L 756.501581 262.455993 
L 754.516601 262.455993 
z
" style="fill:#1f77b4;"/>
   </g>
   <g id="patch_153">
    <path clip-path="url(#p5106e08046)" d="M 758.486561 768.96 
L 760.471542 768.96 
L 760.471542 259.823453 
L 758.486561 259.823453 
z
" style="fill:#1f77b4;"/>
   </g>
   <g id="patch_154">
    <path clip-path="url(#p5106e08046)" d="M 762.456522 768.96 
L 764.441502 768.96 
L 764.441502 257.154055 
L 762.456522 257.154055 
z
" style="fill:#1f77b4;"/>
   </g>
   <g id="patch_155">
    <path clip-path="url(#p5106e08046)" d="M 766.426482 768.96 
L 768.411462 768.96 
L 768.411462 254.907929 
L 766.426482 254.907929 
z
" style="fill:#1f77b4;"/>
   </g>
   <g id="patch_156">
    <path clip-path="url(#p5106e08046)" d="M 770.396443 768.96 
L 772.381423 768.96 
L 772.381423 253.371445 
L 770.396443 253.371445 
z
" style="fill:#1f77b4;"/>
   </g>
   <g id="patch_157">
    <path clip-path="url(#p5106e08046)" d="M 774.366403 768.96 
L 776.351383 768.96 
L 776.351383 251.247612 
L 774.366403 251.247612 
z
" style="fill:#1f77b4;"/>
   </g>
   <g id="patch_158">
    <path clip-path="url(#p5106e08046)" d="M 778.336364 768.96 
L 780.321344 768.96 
L 780.321344 248.76658 
L 778.336364 248.76658 
z
" style="fill:#1f77b4;"/>
   </g>
   <g id="patch_159">
    <path clip-path="url(#p5106e08046)" d="M 782.306324 768.96 
L 784.291304 768.96 
L 784.291304 245.718199 
L 782.306324 245.718199 
z
" style="fill:#1f77b4;"/>
   </g>
   <g id="patch_160">
    <path clip-path="url(#p5106e08046)" d="M 786.276285 768.96 
L 788.261265 768.96 
L 788.261265 243.637466 
L 786.276285 243.637466 
z
" style="fill:#1f77b4;"/>
   </g>
   <g id="patch_161">
    <path clip-path="url(#p5106e08046)" d="M 790.246245 768.96 
L 792.231225 768.96 
L 792.231225 241.660386 
L 790.246245 241.660386 
z
" style="fill:#1f77b4;"/>
   </g>
   <g id="patch_162">
    <path clip-path="url(#p5106e08046)" d="M 794.216206 768.96 
L 796.201186 768.96 
L 796.201186 240.491845 
L 794.216206 240.491845 
z
" style="fill:#1f77b4;"/>
   </g>
   <g id="patch_163">
    <path clip-path="url(#p5106e08046)" d="M 798.186166 768.96 
L 800.171146 768.96 
L 800.171146 239.346955 
L 798.186166 239.346955 
z
" style="fill:#1f77b4;"/>
   </g>
   <g id="patch_164">
    <path clip-path="url(#p5106e08046)" d="M 802.156126 768.96 
L 804.141107 768.96 
L 804.141107 235.899464 
L 802.156126 235.899464 
z
" style="fill:#1f77b4;"/>
   </g>
   <g id="patch_165">
    <path clip-path="url(#p5106e08046)" d="M 806.126087 768.96 
L 808.111067 768.96 
L 808.111067 233.185862 
L 806.126087 233.185862 
z
" style="fill:#1f77b4;"/>
   </g>
   <g id="patch_166">
    <path clip-path="url(#p5106e08046)" d="M 810.096047 768.96 
L 812.081028 768.96 
L 812.081028 231.304068 
L 810.096047 231.304068 
z
" style="fill:#1f77b4;"/>
   </g>
   <g id="patch_167">
    <path clip-path="url(#p5106e08046)" d="M 814.066008 768.96 
L 816.050988 768.96 
L 816.050988 228.819087 
L 814.066008 228.819087 
z
" style="fill:#1f77b4;"/>
   </g>
   <g id="patch_168">
    <path clip-path="url(#p5106e08046)" d="M 818.035968 768.96 
L 820.020949 768.96 
L 820.020949 227.642648 
L 818.035968 227.642648 
z
" style="fill:#1f77b4;"/>
   </g>
   <g id="patch_169">
    <path clip-path="url(#p5106e08046)" d="M 822.005929 768.96 
L 823.990909 768.96 
L 823.990909 225.7868 
L 822.005929 225.7868 
z
" style="fill:#1f77b4;"/>
   </g>
   <g id="patch_170">
    <path clip-path="url(#p5106e08046)" d="M 825.975889 768.96 
L 827.96087 768.96 
L 827.96087 225.006583 
L 825.975889 225.006583 
z
" style="fill:#1f77b4;"/>
   </g>
   <g id="patch_171">
    <path clip-path="url(#p5106e08046)" d="M 829.94585 768.96 
L 831.93083 768.96 
L 831.93083 223.997491 
L 829.94585 223.997491 
z
" style="fill:#1f77b4;"/>
   </g>
   <g id="patch_172">
    <path clip-path="url(#p5106e08046)" d="M 833.91581 768.96 
L 835.900791 768.96 
L 835.900791 222.762453 
L 833.91581 222.762453 
z
" style="fill:#1f77b4;"/>
   </g>
   <g id="patch_173">
    <path clip-path="url(#p5106e08046)" d="M 837.885771 768.96 
L 839.870751 768.96 
L 839.870751 221.307583 
L 837.885771 221.307583 
z
" style="fill:#1f77b4;"/>
   </g>
   <g id="patch_174">
    <path clip-path="url(#p5106e08046)" d="M 841.855731 768.96 
L 843.840711 768.96 
L 843.840711 219.513901 
L 841.855731 219.513901 
z
" style="fill:#1f77b4;"/>
   </g>
   <g id="patch_175">
    <path clip-path="url(#p5106e08046)" d="M 845.825692 768.96 
L 847.810672 768.96 
L 847.810672 215.257063 
L 845.825692 215.257063 
z
" style="fill:#1f77b4;"/>
   </g>
   <g id="patch_176">
    <path clip-path="url(#p5106e08046)" d="M 849.795652 768.96 
L 851.780632 768.96 
L 851.780632 210.361793 
L 849.795652 210.361793 
z
" style="fill:#1f77b4;"/>
   </g>
   <g id="patch_177">
    <path clip-path="url(#p5106e08046)" d="M 853.765613 768.96 
L 855.750593 768.96 
L 855.750593 209.972407 
L 853.765613 209.972407 
z
" style="fill:#1f77b4;"/>
   </g>
   <g id="patch_178">
    <path clip-path="url(#p5106e08046)" d="M 857.735573 768.96 
L 859.720553 768.96 
L 859.720553 208.964546 
L 857.735573 208.964546 
z
" style="fill:#1f77b4;"/>
   </g>
   <g id="patch_179">
    <path clip-path="url(#p5106e08046)" d="M 861.705534 768.96 
L 863.690514 768.96 
L 863.690514 207.707724 
L 861.705534 207.707724 
z
" style="fill:#1f77b4;"/>
   </g>
   <g id="patch_180">
    <path clip-path="url(#p5106e08046)" d="M 865.675494 768.96 
L 867.660474 768.96 
L 867.660474 206.496805 
L 865.675494 206.496805 
z
" style="fill:#1f77b4;"/>
   </g>
   <g id="patch_181">
    <path clip-path="url(#p5106e08046)" d="M 869.645455 768.96 
L 871.630435 768.96 
L 871.630435 205.394294 
L 869.645455 205.394294 
z
" style="fill:#1f77b4;"/>
   </g>
   <g id="patch_182">
    <path clip-path="url(#p5106e08046)" d="M 873.615415 768.96 
L 875.600395 768.96 
L 875.600395 204.29501 
L 873.615415 204.29501 
z
" style="fill:#1f77b4;"/>
   </g>
   <g id="patch_183">
    <path clip-path="url(#p5106e08046)" d="M 877.585375 768.96 
L 879.570356 768.96 
L 879.570356 203.49335 
L 877.585375 203.49335 
z
" style="fill:#1f77b4;"/>
   </g>
   <g id="patch_184">
    <path clip-path="url(#p5106e08046)" d="M 881.555336 768.96 
L 883.540316 768.96 
L 883.540316 203.101586 
L 881.555336 203.101586 
z
" style="fill:#1f77b4;"/>
   </g>
   <g id="patch_185">
    <path clip-path="url(#p5106e08046)" d="M 885.525296 768.96 
L 887.510277 768.96 
L 887.510277 203.029313 
L 885.525296 203.029313 
z
" style="fill:#1f77b4;"/>
   </g>
   <g id="patch_186">
    <path clip-path="url(#p5106e08046)" d="M 889.495257 768.96 
L 891.480237 768.96 
L 891.480237 202.394363 
L 889.495257 202.394363 
z
" style="fill:#1f77b4;"/>
   </g>
   <g id="patch_187">
    <path clip-path="url(#p5106e08046)" d="M 893.465217 768.96 
L 895.450198 768.96 
L 895.450198 201.257075 
L 893.465217 201.257075 
z
" style="fill:#1f77b4;"/>
   </g>
   <g id="patch_188">
    <path clip-path="url(#p5106e08046)" d="M 897.435178 768.96 
L 899.420158 768.96 
L 899.420158 200.116092 
L 897.435178 200.116092 
z
" style="fill:#1f77b4;"/>
   </g>
   <g id="patch_189">
    <path clip-path="url(#p5106e08046)" d="M 901.405138 768.96 
L 903.390119 768.96 
L 903.390119 199.09838 
L 901.405138 199.09838 
z
" style="fill:#1f77b4;"/>
   </g>
   <g id="patch_190">
    <path clip-path="url(#p5106e08046)" d="M 905.375099 768.96 
L 907.360079 768.96 
L 907.360079 198.268482 
L 905.375099 198.268482 
z
" style="fill:#1f77b4;"/>
   </g>
   <g id="patch_191">
    <path clip-path="url(#p5106e08046)" d="M 909.345059 768.96 
L 911.33004 768.96 
L 911.33004 197.704317 
L 909.345059 197.704317 
z
" style="fill:#1f77b4;"/>
   </g>
   <g id="patch_192">
    <path clip-path="url(#p5106e08046)" d="M 913.31502 768.96 
L 915.3 768.96 
L 915.3 196.629195 
L 913.31502 196.629195 
z
" style="fill:#1f77b4;"/>
   </g>
   <g id="patch_193">
    <path clip-path="url(#p5106e08046)" d="M 917.28498 768.96 
L 919.26996 768.96 
L 919.26996 195.727237 
L 917.28498 195.727237 
z
" style="fill:#1f77b4;"/>
   </g>
   <g id="patch_194">
    <path clip-path="url(#p5106e08046)" d="M 921.254941 768.96 
L 923.239921 768.96 
L 923.239921 194.871097 
L 921.254941 194.871097 
z
" style="fill:#1f77b4;"/>
   </g>
   <g id="patch_195">
    <path clip-path="url(#p5106e08046)" d="M 925.224901 768.96 
L 927.209881 768.96 
L 927.209881 194.022642 
L 925.224901 194.022642 
z
" style="fill:#1f77b4;"/>
   </g>
   <g id="patch_196">
    <path clip-path="url(#p5106e08046)" d="M 929.194862 768.96 
L 931.179842 768.96 
L 931.179842 193.171895 
L 929.194862 193.171895 
z
" style="fill:#1f77b4;"/>
   </g>
   <g id="patch_197">
    <path clip-path="url(#p5106e08046)" d="M 933.164822 768.96 
L 935.149802 768.96 
L 935.149802 192.47257 
L 933.164822 192.47257 
z
" style="fill:#1f77b4;"/>
   </g>
   <g id="patch_198">
    <path clip-path="url(#p5106e08046)" d="M 937.134783 768.96 
L 939.119763 768.96 
L 939.119763 191.997791 
L 937.134783 191.997791 
z
" style="fill:#1f77b4;"/>
   </g>
   <g id="patch_199">
    <path clip-path="url(#p5106e08046)" d="M 941.104743 768.96 
L 943.089723 768.96 
L 943.089723 191.276683 
L 941.104743 191.276683 
z
" style="fill:#1f77b4;"/>
   </g>
   <g id="patch_200">
    <path clip-path="url(#p5106e08046)" d="M 945.074704 768.96 
L 947.059684 768.96 
L 947.059684 190.309374 
L 945.074704 190.309374 
z
" style="fill:#1f77b4;"/>
   </g>
   <g id="patch_201">
    <path clip-path="url(#p5106e08046)" d="M 949.044664 768.96 
L 951.029644 768.96 
L 951.029644 189.403977 
L 949.044664 189.403977 
z
" style="fill:#1f77b4;"/>
   </g>
   <g id="patch_202">
    <path clip-path="url(#p5106e08046)" d="M 953.014625 768.96 
L 954.999605 768.96 
L 954.999605 188.743167 
L 953.014625 188.743167 
z
" style="fill:#1f77b4;"/>
   </g>
   <g id="patch_203">
    <path clip-path="url(#p5106e08046)" d="M 956.984585 768.96 
L 958.969565 768.96 
L 958.969565 188.056454 
L 956.984585 188.056454 
z
" style="fill:#1f77b4;"/>
   </g>
   <g id="patch_204">
    <path clip-path="url(#p5106e08046)" d="M 960.954545 768.96 
L 962.939526 768.96 
L 962.939526 187.640443 
L 960.954545 187.640443 
z
" style="fill:#1f77b4;"/>
   </g>
   <g id="patch_205">
    <path clip-path="url(#p5106e08046)" d="M 964.924506 768.96 
L 966.909486 768.96 
L 966.909486 187.400102 
L 964.924506 187.400102 
z
" style="fill:#1f77b4;"/>
   </g>
   <g id="patch_206">
    <path clip-path="url(#p5106e08046)" d="M 968.894466 768.96 
L 970.879447 768.96 
L 970.879447 186.98286 
L 968.894466 186.98286 
z
" style="fill:#1f77b4;"/>
   </g>
   <g id="patch_207">
    <path clip-path="url(#p5106e08046)" d="M 972.864427 768.96 
L 974.849407 768.96 
L 974.849407 186.061539 
L 972.864427 186.061539 
z
" style="fill:#1f77b4;"/>
   </g>
   <g id="patch_208">
    <path clip-path="url(#p5106e08046)" d="M 976.834387 768.96 
L 978.819368 768.96 
L 978.819368 184.537837 
L 976.834387 184.537837 
z
" style="fill:#1f77b4;"/>
   </g>
   <g id="patch_209">
    <path clip-path="url(#p5106e08046)" d="M 980.804348 768.96 
L 982.789328 768.96 
L 982.789328 183.72089 
L 980.804348 183.72089 
z
" style="fill:#1f77b4;"/>
   </g>
   <g id="patch_210">
    <path clip-path="url(#p5106e08046)" d="M 984.774308 768.96 
L 986.759289 768.96 
L 986.759289 181.727971 
L 984.774308 181.727971 
z
" style="fill:#1f77b4;"/>
   </g>
   <g id="patch_211">
    <path clip-path="url(#p5106e08046)" d="M 988.744269 768.96 
L 990.729249 768.96 
L 990.729249 181.104995 
L 988.744269 181.104995 
z
" style="fill:#1f77b4;"/>
   </g>
   <g id="patch_212">
    <path clip-path="url(#p5106e08046)" d="M 992.714229 768.96 
L 994.699209 768.96 
L 994.699209 180.650937 
L 992.714229 180.650937 
z
" style="fill:#1f77b4;"/>
   </g>
   <g id="patch_213">
    <path clip-path="url(#p5106e08046)" d="M 996.68419 768.96 
L 998.66917 768.96 
L 998.66917 180.025414 
L 996.68419 180.025414 
z
" style="fill:#1f77b4;"/>
   </g>
   <g id="patch_214">
    <path clip-path="url(#p5106e08046)" d="M 1000.65415 768.96 
L 1002.63913 768.96 
L 1002.63913 179.172671 
L 1000.65415 179.172671 
z
" style="fill:#1f77b4;"/>
   </g>
   <g id="patch_215">
    <path clip-path="url(#p5106e08046)" d="M 1004.624111 768.96 
L 1006.609091 768.96 
L 1006.609091 178.392327 
L 1004.624111 178.392327 
z
" style="fill:#1f77b4;"/>
   </g>
   <g id="patch_216">
    <path clip-path="url(#p5106e08046)" d="M 1008.594071 768.96 
L 1010.579051 768.96 
L 1010.579051 177.57279 
L 1008.594071 177.57279 
z
" style="fill:#1f77b4;"/>
   </g>
   <g id="patch_217">
    <path clip-path="url(#p5106e08046)" d="M 1012.564032 768.96 
L 1014.549012 768.96 
L 1014.549012 176.672785 
L 1012.564032 176.672785 
z
" style="fill:#1f77b4;"/>
   </g>
   <g id="patch_218">
    <path clip-path="url(#p5106e08046)" d="M 1016.533992 768.96 
L 1018.518972 768.96 
L 1018.518972 175.082416 
L 1016.533992 175.082416 
z
" style="fill:#1f77b4;"/>
   </g>
   <g id="patch_219">
    <path clip-path="url(#p5106e08046)" d="M 1020.503953 768.96 
L 1022.488933 768.96 
L 1022.488933 174.563729 
L 1020.503953 174.563729 
z
" style="fill:#1f77b4;"/>
   </g>
   <g id="patch_220">
    <path clip-path="url(#p5106e08046)" d="M 1024.473913 768.96 
L 1026.458893 768.96 
L 1026.458893 173.957187 
L 1024.473913 173.957187 
z
" style="fill:#1f77b4;"/>
   </g>
   <g id="patch_221">
    <path clip-path="url(#p5106e08046)" d="M 1028.443874 768.96 
L 1030.428854 768.96 
L 1030.428854 173.363001 
L 1028.443874 173.363001 
z
" style="fill:#1f77b4;"/>
   </g>
   <g id="patch_222">
    <path clip-path="url(#p5106e08046)" d="M 1032.413834 768.96 
L 1034.398814 768.96 
L 1034.398814 170.980059 
L 1032.413834 170.980059 
z
" style="fill:#1f77b4;"/>
   </g>
   <g id="patch_223">
    <path clip-path="url(#p5106e08046)" d="M 1036.383794 768.96 
L 1038.368775 768.96 
L 1038.368775 168.911938 
L 1036.383794 168.911938 
z
" style="fill:#1f77b4;"/>
   </g>
   <g id="patch_224">
    <path clip-path="url(#p5106e08046)" d="M 1040.353755 768.96 
L 1042.338735 768.96 
L 1042.338735 167.265305 
L 1040.353755 167.265305 
z
" style="fill:#1f77b4;"/>
   </g>
   <g id="patch_225">
    <path clip-path="url(#p5106e08046)" d="M 1044.323715 768.96 
L 1046.308696 768.96 
L 1046.308696 164.879305 
L 1044.323715 164.879305 
z
" style="fill:#1f77b4;"/>
   </g>
   <g id="patch_226">
    <path clip-path="url(#p5106e08046)" d="M 1048.293676 768.96 
L 1050.278656 768.96 
L 1050.278656 163.265581 
L 1048.293676 163.265581 
z
" style="fill:#1f77b4;"/>
   </g>
   <g id="patch_227">
    <path clip-path="url(#p5106e08046)" d="M 1052.263636 768.96 
L 1054.248617 768.96 
L 1054.248617 162.54804 
L 1052.263636 162.54804 
z
" style="fill:#1f77b4;"/>
   </g>
   <g id="patch_228">
    <path clip-path="url(#p5106e08046)" d="M 1056.233597 768.96 
L 1058.218577 768.96 
L 1058.218577 161.51933 
L 1056.233597 161.51933 
z
" style="fill:#1f77b4;"/>
   </g>
   <g id="patch_229">
    <path clip-path="url(#p5106e08046)" d="M 1060.203557 768.96 
L 1062.188538 768.96 
L 1062.188538 160.547053 
L 1060.203557 160.547053 
z
" style="fill:#1f77b4;"/>
   </g>
   <g id="patch_230">
    <path clip-path="url(#p5106e08046)" d="M 1064.173518 768.96 
L 1066.158498 768.96 
L 1066.158498 159.610488 
L 1064.173518 159.610488 
z
" style="fill:#1f77b4;"/>
   </g>
   <g id="patch_231">
    <path clip-path="url(#p5106e08046)" d="M 1068.143478 768.96 
L 1070.128458 768.96 
L 1070.128458 158.704963 
L 1068.143478 158.704963 
z
" style="fill:#1f77b4;"/>
   </g>
   <g id="patch_232">
    <path clip-path="url(#p5106e08046)" d="M 1072.113439 768.96 
L 1074.098419 768.96 
L 1074.098419 157.817655 
L 1072.113439 157.817655 
z
" style="fill:#1f77b4;"/>
   </g>
   <g id="patch_233">
    <path clip-path="url(#p5106e08046)" d="M 1076.083399 768.96 
L 1078.068379 768.96 
L 1078.068379 157.232641 
L 1076.083399 157.232641 
z
" style="fill:#1f77b4;"/>
   </g>
   <g id="patch_234">
    <path clip-path="url(#p5106e08046)" d="M 1080.05336 768.96 
L 1082.03834 768.96 
L 1082.03834 156.480025 
L 1080.05336 156.480025 
z
" style="fill:#1f77b4;"/>
   </g>
   <g id="patch_235">
    <path clip-path="url(#p5106e08046)" d="M 1084.02332 768.96 
L 1086.0083 768.96 
L 1086.0083 155.437897 
L 1084.02332 155.437897 
z
" style="fill:#1f77b4;"/>
   </g>
   <g id="patch_236">
    <path clip-path="url(#p5106e08046)" d="M 1087.993281 768.96 
L 1089.978261 768.96 
L 1089.978261 154.441543 
L 1087.993281 154.441543 
z
" style="fill:#1f77b4;"/>
   </g>
   <g id="patch_237">
    <path clip-path="url(#p5106e08046)" d="M 1091.963241 768.96 
L 1093.948221 768.96 
L 1093.948221 153.334489 
L 1091.963241 153.334489 
z
" style="fill:#1f77b4;"/>
   </g>
   <g id="patch_238">
    <path clip-path="url(#p5106e08046)" d="M 1095.933202 768.96 
L 1097.918182 768.96 
L 1097.918182 152.085225 
L 1095.933202 152.085225 
z
" style="fill:#1f77b4;"/>
   </g>
   <g id="patch_239">
    <path clip-path="url(#p5106e08046)" d="M 1099.903162 768.96 
L 1101.888142 768.96 
L 1101.888142 150.268103 
L 1099.903162 150.268103 
z
" style="fill:#1f77b4;"/>
   </g>
   <g id="patch_240">
    <path clip-path="url(#p5106e08046)" d="M 1103.873123 768.96 
L 1105.858103 768.96 
L 1105.858103 147.392335 
L 1103.873123 147.392335 
z
" style="fill:#1f77b4;"/>
   </g>
   <g id="patch_241">
    <path clip-path="url(#p5106e08046)" d="M 1107.843083 768.96 
L 1109.828063 768.96 
L 1109.828063 146.134324 
L 1107.843083 146.134324 
z
" style="fill:#1f77b4;"/>
   </g>
   <g id="patch_242">
    <path clip-path="url(#p5106e08046)" d="M 1111.813043 768.96 
L 1113.798024 768.96 
L 1113.798024 145.088458 
L 1111.813043 145.088458 
z
" style="fill:#1f77b4;"/>
   </g>
   <g id="patch_243">
    <path clip-path="url(#p5106e08046)" d="M 1115.783004 768.96 
L 1117.767984 768.96 
L 1117.767984 144.116436 
L 1115.783004 144.116436 
z
" style="fill:#1f77b4;"/>
   </g>
   <g id="patch_244">
    <path clip-path="url(#p5106e08046)" d="M 1119.752964 768.96 
L 1121.737945 768.96 
L 1121.737945 143.208067 
L 1119.752964 143.208067 
z
" style="fill:#1f77b4;"/>
   </g>
   <g id="patch_245">
    <path clip-path="url(#p5106e08046)" d="M 1123.722925 768.96 
L 1125.707905 768.96 
L 1125.707905 142.30165 
L 1123.722925 142.30165 
z
" style="fill:#1f77b4;"/>
   </g>
   <g id="patch_246">
    <path clip-path="url(#p5106e08046)" d="M 1127.692885 768.96 
L 1129.677866 768.96 
L 1129.677866 141.497527 
L 1127.692885 141.497527 
z
" style="fill:#1f77b4;"/>
   </g>
   <g id="patch_247">
    <path clip-path="url(#p5106e08046)" d="M 1131.662846 768.96 
L 1133.647826 768.96 
L 1133.647826 140.956123 
L 1131.662846 140.956123 
z
" style="fill:#1f77b4;"/>
   </g>
   <g id="patch_248">
    <path clip-path="url(#p5106e08046)" d="M 1135.632806 768.96 
L 1137.617787 768.96 
L 1137.617787 140.573573 
L 1135.632806 140.573573 
z
" style="fill:#1f77b4;"/>
   </g>
   <g id="patch_249">
    <path clip-path="url(#p5106e08046)" d="M 1139.602767 768.96 
L 1141.587747 768.96 
L 1141.587747 140.068984 
L 1139.602767 140.068984 
z
" style="fill:#1f77b4;"/>
   </g>
   <g id="patch_250">
    <path clip-path="url(#p5106e08046)" d="M 1143.572727 768.96 
L 1145.557708 768.96 
L 1145.557708 139.05675 
L 1143.572727 139.05675 
z
" style="fill:#1f77b4;"/>
   </g>
   <g id="patch_251">
    <path clip-path="url(#p5106e08046)" d="M 1147.542688 768.96 
L 1149.527668 768.96 
L 1149.527668 138.151607 
L 1147.542688 138.151607 
z
" style="fill:#1f77b4;"/>
   </g>
   <g id="patch_252">
    <path clip-path="url(#p5106e08046)" d="M 1151.512648 768.96 
L 1153.497628 768.96 
L 1153.497628 137.294278 
L 1151.512648 137.294278 
z
" style="fill:#1f77b4;"/>
   </g>
   <g id="patch_253">
    <path clip-path="url(#p5106e08046)" d="M 1155.482609 768.96 
L 1157.467589 768.96 
L 1157.467589 136.551259 
L 1155.482609 136.551259 
z
" style="fill:#1f77b4;"/>
   </g>
   <g id="patch_254">
    <path clip-path="url(#p5106e08046)" d="M 1159.452569 768.96 
L 1161.437549 768.96 
L 1161.437549 136.005014 
L 1159.452569 136.005014 
z
" style="fill:#1f77b4;"/>
   </g>
   <g id="patch_255">
    <path clip-path="url(#p5106e08046)" d="M 1163.42253 768.96 
L 1165.40751 768.96 
L 1165.40751 135.36 
L 1163.42253 135.36 
z
" style="fill:#1f77b4;"/>
   </g>
   <g id="matplotlib.axis_1">
    <g id="xtick_1">
     <g id="line2d_1">
      <defs>
       <path d="M 0 0 
L 0 3.5 
" id="mdd448fc118" style="stroke:#000000;stroke-width:0.8;"/>
      </defs>
      <g>
       <use style="stroke:#000000;stroke-width:0.8;" x="163.98498" xlink:href="#mdd448fc118" y="768.96"/>
      </g>
     </g>
     <g id="text_1">
      <!-- January -->
      <g transform="translate(145.029511 783.558437)scale(0.1 -0.1)">
       <defs>
        <path d="M 628 4666 
L 1259 4666 
L 1259 325 
Q 1259 -519 939 -900 
Q 619 -1281 -91 -1281 
L -331 -1281 
L -331 -750 
L -134 -750 
Q 284 -750 456 -515 
Q 628 -281 628 325 
L 628 4666 
z
" id="DejaVuSans-4a" transform="scale(0.015625)"/>
        <path d="M 2194 1759 
Q 1497 1759 1228 1600 
Q 959 1441 959 1056 
Q 959 750 1161 570 
Q 1363 391 1709 391 
Q 2188 391 2477 730 
Q 2766 1069 2766 1631 
L 2766 1759 
L 2194 1759 
z
M 3341 1997 
L 3341 0 
L 2766 0 
L 2766 531 
Q 2569 213 2275 61 
Q 1981 -91 1556 -91 
Q 1019 -91 701 211 
Q 384 513 384 1019 
Q 384 1609 779 1909 
Q 1175 2209 1959 2209 
L 2766 2209 
L 2766 2266 
Q 2766 2663 2505 2880 
Q 2244 3097 1772 3097 
Q 1472 3097 1187 3025 
Q 903 2953 641 2809 
L 641 3341 
Q 956 3463 1253 3523 
Q 1550 3584 1831 3584 
Q 2591 3584 2966 3190 
Q 3341 2797 3341 1997 
z
" id="DejaVuSans-61" transform="scale(0.015625)"/>
        <path d="M 3513 2113 
L 3513 0 
L 2938 0 
L 2938 2094 
Q 2938 2591 2744 2837 
Q 2550 3084 2163 3084 
Q 1697 3084 1428 2787 
Q 1159 2491 1159 1978 
L 1159 0 
L 581 0 
L 581 3500 
L 1159 3500 
L 1159 2956 
Q 1366 3272 1645 3428 
Q 1925 3584 2291 3584 
Q 2894 3584 3203 3211 
Q 3513 2838 3513 2113 
z
" id="DejaVuSans-6e" transform="scale(0.015625)"/>
        <path d="M 544 1381 
L 544 3500 
L 1119 3500 
L 1119 1403 
Q 1119 906 1312 657 
Q 1506 409 1894 409 
Q 2359 409 2629 706 
Q 2900 1003 2900 1516 
L 2900 3500 
L 3475 3500 
L 3475 0 
L 2900 0 
L 2900 538 
Q 2691 219 2414 64 
Q 2138 -91 1772 -91 
Q 1169 -91 856 284 
Q 544 659 544 1381 
z
M 1991 3584 
L 1991 3584 
z
" id="DejaVuSans-75" transform="scale(0.015625)"/>
        <path d="M 2631 2963 
Q 2534 3019 2420 3045 
Q 2306 3072 2169 3072 
Q 1681 3072 1420 2755 
Q 1159 2438 1159 1844 
L 1159 0 
L 581 0 
L 581 3500 
L 1159 3500 
L 1159 2956 
Q 1341 3275 1631 3429 
Q 1922 3584 2338 3584 
Q 2397 3584 2469 3576 
Q 2541 3569 2628 3553 
L 2631 2963 
z
" id="DejaVuSans-72" transform="scale(0.015625)"/>
        <path d="M 2059 -325 
Q 1816 -950 1584 -1140 
Q 1353 -1331 966 -1331 
L 506 -1331 
L 506 -850 
L 844 -850 
Q 1081 -850 1212 -737 
Q 1344 -625 1503 -206 
L 1606 56 
L 191 3500 
L 800 3500 
L 1894 763 
L 2988 3500 
L 3597 3500 
L 2059 -325 
z
" id="DejaVuSans-79" transform="scale(0.015625)"/>
       </defs>
       <use xlink:href="#DejaVuSans-4a"/>
       <use x="29.492188" xlink:href="#DejaVuSans-61"/>
       <use x="90.771484" xlink:href="#DejaVuSans-6e"/>
       <use x="154.150391" xlink:href="#DejaVuSans-75"/>
       <use x="217.529297" xlink:href="#DejaVuSans-61"/>
       <use x="278.808594" xlink:href="#DejaVuSans-72"/>
       <use x="319.921875" xlink:href="#DejaVuSans-79"/>
      </g>
     </g>
    </g>
    <g id="xtick_2">
     <g id="line2d_2">
      <g>
       <use style="stroke:#000000;stroke-width:0.8;" x="287.053755" xlink:href="#mdd448fc118" y="768.96"/>
      </g>
     </g>
     <g id="text_2">
      <!-- February -->
      <g transform="translate(264.899067 783.558437)scale(0.1 -0.1)">
       <defs>
        <path d="M 628 4666 
L 3309 4666 
L 3309 4134 
L 1259 4134 
L 1259 2759 
L 3109 2759 
L 3109 2228 
L 1259 2228 
L 1259 0 
L 628 0 
L 628 4666 
z
" id="DejaVuSans-46" transform="scale(0.015625)"/>
        <path d="M 3597 1894 
L 3597 1613 
L 953 1613 
Q 991 1019 1311 708 
Q 1631 397 2203 397 
Q 2534 397 2845 478 
Q 3156 559 3463 722 
L 3463 178 
Q 3153 47 2828 -22 
Q 2503 -91 2169 -91 
Q 1331 -91 842 396 
Q 353 884 353 1716 
Q 353 2575 817 3079 
Q 1281 3584 2069 3584 
Q 2775 3584 3186 3129 
Q 3597 2675 3597 1894 
z
M 3022 2063 
Q 3016 2534 2758 2815 
Q 2500 3097 2075 3097 
Q 1594 3097 1305 2825 
Q 1016 2553 972 2059 
L 3022 2063 
z
" id="DejaVuSans-65" transform="scale(0.015625)"/>
        <path d="M 3116 1747 
Q 3116 2381 2855 2742 
Q 2594 3103 2138 3103 
Q 1681 3103 1420 2742 
Q 1159 2381 1159 1747 
Q 1159 1113 1420 752 
Q 1681 391 2138 391 
Q 2594 391 2855 752 
Q 3116 1113 3116 1747 
z
M 1159 2969 
Q 1341 3281 1617 3432 
Q 1894 3584 2278 3584 
Q 2916 3584 3314 3078 
Q 3713 2572 3713 1747 
Q 3713 922 3314 415 
Q 2916 -91 2278 -91 
Q 1894 -91 1617 61 
Q 1341 213 1159 525 
L 1159 0 
L 581 0 
L 581 4863 
L 1159 4863 
L 1159 2969 
z
" id="DejaVuSans-62" transform="scale(0.015625)"/>
       </defs>
       <use xlink:href="#DejaVuSans-46"/>
       <use x="52.019531" xlink:href="#DejaVuSans-65"/>
       <use x="113.542969" xlink:href="#DejaVuSans-62"/>
       <use x="177.019531" xlink:href="#DejaVuSans-72"/>
       <use x="218.132812" xlink:href="#DejaVuSans-75"/>
       <use x="281.511719" xlink:href="#DejaVuSans-61"/>
       <use x="342.791016" xlink:href="#DejaVuSans-72"/>
       <use x="383.904297" xlink:href="#DejaVuSans-79"/>
      </g>
     </g>
    </g>
    <g id="xtick_3">
     <g id="line2d_3">
      <g>
       <use style="stroke:#000000;stroke-width:0.8;" x="398.212648" xlink:href="#mdd448fc118" y="768.96"/>
      </g>
     </g>
     <g id="text_3">
      <!-- March -->
      <g transform="translate(382.973586 783.558437)scale(0.1 -0.1)">
       <defs>
        <path d="M 628 4666 
L 1569 4666 
L 2759 1491 
L 3956 4666 
L 4897 4666 
L 4897 0 
L 4281 0 
L 4281 4097 
L 3078 897 
L 2444 897 
L 1241 4097 
L 1241 0 
L 628 0 
L 628 4666 
z
" id="DejaVuSans-4d" transform="scale(0.015625)"/>
        <path d="M 3122 3366 
L 3122 2828 
Q 2878 2963 2633 3030 
Q 2388 3097 2138 3097 
Q 1578 3097 1268 2742 
Q 959 2388 959 1747 
Q 959 1106 1268 751 
Q 1578 397 2138 397 
Q 2388 397 2633 464 
Q 2878 531 3122 666 
L 3122 134 
Q 2881 22 2623 -34 
Q 2366 -91 2075 -91 
Q 1284 -91 818 406 
Q 353 903 353 1747 
Q 353 2603 823 3093 
Q 1294 3584 2113 3584 
Q 2378 3584 2631 3529 
Q 2884 3475 3122 3366 
z
" id="DejaVuSans-63" transform="scale(0.015625)"/>
        <path d="M 3513 2113 
L 3513 0 
L 2938 0 
L 2938 2094 
Q 2938 2591 2744 2837 
Q 2550 3084 2163 3084 
Q 1697 3084 1428 2787 
Q 1159 2491 1159 1978 
L 1159 0 
L 581 0 
L 581 4863 
L 1159 4863 
L 1159 2956 
Q 1366 3272 1645 3428 
Q 1925 3584 2291 3584 
Q 2894 3584 3203 3211 
Q 3513 2838 3513 2113 
z
" id="DejaVuSans-68" transform="scale(0.015625)"/>
       </defs>
       <use xlink:href="#DejaVuSans-4d"/>
       <use x="86.279297" xlink:href="#DejaVuSans-61"/>
       <use x="147.558594" xlink:href="#DejaVuSans-72"/>
       <use x="186.421875" xlink:href="#DejaVuSans-63"/>
       <use x="241.402344" xlink:href="#DejaVuSans-68"/>
      </g>
     </g>
    </g>
    <g id="xtick_4">
     <g id="line2d_4">
      <g>
       <use style="stroke:#000000;stroke-width:0.8;" x="521.281423" xlink:href="#mdd448fc118" y="768.96"/>
      </g>
     </g>
     <g id="text_4">
      <!-- April -->
      <g transform="translate(509.853298 783.558437)scale(0.1 -0.1)">
       <defs>
        <path d="M 2188 4044 
L 1331 1722 
L 3047 1722 
L 2188 4044 
z
M 1831 4666 
L 2547 4666 
L 4325 0 
L 3669 0 
L 3244 1197 
L 1141 1197 
L 716 0 
L 50 0 
L 1831 4666 
z
" id="DejaVuSans-41" transform="scale(0.015625)"/>
        <path d="M 1159 525 
L 1159 -1331 
L 581 -1331 
L 581 3500 
L 1159 3500 
L 1159 2969 
Q 1341 3281 1617 3432 
Q 1894 3584 2278 3584 
Q 2916 3584 3314 3078 
Q 3713 2572 3713 1747 
Q 3713 922 3314 415 
Q 2916 -91 2278 -91 
Q 1894 -91 1617 61 
Q 1341 213 1159 525 
z
M 3116 1747 
Q 3116 2381 2855 2742 
Q 2594 3103 2138 3103 
Q 1681 3103 1420 2742 
Q 1159 2381 1159 1747 
Q 1159 1113 1420 752 
Q 1681 391 2138 391 
Q 2594 391 2855 752 
Q 3116 1113 3116 1747 
z
" id="DejaVuSans-70" transform="scale(0.015625)"/>
        <path d="M 603 3500 
L 1178 3500 
L 1178 0 
L 603 0 
L 603 3500 
z
M 603 4863 
L 1178 4863 
L 1178 4134 
L 603 4134 
L 603 4863 
z
" id="DejaVuSans-69" transform="scale(0.015625)"/>
        <path d="M 603 4863 
L 1178 4863 
L 1178 0 
L 603 0 
L 603 4863 
z
" id="DejaVuSans-6c" transform="scale(0.015625)"/>
       </defs>
       <use xlink:href="#DejaVuSans-41"/>
       <use x="68.408203" xlink:href="#DejaVuSans-70"/>
       <use x="131.884766" xlink:href="#DejaVuSans-72"/>
       <use x="172.998047" xlink:href="#DejaVuSans-69"/>
       <use x="200.78125" xlink:href="#DejaVuSans-6c"/>
      </g>
     </g>
    </g>
    <g id="xtick_5">
     <g id="line2d_5">
      <g>
       <use style="stroke:#000000;stroke-width:0.8;" x="640.380237" xlink:href="#mdd448fc118" y="768.96"/>
      </g>
     </g>
     <g id="text_5">
      <!-- May -->
      <g transform="translate(630.042737 783.558437)scale(0.1 -0.1)">
       <use xlink:href="#DejaVuSans-4d"/>
       <use x="86.279297" xlink:href="#DejaVuSans-61"/>
       <use x="147.558594" xlink:href="#DejaVuSans-79"/>
      </g>
     </g>
    </g>
    <g id="xtick_6">
     <g id="line2d_6">
      <g>
       <use style="stroke:#000000;stroke-width:0.8;" x="763.449012" xlink:href="#mdd448fc118" y="768.96"/>
      </g>
     </g>
     <g id="text_6">
      <!-- June -->
      <g transform="translate(752.559949 783.558437)scale(0.1 -0.1)">
       <use xlink:href="#DejaVuSans-4a"/>
       <use x="29.492188" xlink:href="#DejaVuSans-75"/>
       <use x="92.871094" xlink:href="#DejaVuSans-6e"/>
       <use x="156.25" xlink:href="#DejaVuSans-65"/>
      </g>
     </g>
    </g>
    <g id="xtick_7">
     <g id="line2d_7">
      <g>
       <use style="stroke:#000000;stroke-width:0.8;" x="882.547826" xlink:href="#mdd448fc118" y="768.96"/>
      </g>
     </g>
     <g id="text_7">
      <!-- July -->
      <g transform="translate(873.555639 783.558437)scale(0.1 -0.1)">
       <use xlink:href="#DejaVuSans-4a"/>
       <use x="29.492188" xlink:href="#DejaVuSans-75"/>
       <use x="92.871094" xlink:href="#DejaVuSans-6c"/>
       <use x="120.654297" xlink:href="#DejaVuSans-79"/>
      </g>
     </g>
    </g>
    <g id="xtick_8">
     <g id="line2d_8">
      <g>
       <use style="stroke:#000000;stroke-width:0.8;" x="1005.616601" xlink:href="#mdd448fc118" y="768.96"/>
      </g>
     </g>
     <g id="text_8">
      <!-- August -->
      <g transform="translate(988.119726 783.558437)scale(0.1 -0.1)">
       <defs>
        <path d="M 2906 1791 
Q 2906 2416 2648 2759 
Q 2391 3103 1925 3103 
Q 1463 3103 1205 2759 
Q 947 2416 947 1791 
Q 947 1169 1205 825 
Q 1463 481 1925 481 
Q 2391 481 2648 825 
Q 2906 1169 2906 1791 
z
M 3481 434 
Q 3481 -459 3084 -895 
Q 2688 -1331 1869 -1331 
Q 1566 -1331 1297 -1286 
Q 1028 -1241 775 -1147 
L 775 -588 
Q 1028 -725 1275 -790 
Q 1522 -856 1778 -856 
Q 2344 -856 2625 -561 
Q 2906 -266 2906 331 
L 2906 616 
Q 2728 306 2450 153 
Q 2172 0 1784 0 
Q 1141 0 747 490 
Q 353 981 353 1791 
Q 353 2603 747 3093 
Q 1141 3584 1784 3584 
Q 2172 3584 2450 3431 
Q 2728 3278 2906 2969 
L 2906 3500 
L 3481 3500 
L 3481 434 
z
" id="DejaVuSans-67" transform="scale(0.015625)"/>
        <path d="M 2834 3397 
L 2834 2853 
Q 2591 2978 2328 3040 
Q 2066 3103 1784 3103 
Q 1356 3103 1142 2972 
Q 928 2841 928 2578 
Q 928 2378 1081 2264 
Q 1234 2150 1697 2047 
L 1894 2003 
Q 2506 1872 2764 1633 
Q 3022 1394 3022 966 
Q 3022 478 2636 193 
Q 2250 -91 1575 -91 
Q 1294 -91 989 -36 
Q 684 19 347 128 
L 347 722 
Q 666 556 975 473 
Q 1284 391 1588 391 
Q 1994 391 2212 530 
Q 2431 669 2431 922 
Q 2431 1156 2273 1281 
Q 2116 1406 1581 1522 
L 1381 1569 
Q 847 1681 609 1914 
Q 372 2147 372 2553 
Q 372 3047 722 3315 
Q 1072 3584 1716 3584 
Q 2034 3584 2315 3537 
Q 2597 3491 2834 3397 
z
" id="DejaVuSans-73" transform="scale(0.015625)"/>
        <path d="M 1172 4494 
L 1172 3500 
L 2356 3500 
L 2356 3053 
L 1172 3053 
L 1172 1153 
Q 1172 725 1289 603 
Q 1406 481 1766 481 
L 2356 481 
L 2356 0 
L 1766 0 
Q 1100 0 847 248 
Q 594 497 594 1153 
L 594 3053 
L 172 3053 
L 172 3500 
L 594 3500 
L 594 4494 
L 1172 4494 
z
" id="DejaVuSans-74" transform="scale(0.015625)"/>
       </defs>
       <use xlink:href="#DejaVuSans-41"/>
       <use x="68.408203" xlink:href="#DejaVuSans-75"/>
       <use x="131.787109" xlink:href="#DejaVuSans-67"/>
       <use x="195.263672" xlink:href="#DejaVuSans-75"/>
       <use x="258.642578" xlink:href="#DejaVuSans-73"/>
       <use x="310.742188" xlink:href="#DejaVuSans-74"/>
      </g>
     </g>
    </g>
    <g id="xtick_9">
     <g id="line2d_9">
      <g>
       <use style="stroke:#000000;stroke-width:0.8;" x="1128.685375" xlink:href="#mdd448fc118" y="768.96"/>
      </g>
     </g>
     <g id="text_9">
      <!-- September -->
      <g transform="translate(1101.047094 783.558437)scale(0.1 -0.1)">
       <defs>
        <path d="M 3425 4513 
L 3425 3897 
Q 3066 4069 2747 4153 
Q 2428 4238 2131 4238 
Q 1616 4238 1336 4038 
Q 1056 3838 1056 3469 
Q 1056 3159 1242 3001 
Q 1428 2844 1947 2747 
L 2328 2669 
Q 3034 2534 3370 2195 
Q 3706 1856 3706 1288 
Q 3706 609 3251 259 
Q 2797 -91 1919 -91 
Q 1588 -91 1214 -16 
Q 841 59 441 206 
L 441 856 
Q 825 641 1194 531 
Q 1563 422 1919 422 
Q 2459 422 2753 634 
Q 3047 847 3047 1241 
Q 3047 1584 2836 1778 
Q 2625 1972 2144 2069 
L 1759 2144 
Q 1053 2284 737 2584 
Q 422 2884 422 3419 
Q 422 4038 858 4394 
Q 1294 4750 2059 4750 
Q 2388 4750 2728 4690 
Q 3069 4631 3425 4513 
z
" id="DejaVuSans-53" transform="scale(0.015625)"/>
        <path d="M 3328 2828 
Q 3544 3216 3844 3400 
Q 4144 3584 4550 3584 
Q 5097 3584 5394 3201 
Q 5691 2819 5691 2113 
L 5691 0 
L 5113 0 
L 5113 2094 
Q 5113 2597 4934 2840 
Q 4756 3084 4391 3084 
Q 3944 3084 3684 2787 
Q 3425 2491 3425 1978 
L 3425 0 
L 2847 0 
L 2847 2094 
Q 2847 2600 2669 2842 
Q 2491 3084 2119 3084 
Q 1678 3084 1418 2786 
Q 1159 2488 1159 1978 
L 1159 0 
L 581 0 
L 581 3500 
L 1159 3500 
L 1159 2956 
Q 1356 3278 1631 3431 
Q 1906 3584 2284 3584 
Q 2666 3584 2933 3390 
Q 3200 3197 3328 2828 
z
" id="DejaVuSans-6d" transform="scale(0.015625)"/>
       </defs>
       <use xlink:href="#DejaVuSans-53"/>
       <use x="63.476562" xlink:href="#DejaVuSans-65"/>
       <use x="125" xlink:href="#DejaVuSans-70"/>
       <use x="188.476562" xlink:href="#DejaVuSans-74"/>
       <use x="227.685547" xlink:href="#DejaVuSans-65"/>
       <use x="289.208984" xlink:href="#DejaVuSans-6d"/>
       <use x="386.621094" xlink:href="#DejaVuSans-62"/>
       <use x="450.097656" xlink:href="#DejaVuSans-65"/>
       <use x="511.621094" xlink:href="#DejaVuSans-72"/>
      </g>
     </g>
    </g>
   </g>
   <g id="matplotlib.axis_2">
    <g id="ytick_1">
     <g id="line2d_10">
      <defs>
       <path d="M 0 0 
L -3.5 0 
" id="mb0f7eb915d" style="stroke:#000000;stroke-width:0.8;"/>
      </defs>
      <g>
       <use style="stroke:#000000;stroke-width:0.8;" x="162" xlink:href="#mb0f7eb915d" y="768.96"/>
      </g>
     </g>
     <g id="text_10">
      <!-- 0.0 -->
      <g transform="translate(139.096875 772.759219)scale(0.1 -0.1)">
       <defs>
        <path d="M 2034 4250 
Q 1547 4250 1301 3770 
Q 1056 3291 1056 2328 
Q 1056 1369 1301 889 
Q 1547 409 2034 409 
Q 2525 409 2770 889 
Q 3016 1369 3016 2328 
Q 3016 3291 2770 3770 
Q 2525 4250 2034 4250 
z
M 2034 4750 
Q 2819 4750 3233 4129 
Q 3647 3509 3647 2328 
Q 3647 1150 3233 529 
Q 2819 -91 2034 -91 
Q 1250 -91 836 529 
Q 422 1150 422 2328 
Q 422 3509 836 4129 
Q 1250 4750 2034 4750 
z
" id="DejaVuSans-30" transform="scale(0.015625)"/>
        <path d="M 684 794 
L 1344 794 
L 1344 0 
L 684 0 
L 684 794 
z
" id="DejaVuSans-2e" transform="scale(0.015625)"/>
       </defs>
       <use xlink:href="#DejaVuSans-30"/>
       <use x="63.623047" xlink:href="#DejaVuSans-2e"/>
       <use x="95.410156" xlink:href="#DejaVuSans-30"/>
      </g>
     </g>
    </g>
    <g id="ytick_2">
     <g id="line2d_11">
      <g>
       <use style="stroke:#000000;stroke-width:0.8;" x="162" xlink:href="#mb0f7eb915d" y="684.033866"/>
      </g>
     </g>
     <g id="text_11">
      <!-- 0.2 -->
      <g transform="translate(139.096875 687.833085)scale(0.1 -0.1)">
       <defs>
        <path d="M 1228 531 
L 3431 531 
L 3431 0 
L 469 0 
L 469 531 
Q 828 903 1448 1529 
Q 2069 2156 2228 2338 
Q 2531 2678 2651 2914 
Q 2772 3150 2772 3378 
Q 2772 3750 2511 3984 
Q 2250 4219 1831 4219 
Q 1534 4219 1204 4116 
Q 875 4013 500 3803 
L 500 4441 
Q 881 4594 1212 4672 
Q 1544 4750 1819 4750 
Q 2544 4750 2975 4387 
Q 3406 4025 3406 3419 
Q 3406 3131 3298 2873 
Q 3191 2616 2906 2266 
Q 2828 2175 2409 1742 
Q 1991 1309 1228 531 
z
" id="DejaVuSans-32" transform="scale(0.015625)"/>
       </defs>
       <use xlink:href="#DejaVuSans-30"/>
       <use x="63.623047" xlink:href="#DejaVuSans-2e"/>
       <use x="95.410156" xlink:href="#DejaVuSans-32"/>
      </g>
     </g>
    </g>
    <g id="ytick_3">
     <g id="line2d_12">
      <g>
       <use style="stroke:#000000;stroke-width:0.8;" x="162" xlink:href="#mb0f7eb915d" y="599.107732"/>
      </g>
     </g>
     <g id="text_12">
      <!-- 0.4 -->
      <g transform="translate(139.096875 602.906951)scale(0.1 -0.1)">
       <defs>
        <path d="M 2419 4116 
L 825 1625 
L 2419 1625 
L 2419 4116 
z
M 2253 4666 
L 3047 4666 
L 3047 1625 
L 3713 1625 
L 3713 1100 
L 3047 1100 
L 3047 0 
L 2419 0 
L 2419 1100 
L 313 1100 
L 313 1709 
L 2253 4666 
z
" id="DejaVuSans-34" transform="scale(0.015625)"/>
       </defs>
       <use xlink:href="#DejaVuSans-30"/>
       <use x="63.623047" xlink:href="#DejaVuSans-2e"/>
       <use x="95.410156" xlink:href="#DejaVuSans-34"/>
      </g>
     </g>
    </g>
    <g id="ytick_4">
     <g id="line2d_13">
      <g>
       <use style="stroke:#000000;stroke-width:0.8;" x="162" xlink:href="#mb0f7eb915d" y="514.181598"/>
      </g>
     </g>
     <g id="text_13">
      <!-- 0.6 -->
      <g transform="translate(139.096875 517.980817)scale(0.1 -0.1)">
       <defs>
        <path d="M 2113 2584 
Q 1688 2584 1439 2293 
Q 1191 2003 1191 1497 
Q 1191 994 1439 701 
Q 1688 409 2113 409 
Q 2538 409 2786 701 
Q 3034 994 3034 1497 
Q 3034 2003 2786 2293 
Q 2538 2584 2113 2584 
z
M 3366 4563 
L 3366 3988 
Q 3128 4100 2886 4159 
Q 2644 4219 2406 4219 
Q 1781 4219 1451 3797 
Q 1122 3375 1075 2522 
Q 1259 2794 1537 2939 
Q 1816 3084 2150 3084 
Q 2853 3084 3261 2657 
Q 3669 2231 3669 1497 
Q 3669 778 3244 343 
Q 2819 -91 2113 -91 
Q 1303 -91 875 529 
Q 447 1150 447 2328 
Q 447 3434 972 4092 
Q 1497 4750 2381 4750 
Q 2619 4750 2861 4703 
Q 3103 4656 3366 4563 
z
" id="DejaVuSans-36" transform="scale(0.015625)"/>
       </defs>
       <use xlink:href="#DejaVuSans-30"/>
       <use x="63.623047" xlink:href="#DejaVuSans-2e"/>
       <use x="95.410156" xlink:href="#DejaVuSans-36"/>
      </g>
     </g>
    </g>
    <g id="ytick_5">
     <g id="line2d_14">
      <g>
       <use style="stroke:#000000;stroke-width:0.8;" x="162" xlink:href="#mb0f7eb915d" y="429.255464"/>
      </g>
     </g>
     <g id="text_14">
      <!-- 0.8 -->
      <g transform="translate(139.096875 433.054683)scale(0.1 -0.1)">
       <defs>
        <path d="M 2034 2216 
Q 1584 2216 1326 1975 
Q 1069 1734 1069 1313 
Q 1069 891 1326 650 
Q 1584 409 2034 409 
Q 2484 409 2743 651 
Q 3003 894 3003 1313 
Q 3003 1734 2745 1975 
Q 2488 2216 2034 2216 
z
M 1403 2484 
Q 997 2584 770 2862 
Q 544 3141 544 3541 
Q 544 4100 942 4425 
Q 1341 4750 2034 4750 
Q 2731 4750 3128 4425 
Q 3525 4100 3525 3541 
Q 3525 3141 3298 2862 
Q 3072 2584 2669 2484 
Q 3125 2378 3379 2068 
Q 3634 1759 3634 1313 
Q 3634 634 3220 271 
Q 2806 -91 2034 -91 
Q 1263 -91 848 271 
Q 434 634 434 1313 
Q 434 1759 690 2068 
Q 947 2378 1403 2484 
z
M 1172 3481 
Q 1172 3119 1398 2916 
Q 1625 2713 2034 2713 
Q 2441 2713 2670 2916 
Q 2900 3119 2900 3481 
Q 2900 3844 2670 4047 
Q 2441 4250 2034 4250 
Q 1625 4250 1398 4047 
Q 1172 3844 1172 3481 
z
" id="DejaVuSans-38" transform="scale(0.015625)"/>
       </defs>
       <use xlink:href="#DejaVuSans-30"/>
       <use x="63.623047" xlink:href="#DejaVuSans-2e"/>
       <use x="95.410156" xlink:href="#DejaVuSans-38"/>
      </g>
     </g>
    </g>
    <g id="ytick_6">
     <g id="line2d_15">
      <g>
       <use style="stroke:#000000;stroke-width:0.8;" x="162" xlink:href="#mb0f7eb915d" y="344.32933"/>
      </g>
     </g>
     <g id="text_15">
      <!-- 1.0 -->
      <g transform="translate(139.096875 348.128549)scale(0.1 -0.1)">
       <defs>
        <path d="M 794 531 
L 1825 531 
L 1825 4091 
L 703 3866 
L 703 4441 
L 1819 4666 
L 2450 4666 
L 2450 531 
L 3481 531 
L 3481 0 
L 794 0 
L 794 531 
z
" id="DejaVuSans-31" transform="scale(0.015625)"/>
       </defs>
       <use xlink:href="#DejaVuSans-31"/>
       <use x="63.623047" xlink:href="#DejaVuSans-2e"/>
       <use x="95.410156" xlink:href="#DejaVuSans-30"/>
      </g>
     </g>
    </g>
    <g id="ytick_7">
     <g id="line2d_16">
      <g>
       <use style="stroke:#000000;stroke-width:0.8;" x="162" xlink:href="#mb0f7eb915d" y="259.403196"/>
      </g>
     </g>
     <g id="text_16">
      <!-- 1.2 -->
      <g transform="translate(139.096875 263.202415)scale(0.1 -0.1)">
       <use xlink:href="#DejaVuSans-31"/>
       <use x="63.623047" xlink:href="#DejaVuSans-2e"/>
       <use x="95.410156" xlink:href="#DejaVuSans-32"/>
      </g>
     </g>
    </g>
    <g id="ytick_8">
     <g id="line2d_17">
      <g>
       <use style="stroke:#000000;stroke-width:0.8;" x="162" xlink:href="#mb0f7eb915d" y="174.477062"/>
      </g>
     </g>
     <g id="text_17">
      <!-- 1.4 -->
      <g transform="translate(139.096875 178.276281)scale(0.1 -0.1)">
       <use xlink:href="#DejaVuSans-31"/>
       <use x="63.623047" xlink:href="#DejaVuSans-2e"/>
       <use x="95.410156" xlink:href="#DejaVuSans-34"/>
      </g>
     </g>
    </g>
    <g id="text_18">
     <!-- Persons fully vaccinated (tens of millions) -->
     <g transform="translate(133.017188 540.480156)rotate(-90)scale(0.1 -0.1)">
      <defs>
       <path d="M 1259 4147 
L 1259 2394 
L 2053 2394 
Q 2494 2394 2734 2622 
Q 2975 2850 2975 3272 
Q 2975 3691 2734 3919 
Q 2494 4147 2053 4147 
L 1259 4147 
z
M 628 4666 
L 2053 4666 
Q 2838 4666 3239 4311 
Q 3641 3956 3641 3272 
Q 3641 2581 3239 2228 
Q 2838 1875 2053 1875 
L 1259 1875 
L 1259 0 
L 628 0 
L 628 4666 
z
" id="DejaVuSans-50" transform="scale(0.015625)"/>
       <path d="M 1959 3097 
Q 1497 3097 1228 2736 
Q 959 2375 959 1747 
Q 959 1119 1226 758 
Q 1494 397 1959 397 
Q 2419 397 2687 759 
Q 2956 1122 2956 1747 
Q 2956 2369 2687 2733 
Q 2419 3097 1959 3097 
z
M 1959 3584 
Q 2709 3584 3137 3096 
Q 3566 2609 3566 1747 
Q 3566 888 3137 398 
Q 2709 -91 1959 -91 
Q 1206 -91 779 398 
Q 353 888 353 1747 
Q 353 2609 779 3096 
Q 1206 3584 1959 3584 
z
" id="DejaVuSans-6f" transform="scale(0.015625)"/>
       <path id="DejaVuSans-20" transform="scale(0.015625)"/>
       <path d="M 2375 4863 
L 2375 4384 
L 1825 4384 
Q 1516 4384 1395 4259 
Q 1275 4134 1275 3809 
L 1275 3500 
L 2222 3500 
L 2222 3053 
L 1275 3053 
L 1275 0 
L 697 0 
L 697 3053 
L 147 3053 
L 147 3500 
L 697 3500 
L 697 3744 
Q 697 4328 969 4595 
Q 1241 4863 1831 4863 
L 2375 4863 
z
" id="DejaVuSans-66" transform="scale(0.015625)"/>
       <path d="M 191 3500 
L 800 3500 
L 1894 563 
L 2988 3500 
L 3597 3500 
L 2284 0 
L 1503 0 
L 191 3500 
z
" id="DejaVuSans-76" transform="scale(0.015625)"/>
       <path d="M 2906 2969 
L 2906 4863 
L 3481 4863 
L 3481 0 
L 2906 0 
L 2906 525 
Q 2725 213 2448 61 
Q 2172 -91 1784 -91 
Q 1150 -91 751 415 
Q 353 922 353 1747 
Q 353 2572 751 3078 
Q 1150 3584 1784 3584 
Q 2172 3584 2448 3432 
Q 2725 3281 2906 2969 
z
M 947 1747 
Q 947 1113 1208 752 
Q 1469 391 1925 391 
Q 2381 391 2643 752 
Q 2906 1113 2906 1747 
Q 2906 2381 2643 2742 
Q 2381 3103 1925 3103 
Q 1469 3103 1208 2742 
Q 947 2381 947 1747 
z
" id="DejaVuSans-64" transform="scale(0.015625)"/>
       <path d="M 1984 4856 
Q 1566 4138 1362 3434 
Q 1159 2731 1159 2009 
Q 1159 1288 1364 580 
Q 1569 -128 1984 -844 
L 1484 -844 
Q 1016 -109 783 600 
Q 550 1309 550 2009 
Q 550 2706 781 3412 
Q 1013 4119 1484 4856 
L 1984 4856 
z
" id="DejaVuSans-28" transform="scale(0.015625)"/>
       <path d="M 513 4856 
L 1013 4856 
Q 1481 4119 1714 3412 
Q 1947 2706 1947 2009 
Q 1947 1309 1714 600 
Q 1481 -109 1013 -844 
L 513 -844 
Q 928 -128 1133 580 
Q 1338 1288 1338 2009 
Q 1338 2731 1133 3434 
Q 928 4138 513 4856 
z
" id="DejaVuSans-29" transform="scale(0.015625)"/>
      </defs>
      <use xlink:href="#DejaVuSans-50"/>
      <use x="56.677734" xlink:href="#DejaVuSans-65"/>
      <use x="118.201172" xlink:href="#DejaVuSans-72"/>
      <use x="159.314453" xlink:href="#DejaVuSans-73"/>
      <use x="211.414062" xlink:href="#DejaVuSans-6f"/>
      <use x="272.595703" xlink:href="#DejaVuSans-6e"/>
      <use x="335.974609" xlink:href="#DejaVuSans-73"/>
      <use x="388.074219" xlink:href="#DejaVuSans-20"/>
      <use x="419.861328" xlink:href="#DejaVuSans-66"/>
      <use x="455.066406" xlink:href="#DejaVuSans-75"/>
      <use x="518.445312" xlink:href="#DejaVuSans-6c"/>
      <use x="546.228516" xlink:href="#DejaVuSans-6c"/>
      <use x="574.011719" xlink:href="#DejaVuSans-79"/>
      <use x="633.191406" xlink:href="#DejaVuSans-20"/>
      <use x="664.978516" xlink:href="#DejaVuSans-76"/>
      <use x="724.158203" xlink:href="#DejaVuSans-61"/>
      <use x="785.4375" xlink:href="#DejaVuSans-63"/>
      <use x="840.417969" xlink:href="#DejaVuSans-63"/>
      <use x="895.398438" xlink:href="#DejaVuSans-69"/>
      <use x="923.181641" xlink:href="#DejaVuSans-6e"/>
      <use x="986.560547" xlink:href="#DejaVuSans-61"/>
      <use x="1047.839844" xlink:href="#DejaVuSans-74"/>
      <use x="1087.048828" xlink:href="#DejaVuSans-65"/>
      <use x="1148.572266" xlink:href="#DejaVuSans-64"/>
      <use x="1212.048828" xlink:href="#DejaVuSans-20"/>
      <use x="1243.835938" xlink:href="#DejaVuSans-28"/>
      <use x="1282.849609" xlink:href="#DejaVuSans-74"/>
      <use x="1322.058594" xlink:href="#DejaVuSans-65"/>
      <use x="1383.582031" xlink:href="#DejaVuSans-6e"/>
      <use x="1446.960938" xlink:href="#DejaVuSans-73"/>
      <use x="1499.060547" xlink:href="#DejaVuSans-20"/>
      <use x="1530.847656" xlink:href="#DejaVuSans-6f"/>
      <use x="1592.029297" xlink:href="#DejaVuSans-66"/>
      <use x="1627.234375" xlink:href="#DejaVuSans-20"/>
      <use x="1659.021484" xlink:href="#DejaVuSans-6d"/>
      <use x="1756.433594" xlink:href="#DejaVuSans-69"/>
      <use x="1784.216797" xlink:href="#DejaVuSans-6c"/>
      <use x="1812" xlink:href="#DejaVuSans-6c"/>
      <use x="1839.783203" xlink:href="#DejaVuSans-69"/>
      <use x="1867.566406" xlink:href="#DejaVuSans-6f"/>
      <use x="1928.748047" xlink:href="#DejaVuSans-6e"/>
      <use x="1992.126953" xlink:href="#DejaVuSans-73"/>
      <use x="2044.226562" xlink:href="#DejaVuSans-29"/>
     </g>
    </g>
    <g id="text_19">
     <!-- 1e7 -->
     <g transform="translate(162 100.68)scale(0.1 -0.1)">
      <defs>
       <path d="M 525 4666 
L 3525 4666 
L 3525 4397 
L 1831 0 
L 1172 0 
L 2766 4134 
L 525 4134 
L 525 4666 
z
" id="DejaVuSans-37" transform="scale(0.015625)"/>
      </defs>
      <use xlink:href="#DejaVuSans-31"/>
      <use x="63.623047" xlink:href="#DejaVuSans-65"/>
      <use x="125.146484" xlink:href="#DejaVuSans-37"/>
     </g>
    </g>
   </g>
   <g id="patch_256">
    <path d="M 162 768.96 
L 162 103.68 
" style="fill:none;stroke:#000000;stroke-linecap:square;stroke-linejoin:miter;stroke-width:0.8;"/>
   </g>
   <g id="patch_257">
    <path d="M 1166.4 768.96 
L 1166.4 103.68 
" style="fill:none;stroke:#000000;stroke-linecap:square;stroke-linejoin:miter;stroke-width:0.8;"/>
   </g>
   <g id="patch_258">
    <path d="M 162 768.96 
L 1166.4 768.96 
" style="fill:none;stroke:#000000;stroke-linecap:square;stroke-linejoin:miter;stroke-width:0.8;"/>
   </g>
   <g id="patch_259">
    <path d="M 162 103.68 
L 1166.4 103.68 
" style="fill:none;stroke:#000000;stroke-linecap:square;stroke-linejoin:miter;stroke-width:0.8;"/>
   </g>
   <g id="text_20">
    <!-- Persons Fully Vaccinated -->
    <g transform="translate(590.380313 97.68)scale(0.12 -0.12)">
     <defs>
      <path d="M 1831 0 
L 50 4666 
L 709 4666 
L 2188 738 
L 3669 4666 
L 4325 4666 
L 2547 0 
L 1831 0 
z
" id="DejaVuSans-56" transform="scale(0.015625)"/>
     </defs>
     <use xlink:href="#DejaVuSans-50"/>
     <use x="56.677734" xlink:href="#DejaVuSans-65"/>
     <use x="118.201172" xlink:href="#DejaVuSans-72"/>
     <use x="159.314453" xlink:href="#DejaVuSans-73"/>
     <use x="211.414062" xlink:href="#DejaVuSans-6f"/>
     <use x="272.595703" xlink:href="#DejaVuSans-6e"/>
     <use x="335.974609" xlink:href="#DejaVuSans-73"/>
     <use x="388.074219" xlink:href="#DejaVuSans-20"/>
     <use x="419.861328" xlink:href="#DejaVuSans-46"/>
     <use x="471.880859" xlink:href="#DejaVuSans-75"/>
     <use x="535.259766" xlink:href="#DejaVuSans-6c"/>
     <use x="563.042969" xlink:href="#DejaVuSans-6c"/>
     <use x="590.826172" xlink:href="#DejaVuSans-79"/>
     <use x="650.005859" xlink:href="#DejaVuSans-20"/>
     <use x="681.792969" xlink:href="#DejaVuSans-56"/>
     <use x="742.451172" xlink:href="#DejaVuSans-61"/>
     <use x="803.730469" xlink:href="#DejaVuSans-63"/>
     <use x="858.710938" xlink:href="#DejaVuSans-63"/>
     <use x="913.691406" xlink:href="#DejaVuSans-69"/>
     <use x="941.474609" xlink:href="#DejaVuSans-6e"/>
     <use x="1004.853516" xlink:href="#DejaVuSans-61"/>
     <use x="1066.132812" xlink:href="#DejaVuSans-74"/>
     <use x="1105.341797" xlink:href="#DejaVuSans-65"/>
     <use x="1166.865234" xlink:href="#DejaVuSans-64"/>
    </g>
   </g>
  </g>
 </g>
 <defs>
  <clipPath id="p5106e08046">
   <rect height="665.28" width="1004.4" x="162" y="103.68"/>
  </clipPath>
 </defs>
</svg>
