<?xml version="1.0" encoding="utf-8" standalone="no"?>
<!DOCTYPE svg PUBLIC "-//W3C//DTD SVG 1.1//EN"
  "http://www.w3.org/Graphics/SVG/1.1/DTD/svg11.dtd">
<svg height="864pt" version="1.1" viewBox="0 0 1296 864" width="1296pt" xmlns="http://www.w3.org/2000/svg" xmlns:xlink="http://www.w3.org/1999/xlink">
 <metadata>
  <rdf:RDF xmlns:cc="http://creativecommons.org/ns#" xmlns:dc="http://purl.org/dc/elements/1.1/" xmlns:rdf="http://www.w3.org/1999/02/22-rdf-syntax-ns#">
   <cc:Work>
    <dc:type rdf:resource="http://purl.org/dc/dcmitype/StillImage"/>
    <dc:date>2021-11-22T06:24:23.580099</dc:date>
    <dc:format>image/svg+xml</dc:format>
    <dc:creator>
     <cc:Agent>
      <dc:title>Matplotlib v3.4.2, https://matplotlib.org/</dc:title>
     </cc:Agent>
    </dc:creator>
   </cc:Work>
  </rdf:RDF>
 </metadata>
 <defs>
  <style type="text/css">*{stroke-linecap:butt;stroke-linejoin:round;}</style>
 </defs>
 <g id="figure_1">
  <g id="patch_1">
   <path d="M 0 864 
L 1296 864 
L 1296 0 
L 0 0 
z
" style="fill:#ffffff;"/>
  </g>
  <g id="axes_1">
   <g id="patch_2">
    <path d="M 162 768.96 
L 1166.4 768.96 
L 1166.4 103.68 
L 162 103.68 
z
" style="fill:#ffffff;"/>
   </g>
   <g id="patch_3">
    <path clip-path="url(#pd7c9e8ac4a)" d="M 162.784688 768.96 
L 164.354063 768.96 
L 164.354063 768.957283 
L 162.784688 768.957283 
z
" style="fill:#1f77b4;"/>
   </g>
   <g id="patch_4">
    <path clip-path="url(#pd7c9e8ac4a)" d="M 165.923438 768.96 
L 167.492813 768.96 
L 167.492813 768.946306 
L 165.923438 768.946306 
z
" style="fill:#1f77b4;"/>
   </g>
   <g id="patch_5">
    <path clip-path="url(#pd7c9e8ac4a)" d="M 169.062188 768.96 
L 170.631563 768.96 
L 170.631563 768.917546 
L 169.062188 768.917546 
z
" style="fill:#1f77b4;"/>
   </g>
   <g id="patch_6">
    <path clip-path="url(#pd7c9e8ac4a)" d="M 172.200938 768.96 
L 173.770313 768.96 
L 173.770313 768.713974 
L 172.200938 768.713974 
z
" style="fill:#1f77b4;"/>
   </g>
   <g id="patch_7">
    <path clip-path="url(#pd7c9e8ac4a)" d="M 175.339687 768.96 
L 176.909063 768.96 
L 176.909063 767.246736 
L 175.339687 767.246736 
z
" style="fill:#1f77b4;"/>
   </g>
   <g id="patch_8">
    <path clip-path="url(#pd7c9e8ac4a)" d="M 178.478438 768.96 
L 180.047813 768.96 
L 180.047813 765.486517 
L 178.478438 765.486517 
z
" style="fill:#1f77b4;"/>
   </g>
   <g id="patch_9">
    <path clip-path="url(#pd7c9e8ac4a)" d="M 181.617188 768.96 
L 183.186563 768.96 
L 183.186563 764.525575 
L 181.617188 764.525575 
z
" style="fill:#1f77b4;"/>
   </g>
   <g id="patch_10">
    <path clip-path="url(#pd7c9e8ac4a)" d="M 184.755938 768.96 
L 186.325313 768.96 
L 186.325313 763.943345 
L 184.755938 763.943345 
z
" style="fill:#1f77b4;"/>
   </g>
   <g id="patch_11">
    <path clip-path="url(#pd7c9e8ac4a)" d="M 187.894688 768.96 
L 189.464063 768.96 
L 189.464063 763.029193 
L 187.894688 763.029193 
z
" style="fill:#1f77b4;"/>
   </g>
   <g id="patch_12">
    <path clip-path="url(#pd7c9e8ac4a)" d="M 191.033438 768.96 
L 192.602813 768.96 
L 192.602813 762.159251 
L 191.033438 762.159251 
z
" style="fill:#1f77b4;"/>
   </g>
   <g id="patch_13">
    <path clip-path="url(#pd7c9e8ac4a)" d="M 194.172188 768.96 
L 195.741563 768.96 
L 195.741563 761.447792 
L 194.172188 761.447792 
z
" style="fill:#1f77b4;"/>
   </g>
   <g id="patch_14">
    <path clip-path="url(#pd7c9e8ac4a)" d="M 197.310938 768.96 
L 198.880313 768.96 
L 198.880313 760.57656 
L 197.310938 760.57656 
z
" style="fill:#1f77b4;"/>
   </g>
   <g id="patch_15">
    <path clip-path="url(#pd7c9e8ac4a)" d="M 200.449688 768.96 
L 202.019063 768.96 
L 202.019063 760.396425 
L 200.449688 760.396425 
z
" style="fill:#1f77b4;"/>
   </g>
   <g id="patch_16">
    <path clip-path="url(#pd7c9e8ac4a)" d="M 203.588437 768.96 
L 205.157813 768.96 
L 205.157813 760.284952 
L 203.588437 760.284952 
z
" style="fill:#1f77b4;"/>
   </g>
   <g id="patch_17">
    <path clip-path="url(#pd7c9e8ac4a)" d="M 206.727188 768.96 
L 208.296563 768.96 
L 208.296563 760.231877 
L 206.727188 760.231877 
z
" style="fill:#1f77b4;"/>
   </g>
   <g id="patch_18">
    <path clip-path="url(#pd7c9e8ac4a)" d="M 209.865938 768.96 
L 211.435313 768.96 
L 211.435313 759.989254 
L 209.865938 759.989254 
z
" style="fill:#1f77b4;"/>
   </g>
   <g id="patch_19">
    <path clip-path="url(#pd7c9e8ac4a)" d="M 213.004688 768.96 
L 214.574063 768.96 
L 214.574063 759.599097 
L 213.004688 759.599097 
z
" style="fill:#1f77b4;"/>
   </g>
   <g id="patch_20">
    <path clip-path="url(#pd7c9e8ac4a)" d="M 216.143438 768.96 
L 217.712813 768.96 
L 217.712813 758.862665 
L 216.143438 758.862665 
z
" style="fill:#1f77b4;"/>
   </g>
   <g id="patch_21">
    <path clip-path="url(#pd7c9e8ac4a)" d="M 219.282188 768.96 
L 220.851563 768.96 
L 220.851563 758.127441 
L 219.282188 758.127441 
z
" style="fill:#1f77b4;"/>
   </g>
   <g id="patch_22">
    <path clip-path="url(#pd7c9e8ac4a)" d="M 222.420938 768.96 
L 223.990313 768.96 
L 223.990313 757.573395 
L 222.420938 757.573395 
z
" style="fill:#1f77b4;"/>
   </g>
   <g id="patch_23">
    <path clip-path="url(#pd7c9e8ac4a)" d="M 225.559688 768.96 
L 227.129063 768.96 
L 227.129063 757.373995 
L 225.559688 757.373995 
z
" style="fill:#1f77b4;"/>
   </g>
   <g id="patch_24">
    <path clip-path="url(#pd7c9e8ac4a)" d="M 228.698438 768.96 
L 230.267813 768.96 
L 230.267813 757.116497 
L 228.698438 757.116497 
z
" style="fill:#1f77b4;"/>
   </g>
   <g id="patch_25">
    <path clip-path="url(#pd7c9e8ac4a)" d="M 231.837188 768.96 
L 233.406563 768.96 
L 233.406563 756.382316 
L 231.837188 756.382316 
z
" style="fill:#1f77b4;"/>
   </g>
   <g id="patch_26">
    <path clip-path="url(#pd7c9e8ac4a)" d="M 234.975938 768.96 
L 236.545313 768.96 
L 236.545313 755.180726 
L 234.975938 755.180726 
z
" style="fill:#1f77b4;"/>
   </g>
   <g id="patch_27">
    <path clip-path="url(#pd7c9e8ac4a)" d="M 238.114688 768.96 
L 239.684063 768.96 
L 239.684063 753.521388 
L 238.114688 753.521388 
z
" style="fill:#1f77b4;"/>
   </g>
   <g id="patch_28">
    <path clip-path="url(#pd7c9e8ac4a)" d="M 241.253438 768.96 
L 242.822813 768.96 
L 242.822813 752.120315 
L 241.253438 752.120315 
z
" style="fill:#1f77b4;"/>
   </g>
   <g id="patch_29">
    <path clip-path="url(#pd7c9e8ac4a)" d="M 244.392188 768.96 
L 245.961563 768.96 
L 245.961563 750.902094 
L 244.392188 750.902094 
z
" style="fill:#1f77b4;"/>
   </g>
   <g id="patch_30">
    <path clip-path="url(#pd7c9e8ac4a)" d="M 247.530938 768.96 
L 249.100313 768.96 
L 249.100313 750.231855 
L 247.530938 750.231855 
z
" style="fill:#1f77b4;"/>
   </g>
   <g id="patch_31">
    <path clip-path="url(#pd7c9e8ac4a)" d="M 250.669688 768.96 
L 252.239063 768.96 
L 252.239063 749.863186 
L 250.669688 749.863186 
z
" style="fill:#1f77b4;"/>
   </g>
   <g id="patch_32">
    <path clip-path="url(#pd7c9e8ac4a)" d="M 253.808438 768.96 
L 255.377813 768.96 
L 255.377813 749.158973 
L 253.808438 749.158973 
z
" style="fill:#1f77b4;"/>
   </g>
   <g id="patch_33">
    <path clip-path="url(#pd7c9e8ac4a)" d="M 256.947188 768.96 
L 258.516563 768.96 
L 258.516563 747.679495 
L 256.947188 747.679495 
z
" style="fill:#1f77b4;"/>
   </g>
   <g id="patch_34">
    <path clip-path="url(#pd7c9e8ac4a)" d="M 260.085938 768.96 
L 261.655312 768.96 
L 261.655312 746.5503 
L 260.085938 746.5503 
z
" style="fill:#1f77b4;"/>
   </g>
   <g id="patch_35">
    <path clip-path="url(#pd7c9e8ac4a)" d="M 263.224688 768.96 
L 264.794062 768.96 
L 264.794062 745.153728 
L 263.224688 745.153728 
z
" style="fill:#1f77b4;"/>
   </g>
   <g id="patch_36">
    <path clip-path="url(#pd7c9e8ac4a)" d="M 266.363438 768.96 
L 267.932813 768.96 
L 267.932813 743.940584 
L 266.363438 743.940584 
z
" style="fill:#1f77b4;"/>
   </g>
   <g id="patch_37">
    <path clip-path="url(#pd7c9e8ac4a)" d="M 269.502187 768.96 
L 271.071562 768.96 
L 271.071562 742.927555 
L 269.502187 742.927555 
z
" style="fill:#1f77b4;"/>
   </g>
   <g id="patch_38">
    <path clip-path="url(#pd7c9e8ac4a)" d="M 272.640938 768.96 
L 274.210312 768.96 
L 274.210312 742.565637 
L 272.640938 742.565637 
z
" style="fill:#1f77b4;"/>
   </g>
   <g id="patch_39">
    <path clip-path="url(#pd7c9e8ac4a)" d="M 275.779688 768.96 
L 277.349063 768.96 
L 277.349063 741.509715 
L 275.779688 741.509715 
z
" style="fill:#1f77b4;"/>
   </g>
   <g id="patch_40">
    <path clip-path="url(#pd7c9e8ac4a)" d="M 278.918438 768.96 
L 280.487813 768.96 
L 280.487813 740.061797 
L 278.918438 740.061797 
z
" style="fill:#1f77b4;"/>
   </g>
   <g id="patch_41">
    <path clip-path="url(#pd7c9e8ac4a)" d="M 282.057188 768.96 
L 283.626563 768.96 
L 283.626563 738.275095 
L 282.057188 738.275095 
z
" style="fill:#1f77b4;"/>
   </g>
   <g id="patch_42">
    <path clip-path="url(#pd7c9e8ac4a)" d="M 285.195938 768.96 
L 286.765312 768.96 
L 286.765312 735.72323 
L 285.195938 735.72323 
z
" style="fill:#1f77b4;"/>
   </g>
   <g id="patch_43">
    <path clip-path="url(#pd7c9e8ac4a)" d="M 288.334688 768.96 
L 289.904063 768.96 
L 289.904063 733.43638 
L 288.334688 733.43638 
z
" style="fill:#1f77b4;"/>
   </g>
   <g id="patch_44">
    <path clip-path="url(#pd7c9e8ac4a)" d="M 291.473438 768.96 
L 293.042813 768.96 
L 293.042813 732.044446 
L 291.473438 732.044446 
z
" style="fill:#1f77b4;"/>
   </g>
   <g id="patch_45">
    <path clip-path="url(#pd7c9e8ac4a)" d="M 294.612188 768.96 
L 296.181562 768.96 
L 296.181562 731.287432 
L 294.612188 731.287432 
z
" style="fill:#1f77b4;"/>
   </g>
   <g id="patch_46">
    <path clip-path="url(#pd7c9e8ac4a)" d="M 297.750938 768.96 
L 299.320312 768.96 
L 299.320312 730.523118 
L 297.750938 730.523118 
z
" style="fill:#1f77b4;"/>
   </g>
   <g id="patch_47">
    <path clip-path="url(#pd7c9e8ac4a)" d="M 300.889688 768.96 
L 302.459063 768.96 
L 302.459063 729.044739 
L 300.889688 729.044739 
z
" style="fill:#1f77b4;"/>
   </g>
   <g id="patch_48">
    <path clip-path="url(#pd7c9e8ac4a)" d="M 304.028437 768.96 
L 305.597812 768.96 
L 305.597812 726.651027 
L 304.028437 726.651027 
z
" style="fill:#1f77b4;"/>
   </g>
   <g id="patch_49">
    <path clip-path="url(#pd7c9e8ac4a)" d="M 307.167188 768.96 
L 308.736562 768.96 
L 308.736562 723.518687 
L 307.167188 723.518687 
z
" style="fill:#1f77b4;"/>
   </g>
   <g id="patch_50">
    <path clip-path="url(#pd7c9e8ac4a)" d="M 310.305938 768.96 
L 311.875313 768.96 
L 311.875313 720.538986 
L 310.305938 720.538986 
z
" style="fill:#1f77b4;"/>
   </g>
   <g id="patch_51">
    <path clip-path="url(#pd7c9e8ac4a)" d="M 313.444687 768.96 
L 315.014062 768.96 
L 315.014062 720.060463 
L 313.444687 720.060463 
z
" style="fill:#1f77b4;"/>
   </g>
   <g id="patch_52">
    <path clip-path="url(#pd7c9e8ac4a)" d="M 316.583438 768.96 
L 318.152813 768.96 
L 318.152813 717.929956 
L 316.583438 717.929956 
z
" style="fill:#1f77b4;"/>
   </g>
   <g id="patch_53">
    <path clip-path="url(#pd7c9e8ac4a)" d="M 319.722188 768.96 
L 321.291562 768.96 
L 321.291562 716.177038 
L 319.722188 716.177038 
z
" style="fill:#1f77b4;"/>
   </g>
   <g id="patch_54">
    <path clip-path="url(#pd7c9e8ac4a)" d="M 322.860938 768.96 
L 324.430313 768.96 
L 324.430313 713.594655 
L 322.860938 713.594655 
z
" style="fill:#1f77b4;"/>
   </g>
   <g id="patch_55">
    <path clip-path="url(#pd7c9e8ac4a)" d="M 325.999688 768.96 
L 327.569063 768.96 
L 327.569063 708.568779 
L 325.999688 708.568779 
z
" style="fill:#1f77b4;"/>
   </g>
   <g id="patch_56">
    <path clip-path="url(#pd7c9e8ac4a)" d="M 329.138438 768.96 
L 330.707812 768.96 
L 330.707812 703.362493 
L 329.138438 703.362493 
z
" style="fill:#1f77b4;"/>
   </g>
   <g id="patch_57">
    <path clip-path="url(#pd7c9e8ac4a)" d="M 332.277188 768.96 
L 333.846563 768.96 
L 333.846563 698.756193 
L 332.277188 698.756193 
z
" style="fill:#1f77b4;"/>
   </g>
   <g id="patch_58">
    <path clip-path="url(#pd7c9e8ac4a)" d="M 335.415938 768.96 
L 336.985313 768.96 
L 336.985313 694.821943 
L 335.415938 694.821943 
z
" style="fill:#1f77b4;"/>
   </g>
   <g id="patch_59">
    <path clip-path="url(#pd7c9e8ac4a)" d="M 338.554688 768.96 
L 340.124062 768.96 
L 340.124062 692.991086 
L 338.554688 692.991086 
z
" style="fill:#1f77b4;"/>
   </g>
   <g id="patch_60">
    <path clip-path="url(#pd7c9e8ac4a)" d="M 341.693438 768.96 
L 343.262812 768.96 
L 343.262812 690.123242 
L 341.693438 690.123242 
z
" style="fill:#1f77b4;"/>
   </g>
   <g id="patch_61">
    <path clip-path="url(#pd7c9e8ac4a)" d="M 344.832188 768.96 
L 346.401563 768.96 
L 346.401563 686.252413 
L 344.832188 686.252413 
z
" style="fill:#1f77b4;"/>
   </g>
   <g id="patch_62">
    <path clip-path="url(#pd7c9e8ac4a)" d="M 347.970937 768.96 
L 349.540312 768.96 
L 349.540312 681.808629 
L 347.970937 681.808629 
z
" style="fill:#1f77b4;"/>
   </g>
   <g id="patch_63">
    <path clip-path="url(#pd7c9e8ac4a)" d="M 351.109688 768.96 
L 352.679063 768.96 
L 352.679063 675.318809 
L 351.109688 675.318809 
z
" style="fill:#1f77b4;"/>
   </g>
   <g id="patch_64">
    <path clip-path="url(#pd7c9e8ac4a)" d="M 354.248438 768.96 
L 355.817813 768.96 
L 355.817813 669.237312 
L 354.248438 669.237312 
z
" style="fill:#1f77b4;"/>
   </g>
   <g id="patch_65">
    <path clip-path="url(#pd7c9e8ac4a)" d="M 357.387188 768.96 
L 358.956563 768.96 
L 358.956563 664.732111 
L 357.387188 664.732111 
z
" style="fill:#1f77b4;"/>
   </g>
   <g id="patch_66">
    <path clip-path="url(#pd7c9e8ac4a)" d="M 360.525938 768.96 
L 362.095313 768.96 
L 362.095313 663.291795 
L 360.525938 663.291795 
z
" style="fill:#1f77b4;"/>
   </g>
   <g id="patch_67">
    <path clip-path="url(#pd7c9e8ac4a)" d="M 363.664688 768.96 
L 365.234062 768.96 
L 365.234062 659.393221 
L 363.664688 659.393221 
z
" style="fill:#1f77b4;"/>
   </g>
   <g id="patch_68">
    <path clip-path="url(#pd7c9e8ac4a)" d="M 366.803438 768.96 
L 368.372813 768.96 
L 368.372813 654.335264 
L 366.803438 654.335264 
z
" style="fill:#1f77b4;"/>
   </g>
   <g id="patch_69">
    <path clip-path="url(#pd7c9e8ac4a)" d="M 369.942188 768.96 
L 371.511563 768.96 
L 371.511563 648.731083 
L 369.942188 648.731083 
z
" style="fill:#1f77b4;"/>
   </g>
   <g id="patch_70">
    <path clip-path="url(#pd7c9e8ac4a)" d="M 373.080938 768.96 
L 374.650312 768.96 
L 374.650312 642.701179 
L 373.080938 642.701179 
z
" style="fill:#1f77b4;"/>
   </g>
   <g id="patch_71">
    <path clip-path="url(#pd7c9e8ac4a)" d="M 376.219688 768.96 
L 377.789062 768.96 
L 377.789062 635.900402 
L 376.219688 635.900402 
z
" style="fill:#1f77b4;"/>
   </g>
   <g id="patch_72">
    <path clip-path="url(#pd7c9e8ac4a)" d="M 379.358438 768.96 
L 380.927813 768.96 
L 380.927813 631.51381 
L 379.358438 631.51381 
z
" style="fill:#1f77b4;"/>
   </g>
   <g id="patch_73">
    <path clip-path="url(#pd7c9e8ac4a)" d="M 382.497187 768.96 
L 384.066562 768.96 
L 384.066562 627.179606 
L 382.497187 627.179606 
z
" style="fill:#1f77b4;"/>
   </g>
   <g id="patch_74">
    <path clip-path="url(#pd7c9e8ac4a)" d="M 385.635938 768.96 
L 387.205313 768.96 
L 387.205313 623.298459 
L 385.635938 623.298459 
z
" style="fill:#1f77b4;"/>
   </g>
   <g id="patch_75">
    <path clip-path="url(#pd7c9e8ac4a)" d="M 388.774688 768.96 
L 390.344063 768.96 
L 390.344063 618.936894 
L 388.774688 618.936894 
z
" style="fill:#1f77b4;"/>
   </g>
   <g id="patch_76">
    <path clip-path="url(#pd7c9e8ac4a)" d="M 391.913438 768.96 
L 393.482813 768.96 
L 393.482813 615.022897 
L 391.913438 615.022897 
z
" style="fill:#1f77b4;"/>
   </g>
   <g id="patch_77">
    <path clip-path="url(#pd7c9e8ac4a)" d="M 395.052188 768.96 
L 396.621563 768.96 
L 396.621563 610.589076 
L 395.052188 610.589076 
z
" style="fill:#1f77b4;"/>
   </g>
   <g id="patch_78">
    <path clip-path="url(#pd7c9e8ac4a)" d="M 398.190938 768.96 
L 399.760312 768.96 
L 399.760312 606.030279 
L 398.190938 606.030279 
z
" style="fill:#1f77b4;"/>
   </g>
   <g id="patch_79">
    <path clip-path="url(#pd7c9e8ac4a)" d="M 401.329688 768.96 
L 402.899063 768.96 
L 402.899063 603.318119 
L 401.329688 603.318119 
z
" style="fill:#1f77b4;"/>
   </g>
   <g id="patch_80">
    <path clip-path="url(#pd7c9e8ac4a)" d="M 404.468438 768.96 
L 406.037813 768.96 
L 406.037813 601.837462 
L 404.468438 601.837462 
z
" style="fill:#1f77b4;"/>
   </g>
   <g id="patch_81">
    <path clip-path="url(#pd7c9e8ac4a)" d="M 407.607188 768.96 
L 409.176562 768.96 
L 409.176562 599.427942 
L 407.607188 599.427942 
z
" style="fill:#1f77b4;"/>
   </g>
   <g id="patch_82">
    <path clip-path="url(#pd7c9e8ac4a)" d="M 410.745938 768.96 
L 412.315313 768.96 
L 412.315313 596.504252 
L 410.745938 596.504252 
z
" style="fill:#1f77b4;"/>
   </g>
   <g id="patch_83">
    <path clip-path="url(#pd7c9e8ac4a)" d="M 413.884688 768.96 
L 415.454063 768.96 
L 415.454063 593.439614 
L 413.884688 593.439614 
z
" style="fill:#1f77b4;"/>
   </g>
   <g id="patch_84">
    <path clip-path="url(#pd7c9e8ac4a)" d="M 417.023438 768.96 
L 418.592812 768.96 
L 418.592812 589.500397 
L 417.023438 589.500397 
z
" style="fill:#1f77b4;"/>
   </g>
   <g id="patch_85">
    <path clip-path="url(#pd7c9e8ac4a)" d="M 420.162188 768.96 
L 421.731563 768.96 
L 421.731563 584.597274 
L 420.162188 584.597274 
z
" style="fill:#1f77b4;"/>
   </g>
   <g id="patch_86">
    <path clip-path="url(#pd7c9e8ac4a)" d="M 423.300938 768.96 
L 424.870313 768.96 
L 424.870313 580.350833 
L 423.300938 580.350833 
z
" style="fill:#1f77b4;"/>
   </g>
   <g id="patch_87">
    <path clip-path="url(#pd7c9e8ac4a)" d="M 426.439687 768.96 
L 428.009062 768.96 
L 428.009062 578.670171 
L 426.439687 578.670171 
z
" style="fill:#1f77b4;"/>
   </g>
   <g id="patch_88">
    <path clip-path="url(#pd7c9e8ac4a)" d="M 429.578438 768.96 
L 431.147813 768.96 
L 431.147813 576.082437 
L 429.578438 576.082437 
z
" style="fill:#1f77b4;"/>
   </g>
   <g id="patch_89">
    <path clip-path="url(#pd7c9e8ac4a)" d="M 432.717188 768.96 
L 434.286563 768.96 
L 434.286563 571.398556 
L 432.717188 571.398556 
z
" style="fill:#1f77b4;"/>
   </g>
   <g id="patch_90">
    <path clip-path="url(#pd7c9e8ac4a)" d="M 435.855938 768.96 
L 437.425313 768.96 
L 437.425313 567.435408 
L 435.855938 567.435408 
z
" style="fill:#1f77b4;"/>
   </g>
   <g id="patch_91">
    <path clip-path="url(#pd7c9e8ac4a)" d="M 438.994688 768.96 
L 440.564063 768.96 
L 440.564063 561.924121 
L 438.994688 561.924121 
z
" style="fill:#1f77b4;"/>
   </g>
   <g id="patch_92">
    <path clip-path="url(#pd7c9e8ac4a)" d="M 442.133438 768.96 
L 443.702812 768.96 
L 443.702812 556.363711 
L 442.133438 556.363711 
z
" style="fill:#1f77b4;"/>
   </g>
   <g id="patch_93">
    <path clip-path="url(#pd7c9e8ac4a)" d="M 445.272188 768.96 
L 446.841563 768.96 
L 446.841563 552.108983 
L 445.272188 552.108983 
z
" style="fill:#1f77b4;"/>
   </g>
   <g id="patch_94">
    <path clip-path="url(#pd7c9e8ac4a)" d="M 448.410938 768.96 
L 449.980313 768.96 
L 449.980313 550.926905 
L 448.410938 550.926905 
z
" style="fill:#1f77b4;"/>
   </g>
   <g id="patch_95">
    <path clip-path="url(#pd7c9e8ac4a)" d="M 451.549688 768.96 
L 453.119062 768.96 
L 453.119062 546.897977 
L 451.549688 546.897977 
z
" style="fill:#1f77b4;"/>
   </g>
   <g id="patch_96">
    <path clip-path="url(#pd7c9e8ac4a)" d="M 454.688438 768.96 
L 456.257813 768.96 
L 456.257813 540.736154 
L 454.688438 540.736154 
z
" style="fill:#1f77b4;"/>
   </g>
   <g id="patch_97">
    <path clip-path="url(#pd7c9e8ac4a)" d="M 457.827188 768.96 
L 459.396563 768.96 
L 459.396563 533.905602 
L 457.827188 533.905602 
z
" style="fill:#1f77b4;"/>
   </g>
   <g id="patch_98">
    <path clip-path="url(#pd7c9e8ac4a)" d="M 460.965937 768.96 
L 462.535312 768.96 
L 462.535312 525.727957 
L 460.965937 525.727957 
z
" style="fill:#1f77b4;"/>
   </g>
   <g id="patch_99">
    <path clip-path="url(#pd7c9e8ac4a)" d="M 464.104688 768.96 
L 465.674063 768.96 
L 465.674063 516.077092 
L 464.104688 516.077092 
z
" style="fill:#1f77b4;"/>
   </g>
   <g id="patch_100">
    <path clip-path="url(#pd7c9e8ac4a)" d="M 467.243438 768.96 
L 468.812813 768.96 
L 468.812813 509.695534 
L 467.243438 509.695534 
z
" style="fill:#1f77b4;"/>
   </g>
   <g id="patch_101">
    <path clip-path="url(#pd7c9e8ac4a)" d="M 470.382188 768.96 
L 471.951563 768.96 
L 471.951563 506.618383 
L 470.382188 506.618383 
z
" style="fill:#1f77b4;"/>
   </g>
   <g id="patch_102">
    <path clip-path="url(#pd7c9e8ac4a)" d="M 473.520938 768.96 
L 475.090313 768.96 
L 475.090313 501.336519 
L 473.520938 501.336519 
z
" style="fill:#1f77b4;"/>
   </g>
   <g id="patch_103">
    <path clip-path="url(#pd7c9e8ac4a)" d="M 476.659688 768.96 
L 478.229062 768.96 
L 478.229062 494.777652 
L 476.659688 494.777652 
z
" style="fill:#1f77b4;"/>
   </g>
   <g id="patch_104">
    <path clip-path="url(#pd7c9e8ac4a)" d="M 479.798438 768.96 
L 481.367813 768.96 
L 481.367813 489.11455 
L 479.798438 489.11455 
z
" style="fill:#1f77b4;"/>
   </g>
   <g id="patch_105">
    <path clip-path="url(#pd7c9e8ac4a)" d="M 482.937188 768.96 
L 484.506563 768.96 
L 484.506563 481.403463 
L 482.937188 481.403463 
z
" style="fill:#1f77b4;"/>
   </g>
   <g id="patch_106">
    <path clip-path="url(#pd7c9e8ac4a)" d="M 486.075938 768.96 
L 487.645312 768.96 
L 487.645312 473.89968 
L 486.075938 473.89968 
z
" style="fill:#1f77b4;"/>
   </g>
   <g id="patch_107">
    <path clip-path="url(#pd7c9e8ac4a)" d="M 489.214688 768.96 
L 490.784063 768.96 
L 490.784063 468.697099 
L 489.214688 468.697099 
z
" style="fill:#1f77b4;"/>
   </g>
   <g id="patch_108">
    <path clip-path="url(#pd7c9e8ac4a)" d="M 492.353438 768.96 
L 493.922813 768.96 
L 493.922813 465.663856 
L 492.353438 465.663856 
z
" style="fill:#1f77b4;"/>
   </g>
   <g id="patch_109">
    <path clip-path="url(#pd7c9e8ac4a)" d="M 495.492188 768.96 
L 497.061562 768.96 
L 497.061562 461.31047 
L 495.492188 461.31047 
z
" style="fill:#1f77b4;"/>
   </g>
   <g id="patch_110">
    <path clip-path="url(#pd7c9e8ac4a)" d="M 498.630938 768.96 
L 500.200313 768.96 
L 500.200313 454.371189 
L 498.630938 454.371189 
z
" style="fill:#1f77b4;"/>
   </g>
   <g id="patch_111">
    <path clip-path="url(#pd7c9e8ac4a)" d="M 501.769688 768.96 
L 503.339063 768.96 
L 503.339063 448.231431 
L 501.769688 448.231431 
z
" style="fill:#1f77b4;"/>
   </g>
   <g id="patch_112">
    <path clip-path="url(#pd7c9e8ac4a)" d="M 504.908438 768.96 
L 506.477813 768.96 
L 506.477813 441.775612 
L 504.908438 441.775612 
z
" style="fill:#1f77b4;"/>
   </g>
   <g id="patch_113">
    <path clip-path="url(#pd7c9e8ac4a)" d="M 508.047188 768.96 
L 509.616563 768.96 
L 509.616563 435.861764 
L 508.047188 435.861764 
z
" style="fill:#1f77b4;"/>
   </g>
   <g id="patch_114">
    <path clip-path="url(#pd7c9e8ac4a)" d="M 511.185938 768.96 
L 512.755313 768.96 
L 512.755313 431.989316 
L 511.185938 431.989316 
z
" style="fill:#1f77b4;"/>
   </g>
   <g id="patch_115">
    <path clip-path="url(#pd7c9e8ac4a)" d="M 514.324688 768.96 
L 515.894063 768.96 
L 515.894063 430.397652 
L 514.324688 430.397652 
z
" style="fill:#1f77b4;"/>
   </g>
   <g id="patch_116">
    <path clip-path="url(#pd7c9e8ac4a)" d="M 517.463438 768.96 
L 519.032813 768.96 
L 519.032813 426.714917 
L 517.463438 426.714917 
z
" style="fill:#1f77b4;"/>
   </g>
   <g id="patch_117">
    <path clip-path="url(#pd7c9e8ac4a)" d="M 520.602188 768.96 
L 522.171563 768.96 
L 522.171563 421.471912 
L 520.602188 421.471912 
z
" style="fill:#1f77b4;"/>
   </g>
   <g id="patch_118">
    <path clip-path="url(#pd7c9e8ac4a)" d="M 523.740938 768.96 
L 525.310313 768.96 
L 525.310313 416.020451 
L 523.740938 416.020451 
z
" style="fill:#1f77b4;"/>
   </g>
   <g id="patch_119">
    <path clip-path="url(#pd7c9e8ac4a)" d="M 526.879688 768.96 
L 528.449063 768.96 
L 528.449063 410.748439 
L 526.879688 410.748439 
z
" style="fill:#1f77b4;"/>
   </g>
   <g id="patch_120">
    <path clip-path="url(#pd7c9e8ac4a)" d="M 530.018438 768.96 
L 531.587813 768.96 
L 531.587813 406.201854 
L 530.018438 406.201854 
z
" style="fill:#1f77b4;"/>
   </g>
   <g id="patch_121">
    <path clip-path="url(#pd7c9e8ac4a)" d="M 533.157188 768.96 
L 534.726563 768.96 
L 534.726563 404.175164 
L 533.157188 404.175164 
z
" style="fill:#1f77b4;"/>
   </g>
   <g id="patch_122">
    <path clip-path="url(#pd7c9e8ac4a)" d="M 536.295938 768.96 
L 537.865313 768.96 
L 537.865313 403.517905 
L 536.295938 403.517905 
z
" style="fill:#1f77b4;"/>
   </g>
   <g id="patch_123">
    <path clip-path="url(#pd7c9e8ac4a)" d="M 539.434688 768.96 
L 541.004063 768.96 
L 541.004063 401.267061 
L 539.434688 401.267061 
z
" style="fill:#1f77b4;"/>
   </g>
   <g id="patch_124">
    <path clip-path="url(#pd7c9e8ac4a)" d="M 542.573438 768.96 
L 544.142813 768.96 
L 544.142813 395.434198 
L 542.573438 395.434198 
z
" style="fill:#1f77b4;"/>
   </g>
   <g id="patch_125">
    <path clip-path="url(#pd7c9e8ac4a)" d="M 545.712188 768.96 
L 547.281563 768.96 
L 547.281563 389.7644 
L 545.712188 389.7644 
z
" style="fill:#1f77b4;"/>
   </g>
   <g id="patch_126">
    <path clip-path="url(#pd7c9e8ac4a)" d="M 548.850938 768.96 
L 550.420313 768.96 
L 550.420313 385.492328 
L 548.850938 385.492328 
z
" style="fill:#1f77b4;"/>
   </g>
   <g id="patch_127">
    <path clip-path="url(#pd7c9e8ac4a)" d="M 551.989688 768.96 
L 553.559063 768.96 
L 553.559063 379.599831 
L 551.989688 379.599831 
z
" style="fill:#1f77b4;"/>
   </g>
   <g id="patch_128">
    <path clip-path="url(#pd7c9e8ac4a)" d="M 555.128438 768.96 
L 556.697813 768.96 
L 556.697813 375.548509 
L 555.128438 375.548509 
z
" style="fill:#1f77b4;"/>
   </g>
   <g id="patch_129">
    <path clip-path="url(#pd7c9e8ac4a)" d="M 558.267188 768.96 
L 559.836563 768.96 
L 559.836563 371.785338 
L 558.267188 371.785338 
z
" style="fill:#1f77b4;"/>
   </g>
   <g id="patch_130">
    <path clip-path="url(#pd7c9e8ac4a)" d="M 561.405938 768.96 
L 562.975313 768.96 
L 562.975313 368.359826 
L 561.405938 368.359826 
z
" style="fill:#1f77b4;"/>
   </g>
   <g id="patch_131">
    <path clip-path="url(#pd7c9e8ac4a)" d="M 564.544688 768.96 
L 566.114063 768.96 
L 566.114063 363.981275 
L 564.544688 363.981275 
z
" style="fill:#1f77b4;"/>
   </g>
   <g id="patch_132">
    <path clip-path="url(#pd7c9e8ac4a)" d="M 567.683438 768.96 
L 569.252813 768.96 
L 569.252813 360.001909 
L 567.683438 360.001909 
z
" style="fill:#1f77b4;"/>
   </g>
   <g id="patch_133">
    <path clip-path="url(#pd7c9e8ac4a)" d="M 570.822188 768.96 
L 572.391563 768.96 
L 572.391563 355.877534 
L 570.822188 355.877534 
z
" style="fill:#1f77b4;"/>
   </g>
   <g id="patch_134">
    <path clip-path="url(#pd7c9e8ac4a)" d="M 573.960938 768.96 
L 575.530313 768.96 
L 575.530313 349.908937 
L 573.960938 349.908937 
z
" style="fill:#1f77b4;"/>
   </g>
   <g id="patch_135">
    <path clip-path="url(#pd7c9e8ac4a)" d="M 577.099688 768.96 
L 578.669063 768.96 
L 578.669063 346.620036 
L 577.099688 346.620036 
z
" style="fill:#1f77b4;"/>
   </g>
   <g id="patch_136">
    <path clip-path="url(#pd7c9e8ac4a)" d="M 580.238438 768.96 
L 581.807813 768.96 
L 581.807813 345.313175 
L 580.238438 345.313175 
z
" style="fill:#1f77b4;"/>
   </g>
   <g id="patch_137">
    <path clip-path="url(#pd7c9e8ac4a)" d="M 583.377188 768.96 
L 584.946563 768.96 
L 584.946563 342.993916 
L 583.377188 342.993916 
z
" style="fill:#1f77b4;"/>
   </g>
   <g id="patch_138">
    <path clip-path="url(#pd7c9e8ac4a)" d="M 586.515938 768.96 
L 588.085313 768.96 
L 588.085313 338.698983 
L 586.515938 338.698983 
z
" style="fill:#1f77b4;"/>
   </g>
   <g id="patch_139">
    <path clip-path="url(#pd7c9e8ac4a)" d="M 589.654688 768.96 
L 591.224063 768.96 
L 591.224063 334.894675 
L 589.654688 334.894675 
z
" style="fill:#1f77b4;"/>
   </g>
   <g id="patch_140">
    <path clip-path="url(#pd7c9e8ac4a)" d="M 592.793438 768.96 
L 594.362813 768.96 
L 594.362813 329.428532 
L 592.793438 329.428532 
z
" style="fill:#1f77b4;"/>
   </g>
   <g id="patch_141">
    <path clip-path="url(#pd7c9e8ac4a)" d="M 595.932188 768.96 
L 597.501563 768.96 
L 597.501563 325.867095 
L 595.932188 325.867095 
z
" style="fill:#1f77b4;"/>
   </g>
   <g id="patch_142">
    <path clip-path="url(#pd7c9e8ac4a)" d="M 599.070938 768.96 
L 600.640313 768.96 
L 600.640313 323.063001 
L 599.070938 323.063001 
z
" style="fill:#1f77b4;"/>
   </g>
   <g id="patch_143">
    <path clip-path="url(#pd7c9e8ac4a)" d="M 602.209688 768.96 
L 603.779063 768.96 
L 603.779063 321.792721 
L 602.209688 321.792721 
z
" style="fill:#1f77b4;"/>
   </g>
   <g id="patch_144">
    <path clip-path="url(#pd7c9e8ac4a)" d="M 605.348438 768.96 
L 606.917813 768.96 
L 606.917813 319.651429 
L 605.348438 319.651429 
z
" style="fill:#1f77b4;"/>
   </g>
   <g id="patch_145">
    <path clip-path="url(#pd7c9e8ac4a)" d="M 608.487188 768.96 
L 610.056563 768.96 
L 610.056563 317.033207 
L 608.487188 317.033207 
z
" style="fill:#1f77b4;"/>
   </g>
   <g id="patch_146">
    <path clip-path="url(#pd7c9e8ac4a)" d="M 611.625938 768.96 
L 613.195313 768.96 
L 613.195313 314.443552 
L 611.625938 314.443552 
z
" style="fill:#1f77b4;"/>
   </g>
   <g id="patch_147">
    <path clip-path="url(#pd7c9e8ac4a)" d="M 614.764688 768.96 
L 616.334063 768.96 
L 616.334063 311.661193 
L 614.764688 311.661193 
z
" style="fill:#1f77b4;"/>
   </g>
   <g id="patch_148">
    <path clip-path="url(#pd7c9e8ac4a)" d="M 617.903438 768.96 
L 619.472813 768.96 
L 619.472813 309.079716 
L 617.903438 309.079716 
z
" style="fill:#1f77b4;"/>
   </g>
   <g id="patch_149">
    <path clip-path="url(#pd7c9e8ac4a)" d="M 621.042188 768.96 
L 622.611563 768.96 
L 622.611563 307.318399 
L 621.042188 307.318399 
z
" style="fill:#1f77b4;"/>
   </g>
   <g id="patch_150">
    <path clip-path="url(#pd7c9e8ac4a)" d="M 624.180938 768.96 
L 625.750313 768.96 
L 625.750313 306.329465 
L 624.180938 306.329465 
z
" style="fill:#1f77b4;"/>
   </g>
   <g id="patch_151">
    <path clip-path="url(#pd7c9e8ac4a)" d="M 627.319688 768.96 
L 628.889063 768.96 
L 628.889063 305.615125 
L 627.319688 305.615125 
z
" style="fill:#1f77b4;"/>
   </g>
   <g id="patch_152">
    <path clip-path="url(#pd7c9e8ac4a)" d="M 630.458438 768.96 
L 632.027813 768.96 
L 632.027813 304.072666 
L 630.458438 304.072666 
z
" style="fill:#1f77b4;"/>
   </g>
   <g id="patch_153">
    <path clip-path="url(#pd7c9e8ac4a)" d="M 633.597188 768.96 
L 635.166563 768.96 
L 635.166563 302.46363 
L 633.597188 302.46363 
z
" style="fill:#1f77b4;"/>
   </g>
   <g id="patch_154">
    <path clip-path="url(#pd7c9e8ac4a)" d="M 636.735938 768.96 
L 638.305313 768.96 
L 638.305313 299.981497 
L 636.735938 299.981497 
z
" style="fill:#1f77b4;"/>
   </g>
   <g id="patch_155">
    <path clip-path="url(#pd7c9e8ac4a)" d="M 639.874688 768.96 
L 641.444063 768.96 
L 641.444063 297.293596 
L 639.874688 297.293596 
z
" style="fill:#1f77b4;"/>
   </g>
   <g id="patch_156">
    <path clip-path="url(#pd7c9e8ac4a)" d="M 643.013438 768.96 
L 644.582813 768.96 
L 644.582813 294.971895 
L 643.013438 294.971895 
z
" style="fill:#1f77b4;"/>
   </g>
   <g id="patch_157">
    <path clip-path="url(#pd7c9e8ac4a)" d="M 646.152188 768.96 
L 647.721563 768.96 
L 647.721563 293.351031 
L 646.152188 293.351031 
z
" style="fill:#1f77b4;"/>
   </g>
   <g id="patch_158">
    <path clip-path="url(#pd7c9e8ac4a)" d="M 649.290938 768.96 
L 650.860313 768.96 
L 650.860313 291.12549 
L 649.290938 291.12549 
z
" style="fill:#1f77b4;"/>
   </g>
   <g id="patch_159">
    <path clip-path="url(#pd7c9e8ac4a)" d="M 652.429688 768.96 
L 653.999063 768.96 
L 653.999063 288.608504 
L 652.429688 288.608504 
z
" style="fill:#1f77b4;"/>
   </g>
   <g id="patch_160">
    <path clip-path="url(#pd7c9e8ac4a)" d="M 655.568438 768.96 
L 657.137813 768.96 
L 657.137813 285.57345 
L 655.568438 285.57345 
z
" style="fill:#1f77b4;"/>
   </g>
   <g id="patch_161">
    <path clip-path="url(#pd7c9e8ac4a)" d="M 658.707188 768.96 
L 660.276563 768.96 
L 660.276563 283.487072 
L 658.707188 283.487072 
z
" style="fill:#1f77b4;"/>
   </g>
   <g id="patch_162">
    <path clip-path="url(#pd7c9e8ac4a)" d="M 661.845938 768.96 
L 663.415313 768.96 
L 663.415313 281.507337 
L 661.845938 281.507337 
z
" style="fill:#1f77b4;"/>
   </g>
   <g id="patch_163">
    <path clip-path="url(#pd7c9e8ac4a)" d="M 664.984688 768.96 
L 666.554063 768.96 
L 666.554063 280.304978 
L 664.984688 280.304978 
z
" style="fill:#1f77b4;"/>
   </g>
   <g id="patch_164">
    <path clip-path="url(#pd7c9e8ac4a)" d="M 668.123438 768.96 
L 669.692813 768.96 
L 669.692813 279.129267 
L 668.123438 279.129267 
z
" style="fill:#1f77b4;"/>
   </g>
   <g id="patch_165">
    <path clip-path="url(#pd7c9e8ac4a)" d="M 671.262188 768.96 
L 672.831563 768.96 
L 672.831563 275.5821 
L 671.262188 275.5821 
z
" style="fill:#1f77b4;"/>
   </g>
   <g id="patch_166">
    <path clip-path="url(#pd7c9e8ac4a)" d="M 674.400938 768.96 
L 675.970313 768.96 
L 675.970313 272.857289 
L 674.400938 272.857289 
z
" style="fill:#1f77b4;"/>
   </g>
   <g id="patch_167">
    <path clip-path="url(#pd7c9e8ac4a)" d="M 677.539688 768.96 
L 679.109063 768.96 
L 679.109063 270.980218 
L 677.539688 270.980218 
z
" style="fill:#1f77b4;"/>
   </g>
   <g id="patch_168">
    <path clip-path="url(#pd7c9e8ac4a)" d="M 680.678438 768.96 
L 682.247813 768.96 
L 682.247813 268.500966 
L 680.678438 268.500966 
z
" style="fill:#1f77b4;"/>
   </g>
   <g id="patch_169">
    <path clip-path="url(#pd7c9e8ac4a)" d="M 683.817188 768.96 
L 685.386563 768.96 
L 685.386563 267.324322 
L 683.817188 267.324322 
z
" style="fill:#1f77b4;"/>
   </g>
   <g id="patch_170">
    <path clip-path="url(#pd7c9e8ac4a)" d="M 686.955938 768.96 
L 688.525313 768.96 
L 688.525313 265.470523 
L 686.955938 265.470523 
z
" style="fill:#1f77b4;"/>
   </g>
   <g id="patch_171">
    <path clip-path="url(#pd7c9e8ac4a)" d="M 690.094688 768.96 
L 691.664063 768.96 
L 691.664063 264.6842 
L 690.094688 264.6842 
z
" style="fill:#1f77b4;"/>
   </g>
   <g id="patch_172">
    <path clip-path="url(#pd7c9e8ac4a)" d="M 693.233438 768.96 
L 694.802813 768.96 
L 694.802813 263.686648 
L 693.233438 263.686648 
z
" style="fill:#1f77b4;"/>
   </g>
   <g id="patch_173">
    <path clip-path="url(#pd7c9e8ac4a)" d="M 696.372188 768.96 
L 697.941563 768.96 
L 697.941563 262.476441 
L 696.372188 262.476441 
z
" style="fill:#1f77b4;"/>
   </g>
   <g id="patch_174">
    <path clip-path="url(#pd7c9e8ac4a)" d="M 699.510938 768.96 
L 701.080313 768.96 
L 701.080313 261.034698 
L 699.510938 261.034698 
z
" style="fill:#1f77b4;"/>
   </g>
   <g id="patch_175">
    <path clip-path="url(#pd7c9e8ac4a)" d="M 702.649688 768.96 
L 704.219063 768.96 
L 704.219063 259.28241 
L 702.649688 259.28241 
z
" style="fill:#1f77b4;"/>
   </g>
   <g id="patch_176">
    <path clip-path="url(#pd7c9e8ac4a)" d="M 705.788438 768.96 
L 707.357813 768.96 
L 707.357813 255.211522 
L 705.788438 255.211522 
z
" style="fill:#1f77b4;"/>
   </g>
   <g id="patch_177">
    <path clip-path="url(#pd7c9e8ac4a)" d="M 708.927188 768.96 
L 710.496563 768.96 
L 710.496563 250.491799 
L 708.927188 250.491799 
z
" style="fill:#1f77b4;"/>
   </g>
   <g id="patch_178">
    <path clip-path="url(#pd7c9e8ac4a)" d="M 712.065938 768.96 
L 713.635313 768.96 
L 713.635313 250.097471 
L 712.065938 250.097471 
z
" style="fill:#1f77b4;"/>
   </g>
   <g id="patch_179">
    <path clip-path="url(#pd7c9e8ac4a)" d="M 715.204688 768.96 
L 716.774063 768.96 
L 716.774063 249.101292 
L 715.204688 249.101292 
z
" style="fill:#1f77b4;"/>
   </g>
   <g id="patch_180">
    <path clip-path="url(#pd7c9e8ac4a)" d="M 718.343438 768.96 
L 719.912813 768.96 
L 719.912813 247.860212 
L 718.343438 247.860212 
z
" style="fill:#1f77b4;"/>
   </g>
   <g id="patch_181">
    <path clip-path="url(#pd7c9e8ac4a)" d="M 721.482188 768.96 
L 723.051563 768.96 
L 723.051563 246.667843 
L 721.482188 246.667843 
z
" style="fill:#1f77b4;"/>
   </g>
   <g id="patch_182">
    <path clip-path="url(#pd7c9e8ac4a)" d="M 724.620938 768.96 
L 726.190313 768.96 
L 726.190313 245.584724 
L 724.620938 245.584724 
z
" style="fill:#1f77b4;"/>
   </g>
   <g id="patch_183">
    <path clip-path="url(#pd7c9e8ac4a)" d="M 727.759688 768.96 
L 729.329063 768.96 
L 729.329063 244.506819 
L 727.759688 244.506819 
z
" style="fill:#1f77b4;"/>
   </g>
   <g id="patch_184">
    <path clip-path="url(#pd7c9e8ac4a)" d="M 730.898438 768.96 
L 732.467813 768.96 
L 732.467813 243.709876 
L 730.898438 243.709876 
z
" style="fill:#1f77b4;"/>
   </g>
   <g id="patch_185">
    <path clip-path="url(#pd7c9e8ac4a)" d="M 734.037188 768.96 
L 735.606563 768.96 
L 735.606563 243.321146 
L 734.037188 243.321146 
z
" style="fill:#1f77b4;"/>
   </g>
   <g id="patch_186">
    <path clip-path="url(#pd7c9e8ac4a)" d="M 737.175938 768.96 
L 738.745313 768.96 
L 738.745313 243.251853 
L 737.175938 243.251853 
z
" style="fill:#1f77b4;"/>
   </g>
   <g id="patch_187">
    <path clip-path="url(#pd7c9e8ac4a)" d="M 740.314688 768.96 
L 741.884063 768.96 
L 741.884063 242.625632 
L 740.314688 242.625632 
z
" style="fill:#1f77b4;"/>
   </g>
   <g id="patch_188">
    <path clip-path="url(#pd7c9e8ac4a)" d="M 743.453438 768.96 
L 745.022813 768.96 
L 745.022813 241.507578 
L 743.453438 241.507578 
z
" style="fill:#1f77b4;"/>
   </g>
   <g id="patch_189">
    <path clip-path="url(#pd7c9e8ac4a)" d="M 746.592188 768.96 
L 748.161563 768.96 
L 748.161563 240.385216 
L 746.592188 240.385216 
z
" style="fill:#1f77b4;"/>
   </g>
   <g id="patch_190">
    <path clip-path="url(#pd7c9e8ac4a)" d="M 749.730938 768.96 
L 751.300313 768.96 
L 751.300313 239.388159 
L 749.730938 239.388159 
z
" style="fill:#1f77b4;"/>
   </g>
   <g id="patch_191">
    <path clip-path="url(#pd7c9e8ac4a)" d="M 752.869688 768.96 
L 754.439063 768.96 
L 754.439063 238.563882 
L 752.869688 238.563882 
z
" style="fill:#1f77b4;"/>
   </g>
   <g id="patch_192">
    <path clip-path="url(#pd7c9e8ac4a)" d="M 756.008438 768.96 
L 757.577813 768.96 
L 757.577813 238.002399 
L 756.008438 238.002399 
z
" style="fill:#1f77b4;"/>
   </g>
   <g id="patch_193">
    <path clip-path="url(#pd7c9e8ac4a)" d="M 759.147188 768.96 
L 760.716563 768.96 
L 760.716563 236.944446 
L 759.147188 236.944446 
z
" style="fill:#1f77b4;"/>
   </g>
   <g id="patch_194">
    <path clip-path="url(#pd7c9e8ac4a)" d="M 762.285938 768.96 
L 763.855313 768.96 
L 763.855313 236.065448 
L 762.285938 236.065448 
z
" style="fill:#1f77b4;"/>
   </g>
   <g id="patch_195">
    <path clip-path="url(#pd7c9e8ac4a)" d="M 765.424688 768.96 
L 766.994063 768.96 
L 766.994063 235.223415 
L 765.424688 235.223415 
z
" style="fill:#1f77b4;"/>
   </g>
   <g id="patch_196">
    <path clip-path="url(#pd7c9e8ac4a)" d="M 768.563438 768.96 
L 770.132813 768.96 
L 770.132813 234.389698 
L 768.563438 234.389698 
z
" style="fill:#1f77b4;"/>
   </g>
   <g id="patch_197">
    <path clip-path="url(#pd7c9e8ac4a)" d="M 771.702188 768.96 
L 773.271563 768.96 
L 773.271563 233.547309 
L 771.702188 233.547309 
z
" style="fill:#1f77b4;"/>
   </g>
   <g id="patch_198">
    <path clip-path="url(#pd7c9e8ac4a)" d="M 774.840938 768.96 
L 776.410313 768.96 
L 776.410313 232.852509 
L 774.840938 232.852509 
z
" style="fill:#1f77b4;"/>
   </g>
   <g id="patch_199">
    <path clip-path="url(#pd7c9e8ac4a)" d="M 777.979688 768.96 
L 779.549063 768.96 
L 779.549063 232.379804 
L 777.979688 232.379804 
z
" style="fill:#1f77b4;"/>
   </g>
   <g id="patch_200">
    <path clip-path="url(#pd7c9e8ac4a)" d="M 781.118438 768.96 
L 782.687813 768.96 
L 782.687813 231.670485 
L 781.118438 231.670485 
z
" style="fill:#1f77b4;"/>
   </g>
   <g id="patch_201">
    <path clip-path="url(#pd7c9e8ac4a)" d="M 784.257188 768.96 
L 785.826563 768.96 
L 785.826563 230.721316 
L 784.257188 230.721316 
z
" style="fill:#1f77b4;"/>
   </g>
   <g id="patch_202">
    <path clip-path="url(#pd7c9e8ac4a)" d="M 787.395938 768.96 
L 788.965313 768.96 
L 788.965313 229.832411 
L 787.395938 229.832411 
z
" style="fill:#1f77b4;"/>
   </g>
   <g id="patch_203">
    <path clip-path="url(#pd7c9e8ac4a)" d="M 790.534688 768.96 
L 792.104063 768.96 
L 792.104063 229.188435 
L 790.534688 229.188435 
z
" style="fill:#1f77b4;"/>
   </g>
   <g id="patch_204">
    <path clip-path="url(#pd7c9e8ac4a)" d="M 793.673438 768.96 
L 795.242813 768.96 
L 795.242813 228.522284 
L 793.673438 228.522284 
z
" style="fill:#1f77b4;"/>
   </g>
   <g id="patch_205">
    <path clip-path="url(#pd7c9e8ac4a)" d="M 796.812188 768.96 
L 798.381563 768.96 
L 798.381563 228.112396 
L 796.812188 228.112396 
z
" style="fill:#1f77b4;"/>
   </g>
   <g id="patch_206">
    <path clip-path="url(#pd7c9e8ac4a)" d="M 799.950938 768.96 
L 801.520313 768.96 
L 801.520313 227.874822 
L 799.950938 227.874822 
z
" style="fill:#1f77b4;"/>
   </g>
   <g id="patch_207">
    <path clip-path="url(#pd7c9e8ac4a)" d="M 803.089688 768.96 
L 804.659063 768.96 
L 804.659063 227.471905 
L 803.089688 227.471905 
z
" style="fill:#1f77b4;"/>
   </g>
   <g id="patch_208">
    <path clip-path="url(#pd7c9e8ac4a)" d="M 806.228438 768.96 
L 807.797813 768.96 
L 807.797813 226.568263 
L 806.228438 226.568263 
z
" style="fill:#1f77b4;"/>
   </g>
   <g id="patch_209">
    <path clip-path="url(#pd7c9e8ac4a)" d="M 809.367188 768.96 
L 810.936563 768.96 
L 810.936563 225.067435 
L 809.367188 225.067435 
z
" style="fill:#1f77b4;"/>
   </g>
   <g id="patch_210">
    <path clip-path="url(#pd7c9e8ac4a)" d="M 812.505938 768.96 
L 814.075313 768.96 
L 814.075313 224.275569 
L 812.505938 224.275569 
z
" style="fill:#1f77b4;"/>
   </g>
   <g id="patch_211">
    <path clip-path="url(#pd7c9e8ac4a)" d="M 815.644688 768.96 
L 817.214063 768.96 
L 817.214063 222.403492 
L 815.644688 222.403492 
z
" style="fill:#1f77b4;"/>
   </g>
   <g id="patch_212">
    <path clip-path="url(#pd7c9e8ac4a)" d="M 818.783438 768.96 
L 820.352813 768.96 
L 820.352813 221.788523 
L 818.783438 221.788523 
z
" style="fill:#1f77b4;"/>
   </g>
   <g id="patch_213">
    <path clip-path="url(#pd7c9e8ac4a)" d="M 821.922188 768.96 
L 823.491563 768.96 
L 823.491563 221.335001 
L 821.922188 221.335001 
z
" style="fill:#1f77b4;"/>
   </g>
   <g id="patch_214">
    <path clip-path="url(#pd7c9e8ac4a)" d="M 825.060938 768.96 
L 826.630313 768.96 
L 826.630313 220.71737 
L 825.060938 220.71737 
z
" style="fill:#1f77b4;"/>
   </g>
   <g id="patch_215">
    <path clip-path="url(#pd7c9e8ac4a)" d="M 828.199688 768.96 
L 829.769063 768.96 
L 829.769063 219.873828 
L 828.199688 219.873828 
z
" style="fill:#1f77b4;"/>
   </g>
   <g id="patch_216">
    <path clip-path="url(#pd7c9e8ac4a)" d="M 831.338438 768.96 
L 832.907813 768.96 
L 832.907813 219.102846 
L 831.338438 219.102846 
z
" style="fill:#1f77b4;"/>
   </g>
   <g id="patch_217">
    <path clip-path="url(#pd7c9e8ac4a)" d="M 834.477188 768.96 
L 836.046563 768.96 
L 836.046563 218.293964 
L 834.477188 218.293964 
z
" style="fill:#1f77b4;"/>
   </g>
   <g id="patch_218">
    <path clip-path="url(#pd7c9e8ac4a)" d="M 837.615938 768.96 
L 839.185313 768.96 
L 839.185313 217.413896 
L 837.615938 217.413896 
z
" style="fill:#1f77b4;"/>
   </g>
   <g id="patch_219">
    <path clip-path="url(#pd7c9e8ac4a)" d="M 840.754688 768.96 
L 842.324063 768.96 
L 842.324063 215.906729 
L 840.754688 215.906729 
z
" style="fill:#1f77b4;"/>
   </g>
   <g id="patch_220">
    <path clip-path="url(#pd7c9e8ac4a)" d="M 843.893438 768.96 
L 845.462813 768.96 
L 845.462813 215.38309 
L 843.893438 215.38309 
z
" style="fill:#1f77b4;"/>
   </g>
   <g id="patch_221">
    <path clip-path="url(#pd7c9e8ac4a)" d="M 847.032188 768.96 
L 848.601563 768.96 
L 848.601563 214.781869 
L 847.032188 214.781869 
z
" style="fill:#1f77b4;"/>
   </g>
   <g id="patch_222">
    <path clip-path="url(#pd7c9e8ac4a)" d="M 850.170938 768.96 
L 851.740313 768.96 
L 851.740313 214.196127 
L 850.170938 214.196127 
z
" style="fill:#1f77b4;"/>
   </g>
   <g id="patch_223">
    <path clip-path="url(#pd7c9e8ac4a)" d="M 853.309688 768.96 
L 854.879063 768.96 
L 854.879063 211.93362 
L 853.309688 211.93362 
z
" style="fill:#1f77b4;"/>
   </g>
   <g id="patch_224">
    <path clip-path="url(#pd7c9e8ac4a)" d="M 856.448438 768.96 
L 858.017813 768.96 
L 858.017813 209.960992 
L 856.448438 209.960992 
z
" style="fill:#1f77b4;"/>
   </g>
   <g id="patch_225">
    <path clip-path="url(#pd7c9e8ac4a)" d="M 859.587188 768.96 
L 861.156563 768.96 
L 861.156563 208.323773 
L 859.587188 208.323773 
z
" style="fill:#1f77b4;"/>
   </g>
   <g id="patch_226">
    <path clip-path="url(#pd7c9e8ac4a)" d="M 862.725938 768.96 
L 864.295313 768.96 
L 864.295313 206.026743 
L 862.725938 206.026743 
z
" style="fill:#1f77b4;"/>
   </g>
   <g id="patch_227">
    <path clip-path="url(#pd7c9e8ac4a)" d="M 865.864688 768.96 
L 867.434063 768.96 
L 867.434063 204.463015 
L 865.864688 204.463015 
z
" style="fill:#1f77b4;"/>
   </g>
   <g id="patch_228">
    <path clip-path="url(#pd7c9e8ac4a)" d="M 869.003438 768.96 
L 870.572813 768.96 
L 870.572813 203.751694 
L 869.003438 203.751694 
z
" style="fill:#1f77b4;"/>
   </g>
   <g id="patch_229">
    <path clip-path="url(#pd7c9e8ac4a)" d="M 872.142188 768.96 
L 873.711563 768.96 
L 873.711563 202.733999 
L 872.142188 202.733999 
z
" style="fill:#1f77b4;"/>
   </g>
   <g id="patch_230">
    <path clip-path="url(#pd7c9e8ac4a)" d="M 875.280938 768.96 
L 876.850313 768.96 
L 876.850313 201.769242 
L 875.280938 201.769242 
z
" style="fill:#1f77b4;"/>
   </g>
   <g id="patch_231">
    <path clip-path="url(#pd7c9e8ac4a)" d="M 878.419688 768.96 
L 879.989063 768.96 
L 879.989063 200.850699 
L 878.419688 200.850699 
z
" style="fill:#1f77b4;"/>
   </g>
   <g id="patch_232">
    <path clip-path="url(#pd7c9e8ac4a)" d="M 881.558438 768.96 
L 883.127813 768.96 
L 883.127813 199.961437 
L 881.558438 199.961437 
z
" style="fill:#1f77b4;"/>
   </g>
   <g id="patch_233">
    <path clip-path="url(#pd7c9e8ac4a)" d="M 884.697188 768.96 
L 886.266563 768.96 
L 886.266563 199.074563 
L 884.697188 199.074563 
z
" style="fill:#1f77b4;"/>
   </g>
   <g id="patch_234">
    <path clip-path="url(#pd7c9e8ac4a)" d="M 887.835938 768.96 
L 889.405313 768.96 
L 889.405313 198.487256 
L 887.835938 198.487256 
z
" style="fill:#1f77b4;"/>
   </g>
   <g id="patch_235">
    <path clip-path="url(#pd7c9e8ac4a)" d="M 890.974688 768.96 
L 892.544063 768.96 
L 892.544063 197.74808 
L 890.974688 197.74808 
z
" style="fill:#1f77b4;"/>
   </g>
   <g id="patch_236">
    <path clip-path="url(#pd7c9e8ac4a)" d="M 894.113438 768.96 
L 895.682813 768.96 
L 895.682813 196.723717 
L 894.113438 196.723717 
z
" style="fill:#1f77b4;"/>
   </g>
   <g id="patch_237">
    <path clip-path="url(#pd7c9e8ac4a)" d="M 897.252188 768.96 
L 898.821563 768.96 
L 898.821563 195.742549 
L 897.252188 195.742549 
z
" style="fill:#1f77b4;"/>
   </g>
   <g id="patch_238">
    <path clip-path="url(#pd7c9e8ac4a)" d="M 900.390938 768.96 
L 901.960313 768.96 
L 901.960313 194.675045 
L 900.390938 194.675045 
z
" style="fill:#1f77b4;"/>
   </g>
   <g id="patch_239">
    <path clip-path="url(#pd7c9e8ac4a)" d="M 903.529688 768.96 
L 905.099063 768.96 
L 905.099063 193.466155 
L 903.529688 193.466155 
z
" style="fill:#1f77b4;"/>
   </g>
   <g id="patch_240">
    <path clip-path="url(#pd7c9e8ac4a)" d="M 906.668438 768.96 
L 908.237813 768.96 
L 908.237813 191.693917 
L 906.668438 191.693917 
z
" style="fill:#1f77b4;"/>
   </g>
   <g id="patch_241">
    <path clip-path="url(#pd7c9e8ac4a)" d="M 909.807188 768.96 
L 911.376563 768.96 
L 911.376563 188.874729 
L 909.807188 188.874729 
z
" style="fill:#1f77b4;"/>
   </g>
   <g id="patch_242">
    <path clip-path="url(#pd7c9e8ac4a)" d="M 912.945938 768.96 
L 914.515313 768.96 
L 914.515313 187.61968 
L 912.945938 187.61968 
z
" style="fill:#1f77b4;"/>
   </g>
   <g id="patch_243">
    <path clip-path="url(#pd7c9e8ac4a)" d="M 916.084688 768.96 
L 917.654063 768.96 
L 917.654063 186.595701 
L 916.084688 186.595701 
z
" style="fill:#1f77b4;"/>
   </g>
   <g id="patch_244">
    <path clip-path="url(#pd7c9e8ac4a)" d="M 919.223438 768.96 
L 920.792813 768.96 
L 920.792813 185.643129 
L 919.223438 185.643129 
z
" style="fill:#1f77b4;"/>
   </g>
   <g id="patch_245">
    <path clip-path="url(#pd7c9e8ac4a)" d="M 922.362188 768.96 
L 923.931563 768.96 
L 923.931563 184.757215 
L 922.362188 184.757215 
z
" style="fill:#1f77b4;"/>
   </g>
   <g id="patch_246">
    <path clip-path="url(#pd7c9e8ac4a)" d="M 925.500938 768.96 
L 927.070313 768.96 
L 927.070313 183.866718 
L 925.500938 183.866718 
z
" style="fill:#1f77b4;"/>
   </g>
   <g id="patch_247">
    <path clip-path="url(#pd7c9e8ac4a)" d="M 928.639688 768.96 
L 930.209063 768.96 
L 930.209063 183.060829 
L 928.639688 183.060829 
z
" style="fill:#1f77b4;"/>
   </g>
   <g id="patch_248">
    <path clip-path="url(#pd7c9e8ac4a)" d="M 931.778438 768.96 
L 933.347813 768.96 
L 933.347813 182.513396 
L 931.778438 182.513396 
z
" style="fill:#1f77b4;"/>
   </g>
   <g id="patch_249">
    <path clip-path="url(#pd7c9e8ac4a)" d="M 934.917188 768.96 
L 936.486563 768.96 
L 936.486563 182.126533 
L 934.917188 182.126533 
z
" style="fill:#1f77b4;"/>
   </g>
   <g id="patch_250">
    <path clip-path="url(#pd7c9e8ac4a)" d="M 938.055938 768.96 
L 939.625313 768.96 
L 939.625313 181.633657 
L 938.055938 181.633657 
z
" style="fill:#1f77b4;"/>
   </g>
   <g id="patch_251">
    <path clip-path="url(#pd7c9e8ac4a)" d="M 941.194688 768.96 
L 942.764063 768.96 
L 942.764063 180.638576 
L 941.194688 180.638576 
z
" style="fill:#1f77b4;"/>
   </g>
   <g id="patch_252">
    <path clip-path="url(#pd7c9e8ac4a)" d="M 944.333438 768.96 
L 945.902813 768.96 
L 945.902813 179.758206 
L 944.333438 179.758206 
z
" style="fill:#1f77b4;"/>
   </g>
   <g id="patch_253">
    <path clip-path="url(#pd7c9e8ac4a)" d="M 947.472188 768.96 
L 949.041563 768.96 
L 949.041563 178.919604 
L 947.472188 178.919604 
z
" style="fill:#1f77b4;"/>
   </g>
   <g id="patch_254">
    <path clip-path="url(#pd7c9e8ac4a)" d="M 950.610938 768.96 
L 952.180313 768.96 
L 952.180313 178.171399 
L 950.610938 178.171399 
z
" style="fill:#1f77b4;"/>
   </g>
   <g id="patch_255">
    <path clip-path="url(#pd7c9e8ac4a)" d="M 953.749688 768.96 
L 955.319063 768.96 
L 955.319063 177.618012 
L 953.749688 177.618012 
z
" style="fill:#1f77b4;"/>
   </g>
   <g id="patch_256">
    <path clip-path="url(#pd7c9e8ac4a)" d="M 956.888438 768.96 
L 958.457813 768.96 
L 958.457813 176.985589 
L 956.888438 176.985589 
z
" style="fill:#1f77b4;"/>
   </g>
   <g id="patch_257">
    <path clip-path="url(#pd7c9e8ac4a)" d="M 960.027188 768.96 
L 961.596563 768.96 
L 961.596563 176.117184 
L 960.027188 176.117184 
z
" style="fill:#1f77b4;"/>
   </g>
   <g id="patch_258">
    <path clip-path="url(#pd7c9e8ac4a)" d="M 963.165938 768.96 
L 964.735313 768.96 
L 964.735313 175.29137 
L 963.165938 175.29137 
z
" style="fill:#1f77b4;"/>
   </g>
   <g id="patch_259">
    <path clip-path="url(#pd7c9e8ac4a)" d="M 966.304688 768.96 
L 967.874063 768.96 
L 967.874063 174.462812 
L 966.304688 174.462812 
z
" style="fill:#1f77b4;"/>
   </g>
   <g id="patch_260">
    <path clip-path="url(#pd7c9e8ac4a)" d="M 969.443438 768.96 
L 971.012813 768.96 
L 971.012813 173.604589 
L 969.443438 173.604589 
z
" style="fill:#1f77b4;"/>
   </g>
   <g id="patch_261">
    <path clip-path="url(#pd7c9e8ac4a)" d="M 972.582188 768.96 
L 974.151563 768.96 
L 974.151563 172.775565 
L 972.582188 172.775565 
z
" style="fill:#1f77b4;"/>
   </g>
   <g id="patch_262">
    <path clip-path="url(#pd7c9e8ac4a)" d="M 975.720938 768.96 
L 977.290313 768.96 
L 977.290313 172.180821 
L 975.720938 172.180821 
z
" style="fill:#1f77b4;"/>
   </g>
   <g id="patch_263">
    <path clip-path="url(#pd7c9e8ac4a)" d="M 978.859688 768.96 
L 980.429063 768.96 
L 980.429063 171.611983 
L 978.859688 171.611983 
z
" style="fill:#1f77b4;"/>
   </g>
   <g id="patch_264">
    <path clip-path="url(#pd7c9e8ac4a)" d="M 981.998438 768.96 
L 983.567813 768.96 
L 983.567813 170.644537 
L 981.998438 170.644537 
z
" style="fill:#1f77b4;"/>
   </g>
   <g id="patch_265">
    <path clip-path="url(#pd7c9e8ac4a)" d="M 985.137188 768.96 
L 986.706563 768.96 
L 986.706563 169.937716 
L 985.137188 169.937716 
z
" style="fill:#1f77b4;"/>
   </g>
   <g id="patch_266">
    <path clip-path="url(#pd7c9e8ac4a)" d="M 988.275938 768.96 
L 989.845313 768.96 
L 989.845313 168.905668 
L 988.275938 168.905668 
z
" style="fill:#1f77b4;"/>
   </g>
   <g id="patch_267">
    <path clip-path="url(#pd7c9e8ac4a)" d="M 991.414688 768.96 
L 992.984063 768.96 
L 992.984063 167.918243 
L 991.414688 167.918243 
z
" style="fill:#1f77b4;"/>
   </g>
   <g id="patch_268">
    <path clip-path="url(#pd7c9e8ac4a)" d="M 994.553438 768.96 
L 996.122813 768.96 
L 996.122813 167.135982 
L 994.553438 167.135982 
z
" style="fill:#1f77b4;"/>
   </g>
   <g id="patch_269">
    <path clip-path="url(#pd7c9e8ac4a)" d="M 997.692188 768.96 
L 999.261563 768.96 
L 999.261563 166.626009 
L 997.692188 166.626009 
z
" style="fill:#1f77b4;"/>
   </g>
   <g id="patch_270">
    <path clip-path="url(#pd7c9e8ac4a)" d="M 1000.830938 768.96 
L 1002.400313 768.96 
L 1002.400313 165.976297 
L 1000.830938 165.976297 
z
" style="fill:#1f77b4;"/>
   </g>
   <g id="patch_271">
    <path clip-path="url(#pd7c9e8ac4a)" d="M 1003.969688 768.96 
L 1005.539063 768.96 
L 1005.539063 165.214096 
L 1003.969688 165.214096 
z
" style="fill:#1f77b4;"/>
   </g>
   <g id="patch_272">
    <path clip-path="url(#pd7c9e8ac4a)" d="M 1007.108438 768.96 
L 1008.677813 768.96 
L 1008.677813 164.653876 
L 1007.108438 164.653876 
z
" style="fill:#1f77b4;"/>
   </g>
   <g id="patch_273">
    <path clip-path="url(#pd7c9e8ac4a)" d="M 1010.247188 768.96 
L 1011.816563 768.96 
L 1011.816563 164.265009 
L 1010.247188 164.265009 
z
" style="fill:#1f77b4;"/>
   </g>
   <g id="patch_274">
    <path clip-path="url(#pd7c9e8ac4a)" d="M 1013.385938 768.96 
L 1014.955313 768.96 
L 1014.955313 163.297151 
L 1013.385938 163.297151 
z
" style="fill:#1f77b4;"/>
   </g>
   <g id="patch_275">
    <path clip-path="url(#pd7c9e8ac4a)" d="M 1016.524688 768.96 
L 1018.094063 768.96 
L 1018.094063 162.041169 
L 1016.524688 162.041169 
z
" style="fill:#1f77b4;"/>
   </g>
   <g id="patch_276">
    <path clip-path="url(#pd7c9e8ac4a)" d="M 1019.663438 768.96 
L 1021.232813 768.96 
L 1021.232813 161.618438 
L 1019.663438 161.618438 
z
" style="fill:#1f77b4;"/>
   </g>
   <g id="patch_277">
    <path clip-path="url(#pd7c9e8ac4a)" d="M 1022.802188 768.96 
L 1024.371563 768.96 
L 1024.371563 160.797454 
L 1022.802188 160.797454 
z
" style="fill:#1f77b4;"/>
   </g>
   <g id="patch_278">
    <path clip-path="url(#pd7c9e8ac4a)" d="M 1025.940938 768.96 
L 1027.510313 768.96 
L 1027.510313 160.326808 
L 1025.940938 160.326808 
z
" style="fill:#1f77b4;"/>
   </g>
   <g id="patch_279">
    <path clip-path="url(#pd7c9e8ac4a)" d="M 1029.079688 768.96 
L 1030.649063 768.96 
L 1030.649063 159.364438 
L 1029.079688 159.364438 
z
" style="fill:#1f77b4;"/>
   </g>
   <g id="patch_280">
    <path clip-path="url(#pd7c9e8ac4a)" d="M 1032.218438 768.96 
L 1033.787813 768.96 
L 1033.787813 158.694336 
L 1032.218438 158.694336 
z
" style="fill:#1f77b4;"/>
   </g>
   <g id="patch_281">
    <path clip-path="url(#pd7c9e8ac4a)" d="M 1035.357188 768.96 
L 1036.926563 768.96 
L 1036.926563 158.048191 
L 1035.357188 158.048191 
z
" style="fill:#1f77b4;"/>
   </g>
   <g id="patch_282">
    <path clip-path="url(#pd7c9e8ac4a)" d="M 1038.495938 768.96 
L 1040.065313 768.96 
L 1040.065313 157.608692 
L 1038.495938 157.608692 
z
" style="fill:#1f77b4;"/>
   </g>
   <g id="patch_283">
    <path clip-path="url(#pd7c9e8ac4a)" d="M 1041.634688 768.96 
L 1043.204063 768.96 
L 1043.204063 157.293373 
L 1041.634688 157.293373 
z
" style="fill:#1f77b4;"/>
   </g>
   <g id="patch_284">
    <path clip-path="url(#pd7c9e8ac4a)" d="M 1044.773438 768.96 
L 1046.342813 768.96 
L 1046.342813 156.843198 
L 1044.773438 156.843198 
z
" style="fill:#1f77b4;"/>
   </g>
   <g id="patch_285">
    <path clip-path="url(#pd7c9e8ac4a)" d="M 1047.912188 768.96 
L 1049.481563 768.96 
L 1049.481563 156.188794 
L 1047.912188 156.188794 
z
" style="fill:#1f77b4;"/>
   </g>
   <g id="patch_286">
    <path clip-path="url(#pd7c9e8ac4a)" d="M 1051.050938 768.96 
L 1052.620313 768.96 
L 1052.620313 155.464601 
L 1051.050938 155.464601 
z
" style="fill:#1f77b4;"/>
   </g>
   <g id="patch_287">
    <path clip-path="url(#pd7c9e8ac4a)" d="M 1054.189687 768.96 
L 1055.759063 768.96 
L 1055.759063 154.940139 
L 1054.189687 154.940139 
z
" style="fill:#1f77b4;"/>
   </g>
   <g id="patch_288">
    <path clip-path="url(#pd7c9e8ac4a)" d="M 1057.328438 768.96 
L 1058.897813 768.96 
L 1058.897813 154.065587 
L 1057.328438 154.065587 
z
" style="fill:#1f77b4;"/>
   </g>
   <g id="patch_289">
    <path clip-path="url(#pd7c9e8ac4a)" d="M 1060.467188 768.96 
L 1062.036563 768.96 
L 1062.036563 153.553995 
L 1060.467188 153.553995 
z
" style="fill:#1f77b4;"/>
   </g>
   <g id="patch_290">
    <path clip-path="url(#pd7c9e8ac4a)" d="M 1063.605937 768.96 
L 1065.175313 768.96 
L 1065.175313 153.254483 
L 1063.605937 153.254483 
z
" style="fill:#1f77b4;"/>
   </g>
   <g id="patch_291">
    <path clip-path="url(#pd7c9e8ac4a)" d="M 1066.744688 768.96 
L 1068.314063 768.96 
L 1068.314063 152.76372 
L 1066.744688 152.76372 
z
" style="fill:#1f77b4;"/>
   </g>
   <g id="patch_292">
    <path clip-path="url(#pd7c9e8ac4a)" d="M 1069.883438 768.96 
L 1071.452813 768.96 
L 1071.452813 152.177539 
L 1069.883438 152.177539 
z
" style="fill:#1f77b4;"/>
   </g>
   <g id="patch_293">
    <path clip-path="url(#pd7c9e8ac4a)" d="M 1073.022188 768.96 
L 1074.591563 768.96 
L 1074.591563 151.575248 
L 1073.022188 151.575248 
z
" style="fill:#1f77b4;"/>
   </g>
   <g id="patch_294">
    <path clip-path="url(#pd7c9e8ac4a)" d="M 1076.160938 768.96 
L 1077.730313 768.96 
L 1077.730313 150.882917 
L 1076.160938 150.882917 
z
" style="fill:#1f77b4;"/>
   </g>
   <g id="patch_295">
    <path clip-path="url(#pd7c9e8ac4a)" d="M 1079.299688 768.96 
L 1080.869063 768.96 
L 1080.869063 150.273437 
L 1079.299688 150.273437 
z
" style="fill:#1f77b4;"/>
   </g>
   <g id="patch_296">
    <path clip-path="url(#pd7c9e8ac4a)" d="M 1082.438438 768.96 
L 1084.007813 768.96 
L 1084.007813 149.836243 
L 1082.438438 149.836243 
z
" style="fill:#1f77b4;"/>
   </g>
   <g id="patch_297">
    <path clip-path="url(#pd7c9e8ac4a)" d="M 1085.577188 768.96 
L 1087.146563 768.96 
L 1087.146563 149.472569 
L 1085.577188 149.472569 
z
" style="fill:#1f77b4;"/>
   </g>
   <g id="patch_298">
    <path clip-path="url(#pd7c9e8ac4a)" d="M 1088.715938 768.96 
L 1090.285313 768.96 
L 1090.285313 148.991027 
L 1088.715938 148.991027 
z
" style="fill:#1f77b4;"/>
   </g>
   <g id="patch_299">
    <path clip-path="url(#pd7c9e8ac4a)" d="M 1091.854688 768.96 
L 1093.424063 768.96 
L 1093.424063 148.261923 
L 1091.854688 148.261923 
z
" style="fill:#1f77b4;"/>
   </g>
   <g id="patch_300">
    <path clip-path="url(#pd7c9e8ac4a)" d="M 1094.993438 768.96 
L 1096.562813 768.96 
L 1096.562813 147.674588 
L 1094.993438 147.674588 
z
" style="fill:#1f77b4;"/>
   </g>
   <g id="patch_301">
    <path clip-path="url(#pd7c9e8ac4a)" d="M 1098.132188 768.96 
L 1099.701563 768.96 
L 1099.701563 147.113215 
L 1098.132188 147.113215 
z
" style="fill:#1f77b4;"/>
   </g>
   <g id="patch_302">
    <path clip-path="url(#pd7c9e8ac4a)" d="M 1101.270938 768.96 
L 1102.840313 768.96 
L 1102.840313 145.416143 
L 1101.270938 145.416143 
z
" style="fill:#1f77b4;"/>
   </g>
   <g id="patch_303">
    <path clip-path="url(#pd7c9e8ac4a)" d="M 1104.409688 768.96 
L 1105.979063 768.96 
L 1105.979063 144.937236 
L 1104.409688 144.937236 
z
" style="fill:#1f77b4;"/>
   </g>
   <g id="patch_304">
    <path clip-path="url(#pd7c9e8ac4a)" d="M 1107.548438 768.96 
L 1109.117813 768.96 
L 1109.117813 144.614232 
L 1107.548438 144.614232 
z
" style="fill:#1f77b4;"/>
   </g>
   <g id="patch_305">
    <path clip-path="url(#pd7c9e8ac4a)" d="M 1110.687188 768.96 
L 1112.256563 768.96 
L 1112.256563 144.227369 
L 1110.687188 144.227369 
z
" style="fill:#1f77b4;"/>
   </g>
   <g id="patch_306">
    <path clip-path="url(#pd7c9e8ac4a)" d="M 1113.825938 768.96 
L 1115.395313 768.96 
L 1115.395313 143.713362 
L 1113.825938 143.713362 
z
" style="fill:#1f77b4;"/>
   </g>
   <g id="patch_307">
    <path clip-path="url(#pd7c9e8ac4a)" d="M 1116.964688 768.96 
L 1118.534063 768.96 
L 1118.534063 143.399469 
L 1116.964688 143.399469 
z
" style="fill:#1f77b4;"/>
   </g>
   <g id="patch_308">
    <path clip-path="url(#pd7c9e8ac4a)" d="M 1120.103438 768.96 
L 1121.672813 768.96 
L 1121.672813 142.911342 
L 1120.103438 142.911342 
z
" style="fill:#1f77b4;"/>
   </g>
   <g id="patch_309">
    <path clip-path="url(#pd7c9e8ac4a)" d="M 1123.242188 768.96 
L 1124.811563 768.96 
L 1124.811563 142.308749 
L 1123.242188 142.308749 
z
" style="fill:#1f77b4;"/>
   </g>
   <g id="patch_310">
    <path clip-path="url(#pd7c9e8ac4a)" d="M 1126.380938 768.96 
L 1127.950313 768.96 
L 1127.950313 141.599925 
L 1126.380938 141.599925 
z
" style="fill:#1f77b4;"/>
   </g>
   <g id="patch_311">
    <path clip-path="url(#pd7c9e8ac4a)" d="M 1129.519688 768.96 
L 1131.089063 768.96 
L 1131.089063 141.380903 
L 1129.519688 141.380903 
z
" style="fill:#1f77b4;"/>
   </g>
   <g id="patch_312">
    <path clip-path="url(#pd7c9e8ac4a)" d="M 1132.658437 768.96 
L 1134.227813 768.96 
L 1134.227813 141.022772 
L 1132.658437 141.022772 
z
" style="fill:#1f77b4;"/>
   </g>
   <g id="patch_313">
    <path clip-path="url(#pd7c9e8ac4a)" d="M 1135.797188 768.96 
L 1137.366563 768.96 
L 1137.366563 140.26359 
L 1135.797188 140.26359 
z
" style="fill:#1f77b4;"/>
   </g>
   <g id="patch_314">
    <path clip-path="url(#pd7c9e8ac4a)" d="M 1138.935938 768.96 
L 1140.505313 768.96 
L 1140.505313 139.625267 
L 1138.935938 139.625267 
z
" style="fill:#1f77b4;"/>
   </g>
   <g id="patch_315">
    <path clip-path="url(#pd7c9e8ac4a)" d="M 1142.074688 768.96 
L 1143.644063 768.96 
L 1143.644063 139.024294 
L 1142.074688 139.024294 
z
" style="fill:#1f77b4;"/>
   </g>
   <g id="patch_316">
    <path clip-path="url(#pd7c9e8ac4a)" d="M 1145.213438 768.96 
L 1146.782813 768.96 
L 1146.782813 138.400433 
L 1145.213438 138.400433 
z
" style="fill:#1f77b4;"/>
   </g>
   <g id="patch_317">
    <path clip-path="url(#pd7c9e8ac4a)" d="M 1148.352188 768.96 
L 1149.921563 768.96 
L 1149.921563 137.898446 
L 1148.352188 137.898446 
z
" style="fill:#1f77b4;"/>
   </g>
   <g id="patch_318">
    <path clip-path="url(#pd7c9e8ac4a)" d="M 1151.490938 768.96 
L 1153.060313 768.96 
L 1153.060313 137.61872 
L 1151.490938 137.61872 
z
" style="fill:#1f77b4;"/>
   </g>
   <g id="patch_319">
    <path clip-path="url(#pd7c9e8ac4a)" d="M 1154.629688 768.96 
L 1156.199063 768.96 
L 1156.199063 137.168903 
L 1154.629688 137.168903 
z
" style="fill:#1f77b4;"/>
   </g>
   <g id="patch_320">
    <path clip-path="url(#pd7c9e8ac4a)" d="M 1157.768438 768.96 
L 1159.337813 768.96 
L 1159.337813 136.562029 
L 1157.768438 136.562029 
z
" style="fill:#1f77b4;"/>
   </g>
   <g id="patch_321">
    <path clip-path="url(#pd7c9e8ac4a)" d="M 1160.907188 768.96 
L 1162.476563 768.96 
L 1162.476563 135.9624 
L 1160.907188 135.9624 
z
" style="fill:#1f77b4;"/>
   </g>
   <g id="patch_322">
    <path clip-path="url(#pd7c9e8ac4a)" d="M 1164.045938 768.96 
L 1165.615313 768.96 
L 1165.615313 135.36 
L 1164.045938 135.36 
z
" style="fill:#1f77b4;"/>
   </g>
   <g id="matplotlib.axis_1">
    <g id="xtick_1">
     <g id="line2d_1">
      <defs>
       <path d="M 0 0 
L 0 3.5 
" id="m4fb6d62957" style="stroke:#000000;stroke-width:0.8;"/>
      </defs>
      <g>
       <use style="stroke:#000000;stroke-width:0.8;" x="163.569375" xlink:href="#m4fb6d62957" y="768.96"/>
      </g>
     </g>
     <g id="text_1">
      <!-- January -->
      <g transform="translate(144.613906 783.558437)scale(0.1 -0.1)">
       <defs>
        <path d="M 628 4666 
L 1259 4666 
L 1259 325 
Q 1259 -519 939 -900 
Q 619 -1281 -91 -1281 
L -331 -1281 
L -331 -750 
L -134 -750 
Q 284 -750 456 -515 
Q 628 -281 628 325 
L 628 4666 
z
" id="DejaVuSans-4a" transform="scale(0.015625)"/>
        <path d="M 2194 1759 
Q 1497 1759 1228 1600 
Q 959 1441 959 1056 
Q 959 750 1161 570 
Q 1363 391 1709 391 
Q 2188 391 2477 730 
Q 2766 1069 2766 1631 
L 2766 1759 
L 2194 1759 
z
M 3341 1997 
L 3341 0 
L 2766 0 
L 2766 531 
Q 2569 213 2275 61 
Q 1981 -91 1556 -91 
Q 1019 -91 701 211 
Q 384 513 384 1019 
Q 384 1609 779 1909 
Q 1175 2209 1959 2209 
L 2766 2209 
L 2766 2266 
Q 2766 2663 2505 2880 
Q 2244 3097 1772 3097 
Q 1472 3097 1187 3025 
Q 903 2953 641 2809 
L 641 3341 
Q 956 3463 1253 3523 
Q 1550 3584 1831 3584 
Q 2591 3584 2966 3190 
Q 3341 2797 3341 1997 
z
" id="DejaVuSans-61" transform="scale(0.015625)"/>
        <path d="M 3513 2113 
L 3513 0 
L 2938 0 
L 2938 2094 
Q 2938 2591 2744 2837 
Q 2550 3084 2163 3084 
Q 1697 3084 1428 2787 
Q 1159 2491 1159 1978 
L 1159 0 
L 581 0 
L 581 3500 
L 1159 3500 
L 1159 2956 
Q 1366 3272 1645 3428 
Q 1925 3584 2291 3584 
Q 2894 3584 3203 3211 
Q 3513 2838 3513 2113 
z
" id="DejaVuSans-6e" transform="scale(0.015625)"/>
        <path d="M 544 1381 
L 544 3500 
L 1119 3500 
L 1119 1403 
Q 1119 906 1312 657 
Q 1506 409 1894 409 
Q 2359 409 2629 706 
Q 2900 1003 2900 1516 
L 2900 3500 
L 3475 3500 
L 3475 0 
L 2900 0 
L 2900 538 
Q 2691 219 2414 64 
Q 2138 -91 1772 -91 
Q 1169 -91 856 284 
Q 544 659 544 1381 
z
M 1991 3584 
L 1991 3584 
z
" id="DejaVuSans-75" transform="scale(0.015625)"/>
        <path d="M 2631 2963 
Q 2534 3019 2420 3045 
Q 2306 3072 2169 3072 
Q 1681 3072 1420 2755 
Q 1159 2438 1159 1844 
L 1159 0 
L 581 0 
L 581 3500 
L 1159 3500 
L 1159 2956 
Q 1341 3275 1631 3429 
Q 1922 3584 2338 3584 
Q 2397 3584 2469 3576 
Q 2541 3569 2628 3553 
L 2631 2963 
z
" id="DejaVuSans-72" transform="scale(0.015625)"/>
        <path d="M 2059 -325 
Q 1816 -950 1584 -1140 
Q 1353 -1331 966 -1331 
L 506 -1331 
L 506 -850 
L 844 -850 
Q 1081 -850 1212 -737 
Q 1344 -625 1503 -206 
L 1606 56 
L 191 3500 
L 800 3500 
L 1894 763 
L 2988 3500 
L 3597 3500 
L 2059 -325 
z
" id="DejaVuSans-79" transform="scale(0.015625)"/>
       </defs>
       <use xlink:href="#DejaVuSans-4a"/>
       <use x="29.492188" xlink:href="#DejaVuSans-61"/>
       <use x="90.771484" xlink:href="#DejaVuSans-6e"/>
       <use x="154.150391" xlink:href="#DejaVuSans-75"/>
       <use x="217.529297" xlink:href="#DejaVuSans-61"/>
       <use x="278.808594" xlink:href="#DejaVuSans-72"/>
       <use x="319.921875" xlink:href="#DejaVuSans-79"/>
      </g>
     </g>
    </g>
    <g id="xtick_2">
     <g id="line2d_2">
      <g>
       <use style="stroke:#000000;stroke-width:0.8;" x="260.870625" xlink:href="#m4fb6d62957" y="768.96"/>
      </g>
     </g>
     <g id="text_2">
      <!-- February -->
      <g transform="translate(238.715938 783.558437)scale(0.1 -0.1)">
       <defs>
        <path d="M 628 4666 
L 3309 4666 
L 3309 4134 
L 1259 4134 
L 1259 2759 
L 3109 2759 
L 3109 2228 
L 1259 2228 
L 1259 0 
L 628 0 
L 628 4666 
z
" id="DejaVuSans-46" transform="scale(0.015625)"/>
        <path d="M 3597 1894 
L 3597 1613 
L 953 1613 
Q 991 1019 1311 708 
Q 1631 397 2203 397 
Q 2534 397 2845 478 
Q 3156 559 3463 722 
L 3463 178 
Q 3153 47 2828 -22 
Q 2503 -91 2169 -91 
Q 1331 -91 842 396 
Q 353 884 353 1716 
Q 353 2575 817 3079 
Q 1281 3584 2069 3584 
Q 2775 3584 3186 3129 
Q 3597 2675 3597 1894 
z
M 3022 2063 
Q 3016 2534 2758 2815 
Q 2500 3097 2075 3097 
Q 1594 3097 1305 2825 
Q 1016 2553 972 2059 
L 3022 2063 
z
" id="DejaVuSans-65" transform="scale(0.015625)"/>
        <path d="M 3116 1747 
Q 3116 2381 2855 2742 
Q 2594 3103 2138 3103 
Q 1681 3103 1420 2742 
Q 1159 2381 1159 1747 
Q 1159 1113 1420 752 
Q 1681 391 2138 391 
Q 2594 391 2855 752 
Q 3116 1113 3116 1747 
z
M 1159 2969 
Q 1341 3281 1617 3432 
Q 1894 3584 2278 3584 
Q 2916 3584 3314 3078 
Q 3713 2572 3713 1747 
Q 3713 922 3314 415 
Q 2916 -91 2278 -91 
Q 1894 -91 1617 61 
Q 1341 213 1159 525 
L 1159 0 
L 581 0 
L 581 4863 
L 1159 4863 
L 1159 2969 
z
" id="DejaVuSans-62" transform="scale(0.015625)"/>
       </defs>
       <use xlink:href="#DejaVuSans-46"/>
       <use x="52.019531" xlink:href="#DejaVuSans-65"/>
       <use x="113.542969" xlink:href="#DejaVuSans-62"/>
       <use x="177.019531" xlink:href="#DejaVuSans-72"/>
       <use x="218.132812" xlink:href="#DejaVuSans-75"/>
       <use x="281.511719" xlink:href="#DejaVuSans-61"/>
       <use x="342.791016" xlink:href="#DejaVuSans-72"/>
       <use x="383.904297" xlink:href="#DejaVuSans-79"/>
      </g>
     </g>
    </g>
    <g id="xtick_3">
     <g id="line2d_3">
      <g>
       <use style="stroke:#000000;stroke-width:0.8;" x="348.755625" xlink:href="#m4fb6d62957" y="768.96"/>
      </g>
     </g>
     <g id="text_3">
      <!-- March -->
      <g transform="translate(333.516563 783.558437)scale(0.1 -0.1)">
       <defs>
        <path d="M 628 4666 
L 1569 4666 
L 2759 1491 
L 3956 4666 
L 4897 4666 
L 4897 0 
L 4281 0 
L 4281 4097 
L 3078 897 
L 2444 897 
L 1241 4097 
L 1241 0 
L 628 0 
L 628 4666 
z
" id="DejaVuSans-4d" transform="scale(0.015625)"/>
        <path d="M 3122 3366 
L 3122 2828 
Q 2878 2963 2633 3030 
Q 2388 3097 2138 3097 
Q 1578 3097 1268 2742 
Q 959 2388 959 1747 
Q 959 1106 1268 751 
Q 1578 397 2138 397 
Q 2388 397 2633 464 
Q 2878 531 3122 666 
L 3122 134 
Q 2881 22 2623 -34 
Q 2366 -91 2075 -91 
Q 1284 -91 818 406 
Q 353 903 353 1747 
Q 353 2603 823 3093 
Q 1294 3584 2113 3584 
Q 2378 3584 2631 3529 
Q 2884 3475 3122 3366 
z
" id="DejaVuSans-63" transform="scale(0.015625)"/>
        <path d="M 3513 2113 
L 3513 0 
L 2938 0 
L 2938 2094 
Q 2938 2591 2744 2837 
Q 2550 3084 2163 3084 
Q 1697 3084 1428 2787 
Q 1159 2491 1159 1978 
L 1159 0 
L 581 0 
L 581 4863 
L 1159 4863 
L 1159 2956 
Q 1366 3272 1645 3428 
Q 1925 3584 2291 3584 
Q 2894 3584 3203 3211 
Q 3513 2838 3513 2113 
z
" id="DejaVuSans-68" transform="scale(0.015625)"/>
       </defs>
       <use xlink:href="#DejaVuSans-4d"/>
       <use x="86.279297" xlink:href="#DejaVuSans-61"/>
       <use x="147.558594" xlink:href="#DejaVuSans-72"/>
       <use x="186.421875" xlink:href="#DejaVuSans-63"/>
       <use x="241.402344" xlink:href="#DejaVuSans-68"/>
      </g>
     </g>
    </g>
    <g id="xtick_4">
     <g id="line2d_4">
      <g>
       <use style="stroke:#000000;stroke-width:0.8;" x="446.056875" xlink:href="#m4fb6d62957" y="768.96"/>
      </g>
     </g>
     <g id="text_4">
      <!-- April -->
      <g transform="translate(434.62875 783.558437)scale(0.1 -0.1)">
       <defs>
        <path d="M 2188 4044 
L 1331 1722 
L 3047 1722 
L 2188 4044 
z
M 1831 4666 
L 2547 4666 
L 4325 0 
L 3669 0 
L 3244 1197 
L 1141 1197 
L 716 0 
L 50 0 
L 1831 4666 
z
" id="DejaVuSans-41" transform="scale(0.015625)"/>
        <path d="M 1159 525 
L 1159 -1331 
L 581 -1331 
L 581 3500 
L 1159 3500 
L 1159 2969 
Q 1341 3281 1617 3432 
Q 1894 3584 2278 3584 
Q 2916 3584 3314 3078 
Q 3713 2572 3713 1747 
Q 3713 922 3314 415 
Q 2916 -91 2278 -91 
Q 1894 -91 1617 61 
Q 1341 213 1159 525 
z
M 3116 1747 
Q 3116 2381 2855 2742 
Q 2594 3103 2138 3103 
Q 1681 3103 1420 2742 
Q 1159 2381 1159 1747 
Q 1159 1113 1420 752 
Q 1681 391 2138 391 
Q 2594 391 2855 752 
Q 3116 1113 3116 1747 
z
" id="DejaVuSans-70" transform="scale(0.015625)"/>
        <path d="M 603 3500 
L 1178 3500 
L 1178 0 
L 603 0 
L 603 3500 
z
M 603 4863 
L 1178 4863 
L 1178 4134 
L 603 4134 
L 603 4863 
z
" id="DejaVuSans-69" transform="scale(0.015625)"/>
        <path d="M 603 4863 
L 1178 4863 
L 1178 0 
L 603 0 
L 603 4863 
z
" id="DejaVuSans-6c" transform="scale(0.015625)"/>
       </defs>
       <use xlink:href="#DejaVuSans-41"/>
       <use x="68.408203" xlink:href="#DejaVuSans-70"/>
       <use x="131.884766" xlink:href="#DejaVuSans-72"/>
       <use x="172.998047" xlink:href="#DejaVuSans-69"/>
       <use x="200.78125" xlink:href="#DejaVuSans-6c"/>
      </g>
     </g>
    </g>
    <g id="xtick_5">
     <g id="line2d_5">
      <g>
       <use style="stroke:#000000;stroke-width:0.8;" x="540.219375" xlink:href="#m4fb6d62957" y="768.96"/>
      </g>
     </g>
     <g id="text_5">
      <!-- May -->
      <g transform="translate(529.881875 783.558437)scale(0.1 -0.1)">
       <use xlink:href="#DejaVuSans-4d"/>
       <use x="86.279297" xlink:href="#DejaVuSans-61"/>
       <use x="147.558594" xlink:href="#DejaVuSans-79"/>
      </g>
     </g>
    </g>
    <g id="xtick_6">
     <g id="line2d_6">
      <g>
       <use style="stroke:#000000;stroke-width:0.8;" x="637.520625" xlink:href="#m4fb6d62957" y="768.96"/>
      </g>
     </g>
     <g id="text_6">
      <!-- June -->
      <g transform="translate(626.631563 783.558437)scale(0.1 -0.1)">
       <use xlink:href="#DejaVuSans-4a"/>
       <use x="29.492188" xlink:href="#DejaVuSans-75"/>
       <use x="92.871094" xlink:href="#DejaVuSans-6e"/>
       <use x="156.25" xlink:href="#DejaVuSans-65"/>
      </g>
     </g>
    </g>
    <g id="xtick_7">
     <g id="line2d_7">
      <g>
       <use style="stroke:#000000;stroke-width:0.8;" x="731.683125" xlink:href="#m4fb6d62957" y="768.96"/>
      </g>
     </g>
     <g id="text_7">
      <!-- July -->
      <g transform="translate(722.690938 783.558437)scale(0.1 -0.1)">
       <use xlink:href="#DejaVuSans-4a"/>
       <use x="29.492188" xlink:href="#DejaVuSans-75"/>
       <use x="92.871094" xlink:href="#DejaVuSans-6c"/>
       <use x="120.654297" xlink:href="#DejaVuSans-79"/>
      </g>
     </g>
    </g>
    <g id="xtick_8">
     <g id="line2d_8">
      <g>
       <use style="stroke:#000000;stroke-width:0.8;" x="828.984375" xlink:href="#m4fb6d62957" y="768.96"/>
      </g>
     </g>
     <g id="text_8">
      <!-- August -->
      <g transform="translate(811.4875 783.558437)scale(0.1 -0.1)">
       <defs>
        <path d="M 2906 1791 
Q 2906 2416 2648 2759 
Q 2391 3103 1925 3103 
Q 1463 3103 1205 2759 
Q 947 2416 947 1791 
Q 947 1169 1205 825 
Q 1463 481 1925 481 
Q 2391 481 2648 825 
Q 2906 1169 2906 1791 
z
M 3481 434 
Q 3481 -459 3084 -895 
Q 2688 -1331 1869 -1331 
Q 1566 -1331 1297 -1286 
Q 1028 -1241 775 -1147 
L 775 -588 
Q 1028 -725 1275 -790 
Q 1522 -856 1778 -856 
Q 2344 -856 2625 -561 
Q 2906 -266 2906 331 
L 2906 616 
Q 2728 306 2450 153 
Q 2172 0 1784 0 
Q 1141 0 747 490 
Q 353 981 353 1791 
Q 353 2603 747 3093 
Q 1141 3584 1784 3584 
Q 2172 3584 2450 3431 
Q 2728 3278 2906 2969 
L 2906 3500 
L 3481 3500 
L 3481 434 
z
" id="DejaVuSans-67" transform="scale(0.015625)"/>
        <path d="M 2834 3397 
L 2834 2853 
Q 2591 2978 2328 3040 
Q 2066 3103 1784 3103 
Q 1356 3103 1142 2972 
Q 928 2841 928 2578 
Q 928 2378 1081 2264 
Q 1234 2150 1697 2047 
L 1894 2003 
Q 2506 1872 2764 1633 
Q 3022 1394 3022 966 
Q 3022 478 2636 193 
Q 2250 -91 1575 -91 
Q 1294 -91 989 -36 
Q 684 19 347 128 
L 347 722 
Q 666 556 975 473 
Q 1284 391 1588 391 
Q 1994 391 2212 530 
Q 2431 669 2431 922 
Q 2431 1156 2273 1281 
Q 2116 1406 1581 1522 
L 1381 1569 
Q 847 1681 609 1914 
Q 372 2147 372 2553 
Q 372 3047 722 3315 
Q 1072 3584 1716 3584 
Q 2034 3584 2315 3537 
Q 2597 3491 2834 3397 
z
" id="DejaVuSans-73" transform="scale(0.015625)"/>
        <path d="M 1172 4494 
L 1172 3500 
L 2356 3500 
L 2356 3053 
L 1172 3053 
L 1172 1153 
Q 1172 725 1289 603 
Q 1406 481 1766 481 
L 2356 481 
L 2356 0 
L 1766 0 
Q 1100 0 847 248 
Q 594 497 594 1153 
L 594 3053 
L 172 3053 
L 172 3500 
L 594 3500 
L 594 4494 
L 1172 4494 
z
" id="DejaVuSans-74" transform="scale(0.015625)"/>
       </defs>
       <use xlink:href="#DejaVuSans-41"/>
       <use x="68.408203" xlink:href="#DejaVuSans-75"/>
       <use x="131.787109" xlink:href="#DejaVuSans-67"/>
       <use x="195.263672" xlink:href="#DejaVuSans-75"/>
       <use x="258.642578" xlink:href="#DejaVuSans-73"/>
       <use x="310.742188" xlink:href="#DejaVuSans-74"/>
      </g>
     </g>
    </g>
    <g id="xtick_9">
     <g id="line2d_9">
      <g>
       <use style="stroke:#000000;stroke-width:0.8;" x="926.285625" xlink:href="#m4fb6d62957" y="768.96"/>
      </g>
     </g>
     <g id="text_9">
      <!-- September -->
      <g transform="translate(898.647344 783.558437)scale(0.1 -0.1)">
       <defs>
        <path d="M 3425 4513 
L 3425 3897 
Q 3066 4069 2747 4153 
Q 2428 4238 2131 4238 
Q 1616 4238 1336 4038 
Q 1056 3838 1056 3469 
Q 1056 3159 1242 3001 
Q 1428 2844 1947 2747 
L 2328 2669 
Q 3034 2534 3370 2195 
Q 3706 1856 3706 1288 
Q 3706 609 3251 259 
Q 2797 -91 1919 -91 
Q 1588 -91 1214 -16 
Q 841 59 441 206 
L 441 856 
Q 825 641 1194 531 
Q 1563 422 1919 422 
Q 2459 422 2753 634 
Q 3047 847 3047 1241 
Q 3047 1584 2836 1778 
Q 2625 1972 2144 2069 
L 1759 2144 
Q 1053 2284 737 2584 
Q 422 2884 422 3419 
Q 422 4038 858 4394 
Q 1294 4750 2059 4750 
Q 2388 4750 2728 4690 
Q 3069 4631 3425 4513 
z
" id="DejaVuSans-53" transform="scale(0.015625)"/>
        <path d="M 3328 2828 
Q 3544 3216 3844 3400 
Q 4144 3584 4550 3584 
Q 5097 3584 5394 3201 
Q 5691 2819 5691 2113 
L 5691 0 
L 5113 0 
L 5113 2094 
Q 5113 2597 4934 2840 
Q 4756 3084 4391 3084 
Q 3944 3084 3684 2787 
Q 3425 2491 3425 1978 
L 3425 0 
L 2847 0 
L 2847 2094 
Q 2847 2600 2669 2842 
Q 2491 3084 2119 3084 
Q 1678 3084 1418 2786 
Q 1159 2488 1159 1978 
L 1159 0 
L 581 0 
L 581 3500 
L 1159 3500 
L 1159 2956 
Q 1356 3278 1631 3431 
Q 1906 3584 2284 3584 
Q 2666 3584 2933 3390 
Q 3200 3197 3328 2828 
z
" id="DejaVuSans-6d" transform="scale(0.015625)"/>
       </defs>
       <use xlink:href="#DejaVuSans-53"/>
       <use x="63.476562" xlink:href="#DejaVuSans-65"/>
       <use x="125" xlink:href="#DejaVuSans-70"/>
       <use x="188.476562" xlink:href="#DejaVuSans-74"/>
       <use x="227.685547" xlink:href="#DejaVuSans-65"/>
       <use x="289.208984" xlink:href="#DejaVuSans-6d"/>
       <use x="386.621094" xlink:href="#DejaVuSans-62"/>
       <use x="450.097656" xlink:href="#DejaVuSans-65"/>
       <use x="511.621094" xlink:href="#DejaVuSans-72"/>
      </g>
     </g>
    </g>
    <g id="xtick_10">
     <g id="line2d_10">
      <g>
       <use style="stroke:#000000;stroke-width:0.8;" x="1020.448125" xlink:href="#m4fb6d62957" y="768.96"/>
      </g>
     </g>
     <g id="text_10">
      <!-- October -->
      <g transform="translate(1000.437188 783.558437)scale(0.1 -0.1)">
       <defs>
        <path d="M 2522 4238 
Q 1834 4238 1429 3725 
Q 1025 3213 1025 2328 
Q 1025 1447 1429 934 
Q 1834 422 2522 422 
Q 3209 422 3611 934 
Q 4013 1447 4013 2328 
Q 4013 3213 3611 3725 
Q 3209 4238 2522 4238 
z
M 2522 4750 
Q 3503 4750 4090 4092 
Q 4678 3434 4678 2328 
Q 4678 1225 4090 567 
Q 3503 -91 2522 -91 
Q 1538 -91 948 565 
Q 359 1222 359 2328 
Q 359 3434 948 4092 
Q 1538 4750 2522 4750 
z
" id="DejaVuSans-4f" transform="scale(0.015625)"/>
        <path d="M 1959 3097 
Q 1497 3097 1228 2736 
Q 959 2375 959 1747 
Q 959 1119 1226 758 
Q 1494 397 1959 397 
Q 2419 397 2687 759 
Q 2956 1122 2956 1747 
Q 2956 2369 2687 2733 
Q 2419 3097 1959 3097 
z
M 1959 3584 
Q 2709 3584 3137 3096 
Q 3566 2609 3566 1747 
Q 3566 888 3137 398 
Q 2709 -91 1959 -91 
Q 1206 -91 779 398 
Q 353 888 353 1747 
Q 353 2609 779 3096 
Q 1206 3584 1959 3584 
z
" id="DejaVuSans-6f" transform="scale(0.015625)"/>
       </defs>
       <use xlink:href="#DejaVuSans-4f"/>
       <use x="78.710938" xlink:href="#DejaVuSans-63"/>
       <use x="133.691406" xlink:href="#DejaVuSans-74"/>
       <use x="172.900391" xlink:href="#DejaVuSans-6f"/>
       <use x="234.082031" xlink:href="#DejaVuSans-62"/>
       <use x="297.558594" xlink:href="#DejaVuSans-65"/>
       <use x="359.082031" xlink:href="#DejaVuSans-72"/>
      </g>
     </g>
    </g>
    <g id="xtick_11">
     <g id="line2d_11">
      <g>
       <use style="stroke:#000000;stroke-width:0.8;" x="1117.749375" xlink:href="#m4fb6d62957" y="768.96"/>
      </g>
     </g>
     <g id="text_11">
      <!-- November -->
      <g transform="translate(1091.736875 783.558437)scale(0.1 -0.1)">
       <defs>
        <path d="M 628 4666 
L 1478 4666 
L 3547 763 
L 3547 4666 
L 4159 4666 
L 4159 0 
L 3309 0 
L 1241 3903 
L 1241 0 
L 628 0 
L 628 4666 
z
" id="DejaVuSans-4e" transform="scale(0.015625)"/>
        <path d="M 191 3500 
L 800 3500 
L 1894 563 
L 2988 3500 
L 3597 3500 
L 2284 0 
L 1503 0 
L 191 3500 
z
" id="DejaVuSans-76" transform="scale(0.015625)"/>
       </defs>
       <use xlink:href="#DejaVuSans-4e"/>
       <use x="74.804688" xlink:href="#DejaVuSans-6f"/>
       <use x="135.986328" xlink:href="#DejaVuSans-76"/>
       <use x="195.166016" xlink:href="#DejaVuSans-65"/>
       <use x="256.689453" xlink:href="#DejaVuSans-6d"/>
       <use x="354.101562" xlink:href="#DejaVuSans-62"/>
       <use x="417.578125" xlink:href="#DejaVuSans-65"/>
       <use x="479.101562" xlink:href="#DejaVuSans-72"/>
      </g>
     </g>
    </g>
   </g>
   <g id="matplotlib.axis_2">
    <g id="ytick_1">
     <g id="line2d_12">
      <defs>
       <path d="M 0 0 
L -3.5 0 
" id="m3c0ac53e56" style="stroke:#000000;stroke-width:0.8;"/>
      </defs>
      <g>
       <use style="stroke:#000000;stroke-width:0.8;" x="162" xlink:href="#m3c0ac53e56" y="768.96"/>
      </g>
     </g>
     <g id="text_12">
      <!-- 0.0 -->
      <g transform="translate(139.096875 772.759219)scale(0.1 -0.1)">
       <defs>
        <path d="M 2034 4250 
Q 1547 4250 1301 3770 
Q 1056 3291 1056 2328 
Q 1056 1369 1301 889 
Q 1547 409 2034 409 
Q 2525 409 2770 889 
Q 3016 1369 3016 2328 
Q 3016 3291 2770 3770 
Q 2525 4250 2034 4250 
z
M 2034 4750 
Q 2819 4750 3233 4129 
Q 3647 3509 3647 2328 
Q 3647 1150 3233 529 
Q 2819 -91 2034 -91 
Q 1250 -91 836 529 
Q 422 1150 422 2328 
Q 422 3509 836 4129 
Q 1250 4750 2034 4750 
z
" id="DejaVuSans-30" transform="scale(0.015625)"/>
        <path d="M 684 794 
L 1344 794 
L 1344 0 
L 684 0 
L 684 794 
z
" id="DejaVuSans-2e" transform="scale(0.015625)"/>
       </defs>
       <use xlink:href="#DejaVuSans-30"/>
       <use x="63.623047" xlink:href="#DejaVuSans-2e"/>
       <use x="95.410156" xlink:href="#DejaVuSans-30"/>
      </g>
     </g>
    </g>
    <g id="ytick_2">
     <g id="line2d_13">
      <g>
       <use style="stroke:#000000;stroke-width:0.8;" x="162" xlink:href="#m3c0ac53e56" y="631.745209"/>
      </g>
     </g>
     <g id="text_13">
      <!-- 0.5 -->
      <g transform="translate(139.096875 635.544428)scale(0.1 -0.1)">
       <defs>
        <path d="M 691 4666 
L 3169 4666 
L 3169 4134 
L 1269 4134 
L 1269 2991 
Q 1406 3038 1543 3061 
Q 1681 3084 1819 3084 
Q 2600 3084 3056 2656 
Q 3513 2228 3513 1497 
Q 3513 744 3044 326 
Q 2575 -91 1722 -91 
Q 1428 -91 1123 -41 
Q 819 9 494 109 
L 494 744 
Q 775 591 1075 516 
Q 1375 441 1709 441 
Q 2250 441 2565 725 
Q 2881 1009 2881 1497 
Q 2881 1984 2565 2268 
Q 2250 2553 1709 2553 
Q 1456 2553 1204 2497 
Q 953 2441 691 2322 
L 691 4666 
z
" id="DejaVuSans-35" transform="scale(0.015625)"/>
       </defs>
       <use xlink:href="#DejaVuSans-30"/>
       <use x="63.623047" xlink:href="#DejaVuSans-2e"/>
       <use x="95.410156" xlink:href="#DejaVuSans-35"/>
      </g>
     </g>
    </g>
    <g id="ytick_3">
     <g id="line2d_14">
      <g>
       <use style="stroke:#000000;stroke-width:0.8;" x="162" xlink:href="#m3c0ac53e56" y="494.530418"/>
      </g>
     </g>
     <g id="text_14">
      <!-- 1.0 -->
      <g transform="translate(139.096875 498.329637)scale(0.1 -0.1)">
       <defs>
        <path d="M 794 531 
L 1825 531 
L 1825 4091 
L 703 3866 
L 703 4441 
L 1819 4666 
L 2450 4666 
L 2450 531 
L 3481 531 
L 3481 0 
L 794 0 
L 794 531 
z
" id="DejaVuSans-31" transform="scale(0.015625)"/>
       </defs>
       <use xlink:href="#DejaVuSans-31"/>
       <use x="63.623047" xlink:href="#DejaVuSans-2e"/>
       <use x="95.410156" xlink:href="#DejaVuSans-30"/>
      </g>
     </g>
    </g>
    <g id="ytick_4">
     <g id="line2d_15">
      <g>
       <use style="stroke:#000000;stroke-width:0.8;" x="162" xlink:href="#m3c0ac53e56" y="357.315627"/>
      </g>
     </g>
     <g id="text_15">
      <!-- 1.5 -->
      <g transform="translate(139.096875 361.114846)scale(0.1 -0.1)">
       <use xlink:href="#DejaVuSans-31"/>
       <use x="63.623047" xlink:href="#DejaVuSans-2e"/>
       <use x="95.410156" xlink:href="#DejaVuSans-35"/>
      </g>
     </g>
    </g>
    <g id="ytick_5">
     <g id="line2d_16">
      <g>
       <use style="stroke:#000000;stroke-width:0.8;" x="162" xlink:href="#m3c0ac53e56" y="220.100836"/>
      </g>
     </g>
     <g id="text_16">
      <!-- 2.0 -->
      <g transform="translate(139.096875 223.900055)scale(0.1 -0.1)">
       <defs>
        <path d="M 1228 531 
L 3431 531 
L 3431 0 
L 469 0 
L 469 531 
Q 828 903 1448 1529 
Q 2069 2156 2228 2338 
Q 2531 2678 2651 2914 
Q 2772 3150 2772 3378 
Q 2772 3750 2511 3984 
Q 2250 4219 1831 4219 
Q 1534 4219 1204 4116 
Q 875 4013 500 3803 
L 500 4441 
Q 881 4594 1212 4672 
Q 1544 4750 1819 4750 
Q 2544 4750 2975 4387 
Q 3406 4025 3406 3419 
Q 3406 3131 3298 2873 
Q 3191 2616 2906 2266 
Q 2828 2175 2409 1742 
Q 1991 1309 1228 531 
z
" id="DejaVuSans-32" transform="scale(0.015625)"/>
       </defs>
       <use xlink:href="#DejaVuSans-32"/>
       <use x="63.623047" xlink:href="#DejaVuSans-2e"/>
       <use x="95.410156" xlink:href="#DejaVuSans-30"/>
      </g>
     </g>
    </g>
    <g id="text_17">
     <!-- Persons fully vaccinated (tens of millions) -->
     <g transform="translate(133.017188 540.480156)rotate(-90)scale(0.1 -0.1)">
      <defs>
       <path d="M 1259 4147 
L 1259 2394 
L 2053 2394 
Q 2494 2394 2734 2622 
Q 2975 2850 2975 3272 
Q 2975 3691 2734 3919 
Q 2494 4147 2053 4147 
L 1259 4147 
z
M 628 4666 
L 2053 4666 
Q 2838 4666 3239 4311 
Q 3641 3956 3641 3272 
Q 3641 2581 3239 2228 
Q 2838 1875 2053 1875 
L 1259 1875 
L 1259 0 
L 628 0 
L 628 4666 
z
" id="DejaVuSans-50" transform="scale(0.015625)"/>
       <path id="DejaVuSans-20" transform="scale(0.015625)"/>
       <path d="M 2375 4863 
L 2375 4384 
L 1825 4384 
Q 1516 4384 1395 4259 
Q 1275 4134 1275 3809 
L 1275 3500 
L 2222 3500 
L 2222 3053 
L 1275 3053 
L 1275 0 
L 697 0 
L 697 3053 
L 147 3053 
L 147 3500 
L 697 3500 
L 697 3744 
Q 697 4328 969 4595 
Q 1241 4863 1831 4863 
L 2375 4863 
z
" id="DejaVuSans-66" transform="scale(0.015625)"/>
       <path d="M 2906 2969 
L 2906 4863 
L 3481 4863 
L 3481 0 
L 2906 0 
L 2906 525 
Q 2725 213 2448 61 
Q 2172 -91 1784 -91 
Q 1150 -91 751 415 
Q 353 922 353 1747 
Q 353 2572 751 3078 
Q 1150 3584 1784 3584 
Q 2172 3584 2448 3432 
Q 2725 3281 2906 2969 
z
M 947 1747 
Q 947 1113 1208 752 
Q 1469 391 1925 391 
Q 2381 391 2643 752 
Q 2906 1113 2906 1747 
Q 2906 2381 2643 2742 
Q 2381 3103 1925 3103 
Q 1469 3103 1208 2742 
Q 947 2381 947 1747 
z
" id="DejaVuSans-64" transform="scale(0.015625)"/>
       <path d="M 1984 4856 
Q 1566 4138 1362 3434 
Q 1159 2731 1159 2009 
Q 1159 1288 1364 580 
Q 1569 -128 1984 -844 
L 1484 -844 
Q 1016 -109 783 600 
Q 550 1309 550 2009 
Q 550 2706 781 3412 
Q 1013 4119 1484 4856 
L 1984 4856 
z
" id="DejaVuSans-28" transform="scale(0.015625)"/>
       <path d="M 513 4856 
L 1013 4856 
Q 1481 4119 1714 3412 
Q 1947 2706 1947 2009 
Q 1947 1309 1714 600 
Q 1481 -109 1013 -844 
L 513 -844 
Q 928 -128 1133 580 
Q 1338 1288 1338 2009 
Q 1338 2731 1133 3434 
Q 928 4138 513 4856 
z
" id="DejaVuSans-29" transform="scale(0.015625)"/>
      </defs>
      <use xlink:href="#DejaVuSans-50"/>
      <use x="56.677734" xlink:href="#DejaVuSans-65"/>
      <use x="118.201172" xlink:href="#DejaVuSans-72"/>
      <use x="159.314453" xlink:href="#DejaVuSans-73"/>
      <use x="211.414062" xlink:href="#DejaVuSans-6f"/>
      <use x="272.595703" xlink:href="#DejaVuSans-6e"/>
      <use x="335.974609" xlink:href="#DejaVuSans-73"/>
      <use x="388.074219" xlink:href="#DejaVuSans-20"/>
      <use x="419.861328" xlink:href="#DejaVuSans-66"/>
      <use x="455.066406" xlink:href="#DejaVuSans-75"/>
      <use x="518.445312" xlink:href="#DejaVuSans-6c"/>
      <use x="546.228516" xlink:href="#DejaVuSans-6c"/>
      <use x="574.011719" xlink:href="#DejaVuSans-79"/>
      <use x="633.191406" xlink:href="#DejaVuSans-20"/>
      <use x="664.978516" xlink:href="#DejaVuSans-76"/>
      <use x="724.158203" xlink:href="#DejaVuSans-61"/>
      <use x="785.4375" xlink:href="#DejaVuSans-63"/>
      <use x="840.417969" xlink:href="#DejaVuSans-63"/>
      <use x="895.398438" xlink:href="#DejaVuSans-69"/>
      <use x="923.181641" xlink:href="#DejaVuSans-6e"/>
      <use x="986.560547" xlink:href="#DejaVuSans-61"/>
      <use x="1047.839844" xlink:href="#DejaVuSans-74"/>
      <use x="1087.048828" xlink:href="#DejaVuSans-65"/>
      <use x="1148.572266" xlink:href="#DejaVuSans-64"/>
      <use x="1212.048828" xlink:href="#DejaVuSans-20"/>
      <use x="1243.835938" xlink:href="#DejaVuSans-28"/>
      <use x="1282.849609" xlink:href="#DejaVuSans-74"/>
      <use x="1322.058594" xlink:href="#DejaVuSans-65"/>
      <use x="1383.582031" xlink:href="#DejaVuSans-6e"/>
      <use x="1446.960938" xlink:href="#DejaVuSans-73"/>
      <use x="1499.060547" xlink:href="#DejaVuSans-20"/>
      <use x="1530.847656" xlink:href="#DejaVuSans-6f"/>
      <use x="1592.029297" xlink:href="#DejaVuSans-66"/>
      <use x="1627.234375" xlink:href="#DejaVuSans-20"/>
      <use x="1659.021484" xlink:href="#DejaVuSans-6d"/>
      <use x="1756.433594" xlink:href="#DejaVuSans-69"/>
      <use x="1784.216797" xlink:href="#DejaVuSans-6c"/>
      <use x="1812" xlink:href="#DejaVuSans-6c"/>
      <use x="1839.783203" xlink:href="#DejaVuSans-69"/>
      <use x="1867.566406" xlink:href="#DejaVuSans-6f"/>
      <use x="1928.748047" xlink:href="#DejaVuSans-6e"/>
      <use x="1992.126953" xlink:href="#DejaVuSans-73"/>
      <use x="2044.226562" xlink:href="#DejaVuSans-29"/>
     </g>
    </g>
    <g id="text_18">
     <!-- 1e7 -->
     <g transform="translate(162 100.68)scale(0.1 -0.1)">
      <defs>
       <path d="M 525 4666 
L 3525 4666 
L 3525 4397 
L 1831 0 
L 1172 0 
L 2766 4134 
L 525 4134 
L 525 4666 
z
" id="DejaVuSans-37" transform="scale(0.015625)"/>
      </defs>
      <use xlink:href="#DejaVuSans-31"/>
      <use x="63.623047" xlink:href="#DejaVuSans-65"/>
      <use x="125.146484" xlink:href="#DejaVuSans-37"/>
     </g>
    </g>
   </g>
   <g id="patch_323">
    <path d="M 162 768.96 
L 162 103.68 
" style="fill:none;stroke:#000000;stroke-linecap:square;stroke-linejoin:miter;stroke-width:0.8;"/>
   </g>
   <g id="patch_324">
    <path d="M 1166.4 768.96 
L 1166.4 103.68 
" style="fill:none;stroke:#000000;stroke-linecap:square;stroke-linejoin:miter;stroke-width:0.8;"/>
   </g>
   <g id="patch_325">
    <path d="M 162 768.96 
L 1166.4 768.96 
" style="fill:none;stroke:#000000;stroke-linecap:square;stroke-linejoin:miter;stroke-width:0.8;"/>
   </g>
   <g id="patch_326">
    <path d="M 162 103.68 
L 1166.4 103.68 
" style="fill:none;stroke:#000000;stroke-linecap:square;stroke-linejoin:miter;stroke-width:0.8;"/>
   </g>
   <g id="text_19">
    <!-- Persons Fully Vaccinated -->
    <g transform="translate(590.380313 97.68)scale(0.12 -0.12)">
     <defs>
      <path d="M 1831 0 
L 50 4666 
L 709 4666 
L 2188 738 
L 3669 4666 
L 4325 4666 
L 2547 0 
L 1831 0 
z
" id="DejaVuSans-56" transform="scale(0.015625)"/>
     </defs>
     <use xlink:href="#DejaVuSans-50"/>
     <use x="56.677734" xlink:href="#DejaVuSans-65"/>
     <use x="118.201172" xlink:href="#DejaVuSans-72"/>
     <use x="159.314453" xlink:href="#DejaVuSans-73"/>
     <use x="211.414062" xlink:href="#DejaVuSans-6f"/>
     <use x="272.595703" xlink:href="#DejaVuSans-6e"/>
     <use x="335.974609" xlink:href="#DejaVuSans-73"/>
     <use x="388.074219" xlink:href="#DejaVuSans-20"/>
     <use x="419.861328" xlink:href="#DejaVuSans-46"/>
     <use x="471.880859" xlink:href="#DejaVuSans-75"/>
     <use x="535.259766" xlink:href="#DejaVuSans-6c"/>
     <use x="563.042969" xlink:href="#DejaVuSans-6c"/>
     <use x="590.826172" xlink:href="#DejaVuSans-79"/>
     <use x="650.005859" xlink:href="#DejaVuSans-20"/>
     <use x="681.792969" xlink:href="#DejaVuSans-56"/>
     <use x="742.451172" xlink:href="#DejaVuSans-61"/>
     <use x="803.730469" xlink:href="#DejaVuSans-63"/>
     <use x="858.710938" xlink:href="#DejaVuSans-63"/>
     <use x="913.691406" xlink:href="#DejaVuSans-69"/>
     <use x="941.474609" xlink:href="#DejaVuSans-6e"/>
     <use x="1004.853516" xlink:href="#DejaVuSans-61"/>
     <use x="1066.132812" xlink:href="#DejaVuSans-74"/>
     <use x="1105.341797" xlink:href="#DejaVuSans-65"/>
     <use x="1166.865234" xlink:href="#DejaVuSans-64"/>
    </g>
   </g>
  </g>
 </g>
 <defs>
  <clipPath id="pd7c9e8ac4a">
   <rect height="665.28" width="1004.4" x="162" y="103.68"/>
  </clipPath>
 </defs>
</svg>
