<?xml version="1.0" encoding="utf-8" standalone="no"?>
<!DOCTYPE svg PUBLIC "-//W3C//DTD SVG 1.1//EN"
  "http://www.w3.org/Graphics/SVG/1.1/DTD/svg11.dtd">
<svg height="864pt" version="1.1" viewBox="0 0 1296 864" width="1296pt" xmlns="http://www.w3.org/2000/svg" xmlns:xlink="http://www.w3.org/1999/xlink">
 <metadata>
  <rdf:RDF xmlns:cc="http://creativecommons.org/ns#" xmlns:dc="http://purl.org/dc/elements/1.1/" xmlns:rdf="http://www.w3.org/1999/02/22-rdf-syntax-ns#">
   <cc:Work>
    <dc:type rdf:resource="http://purl.org/dc/dcmitype/StillImage"/>
    <dc:date>2021-09-14T11:16:41.702312</dc:date>
    <dc:format>image/svg+xml</dc:format>
    <dc:creator>
     <cc:Agent>
      <dc:title>Matplotlib v3.4.2, https://matplotlib.org/</dc:title>
     </cc:Agent>
    </dc:creator>
   </cc:Work>
  </rdf:RDF>
 </metadata>
 <defs>
  <style type="text/css">*{stroke-linecap:butt;stroke-linejoin:round;}</style>
 </defs>
 <g id="figure_1">
  <g id="patch_1">
   <path d="M 0 864 
L 1296 864 
L 1296 0 
L 0 0 
z
" style="fill:#ffffff;"/>
  </g>
  <g id="axes_1">
   <g id="patch_2">
    <path d="M 162 768.96 
L 1166.4 768.96 
L 1166.4 103.68 
L 162 103.68 
z
" style="fill:#ffffff;"/>
   </g>
   <g id="patch_3">
    <path clip-path="url(#p8066a8490a)" d="M 162.984706 768.96 
L 164.954118 768.96 
L 164.954118 768.96 
L 162.984706 768.96 
z
" style="fill:#1f77b4;"/>
   </g>
   <g id="patch_4">
    <path clip-path="url(#p8066a8490a)" d="M 166.923529 768.96 
L 168.892941 768.96 
L 168.892941 768.96 
L 166.923529 768.96 
z
" style="fill:#1f77b4;"/>
   </g>
   <g id="patch_5">
    <path clip-path="url(#p8066a8490a)" d="M 170.862353 768.96 
L 172.831765 768.96 
L 172.831765 768.96 
L 170.862353 768.96 
z
" style="fill:#1f77b4;"/>
   </g>
   <g id="patch_6">
    <path clip-path="url(#p8066a8490a)" d="M 174.801176 768.96 
L 176.770588 768.96 
L 176.770588 768.242235 
L 174.801176 768.242235 
z
" style="fill:#1f77b4;"/>
   </g>
   <g id="patch_7">
    <path clip-path="url(#p8066a8490a)" d="M 178.74 768.96 
L 180.709412 768.96 
L 180.709412 767.010946 
L 178.74 767.010946 
z
" style="fill:#1f77b4;"/>
   </g>
   <g id="patch_8">
    <path clip-path="url(#p8066a8490a)" d="M 182.678824 768.96 
L 184.648235 768.96 
L 184.648235 754.867292 
L 182.678824 754.867292 
z
" style="fill:#1f77b4;"/>
   </g>
   <g id="patch_9">
    <path clip-path="url(#p8066a8490a)" d="M 186.617647 768.96 
L 188.587059 768.96 
L 188.587059 667.171548 
L 186.617647 667.171548 
z
" style="fill:#1f77b4;"/>
   </g>
   <g id="patch_10">
    <path clip-path="url(#p8066a8490a)" d="M 190.556471 768.96 
L 192.525882 768.96 
L 192.525882 646.192961 
L 190.556471 646.192961 
z
" style="fill:#1f77b4;"/>
   </g>
   <g id="patch_11">
    <path clip-path="url(#p8066a8490a)" d="M 194.495294 768.96 
L 196.464706 768.96 
L 196.464706 701.986081 
L 194.495294 701.986081 
z
" style="fill:#1f77b4;"/>
   </g>
   <g id="patch_12">
    <path clip-path="url(#p8066a8490a)" d="M 198.434118 768.96 
L 200.403529 768.96 
L 200.403529 728.368331 
L 198.434118 728.368331 
z
" style="fill:#1f77b4;"/>
   </g>
   <g id="patch_13">
    <path clip-path="url(#p8066a8490a)" d="M 202.372941 768.96 
L 204.342353 768.96 
L 204.342353 705.48154 
L 202.372941 705.48154 
z
" style="fill:#1f77b4;"/>
   </g>
   <g id="patch_14">
    <path clip-path="url(#p8066a8490a)" d="M 206.311765 768.96 
L 208.281176 768.96 
L 208.281176 708.749414 
L 206.311765 708.749414 
z
" style="fill:#1f77b4;"/>
   </g>
   <g id="patch_15">
    <path clip-path="url(#p8066a8490a)" d="M 210.250588 768.96 
L 212.22 768.96 
L 212.22 719.702629 
L 210.250588 719.702629 
z
" style="fill:#1f77b4;"/>
   </g>
   <g id="patch_16">
    <path clip-path="url(#p8066a8490a)" d="M 214.189412 768.96 
L 216.158824 768.96 
L 216.158824 709.047024 
L 214.189412 709.047024 
z
" style="fill:#1f77b4;"/>
   </g>
   <g id="patch_17">
    <path clip-path="url(#p8066a8490a)" d="M 218.128235 768.96 
L 220.097647 768.96 
L 220.097647 756.711306 
L 218.128235 756.711306 
z
" style="fill:#1f77b4;"/>
   </g>
   <g id="patch_18">
    <path clip-path="url(#p8066a8490a)" d="M 222.067059 768.96 
L 224.036471 768.96 
L 224.036471 761.333015 
L 222.067059 761.333015 
z
" style="fill:#1f77b4;"/>
   </g>
   <g id="patch_19">
    <path clip-path="url(#p8066a8490a)" d="M 226.005882 768.96 
L 227.975294 768.96 
L 227.975294 765.32449 
L 226.005882 765.32449 
z
" style="fill:#1f77b4;"/>
   </g>
   <g id="patch_20">
    <path clip-path="url(#p8066a8490a)" d="M 229.944706 768.96 
L 231.914118 768.96 
L 231.914118 752.142118 
L 229.944706 752.142118 
z
" style="fill:#1f77b4;"/>
   </g>
   <g id="patch_21">
    <path clip-path="url(#p8066a8490a)" d="M 233.883529 768.96 
L 235.852941 768.96 
L 235.852941 741.86582 
L 233.883529 741.86582 
z
" style="fill:#1f77b4;"/>
   </g>
   <g id="patch_22">
    <path clip-path="url(#p8066a8490a)" d="M 237.822353 768.96 
L 239.791765 768.96 
L 239.791765 718.062856 
L 237.822353 718.062856 
z
" style="fill:#1f77b4;"/>
   </g>
   <g id="patch_23">
    <path clip-path="url(#p8066a8490a)" d="M 241.761176 768.96 
L 243.730588 768.96 
L 243.730588 717.701056 
L 241.761176 717.701056 
z
" style="fill:#1f77b4;"/>
   </g>
   <g id="patch_24">
    <path clip-path="url(#p8066a8490a)" d="M 245.7 768.96 
L 247.669412 768.96 
L 247.669412 732.073868 
L 245.7 732.073868 
z
" style="fill:#1f77b4;"/>
   </g>
   <g id="patch_25">
    <path clip-path="url(#p8066a8490a)" d="M 249.638824 768.96 
L 251.608235 768.96 
L 251.608235 755.071534 
L 249.638824 755.071534 
z
" style="fill:#1f77b4;"/>
   </g>
   <g id="patch_26">
    <path clip-path="url(#p8066a8490a)" d="M 253.577647 768.96 
L 255.547059 768.96 
L 255.547059 750.519852 
L 253.577647 750.519852 
z
" style="fill:#1f77b4;"/>
   </g>
   <g id="patch_27">
    <path clip-path="url(#p8066a8490a)" d="M 257.516471 768.96 
L 259.485882 768.96 
L 259.485882 721.155666 
L 257.516471 721.155666 
z
" style="fill:#1f77b4;"/>
   </g>
   <g id="patch_28">
    <path clip-path="url(#p8066a8490a)" d="M 261.455294 768.96 
L 263.424706 768.96 
L 263.424706 685.419125 
L 261.455294 685.419125 
z
" style="fill:#1f77b4;"/>
   </g>
   <g id="patch_29">
    <path clip-path="url(#p8066a8490a)" d="M 265.394118 768.96 
L 267.363529 768.96 
L 267.363529 657.770573 
L 265.394118 657.770573 
z
" style="fill:#1f77b4;"/>
   </g>
   <g id="patch_30">
    <path clip-path="url(#p8066a8490a)" d="M 269.332941 768.96 
L 271.302353 768.96 
L 271.302353 672.995367 
L 269.332941 672.995367 
z
" style="fill:#1f77b4;"/>
   </g>
   <g id="patch_31">
    <path clip-path="url(#p8066a8490a)" d="M 273.271765 768.96 
L 275.241176 768.96 
L 275.241176 684.928944 
L 273.271765 684.928944 
z
" style="fill:#1f77b4;"/>
   </g>
   <g id="patch_32">
    <path clip-path="url(#p8066a8490a)" d="M 277.210588 768.96 
L 279.18 768.96 
L 279.18 723.093048 
L 277.210588 723.093048 
z
" style="fill:#1f77b4;"/>
   </g>
   <g id="patch_33">
    <path clip-path="url(#p8066a8490a)" d="M 281.149412 768.96 
L 283.118824 768.96 
L 283.118824 743.143792 
L 281.149412 743.143792 
z
" style="fill:#1f77b4;"/>
   </g>
   <g id="patch_34">
    <path clip-path="url(#p8066a8490a)" d="M 285.088235 768.96 
L 287.057647 768.96 
L 287.057647 721.476618 
L 285.088235 721.476618 
z
" style="fill:#1f77b4;"/>
   </g>
   <g id="patch_35">
    <path clip-path="url(#p8066a8490a)" d="M 289.027059 768.96 
L 290.996471 768.96 
L 290.996471 667.795945 
L 289.027059 667.795945 
z
" style="fill:#1f77b4;"/>
   </g>
   <g id="patch_36">
    <path clip-path="url(#p8066a8490a)" d="M 292.965882 768.96 
L 294.935294 768.96 
L 294.935294 693.752205 
L 292.965882 693.752205 
z
" style="fill:#1f77b4;"/>
   </g>
   <g id="patch_37">
    <path clip-path="url(#p8066a8490a)" d="M 296.904706 768.96 
L 298.874118 768.96 
L 298.874118 671.600684 
L 296.904706 671.600684 
z
" style="fill:#1f77b4;"/>
   </g>
   <g id="patch_38">
    <path clip-path="url(#p8066a8490a)" d="M 300.843529 768.96 
L 302.812941 768.96 
L 302.812941 688.780367 
L 300.843529 688.780367 
z
" style="fill:#1f77b4;"/>
   </g>
   <g id="patch_39">
    <path clip-path="url(#p8066a8490a)" d="M 304.782353 768.96 
L 306.751765 768.96 
L 306.751765 700.357979 
L 304.782353 700.357979 
z
" style="fill:#1f77b4;"/>
   </g>
   <g id="patch_40">
    <path clip-path="url(#p8066a8490a)" d="M 308.721176 768.96 
L 310.690588 768.96 
L 310.690588 745.763927 
L 308.721176 745.763927 
z
" style="fill:#1f77b4;"/>
   </g>
   <g id="patch_41">
    <path clip-path="url(#p8066a8490a)" d="M 312.66 768.96 
L 314.629412 768.96 
L 314.629412 692.445055 
L 312.66 692.445055 
z
" style="fill:#1f77b4;"/>
   </g>
   <g id="patch_42">
    <path clip-path="url(#p8066a8490a)" d="M 316.598824 768.96 
L 318.568235 768.96 
L 318.568235 673.03038 
L 316.598824 673.03038 
z
" style="fill:#1f77b4;"/>
   </g>
   <g id="patch_43">
    <path clip-path="url(#p8066a8490a)" d="M 320.537647 768.96 
L 322.507059 768.96 
L 322.507059 652.769558 
L 320.537647 652.769558 
z
" style="fill:#1f77b4;"/>
   </g>
   <g id="patch_44">
    <path clip-path="url(#p8066a8490a)" d="M 324.476471 768.96 
L 326.445882 768.96 
L 326.445882 602.444292 
L 324.476471 602.444292 
z
" style="fill:#1f77b4;"/>
   </g>
   <g id="patch_45">
    <path clip-path="url(#p8066a8490a)" d="M 328.415294 768.96 
L 330.384706 768.96 
L 330.384706 624.665838 
L 328.415294 624.665838 
z
" style="fill:#1f77b4;"/>
   </g>
   <g id="patch_46">
    <path clip-path="url(#p8066a8490a)" d="M 332.354118 768.96 
L 334.323529 768.96 
L 334.323529 679.274354 
L 332.354118 679.274354 
z
" style="fill:#1f77b4;"/>
   </g>
   <g id="patch_47">
    <path clip-path="url(#p8066a8490a)" d="M 336.292941 768.96 
L 338.262353 768.96 
L 338.262353 720.542939 
L 336.292941 720.542939 
z
" style="fill:#1f77b4;"/>
   </g>
   <g id="patch_48">
    <path clip-path="url(#p8066a8490a)" d="M 340.231765 768.96 
L 342.201176 768.96 
L 342.201176 721.108982 
L 340.231765 721.108982 
z
" style="fill:#1f77b4;"/>
   </g>
   <g id="patch_49">
    <path clip-path="url(#p8066a8490a)" d="M 344.170588 768.96 
L 346.14 768.96 
L 346.14 679.268518 
L 344.170588 679.268518 
z
" style="fill:#1f77b4;"/>
   </g>
   <g id="patch_50">
    <path clip-path="url(#p8066a8490a)" d="M 348.109412 768.96 
L 350.078824 768.96 
L 350.078824 619.098781 
L 348.109412 619.098781 
z
" style="fill:#1f77b4;"/>
   </g>
   <g id="patch_51">
    <path clip-path="url(#p8066a8490a)" d="M 352.048235 768.96 
L 354.017647 768.96 
L 354.017647 575.495999 
L 352.048235 575.495999 
z
" style="fill:#1f77b4;"/>
   </g>
   <g id="patch_52">
    <path clip-path="url(#p8066a8490a)" d="M 355.987059 768.96 
L 357.956471 768.96 
L 357.956471 583.589824 
L 355.987059 583.589824 
z
" style="fill:#1f77b4;"/>
   </g>
   <g id="patch_53">
    <path clip-path="url(#p8066a8490a)" d="M 359.925882 768.96 
L 361.895294 768.96 
L 361.895294 740.453631 
L 359.925882 740.453631 
z
" style="fill:#1f77b4;"/>
   </g>
   <g id="patch_54">
    <path clip-path="url(#p8066a8490a)" d="M 363.864706 768.96 
L 365.834118 768.96 
L 365.834118 631.545881 
L 363.864706 631.545881 
z
" style="fill:#1f77b4;"/>
   </g>
   <g id="patch_55">
    <path clip-path="url(#p8066a8490a)" d="M 367.803529 768.96 
L 369.772941 768.96 
L 369.772941 662.19971 
L 367.803529 662.19971 
z
" style="fill:#1f77b4;"/>
   </g>
   <g id="patch_56">
    <path clip-path="url(#p8066a8490a)" d="M 371.742353 768.96 
L 373.711765 768.96 
L 373.711765 610.106291 
L 371.742353 610.106291 
z
" style="fill:#1f77b4;"/>
   </g>
   <g id="patch_57">
    <path clip-path="url(#p8066a8490a)" d="M 375.681176 768.96 
L 377.650588 768.96 
L 377.650588 462.637622 
L 375.681176 462.637622 
z
" style="fill:#1f77b4;"/>
   </g>
   <g id="patch_58">
    <path clip-path="url(#p8066a8490a)" d="M 379.62 768.96 
L 381.589412 768.96 
L 381.589412 458.605299 
L 379.62 458.605299 
z
" style="fill:#1f77b4;"/>
   </g>
   <g id="patch_59">
    <path clip-path="url(#p8066a8490a)" d="M 383.558824 768.96 
L 385.528235 768.96 
L 385.528235 495.946599 
L 383.558824 495.946599 
z
" style="fill:#1f77b4;"/>
   </g>
   <g id="patch_60">
    <path clip-path="url(#p8066a8490a)" d="M 387.497647 768.96 
L 389.467059 768.96 
L 389.467059 529.401464 
L 387.497647 529.401464 
z
" style="fill:#1f77b4;"/>
   </g>
   <g id="patch_61">
    <path clip-path="url(#p8066a8490a)" d="M 391.436471 768.96 
L 393.405882 768.96 
L 393.405882 653.639046 
L 391.436471 653.639046 
z
" style="fill:#1f77b4;"/>
   </g>
   <g id="patch_62">
    <path clip-path="url(#p8066a8490a)" d="M 395.375294 768.96 
L 397.344706 768.96 
L 397.344706 596.322863 
L 395.375294 596.322863 
z
" style="fill:#1f77b4;"/>
   </g>
   <g id="patch_63">
    <path clip-path="url(#p8066a8490a)" d="M 399.314118 768.96 
L 401.283529 768.96 
L 401.283529 539.170074 
L 399.314118 539.170074 
z
" style="fill:#1f77b4;"/>
   </g>
   <g id="patch_64">
    <path clip-path="url(#p8066a8490a)" d="M 403.252941 768.96 
L 405.222353 768.96 
L 405.222353 503.159265 
L 403.252941 503.159265 
z
" style="fill:#1f77b4;"/>
   </g>
   <g id="patch_65">
    <path clip-path="url(#p8066a8490a)" d="M 407.191765 768.96 
L 409.161176 768.96 
L 409.161176 379.137596 
L 407.191765 379.137596 
z
" style="fill:#1f77b4;"/>
   </g>
   <g id="patch_66">
    <path clip-path="url(#p8066a8490a)" d="M 411.130588 768.96 
L 413.1 768.96 
L 413.1 396.148049 
L 411.130588 396.148049 
z
" style="fill:#1f77b4;"/>
   </g>
   <g id="patch_67">
    <path clip-path="url(#p8066a8490a)" d="M 415.069412 768.96 
L 417.038824 768.96 
L 417.038824 490.437897 
L 415.069412 490.437897 
z
" style="fill:#1f77b4;"/>
   </g>
   <g id="patch_68">
    <path clip-path="url(#p8066a8490a)" d="M 419.008235 768.96 
L 420.977647 768.96 
L 420.977647 681.392637 
L 419.008235 681.392637 
z
" style="fill:#1f77b4;"/>
   </g>
   <g id="patch_69">
    <path clip-path="url(#p8066a8490a)" d="M 422.947059 768.96 
L 424.916471 768.96 
L 424.916471 527.586626 
L 422.947059 527.586626 
z
" style="fill:#1f77b4;"/>
   </g>
   <g id="patch_70">
    <path clip-path="url(#p8066a8490a)" d="M 426.885882 768.96 
L 428.855294 768.96 
L 428.855294 459.311393 
L 426.885882 459.311393 
z
" style="fill:#1f77b4;"/>
   </g>
   <g id="patch_71">
    <path clip-path="url(#p8066a8490a)" d="M 430.824706 768.96 
L 432.794118 768.96 
L 432.794118 428.861806 
L 430.824706 428.861806 
z
" style="fill:#1f77b4;"/>
   </g>
   <g id="patch_72">
    <path clip-path="url(#p8066a8490a)" d="M 434.763529 768.96 
L 436.732941 768.96 
L 436.732941 403.255676 
L 434.763529 403.255676 
z
" style="fill:#1f77b4;"/>
   </g>
   <g id="patch_73">
    <path clip-path="url(#p8066a8490a)" d="M 438.702353 768.96 
L 440.671765 768.96 
L 440.671765 349.376597 
L 438.702353 349.376597 
z
" style="fill:#1f77b4;"/>
   </g>
   <g id="patch_74">
    <path clip-path="url(#p8066a8490a)" d="M 442.641176 768.96 
L 444.610588 768.96 
L 444.610588 501.309415 
L 442.641176 501.309415 
z
" style="fill:#1f77b4;"/>
   </g>
   <g id="patch_75">
    <path clip-path="url(#p8066a8490a)" d="M 446.58 768.96 
L 448.549412 768.96 
L 448.549412 498.035705 
L 446.58 498.035705 
z
" style="fill:#1f77b4;"/>
   </g>
   <g id="patch_76">
    <path clip-path="url(#p8066a8490a)" d="M 450.518824 768.96 
L 452.488235 768.96 
L 452.488235 529.850796 
L 450.518824 529.850796 
z
" style="fill:#1f77b4;"/>
   </g>
   <g id="patch_77">
    <path clip-path="url(#p8066a8490a)" d="M 454.457647 768.96 
L 456.427059 768.96 
L 456.427059 501.54867 
L 454.457647 501.54867 
z
" style="fill:#1f77b4;"/>
   </g>
   <g id="patch_78">
    <path clip-path="url(#p8066a8490a)" d="M 458.396471 768.96 
L 460.365882 768.96 
L 460.365882 532.16165 
L 458.396471 532.16165 
z
" style="fill:#1f77b4;"/>
   </g>
   <g id="patch_79">
    <path clip-path="url(#p8066a8490a)" d="M 462.335294 768.96 
L 464.304706 768.96 
L 464.304706 497.078684 
L 462.335294 497.078684 
z
" style="fill:#1f77b4;"/>
   </g>
   <g id="patch_80">
    <path clip-path="url(#p8066a8490a)" d="M 466.274118 768.96 
L 468.243529 768.96 
L 468.243529 486.113799 
L 466.274118 486.113799 
z
" style="fill:#1f77b4;"/>
   </g>
   <g id="patch_81">
    <path clip-path="url(#p8066a8490a)" d="M 470.212941 768.96 
L 472.182353 768.96 
L 472.182353 594.858155 
L 470.212941 594.858155 
z
" style="fill:#1f77b4;"/>
   </g>
   <g id="patch_82">
    <path clip-path="url(#p8066a8490a)" d="M 474.151765 768.96 
L 476.121176 768.96 
L 476.121176 674.109945 
L 474.151765 674.109945 
z
" style="fill:#1f77b4;"/>
   </g>
   <g id="patch_83">
    <path clip-path="url(#p8066a8490a)" d="M 478.090588 768.96 
L 480.06 768.96 
L 480.06 616.647875 
L 478.090588 616.647875 
z
" style="fill:#1f77b4;"/>
   </g>
   <g id="patch_84">
    <path clip-path="url(#p8066a8490a)" d="M 482.029412 768.96 
L 483.998824 768.96 
L 483.998824 585.731449 
L 482.029412 585.731449 
z
" style="fill:#1f77b4;"/>
   </g>
   <g id="patch_85">
    <path clip-path="url(#p8066a8490a)" d="M 485.968235 768.96 
L 487.937647 768.96 
L 487.937647 578.647164 
L 485.968235 578.647164 
z
" style="fill:#1f77b4;"/>
   </g>
   <g id="patch_86">
    <path clip-path="url(#p8066a8490a)" d="M 489.907059 768.96 
L 491.876471 768.96 
L 491.876471 526.699632 
L 489.907059 526.699632 
z
" style="fill:#1f77b4;"/>
   </g>
   <g id="patch_87">
    <path clip-path="url(#p8066a8490a)" d="M 493.845882 768.96 
L 495.815294 768.96 
L 495.815294 464.890121 
L 493.845882 464.890121 
z
" style="fill:#1f77b4;"/>
   </g>
   <g id="patch_88">
    <path clip-path="url(#p8066a8490a)" d="M 497.784706 768.96 
L 499.754118 768.96 
L 499.754118 501.321086 
L 497.784706 501.321086 
z
" style="fill:#1f77b4;"/>
   </g>
   <g id="patch_89">
    <path clip-path="url(#p8066a8490a)" d="M 501.723529 768.96 
L 503.692941 768.96 
L 503.692941 662.736575 
L 501.723529 662.736575 
z
" style="fill:#1f77b4;"/>
   </g>
   <g id="patch_90">
    <path clip-path="url(#p8066a8490a)" d="M 505.662353 768.96 
L 507.631765 768.96 
L 507.631765 605.373708 
L 505.662353 605.373708 
z
" style="fill:#1f77b4;"/>
   </g>
   <g id="patch_91">
    <path clip-path="url(#p8066a8490a)" d="M 509.601176 768.96 
L 511.570588 768.96 
L 511.570588 474.28526 
L 509.601176 474.28526 
z
" style="fill:#1f77b4;"/>
   </g>
   <g id="patch_92">
    <path clip-path="url(#p8066a8490a)" d="M 513.54 768.96 
L 515.509412 768.96 
L 515.509412 517.98141 
L 513.54 517.98141 
z
" style="fill:#1f77b4;"/>
   </g>
   <g id="patch_93">
    <path clip-path="url(#p8066a8490a)" d="M 517.478824 768.96 
L 519.448235 768.96 
L 519.448235 422.483615 
L 517.478824 422.483615 
z
" style="fill:#1f77b4;"/>
   </g>
   <g id="patch_94">
    <path clip-path="url(#p8066a8490a)" d="M 521.417647 768.96 
L 523.387059 768.96 
L 523.387059 417.050774 
L 521.417647 417.050774 
z
" style="fill:#1f77b4;"/>
   </g>
   <g id="patch_95">
    <path clip-path="url(#p8066a8490a)" d="M 525.356471 768.96 
L 527.325882 768.96 
L 527.325882 493.443174 
L 525.356471 493.443174 
z
" style="fill:#1f77b4;"/>
   </g>
   <g id="patch_96">
    <path clip-path="url(#p8066a8490a)" d="M 529.295294 768.96 
L 531.264706 768.96 
L 531.264706 692.730994 
L 529.295294 692.730994 
z
" style="fill:#1f77b4;"/>
   </g>
   <g id="patch_97">
    <path clip-path="url(#p8066a8490a)" d="M 533.234118 768.96 
L 535.203529 768.96 
L 535.203529 510.459463 
L 533.234118 510.459463 
z
" style="fill:#1f77b4;"/>
   </g>
   <g id="patch_98">
    <path clip-path="url(#p8066a8490a)" d="M 537.172941 768.96 
L 539.142353 768.96 
L 539.142353 370.308499 
L 537.172941 370.308499 
z
" style="fill:#1f77b4;"/>
   </g>
   <g id="patch_99">
    <path clip-path="url(#p8066a8490a)" d="M 541.111765 768.96 
L 543.081176 768.96 
L 543.081176 329.162459 
L 541.111765 329.162459 
z
" style="fill:#1f77b4;"/>
   </g>
   <g id="patch_100">
    <path clip-path="url(#p8066a8490a)" d="M 545.050588 768.96 
L 547.02 768.96 
L 547.02 239.67522 
L 545.050588 239.67522 
z
" style="fill:#1f77b4;"/>
   </g>
   <g id="patch_101">
    <path clip-path="url(#p8066a8490a)" d="M 548.989412 768.96 
L 550.958824 768.96 
L 550.958824 135.36 
L 548.989412 135.36 
z
" style="fill:#1f77b4;"/>
   </g>
   <g id="patch_102">
    <path clip-path="url(#p8066a8490a)" d="M 552.928235 768.96 
L 554.897647 768.96 
L 554.897647 339.024437 
L 552.928235 339.024437 
z
" style="fill:#1f77b4;"/>
   </g>
   <g id="patch_103">
    <path clip-path="url(#p8066a8490a)" d="M 556.867059 768.96 
L 558.836471 768.96 
L 558.836471 563.760829 
L 556.867059 563.760829 
z
" style="fill:#1f77b4;"/>
   </g>
   <g id="patch_104">
    <path clip-path="url(#p8066a8490a)" d="M 560.805882 768.96 
L 562.775294 768.96 
L 562.775294 417.879414 
L 560.805882 417.879414 
z
" style="fill:#1f77b4;"/>
   </g>
   <g id="patch_105">
    <path clip-path="url(#p8066a8490a)" d="M 564.744706 768.96 
L 566.714118 768.96 
L 566.714118 335.184685 
L 564.744706 335.184685 
z
" style="fill:#1f77b4;"/>
   </g>
   <g id="patch_106">
    <path clip-path="url(#p8066a8490a)" d="M 568.683529 768.96 
L 570.652941 768.96 
L 570.652941 395.961313 
L 568.683529 395.961313 
z
" style="fill:#1f77b4;"/>
   </g>
   <g id="patch_107">
    <path clip-path="url(#p8066a8490a)" d="M 572.622353 768.96 
L 574.591765 768.96 
L 574.591765 259.918534 
L 572.622353 259.918534 
z
" style="fill:#1f77b4;"/>
   </g>
   <g id="patch_108">
    <path clip-path="url(#p8066a8490a)" d="M 576.561176 768.96 
L 578.530588 768.96 
L 578.530588 266.430941 
L 576.561176 266.430941 
z
" style="fill:#1f77b4;"/>
   </g>
   <g id="patch_109">
    <path clip-path="url(#p8066a8490a)" d="M 580.5 768.96 
L 582.469412 768.96 
L 582.469412 415.265114 
L 580.5 415.265114 
z
" style="fill:#1f77b4;"/>
   </g>
   <g id="patch_110">
    <path clip-path="url(#p8066a8490a)" d="M 584.438824 768.96 
L 586.408235 768.96 
L 586.408235 564.321036 
L 584.438824 564.321036 
z
" style="fill:#1f77b4;"/>
   </g>
   <g id="patch_111">
    <path clip-path="url(#p8066a8490a)" d="M 588.377647 768.96 
L 590.347059 768.96 
L 590.347059 477.401412 
L 588.377647 477.401412 
z
" style="fill:#1f77b4;"/>
   </g>
   <g id="patch_112">
    <path clip-path="url(#p8066a8490a)" d="M 592.316471 768.96 
L 594.285882 768.96 
L 594.285882 296.285308 
L 592.316471 296.285308 
z
" style="fill:#1f77b4;"/>
   </g>
   <g id="patch_113">
    <path clip-path="url(#p8066a8490a)" d="M 596.255294 768.96 
L 598.224706 768.96 
L 598.224706 351.728299 
L 596.255294 351.728299 
z
" style="fill:#1f77b4;"/>
   </g>
   <g id="patch_114">
    <path clip-path="url(#p8066a8490a)" d="M 600.194118 768.96 
L 602.163529 768.96 
L 602.163529 332.004343 
L 600.194118 332.004343 
z
" style="fill:#1f77b4;"/>
   </g>
   <g id="patch_115">
    <path clip-path="url(#p8066a8490a)" d="M 604.132941 768.96 
L 606.102353 768.96 
L 606.102353 363.842776 
L 604.132941 363.842776 
z
" style="fill:#1f77b4;"/>
   </g>
   <g id="patch_116">
    <path clip-path="url(#p8066a8490a)" d="M 608.071765 768.96 
L 610.041176 768.96 
L 610.041176 498.98689 
L 608.071765 498.98689 
z
" style="fill:#1f77b4;"/>
   </g>
   <g id="patch_117">
    <path clip-path="url(#p8066a8490a)" d="M 612.010588 768.96 
L 613.98 768.96 
L 613.98 658.097361 
L 612.010588 658.097361 
z
" style="fill:#1f77b4;"/>
   </g>
   <g id="patch_118">
    <path clip-path="url(#p8066a8490a)" d="M 615.949412 768.96 
L 617.918824 768.96 
L 617.918824 517.041896 
L 615.949412 517.041896 
z
" style="fill:#1f77b4;"/>
   </g>
   <g id="patch_119">
    <path clip-path="url(#p8066a8490a)" d="M 619.888235 768.96 
L 621.857647 768.96 
L 621.857647 407.912397 
L 619.888235 407.912397 
z
" style="fill:#1f77b4;"/>
   </g>
   <g id="patch_120">
    <path clip-path="url(#p8066a8490a)" d="M 623.827059 768.96 
L 625.796471 768.96 
L 625.796471 393.422875 
L 623.827059 393.422875 
z
" style="fill:#1f77b4;"/>
   </g>
   <g id="patch_121">
    <path clip-path="url(#p8066a8490a)" d="M 627.765882 768.96 
L 629.735294 768.96 
L 629.735294 405.869975 
L 627.765882 405.869975 
z
" style="fill:#1f77b4;"/>
   </g>
   <g id="patch_122">
    <path clip-path="url(#p8066a8490a)" d="M 631.704706 768.96 
L 633.674118 768.96 
L 633.674118 454.403746 
L 631.704706 454.403746 
z
" style="fill:#1f77b4;"/>
   </g>
   <g id="patch_123">
    <path clip-path="url(#p8066a8490a)" d="M 635.643529 768.96 
L 637.612941 768.96 
L 637.612941 625.902962 
L 635.643529 625.902962 
z
" style="fill:#1f77b4;"/>
   </g>
   <g id="patch_124">
    <path clip-path="url(#p8066a8490a)" d="M 639.582353 768.96 
L 641.551765 768.96 
L 641.551765 723.513204 
L 639.582353 723.513204 
z
" style="fill:#1f77b4;"/>
   </g>
   <g id="patch_125">
    <path clip-path="url(#p8066a8490a)" d="M 643.521176 768.96 
L 645.490588 768.96 
L 645.490588 613.204936 
L 643.521176 613.204936 
z
" style="fill:#1f77b4;"/>
   </g>
   <g id="patch_126">
    <path clip-path="url(#p8066a8490a)" d="M 647.46 768.96 
L 649.429412 768.96 
L 649.429412 362.319713 
L 647.46 362.319713 
z
" style="fill:#1f77b4;"/>
   </g>
   <g id="patch_127">
    <path clip-path="url(#p8066a8490a)" d="M 651.398824 768.96 
L 653.368235 768.96 
L 653.368235 370.792845 
L 651.398824 370.792845 
z
" style="fill:#1f77b4;"/>
   </g>
   <g id="patch_128">
    <path clip-path="url(#p8066a8490a)" d="M 655.337647 768.96 
L 657.307059 768.96 
L 657.307059 470.632244 
L 655.337647 470.632244 
z
" style="fill:#1f77b4;"/>
   </g>
   <g id="patch_129">
    <path clip-path="url(#p8066a8490a)" d="M 659.276471 768.96 
L 661.245882 768.96 
L 661.245882 322.988511 
L 659.276471 322.988511 
z
" style="fill:#1f77b4;"/>
   </g>
   <g id="patch_130">
    <path clip-path="url(#p8066a8490a)" d="M 663.215294 768.96 
L 665.184706 768.96 
L 665.184706 466.944214 
L 663.215294 466.944214 
z
" style="fill:#1f77b4;"/>
   </g>
   <g id="patch_131">
    <path clip-path="url(#p8066a8490a)" d="M 667.154118 768.96 
L 669.123529 768.96 
L 669.123529 499.657971 
L 667.154118 499.657971 
z
" style="fill:#1f77b4;"/>
   </g>
   <g id="patch_132">
    <path clip-path="url(#p8066a8490a)" d="M 671.092941 768.96 
L 673.062353 768.96 
L 673.062353 535.802996 
L 671.092941 535.802996 
z
" style="fill:#1f77b4;"/>
   </g>
   <g id="patch_133">
    <path clip-path="url(#p8066a8490a)" d="M 675.031765 768.96 
L 677.001176 768.96 
L 677.001176 460.221729 
L 675.031765 460.221729 
z
" style="fill:#1f77b4;"/>
   </g>
   <g id="patch_134">
    <path clip-path="url(#p8066a8490a)" d="M 678.970588 768.96 
L 680.94 768.96 
L 680.94 489.545067 
L 678.970588 489.545067 
z
" style="fill:#1f77b4;"/>
   </g>
   <g id="patch_135">
    <path clip-path="url(#p8066a8490a)" d="M 682.909412 768.96 
L 684.878824 768.96 
L 684.878824 477.815732 
L 682.909412 477.815732 
z
" style="fill:#1f77b4;"/>
   </g>
   <g id="patch_136">
    <path clip-path="url(#p8066a8490a)" d="M 686.848235 768.96 
L 688.817647 768.96 
L 688.817647 347.065742 
L 686.848235 347.065742 
z
" style="fill:#1f77b4;"/>
   </g>
   <g id="patch_137">
    <path clip-path="url(#p8066a8490a)" d="M 690.787059 768.96 
L 692.756471 768.96 
L 692.756471 534.507517 
L 690.787059 534.507517 
z
" style="fill:#1f77b4;"/>
   </g>
   <g id="patch_138">
    <path clip-path="url(#p8066a8490a)" d="M 694.725882 768.96 
L 696.695294 768.96 
L 696.695294 674.973598 
L 694.725882 674.973598 
z
" style="fill:#1f77b4;"/>
   </g>
   <g id="patch_139">
    <path clip-path="url(#p8066a8490a)" d="M 698.664706 768.96 
L 700.634118 768.96 
L 700.634118 604.702627 
L 698.664706 604.702627 
z
" style="fill:#1f77b4;"/>
   </g>
   <g id="patch_140">
    <path clip-path="url(#p8066a8490a)" d="M 702.603529 768.96 
L 704.572941 768.96 
L 704.572941 466.074726 
L 702.603529 466.074726 
z
" style="fill:#1f77b4;"/>
   </g>
   <g id="patch_141">
    <path clip-path="url(#p8066a8490a)" d="M 706.542353 768.96 
L 708.511765 768.96 
L 708.511765 498.309973 
L 706.542353 498.309973 
z
" style="fill:#1f77b4;"/>
   </g>
   <g id="patch_142">
    <path clip-path="url(#p8066a8490a)" d="M 710.481176 768.96 
L 712.450588 768.96 
L 712.450588 382.825625 
L 710.481176 382.825625 
z
" style="fill:#1f77b4;"/>
   </g>
   <g id="patch_143">
    <path clip-path="url(#p8066a8490a)" d="M 714.42 768.96 
L 716.389412 768.96 
L 716.389412 519.166014 
L 714.42 519.166014 
z
" style="fill:#1f77b4;"/>
   </g>
   <g id="patch_144">
    <path clip-path="url(#p8066a8490a)" d="M 718.358824 768.96 
L 720.328235 768.96 
L 720.328235 568.791021 
L 718.358824 568.791021 
z
" style="fill:#1f77b4;"/>
   </g>
   <g id="patch_145">
    <path clip-path="url(#p8066a8490a)" d="M 722.297647 768.96 
L 724.267059 768.96 
L 724.267059 677.091881 
L 722.297647 677.091881 
z
" style="fill:#1f77b4;"/>
   </g>
   <g id="patch_146">
    <path clip-path="url(#p8066a8490a)" d="M 726.236471 768.96 
L 728.205882 768.96 
L 728.205882 616.898801 
L 726.236471 616.898801 
z
" style="fill:#1f77b4;"/>
   </g>
   <g id="patch_147">
    <path clip-path="url(#p8066a8490a)" d="M 730.175294 768.96 
L 732.144706 768.96 
L 732.144706 584.360109 
L 730.175294 584.360109 
z
" style="fill:#1f77b4;"/>
   </g>
   <g id="patch_148">
    <path clip-path="url(#p8066a8490a)" d="M 734.114118 768.96 
L 736.083529 768.96 
L 736.083529 583.648179 
L 734.114118 583.648179 
z
" style="fill:#1f77b4;"/>
   </g>
   <g id="patch_149">
    <path clip-path="url(#p8066a8490a)" d="M 738.052941 768.96 
L 740.022353 768.96 
L 740.022353 573.605301 
L 738.052941 573.605301 
z
" style="fill:#1f77b4;"/>
   </g>
   <g id="patch_150">
    <path clip-path="url(#p8066a8490a)" d="M 741.991765 768.96 
L 743.961176 768.96 
L 743.961176 586.40253 
L 741.991765 586.40253 
z
" style="fill:#1f77b4;"/>
   </g>
   <g id="patch_151">
    <path clip-path="url(#p8066a8490a)" d="M 745.930588 768.96 
L 747.9 768.96 
L 747.9 643.928791 
L 745.930588 643.928791 
z
" style="fill:#1f77b4;"/>
   </g>
   <g id="patch_152">
    <path clip-path="url(#p8066a8490a)" d="M 749.869412 768.96 
L 751.838824 768.96 
L 751.838824 698.794068 
L 749.869412 698.794068 
z
" style="fill:#1f77b4;"/>
   </g>
   <g id="patch_153">
    <path clip-path="url(#p8066a8490a)" d="M 753.808235 768.96 
L 755.777647 768.96 
L 755.777647 717.975324 
L 753.808235 717.975324 
z
" style="fill:#1f77b4;"/>
   </g>
   <g id="patch_154">
    <path clip-path="url(#p8066a8490a)" d="M 757.747059 768.96 
L 759.716471 768.96 
L 759.716471 659.194433 
L 757.747059 659.194433 
z
" style="fill:#1f77b4;"/>
   </g>
   <g id="patch_155">
    <path clip-path="url(#p8066a8490a)" d="M 761.685882 768.96 
L 763.655294 768.96 
L 763.655294 653.417298 
L 761.685882 653.417298 
z
" style="fill:#1f77b4;"/>
   </g>
   <g id="patch_156">
    <path clip-path="url(#p8066a8490a)" d="M 765.624706 768.96 
L 767.594118 768.96 
L 767.594118 580.91717 
L 765.624706 580.91717 
z
" style="fill:#1f77b4;"/>
   </g>
   <g id="patch_157">
    <path clip-path="url(#p8066a8490a)" d="M 769.563529 768.96 
L 771.532941 768.96 
L 771.532941 556.116337 
L 769.563529 556.116337 
z
" style="fill:#1f77b4;"/>
   </g>
   <g id="patch_158">
    <path clip-path="url(#p8066a8490a)" d="M 773.502353 768.96 
L 775.471765 768.96 
L 775.471765 579.814262 
L 773.502353 579.814262 
z
" style="fill:#1f77b4;"/>
   </g>
   <g id="patch_159">
    <path clip-path="url(#p8066a8490a)" d="M 777.441176 768.96 
L 779.410588 768.96 
L 779.410588 634.131003 
L 777.441176 634.131003 
z
" style="fill:#1f77b4;"/>
   </g>
   <g id="patch_160">
    <path clip-path="url(#p8066a8490a)" d="M 781.38 768.96 
L 783.349412 768.96 
L 783.349412 581.798329 
L 781.38 581.798329 
z
" style="fill:#1f77b4;"/>
   </g>
   <g id="patch_161">
    <path clip-path="url(#p8066a8490a)" d="M 785.318824 768.96 
L 787.288235 768.96 
L 787.288235 567.839836 
L 785.318824 567.839836 
z
" style="fill:#1f77b4;"/>
   </g>
   <g id="patch_162">
    <path clip-path="url(#p8066a8490a)" d="M 789.257647 768.96 
L 791.227059 768.96 
L 791.227059 534.723431 
L 789.257647 534.723431 
z
" style="fill:#1f77b4;"/>
   </g>
   <g id="patch_163">
    <path clip-path="url(#p8066a8490a)" d="M 793.196471 768.96 
L 795.165882 768.96 
L 795.165882 606.815074 
L 793.196471 606.815074 
z
" style="fill:#1f77b4;"/>
   </g>
   <g id="patch_164">
    <path clip-path="url(#p8066a8490a)" d="M 797.135294 768.96 
L 799.104706 768.96 
L 799.104706 615.329054 
L 797.135294 615.329054 
z
" style="fill:#1f77b4;"/>
   </g>
   <g id="patch_165">
    <path clip-path="url(#p8066a8490a)" d="M 801.074118 768.96 
L 803.043529 768.96 
L 803.043529 676.66589 
L 801.074118 676.66589 
z
" style="fill:#1f77b4;"/>
   </g>
   <g id="patch_166">
    <path clip-path="url(#p8066a8490a)" d="M 805.012941 768.96 
L 806.982353 768.96 
L 806.982353 675.971467 
L 805.012941 675.971467 
z
" style="fill:#1f77b4;"/>
   </g>
   <g id="patch_167">
    <path clip-path="url(#p8066a8490a)" d="M 808.951765 768.96 
L 810.921176 768.96 
L 810.921176 484.211429 
L 808.951765 484.211429 
z
" style="fill:#1f77b4;"/>
   </g>
   <g id="patch_168">
    <path clip-path="url(#p8066a8490a)" d="M 812.890588 768.96 
L 814.86 768.96 
L 814.86 558.0012 
L 812.890588 558.0012 
z
" style="fill:#1f77b4;"/>
   </g>
   <g id="patch_169">
    <path clip-path="url(#p8066a8490a)" d="M 816.829412 768.96 
L 818.798824 768.96 
L 818.798824 625.173526 
L 816.829412 625.173526 
z
" style="fill:#1f77b4;"/>
   </g>
   <g id="patch_170">
    <path clip-path="url(#p8066a8490a)" d="M 820.768235 768.96 
L 822.737647 768.96 
L 822.737647 579.872617 
L 820.768235 579.872617 
z
" style="fill:#1f77b4;"/>
   </g>
   <g id="patch_171">
    <path clip-path="url(#p8066a8490a)" d="M 824.707059 768.96 
L 826.676471 768.96 
L 826.676471 678.124762 
L 824.707059 678.124762 
z
" style="fill:#1f77b4;"/>
   </g>
   <g id="patch_172">
    <path clip-path="url(#p8066a8490a)" d="M 828.645882 768.96 
L 830.615294 768.96 
L 830.615294 627.233454 
L 828.645882 627.233454 
z
" style="fill:#1f77b4;"/>
   </g>
   <g id="patch_173">
    <path clip-path="url(#p8066a8490a)" d="M 832.584706 768.96 
L 834.554118 768.96 
L 834.554118 708.434298 
L 832.584706 708.434298 
z
" style="fill:#1f77b4;"/>
   </g>
   <g id="patch_174">
    <path clip-path="url(#p8066a8490a)" d="M 836.523529 768.96 
L 838.492941 768.96 
L 838.492941 695.1819 
L 836.523529 695.1819 
z
" style="fill:#1f77b4;"/>
   </g>
   <g id="patch_175">
    <path clip-path="url(#p8066a8490a)" d="M 840.462353 768.96 
L 842.431765 768.96 
L 842.431765 678.737489 
L 840.462353 678.737489 
z
" style="fill:#1f77b4;"/>
   </g>
   <g id="patch_176">
    <path clip-path="url(#p8066a8490a)" d="M 844.401176 768.96 
L 846.370588 768.96 
L 846.370588 659.795488 
L 844.401176 659.795488 
z
" style="fill:#1f77b4;"/>
   </g>
   <g id="patch_177">
    <path clip-path="url(#p8066a8490a)" d="M 848.34 768.96 
L 850.309412 768.96 
L 850.309412 636.255121 
L 848.34 636.255121 
z
" style="fill:#1f77b4;"/>
   </g>
   <g id="patch_178">
    <path clip-path="url(#p8066a8490a)" d="M 852.278824 768.96 
L 854.248235 768.96 
L 854.248235 472.779704 
L 852.278824 472.779704 
z
" style="fill:#1f77b4;"/>
   </g>
   <g id="patch_179">
    <path clip-path="url(#p8066a8490a)" d="M 856.217647 768.96 
L 858.187059 768.96 
L 858.187059 427.070311 
L 856.217647 427.070311 
z
" style="fill:#1f77b4;"/>
   </g>
   <g id="patch_180">
    <path clip-path="url(#p8066a8490a)" d="M 860.156471 768.96 
L 862.125882 768.96 
L 862.125882 738.627123 
L 860.156471 738.627123 
z
" style="fill:#1f77b4;"/>
   </g>
   <g id="patch_181">
    <path clip-path="url(#p8066a8490a)" d="M 864.095294 768.96 
L 866.064706 768.96 
L 866.064706 692.836033 
L 864.095294 692.836033 
z
" style="fill:#1f77b4;"/>
   </g>
   <g id="patch_182">
    <path clip-path="url(#p8066a8490a)" d="M 868.034118 768.96 
L 870.003529 768.96 
L 870.003529 675.288714 
L 868.034118 675.288714 
z
" style="fill:#1f77b4;"/>
   </g>
   <g id="patch_183">
    <path clip-path="url(#p8066a8490a)" d="M 871.972941 768.96 
L 873.942353 768.96 
L 873.942353 679.303531 
L 871.972941 679.303531 
z
" style="fill:#1f77b4;"/>
   </g>
   <g id="patch_184">
    <path clip-path="url(#p8066a8490a)" d="M 875.911765 768.96 
L 877.881176 768.96 
L 877.881176 688.465251 
L 875.911765 688.465251 
z
" style="fill:#1f77b4;"/>
   </g>
   <g id="patch_185">
    <path clip-path="url(#p8066a8490a)" d="M 879.850588 768.96 
L 881.82 768.96 
L 881.82 687.829182 
L 879.850588 687.829182 
z
" style="fill:#1f77b4;"/>
   </g>
   <g id="patch_186">
    <path clip-path="url(#p8066a8490a)" d="M 883.789412 768.96 
L 885.758824 768.96 
L 885.758824 708.533501 
L 883.789412 708.533501 
z
" style="fill:#1f77b4;"/>
   </g>
   <g id="patch_187">
    <path clip-path="url(#p8066a8490a)" d="M 887.728235 768.96 
L 889.697647 768.96 
L 889.697647 739.840905 
L 887.728235 739.840905 
z
" style="fill:#1f77b4;"/>
   </g>
   <g id="patch_188">
    <path clip-path="url(#p8066a8490a)" d="M 891.667059 768.96 
L 893.636471 768.96 
L 893.636471 763.988163 
L 891.667059 763.988163 
z
" style="fill:#1f77b4;"/>
   </g>
   <g id="patch_189">
    <path clip-path="url(#p8066a8490a)" d="M 895.605882 768.96 
L 897.575294 768.96 
L 897.575294 721.739215 
L 895.605882 721.739215 
z
" style="fill:#1f77b4;"/>
   </g>
   <g id="patch_190">
    <path clip-path="url(#p8066a8490a)" d="M 899.544706 768.96 
L 901.514118 768.96 
L 901.514118 685.95599 
L 899.544706 685.95599 
z
" style="fill:#1f77b4;"/>
   </g>
   <g id="patch_191">
    <path clip-path="url(#p8066a8490a)" d="M 903.483529 768.96 
L 905.452941 768.96 
L 905.452941 685.588354 
L 903.483529 685.588354 
z
" style="fill:#1f77b4;"/>
   </g>
   <g id="patch_192">
    <path clip-path="url(#p8066a8490a)" d="M 907.422353 768.96 
L 909.391765 768.96 
L 909.391765 695.695423 
L 907.422353 695.695423 
z
" style="fill:#1f77b4;"/>
   </g>
   <g id="patch_193">
    <path clip-path="url(#p8066a8490a)" d="M 911.361176 768.96 
L 913.330588 768.96 
L 913.330588 707.162161 
L 911.361176 707.162161 
z
" style="fill:#1f77b4;"/>
   </g>
   <g id="patch_194">
    <path clip-path="url(#p8066a8490a)" d="M 915.3 768.96 
L 917.269412 768.96 
L 917.269412 726.926965 
L 915.3 726.926965 
z
" style="fill:#1f77b4;"/>
   </g>
   <g id="patch_195">
    <path clip-path="url(#p8066a8490a)" d="M 919.238824 768.96 
L 921.208235 768.96 
L 921.208235 690.180885 
L 919.238824 690.180885 
z
" style="fill:#1f77b4;"/>
   </g>
   <g id="patch_196">
    <path clip-path="url(#p8066a8490a)" d="M 923.177647 768.96 
L 925.147059 768.96 
L 925.147059 703.975983 
L 923.177647 703.975983 
z
" style="fill:#1f77b4;"/>
   </g>
   <g id="patch_197">
    <path clip-path="url(#p8066a8490a)" d="M 927.116471 768.96 
L 929.085882 768.96 
L 929.085882 706.835373 
L 927.116471 706.835373 
z
" style="fill:#1f77b4;"/>
   </g>
   <g id="patch_198">
    <path clip-path="url(#p8066a8490a)" d="M 931.055294 768.96 
L 933.024706 768.96 
L 933.024706 707.378074 
L 931.055294 707.378074 
z
" style="fill:#1f77b4;"/>
   </g>
   <g id="patch_199">
    <path clip-path="url(#p8066a8490a)" d="M 934.994118 768.96 
L 936.963529 768.96 
L 936.963529 706.695321 
L 934.994118 706.695321 
z
" style="fill:#1f77b4;"/>
   </g>
   <g id="patch_200">
    <path clip-path="url(#p8066a8490a)" d="M 938.932941 768.96 
L 940.902353 768.96 
L 940.902353 716.942442 
L 938.932941 716.942442 
z
" style="fill:#1f77b4;"/>
   </g>
   <g id="patch_201">
    <path clip-path="url(#p8066a8490a)" d="M 942.871765 768.96 
L 944.841176 768.96 
L 944.841176 733.602766 
L 942.871765 733.602766 
z
" style="fill:#1f77b4;"/>
   </g>
   <g id="patch_202">
    <path clip-path="url(#p8066a8490a)" d="M 946.810588 768.96 
L 948.78 768.96 
L 948.78 716.300538 
L 946.810588 716.300538 
z
" style="fill:#1f77b4;"/>
   </g>
   <g id="patch_203">
    <path clip-path="url(#p8066a8490a)" d="M 950.749412 768.96 
L 952.718824 768.96 
L 952.718824 698.776562 
L 950.749412 698.776562 
z
" style="fill:#1f77b4;"/>
   </g>
   <g id="patch_204">
    <path clip-path="url(#p8066a8490a)" d="M 954.688235 768.96 
L 956.657647 768.96 
L 956.657647 703.596676 
L 954.688235 703.596676 
z
" style="fill:#1f77b4;"/>
   </g>
   <g id="patch_205">
    <path clip-path="url(#p8066a8490a)" d="M 958.627059 768.96 
L 960.596471 768.96 
L 960.596471 721.523302 
L 958.627059 721.523302 
z
" style="fill:#1f77b4;"/>
   </g>
   <g id="patch_206">
    <path clip-path="url(#p8066a8490a)" d="M 962.565882 768.96 
L 964.535294 768.96 
L 964.535294 720.327026 
L 962.565882 720.327026 
z
" style="fill:#1f77b4;"/>
   </g>
   <g id="patch_207">
    <path clip-path="url(#p8066a8490a)" d="M 966.504706 768.96 
L 968.474118 768.96 
L 968.474118 738.790517 
L 966.504706 738.790517 
z
" style="fill:#1f77b4;"/>
   </g>
   <g id="patch_208">
    <path clip-path="url(#p8066a8490a)" d="M 970.443529 768.96 
L 972.412941 768.96 
L 972.412941 751.412682 
L 970.443529 751.412682 
z
" style="fill:#1f77b4;"/>
   </g>
   <g id="patch_209">
    <path clip-path="url(#p8066a8490a)" d="M 974.382353 768.96 
L 976.351765 768.96 
L 976.351765 739.881753 
L 974.382353 739.881753 
z
" style="fill:#1f77b4;"/>
   </g>
   <g id="patch_210">
    <path clip-path="url(#p8066a8490a)" d="M 978.321176 768.96 
L 980.290588 768.96 
L 980.290588 702.470427 
L 978.321176 702.470427 
z
" style="fill:#1f77b4;"/>
   </g>
   <g id="patch_211">
    <path clip-path="url(#p8066a8490a)" d="M 982.26 768.96 
L 984.229412 768.96 
L 984.229412 657.210366 
L 982.26 657.210366 
z
" style="fill:#1f77b4;"/>
   </g>
   <g id="patch_212">
    <path clip-path="url(#p8066a8490a)" d="M 986.198824 768.96 
L 988.168235 768.96 
L 988.168235 710.955229 
L 986.198824 710.955229 
z
" style="fill:#1f77b4;"/>
   </g>
   <g id="patch_213">
    <path clip-path="url(#p8066a8490a)" d="M 990.137647 768.96 
L 992.107059 768.96 
L 992.107059 642.539944 
L 990.137647 642.539944 
z
" style="fill:#1f77b4;"/>
   </g>
   <g id="patch_214">
    <path clip-path="url(#p8066a8490a)" d="M 994.076471 768.96 
L 996.045882 768.96 
L 996.045882 723.063871 
L 994.076471 723.063871 
z
" style="fill:#1f77b4;"/>
   </g>
   <g id="patch_215">
    <path clip-path="url(#p8066a8490a)" d="M 998.015294 768.96 
L 999.984706 768.96 
L 999.984706 734.699838 
L 998.015294 734.699838 
z
" style="fill:#1f77b4;"/>
   </g>
   <g id="patch_216">
    <path clip-path="url(#p8066a8490a)" d="M 1001.954118 768.96 
L 1003.923529 768.96 
L 1003.923529 722.357777 
L 1001.954118 722.357777 
z
" style="fill:#1f77b4;"/>
   </g>
   <g id="patch_217">
    <path clip-path="url(#p8066a8490a)" d="M 1005.892941 768.96 
L 1007.862353 768.96 
L 1007.862353 705.90753 
L 1005.892941 705.90753 
z
" style="fill:#1f77b4;"/>
   </g>
   <g id="patch_218">
    <path clip-path="url(#p8066a8490a)" d="M 1009.831765 768.96 
L 1011.801176 768.96 
L 1011.801176 710.844355 
L 1009.831765 710.844355 
z
" style="fill:#1f77b4;"/>
   </g>
   <g id="patch_219">
    <path clip-path="url(#p8066a8490a)" d="M 1013.770588 768.96 
L 1015.74 768.96 
L 1015.74 708.877795 
L 1013.770588 708.877795 
z
" style="fill:#1f77b4;"/>
   </g>
   <g id="patch_220">
    <path clip-path="url(#p8066a8490a)" d="M 1017.709412 768.96 
L 1019.678824 768.96 
L 1019.678824 705.259791 
L 1017.709412 705.259791 
z
" style="fill:#1f77b4;"/>
   </g>
   <g id="patch_221">
    <path clip-path="url(#p8066a8490a)" d="M 1021.648235 768.96 
L 1023.617647 768.96 
L 1023.617647 666.611341 
L 1021.648235 666.611341 
z
" style="fill:#1f77b4;"/>
   </g>
   <g id="patch_222">
    <path clip-path="url(#p8066a8490a)" d="M 1025.587059 768.96 
L 1027.556471 768.96 
L 1027.556471 729.360365 
L 1025.587059 729.360365 
z
" style="fill:#1f77b4;"/>
   </g>
   <g id="patch_223">
    <path clip-path="url(#p8066a8490a)" d="M 1029.525882 768.96 
L 1031.495294 768.96 
L 1031.495294 723.82832 
L 1029.525882 723.82832 
z
" style="fill:#1f77b4;"/>
   </g>
   <g id="patch_224">
    <path clip-path="url(#p8066a8490a)" d="M 1033.464706 768.96 
L 1035.434118 768.96 
L 1035.434118 726.238378 
L 1033.464706 726.238378 
z
" style="fill:#1f77b4;"/>
   </g>
   <g id="patch_225">
    <path clip-path="url(#p8066a8490a)" d="M 1037.403529 768.96 
L 1039.372941 768.96 
L 1039.372941 614.115272 
L 1037.403529 614.115272 
z
" style="fill:#1f77b4;"/>
   </g>
   <g id="patch_226">
    <path clip-path="url(#p8066a8490a)" d="M 1041.342353 768.96 
L 1043.311765 768.96 
L 1043.311765 632.578763 
L 1041.342353 632.578763 
z
" style="fill:#1f77b4;"/>
   </g>
   <g id="patch_227">
    <path clip-path="url(#p8066a8490a)" d="M 1045.281176 768.96 
L 1047.250588 768.96 
L 1047.250588 645.737793 
L 1045.281176 645.737793 
z
" style="fill:#1f77b4;"/>
   </g>
   <g id="patch_228">
    <path clip-path="url(#p8066a8490a)" d="M 1049.22 768.96 
L 1051.189412 768.96 
L 1051.189412 608.151401 
L 1049.22 608.151401 
z
" style="fill:#1f77b4;"/>
   </g>
   <g id="patch_229">
    <path clip-path="url(#p8066a8490a)" d="M 1053.158824 768.96 
L 1055.128235 768.96 
L 1055.128235 658.727594 
L 1053.158824 658.727594 
z
" style="fill:#1f77b4;"/>
   </g>
   <g id="patch_230">
    <path clip-path="url(#p8066a8490a)" d="M 1057.097647 768.96 
L 1059.067059 768.96 
L 1059.067059 715.331847 
L 1057.097647 715.331847 
z
" style="fill:#1f77b4;"/>
   </g>
   <g id="patch_231">
    <path clip-path="url(#p8066a8490a)" d="M 1061.036471 768.96 
L 1063.005882 768.96 
L 1063.005882 693.151149 
L 1061.036471 693.151149 
z
" style="fill:#1f77b4;"/>
   </g>
   <g id="patch_232">
    <path clip-path="url(#p8066a8490a)" d="M 1064.975294 768.96 
L 1066.944706 768.96 
L 1066.944706 697.732009 
L 1064.975294 697.732009 
z
" style="fill:#1f77b4;"/>
   </g>
   <g id="patch_233">
    <path clip-path="url(#p8066a8490a)" d="M 1068.914118 768.96 
L 1070.883529 768.96 
L 1070.883529 701.408368 
L 1068.914118 701.408368 
z
" style="fill:#1f77b4;"/>
   </g>
   <g id="patch_234">
    <path clip-path="url(#p8066a8490a)" d="M 1072.852941 768.96 
L 1074.822353 768.96 
L 1074.822353 703.363257 
L 1072.852941 703.363257 
z
" style="fill:#1f77b4;"/>
   </g>
   <g id="patch_235">
    <path clip-path="url(#p8066a8490a)" d="M 1076.791765 768.96 
L 1078.761176 768.96 
L 1078.761176 701.921891 
L 1076.791765 701.921891 
z
" style="fill:#1f77b4;"/>
   </g>
   <g id="patch_236">
    <path clip-path="url(#p8066a8490a)" d="M 1080.730588 768.96 
L 1082.7 768.96 
L 1082.7 724.42354 
L 1080.730588 724.42354 
z
" style="fill:#1f77b4;"/>
   </g>
   <g id="patch_237">
    <path clip-path="url(#p8066a8490a)" d="M 1084.669412 768.96 
L 1086.638824 768.96 
L 1086.638824 714.649094 
L 1084.669412 714.649094 
z
" style="fill:#1f77b4;"/>
   </g>
   <g id="patch_238">
    <path clip-path="url(#p8066a8490a)" d="M 1088.608235 768.96 
L 1090.577647 768.96 
L 1090.577647 693.985624 
L 1088.608235 693.985624 
z
" style="fill:#1f77b4;"/>
   </g>
   <g id="patch_239">
    <path clip-path="url(#p8066a8490a)" d="M 1092.547059 768.96 
L 1094.516471 768.96 
L 1094.516471 697.21265 
L 1092.547059 697.21265 
z
" style="fill:#1f77b4;"/>
   </g>
   <g id="patch_240">
    <path clip-path="url(#p8066a8490a)" d="M 1096.485882 768.96 
L 1098.455294 768.96 
L 1098.455294 454.63133 
L 1096.485882 454.63133 
z
" style="fill:#1f77b4;"/>
   </g>
   <g id="patch_241">
    <path clip-path="url(#p8066a8490a)" d="M 1100.424706 768.96 
L 1102.394118 768.96 
L 1102.394118 695.12938 
L 1100.424706 695.12938 
z
" style="fill:#1f77b4;"/>
   </g>
   <g id="patch_242">
    <path clip-path="url(#p8066a8490a)" d="M 1104.363529 768.96 
L 1106.332941 768.96 
L 1106.332941 695.088532 
L 1104.363529 695.088532 
z
" style="fill:#1f77b4;"/>
   </g>
   <g id="patch_243">
    <path clip-path="url(#p8066a8490a)" d="M 1108.302353 768.96 
L 1110.271765 768.96 
L 1110.271765 716.09046 
L 1108.302353 716.09046 
z
" style="fill:#1f77b4;"/>
   </g>
   <g id="patch_244">
    <path clip-path="url(#p8066a8490a)" d="M 1112.241176 768.96 
L 1114.210588 768.96 
L 1114.210588 709.443837 
L 1112.241176 709.443837 
z
" style="fill:#1f77b4;"/>
   </g>
   <g id="patch_245">
    <path clip-path="url(#p8066a8490a)" d="M 1116.18 768.96 
L 1118.149412 768.96 
L 1118.149412 694.283234 
L 1116.18 694.283234 
z
" style="fill:#1f77b4;"/>
   </g>
   <g id="patch_246">
    <path clip-path="url(#p8066a8490a)" d="M 1120.118824 768.96 
L 1122.088235 768.96 
L 1122.088235 699.371782 
L 1120.118824 699.371782 
z
" style="fill:#1f77b4;"/>
   </g>
   <g id="patch_247">
    <path clip-path="url(#p8066a8490a)" d="M 1124.057647 768.96 
L 1126.027059 768.96 
L 1126.027059 704.827965 
L 1124.057647 704.827965 
z
" style="fill:#1f77b4;"/>
   </g>
   <g id="patch_248">
    <path clip-path="url(#p8066a8490a)" d="M 1127.996471 768.96 
L 1129.965882 768.96 
L 1129.965882 704.495342 
L 1127.996471 704.495342 
z
" style="fill:#1f77b4;"/>
   </g>
   <g id="patch_249">
    <path clip-path="url(#p8066a8490a)" d="M 1131.935294 768.96 
L 1133.904706 768.96 
L 1133.904706 708.656046 
L 1131.935294 708.656046 
z
" style="fill:#1f77b4;"/>
   </g>
   <g id="patch_250">
    <path clip-path="url(#p8066a8490a)" d="M 1135.874118 768.96 
L 1137.843529 768.96 
L 1137.843529 727.743934 
L 1135.874118 727.743934 
z
" style="fill:#1f77b4;"/>
   </g>
   <g id="patch_251">
    <path clip-path="url(#p8066a8490a)" d="M 1139.812941 768.96 
L 1141.782353 768.96 
L 1141.782353 740.109337 
L 1139.812941 740.109337 
z
" style="fill:#1f77b4;"/>
   </g>
   <g id="patch_252">
    <path clip-path="url(#p8066a8490a)" d="M 1143.751765 768.96 
L 1145.721176 768.96 
L 1145.721176 733.194282 
L 1143.751765 733.194282 
z
" style="fill:#1f77b4;"/>
   </g>
   <g id="patch_253">
    <path clip-path="url(#p8066a8490a)" d="M 1147.690588 768.96 
L 1149.66 768.96 
L 1149.66 696.343162 
L 1147.690588 696.343162 
z
" style="fill:#1f77b4;"/>
   </g>
   <g id="patch_254">
    <path clip-path="url(#p8066a8490a)" d="M 1151.629412 768.96 
L 1153.598824 768.96 
L 1153.598824 704.892155 
L 1151.629412 704.892155 
z
" style="fill:#1f77b4;"/>
   </g>
   <g id="patch_255">
    <path clip-path="url(#p8066a8490a)" d="M 1155.568235 768.96 
L 1157.537647 768.96 
L 1157.537647 707.827407 
L 1155.568235 707.827407 
z
" style="fill:#1f77b4;"/>
   </g>
   <g id="patch_256">
    <path clip-path="url(#p8066a8490a)" d="M 1159.507059 768.96 
L 1161.476471 768.96 
L 1161.476471 713.126031 
L 1159.507059 713.126031 
z
" style="fill:#1f77b4;"/>
   </g>
   <g id="patch_257">
    <path clip-path="url(#p8066a8490a)" d="M 1163.445882 768.96 
L 1165.415294 768.96 
L 1165.415294 727.650566 
L 1163.445882 727.650566 
z
" style="fill:#1f77b4;"/>
   </g>
   <g id="matplotlib.axis_1">
    <g id="xtick_1">
     <g id="line2d_1">
      <defs>
       <path d="M 0 0 
L 0 3.5 
" id="m057dc5bdaa" style="stroke:#000000;stroke-width:0.8;"/>
      </defs>
      <g>
       <use style="stroke:#000000;stroke-width:0.8;" x="163.969412" xlink:href="#m057dc5bdaa" y="768.96"/>
      </g>
     </g>
     <g id="text_1">
      <!-- January -->
      <g transform="translate(145.013943 783.558437)scale(0.1 -0.1)">
       <defs>
        <path d="M 628 4666 
L 1259 4666 
L 1259 325 
Q 1259 -519 939 -900 
Q 619 -1281 -91 -1281 
L -331 -1281 
L -331 -750 
L -134 -750 
Q 284 -750 456 -515 
Q 628 -281 628 325 
L 628 4666 
z
" id="DejaVuSans-4a" transform="scale(0.015625)"/>
        <path d="M 2194 1759 
Q 1497 1759 1228 1600 
Q 959 1441 959 1056 
Q 959 750 1161 570 
Q 1363 391 1709 391 
Q 2188 391 2477 730 
Q 2766 1069 2766 1631 
L 2766 1759 
L 2194 1759 
z
M 3341 1997 
L 3341 0 
L 2766 0 
L 2766 531 
Q 2569 213 2275 61 
Q 1981 -91 1556 -91 
Q 1019 -91 701 211 
Q 384 513 384 1019 
Q 384 1609 779 1909 
Q 1175 2209 1959 2209 
L 2766 2209 
L 2766 2266 
Q 2766 2663 2505 2880 
Q 2244 3097 1772 3097 
Q 1472 3097 1187 3025 
Q 903 2953 641 2809 
L 641 3341 
Q 956 3463 1253 3523 
Q 1550 3584 1831 3584 
Q 2591 3584 2966 3190 
Q 3341 2797 3341 1997 
z
" id="DejaVuSans-61" transform="scale(0.015625)"/>
        <path d="M 3513 2113 
L 3513 0 
L 2938 0 
L 2938 2094 
Q 2938 2591 2744 2837 
Q 2550 3084 2163 3084 
Q 1697 3084 1428 2787 
Q 1159 2491 1159 1978 
L 1159 0 
L 581 0 
L 581 3500 
L 1159 3500 
L 1159 2956 
Q 1366 3272 1645 3428 
Q 1925 3584 2291 3584 
Q 2894 3584 3203 3211 
Q 3513 2838 3513 2113 
z
" id="DejaVuSans-6e" transform="scale(0.015625)"/>
        <path d="M 544 1381 
L 544 3500 
L 1119 3500 
L 1119 1403 
Q 1119 906 1312 657 
Q 1506 409 1894 409 
Q 2359 409 2629 706 
Q 2900 1003 2900 1516 
L 2900 3500 
L 3475 3500 
L 3475 0 
L 2900 0 
L 2900 538 
Q 2691 219 2414 64 
Q 2138 -91 1772 -91 
Q 1169 -91 856 284 
Q 544 659 544 1381 
z
M 1991 3584 
L 1991 3584 
z
" id="DejaVuSans-75" transform="scale(0.015625)"/>
        <path d="M 2631 2963 
Q 2534 3019 2420 3045 
Q 2306 3072 2169 3072 
Q 1681 3072 1420 2755 
Q 1159 2438 1159 1844 
L 1159 0 
L 581 0 
L 581 3500 
L 1159 3500 
L 1159 2956 
Q 1341 3275 1631 3429 
Q 1922 3584 2338 3584 
Q 2397 3584 2469 3576 
Q 2541 3569 2628 3553 
L 2631 2963 
z
" id="DejaVuSans-72" transform="scale(0.015625)"/>
        <path d="M 2059 -325 
Q 1816 -950 1584 -1140 
Q 1353 -1331 966 -1331 
L 506 -1331 
L 506 -850 
L 844 -850 
Q 1081 -850 1212 -737 
Q 1344 -625 1503 -206 
L 1606 56 
L 191 3500 
L 800 3500 
L 1894 763 
L 2988 3500 
L 3597 3500 
L 2059 -325 
z
" id="DejaVuSans-79" transform="scale(0.015625)"/>
       </defs>
       <use xlink:href="#DejaVuSans-4a"/>
       <use x="29.492188" xlink:href="#DejaVuSans-61"/>
       <use x="90.771484" xlink:href="#DejaVuSans-6e"/>
       <use x="154.150391" xlink:href="#DejaVuSans-75"/>
       <use x="217.529297" xlink:href="#DejaVuSans-61"/>
       <use x="278.808594" xlink:href="#DejaVuSans-72"/>
       <use x="319.921875" xlink:href="#DejaVuSans-79"/>
      </g>
     </g>
    </g>
    <g id="xtick_2">
     <g id="line2d_2">
      <g>
       <use style="stroke:#000000;stroke-width:0.8;" x="286.072941" xlink:href="#m057dc5bdaa" y="768.96"/>
      </g>
     </g>
     <g id="text_2">
      <!-- February -->
      <g transform="translate(263.918254 783.558437)scale(0.1 -0.1)">
       <defs>
        <path d="M 628 4666 
L 3309 4666 
L 3309 4134 
L 1259 4134 
L 1259 2759 
L 3109 2759 
L 3109 2228 
L 1259 2228 
L 1259 0 
L 628 0 
L 628 4666 
z
" id="DejaVuSans-46" transform="scale(0.015625)"/>
        <path d="M 3597 1894 
L 3597 1613 
L 953 1613 
Q 991 1019 1311 708 
Q 1631 397 2203 397 
Q 2534 397 2845 478 
Q 3156 559 3463 722 
L 3463 178 
Q 3153 47 2828 -22 
Q 2503 -91 2169 -91 
Q 1331 -91 842 396 
Q 353 884 353 1716 
Q 353 2575 817 3079 
Q 1281 3584 2069 3584 
Q 2775 3584 3186 3129 
Q 3597 2675 3597 1894 
z
M 3022 2063 
Q 3016 2534 2758 2815 
Q 2500 3097 2075 3097 
Q 1594 3097 1305 2825 
Q 1016 2553 972 2059 
L 3022 2063 
z
" id="DejaVuSans-65" transform="scale(0.015625)"/>
        <path d="M 3116 1747 
Q 3116 2381 2855 2742 
Q 2594 3103 2138 3103 
Q 1681 3103 1420 2742 
Q 1159 2381 1159 1747 
Q 1159 1113 1420 752 
Q 1681 391 2138 391 
Q 2594 391 2855 752 
Q 3116 1113 3116 1747 
z
M 1159 2969 
Q 1341 3281 1617 3432 
Q 1894 3584 2278 3584 
Q 2916 3584 3314 3078 
Q 3713 2572 3713 1747 
Q 3713 922 3314 415 
Q 2916 -91 2278 -91 
Q 1894 -91 1617 61 
Q 1341 213 1159 525 
L 1159 0 
L 581 0 
L 581 4863 
L 1159 4863 
L 1159 2969 
z
" id="DejaVuSans-62" transform="scale(0.015625)"/>
       </defs>
       <use xlink:href="#DejaVuSans-46"/>
       <use x="52.019531" xlink:href="#DejaVuSans-65"/>
       <use x="113.542969" xlink:href="#DejaVuSans-62"/>
       <use x="177.019531" xlink:href="#DejaVuSans-72"/>
       <use x="218.132812" xlink:href="#DejaVuSans-75"/>
       <use x="281.511719" xlink:href="#DejaVuSans-61"/>
       <use x="342.791016" xlink:href="#DejaVuSans-72"/>
       <use x="383.904297" xlink:href="#DejaVuSans-79"/>
      </g>
     </g>
    </g>
    <g id="xtick_3">
     <g id="line2d_3">
      <g>
       <use style="stroke:#000000;stroke-width:0.8;" x="396.36" xlink:href="#m057dc5bdaa" y="768.96"/>
      </g>
     </g>
     <g id="text_3">
      <!-- March -->
      <g transform="translate(381.120938 783.558437)scale(0.1 -0.1)">
       <defs>
        <path d="M 628 4666 
L 1569 4666 
L 2759 1491 
L 3956 4666 
L 4897 4666 
L 4897 0 
L 4281 0 
L 4281 4097 
L 3078 897 
L 2444 897 
L 1241 4097 
L 1241 0 
L 628 0 
L 628 4666 
z
" id="DejaVuSans-4d" transform="scale(0.015625)"/>
        <path d="M 3122 3366 
L 3122 2828 
Q 2878 2963 2633 3030 
Q 2388 3097 2138 3097 
Q 1578 3097 1268 2742 
Q 959 2388 959 1747 
Q 959 1106 1268 751 
Q 1578 397 2138 397 
Q 2388 397 2633 464 
Q 2878 531 3122 666 
L 3122 134 
Q 2881 22 2623 -34 
Q 2366 -91 2075 -91 
Q 1284 -91 818 406 
Q 353 903 353 1747 
Q 353 2603 823 3093 
Q 1294 3584 2113 3584 
Q 2378 3584 2631 3529 
Q 2884 3475 3122 3366 
z
" id="DejaVuSans-63" transform="scale(0.015625)"/>
        <path d="M 3513 2113 
L 3513 0 
L 2938 0 
L 2938 2094 
Q 2938 2591 2744 2837 
Q 2550 3084 2163 3084 
Q 1697 3084 1428 2787 
Q 1159 2491 1159 1978 
L 1159 0 
L 581 0 
L 581 4863 
L 1159 4863 
L 1159 2956 
Q 1366 3272 1645 3428 
Q 1925 3584 2291 3584 
Q 2894 3584 3203 3211 
Q 3513 2838 3513 2113 
z
" id="DejaVuSans-68" transform="scale(0.015625)"/>
       </defs>
       <use xlink:href="#DejaVuSans-4d"/>
       <use x="86.279297" xlink:href="#DejaVuSans-61"/>
       <use x="147.558594" xlink:href="#DejaVuSans-72"/>
       <use x="186.421875" xlink:href="#DejaVuSans-63"/>
       <use x="241.402344" xlink:href="#DejaVuSans-68"/>
      </g>
     </g>
    </g>
    <g id="xtick_4">
     <g id="line2d_4">
      <g>
       <use style="stroke:#000000;stroke-width:0.8;" x="518.463529" xlink:href="#m057dc5bdaa" y="768.96"/>
      </g>
     </g>
     <g id="text_4">
      <!-- April -->
      <g transform="translate(507.035404 783.558437)scale(0.1 -0.1)">
       <defs>
        <path d="M 2188 4044 
L 1331 1722 
L 3047 1722 
L 2188 4044 
z
M 1831 4666 
L 2547 4666 
L 4325 0 
L 3669 0 
L 3244 1197 
L 1141 1197 
L 716 0 
L 50 0 
L 1831 4666 
z
" id="DejaVuSans-41" transform="scale(0.015625)"/>
        <path d="M 1159 525 
L 1159 -1331 
L 581 -1331 
L 581 3500 
L 1159 3500 
L 1159 2969 
Q 1341 3281 1617 3432 
Q 1894 3584 2278 3584 
Q 2916 3584 3314 3078 
Q 3713 2572 3713 1747 
Q 3713 922 3314 415 
Q 2916 -91 2278 -91 
Q 1894 -91 1617 61 
Q 1341 213 1159 525 
z
M 3116 1747 
Q 3116 2381 2855 2742 
Q 2594 3103 2138 3103 
Q 1681 3103 1420 2742 
Q 1159 2381 1159 1747 
Q 1159 1113 1420 752 
Q 1681 391 2138 391 
Q 2594 391 2855 752 
Q 3116 1113 3116 1747 
z
" id="DejaVuSans-70" transform="scale(0.015625)"/>
        <path d="M 603 3500 
L 1178 3500 
L 1178 0 
L 603 0 
L 603 3500 
z
M 603 4863 
L 1178 4863 
L 1178 4134 
L 603 4134 
L 603 4863 
z
" id="DejaVuSans-69" transform="scale(0.015625)"/>
        <path d="M 603 4863 
L 1178 4863 
L 1178 0 
L 603 0 
L 603 4863 
z
" id="DejaVuSans-6c" transform="scale(0.015625)"/>
       </defs>
       <use xlink:href="#DejaVuSans-41"/>
       <use x="68.408203" xlink:href="#DejaVuSans-70"/>
       <use x="131.884766" xlink:href="#DejaVuSans-72"/>
       <use x="172.998047" xlink:href="#DejaVuSans-69"/>
       <use x="200.78125" xlink:href="#DejaVuSans-6c"/>
      </g>
     </g>
    </g>
    <g id="xtick_5">
     <g id="line2d_5">
      <g>
       <use style="stroke:#000000;stroke-width:0.8;" x="636.628235" xlink:href="#m057dc5bdaa" y="768.96"/>
      </g>
     </g>
     <g id="text_5">
      <!-- May -->
      <g transform="translate(626.290735 783.558437)scale(0.1 -0.1)">
       <use xlink:href="#DejaVuSans-4d"/>
       <use x="86.279297" xlink:href="#DejaVuSans-61"/>
       <use x="147.558594" xlink:href="#DejaVuSans-79"/>
      </g>
     </g>
    </g>
    <g id="xtick_6">
     <g id="line2d_6">
      <g>
       <use style="stroke:#000000;stroke-width:0.8;" x="758.731765" xlink:href="#m057dc5bdaa" y="768.96"/>
      </g>
     </g>
     <g id="text_6">
      <!-- June -->
      <g transform="translate(747.842702 783.558437)scale(0.1 -0.1)">
       <use xlink:href="#DejaVuSans-4a"/>
       <use x="29.492188" xlink:href="#DejaVuSans-75"/>
       <use x="92.871094" xlink:href="#DejaVuSans-6e"/>
       <use x="156.25" xlink:href="#DejaVuSans-65"/>
      </g>
     </g>
    </g>
    <g id="xtick_7">
     <g id="line2d_7">
      <g>
       <use style="stroke:#000000;stroke-width:0.8;" x="876.896471" xlink:href="#m057dc5bdaa" y="768.96"/>
      </g>
     </g>
     <g id="text_7">
      <!-- July -->
      <g transform="translate(867.904283 783.558437)scale(0.1 -0.1)">
       <use xlink:href="#DejaVuSans-4a"/>
       <use x="29.492188" xlink:href="#DejaVuSans-75"/>
       <use x="92.871094" xlink:href="#DejaVuSans-6c"/>
       <use x="120.654297" xlink:href="#DejaVuSans-79"/>
      </g>
     </g>
    </g>
    <g id="xtick_8">
     <g id="line2d_8">
      <g>
       <use style="stroke:#000000;stroke-width:0.8;" x="999" xlink:href="#m057dc5bdaa" y="768.96"/>
      </g>
     </g>
     <g id="text_8">
      <!-- August -->
      <g transform="translate(981.503125 783.558437)scale(0.1 -0.1)">
       <defs>
        <path d="M 2906 1791 
Q 2906 2416 2648 2759 
Q 2391 3103 1925 3103 
Q 1463 3103 1205 2759 
Q 947 2416 947 1791 
Q 947 1169 1205 825 
Q 1463 481 1925 481 
Q 2391 481 2648 825 
Q 2906 1169 2906 1791 
z
M 3481 434 
Q 3481 -459 3084 -895 
Q 2688 -1331 1869 -1331 
Q 1566 -1331 1297 -1286 
Q 1028 -1241 775 -1147 
L 775 -588 
Q 1028 -725 1275 -790 
Q 1522 -856 1778 -856 
Q 2344 -856 2625 -561 
Q 2906 -266 2906 331 
L 2906 616 
Q 2728 306 2450 153 
Q 2172 0 1784 0 
Q 1141 0 747 490 
Q 353 981 353 1791 
Q 353 2603 747 3093 
Q 1141 3584 1784 3584 
Q 2172 3584 2450 3431 
Q 2728 3278 2906 2969 
L 2906 3500 
L 3481 3500 
L 3481 434 
z
" id="DejaVuSans-67" transform="scale(0.015625)"/>
        <path d="M 2834 3397 
L 2834 2853 
Q 2591 2978 2328 3040 
Q 2066 3103 1784 3103 
Q 1356 3103 1142 2972 
Q 928 2841 928 2578 
Q 928 2378 1081 2264 
Q 1234 2150 1697 2047 
L 1894 2003 
Q 2506 1872 2764 1633 
Q 3022 1394 3022 966 
Q 3022 478 2636 193 
Q 2250 -91 1575 -91 
Q 1294 -91 989 -36 
Q 684 19 347 128 
L 347 722 
Q 666 556 975 473 
Q 1284 391 1588 391 
Q 1994 391 2212 530 
Q 2431 669 2431 922 
Q 2431 1156 2273 1281 
Q 2116 1406 1581 1522 
L 1381 1569 
Q 847 1681 609 1914 
Q 372 2147 372 2553 
Q 372 3047 722 3315 
Q 1072 3584 1716 3584 
Q 2034 3584 2315 3537 
Q 2597 3491 2834 3397 
z
" id="DejaVuSans-73" transform="scale(0.015625)"/>
        <path d="M 1172 4494 
L 1172 3500 
L 2356 3500 
L 2356 3053 
L 1172 3053 
L 1172 1153 
Q 1172 725 1289 603 
Q 1406 481 1766 481 
L 2356 481 
L 2356 0 
L 1766 0 
Q 1100 0 847 248 
Q 594 497 594 1153 
L 594 3053 
L 172 3053 
L 172 3500 
L 594 3500 
L 594 4494 
L 1172 4494 
z
" id="DejaVuSans-74" transform="scale(0.015625)"/>
       </defs>
       <use xlink:href="#DejaVuSans-41"/>
       <use x="68.408203" xlink:href="#DejaVuSans-75"/>
       <use x="131.787109" xlink:href="#DejaVuSans-67"/>
       <use x="195.263672" xlink:href="#DejaVuSans-75"/>
       <use x="258.642578" xlink:href="#DejaVuSans-73"/>
       <use x="310.742188" xlink:href="#DejaVuSans-74"/>
      </g>
     </g>
    </g>
    <g id="xtick_9">
     <g id="line2d_9">
      <g>
       <use style="stroke:#000000;stroke-width:0.8;" x="1121.103529" xlink:href="#m057dc5bdaa" y="768.96"/>
      </g>
     </g>
     <g id="text_9">
      <!-- September -->
      <g transform="translate(1093.465248 783.558437)scale(0.1 -0.1)">
       <defs>
        <path d="M 3425 4513 
L 3425 3897 
Q 3066 4069 2747 4153 
Q 2428 4238 2131 4238 
Q 1616 4238 1336 4038 
Q 1056 3838 1056 3469 
Q 1056 3159 1242 3001 
Q 1428 2844 1947 2747 
L 2328 2669 
Q 3034 2534 3370 2195 
Q 3706 1856 3706 1288 
Q 3706 609 3251 259 
Q 2797 -91 1919 -91 
Q 1588 -91 1214 -16 
Q 841 59 441 206 
L 441 856 
Q 825 641 1194 531 
Q 1563 422 1919 422 
Q 2459 422 2753 634 
Q 3047 847 3047 1241 
Q 3047 1584 2836 1778 
Q 2625 1972 2144 2069 
L 1759 2144 
Q 1053 2284 737 2584 
Q 422 2884 422 3419 
Q 422 4038 858 4394 
Q 1294 4750 2059 4750 
Q 2388 4750 2728 4690 
Q 3069 4631 3425 4513 
z
" id="DejaVuSans-53" transform="scale(0.015625)"/>
        <path d="M 3328 2828 
Q 3544 3216 3844 3400 
Q 4144 3584 4550 3584 
Q 5097 3584 5394 3201 
Q 5691 2819 5691 2113 
L 5691 0 
L 5113 0 
L 5113 2094 
Q 5113 2597 4934 2840 
Q 4756 3084 4391 3084 
Q 3944 3084 3684 2787 
Q 3425 2491 3425 1978 
L 3425 0 
L 2847 0 
L 2847 2094 
Q 2847 2600 2669 2842 
Q 2491 3084 2119 3084 
Q 1678 3084 1418 2786 
Q 1159 2488 1159 1978 
L 1159 0 
L 581 0 
L 581 3500 
L 1159 3500 
L 1159 2956 
Q 1356 3278 1631 3431 
Q 1906 3584 2284 3584 
Q 2666 3584 2933 3390 
Q 3200 3197 3328 2828 
z
" id="DejaVuSans-6d" transform="scale(0.015625)"/>
       </defs>
       <use xlink:href="#DejaVuSans-53"/>
       <use x="63.476562" xlink:href="#DejaVuSans-65"/>
       <use x="125" xlink:href="#DejaVuSans-70"/>
       <use x="188.476562" xlink:href="#DejaVuSans-74"/>
       <use x="227.685547" xlink:href="#DejaVuSans-65"/>
       <use x="289.208984" xlink:href="#DejaVuSans-6d"/>
       <use x="386.621094" xlink:href="#DejaVuSans-62"/>
       <use x="450.097656" xlink:href="#DejaVuSans-65"/>
       <use x="511.621094" xlink:href="#DejaVuSans-72"/>
      </g>
     </g>
    </g>
   </g>
   <g id="matplotlib.axis_2">
    <g id="ytick_1">
     <g id="line2d_10">
      <defs>
       <path d="M 0 0 
L -3.5 0 
" id="m87e421ad53" style="stroke:#000000;stroke-width:0.8;"/>
      </defs>
      <g>
       <use style="stroke:#000000;stroke-width:0.8;" x="162" xlink:href="#m87e421ad53" y="768.96"/>
      </g>
     </g>
     <g id="text_10">
      <!-- 0 -->
      <g transform="translate(148.6375 772.759219)scale(0.1 -0.1)">
       <defs>
        <path d="M 2034 4250 
Q 1547 4250 1301 3770 
Q 1056 3291 1056 2328 
Q 1056 1369 1301 889 
Q 1547 409 2034 409 
Q 2525 409 2770 889 
Q 3016 1369 3016 2328 
Q 3016 3291 2770 3770 
Q 2525 4250 2034 4250 
z
M 2034 4750 
Q 2819 4750 3233 4129 
Q 3647 3509 3647 2328 
Q 3647 1150 3233 529 
Q 2819 -91 2034 -91 
Q 1250 -91 836 529 
Q 422 1150 422 2328 
Q 422 3509 836 4129 
Q 1250 4750 2034 4750 
z
" id="DejaVuSans-30" transform="scale(0.015625)"/>
       </defs>
       <use xlink:href="#DejaVuSans-30"/>
      </g>
     </g>
    </g>
    <g id="ytick_2">
     <g id="line2d_11">
      <g>
       <use style="stroke:#000000;stroke-width:0.8;" x="162" xlink:href="#m87e421ad53" y="652.2502"/>
      </g>
     </g>
     <g id="text_11">
      <!-- 20000 -->
      <g transform="translate(123.1875 656.049418)scale(0.1 -0.1)">
       <defs>
        <path d="M 1228 531 
L 3431 531 
L 3431 0 
L 469 0 
L 469 531 
Q 828 903 1448 1529 
Q 2069 2156 2228 2338 
Q 2531 2678 2651 2914 
Q 2772 3150 2772 3378 
Q 2772 3750 2511 3984 
Q 2250 4219 1831 4219 
Q 1534 4219 1204 4116 
Q 875 4013 500 3803 
L 500 4441 
Q 881 4594 1212 4672 
Q 1544 4750 1819 4750 
Q 2544 4750 2975 4387 
Q 3406 4025 3406 3419 
Q 3406 3131 3298 2873 
Q 3191 2616 2906 2266 
Q 2828 2175 2409 1742 
Q 1991 1309 1228 531 
z
" id="DejaVuSans-32" transform="scale(0.015625)"/>
       </defs>
       <use xlink:href="#DejaVuSans-32"/>
       <use x="63.623047" xlink:href="#DejaVuSans-30"/>
       <use x="127.246094" xlink:href="#DejaVuSans-30"/>
       <use x="190.869141" xlink:href="#DejaVuSans-30"/>
       <use x="254.492188" xlink:href="#DejaVuSans-30"/>
      </g>
     </g>
    </g>
    <g id="ytick_3">
     <g id="line2d_12">
      <g>
       <use style="stroke:#000000;stroke-width:0.8;" x="162" xlink:href="#m87e421ad53" y="535.540399"/>
      </g>
     </g>
     <g id="text_12">
      <!-- 40000 -->
      <g transform="translate(123.1875 539.339618)scale(0.1 -0.1)">
       <defs>
        <path d="M 2419 4116 
L 825 1625 
L 2419 1625 
L 2419 4116 
z
M 2253 4666 
L 3047 4666 
L 3047 1625 
L 3713 1625 
L 3713 1100 
L 3047 1100 
L 3047 0 
L 2419 0 
L 2419 1100 
L 313 1100 
L 313 1709 
L 2253 4666 
z
" id="DejaVuSans-34" transform="scale(0.015625)"/>
       </defs>
       <use xlink:href="#DejaVuSans-34"/>
       <use x="63.623047" xlink:href="#DejaVuSans-30"/>
       <use x="127.246094" xlink:href="#DejaVuSans-30"/>
       <use x="190.869141" xlink:href="#DejaVuSans-30"/>
       <use x="254.492188" xlink:href="#DejaVuSans-30"/>
      </g>
     </g>
    </g>
    <g id="ytick_4">
     <g id="line2d_13">
      <g>
       <use style="stroke:#000000;stroke-width:0.8;" x="162" xlink:href="#m87e421ad53" y="418.830599"/>
      </g>
     </g>
     <g id="text_13">
      <!-- 60000 -->
      <g transform="translate(123.1875 422.629817)scale(0.1 -0.1)">
       <defs>
        <path d="M 2113 2584 
Q 1688 2584 1439 2293 
Q 1191 2003 1191 1497 
Q 1191 994 1439 701 
Q 1688 409 2113 409 
Q 2538 409 2786 701 
Q 3034 994 3034 1497 
Q 3034 2003 2786 2293 
Q 2538 2584 2113 2584 
z
M 3366 4563 
L 3366 3988 
Q 3128 4100 2886 4159 
Q 2644 4219 2406 4219 
Q 1781 4219 1451 3797 
Q 1122 3375 1075 2522 
Q 1259 2794 1537 2939 
Q 1816 3084 2150 3084 
Q 2853 3084 3261 2657 
Q 3669 2231 3669 1497 
Q 3669 778 3244 343 
Q 2819 -91 2113 -91 
Q 1303 -91 875 529 
Q 447 1150 447 2328 
Q 447 3434 972 4092 
Q 1497 4750 2381 4750 
Q 2619 4750 2861 4703 
Q 3103 4656 3366 4563 
z
" id="DejaVuSans-36" transform="scale(0.015625)"/>
       </defs>
       <use xlink:href="#DejaVuSans-36"/>
       <use x="63.623047" xlink:href="#DejaVuSans-30"/>
       <use x="127.246094" xlink:href="#DejaVuSans-30"/>
       <use x="190.869141" xlink:href="#DejaVuSans-30"/>
       <use x="254.492188" xlink:href="#DejaVuSans-30"/>
      </g>
     </g>
    </g>
    <g id="ytick_5">
     <g id="line2d_14">
      <g>
       <use style="stroke:#000000;stroke-width:0.8;" x="162" xlink:href="#m87e421ad53" y="302.120798"/>
      </g>
     </g>
     <g id="text_14">
      <!-- 80000 -->
      <g transform="translate(123.1875 305.920017)scale(0.1 -0.1)">
       <defs>
        <path d="M 2034 2216 
Q 1584 2216 1326 1975 
Q 1069 1734 1069 1313 
Q 1069 891 1326 650 
Q 1584 409 2034 409 
Q 2484 409 2743 651 
Q 3003 894 3003 1313 
Q 3003 1734 2745 1975 
Q 2488 2216 2034 2216 
z
M 1403 2484 
Q 997 2584 770 2862 
Q 544 3141 544 3541 
Q 544 4100 942 4425 
Q 1341 4750 2034 4750 
Q 2731 4750 3128 4425 
Q 3525 4100 3525 3541 
Q 3525 3141 3298 2862 
Q 3072 2584 2669 2484 
Q 3125 2378 3379 2068 
Q 3634 1759 3634 1313 
Q 3634 634 3220 271 
Q 2806 -91 2034 -91 
Q 1263 -91 848 271 
Q 434 634 434 1313 
Q 434 1759 690 2068 
Q 947 2378 1403 2484 
z
M 1172 3481 
Q 1172 3119 1398 2916 
Q 1625 2713 2034 2713 
Q 2441 2713 2670 2916 
Q 2900 3119 2900 3481 
Q 2900 3844 2670 4047 
Q 2441 4250 2034 4250 
Q 1625 4250 1398 4047 
Q 1172 3844 1172 3481 
z
" id="DejaVuSans-38" transform="scale(0.015625)"/>
       </defs>
       <use xlink:href="#DejaVuSans-38"/>
       <use x="63.623047" xlink:href="#DejaVuSans-30"/>
       <use x="127.246094" xlink:href="#DejaVuSans-30"/>
       <use x="190.869141" xlink:href="#DejaVuSans-30"/>
       <use x="254.492188" xlink:href="#DejaVuSans-30"/>
      </g>
     </g>
    </g>
    <g id="ytick_6">
     <g id="line2d_15">
      <g>
       <use style="stroke:#000000;stroke-width:0.8;" x="162" xlink:href="#m87e421ad53" y="185.410998"/>
      </g>
     </g>
     <g id="text_15">
      <!-- 100000 -->
      <g transform="translate(116.825 189.210217)scale(0.1 -0.1)">
       <defs>
        <path d="M 794 531 
L 1825 531 
L 1825 4091 
L 703 3866 
L 703 4441 
L 1819 4666 
L 2450 4666 
L 2450 531 
L 3481 531 
L 3481 0 
L 794 0 
L 794 531 
z
" id="DejaVuSans-31" transform="scale(0.015625)"/>
       </defs>
       <use xlink:href="#DejaVuSans-31"/>
       <use x="63.623047" xlink:href="#DejaVuSans-30"/>
       <use x="127.246094" xlink:href="#DejaVuSans-30"/>
       <use x="190.869141" xlink:href="#DejaVuSans-30"/>
       <use x="254.492188" xlink:href="#DejaVuSans-30"/>
       <use x="318.115234" xlink:href="#DejaVuSans-30"/>
      </g>
     </g>
    </g>
    <g id="text_16">
     <!-- Persons fully vaccinated -->
     <g transform="translate(110.745312 496.922344)rotate(-90)scale(0.1 -0.1)">
      <defs>
       <path d="M 1259 4147 
L 1259 2394 
L 2053 2394 
Q 2494 2394 2734 2622 
Q 2975 2850 2975 3272 
Q 2975 3691 2734 3919 
Q 2494 4147 2053 4147 
L 1259 4147 
z
M 628 4666 
L 2053 4666 
Q 2838 4666 3239 4311 
Q 3641 3956 3641 3272 
Q 3641 2581 3239 2228 
Q 2838 1875 2053 1875 
L 1259 1875 
L 1259 0 
L 628 0 
L 628 4666 
z
" id="DejaVuSans-50" transform="scale(0.015625)"/>
       <path d="M 1959 3097 
Q 1497 3097 1228 2736 
Q 959 2375 959 1747 
Q 959 1119 1226 758 
Q 1494 397 1959 397 
Q 2419 397 2687 759 
Q 2956 1122 2956 1747 
Q 2956 2369 2687 2733 
Q 2419 3097 1959 3097 
z
M 1959 3584 
Q 2709 3584 3137 3096 
Q 3566 2609 3566 1747 
Q 3566 888 3137 398 
Q 2709 -91 1959 -91 
Q 1206 -91 779 398 
Q 353 888 353 1747 
Q 353 2609 779 3096 
Q 1206 3584 1959 3584 
z
" id="DejaVuSans-6f" transform="scale(0.015625)"/>
       <path id="DejaVuSans-20" transform="scale(0.015625)"/>
       <path d="M 2375 4863 
L 2375 4384 
L 1825 4384 
Q 1516 4384 1395 4259 
Q 1275 4134 1275 3809 
L 1275 3500 
L 2222 3500 
L 2222 3053 
L 1275 3053 
L 1275 0 
L 697 0 
L 697 3053 
L 147 3053 
L 147 3500 
L 697 3500 
L 697 3744 
Q 697 4328 969 4595 
Q 1241 4863 1831 4863 
L 2375 4863 
z
" id="DejaVuSans-66" transform="scale(0.015625)"/>
       <path d="M 191 3500 
L 800 3500 
L 1894 563 
L 2988 3500 
L 3597 3500 
L 2284 0 
L 1503 0 
L 191 3500 
z
" id="DejaVuSans-76" transform="scale(0.015625)"/>
       <path d="M 2906 2969 
L 2906 4863 
L 3481 4863 
L 3481 0 
L 2906 0 
L 2906 525 
Q 2725 213 2448 61 
Q 2172 -91 1784 -91 
Q 1150 -91 751 415 
Q 353 922 353 1747 
Q 353 2572 751 3078 
Q 1150 3584 1784 3584 
Q 2172 3584 2448 3432 
Q 2725 3281 2906 2969 
z
M 947 1747 
Q 947 1113 1208 752 
Q 1469 391 1925 391 
Q 2381 391 2643 752 
Q 2906 1113 2906 1747 
Q 2906 2381 2643 2742 
Q 2381 3103 1925 3103 
Q 1469 3103 1208 2742 
Q 947 2381 947 1747 
z
" id="DejaVuSans-64" transform="scale(0.015625)"/>
      </defs>
      <use xlink:href="#DejaVuSans-50"/>
      <use x="56.677734" xlink:href="#DejaVuSans-65"/>
      <use x="118.201172" xlink:href="#DejaVuSans-72"/>
      <use x="159.314453" xlink:href="#DejaVuSans-73"/>
      <use x="211.414062" xlink:href="#DejaVuSans-6f"/>
      <use x="272.595703" xlink:href="#DejaVuSans-6e"/>
      <use x="335.974609" xlink:href="#DejaVuSans-73"/>
      <use x="388.074219" xlink:href="#DejaVuSans-20"/>
      <use x="419.861328" xlink:href="#DejaVuSans-66"/>
      <use x="455.066406" xlink:href="#DejaVuSans-75"/>
      <use x="518.445312" xlink:href="#DejaVuSans-6c"/>
      <use x="546.228516" xlink:href="#DejaVuSans-6c"/>
      <use x="574.011719" xlink:href="#DejaVuSans-79"/>
      <use x="633.191406" xlink:href="#DejaVuSans-20"/>
      <use x="664.978516" xlink:href="#DejaVuSans-76"/>
      <use x="724.158203" xlink:href="#DejaVuSans-61"/>
      <use x="785.4375" xlink:href="#DejaVuSans-63"/>
      <use x="840.417969" xlink:href="#DejaVuSans-63"/>
      <use x="895.398438" xlink:href="#DejaVuSans-69"/>
      <use x="923.181641" xlink:href="#DejaVuSans-6e"/>
      <use x="986.560547" xlink:href="#DejaVuSans-61"/>
      <use x="1047.839844" xlink:href="#DejaVuSans-74"/>
      <use x="1087.048828" xlink:href="#DejaVuSans-65"/>
      <use x="1148.572266" xlink:href="#DejaVuSans-64"/>
     </g>
    </g>
   </g>
   <g id="line2d_16">
    <path clip-path="url(#p8066a8490a)" d="M 226.990588 743.732343 
L 230.929412 743.49809 
L 234.868235 744.73438 
L 238.807059 741.214746 
L 242.745882 740.320249 
L 246.684706 738.2053 
L 250.623529 733.778664 
L 254.562353 725.714851 
L 258.501176 717.101667 
L 262.44 710.71514 
L 266.378824 703.980151 
L 270.317647 699.411796 
L 274.256471 698.358074 
L 278.195294 698.403924 
L 282.134118 695.886327 
L 286.072941 701.02656 
L 290.011765 700.827319 
L 293.950588 701.377523 
L 297.889412 698.129656 
L 301.828235 698.503961 
L 305.767059 694.356595 
L 309.705882 695.104371 
L 313.644706 689.249707 
L 317.583529 679.370223 
L 321.522353 670.211004 
L 325.461176 667.199058 
L 329.4 663.596059 
L 333.338824 667.690906 
L 337.277647 668.582069 
L 341.216471 663.771958 
L 345.155294 659.922202 
L 349.094118 654.0542 
L 353.032941 662.794096 
L 356.971765 650.080231 
L 360.910588 641.664621 
L 364.849412 631.784302 
L 368.788235 609.432708 
L 372.727059 592.734037 
L 376.665882 580.213576 
L 380.604706 550.063267 
L 384.543529 553.219433 
L 388.482353 543.808455 
L 392.421176 533.67471 
L 396.36 539.463516 
L 400.298824 528.110987 
L 404.237647 513.854051 
L 408.176471 508.287827 
L 412.115294 512.252626 
L 416.054118 502.433163 
L 419.992941 491.02478 
L 423.931765 480.410858 
L 427.870588 483.856298 
L 431.809412 477.174662 
L 435.748235 478.727736 
L 439.687059 452.533888 
L 443.625882 452.857341 
L 447.564706 458.891238 
L 451.503529 473.648358 
L 455.442353 487.051645 
L 459.381176 506.585531 
L 463.32 519.949637 
L 467.258824 545.1031 
L 471.197647 557.502683 
L 475.136471 569.528794 
L 479.075294 576.169582 
L 483.014118 580.401146 
L 486.952941 577.369192 
L 490.891765 564.006753 
L 498.769412 560.771391 
L 502.708235 544.850507 
L 506.647059 536.18397 
L 510.585882 521.295968 
L 514.524706 514.461776 
L 518.463529 513.33636 
L 522.402353 517.621277 
L 526.341176 504.062099 
L 530.28 489.208276 
L 534.218824 462.23414 
L 538.157647 436.118655 
L 542.096471 395.877116 
L 546.035294 373.817296 
L 549.974118 355.392987 
L 553.912941 342.167265 
L 557.851765 337.149578 
L 561.790588 346.692271 
L 565.729412 349.584173 
L 569.668235 368.308593 
L 573.607059 379.200119 
L 577.545882 379.280148 
L 581.484706 387.783291 
L 585.423529 382.226237 
L 589.362353 375.907235 
L 593.301176 386.205208 
L 597.24 400.121184 
L 601.178824 412.081438 
L 605.117647 425.478056 
L 609.056471 431.140982 
L 612.995294 447.087709 
L 616.934118 453.044077 
L 620.872941 463.59631 
L 624.811765 476.533591 
L 628.750588 494.664459 
L 632.689412 504.009579 
L 636.628235 517.747156 
L 640.567059 511.233916 
L 644.505882 508.001054 
L 648.444706 517.252807 
L 652.383529 498.479202 
L 656.322353 475.770809 
L 660.261176 443.79149 
L 664.2 432.734071 
L 668.138824 446.720073 
L 672.077647 463.684676 
L 676.016471 464.710889 
L 679.955294 468.150493 
L 683.894118 477.802394 
L 687.832941 502.847483 
L 691.771765 512.690288 
L 695.710588 513.52643 
L 699.649412 514.778559 
L 703.588235 501.208544 
L 707.527059 525.794297 
L 711.465882 530.691941 
L 715.404706 530.994552 
L 719.343529 532.736863 
L 723.282353 549.634775 
L 727.221176 561.825947 
L 731.16 589.080186 
L 735.098824 598.685403 
L 739.037647 609.41937 
L 742.976471 612.519683 
L 746.915294 626.959186 
L 750.854118 637.649804 
L 754.792941 647.616821 
L 758.731765 648.661373 
L 762.670588 644.334774 
L 770.548235 625.937975 
L 774.487059 606.484119 
L 778.425882 593.433462 
L 782.364706 576.477195 
L 786.303529 580.176896 
L 790.242353 588.635856 
L 794.181176 602.471802 
L 798.12 608.449011 
L 802.058824 594.508026 
L 805.997647 593.102506 
L 809.936471 606.023949 
L 813.875294 602.175026 
L 817.814118 611.145842 
L 821.752941 604.084065 
L 825.691765 608.721612 
L 829.630588 638.860251 
L 833.569412 656.108292 
L 837.508235 661.054287 
L 841.447059 669.10893 
L 849.324706 611.179187 
L 853.263529 615.492448 
L 857.202353 615.157324 
L 861.141176 614.664642 
L 865.08 617.451505 
L 869.018824 624.910095 
L 872.957647 655.631449 
L 876.896471 695.840476 
L 880.835294 696.013874 
L 884.774118 706.178464 
L 888.712941 712.81425 
L 892.651765 713.764601 
L 896.590588 713.353616 
L 900.529412 714.477364 
L 904.468235 714.281459 
L 908.407059 712.43661 
L 912.345882 701.892713 
L 916.284706 699.355109 
L 924.162353 705.450695 
L 928.101176 707.022109 
L 932.04 708.419292 
L 935.978824 709.372978 
L 939.917647 713.104357 
L 943.856471 712.361582 
L 947.795294 711.898911 
L 955.672941 715.867045 
L 959.611765 718.988198 
L 963.550588 721.532472 
L 967.489412 724.901217 
L 971.428235 725.428912 
L 975.367059 718.802296 
L 979.305882 717.292571 
L 983.244706 706.180131 
L 987.183529 703.933467 
L 995.061176 699.042493 
L 999 699.533508 
L 1002.938824 707.195506 
L 1006.877647 706.89873 
L 1010.816471 715.858708 
L 1014.755294 707.794061 
L 1018.694118 707.031279 
L 1022.632941 707.241357 
L 1026.571765 710.145763 
L 1030.510588 696.327323 
L 1034.449412 685.427461 
L 1042.327059 668.572899 
L 1046.265882 658.482503 
L 1050.204706 657.268721 
L 1054.143529 652.541974 
L 1058.082353 664.487222 
L 1062.021176 674.320023 
L 1065.96 682.552232 
L 1069.898824 695.948016 
L 1073.837647 705.333151 
L 1077.776471 705.235615 
L 1081.715294 705.354826 
L 1085.654118 705.280632 
L 1089.592941 670.026769 
L 1093.531765 668.850501 
L 1097.470588 667.874307 
L 1101.409412 666.683867 
L 1105.348235 665.940259 
L 1109.287059 665.982775 
L 1113.225882 666.291222 
L 1117.164706 702.033599 
L 1121.103529 703.371593 
L 1125.042353 705.309809 
L 1128.981176 706.974591 
L 1132.92 711.355377 
L 1136.858824 716.914098 
L 1140.797647 716.481438 
L 1144.736471 716.490608 
L 1148.675294 716.966618 
L 1152.614118 717.605187 
L 1156.552941 717.591849 
L 1156.552941 717.591849 
" style="fill:none;stroke:#ffa500;stroke-linecap:square;stroke-width:1.5;"/>
   </g>
   <g id="patch_258">
    <path d="M 162 768.96 
L 162 103.68 
" style="fill:none;stroke:#000000;stroke-linecap:square;stroke-linejoin:miter;stroke-width:0.8;"/>
   </g>
   <g id="patch_259">
    <path d="M 1166.4 768.96 
L 1166.4 103.68 
" style="fill:none;stroke:#000000;stroke-linecap:square;stroke-linejoin:miter;stroke-width:0.8;"/>
   </g>
   <g id="patch_260">
    <path d="M 162 768.96 
L 1166.4 768.96 
" style="fill:none;stroke:#000000;stroke-linecap:square;stroke-linejoin:miter;stroke-width:0.8;"/>
   </g>
   <g id="patch_261">
    <path d="M 162 103.68 
L 1166.4 103.68 
" style="fill:none;stroke:#000000;stroke-linecap:square;stroke-linejoin:miter;stroke-width:0.8;"/>
   </g>
   <g id="text_17">
    <!-- Persons Fully Vaccinated -->
    <g transform="translate(590.380313 97.68)scale(0.12 -0.12)">
     <defs>
      <path d="M 1831 0 
L 50 4666 
L 709 4666 
L 2188 738 
L 3669 4666 
L 4325 4666 
L 2547 0 
L 1831 0 
z
" id="DejaVuSans-56" transform="scale(0.015625)"/>
     </defs>
     <use xlink:href="#DejaVuSans-50"/>
     <use x="56.677734" xlink:href="#DejaVuSans-65"/>
     <use x="118.201172" xlink:href="#DejaVuSans-72"/>
     <use x="159.314453" xlink:href="#DejaVuSans-73"/>
     <use x="211.414062" xlink:href="#DejaVuSans-6f"/>
     <use x="272.595703" xlink:href="#DejaVuSans-6e"/>
     <use x="335.974609" xlink:href="#DejaVuSans-73"/>
     <use x="388.074219" xlink:href="#DejaVuSans-20"/>
     <use x="419.861328" xlink:href="#DejaVuSans-46"/>
     <use x="471.880859" xlink:href="#DejaVuSans-75"/>
     <use x="535.259766" xlink:href="#DejaVuSans-6c"/>
     <use x="563.042969" xlink:href="#DejaVuSans-6c"/>
     <use x="590.826172" xlink:href="#DejaVuSans-79"/>
     <use x="650.005859" xlink:href="#DejaVuSans-20"/>
     <use x="681.792969" xlink:href="#DejaVuSans-56"/>
     <use x="742.451172" xlink:href="#DejaVuSans-61"/>
     <use x="803.730469" xlink:href="#DejaVuSans-63"/>
     <use x="858.710938" xlink:href="#DejaVuSans-63"/>
     <use x="913.691406" xlink:href="#DejaVuSans-69"/>
     <use x="941.474609" xlink:href="#DejaVuSans-6e"/>
     <use x="1004.853516" xlink:href="#DejaVuSans-61"/>
     <use x="1066.132812" xlink:href="#DejaVuSans-74"/>
     <use x="1105.341797" xlink:href="#DejaVuSans-65"/>
     <use x="1166.865234" xlink:href="#DejaVuSans-64"/>
    </g>
   </g>
  </g>
 </g>
 <defs>
  <clipPath id="p8066a8490a">
   <rect height="665.28" width="1004.4" x="162" y="103.68"/>
  </clipPath>
 </defs>
</svg>
