<?xml version="1.0" encoding="utf-8" standalone="no"?>
<!DOCTYPE svg PUBLIC "-//W3C//DTD SVG 1.1//EN"
  "http://www.w3.org/Graphics/SVG/1.1/DTD/svg11.dtd">
<svg height="864pt" version="1.1" viewBox="0 0 1296 864" width="1296pt" xmlns="http://www.w3.org/2000/svg" xmlns:xlink="http://www.w3.org/1999/xlink">
 <metadata>
  <rdf:RDF xmlns:cc="http://creativecommons.org/ns#" xmlns:dc="http://purl.org/dc/elements/1.1/" xmlns:rdf="http://www.w3.org/1999/02/22-rdf-syntax-ns#">
   <cc:Work>
    <dc:type rdf:resource="http://purl.org/dc/dcmitype/StillImage"/>
    <dc:date>2021-08-13T21:17:49.719077</dc:date>
    <dc:format>image/svg+xml</dc:format>
    <dc:creator>
     <cc:Agent>
      <dc:title>Matplotlib v3.4.2, https://matplotlib.org/</dc:title>
     </cc:Agent>
    </dc:creator>
   </cc:Work>
  </rdf:RDF>
 </metadata>
 <defs>
  <style type="text/css">*{stroke-linecap:butt;stroke-linejoin:round;}</style>
 </defs>
 <g id="figure_1">
  <g id="patch_1">
   <path d="M 0 864 
L 1296 864 
L 1296 0 
L 0 0 
z
" style="fill:#ffffff;"/>
  </g>
  <g id="axes_1">
   <g id="patch_2">
    <path d="M 162 768.96 
L 1166.4 768.96 
L 1166.4 103.68 
L 162 103.68 
z
" style="fill:#ffffff;"/>
   </g>
   <g id="patch_3">
    <path clip-path="url(#p5c35df8979)" d="M 163.120982 768.96 
L 165.362946 768.96 
L 165.362946 768.96 
L 163.120982 768.96 
z
" style="fill:#1f77b4;"/>
   </g>
   <g id="patch_4">
    <path clip-path="url(#p5c35df8979)" d="M 167.604911 768.96 
L 169.846875 768.96 
L 169.846875 768.96 
L 167.604911 768.96 
z
" style="fill:#1f77b4;"/>
   </g>
   <g id="patch_5">
    <path clip-path="url(#p5c35df8979)" d="M 172.088839 768.96 
L 174.330804 768.96 
L 174.330804 768.96 
L 172.088839 768.96 
z
" style="fill:#1f77b4;"/>
   </g>
   <g id="patch_6">
    <path clip-path="url(#p5c35df8979)" d="M 176.572768 768.96 
L 178.814732 768.96 
L 178.814732 768.376964 
L 176.572768 768.376964 
z
" style="fill:#1f77b4;"/>
   </g>
   <g id="patch_7">
    <path clip-path="url(#p5c35df8979)" d="M 181.056696 768.96 
L 183.298661 768.96 
L 183.298661 767.382373 
L 181.056696 767.382373 
z
" style="fill:#1f77b4;"/>
   </g>
   <g id="patch_8">
    <path clip-path="url(#p5c35df8979)" d="M 185.540625 768.96 
L 187.782589 768.96 
L 187.782589 755.441569 
L 185.540625 755.441569 
z
" style="fill:#1f77b4;"/>
   </g>
   <g id="patch_9">
    <path clip-path="url(#p5c35df8979)" d="M 190.024554 768.96 
L 192.266518 768.96 
L 192.266518 669.489499 
L 190.024554 669.489499 
z
" style="fill:#1f77b4;"/>
   </g>
   <g id="patch_10">
    <path clip-path="url(#p5c35df8979)" d="M 194.508482 768.96 
L 196.750446 768.96 
L 196.750446 649.329031 
L 194.508482 649.329031 
z
" style="fill:#1f77b4;"/>
   </g>
   <g id="patch_11">
    <path clip-path="url(#p5c35df8979)" d="M 198.992411 768.96 
L 201.234375 768.96 
L 201.234375 703.671409 
L 198.992411 703.671409 
z
" style="fill:#1f77b4;"/>
   </g>
   <g id="patch_12">
    <path clip-path="url(#p5c35df8979)" d="M 203.476339 768.96 
L 205.718304 768.96 
L 205.718304 729.359285 
L 203.476339 729.359285 
z
" style="fill:#1f77b4;"/>
   </g>
   <g id="patch_13">
    <path clip-path="url(#p5c35df8979)" d="M 207.960268 768.96 
L 210.202232 768.96 
L 210.202232 706.866674 
L 207.960268 706.866674 
z
" style="fill:#1f77b4;"/>
   </g>
   <g id="patch_14">
    <path clip-path="url(#p5c35df8979)" d="M 212.444196 768.96 
L 214.686161 768.96 
L 214.686161 710.187692 
L 212.444196 710.187692 
z
" style="fill:#1f77b4;"/>
   </g>
   <g id="patch_15">
    <path clip-path="url(#p5c35df8979)" d="M 216.928125 768.96 
L 219.170089 768.96 
L 219.170089 720.876684 
L 216.928125 720.876684 
z
" style="fill:#1f77b4;"/>
   </g>
   <g id="patch_16">
    <path clip-path="url(#p5c35df8979)" d="M 221.412054 768.96 
L 223.654018 768.96 
L 223.654018 710.793593 
L 221.412054 710.793593 
z
" style="fill:#1f77b4;"/>
   </g>
   <g id="patch_17">
    <path clip-path="url(#p5c35df8979)" d="M 225.895982 768.96 
L 228.137946 768.96 
L 228.137946 757.670824 
L 225.895982 757.670824 
z
" style="fill:#1f77b4;"/>
   </g>
   <g id="patch_18">
    <path clip-path="url(#p5c35df8979)" d="M 230.379911 768.96 
L 232.621875 768.96 
L 232.621875 761.88926 
L 230.379911 761.88926 
z
" style="fill:#1f77b4;"/>
   </g>
   <g id="patch_19">
    <path clip-path="url(#p5c35df8979)" d="M 234.863839 768.96 
L 237.105804 768.96 
L 237.105804 765.661846 
L 234.863839 765.661846 
z
" style="fill:#1f77b4;"/>
   </g>
   <g id="patch_20">
    <path clip-path="url(#p5c35df8979)" d="M 239.347768 768.96 
L 241.589732 768.96 
L 241.589732 752.772179 
L 239.347768 752.772179 
z
" style="fill:#1f77b4;"/>
   </g>
   <g id="patch_21">
    <path clip-path="url(#p5c35df8979)" d="M 243.831696 768.96 
L 246.073661 768.96 
L 246.073661 743.489333 
L 243.831696 743.489333 
z
" style="fill:#1f77b4;"/>
   </g>
   <g id="patch_22">
    <path clip-path="url(#p5c35df8979)" d="M 248.315625 768.96 
L 250.557589 768.96 
L 250.557589 719.842081 
L 248.315625 719.842081 
z
" style="fill:#1f77b4;"/>
   </g>
   <g id="patch_23">
    <path clip-path="url(#p5c35df8979)" d="M 252.799554 768.96 
L 255.041518 768.96 
L 255.041518 719.762057 
L 252.799554 719.762057 
z
" style="fill:#1f77b4;"/>
   </g>
   <g id="patch_24">
    <path clip-path="url(#p5c35df8979)" d="M 257.283482 768.96 
L 259.525446 768.96 
L 259.525446 734.412264 
L 257.283482 734.412264 
z
" style="fill:#1f77b4;"/>
   </g>
   <g id="patch_25">
    <path clip-path="url(#p5c35df8979)" d="M 261.767411 768.96 
L 264.009375 768.96 
L 264.009375 756.476172 
L 261.767411 756.476172 
z
" style="fill:#1f77b4;"/>
   </g>
   <g id="patch_26">
    <path clip-path="url(#p5c35df8979)" d="M 266.251339 768.96 
L 268.493304 768.96 
L 268.493304 751.834749 
L 266.251339 751.834749 
z
" style="fill:#1f77b4;"/>
   </g>
   <g id="patch_27">
    <path clip-path="url(#p5c35df8979)" d="M 270.735268 768.96 
L 272.977232 768.96 
L 272.977232 723.957629 
L 270.735268 723.957629 
z
" style="fill:#1f77b4;"/>
   </g>
   <g id="patch_28">
    <path clip-path="url(#p5c35df8979)" d="M 275.219196 768.96 
L 277.461161 768.96 
L 277.461161 688.306697 
L 275.219196 688.306697 
z
" style="fill:#1f77b4;"/>
   </g>
   <g id="patch_29">
    <path clip-path="url(#p5c35df8979)" d="M 279.703125 768.96 
L 281.945089 768.96 
L 281.945089 661.126934 
L 279.703125 661.126934 
z
" style="fill:#1f77b4;"/>
   </g>
   <g id="patch_30">
    <path clip-path="url(#p5c35df8979)" d="M 284.187054 768.96 
L 286.429018 768.96 
L 286.429018 676.84604 
L 284.187054 676.84604 
z
" style="fill:#1f77b4;"/>
   </g>
   <g id="patch_31">
    <path clip-path="url(#p5c35df8979)" d="M 288.670982 768.96 
L 290.912946 768.96 
L 290.912946 688.48961 
L 288.670982 688.48961 
z
" style="fill:#1f77b4;"/>
   </g>
   <g id="patch_32">
    <path clip-path="url(#p5c35df8979)" d="M 293.154911 768.96 
L 295.396875 768.96 
L 295.396875 726.026835 
L 293.154911 726.026835 
z
" style="fill:#1f77b4;"/>
   </g>
   <g id="patch_33">
    <path clip-path="url(#p5c35df8979)" d="M 297.638839 768.96 
L 299.880804 768.96 
L 299.880804 744.929774 
L 297.638839 744.929774 
z
" style="fill:#1f77b4;"/>
   </g>
   <g id="patch_34">
    <path clip-path="url(#p5c35df8979)" d="M 302.122768 768.96 
L 304.364732 768.96 
L 304.364732 723.048779 
L 302.122768 723.048779 
z
" style="fill:#1f77b4;"/>
   </g>
   <g id="patch_35">
    <path clip-path="url(#p5c35df8979)" d="M 306.606696 768.96 
L 308.848661 768.96 
L 308.848661 670.249732 
L 306.606696 670.249732 
z
" style="fill:#1f77b4;"/>
   </g>
   <g id="patch_36">
    <path clip-path="url(#p5c35df8979)" d="M 311.090625 768.96 
L 313.332589 768.96 
L 313.332589 696.149102 
L 311.090625 696.149102 
z
" style="fill:#1f77b4;"/>
   </g>
   <g id="patch_37">
    <path clip-path="url(#p5c35df8979)" d="M 315.574554 768.96 
L 317.816518 768.96 
L 317.816518 674.69681 
L 315.574554 674.69681 
z
" style="fill:#1f77b4;"/>
   </g>
   <g id="patch_38">
    <path clip-path="url(#p5c35df8979)" d="M 320.058482 768.96 
L 322.300446 768.96 
L 322.300446 691.98211 
L 320.058482 691.98211 
z
" style="fill:#1f77b4;"/>
   </g>
   <g id="patch_39">
    <path clip-path="url(#p5c35df8979)" d="M 324.542411 768.96 
L 326.784375 768.96 
L 326.784375 702.562497 
L 324.542411 702.562497 
z
" style="fill:#1f77b4;"/>
   </g>
   <g id="patch_40">
    <path clip-path="url(#p5c35df8979)" d="M 329.026339 768.96 
L 331.268304 768.96 
L 331.268304 746.633154 
L 329.026339 746.633154 
z
" style="fill:#1f77b4;"/>
   </g>
   <g id="patch_41">
    <path clip-path="url(#p5c35df8979)" d="M 333.510268 768.96 
L 335.752232 768.96 
L 335.752232 695.406017 
L 333.510268 695.406017 
z
" style="fill:#1f77b4;"/>
   </g>
   <g id="patch_42">
    <path clip-path="url(#p5c35df8979)" d="M 337.994196 768.96 
L 340.236161 768.96 
L 340.236161 675.719981 
L 337.994196 675.719981 
z
" style="fill:#1f77b4;"/>
   </g>
   <g id="patch_43">
    <path clip-path="url(#p5c35df8979)" d="M 342.478125 768.96 
L 344.720089 768.96 
L 344.720089 656.262586 
L 342.478125 656.262586 
z
" style="fill:#1f77b4;"/>
   </g>
   <g id="patch_44">
    <path clip-path="url(#p5c35df8979)" d="M 346.962054 768.96 
L 349.204018 768.96 
L 349.204018 606.567347 
L 346.962054 606.567347 
z
" style="fill:#1f77b4;"/>
   </g>
   <g id="patch_45">
    <path clip-path="url(#p5c35df8979)" d="M 351.445982 768.96 
L 353.687946 768.96 
L 353.687946 628.374034 
L 351.445982 628.374034 
z
" style="fill:#1f77b4;"/>
   </g>
   <g id="patch_46">
    <path clip-path="url(#p5c35df8979)" d="M 355.929911 768.96 
L 358.171875 768.96 
L 358.171875 682.316289 
L 355.929911 682.316289 
z
" style="fill:#1f77b4;"/>
   </g>
   <g id="patch_47">
    <path clip-path="url(#p5c35df8979)" d="M 360.413839 768.96 
L 362.655804 768.96 
L 362.655804 722.059904 
L 360.413839 722.059904 
z
" style="fill:#1f77b4;"/>
   </g>
   <g id="patch_48">
    <path clip-path="url(#p5c35df8979)" d="M 364.897768 768.96 
L 367.139732 768.96 
L 367.139732 722.757261 
L 364.897768 722.757261 
z
" style="fill:#1f77b4;"/>
   </g>
   <g id="patch_49">
    <path clip-path="url(#p5c35df8979)" d="M 369.381696 768.96 
L 371.623661 768.96 
L 371.623661 677.680582 
L 369.381696 677.680582 
z
" style="fill:#1f77b4;"/>
   </g>
   <g id="patch_50">
    <path clip-path="url(#p5c35df8979)" d="M 373.865625 768.96 
L 376.107589 768.96 
L 376.107589 619.685655 
L 373.865625 619.685655 
z
" style="fill:#1f77b4;"/>
   </g>
   <g id="patch_51">
    <path clip-path="url(#p5c35df8979)" d="M 378.349554 768.96 
L 380.591518 768.96 
L 380.591518 571.893858 
L 378.349554 571.893858 
z
" style="fill:#1f77b4;"/>
   </g>
   <g id="patch_52">
    <path clip-path="url(#p5c35df8979)" d="M 382.833482 768.96 
L 385.075446 768.96 
L 385.075446 584.37197 
L 382.833482 584.37197 
z
" style="fill:#1f77b4;"/>
   </g>
   <g id="patch_53">
    <path clip-path="url(#p5c35df8979)" d="M 387.317411 768.96 
L 389.559375 768.96 
L 389.559375 733.154735 
L 387.317411 733.154735 
z
" style="fill:#1f77b4;"/>
   </g>
   <g id="patch_54">
    <path clip-path="url(#p5c35df8979)" d="M 391.801339 768.96 
L 394.043304 768.96 
L 394.043304 631.094868 
L 391.801339 631.094868 
z
" style="fill:#1f77b4;"/>
   </g>
   <g id="patch_55">
    <path clip-path="url(#p5c35df8979)" d="M 396.285268 768.96 
L 398.527232 768.96 
L 398.527232 663.024659 
L 396.285268 663.024659 
z
" style="fill:#1f77b4;"/>
   </g>
   <g id="patch_56">
    <path clip-path="url(#p5c35df8979)" d="M 400.769196 768.96 
L 403.011161 768.96 
L 403.011161 612.929298 
L 400.769196 612.929298 
z
" style="fill:#1f77b4;"/>
   </g>
   <g id="patch_57">
    <path clip-path="url(#p5c35df8979)" d="M 405.253125 768.96 
L 407.495089 768.96 
L 407.495089 468.273512 
L 405.253125 468.273512 
z
" style="fill:#1f77b4;"/>
   </g>
   <g id="patch_58">
    <path clip-path="url(#p5c35df8979)" d="M 409.737054 768.96 
L 411.979018 768.96 
L 411.979018 463.677818 
L 409.737054 463.677818 
z
" style="fill:#1f77b4;"/>
   </g>
   <g id="patch_59">
    <path clip-path="url(#p5c35df8979)" d="M 414.220982 768.96 
L 416.462946 768.96 
L 416.462946 496.41357 
L 414.220982 496.41357 
z
" style="fill:#1f77b4;"/>
   </g>
   <g id="patch_60">
    <path clip-path="url(#p5c35df8979)" d="M 418.704911 768.96 
L 420.946875 768.96 
L 420.946875 526.862907 
L 418.704911 526.862907 
z
" style="fill:#1f77b4;"/>
   </g>
   <g id="patch_61">
    <path clip-path="url(#p5c35df8979)" d="M 423.188839 768.96 
L 425.430804 768.96 
L 425.430804 650.540831 
L 423.188839 650.540831 
z
" style="fill:#1f77b4;"/>
   </g>
   <g id="patch_62">
    <path clip-path="url(#p5c35df8979)" d="M 427.672768 768.96 
L 429.914732 768.96 
L 429.914732 594.094951 
L 427.672768 594.094951 
z
" style="fill:#1f77b4;"/>
   </g>
   <g id="patch_63">
    <path clip-path="url(#p5c35df8979)" d="M 432.156696 768.96 
L 434.398661 768.96 
L 434.398661 540.747164 
L 432.156696 540.747164 
z
" style="fill:#1f77b4;"/>
   </g>
   <g id="patch_64">
    <path clip-path="url(#p5c35df8979)" d="M 436.640625 768.96 
L 438.882589 768.96 
L 438.882589 505.221985 
L 436.640625 505.221985 
z
" style="fill:#1f77b4;"/>
   </g>
   <g id="patch_65">
    <path clip-path="url(#p5c35df8979)" d="M 441.124554 768.96 
L 443.366518 768.96 
L 443.366518 382.847318 
L 441.124554 382.847318 
z
" style="fill:#1f77b4;"/>
   </g>
   <g id="patch_66">
    <path clip-path="url(#p5c35df8979)" d="M 445.608482 768.96 
L 447.850446 768.96 
L 447.850446 398.246325 
L 445.608482 398.246325 
z
" style="fill:#1f77b4;"/>
   </g>
   <g id="patch_67">
    <path clip-path="url(#p5c35df8979)" d="M 450.092411 768.96 
L 452.334375 768.96 
L 452.334375 479.036813 
L 450.092411 479.036813 
z
" style="fill:#1f77b4;"/>
   </g>
   <g id="patch_68">
    <path clip-path="url(#p5c35df8979)" d="M 454.576339 768.96 
L 456.818304 768.96 
L 456.818304 678.886666 
L 454.576339 678.886666 
z
" style="fill:#1f77b4;"/>
   </g>
   <g id="patch_69">
    <path clip-path="url(#p5c35df8979)" d="M 459.060268 768.96 
L 461.302232 768.96 
L 461.302232 528.749199 
L 459.060268 528.749199 
z
" style="fill:#1f77b4;"/>
   </g>
   <g id="patch_70">
    <path clip-path="url(#p5c35df8979)" d="M 463.544196 768.96 
L 465.786161 768.96 
L 465.786161 463.797854 
L 463.544196 463.797854 
z
" style="fill:#1f77b4;"/>
   </g>
   <g id="patch_71">
    <path clip-path="url(#p5c35df8979)" d="M 468.028125 768.96 
L 470.270089 768.96 
L 470.270089 434.251651 
L 468.028125 434.251651 
z
" style="fill:#1f77b4;"/>
   </g>
   <g id="patch_72">
    <path clip-path="url(#p5c35df8979)" d="M 472.512054 768.96 
L 474.754018 768.96 
L 474.754018 406.008705 
L 472.512054 406.008705 
z
" style="fill:#1f77b4;"/>
   </g>
   <g id="patch_73">
    <path clip-path="url(#p5c35df8979)" d="M 476.995982 768.96 
L 479.237946 768.96 
L 479.237946 355.850468 
L 476.995982 355.850468 
z
" style="fill:#1f77b4;"/>
   </g>
   <g id="patch_74">
    <path clip-path="url(#p5c35df8979)" d="M 481.479911 768.96 
L 483.721875 768.96 
L 483.721875 505.422046 
L 481.479911 505.422046 
z
" style="fill:#1f77b4;"/>
   </g>
   <g id="patch_75">
    <path clip-path="url(#p5c35df8979)" d="M 485.963839 768.96 
L 488.205804 768.96 
L 488.205804 501.500844 
L 485.963839 501.500844 
z
" style="fill:#1f77b4;"/>
   </g>
   <g id="patch_76">
    <path clip-path="url(#p5c35df8979)" d="M 490.447768 768.96 
L 492.689732 768.96 
L 492.689732 534.77962 
L 490.447768 534.77962 
z
" style="fill:#1f77b4;"/>
   </g>
   <g id="patch_77">
    <path clip-path="url(#p5c35df8979)" d="M 494.931696 768.96 
L 497.173661 768.96 
L 497.173661 506.776748 
L 494.931696 506.776748 
z
" style="fill:#1f77b4;"/>
   </g>
   <g id="patch_78">
    <path clip-path="url(#p5c35df8979)" d="M 499.415625 768.96 
L 501.657589 768.96 
L 501.657589 536.191482 
L 499.415625 536.191482 
z
" style="fill:#1f77b4;"/>
   </g>
   <g id="patch_79">
    <path clip-path="url(#p5c35df8979)" d="M 503.899554 768.96 
L 506.141518 768.96 
L 506.141518 503.232804 
L 503.899554 503.232804 
z
" style="fill:#1f77b4;"/>
   </g>
   <g id="patch_80">
    <path clip-path="url(#p5c35df8979)" d="M 508.383482 768.96 
L 510.625446 768.96 
L 510.625446 490.663235 
L 508.383482 490.663235 
z
" style="fill:#1f77b4;"/>
   </g>
   <g id="patch_81">
    <path clip-path="url(#p5c35df8979)" d="M 512.867411 768.96 
L 515.109375 768.96 
L 515.109375 595.518245 
L 512.867411 595.518245 
z
" style="fill:#1f77b4;"/>
   </g>
   <g id="patch_82">
    <path clip-path="url(#p5c35df8979)" d="M 517.351339 768.96 
L 519.593304 768.96 
L 519.593304 674.222378 
L 517.351339 674.222378 
z
" style="fill:#1f77b4;"/>
   </g>
   <g id="patch_83">
    <path clip-path="url(#p5c35df8979)" d="M 521.835268 768.96 
L 524.077232 768.96 
L 524.077232 620.074346 
L 521.835268 620.074346 
z
" style="fill:#1f77b4;"/>
   </g>
   <g id="patch_84">
    <path clip-path="url(#p5c35df8979)" d="M 526.319196 768.96 
L 528.561161 768.96 
L 528.561161 589.350639 
L 526.319196 589.350639 
z
" style="fill:#1f77b4;"/>
   </g>
   <g id="patch_85">
    <path clip-path="url(#p5c35df8979)" d="M 530.803125 768.96 
L 533.045089 768.96 
L 533.045089 582.662874 
L 530.803125 582.662874 
z
" style="fill:#1f77b4;"/>
   </g>
   <g id="patch_86">
    <path clip-path="url(#p5c35df8979)" d="M 535.287054 768.96 
L 537.529018 768.96 
L 537.529018 530.241085 
L 535.287054 530.241085 
z
" style="fill:#1f77b4;"/>
   </g>
   <g id="patch_87">
    <path clip-path="url(#p5c35df8979)" d="M 539.770982 768.96 
L 542.012946 768.96 
L 542.012946 467.038848 
L 539.770982 467.038848 
z
" style="fill:#1f77b4;"/>
   </g>
   <g id="patch_88">
    <path clip-path="url(#p5c35df8979)" d="M 544.254911 768.96 
L 546.496875 768.96 
L 546.496875 505.71928 
L 544.254911 505.71928 
z
" style="fill:#1f77b4;"/>
   </g>
   <g id="patch_89">
    <path clip-path="url(#p5c35df8979)" d="M 548.738839 768.96 
L 550.980804 768.96 
L 550.980804 664.002102 
L 548.738839 664.002102 
z
" style="fill:#1f77b4;"/>
   </g>
   <g id="patch_90">
    <path clip-path="url(#p5c35df8979)" d="M 553.222768 768.96 
L 555.464732 768.96 
L 555.464732 608.870911 
L 553.222768 608.870911 
z
" style="fill:#1f77b4;"/>
   </g>
   <g id="patch_91">
    <path clip-path="url(#p5c35df8979)" d="M 557.706696 768.96 
L 559.948661 768.96 
L 559.948661 479.625565 
L 557.706696 479.625565 
z
" style="fill:#1f77b4;"/>
   </g>
   <g id="patch_92">
    <path clip-path="url(#p5c35df8979)" d="M 562.190625 768.96 
L 564.432589 768.96 
L 564.432589 522.478705 
L 562.190625 522.478705 
z
" style="fill:#1f77b4;"/>
   </g>
   <g id="patch_93">
    <path clip-path="url(#p5c35df8979)" d="M 566.674554 768.96 
L 568.916518 768.96 
L 568.916518 428.186935 
L 566.674554 428.186935 
z
" style="fill:#1f77b4;"/>
   </g>
   <g id="patch_94">
    <path clip-path="url(#p5c35df8979)" d="M 571.158482 768.96 
L 573.400446 768.96 
L 573.400446 420.6189 
L 571.158482 420.6189 
z
" style="fill:#1f77b4;"/>
   </g>
   <g id="patch_95">
    <path clip-path="url(#p5c35df8979)" d="M 575.642411 768.96 
L 577.884375 768.96 
L 577.884375 496.739384 
L 575.642411 496.739384 
z
" style="fill:#1f77b4;"/>
   </g>
   <g id="patch_96">
    <path clip-path="url(#p5c35df8979)" d="M 580.126339 768.96 
L 582.368304 768.96 
L 582.368304 693.308231 
L 580.126339 693.308231 
z
" style="fill:#1f77b4;"/>
   </g>
   <g id="patch_97">
    <path clip-path="url(#p5c35df8979)" d="M 584.610268 768.96 
L 586.852232 768.96 
L 586.852232 512.298441 
L 584.610268 512.298441 
z
" style="fill:#1f77b4;"/>
   </g>
   <g id="patch_98">
    <path clip-path="url(#p5c35df8979)" d="M 589.094196 768.96 
L 591.336161 768.96 
L 591.336161 367.917025 
L 589.094196 367.917025 
z
" style="fill:#1f77b4;"/>
   </g>
   <g id="patch_99">
    <path clip-path="url(#p5c35df8979)" d="M 593.578125 768.96 
L 595.820089 768.96 
L 595.820089 324.286503 
L 593.578125 324.286503 
z
" style="fill:#1f77b4;"/>
   </g>
   <g id="patch_100">
    <path clip-path="url(#p5c35df8979)" d="M 598.062054 768.96 
L 600.304018 768.96 
L 600.304018 241.632587 
L 598.062054 241.632587 
z
" style="fill:#1f77b4;"/>
   </g>
   <g id="patch_101">
    <path clip-path="url(#p5c35df8979)" d="M 602.545982 768.96 
L 604.787946 768.96 
L 604.787946 135.36 
L 602.545982 135.36 
z
" style="fill:#1f77b4;"/>
   </g>
   <g id="patch_102">
    <path clip-path="url(#p5c35df8979)" d="M 607.029911 768.96 
L 609.271875 768.96 
L 609.271875 335.655704 
L 607.029911 335.655704 
z
" style="fill:#1f77b4;"/>
   </g>
   <g id="patch_103">
    <path clip-path="url(#p5c35df8979)" d="M 611.513839 768.96 
L 613.755804 768.96 
L 613.755804 556.289073 
L 611.513839 556.289073 
z
" style="fill:#1f77b4;"/>
   </g>
   <g id="patch_104">
    <path clip-path="url(#p5c35df8979)" d="M 615.997768 768.96 
L 618.239732 768.96 
L 618.239732 414.034023 
L 615.997768 414.034023 
z
" style="fill:#1f77b4;"/>
   </g>
   <g id="patch_105">
    <path clip-path="url(#p5c35df8979)" d="M 620.481696 768.96 
L 622.723661 768.96 
L 622.723661 333.683671 
L 620.481696 333.683671 
z
" style="fill:#1f77b4;"/>
   </g>
   <g id="patch_106">
    <path clip-path="url(#p5c35df8979)" d="M 624.965625 768.96 
L 627.207589 768.96 
L 627.207589 396.217132 
L 624.965625 396.217132 
z
" style="fill:#1f77b4;"/>
   </g>
   <g id="patch_107">
    <path clip-path="url(#p5c35df8979)" d="M 629.449554 768.96 
L 631.691518 768.96 
L 631.691518 264.445297 
L 629.449554 264.445297 
z
" style="fill:#1f77b4;"/>
   </g>
   <g id="patch_108">
    <path clip-path="url(#p5c35df8979)" d="M 633.933482 768.96 
L 636.175446 768.96 
L 636.175446 268.532264 
L 633.933482 268.532264 
z
" style="fill:#1f77b4;"/>
   </g>
   <g id="patch_109">
    <path clip-path="url(#p5c35df8979)" d="M 638.417411 768.96 
L 640.659375 768.96 
L 640.659375 412.799359 
L 638.417411 412.799359 
z
" style="fill:#1f77b4;"/>
   </g>
   <g id="patch_110">
    <path clip-path="url(#p5c35df8979)" d="M 642.901339 768.96 
L 645.143304 768.96 
L 645.143304 565.08034 
L 642.901339 565.08034 
z
" style="fill:#1f77b4;"/>
   </g>
   <g id="patch_111">
    <path clip-path="url(#p5c35df8979)" d="M 647.385268 768.96 
L 649.627232 768.96 
L 649.627232 478.985369 
L 647.385268 478.985369 
z
" style="fill:#1f77b4;"/>
   </g>
   <g id="patch_112">
    <path clip-path="url(#p5c35df8979)" d="M 651.869196 768.96 
L 654.111161 768.96 
L 654.111161 297.249641 
L 651.869196 297.249641 
z
" style="fill:#1f77b4;"/>
   </g>
   <g id="patch_113">
    <path clip-path="url(#p5c35df8979)" d="M 656.353125 768.96 
L 658.595089 768.96 
L 658.595089 347.602224 
L 656.353125 347.602224 
z
" style="fill:#1f77b4;"/>
   </g>
   <g id="patch_114">
    <path clip-path="url(#p5c35df8979)" d="M 660.837054 768.96 
L 663.079018 768.96 
L 663.079018 322.851778 
L 660.837054 322.851778 
z
" style="fill:#1f77b4;"/>
   </g>
   <g id="patch_115">
    <path clip-path="url(#p5c35df8979)" d="M 665.320982 768.96 
L 667.562946 768.96 
L 667.562946 349.962948 
L 665.320982 349.962948 
z
" style="fill:#1f77b4;"/>
   </g>
   <g id="patch_116">
    <path clip-path="url(#p5c35df8979)" d="M 669.804911 768.96 
L 672.046875 768.96 
L 672.046875 485.015789 
L 669.804911 485.015789 
z
" style="fill:#1f77b4;"/>
   </g>
   <g id="patch_117">
    <path clip-path="url(#p5c35df8979)" d="M 674.288839 768.96 
L 676.530804 768.96 
L 676.530804 646.350975 
L 674.288839 646.350975 
z
" style="fill:#1f77b4;"/>
   </g>
   <g id="patch_118">
    <path clip-path="url(#p5c35df8979)" d="M 678.772768 768.96 
L 681.014732 768.96 
L 681.014732 510.920875 
L 678.772768 510.920875 
z
" style="fill:#1f77b4;"/>
   </g>
   <g id="patch_119">
    <path clip-path="url(#p5c35df8979)" d="M 683.256696 768.96 
L 685.498661 768.96 
L 685.498661 402.436181 
L 683.256696 402.436181 
z
" style="fill:#1f77b4;"/>
   </g>
   <g id="patch_120">
    <path clip-path="url(#p5c35df8979)" d="M 687.740625 768.96 
L 689.982589 768.96 
L 689.982589 383.43607 
L 687.740625 383.43607 
z
" style="fill:#1f77b4;"/>
   </g>
   <g id="patch_121">
    <path clip-path="url(#p5c35df8979)" d="M 692.224554 768.96 
L 694.466518 768.96 
L 694.466518 395.422602 
L 692.224554 395.422602 
z
" style="fill:#1f77b4;"/>
   </g>
   <g id="patch_122">
    <path clip-path="url(#p5c35df8979)" d="M 696.708482 768.96 
L 698.950446 768.96 
L 698.950446 451.702717 
L 696.708482 451.702717 
z
" style="fill:#1f77b4;"/>
   </g>
   <g id="patch_123">
    <path clip-path="url(#p5c35df8979)" d="M 701.192411 768.96 
L 703.434375 768.96 
L 703.434375 623.018106 
L 701.192411 623.018106 
z
" style="fill:#1f77b4;"/>
   </g>
   <g id="patch_124">
    <path clip-path="url(#p5c35df8979)" d="M 705.676339 768.96 
L 707.918304 768.96 
L 707.918304 719.247613 
L 705.676339 719.247613 
z
" style="fill:#1f77b4;"/>
   </g>
   <g id="patch_125">
    <path clip-path="url(#p5c35df8979)" d="M 710.160268 768.96 
L 712.402232 768.96 
L 712.402232 615.604404 
L 710.160268 615.604404 
z
" style="fill:#1f77b4;"/>
   </g>
   <g id="patch_126">
    <path clip-path="url(#p5c35df8979)" d="M 714.644196 768.96 
L 716.886161 768.96 
L 716.886161 361.995209 
L 714.644196 361.995209 
z
" style="fill:#1f77b4;"/>
   </g>
   <g id="patch_127">
    <path clip-path="url(#p5c35df8979)" d="M 719.128125 768.96 
L 721.370089 768.96 
L 721.370089 369.660417 
L 719.128125 369.660417 
z
" style="fill:#1f77b4;"/>
   </g>
   <g id="patch_128">
    <path clip-path="url(#p5c35df8979)" d="M 723.612054 768.96 
L 725.854018 768.96 
L 725.854018 468.799388 
L 723.612054 468.799388 
z
" style="fill:#1f77b4;"/>
   </g>
   <g id="patch_129">
    <path clip-path="url(#p5c35df8979)" d="M 728.095982 768.96 
L 730.337946 768.96 
L 730.337946 322.926086 
L 728.095982 322.926086 
z
" style="fill:#1f77b4;"/>
   </g>
   <g id="patch_130">
    <path clip-path="url(#p5c35df8979)" d="M 732.579911 768.96 
L 734.821875 768.96 
L 734.821875 463.614941 
L 732.579911 463.614941 
z
" style="fill:#1f77b4;"/>
   </g>
   <g id="patch_131">
    <path clip-path="url(#p5c35df8979)" d="M 737.063839 768.96 
L 739.305804 768.96 
L 739.305804 497.213815 
L 737.063839 497.213815 
z
" style="fill:#1f77b4;"/>
   </g>
   <g id="patch_132">
    <path clip-path="url(#p5c35df8979)" d="M 741.547768 768.96 
L 743.789732 768.96 
L 743.789732 539.958351 
L 741.547768 539.958351 
z
" style="fill:#1f77b4;"/>
   </g>
   <g id="patch_133">
    <path clip-path="url(#p5c35df8979)" d="M 746.031696 768.96 
L 748.273661 768.96 
L 748.273661 460.082429 
L 746.031696 460.082429 
z
" style="fill:#1f77b4;"/>
   </g>
   <g id="patch_134">
    <path clip-path="url(#p5c35df8979)" d="M 750.515625 768.96 
L 752.757589 768.96 
L 752.757589 489.58862 
L 750.515625 489.58862 
z
" style="fill:#1f77b4;"/>
   </g>
   <g id="patch_135">
    <path clip-path="url(#p5c35df8979)" d="M 754.999554 768.96 
L 757.241518 768.96 
L 757.241518 479.259738 
L 754.999554 479.259738 
z
" style="fill:#1f77b4;"/>
   </g>
   <g id="patch_136">
    <path clip-path="url(#p5c35df8979)" d="M 759.483482 768.96 
L 761.725446 768.96 
L 761.725446 350.088701 
L 759.483482 350.088701 
z
" style="fill:#1f77b4;"/>
   </g>
   <g id="patch_137">
    <path clip-path="url(#p5c35df8979)" d="M 763.967411 768.96 
L 766.209375 768.96 
L 766.209375 533.242006 
L 763.967411 533.242006 
z
" style="fill:#1f77b4;"/>
   </g>
   <g id="patch_138">
    <path clip-path="url(#p5c35df8979)" d="M 768.451339 768.96 
L 770.693304 768.96 
L 770.693304 671.084273 
L 768.451339 671.084273 
z
" style="fill:#1f77b4;"/>
   </g>
   <g id="patch_139">
    <path clip-path="url(#p5c35df8979)" d="M 772.935268 768.96 
L 775.177232 768.96 
L 775.177232 607.041778 
L 772.935268 607.041778 
z
" style="fill:#1f77b4;"/>
   </g>
   <g id="patch_140">
    <path clip-path="url(#p5c35df8979)" d="M 777.419196 768.96 
L 779.661161 768.96 
L 779.661161 466.770194 
L 777.419196 466.770194 
z
" style="fill:#1f77b4;"/>
   </g>
   <g id="patch_141">
    <path clip-path="url(#p5c35df8979)" d="M 781.903125 768.96 
L 784.145089 768.96 
L 784.145089 500.460525 
L 781.903125 500.460525 
z
" style="fill:#1f77b4;"/>
   </g>
   <g id="patch_142">
    <path clip-path="url(#p5c35df8979)" d="M 786.387054 768.96 
L 788.629018 768.96 
L 788.629018 388.140369 
L 786.387054 388.140369 
z
" style="fill:#1f77b4;"/>
   </g>
   <g id="patch_143">
    <path clip-path="url(#p5c35df8979)" d="M 790.870982 768.96 
L 793.112946 768.96 
L 793.112946 521.489831 
L 790.870982 521.489831 
z
" style="fill:#1f77b4;"/>
   </g>
   <g id="patch_144">
    <path clip-path="url(#p5c35df8979)" d="M 795.354911 768.96 
L 797.596875 768.96 
L 797.596875 569.384517 
L 795.354911 569.384517 
z
" style="fill:#1f77b4;"/>
   </g>
   <g id="patch_145">
    <path clip-path="url(#p5c35df8979)" d="M 799.838839 768.96 
L 802.080804 768.96 
L 802.080804 676.943213 
L 799.838839 676.943213 
z
" style="fill:#1f77b4;"/>
   </g>
   <g id="patch_146">
    <path clip-path="url(#p5c35df8979)" d="M 804.322768 768.96 
L 806.564732 768.96 
L 806.564732 619.565619 
L 804.322768 619.565619 
z
" style="fill:#1f77b4;"/>
   </g>
   <g id="patch_147">
    <path clip-path="url(#p5c35df8979)" d="M 808.806696 768.96 
L 811.048661 768.96 
L 811.048661 587.424334 
L 808.806696 587.424334 
z
" style="fill:#1f77b4;"/>
   </g>
   <g id="patch_148">
    <path clip-path="url(#p5c35df8979)" d="M 813.290625 768.96 
L 815.532589 768.96 
L 815.532589 584.246217 
L 813.290625 584.246217 
z
" style="fill:#1f77b4;"/>
   </g>
   <g id="patch_149">
    <path clip-path="url(#p5c35df8979)" d="M 817.774554 768.96 
L 820.016518 768.96 
L 820.016518 574.237434 
L 817.774554 574.237434 
z
" style="fill:#1f77b4;"/>
   </g>
   <g id="patch_150">
    <path clip-path="url(#p5c35df8979)" d="M 822.258482 768.96 
L 824.500446 768.96 
L 824.500446 589.790774 
L 822.258482 589.790774 
z
" style="fill:#1f77b4;"/>
   </g>
   <g id="patch_151">
    <path clip-path="url(#p5c35df8979)" d="M 826.742411 768.96 
L 828.984375 768.96 
L 828.984375 646.288098 
L 826.742411 646.288098 
z
" style="fill:#1f77b4;"/>
   </g>
   <g id="patch_152">
    <path clip-path="url(#p5c35df8979)" d="M 831.226339 768.96 
L 833.468304 768.96 
L 833.468304 700.544736 
L 831.226339 700.544736 
z
" style="fill:#1f77b4;"/>
   </g>
   <g id="patch_153">
    <path clip-path="url(#p5c35df8979)" d="M 835.710268 768.96 
L 837.952232 768.96 
L 837.952232 717.82432 
L 835.710268 717.82432 
z
" style="fill:#1f77b4;"/>
   </g>
   <g id="patch_154">
    <path clip-path="url(#p5c35df8979)" d="M 840.194196 768.96 
L 842.436161 768.96 
L 842.436161 659.829394 
L 840.194196 659.829394 
z
" style="fill:#1f77b4;"/>
   </g>
   <g id="patch_155">
    <path clip-path="url(#p5c35df8979)" d="M 844.678125 768.96 
L 846.920089 768.96 
L 846.920089 653.581764 
L 844.678125 653.581764 
z
" style="fill:#1f77b4;"/>
   </g>
   <g id="patch_156">
    <path clip-path="url(#p5c35df8979)" d="M 849.162054 768.96 
L 851.404018 768.96 
L 851.404018 581.811185 
L 849.162054 581.811185 
z
" style="fill:#1f77b4;"/>
   </g>
   <g id="patch_157">
    <path clip-path="url(#p5c35df8979)" d="M 853.645982 768.96 
L 855.887946 768.96 
L 855.887946 557.889564 
L 853.645982 557.889564 
z
" style="fill:#1f77b4;"/>
   </g>
   <g id="patch_158">
    <path clip-path="url(#p5c35df8979)" d="M 858.129911 768.96 
L 860.371875 768.96 
L 860.371875 580.405039 
L 858.129911 580.405039 
z
" style="fill:#1f77b4;"/>
   </g>
   <g id="patch_159">
    <path clip-path="url(#p5c35df8979)" d="M 862.613839 768.96 
L 864.855804 768.96 
L 864.855804 634.330146 
L 862.613839 634.330146 
z
" style="fill:#1f77b4;"/>
   </g>
   <g id="patch_160">
    <path clip-path="url(#p5c35df8979)" d="M 867.097768 768.96 
L 869.339732 768.96 
L 869.339732 585.698091 
L 867.097768 585.698091 
z
" style="fill:#1f77b4;"/>
   </g>
   <g id="patch_161">
    <path clip-path="url(#p5c35df8979)" d="M 871.581696 768.96 
L 873.823661 768.96 
L 873.823661 572.779844 
L 871.581696 572.779844 
z
" style="fill:#1f77b4;"/>
   </g>
   <g id="patch_162">
    <path clip-path="url(#p5c35df8979)" d="M 876.065625 768.96 
L 878.307589 768.96 
L 878.307589 536.231494 
L 876.065625 536.231494 
z
" style="fill:#1f77b4;"/>
   </g>
   <g id="patch_163">
    <path clip-path="url(#p5c35df8979)" d="M 880.549554 768.96 
L 882.791518 768.96 
L 882.791518 608.893775 
L 880.549554 608.893775 
z
" style="fill:#1f77b4;"/>
   </g>
   <g id="patch_164">
    <path clip-path="url(#p5c35df8979)" d="M 885.033482 768.96 
L 887.275446 768.96 
L 887.275446 618.931138 
L 885.033482 618.931138 
z
" style="fill:#1f77b4;"/>
   </g>
   <g id="patch_165">
    <path clip-path="url(#p5c35df8979)" d="M 889.517411 768.96 
L 891.759375 768.96 
L 891.759375 678.869518 
L 889.517411 678.869518 
z
" style="fill:#1f77b4;"/>
   </g>
   <g id="patch_166">
    <path clip-path="url(#p5c35df8979)" d="M 894.001339 768.96 
L 896.243304 768.96 
L 896.243304 677.406212 
L 894.001339 677.406212 
z
" style="fill:#1f77b4;"/>
   </g>
   <g id="patch_167">
    <path clip-path="url(#p5c35df8979)" d="M 898.485268 768.96 
L 900.727232 768.96 
L 900.727232 490.303125 
L 898.485268 490.303125 
z
" style="fill:#1f77b4;"/>
   </g>
   <g id="patch_168">
    <path clip-path="url(#p5c35df8979)" d="M 902.969196 768.96 
L 905.211161 768.96 
L 905.211161 562.645308 
L 902.969196 562.645308 
z
" style="fill:#1f77b4;"/>
   </g>
   <g id="patch_169">
    <path clip-path="url(#p5c35df8979)" d="M 907.453125 768.96 
L 909.695089 768.96 
L 909.695089 627.973911 
L 907.453125 627.973911 
z
" style="fill:#1f77b4;"/>
   </g>
   <g id="patch_170">
    <path clip-path="url(#p5c35df8979)" d="M 911.937054 768.96 
L 914.179018 768.96 
L 914.179018 583.131589 
L 911.937054 583.131589 
z
" style="fill:#1f77b4;"/>
   </g>
   <g id="patch_171">
    <path clip-path="url(#p5c35df8979)" d="M 916.420982 768.96 
L 918.662946 768.96 
L 918.662946 679.658331 
L 916.420982 679.658331 
z
" style="fill:#1f77b4;"/>
   </g>
   <g id="patch_172">
    <path clip-path="url(#p5c35df8979)" d="M 920.904911 768.96 
L 923.146875 768.96 
L 923.146875 631.237769 
L 920.904911 631.237769 
z
" style="fill:#1f77b4;"/>
   </g>
   <g id="patch_173">
    <path clip-path="url(#p5c35df8979)" d="M 925.388839 768.96 
L 927.630804 768.96 
L 927.630804 709.610373 
L 925.388839 709.610373 
z
" style="fill:#1f77b4;"/>
   </g>
   <g id="patch_174">
    <path clip-path="url(#p5c35df8979)" d="M 929.872768 768.96 
L 932.114732 768.96 
L 932.114732 696.80073 
L 929.872768 696.80073 
z
" style="fill:#1f77b4;"/>
   </g>
   <g id="patch_175">
    <path clip-path="url(#p5c35df8979)" d="M 934.356696 768.96 
L 936.598661 768.96 
L 936.598661 681.075909 
L 934.356696 681.075909 
z
" style="fill:#1f77b4;"/>
   </g>
   <g id="patch_176">
    <path clip-path="url(#p5c35df8979)" d="M 938.840625 768.96 
L 941.082589 768.96 
L 941.082589 662.138673 
L 938.840625 662.138673 
z
" style="fill:#1f77b4;"/>
   </g>
   <g id="patch_177">
    <path clip-path="url(#p5c35df8979)" d="M 943.324554 768.96 
L 945.566518 768.96 
L 945.566518 639.314532 
L 943.324554 639.314532 
z
" style="fill:#1f77b4;"/>
   </g>
   <g id="patch_178">
    <path clip-path="url(#p5c35df8979)" d="M 947.808482 768.96 
L 950.050446 768.96 
L 950.050446 478.025074 
L 947.808482 478.025074 
z
" style="fill:#1f77b4;"/>
   </g>
   <g id="patch_179">
    <path clip-path="url(#p5c35df8979)" d="M 952.292411 768.96 
L 954.534375 768.96 
L 954.534375 433.056999 
L 952.292411 433.056999 
z
" style="fill:#1f77b4;"/>
   </g>
   <g id="patch_180">
    <path clip-path="url(#p5c35df8979)" d="M 956.776339 768.96 
L 959.018304 768.96 
L 959.018304 739.036539 
L 956.776339 739.036539 
z
" style="fill:#1f77b4;"/>
   </g>
   <g id="patch_181">
    <path clip-path="url(#p5c35df8979)" d="M 961.260268 768.96 
L 963.502232 768.96 
L 963.502232 694.760105 
L 961.260268 694.760105 
z
" style="fill:#1f77b4;"/>
   </g>
   <g id="patch_182">
    <path clip-path="url(#p5c35df8979)" d="M 965.744196 768.96 
L 967.986161 768.96 
L 967.986161 677.652002 
L 965.744196 677.652002 
z
" style="fill:#1f77b4;"/>
   </g>
   <g id="patch_183">
    <path clip-path="url(#p5c35df8979)" d="M 970.228125 768.96 
L 972.470089 768.96 
L 972.470089 680.961588 
L 970.228125 680.961588 
z
" style="fill:#1f77b4;"/>
   </g>
   <g id="patch_184">
    <path clip-path="url(#p5c35df8979)" d="M 974.712054 768.96 
L 976.954018 768.96 
L 976.954018 690.101533 
L 974.712054 690.101533 
z
" style="fill:#1f77b4;"/>
   </g>
   <g id="patch_185">
    <path clip-path="url(#p5c35df8979)" d="M 979.195982 768.96 
L 981.437946 768.96 
L 981.437946 689.895756 
L 979.195982 689.895756 
z
" style="fill:#1f77b4;"/>
   </g>
   <g id="patch_186">
    <path clip-path="url(#p5c35df8979)" d="M 983.679911 768.96 
L 985.921875 768.96 
L 985.921875 709.764706 
L 983.679911 709.764706 
z
" style="fill:#1f77b4;"/>
   </g>
   <g id="patch_187">
    <path clip-path="url(#p5c35df8979)" d="M 988.163839 768.96 
L 990.405804 768.96 
L 990.405804 740.459832 
L 988.163839 740.459832 
z
" style="fill:#1f77b4;"/>
   </g>
   <g id="patch_188">
    <path clip-path="url(#p5c35df8979)" d="M 992.647768 768.96 
L 994.889732 768.96 
L 994.889732 764.187108 
L 992.647768 764.187108 
z
" style="fill:#1f77b4;"/>
   </g>
   <g id="patch_189">
    <path clip-path="url(#p5c35df8979)" d="M 997.131696 768.96 
L 999.373661 768.96 
L 999.373661 723.105939 
L 997.131696 723.105939 
z
" style="fill:#1f77b4;"/>
   </g>
   <g id="patch_190">
    <path clip-path="url(#p5c35df8979)" d="M 1001.615625 768.96 
L 1003.857589 768.96 
L 1003.857589 688.026611 
L 1001.615625 688.026611 
z
" style="fill:#1f77b4;"/>
   </g>
   <g id="patch_191">
    <path clip-path="url(#p5c35df8979)" d="M 1006.099554 768.96 
L 1008.341518 768.96 
L 1008.341518 687.575044 
L 1006.099554 687.575044 
z
" style="fill:#1f77b4;"/>
   </g>
   <g id="patch_192">
    <path clip-path="url(#p5c35df8979)" d="M 1010.583482 768.96 
L 1012.825446 768.96 
L 1012.825446 697.743877 
L 1010.583482 697.743877 
z
" style="fill:#1f77b4;"/>
   </g>
   <g id="patch_193">
    <path clip-path="url(#p5c35df8979)" d="M 1015.067411 768.96 
L 1017.309375 768.96 
L 1017.309375 708.524325 
L 1015.067411 708.524325 
z
" style="fill:#1f77b4;"/>
   </g>
   <g id="patch_194">
    <path clip-path="url(#p5c35df8979)" d="M 1019.551339 768.96 
L 1021.793304 768.96 
L 1021.793304 727.873115 
L 1019.551339 727.873115 
z
" style="fill:#1f77b4;"/>
   </g>
   <g id="patch_195">
    <path clip-path="url(#p5c35df8979)" d="M 1024.035268 768.96 
L 1026.277232 768.96 
L 1026.277232 692.770923 
L 1024.035268 692.770923 
z
" style="fill:#1f77b4;"/>
   </g>
   <g id="patch_196">
    <path clip-path="url(#p5c35df8979)" d="M 1028.519196 768.96 
L 1030.761161 768.96 
L 1030.761161 705.649158 
L 1028.519196 705.649158 
z
" style="fill:#1f77b4;"/>
   </g>
   <g id="patch_197">
    <path clip-path="url(#p5c35df8979)" d="M 1033.003125 768.96 
L 1035.245089 768.96 
L 1035.245089 708.638646 
L 1033.003125 708.638646 
z
" style="fill:#1f77b4;"/>
   </g>
   <g id="patch_198">
    <path clip-path="url(#p5c35df8979)" d="M 1037.487054 768.96 
L 1039.729018 768.96 
L 1039.729018 709.164522 
L 1037.487054 709.164522 
z
" style="fill:#1f77b4;"/>
   </g>
   <g id="patch_199">
    <path clip-path="url(#p5c35df8979)" d="M 1041.970982 768.96 
L 1044.212946 768.96 
L 1044.212946 708.278536 
L 1041.970982 708.278536 
z
" style="fill:#1f77b4;"/>
   </g>
   <g id="patch_200">
    <path clip-path="url(#p5c35df8979)" d="M 1046.454911 768.96 
L 1048.696875 768.96 
L 1048.696875 718.207294 
L 1046.454911 718.207294 
z
" style="fill:#1f77b4;"/>
   </g>
   <g id="patch_201">
    <path clip-path="url(#p5c35df8979)" d="M 1050.938839 768.96 
L 1053.180804 768.96 
L 1053.180804 734.343671 
L 1050.938839 734.343671 
z
" style="fill:#1f77b4;"/>
   </g>
   <g id="patch_202">
    <path clip-path="url(#p5c35df8979)" d="M 1055.422768 768.96 
L 1057.664732 768.96 
L 1057.664732 717.778592 
L 1055.422768 717.778592 
z
" style="fill:#1f77b4;"/>
   </g>
   <g id="patch_203">
    <path clip-path="url(#p5c35df8979)" d="M 1059.906696 768.96 
L 1062.148661 768.96 
L 1062.148661 700.601896 
L 1059.906696 700.601896 
z
" style="fill:#1f77b4;"/>
   </g>
   <g id="patch_204">
    <path clip-path="url(#p5c35df8979)" d="M 1064.390625 768.96 
L 1066.632589 768.96 
L 1066.632589 705.363356 
L 1064.390625 705.363356 
z
" style="fill:#1f77b4;"/>
   </g>
   <g id="patch_205">
    <path clip-path="url(#p5c35df8979)" d="M 1068.874554 768.96 
L 1071.116518 768.96 
L 1071.116518 722.637224 
L 1068.874554 722.637224 
z
" style="fill:#1f77b4;"/>
   </g>
   <g id="patch_206">
    <path clip-path="url(#p5c35df8979)" d="M 1073.358482 768.96 
L 1075.600446 768.96 
L 1075.600446 721.911287 
L 1073.358482 721.911287 
z
" style="fill:#1f77b4;"/>
   </g>
   <g id="patch_207">
    <path clip-path="url(#p5c35df8979)" d="M 1077.842411 768.96 
L 1080.084375 768.96 
L 1080.084375 739.522402 
L 1077.842411 739.522402 
z
" style="fill:#1f77b4;"/>
   </g>
   <g id="patch_208">
    <path clip-path="url(#p5c35df8979)" d="M 1082.326339 768.96 
L 1084.568304 768.96 
L 1084.568304 751.909057 
L 1082.326339 751.909057 
z
" style="fill:#1f77b4;"/>
   </g>
   <g id="patch_209">
    <path clip-path="url(#p5c35df8979)" d="M 1086.810268 768.96 
L 1089.052232 768.96 
L 1089.052232 741.008572 
L 1086.810268 741.008572 
z
" style="fill:#1f77b4;"/>
   </g>
   <g id="patch_210">
    <path clip-path="url(#p5c35df8979)" d="M 1091.294196 768.96 
L 1093.536161 768.96 
L 1093.536161 704.717444 
L 1091.294196 704.717444 
z
" style="fill:#1f77b4;"/>
   </g>
   <g id="patch_211">
    <path clip-path="url(#p5c35df8979)" d="M 1095.778125 768.96 
L 1098.020089 768.96 
L 1098.020089 660.343837 
L 1095.778125 660.343837 
z
" style="fill:#1f77b4;"/>
   </g>
   <g id="patch_212">
    <path clip-path="url(#p5c35df8979)" d="M 1100.262054 768.96 
L 1102.504018 768.96 
L 1102.504018 712.851366 
L 1100.262054 712.851366 
z
" style="fill:#1f77b4;"/>
   </g>
   <g id="patch_213">
    <path clip-path="url(#p5c35df8979)" d="M 1104.745982 768.96 
L 1106.987946 768.96 
L 1106.987946 645.264928 
L 1104.745982 645.264928 
z
" style="fill:#1f77b4;"/>
   </g>
   <g id="patch_214">
    <path clip-path="url(#p5c35df8979)" d="M 1109.229911 768.96 
L 1111.471875 768.96 
L 1111.471875 724.214851 
L 1109.229911 724.214851 
z
" style="fill:#1f77b4;"/>
   </g>
   <g id="patch_215">
    <path clip-path="url(#p5c35df8979)" d="M 1113.713839 768.96 
L 1115.955804 768.96 
L 1115.955804 735.504027 
L 1113.713839 735.504027 
z
" style="fill:#1f77b4;"/>
   </g>
   <g id="patch_216">
    <path clip-path="url(#p5c35df8979)" d="M 1118.197768 768.96 
L 1120.439732 768.96 
L 1120.439732 723.677543 
L 1118.197768 723.677543 
z
" style="fill:#1f77b4;"/>
   </g>
   <g id="patch_217">
    <path clip-path="url(#p5c35df8979)" d="M 1122.681696 768.96 
L 1124.923661 768.96 
L 1124.923661 707.99845 
L 1122.681696 707.99845 
z
" style="fill:#1f77b4;"/>
   </g>
   <g id="patch_218">
    <path clip-path="url(#p5c35df8979)" d="M 1127.165625 768.96 
L 1129.407589 768.96 
L 1129.407589 712.582713 
L 1127.165625 712.582713 
z
" style="fill:#1f77b4;"/>
   </g>
   <g id="patch_219">
    <path clip-path="url(#p5c35df8979)" d="M 1131.649554 768.96 
L 1133.891518 768.96 
L 1133.891518 710.736432 
L 1131.649554 710.736432 
z
" style="fill:#1f77b4;"/>
   </g>
   <g id="patch_220">
    <path clip-path="url(#p5c35df8979)" d="M 1136.133482 768.96 
L 1138.375446 768.96 
L 1138.375446 707.39255 
L 1136.133482 707.39255 
z
" style="fill:#1f77b4;"/>
   </g>
   <g id="patch_221">
    <path clip-path="url(#p5c35df8979)" d="M 1140.617411 768.96 
L 1142.859375 768.96 
L 1142.859375 669.077944 
L 1140.617411 669.077944 
z
" style="fill:#1f77b4;"/>
   </g>
   <g id="patch_222">
    <path clip-path="url(#p5c35df8979)" d="M 1145.101339 768.96 
L 1147.343304 768.96 
L 1147.343304 730.696838 
L 1145.101339 730.696838 
z
" style="fill:#1f77b4;"/>
   </g>
   <g id="patch_223">
    <path clip-path="url(#p5c35df8979)" d="M 1149.585268 768.96 
L 1151.827232 768.96 
L 1151.827232 725.420935 
L 1149.585268 725.420935 
z
" style="fill:#1f77b4;"/>
   </g>
   <g id="patch_224">
    <path clip-path="url(#p5c35df8979)" d="M 1154.069196 768.96 
L 1156.311161 768.96 
L 1156.311161 727.884548 
L 1154.069196 727.884548 
z
" style="fill:#1f77b4;"/>
   </g>
   <g id="patch_225">
    <path clip-path="url(#p5c35df8979)" d="M 1158.553125 768.96 
L 1160.795089 768.96 
L 1160.795089 618.976867 
L 1158.553125 618.976867 
z
" style="fill:#1f77b4;"/>
   </g>
   <g id="patch_226">
    <path clip-path="url(#p5c35df8979)" d="M 1163.037054 768.96 
L 1165.279018 768.96 
L 1165.279018 636.725166 
L 1163.037054 636.725166 
z
" style="fill:#1f77b4;"/>
   </g>
   <g id="matplotlib.axis_1">
    <g id="xtick_1">
     <g id="line2d_1">
      <defs>
       <path d="M 0 0 
L 0 3.5 
" id="m922365649e" style="stroke:#000000;stroke-width:0.8;"/>
      </defs>
      <g>
       <use style="stroke:#000000;stroke-width:0.8;" x="164.241964" xlink:href="#m922365649e" y="768.96"/>
      </g>
     </g>
     <g id="text_1">
      <!-- January -->
      <g transform="translate(145.286496 783.558437)scale(0.1 -0.1)">
       <defs>
        <path d="M 628 4666 
L 1259 4666 
L 1259 325 
Q 1259 -519 939 -900 
Q 619 -1281 -91 -1281 
L -331 -1281 
L -331 -750 
L -134 -750 
Q 284 -750 456 -515 
Q 628 -281 628 325 
L 628 4666 
z
" id="DejaVuSans-4a" transform="scale(0.015625)"/>
        <path d="M 2194 1759 
Q 1497 1759 1228 1600 
Q 959 1441 959 1056 
Q 959 750 1161 570 
Q 1363 391 1709 391 
Q 2188 391 2477 730 
Q 2766 1069 2766 1631 
L 2766 1759 
L 2194 1759 
z
M 3341 1997 
L 3341 0 
L 2766 0 
L 2766 531 
Q 2569 213 2275 61 
Q 1981 -91 1556 -91 
Q 1019 -91 701 211 
Q 384 513 384 1019 
Q 384 1609 779 1909 
Q 1175 2209 1959 2209 
L 2766 2209 
L 2766 2266 
Q 2766 2663 2505 2880 
Q 2244 3097 1772 3097 
Q 1472 3097 1187 3025 
Q 903 2953 641 2809 
L 641 3341 
Q 956 3463 1253 3523 
Q 1550 3584 1831 3584 
Q 2591 3584 2966 3190 
Q 3341 2797 3341 1997 
z
" id="DejaVuSans-61" transform="scale(0.015625)"/>
        <path d="M 3513 2113 
L 3513 0 
L 2938 0 
L 2938 2094 
Q 2938 2591 2744 2837 
Q 2550 3084 2163 3084 
Q 1697 3084 1428 2787 
Q 1159 2491 1159 1978 
L 1159 0 
L 581 0 
L 581 3500 
L 1159 3500 
L 1159 2956 
Q 1366 3272 1645 3428 
Q 1925 3584 2291 3584 
Q 2894 3584 3203 3211 
Q 3513 2838 3513 2113 
z
" id="DejaVuSans-6e" transform="scale(0.015625)"/>
        <path d="M 544 1381 
L 544 3500 
L 1119 3500 
L 1119 1403 
Q 1119 906 1312 657 
Q 1506 409 1894 409 
Q 2359 409 2629 706 
Q 2900 1003 2900 1516 
L 2900 3500 
L 3475 3500 
L 3475 0 
L 2900 0 
L 2900 538 
Q 2691 219 2414 64 
Q 2138 -91 1772 -91 
Q 1169 -91 856 284 
Q 544 659 544 1381 
z
M 1991 3584 
L 1991 3584 
z
" id="DejaVuSans-75" transform="scale(0.015625)"/>
        <path d="M 2631 2963 
Q 2534 3019 2420 3045 
Q 2306 3072 2169 3072 
Q 1681 3072 1420 2755 
Q 1159 2438 1159 1844 
L 1159 0 
L 581 0 
L 581 3500 
L 1159 3500 
L 1159 2956 
Q 1341 3275 1631 3429 
Q 1922 3584 2338 3584 
Q 2397 3584 2469 3576 
Q 2541 3569 2628 3553 
L 2631 2963 
z
" id="DejaVuSans-72" transform="scale(0.015625)"/>
        <path d="M 2059 -325 
Q 1816 -950 1584 -1140 
Q 1353 -1331 966 -1331 
L 506 -1331 
L 506 -850 
L 844 -850 
Q 1081 -850 1212 -737 
Q 1344 -625 1503 -206 
L 1606 56 
L 191 3500 
L 800 3500 
L 1894 763 
L 2988 3500 
L 3597 3500 
L 2059 -325 
z
" id="DejaVuSans-79" transform="scale(0.015625)"/>
       </defs>
       <use xlink:href="#DejaVuSans-4a"/>
       <use x="29.492188" xlink:href="#DejaVuSans-61"/>
       <use x="90.771484" xlink:href="#DejaVuSans-6e"/>
       <use x="154.150391" xlink:href="#DejaVuSans-75"/>
       <use x="217.529297" xlink:href="#DejaVuSans-61"/>
       <use x="278.808594" xlink:href="#DejaVuSans-72"/>
       <use x="319.921875" xlink:href="#DejaVuSans-79"/>
      </g>
     </g>
    </g>
    <g id="xtick_2">
     <g id="line2d_2">
      <g>
       <use style="stroke:#000000;stroke-width:0.8;" x="303.24375" xlink:href="#m922365649e" y="768.96"/>
      </g>
     </g>
     <g id="text_2">
      <!-- February -->
      <g transform="translate(281.089062 783.558437)scale(0.1 -0.1)">
       <defs>
        <path d="M 628 4666 
L 3309 4666 
L 3309 4134 
L 1259 4134 
L 1259 2759 
L 3109 2759 
L 3109 2228 
L 1259 2228 
L 1259 0 
L 628 0 
L 628 4666 
z
" id="DejaVuSans-46" transform="scale(0.015625)"/>
        <path d="M 3597 1894 
L 3597 1613 
L 953 1613 
Q 991 1019 1311 708 
Q 1631 397 2203 397 
Q 2534 397 2845 478 
Q 3156 559 3463 722 
L 3463 178 
Q 3153 47 2828 -22 
Q 2503 -91 2169 -91 
Q 1331 -91 842 396 
Q 353 884 353 1716 
Q 353 2575 817 3079 
Q 1281 3584 2069 3584 
Q 2775 3584 3186 3129 
Q 3597 2675 3597 1894 
z
M 3022 2063 
Q 3016 2534 2758 2815 
Q 2500 3097 2075 3097 
Q 1594 3097 1305 2825 
Q 1016 2553 972 2059 
L 3022 2063 
z
" id="DejaVuSans-65" transform="scale(0.015625)"/>
        <path d="M 3116 1747 
Q 3116 2381 2855 2742 
Q 2594 3103 2138 3103 
Q 1681 3103 1420 2742 
Q 1159 2381 1159 1747 
Q 1159 1113 1420 752 
Q 1681 391 2138 391 
Q 2594 391 2855 752 
Q 3116 1113 3116 1747 
z
M 1159 2969 
Q 1341 3281 1617 3432 
Q 1894 3584 2278 3584 
Q 2916 3584 3314 3078 
Q 3713 2572 3713 1747 
Q 3713 922 3314 415 
Q 2916 -91 2278 -91 
Q 1894 -91 1617 61 
Q 1341 213 1159 525 
L 1159 0 
L 581 0 
L 581 4863 
L 1159 4863 
L 1159 2969 
z
" id="DejaVuSans-62" transform="scale(0.015625)"/>
       </defs>
       <use xlink:href="#DejaVuSans-46"/>
       <use x="52.019531" xlink:href="#DejaVuSans-65"/>
       <use x="113.542969" xlink:href="#DejaVuSans-62"/>
       <use x="177.019531" xlink:href="#DejaVuSans-72"/>
       <use x="218.132812" xlink:href="#DejaVuSans-75"/>
       <use x="281.511719" xlink:href="#DejaVuSans-61"/>
       <use x="342.791016" xlink:href="#DejaVuSans-72"/>
       <use x="383.904297" xlink:href="#DejaVuSans-79"/>
      </g>
     </g>
    </g>
    <g id="xtick_3">
     <g id="line2d_3">
      <g>
       <use style="stroke:#000000;stroke-width:0.8;" x="428.79375" xlink:href="#m922365649e" y="768.96"/>
      </g>
     </g>
     <g id="text_3">
      <!-- March -->
      <g transform="translate(413.554688 783.558437)scale(0.1 -0.1)">
       <defs>
        <path d="M 628 4666 
L 1569 4666 
L 2759 1491 
L 3956 4666 
L 4897 4666 
L 4897 0 
L 4281 0 
L 4281 4097 
L 3078 897 
L 2444 897 
L 1241 4097 
L 1241 0 
L 628 0 
L 628 4666 
z
" id="DejaVuSans-4d" transform="scale(0.015625)"/>
        <path d="M 3122 3366 
L 3122 2828 
Q 2878 2963 2633 3030 
Q 2388 3097 2138 3097 
Q 1578 3097 1268 2742 
Q 959 2388 959 1747 
Q 959 1106 1268 751 
Q 1578 397 2138 397 
Q 2388 397 2633 464 
Q 2878 531 3122 666 
L 3122 134 
Q 2881 22 2623 -34 
Q 2366 -91 2075 -91 
Q 1284 -91 818 406 
Q 353 903 353 1747 
Q 353 2603 823 3093 
Q 1294 3584 2113 3584 
Q 2378 3584 2631 3529 
Q 2884 3475 3122 3366 
z
" id="DejaVuSans-63" transform="scale(0.015625)"/>
        <path d="M 3513 2113 
L 3513 0 
L 2938 0 
L 2938 2094 
Q 2938 2591 2744 2837 
Q 2550 3084 2163 3084 
Q 1697 3084 1428 2787 
Q 1159 2491 1159 1978 
L 1159 0 
L 581 0 
L 581 4863 
L 1159 4863 
L 1159 2956 
Q 1366 3272 1645 3428 
Q 1925 3584 2291 3584 
Q 2894 3584 3203 3211 
Q 3513 2838 3513 2113 
z
" id="DejaVuSans-68" transform="scale(0.015625)"/>
       </defs>
       <use xlink:href="#DejaVuSans-4d"/>
       <use x="86.279297" xlink:href="#DejaVuSans-61"/>
       <use x="147.558594" xlink:href="#DejaVuSans-72"/>
       <use x="186.421875" xlink:href="#DejaVuSans-63"/>
       <use x="241.402344" xlink:href="#DejaVuSans-68"/>
      </g>
     </g>
    </g>
    <g id="xtick_4">
     <g id="line2d_4">
      <g>
       <use style="stroke:#000000;stroke-width:0.8;" x="567.795536" xlink:href="#m922365649e" y="768.96"/>
      </g>
     </g>
     <g id="text_4">
      <!-- April -->
      <g transform="translate(556.367411 783.558437)scale(0.1 -0.1)">
       <defs>
        <path d="M 2188 4044 
L 1331 1722 
L 3047 1722 
L 2188 4044 
z
M 1831 4666 
L 2547 4666 
L 4325 0 
L 3669 0 
L 3244 1197 
L 1141 1197 
L 716 0 
L 50 0 
L 1831 4666 
z
" id="DejaVuSans-41" transform="scale(0.015625)"/>
        <path d="M 1159 525 
L 1159 -1331 
L 581 -1331 
L 581 3500 
L 1159 3500 
L 1159 2969 
Q 1341 3281 1617 3432 
Q 1894 3584 2278 3584 
Q 2916 3584 3314 3078 
Q 3713 2572 3713 1747 
Q 3713 922 3314 415 
Q 2916 -91 2278 -91 
Q 1894 -91 1617 61 
Q 1341 213 1159 525 
z
M 3116 1747 
Q 3116 2381 2855 2742 
Q 2594 3103 2138 3103 
Q 1681 3103 1420 2742 
Q 1159 2381 1159 1747 
Q 1159 1113 1420 752 
Q 1681 391 2138 391 
Q 2594 391 2855 752 
Q 3116 1113 3116 1747 
z
" id="DejaVuSans-70" transform="scale(0.015625)"/>
        <path d="M 603 3500 
L 1178 3500 
L 1178 0 
L 603 0 
L 603 3500 
z
M 603 4863 
L 1178 4863 
L 1178 4134 
L 603 4134 
L 603 4863 
z
" id="DejaVuSans-69" transform="scale(0.015625)"/>
        <path d="M 603 4863 
L 1178 4863 
L 1178 0 
L 603 0 
L 603 4863 
z
" id="DejaVuSans-6c" transform="scale(0.015625)"/>
       </defs>
       <use xlink:href="#DejaVuSans-41"/>
       <use x="68.408203" xlink:href="#DejaVuSans-70"/>
       <use x="131.884766" xlink:href="#DejaVuSans-72"/>
       <use x="172.998047" xlink:href="#DejaVuSans-69"/>
       <use x="200.78125" xlink:href="#DejaVuSans-6c"/>
      </g>
     </g>
    </g>
    <g id="xtick_5">
     <g id="line2d_5">
      <g>
       <use style="stroke:#000000;stroke-width:0.8;" x="702.313393" xlink:href="#m922365649e" y="768.96"/>
      </g>
     </g>
     <g id="text_5">
      <!-- May -->
      <g transform="translate(691.975893 783.558437)scale(0.1 -0.1)">
       <use xlink:href="#DejaVuSans-4d"/>
       <use x="86.279297" xlink:href="#DejaVuSans-61"/>
       <use x="147.558594" xlink:href="#DejaVuSans-79"/>
      </g>
     </g>
    </g>
    <g id="xtick_6">
     <g id="line2d_6">
      <g>
       <use style="stroke:#000000;stroke-width:0.8;" x="841.315179" xlink:href="#m922365649e" y="768.96"/>
      </g>
     </g>
     <g id="text_6">
      <!-- June -->
      <g transform="translate(830.426116 783.558437)scale(0.1 -0.1)">
       <use xlink:href="#DejaVuSans-4a"/>
       <use x="29.492188" xlink:href="#DejaVuSans-75"/>
       <use x="92.871094" xlink:href="#DejaVuSans-6e"/>
       <use x="156.25" xlink:href="#DejaVuSans-65"/>
      </g>
     </g>
    </g>
    <g id="xtick_7">
     <g id="line2d_7">
      <g>
       <use style="stroke:#000000;stroke-width:0.8;" x="975.833036" xlink:href="#m922365649e" y="768.96"/>
      </g>
     </g>
     <g id="text_7">
      <!-- July -->
      <g transform="translate(966.840848 783.558437)scale(0.1 -0.1)">
       <use xlink:href="#DejaVuSans-4a"/>
       <use x="29.492188" xlink:href="#DejaVuSans-75"/>
       <use x="92.871094" xlink:href="#DejaVuSans-6c"/>
       <use x="120.654297" xlink:href="#DejaVuSans-79"/>
      </g>
     </g>
    </g>
    <g id="xtick_8">
     <g id="line2d_8">
      <g>
       <use style="stroke:#000000;stroke-width:0.8;" x="1114.834821" xlink:href="#m922365649e" y="768.96"/>
      </g>
     </g>
     <g id="text_8">
      <!-- August -->
      <g transform="translate(1097.337946 783.558437)scale(0.1 -0.1)">
       <defs>
        <path d="M 2906 1791 
Q 2906 2416 2648 2759 
Q 2391 3103 1925 3103 
Q 1463 3103 1205 2759 
Q 947 2416 947 1791 
Q 947 1169 1205 825 
Q 1463 481 1925 481 
Q 2391 481 2648 825 
Q 2906 1169 2906 1791 
z
M 3481 434 
Q 3481 -459 3084 -895 
Q 2688 -1331 1869 -1331 
Q 1566 -1331 1297 -1286 
Q 1028 -1241 775 -1147 
L 775 -588 
Q 1028 -725 1275 -790 
Q 1522 -856 1778 -856 
Q 2344 -856 2625 -561 
Q 2906 -266 2906 331 
L 2906 616 
Q 2728 306 2450 153 
Q 2172 0 1784 0 
Q 1141 0 747 490 
Q 353 981 353 1791 
Q 353 2603 747 3093 
Q 1141 3584 1784 3584 
Q 2172 3584 2450 3431 
Q 2728 3278 2906 2969 
L 2906 3500 
L 3481 3500 
L 3481 434 
z
" id="DejaVuSans-67" transform="scale(0.015625)"/>
        <path d="M 2834 3397 
L 2834 2853 
Q 2591 2978 2328 3040 
Q 2066 3103 1784 3103 
Q 1356 3103 1142 2972 
Q 928 2841 928 2578 
Q 928 2378 1081 2264 
Q 1234 2150 1697 2047 
L 1894 2003 
Q 2506 1872 2764 1633 
Q 3022 1394 3022 966 
Q 3022 478 2636 193 
Q 2250 -91 1575 -91 
Q 1294 -91 989 -36 
Q 684 19 347 128 
L 347 722 
Q 666 556 975 473 
Q 1284 391 1588 391 
Q 1994 391 2212 530 
Q 2431 669 2431 922 
Q 2431 1156 2273 1281 
Q 2116 1406 1581 1522 
L 1381 1569 
Q 847 1681 609 1914 
Q 372 2147 372 2553 
Q 372 3047 722 3315 
Q 1072 3584 1716 3584 
Q 2034 3584 2315 3537 
Q 2597 3491 2834 3397 
z
" id="DejaVuSans-73" transform="scale(0.015625)"/>
        <path d="M 1172 4494 
L 1172 3500 
L 2356 3500 
L 2356 3053 
L 1172 3053 
L 1172 1153 
Q 1172 725 1289 603 
Q 1406 481 1766 481 
L 2356 481 
L 2356 0 
L 1766 0 
Q 1100 0 847 248 
Q 594 497 594 1153 
L 594 3053 
L 172 3053 
L 172 3500 
L 594 3500 
L 594 4494 
L 1172 4494 
z
" id="DejaVuSans-74" transform="scale(0.015625)"/>
       </defs>
       <use xlink:href="#DejaVuSans-41"/>
       <use x="68.408203" xlink:href="#DejaVuSans-75"/>
       <use x="131.787109" xlink:href="#DejaVuSans-67"/>
       <use x="195.263672" xlink:href="#DejaVuSans-75"/>
       <use x="258.642578" xlink:href="#DejaVuSans-73"/>
       <use x="310.742188" xlink:href="#DejaVuSans-74"/>
      </g>
     </g>
    </g>
   </g>
   <g id="matplotlib.axis_2">
    <g id="ytick_1">
     <g id="line2d_9">
      <defs>
       <path d="M 0 0 
L -3.5 0 
" id="m66878931a4" style="stroke:#000000;stroke-width:0.8;"/>
      </defs>
      <g>
       <use style="stroke:#000000;stroke-width:0.8;" x="162" xlink:href="#m66878931a4" y="768.96"/>
      </g>
     </g>
     <g id="text_9">
      <!-- 0 -->
      <g transform="translate(148.6375 772.759219)scale(0.1 -0.1)">
       <defs>
        <path d="M 2034 4250 
Q 1547 4250 1301 3770 
Q 1056 3291 1056 2328 
Q 1056 1369 1301 889 
Q 1547 409 2034 409 
Q 2525 409 2770 889 
Q 3016 1369 3016 2328 
Q 3016 3291 2770 3770 
Q 2525 4250 2034 4250 
z
M 2034 4750 
Q 2819 4750 3233 4129 
Q 3647 3509 3647 2328 
Q 3647 1150 3233 529 
Q 2819 -91 2034 -91 
Q 1250 -91 836 529 
Q 422 1150 422 2328 
Q 422 3509 836 4129 
Q 1250 4750 2034 4750 
z
" id="DejaVuSans-30" transform="scale(0.015625)"/>
       </defs>
       <use xlink:href="#DejaVuSans-30"/>
      </g>
     </g>
    </g>
    <g id="ytick_2">
     <g id="line2d_10">
      <g>
       <use style="stroke:#000000;stroke-width:0.8;" x="162" xlink:href="#m66878931a4" y="654.639231"/>
      </g>
     </g>
     <g id="text_10">
      <!-- 20000 -->
      <g transform="translate(123.1875 658.438449)scale(0.1 -0.1)">
       <defs>
        <path d="M 1228 531 
L 3431 531 
L 3431 0 
L 469 0 
L 469 531 
Q 828 903 1448 1529 
Q 2069 2156 2228 2338 
Q 2531 2678 2651 2914 
Q 2772 3150 2772 3378 
Q 2772 3750 2511 3984 
Q 2250 4219 1831 4219 
Q 1534 4219 1204 4116 
Q 875 4013 500 3803 
L 500 4441 
Q 881 4594 1212 4672 
Q 1544 4750 1819 4750 
Q 2544 4750 2975 4387 
Q 3406 4025 3406 3419 
Q 3406 3131 3298 2873 
Q 3191 2616 2906 2266 
Q 2828 2175 2409 1742 
Q 1991 1309 1228 531 
z
" id="DejaVuSans-32" transform="scale(0.015625)"/>
       </defs>
       <use xlink:href="#DejaVuSans-32"/>
       <use x="63.623047" xlink:href="#DejaVuSans-30"/>
       <use x="127.246094" xlink:href="#DejaVuSans-30"/>
       <use x="190.869141" xlink:href="#DejaVuSans-30"/>
       <use x="254.492188" xlink:href="#DejaVuSans-30"/>
      </g>
     </g>
    </g>
    <g id="ytick_3">
     <g id="line2d_11">
      <g>
       <use style="stroke:#000000;stroke-width:0.8;" x="162" xlink:href="#m66878931a4" y="540.318461"/>
      </g>
     </g>
     <g id="text_11">
      <!-- 40000 -->
      <g transform="translate(123.1875 544.11768)scale(0.1 -0.1)">
       <defs>
        <path d="M 2419 4116 
L 825 1625 
L 2419 1625 
L 2419 4116 
z
M 2253 4666 
L 3047 4666 
L 3047 1625 
L 3713 1625 
L 3713 1100 
L 3047 1100 
L 3047 0 
L 2419 0 
L 2419 1100 
L 313 1100 
L 313 1709 
L 2253 4666 
z
" id="DejaVuSans-34" transform="scale(0.015625)"/>
       </defs>
       <use xlink:href="#DejaVuSans-34"/>
       <use x="63.623047" xlink:href="#DejaVuSans-30"/>
       <use x="127.246094" xlink:href="#DejaVuSans-30"/>
       <use x="190.869141" xlink:href="#DejaVuSans-30"/>
       <use x="254.492188" xlink:href="#DejaVuSans-30"/>
      </g>
     </g>
    </g>
    <g id="ytick_4">
     <g id="line2d_12">
      <g>
       <use style="stroke:#000000;stroke-width:0.8;" x="162" xlink:href="#m66878931a4" y="425.997692"/>
      </g>
     </g>
     <g id="text_12">
      <!-- 60000 -->
      <g transform="translate(123.1875 429.796911)scale(0.1 -0.1)">
       <defs>
        <path d="M 2113 2584 
Q 1688 2584 1439 2293 
Q 1191 2003 1191 1497 
Q 1191 994 1439 701 
Q 1688 409 2113 409 
Q 2538 409 2786 701 
Q 3034 994 3034 1497 
Q 3034 2003 2786 2293 
Q 2538 2584 2113 2584 
z
M 3366 4563 
L 3366 3988 
Q 3128 4100 2886 4159 
Q 2644 4219 2406 4219 
Q 1781 4219 1451 3797 
Q 1122 3375 1075 2522 
Q 1259 2794 1537 2939 
Q 1816 3084 2150 3084 
Q 2853 3084 3261 2657 
Q 3669 2231 3669 1497 
Q 3669 778 3244 343 
Q 2819 -91 2113 -91 
Q 1303 -91 875 529 
Q 447 1150 447 2328 
Q 447 3434 972 4092 
Q 1497 4750 2381 4750 
Q 2619 4750 2861 4703 
Q 3103 4656 3366 4563 
z
" id="DejaVuSans-36" transform="scale(0.015625)"/>
       </defs>
       <use xlink:href="#DejaVuSans-36"/>
       <use x="63.623047" xlink:href="#DejaVuSans-30"/>
       <use x="127.246094" xlink:href="#DejaVuSans-30"/>
       <use x="190.869141" xlink:href="#DejaVuSans-30"/>
       <use x="254.492188" xlink:href="#DejaVuSans-30"/>
      </g>
     </g>
    </g>
    <g id="ytick_5">
     <g id="line2d_13">
      <g>
       <use style="stroke:#000000;stroke-width:0.8;" x="162" xlink:href="#m66878931a4" y="311.676923"/>
      </g>
     </g>
     <g id="text_13">
      <!-- 80000 -->
      <g transform="translate(123.1875 315.476141)scale(0.1 -0.1)">
       <defs>
        <path d="M 2034 2216 
Q 1584 2216 1326 1975 
Q 1069 1734 1069 1313 
Q 1069 891 1326 650 
Q 1584 409 2034 409 
Q 2484 409 2743 651 
Q 3003 894 3003 1313 
Q 3003 1734 2745 1975 
Q 2488 2216 2034 2216 
z
M 1403 2484 
Q 997 2584 770 2862 
Q 544 3141 544 3541 
Q 544 4100 942 4425 
Q 1341 4750 2034 4750 
Q 2731 4750 3128 4425 
Q 3525 4100 3525 3541 
Q 3525 3141 3298 2862 
Q 3072 2584 2669 2484 
Q 3125 2378 3379 2068 
Q 3634 1759 3634 1313 
Q 3634 634 3220 271 
Q 2806 -91 2034 -91 
Q 1263 -91 848 271 
Q 434 634 434 1313 
Q 434 1759 690 2068 
Q 947 2378 1403 2484 
z
M 1172 3481 
Q 1172 3119 1398 2916 
Q 1625 2713 2034 2713 
Q 2441 2713 2670 2916 
Q 2900 3119 2900 3481 
Q 2900 3844 2670 4047 
Q 2441 4250 2034 4250 
Q 1625 4250 1398 4047 
Q 1172 3844 1172 3481 
z
" id="DejaVuSans-38" transform="scale(0.015625)"/>
       </defs>
       <use xlink:href="#DejaVuSans-38"/>
       <use x="63.623047" xlink:href="#DejaVuSans-30"/>
       <use x="127.246094" xlink:href="#DejaVuSans-30"/>
       <use x="190.869141" xlink:href="#DejaVuSans-30"/>
       <use x="254.492188" xlink:href="#DejaVuSans-30"/>
      </g>
     </g>
    </g>
    <g id="ytick_6">
     <g id="line2d_14">
      <g>
       <use style="stroke:#000000;stroke-width:0.8;" x="162" xlink:href="#m66878931a4" y="197.356153"/>
      </g>
     </g>
     <g id="text_14">
      <!-- 100000 -->
      <g transform="translate(116.825 201.155372)scale(0.1 -0.1)">
       <defs>
        <path d="M 794 531 
L 1825 531 
L 1825 4091 
L 703 3866 
L 703 4441 
L 1819 4666 
L 2450 4666 
L 2450 531 
L 3481 531 
L 3481 0 
L 794 0 
L 794 531 
z
" id="DejaVuSans-31" transform="scale(0.015625)"/>
       </defs>
       <use xlink:href="#DejaVuSans-31"/>
       <use x="63.623047" xlink:href="#DejaVuSans-30"/>
       <use x="127.246094" xlink:href="#DejaVuSans-30"/>
       <use x="190.869141" xlink:href="#DejaVuSans-30"/>
       <use x="254.492188" xlink:href="#DejaVuSans-30"/>
       <use x="318.115234" xlink:href="#DejaVuSans-30"/>
      </g>
     </g>
    </g>
    <g id="text_15">
     <!-- Persons fully vaccinated -->
     <g transform="translate(110.745312 496.922344)rotate(-90)scale(0.1 -0.1)">
      <defs>
       <path d="M 1259 4147 
L 1259 2394 
L 2053 2394 
Q 2494 2394 2734 2622 
Q 2975 2850 2975 3272 
Q 2975 3691 2734 3919 
Q 2494 4147 2053 4147 
L 1259 4147 
z
M 628 4666 
L 2053 4666 
Q 2838 4666 3239 4311 
Q 3641 3956 3641 3272 
Q 3641 2581 3239 2228 
Q 2838 1875 2053 1875 
L 1259 1875 
L 1259 0 
L 628 0 
L 628 4666 
z
" id="DejaVuSans-50" transform="scale(0.015625)"/>
       <path d="M 1959 3097 
Q 1497 3097 1228 2736 
Q 959 2375 959 1747 
Q 959 1119 1226 758 
Q 1494 397 1959 397 
Q 2419 397 2687 759 
Q 2956 1122 2956 1747 
Q 2956 2369 2687 2733 
Q 2419 3097 1959 3097 
z
M 1959 3584 
Q 2709 3584 3137 3096 
Q 3566 2609 3566 1747 
Q 3566 888 3137 398 
Q 2709 -91 1959 -91 
Q 1206 -91 779 398 
Q 353 888 353 1747 
Q 353 2609 779 3096 
Q 1206 3584 1959 3584 
z
" id="DejaVuSans-6f" transform="scale(0.015625)"/>
       <path id="DejaVuSans-20" transform="scale(0.015625)"/>
       <path d="M 2375 4863 
L 2375 4384 
L 1825 4384 
Q 1516 4384 1395 4259 
Q 1275 4134 1275 3809 
L 1275 3500 
L 2222 3500 
L 2222 3053 
L 1275 3053 
L 1275 0 
L 697 0 
L 697 3053 
L 147 3053 
L 147 3500 
L 697 3500 
L 697 3744 
Q 697 4328 969 4595 
Q 1241 4863 1831 4863 
L 2375 4863 
z
" id="DejaVuSans-66" transform="scale(0.015625)"/>
       <path d="M 191 3500 
L 800 3500 
L 1894 563 
L 2988 3500 
L 3597 3500 
L 2284 0 
L 1503 0 
L 191 3500 
z
" id="DejaVuSans-76" transform="scale(0.015625)"/>
       <path d="M 2906 2969 
L 2906 4863 
L 3481 4863 
L 3481 0 
L 2906 0 
L 2906 525 
Q 2725 213 2448 61 
Q 2172 -91 1784 -91 
Q 1150 -91 751 415 
Q 353 922 353 1747 
Q 353 2572 751 3078 
Q 1150 3584 1784 3584 
Q 2172 3584 2448 3432 
Q 2725 3281 2906 2969 
z
M 947 1747 
Q 947 1113 1208 752 
Q 1469 391 1925 391 
Q 2381 391 2643 752 
Q 2906 1113 2906 1747 
Q 2906 2381 2643 2742 
Q 2381 3103 1925 3103 
Q 1469 3103 1208 2742 
Q 947 2381 947 1747 
z
" id="DejaVuSans-64" transform="scale(0.015625)"/>
      </defs>
      <use xlink:href="#DejaVuSans-50"/>
      <use x="56.677734" xlink:href="#DejaVuSans-65"/>
      <use x="118.201172" xlink:href="#DejaVuSans-72"/>
      <use x="159.314453" xlink:href="#DejaVuSans-73"/>
      <use x="211.414062" xlink:href="#DejaVuSans-6f"/>
      <use x="272.595703" xlink:href="#DejaVuSans-6e"/>
      <use x="335.974609" xlink:href="#DejaVuSans-73"/>
      <use x="388.074219" xlink:href="#DejaVuSans-20"/>
      <use x="419.861328" xlink:href="#DejaVuSans-66"/>
      <use x="455.066406" xlink:href="#DejaVuSans-75"/>
      <use x="518.445312" xlink:href="#DejaVuSans-6c"/>
      <use x="546.228516" xlink:href="#DejaVuSans-6c"/>
      <use x="574.011719" xlink:href="#DejaVuSans-79"/>
      <use x="633.191406" xlink:href="#DejaVuSans-20"/>
      <use x="664.978516" xlink:href="#DejaVuSans-76"/>
      <use x="724.158203" xlink:href="#DejaVuSans-61"/>
      <use x="785.4375" xlink:href="#DejaVuSans-63"/>
      <use x="840.417969" xlink:href="#DejaVuSans-63"/>
      <use x="895.398438" xlink:href="#DejaVuSans-69"/>
      <use x="923.181641" xlink:href="#DejaVuSans-6e"/>
      <use x="986.560547" xlink:href="#DejaVuSans-61"/>
      <use x="1047.839844" xlink:href="#DejaVuSans-74"/>
      <use x="1087.048828" xlink:href="#DejaVuSans-65"/>
      <use x="1148.572266" xlink:href="#DejaVuSans-64"/>
     </g>
    </g>
   </g>
   <g id="line2d_15">
    <path clip-path="url(#p5c35df8979)" d="M 240.46875 744.736246 
L 244.952679 744.588445 
L 249.436607 745.869654 
L 253.920536 742.547003 
L 258.404464 741.773704 
L 262.888393 739.798405 
L 267.372321 735.682041 
L 271.85625 727.798807 
L 276.340179 719.410929 
L 280.824107 713.280069 
L 285.308036 706.71969 
L 289.791964 702.369785 
L 294.275893 701.38336 
L 298.759821 701.253524 
L 303.24375 698.673958 
L 307.727679 703.677125 
L 312.211607 703.370092 
L 316.695536 703.86902 
L 321.179464 700.516972 
L 325.663393 700.760312 
L 330.147321 696.811346 
L 334.63125 697.59281 
L 339.115179 691.894736 
L 343.599107 682.161956 
L 348.083036 673.075088 
L 352.566964 670.182772 
L 357.050893 666.672308 
L 361.534821 670.579629 
L 366.01875 670.859715 
L 370.502679 665.634439 
L 374.986607 660.681083 
L 379.470536 654.395074 
L 383.954464 661.657709 
L 388.438393 648.662704 
L 392.922321 640.129475 
L 397.40625 630.879292 
L 401.890179 609.248986 
L 406.374107 593.789551 
L 410.858036 581.224066 
L 415.341964 551.753805 
L 419.825893 554.531799 
L 424.309821 544.684698 
L 428.79375 534.372965 
L 433.277679 539.651318 
L 437.761607 528.104104 
L 442.245536 514.080212 
L 446.729464 507.247912 
L 451.213393 511.297317 
L 455.697321 501.96221 
L 460.18125 490.969451 
L 464.665179 480.830832 
L 469.149107 484.139602 
L 473.633036 478.083051 
L 478.116964 481.85237 
L 482.600893 456.511538 
L 487.084821 457.373027 
L 491.56875 463.512869 
L 496.052679 478.075702 
L 500.536607 491.964859 
L 505.020536 511.223825 
L 509.504464 524.094711 
L 513.988393 548.769216 
L 518.472321 560.954177 
L 522.95625 572.750447 
L 527.440179 579.389217 
L 531.924107 583.247543 
L 536.408036 579.872631 
L 540.891964 567.044207 
L 545.375893 565.584168 
L 549.859821 563.983677 
L 554.34375 548.308666 
L 558.827679 539.710928 
L 563.311607 525.131764 
L 567.795536 518.500342 
L 572.279464 517.2175 
L 576.763393 521.40409 
L 581.247321 507.608023 
L 585.73125 491.64966 
L 590.215179 463.336488 
L 594.699107 436.685867 
L 599.183036 395.934596 
L 603.666964 372.922642 
L 608.150893 353.348476 
L 612.634821 339.310702 
L 617.11875 334.420223 
L 621.602679 344.696027 
L 626.086607 347.954986 
L 630.570536 366.979595 
L 635.054464 378.000117 
L 639.538393 379.256012 
L 644.022321 388.534776 
L 648.50625 383.329915 
L 652.990179 376.384928 
L 657.474107 384.728711 
L 661.958036 396.361666 
L 666.441964 406.678298 
L 670.925893 418.288389 
L 675.409821 422.850604 
L 679.89375 437.877253 
L 684.377679 442.996374 
L 688.861607 453.363634 
L 693.345536 467.897887 
L 697.829464 487.612504 
L 702.313393 498.026309 
L 706.797321 512.981099 
L 711.28125 507.203817 
L 715.765179 505.235867 
L 720.249107 515.718265 
L 724.733036 497.321603 
L 729.216964 474.549723 
L 733.700893 442.830609 
L 738.184821 432.02403 
L 742.66875 446.03649 
L 747.152679 463.16909 
L 751.636607 464.663426 
L 756.120536 468.543799 
L 760.604464 478.490523 
L 765.088393 503.32916 
L 769.572321 512.912507 
L 774.05625 513.867902 
L 778.540179 515.421031 
L 783.024107 502.403978 
L 787.508036 526.889854 
L 791.991964 532.05307 
L 796.475893 532.890061 
L 800.959821 534.679181 
L 805.44375 551.915487 
L 809.927679 563.884871 
L 814.411607 590.470166 
L 818.895536 600.227444 
L 823.379464 611.21367 
L 827.863393 614.585316 
L 832.347321 628.622273 
L 836.83125 638.965853 
L 841.315179 648.870931 
L 845.799107 649.952896 
L 850.283036 645.39558 
L 859.250893 626.524487 
L 863.734821 607.649312 
L 868.21875 595.213662 
L 872.702679 578.449337 
L 877.186607 582.318279 
L 881.670536 591.038504 
L 886.154464 605.104858 
L 890.638393 611.258582 
L 895.122321 597.630729 
L 899.60625 596.182938 
L 904.090179 609.288998 
L 908.574107 605.608686 
L 913.058036 614.283999 
L 917.541964 607.479464 
L 922.025893 612.080058 
L 926.509821 641.579716 
L 930.99375 658.498373 
L 935.477679 663.379053 
L 939.961607 671.405188 
L 948.929464 614.288899 
L 953.413393 618.492637 
L 957.897321 618.201119 
L 962.38125 617.711989 
L 966.865179 620.400977 
L 971.349107 627.656263 
L 975.833036 657.923503 
L 980.316964 697.453175 
L 984.800893 697.656503 
L 989.284821 707.574646 
L 993.76875 714.068066 
L 998.252679 715.077355 
L 1002.736607 714.716428 
L 1007.220536 715.837588 
L 1011.704464 715.660391 
L 1016.188393 713.862289 
L 1020.672321 703.659977 
L 1025.15625 701.166151 
L 1029.640179 704.110727 
L 1034.124107 707.194938 
L 1038.608036 708.699889 
L 1043.091964 710.083171 
L 1047.575893 711.007536 
L 1052.059821 714.58006 
L 1056.54375 713.859022 
L 1061.027679 713.391124 
L 1069.995536 717.263332 
L 1074.479464 720.308347 
L 1078.963393 722.817688 
L 1083.447321 726.136256 
L 1087.93125 726.724192 
L 1092.415179 720.292832 
L 1096.899107 718.894852 
L 1101.383036 707.945372 
L 1105.866964 705.758579 
L 1110.350893 703.415003 
L 1114.834821 700.939142 
L 1119.31875 701.407857 
L 1123.802679 708.870554 
L 1128.286607 708.56842 
L 1132.770536 717.443795 
L 1137.254464 709.567094 
L 1141.738393 708.880353 
L 1146.222321 709.129409 
L 1150.70625 711.97028 
L 1155.190179 698.598016 
L 1159.674107 688.024978 
L 1159.674107 688.024978 
" style="fill:none;stroke:#ffa500;stroke-linecap:square;stroke-width:1.5;"/>
   </g>
   <g id="patch_227">
    <path d="M 162 768.96 
L 162 103.68 
" style="fill:none;stroke:#000000;stroke-linecap:square;stroke-linejoin:miter;stroke-width:0.8;"/>
   </g>
   <g id="patch_228">
    <path d="M 1166.4 768.96 
L 1166.4 103.68 
" style="fill:none;stroke:#000000;stroke-linecap:square;stroke-linejoin:miter;stroke-width:0.8;"/>
   </g>
   <g id="patch_229">
    <path d="M 162 768.96 
L 1166.4 768.96 
" style="fill:none;stroke:#000000;stroke-linecap:square;stroke-linejoin:miter;stroke-width:0.8;"/>
   </g>
   <g id="patch_230">
    <path d="M 162 103.68 
L 1166.4 103.68 
" style="fill:none;stroke:#000000;stroke-linecap:square;stroke-linejoin:miter;stroke-width:0.8;"/>
   </g>
   <g id="text_16">
    <!-- Persons Fully Vaccinated -->
    <g transform="translate(590.380313 97.68)scale(0.12 -0.12)">
     <defs>
      <path d="M 1831 0 
L 50 4666 
L 709 4666 
L 2188 738 
L 3669 4666 
L 4325 4666 
L 2547 0 
L 1831 0 
z
" id="DejaVuSans-56" transform="scale(0.015625)"/>
     </defs>
     <use xlink:href="#DejaVuSans-50"/>
     <use x="56.677734" xlink:href="#DejaVuSans-65"/>
     <use x="118.201172" xlink:href="#DejaVuSans-72"/>
     <use x="159.314453" xlink:href="#DejaVuSans-73"/>
     <use x="211.414062" xlink:href="#DejaVuSans-6f"/>
     <use x="272.595703" xlink:href="#DejaVuSans-6e"/>
     <use x="335.974609" xlink:href="#DejaVuSans-73"/>
     <use x="388.074219" xlink:href="#DejaVuSans-20"/>
     <use x="419.861328" xlink:href="#DejaVuSans-46"/>
     <use x="471.880859" xlink:href="#DejaVuSans-75"/>
     <use x="535.259766" xlink:href="#DejaVuSans-6c"/>
     <use x="563.042969" xlink:href="#DejaVuSans-6c"/>
     <use x="590.826172" xlink:href="#DejaVuSans-79"/>
     <use x="650.005859" xlink:href="#DejaVuSans-20"/>
     <use x="681.792969" xlink:href="#DejaVuSans-56"/>
     <use x="742.451172" xlink:href="#DejaVuSans-61"/>
     <use x="803.730469" xlink:href="#DejaVuSans-63"/>
     <use x="858.710938" xlink:href="#DejaVuSans-63"/>
     <use x="913.691406" xlink:href="#DejaVuSans-69"/>
     <use x="941.474609" xlink:href="#DejaVuSans-6e"/>
     <use x="1004.853516" xlink:href="#DejaVuSans-61"/>
     <use x="1066.132812" xlink:href="#DejaVuSans-74"/>
     <use x="1105.341797" xlink:href="#DejaVuSans-65"/>
     <use x="1166.865234" xlink:href="#DejaVuSans-64"/>
    </g>
   </g>
  </g>
 </g>
 <defs>
  <clipPath id="p5c35df8979">
   <rect height="665.28" width="1004.4" x="162" y="103.68"/>
  </clipPath>
 </defs>
</svg>
