<?xml version="1.0" encoding="utf-8" standalone="no"?>
<!DOCTYPE svg PUBLIC "-//W3C//DTD SVG 1.1//EN"
  "http://www.w3.org/Graphics/SVG/1.1/DTD/svg11.dtd">
<svg height="864pt" version="1.1" viewBox="0 0 1296 864" width="1296pt" xmlns="http://www.w3.org/2000/svg" xmlns:xlink="http://www.w3.org/1999/xlink">
 <metadata>
  <rdf:RDF xmlns:cc="http://creativecommons.org/ns#" xmlns:dc="http://purl.org/dc/elements/1.1/" xmlns:rdf="http://www.w3.org/1999/02/22-rdf-syntax-ns#">
   <cc:Work>
    <dc:type rdf:resource="http://purl.org/dc/dcmitype/StillImage"/>
    <dc:date>2021-09-30T00:57:39.084880</dc:date>
    <dc:format>image/svg+xml</dc:format>
    <dc:creator>
     <cc:Agent>
      <dc:title>Matplotlib v3.4.2, https://matplotlib.org/</dc:title>
     </cc:Agent>
    </dc:creator>
   </cc:Work>
  </rdf:RDF>
 </metadata>
 <defs>
  <style type="text/css">*{stroke-linecap:butt;stroke-linejoin:round;}</style>
 </defs>
 <g id="figure_1">
  <g id="patch_1">
   <path d="M 0 864 
L 1296 864 
L 1296 0 
L 0 0 
z
" style="fill:#ffffff;"/>
  </g>
  <g id="axes_1">
   <g id="patch_2">
    <path d="M 162 768.96 
L 1166.4 768.96 
L 1166.4 103.68 
L 162 103.68 
z
" style="fill:#ffffff;"/>
   </g>
   <g id="patch_3">
    <path clip-path="url(#p0616f38146)" d="M 162.933457 768.96 
L 164.800372 768.96 
L 164.800372 768.957291 
L 162.933457 768.957291 
z
" style="fill:#1f77b4;"/>
   </g>
   <g id="patch_4">
    <path clip-path="url(#p0616f38146)" d="M 166.667286 768.96 
L 168.534201 768.96 
L 168.534201 768.946037 
L 166.667286 768.946037 
z
" style="fill:#1f77b4;"/>
   </g>
   <g id="patch_5">
    <path clip-path="url(#p0616f38146)" d="M 170.401115 768.96 
L 172.26803 768.96 
L 172.26803 768.916527 
L 170.401115 768.916527 
z
" style="fill:#1f77b4;"/>
   </g>
   <g id="patch_6">
    <path clip-path="url(#p0616f38146)" d="M 174.134944 768.96 
L 176.001859 768.96 
L 176.001859 768.707998 
L 174.134944 768.707998 
z
" style="fill:#1f77b4;"/>
   </g>
   <g id="patch_7">
    <path clip-path="url(#p0616f38146)" d="M 177.868773 768.96 
L 179.735688 768.96 
L 179.735688 767.200654 
L 177.868773 767.200654 
z
" style="fill:#1f77b4;"/>
   </g>
   <g id="patch_8">
    <path clip-path="url(#p0616f38146)" d="M 181.602602 768.96 
L 183.469517 768.96 
L 183.469517 765.395877 
L 181.602602 765.395877 
z
" style="fill:#1f77b4;"/>
   </g>
   <g id="patch_9">
    <path clip-path="url(#p0616f38146)" d="M 185.336431 768.96 
L 187.203346 768.96 
L 187.203346 764.411377 
L 185.336431 764.411377 
z
" style="fill:#1f77b4;"/>
   </g>
   <g id="patch_10">
    <path clip-path="url(#p0616f38146)" d="M 189.07026 768.96 
L 190.937175 768.96 
L 190.937175 763.813633 
L 189.07026 763.813633 
z
" style="fill:#1f77b4;"/>
   </g>
   <g id="patch_11">
    <path clip-path="url(#p0616f38146)" d="M 192.804089 768.96 
L 194.671004 768.96 
L 194.671004 762.876065 
L 192.804089 762.876065 
z
" style="fill:#1f77b4;"/>
   </g>
   <g id="patch_12">
    <path clip-path="url(#p0616f38146)" d="M 196.537918 768.96 
L 198.404833 768.96 
L 198.404833 761.984097 
L 196.537918 761.984097 
z
" style="fill:#1f77b4;"/>
   </g>
   <g id="patch_13">
    <path clip-path="url(#p0616f38146)" d="M 200.271747 768.96 
L 202.138662 768.96 
L 202.138662 761.25635 
L 200.271747 761.25635 
z
" style="fill:#1f77b4;"/>
   </g>
   <g id="patch_14">
    <path clip-path="url(#p0616f38146)" d="M 204.005576 768.96 
L 205.872491 768.96 
L 205.872491 760.366924 
L 204.005576 760.366924 
z
" style="fill:#1f77b4;"/>
   </g>
   <g id="patch_15">
    <path clip-path="url(#p0616f38146)" d="M 207.739405 768.96 
L 209.60632 768.96 
L 209.60632 760.181445 
L 207.739405 760.181445 
z
" style="fill:#1f77b4;"/>
   </g>
   <g id="patch_16">
    <path clip-path="url(#p0616f38146)" d="M 211.473234 768.96 
L 213.340149 768.96 
L 213.340149 760.066781 
L 211.473234 760.066781 
z
" style="fill:#1f77b4;"/>
   </g>
   <g id="patch_17">
    <path clip-path="url(#p0616f38146)" d="M 215.207063 768.96 
L 217.073978 768.96 
L 217.073978 760.012262 
L 215.207063 760.012262 
z
" style="fill:#1f77b4;"/>
   </g>
   <g id="patch_18">
    <path clip-path="url(#p0616f38146)" d="M 218.940892 768.96 
L 220.807807 768.96 
L 220.807807 759.762636 
L 218.940892 759.762636 
z
" style="fill:#1f77b4;"/>
   </g>
   <g id="patch_19">
    <path clip-path="url(#p0616f38146)" d="M 222.674721 768.96 
L 224.541636 768.96 
L 224.541636 759.344203 
L 222.674721 759.344203 
z
" style="fill:#1f77b4;"/>
   </g>
   <g id="patch_20">
    <path clip-path="url(#p0616f38146)" d="M 226.40855 768.96 
L 228.275465 768.96 
L 228.275465 758.526718 
L 226.40855 758.526718 
z
" style="fill:#1f77b4;"/>
   </g>
   <g id="patch_21">
    <path clip-path="url(#p0616f38146)" d="M 230.142379 768.96 
L 232.009294 768.96 
L 232.009294 757.71536 
L 230.142379 757.71536 
z
" style="fill:#1f77b4;"/>
   </g>
   <g id="patch_22">
    <path clip-path="url(#p0616f38146)" d="M 233.876208 768.96 
L 235.743123 768.96 
L 235.743123 757.130995 
L 233.876208 757.130995 
z
" style="fill:#1f77b4;"/>
   </g>
   <g id="patch_23">
    <path clip-path="url(#p0616f38146)" d="M 237.610037 768.96 
L 239.476952 768.96 
L 239.476952 756.917882 
L 237.610037 756.917882 
z
" style="fill:#1f77b4;"/>
   </g>
   <g id="patch_24">
    <path clip-path="url(#p0616f38146)" d="M 241.343866 768.96 
L 243.210781 768.96 
L 243.210781 756.6272 
L 241.343866 756.6272 
z
" style="fill:#1f77b4;"/>
   </g>
   <g id="patch_25">
    <path clip-path="url(#p0616f38146)" d="M 245.077695 768.96 
L 246.94461 768.96 
L 246.94461 755.852354 
L 245.077695 755.852354 
z
" style="fill:#1f77b4;"/>
   </g>
   <g id="patch_26">
    <path clip-path="url(#p0616f38146)" d="M 248.811524 768.96 
L 250.678439 768.96 
L 250.678439 754.565919 
L 248.811524 754.565919 
z
" style="fill:#1f77b4;"/>
   </g>
   <g id="patch_27">
    <path clip-path="url(#p0616f38146)" d="M 252.545353 768.96 
L 254.412268 768.96 
L 254.412268 752.781231 
L 252.545353 752.781231 
z
" style="fill:#1f77b4;"/>
   </g>
   <g id="patch_28">
    <path clip-path="url(#p0616f38146)" d="M 256.279182 768.96 
L 258.146097 768.96 
L 258.146097 751.275096 
L 256.279182 751.275096 
z
" style="fill:#1f77b4;"/>
   </g>
   <g id="patch_29">
    <path clip-path="url(#p0616f38146)" d="M 260.013011 768.96 
L 261.879926 768.96 
L 261.879926 749.913469 
L 260.013011 749.913469 
z
" style="fill:#1f77b4;"/>
   </g>
   <g id="patch_30">
    <path clip-path="url(#p0616f38146)" d="M 263.74684 768.96 
L 265.613755 768.96 
L 265.613755 749.163673 
L 263.74684 749.163673 
z
" style="fill:#1f77b4;"/>
   </g>
   <g id="patch_31">
    <path clip-path="url(#p0616f38146)" d="M 267.480669 768.96 
L 269.347584 768.96 
L 269.347584 748.741238 
L 267.480669 748.741238 
z
" style="fill:#1f77b4;"/>
   </g>
   <g id="patch_32">
    <path clip-path="url(#p0616f38146)" d="M 271.214498 768.96 
L 273.081413 768.96 
L 273.081413 748.008199 
L 271.214498 748.008199 
z
" style="fill:#1f77b4;"/>
   </g>
   <g id="patch_33">
    <path clip-path="url(#p0616f38146)" d="M 274.948327 768.96 
L 276.815242 768.96 
L 276.815242 746.420369 
L 274.948327 746.420369 
z
" style="fill:#1f77b4;"/>
   </g>
   <g id="patch_34">
    <path clip-path="url(#p0616f38146)" d="M 278.682156 768.96 
L 280.549071 768.96 
L 280.549071 745.24147 
L 278.682156 745.24147 
z
" style="fill:#1f77b4;"/>
   </g>
   <g id="patch_35">
    <path clip-path="url(#p0616f38146)" d="M 282.415985 768.96 
L 284.2829 768.96 
L 284.2829 743.634801 
L 282.415985 743.634801 
z
" style="fill:#1f77b4;"/>
   </g>
   <g id="patch_36">
    <path clip-path="url(#p0616f38146)" d="M 286.149814 768.96 
L 288.016729 768.96 
L 288.016729 742.370165 
L 286.149814 742.370165 
z
" style="fill:#1f77b4;"/>
   </g>
   <g id="patch_37">
    <path clip-path="url(#p0616f38146)" d="M 289.883643 768.96 
L 291.750558 768.96 
L 291.750558 741.246701 
L 289.883643 741.246701 
z
" style="fill:#1f77b4;"/>
   </g>
   <g id="patch_38">
    <path clip-path="url(#p0616f38146)" d="M 293.617472 768.96 
L 295.484387 768.96 
L 295.484387 740.86303 
L 293.617472 740.86303 
z
" style="fill:#1f77b4;"/>
   </g>
   <g id="patch_39">
    <path clip-path="url(#p0616f38146)" d="M 297.351301 768.96 
L 299.218216 768.96 
L 299.218216 739.560672 
L 297.351301 739.560672 
z
" style="fill:#1f77b4;"/>
   </g>
   <g id="patch_40">
    <path clip-path="url(#p0616f38146)" d="M 301.08513 768.96 
L 302.952045 768.96 
L 302.952045 737.957088 
L 301.08513 737.957088 
z
" style="fill:#1f77b4;"/>
   </g>
   <g id="patch_41">
    <path clip-path="url(#p0616f38146)" d="M 304.818959 768.96 
L 306.685874 768.96 
L 306.685874 736.016681 
L 304.818959 736.016681 
z
" style="fill:#1f77b4;"/>
   </g>
   <g id="patch_42">
    <path clip-path="url(#p0616f38146)" d="M 308.552788 768.96 
L 310.419703 768.96 
L 310.419703 733.248118 
L 308.552788 733.248118 
z
" style="fill:#1f77b4;"/>
   </g>
   <g id="patch_43">
    <path clip-path="url(#p0616f38146)" d="M 312.286617 768.96 
L 314.153532 768.96 
L 314.153532 730.745563 
L 312.286617 730.745563 
z
" style="fill:#1f77b4;"/>
   </g>
   <g id="patch_44">
    <path clip-path="url(#p0616f38146)" d="M 316.020446 768.96 
L 317.887361 768.96 
L 317.887361 729.179533 
L 316.020446 729.179533 
z
" style="fill:#1f77b4;"/>
   </g>
   <g id="patch_45">
    <path clip-path="url(#p0616f38146)" d="M 319.754275 768.96 
L 321.62119 768.96 
L 321.62119 728.333996 
L 319.754275 728.333996 
z
" style="fill:#1f77b4;"/>
   </g>
   <g id="patch_46">
    <path clip-path="url(#p0616f38146)" d="M 323.488104 768.96 
L 325.355019 768.96 
L 325.355019 727.513552 
L 323.488104 727.513552 
z
" style="fill:#1f77b4;"/>
   </g>
   <g id="patch_47">
    <path clip-path="url(#p0616f38146)" d="M 327.221933 768.96 
L 329.088848 768.96 
L 329.088848 725.908259 
L 327.221933 725.908259 
z
" style="fill:#1f77b4;"/>
   </g>
   <g id="patch_48">
    <path clip-path="url(#p0616f38146)" d="M 330.955762 768.96 
L 332.822677 768.96 
L 332.822677 723.246816 
L 330.955762 723.246816 
z
" style="fill:#1f77b4;"/>
   </g>
   <g id="patch_49">
    <path clip-path="url(#p0616f38146)" d="M 334.689591 768.96 
L 336.556506 768.96 
L 336.556506 719.777433 
L 334.689591 719.777433 
z
" style="fill:#1f77b4;"/>
   </g>
   <g id="patch_50">
    <path clip-path="url(#p0616f38146)" d="M 338.42342 768.96 
L 340.290335 768.96 
L 340.290335 716.516829 
L 338.42342 716.516829 
z
" style="fill:#1f77b4;"/>
   </g>
   <g id="patch_51">
    <path clip-path="url(#p0616f38146)" d="M 342.157249 768.96 
L 344.024164 768.96 
L 344.024164 715.992693 
L 342.157249 715.992693 
z
" style="fill:#1f77b4;"/>
   </g>
   <g id="patch_52">
    <path clip-path="url(#p0616f38146)" d="M 345.891078 768.96 
L 347.757993 768.96 
L 347.757993 713.595924 
L 345.891078 713.595924 
z
" style="fill:#1f77b4;"/>
   </g>
   <g id="patch_53">
    <path clip-path="url(#p0616f38146)" d="M 349.624907 768.96 
L 351.491822 768.96 
L 351.491822 711.676482 
L 349.624907 711.676482 
z
" style="fill:#1f77b4;"/>
   </g>
   <g id="patch_54">
    <path clip-path="url(#p0616f38146)" d="M 353.358736 768.96 
L 355.225651 768.96 
L 355.225651 708.784003 
L 353.358736 708.784003 
z
" style="fill:#1f77b4;"/>
   </g>
   <g id="patch_55">
    <path clip-path="url(#p0616f38146)" d="M 357.092565 768.96 
L 358.95948 768.96 
L 358.95948 703.266343 
L 357.092565 703.266343 
z
" style="fill:#1f77b4;"/>
   </g>
   <g id="patch_56">
    <path clip-path="url(#p0616f38146)" d="M 360.826394 768.96 
L 362.693309 768.96 
L 362.693309 697.483761 
L 360.826394 697.483761 
z
" style="fill:#1f77b4;"/>
   </g>
   <g id="patch_57">
    <path clip-path="url(#p0616f38146)" d="M 364.560223 768.96 
L 366.427138 768.96 
L 366.427138 692.422756 
L 364.560223 692.422756 
z
" style="fill:#1f77b4;"/>
   </g>
   <g id="patch_58">
    <path clip-path="url(#p0616f38146)" d="M 368.294052 768.96 
L 370.160967 768.96 
L 370.160967 688.061821 
L 368.294052 688.061821 
z
" style="fill:#1f77b4;"/>
   </g>
   <g id="patch_59">
    <path clip-path="url(#p0616f38146)" d="M 372.027881 768.96 
L 373.894796 768.96 
L 373.894796 686.002999 
L 372.027881 686.002999 
z
" style="fill:#1f77b4;"/>
   </g>
   <g id="patch_60">
    <path clip-path="url(#p0616f38146)" d="M 375.76171 768.96 
L 377.628625 768.96 
L 377.628625 682.862811 
L 375.76171 682.862811 
z
" style="fill:#1f77b4;"/>
   </g>
   <g id="patch_61">
    <path clip-path="url(#p0616f38146)" d="M 379.495539 768.96 
L 381.362454 768.96 
L 381.362454 678.569732 
L 379.495539 678.569732 
z
" style="fill:#1f77b4;"/>
   </g>
   <g id="patch_62">
    <path clip-path="url(#p0616f38146)" d="M 383.229368 768.96 
L 385.096283 768.96 
L 385.096283 673.671282 
L 383.229368 673.671282 
z
" style="fill:#1f77b4;"/>
   </g>
   <g id="patch_63">
    <path clip-path="url(#p0616f38146)" d="M 386.963197 768.96 
L 388.830112 768.96 
L 388.830112 666.546287 
L 386.963197 666.546287 
z
" style="fill:#1f77b4;"/>
   </g>
   <g id="patch_64">
    <path clip-path="url(#p0616f38146)" d="M 390.697026 768.96 
L 392.563941 768.96 
L 392.563941 659.903955 
L 390.697026 659.903955 
z
" style="fill:#1f77b4;"/>
   </g>
   <g id="patch_65">
    <path clip-path="url(#p0616f38146)" d="M 394.430855 768.96 
L 396.29777 768.96 
L 396.29777 654.906847 
L 394.430855 654.906847 
z
" style="fill:#1f77b4;"/>
   </g>
   <g id="patch_66">
    <path clip-path="url(#p0616f38146)" d="M 398.164684 768.96 
L 400.031599 768.96 
L 400.031599 653.331105 
L 398.164684 653.331105 
z
" style="fill:#1f77b4;"/>
   </g>
   <g id="patch_67">
    <path clip-path="url(#p0616f38146)" d="M 401.898513 768.96 
L 403.765428 768.96 
L 403.765428 649.058617 
L 401.898513 649.058617 
z
" style="fill:#1f77b4;"/>
   </g>
   <g id="patch_68">
    <path clip-path="url(#p0616f38146)" d="M 405.632342 768.96 
L 407.499257 768.96 
L 407.499257 643.497192 
L 405.632342 643.497192 
z
" style="fill:#1f77b4;"/>
   </g>
   <g id="patch_69">
    <path clip-path="url(#p0616f38146)" d="M 409.366171 768.96 
L 411.233086 768.96 
L 411.233086 637.306471 
L 409.366171 637.306471 
z
" style="fill:#1f77b4;"/>
   </g>
   <g id="patch_70">
    <path clip-path="url(#p0616f38146)" d="M 413.1 768.96 
L 414.966914 768.96 
L 414.966914 630.731621 
L 413.1 630.731621 
z
" style="fill:#1f77b4;"/>
   </g>
   <g id="patch_71">
    <path clip-path="url(#p0616f38146)" d="M 416.833829 768.96 
L 418.700743 768.96 
L 418.700743 623.3119 
L 416.833829 623.3119 
z
" style="fill:#1f77b4;"/>
   </g>
   <g id="patch_72">
    <path clip-path="url(#p0616f38146)" d="M 420.567658 768.96 
L 422.434572 768.96 
L 422.434572 618.496604 
L 420.567658 618.496604 
z
" style="fill:#1f77b4;"/>
   </g>
   <g id="patch_73">
    <path clip-path="url(#p0616f38146)" d="M 424.301487 768.96 
L 426.168401 768.96 
L 426.168401 613.741911 
L 424.301487 613.741911 
z
" style="fill:#1f77b4;"/>
   </g>
   <g id="patch_74">
    <path clip-path="url(#p0616f38146)" d="M 428.035316 768.96 
L 429.90223 768.96 
L 429.90223 609.523816 
L 428.035316 609.523816 
z
" style="fill:#1f77b4;"/>
   </g>
   <g id="patch_75">
    <path clip-path="url(#p0616f38146)" d="M 431.769145 768.96 
L 433.636059 768.96 
L 433.636059 604.757536 
L 431.769145 604.757536 
z
" style="fill:#1f77b4;"/>
   </g>
   <g id="patch_76">
    <path clip-path="url(#p0616f38146)" d="M 435.502974 768.96 
L 437.369888 768.96 
L 437.369888 600.488757 
L 435.502974 600.488757 
z
" style="fill:#1f77b4;"/>
   </g>
   <g id="patch_77">
    <path clip-path="url(#p0616f38146)" d="M 439.236803 768.96 
L 441.103717 768.96 
L 441.103717 595.63328 
L 439.236803 595.63328 
z
" style="fill:#1f77b4;"/>
   </g>
   <g id="patch_78">
    <path clip-path="url(#p0616f38146)" d="M 442.970632 768.96 
L 444.837546 768.96 
L 444.837546 590.68077 
L 442.970632 590.68077 
z
" style="fill:#1f77b4;"/>
   </g>
   <g id="patch_79">
    <path clip-path="url(#p0616f38146)" d="M 446.704461 768.96 
L 448.571375 768.96 
L 448.571375 587.775078 
L 446.704461 587.775078 
z
" style="fill:#1f77b4;"/>
   </g>
   <g id="patch_80">
    <path clip-path="url(#p0616f38146)" d="M 450.43829 768.96 
L 452.305204 768.96 
L 452.305204 586.171994 
L 450.43829 586.171994 
z
" style="fill:#1f77b4;"/>
   </g>
   <g id="patch_81">
    <path clip-path="url(#p0616f38146)" d="M 454.172119 768.96 
L 456.039033 768.96 
L 456.039033 583.518637 
L 454.172119 583.518637 
z
" style="fill:#1f77b4;"/>
   </g>
   <g id="patch_82">
    <path clip-path="url(#p0616f38146)" d="M 457.905948 768.96 
L 459.772862 768.96 
L 459.772862 580.349189 
L 457.905948 580.349189 
z
" style="fill:#1f77b4;"/>
   </g>
   <g id="patch_83">
    <path clip-path="url(#p0616f38146)" d="M 461.639777 768.96 
L 463.506691 768.96 
L 463.506691 577.040527 
L 461.639777 577.040527 
z
" style="fill:#1f77b4;"/>
   </g>
   <g id="patch_84">
    <path clip-path="url(#p0616f38146)" d="M 465.373606 768.96 
L 467.24052 768.96 
L 467.24052 572.734778 
L 465.373606 572.734778 
z
" style="fill:#1f77b4;"/>
   </g>
   <g id="patch_85">
    <path clip-path="url(#p0616f38146)" d="M 469.107435 768.96 
L 470.974349 768.96 
L 470.974349 567.401472 
L 469.107435 567.401472 
z
" style="fill:#1f77b4;"/>
   </g>
   <g id="patch_86">
    <path clip-path="url(#p0616f38146)" d="M 472.841264 768.96 
L 474.708178 768.96 
L 474.708178 562.790828 
L 472.841264 562.790828 
z
" style="fill:#1f77b4;"/>
   </g>
   <g id="patch_87">
    <path clip-path="url(#p0616f38146)" d="M 476.575093 768.96 
L 478.442007 768.96 
L 478.442007 560.963084 
L 476.575093 560.963084 
z
" style="fill:#1f77b4;"/>
   </g>
   <g id="patch_88">
    <path clip-path="url(#p0616f38146)" d="M 480.308922 768.96 
L 482.175836 768.96 
L 482.175836 558.171973 
L 480.308922 558.171973 
z
" style="fill:#1f77b4;"/>
   </g>
   <g id="patch_89">
    <path clip-path="url(#p0616f38146)" d="M 484.042751 768.96 
L 485.909665 768.96 
L 485.909665 553.108217 
L 484.042751 553.108217 
z
" style="fill:#1f77b4;"/>
   </g>
   <g id="patch_90">
    <path clip-path="url(#p0616f38146)" d="M 487.77658 768.96 
L 489.643494 768.96 
L 489.643494 548.831852 
L 487.77658 548.831852 
z
" style="fill:#1f77b4;"/>
   </g>
   <g id="patch_91">
    <path clip-path="url(#p0616f38146)" d="M 491.510409 768.96 
L 493.377323 768.96 
L 493.377323 542.906388 
L 491.510409 542.906388 
z
" style="fill:#1f77b4;"/>
   </g>
   <g id="patch_92">
    <path clip-path="url(#p0616f38146)" d="M 495.244238 768.96 
L 497.111152 768.96 
L 497.111152 536.912984 
L 495.244238 536.912984 
z
" style="fill:#1f77b4;"/>
   </g>
   <g id="patch_93">
    <path clip-path="url(#p0616f38146)" d="M 498.978067 768.96 
L 500.844981 768.96 
L 500.844981 532.362985 
L 498.978067 532.362985 
z
" style="fill:#1f77b4;"/>
   </g>
   <g id="patch_94">
    <path clip-path="url(#p0616f38146)" d="M 502.711896 768.96 
L 504.57881 768.96 
L 504.57881 531.09539 
L 502.711896 531.09539 
z
" style="fill:#1f77b4;"/>
   </g>
   <g id="patch_95">
    <path clip-path="url(#p0616f38146)" d="M 506.445725 768.96 
L 508.312639 768.96 
L 508.312639 526.821609 
L 506.445725 526.821609 
z
" style="fill:#1f77b4;"/>
   </g>
   <g id="patch_96">
    <path clip-path="url(#p0616f38146)" d="M 510.179554 768.96 
L 512.046468 768.96 
L 512.046468 520.25101 
L 510.179554 520.25101 
z
" style="fill:#1f77b4;"/>
   </g>
   <g id="patch_97">
    <path clip-path="url(#p0616f38146)" d="M 513.913383 768.96 
L 515.780297 768.96 
L 515.780297 512.952247 
L 513.913383 512.952247 
z
" style="fill:#1f77b4;"/>
   </g>
   <g id="patch_98">
    <path clip-path="url(#p0616f38146)" d="M 517.647212 768.96 
L 519.514126 768.96 
L 519.514126 504.281562 
L 517.647212 504.281562 
z
" style="fill:#1f77b4;"/>
   </g>
   <g id="patch_99">
    <path clip-path="url(#p0616f38146)" d="M 521.381041 768.96 
L 523.247955 768.96 
L 523.247955 494.060018 
L 521.381041 494.060018 
z
" style="fill:#1f77b4;"/>
   </g>
   <g id="patch_100">
    <path clip-path="url(#p0616f38146)" d="M 525.11487 768.96 
L 526.981784 768.96 
L 526.981784 487.351414 
L 525.11487 487.351414 
z
" style="fill:#1f77b4;"/>
   </g>
   <g id="patch_101">
    <path clip-path="url(#p0616f38146)" d="M 528.848699 768.96 
L 530.715613 768.96 
L 530.715613 484.109191 
L 528.848699 484.109191 
z
" style="fill:#1f77b4;"/>
   </g>
   <g id="patch_102">
    <path clip-path="url(#p0616f38146)" d="M 532.582528 768.96 
L 534.449442 768.96 
L 534.449442 478.505586 
L 532.582528 478.505586 
z
" style="fill:#1f77b4;"/>
   </g>
   <g id="patch_103">
    <path clip-path="url(#p0616f38146)" d="M 536.316357 768.96 
L 538.183271 768.96 
L 538.183271 471.558692 
L 536.316357 471.558692 
z
" style="fill:#1f77b4;"/>
   </g>
   <g id="patch_104">
    <path clip-path="url(#p0616f38146)" d="M 540.050186 768.96 
L 541.9171 768.96 
L 541.9171 465.562704 
L 540.050186 465.562704 
z
" style="fill:#1f77b4;"/>
   </g>
   <g id="patch_105">
    <path clip-path="url(#p0616f38146)" d="M 543.784015 768.96 
L 545.650929 768.96 
L 545.650929 457.395022 
L 543.784015 457.395022 
z
" style="fill:#1f77b4;"/>
   </g>
   <g id="patch_106">
    <path clip-path="url(#p0616f38146)" d="M 547.517844 768.96 
L 549.384758 768.96 
L 549.384758 449.478259 
L 547.517844 449.478259 
z
" style="fill:#1f77b4;"/>
   </g>
   <g id="patch_107">
    <path clip-path="url(#p0616f38146)" d="M 551.251673 768.96 
L 553.118587 768.96 
L 553.118587 444.034583 
L 551.251673 444.034583 
z
" style="fill:#1f77b4;"/>
   </g>
   <g id="patch_108">
    <path clip-path="url(#p0616f38146)" d="M 554.985502 768.96 
L 556.852416 768.96 
L 556.852416 440.854173 
L 554.985502 440.854173 
z
" style="fill:#1f77b4;"/>
   </g>
   <g id="patch_109">
    <path clip-path="url(#p0616f38146)" d="M 558.719331 768.96 
L 560.586245 768.96 
L 560.586245 436.297338 
L 558.719331 436.297338 
z
" style="fill:#1f77b4;"/>
   </g>
   <g id="patch_110">
    <path clip-path="url(#p0616f38146)" d="M 562.45316 768.96 
L 564.320074 768.96 
L 564.320074 429.036005 
L 562.45316 429.036005 
z
" style="fill:#1f77b4;"/>
   </g>
   <g id="patch_111">
    <path clip-path="url(#p0616f38146)" d="M 566.186989 768.96 
L 568.053903 768.96 
L 568.053903 422.627377 
L 566.186989 422.627377 
z
" style="fill:#1f77b4;"/>
   </g>
   <g id="patch_112">
    <path clip-path="url(#p0616f38146)" d="M 569.920818 768.96 
L 571.787732 768.96 
L 571.787732 415.908852 
L 569.920818 415.908852 
z
" style="fill:#1f77b4;"/>
   </g>
   <g id="patch_113">
    <path clip-path="url(#p0616f38146)" d="M 573.654647 768.96 
L 575.521561 768.96 
L 575.521561 409.770358 
L 573.654647 409.770358 
z
" style="fill:#1f77b4;"/>
   </g>
   <g id="patch_114">
    <path clip-path="url(#p0616f38146)" d="M 577.388476 768.96 
L 579.25539 768.96 
L 579.25539 405.760584 
L 577.388476 405.760584 
z
" style="fill:#1f77b4;"/>
   </g>
   <g id="patch_115">
    <path clip-path="url(#p0616f38146)" d="M 581.122305 768.96 
L 582.989219 768.96 
L 582.989219 404.111484 
L 581.122305 404.111484 
z
" style="fill:#1f77b4;"/>
   </g>
   <g id="patch_116">
    <path clip-path="url(#p0616f38146)" d="M 584.856134 768.96 
L 586.723048 768.96 
L 586.723048 400.302444 
L 584.856134 400.302444 
z
" style="fill:#1f77b4;"/>
   </g>
   <g id="patch_117">
    <path clip-path="url(#p0616f38146)" d="M 588.589963 768.96 
L 590.456877 768.96 
L 590.456877 394.876524 
L 588.589963 394.876524 
z
" style="fill:#1f77b4;"/>
   </g>
   <g id="patch_118">
    <path clip-path="url(#p0616f38146)" d="M 592.323792 768.96 
L 594.190706 768.96 
L 594.190706 389.238573 
L 592.323792 389.238573 
z
" style="fill:#1f77b4;"/>
   </g>
   <g id="patch_119">
    <path clip-path="url(#p0616f38146)" d="M 596.057621 768.96 
L 597.924535 768.96 
L 597.924535 383.76497 
L 596.057621 383.76497 
z
" style="fill:#1f77b4;"/>
   </g>
   <g id="patch_120">
    <path clip-path="url(#p0616f38146)" d="M 599.79145 768.96 
L 601.658364 768.96 
L 601.658364 379.066922 
L 599.79145 379.066922 
z
" style="fill:#1f77b4;"/>
   </g>
   <g id="patch_121">
    <path clip-path="url(#p0616f38146)" d="M 603.525279 768.96 
L 605.392193 768.96 
L 605.392193 376.98084 
L 603.525279 376.98084 
z
" style="fill:#1f77b4;"/>
   </g>
   <g id="patch_122">
    <path clip-path="url(#p0616f38146)" d="M 607.259108 768.96 
L 609.126022 768.96 
L 609.126022 376.303861 
L 607.259108 376.303861 
z
" style="fill:#1f77b4;"/>
   </g>
   <g id="patch_123">
    <path clip-path="url(#p0616f38146)" d="M 610.992937 768.96 
L 612.859851 768.96 
L 612.859851 373.990453 
L 610.992937 373.990453 
z
" style="fill:#1f77b4;"/>
   </g>
   <g id="patch_124">
    <path clip-path="url(#p0616f38146)" d="M 614.726766 768.96 
L 616.59368 768.96 
L 616.59368 367.962829 
L 614.726766 367.962829 
z
" style="fill:#1f77b4;"/>
   </g>
   <g id="patch_125">
    <path clip-path="url(#p0616f38146)" d="M 618.460595 768.96 
L 620.327509 768.96 
L 620.327509 362.13273 
L 618.460595 362.13273 
z
" style="fill:#1f77b4;"/>
   </g>
   <g id="patch_126">
    <path clip-path="url(#p0616f38146)" d="M 622.194424 768.96 
L 624.061338 768.96 
L 624.061338 357.742494 
L 622.194424 357.742494 
z
" style="fill:#1f77b4;"/>
   </g>
   <g id="patch_127">
    <path clip-path="url(#p0616f38146)" d="M 625.928253 768.96 
L 627.795167 768.96 
L 627.795167 351.27718 
L 625.928253 351.27718 
z
" style="fill:#1f77b4;"/>
   </g>
   <g id="patch_128">
    <path clip-path="url(#p0616f38146)" d="M 629.662082 768.96 
L 631.528996 768.96 
L 631.528996 346.969847 
L 629.662082 346.969847 
z
" style="fill:#1f77b4;"/>
   </g>
   <g id="patch_129">
    <path clip-path="url(#p0616f38146)" d="M 633.395911 768.96 
L 635.262825 768.96 
L 635.262825 343.134132 
L 633.395911 343.134132 
z
" style="fill:#1f77b4;"/>
   </g>
   <g id="patch_130">
    <path clip-path="url(#p0616f38146)" d="M 637.12974 768.96 
L 638.996654 768.96 
L 638.996654 339.725978 
L 637.12974 339.725978 
z
" style="fill:#1f77b4;"/>
   </g>
   <g id="patch_131">
    <path clip-path="url(#p0616f38146)" d="M 640.863569 768.96 
L 642.730483 768.96 
L 642.730483 335.219411 
L 640.863569 335.219411 
z
" style="fill:#1f77b4;"/>
   </g>
   <g id="patch_132">
    <path clip-path="url(#p0616f38146)" d="M 644.597398 768.96 
L 646.464312 768.96 
L 646.464312 331.13161 
L 644.597398 331.13161 
z
" style="fill:#1f77b4;"/>
   </g>
   <g id="patch_133">
    <path clip-path="url(#p0616f38146)" d="M 648.331227 768.96 
L 650.198141 768.96 
L 650.198141 326.904929 
L 648.331227 326.904929 
z
" style="fill:#1f77b4;"/>
   </g>
   <g id="patch_134">
    <path clip-path="url(#p0616f38146)" d="M 652.065056 768.96 
L 653.93197 768.96 
L 653.93197 320.751971 
L 652.065056 320.751971 
z
" style="fill:#1f77b4;"/>
   </g>
   <g id="patch_135">
    <path clip-path="url(#p0616f38146)" d="M 655.798885 768.96 
L 657.665799 768.96 
L 657.665799 317.414675 
L 655.798885 317.414675 
z
" style="fill:#1f77b4;"/>
   </g>
   <g id="patch_136">
    <path clip-path="url(#p0616f38146)" d="M 659.532714 768.96 
L 661.399628 768.96 
L 661.399628 316.084141 
L 659.532714 316.084141 
z
" style="fill:#1f77b4;"/>
   </g>
   <g id="patch_137">
    <path clip-path="url(#p0616f38146)" d="M 663.266543 768.96 
L 665.133457 768.96 
L 665.133457 313.692206 
L 663.266543 313.692206 
z
" style="fill:#1f77b4;"/>
   </g>
   <g id="patch_138">
    <path clip-path="url(#p0616f38146)" d="M 667.000372 768.96 
L 668.867286 768.96 
L 668.867286 309.309848 
L 667.000372 309.309848 
z
" style="fill:#1f77b4;"/>
   </g>
   <g id="patch_139">
    <path clip-path="url(#p0616f38146)" d="M 670.734201 768.96 
L 672.601115 768.96 
L 672.601115 305.378017 
L 670.734201 305.378017 
z
" style="fill:#1f77b4;"/>
   </g>
   <g id="patch_140">
    <path clip-path="url(#p0616f38146)" d="M 674.46803 768.96 
L 676.334944 768.96 
L 676.334944 299.77166 
L 674.46803 299.77166 
z
" style="fill:#1f77b4;"/>
   </g>
   <g id="patch_141">
    <path clip-path="url(#p0616f38146)" d="M 678.201859 768.96 
L 680.068773 768.96 
L 680.068773 296.106836 
L 678.201859 296.106836 
z
" style="fill:#1f77b4;"/>
   </g>
   <g id="patch_142">
    <path clip-path="url(#p0616f38146)" d="M 681.935688 768.96 
L 683.802602 768.96 
L 683.802602 293.256288 
L 681.935688 293.256288 
z
" style="fill:#1f77b4;"/>
   </g>
   <g id="patch_143">
    <path clip-path="url(#p0616f38146)" d="M 685.669517 768.96 
L 687.536431 768.96 
L 687.536431 291.948095 
L 685.669517 291.948095 
z
" style="fill:#1f77b4;"/>
   </g>
   <g id="patch_144">
    <path clip-path="url(#p0616f38146)" d="M 689.403346 768.96 
L 691.27026 768.96 
L 691.27026 289.739222 
L 689.403346 289.739222 
z
" style="fill:#1f77b4;"/>
   </g>
   <g id="patch_145">
    <path clip-path="url(#p0616f38146)" d="M 693.137175 768.96 
L 695.004089 768.96 
L 695.004089 287.00588 
L 693.137175 287.00588 
z
" style="fill:#1f77b4;"/>
   </g>
   <g id="patch_146">
    <path clip-path="url(#p0616f38146)" d="M 696.871004 768.96 
L 698.737918 768.96 
L 698.737918 284.263785 
L 696.871004 284.263785 
z
" style="fill:#1f77b4;"/>
   </g>
   <g id="patch_147">
    <path clip-path="url(#p0616f38146)" d="M 700.604833 768.96 
L 702.471747 768.96 
L 702.471747 281.401941 
L 700.604833 281.401941 
z
" style="fill:#1f77b4;"/>
   </g>
   <g id="patch_148">
    <path clip-path="url(#p0616f38146)" d="M 704.338662 768.96 
L 706.205576 768.96 
L 706.205576 278.749127 
L 704.338662 278.749127 
z
" style="fill:#1f77b4;"/>
   </g>
   <g id="patch_149">
    <path clip-path="url(#p0616f38146)" d="M 708.072491 768.96 
L 709.939405 768.96 
L 709.939405 276.941223 
L 708.072491 276.941223 
z
" style="fill:#1f77b4;"/>
   </g>
   <g id="patch_150">
    <path clip-path="url(#p0616f38146)" d="M 711.80632 768.96 
L 713.673234 768.96 
L 713.673234 275.931423 
L 711.80632 275.931423 
z
" style="fill:#1f77b4;"/>
   </g>
   <g id="patch_151">
    <path clip-path="url(#p0616f38146)" d="M 715.540149 768.96 
L 717.407063 768.96 
L 717.407063 275.202551 
L 715.540149 275.202551 
z
" style="fill:#1f77b4;"/>
   </g>
   <g id="patch_152">
    <path clip-path="url(#p0616f38146)" d="M 719.273978 768.96 
L 721.140892 768.96 
L 721.140892 273.62385 
L 719.273978 273.62385 
z
" style="fill:#1f77b4;"/>
   </g>
   <g id="patch_153">
    <path clip-path="url(#p0616f38146)" d="M 723.007807 768.96 
L 724.874721 768.96 
L 724.874721 271.951158 
L 723.007807 271.951158 
z
" style="fill:#1f77b4;"/>
   </g>
   <g id="patch_154">
    <path clip-path="url(#p0616f38146)" d="M 726.741636 768.96 
L 728.60855 768.96 
L 728.60855 269.367534 
L 726.741636 269.367534 
z
" style="fill:#1f77b4;"/>
   </g>
   <g id="patch_155">
    <path clip-path="url(#p0616f38146)" d="M 730.475465 768.96 
L 732.342379 768.96 
L 732.342379 266.74798 
L 730.475465 266.74798 
z
" style="fill:#1f77b4;"/>
   </g>
   <g id="patch_156">
    <path clip-path="url(#p0616f38146)" d="M 734.209294 768.96 
L 736.076208 768.96 
L 736.076208 264.543859 
L 734.209294 264.543859 
z
" style="fill:#1f77b4;"/>
   </g>
   <g id="patch_157">
    <path clip-path="url(#p0616f38146)" d="M 737.943123 768.96 
L 739.810037 768.96 
L 739.810037 263.03564 
L 737.943123 263.03564 
z
" style="fill:#1f77b4;"/>
   </g>
   <g id="patch_158">
    <path clip-path="url(#p0616f38146)" d="M 741.676952 768.96 
L 743.543866 768.96 
L 743.543866 260.950518 
L 741.676952 260.950518 
z
" style="fill:#1f77b4;"/>
   </g>
   <g id="patch_159">
    <path clip-path="url(#p0616f38146)" d="M 745.410781 768.96 
L 747.277695 768.96 
L 747.277695 258.515818 
L 745.410781 258.515818 
z
" style="fill:#1f77b4;"/>
   </g>
   <g id="patch_160">
    <path clip-path="url(#p0616f38146)" d="M 749.14461 768.96 
L 751.011524 768.96 
L 751.011524 255.523597 
L 749.14461 255.523597 
z
" style="fill:#1f77b4;"/>
   </g>
   <g id="patch_161">
    <path clip-path="url(#p0616f38146)" d="M 752.878439 768.96 
L 754.745353 768.96 
L 754.745353 253.480864 
L 752.878439 253.480864 
z
" style="fill:#1f77b4;"/>
   </g>
   <g id="patch_162">
    <path clip-path="url(#p0616f38146)" d="M 756.612268 768.96 
L 758.479182 768.96 
L 758.479182 251.540207 
L 756.612268 251.540207 
z
" style="fill:#1f77b4;"/>
   </g>
   <g id="patch_163">
    <path clip-path="url(#p0616f38146)" d="M 760.346097 768.96 
L 762.213011 768.96 
L 762.213011 250.392943 
L 760.346097 250.392943 
z
" style="fill:#1f77b4;"/>
   </g>
   <g id="patch_164">
    <path clip-path="url(#p0616f38146)" d="M 764.079926 768.96 
L 765.94684 768.96 
L 765.94684 249.268938 
L 764.079926 249.268938 
z
" style="fill:#1f77b4;"/>
   </g>
   <g id="patch_165">
    <path clip-path="url(#p0616f38146)" d="M 767.813755 768.96 
L 769.680669 768.96 
L 769.680669 245.884917 
L 767.813755 245.884917 
z
" style="fill:#1f77b4;"/>
   </g>
   <g id="patch_166">
    <path clip-path="url(#p0616f38146)" d="M 771.547584 768.96 
L 773.414498 768.96 
L 773.414498 243.221807 
L 771.547584 243.221807 
z
" style="fill:#1f77b4;"/>
   </g>
   <g id="patch_167">
    <path clip-path="url(#p0616f38146)" d="M 775.281413 768.96 
L 777.148327 768.96 
L 777.148327 241.375057 
L 775.281413 241.375057 
z
" style="fill:#1f77b4;"/>
   </g>
   <g id="patch_168">
    <path clip-path="url(#p0616f38146)" d="M 779.015242 768.96 
L 780.882156 768.96 
L 780.882156 238.937524 
L 779.015242 238.937524 
z
" style="fill:#1f77b4;"/>
   </g>
   <g id="patch_169">
    <path clip-path="url(#p0616f38146)" d="M 782.749071 768.96 
L 784.615985 768.96 
L 784.615985 237.783425 
L 782.749071 237.783425 
z
" style="fill:#1f77b4;"/>
   </g>
   <g id="patch_170">
    <path clip-path="url(#p0616f38146)" d="M 786.4829 768.96 
L 788.349814 768.96 
L 788.349814 235.961933 
L 786.4829 235.961933 
z
" style="fill:#1f77b4;"/>
   </g>
   <g id="patch_171">
    <path clip-path="url(#p0616f38146)" d="M 790.216729 768.96 
L 792.083643 768.96 
L 792.083643 235.196465 
L 790.216729 235.196465 
z
" style="fill:#1f77b4;"/>
   </g>
   <g id="patch_172">
    <path clip-path="url(#p0616f38146)" d="M 793.950558 768.96 
L 795.817472 768.96 
L 795.817472 234.205088 
L 793.950558 234.205088 
z
" style="fill:#1f77b4;"/>
   </g>
   <g id="patch_173">
    <path clip-path="url(#p0616f38146)" d="M 797.684387 768.96 
L 799.551301 768.96 
L 799.551301 232.993428 
L 797.684387 232.993428 
z
" style="fill:#1f77b4;"/>
   </g>
   <g id="patch_174">
    <path clip-path="url(#p0616f38146)" d="M 801.418216 768.96 
L 803.28513 768.96 
L 803.28513 231.565403 
L 801.418216 231.565403 
z
" style="fill:#1f77b4;"/>
   </g>
   <g id="patch_175">
    <path clip-path="url(#p0616f38146)" d="M 805.152045 768.96 
L 807.018959 768.96 
L 807.018959 229.805432 
L 805.152045 229.805432 
z
" style="fill:#1f77b4;"/>
   </g>
   <g id="patch_176">
    <path clip-path="url(#p0616f38146)" d="M 808.885874 768.96 
L 810.752788 768.96 
L 810.752788 225.628476 
L 808.885874 225.628476 
z
" style="fill:#1f77b4;"/>
   </g>
   <g id="patch_177">
    <path clip-path="url(#p0616f38146)" d="M 812.619703 768.96 
L 814.486617 768.96 
L 814.486617 220.823891 
L 812.619703 220.823891 
z
" style="fill:#1f77b4;"/>
   </g>
   <g id="patch_178">
    <path clip-path="url(#p0616f38146)" d="M 816.353532 768.96 
L 818.220446 768.96 
L 818.220446 220.441762 
L 816.353532 220.441762 
z
" style="fill:#1f77b4;"/>
   </g>
   <g id="patch_179">
    <path clip-path="url(#p0616f38146)" d="M 820.087361 768.96 
L 821.954275 768.96 
L 821.954275 219.453761 
L 820.087361 219.453761 
z
" style="fill:#1f77b4;"/>
   </g>
   <g id="patch_180">
    <path clip-path="url(#p0616f38146)" d="M 823.82119 768.96 
L 825.688104 768.96 
L 825.688104 218.220802 
L 823.82119 218.220802 
z
" style="fill:#1f77b4;"/>
   </g>
   <g id="patch_181">
    <path clip-path="url(#p0616f38146)" d="M 827.555019 768.96 
L 829.421933 768.96 
L 829.421933 217.032483 
L 827.555019 217.032483 
z
" style="fill:#1f77b4;"/>
   </g>
   <g id="patch_182">
    <path clip-path="url(#p0616f38146)" d="M 831.288848 768.96 
L 833.155762 768.96 
L 833.155762 215.950992 
L 831.288848 215.950992 
z
" style="fill:#1f77b4;"/>
   </g>
   <g id="patch_183">
    <path clip-path="url(#p0616f38146)" d="M 835.022677 768.96 
L 836.889591 768.96 
L 836.889591 214.873085 
L 835.022677 214.873085 
z
" style="fill:#1f77b4;"/>
   </g>
   <g id="patch_184">
    <path clip-path="url(#p0616f38146)" d="M 838.756506 768.96 
L 840.62342 768.96 
L 840.62342 214.086194 
L 838.756506 214.086194 
z
" style="fill:#1f77b4;"/>
   </g>
   <g id="patch_185">
    <path clip-path="url(#p0616f38146)" d="M 842.490335 768.96 
L 844.357249 768.96 
L 844.357249 213.701772 
L 842.490335 213.701772 
z
" style="fill:#1f77b4;"/>
   </g>
   <g id="patch_186">
    <path clip-path="url(#p0616f38146)" d="M 846.224164 768.96 
L 848.091078 768.96 
L 848.091078 213.631623 
L 846.224164 213.631623 
z
" style="fill:#1f77b4;"/>
   </g>
   <g id="patch_187">
    <path clip-path="url(#p0616f38146)" d="M 849.957993 768.96 
L 851.824907 768.96 
L 851.824907 213.009371 
L 849.957993 213.009371 
z
" style="fill:#1f77b4;"/>
   </g>
   <g id="patch_188">
    <path clip-path="url(#p0616f38146)" d="M 853.691822 768.96 
L 855.558736 768.96 
L 855.558736 211.893827 
L 853.691822 211.893827 
z
" style="fill:#1f77b4;"/>
   </g>
   <g id="patch_189">
    <path clip-path="url(#p0616f38146)" d="M 857.425651 768.96 
L 859.292565 768.96 
L 859.292565 210.775031 
L 857.425651 210.775031 
z
" style="fill:#1f77b4;"/>
   </g>
   <g id="patch_190">
    <path clip-path="url(#p0616f38146)" d="M 861.15948 768.96 
L 863.026394 768.96 
L 863.026394 209.776693 
L 861.15948 209.776693 
z
" style="fill:#1f77b4;"/>
   </g>
   <g id="patch_191">
    <path clip-path="url(#p0616f38146)" d="M 864.893309 768.96 
L 866.760223 768.96 
L 866.760223 208.961876 
L 864.893309 208.961876 
z
" style="fill:#1f77b4;"/>
   </g>
   <g id="patch_192">
    <path clip-path="url(#p0616f38146)" d="M 868.627138 768.96 
L 870.494052 768.96 
L 870.494052 208.408021 
L 868.627138 208.408021 
z
" style="fill:#1f77b4;"/>
   </g>
   <g id="patch_193">
    <path clip-path="url(#p0616f38146)" d="M 872.360967 768.96 
L 874.227881 768.96 
L 874.227881 207.354873 
L 872.360967 207.354873 
z
" style="fill:#1f77b4;"/>
   </g>
   <g id="patch_194">
    <path clip-path="url(#p0616f38146)" d="M 876.094796 768.96 
L 877.96171 768.96 
L 877.96171 206.470324 
L 876.094796 206.470324 
z
" style="fill:#1f77b4;"/>
   </g>
   <g id="patch_195">
    <path clip-path="url(#p0616f38146)" d="M 879.828625 768.96 
L 881.695539 768.96 
L 881.695539 205.632373 
L 879.828625 205.632373 
z
" style="fill:#1f77b4;"/>
   </g>
   <g id="patch_196">
    <path clip-path="url(#p0616f38146)" d="M 883.562454 768.96 
L 885.429368 768.96 
L 885.429368 204.800925 
L 883.562454 204.800925 
z
" style="fill:#1f77b4;"/>
   </g>
   <g id="patch_197">
    <path clip-path="url(#p0616f38146)" d="M 887.296283 768.96 
L 889.163197 768.96 
L 889.163197 203.965809 
L 887.296283 203.965809 
z
" style="fill:#1f77b4;"/>
   </g>
   <g id="patch_198">
    <path clip-path="url(#p0616f38146)" d="M 891.030112 768.96 
L 892.897026 768.96 
L 892.897026 203.27941 
L 891.030112 203.27941 
z
" style="fill:#1f77b4;"/>
   </g>
   <g id="patch_199">
    <path clip-path="url(#p0616f38146)" d="M 894.763941 768.96 
L 896.630855 768.96 
L 896.630855 202.813044 
L 894.763941 202.813044 
z
" style="fill:#1f77b4;"/>
   </g>
   <g id="patch_200">
    <path clip-path="url(#p0616f38146)" d="M 898.49777 768.96 
L 900.364684 768.96 
L 900.364684 202.106555 
L 898.49777 202.106555 
z
" style="fill:#1f77b4;"/>
   </g>
   <g id="patch_201">
    <path clip-path="url(#p0616f38146)" d="M 902.231599 768.96 
L 904.098513 768.96 
L 904.098513 201.15715 
L 902.231599 201.15715 
z
" style="fill:#1f77b4;"/>
   </g>
   <g id="patch_202">
    <path clip-path="url(#p0616f38146)" d="M 905.965428 768.96 
L 907.832342 768.96 
L 907.832342 200.267516 
L 905.965428 200.267516 
z
" style="fill:#1f77b4;"/>
   </g>
   <g id="patch_203">
    <path clip-path="url(#p0616f38146)" d="M 909.699257 768.96 
L 911.566171 768.96 
L 911.566171 199.619546 
L 909.699257 199.619546 
z
" style="fill:#1f77b4;"/>
   </g>
   <g id="patch_204">
    <path clip-path="url(#p0616f38146)" d="M 913.433086 768.96 
L 915.3 768.96 
L 915.3 198.945401 
L 913.433086 198.945401 
z
" style="fill:#1f77b4;"/>
   </g>
   <g id="patch_205">
    <path clip-path="url(#p0616f38146)" d="M 917.166914 768.96 
L 919.033829 768.96 
L 919.033829 198.537346 
L 917.166914 198.537346 
z
" style="fill:#1f77b4;"/>
   </g>
   <g id="patch_206">
    <path clip-path="url(#p0616f38146)" d="M 920.900743 768.96 
L 922.767658 768.96 
L 922.767658 198.301433 
L 920.900743 198.301433 
z
" style="fill:#1f77b4;"/>
   </g>
   <g id="patch_207">
    <path clip-path="url(#p0616f38146)" d="M 924.634572 768.96 
L 926.501487 768.96 
L 926.501487 197.89242 
L 924.634572 197.89242 
z
" style="fill:#1f77b4;"/>
   </g>
   <g id="patch_208">
    <path clip-path="url(#p0616f38146)" d="M 928.368401 768.96 
L 930.235316 768.96 
L 930.235316 196.988656 
L 928.368401 196.988656 
z
" style="fill:#1f77b4;"/>
   </g>
   <g id="patch_209">
    <path clip-path="url(#p0616f38146)" d="M 932.10223 768.96 
L 933.969145 768.96 
L 933.969145 195.492774 
L 932.10223 195.492774 
z
" style="fill:#1f77b4;"/>
   </g>
   <g id="patch_210">
    <path clip-path="url(#p0616f38146)" d="M 935.836059 768.96 
L 937.702974 768.96 
L 937.702974 194.69167 
L 935.836059 194.69167 
z
" style="fill:#1f77b4;"/>
   </g>
   <g id="patch_211">
    <path clip-path="url(#p0616f38146)" d="M 939.569888 768.96 
L 941.436803 768.96 
L 941.436803 192.737008 
L 939.569888 192.737008 
z
" style="fill:#1f77b4;"/>
   </g>
   <g id="patch_212">
    <path clip-path="url(#p0616f38146)" d="M 943.303717 768.96 
L 945.170632 768.96 
L 945.170632 192.125342 
L 943.303717 192.125342 
z
" style="fill:#1f77b4;"/>
   </g>
   <g id="patch_213">
    <path clip-path="url(#p0616f38146)" d="M 947.037546 768.96 
L 948.904461 768.96 
L 948.904461 191.679483 
L 947.037546 191.679483 
z
" style="fill:#1f77b4;"/>
   </g>
   <g id="patch_214">
    <path clip-path="url(#p0616f38146)" d="M 950.771375 768.96 
L 952.63829 768.96 
L 952.63829 191.065275 
L 950.771375 191.065275 
z
" style="fill:#1f77b4;"/>
   </g>
   <g id="patch_215">
    <path clip-path="url(#p0616f38146)" d="M 954.505204 768.96 
L 956.372119 768.96 
L 956.372119 190.228367 
L 954.505204 190.228367 
z
" style="fill:#1f77b4;"/>
   </g>
   <g id="patch_216">
    <path clip-path="url(#p0616f38146)" d="M 958.239033 768.96 
L 960.105948 768.96 
L 960.105948 189.463316 
L 958.239033 189.463316 
z
" style="fill:#1f77b4;"/>
   </g>
   <g id="patch_217">
    <path clip-path="url(#p0616f38146)" d="M 961.972862 768.96 
L 963.839777 768.96 
L 963.839777 188.657877 
L 961.972862 188.657877 
z
" style="fill:#1f77b4;"/>
   </g>
   <g id="patch_218">
    <path clip-path="url(#p0616f38146)" d="M 965.706691 768.96 
L 967.573606 768.96 
L 967.573606 187.773578 
L 965.706691 187.773578 
z
" style="fill:#1f77b4;"/>
   </g>
   <g id="patch_219">
    <path clip-path="url(#p0616f38146)" d="M 969.44052 768.96 
L 971.307435 768.96 
L 971.307435 186.212882 
L 969.44052 186.212882 
z
" style="fill:#1f77b4;"/>
   </g>
   <g id="patch_220">
    <path clip-path="url(#p0616f38146)" d="M 973.174349 768.96 
L 975.041264 768.96 
L 975.041264 185.704169 
L 973.174349 185.704169 
z
" style="fill:#1f77b4;"/>
   </g>
   <g id="patch_221">
    <path clip-path="url(#p0616f38146)" d="M 976.908178 768.96 
L 978.775093 768.96 
L 978.775093 185.108842 
L 976.908178 185.108842 
z
" style="fill:#1f77b4;"/>
   </g>
   <g id="patch_222">
    <path clip-path="url(#p0616f38146)" d="M 980.642007 768.96 
L 982.508922 768.96 
L 982.508922 184.525395 
L 980.642007 184.525395 
z
" style="fill:#1f77b4;"/>
   </g>
   <g id="patch_223">
    <path clip-path="url(#p0616f38146)" d="M 984.375836 768.96 
L 986.242751 768.96 
L 986.242751 182.187686 
L 984.375836 182.187686 
z
" style="fill:#1f77b4;"/>
   </g>
   <g id="patch_224">
    <path clip-path="url(#p0616f38146)" d="M 988.109665 768.96 
L 989.97658 768.96 
L 989.97658 180.156332 
L 988.109665 180.156332 
z
" style="fill:#1f77b4;"/>
   </g>
   <g id="patch_225">
    <path clip-path="url(#p0616f38146)" d="M 991.843494 768.96 
L 993.710409 768.96 
L 993.710409 178.53966 
L 991.843494 178.53966 
z
" style="fill:#1f77b4;"/>
   </g>
   <g id="patch_226">
    <path clip-path="url(#p0616f38146)" d="M 995.577323 768.96 
L 997.444238 768.96 
L 997.444238 176.198659 
L 995.577323 176.198659 
z
" style="fill:#1f77b4;"/>
   </g>
   <g id="patch_227">
    <path clip-path="url(#p0616f38146)" d="M 999.311152 768.96 
L 1001.178067 768.96 
L 1001.178067 174.613122 
L 999.311152 174.613122 
z
" style="fill:#1f77b4;"/>
   </g>
   <g id="patch_228">
    <path clip-path="url(#p0616f38146)" d="M 1003.044981 768.96 
L 1004.911896 768.96 
L 1004.911896 173.909009 
L 1003.044981 173.909009 
z
" style="fill:#1f77b4;"/>
   </g>
   <g id="patch_229">
    <path clip-path="url(#p0616f38146)" d="M 1006.77881 768.96 
L 1008.645725 768.96 
L 1008.645725 172.900376 
L 1006.77881 172.900376 
z
" style="fill:#1f77b4;"/>
   </g>
   <g id="patch_230">
    <path clip-path="url(#p0616f38146)" d="M 1010.512639 768.96 
L 1012.379554 768.96 
L 1012.379554 171.945469 
L 1010.512639 171.945469 
z
" style="fill:#1f77b4;"/>
   </g>
   <g id="patch_231">
    <path clip-path="url(#p0616f38146)" d="M 1014.246468 768.96 
L 1016.113383 768.96 
L 1016.113383 171.025991 
L 1014.246468 171.025991 
z
" style="fill:#1f77b4;"/>
   </g>
   <g id="patch_232">
    <path clip-path="url(#p0616f38146)" d="M 1017.980297 768.96 
L 1019.847212 768.96 
L 1019.847212 170.137107 
L 1017.980297 170.137107 
z
" style="fill:#1f77b4;"/>
   </g>
   <g id="patch_233">
    <path clip-path="url(#p0616f38146)" d="M 1021.714126 768.96 
L 1023.581041 768.96 
L 1023.581041 169.26602 
L 1021.714126 169.26602 
z
" style="fill:#1f77b4;"/>
   </g>
   <g id="patch_234">
    <path clip-path="url(#p0616f38146)" d="M 1025.447955 768.96 
L 1027.31487 768.96 
L 1027.31487 168.691451 
L 1025.447955 168.691451 
z
" style="fill:#1f77b4;"/>
   </g>
   <g id="patch_235">
    <path clip-path="url(#p0616f38146)" d="M 1029.181784 768.96 
L 1031.048699 768.96 
L 1031.048699 167.952909 
L 1029.181784 167.952909 
z
" style="fill:#1f77b4;"/>
   </g>
   <g id="patch_236">
    <path clip-path="url(#p0616f38146)" d="M 1032.915613 768.96 
L 1034.782528 768.96 
L 1034.782528 166.930146 
L 1032.915613 166.930146 
z
" style="fill:#1f77b4;"/>
   </g>
   <g id="patch_237">
    <path clip-path="url(#p0616f38146)" d="M 1036.649442 768.96 
L 1038.516357 768.96 
L 1038.516357 165.951857 
L 1036.649442 165.951857 
z
" style="fill:#1f77b4;"/>
   </g>
   <g id="patch_238">
    <path clip-path="url(#p0616f38146)" d="M 1040.383271 768.96 
L 1042.250186 768.96 
L 1042.250186 164.8732 
L 1040.383271 164.8732 
z
" style="fill:#1f77b4;"/>
   </g>
   <g id="patch_239">
    <path clip-path="url(#p0616f38146)" d="M 1044.1171 768.96 
L 1045.984015 768.96 
L 1045.984015 163.646034 
L 1044.1171 163.646034 
z
" style="fill:#1f77b4;"/>
   </g>
   <g id="patch_240">
    <path clip-path="url(#p0616f38146)" d="M 1047.850929 768.96 
L 1049.717844 768.96 
L 1049.717844 161.860472 
L 1047.850929 161.860472 
z
" style="fill:#1f77b4;"/>
   </g>
   <g id="patch_241">
    <path clip-path="url(#p0616f38146)" d="M 1051.584758 768.96 
L 1053.451673 768.96 
L 1053.451673 159.034932 
L 1051.584758 159.034932 
z
" style="fill:#1f77b4;"/>
   </g>
   <g id="patch_242">
    <path clip-path="url(#p0616f38146)" d="M 1055.318587 768.96 
L 1057.185502 768.96 
L 1057.185502 157.799222 
L 1055.318587 157.799222 
z
" style="fill:#1f77b4;"/>
   </g>
   <g id="patch_243">
    <path clip-path="url(#p0616f38146)" d="M 1059.052416 768.96 
L 1060.919331 768.96 
L 1060.919331 156.771832 
L 1059.052416 156.771832 
z
" style="fill:#1f77b4;"/>
   </g>
   <g id="patch_244">
    <path clip-path="url(#p0616f38146)" d="M 1062.786245 768.96 
L 1064.65316 768.96 
L 1064.65316 155.817342 
L 1062.786245 155.817342 
z
" style="fill:#1f77b4;"/>
   </g>
   <g id="patch_245">
    <path clip-path="url(#p0616f38146)" d="M 1066.520074 768.96 
L 1068.386989 768.96 
L 1068.386989 154.925916 
L 1066.520074 154.925916 
z
" style="fill:#1f77b4;"/>
   </g>
   <g id="patch_246">
    <path clip-path="url(#p0616f38146)" d="M 1070.253903 768.96 
L 1072.120818 768.96 
L 1072.120818 154.035739 
L 1070.253903 154.035739 
z
" style="fill:#1f77b4;"/>
   </g>
   <g id="patch_247">
    <path clip-path="url(#p0616f38146)" d="M 1073.987732 768.96 
L 1075.854647 768.96 
L 1075.854647 153.246013 
L 1073.987732 153.246013 
z
" style="fill:#1f77b4;"/>
   </g>
   <g id="patch_248">
    <path clip-path="url(#p0616f38146)" d="M 1077.721561 768.96 
L 1079.588476 768.96 
L 1079.588476 152.713708 
L 1077.721561 152.713708 
z
" style="fill:#1f77b4;"/>
   </g>
   <g id="patch_249">
    <path clip-path="url(#p0616f38146)" d="M 1081.45539 768.96 
L 1083.322305 768.96 
L 1083.322305 152.335955 
L 1081.45539 152.335955 
z
" style="fill:#1f77b4;"/>
   </g>
   <g id="patch_250">
    <path clip-path="url(#p0616f38146)" d="M 1085.189219 768.96 
L 1087.056134 768.96 
L 1087.056134 151.840621 
L 1085.189219 151.840621 
z
" style="fill:#1f77b4;"/>
   </g>
   <g id="patch_251">
    <path clip-path="url(#p0616f38146)" d="M 1088.923048 768.96 
L 1090.789963 768.96 
L 1090.789963 150.846118 
L 1088.923048 150.846118 
z
" style="fill:#1f77b4;"/>
   </g>
   <g id="patch_252">
    <path clip-path="url(#p0616f38146)" d="M 1092.656877 768.96 
L 1094.523792 768.96 
L 1094.523792 149.958734 
L 1092.656877 149.958734 
z
" style="fill:#1f77b4;"/>
   </g>
   <g id="patch_253">
    <path clip-path="url(#p0616f38146)" d="M 1096.390706 768.96 
L 1098.257621 768.96 
L 1098.257621 149.113448 
L 1096.390706 149.113448 
z
" style="fill:#1f77b4;"/>
   </g>
   <g id="patch_254">
    <path clip-path="url(#p0616f38146)" d="M 1100.124535 768.96 
L 1101.99145 768.96 
L 1101.99145 148.377115 
L 1100.124535 148.377115 
z
" style="fill:#1f77b4;"/>
   </g>
   <g id="patch_255">
    <path clip-path="url(#p0616f38146)" d="M 1103.858364 768.96 
L 1105.725279 768.96 
L 1105.725279 147.834015 
L 1103.858364 147.834015 
z
" style="fill:#1f77b4;"/>
   </g>
   <g id="patch_256">
    <path clip-path="url(#p0616f38146)" d="M 1107.592193 768.96 
L 1109.459108 768.96 
L 1109.459108 147.198758 
L 1107.592193 147.198758 
z
" style="fill:#1f77b4;"/>
   </g>
   <g id="patch_257">
    <path clip-path="url(#p0616f38146)" d="M 1111.326022 768.96 
L 1113.192937 768.96 
L 1113.192937 146.320961 
L 1111.326022 146.320961 
z
" style="fill:#1f77b4;"/>
   </g>
   <g id="patch_258">
    <path clip-path="url(#p0616f38146)" d="M 1115.059851 768.96 
L 1116.926766 768.96 
L 1116.926766 145.484136 
L 1115.059851 145.484136 
z
" style="fill:#1f77b4;"/>
   </g>
   <g id="patch_259">
    <path clip-path="url(#p0616f38146)" d="M 1118.79368 768.96 
L 1120.660595 768.96 
L 1120.660595 144.644226 
L 1118.79368 144.644226 
z
" style="fill:#1f77b4;"/>
   </g>
   <g id="patch_260">
    <path clip-path="url(#p0616f38146)" d="M 1122.527509 768.96 
L 1124.394424 768.96 
L 1124.394424 143.779059 
L 1122.527509 143.779059 
z
" style="fill:#1f77b4;"/>
   </g>
   <g id="patch_261">
    <path clip-path="url(#p0616f38146)" d="M 1126.261338 768.96 
L 1128.128253 768.96 
L 1128.128253 142.953321 
L 1126.261338 142.953321 
z
" style="fill:#1f77b4;"/>
   </g>
   <g id="patch_262">
    <path clip-path="url(#p0616f38146)" d="M 1129.995167 768.96 
L 1131.862082 768.96 
L 1131.862082 142.367414 
L 1129.995167 142.367414 
z
" style="fill:#1f77b4;"/>
   </g>
   <g id="patch_263">
    <path clip-path="url(#p0616f38146)" d="M 1133.728996 768.96 
L 1135.595911 768.96 
L 1135.595911 141.792969 
L 1133.728996 141.792969 
z
" style="fill:#1f77b4;"/>
   </g>
   <g id="patch_264">
    <path clip-path="url(#p0616f38146)" d="M 1137.462825 768.96 
L 1139.32974 768.96 
L 1139.32974 140.819181 
L 1137.462825 140.819181 
z
" style="fill:#1f77b4;"/>
   </g>
   <g id="patch_265">
    <path clip-path="url(#p0616f38146)" d="M 1141.196654 768.96 
L 1143.063569 768.96 
L 1143.063569 140.104606 
L 1141.196654 140.104606 
z
" style="fill:#1f77b4;"/>
   </g>
   <g id="patch_266">
    <path clip-path="url(#p0616f38146)" d="M 1144.930483 768.96 
L 1146.797398 768.96 
L 1146.797398 139.059919 
L 1144.930483 139.059919 
z
" style="fill:#1f77b4;"/>
   </g>
   <g id="patch_267">
    <path clip-path="url(#p0616f38146)" d="M 1148.664312 768.96 
L 1150.531227 768.96 
L 1150.531227 138.06354 
L 1148.664312 138.06354 
z
" style="fill:#1f77b4;"/>
   </g>
   <g id="patch_268">
    <path clip-path="url(#p0616f38146)" d="M 1152.398141 768.96 
L 1154.265056 768.96 
L 1154.265056 137.29082 
L 1152.398141 137.29082 
z
" style="fill:#1f77b4;"/>
   </g>
   <g id="patch_269">
    <path clip-path="url(#p0616f38146)" d="M 1156.13197 768.96 
L 1157.998885 768.96 
L 1157.998885 136.789901 
L 1156.13197 136.789901 
z
" style="fill:#1f77b4;"/>
   </g>
   <g id="patch_270">
    <path clip-path="url(#p0616f38146)" d="M 1159.865799 768.96 
L 1161.732714 768.96 
L 1161.732714 136.134929 
L 1159.865799 136.134929 
z
" style="fill:#1f77b4;"/>
   </g>
   <g id="patch_271">
    <path clip-path="url(#p0616f38146)" d="M 1163.599628 768.96 
L 1165.466543 768.96 
L 1165.466543 135.36 
L 1163.599628 135.36 
z
" style="fill:#1f77b4;"/>
   </g>
   <g id="matplotlib.axis_1">
    <g id="xtick_1">
     <g id="line2d_1">
      <defs>
       <path d="M 0 0 
L 0 3.5 
" id="m2fa05c75c2" style="stroke:#000000;stroke-width:0.8;"/>
      </defs>
      <g>
       <use style="stroke:#000000;stroke-width:0.8;" x="163.866914" xlink:href="#m2fa05c75c2" y="768.96"/>
      </g>
     </g>
     <g id="text_1">
      <!-- January -->
      <g transform="translate(144.911446 783.558437)scale(0.1 -0.1)">
       <defs>
        <path d="M 628 4666 
L 1259 4666 
L 1259 325 
Q 1259 -519 939 -900 
Q 619 -1281 -91 -1281 
L -331 -1281 
L -331 -750 
L -134 -750 
Q 284 -750 456 -515 
Q 628 -281 628 325 
L 628 4666 
z
" id="DejaVuSans-4a" transform="scale(0.015625)"/>
        <path d="M 2194 1759 
Q 1497 1759 1228 1600 
Q 959 1441 959 1056 
Q 959 750 1161 570 
Q 1363 391 1709 391 
Q 2188 391 2477 730 
Q 2766 1069 2766 1631 
L 2766 1759 
L 2194 1759 
z
M 3341 1997 
L 3341 0 
L 2766 0 
L 2766 531 
Q 2569 213 2275 61 
Q 1981 -91 1556 -91 
Q 1019 -91 701 211 
Q 384 513 384 1019 
Q 384 1609 779 1909 
Q 1175 2209 1959 2209 
L 2766 2209 
L 2766 2266 
Q 2766 2663 2505 2880 
Q 2244 3097 1772 3097 
Q 1472 3097 1187 3025 
Q 903 2953 641 2809 
L 641 3341 
Q 956 3463 1253 3523 
Q 1550 3584 1831 3584 
Q 2591 3584 2966 3190 
Q 3341 2797 3341 1997 
z
" id="DejaVuSans-61" transform="scale(0.015625)"/>
        <path d="M 3513 2113 
L 3513 0 
L 2938 0 
L 2938 2094 
Q 2938 2591 2744 2837 
Q 2550 3084 2163 3084 
Q 1697 3084 1428 2787 
Q 1159 2491 1159 1978 
L 1159 0 
L 581 0 
L 581 3500 
L 1159 3500 
L 1159 2956 
Q 1366 3272 1645 3428 
Q 1925 3584 2291 3584 
Q 2894 3584 3203 3211 
Q 3513 2838 3513 2113 
z
" id="DejaVuSans-6e" transform="scale(0.015625)"/>
        <path d="M 544 1381 
L 544 3500 
L 1119 3500 
L 1119 1403 
Q 1119 906 1312 657 
Q 1506 409 1894 409 
Q 2359 409 2629 706 
Q 2900 1003 2900 1516 
L 2900 3500 
L 3475 3500 
L 3475 0 
L 2900 0 
L 2900 538 
Q 2691 219 2414 64 
Q 2138 -91 1772 -91 
Q 1169 -91 856 284 
Q 544 659 544 1381 
z
M 1991 3584 
L 1991 3584 
z
" id="DejaVuSans-75" transform="scale(0.015625)"/>
        <path d="M 2631 2963 
Q 2534 3019 2420 3045 
Q 2306 3072 2169 3072 
Q 1681 3072 1420 2755 
Q 1159 2438 1159 1844 
L 1159 0 
L 581 0 
L 581 3500 
L 1159 3500 
L 1159 2956 
Q 1341 3275 1631 3429 
Q 1922 3584 2338 3584 
Q 2397 3584 2469 3576 
Q 2541 3569 2628 3553 
L 2631 2963 
z
" id="DejaVuSans-72" transform="scale(0.015625)"/>
        <path d="M 2059 -325 
Q 1816 -950 1584 -1140 
Q 1353 -1331 966 -1331 
L 506 -1331 
L 506 -850 
L 844 -850 
Q 1081 -850 1212 -737 
Q 1344 -625 1503 -206 
L 1606 56 
L 191 3500 
L 800 3500 
L 1894 763 
L 2988 3500 
L 3597 3500 
L 2059 -325 
z
" id="DejaVuSans-79" transform="scale(0.015625)"/>
       </defs>
       <use xlink:href="#DejaVuSans-4a"/>
       <use x="29.492188" xlink:href="#DejaVuSans-61"/>
       <use x="90.771484" xlink:href="#DejaVuSans-6e"/>
       <use x="154.150391" xlink:href="#DejaVuSans-75"/>
       <use x="217.529297" xlink:href="#DejaVuSans-61"/>
       <use x="278.808594" xlink:href="#DejaVuSans-72"/>
       <use x="319.921875" xlink:href="#DejaVuSans-79"/>
      </g>
     </g>
    </g>
    <g id="xtick_2">
     <g id="line2d_2">
      <g>
       <use style="stroke:#000000;stroke-width:0.8;" x="279.615613" xlink:href="#m2fa05c75c2" y="768.96"/>
      </g>
     </g>
     <g id="text_2">
      <!-- February -->
      <g transform="translate(257.460926 783.558437)scale(0.1 -0.1)">
       <defs>
        <path d="M 628 4666 
L 3309 4666 
L 3309 4134 
L 1259 4134 
L 1259 2759 
L 3109 2759 
L 3109 2228 
L 1259 2228 
L 1259 0 
L 628 0 
L 628 4666 
z
" id="DejaVuSans-46" transform="scale(0.015625)"/>
        <path d="M 3597 1894 
L 3597 1613 
L 953 1613 
Q 991 1019 1311 708 
Q 1631 397 2203 397 
Q 2534 397 2845 478 
Q 3156 559 3463 722 
L 3463 178 
Q 3153 47 2828 -22 
Q 2503 -91 2169 -91 
Q 1331 -91 842 396 
Q 353 884 353 1716 
Q 353 2575 817 3079 
Q 1281 3584 2069 3584 
Q 2775 3584 3186 3129 
Q 3597 2675 3597 1894 
z
M 3022 2063 
Q 3016 2534 2758 2815 
Q 2500 3097 2075 3097 
Q 1594 3097 1305 2825 
Q 1016 2553 972 2059 
L 3022 2063 
z
" id="DejaVuSans-65" transform="scale(0.015625)"/>
        <path d="M 3116 1747 
Q 3116 2381 2855 2742 
Q 2594 3103 2138 3103 
Q 1681 3103 1420 2742 
Q 1159 2381 1159 1747 
Q 1159 1113 1420 752 
Q 1681 391 2138 391 
Q 2594 391 2855 752 
Q 3116 1113 3116 1747 
z
M 1159 2969 
Q 1341 3281 1617 3432 
Q 1894 3584 2278 3584 
Q 2916 3584 3314 3078 
Q 3713 2572 3713 1747 
Q 3713 922 3314 415 
Q 2916 -91 2278 -91 
Q 1894 -91 1617 61 
Q 1341 213 1159 525 
L 1159 0 
L 581 0 
L 581 4863 
L 1159 4863 
L 1159 2969 
z
" id="DejaVuSans-62" transform="scale(0.015625)"/>
       </defs>
       <use xlink:href="#DejaVuSans-46"/>
       <use x="52.019531" xlink:href="#DejaVuSans-65"/>
       <use x="113.542969" xlink:href="#DejaVuSans-62"/>
       <use x="177.019531" xlink:href="#DejaVuSans-72"/>
       <use x="218.132812" xlink:href="#DejaVuSans-75"/>
       <use x="281.511719" xlink:href="#DejaVuSans-61"/>
       <use x="342.791016" xlink:href="#DejaVuSans-72"/>
       <use x="383.904297" xlink:href="#DejaVuSans-79"/>
      </g>
     </g>
    </g>
    <g id="xtick_3">
     <g id="line2d_3">
      <g>
       <use style="stroke:#000000;stroke-width:0.8;" x="384.162825" xlink:href="#m2fa05c75c2" y="768.96"/>
      </g>
     </g>
     <g id="text_3">
      <!-- March -->
      <g transform="translate(368.923763 783.558437)scale(0.1 -0.1)">
       <defs>
        <path d="M 628 4666 
L 1569 4666 
L 2759 1491 
L 3956 4666 
L 4897 4666 
L 4897 0 
L 4281 0 
L 4281 4097 
L 3078 897 
L 2444 897 
L 1241 4097 
L 1241 0 
L 628 0 
L 628 4666 
z
" id="DejaVuSans-4d" transform="scale(0.015625)"/>
        <path d="M 3122 3366 
L 3122 2828 
Q 2878 2963 2633 3030 
Q 2388 3097 2138 3097 
Q 1578 3097 1268 2742 
Q 959 2388 959 1747 
Q 959 1106 1268 751 
Q 1578 397 2138 397 
Q 2388 397 2633 464 
Q 2878 531 3122 666 
L 3122 134 
Q 2881 22 2623 -34 
Q 2366 -91 2075 -91 
Q 1284 -91 818 406 
Q 353 903 353 1747 
Q 353 2603 823 3093 
Q 1294 3584 2113 3584 
Q 2378 3584 2631 3529 
Q 2884 3475 3122 3366 
z
" id="DejaVuSans-63" transform="scale(0.015625)"/>
        <path d="M 3513 2113 
L 3513 0 
L 2938 0 
L 2938 2094 
Q 2938 2591 2744 2837 
Q 2550 3084 2163 3084 
Q 1697 3084 1428 2787 
Q 1159 2491 1159 1978 
L 1159 0 
L 581 0 
L 581 4863 
L 1159 4863 
L 1159 2956 
Q 1366 3272 1645 3428 
Q 1925 3584 2291 3584 
Q 2894 3584 3203 3211 
Q 3513 2838 3513 2113 
z
" id="DejaVuSans-68" transform="scale(0.015625)"/>
       </defs>
       <use xlink:href="#DejaVuSans-4d"/>
       <use x="86.279297" xlink:href="#DejaVuSans-61"/>
       <use x="147.558594" xlink:href="#DejaVuSans-72"/>
       <use x="186.421875" xlink:href="#DejaVuSans-63"/>
       <use x="241.402344" xlink:href="#DejaVuSans-68"/>
      </g>
     </g>
    </g>
    <g id="xtick_4">
     <g id="line2d_4">
      <g>
       <use style="stroke:#000000;stroke-width:0.8;" x="499.911524" xlink:href="#m2fa05c75c2" y="768.96"/>
      </g>
     </g>
     <g id="text_4">
      <!-- April -->
      <g transform="translate(488.483399 783.558437)scale(0.1 -0.1)">
       <defs>
        <path d="M 2188 4044 
L 1331 1722 
L 3047 1722 
L 2188 4044 
z
M 1831 4666 
L 2547 4666 
L 4325 0 
L 3669 0 
L 3244 1197 
L 1141 1197 
L 716 0 
L 50 0 
L 1831 4666 
z
" id="DejaVuSans-41" transform="scale(0.015625)"/>
        <path d="M 1159 525 
L 1159 -1331 
L 581 -1331 
L 581 3500 
L 1159 3500 
L 1159 2969 
Q 1341 3281 1617 3432 
Q 1894 3584 2278 3584 
Q 2916 3584 3314 3078 
Q 3713 2572 3713 1747 
Q 3713 922 3314 415 
Q 2916 -91 2278 -91 
Q 1894 -91 1617 61 
Q 1341 213 1159 525 
z
M 3116 1747 
Q 3116 2381 2855 2742 
Q 2594 3103 2138 3103 
Q 1681 3103 1420 2742 
Q 1159 2381 1159 1747 
Q 1159 1113 1420 752 
Q 1681 391 2138 391 
Q 2594 391 2855 752 
Q 3116 1113 3116 1747 
z
" id="DejaVuSans-70" transform="scale(0.015625)"/>
        <path d="M 603 3500 
L 1178 3500 
L 1178 0 
L 603 0 
L 603 3500 
z
M 603 4863 
L 1178 4863 
L 1178 4134 
L 603 4134 
L 603 4863 
z
" id="DejaVuSans-69" transform="scale(0.015625)"/>
        <path d="M 603 4863 
L 1178 4863 
L 1178 0 
L 603 0 
L 603 4863 
z
" id="DejaVuSans-6c" transform="scale(0.015625)"/>
       </defs>
       <use xlink:href="#DejaVuSans-41"/>
       <use x="68.408203" xlink:href="#DejaVuSans-70"/>
       <use x="131.884766" xlink:href="#DejaVuSans-72"/>
       <use x="172.998047" xlink:href="#DejaVuSans-69"/>
       <use x="200.78125" xlink:href="#DejaVuSans-6c"/>
      </g>
     </g>
    </g>
    <g id="xtick_5">
     <g id="line2d_5">
      <g>
       <use style="stroke:#000000;stroke-width:0.8;" x="611.926394" xlink:href="#m2fa05c75c2" y="768.96"/>
      </g>
     </g>
     <g id="text_5">
      <!-- May -->
      <g transform="translate(601.588894 783.558437)scale(0.1 -0.1)">
       <use xlink:href="#DejaVuSans-4d"/>
       <use x="86.279297" xlink:href="#DejaVuSans-61"/>
       <use x="147.558594" xlink:href="#DejaVuSans-79"/>
      </g>
     </g>
    </g>
    <g id="xtick_6">
     <g id="line2d_6">
      <g>
       <use style="stroke:#000000;stroke-width:0.8;" x="727.675093" xlink:href="#m2fa05c75c2" y="768.96"/>
      </g>
     </g>
     <g id="text_6">
      <!-- June -->
      <g transform="translate(716.78603 783.558437)scale(0.1 -0.1)">
       <use xlink:href="#DejaVuSans-4a"/>
       <use x="29.492188" xlink:href="#DejaVuSans-75"/>
       <use x="92.871094" xlink:href="#DejaVuSans-6e"/>
       <use x="156.25" xlink:href="#DejaVuSans-65"/>
      </g>
     </g>
    </g>
    <g id="xtick_7">
     <g id="line2d_7">
      <g>
       <use style="stroke:#000000;stroke-width:0.8;" x="839.689963" xlink:href="#m2fa05c75c2" y="768.96"/>
      </g>
     </g>
     <g id="text_7">
      <!-- July -->
      <g transform="translate(830.697775 783.558437)scale(0.1 -0.1)">
       <use xlink:href="#DejaVuSans-4a"/>
       <use x="29.492188" xlink:href="#DejaVuSans-75"/>
       <use x="92.871094" xlink:href="#DejaVuSans-6c"/>
       <use x="120.654297" xlink:href="#DejaVuSans-79"/>
      </g>
     </g>
    </g>
    <g id="xtick_8">
     <g id="line2d_8">
      <g>
       <use style="stroke:#000000;stroke-width:0.8;" x="955.438662" xlink:href="#m2fa05c75c2" y="768.96"/>
      </g>
     </g>
     <g id="text_8">
      <!-- August -->
      <g transform="translate(937.941787 783.558437)scale(0.1 -0.1)">
       <defs>
        <path d="M 2906 1791 
Q 2906 2416 2648 2759 
Q 2391 3103 1925 3103 
Q 1463 3103 1205 2759 
Q 947 2416 947 1791 
Q 947 1169 1205 825 
Q 1463 481 1925 481 
Q 2391 481 2648 825 
Q 2906 1169 2906 1791 
z
M 3481 434 
Q 3481 -459 3084 -895 
Q 2688 -1331 1869 -1331 
Q 1566 -1331 1297 -1286 
Q 1028 -1241 775 -1147 
L 775 -588 
Q 1028 -725 1275 -790 
Q 1522 -856 1778 -856 
Q 2344 -856 2625 -561 
Q 2906 -266 2906 331 
L 2906 616 
Q 2728 306 2450 153 
Q 2172 0 1784 0 
Q 1141 0 747 490 
Q 353 981 353 1791 
Q 353 2603 747 3093 
Q 1141 3584 1784 3584 
Q 2172 3584 2450 3431 
Q 2728 3278 2906 2969 
L 2906 3500 
L 3481 3500 
L 3481 434 
z
" id="DejaVuSans-67" transform="scale(0.015625)"/>
        <path d="M 2834 3397 
L 2834 2853 
Q 2591 2978 2328 3040 
Q 2066 3103 1784 3103 
Q 1356 3103 1142 2972 
Q 928 2841 928 2578 
Q 928 2378 1081 2264 
Q 1234 2150 1697 2047 
L 1894 2003 
Q 2506 1872 2764 1633 
Q 3022 1394 3022 966 
Q 3022 478 2636 193 
Q 2250 -91 1575 -91 
Q 1294 -91 989 -36 
Q 684 19 347 128 
L 347 722 
Q 666 556 975 473 
Q 1284 391 1588 391 
Q 1994 391 2212 530 
Q 2431 669 2431 922 
Q 2431 1156 2273 1281 
Q 2116 1406 1581 1522 
L 1381 1569 
Q 847 1681 609 1914 
Q 372 2147 372 2553 
Q 372 3047 722 3315 
Q 1072 3584 1716 3584 
Q 2034 3584 2315 3537 
Q 2597 3491 2834 3397 
z
" id="DejaVuSans-73" transform="scale(0.015625)"/>
        <path d="M 1172 4494 
L 1172 3500 
L 2356 3500 
L 2356 3053 
L 1172 3053 
L 1172 1153 
Q 1172 725 1289 603 
Q 1406 481 1766 481 
L 2356 481 
L 2356 0 
L 1766 0 
Q 1100 0 847 248 
Q 594 497 594 1153 
L 594 3053 
L 172 3053 
L 172 3500 
L 594 3500 
L 594 4494 
L 1172 4494 
z
" id="DejaVuSans-74" transform="scale(0.015625)"/>
       </defs>
       <use xlink:href="#DejaVuSans-41"/>
       <use x="68.408203" xlink:href="#DejaVuSans-75"/>
       <use x="131.787109" xlink:href="#DejaVuSans-67"/>
       <use x="195.263672" xlink:href="#DejaVuSans-75"/>
       <use x="258.642578" xlink:href="#DejaVuSans-73"/>
       <use x="310.742188" xlink:href="#DejaVuSans-74"/>
      </g>
     </g>
    </g>
    <g id="xtick_9">
     <g id="line2d_9">
      <g>
       <use style="stroke:#000000;stroke-width:0.8;" x="1071.187361" xlink:href="#m2fa05c75c2" y="768.96"/>
      </g>
     </g>
     <g id="text_9">
      <!-- September -->
      <g transform="translate(1043.549079 783.558437)scale(0.1 -0.1)">
       <defs>
        <path d="M 3425 4513 
L 3425 3897 
Q 3066 4069 2747 4153 
Q 2428 4238 2131 4238 
Q 1616 4238 1336 4038 
Q 1056 3838 1056 3469 
Q 1056 3159 1242 3001 
Q 1428 2844 1947 2747 
L 2328 2669 
Q 3034 2534 3370 2195 
Q 3706 1856 3706 1288 
Q 3706 609 3251 259 
Q 2797 -91 1919 -91 
Q 1588 -91 1214 -16 
Q 841 59 441 206 
L 441 856 
Q 825 641 1194 531 
Q 1563 422 1919 422 
Q 2459 422 2753 634 
Q 3047 847 3047 1241 
Q 3047 1584 2836 1778 
Q 2625 1972 2144 2069 
L 1759 2144 
Q 1053 2284 737 2584 
Q 422 2884 422 3419 
Q 422 4038 858 4394 
Q 1294 4750 2059 4750 
Q 2388 4750 2728 4690 
Q 3069 4631 3425 4513 
z
" id="DejaVuSans-53" transform="scale(0.015625)"/>
        <path d="M 3328 2828 
Q 3544 3216 3844 3400 
Q 4144 3584 4550 3584 
Q 5097 3584 5394 3201 
Q 5691 2819 5691 2113 
L 5691 0 
L 5113 0 
L 5113 2094 
Q 5113 2597 4934 2840 
Q 4756 3084 4391 3084 
Q 3944 3084 3684 2787 
Q 3425 2491 3425 1978 
L 3425 0 
L 2847 0 
L 2847 2094 
Q 2847 2600 2669 2842 
Q 2491 3084 2119 3084 
Q 1678 3084 1418 2786 
Q 1159 2488 1159 1978 
L 1159 0 
L 581 0 
L 581 3500 
L 1159 3500 
L 1159 2956 
Q 1356 3278 1631 3431 
Q 1906 3584 2284 3584 
Q 2666 3584 2933 3390 
Q 3200 3197 3328 2828 
z
" id="DejaVuSans-6d" transform="scale(0.015625)"/>
       </defs>
       <use xlink:href="#DejaVuSans-53"/>
       <use x="63.476562" xlink:href="#DejaVuSans-65"/>
       <use x="125" xlink:href="#DejaVuSans-70"/>
       <use x="188.476562" xlink:href="#DejaVuSans-74"/>
       <use x="227.685547" xlink:href="#DejaVuSans-65"/>
       <use x="289.208984" xlink:href="#DejaVuSans-6d"/>
       <use x="386.621094" xlink:href="#DejaVuSans-62"/>
       <use x="450.097656" xlink:href="#DejaVuSans-65"/>
       <use x="511.621094" xlink:href="#DejaVuSans-72"/>
      </g>
     </g>
    </g>
   </g>
   <g id="matplotlib.axis_2">
    <g id="ytick_1">
     <g id="line2d_10">
      <defs>
       <path d="M 0 0 
L -3.5 0 
" id="me708d012e5" style="stroke:#000000;stroke-width:0.8;"/>
      </defs>
      <g>
       <use style="stroke:#000000;stroke-width:0.8;" x="162" xlink:href="#me708d012e5" y="768.96"/>
      </g>
     </g>
     <g id="text_10">
      <!-- 0.0 -->
      <g transform="translate(139.096875 772.759219)scale(0.1 -0.1)">
       <defs>
        <path d="M 2034 4250 
Q 1547 4250 1301 3770 
Q 1056 3291 1056 2328 
Q 1056 1369 1301 889 
Q 1547 409 2034 409 
Q 2525 409 2770 889 
Q 3016 1369 3016 2328 
Q 3016 3291 2770 3770 
Q 2525 4250 2034 4250 
z
M 2034 4750 
Q 2819 4750 3233 4129 
Q 3647 3509 3647 2328 
Q 3647 1150 3233 529 
Q 2819 -91 2034 -91 
Q 1250 -91 836 529 
Q 422 1150 422 2328 
Q 422 3509 836 4129 
Q 1250 4750 2034 4750 
z
" id="DejaVuSans-30" transform="scale(0.015625)"/>
        <path d="M 684 794 
L 1344 794 
L 1344 0 
L 684 0 
L 684 794 
z
" id="DejaVuSans-2e" transform="scale(0.015625)"/>
       </defs>
       <use xlink:href="#DejaVuSans-30"/>
       <use x="63.623047" xlink:href="#DejaVuSans-2e"/>
       <use x="95.410156" xlink:href="#DejaVuSans-30"/>
      </g>
     </g>
    </g>
    <g id="ytick_2">
     <g id="line2d_11">
      <g>
       <use style="stroke:#000000;stroke-width:0.8;" x="162" xlink:href="#me708d012e5" y="685.598445"/>
      </g>
     </g>
     <g id="text_11">
      <!-- 0.2 -->
      <g transform="translate(139.096875 689.397664)scale(0.1 -0.1)">
       <defs>
        <path d="M 1228 531 
L 3431 531 
L 3431 0 
L 469 0 
L 469 531 
Q 828 903 1448 1529 
Q 2069 2156 2228 2338 
Q 2531 2678 2651 2914 
Q 2772 3150 2772 3378 
Q 2772 3750 2511 3984 
Q 2250 4219 1831 4219 
Q 1534 4219 1204 4116 
Q 875 4013 500 3803 
L 500 4441 
Q 881 4594 1212 4672 
Q 1544 4750 1819 4750 
Q 2544 4750 2975 4387 
Q 3406 4025 3406 3419 
Q 3406 3131 3298 2873 
Q 3191 2616 2906 2266 
Q 2828 2175 2409 1742 
Q 1991 1309 1228 531 
z
" id="DejaVuSans-32" transform="scale(0.015625)"/>
       </defs>
       <use xlink:href="#DejaVuSans-30"/>
       <use x="63.623047" xlink:href="#DejaVuSans-2e"/>
       <use x="95.410156" xlink:href="#DejaVuSans-32"/>
      </g>
     </g>
    </g>
    <g id="ytick_3">
     <g id="line2d_12">
      <g>
       <use style="stroke:#000000;stroke-width:0.8;" x="162" xlink:href="#me708d012e5" y="602.236891"/>
      </g>
     </g>
     <g id="text_12">
      <!-- 0.4 -->
      <g transform="translate(139.096875 606.036109)scale(0.1 -0.1)">
       <defs>
        <path d="M 2419 4116 
L 825 1625 
L 2419 1625 
L 2419 4116 
z
M 2253 4666 
L 3047 4666 
L 3047 1625 
L 3713 1625 
L 3713 1100 
L 3047 1100 
L 3047 0 
L 2419 0 
L 2419 1100 
L 313 1100 
L 313 1709 
L 2253 4666 
z
" id="DejaVuSans-34" transform="scale(0.015625)"/>
       </defs>
       <use xlink:href="#DejaVuSans-30"/>
       <use x="63.623047" xlink:href="#DejaVuSans-2e"/>
       <use x="95.410156" xlink:href="#DejaVuSans-34"/>
      </g>
     </g>
    </g>
    <g id="ytick_4">
     <g id="line2d_13">
      <g>
       <use style="stroke:#000000;stroke-width:0.8;" x="162" xlink:href="#me708d012e5" y="518.875336"/>
      </g>
     </g>
     <g id="text_13">
      <!-- 0.6 -->
      <g transform="translate(139.096875 522.674555)scale(0.1 -0.1)">
       <defs>
        <path d="M 2113 2584 
Q 1688 2584 1439 2293 
Q 1191 2003 1191 1497 
Q 1191 994 1439 701 
Q 1688 409 2113 409 
Q 2538 409 2786 701 
Q 3034 994 3034 1497 
Q 3034 2003 2786 2293 
Q 2538 2584 2113 2584 
z
M 3366 4563 
L 3366 3988 
Q 3128 4100 2886 4159 
Q 2644 4219 2406 4219 
Q 1781 4219 1451 3797 
Q 1122 3375 1075 2522 
Q 1259 2794 1537 2939 
Q 1816 3084 2150 3084 
Q 2853 3084 3261 2657 
Q 3669 2231 3669 1497 
Q 3669 778 3244 343 
Q 2819 -91 2113 -91 
Q 1303 -91 875 529 
Q 447 1150 447 2328 
Q 447 3434 972 4092 
Q 1497 4750 2381 4750 
Q 2619 4750 2861 4703 
Q 3103 4656 3366 4563 
z
" id="DejaVuSans-36" transform="scale(0.015625)"/>
       </defs>
       <use xlink:href="#DejaVuSans-30"/>
       <use x="63.623047" xlink:href="#DejaVuSans-2e"/>
       <use x="95.410156" xlink:href="#DejaVuSans-36"/>
      </g>
     </g>
    </g>
    <g id="ytick_5">
     <g id="line2d_14">
      <g>
       <use style="stroke:#000000;stroke-width:0.8;" x="162" xlink:href="#me708d012e5" y="435.513781"/>
      </g>
     </g>
     <g id="text_14">
      <!-- 0.8 -->
      <g transform="translate(139.096875 439.313)scale(0.1 -0.1)">
       <defs>
        <path d="M 2034 2216 
Q 1584 2216 1326 1975 
Q 1069 1734 1069 1313 
Q 1069 891 1326 650 
Q 1584 409 2034 409 
Q 2484 409 2743 651 
Q 3003 894 3003 1313 
Q 3003 1734 2745 1975 
Q 2488 2216 2034 2216 
z
M 1403 2484 
Q 997 2584 770 2862 
Q 544 3141 544 3541 
Q 544 4100 942 4425 
Q 1341 4750 2034 4750 
Q 2731 4750 3128 4425 
Q 3525 4100 3525 3541 
Q 3525 3141 3298 2862 
Q 3072 2584 2669 2484 
Q 3125 2378 3379 2068 
Q 3634 1759 3634 1313 
Q 3634 634 3220 271 
Q 2806 -91 2034 -91 
Q 1263 -91 848 271 
Q 434 634 434 1313 
Q 434 1759 690 2068 
Q 947 2378 1403 2484 
z
M 1172 3481 
Q 1172 3119 1398 2916 
Q 1625 2713 2034 2713 
Q 2441 2713 2670 2916 
Q 2900 3119 2900 3481 
Q 2900 3844 2670 4047 
Q 2441 4250 2034 4250 
Q 1625 4250 1398 4047 
Q 1172 3844 1172 3481 
z
" id="DejaVuSans-38" transform="scale(0.015625)"/>
       </defs>
       <use xlink:href="#DejaVuSans-30"/>
       <use x="63.623047" xlink:href="#DejaVuSans-2e"/>
       <use x="95.410156" xlink:href="#DejaVuSans-38"/>
      </g>
     </g>
    </g>
    <g id="ytick_6">
     <g id="line2d_15">
      <g>
       <use style="stroke:#000000;stroke-width:0.8;" x="162" xlink:href="#me708d012e5" y="352.152227"/>
      </g>
     </g>
     <g id="text_15">
      <!-- 1.0 -->
      <g transform="translate(139.096875 355.951445)scale(0.1 -0.1)">
       <defs>
        <path d="M 794 531 
L 1825 531 
L 1825 4091 
L 703 3866 
L 703 4441 
L 1819 4666 
L 2450 4666 
L 2450 531 
L 3481 531 
L 3481 0 
L 794 0 
L 794 531 
z
" id="DejaVuSans-31" transform="scale(0.015625)"/>
       </defs>
       <use xlink:href="#DejaVuSans-31"/>
       <use x="63.623047" xlink:href="#DejaVuSans-2e"/>
       <use x="95.410156" xlink:href="#DejaVuSans-30"/>
      </g>
     </g>
    </g>
    <g id="ytick_7">
     <g id="line2d_16">
      <g>
       <use style="stroke:#000000;stroke-width:0.8;" x="162" xlink:href="#me708d012e5" y="268.790672"/>
      </g>
     </g>
     <g id="text_16">
      <!-- 1.2 -->
      <g transform="translate(139.096875 272.589891)scale(0.1 -0.1)">
       <use xlink:href="#DejaVuSans-31"/>
       <use x="63.623047" xlink:href="#DejaVuSans-2e"/>
       <use x="95.410156" xlink:href="#DejaVuSans-32"/>
      </g>
     </g>
    </g>
    <g id="ytick_8">
     <g id="line2d_17">
      <g>
       <use style="stroke:#000000;stroke-width:0.8;" x="162" xlink:href="#me708d012e5" y="185.429117"/>
      </g>
     </g>
     <g id="text_17">
      <!-- 1.4 -->
      <g transform="translate(139.096875 189.228336)scale(0.1 -0.1)">
       <use xlink:href="#DejaVuSans-31"/>
       <use x="63.623047" xlink:href="#DejaVuSans-2e"/>
       <use x="95.410156" xlink:href="#DejaVuSans-34"/>
      </g>
     </g>
    </g>
    <g id="text_18">
     <!-- Persons fully vaccinated (tens of millions) -->
     <g transform="translate(133.017188 540.480156)rotate(-90)scale(0.1 -0.1)">
      <defs>
       <path d="M 1259 4147 
L 1259 2394 
L 2053 2394 
Q 2494 2394 2734 2622 
Q 2975 2850 2975 3272 
Q 2975 3691 2734 3919 
Q 2494 4147 2053 4147 
L 1259 4147 
z
M 628 4666 
L 2053 4666 
Q 2838 4666 3239 4311 
Q 3641 3956 3641 3272 
Q 3641 2581 3239 2228 
Q 2838 1875 2053 1875 
L 1259 1875 
L 1259 0 
L 628 0 
L 628 4666 
z
" id="DejaVuSans-50" transform="scale(0.015625)"/>
       <path d="M 1959 3097 
Q 1497 3097 1228 2736 
Q 959 2375 959 1747 
Q 959 1119 1226 758 
Q 1494 397 1959 397 
Q 2419 397 2687 759 
Q 2956 1122 2956 1747 
Q 2956 2369 2687 2733 
Q 2419 3097 1959 3097 
z
M 1959 3584 
Q 2709 3584 3137 3096 
Q 3566 2609 3566 1747 
Q 3566 888 3137 398 
Q 2709 -91 1959 -91 
Q 1206 -91 779 398 
Q 353 888 353 1747 
Q 353 2609 779 3096 
Q 1206 3584 1959 3584 
z
" id="DejaVuSans-6f" transform="scale(0.015625)"/>
       <path id="DejaVuSans-20" transform="scale(0.015625)"/>
       <path d="M 2375 4863 
L 2375 4384 
L 1825 4384 
Q 1516 4384 1395 4259 
Q 1275 4134 1275 3809 
L 1275 3500 
L 2222 3500 
L 2222 3053 
L 1275 3053 
L 1275 0 
L 697 0 
L 697 3053 
L 147 3053 
L 147 3500 
L 697 3500 
L 697 3744 
Q 697 4328 969 4595 
Q 1241 4863 1831 4863 
L 2375 4863 
z
" id="DejaVuSans-66" transform="scale(0.015625)"/>
       <path d="M 191 3500 
L 800 3500 
L 1894 563 
L 2988 3500 
L 3597 3500 
L 2284 0 
L 1503 0 
L 191 3500 
z
" id="DejaVuSans-76" transform="scale(0.015625)"/>
       <path d="M 2906 2969 
L 2906 4863 
L 3481 4863 
L 3481 0 
L 2906 0 
L 2906 525 
Q 2725 213 2448 61 
Q 2172 -91 1784 -91 
Q 1150 -91 751 415 
Q 353 922 353 1747 
Q 353 2572 751 3078 
Q 1150 3584 1784 3584 
Q 2172 3584 2448 3432 
Q 2725 3281 2906 2969 
z
M 947 1747 
Q 947 1113 1208 752 
Q 1469 391 1925 391 
Q 2381 391 2643 752 
Q 2906 1113 2906 1747 
Q 2906 2381 2643 2742 
Q 2381 3103 1925 3103 
Q 1469 3103 1208 2742 
Q 947 2381 947 1747 
z
" id="DejaVuSans-64" transform="scale(0.015625)"/>
       <path d="M 1984 4856 
Q 1566 4138 1362 3434 
Q 1159 2731 1159 2009 
Q 1159 1288 1364 580 
Q 1569 -128 1984 -844 
L 1484 -844 
Q 1016 -109 783 600 
Q 550 1309 550 2009 
Q 550 2706 781 3412 
Q 1013 4119 1484 4856 
L 1984 4856 
z
" id="DejaVuSans-28" transform="scale(0.015625)"/>
       <path d="M 513 4856 
L 1013 4856 
Q 1481 4119 1714 3412 
Q 1947 2706 1947 2009 
Q 1947 1309 1714 600 
Q 1481 -109 1013 -844 
L 513 -844 
Q 928 -128 1133 580 
Q 1338 1288 1338 2009 
Q 1338 2731 1133 3434 
Q 928 4138 513 4856 
z
" id="DejaVuSans-29" transform="scale(0.015625)"/>
      </defs>
      <use xlink:href="#DejaVuSans-50"/>
      <use x="56.677734" xlink:href="#DejaVuSans-65"/>
      <use x="118.201172" xlink:href="#DejaVuSans-72"/>
      <use x="159.314453" xlink:href="#DejaVuSans-73"/>
      <use x="211.414062" xlink:href="#DejaVuSans-6f"/>
      <use x="272.595703" xlink:href="#DejaVuSans-6e"/>
      <use x="335.974609" xlink:href="#DejaVuSans-73"/>
      <use x="388.074219" xlink:href="#DejaVuSans-20"/>
      <use x="419.861328" xlink:href="#DejaVuSans-66"/>
      <use x="455.066406" xlink:href="#DejaVuSans-75"/>
      <use x="518.445312" xlink:href="#DejaVuSans-6c"/>
      <use x="546.228516" xlink:href="#DejaVuSans-6c"/>
      <use x="574.011719" xlink:href="#DejaVuSans-79"/>
      <use x="633.191406" xlink:href="#DejaVuSans-20"/>
      <use x="664.978516" xlink:href="#DejaVuSans-76"/>
      <use x="724.158203" xlink:href="#DejaVuSans-61"/>
      <use x="785.4375" xlink:href="#DejaVuSans-63"/>
      <use x="840.417969" xlink:href="#DejaVuSans-63"/>
      <use x="895.398438" xlink:href="#DejaVuSans-69"/>
      <use x="923.181641" xlink:href="#DejaVuSans-6e"/>
      <use x="986.560547" xlink:href="#DejaVuSans-61"/>
      <use x="1047.839844" xlink:href="#DejaVuSans-74"/>
      <use x="1087.048828" xlink:href="#DejaVuSans-65"/>
      <use x="1148.572266" xlink:href="#DejaVuSans-64"/>
      <use x="1212.048828" xlink:href="#DejaVuSans-20"/>
      <use x="1243.835938" xlink:href="#DejaVuSans-28"/>
      <use x="1282.849609" xlink:href="#DejaVuSans-74"/>
      <use x="1322.058594" xlink:href="#DejaVuSans-65"/>
      <use x="1383.582031" xlink:href="#DejaVuSans-6e"/>
      <use x="1446.960938" xlink:href="#DejaVuSans-73"/>
      <use x="1499.060547" xlink:href="#DejaVuSans-20"/>
      <use x="1530.847656" xlink:href="#DejaVuSans-6f"/>
      <use x="1592.029297" xlink:href="#DejaVuSans-66"/>
      <use x="1627.234375" xlink:href="#DejaVuSans-20"/>
      <use x="1659.021484" xlink:href="#DejaVuSans-6d"/>
      <use x="1756.433594" xlink:href="#DejaVuSans-69"/>
      <use x="1784.216797" xlink:href="#DejaVuSans-6c"/>
      <use x="1812" xlink:href="#DejaVuSans-6c"/>
      <use x="1839.783203" xlink:href="#DejaVuSans-69"/>
      <use x="1867.566406" xlink:href="#DejaVuSans-6f"/>
      <use x="1928.748047" xlink:href="#DejaVuSans-6e"/>
      <use x="1992.126953" xlink:href="#DejaVuSans-73"/>
      <use x="2044.226562" xlink:href="#DejaVuSans-29"/>
     </g>
    </g>
    <g id="text_19">
     <!-- 1e7 -->
     <g transform="translate(162 100.68)scale(0.1 -0.1)">
      <defs>
       <path d="M 525 4666 
L 3525 4666 
L 3525 4397 
L 1831 0 
L 1172 0 
L 2766 4134 
L 525 4134 
L 525 4666 
z
" id="DejaVuSans-37" transform="scale(0.015625)"/>
      </defs>
      <use xlink:href="#DejaVuSans-31"/>
      <use x="63.623047" xlink:href="#DejaVuSans-65"/>
      <use x="125.146484" xlink:href="#DejaVuSans-37"/>
     </g>
    </g>
   </g>
   <g id="patch_272">
    <path d="M 162 768.96 
L 162 103.68 
" style="fill:none;stroke:#000000;stroke-linecap:square;stroke-linejoin:miter;stroke-width:0.8;"/>
   </g>
   <g id="patch_273">
    <path d="M 1166.4 768.96 
L 1166.4 103.68 
" style="fill:none;stroke:#000000;stroke-linecap:square;stroke-linejoin:miter;stroke-width:0.8;"/>
   </g>
   <g id="patch_274">
    <path d="M 162 768.96 
L 1166.4 768.96 
" style="fill:none;stroke:#000000;stroke-linecap:square;stroke-linejoin:miter;stroke-width:0.8;"/>
   </g>
   <g id="patch_275">
    <path d="M 162 103.68 
L 1166.4 103.68 
" style="fill:none;stroke:#000000;stroke-linecap:square;stroke-linejoin:miter;stroke-width:0.8;"/>
   </g>
   <g id="text_20">
    <!-- Persons Fully Vaccinated -->
    <g transform="translate(590.380313 97.68)scale(0.12 -0.12)">
     <defs>
      <path d="M 1831 0 
L 50 4666 
L 709 4666 
L 2188 738 
L 3669 4666 
L 4325 4666 
L 2547 0 
L 1831 0 
z
" id="DejaVuSans-56" transform="scale(0.015625)"/>
     </defs>
     <use xlink:href="#DejaVuSans-50"/>
     <use x="56.677734" xlink:href="#DejaVuSans-65"/>
     <use x="118.201172" xlink:href="#DejaVuSans-72"/>
     <use x="159.314453" xlink:href="#DejaVuSans-73"/>
     <use x="211.414062" xlink:href="#DejaVuSans-6f"/>
     <use x="272.595703" xlink:href="#DejaVuSans-6e"/>
     <use x="335.974609" xlink:href="#DejaVuSans-73"/>
     <use x="388.074219" xlink:href="#DejaVuSans-20"/>
     <use x="419.861328" xlink:href="#DejaVuSans-46"/>
     <use x="471.880859" xlink:href="#DejaVuSans-75"/>
     <use x="535.259766" xlink:href="#DejaVuSans-6c"/>
     <use x="563.042969" xlink:href="#DejaVuSans-6c"/>
     <use x="590.826172" xlink:href="#DejaVuSans-79"/>
     <use x="650.005859" xlink:href="#DejaVuSans-20"/>
     <use x="681.792969" xlink:href="#DejaVuSans-56"/>
     <use x="742.451172" xlink:href="#DejaVuSans-61"/>
     <use x="803.730469" xlink:href="#DejaVuSans-63"/>
     <use x="858.710938" xlink:href="#DejaVuSans-63"/>
     <use x="913.691406" xlink:href="#DejaVuSans-69"/>
     <use x="941.474609" xlink:href="#DejaVuSans-6e"/>
     <use x="1004.853516" xlink:href="#DejaVuSans-61"/>
     <use x="1066.132812" xlink:href="#DejaVuSans-74"/>
     <use x="1105.341797" xlink:href="#DejaVuSans-65"/>
     <use x="1166.865234" xlink:href="#DejaVuSans-64"/>
    </g>
   </g>
  </g>
 </g>
 <defs>
  <clipPath id="p0616f38146">
   <rect height="665.28" width="1004.4" x="162" y="103.68"/>
  </clipPath>
 </defs>
</svg>
