<?xml version="1.0" encoding="utf-8" standalone="no"?>
<!DOCTYPE svg PUBLIC "-//W3C//DTD SVG 1.1//EN"
  "http://www.w3.org/Graphics/SVG/1.1/DTD/svg11.dtd">
<svg height="864pt" version="1.1" viewBox="0 0 1296 864" width="1296pt" xmlns="http://www.w3.org/2000/svg" xmlns:xlink="http://www.w3.org/1999/xlink">
 <metadata>
  <rdf:RDF xmlns:cc="http://creativecommons.org/ns#" xmlns:dc="http://purl.org/dc/elements/1.1/" xmlns:rdf="http://www.w3.org/1999/02/22-rdf-syntax-ns#">
   <cc:Work>
    <dc:type rdf:resource="http://purl.org/dc/dcmitype/StillImage"/>
    <dc:date>2021-10-26T17:12:33.691982</dc:date>
    <dc:format>image/svg+xml</dc:format>
    <dc:creator>
     <cc:Agent>
      <dc:title>Matplotlib v3.4.2, https://matplotlib.org/</dc:title>
     </cc:Agent>
    </dc:creator>
   </cc:Work>
  </rdf:RDF>
 </metadata>
 <defs>
  <style type="text/css">*{stroke-linecap:butt;stroke-linejoin:round;}</style>
 </defs>
 <g id="figure_1">
  <g id="patch_1">
   <path d="M 0 864 
L 1296 864 
L 1296 0 
L 0 0 
z
" style="fill:#ffffff;"/>
  </g>
  <g id="axes_1">
   <g id="patch_2">
    <path d="M 162 768.96 
L 1166.4 768.96 
L 1166.4 103.68 
L 162 103.68 
z
" style="fill:#ffffff;"/>
   </g>
   <g id="patch_3">
    <path clip-path="url(#p7285678b2a)" d="M 162.851186 768.96 
L 164.553559 768.96 
L 164.553559 768.957273 
L 162.851186 768.957273 
z
" style="fill:#1f77b4;"/>
   </g>
   <g id="patch_4">
    <path clip-path="url(#p7285678b2a)" d="M 166.255932 768.96 
L 167.958305 768.96 
L 167.958305 768.946284 
L 166.255932 768.946284 
z
" style="fill:#1f77b4;"/>
   </g>
   <g id="patch_5">
    <path clip-path="url(#p7285678b2a)" d="M 169.660678 768.96 
L 171.363051 768.96 
L 171.363051 768.91694 
L 169.660678 768.91694 
z
" style="fill:#1f77b4;"/>
   </g>
   <g id="patch_6">
    <path clip-path="url(#p7285678b2a)" d="M 173.065424 768.96 
L 174.767797 768.96 
L 174.767797 768.713283 
L 173.065424 768.713283 
z
" style="fill:#1f77b4;"/>
   </g>
   <g id="patch_7">
    <path clip-path="url(#p7285678b2a)" d="M 176.470169 768.96 
L 178.172542 768.96 
L 178.172542 767.246207 
L 176.470169 767.246207 
z
" style="fill:#1f77b4;"/>
   </g>
   <g id="patch_8">
    <path clip-path="url(#p7285678b2a)" d="M 179.874915 768.96 
L 181.577288 768.96 
L 181.577288 765.488948 
L 179.874915 765.488948 
z
" style="fill:#1f77b4;"/>
   </g>
   <g id="patch_9">
    <path clip-path="url(#p7285678b2a)" d="M 183.279661 768.96 
L 184.982034 768.96 
L 184.982034 764.529429 
L 183.279661 764.529429 
z
" style="fill:#1f77b4;"/>
   </g>
   <g id="patch_10">
    <path clip-path="url(#p7285678b2a)" d="M 186.684407 768.96 
L 188.38678 768.96 
L 188.38678 763.947718 
L 186.684407 763.947718 
z
" style="fill:#1f77b4;"/>
   </g>
   <g id="patch_11">
    <path clip-path="url(#p7285678b2a)" d="M 190.089153 768.96 
L 191.791525 768.96 
L 191.791525 763.033782 
L 190.089153 763.033782 
z
" style="fill:#1f77b4;"/>
   </g>
   <g id="patch_12">
    <path clip-path="url(#p7285678b2a)" d="M 193.493898 768.96 
L 195.196271 768.96 
L 195.196271 762.162825 
L 193.493898 762.162825 
z
" style="fill:#1f77b4;"/>
   </g>
   <g id="patch_13">
    <path clip-path="url(#p7285678b2a)" d="M 196.898644 768.96 
L 198.601017 768.96 
L 198.601017 761.451814 
L 196.898644 761.451814 
z
" style="fill:#1f77b4;"/>
   </g>
   <g id="patch_14">
    <path clip-path="url(#p7285678b2a)" d="M 200.30339 768.96 
L 202.005763 768.96 
L 202.005763 760.581059 
L 200.30339 760.581059 
z
" style="fill:#1f77b4;"/>
   </g>
   <g id="patch_15">
    <path clip-path="url(#p7285678b2a)" d="M 203.708136 768.96 
L 205.410508 768.96 
L 205.410508 760.39946 
L 203.708136 760.39946 
z
" style="fill:#1f77b4;"/>
   </g>
   <g id="patch_16">
    <path clip-path="url(#p7285678b2a)" d="M 207.112881 768.96 
L 208.815254 768.96 
L 208.815254 760.287416 
L 207.112881 760.287416 
z
" style="fill:#1f77b4;"/>
   </g>
   <g id="patch_17">
    <path clip-path="url(#p7285678b2a)" d="M 210.517627 768.96 
L 212.22 768.96 
L 212.22 760.234345 
L 210.517627 760.234345 
z
" style="fill:#1f77b4;"/>
   </g>
   <g id="patch_18">
    <path clip-path="url(#p7285678b2a)" d="M 213.922373 768.96 
L 215.624746 768.96 
L 215.624746 759.99129 
L 213.922373 759.99129 
z
" style="fill:#1f77b4;"/>
   </g>
   <g id="patch_19">
    <path clip-path="url(#p7285678b2a)" d="M 217.327119 768.96 
L 219.029492 768.96 
L 219.029492 759.582062 
L 217.327119 759.582062 
z
" style="fill:#1f77b4;"/>
   </g>
   <g id="patch_20">
    <path clip-path="url(#p7285678b2a)" d="M 220.731864 768.96 
L 222.434237 768.96 
L 222.434237 758.784973 
L 220.731864 758.784973 
z
" style="fill:#1f77b4;"/>
   </g>
   <g id="patch_21">
    <path clip-path="url(#p7285678b2a)" d="M 224.13661 768.96 
L 225.838983 768.96 
L 225.838983 757.992808 
L 224.13661 757.992808 
z
" style="fill:#1f77b4;"/>
   </g>
   <g id="patch_22">
    <path clip-path="url(#p7285678b2a)" d="M 227.541356 768.96 
L 229.243729 768.96 
L 229.243729 757.422331 
L 227.541356 757.422331 
z
" style="fill:#1f77b4;"/>
   </g>
   <g id="patch_23">
    <path clip-path="url(#p7285678b2a)" d="M 230.946102 768.96 
L 232.648475 768.96 
L 232.648475 757.215702 
L 230.946102 757.215702 
z
" style="fill:#1f77b4;"/>
   </g>
   <g id="patch_24">
    <path clip-path="url(#p7285678b2a)" d="M 234.350847 768.96 
L 236.05322 768.96 
L 236.05322 756.932966 
L 234.350847 756.932966 
z
" style="fill:#1f77b4;"/>
   </g>
   <g id="patch_25">
    <path clip-path="url(#p7285678b2a)" d="M 237.755593 768.96 
L 239.457966 768.96 
L 239.457966 756.178123 
L 237.755593 756.178123 
z
" style="fill:#1f77b4;"/>
   </g>
   <g id="patch_26">
    <path clip-path="url(#p7285678b2a)" d="M 241.160339 768.96 
L 242.862712 768.96 
L 242.862712 754.922112 
L 241.160339 754.922112 
z
" style="fill:#1f77b4;"/>
   </g>
   <g id="patch_27">
    <path clip-path="url(#p7285678b2a)" d="M 244.565085 768.96 
L 246.267458 768.96 
L 246.267458 753.179056 
L 244.565085 753.179056 
z
" style="fill:#1f77b4;"/>
   </g>
   <g id="patch_28">
    <path clip-path="url(#p7285678b2a)" d="M 247.969831 768.96 
L 249.672203 768.96 
L 249.672203 751.707666 
L 247.969831 751.707666 
z
" style="fill:#1f77b4;"/>
   </g>
   <g id="patch_29">
    <path clip-path="url(#p7285678b2a)" d="M 251.374576 768.96 
L 253.076949 768.96 
L 253.076949 750.377868 
L 251.374576 750.377868 
z
" style="fill:#1f77b4;"/>
   </g>
   <g id="patch_30">
    <path clip-path="url(#p7285678b2a)" d="M 254.779322 768.96 
L 256.481695 768.96 
L 256.481695 749.642804 
L 254.779322 749.642804 
z
" style="fill:#1f77b4;"/>
   </g>
   <g id="patch_31">
    <path clip-path="url(#p7285678b2a)" d="M 258.184068 768.96 
L 259.886441 768.96 
L 259.886441 749.230849 
L 258.184068 749.230849 
z
" style="fill:#1f77b4;"/>
   </g>
   <g id="patch_32">
    <path clip-path="url(#p7285678b2a)" d="M 261.588814 768.96 
L 263.291186 768.96 
L 263.291186 748.515117 
L 261.588814 748.515117 
z
" style="fill:#1f77b4;"/>
   </g>
   <g id="patch_33">
    <path clip-path="url(#p7285678b2a)" d="M 264.993559 768.96 
L 266.695932 768.96 
L 266.695932 746.9653 
L 264.993559 746.9653 
z
" style="fill:#1f77b4;"/>
   </g>
   <g id="patch_34">
    <path clip-path="url(#p7285678b2a)" d="M 268.398305 768.96 
L 270.100678 768.96 
L 270.100678 745.814049 
L 268.398305 745.814049 
z
" style="fill:#1f77b4;"/>
   </g>
   <g id="patch_35">
    <path clip-path="url(#p7285678b2a)" d="M 271.803051 768.96 
L 273.505424 768.96 
L 273.505424 744.243516 
L 271.803051 744.243516 
z
" style="fill:#1f77b4;"/>
   </g>
   <g id="patch_36">
    <path clip-path="url(#p7285678b2a)" d="M 275.207797 768.96 
L 276.910169 768.96 
L 276.910169 743.007896 
L 275.207797 743.007896 
z
" style="fill:#1f77b4;"/>
   </g>
   <g id="patch_37">
    <path clip-path="url(#p7285678b2a)" d="M 278.612542 768.96 
L 280.314915 768.96 
L 280.314915 741.910285 
L 278.612542 741.910285 
z
" style="fill:#1f77b4;"/>
   </g>
   <g id="patch_38">
    <path clip-path="url(#p7285678b2a)" d="M 282.017288 768.96 
L 283.719661 768.96 
L 283.719661 741.535 
L 282.017288 741.535 
z
" style="fill:#1f77b4;"/>
   </g>
   <g id="patch_39">
    <path clip-path="url(#p7285678b2a)" d="M 285.422034 768.96 
L 287.124407 768.96 
L 287.124407 740.263442 
L 285.422034 740.263442 
z
" style="fill:#1f77b4;"/>
   </g>
   <g id="patch_40">
    <path clip-path="url(#p7285678b2a)" d="M 288.82678 768.96 
L 290.529153 768.96 
L 290.529153 738.696817 
L 288.82678 738.696817 
z
" style="fill:#1f77b4;"/>
   </g>
   <g id="patch_41">
    <path clip-path="url(#p7285678b2a)" d="M 292.231525 768.96 
L 293.933898 768.96 
L 293.933898 736.804315 
L 292.231525 736.804315 
z
" style="fill:#1f77b4;"/>
   </g>
   <g id="patch_42">
    <path clip-path="url(#p7285678b2a)" d="M 295.636271 768.96 
L 297.338644 768.96 
L 297.338644 734.105322 
L 295.636271 734.105322 
z
" style="fill:#1f77b4;"/>
   </g>
   <g id="patch_43">
    <path clip-path="url(#p7285678b2a)" d="M 299.041017 768.96 
L 300.74339 768.96 
L 300.74339 731.665744 
L 299.041017 731.665744 
z
" style="fill:#1f77b4;"/>
   </g>
   <g id="patch_44">
    <path clip-path="url(#p7285678b2a)" d="M 302.445763 768.96 
L 304.148136 768.96 
L 304.148136 730.137213 
L 302.445763 730.137213 
z
" style="fill:#1f77b4;"/>
   </g>
   <g id="patch_45">
    <path clip-path="url(#p7285678b2a)" d="M 305.850508 768.96 
L 307.552881 768.96 
L 307.552881 729.311227 
L 305.850508 729.311227 
z
" style="fill:#1f77b4;"/>
   </g>
   <g id="patch_46">
    <path clip-path="url(#p7285678b2a)" d="M 309.255254 768.96 
L 310.957627 768.96 
L 310.957627 728.509417 
L 309.255254 728.509417 
z
" style="fill:#1f77b4;"/>
   </g>
   <g id="patch_47">
    <path clip-path="url(#p7285678b2a)" d="M 312.66 768.96 
L 314.362373 768.96 
L 314.362373 726.942181 
L 312.66 726.942181 
z
" style="fill:#1f77b4;"/>
   </g>
   <g id="patch_48">
    <path clip-path="url(#p7285678b2a)" d="M 316.064746 768.96 
L 317.767119 768.96 
L 317.767119 724.344814 
L 316.064746 724.344814 
z
" style="fill:#1f77b4;"/>
   </g>
   <g id="patch_49">
    <path clip-path="url(#p7285678b2a)" d="M 319.469492 768.96 
L 321.171864 768.96 
L 321.171864 720.956624 
L 319.469492 720.956624 
z
" style="fill:#1f77b4;"/>
   </g>
   <g id="patch_50">
    <path clip-path="url(#p7285678b2a)" d="M 322.874237 768.96 
L 324.57661 768.96 
L 324.57661 717.761064 
L 322.874237 717.761064 
z
" style="fill:#1f77b4;"/>
   </g>
   <g id="patch_51">
    <path clip-path="url(#p7285678b2a)" d="M 326.278983 768.96 
L 327.981356 768.96 
L 327.981356 717.249518 
L 326.278983 717.249518 
z
" style="fill:#1f77b4;"/>
   </g>
   <g id="patch_52">
    <path clip-path="url(#p7285678b2a)" d="M 329.683729 768.96 
L 331.386102 768.96 
L 331.386102 714.909653 
L 329.683729 714.909653 
z
" style="fill:#1f77b4;"/>
   </g>
   <g id="patch_53">
    <path clip-path="url(#p7285678b2a)" d="M 333.088475 768.96 
L 334.790847 768.96 
L 334.790847 713.030907 
L 333.088475 713.030907 
z
" style="fill:#1f77b4;"/>
   </g>
   <g id="patch_54">
    <path clip-path="url(#p7285678b2a)" d="M 336.49322 768.96 
L 338.195593 768.96 
L 338.195593 710.208678 
L 336.49322 710.208678 
z
" style="fill:#1f77b4;"/>
   </g>
   <g id="patch_55">
    <path clip-path="url(#p7285678b2a)" d="M 339.897966 768.96 
L 341.600339 768.96 
L 341.600339 704.825303 
L 339.897966 704.825303 
z
" style="fill:#1f77b4;"/>
   </g>
   <g id="patch_56">
    <path clip-path="url(#p7285678b2a)" d="M 343.302712 768.96 
L 345.005085 768.96 
L 345.005085 699.184019 
L 343.302712 699.184019 
z
" style="fill:#1f77b4;"/>
   </g>
   <g id="patch_57">
    <path clip-path="url(#p7285678b2a)" d="M 346.707458 768.96 
L 348.409831 768.96 
L 348.409831 694.248374 
L 346.707458 694.248374 
z
" style="fill:#1f77b4;"/>
   </g>
   <g id="patch_58">
    <path clip-path="url(#p7285678b2a)" d="M 350.112203 768.96 
L 351.814576 768.96 
L 351.814576 689.995454 
L 350.112203 689.995454 
z
" style="fill:#1f77b4;"/>
   </g>
   <g id="patch_59">
    <path clip-path="url(#p7285678b2a)" d="M 353.516949 768.96 
L 355.219322 768.96 
L 355.219322 687.987326 
L 353.516949 687.987326 
z
" style="fill:#1f77b4;"/>
   </g>
   <g id="patch_60">
    <path clip-path="url(#p7285678b2a)" d="M 356.921695 768.96 
L 358.624068 768.96 
L 358.624068 684.921961 
L 356.921695 684.921961 
z
" style="fill:#1f77b4;"/>
   </g>
   <g id="patch_61">
    <path clip-path="url(#p7285678b2a)" d="M 360.326441 768.96 
L 362.028814 768.96 
L 362.028814 680.735014 
L 360.326441 680.735014 
z
" style="fill:#1f77b4;"/>
   </g>
   <g id="patch_62">
    <path clip-path="url(#p7285678b2a)" d="M 363.731186 768.96 
L 365.433559 768.96 
L 365.433559 675.953577 
L 363.731186 675.953577 
z
" style="fill:#1f77b4;"/>
   </g>
   <g id="patch_63">
    <path clip-path="url(#p7285678b2a)" d="M 367.135932 768.96 
L 368.838305 768.96 
L 368.838305 669.001867 
L 367.135932 669.001867 
z
" style="fill:#1f77b4;"/>
   </g>
   <g id="patch_64">
    <path clip-path="url(#p7285678b2a)" d="M 370.540678 768.96 
L 372.243051 768.96 
L 372.243051 662.522673 
L 370.540678 662.522673 
z
" style="fill:#1f77b4;"/>
   </g>
   <g id="patch_65">
    <path clip-path="url(#p7285678b2a)" d="M 373.945424 768.96 
L 375.647797 768.96 
L 375.647797 657.645268 
L 373.945424 657.645268 
z
" style="fill:#1f77b4;"/>
   </g>
   <g id="patch_66">
    <path clip-path="url(#p7285678b2a)" d="M 377.350169 768.96 
L 379.052542 768.96 
L 379.052542 656.108068 
L 377.350169 656.108068 
z
" style="fill:#1f77b4;"/>
   </g>
   <g id="patch_67">
    <path clip-path="url(#p7285678b2a)" d="M 380.754915 768.96 
L 382.457288 768.96 
L 382.457288 651.939272 
L 380.754915 651.939272 
z
" style="fill:#1f77b4;"/>
   </g>
   <g id="patch_68">
    <path clip-path="url(#p7285678b2a)" d="M 384.159661 768.96 
L 385.862034 768.96 
L 385.862034 646.520408 
L 384.159661 646.520408 
z
" style="fill:#1f77b4;"/>
   </g>
   <g id="patch_69">
    <path clip-path="url(#p7285678b2a)" d="M 387.564407 768.96 
L 389.26678 768.96 
L 389.26678 640.509089 
L 387.564407 640.509089 
z
" style="fill:#1f77b4;"/>
   </g>
   <g id="patch_70">
    <path clip-path="url(#p7285678b2a)" d="M 390.969153 768.96 
L 392.671525 768.96 
L 392.671525 634.098798 
L 390.969153 634.098798 
z
" style="fill:#1f77b4;"/>
   </g>
   <g id="patch_71">
    <path clip-path="url(#p7285678b2a)" d="M 394.373898 768.96 
L 396.076271 768.96 
L 396.076271 626.864638 
L 394.373898 626.864638 
z
" style="fill:#1f77b4;"/>
   </g>
   <g id="patch_72">
    <path clip-path="url(#p7285678b2a)" d="M 397.778644 768.96 
L 399.481017 768.96 
L 399.481017 622.169727 
L 397.778644 622.169727 
z
" style="fill:#1f77b4;"/>
   </g>
   <g id="patch_73">
    <path clip-path="url(#p7285678b2a)" d="M 401.18339 768.96 
L 402.885763 768.96 
L 402.885763 617.53094 
L 401.18339 617.53094 
z
" style="fill:#1f77b4;"/>
   </g>
   <g id="patch_74">
    <path clip-path="url(#p7285678b2a)" d="M 404.588136 768.96 
L 406.290508 768.96 
L 406.290508 613.41546 
L 404.588136 613.41546 
z
" style="fill:#1f77b4;"/>
   </g>
   <g id="patch_75">
    <path clip-path="url(#p7285678b2a)" d="M 407.992881 768.96 
L 409.695254 768.96 
L 409.695254 608.76833 
L 407.992881 608.76833 
z
" style="fill:#1f77b4;"/>
   </g>
   <g id="patch_76">
    <path clip-path="url(#p7285678b2a)" d="M 411.397627 768.96 
L 413.1 768.96 
L 413.1 604.607023 
L 411.397627 604.607023 
z
" style="fill:#1f77b4;"/>
   </g>
   <g id="patch_77">
    <path clip-path="url(#p7285678b2a)" d="M 414.802373 768.96 
L 416.504746 768.96 
L 416.504746 599.874872 
L 414.802373 599.874872 
z
" style="fill:#1f77b4;"/>
   </g>
   <g id="patch_78">
    <path clip-path="url(#p7285678b2a)" d="M 418.207119 768.96 
L 419.909492 768.96 
L 419.909492 595.043376 
L 418.207119 595.043376 
z
" style="fill:#1f77b4;"/>
   </g>
   <g id="patch_79">
    <path clip-path="url(#p7285678b2a)" d="M 421.611864 768.96 
L 423.314237 768.96 
L 423.314237 592.206739 
L 421.611864 592.206739 
z
" style="fill:#1f77b4;"/>
   </g>
   <g id="patch_80">
    <path clip-path="url(#p7285678b2a)" d="M 425.01661 768.96 
L 426.718983 768.96 
L 426.718983 590.643329 
L 425.01661 590.643329 
z
" style="fill:#1f77b4;"/>
   </g>
   <g id="patch_81">
    <path clip-path="url(#p7285678b2a)" d="M 428.421356 768.96 
L 430.123729 768.96 
L 430.123729 588.054223 
L 428.421356 588.054223 
z
" style="fill:#1f77b4;"/>
   </g>
   <g id="patch_82">
    <path clip-path="url(#p7285678b2a)" d="M 431.826102 768.96 
L 433.528475 768.96 
L 433.528475 584.960939 
L 431.826102 584.960939 
z
" style="fill:#1f77b4;"/>
   </g>
   <g id="patch_83">
    <path clip-path="url(#p7285678b2a)" d="M 435.230847 768.96 
L 436.93322 768.96 
L 436.93322 581.729359 
L 435.230847 581.729359 
z
" style="fill:#1f77b4;"/>
   </g>
   <g id="patch_84">
    <path clip-path="url(#p7285678b2a)" d="M 438.635593 768.96 
L 440.337966 768.96 
L 440.337966 577.526865 
L 438.635593 577.526865 
z
" style="fill:#1f77b4;"/>
   </g>
   <g id="patch_85">
    <path clip-path="url(#p7285678b2a)" d="M 442.040339 768.96 
L 443.742712 768.96 
L 443.742712 572.319961 
L 442.040339 572.319961 
z
" style="fill:#1f77b4;"/>
   </g>
   <g id="patch_86">
    <path clip-path="url(#p7285678b2a)" d="M 445.445085 768.96 
L 447.147458 768.96 
L 447.147458 567.823295 
L 445.445085 567.823295 
z
" style="fill:#1f77b4;"/>
   </g>
   <g id="patch_87">
    <path clip-path="url(#p7285678b2a)" d="M 448.849831 768.96 
L 450.552203 768.96 
L 450.552203 566.041006 
L 448.849831 566.041006 
z
" style="fill:#1f77b4;"/>
   </g>
   <g id="patch_88">
    <path clip-path="url(#p7285678b2a)" d="M 452.254576 768.96 
L 453.956949 768.96 
L 453.956949 563.317309 
L 452.254576 563.317309 
z
" style="fill:#1f77b4;"/>
   </g>
   <g id="patch_89">
    <path clip-path="url(#p7285678b2a)" d="M 455.659322 768.96 
L 457.361695 768.96 
L 457.361695 558.374663 
L 455.659322 558.374663 
z
" style="fill:#1f77b4;"/>
   </g>
   <g id="patch_90">
    <path clip-path="url(#p7285678b2a)" d="M 459.064068 768.96 
L 460.766441 768.96 
L 460.766441 554.204606 
L 459.064068 554.204606 
z
" style="fill:#1f77b4;"/>
   </g>
   <g id="patch_91">
    <path clip-path="url(#p7285678b2a)" d="M 462.468814 768.96 
L 464.171186 768.96 
L 464.171186 548.415422 
L 462.468814 548.415422 
z
" style="fill:#1f77b4;"/>
   </g>
   <g id="patch_92">
    <path clip-path="url(#p7285678b2a)" d="M 465.873559 768.96 
L 467.575932 768.96 
L 467.575932 542.565393 
L 465.873559 542.565393 
z
" style="fill:#1f77b4;"/>
   </g>
   <g id="patch_93">
    <path clip-path="url(#p7285678b2a)" d="M 469.278305 768.96 
L 470.980678 768.96 
L 470.980678 538.125949 
L 469.278305 538.125949 
z
" style="fill:#1f77b4;"/>
   </g>
   <g id="patch_94">
    <path clip-path="url(#p7285678b2a)" d="M 472.683051 768.96 
L 474.385424 768.96 
L 474.385424 536.891265 
L 472.683051 536.891265 
z
" style="fill:#1f77b4;"/>
   </g>
   <g id="patch_95">
    <path clip-path="url(#p7285678b2a)" d="M 476.087797 768.96 
L 477.790169 768.96 
L 477.790169 532.714004 
L 476.087797 532.714004 
z
" style="fill:#1f77b4;"/>
   </g>
   <g id="patch_96">
    <path clip-path="url(#p7285678b2a)" d="M 479.492542 768.96 
L 481.194915 768.96 
L 481.194915 526.300131 
L 479.492542 526.300131 
z
" style="fill:#1f77b4;"/>
   </g>
   <g id="patch_97">
    <path clip-path="url(#p7285678b2a)" d="M 482.897288 768.96 
L 484.599661 768.96 
L 484.599661 519.178788 
L 482.897288 519.178788 
z
" style="fill:#1f77b4;"/>
   </g>
   <g id="patch_98">
    <path clip-path="url(#p7285678b2a)" d="M 486.302034 768.96 
L 488.004407 768.96 
L 488.004407 510.689431 
L 486.302034 510.689431 
z
" style="fill:#1f77b4;"/>
   </g>
   <g id="patch_99">
    <path clip-path="url(#p7285678b2a)" d="M 489.70678 768.96 
L 491.409153 768.96 
L 491.409153 500.711265 
L 489.70678 500.711265 
z
" style="fill:#1f77b4;"/>
   </g>
   <g id="patch_100">
    <path clip-path="url(#p7285678b2a)" d="M 493.111525 768.96 
L 494.813898 768.96 
L 494.813898 494.165202 
L 493.111525 494.165202 
z
" style="fill:#1f77b4;"/>
   </g>
   <g id="patch_101">
    <path clip-path="url(#p7285678b2a)" d="M 496.516271 768.96 
L 498.218644 768.96 
L 498.218644 491.001386 
L 496.516271 491.001386 
z
" style="fill:#1f77b4;"/>
   </g>
   <g id="patch_102">
    <path clip-path="url(#p7285678b2a)" d="M 499.921017 768.96 
L 501.62339 768.96 
L 501.62339 485.533399 
L 499.921017 485.533399 
z
" style="fill:#1f77b4;"/>
   </g>
   <g id="patch_103">
    <path clip-path="url(#p7285678b2a)" d="M 503.325763 768.96 
L 505.028136 768.96 
L 505.028136 478.757509 
L 503.325763 478.757509 
z
" style="fill:#1f77b4;"/>
   </g>
   <g id="patch_104">
    <path clip-path="url(#p7285678b2a)" d="M 506.730508 768.96 
L 508.432881 768.96 
L 508.432881 472.907235 
L 506.730508 472.907235 
z
" style="fill:#1f77b4;"/>
   </g>
   <g id="patch_105">
    <path clip-path="url(#p7285678b2a)" d="M 510.135254 768.96 
L 511.837627 768.96 
L 511.837627 464.945907 
L 510.135254 464.945907 
z
" style="fill:#1f77b4;"/>
   </g>
   <g id="patch_106">
    <path clip-path="url(#p7285678b2a)" d="M 513.54 768.96 
L 515.242373 768.96 
L 515.242373 457.225516 
L 513.54 457.225516 
z
" style="fill:#1f77b4;"/>
   </g>
   <g id="patch_107">
    <path clip-path="url(#p7285678b2a)" d="M 516.944746 768.96 
L 518.647119 768.96 
L 518.647119 451.920242 
L 516.944746 451.920242 
z
" style="fill:#1f77b4;"/>
   </g>
   <g id="patch_108">
    <path clip-path="url(#p7285678b2a)" d="M 520.349492 768.96 
L 522.051864 768.96 
L 522.051864 448.816417 
L 520.349492 448.816417 
z
" style="fill:#1f77b4;"/>
   </g>
   <g id="patch_109">
    <path clip-path="url(#p7285678b2a)" d="M 523.754237 768.96 
L 525.45661 768.96 
L 525.45661 444.37852 
L 523.754237 444.37852 
z
" style="fill:#1f77b4;"/>
   </g>
   <g id="patch_110">
    <path clip-path="url(#p7285678b2a)" d="M 527.158983 768.96 
L 528.861356 768.96 
L 528.861356 437.304062 
L 527.158983 437.304062 
z
" style="fill:#1f77b4;"/>
   </g>
   <g id="patch_111">
    <path clip-path="url(#p7285678b2a)" d="M 530.563729 768.96 
L 532.266102 768.96 
L 532.266102 431.056893 
L 530.563729 431.056893 
z
" style="fill:#1f77b4;"/>
   </g>
   <g id="patch_112">
    <path clip-path="url(#p7285678b2a)" d="M 533.968475 768.96 
L 535.670847 768.96 
L 535.670847 424.504929 
L 533.968475 424.504929 
z
" style="fill:#1f77b4;"/>
   </g>
   <g id="patch_113">
    <path clip-path="url(#p7285678b2a)" d="M 537.37322 768.96 
L 539.075593 768.96 
L 539.075593 418.515506 
L 537.37322 418.515506 
z
" style="fill:#1f77b4;"/>
   </g>
   <g id="patch_114">
    <path clip-path="url(#p7285678b2a)" d="M 540.777966 768.96 
L 542.480339 768.96 
L 542.480339 414.616178 
L 540.777966 414.616178 
z
" style="fill:#1f77b4;"/>
   </g>
   <g id="patch_115">
    <path clip-path="url(#p7285678b2a)" d="M 544.182712 768.96 
L 545.885085 768.96 
L 545.885085 413.005883 
L 544.182712 413.005883 
z
" style="fill:#1f77b4;"/>
   </g>
   <g id="patch_116">
    <path clip-path="url(#p7285678b2a)" d="M 547.587458 768.96 
L 549.289831 768.96 
L 549.289831 409.290514 
L 547.587458 409.290514 
z
" style="fill:#1f77b4;"/>
   </g>
   <g id="patch_117">
    <path clip-path="url(#p7285678b2a)" d="M 550.992203 768.96 
L 552.694576 768.96 
L 552.694576 403.991997 
L 550.992203 403.991997 
z
" style="fill:#1f77b4;"/>
   </g>
   <g id="patch_118">
    <path clip-path="url(#p7285678b2a)" d="M 554.396949 768.96 
L 556.099322 768.96 
L 556.099322 398.486078 
L 554.396949 398.486078 
z
" style="fill:#1f77b4;"/>
   </g>
   <g id="patch_119">
    <path clip-path="url(#p7285678b2a)" d="M 557.801695 768.96 
L 559.504068 768.96 
L 559.504068 393.144949 
L 557.801695 393.144949 
z
" style="fill:#1f77b4;"/>
   </g>
   <g id="patch_120">
    <path clip-path="url(#p7285678b2a)" d="M 561.206441 768.96 
L 562.908814 768.96 
L 562.908814 388.559966 
L 561.206441 388.559966 
z
" style="fill:#1f77b4;"/>
   </g>
   <g id="patch_121">
    <path clip-path="url(#p7285678b2a)" d="M 564.611186 768.96 
L 566.313559 768.96 
L 566.313559 386.524366 
L 564.611186 386.524366 
z
" style="fill:#1f77b4;"/>
   </g>
   <g id="patch_122">
    <path clip-path="url(#p7285678b2a)" d="M 568.015932 768.96 
L 569.718305 768.96 
L 569.718305 385.86431 
L 568.015932 385.86431 
z
" style="fill:#1f77b4;"/>
   </g>
   <g id="patch_123">
    <path clip-path="url(#p7285678b2a)" d="M 571.420678 768.96 
L 573.123051 768.96 
L 573.123051 383.606372 
L 571.420678 383.606372 
z
" style="fill:#1f77b4;"/>
   </g>
   <g id="patch_124">
    <path clip-path="url(#p7285678b2a)" d="M 574.825424 768.96 
L 576.527797 768.96 
L 576.527797 377.709987 
L 574.825424 377.709987 
z
" style="fill:#1f77b4;"/>
   </g>
   <g id="patch_125">
    <path clip-path="url(#p7285678b2a)" d="M 578.230169 768.96 
L 579.932542 768.96 
L 579.932542 372.02198 
L 578.230169 372.02198 
z
" style="fill:#1f77b4;"/>
   </g>
   <g id="patch_126">
    <path clip-path="url(#p7285678b2a)" d="M 581.634915 768.96 
L 583.337288 768.96 
L 583.337288 367.736338 
L 581.634915 367.736338 
z
" style="fill:#1f77b4;"/>
   </g>
   <g id="patch_127">
    <path clip-path="url(#p7285678b2a)" d="M 585.039661 768.96 
L 586.742034 768.96 
L 586.742034 361.428649 
L 585.039661 361.428649 
z
" style="fill:#1f77b4;"/>
   </g>
   <g id="patch_128">
    <path clip-path="url(#p7285678b2a)" d="M 588.444407 768.96 
L 590.14678 768.96 
L 590.14678 357.224812 
L 588.444407 357.224812 
z
" style="fill:#1f77b4;"/>
   </g>
   <g id="patch_129">
    <path clip-path="url(#p7285678b2a)" d="M 591.849153 768.96 
L 593.551525 768.96 
L 593.551525 353.480792 
L 591.849153 353.480792 
z
" style="fill:#1f77b4;"/>
   </g>
   <g id="patch_130">
    <path clip-path="url(#p7285678b2a)" d="M 595.253898 768.96 
L 596.956271 768.96 
L 596.956271 350.056584 
L 595.253898 350.056584 
z
" style="fill:#1f77b4;"/>
   </g>
   <g id="patch_131">
    <path clip-path="url(#p7285678b2a)" d="M 598.658644 768.96 
L 600.361017 768.96 
L 600.361017 345.67066 
L 598.658644 345.67066 
z
" style="fill:#1f77b4;"/>
   </g>
   <g id="patch_132">
    <path clip-path="url(#p7285678b2a)" d="M 602.06339 768.96 
L 603.765763 768.96 
L 603.765763 341.685335 
L 602.06339 341.685335 
z
" style="fill:#1f77b4;"/>
   </g>
   <g id="patch_133">
    <path clip-path="url(#p7285678b2a)" d="M 605.468136 768.96 
L 607.170508 768.96 
L 607.170508 337.566966 
L 605.468136 337.566966 
z
" style="fill:#1f77b4;"/>
   </g>
   <g id="patch_134">
    <path clip-path="url(#p7285678b2a)" d="M 608.872881 768.96 
L 610.575254 768.96 
L 610.575254 331.595043 
L 608.872881 331.595043 
z
" style="fill:#1f77b4;"/>
   </g>
   <g id="patch_135">
    <path clip-path="url(#p7285678b2a)" d="M 612.277627 768.96 
L 613.98 768.96 
L 613.98 328.333021 
L 612.277627 328.333021 
z
" style="fill:#1f77b4;"/>
   </g>
   <g id="patch_136">
    <path clip-path="url(#p7285678b2a)" d="M 615.682373 768.96 
L 617.384746 768.96 
L 617.384746 327.03391 
L 615.682373 327.03391 
z
" style="fill:#1f77b4;"/>
   </g>
   <g id="patch_137">
    <path clip-path="url(#p7285678b2a)" d="M 619.087119 768.96 
L 620.789492 768.96 
L 620.789492 324.724488 
L 619.087119 324.724488 
z
" style="fill:#1f77b4;"/>
   </g>
   <g id="patch_138">
    <path clip-path="url(#p7285678b2a)" d="M 622.491864 768.96 
L 624.194237 768.96 
L 624.194237 320.453212 
L 622.491864 320.453212 
z
" style="fill:#1f77b4;"/>
   </g>
   <g id="patch_139">
    <path clip-path="url(#p7285678b2a)" d="M 625.89661 768.96 
L 627.598983 768.96 
L 627.598983 316.632149 
L 625.89661 316.632149 
z
" style="fill:#1f77b4;"/>
   </g>
   <g id="patch_140">
    <path clip-path="url(#p7285678b2a)" d="M 629.301356 768.96 
L 631.003729 768.96 
L 631.003729 311.169167 
L 629.301356 311.169167 
z
" style="fill:#1f77b4;"/>
   </g>
   <g id="patch_141">
    <path clip-path="url(#p7285678b2a)" d="M 632.706102 768.96 
L 634.408475 768.96 
L 634.408475 307.605036 
L 632.706102 307.605036 
z
" style="fill:#1f77b4;"/>
   </g>
   <g id="patch_142">
    <path clip-path="url(#p7285678b2a)" d="M 636.110847 768.96 
L 637.81322 768.96 
L 637.81322 304.822 
L 636.110847 304.822 
z
" style="fill:#1f77b4;"/>
   </g>
   <g id="patch_143">
    <path clip-path="url(#p7285678b2a)" d="M 639.515593 768.96 
L 641.217966 768.96 
L 641.217966 303.544622 
L 639.515593 303.544622 
z
" style="fill:#1f77b4;"/>
   </g>
   <g id="patch_144">
    <path clip-path="url(#p7285678b2a)" d="M 642.920339 768.96 
L 644.622712 768.96 
L 644.622712 301.401822 
L 642.920339 301.401822 
z
" style="fill:#1f77b4;"/>
   </g>
   <g id="patch_145">
    <path clip-path="url(#p7285678b2a)" d="M 646.325085 768.96 
L 648.027458 768.96 
L 648.027458 298.739905 
L 646.325085 298.739905 
z
" style="fill:#1f77b4;"/>
   </g>
   <g id="patch_146">
    <path clip-path="url(#p7285678b2a)" d="M 649.729831 768.96 
L 651.432203 768.96 
L 651.432203 296.069524 
L 649.729831 296.069524 
z
" style="fill:#1f77b4;"/>
   </g>
   <g id="patch_147">
    <path clip-path="url(#p7285678b2a)" d="M 653.134576 768.96 
L 654.836949 768.96 
L 654.836949 293.271999 
L 653.134576 293.271999 
z
" style="fill:#1f77b4;"/>
   </g>
   <g id="patch_148">
    <path clip-path="url(#p7285678b2a)" d="M 656.539322 768.96 
L 658.241695 768.96 
L 658.241695 290.684196 
L 656.539322 290.684196 
z
" style="fill:#1f77b4;"/>
   </g>
   <g id="patch_149">
    <path clip-path="url(#p7285678b2a)" d="M 659.944068 768.96 
L 661.646441 768.96 
L 661.646441 288.919733 
L 659.944068 288.919733 
z
" style="fill:#1f77b4;"/>
   </g>
   <g id="patch_150">
    <path clip-path="url(#p7285678b2a)" d="M 663.348814 768.96 
L 665.051186 768.96 
L 665.051186 287.933678 
L 663.348814 287.933678 
z
" style="fill:#1f77b4;"/>
   </g>
   <g id="patch_151">
    <path clip-path="url(#p7285678b2a)" d="M 666.753559 768.96 
L 668.455932 768.96 
L 668.455932 287.222626 
L 666.753559 287.222626 
z
" style="fill:#1f77b4;"/>
   </g>
   <g id="patch_152">
    <path clip-path="url(#p7285678b2a)" d="M 670.158305 768.96 
L 671.860678 768.96 
L 671.860678 285.683676 
L 670.158305 285.683676 
z
" style="fill:#1f77b4;"/>
   </g>
   <g id="patch_153">
    <path clip-path="url(#p7285678b2a)" d="M 673.563051 768.96 
L 675.265424 768.96 
L 675.265424 284.05645 
L 673.563051 284.05645 
z
" style="fill:#1f77b4;"/>
   </g>
   <g id="patch_154">
    <path clip-path="url(#p7285678b2a)" d="M 676.967797 768.96 
L 678.670169 768.96 
L 678.670169 281.538283 
L 676.967797 281.538283 
z
" style="fill:#1f77b4;"/>
   </g>
   <g id="patch_155">
    <path clip-path="url(#p7285678b2a)" d="M 680.372542 768.96 
L 682.074915 768.96 
L 682.074915 278.990649 
L 680.372542 278.990649 
z
" style="fill:#1f77b4;"/>
   </g>
   <g id="patch_156">
    <path clip-path="url(#p7285678b2a)" d="M 683.777288 768.96 
L 685.479661 768.96 
L 685.479661 276.833889 
L 683.777288 276.833889 
z
" style="fill:#1f77b4;"/>
   </g>
   <g id="patch_157">
    <path clip-path="url(#p7285678b2a)" d="M 687.182034 768.96 
L 688.884407 768.96 
L 688.884407 275.3614 
L 687.182034 275.3614 
z
" style="fill:#1f77b4;"/>
   </g>
   <g id="patch_158">
    <path clip-path="url(#p7285678b2a)" d="M 690.58678 768.96 
L 692.289153 768.96 
L 692.289153 273.33333 
L 690.58678 273.33333 
z
" style="fill:#1f77b4;"/>
   </g>
   <g id="patch_159">
    <path clip-path="url(#p7285678b2a)" d="M 693.991525 768.96 
L 695.693898 768.96 
L 695.693898 270.969697 
L 693.991525 270.969697 
z
" style="fill:#1f77b4;"/>
   </g>
   <g id="patch_160">
    <path clip-path="url(#p7285678b2a)" d="M 697.396271 768.96 
L 699.098644 768.96 
L 699.098644 268.055447 
L 697.396271 268.055447 
z
" style="fill:#1f77b4;"/>
   </g>
   <g id="patch_161">
    <path clip-path="url(#p7285678b2a)" d="M 700.801017 768.96 
L 702.50339 768.96 
L 702.50339 266.06482 
L 700.801017 266.06482 
z
" style="fill:#1f77b4;"/>
   </g>
   <g id="patch_162">
    <path clip-path="url(#p7285678b2a)" d="M 704.205763 768.96 
L 705.908136 768.96 
L 705.908136 264.175899 
L 704.205763 264.175899 
z
" style="fill:#1f77b4;"/>
   </g>
   <g id="patch_163">
    <path clip-path="url(#p7285678b2a)" d="M 707.610508 768.96 
L 709.312881 768.96 
L 709.312881 263.030142 
L 707.610508 263.030142 
z
" style="fill:#1f77b4;"/>
   </g>
   <g id="patch_164">
    <path clip-path="url(#p7285678b2a)" d="M 711.015254 768.96 
L 712.717627 768.96 
L 712.717627 261.93302 
L 711.015254 261.93302 
z
" style="fill:#1f77b4;"/>
   </g>
   <g id="patch_165">
    <path clip-path="url(#p7285678b2a)" d="M 714.42 768.96 
L 716.122373 768.96 
L 716.122373 258.636403 
L 714.42 258.636403 
z
" style="fill:#1f77b4;"/>
   </g>
   <g id="patch_166">
    <path clip-path="url(#p7285678b2a)" d="M 717.824746 768.96 
L 719.527119 768.96 
L 719.527119 256.040664 
L 717.824746 256.040664 
z
" style="fill:#1f77b4;"/>
   </g>
   <g id="patch_167">
    <path clip-path="url(#p7285678b2a)" d="M 721.229492 768.96 
L 722.931864 768.96 
L 722.931864 254.24238 
L 721.229492 254.24238 
z
" style="fill:#1f77b4;"/>
   </g>
   <g id="patch_168">
    <path clip-path="url(#p7285678b2a)" d="M 724.634237 768.96 
L 726.33661 768.96 
L 726.33661 251.864095 
L 724.634237 251.864095 
z
" style="fill:#1f77b4;"/>
   </g>
   <g id="patch_169">
    <path clip-path="url(#p7285678b2a)" d="M 728.038983 768.96 
L 729.741356 768.96 
L 729.741356 250.742675 
L 728.038983 250.742675 
z
" style="fill:#1f77b4;"/>
   </g>
   <g id="patch_170">
    <path clip-path="url(#p7285678b2a)" d="M 731.443729 768.96 
L 733.146102 768.96 
L 733.146102 248.960834 
L 731.443729 248.960834 
z
" style="fill:#1f77b4;"/>
   </g>
   <g id="patch_171">
    <path clip-path="url(#p7285678b2a)" d="M 734.848475 768.96 
L 736.550847 768.96 
L 736.550847 248.213926 
L 734.848475 248.213926 
z
" style="fill:#1f77b4;"/>
   </g>
   <g id="patch_172">
    <path clip-path="url(#p7285678b2a)" d="M 738.25322 768.96 
L 739.955593 768.96 
L 739.955593 247.24468 
L 738.25322 247.24468 
z
" style="fill:#1f77b4;"/>
   </g>
   <g id="patch_173">
    <path clip-path="url(#p7285678b2a)" d="M 741.657966 768.96 
L 743.360339 768.96 
L 743.360339 246.065957 
L 741.657966 246.065957 
z
" style="fill:#1f77b4;"/>
   </g>
   <g id="patch_174">
    <path clip-path="url(#p7285678b2a)" d="M 745.062712 768.96 
L 746.765085 768.96 
L 746.765085 244.676942 
L 745.062712 244.676942 
z
" style="fill:#1f77b4;"/>
   </g>
   <g id="patch_175">
    <path clip-path="url(#p7285678b2a)" d="M 748.467458 768.96 
L 750.169831 768.96 
L 750.169831 242.960992 
L 748.467458 242.960992 
z
" style="fill:#1f77b4;"/>
   </g>
   <g id="patch_176">
    <path clip-path="url(#p7285678b2a)" d="M 751.872203 768.96 
L 753.574576 768.96 
L 753.574576 238.889548 
L 751.872203 238.889548 
z
" style="fill:#1f77b4;"/>
   </g>
   <g id="patch_177">
    <path clip-path="url(#p7285678b2a)" d="M 755.276949 768.96 
L 756.979322 768.96 
L 756.979322 234.200824 
L 755.276949 234.200824 
z
" style="fill:#1f77b4;"/>
   </g>
   <g id="patch_178">
    <path clip-path="url(#p7285678b2a)" d="M 758.681695 768.96 
L 760.384068 768.96 
L 760.384068 233.827899 
L 758.681695 233.827899 
z
" style="fill:#1f77b4;"/>
   </g>
   <g id="patch_179">
    <path clip-path="url(#p7285678b2a)" d="M 762.086441 768.96 
L 763.788814 768.96 
L 763.788814 232.866752 
L 762.086441 232.866752 
z
" style="fill:#1f77b4;"/>
   </g>
   <g id="patch_180">
    <path clip-path="url(#p7285678b2a)" d="M 765.491186 768.96 
L 767.193559 768.96 
L 767.193559 231.667557 
L 765.491186 231.667557 
z
" style="fill:#1f77b4;"/>
   </g>
   <g id="patch_181">
    <path clip-path="url(#p7285678b2a)" d="M 768.895932 768.96 
L 770.598305 768.96 
L 770.598305 230.509997 
L 768.895932 230.509997 
z
" style="fill:#1f77b4;"/>
   </g>
   <g id="patch_182">
    <path clip-path="url(#p7285678b2a)" d="M 772.300678 768.96 
L 774.003051 768.96 
L 774.003051 229.457278 
L 772.300678 229.457278 
z
" style="fill:#1f77b4;"/>
   </g>
   <g id="patch_183">
    <path clip-path="url(#p7285678b2a)" d="M 775.705424 768.96 
L 777.407797 768.96 
L 777.407797 228.407855 
L 775.705424 228.407855 
z
" style="fill:#1f77b4;"/>
   </g>
   <g id="patch_184">
    <path clip-path="url(#p7285678b2a)" d="M 779.110169 768.96 
L 780.812542 768.96 
L 780.812542 227.639906 
L 779.110169 227.639906 
z
" style="fill:#1f77b4;"/>
   </g>
   <g id="patch_185">
    <path clip-path="url(#p7285678b2a)" d="M 782.514915 768.96 
L 784.217288 768.96 
L 784.217288 227.264417 
L 782.514915 227.264417 
z
" style="fill:#1f77b4;"/>
   </g>
   <g id="patch_186">
    <path clip-path="url(#p7285678b2a)" d="M 785.919661 768.96 
L 787.622034 768.96 
L 787.622034 227.19588 
L 785.919661 227.19588 
z
" style="fill:#1f77b4;"/>
   </g>
   <g id="patch_187">
    <path clip-path="url(#p7285678b2a)" d="M 789.324407 768.96 
L 791.02678 768.96 
L 791.02678 226.591053 
L 789.324407 226.591053 
z
" style="fill:#1f77b4;"/>
   </g>
   <g id="patch_188">
    <path clip-path="url(#p7285678b2a)" d="M 792.729153 768.96 
L 794.431525 768.96 
L 794.431525 225.505937 
L 792.729153 225.505937 
z
" style="fill:#1f77b4;"/>
   </g>
   <g id="patch_189">
    <path clip-path="url(#p7285678b2a)" d="M 796.133898 768.96 
L 797.836271 768.96 
L 797.836271 224.416914 
L 796.133898 224.416914 
z
" style="fill:#1f77b4;"/>
   </g>
   <g id="patch_190">
    <path clip-path="url(#p7285678b2a)" d="M 799.538644 768.96 
L 801.241017 768.96 
L 801.241017 223.445022 
L 799.538644 223.445022 
z
" style="fill:#1f77b4;"/>
   </g>
   <g id="patch_191">
    <path clip-path="url(#p7285678b2a)" d="M 802.94339 768.96 
L 804.645763 768.96 
L 804.645763 222.649805 
L 802.94339 222.649805 
z
" style="fill:#1f77b4;"/>
   </g>
   <g id="patch_192">
    <path clip-path="url(#p7285678b2a)" d="M 806.348136 768.96 
L 808.050508 768.96 
L 808.050508 222.108753 
L 806.348136 222.108753 
z
" style="fill:#1f77b4;"/>
   </g>
   <g id="patch_193">
    <path clip-path="url(#p7285678b2a)" d="M 809.752881 768.96 
L 811.455254 768.96 
L 811.455254 221.083302 
L 809.752881 221.083302 
z
" style="fill:#1f77b4;"/>
   </g>
   <g id="patch_194">
    <path clip-path="url(#p7285678b2a)" d="M 813.157627 768.96 
L 814.86 768.96 
L 814.86 220.221623 
L 813.157627 220.221623 
z
" style="fill:#1f77b4;"/>
   </g>
   <g id="patch_195">
    <path clip-path="url(#p7285678b2a)" d="M 816.562373 768.96 
L 818.264746 768.96 
L 818.264746 219.402231 
L 816.562373 219.402231 
z
" style="fill:#1f77b4;"/>
   </g>
   <g id="patch_196">
    <path clip-path="url(#p7285678b2a)" d="M 819.967119 768.96 
L 821.669492 768.96 
L 821.669492 218.591101 
L 819.967119 218.591101 
z
" style="fill:#1f77b4;"/>
   </g>
   <g id="patch_197">
    <path clip-path="url(#p7285678b2a)" d="M 823.371864 768.96 
L 825.074237 768.96 
L 825.074237 217.774964 
L 823.371864 217.774964 
z
" style="fill:#1f77b4;"/>
   </g>
   <g id="patch_198">
    <path clip-path="url(#p7285678b2a)" d="M 826.77661 768.96 
L 828.478983 768.96 
L 828.478983 217.105181 
L 826.77661 217.105181 
z
" style="fill:#1f77b4;"/>
   </g>
   <g id="patch_199">
    <path clip-path="url(#p7285678b2a)" d="M 830.181356 768.96 
L 831.883729 768.96 
L 831.883729 216.650045 
L 830.181356 216.650045 
z
" style="fill:#1f77b4;"/>
   </g>
   <g id="patch_200">
    <path clip-path="url(#p7285678b2a)" d="M 833.586102 768.96 
L 835.288475 768.96 
L 835.288475 215.961866 
L 833.586102 215.961866 
z
" style="fill:#1f77b4;"/>
   </g>
   <g id="patch_201">
    <path clip-path="url(#p7285678b2a)" d="M 836.990847 768.96 
L 838.69322 768.96 
L 838.69322 215.037755 
L 836.990847 215.037755 
z
" style="fill:#1f77b4;"/>
   </g>
   <g id="patch_202">
    <path clip-path="url(#p7285678b2a)" d="M 840.395593 768.96 
L 842.097966 768.96 
L 842.097966 214.172088 
L 840.395593 214.172088 
z
" style="fill:#1f77b4;"/>
   </g>
   <g id="patch_203">
    <path clip-path="url(#p7285678b2a)" d="M 843.800339 768.96 
L 845.502712 768.96 
L 845.502712 213.542434 
L 843.800339 213.542434 
z
" style="fill:#1f77b4;"/>
   </g>
   <g id="patch_204">
    <path clip-path="url(#p7285678b2a)" d="M 847.205085 768.96 
L 848.907458 768.96 
L 848.907458 212.88714 
L 847.205085 212.88714 
z
" style="fill:#1f77b4;"/>
   </g>
   <g id="patch_205">
    <path clip-path="url(#p7285678b2a)" d="M 850.609831 768.96 
L 852.312203 768.96 
L 852.312203 212.48829 
L 850.609831 212.48829 
z
" style="fill:#1f77b4;"/>
   </g>
   <g id="patch_206">
    <path clip-path="url(#p7285678b2a)" d="M 854.014576 768.96 
L 855.716949 768.96 
L 855.716949 212.257283 
L 854.014576 212.257283 
z
" style="fill:#1f77b4;"/>
   </g>
   <g id="patch_207">
    <path clip-path="url(#p7285678b2a)" d="M 857.419322 768.96 
L 859.121695 768.96 
L 859.121695 211.859532 
L 857.419322 211.859532 
z
" style="fill:#1f77b4;"/>
   </g>
   <g id="patch_208">
    <path clip-path="url(#p7285678b2a)" d="M 860.824068 768.96 
L 862.526441 768.96 
L 862.526441 210.977463 
L 860.824068 210.977463 
z
" style="fill:#1f77b4;"/>
   </g>
   <g id="patch_209">
    <path clip-path="url(#p7285678b2a)" d="M 864.228814 768.96 
L 865.931186 768.96 
L 865.931186 209.518649 
L 864.228814 209.518649 
z
" style="fill:#1f77b4;"/>
   </g>
   <g id="patch_210">
    <path clip-path="url(#p7285678b2a)" d="M 867.633559 768.96 
L 869.335932 768.96 
L 869.335932 208.737514 
L 867.633559 208.737514 
z
" style="fill:#1f77b4;"/>
   </g>
   <g id="patch_211">
    <path clip-path="url(#p7285678b2a)" d="M 871.038305 768.96 
L 872.740678 768.96 
L 872.740678 206.83268 
L 871.038305 206.83268 
z
" style="fill:#1f77b4;"/>
   </g>
   <g id="patch_212">
    <path clip-path="url(#p7285678b2a)" d="M 874.443051 768.96 
L 876.145424 768.96 
L 876.145424 206.235545 
L 874.443051 206.235545 
z
" style="fill:#1f77b4;"/>
   </g>
   <g id="patch_213">
    <path clip-path="url(#p7285678b2a)" d="M 877.847797 768.96 
L 879.550169 768.96 
L 879.550169 205.799293 
L 877.847797 205.799293 
z
" style="fill:#1f77b4;"/>
   </g>
   <g id="patch_214">
    <path clip-path="url(#p7285678b2a)" d="M 881.252542 768.96 
L 882.954915 768.96 
L 882.954915 205.201018 
L 881.252542 205.201018 
z
" style="fill:#1f77b4;"/>
   </g>
   <g id="patch_215">
    <path clip-path="url(#p7285678b2a)" d="M 884.657288 768.96 
L 886.359661 768.96 
L 886.359661 204.38541 
L 884.657288 204.38541 
z
" style="fill:#1f77b4;"/>
   </g>
   <g id="patch_216">
    <path clip-path="url(#p7285678b2a)" d="M 888.062034 768.96 
L 889.764407 768.96 
L 889.764407 203.640741 
L 888.062034 203.640741 
z
" style="fill:#1f77b4;"/>
   </g>
   <g id="patch_217">
    <path clip-path="url(#p7285678b2a)" d="M 891.46678 768.96 
L 893.169153 768.96 
L 893.169153 202.855536 
L 891.46678 202.855536 
z
" style="fill:#1f77b4;"/>
   </g>
   <g id="patch_218">
    <path clip-path="url(#p7285678b2a)" d="M 894.871525 768.96 
L 896.573898 768.96 
L 896.573898 201.992067 
L 894.871525 201.992067 
z
" style="fill:#1f77b4;"/>
   </g>
   <g id="patch_219">
    <path clip-path="url(#p7285678b2a)" d="M 898.276271 768.96 
L 899.978644 768.96 
L 899.978644 200.467158 
L 898.276271 200.467158 
z
" style="fill:#1f77b4;"/>
   </g>
   <g id="patch_220">
    <path clip-path="url(#p7285678b2a)" d="M 901.681017 768.96 
L 903.38339 768.96 
L 903.38339 199.96713 
L 901.681017 199.96713 
z
" style="fill:#1f77b4;"/>
   </g>
   <g id="patch_221">
    <path clip-path="url(#p7285678b2a)" d="M 905.085763 768.96 
L 906.788136 768.96 
L 906.788136 199.387781 
L 905.085763 199.387781 
z
" style="fill:#1f77b4;"/>
   </g>
   <g id="patch_222">
    <path clip-path="url(#p7285678b2a)" d="M 908.490508 768.96 
L 910.192881 768.96 
L 910.192881 198.817751 
L 908.490508 198.817751 
z
" style="fill:#1f77b4;"/>
   </g>
   <g id="patch_223">
    <path clip-path="url(#p7285678b2a)" d="M 911.895254 768.96 
L 913.597627 768.96 
L 913.597627 196.535963 
L 911.895254 196.535963 
z
" style="fill:#1f77b4;"/>
   </g>
   <g id="patch_224">
    <path clip-path="url(#p7285678b2a)" d="M 915.3 768.96 
L 917.002373 768.96 
L 917.002373 194.556284 
L 915.3 194.556284 
z
" style="fill:#1f77b4;"/>
   </g>
   <g id="patch_225">
    <path clip-path="url(#p7285678b2a)" d="M 918.704746 768.96 
L 920.407119 768.96 
L 920.407119 192.981519 
L 918.704746 192.981519 
z
" style="fill:#1f77b4;"/>
   </g>
   <g id="patch_226">
    <path clip-path="url(#p7285678b2a)" d="M 922.109492 768.96 
L 923.811864 768.96 
L 923.811864 190.69383 
L 922.109492 190.69383 
z
" style="fill:#1f77b4;"/>
   </g>
   <g id="patch_227">
    <path clip-path="url(#p7285678b2a)" d="M 925.514237 768.96 
L 927.21661 768.96 
L 927.21661 189.143931 
L 925.514237 189.143931 
z
" style="fill:#1f77b4;"/>
   </g>
   <g id="patch_228">
    <path clip-path="url(#p7285678b2a)" d="M 928.918983 768.96 
L 930.621356 768.96 
L 930.621356 188.45852 
L 928.918983 188.45852 
z
" style="fill:#1f77b4;"/>
   </g>
   <g id="patch_229">
    <path clip-path="url(#p7285678b2a)" d="M 932.323729 768.96 
L 934.026102 768.96 
L 934.026102 187.474785 
L 932.323729 187.474785 
z
" style="fill:#1f77b4;"/>
   </g>
   <g id="patch_230">
    <path clip-path="url(#p7285678b2a)" d="M 935.728475 768.96 
L 937.430847 768.96 
L 937.430847 186.538872 
L 935.728475 186.538872 
z
" style="fill:#1f77b4;"/>
   </g>
   <g id="patch_231">
    <path clip-path="url(#p7285678b2a)" d="M 939.13322 768.96 
L 940.835593 768.96 
L 940.835593 185.643291 
L 939.13322 185.643291 
z
" style="fill:#1f77b4;"/>
   </g>
   <g id="patch_232">
    <path clip-path="url(#p7285678b2a)" d="M 942.537966 768.96 
L 944.240339 768.96 
L 944.240339 184.778275 
L 942.537966 184.778275 
z
" style="fill:#1f77b4;"/>
   </g>
   <g id="patch_233">
    <path clip-path="url(#p7285678b2a)" d="M 945.942712 768.96 
L 947.645085 768.96 
L 947.645085 183.92787 
L 945.942712 183.92787 
z
" style="fill:#1f77b4;"/>
   </g>
   <g id="patch_234">
    <path clip-path="url(#p7285678b2a)" d="M 949.347458 768.96 
L 951.049831 768.96 
L 951.049831 183.366672 
L 949.347458 183.366672 
z
" style="fill:#1f77b4;"/>
   </g>
   <g id="patch_235">
    <path clip-path="url(#p7285678b2a)" d="M 952.752203 768.96 
L 954.454576 768.96 
L 954.454576 182.647888 
L 952.752203 182.647888 
z
" style="fill:#1f77b4;"/>
   </g>
   <g id="patch_236">
    <path clip-path="url(#p7285678b2a)" d="M 956.156949 768.96 
L 957.859322 768.96 
L 957.859322 181.651211 
L 956.156949 181.651211 
z
" style="fill:#1f77b4;"/>
   </g>
   <g id="patch_237">
    <path clip-path="url(#p7285678b2a)" d="M 959.561695 768.96 
L 961.264068 768.96 
L 961.264068 180.697145 
L 959.561695 180.697145 
z
" style="fill:#1f77b4;"/>
   </g>
   <g id="patch_238">
    <path clip-path="url(#p7285678b2a)" d="M 962.966441 768.96 
L 964.668814 768.96 
L 964.668814 179.644141 
L 962.966441 179.644141 
z
" style="fill:#1f77b4;"/>
   </g>
   <g id="patch_239">
    <path clip-path="url(#p7285678b2a)" d="M 966.371186 768.96 
L 968.073559 768.96 
L 968.073559 178.449667 
L 966.371186 178.449667 
z
" style="fill:#1f77b4;"/>
   </g>
   <g id="patch_240">
    <path clip-path="url(#p7285678b2a)" d="M 969.775932 768.96 
L 971.478305 768.96 
L 971.478305 176.697454 
L 969.775932 176.697454 
z
" style="fill:#1f77b4;"/>
   </g>
   <g id="patch_241">
    <path clip-path="url(#p7285678b2a)" d="M 973.180678 768.96 
L 974.883051 768.96 
L 974.883051 173.935378 
L 973.180678 173.935378 
z
" style="fill:#1f77b4;"/>
   </g>
   <g id="patch_242">
    <path clip-path="url(#p7285678b2a)" d="M 976.585424 768.96 
L 978.287797 768.96 
L 978.287797 172.73138 
L 976.585424 172.73138 
z
" style="fill:#1f77b4;"/>
   </g>
   <g id="patch_243">
    <path clip-path="url(#p7285678b2a)" d="M 979.990169 768.96 
L 981.692542 768.96 
L 981.692542 171.731325 
L 979.990169 171.731325 
z
" style="fill:#1f77b4;"/>
   </g>
   <g id="patch_244">
    <path clip-path="url(#p7285678b2a)" d="M 983.394915 768.96 
L 985.097288 768.96 
L 985.097288 170.802575 
L 983.394915 170.802575 
z
" style="fill:#1f77b4;"/>
   </g>
   <g id="patch_245">
    <path clip-path="url(#p7285678b2a)" d="M 986.799661 768.96 
L 988.502034 768.96 
L 988.502034 169.93353 
L 986.799661 169.93353 
z
" style="fill:#1f77b4;"/>
   </g>
   <g id="patch_246">
    <path clip-path="url(#p7285678b2a)" d="M 990.204407 768.96 
L 991.90678 768.96 
L 991.90678 169.065909 
L 990.204407 169.065909 
z
" style="fill:#1f77b4;"/>
   </g>
   <g id="patch_247">
    <path clip-path="url(#p7285678b2a)" d="M 993.609153 768.96 
L 995.311525 768.96 
L 995.311525 168.294867 
L 993.609153 168.294867 
z
" style="fill:#1f77b4;"/>
   </g>
   <g id="patch_248">
    <path clip-path="url(#p7285678b2a)" d="M 997.013898 768.96 
L 998.716271 768.96 
L 998.716271 167.774124 
L 997.013898 167.774124 
z
" style="fill:#1f77b4;"/>
   </g>
   <g id="patch_249">
    <path clip-path="url(#p7285678b2a)" d="M 1000.418644 768.96 
L 1002.121017 768.96 
L 1002.121017 167.405147 
L 1000.418644 167.405147 
z
" style="fill:#1f77b4;"/>
   </g>
   <g id="patch_250">
    <path clip-path="url(#p7285678b2a)" d="M 1003.82339 768.96 
L 1005.525763 768.96 
L 1005.525763 166.923312 
L 1003.82339 166.923312 
z
" style="fill:#1f77b4;"/>
   </g>
   <g id="patch_251">
    <path clip-path="url(#p7285678b2a)" d="M 1007.228136 768.96 
L 1008.930508 768.96 
L 1008.930508 165.953374 
L 1007.228136 165.953374 
z
" style="fill:#1f77b4;"/>
   </g>
   <g id="patch_252">
    <path clip-path="url(#p7285678b2a)" d="M 1010.632881 768.96 
L 1012.335254 768.96 
L 1012.335254 165.089783 
L 1010.632881 165.089783 
z
" style="fill:#1f77b4;"/>
   </g>
   <g id="patch_253">
    <path clip-path="url(#p7285678b2a)" d="M 1014.037627 768.96 
L 1015.74 768.96 
L 1015.74 164.267094 
L 1014.037627 164.267094 
z
" style="fill:#1f77b4;"/>
   </g>
   <g id="patch_254">
    <path clip-path="url(#p7285678b2a)" d="M 1017.442373 768.96 
L 1019.144746 768.96 
L 1019.144746 163.548716 
L 1017.442373 163.548716 
z
" style="fill:#1f77b4;"/>
   </g>
   <g id="patch_255">
    <path clip-path="url(#p7285678b2a)" d="M 1020.847119 768.96 
L 1022.549492 768.96 
L 1022.549492 163.018083 
L 1020.847119 163.018083 
z
" style="fill:#1f77b4;"/>
   </g>
   <g id="patch_256">
    <path clip-path="url(#p7285678b2a)" d="M 1024.251864 768.96 
L 1025.954237 768.96 
L 1025.954237 162.400476 
L 1024.251864 162.400476 
z
" style="fill:#1f77b4;"/>
   </g>
   <g id="patch_257">
    <path clip-path="url(#p7285678b2a)" d="M 1027.65661 768.96 
L 1029.358983 768.96 
L 1029.358983 161.546042 
L 1027.65661 161.546042 
z
" style="fill:#1f77b4;"/>
   </g>
   <g id="patch_258">
    <path clip-path="url(#p7285678b2a)" d="M 1031.061356 768.96 
L 1032.763729 768.96 
L 1032.763729 160.731249 
L 1031.061356 160.731249 
z
" style="fill:#1f77b4;"/>
   </g>
   <g id="patch_259">
    <path clip-path="url(#p7285678b2a)" d="M 1034.466102 768.96 
L 1036.168475 768.96 
L 1036.168475 159.913444 
L 1034.466102 159.913444 
z
" style="fill:#1f77b4;"/>
   </g>
   <g id="patch_260">
    <path clip-path="url(#p7285678b2a)" d="M 1037.870847 768.96 
L 1039.57322 768.96 
L 1039.57322 159.071545 
L 1037.870847 159.071545 
z
" style="fill:#1f77b4;"/>
   </g>
   <g id="patch_261">
    <path clip-path="url(#p7285678b2a)" d="M 1041.275593 768.96 
L 1042.977966 768.96 
L 1042.977966 158.266641 
L 1041.275593 158.266641 
z
" style="fill:#1f77b4;"/>
   </g>
   <g id="patch_262">
    <path clip-path="url(#p7285678b2a)" d="M 1044.680339 768.96 
L 1046.382712 768.96 
L 1046.382712 157.693681 
L 1044.680339 157.693681 
z
" style="fill:#1f77b4;"/>
   </g>
   <g id="patch_263">
    <path clip-path="url(#p7285678b2a)" d="M 1048.085085 768.96 
L 1049.787458 768.96 
L 1049.787458 157.134152 
L 1048.085085 157.134152 
z
" style="fill:#1f77b4;"/>
   </g>
   <g id="patch_264">
    <path clip-path="url(#p7285678b2a)" d="M 1051.489831 768.96 
L 1053.192203 768.96 
L 1053.192203 156.185052 
L 1051.489831 156.185052 
z
" style="fill:#1f77b4;"/>
   </g>
   <g id="patch_265">
    <path clip-path="url(#p7285678b2a)" d="M 1054.894576 768.96 
L 1056.596949 768.96 
L 1056.596949 155.487431 
L 1054.894576 155.487431 
z
" style="fill:#1f77b4;"/>
   </g>
   <g id="patch_266">
    <path clip-path="url(#p7285678b2a)" d="M 1058.299322 768.96 
L 1060.001695 768.96 
L 1060.001695 154.469346 
L 1058.299322 154.469346 
z
" style="fill:#1f77b4;"/>
   </g>
   <g id="patch_267">
    <path clip-path="url(#p7285678b2a)" d="M 1061.704068 768.96 
L 1063.406441 768.96 
L 1063.406441 153.495176 
L 1061.704068 153.495176 
z
" style="fill:#1f77b4;"/>
   </g>
   <g id="patch_268">
    <path clip-path="url(#p7285678b2a)" d="M 1065.108814 768.96 
L 1066.811186 768.96 
L 1066.811186 152.734268 
L 1065.108814 152.734268 
z
" style="fill:#1f77b4;"/>
   </g>
   <g id="patch_269">
    <path clip-path="url(#p7285678b2a)" d="M 1068.513559 768.96 
L 1070.215932 768.96 
L 1070.215932 152.241769 
L 1068.513559 152.241769 
z
" style="fill:#1f77b4;"/>
   </g>
   <g id="patch_270">
    <path clip-path="url(#p7285678b2a)" d="M 1071.918305 768.96 
L 1073.620678 768.96 
L 1073.620678 151.605116 
L 1071.918305 151.605116 
z
" style="fill:#1f77b4;"/>
   </g>
   <g id="patch_271">
    <path clip-path="url(#p7285678b2a)" d="M 1075.323051 768.96 
L 1077.025424 768.96 
L 1077.025424 150.856458 
L 1075.323051 150.856458 
z
" style="fill:#1f77b4;"/>
   </g>
   <g id="patch_272">
    <path clip-path="url(#p7285678b2a)" d="M 1078.727797 768.96 
L 1080.430169 768.96 
L 1080.430169 150.303318 
L 1078.727797 150.303318 
z
" style="fill:#1f77b4;"/>
   </g>
   <g id="patch_273">
    <path clip-path="url(#p7285678b2a)" d="M 1082.132542 768.96 
L 1083.834915 768.96 
L 1083.834915 149.920504 
L 1082.132542 149.920504 
z
" style="fill:#1f77b4;"/>
   </g>
   <g id="patch_274">
    <path clip-path="url(#p7285678b2a)" d="M 1085.537288 768.96 
L 1087.239661 768.96 
L 1087.239661 148.979503 
L 1085.537288 148.979503 
z
" style="fill:#1f77b4;"/>
   </g>
   <g id="patch_275">
    <path clip-path="url(#p7285678b2a)" d="M 1088.942034 768.96 
L 1090.644407 768.96 
L 1090.644407 147.76411 
L 1088.942034 147.76411 
z
" style="fill:#1f77b4;"/>
   </g>
   <g id="patch_276">
    <path clip-path="url(#p7285678b2a)" d="M 1092.34678 768.96 
L 1094.049153 768.96 
L 1094.049153 147.357486 
L 1092.34678 147.357486 
z
" style="fill:#1f77b4;"/>
   </g>
   <g id="patch_277">
    <path clip-path="url(#p7285678b2a)" d="M 1095.751525 768.96 
L 1097.453898 768.96 
L 1097.453898 146.546559 
L 1095.751525 146.546559 
z
" style="fill:#1f77b4;"/>
   </g>
   <g id="patch_278">
    <path clip-path="url(#p7285678b2a)" d="M 1099.156271 768.96 
L 1100.858644 768.96 
L 1100.858644 146.086987 
L 1099.156271 146.086987 
z
" style="fill:#1f77b4;"/>
   </g>
   <g id="patch_279">
    <path clip-path="url(#p7285678b2a)" d="M 1102.561017 768.96 
L 1104.26339 768.96 
L 1104.26339 145.15034 
L 1102.561017 145.15034 
z
" style="fill:#1f77b4;"/>
   </g>
   <g id="patch_280">
    <path clip-path="url(#p7285678b2a)" d="M 1105.965763 768.96 
L 1107.668136 768.96 
L 1107.668136 144.507134 
L 1105.965763 144.507134 
z
" style="fill:#1f77b4;"/>
   </g>
   <g id="patch_281">
    <path clip-path="url(#p7285678b2a)" d="M 1109.370508 768.96 
L 1111.072881 768.96 
L 1111.072881 143.884399 
L 1109.370508 143.884399 
z
" style="fill:#1f77b4;"/>
   </g>
   <g id="patch_282">
    <path clip-path="url(#p7285678b2a)" d="M 1112.775254 768.96 
L 1114.477627 768.96 
L 1114.477627 143.45706 
L 1112.775254 143.45706 
z
" style="fill:#1f77b4;"/>
   </g>
   <g id="patch_283">
    <path clip-path="url(#p7285678b2a)" d="M 1116.18 768.96 
L 1117.882373 768.96 
L 1117.882373 143.153527 
L 1116.18 143.153527 
z
" style="fill:#1f77b4;"/>
   </g>
   <g id="patch_284">
    <path clip-path="url(#p7285678b2a)" d="M 1119.584746 768.96 
L 1121.287119 768.96 
L 1121.287119 142.724275 
L 1119.584746 142.724275 
z
" style="fill:#1f77b4;"/>
   </g>
   <g id="patch_285">
    <path clip-path="url(#p7285678b2a)" d="M 1122.989492 768.96 
L 1124.691864 768.96 
L 1124.691864 142.082818 
L 1122.989492 142.082818 
z
" style="fill:#1f77b4;"/>
   </g>
   <g id="patch_286">
    <path clip-path="url(#p7285678b2a)" d="M 1126.394237 768.96 
L 1128.09661 768.96 
L 1128.09661 141.380639 
L 1126.394237 141.380639 
z
" style="fill:#1f77b4;"/>
   </g>
   <g id="patch_287">
    <path clip-path="url(#p7285678b2a)" d="M 1129.798983 768.96 
L 1131.501356 768.96 
L 1131.501356 140.868117 
L 1129.798983 140.868117 
z
" style="fill:#1f77b4;"/>
   </g>
   <g id="patch_288">
    <path clip-path="url(#p7285678b2a)" d="M 1133.203729 768.96 
L 1134.906102 768.96 
L 1134.906102 140.018038 
L 1133.203729 140.018038 
z
" style="fill:#1f77b4;"/>
   </g>
   <g id="patch_289">
    <path clip-path="url(#p7285678b2a)" d="M 1136.608475 768.96 
L 1138.310847 768.96 
L 1138.310847 139.526435 
L 1136.608475 139.526435 
z
" style="fill:#1f77b4;"/>
   </g>
   <g id="patch_290">
    <path clip-path="url(#p7285678b2a)" d="M 1140.01322 768.96 
L 1141.715593 768.96 
L 1141.715593 139.239873 
L 1140.01322 139.239873 
z
" style="fill:#1f77b4;"/>
   </g>
   <g id="patch_291">
    <path clip-path="url(#p7285678b2a)" d="M 1143.417966 768.96 
L 1145.120339 768.96 
L 1145.120339 138.762759 
L 1143.417966 138.762759 
z
" style="fill:#1f77b4;"/>
   </g>
   <g id="patch_292">
    <path clip-path="url(#p7285678b2a)" d="M 1146.822712 768.96 
L 1148.525085 768.96 
L 1148.525085 138.198672 
L 1146.822712 138.198672 
z
" style="fill:#1f77b4;"/>
   </g>
   <g id="patch_293">
    <path clip-path="url(#p7285678b2a)" d="M 1150.227458 768.96 
L 1151.929831 768.96 
L 1151.929831 137.615211 
L 1150.227458 137.615211 
z
" style="fill:#1f77b4;"/>
   </g>
   <g id="patch_294">
    <path clip-path="url(#p7285678b2a)" d="M 1153.632203 768.96 
L 1155.334576 768.96 
L 1155.334576 136.956417 
L 1153.632203 136.956417 
z
" style="fill:#1f77b4;"/>
   </g>
   <g id="patch_295">
    <path clip-path="url(#p7285678b2a)" d="M 1157.036949 768.96 
L 1158.739322 768.96 
L 1158.739322 136.341903 
L 1157.036949 136.341903 
z
" style="fill:#1f77b4;"/>
   </g>
   <g id="patch_296">
    <path clip-path="url(#p7285678b2a)" d="M 1160.441695 768.96 
L 1162.144068 768.96 
L 1162.144068 135.797758 
L 1160.441695 135.797758 
z
" style="fill:#1f77b4;"/>
   </g>
   <g id="patch_297">
    <path clip-path="url(#p7285678b2a)" d="M 1163.846441 768.96 
L 1165.548814 768.96 
L 1165.548814 135.36 
L 1163.846441 135.36 
z
" style="fill:#1f77b4;"/>
   </g>
   <g id="matplotlib.axis_1">
    <g id="xtick_1">
     <g id="line2d_1">
      <defs>
       <path d="M 0 0 
L 0 3.5 
" id="mfcfb252542" style="stroke:#000000;stroke-width:0.8;"/>
      </defs>
      <g>
       <use style="stroke:#000000;stroke-width:0.8;" x="163.702373" xlink:href="#mfcfb252542" y="768.96"/>
      </g>
     </g>
     <g id="text_1">
      <!-- January -->
      <g transform="translate(144.746904 783.558437)scale(0.1 -0.1)">
       <defs>
        <path d="M 628 4666 
L 1259 4666 
L 1259 325 
Q 1259 -519 939 -900 
Q 619 -1281 -91 -1281 
L -331 -1281 
L -331 -750 
L -134 -750 
Q 284 -750 456 -515 
Q 628 -281 628 325 
L 628 4666 
z
" id="DejaVuSans-4a" transform="scale(0.015625)"/>
        <path d="M 2194 1759 
Q 1497 1759 1228 1600 
Q 959 1441 959 1056 
Q 959 750 1161 570 
Q 1363 391 1709 391 
Q 2188 391 2477 730 
Q 2766 1069 2766 1631 
L 2766 1759 
L 2194 1759 
z
M 3341 1997 
L 3341 0 
L 2766 0 
L 2766 531 
Q 2569 213 2275 61 
Q 1981 -91 1556 -91 
Q 1019 -91 701 211 
Q 384 513 384 1019 
Q 384 1609 779 1909 
Q 1175 2209 1959 2209 
L 2766 2209 
L 2766 2266 
Q 2766 2663 2505 2880 
Q 2244 3097 1772 3097 
Q 1472 3097 1187 3025 
Q 903 2953 641 2809 
L 641 3341 
Q 956 3463 1253 3523 
Q 1550 3584 1831 3584 
Q 2591 3584 2966 3190 
Q 3341 2797 3341 1997 
z
" id="DejaVuSans-61" transform="scale(0.015625)"/>
        <path d="M 3513 2113 
L 3513 0 
L 2938 0 
L 2938 2094 
Q 2938 2591 2744 2837 
Q 2550 3084 2163 3084 
Q 1697 3084 1428 2787 
Q 1159 2491 1159 1978 
L 1159 0 
L 581 0 
L 581 3500 
L 1159 3500 
L 1159 2956 
Q 1366 3272 1645 3428 
Q 1925 3584 2291 3584 
Q 2894 3584 3203 3211 
Q 3513 2838 3513 2113 
z
" id="DejaVuSans-6e" transform="scale(0.015625)"/>
        <path d="M 544 1381 
L 544 3500 
L 1119 3500 
L 1119 1403 
Q 1119 906 1312 657 
Q 1506 409 1894 409 
Q 2359 409 2629 706 
Q 2900 1003 2900 1516 
L 2900 3500 
L 3475 3500 
L 3475 0 
L 2900 0 
L 2900 538 
Q 2691 219 2414 64 
Q 2138 -91 1772 -91 
Q 1169 -91 856 284 
Q 544 659 544 1381 
z
M 1991 3584 
L 1991 3584 
z
" id="DejaVuSans-75" transform="scale(0.015625)"/>
        <path d="M 2631 2963 
Q 2534 3019 2420 3045 
Q 2306 3072 2169 3072 
Q 1681 3072 1420 2755 
Q 1159 2438 1159 1844 
L 1159 0 
L 581 0 
L 581 3500 
L 1159 3500 
L 1159 2956 
Q 1341 3275 1631 3429 
Q 1922 3584 2338 3584 
Q 2397 3584 2469 3576 
Q 2541 3569 2628 3553 
L 2631 2963 
z
" id="DejaVuSans-72" transform="scale(0.015625)"/>
        <path d="M 2059 -325 
Q 1816 -950 1584 -1140 
Q 1353 -1331 966 -1331 
L 506 -1331 
L 506 -850 
L 844 -850 
Q 1081 -850 1212 -737 
Q 1344 -625 1503 -206 
L 1606 56 
L 191 3500 
L 800 3500 
L 1894 763 
L 2988 3500 
L 3597 3500 
L 2059 -325 
z
" id="DejaVuSans-79" transform="scale(0.015625)"/>
       </defs>
       <use xlink:href="#DejaVuSans-4a"/>
       <use x="29.492188" xlink:href="#DejaVuSans-61"/>
       <use x="90.771484" xlink:href="#DejaVuSans-6e"/>
       <use x="154.150391" xlink:href="#DejaVuSans-75"/>
       <use x="217.529297" xlink:href="#DejaVuSans-61"/>
       <use x="278.808594" xlink:href="#DejaVuSans-72"/>
       <use x="319.921875" xlink:href="#DejaVuSans-79"/>
      </g>
     </g>
    </g>
    <g id="xtick_2">
     <g id="line2d_2">
      <g>
       <use style="stroke:#000000;stroke-width:0.8;" x="269.249492" xlink:href="#mfcfb252542" y="768.96"/>
      </g>
     </g>
     <g id="text_2">
      <!-- February -->
      <g transform="translate(247.094804 783.558437)scale(0.1 -0.1)">
       <defs>
        <path d="M 628 4666 
L 3309 4666 
L 3309 4134 
L 1259 4134 
L 1259 2759 
L 3109 2759 
L 3109 2228 
L 1259 2228 
L 1259 0 
L 628 0 
L 628 4666 
z
" id="DejaVuSans-46" transform="scale(0.015625)"/>
        <path d="M 3597 1894 
L 3597 1613 
L 953 1613 
Q 991 1019 1311 708 
Q 1631 397 2203 397 
Q 2534 397 2845 478 
Q 3156 559 3463 722 
L 3463 178 
Q 3153 47 2828 -22 
Q 2503 -91 2169 -91 
Q 1331 -91 842 396 
Q 353 884 353 1716 
Q 353 2575 817 3079 
Q 1281 3584 2069 3584 
Q 2775 3584 3186 3129 
Q 3597 2675 3597 1894 
z
M 3022 2063 
Q 3016 2534 2758 2815 
Q 2500 3097 2075 3097 
Q 1594 3097 1305 2825 
Q 1016 2553 972 2059 
L 3022 2063 
z
" id="DejaVuSans-65" transform="scale(0.015625)"/>
        <path d="M 3116 1747 
Q 3116 2381 2855 2742 
Q 2594 3103 2138 3103 
Q 1681 3103 1420 2742 
Q 1159 2381 1159 1747 
Q 1159 1113 1420 752 
Q 1681 391 2138 391 
Q 2594 391 2855 752 
Q 3116 1113 3116 1747 
z
M 1159 2969 
Q 1341 3281 1617 3432 
Q 1894 3584 2278 3584 
Q 2916 3584 3314 3078 
Q 3713 2572 3713 1747 
Q 3713 922 3314 415 
Q 2916 -91 2278 -91 
Q 1894 -91 1617 61 
Q 1341 213 1159 525 
L 1159 0 
L 581 0 
L 581 4863 
L 1159 4863 
L 1159 2969 
z
" id="DejaVuSans-62" transform="scale(0.015625)"/>
       </defs>
       <use xlink:href="#DejaVuSans-46"/>
       <use x="52.019531" xlink:href="#DejaVuSans-65"/>
       <use x="113.542969" xlink:href="#DejaVuSans-62"/>
       <use x="177.019531" xlink:href="#DejaVuSans-72"/>
       <use x="218.132812" xlink:href="#DejaVuSans-75"/>
       <use x="281.511719" xlink:href="#DejaVuSans-61"/>
       <use x="342.791016" xlink:href="#DejaVuSans-72"/>
       <use x="383.904297" xlink:href="#DejaVuSans-79"/>
      </g>
     </g>
    </g>
    <g id="xtick_3">
     <g id="line2d_3">
      <g>
       <use style="stroke:#000000;stroke-width:0.8;" x="364.582373" xlink:href="#mfcfb252542" y="768.96"/>
      </g>
     </g>
     <g id="text_3">
      <!-- March -->
      <g transform="translate(349.34331 783.558437)scale(0.1 -0.1)">
       <defs>
        <path d="M 628 4666 
L 1569 4666 
L 2759 1491 
L 3956 4666 
L 4897 4666 
L 4897 0 
L 4281 0 
L 4281 4097 
L 3078 897 
L 2444 897 
L 1241 4097 
L 1241 0 
L 628 0 
L 628 4666 
z
" id="DejaVuSans-4d" transform="scale(0.015625)"/>
        <path d="M 3122 3366 
L 3122 2828 
Q 2878 2963 2633 3030 
Q 2388 3097 2138 3097 
Q 1578 3097 1268 2742 
Q 959 2388 959 1747 
Q 959 1106 1268 751 
Q 1578 397 2138 397 
Q 2388 397 2633 464 
Q 2878 531 3122 666 
L 3122 134 
Q 2881 22 2623 -34 
Q 2366 -91 2075 -91 
Q 1284 -91 818 406 
Q 353 903 353 1747 
Q 353 2603 823 3093 
Q 1294 3584 2113 3584 
Q 2378 3584 2631 3529 
Q 2884 3475 3122 3366 
z
" id="DejaVuSans-63" transform="scale(0.015625)"/>
        <path d="M 3513 2113 
L 3513 0 
L 2938 0 
L 2938 2094 
Q 2938 2591 2744 2837 
Q 2550 3084 2163 3084 
Q 1697 3084 1428 2787 
Q 1159 2491 1159 1978 
L 1159 0 
L 581 0 
L 581 4863 
L 1159 4863 
L 1159 2956 
Q 1366 3272 1645 3428 
Q 1925 3584 2291 3584 
Q 2894 3584 3203 3211 
Q 3513 2838 3513 2113 
z
" id="DejaVuSans-68" transform="scale(0.015625)"/>
       </defs>
       <use xlink:href="#DejaVuSans-4d"/>
       <use x="86.279297" xlink:href="#DejaVuSans-61"/>
       <use x="147.558594" xlink:href="#DejaVuSans-72"/>
       <use x="186.421875" xlink:href="#DejaVuSans-63"/>
       <use x="241.402344" xlink:href="#DejaVuSans-68"/>
      </g>
     </g>
    </g>
    <g id="xtick_4">
     <g id="line2d_4">
      <g>
       <use style="stroke:#000000;stroke-width:0.8;" x="470.129492" xlink:href="#mfcfb252542" y="768.96"/>
      </g>
     </g>
     <g id="text_4">
      <!-- April -->
      <g transform="translate(458.701367 783.558437)scale(0.1 -0.1)">
       <defs>
        <path d="M 2188 4044 
L 1331 1722 
L 3047 1722 
L 2188 4044 
z
M 1831 4666 
L 2547 4666 
L 4325 0 
L 3669 0 
L 3244 1197 
L 1141 1197 
L 716 0 
L 50 0 
L 1831 4666 
z
" id="DejaVuSans-41" transform="scale(0.015625)"/>
        <path d="M 1159 525 
L 1159 -1331 
L 581 -1331 
L 581 3500 
L 1159 3500 
L 1159 2969 
Q 1341 3281 1617 3432 
Q 1894 3584 2278 3584 
Q 2916 3584 3314 3078 
Q 3713 2572 3713 1747 
Q 3713 922 3314 415 
Q 2916 -91 2278 -91 
Q 1894 -91 1617 61 
Q 1341 213 1159 525 
z
M 3116 1747 
Q 3116 2381 2855 2742 
Q 2594 3103 2138 3103 
Q 1681 3103 1420 2742 
Q 1159 2381 1159 1747 
Q 1159 1113 1420 752 
Q 1681 391 2138 391 
Q 2594 391 2855 752 
Q 3116 1113 3116 1747 
z
" id="DejaVuSans-70" transform="scale(0.015625)"/>
        <path d="M 603 3500 
L 1178 3500 
L 1178 0 
L 603 0 
L 603 3500 
z
M 603 4863 
L 1178 4863 
L 1178 4134 
L 603 4134 
L 603 4863 
z
" id="DejaVuSans-69" transform="scale(0.015625)"/>
        <path d="M 603 4863 
L 1178 4863 
L 1178 0 
L 603 0 
L 603 4863 
z
" id="DejaVuSans-6c" transform="scale(0.015625)"/>
       </defs>
       <use xlink:href="#DejaVuSans-41"/>
       <use x="68.408203" xlink:href="#DejaVuSans-70"/>
       <use x="131.884766" xlink:href="#DejaVuSans-72"/>
       <use x="172.998047" xlink:href="#DejaVuSans-69"/>
       <use x="200.78125" xlink:href="#DejaVuSans-6c"/>
      </g>
     </g>
    </g>
    <g id="xtick_5">
     <g id="line2d_5">
      <g>
       <use style="stroke:#000000;stroke-width:0.8;" x="572.271864" xlink:href="#mfcfb252542" y="768.96"/>
      </g>
     </g>
     <g id="text_5">
      <!-- May -->
      <g transform="translate(561.934364 783.558437)scale(0.1 -0.1)">
       <use xlink:href="#DejaVuSans-4d"/>
       <use x="86.279297" xlink:href="#DejaVuSans-61"/>
       <use x="147.558594" xlink:href="#DejaVuSans-79"/>
      </g>
     </g>
    </g>
    <g id="xtick_6">
     <g id="line2d_6">
      <g>
       <use style="stroke:#000000;stroke-width:0.8;" x="677.818983" xlink:href="#mfcfb252542" y="768.96"/>
      </g>
     </g>
     <g id="text_6">
      <!-- June -->
      <g transform="translate(666.929921 783.558437)scale(0.1 -0.1)">
       <use xlink:href="#DejaVuSans-4a"/>
       <use x="29.492188" xlink:href="#DejaVuSans-75"/>
       <use x="92.871094" xlink:href="#DejaVuSans-6e"/>
       <use x="156.25" xlink:href="#DejaVuSans-65"/>
      </g>
     </g>
    </g>
    <g id="xtick_7">
     <g id="line2d_7">
      <g>
       <use style="stroke:#000000;stroke-width:0.8;" x="779.961356" xlink:href="#mfcfb252542" y="768.96"/>
      </g>
     </g>
     <g id="text_7">
      <!-- July -->
      <g transform="translate(770.969168 783.558437)scale(0.1 -0.1)">
       <use xlink:href="#DejaVuSans-4a"/>
       <use x="29.492188" xlink:href="#DejaVuSans-75"/>
       <use x="92.871094" xlink:href="#DejaVuSans-6c"/>
       <use x="120.654297" xlink:href="#DejaVuSans-79"/>
      </g>
     </g>
    </g>
    <g id="xtick_8">
     <g id="line2d_8">
      <g>
       <use style="stroke:#000000;stroke-width:0.8;" x="885.508475" xlink:href="#mfcfb252542" y="768.96"/>
      </g>
     </g>
     <g id="text_8">
      <!-- August -->
      <g transform="translate(868.0116 783.558437)scale(0.1 -0.1)">
       <defs>
        <path d="M 2906 1791 
Q 2906 2416 2648 2759 
Q 2391 3103 1925 3103 
Q 1463 3103 1205 2759 
Q 947 2416 947 1791 
Q 947 1169 1205 825 
Q 1463 481 1925 481 
Q 2391 481 2648 825 
Q 2906 1169 2906 1791 
z
M 3481 434 
Q 3481 -459 3084 -895 
Q 2688 -1331 1869 -1331 
Q 1566 -1331 1297 -1286 
Q 1028 -1241 775 -1147 
L 775 -588 
Q 1028 -725 1275 -790 
Q 1522 -856 1778 -856 
Q 2344 -856 2625 -561 
Q 2906 -266 2906 331 
L 2906 616 
Q 2728 306 2450 153 
Q 2172 0 1784 0 
Q 1141 0 747 490 
Q 353 981 353 1791 
Q 353 2603 747 3093 
Q 1141 3584 1784 3584 
Q 2172 3584 2450 3431 
Q 2728 3278 2906 2969 
L 2906 3500 
L 3481 3500 
L 3481 434 
z
" id="DejaVuSans-67" transform="scale(0.015625)"/>
        <path d="M 2834 3397 
L 2834 2853 
Q 2591 2978 2328 3040 
Q 2066 3103 1784 3103 
Q 1356 3103 1142 2972 
Q 928 2841 928 2578 
Q 928 2378 1081 2264 
Q 1234 2150 1697 2047 
L 1894 2003 
Q 2506 1872 2764 1633 
Q 3022 1394 3022 966 
Q 3022 478 2636 193 
Q 2250 -91 1575 -91 
Q 1294 -91 989 -36 
Q 684 19 347 128 
L 347 722 
Q 666 556 975 473 
Q 1284 391 1588 391 
Q 1994 391 2212 530 
Q 2431 669 2431 922 
Q 2431 1156 2273 1281 
Q 2116 1406 1581 1522 
L 1381 1569 
Q 847 1681 609 1914 
Q 372 2147 372 2553 
Q 372 3047 722 3315 
Q 1072 3584 1716 3584 
Q 2034 3584 2315 3537 
Q 2597 3491 2834 3397 
z
" id="DejaVuSans-73" transform="scale(0.015625)"/>
        <path d="M 1172 4494 
L 1172 3500 
L 2356 3500 
L 2356 3053 
L 1172 3053 
L 1172 1153 
Q 1172 725 1289 603 
Q 1406 481 1766 481 
L 2356 481 
L 2356 0 
L 1766 0 
Q 1100 0 847 248 
Q 594 497 594 1153 
L 594 3053 
L 172 3053 
L 172 3500 
L 594 3500 
L 594 4494 
L 1172 4494 
z
" id="DejaVuSans-74" transform="scale(0.015625)"/>
       </defs>
       <use xlink:href="#DejaVuSans-41"/>
       <use x="68.408203" xlink:href="#DejaVuSans-75"/>
       <use x="131.787109" xlink:href="#DejaVuSans-67"/>
       <use x="195.263672" xlink:href="#DejaVuSans-75"/>
       <use x="258.642578" xlink:href="#DejaVuSans-73"/>
       <use x="310.742188" xlink:href="#DejaVuSans-74"/>
      </g>
     </g>
    </g>
    <g id="xtick_9">
     <g id="line2d_9">
      <g>
       <use style="stroke:#000000;stroke-width:0.8;" x="991.055593" xlink:href="#mfcfb252542" y="768.96"/>
      </g>
     </g>
     <g id="text_9">
      <!-- September -->
      <g transform="translate(963.417312 783.558437)scale(0.1 -0.1)">
       <defs>
        <path d="M 3425 4513 
L 3425 3897 
Q 3066 4069 2747 4153 
Q 2428 4238 2131 4238 
Q 1616 4238 1336 4038 
Q 1056 3838 1056 3469 
Q 1056 3159 1242 3001 
Q 1428 2844 1947 2747 
L 2328 2669 
Q 3034 2534 3370 2195 
Q 3706 1856 3706 1288 
Q 3706 609 3251 259 
Q 2797 -91 1919 -91 
Q 1588 -91 1214 -16 
Q 841 59 441 206 
L 441 856 
Q 825 641 1194 531 
Q 1563 422 1919 422 
Q 2459 422 2753 634 
Q 3047 847 3047 1241 
Q 3047 1584 2836 1778 
Q 2625 1972 2144 2069 
L 1759 2144 
Q 1053 2284 737 2584 
Q 422 2884 422 3419 
Q 422 4038 858 4394 
Q 1294 4750 2059 4750 
Q 2388 4750 2728 4690 
Q 3069 4631 3425 4513 
z
" id="DejaVuSans-53" transform="scale(0.015625)"/>
        <path d="M 3328 2828 
Q 3544 3216 3844 3400 
Q 4144 3584 4550 3584 
Q 5097 3584 5394 3201 
Q 5691 2819 5691 2113 
L 5691 0 
L 5113 0 
L 5113 2094 
Q 5113 2597 4934 2840 
Q 4756 3084 4391 3084 
Q 3944 3084 3684 2787 
Q 3425 2491 3425 1978 
L 3425 0 
L 2847 0 
L 2847 2094 
Q 2847 2600 2669 2842 
Q 2491 3084 2119 3084 
Q 1678 3084 1418 2786 
Q 1159 2488 1159 1978 
L 1159 0 
L 581 0 
L 581 3500 
L 1159 3500 
L 1159 2956 
Q 1356 3278 1631 3431 
Q 1906 3584 2284 3584 
Q 2666 3584 2933 3390 
Q 3200 3197 3328 2828 
z
" id="DejaVuSans-6d" transform="scale(0.015625)"/>
       </defs>
       <use xlink:href="#DejaVuSans-53"/>
       <use x="63.476562" xlink:href="#DejaVuSans-65"/>
       <use x="125" xlink:href="#DejaVuSans-70"/>
       <use x="188.476562" xlink:href="#DejaVuSans-74"/>
       <use x="227.685547" xlink:href="#DejaVuSans-65"/>
       <use x="289.208984" xlink:href="#DejaVuSans-6d"/>
       <use x="386.621094" xlink:href="#DejaVuSans-62"/>
       <use x="450.097656" xlink:href="#DejaVuSans-65"/>
       <use x="511.621094" xlink:href="#DejaVuSans-72"/>
      </g>
     </g>
    </g>
    <g id="xtick_10">
     <g id="line2d_10">
      <g>
       <use style="stroke:#000000;stroke-width:0.8;" x="1093.197966" xlink:href="#mfcfb252542" y="768.96"/>
      </g>
     </g>
     <g id="text_10">
      <!-- October -->
      <g transform="translate(1073.187029 783.558437)scale(0.1 -0.1)">
       <defs>
        <path d="M 2522 4238 
Q 1834 4238 1429 3725 
Q 1025 3213 1025 2328 
Q 1025 1447 1429 934 
Q 1834 422 2522 422 
Q 3209 422 3611 934 
Q 4013 1447 4013 2328 
Q 4013 3213 3611 3725 
Q 3209 4238 2522 4238 
z
M 2522 4750 
Q 3503 4750 4090 4092 
Q 4678 3434 4678 2328 
Q 4678 1225 4090 567 
Q 3503 -91 2522 -91 
Q 1538 -91 948 565 
Q 359 1222 359 2328 
Q 359 3434 948 4092 
Q 1538 4750 2522 4750 
z
" id="DejaVuSans-4f" transform="scale(0.015625)"/>
        <path d="M 1959 3097 
Q 1497 3097 1228 2736 
Q 959 2375 959 1747 
Q 959 1119 1226 758 
Q 1494 397 1959 397 
Q 2419 397 2687 759 
Q 2956 1122 2956 1747 
Q 2956 2369 2687 2733 
Q 2419 3097 1959 3097 
z
M 1959 3584 
Q 2709 3584 3137 3096 
Q 3566 2609 3566 1747 
Q 3566 888 3137 398 
Q 2709 -91 1959 -91 
Q 1206 -91 779 398 
Q 353 888 353 1747 
Q 353 2609 779 3096 
Q 1206 3584 1959 3584 
z
" id="DejaVuSans-6f" transform="scale(0.015625)"/>
       </defs>
       <use xlink:href="#DejaVuSans-4f"/>
       <use x="78.710938" xlink:href="#DejaVuSans-63"/>
       <use x="133.691406" xlink:href="#DejaVuSans-74"/>
       <use x="172.900391" xlink:href="#DejaVuSans-6f"/>
       <use x="234.082031" xlink:href="#DejaVuSans-62"/>
       <use x="297.558594" xlink:href="#DejaVuSans-65"/>
       <use x="359.082031" xlink:href="#DejaVuSans-72"/>
      </g>
     </g>
    </g>
   </g>
   <g id="matplotlib.axis_2">
    <g id="ytick_1">
     <g id="line2d_11">
      <defs>
       <path d="M 0 0 
L -3.5 0 
" id="m3b1209daf5" style="stroke:#000000;stroke-width:0.8;"/>
      </defs>
      <g>
       <use style="stroke:#000000;stroke-width:0.8;" x="162" xlink:href="#m3b1209daf5" y="768.96"/>
      </g>
     </g>
     <g id="text_11">
      <!-- 0.0 -->
      <g transform="translate(139.096875 772.759219)scale(0.1 -0.1)">
       <defs>
        <path d="M 2034 4250 
Q 1547 4250 1301 3770 
Q 1056 3291 1056 2328 
Q 1056 1369 1301 889 
Q 1547 409 2034 409 
Q 2525 409 2770 889 
Q 3016 1369 3016 2328 
Q 3016 3291 2770 3770 
Q 2525 4250 2034 4250 
z
M 2034 4750 
Q 2819 4750 3233 4129 
Q 3647 3509 3647 2328 
Q 3647 1150 3233 529 
Q 2819 -91 2034 -91 
Q 1250 -91 836 529 
Q 422 1150 422 2328 
Q 422 3509 836 4129 
Q 1250 4750 2034 4750 
z
" id="DejaVuSans-30" transform="scale(0.015625)"/>
        <path d="M 684 794 
L 1344 794 
L 1344 0 
L 684 0 
L 684 794 
z
" id="DejaVuSans-2e" transform="scale(0.015625)"/>
       </defs>
       <use xlink:href="#DejaVuSans-30"/>
       <use x="63.623047" xlink:href="#DejaVuSans-2e"/>
       <use x="95.410156" xlink:href="#DejaVuSans-30"/>
      </g>
     </g>
    </g>
    <g id="ytick_2">
     <g id="line2d_12">
      <g>
       <use style="stroke:#000000;stroke-width:0.8;" x="162" xlink:href="#m3b1209daf5" y="687.562062"/>
      </g>
     </g>
     <g id="text_12">
      <!-- 0.2 -->
      <g transform="translate(139.096875 691.361281)scale(0.1 -0.1)">
       <defs>
        <path d="M 1228 531 
L 3431 531 
L 3431 0 
L 469 0 
L 469 531 
Q 828 903 1448 1529 
Q 2069 2156 2228 2338 
Q 2531 2678 2651 2914 
Q 2772 3150 2772 3378 
Q 2772 3750 2511 3984 
Q 2250 4219 1831 4219 
Q 1534 4219 1204 4116 
Q 875 4013 500 3803 
L 500 4441 
Q 881 4594 1212 4672 
Q 1544 4750 1819 4750 
Q 2544 4750 2975 4387 
Q 3406 4025 3406 3419 
Q 3406 3131 3298 2873 
Q 3191 2616 2906 2266 
Q 2828 2175 2409 1742 
Q 1991 1309 1228 531 
z
" id="DejaVuSans-32" transform="scale(0.015625)"/>
       </defs>
       <use xlink:href="#DejaVuSans-30"/>
       <use x="63.623047" xlink:href="#DejaVuSans-2e"/>
       <use x="95.410156" xlink:href="#DejaVuSans-32"/>
      </g>
     </g>
    </g>
    <g id="ytick_3">
     <g id="line2d_13">
      <g>
       <use style="stroke:#000000;stroke-width:0.8;" x="162" xlink:href="#m3b1209daf5" y="606.164125"/>
      </g>
     </g>
     <g id="text_13">
      <!-- 0.4 -->
      <g transform="translate(139.096875 609.963343)scale(0.1 -0.1)">
       <defs>
        <path d="M 2419 4116 
L 825 1625 
L 2419 1625 
L 2419 4116 
z
M 2253 4666 
L 3047 4666 
L 3047 1625 
L 3713 1625 
L 3713 1100 
L 3047 1100 
L 3047 0 
L 2419 0 
L 2419 1100 
L 313 1100 
L 313 1709 
L 2253 4666 
z
" id="DejaVuSans-34" transform="scale(0.015625)"/>
       </defs>
       <use xlink:href="#DejaVuSans-30"/>
       <use x="63.623047" xlink:href="#DejaVuSans-2e"/>
       <use x="95.410156" xlink:href="#DejaVuSans-34"/>
      </g>
     </g>
    </g>
    <g id="ytick_4">
     <g id="line2d_14">
      <g>
       <use style="stroke:#000000;stroke-width:0.8;" x="162" xlink:href="#m3b1209daf5" y="524.766187"/>
      </g>
     </g>
     <g id="text_14">
      <!-- 0.6 -->
      <g transform="translate(139.096875 528.565406)scale(0.1 -0.1)">
       <defs>
        <path d="M 2113 2584 
Q 1688 2584 1439 2293 
Q 1191 2003 1191 1497 
Q 1191 994 1439 701 
Q 1688 409 2113 409 
Q 2538 409 2786 701 
Q 3034 994 3034 1497 
Q 3034 2003 2786 2293 
Q 2538 2584 2113 2584 
z
M 3366 4563 
L 3366 3988 
Q 3128 4100 2886 4159 
Q 2644 4219 2406 4219 
Q 1781 4219 1451 3797 
Q 1122 3375 1075 2522 
Q 1259 2794 1537 2939 
Q 1816 3084 2150 3084 
Q 2853 3084 3261 2657 
Q 3669 2231 3669 1497 
Q 3669 778 3244 343 
Q 2819 -91 2113 -91 
Q 1303 -91 875 529 
Q 447 1150 447 2328 
Q 447 3434 972 4092 
Q 1497 4750 2381 4750 
Q 2619 4750 2861 4703 
Q 3103 4656 3366 4563 
z
" id="DejaVuSans-36" transform="scale(0.015625)"/>
       </defs>
       <use xlink:href="#DejaVuSans-30"/>
       <use x="63.623047" xlink:href="#DejaVuSans-2e"/>
       <use x="95.410156" xlink:href="#DejaVuSans-36"/>
      </g>
     </g>
    </g>
    <g id="ytick_5">
     <g id="line2d_15">
      <g>
       <use style="stroke:#000000;stroke-width:0.8;" x="162" xlink:href="#m3b1209daf5" y="443.368249"/>
      </g>
     </g>
     <g id="text_15">
      <!-- 0.8 -->
      <g transform="translate(139.096875 447.167468)scale(0.1 -0.1)">
       <defs>
        <path d="M 2034 2216 
Q 1584 2216 1326 1975 
Q 1069 1734 1069 1313 
Q 1069 891 1326 650 
Q 1584 409 2034 409 
Q 2484 409 2743 651 
Q 3003 894 3003 1313 
Q 3003 1734 2745 1975 
Q 2488 2216 2034 2216 
z
M 1403 2484 
Q 997 2584 770 2862 
Q 544 3141 544 3541 
Q 544 4100 942 4425 
Q 1341 4750 2034 4750 
Q 2731 4750 3128 4425 
Q 3525 4100 3525 3541 
Q 3525 3141 3298 2862 
Q 3072 2584 2669 2484 
Q 3125 2378 3379 2068 
Q 3634 1759 3634 1313 
Q 3634 634 3220 271 
Q 2806 -91 2034 -91 
Q 1263 -91 848 271 
Q 434 634 434 1313 
Q 434 1759 690 2068 
Q 947 2378 1403 2484 
z
M 1172 3481 
Q 1172 3119 1398 2916 
Q 1625 2713 2034 2713 
Q 2441 2713 2670 2916 
Q 2900 3119 2900 3481 
Q 2900 3844 2670 4047 
Q 2441 4250 2034 4250 
Q 1625 4250 1398 4047 
Q 1172 3844 1172 3481 
z
" id="DejaVuSans-38" transform="scale(0.015625)"/>
       </defs>
       <use xlink:href="#DejaVuSans-30"/>
       <use x="63.623047" xlink:href="#DejaVuSans-2e"/>
       <use x="95.410156" xlink:href="#DejaVuSans-38"/>
      </g>
     </g>
    </g>
    <g id="ytick_6">
     <g id="line2d_16">
      <g>
       <use style="stroke:#000000;stroke-width:0.8;" x="162" xlink:href="#m3b1209daf5" y="361.970312"/>
      </g>
     </g>
     <g id="text_16">
      <!-- 1.0 -->
      <g transform="translate(139.096875 365.769531)scale(0.1 -0.1)">
       <defs>
        <path d="M 794 531 
L 1825 531 
L 1825 4091 
L 703 3866 
L 703 4441 
L 1819 4666 
L 2450 4666 
L 2450 531 
L 3481 531 
L 3481 0 
L 794 0 
L 794 531 
z
" id="DejaVuSans-31" transform="scale(0.015625)"/>
       </defs>
       <use xlink:href="#DejaVuSans-31"/>
       <use x="63.623047" xlink:href="#DejaVuSans-2e"/>
       <use x="95.410156" xlink:href="#DejaVuSans-30"/>
      </g>
     </g>
    </g>
    <g id="ytick_7">
     <g id="line2d_17">
      <g>
       <use style="stroke:#000000;stroke-width:0.8;" x="162" xlink:href="#m3b1209daf5" y="280.572374"/>
      </g>
     </g>
     <g id="text_17">
      <!-- 1.2 -->
      <g transform="translate(139.096875 284.371593)scale(0.1 -0.1)">
       <use xlink:href="#DejaVuSans-31"/>
       <use x="63.623047" xlink:href="#DejaVuSans-2e"/>
       <use x="95.410156" xlink:href="#DejaVuSans-32"/>
      </g>
     </g>
    </g>
    <g id="ytick_8">
     <g id="line2d_18">
      <g>
       <use style="stroke:#000000;stroke-width:0.8;" x="162" xlink:href="#m3b1209daf5" y="199.174437"/>
      </g>
     </g>
     <g id="text_18">
      <!-- 1.4 -->
      <g transform="translate(139.096875 202.973655)scale(0.1 -0.1)">
       <use xlink:href="#DejaVuSans-31"/>
       <use x="63.623047" xlink:href="#DejaVuSans-2e"/>
       <use x="95.410156" xlink:href="#DejaVuSans-34"/>
      </g>
     </g>
    </g>
    <g id="ytick_9">
     <g id="line2d_19">
      <g>
       <use style="stroke:#000000;stroke-width:0.8;" x="162" xlink:href="#m3b1209daf5" y="117.776499"/>
      </g>
     </g>
     <g id="text_19">
      <!-- 1.6 -->
      <g transform="translate(139.096875 121.575718)scale(0.1 -0.1)">
       <use xlink:href="#DejaVuSans-31"/>
       <use x="63.623047" xlink:href="#DejaVuSans-2e"/>
       <use x="95.410156" xlink:href="#DejaVuSans-36"/>
      </g>
     </g>
    </g>
    <g id="text_20">
     <!-- Persons fully vaccinated (tens of millions) -->
     <g transform="translate(133.017188 540.480156)rotate(-90)scale(0.1 -0.1)">
      <defs>
       <path d="M 1259 4147 
L 1259 2394 
L 2053 2394 
Q 2494 2394 2734 2622 
Q 2975 2850 2975 3272 
Q 2975 3691 2734 3919 
Q 2494 4147 2053 4147 
L 1259 4147 
z
M 628 4666 
L 2053 4666 
Q 2838 4666 3239 4311 
Q 3641 3956 3641 3272 
Q 3641 2581 3239 2228 
Q 2838 1875 2053 1875 
L 1259 1875 
L 1259 0 
L 628 0 
L 628 4666 
z
" id="DejaVuSans-50" transform="scale(0.015625)"/>
       <path id="DejaVuSans-20" transform="scale(0.015625)"/>
       <path d="M 2375 4863 
L 2375 4384 
L 1825 4384 
Q 1516 4384 1395 4259 
Q 1275 4134 1275 3809 
L 1275 3500 
L 2222 3500 
L 2222 3053 
L 1275 3053 
L 1275 0 
L 697 0 
L 697 3053 
L 147 3053 
L 147 3500 
L 697 3500 
L 697 3744 
Q 697 4328 969 4595 
Q 1241 4863 1831 4863 
L 2375 4863 
z
" id="DejaVuSans-66" transform="scale(0.015625)"/>
       <path d="M 191 3500 
L 800 3500 
L 1894 563 
L 2988 3500 
L 3597 3500 
L 2284 0 
L 1503 0 
L 191 3500 
z
" id="DejaVuSans-76" transform="scale(0.015625)"/>
       <path d="M 2906 2969 
L 2906 4863 
L 3481 4863 
L 3481 0 
L 2906 0 
L 2906 525 
Q 2725 213 2448 61 
Q 2172 -91 1784 -91 
Q 1150 -91 751 415 
Q 353 922 353 1747 
Q 353 2572 751 3078 
Q 1150 3584 1784 3584 
Q 2172 3584 2448 3432 
Q 2725 3281 2906 2969 
z
M 947 1747 
Q 947 1113 1208 752 
Q 1469 391 1925 391 
Q 2381 391 2643 752 
Q 2906 1113 2906 1747 
Q 2906 2381 2643 2742 
Q 2381 3103 1925 3103 
Q 1469 3103 1208 2742 
Q 947 2381 947 1747 
z
" id="DejaVuSans-64" transform="scale(0.015625)"/>
       <path d="M 1984 4856 
Q 1566 4138 1362 3434 
Q 1159 2731 1159 2009 
Q 1159 1288 1364 580 
Q 1569 -128 1984 -844 
L 1484 -844 
Q 1016 -109 783 600 
Q 550 1309 550 2009 
Q 550 2706 781 3412 
Q 1013 4119 1484 4856 
L 1984 4856 
z
" id="DejaVuSans-28" transform="scale(0.015625)"/>
       <path d="M 513 4856 
L 1013 4856 
Q 1481 4119 1714 3412 
Q 1947 2706 1947 2009 
Q 1947 1309 1714 600 
Q 1481 -109 1013 -844 
L 513 -844 
Q 928 -128 1133 580 
Q 1338 1288 1338 2009 
Q 1338 2731 1133 3434 
Q 928 4138 513 4856 
z
" id="DejaVuSans-29" transform="scale(0.015625)"/>
      </defs>
      <use xlink:href="#DejaVuSans-50"/>
      <use x="56.677734" xlink:href="#DejaVuSans-65"/>
      <use x="118.201172" xlink:href="#DejaVuSans-72"/>
      <use x="159.314453" xlink:href="#DejaVuSans-73"/>
      <use x="211.414062" xlink:href="#DejaVuSans-6f"/>
      <use x="272.595703" xlink:href="#DejaVuSans-6e"/>
      <use x="335.974609" xlink:href="#DejaVuSans-73"/>
      <use x="388.074219" xlink:href="#DejaVuSans-20"/>
      <use x="419.861328" xlink:href="#DejaVuSans-66"/>
      <use x="455.066406" xlink:href="#DejaVuSans-75"/>
      <use x="518.445312" xlink:href="#DejaVuSans-6c"/>
      <use x="546.228516" xlink:href="#DejaVuSans-6c"/>
      <use x="574.011719" xlink:href="#DejaVuSans-79"/>
      <use x="633.191406" xlink:href="#DejaVuSans-20"/>
      <use x="664.978516" xlink:href="#DejaVuSans-76"/>
      <use x="724.158203" xlink:href="#DejaVuSans-61"/>
      <use x="785.4375" xlink:href="#DejaVuSans-63"/>
      <use x="840.417969" xlink:href="#DejaVuSans-63"/>
      <use x="895.398438" xlink:href="#DejaVuSans-69"/>
      <use x="923.181641" xlink:href="#DejaVuSans-6e"/>
      <use x="986.560547" xlink:href="#DejaVuSans-61"/>
      <use x="1047.839844" xlink:href="#DejaVuSans-74"/>
      <use x="1087.048828" xlink:href="#DejaVuSans-65"/>
      <use x="1148.572266" xlink:href="#DejaVuSans-64"/>
      <use x="1212.048828" xlink:href="#DejaVuSans-20"/>
      <use x="1243.835938" xlink:href="#DejaVuSans-28"/>
      <use x="1282.849609" xlink:href="#DejaVuSans-74"/>
      <use x="1322.058594" xlink:href="#DejaVuSans-65"/>
      <use x="1383.582031" xlink:href="#DejaVuSans-6e"/>
      <use x="1446.960938" xlink:href="#DejaVuSans-73"/>
      <use x="1499.060547" xlink:href="#DejaVuSans-20"/>
      <use x="1530.847656" xlink:href="#DejaVuSans-6f"/>
      <use x="1592.029297" xlink:href="#DejaVuSans-66"/>
      <use x="1627.234375" xlink:href="#DejaVuSans-20"/>
      <use x="1659.021484" xlink:href="#DejaVuSans-6d"/>
      <use x="1756.433594" xlink:href="#DejaVuSans-69"/>
      <use x="1784.216797" xlink:href="#DejaVuSans-6c"/>
      <use x="1812" xlink:href="#DejaVuSans-6c"/>
      <use x="1839.783203" xlink:href="#DejaVuSans-69"/>
      <use x="1867.566406" xlink:href="#DejaVuSans-6f"/>
      <use x="1928.748047" xlink:href="#DejaVuSans-6e"/>
      <use x="1992.126953" xlink:href="#DejaVuSans-73"/>
      <use x="2044.226562" xlink:href="#DejaVuSans-29"/>
     </g>
    </g>
    <g id="text_21">
     <!-- 1e7 -->
     <g transform="translate(162 100.68)scale(0.1 -0.1)">
      <defs>
       <path d="M 525 4666 
L 3525 4666 
L 3525 4397 
L 1831 0 
L 1172 0 
L 2766 4134 
L 525 4134 
L 525 4666 
z
" id="DejaVuSans-37" transform="scale(0.015625)"/>
      </defs>
      <use xlink:href="#DejaVuSans-31"/>
      <use x="63.623047" xlink:href="#DejaVuSans-65"/>
      <use x="125.146484" xlink:href="#DejaVuSans-37"/>
     </g>
    </g>
   </g>
   <g id="patch_298">
    <path d="M 162 768.96 
L 162 103.68 
" style="fill:none;stroke:#000000;stroke-linecap:square;stroke-linejoin:miter;stroke-width:0.8;"/>
   </g>
   <g id="patch_299">
    <path d="M 1166.4 768.96 
L 1166.4 103.68 
" style="fill:none;stroke:#000000;stroke-linecap:square;stroke-linejoin:miter;stroke-width:0.8;"/>
   </g>
   <g id="patch_300">
    <path d="M 162 768.96 
L 1166.4 768.96 
" style="fill:none;stroke:#000000;stroke-linecap:square;stroke-linejoin:miter;stroke-width:0.8;"/>
   </g>
   <g id="patch_301">
    <path d="M 162 103.68 
L 1166.4 103.68 
" style="fill:none;stroke:#000000;stroke-linecap:square;stroke-linejoin:miter;stroke-width:0.8;"/>
   </g>
   <g id="text_22">
    <!-- Persons Fully Vaccinated -->
    <g transform="translate(590.380313 97.68)scale(0.12 -0.12)">
     <defs>
      <path d="M 1831 0 
L 50 4666 
L 709 4666 
L 2188 738 
L 3669 4666 
L 4325 4666 
L 2547 0 
L 1831 0 
z
" id="DejaVuSans-56" transform="scale(0.015625)"/>
     </defs>
     <use xlink:href="#DejaVuSans-50"/>
     <use x="56.677734" xlink:href="#DejaVuSans-65"/>
     <use x="118.201172" xlink:href="#DejaVuSans-72"/>
     <use x="159.314453" xlink:href="#DejaVuSans-73"/>
     <use x="211.414062" xlink:href="#DejaVuSans-6f"/>
     <use x="272.595703" xlink:href="#DejaVuSans-6e"/>
     <use x="335.974609" xlink:href="#DejaVuSans-73"/>
     <use x="388.074219" xlink:href="#DejaVuSans-20"/>
     <use x="419.861328" xlink:href="#DejaVuSans-46"/>
     <use x="471.880859" xlink:href="#DejaVuSans-75"/>
     <use x="535.259766" xlink:href="#DejaVuSans-6c"/>
     <use x="563.042969" xlink:href="#DejaVuSans-6c"/>
     <use x="590.826172" xlink:href="#DejaVuSans-79"/>
     <use x="650.005859" xlink:href="#DejaVuSans-20"/>
     <use x="681.792969" xlink:href="#DejaVuSans-56"/>
     <use x="742.451172" xlink:href="#DejaVuSans-61"/>
     <use x="803.730469" xlink:href="#DejaVuSans-63"/>
     <use x="858.710938" xlink:href="#DejaVuSans-63"/>
     <use x="913.691406" xlink:href="#DejaVuSans-69"/>
     <use x="941.474609" xlink:href="#DejaVuSans-6e"/>
     <use x="1004.853516" xlink:href="#DejaVuSans-61"/>
     <use x="1066.132812" xlink:href="#DejaVuSans-74"/>
     <use x="1105.341797" xlink:href="#DejaVuSans-65"/>
     <use x="1166.865234" xlink:href="#DejaVuSans-64"/>
    </g>
   </g>
  </g>
 </g>
 <defs>
  <clipPath id="p7285678b2a">
   <rect height="665.28" width="1004.4" x="162" y="103.68"/>
  </clipPath>
 </defs>
</svg>
