<?xml version="1.0" encoding="utf-8" standalone="no"?>
<!DOCTYPE svg PUBLIC "-//W3C//DTD SVG 1.1//EN"
  "http://www.w3.org/Graphics/SVG/1.1/DTD/svg11.dtd">
<svg height="864pt" version="1.1" viewBox="0 0 1296 864" width="1296pt" xmlns="http://www.w3.org/2000/svg" xmlns:xlink="http://www.w3.org/1999/xlink">
 <metadata>
  <rdf:RDF xmlns:cc="http://creativecommons.org/ns#" xmlns:dc="http://purl.org/dc/elements/1.1/" xmlns:rdf="http://www.w3.org/1999/02/22-rdf-syntax-ns#">
   <cc:Work>
    <dc:type rdf:resource="http://purl.org/dc/dcmitype/StillImage"/>
    <dc:date>2021-07-23T09:20:02.920915</dc:date>
    <dc:format>image/svg+xml</dc:format>
    <dc:creator>
     <cc:Agent>
      <dc:title>Matplotlib v3.4.2, https://matplotlib.org/</dc:title>
     </cc:Agent>
    </dc:creator>
   </cc:Work>
  </rdf:RDF>
 </metadata>
 <defs>
  <style type="text/css">*{stroke-linecap:butt;stroke-linejoin:round;}</style>
 </defs>
 <g id="figure_1">
  <g id="patch_1">
   <path d="M 0 864 
L 1296 864 
L 1296 0 
L 0 0 
z
" style="fill:#ffffff;"/>
  </g>
  <g id="axes_1">
   <g id="patch_2">
    <path d="M 162 768.96 
L 1166.4 768.96 
L 1166.4 103.68 
L 162 103.68 
z
" style="fill:#ffffff;"/>
   </g>
   <g id="patch_3">
    <path clip-path="url(#p552f7e37eb)" d="M 163.261809 768.96 
L 165.785427 768.96 
L 165.785427 768.947267 
L 163.261809 768.947267 
z
" style="fill:#1f77b4;"/>
   </g>
   <g id="patch_4">
    <path clip-path="url(#p552f7e37eb)" d="M 168.309045 768.96 
L 170.832663 768.96 
L 170.832663 768.920835 
L 168.309045 768.920835 
z
" style="fill:#1f77b4;"/>
   </g>
   <g id="patch_5">
    <path clip-path="url(#p552f7e37eb)" d="M 173.356281 768.96 
L 175.879899 768.96 
L 175.879899 768.695224 
L 173.356281 768.695224 
z
" style="fill:#1f77b4;"/>
   </g>
   <g id="patch_6">
    <path clip-path="url(#p552f7e37eb)" d="M 178.403518 768.96 
L 180.927136 768.96 
L 180.927136 767.033477 
L 178.403518 767.033477 
z
" style="fill:#1f77b4;"/>
   </g>
   <g id="patch_7">
    <path clip-path="url(#p552f7e37eb)" d="M 183.450754 768.96 
L 185.974372 768.96 
L 185.974372 765.043931 
L 183.450754 765.043931 
z
" style="fill:#1f77b4;"/>
   </g>
   <g id="patch_8">
    <path clip-path="url(#p552f7e37eb)" d="M 188.49799 768.96 
L 191.021608 768.96 
L 191.021608 763.94419 
L 188.49799 763.94419 
z
" style="fill:#1f77b4;"/>
   </g>
   <g id="patch_9">
    <path clip-path="url(#p552f7e37eb)" d="M 193.545226 768.96 
L 196.068844 768.96 
L 196.068844 763.274113 
L 193.545226 763.274113 
z
" style="fill:#1f77b4;"/>
   </g>
   <g id="patch_10">
    <path clip-path="url(#p552f7e37eb)" d="M 198.592462 768.96 
L 201.11608 768.96 
L 201.11608 762.234452 
L 198.592462 762.234452 
z
" style="fill:#1f77b4;"/>
   </g>
   <g id="patch_11">
    <path clip-path="url(#p552f7e37eb)" d="M 203.639698 768.96 
L 206.163317 768.96 
L 206.163317 761.254275 
L 203.639698 761.254275 
z
" style="fill:#1f77b4;"/>
   </g>
   <g id="patch_12">
    <path clip-path="url(#p552f7e37eb)" d="M 208.686935 768.96 
L 211.210553 768.96 
L 211.210553 760.454981 
L 208.686935 760.454981 
z
" style="fill:#1f77b4;"/>
   </g>
   <g id="patch_13">
    <path clip-path="url(#p552f7e37eb)" d="M 213.734171 768.96 
L 216.257789 768.96 
L 216.257789 759.484778 
L 213.734171 759.484778 
z
" style="fill:#1f77b4;"/>
   </g>
   <g id="patch_14">
    <path clip-path="url(#p552f7e37eb)" d="M 218.781407 768.96 
L 221.305025 768.96 
L 221.305025 759.294378 
L 218.781407 759.294378 
z
" style="fill:#1f77b4;"/>
   </g>
   <g id="patch_15">
    <path clip-path="url(#p552f7e37eb)" d="M 223.828643 768.96 
L 226.352261 768.96 
L 226.352261 759.17624 
L 223.828643 759.17624 
z
" style="fill:#1f77b4;"/>
   </g>
   <g id="patch_16">
    <path clip-path="url(#p552f7e37eb)" d="M 228.875879 768.96 
L 231.399497 768.96 
L 231.399497 759.121492 
L 228.875879 759.121492 
z
" style="fill:#1f77b4;"/>
   </g>
   <g id="patch_17">
    <path clip-path="url(#p552f7e37eb)" d="M 233.923116 768.96 
L 236.446734 768.96 
L 236.446734 758.851843 
L 233.923116 758.851843 
z
" style="fill:#1f77b4;"/>
   </g>
   <g id="patch_18">
    <path clip-path="url(#p552f7e37eb)" d="M 238.970352 768.96 
L 241.49397 768.96 
L 241.49397 758.415836 
L 238.970352 758.415836 
z
" style="fill:#1f77b4;"/>
   </g>
   <g id="patch_19">
    <path clip-path="url(#p552f7e37eb)" d="M 244.017588 768.96 
L 246.541206 768.96 
L 246.541206 757.535363 
L 244.017588 757.535363 
z
" style="fill:#1f77b4;"/>
   </g>
   <g id="patch_20">
    <path clip-path="url(#p552f7e37eb)" d="M 249.064824 768.96 
L 251.588442 768.96 
L 251.588442 756.664911 
L 249.064824 756.664911 
z
" style="fill:#1f77b4;"/>
   </g>
   <g id="patch_21">
    <path clip-path="url(#p552f7e37eb)" d="M 254.11206 768.96 
L 256.635678 768.96 
L 256.635678 756.058316 
L 254.11206 756.058316 
z
" style="fill:#1f77b4;"/>
   </g>
   <g id="patch_22">
    <path clip-path="url(#p552f7e37eb)" d="M 259.159296 768.96 
L 261.682915 768.96 
L 261.682915 755.84723 
L 259.159296 755.84723 
z
" style="fill:#1f77b4;"/>
   </g>
   <g id="patch_23">
    <path clip-path="url(#p552f7e37eb)" d="M 264.206533 768.96 
L 266.730151 768.96 
L 266.730151 755.547932 
L 264.206533 755.547932 
z
" style="fill:#1f77b4;"/>
   </g>
   <g id="patch_24">
    <path clip-path="url(#p552f7e37eb)" d="M 269.253769 768.96 
L 271.777387 768.96 
L 271.777387 754.734113 
L 269.253769 754.734113 
z
" style="fill:#1f77b4;"/>
   </g>
   <g id="patch_25">
    <path clip-path="url(#p552f7e37eb)" d="M 274.301005 768.96 
L 276.824623 768.96 
L 276.824623 753.342106 
L 274.301005 753.342106 
z
" style="fill:#1f77b4;"/>
   </g>
   <g id="patch_26">
    <path clip-path="url(#p552f7e37eb)" d="M 279.348241 768.96 
L 281.871859 768.96 
L 281.871859 751.404367 
L 279.348241 751.404367 
z
" style="fill:#1f77b4;"/>
   </g>
   <g id="patch_27">
    <path clip-path="url(#p552f7e37eb)" d="M 284.395477 768.96 
L 286.919095 768.96 
L 286.919095 749.777785 
L 284.395477 749.777785 
z
" style="fill:#1f77b4;"/>
   </g>
   <g id="patch_28">
    <path clip-path="url(#p552f7e37eb)" d="M 289.442714 768.96 
L 291.966332 768.96 
L 291.966332 748.321378 
L 289.442714 748.321378 
z
" style="fill:#1f77b4;"/>
   </g>
   <g id="patch_29">
    <path clip-path="url(#p552f7e37eb)" d="M 294.48995 768.96 
L 297.013568 768.96 
L 297.013568 747.540977 
L 294.48995 747.540977 
z
" style="fill:#1f77b4;"/>
   </g>
   <g id="patch_30">
    <path clip-path="url(#p552f7e37eb)" d="M 299.537186 768.96 
L 302.060804 768.96 
L 302.060804 747.101201 
L 299.537186 747.101201 
z
" style="fill:#1f77b4;"/>
   </g>
   <g id="patch_31">
    <path clip-path="url(#p552f7e37eb)" d="M 304.584422 768.96 
L 307.10804 768.96 
L 307.10804 746.307377 
L 304.584422 746.307377 
z
" style="fill:#1f77b4;"/>
   </g>
   <g id="patch_32">
    <path clip-path="url(#p552f7e37eb)" d="M 309.631658 768.96 
L 312.155276 768.96 
L 312.155276 744.561095 
L 309.631658 744.561095 
z
" style="fill:#1f77b4;"/>
   </g>
   <g id="patch_33">
    <path clip-path="url(#p552f7e37eb)" d="M 314.678894 768.96 
L 317.202513 768.96 
L 317.202513 743.274218 
L 314.678894 743.274218 
z
" style="fill:#1f77b4;"/>
   </g>
   <g id="patch_34">
    <path clip-path="url(#p552f7e37eb)" d="M 319.726131 768.96 
L 322.249749 768.96 
L 322.249749 741.532165 
L 319.726131 741.532165 
z
" style="fill:#1f77b4;"/>
   </g>
   <g id="patch_35">
    <path clip-path="url(#p552f7e37eb)" d="M 324.773367 768.96 
L 327.296985 768.96 
L 327.296985 740.177439 
L 324.773367 740.177439 
z
" style="fill:#1f77b4;"/>
   </g>
   <g id="patch_36">
    <path clip-path="url(#p552f7e37eb)" d="M 329.820603 768.96 
L 332.344221 768.96 
L 332.344221 738.961077 
L 329.820603 738.961077 
z
" style="fill:#1f77b4;"/>
   </g>
   <g id="patch_37">
    <path clip-path="url(#p552f7e37eb)" d="M 334.867839 768.96 
L 337.391457 768.96 
L 337.391457 738.548053 
L 334.867839 738.548053 
z
" style="fill:#1f77b4;"/>
   </g>
   <g id="patch_38">
    <path clip-path="url(#p552f7e37eb)" d="M 339.915075 768.96 
L 342.438693 768.96 
L 342.438693 737.148095 
L 339.915075 737.148095 
z
" style="fill:#1f77b4;"/>
   </g>
   <g id="patch_39">
    <path clip-path="url(#p552f7e37eb)" d="M 344.962312 768.96 
L 347.48593 768.96 
L 347.48593 735.389769 
L 344.962312 735.389769 
z
" style="fill:#1f77b4;"/>
   </g>
   <g id="patch_40">
    <path clip-path="url(#p552f7e37eb)" d="M 350.009548 768.96 
L 352.533166 768.96 
L 352.533166 733.270179 
L 350.009548 733.270179 
z
" style="fill:#1f77b4;"/>
   </g>
   <g id="patch_41">
    <path clip-path="url(#p552f7e37eb)" d="M 355.056784 768.96 
L 357.580402 768.96 
L 357.580402 730.244237 
L 355.056784 730.244237 
z
" style="fill:#1f77b4;"/>
   </g>
   <g id="patch_42">
    <path clip-path="url(#p552f7e37eb)" d="M 360.10402 768.96 
L 362.627638 768.96 
L 362.627638 727.504354 
L 360.10402 727.504354 
z
" style="fill:#1f77b4;"/>
   </g>
   <g id="patch_43">
    <path clip-path="url(#p552f7e37eb)" d="M 365.151256 768.96 
L 367.674874 768.96 
L 367.674874 725.803672 
L 365.151256 725.803672 
z
" style="fill:#1f77b4;"/>
   </g>
   <g id="patch_44">
    <path clip-path="url(#p552f7e37eb)" d="M 370.198492 768.96 
L 372.722111 768.96 
L 372.722111 724.891343 
L 370.198492 724.891343 
z
" style="fill:#1f77b4;"/>
   </g>
   <g id="patch_45">
    <path clip-path="url(#p552f7e37eb)" d="M 375.245729 768.96 
L 377.769347 768.96 
L 377.769347 723.986828 
L 375.245729 723.986828 
z
" style="fill:#1f77b4;"/>
   </g>
   <g id="patch_46">
    <path clip-path="url(#p552f7e37eb)" d="M 380.292965 768.96 
L 382.816583 768.96 
L 382.816583 722.167641 
L 380.292965 722.167641 
z
" style="fill:#1f77b4;"/>
   </g>
   <g id="patch_47">
    <path clip-path="url(#p552f7e37eb)" d="M 385.340201 768.96 
L 387.863819 768.96 
L 387.863819 719.122116 
L 385.340201 719.122116 
z
" style="fill:#1f77b4;"/>
   </g>
   <g id="patch_48">
    <path clip-path="url(#p552f7e37eb)" d="M 390.387437 768.96 
L 392.911055 768.96 
L 392.911055 714.989905 
L 390.387437 714.989905 
z
" style="fill:#1f77b4;"/>
   </g>
   <g id="patch_49">
    <path clip-path="url(#p552f7e37eb)" d="M 395.434673 768.96 
L 397.958291 768.96 
L 397.958291 711.177632 
L 395.434673 711.177632 
z
" style="fill:#1f77b4;"/>
   </g>
   <g id="patch_50">
    <path clip-path="url(#p552f7e37eb)" d="M 400.48191 768.96 
L 403.005528 768.96 
L 403.005528 710.43943 
L 400.48191 710.43943 
z
" style="fill:#1f77b4;"/>
   </g>
   <g id="patch_51">
    <path clip-path="url(#p552f7e37eb)" d="M 405.529146 768.96 
L 408.052764 768.96 
L 408.052764 707.665531 
L 405.529146 707.665531 
z
" style="fill:#1f77b4;"/>
   </g>
   <g id="patch_52">
    <path clip-path="url(#p552f7e37eb)" d="M 410.576382 768.96 
L 413.1 768.96 
L 413.1 705.377652 
L 410.576382 705.377652 
z
" style="fill:#1f77b4;"/>
   </g>
   <g id="patch_53">
    <path clip-path="url(#p552f7e37eb)" d="M 415.623618 768.96 
L 418.147236 768.96 
L 418.147236 701.966175 
L 415.623618 701.966175 
z
" style="fill:#1f77b4;"/>
   </g>
   <g id="patch_54">
    <path clip-path="url(#p552f7e37eb)" d="M 420.670854 768.96 
L 423.194472 768.96 
L 423.194472 695.704262 
L 420.670854 695.704262 
z
" style="fill:#1f77b4;"/>
   </g>
   <g id="patch_55">
    <path clip-path="url(#p552f7e37eb)" d="M 425.71809 768.96 
L 428.241709 768.96 
L 428.241709 689.197936 
L 425.71809 689.197936 
z
" style="fill:#1f77b4;"/>
   </g>
   <g id="patch_56">
    <path clip-path="url(#p552f7e37eb)" d="M 430.765327 768.96 
L 433.288945 768.96 
L 433.288945 683.405128 
L 430.765327 683.405128 
z
" style="fill:#1f77b4;"/>
   </g>
   <g id="patch_57">
    <path clip-path="url(#p552f7e37eb)" d="M 435.812563 768.96 
L 438.336181 768.96 
L 438.336181 678.316826 
L 435.812563 678.316826 
z
" style="fill:#1f77b4;"/>
   </g>
   <g id="patch_58">
    <path clip-path="url(#p552f7e37eb)" d="M 440.859799 768.96 
L 443.383417 768.96 
L 443.383417 675.764079 
L 440.859799 675.764079 
z
" style="fill:#1f77b4;"/>
   </g>
   <g id="patch_59">
    <path clip-path="url(#p552f7e37eb)" d="M 445.907035 768.96 
L 448.430653 768.96 
L 448.430653 672.164179 
L 445.907035 672.164179 
z
" style="fill:#1f77b4;"/>
   </g>
   <g id="patch_60">
    <path clip-path="url(#p552f7e37eb)" d="M 450.954271 768.96 
L 453.477889 768.96 
L 453.477889 667.290319 
L 450.954271 667.290319 
z
" style="fill:#1f77b4;"/>
   </g>
   <g id="patch_61">
    <path clip-path="url(#p552f7e37eb)" d="M 456.001508 768.96 
L 458.525126 768.96 
L 458.525126 661.810691 
L 456.001508 661.810691 
z
" style="fill:#1f77b4;"/>
   </g>
   <g id="patch_62">
    <path clip-path="url(#p552f7e37eb)" d="M 461.048744 768.96 
L 463.572362 768.96 
L 463.572362 653.853658 
L 461.048744 653.853658 
z
" style="fill:#1f77b4;"/>
   </g>
   <g id="patch_63">
    <path clip-path="url(#p552f7e37eb)" d="M 466.09598 768.96 
L 468.619598 768.96 
L 468.619598 646.291399 
L 466.09598 646.291399 
z
" style="fill:#1f77b4;"/>
   </g>
   <g id="patch_64">
    <path clip-path="url(#p552f7e37eb)" d="M 471.143216 768.96 
L 473.666834 768.96 
L 473.666834 640.397874 
L 471.143216 640.397874 
z
" style="fill:#1f77b4;"/>
   </g>
   <g id="patch_65">
    <path clip-path="url(#p552f7e37eb)" d="M 476.190452 768.96 
L 478.71407 768.96 
L 478.71407 638.569952 
L 476.190452 638.569952 
z
" style="fill:#1f77b4;"/>
   </g>
   <g id="patch_66">
    <path clip-path="url(#p552f7e37eb)" d="M 481.237688 768.96 
L 483.761307 768.96 
L 483.761307 633.777961 
L 481.237688 633.777961 
z
" style="fill:#1f77b4;"/>
   </g>
   <g id="patch_67">
    <path clip-path="url(#p552f7e37eb)" d="M 486.284925 768.96 
L 488.808543 768.96 
L 488.808543 627.548915 
L 486.284925 627.548915 
z
" style="fill:#1f77b4;"/>
   </g>
   <g id="patch_68">
    <path clip-path="url(#p552f7e37eb)" d="M 491.332161 768.96 
L 493.855779 768.96 
L 493.855779 620.639449 
L 491.332161 620.639449 
z
" style="fill:#1f77b4;"/>
   </g>
   <g id="patch_69">
    <path clip-path="url(#p552f7e37eb)" d="M 496.379397 768.96 
L 498.903015 768.96 
L 498.903015 613.26474 
L 496.379397 613.26474 
z
" style="fill:#1f77b4;"/>
   </g>
   <g id="patch_70">
    <path clip-path="url(#p552f7e37eb)" d="M 501.426633 768.96 
L 503.950251 768.96 
L 503.950251 604.970301 
L 501.426633 604.970301 
z
" style="fill:#1f77b4;"/>
   </g>
   <g id="patch_71">
    <path clip-path="url(#p552f7e37eb)" d="M 506.473869 768.96 
L 508.997487 768.96 
L 508.997487 599.663651 
L 506.473869 599.663651 
z
" style="fill:#1f77b4;"/>
   </g>
   <g id="patch_72">
    <path clip-path="url(#p552f7e37eb)" d="M 511.521106 768.96 
L 514.044724 768.96 
L 514.044724 594.394879 
L 511.521106 594.394879 
z
" style="fill:#1f77b4;"/>
   </g>
   <g id="patch_73">
    <path clip-path="url(#p552f7e37eb)" d="M 516.568342 768.96 
L 519.09196 768.96 
L 519.09196 589.712936 
L 516.568342 589.712936 
z
" style="fill:#1f77b4;"/>
   </g>
   <g id="patch_74">
    <path clip-path="url(#p552f7e37eb)" d="M 521.615578 768.96 
L 524.139196 768.96 
L 524.139196 584.418421 
L 521.615578 584.418421 
z
" style="fill:#1f77b4;"/>
   </g>
   <g id="patch_75">
    <path clip-path="url(#p552f7e37eb)" d="M 526.662814 768.96 
L 529.186432 768.96 
L 529.186432 579.653413 
L 526.662814 579.653413 
z
" style="fill:#1f77b4;"/>
   </g>
   <g id="patch_76">
    <path clip-path="url(#p552f7e37eb)" d="M 531.71005 768.96 
L 534.233668 768.96 
L 534.233668 574.289671 
L 531.71005 574.289671 
z
" style="fill:#1f77b4;"/>
   </g>
   <g id="patch_77">
    <path clip-path="url(#p552f7e37eb)" d="M 536.757286 768.96 
L 539.280905 768.96 
L 539.280905 568.787794 
L 536.757286 568.787794 
z
" style="fill:#1f77b4;"/>
   </g>
   <g id="patch_78">
    <path clip-path="url(#p552f7e37eb)" d="M 541.804523 768.96 
L 544.328141 768.96 
L 544.328141 565.511418 
L 541.804523 565.511418 
z
" style="fill:#1f77b4;"/>
   </g>
   <g id="patch_79">
    <path clip-path="url(#p552f7e37eb)" d="M 546.851759 768.96 
L 549.375377 768.96 
L 549.375377 563.711904 
L 546.851759 563.711904 
z
" style="fill:#1f77b4;"/>
   </g>
   <g id="patch_80">
    <path clip-path="url(#p552f7e37eb)" d="M 551.898995 768.96 
L 554.422613 768.96 
L 554.422613 560.7642 
L 551.898995 560.7642 
z
" style="fill:#1f77b4;"/>
   </g>
   <g id="patch_81">
    <path clip-path="url(#p552f7e37eb)" d="M 556.946231 768.96 
L 559.469849 768.96 
L 559.469849 557.254305 
L 556.946231 557.254305 
z
" style="fill:#1f77b4;"/>
   </g>
   <g id="patch_82">
    <path clip-path="url(#p552f7e37eb)" d="M 561.993467 768.96 
L 564.517085 768.96 
L 564.517085 553.604299 
L 561.993467 553.604299 
z
" style="fill:#1f77b4;"/>
   </g>
   <g id="patch_83">
    <path clip-path="url(#p552f7e37eb)" d="M 567.040704 768.96 
L 569.564322 768.96 
L 569.564322 548.816951 
L 567.040704 548.816951 
z
" style="fill:#1f77b4;"/>
   </g>
   <g id="patch_84">
    <path clip-path="url(#p552f7e37eb)" d="M 572.08794 768.96 
L 574.611558 768.96 
L 574.611558 542.862886 
L 572.08794 542.862886 
z
" style="fill:#1f77b4;"/>
   </g>
   <g id="patch_85">
    <path clip-path="url(#p552f7e37eb)" d="M 577.135176 768.96 
L 579.658794 768.96 
L 579.658794 537.702553 
L 577.135176 537.702553 
z
" style="fill:#1f77b4;"/>
   </g>
   <g id="patch_86">
    <path clip-path="url(#p552f7e37eb)" d="M 582.182412 768.96 
L 584.70603 768.96 
L 584.70603 535.646124 
L 582.182412 535.646124 
z
" style="fill:#1f77b4;"/>
   </g>
   <g id="patch_87">
    <path clip-path="url(#p552f7e37eb)" d="M 587.229648 768.96 
L 589.753266 768.96 
L 589.753266 532.567823 
L 587.229648 532.567823 
z
" style="fill:#1f77b4;"/>
   </g>
   <g id="patch_88">
    <path clip-path="url(#p552f7e37eb)" d="M 592.276884 768.96 
L 594.800503 768.96 
L 594.800503 526.96114 
L 592.276884 526.96114 
z
" style="fill:#1f77b4;"/>
   </g>
   <g id="patch_89">
    <path clip-path="url(#p552f7e37eb)" d="M 597.324121 768.96 
L 599.847739 768.96 
L 599.847739 522.232493 
L 597.324121 522.232493 
z
" style="fill:#1f77b4;"/>
   </g>
   <g id="patch_90">
    <path clip-path="url(#p552f7e37eb)" d="M 602.371357 768.96 
L 604.894975 768.96 
L 604.894975 515.680107 
L 602.371357 515.680107 
z
" style="fill:#1f77b4;"/>
   </g>
   <g id="patch_91">
    <path clip-path="url(#p552f7e37eb)" d="M 607.418593 768.96 
L 609.942211 768.96 
L 609.942211 509.037302 
L 607.418593 509.037302 
z
" style="fill:#1f77b4;"/>
   </g>
   <g id="patch_92">
    <path clip-path="url(#p552f7e37eb)" d="M 612.465829 768.96 
L 614.989447 768.96 
L 614.989447 503.985177 
L 612.465829 503.985177 
z
" style="fill:#1f77b4;"/>
   </g>
   <g id="patch_93">
    <path clip-path="url(#p552f7e37eb)" d="M 617.513065 768.96 
L 620.036683 768.96 
L 620.036683 502.561453 
L 617.513065 502.561453 
z
" style="fill:#1f77b4;"/>
   </g>
   <g id="patch_94">
    <path clip-path="url(#p552f7e37eb)" d="M 622.560302 768.96 
L 625.08392 768.96 
L 625.08392 497.794147 
L 622.560302 497.794147 
z
" style="fill:#1f77b4;"/>
   </g>
   <g id="patch_95">
    <path clip-path="url(#p552f7e37eb)" d="M 627.607538 768.96 
L 630.131156 768.96 
L 630.131156 490.340373 
L 627.607538 490.340373 
z
" style="fill:#1f77b4;"/>
   </g>
   <g id="patch_96">
    <path clip-path="url(#p552f7e37eb)" d="M 632.654774 768.96 
L 635.178392 768.96 
L 635.178392 482.062804 
L 632.654774 482.062804 
z
" style="fill:#1f77b4;"/>
   </g>
   <g id="patch_97">
    <path clip-path="url(#p552f7e37eb)" d="M 637.70201 768.96 
L 640.225628 768.96 
L 640.225628 472.274861 
L 637.70201 472.274861 
z
" style="fill:#1f77b4;"/>
   </g>
   <g id="patch_98">
    <path clip-path="url(#p552f7e37eb)" d="M 642.749246 768.96 
L 645.272864 768.96 
L 645.272864 460.773228 
L 642.749246 460.773228 
z
" style="fill:#1f77b4;"/>
   </g>
   <g id="patch_99">
    <path clip-path="url(#p552f7e37eb)" d="M 647.796482 768.96 
L 650.320101 768.96 
L 650.320101 453.167207 
L 647.796482 453.167207 
z
" style="fill:#1f77b4;"/>
   </g>
   <g id="patch_100">
    <path clip-path="url(#p552f7e37eb)" d="M 652.843719 768.96 
L 655.367337 768.96 
L 655.367337 449.391019 
L 652.843719 449.391019 
z
" style="fill:#1f77b4;"/>
   </g>
   <g id="patch_101">
    <path clip-path="url(#p552f7e37eb)" d="M 657.890955 768.96 
L 660.414573 768.96 
L 660.414573 443.031608 
L 657.890955 443.031608 
z
" style="fill:#1f77b4;"/>
   </g>
   <g id="patch_102">
    <path clip-path="url(#p552f7e37eb)" d="M 662.938191 768.96 
L 665.461809 768.96 
L 665.461809 435.173176 
L 662.938191 435.173176 
z
" style="fill:#1f77b4;"/>
   </g>
   <g id="patch_103">
    <path clip-path="url(#p552f7e37eb)" d="M 667.985427 768.96 
L 670.509045 768.96 
L 670.509045 428.412877 
L 667.985427 428.412877 
z
" style="fill:#1f77b4;"/>
   </g>
   <g id="patch_104">
    <path clip-path="url(#p552f7e37eb)" d="M 673.032663 768.96 
L 675.556281 768.96 
L 675.556281 419.292621 
L 673.032663 419.292621 
z
" style="fill:#1f77b4;"/>
   </g>
   <g id="patch_105">
    <path clip-path="url(#p552f7e37eb)" d="M 678.079899 768.96 
L 680.603518 768.96 
L 680.603518 410.412456 
L 678.079899 410.412456 
z
" style="fill:#1f77b4;"/>
   </g>
   <g id="patch_106">
    <path clip-path="url(#p552f7e37eb)" d="M 683.127136 768.96 
L 685.650754 768.96 
L 685.650754 404.240043 
L 683.127136 404.240043 
z
" style="fill:#1f77b4;"/>
   </g>
   <g id="patch_107">
    <path clip-path="url(#p552f7e37eb)" d="M 688.174372 768.96 
L 690.69799 768.96 
L 690.69799 400.684272 
L 688.174372 400.684272 
z
" style="fill:#1f77b4;"/>
   </g>
   <g id="patch_108">
    <path clip-path="url(#p552f7e37eb)" d="M 693.221608 768.96 
L 695.745226 768.96 
L 695.745226 395.564299 
L 693.221608 395.564299 
z
" style="fill:#1f77b4;"/>
   </g>
   <g id="patch_109">
    <path clip-path="url(#p552f7e37eb)" d="M 698.268844 768.96 
L 700.792462 768.96 
L 700.792462 387.386251 
L 698.268844 387.386251 
z
" style="fill:#1f77b4;"/>
   </g>
   <g id="patch_110">
    <path clip-path="url(#p552f7e37eb)" d="M 703.31608 768.96 
L 705.839698 768.96 
L 705.839698 380.094055 
L 703.31608 380.094055 
z
" style="fill:#1f77b4;"/>
   </g>
   <g id="patch_111">
    <path clip-path="url(#p552f7e37eb)" d="M 708.363317 768.96 
L 710.886935 768.96 
L 710.886935 372.367919 
L 708.363317 372.367919 
z
" style="fill:#1f77b4;"/>
   </g>
   <g id="patch_112">
    <path clip-path="url(#p552f7e37eb)" d="M 713.410553 768.96 
L 715.934171 768.96 
L 715.934171 365.244196 
L 713.410553 365.244196 
z
" style="fill:#1f77b4;"/>
   </g>
   <g id="patch_113">
    <path clip-path="url(#p552f7e37eb)" d="M 718.457789 768.96 
L 720.981407 768.96 
L 720.981407 360.476522 
L 718.457789 360.476522 
z
" style="fill:#1f77b4;"/>
   </g>
   <g id="patch_114">
    <path clip-path="url(#p552f7e37eb)" d="M 723.505025 768.96 
L 726.028643 768.96 
L 726.028643 358.424828 
L 723.505025 358.424828 
z
" style="fill:#1f77b4;"/>
   </g>
   <g id="patch_115">
    <path clip-path="url(#p552f7e37eb)" d="M 728.552261 768.96 
L 731.075879 768.96 
L 731.075879 354.035563 
L 728.552261 354.035563 
z
" style="fill:#1f77b4;"/>
   </g>
   <g id="patch_116">
    <path clip-path="url(#p552f7e37eb)" d="M 733.599497 768.96 
L 736.123116 768.96 
L 736.123116 347.786935 
L 733.599497 347.786935 
z
" style="fill:#1f77b4;"/>
   </g>
   <g id="patch_117">
    <path clip-path="url(#p552f7e37eb)" d="M 738.646734 768.96 
L 741.170352 768.96 
L 741.170352 341.271415 
L 738.646734 341.271415 
z
" style="fill:#1f77b4;"/>
   </g>
   <g id="patch_118">
    <path clip-path="url(#p552f7e37eb)" d="M 743.69397 768.96 
L 746.217588 768.96 
L 746.217588 334.930805 
L 743.69397 334.930805 
z
" style="fill:#1f77b4;"/>
   </g>
   <g id="patch_119">
    <path clip-path="url(#p552f7e37eb)" d="M 748.741206 768.96 
L 751.264824 768.96 
L 751.264824 329.595425 
L 748.741206 329.595425 
z
" style="fill:#1f77b4;"/>
   </g>
   <g id="patch_120">
    <path clip-path="url(#p552f7e37eb)" d="M 753.788442 768.96 
L 756.31206 768.96 
L 756.31206 327.20421 
L 753.788442 327.20421 
z
" style="fill:#1f77b4;"/>
   </g>
   <g id="patch_121">
    <path clip-path="url(#p552f7e37eb)" d="M 758.835678 768.96 
L 761.359296 768.96 
L 761.359296 326.380829 
L 758.835678 326.380829 
z
" style="fill:#1f77b4;"/>
   </g>
   <g id="patch_122">
    <path clip-path="url(#p552f7e37eb)" d="M 763.882915 768.96 
L 766.406533 768.96 
L 766.406533 323.798479 
L 763.882915 323.798479 
z
" style="fill:#1f77b4;"/>
   </g>
   <g id="patch_123">
    <path clip-path="url(#p552f7e37eb)" d="M 768.930151 768.96 
L 771.453769 768.96 
L 771.453769 316.996762 
L 768.930151 316.996762 
z
" style="fill:#1f77b4;"/>
   </g>
   <g id="patch_124">
    <path clip-path="url(#p552f7e37eb)" d="M 773.977387 768.96 
L 776.501005 768.96 
L 776.501005 310.411555 
L 773.977387 310.411555 
z
" style="fill:#1f77b4;"/>
   </g>
   <g id="patch_125">
    <path clip-path="url(#p552f7e37eb)" d="M 779.024623 768.96 
L 781.548241 768.96 
L 781.548241 305.429762 
L 779.024623 305.429762 
z
" style="fill:#1f77b4;"/>
   </g>
   <g id="patch_126">
    <path clip-path="url(#p552f7e37eb)" d="M 784.071859 768.96 
L 786.595477 768.96 
L 786.595477 298.150437 
L 784.071859 298.150437 
z
" style="fill:#1f77b4;"/>
   </g>
   <g id="patch_127">
    <path clip-path="url(#p552f7e37eb)" d="M 789.119095 768.96 
L 791.642714 768.96 
L 791.642714 293.25658 
L 789.119095 293.25658 
z
" style="fill:#1f77b4;"/>
   </g>
   <g id="patch_128">
    <path clip-path="url(#p552f7e37eb)" d="M 794.166332 768.96 
L 796.68995 768.96 
L 796.68995 288.924178 
L 794.166332 288.924178 
z
" style="fill:#1f77b4;"/>
   </g>
   <g id="patch_129">
    <path clip-path="url(#p552f7e37eb)" d="M 799.213568 768.96 
L 801.737186 768.96 
L 801.737186 285.196257 
L 799.213568 285.196257 
z
" style="fill:#1f77b4;"/>
   </g>
   <g id="patch_130">
    <path clip-path="url(#p552f7e37eb)" d="M 804.260804 768.96 
L 806.784422 768.96 
L 806.784422 280.113288 
L 804.260804 280.113288 
z
" style="fill:#1f77b4;"/>
   </g>
   <g id="patch_131">
    <path clip-path="url(#p552f7e37eb)" d="M 809.30804 768.96 
L 811.831658 768.96 
L 811.831658 275.558308 
L 809.30804 275.558308 
z
" style="fill:#1f77b4;"/>
   </g>
   <g id="patch_132">
    <path clip-path="url(#p552f7e37eb)" d="M 814.355276 768.96 
L 816.878894 768.96 
L 816.878894 270.842854 
L 814.355276 270.842854 
z
" style="fill:#1f77b4;"/>
   </g>
   <g id="patch_133">
    <path clip-path="url(#p552f7e37eb)" d="M 819.402513 768.96 
L 821.926131 768.96 
L 821.926131 264.145439 
L 819.402513 264.145439 
z
" style="fill:#1f77b4;"/>
   </g>
   <g id="patch_134">
    <path clip-path="url(#p552f7e37eb)" d="M 824.449749 768.96 
L 826.973367 768.96 
L 826.973367 260.381433 
L 824.449749 260.381433 
z
" style="fill:#1f77b4;"/>
   </g>
   <g id="patch_135">
    <path clip-path="url(#p552f7e37eb)" d="M 829.496985 768.96 
L 832.020603 768.96 
L 832.020603 258.877402 
L 829.496985 258.877402 
z
" style="fill:#1f77b4;"/>
   </g>
   <g id="patch_136">
    <path clip-path="url(#p552f7e37eb)" d="M 834.544221 768.96 
L 837.067839 768.96 
L 837.067839 256.221503 
L 834.544221 256.221503 
z
" style="fill:#1f77b4;"/>
   </g>
   <g id="patch_137">
    <path clip-path="url(#p552f7e37eb)" d="M 839.591457 768.96 
L 842.115075 768.96 
L 842.115075 251.342494 
L 839.591457 251.342494 
z
" style="fill:#1f77b4;"/>
   </g>
   <g id="patch_138">
    <path clip-path="url(#p552f7e37eb)" d="M 844.638693 768.96 
L 847.162312 768.96 
L 847.162312 246.99598 
L 844.638693 246.99598 
z
" style="fill:#1f77b4;"/>
   </g>
   <g id="patch_139">
    <path clip-path="url(#p552f7e37eb)" d="M 849.68593 768.96 
L 852.209548 768.96 
L 852.209548 241.402903 
L 849.68593 241.402903 
z
" style="fill:#1f77b4;"/>
   </g>
   <g id="patch_140">
    <path clip-path="url(#p552f7e37eb)" d="M 854.733166 768.96 
L 857.256784 768.96 
L 857.256784 237.47525 
L 854.733166 237.47525 
z
" style="fill:#1f77b4;"/>
   </g>
   <g id="patch_141">
    <path clip-path="url(#p552f7e37eb)" d="M 859.780402 768.96 
L 862.30402 768.96 
L 862.30402 234.509893 
L 859.780402 234.509893 
z
" style="fill:#1f77b4;"/>
   </g>
   <g id="patch_142">
    <path clip-path="url(#p552f7e37eb)" d="M 864.827638 768.96 
L 867.351256 768.96 
L 867.351256 233.059278 
L 864.827638 233.059278 
z
" style="fill:#1f77b4;"/>
   </g>
   <g id="patch_143">
    <path clip-path="url(#p552f7e37eb)" d="M 869.874874 768.96 
L 872.398492 768.96 
L 872.398492 230.624991 
L 869.874874 230.624991 
z
" style="fill:#1f77b4;"/>
   </g>
   <g id="patch_144">
    <path clip-path="url(#p552f7e37eb)" d="M 874.922111 768.96 
L 877.445729 768.96 
L 877.445729 227.681423 
L 874.922111 227.681423 
z
" style="fill:#1f77b4;"/>
   </g>
   <g id="patch_145">
    <path clip-path="url(#p552f7e37eb)" d="M 879.969347 768.96 
L 882.492965 768.96 
L 882.492965 224.676902 
L 879.969347 224.676902 
z
" style="fill:#1f77b4;"/>
   </g>
   <g id="patch_146">
    <path clip-path="url(#p552f7e37eb)" d="M 885.016583 768.96 
L 887.540201 768.96 
L 887.540201 221.602233 
L 885.016583 221.602233 
z
" style="fill:#1f77b4;"/>
   </g>
   <g id="patch_147">
    <path clip-path="url(#p552f7e37eb)" d="M 890.063819 768.96 
L 892.587437 768.96 
L 892.587437 218.81983 
L 890.063819 218.81983 
z
" style="fill:#1f77b4;"/>
   </g>
   <g id="patch_148">
    <path clip-path="url(#p552f7e37eb)" d="M 895.111055 768.96 
L 897.634673 768.96 
L 897.634673 216.936563 
L 895.111055 216.936563 
z
" style="fill:#1f77b4;"/>
   </g>
   <g id="patch_149">
    <path clip-path="url(#p552f7e37eb)" d="M 900.158291 768.96 
L 902.68191 768.96 
L 902.68191 216.007961 
L 900.158291 216.007961 
z
" style="fill:#1f77b4;"/>
   </g>
   <g id="patch_150">
    <path clip-path="url(#p552f7e37eb)" d="M 905.205528 768.96 
L 907.729146 768.96 
L 907.729146 215.212759 
L 905.205528 215.212759 
z
" style="fill:#1f77b4;"/>
   </g>
   <g id="patch_151">
    <path clip-path="url(#p552f7e37eb)" d="M 910.252764 768.96 
L 912.776382 768.96 
L 912.776382 213.459995 
L 910.252764 213.459995 
z
" style="fill:#1f77b4;"/>
   </g>
   <g id="patch_152">
    <path clip-path="url(#p552f7e37eb)" d="M 915.3 768.96 
L 917.823618 768.96 
L 917.823618 211.632625 
L 915.3 211.632625 
z
" style="fill:#1f77b4;"/>
   </g>
   <g id="patch_153">
    <path clip-path="url(#p552f7e37eb)" d="M 920.347236 768.96 
L 922.870854 768.96 
L 922.870854 209.096564 
L 920.347236 209.096564 
z
" style="fill:#1f77b4;"/>
   </g>
   <g id="patch_154">
    <path clip-path="url(#p552f7e37eb)" d="M 925.394472 768.96 
L 927.91809 768.96 
L 927.91809 206.433126 
L 925.394472 206.433126 
z
" style="fill:#1f77b4;"/>
   </g>
   <g id="patch_155">
    <path clip-path="url(#p552f7e37eb)" d="M 930.441709 768.96 
L 932.965327 768.96 
L 932.965327 204.138261 
L 930.441709 204.138261 
z
" style="fill:#1f77b4;"/>
   </g>
   <g id="patch_156">
    <path clip-path="url(#p552f7e37eb)" d="M 935.488945 768.96 
L 938.012563 768.96 
L 938.012563 202.64324 
L 935.488945 202.64324 
z
" style="fill:#1f77b4;"/>
   </g>
   <g id="patch_157">
    <path clip-path="url(#p552f7e37eb)" d="M 940.536181 768.96 
L 943.059799 768.96 
L 943.059799 200.507746 
L 940.536181 200.507746 
z
" style="fill:#1f77b4;"/>
   </g>
   <g id="patch_158">
    <path clip-path="url(#p552f7e37eb)" d="M 945.583417 768.96 
L 948.107035 768.96 
L 948.107035 197.994899 
L 945.583417 197.994899 
z
" style="fill:#1f77b4;"/>
   </g>
   <g id="patch_159">
    <path clip-path="url(#p552f7e37eb)" d="M 950.630653 768.96 
L 953.154271 768.96 
L 953.154271 194.93016 
L 950.630653 194.93016 
z
" style="fill:#1f77b4;"/>
   </g>
   <g id="patch_160">
    <path clip-path="url(#p552f7e37eb)" d="M 955.677889 768.96 
L 958.201508 768.96 
L 958.201508 192.720611 
L 955.677889 192.720611 
z
" style="fill:#1f77b4;"/>
   </g>
   <g id="patch_161">
    <path clip-path="url(#p552f7e37eb)" d="M 960.725126 768.96 
L 963.248744 768.96 
L 963.248744 190.653149 
L 960.725126 190.653149 
z
" style="fill:#1f77b4;"/>
   </g>
   <g id="patch_162">
    <path clip-path="url(#p552f7e37eb)" d="M 965.772362 768.96 
L 968.29598 768.96 
L 968.29598 189.424927 
L 965.772362 189.424927 
z
" style="fill:#1f77b4;"/>
   </g>
   <g id="patch_163">
    <path clip-path="url(#p552f7e37eb)" d="M 970.819598 768.96 
L 973.343216 768.96 
L 973.343216 188.236008 
L 970.819598 188.236008 
z
" style="fill:#1f77b4;"/>
   </g>
   <g id="patch_164">
    <path clip-path="url(#p552f7e37eb)" d="M 975.866834 768.96 
L 978.390452 768.96 
L 978.390452 184.594645 
L 975.866834 184.594645 
z
" style="fill:#1f77b4;"/>
   </g>
   <g id="patch_165">
    <path clip-path="url(#p552f7e37eb)" d="M 980.91407 768.96 
L 983.437688 768.96 
L 983.437688 181.77965 
L 980.91407 181.77965 
z
" style="fill:#1f77b4;"/>
   </g>
   <g id="patch_166">
    <path clip-path="url(#p552f7e37eb)" d="M 985.961307 768.96 
L 988.484925 768.96 
L 988.484925 179.787484 
L 985.961307 179.787484 
z
" style="fill:#1f77b4;"/>
   </g>
   <g id="patch_167">
    <path clip-path="url(#p552f7e37eb)" d="M 991.008543 768.96 
L 993.532161 768.96 
L 993.532161 177.272937 
L 991.008543 177.272937 
z
" style="fill:#1f77b4;"/>
   </g>
   <g id="patch_168">
    <path clip-path="url(#p552f7e37eb)" d="M 996.055779 768.96 
L 998.579397 768.96 
L 998.579397 176.00863 
L 996.055779 176.00863 
z
" style="fill:#1f77b4;"/>
   </g>
   <g id="patch_169">
    <path clip-path="url(#p552f7e37eb)" d="M 1001.103015 768.96 
L 1003.626633 768.96 
L 1003.626633 174.078567 
L 1001.103015 174.078567 
z
" style="fill:#1f77b4;"/>
   </g>
   <g id="patch_170">
    <path clip-path="url(#p552f7e37eb)" d="M 1006.150251 768.96 
L 1008.673869 768.96 
L 1008.673869 173.257347 
L 1006.150251 173.257347 
z
" style="fill:#1f77b4;"/>
   </g>
   <g id="patch_171">
    <path clip-path="url(#p552f7e37eb)" d="M 1011.197487 768.96 
L 1013.721106 768.96 
L 1013.721106 172.17535 
L 1011.197487 172.17535 
z
" style="fill:#1f77b4;"/>
   </g>
   <g id="patch_172">
    <path clip-path="url(#p552f7e37eb)" d="M 1016.244724 768.96 
L 1018.768342 768.96 
L 1018.768342 170.897115 
L 1016.244724 170.897115 
z
" style="fill:#1f77b4;"/>
   </g>
   <g id="patch_173">
    <path clip-path="url(#p552f7e37eb)" d="M 1021.29196 768.96 
L 1023.815578 768.96 
L 1023.815578 169.342979 
L 1021.29196 169.342979 
z
" style="fill:#1f77b4;"/>
   </g>
   <g id="patch_174">
    <path clip-path="url(#p552f7e37eb)" d="M 1026.339196 768.96 
L 1028.862814 768.96 
L 1028.862814 167.47433 
L 1026.339196 167.47433 
z
" style="fill:#1f77b4;"/>
   </g>
   <g id="patch_175">
    <path clip-path="url(#p552f7e37eb)" d="M 1031.386432 768.96 
L 1033.91005 768.96 
L 1033.91005 163.110164 
L 1031.386432 163.110164 
z
" style="fill:#1f77b4;"/>
   </g>
   <g id="patch_176">
    <path clip-path="url(#p552f7e37eb)" d="M 1036.433668 768.96 
L 1038.957286 768.96 
L 1038.957286 157.890072 
L 1036.433668 157.890072 
z
" style="fill:#1f77b4;"/>
   </g>
   <g id="patch_177">
    <path clip-path="url(#p552f7e37eb)" d="M 1041.480905 768.96 
L 1044.004523 768.96 
L 1044.004523 157.474014 
L 1041.480905 157.474014 
z
" style="fill:#1f77b4;"/>
   </g>
   <g id="patch_178">
    <path clip-path="url(#p552f7e37eb)" d="M 1046.528141 768.96 
L 1049.051759 768.96 
L 1049.051759 156.397809 
L 1046.528141 156.397809 
z
" style="fill:#1f77b4;"/>
   </g>
   <g id="patch_179">
    <path clip-path="url(#p552f7e37eb)" d="M 1051.575377 768.96 
L 1054.098995 768.96 
L 1054.098995 155.042256 
L 1051.575377 155.042256 
z
" style="fill:#1f77b4;"/>
   </g>
   <g id="patch_180">
    <path clip-path="url(#p552f7e37eb)" d="M 1056.622613 768.96 
L 1059.146231 768.96 
L 1059.146231 153.716581 
L 1056.622613 153.716581 
z
" style="fill:#1f77b4;"/>
   </g>
   <g id="patch_181">
    <path clip-path="url(#p552f7e37eb)" d="M 1061.669849 768.96 
L 1064.193467 768.96 
L 1064.193467 152.495485 
L 1061.669849 152.495485 
z
" style="fill:#1f77b4;"/>
   </g>
   <g id="patch_182">
    <path clip-path="url(#p552f7e37eb)" d="M 1066.717085 768.96 
L 1069.240704 768.96 
L 1069.240704 151.211733 
L 1066.717085 151.211733 
z
" style="fill:#1f77b4;"/>
   </g>
   <g id="patch_183">
    <path clip-path="url(#p552f7e37eb)" d="M 1071.764322 768.96 
L 1074.28794 768.96 
L 1074.28794 150.356819 
L 1071.764322 150.356819 
z
" style="fill:#1f77b4;"/>
   </g>
   <g id="patch_184">
    <path clip-path="url(#p552f7e37eb)" d="M 1076.811558 768.96 
L 1079.335176 768.96 
L 1079.335176 149.941313 
L 1076.811558 149.941313 
z
" style="fill:#1f77b4;"/>
   </g>
   <g id="patch_185">
    <path clip-path="url(#p552f7e37eb)" d="M 1081.858794 768.96 
L 1084.382412 768.96 
L 1084.382412 149.869419 
L 1081.858794 149.869419 
z
" style="fill:#1f77b4;"/>
   </g>
   <g id="patch_186">
    <path clip-path="url(#p552f7e37eb)" d="M 1086.90603 768.96 
L 1089.429648 768.96 
L 1089.429648 149.18123 
L 1086.90603 149.18123 
z
" style="fill:#1f77b4;"/>
   </g>
   <g id="patch_187">
    <path clip-path="url(#p552f7e37eb)" d="M 1091.953266 768.96 
L 1094.476884 768.96 
L 1094.476884 147.951905 
L 1091.953266 147.951905 
z
" style="fill:#1f77b4;"/>
   </g>
   <g id="patch_188">
    <path clip-path="url(#p552f7e37eb)" d="M 1097.000503 768.96 
L 1099.524121 768.96 
L 1099.524121 146.717983 
L 1097.000503 146.717983 
z
" style="fill:#1f77b4;"/>
   </g>
   <g id="patch_189">
    <path clip-path="url(#p552f7e37eb)" d="M 1102.047739 768.96 
L 1104.571357 768.96 
L 1104.571357 145.620127 
L 1102.047739 145.620127 
z
" style="fill:#1f77b4;"/>
   </g>
   <g id="patch_190">
    <path clip-path="url(#p552f7e37eb)" d="M 1107.094975 768.96 
L 1109.618593 768.96 
L 1109.618593 144.728806 
L 1107.094975 144.728806 
z
" style="fill:#1f77b4;"/>
   </g>
   <g id="patch_191">
    <path clip-path="url(#p552f7e37eb)" d="M 1112.142211 768.96 
L 1114.665829 768.96 
L 1114.665829 144.132277 
L 1112.142211 144.132277 
z
" style="fill:#1f77b4;"/>
   </g>
   <g id="patch_192">
    <path clip-path="url(#p552f7e37eb)" d="M 1117.189447 768.96 
L 1119.713065 768.96 
L 1119.713065 142.989418 
L 1117.189447 142.989418 
z
" style="fill:#1f77b4;"/>
   </g>
   <g id="patch_193">
    <path clip-path="url(#p552f7e37eb)" d="M 1122.236683 768.96 
L 1124.760302 768.96 
L 1124.760302 142.024824 
L 1122.236683 142.024824 
z
" style="fill:#1f77b4;"/>
   </g>
   <g id="patch_194">
    <path clip-path="url(#p552f7e37eb)" d="M 1127.28392 768.96 
L 1129.807538 768.96 
L 1129.807538 141.10799 
L 1127.28392 141.10799 
z
" style="fill:#1f77b4;"/>
   </g>
   <g id="patch_195">
    <path clip-path="url(#p552f7e37eb)" d="M 1132.331156 768.96 
L 1134.854774 768.96 
L 1134.854774 140.185594 
L 1132.331156 140.185594 
z
" style="fill:#1f77b4;"/>
   </g>
   <g id="patch_196">
    <path clip-path="url(#p552f7e37eb)" d="M 1137.378392 768.96 
L 1139.90201 768.96 
L 1139.90201 139.273724 
L 1137.378392 139.273724 
z
" style="fill:#1f77b4;"/>
   </g>
   <g id="patch_197">
    <path clip-path="url(#p552f7e37eb)" d="M 1142.425628 768.96 
L 1144.949246 768.96 
L 1144.949246 138.535201 
L 1142.425628 138.535201 
z
" style="fill:#1f77b4;"/>
   </g>
   <g id="patch_198">
    <path clip-path="url(#p552f7e37eb)" d="M 1147.472864 768.96 
L 1149.996482 768.96 
L 1149.996482 138.116937 
L 1147.472864 138.116937 
z
" style="fill:#1f77b4;"/>
   </g>
   <g id="patch_199">
    <path clip-path="url(#p552f7e37eb)" d="M 1152.520101 768.96 
L 1155.043719 768.96 
L 1155.043719 137.355751 
L 1152.520101 137.355751 
z
" style="fill:#1f77b4;"/>
   </g>
   <g id="patch_200">
    <path clip-path="url(#p552f7e37eb)" d="M 1157.567337 768.96 
L 1160.090955 768.96 
L 1160.090955 136.32225 
L 1157.567337 136.32225 
z
" style="fill:#1f77b4;"/>
   </g>
   <g id="patch_201">
    <path clip-path="url(#p552f7e37eb)" d="M 1162.614573 768.96 
L 1165.138191 768.96 
L 1165.138191 135.36 
L 1162.614573 135.36 
z
" style="fill:#1f77b4;"/>
   </g>
   <g id="matplotlib.axis_1">
    <g id="xtick_1">
     <g id="line2d_1">
      <defs>
       <path d="M 0 0 
L 0 3.5 
" id="mbb233c72d5" style="stroke:#000000;stroke-width:0.8;"/>
      </defs>
      <g>
       <use style="stroke:#000000;stroke-width:0.8;" x="164.523618" xlink:href="#mbb233c72d5" y="768.96"/>
      </g>
     </g>
     <g id="text_1">
      <!-- January -->
      <g transform="translate(145.568149 783.558437)scale(0.1 -0.1)">
       <defs>
        <path d="M 628 4666 
L 1259 4666 
L 1259 325 
Q 1259 -519 939 -900 
Q 619 -1281 -91 -1281 
L -331 -1281 
L -331 -750 
L -134 -750 
Q 284 -750 456 -515 
Q 628 -281 628 325 
L 628 4666 
z
" id="DejaVuSans-4a" transform="scale(0.015625)"/>
        <path d="M 2194 1759 
Q 1497 1759 1228 1600 
Q 959 1441 959 1056 
Q 959 750 1161 570 
Q 1363 391 1709 391 
Q 2188 391 2477 730 
Q 2766 1069 2766 1631 
L 2766 1759 
L 2194 1759 
z
M 3341 1997 
L 3341 0 
L 2766 0 
L 2766 531 
Q 2569 213 2275 61 
Q 1981 -91 1556 -91 
Q 1019 -91 701 211 
Q 384 513 384 1019 
Q 384 1609 779 1909 
Q 1175 2209 1959 2209 
L 2766 2209 
L 2766 2266 
Q 2766 2663 2505 2880 
Q 2244 3097 1772 3097 
Q 1472 3097 1187 3025 
Q 903 2953 641 2809 
L 641 3341 
Q 956 3463 1253 3523 
Q 1550 3584 1831 3584 
Q 2591 3584 2966 3190 
Q 3341 2797 3341 1997 
z
" id="DejaVuSans-61" transform="scale(0.015625)"/>
        <path d="M 3513 2113 
L 3513 0 
L 2938 0 
L 2938 2094 
Q 2938 2591 2744 2837 
Q 2550 3084 2163 3084 
Q 1697 3084 1428 2787 
Q 1159 2491 1159 1978 
L 1159 0 
L 581 0 
L 581 3500 
L 1159 3500 
L 1159 2956 
Q 1366 3272 1645 3428 
Q 1925 3584 2291 3584 
Q 2894 3584 3203 3211 
Q 3513 2838 3513 2113 
z
" id="DejaVuSans-6e" transform="scale(0.015625)"/>
        <path d="M 544 1381 
L 544 3500 
L 1119 3500 
L 1119 1403 
Q 1119 906 1312 657 
Q 1506 409 1894 409 
Q 2359 409 2629 706 
Q 2900 1003 2900 1516 
L 2900 3500 
L 3475 3500 
L 3475 0 
L 2900 0 
L 2900 538 
Q 2691 219 2414 64 
Q 2138 -91 1772 -91 
Q 1169 -91 856 284 
Q 544 659 544 1381 
z
M 1991 3584 
L 1991 3584 
z
" id="DejaVuSans-75" transform="scale(0.015625)"/>
        <path d="M 2631 2963 
Q 2534 3019 2420 3045 
Q 2306 3072 2169 3072 
Q 1681 3072 1420 2755 
Q 1159 2438 1159 1844 
L 1159 0 
L 581 0 
L 581 3500 
L 1159 3500 
L 1159 2956 
Q 1341 3275 1631 3429 
Q 1922 3584 2338 3584 
Q 2397 3584 2469 3576 
Q 2541 3569 2628 3553 
L 2631 2963 
z
" id="DejaVuSans-72" transform="scale(0.015625)"/>
        <path d="M 2059 -325 
Q 1816 -950 1584 -1140 
Q 1353 -1331 966 -1331 
L 506 -1331 
L 506 -850 
L 844 -850 
Q 1081 -850 1212 -737 
Q 1344 -625 1503 -206 
L 1606 56 
L 191 3500 
L 800 3500 
L 1894 763 
L 2988 3500 
L 3597 3500 
L 2059 -325 
z
" id="DejaVuSans-79" transform="scale(0.015625)"/>
       </defs>
       <use xlink:href="#DejaVuSans-4a"/>
       <use x="29.492188" xlink:href="#DejaVuSans-61"/>
       <use x="90.771484" xlink:href="#DejaVuSans-6e"/>
       <use x="154.150391" xlink:href="#DejaVuSans-75"/>
       <use x="217.529297" xlink:href="#DejaVuSans-61"/>
       <use x="278.808594" xlink:href="#DejaVuSans-72"/>
       <use x="319.921875" xlink:href="#DejaVuSans-79"/>
      </g>
     </g>
    </g>
    <g id="xtick_2">
     <g id="line2d_2">
      <g>
       <use style="stroke:#000000;stroke-width:0.8;" x="320.98794" xlink:href="#mbb233c72d5" y="768.96"/>
      </g>
     </g>
     <g id="text_2">
      <!-- February -->
      <g transform="translate(298.833252 783.558437)scale(0.1 -0.1)">
       <defs>
        <path d="M 628 4666 
L 3309 4666 
L 3309 4134 
L 1259 4134 
L 1259 2759 
L 3109 2759 
L 3109 2228 
L 1259 2228 
L 1259 0 
L 628 0 
L 628 4666 
z
" id="DejaVuSans-46" transform="scale(0.015625)"/>
        <path d="M 3597 1894 
L 3597 1613 
L 953 1613 
Q 991 1019 1311 708 
Q 1631 397 2203 397 
Q 2534 397 2845 478 
Q 3156 559 3463 722 
L 3463 178 
Q 3153 47 2828 -22 
Q 2503 -91 2169 -91 
Q 1331 -91 842 396 
Q 353 884 353 1716 
Q 353 2575 817 3079 
Q 1281 3584 2069 3584 
Q 2775 3584 3186 3129 
Q 3597 2675 3597 1894 
z
M 3022 2063 
Q 3016 2534 2758 2815 
Q 2500 3097 2075 3097 
Q 1594 3097 1305 2825 
Q 1016 2553 972 2059 
L 3022 2063 
z
" id="DejaVuSans-65" transform="scale(0.015625)"/>
        <path d="M 3116 1747 
Q 3116 2381 2855 2742 
Q 2594 3103 2138 3103 
Q 1681 3103 1420 2742 
Q 1159 2381 1159 1747 
Q 1159 1113 1420 752 
Q 1681 391 2138 391 
Q 2594 391 2855 752 
Q 3116 1113 3116 1747 
z
M 1159 2969 
Q 1341 3281 1617 3432 
Q 1894 3584 2278 3584 
Q 2916 3584 3314 3078 
Q 3713 2572 3713 1747 
Q 3713 922 3314 415 
Q 2916 -91 2278 -91 
Q 1894 -91 1617 61 
Q 1341 213 1159 525 
L 1159 0 
L 581 0 
L 581 4863 
L 1159 4863 
L 1159 2969 
z
" id="DejaVuSans-62" transform="scale(0.015625)"/>
       </defs>
       <use xlink:href="#DejaVuSans-46"/>
       <use x="52.019531" xlink:href="#DejaVuSans-65"/>
       <use x="113.542969" xlink:href="#DejaVuSans-62"/>
       <use x="177.019531" xlink:href="#DejaVuSans-72"/>
       <use x="218.132812" xlink:href="#DejaVuSans-75"/>
       <use x="281.511719" xlink:href="#DejaVuSans-61"/>
       <use x="342.791016" xlink:href="#DejaVuSans-72"/>
       <use x="383.904297" xlink:href="#DejaVuSans-79"/>
      </g>
     </g>
    </g>
    <g id="xtick_3">
     <g id="line2d_3">
      <g>
       <use style="stroke:#000000;stroke-width:0.8;" x="462.310553" xlink:href="#mbb233c72d5" y="768.96"/>
      </g>
     </g>
     <g id="text_3">
      <!-- March -->
      <g transform="translate(447.07149 783.558437)scale(0.1 -0.1)">
       <defs>
        <path d="M 628 4666 
L 1569 4666 
L 2759 1491 
L 3956 4666 
L 4897 4666 
L 4897 0 
L 4281 0 
L 4281 4097 
L 3078 897 
L 2444 897 
L 1241 4097 
L 1241 0 
L 628 0 
L 628 4666 
z
" id="DejaVuSans-4d" transform="scale(0.015625)"/>
        <path d="M 3122 3366 
L 3122 2828 
Q 2878 2963 2633 3030 
Q 2388 3097 2138 3097 
Q 1578 3097 1268 2742 
Q 959 2388 959 1747 
Q 959 1106 1268 751 
Q 1578 397 2138 397 
Q 2388 397 2633 464 
Q 2878 531 3122 666 
L 3122 134 
Q 2881 22 2623 -34 
Q 2366 -91 2075 -91 
Q 1284 -91 818 406 
Q 353 903 353 1747 
Q 353 2603 823 3093 
Q 1294 3584 2113 3584 
Q 2378 3584 2631 3529 
Q 2884 3475 3122 3366 
z
" id="DejaVuSans-63" transform="scale(0.015625)"/>
        <path d="M 3513 2113 
L 3513 0 
L 2938 0 
L 2938 2094 
Q 2938 2591 2744 2837 
Q 2550 3084 2163 3084 
Q 1697 3084 1428 2787 
Q 1159 2491 1159 1978 
L 1159 0 
L 581 0 
L 581 4863 
L 1159 4863 
L 1159 2956 
Q 1366 3272 1645 3428 
Q 1925 3584 2291 3584 
Q 2894 3584 3203 3211 
Q 3513 2838 3513 2113 
z
" id="DejaVuSans-68" transform="scale(0.015625)"/>
       </defs>
       <use xlink:href="#DejaVuSans-4d"/>
       <use x="86.279297" xlink:href="#DejaVuSans-61"/>
       <use x="147.558594" xlink:href="#DejaVuSans-72"/>
       <use x="186.421875" xlink:href="#DejaVuSans-63"/>
       <use x="241.402344" xlink:href="#DejaVuSans-68"/>
      </g>
     </g>
    </g>
    <g id="xtick_4">
     <g id="line2d_4">
      <g>
       <use style="stroke:#000000;stroke-width:0.8;" x="618.774874" xlink:href="#mbb233c72d5" y="768.96"/>
      </g>
     </g>
     <g id="text_4">
      <!-- April -->
      <g transform="translate(607.346749 783.558437)scale(0.1 -0.1)">
       <defs>
        <path d="M 2188 4044 
L 1331 1722 
L 3047 1722 
L 2188 4044 
z
M 1831 4666 
L 2547 4666 
L 4325 0 
L 3669 0 
L 3244 1197 
L 1141 1197 
L 716 0 
L 50 0 
L 1831 4666 
z
" id="DejaVuSans-41" transform="scale(0.015625)"/>
        <path d="M 1159 525 
L 1159 -1331 
L 581 -1331 
L 581 3500 
L 1159 3500 
L 1159 2969 
Q 1341 3281 1617 3432 
Q 1894 3584 2278 3584 
Q 2916 3584 3314 3078 
Q 3713 2572 3713 1747 
Q 3713 922 3314 415 
Q 2916 -91 2278 -91 
Q 1894 -91 1617 61 
Q 1341 213 1159 525 
z
M 3116 1747 
Q 3116 2381 2855 2742 
Q 2594 3103 2138 3103 
Q 1681 3103 1420 2742 
Q 1159 2381 1159 1747 
Q 1159 1113 1420 752 
Q 1681 391 2138 391 
Q 2594 391 2855 752 
Q 3116 1113 3116 1747 
z
" id="DejaVuSans-70" transform="scale(0.015625)"/>
        <path d="M 603 3500 
L 1178 3500 
L 1178 0 
L 603 0 
L 603 3500 
z
M 603 4863 
L 1178 4863 
L 1178 4134 
L 603 4134 
L 603 4863 
z
" id="DejaVuSans-69" transform="scale(0.015625)"/>
        <path d="M 603 4863 
L 1178 4863 
L 1178 0 
L 603 0 
L 603 4863 
z
" id="DejaVuSans-6c" transform="scale(0.015625)"/>
       </defs>
       <use xlink:href="#DejaVuSans-41"/>
       <use x="68.408203" xlink:href="#DejaVuSans-70"/>
       <use x="131.884766" xlink:href="#DejaVuSans-72"/>
       <use x="172.998047" xlink:href="#DejaVuSans-69"/>
       <use x="200.78125" xlink:href="#DejaVuSans-6c"/>
      </g>
     </g>
    </g>
    <g id="xtick_5">
     <g id="line2d_5">
      <g>
       <use style="stroke:#000000;stroke-width:0.8;" x="770.19196" xlink:href="#mbb233c72d5" y="768.96"/>
      </g>
     </g>
     <g id="text_5">
      <!-- May -->
      <g transform="translate(759.85446 783.558437)scale(0.1 -0.1)">
       <use xlink:href="#DejaVuSans-4d"/>
       <use x="86.279297" xlink:href="#DejaVuSans-61"/>
       <use x="147.558594" xlink:href="#DejaVuSans-79"/>
      </g>
     </g>
    </g>
    <g id="xtick_6">
     <g id="line2d_6">
      <g>
       <use style="stroke:#000000;stroke-width:0.8;" x="926.656281" xlink:href="#mbb233c72d5" y="768.96"/>
      </g>
     </g>
     <g id="text_6">
      <!-- June -->
      <g transform="translate(915.767219 783.558437)scale(0.1 -0.1)">
       <use xlink:href="#DejaVuSans-4a"/>
       <use x="29.492188" xlink:href="#DejaVuSans-75"/>
       <use x="92.871094" xlink:href="#DejaVuSans-6e"/>
       <use x="156.25" xlink:href="#DejaVuSans-65"/>
      </g>
     </g>
    </g>
    <g id="xtick_7">
     <g id="line2d_7">
      <g>
       <use style="stroke:#000000;stroke-width:0.8;" x="1078.073367" xlink:href="#mbb233c72d5" y="768.96"/>
      </g>
     </g>
     <g id="text_7">
      <!-- July -->
      <g transform="translate(1069.081179 783.558437)scale(0.1 -0.1)">
       <use xlink:href="#DejaVuSans-4a"/>
       <use x="29.492188" xlink:href="#DejaVuSans-75"/>
       <use x="92.871094" xlink:href="#DejaVuSans-6c"/>
       <use x="120.654297" xlink:href="#DejaVuSans-79"/>
      </g>
     </g>
    </g>
   </g>
   <g id="matplotlib.axis_2">
    <g id="ytick_1">
     <g id="line2d_8">
      <defs>
       <path d="M 0 0 
L -3.5 0 
" id="mce71d4e208" style="stroke:#000000;stroke-width:0.8;"/>
      </defs>
      <g>
       <use style="stroke:#000000;stroke-width:0.8;" x="162" xlink:href="#mce71d4e208" y="768.96"/>
      </g>
     </g>
     <g id="text_8">
      <!-- 0.0 -->
      <g transform="translate(139.096875 772.759219)scale(0.1 -0.1)">
       <defs>
        <path d="M 2034 4250 
Q 1547 4250 1301 3770 
Q 1056 3291 1056 2328 
Q 1056 1369 1301 889 
Q 1547 409 2034 409 
Q 2525 409 2770 889 
Q 3016 1369 3016 2328 
Q 3016 3291 2770 3770 
Q 2525 4250 2034 4250 
z
M 2034 4750 
Q 2819 4750 3233 4129 
Q 3647 3509 3647 2328 
Q 3647 1150 3233 529 
Q 2819 -91 2034 -91 
Q 1250 -91 836 529 
Q 422 1150 422 2328 
Q 422 3509 836 4129 
Q 1250 4750 2034 4750 
z
" id="DejaVuSans-30" transform="scale(0.015625)"/>
        <path d="M 684 794 
L 1344 794 
L 1344 0 
L 684 0 
L 684 794 
z
" id="DejaVuSans-2e" transform="scale(0.015625)"/>
       </defs>
       <use xlink:href="#DejaVuSans-30"/>
       <use x="63.623047" xlink:href="#DejaVuSans-2e"/>
       <use x="95.410156" xlink:href="#DejaVuSans-30"/>
      </g>
     </g>
    </g>
    <g id="ytick_2">
     <g id="line2d_9">
      <g>
       <use style="stroke:#000000;stroke-width:0.8;" x="162" xlink:href="#mce71d4e208" y="677.023789"/>
      </g>
     </g>
     <g id="text_9">
      <!-- 0.2 -->
      <g transform="translate(139.096875 680.823008)scale(0.1 -0.1)">
       <defs>
        <path d="M 1228 531 
L 3431 531 
L 3431 0 
L 469 0 
L 469 531 
Q 828 903 1448 1529 
Q 2069 2156 2228 2338 
Q 2531 2678 2651 2914 
Q 2772 3150 2772 3378 
Q 2772 3750 2511 3984 
Q 2250 4219 1831 4219 
Q 1534 4219 1204 4116 
Q 875 4013 500 3803 
L 500 4441 
Q 881 4594 1212 4672 
Q 1544 4750 1819 4750 
Q 2544 4750 2975 4387 
Q 3406 4025 3406 3419 
Q 3406 3131 3298 2873 
Q 3191 2616 2906 2266 
Q 2828 2175 2409 1742 
Q 1991 1309 1228 531 
z
" id="DejaVuSans-32" transform="scale(0.015625)"/>
       </defs>
       <use xlink:href="#DejaVuSans-30"/>
       <use x="63.623047" xlink:href="#DejaVuSans-2e"/>
       <use x="95.410156" xlink:href="#DejaVuSans-32"/>
      </g>
     </g>
    </g>
    <g id="ytick_3">
     <g id="line2d_10">
      <g>
       <use style="stroke:#000000;stroke-width:0.8;" x="162" xlink:href="#mce71d4e208" y="585.087579"/>
      </g>
     </g>
     <g id="text_10">
      <!-- 0.4 -->
      <g transform="translate(139.096875 588.886798)scale(0.1 -0.1)">
       <defs>
        <path d="M 2419 4116 
L 825 1625 
L 2419 1625 
L 2419 4116 
z
M 2253 4666 
L 3047 4666 
L 3047 1625 
L 3713 1625 
L 3713 1100 
L 3047 1100 
L 3047 0 
L 2419 0 
L 2419 1100 
L 313 1100 
L 313 1709 
L 2253 4666 
z
" id="DejaVuSans-34" transform="scale(0.015625)"/>
       </defs>
       <use xlink:href="#DejaVuSans-30"/>
       <use x="63.623047" xlink:href="#DejaVuSans-2e"/>
       <use x="95.410156" xlink:href="#DejaVuSans-34"/>
      </g>
     </g>
    </g>
    <g id="ytick_4">
     <g id="line2d_11">
      <g>
       <use style="stroke:#000000;stroke-width:0.8;" x="162" xlink:href="#mce71d4e208" y="493.151368"/>
      </g>
     </g>
     <g id="text_11">
      <!-- 0.6 -->
      <g transform="translate(139.096875 496.950587)scale(0.1 -0.1)">
       <defs>
        <path d="M 2113 2584 
Q 1688 2584 1439 2293 
Q 1191 2003 1191 1497 
Q 1191 994 1439 701 
Q 1688 409 2113 409 
Q 2538 409 2786 701 
Q 3034 994 3034 1497 
Q 3034 2003 2786 2293 
Q 2538 2584 2113 2584 
z
M 3366 4563 
L 3366 3988 
Q 3128 4100 2886 4159 
Q 2644 4219 2406 4219 
Q 1781 4219 1451 3797 
Q 1122 3375 1075 2522 
Q 1259 2794 1537 2939 
Q 1816 3084 2150 3084 
Q 2853 3084 3261 2657 
Q 3669 2231 3669 1497 
Q 3669 778 3244 343 
Q 2819 -91 2113 -91 
Q 1303 -91 875 529 
Q 447 1150 447 2328 
Q 447 3434 972 4092 
Q 1497 4750 2381 4750 
Q 2619 4750 2861 4703 
Q 3103 4656 3366 4563 
z
" id="DejaVuSans-36" transform="scale(0.015625)"/>
       </defs>
       <use xlink:href="#DejaVuSans-30"/>
       <use x="63.623047" xlink:href="#DejaVuSans-2e"/>
       <use x="95.410156" xlink:href="#DejaVuSans-36"/>
      </g>
     </g>
    </g>
    <g id="ytick_5">
     <g id="line2d_12">
      <g>
       <use style="stroke:#000000;stroke-width:0.8;" x="162" xlink:href="#mce71d4e208" y="401.215158"/>
      </g>
     </g>
     <g id="text_12">
      <!-- 0.8 -->
      <g transform="translate(139.096875 405.014377)scale(0.1 -0.1)">
       <defs>
        <path d="M 2034 2216 
Q 1584 2216 1326 1975 
Q 1069 1734 1069 1313 
Q 1069 891 1326 650 
Q 1584 409 2034 409 
Q 2484 409 2743 651 
Q 3003 894 3003 1313 
Q 3003 1734 2745 1975 
Q 2488 2216 2034 2216 
z
M 1403 2484 
Q 997 2584 770 2862 
Q 544 3141 544 3541 
Q 544 4100 942 4425 
Q 1341 4750 2034 4750 
Q 2731 4750 3128 4425 
Q 3525 4100 3525 3541 
Q 3525 3141 3298 2862 
Q 3072 2584 2669 2484 
Q 3125 2378 3379 2068 
Q 3634 1759 3634 1313 
Q 3634 634 3220 271 
Q 2806 -91 2034 -91 
Q 1263 -91 848 271 
Q 434 634 434 1313 
Q 434 1759 690 2068 
Q 947 2378 1403 2484 
z
M 1172 3481 
Q 1172 3119 1398 2916 
Q 1625 2713 2034 2713 
Q 2441 2713 2670 2916 
Q 2900 3119 2900 3481 
Q 2900 3844 2670 4047 
Q 2441 4250 2034 4250 
Q 1625 4250 1398 4047 
Q 1172 3844 1172 3481 
z
" id="DejaVuSans-38" transform="scale(0.015625)"/>
       </defs>
       <use xlink:href="#DejaVuSans-30"/>
       <use x="63.623047" xlink:href="#DejaVuSans-2e"/>
       <use x="95.410156" xlink:href="#DejaVuSans-38"/>
      </g>
     </g>
    </g>
    <g id="ytick_6">
     <g id="line2d_13">
      <g>
       <use style="stroke:#000000;stroke-width:0.8;" x="162" xlink:href="#mce71d4e208" y="309.278947"/>
      </g>
     </g>
     <g id="text_13">
      <!-- 1.0 -->
      <g transform="translate(139.096875 313.078166)scale(0.1 -0.1)">
       <defs>
        <path d="M 794 531 
L 1825 531 
L 1825 4091 
L 703 3866 
L 703 4441 
L 1819 4666 
L 2450 4666 
L 2450 531 
L 3481 531 
L 3481 0 
L 794 0 
L 794 531 
z
" id="DejaVuSans-31" transform="scale(0.015625)"/>
       </defs>
       <use xlink:href="#DejaVuSans-31"/>
       <use x="63.623047" xlink:href="#DejaVuSans-2e"/>
       <use x="95.410156" xlink:href="#DejaVuSans-30"/>
      </g>
     </g>
    </g>
    <g id="ytick_7">
     <g id="line2d_14">
      <g>
       <use style="stroke:#000000;stroke-width:0.8;" x="162" xlink:href="#mce71d4e208" y="217.342737"/>
      </g>
     </g>
     <g id="text_14">
      <!-- 1.2 -->
      <g transform="translate(139.096875 221.141955)scale(0.1 -0.1)">
       <use xlink:href="#DejaVuSans-31"/>
       <use x="63.623047" xlink:href="#DejaVuSans-2e"/>
       <use x="95.410156" xlink:href="#DejaVuSans-32"/>
      </g>
     </g>
    </g>
    <g id="ytick_8">
     <g id="line2d_15">
      <g>
       <use style="stroke:#000000;stroke-width:0.8;" x="162" xlink:href="#mce71d4e208" y="125.406526"/>
      </g>
     </g>
     <g id="text_15">
      <!-- 1.4 -->
      <g transform="translate(139.096875 129.205745)scale(0.1 -0.1)">
       <use xlink:href="#DejaVuSans-31"/>
       <use x="63.623047" xlink:href="#DejaVuSans-2e"/>
       <use x="95.410156" xlink:href="#DejaVuSans-34"/>
      </g>
     </g>
    </g>
    <g id="text_16">
     <!-- Persons fully vaccinated (tens of millions) -->
     <g transform="translate(133.017188 540.480156)rotate(-90)scale(0.1 -0.1)">
      <defs>
       <path d="M 1259 4147 
L 1259 2394 
L 2053 2394 
Q 2494 2394 2734 2622 
Q 2975 2850 2975 3272 
Q 2975 3691 2734 3919 
Q 2494 4147 2053 4147 
L 1259 4147 
z
M 628 4666 
L 2053 4666 
Q 2838 4666 3239 4311 
Q 3641 3956 3641 3272 
Q 3641 2581 3239 2228 
Q 2838 1875 2053 1875 
L 1259 1875 
L 1259 0 
L 628 0 
L 628 4666 
z
" id="DejaVuSans-50" transform="scale(0.015625)"/>
       <path d="M 2834 3397 
L 2834 2853 
Q 2591 2978 2328 3040 
Q 2066 3103 1784 3103 
Q 1356 3103 1142 2972 
Q 928 2841 928 2578 
Q 928 2378 1081 2264 
Q 1234 2150 1697 2047 
L 1894 2003 
Q 2506 1872 2764 1633 
Q 3022 1394 3022 966 
Q 3022 478 2636 193 
Q 2250 -91 1575 -91 
Q 1294 -91 989 -36 
Q 684 19 347 128 
L 347 722 
Q 666 556 975 473 
Q 1284 391 1588 391 
Q 1994 391 2212 530 
Q 2431 669 2431 922 
Q 2431 1156 2273 1281 
Q 2116 1406 1581 1522 
L 1381 1569 
Q 847 1681 609 1914 
Q 372 2147 372 2553 
Q 372 3047 722 3315 
Q 1072 3584 1716 3584 
Q 2034 3584 2315 3537 
Q 2597 3491 2834 3397 
z
" id="DejaVuSans-73" transform="scale(0.015625)"/>
       <path d="M 1959 3097 
Q 1497 3097 1228 2736 
Q 959 2375 959 1747 
Q 959 1119 1226 758 
Q 1494 397 1959 397 
Q 2419 397 2687 759 
Q 2956 1122 2956 1747 
Q 2956 2369 2687 2733 
Q 2419 3097 1959 3097 
z
M 1959 3584 
Q 2709 3584 3137 3096 
Q 3566 2609 3566 1747 
Q 3566 888 3137 398 
Q 2709 -91 1959 -91 
Q 1206 -91 779 398 
Q 353 888 353 1747 
Q 353 2609 779 3096 
Q 1206 3584 1959 3584 
z
" id="DejaVuSans-6f" transform="scale(0.015625)"/>
       <path id="DejaVuSans-20" transform="scale(0.015625)"/>
       <path d="M 2375 4863 
L 2375 4384 
L 1825 4384 
Q 1516 4384 1395 4259 
Q 1275 4134 1275 3809 
L 1275 3500 
L 2222 3500 
L 2222 3053 
L 1275 3053 
L 1275 0 
L 697 0 
L 697 3053 
L 147 3053 
L 147 3500 
L 697 3500 
L 697 3744 
Q 697 4328 969 4595 
Q 1241 4863 1831 4863 
L 2375 4863 
z
" id="DejaVuSans-66" transform="scale(0.015625)"/>
       <path d="M 191 3500 
L 800 3500 
L 1894 563 
L 2988 3500 
L 3597 3500 
L 2284 0 
L 1503 0 
L 191 3500 
z
" id="DejaVuSans-76" transform="scale(0.015625)"/>
       <path d="M 1172 4494 
L 1172 3500 
L 2356 3500 
L 2356 3053 
L 1172 3053 
L 1172 1153 
Q 1172 725 1289 603 
Q 1406 481 1766 481 
L 2356 481 
L 2356 0 
L 1766 0 
Q 1100 0 847 248 
Q 594 497 594 1153 
L 594 3053 
L 172 3053 
L 172 3500 
L 594 3500 
L 594 4494 
L 1172 4494 
z
" id="DejaVuSans-74" transform="scale(0.015625)"/>
       <path d="M 2906 2969 
L 2906 4863 
L 3481 4863 
L 3481 0 
L 2906 0 
L 2906 525 
Q 2725 213 2448 61 
Q 2172 -91 1784 -91 
Q 1150 -91 751 415 
Q 353 922 353 1747 
Q 353 2572 751 3078 
Q 1150 3584 1784 3584 
Q 2172 3584 2448 3432 
Q 2725 3281 2906 2969 
z
M 947 1747 
Q 947 1113 1208 752 
Q 1469 391 1925 391 
Q 2381 391 2643 752 
Q 2906 1113 2906 1747 
Q 2906 2381 2643 2742 
Q 2381 3103 1925 3103 
Q 1469 3103 1208 2742 
Q 947 2381 947 1747 
z
" id="DejaVuSans-64" transform="scale(0.015625)"/>
       <path d="M 1984 4856 
Q 1566 4138 1362 3434 
Q 1159 2731 1159 2009 
Q 1159 1288 1364 580 
Q 1569 -128 1984 -844 
L 1484 -844 
Q 1016 -109 783 600 
Q 550 1309 550 2009 
Q 550 2706 781 3412 
Q 1013 4119 1484 4856 
L 1984 4856 
z
" id="DejaVuSans-28" transform="scale(0.015625)"/>
       <path d="M 3328 2828 
Q 3544 3216 3844 3400 
Q 4144 3584 4550 3584 
Q 5097 3584 5394 3201 
Q 5691 2819 5691 2113 
L 5691 0 
L 5113 0 
L 5113 2094 
Q 5113 2597 4934 2840 
Q 4756 3084 4391 3084 
Q 3944 3084 3684 2787 
Q 3425 2491 3425 1978 
L 3425 0 
L 2847 0 
L 2847 2094 
Q 2847 2600 2669 2842 
Q 2491 3084 2119 3084 
Q 1678 3084 1418 2786 
Q 1159 2488 1159 1978 
L 1159 0 
L 581 0 
L 581 3500 
L 1159 3500 
L 1159 2956 
Q 1356 3278 1631 3431 
Q 1906 3584 2284 3584 
Q 2666 3584 2933 3390 
Q 3200 3197 3328 2828 
z
" id="DejaVuSans-6d" transform="scale(0.015625)"/>
       <path d="M 513 4856 
L 1013 4856 
Q 1481 4119 1714 3412 
Q 1947 2706 1947 2009 
Q 1947 1309 1714 600 
Q 1481 -109 1013 -844 
L 513 -844 
Q 928 -128 1133 580 
Q 1338 1288 1338 2009 
Q 1338 2731 1133 3434 
Q 928 4138 513 4856 
z
" id="DejaVuSans-29" transform="scale(0.015625)"/>
      </defs>
      <use xlink:href="#DejaVuSans-50"/>
      <use x="56.677734" xlink:href="#DejaVuSans-65"/>
      <use x="118.201172" xlink:href="#DejaVuSans-72"/>
      <use x="159.314453" xlink:href="#DejaVuSans-73"/>
      <use x="211.414062" xlink:href="#DejaVuSans-6f"/>
      <use x="272.595703" xlink:href="#DejaVuSans-6e"/>
      <use x="335.974609" xlink:href="#DejaVuSans-73"/>
      <use x="388.074219" xlink:href="#DejaVuSans-20"/>
      <use x="419.861328" xlink:href="#DejaVuSans-66"/>
      <use x="455.066406" xlink:href="#DejaVuSans-75"/>
      <use x="518.445312" xlink:href="#DejaVuSans-6c"/>
      <use x="546.228516" xlink:href="#DejaVuSans-6c"/>
      <use x="574.011719" xlink:href="#DejaVuSans-79"/>
      <use x="633.191406" xlink:href="#DejaVuSans-20"/>
      <use x="664.978516" xlink:href="#DejaVuSans-76"/>
      <use x="724.158203" xlink:href="#DejaVuSans-61"/>
      <use x="785.4375" xlink:href="#DejaVuSans-63"/>
      <use x="840.417969" xlink:href="#DejaVuSans-63"/>
      <use x="895.398438" xlink:href="#DejaVuSans-69"/>
      <use x="923.181641" xlink:href="#DejaVuSans-6e"/>
      <use x="986.560547" xlink:href="#DejaVuSans-61"/>
      <use x="1047.839844" xlink:href="#DejaVuSans-74"/>
      <use x="1087.048828" xlink:href="#DejaVuSans-65"/>
      <use x="1148.572266" xlink:href="#DejaVuSans-64"/>
      <use x="1212.048828" xlink:href="#DejaVuSans-20"/>
      <use x="1243.835938" xlink:href="#DejaVuSans-28"/>
      <use x="1282.849609" xlink:href="#DejaVuSans-74"/>
      <use x="1322.058594" xlink:href="#DejaVuSans-65"/>
      <use x="1383.582031" xlink:href="#DejaVuSans-6e"/>
      <use x="1446.960938" xlink:href="#DejaVuSans-73"/>
      <use x="1499.060547" xlink:href="#DejaVuSans-20"/>
      <use x="1530.847656" xlink:href="#DejaVuSans-6f"/>
      <use x="1592.029297" xlink:href="#DejaVuSans-66"/>
      <use x="1627.234375" xlink:href="#DejaVuSans-20"/>
      <use x="1659.021484" xlink:href="#DejaVuSans-6d"/>
      <use x="1756.433594" xlink:href="#DejaVuSans-69"/>
      <use x="1784.216797" xlink:href="#DejaVuSans-6c"/>
      <use x="1812" xlink:href="#DejaVuSans-6c"/>
      <use x="1839.783203" xlink:href="#DejaVuSans-69"/>
      <use x="1867.566406" xlink:href="#DejaVuSans-6f"/>
      <use x="1928.748047" xlink:href="#DejaVuSans-6e"/>
      <use x="1992.126953" xlink:href="#DejaVuSans-73"/>
      <use x="2044.226562" xlink:href="#DejaVuSans-29"/>
     </g>
    </g>
    <g id="text_17">
     <!-- 1e7 -->
     <g transform="translate(162 100.68)scale(0.1 -0.1)">
      <defs>
       <path d="M 525 4666 
L 3525 4666 
L 3525 4397 
L 1831 0 
L 1172 0 
L 2766 4134 
L 525 4134 
L 525 4666 
z
" id="DejaVuSans-37" transform="scale(0.015625)"/>
      </defs>
      <use xlink:href="#DejaVuSans-31"/>
      <use x="63.623047" xlink:href="#DejaVuSans-65"/>
      <use x="125.146484" xlink:href="#DejaVuSans-37"/>
     </g>
    </g>
   </g>
   <g id="patch_202">
    <path d="M 162 768.96 
L 162 103.68 
" style="fill:none;stroke:#000000;stroke-linecap:square;stroke-linejoin:miter;stroke-width:0.8;"/>
   </g>
   <g id="patch_203">
    <path d="M 1166.4 768.96 
L 1166.4 103.68 
" style="fill:none;stroke:#000000;stroke-linecap:square;stroke-linejoin:miter;stroke-width:0.8;"/>
   </g>
   <g id="patch_204">
    <path d="M 162 768.96 
L 1166.4 768.96 
" style="fill:none;stroke:#000000;stroke-linecap:square;stroke-linejoin:miter;stroke-width:0.8;"/>
   </g>
   <g id="patch_205">
    <path d="M 162 103.68 
L 1166.4 103.68 
" style="fill:none;stroke:#000000;stroke-linecap:square;stroke-linejoin:miter;stroke-width:0.8;"/>
   </g>
   <g id="text_18">
    <!-- Persons Fully Vaccinated -->
    <g transform="translate(590.380313 97.68)scale(0.12 -0.12)">
     <defs>
      <path d="M 1831 0 
L 50 4666 
L 709 4666 
L 2188 738 
L 3669 4666 
L 4325 4666 
L 2547 0 
L 1831 0 
z
" id="DejaVuSans-56" transform="scale(0.015625)"/>
     </defs>
     <use xlink:href="#DejaVuSans-50"/>
     <use x="56.677734" xlink:href="#DejaVuSans-65"/>
     <use x="118.201172" xlink:href="#DejaVuSans-72"/>
     <use x="159.314453" xlink:href="#DejaVuSans-73"/>
     <use x="211.414062" xlink:href="#DejaVuSans-6f"/>
     <use x="272.595703" xlink:href="#DejaVuSans-6e"/>
     <use x="335.974609" xlink:href="#DejaVuSans-73"/>
     <use x="388.074219" xlink:href="#DejaVuSans-20"/>
     <use x="419.861328" xlink:href="#DejaVuSans-46"/>
     <use x="471.880859" xlink:href="#DejaVuSans-75"/>
     <use x="535.259766" xlink:href="#DejaVuSans-6c"/>
     <use x="563.042969" xlink:href="#DejaVuSans-6c"/>
     <use x="590.826172" xlink:href="#DejaVuSans-79"/>
     <use x="650.005859" xlink:href="#DejaVuSans-20"/>
     <use x="681.792969" xlink:href="#DejaVuSans-56"/>
     <use x="742.451172" xlink:href="#DejaVuSans-61"/>
     <use x="803.730469" xlink:href="#DejaVuSans-63"/>
     <use x="858.710938" xlink:href="#DejaVuSans-63"/>
     <use x="913.691406" xlink:href="#DejaVuSans-69"/>
     <use x="941.474609" xlink:href="#DejaVuSans-6e"/>
     <use x="1004.853516" xlink:href="#DejaVuSans-61"/>
     <use x="1066.132812" xlink:href="#DejaVuSans-74"/>
     <use x="1105.341797" xlink:href="#DejaVuSans-65"/>
     <use x="1166.865234" xlink:href="#DejaVuSans-64"/>
    </g>
   </g>
  </g>
 </g>
 <defs>
  <clipPath id="p552f7e37eb">
   <rect height="665.28" width="1004.4" x="162" y="103.68"/>
  </clipPath>
 </defs>
</svg>
