<?xml version="1.0" encoding="utf-8" standalone="no"?>
<!DOCTYPE svg PUBLIC "-//W3C//DTD SVG 1.1//EN"
  "http://www.w3.org/Graphics/SVG/1.1/DTD/svg11.dtd">
<svg height="864pt" version="1.1" viewBox="0 0 1296 864" width="1296pt" xmlns="http://www.w3.org/2000/svg" xmlns:xlink="http://www.w3.org/1999/xlink">
 <metadata>
  <rdf:RDF xmlns:cc="http://creativecommons.org/ns#" xmlns:dc="http://purl.org/dc/elements/1.1/" xmlns:rdf="http://www.w3.org/1999/02/22-rdf-syntax-ns#">
   <cc:Work>
    <dc:type rdf:resource="http://purl.org/dc/dcmitype/StillImage"/>
    <dc:date>2021-09-14T16:26:16.619961</dc:date>
    <dc:format>image/svg+xml</dc:format>
    <dc:creator>
     <cc:Agent>
      <dc:title>Matplotlib v3.4.2, https://matplotlib.org/</dc:title>
     </cc:Agent>
    </dc:creator>
   </cc:Work>
  </rdf:RDF>
 </metadata>
 <defs>
  <style type="text/css">*{stroke-linecap:butt;stroke-linejoin:round;}</style>
 </defs>
 <g id="figure_1">
  <g id="patch_1">
   <path d="M 0 864 
L 1296 864 
L 1296 0 
L 0 0 
z
" style="fill:#ffffff;"/>
  </g>
  <g id="axes_1">
   <g id="patch_2">
    <path d="M 162 768.96 
L 1166.4 768.96 
L 1166.4 103.68 
L 162 103.68 
z
" style="fill:#ffffff;"/>
   </g>
   <g id="patch_3">
    <path clip-path="url(#pb05f181f6d)" d="M 162.996429 768.96 
L 164.989286 768.96 
L 164.989286 768.948844 
L 162.996429 768.948844 
z
" style="fill:#1f77b4;"/>
   </g>
   <g id="patch_4">
    <path clip-path="url(#pb05f181f6d)" d="M 166.982143 768.96 
L 168.975 768.96 
L 168.975 768.919081 
L 166.982143 768.919081 
z
" style="fill:#1f77b4;"/>
   </g>
   <g id="patch_5">
    <path clip-path="url(#pb05f181f6d)" d="M 170.967857 768.96 
L 172.960714 768.96 
L 172.960714 768.70597 
L 170.967857 768.70597 
z
" style="fill:#1f77b4;"/>
   </g>
   <g id="patch_6">
    <path clip-path="url(#pb05f181f6d)" d="M 174.953571 768.96 
L 176.946429 768.96 
L 176.946429 767.163948 
L 174.953571 767.163948 
z
" style="fill:#1f77b4;"/>
   </g>
   <g id="patch_7">
    <path clip-path="url(#pb05f181f6d)" d="M 178.939286 768.96 
L 180.932143 768.96 
L 180.932143 765.31761 
L 178.939286 765.31761 
z
" style="fill:#1f77b4;"/>
   </g>
   <g id="patch_8">
    <path clip-path="url(#pb05f181f6d)" d="M 182.925 768.96 
L 184.917857 768.96 
L 184.917857 764.311241 
L 182.925 764.311241 
z
" style="fill:#1f77b4;"/>
   </g>
   <g id="patch_9">
    <path clip-path="url(#pb05f181f6d)" d="M 186.910714 768.96 
L 188.903571 768.96 
L 188.903571 763.700478 
L 186.910714 763.700478 
z
" style="fill:#1f77b4;"/>
   </g>
   <g id="patch_10">
    <path clip-path="url(#pb05f181f6d)" d="M 190.896429 768.96 
L 192.889286 768.96 
L 192.889286 762.741713 
L 190.896429 762.741713 
z
" style="fill:#1f77b4;"/>
   </g>
   <g id="patch_11">
    <path clip-path="url(#pb05f181f6d)" d="M 194.882143 768.96 
L 196.875 768.96 
L 196.875 761.830849 
L 194.882143 761.830849 
z
" style="fill:#1f77b4;"/>
   </g>
   <g id="patch_12">
    <path clip-path="url(#pb05f181f6d)" d="M 198.867857 768.96 
L 200.860714 768.96 
L 200.860714 761.087409 
L 198.867857 761.087409 
z
" style="fill:#1f77b4;"/>
   </g>
   <g id="patch_13">
    <path clip-path="url(#pb05f181f6d)" d="M 202.853571 768.96 
L 204.846429 768.96 
L 204.846429 760.180548 
L 202.853571 760.180548 
z
" style="fill:#1f77b4;"/>
   </g>
   <g id="patch_14">
    <path clip-path="url(#pb05f181f6d)" d="M 206.839286 768.96 
L 208.832143 768.96 
L 208.832143 759.992048 
L 206.839286 759.992048 
z
" style="fill:#1f77b4;"/>
   </g>
   <g id="patch_15">
    <path clip-path="url(#pb05f181f6d)" d="M 210.825 768.96 
L 212.817857 768.96 
L 212.817857 759.875124 
L 210.825 759.875124 
z
" style="fill:#1f77b4;"/>
   </g>
   <g id="patch_16">
    <path clip-path="url(#pb05f181f6d)" d="M 214.810714 768.96 
L 216.803571 768.96 
L 216.803571 759.819728 
L 214.810714 759.819728 
z
" style="fill:#1f77b4;"/>
   </g>
   <g id="patch_17">
    <path clip-path="url(#pb05f181f6d)" d="M 218.796429 768.96 
L 220.789286 768.96 
L 220.789286 759.564122 
L 218.796429 759.564122 
z
" style="fill:#1f77b4;"/>
   </g>
   <g id="patch_18">
    <path clip-path="url(#pb05f181f6d)" d="M 222.782143 768.96 
L 224.775 768.96 
L 224.775 759.13922 
L 222.782143 759.13922 
z
" style="fill:#1f77b4;"/>
   </g>
   <g id="patch_19">
    <path clip-path="url(#pb05f181f6d)" d="M 226.767857 768.96 
L 228.760714 768.96 
L 228.760714 758.304617 
L 226.767857 758.304617 
z
" style="fill:#1f77b4;"/>
   </g>
   <g id="patch_20">
    <path clip-path="url(#pb05f181f6d)" d="M 230.753571 768.96 
L 232.746429 768.96 
L 232.746429 757.476783 
L 230.753571 757.476783 
z
" style="fill:#1f77b4;"/>
   </g>
   <g id="patch_21">
    <path clip-path="url(#pb05f181f6d)" d="M 234.739286 768.96 
L 236.732143 768.96 
L 236.732143 756.882031 
L 234.739286 756.882031 
z
" style="fill:#1f77b4;"/>
   </g>
   <g id="patch_22">
    <path clip-path="url(#pb05f181f6d)" d="M 238.725 768.96 
L 240.717857 768.96 
L 240.717857 756.665726 
L 238.725 756.665726 
z
" style="fill:#1f77b4;"/>
   </g>
   <g id="patch_23">
    <path clip-path="url(#pb05f181f6d)" d="M 242.710714 768.96 
L 244.703571 768.96 
L 244.703571 756.37099 
L 242.710714 756.37099 
z
" style="fill:#1f77b4;"/>
   </g>
   <g id="patch_24">
    <path clip-path="url(#pb05f181f6d)" d="M 246.696429 768.96 
L 248.689286 768.96 
L 248.689286 755.581394 
L 246.696429 755.581394 
z
" style="fill:#1f77b4;"/>
   </g>
   <g id="patch_25">
    <path clip-path="url(#pb05f181f6d)" d="M 250.682143 768.96 
L 252.675 768.96 
L 252.675 754.268323 
L 250.682143 754.268323 
z
" style="fill:#1f77b4;"/>
   </g>
   <g id="patch_26">
    <path clip-path="url(#pb05f181f6d)" d="M 254.667857 768.96 
L 256.660714 768.96 
L 256.660714 752.446127 
L 254.667857 752.446127 
z
" style="fill:#1f77b4;"/>
   </g>
   <g id="patch_27">
    <path clip-path="url(#pb05f181f6d)" d="M 258.653571 768.96 
L 260.646429 768.96 
L 260.646429 750.910237 
L 258.653571 750.910237 
z
" style="fill:#1f77b4;"/>
   </g>
   <g id="patch_28">
    <path clip-path="url(#pb05f181f6d)" d="M 262.639286 768.96 
L 264.632143 768.96 
L 264.632143 749.521502 
L 262.639286 749.521502 
z
" style="fill:#1f77b4;"/>
   </g>
   <g id="patch_29">
    <path clip-path="url(#pb05f181f6d)" d="M 266.625 768.96 
L 268.617857 768.96 
L 268.617857 748.758348 
L 266.625 748.758348 
z
" style="fill:#1f77b4;"/>
   </g>
   <g id="patch_30">
    <path clip-path="url(#pb05f181f6d)" d="M 270.610714 768.96 
L 272.603571 768.96 
L 272.603571 748.327569 
L 270.610714 748.327569 
z
" style="fill:#1f77b4;"/>
   </g>
   <g id="patch_31">
    <path clip-path="url(#pb05f181f6d)" d="M 274.596429 768.96 
L 276.589286 768.96 
L 276.589286 747.578934 
L 274.596429 747.578934 
z
" style="fill:#1f77b4;"/>
   </g>
   <g id="patch_32">
    <path clip-path="url(#pb05f181f6d)" d="M 278.582143 768.96 
L 280.575 768.96 
L 280.575 745.957374 
L 278.582143 745.957374 
z
" style="fill:#1f77b4;"/>
   </g>
   <g id="patch_33">
    <path clip-path="url(#pb05f181f6d)" d="M 282.567857 768.96 
L 284.560714 768.96 
L 284.560714 744.753179 
L 282.567857 744.753179 
z
" style="fill:#1f77b4;"/>
   </g>
   <g id="patch_34">
    <path clip-path="url(#pb05f181f6d)" d="M 286.553571 768.96 
L 288.546429 768.96 
L 288.546429 743.113949 
L 286.553571 743.113949 
z
" style="fill:#1f77b4;"/>
   </g>
   <g id="patch_35">
    <path clip-path="url(#pb05f181f6d)" d="M 290.539286 768.96 
L 292.532143 768.96 
L 292.532143 741.823402 
L 290.539286 741.823402 
z
" style="fill:#1f77b4;"/>
   </g>
   <g id="patch_36">
    <path clip-path="url(#pb05f181f6d)" d="M 294.525 768.96 
L 296.517857 768.96 
L 296.517857 740.676307 
L 294.525 740.676307 
z
" style="fill:#1f77b4;"/>
   </g>
   <g id="patch_37">
    <path clip-path="url(#pb05f181f6d)" d="M 298.510714 768.96 
L 300.503571 768.96 
L 300.503571 740.285043 
L 298.510714 740.285043 
z
" style="fill:#1f77b4;"/>
   </g>
   <g id="patch_38">
    <path clip-path="url(#pb05f181f6d)" d="M 302.496429 768.96 
L 304.489286 768.96 
L 304.489286 738.955409 
L 302.496429 738.955409 
z
" style="fill:#1f77b4;"/>
   </g>
   <g id="patch_39">
    <path clip-path="url(#pb05f181f6d)" d="M 306.482143 768.96 
L 308.475 768.96 
L 308.475 737.319244 
L 306.482143 737.319244 
z
" style="fill:#1f77b4;"/>
   </g>
   <g id="patch_40">
    <path clip-path="url(#pb05f181f6d)" d="M 310.467857 768.96 
L 312.460714 768.96 
L 312.460714 735.336991 
L 310.467857 735.336991 
z
" style="fill:#1f77b4;"/>
   </g>
   <g id="patch_41">
    <path clip-path="url(#pb05f181f6d)" d="M 314.453571 768.96 
L 316.446429 768.96 
L 316.446429 732.508171 
L 314.453571 732.508171 
z
" style="fill:#1f77b4;"/>
   </g>
   <g id="patch_42">
    <path clip-path="url(#pb05f181f6d)" d="M 318.439286 768.96 
L 320.432143 768.96 
L 320.432143 729.949858 
L 318.439286 729.949858 
z
" style="fill:#1f77b4;"/>
   </g>
   <g id="patch_43">
    <path clip-path="url(#pb05f181f6d)" d="M 322.425 768.96 
L 324.417857 768.96 
L 324.417857 728.34797 
L 322.425 728.34797 
z
" style="fill:#1f77b4;"/>
   </g>
   <g id="patch_44">
    <path clip-path="url(#pb05f181f6d)" d="M 326.410714 768.96 
L 328.403571 768.96 
L 328.403571 727.48471 
L 326.410714 727.48471 
z
" style="fill:#1f77b4;"/>
   </g>
   <g id="patch_45">
    <path clip-path="url(#pb05f181f6d)" d="M 330.396429 768.96 
L 332.389286 768.96 
L 332.389286 726.646275 
L 330.396429 726.646275 
z
" style="fill:#1f77b4;"/>
   </g>
   <g id="patch_46">
    <path clip-path="url(#pb05f181f6d)" d="M 334.382143 768.96 
L 336.375 768.96 
L 336.375 725.005383 
L 334.382143 725.005383 
z
" style="fill:#1f77b4;"/>
   </g>
   <g id="patch_47">
    <path clip-path="url(#pb05f181f6d)" d="M 338.367857 768.96 
L 340.360714 768.96 
L 340.360714 722.28578 
L 338.367857 722.28578 
z
" style="fill:#1f77b4;"/>
   </g>
   <g id="patch_48">
    <path clip-path="url(#pb05f181f6d)" d="M 342.353571 768.96 
L 344.346429 768.96 
L 344.346429 718.740088 
L 342.353571 718.740088 
z
" style="fill:#1f77b4;"/>
   </g>
   <g id="patch_49">
    <path clip-path="url(#pb05f181f6d)" d="M 346.339286 768.96 
L 348.332143 768.96 
L 348.332143 715.407593 
L 346.339286 715.407593 
z
" style="fill:#1f77b4;"/>
   </g>
   <g id="patch_50">
    <path clip-path="url(#pb05f181f6d)" d="M 350.325 768.96 
L 352.317857 768.96 
L 352.317857 714.870493 
L 350.325 714.870493 
z
" style="fill:#1f77b4;"/>
   </g>
   <g id="patch_51">
    <path clip-path="url(#pb05f181f6d)" d="M 354.310714 768.96 
L 356.303571 768.96 
L 356.303571 712.418673 
L 354.310714 712.418673 
z
" style="fill:#1f77b4;"/>
   </g>
   <g id="patch_52">
    <path clip-path="url(#pb05f181f6d)" d="M 358.296429 768.96 
L 360.289286 768.96 
L 360.289286 710.455752 
L 358.296429 710.455752 
z
" style="fill:#1f77b4;"/>
   </g>
   <g id="patch_53">
    <path clip-path="url(#pb05f181f6d)" d="M 362.282143 768.96 
L 364.275 768.96 
L 364.275 707.498554 
L 362.282143 707.498554 
z
" style="fill:#1f77b4;"/>
   </g>
   <g id="patch_54">
    <path clip-path="url(#pb05f181f6d)" d="M 366.267857 768.96 
L 368.260714 768.96 
L 368.260714 701.860414 
L 366.267857 701.860414 
z
" style="fill:#1f77b4;"/>
   </g>
   <g id="patch_55">
    <path clip-path="url(#pb05f181f6d)" d="M 370.253571 768.96 
L 372.246429 768.96 
L 372.246429 695.94904 
L 370.253571 695.94904 
z
" style="fill:#1f77b4;"/>
   </g>
   <g id="patch_56">
    <path clip-path="url(#pb05f181f6d)" d="M 374.239286 768.96 
L 376.232143 768.96 
L 376.232143 690.774508 
L 374.239286 690.774508 
z
" style="fill:#1f77b4;"/>
   </g>
   <g id="patch_57">
    <path clip-path="url(#pb05f181f6d)" d="M 378.225 768.96 
L 380.217857 768.96 
L 380.217857 686.312801 
L 378.225 686.312801 
z
" style="fill:#1f77b4;"/>
   </g>
   <g id="patch_58">
    <path clip-path="url(#pb05f181f6d)" d="M 382.210714 768.96 
L 384.203571 768.96 
L 384.203571 684.209665 
L 382.210714 684.209665 
z
" style="fill:#1f77b4;"/>
   </g>
   <g id="patch_59">
    <path clip-path="url(#pb05f181f6d)" d="M 386.196429 768.96 
L 388.189286 768.96 
L 388.189286 680.998479 
L 386.196429 680.998479 
z
" style="fill:#1f77b4;"/>
   </g>
   <g id="patch_60">
    <path clip-path="url(#pb05f181f6d)" d="M 390.182143 768.96 
L 392.175 768.96 
L 392.175 676.60771 
L 390.182143 676.60771 
z
" style="fill:#1f77b4;"/>
   </g>
   <g id="patch_61">
    <path clip-path="url(#pb05f181f6d)" d="M 394.167857 768.96 
L 396.160714 768.96 
L 396.160714 671.597832 
L 394.167857 671.597832 
z
" style="fill:#1f77b4;"/>
   </g>
   <g id="patch_62">
    <path clip-path="url(#pb05f181f6d)" d="M 398.153571 768.96 
L 400.146429 768.96 
L 400.146429 664.31301 
L 398.153571 664.31301 
z
" style="fill:#1f77b4;"/>
   </g>
   <g id="patch_63">
    <path clip-path="url(#pb05f181f6d)" d="M 402.139286 768.96 
L 404.132143 768.96 
L 404.132143 657.519728 
L 402.139286 657.519728 
z
" style="fill:#1f77b4;"/>
   </g>
   <g id="patch_64">
    <path clip-path="url(#pb05f181f6d)" d="M 406.125 768.96 
L 408.117857 768.96 
L 408.117857 652.410129 
L 406.125 652.410129 
z
" style="fill:#1f77b4;"/>
   </g>
   <g id="patch_65">
    <path clip-path="url(#pb05f181f6d)" d="M 410.110714 768.96 
L 412.103571 768.96 
L 412.103571 650.800363 
L 410.110714 650.800363 
z
" style="fill:#1f77b4;"/>
   </g>
   <g id="patch_66">
    <path clip-path="url(#pb05f181f6d)" d="M 414.096429 768.96 
L 416.089286 768.96 
L 416.089286 646.433523 
L 414.096429 646.433523 
z
" style="fill:#1f77b4;"/>
   </g>
   <g id="patch_67">
    <path clip-path="url(#pb05f181f6d)" d="M 418.082143 768.96 
L 420.075 768.96 
L 420.075 640.745693 
L 418.082143 640.745693 
z
" style="fill:#1f77b4;"/>
   </g>
   <g id="patch_68">
    <path clip-path="url(#pb05f181f6d)" d="M 422.067857 768.96 
L 424.060714 768.96 
L 424.060714 634.419041 
L 422.067857 634.419041 
z
" style="fill:#1f77b4;"/>
   </g>
   <g id="patch_69">
    <path clip-path="url(#pb05f181f6d)" d="M 426.053571 768.96 
L 428.046429 768.96 
L 428.046429 627.694311 
L 426.053571 627.694311 
z
" style="fill:#1f77b4;"/>
   </g>
   <g id="patch_70">
    <path clip-path="url(#pb05f181f6d)" d="M 430.039286 768.96 
L 432.032143 768.96 
L 432.032143 620.105769 
L 430.039286 620.105769 
z
" style="fill:#1f77b4;"/>
   </g>
   <g id="patch_71">
    <path clip-path="url(#pb05f181f6d)" d="M 434.025 768.96 
L 436.017857 768.96 
L 436.017857 615.224312 
L 434.025 615.224312 
z
" style="fill:#1f77b4;"/>
   </g>
   <g id="patch_72">
    <path clip-path="url(#pb05f181f6d)" d="M 438.010714 768.96 
L 440.003571 768.96 
L 440.003571 610.361845 
L 438.010714 610.361845 
z
" style="fill:#1f77b4;"/>
   </g>
   <g id="patch_73">
    <path clip-path="url(#pb05f181f6d)" d="M 441.996429 768.96 
L 443.989286 768.96 
L 443.989286 606.050401 
L 441.996429 606.050401 
z
" style="fill:#1f77b4;"/>
   </g>
   <g id="patch_74">
    <path clip-path="url(#pb05f181f6d)" d="M 445.982143 768.96 
L 447.975 768.96 
L 447.975 601.181207 
L 445.982143 601.181207 
z
" style="fill:#1f77b4;"/>
   </g>
   <g id="patch_75">
    <path clip-path="url(#pb05f181f6d)" d="M 449.967857 768.96 
L 451.960714 768.96 
L 451.960714 596.817604 
L 449.967857 596.817604 
z
" style="fill:#1f77b4;"/>
   </g>
   <g id="patch_76">
    <path clip-path="url(#pb05f181f6d)" d="M 453.953571 768.96 
L 455.946429 768.96 
L 455.946429 591.861505 
L 453.953571 591.861505 
z
" style="fill:#1f77b4;"/>
   </g>
   <g id="patch_77">
    <path clip-path="url(#pb05f181f6d)" d="M 457.939286 768.96 
L 459.932143 768.96 
L 459.932143 586.805301 
L 457.939286 586.805301 
z
" style="fill:#1f77b4;"/>
   </g>
   <g id="patch_78">
    <path clip-path="url(#pb05f181f6d)" d="M 461.925 768.96 
L 463.917857 768.96 
L 463.917857 583.837713 
L 461.925 583.837713 
z
" style="fill:#1f77b4;"/>
   </g>
   <g id="patch_79">
    <path clip-path="url(#pb05f181f6d)" d="M 465.910714 768.96 
L 467.903571 768.96 
L 467.903571 582.199547 
L 465.910714 582.199547 
z
" style="fill:#1f77b4;"/>
   </g>
   <g id="patch_80">
    <path clip-path="url(#pb05f181f6d)" d="M 469.896429 768.96 
L 471.889286 768.96 
L 471.889286 579.490971 
L 469.896429 579.490971 
z
" style="fill:#1f77b4;"/>
   </g>
   <g id="patch_81">
    <path clip-path="url(#pb05f181f6d)" d="M 473.882143 768.96 
L 475.875 768.96 
L 475.875 576.256537 
L 473.882143 576.256537 
z
" style="fill:#1f77b4;"/>
   </g>
   <g id="patch_82">
    <path clip-path="url(#pb05f181f6d)" d="M 477.867857 768.96 
L 479.860714 768.96 
L 479.860714 572.881462 
L 477.867857 572.881462 
z
" style="fill:#1f77b4;"/>
   </g>
   <g id="patch_83">
    <path clip-path="url(#pb05f181f6d)" d="M 481.853571 768.96 
L 483.846429 768.96 
L 483.846429 568.484433 
L 481.853571 568.484433 
z
" style="fill:#1f77b4;"/>
   </g>
   <g id="patch_84">
    <path clip-path="url(#pb05f181f6d)" d="M 485.839286 768.96 
L 487.832143 768.96 
L 487.832143 563.035517 
L 485.839286 563.035517 
z
" style="fill:#1f77b4;"/>
   </g>
   <g id="patch_85">
    <path clip-path="url(#pb05f181f6d)" d="M 489.825 768.96 
L 491.817857 768.96 
L 491.817857 558.326082 
L 489.825 558.326082 
z
" style="fill:#1f77b4;"/>
   </g>
   <g id="patch_86">
    <path clip-path="url(#pb05f181f6d)" d="M 493.810714 768.96 
L 495.803571 768.96 
L 495.803571 556.458326 
L 493.810714 556.458326 
z
" style="fill:#1f77b4;"/>
   </g>
   <g id="patch_87">
    <path clip-path="url(#pb05f181f6d)" d="M 497.796429 768.96 
L 499.789286 768.96 
L 499.789286 553.61043 
L 497.796429 553.61043 
z
" style="fill:#1f77b4;"/>
   </g>
   <g id="patch_88">
    <path clip-path="url(#pb05f181f6d)" d="M 501.782143 768.96 
L 503.775 768.96 
L 503.775 548.440453 
L 501.782143 548.440453 
z
" style="fill:#1f77b4;"/>
   </g>
   <g id="patch_89">
    <path clip-path="url(#pb05f181f6d)" d="M 505.767857 768.96 
L 507.760714 768.96 
L 507.760714 544.075402 
L 505.767857 544.075402 
z
" style="fill:#1f77b4;"/>
   </g>
   <g id="patch_90">
    <path clip-path="url(#pb05f181f6d)" d="M 509.753571 768.96 
L 511.746429 768.96 
L 511.746429 538.022281 
L 509.753571 538.022281 
z
" style="fill:#1f77b4;"/>
   </g>
   <g id="patch_91">
    <path clip-path="url(#pb05f181f6d)" d="M 513.739286 768.96 
L 515.732143 768.96 
L 515.732143 531.918533 
L 513.739286 531.918533 
z
" style="fill:#1f77b4;"/>
   </g>
   <g id="patch_92">
    <path clip-path="url(#pb05f181f6d)" d="M 517.725 768.96 
L 519.717857 768.96 
L 519.717857 527.264834 
L 517.725 527.264834 
z
" style="fill:#1f77b4;"/>
   </g>
   <g id="patch_93">
    <path clip-path="url(#pb05f181f6d)" d="M 521.710714 768.96 
L 523.703571 768.96 
L 523.703571 525.97003 
L 521.710714 525.97003 
z
" style="fill:#1f77b4;"/>
   </g>
   <g id="patch_94">
    <path clip-path="url(#pb05f181f6d)" d="M 525.696429 768.96 
L 527.689286 768.96 
L 527.689286 521.608428 
L 525.696429 521.608428 
z
" style="fill:#1f77b4;"/>
   </g>
   <g id="patch_95">
    <path clip-path="url(#pb05f181f6d)" d="M 529.682143 768.96 
L 531.675 768.96 
L 531.675 514.898559 
L 529.682143 514.898559 
z
" style="fill:#1f77b4;"/>
   </g>
   <g id="patch_96">
    <path clip-path="url(#pb05f181f6d)" d="M 533.667857 768.96 
L 535.660714 768.96 
L 535.660714 507.44691 
L 533.667857 507.44691 
z
" style="fill:#1f77b4;"/>
   </g>
   <g id="patch_97">
    <path clip-path="url(#pb05f181f6d)" d="M 537.653571 768.96 
L 539.646429 768.96 
L 539.646429 498.593454 
L 537.653571 498.593454 
z
" style="fill:#1f77b4;"/>
   </g>
   <g id="patch_98">
    <path clip-path="url(#pb05f181f6d)" d="M 541.639286 768.96 
L 543.632143 768.96 
L 543.632143 488.166297 
L 541.639286 488.166297 
z
" style="fill:#1f77b4;"/>
   </g>
   <g id="patch_99">
    <path clip-path="url(#pb05f181f6d)" d="M 545.625 768.96 
L 547.617857 768.96 
L 547.617857 481.307655 
L 545.625 481.307655 
z
" style="fill:#1f77b4;"/>
   </g>
   <g id="patch_100">
    <path clip-path="url(#pb05f181f6d)" d="M 549.610714 768.96 
L 551.603571 768.96 
L 551.603571 477.993895 
L 549.610714 477.993895 
z
" style="fill:#1f77b4;"/>
   </g>
   <g id="patch_101">
    <path clip-path="url(#pb05f181f6d)" d="M 553.596429 768.96 
L 555.589286 768.96 
L 555.589286 472.274641 
L 553.596429 472.274641 
z
" style="fill:#1f77b4;"/>
   </g>
   <g id="patch_102">
    <path clip-path="url(#pb05f181f6d)" d="M 557.582143 768.96 
L 559.575 768.96 
L 559.575 465.177084 
L 557.582143 465.177084 
z
" style="fill:#1f77b4;"/>
   </g>
   <g id="patch_103">
    <path clip-path="url(#pb05f181f6d)" d="M 561.567857 768.96 
L 563.560714 768.96 
L 563.560714 459.054601 
L 561.567857 459.054601 
z
" style="fill:#1f77b4;"/>
   </g>
   <g id="patch_104">
    <path clip-path="url(#pb05f181f6d)" d="M 565.553571 768.96 
L 567.546429 768.96 
L 567.546429 450.710866 
L 565.553571 450.710866 
z
" style="fill:#1f77b4;"/>
   </g>
   <g id="patch_105">
    <path clip-path="url(#pb05f181f6d)" d="M 569.539286 768.96 
L 571.532143 768.96 
L 571.532143 442.626739 
L 569.539286 442.626739 
z
" style="fill:#1f77b4;"/>
   </g>
   <g id="patch_106">
    <path clip-path="url(#pb05f181f6d)" d="M 573.525 768.96 
L 575.517857 768.96 
L 575.517857 437.063795 
L 573.525 437.063795 
z
" style="fill:#1f77b4;"/>
   </g>
   <g id="patch_107">
    <path clip-path="url(#pb05f181f6d)" d="M 577.510714 768.96 
L 579.503571 768.96 
L 579.503571 433.813393 
L 577.510714 433.813393 
z
" style="fill:#1f77b4;"/>
   </g>
   <g id="patch_108">
    <path clip-path="url(#pb05f181f6d)" d="M 581.496429 768.96 
L 583.489286 768.96 
L 583.489286 429.157693 
L 581.496429 429.157693 
z
" style="fill:#1f77b4;"/>
   </g>
   <g id="patch_109">
    <path clip-path="url(#pb05f181f6d)" d="M 585.482143 768.96 
L 587.475 768.96 
L 587.475 421.736915 
L 585.482143 421.736915 
z
" style="fill:#1f77b4;"/>
   </g>
   <g id="patch_110">
    <path clip-path="url(#pb05f181f6d)" d="M 589.467857 768.96 
L 591.460714 768.96 
L 591.460714 415.190679 
L 589.467857 415.190679 
z
" style="fill:#1f77b4;"/>
   </g>
   <g id="patch_111">
    <path clip-path="url(#pb05f181f6d)" d="M 593.453571 768.96 
L 595.446429 768.96 
L 595.446429 408.32565 
L 593.453571 408.32565 
z
" style="fill:#1f77b4;"/>
   </g>
   <g id="patch_112">
    <path clip-path="url(#pb05f181f6d)" d="M 597.439286 768.96 
L 599.432143 768.96 
L 599.432143 402.061759 
L 597.439286 402.061759 
z
" style="fill:#1f77b4;"/>
   </g>
   <g id="patch_113">
    <path clip-path="url(#pb05f181f6d)" d="M 601.425 768.96 
L 603.417857 768.96 
L 603.417857 397.962363 
L 601.425 397.962363 
z
" style="fill:#1f77b4;"/>
   </g>
   <g id="patch_114">
    <path clip-path="url(#pb05f181f6d)" d="M 605.410714 768.96 
L 607.403571 768.96 
L 607.403571 396.276507 
L 605.410714 396.276507 
z
" style="fill:#1f77b4;"/>
   </g>
   <g id="patch_115">
    <path clip-path="url(#pb05f181f6d)" d="M 609.396429 768.96 
L 611.389286 768.96 
L 611.389286 392.389412 
L 609.396429 392.389412 
z
" style="fill:#1f77b4;"/>
   </g>
   <g id="patch_116">
    <path clip-path="url(#pb05f181f6d)" d="M 613.382143 768.96 
L 615.375 768.96 
L 615.375 386.849078 
L 613.382143 386.849078 
z
" style="fill:#1f77b4;"/>
   </g>
   <g id="patch_117">
    <path clip-path="url(#pb05f181f6d)" d="M 617.367857 768.96 
L 619.360714 768.96 
L 619.360714 381.090352 
L 617.367857 381.090352 
z
" style="fill:#1f77b4;"/>
   </g>
   <g id="patch_118">
    <path clip-path="url(#pb05f181f6d)" d="M 621.353571 768.96 
L 623.346429 768.96 
L 623.346429 375.499263 
L 621.353571 375.499263 
z
" style="fill:#1f77b4;"/>
   </g>
   <g id="patch_119">
    <path clip-path="url(#pb05f181f6d)" d="M 625.339286 768.96 
L 627.332143 768.96 
L 627.332143 370.701943 
L 625.339286 370.701943 
z
" style="fill:#1f77b4;"/>
   </g>
   <g id="patch_120">
    <path clip-path="url(#pb05f181f6d)" d="M 629.325 768.96 
L 631.317857 768.96 
L 631.317857 368.572919 
L 629.325 368.572919 
z
" style="fill:#1f77b4;"/>
   </g>
   <g id="patch_121">
    <path clip-path="url(#pb05f181f6d)" d="M 633.310714 768.96 
L 635.303571 768.96 
L 635.303571 367.882661 
L 633.310714 367.882661 
z
" style="fill:#1f77b4;"/>
   </g>
   <g id="patch_122">
    <path clip-path="url(#pb05f181f6d)" d="M 637.296429 768.96 
L 639.289286 768.96 
L 639.289286 365.522429 
L 637.296429 365.522429 
z
" style="fill:#1f77b4;"/>
   </g>
   <g id="patch_123">
    <path clip-path="url(#pb05f181f6d)" d="M 641.282143 768.96 
L 643.275 768.96 
L 643.275 359.365797 
L 641.282143 359.365797 
z
" style="fill:#1f77b4;"/>
   </g>
   <g id="patch_124">
    <path clip-path="url(#pb05f181f6d)" d="M 645.267857 768.96 
L 647.260714 768.96 
L 647.260714 353.410907 
L 645.267857 353.410907 
z
" style="fill:#1f77b4;"/>
   </g>
   <g id="patch_125">
    <path clip-path="url(#pb05f181f6d)" d="M 649.253571 768.96 
L 651.246429 768.96 
L 651.246429 348.928166 
L 649.253571 348.928166 
z
" style="fill:#1f77b4;"/>
   </g>
   <g id="patch_126">
    <path clip-path="url(#pb05f181f6d)" d="M 653.239286 768.96 
L 655.232143 768.96 
L 655.232143 342.325597 
L 653.239286 342.325597 
z
" style="fill:#1f77b4;"/>
   </g>
   <g id="patch_127">
    <path clip-path="url(#pb05f181f6d)" d="M 657.225 768.96 
L 659.217857 768.96 
L 659.217857 337.924736 
L 657.225 337.924736 
z
" style="fill:#1f77b4;"/>
   </g>
   <g id="patch_128">
    <path clip-path="url(#pb05f181f6d)" d="M 661.210714 768.96 
L 663.203571 768.96 
L 663.203571 333.999746 
L 661.210714 333.999746 
z
" style="fill:#1f77b4;"/>
   </g>
   <g id="patch_129">
    <path clip-path="url(#pb05f181f6d)" d="M 665.196429 768.96 
L 667.189286 768.96 
L 667.189286 330.522097 
L 665.196429 330.522097 
z
" style="fill:#1f77b4;"/>
   </g>
   <g id="patch_130">
    <path clip-path="url(#pb05f181f6d)" d="M 669.182143 768.96 
L 671.175 768.96 
L 671.175 325.924262 
L 669.182143 325.924262 
z
" style="fill:#1f77b4;"/>
   </g>
   <g id="patch_131">
    <path clip-path="url(#pb05f181f6d)" d="M 673.167857 768.96 
L 675.160714 768.96 
L 675.160714 321.751927 
L 673.167857 321.751927 
z
" style="fill:#1f77b4;"/>
   </g>
   <g id="patch_132">
    <path clip-path="url(#pb05f181f6d)" d="M 677.153571 768.96 
L 679.146429 768.96 
L 679.146429 317.438312 
L 677.153571 317.438312 
z
" style="fill:#1f77b4;"/>
   </g>
   <g id="patch_133">
    <path clip-path="url(#pb05f181f6d)" d="M 681.139286 768.96 
L 683.132143 768.96 
L 683.132143 311.15343 
L 681.139286 311.15343 
z
" style="fill:#1f77b4;"/>
   </g>
   <g id="patch_134">
    <path clip-path="url(#pb05f181f6d)" d="M 685.125 768.96 
L 687.117857 768.96 
L 687.117857 307.745143 
L 685.125 307.745143 
z
" style="fill:#1f77b4;"/>
   </g>
   <g id="patch_135">
    <path clip-path="url(#pb05f181f6d)" d="M 689.110714 768.96 
L 691.103571 768.96 
L 691.103571 306.390557 
L 689.110714 306.390557 
z
" style="fill:#1f77b4;"/>
   </g>
   <g id="patch_136">
    <path clip-path="url(#pb05f181f6d)" d="M 693.096429 768.96 
L 695.089286 768.96 
L 695.089286 303.950744 
L 693.096429 303.950744 
z
" style="fill:#1f77b4;"/>
   </g>
   <g id="patch_137">
    <path clip-path="url(#pb05f181f6d)" d="M 697.082143 768.96 
L 699.075 768.96 
L 699.075 299.479925 
L 697.082143 299.479925 
z
" style="fill:#1f77b4;"/>
   </g>
   <g id="patch_138">
    <path clip-path="url(#pb05f181f6d)" d="M 701.067857 768.96 
L 703.060714 768.96 
L 703.060714 295.46211 
L 701.067857 295.46211 
z
" style="fill:#1f77b4;"/>
   </g>
   <g id="patch_139">
    <path clip-path="url(#pb05f181f6d)" d="M 705.053571 768.96 
L 707.046429 768.96 
L 707.046429 289.738556 
L 705.053571 289.738556 
z
" style="fill:#1f77b4;"/>
   </g>
   <g id="patch_140">
    <path clip-path="url(#pb05f181f6d)" d="M 709.039286 768.96 
L 711.032143 768.96 
L 711.032143 286.000192 
L 709.039286 286.000192 
z
" style="fill:#1f77b4;"/>
   </g>
   <g id="patch_141">
    <path clip-path="url(#pb05f181f6d)" d="M 713.025 768.96 
L 715.017857 768.96 
L 715.017857 283.088341 
L 713.025 283.088341 
z
" style="fill:#1f77b4;"/>
   </g>
   <g id="patch_142">
    <path clip-path="url(#pb05f181f6d)" d="M 717.010714 768.96 
L 719.003571 768.96 
L 719.003571 281.752319 
L 717.010714 281.752319 
z
" style="fill:#1f77b4;"/>
   </g>
   <g id="patch_143">
    <path clip-path="url(#pb05f181f6d)" d="M 720.996429 768.96 
L 722.989286 768.96 
L 722.989286 279.49875 
L 720.996429 279.49875 
z
" style="fill:#1f77b4;"/>
   </g>
   <g id="patch_144">
    <path clip-path="url(#pb05f181f6d)" d="M 724.982143 768.96 
L 726.975 768.96 
L 726.975 276.711529 
L 724.982143 276.711529 
z
" style="fill:#1f77b4;"/>
   </g>
   <g id="patch_145">
    <path clip-path="url(#pb05f181f6d)" d="M 728.967857 768.96 
L 730.960714 768.96 
L 730.960714 273.917965 
L 728.967857 273.917965 
z
" style="fill:#1f77b4;"/>
   </g>
   <g id="patch_146">
    <path clip-path="url(#pb05f181f6d)" d="M 732.953571 768.96 
L 734.946429 768.96 
L 734.946429 271.000834 
L 732.953571 271.000834 
z
" style="fill:#1f77b4;"/>
   </g>
   <g id="patch_147">
    <path clip-path="url(#pb05f181f6d)" d="M 736.939286 768.96 
L 738.932143 768.96 
L 738.932143 268.296431 
L 736.939286 268.296431 
z
" style="fill:#1f77b4;"/>
   </g>
   <g id="patch_148">
    <path clip-path="url(#pb05f181f6d)" d="M 740.925 768.96 
L 742.917857 768.96 
L 742.917857 266.450774 
L 740.925 266.450774 
z
" style="fill:#1f77b4;"/>
   </g>
   <g id="patch_149">
    <path clip-path="url(#pb05f181f6d)" d="M 744.910714 768.96 
L 746.903571 768.96 
L 746.903571 265.41958 
L 744.910714 265.41958 
z
" style="fill:#1f77b4;"/>
   </g>
   <g id="patch_150">
    <path clip-path="url(#pb05f181f6d)" d="M 748.896429 768.96 
L 750.889286 768.96 
L 750.889286 264.67482 
L 748.896429 264.67482 
z
" style="fill:#1f77b4;"/>
   </g>
   <g id="patch_151">
    <path clip-path="url(#pb05f181f6d)" d="M 752.882143 768.96 
L 754.875 768.96 
L 754.875 263.069057 
L 752.882143 263.069057 
z
" style="fill:#1f77b4;"/>
   </g>
   <g id="patch_152">
    <path clip-path="url(#pb05f181f6d)" d="M 756.867857 768.96 
L 758.860714 768.96 
L 758.860714 261.37592 
L 756.867857 261.37592 
z
" style="fill:#1f77b4;"/>
   </g>
   <g id="patch_153">
    <path clip-path="url(#pb05f181f6d)" d="M 760.853571 768.96 
L 762.846429 768.96 
L 762.846429 258.744371 
L 760.853571 258.744371 
z
" style="fill:#1f77b4;"/>
   </g>
   <g id="patch_154">
    <path clip-path="url(#pb05f181f6d)" d="M 764.839286 768.96 
L 766.832143 768.96 
L 766.832143 256.072584 
L 764.839286 256.072584 
z
" style="fill:#1f77b4;"/>
   </g>
   <g id="patch_155">
    <path clip-path="url(#pb05f181f6d)" d="M 768.825 768.96 
L 770.817857 768.96 
L 770.817857 253.822037 
L 768.825 253.822037 
z
" style="fill:#1f77b4;"/>
   </g>
   <g id="patch_156">
    <path clip-path="url(#pb05f181f6d)" d="M 772.810714 768.96 
L 774.803571 768.96 
L 774.803571 252.281847 
L 772.810714 252.281847 
z
" style="fill:#1f77b4;"/>
   </g>
   <g id="patch_157">
    <path clip-path="url(#pb05f181f6d)" d="M 776.796429 768.96 
L 778.789286 768.96 
L 778.789286 250.154781 
L 776.796429 250.154781 
z
" style="fill:#1f77b4;"/>
   </g>
   <g id="patch_158">
    <path clip-path="url(#pb05f181f6d)" d="M 780.782143 768.96 
L 782.775 768.96 
L 782.775 247.673538 
L 780.782143 247.673538 
z
" style="fill:#1f77b4;"/>
   </g>
   <g id="patch_159">
    <path clip-path="url(#pb05f181f6d)" d="M 784.767857 768.96 
L 786.760714 768.96 
L 786.760714 244.62258 
L 784.767857 244.62258 
z
" style="fill:#1f77b4;"/>
   </g>
   <g id="patch_160">
    <path clip-path="url(#pb05f181f6d)" d="M 788.753571 768.96 
L 790.746429 768.96 
L 790.746429 242.54167 
L 788.753571 242.54167 
z
" style="fill:#1f77b4;"/>
   </g>
   <g id="patch_161">
    <path clip-path="url(#pb05f181f6d)" d="M 792.739286 768.96 
L 794.732143 768.96 
L 794.732143 240.56457 
L 792.739286 240.56457 
z
" style="fill:#1f77b4;"/>
   </g>
   <g id="patch_162">
    <path clip-path="url(#pb05f181f6d)" d="M 796.725 768.96 
L 798.717857 768.96 
L 798.717857 239.39478 
L 796.725 239.39478 
z
" style="fill:#1f77b4;"/>
   </g>
   <g id="patch_163">
    <path clip-path="url(#pb05f181f6d)" d="M 800.710714 768.96 
L 802.703571 768.96 
L 802.703571 238.252453 
L 800.710714 238.252453 
z
" style="fill:#1f77b4;"/>
   </g>
   <g id="patch_164">
    <path clip-path="url(#pb05f181f6d)" d="M 804.696429 768.96 
L 806.689286 768.96 
L 806.689286 234.79801 
L 804.696429 234.79801 
z
" style="fill:#1f77b4;"/>
   </g>
   <g id="patch_165">
    <path clip-path="url(#pb05f181f6d)" d="M 808.682143 768.96 
L 810.675 768.96 
L 810.675 232.083133 
L 808.682143 232.083133 
z
" style="fill:#1f77b4;"/>
   </g>
   <g id="patch_166">
    <path clip-path="url(#pb05f181f6d)" d="M 812.667857 768.96 
L 814.660714 768.96 
L 814.660714 230.210863 
L 812.667857 230.210863 
z
" style="fill:#1f77b4;"/>
   </g>
   <g id="patch_167">
    <path clip-path="url(#pb05f181f6d)" d="M 816.653571 768.96 
L 818.646429 768.96 
L 818.646429 227.732303 
L 816.653571 227.732303 
z
" style="fill:#1f77b4;"/>
   </g>
   <g id="patch_168">
    <path clip-path="url(#pb05f181f6d)" d="M 820.639286 768.96 
L 822.632143 768.96 
L 822.632143 226.566302 
L 820.639286 226.566302 
z
" style="fill:#1f77b4;"/>
   </g>
   <g id="patch_169">
    <path clip-path="url(#pb05f181f6d)" d="M 824.625 768.96 
L 826.617857 768.96 
L 826.617857 224.707999 
L 824.625 224.707999 
z
" style="fill:#1f77b4;"/>
   </g>
   <g id="patch_170">
    <path clip-path="url(#pb05f181f6d)" d="M 828.610714 768.96 
L 830.603571 768.96 
L 830.603571 223.927514 
L 828.610714 223.927514 
z
" style="fill:#1f77b4;"/>
   </g>
   <g id="patch_171">
    <path clip-path="url(#pb05f181f6d)" d="M 832.596429 768.96 
L 834.589286 768.96 
L 834.589286 222.920804 
L 832.596429 222.920804 
z
" style="fill:#1f77b4;"/>
   </g>
   <g id="patch_172">
    <path clip-path="url(#pb05f181f6d)" d="M 836.582143 768.96 
L 838.575 768.96 
L 838.575 221.69153 
L 836.582143 221.69153 
z
" style="fill:#1f77b4;"/>
   </g>
   <g id="patch_173">
    <path clip-path="url(#pb05f181f6d)" d="M 840.567857 768.96 
L 842.560714 768.96 
L 842.560714 220.246037 
L 840.567857 220.246037 
z
" style="fill:#1f77b4;"/>
   </g>
   <g id="patch_174">
    <path clip-path="url(#pb05f181f6d)" d="M 844.553571 768.96 
L 846.546429 768.96 
L 846.546429 218.459012 
L 844.553571 218.459012 
z
" style="fill:#1f77b4;"/>
   </g>
   <g id="patch_175">
    <path clip-path="url(#pb05f181f6d)" d="M 848.539286 768.96 
L 850.532143 768.96 
L 850.532143 214.197983 
L 848.539286 214.197983 
z
" style="fill:#1f77b4;"/>
   </g>
   <g id="patch_176">
    <path clip-path="url(#pb05f181f6d)" d="M 852.525 768.96 
L 854.517857 768.96 
L 854.517857 209.294469 
L 852.525 209.294469 
z
" style="fill:#1f77b4;"/>
   </g>
   <g id="patch_177">
    <path clip-path="url(#pb05f181f6d)" d="M 856.510714 768.96 
L 858.503571 768.96 
L 858.503571 208.907591 
L 856.510714 208.907591 
z
" style="fill:#1f77b4;"/>
   </g>
   <g id="patch_178">
    <path clip-path="url(#pb05f181f6d)" d="M 860.496429 768.96 
L 862.489286 768.96 
L 862.489286 207.901604 
L 860.496429 207.901604 
z
" style="fill:#1f77b4;"/>
   </g>
   <g id="patch_179">
    <path clip-path="url(#pb05f181f6d)" d="M 864.482143 768.96 
L 866.475 768.96 
L 866.475 206.650955 
L 864.482143 206.650955 
z
" style="fill:#1f77b4;"/>
   </g>
   <g id="patch_180">
    <path clip-path="url(#pb05f181f6d)" d="M 868.467857 768.96 
L 870.460714 768.96 
L 870.460714 205.449358 
L 868.467857 205.449358 
z
" style="fill:#1f77b4;"/>
   </g>
   <g id="patch_181">
    <path clip-path="url(#pb05f181f6d)" d="M 872.453571 768.96 
L 874.446429 768.96 
L 874.446429 204.357957 
L 872.453571 204.357957 
z
" style="fill:#1f77b4;"/>
   </g>
   <g id="patch_182">
    <path clip-path="url(#pb05f181f6d)" d="M 876.439286 768.96 
L 878.432143 768.96 
L 878.432143 203.261914 
L 876.439286 203.261914 
z
" style="fill:#1f77b4;"/>
   </g>
   <g id="patch_183">
    <path clip-path="url(#pb05f181f6d)" d="M 880.425 768.96 
L 882.417857 768.96 
L 882.417857 202.462226 
L 880.425 202.462226 
z
" style="fill:#1f77b4;"/>
   </g>
   <g id="patch_184">
    <path clip-path="url(#pb05f181f6d)" d="M 884.410714 768.96 
L 886.403571 768.96 
L 886.403571 202.069216 
L 884.410714 202.069216 
z
" style="fill:#1f77b4;"/>
   </g>
   <g id="patch_185">
    <path clip-path="url(#pb05f181f6d)" d="M 888.396429 768.96 
L 890.389286 768.96 
L 890.389286 201.997214 
L 888.396429 201.997214 
z
" style="fill:#1f77b4;"/>
   </g>
   <g id="patch_186">
    <path clip-path="url(#pb05f181f6d)" d="M 892.382143 768.96 
L 894.375 768.96 
L 894.375 201.364395 
L 892.382143 201.364395 
z
" style="fill:#1f77b4;"/>
   </g>
   <g id="patch_187">
    <path clip-path="url(#pb05f181f6d)" d="M 896.367857 768.96 
L 898.360714 768.96 
L 898.360714 200.232714 
L 896.367857 200.232714 
z
" style="fill:#1f77b4;"/>
   </g>
   <g id="patch_188">
    <path clip-path="url(#pb05f181f6d)" d="M 900.353571 768.96 
L 902.346429 768.96 
L 902.346429 199.095284 
L 900.353571 199.095284 
z
" style="fill:#1f77b4;"/>
   </g>
   <g id="patch_189">
    <path clip-path="url(#pb05f181f6d)" d="M 904.339286 768.96 
L 906.332143 768.96 
L 906.332143 198.080952 
L 904.339286 198.080952 
z
" style="fill:#1f77b4;"/>
   </g>
   <g id="patch_190">
    <path clip-path="url(#pb05f181f6d)" d="M 908.325 768.96 
L 910.317857 768.96 
L 910.317857 197.250947 
L 908.325 197.250947 
z
" style="fill:#1f77b4;"/>
   </g>
   <g id="patch_191">
    <path clip-path="url(#pb05f181f6d)" d="M 912.310714 768.96 
L 914.303571 768.96 
L 914.303571 196.687746 
L 912.310714 196.687746 
z
" style="fill:#1f77b4;"/>
   </g>
   <g id="patch_192">
    <path clip-path="url(#pb05f181f6d)" d="M 916.296429 768.96 
L 918.289286 768.96 
L 918.289286 195.614016 
L 916.296429 195.614016 
z
" style="fill:#1f77b4;"/>
   </g>
   <g id="patch_193">
    <path clip-path="url(#pb05f181f6d)" d="M 920.282143 768.96 
L 922.275 768.96 
L 922.275 194.718012 
L 920.282143 194.718012 
z
" style="fill:#1f77b4;"/>
   </g>
   <g id="patch_194">
    <path clip-path="url(#pb05f181f6d)" d="M 924.267857 768.96 
L 926.260714 768.96 
L 926.260714 193.863865 
L 924.267857 193.863865 
z
" style="fill:#1f77b4;"/>
   </g>
   <g id="patch_195">
    <path clip-path="url(#pb05f181f6d)" d="M 928.253571 768.96 
L 930.246429 768.96 
L 930.246429 193.019851 
L 928.253571 193.019851 
z
" style="fill:#1f77b4;"/>
   </g>
   <g id="patch_196">
    <path clip-path="url(#pb05f181f6d)" d="M 932.239286 768.96 
L 934.232143 768.96 
L 934.232143 192.170601 
L 932.239286 192.170601 
z
" style="fill:#1f77b4;"/>
   </g>
   <g id="patch_197">
    <path clip-path="url(#pb05f181f6d)" d="M 936.225 768.96 
L 938.217857 768.96 
L 938.217857 191.471188 
L 936.225 191.471188 
z
" style="fill:#1f77b4;"/>
   </g>
   <g id="patch_198">
    <path clip-path="url(#pb05f181f6d)" d="M 940.210714 768.96 
L 942.203571 768.96 
L 942.203571 190.99553 
L 940.210714 190.99553 
z
" style="fill:#1f77b4;"/>
   </g>
   <g id="patch_199">
    <path clip-path="url(#pb05f181f6d)" d="M 944.196429 768.96 
L 946.189286 768.96 
L 946.189286 190.275211 
L 944.196429 190.275211 
z
" style="fill:#1f77b4;"/>
   </g>
   <g id="patch_200">
    <path clip-path="url(#pb05f181f6d)" d="M 948.182143 768.96 
L 950.175 768.96 
L 950.175 189.311421 
L 948.182143 189.311421 
z
" style="fill:#1f77b4;"/>
   </g>
   <g id="patch_201">
    <path clip-path="url(#pb05f181f6d)" d="M 952.167857 768.96 
L 954.160714 768.96 
L 954.160714 188.410095 
L 952.167857 188.410095 
z
" style="fill:#1f77b4;"/>
   </g>
   <g id="patch_202">
    <path clip-path="url(#pb05f181f6d)" d="M 956.153571 768.96 
L 958.146429 768.96 
L 958.146429 187.755433 
L 956.153571 187.755433 
z
" style="fill:#1f77b4;"/>
   </g>
   <g id="patch_203">
    <path clip-path="url(#pb05f181f6d)" d="M 960.139286 768.96 
L 962.132143 768.96 
L 962.132143 187.070667 
L 960.139286 187.070667 
z
" style="fill:#1f77b4;"/>
   </g>
   <g id="patch_204">
    <path clip-path="url(#pb05f181f6d)" d="M 964.125 768.96 
L 966.117857 768.96 
L 966.117857 186.655388 
L 964.125 186.655388 
z
" style="fill:#1f77b4;"/>
   </g>
   <g id="patch_205">
    <path clip-path="url(#pb05f181f6d)" d="M 968.110714 768.96 
L 970.103571 768.96 
L 970.103571 186.414771 
L 968.110714 186.414771 
z
" style="fill:#1f77b4;"/>
   </g>
   <g id="patch_206">
    <path clip-path="url(#pb05f181f6d)" d="M 972.096429 768.96 
L 974.089286 768.96 
L 974.089286 186.002387 
L 972.096429 186.002387 
z
" style="fill:#1f77b4;"/>
   </g>
   <g id="patch_207">
    <path clip-path="url(#pb05f181f6d)" d="M 976.082143 768.96 
L 978.075 768.96 
L 978.075 185.084881 
L 976.082143 185.084881 
z
" style="fill:#1f77b4;"/>
   </g>
   <g id="patch_208">
    <path clip-path="url(#pb05f181f6d)" d="M 980.067857 768.96 
L 982.060714 768.96 
L 982.060714 183.563511 
L 980.067857 183.563511 
z
" style="fill:#1f77b4;"/>
   </g>
   <g id="patch_209">
    <path clip-path="url(#pb05f181f6d)" d="M 984.053571 768.96 
L 986.046429 768.96 
L 986.046429 182.750665 
L 984.053571 182.750665 
z
" style="fill:#1f77b4;"/>
   </g>
   <g id="patch_210">
    <path clip-path="url(#pb05f181f6d)" d="M 988.039286 768.96 
L 990.032143 768.96 
L 990.032143 180.757896 
L 988.039286 180.757896 
z
" style="fill:#1f77b4;"/>
   </g>
   <g id="patch_211">
    <path clip-path="url(#pb05f181f6d)" d="M 992.025 768.96 
L 994.017857 768.96 
L 994.017857 180.134956 
L 992.025 180.134956 
z
" style="fill:#1f77b4;"/>
   </g>
   <g id="patch_212">
    <path clip-path="url(#pb05f181f6d)" d="M 996.010714 768.96 
L 998.003571 768.96 
L 998.003571 179.681185 
L 996.010714 179.681185 
z
" style="fill:#1f77b4;"/>
   </g>
   <g id="patch_213">
    <path clip-path="url(#pb05f181f6d)" d="M 999.996429 768.96 
L 1001.989286 768.96 
L 1001.989286 179.05867 
L 999.996429 179.05867 
z
" style="fill:#1f77b4;"/>
   </g>
   <g id="patch_214">
    <path clip-path="url(#pb05f181f6d)" d="M 1003.982143 768.96 
L 1005.975 768.96 
L 1005.975 178.210612 
L 1003.982143 178.210612 
z
" style="fill:#1f77b4;"/>
   </g>
   <g id="patch_215">
    <path clip-path="url(#pb05f181f6d)" d="M 1007.967857 768.96 
L 1009.960714 768.96 
L 1009.960714 177.435535 
L 1007.967857 177.435535 
z
" style="fill:#1f77b4;"/>
   </g>
   <g id="patch_216">
    <path clip-path="url(#pb05f181f6d)" d="M 1011.953571 768.96 
L 1013.946429 768.96 
L 1013.946429 176.618176 
L 1011.953571 176.618176 
z
" style="fill:#1f77b4;"/>
   </g>
   <g id="patch_217">
    <path clip-path="url(#pb05f181f6d)" d="M 1015.939286 768.96 
L 1017.932143 768.96 
L 1017.932143 175.723919 
L 1015.939286 175.723919 
z
" style="fill:#1f77b4;"/>
   </g>
   <g id="patch_218">
    <path clip-path="url(#pb05f181f6d)" d="M 1019.925 768.96 
L 1021.917857 768.96 
L 1021.917857 174.132973 
L 1019.925 174.132973 
z
" style="fill:#1f77b4;"/>
   </g>
   <g id="patch_219">
    <path clip-path="url(#pb05f181f6d)" d="M 1023.910714 768.96 
L 1025.903571 768.96 
L 1025.903571 173.61512 
L 1023.910714 173.61512 
z
" style="fill:#1f77b4;"/>
   </g>
   <g id="patch_220">
    <path clip-path="url(#pb05f181f6d)" d="M 1027.896429 768.96 
L 1029.889286 768.96 
L 1029.889286 173.011766 
L 1027.896429 173.011766 
z
" style="fill:#1f77b4;"/>
   </g>
   <g id="patch_221">
    <path clip-path="url(#pb05f181f6d)" d="M 1031.882143 768.96 
L 1033.875 768.96 
L 1033.875 172.423954 
L 1031.882143 172.423954 
z
" style="fill:#1f77b4;"/>
   </g>
   <g id="patch_222">
    <path clip-path="url(#pb05f181f6d)" d="M 1035.867857 768.96 
L 1037.860714 768.96 
L 1037.860714 170.040559 
L 1035.867857 170.040559 
z
" style="fill:#1f77b4;"/>
   </g>
   <g id="patch_223">
    <path clip-path="url(#pb05f181f6d)" d="M 1039.853571 768.96 
L 1041.846429 768.96 
L 1041.846429 167.97434 
L 1039.853571 167.97434 
z
" style="fill:#1f77b4;"/>
   </g>
   <g id="patch_224">
    <path clip-path="url(#pb05f181f6d)" d="M 1043.839286 768.96 
L 1045.832143 768.96 
L 1045.832143 166.329446 
L 1043.839286 166.329446 
z
" style="fill:#1f77b4;"/>
   </g>
   <g id="patch_225">
    <path clip-path="url(#pb05f181f6d)" d="M 1047.825 768.96 
L 1049.817857 768.96 
L 1049.817857 163.940984 
L 1047.825 163.940984 
z
" style="fill:#1f77b4;"/>
   </g>
   <g id="patch_226">
    <path clip-path="url(#pb05f181f6d)" d="M 1051.810714 768.96 
L 1053.803571 768.96 
L 1053.803571 162.325002 
L 1051.810714 162.325002 
z
" style="fill:#1f77b4;"/>
   </g>
   <g id="patch_227">
    <path clip-path="url(#pb05f181f6d)" d="M 1055.796429 768.96 
L 1057.789286 768.96 
L 1057.789286 161.610686 
L 1055.796429 161.610686 
z
" style="fill:#1f77b4;"/>
   </g>
   <g id="patch_228">
    <path clip-path="url(#pb05f181f6d)" d="M 1059.782143 768.96 
L 1061.775 768.96 
L 1061.775 160.589456 
L 1059.782143 160.589456 
z
" style="fill:#1f77b4;"/>
   </g>
   <g id="patch_229">
    <path clip-path="url(#pb05f181f6d)" d="M 1063.767857 768.96 
L 1065.760714 768.96 
L 1065.760714 159.623281 
L 1063.767857 159.623281 
z
" style="fill:#1f77b4;"/>
   </g>
   <g id="patch_230">
    <path clip-path="url(#pb05f181f6d)" d="M 1067.753571 768.96 
L 1069.746429 768.96 
L 1069.746429 158.695556 
L 1067.753571 158.695556 
z
" style="fill:#1f77b4;"/>
   </g>
   <g id="patch_231">
    <path clip-path="url(#pb05f181f6d)" d="M 1071.739286 768.96 
L 1073.732143 768.96 
L 1073.732143 157.796274 
L 1071.739286 157.796274 
z
" style="fill:#1f77b4;"/>
   </g>
   <g id="patch_232">
    <path clip-path="url(#pb05f181f6d)" d="M 1075.725 768.96 
L 1077.717857 768.96 
L 1077.717857 156.912236 
L 1075.725 156.912236 
z
" style="fill:#1f77b4;"/>
   </g>
   <g id="patch_233">
    <path clip-path="url(#pb05f181f6d)" d="M 1079.710714 768.96 
L 1081.703571 768.96 
L 1081.703571 156.329448 
L 1079.710714 156.329448 
z
" style="fill:#1f77b4;"/>
   </g>
   <g id="patch_234">
    <path clip-path="url(#pb05f181f6d)" d="M 1083.696429 768.96 
L 1085.689286 768.96 
L 1085.689286 155.584901 
L 1083.696429 155.584901 
z
" style="fill:#1f77b4;"/>
   </g>
   <g id="patch_235">
    <path clip-path="url(#pb05f181f6d)" d="M 1087.682143 768.96 
L 1089.675 768.96 
L 1089.675 154.554005 
L 1087.682143 154.554005 
z
" style="fill:#1f77b4;"/>
   </g>
   <g id="patch_236">
    <path clip-path="url(#pb05f181f6d)" d="M 1091.667857 768.96 
L 1093.660714 768.96 
L 1093.660714 153.567435 
L 1091.667857 153.567435 
z
" style="fill:#1f77b4;"/>
   </g>
   <g id="patch_237">
    <path clip-path="url(#pb05f181f6d)" d="M 1095.653571 768.96 
L 1097.646429 768.96 
L 1097.646429 148.974498 
L 1095.653571 148.974498 
z
" style="fill:#1f77b4;"/>
   </g>
   <g id="patch_238">
    <path clip-path="url(#pb05f181f6d)" d="M 1099.639286 768.96 
L 1101.632143 768.96 
L 1101.632143 147.952033 
L 1099.639286 147.952033 
z
" style="fill:#1f77b4;"/>
   </g>
   <g id="patch_239">
    <path clip-path="url(#pb05f181f6d)" d="M 1103.625 768.96 
L 1105.617857 768.96 
L 1105.617857 146.962269 
L 1103.625 146.962269 
z
" style="fill:#1f77b4;"/>
   </g>
   <g id="patch_240">
    <path clip-path="url(#pb05f181f6d)" d="M 1107.610714 768.96 
L 1109.603571 768.96 
L 1109.603571 146.264346 
L 1107.610714 146.264346 
z
" style="fill:#1f77b4;"/>
   </g>
   <g id="patch_241">
    <path clip-path="url(#pb05f181f6d)" d="M 1111.596429 768.96 
L 1113.589286 768.96 
L 1113.589286 145.439025 
L 1111.596429 145.439025 
z
" style="fill:#1f77b4;"/>
   </g>
   <g id="patch_242">
    <path clip-path="url(#pb05f181f6d)" d="M 1115.582143 768.96 
L 1117.575 768.96 
L 1117.575 144.39906 
L 1115.582143 144.39906 
z
" style="fill:#1f77b4;"/>
   </g>
   <g id="patch_243">
    <path clip-path="url(#pb05f181f6d)" d="M 1119.567857 768.96 
L 1121.560714 768.96 
L 1121.560714 143.434291 
L 1119.567857 143.434291 
z
" style="fill:#1f77b4;"/>
   </g>
   <g id="patch_244">
    <path clip-path="url(#pb05f181f6d)" d="M 1123.553571 768.96 
L 1125.546429 768.96 
L 1125.546429 142.529857 
L 1123.553571 142.529857 
z
" style="fill:#1f77b4;"/>
   </g>
   <g id="patch_245">
    <path clip-path="url(#pb05f181f6d)" d="M 1127.539286 768.96 
L 1129.532143 768.96 
L 1129.532143 141.632789 
L 1127.539286 141.632789 
z
" style="fill:#1f77b4;"/>
   </g>
   <g id="patch_246">
    <path clip-path="url(#pb05f181f6d)" d="M 1131.525 768.96 
L 1133.517857 768.96 
L 1133.517857 140.835358 
L 1131.525 140.835358 
z
" style="fill:#1f77b4;"/>
   </g>
   <g id="patch_247">
    <path clip-path="url(#pb05f181f6d)" d="M 1135.510714 768.96 
L 1137.503571 768.96 
L 1137.503571 140.299153 
L 1135.510714 140.299153 
z
" style="fill:#1f77b4;"/>
   </g>
   <g id="patch_248">
    <path clip-path="url(#pb05f181f6d)" d="M 1139.496429 768.96 
L 1141.489286 768.96 
L 1141.489286 139.920918 
L 1139.496429 139.920918 
z
" style="fill:#1f77b4;"/>
   </g>
   <g id="patch_249">
    <path clip-path="url(#pb05f181f6d)" d="M 1143.482143 768.96 
L 1145.475 768.96 
L 1145.475 139.42116 
L 1143.482143 139.42116 
z
" style="fill:#1f77b4;"/>
   </g>
   <g id="patch_250">
    <path clip-path="url(#pb05f181f6d)" d="M 1147.467857 768.96 
L 1149.460714 768.96 
L 1149.460714 138.4156 
L 1147.467857 138.4156 
z
" style="fill:#1f77b4;"/>
   </g>
   <g id="patch_251">
    <path clip-path="url(#pb05f181f6d)" d="M 1151.453571 768.96 
L 1153.446429 768.96 
L 1153.446429 137.512699 
L 1151.453571 137.512699 
z
" style="fill:#1f77b4;"/>
   </g>
   <g id="patch_252">
    <path clip-path="url(#pb05f181f6d)" d="M 1155.439286 768.96 
L 1157.432143 768.96 
L 1157.432143 136.652803 
L 1155.439286 136.652803 
z
" style="fill:#1f77b4;"/>
   </g>
   <g id="patch_253">
    <path clip-path="url(#pb05f181f6d)" d="M 1159.425 768.96 
L 1161.417857 768.96 
L 1161.417857 135.907744 
L 1159.425 135.907744 
z
" style="fill:#1f77b4;"/>
   </g>
   <g id="patch_254">
    <path clip-path="url(#pb05f181f6d)" d="M 1163.410714 768.96 
L 1165.403571 768.96 
L 1165.403571 135.36 
L 1163.410714 135.36 
z
" style="fill:#1f77b4;"/>
   </g>
   <g id="matplotlib.axis_1">
    <g id="xtick_1">
     <g id="line2d_1">
      <defs>
       <path d="M 0 0 
L 0 3.5 
" id="m3e47c1f80e" style="stroke:#000000;stroke-width:0.8;"/>
      </defs>
      <g>
       <use style="stroke:#000000;stroke-width:0.8;" x="163.992857" xlink:href="#m3e47c1f80e" y="768.96"/>
      </g>
     </g>
     <g id="text_1">
      <!-- January -->
      <g transform="translate(145.037388 783.558437)scale(0.1 -0.1)">
       <defs>
        <path d="M 628 4666 
L 1259 4666 
L 1259 325 
Q 1259 -519 939 -900 
Q 619 -1281 -91 -1281 
L -331 -1281 
L -331 -750 
L -134 -750 
Q 284 -750 456 -515 
Q 628 -281 628 325 
L 628 4666 
z
" id="DejaVuSans-4a" transform="scale(0.015625)"/>
        <path d="M 2194 1759 
Q 1497 1759 1228 1600 
Q 959 1441 959 1056 
Q 959 750 1161 570 
Q 1363 391 1709 391 
Q 2188 391 2477 730 
Q 2766 1069 2766 1631 
L 2766 1759 
L 2194 1759 
z
M 3341 1997 
L 3341 0 
L 2766 0 
L 2766 531 
Q 2569 213 2275 61 
Q 1981 -91 1556 -91 
Q 1019 -91 701 211 
Q 384 513 384 1019 
Q 384 1609 779 1909 
Q 1175 2209 1959 2209 
L 2766 2209 
L 2766 2266 
Q 2766 2663 2505 2880 
Q 2244 3097 1772 3097 
Q 1472 3097 1187 3025 
Q 903 2953 641 2809 
L 641 3341 
Q 956 3463 1253 3523 
Q 1550 3584 1831 3584 
Q 2591 3584 2966 3190 
Q 3341 2797 3341 1997 
z
" id="DejaVuSans-61" transform="scale(0.015625)"/>
        <path d="M 3513 2113 
L 3513 0 
L 2938 0 
L 2938 2094 
Q 2938 2591 2744 2837 
Q 2550 3084 2163 3084 
Q 1697 3084 1428 2787 
Q 1159 2491 1159 1978 
L 1159 0 
L 581 0 
L 581 3500 
L 1159 3500 
L 1159 2956 
Q 1366 3272 1645 3428 
Q 1925 3584 2291 3584 
Q 2894 3584 3203 3211 
Q 3513 2838 3513 2113 
z
" id="DejaVuSans-6e" transform="scale(0.015625)"/>
        <path d="M 544 1381 
L 544 3500 
L 1119 3500 
L 1119 1403 
Q 1119 906 1312 657 
Q 1506 409 1894 409 
Q 2359 409 2629 706 
Q 2900 1003 2900 1516 
L 2900 3500 
L 3475 3500 
L 3475 0 
L 2900 0 
L 2900 538 
Q 2691 219 2414 64 
Q 2138 -91 1772 -91 
Q 1169 -91 856 284 
Q 544 659 544 1381 
z
M 1991 3584 
L 1991 3584 
z
" id="DejaVuSans-75" transform="scale(0.015625)"/>
        <path d="M 2631 2963 
Q 2534 3019 2420 3045 
Q 2306 3072 2169 3072 
Q 1681 3072 1420 2755 
Q 1159 2438 1159 1844 
L 1159 0 
L 581 0 
L 581 3500 
L 1159 3500 
L 1159 2956 
Q 1341 3275 1631 3429 
Q 1922 3584 2338 3584 
Q 2397 3584 2469 3576 
Q 2541 3569 2628 3553 
L 2631 2963 
z
" id="DejaVuSans-72" transform="scale(0.015625)"/>
        <path d="M 2059 -325 
Q 1816 -950 1584 -1140 
Q 1353 -1331 966 -1331 
L 506 -1331 
L 506 -850 
L 844 -850 
Q 1081 -850 1212 -737 
Q 1344 -625 1503 -206 
L 1606 56 
L 191 3500 
L 800 3500 
L 1894 763 
L 2988 3500 
L 3597 3500 
L 2059 -325 
z
" id="DejaVuSans-79" transform="scale(0.015625)"/>
       </defs>
       <use xlink:href="#DejaVuSans-4a"/>
       <use x="29.492188" xlink:href="#DejaVuSans-61"/>
       <use x="90.771484" xlink:href="#DejaVuSans-6e"/>
       <use x="154.150391" xlink:href="#DejaVuSans-75"/>
       <use x="217.529297" xlink:href="#DejaVuSans-61"/>
       <use x="278.808594" xlink:href="#DejaVuSans-72"/>
       <use x="319.921875" xlink:href="#DejaVuSans-79"/>
      </g>
     </g>
    </g>
    <g id="xtick_2">
     <g id="line2d_2">
      <g>
       <use style="stroke:#000000;stroke-width:0.8;" x="287.55" xlink:href="#m3e47c1f80e" y="768.96"/>
      </g>
     </g>
     <g id="text_2">
      <!-- February -->
      <g transform="translate(265.395312 783.558437)scale(0.1 -0.1)">
       <defs>
        <path d="M 628 4666 
L 3309 4666 
L 3309 4134 
L 1259 4134 
L 1259 2759 
L 3109 2759 
L 3109 2228 
L 1259 2228 
L 1259 0 
L 628 0 
L 628 4666 
z
" id="DejaVuSans-46" transform="scale(0.015625)"/>
        <path d="M 3597 1894 
L 3597 1613 
L 953 1613 
Q 991 1019 1311 708 
Q 1631 397 2203 397 
Q 2534 397 2845 478 
Q 3156 559 3463 722 
L 3463 178 
Q 3153 47 2828 -22 
Q 2503 -91 2169 -91 
Q 1331 -91 842 396 
Q 353 884 353 1716 
Q 353 2575 817 3079 
Q 1281 3584 2069 3584 
Q 2775 3584 3186 3129 
Q 3597 2675 3597 1894 
z
M 3022 2063 
Q 3016 2534 2758 2815 
Q 2500 3097 2075 3097 
Q 1594 3097 1305 2825 
Q 1016 2553 972 2059 
L 3022 2063 
z
" id="DejaVuSans-65" transform="scale(0.015625)"/>
        <path d="M 3116 1747 
Q 3116 2381 2855 2742 
Q 2594 3103 2138 3103 
Q 1681 3103 1420 2742 
Q 1159 2381 1159 1747 
Q 1159 1113 1420 752 
Q 1681 391 2138 391 
Q 2594 391 2855 752 
Q 3116 1113 3116 1747 
z
M 1159 2969 
Q 1341 3281 1617 3432 
Q 1894 3584 2278 3584 
Q 2916 3584 3314 3078 
Q 3713 2572 3713 1747 
Q 3713 922 3314 415 
Q 2916 -91 2278 -91 
Q 1894 -91 1617 61 
Q 1341 213 1159 525 
L 1159 0 
L 581 0 
L 581 4863 
L 1159 4863 
L 1159 2969 
z
" id="DejaVuSans-62" transform="scale(0.015625)"/>
       </defs>
       <use xlink:href="#DejaVuSans-46"/>
       <use x="52.019531" xlink:href="#DejaVuSans-65"/>
       <use x="113.542969" xlink:href="#DejaVuSans-62"/>
       <use x="177.019531" xlink:href="#DejaVuSans-72"/>
       <use x="218.132812" xlink:href="#DejaVuSans-75"/>
       <use x="281.511719" xlink:href="#DejaVuSans-61"/>
       <use x="342.791016" xlink:href="#DejaVuSans-72"/>
       <use x="383.904297" xlink:href="#DejaVuSans-79"/>
      </g>
     </g>
    </g>
    <g id="xtick_3">
     <g id="line2d_3">
      <g>
       <use style="stroke:#000000;stroke-width:0.8;" x="399.15" xlink:href="#m3e47c1f80e" y="768.96"/>
      </g>
     </g>
     <g id="text_3">
      <!-- March -->
      <g transform="translate(383.910937 783.558437)scale(0.1 -0.1)">
       <defs>
        <path d="M 628 4666 
L 1569 4666 
L 2759 1491 
L 3956 4666 
L 4897 4666 
L 4897 0 
L 4281 0 
L 4281 4097 
L 3078 897 
L 2444 897 
L 1241 4097 
L 1241 0 
L 628 0 
L 628 4666 
z
" id="DejaVuSans-4d" transform="scale(0.015625)"/>
        <path d="M 3122 3366 
L 3122 2828 
Q 2878 2963 2633 3030 
Q 2388 3097 2138 3097 
Q 1578 3097 1268 2742 
Q 959 2388 959 1747 
Q 959 1106 1268 751 
Q 1578 397 2138 397 
Q 2388 397 2633 464 
Q 2878 531 3122 666 
L 3122 134 
Q 2881 22 2623 -34 
Q 2366 -91 2075 -91 
Q 1284 -91 818 406 
Q 353 903 353 1747 
Q 353 2603 823 3093 
Q 1294 3584 2113 3584 
Q 2378 3584 2631 3529 
Q 2884 3475 3122 3366 
z
" id="DejaVuSans-63" transform="scale(0.015625)"/>
        <path d="M 3513 2113 
L 3513 0 
L 2938 0 
L 2938 2094 
Q 2938 2591 2744 2837 
Q 2550 3084 2163 3084 
Q 1697 3084 1428 2787 
Q 1159 2491 1159 1978 
L 1159 0 
L 581 0 
L 581 4863 
L 1159 4863 
L 1159 2956 
Q 1366 3272 1645 3428 
Q 1925 3584 2291 3584 
Q 2894 3584 3203 3211 
Q 3513 2838 3513 2113 
z
" id="DejaVuSans-68" transform="scale(0.015625)"/>
       </defs>
       <use xlink:href="#DejaVuSans-4d"/>
       <use x="86.279297" xlink:href="#DejaVuSans-61"/>
       <use x="147.558594" xlink:href="#DejaVuSans-72"/>
       <use x="186.421875" xlink:href="#DejaVuSans-63"/>
       <use x="241.402344" xlink:href="#DejaVuSans-68"/>
      </g>
     </g>
    </g>
    <g id="xtick_4">
     <g id="line2d_4">
      <g>
       <use style="stroke:#000000;stroke-width:0.8;" x="522.707143" xlink:href="#m3e47c1f80e" y="768.96"/>
      </g>
     </g>
     <g id="text_4">
      <!-- April -->
      <g transform="translate(511.279018 783.558437)scale(0.1 -0.1)">
       <defs>
        <path d="M 2188 4044 
L 1331 1722 
L 3047 1722 
L 2188 4044 
z
M 1831 4666 
L 2547 4666 
L 4325 0 
L 3669 0 
L 3244 1197 
L 1141 1197 
L 716 0 
L 50 0 
L 1831 4666 
z
" id="DejaVuSans-41" transform="scale(0.015625)"/>
        <path d="M 1159 525 
L 1159 -1331 
L 581 -1331 
L 581 3500 
L 1159 3500 
L 1159 2969 
Q 1341 3281 1617 3432 
Q 1894 3584 2278 3584 
Q 2916 3584 3314 3078 
Q 3713 2572 3713 1747 
Q 3713 922 3314 415 
Q 2916 -91 2278 -91 
Q 1894 -91 1617 61 
Q 1341 213 1159 525 
z
M 3116 1747 
Q 3116 2381 2855 2742 
Q 2594 3103 2138 3103 
Q 1681 3103 1420 2742 
Q 1159 2381 1159 1747 
Q 1159 1113 1420 752 
Q 1681 391 2138 391 
Q 2594 391 2855 752 
Q 3116 1113 3116 1747 
z
" id="DejaVuSans-70" transform="scale(0.015625)"/>
        <path d="M 603 3500 
L 1178 3500 
L 1178 0 
L 603 0 
L 603 3500 
z
M 603 4863 
L 1178 4863 
L 1178 4134 
L 603 4134 
L 603 4863 
z
" id="DejaVuSans-69" transform="scale(0.015625)"/>
        <path d="M 603 4863 
L 1178 4863 
L 1178 0 
L 603 0 
L 603 4863 
z
" id="DejaVuSans-6c" transform="scale(0.015625)"/>
       </defs>
       <use xlink:href="#DejaVuSans-41"/>
       <use x="68.408203" xlink:href="#DejaVuSans-70"/>
       <use x="131.884766" xlink:href="#DejaVuSans-72"/>
       <use x="172.998047" xlink:href="#DejaVuSans-69"/>
       <use x="200.78125" xlink:href="#DejaVuSans-6c"/>
      </g>
     </g>
    </g>
    <g id="xtick_5">
     <g id="line2d_5">
      <g>
       <use style="stroke:#000000;stroke-width:0.8;" x="642.278571" xlink:href="#m3e47c1f80e" y="768.96"/>
      </g>
     </g>
     <g id="text_5">
      <!-- May -->
      <g transform="translate(631.941071 783.558437)scale(0.1 -0.1)">
       <use xlink:href="#DejaVuSans-4d"/>
       <use x="86.279297" xlink:href="#DejaVuSans-61"/>
       <use x="147.558594" xlink:href="#DejaVuSans-79"/>
      </g>
     </g>
    </g>
    <g id="xtick_6">
     <g id="line2d_6">
      <g>
       <use style="stroke:#000000;stroke-width:0.8;" x="765.835714" xlink:href="#m3e47c1f80e" y="768.96"/>
      </g>
     </g>
     <g id="text_6">
      <!-- June -->
      <g transform="translate(754.946652 783.558437)scale(0.1 -0.1)">
       <use xlink:href="#DejaVuSans-4a"/>
       <use x="29.492188" xlink:href="#DejaVuSans-75"/>
       <use x="92.871094" xlink:href="#DejaVuSans-6e"/>
       <use x="156.25" xlink:href="#DejaVuSans-65"/>
      </g>
     </g>
    </g>
    <g id="xtick_7">
     <g id="line2d_7">
      <g>
       <use style="stroke:#000000;stroke-width:0.8;" x="885.407143" xlink:href="#m3e47c1f80e" y="768.96"/>
      </g>
     </g>
     <g id="text_7">
      <!-- July -->
      <g transform="translate(876.414955 783.558437)scale(0.1 -0.1)">
       <use xlink:href="#DejaVuSans-4a"/>
       <use x="29.492188" xlink:href="#DejaVuSans-75"/>
       <use x="92.871094" xlink:href="#DejaVuSans-6c"/>
       <use x="120.654297" xlink:href="#DejaVuSans-79"/>
      </g>
     </g>
    </g>
    <g id="xtick_8">
     <g id="line2d_8">
      <g>
       <use style="stroke:#000000;stroke-width:0.8;" x="1008.964286" xlink:href="#m3e47c1f80e" y="768.96"/>
      </g>
     </g>
     <g id="text_8">
      <!-- August -->
      <g transform="translate(991.467411 783.558437)scale(0.1 -0.1)">
       <defs>
        <path d="M 2906 1791 
Q 2906 2416 2648 2759 
Q 2391 3103 1925 3103 
Q 1463 3103 1205 2759 
Q 947 2416 947 1791 
Q 947 1169 1205 825 
Q 1463 481 1925 481 
Q 2391 481 2648 825 
Q 2906 1169 2906 1791 
z
M 3481 434 
Q 3481 -459 3084 -895 
Q 2688 -1331 1869 -1331 
Q 1566 -1331 1297 -1286 
Q 1028 -1241 775 -1147 
L 775 -588 
Q 1028 -725 1275 -790 
Q 1522 -856 1778 -856 
Q 2344 -856 2625 -561 
Q 2906 -266 2906 331 
L 2906 616 
Q 2728 306 2450 153 
Q 2172 0 1784 0 
Q 1141 0 747 490 
Q 353 981 353 1791 
Q 353 2603 747 3093 
Q 1141 3584 1784 3584 
Q 2172 3584 2450 3431 
Q 2728 3278 2906 2969 
L 2906 3500 
L 3481 3500 
L 3481 434 
z
" id="DejaVuSans-67" transform="scale(0.015625)"/>
        <path d="M 2834 3397 
L 2834 2853 
Q 2591 2978 2328 3040 
Q 2066 3103 1784 3103 
Q 1356 3103 1142 2972 
Q 928 2841 928 2578 
Q 928 2378 1081 2264 
Q 1234 2150 1697 2047 
L 1894 2003 
Q 2506 1872 2764 1633 
Q 3022 1394 3022 966 
Q 3022 478 2636 193 
Q 2250 -91 1575 -91 
Q 1294 -91 989 -36 
Q 684 19 347 128 
L 347 722 
Q 666 556 975 473 
Q 1284 391 1588 391 
Q 1994 391 2212 530 
Q 2431 669 2431 922 
Q 2431 1156 2273 1281 
Q 2116 1406 1581 1522 
L 1381 1569 
Q 847 1681 609 1914 
Q 372 2147 372 2553 
Q 372 3047 722 3315 
Q 1072 3584 1716 3584 
Q 2034 3584 2315 3537 
Q 2597 3491 2834 3397 
z
" id="DejaVuSans-73" transform="scale(0.015625)"/>
        <path d="M 1172 4494 
L 1172 3500 
L 2356 3500 
L 2356 3053 
L 1172 3053 
L 1172 1153 
Q 1172 725 1289 603 
Q 1406 481 1766 481 
L 2356 481 
L 2356 0 
L 1766 0 
Q 1100 0 847 248 
Q 594 497 594 1153 
L 594 3053 
L 172 3053 
L 172 3500 
L 594 3500 
L 594 4494 
L 1172 4494 
z
" id="DejaVuSans-74" transform="scale(0.015625)"/>
       </defs>
       <use xlink:href="#DejaVuSans-41"/>
       <use x="68.408203" xlink:href="#DejaVuSans-75"/>
       <use x="131.787109" xlink:href="#DejaVuSans-67"/>
       <use x="195.263672" xlink:href="#DejaVuSans-75"/>
       <use x="258.642578" xlink:href="#DejaVuSans-73"/>
       <use x="310.742188" xlink:href="#DejaVuSans-74"/>
      </g>
     </g>
    </g>
    <g id="xtick_9">
     <g id="line2d_9">
      <g>
       <use style="stroke:#000000;stroke-width:0.8;" x="1132.521429" xlink:href="#m3e47c1f80e" y="768.96"/>
      </g>
     </g>
     <g id="text_9">
      <!-- September -->
      <g transform="translate(1104.883147 783.558437)scale(0.1 -0.1)">
       <defs>
        <path d="M 3425 4513 
L 3425 3897 
Q 3066 4069 2747 4153 
Q 2428 4238 2131 4238 
Q 1616 4238 1336 4038 
Q 1056 3838 1056 3469 
Q 1056 3159 1242 3001 
Q 1428 2844 1947 2747 
L 2328 2669 
Q 3034 2534 3370 2195 
Q 3706 1856 3706 1288 
Q 3706 609 3251 259 
Q 2797 -91 1919 -91 
Q 1588 -91 1214 -16 
Q 841 59 441 206 
L 441 856 
Q 825 641 1194 531 
Q 1563 422 1919 422 
Q 2459 422 2753 634 
Q 3047 847 3047 1241 
Q 3047 1584 2836 1778 
Q 2625 1972 2144 2069 
L 1759 2144 
Q 1053 2284 737 2584 
Q 422 2884 422 3419 
Q 422 4038 858 4394 
Q 1294 4750 2059 4750 
Q 2388 4750 2728 4690 
Q 3069 4631 3425 4513 
z
" id="DejaVuSans-53" transform="scale(0.015625)"/>
        <path d="M 3328 2828 
Q 3544 3216 3844 3400 
Q 4144 3584 4550 3584 
Q 5097 3584 5394 3201 
Q 5691 2819 5691 2113 
L 5691 0 
L 5113 0 
L 5113 2094 
Q 5113 2597 4934 2840 
Q 4756 3084 4391 3084 
Q 3944 3084 3684 2787 
Q 3425 2491 3425 1978 
L 3425 0 
L 2847 0 
L 2847 2094 
Q 2847 2600 2669 2842 
Q 2491 3084 2119 3084 
Q 1678 3084 1418 2786 
Q 1159 2488 1159 1978 
L 1159 0 
L 581 0 
L 581 3500 
L 1159 3500 
L 1159 2956 
Q 1356 3278 1631 3431 
Q 1906 3584 2284 3584 
Q 2666 3584 2933 3390 
Q 3200 3197 3328 2828 
z
" id="DejaVuSans-6d" transform="scale(0.015625)"/>
       </defs>
       <use xlink:href="#DejaVuSans-53"/>
       <use x="63.476562" xlink:href="#DejaVuSans-65"/>
       <use x="125" xlink:href="#DejaVuSans-70"/>
       <use x="188.476562" xlink:href="#DejaVuSans-74"/>
       <use x="227.685547" xlink:href="#DejaVuSans-65"/>
       <use x="289.208984" xlink:href="#DejaVuSans-6d"/>
       <use x="386.621094" xlink:href="#DejaVuSans-62"/>
       <use x="450.097656" xlink:href="#DejaVuSans-65"/>
       <use x="511.621094" xlink:href="#DejaVuSans-72"/>
      </g>
     </g>
    </g>
   </g>
   <g id="matplotlib.axis_2">
    <g id="ytick_1">
     <g id="line2d_10">
      <defs>
       <path d="M 0 0 
L -3.5 0 
" id="m290dc428d5" style="stroke:#000000;stroke-width:0.8;"/>
      </defs>
      <g>
       <use style="stroke:#000000;stroke-width:0.8;" x="162" xlink:href="#m290dc428d5" y="768.96"/>
      </g>
     </g>
     <g id="text_10">
      <!-- 0.0 -->
      <g transform="translate(139.096875 772.759219)scale(0.1 -0.1)">
       <defs>
        <path d="M 2034 4250 
Q 1547 4250 1301 3770 
Q 1056 3291 1056 2328 
Q 1056 1369 1301 889 
Q 1547 409 2034 409 
Q 2525 409 2770 889 
Q 3016 1369 3016 2328 
Q 3016 3291 2770 3770 
Q 2525 4250 2034 4250 
z
M 2034 4750 
Q 2819 4750 3233 4129 
Q 3647 3509 3647 2328 
Q 3647 1150 3233 529 
Q 2819 -91 2034 -91 
Q 1250 -91 836 529 
Q 422 1150 422 2328 
Q 422 3509 836 4129 
Q 1250 4750 2034 4750 
z
" id="DejaVuSans-30" transform="scale(0.015625)"/>
        <path d="M 684 794 
L 1344 794 
L 1344 0 
L 684 0 
L 684 794 
z
" id="DejaVuSans-2e" transform="scale(0.015625)"/>
       </defs>
       <use xlink:href="#DejaVuSans-30"/>
       <use x="63.623047" xlink:href="#DejaVuSans-2e"/>
       <use x="95.410156" xlink:href="#DejaVuSans-30"/>
      </g>
     </g>
    </g>
    <g id="ytick_2">
     <g id="line2d_11">
      <g>
       <use style="stroke:#000000;stroke-width:0.8;" x="162" xlink:href="#m290dc428d5" y="683.80073"/>
      </g>
     </g>
     <g id="text_11">
      <!-- 0.2 -->
      <g transform="translate(139.096875 687.599949)scale(0.1 -0.1)">
       <defs>
        <path d="M 1228 531 
L 3431 531 
L 3431 0 
L 469 0 
L 469 531 
Q 828 903 1448 1529 
Q 2069 2156 2228 2338 
Q 2531 2678 2651 2914 
Q 2772 3150 2772 3378 
Q 2772 3750 2511 3984 
Q 2250 4219 1831 4219 
Q 1534 4219 1204 4116 
Q 875 4013 500 3803 
L 500 4441 
Q 881 4594 1212 4672 
Q 1544 4750 1819 4750 
Q 2544 4750 2975 4387 
Q 3406 4025 3406 3419 
Q 3406 3131 3298 2873 
Q 3191 2616 2906 2266 
Q 2828 2175 2409 1742 
Q 1991 1309 1228 531 
z
" id="DejaVuSans-32" transform="scale(0.015625)"/>
       </defs>
       <use xlink:href="#DejaVuSans-30"/>
       <use x="63.623047" xlink:href="#DejaVuSans-2e"/>
       <use x="95.410156" xlink:href="#DejaVuSans-32"/>
      </g>
     </g>
    </g>
    <g id="ytick_3">
     <g id="line2d_12">
      <g>
       <use style="stroke:#000000;stroke-width:0.8;" x="162" xlink:href="#m290dc428d5" y="598.64146"/>
      </g>
     </g>
     <g id="text_12">
      <!-- 0.4 -->
      <g transform="translate(139.096875 602.440679)scale(0.1 -0.1)">
       <defs>
        <path d="M 2419 4116 
L 825 1625 
L 2419 1625 
L 2419 4116 
z
M 2253 4666 
L 3047 4666 
L 3047 1625 
L 3713 1625 
L 3713 1100 
L 3047 1100 
L 3047 0 
L 2419 0 
L 2419 1100 
L 313 1100 
L 313 1709 
L 2253 4666 
z
" id="DejaVuSans-34" transform="scale(0.015625)"/>
       </defs>
       <use xlink:href="#DejaVuSans-30"/>
       <use x="63.623047" xlink:href="#DejaVuSans-2e"/>
       <use x="95.410156" xlink:href="#DejaVuSans-34"/>
      </g>
     </g>
    </g>
    <g id="ytick_4">
     <g id="line2d_13">
      <g>
       <use style="stroke:#000000;stroke-width:0.8;" x="162" xlink:href="#m290dc428d5" y="513.48219"/>
      </g>
     </g>
     <g id="text_13">
      <!-- 0.6 -->
      <g transform="translate(139.096875 517.281409)scale(0.1 -0.1)">
       <defs>
        <path d="M 2113 2584 
Q 1688 2584 1439 2293 
Q 1191 2003 1191 1497 
Q 1191 994 1439 701 
Q 1688 409 2113 409 
Q 2538 409 2786 701 
Q 3034 994 3034 1497 
Q 3034 2003 2786 2293 
Q 2538 2584 2113 2584 
z
M 3366 4563 
L 3366 3988 
Q 3128 4100 2886 4159 
Q 2644 4219 2406 4219 
Q 1781 4219 1451 3797 
Q 1122 3375 1075 2522 
Q 1259 2794 1537 2939 
Q 1816 3084 2150 3084 
Q 2853 3084 3261 2657 
Q 3669 2231 3669 1497 
Q 3669 778 3244 343 
Q 2819 -91 2113 -91 
Q 1303 -91 875 529 
Q 447 1150 447 2328 
Q 447 3434 972 4092 
Q 1497 4750 2381 4750 
Q 2619 4750 2861 4703 
Q 3103 4656 3366 4563 
z
" id="DejaVuSans-36" transform="scale(0.015625)"/>
       </defs>
       <use xlink:href="#DejaVuSans-30"/>
       <use x="63.623047" xlink:href="#DejaVuSans-2e"/>
       <use x="95.410156" xlink:href="#DejaVuSans-36"/>
      </g>
     </g>
    </g>
    <g id="ytick_5">
     <g id="line2d_14">
      <g>
       <use style="stroke:#000000;stroke-width:0.8;" x="162" xlink:href="#m290dc428d5" y="428.32292"/>
      </g>
     </g>
     <g id="text_14">
      <!-- 0.8 -->
      <g transform="translate(139.096875 432.122138)scale(0.1 -0.1)">
       <defs>
        <path d="M 2034 2216 
Q 1584 2216 1326 1975 
Q 1069 1734 1069 1313 
Q 1069 891 1326 650 
Q 1584 409 2034 409 
Q 2484 409 2743 651 
Q 3003 894 3003 1313 
Q 3003 1734 2745 1975 
Q 2488 2216 2034 2216 
z
M 1403 2484 
Q 997 2584 770 2862 
Q 544 3141 544 3541 
Q 544 4100 942 4425 
Q 1341 4750 2034 4750 
Q 2731 4750 3128 4425 
Q 3525 4100 3525 3541 
Q 3525 3141 3298 2862 
Q 3072 2584 2669 2484 
Q 3125 2378 3379 2068 
Q 3634 1759 3634 1313 
Q 3634 634 3220 271 
Q 2806 -91 2034 -91 
Q 1263 -91 848 271 
Q 434 634 434 1313 
Q 434 1759 690 2068 
Q 947 2378 1403 2484 
z
M 1172 3481 
Q 1172 3119 1398 2916 
Q 1625 2713 2034 2713 
Q 2441 2713 2670 2916 
Q 2900 3119 2900 3481 
Q 2900 3844 2670 4047 
Q 2441 4250 2034 4250 
Q 1625 4250 1398 4047 
Q 1172 3844 1172 3481 
z
" id="DejaVuSans-38" transform="scale(0.015625)"/>
       </defs>
       <use xlink:href="#DejaVuSans-30"/>
       <use x="63.623047" xlink:href="#DejaVuSans-2e"/>
       <use x="95.410156" xlink:href="#DejaVuSans-38"/>
      </g>
     </g>
    </g>
    <g id="ytick_6">
     <g id="line2d_15">
      <g>
       <use style="stroke:#000000;stroke-width:0.8;" x="162" xlink:href="#m290dc428d5" y="343.16365"/>
      </g>
     </g>
     <g id="text_15">
      <!-- 1.0 -->
      <g transform="translate(139.096875 346.962868)scale(0.1 -0.1)">
       <defs>
        <path d="M 794 531 
L 1825 531 
L 1825 4091 
L 703 3866 
L 703 4441 
L 1819 4666 
L 2450 4666 
L 2450 531 
L 3481 531 
L 3481 0 
L 794 0 
L 794 531 
z
" id="DejaVuSans-31" transform="scale(0.015625)"/>
       </defs>
       <use xlink:href="#DejaVuSans-31"/>
       <use x="63.623047" xlink:href="#DejaVuSans-2e"/>
       <use x="95.410156" xlink:href="#DejaVuSans-30"/>
      </g>
     </g>
    </g>
    <g id="ytick_7">
     <g id="line2d_16">
      <g>
       <use style="stroke:#000000;stroke-width:0.8;" x="162" xlink:href="#m290dc428d5" y="258.00438"/>
      </g>
     </g>
     <g id="text_16">
      <!-- 1.2 -->
      <g transform="translate(139.096875 261.803598)scale(0.1 -0.1)">
       <use xlink:href="#DejaVuSans-31"/>
       <use x="63.623047" xlink:href="#DejaVuSans-2e"/>
       <use x="95.410156" xlink:href="#DejaVuSans-32"/>
      </g>
     </g>
    </g>
    <g id="ytick_8">
     <g id="line2d_17">
      <g>
       <use style="stroke:#000000;stroke-width:0.8;" x="162" xlink:href="#m290dc428d5" y="172.845109"/>
      </g>
     </g>
     <g id="text_17">
      <!-- 1.4 -->
      <g transform="translate(139.096875 176.644328)scale(0.1 -0.1)">
       <use xlink:href="#DejaVuSans-31"/>
       <use x="63.623047" xlink:href="#DejaVuSans-2e"/>
       <use x="95.410156" xlink:href="#DejaVuSans-34"/>
      </g>
     </g>
    </g>
    <g id="text_18">
     <!-- Persons fully vaccinated (tens of millions) -->
     <g transform="translate(133.017188 540.480156)rotate(-90)scale(0.1 -0.1)">
      <defs>
       <path d="M 1259 4147 
L 1259 2394 
L 2053 2394 
Q 2494 2394 2734 2622 
Q 2975 2850 2975 3272 
Q 2975 3691 2734 3919 
Q 2494 4147 2053 4147 
L 1259 4147 
z
M 628 4666 
L 2053 4666 
Q 2838 4666 3239 4311 
Q 3641 3956 3641 3272 
Q 3641 2581 3239 2228 
Q 2838 1875 2053 1875 
L 1259 1875 
L 1259 0 
L 628 0 
L 628 4666 
z
" id="DejaVuSans-50" transform="scale(0.015625)"/>
       <path d="M 1959 3097 
Q 1497 3097 1228 2736 
Q 959 2375 959 1747 
Q 959 1119 1226 758 
Q 1494 397 1959 397 
Q 2419 397 2687 759 
Q 2956 1122 2956 1747 
Q 2956 2369 2687 2733 
Q 2419 3097 1959 3097 
z
M 1959 3584 
Q 2709 3584 3137 3096 
Q 3566 2609 3566 1747 
Q 3566 888 3137 398 
Q 2709 -91 1959 -91 
Q 1206 -91 779 398 
Q 353 888 353 1747 
Q 353 2609 779 3096 
Q 1206 3584 1959 3584 
z
" id="DejaVuSans-6f" transform="scale(0.015625)"/>
       <path id="DejaVuSans-20" transform="scale(0.015625)"/>
       <path d="M 2375 4863 
L 2375 4384 
L 1825 4384 
Q 1516 4384 1395 4259 
Q 1275 4134 1275 3809 
L 1275 3500 
L 2222 3500 
L 2222 3053 
L 1275 3053 
L 1275 0 
L 697 0 
L 697 3053 
L 147 3053 
L 147 3500 
L 697 3500 
L 697 3744 
Q 697 4328 969 4595 
Q 1241 4863 1831 4863 
L 2375 4863 
z
" id="DejaVuSans-66" transform="scale(0.015625)"/>
       <path d="M 191 3500 
L 800 3500 
L 1894 563 
L 2988 3500 
L 3597 3500 
L 2284 0 
L 1503 0 
L 191 3500 
z
" id="DejaVuSans-76" transform="scale(0.015625)"/>
       <path d="M 2906 2969 
L 2906 4863 
L 3481 4863 
L 3481 0 
L 2906 0 
L 2906 525 
Q 2725 213 2448 61 
Q 2172 -91 1784 -91 
Q 1150 -91 751 415 
Q 353 922 353 1747 
Q 353 2572 751 3078 
Q 1150 3584 1784 3584 
Q 2172 3584 2448 3432 
Q 2725 3281 2906 2969 
z
M 947 1747 
Q 947 1113 1208 752 
Q 1469 391 1925 391 
Q 2381 391 2643 752 
Q 2906 1113 2906 1747 
Q 2906 2381 2643 2742 
Q 2381 3103 1925 3103 
Q 1469 3103 1208 2742 
Q 947 2381 947 1747 
z
" id="DejaVuSans-64" transform="scale(0.015625)"/>
       <path d="M 1984 4856 
Q 1566 4138 1362 3434 
Q 1159 2731 1159 2009 
Q 1159 1288 1364 580 
Q 1569 -128 1984 -844 
L 1484 -844 
Q 1016 -109 783 600 
Q 550 1309 550 2009 
Q 550 2706 781 3412 
Q 1013 4119 1484 4856 
L 1984 4856 
z
" id="DejaVuSans-28" transform="scale(0.015625)"/>
       <path d="M 513 4856 
L 1013 4856 
Q 1481 4119 1714 3412 
Q 1947 2706 1947 2009 
Q 1947 1309 1714 600 
Q 1481 -109 1013 -844 
L 513 -844 
Q 928 -128 1133 580 
Q 1338 1288 1338 2009 
Q 1338 2731 1133 3434 
Q 928 4138 513 4856 
z
" id="DejaVuSans-29" transform="scale(0.015625)"/>
      </defs>
      <use xlink:href="#DejaVuSans-50"/>
      <use x="56.677734" xlink:href="#DejaVuSans-65"/>
      <use x="118.201172" xlink:href="#DejaVuSans-72"/>
      <use x="159.314453" xlink:href="#DejaVuSans-73"/>
      <use x="211.414062" xlink:href="#DejaVuSans-6f"/>
      <use x="272.595703" xlink:href="#DejaVuSans-6e"/>
      <use x="335.974609" xlink:href="#DejaVuSans-73"/>
      <use x="388.074219" xlink:href="#DejaVuSans-20"/>
      <use x="419.861328" xlink:href="#DejaVuSans-66"/>
      <use x="455.066406" xlink:href="#DejaVuSans-75"/>
      <use x="518.445312" xlink:href="#DejaVuSans-6c"/>
      <use x="546.228516" xlink:href="#DejaVuSans-6c"/>
      <use x="574.011719" xlink:href="#DejaVuSans-79"/>
      <use x="633.191406" xlink:href="#DejaVuSans-20"/>
      <use x="664.978516" xlink:href="#DejaVuSans-76"/>
      <use x="724.158203" xlink:href="#DejaVuSans-61"/>
      <use x="785.4375" xlink:href="#DejaVuSans-63"/>
      <use x="840.417969" xlink:href="#DejaVuSans-63"/>
      <use x="895.398438" xlink:href="#DejaVuSans-69"/>
      <use x="923.181641" xlink:href="#DejaVuSans-6e"/>
      <use x="986.560547" xlink:href="#DejaVuSans-61"/>
      <use x="1047.839844" xlink:href="#DejaVuSans-74"/>
      <use x="1087.048828" xlink:href="#DejaVuSans-65"/>
      <use x="1148.572266" xlink:href="#DejaVuSans-64"/>
      <use x="1212.048828" xlink:href="#DejaVuSans-20"/>
      <use x="1243.835938" xlink:href="#DejaVuSans-28"/>
      <use x="1282.849609" xlink:href="#DejaVuSans-74"/>
      <use x="1322.058594" xlink:href="#DejaVuSans-65"/>
      <use x="1383.582031" xlink:href="#DejaVuSans-6e"/>
      <use x="1446.960938" xlink:href="#DejaVuSans-73"/>
      <use x="1499.060547" xlink:href="#DejaVuSans-20"/>
      <use x="1530.847656" xlink:href="#DejaVuSans-6f"/>
      <use x="1592.029297" xlink:href="#DejaVuSans-66"/>
      <use x="1627.234375" xlink:href="#DejaVuSans-20"/>
      <use x="1659.021484" xlink:href="#DejaVuSans-6d"/>
      <use x="1756.433594" xlink:href="#DejaVuSans-69"/>
      <use x="1784.216797" xlink:href="#DejaVuSans-6c"/>
      <use x="1812" xlink:href="#DejaVuSans-6c"/>
      <use x="1839.783203" xlink:href="#DejaVuSans-69"/>
      <use x="1867.566406" xlink:href="#DejaVuSans-6f"/>
      <use x="1928.748047" xlink:href="#DejaVuSans-6e"/>
      <use x="1992.126953" xlink:href="#DejaVuSans-73"/>
      <use x="2044.226562" xlink:href="#DejaVuSans-29"/>
     </g>
    </g>
    <g id="text_19">
     <!-- 1e7 -->
     <g transform="translate(162 100.68)scale(0.1 -0.1)">
      <defs>
       <path d="M 525 4666 
L 3525 4666 
L 3525 4397 
L 1831 0 
L 1172 0 
L 2766 4134 
L 525 4134 
L 525 4666 
z
" id="DejaVuSans-37" transform="scale(0.015625)"/>
      </defs>
      <use xlink:href="#DejaVuSans-31"/>
      <use x="63.623047" xlink:href="#DejaVuSans-65"/>
      <use x="125.146484" xlink:href="#DejaVuSans-37"/>
     </g>
    </g>
   </g>
   <g id="patch_255">
    <path d="M 162 768.96 
L 162 103.68 
" style="fill:none;stroke:#000000;stroke-linecap:square;stroke-linejoin:miter;stroke-width:0.8;"/>
   </g>
   <g id="patch_256">
    <path d="M 1166.4 768.96 
L 1166.4 103.68 
" style="fill:none;stroke:#000000;stroke-linecap:square;stroke-linejoin:miter;stroke-width:0.8;"/>
   </g>
   <g id="patch_257">
    <path d="M 162 768.96 
L 1166.4 768.96 
" style="fill:none;stroke:#000000;stroke-linecap:square;stroke-linejoin:miter;stroke-width:0.8;"/>
   </g>
   <g id="patch_258">
    <path d="M 162 103.68 
L 1166.4 103.68 
" style="fill:none;stroke:#000000;stroke-linecap:square;stroke-linejoin:miter;stroke-width:0.8;"/>
   </g>
   <g id="text_20">
    <!-- Persons Fully Vaccinated -->
    <g transform="translate(590.380313 97.68)scale(0.12 -0.12)">
     <defs>
      <path d="M 1831 0 
L 50 4666 
L 709 4666 
L 2188 738 
L 3669 4666 
L 4325 4666 
L 2547 0 
L 1831 0 
z
" id="DejaVuSans-56" transform="scale(0.015625)"/>
     </defs>
     <use xlink:href="#DejaVuSans-50"/>
     <use x="56.677734" xlink:href="#DejaVuSans-65"/>
     <use x="118.201172" xlink:href="#DejaVuSans-72"/>
     <use x="159.314453" xlink:href="#DejaVuSans-73"/>
     <use x="211.414062" xlink:href="#DejaVuSans-6f"/>
     <use x="272.595703" xlink:href="#DejaVuSans-6e"/>
     <use x="335.974609" xlink:href="#DejaVuSans-73"/>
     <use x="388.074219" xlink:href="#DejaVuSans-20"/>
     <use x="419.861328" xlink:href="#DejaVuSans-46"/>
     <use x="471.880859" xlink:href="#DejaVuSans-75"/>
     <use x="535.259766" xlink:href="#DejaVuSans-6c"/>
     <use x="563.042969" xlink:href="#DejaVuSans-6c"/>
     <use x="590.826172" xlink:href="#DejaVuSans-79"/>
     <use x="650.005859" xlink:href="#DejaVuSans-20"/>
     <use x="681.792969" xlink:href="#DejaVuSans-56"/>
     <use x="742.451172" xlink:href="#DejaVuSans-61"/>
     <use x="803.730469" xlink:href="#DejaVuSans-63"/>
     <use x="858.710938" xlink:href="#DejaVuSans-63"/>
     <use x="913.691406" xlink:href="#DejaVuSans-69"/>
     <use x="941.474609" xlink:href="#DejaVuSans-6e"/>
     <use x="1004.853516" xlink:href="#DejaVuSans-61"/>
     <use x="1066.132812" xlink:href="#DejaVuSans-74"/>
     <use x="1105.341797" xlink:href="#DejaVuSans-65"/>
     <use x="1166.865234" xlink:href="#DejaVuSans-64"/>
    </g>
   </g>
  </g>
 </g>
 <defs>
  <clipPath id="pb05f181f6d">
   <rect height="665.28" width="1004.4" x="162" y="103.68"/>
  </clipPath>
 </defs>
</svg>
