<?xml version="1.0" encoding="utf-8" standalone="no"?>
<!DOCTYPE svg PUBLIC "-//W3C//DTD SVG 1.1//EN"
  "http://www.w3.org/Graphics/SVG/1.1/DTD/svg11.dtd">
<svg height="864pt" version="1.1" viewBox="0 0 1296 864" width="1296pt" xmlns="http://www.w3.org/2000/svg" xmlns:xlink="http://www.w3.org/1999/xlink">
 <metadata>
  <rdf:RDF xmlns:cc="http://creativecommons.org/ns#" xmlns:dc="http://purl.org/dc/elements/1.1/" xmlns:rdf="http://www.w3.org/1999/02/22-rdf-syntax-ns#">
   <cc:Work>
    <dc:type rdf:resource="http://purl.org/dc/dcmitype/StillImage"/>
    <dc:date>2021-12-31T21:19:15.200864</dc:date>
    <dc:format>image/svg+xml</dc:format>
    <dc:creator>
     <cc:Agent>
      <dc:title>Matplotlib v3.4.2, https://matplotlib.org/</dc:title>
     </cc:Agent>
    </dc:creator>
   </cc:Work>
  </rdf:RDF>
 </metadata>
 <defs>
  <style type="text/css">*{stroke-linecap:butt;stroke-linejoin:round;}</style>
 </defs>
 <g id="figure_1">
  <g id="patch_1">
   <path d="M 0 864 
L 1296 864 
L 1296 0 
L 0 0 
z
" style="fill:#ffffff;"/>
  </g>
  <g id="axes_1">
   <g id="patch_2">
    <path d="M 162 768.96 
L 1166.4 768.96 
L 1166.4 103.68 
L 162 103.68 
z
" style="fill:#ffffff;"/>
   </g>
   <g id="patch_3">
    <path clip-path="url(#peb5502f951)" d="M 162.6975 768.96 
L 164.0925 768.96 
L 164.0925 768.949448 
L 162.6975 768.949448 
z
" style="fill:#1f77b4;"/>
   </g>
   <g id="patch_4">
    <path clip-path="url(#peb5502f951)" d="M 165.4875 768.96 
L 166.8825 768.96 
L 166.8825 768.921009 
L 165.4875 768.921009 
z
" style="fill:#1f77b4;"/>
   </g>
   <g id="patch_5">
    <path clip-path="url(#peb5502f951)" d="M 168.2775 768.96 
L 169.6725 768.96 
L 169.6725 768.723504 
L 168.2775 768.723504 
z
" style="fill:#1f77b4;"/>
   </g>
   <g id="patch_6">
    <path clip-path="url(#peb5502f951)" d="M 171.0675 768.96 
L 172.4625 768.96 
L 172.4625 767.302962 
L 171.0675 767.302962 
z
" style="fill:#1f77b4;"/>
   </g>
   <g id="patch_7">
    <path clip-path="url(#peb5502f951)" d="M 173.8575 768.96 
L 175.2525 768.96 
L 175.2525 765.600023 
L 173.8575 765.600023 
z
" style="fill:#1f77b4;"/>
   </g>
   <g id="patch_8">
    <path clip-path="url(#peb5502f951)" d="M 176.6475 768.96 
L 178.0425 768.96 
L 178.0425 764.669669 
L 176.6475 764.669669 
z
" style="fill:#1f77b4;"/>
   </g>
   <g id="patch_9">
    <path clip-path="url(#peb5502f951)" d="M 179.4375 768.96 
L 180.8325 768.96 
L 180.8325 764.105486 
L 179.4375 764.105486 
z
" style="fill:#1f77b4;"/>
   </g>
   <g id="patch_10">
    <path clip-path="url(#peb5502f951)" d="M 182.2275 768.96 
L 183.6225 768.96 
L 183.6225 763.22098 
L 182.2275 763.22098 
z
" style="fill:#1f77b4;"/>
   </g>
   <g id="patch_11">
    <path clip-path="url(#peb5502f951)" d="M 185.0175 768.96 
L 186.4125 768.96 
L 186.4125 762.377112 
L 185.0175 762.377112 
z
" style="fill:#1f77b4;"/>
   </g>
   <g id="patch_12">
    <path clip-path="url(#peb5502f951)" d="M 187.8075 768.96 
L 189.2025 768.96 
L 189.2025 761.689366 
L 187.8075 761.689366 
z
" style="fill:#1f77b4;"/>
   </g>
   <g id="patch_13">
    <path clip-path="url(#peb5502f951)" d="M 190.5975 768.96 
L 191.9925 768.96 
L 191.9925 760.842202 
L 190.5975 760.842202 
z
" style="fill:#1f77b4;"/>
   </g>
   <g id="patch_14">
    <path clip-path="url(#peb5502f951)" d="M 193.3875 768.96 
L 194.7825 768.96 
L 194.7825 760.667714 
L 193.3875 760.667714 
z
" style="fill:#1f77b4;"/>
   </g>
   <g id="patch_15">
    <path clip-path="url(#peb5502f951)" d="M 196.1775 768.96 
L 197.5725 768.96 
L 197.5725 760.559646 
L 196.1775 760.559646 
z
" style="fill:#1f77b4;"/>
   </g>
   <g id="patch_16">
    <path clip-path="url(#peb5502f951)" d="M 198.9675 768.96 
L 200.3625 768.96 
L 200.3625 760.508323 
L 198.9675 760.508323 
z
" style="fill:#1f77b4;"/>
   </g>
   <g id="patch_17">
    <path clip-path="url(#peb5502f951)" d="M 201.7575 768.96 
L 203.1525 768.96 
L 203.1525 760.272997 
L 201.7575 760.272997 
z
" style="fill:#1f77b4;"/>
   </g>
   <g id="patch_18">
    <path clip-path="url(#peb5502f951)" d="M 204.5475 768.96 
L 205.9425 768.96 
L 205.9425 759.880937 
L 204.5475 759.880937 
z
" style="fill:#1f77b4;"/>
   </g>
   <g id="patch_19">
    <path clip-path="url(#peb5502f951)" d="M 207.3375 768.96 
L 208.7325 768.96 
L 208.7325 759.128499 
L 207.3375 759.128499 
z
" style="fill:#1f77b4;"/>
   </g>
   <g id="patch_20">
    <path clip-path="url(#peb5502f951)" d="M 210.1275 768.96 
L 211.5225 768.96 
L 211.5225 758.375158 
L 210.1275 758.375158 
z
" style="fill:#1f77b4;"/>
   </g>
   <g id="patch_21">
    <path clip-path="url(#peb5502f951)" d="M 212.9175 768.96 
L 214.3125 768.96 
L 214.3125 757.834285 
L 212.9175 757.834285 
z
" style="fill:#1f77b4;"/>
   </g>
   <g id="patch_22">
    <path clip-path="url(#peb5502f951)" d="M 215.7075 768.96 
L 217.1025 768.96 
L 217.1025 757.635105 
L 215.7075 757.635105 
z
" style="fill:#1f77b4;"/>
   </g>
   <g id="patch_23">
    <path clip-path="url(#peb5502f951)" d="M 218.4975 768.96 
L 219.8925 768.96 
L 219.8925 757.36629 
L 218.4975 757.36629 
z
" style="fill:#1f77b4;"/>
   </g>
   <g id="patch_24">
    <path clip-path="url(#peb5502f951)" d="M 221.2875 768.96 
L 222.6825 768.96 
L 222.6825 756.655554 
L 221.2875 756.655554 
z
" style="fill:#1f77b4;"/>
   </g>
   <g id="patch_25">
    <path clip-path="url(#peb5502f951)" d="M 224.0775 768.96 
L 225.4725 768.96 
L 225.4725 755.457155 
L 224.0775 755.457155 
z
" style="fill:#1f77b4;"/>
   </g>
   <g id="patch_26">
    <path clip-path="url(#peb5502f951)" d="M 226.8675 768.96 
L 228.2625 768.96 
L 228.2625 753.804157 
L 226.8675 753.804157 
z
" style="fill:#1f77b4;"/>
   </g>
   <g id="patch_27">
    <path clip-path="url(#peb5502f951)" d="M 229.6575 768.96 
L 231.0525 768.96 
L 231.0525 752.399243 
L 229.6575 752.399243 
z
" style="fill:#1f77b4;"/>
   </g>
   <g id="patch_28">
    <path clip-path="url(#peb5502f951)" d="M 232.4475 768.96 
L 233.8425 768.96 
L 233.8425 751.145348 
L 232.4475 751.145348 
z
" style="fill:#1f77b4;"/>
   </g>
   <g id="patch_29">
    <path clip-path="url(#peb5502f951)" d="M 235.2375 768.96 
L 236.6325 768.96 
L 236.6325 750.452659 
L 235.2375 750.452659 
z
" style="fill:#1f77b4;"/>
   </g>
   <g id="patch_30">
    <path clip-path="url(#peb5502f951)" d="M 238.0275 768.96 
L 239.4225 768.96 
L 239.4225 750.066101 
L 238.0275 750.066101 
z
" style="fill:#1f77b4;"/>
   </g>
   <g id="patch_31">
    <path clip-path="url(#peb5502f951)" d="M 240.8175 768.96 
L 242.2125 768.96 
L 242.2125 749.382687 
L 240.8175 749.382687 
z
" style="fill:#1f77b4;"/>
   </g>
   <g id="patch_32">
    <path clip-path="url(#peb5502f951)" d="M 243.6075 768.96 
L 245.0025 768.96 
L 245.0025 747.912895 
L 243.6075 747.912895 
z
" style="fill:#1f77b4;"/>
   </g>
   <g id="patch_33">
    <path clip-path="url(#peb5502f951)" d="M 246.3975 768.96 
L 247.7925 768.96 
L 247.7925 746.819216 
L 246.3975 746.819216 
z
" style="fill:#1f77b4;"/>
   </g>
   <g id="patch_34">
    <path clip-path="url(#peb5502f951)" d="M 249.1875 768.96 
L 250.5825 768.96 
L 250.5825 745.349503 
L 249.1875 745.349503 
z
" style="fill:#1f77b4;"/>
   </g>
   <g id="patch_35">
    <path clip-path="url(#peb5502f951)" d="M 251.9775 768.96 
L 253.3725 768.96 
L 253.3725 744.173909 
L 251.9775 744.173909 
z
" style="fill:#1f77b4;"/>
   </g>
   <g id="patch_36">
    <path clip-path="url(#peb5502f951)" d="M 254.7675 768.96 
L 256.1625 768.96 
L 256.1625 743.142051 
L 254.7675 743.142051 
z
" style="fill:#1f77b4;"/>
   </g>
   <g id="patch_37">
    <path clip-path="url(#peb5502f951)" d="M 257.5575 768.96 
L 258.9525 768.96 
L 258.9525 742.791028 
L 257.5575 742.791028 
z
" style="fill:#1f77b4;"/>
   </g>
   <g id="patch_38">
    <path clip-path="url(#peb5502f951)" d="M 260.3475 768.96 
L 261.7425 768.96 
L 261.7425 741.608178 
L 260.3475 741.608178 
z
" style="fill:#1f77b4;"/>
   </g>
   <g id="patch_39">
    <path clip-path="url(#peb5502f951)" d="M 263.1375 768.96 
L 264.5325 768.96 
L 264.5325 740.144738 
L 263.1375 740.144738 
z
" style="fill:#1f77b4;"/>
   </g>
   <g id="patch_40">
    <path clip-path="url(#peb5502f951)" d="M 265.9275 768.96 
L 267.3225 768.96 
L 267.3225 738.380057 
L 265.9275 738.380057 
z
" style="fill:#1f77b4;"/>
   </g>
   <g id="patch_41">
    <path clip-path="url(#peb5502f951)" d="M 268.7175 768.96 
L 270.1125 768.96 
L 270.1125 735.862433 
L 268.7175 735.862433 
z
" style="fill:#1f77b4;"/>
   </g>
   <g id="patch_42">
    <path clip-path="url(#peb5502f951)" d="M 271.5075 768.96 
L 272.9025 768.96 
L 272.9025 733.60916 
L 271.5075 733.60916 
z
" style="fill:#1f77b4;"/>
   </g>
   <g id="patch_43">
    <path clip-path="url(#peb5502f951)" d="M 274.2975 768.96 
L 275.6925 768.96 
L 275.6925 732.197734 
L 274.2975 732.197734 
z
" style="fill:#1f77b4;"/>
   </g>
   <g id="patch_44">
    <path clip-path="url(#peb5502f951)" d="M 277.0875 768.96 
L 278.4825 768.96 
L 278.4825 731.437934 
L 277.0875 731.437934 
z
" style="fill:#1f77b4;"/>
   </g>
   <g id="patch_45">
    <path clip-path="url(#peb5502f951)" d="M 279.8775 768.96 
L 281.2725 768.96 
L 281.2725 730.694426 
L 279.8775 730.694426 
z
" style="fill:#1f77b4;"/>
   </g>
   <g id="patch_46">
    <path clip-path="url(#peb5502f951)" d="M 282.6675 768.96 
L 284.0625 768.96 
L 284.0625 729.264236 
L 282.6675 729.264236 
z
" style="fill:#1f77b4;"/>
   </g>
   <g id="patch_47">
    <path clip-path="url(#peb5502f951)" d="M 285.4575 768.96 
L 286.8525 768.96 
L 286.8525 726.887771 
L 285.4575 726.887771 
z
" style="fill:#1f77b4;"/>
   </g>
   <g id="patch_48">
    <path clip-path="url(#peb5502f951)" d="M 288.2475 768.96 
L 289.6425 768.96 
L 289.6425 723.791347 
L 288.2475 723.791347 
z
" style="fill:#1f77b4;"/>
   </g>
   <g id="patch_49">
    <path clip-path="url(#peb5502f951)" d="M 291.0375 768.96 
L 292.4325 768.96 
L 292.4325 720.860879 
L 291.0375 720.860879 
z
" style="fill:#1f77b4;"/>
   </g>
   <g id="patch_50">
    <path clip-path="url(#peb5502f951)" d="M 293.8275 768.96 
L 295.2225 768.96 
L 295.2225 720.397828 
L 293.8275 720.397828 
z
" style="fill:#1f77b4;"/>
   </g>
   <g id="patch_51">
    <path clip-path="url(#peb5502f951)" d="M 296.6175 768.96 
L 298.0125 768.96 
L 298.0125 718.246828 
L 296.6175 718.246828 
z
" style="fill:#1f77b4;"/>
   </g>
   <g id="patch_52">
    <path clip-path="url(#peb5502f951)" d="M 299.4075 768.96 
L 300.8025 768.96 
L 300.8025 716.537803 
L 299.4075 716.537803 
z
" style="fill:#1f77b4;"/>
   </g>
   <g id="patch_53">
    <path clip-path="url(#peb5502f951)" d="M 302.1975 768.96 
L 303.5925 768.96 
L 303.5925 713.97667 
L 302.1975 713.97667 
z
" style="fill:#1f77b4;"/>
   </g>
   <g id="patch_54">
    <path clip-path="url(#peb5502f951)" d="M 304.9875 768.96 
L 306.3825 768.96 
L 306.3825 709.068335 
L 304.9875 709.068335 
z
" style="fill:#1f77b4;"/>
   </g>
   <g id="patch_55">
    <path clip-path="url(#peb5502f951)" d="M 307.7775 768.96 
L 309.1725 768.96 
L 309.1725 703.985432 
L 307.7775 703.985432 
z
" style="fill:#1f77b4;"/>
   </g>
   <g id="patch_56">
    <path clip-path="url(#peb5502f951)" d="M 310.5675 768.96 
L 311.9625 768.96 
L 311.9625 699.527178 
L 310.5675 699.527178 
z
" style="fill:#1f77b4;"/>
   </g>
   <g id="patch_57">
    <path clip-path="url(#peb5502f951)" d="M 313.3575 768.96 
L 314.7525 768.96 
L 314.7525 695.667046 
L 313.3575 695.667046 
z
" style="fill:#1f77b4;"/>
   </g>
   <g id="patch_58">
    <path clip-path="url(#peb5502f951)" d="M 316.1475 768.96 
L 317.5425 768.96 
L 317.5425 693.828876 
L 316.1475 693.828876 
z
" style="fill:#1f77b4;"/>
   </g>
   <g id="patch_59">
    <path clip-path="url(#peb5502f951)" d="M 318.9375 768.96 
L 320.3325 768.96 
L 320.3325 691.046184 
L 318.9375 691.046184 
z
" style="fill:#1f77b4;"/>
   </g>
   <g id="patch_60">
    <path clip-path="url(#peb5502f951)" d="M 321.7275 768.96 
L 323.1225 768.96 
L 323.1225 687.274878 
L 321.7275 687.274878 
z
" style="fill:#1f77b4;"/>
   </g>
   <g id="patch_61">
    <path clip-path="url(#peb5502f951)" d="M 324.5175 768.96 
L 325.9125 768.96 
L 325.9125 682.950341 
L 324.5175 682.950341 
z
" style="fill:#1f77b4;"/>
   </g>
   <g id="patch_62">
    <path clip-path="url(#peb5502f951)" d="M 327.3075 768.96 
L 328.7025 768.96 
L 328.7025 676.640626 
L 327.3075 676.640626 
z
" style="fill:#1f77b4;"/>
   </g>
   <g id="patch_63">
    <path clip-path="url(#peb5502f951)" d="M 330.0975 768.96 
L 331.4925 768.96 
L 331.4925 670.715344 
L 330.0975 670.715344 
z
" style="fill:#1f77b4;"/>
   </g>
   <g id="patch_64">
    <path clip-path="url(#peb5502f951)" d="M 332.8875 768.96 
L 334.2825 768.96 
L 334.2825 666.263017 
L 332.8875 666.263017 
z
" style="fill:#1f77b4;"/>
   </g>
   <g id="patch_65">
    <path clip-path="url(#peb5502f951)" d="M 335.6775 768.96 
L 337.0725 768.96 
L 337.0725 664.86597 
L 335.6775 664.86597 
z
" style="fill:#1f77b4;"/>
   </g>
   <g id="patch_66">
    <path clip-path="url(#peb5502f951)" d="M 338.4675 768.96 
L 339.8625 768.96 
L 339.8625 661.049534 
L 338.4675 661.049534 
z
" style="fill:#1f77b4;"/>
   </g>
   <g id="patch_67">
    <path clip-path="url(#peb5502f951)" d="M 341.2575 768.96 
L 342.6525 768.96 
L 342.6525 656.108268 
L 341.2575 656.108268 
z
" style="fill:#1f77b4;"/>
   </g>
   <g id="patch_68">
    <path clip-path="url(#peb5502f951)" d="M 344.0475 768.96 
L 345.4425 768.96 
L 345.4425 650.653346 
L 344.0475 650.653346 
z
" style="fill:#1f77b4;"/>
   </g>
   <g id="patch_69">
    <path clip-path="url(#peb5502f951)" d="M 346.8375 768.96 
L 348.2325 768.96 
L 348.2325 644.814178 
L 346.8375 644.814178 
z
" style="fill:#1f77b4;"/>
   </g>
   <g id="patch_70">
    <path clip-path="url(#peb5502f951)" d="M 349.6275 768.96 
L 351.0225 768.96 
L 351.0225 638.188764 
L 349.6275 638.188764 
z
" style="fill:#1f77b4;"/>
   </g>
   <g id="patch_71">
    <path clip-path="url(#peb5502f951)" d="M 352.4175 768.96 
L 353.8125 768.96 
L 353.8125 633.906911 
L 352.4175 633.906911 
z
" style="fill:#1f77b4;"/>
   </g>
   <g id="patch_72">
    <path clip-path="url(#peb5502f951)" d="M 355.2075 768.96 
L 356.6025 768.96 
L 356.6025 629.650946 
L 355.2075 629.650946 
z
" style="fill:#1f77b4;"/>
   </g>
   <g id="patch_73">
    <path clip-path="url(#peb5502f951)" d="M 357.9975 768.96 
L 359.3925 768.96 
L 359.3925 625.863134 
L 357.9975 625.863134 
z
" style="fill:#1f77b4;"/>
   </g>
   <g id="patch_74">
    <path clip-path="url(#peb5502f951)" d="M 360.7875 768.96 
L 362.1825 768.96 
L 362.1825 621.61796 
L 360.7875 621.61796 
z
" style="fill:#1f77b4;"/>
   </g>
   <g id="patch_75">
    <path clip-path="url(#peb5502f951)" d="M 363.5775 768.96 
L 364.9725 768.96 
L 364.9725 617.82672 
L 363.5775 617.82672 
z
" style="fill:#1f77b4;"/>
   </g>
   <g id="patch_76">
    <path clip-path="url(#peb5502f951)" d="M 366.3675 768.96 
L 367.7625 768.96 
L 367.7625 613.500774 
L 366.3675 613.500774 
z
" style="fill:#1f77b4;"/>
   </g>
   <g id="patch_77">
    <path clip-path="url(#peb5502f951)" d="M 369.1575 768.96 
L 370.5525 768.96 
L 370.5525 609.063251 
L 369.1575 609.063251 
z
" style="fill:#1f77b4;"/>
   </g>
   <g id="patch_78">
    <path clip-path="url(#peb5502f951)" d="M 371.9475 768.96 
L 373.3425 768.96 
L 373.3425 606.422568 
L 371.9475 606.422568 
z
" style="fill:#1f77b4;"/>
   </g>
   <g id="patch_79">
    <path clip-path="url(#peb5502f951)" d="M 374.7375 768.96 
L 376.1325 768.96 
L 376.1325 604.977042 
L 374.7375 604.977042 
z
" style="fill:#1f77b4;"/>
   </g>
   <g id="patch_80">
    <path clip-path="url(#peb5502f951)" d="M 377.5275 768.96 
L 378.9225 768.96 
L 378.9225 602.593826 
L 377.5275 602.593826 
z
" style="fill:#1f77b4;"/>
   </g>
   <g id="patch_81">
    <path clip-path="url(#peb5502f951)" d="M 380.3175 768.96 
L 381.7125 768.96 
L 381.7125 599.74328 
L 380.3175 599.74328 
z
" style="fill:#1f77b4;"/>
   </g>
   <g id="patch_82">
    <path clip-path="url(#peb5502f951)" d="M 383.1075 768.96 
L 384.5025 768.96 
L 384.5025 596.763535 
L 383.1075 596.763535 
z
" style="fill:#1f77b4;"/>
   </g>
   <g id="patch_83">
    <path clip-path="url(#peb5502f951)" d="M 385.8975 768.96 
L 387.2925 768.96 
L 387.2925 592.925358 
L 385.8975 592.925358 
z
" style="fill:#1f77b4;"/>
   </g>
   <g id="patch_84">
    <path clip-path="url(#peb5502f951)" d="M 388.6875 768.96 
L 390.0825 768.96 
L 390.0825 588.16246 
L 388.6875 588.16246 
z
" style="fill:#1f77b4;"/>
   </g>
   <g id="patch_85">
    <path clip-path="url(#peb5502f951)" d="M 391.4775 768.96 
L 392.8725 768.96 
L 392.8725 584.0316 
L 391.4775 584.0316 
z
" style="fill:#1f77b4;"/>
   </g>
   <g id="patch_86">
    <path clip-path="url(#peb5502f951)" d="M 394.2675 768.96 
L 395.6625 768.96 
L 395.6625 582.394018 
L 394.2675 582.394018 
z
" style="fill:#1f77b4;"/>
   </g>
   <g id="patch_87">
    <path clip-path="url(#peb5502f951)" d="M 397.0575 768.96 
L 398.4525 768.96 
L 398.4525 579.870095 
L 397.0575 579.870095 
z
" style="fill:#1f77b4;"/>
   </g>
   <g id="patch_88">
    <path clip-path="url(#peb5502f951)" d="M 399.8475 768.96 
L 401.2425 768.96 
L 401.2425 575.314324 
L 399.8475 575.314324 
z
" style="fill:#1f77b4;"/>
   </g>
   <g id="patch_89">
    <path clip-path="url(#peb5502f951)" d="M 402.6375 768.96 
L 404.0325 768.96 
L 404.0325 571.463708 
L 402.6375 571.463708 
z
" style="fill:#1f77b4;"/>
   </g>
   <g id="patch_90">
    <path clip-path="url(#peb5502f951)" d="M 405.4275 768.96 
L 406.8225 768.96 
L 406.8225 566.106754 
L 405.4275 566.106754 
z
" style="fill:#1f77b4;"/>
   </g>
   <g id="patch_91">
    <path clip-path="url(#peb5502f951)" d="M 408.2175 768.96 
L 409.6125 768.96 
L 409.6125 560.704723 
L 408.2175 560.704723 
z
" style="fill:#1f77b4;"/>
   </g>
   <g id="patch_92">
    <path clip-path="url(#peb5502f951)" d="M 411.0075 768.96 
L 412.4025 768.96 
L 412.4025 556.574607 
L 411.0075 556.574607 
z
" style="fill:#1f77b4;"/>
   </g>
   <g id="patch_93">
    <path clip-path="url(#peb5502f951)" d="M 413.7975 768.96 
L 415.1925 768.96 
L 415.1925 555.429206 
L 413.7975 555.429206 
z
" style="fill:#1f77b4;"/>
   </g>
   <g id="patch_94">
    <path clip-path="url(#peb5502f951)" d="M 416.5875 768.96 
L 417.9825 768.96 
L 417.9825 551.511877 
L 416.5875 551.511877 
z
" style="fill:#1f77b4;"/>
   </g>
   <g id="patch_95">
    <path clip-path="url(#peb5502f951)" d="M 419.3775 768.96 
L 420.7725 768.96 
L 420.7725 545.531232 
L 419.3775 545.531232 
z
" style="fill:#1f77b4;"/>
   </g>
   <g id="patch_96">
    <path clip-path="url(#peb5502f951)" d="M 422.1675 768.96 
L 423.5625 768.96 
L 423.5625 538.899652 
L 422.1675 538.899652 
z
" style="fill:#1f77b4;"/>
   </g>
   <g id="patch_97">
    <path clip-path="url(#peb5502f951)" d="M 424.9575 768.96 
L 426.3525 768.96 
L 426.3525 530.96304 
L 424.9575 530.96304 
z
" style="fill:#1f77b4;"/>
   </g>
   <g id="patch_98">
    <path clip-path="url(#peb5502f951)" d="M 427.7475 768.96 
L 429.1425 768.96 
L 429.1425 521.588822 
L 427.7475 521.588822 
z
" style="fill:#1f77b4;"/>
   </g>
   <g id="patch_99">
    <path clip-path="url(#peb5502f951)" d="M 430.5375 768.96 
L 431.9325 768.96 
L 431.9325 515.386353 
L 430.5375 515.386353 
z
" style="fill:#1f77b4;"/>
   </g>
   <g id="patch_100">
    <path clip-path="url(#peb5502f951)" d="M 433.3275 768.96 
L 434.7225 768.96 
L 434.7225 512.393345 
L 433.3275 512.393345 
z
" style="fill:#1f77b4;"/>
   </g>
   <g id="patch_101">
    <path clip-path="url(#peb5502f951)" d="M 436.1175 768.96 
L 437.5125 768.96 
L 437.5125 507.271106 
L 436.1175 507.271106 
z
" style="fill:#1f77b4;"/>
   </g>
   <g id="patch_102">
    <path clip-path="url(#peb5502f951)" d="M 438.9075 768.96 
L 440.3025 768.96 
L 440.3025 500.912195 
L 438.9075 500.912195 
z
" style="fill:#1f77b4;"/>
   </g>
   <g id="patch_103">
    <path clip-path="url(#peb5502f951)" d="M 441.6975 768.96 
L 443.0925 768.96 
L 443.0925 495.426708 
L 441.6975 495.426708 
z
" style="fill:#1f77b4;"/>
   </g>
   <g id="patch_104">
    <path clip-path="url(#peb5502f951)" d="M 444.4875 768.96 
L 445.8825 768.96 
L 445.8825 487.95615 
L 444.4875 487.95615 
z
" style="fill:#1f77b4;"/>
   </g>
   <g id="patch_105">
    <path clip-path="url(#peb5502f951)" d="M 447.2775 768.96 
L 448.6725 768.96 
L 448.6725 480.680227 
L 447.2775 480.680227 
z
" style="fill:#1f77b4;"/>
   </g>
   <g id="patch_106">
    <path clip-path="url(#peb5502f951)" d="M 450.0675 768.96 
L 451.4625 768.96 
L 451.4625 475.640302 
L 450.0675 475.640302 
z
" style="fill:#1f77b4;"/>
   </g>
   <g id="patch_107">
    <path clip-path="url(#peb5502f951)" d="M 452.8575 768.96 
L 454.2525 768.96 
L 454.2525 472.691814 
L 452.8575 472.691814 
z
" style="fill:#1f77b4;"/>
   </g>
   <g id="patch_108">
    <path clip-path="url(#peb5502f951)" d="M 455.6475 768.96 
L 457.0425 768.96 
L 457.0425 468.485922 
L 455.6475 468.485922 
z
" style="fill:#1f77b4;"/>
   </g>
   <g id="patch_109">
    <path clip-path="url(#peb5502f951)" d="M 458.4375 768.96 
L 459.8325 768.96 
L 459.8325 461.756693 
L 458.4375 461.756693 
z
" style="fill:#1f77b4;"/>
   </g>
   <g id="patch_110">
    <path clip-path="url(#peb5502f951)" d="M 461.2275 768.96 
L 462.6225 768.96 
L 462.6225 455.807649 
L 461.2275 455.807649 
z
" style="fill:#1f77b4;"/>
   </g>
   <g id="patch_111">
    <path clip-path="url(#peb5502f951)" d="M 464.0175 768.96 
L 465.4125 768.96 
L 465.4125 449.560687 
L 464.0175 449.560687 
z
" style="fill:#1f77b4;"/>
   </g>
   <g id="patch_112">
    <path clip-path="url(#peb5502f951)" d="M 466.8075 768.96 
L 468.2025 768.96 
L 468.2025 443.837162 
L 466.8075 443.837162 
z
" style="fill:#1f77b4;"/>
   </g>
   <g id="patch_113">
    <path clip-path="url(#peb5502f951)" d="M 469.5975 768.96 
L 470.9925 768.96 
L 470.9925 440.091664 
L 469.5975 440.091664 
z
" style="fill:#1f77b4;"/>
   </g>
   <g id="patch_114">
    <path clip-path="url(#peb5502f951)" d="M 472.3875 768.96 
L 473.7825 768.96 
L 473.7825 438.545592 
L 472.3875 438.545592 
z
" style="fill:#1f77b4;"/>
   </g>
   <g id="patch_115">
    <path clip-path="url(#peb5502f951)" d="M 475.1775 768.96 
L 476.5725 768.96 
L 476.5725 434.98694 
L 475.1775 434.98694 
z
" style="fill:#1f77b4;"/>
   </g>
   <g id="patch_116">
    <path clip-path="url(#peb5502f951)" d="M 477.9675 768.96 
L 479.3625 768.96 
L 479.3625 429.913898 
L 477.9675 429.913898 
z
" style="fill:#1f77b4;"/>
   </g>
   <g id="patch_117">
    <path clip-path="url(#peb5502f951)" d="M 480.7575 768.96 
L 482.1525 768.96 
L 482.1525 424.638567 
L 480.7575 424.638567 
z
" style="fill:#1f77b4;"/>
   </g>
   <g id="patch_118">
    <path clip-path="url(#peb5502f951)" d="M 483.5475 768.96 
L 484.9425 768.96 
L 484.9425 419.532674 
L 483.5475 419.532674 
z
" style="fill:#1f77b4;"/>
   </g>
   <g id="patch_119">
    <path clip-path="url(#peb5502f951)" d="M 486.3375 768.96 
L 487.7325 768.96 
L 487.7325 415.132786 
L 486.3375 415.132786 
z
" style="fill:#1f77b4;"/>
   </g>
   <g id="patch_120">
    <path clip-path="url(#peb5502f951)" d="M 489.1275 768.96 
L 490.5225 768.96 
L 490.5225 413.173975 
L 489.1275 413.173975 
z
" style="fill:#1f77b4;"/>
   </g>
   <g id="patch_121">
    <path clip-path="url(#peb5502f951)" d="M 491.9175 768.96 
L 493.3125 768.96 
L 493.3125 412.537128 
L 491.9175 412.537128 
z
" style="fill:#1f77b4;"/>
   </g>
   <g id="patch_122">
    <path clip-path="url(#peb5502f951)" d="M 494.7075 768.96 
L 496.1025 768.96 
L 496.1025 410.361622 
L 494.7075 410.361622 
z
" style="fill:#1f77b4;"/>
   </g>
   <g id="patch_123">
    <path clip-path="url(#peb5502f951)" d="M 497.4975 768.96 
L 498.8925 768.96 
L 498.8925 404.677035 
L 497.4975 404.677035 
z
" style="fill:#1f77b4;"/>
   </g>
   <g id="patch_124">
    <path clip-path="url(#peb5502f951)" d="M 500.2875 768.96 
L 501.6825 768.96 
L 501.6825 399.176557 
L 500.2875 399.176557 
z
" style="fill:#1f77b4;"/>
   </g>
   <g id="patch_125">
    <path clip-path="url(#peb5502f951)" d="M 503.0775 768.96 
L 504.4725 768.96 
L 504.4725 395.040248 
L 503.0775 395.040248 
z
" style="fill:#1f77b4;"/>
   </g>
   <g id="patch_126">
    <path clip-path="url(#peb5502f951)" d="M 505.8675 768.96 
L 507.2625 768.96 
L 507.2625 389.300032 
L 505.8675 389.300032 
z
" style="fill:#1f77b4;"/>
   </g>
   <g id="patch_127">
    <path clip-path="url(#peb5502f951)" d="M 508.6575 768.96 
L 510.0525 768.96 
L 510.0525 385.360325 
L 508.6575 385.360325 
z
" style="fill:#1f77b4;"/>
   </g>
   <g id="patch_128">
    <path clip-path="url(#peb5502f951)" d="M 511.4475 768.96 
L 512.8425 768.96 
L 512.8425 381.697964 
L 511.4475 381.697964 
z
" style="fill:#1f77b4;"/>
   </g>
   <g id="patch_129">
    <path clip-path="url(#peb5502f951)" d="M 514.2375 768.96 
L 515.6325 768.96 
L 515.6325 378.368659 
L 514.2375 378.368659 
z
" style="fill:#1f77b4;"/>
   </g>
   <g id="patch_130">
    <path clip-path="url(#peb5502f951)" d="M 517.0275 768.96 
L 518.4225 768.96 
L 518.4225 374.133638 
L 517.0275 374.133638 
z
" style="fill:#1f77b4;"/>
   </g>
   <g id="patch_131">
    <path clip-path="url(#peb5502f951)" d="M 519.8175 768.96 
L 521.2125 768.96 
L 521.2125 370.280815 
L 519.8175 370.280815 
z
" style="fill:#1f77b4;"/>
   </g>
   <g id="patch_132">
    <path clip-path="url(#peb5502f951)" d="M 522.6075 768.96 
L 524.0025 768.96 
L 524.0025 366.288961 
L 522.6075 366.288961 
z
" style="fill:#1f77b4;"/>
   </g>
   <g id="patch_133">
    <path clip-path="url(#peb5502f951)" d="M 525.3975 768.96 
L 526.7925 768.96 
L 526.7925 360.496784 
L 525.3975 360.496784 
z
" style="fill:#1f77b4;"/>
   </g>
   <g id="patch_134">
    <path clip-path="url(#peb5502f951)" d="M 528.1875 768.96 
L 529.5825 768.96 
L 529.5825 357.312757 
L 528.1875 357.312757 
z
" style="fill:#1f77b4;"/>
   </g>
   <g id="patch_135">
    <path clip-path="url(#peb5502f951)" d="M 530.9775 768.96 
L 532.3725 768.96 
L 532.3725 356.044749 
L 530.9775 356.044749 
z
" style="fill:#1f77b4;"/>
   </g>
   <g id="patch_136">
    <path clip-path="url(#peb5502f951)" d="M 533.7675 768.96 
L 535.1625 768.96 
L 535.1625 353.799502 
L 533.7675 353.799502 
z
" style="fill:#1f77b4;"/>
   </g>
   <g id="patch_137">
    <path clip-path="url(#peb5502f951)" d="M 536.5575 768.96 
L 537.9525 768.96 
L 537.9525 349.639219 
L 536.5575 349.639219 
z
" style="fill:#1f77b4;"/>
   </g>
   <g id="patch_138">
    <path clip-path="url(#peb5502f951)" d="M 539.3475 768.96 
L 540.7425 768.96 
L 540.7425 345.953283 
L 539.3475 345.953283 
z
" style="fill:#1f77b4;"/>
   </g>
   <g id="patch_139">
    <path clip-path="url(#peb5502f951)" d="M 542.1375 768.96 
L 543.5325 768.96 
L 543.5325 340.647466 
L 542.1375 340.647466 
z
" style="fill:#1f77b4;"/>
   </g>
   <g id="patch_140">
    <path clip-path="url(#peb5502f951)" d="M 544.9275 768.96 
L 546.3225 768.96 
L 546.3225 337.199727 
L 544.9275 337.199727 
z
" style="fill:#1f77b4;"/>
   </g>
   <g id="patch_141">
    <path clip-path="url(#peb5502f951)" d="M 547.7175 768.96 
L 549.1125 768.96 
L 549.1125 334.481914 
L 547.7175 334.481914 
z
" style="fill:#1f77b4;"/>
   </g>
   <g id="patch_142">
    <path clip-path="url(#peb5502f951)" d="M 550.5075 768.96 
L 551.9025 768.96 
L 551.9025 333.245481 
L 550.5075 333.245481 
z
" style="fill:#1f77b4;"/>
   </g>
   <g id="patch_143">
    <path clip-path="url(#peb5502f951)" d="M 553.2975 768.96 
L 554.6925 768.96 
L 554.6925 331.168157 
L 553.2975 331.168157 
z
" style="fill:#1f77b4;"/>
   </g>
   <g id="patch_144">
    <path clip-path="url(#peb5502f951)" d="M 556.0875 768.96 
L 557.4825 768.96 
L 557.4825 328.630573 
L 556.0875 328.630573 
z
" style="fill:#1f77b4;"/>
   </g>
   <g id="patch_145">
    <path clip-path="url(#peb5502f951)" d="M 558.8775 768.96 
L 560.2725 768.96 
L 560.2725 326.117335 
L 558.8775 326.117335 
z
" style="fill:#1f77b4;"/>
   </g>
   <g id="patch_146">
    <path clip-path="url(#peb5502f951)" d="M 561.6675 768.96 
L 563.0625 768.96 
L 563.0625 323.419908 
L 561.6675 323.419908 
z
" style="fill:#1f77b4;"/>
   </g>
   <g id="patch_147">
    <path clip-path="url(#peb5502f951)" d="M 564.4575 768.96 
L 565.8525 768.96 
L 565.8525 320.917566 
L 564.4575 320.917566 
z
" style="fill:#1f77b4;"/>
   </g>
   <g id="patch_148">
    <path clip-path="url(#peb5502f951)" d="M 567.2475 768.96 
L 568.6425 768.96 
L 568.6425 319.206441 
L 567.2475 319.206441 
z
" style="fill:#1f77b4;"/>
   </g>
   <g id="patch_149">
    <path clip-path="url(#peb5502f951)" d="M 570.0375 768.96 
L 571.4325 768.96 
L 571.4325 318.246292 
L 570.0375 318.246292 
z
" style="fill:#1f77b4;"/>
   </g>
   <g id="patch_150">
    <path clip-path="url(#peb5502f951)" d="M 572.8275 768.96 
L 574.2225 768.96 
L 574.2225 317.551955 
L 572.8275 317.551955 
z
" style="fill:#1f77b4;"/>
   </g>
   <g id="patch_151">
    <path clip-path="url(#peb5502f951)" d="M 575.6175 768.96 
L 577.0125 768.96 
L 577.0125 316.057498 
L 575.6175 316.057498 
z
" style="fill:#1f77b4;"/>
   </g>
   <g id="patch_152">
    <path clip-path="url(#peb5502f951)" d="M 578.4075 768.96 
L 579.8025 768.96 
L 579.8025 314.497392 
L 578.4075 314.497392 
z
" style="fill:#1f77b4;"/>
   </g>
   <g id="patch_153">
    <path clip-path="url(#peb5502f951)" d="M 581.1975 768.96 
L 582.5925 768.96 
L 582.5925 312.085551 
L 581.1975 312.085551 
z
" style="fill:#1f77b4;"/>
   </g>
   <g id="patch_154">
    <path clip-path="url(#peb5502f951)" d="M 583.9875 768.96 
L 585.3825 768.96 
L 585.3825 309.477613 
L 583.9875 309.477613 
z
" style="fill:#1f77b4;"/>
   </g>
   <g id="patch_155">
    <path clip-path="url(#peb5502f951)" d="M 586.7775 768.96 
L 588.1725 768.96 
L 588.1725 307.223994 
L 586.7775 307.223994 
z
" style="fill:#1f77b4;"/>
   </g>
   <g id="patch_156">
    <path clip-path="url(#peb5502f951)" d="M 589.5675 768.96 
L 590.9625 768.96 
L 590.9625 305.650253 
L 589.5675 305.650253 
z
" style="fill:#1f77b4;"/>
   </g>
   <g id="patch_157">
    <path clip-path="url(#peb5502f951)" d="M 592.3575 768.96 
L 593.7525 768.96 
L 593.7525 303.488569 
L 592.3575 303.488569 
z
" style="fill:#1f77b4;"/>
   </g>
   <g id="patch_158">
    <path clip-path="url(#peb5502f951)" d="M 595.1475 768.96 
L 596.5425 768.96 
L 596.5425 301.04704 
L 595.1475 301.04704 
z
" style="fill:#1f77b4;"/>
   </g>
   <g id="patch_159">
    <path clip-path="url(#peb5502f951)" d="M 597.9375 768.96 
L 599.3325 768.96 
L 599.3325 298.10291 
L 597.9375 298.10291 
z
" style="fill:#1f77b4;"/>
   </g>
   <g id="patch_160">
    <path clip-path="url(#peb5502f951)" d="M 600.7275 768.96 
L 602.1225 768.96 
L 602.1225 296.078743 
L 600.7275 296.078743 
z
" style="fill:#1f77b4;"/>
   </g>
   <g id="patch_161">
    <path clip-path="url(#peb5502f951)" d="M 603.5175 768.96 
L 604.9125 768.96 
L 604.9125 294.158472 
L 603.5175 294.158472 
z
" style="fill:#1f77b4;"/>
   </g>
   <g id="patch_162">
    <path clip-path="url(#peb5502f951)" d="M 606.3075 768.96 
L 607.7025 768.96 
L 607.7025 292.994838 
L 606.3075 292.994838 
z
" style="fill:#1f77b4;"/>
   </g>
   <g id="patch_163">
    <path clip-path="url(#peb5502f951)" d="M 609.0975 768.96 
L 610.4925 768.96 
L 610.4925 291.8522 
L 609.0975 291.8522 
z
" style="fill:#1f77b4;"/>
   </g>
   <g id="patch_164">
    <path clip-path="url(#peb5502f951)" d="M 611.8875 768.96 
L 613.2825 768.96 
L 613.2825 288.419212 
L 611.8875 288.419212 
z
" style="fill:#1f77b4;"/>
   </g>
   <g id="patch_165">
    <path clip-path="url(#peb5502f951)" d="M 614.6775 768.96 
L 616.0725 768.96 
L 616.0725 285.778158 
L 614.6775 285.778158 
z
" style="fill:#1f77b4;"/>
   </g>
   <g id="patch_166">
    <path clip-path="url(#peb5502f951)" d="M 617.4675 768.96 
L 618.8625 768.96 
L 618.8625 283.956652 
L 617.4675 283.956652 
z
" style="fill:#1f77b4;"/>
   </g>
   <g id="patch_167">
    <path clip-path="url(#peb5502f951)" d="M 620.2575 768.96 
L 621.6525 768.96 
L 621.6525 281.549489 
L 620.2575 281.549489 
z
" style="fill:#1f77b4;"/>
   </g>
   <g id="patch_168">
    <path clip-path="url(#peb5502f951)" d="M 623.0475 768.96 
L 624.4425 768.96 
L 624.4425 280.409722 
L 623.0475 280.409722 
z
" style="fill:#1f77b4;"/>
   </g>
   <g id="patch_169">
    <path clip-path="url(#peb5502f951)" d="M 625.8375 768.96 
L 627.2325 768.96 
L 627.2325 278.610489 
L 625.8375 278.610489 
z
" style="fill:#1f77b4;"/>
   </g>
   <g id="patch_170">
    <path clip-path="url(#peb5502f951)" d="M 628.6275 768.96 
L 630.0225 768.96 
L 630.0225 277.848563 
L 628.6275 277.848563 
z
" style="fill:#1f77b4;"/>
   </g>
   <g id="patch_171">
    <path clip-path="url(#peb5502f951)" d="M 631.4175 768.96 
L 632.8125 768.96 
L 632.8125 276.880919 
L 631.4175 276.880919 
z
" style="fill:#1f77b4;"/>
   </g>
   <g id="patch_172">
    <path clip-path="url(#peb5502f951)" d="M 634.2075 768.96 
L 635.6025 768.96 
L 635.6025 275.707371 
L 634.2075 275.707371 
z
" style="fill:#1f77b4;"/>
   </g>
   <g id="patch_173">
    <path clip-path="url(#peb5502f951)" d="M 636.9975 768.96 
L 638.3925 768.96 
L 638.3925 274.309846 
L 636.9975 274.309846 
z
" style="fill:#1f77b4;"/>
   </g>
   <g id="patch_174">
    <path clip-path="url(#peb5502f951)" d="M 639.7875 768.96 
L 641.1825 768.96 
L 641.1825 272.606986 
L 639.7875 272.606986 
z
" style="fill:#1f77b4;"/>
   </g>
   <g id="patch_175">
    <path clip-path="url(#peb5502f951)" d="M 642.5775 768.96 
L 643.9725 768.96 
L 643.9725 268.642082 
L 642.5775 268.642082 
z
" style="fill:#1f77b4;"/>
   </g>
   <g id="patch_176">
    <path clip-path="url(#peb5502f951)" d="M 645.3675 768.96 
L 646.7625 768.96 
L 646.7625 264.040676 
L 645.3675 264.040676 
z
" style="fill:#1f77b4;"/>
   </g>
   <g id="patch_177">
    <path clip-path="url(#peb5502f951)" d="M 648.1575 768.96 
L 649.5525 768.96 
L 649.5525 263.657972 
L 648.1575 263.657972 
z
" style="fill:#1f77b4;"/>
   </g>
   <g id="patch_178">
    <path clip-path="url(#peb5502f951)" d="M 650.9475 768.96 
L 652.3425 768.96 
L 652.3425 262.692162 
L 650.9475 262.692162 
z
" style="fill:#1f77b4;"/>
   </g>
   <g id="patch_179">
    <path clip-path="url(#peb5502f951)" d="M 653.7375 768.96 
L 655.1325 768.96 
L 655.1325 261.489324 
L 653.7375 261.489324 
z
" style="fill:#1f77b4;"/>
   </g>
   <g id="patch_180">
    <path clip-path="url(#peb5502f951)" d="M 656.5275 768.96 
L 657.9225 768.96 
L 657.9225 260.333424 
L 656.5275 260.333424 
z
" style="fill:#1f77b4;"/>
   </g>
   <g id="patch_181">
    <path clip-path="url(#peb5502f951)" d="M 659.3175 768.96 
L 660.7125 768.96 
L 660.7125 259.285726 
L 659.3175 259.285726 
z
" style="fill:#1f77b4;"/>
   </g>
   <g id="patch_182">
    <path clip-path="url(#peb5502f951)" d="M 662.1075 768.96 
L 663.5025 768.96 
L 663.5025 258.242014 
L 662.1075 258.242014 
z
" style="fill:#1f77b4;"/>
   </g>
   <g id="patch_183">
    <path clip-path="url(#peb5502f951)" d="M 664.8975 768.96 
L 666.2925 768.96 
L 666.2925 257.469536 
L 664.8975 257.469536 
z
" style="fill:#1f77b4;"/>
   </g>
   <g id="patch_184">
    <path clip-path="url(#peb5502f951)" d="M 667.6875 768.96 
L 669.0825 768.96 
L 669.0825 257.093051 
L 667.6875 257.093051 
z
" style="fill:#1f77b4;"/>
   </g>
   <g id="patch_185">
    <path clip-path="url(#peb5502f951)" d="M 670.4775 768.96 
L 671.8725 768.96 
L 671.8725 257.026259 
L 670.4775 257.026259 
z
" style="fill:#1f77b4;"/>
   </g>
   <g id="patch_186">
    <path clip-path="url(#peb5502f951)" d="M 673.2675 768.96 
L 674.6625 768.96 
L 674.6625 256.418541 
L 673.2675 256.418541 
z
" style="fill:#1f77b4;"/>
   </g>
   <g id="patch_187">
    <path clip-path="url(#peb5502f951)" d="M 676.0575 768.96 
L 677.4525 768.96 
L 677.4525 255.335653 
L 676.0575 255.335653 
z
" style="fill:#1f77b4;"/>
   </g>
   <g id="patch_188">
    <path clip-path="url(#peb5502f951)" d="M 678.8475 768.96 
L 680.2425 768.96 
L 680.2425 254.248432 
L 678.8475 254.248432 
z
" style="fill:#1f77b4;"/>
   </g>
   <g id="patch_189">
    <path clip-path="url(#peb5502f951)" d="M 681.6375 768.96 
L 683.0325 768.96 
L 683.0325 253.282276 
L 681.6375 253.282276 
z
" style="fill:#1f77b4;"/>
   </g>
   <g id="patch_190">
    <path clip-path="url(#peb5502f951)" d="M 684.4275 768.96 
L 685.8225 768.96 
L 685.8225 252.483405 
L 684.4275 252.483405 
z
" style="fill:#1f77b4;"/>
   </g>
   <g id="patch_191">
    <path clip-path="url(#peb5502f951)" d="M 687.2175 768.96 
L 688.6125 768.96 
L 688.6125 251.938971 
L 687.2175 251.938971 
z
" style="fill:#1f77b4;"/>
   </g>
   <g id="patch_192">
    <path clip-path="url(#peb5502f951)" d="M 690.0075 768.96 
L 691.4025 768.96 
L 691.4025 250.914502 
L 690.0075 250.914502 
z
" style="fill:#1f77b4;"/>
   </g>
   <g id="patch_193">
    <path clip-path="url(#peb5502f951)" d="M 692.7975 768.96 
L 694.1925 768.96 
L 694.1925 250.062767 
L 692.7975 250.062767 
z
" style="fill:#1f77b4;"/>
   </g>
   <g id="patch_194">
    <path clip-path="url(#peb5502f951)" d="M 695.5875 768.96 
L 696.9825 768.96 
L 696.9825 249.247338 
L 695.5875 249.247338 
z
" style="fill:#1f77b4;"/>
   </g>
   <g id="patch_195">
    <path clip-path="url(#peb5502f951)" d="M 698.3775 768.96 
L 699.7725 768.96 
L 699.7725 248.440387 
L 698.3775 248.440387 
z
" style="fill:#1f77b4;"/>
   </g>
   <g id="patch_196">
    <path clip-path="url(#peb5502f951)" d="M 701.1675 768.96 
L 702.5625 768.96 
L 702.5625 247.624719 
L 701.1675 247.624719 
z
" style="fill:#1f77b4;"/>
   </g>
   <g id="patch_197">
    <path clip-path="url(#peb5502f951)" d="M 703.9575 768.96 
L 705.3525 768.96 
L 705.3525 246.951884 
L 703.9575 246.951884 
z
" style="fill:#1f77b4;"/>
   </g>
   <g id="patch_198">
    <path clip-path="url(#peb5502f951)" d="M 706.7475 768.96 
L 708.1425 768.96 
L 708.1425 246.494388 
L 706.7475 246.494388 
z
" style="fill:#1f77b4;"/>
   </g>
   <g id="patch_199">
    <path clip-path="url(#peb5502f951)" d="M 709.5375 768.96 
L 710.9325 768.96 
L 710.9325 245.80712 
L 709.5375 245.80712 
z
" style="fill:#1f77b4;"/>
   </g>
   <g id="patch_200">
    <path clip-path="url(#peb5502f951)" d="M 712.3275 768.96 
L 713.7225 768.96 
L 713.7225 244.889577 
L 712.3275 244.889577 
z
" style="fill:#1f77b4;"/>
   </g>
   <g id="patch_201">
    <path clip-path="url(#peb5502f951)" d="M 715.1175 768.96 
L 716.5125 768.96 
L 716.5125 244.029761 
L 715.1175 244.029761 
z
" style="fill:#1f77b4;"/>
   </g>
   <g id="patch_202">
    <path clip-path="url(#peb5502f951)" d="M 717.9075 768.96 
L 719.3025 768.96 
L 719.3025 243.406974 
L 717.9075 243.406974 
z
" style="fill:#1f77b4;"/>
   </g>
   <g id="patch_203">
    <path clip-path="url(#peb5502f951)" d="M 720.6975 768.96 
L 722.0925 768.96 
L 722.0925 242.762896 
L 720.6975 242.762896 
z
" style="fill:#1f77b4;"/>
   </g>
   <g id="patch_204">
    <path clip-path="url(#peb5502f951)" d="M 723.4875 768.96 
L 724.8825 768.96 
L 724.8825 242.366318 
L 723.4875 242.366318 
z
" style="fill:#1f77b4;"/>
   </g>
   <g id="patch_205">
    <path clip-path="url(#peb5502f951)" d="M 726.2775 768.96 
L 727.6725 768.96 
L 727.6725 242.136494 
L 726.2775 242.136494 
z
" style="fill:#1f77b4;"/>
   </g>
   <g id="patch_206">
    <path clip-path="url(#peb5502f951)" d="M 729.0675 768.96 
L 730.4625 768.96 
L 730.4625 241.74656 
L 729.0675 241.74656 
z
" style="fill:#1f77b4;"/>
   </g>
   <g id="patch_207">
    <path clip-path="url(#peb5502f951)" d="M 731.8575 768.96 
L 733.2525 768.96 
L 733.2525 240.87234 
L 731.8575 240.87234 
z
" style="fill:#1f77b4;"/>
   </g>
   <g id="patch_208">
    <path clip-path="url(#peb5502f951)" d="M 734.6475 768.96 
L 736.0425 768.96 
L 736.0425 239.417192 
L 734.6475 239.417192 
z
" style="fill:#1f77b4;"/>
   </g>
   <g id="patch_209">
    <path clip-path="url(#peb5502f951)" d="M 737.4375 768.96 
L 738.8325 768.96 
L 738.8325 238.650216 
L 737.4375 238.650216 
z
" style="fill:#1f77b4;"/>
   </g>
   <g id="patch_210">
    <path clip-path="url(#peb5502f951)" d="M 740.2275 768.96 
L 741.6225 768.96 
L 741.6225 236.836524 
L 740.2275 236.836524 
z
" style="fill:#1f77b4;"/>
   </g>
   <g id="patch_211">
    <path clip-path="url(#peb5502f951)" d="M 743.0175 768.96 
L 744.4125 768.96 
L 744.4125 236.241963 
L 743.0175 236.241963 
z
" style="fill:#1f77b4;"/>
   </g>
   <g id="patch_212">
    <path clip-path="url(#peb5502f951)" d="M 745.8075 768.96 
L 747.2025 768.96 
L 747.2025 235.802646 
L 745.8075 235.802646 
z
" style="fill:#1f77b4;"/>
   </g>
   <g id="patch_213">
    <path clip-path="url(#peb5502f951)" d="M 748.5975 768.96 
L 749.9925 768.96 
L 749.9925 235.20463 
L 748.5975 235.20463 
z
" style="fill:#1f77b4;"/>
   </g>
   <g id="patch_214">
    <path clip-path="url(#peb5502f951)" d="M 751.3875 768.96 
L 752.7825 768.96 
L 752.7825 234.388908 
L 751.3875 234.388908 
z
" style="fill:#1f77b4;"/>
   </g>
   <g id="patch_215">
    <path clip-path="url(#peb5502f951)" d="M 754.1775 768.96 
L 755.5725 768.96 
L 755.5725 233.643487 
L 754.1775 233.643487 
z
" style="fill:#1f77b4;"/>
   </g>
   <g id="patch_216">
    <path clip-path="url(#peb5502f951)" d="M 756.9675 768.96 
L 758.3625 768.96 
L 758.3625 232.861653 
L 756.9675 232.861653 
z
" style="fill:#1f77b4;"/>
   </g>
   <g id="patch_217">
    <path clip-path="url(#peb5502f951)" d="M 759.7575 768.96 
L 761.1525 768.96 
L 761.1525 232.009466 
L 759.7575 232.009466 
z
" style="fill:#1f77b4;"/>
   </g>
   <g id="patch_218">
    <path clip-path="url(#peb5502f951)" d="M 762.5475 768.96 
L 763.9425 768.96 
L 763.9425 230.551156 
L 762.5475 230.551156 
z
" style="fill:#1f77b4;"/>
   </g>
   <g id="patch_219">
    <path clip-path="url(#peb5502f951)" d="M 765.3375 768.96 
L 766.7325 768.96 
L 766.7325 230.042948 
L 765.3375 230.042948 
z
" style="fill:#1f77b4;"/>
   </g>
   <g id="patch_220">
    <path clip-path="url(#peb5502f951)" d="M 768.1275 768.96 
L 769.5225 768.96 
L 769.5225 229.462287 
L 768.1275 229.462287 
z
" style="fill:#1f77b4;"/>
   </g>
   <g id="patch_221">
    <path clip-path="url(#peb5502f951)" d="M 770.9175 768.96 
L 772.3125 768.96 
L 772.3125 228.896882 
L 770.9175 228.896882 
z
" style="fill:#1f77b4;"/>
   </g>
   <g id="patch_222">
    <path clip-path="url(#peb5502f951)" d="M 773.7075 768.96 
L 775.1025 768.96 
L 775.1025 226.703277 
L 773.7075 226.703277 
z
" style="fill:#1f77b4;"/>
   </g>
   <g id="patch_223">
    <path clip-path="url(#peb5502f951)" d="M 776.4975 768.96 
L 777.8925 768.96 
L 777.8925 224.79268 
L 776.4975 224.79268 
z
" style="fill:#1f77b4;"/>
   </g>
   <g id="patch_224">
    <path clip-path="url(#peb5502f951)" d="M 779.2875 768.96 
L 780.6825 768.96 
L 780.6825 223.208069 
L 779.2875 223.208069 
z
" style="fill:#1f77b4;"/>
   </g>
   <g id="patch_225">
    <path clip-path="url(#peb5502f951)" d="M 782.0775 768.96 
L 783.4725 768.96 
L 783.4725 220.978158 
L 782.0775 220.978158 
z
" style="fill:#1f77b4;"/>
   </g>
   <g id="patch_226">
    <path clip-path="url(#peb5502f951)" d="M 784.8675 768.96 
L 786.2625 768.96 
L 786.2625 219.460471 
L 784.8675 219.460471 
z
" style="fill:#1f77b4;"/>
   </g>
   <g id="patch_227">
    <path clip-path="url(#peb5502f951)" d="M 787.6575 768.96 
L 789.0525 768.96 
L 789.0525 218.773602 
L 787.6575 218.773602 
z
" style="fill:#1f77b4;"/>
   </g>
   <g id="patch_228">
    <path clip-path="url(#peb5502f951)" d="M 790.4475 768.96 
L 791.8425 768.96 
L 791.8425 217.791712 
L 790.4475 217.791712 
z
" style="fill:#1f77b4;"/>
   </g>
   <g id="patch_229">
    <path clip-path="url(#peb5502f951)" d="M 793.2375 768.96 
L 794.6325 768.96 
L 794.6325 216.858009 
L 793.2375 216.858009 
z
" style="fill:#1f77b4;"/>
   </g>
   <g id="patch_230">
    <path clip-path="url(#peb5502f951)" d="M 796.0275 768.96 
L 797.4225 768.96 
L 797.4225 215.969037 
L 796.0275 215.969037 
z
" style="fill:#1f77b4;"/>
   </g>
   <g id="patch_231">
    <path clip-path="url(#peb5502f951)" d="M 798.8175 768.96 
L 800.2125 768.96 
L 800.2125 215.108504 
L 798.8175 215.108504 
z
" style="fill:#1f77b4;"/>
   </g>
   <g id="patch_232">
    <path clip-path="url(#peb5502f951)" d="M 801.6075 768.96 
L 803.0025 768.96 
L 803.0025 214.249619 
L 801.6075 214.249619 
z
" style="fill:#1f77b4;"/>
   </g>
   <g id="patch_233">
    <path clip-path="url(#peb5502f951)" d="M 804.3975 768.96 
L 805.7925 768.96 
L 805.7925 213.679909 
L 804.3975 213.679909 
z
" style="fill:#1f77b4;"/>
   </g>
   <g id="patch_234">
    <path clip-path="url(#peb5502f951)" d="M 807.1875 768.96 
L 808.5825 768.96 
L 808.5825 212.964734 
L 807.1875 212.964734 
z
" style="fill:#1f77b4;"/>
   </g>
   <g id="patch_235">
    <path clip-path="url(#peb5502f951)" d="M 809.9775 768.96 
L 811.3725 768.96 
L 811.3725 211.97293 
L 809.9775 211.97293 
z
" style="fill:#1f77b4;"/>
   </g>
   <g id="patch_236">
    <path clip-path="url(#peb5502f951)" d="M 812.7675 768.96 
L 814.1625 768.96 
L 814.1625 211.022562 
L 812.7675 211.022562 
z
" style="fill:#1f77b4;"/>
   </g>
   <g id="patch_237">
    <path clip-path="url(#peb5502f951)" d="M 815.5575 768.96 
L 816.9525 768.96 
L 816.9525 209.988498 
L 815.5575 209.988498 
z
" style="fill:#1f77b4;"/>
   </g>
   <g id="patch_238">
    <path clip-path="url(#peb5502f951)" d="M 818.3475 768.96 
L 819.7425 768.96 
L 819.7425 208.815481 
L 818.3475 208.815481 
z
" style="fill:#1f77b4;"/>
   </g>
   <g id="patch_239">
    <path clip-path="url(#peb5502f951)" d="M 821.1375 768.96 
L 822.5325 768.96 
L 822.5325 207.093858 
L 821.1375 207.093858 
z
" style="fill:#1f77b4;"/>
   </g>
   <g id="patch_240">
    <path clip-path="url(#peb5502f951)" d="M 823.9275 768.96 
L 825.3225 768.96 
L 825.3225 204.355951 
L 823.9275 204.355951 
z
" style="fill:#1f77b4;"/>
   </g>
   <g id="patch_241">
    <path clip-path="url(#peb5502f951)" d="M 826.7175 768.96 
L 828.1125 768.96 
L 828.1125 203.139266 
L 826.7175 203.139266 
z
" style="fill:#1f77b4;"/>
   </g>
   <g id="patch_242">
    <path clip-path="url(#peb5502f951)" d="M 829.5075 768.96 
L 830.9025 768.96 
L 830.9025 202.147197 
L 829.5075 202.147197 
z
" style="fill:#1f77b4;"/>
   </g>
   <g id="patch_243">
    <path clip-path="url(#peb5502f951)" d="M 832.2975 768.96 
L 833.6925 768.96 
L 833.6925 201.226277 
L 832.2975 201.226277 
z
" style="fill:#1f77b4;"/>
   </g>
   <g id="patch_244">
    <path clip-path="url(#peb5502f951)" d="M 835.0875 768.96 
L 836.4825 768.96 
L 836.4825 200.368323 
L 835.0875 200.368323 
z
" style="fill:#1f77b4;"/>
   </g>
   <g id="patch_245">
    <path clip-path="url(#peb5502f951)" d="M 837.8775 768.96 
L 839.2725 768.96 
L 839.2725 199.506886 
L 837.8775 199.506886 
z
" style="fill:#1f77b4;"/>
   </g>
   <g id="patch_246">
    <path clip-path="url(#peb5502f951)" d="M 840.6675 768.96 
L 842.0625 768.96 
L 842.0625 198.727179 
L 840.6675 198.727179 
z
" style="fill:#1f77b4;"/>
   </g>
   <g id="patch_247">
    <path clip-path="url(#peb5502f951)" d="M 843.4575 768.96 
L 844.8525 768.96 
L 844.8525 198.196246 
L 843.4575 198.196246 
z
" style="fill:#1f77b4;"/>
   </g>
   <g id="patch_248">
    <path clip-path="url(#peb5502f951)" d="M 846.2475 768.96 
L 847.6425 768.96 
L 847.6425 197.82133 
L 846.2475 197.82133 
z
" style="fill:#1f77b4;"/>
   </g>
   <g id="patch_249">
    <path clip-path="url(#peb5502f951)" d="M 849.0375 768.96 
L 850.4325 768.96 
L 850.4325 197.343661 
L 849.0375 197.343661 
z
" style="fill:#1f77b4;"/>
   </g>
   <g id="patch_250">
    <path clip-path="url(#peb5502f951)" d="M 851.8275 768.96 
L 853.2225 768.96 
L 853.2225 196.379126 
L 851.8275 196.379126 
z
" style="fill:#1f77b4;"/>
   </g>
   <g id="patch_251">
    <path clip-path="url(#peb5502f951)" d="M 854.6175 768.96 
L 856.0125 768.96 
L 856.0125 195.52561 
L 854.6175 195.52561 
z
" style="fill:#1f77b4;"/>
   </g>
   <g id="patch_252">
    <path clip-path="url(#peb5502f951)" d="M 857.4075 768.96 
L 858.8025 768.96 
L 858.8025 194.713477 
L 857.4075 194.713477 
z
" style="fill:#1f77b4;"/>
   </g>
   <g id="patch_253">
    <path clip-path="url(#peb5502f951)" d="M 860.1975 768.96 
L 861.5925 768.96 
L 861.5925 193.988574 
L 860.1975 193.988574 
z
" style="fill:#1f77b4;"/>
   </g>
   <g id="patch_254">
    <path clip-path="url(#peb5502f951)" d="M 862.9875 768.96 
L 864.3825 768.96 
L 864.3825 193.451927 
L 862.9875 193.451927 
z
" style="fill:#1f77b4;"/>
   </g>
   <g id="patch_255">
    <path clip-path="url(#peb5502f951)" d="M 865.7775 768.96 
L 867.1725 768.96 
L 867.1725 192.839505 
L 865.7775 192.839505 
z
" style="fill:#1f77b4;"/>
   </g>
   <g id="patch_256">
    <path clip-path="url(#peb5502f951)" d="M 868.5675 768.96 
L 869.9625 768.96 
L 869.9625 191.998587 
L 868.5675 191.998587 
z
" style="fill:#1f77b4;"/>
   </g>
   <g id="patch_257">
    <path clip-path="url(#peb5502f951)" d="M 871.3575 768.96 
L 872.7525 768.96 
L 872.7525 191.199238 
L 871.3575 191.199238 
z
" style="fill:#1f77b4;"/>
   </g>
   <g id="patch_258">
    <path clip-path="url(#peb5502f951)" d="M 874.1475 768.96 
L 875.5425 768.96 
L 875.5425 190.394467 
L 874.1475 190.394467 
z
" style="fill:#1f77b4;"/>
   </g>
   <g id="patch_259">
    <path clip-path="url(#peb5502f951)" d="M 876.9375 768.96 
L 878.3325 768.96 
L 878.3325 189.562825 
L 876.9375 189.562825 
z
" style="fill:#1f77b4;"/>
   </g>
   <g id="patch_260">
    <path clip-path="url(#peb5502f951)" d="M 879.7275 768.96 
L 881.1225 768.96 
L 881.1225 188.759197 
L 879.7275 188.759197 
z
" style="fill:#1f77b4;"/>
   </g>
   <g id="patch_261">
    <path clip-path="url(#peb5502f951)" d="M 882.5175 768.96 
L 883.9125 768.96 
L 883.9125 188.182709 
L 882.5175 188.182709 
z
" style="fill:#1f77b4;"/>
   </g>
   <g id="patch_262">
    <path clip-path="url(#peb5502f951)" d="M 885.3075 768.96 
L 886.7025 768.96 
L 886.7025 187.631471 
L 885.3075 187.631471 
z
" style="fill:#1f77b4;"/>
   </g>
   <g id="patch_263">
    <path clip-path="url(#peb5502f951)" d="M 888.0975 768.96 
L 889.4925 768.96 
L 889.4925 186.694976 
L 888.0975 186.694976 
z
" style="fill:#1f77b4;"/>
   </g>
   <g id="patch_264">
    <path clip-path="url(#peb5502f951)" d="M 890.8875 768.96 
L 892.2825 768.96 
L 892.2825 186.010128 
L 890.8875 186.010128 
z
" style="fill:#1f77b4;"/>
   </g>
   <g id="patch_265">
    <path clip-path="url(#peb5502f951)" d="M 893.6775 768.96 
L 895.0725 768.96 
L 895.0725 185.009872 
L 893.6775 185.009872 
z
" style="fill:#1f77b4;"/>
   </g>
   <g id="patch_266">
    <path clip-path="url(#peb5502f951)" d="M 896.4675 768.96 
L 897.8625 768.96 
L 897.8625 184.053178 
L 896.4675 184.053178 
z
" style="fill:#1f77b4;"/>
   </g>
   <g id="patch_267">
    <path clip-path="url(#peb5502f951)" d="M 899.2575 768.96 
L 900.6525 768.96 
L 900.6525 183.297577 
L 899.2575 183.297577 
z
" style="fill:#1f77b4;"/>
   </g>
   <g id="patch_268">
    <path clip-path="url(#peb5502f951)" d="M 902.0475 768.96 
L 903.4425 768.96 
L 903.4425 182.806007 
L 902.0475 182.806007 
z
" style="fill:#1f77b4;"/>
   </g>
   <g id="patch_269">
    <path clip-path="url(#peb5502f951)" d="M 904.8375 768.96 
L 906.2325 768.96 
L 906.2325 182.177771 
L 904.8375 182.177771 
z
" style="fill:#1f77b4;"/>
   </g>
   <g id="patch_270">
    <path clip-path="url(#peb5502f951)" d="M 907.6275 768.96 
L 909.0225 768.96 
L 909.0225 181.441945 
L 907.6275 181.441945 
z
" style="fill:#1f77b4;"/>
   </g>
   <g id="patch_271">
    <path clip-path="url(#peb5502f951)" d="M 910.4175 768.96 
L 911.8125 768.96 
L 911.8125 180.904341 
L 910.4175 180.904341 
z
" style="fill:#1f77b4;"/>
   </g>
   <g id="patch_272">
    <path clip-path="url(#peb5502f951)" d="M 913.2075 768.96 
L 914.6025 768.96 
L 914.6025 180.530115 
L 913.2075 180.530115 
z
" style="fill:#1f77b4;"/>
   </g>
   <g id="patch_273">
    <path clip-path="url(#peb5502f951)" d="M 915.9975 768.96 
L 917.3925 768.96 
L 917.3925 179.606432 
L 915.9975 179.606432 
z
" style="fill:#1f77b4;"/>
   </g>
   <g id="patch_274">
    <path clip-path="url(#peb5502f951)" d="M 918.7875 768.96 
L 920.1825 768.96 
L 920.1825 178.404179 
L 918.7875 178.404179 
z
" style="fill:#1f77b4;"/>
   </g>
   <g id="patch_275">
    <path clip-path="url(#peb5502f951)" d="M 921.5775 768.96 
L 922.9725 768.96 
L 922.9725 177.997262 
L 921.5775 177.997262 
z
" style="fill:#1f77b4;"/>
   </g>
   <g id="patch_276">
    <path clip-path="url(#peb5502f951)" d="M 924.3675 768.96 
L 925.7625 768.96 
L 925.7625 177.203973 
L 924.3675 177.203973 
z
" style="fill:#1f77b4;"/>
   </g>
   <g id="patch_277">
    <path clip-path="url(#peb5502f951)" d="M 927.1575 768.96 
L 928.5525 768.96 
L 928.5525 176.75958 
L 927.1575 176.75958 
z
" style="fill:#1f77b4;"/>
   </g>
   <g id="patch_278">
    <path clip-path="url(#peb5502f951)" d="M 929.9475 768.96 
L 931.3425 768.96 
L 931.3425 175.842196 
L 929.9475 175.842196 
z
" style="fill:#1f77b4;"/>
   </g>
   <g id="patch_279">
    <path clip-path="url(#peb5502f951)" d="M 932.7375 768.96 
L 934.1325 768.96 
L 934.1325 175.216644 
L 932.7375 175.216644 
z
" style="fill:#1f77b4;"/>
   </g>
   <g id="patch_280">
    <path clip-path="url(#peb5502f951)" d="M 935.5275 768.96 
L 936.9225 768.96 
L 936.9225 174.606295 
L 935.5275 174.606295 
z
" style="fill:#1f77b4;"/>
   </g>
   <g id="patch_281">
    <path clip-path="url(#peb5502f951)" d="M 938.3175 768.96 
L 939.7125 768.96 
L 939.7125 174.183298 
L 938.3175 174.183298 
z
" style="fill:#1f77b4;"/>
   </g>
   <g id="patch_282">
    <path clip-path="url(#peb5502f951)" d="M 941.1075 768.96 
L 942.5025 768.96 
L 942.5025 173.879851 
L 941.1075 173.879851 
z
" style="fill:#1f77b4;"/>
   </g>
   <g id="patch_283">
    <path clip-path="url(#peb5502f951)" d="M 943.8975 768.96 
L 945.2925 768.96 
L 945.2925 173.459937 
L 943.8975 173.459937 
z
" style="fill:#1f77b4;"/>
   </g>
   <g id="patch_284">
    <path clip-path="url(#peb5502f951)" d="M 946.6875 768.96 
L 948.0825 768.96 
L 948.0825 172.831009 
L 946.6875 172.831009 
z
" style="fill:#1f77b4;"/>
   </g>
   <g id="patch_285">
    <path clip-path="url(#peb5502f951)" d="M 949.4775 768.96 
L 950.8725 768.96 
L 950.8725 172.146851 
L 949.4775 172.146851 
z
" style="fill:#1f77b4;"/>
   </g>
   <g id="patch_286">
    <path clip-path="url(#peb5502f951)" d="M 952.2675 768.96 
L 953.6625 768.96 
L 953.6625 171.647547 
L 952.2675 171.647547 
z
" style="fill:#1f77b4;"/>
   </g>
   <g id="patch_287">
    <path clip-path="url(#peb5502f951)" d="M 955.0575 768.96 
L 956.4525 768.96 
L 956.4525 170.810802 
L 955.0575 170.810802 
z
" style="fill:#1f77b4;"/>
   </g>
   <g id="patch_288">
    <path clip-path="url(#peb5502f951)" d="M 957.8475 768.96 
L 959.2425 768.96 
L 959.2425 170.323884 
L 957.8475 170.323884 
z
" style="fill:#1f77b4;"/>
   </g>
   <g id="patch_289">
    <path clip-path="url(#peb5502f951)" d="M 960.6375 768.96 
L 962.0325 768.96 
L 962.0325 170.038935 
L 960.6375 170.038935 
z
" style="fill:#1f77b4;"/>
   </g>
   <g id="patch_290">
    <path clip-path="url(#peb5502f951)" d="M 963.4275 768.96 
L 964.8225 768.96 
L 964.8225 169.57429 
L 963.4275 169.57429 
z
" style="fill:#1f77b4;"/>
   </g>
   <g id="patch_291">
    <path clip-path="url(#peb5502f951)" d="M 966.2175 768.96 
L 967.6125 768.96 
L 967.6125 169.025151 
L 966.2175 169.025151 
z
" style="fill:#1f77b4;"/>
   </g>
   <g id="patch_292">
    <path clip-path="url(#peb5502f951)" d="M 969.0075 768.96 
L 970.4025 768.96 
L 970.4025 168.462829 
L 969.0075 168.462829 
z
" style="fill:#1f77b4;"/>
   </g>
   <g id="patch_293">
    <path clip-path="url(#peb5502f951)" d="M 971.7975 768.96 
L 973.1925 768.96 
L 973.1925 167.828294 
L 971.7975 167.828294 
z
" style="fill:#1f77b4;"/>
   </g>
   <g id="patch_294">
    <path clip-path="url(#peb5502f951)" d="M 974.5875 768.96 
L 975.9825 768.96 
L 975.9825 167.268098 
L 974.5875 167.268098 
z
" style="fill:#1f77b4;"/>
   </g>
   <g id="patch_295">
    <path clip-path="url(#peb5502f951)" d="M 977.3775 768.96 
L 978.7725 768.96 
L 978.7725 166.861473 
L 977.3775 166.861473 
z
" style="fill:#1f77b4;"/>
   </g>
   <g id="patch_296">
    <path clip-path="url(#peb5502f951)" d="M 980.1675 768.96 
L 981.5625 768.96 
L 981.5625 166.518318 
L 980.1675 166.518318 
z
" style="fill:#1f77b4;"/>
   </g>
   <g id="patch_297">
    <path clip-path="url(#peb5502f951)" d="M 982.9575 768.96 
L 984.3525 768.96 
L 984.3525 166.062443 
L 982.9575 166.062443 
z
" style="fill:#1f77b4;"/>
   </g>
   <g id="patch_298">
    <path clip-path="url(#peb5502f951)" d="M 985.7475 768.96 
L 987.1425 768.96 
L 987.1425 165.382671 
L 985.7475 165.382671 
z
" style="fill:#1f77b4;"/>
   </g>
   <g id="patch_299">
    <path clip-path="url(#peb5502f951)" d="M 988.5375 768.96 
L 989.9325 768.96 
L 989.9325 164.829546 
L 988.5375 164.829546 
z
" style="fill:#1f77b4;"/>
   </g>
   <g id="patch_300">
    <path clip-path="url(#peb5502f951)" d="M 991.3275 768.96 
L 992.7225 768.96 
L 992.7225 164.325112 
L 991.3275 164.325112 
z
" style="fill:#1f77b4;"/>
   </g>
   <g id="patch_301">
    <path clip-path="url(#peb5502f951)" d="M 994.1175 768.96 
L 995.5125 768.96 
L 995.5125 162.706958 
L 994.1175 162.706958 
z
" style="fill:#1f77b4;"/>
   </g>
   <g id="patch_302">
    <path clip-path="url(#peb5502f951)" d="M 996.9075 768.96 
L 998.3025 768.96 
L 998.3025 162.262565 
L 996.9075 162.262565 
z
" style="fill:#1f77b4;"/>
   </g>
   <g id="patch_303">
    <path clip-path="url(#peb5502f951)" d="M 999.6975 768.96 
L 1001.0925 768.96 
L 1001.0925 161.959491 
L 999.6975 161.959491 
z
" style="fill:#1f77b4;"/>
   </g>
   <g id="patch_304">
    <path clip-path="url(#peb5502f951)" d="M 1002.4875 768.96 
L 1003.8825 768.96 
L 1003.8825 161.598767 
L 1002.4875 161.598767 
z
" style="fill:#1f77b4;"/>
   </g>
   <g id="patch_305">
    <path clip-path="url(#peb5502f951)" d="M 1005.2775 768.96 
L 1006.6725 768.96 
L 1006.6725 161.13359 
L 1005.2775 161.13359 
z
" style="fill:#1f77b4;"/>
   </g>
   <g id="patch_306">
    <path clip-path="url(#peb5502f951)" d="M 1008.0675 768.96 
L 1009.4625 768.96 
L 1009.4625 160.842821 
L 1008.0675 160.842821 
z
" style="fill:#1f77b4;"/>
   </g>
   <g id="patch_307">
    <path clip-path="url(#peb5502f951)" d="M 1010.8575 768.96 
L 1012.2525 768.96 
L 1012.2525 160.35444 
L 1010.8575 160.35444 
z
" style="fill:#1f77b4;"/>
   </g>
   <g id="patch_308">
    <path clip-path="url(#peb5502f951)" d="M 1013.6475 768.96 
L 1015.0425 768.96 
L 1015.0425 159.799561 
L 1013.6475 159.799561 
z
" style="fill:#1f77b4;"/>
   </g>
   <g id="patch_309">
    <path clip-path="url(#peb5502f951)" d="M 1016.4375 768.96 
L 1017.8325 768.96 
L 1017.8325 159.144373 
L 1016.4375 159.144373 
z
" style="fill:#1f77b4;"/>
   </g>
   <g id="patch_310">
    <path clip-path="url(#peb5502f951)" d="M 1019.2275 768.96 
L 1020.6225 768.96 
L 1020.6225 158.937646 
L 1019.2275 158.937646 
z
" style="fill:#1f77b4;"/>
   </g>
   <g id="patch_311">
    <path clip-path="url(#peb5502f951)" d="M 1022.0175 768.96 
L 1023.4125 768.96 
L 1023.4125 158.586676 
L 1022.0175 158.586676 
z
" style="fill:#1f77b4;"/>
   </g>
   <g id="patch_312">
    <path clip-path="url(#peb5502f951)" d="M 1024.8075 768.96 
L 1026.2025 768.96 
L 1026.2025 158.06999 
L 1024.8075 158.06999 
z
" style="fill:#1f77b4;"/>
   </g>
   <g id="patch_313">
    <path clip-path="url(#peb5502f951)" d="M 1027.5975 768.96 
L 1028.9925 768.96 
L 1028.9925 157.64274 
L 1027.5975 157.64274 
z
" style="fill:#1f77b4;"/>
   </g>
   <g id="patch_314">
    <path clip-path="url(#peb5502f951)" d="M 1030.3875 768.96 
L 1031.7825 768.96 
L 1031.7825 157.241644 
L 1030.3875 157.241644 
z
" style="fill:#1f77b4;"/>
   </g>
   <g id="patch_315">
    <path clip-path="url(#peb5502f951)" d="M 1033.1775 768.96 
L 1034.5725 768.96 
L 1034.5725 156.793929 
L 1033.1775 156.793929 
z
" style="fill:#1f77b4;"/>
   </g>
   <g id="patch_316">
    <path clip-path="url(#peb5502f951)" d="M 1035.9675 768.96 
L 1037.3625 768.96 
L 1037.3625 156.440647 
L 1035.9675 156.440647 
z
" style="fill:#1f77b4;"/>
   </g>
   <g id="patch_317">
    <path clip-path="url(#peb5502f951)" d="M 1038.7575 768.96 
L 1040.1525 768.96 
L 1040.1525 156.240458 
L 1038.7575 156.240458 
z
" style="fill:#1f77b4;"/>
   </g>
   <g id="patch_318">
    <path clip-path="url(#peb5502f951)" d="M 1041.5475 768.96 
L 1042.9425 768.96 
L 1042.9425 155.918246 
L 1041.5475 155.918246 
z
" style="fill:#1f77b4;"/>
   </g>
   <g id="patch_319">
    <path clip-path="url(#peb5502f951)" d="M 1044.3375 768.96 
L 1045.7325 768.96 
L 1045.7325 155.490146 
L 1044.3375 155.490146 
z
" style="fill:#1f77b4;"/>
   </g>
   <g id="patch_320">
    <path clip-path="url(#peb5502f951)" d="M 1047.1275 768.96 
L 1048.5225 768.96 
L 1048.5225 155.072039 
L 1047.1275 155.072039 
z
" style="fill:#1f77b4;"/>
   </g>
   <g id="patch_321">
    <path clip-path="url(#peb5502f951)" d="M 1049.9175 768.96 
L 1051.3125 768.96 
L 1051.3125 154.647527 
L 1049.9175 154.647527 
z
" style="fill:#1f77b4;"/>
   </g>
   <g id="patch_322">
    <path clip-path="url(#peb5502f951)" d="M 1052.7075 768.96 
L 1054.1025 768.96 
L 1054.1025 154.187347 
L 1052.7075 154.187347 
z
" style="fill:#1f77b4;"/>
   </g>
   <g id="patch_323">
    <path clip-path="url(#peb5502f951)" d="M 1055.4975 768.96 
L 1056.8925 768.96 
L 1056.8925 153.841932 
L 1055.4975 153.841932 
z
" style="fill:#1f77b4;"/>
   </g>
   <g id="patch_324">
    <path clip-path="url(#peb5502f951)" d="M 1058.2875 768.96 
L 1059.6825 768.96 
L 1059.6825 153.64751 
L 1058.2875 153.64751 
z
" style="fill:#1f77b4;"/>
   </g>
   <g id="patch_325">
    <path clip-path="url(#peb5502f951)" d="M 1061.0775 768.96 
L 1062.4725 768.96 
L 1062.4725 153.234533 
L 1061.0775 153.234533 
z
" style="fill:#1f77b4;"/>
   </g>
   <g id="patch_326">
    <path clip-path="url(#peb5502f951)" d="M 1063.8675 768.96 
L 1065.2625 768.96 
L 1065.2625 152.792586 
L 1063.8675 152.792586 
z
" style="fill:#1f77b4;"/>
   </g>
   <g id="patch_327">
    <path clip-path="url(#peb5502f951)" d="M 1066.6575 768.96 
L 1068.0525 768.96 
L 1068.0525 152.400925 
L 1066.6575 152.400925 
z
" style="fill:#1f77b4;"/>
   </g>
   <g id="patch_328">
    <path clip-path="url(#peb5502f951)" d="M 1069.4475 768.96 
L 1070.8425 768.96 
L 1070.8425 152.209373 
L 1069.4475 152.209373 
z
" style="fill:#1f77b4;"/>
   </g>
   <g id="patch_329">
    <path clip-path="url(#peb5502f951)" d="M 1072.2375 768.96 
L 1073.6325 768.96 
L 1073.6325 152.037915 
L 1072.2375 152.037915 
z
" style="fill:#1f77b4;"/>
   </g>
   <g id="patch_330">
    <path clip-path="url(#peb5502f951)" d="M 1075.0275 768.96 
L 1076.4225 768.96 
L 1076.4225 151.658161 
L 1075.0275 151.658161 
z
" style="fill:#1f77b4;"/>
   </g>
   <g id="patch_331">
    <path clip-path="url(#peb5502f951)" d="M 1077.8175 768.96 
L 1079.2125 768.96 
L 1079.2125 151.314926 
L 1077.8175 151.314926 
z
" style="fill:#1f77b4;"/>
   </g>
   <g id="patch_332">
    <path clip-path="url(#peb5502f951)" d="M 1080.6075 768.96 
L 1082.0025 768.96 
L 1082.0025 150.799781 
L 1080.6075 150.799781 
z
" style="fill:#1f77b4;"/>
   </g>
   <g id="patch_333">
    <path clip-path="url(#peb5502f951)" d="M 1083.3975 768.96 
L 1084.7925 768.96 
L 1084.7925 150.113923 
L 1083.3975 150.113923 
z
" style="fill:#1f77b4;"/>
   </g>
   <g id="patch_334">
    <path clip-path="url(#peb5502f951)" d="M 1086.1875 768.96 
L 1087.5825 768.96 
L 1087.5825 149.63519 
L 1086.1875 149.63519 
z
" style="fill:#1f77b4;"/>
   </g>
   <g id="patch_335">
    <path clip-path="url(#peb5502f951)" d="M 1088.9775 768.96 
L 1090.3725 768.96 
L 1090.3725 148.755362 
L 1088.9775 148.755362 
z
" style="fill:#1f77b4;"/>
   </g>
   <g id="patch_336">
    <path clip-path="url(#peb5502f951)" d="M 1091.7675 768.96 
L 1093.1625 768.96 
L 1093.1625 147.968372 
L 1091.7675 147.968372 
z
" style="fill:#1f77b4;"/>
   </g>
   <g id="patch_337">
    <path clip-path="url(#peb5502f951)" d="M 1094.5575 768.96 
L 1095.9525 768.96 
L 1095.9525 147.169528 
L 1094.5575 147.169528 
z
" style="fill:#1f77b4;"/>
   </g>
   <g id="patch_338">
    <path clip-path="url(#peb5502f951)" d="M 1097.3475 768.96 
L 1098.7425 768.96 
L 1098.7425 146.67134 
L 1097.3475 146.67134 
z
" style="fill:#1f77b4;"/>
   </g>
   <g id="patch_339">
    <path clip-path="url(#peb5502f951)" d="M 1100.1375 768.96 
L 1101.5325 768.96 
L 1101.5325 146.080792 
L 1100.1375 146.080792 
z
" style="fill:#1f77b4;"/>
   </g>
   <g id="patch_340">
    <path clip-path="url(#peb5502f951)" d="M 1102.9275 768.96 
L 1104.3225 768.96 
L 1104.3225 145.400089 
L 1102.9275 145.400089 
z
" style="fill:#1f77b4;"/>
   </g>
   <g id="patch_341">
    <path clip-path="url(#peb5502f951)" d="M 1105.7175 768.96 
L 1107.1125 768.96 
L 1107.1125 144.750802 
L 1105.7175 144.750802 
z
" style="fill:#1f77b4;"/>
   </g>
   <g id="patch_342">
    <path clip-path="url(#peb5502f951)" d="M 1108.5075 768.96 
L 1109.9025 768.96 
L 1109.9025 144.085861 
L 1108.5075 144.085861 
z
" style="fill:#1f77b4;"/>
   </g>
   <g id="patch_343">
    <path clip-path="url(#peb5502f951)" d="M 1111.2975 768.96 
L 1112.6925 768.96 
L 1112.6925 143.436016 
L 1111.2975 143.436016 
z
" style="fill:#1f77b4;"/>
   </g>
   <g id="patch_344">
    <path clip-path="url(#peb5502f951)" d="M 1114.0875 768.96 
L 1115.4825 768.96 
L 1115.4825 142.84475 
L 1114.0875 142.84475 
z
" style="fill:#1f77b4;"/>
   </g>
   <g id="patch_345">
    <path clip-path="url(#peb5502f951)" d="M 1116.8775 768.96 
L 1118.2725 768.96 
L 1118.2725 142.619152 
L 1116.8775 142.619152 
z
" style="fill:#1f77b4;"/>
   </g>
   <g id="patch_346">
    <path clip-path="url(#peb5502f951)" d="M 1119.6675 768.96 
L 1121.0625 768.96 
L 1121.0625 141.975128 
L 1119.6675 141.975128 
z
" style="fill:#1f77b4;"/>
   </g>
   <g id="patch_347">
    <path clip-path="url(#peb5502f951)" d="M 1122.4575 768.96 
L 1123.8525 768.96 
L 1123.8525 141.377191 
L 1122.4575 141.377191 
z
" style="fill:#1f77b4;"/>
   </g>
   <g id="patch_348">
    <path clip-path="url(#peb5502f951)" d="M 1125.2475 768.96 
L 1126.6425 768.96 
L 1126.6425 140.7594 
L 1125.2475 140.7594 
z
" style="fill:#1f77b4;"/>
   </g>
   <g id="patch_349">
    <path clip-path="url(#peb5502f951)" d="M 1128.0375 768.96 
L 1129.4325 768.96 
L 1129.4325 140.263285 
L 1128.0375 140.263285 
z
" style="fill:#1f77b4;"/>
   </g>
   <g id="patch_350">
    <path clip-path="url(#peb5502f951)" d="M 1130.8275 768.96 
L 1132.2225 768.96 
L 1132.2225 139.825404 
L 1130.8275 139.825404 
z
" style="fill:#1f77b4;"/>
   </g>
   <g id="patch_351">
    <path clip-path="url(#peb5502f951)" d="M 1133.6175 768.96 
L 1135.0125 768.96 
L 1135.0125 139.400812 
L 1133.6175 139.400812 
z
" style="fill:#1f77b4;"/>
   </g>
   <g id="patch_352">
    <path clip-path="url(#peb5502f951)" d="M 1136.4075 768.96 
L 1137.8025 768.96 
L 1137.8025 139.132848 
L 1136.4075 139.132848 
z
" style="fill:#1f77b4;"/>
   </g>
   <g id="patch_353">
    <path clip-path="url(#peb5502f951)" d="M 1139.1975 768.96 
L 1140.5925 768.96 
L 1140.5925 138.762263 
L 1139.1975 138.762263 
z
" style="fill:#1f77b4;"/>
   </g>
   <g id="patch_354">
    <path clip-path="url(#peb5502f951)" d="M 1141.9875 768.96 
L 1143.3825 768.96 
L 1143.3825 138.261205 
L 1141.9875 138.261205 
z
" style="fill:#1f77b4;"/>
   </g>
   <g id="patch_355">
    <path clip-path="url(#peb5502f951)" d="M 1144.7775 768.96 
L 1146.1725 768.96 
L 1146.1725 137.749382 
L 1144.7775 137.749382 
z
" style="fill:#1f77b4;"/>
   </g>
   <g id="patch_356">
    <path clip-path="url(#peb5502f951)" d="M 1147.5675 768.96 
L 1148.9625 768.96 
L 1148.9625 137.27958 
L 1147.5675 137.27958 
z
" style="fill:#1f77b4;"/>
   </g>
   <g id="patch_357">
    <path clip-path="url(#peb5502f951)" d="M 1150.3575 768.96 
L 1151.7525 768.96 
L 1151.7525 136.988944 
L 1150.3575 136.988944 
z
" style="fill:#1f77b4;"/>
   </g>
   <g id="patch_358">
    <path clip-path="url(#peb5502f951)" d="M 1153.1475 768.96 
L 1154.5425 768.96 
L 1154.5425 136.91891 
L 1153.1475 136.91891 
z
" style="fill:#1f77b4;"/>
   </g>
   <g id="patch_359">
    <path clip-path="url(#peb5502f951)" d="M 1155.9375 768.96 
L 1157.3325 768.96 
L 1157.3325 136.81241 
L 1155.9375 136.81241 
z
" style="fill:#1f77b4;"/>
   </g>
   <g id="patch_360">
    <path clip-path="url(#peb5502f951)" d="M 1158.7275 768.96 
L 1160.1225 768.96 
L 1160.1225 136.388987 
L 1158.7275 136.388987 
z
" style="fill:#1f77b4;"/>
   </g>
   <g id="patch_361">
    <path clip-path="url(#peb5502f951)" d="M 1161.5175 768.96 
L 1162.9125 768.96 
L 1162.9125 135.866985 
L 1161.5175 135.866985 
z
" style="fill:#1f77b4;"/>
   </g>
   <g id="patch_362">
    <path clip-path="url(#peb5502f951)" d="M 1164.3075 768.96 
L 1165.7025 768.96 
L 1165.7025 135.36 
L 1164.3075 135.36 
z
" style="fill:#1f77b4;"/>
   </g>
   <g id="matplotlib.axis_1">
    <g id="xtick_1">
     <g id="line2d_1">
      <defs>
       <path d="M 0 0 
L 0 3.5 
" id="m94874939f3" style="stroke:#000000;stroke-width:0.8;"/>
      </defs>
      <g>
       <use style="stroke:#000000;stroke-width:0.8;" x="163.395" xlink:href="#m94874939f3" y="768.96"/>
      </g>
     </g>
     <g id="text_1">
      <!-- January -->
      <g transform="translate(144.439531 783.558437)scale(0.1 -0.1)">
       <defs>
        <path d="M 628 4666 
L 1259 4666 
L 1259 325 
Q 1259 -519 939 -900 
Q 619 -1281 -91 -1281 
L -331 -1281 
L -331 -750 
L -134 -750 
Q 284 -750 456 -515 
Q 628 -281 628 325 
L 628 4666 
z
" id="DejaVuSans-4a" transform="scale(0.015625)"/>
        <path d="M 2194 1759 
Q 1497 1759 1228 1600 
Q 959 1441 959 1056 
Q 959 750 1161 570 
Q 1363 391 1709 391 
Q 2188 391 2477 730 
Q 2766 1069 2766 1631 
L 2766 1759 
L 2194 1759 
z
M 3341 1997 
L 3341 0 
L 2766 0 
L 2766 531 
Q 2569 213 2275 61 
Q 1981 -91 1556 -91 
Q 1019 -91 701 211 
Q 384 513 384 1019 
Q 384 1609 779 1909 
Q 1175 2209 1959 2209 
L 2766 2209 
L 2766 2266 
Q 2766 2663 2505 2880 
Q 2244 3097 1772 3097 
Q 1472 3097 1187 3025 
Q 903 2953 641 2809 
L 641 3341 
Q 956 3463 1253 3523 
Q 1550 3584 1831 3584 
Q 2591 3584 2966 3190 
Q 3341 2797 3341 1997 
z
" id="DejaVuSans-61" transform="scale(0.015625)"/>
        <path d="M 3513 2113 
L 3513 0 
L 2938 0 
L 2938 2094 
Q 2938 2591 2744 2837 
Q 2550 3084 2163 3084 
Q 1697 3084 1428 2787 
Q 1159 2491 1159 1978 
L 1159 0 
L 581 0 
L 581 3500 
L 1159 3500 
L 1159 2956 
Q 1366 3272 1645 3428 
Q 1925 3584 2291 3584 
Q 2894 3584 3203 3211 
Q 3513 2838 3513 2113 
z
" id="DejaVuSans-6e" transform="scale(0.015625)"/>
        <path d="M 544 1381 
L 544 3500 
L 1119 3500 
L 1119 1403 
Q 1119 906 1312 657 
Q 1506 409 1894 409 
Q 2359 409 2629 706 
Q 2900 1003 2900 1516 
L 2900 3500 
L 3475 3500 
L 3475 0 
L 2900 0 
L 2900 538 
Q 2691 219 2414 64 
Q 2138 -91 1772 -91 
Q 1169 -91 856 284 
Q 544 659 544 1381 
z
M 1991 3584 
L 1991 3584 
z
" id="DejaVuSans-75" transform="scale(0.015625)"/>
        <path d="M 2631 2963 
Q 2534 3019 2420 3045 
Q 2306 3072 2169 3072 
Q 1681 3072 1420 2755 
Q 1159 2438 1159 1844 
L 1159 0 
L 581 0 
L 581 3500 
L 1159 3500 
L 1159 2956 
Q 1341 3275 1631 3429 
Q 1922 3584 2338 3584 
Q 2397 3584 2469 3576 
Q 2541 3569 2628 3553 
L 2631 2963 
z
" id="DejaVuSans-72" transform="scale(0.015625)"/>
        <path d="M 2059 -325 
Q 1816 -950 1584 -1140 
Q 1353 -1331 966 -1331 
L 506 -1331 
L 506 -850 
L 844 -850 
Q 1081 -850 1212 -737 
Q 1344 -625 1503 -206 
L 1606 56 
L 191 3500 
L 800 3500 
L 1894 763 
L 2988 3500 
L 3597 3500 
L 2059 -325 
z
" id="DejaVuSans-79" transform="scale(0.015625)"/>
       </defs>
       <use xlink:href="#DejaVuSans-4a"/>
       <use x="29.492188" xlink:href="#DejaVuSans-61"/>
       <use x="90.771484" xlink:href="#DejaVuSans-6e"/>
       <use x="154.150391" xlink:href="#DejaVuSans-75"/>
       <use x="217.529297" xlink:href="#DejaVuSans-61"/>
       <use x="278.808594" xlink:href="#DejaVuSans-72"/>
       <use x="319.921875" xlink:href="#DejaVuSans-79"/>
      </g>
     </g>
    </g>
    <g id="xtick_2">
     <g id="line2d_2">
      <g>
       <use style="stroke:#000000;stroke-width:0.8;" x="249.885" xlink:href="#m94874939f3" y="768.96"/>
      </g>
     </g>
     <g id="text_2">
      <!-- February -->
      <g transform="translate(227.730313 783.558437)scale(0.1 -0.1)">
       <defs>
        <path d="M 628 4666 
L 3309 4666 
L 3309 4134 
L 1259 4134 
L 1259 2759 
L 3109 2759 
L 3109 2228 
L 1259 2228 
L 1259 0 
L 628 0 
L 628 4666 
z
" id="DejaVuSans-46" transform="scale(0.015625)"/>
        <path d="M 3597 1894 
L 3597 1613 
L 953 1613 
Q 991 1019 1311 708 
Q 1631 397 2203 397 
Q 2534 397 2845 478 
Q 3156 559 3463 722 
L 3463 178 
Q 3153 47 2828 -22 
Q 2503 -91 2169 -91 
Q 1331 -91 842 396 
Q 353 884 353 1716 
Q 353 2575 817 3079 
Q 1281 3584 2069 3584 
Q 2775 3584 3186 3129 
Q 3597 2675 3597 1894 
z
M 3022 2063 
Q 3016 2534 2758 2815 
Q 2500 3097 2075 3097 
Q 1594 3097 1305 2825 
Q 1016 2553 972 2059 
L 3022 2063 
z
" id="DejaVuSans-65" transform="scale(0.015625)"/>
        <path d="M 3116 1747 
Q 3116 2381 2855 2742 
Q 2594 3103 2138 3103 
Q 1681 3103 1420 2742 
Q 1159 2381 1159 1747 
Q 1159 1113 1420 752 
Q 1681 391 2138 391 
Q 2594 391 2855 752 
Q 3116 1113 3116 1747 
z
M 1159 2969 
Q 1341 3281 1617 3432 
Q 1894 3584 2278 3584 
Q 2916 3584 3314 3078 
Q 3713 2572 3713 1747 
Q 3713 922 3314 415 
Q 2916 -91 2278 -91 
Q 1894 -91 1617 61 
Q 1341 213 1159 525 
L 1159 0 
L 581 0 
L 581 4863 
L 1159 4863 
L 1159 2969 
z
" id="DejaVuSans-62" transform="scale(0.015625)"/>
       </defs>
       <use xlink:href="#DejaVuSans-46"/>
       <use x="52.019531" xlink:href="#DejaVuSans-65"/>
       <use x="113.542969" xlink:href="#DejaVuSans-62"/>
       <use x="177.019531" xlink:href="#DejaVuSans-72"/>
       <use x="218.132812" xlink:href="#DejaVuSans-75"/>
       <use x="281.511719" xlink:href="#DejaVuSans-61"/>
       <use x="342.791016" xlink:href="#DejaVuSans-72"/>
       <use x="383.904297" xlink:href="#DejaVuSans-79"/>
      </g>
     </g>
    </g>
    <g id="xtick_3">
     <g id="line2d_3">
      <g>
       <use style="stroke:#000000;stroke-width:0.8;" x="328.005" xlink:href="#m94874939f3" y="768.96"/>
      </g>
     </g>
     <g id="text_3">
      <!-- March -->
      <g transform="translate(312.765938 783.558437)scale(0.1 -0.1)">
       <defs>
        <path d="M 628 4666 
L 1569 4666 
L 2759 1491 
L 3956 4666 
L 4897 4666 
L 4897 0 
L 4281 0 
L 4281 4097 
L 3078 897 
L 2444 897 
L 1241 4097 
L 1241 0 
L 628 0 
L 628 4666 
z
" id="DejaVuSans-4d" transform="scale(0.015625)"/>
        <path d="M 3122 3366 
L 3122 2828 
Q 2878 2963 2633 3030 
Q 2388 3097 2138 3097 
Q 1578 3097 1268 2742 
Q 959 2388 959 1747 
Q 959 1106 1268 751 
Q 1578 397 2138 397 
Q 2388 397 2633 464 
Q 2878 531 3122 666 
L 3122 134 
Q 2881 22 2623 -34 
Q 2366 -91 2075 -91 
Q 1284 -91 818 406 
Q 353 903 353 1747 
Q 353 2603 823 3093 
Q 1294 3584 2113 3584 
Q 2378 3584 2631 3529 
Q 2884 3475 3122 3366 
z
" id="DejaVuSans-63" transform="scale(0.015625)"/>
        <path d="M 3513 2113 
L 3513 0 
L 2938 0 
L 2938 2094 
Q 2938 2591 2744 2837 
Q 2550 3084 2163 3084 
Q 1697 3084 1428 2787 
Q 1159 2491 1159 1978 
L 1159 0 
L 581 0 
L 581 4863 
L 1159 4863 
L 1159 2956 
Q 1366 3272 1645 3428 
Q 1925 3584 2291 3584 
Q 2894 3584 3203 3211 
Q 3513 2838 3513 2113 
z
" id="DejaVuSans-68" transform="scale(0.015625)"/>
       </defs>
       <use xlink:href="#DejaVuSans-4d"/>
       <use x="86.279297" xlink:href="#DejaVuSans-61"/>
       <use x="147.558594" xlink:href="#DejaVuSans-72"/>
       <use x="186.421875" xlink:href="#DejaVuSans-63"/>
       <use x="241.402344" xlink:href="#DejaVuSans-68"/>
      </g>
     </g>
    </g>
    <g id="xtick_4">
     <g id="line2d_4">
      <g>
       <use style="stroke:#000000;stroke-width:0.8;" x="414.495" xlink:href="#m94874939f3" y="768.96"/>
      </g>
     </g>
     <g id="text_4">
      <!-- April -->
      <g transform="translate(403.066875 783.558437)scale(0.1 -0.1)">
       <defs>
        <path d="M 2188 4044 
L 1331 1722 
L 3047 1722 
L 2188 4044 
z
M 1831 4666 
L 2547 4666 
L 4325 0 
L 3669 0 
L 3244 1197 
L 1141 1197 
L 716 0 
L 50 0 
L 1831 4666 
z
" id="DejaVuSans-41" transform="scale(0.015625)"/>
        <path d="M 1159 525 
L 1159 -1331 
L 581 -1331 
L 581 3500 
L 1159 3500 
L 1159 2969 
Q 1341 3281 1617 3432 
Q 1894 3584 2278 3584 
Q 2916 3584 3314 3078 
Q 3713 2572 3713 1747 
Q 3713 922 3314 415 
Q 2916 -91 2278 -91 
Q 1894 -91 1617 61 
Q 1341 213 1159 525 
z
M 3116 1747 
Q 3116 2381 2855 2742 
Q 2594 3103 2138 3103 
Q 1681 3103 1420 2742 
Q 1159 2381 1159 1747 
Q 1159 1113 1420 752 
Q 1681 391 2138 391 
Q 2594 391 2855 752 
Q 3116 1113 3116 1747 
z
" id="DejaVuSans-70" transform="scale(0.015625)"/>
        <path d="M 603 3500 
L 1178 3500 
L 1178 0 
L 603 0 
L 603 3500 
z
M 603 4863 
L 1178 4863 
L 1178 4134 
L 603 4134 
L 603 4863 
z
" id="DejaVuSans-69" transform="scale(0.015625)"/>
        <path d="M 603 4863 
L 1178 4863 
L 1178 0 
L 603 0 
L 603 4863 
z
" id="DejaVuSans-6c" transform="scale(0.015625)"/>
       </defs>
       <use xlink:href="#DejaVuSans-41"/>
       <use x="68.408203" xlink:href="#DejaVuSans-70"/>
       <use x="131.884766" xlink:href="#DejaVuSans-72"/>
       <use x="172.998047" xlink:href="#DejaVuSans-69"/>
       <use x="200.78125" xlink:href="#DejaVuSans-6c"/>
      </g>
     </g>
    </g>
    <g id="xtick_5">
     <g id="line2d_5">
      <g>
       <use style="stroke:#000000;stroke-width:0.8;" x="498.195" xlink:href="#m94874939f3" y="768.96"/>
      </g>
     </g>
     <g id="text_5">
      <!-- May -->
      <g transform="translate(487.8575 783.558437)scale(0.1 -0.1)">
       <use xlink:href="#DejaVuSans-4d"/>
       <use x="86.279297" xlink:href="#DejaVuSans-61"/>
       <use x="147.558594" xlink:href="#DejaVuSans-79"/>
      </g>
     </g>
    </g>
    <g id="xtick_6">
     <g id="line2d_6">
      <g>
       <use style="stroke:#000000;stroke-width:0.8;" x="584.685" xlink:href="#m94874939f3" y="768.96"/>
      </g>
     </g>
     <g id="text_6">
      <!-- June -->
      <g transform="translate(573.795938 783.558437)scale(0.1 -0.1)">
       <use xlink:href="#DejaVuSans-4a"/>
       <use x="29.492188" xlink:href="#DejaVuSans-75"/>
       <use x="92.871094" xlink:href="#DejaVuSans-6e"/>
       <use x="156.25" xlink:href="#DejaVuSans-65"/>
      </g>
     </g>
    </g>
    <g id="xtick_7">
     <g id="line2d_7">
      <g>
       <use style="stroke:#000000;stroke-width:0.8;" x="668.385" xlink:href="#m94874939f3" y="768.96"/>
      </g>
     </g>
     <g id="text_7">
      <!-- July -->
      <g transform="translate(659.392813 783.558437)scale(0.1 -0.1)">
       <use xlink:href="#DejaVuSans-4a"/>
       <use x="29.492188" xlink:href="#DejaVuSans-75"/>
       <use x="92.871094" xlink:href="#DejaVuSans-6c"/>
       <use x="120.654297" xlink:href="#DejaVuSans-79"/>
      </g>
     </g>
    </g>
    <g id="xtick_8">
     <g id="line2d_8">
      <g>
       <use style="stroke:#000000;stroke-width:0.8;" x="754.875" xlink:href="#m94874939f3" y="768.96"/>
      </g>
     </g>
     <g id="text_8">
      <!-- August -->
      <g transform="translate(737.378125 783.558437)scale(0.1 -0.1)">
       <defs>
        <path d="M 2906 1791 
Q 2906 2416 2648 2759 
Q 2391 3103 1925 3103 
Q 1463 3103 1205 2759 
Q 947 2416 947 1791 
Q 947 1169 1205 825 
Q 1463 481 1925 481 
Q 2391 481 2648 825 
Q 2906 1169 2906 1791 
z
M 3481 434 
Q 3481 -459 3084 -895 
Q 2688 -1331 1869 -1331 
Q 1566 -1331 1297 -1286 
Q 1028 -1241 775 -1147 
L 775 -588 
Q 1028 -725 1275 -790 
Q 1522 -856 1778 -856 
Q 2344 -856 2625 -561 
Q 2906 -266 2906 331 
L 2906 616 
Q 2728 306 2450 153 
Q 2172 0 1784 0 
Q 1141 0 747 490 
Q 353 981 353 1791 
Q 353 2603 747 3093 
Q 1141 3584 1784 3584 
Q 2172 3584 2450 3431 
Q 2728 3278 2906 2969 
L 2906 3500 
L 3481 3500 
L 3481 434 
z
" id="DejaVuSans-67" transform="scale(0.015625)"/>
        <path d="M 2834 3397 
L 2834 2853 
Q 2591 2978 2328 3040 
Q 2066 3103 1784 3103 
Q 1356 3103 1142 2972 
Q 928 2841 928 2578 
Q 928 2378 1081 2264 
Q 1234 2150 1697 2047 
L 1894 2003 
Q 2506 1872 2764 1633 
Q 3022 1394 3022 966 
Q 3022 478 2636 193 
Q 2250 -91 1575 -91 
Q 1294 -91 989 -36 
Q 684 19 347 128 
L 347 722 
Q 666 556 975 473 
Q 1284 391 1588 391 
Q 1994 391 2212 530 
Q 2431 669 2431 922 
Q 2431 1156 2273 1281 
Q 2116 1406 1581 1522 
L 1381 1569 
Q 847 1681 609 1914 
Q 372 2147 372 2553 
Q 372 3047 722 3315 
Q 1072 3584 1716 3584 
Q 2034 3584 2315 3537 
Q 2597 3491 2834 3397 
z
" id="DejaVuSans-73" transform="scale(0.015625)"/>
        <path d="M 1172 4494 
L 1172 3500 
L 2356 3500 
L 2356 3053 
L 1172 3053 
L 1172 1153 
Q 1172 725 1289 603 
Q 1406 481 1766 481 
L 2356 481 
L 2356 0 
L 1766 0 
Q 1100 0 847 248 
Q 594 497 594 1153 
L 594 3053 
L 172 3053 
L 172 3500 
L 594 3500 
L 594 4494 
L 1172 4494 
z
" id="DejaVuSans-74" transform="scale(0.015625)"/>
       </defs>
       <use xlink:href="#DejaVuSans-41"/>
       <use x="68.408203" xlink:href="#DejaVuSans-75"/>
       <use x="131.787109" xlink:href="#DejaVuSans-67"/>
       <use x="195.263672" xlink:href="#DejaVuSans-75"/>
       <use x="258.642578" xlink:href="#DejaVuSans-73"/>
       <use x="310.742188" xlink:href="#DejaVuSans-74"/>
      </g>
     </g>
    </g>
    <g id="xtick_9">
     <g id="line2d_9">
      <g>
       <use style="stroke:#000000;stroke-width:0.8;" x="841.365" xlink:href="#m94874939f3" y="768.96"/>
      </g>
     </g>
     <g id="text_9">
      <!-- September -->
      <g transform="translate(813.726719 783.558437)scale(0.1 -0.1)">
       <defs>
        <path d="M 3425 4513 
L 3425 3897 
Q 3066 4069 2747 4153 
Q 2428 4238 2131 4238 
Q 1616 4238 1336 4038 
Q 1056 3838 1056 3469 
Q 1056 3159 1242 3001 
Q 1428 2844 1947 2747 
L 2328 2669 
Q 3034 2534 3370 2195 
Q 3706 1856 3706 1288 
Q 3706 609 3251 259 
Q 2797 -91 1919 -91 
Q 1588 -91 1214 -16 
Q 841 59 441 206 
L 441 856 
Q 825 641 1194 531 
Q 1563 422 1919 422 
Q 2459 422 2753 634 
Q 3047 847 3047 1241 
Q 3047 1584 2836 1778 
Q 2625 1972 2144 2069 
L 1759 2144 
Q 1053 2284 737 2584 
Q 422 2884 422 3419 
Q 422 4038 858 4394 
Q 1294 4750 2059 4750 
Q 2388 4750 2728 4690 
Q 3069 4631 3425 4513 
z
" id="DejaVuSans-53" transform="scale(0.015625)"/>
        <path d="M 3328 2828 
Q 3544 3216 3844 3400 
Q 4144 3584 4550 3584 
Q 5097 3584 5394 3201 
Q 5691 2819 5691 2113 
L 5691 0 
L 5113 0 
L 5113 2094 
Q 5113 2597 4934 2840 
Q 4756 3084 4391 3084 
Q 3944 3084 3684 2787 
Q 3425 2491 3425 1978 
L 3425 0 
L 2847 0 
L 2847 2094 
Q 2847 2600 2669 2842 
Q 2491 3084 2119 3084 
Q 1678 3084 1418 2786 
Q 1159 2488 1159 1978 
L 1159 0 
L 581 0 
L 581 3500 
L 1159 3500 
L 1159 2956 
Q 1356 3278 1631 3431 
Q 1906 3584 2284 3584 
Q 2666 3584 2933 3390 
Q 3200 3197 3328 2828 
z
" id="DejaVuSans-6d" transform="scale(0.015625)"/>
       </defs>
       <use xlink:href="#DejaVuSans-53"/>
       <use x="63.476562" xlink:href="#DejaVuSans-65"/>
       <use x="125" xlink:href="#DejaVuSans-70"/>
       <use x="188.476562" xlink:href="#DejaVuSans-74"/>
       <use x="227.685547" xlink:href="#DejaVuSans-65"/>
       <use x="289.208984" xlink:href="#DejaVuSans-6d"/>
       <use x="386.621094" xlink:href="#DejaVuSans-62"/>
       <use x="450.097656" xlink:href="#DejaVuSans-65"/>
       <use x="511.621094" xlink:href="#DejaVuSans-72"/>
      </g>
     </g>
    </g>
    <g id="xtick_10">
     <g id="line2d_10">
      <g>
       <use style="stroke:#000000;stroke-width:0.8;" x="925.065" xlink:href="#m94874939f3" y="768.96"/>
      </g>
     </g>
     <g id="text_10">
      <!-- October -->
      <g transform="translate(905.054063 783.558437)scale(0.1 -0.1)">
       <defs>
        <path d="M 2522 4238 
Q 1834 4238 1429 3725 
Q 1025 3213 1025 2328 
Q 1025 1447 1429 934 
Q 1834 422 2522 422 
Q 3209 422 3611 934 
Q 4013 1447 4013 2328 
Q 4013 3213 3611 3725 
Q 3209 4238 2522 4238 
z
M 2522 4750 
Q 3503 4750 4090 4092 
Q 4678 3434 4678 2328 
Q 4678 1225 4090 567 
Q 3503 -91 2522 -91 
Q 1538 -91 948 565 
Q 359 1222 359 2328 
Q 359 3434 948 4092 
Q 1538 4750 2522 4750 
z
" id="DejaVuSans-4f" transform="scale(0.015625)"/>
        <path d="M 1959 3097 
Q 1497 3097 1228 2736 
Q 959 2375 959 1747 
Q 959 1119 1226 758 
Q 1494 397 1959 397 
Q 2419 397 2687 759 
Q 2956 1122 2956 1747 
Q 2956 2369 2687 2733 
Q 2419 3097 1959 3097 
z
M 1959 3584 
Q 2709 3584 3137 3096 
Q 3566 2609 3566 1747 
Q 3566 888 3137 398 
Q 2709 -91 1959 -91 
Q 1206 -91 779 398 
Q 353 888 353 1747 
Q 353 2609 779 3096 
Q 1206 3584 1959 3584 
z
" id="DejaVuSans-6f" transform="scale(0.015625)"/>
       </defs>
       <use xlink:href="#DejaVuSans-4f"/>
       <use x="78.710938" xlink:href="#DejaVuSans-63"/>
       <use x="133.691406" xlink:href="#DejaVuSans-74"/>
       <use x="172.900391" xlink:href="#DejaVuSans-6f"/>
       <use x="234.082031" xlink:href="#DejaVuSans-62"/>
       <use x="297.558594" xlink:href="#DejaVuSans-65"/>
       <use x="359.082031" xlink:href="#DejaVuSans-72"/>
      </g>
     </g>
    </g>
    <g id="xtick_11">
     <g id="line2d_11">
      <g>
       <use style="stroke:#000000;stroke-width:0.8;" x="1011.555" xlink:href="#m94874939f3" y="768.96"/>
      </g>
     </g>
     <g id="text_11">
      <!-- November -->
      <g transform="translate(985.5425 783.558437)scale(0.1 -0.1)">
       <defs>
        <path d="M 628 4666 
L 1478 4666 
L 3547 763 
L 3547 4666 
L 4159 4666 
L 4159 0 
L 3309 0 
L 1241 3903 
L 1241 0 
L 628 0 
L 628 4666 
z
" id="DejaVuSans-4e" transform="scale(0.015625)"/>
        <path d="M 191 3500 
L 800 3500 
L 1894 563 
L 2988 3500 
L 3597 3500 
L 2284 0 
L 1503 0 
L 191 3500 
z
" id="DejaVuSans-76" transform="scale(0.015625)"/>
       </defs>
       <use xlink:href="#DejaVuSans-4e"/>
       <use x="74.804688" xlink:href="#DejaVuSans-6f"/>
       <use x="135.986328" xlink:href="#DejaVuSans-76"/>
       <use x="195.166016" xlink:href="#DejaVuSans-65"/>
       <use x="256.689453" xlink:href="#DejaVuSans-6d"/>
       <use x="354.101562" xlink:href="#DejaVuSans-62"/>
       <use x="417.578125" xlink:href="#DejaVuSans-65"/>
       <use x="479.101562" xlink:href="#DejaVuSans-72"/>
      </g>
     </g>
    </g>
    <g id="xtick_12">
     <g id="line2d_12">
      <g>
       <use style="stroke:#000000;stroke-width:0.8;" x="1095.255" xlink:href="#m94874939f3" y="768.96"/>
      </g>
     </g>
     <g id="text_12">
      <!-- December -->
      <g transform="translate(1069.326094 783.558437)scale(0.1 -0.1)">
       <defs>
        <path d="M 1259 4147 
L 1259 519 
L 2022 519 
Q 2988 519 3436 956 
Q 3884 1394 3884 2338 
Q 3884 3275 3436 3711 
Q 2988 4147 2022 4147 
L 1259 4147 
z
M 628 4666 
L 1925 4666 
Q 3281 4666 3915 4102 
Q 4550 3538 4550 2338 
Q 4550 1131 3912 565 
Q 3275 0 1925 0 
L 628 0 
L 628 4666 
z
" id="DejaVuSans-44" transform="scale(0.015625)"/>
       </defs>
       <use xlink:href="#DejaVuSans-44"/>
       <use x="77.001953" xlink:href="#DejaVuSans-65"/>
       <use x="138.525391" xlink:href="#DejaVuSans-63"/>
       <use x="193.505859" xlink:href="#DejaVuSans-65"/>
       <use x="255.029297" xlink:href="#DejaVuSans-6d"/>
       <use x="352.441406" xlink:href="#DejaVuSans-62"/>
       <use x="415.917969" xlink:href="#DejaVuSans-65"/>
       <use x="477.441406" xlink:href="#DejaVuSans-72"/>
      </g>
     </g>
    </g>
   </g>
   <g id="matplotlib.axis_2">
    <g id="ytick_1">
     <g id="line2d_13">
      <defs>
       <path d="M 0 0 
L -3.5 0 
" id="ma6c1bc4a57" style="stroke:#000000;stroke-width:0.8;"/>
      </defs>
      <g>
       <use style="stroke:#000000;stroke-width:0.8;" x="162" xlink:href="#ma6c1bc4a57" y="768.96"/>
      </g>
     </g>
     <g id="text_13">
      <!-- 0.0 -->
      <g transform="translate(139.096875 772.759219)scale(0.1 -0.1)">
       <defs>
        <path d="M 2034 4250 
Q 1547 4250 1301 3770 
Q 1056 3291 1056 2328 
Q 1056 1369 1301 889 
Q 1547 409 2034 409 
Q 2525 409 2770 889 
Q 3016 1369 3016 2328 
Q 3016 3291 2770 3770 
Q 2525 4250 2034 4250 
z
M 2034 4750 
Q 2819 4750 3233 4129 
Q 3647 3509 3647 2328 
Q 3647 1150 3233 529 
Q 2819 -91 2034 -91 
Q 1250 -91 836 529 
Q 422 1150 422 2328 
Q 422 3509 836 4129 
Q 1250 4750 2034 4750 
z
" id="DejaVuSans-30" transform="scale(0.015625)"/>
        <path d="M 684 794 
L 1344 794 
L 1344 0 
L 684 0 
L 684 794 
z
" id="DejaVuSans-2e" transform="scale(0.015625)"/>
       </defs>
       <use xlink:href="#DejaVuSans-30"/>
       <use x="63.623047" xlink:href="#DejaVuSans-2e"/>
       <use x="95.410156" xlink:href="#DejaVuSans-30"/>
      </g>
     </g>
    </g>
    <g id="ytick_2">
     <g id="line2d_14">
      <g>
       <use style="stroke:#000000;stroke-width:0.8;" x="162" xlink:href="#ma6c1bc4a57" y="636.067399"/>
      </g>
     </g>
     <g id="text_14">
      <!-- 0.5 -->
      <g transform="translate(139.096875 639.866618)scale(0.1 -0.1)">
       <defs>
        <path d="M 691 4666 
L 3169 4666 
L 3169 4134 
L 1269 4134 
L 1269 2991 
Q 1406 3038 1543 3061 
Q 1681 3084 1819 3084 
Q 2600 3084 3056 2656 
Q 3513 2228 3513 1497 
Q 3513 744 3044 326 
Q 2575 -91 1722 -91 
Q 1428 -91 1123 -41 
Q 819 9 494 109 
L 494 744 
Q 775 591 1075 516 
Q 1375 441 1709 441 
Q 2250 441 2565 725 
Q 2881 1009 2881 1497 
Q 2881 1984 2565 2268 
Q 2250 2553 1709 2553 
Q 1456 2553 1204 2497 
Q 953 2441 691 2322 
L 691 4666 
z
" id="DejaVuSans-35" transform="scale(0.015625)"/>
       </defs>
       <use xlink:href="#DejaVuSans-30"/>
       <use x="63.623047" xlink:href="#DejaVuSans-2e"/>
       <use x="95.410156" xlink:href="#DejaVuSans-35"/>
      </g>
     </g>
    </g>
    <g id="ytick_3">
     <g id="line2d_15">
      <g>
       <use style="stroke:#000000;stroke-width:0.8;" x="162" xlink:href="#ma6c1bc4a57" y="503.174798"/>
      </g>
     </g>
     <g id="text_15">
      <!-- 1.0 -->
      <g transform="translate(139.096875 506.974017)scale(0.1 -0.1)">
       <defs>
        <path d="M 794 531 
L 1825 531 
L 1825 4091 
L 703 3866 
L 703 4441 
L 1819 4666 
L 2450 4666 
L 2450 531 
L 3481 531 
L 3481 0 
L 794 0 
L 794 531 
z
" id="DejaVuSans-31" transform="scale(0.015625)"/>
       </defs>
       <use xlink:href="#DejaVuSans-31"/>
       <use x="63.623047" xlink:href="#DejaVuSans-2e"/>
       <use x="95.410156" xlink:href="#DejaVuSans-30"/>
      </g>
     </g>
    </g>
    <g id="ytick_4">
     <g id="line2d_16">
      <g>
       <use style="stroke:#000000;stroke-width:0.8;" x="162" xlink:href="#ma6c1bc4a57" y="370.282197"/>
      </g>
     </g>
     <g id="text_16">
      <!-- 1.5 -->
      <g transform="translate(139.096875 374.081416)scale(0.1 -0.1)">
       <use xlink:href="#DejaVuSans-31"/>
       <use x="63.623047" xlink:href="#DejaVuSans-2e"/>
       <use x="95.410156" xlink:href="#DejaVuSans-35"/>
      </g>
     </g>
    </g>
    <g id="ytick_5">
     <g id="line2d_17">
      <g>
       <use style="stroke:#000000;stroke-width:0.8;" x="162" xlink:href="#ma6c1bc4a57" y="237.389597"/>
      </g>
     </g>
     <g id="text_17">
      <!-- 2.0 -->
      <g transform="translate(139.096875 241.188815)scale(0.1 -0.1)">
       <defs>
        <path d="M 1228 531 
L 3431 531 
L 3431 0 
L 469 0 
L 469 531 
Q 828 903 1448 1529 
Q 2069 2156 2228 2338 
Q 2531 2678 2651 2914 
Q 2772 3150 2772 3378 
Q 2772 3750 2511 3984 
Q 2250 4219 1831 4219 
Q 1534 4219 1204 4116 
Q 875 4013 500 3803 
L 500 4441 
Q 881 4594 1212 4672 
Q 1544 4750 1819 4750 
Q 2544 4750 2975 4387 
Q 3406 4025 3406 3419 
Q 3406 3131 3298 2873 
Q 3191 2616 2906 2266 
Q 2828 2175 2409 1742 
Q 1991 1309 1228 531 
z
" id="DejaVuSans-32" transform="scale(0.015625)"/>
       </defs>
       <use xlink:href="#DejaVuSans-32"/>
       <use x="63.623047" xlink:href="#DejaVuSans-2e"/>
       <use x="95.410156" xlink:href="#DejaVuSans-30"/>
      </g>
     </g>
    </g>
    <g id="ytick_6">
     <g id="line2d_18">
      <g>
       <use style="stroke:#000000;stroke-width:0.8;" x="162" xlink:href="#ma6c1bc4a57" y="104.496996"/>
      </g>
     </g>
     <g id="text_18">
      <!-- 2.5 -->
      <g transform="translate(139.096875 108.296215)scale(0.1 -0.1)">
       <use xlink:href="#DejaVuSans-32"/>
       <use x="63.623047" xlink:href="#DejaVuSans-2e"/>
       <use x="95.410156" xlink:href="#DejaVuSans-35"/>
      </g>
     </g>
    </g>
    <g id="text_19">
     <!-- Persons fully vaccinated (tens of millions) -->
     <g transform="translate(133.017188 540.480156)rotate(-90)scale(0.1 -0.1)">
      <defs>
       <path d="M 1259 4147 
L 1259 2394 
L 2053 2394 
Q 2494 2394 2734 2622 
Q 2975 2850 2975 3272 
Q 2975 3691 2734 3919 
Q 2494 4147 2053 4147 
L 1259 4147 
z
M 628 4666 
L 2053 4666 
Q 2838 4666 3239 4311 
Q 3641 3956 3641 3272 
Q 3641 2581 3239 2228 
Q 2838 1875 2053 1875 
L 1259 1875 
L 1259 0 
L 628 0 
L 628 4666 
z
" id="DejaVuSans-50" transform="scale(0.015625)"/>
       <path id="DejaVuSans-20" transform="scale(0.015625)"/>
       <path d="M 2375 4863 
L 2375 4384 
L 1825 4384 
Q 1516 4384 1395 4259 
Q 1275 4134 1275 3809 
L 1275 3500 
L 2222 3500 
L 2222 3053 
L 1275 3053 
L 1275 0 
L 697 0 
L 697 3053 
L 147 3053 
L 147 3500 
L 697 3500 
L 697 3744 
Q 697 4328 969 4595 
Q 1241 4863 1831 4863 
L 2375 4863 
z
" id="DejaVuSans-66" transform="scale(0.015625)"/>
       <path d="M 2906 2969 
L 2906 4863 
L 3481 4863 
L 3481 0 
L 2906 0 
L 2906 525 
Q 2725 213 2448 61 
Q 2172 -91 1784 -91 
Q 1150 -91 751 415 
Q 353 922 353 1747 
Q 353 2572 751 3078 
Q 1150 3584 1784 3584 
Q 2172 3584 2448 3432 
Q 2725 3281 2906 2969 
z
M 947 1747 
Q 947 1113 1208 752 
Q 1469 391 1925 391 
Q 2381 391 2643 752 
Q 2906 1113 2906 1747 
Q 2906 2381 2643 2742 
Q 2381 3103 1925 3103 
Q 1469 3103 1208 2742 
Q 947 2381 947 1747 
z
" id="DejaVuSans-64" transform="scale(0.015625)"/>
       <path d="M 1984 4856 
Q 1566 4138 1362 3434 
Q 1159 2731 1159 2009 
Q 1159 1288 1364 580 
Q 1569 -128 1984 -844 
L 1484 -844 
Q 1016 -109 783 600 
Q 550 1309 550 2009 
Q 550 2706 781 3412 
Q 1013 4119 1484 4856 
L 1984 4856 
z
" id="DejaVuSans-28" transform="scale(0.015625)"/>
       <path d="M 513 4856 
L 1013 4856 
Q 1481 4119 1714 3412 
Q 1947 2706 1947 2009 
Q 1947 1309 1714 600 
Q 1481 -109 1013 -844 
L 513 -844 
Q 928 -128 1133 580 
Q 1338 1288 1338 2009 
Q 1338 2731 1133 3434 
Q 928 4138 513 4856 
z
" id="DejaVuSans-29" transform="scale(0.015625)"/>
      </defs>
      <use xlink:href="#DejaVuSans-50"/>
      <use x="56.677734" xlink:href="#DejaVuSans-65"/>
      <use x="118.201172" xlink:href="#DejaVuSans-72"/>
      <use x="159.314453" xlink:href="#DejaVuSans-73"/>
      <use x="211.414062" xlink:href="#DejaVuSans-6f"/>
      <use x="272.595703" xlink:href="#DejaVuSans-6e"/>
      <use x="335.974609" xlink:href="#DejaVuSans-73"/>
      <use x="388.074219" xlink:href="#DejaVuSans-20"/>
      <use x="419.861328" xlink:href="#DejaVuSans-66"/>
      <use x="455.066406" xlink:href="#DejaVuSans-75"/>
      <use x="518.445312" xlink:href="#DejaVuSans-6c"/>
      <use x="546.228516" xlink:href="#DejaVuSans-6c"/>
      <use x="574.011719" xlink:href="#DejaVuSans-79"/>
      <use x="633.191406" xlink:href="#DejaVuSans-20"/>
      <use x="664.978516" xlink:href="#DejaVuSans-76"/>
      <use x="724.158203" xlink:href="#DejaVuSans-61"/>
      <use x="785.4375" xlink:href="#DejaVuSans-63"/>
      <use x="840.417969" xlink:href="#DejaVuSans-63"/>
      <use x="895.398438" xlink:href="#DejaVuSans-69"/>
      <use x="923.181641" xlink:href="#DejaVuSans-6e"/>
      <use x="986.560547" xlink:href="#DejaVuSans-61"/>
      <use x="1047.839844" xlink:href="#DejaVuSans-74"/>
      <use x="1087.048828" xlink:href="#DejaVuSans-65"/>
      <use x="1148.572266" xlink:href="#DejaVuSans-64"/>
      <use x="1212.048828" xlink:href="#DejaVuSans-20"/>
      <use x="1243.835938" xlink:href="#DejaVuSans-28"/>
      <use x="1282.849609" xlink:href="#DejaVuSans-74"/>
      <use x="1322.058594" xlink:href="#DejaVuSans-65"/>
      <use x="1383.582031" xlink:href="#DejaVuSans-6e"/>
      <use x="1446.960938" xlink:href="#DejaVuSans-73"/>
      <use x="1499.060547" xlink:href="#DejaVuSans-20"/>
      <use x="1530.847656" xlink:href="#DejaVuSans-6f"/>
      <use x="1592.029297" xlink:href="#DejaVuSans-66"/>
      <use x="1627.234375" xlink:href="#DejaVuSans-20"/>
      <use x="1659.021484" xlink:href="#DejaVuSans-6d"/>
      <use x="1756.433594" xlink:href="#DejaVuSans-69"/>
      <use x="1784.216797" xlink:href="#DejaVuSans-6c"/>
      <use x="1812" xlink:href="#DejaVuSans-6c"/>
      <use x="1839.783203" xlink:href="#DejaVuSans-69"/>
      <use x="1867.566406" xlink:href="#DejaVuSans-6f"/>
      <use x="1928.748047" xlink:href="#DejaVuSans-6e"/>
      <use x="1992.126953" xlink:href="#DejaVuSans-73"/>
      <use x="2044.226562" xlink:href="#DejaVuSans-29"/>
     </g>
    </g>
    <g id="text_20">
     <!-- 1e7 -->
     <g transform="translate(162 100.68)scale(0.1 -0.1)">
      <defs>
       <path d="M 525 4666 
L 3525 4666 
L 3525 4397 
L 1831 0 
L 1172 0 
L 2766 4134 
L 525 4134 
L 525 4666 
z
" id="DejaVuSans-37" transform="scale(0.015625)"/>
      </defs>
      <use xlink:href="#DejaVuSans-31"/>
      <use x="63.623047" xlink:href="#DejaVuSans-65"/>
      <use x="125.146484" xlink:href="#DejaVuSans-37"/>
     </g>
    </g>
   </g>
   <g id="patch_363">
    <path d="M 162 768.96 
L 162 103.68 
" style="fill:none;stroke:#000000;stroke-linecap:square;stroke-linejoin:miter;stroke-width:0.8;"/>
   </g>
   <g id="patch_364">
    <path d="M 1166.4 768.96 
L 1166.4 103.68 
" style="fill:none;stroke:#000000;stroke-linecap:square;stroke-linejoin:miter;stroke-width:0.8;"/>
   </g>
   <g id="patch_365">
    <path d="M 162 768.96 
L 1166.4 768.96 
" style="fill:none;stroke:#000000;stroke-linecap:square;stroke-linejoin:miter;stroke-width:0.8;"/>
   </g>
   <g id="patch_366">
    <path d="M 162 103.68 
L 1166.4 103.68 
" style="fill:none;stroke:#000000;stroke-linecap:square;stroke-linejoin:miter;stroke-width:0.8;"/>
   </g>
   <g id="text_21">
    <!-- Persons Fully Vaccinated -->
    <g transform="translate(590.380313 97.68)scale(0.12 -0.12)">
     <defs>
      <path d="M 1831 0 
L 50 4666 
L 709 4666 
L 2188 738 
L 3669 4666 
L 4325 4666 
L 2547 0 
L 1831 0 
z
" id="DejaVuSans-56" transform="scale(0.015625)"/>
     </defs>
     <use xlink:href="#DejaVuSans-50"/>
     <use x="56.677734" xlink:href="#DejaVuSans-65"/>
     <use x="118.201172" xlink:href="#DejaVuSans-72"/>
     <use x="159.314453" xlink:href="#DejaVuSans-73"/>
     <use x="211.414062" xlink:href="#DejaVuSans-6f"/>
     <use x="272.595703" xlink:href="#DejaVuSans-6e"/>
     <use x="335.974609" xlink:href="#DejaVuSans-73"/>
     <use x="388.074219" xlink:href="#DejaVuSans-20"/>
     <use x="419.861328" xlink:href="#DejaVuSans-46"/>
     <use x="471.880859" xlink:href="#DejaVuSans-75"/>
     <use x="535.259766" xlink:href="#DejaVuSans-6c"/>
     <use x="563.042969" xlink:href="#DejaVuSans-6c"/>
     <use x="590.826172" xlink:href="#DejaVuSans-79"/>
     <use x="650.005859" xlink:href="#DejaVuSans-20"/>
     <use x="681.792969" xlink:href="#DejaVuSans-56"/>
     <use x="742.451172" xlink:href="#DejaVuSans-61"/>
     <use x="803.730469" xlink:href="#DejaVuSans-63"/>
     <use x="858.710938" xlink:href="#DejaVuSans-63"/>
     <use x="913.691406" xlink:href="#DejaVuSans-69"/>
     <use x="941.474609" xlink:href="#DejaVuSans-6e"/>
     <use x="1004.853516" xlink:href="#DejaVuSans-61"/>
     <use x="1066.132812" xlink:href="#DejaVuSans-74"/>
     <use x="1105.341797" xlink:href="#DejaVuSans-65"/>
     <use x="1166.865234" xlink:href="#DejaVuSans-64"/>
    </g>
   </g>
  </g>
 </g>
 <defs>
  <clipPath id="peb5502f951">
   <rect height="665.28" width="1004.4" x="162" y="103.68"/>
  </clipPath>
 </defs>
</svg>
