<?xml version="1.0" encoding="utf-8" standalone="no"?>
<!DOCTYPE svg PUBLIC "-//W3C//DTD SVG 1.1//EN"
  "http://www.w3.org/Graphics/SVG/1.1/DTD/svg11.dtd">
<svg height="864pt" version="1.1" viewBox="0 0 1296 864" width="1296pt" xmlns="http://www.w3.org/2000/svg" xmlns:xlink="http://www.w3.org/1999/xlink">
 <metadata>
  <rdf:RDF xmlns:cc="http://creativecommons.org/ns#" xmlns:dc="http://purl.org/dc/elements/1.1/" xmlns:rdf="http://www.w3.org/1999/02/22-rdf-syntax-ns#">
   <cc:Work>
    <dc:type rdf:resource="http://purl.org/dc/dcmitype/StillImage"/>
    <dc:date>2021-10-19T17:24:49.458807</dc:date>
    <dc:format>image/svg+xml</dc:format>
    <dc:creator>
     <cc:Agent>
      <dc:title>Matplotlib v3.4.2, https://matplotlib.org/</dc:title>
     </cc:Agent>
    </dc:creator>
   </cc:Work>
  </rdf:RDF>
 </metadata>
 <defs>
  <style type="text/css">*{stroke-linecap:butt;stroke-linejoin:round;}</style>
 </defs>
 <g id="figure_1">
  <g id="patch_1">
   <path d="M 0 864 
L 1296 864 
L 1296 0 
L 0 0 
z
" style="fill:#ffffff;"/>
  </g>
  <g id="axes_1">
   <g id="patch_2">
    <path d="M 162 768.96 
L 1166.4 768.96 
L 1166.4 103.68 
L 162 103.68 
z
" style="fill:#ffffff;"/>
   </g>
   <g id="patch_3">
    <path clip-path="url(#p155b4dd32d)" d="M 162.868858 768.96 
L 164.606574 768.96 
L 164.606574 768.957259 
L 162.868858 768.957259 
z
" style="fill:#1f77b4;"/>
   </g>
   <g id="patch_4">
    <path clip-path="url(#p155b4dd32d)" d="M 166.344291 768.96 
L 168.082007 768.96 
L 168.082007 768.946214 
L 166.344291 768.946214 
z
" style="fill:#1f77b4;"/>
   </g>
   <g id="patch_5">
    <path clip-path="url(#p155b4dd32d)" d="M 169.819723 768.96 
L 171.557439 768.96 
L 171.557439 768.917087 
L 169.819723 768.917087 
z
" style="fill:#1f77b4;"/>
   </g>
   <g id="patch_6">
    <path clip-path="url(#p155b4dd32d)" d="M 173.295156 768.96 
L 175.032872 768.96 
L 175.032872 768.712588 
L 173.295156 768.712588 
z
" style="fill:#1f77b4;"/>
   </g>
   <g id="patch_7">
    <path clip-path="url(#p155b4dd32d)" d="M 176.770588 768.96 
L 178.508304 768.96 
L 178.508304 767.234578 
L 176.770588 767.234578 
z
" style="fill:#1f77b4;"/>
   </g>
   <g id="patch_8">
    <path clip-path="url(#p155b4dd32d)" d="M 180.246021 768.96 
L 181.983737 768.96 
L 181.983737 765.466285 
L 180.246021 765.466285 
z
" style="fill:#1f77b4;"/>
   </g>
   <g id="patch_9">
    <path clip-path="url(#p155b4dd32d)" d="M 183.721453 768.96 
L 185.45917 768.96 
L 185.45917 764.50159 
L 183.721453 764.50159 
z
" style="fill:#1f77b4;"/>
   </g>
   <g id="patch_10">
    <path clip-path="url(#p155b4dd32d)" d="M 187.196886 768.96 
L 188.934602 768.96 
L 188.934602 763.915827 
L 187.196886 763.915827 
z
" style="fill:#1f77b4;"/>
   </g>
   <g id="patch_11">
    <path clip-path="url(#p155b4dd32d)" d="M 190.672318 768.96 
L 192.410035 768.96 
L 192.410035 762.996744 
L 190.672318 762.996744 
z
" style="fill:#1f77b4;"/>
   </g>
   <g id="patch_12">
    <path clip-path="url(#p155b4dd32d)" d="M 194.147751 768.96 
L 195.885467 768.96 
L 195.885467 762.120984 
L 194.147751 762.120984 
z
" style="fill:#1f77b4;"/>
   </g>
   <g id="patch_13">
    <path clip-path="url(#p155b4dd32d)" d="M 197.623183 768.96 
L 199.3609 768.96 
L 199.3609 761.405951 
L 197.623183 761.405951 
z
" style="fill:#1f77b4;"/>
   </g>
   <g id="patch_14">
    <path clip-path="url(#p155b4dd32d)" d="M 201.098616 768.96 
L 202.836332 768.96 
L 202.836332 760.531254 
L 201.098616 760.531254 
z
" style="fill:#1f77b4;"/>
   </g>
   <g id="patch_15">
    <path clip-path="url(#p155b4dd32d)" d="M 204.574048 768.96 
L 206.311765 768.96 
L 206.311765 760.34909 
L 204.574048 760.34909 
z
" style="fill:#1f77b4;"/>
   </g>
   <g id="patch_16">
    <path clip-path="url(#p155b4dd32d)" d="M 208.049481 768.96 
L 209.787197 768.96 
L 209.787197 760.236102 
L 208.049481 760.236102 
z
" style="fill:#1f77b4;"/>
   </g>
   <g id="patch_17">
    <path clip-path="url(#p155b4dd32d)" d="M 211.524913 768.96 
L 213.26263 768.96 
L 213.26263 760.182513 
L 211.524913 760.182513 
z
" style="fill:#1f77b4;"/>
   </g>
   <g id="patch_18">
    <path clip-path="url(#p155b4dd32d)" d="M 215.000346 768.96 
L 216.738062 768.96 
L 216.738062 759.937964 
L 215.000346 759.937964 
z
" style="fill:#1f77b4;"/>
   </g>
   <g id="patch_19">
    <path clip-path="url(#p155b4dd32d)" d="M 218.475779 768.96 
L 220.213495 768.96 
L 220.213495 759.527615 
L 218.475779 759.527615 
z
" style="fill:#1f77b4;"/>
   </g>
   <g id="patch_20">
    <path clip-path="url(#p155b4dd32d)" d="M 221.951211 768.96 
L 223.688927 768.96 
L 223.688927 758.726021 
L 221.951211 758.726021 
z
" style="fill:#1f77b4;"/>
   </g>
   <g id="patch_21">
    <path clip-path="url(#p155b4dd32d)" d="M 225.426644 768.96 
L 227.16436 768.96 
L 227.16436 757.929499 
L 225.426644 757.929499 
z
" style="fill:#1f77b4;"/>
   </g>
   <g id="patch_22">
    <path clip-path="url(#p155b4dd32d)" d="M 228.902076 768.96 
L 230.639792 768.96 
L 230.639792 757.355886 
L 228.902076 757.355886 
z
" style="fill:#1f77b4;"/>
   </g>
   <g id="patch_23">
    <path clip-path="url(#p155b4dd32d)" d="M 232.377509 768.96 
L 234.115225 768.96 
L 234.115225 757.1475 
L 232.377509 757.1475 
z
" style="fill:#1f77b4;"/>
   </g>
   <g id="patch_24">
    <path clip-path="url(#p155b4dd32d)" d="M 235.852941 768.96 
L 237.590657 768.96 
L 237.590657 756.864416 
L 235.852941 756.864416 
z
" style="fill:#1f77b4;"/>
   </g>
   <g id="patch_25">
    <path clip-path="url(#p155b4dd32d)" d="M 239.328374 768.96 
L 241.06609 768.96 
L 241.06609 756.103075 
L 239.328374 756.103075 
z
" style="fill:#1f77b4;"/>
   </g>
   <g id="patch_26">
    <path clip-path="url(#p155b4dd32d)" d="M 242.803806 768.96 
L 244.541522 768.96 
L 244.541522 754.84151 
L 242.803806 754.84151 
z
" style="fill:#1f77b4;"/>
   </g>
   <g id="patch_27">
    <path clip-path="url(#p155b4dd32d)" d="M 246.279239 768.96 
L 248.016955 768.96 
L 248.016955 753.089825 
L 246.279239 753.089825 
z
" style="fill:#1f77b4;"/>
   </g>
   <g id="patch_28">
    <path clip-path="url(#p155b4dd32d)" d="M 249.754671 768.96 
L 251.492388 768.96 
L 251.492388 751.611202 
L 249.754671 751.611202 
z
" style="fill:#1f77b4;"/>
   </g>
   <g id="patch_29">
    <path clip-path="url(#p155b4dd32d)" d="M 253.230104 768.96 
L 254.96782 768.96 
L 254.96782 750.272566 
L 253.230104 750.272566 
z
" style="fill:#1f77b4;"/>
   </g>
   <g id="patch_30">
    <path clip-path="url(#p155b4dd32d)" d="M 256.705536 768.96 
L 258.443253 768.96 
L 258.443253 749.532539 
L 256.705536 749.532539 
z
" style="fill:#1f77b4;"/>
   </g>
   <g id="patch_31">
    <path clip-path="url(#p155b4dd32d)" d="M 260.180969 768.96 
L 261.918685 768.96 
L 261.918685 749.118958 
L 260.180969 749.118958 
z
" style="fill:#1f77b4;"/>
   </g>
   <g id="patch_32">
    <path clip-path="url(#p155b4dd32d)" d="M 263.656401 768.96 
L 265.394118 768.96 
L 265.394118 748.399384 
L 263.656401 748.399384 
z
" style="fill:#1f77b4;"/>
   </g>
   <g id="patch_33">
    <path clip-path="url(#p155b4dd32d)" d="M 267.131834 768.96 
L 268.86955 768.96 
L 268.86955 746.841604 
L 267.131834 746.841604 
z
" style="fill:#1f77b4;"/>
   </g>
   <g id="patch_34">
    <path clip-path="url(#p155b4dd32d)" d="M 270.607266 768.96 
L 272.344983 768.96 
L 272.344983 745.684027 
L 270.607266 745.684027 
z
" style="fill:#1f77b4;"/>
   </g>
   <g id="patch_35">
    <path clip-path="url(#p155b4dd32d)" d="M 274.082699 768.96 
L 275.820415 768.96 
L 275.820415 744.106652 
L 274.082699 744.106652 
z
" style="fill:#1f77b4;"/>
   </g>
   <g id="patch_36">
    <path clip-path="url(#p155b4dd32d)" d="M 277.558131 768.96 
L 279.295848 768.96 
L 279.295848 742.864723 
L 277.558131 742.864723 
z
" style="fill:#1f77b4;"/>
   </g>
   <g id="patch_37">
    <path clip-path="url(#p155b4dd32d)" d="M 281.033564 768.96 
L 282.77128 768.96 
L 282.77128 741.761963 
L 281.033564 741.761963 
z
" style="fill:#1f77b4;"/>
   </g>
   <g id="patch_38">
    <path clip-path="url(#p155b4dd32d)" d="M 284.508997 768.96 
L 286.246713 768.96 
L 286.246713 741.385159 
L 284.508997 741.385159 
z
" style="fill:#1f77b4;"/>
   </g>
   <g id="patch_39">
    <path clip-path="url(#p155b4dd32d)" d="M 287.984429 768.96 
L 289.722145 768.96 
L 289.722145 740.106576 
L 287.984429 740.106576 
z
" style="fill:#1f77b4;"/>
   </g>
   <g id="patch_40">
    <path clip-path="url(#p155b4dd32d)" d="M 291.459862 768.96 
L 293.197578 768.96 
L 293.197578 738.534109 
L 291.459862 738.534109 
z
" style="fill:#1f77b4;"/>
   </g>
   <g id="patch_41">
    <path clip-path="url(#p155b4dd32d)" d="M 294.935294 768.96 
L 296.67301 768.96 
L 296.67301 736.631105 
L 294.935294 736.631105 
z
" style="fill:#1f77b4;"/>
   </g>
   <g id="patch_42">
    <path clip-path="url(#p155b4dd32d)" d="M 298.410727 768.96 
L 300.148443 768.96 
L 300.148443 733.917835 
L 298.410727 733.917835 
z
" style="fill:#1f77b4;"/>
   </g>
   <g id="patch_43">
    <path clip-path="url(#p155b4dd32d)" d="M 301.886159 768.96 
L 303.623875 768.96 
L 303.623875 731.463553 
L 301.886159 731.463553 
z
" style="fill:#1f77b4;"/>
   </g>
   <g id="patch_44">
    <path clip-path="url(#p155b4dd32d)" d="M 305.361592 768.96 
L 307.099308 768.96 
L 307.099308 729.927045 
L 305.361592 729.927045 
z
" style="fill:#1f77b4;"/>
   </g>
   <g id="patch_45">
    <path clip-path="url(#p155b4dd32d)" d="M 308.837024 768.96 
L 310.57474 768.96 
L 310.57474 729.097961 
L 308.837024 729.097961 
z
" style="fill:#1f77b4;"/>
   </g>
   <g id="patch_46">
    <path clip-path="url(#p155b4dd32d)" d="M 312.312457 768.96 
L 314.050173 768.96 
L 314.050173 728.290803 
L 312.312457 728.290803 
z
" style="fill:#1f77b4;"/>
   </g>
   <g id="patch_47">
    <path clip-path="url(#p155b4dd32d)" d="M 315.787889 768.96 
L 317.525606 768.96 
L 317.525606 726.715309 
L 315.787889 726.715309 
z
" style="fill:#1f77b4;"/>
   </g>
   <g id="patch_48">
    <path clip-path="url(#p155b4dd32d)" d="M 319.263322 768.96 
L 321.001038 768.96 
L 321.001038 724.10525 
L 319.263322 724.10525 
z
" style="fill:#1f77b4;"/>
   </g>
   <g id="patch_49">
    <path clip-path="url(#p155b4dd32d)" d="M 322.738754 768.96 
L 324.476471 768.96 
L 324.476471 720.701368 
L 322.738754 720.701368 
z
" style="fill:#1f77b4;"/>
   </g>
   <g id="patch_50">
    <path clip-path="url(#p155b4dd32d)" d="M 326.214187 768.96 
L 327.951903 768.96 
L 327.951903 717.501946 
L 326.214187 717.501946 
z
" style="fill:#1f77b4;"/>
   </g>
   <g id="patch_51">
    <path clip-path="url(#p155b4dd32d)" d="M 329.689619 768.96 
L 331.427336 768.96 
L 331.427336 716.987281 
L 329.689619 716.987281 
z
" style="fill:#1f77b4;"/>
   </g>
   <g id="patch_52">
    <path clip-path="url(#p155b4dd32d)" d="M 333.165052 768.96 
L 334.902768 768.96 
L 334.902768 714.636252 
L 333.165052 714.636252 
z
" style="fill:#1f77b4;"/>
   </g>
   <g id="patch_53">
    <path clip-path="url(#p155b4dd32d)" d="M 336.640484 768.96 
L 338.378201 768.96 
L 338.378201 712.753252 
L 336.640484 712.753252 
z
" style="fill:#1f77b4;"/>
   </g>
   <g id="patch_54">
    <path clip-path="url(#p155b4dd32d)" d="M 340.115917 768.96 
L 341.853633 768.96 
L 341.853633 709.915089 
L 340.115917 709.915089 
z
" style="fill:#1f77b4;"/>
   </g>
   <g id="patch_55">
    <path clip-path="url(#p155b4dd32d)" d="M 343.591349 768.96 
L 345.329066 768.96 
L 345.329066 704.502947 
L 343.591349 704.502947 
z
" style="fill:#1f77b4;"/>
   </g>
   <g id="patch_56">
    <path clip-path="url(#p155b4dd32d)" d="M 347.066782 768.96 
L 348.804498 768.96 
L 348.804498 698.831939 
L 347.066782 698.831939 
z
" style="fill:#1f77b4;"/>
   </g>
   <g id="patch_57">
    <path clip-path="url(#p155b4dd32d)" d="M 350.542215 768.96 
L 352.279931 768.96 
L 352.279931 693.869704 
L 350.542215 693.869704 
z
" style="fill:#1f77b4;"/>
   </g>
   <g id="patch_58">
    <path clip-path="url(#p155b4dd32d)" d="M 354.017647 768.96 
L 355.755363 768.96 
L 355.755363 689.593172 
L 354.017647 689.593172 
z
" style="fill:#1f77b4;"/>
   </g>
   <g id="patch_59">
    <path clip-path="url(#p155b4dd32d)" d="M 357.49308 768.96 
L 359.230796 768.96 
L 359.230796 687.573825 
L 357.49308 687.573825 
z
" style="fill:#1f77b4;"/>
   </g>
   <g id="patch_60">
    <path clip-path="url(#p155b4dd32d)" d="M 360.968512 768.96 
L 362.706228 768.96 
L 362.706228 684.49365 
L 360.968512 684.49365 
z
" style="fill:#1f77b4;"/>
   </g>
   <g id="patch_61">
    <path clip-path="url(#p155b4dd32d)" d="M 364.443945 768.96 
L 366.181661 768.96 
L 366.181661 680.282324 
L 364.443945 680.282324 
z
" style="fill:#1f77b4;"/>
   </g>
   <g id="patch_62">
    <path clip-path="url(#p155b4dd32d)" d="M 367.919377 768.96 
L 369.657093 768.96 
L 369.657093 675.475173 
L 367.919377 675.475173 
z
" style="fill:#1f77b4;"/>
   </g>
   <g id="patch_63">
    <path clip-path="url(#p155b4dd32d)" d="M 371.39481 768.96 
L 373.132526 768.96 
L 373.132526 668.485533 
L 371.39481 668.485533 
z
" style="fill:#1f77b4;"/>
   </g>
   <g id="patch_64">
    <path clip-path="url(#p155b4dd32d)" d="M 374.870242 768.96 
L 376.607958 768.96 
L 376.607958 661.969036 
L 374.870242 661.969036 
z
" style="fill:#1f77b4;"/>
   </g>
   <g id="patch_65">
    <path clip-path="url(#p155b4dd32d)" d="M 378.345675 768.96 
L 380.083391 768.96 
L 380.083391 657.0662 
L 378.345675 657.0662 
z
" style="fill:#1f77b4;"/>
   </g>
   <g id="patch_66">
    <path clip-path="url(#p155b4dd32d)" d="M 381.821107 768.96 
L 383.558824 768.96 
L 383.558824 655.520692 
L 381.821107 655.520692 
z
" style="fill:#1f77b4;"/>
   </g>
   <g id="patch_67">
    <path clip-path="url(#p155b4dd32d)" d="M 385.29654 768.96 
L 387.034256 768.96 
L 387.034256 651.329903 
L 385.29654 651.329903 
z
" style="fill:#1f77b4;"/>
   </g>
   <g id="patch_68">
    <path clip-path="url(#p155b4dd32d)" d="M 388.771972 768.96 
L 390.509689 768.96 
L 390.509689 645.876403 
L 388.771972 645.876403 
z
" style="fill:#1f77b4;"/>
   </g>
   <g id="patch_69">
    <path clip-path="url(#p155b4dd32d)" d="M 392.247405 768.96 
L 393.985121 768.96 
L 393.985121 639.802736 
L 392.247405 639.802736 
z
" style="fill:#1f77b4;"/>
   </g>
   <g id="patch_70">
    <path clip-path="url(#p155b4dd32d)" d="M 395.722837 768.96 
L 397.460554 768.96 
L 397.460554 633.354638 
L 395.722837 633.354638 
z
" style="fill:#1f77b4;"/>
   </g>
   <g id="patch_71">
    <path clip-path="url(#p155b4dd32d)" d="M 399.19827 768.96 
L 400.935986 768.96 
L 400.935986 626.07676 
L 399.19827 626.07676 
z
" style="fill:#1f77b4;"/>
   </g>
   <g id="patch_72">
    <path clip-path="url(#p155b4dd32d)" d="M 402.673702 768.96 
L 404.411419 768.96 
L 404.411419 621.352897 
L 402.673702 621.352897 
z
" style="fill:#1f77b4;"/>
   </g>
   <g id="patch_73">
    <path clip-path="url(#p155b4dd32d)" d="M 406.149135 768.96 
L 407.886851 768.96 
L 407.886851 616.689332 
L 406.149135 616.689332 
z
" style="fill:#1f77b4;"/>
   </g>
   <g id="patch_74">
    <path clip-path="url(#p155b4dd32d)" d="M 409.624567 768.96 
L 411.362284 768.96 
L 411.362284 612.550578 
L 409.624567 612.550578 
z
" style="fill:#1f77b4;"/>
   </g>
   <g id="patch_75">
    <path clip-path="url(#p155b4dd32d)" d="M 413.1 768.96 
L 414.837716 768.96 
L 414.837716 607.8765 
L 413.1 607.8765 
z
" style="fill:#1f77b4;"/>
   </g>
   <g id="patch_76">
    <path clip-path="url(#p155b4dd32d)" d="M 416.575433 768.96 
L 418.313149 768.96 
L 418.313149 603.691929 
L 416.575433 603.691929 
z
" style="fill:#1f77b4;"/>
   </g>
   <g id="patch_77">
    <path clip-path="url(#p155b4dd32d)" d="M 420.050865 768.96 
L 421.788581 768.96 
L 421.788581 598.932476 
L 420.050865 598.932476 
z
" style="fill:#1f77b4;"/>
   </g>
   <g id="patch_78">
    <path clip-path="url(#p155b4dd32d)" d="M 423.526298 768.96 
L 425.264014 768.96 
L 425.264014 594.075498 
L 423.526298 594.075498 
z
" style="fill:#1f77b4;"/>
   </g>
   <g id="patch_79">
    <path clip-path="url(#p155b4dd32d)" d="M 427.00173 768.96 
L 428.739446 768.96 
L 428.739446 591.22359 
L 427.00173 591.22359 
z
" style="fill:#1f77b4;"/>
   </g>
   <g id="patch_80">
    <path clip-path="url(#p155b4dd32d)" d="M 430.477163 768.96 
L 432.214879 768.96 
L 432.214879 589.651001 
L 430.477163 589.651001 
z
" style="fill:#1f77b4;"/>
   </g>
   <g id="patch_81">
    <path clip-path="url(#p155b4dd32d)" d="M 433.952595 768.96 
L 435.690311 768.96 
L 435.690311 587.047773 
L 433.952595 587.047773 
z
" style="fill:#1f77b4;"/>
   </g>
   <g id="patch_82">
    <path clip-path="url(#p155b4dd32d)" d="M 437.428028 768.96 
L 439.165744 768.96 
L 439.165744 583.938062 
L 437.428028 583.938062 
z
" style="fill:#1f77b4;"/>
   </g>
   <g id="patch_83">
    <path clip-path="url(#p155b4dd32d)" d="M 440.90346 768.96 
L 442.641176 768.96 
L 442.641176 580.690777 
L 440.90346 580.690777 
z
" style="fill:#1f77b4;"/>
   </g>
   <g id="patch_84">
    <path clip-path="url(#p155b4dd32d)" d="M 444.378893 768.96 
L 446.116609 768.96 
L 446.116609 576.463988 
L 444.378893 576.463988 
z
" style="fill:#1f77b4;"/>
   </g>
   <g id="patch_85">
    <path clip-path="url(#p155b4dd32d)" d="M 447.854325 768.96 
L 449.592042 768.96 
L 449.592042 571.228528 
L 447.854325 571.228528 
z
" style="fill:#1f77b4;"/>
   </g>
   <g id="patch_86">
    <path clip-path="url(#p155b4dd32d)" d="M 451.329758 768.96 
L 453.067474 768.96 
L 453.067474 566.706506 
L 451.329758 566.706506 
z
" style="fill:#1f77b4;"/>
   </g>
   <g id="patch_87">
    <path clip-path="url(#p155b4dd32d)" d="M 454.80519 768.96 
L 456.542907 768.96 
L 456.542907 564.913136 
L 454.80519 564.913136 
z
" style="fill:#1f77b4;"/>
   </g>
   <g id="patch_88">
    <path clip-path="url(#p155b4dd32d)" d="M 458.280623 768.96 
L 460.018339 768.96 
L 460.018339 562.175034 
L 458.280623 562.175034 
z
" style="fill:#1f77b4;"/>
   </g>
   <g id="patch_89">
    <path clip-path="url(#p155b4dd32d)" d="M 461.756055 768.96 
L 463.493772 768.96 
L 463.493772 557.206991 
L 461.756055 557.206991 
z
" style="fill:#1f77b4;"/>
   </g>
   <g id="patch_90">
    <path clip-path="url(#p155b4dd32d)" d="M 465.231488 768.96 
L 466.969204 768.96 
L 466.969204 553.012601 
L 465.231488 553.012601 
z
" style="fill:#1f77b4;"/>
   </g>
   <g id="patch_91">
    <path clip-path="url(#p155b4dd32d)" d="M 468.70692 768.96 
L 470.444637 768.96 
L 470.444637 547.195429 
L 468.70692 547.195429 
z
" style="fill:#1f77b4;"/>
   </g>
   <g id="patch_92">
    <path clip-path="url(#p155b4dd32d)" d="M 472.182353 768.96 
L 473.920069 768.96 
L 473.920069 541.316484 
L 472.182353 541.316484 
z
" style="fill:#1f77b4;"/>
   </g>
   <g id="patch_93">
    <path clip-path="url(#p155b4dd32d)" d="M 475.657785 768.96 
L 477.395502 768.96 
L 477.395502 536.851529 
L 475.657785 536.851529 
z
" style="fill:#1f77b4;"/>
   </g>
   <g id="patch_94">
    <path clip-path="url(#p155b4dd32d)" d="M 479.133218 768.96 
L 480.870934 768.96 
L 480.870934 535.609559 
L 479.133218 535.609559 
z
" style="fill:#1f77b4;"/>
   </g>
   <g id="patch_95">
    <path clip-path="url(#p155b4dd32d)" d="M 482.608651 768.96 
L 484.346367 768.96 
L 484.346367 531.411611 
L 482.608651 531.411611 
z
" style="fill:#1f77b4;"/>
   </g>
   <g id="patch_96">
    <path clip-path="url(#p155b4dd32d)" d="M 486.084083 768.96 
L 487.821799 768.96 
L 487.821799 524.963021 
L 486.084083 524.963021 
z
" style="fill:#1f77b4;"/>
   </g>
   <g id="patch_97">
    <path clip-path="url(#p155b4dd32d)" d="M 489.559516 768.96 
L 491.297232 768.96 
L 491.297232 517.801813 
L 489.559516 517.801813 
z
" style="fill:#1f77b4;"/>
   </g>
   <g id="patch_98">
    <path clip-path="url(#p155b4dd32d)" d="M 493.034948 768.96 
L 494.772664 768.96 
L 494.772664 509.291905 
L 493.034948 509.291905 
z
" style="fill:#1f77b4;"/>
   </g>
   <g id="patch_99">
    <path clip-path="url(#p155b4dd32d)" d="M 496.510381 768.96 
L 498.248097 768.96 
L 498.248097 499.263653 
L 496.510381 499.263653 
z
" style="fill:#1f77b4;"/>
   </g>
   <g id="patch_100">
    <path clip-path="url(#p155b4dd32d)" d="M 499.985813 768.96 
L 501.723529 768.96 
L 501.723529 492.680762 
L 499.985813 492.680762 
z
" style="fill:#1f77b4;"/>
   </g>
   <g id="patch_101">
    <path clip-path="url(#p155b4dd32d)" d="M 503.461246 768.96 
L 505.198962 768.96 
L 505.198962 489.500321 
L 503.461246 489.500321 
z
" style="fill:#1f77b4;"/>
   </g>
   <g id="patch_102">
    <path clip-path="url(#p155b4dd32d)" d="M 506.936678 768.96 
L 508.674394 768.96 
L 508.674394 484.002272 
L 506.936678 484.002272 
z
" style="fill:#1f77b4;"/>
   </g>
   <g id="patch_103">
    <path clip-path="url(#p155b4dd32d)" d="M 510.412111 768.96 
L 512.149827 768.96 
L 512.149827 477.187228 
L 510.412111 477.187228 
z
" style="fill:#1f77b4;"/>
   </g>
   <g id="patch_104">
    <path clip-path="url(#p155b4dd32d)" d="M 513.887543 768.96 
L 515.62526 768.96 
L 515.62526 471.305093 
L 513.887543 471.305093 
z
" style="fill:#1f77b4;"/>
   </g>
   <g id="patch_105">
    <path clip-path="url(#p155b4dd32d)" d="M 517.362976 768.96 
L 519.100692 768.96 
L 519.100692 463.292178 
L 517.362976 463.292178 
z
" style="fill:#1f77b4;"/>
   </g>
   <g id="patch_106">
    <path clip-path="url(#p155b4dd32d)" d="M 520.838408 768.96 
L 522.576125 768.96 
L 522.576125 455.527575 
L 520.838408 455.527575 
z
" style="fill:#1f77b4;"/>
   </g>
   <g id="patch_107">
    <path clip-path="url(#p155b4dd32d)" d="M 524.313841 768.96 
L 526.051557 768.96 
L 526.051557 450.187186 
L 524.313841 450.187186 
z
" style="fill:#1f77b4;"/>
   </g>
   <g id="patch_108">
    <path clip-path="url(#p155b4dd32d)" d="M 527.789273 768.96 
L 529.52699 768.96 
L 529.52699 447.06553 
L 527.789273 447.06553 
z
" style="fill:#1f77b4;"/>
   </g>
   <g id="patch_109">
    <path clip-path="url(#p155b4dd32d)" d="M 531.264706 768.96 
L 533.002422 768.96 
L 533.002422 442.596443 
L 531.264706 442.596443 
z
" style="fill:#1f77b4;"/>
   </g>
   <g id="patch_110">
    <path clip-path="url(#p155b4dd32d)" d="M 534.740138 768.96 
L 536.477855 768.96 
L 536.477855 435.47557 
L 534.740138 435.47557 
z
" style="fill:#1f77b4;"/>
   </g>
   <g id="patch_111">
    <path clip-path="url(#p155b4dd32d)" d="M 538.215571 768.96 
L 539.953287 768.96 
L 539.953287 429.19094 
L 538.215571 429.19094 
z
" style="fill:#1f77b4;"/>
   </g>
   <g id="patch_112">
    <path clip-path="url(#p155b4dd32d)" d="M 541.691003 768.96 
L 543.42872 768.96 
L 543.42872 422.599377 
L 541.691003 422.599377 
z
" style="fill:#1f77b4;"/>
   </g>
   <g id="patch_113">
    <path clip-path="url(#p155b4dd32d)" d="M 545.166436 768.96 
L 546.904152 768.96 
L 546.904152 416.576559 
L 545.166436 416.576559 
z
" style="fill:#1f77b4;"/>
   </g>
   <g id="patch_114">
    <path clip-path="url(#p155b4dd32d)" d="M 548.641869 768.96 
L 550.379585 768.96 
L 550.379585 412.646764 
L 548.641869 412.646764 
z
" style="fill:#1f77b4;"/>
   </g>
   <g id="patch_115">
    <path clip-path="url(#p155b4dd32d)" d="M 552.117301 768.96 
L 553.855017 768.96 
L 553.855017 411.028521 
L 552.117301 411.028521 
z
" style="fill:#1f77b4;"/>
   </g>
   <g id="patch_116">
    <path clip-path="url(#p155b4dd32d)" d="M 555.592734 768.96 
L 557.33045 768.96 
L 557.33045 407.291361 
L 555.592734 407.291361 
z
" style="fill:#1f77b4;"/>
   </g>
   <g id="patch_117">
    <path clip-path="url(#p155b4dd32d)" d="M 559.068166 768.96 
L 560.805882 768.96 
L 560.805882 401.960995 
L 559.068166 401.960995 
z
" style="fill:#1f77b4;"/>
   </g>
   <g id="patch_118">
    <path clip-path="url(#p155b4dd32d)" d="M 562.543599 768.96 
L 564.281315 768.96 
L 564.281315 396.424124 
L 562.543599 396.424124 
z
" style="fill:#1f77b4;"/>
   </g>
   <g id="patch_119">
    <path clip-path="url(#p155b4dd32d)" d="M 566.019031 768.96 
L 567.756747 768.96 
L 567.756747 391.054814 
L 566.019031 391.054814 
z
" style="fill:#1f77b4;"/>
   </g>
   <g id="patch_120">
    <path clip-path="url(#p155b4dd32d)" d="M 569.494464 768.96 
L 571.23218 768.96 
L 571.23218 386.443898 
L 569.494464 386.443898 
z
" style="fill:#1f77b4;"/>
   </g>
   <g id="patch_121">
    <path clip-path="url(#p155b4dd32d)" d="M 572.969896 768.96 
L 574.707612 768.96 
L 574.707612 384.396938 
L 572.969896 384.396938 
z
" style="fill:#1f77b4;"/>
   </g>
   <g id="patch_122">
    <path clip-path="url(#p155b4dd32d)" d="M 576.445329 768.96 
L 578.183045 768.96 
L 578.183045 383.733082 
L 576.445329 383.733082 
z
" style="fill:#1f77b4;"/>
   </g>
   <g id="patch_123">
    <path clip-path="url(#p155b4dd32d)" d="M 579.920761 768.96 
L 581.658478 768.96 
L 581.658478 381.464196 
L 579.920761 381.464196 
z
" style="fill:#1f77b4;"/>
   </g>
   <g id="patch_124">
    <path clip-path="url(#p155b4dd32d)" d="M 583.396194 768.96 
L 585.13391 768.96 
L 585.13391 375.535385 
L 583.396194 375.535385 
z
" style="fill:#1f77b4;"/>
   </g>
   <g id="patch_125">
    <path clip-path="url(#p155b4dd32d)" d="M 586.871626 768.96 
L 588.609343 768.96 
L 588.609343 369.814428 
L 586.871626 369.814428 
z
" style="fill:#1f77b4;"/>
   </g>
   <g id="patch_126">
    <path clip-path="url(#p155b4dd32d)" d="M 590.347059 768.96 
L 592.084775 768.96 
L 592.084775 365.50705 
L 590.347059 365.50705 
z
" style="fill:#1f77b4;"/>
   </g>
   <g id="patch_127">
    <path clip-path="url(#p155b4dd32d)" d="M 593.822491 768.96 
L 595.560208 768.96 
L 595.560208 359.163677 
L 593.822491 359.163677 
z
" style="fill:#1f77b4;"/>
   </g>
   <g id="patch_128">
    <path clip-path="url(#p155b4dd32d)" d="M 597.297924 768.96 
L 599.03564 768.96 
L 599.03564 354.937993 
L 597.297924 354.937993 
z
" style="fill:#1f77b4;"/>
   </g>
   <g id="patch_129">
    <path clip-path="url(#p155b4dd32d)" d="M 600.773356 768.96 
L 602.511073 768.96 
L 602.511073 351.173302 
L 600.773356 351.173302 
z
" style="fill:#1f77b4;"/>
   </g>
   <g id="patch_130">
    <path clip-path="url(#p155b4dd32d)" d="M 604.248789 768.96 
L 605.986505 768.96 
L 605.986505 347.731703 
L 604.248789 347.731703 
z
" style="fill:#1f77b4;"/>
   </g>
   <g id="patch_131">
    <path clip-path="url(#p155b4dd32d)" d="M 607.724221 768.96 
L 609.461938 768.96 
L 609.461938 343.320788 
L 607.724221 343.320788 
z
" style="fill:#1f77b4;"/>
   </g>
   <g id="patch_132">
    <path clip-path="url(#p155b4dd32d)" d="M 611.199654 768.96 
L 612.93737 768.96 
L 612.93737 339.313185 
L 611.199654 339.313185 
z
" style="fill:#1f77b4;"/>
   </g>
   <g id="patch_133">
    <path clip-path="url(#p155b4dd32d)" d="M 614.675087 768.96 
L 616.412803 768.96 
L 616.412803 335.172098 
L 614.675087 335.172098 
z
" style="fill:#1f77b4;"/>
   </g>
   <g id="patch_134">
    <path clip-path="url(#p155b4dd32d)" d="M 618.150519 768.96 
L 619.888235 768.96 
L 619.888235 329.16683 
L 618.150519 329.16683 
z
" style="fill:#1f77b4;"/>
   </g>
   <g id="patch_135">
    <path clip-path="url(#p155b4dd32d)" d="M 621.625952 768.96 
L 623.363668 768.96 
L 623.363668 325.886737 
L 621.625952 325.886737 
z
" style="fill:#1f77b4;"/>
   </g>
   <g id="patch_136">
    <path clip-path="url(#p155b4dd32d)" d="M 625.101384 768.96 
L 626.8391 768.96 
L 626.8391 324.580255 
L 625.101384 324.580255 
z
" style="fill:#1f77b4;"/>
   </g>
   <g id="patch_137">
    <path clip-path="url(#p155b4dd32d)" d="M 628.576817 768.96 
L 630.314533 768.96 
L 630.314533 322.257329 
L 628.576817 322.257329 
z
" style="fill:#1f77b4;"/>
   </g>
   <g id="patch_138">
    <path clip-path="url(#p155b4dd32d)" d="M 632.052249 768.96 
L 633.789965 768.96 
L 633.789965 317.963288 
L 632.052249 317.963288 
z
" style="fill:#1f77b4;"/>
   </g>
   <g id="patch_139">
    <path clip-path="url(#p155b4dd32d)" d="M 635.527682 768.96 
L 637.265398 768.96 
L 637.265398 314.120258 
L 635.527682 314.120258 
z
" style="fill:#1f77b4;"/>
   </g>
   <g id="patch_140">
    <path clip-path="url(#p155b4dd32d)" d="M 639.003114 768.96 
L 640.74083 768.96 
L 640.74083 308.629737 
L 639.003114 308.629737 
z
" style="fill:#1f77b4;"/>
   </g>
   <g id="patch_141">
    <path clip-path="url(#p155b4dd32d)" d="M 642.478547 768.96 
L 644.216263 768.96 
L 644.216263 305.047128 
L 642.478547 305.047128 
z
" style="fill:#1f77b4;"/>
   </g>
   <g id="patch_142">
    <path clip-path="url(#p155b4dd32d)" d="M 645.953979 768.96 
L 647.691696 768.96 
L 647.691696 302.249505 
L 645.953979 302.249505 
z
" style="fill:#1f77b4;"/>
   </g>
   <g id="patch_143">
    <path clip-path="url(#p155b4dd32d)" d="M 649.429412 768.96 
L 651.167128 768.96 
L 651.167128 300.965481 
L 649.429412 300.965481 
z
" style="fill:#1f77b4;"/>
   </g>
   <g id="patch_144">
    <path clip-path="url(#p155b4dd32d)" d="M 652.904844 768.96 
L 654.642561 768.96 
L 654.642561 298.811506 
L 652.904844 298.811506 
z
" style="fill:#1f77b4;"/>
   </g>
   <g id="patch_145">
    <path clip-path="url(#p155b4dd32d)" d="M 656.380277 768.96 
L 658.117993 768.96 
L 658.117993 296.135503 
L 656.380277 296.135503 
z
" style="fill:#1f77b4;"/>
   </g>
   <g id="patch_146">
    <path clip-path="url(#p155b4dd32d)" d="M 659.855709 768.96 
L 661.593426 768.96 
L 661.593426 293.451972 
L 659.855709 293.451972 
z
" style="fill:#1f77b4;"/>
   </g>
   <g id="patch_147">
    <path clip-path="url(#p155b4dd32d)" d="M 663.331142 768.96 
L 665.068858 768.96 
L 665.068858 290.642731 
L 663.331142 290.642731 
z
" style="fill:#1f77b4;"/>
   </g>
   <g id="patch_148">
    <path clip-path="url(#p155b4dd32d)" d="M 666.806574 768.96 
L 668.544291 768.96 
L 668.544291 288.041671 
L 666.806574 288.041671 
z
" style="fill:#1f77b4;"/>
   </g>
   <g id="patch_149">
    <path clip-path="url(#p155b4dd32d)" d="M 670.282007 768.96 
L 672.019723 768.96 
L 672.019723 286.267733 
L 670.282007 286.267733 
z
" style="fill:#1f77b4;"/>
   </g>
   <g id="patch_150">
    <path clip-path="url(#p155b4dd32d)" d="M 673.757439 768.96 
L 675.495156 768.96 
L 675.495156 285.276857 
L 673.757439 285.276857 
z
" style="fill:#1f77b4;"/>
   </g>
   <g id="patch_151">
    <path clip-path="url(#p155b4dd32d)" d="M 677.232872 768.96 
L 678.970588 768.96 
L 678.970588 284.561824 
L 677.232872 284.561824 
z
" style="fill:#1f77b4;"/>
   </g>
   <g id="patch_152">
    <path clip-path="url(#p155b4dd32d)" d="M 680.708304 768.96 
L 682.446021 768.96 
L 682.446021 283.01697 
L 680.708304 283.01697 
z
" style="fill:#1f77b4;"/>
   </g>
   <g id="patch_153">
    <path clip-path="url(#p155b4dd32d)" d="M 684.183737 768.96 
L 685.921453 768.96 
L 685.921453 281.381383 
L 684.183737 281.381383 
z
" style="fill:#1f77b4;"/>
   </g>
   <g id="patch_154">
    <path clip-path="url(#p155b4dd32d)" d="M 687.65917 768.96 
L 689.396886 768.96 
L 689.396886 278.851258 
L 687.65917 278.851258 
z
" style="fill:#1f77b4;"/>
   </g>
   <g id="patch_155">
    <path clip-path="url(#p155b4dd32d)" d="M 691.134602 768.96 
L 692.872318 768.96 
L 692.872318 276.289633 
L 691.134602 276.289633 
z
" style="fill:#1f77b4;"/>
   </g>
   <g id="patch_156">
    <path clip-path="url(#p155b4dd32d)" d="M 694.610035 768.96 
L 696.347751 768.96 
L 696.347751 274.123467 
L 694.610035 274.123467 
z
" style="fill:#1f77b4;"/>
   </g>
   <g id="patch_157">
    <path clip-path="url(#p155b4dd32d)" d="M 698.085467 768.96 
L 699.823183 768.96 
L 699.823183 272.642881 
L 698.085467 272.642881 
z
" style="fill:#1f77b4;"/>
   </g>
   <g id="patch_158">
    <path clip-path="url(#p155b4dd32d)" d="M 701.5609 768.96 
L 703.298616 768.96 
L 703.298616 270.605248 
L 701.5609 270.605248 
z
" style="fill:#1f77b4;"/>
   </g>
   <g id="patch_159">
    <path clip-path="url(#p155b4dd32d)" d="M 705.036332 768.96 
L 706.774048 768.96 
L 706.774048 268.229224 
L 705.036332 268.229224 
z
" style="fill:#1f77b4;"/>
   </g>
   <g id="patch_160">
    <path clip-path="url(#p155b4dd32d)" d="M 708.511765 768.96 
L 710.249481 768.96 
L 710.249481 265.299877 
L 708.511765 265.299877 
z
" style="fill:#1f77b4;"/>
   </g>
   <g id="patch_161">
    <path clip-path="url(#p155b4dd32d)" d="M 711.987197 768.96 
L 713.724913 768.96 
L 713.724913 263.298284 
L 711.987197 263.298284 
z
" style="fill:#1f77b4;"/>
   </g>
   <g id="patch_162">
    <path clip-path="url(#p155b4dd32d)" d="M 715.46263 768.96 
L 717.200346 768.96 
L 717.200346 261.399207 
L 715.46263 261.399207 
z
" style="fill:#1f77b4;"/>
   </g>
   <g id="patch_163">
    <path clip-path="url(#p155b4dd32d)" d="M 718.938062 768.96 
L 720.675779 768.96 
L 720.675779 260.25959 
L 718.938062 260.25959 
z
" style="fill:#1f77b4;"/>
   </g>
   <g id="patch_164">
    <path clip-path="url(#p155b4dd32d)" d="M 722.413495 768.96 
L 724.151211 768.96 
L 724.151211 259.156625 
L 722.413495 259.156625 
z
" style="fill:#1f77b4;"/>
   </g>
   <g id="patch_165">
    <path clip-path="url(#p155b4dd32d)" d="M 725.888927 768.96 
L 727.626644 768.96 
L 727.626644 255.842169 
L 725.888927 255.842169 
z
" style="fill:#1f77b4;"/>
   </g>
   <g id="patch_166">
    <path clip-path="url(#p155b4dd32d)" d="M 729.36436 768.96 
L 731.102076 768.96 
L 731.102076 253.232478 
L 729.36436 253.232478 
z
" style="fill:#1f77b4;"/>
   </g>
   <g id="patch_167">
    <path clip-path="url(#p155b4dd32d)" d="M 732.839792 768.96 
L 734.577509 768.96 
L 734.577509 251.424299 
L 732.839792 251.424299 
z
" style="fill:#1f77b4;"/>
   </g>
   <g id="patch_168">
    <path clip-path="url(#p155b4dd32d)" d="M 736.315225 768.96 
L 738.052941 768.96 
L 738.052941 249.03318 
L 736.315225 249.03318 
z
" style="fill:#1f77b4;"/>
   </g>
   <g id="patch_169">
    <path clip-path="url(#p155b4dd32d)" d="M 739.790657 768.96 
L 741.528374 768.96 
L 741.528374 247.905793 
L 739.790657 247.905793 
z
" style="fill:#1f77b4;"/>
   </g>
   <g id="patch_170">
    <path clip-path="url(#p155b4dd32d)" d="M 743.26609 768.96 
L 745.003806 768.96 
L 745.003806 246.117782 
L 743.26609 246.117782 
z
" style="fill:#1f77b4;"/>
   </g>
   <g id="patch_171">
    <path clip-path="url(#p155b4dd32d)" d="M 746.741522 768.96 
L 748.479239 768.96 
L 748.479239 245.366627 
L 746.741522 245.366627 
z
" style="fill:#1f77b4;"/>
   </g>
   <g id="patch_172">
    <path clip-path="url(#p155b4dd32d)" d="M 750.216955 768.96 
L 751.954671 768.96 
L 751.954671 244.391869 
L 750.216955 244.391869 
z
" style="fill:#1f77b4;"/>
   </g>
   <g id="patch_173">
    <path clip-path="url(#p155b4dd32d)" d="M 753.692388 768.96 
L 755.430104 768.96 
L 755.430104 243.206966 
L 753.692388 243.206966 
z
" style="fill:#1f77b4;"/>
   </g>
   <g id="patch_174">
    <path clip-path="url(#p155b4dd32d)" d="M 757.16782 768.96 
L 758.905536 768.96 
L 758.905536 241.809914 
L 757.16782 241.809914 
z
" style="fill:#1f77b4;"/>
   </g>
   <g id="patch_175">
    <path clip-path="url(#p155b4dd32d)" d="M 760.643253 768.96 
L 762.380969 768.96 
L 762.380969 240.084369 
L 760.643253 240.084369 
z
" style="fill:#1f77b4;"/>
   </g>
   <g id="patch_176">
    <path clip-path="url(#p155b4dd32d)" d="M 764.118685 768.96 
L 765.856401 768.96 
L 765.856401 235.990818 
L 764.118685 235.990818 
z
" style="fill:#1f77b4;"/>
   </g>
   <g id="patch_177">
    <path clip-path="url(#p155b4dd32d)" d="M 767.594118 768.96 
L 769.331834 768.96 
L 769.331834 231.277509 
L 767.594118 231.277509 
z
" style="fill:#1f77b4;"/>
   </g>
   <g id="patch_178">
    <path clip-path="url(#p155b4dd32d)" d="M 771.06955 768.96 
L 772.807266 768.96 
L 772.807266 230.902628 
L 771.06955 230.902628 
z
" style="fill:#1f77b4;"/>
   </g>
   <g id="patch_179">
    <path clip-path="url(#p155b4dd32d)" d="M 774.544983 768.96 
L 776.282699 768.96 
L 776.282699 229.937196 
L 774.544983 229.937196 
z
" style="fill:#1f77b4;"/>
   </g>
   <g id="patch_180">
    <path clip-path="url(#p155b4dd32d)" d="M 778.020415 768.96 
L 779.758131 768.96 
L 779.758131 228.730571 
L 778.020415 228.730571 
z
" style="fill:#1f77b4;"/>
   </g>
   <g id="patch_181">
    <path clip-path="url(#p155b4dd32d)" d="M 781.495848 768.96 
L 783.233564 768.96 
L 783.233564 227.567349 
L 781.495848 227.567349 
z
" style="fill:#1f77b4;"/>
   </g>
   <g id="patch_182">
    <path clip-path="url(#p155b4dd32d)" d="M 784.97128 768.96 
L 786.708997 768.96 
L 786.708997 226.508811 
L 784.97128 226.508811 
z
" style="fill:#1f77b4;"/>
   </g>
   <g id="patch_183">
    <path clip-path="url(#p155b4dd32d)" d="M 788.446713 768.96 
L 790.184429 768.96 
L 790.184429 225.452769 
L 788.446713 225.452769 
z
" style="fill:#1f77b4;"/>
   </g>
   <g id="patch_184">
    <path clip-path="url(#p155b4dd32d)" d="M 791.922145 768.96 
L 793.659862 768.96 
L 793.659862 224.680587 
L 791.922145 224.680587 
z
" style="fill:#1f77b4;"/>
   </g>
   <g id="patch_185">
    <path clip-path="url(#p155b4dd32d)" d="M 795.397578 768.96 
L 797.135294 768.96 
L 797.135294 224.303292 
L 795.397578 224.303292 
z
" style="fill:#1f77b4;"/>
   </g>
   <g id="patch_186">
    <path clip-path="url(#p155b4dd32d)" d="M 798.87301 768.96 
L 800.610727 768.96 
L 800.610727 224.234116 
L 798.87301 224.234116 
z
" style="fill:#1f77b4;"/>
   </g>
   <g id="patch_187">
    <path clip-path="url(#p155b4dd32d)" d="M 802.348443 768.96 
L 804.086159 768.96 
L 804.086159 223.625895 
L 802.348443 223.625895 
z
" style="fill:#1f77b4;"/>
   </g>
   <g id="patch_188">
    <path clip-path="url(#p155b4dd32d)" d="M 805.823875 768.96 
L 807.561592 768.96 
L 807.561592 222.535776 
L 805.823875 222.535776 
z
" style="fill:#1f77b4;"/>
   </g>
   <g id="patch_189">
    <path clip-path="url(#p155b4dd32d)" d="M 809.299308 768.96 
L 811.037024 768.96 
L 811.037024 221.440952 
L 809.299308 221.440952 
z
" style="fill:#1f77b4;"/>
   </g>
   <g id="patch_190">
    <path clip-path="url(#p155b4dd32d)" d="M 812.77474 768.96 
L 814.512457 768.96 
L 814.512457 220.463412 
L 812.77474 220.463412 
z
" style="fill:#1f77b4;"/>
   </g>
   <g id="patch_191">
    <path clip-path="url(#p155b4dd32d)" d="M 816.250173 768.96 
L 817.987889 768.96 
L 817.987889 219.663741 
L 816.250173 219.663741 
z
" style="fill:#1f77b4;"/>
   </g>
   <g id="patch_192">
    <path clip-path="url(#p155b4dd32d)" d="M 819.725606 768.96 
L 821.463322 768.96 
L 821.463322 219.120481 
L 819.725606 219.120481 
z
" style="fill:#1f77b4;"/>
   </g>
   <g id="patch_193">
    <path clip-path="url(#p155b4dd32d)" d="M 823.201038 768.96 
L 824.938754 768.96 
L 824.938754 218.088492 
L 823.201038 218.088492 
z
" style="fill:#1f77b4;"/>
   </g>
   <g id="patch_194">
    <path clip-path="url(#p155b4dd32d)" d="M 826.676471 768.96 
L 828.414187 768.96 
L 828.414187 217.222591 
L 826.676471 217.222591 
z
" style="fill:#1f77b4;"/>
   </g>
   <g id="patch_195">
    <path clip-path="url(#p155b4dd32d)" d="M 830.151903 768.96 
L 831.889619 768.96 
L 831.889619 216.401442 
L 830.151903 216.401442 
z
" style="fill:#1f77b4;"/>
   </g>
   <g id="patch_196">
    <path clip-path="url(#p155b4dd32d)" d="M 833.627336 768.96 
L 835.365052 768.96 
L 835.365052 215.587698 
L 833.627336 215.587698 
z
" style="fill:#1f77b4;"/>
   </g>
   <g id="patch_197">
    <path clip-path="url(#p155b4dd32d)" d="M 837.102768 768.96 
L 838.840484 768.96 
L 838.840484 214.7697 
L 837.102768 214.7697 
z
" style="fill:#1f77b4;"/>
   </g>
   <g id="patch_198">
    <path clip-path="url(#p155b4dd32d)" d="M 840.578201 768.96 
L 842.315917 768.96 
L 842.315917 214.096394 
L 840.578201 214.096394 
z
" style="fill:#1f77b4;"/>
   </g>
   <g id="patch_199">
    <path clip-path="url(#p155b4dd32d)" d="M 844.053633 768.96 
L 845.791349 768.96 
L 845.791349 213.638837 
L 844.053633 213.638837 
z
" style="fill:#1f77b4;"/>
   </g>
   <g id="patch_200">
    <path clip-path="url(#p155b4dd32d)" d="M 847.529066 768.96 
L 849.266782 768.96 
L 849.266782 212.947203 
L 847.529066 212.947203 
z
" style="fill:#1f77b4;"/>
   </g>
   <g id="patch_201">
    <path clip-path="url(#p155b4dd32d)" d="M 851.004498 768.96 
L 852.742215 768.96 
L 852.742215 212.017485 
L 851.004498 212.017485 
z
" style="fill:#1f77b4;"/>
   </g>
   <g id="patch_202">
    <path clip-path="url(#p155b4dd32d)" d="M 854.479931 768.96 
L 856.217647 768.96 
L 856.217647 211.14647 
L 854.479931 211.14647 
z
" style="fill:#1f77b4;"/>
   </g>
   <g id="patch_203">
    <path clip-path="url(#p155b4dd32d)" d="M 857.955363 768.96 
L 859.69308 768.96 
L 859.69308 210.512885 
L 857.955363 210.512885 
z
" style="fill:#1f77b4;"/>
   </g>
   <g id="patch_204">
    <path clip-path="url(#p155b4dd32d)" d="M 861.430796 768.96 
L 863.168512 768.96 
L 863.168512 209.853937 
L 861.430796 209.853937 
z
" style="fill:#1f77b4;"/>
   </g>
   <g id="patch_205">
    <path clip-path="url(#p155b4dd32d)" d="M 864.906228 768.96 
L 866.643945 768.96 
L 866.643945 209.453161 
L 864.906228 209.453161 
z
" style="fill:#1f77b4;"/>
   </g>
   <g id="patch_206">
    <path clip-path="url(#p155b4dd32d)" d="M 868.381661 768.96 
L 870.119377 768.96 
L 870.119377 209.221375 
L 868.381661 209.221375 
z
" style="fill:#1f77b4;"/>
   </g>
   <g id="patch_207">
    <path clip-path="url(#p155b4dd32d)" d="M 871.857093 768.96 
L 873.59481 768.96 
L 873.59481 208.820967 
L 871.857093 208.820967 
z
" style="fill:#1f77b4;"/>
   </g>
   <g id="patch_208">
    <path clip-path="url(#p155b4dd32d)" d="M 875.332526 768.96 
L 877.070242 768.96 
L 877.070242 207.934161 
L 875.332526 207.934161 
z
" style="fill:#1f77b4;"/>
   </g>
   <g id="patch_209">
    <path clip-path="url(#p155b4dd32d)" d="M 878.807958 768.96 
L 880.545675 768.96 
L 880.545675 206.468219 
L 878.807958 206.468219 
z
" style="fill:#1f77b4;"/>
   </g>
   <g id="patch_210">
    <path clip-path="url(#p155b4dd32d)" d="M 882.283391 768.96 
L 884.021107 768.96 
L 884.021107 205.682906 
L 882.283391 205.682906 
z
" style="fill:#1f77b4;"/>
   </g>
   <g id="patch_211">
    <path clip-path="url(#p155b4dd32d)" d="M 885.758824 768.96 
L 887.49654 768.96 
L 887.49654 203.767589 
L 885.758824 203.767589 
z
" style="fill:#1f77b4;"/>
   </g>
   <g id="patch_212">
    <path clip-path="url(#p155b4dd32d)" d="M 889.234256 768.96 
L 890.971972 768.96 
L 890.971972 203.16759 
L 889.234256 203.16759 
z
" style="fill:#1f77b4;"/>
   </g>
   <g id="patch_213">
    <path clip-path="url(#p155b4dd32d)" d="M 892.709689 768.96 
L 894.447405 768.96 
L 894.447405 202.728932 
L 892.709689 202.728932 
z
" style="fill:#1f77b4;"/>
   </g>
   <g id="patch_214">
    <path clip-path="url(#p155b4dd32d)" d="M 896.185121 768.96 
L 897.922837 768.96 
L 897.922837 202.126765 
L 896.185121 202.126765 
z
" style="fill:#1f77b4;"/>
   </g>
   <g id="patch_215">
    <path clip-path="url(#p155b4dd32d)" d="M 899.660554 768.96 
L 901.39827 768.96 
L 901.39827 201.306394 
L 899.660554 201.306394 
z
" style="fill:#1f77b4;"/>
   </g>
   <g id="patch_216">
    <path clip-path="url(#p155b4dd32d)" d="M 903.135986 768.96 
L 904.873702 768.96 
L 904.873702 200.557612 
L 903.135986 200.557612 
z
" style="fill:#1f77b4;"/>
   </g>
   <g id="patch_217">
    <path clip-path="url(#p155b4dd32d)" d="M 906.611419 768.96 
L 908.349135 768.96 
L 908.349135 199.768986 
L 906.611419 199.768986 
z
" style="fill:#1f77b4;"/>
   </g>
   <g id="patch_218">
    <path clip-path="url(#p155b4dd32d)" d="M 910.086851 768.96 
L 911.824567 768.96 
L 911.824567 198.902225 
L 910.086851 198.902225 
z
" style="fill:#1f77b4;"/>
   </g>
   <g id="patch_219">
    <path clip-path="url(#p155b4dd32d)" d="M 913.562284 768.96 
L 915.3 768.96 
L 915.3 197.369808 
L 913.562284 197.369808 
z
" style="fill:#1f77b4;"/>
   </g>
   <g id="patch_220">
    <path clip-path="url(#p155b4dd32d)" d="M 917.037716 768.96 
L 918.775433 768.96 
L 918.775433 196.867006 
L 917.037716 196.867006 
z
" style="fill:#1f77b4;"/>
   </g>
   <g id="patch_221">
    <path clip-path="url(#p155b4dd32d)" d="M 920.513149 768.96 
L 922.250865 768.96 
L 922.250865 196.284107 
L 920.513149 196.284107 
z
" style="fill:#1f77b4;"/>
   </g>
   <g id="patch_222">
    <path clip-path="url(#p155b4dd32d)" d="M 923.988581 768.96 
L 925.726298 768.96 
L 925.726298 195.712743 
L 923.988581 195.712743 
z
" style="fill:#1f77b4;"/>
   </g>
   <g id="patch_223">
    <path clip-path="url(#p155b4dd32d)" d="M 927.464014 768.96 
L 929.20173 768.96 
L 929.20173 193.419476 
L 927.464014 193.419476 
z
" style="fill:#1f77b4;"/>
   </g>
   <g id="patch_224">
    <path clip-path="url(#p155b4dd32d)" d="M 930.939446 768.96 
L 932.677163 768.96 
L 932.677163 191.428929 
L 930.939446 191.428929 
z
" style="fill:#1f77b4;"/>
   </g>
   <g id="patch_225">
    <path clip-path="url(#p155b4dd32d)" d="M 934.414879 768.96 
L 936.152595 768.96 
L 936.152595 189.845008 
L 934.414879 189.845008 
z
" style="fill:#1f77b4;"/>
   </g>
   <g id="patch_226">
    <path clip-path="url(#p155b4dd32d)" d="M 937.890311 768.96 
L 939.628028 768.96 
L 939.628028 187.547405 
L 937.890311 187.547405 
z
" style="fill:#1f77b4;"/>
   </g>
   <g id="patch_227">
    <path clip-path="url(#p155b4dd32d)" d="M 941.365744 768.96 
L 943.10346 768.96 
L 943.10346 185.989951 
L 941.365744 185.989951 
z
" style="fill:#1f77b4;"/>
   </g>
   <g id="patch_228">
    <path clip-path="url(#p155b4dd32d)" d="M 944.841176 768.96 
L 946.578893 768.96 
L 946.578893 185.300814 
L 944.841176 185.300814 
z
" style="fill:#1f77b4;"/>
   </g>
   <g id="patch_229">
    <path clip-path="url(#p155b4dd32d)" d="M 948.316609 768.96 
L 950.054325 768.96 
L 950.054325 184.313987 
L 948.316609 184.313987 
z
" style="fill:#1f77b4;"/>
   </g>
   <g id="patch_230">
    <path clip-path="url(#p155b4dd32d)" d="M 951.792042 768.96 
L 953.529758 768.96 
L 953.529758 183.378419 
L 951.792042 183.378419 
z
" style="fill:#1f77b4;"/>
   </g>
   <g id="patch_231">
    <path clip-path="url(#p155b4dd32d)" d="M 955.267474 768.96 
L 957.00519 768.96 
L 957.00519 182.477623 
L 955.267474 182.477623 
z
" style="fill:#1f77b4;"/>
   </g>
   <g id="patch_232">
    <path clip-path="url(#p155b4dd32d)" d="M 958.742907 768.96 
L 960.480623 768.96 
L 960.480623 181.607508 
L 958.742907 181.607508 
z
" style="fill:#1f77b4;"/>
   </g>
   <g id="patch_233">
    <path clip-path="url(#p155b4dd32d)" d="M 962.218339 768.96 
L 963.956055 768.96 
L 963.956055 180.752037 
L 962.218339 180.752037 
z
" style="fill:#1f77b4;"/>
   </g>
   <g id="patch_234">
    <path clip-path="url(#p155b4dd32d)" d="M 965.693772 768.96 
L 967.431488 768.96 
L 967.431488 180.18771 
L 965.693772 180.18771 
z
" style="fill:#1f77b4;"/>
   </g>
   <g id="patch_235">
    <path clip-path="url(#p155b4dd32d)" d="M 969.169204 768.96 
L 970.90692 768.96 
L 970.90692 179.465437 
L 969.169204 179.465437 
z
" style="fill:#1f77b4;"/>
   </g>
   <g id="patch_236">
    <path clip-path="url(#p155b4dd32d)" d="M 972.644637 768.96 
L 974.382353 768.96 
L 974.382353 178.463597 
L 972.644637 178.463597 
z
" style="fill:#1f77b4;"/>
   </g>
   <g id="patch_237">
    <path clip-path="url(#p155b4dd32d)" d="M 976.120069 768.96 
L 977.857785 768.96 
L 977.857785 177.504998 
L 976.120069 177.504998 
z
" style="fill:#1f77b4;"/>
   </g>
   <g id="patch_238">
    <path clip-path="url(#p155b4dd32d)" d="M 979.595502 768.96 
L 981.333218 768.96 
L 981.333218 176.447482 
L 979.595502 176.447482 
z
" style="fill:#1f77b4;"/>
   </g>
   <g id="patch_239">
    <path clip-path="url(#p155b4dd32d)" d="M 983.070934 768.96 
L 984.808651 768.96 
L 984.808651 175.245684 
L 983.070934 175.245684 
z
" style="fill:#1f77b4;"/>
   </g>
   <g id="patch_240">
    <path clip-path="url(#p155b4dd32d)" d="M 986.546367 768.96 
L 988.284083 768.96 
L 988.284083 173.490318 
L 986.546367 173.490318 
z
" style="fill:#1f77b4;"/>
   </g>
   <g id="patch_241">
    <path clip-path="url(#p155b4dd32d)" d="M 990.021799 768.96 
L 991.759516 768.96 
L 991.759516 170.716217 
L 990.021799 170.716217 
z
" style="fill:#1f77b4;"/>
   </g>
   <g id="patch_242">
    <path clip-path="url(#p155b4dd32d)" d="M 993.497232 768.96 
L 995.234948 768.96 
L 995.234948 169.505664 
L 993.497232 169.505664 
z
" style="fill:#1f77b4;"/>
   </g>
   <g id="patch_243">
    <path clip-path="url(#p155b4dd32d)" d="M 996.972664 768.96 
L 998.710381 768.96 
L 998.710381 168.499448 
L 996.972664 168.499448 
z
" style="fill:#1f77b4;"/>
   </g>
   <g id="patch_244">
    <path clip-path="url(#p155b4dd32d)" d="M 1000.448097 768.96 
L 1002.185813 768.96 
L 1002.185813 167.565352 
L 1000.448097 167.565352 
z
" style="fill:#1f77b4;"/>
   </g>
   <g id="patch_245">
    <path clip-path="url(#p155b4dd32d)" d="M 1003.923529 768.96 
L 1005.661246 768.96 
L 1005.661246 166.691555 
L 1003.923529 166.691555 
z
" style="fill:#1f77b4;"/>
   </g>
   <g id="patch_246">
    <path clip-path="url(#p155b4dd32d)" d="M 1007.398962 768.96 
L 1009.136678 768.96 
L 1009.136678 165.818822 
L 1007.398962 165.818822 
z
" style="fill:#1f77b4;"/>
   </g>
   <g id="patch_247">
    <path clip-path="url(#p155b4dd32d)" d="M 1010.874394 768.96 
L 1012.612111 768.96 
L 1012.612111 165.043531 
L 1010.874394 165.043531 
z
" style="fill:#1f77b4;"/>
   </g>
   <g id="patch_248">
    <path clip-path="url(#p155b4dd32d)" d="M 1014.349827 768.96 
L 1016.087543 768.96 
L 1016.087543 164.520071 
L 1014.349827 164.520071 
z
" style="fill:#1f77b4;"/>
   </g>
   <g id="patch_249">
    <path clip-path="url(#p155b4dd32d)" d="M 1017.82526 768.96 
L 1019.562976 768.96 
L 1019.562976 164.149035 
L 1017.82526 164.149035 
z
" style="fill:#1f77b4;"/>
   </g>
   <g id="patch_250">
    <path clip-path="url(#p155b4dd32d)" d="M 1021.300692 768.96 
L 1023.038408 768.96 
L 1023.038408 163.664151 
L 1021.300692 163.664151 
z
" style="fill:#1f77b4;"/>
   </g>
   <g id="patch_251">
    <path clip-path="url(#p155b4dd32d)" d="M 1024.776125 768.96 
L 1026.513841 768.96 
L 1026.513841 162.689434 
L 1024.776125 162.689434 
z
" style="fill:#1f77b4;"/>
   </g>
   <g id="patch_252">
    <path clip-path="url(#p155b4dd32d)" d="M 1028.251557 768.96 
L 1029.989273 768.96 
L 1029.989273 161.820096 
L 1028.251557 161.820096 
z
" style="fill:#1f77b4;"/>
   </g>
   <g id="patch_253">
    <path clip-path="url(#p155b4dd32d)" d="M 1031.72699 768.96 
L 1033.464706 768.96 
L 1033.464706 160.992729 
L 1031.72699 160.992729 
z
" style="fill:#1f77b4;"/>
   </g>
   <g id="patch_254">
    <path clip-path="url(#p155b4dd32d)" d="M 1035.202422 768.96 
L 1036.940138 768.96 
L 1036.940138 160.270579 
L 1035.202422 160.270579 
z
" style="fill:#1f77b4;"/>
   </g>
   <g id="patch_255">
    <path clip-path="url(#p155b4dd32d)" d="M 1038.677855 768.96 
L 1040.415571 768.96 
L 1040.415571 159.737464 
L 1038.677855 159.737464 
z
" style="fill:#1f77b4;"/>
   </g>
   <g id="patch_256">
    <path clip-path="url(#p155b4dd32d)" d="M 1042.153287 768.96 
L 1043.891003 768.96 
L 1043.891003 159.116479 
L 1042.153287 159.116479 
z
" style="fill:#1f77b4;"/>
   </g>
   <g id="patch_257">
    <path clip-path="url(#p155b4dd32d)" d="M 1045.62872 768.96 
L 1047.366436 768.96 
L 1047.366436 158.256509 
L 1045.62872 158.256509 
z
" style="fill:#1f77b4;"/>
   </g>
   <g id="patch_258">
    <path clip-path="url(#p155b4dd32d)" d="M 1049.104152 768.96 
L 1050.841869 768.96 
L 1050.841869 157.436875 
L 1049.104152 157.436875 
z
" style="fill:#1f77b4;"/>
   </g>
   <g id="patch_259">
    <path clip-path="url(#p155b4dd32d)" d="M 1052.579585 768.96 
L 1054.317301 768.96 
L 1054.317301 156.614663 
L 1052.579585 156.614663 
z
" style="fill:#1f77b4;"/>
   </g>
   <g id="patch_260">
    <path clip-path="url(#p155b4dd32d)" d="M 1056.055017 768.96 
L 1057.792734 768.96 
L 1057.792734 155.766924 
L 1056.055017 155.766924 
z
" style="fill:#1f77b4;"/>
   </g>
   <g id="patch_261">
    <path clip-path="url(#p155b4dd32d)" d="M 1059.53045 768.96 
L 1061.268166 768.96 
L 1061.268166 154.957148 
L 1059.53045 154.957148 
z
" style="fill:#1f77b4;"/>
   </g>
   <g id="patch_262">
    <path clip-path="url(#p155b4dd32d)" d="M 1063.005882 768.96 
L 1064.743599 768.96 
L 1064.743599 154.381858 
L 1063.005882 154.381858 
z
" style="fill:#1f77b4;"/>
   </g>
   <g id="patch_263">
    <path clip-path="url(#p155b4dd32d)" d="M 1066.481315 768.96 
L 1068.219031 768.96 
L 1068.219031 153.819003 
L 1066.481315 153.819003 
z
" style="fill:#1f77b4;"/>
   </g>
   <g id="patch_264">
    <path clip-path="url(#p155b4dd32d)" d="M 1069.956747 768.96 
L 1071.694464 768.96 
L 1071.694464 152.864535 
L 1069.956747 152.864535 
z
" style="fill:#1f77b4;"/>
   </g>
   <g id="patch_265">
    <path clip-path="url(#p155b4dd32d)" d="M 1073.43218 768.96 
L 1075.169896 768.96 
L 1075.169896 152.165457 
L 1073.43218 152.165457 
z
" style="fill:#1f77b4;"/>
   </g>
   <g id="patch_266">
    <path clip-path="url(#p155b4dd32d)" d="M 1076.907612 768.96 
L 1078.645329 768.96 
L 1078.645329 151.144063 
L 1076.907612 151.144063 
z
" style="fill:#1f77b4;"/>
   </g>
   <g id="patch_267">
    <path clip-path="url(#p155b4dd32d)" d="M 1080.383045 768.96 
L 1082.120761 768.96 
L 1082.120761 150.16501 
L 1080.383045 150.16501 
z
" style="fill:#1f77b4;"/>
   </g>
   <g id="patch_268">
    <path clip-path="url(#p155b4dd32d)" d="M 1083.858478 768.96 
L 1085.596194 768.96 
L 1085.596194 149.400315 
L 1083.858478 149.400315 
z
" style="fill:#1f77b4;"/>
   </g>
   <g id="patch_269">
    <path clip-path="url(#p155b4dd32d)" d="M 1087.33391 768.96 
L 1089.071626 768.96 
L 1089.071626 148.904877 
L 1087.33391 148.904877 
z
" style="fill:#1f77b4;"/>
   </g>
   <g id="patch_270">
    <path clip-path="url(#p155b4dd32d)" d="M 1090.809343 768.96 
L 1092.547059 768.96 
L 1092.547059 148.264133 
L 1090.809343 148.264133 
z
" style="fill:#1f77b4;"/>
   </g>
   <g id="patch_271">
    <path clip-path="url(#p155b4dd32d)" d="M 1094.284775 768.96 
L 1096.022491 768.96 
L 1096.022491 147.511138 
L 1094.284775 147.511138 
z
" style="fill:#1f77b4;"/>
   </g>
   <g id="patch_272">
    <path clip-path="url(#p155b4dd32d)" d="M 1097.760208 768.96 
L 1099.497924 768.96 
L 1099.497924 146.954624 
L 1097.760208 146.954624 
z
" style="fill:#1f77b4;"/>
   </g>
   <g id="patch_273">
    <path clip-path="url(#p155b4dd32d)" d="M 1101.23564 768.96 
L 1102.973356 768.96 
L 1102.973356 146.568942 
L 1101.23564 146.568942 
z
" style="fill:#1f77b4;"/>
   </g>
   <g id="patch_274">
    <path clip-path="url(#p155b4dd32d)" d="M 1104.711073 768.96 
L 1106.448789 768.96 
L 1106.448789 145.622165 
L 1104.711073 145.622165 
z
" style="fill:#1f77b4;"/>
   </g>
   <g id="patch_275">
    <path clip-path="url(#p155b4dd32d)" d="M 1108.186505 768.96 
L 1109.924221 768.96 
L 1109.924221 144.401099 
L 1108.186505 144.401099 
z
" style="fill:#1f77b4;"/>
   </g>
   <g id="patch_276">
    <path clip-path="url(#p155b4dd32d)" d="M 1111.661938 768.96 
L 1113.399654 768.96 
L 1113.399654 143.991855 
L 1111.661938 143.991855 
z
" style="fill:#1f77b4;"/>
   </g>
   <g id="patch_277">
    <path clip-path="url(#p155b4dd32d)" d="M 1115.13737 768.96 
L 1116.875087 768.96 
L 1116.875087 143.180402 
L 1115.13737 143.180402 
z
" style="fill:#1f77b4;"/>
   </g>
   <g id="patch_278">
    <path clip-path="url(#p155b4dd32d)" d="M 1118.612803 768.96 
L 1120.350519 768.96 
L 1120.350519 142.716422 
L 1118.612803 142.716422 
z
" style="fill:#1f77b4;"/>
   </g>
   <g id="patch_279">
    <path clip-path="url(#p155b4dd32d)" d="M 1122.088235 768.96 
L 1123.825952 768.96 
L 1123.825952 141.772754 
L 1122.088235 141.772754 
z
" style="fill:#1f77b4;"/>
   </g>
   <g id="patch_280">
    <path clip-path="url(#p155b4dd32d)" d="M 1125.563668 768.96 
L 1127.301384 768.96 
L 1127.301384 141.127224 
L 1125.563668 141.127224 
z
" style="fill:#1f77b4;"/>
   </g>
   <g id="patch_281">
    <path clip-path="url(#p155b4dd32d)" d="M 1129.0391 768.96 
L 1130.776817 768.96 
L 1130.776817 140.503212 
L 1129.0391 140.503212 
z
" style="fill:#1f77b4;"/>
   </g>
   <g id="patch_282">
    <path clip-path="url(#p155b4dd32d)" d="M 1132.514533 768.96 
L 1134.252249 768.96 
L 1134.252249 140.075886 
L 1132.514533 140.075886 
z
" style="fill:#1f77b4;"/>
   </g>
   <g id="patch_283">
    <path clip-path="url(#p155b4dd32d)" d="M 1135.989965 768.96 
L 1137.727682 768.96 
L 1137.727682 139.772348 
L 1135.989965 139.772348 
z
" style="fill:#1f77b4;"/>
   </g>
   <g id="patch_284">
    <path clip-path="url(#p155b4dd32d)" d="M 1139.465398 768.96 
L 1141.203114 768.96 
L 1141.203114 139.337167 
L 1139.465398 139.337167 
z
" style="fill:#1f77b4;"/>
   </g>
   <g id="patch_285">
    <path clip-path="url(#p155b4dd32d)" d="M 1142.94083 768.96 
L 1144.678547 768.96 
L 1144.678547 138.691842 
L 1142.94083 138.691842 
z
" style="fill:#1f77b4;"/>
   </g>
   <g id="patch_286">
    <path clip-path="url(#p155b4dd32d)" d="M 1146.416263 768.96 
L 1148.153979 768.96 
L 1148.153979 137.987159 
L 1146.416263 137.987159 
z
" style="fill:#1f77b4;"/>
   </g>
   <g id="patch_287">
    <path clip-path="url(#p155b4dd32d)" d="M 1149.891696 768.96 
L 1151.629412 768.96 
L 1151.629412 137.467544 
L 1149.891696 137.467544 
z
" style="fill:#1f77b4;"/>
   </g>
   <g id="patch_288">
    <path clip-path="url(#p155b4dd32d)" d="M 1153.367128 768.96 
L 1155.104844 768.96 
L 1155.104844 136.61686 
L 1153.367128 136.61686 
z
" style="fill:#1f77b4;"/>
   </g>
   <g id="patch_289">
    <path clip-path="url(#p155b4dd32d)" d="M 1156.842561 768.96 
L 1158.580277 768.96 
L 1158.580277 136.123877 
L 1156.842561 136.123877 
z
" style="fill:#1f77b4;"/>
   </g>
   <g id="patch_290">
    <path clip-path="url(#p155b4dd32d)" d="M 1160.317993 768.96 
L 1162.055709 768.96 
L 1162.055709 135.838788 
L 1160.317993 135.838788 
z
" style="fill:#1f77b4;"/>
   </g>
   <g id="patch_291">
    <path clip-path="url(#p155b4dd32d)" d="M 1163.793426 768.96 
L 1165.531142 768.96 
L 1165.531142 135.36 
L 1163.793426 135.36 
z
" style="fill:#1f77b4;"/>
   </g>
   <g id="matplotlib.axis_1">
    <g id="xtick_1">
     <g id="line2d_1">
      <defs>
       <path d="M 0 0 
L 0 3.5 
" id="m8f53e40e53" style="stroke:#000000;stroke-width:0.8;"/>
      </defs>
      <g>
       <use style="stroke:#000000;stroke-width:0.8;" x="163.737716" xlink:href="#m8f53e40e53" y="768.96"/>
      </g>
     </g>
     <g id="text_1">
      <!-- January -->
      <g transform="translate(144.782248 783.558437)scale(0.1 -0.1)">
       <defs>
        <path d="M 628 4666 
L 1259 4666 
L 1259 325 
Q 1259 -519 939 -900 
Q 619 -1281 -91 -1281 
L -331 -1281 
L -331 -750 
L -134 -750 
Q 284 -750 456 -515 
Q 628 -281 628 325 
L 628 4666 
z
" id="DejaVuSans-4a" transform="scale(0.015625)"/>
        <path d="M 2194 1759 
Q 1497 1759 1228 1600 
Q 959 1441 959 1056 
Q 959 750 1161 570 
Q 1363 391 1709 391 
Q 2188 391 2477 730 
Q 2766 1069 2766 1631 
L 2766 1759 
L 2194 1759 
z
M 3341 1997 
L 3341 0 
L 2766 0 
L 2766 531 
Q 2569 213 2275 61 
Q 1981 -91 1556 -91 
Q 1019 -91 701 211 
Q 384 513 384 1019 
Q 384 1609 779 1909 
Q 1175 2209 1959 2209 
L 2766 2209 
L 2766 2266 
Q 2766 2663 2505 2880 
Q 2244 3097 1772 3097 
Q 1472 3097 1187 3025 
Q 903 2953 641 2809 
L 641 3341 
Q 956 3463 1253 3523 
Q 1550 3584 1831 3584 
Q 2591 3584 2966 3190 
Q 3341 2797 3341 1997 
z
" id="DejaVuSans-61" transform="scale(0.015625)"/>
        <path d="M 3513 2113 
L 3513 0 
L 2938 0 
L 2938 2094 
Q 2938 2591 2744 2837 
Q 2550 3084 2163 3084 
Q 1697 3084 1428 2787 
Q 1159 2491 1159 1978 
L 1159 0 
L 581 0 
L 581 3500 
L 1159 3500 
L 1159 2956 
Q 1366 3272 1645 3428 
Q 1925 3584 2291 3584 
Q 2894 3584 3203 3211 
Q 3513 2838 3513 2113 
z
" id="DejaVuSans-6e" transform="scale(0.015625)"/>
        <path d="M 544 1381 
L 544 3500 
L 1119 3500 
L 1119 1403 
Q 1119 906 1312 657 
Q 1506 409 1894 409 
Q 2359 409 2629 706 
Q 2900 1003 2900 1516 
L 2900 3500 
L 3475 3500 
L 3475 0 
L 2900 0 
L 2900 538 
Q 2691 219 2414 64 
Q 2138 -91 1772 -91 
Q 1169 -91 856 284 
Q 544 659 544 1381 
z
M 1991 3584 
L 1991 3584 
z
" id="DejaVuSans-75" transform="scale(0.015625)"/>
        <path d="M 2631 2963 
Q 2534 3019 2420 3045 
Q 2306 3072 2169 3072 
Q 1681 3072 1420 2755 
Q 1159 2438 1159 1844 
L 1159 0 
L 581 0 
L 581 3500 
L 1159 3500 
L 1159 2956 
Q 1341 3275 1631 3429 
Q 1922 3584 2338 3584 
Q 2397 3584 2469 3576 
Q 2541 3569 2628 3553 
L 2631 2963 
z
" id="DejaVuSans-72" transform="scale(0.015625)"/>
        <path d="M 2059 -325 
Q 1816 -950 1584 -1140 
Q 1353 -1331 966 -1331 
L 506 -1331 
L 506 -850 
L 844 -850 
Q 1081 -850 1212 -737 
Q 1344 -625 1503 -206 
L 1606 56 
L 191 3500 
L 800 3500 
L 1894 763 
L 2988 3500 
L 3597 3500 
L 2059 -325 
z
" id="DejaVuSans-79" transform="scale(0.015625)"/>
       </defs>
       <use xlink:href="#DejaVuSans-4a"/>
       <use x="29.492188" xlink:href="#DejaVuSans-61"/>
       <use x="90.771484" xlink:href="#DejaVuSans-6e"/>
       <use x="154.150391" xlink:href="#DejaVuSans-75"/>
       <use x="217.529297" xlink:href="#DejaVuSans-61"/>
       <use x="278.808594" xlink:href="#DejaVuSans-72"/>
       <use x="319.921875" xlink:href="#DejaVuSans-79"/>
      </g>
     </g>
    </g>
    <g id="xtick_2">
     <g id="line2d_2">
      <g>
       <use style="stroke:#000000;stroke-width:0.8;" x="271.476125" xlink:href="#m8f53e40e53" y="768.96"/>
      </g>
     </g>
     <g id="text_2">
      <!-- February -->
      <g transform="translate(249.321437 783.558437)scale(0.1 -0.1)">
       <defs>
        <path d="M 628 4666 
L 3309 4666 
L 3309 4134 
L 1259 4134 
L 1259 2759 
L 3109 2759 
L 3109 2228 
L 1259 2228 
L 1259 0 
L 628 0 
L 628 4666 
z
" id="DejaVuSans-46" transform="scale(0.015625)"/>
        <path d="M 3597 1894 
L 3597 1613 
L 953 1613 
Q 991 1019 1311 708 
Q 1631 397 2203 397 
Q 2534 397 2845 478 
Q 3156 559 3463 722 
L 3463 178 
Q 3153 47 2828 -22 
Q 2503 -91 2169 -91 
Q 1331 -91 842 396 
Q 353 884 353 1716 
Q 353 2575 817 3079 
Q 1281 3584 2069 3584 
Q 2775 3584 3186 3129 
Q 3597 2675 3597 1894 
z
M 3022 2063 
Q 3016 2534 2758 2815 
Q 2500 3097 2075 3097 
Q 1594 3097 1305 2825 
Q 1016 2553 972 2059 
L 3022 2063 
z
" id="DejaVuSans-65" transform="scale(0.015625)"/>
        <path d="M 3116 1747 
Q 3116 2381 2855 2742 
Q 2594 3103 2138 3103 
Q 1681 3103 1420 2742 
Q 1159 2381 1159 1747 
Q 1159 1113 1420 752 
Q 1681 391 2138 391 
Q 2594 391 2855 752 
Q 3116 1113 3116 1747 
z
M 1159 2969 
Q 1341 3281 1617 3432 
Q 1894 3584 2278 3584 
Q 2916 3584 3314 3078 
Q 3713 2572 3713 1747 
Q 3713 922 3314 415 
Q 2916 -91 2278 -91 
Q 1894 -91 1617 61 
Q 1341 213 1159 525 
L 1159 0 
L 581 0 
L 581 4863 
L 1159 4863 
L 1159 2969 
z
" id="DejaVuSans-62" transform="scale(0.015625)"/>
       </defs>
       <use xlink:href="#DejaVuSans-46"/>
       <use x="52.019531" xlink:href="#DejaVuSans-65"/>
       <use x="113.542969" xlink:href="#DejaVuSans-62"/>
       <use x="177.019531" xlink:href="#DejaVuSans-72"/>
       <use x="218.132812" xlink:href="#DejaVuSans-75"/>
       <use x="281.511719" xlink:href="#DejaVuSans-61"/>
       <use x="342.791016" xlink:href="#DejaVuSans-72"/>
       <use x="383.904297" xlink:href="#DejaVuSans-79"/>
      </g>
     </g>
    </g>
    <g id="xtick_3">
     <g id="line2d_3">
      <g>
       <use style="stroke:#000000;stroke-width:0.8;" x="368.788235" xlink:href="#m8f53e40e53" y="768.96"/>
      </g>
     </g>
     <g id="text_3">
      <!-- March -->
      <g transform="translate(353.549173 783.558437)scale(0.1 -0.1)">
       <defs>
        <path d="M 628 4666 
L 1569 4666 
L 2759 1491 
L 3956 4666 
L 4897 4666 
L 4897 0 
L 4281 0 
L 4281 4097 
L 3078 897 
L 2444 897 
L 1241 4097 
L 1241 0 
L 628 0 
L 628 4666 
z
" id="DejaVuSans-4d" transform="scale(0.015625)"/>
        <path d="M 3122 3366 
L 3122 2828 
Q 2878 2963 2633 3030 
Q 2388 3097 2138 3097 
Q 1578 3097 1268 2742 
Q 959 2388 959 1747 
Q 959 1106 1268 751 
Q 1578 397 2138 397 
Q 2388 397 2633 464 
Q 2878 531 3122 666 
L 3122 134 
Q 2881 22 2623 -34 
Q 2366 -91 2075 -91 
Q 1284 -91 818 406 
Q 353 903 353 1747 
Q 353 2603 823 3093 
Q 1294 3584 2113 3584 
Q 2378 3584 2631 3529 
Q 2884 3475 3122 3366 
z
" id="DejaVuSans-63" transform="scale(0.015625)"/>
        <path d="M 3513 2113 
L 3513 0 
L 2938 0 
L 2938 2094 
Q 2938 2591 2744 2837 
Q 2550 3084 2163 3084 
Q 1697 3084 1428 2787 
Q 1159 2491 1159 1978 
L 1159 0 
L 581 0 
L 581 4863 
L 1159 4863 
L 1159 2956 
Q 1366 3272 1645 3428 
Q 1925 3584 2291 3584 
Q 2894 3584 3203 3211 
Q 3513 2838 3513 2113 
z
" id="DejaVuSans-68" transform="scale(0.015625)"/>
       </defs>
       <use xlink:href="#DejaVuSans-4d"/>
       <use x="86.279297" xlink:href="#DejaVuSans-61"/>
       <use x="147.558594" xlink:href="#DejaVuSans-72"/>
       <use x="186.421875" xlink:href="#DejaVuSans-63"/>
       <use x="241.402344" xlink:href="#DejaVuSans-68"/>
      </g>
     </g>
    </g>
    <g id="xtick_4">
     <g id="line2d_4">
      <g>
       <use style="stroke:#000000;stroke-width:0.8;" x="476.526644" xlink:href="#m8f53e40e53" y="768.96"/>
      </g>
     </g>
     <g id="text_4">
      <!-- April -->
      <g transform="translate(465.098519 783.558437)scale(0.1 -0.1)">
       <defs>
        <path d="M 2188 4044 
L 1331 1722 
L 3047 1722 
L 2188 4044 
z
M 1831 4666 
L 2547 4666 
L 4325 0 
L 3669 0 
L 3244 1197 
L 1141 1197 
L 716 0 
L 50 0 
L 1831 4666 
z
" id="DejaVuSans-41" transform="scale(0.015625)"/>
        <path d="M 1159 525 
L 1159 -1331 
L 581 -1331 
L 581 3500 
L 1159 3500 
L 1159 2969 
Q 1341 3281 1617 3432 
Q 1894 3584 2278 3584 
Q 2916 3584 3314 3078 
Q 3713 2572 3713 1747 
Q 3713 922 3314 415 
Q 2916 -91 2278 -91 
Q 1894 -91 1617 61 
Q 1341 213 1159 525 
z
M 3116 1747 
Q 3116 2381 2855 2742 
Q 2594 3103 2138 3103 
Q 1681 3103 1420 2742 
Q 1159 2381 1159 1747 
Q 1159 1113 1420 752 
Q 1681 391 2138 391 
Q 2594 391 2855 752 
Q 3116 1113 3116 1747 
z
" id="DejaVuSans-70" transform="scale(0.015625)"/>
        <path d="M 603 3500 
L 1178 3500 
L 1178 0 
L 603 0 
L 603 3500 
z
M 603 4863 
L 1178 4863 
L 1178 4134 
L 603 4134 
L 603 4863 
z
" id="DejaVuSans-69" transform="scale(0.015625)"/>
        <path d="M 603 4863 
L 1178 4863 
L 1178 0 
L 603 0 
L 603 4863 
z
" id="DejaVuSans-6c" transform="scale(0.015625)"/>
       </defs>
       <use xlink:href="#DejaVuSans-41"/>
       <use x="68.408203" xlink:href="#DejaVuSans-70"/>
       <use x="131.884766" xlink:href="#DejaVuSans-72"/>
       <use x="172.998047" xlink:href="#DejaVuSans-69"/>
       <use x="200.78125" xlink:href="#DejaVuSans-6c"/>
      </g>
     </g>
    </g>
    <g id="xtick_5">
     <g id="line2d_5">
      <g>
       <use style="stroke:#000000;stroke-width:0.8;" x="580.789619" xlink:href="#m8f53e40e53" y="768.96"/>
      </g>
     </g>
     <g id="text_5">
      <!-- May -->
      <g transform="translate(570.452119 783.558437)scale(0.1 -0.1)">
       <use xlink:href="#DejaVuSans-4d"/>
       <use x="86.279297" xlink:href="#DejaVuSans-61"/>
       <use x="147.558594" xlink:href="#DejaVuSans-79"/>
      </g>
     </g>
    </g>
    <g id="xtick_6">
     <g id="line2d_6">
      <g>
       <use style="stroke:#000000;stroke-width:0.8;" x="688.528028" xlink:href="#m8f53e40e53" y="768.96"/>
      </g>
     </g>
     <g id="text_6">
      <!-- June -->
      <g transform="translate(677.638965 783.558437)scale(0.1 -0.1)">
       <use xlink:href="#DejaVuSans-4a"/>
       <use x="29.492188" xlink:href="#DejaVuSans-75"/>
       <use x="92.871094" xlink:href="#DejaVuSans-6e"/>
       <use x="156.25" xlink:href="#DejaVuSans-65"/>
      </g>
     </g>
    </g>
    <g id="xtick_7">
     <g id="line2d_7">
      <g>
       <use style="stroke:#000000;stroke-width:0.8;" x="792.791003" xlink:href="#m8f53e40e53" y="768.96"/>
      </g>
     </g>
     <g id="text_7">
      <!-- July -->
      <g transform="translate(783.798816 783.558437)scale(0.1 -0.1)">
       <use xlink:href="#DejaVuSans-4a"/>
       <use x="29.492188" xlink:href="#DejaVuSans-75"/>
       <use x="92.871094" xlink:href="#DejaVuSans-6c"/>
       <use x="120.654297" xlink:href="#DejaVuSans-79"/>
      </g>
     </g>
    </g>
    <g id="xtick_8">
     <g id="line2d_8">
      <g>
       <use style="stroke:#000000;stroke-width:0.8;" x="900.529412" xlink:href="#m8f53e40e53" y="768.96"/>
      </g>
     </g>
     <g id="text_8">
      <!-- August -->
      <g transform="translate(883.032537 783.558437)scale(0.1 -0.1)">
       <defs>
        <path d="M 2906 1791 
Q 2906 2416 2648 2759 
Q 2391 3103 1925 3103 
Q 1463 3103 1205 2759 
Q 947 2416 947 1791 
Q 947 1169 1205 825 
Q 1463 481 1925 481 
Q 2391 481 2648 825 
Q 2906 1169 2906 1791 
z
M 3481 434 
Q 3481 -459 3084 -895 
Q 2688 -1331 1869 -1331 
Q 1566 -1331 1297 -1286 
Q 1028 -1241 775 -1147 
L 775 -588 
Q 1028 -725 1275 -790 
Q 1522 -856 1778 -856 
Q 2344 -856 2625 -561 
Q 2906 -266 2906 331 
L 2906 616 
Q 2728 306 2450 153 
Q 2172 0 1784 0 
Q 1141 0 747 490 
Q 353 981 353 1791 
Q 353 2603 747 3093 
Q 1141 3584 1784 3584 
Q 2172 3584 2450 3431 
Q 2728 3278 2906 2969 
L 2906 3500 
L 3481 3500 
L 3481 434 
z
" id="DejaVuSans-67" transform="scale(0.015625)"/>
        <path d="M 2834 3397 
L 2834 2853 
Q 2591 2978 2328 3040 
Q 2066 3103 1784 3103 
Q 1356 3103 1142 2972 
Q 928 2841 928 2578 
Q 928 2378 1081 2264 
Q 1234 2150 1697 2047 
L 1894 2003 
Q 2506 1872 2764 1633 
Q 3022 1394 3022 966 
Q 3022 478 2636 193 
Q 2250 -91 1575 -91 
Q 1294 -91 989 -36 
Q 684 19 347 128 
L 347 722 
Q 666 556 975 473 
Q 1284 391 1588 391 
Q 1994 391 2212 530 
Q 2431 669 2431 922 
Q 2431 1156 2273 1281 
Q 2116 1406 1581 1522 
L 1381 1569 
Q 847 1681 609 1914 
Q 372 2147 372 2553 
Q 372 3047 722 3315 
Q 1072 3584 1716 3584 
Q 2034 3584 2315 3537 
Q 2597 3491 2834 3397 
z
" id="DejaVuSans-73" transform="scale(0.015625)"/>
        <path d="M 1172 4494 
L 1172 3500 
L 2356 3500 
L 2356 3053 
L 1172 3053 
L 1172 1153 
Q 1172 725 1289 603 
Q 1406 481 1766 481 
L 2356 481 
L 2356 0 
L 1766 0 
Q 1100 0 847 248 
Q 594 497 594 1153 
L 594 3053 
L 172 3053 
L 172 3500 
L 594 3500 
L 594 4494 
L 1172 4494 
z
" id="DejaVuSans-74" transform="scale(0.015625)"/>
       </defs>
       <use xlink:href="#DejaVuSans-41"/>
       <use x="68.408203" xlink:href="#DejaVuSans-75"/>
       <use x="131.787109" xlink:href="#DejaVuSans-67"/>
       <use x="195.263672" xlink:href="#DejaVuSans-75"/>
       <use x="258.642578" xlink:href="#DejaVuSans-73"/>
       <use x="310.742188" xlink:href="#DejaVuSans-74"/>
      </g>
     </g>
    </g>
    <g id="xtick_9">
     <g id="line2d_9">
      <g>
       <use style="stroke:#000000;stroke-width:0.8;" x="1008.26782" xlink:href="#m8f53e40e53" y="768.96"/>
      </g>
     </g>
     <g id="text_9">
      <!-- September -->
      <g transform="translate(980.629539 783.558437)scale(0.1 -0.1)">
       <defs>
        <path d="M 3425 4513 
L 3425 3897 
Q 3066 4069 2747 4153 
Q 2428 4238 2131 4238 
Q 1616 4238 1336 4038 
Q 1056 3838 1056 3469 
Q 1056 3159 1242 3001 
Q 1428 2844 1947 2747 
L 2328 2669 
Q 3034 2534 3370 2195 
Q 3706 1856 3706 1288 
Q 3706 609 3251 259 
Q 2797 -91 1919 -91 
Q 1588 -91 1214 -16 
Q 841 59 441 206 
L 441 856 
Q 825 641 1194 531 
Q 1563 422 1919 422 
Q 2459 422 2753 634 
Q 3047 847 3047 1241 
Q 3047 1584 2836 1778 
Q 2625 1972 2144 2069 
L 1759 2144 
Q 1053 2284 737 2584 
Q 422 2884 422 3419 
Q 422 4038 858 4394 
Q 1294 4750 2059 4750 
Q 2388 4750 2728 4690 
Q 3069 4631 3425 4513 
z
" id="DejaVuSans-53" transform="scale(0.015625)"/>
        <path d="M 3328 2828 
Q 3544 3216 3844 3400 
Q 4144 3584 4550 3584 
Q 5097 3584 5394 3201 
Q 5691 2819 5691 2113 
L 5691 0 
L 5113 0 
L 5113 2094 
Q 5113 2597 4934 2840 
Q 4756 3084 4391 3084 
Q 3944 3084 3684 2787 
Q 3425 2491 3425 1978 
L 3425 0 
L 2847 0 
L 2847 2094 
Q 2847 2600 2669 2842 
Q 2491 3084 2119 3084 
Q 1678 3084 1418 2786 
Q 1159 2488 1159 1978 
L 1159 0 
L 581 0 
L 581 3500 
L 1159 3500 
L 1159 2956 
Q 1356 3278 1631 3431 
Q 1906 3584 2284 3584 
Q 2666 3584 2933 3390 
Q 3200 3197 3328 2828 
z
" id="DejaVuSans-6d" transform="scale(0.015625)"/>
       </defs>
       <use xlink:href="#DejaVuSans-53"/>
       <use x="63.476562" xlink:href="#DejaVuSans-65"/>
       <use x="125" xlink:href="#DejaVuSans-70"/>
       <use x="188.476562" xlink:href="#DejaVuSans-74"/>
       <use x="227.685547" xlink:href="#DejaVuSans-65"/>
       <use x="289.208984" xlink:href="#DejaVuSans-6d"/>
       <use x="386.621094" xlink:href="#DejaVuSans-62"/>
       <use x="450.097656" xlink:href="#DejaVuSans-65"/>
       <use x="511.621094" xlink:href="#DejaVuSans-72"/>
      </g>
     </g>
    </g>
    <g id="xtick_10">
     <g id="line2d_10">
      <g>
       <use style="stroke:#000000;stroke-width:0.8;" x="1112.530796" xlink:href="#m8f53e40e53" y="768.96"/>
      </g>
     </g>
     <g id="text_10">
      <!-- October -->
      <g transform="translate(1092.519858 783.558437)scale(0.1 -0.1)">
       <defs>
        <path d="M 2522 4238 
Q 1834 4238 1429 3725 
Q 1025 3213 1025 2328 
Q 1025 1447 1429 934 
Q 1834 422 2522 422 
Q 3209 422 3611 934 
Q 4013 1447 4013 2328 
Q 4013 3213 3611 3725 
Q 3209 4238 2522 4238 
z
M 2522 4750 
Q 3503 4750 4090 4092 
Q 4678 3434 4678 2328 
Q 4678 1225 4090 567 
Q 3503 -91 2522 -91 
Q 1538 -91 948 565 
Q 359 1222 359 2328 
Q 359 3434 948 4092 
Q 1538 4750 2522 4750 
z
" id="DejaVuSans-4f" transform="scale(0.015625)"/>
        <path d="M 1959 3097 
Q 1497 3097 1228 2736 
Q 959 2375 959 1747 
Q 959 1119 1226 758 
Q 1494 397 1959 397 
Q 2419 397 2687 759 
Q 2956 1122 2956 1747 
Q 2956 2369 2687 2733 
Q 2419 3097 1959 3097 
z
M 1959 3584 
Q 2709 3584 3137 3096 
Q 3566 2609 3566 1747 
Q 3566 888 3137 398 
Q 2709 -91 1959 -91 
Q 1206 -91 779 398 
Q 353 888 353 1747 
Q 353 2609 779 3096 
Q 1206 3584 1959 3584 
z
" id="DejaVuSans-6f" transform="scale(0.015625)"/>
       </defs>
       <use xlink:href="#DejaVuSans-4f"/>
       <use x="78.710938" xlink:href="#DejaVuSans-63"/>
       <use x="133.691406" xlink:href="#DejaVuSans-74"/>
       <use x="172.900391" xlink:href="#DejaVuSans-6f"/>
       <use x="234.082031" xlink:href="#DejaVuSans-62"/>
       <use x="297.558594" xlink:href="#DejaVuSans-65"/>
       <use x="359.082031" xlink:href="#DejaVuSans-72"/>
      </g>
     </g>
    </g>
   </g>
   <g id="matplotlib.axis_2">
    <g id="ytick_1">
     <g id="line2d_11">
      <defs>
       <path d="M 0 0 
L -3.5 0 
" id="me49c283bf9" style="stroke:#000000;stroke-width:0.8;"/>
      </defs>
      <g>
       <use style="stroke:#000000;stroke-width:0.8;" x="162" xlink:href="#me49c283bf9" y="768.96"/>
      </g>
     </g>
     <g id="text_11">
      <!-- 0.0 -->
      <g transform="translate(139.096875 772.759219)scale(0.1 -0.1)">
       <defs>
        <path d="M 2034 4250 
Q 1547 4250 1301 3770 
Q 1056 3291 1056 2328 
Q 1056 1369 1301 889 
Q 1547 409 2034 409 
Q 2525 409 2770 889 
Q 3016 1369 3016 2328 
Q 3016 3291 2770 3770 
Q 2525 4250 2034 4250 
z
M 2034 4750 
Q 2819 4750 3233 4129 
Q 3647 3509 3647 2328 
Q 3647 1150 3233 529 
Q 2819 -91 2034 -91 
Q 1250 -91 836 529 
Q 422 1150 422 2328 
Q 422 3509 836 4129 
Q 1250 4750 2034 4750 
z
" id="DejaVuSans-30" transform="scale(0.015625)"/>
        <path d="M 684 794 
L 1344 794 
L 1344 0 
L 684 0 
L 684 794 
z
" id="DejaVuSans-2e" transform="scale(0.015625)"/>
       </defs>
       <use xlink:href="#DejaVuSans-30"/>
       <use x="63.623047" xlink:href="#DejaVuSans-2e"/>
       <use x="95.410156" xlink:href="#DejaVuSans-30"/>
      </g>
     </g>
    </g>
    <g id="ytick_2">
     <g id="line2d_12">
      <g>
       <use style="stroke:#000000;stroke-width:0.8;" x="162" xlink:href="#me49c283bf9" y="687.143799"/>
      </g>
     </g>
     <g id="text_12">
      <!-- 0.2 -->
      <g transform="translate(139.096875 690.943018)scale(0.1 -0.1)">
       <defs>
        <path d="M 1228 531 
L 3431 531 
L 3431 0 
L 469 0 
L 469 531 
Q 828 903 1448 1529 
Q 2069 2156 2228 2338 
Q 2531 2678 2651 2914 
Q 2772 3150 2772 3378 
Q 2772 3750 2511 3984 
Q 2250 4219 1831 4219 
Q 1534 4219 1204 4116 
Q 875 4013 500 3803 
L 500 4441 
Q 881 4594 1212 4672 
Q 1544 4750 1819 4750 
Q 2544 4750 2975 4387 
Q 3406 4025 3406 3419 
Q 3406 3131 3298 2873 
Q 3191 2616 2906 2266 
Q 2828 2175 2409 1742 
Q 1991 1309 1228 531 
z
" id="DejaVuSans-32" transform="scale(0.015625)"/>
       </defs>
       <use xlink:href="#DejaVuSans-30"/>
       <use x="63.623047" xlink:href="#DejaVuSans-2e"/>
       <use x="95.410156" xlink:href="#DejaVuSans-32"/>
      </g>
     </g>
    </g>
    <g id="ytick_3">
     <g id="line2d_13">
      <g>
       <use style="stroke:#000000;stroke-width:0.8;" x="162" xlink:href="#me49c283bf9" y="605.327598"/>
      </g>
     </g>
     <g id="text_13">
      <!-- 0.4 -->
      <g transform="translate(139.096875 609.126817)scale(0.1 -0.1)">
       <defs>
        <path d="M 2419 4116 
L 825 1625 
L 2419 1625 
L 2419 4116 
z
M 2253 4666 
L 3047 4666 
L 3047 1625 
L 3713 1625 
L 3713 1100 
L 3047 1100 
L 3047 0 
L 2419 0 
L 2419 1100 
L 313 1100 
L 313 1709 
L 2253 4666 
z
" id="DejaVuSans-34" transform="scale(0.015625)"/>
       </defs>
       <use xlink:href="#DejaVuSans-30"/>
       <use x="63.623047" xlink:href="#DejaVuSans-2e"/>
       <use x="95.410156" xlink:href="#DejaVuSans-34"/>
      </g>
     </g>
    </g>
    <g id="ytick_4">
     <g id="line2d_14">
      <g>
       <use style="stroke:#000000;stroke-width:0.8;" x="162" xlink:href="#me49c283bf9" y="523.511397"/>
      </g>
     </g>
     <g id="text_14">
      <!-- 0.6 -->
      <g transform="translate(139.096875 527.310616)scale(0.1 -0.1)">
       <defs>
        <path d="M 2113 2584 
Q 1688 2584 1439 2293 
Q 1191 2003 1191 1497 
Q 1191 994 1439 701 
Q 1688 409 2113 409 
Q 2538 409 2786 701 
Q 3034 994 3034 1497 
Q 3034 2003 2786 2293 
Q 2538 2584 2113 2584 
z
M 3366 4563 
L 3366 3988 
Q 3128 4100 2886 4159 
Q 2644 4219 2406 4219 
Q 1781 4219 1451 3797 
Q 1122 3375 1075 2522 
Q 1259 2794 1537 2939 
Q 1816 3084 2150 3084 
Q 2853 3084 3261 2657 
Q 3669 2231 3669 1497 
Q 3669 778 3244 343 
Q 2819 -91 2113 -91 
Q 1303 -91 875 529 
Q 447 1150 447 2328 
Q 447 3434 972 4092 
Q 1497 4750 2381 4750 
Q 2619 4750 2861 4703 
Q 3103 4656 3366 4563 
z
" id="DejaVuSans-36" transform="scale(0.015625)"/>
       </defs>
       <use xlink:href="#DejaVuSans-30"/>
       <use x="63.623047" xlink:href="#DejaVuSans-2e"/>
       <use x="95.410156" xlink:href="#DejaVuSans-36"/>
      </g>
     </g>
    </g>
    <g id="ytick_5">
     <g id="line2d_15">
      <g>
       <use style="stroke:#000000;stroke-width:0.8;" x="162" xlink:href="#me49c283bf9" y="441.695197"/>
      </g>
     </g>
     <g id="text_15">
      <!-- 0.8 -->
      <g transform="translate(139.096875 445.494415)scale(0.1 -0.1)">
       <defs>
        <path d="M 2034 2216 
Q 1584 2216 1326 1975 
Q 1069 1734 1069 1313 
Q 1069 891 1326 650 
Q 1584 409 2034 409 
Q 2484 409 2743 651 
Q 3003 894 3003 1313 
Q 3003 1734 2745 1975 
Q 2488 2216 2034 2216 
z
M 1403 2484 
Q 997 2584 770 2862 
Q 544 3141 544 3541 
Q 544 4100 942 4425 
Q 1341 4750 2034 4750 
Q 2731 4750 3128 4425 
Q 3525 4100 3525 3541 
Q 3525 3141 3298 2862 
Q 3072 2584 2669 2484 
Q 3125 2378 3379 2068 
Q 3634 1759 3634 1313 
Q 3634 634 3220 271 
Q 2806 -91 2034 -91 
Q 1263 -91 848 271 
Q 434 634 434 1313 
Q 434 1759 690 2068 
Q 947 2378 1403 2484 
z
M 1172 3481 
Q 1172 3119 1398 2916 
Q 1625 2713 2034 2713 
Q 2441 2713 2670 2916 
Q 2900 3119 2900 3481 
Q 2900 3844 2670 4047 
Q 2441 4250 2034 4250 
Q 1625 4250 1398 4047 
Q 1172 3844 1172 3481 
z
" id="DejaVuSans-38" transform="scale(0.015625)"/>
       </defs>
       <use xlink:href="#DejaVuSans-30"/>
       <use x="63.623047" xlink:href="#DejaVuSans-2e"/>
       <use x="95.410156" xlink:href="#DejaVuSans-38"/>
      </g>
     </g>
    </g>
    <g id="ytick_6">
     <g id="line2d_16">
      <g>
       <use style="stroke:#000000;stroke-width:0.8;" x="162" xlink:href="#me49c283bf9" y="359.878996"/>
      </g>
     </g>
     <g id="text_16">
      <!-- 1.0 -->
      <g transform="translate(139.096875 363.678214)scale(0.1 -0.1)">
       <defs>
        <path d="M 794 531 
L 1825 531 
L 1825 4091 
L 703 3866 
L 703 4441 
L 1819 4666 
L 2450 4666 
L 2450 531 
L 3481 531 
L 3481 0 
L 794 0 
L 794 531 
z
" id="DejaVuSans-31" transform="scale(0.015625)"/>
       </defs>
       <use xlink:href="#DejaVuSans-31"/>
       <use x="63.623047" xlink:href="#DejaVuSans-2e"/>
       <use x="95.410156" xlink:href="#DejaVuSans-30"/>
      </g>
     </g>
    </g>
    <g id="ytick_7">
     <g id="line2d_17">
      <g>
       <use style="stroke:#000000;stroke-width:0.8;" x="162" xlink:href="#me49c283bf9" y="278.062795"/>
      </g>
     </g>
     <g id="text_17">
      <!-- 1.2 -->
      <g transform="translate(139.096875 281.862014)scale(0.1 -0.1)">
       <use xlink:href="#DejaVuSans-31"/>
       <use x="63.623047" xlink:href="#DejaVuSans-2e"/>
       <use x="95.410156" xlink:href="#DejaVuSans-32"/>
      </g>
     </g>
    </g>
    <g id="ytick_8">
     <g id="line2d_18">
      <g>
       <use style="stroke:#000000;stroke-width:0.8;" x="162" xlink:href="#me49c283bf9" y="196.246594"/>
      </g>
     </g>
     <g id="text_18">
      <!-- 1.4 -->
      <g transform="translate(139.096875 200.045813)scale(0.1 -0.1)">
       <use xlink:href="#DejaVuSans-31"/>
       <use x="63.623047" xlink:href="#DejaVuSans-2e"/>
       <use x="95.410156" xlink:href="#DejaVuSans-34"/>
      </g>
     </g>
    </g>
    <g id="ytick_9">
     <g id="line2d_19">
      <g>
       <use style="stroke:#000000;stroke-width:0.8;" x="162" xlink:href="#me49c283bf9" y="114.430393"/>
      </g>
     </g>
     <g id="text_19">
      <!-- 1.6 -->
      <g transform="translate(139.096875 118.229612)scale(0.1 -0.1)">
       <use xlink:href="#DejaVuSans-31"/>
       <use x="63.623047" xlink:href="#DejaVuSans-2e"/>
       <use x="95.410156" xlink:href="#DejaVuSans-36"/>
      </g>
     </g>
    </g>
    <g id="text_20">
     <!-- Persons fully vaccinated (tens of millions) -->
     <g transform="translate(133.017188 540.480156)rotate(-90)scale(0.1 -0.1)">
      <defs>
       <path d="M 1259 4147 
L 1259 2394 
L 2053 2394 
Q 2494 2394 2734 2622 
Q 2975 2850 2975 3272 
Q 2975 3691 2734 3919 
Q 2494 4147 2053 4147 
L 1259 4147 
z
M 628 4666 
L 2053 4666 
Q 2838 4666 3239 4311 
Q 3641 3956 3641 3272 
Q 3641 2581 3239 2228 
Q 2838 1875 2053 1875 
L 1259 1875 
L 1259 0 
L 628 0 
L 628 4666 
z
" id="DejaVuSans-50" transform="scale(0.015625)"/>
       <path id="DejaVuSans-20" transform="scale(0.015625)"/>
       <path d="M 2375 4863 
L 2375 4384 
L 1825 4384 
Q 1516 4384 1395 4259 
Q 1275 4134 1275 3809 
L 1275 3500 
L 2222 3500 
L 2222 3053 
L 1275 3053 
L 1275 0 
L 697 0 
L 697 3053 
L 147 3053 
L 147 3500 
L 697 3500 
L 697 3744 
Q 697 4328 969 4595 
Q 1241 4863 1831 4863 
L 2375 4863 
z
" id="DejaVuSans-66" transform="scale(0.015625)"/>
       <path d="M 191 3500 
L 800 3500 
L 1894 563 
L 2988 3500 
L 3597 3500 
L 2284 0 
L 1503 0 
L 191 3500 
z
" id="DejaVuSans-76" transform="scale(0.015625)"/>
       <path d="M 2906 2969 
L 2906 4863 
L 3481 4863 
L 3481 0 
L 2906 0 
L 2906 525 
Q 2725 213 2448 61 
Q 2172 -91 1784 -91 
Q 1150 -91 751 415 
Q 353 922 353 1747 
Q 353 2572 751 3078 
Q 1150 3584 1784 3584 
Q 2172 3584 2448 3432 
Q 2725 3281 2906 2969 
z
M 947 1747 
Q 947 1113 1208 752 
Q 1469 391 1925 391 
Q 2381 391 2643 752 
Q 2906 1113 2906 1747 
Q 2906 2381 2643 2742 
Q 2381 3103 1925 3103 
Q 1469 3103 1208 2742 
Q 947 2381 947 1747 
z
" id="DejaVuSans-64" transform="scale(0.015625)"/>
       <path d="M 1984 4856 
Q 1566 4138 1362 3434 
Q 1159 2731 1159 2009 
Q 1159 1288 1364 580 
Q 1569 -128 1984 -844 
L 1484 -844 
Q 1016 -109 783 600 
Q 550 1309 550 2009 
Q 550 2706 781 3412 
Q 1013 4119 1484 4856 
L 1984 4856 
z
" id="DejaVuSans-28" transform="scale(0.015625)"/>
       <path d="M 513 4856 
L 1013 4856 
Q 1481 4119 1714 3412 
Q 1947 2706 1947 2009 
Q 1947 1309 1714 600 
Q 1481 -109 1013 -844 
L 513 -844 
Q 928 -128 1133 580 
Q 1338 1288 1338 2009 
Q 1338 2731 1133 3434 
Q 928 4138 513 4856 
z
" id="DejaVuSans-29" transform="scale(0.015625)"/>
      </defs>
      <use xlink:href="#DejaVuSans-50"/>
      <use x="56.677734" xlink:href="#DejaVuSans-65"/>
      <use x="118.201172" xlink:href="#DejaVuSans-72"/>
      <use x="159.314453" xlink:href="#DejaVuSans-73"/>
      <use x="211.414062" xlink:href="#DejaVuSans-6f"/>
      <use x="272.595703" xlink:href="#DejaVuSans-6e"/>
      <use x="335.974609" xlink:href="#DejaVuSans-73"/>
      <use x="388.074219" xlink:href="#DejaVuSans-20"/>
      <use x="419.861328" xlink:href="#DejaVuSans-66"/>
      <use x="455.066406" xlink:href="#DejaVuSans-75"/>
      <use x="518.445312" xlink:href="#DejaVuSans-6c"/>
      <use x="546.228516" xlink:href="#DejaVuSans-6c"/>
      <use x="574.011719" xlink:href="#DejaVuSans-79"/>
      <use x="633.191406" xlink:href="#DejaVuSans-20"/>
      <use x="664.978516" xlink:href="#DejaVuSans-76"/>
      <use x="724.158203" xlink:href="#DejaVuSans-61"/>
      <use x="785.4375" xlink:href="#DejaVuSans-63"/>
      <use x="840.417969" xlink:href="#DejaVuSans-63"/>
      <use x="895.398438" xlink:href="#DejaVuSans-69"/>
      <use x="923.181641" xlink:href="#DejaVuSans-6e"/>
      <use x="986.560547" xlink:href="#DejaVuSans-61"/>
      <use x="1047.839844" xlink:href="#DejaVuSans-74"/>
      <use x="1087.048828" xlink:href="#DejaVuSans-65"/>
      <use x="1148.572266" xlink:href="#DejaVuSans-64"/>
      <use x="1212.048828" xlink:href="#DejaVuSans-20"/>
      <use x="1243.835938" xlink:href="#DejaVuSans-28"/>
      <use x="1282.849609" xlink:href="#DejaVuSans-74"/>
      <use x="1322.058594" xlink:href="#DejaVuSans-65"/>
      <use x="1383.582031" xlink:href="#DejaVuSans-6e"/>
      <use x="1446.960938" xlink:href="#DejaVuSans-73"/>
      <use x="1499.060547" xlink:href="#DejaVuSans-20"/>
      <use x="1530.847656" xlink:href="#DejaVuSans-6f"/>
      <use x="1592.029297" xlink:href="#DejaVuSans-66"/>
      <use x="1627.234375" xlink:href="#DejaVuSans-20"/>
      <use x="1659.021484" xlink:href="#DejaVuSans-6d"/>
      <use x="1756.433594" xlink:href="#DejaVuSans-69"/>
      <use x="1784.216797" xlink:href="#DejaVuSans-6c"/>
      <use x="1812" xlink:href="#DejaVuSans-6c"/>
      <use x="1839.783203" xlink:href="#DejaVuSans-69"/>
      <use x="1867.566406" xlink:href="#DejaVuSans-6f"/>
      <use x="1928.748047" xlink:href="#DejaVuSans-6e"/>
      <use x="1992.126953" xlink:href="#DejaVuSans-73"/>
      <use x="2044.226562" xlink:href="#DejaVuSans-29"/>
     </g>
    </g>
    <g id="text_21">
     <!-- 1e7 -->
     <g transform="translate(162 100.68)scale(0.1 -0.1)">
      <defs>
       <path d="M 525 4666 
L 3525 4666 
L 3525 4397 
L 1831 0 
L 1172 0 
L 2766 4134 
L 525 4134 
L 525 4666 
z
" id="DejaVuSans-37" transform="scale(0.015625)"/>
      </defs>
      <use xlink:href="#DejaVuSans-31"/>
      <use x="63.623047" xlink:href="#DejaVuSans-65"/>
      <use x="125.146484" xlink:href="#DejaVuSans-37"/>
     </g>
    </g>
   </g>
   <g id="patch_292">
    <path d="M 162 768.96 
L 162 103.68 
" style="fill:none;stroke:#000000;stroke-linecap:square;stroke-linejoin:miter;stroke-width:0.8;"/>
   </g>
   <g id="patch_293">
    <path d="M 1166.4 768.96 
L 1166.4 103.68 
" style="fill:none;stroke:#000000;stroke-linecap:square;stroke-linejoin:miter;stroke-width:0.8;"/>
   </g>
   <g id="patch_294">
    <path d="M 162 768.96 
L 1166.4 768.96 
" style="fill:none;stroke:#000000;stroke-linecap:square;stroke-linejoin:miter;stroke-width:0.8;"/>
   </g>
   <g id="patch_295">
    <path d="M 162 103.68 
L 1166.4 103.68 
" style="fill:none;stroke:#000000;stroke-linecap:square;stroke-linejoin:miter;stroke-width:0.8;"/>
   </g>
   <g id="text_22">
    <!-- Persons Fully Vaccinated -->
    <g transform="translate(590.380313 97.68)scale(0.12 -0.12)">
     <defs>
      <path d="M 1831 0 
L 50 4666 
L 709 4666 
L 2188 738 
L 3669 4666 
L 4325 4666 
L 2547 0 
L 1831 0 
z
" id="DejaVuSans-56" transform="scale(0.015625)"/>
     </defs>
     <use xlink:href="#DejaVuSans-50"/>
     <use x="56.677734" xlink:href="#DejaVuSans-65"/>
     <use x="118.201172" xlink:href="#DejaVuSans-72"/>
     <use x="159.314453" xlink:href="#DejaVuSans-73"/>
     <use x="211.414062" xlink:href="#DejaVuSans-6f"/>
     <use x="272.595703" xlink:href="#DejaVuSans-6e"/>
     <use x="335.974609" xlink:href="#DejaVuSans-73"/>
     <use x="388.074219" xlink:href="#DejaVuSans-20"/>
     <use x="419.861328" xlink:href="#DejaVuSans-46"/>
     <use x="471.880859" xlink:href="#DejaVuSans-75"/>
     <use x="535.259766" xlink:href="#DejaVuSans-6c"/>
     <use x="563.042969" xlink:href="#DejaVuSans-6c"/>
     <use x="590.826172" xlink:href="#DejaVuSans-79"/>
     <use x="650.005859" xlink:href="#DejaVuSans-20"/>
     <use x="681.792969" xlink:href="#DejaVuSans-56"/>
     <use x="742.451172" xlink:href="#DejaVuSans-61"/>
     <use x="803.730469" xlink:href="#DejaVuSans-63"/>
     <use x="858.710938" xlink:href="#DejaVuSans-63"/>
     <use x="913.691406" xlink:href="#DejaVuSans-69"/>
     <use x="941.474609" xlink:href="#DejaVuSans-6e"/>
     <use x="1004.853516" xlink:href="#DejaVuSans-61"/>
     <use x="1066.132812" xlink:href="#DejaVuSans-74"/>
     <use x="1105.341797" xlink:href="#DejaVuSans-65"/>
     <use x="1166.865234" xlink:href="#DejaVuSans-64"/>
    </g>
   </g>
  </g>
 </g>
 <defs>
  <clipPath id="p155b4dd32d">
   <rect height="665.28" width="1004.4" x="162" y="103.68"/>
  </clipPath>
 </defs>
</svg>
