<?xml version="1.0" encoding="utf-8" standalone="no"?>
<!DOCTYPE svg PUBLIC "-//W3C//DTD SVG 1.1//EN"
  "http://www.w3.org/Graphics/SVG/1.1/DTD/svg11.dtd">
<svg height="864pt" version="1.1" viewBox="0 0 1296 864" width="1296pt" xmlns="http://www.w3.org/2000/svg" xmlns:xlink="http://www.w3.org/1999/xlink">
 <metadata>
  <rdf:RDF xmlns:cc="http://creativecommons.org/ns#" xmlns:dc="http://purl.org/dc/elements/1.1/" xmlns:rdf="http://www.w3.org/1999/02/22-rdf-syntax-ns#">
   <cc:Work>
    <dc:type rdf:resource="http://purl.org/dc/dcmitype/StillImage"/>
    <dc:date>2021-12-22T05:21:39.187077</dc:date>
    <dc:format>image/svg+xml</dc:format>
    <dc:creator>
     <cc:Agent>
      <dc:title>Matplotlib v3.4.2, https://matplotlib.org/</dc:title>
     </cc:Agent>
    </dc:creator>
   </cc:Work>
  </rdf:RDF>
 </metadata>
 <defs>
  <style type="text/css">*{stroke-linecap:butt;stroke-linejoin:round;}</style>
 </defs>
 <g id="figure_1">
  <g id="patch_1">
   <path d="M 0 864 
L 1296 864 
L 1296 0 
L 0 0 
z
" style="fill:#ffffff;"/>
  </g>
  <g id="axes_1">
   <g id="patch_2">
    <path d="M 162 768.96 
L 1166.4 768.96 
L 1166.4 103.68 
L 162 103.68 
z
" style="fill:#ffffff;"/>
   </g>
   <g id="patch_3">
    <path clip-path="url(#pa584a13d2a)" d="M 162.715385 768.96 
L 164.146154 768.96 
L 164.146154 768.949391 
L 162.715385 768.949391 
z
" style="fill:#1f77b4;"/>
   </g>
   <g id="patch_4">
    <path clip-path="url(#pa584a13d2a)" d="M 165.576923 768.96 
L 167.007692 768.96 
L 167.007692 768.920799 
L 165.576923 768.920799 
z
" style="fill:#1f77b4;"/>
   </g>
   <g id="patch_5">
    <path clip-path="url(#pa584a13d2a)" d="M 168.438462 768.96 
L 169.869231 768.96 
L 169.869231 768.722228 
L 168.438462 768.722228 
z
" style="fill:#1f77b4;"/>
   </g>
   <g id="patch_6">
    <path clip-path="url(#pa584a13d2a)" d="M 171.3 768.96 
L 172.730769 768.96 
L 172.730769 767.294016 
L 171.3 767.294016 
z
" style="fill:#1f77b4;"/>
   </g>
   <g id="patch_7">
    <path clip-path="url(#pa584a13d2a)" d="M 174.161538 768.96 
L 175.592308 768.96 
L 175.592308 765.581884 
L 174.161538 765.581884 
z
" style="fill:#1f77b4;"/>
   </g>
   <g id="patch_8">
    <path clip-path="url(#pa584a13d2a)" d="M 177.023077 768.96 
L 178.453846 768.96 
L 178.453846 764.646506 
L 177.023077 764.646506 
z
" style="fill:#1f77b4;"/>
   </g>
   <g id="patch_9">
    <path clip-path="url(#pa584a13d2a)" d="M 179.884615 768.96 
L 181.315385 768.96 
L 181.315385 764.079278 
L 179.884615 764.079278 
z
" style="fill:#1f77b4;"/>
   </g>
   <g id="patch_10">
    <path clip-path="url(#pa584a13d2a)" d="M 182.746154 768.96 
L 184.176923 768.96 
L 184.176923 763.189996 
L 182.746154 763.189996 
z
" style="fill:#1f77b4;"/>
   </g>
   <g id="patch_11">
    <path clip-path="url(#pa584a13d2a)" d="M 185.607692 768.96 
L 187.038462 768.96 
L 187.038462 762.341573 
L 185.607692 762.341573 
z
" style="fill:#1f77b4;"/>
   </g>
   <g id="patch_12">
    <path clip-path="url(#pa584a13d2a)" d="M 188.469231 768.96 
L 189.9 768.96 
L 189.9 761.650114 
L 188.469231 761.650114 
z
" style="fill:#1f77b4;"/>
   </g>
   <g id="patch_13">
    <path clip-path="url(#pa584a13d2a)" d="M 191.330769 768.96 
L 192.761538 768.96 
L 192.761538 760.798377 
L 191.330769 760.798377 
z
" style="fill:#1f77b4;"/>
   </g>
   <g id="patch_14">
    <path clip-path="url(#pa584a13d2a)" d="M 194.192308 768.96 
L 195.623077 768.96 
L 195.623077 760.622947 
L 194.192308 760.622947 
z
" style="fill:#1f77b4;"/>
   </g>
   <g id="patch_15">
    <path clip-path="url(#pa584a13d2a)" d="M 197.053846 768.96 
L 198.484615 768.96 
L 198.484615 760.514295 
L 197.053846 760.514295 
z
" style="fill:#1f77b4;"/>
   </g>
   <g id="patch_16">
    <path clip-path="url(#pa584a13d2a)" d="M 199.915385 768.96 
L 201.346154 768.96 
L 201.346154 760.462695 
L 199.915385 760.462695 
z
" style="fill:#1f77b4;"/>
   </g>
   <g id="patch_17">
    <path clip-path="url(#pa584a13d2a)" d="M 202.776923 768.96 
L 204.207692 768.96 
L 204.207692 760.226098 
L 202.776923 760.226098 
z
" style="fill:#1f77b4;"/>
   </g>
   <g id="patch_18">
    <path clip-path="url(#pa584a13d2a)" d="M 205.638462 768.96 
L 207.069231 768.96 
L 207.069231 759.831922 
L 205.638462 759.831922 
z
" style="fill:#1f77b4;"/>
   </g>
   <g id="patch_19">
    <path clip-path="url(#pa584a13d2a)" d="M 208.5 768.96 
L 209.930769 768.96 
L 209.930769 759.075422 
L 208.5 759.075422 
z
" style="fill:#1f77b4;"/>
   </g>
   <g id="patch_20">
    <path clip-path="url(#pa584a13d2a)" d="M 211.361538 768.96 
L 212.792308 768.96 
L 212.792308 758.318013 
L 211.361538 758.318013 
z
" style="fill:#1f77b4;"/>
   </g>
   <g id="patch_21">
    <path clip-path="url(#pa584a13d2a)" d="M 214.223077 768.96 
L 215.653846 768.96 
L 215.653846 757.77422 
L 214.223077 757.77422 
z
" style="fill:#1f77b4;"/>
   </g>
   <g id="patch_22">
    <path clip-path="url(#pa584a13d2a)" d="M 217.084615 768.96 
L 218.515385 768.96 
L 218.515385 757.573965 
L 217.084615 757.573965 
z
" style="fill:#1f77b4;"/>
   </g>
   <g id="patch_23">
    <path clip-path="url(#pa584a13d2a)" d="M 219.946154 768.96 
L 221.376923 768.96 
L 221.376923 757.303699 
L 219.946154 757.303699 
z
" style="fill:#1f77b4;"/>
   </g>
   <g id="patch_24">
    <path clip-path="url(#pa584a13d2a)" d="M 222.807692 768.96 
L 224.238462 768.96 
L 224.238462 756.589126 
L 222.807692 756.589126 
z
" style="fill:#1f77b4;"/>
   </g>
   <g id="patch_25">
    <path clip-path="url(#pa584a13d2a)" d="M 225.669231 768.96 
L 227.1 768.96 
L 227.1 755.384257 
L 225.669231 755.384257 
z
" style="fill:#1f77b4;"/>
   </g>
   <g id="patch_26">
    <path clip-path="url(#pa584a13d2a)" d="M 228.530769 768.96 
L 229.961538 768.96 
L 229.961538 753.722335 
L 228.530769 753.722335 
z
" style="fill:#1f77b4;"/>
   </g>
   <g id="patch_27">
    <path clip-path="url(#pa584a13d2a)" d="M 231.392308 768.96 
L 232.823077 768.96 
L 232.823077 752.309836 
L 231.392308 752.309836 
z
" style="fill:#1f77b4;"/>
   </g>
   <g id="patch_28">
    <path clip-path="url(#pa584a13d2a)" d="M 234.253846 768.96 
L 235.684615 768.96 
L 235.684615 751.049172 
L 234.253846 751.049172 
z
" style="fill:#1f77b4;"/>
   </g>
   <g id="patch_29">
    <path clip-path="url(#pa584a13d2a)" d="M 237.115385 768.96 
L 238.546154 768.96 
L 238.546154 750.352743 
L 237.115385 750.352743 
z
" style="fill:#1f77b4;"/>
   </g>
   <g id="patch_30">
    <path clip-path="url(#pa584a13d2a)" d="M 239.976923 768.96 
L 241.407692 768.96 
L 241.407692 749.964098 
L 239.976923 749.964098 
z
" style="fill:#1f77b4;"/>
   </g>
   <g id="patch_31">
    <path clip-path="url(#pa584a13d2a)" d="M 242.838462 768.96 
L 244.269231 768.96 
L 244.269231 749.276995 
L 242.838462 749.276995 
z
" style="fill:#1f77b4;"/>
   </g>
   <g id="patch_32">
    <path clip-path="url(#pa584a13d2a)" d="M 245.7 768.96 
L 247.130769 768.96 
L 247.130769 747.799268 
L 245.7 747.799268 
z
" style="fill:#1f77b4;"/>
   </g>
   <g id="patch_33">
    <path clip-path="url(#pa584a13d2a)" d="M 248.561538 768.96 
L 249.992308 768.96 
L 249.992308 746.699684 
L 248.561538 746.699684 
z
" style="fill:#1f77b4;"/>
   </g>
   <g id="patch_34">
    <path clip-path="url(#pa584a13d2a)" d="M 251.423077 768.96 
L 252.853846 768.96 
L 252.853846 745.222037 
L 251.423077 745.222037 
z
" style="fill:#1f77b4;"/>
   </g>
   <g id="patch_35">
    <path clip-path="url(#pa584a13d2a)" d="M 254.284615 768.96 
L 255.715385 768.96 
L 255.715385 744.040095 
L 254.284615 744.040095 
z
" style="fill:#1f77b4;"/>
   </g>
   <g id="patch_36">
    <path clip-path="url(#pa584a13d2a)" d="M 257.146154 768.96 
L 258.576923 768.96 
L 258.576923 743.002667 
L 257.146154 743.002667 
z
" style="fill:#1f77b4;"/>
   </g>
   <g id="patch_37">
    <path clip-path="url(#pa584a13d2a)" d="M 260.007692 768.96 
L 261.438462 768.96 
L 261.438462 742.649749 
L 260.007692 742.649749 
z
" style="fill:#1f77b4;"/>
   </g>
   <g id="patch_38">
    <path clip-path="url(#pa584a13d2a)" d="M 262.869231 768.96 
L 264.3 768.96 
L 264.3 741.460513 
L 262.869231 741.460513 
z
" style="fill:#1f77b4;"/>
   </g>
   <g id="patch_39">
    <path clip-path="url(#pa584a13d2a)" d="M 265.730769 768.96 
L 267.161538 768.96 
L 267.161538 739.989172 
L 265.730769 739.989172 
z
" style="fill:#1f77b4;"/>
   </g>
   <g id="patch_40">
    <path clip-path="url(#pa584a13d2a)" d="M 268.592308 768.96 
L 270.023077 768.96 
L 270.023077 738.214964 
L 268.592308 738.214964 
z
" style="fill:#1f77b4;"/>
   </g>
   <g id="patch_41">
    <path clip-path="url(#pa584a13d2a)" d="M 271.453846 768.96 
L 272.884615 768.96 
L 272.884615 735.683749 
L 271.453846 735.683749 
z
" style="fill:#1f77b4;"/>
   </g>
   <g id="patch_42">
    <path clip-path="url(#pa584a13d2a)" d="M 274.315385 768.96 
L 275.746154 768.96 
L 275.746154 733.41831 
L 274.315385 733.41831 
z
" style="fill:#1f77b4;"/>
   </g>
   <g id="patch_43">
    <path clip-path="url(#pa584a13d2a)" d="M 277.176923 768.96 
L 278.607692 768.96 
L 278.607692 731.999264 
L 277.176923 731.999264 
z
" style="fill:#1f77b4;"/>
   </g>
   <g id="patch_44">
    <path clip-path="url(#pa584a13d2a)" d="M 280.038462 768.96 
L 281.469231 768.96 
L 281.469231 731.235362 
L 280.038462 731.235362 
z
" style="fill:#1f77b4;"/>
   </g>
   <g id="patch_45">
    <path clip-path="url(#pa584a13d2a)" d="M 282.9 768.96 
L 284.330769 768.96 
L 284.330769 730.487841 
L 282.9 730.487841 
z
" style="fill:#1f77b4;"/>
   </g>
   <g id="patch_46">
    <path clip-path="url(#pa584a13d2a)" d="M 285.761538 768.96 
L 287.192308 768.96 
L 287.192308 729.049929 
L 285.761538 729.049929 
z
" style="fill:#1f77b4;"/>
   </g>
   <g id="patch_47">
    <path clip-path="url(#pa584a13d2a)" d="M 288.623077 768.96 
L 290.053846 768.96 
L 290.053846 726.660634 
L 288.623077 726.660634 
z
" style="fill:#1f77b4;"/>
   </g>
   <g id="patch_48">
    <path clip-path="url(#pa584a13d2a)" d="M 291.484615 768.96 
L 292.915385 768.96 
L 292.915385 723.547493 
L 291.484615 723.547493 
z
" style="fill:#1f77b4;"/>
   </g>
   <g id="patch_49">
    <path clip-path="url(#pa584a13d2a)" d="M 294.346154 768.96 
L 295.776923 768.96 
L 295.776923 720.601205 
L 294.346154 720.601205 
z
" style="fill:#1f77b4;"/>
   </g>
   <g id="patch_50">
    <path clip-path="url(#pa584a13d2a)" d="M 297.207692 768.96 
L 298.638462 768.96 
L 298.638462 720.135654 
L 297.207692 720.135654 
z
" style="fill:#1f77b4;"/>
   </g>
   <g id="patch_51">
    <path clip-path="url(#pa584a13d2a)" d="M 300.069231 768.96 
L 301.5 768.96 
L 301.5 717.973042 
L 300.069231 717.973042 
z
" style="fill:#1f77b4;"/>
   </g>
   <g id="patch_52">
    <path clip-path="url(#pa584a13d2a)" d="M 302.930769 768.96 
L 304.361538 768.96 
L 304.361538 716.25479 
L 302.930769 716.25479 
z
" style="fill:#1f77b4;"/>
   </g>
   <g id="patch_53">
    <path clip-path="url(#pa584a13d2a)" d="M 305.792308 768.96 
L 307.223077 768.96 
L 307.223077 713.67983 
L 305.792308 713.67983 
z
" style="fill:#1f77b4;"/>
   </g>
   <g id="patch_54">
    <path clip-path="url(#pa584a13d2a)" d="M 308.653846 768.96 
L 310.084615 768.96 
L 310.084615 708.744996 
L 308.653846 708.744996 
z
" style="fill:#1f77b4;"/>
   </g>
   <g id="patch_55">
    <path clip-path="url(#pa584a13d2a)" d="M 311.515385 768.96 
L 312.946154 768.96 
L 312.946154 703.634652 
L 311.515385 703.634652 
z
" style="fill:#1f77b4;"/>
   </g>
   <g id="patch_56">
    <path clip-path="url(#pa584a13d2a)" d="M 314.376923 768.96 
L 315.807692 768.96 
L 315.807692 699.152329 
L 314.376923 699.152329 
z
" style="fill:#1f77b4;"/>
   </g>
   <g id="patch_57">
    <path clip-path="url(#pa584a13d2a)" d="M 317.238462 768.96 
L 318.669231 768.96 
L 318.669231 695.271358 
L 317.238462 695.271358 
z
" style="fill:#1f77b4;"/>
   </g>
   <g id="patch_58">
    <path clip-path="url(#pa584a13d2a)" d="M 320.1 768.96 
L 321.530769 768.96 
L 321.530769 693.423264 
L 320.1 693.423264 
z
" style="fill:#1f77b4;"/>
   </g>
   <g id="patch_59">
    <path clip-path="url(#pa584a13d2a)" d="M 322.961538 768.96 
L 324.392308 768.96 
L 324.392308 690.625549 
L 322.961538 690.625549 
z
" style="fill:#1f77b4;"/>
   </g>
   <g id="patch_60">
    <path clip-path="url(#pa584a13d2a)" d="M 325.823077 768.96 
L 327.253846 768.96 
L 327.253846 686.833883 
L 325.823077 686.833883 
z
" style="fill:#1f77b4;"/>
   </g>
   <g id="patch_61">
    <path clip-path="url(#pa584a13d2a)" d="M 328.684615 768.96 
L 330.115385 768.96 
L 330.115385 682.485998 
L 328.684615 682.485998 
z
" style="fill:#1f77b4;"/>
   </g>
   <g id="patch_62">
    <path clip-path="url(#pa584a13d2a)" d="M 331.546154 768.96 
L 332.976923 768.96 
L 332.976923 676.14222 
L 331.546154 676.14222 
z
" style="fill:#1f77b4;"/>
   </g>
   <g id="patch_63">
    <path clip-path="url(#pa584a13d2a)" d="M 334.407692 768.96 
L 335.838462 768.96 
L 335.838462 670.184948 
L 334.407692 670.184948 
z
" style="fill:#1f77b4;"/>
   </g>
   <g id="patch_64">
    <path clip-path="url(#pa584a13d2a)" d="M 337.269231 768.96 
L 338.7 768.96 
L 338.7 665.708584 
L 337.269231 665.708584 
z
" style="fill:#1f77b4;"/>
   </g>
   <g id="patch_65">
    <path clip-path="url(#pa584a13d2a)" d="M 340.130769 768.96 
L 341.561538 768.96 
L 341.561538 664.303995 
L 340.130769 664.303995 
z
" style="fill:#1f77b4;"/>
   </g>
   <g id="patch_66">
    <path clip-path="url(#pa584a13d2a)" d="M 342.992308 768.96 
L 344.423077 768.96 
L 344.423077 660.466955 
L 342.992308 660.466955 
z
" style="fill:#1f77b4;"/>
   </g>
   <g id="patch_67">
    <path clip-path="url(#pa584a13d2a)" d="M 345.853846 768.96 
L 347.284615 768.96 
L 347.284615 655.499013 
L 345.853846 655.499013 
z
" style="fill:#1f77b4;"/>
   </g>
   <g id="patch_68">
    <path clip-path="url(#pa584a13d2a)" d="M 348.715385 768.96 
L 350.146154 768.96 
L 350.146154 650.014641 
L 348.715385 650.014641 
z
" style="fill:#1f77b4;"/>
   </g>
   <g id="patch_69">
    <path clip-path="url(#pa584a13d2a)" d="M 351.576923 768.96 
L 353.007692 768.96 
L 353.007692 644.143949 
L 351.576923 644.143949 
z
" style="fill:#1f77b4;"/>
   </g>
   <g id="patch_70">
    <path clip-path="url(#pa584a13d2a)" d="M 354.438462 768.96 
L 355.869231 768.96 
L 355.869231 637.482766 
L 354.438462 637.482766 
z
" style="fill:#1f77b4;"/>
   </g>
   <g id="patch_71">
    <path clip-path="url(#pa584a13d2a)" d="M 357.3 768.96 
L 358.730769 768.96 
L 358.730769 633.177797 
L 357.3 633.177797 
z
" style="fill:#1f77b4;"/>
   </g>
   <g id="patch_72">
    <path clip-path="url(#pa584a13d2a)" d="M 360.161538 768.96 
L 361.592308 768.96 
L 361.592308 628.898855 
L 360.161538 628.898855 
z
" style="fill:#1f77b4;"/>
   </g>
   <g id="patch_73">
    <path clip-path="url(#pa584a13d2a)" d="M 363.023077 768.96 
L 364.453846 768.96 
L 364.453846 625.090594 
L 363.023077 625.090594 
z
" style="fill:#1f77b4;"/>
   </g>
   <g id="patch_74">
    <path clip-path="url(#pa584a13d2a)" d="M 365.884615 768.96 
L 367.315385 768.96 
L 367.315385 620.822501 
L 365.884615 620.822501 
z
" style="fill:#1f77b4;"/>
   </g>
   <g id="patch_75">
    <path clip-path="url(#pa584a13d2a)" d="M 368.746154 768.96 
L 370.176923 768.96 
L 370.176923 617.010793 
L 368.746154 617.010793 
z
" style="fill:#1f77b4;"/>
   </g>
   <g id="patch_76">
    <path clip-path="url(#pa584a13d2a)" d="M 371.607692 768.96 
L 373.038462 768.96 
L 373.038462 612.661492 
L 371.607692 612.661492 
z
" style="fill:#1f77b4;"/>
   </g>
   <g id="patch_77">
    <path clip-path="url(#pa584a13d2a)" d="M 374.469231 768.96 
L 375.9 768.96 
L 375.9 608.200012 
L 374.469231 608.200012 
z
" style="fill:#1f77b4;"/>
   </g>
   <g id="patch_78">
    <path clip-path="url(#pa584a13d2a)" d="M 377.330769 768.96 
L 378.761538 768.96 
L 378.761538 605.545074 
L 377.330769 605.545074 
z
" style="fill:#1f77b4;"/>
   </g>
   <g id="patch_79">
    <path clip-path="url(#pa584a13d2a)" d="M 380.192308 768.96 
L 381.623077 768.96 
L 381.623077 604.091744 
L 380.192308 604.091744 
z
" style="fill:#1f77b4;"/>
   </g>
   <g id="patch_80">
    <path clip-path="url(#pa584a13d2a)" d="M 383.053846 768.96 
L 384.484615 768.96 
L 384.484615 601.695661 
L 383.053846 601.695661 
z
" style="fill:#1f77b4;"/>
   </g>
   <g id="patch_81">
    <path clip-path="url(#pa584a13d2a)" d="M 385.915385 768.96 
L 387.346154 768.96 
L 387.346154 598.829726 
L 385.915385 598.829726 
z
" style="fill:#1f77b4;"/>
   </g>
   <g id="patch_82">
    <path clip-path="url(#pa584a13d2a)" d="M 388.776923 768.96 
L 390.207692 768.96 
L 390.207692 595.833894 
L 388.776923 595.833894 
z
" style="fill:#1f77b4;"/>
   </g>
   <g id="patch_83">
    <path clip-path="url(#pa584a13d2a)" d="M 391.638462 768.96 
L 393.069231 768.96 
L 393.069231 591.974996 
L 391.638462 591.974996 
z
" style="fill:#1f77b4;"/>
   </g>
   <g id="patch_84">
    <path clip-path="url(#pa584a13d2a)" d="M 394.5 768.96 
L 395.930769 768.96 
L 395.930769 587.186385 
L 394.5 587.186385 
z
" style="fill:#1f77b4;"/>
   </g>
   <g id="patch_85">
    <path clip-path="url(#pa584a13d2a)" d="M 397.361538 768.96 
L 398.792308 768.96 
L 398.792308 583.033223 
L 397.361538 583.033223 
z
" style="fill:#1f77b4;"/>
   </g>
   <g id="patch_86">
    <path clip-path="url(#pa584a13d2a)" d="M 400.223077 768.96 
L 401.653846 768.96 
L 401.653846 581.3868 
L 400.223077 581.3868 
z
" style="fill:#1f77b4;"/>
   </g>
   <g id="patch_87">
    <path clip-path="url(#pa584a13d2a)" d="M 403.084615 768.96 
L 404.515385 768.96 
L 404.515385 578.849251 
L 403.084615 578.849251 
z
" style="fill:#1f77b4;"/>
   </g>
   <g id="patch_88">
    <path clip-path="url(#pa584a13d2a)" d="M 405.946154 768.96 
L 407.376923 768.96 
L 407.376923 574.268885 
L 405.946154 574.268885 
z
" style="fill:#1f77b4;"/>
   </g>
   <g id="patch_89">
    <path clip-path="url(#pa584a13d2a)" d="M 408.807692 768.96 
L 410.238462 768.96 
L 410.238462 570.39748 
L 408.807692 570.39748 
z
" style="fill:#1f77b4;"/>
   </g>
   <g id="patch_90">
    <path clip-path="url(#pa584a13d2a)" d="M 411.669231 768.96 
L 413.1 768.96 
L 413.1 565.011605 
L 411.669231 565.011605 
z
" style="fill:#1f77b4;"/>
   </g>
   <g id="patch_91">
    <path clip-path="url(#pa584a13d2a)" d="M 414.530769 768.96 
L 415.961538 768.96 
L 415.961538 559.58041 
L 414.530769 559.58041 
z
" style="fill:#1f77b4;"/>
   </g>
   <g id="patch_92">
    <path clip-path="url(#pa584a13d2a)" d="M 417.392308 768.96 
L 418.823077 768.96 
L 418.823077 555.427997 
L 417.392308 555.427997 
z
" style="fill:#1f77b4;"/>
   </g>
   <g id="patch_93">
    <path clip-path="url(#pa584a13d2a)" d="M 420.253846 768.96 
L 421.684615 768.96 
L 421.684615 554.276412 
L 420.253846 554.276412 
z
" style="fill:#1f77b4;"/>
   </g>
   <g id="patch_94">
    <path clip-path="url(#pa584a13d2a)" d="M 423.115385 768.96 
L 424.546154 768.96 
L 424.546154 550.337935 
L 423.115385 550.337935 
z
" style="fill:#1f77b4;"/>
   </g>
   <g id="patch_95">
    <path clip-path="url(#pa584a13d2a)" d="M 425.976923 768.96 
L 427.407692 768.96 
L 427.407692 544.325002 
L 425.976923 544.325002 
z
" style="fill:#1f77b4;"/>
   </g>
   <g id="patch_96">
    <path clip-path="url(#pa584a13d2a)" d="M 428.838462 768.96 
L 430.269231 768.96 
L 430.269231 537.65762 
L 428.838462 537.65762 
z
" style="fill:#1f77b4;"/>
   </g>
   <g id="patch_97">
    <path clip-path="url(#pa584a13d2a)" d="M 431.7 768.96 
L 433.130769 768.96 
L 433.130769 529.67816 
L 431.7 529.67816 
z
" style="fill:#1f77b4;"/>
   </g>
   <g id="patch_98">
    <path clip-path="url(#pa584a13d2a)" d="M 434.561538 768.96 
L 435.992308 768.96 
L 435.992308 520.253334 
L 434.561538 520.253334 
z
" style="fill:#1f77b4;"/>
   </g>
   <g id="patch_99">
    <path clip-path="url(#pa584a13d2a)" d="M 437.423077 768.96 
L 438.853846 768.96 
L 438.853846 514.017379 
L 437.423077 514.017379 
z
" style="fill:#1f77b4;"/>
   </g>
   <g id="patch_100">
    <path clip-path="url(#pa584a13d2a)" d="M 440.284615 768.96 
L 441.715385 768.96 
L 441.715385 511.008213 
L 440.284615 511.008213 
z
" style="fill:#1f77b4;"/>
   </g>
   <g id="patch_101">
    <path clip-path="url(#pa584a13d2a)" d="M 443.146154 768.96 
L 444.576923 768.96 
L 444.576923 505.85832 
L 443.146154 505.85832 
z
" style="fill:#1f77b4;"/>
   </g>
   <g id="patch_102">
    <path clip-path="url(#pa584a13d2a)" d="M 446.007692 768.96 
L 447.438462 768.96 
L 447.438462 499.46508 
L 446.007692 499.46508 
z
" style="fill:#1f77b4;"/>
   </g>
   <g id="patch_103">
    <path clip-path="url(#pa584a13d2a)" d="M 448.869231 768.96 
L 450.3 768.96 
L 450.3 493.949977 
L 448.869231 493.949977 
z
" style="fill:#1f77b4;"/>
   </g>
   <g id="patch_104">
    <path clip-path="url(#pa584a13d2a)" d="M 451.730769 768.96 
L 453.161538 768.96 
L 453.161538 486.439088 
L 451.730769 486.439088 
z
" style="fill:#1f77b4;"/>
   </g>
   <g id="patch_105">
    <path clip-path="url(#pa584a13d2a)" d="M 454.592308 768.96 
L 456.023077 768.96 
L 456.023077 479.123885 
L 454.592308 479.123885 
z
" style="fill:#1f77b4;"/>
   </g>
   <g id="patch_106">
    <path clip-path="url(#pa584a13d2a)" d="M 457.453846 768.96 
L 458.884615 768.96 
L 458.884615 474.05675 
L 457.453846 474.05675 
z
" style="fill:#1f77b4;"/>
   </g>
   <g id="patch_107">
    <path clip-path="url(#pa584a13d2a)" d="M 460.315385 768.96 
L 461.746154 768.96 
L 461.746154 471.092344 
L 460.315385 471.092344 
z
" style="fill:#1f77b4;"/>
   </g>
   <g id="patch_108">
    <path clip-path="url(#pa584a13d2a)" d="M 463.176923 768.96 
L 464.607692 768.96 
L 464.607692 466.863746 
L 463.176923 466.863746 
z
" style="fill:#1f77b4;"/>
   </g>
   <g id="patch_109">
    <path clip-path="url(#pa584a13d2a)" d="M 466.038462 768.96 
L 467.469231 768.96 
L 467.469231 460.098187 
L 466.038462 460.098187 
z
" style="fill:#1f77b4;"/>
   </g>
   <g id="patch_110">
    <path clip-path="url(#pa584a13d2a)" d="M 468.9 768.96 
L 470.330769 768.96 
L 470.330769 454.117027 
L 468.9 454.117027 
z
" style="fill:#1f77b4;"/>
   </g>
   <g id="patch_111">
    <path clip-path="url(#pa584a13d2a)" d="M 471.761538 768.96 
L 473.192308 768.96 
L 473.192308 447.836339 
L 471.761538 447.836339 
z
" style="fill:#1f77b4;"/>
   </g>
   <g id="patch_112">
    <path clip-path="url(#pa584a13d2a)" d="M 474.623077 768.96 
L 476.053846 768.96 
L 476.053846 442.081914 
L 474.623077 442.081914 
z
" style="fill:#1f77b4;"/>
   </g>
   <g id="patch_113">
    <path clip-path="url(#pa584a13d2a)" d="M 477.484615 768.96 
L 478.915385 768.96 
L 478.915385 438.316195 
L 477.484615 438.316195 
z
" style="fill:#1f77b4;"/>
   </g>
   <g id="patch_114">
    <path clip-path="url(#pa584a13d2a)" d="M 480.346154 768.96 
L 481.776923 768.96 
L 481.776923 436.761776 
L 480.346154 436.761776 
z
" style="fill:#1f77b4;"/>
   </g>
   <g id="patch_115">
    <path clip-path="url(#pa584a13d2a)" d="M 483.207692 768.96 
L 484.638462 768.96 
L 484.638462 433.183912 
L 483.207692 433.183912 
z
" style="fill:#1f77b4;"/>
   </g>
   <g id="patch_116">
    <path clip-path="url(#pa584a13d2a)" d="M 486.069231 768.96 
L 487.5 768.96 
L 487.5 428.083482 
L 486.069231 428.083482 
z
" style="fill:#1f77b4;"/>
   </g>
   <g id="patch_117">
    <path clip-path="url(#pa584a13d2a)" d="M 488.930769 768.96 
L 490.361538 768.96 
L 490.361538 422.779671 
L 488.930769 422.779671 
z
" style="fill:#1f77b4;"/>
   </g>
   <g id="patch_118">
    <path clip-path="url(#pa584a13d2a)" d="M 491.792308 768.96 
L 493.223077 768.96 
L 493.223077 417.646212 
L 491.792308 417.646212 
z
" style="fill:#1f77b4;"/>
   </g>
   <g id="patch_119">
    <path clip-path="url(#pa584a13d2a)" d="M 494.653846 768.96 
L 496.084615 768.96 
L 496.084615 413.222571 
L 494.653846 413.222571 
z
" style="fill:#1f77b4;"/>
   </g>
   <g id="patch_120">
    <path clip-path="url(#pa584a13d2a)" d="M 497.515385 768.96 
L 498.946154 768.96 
L 498.946154 411.253185 
L 497.515385 411.253185 
z
" style="fill:#1f77b4;"/>
   </g>
   <g id="patch_121">
    <path clip-path="url(#pa584a13d2a)" d="M 500.376923 768.96 
L 501.807692 768.96 
L 501.807692 410.612899 
L 500.376923 410.612899 
z
" style="fill:#1f77b4;"/>
   </g>
   <g id="patch_122">
    <path clip-path="url(#pa584a13d2a)" d="M 503.238462 768.96 
L 504.669231 768.96 
L 504.669231 408.425649 
L 503.238462 408.425649 
z
" style="fill:#1f77b4;"/>
   </g>
   <g id="patch_123">
    <path clip-path="url(#pa584a13d2a)" d="M 506.1 768.96 
L 507.530769 768.96 
L 507.530769 402.710372 
L 506.1 402.710372 
z
" style="fill:#1f77b4;"/>
   </g>
   <g id="patch_124">
    <path clip-path="url(#pa584a13d2a)" d="M 508.961538 768.96 
L 510.392308 768.96 
L 510.392308 397.180199 
L 508.961538 397.180199 
z
" style="fill:#1f77b4;"/>
   </g>
   <g id="patch_125">
    <path clip-path="url(#pa584a13d2a)" d="M 511.823077 768.96 
L 513.253846 768.96 
L 513.253846 393.021559 
L 511.823077 393.021559 
z
" style="fill:#1f77b4;"/>
   </g>
   <g id="patch_126">
    <path clip-path="url(#pa584a13d2a)" d="M 514.684615 768.96 
L 516.115385 768.96 
L 516.115385 387.250353 
L 514.684615 387.250353 
z
" style="fill:#1f77b4;"/>
   </g>
   <g id="patch_127">
    <path clip-path="url(#pa584a13d2a)" d="M 517.546154 768.96 
L 518.976923 768.96 
L 518.976923 383.289376 
L 517.546154 383.289376 
z
" style="fill:#1f77b4;"/>
   </g>
   <g id="patch_128">
    <path clip-path="url(#pa584a13d2a)" d="M 520.407692 768.96 
L 521.838462 768.96 
L 521.838462 379.607244 
L 520.407692 379.607244 
z
" style="fill:#1f77b4;"/>
   </g>
   <g id="patch_129">
    <path clip-path="url(#pa584a13d2a)" d="M 523.269231 768.96 
L 524.7 768.96 
L 524.7 376.259965 
L 523.269231 376.259965 
z
" style="fill:#1f77b4;"/>
   </g>
   <g id="patch_130">
    <path clip-path="url(#pa584a13d2a)" d="M 526.130769 768.96 
L 527.561538 768.96 
L 527.561538 372.002079 
L 526.130769 372.002079 
z
" style="fill:#1f77b4;"/>
   </g>
   <g id="patch_131">
    <path clip-path="url(#pa584a13d2a)" d="M 528.992308 768.96 
L 530.423077 768.96 
L 530.423077 368.128457 
L 528.992308 368.128457 
z
" style="fill:#1f77b4;"/>
   </g>
   <g id="patch_132">
    <path clip-path="url(#pa584a13d2a)" d="M 531.853846 768.96 
L 533.284615 768.96 
L 533.284615 364.115051 
L 531.853846 364.115051 
z
" style="fill:#1f77b4;"/>
   </g>
   <g id="patch_133">
    <path clip-path="url(#pa584a13d2a)" d="M 534.715385 768.96 
L 536.146154 768.96 
L 536.146154 358.291604 
L 534.715385 358.291604 
z
" style="fill:#1f77b4;"/>
   </g>
   <g id="patch_134">
    <path clip-path="url(#pa584a13d2a)" d="M 537.576923 768.96 
L 539.007692 768.96 
L 539.007692 355.090387 
L 537.576923 355.090387 
z
" style="fill:#1f77b4;"/>
   </g>
   <g id="patch_135">
    <path clip-path="url(#pa584a13d2a)" d="M 540.438462 768.96 
L 541.869231 768.96 
L 541.869231 353.815533 
L 540.438462 353.815533 
z
" style="fill:#1f77b4;"/>
   </g>
   <g id="patch_136">
    <path clip-path="url(#pa584a13d2a)" d="M 543.3 768.96 
L 544.730769 768.96 
L 544.730769 351.558165 
L 543.3 351.558165 
z
" style="fill:#1f77b4;"/>
   </g>
   <g id="patch_137">
    <path clip-path="url(#pa584a13d2a)" d="M 546.161538 768.96 
L 547.592308 768.96 
L 547.592308 347.375422 
L 546.161538 347.375422 
z
" style="fill:#1f77b4;"/>
   </g>
   <g id="patch_138">
    <path clip-path="url(#pa584a13d2a)" d="M 549.023077 768.96 
L 550.453846 768.96 
L 550.453846 343.669587 
L 549.023077 343.669587 
z
" style="fill:#1f77b4;"/>
   </g>
   <g id="patch_139">
    <path clip-path="url(#pa584a13d2a)" d="M 551.884615 768.96 
L 553.315385 768.96 
L 553.315385 338.335126 
L 551.884615 338.335126 
z
" style="fill:#1f77b4;"/>
   </g>
   <g id="patch_140">
    <path clip-path="url(#pa584a13d2a)" d="M 554.746154 768.96 
L 556.176923 768.96 
L 556.176923 334.868773 
L 554.746154 334.868773 
z
" style="fill:#1f77b4;"/>
   </g>
   <g id="patch_141">
    <path clip-path="url(#pa584a13d2a)" d="M 557.607692 768.96 
L 559.038462 768.96 
L 559.038462 332.136287 
L 557.607692 332.136287 
z
" style="fill:#1f77b4;"/>
   </g>
   <g id="patch_142">
    <path clip-path="url(#pa584a13d2a)" d="M 560.469231 768.96 
L 561.9 768.96 
L 561.9 330.893179 
L 560.469231 330.893179 
z
" style="fill:#1f77b4;"/>
   </g>
   <g id="patch_143">
    <path clip-path="url(#pa584a13d2a)" d="M 563.330769 768.96 
L 564.761538 768.96 
L 564.761538 328.80464 
L 563.330769 328.80464 
z
" style="fill:#1f77b4;"/>
   </g>
   <g id="patch_144">
    <path clip-path="url(#pa584a13d2a)" d="M 566.192308 768.96 
L 567.623077 768.96 
L 567.623077 326.253357 
L 566.192308 326.253357 
z
" style="fill:#1f77b4;"/>
   </g>
   <g id="patch_145">
    <path clip-path="url(#pa584a13d2a)" d="M 569.053846 768.96 
L 570.484615 768.96 
L 570.484615 323.72655 
L 569.053846 323.72655 
z
" style="fill:#1f77b4;"/>
   </g>
   <g id="patch_146">
    <path clip-path="url(#pa584a13d2a)" d="M 571.915385 768.96 
L 573.346154 768.96 
L 573.346154 321.01456 
L 571.915385 321.01456 
z
" style="fill:#1f77b4;"/>
   </g>
   <g id="patch_147">
    <path clip-path="url(#pa584a13d2a)" d="M 574.776923 768.96 
L 576.207692 768.96 
L 576.207692 318.498709 
L 574.776923 318.498709 
z
" style="fill:#1f77b4;"/>
   </g>
   <g id="patch_148">
    <path clip-path="url(#pa584a13d2a)" d="M 577.638462 768.96 
L 579.069231 768.96 
L 579.069231 316.778346 
L 577.638462 316.778346 
z
" style="fill:#1f77b4;"/>
   </g>
   <g id="patch_149">
    <path clip-path="url(#pa584a13d2a)" d="M 580.5 768.96 
L 581.930769 768.96 
L 581.930769 315.813014 
L 580.5 315.813014 
z
" style="fill:#1f77b4;"/>
   </g>
   <g id="patch_150">
    <path clip-path="url(#pa584a13d2a)" d="M 583.361538 768.96 
L 584.792308 768.96 
L 584.792308 315.114928 
L 583.361538 315.114928 
z
" style="fill:#1f77b4;"/>
   </g>
   <g id="patch_151">
    <path clip-path="url(#pa584a13d2a)" d="M 586.223077 768.96 
L 587.653846 768.96 
L 587.653846 313.612403 
L 586.223077 313.612403 
z
" style="fill:#1f77b4;"/>
   </g>
   <g id="patch_152">
    <path clip-path="url(#pa584a13d2a)" d="M 589.084615 768.96 
L 590.515385 768.96 
L 590.515385 312.043874 
L 589.084615 312.043874 
z
" style="fill:#1f77b4;"/>
   </g>
   <g id="patch_153">
    <path clip-path="url(#pa584a13d2a)" d="M 591.946154 768.96 
L 593.376923 768.96 
L 593.376923 309.619012 
L 591.946154 309.619012 
z
" style="fill:#1f77b4;"/>
   </g>
   <g id="patch_154">
    <path clip-path="url(#pa584a13d2a)" d="M 594.807692 768.96 
L 596.238462 768.96 
L 596.238462 306.996995 
L 594.807692 306.996995 
z
" style="fill:#1f77b4;"/>
   </g>
   <g id="patch_155">
    <path clip-path="url(#pa584a13d2a)" d="M 597.669231 768.96 
L 599.1 768.96 
L 599.1 304.731209 
L 597.669231 304.731209 
z
" style="fill:#1f77b4;"/>
   </g>
   <g id="patch_156">
    <path clip-path="url(#pa584a13d2a)" d="M 600.530769 768.96 
L 601.961538 768.96 
L 601.961538 303.148972 
L 600.530769 303.148972 
z
" style="fill:#1f77b4;"/>
   </g>
   <g id="patch_157">
    <path clip-path="url(#pa584a13d2a)" d="M 603.392308 768.96 
L 604.823077 768.96 
L 604.823077 300.975617 
L 603.392308 300.975617 
z
" style="fill:#1f77b4;"/>
   </g>
   <g id="patch_158">
    <path clip-path="url(#pa584a13d2a)" d="M 606.253846 768.96 
L 607.684615 768.96 
L 607.684615 298.520907 
L 606.253846 298.520907 
z
" style="fill:#1f77b4;"/>
   </g>
   <g id="patch_159">
    <path clip-path="url(#pa584a13d2a)" d="M 609.115385 768.96 
L 610.546154 768.96 
L 610.546154 295.560883 
L 609.115385 295.560883 
z
" style="fill:#1f77b4;"/>
   </g>
   <g id="patch_160">
    <path clip-path="url(#pa584a13d2a)" d="M 611.976923 768.96 
L 613.407692 768.96 
L 613.407692 293.525788 
L 611.976923 293.525788 
z
" style="fill:#1f77b4;"/>
   </g>
   <g id="patch_161">
    <path clip-path="url(#pa584a13d2a)" d="M 614.838462 768.96 
L 616.269231 768.96 
L 616.269231 291.59515 
L 614.838462 291.59515 
z
" style="fill:#1f77b4;"/>
   </g>
   <g id="patch_162">
    <path clip-path="url(#pa584a13d2a)" d="M 617.7 768.96 
L 619.130769 768.96 
L 619.130769 290.425233 
L 617.7 290.425233 
z
" style="fill:#1f77b4;"/>
   </g>
   <g id="patch_163">
    <path clip-path="url(#pa584a13d2a)" d="M 620.561538 768.96 
L 621.992308 768.96 
L 621.992308 289.276427 
L 620.561538 289.276427 
z
" style="fill:#1f77b4;"/>
   </g>
   <g id="patch_164">
    <path clip-path="url(#pa584a13d2a)" d="M 623.423077 768.96 
L 624.853846 768.96 
L 624.853846 285.824906 
L 623.423077 285.824906 
z
" style="fill:#1f77b4;"/>
   </g>
   <g id="patch_165">
    <path clip-path="url(#pa584a13d2a)" d="M 626.284615 768.96 
L 627.715385 768.96 
L 627.715385 283.169593 
L 626.284615 283.169593 
z
" style="fill:#1f77b4;"/>
   </g>
   <g id="patch_166">
    <path clip-path="url(#pa584a13d2a)" d="M 629.146154 768.96 
L 630.576923 768.96 
L 630.576923 281.338253 
L 629.146154 281.338253 
z
" style="fill:#1f77b4;"/>
   </g>
   <g id="patch_167">
    <path clip-path="url(#pa584a13d2a)" d="M 632.007692 768.96 
L 633.438462 768.96 
L 633.438462 278.918094 
L 632.007692 278.918094 
z
" style="fill:#1f77b4;"/>
   </g>
   <g id="patch_168">
    <path clip-path="url(#pa584a13d2a)" d="M 634.869231 768.96 
L 636.3 768.96 
L 636.3 277.772175 
L 634.869231 277.772175 
z
" style="fill:#1f77b4;"/>
   </g>
   <g id="patch_169">
    <path clip-path="url(#pa584a13d2a)" d="M 637.730769 768.96 
L 639.161538 768.96 
L 639.161538 275.963228 
L 637.730769 275.963228 
z
" style="fill:#1f77b4;"/>
   </g>
   <g id="patch_170">
    <path clip-path="url(#pa584a13d2a)" d="M 640.592308 768.96 
L 642.023077 768.96 
L 642.023077 275.197188 
L 640.592308 275.197188 
z
" style="fill:#1f77b4;"/>
   </g>
   <g id="patch_171">
    <path clip-path="url(#pa584a13d2a)" d="M 643.453846 768.96 
L 644.884615 768.96 
L 644.884615 274.22432 
L 643.453846 274.22432 
z
" style="fill:#1f77b4;"/>
   </g>
   <g id="patch_172">
    <path clip-path="url(#pa584a13d2a)" d="M 646.315385 768.96 
L 647.746154 768.96 
L 647.746154 273.044436 
L 646.315385 273.044436 
z
" style="fill:#1f77b4;"/>
   </g>
   <g id="patch_173">
    <path clip-path="url(#pa584a13d2a)" d="M 649.176923 768.96 
L 650.607692 768.96 
L 650.607692 271.639366 
L 649.176923 271.639366 
z
" style="fill:#1f77b4;"/>
   </g>
   <g id="patch_174">
    <path clip-path="url(#pa584a13d2a)" d="M 652.038462 768.96 
L 653.469231 768.96 
L 653.469231 269.927314 
L 652.038462 269.927314 
z
" style="fill:#1f77b4;"/>
   </g>
   <g id="patch_175">
    <path clip-path="url(#pa584a13d2a)" d="M 654.9 768.96 
L 656.330769 768.96 
L 656.330769 265.941004 
L 654.9 265.941004 
z
" style="fill:#1f77b4;"/>
   </g>
   <g id="patch_176">
    <path clip-path="url(#pa584a13d2a)" d="M 657.761538 768.96 
L 659.192308 768.96 
L 659.192308 261.314756 
L 657.761538 261.314756 
z
" style="fill:#1f77b4;"/>
   </g>
   <g id="patch_177">
    <path clip-path="url(#pa584a13d2a)" d="M 660.623077 768.96 
L 662.053846 768.96 
L 662.053846 260.929986 
L 660.623077 260.929986 
z
" style="fill:#1f77b4;"/>
   </g>
   <g id="patch_178">
    <path clip-path="url(#pa584a13d2a)" d="M 663.484615 768.96 
L 664.915385 768.96 
L 664.915385 259.958962 
L 663.484615 259.958962 
z
" style="fill:#1f77b4;"/>
   </g>
   <g id="patch_179">
    <path clip-path="url(#pa584a13d2a)" d="M 666.346154 768.96 
L 667.776923 768.96 
L 667.776923 258.749631 
L 666.346154 258.749631 
z
" style="fill:#1f77b4;"/>
   </g>
   <g id="patch_180">
    <path clip-path="url(#pa584a13d2a)" d="M 669.207692 768.96 
L 670.638462 768.96 
L 670.638462 257.58749 
L 669.207692 257.58749 
z
" style="fill:#1f77b4;"/>
   </g>
   <g id="patch_181">
    <path clip-path="url(#pa584a13d2a)" d="M 672.069231 768.96 
L 673.5 768.96 
L 673.5 256.534135 
L 672.069231 256.534135 
z
" style="fill:#1f77b4;"/>
   </g>
   <g id="patch_182">
    <path clip-path="url(#pa584a13d2a)" d="M 674.930769 768.96 
L 676.361538 768.96 
L 676.361538 255.484789 
L 674.930769 255.484789 
z
" style="fill:#1f77b4;"/>
   </g>
   <g id="patch_183">
    <path clip-path="url(#pa584a13d2a)" d="M 677.792308 768.96 
L 679.223077 768.96 
L 679.223077 254.70814 
L 677.792308 254.70814 
z
" style="fill:#1f77b4;"/>
   </g>
   <g id="patch_184">
    <path clip-path="url(#pa584a13d2a)" d="M 680.653846 768.96 
L 682.084615 768.96 
L 682.084615 254.329623 
L 680.653846 254.329623 
z
" style="fill:#1f77b4;"/>
   </g>
   <g id="patch_185">
    <path clip-path="url(#pa584a13d2a)" d="M 683.515385 768.96 
L 684.946154 768.96 
L 684.946154 254.262471 
L 683.515385 254.262471 
z
" style="fill:#1f77b4;"/>
   </g>
   <g id="patch_186">
    <path clip-path="url(#pa584a13d2a)" d="M 686.376923 768.96 
L 687.807692 768.96 
L 687.807692 253.651472 
L 686.376923 253.651472 
z
" style="fill:#1f77b4;"/>
   </g>
   <g id="patch_187">
    <path clip-path="url(#pa584a13d2a)" d="M 689.238462 768.96 
L 690.669231 768.96 
L 690.669231 252.562737 
L 689.238462 252.562737 
z
" style="fill:#1f77b4;"/>
   </g>
   <g id="patch_188">
    <path clip-path="url(#pa584a13d2a)" d="M 692.1 768.96 
L 693.530769 768.96 
L 693.530769 251.469646 
L 692.1 251.469646 
z
" style="fill:#1f77b4;"/>
   </g>
   <g id="patch_189">
    <path clip-path="url(#pa584a13d2a)" d="M 694.961538 768.96 
L 696.392308 768.96 
L 696.392308 250.498275 
L 694.961538 250.498275 
z
" style="fill:#1f77b4;"/>
   </g>
   <g id="patch_190">
    <path clip-path="url(#pa584a13d2a)" d="M 697.823077 768.96 
L 699.253846 768.96 
L 699.253846 249.695091 
L 697.823077 249.695091 
z
" style="fill:#1f77b4;"/>
   </g>
   <g id="patch_191">
    <path clip-path="url(#pa584a13d2a)" d="M 700.684615 768.96 
L 702.115385 768.96 
L 702.115385 249.147717 
L 700.684615 249.147717 
z
" style="fill:#1f77b4;"/>
   </g>
   <g id="patch_192">
    <path clip-path="url(#pa584a13d2a)" d="M 703.546154 768.96 
L 704.976923 768.96 
L 704.976923 248.117718 
L 703.546154 248.117718 
z
" style="fill:#1f77b4;"/>
   </g>
   <g id="patch_193">
    <path clip-path="url(#pa584a13d2a)" d="M 706.407692 768.96 
L 707.838462 768.96 
L 707.838462 247.261384 
L 706.407692 247.261384 
z
" style="fill:#1f77b4;"/>
   </g>
   <g id="patch_194">
    <path clip-path="url(#pa584a13d2a)" d="M 709.269231 768.96 
L 710.7 768.96 
L 710.7 246.441553 
L 709.269231 246.441553 
z
" style="fill:#1f77b4;"/>
   </g>
   <g id="patch_195">
    <path clip-path="url(#pa584a13d2a)" d="M 712.130769 768.96 
L 713.561538 768.96 
L 713.561538 245.630246 
L 712.130769 245.630246 
z
" style="fill:#1f77b4;"/>
   </g>
   <g id="patch_196">
    <path clip-path="url(#pa584a13d2a)" d="M 714.992308 768.96 
L 716.423077 768.96 
L 716.423077 244.810174 
L 714.992308 244.810174 
z
" style="fill:#1f77b4;"/>
   </g>
   <g id="patch_197">
    <path clip-path="url(#pa584a13d2a)" d="M 717.853846 768.96 
L 719.284615 768.96 
L 719.284615 244.133706 
L 717.853846 244.133706 
z
" style="fill:#1f77b4;"/>
   </g>
   <g id="patch_198">
    <path clip-path="url(#pa584a13d2a)" d="M 720.715385 768.96 
L 722.146154 768.96 
L 722.146154 243.67374 
L 720.715385 243.67374 
z
" style="fill:#1f77b4;"/>
   </g>
   <g id="patch_199">
    <path clip-path="url(#pa584a13d2a)" d="M 723.576923 768.96 
L 725.007692 768.96 
L 725.007692 242.982763 
L 723.576923 242.982763 
z
" style="fill:#1f77b4;"/>
   </g>
   <g id="patch_200">
    <path clip-path="url(#pa584a13d2a)" d="M 726.438462 768.96 
L 727.869231 768.96 
L 727.869231 242.060265 
L 726.438462 242.060265 
z
" style="fill:#1f77b4;"/>
   </g>
   <g id="patch_201">
    <path clip-path="url(#pa584a13d2a)" d="M 729.3 768.96 
L 730.730769 768.96 
L 730.730769 241.195808 
L 729.3 241.195808 
z
" style="fill:#1f77b4;"/>
   </g>
   <g id="patch_202">
    <path clip-path="url(#pa584a13d2a)" d="M 732.161538 768.96 
L 733.592308 768.96 
L 733.592308 240.569658 
L 732.161538 240.569658 
z
" style="fill:#1f77b4;"/>
   </g>
   <g id="patch_203">
    <path clip-path="url(#pa584a13d2a)" d="M 735.023077 768.96 
L 736.453846 768.96 
L 736.453846 239.922104 
L 735.023077 239.922104 
z
" style="fill:#1f77b4;"/>
   </g>
   <g id="patch_204">
    <path clip-path="url(#pa584a13d2a)" d="M 737.884615 768.96 
L 739.315385 768.96 
L 739.315385 239.523385 
L 737.884615 239.523385 
z
" style="fill:#1f77b4;"/>
   </g>
   <g id="patch_205">
    <path clip-path="url(#pa584a13d2a)" d="M 740.746154 768.96 
L 742.176923 768.96 
L 742.176923 239.292319 
L 740.746154 239.292319 
z
" style="fill:#1f77b4;"/>
   </g>
   <g id="patch_206">
    <path clip-path="url(#pa584a13d2a)" d="M 743.607692 768.96 
L 745.038462 768.96 
L 745.038462 238.900281 
L 743.607692 238.900281 
z
" style="fill:#1f77b4;"/>
   </g>
   <g id="patch_207">
    <path clip-path="url(#pa584a13d2a)" d="M 746.469231 768.96 
L 747.9 768.96 
L 747.9 238.02134 
L 746.469231 238.02134 
z
" style="fill:#1f77b4;"/>
   </g>
   <g id="patch_208">
    <path clip-path="url(#pa584a13d2a)" d="M 749.330769 768.96 
L 750.761538 768.96 
L 750.761538 236.558337 
L 749.330769 236.558337 
z
" style="fill:#1f77b4;"/>
   </g>
   <g id="patch_209">
    <path clip-path="url(#pa584a13d2a)" d="M 752.192308 768.96 
L 753.623077 768.96 
L 753.623077 235.78722 
L 752.192308 235.78722 
z
" style="fill:#1f77b4;"/>
   </g>
   <g id="patch_210">
    <path clip-path="url(#pa584a13d2a)" d="M 755.053846 768.96 
L 756.484615 768.96 
L 756.484615 233.963737 
L 755.053846 233.963737 
z
" style="fill:#1f77b4;"/>
   </g>
   <g id="patch_211">
    <path clip-path="url(#pa584a13d2a)" d="M 757.915385 768.96 
L 759.346154 768.96 
L 759.346154 233.365965 
L 757.915385 233.365965 
z
" style="fill:#1f77b4;"/>
   </g>
   <g id="patch_212">
    <path clip-path="url(#pa584a13d2a)" d="M 760.776923 768.96 
L 762.207692 768.96 
L 762.207692 232.924277 
L 760.776923 232.924277 
z
" style="fill:#1f77b4;"/>
   </g>
   <g id="patch_213">
    <path clip-path="url(#pa584a13d2a)" d="M 763.638462 768.96 
L 765.069231 768.96 
L 765.069231 232.323032 
L 763.638462 232.323032 
z
" style="fill:#1f77b4;"/>
   </g>
   <g id="patch_214">
    <path clip-path="url(#pa584a13d2a)" d="M 766.5 768.96 
L 767.930769 768.96 
L 767.930769 231.502907 
L 766.5 231.502907 
z
" style="fill:#1f77b4;"/>
   </g>
   <g id="patch_215">
    <path clip-path="url(#pa584a13d2a)" d="M 769.361538 768.96 
L 770.792308 768.96 
L 770.792308 230.753461 
L 769.361538 230.753461 
z
" style="fill:#1f77b4;"/>
   </g>
   <g id="patch_216">
    <path clip-path="url(#pa584a13d2a)" d="M 772.223077 768.96 
L 773.653846 768.96 
L 773.653846 229.967407 
L 772.223077 229.967407 
z
" style="fill:#1f77b4;"/>
   </g>
   <g id="patch_217">
    <path clip-path="url(#pa584a13d2a)" d="M 775.084615 768.96 
L 776.515385 768.96 
L 776.515385 229.110619 
L 775.084615 229.110619 
z
" style="fill:#1f77b4;"/>
   </g>
   <g id="patch_218">
    <path clip-path="url(#pa584a13d2a)" d="M 777.946154 768.96 
L 779.376923 768.96 
L 779.376923 227.644436 
L 777.946154 227.644436 
z
" style="fill:#1f77b4;"/>
   </g>
   <g id="patch_219">
    <path clip-path="url(#pa584a13d2a)" d="M 780.807692 768.96 
L 782.238462 768.96 
L 782.238462 227.133484 
L 780.807692 227.133484 
z
" style="fill:#1f77b4;"/>
   </g>
   <g id="patch_220">
    <path clip-path="url(#pa584a13d2a)" d="M 783.669231 768.96 
L 785.1 768.96 
L 785.1 226.549688 
L 783.669231 226.549688 
z
" style="fill:#1f77b4;"/>
   </g>
   <g id="patch_221">
    <path clip-path="url(#pa584a13d2a)" d="M 786.530769 768.96 
L 787.961538 768.96 
L 787.961538 225.981231 
L 786.530769 225.981231 
z
" style="fill:#1f77b4;"/>
   </g>
   <g id="patch_222">
    <path clip-path="url(#pa584a13d2a)" d="M 789.392308 768.96 
L 790.823077 768.96 
L 790.823077 223.775783 
L 789.392308 223.775783 
z
" style="fill:#1f77b4;"/>
   </g>
   <g id="patch_223">
    <path clip-path="url(#pa584a13d2a)" d="M 792.253846 768.96 
L 793.684615 768.96 
L 793.684615 221.854872 
L 792.253846 221.854872 
z
" style="fill:#1f77b4;"/>
   </g>
   <g id="patch_224">
    <path clip-path="url(#pa584a13d2a)" d="M 795.115385 768.96 
L 796.546154 768.96 
L 796.546154 220.261705 
L 795.115385 220.261705 
z
" style="fill:#1f77b4;"/>
   </g>
   <g id="patch_225">
    <path clip-path="url(#pa584a13d2a)" d="M 797.976923 768.96 
L 799.407692 768.96 
L 799.407692 218.019755 
L 797.976923 218.019755 
z
" style="fill:#1f77b4;"/>
   </g>
   <g id="patch_226">
    <path clip-path="url(#pa584a13d2a)" d="M 800.838462 768.96 
L 802.269231 768.96 
L 802.269231 216.493875 
L 800.838462 216.493875 
z
" style="fill:#1f77b4;"/>
   </g>
   <g id="patch_227">
    <path clip-path="url(#pa584a13d2a)" d="M 803.7 768.96 
L 805.130769 768.96 
L 805.130769 215.803298 
L 803.7 215.803298 
z
" style="fill:#1f77b4;"/>
   </g>
   <g id="patch_228">
    <path clip-path="url(#pa584a13d2a)" d="M 806.561538 768.96 
L 807.992308 768.96 
L 807.992308 214.816107 
L 806.561538 214.816107 
z
" style="fill:#1f77b4;"/>
   </g>
   <g id="patch_229">
    <path clip-path="url(#pa584a13d2a)" d="M 809.423077 768.96 
L 810.853846 768.96 
L 810.853846 213.877363 
L 809.423077 213.877363 
z
" style="fill:#1f77b4;"/>
   </g>
   <g id="patch_230">
    <path clip-path="url(#pa584a13d2a)" d="M 812.284615 768.96 
L 813.715385 768.96 
L 813.715385 212.983592 
L 812.284615 212.983592 
z
" style="fill:#1f77b4;"/>
   </g>
   <g id="patch_231">
    <path clip-path="url(#pa584a13d2a)" d="M 815.146154 768.96 
L 816.576923 768.96 
L 816.576923 212.118413 
L 815.146154 212.118413 
z
" style="fill:#1f77b4;"/>
   </g>
   <g id="patch_232">
    <path clip-path="url(#pa584a13d2a)" d="M 818.007692 768.96 
L 819.438462 768.96 
L 819.438462 211.254892 
L 818.007692 211.254892 
z
" style="fill:#1f77b4;"/>
   </g>
   <g id="patch_233">
    <path clip-path="url(#pa584a13d2a)" d="M 820.869231 768.96 
L 822.3 768.96 
L 822.3 210.682105 
L 820.869231 210.682105 
z
" style="fill:#1f77b4;"/>
   </g>
   <g id="patch_234">
    <path clip-path="url(#pa584a13d2a)" d="M 823.730769 768.96 
L 825.161538 768.96 
L 825.161538 209.963069 
L 823.730769 209.963069 
z
" style="fill:#1f77b4;"/>
   </g>
   <g id="patch_235">
    <path clip-path="url(#pa584a13d2a)" d="M 826.592308 768.96 
L 828.023077 768.96 
L 828.023077 208.965911 
L 826.592308 208.965911 
z
" style="fill:#1f77b4;"/>
   </g>
   <g id="patch_236">
    <path clip-path="url(#pa584a13d2a)" d="M 829.453846 768.96 
L 830.884615 768.96 
L 830.884615 208.010412 
L 829.453846 208.010412 
z
" style="fill:#1f77b4;"/>
   </g>
   <g id="patch_237">
    <path clip-path="url(#pa584a13d2a)" d="M 832.315385 768.96 
L 833.746154 768.96 
L 833.746154 206.970765 
L 832.315385 206.970765 
z
" style="fill:#1f77b4;"/>
   </g>
   <g id="patch_238">
    <path clip-path="url(#pa584a13d2a)" d="M 835.176923 768.96 
L 836.607692 768.96 
L 836.607692 205.791416 
L 835.176923 205.791416 
z
" style="fill:#1f77b4;"/>
   </g>
   <g id="patch_239">
    <path clip-path="url(#pa584a13d2a)" d="M 838.038462 768.96 
L 839.469231 768.96 
L 839.469231 204.060498 
L 838.038462 204.060498 
z
" style="fill:#1f77b4;"/>
   </g>
   <g id="patch_240">
    <path clip-path="url(#pa584a13d2a)" d="M 840.9 768.96 
L 842.330769 768.96 
L 842.330769 201.30781 
L 840.9 201.30781 
z
" style="fill:#1f77b4;"/>
   </g>
   <g id="patch_241">
    <path clip-path="url(#pa584a13d2a)" d="M 843.761538 768.96 
L 845.192308 768.96 
L 845.192308 200.084557 
L 843.761538 200.084557 
z
" style="fill:#1f77b4;"/>
   </g>
   <g id="patch_242">
    <path clip-path="url(#pa584a13d2a)" d="M 846.623077 768.96 
L 848.053846 768.96 
L 848.053846 199.087131 
L 846.623077 199.087131 
z
" style="fill:#1f77b4;"/>
   </g>
   <g id="patch_243">
    <path clip-path="url(#pa584a13d2a)" d="M 849.484615 768.96 
L 850.915385 768.96 
L 850.915385 198.16124 
L 849.484615 198.16124 
z
" style="fill:#1f77b4;"/>
   </g>
   <g id="patch_244">
    <path clip-path="url(#pa584a13d2a)" d="M 852.346154 768.96 
L 853.776923 768.96 
L 853.776923 197.298654 
L 852.346154 197.298654 
z
" style="fill:#1f77b4;"/>
   </g>
   <g id="patch_245">
    <path clip-path="url(#pa584a13d2a)" d="M 855.207692 768.96 
L 856.638462 768.96 
L 856.638462 196.432567 
L 855.207692 196.432567 
z
" style="fill:#1f77b4;"/>
   </g>
   <g id="patch_246">
    <path clip-path="url(#pa584a13d2a)" d="M 858.069231 768.96 
L 859.5 768.96 
L 859.5 195.64865 
L 858.069231 195.64865 
z
" style="fill:#1f77b4;"/>
   </g>
   <g id="patch_247">
    <path clip-path="url(#pa584a13d2a)" d="M 860.930769 768.96 
L 862.361538 768.96 
L 862.361538 195.114851 
L 860.930769 195.114851 
z
" style="fill:#1f77b4;"/>
   </g>
   <g id="patch_248">
    <path clip-path="url(#pa584a13d2a)" d="M 863.792308 768.96 
L 865.223077 768.96 
L 865.223077 194.73791 
L 863.792308 194.73791 
z
" style="fill:#1f77b4;"/>
   </g>
   <g id="patch_249">
    <path clip-path="url(#pa584a13d2a)" d="M 866.653846 768.96 
L 868.084615 768.96 
L 868.084615 194.257662 
L 866.653846 194.257662 
z
" style="fill:#1f77b4;"/>
   </g>
   <g id="patch_250">
    <path clip-path="url(#pa584a13d2a)" d="M 869.515385 768.96 
L 870.946154 768.96 
L 870.946154 193.28792 
L 869.515385 193.28792 
z
" style="fill:#1f77b4;"/>
   </g>
   <g id="patch_251">
    <path clip-path="url(#pa584a13d2a)" d="M 872.376923 768.96 
L 873.807692 768.96 
L 873.807692 192.429796 
L 872.376923 192.429796 
z
" style="fill:#1f77b4;"/>
   </g>
   <g id="patch_252">
    <path clip-path="url(#pa584a13d2a)" d="M 875.238462 768.96 
L 876.669231 768.96 
L 876.669231 191.613279 
L 875.238462 191.613279 
z
" style="fill:#1f77b4;"/>
   </g>
   <g id="patch_253">
    <path clip-path="url(#pa584a13d2a)" d="M 878.1 768.96 
L 879.530769 768.96 
L 879.530769 190.884463 
L 878.1 190.884463 
z
" style="fill:#1f77b4;"/>
   </g>
   <g id="patch_254">
    <path clip-path="url(#pa584a13d2a)" d="M 880.961538 768.96 
L 882.392308 768.96 
L 882.392308 190.344918 
L 880.961538 190.344918 
z
" style="fill:#1f77b4;"/>
   </g>
   <g id="patch_255">
    <path clip-path="url(#pa584a13d2a)" d="M 883.823077 768.96 
L 885.253846 768.96 
L 885.253846 189.72919 
L 883.823077 189.72919 
z
" style="fill:#1f77b4;"/>
   </g>
   <g id="patch_256">
    <path clip-path="url(#pa584a13d2a)" d="M 886.684615 768.96 
L 888.115385 768.96 
L 888.115385 188.883732 
L 886.684615 188.883732 
z
" style="fill:#1f77b4;"/>
   </g>
   <g id="patch_257">
    <path clip-path="url(#pa584a13d2a)" d="M 889.546154 768.96 
L 890.976923 768.96 
L 890.976923 188.080068 
L 889.546154 188.080068 
z
" style="fill:#1f77b4;"/>
   </g>
   <g id="patch_258">
    <path clip-path="url(#pa584a13d2a)" d="M 892.407692 768.96 
L 893.838462 768.96 
L 893.838462 187.270952 
L 892.407692 187.270952 
z
" style="fill:#1f77b4;"/>
   </g>
   <g id="patch_259">
    <path clip-path="url(#pa584a13d2a)" d="M 895.269231 768.96 
L 896.7 768.96 
L 896.7 186.43482 
L 895.269231 186.43482 
z
" style="fill:#1f77b4;"/>
   </g>
   <g id="patch_260">
    <path clip-path="url(#pa584a13d2a)" d="M 898.130769 768.96 
L 899.561538 768.96 
L 899.561538 185.626854 
L 898.130769 185.626854 
z
" style="fill:#1f77b4;"/>
   </g>
   <g id="patch_261">
    <path clip-path="url(#pa584a13d2a)" d="M 900.992308 768.96 
L 902.423077 768.96 
L 902.423077 185.047253 
L 900.992308 185.047253 
z
" style="fill:#1f77b4;"/>
   </g>
   <g id="patch_262">
    <path clip-path="url(#pa584a13d2a)" d="M 903.853846 768.96 
L 905.284615 768.96 
L 905.284615 184.493039 
L 903.853846 184.493039 
z
" style="fill:#1f77b4;"/>
   </g>
   <g id="patch_263">
    <path clip-path="url(#pa584a13d2a)" d="M 906.715385 768.96 
L 908.146154 768.96 
L 908.146154 183.551489 
L 906.715385 183.551489 
z
" style="fill:#1f77b4;"/>
   </g>
   <g id="patch_264">
    <path clip-path="url(#pa584a13d2a)" d="M 909.576923 768.96 
L 911.007692 768.96 
L 911.007692 182.862943 
L 909.576923 182.862943 
z
" style="fill:#1f77b4;"/>
   </g>
   <g id="patch_265">
    <path clip-path="url(#pa584a13d2a)" d="M 912.438462 768.96 
L 913.869231 768.96 
L 913.869231 181.857287 
L 912.438462 181.857287 
z
" style="fill:#1f77b4;"/>
   </g>
   <g id="patch_266">
    <path clip-path="url(#pa584a13d2a)" d="M 915.3 768.96 
L 916.730769 768.96 
L 916.730769 180.895428 
L 915.3 180.895428 
z
" style="fill:#1f77b4;"/>
   </g>
   <g id="patch_267">
    <path clip-path="url(#pa584a13d2a)" d="M 918.161538 768.96 
L 919.592308 768.96 
L 919.592308 180.135748 
L 918.161538 180.135748 
z
" style="fill:#1f77b4;"/>
   </g>
   <g id="patch_268">
    <path clip-path="url(#pa584a13d2a)" d="M 921.023077 768.96 
L 922.453846 768.96 
L 922.453846 179.641524 
L 921.023077 179.641524 
z
" style="fill:#1f77b4;"/>
   </g>
   <g id="patch_269">
    <path clip-path="url(#pa584a13d2a)" d="M 923.884615 768.96 
L 925.315385 768.96 
L 925.315385 179.009896 
L 923.884615 179.009896 
z
" style="fill:#1f77b4;"/>
   </g>
   <g id="patch_270">
    <path clip-path="url(#pa584a13d2a)" d="M 926.746154 768.96 
L 928.176923 768.96 
L 928.176923 178.270097 
L 926.746154 178.270097 
z
" style="fill:#1f77b4;"/>
   </g>
   <g id="patch_271">
    <path clip-path="url(#pa584a13d2a)" d="M 929.607692 768.96 
L 931.038462 768.96 
L 931.038462 177.729591 
L 929.607692 177.729591 
z
" style="fill:#1f77b4;"/>
   </g>
   <g id="patch_272">
    <path clip-path="url(#pa584a13d2a)" d="M 932.469231 768.96 
L 933.9 768.96 
L 933.9 177.353345 
L 932.469231 177.353345 
z
" style="fill:#1f77b4;"/>
   </g>
   <g id="patch_273">
    <path clip-path="url(#pa584a13d2a)" d="M 935.330769 768.96 
L 936.761538 768.96 
L 936.761538 176.424675 
L 935.330769 176.424675 
z
" style="fill:#1f77b4;"/>
   </g>
   <g id="patch_274">
    <path clip-path="url(#pa584a13d2a)" d="M 938.192308 768.96 
L 939.623077 768.96 
L 939.623077 175.215932 
L 938.192308 175.215932 
z
" style="fill:#1f77b4;"/>
   </g>
   <g id="patch_275">
    <path clip-path="url(#pa584a13d2a)" d="M 941.053846 768.96 
L 942.484615 768.96 
L 942.484615 174.806818 
L 941.053846 174.806818 
z
" style="fill:#1f77b4;"/>
   </g>
   <g id="patch_276">
    <path clip-path="url(#pa584a13d2a)" d="M 943.915385 768.96 
L 945.346154 768.96 
L 945.346154 174.009246 
L 943.915385 174.009246 
z
" style="fill:#1f77b4;"/>
   </g>
   <g id="patch_277">
    <path clip-path="url(#pa584a13d2a)" d="M 946.776923 768.96 
L 948.207692 768.96 
L 948.207692 173.562454 
L 946.776923 173.562454 
z
" style="fill:#1f77b4;"/>
   </g>
   <g id="patch_278">
    <path clip-path="url(#pa584a13d2a)" d="M 949.638462 768.96 
L 951.069231 768.96 
L 951.069231 172.640117 
L 949.638462 172.640117 
z
" style="fill:#1f77b4;"/>
   </g>
   <g id="patch_279">
    <path clip-path="url(#pa584a13d2a)" d="M 952.5 768.96 
L 953.930769 768.96 
L 953.930769 172.011188 
L 952.5 172.011188 
z
" style="fill:#1f77b4;"/>
   </g>
   <g id="patch_280">
    <path clip-path="url(#pa584a13d2a)" d="M 955.361538 768.96 
L 956.792308 768.96 
L 956.792308 171.397544 
L 955.361538 171.397544 
z
" style="fill:#1f77b4;"/>
   </g>
   <g id="patch_281">
    <path clip-path="url(#pa584a13d2a)" d="M 958.223077 768.96 
L 959.653846 768.96 
L 959.653846 170.972263 
L 958.223077 170.972263 
z
" style="fill:#1f77b4;"/>
   </g>
   <g id="patch_282">
    <path clip-path="url(#pa584a13d2a)" d="M 961.084615 768.96 
L 962.515385 768.96 
L 962.515385 170.667178 
L 961.084615 170.667178 
z
" style="fill:#1f77b4;"/>
   </g>
   <g id="patch_283">
    <path clip-path="url(#pa584a13d2a)" d="M 963.946154 768.96 
L 965.376923 768.96 
L 965.376923 170.244996 
L 963.946154 170.244996 
z
" style="fill:#1f77b4;"/>
   </g>
   <g id="patch_284">
    <path clip-path="url(#pa584a13d2a)" d="M 966.807692 768.96 
L 968.238462 768.96 
L 968.238462 169.612674 
L 966.807692 169.612674 
z
" style="fill:#1f77b4;"/>
   </g>
   <g id="patch_285">
    <path clip-path="url(#pa584a13d2a)" d="M 969.669231 768.96 
L 971.1 768.96 
L 971.1 168.924822 
L 969.669231 168.924822 
z
" style="fill:#1f77b4;"/>
   </g>
   <g id="patch_286">
    <path clip-path="url(#pa584a13d2a)" d="M 972.530769 768.96 
L 973.961538 768.96 
L 973.961538 168.422823 
L 972.530769 168.422823 
z
" style="fill:#1f77b4;"/>
   </g>
   <g id="patch_287">
    <path clip-path="url(#pa584a13d2a)" d="M 975.392308 768.96 
L 976.823077 768.96 
L 976.823077 167.58156 
L 975.392308 167.58156 
z
" style="fill:#1f77b4;"/>
   </g>
   <g id="patch_288">
    <path clip-path="url(#pa584a13d2a)" d="M 978.253846 768.96 
L 979.684615 768.96 
L 979.684615 167.092013 
L 978.253846 167.092013 
z
" style="fill:#1f77b4;"/>
   </g>
   <g id="patch_289">
    <path clip-path="url(#pa584a13d2a)" d="M 981.115385 768.96 
L 982.546154 768.96 
L 982.546154 166.805526 
L 981.115385 166.805526 
z
" style="fill:#1f77b4;"/>
   </g>
   <g id="patch_290">
    <path clip-path="url(#pa584a13d2a)" d="M 983.976923 768.96 
L 985.407692 768.96 
L 985.407692 166.338372 
L 983.976923 166.338372 
z
" style="fill:#1f77b4;"/>
   </g>
   <g id="patch_291">
    <path clip-path="url(#pa584a13d2a)" d="M 986.838462 768.96 
L 988.269231 768.96 
L 988.269231 165.786269 
L 986.838462 165.786269 
z
" style="fill:#1f77b4;"/>
   </g>
   <g id="patch_292">
    <path clip-path="url(#pa584a13d2a)" d="M 989.7 768.96 
L 991.130769 768.96 
L 991.130769 165.220911 
L 989.7 165.220911 
z
" style="fill:#1f77b4;"/>
   </g>
   <g id="patch_293">
    <path clip-path="url(#pa584a13d2a)" d="M 992.561538 768.96 
L 993.992308 768.96 
L 993.992308 164.58295 
L 992.561538 164.58295 
z
" style="fill:#1f77b4;"/>
   </g>
   <g id="patch_294">
    <path clip-path="url(#pa584a13d2a)" d="M 995.423077 768.96 
L 996.853846 768.96 
L 996.853846 164.01973 
L 995.423077 164.01973 
z
" style="fill:#1f77b4;"/>
   </g>
   <g id="patch_295">
    <path clip-path="url(#pa584a13d2a)" d="M 998.284615 768.96 
L 999.715385 768.96 
L 999.715385 163.61091 
L 998.284615 163.61091 
z
" style="fill:#1f77b4;"/>
   </g>
   <g id="patch_296">
    <path clip-path="url(#pa584a13d2a)" d="M 1001.146154 768.96 
L 1002.576923 768.96 
L 1002.576923 163.265902 
L 1001.146154 163.265902 
z
" style="fill:#1f77b4;"/>
   </g>
   <g id="patch_297">
    <path clip-path="url(#pa584a13d2a)" d="M 1004.007692 768.96 
L 1005.438462 768.96 
L 1005.438462 162.807566 
L 1004.007692 162.807566 
z
" style="fill:#1f77b4;"/>
   </g>
   <g id="patch_298">
    <path clip-path="url(#pa584a13d2a)" d="M 1006.869231 768.96 
L 1008.3 768.96 
L 1008.3 162.124124 
L 1006.869231 162.124124 
z
" style="fill:#1f77b4;"/>
   </g>
   <g id="patch_299">
    <path clip-path="url(#pa584a13d2a)" d="M 1009.730769 768.96 
L 1011.161538 768.96 
L 1011.161538 161.568012 
L 1009.730769 161.568012 
z
" style="fill:#1f77b4;"/>
   </g>
   <g id="patch_300">
    <path clip-path="url(#pa584a13d2a)" d="M 1012.592308 768.96 
L 1014.023077 768.96 
L 1014.023077 161.060855 
L 1012.592308 161.060855 
z
" style="fill:#1f77b4;"/>
   </g>
   <g id="patch_301">
    <path clip-path="url(#pa584a13d2a)" d="M 1015.453846 768.96 
L 1016.884615 768.96 
L 1016.884615 159.433966 
L 1015.453846 159.433966 
z
" style="fill:#1f77b4;"/>
   </g>
   <g id="patch_302">
    <path clip-path="url(#pa584a13d2a)" d="M 1018.315385 768.96 
L 1019.746154 768.96 
L 1019.746154 158.987174 
L 1018.315385 158.987174 
z
" style="fill:#1f77b4;"/>
   </g>
   <g id="patch_303">
    <path clip-path="url(#pa584a13d2a)" d="M 1021.176923 768.96 
L 1022.607692 768.96 
L 1022.607692 158.682463 
L 1021.176923 158.682463 
z
" style="fill:#1f77b4;"/>
   </g>
   <g id="patch_304">
    <path clip-path="url(#pa584a13d2a)" d="M 1024.038462 768.96 
L 1025.469231 768.96 
L 1025.469231 158.319792 
L 1024.038462 158.319792 
z
" style="fill:#1f77b4;"/>
   </g>
   <g id="patch_305">
    <path clip-path="url(#pa584a13d2a)" d="M 1026.9 768.96 
L 1028.330769 768.96 
L 1028.330769 157.852103 
L 1026.9 157.852103 
z
" style="fill:#1f77b4;"/>
   </g>
   <g id="patch_306">
    <path clip-path="url(#pa584a13d2a)" d="M 1029.761538 768.96 
L 1031.192308 768.96 
L 1031.192308 157.559764 
L 1029.761538 157.559764 
z
" style="fill:#1f77b4;"/>
   </g>
   <g id="patch_307">
    <path clip-path="url(#pa584a13d2a)" d="M 1032.623077 768.96 
L 1034.053846 768.96 
L 1034.053846 157.068747 
L 1032.623077 157.068747 
z
" style="fill:#1f77b4;"/>
   </g>
   <g id="patch_308">
    <path clip-path="url(#pa584a13d2a)" d="M 1035.484615 768.96 
L 1036.915385 768.96 
L 1036.915385 156.510872 
L 1035.484615 156.510872 
z
" style="fill:#1f77b4;"/>
   </g>
   <g id="patch_309">
    <path clip-path="url(#pa584a13d2a)" d="M 1038.346154 768.96 
L 1039.776923 768.96 
L 1039.776923 155.852148 
L 1038.346154 155.852148 
z
" style="fill:#1f77b4;"/>
   </g>
   <g id="patch_310">
    <path clip-path="url(#pa584a13d2a)" d="M 1041.207692 768.96 
L 1042.638462 768.96 
L 1042.638462 155.644304 
L 1041.207692 155.644304 
z
" style="fill:#1f77b4;"/>
   </g>
   <g id="patch_311">
    <path clip-path="url(#pa584a13d2a)" d="M 1044.069231 768.96 
L 1045.5 768.96 
L 1045.5 155.29144 
L 1044.069231 155.29144 
z
" style="fill:#1f77b4;"/>
   </g>
   <g id="patch_312">
    <path clip-path="url(#pa584a13d2a)" d="M 1046.930769 768.96 
L 1048.361538 768.96 
L 1048.361538 154.771964 
L 1046.930769 154.771964 
z
" style="fill:#1f77b4;"/>
   </g>
   <g id="patch_313">
    <path clip-path="url(#pa584a13d2a)" d="M 1049.792308 768.96 
L 1051.223077 768.96 
L 1051.223077 154.342408 
L 1049.792308 154.342408 
z
" style="fill:#1f77b4;"/>
   </g>
   <g id="patch_314">
    <path clip-path="url(#pa584a13d2a)" d="M 1052.653846 768.96 
L 1054.084615 768.96 
L 1054.084615 153.939146 
L 1052.653846 153.939146 
z
" style="fill:#1f77b4;"/>
   </g>
   <g id="patch_315">
    <path clip-path="url(#pa584a13d2a)" d="M 1055.515385 768.96 
L 1056.946154 768.96 
L 1056.946154 153.489013 
L 1055.515385 153.489013 
z
" style="fill:#1f77b4;"/>
   </g>
   <g id="patch_316">
    <path clip-path="url(#pa584a13d2a)" d="M 1058.376923 768.96 
L 1059.807692 768.96 
L 1059.807692 153.133824 
L 1058.376923 153.133824 
z
" style="fill:#1f77b4;"/>
   </g>
   <g id="patch_317">
    <path clip-path="url(#pa584a13d2a)" d="M 1061.238462 768.96 
L 1062.669231 768.96 
L 1062.669231 152.932554 
L 1061.238462 152.932554 
z
" style="fill:#1f77b4;"/>
   </g>
   <g id="patch_318">
    <path clip-path="url(#pa584a13d2a)" d="M 1064.1 768.96 
L 1065.530769 768.96 
L 1065.530769 152.608603 
L 1064.1 152.608603 
z
" style="fill:#1f77b4;"/>
   </g>
   <g id="patch_319">
    <path clip-path="url(#pa584a13d2a)" d="M 1066.961538 768.96 
L 1068.392308 768.96 
L 1068.392308 152.178192 
L 1066.961538 152.178192 
z
" style="fill:#1f77b4;"/>
   </g>
   <g id="patch_320">
    <path clip-path="url(#pa584a13d2a)" d="M 1069.823077 768.96 
L 1071.253846 768.96 
L 1071.253846 151.757828 
L 1069.823077 151.757828 
z
" style="fill:#1f77b4;"/>
   </g>
   <g id="patch_321">
    <path clip-path="url(#pa584a13d2a)" d="M 1072.684615 768.96 
L 1074.115385 768.96 
L 1074.115385 151.331024 
L 1072.684615 151.331024 
z
" style="fill:#1f77b4;"/>
   </g>
   <g id="patch_322">
    <path clip-path="url(#pa584a13d2a)" d="M 1075.546154 768.96 
L 1076.976923 768.96 
L 1076.976923 150.868359 
L 1075.546154 150.868359 
z
" style="fill:#1f77b4;"/>
   </g>
   <g id="patch_323">
    <path clip-path="url(#pa584a13d2a)" d="M 1078.407692 768.96 
L 1079.838462 768.96 
L 1079.838462 150.52108 
L 1078.407692 150.52108 
z
" style="fill:#1f77b4;"/>
   </g>
   <g id="patch_324">
    <path clip-path="url(#pa584a13d2a)" d="M 1081.269231 768.96 
L 1082.7 768.96 
L 1082.7 150.325608 
L 1081.269231 150.325608 
z
" style="fill:#1f77b4;"/>
   </g>
   <g id="patch_325">
    <path clip-path="url(#pa584a13d2a)" d="M 1084.130769 768.96 
L 1085.561538 768.96 
L 1085.561538 149.910402 
L 1084.130769 149.910402 
z
" style="fill:#1f77b4;"/>
   </g>
   <g id="patch_326">
    <path clip-path="url(#pa584a13d2a)" d="M 1086.992308 768.96 
L 1088.423077 768.96 
L 1088.423077 149.466068 
L 1086.992308 149.466068 
z
" style="fill:#1f77b4;"/>
   </g>
   <g id="patch_327">
    <path clip-path="url(#pa584a13d2a)" d="M 1089.853846 768.96 
L 1091.284615 768.96 
L 1091.284615 149.072293 
L 1089.853846 149.072293 
z
" style="fill:#1f77b4;"/>
   </g>
   <g id="patch_328">
    <path clip-path="url(#pa584a13d2a)" d="M 1092.715385 768.96 
L 1094.146154 768.96 
L 1094.146154 148.879707 
L 1092.715385 148.879707 
z
" style="fill:#1f77b4;"/>
   </g>
   <g id="patch_329">
    <path clip-path="url(#pa584a13d2a)" d="M 1095.576923 768.96 
L 1097.007692 768.96 
L 1097.007692 148.707323 
L 1095.576923 148.707323 
z
" style="fill:#1f77b4;"/>
   </g>
   <g id="patch_330">
    <path clip-path="url(#pa584a13d2a)" d="M 1098.438462 768.96 
L 1099.869231 768.96 
L 1099.869231 148.325519 
L 1098.438462 148.325519 
z
" style="fill:#1f77b4;"/>
   </g>
   <g id="patch_331">
    <path clip-path="url(#pa584a13d2a)" d="M 1101.3 768.96 
L 1102.730769 768.96 
L 1102.730769 147.980431 
L 1101.3 147.980431 
z
" style="fill:#1f77b4;"/>
   </g>
   <g id="patch_332">
    <path clip-path="url(#pa584a13d2a)" d="M 1104.161538 768.96 
L 1105.592308 768.96 
L 1105.592308 147.462505 
L 1104.161538 147.462505 
z
" style="fill:#1f77b4;"/>
   </g>
   <g id="patch_333">
    <path clip-path="url(#pa584a13d2a)" d="M 1107.023077 768.96 
L 1108.453846 768.96 
L 1108.453846 146.772944 
L 1107.023077 146.772944 
z
" style="fill:#1f77b4;"/>
   </g>
   <g id="patch_334">
    <path clip-path="url(#pa584a13d2a)" d="M 1109.884615 768.96 
L 1111.315385 768.96 
L 1111.315385 146.291627 
L 1109.884615 146.291627 
z
" style="fill:#1f77b4;"/>
   </g>
   <g id="patch_335">
    <path clip-path="url(#pa584a13d2a)" d="M 1112.746154 768.96 
L 1114.176923 768.96 
L 1114.176923 145.407048 
L 1112.746154 145.407048 
z
" style="fill:#1f77b4;"/>
   </g>
   <g id="patch_336">
    <path clip-path="url(#pa584a13d2a)" d="M 1115.607692 768.96 
L 1117.038462 768.96 
L 1117.038462 144.61581 
L 1115.607692 144.61581 
z
" style="fill:#1f77b4;"/>
   </g>
   <g id="patch_337">
    <path clip-path="url(#pa584a13d2a)" d="M 1118.469231 768.96 
L 1119.9 768.96 
L 1119.9 143.812653 
L 1118.469231 143.812653 
z
" style="fill:#1f77b4;"/>
   </g>
   <g id="patch_338">
    <path clip-path="url(#pa584a13d2a)" d="M 1121.330769 768.96 
L 1122.761538 768.96 
L 1122.761538 143.311775 
L 1121.330769 143.311775 
z
" style="fill:#1f77b4;"/>
   </g>
   <g id="patch_339">
    <path clip-path="url(#pa584a13d2a)" d="M 1124.192308 768.96 
L 1125.623077 768.96 
L 1125.623077 142.718039 
L 1124.192308 142.718039 
z
" style="fill:#1f77b4;"/>
   </g>
   <g id="patch_340">
    <path clip-path="url(#pa584a13d2a)" d="M 1127.053846 768.96 
L 1128.484615 768.96 
L 1128.484615 142.033662 
L 1127.053846 142.033662 
z
" style="fill:#1f77b4;"/>
   </g>
   <g id="patch_341">
    <path clip-path="url(#pa584a13d2a)" d="M 1129.915385 768.96 
L 1131.346154 768.96 
L 1131.346154 141.38087 
L 1129.915385 141.38087 
z
" style="fill:#1f77b4;"/>
   </g>
   <g id="patch_342">
    <path clip-path="url(#pa584a13d2a)" d="M 1132.776923 768.96 
L 1134.207692 768.96 
L 1134.207692 140.712338 
L 1132.776923 140.712338 
z
" style="fill:#1f77b4;"/>
   </g>
   <g id="patch_343">
    <path clip-path="url(#pa584a13d2a)" d="M 1135.638462 768.96 
L 1137.069231 768.96 
L 1137.069231 140.058985 
L 1135.638462 140.058985 
z
" style="fill:#1f77b4;"/>
   </g>
   <g id="patch_344">
    <path clip-path="url(#pa584a13d2a)" d="M 1138.5 768.96 
L 1139.930769 768.96 
L 1139.930769 139.464527 
L 1138.5 139.464527 
z
" style="fill:#1f77b4;"/>
   </g>
   <g id="patch_345">
    <path clip-path="url(#pa584a13d2a)" d="M 1141.361538 768.96 
L 1142.792308 768.96 
L 1142.792308 139.237711 
L 1141.361538 139.237711 
z
" style="fill:#1f77b4;"/>
   </g>
   <g id="patch_346">
    <path clip-path="url(#pa584a13d2a)" d="M 1144.223077 768.96 
L 1145.653846 768.96 
L 1145.653846 138.59021 
L 1144.223077 138.59021 
z
" style="fill:#1f77b4;"/>
   </g>
   <g id="patch_347">
    <path clip-path="url(#pa584a13d2a)" d="M 1147.084615 768.96 
L 1148.515385 768.96 
L 1148.515385 137.989045 
L 1147.084615 137.989045 
z
" style="fill:#1f77b4;"/>
   </g>
   <g id="patch_348">
    <path clip-path="url(#pa584a13d2a)" d="M 1149.946154 768.96 
L 1151.376923 768.96 
L 1151.376923 137.367919 
L 1149.946154 137.367919 
z
" style="fill:#1f77b4;"/>
   </g>
   <g id="patch_349">
    <path clip-path="url(#pa584a13d2a)" d="M 1152.807692 768.96 
L 1154.238462 768.96 
L 1154.238462 136.869126 
L 1152.807692 136.869126 
z
" style="fill:#1f77b4;"/>
   </g>
   <g id="patch_350">
    <path clip-path="url(#pa584a13d2a)" d="M 1155.669231 768.96 
L 1157.1 768.96 
L 1157.1 136.42888 
L 1155.669231 136.42888 
z
" style="fill:#1f77b4;"/>
   </g>
   <g id="patch_351">
    <path clip-path="url(#pa584a13d2a)" d="M 1158.530769 768.96 
L 1159.961538 768.96 
L 1159.961538 136.001996 
L 1158.530769 136.001996 
z
" style="fill:#1f77b4;"/>
   </g>
   <g id="patch_352">
    <path clip-path="url(#pa584a13d2a)" d="M 1161.392308 768.96 
L 1162.823077 768.96 
L 1162.823077 135.732585 
L 1161.392308 135.732585 
z
" style="fill:#1f77b4;"/>
   </g>
   <g id="patch_353">
    <path clip-path="url(#pa584a13d2a)" d="M 1164.253846 768.96 
L 1165.684615 768.96 
L 1165.684615 135.36 
L 1164.253846 135.36 
z
" style="fill:#1f77b4;"/>
   </g>
   <g id="matplotlib.axis_1">
    <g id="xtick_1">
     <g id="line2d_1">
      <defs>
       <path d="M 0 0 
L 0 3.5 
" id="m1d255b6a3d" style="stroke:#000000;stroke-width:0.8;"/>
      </defs>
      <g>
       <use style="stroke:#000000;stroke-width:0.8;" x="163.430769" xlink:href="#m1d255b6a3d" y="768.96"/>
      </g>
     </g>
     <g id="text_1">
      <!-- January -->
      <g transform="translate(144.4753 783.558437)scale(0.1 -0.1)">
       <defs>
        <path d="M 628 4666 
L 1259 4666 
L 1259 325 
Q 1259 -519 939 -900 
Q 619 -1281 -91 -1281 
L -331 -1281 
L -331 -750 
L -134 -750 
Q 284 -750 456 -515 
Q 628 -281 628 325 
L 628 4666 
z
" id="DejaVuSans-4a" transform="scale(0.015625)"/>
        <path d="M 2194 1759 
Q 1497 1759 1228 1600 
Q 959 1441 959 1056 
Q 959 750 1161 570 
Q 1363 391 1709 391 
Q 2188 391 2477 730 
Q 2766 1069 2766 1631 
L 2766 1759 
L 2194 1759 
z
M 3341 1997 
L 3341 0 
L 2766 0 
L 2766 531 
Q 2569 213 2275 61 
Q 1981 -91 1556 -91 
Q 1019 -91 701 211 
Q 384 513 384 1019 
Q 384 1609 779 1909 
Q 1175 2209 1959 2209 
L 2766 2209 
L 2766 2266 
Q 2766 2663 2505 2880 
Q 2244 3097 1772 3097 
Q 1472 3097 1187 3025 
Q 903 2953 641 2809 
L 641 3341 
Q 956 3463 1253 3523 
Q 1550 3584 1831 3584 
Q 2591 3584 2966 3190 
Q 3341 2797 3341 1997 
z
" id="DejaVuSans-61" transform="scale(0.015625)"/>
        <path d="M 3513 2113 
L 3513 0 
L 2938 0 
L 2938 2094 
Q 2938 2591 2744 2837 
Q 2550 3084 2163 3084 
Q 1697 3084 1428 2787 
Q 1159 2491 1159 1978 
L 1159 0 
L 581 0 
L 581 3500 
L 1159 3500 
L 1159 2956 
Q 1366 3272 1645 3428 
Q 1925 3584 2291 3584 
Q 2894 3584 3203 3211 
Q 3513 2838 3513 2113 
z
" id="DejaVuSans-6e" transform="scale(0.015625)"/>
        <path d="M 544 1381 
L 544 3500 
L 1119 3500 
L 1119 1403 
Q 1119 906 1312 657 
Q 1506 409 1894 409 
Q 2359 409 2629 706 
Q 2900 1003 2900 1516 
L 2900 3500 
L 3475 3500 
L 3475 0 
L 2900 0 
L 2900 538 
Q 2691 219 2414 64 
Q 2138 -91 1772 -91 
Q 1169 -91 856 284 
Q 544 659 544 1381 
z
M 1991 3584 
L 1991 3584 
z
" id="DejaVuSans-75" transform="scale(0.015625)"/>
        <path d="M 2631 2963 
Q 2534 3019 2420 3045 
Q 2306 3072 2169 3072 
Q 1681 3072 1420 2755 
Q 1159 2438 1159 1844 
L 1159 0 
L 581 0 
L 581 3500 
L 1159 3500 
L 1159 2956 
Q 1341 3275 1631 3429 
Q 1922 3584 2338 3584 
Q 2397 3584 2469 3576 
Q 2541 3569 2628 3553 
L 2631 2963 
z
" id="DejaVuSans-72" transform="scale(0.015625)"/>
        <path d="M 2059 -325 
Q 1816 -950 1584 -1140 
Q 1353 -1331 966 -1331 
L 506 -1331 
L 506 -850 
L 844 -850 
Q 1081 -850 1212 -737 
Q 1344 -625 1503 -206 
L 1606 56 
L 191 3500 
L 800 3500 
L 1894 763 
L 2988 3500 
L 3597 3500 
L 2059 -325 
z
" id="DejaVuSans-79" transform="scale(0.015625)"/>
       </defs>
       <use xlink:href="#DejaVuSans-4a"/>
       <use x="29.492188" xlink:href="#DejaVuSans-61"/>
       <use x="90.771484" xlink:href="#DejaVuSans-6e"/>
       <use x="154.150391" xlink:href="#DejaVuSans-75"/>
       <use x="217.529297" xlink:href="#DejaVuSans-61"/>
       <use x="278.808594" xlink:href="#DejaVuSans-72"/>
       <use x="319.921875" xlink:href="#DejaVuSans-79"/>
      </g>
     </g>
    </g>
    <g id="xtick_2">
     <g id="line2d_2">
      <g>
       <use style="stroke:#000000;stroke-width:0.8;" x="252.138462" xlink:href="#m1d255b6a3d" y="768.96"/>
      </g>
     </g>
     <g id="text_2">
      <!-- February -->
      <g transform="translate(229.983774 783.558437)scale(0.1 -0.1)">
       <defs>
        <path d="M 628 4666 
L 3309 4666 
L 3309 4134 
L 1259 4134 
L 1259 2759 
L 3109 2759 
L 3109 2228 
L 1259 2228 
L 1259 0 
L 628 0 
L 628 4666 
z
" id="DejaVuSans-46" transform="scale(0.015625)"/>
        <path d="M 3597 1894 
L 3597 1613 
L 953 1613 
Q 991 1019 1311 708 
Q 1631 397 2203 397 
Q 2534 397 2845 478 
Q 3156 559 3463 722 
L 3463 178 
Q 3153 47 2828 -22 
Q 2503 -91 2169 -91 
Q 1331 -91 842 396 
Q 353 884 353 1716 
Q 353 2575 817 3079 
Q 1281 3584 2069 3584 
Q 2775 3584 3186 3129 
Q 3597 2675 3597 1894 
z
M 3022 2063 
Q 3016 2534 2758 2815 
Q 2500 3097 2075 3097 
Q 1594 3097 1305 2825 
Q 1016 2553 972 2059 
L 3022 2063 
z
" id="DejaVuSans-65" transform="scale(0.015625)"/>
        <path d="M 3116 1747 
Q 3116 2381 2855 2742 
Q 2594 3103 2138 3103 
Q 1681 3103 1420 2742 
Q 1159 2381 1159 1747 
Q 1159 1113 1420 752 
Q 1681 391 2138 391 
Q 2594 391 2855 752 
Q 3116 1113 3116 1747 
z
M 1159 2969 
Q 1341 3281 1617 3432 
Q 1894 3584 2278 3584 
Q 2916 3584 3314 3078 
Q 3713 2572 3713 1747 
Q 3713 922 3314 415 
Q 2916 -91 2278 -91 
Q 1894 -91 1617 61 
Q 1341 213 1159 525 
L 1159 0 
L 581 0 
L 581 4863 
L 1159 4863 
L 1159 2969 
z
" id="DejaVuSans-62" transform="scale(0.015625)"/>
       </defs>
       <use xlink:href="#DejaVuSans-46"/>
       <use x="52.019531" xlink:href="#DejaVuSans-65"/>
       <use x="113.542969" xlink:href="#DejaVuSans-62"/>
       <use x="177.019531" xlink:href="#DejaVuSans-72"/>
       <use x="218.132812" xlink:href="#DejaVuSans-75"/>
       <use x="281.511719" xlink:href="#DejaVuSans-61"/>
       <use x="342.791016" xlink:href="#DejaVuSans-72"/>
       <use x="383.904297" xlink:href="#DejaVuSans-79"/>
      </g>
     </g>
    </g>
    <g id="xtick_3">
     <g id="line2d_3">
      <g>
       <use style="stroke:#000000;stroke-width:0.8;" x="332.261538" xlink:href="#m1d255b6a3d" y="768.96"/>
      </g>
     </g>
     <g id="text_3">
      <!-- March -->
      <g transform="translate(317.022476 783.558437)scale(0.1 -0.1)">
       <defs>
        <path d="M 628 4666 
L 1569 4666 
L 2759 1491 
L 3956 4666 
L 4897 4666 
L 4897 0 
L 4281 0 
L 4281 4097 
L 3078 897 
L 2444 897 
L 1241 4097 
L 1241 0 
L 628 0 
L 628 4666 
z
" id="DejaVuSans-4d" transform="scale(0.015625)"/>
        <path d="M 3122 3366 
L 3122 2828 
Q 2878 2963 2633 3030 
Q 2388 3097 2138 3097 
Q 1578 3097 1268 2742 
Q 959 2388 959 1747 
Q 959 1106 1268 751 
Q 1578 397 2138 397 
Q 2388 397 2633 464 
Q 2878 531 3122 666 
L 3122 134 
Q 2881 22 2623 -34 
Q 2366 -91 2075 -91 
Q 1284 -91 818 406 
Q 353 903 353 1747 
Q 353 2603 823 3093 
Q 1294 3584 2113 3584 
Q 2378 3584 2631 3529 
Q 2884 3475 3122 3366 
z
" id="DejaVuSans-63" transform="scale(0.015625)"/>
        <path d="M 3513 2113 
L 3513 0 
L 2938 0 
L 2938 2094 
Q 2938 2591 2744 2837 
Q 2550 3084 2163 3084 
Q 1697 3084 1428 2787 
Q 1159 2491 1159 1978 
L 1159 0 
L 581 0 
L 581 4863 
L 1159 4863 
L 1159 2956 
Q 1366 3272 1645 3428 
Q 1925 3584 2291 3584 
Q 2894 3584 3203 3211 
Q 3513 2838 3513 2113 
z
" id="DejaVuSans-68" transform="scale(0.015625)"/>
       </defs>
       <use xlink:href="#DejaVuSans-4d"/>
       <use x="86.279297" xlink:href="#DejaVuSans-61"/>
       <use x="147.558594" xlink:href="#DejaVuSans-72"/>
       <use x="186.421875" xlink:href="#DejaVuSans-63"/>
       <use x="241.402344" xlink:href="#DejaVuSans-68"/>
      </g>
     </g>
    </g>
    <g id="xtick_4">
     <g id="line2d_4">
      <g>
       <use style="stroke:#000000;stroke-width:0.8;" x="420.969231" xlink:href="#m1d255b6a3d" y="768.96"/>
      </g>
     </g>
     <g id="text_4">
      <!-- April -->
      <g transform="translate(409.541106 783.558437)scale(0.1 -0.1)">
       <defs>
        <path d="M 2188 4044 
L 1331 1722 
L 3047 1722 
L 2188 4044 
z
M 1831 4666 
L 2547 4666 
L 4325 0 
L 3669 0 
L 3244 1197 
L 1141 1197 
L 716 0 
L 50 0 
L 1831 4666 
z
" id="DejaVuSans-41" transform="scale(0.015625)"/>
        <path d="M 1159 525 
L 1159 -1331 
L 581 -1331 
L 581 3500 
L 1159 3500 
L 1159 2969 
Q 1341 3281 1617 3432 
Q 1894 3584 2278 3584 
Q 2916 3584 3314 3078 
Q 3713 2572 3713 1747 
Q 3713 922 3314 415 
Q 2916 -91 2278 -91 
Q 1894 -91 1617 61 
Q 1341 213 1159 525 
z
M 3116 1747 
Q 3116 2381 2855 2742 
Q 2594 3103 2138 3103 
Q 1681 3103 1420 2742 
Q 1159 2381 1159 1747 
Q 1159 1113 1420 752 
Q 1681 391 2138 391 
Q 2594 391 2855 752 
Q 3116 1113 3116 1747 
z
" id="DejaVuSans-70" transform="scale(0.015625)"/>
        <path d="M 603 3500 
L 1178 3500 
L 1178 0 
L 603 0 
L 603 3500 
z
M 603 4863 
L 1178 4863 
L 1178 4134 
L 603 4134 
L 603 4863 
z
" id="DejaVuSans-69" transform="scale(0.015625)"/>
        <path d="M 603 4863 
L 1178 4863 
L 1178 0 
L 603 0 
L 603 4863 
z
" id="DejaVuSans-6c" transform="scale(0.015625)"/>
       </defs>
       <use xlink:href="#DejaVuSans-41"/>
       <use x="68.408203" xlink:href="#DejaVuSans-70"/>
       <use x="131.884766" xlink:href="#DejaVuSans-72"/>
       <use x="172.998047" xlink:href="#DejaVuSans-69"/>
       <use x="200.78125" xlink:href="#DejaVuSans-6c"/>
      </g>
     </g>
    </g>
    <g id="xtick_5">
     <g id="line2d_5">
      <g>
       <use style="stroke:#000000;stroke-width:0.8;" x="506.815385" xlink:href="#m1d255b6a3d" y="768.96"/>
      </g>
     </g>
     <g id="text_5">
      <!-- May -->
      <g transform="translate(496.477885 783.558437)scale(0.1 -0.1)">
       <use xlink:href="#DejaVuSans-4d"/>
       <use x="86.279297" xlink:href="#DejaVuSans-61"/>
       <use x="147.558594" xlink:href="#DejaVuSans-79"/>
      </g>
     </g>
    </g>
    <g id="xtick_6">
     <g id="line2d_6">
      <g>
       <use style="stroke:#000000;stroke-width:0.8;" x="595.523077" xlink:href="#m1d255b6a3d" y="768.96"/>
      </g>
     </g>
     <g id="text_6">
      <!-- June -->
      <g transform="translate(584.634014 783.558437)scale(0.1 -0.1)">
       <use xlink:href="#DejaVuSans-4a"/>
       <use x="29.492188" xlink:href="#DejaVuSans-75"/>
       <use x="92.871094" xlink:href="#DejaVuSans-6e"/>
       <use x="156.25" xlink:href="#DejaVuSans-65"/>
      </g>
     </g>
    </g>
    <g id="xtick_7">
     <g id="line2d_7">
      <g>
       <use style="stroke:#000000;stroke-width:0.8;" x="681.369231" xlink:href="#m1d255b6a3d" y="768.96"/>
      </g>
     </g>
     <g id="text_7">
      <!-- July -->
      <g transform="translate(672.377043 783.558437)scale(0.1 -0.1)">
       <use xlink:href="#DejaVuSans-4a"/>
       <use x="29.492188" xlink:href="#DejaVuSans-75"/>
       <use x="92.871094" xlink:href="#DejaVuSans-6c"/>
       <use x="120.654297" xlink:href="#DejaVuSans-79"/>
      </g>
     </g>
    </g>
    <g id="xtick_8">
     <g id="line2d_8">
      <g>
       <use style="stroke:#000000;stroke-width:0.8;" x="770.076923" xlink:href="#m1d255b6a3d" y="768.96"/>
      </g>
     </g>
     <g id="text_8">
      <!-- August -->
      <g transform="translate(752.580048 783.558437)scale(0.1 -0.1)">
       <defs>
        <path d="M 2906 1791 
Q 2906 2416 2648 2759 
Q 2391 3103 1925 3103 
Q 1463 3103 1205 2759 
Q 947 2416 947 1791 
Q 947 1169 1205 825 
Q 1463 481 1925 481 
Q 2391 481 2648 825 
Q 2906 1169 2906 1791 
z
M 3481 434 
Q 3481 -459 3084 -895 
Q 2688 -1331 1869 -1331 
Q 1566 -1331 1297 -1286 
Q 1028 -1241 775 -1147 
L 775 -588 
Q 1028 -725 1275 -790 
Q 1522 -856 1778 -856 
Q 2344 -856 2625 -561 
Q 2906 -266 2906 331 
L 2906 616 
Q 2728 306 2450 153 
Q 2172 0 1784 0 
Q 1141 0 747 490 
Q 353 981 353 1791 
Q 353 2603 747 3093 
Q 1141 3584 1784 3584 
Q 2172 3584 2450 3431 
Q 2728 3278 2906 2969 
L 2906 3500 
L 3481 3500 
L 3481 434 
z
" id="DejaVuSans-67" transform="scale(0.015625)"/>
        <path d="M 2834 3397 
L 2834 2853 
Q 2591 2978 2328 3040 
Q 2066 3103 1784 3103 
Q 1356 3103 1142 2972 
Q 928 2841 928 2578 
Q 928 2378 1081 2264 
Q 1234 2150 1697 2047 
L 1894 2003 
Q 2506 1872 2764 1633 
Q 3022 1394 3022 966 
Q 3022 478 2636 193 
Q 2250 -91 1575 -91 
Q 1294 -91 989 -36 
Q 684 19 347 128 
L 347 722 
Q 666 556 975 473 
Q 1284 391 1588 391 
Q 1994 391 2212 530 
Q 2431 669 2431 922 
Q 2431 1156 2273 1281 
Q 2116 1406 1581 1522 
L 1381 1569 
Q 847 1681 609 1914 
Q 372 2147 372 2553 
Q 372 3047 722 3315 
Q 1072 3584 1716 3584 
Q 2034 3584 2315 3537 
Q 2597 3491 2834 3397 
z
" id="DejaVuSans-73" transform="scale(0.015625)"/>
        <path d="M 1172 4494 
L 1172 3500 
L 2356 3500 
L 2356 3053 
L 1172 3053 
L 1172 1153 
Q 1172 725 1289 603 
Q 1406 481 1766 481 
L 2356 481 
L 2356 0 
L 1766 0 
Q 1100 0 847 248 
Q 594 497 594 1153 
L 594 3053 
L 172 3053 
L 172 3500 
L 594 3500 
L 594 4494 
L 1172 4494 
z
" id="DejaVuSans-74" transform="scale(0.015625)"/>
       </defs>
       <use xlink:href="#DejaVuSans-41"/>
       <use x="68.408203" xlink:href="#DejaVuSans-75"/>
       <use x="131.787109" xlink:href="#DejaVuSans-67"/>
       <use x="195.263672" xlink:href="#DejaVuSans-75"/>
       <use x="258.642578" xlink:href="#DejaVuSans-73"/>
       <use x="310.742188" xlink:href="#DejaVuSans-74"/>
      </g>
     </g>
    </g>
    <g id="xtick_9">
     <g id="line2d_9">
      <g>
       <use style="stroke:#000000;stroke-width:0.8;" x="858.784615" xlink:href="#m1d255b6a3d" y="768.96"/>
      </g>
     </g>
     <g id="text_9">
      <!-- September -->
      <g transform="translate(831.146334 783.558437)scale(0.1 -0.1)">
       <defs>
        <path d="M 3425 4513 
L 3425 3897 
Q 3066 4069 2747 4153 
Q 2428 4238 2131 4238 
Q 1616 4238 1336 4038 
Q 1056 3838 1056 3469 
Q 1056 3159 1242 3001 
Q 1428 2844 1947 2747 
L 2328 2669 
Q 3034 2534 3370 2195 
Q 3706 1856 3706 1288 
Q 3706 609 3251 259 
Q 2797 -91 1919 -91 
Q 1588 -91 1214 -16 
Q 841 59 441 206 
L 441 856 
Q 825 641 1194 531 
Q 1563 422 1919 422 
Q 2459 422 2753 634 
Q 3047 847 3047 1241 
Q 3047 1584 2836 1778 
Q 2625 1972 2144 2069 
L 1759 2144 
Q 1053 2284 737 2584 
Q 422 2884 422 3419 
Q 422 4038 858 4394 
Q 1294 4750 2059 4750 
Q 2388 4750 2728 4690 
Q 3069 4631 3425 4513 
z
" id="DejaVuSans-53" transform="scale(0.015625)"/>
        <path d="M 3328 2828 
Q 3544 3216 3844 3400 
Q 4144 3584 4550 3584 
Q 5097 3584 5394 3201 
Q 5691 2819 5691 2113 
L 5691 0 
L 5113 0 
L 5113 2094 
Q 5113 2597 4934 2840 
Q 4756 3084 4391 3084 
Q 3944 3084 3684 2787 
Q 3425 2491 3425 1978 
L 3425 0 
L 2847 0 
L 2847 2094 
Q 2847 2600 2669 2842 
Q 2491 3084 2119 3084 
Q 1678 3084 1418 2786 
Q 1159 2488 1159 1978 
L 1159 0 
L 581 0 
L 581 3500 
L 1159 3500 
L 1159 2956 
Q 1356 3278 1631 3431 
Q 1906 3584 2284 3584 
Q 2666 3584 2933 3390 
Q 3200 3197 3328 2828 
z
" id="DejaVuSans-6d" transform="scale(0.015625)"/>
       </defs>
       <use xlink:href="#DejaVuSans-53"/>
       <use x="63.476562" xlink:href="#DejaVuSans-65"/>
       <use x="125" xlink:href="#DejaVuSans-70"/>
       <use x="188.476562" xlink:href="#DejaVuSans-74"/>
       <use x="227.685547" xlink:href="#DejaVuSans-65"/>
       <use x="289.208984" xlink:href="#DejaVuSans-6d"/>
       <use x="386.621094" xlink:href="#DejaVuSans-62"/>
       <use x="450.097656" xlink:href="#DejaVuSans-65"/>
       <use x="511.621094" xlink:href="#DejaVuSans-72"/>
      </g>
     </g>
    </g>
    <g id="xtick_10">
     <g id="line2d_10">
      <g>
       <use style="stroke:#000000;stroke-width:0.8;" x="944.630769" xlink:href="#m1d255b6a3d" y="768.96"/>
      </g>
     </g>
     <g id="text_10">
      <!-- October -->
      <g transform="translate(924.619832 783.558437)scale(0.1 -0.1)">
       <defs>
        <path d="M 2522 4238 
Q 1834 4238 1429 3725 
Q 1025 3213 1025 2328 
Q 1025 1447 1429 934 
Q 1834 422 2522 422 
Q 3209 422 3611 934 
Q 4013 1447 4013 2328 
Q 4013 3213 3611 3725 
Q 3209 4238 2522 4238 
z
M 2522 4750 
Q 3503 4750 4090 4092 
Q 4678 3434 4678 2328 
Q 4678 1225 4090 567 
Q 3503 -91 2522 -91 
Q 1538 -91 948 565 
Q 359 1222 359 2328 
Q 359 3434 948 4092 
Q 1538 4750 2522 4750 
z
" id="DejaVuSans-4f" transform="scale(0.015625)"/>
        <path d="M 1959 3097 
Q 1497 3097 1228 2736 
Q 959 2375 959 1747 
Q 959 1119 1226 758 
Q 1494 397 1959 397 
Q 2419 397 2687 759 
Q 2956 1122 2956 1747 
Q 2956 2369 2687 2733 
Q 2419 3097 1959 3097 
z
M 1959 3584 
Q 2709 3584 3137 3096 
Q 3566 2609 3566 1747 
Q 3566 888 3137 398 
Q 2709 -91 1959 -91 
Q 1206 -91 779 398 
Q 353 888 353 1747 
Q 353 2609 779 3096 
Q 1206 3584 1959 3584 
z
" id="DejaVuSans-6f" transform="scale(0.015625)"/>
       </defs>
       <use xlink:href="#DejaVuSans-4f"/>
       <use x="78.710938" xlink:href="#DejaVuSans-63"/>
       <use x="133.691406" xlink:href="#DejaVuSans-74"/>
       <use x="172.900391" xlink:href="#DejaVuSans-6f"/>
       <use x="234.082031" xlink:href="#DejaVuSans-62"/>
       <use x="297.558594" xlink:href="#DejaVuSans-65"/>
       <use x="359.082031" xlink:href="#DejaVuSans-72"/>
      </g>
     </g>
    </g>
    <g id="xtick_11">
     <g id="line2d_11">
      <g>
       <use style="stroke:#000000;stroke-width:0.8;" x="1033.338462" xlink:href="#m1d255b6a3d" y="768.96"/>
      </g>
     </g>
     <g id="text_11">
      <!-- November -->
      <g transform="translate(1007.325962 783.558437)scale(0.1 -0.1)">
       <defs>
        <path d="M 628 4666 
L 1478 4666 
L 3547 763 
L 3547 4666 
L 4159 4666 
L 4159 0 
L 3309 0 
L 1241 3903 
L 1241 0 
L 628 0 
L 628 4666 
z
" id="DejaVuSans-4e" transform="scale(0.015625)"/>
        <path d="M 191 3500 
L 800 3500 
L 1894 563 
L 2988 3500 
L 3597 3500 
L 2284 0 
L 1503 0 
L 191 3500 
z
" id="DejaVuSans-76" transform="scale(0.015625)"/>
       </defs>
       <use xlink:href="#DejaVuSans-4e"/>
       <use x="74.804688" xlink:href="#DejaVuSans-6f"/>
       <use x="135.986328" xlink:href="#DejaVuSans-76"/>
       <use x="195.166016" xlink:href="#DejaVuSans-65"/>
       <use x="256.689453" xlink:href="#DejaVuSans-6d"/>
       <use x="354.101562" xlink:href="#DejaVuSans-62"/>
       <use x="417.578125" xlink:href="#DejaVuSans-65"/>
       <use x="479.101562" xlink:href="#DejaVuSans-72"/>
      </g>
     </g>
    </g>
    <g id="xtick_12">
     <g id="line2d_12">
      <g>
       <use style="stroke:#000000;stroke-width:0.8;" x="1119.184615" xlink:href="#m1d255b6a3d" y="768.96"/>
      </g>
     </g>
     <g id="text_12">
      <!-- December -->
      <g transform="translate(1093.255709 783.558437)scale(0.1 -0.1)">
       <defs>
        <path d="M 1259 4147 
L 1259 519 
L 2022 519 
Q 2988 519 3436 956 
Q 3884 1394 3884 2338 
Q 3884 3275 3436 3711 
Q 2988 4147 2022 4147 
L 1259 4147 
z
M 628 4666 
L 1925 4666 
Q 3281 4666 3915 4102 
Q 4550 3538 4550 2338 
Q 4550 1131 3912 565 
Q 3275 0 1925 0 
L 628 0 
L 628 4666 
z
" id="DejaVuSans-44" transform="scale(0.015625)"/>
       </defs>
       <use xlink:href="#DejaVuSans-44"/>
       <use x="77.001953" xlink:href="#DejaVuSans-65"/>
       <use x="138.525391" xlink:href="#DejaVuSans-63"/>
       <use x="193.505859" xlink:href="#DejaVuSans-65"/>
       <use x="255.029297" xlink:href="#DejaVuSans-6d"/>
       <use x="352.441406" xlink:href="#DejaVuSans-62"/>
       <use x="415.917969" xlink:href="#DejaVuSans-65"/>
       <use x="477.441406" xlink:href="#DejaVuSans-72"/>
      </g>
     </g>
    </g>
   </g>
   <g id="matplotlib.axis_2">
    <g id="ytick_1">
     <g id="line2d_13">
      <defs>
       <path d="M 0 0 
L -3.5 0 
" id="mb0d82bce0b" style="stroke:#000000;stroke-width:0.8;"/>
      </defs>
      <g>
       <use style="stroke:#000000;stroke-width:0.8;" x="162" xlink:href="#mb0d82bce0b" y="768.96"/>
      </g>
     </g>
     <g id="text_13">
      <!-- 0.0 -->
      <g transform="translate(139.096875 772.759219)scale(0.1 -0.1)">
       <defs>
        <path d="M 2034 4250 
Q 1547 4250 1301 3770 
Q 1056 3291 1056 2328 
Q 1056 1369 1301 889 
Q 1547 409 2034 409 
Q 2525 409 2770 889 
Q 3016 1369 3016 2328 
Q 3016 3291 2770 3770 
Q 2525 4250 2034 4250 
z
M 2034 4750 
Q 2819 4750 3233 4129 
Q 3647 3509 3647 2328 
Q 3647 1150 3233 529 
Q 2819 -91 2034 -91 
Q 1250 -91 836 529 
Q 422 1150 422 2328 
Q 422 3509 836 4129 
Q 1250 4750 2034 4750 
z
" id="DejaVuSans-30" transform="scale(0.015625)"/>
        <path d="M 684 794 
L 1344 794 
L 1344 0 
L 684 0 
L 684 794 
z
" id="DejaVuSans-2e" transform="scale(0.015625)"/>
       </defs>
       <use xlink:href="#DejaVuSans-30"/>
       <use x="63.623047" xlink:href="#DejaVuSans-2e"/>
       <use x="95.410156" xlink:href="#DejaVuSans-30"/>
      </g>
     </g>
    </g>
    <g id="ytick_2">
     <g id="line2d_14">
      <g>
       <use style="stroke:#000000;stroke-width:0.8;" x="162" xlink:href="#mb0d82bce0b" y="635.349949"/>
      </g>
     </g>
     <g id="text_14">
      <!-- 0.5 -->
      <g transform="translate(139.096875 639.149168)scale(0.1 -0.1)">
       <defs>
        <path d="M 691 4666 
L 3169 4666 
L 3169 4134 
L 1269 4134 
L 1269 2991 
Q 1406 3038 1543 3061 
Q 1681 3084 1819 3084 
Q 2600 3084 3056 2656 
Q 3513 2228 3513 1497 
Q 3513 744 3044 326 
Q 2575 -91 1722 -91 
Q 1428 -91 1123 -41 
Q 819 9 494 109 
L 494 744 
Q 775 591 1075 516 
Q 1375 441 1709 441 
Q 2250 441 2565 725 
Q 2881 1009 2881 1497 
Q 2881 1984 2565 2268 
Q 2250 2553 1709 2553 
Q 1456 2553 1204 2497 
Q 953 2441 691 2322 
L 691 4666 
z
" id="DejaVuSans-35" transform="scale(0.015625)"/>
       </defs>
       <use xlink:href="#DejaVuSans-30"/>
       <use x="63.623047" xlink:href="#DejaVuSans-2e"/>
       <use x="95.410156" xlink:href="#DejaVuSans-35"/>
      </g>
     </g>
    </g>
    <g id="ytick_3">
     <g id="line2d_15">
      <g>
       <use style="stroke:#000000;stroke-width:0.8;" x="162" xlink:href="#mb0d82bce0b" y="501.739898"/>
      </g>
     </g>
     <g id="text_15">
      <!-- 1.0 -->
      <g transform="translate(139.096875 505.539116)scale(0.1 -0.1)">
       <defs>
        <path d="M 794 531 
L 1825 531 
L 1825 4091 
L 703 3866 
L 703 4441 
L 1819 4666 
L 2450 4666 
L 2450 531 
L 3481 531 
L 3481 0 
L 794 0 
L 794 531 
z
" id="DejaVuSans-31" transform="scale(0.015625)"/>
       </defs>
       <use xlink:href="#DejaVuSans-31"/>
       <use x="63.623047" xlink:href="#DejaVuSans-2e"/>
       <use x="95.410156" xlink:href="#DejaVuSans-30"/>
      </g>
     </g>
    </g>
    <g id="ytick_4">
     <g id="line2d_16">
      <g>
       <use style="stroke:#000000;stroke-width:0.8;" x="162" xlink:href="#mb0d82bce0b" y="368.129846"/>
      </g>
     </g>
     <g id="text_16">
      <!-- 1.5 -->
      <g transform="translate(139.096875 371.929065)scale(0.1 -0.1)">
       <use xlink:href="#DejaVuSans-31"/>
       <use x="63.623047" xlink:href="#DejaVuSans-2e"/>
       <use x="95.410156" xlink:href="#DejaVuSans-35"/>
      </g>
     </g>
    </g>
    <g id="ytick_5">
     <g id="line2d_17">
      <g>
       <use style="stroke:#000000;stroke-width:0.8;" x="162" xlink:href="#mb0d82bce0b" y="234.519795"/>
      </g>
     </g>
     <g id="text_17">
      <!-- 2.0 -->
      <g transform="translate(139.096875 238.319014)scale(0.1 -0.1)">
       <defs>
        <path d="M 1228 531 
L 3431 531 
L 3431 0 
L 469 0 
L 469 531 
Q 828 903 1448 1529 
Q 2069 2156 2228 2338 
Q 2531 2678 2651 2914 
Q 2772 3150 2772 3378 
Q 2772 3750 2511 3984 
Q 2250 4219 1831 4219 
Q 1534 4219 1204 4116 
Q 875 4013 500 3803 
L 500 4441 
Q 881 4594 1212 4672 
Q 1544 4750 1819 4750 
Q 2544 4750 2975 4387 
Q 3406 4025 3406 3419 
Q 3406 3131 3298 2873 
Q 3191 2616 2906 2266 
Q 2828 2175 2409 1742 
Q 1991 1309 1228 531 
z
" id="DejaVuSans-32" transform="scale(0.015625)"/>
       </defs>
       <use xlink:href="#DejaVuSans-32"/>
       <use x="63.623047" xlink:href="#DejaVuSans-2e"/>
       <use x="95.410156" xlink:href="#DejaVuSans-30"/>
      </g>
     </g>
    </g>
    <g id="text_18">
     <!-- Persons fully vaccinated (tens of millions) -->
     <g transform="translate(133.017188 540.480156)rotate(-90)scale(0.1 -0.1)">
      <defs>
       <path d="M 1259 4147 
L 1259 2394 
L 2053 2394 
Q 2494 2394 2734 2622 
Q 2975 2850 2975 3272 
Q 2975 3691 2734 3919 
Q 2494 4147 2053 4147 
L 1259 4147 
z
M 628 4666 
L 2053 4666 
Q 2838 4666 3239 4311 
Q 3641 3956 3641 3272 
Q 3641 2581 3239 2228 
Q 2838 1875 2053 1875 
L 1259 1875 
L 1259 0 
L 628 0 
L 628 4666 
z
" id="DejaVuSans-50" transform="scale(0.015625)"/>
       <path id="DejaVuSans-20" transform="scale(0.015625)"/>
       <path d="M 2375 4863 
L 2375 4384 
L 1825 4384 
Q 1516 4384 1395 4259 
Q 1275 4134 1275 3809 
L 1275 3500 
L 2222 3500 
L 2222 3053 
L 1275 3053 
L 1275 0 
L 697 0 
L 697 3053 
L 147 3053 
L 147 3500 
L 697 3500 
L 697 3744 
Q 697 4328 969 4595 
Q 1241 4863 1831 4863 
L 2375 4863 
z
" id="DejaVuSans-66" transform="scale(0.015625)"/>
       <path d="M 2906 2969 
L 2906 4863 
L 3481 4863 
L 3481 0 
L 2906 0 
L 2906 525 
Q 2725 213 2448 61 
Q 2172 -91 1784 -91 
Q 1150 -91 751 415 
Q 353 922 353 1747 
Q 353 2572 751 3078 
Q 1150 3584 1784 3584 
Q 2172 3584 2448 3432 
Q 2725 3281 2906 2969 
z
M 947 1747 
Q 947 1113 1208 752 
Q 1469 391 1925 391 
Q 2381 391 2643 752 
Q 2906 1113 2906 1747 
Q 2906 2381 2643 2742 
Q 2381 3103 1925 3103 
Q 1469 3103 1208 2742 
Q 947 2381 947 1747 
z
" id="DejaVuSans-64" transform="scale(0.015625)"/>
       <path d="M 1984 4856 
Q 1566 4138 1362 3434 
Q 1159 2731 1159 2009 
Q 1159 1288 1364 580 
Q 1569 -128 1984 -844 
L 1484 -844 
Q 1016 -109 783 600 
Q 550 1309 550 2009 
Q 550 2706 781 3412 
Q 1013 4119 1484 4856 
L 1984 4856 
z
" id="DejaVuSans-28" transform="scale(0.015625)"/>
       <path d="M 513 4856 
L 1013 4856 
Q 1481 4119 1714 3412 
Q 1947 2706 1947 2009 
Q 1947 1309 1714 600 
Q 1481 -109 1013 -844 
L 513 -844 
Q 928 -128 1133 580 
Q 1338 1288 1338 2009 
Q 1338 2731 1133 3434 
Q 928 4138 513 4856 
z
" id="DejaVuSans-29" transform="scale(0.015625)"/>
      </defs>
      <use xlink:href="#DejaVuSans-50"/>
      <use x="56.677734" xlink:href="#DejaVuSans-65"/>
      <use x="118.201172" xlink:href="#DejaVuSans-72"/>
      <use x="159.314453" xlink:href="#DejaVuSans-73"/>
      <use x="211.414062" xlink:href="#DejaVuSans-6f"/>
      <use x="272.595703" xlink:href="#DejaVuSans-6e"/>
      <use x="335.974609" xlink:href="#DejaVuSans-73"/>
      <use x="388.074219" xlink:href="#DejaVuSans-20"/>
      <use x="419.861328" xlink:href="#DejaVuSans-66"/>
      <use x="455.066406" xlink:href="#DejaVuSans-75"/>
      <use x="518.445312" xlink:href="#DejaVuSans-6c"/>
      <use x="546.228516" xlink:href="#DejaVuSans-6c"/>
      <use x="574.011719" xlink:href="#DejaVuSans-79"/>
      <use x="633.191406" xlink:href="#DejaVuSans-20"/>
      <use x="664.978516" xlink:href="#DejaVuSans-76"/>
      <use x="724.158203" xlink:href="#DejaVuSans-61"/>
      <use x="785.4375" xlink:href="#DejaVuSans-63"/>
      <use x="840.417969" xlink:href="#DejaVuSans-63"/>
      <use x="895.398438" xlink:href="#DejaVuSans-69"/>
      <use x="923.181641" xlink:href="#DejaVuSans-6e"/>
      <use x="986.560547" xlink:href="#DejaVuSans-61"/>
      <use x="1047.839844" xlink:href="#DejaVuSans-74"/>
      <use x="1087.048828" xlink:href="#DejaVuSans-65"/>
      <use x="1148.572266" xlink:href="#DejaVuSans-64"/>
      <use x="1212.048828" xlink:href="#DejaVuSans-20"/>
      <use x="1243.835938" xlink:href="#DejaVuSans-28"/>
      <use x="1282.849609" xlink:href="#DejaVuSans-74"/>
      <use x="1322.058594" xlink:href="#DejaVuSans-65"/>
      <use x="1383.582031" xlink:href="#DejaVuSans-6e"/>
      <use x="1446.960938" xlink:href="#DejaVuSans-73"/>
      <use x="1499.060547" xlink:href="#DejaVuSans-20"/>
      <use x="1530.847656" xlink:href="#DejaVuSans-6f"/>
      <use x="1592.029297" xlink:href="#DejaVuSans-66"/>
      <use x="1627.234375" xlink:href="#DejaVuSans-20"/>
      <use x="1659.021484" xlink:href="#DejaVuSans-6d"/>
      <use x="1756.433594" xlink:href="#DejaVuSans-69"/>
      <use x="1784.216797" xlink:href="#DejaVuSans-6c"/>
      <use x="1812" xlink:href="#DejaVuSans-6c"/>
      <use x="1839.783203" xlink:href="#DejaVuSans-69"/>
      <use x="1867.566406" xlink:href="#DejaVuSans-6f"/>
      <use x="1928.748047" xlink:href="#DejaVuSans-6e"/>
      <use x="1992.126953" xlink:href="#DejaVuSans-73"/>
      <use x="2044.226562" xlink:href="#DejaVuSans-29"/>
     </g>
    </g>
    <g id="text_19">
     <!-- 1e7 -->
     <g transform="translate(162 100.68)scale(0.1 -0.1)">
      <defs>
       <path d="M 525 4666 
L 3525 4666 
L 3525 4397 
L 1831 0 
L 1172 0 
L 2766 4134 
L 525 4134 
L 525 4666 
z
" id="DejaVuSans-37" transform="scale(0.015625)"/>
      </defs>
      <use xlink:href="#DejaVuSans-31"/>
      <use x="63.623047" xlink:href="#DejaVuSans-65"/>
      <use x="125.146484" xlink:href="#DejaVuSans-37"/>
     </g>
    </g>
   </g>
   <g id="patch_354">
    <path d="M 162 768.96 
L 162 103.68 
" style="fill:none;stroke:#000000;stroke-linecap:square;stroke-linejoin:miter;stroke-width:0.8;"/>
   </g>
   <g id="patch_355">
    <path d="M 1166.4 768.96 
L 1166.4 103.68 
" style="fill:none;stroke:#000000;stroke-linecap:square;stroke-linejoin:miter;stroke-width:0.8;"/>
   </g>
   <g id="patch_356">
    <path d="M 162 768.96 
L 1166.4 768.96 
" style="fill:none;stroke:#000000;stroke-linecap:square;stroke-linejoin:miter;stroke-width:0.8;"/>
   </g>
   <g id="patch_357">
    <path d="M 162 103.68 
L 1166.4 103.68 
" style="fill:none;stroke:#000000;stroke-linecap:square;stroke-linejoin:miter;stroke-width:0.8;"/>
   </g>
   <g id="text_20">
    <!-- Persons Fully Vaccinated -->
    <g transform="translate(590.380313 97.68)scale(0.12 -0.12)">
     <defs>
      <path d="M 1831 0 
L 50 4666 
L 709 4666 
L 2188 738 
L 3669 4666 
L 4325 4666 
L 2547 0 
L 1831 0 
z
" id="DejaVuSans-56" transform="scale(0.015625)"/>
     </defs>
     <use xlink:href="#DejaVuSans-50"/>
     <use x="56.677734" xlink:href="#DejaVuSans-65"/>
     <use x="118.201172" xlink:href="#DejaVuSans-72"/>
     <use x="159.314453" xlink:href="#DejaVuSans-73"/>
     <use x="211.414062" xlink:href="#DejaVuSans-6f"/>
     <use x="272.595703" xlink:href="#DejaVuSans-6e"/>
     <use x="335.974609" xlink:href="#DejaVuSans-73"/>
     <use x="388.074219" xlink:href="#DejaVuSans-20"/>
     <use x="419.861328" xlink:href="#DejaVuSans-46"/>
     <use x="471.880859" xlink:href="#DejaVuSans-75"/>
     <use x="535.259766" xlink:href="#DejaVuSans-6c"/>
     <use x="563.042969" xlink:href="#DejaVuSans-6c"/>
     <use x="590.826172" xlink:href="#DejaVuSans-79"/>
     <use x="650.005859" xlink:href="#DejaVuSans-20"/>
     <use x="681.792969" xlink:href="#DejaVuSans-56"/>
     <use x="742.451172" xlink:href="#DejaVuSans-61"/>
     <use x="803.730469" xlink:href="#DejaVuSans-63"/>
     <use x="858.710938" xlink:href="#DejaVuSans-63"/>
     <use x="913.691406" xlink:href="#DejaVuSans-69"/>
     <use x="941.474609" xlink:href="#DejaVuSans-6e"/>
     <use x="1004.853516" xlink:href="#DejaVuSans-61"/>
     <use x="1066.132812" xlink:href="#DejaVuSans-74"/>
     <use x="1105.341797" xlink:href="#DejaVuSans-65"/>
     <use x="1166.865234" xlink:href="#DejaVuSans-64"/>
    </g>
   </g>
  </g>
 </g>
 <defs>
  <clipPath id="pa584a13d2a">
   <rect height="665.28" width="1004.4" x="162" y="103.68"/>
  </clipPath>
 </defs>
</svg>
