<?xml version="1.0" encoding="utf-8" standalone="no"?>
<!DOCTYPE svg PUBLIC "-//W3C//DTD SVG 1.1//EN"
  "http://www.w3.org/Graphics/SVG/1.1/DTD/svg11.dtd">
<svg height="864pt" version="1.1" viewBox="0 0 1296 864" width="1296pt" xmlns="http://www.w3.org/2000/svg" xmlns:xlink="http://www.w3.org/1999/xlink">
 <metadata>
  <rdf:RDF xmlns:cc="http://creativecommons.org/ns#" xmlns:dc="http://purl.org/dc/elements/1.1/" xmlns:rdf="http://www.w3.org/1999/02/22-rdf-syntax-ns#">
   <cc:Work>
    <dc:type rdf:resource="http://purl.org/dc/dcmitype/StillImage"/>
    <dc:date>2021-11-08T19:17:27.421401</dc:date>
    <dc:format>image/svg+xml</dc:format>
    <dc:creator>
     <cc:Agent>
      <dc:title>Matplotlib v3.4.2, https://matplotlib.org/</dc:title>
     </cc:Agent>
    </dc:creator>
   </cc:Work>
  </rdf:RDF>
 </metadata>
 <defs>
  <style type="text/css">*{stroke-linecap:butt;stroke-linejoin:round;}</style>
 </defs>
 <g id="figure_1">
  <g id="patch_1">
   <path d="M 0 864 
L 1296 864 
L 1296 0 
L 0 0 
z
" style="fill:#ffffff;"/>
  </g>
  <g id="axes_1">
   <g id="patch_2">
    <path d="M 162 768.96 
L 1166.4 768.96 
L 1166.4 103.68 
L 162 103.68 
z
" style="fill:#ffffff;"/>
   </g>
   <g id="patch_3">
    <path clip-path="url(#p8b082938ea)" d="M 162.807395 768.96 
L 164.422186 768.96 
L 164.422186 768.948342 
L 162.807395 768.948342 
z
" style="fill:#1f77b4;"/>
   </g>
   <g id="patch_4">
    <path clip-path="url(#p8b082938ea)" d="M 166.036977 768.96 
L 167.651768 768.96 
L 167.651768 768.96 
L 166.036977 768.96 
z
" style="fill:#1f77b4;"/>
   </g>
   <g id="patch_5">
    <path clip-path="url(#p8b082938ea)" d="M 169.266559 768.96 
L 170.88135 768.96 
L 170.88135 768.96 
L 169.266559 768.96 
z
" style="fill:#1f77b4;"/>
   </g>
   <g id="patch_6">
    <path clip-path="url(#p8b082938ea)" d="M 172.496141 768.96 
L 174.110932 768.96 
L 174.110932 768.219738 
L 172.496141 768.219738 
z
" style="fill:#1f77b4;"/>
   </g>
   <g id="patch_7">
    <path clip-path="url(#p8b082938ea)" d="M 175.725723 768.96 
L 177.340514 768.96 
L 177.340514 766.949053 
L 175.725723 766.949053 
z
" style="fill:#1f77b4;"/>
   </g>
   <g id="patch_8">
    <path clip-path="url(#p8b082938ea)" d="M 178.955305 768.96 
L 180.570096 768.96 
L 180.570096 754.889197 
L 178.955305 754.889197 
z
" style="fill:#1f77b4;"/>
   </g>
   <g id="patch_9">
    <path clip-path="url(#p8b082938ea)" d="M 182.184887 768.96 
L 183.799678 768.96 
L 183.799678 667.759798 
L 182.184887 667.759798 
z
" style="fill:#1f77b4;"/>
   </g>
   <g id="patch_10">
    <path clip-path="url(#p8b082938ea)" d="M 185.414469 768.96 
L 187.02926 768.96 
L 187.02926 646.851773 
L 185.414469 646.851773 
z
" style="fill:#1f77b4;"/>
   </g>
   <g id="patch_11">
    <path clip-path="url(#p8b082938ea)" d="M 188.644051 768.96 
L 190.258842 768.96 
L 190.258842 702.231517 
L 188.644051 702.231517 
z
" style="fill:#1f77b4;"/>
   </g>
   <g id="patch_12">
    <path clip-path="url(#p8b082938ea)" d="M 191.873633 768.96 
L 193.488424 768.96 
L 193.488424 728.560357 
L 191.873633 728.560357 
z
" style="fill:#1f77b4;"/>
   </g>
   <g id="patch_13">
    <path clip-path="url(#p8b082938ea)" d="M 195.103215 768.96 
L 196.718006 768.96 
L 196.718006 705.728817 
L 195.103215 705.728817 
z
" style="fill:#1f77b4;"/>
   </g>
   <g id="patch_14">
    <path clip-path="url(#p8b082938ea)" d="M 198.332797 768.96 
L 199.947588 768.96 
L 199.947588 708.806441 
L 198.332797 708.806441 
z
" style="fill:#1f77b4;"/>
   </g>
   <g id="patch_15">
    <path clip-path="url(#p8b082938ea)" d="M 201.562379 768.96 
L 203.17717 768.96 
L 203.17717 719.741332 
L 201.562379 719.741332 
z
" style="fill:#1f77b4;"/>
   </g>
   <g id="patch_16">
    <path clip-path="url(#p8b082938ea)" d="M 204.791961 768.96 
L 206.406752 768.96 
L 206.406752 708.870558 
L 204.791961 708.870558 
z
" style="fill:#1f77b4;"/>
   </g>
   <g id="patch_17">
    <path clip-path="url(#p8b082938ea)" d="M 208.021543 768.96 
L 209.636334 768.96 
L 209.636334 756.637847 
L 208.021543 756.637847 
z
" style="fill:#1f77b4;"/>
   </g>
   <g id="patch_18">
    <path clip-path="url(#p8b082938ea)" d="M 211.251125 768.96 
L 212.865916 768.96 
L 212.865916 761.324228 
L 211.251125 761.324228 
z
" style="fill:#1f77b4;"/>
   </g>
   <g id="patch_19">
    <path clip-path="url(#p8b082938ea)" d="M 214.480707 768.96 
L 216.095498 768.96 
L 216.095498 765.328637 
L 214.480707 765.328637 
z
" style="fill:#1f77b4;"/>
   </g>
   <g id="patch_20">
    <path clip-path="url(#p8b082938ea)" d="M 217.710289 768.96 
L 219.32508 768.96 
L 219.32508 752.248735 
L 217.710289 752.248735 
z
" style="fill:#1f77b4;"/>
   </g>
   <g id="patch_21">
    <path clip-path="url(#p8b082938ea)" d="M 220.939871 768.96 
L 222.554662 768.96 
L 222.554662 741.739349 
L 220.939871 741.739349 
z
" style="fill:#1f77b4;"/>
   </g>
   <g id="patch_22">
    <path clip-path="url(#p8b082938ea)" d="M 224.169453 768.96 
L 225.784244 768.96 
L 225.784244 718.173376 
L 224.169453 718.173376 
z
" style="fill:#1f77b4;"/>
   </g>
   <g id="patch_23">
    <path clip-path="url(#p8b082938ea)" d="M 227.399035 768.96 
L 229.013826 768.96 
L 229.013826 717.736214 
L 227.399035 717.736214 
z
" style="fill:#1f77b4;"/>
   </g>
   <g id="patch_24">
    <path clip-path="url(#p8b082938ea)" d="M 230.628617 768.96 
L 232.243408 768.96 
L 232.243408 731.999369 
L 230.628617 731.999369 
z
" style="fill:#1f77b4;"/>
   </g>
   <g id="patch_25">
    <path clip-path="url(#p8b082938ea)" d="M 233.858199 768.96 
L 235.47299 768.96 
L 235.47299 755.110692 
L 233.858199 755.110692 
z
" style="fill:#1f77b4;"/>
   </g>
   <g id="patch_26">
    <path clip-path="url(#p8b082938ea)" d="M 237.087781 768.96 
L 238.702572 768.96 
L 238.702572 750.505914 
L 237.087781 750.505914 
z
" style="fill:#1f77b4;"/>
   </g>
   <g id="patch_27">
    <path clip-path="url(#p8b082938ea)" d="M 240.317363 768.96 
L 241.932154 768.96 
L 241.932154 721.192712 
L 240.317363 721.192712 
z
" style="fill:#1f77b4;"/>
   </g>
   <g id="patch_28">
    <path clip-path="url(#p8b082938ea)" d="M 243.546945 768.96 
L 245.161736 768.96 
L 245.161736 685.461964 
L 243.546945 685.461964 
z
" style="fill:#1f77b4;"/>
   </g>
   <g id="patch_29">
    <path clip-path="url(#p8b082938ea)" d="M 246.776527 768.96 
L 248.391318 768.96 
L 248.391318 657.850781 
L 246.776527 657.850781 
z
" style="fill:#1f77b4;"/>
   </g>
   <g id="patch_30">
    <path clip-path="url(#p8b082938ea)" d="M 250.006109 768.96 
L 251.6209 768.96 
L 251.6209 672.929973 
L 250.006109 672.929973 
z
" style="fill:#1f77b4;"/>
   </g>
   <g id="patch_31">
    <path clip-path="url(#p8b082938ea)" d="M 253.235691 768.96 
L 254.850482 768.96 
L 254.850482 684.902396 
L 253.235691 684.902396 
z
" style="fill:#1f77b4;"/>
   </g>
   <g id="patch_32">
    <path clip-path="url(#p8b082938ea)" d="M 256.465273 768.96 
L 258.080064 768.96 
L 258.080064 722.824785 
L 256.465273 722.824785 
z
" style="fill:#1f77b4;"/>
   </g>
   <g id="patch_33">
    <path clip-path="url(#p8b082938ea)" d="M 259.694855 768.96 
L 261.309646 768.96 
L 261.309646 743.155755 
L 259.694855 743.155755 
z
" style="fill:#1f77b4;"/>
   </g>
   <g id="patch_34">
    <path clip-path="url(#p8b082938ea)" d="M 262.924437 768.96 
L 264.539228 768.96 
L 264.539228 721.530784 
L 262.924437 721.530784 
z
" style="fill:#1f77b4;"/>
   </g>
   <g id="patch_35">
    <path clip-path="url(#p8b082938ea)" d="M 266.154019 768.96 
L 267.76881 768.96 
L 267.76881 667.934663 
L 266.154019 667.934663 
z
" style="fill:#1f77b4;"/>
   </g>
   <g id="patch_36">
    <path clip-path="url(#p8b082938ea)" d="M 269.383601 768.96 
L 270.998392 768.96 
L 270.998392 693.832169 
L 269.383601 693.832169 
z
" style="fill:#1f77b4;"/>
   </g>
   <g id="patch_37">
    <path clip-path="url(#p8b082938ea)" d="M 272.613183 768.96 
L 274.227974 768.96 
L 274.227974 671.525224 
L 272.613183 671.525224 
z
" style="fill:#1f77b4;"/>
   </g>
   <g id="patch_38">
    <path clip-path="url(#p8b082938ea)" d="M 275.842765 768.96 
L 277.457556 768.96 
L 277.457556 688.77857 
L 275.842765 688.77857 
z
" style="fill:#1f77b4;"/>
   </g>
   <g id="patch_39">
    <path clip-path="url(#p8b082938ea)" d="M 279.072347 768.96 
L 280.687138 768.96 
L 280.687138 700.412921 
L 279.072347 700.412921 
z
" style="fill:#1f77b4;"/>
   </g>
   <g id="patch_40">
    <path clip-path="url(#p8b082938ea)" d="M 282.301929 768.96 
L 283.91672 768.96 
L 283.91672 745.714613 
L 282.301929 745.714613 
z
" style="fill:#1f77b4;"/>
   </g>
   <g id="patch_41">
    <path clip-path="url(#p8b082938ea)" d="M 285.531511 768.96 
L 287.146302 768.96 
L 287.146302 692.491537 
L 285.531511 692.491537 
z
" style="fill:#1f77b4;"/>
   </g>
   <g id="patch_42">
    <path clip-path="url(#p8b082938ea)" d="M 288.761093 768.96 
L 290.375884 768.96 
L 290.375884 672.959117 
L 288.761093 672.959117 
z
" style="fill:#1f77b4;"/>
   </g>
   <g id="patch_43">
    <path clip-path="url(#p8b082938ea)" d="M 291.990675 768.96 
L 293.605466 768.96 
L 293.605466 653.041994 
L 291.990675 653.041994 
z
" style="fill:#1f77b4;"/>
   </g>
   <g id="patch_44">
    <path clip-path="url(#p8b082938ea)" d="M 295.220257 768.96 
L 296.835048 768.96 
L 296.835048 602.983974 
L 295.220257 602.983974 
z
" style="fill:#1f77b4;"/>
   </g>
   <g id="patch_45">
    <path clip-path="url(#p8b082938ea)" d="M 298.449839 768.96 
L 300.06463 768.96 
L 300.06463 625.145198 
L 298.449839 625.145198 
z
" style="fill:#1f77b4;"/>
   </g>
   <g id="patch_46">
    <path clip-path="url(#p8b082938ea)" d="M 301.679421 768.96 
L 303.294212 768.96 
L 303.294212 679.522383 
L 301.679421 679.522383 
z
" style="fill:#1f77b4;"/>
   </g>
   <g id="patch_47">
    <path clip-path="url(#p8b082938ea)" d="M 304.909003 768.96 
L 306.523794 768.96 
L 306.523794 720.545711 
L 304.909003 720.545711 
z
" style="fill:#1f77b4;"/>
   </g>
   <g id="patch_48">
    <path clip-path="url(#p8b082938ea)" d="M 308.138585 768.96 
L 309.753376 768.96 
L 309.753376 721.157739 
L 308.138585 721.157739 
z
" style="fill:#1f77b4;"/>
   </g>
   <g id="patch_49">
    <path clip-path="url(#p8b082938ea)" d="M 311.368167 768.96 
L 312.982958 768.96 
L 312.982958 679.440779 
L 311.368167 679.440779 
z
" style="fill:#1f77b4;"/>
   </g>
   <g id="patch_50">
    <path clip-path="url(#p8b082938ea)" d="M 314.597749 768.96 
L 316.21254 768.96 
L 316.21254 619.39214 
L 314.597749 619.39214 
z
" style="fill:#1f77b4;"/>
   </g>
   <g id="patch_51">
    <path clip-path="url(#p8b082938ea)" d="M 317.827331 768.96 
L 319.442122 768.96 
L 319.442122 575.710863 
L 317.827331 575.710863 
z
" style="fill:#1f77b4;"/>
   </g>
   <g id="patch_52">
    <path clip-path="url(#p8b082938ea)" d="M 321.056913 768.96 
L 322.671704 768.96 
L 322.671704 583.160112 
L 321.056913 583.160112 
z
" style="fill:#1f77b4;"/>
   </g>
   <g id="patch_53">
    <path clip-path="url(#p8b082938ea)" d="M 324.286495 768.96 
L 325.901286 768.96 
L 325.901286 740.58524 
L 324.286495 740.58524 
z
" style="fill:#1f77b4;"/>
   </g>
   <g id="patch_54">
    <path clip-path="url(#p8b082938ea)" d="M 327.516077 768.96 
L 329.130868 768.96 
L 329.130868 631.912473 
L 327.516077 631.912473 
z
" style="fill:#1f77b4;"/>
   </g>
   <g id="patch_55">
    <path clip-path="url(#p8b082938ea)" d="M 330.745659 768.96 
L 332.36045 768.96 
L 332.36045 662.15246 
L 330.745659 662.15246 
z
" style="fill:#1f77b4;"/>
   </g>
   <g id="patch_56">
    <path clip-path="url(#p8b082938ea)" d="M 333.975241 768.96 
L 335.590032 768.96 
L 335.590032 610.573115 
L 333.975241 610.573115 
z
" style="fill:#1f77b4;"/>
   </g>
   <g id="patch_57">
    <path clip-path="url(#p8b082938ea)" d="M 337.204823 768.96 
L 338.819614 768.96 
L 338.819614 463.301815 
L 337.204823 463.301815 
z
" style="fill:#1f77b4;"/>
   </g>
   <g id="patch_58">
    <path clip-path="url(#p8b082938ea)" d="M 340.434405 768.96 
L 342.049196 768.96 
L 342.049196 459.460614 
L 340.434405 459.460614 
z
" style="fill:#1f77b4;"/>
   </g>
   <g id="patch_59">
    <path clip-path="url(#p8b082938ea)" d="M 343.663987 768.96 
L 345.278778 768.96 
L 345.278778 496.840921 
L 343.663987 496.840921 
z
" style="fill:#1f77b4;"/>
   </g>
   <g id="patch_60">
    <path clip-path="url(#p8b082938ea)" d="M 346.893569 768.96 
L 348.50836 768.96 
L 348.50836 530.292595 
L 346.893569 530.292595 
z
" style="fill:#1f77b4;"/>
   </g>
   <g id="patch_61">
    <path clip-path="url(#p8b082938ea)" d="M 350.123151 768.96 
L 351.737942 768.96 
L 351.737942 653.898832 
L 350.123151 653.898832 
z
" style="fill:#1f77b4;"/>
   </g>
   <g id="patch_62">
    <path clip-path="url(#p8b082938ea)" d="M 353.352733 768.96 
L 354.967524 768.96 
L 354.967524 596.712149 
L 353.352733 596.712149 
z
" style="fill:#1f77b4;"/>
   </g>
   <g id="patch_63">
    <path clip-path="url(#p8b082938ea)" d="M 356.582315 768.96 
L 358.197106 768.96 
L 358.197106 539.962629 
L 356.582315 539.962629 
z
" style="fill:#1f77b4;"/>
   </g>
   <g id="patch_64">
    <path clip-path="url(#p8b082938ea)" d="M 359.811897 768.96 
L 361.426688 768.96 
L 361.426688 503.806377 
L 359.811897 503.806377 
z
" style="fill:#1f77b4;"/>
   </g>
   <g id="patch_65">
    <path clip-path="url(#p8b082938ea)" d="M 363.041479 768.96 
L 364.65627 768.96 
L 364.65627 380.14768 
L 363.041479 380.14768 
z
" style="fill:#1f77b4;"/>
   </g>
   <g id="patch_66">
    <path clip-path="url(#p8b082938ea)" d="M 366.271061 768.96 
L 367.885852 768.96 
L 367.885852 397.290278 
L 366.271061 397.290278 
z
" style="fill:#1f77b4;"/>
   </g>
   <g id="patch_67">
    <path clip-path="url(#p8b082938ea)" d="M 369.500643 768.96 
L 371.115434 768.96 
L 371.115434 491.070376 
L 369.500643 491.070376 
z
" style="fill:#1f77b4;"/>
   </g>
   <g id="patch_68">
    <path clip-path="url(#p8b082938ea)" d="M 372.730225 768.96 
L 374.345016 768.96 
L 374.345016 681.568304 
L 372.730225 681.568304 
z
" style="fill:#1f77b4;"/>
   </g>
   <g id="patch_69">
    <path clip-path="url(#p8b082938ea)" d="M 375.959807 768.96 
L 377.574598 768.96 
L 377.574598 528.135927 
L 375.959807 528.135927 
z
" style="fill:#1f77b4;"/>
   </g>
   <g id="patch_70">
    <path clip-path="url(#p8b082938ea)" d="M 379.189389 768.96 
L 380.80418 768.96 
L 380.80418 460.57975 
L 379.189389 460.57975 
z
" style="fill:#1f77b4;"/>
   </g>
   <g id="patch_71">
    <path clip-path="url(#p8b082938ea)" d="M 382.418971 768.96 
L 384.033762 768.96 
L 384.033762 431.569647 
L 382.418971 431.569647 
z
" style="fill:#1f77b4;"/>
   </g>
   <g id="patch_72">
    <path clip-path="url(#p8b082938ea)" d="M 385.648553 768.96 
L 387.263344 768.96 
L 387.263344 404.599635 
L 385.648553 404.599635 
z
" style="fill:#1f77b4;"/>
   </g>
   <g id="patch_73">
    <path clip-path="url(#p8b082938ea)" d="M 388.878135 768.96 
L 390.492926 768.96 
L 390.492926 350.863622 
L 388.878135 350.863622 
z
" style="fill:#1f77b4;"/>
   </g>
   <g id="patch_74">
    <path clip-path="url(#p8b082938ea)" d="M 392.107717 768.96 
L 393.722508 768.96 
L 393.722508 499.801968 
L 392.107717 499.801968 
z
" style="fill:#1f77b4;"/>
   </g>
   <g id="patch_75">
    <path clip-path="url(#p8b082938ea)" d="M 395.337299 768.96 
L 396.95209 768.96 
L 396.95209 498.84604 
L 395.337299 498.84604 
z
" style="fill:#1f77b4;"/>
   </g>
   <g id="patch_76">
    <path clip-path="url(#p8b082938ea)" d="M 398.566881 768.96 
L 400.181672 768.96 
L 400.181672 530.403343 
L 398.566881 530.403343 
z
" style="fill:#1f77b4;"/>
   </g>
   <g id="patch_77">
    <path clip-path="url(#p8b082938ea)" d="M 401.796463 768.96 
L 403.411254 768.96 
L 403.411254 502.209276 
L 401.796463 502.209276 
z
" style="fill:#1f77b4;"/>
   </g>
   <g id="patch_78">
    <path clip-path="url(#p8b082938ea)" d="M 405.026045 768.96 
L 406.640836 768.96 
L 406.640836 532.81648 
L 405.026045 532.81648 
z
" style="fill:#1f77b4;"/>
   </g>
   <g id="patch_79">
    <path clip-path="url(#p8b082938ea)" d="M 408.255627 768.96 
L 409.870418 768.96 
L 409.870418 497.534552 
L 408.255627 497.534552 
z
" style="fill:#1f77b4;"/>
   </g>
   <g id="patch_80">
    <path clip-path="url(#p8b082938ea)" d="M 411.485209 768.96 
L 413.1 768.96 
L 413.1 486.378165 
L 411.485209 486.378165 
z
" style="fill:#1f77b4;"/>
   </g>
   <g id="patch_81">
    <path clip-path="url(#p8b082938ea)" d="M 414.714791 768.96 
L 416.329582 768.96 
L 416.329582 595.004301 
L 414.714791 595.004301 
z
" style="fill:#1f77b4;"/>
   </g>
   <g id="patch_82">
    <path clip-path="url(#p8b082938ea)" d="M 417.944373 768.96 
L 419.559164 768.96 
L 419.559164 674.369694 
L 417.944373 674.369694 
z
" style="fill:#1f77b4;"/>
   </g>
   <g id="patch_83">
    <path clip-path="url(#p8b082938ea)" d="M 421.173955 768.96 
L 422.788746 768.96 
L 422.788746 616.734192 
L 421.173955 616.734192 
z
" style="fill:#1f77b4;"/>
   </g>
   <g id="patch_84">
    <path clip-path="url(#p8b082938ea)" d="M 424.403537 768.96 
L 426.018328 768.96 
L 426.018328 585.823889 
L 424.403537 585.823889 
z
" style="fill:#1f77b4;"/>
   </g>
   <g id="patch_85">
    <path clip-path="url(#p8b082938ea)" d="M 427.633119 768.96 
L 429.24791 768.96 
L 429.24791 578.444586 
L 427.633119 578.444586 
z
" style="fill:#1f77b4;"/>
   </g>
   <g id="patch_86">
    <path clip-path="url(#p8b082938ea)" d="M 430.862701 768.96 
L 432.477492 768.96 
L 432.477492 526.911872 
L 430.862701 526.911872 
z
" style="fill:#1f77b4;"/>
   </g>
   <g id="patch_87">
    <path clip-path="url(#p8b082938ea)" d="M 434.092283 768.96 
L 435.707074 768.96 
L 435.707074 465.260303 
L 434.092283 465.260303 
z
" style="fill:#1f77b4;"/>
   </g>
   <g id="patch_88">
    <path clip-path="url(#p8b082938ea)" d="M 437.321865 768.96 
L 438.936656 768.96 
L 438.936656 501.830402 
L 437.321865 501.830402 
z
" style="fill:#1f77b4;"/>
   </g>
   <g id="patch_89">
    <path clip-path="url(#p8b082938ea)" d="M 440.551447 768.96 
L 442.166238 768.96 
L 442.166238 662.997641 
L 440.551447 662.997641 
z
" style="fill:#1f77b4;"/>
   </g>
   <g id="patch_90">
    <path clip-path="url(#p8b082938ea)" d="M 443.781029 768.96 
L 445.39582 768.96 
L 445.39582 605.397111 
L 443.781029 605.397111 
z
" style="fill:#1f77b4;"/>
   </g>
   <g id="patch_91">
    <path clip-path="url(#p8b082938ea)" d="M 447.010611 768.96 
L 448.625402 768.96 
L 448.625402 474.533976 
L 447.010611 474.533976 
z
" style="fill:#1f77b4;"/>
   </g>
   <g id="patch_92">
    <path clip-path="url(#p8b082938ea)" d="M 450.240193 768.96 
L 451.854984 768.96 
L 451.854984 518.384289 
L 450.240193 518.384289 
z
" style="fill:#1f77b4;"/>
   </g>
   <g id="patch_93">
    <path clip-path="url(#p8b082938ea)" d="M 453.469775 768.96 
L 455.084566 768.96 
L 455.084566 422.669018 
L 453.469775 422.669018 
z
" style="fill:#1f77b4;"/>
   </g>
   <g id="patch_94">
    <path clip-path="url(#p8b082938ea)" d="M 456.699357 768.96 
L 458.314148 768.96 
L 458.314148 416.443824 
L 456.699357 416.443824 
z
" style="fill:#1f77b4;"/>
   </g>
   <g id="patch_95">
    <path clip-path="url(#p8b082938ea)" d="M 459.928939 768.96 
L 461.54373 768.96 
L 461.54373 494.229604 
L 459.928939 494.229604 
z
" style="fill:#1f77b4;"/>
   </g>
   <g id="patch_96">
    <path clip-path="url(#p8b082938ea)" d="M 463.158521 768.96 
L 464.773312 768.96 
L 464.773312 692.986988 
L 463.158521 692.986988 
z
" style="fill:#1f77b4;"/>
   </g>
   <g id="patch_97">
    <path clip-path="url(#p8b082938ea)" d="M 466.388103 768.96 
L 468.002894 768.96 
L 468.002894 510.089859 
L 466.388103 510.089859 
z
" style="fill:#1f77b4;"/>
   </g>
   <g id="patch_98">
    <path clip-path="url(#p8b082938ea)" d="M 469.617685 768.96 
L 471.232476 768.96 
L 471.232476 370.751601 
L 469.617685 370.751601 
z
" style="fill:#1f77b4;"/>
   </g>
   <g id="patch_99">
    <path clip-path="url(#p8b082938ea)" d="M 472.847267 768.96 
L 474.462058 768.96 
L 474.462058 329.681642 
L 472.847267 329.681642 
z
" style="fill:#1f77b4;"/>
   </g>
   <g id="patch_100">
    <path clip-path="url(#p8b082938ea)" d="M 476.076849 768.96 
L 477.69164 768.96 
L 477.69164 238.553663 
L 476.076849 238.553663 
z
" style="fill:#1f77b4;"/>
   </g>
   <g id="patch_101">
    <path clip-path="url(#p8b082938ea)" d="M 479.306431 768.96 
L 480.921222 768.96 
L 480.921222 135.36 
L 479.306431 135.36 
z
" style="fill:#1f77b4;"/>
   </g>
   <g id="patch_102">
    <path clip-path="url(#p8b082938ea)" d="M 482.536013 768.96 
L 484.150804 768.96 
L 484.150804 340.068623 
L 482.536013 340.068623 
z
" style="fill:#1f77b4;"/>
   </g>
   <g id="patch_103">
    <path clip-path="url(#p8b082938ea)" d="M 485.765595 768.96 
L 487.380386 768.96 
L 487.380386 564.222233 
L 485.765595 564.222233 
z
" style="fill:#1f77b4;"/>
   </g>
   <g id="patch_104">
    <path clip-path="url(#p8b082938ea)" d="M 488.995177 768.96 
L 490.609968 768.96 
L 490.609968 418.186646 
L 488.995177 418.186646 
z
" style="fill:#1f77b4;"/>
   </g>
   <g id="patch_105">
    <path clip-path="url(#p8b082938ea)" d="M 492.224759 768.96 
L 493.83955 768.96 
L 493.83955 336.122503 
L 492.224759 336.122503 
z
" style="fill:#1f77b4;"/>
   </g>
   <g id="patch_106">
    <path clip-path="url(#p8b082938ea)" d="M 495.454341 768.96 
L 497.069132 768.96 
L 497.069132 396.485899 
L 495.454341 396.485899 
z
" style="fill:#1f77b4;"/>
   </g>
   <g id="patch_107">
    <path clip-path="url(#p8b082938ea)" d="M 498.683923 768.96 
L 500.298714 768.96 
L 500.298714 261.35023 
L 498.683923 261.35023 
z
" style="fill:#1f77b4;"/>
   </g>
   <g id="patch_108">
    <path clip-path="url(#p8b082938ea)" d="M 501.913505 768.96 
L 503.528296 768.96 
L 503.528296 267.464676 
L 501.913505 267.464676 
z
" style="fill:#1f77b4;"/>
   </g>
   <g id="patch_109">
    <path clip-path="url(#p8b082938ea)" d="M 505.143087 768.96 
L 506.757878 768.96 
L 506.757878 416.437996 
L 505.143087 416.437996 
z
" style="fill:#1f77b4;"/>
   </g>
   <g id="patch_110">
    <path clip-path="url(#p8b082938ea)" d="M 508.372669 768.96 
L 509.98746 768.96 
L 509.98746 564.770143 
L 508.372669 564.770143 
z
" style="fill:#1f77b4;"/>
   </g>
   <g id="patch_111">
    <path clip-path="url(#p8b082938ea)" d="M 511.602251 768.96 
L 513.217042 768.96 
L 513.217042 478.468439 
L 511.602251 478.468439 
z
" style="fill:#1f77b4;"/>
   </g>
   <g id="patch_112">
    <path clip-path="url(#p8b082938ea)" d="M 514.831833 768.96 
L 516.446624 768.96 
L 516.446624 298.036906 
L 514.831833 298.036906 
z
" style="fill:#1f77b4;"/>
   </g>
   <g id="patch_113">
    <path clip-path="url(#p8b082938ea)" d="M 518.061415 768.96 
L 519.676206 768.96 
L 519.676206 352.839596 
L 518.061415 352.839596 
z
" style="fill:#1f77b4;"/>
   </g>
   <g id="patch_114">
    <path clip-path="url(#p8b082938ea)" d="M 521.290997 768.96 
L 522.905788 768.96 
L 522.905788 333.202257 
L 521.290997 333.202257 
z
" style="fill:#1f77b4;"/>
   </g>
   <g id="patch_115">
    <path clip-path="url(#p8b082938ea)" d="M 524.520579 768.96 
L 526.13537 768.96 
L 526.13537 364.15919 
L 524.520579 364.15919 
z
" style="fill:#1f77b4;"/>
   </g>
   <g id="patch_116">
    <path clip-path="url(#p8b082938ea)" d="M 527.750161 768.96 
L 529.364952 768.96 
L 529.364952 500.59469 
L 527.750161 500.59469 
z
" style="fill:#1f77b4;"/>
   </g>
   <g id="patch_117">
    <path clip-path="url(#p8b082938ea)" d="M 530.979743 768.96 
L 532.594534 768.96 
L 532.594534 658.299601 
L 530.979743 658.299601 
z
" style="fill:#1f77b4;"/>
   </g>
   <g id="patch_118">
    <path clip-path="url(#p8b082938ea)" d="M 534.209325 768.96 
L 535.824116 768.96 
L 535.824116 517.364243 
L 534.209325 517.364243 
z
" style="fill:#1f77b4;"/>
   </g>
   <g id="patch_119">
    <path clip-path="url(#p8b082938ea)" d="M 537.438907 768.96 
L 539.053698 768.96 
L 539.053698 408.137737 
L 537.438907 408.137737 
z
" style="fill:#1f77b4;"/>
   </g>
   <g id="patch_120">
    <path clip-path="url(#p8b082938ea)" d="M 540.668489 768.96 
L 542.28328 768.96 
L 542.28328 393.78715 
L 540.668489 393.78715 
z
" style="fill:#1f77b4;"/>
   </g>
   <g id="patch_121">
    <path clip-path="url(#p8b082938ea)" d="M 543.898071 768.96 
L 545.512862 768.96 
L 545.512862 406.482348 
L 543.898071 406.482348 
z
" style="fill:#1f77b4;"/>
   </g>
   <g id="patch_122">
    <path clip-path="url(#p8b082938ea)" d="M 547.127653 768.96 
L 548.742444 768.96 
L 548.742444 454.803376 
L 547.127653 454.803376 
z
" style="fill:#1f77b4;"/>
   </g>
   <g id="patch_123">
    <path clip-path="url(#p8b082938ea)" d="M 550.357235 768.96 
L 551.972026 768.96 
L 551.972026 626.048667 
L 550.357235 626.048667 
z
" style="fill:#1f77b4;"/>
   </g>
   <g id="patch_124">
    <path clip-path="url(#p8b082938ea)" d="M 553.586817 768.96 
L 555.201608 768.96 
L 555.201608 723.541732 
L 553.586817 723.541732 
z
" style="fill:#1f77b4;"/>
   </g>
   <g id="patch_125">
    <path clip-path="url(#p8b082938ea)" d="M 556.816399 768.96 
L 558.43119 768.96 
L 558.43119 613.277693 
L 556.816399 613.277693 
z
" style="fill:#1f77b4;"/>
   </g>
   <g id="patch_126">
    <path clip-path="url(#p8b082938ea)" d="M 560.045981 768.96 
L 561.660772 768.96 
L 561.660772 361.932576 
L 560.045981 361.932576 
z
" style="fill:#1f77b4;"/>
   </g>
   <g id="patch_127">
    <path clip-path="url(#p8b082938ea)" d="M 563.275563 768.96 
L 564.890354 768.96 
L 564.890354 371.50352 
L 563.275563 371.50352 
z
" style="fill:#1f77b4;"/>
   </g>
   <g id="patch_128">
    <path clip-path="url(#p8b082938ea)" d="M 566.505145 768.96 
L 568.119936 768.96 
L 568.119936 470.896784 
L 566.505145 470.896784 
z
" style="fill:#1f77b4;"/>
   </g>
   <g id="patch_129">
    <path clip-path="url(#p8b082938ea)" d="M 569.734727 768.96 
L 571.349518 768.96 
L 571.349518 323.707088 
L 569.734727 323.707088 
z
" style="fill:#1f77b4;"/>
   </g>
   <g id="patch_130">
    <path clip-path="url(#p8b082938ea)" d="M 572.964309 768.96 
L 574.5791 768.96 
L 574.5791 467.492746 
L 572.964309 467.492746 
z
" style="fill:#1f77b4;"/>
   </g>
   <g id="patch_131">
    <path clip-path="url(#p8b082938ea)" d="M 576.193891 768.96 
L 577.808682 768.96 
L 577.808682 500.513086 
L 576.193891 500.513086 
z
" style="fill:#1f77b4;"/>
   </g>
   <g id="patch_132">
    <path clip-path="url(#p8b082938ea)" d="M 579.423473 768.96 
L 581.038264 768.96 
L 581.038264 528.981107 
L 579.423473 528.981107 
z
" style="fill:#1f77b4;"/>
   </g>
   <g id="patch_133">
    <path clip-path="url(#p8b082938ea)" d="M 582.653055 768.96 
L 584.267846 768.96 
L 584.267846 461.209264 
L 582.653055 461.209264 
z
" style="fill:#1f77b4;"/>
   </g>
   <g id="patch_134">
    <path clip-path="url(#p8b082938ea)" d="M 585.882637 768.96 
L 587.497428 768.96 
L 587.497428 490.067817 
L 585.882637 490.067817 
z
" style="fill:#1f77b4;"/>
   </g>
   <g id="patch_135">
    <path clip-path="url(#p8b082938ea)" d="M 589.112219 768.96 
L 590.72701 768.96 
L 590.72701 478.46261 
L 589.112219 478.46261 
z
" style="fill:#1f77b4;"/>
   </g>
   <g id="patch_136">
    <path clip-path="url(#p8b082938ea)" d="M 592.341801 768.96 
L 593.956592 768.96 
L 593.956592 349.965982 
L 592.341801 349.965982 
z
" style="fill:#1f77b4;"/>
   </g>
   <g id="patch_137">
    <path clip-path="url(#p8b082938ea)" d="M 595.571383 768.96 
L 597.186174 768.96 
L 597.186174 534.436895 
L 595.571383 534.436895 
z
" style="fill:#1f77b4;"/>
   </g>
   <g id="patch_138">
    <path clip-path="url(#p8b082938ea)" d="M 598.800965 768.96 
L 600.415756 768.96 
L 600.415756 674.766055 
L 598.800965 674.766055 
z
" style="fill:#1f77b4;"/>
   </g>
   <g id="patch_139">
    <path clip-path="url(#p8b082938ea)" d="M 602.030547 768.96 
L 603.645338 768.96 
L 603.645338 606.388013 
L 602.030547 606.388013 
z
" style="fill:#1f77b4;"/>
   </g>
   <g id="patch_140">
    <path clip-path="url(#p8b082938ea)" d="M 605.260129 768.96 
L 606.87492 768.96 
L 606.87492 466.606763 
L 605.260129 466.606763 
z
" style="fill:#1f77b4;"/>
   </g>
   <g id="patch_141">
    <path clip-path="url(#p8b082938ea)" d="M 608.489711 768.96 
L 610.104502 768.96 
L 610.104502 499.906887 
L 608.489711 499.906887 
z
" style="fill:#1f77b4;"/>
   </g>
   <g id="patch_142">
    <path clip-path="url(#p8b082938ea)" d="M 611.719293 768.96 
L 613.334084 768.96 
L 613.334084 383.749899 
L 611.719293 383.749899 
z
" style="fill:#1f77b4;"/>
   </g>
   <g id="patch_143">
    <path clip-path="url(#p8b082938ea)" d="M 614.948875 768.96 
L 616.563666 768.96 
L 616.563666 520.097966 
L 614.948875 520.097966 
z
" style="fill:#1f77b4;"/>
   </g>
   <g id="patch_144">
    <path clip-path="url(#p8b082938ea)" d="M 618.178457 768.96 
L 619.793248 768.96 
L 619.793248 569.036849 
L 618.178457 569.036849 
z
" style="fill:#1f77b4;"/>
   </g>
   <g id="patch_145">
    <path clip-path="url(#p8b082938ea)" d="M 621.408039 768.96 
L 623.02283 768.96 
L 623.02283 677.167534 
L 621.408039 677.167534 
z
" style="fill:#1f77b4;"/>
   </g>
   <g id="patch_146">
    <path clip-path="url(#p8b082938ea)" d="M 624.637621 768.96 
L 626.252412 768.96 
L 626.252412 617.917445 
L 624.637621 617.917445 
z
" style="fill:#1f77b4;"/>
   </g>
   <g id="patch_147">
    <path clip-path="url(#p8b082938ea)" d="M 627.867203 768.96 
L 629.481994 768.96 
L 629.481994 584.710582 
L 627.867203 584.710582 
z
" style="fill:#1f77b4;"/>
   </g>
   <g id="patch_148">
    <path clip-path="url(#p8b082938ea)" d="M 631.096785 768.96 
L 632.711576 768.96 
L 632.711576 583.754653 
L 631.096785 583.754653 
z
" style="fill:#1f77b4;"/>
   </g>
   <g id="patch_149">
    <path clip-path="url(#p8b082938ea)" d="M 634.326367 768.96 
L 635.941158 768.96 
L 635.941158 572.872222 
L 634.326367 572.872222 
z
" style="fill:#1f77b4;"/>
   </g>
   <g id="patch_150">
    <path clip-path="url(#p8b082938ea)" d="M 637.555949 768.96 
L 639.17074 768.96 
L 639.17074 586.348484 
L 637.555949 586.348484 
z
" style="fill:#1f77b4;"/>
   </g>
   <g id="patch_151">
    <path clip-path="url(#p8b082938ea)" d="M 640.785531 768.96 
L 642.400322 768.96 
L 642.400322 644.059762 
L 640.785531 644.059762 
z
" style="fill:#1f77b4;"/>
   </g>
   <g id="patch_152">
    <path clip-path="url(#p8b082938ea)" d="M 644.015113 768.96 
L 645.629904 768.96 
L 645.629904 698.862452 
L 644.015113 698.862452 
z
" style="fill:#1f77b4;"/>
   </g>
   <g id="patch_153">
    <path clip-path="url(#p8b082938ea)" d="M 647.244695 768.96 
L 648.859486 768.96 
L 648.859486 718.091772 
L 647.244695 718.091772 
z
" style="fill:#1f77b4;"/>
   </g>
   <g id="patch_154">
    <path clip-path="url(#p8b082938ea)" d="M 650.474277 768.96 
L 652.089068 768.96 
L 652.089068 659.00489 
L 650.474277 659.00489 
z
" style="fill:#1f77b4;"/>
   </g>
   <g id="patch_155">
    <path clip-path="url(#p8b082938ea)" d="M 653.703859 768.96 
L 655.31865 768.96 
L 655.31865 652.96039 
L 653.703859 652.96039 
z
" style="fill:#1f77b4;"/>
   </g>
   <g id="patch_156">
    <path clip-path="url(#p8b082938ea)" d="M 656.933441 768.96 
L 658.548232 768.96 
L 658.548232 581.085048 
L 656.933441 581.085048 
z
" style="fill:#1f77b4;"/>
   </g>
   <g id="patch_157">
    <path clip-path="url(#p8b082938ea)" d="M 660.163023 768.96 
L 661.777814 768.96 
L 661.777814 556.953678 
L 660.163023 556.953678 
z
" style="fill:#1f77b4;"/>
   </g>
   <g id="patch_158">
    <path clip-path="url(#p8b082938ea)" d="M 663.392605 768.96 
L 665.007395 768.96 
L 665.007395 579.482118 
L 663.392605 579.482118 
z
" style="fill:#1f77b4;"/>
   </g>
   <g id="patch_159">
    <path clip-path="url(#p8b082938ea)" d="M 666.622186 768.96 
L 668.236977 768.96 
L 668.236977 634.290637 
L 666.622186 634.290637 
z
" style="fill:#1f77b4;"/>
   </g>
   <g id="patch_160">
    <path clip-path="url(#p8b082938ea)" d="M 669.851768 768.96 
L 671.466559 768.96 
L 671.466559 582.466481 
L 669.851768 582.466481 
z
" style="fill:#1f77b4;"/>
   </g>
   <g id="patch_161">
    <path clip-path="url(#p8b082938ea)" d="M 673.08135 768.96 
L 674.696141 768.96 
L 674.696141 568.704606 
L 673.08135 568.704606 
z
" style="fill:#1f77b4;"/>
   </g>
   <g id="patch_162">
    <path clip-path="url(#p8b082938ea)" d="M 676.310932 768.96 
L 677.925723 768.96 
L 677.925723 535.282076 
L 676.310932 535.282076 
z
" style="fill:#1f77b4;"/>
   </g>
   <g id="patch_163">
    <path clip-path="url(#p8b082938ea)" d="M 679.540514 768.96 
L 681.155305 768.96 
L 681.155305 606.941752 
L 679.540514 606.941752 
z
" style="fill:#1f77b4;"/>
   </g>
   <g id="patch_164">
    <path clip-path="url(#p8b082938ea)" d="M 682.770096 768.96 
L 684.384887 768.96 
L 684.384887 615.562596 
L 682.770096 615.562596 
z
" style="fill:#1f77b4;"/>
   </g>
   <g id="patch_165">
    <path clip-path="url(#p8b082938ea)" d="M 685.999678 768.96 
L 687.614469 768.96 
L 687.614469 674.760226 
L 685.999678 674.760226 
z
" style="fill:#1f77b4;"/>
   </g>
   <g id="patch_166">
    <path clip-path="url(#p8b082938ea)" d="M 689.22926 768.96 
L 690.844051 768.96 
L 690.844051 675.564605 
L 689.22926 675.564605 
z
" style="fill:#1f77b4;"/>
   </g>
   <g id="patch_167">
    <path clip-path="url(#p8b082938ea)" d="M 692.458842 768.96 
L 694.073633 768.96 
L 694.073633 484.990903 
L 692.458842 484.990903 
z
" style="fill:#1f77b4;"/>
   </g>
   <g id="patch_168">
    <path clip-path="url(#p8b082938ea)" d="M 695.688424 768.96 
L 697.303215 768.96 
L 697.303215 558.177733 
L 695.688424 558.177733 
z
" style="fill:#1f77b4;"/>
   </g>
   <g id="patch_169">
    <path clip-path="url(#p8b082938ea)" d="M 698.918006 768.96 
L 700.532797 768.96 
L 700.532797 624.643918 
L 698.918006 624.643918 
z
" style="fill:#1f77b4;"/>
   </g>
   <g id="patch_170">
    <path clip-path="url(#p8b082938ea)" d="M 702.147588 768.96 
L 703.762379 768.96 
L 703.762379 579.289767 
L 702.147588 579.289767 
z
" style="fill:#1f77b4;"/>
   </g>
   <g id="patch_171">
    <path clip-path="url(#p8b082938ea)" d="M 705.37717 768.96 
L 706.991961 768.96 
L 706.991961 677.715445 
L 705.37717 677.715445 
z
" style="fill:#1f77b4;"/>
   </g>
   <g id="patch_172">
    <path clip-path="url(#p8b082938ea)" d="M 708.606752 768.96 
L 710.221543 768.96 
L 710.221543 626.98128 
L 708.606752 626.98128 
z
" style="fill:#1f77b4;"/>
   </g>
   <g id="patch_173">
    <path clip-path="url(#p8b082938ea)" d="M 711.836334 768.96 
L 713.451125 768.96 
L 713.451125 708.398423 
L 711.836334 708.398423 
z
" style="fill:#1f77b4;"/>
   </g>
   <g id="patch_174">
    <path clip-path="url(#p8b082938ea)" d="M 715.065916 768.96 
L 716.680707 768.96 
L 716.680707 694.834728 
L 715.065916 694.834728 
z
" style="fill:#1f77b4;"/>
   </g>
   <g id="patch_175">
    <path clip-path="url(#p8b082938ea)" d="M 718.295498 768.96 
L 719.910289 768.96 
L 719.910289 678.595599 
L 718.295498 678.595599 
z
" style="fill:#1f77b4;"/>
   </g>
   <g id="patch_176">
    <path clip-path="url(#p8b082938ea)" d="M 721.52508 768.96 
L 723.139871 768.96 
L 723.139871 659.372107 
L 721.52508 659.372107 
z
" style="fill:#1f77b4;"/>
   </g>
   <g id="patch_177">
    <path clip-path="url(#p8b082938ea)" d="M 724.754662 768.96 
L 726.369453 768.96 
L 726.369453 635.806134 
L 724.754662 635.806134 
z
" style="fill:#1f77b4;"/>
   </g>
   <g id="patch_178">
    <path clip-path="url(#p8b082938ea)" d="M 727.984244 768.96 
L 729.599035 768.96 
L 729.599035 473.181687 
L 727.984244 473.181687 
z
" style="fill:#1f77b4;"/>
   </g>
   <g id="patch_179">
    <path clip-path="url(#p8b082938ea)" d="M 731.213826 768.96 
L 732.828617 768.96 
L 732.828617 427.238824 
L 731.213826 427.238824 
z
" style="fill:#1f77b4;"/>
   </g>
   <g id="patch_180">
    <path clip-path="url(#p8b082938ea)" d="M 734.443408 768.96 
L 736.058199 768.96 
L 736.058199 738.370283 
L 734.443408 738.370283 
z
" style="fill:#1f77b4;"/>
   </g>
   <g id="patch_181">
    <path clip-path="url(#p8b082938ea)" d="M 737.67299 768.96 
L 739.287781 768.96 
L 739.287781 692.928699 
L 737.67299 692.928699 
z
" style="fill:#1f77b4;"/>
   </g>
   <g id="patch_182">
    <path clip-path="url(#p8b082938ea)" d="M 740.902572 768.96 
L 742.517363 768.96 
L 742.517363 675.1391 
L 740.902572 675.1391 
z
" style="fill:#1f77b4;"/>
   </g>
   <g id="patch_183">
    <path clip-path="url(#p8b082938ea)" d="M 744.132154 768.96 
L 745.746945 768.96 
L 745.746945 678.653887 
L 744.132154 678.653887 
z
" style="fill:#1f77b4;"/>
   </g>
   <g id="patch_184">
    <path clip-path="url(#p8b082938ea)" d="M 747.361736 768.96 
L 748.976527 768.96 
L 748.976527 687.810984 
L 747.361736 687.810984 
z
" style="fill:#1f77b4;"/>
   </g>
   <g id="patch_185">
    <path clip-path="url(#p8b082938ea)" d="M 750.591318 768.96 
L 752.206109 768.96 
L 752.206109 687.799326 
L 750.591318 687.799326 
z
" style="fill:#1f77b4;"/>
   </g>
   <g id="patch_186">
    <path clip-path="url(#p8b082938ea)" d="M 753.8209 768.96 
L 755.435691 768.96 
L 755.435691 708.351792 
L 753.8209 708.351792 
z
" style="fill:#1f77b4;"/>
   </g>
   <g id="patch_187">
    <path clip-path="url(#p8b082938ea)" d="M 757.050482 768.96 
L 758.665273 768.96 
L 758.665273 739.874122 
L 757.050482 739.874122 
z
" style="fill:#1f77b4;"/>
   </g>
   <g id="patch_188">
    <path clip-path="url(#p8b082938ea)" d="M 760.280064 768.96 
L 761.894855 768.96 
L 761.894855 764.005492 
L 760.280064 764.005492 
z
" style="fill:#1f77b4;"/>
   </g>
   <g id="patch_189">
    <path clip-path="url(#p8b082938ea)" d="M 763.509646 768.96 
L 765.124437 768.96 
L 765.124437 721.839712 
L 763.509646 721.839712 
z
" style="fill:#1f77b4;"/>
   </g>
   <g id="patch_190">
    <path clip-path="url(#p8b082938ea)" d="M 766.739228 768.96 
L 768.354019 768.96 
L 768.354019 685.788379 
L 766.739228 685.788379 
z
" style="fill:#1f77b4;"/>
   </g>
   <g id="patch_191">
    <path clip-path="url(#p8b082938ea)" d="M 769.96881 768.96 
L 771.583601 768.96 
L 771.583601 685.520252 
L 769.96881 685.520252 
z
" style="fill:#1f77b4;"/>
   </g>
   <g id="patch_192">
    <path clip-path="url(#p8b082938ea)" d="M 773.198392 768.96 
L 774.813183 768.96 
L 774.813183 695.679909 
L 773.198392 695.679909 
z
" style="fill:#1f77b4;"/>
   </g>
   <g id="patch_193">
    <path clip-path="url(#p8b082938ea)" d="M 776.427974 768.96 
L 778.042765 768.96 
L 778.042765 707.127737 
L 776.427974 707.127737 
z
" style="fill:#1f77b4;"/>
   </g>
   <g id="patch_194">
    <path clip-path="url(#p8b082938ea)" d="M 779.657556 768.96 
L 781.272347 768.96 
L 781.272347 726.782563 
L 779.657556 726.782563 
z
" style="fill:#1f77b4;"/>
   </g>
   <g id="patch_195">
    <path clip-path="url(#p8b082938ea)" d="M 782.887138 768.96 
L 784.501929 768.96 
L 784.501929 690.323211 
L 782.887138 690.323211 
z
" style="fill:#1f77b4;"/>
   </g>
   <g id="patch_196">
    <path clip-path="url(#p8b082938ea)" d="M 786.11672 768.96 
L 787.731511 768.96 
L 787.731511 703.694554 
L 786.11672 703.694554 
z
" style="fill:#1f77b4;"/>
   </g>
   <g id="patch_197">
    <path clip-path="url(#p8b082938ea)" d="M 789.346302 768.96 
L 790.961093 768.96 
L 790.961093 706.708061 
L 789.346302 706.708061 
z
" style="fill:#1f77b4;"/>
   </g>
   <g id="patch_198">
    <path clip-path="url(#p8b082938ea)" d="M 792.575884 768.96 
L 794.190675 768.96 
L 794.190675 707.139395 
L 792.575884 707.139395 
z
" style="fill:#1f77b4;"/>
   </g>
   <g id="patch_199">
    <path clip-path="url(#p8b082938ea)" d="M 795.805466 768.96 
L 797.420257 768.96 
L 797.420257 706.422448 
L 795.805466 706.422448 
z
" style="fill:#1f77b4;"/>
   </g>
   <g id="patch_200">
    <path clip-path="url(#p8b082938ea)" d="M 799.035048 768.96 
L 800.649839 768.96 
L 800.649839 716.920177 
L 799.035048 716.920177 
z
" style="fill:#1f77b4;"/>
   </g>
   <g id="patch_201">
    <path clip-path="url(#p8b082938ea)" d="M 802.26463 768.96 
L 803.879421 768.96 
L 803.879421 733.608127 
L 802.26463 733.608127 
z
" style="fill:#1f77b4;"/>
   </g>
   <g id="patch_202">
    <path clip-path="url(#p8b082938ea)" d="M 805.494212 768.96 
L 807.109003 768.96 
L 807.109003 716.436384 
L 805.494212 716.436384 
z
" style="fill:#1f77b4;"/>
   </g>
   <g id="patch_203">
    <path clip-path="url(#p8b082938ea)" d="M 808.723794 768.96 
L 810.338585 768.96 
L 810.338585 698.693416 
L 808.723794 698.693416 
z
" style="fill:#1f77b4;"/>
   </g>
   <g id="patch_204">
    <path clip-path="url(#p8b082938ea)" d="M 811.953376 768.96 
L 813.568167 768.96 
L 813.568167 703.391455 
L 811.953376 703.391455 
z
" style="fill:#1f77b4;"/>
   </g>
   <g id="patch_205">
    <path clip-path="url(#p8b082938ea)" d="M 815.182958 768.96 
L 816.797749 768.96 
L 816.797749 721.332604 
L 815.182958 721.332604 
z
" style="fill:#1f77b4;"/>
   </g>
   <g id="patch_206">
    <path clip-path="url(#p8b082938ea)" d="M 818.41254 768.96 
L 820.027331 768.96 
L 820.027331 720.295071 
L 818.41254 720.295071 
z
" style="fill:#1f77b4;"/>
   </g>
   <g id="patch_207">
    <path clip-path="url(#p8b082938ea)" d="M 821.642122 768.96 
L 823.256913 768.96 
L 823.256913 738.690869 
L 821.642122 738.690869 
z
" style="fill:#1f77b4;"/>
   </g>
   <g id="patch_208">
    <path clip-path="url(#p8b082938ea)" d="M 824.871704 768.96 
L 826.486495 768.96 
L 826.486495 751.362753 
L 824.871704 751.362753 
z
" style="fill:#1f77b4;"/>
   </g>
   <g id="patch_209">
    <path clip-path="url(#p8b082938ea)" d="M 828.101286 768.96 
L 829.716077 768.96 
L 829.716077 739.640969 
L 828.101286 739.640969 
z
" style="fill:#1f77b4;"/>
   </g>
   <g id="patch_210">
    <path clip-path="url(#p8b082938ea)" d="M 831.330868 768.96 
L 832.945659 768.96 
L 832.945659 702.190715 
L 831.330868 702.190715 
z
" style="fill:#1f77b4;"/>
   </g>
   <g id="patch_211">
    <path clip-path="url(#p8b082938ea)" d="M 834.56045 768.96 
L 836.175241 768.96 
L 836.175241 656.95897 
L 834.56045 656.95897 
z
" style="fill:#1f77b4;"/>
   </g>
   <g id="patch_212">
    <path clip-path="url(#p8b082938ea)" d="M 837.790032 768.96 
L 839.404823 768.96 
L 839.404823 710.694983 
L 837.790032 710.694983 
z
" style="fill:#1f77b4;"/>
   </g>
   <g id="patch_213">
    <path clip-path="url(#p8b082938ea)" d="M 841.019614 768.96 
L 842.634405 768.96 
L 842.634405 642.614211 
L 841.019614 642.614211 
z
" style="fill:#1f77b4;"/>
   </g>
   <g id="patch_214">
    <path clip-path="url(#p8b082938ea)" d="M 844.249196 768.96 
L 845.863987 768.96 
L 845.863987 722.958848 
L 844.249196 722.958848 
z
" style="fill:#1f77b4;"/>
   </g>
   <g id="patch_215">
    <path clip-path="url(#p8b082938ea)" d="M 847.478778 768.96 
L 849.093569 768.96 
L 849.093569 734.517424 
L 847.478778 734.517424 
z
" style="fill:#1f77b4;"/>
   </g>
   <g id="patch_216">
    <path clip-path="url(#p8b082938ea)" d="M 850.70836 768.96 
L 852.323151 768.96 
L 852.323151 722.183613 
L 850.70836 722.183613 
z
" style="fill:#1f77b4;"/>
   </g>
   <g id="patch_217">
    <path clip-path="url(#p8b082938ea)" d="M 853.937942 768.96 
L 855.552733 768.96 
L 855.552733 705.618069 
L 853.937942 705.618069 
z
" style="fill:#1f77b4;"/>
   </g>
   <g id="patch_218">
    <path clip-path="url(#p8b082938ea)" d="M 857.167524 768.96 
L 858.782315 768.96 
L 858.782315 710.630866 
L 857.167524 710.630866 
z
" style="fill:#1f77b4;"/>
   </g>
   <g id="patch_219">
    <path clip-path="url(#p8b082938ea)" d="M 860.397106 768.96 
L 862.011897 768.96 
L 862.011897 708.590774 
L 860.397106 708.590774 
z
" style="fill:#1f77b4;"/>
   </g>
   <g id="patch_220">
    <path clip-path="url(#p8b082938ea)" d="M 863.626688 768.96 
L 865.241479 768.96 
L 865.241479 704.685456 
L 863.626688 704.685456 
z
" style="fill:#1f77b4;"/>
   </g>
   <g id="patch_221">
    <path clip-path="url(#p8b082938ea)" d="M 866.85627 768.96 
L 868.471061 768.96 
L 868.471061 666.343391 
L 866.85627 666.343391 
z
" style="fill:#1f77b4;"/>
   </g>
   <g id="patch_222">
    <path clip-path="url(#p8b082938ea)" d="M 870.085852 768.96 
L 871.700643 768.96 
L 871.700643 728.974204 
L 870.085852 728.974204 
z
" style="fill:#1f77b4;"/>
   </g>
   <g id="patch_223">
    <path clip-path="url(#p8b082938ea)" d="M 873.315434 768.96 
L 874.930225 768.96 
L 874.930225 723.681624 
L 873.315434 723.681624 
z
" style="fill:#1f77b4;"/>
   </g>
   <g id="patch_224">
    <path clip-path="url(#p8b082938ea)" d="M 876.545016 768.96 
L 878.159807 768.96 
L 878.159807 725.715886 
L 876.545016 725.715886 
z
" style="fill:#1f77b4;"/>
   </g>
   <g id="patch_225">
    <path clip-path="url(#p8b082938ea)" d="M 879.774598 768.96 
L 881.389389 768.96 
L 881.389389 613.94218 
L 879.774598 613.94218 
z
" style="fill:#1f77b4;"/>
   </g>
   <g id="patch_226">
    <path clip-path="url(#p8b082938ea)" d="M 883.00418 768.96 
L 884.618971 768.96 
L 884.618971 632.419582 
L 883.00418 632.419582 
z
" style="fill:#1f77b4;"/>
   </g>
   <g id="patch_227">
    <path clip-path="url(#p8b082938ea)" d="M 886.233762 768.96 
L 887.848553 768.96 
L 887.848553 645.680177 
L 886.233762 645.680177 
z
" style="fill:#1f77b4;"/>
   </g>
   <g id="patch_228">
    <path clip-path="url(#p8b082938ea)" d="M 889.463344 768.96 
L 891.078135 768.96 
L 891.078135 607.95014 
L 889.463344 607.95014 
z
" style="fill:#1f77b4;"/>
   </g>
   <g id="patch_229">
    <path clip-path="url(#p8b082938ea)" d="M 892.692926 768.96 
L 894.307717 768.96 
L 894.307717 658.468637 
L 892.692926 658.468637 
z
" style="fill:#1f77b4;"/>
   </g>
   <g id="patch_230">
    <path clip-path="url(#p8b082938ea)" d="M 895.922508 768.96 
L 897.537299 768.96 
L 897.537299 715.218158 
L 895.922508 715.218158 
z
" style="fill:#1f77b4;"/>
   </g>
   <g id="patch_231">
    <path clip-path="url(#p8b082938ea)" d="M 899.15209 768.96 
L 900.766881 768.96 
L 900.766881 692.771321 
L 899.15209 692.771321 
z
" style="fill:#1f77b4;"/>
   </g>
   <g id="patch_232">
    <path clip-path="url(#p8b082938ea)" d="M 902.381672 768.96 
L 903.996463 768.96 
L 903.996463 697.032198 
L 902.381672 697.032198 
z
" style="fill:#1f77b4;"/>
   </g>
   <g id="patch_233">
    <path clip-path="url(#p8b082938ea)" d="M 905.611254 768.96 
L 907.226045 768.96 
L 907.226045 700.791795 
L 905.611254 700.791795 
z
" style="fill:#1f77b4;"/>
   </g>
   <g id="patch_234">
    <path clip-path="url(#p8b082938ea)" d="M 908.840836 768.96 
L 910.455627 768.96 
L 910.455627 702.989266 
L 908.840836 702.989266 
z
" style="fill:#1f77b4;"/>
   </g>
   <g id="patch_235">
    <path clip-path="url(#p8b082938ea)" d="M 912.070418 768.96 
L 913.685209 768.96 
L 913.685209 701.549544 
L 912.070418 701.549544 
z
" style="fill:#1f77b4;"/>
   </g>
   <g id="patch_236">
    <path clip-path="url(#p8b082938ea)" d="M 915.3 768.96 
L 916.914791 768.96 
L 916.914791 724.130444 
L 915.3 724.130444 
z
" style="fill:#1f77b4;"/>
   </g>
   <g id="patch_237">
    <path clip-path="url(#p8b082938ea)" d="M 918.529582 768.96 
L 920.144373 768.96 
L 920.144373 714.227256 
L 918.529582 714.227256 
z
" style="fill:#1f77b4;"/>
   </g>
   <g id="patch_238">
    <path clip-path="url(#p8b082938ea)" d="M 921.759164 768.96 
L 923.373955 768.96 
L 923.373955 693.202655 
L 921.759164 693.202655 
z
" style="fill:#1f77b4;"/>
   </g>
   <g id="patch_239">
    <path clip-path="url(#p8b082938ea)" d="M 924.988746 768.96 
L 926.603537 768.96 
L 926.603537 696.484288 
L 924.988746 696.484288 
z
" style="fill:#1f77b4;"/>
   </g>
   <g id="patch_240">
    <path clip-path="url(#p8b082938ea)" d="M 928.218328 768.96 
L 929.833119 768.96 
L 929.833119 692.468222 
L 928.218328 692.468222 
z
" style="fill:#1f77b4;"/>
   </g>
   <g id="patch_241">
    <path clip-path="url(#p8b082938ea)" d="M 931.44791 768.96 
L 933.062701 768.96 
L 933.062701 682.366854 
L 931.44791 682.366854 
z
" style="fill:#1f77b4;"/>
   </g>
   <g id="patch_242">
    <path clip-path="url(#p8b082938ea)" d="M 934.677492 768.96 
L 936.292283 768.96 
L 936.292283 642.940626 
L 934.677492 642.940626 
z
" style="fill:#1f77b4;"/>
   </g>
   <g id="patch_243">
    <path clip-path="url(#p8b082938ea)" d="M 937.907074 768.96 
L 939.521865 768.96 
L 939.521865 564.502017 
L 937.907074 564.502017 
z
" style="fill:#1f77b4;"/>
   </g>
   <g id="patch_244">
    <path clip-path="url(#p8b082938ea)" d="M 941.136656 768.96 
L 942.751447 768.96 
L 942.751447 674.14237 
L 941.136656 674.14237 
z
" style="fill:#1f77b4;"/>
   </g>
   <g id="patch_245">
    <path clip-path="url(#p8b082938ea)" d="M 944.366238 768.96 
L 945.981029 768.96 
L 945.981029 693.884628 
L 944.366238 693.884628 
z
" style="fill:#1f77b4;"/>
   </g>
   <g id="patch_246">
    <path clip-path="url(#p8b082938ea)" d="M 947.59582 768.96 
L 949.210611 768.96 
L 949.210611 698.92074 
L 947.59582 698.92074 
z
" style="fill:#1f77b4;"/>
   </g>
   <g id="patch_247">
    <path clip-path="url(#p8b082938ea)" d="M 950.825402 768.96 
L 952.440193 768.96 
L 952.440193 704.504762 
L 950.825402 704.504762 
z
" style="fill:#1f77b4;"/>
   </g>
   <g id="patch_248">
    <path clip-path="url(#p8b082938ea)" d="M 954.054984 768.96 
L 955.669775 768.96 
L 955.669775 703.770329 
L 954.054984 703.770329 
z
" style="fill:#1f77b4;"/>
   </g>
   <g id="patch_249">
    <path clip-path="url(#p8b082938ea)" d="M 957.284566 768.96 
L 958.899357 768.96 
L 958.899357 707.996233 
L 957.284566 707.996233 
z
" style="fill:#1f77b4;"/>
   </g>
   <g id="patch_250">
    <path clip-path="url(#p8b082938ea)" d="M 960.514148 768.96 
L 962.128939 768.96 
L 962.128939 727.103149 
L 960.514148 727.103149 
z
" style="fill:#1f77b4;"/>
   </g>
   <g id="patch_251">
    <path clip-path="url(#p8b082938ea)" d="M 963.74373 768.96 
L 965.358521 768.96 
L 965.358521 739.524392 
L 963.74373 739.524392 
z
" style="fill:#1f77b4;"/>
   </g>
   <g id="patch_252">
    <path clip-path="url(#p8b082938ea)" d="M 966.973312 768.96 
L 968.588103 768.96 
L 968.588103 732.966955 
L 966.973312 732.966955 
z
" style="fill:#1f77b4;"/>
   </g>
   <g id="patch_253">
    <path clip-path="url(#p8b082938ea)" d="M 970.202894 768.96 
L 971.817685 768.96 
L 971.817685 695.767341 
L 970.202894 695.767341 
z
" style="fill:#1f77b4;"/>
   </g>
   <g id="patch_254">
    <path clip-path="url(#p8b082938ea)" d="M 973.432476 768.96 
L 975.047267 768.96 
L 975.047267 704.877808 
L 973.432476 704.877808 
z
" style="fill:#1f77b4;"/>
   </g>
   <g id="patch_255">
    <path clip-path="url(#p8b082938ea)" d="M 976.662058 768.96 
L 978.276849 768.96 
L 978.276849 707.81554 
L 976.662058 707.81554 
z
" style="fill:#1f77b4;"/>
   </g>
   <g id="patch_256">
    <path clip-path="url(#p8b082938ea)" d="M 979.89164 768.96 
L 981.506431 768.96 
L 981.506431 712.694273 
L 979.89164 712.694273 
z
" style="fill:#1f77b4;"/>
   </g>
   <g id="patch_257">
    <path clip-path="url(#p8b082938ea)" d="M 983.121222 768.96 
L 984.736013 768.96 
L 984.736013 727.091491 
L 983.121222 727.091491 
z
" style="fill:#1f77b4;"/>
   </g>
   <g id="patch_258">
    <path clip-path="url(#p8b082938ea)" d="M 986.350804 768.96 
L 987.965595 768.96 
L 987.965595 722.311848 
L 986.350804 722.311848 
z
" style="fill:#1f77b4;"/>
   </g>
   <g id="patch_259">
    <path clip-path="url(#p8b082938ea)" d="M 989.580386 768.96 
L 991.195177 768.96 
L 991.195177 706.305872 
L 989.580386 706.305872 
z
" style="fill:#1f77b4;"/>
   </g>
   <g id="patch_260">
    <path clip-path="url(#p8b082938ea)" d="M 992.809968 768.96 
L 994.424759 768.96 
L 994.424759 709.540874 
L 992.809968 709.540874 
z
" style="fill:#1f77b4;"/>
   </g>
   <g id="patch_261">
    <path clip-path="url(#p8b082938ea)" d="M 996.03955 768.96 
L 997.654341 768.96 
L 997.654341 709.039594 
L 996.03955 709.039594 
z
" style="fill:#1f77b4;"/>
   </g>
   <g id="patch_262">
    <path clip-path="url(#p8b082938ea)" d="M 999.269132 768.96 
L 1000.883923 768.96 
L 1000.883923 706.894584 
L 999.269132 706.894584 
z
" style="fill:#1f77b4;"/>
   </g>
   <g id="patch_263">
    <path clip-path="url(#p8b082938ea)" d="M 1002.498714 768.96 
L 1004.113505 768.96 
L 1004.113505 707.827197 
L 1002.498714 707.827197 
z
" style="fill:#1f77b4;"/>
   </g>
   <g id="patch_264">
    <path clip-path="url(#p8b082938ea)" d="M 1005.728296 768.96 
L 1007.343087 768.96 
L 1007.343087 724.404399 
L 1005.728296 724.404399 
z
" style="fill:#1f77b4;"/>
   </g>
   <g id="patch_265">
    <path clip-path="url(#p8b082938ea)" d="M 1008.957878 768.96 
L 1010.572669 768.96 
L 1010.572669 727.820095 
L 1008.957878 727.820095 
z
" style="fill:#1f77b4;"/>
   </g>
   <g id="patch_266">
    <path clip-path="url(#p8b082938ea)" d="M 1012.18746 768.96 
L 1013.802251 768.96 
L 1013.802251 698.850794 
L 1012.18746 698.850794 
z
" style="fill:#1f77b4;"/>
   </g>
   <g id="patch_267">
    <path clip-path="url(#p8b082938ea)" d="M 1015.417042 768.96 
L 1017.031833 768.96 
L 1017.031833 718.167547 
L 1015.417042 718.167547 
z
" style="fill:#1f77b4;"/>
   </g>
   <g id="patch_268">
    <path clip-path="url(#p8b082938ea)" d="M 1018.646624 768.96 
L 1020.261415 768.96 
L 1020.261415 695.085368 
L 1018.646624 695.085368 
z
" style="fill:#1f77b4;"/>
   </g>
   <g id="patch_269">
    <path clip-path="url(#p8b082938ea)" d="M 1021.876206 768.96 
L 1023.490997 768.96 
L 1023.490997 698.180478 
L 1021.876206 698.180478 
z
" style="fill:#1f77b4;"/>
   </g>
   <g id="patch_270">
    <path clip-path="url(#p8b082938ea)" d="M 1025.105788 768.96 
L 1026.720579 768.96 
L 1026.720579 712.076417 
L 1025.105788 712.076417 
z
" style="fill:#1f77b4;"/>
   </g>
   <g id="patch_271">
    <path clip-path="url(#p8b082938ea)" d="M 1028.33537 768.96 
L 1029.950161 768.96 
L 1029.950161 731.719585 
L 1028.33537 731.719585 
z
" style="fill:#1f77b4;"/>
   </g>
   <g id="patch_272">
    <path clip-path="url(#p8b082938ea)" d="M 1031.564952 768.96 
L 1033.179743 768.96 
L 1033.179743 722.323505 
L 1031.564952 722.323505 
z
" style="fill:#1f77b4;"/>
   </g>
   <g id="patch_273">
    <path clip-path="url(#p8b082938ea)" d="M 1034.794534 768.96 
L 1036.409325 768.96 
L 1036.409325 714.174797 
L 1034.794534 714.174797 
z
" style="fill:#1f77b4;"/>
   </g>
   <g id="patch_274">
    <path clip-path="url(#p8b082938ea)" d="M 1038.024116 768.96 
L 1039.638907 768.96 
L 1039.638907 729.417195 
L 1038.024116 729.417195 
z
" style="fill:#1f77b4;"/>
   </g>
   <g id="patch_275">
    <path clip-path="url(#p8b082938ea)" d="M 1041.253698 768.96 
L 1042.868489 768.96 
L 1042.868489 741.681061 
L 1041.253698 741.681061 
z
" style="fill:#1f77b4;"/>
   </g>
   <g id="patch_276">
    <path clip-path="url(#p8b082938ea)" d="M 1044.48328 768.96 
L 1046.098071 768.96 
L 1046.098071 700.931687 
L 1044.48328 700.931687 
z
" style="fill:#1f77b4;"/>
   </g>
   <g id="patch_277">
    <path clip-path="url(#p8b082938ea)" d="M 1047.712862 768.96 
L 1049.327653 768.96 
L 1049.327653 679.942059 
L 1047.712862 679.942059 
z
" style="fill:#1f77b4;"/>
   </g>
   <g id="patch_278">
    <path clip-path="url(#p8b082938ea)" d="M 1050.942444 768.96 
L 1052.557235 768.96 
L 1052.557235 738.067184 
L 1050.942444 738.067184 
z
" style="fill:#1f77b4;"/>
   </g>
   <g id="patch_279">
    <path clip-path="url(#p8b082938ea)" d="M 1054.172026 768.96 
L 1055.786817 768.96 
L 1055.786817 711.242893 
L 1054.172026 711.242893 
z
" style="fill:#1f77b4;"/>
   </g>
   <g id="patch_280">
    <path clip-path="url(#p8b082938ea)" d="M 1057.401608 768.96 
L 1059.016399 768.96 
L 1059.016399 736.440939 
L 1057.401608 736.440939 
z
" style="fill:#1f77b4;"/>
   </g>
   <g id="patch_281">
    <path clip-path="url(#p8b082938ea)" d="M 1060.63119 768.96 
L 1062.245981 768.96 
L 1062.245981 701.724409 
L 1060.63119 701.724409 
z
" style="fill:#1f77b4;"/>
   </g>
   <g id="patch_282">
    <path clip-path="url(#p8b082938ea)" d="M 1063.860772 768.96 
L 1065.475563 768.96 
L 1065.475563 723.022965 
L 1063.860772 723.022965 
z
" style="fill:#1f77b4;"/>
   </g>
   <g id="patch_283">
    <path clip-path="url(#p8b082938ea)" d="M 1067.090354 768.96 
L 1068.705145 768.96 
L 1068.705145 724.159588 
L 1067.090354 724.159588 
z
" style="fill:#1f77b4;"/>
   </g>
   <g id="patch_284">
    <path clip-path="url(#p8b082938ea)" d="M 1070.319936 768.96 
L 1071.934727 768.96 
L 1071.934727 737.396868 
L 1070.319936 737.396868 
z
" style="fill:#1f77b4;"/>
   </g>
   <g id="patch_285">
    <path clip-path="url(#p8b082938ea)" d="M 1073.549518 768.96 
L 1075.164309 768.96 
L 1075.164309 746.046857 
L 1073.549518 746.046857 
z
" style="fill:#1f77b4;"/>
   </g>
   <g id="patch_286">
    <path clip-path="url(#p8b082938ea)" d="M 1076.7791 768.96 
L 1078.393891 768.96 
L 1078.393891 737.764085 
L 1076.7791 737.764085 
z
" style="fill:#1f77b4;"/>
   </g>
   <g id="patch_287">
    <path clip-path="url(#p8b082938ea)" d="M 1080.008682 768.96 
L 1081.623473 768.96 
L 1081.623473 722.568316 
L 1080.008682 722.568316 
z
" style="fill:#1f77b4;"/>
   </g>
   <g id="patch_288">
    <path clip-path="url(#p8b082938ea)" d="M 1083.238264 768.96 
L 1084.853055 768.96 
L 1084.853055 718.470647 
L 1083.238264 718.470647 
z
" style="fill:#1f77b4;"/>
   </g>
   <g id="patch_289">
    <path clip-path="url(#p8b082938ea)" d="M 1086.467846 768.96 
L 1088.082637 768.96 
L 1088.082637 732.413216 
L 1086.467846 732.413216 
z
" style="fill:#1f77b4;"/>
   </g>
   <g id="patch_290">
    <path clip-path="url(#p8b082938ea)" d="M 1089.697428 768.96 
L 1091.312219 768.96 
L 1091.312219 708.019549 
L 1089.697428 708.019549 
z
" style="fill:#1f77b4;"/>
   </g>
   <g id="patch_291">
    <path clip-path="url(#p8b082938ea)" d="M 1092.92701 768.96 
L 1094.541801 768.96 
L 1094.541801 732.535621 
L 1092.92701 732.535621 
z
" style="fill:#1f77b4;"/>
   </g>
   <g id="patch_292">
    <path clip-path="url(#p8b082938ea)" d="M 1096.156592 768.96 
L 1097.771383 768.96 
L 1097.771383 747.550696 
L 1096.156592 747.550696 
z
" style="fill:#1f77b4;"/>
   </g>
   <g id="patch_293">
    <path clip-path="url(#p8b082938ea)" d="M 1099.386174 768.96 
L 1101.000965 768.96 
L 1101.000965 734.581542 
L 1099.386174 734.581542 
z
" style="fill:#1f77b4;"/>
   </g>
   <g id="patch_294">
    <path clip-path="url(#p8b082938ea)" d="M 1102.615756 768.96 
L 1104.230547 768.96 
L 1104.230547 729.038321 
L 1102.615756 729.038321 
z
" style="fill:#1f77b4;"/>
   </g>
   <g id="patch_295">
    <path clip-path="url(#p8b082938ea)" d="M 1105.845338 768.96 
L 1107.460129 768.96 
L 1107.460129 727.621915 
L 1105.845338 727.621915 
z
" style="fill:#1f77b4;"/>
   </g>
   <g id="patch_296">
    <path clip-path="url(#p8b082938ea)" d="M 1109.07492 768.96 
L 1110.689711 768.96 
L 1110.689711 722.364307 
L 1109.07492 722.364307 
z
" style="fill:#1f77b4;"/>
   </g>
   <g id="patch_297">
    <path clip-path="url(#p8b082938ea)" d="M 1112.304502 768.96 
L 1113.919293 768.96 
L 1113.919293 725.476904 
L 1112.304502 725.476904 
z
" style="fill:#1f77b4;"/>
   </g>
   <g id="patch_298">
    <path clip-path="url(#p8b082938ea)" d="M 1115.534084 768.96 
L 1117.148875 768.96 
L 1117.148875 730.454728 
L 1115.534084 730.454728 
z
" style="fill:#1f77b4;"/>
   </g>
   <g id="patch_299">
    <path clip-path="url(#p8b082938ea)" d="M 1118.763666 768.96 
L 1120.378457 768.96 
L 1120.378457 737.501787 
L 1118.763666 737.501787 
z
" style="fill:#1f77b4;"/>
   </g>
   <g id="patch_300">
    <path clip-path="url(#p8b082938ea)" d="M 1121.993248 768.96 
L 1123.608039 768.96 
L 1123.608039 726.49695 
L 1121.993248 726.49695 
z
" style="fill:#1f77b4;"/>
   </g>
   <g id="patch_301">
    <path clip-path="url(#p8b082938ea)" d="M 1125.22283 768.96 
L 1126.837621 768.96 
L 1126.837621 703.01841 
L 1125.22283 703.01841 
z
" style="fill:#1f77b4;"/>
   </g>
   <g id="patch_302">
    <path clip-path="url(#p8b082938ea)" d="M 1128.452412 768.96 
L 1130.067203 768.96 
L 1130.067203 712.863309 
L 1128.452412 712.863309 
z
" style="fill:#1f77b4;"/>
   </g>
   <g id="patch_303">
    <path clip-path="url(#p8b082938ea)" d="M 1131.681994 768.96 
L 1133.296785 768.96 
L 1133.296785 714.70522 
L 1131.681994 714.70522 
z
" style="fill:#1f77b4;"/>
   </g>
   <g id="patch_304">
    <path clip-path="url(#p8b082938ea)" d="M 1134.911576 768.96 
L 1136.526367 768.96 
L 1136.526367 629.936499 
L 1134.911576 629.936499 
z
" style="fill:#1f77b4;"/>
   </g>
   <g id="patch_305">
    <path clip-path="url(#p8b082938ea)" d="M 1138.141158 768.96 
L 1139.755949 768.96 
L 1139.755949 721.478325 
L 1138.141158 721.478325 
z
" style="fill:#1f77b4;"/>
   </g>
   <g id="patch_306">
    <path clip-path="url(#p8b082938ea)" d="M 1141.37074 768.96 
L 1142.985531 768.96 
L 1142.985531 736.283561 
L 1141.37074 736.283561 
z
" style="fill:#1f77b4;"/>
   </g>
   <g id="patch_307">
    <path clip-path="url(#p8b082938ea)" d="M 1144.600322 768.96 
L 1146.215113 768.96 
L 1146.215113 731.917765 
L 1144.600322 731.917765 
z
" style="fill:#1f77b4;"/>
   </g>
   <g id="patch_308">
    <path clip-path="url(#p8b082938ea)" d="M 1147.829904 768.96 
L 1149.444695 768.96 
L 1149.444695 721.140252 
L 1147.829904 721.140252 
z
" style="fill:#1f77b4;"/>
   </g>
   <g id="patch_309">
    <path clip-path="url(#p8b082938ea)" d="M 1151.059486 768.96 
L 1152.674277 768.96 
L 1152.674277 742.590359 
L 1151.059486 742.590359 
z
" style="fill:#1f77b4;"/>
   </g>
   <g id="patch_310">
    <path clip-path="url(#p8b082938ea)" d="M 1154.289068 768.96 
L 1155.903859 768.96 
L 1155.903859 727.079833 
L 1154.289068 727.079833 
z
" style="fill:#1f77b4;"/>
   </g>
   <g id="patch_311">
    <path clip-path="url(#p8b082938ea)" d="M 1157.51865 768.96 
L 1159.133441 768.96 
L 1159.133441 712.991543 
L 1157.51865 712.991543 
z
" style="fill:#1f77b4;"/>
   </g>
   <g id="patch_312">
    <path clip-path="url(#p8b082938ea)" d="M 1160.748232 768.96 
L 1162.363023 768.96 
L 1162.363023 698.506893 
L 1160.748232 698.506893 
z
" style="fill:#1f77b4;"/>
   </g>
   <g id="patch_313">
    <path clip-path="url(#p8b082938ea)" d="M 1163.977814 768.96 
L 1165.592605 768.96 
L 1165.592605 749.456724 
L 1163.977814 749.456724 
z
" style="fill:#1f77b4;"/>
   </g>
   <g id="matplotlib.axis_1">
    <g id="xtick_1">
     <g id="line2d_1">
      <defs>
       <path d="M 0 0 
L 0 3.5 
" id="m99858f05a3" style="stroke:#000000;stroke-width:0.8;"/>
      </defs>
      <g>
       <use style="stroke:#000000;stroke-width:0.8;" x="163.614791" xlink:href="#m99858f05a3" y="768.96"/>
      </g>
     </g>
     <g id="text_1">
      <!-- January -->
      <g transform="translate(144.659322 783.558437)scale(0.1 -0.1)">
       <defs>
        <path d="M 628 4666 
L 1259 4666 
L 1259 325 
Q 1259 -519 939 -900 
Q 619 -1281 -91 -1281 
L -331 -1281 
L -331 -750 
L -134 -750 
Q 284 -750 456 -515 
Q 628 -281 628 325 
L 628 4666 
z
" id="DejaVuSans-4a" transform="scale(0.015625)"/>
        <path d="M 2194 1759 
Q 1497 1759 1228 1600 
Q 959 1441 959 1056 
Q 959 750 1161 570 
Q 1363 391 1709 391 
Q 2188 391 2477 730 
Q 2766 1069 2766 1631 
L 2766 1759 
L 2194 1759 
z
M 3341 1997 
L 3341 0 
L 2766 0 
L 2766 531 
Q 2569 213 2275 61 
Q 1981 -91 1556 -91 
Q 1019 -91 701 211 
Q 384 513 384 1019 
Q 384 1609 779 1909 
Q 1175 2209 1959 2209 
L 2766 2209 
L 2766 2266 
Q 2766 2663 2505 2880 
Q 2244 3097 1772 3097 
Q 1472 3097 1187 3025 
Q 903 2953 641 2809 
L 641 3341 
Q 956 3463 1253 3523 
Q 1550 3584 1831 3584 
Q 2591 3584 2966 3190 
Q 3341 2797 3341 1997 
z
" id="DejaVuSans-61" transform="scale(0.015625)"/>
        <path d="M 3513 2113 
L 3513 0 
L 2938 0 
L 2938 2094 
Q 2938 2591 2744 2837 
Q 2550 3084 2163 3084 
Q 1697 3084 1428 2787 
Q 1159 2491 1159 1978 
L 1159 0 
L 581 0 
L 581 3500 
L 1159 3500 
L 1159 2956 
Q 1366 3272 1645 3428 
Q 1925 3584 2291 3584 
Q 2894 3584 3203 3211 
Q 3513 2838 3513 2113 
z
" id="DejaVuSans-6e" transform="scale(0.015625)"/>
        <path d="M 544 1381 
L 544 3500 
L 1119 3500 
L 1119 1403 
Q 1119 906 1312 657 
Q 1506 409 1894 409 
Q 2359 409 2629 706 
Q 2900 1003 2900 1516 
L 2900 3500 
L 3475 3500 
L 3475 0 
L 2900 0 
L 2900 538 
Q 2691 219 2414 64 
Q 2138 -91 1772 -91 
Q 1169 -91 856 284 
Q 544 659 544 1381 
z
M 1991 3584 
L 1991 3584 
z
" id="DejaVuSans-75" transform="scale(0.015625)"/>
        <path d="M 2631 2963 
Q 2534 3019 2420 3045 
Q 2306 3072 2169 3072 
Q 1681 3072 1420 2755 
Q 1159 2438 1159 1844 
L 1159 0 
L 581 0 
L 581 3500 
L 1159 3500 
L 1159 2956 
Q 1341 3275 1631 3429 
Q 1922 3584 2338 3584 
Q 2397 3584 2469 3576 
Q 2541 3569 2628 3553 
L 2631 2963 
z
" id="DejaVuSans-72" transform="scale(0.015625)"/>
        <path d="M 2059 -325 
Q 1816 -950 1584 -1140 
Q 1353 -1331 966 -1331 
L 506 -1331 
L 506 -850 
L 844 -850 
Q 1081 -850 1212 -737 
Q 1344 -625 1503 -206 
L 1606 56 
L 191 3500 
L 800 3500 
L 1894 763 
L 2988 3500 
L 3597 3500 
L 2059 -325 
z
" id="DejaVuSans-79" transform="scale(0.015625)"/>
       </defs>
       <use xlink:href="#DejaVuSans-4a"/>
       <use x="29.492188" xlink:href="#DejaVuSans-61"/>
       <use x="90.771484" xlink:href="#DejaVuSans-6e"/>
       <use x="154.150391" xlink:href="#DejaVuSans-75"/>
       <use x="217.529297" xlink:href="#DejaVuSans-61"/>
       <use x="278.808594" xlink:href="#DejaVuSans-72"/>
       <use x="319.921875" xlink:href="#DejaVuSans-79"/>
      </g>
     </g>
    </g>
    <g id="xtick_2">
     <g id="line2d_2">
      <g>
       <use style="stroke:#000000;stroke-width:0.8;" x="263.731833" xlink:href="#m99858f05a3" y="768.96"/>
      </g>
     </g>
     <g id="text_2">
      <!-- February -->
      <g transform="translate(241.577145 783.558437)scale(0.1 -0.1)">
       <defs>
        <path d="M 628 4666 
L 3309 4666 
L 3309 4134 
L 1259 4134 
L 1259 2759 
L 3109 2759 
L 3109 2228 
L 1259 2228 
L 1259 0 
L 628 0 
L 628 4666 
z
" id="DejaVuSans-46" transform="scale(0.015625)"/>
        <path d="M 3597 1894 
L 3597 1613 
L 953 1613 
Q 991 1019 1311 708 
Q 1631 397 2203 397 
Q 2534 397 2845 478 
Q 3156 559 3463 722 
L 3463 178 
Q 3153 47 2828 -22 
Q 2503 -91 2169 -91 
Q 1331 -91 842 396 
Q 353 884 353 1716 
Q 353 2575 817 3079 
Q 1281 3584 2069 3584 
Q 2775 3584 3186 3129 
Q 3597 2675 3597 1894 
z
M 3022 2063 
Q 3016 2534 2758 2815 
Q 2500 3097 2075 3097 
Q 1594 3097 1305 2825 
Q 1016 2553 972 2059 
L 3022 2063 
z
" id="DejaVuSans-65" transform="scale(0.015625)"/>
        <path d="M 3116 1747 
Q 3116 2381 2855 2742 
Q 2594 3103 2138 3103 
Q 1681 3103 1420 2742 
Q 1159 2381 1159 1747 
Q 1159 1113 1420 752 
Q 1681 391 2138 391 
Q 2594 391 2855 752 
Q 3116 1113 3116 1747 
z
M 1159 2969 
Q 1341 3281 1617 3432 
Q 1894 3584 2278 3584 
Q 2916 3584 3314 3078 
Q 3713 2572 3713 1747 
Q 3713 922 3314 415 
Q 2916 -91 2278 -91 
Q 1894 -91 1617 61 
Q 1341 213 1159 525 
L 1159 0 
L 581 0 
L 581 4863 
L 1159 4863 
L 1159 2969 
z
" id="DejaVuSans-62" transform="scale(0.015625)"/>
       </defs>
       <use xlink:href="#DejaVuSans-46"/>
       <use x="52.019531" xlink:href="#DejaVuSans-65"/>
       <use x="113.542969" xlink:href="#DejaVuSans-62"/>
       <use x="177.019531" xlink:href="#DejaVuSans-72"/>
       <use x="218.132812" xlink:href="#DejaVuSans-75"/>
       <use x="281.511719" xlink:href="#DejaVuSans-61"/>
       <use x="342.791016" xlink:href="#DejaVuSans-72"/>
       <use x="383.904297" xlink:href="#DejaVuSans-79"/>
      </g>
     </g>
    </g>
    <g id="xtick_3">
     <g id="line2d_3">
      <g>
       <use style="stroke:#000000;stroke-width:0.8;" x="354.160129" xlink:href="#m99858f05a3" y="768.96"/>
      </g>
     </g>
     <g id="text_3">
      <!-- March -->
      <g transform="translate(338.921066 783.558437)scale(0.1 -0.1)">
       <defs>
        <path d="M 628 4666 
L 1569 4666 
L 2759 1491 
L 3956 4666 
L 4897 4666 
L 4897 0 
L 4281 0 
L 4281 4097 
L 3078 897 
L 2444 897 
L 1241 4097 
L 1241 0 
L 628 0 
L 628 4666 
z
" id="DejaVuSans-4d" transform="scale(0.015625)"/>
        <path d="M 3122 3366 
L 3122 2828 
Q 2878 2963 2633 3030 
Q 2388 3097 2138 3097 
Q 1578 3097 1268 2742 
Q 959 2388 959 1747 
Q 959 1106 1268 751 
Q 1578 397 2138 397 
Q 2388 397 2633 464 
Q 2878 531 3122 666 
L 3122 134 
Q 2881 22 2623 -34 
Q 2366 -91 2075 -91 
Q 1284 -91 818 406 
Q 353 903 353 1747 
Q 353 2603 823 3093 
Q 1294 3584 2113 3584 
Q 2378 3584 2631 3529 
Q 2884 3475 3122 3366 
z
" id="DejaVuSans-63" transform="scale(0.015625)"/>
        <path d="M 3513 2113 
L 3513 0 
L 2938 0 
L 2938 2094 
Q 2938 2591 2744 2837 
Q 2550 3084 2163 3084 
Q 1697 3084 1428 2787 
Q 1159 2491 1159 1978 
L 1159 0 
L 581 0 
L 581 4863 
L 1159 4863 
L 1159 2956 
Q 1366 3272 1645 3428 
Q 1925 3584 2291 3584 
Q 2894 3584 3203 3211 
Q 3513 2838 3513 2113 
z
" id="DejaVuSans-68" transform="scale(0.015625)"/>
       </defs>
       <use xlink:href="#DejaVuSans-4d"/>
       <use x="86.279297" xlink:href="#DejaVuSans-61"/>
       <use x="147.558594" xlink:href="#DejaVuSans-72"/>
       <use x="186.421875" xlink:href="#DejaVuSans-63"/>
       <use x="241.402344" xlink:href="#DejaVuSans-68"/>
      </g>
     </g>
    </g>
    <g id="xtick_4">
     <g id="line2d_4">
      <g>
       <use style="stroke:#000000;stroke-width:0.8;" x="454.27717" xlink:href="#m99858f05a3" y="768.96"/>
      </g>
     </g>
     <g id="text_4">
      <!-- April -->
      <g transform="translate(442.849045 783.558437)scale(0.1 -0.1)">
       <defs>
        <path d="M 2188 4044 
L 1331 1722 
L 3047 1722 
L 2188 4044 
z
M 1831 4666 
L 2547 4666 
L 4325 0 
L 3669 0 
L 3244 1197 
L 1141 1197 
L 716 0 
L 50 0 
L 1831 4666 
z
" id="DejaVuSans-41" transform="scale(0.015625)"/>
        <path d="M 1159 525 
L 1159 -1331 
L 581 -1331 
L 581 3500 
L 1159 3500 
L 1159 2969 
Q 1341 3281 1617 3432 
Q 1894 3584 2278 3584 
Q 2916 3584 3314 3078 
Q 3713 2572 3713 1747 
Q 3713 922 3314 415 
Q 2916 -91 2278 -91 
Q 1894 -91 1617 61 
Q 1341 213 1159 525 
z
M 3116 1747 
Q 3116 2381 2855 2742 
Q 2594 3103 2138 3103 
Q 1681 3103 1420 2742 
Q 1159 2381 1159 1747 
Q 1159 1113 1420 752 
Q 1681 391 2138 391 
Q 2594 391 2855 752 
Q 3116 1113 3116 1747 
z
" id="DejaVuSans-70" transform="scale(0.015625)"/>
        <path d="M 603 3500 
L 1178 3500 
L 1178 0 
L 603 0 
L 603 3500 
z
M 603 4863 
L 1178 4863 
L 1178 4134 
L 603 4134 
L 603 4863 
z
" id="DejaVuSans-69" transform="scale(0.015625)"/>
        <path d="M 603 4863 
L 1178 4863 
L 1178 0 
L 603 0 
L 603 4863 
z
" id="DejaVuSans-6c" transform="scale(0.015625)"/>
       </defs>
       <use xlink:href="#DejaVuSans-41"/>
       <use x="68.408203" xlink:href="#DejaVuSans-70"/>
       <use x="131.884766" xlink:href="#DejaVuSans-72"/>
       <use x="172.998047" xlink:href="#DejaVuSans-69"/>
       <use x="200.78125" xlink:href="#DejaVuSans-6c"/>
      </g>
     </g>
    </g>
    <g id="xtick_5">
     <g id="line2d_5">
      <g>
       <use style="stroke:#000000;stroke-width:0.8;" x="551.16463" xlink:href="#m99858f05a3" y="768.96"/>
      </g>
     </g>
     <g id="text_5">
      <!-- May -->
      <g transform="translate(540.82713 783.558437)scale(0.1 -0.1)">
       <use xlink:href="#DejaVuSans-4d"/>
       <use x="86.279297" xlink:href="#DejaVuSans-61"/>
       <use x="147.558594" xlink:href="#DejaVuSans-79"/>
      </g>
     </g>
    </g>
    <g id="xtick_6">
     <g id="line2d_6">
      <g>
       <use style="stroke:#000000;stroke-width:0.8;" x="651.281672" xlink:href="#m99858f05a3" y="768.96"/>
      </g>
     </g>
     <g id="text_6">
      <!-- June -->
      <g transform="translate(640.39261 783.558437)scale(0.1 -0.1)">
       <use xlink:href="#DejaVuSans-4a"/>
       <use x="29.492188" xlink:href="#DejaVuSans-75"/>
       <use x="92.871094" xlink:href="#DejaVuSans-6e"/>
       <use x="156.25" xlink:href="#DejaVuSans-65"/>
      </g>
     </g>
    </g>
    <g id="xtick_7">
     <g id="line2d_7">
      <g>
       <use style="stroke:#000000;stroke-width:0.8;" x="748.169132" xlink:href="#m99858f05a3" y="768.96"/>
      </g>
     </g>
     <g id="text_7">
      <!-- July -->
      <g transform="translate(739.176944 783.558437)scale(0.1 -0.1)">
       <use xlink:href="#DejaVuSans-4a"/>
       <use x="29.492188" xlink:href="#DejaVuSans-75"/>
       <use x="92.871094" xlink:href="#DejaVuSans-6c"/>
       <use x="120.654297" xlink:href="#DejaVuSans-79"/>
      </g>
     </g>
    </g>
    <g id="xtick_8">
     <g id="line2d_8">
      <g>
       <use style="stroke:#000000;stroke-width:0.8;" x="848.286174" xlink:href="#m99858f05a3" y="768.96"/>
      </g>
     </g>
     <g id="text_8">
      <!-- August -->
      <g transform="translate(830.789299 783.558437)scale(0.1 -0.1)">
       <defs>
        <path d="M 2906 1791 
Q 2906 2416 2648 2759 
Q 2391 3103 1925 3103 
Q 1463 3103 1205 2759 
Q 947 2416 947 1791 
Q 947 1169 1205 825 
Q 1463 481 1925 481 
Q 2391 481 2648 825 
Q 2906 1169 2906 1791 
z
M 3481 434 
Q 3481 -459 3084 -895 
Q 2688 -1331 1869 -1331 
Q 1566 -1331 1297 -1286 
Q 1028 -1241 775 -1147 
L 775 -588 
Q 1028 -725 1275 -790 
Q 1522 -856 1778 -856 
Q 2344 -856 2625 -561 
Q 2906 -266 2906 331 
L 2906 616 
Q 2728 306 2450 153 
Q 2172 0 1784 0 
Q 1141 0 747 490 
Q 353 981 353 1791 
Q 353 2603 747 3093 
Q 1141 3584 1784 3584 
Q 2172 3584 2450 3431 
Q 2728 3278 2906 2969 
L 2906 3500 
L 3481 3500 
L 3481 434 
z
" id="DejaVuSans-67" transform="scale(0.015625)"/>
        <path d="M 2834 3397 
L 2834 2853 
Q 2591 2978 2328 3040 
Q 2066 3103 1784 3103 
Q 1356 3103 1142 2972 
Q 928 2841 928 2578 
Q 928 2378 1081 2264 
Q 1234 2150 1697 2047 
L 1894 2003 
Q 2506 1872 2764 1633 
Q 3022 1394 3022 966 
Q 3022 478 2636 193 
Q 2250 -91 1575 -91 
Q 1294 -91 989 -36 
Q 684 19 347 128 
L 347 722 
Q 666 556 975 473 
Q 1284 391 1588 391 
Q 1994 391 2212 530 
Q 2431 669 2431 922 
Q 2431 1156 2273 1281 
Q 2116 1406 1581 1522 
L 1381 1569 
Q 847 1681 609 1914 
Q 372 2147 372 2553 
Q 372 3047 722 3315 
Q 1072 3584 1716 3584 
Q 2034 3584 2315 3537 
Q 2597 3491 2834 3397 
z
" id="DejaVuSans-73" transform="scale(0.015625)"/>
        <path d="M 1172 4494 
L 1172 3500 
L 2356 3500 
L 2356 3053 
L 1172 3053 
L 1172 1153 
Q 1172 725 1289 603 
Q 1406 481 1766 481 
L 2356 481 
L 2356 0 
L 1766 0 
Q 1100 0 847 248 
Q 594 497 594 1153 
L 594 3053 
L 172 3053 
L 172 3500 
L 594 3500 
L 594 4494 
L 1172 4494 
z
" id="DejaVuSans-74" transform="scale(0.015625)"/>
       </defs>
       <use xlink:href="#DejaVuSans-41"/>
       <use x="68.408203" xlink:href="#DejaVuSans-75"/>
       <use x="131.787109" xlink:href="#DejaVuSans-67"/>
       <use x="195.263672" xlink:href="#DejaVuSans-75"/>
       <use x="258.642578" xlink:href="#DejaVuSans-73"/>
       <use x="310.742188" xlink:href="#DejaVuSans-74"/>
      </g>
     </g>
    </g>
    <g id="xtick_9">
     <g id="line2d_9">
      <g>
       <use style="stroke:#000000;stroke-width:0.8;" x="948.403215" xlink:href="#m99858f05a3" y="768.96"/>
      </g>
     </g>
     <g id="text_9">
      <!-- September -->
      <g transform="translate(920.764934 783.558437)scale(0.1 -0.1)">
       <defs>
        <path d="M 3425 4513 
L 3425 3897 
Q 3066 4069 2747 4153 
Q 2428 4238 2131 4238 
Q 1616 4238 1336 4038 
Q 1056 3838 1056 3469 
Q 1056 3159 1242 3001 
Q 1428 2844 1947 2747 
L 2328 2669 
Q 3034 2534 3370 2195 
Q 3706 1856 3706 1288 
Q 3706 609 3251 259 
Q 2797 -91 1919 -91 
Q 1588 -91 1214 -16 
Q 841 59 441 206 
L 441 856 
Q 825 641 1194 531 
Q 1563 422 1919 422 
Q 2459 422 2753 634 
Q 3047 847 3047 1241 
Q 3047 1584 2836 1778 
Q 2625 1972 2144 2069 
L 1759 2144 
Q 1053 2284 737 2584 
Q 422 2884 422 3419 
Q 422 4038 858 4394 
Q 1294 4750 2059 4750 
Q 2388 4750 2728 4690 
Q 3069 4631 3425 4513 
z
" id="DejaVuSans-53" transform="scale(0.015625)"/>
        <path d="M 3328 2828 
Q 3544 3216 3844 3400 
Q 4144 3584 4550 3584 
Q 5097 3584 5394 3201 
Q 5691 2819 5691 2113 
L 5691 0 
L 5113 0 
L 5113 2094 
Q 5113 2597 4934 2840 
Q 4756 3084 4391 3084 
Q 3944 3084 3684 2787 
Q 3425 2491 3425 1978 
L 3425 0 
L 2847 0 
L 2847 2094 
Q 2847 2600 2669 2842 
Q 2491 3084 2119 3084 
Q 1678 3084 1418 2786 
Q 1159 2488 1159 1978 
L 1159 0 
L 581 0 
L 581 3500 
L 1159 3500 
L 1159 2956 
Q 1356 3278 1631 3431 
Q 1906 3584 2284 3584 
Q 2666 3584 2933 3390 
Q 3200 3197 3328 2828 
z
" id="DejaVuSans-6d" transform="scale(0.015625)"/>
       </defs>
       <use xlink:href="#DejaVuSans-53"/>
       <use x="63.476562" xlink:href="#DejaVuSans-65"/>
       <use x="125" xlink:href="#DejaVuSans-70"/>
       <use x="188.476562" xlink:href="#DejaVuSans-74"/>
       <use x="227.685547" xlink:href="#DejaVuSans-65"/>
       <use x="289.208984" xlink:href="#DejaVuSans-6d"/>
       <use x="386.621094" xlink:href="#DejaVuSans-62"/>
       <use x="450.097656" xlink:href="#DejaVuSans-65"/>
       <use x="511.621094" xlink:href="#DejaVuSans-72"/>
      </g>
     </g>
    </g>
    <g id="xtick_10">
     <g id="line2d_10">
      <g>
       <use style="stroke:#000000;stroke-width:0.8;" x="1045.290675" xlink:href="#m99858f05a3" y="768.96"/>
      </g>
     </g>
     <g id="text_10">
      <!-- October -->
      <g transform="translate(1025.279738 783.558437)scale(0.1 -0.1)">
       <defs>
        <path d="M 2522 4238 
Q 1834 4238 1429 3725 
Q 1025 3213 1025 2328 
Q 1025 1447 1429 934 
Q 1834 422 2522 422 
Q 3209 422 3611 934 
Q 4013 1447 4013 2328 
Q 4013 3213 3611 3725 
Q 3209 4238 2522 4238 
z
M 2522 4750 
Q 3503 4750 4090 4092 
Q 4678 3434 4678 2328 
Q 4678 1225 4090 567 
Q 3503 -91 2522 -91 
Q 1538 -91 948 565 
Q 359 1222 359 2328 
Q 359 3434 948 4092 
Q 1538 4750 2522 4750 
z
" id="DejaVuSans-4f" transform="scale(0.015625)"/>
        <path d="M 1959 3097 
Q 1497 3097 1228 2736 
Q 959 2375 959 1747 
Q 959 1119 1226 758 
Q 1494 397 1959 397 
Q 2419 397 2687 759 
Q 2956 1122 2956 1747 
Q 2956 2369 2687 2733 
Q 2419 3097 1959 3097 
z
M 1959 3584 
Q 2709 3584 3137 3096 
Q 3566 2609 3566 1747 
Q 3566 888 3137 398 
Q 2709 -91 1959 -91 
Q 1206 -91 779 398 
Q 353 888 353 1747 
Q 353 2609 779 3096 
Q 1206 3584 1959 3584 
z
" id="DejaVuSans-6f" transform="scale(0.015625)"/>
       </defs>
       <use xlink:href="#DejaVuSans-4f"/>
       <use x="78.710938" xlink:href="#DejaVuSans-63"/>
       <use x="133.691406" xlink:href="#DejaVuSans-74"/>
       <use x="172.900391" xlink:href="#DejaVuSans-6f"/>
       <use x="234.082031" xlink:href="#DejaVuSans-62"/>
       <use x="297.558594" xlink:href="#DejaVuSans-65"/>
       <use x="359.082031" xlink:href="#DejaVuSans-72"/>
      </g>
     </g>
    </g>
    <g id="xtick_11">
     <g id="line2d_11">
      <g>
       <use style="stroke:#000000;stroke-width:0.8;" x="1145.407717" xlink:href="#m99858f05a3" y="768.96"/>
      </g>
     </g>
     <g id="text_11">
      <!-- November -->
      <g transform="translate(1119.395217 783.558437)scale(0.1 -0.1)">
       <defs>
        <path d="M 628 4666 
L 1478 4666 
L 3547 763 
L 3547 4666 
L 4159 4666 
L 4159 0 
L 3309 0 
L 1241 3903 
L 1241 0 
L 628 0 
L 628 4666 
z
" id="DejaVuSans-4e" transform="scale(0.015625)"/>
        <path d="M 191 3500 
L 800 3500 
L 1894 563 
L 2988 3500 
L 3597 3500 
L 2284 0 
L 1503 0 
L 191 3500 
z
" id="DejaVuSans-76" transform="scale(0.015625)"/>
       </defs>
       <use xlink:href="#DejaVuSans-4e"/>
       <use x="74.804688" xlink:href="#DejaVuSans-6f"/>
       <use x="135.986328" xlink:href="#DejaVuSans-76"/>
       <use x="195.166016" xlink:href="#DejaVuSans-65"/>
       <use x="256.689453" xlink:href="#DejaVuSans-6d"/>
       <use x="354.101562" xlink:href="#DejaVuSans-62"/>
       <use x="417.578125" xlink:href="#DejaVuSans-65"/>
       <use x="479.101562" xlink:href="#DejaVuSans-72"/>
      </g>
     </g>
    </g>
   </g>
   <g id="matplotlib.axis_2">
    <g id="ytick_1">
     <g id="line2d_12">
      <defs>
       <path d="M 0 0 
L -3.5 0 
" id="m15b74c40b3" style="stroke:#000000;stroke-width:0.8;"/>
      </defs>
      <g>
       <use style="stroke:#000000;stroke-width:0.8;" x="162" xlink:href="#m15b74c40b3" y="768.96"/>
      </g>
     </g>
     <g id="text_12">
      <!-- 0 -->
      <g transform="translate(148.6375 772.759219)scale(0.1 -0.1)">
       <defs>
        <path d="M 2034 4250 
Q 1547 4250 1301 3770 
Q 1056 3291 1056 2328 
Q 1056 1369 1301 889 
Q 1547 409 2034 409 
Q 2525 409 2770 889 
Q 3016 1369 3016 2328 
Q 3016 3291 2770 3770 
Q 2525 4250 2034 4250 
z
M 2034 4750 
Q 2819 4750 3233 4129 
Q 3647 3509 3647 2328 
Q 3647 1150 3233 529 
Q 2819 -91 2034 -91 
Q 1250 -91 836 529 
Q 422 1150 422 2328 
Q 422 3509 836 4129 
Q 1250 4750 2034 4750 
z
" id="DejaVuSans-30" transform="scale(0.015625)"/>
       </defs>
       <use xlink:href="#DejaVuSans-30"/>
      </g>
     </g>
    </g>
    <g id="ytick_2">
     <g id="line2d_13">
      <g>
       <use style="stroke:#000000;stroke-width:0.8;" x="162" xlink:href="#m15b74c40b3" y="652.383336"/>
      </g>
     </g>
     <g id="text_13">
      <!-- 20000 -->
      <g transform="translate(123.1875 656.182554)scale(0.1 -0.1)">
       <defs>
        <path d="M 1228 531 
L 3431 531 
L 3431 0 
L 469 0 
L 469 531 
Q 828 903 1448 1529 
Q 2069 2156 2228 2338 
Q 2531 2678 2651 2914 
Q 2772 3150 2772 3378 
Q 2772 3750 2511 3984 
Q 2250 4219 1831 4219 
Q 1534 4219 1204 4116 
Q 875 4013 500 3803 
L 500 4441 
Q 881 4594 1212 4672 
Q 1544 4750 1819 4750 
Q 2544 4750 2975 4387 
Q 3406 4025 3406 3419 
Q 3406 3131 3298 2873 
Q 3191 2616 2906 2266 
Q 2828 2175 2409 1742 
Q 1991 1309 1228 531 
z
" id="DejaVuSans-32" transform="scale(0.015625)"/>
       </defs>
       <use xlink:href="#DejaVuSans-32"/>
       <use x="63.623047" xlink:href="#DejaVuSans-30"/>
       <use x="127.246094" xlink:href="#DejaVuSans-30"/>
       <use x="190.869141" xlink:href="#DejaVuSans-30"/>
       <use x="254.492188" xlink:href="#DejaVuSans-30"/>
      </g>
     </g>
    </g>
    <g id="ytick_3">
     <g id="line2d_14">
      <g>
       <use style="stroke:#000000;stroke-width:0.8;" x="162" xlink:href="#m15b74c40b3" y="535.806671"/>
      </g>
     </g>
     <g id="text_14">
      <!-- 40000 -->
      <g transform="translate(123.1875 539.60589)scale(0.1 -0.1)">
       <defs>
        <path d="M 2419 4116 
L 825 1625 
L 2419 1625 
L 2419 4116 
z
M 2253 4666 
L 3047 4666 
L 3047 1625 
L 3713 1625 
L 3713 1100 
L 3047 1100 
L 3047 0 
L 2419 0 
L 2419 1100 
L 313 1100 
L 313 1709 
L 2253 4666 
z
" id="DejaVuSans-34" transform="scale(0.015625)"/>
       </defs>
       <use xlink:href="#DejaVuSans-34"/>
       <use x="63.623047" xlink:href="#DejaVuSans-30"/>
       <use x="127.246094" xlink:href="#DejaVuSans-30"/>
       <use x="190.869141" xlink:href="#DejaVuSans-30"/>
       <use x="254.492188" xlink:href="#DejaVuSans-30"/>
      </g>
     </g>
    </g>
    <g id="ytick_4">
     <g id="line2d_15">
      <g>
       <use style="stroke:#000000;stroke-width:0.8;" x="162" xlink:href="#m15b74c40b3" y="419.230007"/>
      </g>
     </g>
     <g id="text_15">
      <!-- 60000 -->
      <g transform="translate(123.1875 423.029225)scale(0.1 -0.1)">
       <defs>
        <path d="M 2113 2584 
Q 1688 2584 1439 2293 
Q 1191 2003 1191 1497 
Q 1191 994 1439 701 
Q 1688 409 2113 409 
Q 2538 409 2786 701 
Q 3034 994 3034 1497 
Q 3034 2003 2786 2293 
Q 2538 2584 2113 2584 
z
M 3366 4563 
L 3366 3988 
Q 3128 4100 2886 4159 
Q 2644 4219 2406 4219 
Q 1781 4219 1451 3797 
Q 1122 3375 1075 2522 
Q 1259 2794 1537 2939 
Q 1816 3084 2150 3084 
Q 2853 3084 3261 2657 
Q 3669 2231 3669 1497 
Q 3669 778 3244 343 
Q 2819 -91 2113 -91 
Q 1303 -91 875 529 
Q 447 1150 447 2328 
Q 447 3434 972 4092 
Q 1497 4750 2381 4750 
Q 2619 4750 2861 4703 
Q 3103 4656 3366 4563 
z
" id="DejaVuSans-36" transform="scale(0.015625)"/>
       </defs>
       <use xlink:href="#DejaVuSans-36"/>
       <use x="63.623047" xlink:href="#DejaVuSans-30"/>
       <use x="127.246094" xlink:href="#DejaVuSans-30"/>
       <use x="190.869141" xlink:href="#DejaVuSans-30"/>
       <use x="254.492188" xlink:href="#DejaVuSans-30"/>
      </g>
     </g>
    </g>
    <g id="ytick_5">
     <g id="line2d_16">
      <g>
       <use style="stroke:#000000;stroke-width:0.8;" x="162" xlink:href="#m15b74c40b3" y="302.653342"/>
      </g>
     </g>
     <g id="text_16">
      <!-- 80000 -->
      <g transform="translate(123.1875 306.452561)scale(0.1 -0.1)">
       <defs>
        <path d="M 2034 2216 
Q 1584 2216 1326 1975 
Q 1069 1734 1069 1313 
Q 1069 891 1326 650 
Q 1584 409 2034 409 
Q 2484 409 2743 651 
Q 3003 894 3003 1313 
Q 3003 1734 2745 1975 
Q 2488 2216 2034 2216 
z
M 1403 2484 
Q 997 2584 770 2862 
Q 544 3141 544 3541 
Q 544 4100 942 4425 
Q 1341 4750 2034 4750 
Q 2731 4750 3128 4425 
Q 3525 4100 3525 3541 
Q 3525 3141 3298 2862 
Q 3072 2584 2669 2484 
Q 3125 2378 3379 2068 
Q 3634 1759 3634 1313 
Q 3634 634 3220 271 
Q 2806 -91 2034 -91 
Q 1263 -91 848 271 
Q 434 634 434 1313 
Q 434 1759 690 2068 
Q 947 2378 1403 2484 
z
M 1172 3481 
Q 1172 3119 1398 2916 
Q 1625 2713 2034 2713 
Q 2441 2713 2670 2916 
Q 2900 3119 2900 3481 
Q 2900 3844 2670 4047 
Q 2441 4250 2034 4250 
Q 1625 4250 1398 4047 
Q 1172 3844 1172 3481 
z
" id="DejaVuSans-38" transform="scale(0.015625)"/>
       </defs>
       <use xlink:href="#DejaVuSans-38"/>
       <use x="63.623047" xlink:href="#DejaVuSans-30"/>
       <use x="127.246094" xlink:href="#DejaVuSans-30"/>
       <use x="190.869141" xlink:href="#DejaVuSans-30"/>
       <use x="254.492188" xlink:href="#DejaVuSans-30"/>
      </g>
     </g>
    </g>
    <g id="ytick_6">
     <g id="line2d_17">
      <g>
       <use style="stroke:#000000;stroke-width:0.8;" x="162" xlink:href="#m15b74c40b3" y="186.076678"/>
      </g>
     </g>
     <g id="text_17">
      <!-- 100000 -->
      <g transform="translate(116.825 189.875897)scale(0.1 -0.1)">
       <defs>
        <path d="M 794 531 
L 1825 531 
L 1825 4091 
L 703 3866 
L 703 4441 
L 1819 4666 
L 2450 4666 
L 2450 531 
L 3481 531 
L 3481 0 
L 794 0 
L 794 531 
z
" id="DejaVuSans-31" transform="scale(0.015625)"/>
       </defs>
       <use xlink:href="#DejaVuSans-31"/>
       <use x="63.623047" xlink:href="#DejaVuSans-30"/>
       <use x="127.246094" xlink:href="#DejaVuSans-30"/>
       <use x="190.869141" xlink:href="#DejaVuSans-30"/>
       <use x="254.492188" xlink:href="#DejaVuSans-30"/>
       <use x="318.115234" xlink:href="#DejaVuSans-30"/>
      </g>
     </g>
    </g>
    <g id="text_18">
     <!-- Persons fully vaccinated -->
     <g transform="translate(110.745312 496.922344)rotate(-90)scale(0.1 -0.1)">
      <defs>
       <path d="M 1259 4147 
L 1259 2394 
L 2053 2394 
Q 2494 2394 2734 2622 
Q 2975 2850 2975 3272 
Q 2975 3691 2734 3919 
Q 2494 4147 2053 4147 
L 1259 4147 
z
M 628 4666 
L 2053 4666 
Q 2838 4666 3239 4311 
Q 3641 3956 3641 3272 
Q 3641 2581 3239 2228 
Q 2838 1875 2053 1875 
L 1259 1875 
L 1259 0 
L 628 0 
L 628 4666 
z
" id="DejaVuSans-50" transform="scale(0.015625)"/>
       <path id="DejaVuSans-20" transform="scale(0.015625)"/>
       <path d="M 2375 4863 
L 2375 4384 
L 1825 4384 
Q 1516 4384 1395 4259 
Q 1275 4134 1275 3809 
L 1275 3500 
L 2222 3500 
L 2222 3053 
L 1275 3053 
L 1275 0 
L 697 0 
L 697 3053 
L 147 3053 
L 147 3500 
L 697 3500 
L 697 3744 
Q 697 4328 969 4595 
Q 1241 4863 1831 4863 
L 2375 4863 
z
" id="DejaVuSans-66" transform="scale(0.015625)"/>
       <path d="M 2906 2969 
L 2906 4863 
L 3481 4863 
L 3481 0 
L 2906 0 
L 2906 525 
Q 2725 213 2448 61 
Q 2172 -91 1784 -91 
Q 1150 -91 751 415 
Q 353 922 353 1747 
Q 353 2572 751 3078 
Q 1150 3584 1784 3584 
Q 2172 3584 2448 3432 
Q 2725 3281 2906 2969 
z
M 947 1747 
Q 947 1113 1208 752 
Q 1469 391 1925 391 
Q 2381 391 2643 752 
Q 2906 1113 2906 1747 
Q 2906 2381 2643 2742 
Q 2381 3103 1925 3103 
Q 1469 3103 1208 2742 
Q 947 2381 947 1747 
z
" id="DejaVuSans-64" transform="scale(0.015625)"/>
      </defs>
      <use xlink:href="#DejaVuSans-50"/>
      <use x="56.677734" xlink:href="#DejaVuSans-65"/>
      <use x="118.201172" xlink:href="#DejaVuSans-72"/>
      <use x="159.314453" xlink:href="#DejaVuSans-73"/>
      <use x="211.414062" xlink:href="#DejaVuSans-6f"/>
      <use x="272.595703" xlink:href="#DejaVuSans-6e"/>
      <use x="335.974609" xlink:href="#DejaVuSans-73"/>
      <use x="388.074219" xlink:href="#DejaVuSans-20"/>
      <use x="419.861328" xlink:href="#DejaVuSans-66"/>
      <use x="455.066406" xlink:href="#DejaVuSans-75"/>
      <use x="518.445312" xlink:href="#DejaVuSans-6c"/>
      <use x="546.228516" xlink:href="#DejaVuSans-6c"/>
      <use x="574.011719" xlink:href="#DejaVuSans-79"/>
      <use x="633.191406" xlink:href="#DejaVuSans-20"/>
      <use x="664.978516" xlink:href="#DejaVuSans-76"/>
      <use x="724.158203" xlink:href="#DejaVuSans-61"/>
      <use x="785.4375" xlink:href="#DejaVuSans-63"/>
      <use x="840.417969" xlink:href="#DejaVuSans-63"/>
      <use x="895.398438" xlink:href="#DejaVuSans-69"/>
      <use x="923.181641" xlink:href="#DejaVuSans-6e"/>
      <use x="986.560547" xlink:href="#DejaVuSans-61"/>
      <use x="1047.839844" xlink:href="#DejaVuSans-74"/>
      <use x="1087.048828" xlink:href="#DejaVuSans-65"/>
      <use x="1148.572266" xlink:href="#DejaVuSans-64"/>
     </g>
    </g>
   </g>
   <g id="line2d_18">
    <path clip-path="url(#p8b082938ea)" d="M 218.517685 743.69867 
L 221.747267 743.474676 
L 224.976849 744.741198 
L 228.206431 741.221415 
L 231.436013 740.333767 
L 234.665595 738.216236 
L 237.895177 733.779661 
L 241.124759 725.740034 
L 244.354341 717.122521 
L 247.583923 710.721629 
L 250.813505 703.99349 
L 254.043087 699.381218 
L 257.272669 698.331195 
L 260.502251 698.379491 
L 263.731833 695.875591 
L 266.961415 701.015789 
L 270.190997 700.815111 
L 273.420579 701.36885 
L 276.650161 698.167155 
L 279.879743 698.532706 
L 283.109325 694.384242 
L 286.338907 695.102022 
L 289.568489 689.274854 
L 292.798071 679.483247 
L 296.027653 670.392765 
L 299.257235 667.408402 
L 302.486817 663.812845 
L 305.716399 667.908017 
L 308.945981 668.833968 
L 312.175563 664.026846 
L 315.405145 660.130688 
L 318.634727 654.132818 
L 321.864309 662.856083 
L 325.093891 650.194192 
L 328.323473 641.764867 
L 331.553055 631.926629 
L 334.782637 609.628011 
L 338.012219 593.020833 
L 341.241801 580.68952 
L 344.471383 550.647713 
L 347.700965 553.788622 
L 350.930547 544.440006 
L 354.160129 534.352794 
L 357.389711 540.13916 
L 360.619293 528.808741 
L 363.848875 514.58722 
L 367.078457 508.984046 
L 370.308039 512.936828 
L 373.537621 503.140224 
L 376.767203 491.799813 
L 379.996785 481.48028 
L 383.226367 484.973417 
L 386.455949 478.341037 
L 389.685531 479.588407 
L 392.915113 453.485227 
L 396.144695 453.809143 
L 399.374277 459.756219 
L 402.603859 474.220052 
L 405.833441 487.496469 
L 409.063023 506.855689 
L 412.292605 520.456023 
L 415.522186 545.53083 
L 421.98135 569.808753 
L 425.210932 576.327054 
L 428.440514 580.523814 
L 431.670096 577.506977 
L 434.899678 564.19642 
L 441.358842 560.952258 
L 444.588424 545.053699 
L 447.818006 536.473656 
L 451.047588 521.58182 
L 454.27717 514.608037 
L 457.506752 513.522209 
L 460.736334 517.806401 
L 463.965916 504.19108 
L 467.195498 489.365026 
L 473.654662 436.105312 
L 476.884244 395.95048 
L 480.113826 373.927482 
L 483.343408 355.532517 
L 486.57299 342.403487 
L 489.802572 337.456473 
L 493.032154 346.999938 
L 496.261736 350.256591 
L 499.491318 369.128687 
L 502.7209 380.038598 
L 505.950482 380.11687 
L 509.180064 388.728555 
L 512.409646 383.287756 
L 515.639228 377.05257 
L 518.86881 387.317145 
L 522.098392 401.130647 
L 525.327974 413.153032 
L 528.557556 426.514383 
L 531.787138 432.070926 
L 535.01672 447.799616 
L 538.246302 453.649267 
L 541.475884 464.117851 
L 544.705466 477.067021 
L 547.935048 494.989017 
L 551.16463 504.309322 
L 554.394212 518.011243 
L 557.623794 511.410506 
L 560.853376 508.22713 
L 564.082958 517.429193 
L 567.31254 498.701152 
L 570.542122 476.050306 
L 573.771704 444.189071 
L 577.001286 432.146701 
L 580.230868 446.329085 
L 583.46045 463.266842 
L 586.690032 464.347674 
L 589.919614 468.098944 
L 593.149196 477.662394 
L 596.378778 502.555676 
L 599.60836 513.613805 
L 602.837942 514.384876 
L 606.067524 515.790458 
L 609.297106 502.260071 
L 612.526688 526.56464 
L 615.75627 531.50749 
L 618.985852 531.850559 
L 622.215434 533.49762 
L 625.445016 550.369595 
L 628.674598 562.347847 
L 631.90418 589.365322 
L 635.133762 598.829681 
L 638.363344 609.54724 
L 641.592926 612.646514 
L 644.822508 626.957132 
L 648.05209 637.570605 
L 651.281672 647.457139 
L 654.511254 648.6304 
L 657.740836 644.431142 
L 664.2 625.981219 
L 667.429582 606.606178 
L 670.659164 593.706137 
L 673.888746 576.894949 
L 677.118328 580.588764 
L 680.34791 588.961467 
L 683.577492 602.572625 
L 686.807074 608.468906 
L 690.036656 594.543824 
L 693.266238 593.039985 
L 696.49582 605.805962 
L 699.725402 601.855678 
L 702.954984 610.734657 
L 706.184566 603.909093 
L 709.414148 608.599638 
L 712.64373 638.577328 
L 715.873312 655.77988 
L 719.102894 660.74105 
L 722.332476 668.814816 
L 728.79164 611.061071 
L 732.021222 615.342766 
L 735.250804 615.070476 
L 738.480386 614.576691 
L 741.709968 617.331231 
L 744.93955 624.760495 
L 748.169132 655.420158 
L 751.398714 695.579153 
L 754.628296 695.793987 
L 757.857878 705.947815 
L 761.08746 712.619331 
L 764.317042 713.638544 
L 767.546624 713.311297 
L 770.776206 714.437094 
L 774.005788 714.262229 
L 777.23537 712.392006 
L 780.464952 701.865966 
L 783.694534 699.273801 
L 790.153698 705.350776 
L 793.38328 706.885424 
L 796.612862 708.284344 
L 799.842444 709.259425 
L 803.072026 712.989878 
L 806.301608 712.27543 
L 809.53119 711.801629 
L 815.990354 715.811033 
L 819.219936 718.921132 
L 822.449518 721.457507 
L 825.6791 724.772448 
L 828.908682 725.272062 
L 832.138264 718.63885 
L 835.367846 717.11919 
L 838.597428 706.021924 
L 841.82701 703.774493 
L 848.286174 698.874109 
L 851.515756 699.363731 
L 854.745338 707.031145 
L 857.97492 706.730544 
L 861.204502 715.597865 
L 864.434084 707.509942 
L 867.663666 706.718053 
L 870.893248 706.932055 
L 874.12283 709.803172 
L 877.352412 695.990502 
L 880.581994 685.108903 
L 887.041158 668.337685 
L 890.27074 658.265461 
L 893.500322 657.056394 
L 896.729904 652.350028 
L 899.959486 664.22003 
L 903.189068 673.98749 
L 906.41865 682.174502 
L 909.648232 695.545846 
L 912.877814 704.926104 
L 916.107395 704.784546 
L 919.336977 704.846165 
L 922.566559 704.767892 
L 925.796141 703.57881 
L 929.025723 700.632752 
L 932.255305 692.260049 
L 935.484887 669.455988 
L 938.714469 663.729576 
L 941.944051 663.827001 
L 945.173633 664.175065 
L 948.403215 665.894571 
L 951.632797 668.95221 
L 954.862379 678.245869 
L 958.091961 701.474602 
L 961.321543 710.814891 
L 964.551125 716.39808 
L 967.780707 715.947595 
L 971.010289 716.000887 
L 977.469453 717.249922 
L 980.699035 717.248257 
L 983.928617 714.789322 
L 987.158199 710.980596 
L 990.387781 712.948244 
L 993.617363 713.542784 
L 996.846945 713.411219 
L 1000.076527 712.715923 
L 1003.306109 712.332053 
L 1006.535691 713.118945 
L 1009.765273 712.053934 
L 1012.994855 713.286316 
L 1016.224437 711.292855 
L 1019.454019 710.047983 
L 1022.683601 710.655014 
L 1025.913183 711.700041 
L 1029.142765 710.914813 
L 1032.372347 713.103957 
L 1035.601929 714.711049 
L 1038.831511 721.367577 
L 1042.061093 721.760607 
L 1045.290675 717.169984 
L 1048.520257 718.076784 
L 1051.749839 716.493839 
L 1054.979421 719.674717 
L 1058.209003 715.718605 
L 1061.438585 713.053163 
L 1064.668167 716.371434 
L 1067.897749 724.579264 
L 1071.127331 725.719217 
L 1074.356913 729.507959 
L 1077.586495 727.526155 
L 1080.816077 729.918475 
L 1084.045659 731.259939 
L 1087.275241 728.95422 
L 1090.504823 728.259756 
L 1093.734405 728.47459 
L 1096.963987 728.019941 
L 1100.193569 728.944227 
L 1103.423151 730.251551 
L 1106.652733 728.815993 
L 1109.882315 731.309901 
L 1113.111897 731.01263 
L 1116.341479 729.577072 
L 1119.571061 728.42213 
L 1122.800643 724.705 
L 1126.030225 722.596628 
L 1129.259807 721.502473 
L 1132.489389 707.853843 
L 1135.718971 706.5715 
L 1138.948553 706.397468 
L 1142.178135 707.17187 
L 1145.407717 709.760704 
L 1148.637299 714.007426 
L 1151.866881 715.775228 
L 1155.096463 727.640234 
L 1158.326045 724.358601 
L 1161.555627 726.240481 
L 1161.555627 726.240481 
" style="fill:none;stroke:#ffa500;stroke-linecap:square;stroke-width:1.5;"/>
   </g>
   <g id="patch_314">
    <path d="M 162 768.96 
L 162 103.68 
" style="fill:none;stroke:#000000;stroke-linecap:square;stroke-linejoin:miter;stroke-width:0.8;"/>
   </g>
   <g id="patch_315">
    <path d="M 1166.4 768.96 
L 1166.4 103.68 
" style="fill:none;stroke:#000000;stroke-linecap:square;stroke-linejoin:miter;stroke-width:0.8;"/>
   </g>
   <g id="patch_316">
    <path d="M 162 768.96 
L 1166.4 768.96 
" style="fill:none;stroke:#000000;stroke-linecap:square;stroke-linejoin:miter;stroke-width:0.8;"/>
   </g>
   <g id="patch_317">
    <path d="M 162 103.68 
L 1166.4 103.68 
" style="fill:none;stroke:#000000;stroke-linecap:square;stroke-linejoin:miter;stroke-width:0.8;"/>
   </g>
   <g id="text_19">
    <!-- Persons Fully Vaccinated -->
    <g transform="translate(590.380313 97.68)scale(0.12 -0.12)">
     <defs>
      <path d="M 1831 0 
L 50 4666 
L 709 4666 
L 2188 738 
L 3669 4666 
L 4325 4666 
L 2547 0 
L 1831 0 
z
" id="DejaVuSans-56" transform="scale(0.015625)"/>
     </defs>
     <use xlink:href="#DejaVuSans-50"/>
     <use x="56.677734" xlink:href="#DejaVuSans-65"/>
     <use x="118.201172" xlink:href="#DejaVuSans-72"/>
     <use x="159.314453" xlink:href="#DejaVuSans-73"/>
     <use x="211.414062" xlink:href="#DejaVuSans-6f"/>
     <use x="272.595703" xlink:href="#DejaVuSans-6e"/>
     <use x="335.974609" xlink:href="#DejaVuSans-73"/>
     <use x="388.074219" xlink:href="#DejaVuSans-20"/>
     <use x="419.861328" xlink:href="#DejaVuSans-46"/>
     <use x="471.880859" xlink:href="#DejaVuSans-75"/>
     <use x="535.259766" xlink:href="#DejaVuSans-6c"/>
     <use x="563.042969" xlink:href="#DejaVuSans-6c"/>
     <use x="590.826172" xlink:href="#DejaVuSans-79"/>
     <use x="650.005859" xlink:href="#DejaVuSans-20"/>
     <use x="681.792969" xlink:href="#DejaVuSans-56"/>
     <use x="742.451172" xlink:href="#DejaVuSans-61"/>
     <use x="803.730469" xlink:href="#DejaVuSans-63"/>
     <use x="858.710938" xlink:href="#DejaVuSans-63"/>
     <use x="913.691406" xlink:href="#DejaVuSans-69"/>
     <use x="941.474609" xlink:href="#DejaVuSans-6e"/>
     <use x="1004.853516" xlink:href="#DejaVuSans-61"/>
     <use x="1066.132812" xlink:href="#DejaVuSans-74"/>
     <use x="1105.341797" xlink:href="#DejaVuSans-65"/>
     <use x="1166.865234" xlink:href="#DejaVuSans-64"/>
    </g>
   </g>
  </g>
 </g>
 <defs>
  <clipPath id="p8b082938ea">
   <rect height="665.28" width="1004.4" x="162" y="103.68"/>
  </clipPath>
 </defs>
</svg>
