<?xml version="1.0" encoding="utf-8" standalone="no"?>
<!DOCTYPE svg PUBLIC "-//W3C//DTD SVG 1.1//EN"
  "http://www.w3.org/Graphics/SVG/1.1/DTD/svg11.dtd">
<svg height="864pt" version="1.1" viewBox="0 0 1296 864" width="1296pt" xmlns="http://www.w3.org/2000/svg" xmlns:xlink="http://www.w3.org/1999/xlink">
 <metadata>
  <rdf:RDF xmlns:cc="http://creativecommons.org/ns#" xmlns:dc="http://purl.org/dc/elements/1.1/" xmlns:rdf="http://www.w3.org/1999/02/22-rdf-syntax-ns#">
   <cc:Work>
    <dc:type rdf:resource="http://purl.org/dc/dcmitype/StillImage"/>
    <dc:date>2021-10-14T08:27:08.134086</dc:date>
    <dc:format>image/svg+xml</dc:format>
    <dc:creator>
     <cc:Agent>
      <dc:title>Matplotlib v3.4.2, https://matplotlib.org/</dc:title>
     </cc:Agent>
    </dc:creator>
   </cc:Work>
  </rdf:RDF>
 </metadata>
 <defs>
  <style type="text/css">*{stroke-linecap:butt;stroke-linejoin:round;}</style>
 </defs>
 <g id="figure_1">
  <g id="patch_1">
   <path d="M 0 864 
L 1296 864 
L 1296 0 
L 0 0 
z
" style="fill:#ffffff;"/>
  </g>
  <g id="axes_1">
   <g id="patch_2">
    <path d="M 162 768.96 
L 1166.4 768.96 
L 1166.4 103.68 
L 162 103.68 
z
" style="fill:#ffffff;"/>
   </g>
   <g id="patch_3">
    <path clip-path="url(#p7a038187a4)" d="M 162.881053 768.96 
L 164.643158 768.96 
L 164.643158 768.948341 
L 162.881053 768.948341 
z
" style="fill:#1f77b4;"/>
   </g>
   <g id="patch_4">
    <path clip-path="url(#p7a038187a4)" d="M 166.405263 768.96 
L 168.167368 768.96 
L 168.167368 768.96 
L 166.405263 768.96 
z
" style="fill:#1f77b4;"/>
   </g>
   <g id="patch_5">
    <path clip-path="url(#p7a038187a4)" d="M 169.929474 768.96 
L 171.691579 768.96 
L 171.691579 768.96 
L 169.929474 768.96 
z
" style="fill:#1f77b4;"/>
   </g>
   <g id="patch_6">
    <path clip-path="url(#p7a038187a4)" d="M 173.453684 768.96 
L 175.215789 768.96 
L 175.215789 768.219677 
L 173.453684 768.219677 
z
" style="fill:#1f77b4;"/>
   </g>
   <g id="patch_7">
    <path clip-path="url(#p7a038187a4)" d="M 176.977895 768.96 
L 178.74 768.96 
L 178.74 766.978033 
L 176.977895 766.978033 
z
" style="fill:#1f77b4;"/>
   </g>
   <g id="patch_8">
    <path clip-path="url(#p7a038187a4)" d="M 180.502105 768.96 
L 182.264211 768.96 
L 182.264211 754.89969 
L 180.502105 754.89969 
z
" style="fill:#1f77b4;"/>
   </g>
   <g id="patch_9">
    <path clip-path="url(#p7a038187a4)" d="M 184.026316 768.96 
L 185.788421 768.96 
L 185.788421 667.518245 
L 184.026316 667.518245 
z
" style="fill:#1f77b4;"/>
   </g>
   <g id="patch_10">
    <path clip-path="url(#p7a038187a4)" d="M 187.550526 768.96 
L 189.312632 768.96 
L 189.312632 646.701758 
L 187.550526 646.701758 
z
" style="fill:#1f77b4;"/>
   </g>
   <g id="patch_11">
    <path clip-path="url(#p7a038187a4)" d="M 191.074737 768.96 
L 192.836842 768.96 
L 192.836842 702.208504 
L 191.074737 702.208504 
z
" style="fill:#1f77b4;"/>
   </g>
   <g id="patch_12">
    <path clip-path="url(#p7a038187a4)" d="M 194.598947 768.96 
L 196.361053 768.96 
L 196.361053 728.481231 
L 194.598947 728.481231 
z
" style="fill:#1f77b4;"/>
   </g>
   <g id="patch_13">
    <path clip-path="url(#p7a038187a4)" d="M 198.123158 768.96 
L 199.885263 768.96 
L 199.885263 705.694435 
L 198.123158 705.694435 
z
" style="fill:#1f77b4;"/>
   </g>
   <g id="patch_14">
    <path clip-path="url(#p7a038187a4)" d="M 201.647368 768.96 
L 203.409474 768.96 
L 203.409474 708.778143 
L 201.647368 708.778143 
z
" style="fill:#1f77b4;"/>
   </g>
   <g id="patch_15">
    <path clip-path="url(#p7a038187a4)" d="M 205.171579 768.96 
L 206.933684 768.96 
L 206.933684 719.70811 
L 205.171579 719.70811 
z
" style="fill:#1f77b4;"/>
   </g>
   <g id="patch_16">
    <path clip-path="url(#p7a038187a4)" d="M 208.695789 768.96 
L 210.457895 768.96 
L 210.457895 708.894729 
L 208.695789 708.894729 
z
" style="fill:#1f77b4;"/>
   </g>
   <g id="patch_17">
    <path clip-path="url(#p7a038187a4)" d="M 212.22 768.96 
L 213.982105 768.96 
L 213.982105 756.660144 
L 212.22 756.660144 
z
" style="fill:#1f77b4;"/>
   </g>
   <g id="patch_18">
    <path clip-path="url(#p7a038187a4)" d="M 215.744211 768.96 
L 217.506316 768.96 
L 217.506316 761.300279 
L 215.744211 761.300279 
z
" style="fill:#1f77b4;"/>
   </g>
   <g id="patch_19">
    <path clip-path="url(#p7a038187a4)" d="M 219.268421 768.96 
L 221.030526 768.96 
L 221.030526 765.310848 
L 219.268421 765.310848 
z
" style="fill:#1f77b4;"/>
   </g>
   <g id="patch_20">
    <path clip-path="url(#p7a038187a4)" d="M 222.792632 768.96 
L 224.554737 768.96 
L 224.554737 752.224034 
L 222.792632 752.224034 
z
" style="fill:#1f77b4;"/>
   </g>
   <g id="patch_21">
    <path clip-path="url(#p7a038187a4)" d="M 226.316842 768.96 
L 228.078947 768.96 
L 228.078947 741.783729 
L 226.316842 741.783729 
z
" style="fill:#1f77b4;"/>
   </g>
   <g id="patch_22">
    <path clip-path="url(#p7a038187a4)" d="M 229.841053 768.96 
L 231.603158 768.96 
L 231.603158 718.140024 
L 229.841053 718.140024 
z
" style="fill:#1f77b4;"/>
   </g>
   <g id="patch_23">
    <path clip-path="url(#p7a038187a4)" d="M 233.365263 768.96 
L 235.127368 768.96 
L 235.127368 717.702826 
L 233.365263 717.702826 
z
" style="fill:#1f77b4;"/>
   </g>
   <g id="patch_24">
    <path clip-path="url(#p7a038187a4)" d="M 236.889474 768.96 
L 238.651579 768.96 
L 238.651579 731.972991 
L 236.889474 731.972991 
z
" style="fill:#1f77b4;"/>
   </g>
   <g id="patch_25">
    <path clip-path="url(#p7a038187a4)" d="M 240.413684 768.96 
L 242.175789 768.96 
L 242.175789 755.051252 
L 240.413684 755.051252 
z
" style="fill:#1f77b4;"/>
   </g>
   <g id="patch_26">
    <path clip-path="url(#p7a038187a4)" d="M 243.937895 768.96 
L 245.7 768.96 
L 245.7 750.55102 
L 243.937895 750.55102 
z
" style="fill:#1f77b4;"/>
   </g>
   <g id="patch_27">
    <path clip-path="url(#p7a038187a4)" d="M 247.462105 768.96 
L 249.224211 768.96 
L 249.224211 721.043024 
L 247.462105 721.043024 
z
" style="fill:#1f77b4;"/>
   </g>
   <g id="patch_28">
    <path clip-path="url(#p7a038187a4)" d="M 250.986316 768.96 
L 252.748421 768.96 
L 252.748421 685.490026 
L 250.986316 685.490026 
z
" style="fill:#1f77b4;"/>
   </g>
   <g id="patch_29">
    <path clip-path="url(#p7a038187a4)" d="M 254.510526 768.96 
L 256.272632 768.96 
L 256.272632 657.84741 
L 254.510526 657.84741 
z
" style="fill:#1f77b4;"/>
   </g>
   <g id="patch_30">
    <path clip-path="url(#p7a038187a4)" d="M 258.034737 768.96 
L 259.796842 768.96 
L 259.796842 672.922021 
L 258.034737 672.922021 
z
" style="fill:#1f77b4;"/>
   </g>
   <g id="patch_31">
    <path clip-path="url(#p7a038187a4)" d="M 261.558947 768.96 
L 263.321053 768.96 
L 263.321053 684.77302 
L 261.558947 684.77302 
z
" style="fill:#1f77b4;"/>
   </g>
   <g id="patch_32">
    <path clip-path="url(#p7a038187a4)" d="M 265.083158 768.96 
L 266.845263 768.96 
L 266.845263 722.739355 
L 265.083158 722.739355 
z
" style="fill:#1f77b4;"/>
   </g>
   <g id="patch_33">
    <path clip-path="url(#p7a038187a4)" d="M 268.607368 768.96 
L 270.369474 768.96 
L 270.369474 743.171107 
L 268.607368 743.171107 
z
" style="fill:#1f77b4;"/>
   </g>
   <g id="patch_34">
    <path clip-path="url(#p7a038187a4)" d="M 272.131579 768.96 
L 273.893684 768.96 
L 273.893684 721.521027 
L 272.131579 721.521027 
z
" style="fill:#1f77b4;"/>
   </g>
   <g id="patch_35">
    <path clip-path="url(#p7a038187a4)" d="M 275.655789 768.96 
L 277.417895 768.96 
L 277.417895 667.920468 
L 275.655789 667.920468 
z
" style="fill:#1f77b4;"/>
   </g>
   <g id="patch_36">
    <path clip-path="url(#p7a038187a4)" d="M 279.18 768.96 
L 280.942105 768.96 
L 280.942105 693.796801 
L 279.18 693.796801 
z
" style="fill:#1f77b4;"/>
   </g>
   <g id="patch_37">
    <path clip-path="url(#p7a038187a4)" d="M 282.704211 768.96 
L 284.466316 768.96 
L 284.466316 671.575449 
L 282.704211 671.575449 
z
" style="fill:#1f77b4;"/>
   </g>
   <g id="patch_38">
    <path clip-path="url(#p7a038187a4)" d="M 286.228421 768.96 
L 287.990526 768.96 
L 287.990526 688.77776 
L 286.228421 688.77776 
z
" style="fill:#1f77b4;"/>
   </g>
   <g id="patch_39">
    <path clip-path="url(#p7a038187a4)" d="M 289.752632 768.96 
L 291.514737 768.96 
L 291.514737 700.424733 
L 289.752632 700.424733 
z
" style="fill:#1f77b4;"/>
   </g>
   <g id="patch_40">
    <path clip-path="url(#p7a038187a4)" d="M 293.276842 768.96 
L 295.038947 768.96 
L 295.038947 745.730176 
L 293.276842 745.730176 
z
" style="fill:#1f77b4;"/>
   </g>
   <g id="patch_41">
    <path clip-path="url(#p7a038187a4)" d="M 296.801053 768.96 
L 298.563158 768.96 
L 298.563158 692.456059 
L 296.801053 692.456059 
z
" style="fill:#1f77b4;"/>
   </g>
   <g id="patch_42">
    <path clip-path="url(#p7a038187a4)" d="M 300.325263 768.96 
L 302.087368 768.96 
L 302.087368 673.073583 
L 300.325263 673.073583 
z
" style="fill:#1f77b4;"/>
   </g>
   <g id="patch_43">
    <path clip-path="url(#p7a038187a4)" d="M 303.849474 768.96 
L 305.611579 768.96 
L 305.611579 653.003249 
L 303.849474 653.003249 
z
" style="fill:#1f77b4;"/>
   </g>
   <g id="patch_44">
    <path clip-path="url(#p7a038187a4)" d="M 307.373684 768.96 
L 309.135789 768.96 
L 309.135789 602.946913 
L 307.373684 602.946913 
z
" style="fill:#1f77b4;"/>
   </g>
   <g id="patch_45">
    <path clip-path="url(#p7a038187a4)" d="M 310.897895 768.96 
L 312.66 768.96 
L 312.66 625.016703 
L 310.897895 625.016703 
z
" style="fill:#1f77b4;"/>
   </g>
   <g id="patch_46">
    <path clip-path="url(#p7a038187a4)" d="M 314.422105 768.96 
L 316.184211 768.96 
L 316.184211 679.509148 
L 314.422105 679.509148 
z
" style="fill:#1f77b4;"/>
   </g>
   <g id="patch_47">
    <path clip-path="url(#p7a038187a4)" d="M 317.946316 768.96 
L 319.708421 768.96 
L 319.708421 720.599996 
L 317.946316 720.599996 
z
" style="fill:#1f77b4;"/>
   </g>
   <g id="patch_48">
    <path clip-path="url(#p7a038187a4)" d="M 321.470526 768.96 
L 323.232632 768.96 
L 323.232632 721.089658 
L 321.470526 721.089658 
z
" style="fill:#1f77b4;"/>
   </g>
   <g id="patch_49">
    <path clip-path="url(#p7a038187a4)" d="M 324.994737 768.96 
L 326.756842 768.96 
L 326.756842 679.421708 
L 324.994737 679.421708 
z
" style="fill:#1f77b4;"/>
   </g>
   <g id="patch_50">
    <path clip-path="url(#p7a038187a4)" d="M 328.518947 768.96 
L 330.281053 768.96 
L 330.281053 619.414731 
L 328.518947 619.414731 
z
" style="fill:#1f77b4;"/>
   </g>
   <g id="patch_51">
    <path clip-path="url(#p7a038187a4)" d="M 332.043158 768.96 
L 333.805263 768.96 
L 333.805263 575.828936 
L 332.043158 575.828936 
z
" style="fill:#1f77b4;"/>
   </g>
   <g id="patch_52">
    <path clip-path="url(#p7a038187a4)" d="M 335.567368 768.96 
L 337.329474 768.96 
L 337.329474 583.966661 
L 335.567368 583.966661 
z
" style="fill:#1f77b4;"/>
   </g>
   <g id="patch_53">
    <path clip-path="url(#p7a038187a4)" d="M 339.091579 768.96 
L 340.853684 768.96 
L 340.853684 740.559573 
L 339.091579 740.559573 
z
" style="fill:#1f77b4;"/>
   </g>
   <g id="patch_54">
    <path clip-path="url(#p7a038187a4)" d="M 342.615789 768.96 
L 344.377895 768.96 
L 344.377895 631.965248 
L 342.615789 631.965248 
z
" style="fill:#1f77b4;"/>
   </g>
   <g id="patch_55">
    <path clip-path="url(#p7a038187a4)" d="M 346.14 768.96 
L 347.902105 768.96 
L 347.902105 662.464228 
L 346.14 662.464228 
z
" style="fill:#1f77b4;"/>
   </g>
   <g id="patch_56">
    <path clip-path="url(#p7a038187a4)" d="M 349.664211 768.96 
L 351.426316 768.96 
L 351.426316 610.455072 
L 349.664211 610.455072 
z
" style="fill:#1f77b4;"/>
   </g>
   <g id="patch_57">
    <path clip-path="url(#p7a038187a4)" d="M 353.188421 768.96 
L 354.950526 768.96 
L 354.950526 463.206554 
L 353.188421 463.206554 
z
" style="fill:#1f77b4;"/>
   </g>
   <g id="patch_58">
    <path clip-path="url(#p7a038187a4)" d="M 356.712632 768.96 
L 358.474737 768.96 
L 358.474737 459.40584 
L 356.712632 459.40584 
z
" style="fill:#1f77b4;"/>
   </g>
   <g id="patch_59">
    <path clip-path="url(#p7a038187a4)" d="M 360.236842 768.96 
L 361.998947 768.96 
L 361.998947 496.754266 
L 360.236842 496.754266 
z
" style="fill:#1f77b4;"/>
   </g>
   <g id="patch_60">
    <path clip-path="url(#p7a038187a4)" d="M 363.761053 768.96 
L 365.523158 768.96 
L 365.523158 530.197051 
L 363.761053 530.197051 
z
" style="fill:#1f77b4;"/>
   </g>
   <g id="patch_61">
    <path clip-path="url(#p7a038187a4)" d="M 367.285263 768.96 
L 369.047368 768.96 
L 369.047368 653.836841 
L 367.285263 653.836841 
z
" style="fill:#1f77b4;"/>
   </g>
   <g id="patch_62">
    <path clip-path="url(#p7a038187a4)" d="M 370.809474 768.96 
L 372.571579 768.96 
L 372.571579 596.785327 
L 370.809474 596.785327 
z
" style="fill:#1f77b4;"/>
   </g>
   <g id="patch_63">
    <path clip-path="url(#p7a038187a4)" d="M 374.333684 768.96 
L 376.095789 768.96 
L 376.095789 539.786276 
L 374.333684 539.786276 
z
" style="fill:#1f77b4;"/>
   </g>
   <g id="patch_64">
    <path clip-path="url(#p7a038187a4)" d="M 377.857895 768.96 
L 379.62 768.96 
L 379.62 503.731957 
L 377.857895 503.731957 
z
" style="fill:#1f77b4;"/>
   </g>
   <g id="patch_65">
    <path clip-path="url(#p7a038187a4)" d="M 381.382105 768.96 
L 383.144211 768.96 
L 383.144211 379.998899 
L 381.382105 379.998899 
z
" style="fill:#1f77b4;"/>
   </g>
   <g id="patch_66">
    <path clip-path="url(#p7a038187a4)" d="M 384.906316 768.96 
L 386.668421 768.96 
L 386.668421 397.03216 
L 384.906316 397.03216 
z
" style="fill:#1f77b4;"/>
   </g>
   <g id="patch_67">
    <path clip-path="url(#p7a038187a4)" d="M 388.430526 768.96 
L 390.192632 768.96 
L 390.192632 491.01822 
L 388.430526 491.01822 
z
" style="fill:#1f77b4;"/>
   </g>
   <g id="patch_68">
    <path clip-path="url(#p7a038187a4)" d="M 391.954737 768.96 
L 393.716842 768.96 
L 393.716842 681.53775 
L 391.954737 681.53775 
z
" style="fill:#1f77b4;"/>
   </g>
   <g id="patch_69">
    <path clip-path="url(#p7a038187a4)" d="M 395.478947 768.96 
L 397.241053 768.96 
L 397.241053 528.063522 
L 395.478947 528.063522 
z
" style="fill:#1f77b4;"/>
   </g>
   <g id="patch_70">
    <path clip-path="url(#p7a038187a4)" d="M 399.003158 768.96 
L 400.765263 768.96 
L 400.765263 460.198627 
L 399.003158 460.198627 
z
" style="fill:#1f77b4;"/>
   </g>
   <g id="patch_71">
    <path clip-path="url(#p7a038187a4)" d="M 402.527368 768.96 
L 404.289474 768.96 
L 404.289474 429.402351 
L 402.527368 429.402351 
z
" style="fill:#1f77b4;"/>
   </g>
   <g id="patch_72">
    <path clip-path="url(#p7a038187a4)" d="M 406.051579 768.96 
L 407.813684 768.96 
L 407.813684 404.301317 
L 406.051579 404.301317 
z
" style="fill:#1f77b4;"/>
   </g>
   <g id="patch_73">
    <path clip-path="url(#p7a038187a4)" d="M 409.575789 768.96 
L 411.337895 768.96 
L 411.337895 350.444267 
L 409.575789 350.444267 
z
" style="fill:#1f77b4;"/>
   </g>
   <g id="patch_74">
    <path clip-path="url(#p7a038187a4)" d="M 413.1 768.96 
L 414.862105 768.96 
L 414.862105 499.523191 
L 413.1 499.523191 
z
" style="fill:#1f77b4;"/>
   </g>
   <g id="patch_75">
    <path clip-path="url(#p7a038187a4)" d="M 416.624211 768.96 
L 418.386316 768.96 
L 418.386316 498.76538 
L 416.624211 498.76538 
z
" style="fill:#1f77b4;"/>
   </g>
   <g id="patch_76">
    <path clip-path="url(#p7a038187a4)" d="M 420.148421 768.96 
L 421.910526 768.96 
L 421.910526 530.261174 
L 420.148421 530.261174 
z
" style="fill:#1f77b4;"/>
   </g>
   <g id="patch_77">
    <path clip-path="url(#p7a038187a4)" d="M 423.672632 768.96 
L 425.434737 768.96 
L 425.434737 502.023968 
L 423.672632 502.023968 
z
" style="fill:#1f77b4;"/>
   </g>
   <g id="patch_78">
    <path clip-path="url(#p7a038187a4)" d="M 427.196842 768.96 
L 428.958947 768.96 
L 428.958947 532.715316 
L 427.196842 532.715316 
z
" style="fill:#1f77b4;"/>
   </g>
   <g id="patch_79">
    <path clip-path="url(#p7a038187a4)" d="M 430.721053 768.96 
L 432.483158 768.96 
L 432.483158 497.372174 
L 430.721053 497.372174 
z
" style="fill:#1f77b4;"/>
   </g>
   <g id="patch_80">
    <path clip-path="url(#p7a038187a4)" d="M 434.245263 768.96 
L 436.007368 768.96 
L 436.007368 486.337279 
L 434.245263 486.337279 
z
" style="fill:#1f77b4;"/>
   </g>
   <g id="patch_81">
    <path clip-path="url(#p7a038187a4)" d="M 437.769474 768.96 
L 439.531579 768.96 
L 439.531579 594.949092 
L 437.769474 594.949092 
z
" style="fill:#1f77b4;"/>
   </g>
   <g id="patch_82">
    <path clip-path="url(#p7a038187a4)" d="M 441.293684 768.96 
L 443.055789 768.96 
L 443.055789 674.29774 
L 441.293684 674.29774 
z
" style="fill:#1f77b4;"/>
   </g>
   <g id="patch_83">
    <path clip-path="url(#p7a038187a4)" d="M 444.817895 768.96 
L 446.58 768.96 
L 446.58 616.69244 
L 444.817895 616.69244 
z
" style="fill:#1f77b4;"/>
   </g>
   <g id="patch_84">
    <path clip-path="url(#p7a038187a4)" d="M 448.342105 768.96 
L 450.104211 768.96 
L 450.104211 585.76209 
L 448.342105 585.76209 
z
" style="fill:#1f77b4;"/>
   </g>
   <g id="patch_85">
    <path clip-path="url(#p7a038187a4)" d="M 451.866316 768.96 
L 453.628421 768.96 
L 453.628421 578.510421 
L 451.866316 578.510421 
z
" style="fill:#1f77b4;"/>
   </g>
   <g id="patch_86">
    <path clip-path="url(#p7a038187a4)" d="M 455.390526 768.96 
L 457.152632 768.96 
L 457.152632 526.769414 
L 455.390526 526.769414 
z
" style="fill:#1f77b4;"/>
   </g>
   <g id="patch_87">
    <path clip-path="url(#p7a038187a4)" d="M 458.914737 768.96 
L 460.676842 768.96 
L 460.676842 465.153545 
L 458.914737 465.153545 
z
" style="fill:#1f77b4;"/>
   </g>
   <g id="patch_88">
    <path clip-path="url(#p7a038187a4)" d="M 462.438947 768.96 
L 464.201053 768.96 
L 464.201053 501.697526 
L 462.438947 501.697526 
z
" style="fill:#1f77b4;"/>
   </g>
   <g id="patch_89">
    <path clip-path="url(#p7a038187a4)" d="M 465.963158 768.96 
L 467.725263 768.96 
L 467.725263 662.889769 
L 465.963158 662.889769 
z
" style="fill:#1f77b4;"/>
   </g>
   <g id="patch_90">
    <path clip-path="url(#p7a038187a4)" d="M 469.487368 768.96 
L 471.249474 768.96 
L 471.249474 605.383568 
L 469.487368 605.383568 
z
" style="fill:#1f77b4;"/>
   </g>
   <g id="patch_91">
    <path clip-path="url(#p7a038187a4)" d="M 473.011579 768.96 
L 474.773684 768.96 
L 474.773684 474.532914 
L 473.011579 474.532914 
z
" style="fill:#1f77b4;"/>
   </g>
   <g id="patch_92">
    <path clip-path="url(#p7a038187a4)" d="M 476.535789 768.96 
L 478.297895 768.96 
L 478.297895 518.206149 
L 476.535789 518.206149 
z
" style="fill:#1f77b4;"/>
   </g>
   <g id="patch_93">
    <path clip-path="url(#p7a038187a4)" d="M 480.06 768.96 
L 481.822105 768.96 
L 481.822105 422.710296 
L 480.06 422.710296 
z
" style="fill:#1f77b4;"/>
   </g>
   <g id="patch_94">
    <path clip-path="url(#p7a038187a4)" d="M 483.584211 768.96 
L 485.346316 768.96 
L 485.346316 416.502075 
L 483.584211 416.502075 
z
" style="fill:#1f77b4;"/>
   </g>
   <g id="patch_95">
    <path clip-path="url(#p7a038187a4)" d="M 487.108421 768.96 
L 488.870526 768.96 
L 488.870526 494.049464 
L 487.108421 494.049464 
z
" style="fill:#1f77b4;"/>
   </g>
   <g id="patch_96">
    <path clip-path="url(#p7a038187a4)" d="M 490.632632 768.96 
L 492.394737 768.96 
L 492.394737 692.904916 
L 490.632632 692.904916 
z
" style="fill:#1f77b4;"/>
   </g>
   <g id="patch_97">
    <path clip-path="url(#p7a038187a4)" d="M 494.156842 768.96 
L 495.918947 768.96 
L 495.918947 510.179181 
L 494.156842 510.179181 
z
" style="fill:#1f77b4;"/>
   </g>
   <g id="patch_98">
    <path clip-path="url(#p7a038187a4)" d="M 497.681053 768.96 
L 499.443158 768.96 
L 499.443158 370.596212 
L 497.681053 370.596212 
z
" style="fill:#1f77b4;"/>
   </g>
   <g id="patch_99">
    <path clip-path="url(#p7a038187a4)" d="M 501.205263 768.96 
L 502.967368 768.96 
L 502.967368 329.429584 
L 501.205263 329.429584 
z
" style="fill:#1f77b4;"/>
   </g>
   <g id="patch_100">
    <path clip-path="url(#p7a038187a4)" d="M 504.729474 768.96 
L 506.491579 768.96 
L 506.491579 239.949585 
L 504.729474 239.949585 
z
" style="fill:#1f77b4;"/>
   </g>
   <g id="patch_101">
    <path clip-path="url(#p7a038187a4)" d="M 508.253684 768.96 
L 510.015789 768.96 
L 510.015789 135.36 
L 508.253684 135.36 
z
" style="fill:#1f77b4;"/>
   </g>
   <g id="patch_102">
    <path clip-path="url(#p7a038187a4)" d="M 511.777895 768.96 
L 513.54 768.96 
L 513.54 339.834913 
L 511.777895 339.834913 
z
" style="fill:#1f77b4;"/>
   </g>
   <g id="patch_103">
    <path clip-path="url(#p7a038187a4)" d="M 515.302105 768.96 
L 517.064211 768.96 
L 517.064211 564.176134 
L 515.302105 564.176134 
z
" style="fill:#1f77b4;"/>
   </g>
   <g id="patch_104">
    <path clip-path="url(#p7a038187a4)" d="M 518.826316 768.96 
L 520.588421 768.96 
L 520.588421 418.017697 
L 518.826316 418.017697 
z
" style="fill:#1f77b4;"/>
   </g>
   <g id="patch_105">
    <path clip-path="url(#p7a038187a4)" d="M 522.350526 768.96 
L 524.112632 768.96 
L 524.112632 335.830173 
L 522.350526 335.830173 
z
" style="fill:#1f77b4;"/>
   </g>
   <g id="patch_106">
    <path clip-path="url(#p7a038187a4)" d="M 525.874737 768.96 
L 527.636842 768.96 
L 527.636842 396.320983 
L 525.874737 396.320983 
z
" style="fill:#1f77b4;"/>
   </g>
   <g id="patch_107">
    <path clip-path="url(#p7a038187a4)" d="M 529.398947 768.96 
L 531.161053 768.96 
L 531.161053 260.661145 
L 529.398947 260.661145 
z
" style="fill:#1f77b4;"/>
   </g>
   <g id="patch_108">
    <path clip-path="url(#p7a038187a4)" d="M 532.923158 768.96 
L 534.685263 768.96 
L 534.685263 267.125856 
L 532.923158 267.125856 
z
" style="fill:#1f77b4;"/>
   </g>
   <g id="patch_109">
    <path clip-path="url(#p7a038187a4)" d="M 536.447368 768.96 
L 538.209474 768.96 
L 538.209474 415.895826 
L 536.447368 415.895826 
z
" style="fill:#1f77b4;"/>
   </g>
   <g id="patch_110">
    <path clip-path="url(#p7a038187a4)" d="M 539.971579 768.96 
L 541.733684 768.96 
L 541.733684 564.619162 
L 539.971579 564.619162 
z
" style="fill:#1f77b4;"/>
   </g>
   <g id="patch_111">
    <path clip-path="url(#p7a038187a4)" d="M 543.495789 768.96 
L 545.257895 768.96 
L 545.257895 477.937235 
L 543.495789 477.937235 
z
" style="fill:#1f77b4;"/>
   </g>
   <g id="patch_112">
    <path clip-path="url(#p7a038187a4)" d="M 547.02 768.96 
L 548.782105 768.96 
L 548.782105 297.3392 
L 547.02 297.3392 
z
" style="fill:#1f77b4;"/>
   </g>
   <g id="patch_113">
    <path clip-path="url(#p7a038187a4)" d="M 550.544211 768.96 
L 552.306316 768.96 
L 552.306316 352.455381 
L 550.544211 352.455381 
z
" style="fill:#1f77b4;"/>
   </g>
   <g id="patch_114">
    <path clip-path="url(#p7a038187a4)" d="M 554.068421 768.96 
L 555.830526 768.96 
L 555.830526 332.769782 
L 554.068421 332.769782 
z
" style="fill:#1f77b4;"/>
   </g>
   <g id="patch_115">
    <path clip-path="url(#p7a038187a4)" d="M 557.592632 768.96 
L 559.354737 768.96 
L 559.354737 363.97411 
L 557.592632 363.97411 
z
" style="fill:#1f77b4;"/>
   </g>
   <g id="patch_116">
    <path clip-path="url(#p7a038187a4)" d="M 561.116842 768.96 
L 562.878947 768.96 
L 562.878947 499.843804 
L 561.116842 499.843804 
z
" style="fill:#1f77b4;"/>
   </g>
   <g id="patch_117">
    <path clip-path="url(#p7a038187a4)" d="M 564.641053 768.96 
L 566.403158 768.96 
L 566.403158 658.313756 
L 564.641053 658.313756 
z
" style="fill:#1f77b4;"/>
   </g>
   <g id="patch_118">
    <path clip-path="url(#p7a038187a4)" d="M 568.165263 768.96 
L 569.927368 768.96 
L 569.927368 517.156872 
L 568.165263 517.156872 
z
" style="fill:#1f77b4;"/>
   </g>
   <g id="patch_119">
    <path clip-path="url(#p7a038187a4)" d="M 571.689474 768.96 
L 573.451579 768.96 
L 573.451579 407.828053 
L 571.689474 407.828053 
z
" style="fill:#1f77b4;"/>
   </g>
   <g id="patch_120">
    <path clip-path="url(#p7a038187a4)" d="M 575.213684 768.96 
L 576.975789 768.96 
L 576.975789 393.575376 
L 575.213684 393.575376 
z
" style="fill:#1f77b4;"/>
   </g>
   <g id="patch_121">
    <path clip-path="url(#p7a038187a4)" d="M 578.737895 768.96 
L 580.5 768.96 
L 580.5 406.417358 
L 578.737895 406.417358 
z
" style="fill:#1f77b4;"/>
   </g>
   <g id="patch_122">
    <path clip-path="url(#p7a038187a4)" d="M 582.262105 768.96 
L 584.024211 768.96 
L 584.024211 454.619971 
L 582.262105 454.619971 
z
" style="fill:#1f77b4;"/>
   </g>
   <g id="patch_123">
    <path clip-path="url(#p7a038187a4)" d="M 585.786316 768.96 
L 587.548421 768.96 
L 587.548421 625.972711 
L 585.786316 625.972711 
z
" style="fill:#1f77b4;"/>
   </g>
   <g id="patch_124">
    <path clip-path="url(#p7a038187a4)" d="M 589.310526 768.96 
L 591.072632 768.96 
L 591.072632 723.514654 
L 589.310526 723.514654 
z
" style="fill:#1f77b4;"/>
   </g>
   <g id="patch_125">
    <path clip-path="url(#p7a038187a4)" d="M 592.834737 768.96 
L 594.596842 768.96 
L 594.596842 613.305608 
L 592.834737 613.305608 
z
" style="fill:#1f77b4;"/>
   </g>
   <g id="patch_126">
    <path clip-path="url(#p7a038187a4)" d="M 596.358947 768.96 
L 598.121053 768.96 
L 598.121053 361.747311 
L 596.358947 361.747311 
z
" style="fill:#1f77b4;"/>
   </g>
   <g id="patch_127">
    <path clip-path="url(#p7a038187a4)" d="M 599.883158 768.96 
L 601.645263 768.96 
L 601.645263 371.243266 
L 599.883158 371.243266 
z
" style="fill:#1f77b4;"/>
   </g>
   <g id="patch_128">
    <path clip-path="url(#p7a038187a4)" d="M 603.407368 768.96 
L 605.169474 768.96 
L 605.169474 470.889592 
L 603.407368 470.889592 
z
" style="fill:#1f77b4;"/>
   </g>
   <g id="patch_129">
    <path clip-path="url(#p7a038187a4)" d="M 606.931579 768.96 
L 608.693684 768.96 
L 608.693684 323.442876 
L 606.931579 323.442876 
z
" style="fill:#1f77b4;"/>
   </g>
   <g id="patch_130">
    <path clip-path="url(#p7a038187a4)" d="M 610.455789 768.96 
L 612.217895 768.96 
L 612.217895 467.432808 
L 610.455789 467.432808 
z
" style="fill:#1f77b4;"/>
   </g>
   <g id="patch_131">
    <path clip-path="url(#p7a038187a4)" d="M 613.98 768.96 
L 615.742105 768.96 
L 615.742105 500.391759 
L 613.98 500.391759 
z
" style="fill:#1f77b4;"/>
   </g>
   <g id="patch_132">
    <path clip-path="url(#p7a038187a4)" d="M 617.504211 768.96 
L 619.266316 768.96 
L 619.266316 528.996212 
L 617.504211 528.996212 
z
" style="fill:#1f77b4;"/>
   </g>
   <g id="patch_133">
    <path clip-path="url(#p7a038187a4)" d="M 621.028421 768.96 
L 622.790526 768.96 
L 622.790526 461.008901 
L 621.028421 461.008901 
z
" style="fill:#1f77b4;"/>
   </g>
   <g id="patch_134">
    <path clip-path="url(#p7a038187a4)" d="M 624.552632 768.96 
L 626.314737 768.96 
L 626.314737 489.922308 
L 624.552632 489.922308 
z
" style="fill:#1f77b4;"/>
   </g>
   <g id="patch_135">
    <path clip-path="url(#p7a038187a4)" d="M 628.076842 768.96 
L 629.838947 768.96 
L 629.838947 478.356945 
L 628.076842 478.356945 
z
" style="fill:#1f77b4;"/>
   </g>
   <g id="patch_136">
    <path clip-path="url(#p7a038187a4)" d="M 631.601053 768.96 
L 633.363158 768.96 
L 633.363158 349.74475 
L 631.601053 349.74475 
z
" style="fill:#1f77b4;"/>
   </g>
   <g id="patch_137">
    <path clip-path="url(#p7a038187a4)" d="M 635.125263 768.96 
L 636.887368 768.96 
L 636.887368 534.330036 
L 635.125263 534.330036 
z
" style="fill:#1f77b4;"/>
   </g>
   <g id="patch_138">
    <path clip-path="url(#p7a038187a4)" d="M 638.649474 768.96 
L 640.411579 768.96 
L 640.411579 674.711621 
L 638.649474 674.711621 
z
" style="fill:#1f77b4;"/>
   </g>
   <g id="patch_139">
    <path clip-path="url(#p7a038187a4)" d="M 642.173684 768.96 
L 643.935789 768.96 
L 643.935789 606.269624 
L 642.173684 606.269624 
z
" style="fill:#1f77b4;"/>
   </g>
   <g id="patch_140">
    <path clip-path="url(#p7a038187a4)" d="M 645.697895 768.96 
L 647.46 768.96 
L 647.46 466.535093 
L 645.697895 466.535093 
z
" style="fill:#1f77b4;"/>
   </g>
   <g id="patch_141">
    <path clip-path="url(#p7a038187a4)" d="M 649.222105 768.96 
L 650.984211 768.96 
L 650.984211 499.756364 
L 649.222105 499.756364 
z
" style="fill:#1f77b4;"/>
   </g>
   <g id="patch_142">
    <path clip-path="url(#p7a038187a4)" d="M 652.746316 768.96 
L 654.508421 768.96 
L 654.508421 383.752978 
L 652.746316 383.752978 
z
" style="fill:#1f77b4;"/>
   </g>
   <g id="patch_143">
    <path clip-path="url(#p7a038187a4)" d="M 656.270526 768.96 
L 658.032632 768.96 
L 658.032632 520.07153 
L 656.270526 520.07153 
z
" style="fill:#1f77b4;"/>
   </g>
   <g id="patch_144">
    <path clip-path="url(#p7a038187a4)" d="M 659.794737 768.96 
L 661.556842 768.96 
L 661.556842 569.008637 
L 659.794737 569.008637 
z
" style="fill:#1f77b4;"/>
   </g>
   <g id="patch_145">
    <path clip-path="url(#p7a038187a4)" d="M 663.318947 768.96 
L 665.081053 768.96 
L 665.081053 677.154104 
L 663.318947 677.154104 
z
" style="fill:#1f77b4;"/>
   </g>
   <g id="patch_146">
    <path clip-path="url(#p7a038187a4)" d="M 666.843158 768.96 
L 668.605263 768.96 
L 668.605263 617.899109 
L 666.843158 617.899109 
z
" style="fill:#1f77b4;"/>
   </g>
   <g id="patch_147">
    <path clip-path="url(#p7a038187a4)" d="M 670.367368 768.96 
L 672.129474 768.96 
L 672.129474 584.695326 
L 670.367368 584.695326 
z
" style="fill:#1f77b4;"/>
   </g>
   <g id="patch_148">
    <path clip-path="url(#p7a038187a4)" d="M 673.891579 768.96 
L 675.653684 768.96 
L 675.653684 583.815099 
L 673.891579 583.815099 
z
" style="fill:#1f77b4;"/>
   </g>
   <g id="patch_149">
    <path clip-path="url(#p7a038187a4)" d="M 677.415789 768.96 
L 679.177895 768.96 
L 679.177895 573.199915 
L 677.415789 573.199915 
z
" style="fill:#1f77b4;"/>
   </g>
   <g id="patch_150">
    <path clip-path="url(#p7a038187a4)" d="M 680.94 768.96 
L 682.702105 768.96 
L 682.702105 586.391656 
L 680.94 586.391656 
z
" style="fill:#1f77b4;"/>
   </g>
   <g id="patch_151">
    <path clip-path="url(#p7a038187a4)" d="M 684.464211 768.96 
L 686.226316 768.96 
L 686.226316 644.026102 
L 684.464211 644.026102 
z
" style="fill:#1f77b4;"/>
   </g>
   <g id="patch_152">
    <path clip-path="url(#p7a038187a4)" d="M 687.988421 768.96 
L 689.750526 768.96 
L 689.750526 698.868306 
L 687.988421 698.868306 
z
" style="fill:#1f77b4;"/>
   </g>
   <g id="patch_153">
    <path clip-path="url(#p7a038187a4)" d="M 691.512632 768.96 
L 693.274737 768.96 
L 693.274737 718.058414 
L 691.512632 718.058414 
z
" style="fill:#1f77b4;"/>
   </g>
   <g id="patch_154">
    <path clip-path="url(#p7a038187a4)" d="M 695.036842 768.96 
L 696.798947 768.96 
L 696.798947 659.141518 
L 695.036842 659.141518 
z
" style="fill:#1f77b4;"/>
   </g>
   <g id="patch_155">
    <path clip-path="url(#p7a038187a4)" d="M 698.561053 768.96 
L 700.323158 768.96 
L 700.323158 652.962444 
L 698.561053 652.962444 
z
" style="fill:#1f77b4;"/>
   </g>
   <g id="patch_156">
    <path clip-path="url(#p7a038187a4)" d="M 702.085263 768.96 
L 703.847368 768.96 
L 703.847368 581.156931 
L 702.085263 581.156931 
z
" style="fill:#1f77b4;"/>
   </g>
   <g id="patch_157">
    <path clip-path="url(#p7a038187a4)" d="M 705.609474 768.96 
L 707.371579 768.96 
L 707.371579 556.912806 
L 705.609474 556.912806 
z
" style="fill:#1f77b4;"/>
   </g>
   <g id="patch_158">
    <path clip-path="url(#p7a038187a4)" d="M 709.133684 768.96 
L 710.895789 768.96 
L 710.895789 579.658797 
L 709.133684 579.658797 
z
" style="fill:#1f77b4;"/>
   </g>
   <g id="patch_159">
    <path clip-path="url(#p7a038187a4)" d="M 712.657895 768.96 
L 714.42 768.96 
L 714.42 634.238681 
L 712.657895 634.238681 
z
" style="fill:#1f77b4;"/>
   </g>
   <g id="patch_160">
    <path clip-path="url(#p7a038187a4)" d="M 716.182105 768.96 
L 717.944211 768.96 
L 717.944211 582.520991 
L 716.182105 582.520991 
z
" style="fill:#1f77b4;"/>
   </g>
   <g id="patch_161">
    <path clip-path="url(#p7a038187a4)" d="M 719.706316 768.96 
L 721.468421 768.96 
L 721.468421 568.676366 
L 719.706316 568.676366 
z
" style="fill:#1f77b4;"/>
   </g>
   <g id="patch_162">
    <path clip-path="url(#p7a038187a4)" d="M 723.230526 768.96 
L 724.992632 768.96 
L 724.992632 535.274386 
L 723.230526 535.274386 
z
" style="fill:#1f77b4;"/>
   </g>
   <g id="patch_163">
    <path clip-path="url(#p7a038187a4)" d="M 726.754737 768.96 
L 728.516842 768.96 
L 728.516842 606.89336 
L 726.754737 606.89336 
z
" style="fill:#1f77b4;"/>
   </g>
   <g id="patch_164">
    <path clip-path="url(#p7a038187a4)" d="M 730.278947 768.96 
L 732.041053 768.96 
L 732.041053 615.555724 
L 730.278947 615.555724 
z
" style="fill:#1f77b4;"/>
   </g>
   <g id="patch_165">
    <path clip-path="url(#p7a038187a4)" d="M 733.803158 768.96 
L 735.565263 768.96 
L 735.565263 675.609336 
L 733.803158 675.609336 
z
" style="fill:#1f77b4;"/>
   </g>
   <g id="patch_166">
    <path clip-path="url(#p7a038187a4)" d="M 737.327368 768.96 
L 739.089474 768.96 
L 739.089474 675.533555 
L 737.327368 675.533555 
z
" style="fill:#1f77b4;"/>
   </g>
   <g id="patch_167">
    <path clip-path="url(#p7a038187a4)" d="M 740.851579 768.96 
L 742.613684 768.96 
L 742.613684 484.87995 
L 740.851579 484.87995 
z
" style="fill:#1f77b4;"/>
   </g>
   <g id="patch_168">
    <path clip-path="url(#p7a038187a4)" d="M 744.375789 768.96 
L 746.137895 768.96 
L 746.137895 558.125304 
L 744.375789 558.125304 
z
" style="fill:#1f77b4;"/>
   </g>
   <g id="patch_169">
    <path clip-path="url(#p7a038187a4)" d="M 747.9 768.96 
L 749.662105 768.96 
L 749.662105 624.608651 
L 747.9 624.608651 
z
" style="fill:#1f77b4;"/>
   </g>
   <g id="patch_170">
    <path clip-path="url(#p7a038187a4)" d="M 751.424211 768.96 
L 753.186316 768.96 
L 753.186316 579.250744 
L 751.424211 579.250744 
z
" style="fill:#1f77b4;"/>
   </g>
   <g id="patch_171">
    <path clip-path="url(#p7a038187a4)" d="M 754.948421 768.96 
L 756.710526 768.96 
L 756.710526 677.690402 
L 754.948421 677.690402 
z
" style="fill:#1f77b4;"/>
   </g>
   <g id="patch_172">
    <path clip-path="url(#p7a038187a4)" d="M 758.472632 768.96 
L 760.234737 768.96 
L 760.234737 627.150233 
L 758.472632 627.150233 
z
" style="fill:#1f77b4;"/>
   </g>
   <g id="patch_173">
    <path clip-path="url(#p7a038187a4)" d="M 761.996842 768.96 
L 763.758947 768.96 
L 763.758947 708.364262 
L 761.996842 708.364262 
z
" style="fill:#1f77b4;"/>
   </g>
   <g id="patch_174">
    <path clip-path="url(#p7a038187a4)" d="M 765.521053 768.96 
L 767.283158 768.96 
L 767.283158 694.799444 
L 765.521053 694.799444 
z
" style="fill:#1f77b4;"/>
   </g>
   <g id="patch_175">
    <path clip-path="url(#p7a038187a4)" d="M 769.045263 768.96 
L 770.807368 768.96 
L 770.807368 678.582287 
L 769.045263 678.582287 
z
" style="fill:#1f77b4;"/>
   </g>
   <g id="patch_176">
    <path clip-path="url(#p7a038187a4)" d="M 772.569474 768.96 
L 774.331579 768.96 
L 774.331579 659.29891 
L 772.569474 659.29891 
z
" style="fill:#1f77b4;"/>
   </g>
   <g id="patch_177">
    <path clip-path="url(#p7a038187a4)" d="M 776.093684 768.96 
L 777.855789 768.96 
L 777.855789 635.789279 
L 776.093684 635.789279 
z
" style="fill:#1f77b4;"/>
   </g>
   <g id="patch_178">
    <path clip-path="url(#p7a038187a4)" d="M 779.617895 768.96 
L 781.38 768.96 
L 781.38 473.081415 
L 779.617895 473.081415 
z
" style="fill:#1f77b4;"/>
   </g>
   <g id="patch_179">
    <path clip-path="url(#p7a038187a4)" d="M 783.142105 768.96 
L 784.904211 768.96 
L 784.904211 427.181382 
L 783.142105 427.181382 
z
" style="fill:#1f77b4;"/>
   </g>
   <g id="patch_180">
    <path clip-path="url(#p7a038187a4)" d="M 786.666316 768.96 
L 788.428421 768.96 
L 788.428421 738.36775 
L 786.666316 738.36775 
z
" style="fill:#1f77b4;"/>
   </g>
   <g id="patch_181">
    <path clip-path="url(#p7a038187a4)" d="M 790.190526 768.96 
L 791.952632 768.96 
L 791.952632 692.95738 
L 790.190526 692.95738 
z
" style="fill:#1f77b4;"/>
   </g>
   <g id="patch_182">
    <path clip-path="url(#p7a038187a4)" d="M 793.714737 768.96 
L 795.476842 768.96 
L 795.476842 675.06138 
L 793.714737 675.06138 
z
" style="fill:#1f77b4;"/>
   </g>
   <g id="patch_183">
    <path clip-path="url(#p7a038187a4)" d="M 797.238947 768.96 
L 799.001053 768.96 
L 799.001053 678.687215 
L 797.238947 678.687215 
z
" style="fill:#1f77b4;"/>
   </g>
   <g id="patch_184">
    <path clip-path="url(#p7a038187a4)" d="M 800.763158 768.96 
L 802.525263 768.96 
L 802.525263 687.780947 
L 800.763158 687.780947 
z
" style="fill:#1f77b4;"/>
   </g>
   <g id="patch_185">
    <path clip-path="url(#p7a038187a4)" d="M 804.287368 768.96 
L 806.049474 768.96 
L 806.049474 687.716825 
L 804.287368 687.716825 
z
" style="fill:#1f77b4;"/>
   </g>
   <g id="patch_186">
    <path clip-path="url(#p7a038187a4)" d="M 807.811579 768.96 
L 809.573684 768.96 
L 809.573684 708.335115 
L 807.811579 708.335115 
z
" style="fill:#1f77b4;"/>
   </g>
   <g id="patch_187">
    <path clip-path="url(#p7a038187a4)" d="M 811.335789 768.96 
L 813.097895 768.96 
L 813.097895 739.883372 
L 811.335789 739.883372 
z
" style="fill:#1f77b4;"/>
   </g>
   <g id="patch_188">
    <path clip-path="url(#p7a038187a4)" d="M 814.86 768.96 
L 816.622105 768.96 
L 816.622105 763.981764 
L 814.86 763.981764 
z
" style="fill:#1f77b4;"/>
   </g>
   <g id="patch_189">
    <path clip-path="url(#p7a038187a4)" d="M 818.384211 768.96 
L 820.146316 768.96 
L 820.146316 721.818323 
L 818.384211 721.818323 
z
" style="fill:#1f77b4;"/>
   </g>
   <g id="patch_190">
    <path clip-path="url(#p7a038187a4)" d="M 821.908421 768.96 
L 823.670526 768.96 
L 823.670526 685.810639 
L 821.908421 685.810639 
z
" style="fill:#1f77b4;"/>
   </g>
   <g id="patch_191">
    <path clip-path="url(#p7a038187a4)" d="M 825.432632 768.96 
L 827.194737 768.96 
L 827.194737 685.507514 
L 825.432632 685.507514 
z
" style="fill:#1f77b4;"/>
   </g>
   <g id="patch_192">
    <path clip-path="url(#p7a038187a4)" d="M 828.956842 768.96 
L 830.718947 768.96 
L 830.718947 695.644694 
L 828.956842 695.644694 
z
" style="fill:#1f77b4;"/>
   </g>
   <g id="patch_193">
    <path clip-path="url(#p7a038187a4)" d="M 832.481053 768.96 
L 834.243158 768.96 
L 834.243158 707.093471 
L 832.481053 707.093471 
z
" style="fill:#1f77b4;"/>
   </g>
   <g id="patch_194">
    <path clip-path="url(#p7a038187a4)" d="M 836.005263 768.96 
L 837.767368 768.96 
L 837.767368 726.819876 
L 836.005263 726.819876 
z
" style="fill:#1f77b4;"/>
   </g>
   <g id="patch_195">
    <path clip-path="url(#p7a038187a4)" d="M 839.529474 768.96 
L 841.291579 768.96 
L 841.291579 690.258407 
L 839.529474 690.258407 
z
" style="fill:#1f77b4;"/>
   </g>
   <g id="patch_196">
    <path clip-path="url(#p7a038187a4)" d="M 843.053684 768.96 
L 844.815789 768.96 
L 844.815789 703.712468 
L 843.053684 703.712468 
z
" style="fill:#1f77b4;"/>
   </g>
   <g id="patch_197">
    <path clip-path="url(#p7a038187a4)" d="M 846.577895 768.96 
L 848.34 768.96 
L 848.34 706.883615 
L 846.577895 706.883615 
z
" style="fill:#1f77b4;"/>
   </g>
   <g id="patch_198">
    <path clip-path="url(#p7a038187a4)" d="M 850.102105 768.96 
L 851.864211 768.96 
L 851.864211 707.26835 
L 850.102105 707.26835 
z
" style="fill:#1f77b4;"/>
   </g>
   <g id="patch_199">
    <path clip-path="url(#p7a038187a4)" d="M 853.626316 768.96 
L 855.388421 768.96 
L 855.388421 706.568832 
L 853.626316 706.568832 
z
" style="fill:#1f77b4;"/>
   </g>
   <g id="patch_200">
    <path clip-path="url(#p7a038187a4)" d="M 857.150526 768.96 
L 858.912632 768.96 
L 858.912632 716.904209 
L 857.150526 716.904209 
z
" style="fill:#1f77b4;"/>
   </g>
   <g id="patch_201">
    <path clip-path="url(#p7a038187a4)" d="M 860.674737 768.96 
L 862.436842 768.96 
L 862.436842 733.59937 
L 860.674737 733.59937 
z
" style="fill:#1f77b4;"/>
   </g>
   <g id="patch_202">
    <path clip-path="url(#p7a038187a4)" d="M 864.198947 768.96 
L 865.961053 768.96 
L 865.961053 716.455352 
L 864.198947 716.455352 
z
" style="fill:#1f77b4;"/>
   </g>
   <g id="patch_203">
    <path clip-path="url(#p7a038187a4)" d="M 867.723158 768.96 
L 869.485263 768.96 
L 869.485263 698.617645 
L 867.723158 698.617645 
z
" style="fill:#1f77b4;"/>
   </g>
   <g id="patch_204">
    <path clip-path="url(#p7a038187a4)" d="M 871.247368 768.96 
L 873.009474 768.96 
L 873.009474 703.339391 
L 871.247368 703.339391 
z
" style="fill:#1f77b4;"/>
   </g>
   <g id="patch_205">
    <path clip-path="url(#p7a038187a4)" d="M 874.771579 768.96 
L 876.533684 768.96 
L 876.533684 721.293684 
L 874.771579 721.293684 
z
" style="fill:#1f77b4;"/>
   </g>
   <g id="patch_206">
    <path clip-path="url(#p7a038187a4)" d="M 878.295789 768.96 
L 880.057895 768.96 
L 880.057895 720.296871 
L 878.295789 720.296871 
z
" style="fill:#1f77b4;"/>
   </g>
   <g id="patch_207">
    <path clip-path="url(#p7a038187a4)" d="M 881.82 768.96 
L 883.582105 768.96 
L 883.582105 738.694192 
L 881.82 738.694192 
z
" style="fill:#1f77b4;"/>
   </g>
   <g id="patch_208">
    <path clip-path="url(#p7a038187a4)" d="M 885.344211 768.96 
L 887.106316 768.96 
L 887.106316 751.390442 
L 885.344211 751.390442 
z
" style="fill:#1f77b4;"/>
   </g>
   <g id="patch_209">
    <path clip-path="url(#p7a038187a4)" d="M 888.868421 768.96 
L 890.630526 768.96 
L 890.630526 739.609395 
L 888.868421 739.609395 
z
" style="fill:#1f77b4;"/>
   </g>
   <g id="patch_210">
    <path clip-path="url(#p7a038187a4)" d="M 892.392632 768.96 
L 894.154737 768.96 
L 894.154737 702.173528 
L 892.392632 702.173528 
z
" style="fill:#1f77b4;"/>
   </g>
   <g id="patch_211">
    <path clip-path="url(#p7a038187a4)" d="M 895.916842 768.96 
L 897.678947 768.96 
L 897.678947 656.99633 
L 895.916842 656.99633 
z
" style="fill:#1f77b4;"/>
   </g>
   <g id="patch_212">
    <path clip-path="url(#p7a038187a4)" d="M 899.441053 768.96 
L 901.203158 768.96 
L 901.203158 710.690159 
L 899.441053 710.690159 
z
" style="fill:#1f77b4;"/>
   </g>
   <g id="patch_213">
    <path clip-path="url(#p7a038187a4)" d="M 902.965263 768.96 
L 904.727368 768.96 
L 904.727368 642.568773 
L 902.965263 642.568773 
z
" style="fill:#1f77b4;"/>
   </g>
   <g id="patch_214">
    <path clip-path="url(#p7a038187a4)" d="M 906.489474 768.96 
L 908.251579 768.96 
L 908.251579 722.972527 
L 906.489474 722.972527 
z
" style="fill:#1f77b4;"/>
   </g>
   <g id="patch_215">
    <path clip-path="url(#p7a038187a4)" d="M 910.013684 768.96 
L 911.775789 768.96 
L 911.775789 734.508743 
L 910.013684 734.508743 
z
" style="fill:#1f77b4;"/>
   </g>
   <g id="patch_216">
    <path clip-path="url(#p7a038187a4)" d="M 913.537895 768.96 
L 915.3 768.96 
L 915.3 722.133106 
L 913.537895 722.133106 
z
" style="fill:#1f77b4;"/>
   </g>
   <g id="patch_217">
    <path clip-path="url(#p7a038187a4)" d="M 917.062105 768.96 
L 918.824211 768.96 
L 918.824211 705.577849 
L 917.062105 705.577849 
z
" style="fill:#1f77b4;"/>
   </g>
   <g id="patch_218">
    <path clip-path="url(#p7a038187a4)" d="M 920.586316 768.96 
L 922.348421 768.96 
L 922.348421 710.608548 
L 920.586316 710.608548 
z
" style="fill:#1f77b4;"/>
   </g>
   <g id="patch_219">
    <path clip-path="url(#p7a038187a4)" d="M 924.110526 768.96 
L 925.872632 768.96 
L 925.872632 708.649898 
L 924.110526 708.649898 
z
" style="fill:#1f77b4;"/>
   </g>
   <g id="patch_220">
    <path clip-path="url(#p7a038187a4)" d="M 927.634737 768.96 
L 929.396842 768.96 
L 929.396842 704.831696 
L 927.634737 704.831696 
z
" style="fill:#1f77b4;"/>
   </g>
   <g id="patch_221">
    <path clip-path="url(#p7a038187a4)" d="M 931.158947 768.96 
L 932.921053 768.96 
L 932.921053 666.428163 
L 931.158947 666.428163 
z
" style="fill:#1f77b4;"/>
   </g>
   <g id="patch_222">
    <path clip-path="url(#p7a038187a4)" d="M 934.683158 768.96 
L 936.445263 768.96 
L 936.445263 728.953405 
L 934.683158 728.953405 
z
" style="fill:#1f77b4;"/>
   </g>
   <g id="patch_223">
    <path clip-path="url(#p7a038187a4)" d="M 938.207368 768.96 
L 939.969474 768.96 
L 939.969474 723.642898 
L 938.207368 723.642898 
z
" style="fill:#1f77b4;"/>
   </g>
   <g id="patch_224">
    <path clip-path="url(#p7a038187a4)" d="M 941.731579 768.96 
L 943.493684 768.96 
L 943.493684 725.840551 
L 941.731579 725.840551 
z
" style="fill:#1f77b4;"/>
   </g>
   <g id="patch_225">
    <path clip-path="url(#p7a038187a4)" d="M 945.255789 768.96 
L 947.017895 768.96 
L 947.017895 613.958491 
L 945.255789 613.958491 
z
" style="fill:#1f77b4;"/>
   </g>
   <g id="patch_226">
    <path clip-path="url(#p7a038187a4)" d="M 948.78 768.96 
L 950.542105 768.96 
L 950.542105 632.361641 
L 948.78 632.361641 
z
" style="fill:#1f77b4;"/>
   </g>
   <g id="patch_227">
    <path clip-path="url(#p7a038187a4)" d="M 952.304211 768.96 
L 954.066316 768.96 
L 954.066316 645.58253 
L 952.304211 645.58253 
z
" style="fill:#1f77b4;"/>
   </g>
   <g id="patch_228">
    <path clip-path="url(#p7a038187a4)" d="M 955.828421 768.96 
L 957.590526 768.96 
L 957.590526 608.059223 
L 955.828421 608.059223 
z
" style="fill:#1f77b4;"/>
   </g>
   <g id="patch_229">
    <path clip-path="url(#p7a038187a4)" d="M 959.352632 768.96 
L 961.114737 768.96 
L 961.114737 658.476976 
L 959.352632 658.476976 
z
" style="fill:#1f77b4;"/>
   </g>
   <g id="patch_230">
    <path clip-path="url(#p7a038187a4)" d="M 962.876842 768.96 
L 964.638947 768.96 
L 964.638947 715.19622 
L 962.876842 715.19622 
z
" style="fill:#1f77b4;"/>
   </g>
   <g id="patch_231">
    <path clip-path="url(#p7a038187a4)" d="M 966.401053 768.96 
L 968.163158 768.96 
L 968.163158 692.864111 
L 966.401053 692.864111 
z
" style="fill:#1f77b4;"/>
   </g>
   <g id="patch_232">
    <path clip-path="url(#p7a038187a4)" d="M 969.925263 768.96 
L 971.687368 768.96 
L 971.687368 697.282732 
L 969.925263 697.282732 
z
" style="fill:#1f77b4;"/>
   </g>
   <g id="patch_233">
    <path clip-path="url(#p7a038187a4)" d="M 973.449474 768.96 
L 975.211579 768.96 
L 975.211579 700.757004 
L 973.449474 700.757004 
z
" style="fill:#1f77b4;"/>
   </g>
   <g id="patch_234">
    <path clip-path="url(#p7a038187a4)" d="M 976.973684 768.96 
L 978.735789 768.96 
L 978.735789 702.937169 
L 976.973684 702.937169 
z
" style="fill:#1f77b4;"/>
   </g>
   <g id="patch_235">
    <path clip-path="url(#p7a038187a4)" d="M 980.497895 768.96 
L 982.26 768.96 
L 982.26 701.503157 
L 980.497895 701.503157 
z
" style="fill:#1f77b4;"/>
   </g>
   <g id="patch_236">
    <path clip-path="url(#p7a038187a4)" d="M 984.022105 768.96 
L 985.784211 768.96 
L 985.784211 724.109244 
L 984.022105 724.109244 
z
" style="fill:#1f77b4;"/>
   </g>
   <g id="patch_237">
    <path clip-path="url(#p7a038187a4)" d="M 987.546316 768.96 
L 989.308421 768.96 
L 989.308421 714.234383 
L 987.546316 714.234383 
z
" style="fill:#1f77b4;"/>
   </g>
   <g id="patch_238">
    <path clip-path="url(#p7a038187a4)" d="M 991.070526 768.96 
L 992.832632 768.96 
L 992.832632 693.190552 
L 991.070526 693.190552 
z
" style="fill:#1f77b4;"/>
   </g>
   <g id="patch_239">
    <path clip-path="url(#p7a038187a4)" d="M 994.594737 768.96 
L 996.356842 768.96 
L 996.356842 696.507433 
L 994.594737 696.507433 
z
" style="fill:#1f77b4;"/>
   </g>
   <g id="patch_240">
    <path clip-path="url(#p7a038187a4)" d="M 998.118947 768.96 
L 999.881053 768.96 
L 999.881053 692.514352 
L 998.118947 692.514352 
z
" style="fill:#1f77b4;"/>
   </g>
   <g id="patch_241">
    <path clip-path="url(#p7a038187a4)" d="M 1001.643158 768.96 
L 1003.405263 768.96 
L 1003.405263 682.289732 
L 1001.643158 682.289732 
z
" style="fill:#1f77b4;"/>
   </g>
   <g id="patch_242">
    <path clip-path="url(#p7a038187a4)" d="M 1005.167368 768.96 
L 1006.929474 768.96 
L 1006.929474 643.36156 
L 1005.167368 643.36156 
z
" style="fill:#1f77b4;"/>
   </g>
   <g id="patch_243">
    <path clip-path="url(#p7a038187a4)" d="M 1008.691579 768.96 
L 1010.453684 768.96 
L 1010.453684 564.648308 
L 1008.691579 564.648308 
z
" style="fill:#1f77b4;"/>
   </g>
   <g id="patch_244">
    <path clip-path="url(#p7a038187a4)" d="M 1012.215789 768.96 
L 1013.977895 768.96 
L 1013.977895 674.099543 
L 1012.215789 674.099543 
z
" style="fill:#1f77b4;"/>
   </g>
   <g id="patch_245">
    <path clip-path="url(#p7a038187a4)" d="M 1015.74 768.96 
L 1017.502105 768.96 
L 1017.502105 693.814289 
L 1015.74 693.814289 
z
" style="fill:#1f77b4;"/>
   </g>
   <g id="patch_246">
    <path clip-path="url(#p7a038187a4)" d="M 1019.264211 768.96 
L 1021.026316 768.96 
L 1021.026316 698.891623 
L 1019.264211 698.891623 
z
" style="fill:#1f77b4;"/>
   </g>
   <g id="patch_247">
    <path clip-path="url(#p7a038187a4)" d="M 1022.788421 768.96 
L 1024.550526 768.96 
L 1024.550526 704.470279 
L 1022.788421 704.470279 
z
" style="fill:#1f77b4;"/>
   </g>
   <g id="patch_248">
    <path clip-path="url(#p7a038187a4)" d="M 1026.312632 768.96 
L 1028.074737 768.96 
L 1028.074737 703.729955 
L 1026.312632 703.729955 
z
" style="fill:#1f77b4;"/>
   </g>
   <g id="patch_249">
    <path clip-path="url(#p7a038187a4)" d="M 1029.836842 768.96 
L 1031.598947 768.96 
L 1031.598947 707.973697 
L 1029.836842 707.973697 
z
" style="fill:#1f77b4;"/>
   </g>
   <g id="patch_250">
    <path clip-path="url(#p7a038187a4)" d="M 1033.361053 768.96 
L 1035.123158 768.96 
L 1035.123158 727.111341 
L 1033.361053 727.111341 
z
" style="fill:#1f77b4;"/>
   </g>
   <g id="patch_251">
    <path clip-path="url(#p7a038187a4)" d="M 1036.885263 768.96 
L 1038.647368 768.96 
L 1038.647368 739.516126 
L 1036.885263 739.516126 
z
" style="fill:#1f77b4;"/>
   </g>
   <g id="patch_252">
    <path clip-path="url(#p7a038187a4)" d="M 1040.409474 768.96 
L 1042.171579 768.96 
L 1042.171579 732.923169 
L 1040.409474 732.923169 
z
" style="fill:#1f77b4;"/>
   </g>
   <g id="patch_253">
    <path clip-path="url(#p7a038187a4)" d="M 1043.933684 768.96 
L 1045.695789 768.96 
L 1045.695789 695.796257 
L 1043.933684 695.796257 
z
" style="fill:#1f77b4;"/>
   </g>
   <g id="patch_254">
    <path clip-path="url(#p7a038187a4)" d="M 1047.457895 768.96 
L 1049.22 768.96 
L 1049.22 704.785062 
L 1047.457895 704.785062 
z
" style="fill:#1f77b4;"/>
   </g>
   <g id="patch_255">
    <path clip-path="url(#p7a038187a4)" d="M 1050.982105 768.96 
L 1052.744211 768.96 
L 1052.744211 707.775501 
L 1050.982105 707.775501 
z
" style="fill:#1f77b4;"/>
   </g>
   <g id="patch_256">
    <path clip-path="url(#p7a038187a4)" d="M 1054.506316 768.96 
L 1056.268421 768.96 
L 1056.268421 712.689614 
L 1054.506316 712.689614 
z
" style="fill:#1f77b4;"/>
   </g>
   <g id="patch_257">
    <path clip-path="url(#p7a038187a4)" d="M 1058.030526 768.96 
L 1059.792632 768.96 
L 1059.792632 727.099683 
L 1058.030526 727.099683 
z
" style="fill:#1f77b4;"/>
   </g>
   <g id="patch_258">
    <path clip-path="url(#p7a038187a4)" d="M 1061.554737 768.96 
L 1063.316842 768.96 
L 1063.316842 722.302156 
L 1061.554737 722.302156 
z
" style="fill:#1f77b4;"/>
   </g>
   <g id="patch_259">
    <path clip-path="url(#p7a038187a4)" d="M 1065.078947 768.96 
L 1066.841053 768.96 
L 1066.841053 706.230732 
L 1065.078947 706.230732 
z
" style="fill:#1f77b4;"/>
   </g>
   <g id="patch_260">
    <path clip-path="url(#p7a038187a4)" d="M 1068.603158 768.96 
L 1070.365263 768.96 
L 1070.365263 709.500978 
L 1068.603158 709.500978 
z
" style="fill:#1f77b4;"/>
   </g>
   <g id="patch_261">
    <path clip-path="url(#p7a038187a4)" d="M 1072.127368 768.96 
L 1073.889474 768.96 
L 1073.889474 709.028804 
L 1072.127368 709.028804 
z
" style="fill:#1f77b4;"/>
   </g>
   <g id="patch_262">
    <path clip-path="url(#p7a038187a4)" d="M 1075.651579 768.96 
L 1077.413684 768.96 
L 1077.413684 706.790346 
L 1075.651579 706.790346 
z
" style="fill:#1f77b4;"/>
   </g>
   <g id="patch_263">
    <path clip-path="url(#p7a038187a4)" d="M 1079.175789 768.96 
L 1080.937895 768.96 
L 1080.937895 707.775501 
L 1079.175789 707.775501 
z
" style="fill:#1f77b4;"/>
   </g>
   <g id="patch_264">
    <path clip-path="url(#p7a038187a4)" d="M 1082.7 768.96 
L 1084.462105 768.96 
L 1084.462105 724.459003 
L 1082.7 724.459003 
z
" style="fill:#1f77b4;"/>
   </g>
   <g id="patch_265">
    <path clip-path="url(#p7a038187a4)" d="M 1086.224211 768.96 
L 1087.986316 768.96 
L 1087.986316 727.80503 
L 1086.224211 727.80503 
z
" style="fill:#1f77b4;"/>
   </g>
   <g id="patch_266">
    <path clip-path="url(#p7a038187a4)" d="M 1089.748421 768.96 
L 1091.510526 768.96 
L 1091.510526 698.827501 
L 1089.748421 698.827501 
z
" style="fill:#1f77b4;"/>
   </g>
   <g id="patch_267">
    <path clip-path="url(#p7a038187a4)" d="M 1093.272632 768.96 
L 1095.034737 768.96 
L 1095.034737 718.355709 
L 1093.272632 718.355709 
z
" style="fill:#1f77b4;"/>
   </g>
   <g id="patch_268">
    <path clip-path="url(#p7a038187a4)" d="M 1096.796842 768.96 
L 1098.558947 768.96 
L 1098.558947 695.25996 
L 1096.796842 695.25996 
z
" style="fill:#1f77b4;"/>
   </g>
   <g id="patch_269">
    <path clip-path="url(#p7a038187a4)" d="M 1100.321053 768.96 
L 1102.083158 768.96 
L 1102.083158 698.186276 
L 1100.321053 698.186276 
z
" style="fill:#1f77b4;"/>
   </g>
   <g id="patch_270">
    <path clip-path="url(#p7a038187a4)" d="M 1103.845263 768.96 
L 1105.607368 768.96 
L 1105.607368 712.095024 
L 1103.845263 712.095024 
z
" style="fill:#1f77b4;"/>
   </g>
   <g id="patch_271">
    <path clip-path="url(#p7a038187a4)" d="M 1107.369474 768.96 
L 1109.131579 768.96 
L 1109.131579 731.699013 
L 1107.369474 731.699013 
z
" style="fill:#1f77b4;"/>
   </g>
   <g id="patch_272">
    <path clip-path="url(#p7a038187a4)" d="M 1110.893684 768.96 
L 1112.655789 768.96 
L 1112.655789 722.290497 
L 1110.893684 722.290497 
z
" style="fill:#1f77b4;"/>
   </g>
   <g id="patch_273">
    <path clip-path="url(#p7a038187a4)" d="M 1114.417895 768.96 
L 1116.18 768.96 
L 1116.18 714.135284 
L 1114.417895 714.135284 
z
" style="fill:#1f77b4;"/>
   </g>
   <g id="patch_274">
    <path clip-path="url(#p7a038187a4)" d="M 1117.942105 768.96 
L 1119.704211 768.96 
L 1119.704211 729.396433 
L 1117.942105 729.396433 
z
" style="fill:#1f77b4;"/>
   </g>
   <g id="patch_275">
    <path clip-path="url(#p7a038187a4)" d="M 1121.466316 768.96 
L 1123.228421 768.96 
L 1123.228421 741.626338 
L 1121.466316 741.626338 
z
" style="fill:#1f77b4;"/>
   </g>
   <g id="patch_276">
    <path clip-path="url(#p7a038187a4)" d="M 1124.990526 768.96 
L 1126.752632 768.96 
L 1126.752632 700.902737 
L 1124.990526 700.902737 
z
" style="fill:#1f77b4;"/>
   </g>
   <g id="patch_277">
    <path clip-path="url(#p7a038187a4)" d="M 1128.514737 768.96 
L 1130.276842 768.96 
L 1130.276842 680.022128 
L 1128.514737 680.022128 
z
" style="fill:#1f77b4;"/>
   </g>
   <g id="patch_278">
    <path clip-path="url(#p7a038187a4)" d="M 1132.038947 768.96 
L 1133.801053 768.96 
L 1133.801053 738.041309 
L 1132.038947 738.041309 
z
" style="fill:#1f77b4;"/>
   </g>
   <g id="patch_279">
    <path clip-path="url(#p7a038187a4)" d="M 1135.563158 768.96 
L 1137.325263 768.96 
L 1137.325263 711.517921 
L 1135.563158 711.517921 
z
" style="fill:#1f77b4;"/>
   </g>
   <g id="patch_280">
    <path clip-path="url(#p7a038187a4)" d="M 1139.087368 768.96 
L 1140.849474 768.96 
L 1140.849474 736.292514 
L 1139.087368 736.292514 
z
" style="fill:#1f77b4;"/>
   </g>
   <g id="patch_281">
    <path clip-path="url(#p7a038187a4)" d="M 1142.611579 768.96 
L 1144.373684 768.96 
L 1144.373684 701.625572 
L 1142.611579 701.625572 
z
" style="fill:#1f77b4;"/>
   </g>
   <g id="patch_282">
    <path clip-path="url(#p7a038187a4)" d="M 1146.135789 768.96 
L 1147.897895 768.96 
L 1147.897895 723.100772 
L 1146.135789 723.100772 
z
" style="fill:#1f77b4;"/>
   </g>
   <g id="patch_283">
    <path clip-path="url(#p7a038187a4)" d="M 1149.66 768.96 
L 1151.422105 768.96 
L 1151.422105 724.30744 
L 1149.66 724.30744 
z
" style="fill:#1f77b4;"/>
   </g>
   <g id="patch_284">
    <path clip-path="url(#p7a038187a4)" d="M 1153.184211 768.96 
L 1154.946316 768.96 
L 1154.946316 737.557475 
L 1153.184211 737.557475 
z
" style="fill:#1f77b4;"/>
   </g>
   <g id="patch_285">
    <path clip-path="url(#p7a038187a4)" d="M 1156.708421 768.96 
L 1158.470526 768.96 
L 1158.470526 746.161546 
L 1156.708421 746.161546 
z
" style="fill:#1f77b4;"/>
   </g>
   <g id="patch_286">
    <path clip-path="url(#p7a038187a4)" d="M 1160.232632 768.96 
L 1161.994737 768.96 
L 1161.994737 737.51667 
L 1160.232632 737.51667 
z
" style="fill:#1f77b4;"/>
   </g>
   <g id="patch_287">
    <path clip-path="url(#p7a038187a4)" d="M 1163.756842 768.96 
L 1165.518947 768.96 
L 1165.518947 722.552816 
L 1163.756842 722.552816 
z
" style="fill:#1f77b4;"/>
   </g>
   <g id="matplotlib.axis_1">
    <g id="xtick_1">
     <g id="line2d_1">
      <defs>
       <path d="M 0 0 
L 0 3.5 
" id="me9690e86b3" style="stroke:#000000;stroke-width:0.8;"/>
      </defs>
      <g>
       <use style="stroke:#000000;stroke-width:0.8;" x="163.762105" xlink:href="#me9690e86b3" y="768.96"/>
      </g>
     </g>
     <g id="text_1">
      <!-- January -->
      <g transform="translate(144.806637 783.558437)scale(0.1 -0.1)">
       <defs>
        <path d="M 628 4666 
L 1259 4666 
L 1259 325 
Q 1259 -519 939 -900 
Q 619 -1281 -91 -1281 
L -331 -1281 
L -331 -750 
L -134 -750 
Q 284 -750 456 -515 
Q 628 -281 628 325 
L 628 4666 
z
" id="DejaVuSans-4a" transform="scale(0.015625)"/>
        <path d="M 2194 1759 
Q 1497 1759 1228 1600 
Q 959 1441 959 1056 
Q 959 750 1161 570 
Q 1363 391 1709 391 
Q 2188 391 2477 730 
Q 2766 1069 2766 1631 
L 2766 1759 
L 2194 1759 
z
M 3341 1997 
L 3341 0 
L 2766 0 
L 2766 531 
Q 2569 213 2275 61 
Q 1981 -91 1556 -91 
Q 1019 -91 701 211 
Q 384 513 384 1019 
Q 384 1609 779 1909 
Q 1175 2209 1959 2209 
L 2766 2209 
L 2766 2266 
Q 2766 2663 2505 2880 
Q 2244 3097 1772 3097 
Q 1472 3097 1187 3025 
Q 903 2953 641 2809 
L 641 3341 
Q 956 3463 1253 3523 
Q 1550 3584 1831 3584 
Q 2591 3584 2966 3190 
Q 3341 2797 3341 1997 
z
" id="DejaVuSans-61" transform="scale(0.015625)"/>
        <path d="M 3513 2113 
L 3513 0 
L 2938 0 
L 2938 2094 
Q 2938 2591 2744 2837 
Q 2550 3084 2163 3084 
Q 1697 3084 1428 2787 
Q 1159 2491 1159 1978 
L 1159 0 
L 581 0 
L 581 3500 
L 1159 3500 
L 1159 2956 
Q 1366 3272 1645 3428 
Q 1925 3584 2291 3584 
Q 2894 3584 3203 3211 
Q 3513 2838 3513 2113 
z
" id="DejaVuSans-6e" transform="scale(0.015625)"/>
        <path d="M 544 1381 
L 544 3500 
L 1119 3500 
L 1119 1403 
Q 1119 906 1312 657 
Q 1506 409 1894 409 
Q 2359 409 2629 706 
Q 2900 1003 2900 1516 
L 2900 3500 
L 3475 3500 
L 3475 0 
L 2900 0 
L 2900 538 
Q 2691 219 2414 64 
Q 2138 -91 1772 -91 
Q 1169 -91 856 284 
Q 544 659 544 1381 
z
M 1991 3584 
L 1991 3584 
z
" id="DejaVuSans-75" transform="scale(0.015625)"/>
        <path d="M 2631 2963 
Q 2534 3019 2420 3045 
Q 2306 3072 2169 3072 
Q 1681 3072 1420 2755 
Q 1159 2438 1159 1844 
L 1159 0 
L 581 0 
L 581 3500 
L 1159 3500 
L 1159 2956 
Q 1341 3275 1631 3429 
Q 1922 3584 2338 3584 
Q 2397 3584 2469 3576 
Q 2541 3569 2628 3553 
L 2631 2963 
z
" id="DejaVuSans-72" transform="scale(0.015625)"/>
        <path d="M 2059 -325 
Q 1816 -950 1584 -1140 
Q 1353 -1331 966 -1331 
L 506 -1331 
L 506 -850 
L 844 -850 
Q 1081 -850 1212 -737 
Q 1344 -625 1503 -206 
L 1606 56 
L 191 3500 
L 800 3500 
L 1894 763 
L 2988 3500 
L 3597 3500 
L 2059 -325 
z
" id="DejaVuSans-79" transform="scale(0.015625)"/>
       </defs>
       <use xlink:href="#DejaVuSans-4a"/>
       <use x="29.492188" xlink:href="#DejaVuSans-61"/>
       <use x="90.771484" xlink:href="#DejaVuSans-6e"/>
       <use x="154.150391" xlink:href="#DejaVuSans-75"/>
       <use x="217.529297" xlink:href="#DejaVuSans-61"/>
       <use x="278.808594" xlink:href="#DejaVuSans-72"/>
       <use x="319.921875" xlink:href="#DejaVuSans-79"/>
      </g>
     </g>
    </g>
    <g id="xtick_2">
     <g id="line2d_2">
      <g>
       <use style="stroke:#000000;stroke-width:0.8;" x="273.012632" xlink:href="#me9690e86b3" y="768.96"/>
      </g>
     </g>
     <g id="text_2">
      <!-- February -->
      <g transform="translate(250.857944 783.558437)scale(0.1 -0.1)">
       <defs>
        <path d="M 628 4666 
L 3309 4666 
L 3309 4134 
L 1259 4134 
L 1259 2759 
L 3109 2759 
L 3109 2228 
L 1259 2228 
L 1259 0 
L 628 0 
L 628 4666 
z
" id="DejaVuSans-46" transform="scale(0.015625)"/>
        <path d="M 3597 1894 
L 3597 1613 
L 953 1613 
Q 991 1019 1311 708 
Q 1631 397 2203 397 
Q 2534 397 2845 478 
Q 3156 559 3463 722 
L 3463 178 
Q 3153 47 2828 -22 
Q 2503 -91 2169 -91 
Q 1331 -91 842 396 
Q 353 884 353 1716 
Q 353 2575 817 3079 
Q 1281 3584 2069 3584 
Q 2775 3584 3186 3129 
Q 3597 2675 3597 1894 
z
M 3022 2063 
Q 3016 2534 2758 2815 
Q 2500 3097 2075 3097 
Q 1594 3097 1305 2825 
Q 1016 2553 972 2059 
L 3022 2063 
z
" id="DejaVuSans-65" transform="scale(0.015625)"/>
        <path d="M 3116 1747 
Q 3116 2381 2855 2742 
Q 2594 3103 2138 3103 
Q 1681 3103 1420 2742 
Q 1159 2381 1159 1747 
Q 1159 1113 1420 752 
Q 1681 391 2138 391 
Q 2594 391 2855 752 
Q 3116 1113 3116 1747 
z
M 1159 2969 
Q 1341 3281 1617 3432 
Q 1894 3584 2278 3584 
Q 2916 3584 3314 3078 
Q 3713 2572 3713 1747 
Q 3713 922 3314 415 
Q 2916 -91 2278 -91 
Q 1894 -91 1617 61 
Q 1341 213 1159 525 
L 1159 0 
L 581 0 
L 581 4863 
L 1159 4863 
L 1159 2969 
z
" id="DejaVuSans-62" transform="scale(0.015625)"/>
       </defs>
       <use xlink:href="#DejaVuSans-46"/>
       <use x="52.019531" xlink:href="#DejaVuSans-65"/>
       <use x="113.542969" xlink:href="#DejaVuSans-62"/>
       <use x="177.019531" xlink:href="#DejaVuSans-72"/>
       <use x="218.132812" xlink:href="#DejaVuSans-75"/>
       <use x="281.511719" xlink:href="#DejaVuSans-61"/>
       <use x="342.791016" xlink:href="#DejaVuSans-72"/>
       <use x="383.904297" xlink:href="#DejaVuSans-79"/>
      </g>
     </g>
    </g>
    <g id="xtick_3">
     <g id="line2d_3">
      <g>
       <use style="stroke:#000000;stroke-width:0.8;" x="371.690526" xlink:href="#me9690e86b3" y="768.96"/>
      </g>
     </g>
     <g id="text_3">
      <!-- March -->
      <g transform="translate(356.451464 783.558437)scale(0.1 -0.1)">
       <defs>
        <path d="M 628 4666 
L 1569 4666 
L 2759 1491 
L 3956 4666 
L 4897 4666 
L 4897 0 
L 4281 0 
L 4281 4097 
L 3078 897 
L 2444 897 
L 1241 4097 
L 1241 0 
L 628 0 
L 628 4666 
z
" id="DejaVuSans-4d" transform="scale(0.015625)"/>
        <path d="M 3122 3366 
L 3122 2828 
Q 2878 2963 2633 3030 
Q 2388 3097 2138 3097 
Q 1578 3097 1268 2742 
Q 959 2388 959 1747 
Q 959 1106 1268 751 
Q 1578 397 2138 397 
Q 2388 397 2633 464 
Q 2878 531 3122 666 
L 3122 134 
Q 2881 22 2623 -34 
Q 2366 -91 2075 -91 
Q 1284 -91 818 406 
Q 353 903 353 1747 
Q 353 2603 823 3093 
Q 1294 3584 2113 3584 
Q 2378 3584 2631 3529 
Q 2884 3475 3122 3366 
z
" id="DejaVuSans-63" transform="scale(0.015625)"/>
        <path d="M 3513 2113 
L 3513 0 
L 2938 0 
L 2938 2094 
Q 2938 2591 2744 2837 
Q 2550 3084 2163 3084 
Q 1697 3084 1428 2787 
Q 1159 2491 1159 1978 
L 1159 0 
L 581 0 
L 581 4863 
L 1159 4863 
L 1159 2956 
Q 1366 3272 1645 3428 
Q 1925 3584 2291 3584 
Q 2894 3584 3203 3211 
Q 3513 2838 3513 2113 
z
" id="DejaVuSans-68" transform="scale(0.015625)"/>
       </defs>
       <use xlink:href="#DejaVuSans-4d"/>
       <use x="86.279297" xlink:href="#DejaVuSans-61"/>
       <use x="147.558594" xlink:href="#DejaVuSans-72"/>
       <use x="186.421875" xlink:href="#DejaVuSans-63"/>
       <use x="241.402344" xlink:href="#DejaVuSans-68"/>
      </g>
     </g>
    </g>
    <g id="xtick_4">
     <g id="line2d_4">
      <g>
       <use style="stroke:#000000;stroke-width:0.8;" x="480.941053" xlink:href="#me9690e86b3" y="768.96"/>
      </g>
     </g>
     <g id="text_4">
      <!-- April -->
      <g transform="translate(469.512928 783.558437)scale(0.1 -0.1)">
       <defs>
        <path d="M 2188 4044 
L 1331 1722 
L 3047 1722 
L 2188 4044 
z
M 1831 4666 
L 2547 4666 
L 4325 0 
L 3669 0 
L 3244 1197 
L 1141 1197 
L 716 0 
L 50 0 
L 1831 4666 
z
" id="DejaVuSans-41" transform="scale(0.015625)"/>
        <path d="M 1159 525 
L 1159 -1331 
L 581 -1331 
L 581 3500 
L 1159 3500 
L 1159 2969 
Q 1341 3281 1617 3432 
Q 1894 3584 2278 3584 
Q 2916 3584 3314 3078 
Q 3713 2572 3713 1747 
Q 3713 922 3314 415 
Q 2916 -91 2278 -91 
Q 1894 -91 1617 61 
Q 1341 213 1159 525 
z
M 3116 1747 
Q 3116 2381 2855 2742 
Q 2594 3103 2138 3103 
Q 1681 3103 1420 2742 
Q 1159 2381 1159 1747 
Q 1159 1113 1420 752 
Q 1681 391 2138 391 
Q 2594 391 2855 752 
Q 3116 1113 3116 1747 
z
" id="DejaVuSans-70" transform="scale(0.015625)"/>
        <path d="M 603 3500 
L 1178 3500 
L 1178 0 
L 603 0 
L 603 3500 
z
M 603 4863 
L 1178 4863 
L 1178 4134 
L 603 4134 
L 603 4863 
z
" id="DejaVuSans-69" transform="scale(0.015625)"/>
        <path d="M 603 4863 
L 1178 4863 
L 1178 0 
L 603 0 
L 603 4863 
z
" id="DejaVuSans-6c" transform="scale(0.015625)"/>
       </defs>
       <use xlink:href="#DejaVuSans-41"/>
       <use x="68.408203" xlink:href="#DejaVuSans-70"/>
       <use x="131.884766" xlink:href="#DejaVuSans-72"/>
       <use x="172.998047" xlink:href="#DejaVuSans-69"/>
       <use x="200.78125" xlink:href="#DejaVuSans-6c"/>
      </g>
     </g>
    </g>
    <g id="xtick_5">
     <g id="line2d_5">
      <g>
       <use style="stroke:#000000;stroke-width:0.8;" x="586.667368" xlink:href="#me9690e86b3" y="768.96"/>
      </g>
     </g>
     <g id="text_5">
      <!-- May -->
      <g transform="translate(576.329868 783.558437)scale(0.1 -0.1)">
       <use xlink:href="#DejaVuSans-4d"/>
       <use x="86.279297" xlink:href="#DejaVuSans-61"/>
       <use x="147.558594" xlink:href="#DejaVuSans-79"/>
      </g>
     </g>
    </g>
    <g id="xtick_6">
     <g id="line2d_6">
      <g>
       <use style="stroke:#000000;stroke-width:0.8;" x="695.917895" xlink:href="#me9690e86b3" y="768.96"/>
      </g>
     </g>
     <g id="text_6">
      <!-- June -->
      <g transform="translate(685.028832 783.558437)scale(0.1 -0.1)">
       <use xlink:href="#DejaVuSans-4a"/>
       <use x="29.492188" xlink:href="#DejaVuSans-75"/>
       <use x="92.871094" xlink:href="#DejaVuSans-6e"/>
       <use x="156.25" xlink:href="#DejaVuSans-65"/>
      </g>
     </g>
    </g>
    <g id="xtick_7">
     <g id="line2d_7">
      <g>
       <use style="stroke:#000000;stroke-width:0.8;" x="801.644211" xlink:href="#me9690e86b3" y="768.96"/>
      </g>
     </g>
     <g id="text_7">
      <!-- July -->
      <g transform="translate(792.652023 783.558437)scale(0.1 -0.1)">
       <use xlink:href="#DejaVuSans-4a"/>
       <use x="29.492188" xlink:href="#DejaVuSans-75"/>
       <use x="92.871094" xlink:href="#DejaVuSans-6c"/>
       <use x="120.654297" xlink:href="#DejaVuSans-79"/>
      </g>
     </g>
    </g>
    <g id="xtick_8">
     <g id="line2d_8">
      <g>
       <use style="stroke:#000000;stroke-width:0.8;" x="910.894737" xlink:href="#me9690e86b3" y="768.96"/>
      </g>
     </g>
     <g id="text_8">
      <!-- August -->
      <g transform="translate(893.397862 783.558437)scale(0.1 -0.1)">
       <defs>
        <path d="M 2906 1791 
Q 2906 2416 2648 2759 
Q 2391 3103 1925 3103 
Q 1463 3103 1205 2759 
Q 947 2416 947 1791 
Q 947 1169 1205 825 
Q 1463 481 1925 481 
Q 2391 481 2648 825 
Q 2906 1169 2906 1791 
z
M 3481 434 
Q 3481 -459 3084 -895 
Q 2688 -1331 1869 -1331 
Q 1566 -1331 1297 -1286 
Q 1028 -1241 775 -1147 
L 775 -588 
Q 1028 -725 1275 -790 
Q 1522 -856 1778 -856 
Q 2344 -856 2625 -561 
Q 2906 -266 2906 331 
L 2906 616 
Q 2728 306 2450 153 
Q 2172 0 1784 0 
Q 1141 0 747 490 
Q 353 981 353 1791 
Q 353 2603 747 3093 
Q 1141 3584 1784 3584 
Q 2172 3584 2450 3431 
Q 2728 3278 2906 2969 
L 2906 3500 
L 3481 3500 
L 3481 434 
z
" id="DejaVuSans-67" transform="scale(0.015625)"/>
        <path d="M 2834 3397 
L 2834 2853 
Q 2591 2978 2328 3040 
Q 2066 3103 1784 3103 
Q 1356 3103 1142 2972 
Q 928 2841 928 2578 
Q 928 2378 1081 2264 
Q 1234 2150 1697 2047 
L 1894 2003 
Q 2506 1872 2764 1633 
Q 3022 1394 3022 966 
Q 3022 478 2636 193 
Q 2250 -91 1575 -91 
Q 1294 -91 989 -36 
Q 684 19 347 128 
L 347 722 
Q 666 556 975 473 
Q 1284 391 1588 391 
Q 1994 391 2212 530 
Q 2431 669 2431 922 
Q 2431 1156 2273 1281 
Q 2116 1406 1581 1522 
L 1381 1569 
Q 847 1681 609 1914 
Q 372 2147 372 2553 
Q 372 3047 722 3315 
Q 1072 3584 1716 3584 
Q 2034 3584 2315 3537 
Q 2597 3491 2834 3397 
z
" id="DejaVuSans-73" transform="scale(0.015625)"/>
        <path d="M 1172 4494 
L 1172 3500 
L 2356 3500 
L 2356 3053 
L 1172 3053 
L 1172 1153 
Q 1172 725 1289 603 
Q 1406 481 1766 481 
L 2356 481 
L 2356 0 
L 1766 0 
Q 1100 0 847 248 
Q 594 497 594 1153 
L 594 3053 
L 172 3053 
L 172 3500 
L 594 3500 
L 594 4494 
L 1172 4494 
z
" id="DejaVuSans-74" transform="scale(0.015625)"/>
       </defs>
       <use xlink:href="#DejaVuSans-41"/>
       <use x="68.408203" xlink:href="#DejaVuSans-75"/>
       <use x="131.787109" xlink:href="#DejaVuSans-67"/>
       <use x="195.263672" xlink:href="#DejaVuSans-75"/>
       <use x="258.642578" xlink:href="#DejaVuSans-73"/>
       <use x="310.742188" xlink:href="#DejaVuSans-74"/>
      </g>
     </g>
    </g>
    <g id="xtick_9">
     <g id="line2d_9">
      <g>
       <use style="stroke:#000000;stroke-width:0.8;" x="1020.145263" xlink:href="#me9690e86b3" y="768.96"/>
      </g>
     </g>
     <g id="text_9">
      <!-- September -->
      <g transform="translate(992.506982 783.558437)scale(0.1 -0.1)">
       <defs>
        <path d="M 3425 4513 
L 3425 3897 
Q 3066 4069 2747 4153 
Q 2428 4238 2131 4238 
Q 1616 4238 1336 4038 
Q 1056 3838 1056 3469 
Q 1056 3159 1242 3001 
Q 1428 2844 1947 2747 
L 2328 2669 
Q 3034 2534 3370 2195 
Q 3706 1856 3706 1288 
Q 3706 609 3251 259 
Q 2797 -91 1919 -91 
Q 1588 -91 1214 -16 
Q 841 59 441 206 
L 441 856 
Q 825 641 1194 531 
Q 1563 422 1919 422 
Q 2459 422 2753 634 
Q 3047 847 3047 1241 
Q 3047 1584 2836 1778 
Q 2625 1972 2144 2069 
L 1759 2144 
Q 1053 2284 737 2584 
Q 422 2884 422 3419 
Q 422 4038 858 4394 
Q 1294 4750 2059 4750 
Q 2388 4750 2728 4690 
Q 3069 4631 3425 4513 
z
" id="DejaVuSans-53" transform="scale(0.015625)"/>
        <path d="M 3328 2828 
Q 3544 3216 3844 3400 
Q 4144 3584 4550 3584 
Q 5097 3584 5394 3201 
Q 5691 2819 5691 2113 
L 5691 0 
L 5113 0 
L 5113 2094 
Q 5113 2597 4934 2840 
Q 4756 3084 4391 3084 
Q 3944 3084 3684 2787 
Q 3425 2491 3425 1978 
L 3425 0 
L 2847 0 
L 2847 2094 
Q 2847 2600 2669 2842 
Q 2491 3084 2119 3084 
Q 1678 3084 1418 2786 
Q 1159 2488 1159 1978 
L 1159 0 
L 581 0 
L 581 3500 
L 1159 3500 
L 1159 2956 
Q 1356 3278 1631 3431 
Q 1906 3584 2284 3584 
Q 2666 3584 2933 3390 
Q 3200 3197 3328 2828 
z
" id="DejaVuSans-6d" transform="scale(0.015625)"/>
       </defs>
       <use xlink:href="#DejaVuSans-53"/>
       <use x="63.476562" xlink:href="#DejaVuSans-65"/>
       <use x="125" xlink:href="#DejaVuSans-70"/>
       <use x="188.476562" xlink:href="#DejaVuSans-74"/>
       <use x="227.685547" xlink:href="#DejaVuSans-65"/>
       <use x="289.208984" xlink:href="#DejaVuSans-6d"/>
       <use x="386.621094" xlink:href="#DejaVuSans-62"/>
       <use x="450.097656" xlink:href="#DejaVuSans-65"/>
       <use x="511.621094" xlink:href="#DejaVuSans-72"/>
      </g>
     </g>
    </g>
    <g id="xtick_10">
     <g id="line2d_10">
      <g>
       <use style="stroke:#000000;stroke-width:0.8;" x="1125.871579" xlink:href="#me9690e86b3" y="768.96"/>
      </g>
     </g>
     <g id="text_10">
      <!-- October -->
      <g transform="translate(1105.860641 783.558437)scale(0.1 -0.1)">
       <defs>
        <path d="M 2522 4238 
Q 1834 4238 1429 3725 
Q 1025 3213 1025 2328 
Q 1025 1447 1429 934 
Q 1834 422 2522 422 
Q 3209 422 3611 934 
Q 4013 1447 4013 2328 
Q 4013 3213 3611 3725 
Q 3209 4238 2522 4238 
z
M 2522 4750 
Q 3503 4750 4090 4092 
Q 4678 3434 4678 2328 
Q 4678 1225 4090 567 
Q 3503 -91 2522 -91 
Q 1538 -91 948 565 
Q 359 1222 359 2328 
Q 359 3434 948 4092 
Q 1538 4750 2522 4750 
z
" id="DejaVuSans-4f" transform="scale(0.015625)"/>
        <path d="M 1959 3097 
Q 1497 3097 1228 2736 
Q 959 2375 959 1747 
Q 959 1119 1226 758 
Q 1494 397 1959 397 
Q 2419 397 2687 759 
Q 2956 1122 2956 1747 
Q 2956 2369 2687 2733 
Q 2419 3097 1959 3097 
z
M 1959 3584 
Q 2709 3584 3137 3096 
Q 3566 2609 3566 1747 
Q 3566 888 3137 398 
Q 2709 -91 1959 -91 
Q 1206 -91 779 398 
Q 353 888 353 1747 
Q 353 2609 779 3096 
Q 1206 3584 1959 3584 
z
" id="DejaVuSans-6f" transform="scale(0.015625)"/>
       </defs>
       <use xlink:href="#DejaVuSans-4f"/>
       <use x="78.710938" xlink:href="#DejaVuSans-63"/>
       <use x="133.691406" xlink:href="#DejaVuSans-74"/>
       <use x="172.900391" xlink:href="#DejaVuSans-6f"/>
       <use x="234.082031" xlink:href="#DejaVuSans-62"/>
       <use x="297.558594" xlink:href="#DejaVuSans-65"/>
       <use x="359.082031" xlink:href="#DejaVuSans-72"/>
      </g>
     </g>
    </g>
   </g>
   <g id="matplotlib.axis_2">
    <g id="ytick_1">
     <g id="line2d_11">
      <defs>
       <path d="M 0 0 
L -3.5 0 
" id="m8c01d438f7" style="stroke:#000000;stroke-width:0.8;"/>
      </defs>
      <g>
       <use style="stroke:#000000;stroke-width:0.8;" x="162" xlink:href="#m8c01d438f7" y="768.96"/>
      </g>
     </g>
     <g id="text_11">
      <!-- 0 -->
      <g transform="translate(148.6375 772.759219)scale(0.1 -0.1)">
       <defs>
        <path d="M 2034 4250 
Q 1547 4250 1301 3770 
Q 1056 3291 1056 2328 
Q 1056 1369 1301 889 
Q 1547 409 2034 409 
Q 2525 409 2770 889 
Q 3016 1369 3016 2328 
Q 3016 3291 2770 3770 
Q 2525 4250 2034 4250 
z
M 2034 4750 
Q 2819 4750 3233 4129 
Q 3647 3509 3647 2328 
Q 3647 1150 3233 529 
Q 2819 -91 2034 -91 
Q 1250 -91 836 529 
Q 422 1150 422 2328 
Q 422 3509 836 4129 
Q 1250 4750 2034 4750 
z
" id="DejaVuSans-30" transform="scale(0.015625)"/>
       </defs>
       <use xlink:href="#DejaVuSans-30"/>
      </g>
     </g>
    </g>
    <g id="ytick_2">
     <g id="line2d_12">
      <g>
       <use style="stroke:#000000;stroke-width:0.8;" x="162" xlink:href="#m8c01d438f7" y="652.373683"/>
      </g>
     </g>
     <g id="text_12">
      <!-- 20000 -->
      <g transform="translate(123.1875 656.172901)scale(0.1 -0.1)">
       <defs>
        <path d="M 1228 531 
L 3431 531 
L 3431 0 
L 469 0 
L 469 531 
Q 828 903 1448 1529 
Q 2069 2156 2228 2338 
Q 2531 2678 2651 2914 
Q 2772 3150 2772 3378 
Q 2772 3750 2511 3984 
Q 2250 4219 1831 4219 
Q 1534 4219 1204 4116 
Q 875 4013 500 3803 
L 500 4441 
Q 881 4594 1212 4672 
Q 1544 4750 1819 4750 
Q 2544 4750 2975 4387 
Q 3406 4025 3406 3419 
Q 3406 3131 3298 2873 
Q 3191 2616 2906 2266 
Q 2828 2175 2409 1742 
Q 1991 1309 1228 531 
z
" id="DejaVuSans-32" transform="scale(0.015625)"/>
       </defs>
       <use xlink:href="#DejaVuSans-32"/>
       <use x="63.623047" xlink:href="#DejaVuSans-30"/>
       <use x="127.246094" xlink:href="#DejaVuSans-30"/>
       <use x="190.869141" xlink:href="#DejaVuSans-30"/>
       <use x="254.492188" xlink:href="#DejaVuSans-30"/>
      </g>
     </g>
    </g>
    <g id="ytick_3">
     <g id="line2d_13">
      <g>
       <use style="stroke:#000000;stroke-width:0.8;" x="162" xlink:href="#m8c01d438f7" y="535.787365"/>
      </g>
     </g>
     <g id="text_13">
      <!-- 40000 -->
      <g transform="translate(123.1875 539.586584)scale(0.1 -0.1)">
       <defs>
        <path d="M 2419 4116 
L 825 1625 
L 2419 1625 
L 2419 4116 
z
M 2253 4666 
L 3047 4666 
L 3047 1625 
L 3713 1625 
L 3713 1100 
L 3047 1100 
L 3047 0 
L 2419 0 
L 2419 1100 
L 313 1100 
L 313 1709 
L 2253 4666 
z
" id="DejaVuSans-34" transform="scale(0.015625)"/>
       </defs>
       <use xlink:href="#DejaVuSans-34"/>
       <use x="63.623047" xlink:href="#DejaVuSans-30"/>
       <use x="127.246094" xlink:href="#DejaVuSans-30"/>
       <use x="190.869141" xlink:href="#DejaVuSans-30"/>
       <use x="254.492188" xlink:href="#DejaVuSans-30"/>
      </g>
     </g>
    </g>
    <g id="ytick_4">
     <g id="line2d_14">
      <g>
       <use style="stroke:#000000;stroke-width:0.8;" x="162" xlink:href="#m8c01d438f7" y="419.201048"/>
      </g>
     </g>
     <g id="text_14">
      <!-- 60000 -->
      <g transform="translate(123.1875 423.000267)scale(0.1 -0.1)">
       <defs>
        <path d="M 2113 2584 
Q 1688 2584 1439 2293 
Q 1191 2003 1191 1497 
Q 1191 994 1439 701 
Q 1688 409 2113 409 
Q 2538 409 2786 701 
Q 3034 994 3034 1497 
Q 3034 2003 2786 2293 
Q 2538 2584 2113 2584 
z
M 3366 4563 
L 3366 3988 
Q 3128 4100 2886 4159 
Q 2644 4219 2406 4219 
Q 1781 4219 1451 3797 
Q 1122 3375 1075 2522 
Q 1259 2794 1537 2939 
Q 1816 3084 2150 3084 
Q 2853 3084 3261 2657 
Q 3669 2231 3669 1497 
Q 3669 778 3244 343 
Q 2819 -91 2113 -91 
Q 1303 -91 875 529 
Q 447 1150 447 2328 
Q 447 3434 972 4092 
Q 1497 4750 2381 4750 
Q 2619 4750 2861 4703 
Q 3103 4656 3366 4563 
z
" id="DejaVuSans-36" transform="scale(0.015625)"/>
       </defs>
       <use xlink:href="#DejaVuSans-36"/>
       <use x="63.623047" xlink:href="#DejaVuSans-30"/>
       <use x="127.246094" xlink:href="#DejaVuSans-30"/>
       <use x="190.869141" xlink:href="#DejaVuSans-30"/>
       <use x="254.492188" xlink:href="#DejaVuSans-30"/>
      </g>
     </g>
    </g>
    <g id="ytick_5">
     <g id="line2d_15">
      <g>
       <use style="stroke:#000000;stroke-width:0.8;" x="162" xlink:href="#m8c01d438f7" y="302.614731"/>
      </g>
     </g>
     <g id="text_15">
      <!-- 80000 -->
      <g transform="translate(123.1875 306.41395)scale(0.1 -0.1)">
       <defs>
        <path d="M 2034 2216 
Q 1584 2216 1326 1975 
Q 1069 1734 1069 1313 
Q 1069 891 1326 650 
Q 1584 409 2034 409 
Q 2484 409 2743 651 
Q 3003 894 3003 1313 
Q 3003 1734 2745 1975 
Q 2488 2216 2034 2216 
z
M 1403 2484 
Q 997 2584 770 2862 
Q 544 3141 544 3541 
Q 544 4100 942 4425 
Q 1341 4750 2034 4750 
Q 2731 4750 3128 4425 
Q 3525 4100 3525 3541 
Q 3525 3141 3298 2862 
Q 3072 2584 2669 2484 
Q 3125 2378 3379 2068 
Q 3634 1759 3634 1313 
Q 3634 634 3220 271 
Q 2806 -91 2034 -91 
Q 1263 -91 848 271 
Q 434 634 434 1313 
Q 434 1759 690 2068 
Q 947 2378 1403 2484 
z
M 1172 3481 
Q 1172 3119 1398 2916 
Q 1625 2713 2034 2713 
Q 2441 2713 2670 2916 
Q 2900 3119 2900 3481 
Q 2900 3844 2670 4047 
Q 2441 4250 2034 4250 
Q 1625 4250 1398 4047 
Q 1172 3844 1172 3481 
z
" id="DejaVuSans-38" transform="scale(0.015625)"/>
       </defs>
       <use xlink:href="#DejaVuSans-38"/>
       <use x="63.623047" xlink:href="#DejaVuSans-30"/>
       <use x="127.246094" xlink:href="#DejaVuSans-30"/>
       <use x="190.869141" xlink:href="#DejaVuSans-30"/>
       <use x="254.492188" xlink:href="#DejaVuSans-30"/>
      </g>
     </g>
    </g>
    <g id="ytick_6">
     <g id="line2d_16">
      <g>
       <use style="stroke:#000000;stroke-width:0.8;" x="162" xlink:href="#m8c01d438f7" y="186.028413"/>
      </g>
     </g>
     <g id="text_16">
      <!-- 100000 -->
      <g transform="translate(116.825 189.827632)scale(0.1 -0.1)">
       <defs>
        <path d="M 794 531 
L 1825 531 
L 1825 4091 
L 703 3866 
L 703 4441 
L 1819 4666 
L 2450 4666 
L 2450 531 
L 3481 531 
L 3481 0 
L 794 0 
L 794 531 
z
" id="DejaVuSans-31" transform="scale(0.015625)"/>
       </defs>
       <use xlink:href="#DejaVuSans-31"/>
       <use x="63.623047" xlink:href="#DejaVuSans-30"/>
       <use x="127.246094" xlink:href="#DejaVuSans-30"/>
       <use x="190.869141" xlink:href="#DejaVuSans-30"/>
       <use x="254.492188" xlink:href="#DejaVuSans-30"/>
       <use x="318.115234" xlink:href="#DejaVuSans-30"/>
      </g>
     </g>
    </g>
    <g id="text_17">
     <!-- Persons fully vaccinated -->
     <g transform="translate(110.745312 496.922344)rotate(-90)scale(0.1 -0.1)">
      <defs>
       <path d="M 1259 4147 
L 1259 2394 
L 2053 2394 
Q 2494 2394 2734 2622 
Q 2975 2850 2975 3272 
Q 2975 3691 2734 3919 
Q 2494 4147 2053 4147 
L 1259 4147 
z
M 628 4666 
L 2053 4666 
Q 2838 4666 3239 4311 
Q 3641 3956 3641 3272 
Q 3641 2581 3239 2228 
Q 2838 1875 2053 1875 
L 1259 1875 
L 1259 0 
L 628 0 
L 628 4666 
z
" id="DejaVuSans-50" transform="scale(0.015625)"/>
       <path id="DejaVuSans-20" transform="scale(0.015625)"/>
       <path d="M 2375 4863 
L 2375 4384 
L 1825 4384 
Q 1516 4384 1395 4259 
Q 1275 4134 1275 3809 
L 1275 3500 
L 2222 3500 
L 2222 3053 
L 1275 3053 
L 1275 0 
L 697 0 
L 697 3053 
L 147 3053 
L 147 3500 
L 697 3500 
L 697 3744 
Q 697 4328 969 4595 
Q 1241 4863 1831 4863 
L 2375 4863 
z
" id="DejaVuSans-66" transform="scale(0.015625)"/>
       <path d="M 191 3500 
L 800 3500 
L 1894 563 
L 2988 3500 
L 3597 3500 
L 2284 0 
L 1503 0 
L 191 3500 
z
" id="DejaVuSans-76" transform="scale(0.015625)"/>
       <path d="M 2906 2969 
L 2906 4863 
L 3481 4863 
L 3481 0 
L 2906 0 
L 2906 525 
Q 2725 213 2448 61 
Q 2172 -91 1784 -91 
Q 1150 -91 751 415 
Q 353 922 353 1747 
Q 353 2572 751 3078 
Q 1150 3584 1784 3584 
Q 2172 3584 2448 3432 
Q 2725 3281 2906 2969 
z
M 947 1747 
Q 947 1113 1208 752 
Q 1469 391 1925 391 
Q 2381 391 2643 752 
Q 2906 1113 2906 1747 
Q 2906 2381 2643 2742 
Q 2381 3103 1925 3103 
Q 1469 3103 1208 2742 
Q 947 2381 947 1747 
z
" id="DejaVuSans-64" transform="scale(0.015625)"/>
      </defs>
      <use xlink:href="#DejaVuSans-50"/>
      <use x="56.677734" xlink:href="#DejaVuSans-65"/>
      <use x="118.201172" xlink:href="#DejaVuSans-72"/>
      <use x="159.314453" xlink:href="#DejaVuSans-73"/>
      <use x="211.414062" xlink:href="#DejaVuSans-6f"/>
      <use x="272.595703" xlink:href="#DejaVuSans-6e"/>
      <use x="335.974609" xlink:href="#DejaVuSans-73"/>
      <use x="388.074219" xlink:href="#DejaVuSans-20"/>
      <use x="419.861328" xlink:href="#DejaVuSans-66"/>
      <use x="455.066406" xlink:href="#DejaVuSans-75"/>
      <use x="518.445312" xlink:href="#DejaVuSans-6c"/>
      <use x="546.228516" xlink:href="#DejaVuSans-6c"/>
      <use x="574.011719" xlink:href="#DejaVuSans-79"/>
      <use x="633.191406" xlink:href="#DejaVuSans-20"/>
      <use x="664.978516" xlink:href="#DejaVuSans-76"/>
      <use x="724.158203" xlink:href="#DejaVuSans-61"/>
      <use x="785.4375" xlink:href="#DejaVuSans-63"/>
      <use x="840.417969" xlink:href="#DejaVuSans-63"/>
      <use x="895.398438" xlink:href="#DejaVuSans-69"/>
      <use x="923.181641" xlink:href="#DejaVuSans-6e"/>
      <use x="986.560547" xlink:href="#DejaVuSans-61"/>
      <use x="1047.839844" xlink:href="#DejaVuSans-74"/>
      <use x="1087.048828" xlink:href="#DejaVuSans-65"/>
      <use x="1148.572266" xlink:href="#DejaVuSans-64"/>
     </g>
    </g>
   </g>
   <g id="line2d_17">
    <path clip-path="url(#p7a038187a4)" d="M 223.673684 743.697411 
L 227.197895 743.473398 
L 230.722105 744.731698 
L 234.246316 741.204962 
L 237.770526 740.312244 
L 241.294737 738.203697 
L 244.818947 733.749267 
L 248.343158 725.707309 
L 251.867368 717.094078 
L 255.391579 710.696821 
L 258.915789 703.953968 
L 262.44 699.337982 
L 265.964211 698.283709 
L 269.488421 698.351995 
L 273.012632 695.842058 
L 276.536842 700.977686 
L 280.061053 700.785318 
L 283.585263 701.357424 
L 287.109474 698.169621 
L 290.633684 698.535202 
L 294.157895 694.383064 
L 297.682105 695.119223 
L 301.206316 689.291573 
L 304.730526 679.487496 
L 308.254737 670.378774 
L 311.778947 667.390833 
L 315.303158 663.800807 
L 318.827368 667.891322 
L 322.351579 668.798197 
L 325.875789 663.999837 
L 329.4 660.12584 
L 332.924211 654.261548 
L 336.448421 662.983038 
L 339.972632 650.320931 
L 343.496842 641.945869 
L 347.021053 632.093493 
L 350.545263 609.778039 
L 354.069474 593.146168 
L 357.593684 580.687254 
L 361.117895 550.635466 
L 364.642105 553.759979 
L 368.166316 544.377279 
L 371.690526 534.281736 
L 375.214737 540.07108 
L 378.738947 528.727231 
L 382.263158 514.481216 
L 385.787368 508.88424 
L 389.311579 512.841513 
L 392.835789 503.024112 
L 396.36 491.654448 
L 399.884211 481.035933 
L 403.408421 484.507706 
L 406.932632 477.852293 
L 410.456842 479.067289 
L 413.981053 452.956951 
L 417.505263 453.270901 
L 421.029474 459.24595 
L 424.553684 474.004945 
L 428.077895 487.300782 
L 431.602105 506.714069 
L 435.126316 520.34634 
L 438.650526 545.422392 
L 445.698947 569.732304 
L 449.223158 576.274462 
L 452.747368 580.474068 
L 456.271579 577.44782 
L 459.795789 564.126168 
L 466.844211 560.880905 
L 470.368421 544.991022 
L 473.892632 536.376126 
L 477.416842 521.510538 
L 480.941053 514.560328 
L 484.465263 513.467748 
L 487.989474 517.755626 
L 491.513684 504.154999 
L 495.037895 489.306899 
L 498.562105 462.338818 
L 502.086316 436.230145 
L 505.610526 396.066992 
L 509.134737 374.036342 
L 512.658947 355.646516 
L 516.183158 342.480589 
L 519.707368 337.514012 
L 523.231579 347.069926 
L 526.755789 350.028721 
L 530.28 368.852414 
L 533.804211 379.718259 
L 537.328421 379.781549 
L 540.852632 388.341483 
L 544.376842 382.842772 
L 547.901053 376.576258 
L 551.425263 386.877492 
L 554.949474 400.712956 
L 558.473684 412.705525 
L 561.997895 426.090467 
L 565.522105 431.693272 
L 569.046316 447.477394 
L 572.570526 453.351679 
L 576.094737 463.872761 
L 579.618947 476.82217 
L 583.143158 494.840585 
L 586.667368 504.154999 
L 590.191579 517.890533 
L 593.715789 511.30757 
L 597.24 508.117269 
L 600.764211 517.327588 
L 604.288421 498.588003 
L 607.812632 475.939445 
L 611.336842 444.064746 
L 614.861053 432.020546 
L 618.385263 446.200774 
L 621.909474 463.154922 
L 625.433684 464.221687 
L 628.957895 467.979098 
L 632.482105 477.535845 
L 636.006316 502.438682 
L 639.530526 513.477741 
L 643.054737 514.267197 
L 646.578947 515.672062 
L 650.103158 502.157209 
L 653.627368 526.489607 
L 657.151579 531.443692 
L 660.675789 531.792619 
L 664.2 533.453974 
L 667.724211 550.334007 
L 671.248421 562.342397 
L 674.772632 589.406245 
L 678.296842 598.880549 
L 681.821053 609.59733 
L 685.345263 612.699359 
L 688.869474 627.007831 
L 692.393684 637.643002 
L 695.917895 647.521194 
L 699.442105 648.65791 
L 702.966316 644.446646 
L 710.014737 626.018513 
L 713.538947 606.656024 
L 717.063158 593.732431 
L 720.587368 576.919851 
L 724.111579 580.596484 
L 727.635789 588.974043 
L 731.16 602.681263 
L 734.684211 608.580531 
L 738.208421 594.631811 
L 741.732632 593.124516 
L 745.256842 605.886554 
L 748.781053 601.937609 
L 752.305263 610.813992 
L 755.829474 603.891263 
L 759.353684 608.581364 
L 762.877895 638.569863 
L 766.402105 655.778003 
L 769.926316 660.733754 
L 773.450526 668.810688 
L 780.498947 611.013854 
L 784.023158 615.300067 
L 787.547368 615.036915 
L 791.071579 614.533928 
L 794.595789 617.303686 
L 798.12 624.731067 
L 801.644211 655.393268 
L 805.168421 695.558087 
L 808.692632 695.774605 
L 812.216842 705.920945 
L 815.741053 712.600509 
L 819.265263 713.618141 
L 822.789474 713.293365 
L 826.313684 714.425917 
L 829.837895 714.24854 
L 833.362105 712.382326 
L 836.886316 701.850417 
L 840.410526 699.263867 
L 847.458947 705.382983 
L 850.983158 706.943574 
L 854.507368 708.345108 
L 858.031579 709.313607 
L 861.555789 713.056028 
L 865.08 712.328196 
L 868.604211 711.821879 
L 875.652632 715.786646 
L 879.176842 718.899501 
L 882.701053 721.441083 
L 886.225263 724.748803 
L 889.749474 725.256786 
L 893.273684 718.636349 
L 896.797895 717.12156 
L 900.322105 706.017546 
L 903.846316 703.771593 
L 910.894737 698.863309 
L 914.418947 699.349641 
L 917.943158 707.008529 
L 921.467368 706.717063 
L 924.991579 715.611767 
L 928.515789 707.534 
L 932.04 706.740381 
L 935.564211 706.956065 
L 939.088421 709.850737 
L 942.612632 696.043586 
L 946.136842 685.145264 
L 953.185263 668.342677 
L 956.709474 658.274616 
L 960.233684 657.067947 
L 963.757895 652.357028 
L 967.282105 664.260491 
L 970.806316 674.031257 
L 974.330526 682.224776 
L 977.854737 695.57391 
L 981.378947 704.949948 
L 984.903158 704.812543 
L 988.427368 704.859177 
L 991.951579 704.74842 
L 995.475789 703.570898 
L 999 700.621265 
L 1002.524211 692.315322 
L 1006.048421 669.535189 
L 1009.572632 663.80164 
L 1013.096842 663.890745 
L 1016.621053 664.231344 
L 1020.145263 665.939333 
L 1023.669474 669.002223 
L 1027.193684 678.232528 
L 1030.717895 701.441533 
L 1034.242105 710.786759 
L 1037.766316 716.373742 
L 1041.290526 715.931546 
L 1044.814737 715.976515 
L 1051.863158 717.228153 
L 1055.387368 717.226487 
L 1058.911579 714.767349 
L 1062.435789 710.954143 
L 1065.96 712.911961 
L 1069.484211 713.51821 
L 1073.008421 713.377473 
L 1076.532632 712.675457 
L 1080.056842 712.298217 
L 1083.581053 713.084342 
L 1087.105263 712.026737 
L 1090.629474 713.291699 
L 1094.153684 711.324721 
L 1097.677895 710.095568 
L 1101.202105 710.712643 
L 1104.726316 711.74693 
L 1108.250526 710.95914 
L 1111.774737 713.145966 
L 1115.298947 714.723212 
L 1118.823158 721.346981 
L 1122.347368 721.735047 
L 1125.871579 717.153204 
L 1129.395789 718.059247 
L 1132.92 716.520307 
L 1136.444211 719.685626 
L 1139.968421 715.71836 
L 1143.492632 713.071851 
L 1147.016842 716.41538 
L 1150.541053 724.634715 
L 1154.065263 725.794749 
L 1157.589474 729.508856 
L 1161.113684 727.546042 
L 1161.113684 727.546042 
" style="fill:none;stroke:#ffa500;stroke-linecap:square;stroke-width:1.5;"/>
   </g>
   <g id="patch_288">
    <path d="M 162 768.96 
L 162 103.68 
" style="fill:none;stroke:#000000;stroke-linecap:square;stroke-linejoin:miter;stroke-width:0.8;"/>
   </g>
   <g id="patch_289">
    <path d="M 1166.4 768.96 
L 1166.4 103.68 
" style="fill:none;stroke:#000000;stroke-linecap:square;stroke-linejoin:miter;stroke-width:0.8;"/>
   </g>
   <g id="patch_290">
    <path d="M 162 768.96 
L 1166.4 768.96 
" style="fill:none;stroke:#000000;stroke-linecap:square;stroke-linejoin:miter;stroke-width:0.8;"/>
   </g>
   <g id="patch_291">
    <path d="M 162 103.68 
L 1166.4 103.68 
" style="fill:none;stroke:#000000;stroke-linecap:square;stroke-linejoin:miter;stroke-width:0.8;"/>
   </g>
   <g id="text_18">
    <!-- Persons Fully Vaccinated -->
    <g transform="translate(590.380313 97.68)scale(0.12 -0.12)">
     <defs>
      <path d="M 1831 0 
L 50 4666 
L 709 4666 
L 2188 738 
L 3669 4666 
L 4325 4666 
L 2547 0 
L 1831 0 
z
" id="DejaVuSans-56" transform="scale(0.015625)"/>
     </defs>
     <use xlink:href="#DejaVuSans-50"/>
     <use x="56.677734" xlink:href="#DejaVuSans-65"/>
     <use x="118.201172" xlink:href="#DejaVuSans-72"/>
     <use x="159.314453" xlink:href="#DejaVuSans-73"/>
     <use x="211.414062" xlink:href="#DejaVuSans-6f"/>
     <use x="272.595703" xlink:href="#DejaVuSans-6e"/>
     <use x="335.974609" xlink:href="#DejaVuSans-73"/>
     <use x="388.074219" xlink:href="#DejaVuSans-20"/>
     <use x="419.861328" xlink:href="#DejaVuSans-46"/>
     <use x="471.880859" xlink:href="#DejaVuSans-75"/>
     <use x="535.259766" xlink:href="#DejaVuSans-6c"/>
     <use x="563.042969" xlink:href="#DejaVuSans-6c"/>
     <use x="590.826172" xlink:href="#DejaVuSans-79"/>
     <use x="650.005859" xlink:href="#DejaVuSans-20"/>
     <use x="681.792969" xlink:href="#DejaVuSans-56"/>
     <use x="742.451172" xlink:href="#DejaVuSans-61"/>
     <use x="803.730469" xlink:href="#DejaVuSans-63"/>
     <use x="858.710938" xlink:href="#DejaVuSans-63"/>
     <use x="913.691406" xlink:href="#DejaVuSans-69"/>
     <use x="941.474609" xlink:href="#DejaVuSans-6e"/>
     <use x="1004.853516" xlink:href="#DejaVuSans-61"/>
     <use x="1066.132812" xlink:href="#DejaVuSans-74"/>
     <use x="1105.341797" xlink:href="#DejaVuSans-65"/>
     <use x="1166.865234" xlink:href="#DejaVuSans-64"/>
    </g>
   </g>
  </g>
 </g>
 <defs>
  <clipPath id="p7a038187a4">
   <rect height="665.28" width="1004.4" x="162" y="103.68"/>
  </clipPath>
 </defs>
</svg>
