<?xml version="1.0" encoding="utf-8" standalone="no"?>
<!DOCTYPE svg PUBLIC "-//W3C//DTD SVG 1.1//EN"
  "http://www.w3.org/Graphics/SVG/1.1/DTD/svg11.dtd">
<svg height="864pt" version="1.1" viewBox="0 0 1296 864" width="1296pt" xmlns="http://www.w3.org/2000/svg" xmlns:xlink="http://www.w3.org/1999/xlink">
 <metadata>
  <rdf:RDF xmlns:cc="http://creativecommons.org/ns#" xmlns:dc="http://purl.org/dc/elements/1.1/" xmlns:rdf="http://www.w3.org/1999/02/22-rdf-syntax-ns#">
   <cc:Work>
    <dc:type rdf:resource="http://purl.org/dc/dcmitype/StillImage"/>
    <dc:date>2021-11-23T00:53:48.287515</dc:date>
    <dc:format>image/svg+xml</dc:format>
    <dc:creator>
     <cc:Agent>
      <dc:title>Matplotlib v3.4.2, https://matplotlib.org/</dc:title>
     </cc:Agent>
    </dc:creator>
   </cc:Work>
  </rdf:RDF>
 </metadata>
 <defs>
  <style type="text/css">*{stroke-linecap:butt;stroke-linejoin:round;}</style>
 </defs>
 <g id="figure_1">
  <g id="patch_1">
   <path d="M 0 864 
L 1296 864 
L 1296 0 
L 0 0 
z
" style="fill:#ffffff;"/>
  </g>
  <g id="axes_1">
   <g id="patch_2">
    <path d="M 162 768.96 
L 1166.4 768.96 
L 1166.4 103.68 
L 162 103.68 
z
" style="fill:#ffffff;"/>
   </g>
   <g id="patch_3">
    <path clip-path="url(#pa8a2a679e3)" d="M 162.777399 768.96 
L 164.332198 768.96 
L 164.332198 768.957289 
L 162.777399 768.957289 
z
" style="fill:#1f77b4;"/>
   </g>
   <g id="patch_4">
    <path clip-path="url(#pa8a2a679e3)" d="M 165.886997 768.96 
L 167.441796 768.96 
L 167.441796 768.946337 
L 165.886997 768.946337 
z
" style="fill:#1f77b4;"/>
   </g>
   <g id="patch_5">
    <path clip-path="url(#pa8a2a679e3)" d="M 168.996594 768.96 
L 170.551393 768.96 
L 170.551393 768.917642 
L 168.996594 768.917642 
z
" style="fill:#1f77b4;"/>
   </g>
   <g id="patch_6">
    <path clip-path="url(#pa8a2a679e3)" d="M 172.106192 768.96 
L 173.660991 768.96 
L 173.660991 768.714533 
L 172.106192 768.714533 
z
" style="fill:#1f77b4;"/>
   </g>
   <g id="patch_7">
    <path clip-path="url(#pa8a2a679e3)" d="M 175.215789 768.96 
L 176.770588 768.96 
L 176.770588 767.250632 
L 175.215789 767.250632 
z
" style="fill:#1f77b4;"/>
   </g>
   <g id="patch_8">
    <path clip-path="url(#pa8a2a679e3)" d="M 178.325387 768.96 
L 179.880186 768.96 
L 179.880186 765.494416 
L 178.325387 765.494416 
z
" style="fill:#1f77b4;"/>
   </g>
   <g id="patch_9">
    <path clip-path="url(#pa8a2a679e3)" d="M 181.434985 768.96 
L 182.989783 768.96 
L 182.989783 764.535659 
L 181.434985 764.535659 
z
" style="fill:#1f77b4;"/>
   </g>
   <g id="patch_10">
    <path clip-path="url(#pa8a2a679e3)" d="M 184.544582 768.96 
L 186.099381 768.96 
L 186.099381 763.954753 
L 184.544582 763.954753 
z
" style="fill:#1f77b4;"/>
   </g>
   <g id="patch_11">
    <path clip-path="url(#pa8a2a679e3)" d="M 187.65418 768.96 
L 189.208978 768.96 
L 189.208978 763.04268 
L 187.65418 763.04268 
z
" style="fill:#1f77b4;"/>
   </g>
   <g id="patch_12">
    <path clip-path="url(#pa8a2a679e3)" d="M 190.763777 768.96 
L 192.318576 768.96 
L 192.318576 762.174716 
L 190.763777 762.174716 
z
" style="fill:#1f77b4;"/>
   </g>
   <g id="patch_13">
    <path clip-path="url(#pa8a2a679e3)" d="M 193.873375 768.96 
L 195.428173 768.96 
L 195.428173 761.464876 
L 193.873375 761.464876 
z
" style="fill:#1f77b4;"/>
   </g>
   <g id="patch_14">
    <path clip-path="url(#pa8a2a679e3)" d="M 196.982972 768.96 
L 198.537771 768.96 
L 198.537771 760.595625 
L 196.982972 760.595625 
z
" style="fill:#1f77b4;"/>
   </g>
   <g id="patch_15">
    <path clip-path="url(#pa8a2a679e3)" d="M 200.09257 768.96 
L 201.647368 768.96 
L 201.647368 760.415899 
L 200.09257 760.415899 
z
" style="fill:#1f77b4;"/>
   </g>
   <g id="patch_16">
    <path clip-path="url(#pa8a2a679e3)" d="M 203.202167 768.96 
L 204.756966 768.96 
L 204.756966 760.30468 
L 203.202167 760.30468 
z
" style="fill:#1f77b4;"/>
   </g>
   <g id="patch_17">
    <path clip-path="url(#pa8a2a679e3)" d="M 206.311765 768.96 
L 207.866563 768.96 
L 207.866563 760.251726 
L 206.311765 760.251726 
z
" style="fill:#1f77b4;"/>
   </g>
   <g id="patch_18">
    <path clip-path="url(#pa8a2a679e3)" d="M 209.421362 768.96 
L 210.976161 768.96 
L 210.976161 760.009654 
L 209.421362 760.009654 
z
" style="fill:#1f77b4;"/>
   </g>
   <g id="patch_19">
    <path clip-path="url(#pa8a2a679e3)" d="M 212.53096 768.96 
L 214.085759 768.96 
L 214.085759 759.620385 
L 212.53096 759.620385 
z
" style="fill:#1f77b4;"/>
   </g>
   <g id="patch_20">
    <path clip-path="url(#pa8a2a679e3)" d="M 215.640557 768.96 
L 217.195356 768.96 
L 217.195356 758.885628 
L 215.640557 758.885628 
z
" style="fill:#1f77b4;"/>
   </g>
   <g id="patch_21">
    <path clip-path="url(#pa8a2a679e3)" d="M 218.750155 768.96 
L 220.304954 768.96 
L 220.304954 758.152076 
L 218.750155 758.152076 
z
" style="fill:#1f77b4;"/>
   </g>
   <g id="patch_22">
    <path clip-path="url(#pa8a2a679e3)" d="M 221.859752 768.96 
L 223.414551 768.96 
L 223.414551 757.59929 
L 221.859752 757.59929 
z
" style="fill:#1f77b4;"/>
   </g>
   <g id="patch_23">
    <path clip-path="url(#pa8a2a679e3)" d="M 224.96935 768.96 
L 226.524149 768.96 
L 226.524149 757.400343 
L 224.96935 757.400343 
z
" style="fill:#1f77b4;"/>
   </g>
   <g id="patch_24">
    <path clip-path="url(#pa8a2a679e3)" d="M 228.078947 768.96 
L 229.633746 768.96 
L 229.633746 757.143431 
L 228.078947 757.143431 
z
" style="fill:#1f77b4;"/>
   </g>
   <g id="patch_25">
    <path clip-path="url(#pa8a2a679e3)" d="M 231.188545 768.96 
L 232.743344 768.96 
L 232.743344 756.410919 
L 231.188545 756.410919 
z
" style="fill:#1f77b4;"/>
   </g>
   <g id="patch_26">
    <path clip-path="url(#pa8a2a679e3)" d="M 234.298142 768.96 
L 235.852941 768.96 
L 235.852941 755.212062 
L 234.298142 755.212062 
z
" style="fill:#1f77b4;"/>
   </g>
   <g id="patch_27">
    <path clip-path="url(#pa8a2a679e3)" d="M 237.40774 768.96 
L 238.962539 768.96 
L 238.962539 753.556497 
L 237.40774 753.556497 
z
" style="fill:#1f77b4;"/>
   </g>
   <g id="patch_28">
    <path clip-path="url(#pa8a2a679e3)" d="M 240.517337 768.96 
L 242.072136 768.96 
L 242.072136 752.15861 
L 240.517337 752.15861 
z
" style="fill:#1f77b4;"/>
   </g>
   <g id="patch_29">
    <path clip-path="url(#pa8a2a679e3)" d="M 243.626935 768.96 
L 245.181734 768.96 
L 245.181734 750.94316 
L 243.626935 750.94316 
z
" style="fill:#1f77b4;"/>
   </g>
   <g id="patch_30">
    <path clip-path="url(#pa8a2a679e3)" d="M 246.736533 768.96 
L 248.291331 768.96 
L 248.291331 750.274445 
L 246.736533 750.274445 
z
" style="fill:#1f77b4;"/>
   </g>
   <g id="patch_31">
    <path clip-path="url(#pa8a2a679e3)" d="M 249.84613 768.96 
L 251.400929 768.96 
L 251.400929 749.906615 
L 249.84613 749.906615 
z
" style="fill:#1f77b4;"/>
   </g>
   <g id="patch_32">
    <path clip-path="url(#pa8a2a679e3)" d="M 252.955728 768.96 
L 254.510526 768.96 
L 254.510526 749.204002 
L 252.955728 749.204002 
z
" style="fill:#1f77b4;"/>
   </g>
   <g id="patch_33">
    <path clip-path="url(#pa8a2a679e3)" d="M 256.065325 768.96 
L 257.620124 768.96 
L 257.620124 747.727889 
L 256.065325 747.727889 
z
" style="fill:#1f77b4;"/>
   </g>
   <g id="patch_34">
    <path clip-path="url(#pa8a2a679e3)" d="M 259.174923 768.96 
L 260.729721 768.96 
L 260.729721 746.601262 
L 259.174923 746.601262 
z
" style="fill:#1f77b4;"/>
   </g>
   <g id="patch_35">
    <path clip-path="url(#pa8a2a679e3)" d="M 262.28452 768.96 
L 263.839319 768.96 
L 263.839319 745.207866 
L 262.28452 745.207866 
z
" style="fill:#1f77b4;"/>
   </g>
   <g id="patch_36">
    <path clip-path="url(#pa8a2a679e3)" d="M 265.394118 768.96 
L 266.948916 768.96 
L 266.948916 743.997481 
L 265.394118 743.997481 
z
" style="fill:#1f77b4;"/>
   </g>
   <g id="patch_37">
    <path clip-path="url(#pa8a2a679e3)" d="M 268.503715 768.96 
L 270.058514 768.96 
L 270.058514 742.986756 
L 268.503715 742.986756 
z
" style="fill:#1f77b4;"/>
   </g>
   <g id="patch_38">
    <path clip-path="url(#pa8a2a679e3)" d="M 271.613313 768.96 
L 273.168111 768.96 
L 273.168111 742.625661 
L 271.613313 742.625661 
z
" style="fill:#1f77b4;"/>
   </g>
   <g id="patch_39">
    <path clip-path="url(#pa8a2a679e3)" d="M 274.72291 768.96 
L 276.277709 768.96 
L 276.277709 741.572139 
L 274.72291 741.572139 
z
" style="fill:#1f77b4;"/>
   </g>
   <g id="patch_40">
    <path clip-path="url(#pa8a2a679e3)" d="M 277.832508 768.96 
L 279.387307 768.96 
L 279.387307 740.127514 
L 277.832508 740.127514 
z
" style="fill:#1f77b4;"/>
   </g>
   <g id="patch_41">
    <path clip-path="url(#pa8a2a679e3)" d="M 280.942105 768.96 
L 282.496904 768.96 
L 282.496904 738.344876 
L 280.942105 738.344876 
z
" style="fill:#1f77b4;"/>
   </g>
   <g id="patch_42">
    <path clip-path="url(#pa8a2a679e3)" d="M 284.051703 768.96 
L 285.606502 768.96 
L 285.606502 735.798814 
L 284.051703 735.798814 
z
" style="fill:#1f77b4;"/>
   </g>
   <g id="patch_43">
    <path clip-path="url(#pa8a2a679e3)" d="M 287.1613 768.96 
L 288.716099 768.96 
L 288.716099 733.517165 
L 287.1613 733.517165 
z
" style="fill:#1f77b4;"/>
   </g>
   <g id="patch_44">
    <path clip-path="url(#pa8a2a679e3)" d="M 290.270898 768.96 
L 291.825697 768.96 
L 291.825697 732.128396 
L 290.270898 732.128396 
z
" style="fill:#1f77b4;"/>
   </g>
   <g id="patch_45">
    <path clip-path="url(#pa8a2a679e3)" d="M 293.380495 768.96 
L 294.935294 768.96 
L 294.935294 731.373104 
L 293.380495 731.373104 
z
" style="fill:#1f77b4;"/>
   </g>
   <g id="patch_46">
    <path clip-path="url(#pa8a2a679e3)" d="M 296.490093 768.96 
L 298.044892 768.96 
L 298.044892 730.610528 
L 296.490093 730.610528 
z
" style="fill:#1f77b4;"/>
   </g>
   <g id="patch_47">
    <path clip-path="url(#pa8a2a679e3)" d="M 299.59969 768.96 
L 301.154489 768.96 
L 301.154489 729.13551 
L 299.59969 729.13551 
z
" style="fill:#1f77b4;"/>
   </g>
   <g id="patch_48">
    <path clip-path="url(#pa8a2a679e3)" d="M 302.709288 768.96 
L 304.264087 768.96 
L 304.264087 726.747242 
L 302.709288 726.747242 
z
" style="fill:#1f77b4;"/>
   </g>
   <g id="patch_49">
    <path clip-path="url(#pa8a2a679e3)" d="M 305.818885 768.96 
L 307.373684 768.96 
L 307.373684 723.622026 
L 305.818885 723.622026 
z
" style="fill:#1f77b4;"/>
   </g>
   <g id="patch_50">
    <path clip-path="url(#pa8a2a679e3)" d="M 308.928483 768.96 
L 310.483282 768.96 
L 310.483282 720.6491 
L 308.928483 720.6491 
z
" style="fill:#1f77b4;"/>
   </g>
   <g id="patch_51">
    <path clip-path="url(#pa8a2a679e3)" d="M 312.03808 768.96 
L 313.592879 768.96 
L 313.592879 720.171666 
L 312.03808 720.171666 
z
" style="fill:#1f77b4;"/>
   </g>
   <g id="patch_52">
    <path clip-path="url(#pa8a2a679e3)" d="M 315.147678 768.96 
L 316.702477 768.96 
L 316.702477 718.046004 
L 315.147678 718.046004 
z
" style="fill:#1f77b4;"/>
   </g>
   <g id="patch_53">
    <path clip-path="url(#pa8a2a679e3)" d="M 318.257276 768.96 
L 319.812074 768.96 
L 319.812074 716.297072 
L 318.257276 716.297072 
z
" style="fill:#1f77b4;"/>
   </g>
   <g id="patch_54">
    <path clip-path="url(#pa8a2a679e3)" d="M 321.366873 768.96 
L 322.921672 768.96 
L 322.921672 713.720562 
L 321.366873 713.720562 
z
" style="fill:#1f77b4;"/>
   </g>
   <g id="patch_55">
    <path clip-path="url(#pa8a2a679e3)" d="M 324.476471 768.96 
L 326.031269 768.96 
L 326.031269 708.706115 
L 324.476471 708.706115 
z
" style="fill:#1f77b4;"/>
   </g>
   <g id="patch_56">
    <path clip-path="url(#pa8a2a679e3)" d="M 327.586068 768.96 
L 329.140867 768.96 
L 329.140867 703.511669 
L 327.586068 703.511669 
z
" style="fill:#1f77b4;"/>
   </g>
   <g id="patch_57">
    <path clip-path="url(#pa8a2a679e3)" d="M 330.695666 768.96 
L 332.250464 768.96 
L 332.250464 698.915844 
L 330.695666 698.915844 
z
" style="fill:#1f77b4;"/>
   </g>
   <g id="patch_58">
    <path clip-path="url(#pa8a2a679e3)" d="M 333.805263 768.96 
L 335.360062 768.96 
L 335.360062 694.990541 
L 333.805263 694.990541 
z
" style="fill:#1f77b4;"/>
   </g>
   <g id="patch_59">
    <path clip-path="url(#pa8a2a679e3)" d="M 336.914861 768.96 
L 338.469659 768.96 
L 338.469659 693.163847 
L 336.914861 693.163847 
z
" style="fill:#1f77b4;"/>
   </g>
   <g id="patch_60">
    <path clip-path="url(#pa8a2a679e3)" d="M 340.024458 768.96 
L 341.579257 768.96 
L 341.579257 690.302525 
L 340.024458 690.302525 
z
" style="fill:#1f77b4;"/>
   </g>
   <g id="patch_61">
    <path clip-path="url(#pa8a2a679e3)" d="M 343.134056 768.96 
L 344.688854 768.96 
L 344.688854 686.440498 
L 343.134056 686.440498 
z
" style="fill:#1f77b4;"/>
   </g>
   <g id="patch_62">
    <path clip-path="url(#pa8a2a679e3)" d="M 346.243653 768.96 
L 347.798452 768.96 
L 347.798452 682.006821 
L 346.243653 682.006821 
z
" style="fill:#1f77b4;"/>
   </g>
   <g id="patch_63">
    <path clip-path="url(#pa8a2a679e3)" d="M 349.353251 768.96 
L 350.90805 768.96 
L 350.90805 675.531759 
L 349.353251 675.531759 
z
" style="fill:#1f77b4;"/>
   </g>
   <g id="patch_64">
    <path clip-path="url(#pa8a2a679e3)" d="M 352.462848 768.96 
L 354.017647 768.96 
L 354.017647 669.464092 
L 352.462848 669.464092 
z
" style="fill:#1f77b4;"/>
   </g>
   <g id="patch_65">
    <path clip-path="url(#pa8a2a679e3)" d="M 355.572446 768.96 
L 357.127245 768.96 
L 357.127245 664.969137 
L 355.572446 664.969137 
z
" style="fill:#1f77b4;"/>
   </g>
   <g id="patch_66">
    <path clip-path="url(#pa8a2a679e3)" d="M 358.682043 768.96 
L 360.236842 768.96 
L 360.236842 663.532096 
L 358.682043 663.532096 
z
" style="fill:#1f77b4;"/>
   </g>
   <g id="patch_67">
    <path clip-path="url(#pa8a2a679e3)" d="M 361.791641 768.96 
L 363.34644 768.96 
L 363.34644 659.642388 
L 361.791641 659.642388 
z
" style="fill:#1f77b4;"/>
   </g>
   <g id="patch_68">
    <path clip-path="url(#pa8a2a679e3)" d="M 364.901238 768.96 
L 366.456037 768.96 
L 366.456037 654.595933 
L 364.901238 654.595933 
z
" style="fill:#1f77b4;"/>
   </g>
   <g id="patch_69">
    <path clip-path="url(#pa8a2a679e3)" d="M 368.010836 768.96 
L 369.565635 768.96 
L 369.565635 649.004496 
L 368.010836 649.004496 
z
" style="fill:#1f77b4;"/>
   </g>
   <g id="patch_70">
    <path clip-path="url(#pa8a2a679e3)" d="M 371.120433 768.96 
L 372.675232 768.96 
L 372.675232 642.988305 
L 371.120433 642.988305 
z
" style="fill:#1f77b4;"/>
   </g>
   <g id="patch_71">
    <path clip-path="url(#pa8a2a679e3)" d="M 374.230031 768.96 
L 375.78483 768.96 
L 375.78483 636.202994 
L 374.230031 636.202994 
z
" style="fill:#1f77b4;"/>
   </g>
   <g id="patch_72">
    <path clip-path="url(#pa8a2a679e3)" d="M 377.339628 768.96 
L 378.894427 768.96 
L 378.894427 631.826377 
L 377.339628 631.826377 
z
" style="fill:#1f77b4;"/>
   </g>
   <g id="patch_73">
    <path clip-path="url(#pa8a2a679e3)" d="M 380.449226 768.96 
L 382.004025 768.96 
L 382.004025 627.50203 
L 380.449226 627.50203 
z
" style="fill:#1f77b4;"/>
   </g>
   <g id="patch_74">
    <path clip-path="url(#pa8a2a679e3)" d="M 383.558824 768.96 
L 385.113622 768.96 
L 385.113622 623.629709 
L 383.558824 623.629709 
z
" style="fill:#1f77b4;"/>
   </g>
   <g id="patch_75">
    <path clip-path="url(#pa8a2a679e3)" d="M 386.668421 768.96 
L 388.22322 768.96 
L 388.22322 619.278063 
L 386.668421 619.278063 
z
" style="fill:#1f77b4;"/>
   </g>
   <g id="patch_76">
    <path clip-path="url(#pa8a2a679e3)" d="M 389.778019 768.96 
L 391.332817 768.96 
L 391.332817 615.372967 
L 389.778019 615.372967 
z
" style="fill:#1f77b4;"/>
   </g>
   <g id="patch_77">
    <path clip-path="url(#pa8a2a679e3)" d="M 392.887616 768.96 
L 394.442415 768.96 
L 394.442415 610.949228 
L 392.887616 610.949228 
z
" style="fill:#1f77b4;"/>
   </g>
   <g id="patch_78">
    <path clip-path="url(#pa8a2a679e3)" d="M 395.997214 768.96 
L 397.552012 768.96 
L 397.552012 606.400799 
L 395.997214 606.400799 
z
" style="fill:#1f77b4;"/>
   </g>
   <g id="patch_79">
    <path clip-path="url(#pa8a2a679e3)" d="M 399.106811 768.96 
L 400.66161 768.96 
L 400.66161 603.694806 
L 399.106811 603.694806 
z
" style="fill:#1f77b4;"/>
   </g>
   <g id="patch_80">
    <path clip-path="url(#pa8a2a679e3)" d="M 402.216409 768.96 
L 403.771207 768.96 
L 403.771207 602.217516 
L 402.216409 602.217516 
z
" style="fill:#1f77b4;"/>
   </g>
   <g id="patch_81">
    <path clip-path="url(#pa8a2a679e3)" d="M 405.326006 768.96 
L 406.880805 768.96 
L 406.880805 599.813476 
L 405.326006 599.813476 
z
" style="fill:#1f77b4;"/>
   </g>
   <g id="patch_82">
    <path clip-path="url(#pa8a2a679e3)" d="M 408.435604 768.96 
L 409.990402 768.96 
L 409.990402 596.896435 
L 408.435604 596.896435 
z
" style="fill:#1f77b4;"/>
   </g>
   <g id="patch_83">
    <path clip-path="url(#pa8a2a679e3)" d="M 411.545201 768.96 
L 413.1 768.96 
L 413.1 593.838767 
L 411.545201 593.838767 
z
" style="fill:#1f77b4;"/>
   </g>
   <g id="patch_84">
    <path clip-path="url(#pa8a2a679e3)" d="M 414.654799 768.96 
L 416.209598 768.96 
L 416.209598 589.908508 
L 414.654799 589.908508 
z
" style="fill:#1f77b4;"/>
   </g>
   <g id="patch_85">
    <path clip-path="url(#pa8a2a679e3)" d="M 417.764396 768.96 
L 419.319195 768.96 
L 419.319195 585.016534 
L 417.764396 585.016534 
z
" style="fill:#1f77b4;"/>
   </g>
   <g id="patch_86">
    <path clip-path="url(#pa8a2a679e3)" d="M 420.873994 768.96 
L 422.428793 768.96 
L 422.428793 580.77975 
L 420.873994 580.77975 
z
" style="fill:#1f77b4;"/>
   </g>
   <g id="patch_87">
    <path clip-path="url(#pa8a2a679e3)" d="M 423.983591 768.96 
L 425.53839 768.96 
L 425.53839 579.102911 
L 423.983591 579.102911 
z
" style="fill:#1f77b4;"/>
   </g>
   <g id="patch_88">
    <path clip-path="url(#pa8a2a679e3)" d="M 427.093189 768.96 
L 428.647988 768.96 
L 428.647988 576.521062 
L 427.093189 576.521062 
z
" style="fill:#1f77b4;"/>
   </g>
   <g id="patch_89">
    <path clip-path="url(#pa8a2a679e3)" d="M 430.202786 768.96 
L 431.757585 768.96 
L 431.757585 571.847831 
L 430.202786 571.847831 
z
" style="fill:#1f77b4;"/>
   </g>
   <g id="patch_90">
    <path clip-path="url(#pa8a2a679e3)" d="M 433.312384 768.96 
L 434.867183 768.96 
L 434.867183 567.893697 
L 433.312384 567.893697 
z
" style="fill:#1f77b4;"/>
   </g>
   <g id="patch_91">
    <path clip-path="url(#pa8a2a679e3)" d="M 436.421981 768.96 
L 437.97678 768.96 
L 437.97678 562.394943 
L 436.421981 562.394943 
z
" style="fill:#1f77b4;"/>
   </g>
   <g id="patch_92">
    <path clip-path="url(#pa8a2a679e3)" d="M 439.531579 768.96 
L 441.086378 768.96 
L 441.086378 556.847178 
L 439.531579 556.847178 
z
" style="fill:#1f77b4;"/>
   </g>
   <g id="patch_93">
    <path clip-path="url(#pa8a2a679e3)" d="M 442.641176 768.96 
L 444.195975 768.96 
L 444.195975 552.602125 
L 442.641176 552.602125 
z
" style="fill:#1f77b4;"/>
   </g>
   <g id="patch_94">
    <path clip-path="url(#pa8a2a679e3)" d="M 445.750774 768.96 
L 447.305573 768.96 
L 447.305573 551.422735 
L 445.750774 551.422735 
z
" style="fill:#1f77b4;"/>
   </g>
   <g id="patch_95">
    <path clip-path="url(#pa8a2a679e3)" d="M 448.860372 768.96 
L 450.41517 768.96 
L 450.41517 547.402969 
L 448.860372 547.402969 
z
" style="fill:#1f77b4;"/>
   </g>
   <g id="patch_96">
    <path clip-path="url(#pa8a2a679e3)" d="M 451.969969 768.96 
L 453.524768 768.96 
L 453.524768 541.25516 
L 451.969969 541.25516 
z
" style="fill:#1f77b4;"/>
   </g>
   <g id="patch_97">
    <path clip-path="url(#pa8a2a679e3)" d="M 455.079567 768.96 
L 456.634365 768.96 
L 456.634365 534.440141 
L 455.079567 534.440141 
z
" style="fill:#1f77b4;"/>
   </g>
   <g id="patch_98">
    <path clip-path="url(#pa8a2a679e3)" d="M 458.189164 768.96 
L 459.743963 768.96 
L 459.743963 526.281093 
L 458.189164 526.281093 
z
" style="fill:#1f77b4;"/>
   </g>
   <g id="patch_99">
    <path clip-path="url(#pa8a2a679e3)" d="M 461.298762 768.96 
L 462.85356 768.96 
L 462.85356 516.652175 
L 461.298762 516.652175 
z
" style="fill:#1f77b4;"/>
   </g>
   <g id="patch_100">
    <path clip-path="url(#pa8a2a679e3)" d="M 464.408359 768.96 
L 465.963158 768.96 
L 465.963158 510.285129 
L 464.408359 510.285129 
z
" style="fill:#1f77b4;"/>
   </g>
   <g id="patch_101">
    <path clip-path="url(#pa8a2a679e3)" d="M 467.517957 768.96 
L 469.072755 768.96 
L 469.072755 507.214975 
L 467.517957 507.214975 
z
" style="fill:#1f77b4;"/>
   </g>
   <g id="patch_102">
    <path clip-path="url(#pa8a2a679e3)" d="M 470.627554 768.96 
L 472.182353 768.96 
L 472.182353 501.945123 
L 470.627554 501.945123 
z
" style="fill:#1f77b4;"/>
   </g>
   <g id="patch_103">
    <path clip-path="url(#pa8a2a679e3)" d="M 473.737152 768.96 
L 475.29195 768.96 
L 475.29195 495.401172 
L 473.737152 495.401172 
z
" style="fill:#1f77b4;"/>
   </g>
   <g id="patch_104">
    <path clip-path="url(#pa8a2a679e3)" d="M 476.846749 768.96 
L 478.401548 768.96 
L 478.401548 489.750949 
L 476.846749 489.750949 
z
" style="fill:#1f77b4;"/>
   </g>
   <g id="patch_105">
    <path clip-path="url(#pa8a2a679e3)" d="M 479.956347 768.96 
L 481.511146 768.96 
L 481.511146 482.057398 
L 479.956347 482.057398 
z
" style="fill:#1f77b4;"/>
   </g>
   <g id="patch_106">
    <path clip-path="url(#pa8a2a679e3)" d="M 483.065944 768.96 
L 484.620743 768.96 
L 484.620743 474.570679 
L 483.065944 474.570679 
z
" style="fill:#1f77b4;"/>
   </g>
   <g id="patch_107">
    <path clip-path="url(#pa8a2a679e3)" d="M 486.175542 768.96 
L 487.730341 768.96 
L 487.730341 469.379929 
L 486.175542 469.379929 
z
" style="fill:#1f77b4;"/>
   </g>
   <g id="patch_108">
    <path clip-path="url(#pa8a2a679e3)" d="M 489.285139 768.96 
L 490.839938 768.96 
L 490.839938 466.353584 
L 489.285139 466.353584 
z
" style="fill:#1f77b4;"/>
   </g>
   <g id="patch_109">
    <path clip-path="url(#pa8a2a679e3)" d="M 492.394737 768.96 
L 493.949536 768.96 
L 493.949536 462.010098 
L 492.394737 462.010098 
z
" style="fill:#1f77b4;"/>
   </g>
   <g id="patch_110">
    <path clip-path="url(#pa8a2a679e3)" d="M 495.504334 768.96 
L 497.059133 768.96 
L 497.059133 455.086597 
L 495.504334 455.086597 
z
" style="fill:#1f77b4;"/>
   </g>
   <g id="patch_111">
    <path clip-path="url(#pa8a2a679e3)" d="M 498.613932 768.96 
L 500.168731 768.96 
L 500.168731 448.960802 
L 498.613932 448.960802 
z
" style="fill:#1f77b4;"/>
   </g>
   <g id="patch_112">
    <path clip-path="url(#pa8a2a679e3)" d="M 501.723529 768.96 
L 503.278328 768.96 
L 503.278328 442.519664 
L 501.723529 442.519664 
z
" style="fill:#1f77b4;"/>
   </g>
   <g id="patch_113">
    <path clip-path="url(#pa8a2a679e3)" d="M 504.833127 768.96 
L 506.387926 768.96 
L 506.387926 436.619265 
L 504.833127 436.619265 
z
" style="fill:#1f77b4;"/>
   </g>
   <g id="patch_114">
    <path clip-path="url(#pa8a2a679e3)" d="M 507.942724 768.96 
L 509.497523 768.96 
L 509.497523 432.755623 
L 507.942724 432.755623 
z
" style="fill:#1f77b4;"/>
   </g>
   <g id="patch_115">
    <path clip-path="url(#pa8a2a679e3)" d="M 511.052322 768.96 
L 512.607121 768.96 
L 512.607121 431.167579 
L 511.052322 431.167579 
z
" style="fill:#1f77b4;"/>
   </g>
   <g id="patch_116">
    <path clip-path="url(#pa8a2a679e3)" d="M 514.16192 768.96 
L 515.716718 768.96 
L 515.716718 427.493218 
L 514.16192 427.493218 
z
" style="fill:#1f77b4;"/>
   </g>
   <g id="patch_117">
    <path clip-path="url(#pa8a2a679e3)" d="M 517.271517 768.96 
L 518.826316 768.96 
L 518.826316 422.262137 
L 517.271517 422.262137 
z
" style="fill:#1f77b4;"/>
   </g>
   <g id="patch_118">
    <path clip-path="url(#pa8a2a679e3)" d="M 520.381115 768.96 
L 521.935913 768.96 
L 521.935913 416.823073 
L 520.381115 416.823073 
z
" style="fill:#1f77b4;"/>
   </g>
   <g id="patch_119">
    <path clip-path="url(#pa8a2a679e3)" d="M 523.490712 768.96 
L 525.045511 768.96 
L 525.045511 411.56305 
L 523.490712 411.56305 
z
" style="fill:#1f77b4;"/>
   </g>
   <g id="patch_120">
    <path clip-path="url(#pa8a2a679e3)" d="M 526.60031 768.96 
L 528.155108 768.96 
L 528.155108 407.026805 
L 526.60031 407.026805 
z
" style="fill:#1f77b4;"/>
   </g>
   <g id="patch_121">
    <path clip-path="url(#pa8a2a679e3)" d="M 529.709907 768.96 
L 531.264706 768.96 
L 531.264706 405.004724 
L 529.709907 405.004724 
z
" style="fill:#1f77b4;"/>
   </g>
   <g id="patch_122">
    <path clip-path="url(#pa8a2a679e3)" d="M 532.819505 768.96 
L 534.374303 768.96 
L 534.374303 404.34896 
L 532.819505 404.34896 
z
" style="fill:#1f77b4;"/>
   </g>
   <g id="patch_123">
    <path clip-path="url(#pa8a2a679e3)" d="M 535.929102 768.96 
L 537.483901 768.96 
L 537.483901 402.103234 
L 535.929102 402.103234 
z
" style="fill:#1f77b4;"/>
   </g>
   <g id="patch_124">
    <path clip-path="url(#pa8a2a679e3)" d="M 539.0387 768.96 
L 540.593498 768.96 
L 540.593498 396.283635 
L 539.0387 396.283635 
z
" style="fill:#1f77b4;"/>
   </g>
   <g id="patch_125">
    <path clip-path="url(#pa8a2a679e3)" d="M 542.148297 768.96 
L 543.703096 768.96 
L 543.703096 390.626732 
L 542.148297 390.626732 
z
" style="fill:#1f77b4;"/>
   </g>
   <g id="patch_126">
    <path clip-path="url(#pa8a2a679e3)" d="M 545.257895 768.96 
L 546.812693 768.96 
L 546.812693 386.364374 
L 545.257895 386.364374 
z
" style="fill:#1f77b4;"/>
   </g>
   <g id="patch_127">
    <path clip-path="url(#pa8a2a679e3)" d="M 548.367492 768.96 
L 549.922291 768.96 
L 549.922291 380.485277 
L 548.367492 380.485277 
z
" style="fill:#1f77b4;"/>
   </g>
   <g id="patch_128">
    <path clip-path="url(#pa8a2a679e3)" d="M 551.47709 768.96 
L 553.031889 768.96 
L 553.031889 376.443169 
L 551.47709 376.443169 
z
" style="fill:#1f77b4;"/>
   </g>
   <g id="patch_129">
    <path clip-path="url(#pa8a2a679e3)" d="M 554.586687 768.96 
L 556.141486 768.96 
L 556.141486 372.688556 
L 554.586687 372.688556 
z
" style="fill:#1f77b4;"/>
   </g>
   <g id="patch_130">
    <path clip-path="url(#pa8a2a679e3)" d="M 557.696285 768.96 
L 559.251084 768.96 
L 559.251084 369.270834 
L 557.696285 369.270834 
z
" style="fill:#1f77b4;"/>
   </g>
   <g id="patch_131">
    <path clip-path="url(#pa8a2a679e3)" d="M 560.805882 768.96 
L 562.360681 768.96 
L 562.360681 364.90224 
L 560.805882 364.90224 
z
" style="fill:#1f77b4;"/>
   </g>
   <g id="patch_132">
    <path clip-path="url(#pa8a2a679e3)" d="M 563.91548 768.96 
L 565.470279 768.96 
L 565.470279 360.931923 
L 563.91548 360.931923 
z
" style="fill:#1f77b4;"/>
   </g>
   <g id="patch_133">
    <path clip-path="url(#pa8a2a679e3)" d="M 567.025077 768.96 
L 568.579876 768.96 
L 568.579876 356.816927 
L 567.025077 356.816927 
z
" style="fill:#1f77b4;"/>
   </g>
   <g id="patch_134">
    <path clip-path="url(#pa8a2a679e3)" d="M 570.134675 768.96 
L 571.689474 768.96 
L 571.689474 350.861904 
L 570.134675 350.861904 
z
" style="fill:#1f77b4;"/>
   </g>
   <g id="patch_135">
    <path clip-path="url(#pa8a2a679e3)" d="M 573.244272 768.96 
L 574.799071 768.96 
L 574.799071 347.580482 
L 573.244272 347.580482 
z
" style="fill:#1f77b4;"/>
   </g>
   <g id="patch_136">
    <path clip-path="url(#pa8a2a679e3)" d="M 576.35387 768.96 
L 577.908669 768.96 
L 577.908669 346.276593 
L 576.35387 346.276593 
z
" style="fill:#1f77b4;"/>
   </g>
   <g id="patch_137">
    <path clip-path="url(#pa8a2a679e3)" d="M 579.463467 768.96 
L 581.018266 768.96 
L 581.018266 343.962608 
L 579.463467 343.962608 
z
" style="fill:#1f77b4;"/>
   </g>
   <g id="patch_138">
    <path clip-path="url(#pa8a2a679e3)" d="M 582.573065 768.96 
L 584.127864 768.96 
L 584.127864 339.677442 
L 582.573065 339.677442 
z
" style="fill:#1f77b4;"/>
   </g>
   <g id="patch_139">
    <path clip-path="url(#pa8a2a679e3)" d="M 585.682663 768.96 
L 587.237461 768.96 
L 587.237461 335.881786 
L 585.682663 335.881786 
z
" style="fill:#1f77b4;"/>
   </g>
   <g id="patch_140">
    <path clip-path="url(#pa8a2a679e3)" d="M 588.79226 768.96 
L 590.347059 768.96 
L 590.347059 330.428074 
L 588.79226 330.428074 
z
" style="fill:#1f77b4;"/>
   </g>
   <g id="patch_141">
    <path clip-path="url(#pa8a2a679e3)" d="M 591.901858 768.96 
L 593.456656 768.96 
L 593.456656 326.874735 
L 591.901858 326.874735 
z
" style="fill:#1f77b4;"/>
   </g>
   <g id="patch_142">
    <path clip-path="url(#pa8a2a679e3)" d="M 595.011455 768.96 
L 596.566254 768.96 
L 596.566254 324.077018 
L 595.011455 324.077018 
z
" style="fill:#1f77b4;"/>
   </g>
   <g id="patch_143">
    <path clip-path="url(#pa8a2a679e3)" d="M 598.121053 768.96 
L 599.675851 768.96 
L 599.675851 322.809627 
L 598.121053 322.809627 
z
" style="fill:#1f77b4;"/>
   </g>
   <g id="patch_144">
    <path clip-path="url(#pa8a2a679e3)" d="M 601.23065 768.96 
L 602.785449 768.96 
L 602.785449 320.673205 
L 601.23065 320.673205 
z
" style="fill:#1f77b4;"/>
   </g>
   <g id="patch_145">
    <path clip-path="url(#pa8a2a679e3)" d="M 604.340248 768.96 
L 605.895046 768.96 
L 605.895046 318.060936 
L 604.340248 318.060936 
z
" style="fill:#1f77b4;"/>
   </g>
   <g id="patch_146">
    <path clip-path="url(#pa8a2a679e3)" d="M 607.449845 768.96 
L 609.004644 768.96 
L 609.004644 315.477171 
L 607.449845 315.477171 
z
" style="fill:#1f77b4;"/>
   </g>
   <g id="patch_147">
    <path clip-path="url(#pa8a2a679e3)" d="M 610.559443 768.96 
L 612.114241 768.96 
L 612.114241 312.701139 
L 610.559443 312.701139 
z
" style="fill:#1f77b4;"/>
   </g>
   <g id="patch_148">
    <path clip-path="url(#pa8a2a679e3)" d="M 613.66904 768.96 
L 615.223839 768.96 
L 615.223839 310.125533 
L 613.66904 310.125533 
z
" style="fill:#1f77b4;"/>
   </g>
   <g id="patch_149">
    <path clip-path="url(#pa8a2a679e3)" d="M 616.778638 768.96 
L 618.333437 768.96 
L 618.333437 308.368222 
L 616.778638 308.368222 
z
" style="fill:#1f77b4;"/>
   </g>
   <g id="patch_150">
    <path clip-path="url(#pa8a2a679e3)" d="M 619.888235 768.96 
L 621.443034 768.96 
L 621.443034 307.381536 
L 619.888235 307.381536 
z
" style="fill:#1f77b4;"/>
   </g>
   <g id="patch_151">
    <path clip-path="url(#pa8a2a679e3)" d="M 622.997833 768.96 
L 624.552632 768.96 
L 624.552632 306.66882 
L 622.997833 306.66882 
z
" style="fill:#1f77b4;"/>
   </g>
   <g id="patch_152">
    <path clip-path="url(#pa8a2a679e3)" d="M 626.10743 768.96 
L 627.662229 768.96 
L 627.662229 305.129869 
L 626.10743 305.129869 
z
" style="fill:#1f77b4;"/>
   </g>
   <g id="patch_153">
    <path clip-path="url(#pa8a2a679e3)" d="M 629.217028 768.96 
L 630.771827 768.96 
L 630.771827 303.524493 
L 629.217028 303.524493 
z
" style="fill:#1f77b4;"/>
   </g>
   <g id="patch_154">
    <path clip-path="url(#pa8a2a679e3)" d="M 632.326625 768.96 
L 633.881424 768.96 
L 633.881424 301.048004 
L 632.326625 301.048004 
z
" style="fill:#1f77b4;"/>
   </g>
   <g id="patch_155">
    <path clip-path="url(#pa8a2a679e3)" d="M 635.436223 768.96 
L 636.991022 768.96 
L 636.991022 298.366216 
L 635.436223 298.366216 
z
" style="fill:#1f77b4;"/>
   </g>
   <g id="patch_156">
    <path clip-path="url(#pa8a2a679e3)" d="M 638.54582 768.96 
L 640.100619 768.96 
L 640.100619 296.049794 
L 638.54582 296.049794 
z
" style="fill:#1f77b4;"/>
   </g>
   <g id="patch_157">
    <path clip-path="url(#pa8a2a679e3)" d="M 641.655418 768.96 
L 643.210217 768.96 
L 643.210217 294.432617 
L 641.655418 294.432617 
z
" style="fill:#1f77b4;"/>
   </g>
   <g id="patch_158">
    <path clip-path="url(#pa8a2a679e3)" d="M 644.765015 768.96 
L 646.319814 768.96 
L 646.319814 292.212136 
L 644.765015 292.212136 
z
" style="fill:#1f77b4;"/>
   </g>
   <g id="patch_159">
    <path clip-path="url(#pa8a2a679e3)" d="M 647.874613 768.96 
L 649.429412 768.96 
L 649.429412 289.700875 
L 647.874613 289.700875 
z
" style="fill:#1f77b4;"/>
   </g>
   <g id="patch_160">
    <path clip-path="url(#pa8a2a679e3)" d="M 650.984211 768.96 
L 652.539009 768.96 
L 652.539009 286.672723 
L 650.984211 286.672723 
z
" style="fill:#1f77b4;"/>
   </g>
   <g id="patch_161">
    <path clip-path="url(#pa8a2a679e3)" d="M 654.093808 768.96 
L 655.648607 768.96 
L 655.648607 284.591089 
L 654.093808 284.591089 
z
" style="fill:#1f77b4;"/>
   </g>
   <g id="patch_162">
    <path clip-path="url(#pa8a2a679e3)" d="M 657.203406 768.96 
L 658.758204 768.96 
L 658.758204 282.615856 
L 657.203406 282.615856 
z
" style="fill:#1f77b4;"/>
   </g>
   <g id="patch_163">
    <path clip-path="url(#pa8a2a679e3)" d="M 660.313003 768.96 
L 661.867802 768.96 
L 661.867802 281.416232 
L 660.313003 281.416232 
z
" style="fill:#1f77b4;"/>
   </g>
   <g id="patch_164">
    <path clip-path="url(#pa8a2a679e3)" d="M 663.422601 768.96 
L 664.977399 768.96 
L 664.977399 280.243194 
L 663.422601 280.243194 
z
" style="fill:#1f77b4;"/>
   </g>
   <g id="patch_165">
    <path clip-path="url(#pa8a2a679e3)" d="M 666.532198 768.96 
L 668.086997 768.96 
L 668.086997 276.704094 
L 666.532198 276.704094 
z
" style="fill:#1f77b4;"/>
   </g>
   <g id="patch_166">
    <path clip-path="url(#pa8a2a679e3)" d="M 669.641796 768.96 
L 671.196594 768.96 
L 671.196594 273.985479 
L 669.641796 273.985479 
z
" style="fill:#1f77b4;"/>
   </g>
   <g id="patch_167">
    <path clip-path="url(#pa8a2a679e3)" d="M 672.751393 768.96 
L 674.306192 768.96 
L 674.306192 272.112677 
L 672.751393 272.112677 
z
" style="fill:#1f77b4;"/>
   </g>
   <g id="patch_168">
    <path clip-path="url(#pa8a2a679e3)" d="M 675.860991 768.96 
L 677.415789 768.96 
L 677.415789 269.639063 
L 675.860991 269.639063 
z
" style="fill:#1f77b4;"/>
   </g>
   <g id="patch_169">
    <path clip-path="url(#pa8a2a679e3)" d="M 678.970588 768.96 
L 680.525387 768.96 
L 680.525387 268.465095 
L 678.970588 268.465095 
z
" style="fill:#1f77b4;"/>
   </g>
   <g id="patch_170">
    <path clip-path="url(#pa8a2a679e3)" d="M 682.080186 768.96 
L 683.634985 768.96 
L 683.634985 266.615511 
L 682.080186 266.615511 
z
" style="fill:#1f77b4;"/>
   </g>
   <g id="patch_171">
    <path clip-path="url(#pa8a2a679e3)" d="M 685.189783 768.96 
L 686.744582 768.96 
L 686.744582 265.830977 
L 685.189783 265.830977 
z
" style="fill:#1f77b4;"/>
   </g>
   <g id="patch_172">
    <path clip-path="url(#pa8a2a679e3)" d="M 688.299381 768.96 
L 689.85418 768.96 
L 689.85418 264.835694 
L 688.299381 264.835694 
z
" style="fill:#1f77b4;"/>
   </g>
   <g id="patch_173">
    <path clip-path="url(#pa8a2a679e3)" d="M 691.408978 768.96 
L 692.963777 768.96 
L 692.963777 263.628239 
L 691.408978 263.628239 
z
" style="fill:#1f77b4;"/>
   </g>
   <g id="patch_174">
    <path clip-path="url(#pa8a2a679e3)" d="M 694.518576 768.96 
L 696.073375 768.96 
L 696.073375 262.189774 
L 694.518576 262.189774 
z
" style="fill:#1f77b4;"/>
   </g>
   <g id="patch_175">
    <path clip-path="url(#pa8a2a679e3)" d="M 697.628173 768.96 
L 699.182972 768.96 
L 699.182972 260.441471 
L 697.628173 260.441471 
z
" style="fill:#1f77b4;"/>
   </g>
   <g id="patch_176">
    <path clip-path="url(#pa8a2a679e3)" d="M 700.737771 768.96 
L 702.29257 768.96 
L 702.29257 256.37984 
L 700.737771 256.37984 
z
" style="fill:#1f77b4;"/>
   </g>
   <g id="patch_177">
    <path clip-path="url(#pa8a2a679e3)" d="M 703.847368 768.96 
L 705.402167 768.96 
L 705.402167 251.670851 
L 703.847368 251.670851 
z
" style="fill:#1f77b4;"/>
   </g>
   <g id="patch_178">
    <path clip-path="url(#pa8a2a679e3)" d="M 706.956966 768.96 
L 708.511765 768.96 
L 708.511765 251.27742 
L 706.956966 251.27742 
z
" style="fill:#1f77b4;"/>
   </g>
   <g id="patch_179">
    <path clip-path="url(#pa8a2a679e3)" d="M 710.066563 768.96 
L 711.621362 768.96 
L 711.621362 250.283506 
L 710.066563 250.283506 
z
" style="fill:#1f77b4;"/>
   </g>
   <g id="patch_180">
    <path clip-path="url(#pa8a2a679e3)" d="M 713.176161 768.96 
L 714.73096 768.96 
L 714.73096 249.045248 
L 713.176161 249.045248 
z
" style="fill:#1f77b4;"/>
   </g>
   <g id="patch_181">
    <path clip-path="url(#pa8a2a679e3)" d="M 716.285759 768.96 
L 717.840557 768.96 
L 717.840557 247.855591 
L 716.285759 247.855591 
z
" style="fill:#1f77b4;"/>
   </g>
   <g id="patch_182">
    <path clip-path="url(#pa8a2a679e3)" d="M 719.395356 768.96 
L 720.950155 768.96 
L 720.950155 246.774935 
L 719.395356 246.774935 
z
" style="fill:#1f77b4;"/>
   </g>
   <g id="patch_183">
    <path clip-path="url(#pa8a2a679e3)" d="M 722.504954 768.96 
L 724.059752 768.96 
L 724.059752 245.699482 
L 722.504954 245.699482 
z
" style="fill:#1f77b4;"/>
   </g>
   <g id="patch_184">
    <path clip-path="url(#pa8a2a679e3)" d="M 725.614551 768.96 
L 727.16935 768.96 
L 727.16935 244.904351 
L 725.614551 244.904351 
z
" style="fill:#1f77b4;"/>
   </g>
   <g id="patch_185">
    <path clip-path="url(#pa8a2a679e3)" d="M 728.724149 768.96 
L 730.278947 768.96 
L 730.278947 244.516505 
L 728.724149 244.516505 
z
" style="fill:#1f77b4;"/>
   </g>
   <g id="patch_186">
    <path clip-path="url(#pa8a2a679e3)" d="M 731.833746 768.96 
L 733.388545 768.96 
L 733.388545 244.447369 
L 731.833746 244.447369 
z
" style="fill:#1f77b4;"/>
   </g>
   <g id="patch_187">
    <path clip-path="url(#pa8a2a679e3)" d="M 734.943344 768.96 
L 736.498142 768.96 
L 736.498142 243.822573 
L 734.943344 243.822573 
z
" style="fill:#1f77b4;"/>
   </g>
   <g id="patch_188">
    <path clip-path="url(#pa8a2a679e3)" d="M 738.052941 768.96 
L 739.60774 768.96 
L 739.60774 242.707062 
L 738.052941 242.707062 
z
" style="fill:#1f77b4;"/>
   </g>
   <g id="patch_189">
    <path clip-path="url(#pa8a2a679e3)" d="M 741.162539 768.96 
L 742.717337 768.96 
L 742.717337 241.587252 
L 741.162539 241.587252 
z
" style="fill:#1f77b4;"/>
   </g>
   <g id="patch_190">
    <path clip-path="url(#pa8a2a679e3)" d="M 744.272136 768.96 
L 745.826935 768.96 
L 745.826935 240.592462 
L 744.272136 240.592462 
z
" style="fill:#1f77b4;"/>
   </g>
   <g id="patch_191">
    <path clip-path="url(#pa8a2a679e3)" d="M 747.381734 768.96 
L 748.936533 768.96 
L 748.936533 239.77006 
L 747.381734 239.77006 
z
" style="fill:#1f77b4;"/>
   </g>
   <g id="patch_192">
    <path clip-path="url(#pa8a2a679e3)" d="M 750.491331 768.96 
L 752.04613 768.96 
L 752.04613 239.209853 
L 750.491331 239.209853 
z
" style="fill:#1f77b4;"/>
   </g>
   <g id="patch_193">
    <path clip-path="url(#pa8a2a679e3)" d="M 753.600929 768.96 
L 755.155728 768.96 
L 755.155728 238.154306 
L 753.600929 238.154306 
z
" style="fill:#1f77b4;"/>
   </g>
   <g id="patch_194">
    <path clip-path="url(#pa8a2a679e3)" d="M 756.710526 768.96 
L 758.265325 768.96 
L 758.265325 237.277307 
L 756.710526 237.277307 
z
" style="fill:#1f77b4;"/>
   </g>
   <g id="patch_195">
    <path clip-path="url(#pa8a2a679e3)" d="M 759.820124 768.96 
L 761.374923 768.96 
L 761.374923 236.437189 
L 759.820124 236.437189 
z
" style="fill:#1f77b4;"/>
   </g>
   <g id="patch_196">
    <path clip-path="url(#pa8a2a679e3)" d="M 762.929721 768.96 
L 764.48452 768.96 
L 764.48452 235.605368 
L 762.929721 235.605368 
z
" style="fill:#1f77b4;"/>
   </g>
   <g id="patch_197">
    <path clip-path="url(#pa8a2a679e3)" d="M 766.039319 768.96 
L 767.594118 768.96 
L 767.594118 234.764895 
L 766.039319 234.764895 
z
" style="fill:#1f77b4;"/>
   </g>
   <g id="patch_198">
    <path clip-path="url(#pa8a2a679e3)" d="M 769.148916 768.96 
L 770.703715 768.96 
L 770.703715 234.071674 
L 769.148916 234.071674 
z
" style="fill:#1f77b4;"/>
   </g>
   <g id="patch_199">
    <path clip-path="url(#pa8a2a679e3)" d="M 772.258514 768.96 
L 773.813313 768.96 
L 773.813313 233.600044 
L 772.258514 233.600044 
z
" style="fill:#1f77b4;"/>
   </g>
   <g id="patch_200">
    <path clip-path="url(#pa8a2a679e3)" d="M 775.368111 768.96 
L 776.92291 768.96 
L 776.92291 232.892339 
L 775.368111 232.892339 
z
" style="fill:#1f77b4;"/>
   </g>
   <g id="patch_201">
    <path clip-path="url(#pa8a2a679e3)" d="M 778.477709 768.96 
L 780.032508 768.96 
L 780.032508 231.945328 
L 778.477709 231.945328 
z
" style="fill:#1f77b4;"/>
   </g>
   <g id="patch_202">
    <path clip-path="url(#pa8a2a679e3)" d="M 781.587307 768.96 
L 783.142105 768.96 
L 783.142105 231.058445 
L 781.587307 231.058445 
z
" style="fill:#1f77b4;"/>
   </g>
   <g id="patch_203">
    <path clip-path="url(#pa8a2a679e3)" d="M 784.696904 768.96 
L 786.251703 768.96 
L 786.251703 230.415933 
L 784.696904 230.415933 
z
" style="fill:#1f77b4;"/>
   </g>
   <g id="patch_204">
    <path clip-path="url(#pa8a2a679e3)" d="M 787.806502 768.96 
L 789.3613 768.96 
L 789.3613 229.751297 
L 787.806502 229.751297 
z
" style="fill:#1f77b4;"/>
   </g>
   <g id="patch_205">
    <path clip-path="url(#pa8a2a679e3)" d="M 790.916099 768.96 
L 792.470898 768.96 
L 792.470898 229.342341 
L 790.916099 229.342341 
z
" style="fill:#1f77b4;"/>
   </g>
   <g id="patch_206">
    <path clip-path="url(#pa8a2a679e3)" d="M 794.025697 768.96 
L 795.580495 768.96 
L 795.580495 229.105308 
L 794.025697 229.105308 
z
" style="fill:#1f77b4;"/>
   </g>
   <g id="patch_207">
    <path clip-path="url(#pa8a2a679e3)" d="M 797.135294 768.96 
L 798.690093 768.96 
L 798.690093 228.703307 
L 797.135294 228.703307 
z
" style="fill:#1f77b4;"/>
   </g>
   <g id="patch_208">
    <path clip-path="url(#pa8a2a679e3)" d="M 800.244892 768.96 
L 801.79969 768.96 
L 801.79969 227.80172 
L 800.244892 227.80172 
z
" style="fill:#1f77b4;"/>
   </g>
   <g id="patch_209">
    <path clip-path="url(#pa8a2a679e3)" d="M 803.354489 768.96 
L 804.909288 768.96 
L 804.909288 226.304305 
L 803.354489 226.304305 
z
" style="fill:#1f77b4;"/>
   </g>
   <g id="patch_210">
    <path clip-path="url(#pa8a2a679e3)" d="M 806.464087 768.96 
L 808.018885 768.96 
L 808.018885 225.514239 
L 806.464087 225.514239 
z
" style="fill:#1f77b4;"/>
   </g>
   <g id="patch_211">
    <path clip-path="url(#pa8a2a679e3)" d="M 809.573684 768.96 
L 811.128483 768.96 
L 811.128483 223.64642 
L 809.573684 223.64642 
z
" style="fill:#1f77b4;"/>
   </g>
   <g id="patch_212">
    <path clip-path="url(#pa8a2a679e3)" d="M 812.683282 768.96 
L 814.23808 768.96 
L 814.23808 223.03285 
L 812.683282 223.03285 
z
" style="fill:#1f77b4;"/>
   </g>
   <g id="patch_213">
    <path clip-path="url(#pa8a2a679e3)" d="M 815.792879 768.96 
L 817.347678 768.96 
L 817.347678 222.580359 
L 815.792879 222.580359 
z
" style="fill:#1f77b4;"/>
   </g>
   <g id="patch_214">
    <path clip-path="url(#pa8a2a679e3)" d="M 818.902477 768.96 
L 820.457276 768.96 
L 820.457276 221.964132 
L 818.902477 221.964132 
z
" style="fill:#1f77b4;"/>
   </g>
   <g id="patch_215">
    <path clip-path="url(#pa8a2a679e3)" d="M 822.012074 768.96 
L 823.566873 768.96 
L 823.566873 221.122509 
L 822.012074 221.122509 
z
" style="fill:#1f77b4;"/>
   </g>
   <g id="patch_216">
    <path clip-path="url(#pa8a2a679e3)" d="M 825.121672 768.96 
L 826.676471 768.96 
L 826.676471 220.353279 
L 825.121672 220.353279 
z
" style="fill:#1f77b4;"/>
   </g>
   <g id="patch_217">
    <path clip-path="url(#pa8a2a679e3)" d="M 828.231269 768.96 
L 829.786068 768.96 
L 829.786068 219.546238 
L 828.231269 219.546238 
z
" style="fill:#1f77b4;"/>
   </g>
   <g id="patch_218">
    <path clip-path="url(#pa8a2a679e3)" d="M 831.340867 768.96 
L 832.895666 768.96 
L 832.895666 218.668171 
L 831.340867 218.668171 
z
" style="fill:#1f77b4;"/>
   </g>
   <g id="patch_219">
    <path clip-path="url(#pa8a2a679e3)" d="M 834.450464 768.96 
L 836.005263 768.96 
L 836.005263 217.164431 
L 834.450464 217.164431 
z
" style="fill:#1f77b4;"/>
   </g>
   <g id="patch_220">
    <path clip-path="url(#pa8a2a679e3)" d="M 837.560062 768.96 
L 839.114861 768.96 
L 839.114861 216.641983 
L 837.560062 216.641983 
z
" style="fill:#1f77b4;"/>
   </g>
   <g id="patch_221">
    <path clip-path="url(#pa8a2a679e3)" d="M 840.669659 768.96 
L 842.224458 768.96 
L 842.224458 216.04213 
L 840.669659 216.04213 
z
" style="fill:#1f77b4;"/>
   </g>
   <g id="patch_222">
    <path clip-path="url(#pa8a2a679e3)" d="M 843.779257 768.96 
L 845.334056 768.96 
L 845.334056 215.457719 
L 843.779257 215.457719 
z
" style="fill:#1f77b4;"/>
   </g>
   <g id="patch_223">
    <path clip-path="url(#pa8a2a679e3)" d="M 846.888854 768.96 
L 848.443653 768.96 
L 848.443653 213.200357 
L 846.888854 213.200357 
z
" style="fill:#1f77b4;"/>
   </g>
   <g id="patch_224">
    <path clip-path="url(#pa8a2a679e3)" d="M 849.998452 768.96 
L 851.553251 768.96 
L 851.553251 211.232216 
L 849.998452 211.232216 
z
" style="fill:#1f77b4;"/>
   </g>
   <g id="patch_225">
    <path clip-path="url(#pa8a2a679e3)" d="M 853.10805 768.96 
L 854.662848 768.96 
L 854.662848 209.59872 
L 853.10805 209.59872 
z
" style="fill:#1f77b4;"/>
   </g>
   <g id="patch_226">
    <path clip-path="url(#pa8a2a679e3)" d="M 856.217647 768.96 
L 857.772446 768.96 
L 857.772446 207.306913 
L 856.217647 207.306913 
z
" style="fill:#1f77b4;"/>
   </g>
   <g id="patch_227">
    <path clip-path="url(#pa8a2a679e3)" d="M 859.327245 768.96 
L 860.882043 768.96 
L 860.882043 205.746742 
L 859.327245 205.746742 
z
" style="fill:#1f77b4;"/>
   </g>
   <g id="patch_228">
    <path clip-path="url(#pa8a2a679e3)" d="M 862.436842 768.96 
L 863.991641 768.96 
L 863.991641 205.037038 
L 862.436842 205.037038 
z
" style="fill:#1f77b4;"/>
   </g>
   <g id="patch_229">
    <path clip-path="url(#pa8a2a679e3)" d="M 865.54644 768.96 
L 867.101238 768.96 
L 867.101238 204.021658 
L 865.54644 204.021658 
z
" style="fill:#1f77b4;"/>
   </g>
   <g id="patch_230">
    <path clip-path="url(#pa8a2a679e3)" d="M 868.656037 768.96 
L 870.210836 768.96 
L 870.210836 203.059094 
L 868.656037 203.059094 
z
" style="fill:#1f77b4;"/>
   </g>
   <g id="patch_231">
    <path clip-path="url(#pa8a2a679e3)" d="M 871.765635 768.96 
L 873.320433 768.96 
L 873.320433 202.14264 
L 871.765635 202.14264 
z
" style="fill:#1f77b4;"/>
   </g>
   <g id="patch_232">
    <path clip-path="url(#pa8a2a679e3)" d="M 874.875232 768.96 
L 876.430031 768.96 
L 876.430031 201.255401 
L 874.875232 201.255401 
z
" style="fill:#1f77b4;"/>
   </g>
   <g id="patch_233">
    <path clip-path="url(#pa8a2a679e3)" d="M 877.98483 768.96 
L 879.539628 768.96 
L 879.539628 200.370543 
L 877.98483 200.370543 
z
" style="fill:#1f77b4;"/>
   </g>
   <g id="patch_234">
    <path clip-path="url(#pa8a2a679e3)" d="M 881.094427 768.96 
L 882.649226 768.96 
L 882.649226 199.784572 
L 881.094427 199.784572 
z
" style="fill:#1f77b4;"/>
   </g>
   <g id="patch_235">
    <path clip-path="url(#pa8a2a679e3)" d="M 884.204025 768.96 
L 885.758824 768.96 
L 885.758824 199.047077 
L 884.204025 199.047077 
z
" style="fill:#1f77b4;"/>
   </g>
   <g id="patch_236">
    <path clip-path="url(#pa8a2a679e3)" d="M 887.313622 768.96 
L 888.868421 768.96 
L 888.868421 198.025043 
L 887.313622 198.025043 
z
" style="fill:#1f77b4;"/>
   </g>
   <g id="patch_237">
    <path clip-path="url(#pa8a2a679e3)" d="M 890.42322 768.96 
L 891.978019 768.96 
L 891.978019 197.046107 
L 890.42322 197.046107 
z
" style="fill:#1f77b4;"/>
   </g>
   <g id="patch_238">
    <path clip-path="url(#pa8a2a679e3)" d="M 893.532817 768.96 
L 895.087616 768.96 
L 895.087616 195.98103 
L 893.532817 195.98103 
z
" style="fill:#1f77b4;"/>
   </g>
   <g id="patch_239">
    <path clip-path="url(#pa8a2a679e3)" d="M 896.642415 768.96 
L 898.197214 768.96 
L 898.197214 194.77489 
L 896.642415 194.77489 
z
" style="fill:#1f77b4;"/>
   </g>
   <g id="patch_240">
    <path clip-path="url(#pa8a2a679e3)" d="M 899.752012 768.96 
L 901.306811 768.96 
L 901.306811 193.006681 
L 899.752012 193.006681 
z
" style="fill:#1f77b4;"/>
   </g>
   <g id="patch_241">
    <path clip-path="url(#pa8a2a679e3)" d="M 902.86161 768.96 
L 904.416409 768.96 
L 904.416409 190.193905 
L 902.86161 190.193905 
z
" style="fill:#1f77b4;"/>
   </g>
   <g id="patch_242">
    <path clip-path="url(#pa8a2a679e3)" d="M 905.971207 768.96 
L 907.526006 768.96 
L 907.526006 188.94171 
L 905.971207 188.94171 
z
" style="fill:#1f77b4;"/>
   </g>
   <g id="patch_243">
    <path clip-path="url(#pa8a2a679e3)" d="M 909.080805 768.96 
L 910.635604 768.96 
L 910.635604 187.92006 
L 909.080805 187.92006 
z
" style="fill:#1f77b4;"/>
   </g>
   <g id="patch_244">
    <path clip-path="url(#pa8a2a679e3)" d="M 912.190402 768.96 
L 913.745201 768.96 
L 913.745201 186.969653 
L 912.190402 186.969653 
z
" style="fill:#1f77b4;"/>
   </g>
   <g id="patch_245">
    <path clip-path="url(#pa8a2a679e3)" d="M 915.3 768.96 
L 916.854799 768.96 
L 916.854799 186.085754 
L 915.3 186.085754 
z
" style="fill:#1f77b4;"/>
   </g>
   <g id="patch_246">
    <path clip-path="url(#pa8a2a679e3)" d="M 918.409598 768.96 
L 919.964396 768.96 
L 919.964396 185.197283 
L 918.409598 185.197283 
z
" style="fill:#1f77b4;"/>
   </g>
   <g id="patch_247">
    <path clip-path="url(#pa8a2a679e3)" d="M 921.519195 768.96 
L 923.073994 768.96 
L 923.073994 184.393226 
L 921.519195 184.393226 
z
" style="fill:#1f77b4;"/>
   </g>
   <g id="patch_248">
    <path clip-path="url(#pa8a2a679e3)" d="M 924.628793 768.96 
L 926.183591 768.96 
L 926.183591 183.847039 
L 924.628793 183.847039 
z
" style="fill:#1f77b4;"/>
   </g>
   <g id="patch_249">
    <path clip-path="url(#pa8a2a679e3)" d="M 927.73839 768.96 
L 929.293189 768.96 
L 929.293189 183.461055 
L 927.73839 183.461055 
z
" style="fill:#1f77b4;"/>
   </g>
   <g id="patch_250">
    <path clip-path="url(#pa8a2a679e3)" d="M 930.847988 768.96 
L 932.402786 768.96 
L 932.402786 182.9693 
L 930.847988 182.9693 
z
" style="fill:#1f77b4;"/>
   </g>
   <g id="patch_251">
    <path clip-path="url(#pa8a2a679e3)" d="M 933.957585 768.96 
L 935.512384 768.96 
L 935.512384 181.976482 
L 933.957585 181.976482 
z
" style="fill:#1f77b4;"/>
   </g>
   <g id="patch_252">
    <path clip-path="url(#pa8a2a679e3)" d="M 937.067183 768.96 
L 938.621981 768.96 
L 938.621981 181.098114 
L 937.067183 181.098114 
z
" style="fill:#1f77b4;"/>
   </g>
   <g id="patch_253">
    <path clip-path="url(#pa8a2a679e3)" d="M 940.17678 768.96 
L 941.731579 768.96 
L 941.731579 180.261419 
L 940.17678 180.261419 
z
" style="fill:#1f77b4;"/>
   </g>
   <g id="patch_254">
    <path clip-path="url(#pa8a2a679e3)" d="M 943.286378 768.96 
L 944.841176 768.96 
L 944.841176 179.514915 
L 943.286378 179.514915 
z
" style="fill:#1f77b4;"/>
   </g>
   <g id="patch_255">
    <path clip-path="url(#pa8a2a679e3)" d="M 946.395975 768.96 
L 947.950774 768.96 
L 947.950774 178.962787 
L 946.395975 178.962787 
z
" style="fill:#1f77b4;"/>
   </g>
   <g id="patch_256">
    <path clip-path="url(#pa8a2a679e3)" d="M 949.505573 768.96 
L 951.060372 768.96 
L 951.060372 178.331802 
L 949.505573 178.331802 
z
" style="fill:#1f77b4;"/>
   </g>
   <g id="patch_257">
    <path clip-path="url(#pa8a2a679e3)" d="M 952.61517 768.96 
L 954.169969 768.96 
L 954.169969 177.465372 
L 952.61517 177.465372 
z
" style="fill:#1f77b4;"/>
   </g>
   <g id="patch_258">
    <path clip-path="url(#pa8a2a679e3)" d="M 955.724768 768.96 
L 957.279567 768.96 
L 957.279567 176.641436 
L 955.724768 176.641436 
z
" style="fill:#1f77b4;"/>
   </g>
   <g id="patch_259">
    <path clip-path="url(#pa8a2a679e3)" d="M 958.834365 768.96 
L 960.389164 768.96 
L 960.389164 175.814763 
L 958.834365 175.814763 
z
" style="fill:#1f77b4;"/>
   </g>
   <g id="patch_260">
    <path clip-path="url(#pa8a2a679e3)" d="M 961.943963 768.96 
L 963.498762 768.96 
L 963.498762 174.958491 
L 961.943963 174.958491 
z
" style="fill:#1f77b4;"/>
   </g>
   <g id="patch_261">
    <path clip-path="url(#pa8a2a679e3)" d="M 965.05356 768.96 
L 966.608359 768.96 
L 966.608359 174.131352 
L 965.05356 174.131352 
z
" style="fill:#1f77b4;"/>
   </g>
   <g id="patch_262">
    <path clip-path="url(#pa8a2a679e3)" d="M 968.163158 768.96 
L 969.717957 768.96 
L 969.717957 173.53796 
L 968.163158 173.53796 
z
" style="fill:#1f77b4;"/>
   </g>
   <g id="patch_263">
    <path clip-path="url(#pa8a2a679e3)" d="M 971.272755 768.96 
L 972.827554 768.96 
L 972.827554 172.970416 
L 971.272755 172.970416 
z
" style="fill:#1f77b4;"/>
   </g>
   <g id="patch_264">
    <path clip-path="url(#pa8a2a679e3)" d="M 974.382353 768.96 
L 975.937152 768.96 
L 975.937152 172.00517 
L 974.382353 172.00517 
z
" style="fill:#1f77b4;"/>
   </g>
   <g id="patch_265">
    <path clip-path="url(#pa8a2a679e3)" d="M 977.49195 768.96 
L 979.046749 768.96 
L 979.046749 171.299956 
L 977.49195 171.299956 
z
" style="fill:#1f77b4;"/>
   </g>
   <g id="patch_266">
    <path clip-path="url(#pa8a2a679e3)" d="M 980.601548 768.96 
L 982.156347 768.96 
L 982.156347 170.270256 
L 980.601548 170.270256 
z
" style="fill:#1f77b4;"/>
   </g>
   <g id="patch_267">
    <path clip-path="url(#pa8a2a679e3)" d="M 983.711146 768.96 
L 985.265944 768.96 
L 985.265944 169.285076 
L 983.711146 169.285076 
z
" style="fill:#1f77b4;"/>
   </g>
   <g id="patch_268">
    <path clip-path="url(#pa8a2a679e3)" d="M 986.820743 768.96 
L 988.375542 768.96 
L 988.375542 168.504594 
L 986.820743 168.504594 
z
" style="fill:#1f77b4;"/>
   </g>
   <g id="patch_269">
    <path clip-path="url(#pa8a2a679e3)" d="M 989.930341 768.96 
L 991.485139 768.96 
L 991.485139 167.995781 
L 989.930341 167.995781 
z
" style="fill:#1f77b4;"/>
   </g>
   <g id="patch_270">
    <path clip-path="url(#pa8a2a679e3)" d="M 993.039938 768.96 
L 994.594737 768.96 
L 994.594737 167.347547 
L 993.039938 167.347547 
z
" style="fill:#1f77b4;"/>
   </g>
   <g id="patch_271">
    <path clip-path="url(#pa8a2a679e3)" d="M 996.149536 768.96 
L 997.704334 768.96 
L 997.704334 166.587079 
L 996.149536 166.587079 
z
" style="fill:#1f77b4;"/>
   </g>
   <g id="patch_272">
    <path clip-path="url(#pa8a2a679e3)" d="M 999.259133 768.96 
L 1000.813932 768.96 
L 1000.813932 166.028133 
L 999.259133 166.028133 
z
" style="fill:#1f77b4;"/>
   </g>
   <g id="patch_273">
    <path clip-path="url(#pa8a2a679e3)" d="M 1002.368731 768.96 
L 1003.923529 768.96 
L 1003.923529 165.64015 
L 1002.368731 165.64015 
z
" style="fill:#1f77b4;"/>
   </g>
   <g id="patch_274">
    <path clip-path="url(#pa8a2a679e3)" d="M 1005.478328 768.96 
L 1007.033127 768.96 
L 1007.033127 164.674493 
L 1005.478328 164.674493 
z
" style="fill:#1f77b4;"/>
   </g>
   <g id="patch_275">
    <path clip-path="url(#pa8a2a679e3)" d="M 1008.587926 768.96 
L 1010.142724 768.96 
L 1010.142724 163.421367 
L 1008.587926 163.421367 
z
" style="fill:#1f77b4;"/>
   </g>
   <g id="patch_276">
    <path clip-path="url(#pa8a2a679e3)" d="M 1011.697523 768.96 
L 1013.252322 768.96 
L 1013.252322 162.999597 
L 1011.697523 162.999597 
z
" style="fill:#1f77b4;"/>
   </g>
   <g id="patch_277">
    <path clip-path="url(#pa8a2a679e3)" d="M 1014.807121 768.96 
L 1016.36192 768.96 
L 1016.36192 162.180481 
L 1014.807121 162.180481 
z
" style="fill:#1f77b4;"/>
   </g>
   <g id="patch_278">
    <path clip-path="url(#pa8a2a679e3)" d="M 1017.916718 768.96 
L 1019.471517 768.96 
L 1019.471517 161.710904 
L 1017.916718 161.710904 
z
" style="fill:#1f77b4;"/>
   </g>
   <g id="patch_279">
    <path clip-path="url(#pa8a2a679e3)" d="M 1021.026316 768.96 
L 1022.581115 768.96 
L 1022.581115 160.750723 
L 1021.026316 160.750723 
z
" style="fill:#1f77b4;"/>
   </g>
   <g id="patch_280">
    <path clip-path="url(#pa8a2a679e3)" d="M 1024.135913 768.96 
L 1025.690712 768.96 
L 1025.690712 160.082145 
L 1024.135913 160.082145 
z
" style="fill:#1f77b4;"/>
   </g>
   <g id="patch_281">
    <path clip-path="url(#pa8a2a679e3)" d="M 1027.245511 768.96 
L 1028.80031 768.96 
L 1028.80031 159.43747 
L 1027.245511 159.43747 
z
" style="fill:#1f77b4;"/>
   </g>
   <g id="patch_282">
    <path clip-path="url(#pa8a2a679e3)" d="M 1030.355108 768.96 
L 1031.909907 768.96 
L 1031.909907 158.99897 
L 1030.355108 158.99897 
z
" style="fill:#1f77b4;"/>
   </g>
   <g id="patch_283">
    <path clip-path="url(#pa8a2a679e3)" d="M 1033.464706 768.96 
L 1035.019505 768.96 
L 1035.019505 158.684368 
L 1033.464706 158.684368 
z
" style="fill:#1f77b4;"/>
   </g>
   <g id="patch_284">
    <path clip-path="url(#pa8a2a679e3)" d="M 1036.574303 768.96 
L 1038.129102 768.96 
L 1038.129102 158.235217 
L 1036.574303 158.235217 
z
" style="fill:#1f77b4;"/>
   </g>
   <g id="patch_285">
    <path clip-path="url(#pa8a2a679e3)" d="M 1039.683901 768.96 
L 1041.2387 768.96 
L 1041.2387 157.582301 
L 1039.683901 157.582301 
z
" style="fill:#1f77b4;"/>
   </g>
   <g id="patch_286">
    <path clip-path="url(#pa8a2a679e3)" d="M 1042.793498 768.96 
L 1044.348297 768.96 
L 1044.348297 156.859755 
L 1042.793498 156.859755 
z
" style="fill:#1f77b4;"/>
   </g>
   <g id="patch_287">
    <path clip-path="url(#pa8a2a679e3)" d="M 1045.903096 768.96 
L 1047.457895 768.96 
L 1047.457895 156.336486 
L 1045.903096 156.336486 
z
" style="fill:#1f77b4;"/>
   </g>
   <g id="patch_288">
    <path clip-path="url(#pa8a2a679e3)" d="M 1049.012693 768.96 
L 1050.567492 768.96 
L 1050.567492 155.463922 
L 1049.012693 155.463922 
z
" style="fill:#1f77b4;"/>
   </g>
   <g id="patch_289">
    <path clip-path="url(#pa8a2a679e3)" d="M 1052.122291 768.96 
L 1053.67709 768.96 
L 1053.67709 154.953494 
L 1052.122291 154.953494 
z
" style="fill:#1f77b4;"/>
   </g>
   <g id="patch_290">
    <path clip-path="url(#pa8a2a679e3)" d="M 1055.231889 768.96 
L 1056.786687 768.96 
L 1056.786687 154.654663 
L 1055.231889 154.654663 
z
" style="fill:#1f77b4;"/>
   </g>
   <g id="patch_291">
    <path clip-path="url(#pa8a2a679e3)" d="M 1058.341486 768.96 
L 1059.896285 768.96 
L 1059.896285 154.165016 
L 1058.341486 154.165016 
z
" style="fill:#1f77b4;"/>
   </g>
   <g id="patch_292">
    <path clip-path="url(#pa8a2a679e3)" d="M 1061.451084 768.96 
L 1063.005882 768.96 
L 1063.005882 153.580168 
L 1061.451084 153.580168 
z
" style="fill:#1f77b4;"/>
   </g>
   <g id="patch_293">
    <path clip-path="url(#pa8a2a679e3)" d="M 1064.560681 768.96 
L 1066.11548 768.96 
L 1066.11548 152.979247 
L 1064.560681 152.979247 
z
" style="fill:#1f77b4;"/>
   </g>
   <g id="patch_294">
    <path clip-path="url(#pa8a2a679e3)" d="M 1067.670279 768.96 
L 1069.225077 768.96 
L 1069.225077 152.28849 
L 1067.670279 152.28849 
z
" style="fill:#1f77b4;"/>
   </g>
   <g id="patch_295">
    <path clip-path="url(#pa8a2a679e3)" d="M 1070.779876 768.96 
L 1072.334675 768.96 
L 1072.334675 151.680396 
L 1070.779876 151.680396 
z
" style="fill:#1f77b4;"/>
   </g>
   <g id="patch_296">
    <path clip-path="url(#pa8a2a679e3)" d="M 1073.889474 768.96 
L 1075.444272 768.96 
L 1075.444272 151.244196 
L 1073.889474 151.244196 
z
" style="fill:#1f77b4;"/>
   </g>
   <g id="patch_297">
    <path clip-path="url(#pa8a2a679e3)" d="M 1076.999071 768.96 
L 1078.55387 768.96 
L 1078.55387 150.881349 
L 1076.999071 150.881349 
z
" style="fill:#1f77b4;"/>
   </g>
   <g id="patch_298">
    <path clip-path="url(#pa8a2a679e3)" d="M 1080.108669 768.96 
L 1081.663467 768.96 
L 1081.663467 150.400903 
L 1080.108669 150.400903 
z
" style="fill:#1f77b4;"/>
   </g>
   <g id="patch_299">
    <path clip-path="url(#pa8a2a679e3)" d="M 1083.218266 768.96 
L 1084.773065 768.96 
L 1084.773065 149.673456 
L 1083.218266 149.673456 
z
" style="fill:#1f77b4;"/>
   </g>
   <g id="patch_300">
    <path clip-path="url(#pa8a2a679e3)" d="M 1086.327864 768.96 
L 1087.882663 768.96 
L 1087.882663 149.087458 
L 1086.327864 149.087458 
z
" style="fill:#1f77b4;"/>
   </g>
   <g id="patch_301">
    <path clip-path="url(#pa8a2a679e3)" d="M 1089.437461 768.96 
L 1090.99226 768.96 
L 1090.99226 148.527361 
L 1089.437461 148.527361 
z
" style="fill:#1f77b4;"/>
   </g>
   <g id="patch_302">
    <path clip-path="url(#pa8a2a679e3)" d="M 1092.547059 768.96 
L 1094.101858 768.96 
L 1094.101858 146.834148 
L 1092.547059 146.834148 
z
" style="fill:#1f77b4;"/>
   </g>
   <g id="patch_303">
    <path clip-path="url(#pa8a2a679e3)" d="M 1095.656656 768.96 
L 1097.211455 768.96 
L 1097.211455 146.35633 
L 1095.656656 146.35633 
z
" style="fill:#1f77b4;"/>
   </g>
   <g id="patch_304">
    <path clip-path="url(#pa8a2a679e3)" d="M 1098.766254 768.96 
L 1100.321053 768.96 
L 1100.321053 146.034061 
L 1098.766254 146.034061 
z
" style="fill:#1f77b4;"/>
   </g>
   <g id="patch_305">
    <path clip-path="url(#pa8a2a679e3)" d="M 1101.875851 768.96 
L 1103.43065 768.96 
L 1103.43065 145.648077 
L 1101.875851 145.648077 
z
" style="fill:#1f77b4;"/>
   </g>
   <g id="patch_306">
    <path clip-path="url(#pa8a2a679e3)" d="M 1104.985449 768.96 
L 1106.540248 768.96 
L 1106.540248 145.13524 
L 1104.985449 145.13524 
z
" style="fill:#1f77b4;"/>
   </g>
   <g id="patch_307">
    <path clip-path="url(#pa8a2a679e3)" d="M 1108.095046 768.96 
L 1109.649845 768.96 
L 1109.649845 144.822061 
L 1108.095046 144.822061 
z
" style="fill:#1f77b4;"/>
   </g>
   <g id="patch_308">
    <path clip-path="url(#pa8a2a679e3)" d="M 1111.204644 768.96 
L 1112.759443 768.96 
L 1112.759443 144.335043 
L 1111.204644 144.335043 
z
" style="fill:#1f77b4;"/>
   </g>
   <g id="patch_309">
    <path clip-path="url(#pa8a2a679e3)" d="M 1114.314241 768.96 
L 1115.86904 768.96 
L 1115.86904 143.733821 
L 1114.314241 143.733821 
z
" style="fill:#1f77b4;"/>
   </g>
   <g id="patch_310">
    <path clip-path="url(#pa8a2a679e3)" d="M 1117.423839 768.96 
L 1118.978638 768.96 
L 1118.978638 143.026609 
L 1117.423839 143.026609 
z
" style="fill:#1f77b4;"/>
   </g>
   <g id="patch_311">
    <path clip-path="url(#pa8a2a679e3)" d="M 1120.533437 768.96 
L 1122.088235 768.96 
L 1122.088235 142.808085 
L 1120.533437 142.808085 
z
" style="fill:#1f77b4;"/>
   </g>
   <g id="patch_312">
    <path clip-path="url(#pa8a2a679e3)" d="M 1123.643034 768.96 
L 1125.197833 768.96 
L 1125.197833 142.450768 
L 1123.643034 142.450768 
z
" style="fill:#1f77b4;"/>
   </g>
   <g id="patch_313">
    <path clip-path="url(#pa8a2a679e3)" d="M 1126.752632 768.96 
L 1128.30743 768.96 
L 1128.30743 141.693313 
L 1126.752632 141.693313 
z
" style="fill:#1f77b4;"/>
   </g>
   <g id="patch_314">
    <path clip-path="url(#pa8a2a679e3)" d="M 1129.862229 768.96 
L 1131.417028 768.96 
L 1131.417028 141.056441 
L 1129.862229 141.056441 
z
" style="fill:#1f77b4;"/>
   </g>
   <g id="patch_315">
    <path clip-path="url(#pa8a2a679e3)" d="M 1132.971827 768.96 
L 1134.526625 768.96 
L 1134.526625 140.456835 
L 1132.971827 140.456835 
z
" style="fill:#1f77b4;"/>
   </g>
   <g id="patch_316">
    <path clip-path="url(#pa8a2a679e3)" d="M 1136.081424 768.96 
L 1137.636223 768.96 
L 1137.636223 139.834393 
L 1136.081424 139.834393 
z
" style="fill:#1f77b4;"/>
   </g>
   <g id="patch_317">
    <path clip-path="url(#pa8a2a679e3)" d="M 1139.191022 768.96 
L 1140.74582 768.96 
L 1140.74582 139.333548 
L 1139.191022 139.333548 
z
" style="fill:#1f77b4;"/>
   </g>
   <g id="patch_318">
    <path clip-path="url(#pa8a2a679e3)" d="M 1142.300619 768.96 
L 1143.855418 768.96 
L 1143.855418 139.054458 
L 1142.300619 139.054458 
z
" style="fill:#1f77b4;"/>
   </g>
   <g id="patch_319">
    <path clip-path="url(#pa8a2a679e3)" d="M 1145.410217 768.96 
L 1146.965015 768.96 
L 1146.965015 138.605663 
L 1145.410217 138.605663 
z
" style="fill:#1f77b4;"/>
   </g>
   <g id="patch_320">
    <path clip-path="url(#pa8a2a679e3)" d="M 1148.519814 768.96 
L 1150.074613 768.96 
L 1150.074613 138.00017 
L 1148.519814 138.00017 
z
" style="fill:#1f77b4;"/>
   </g>
   <g id="patch_321">
    <path clip-path="url(#pa8a2a679e3)" d="M 1151.629412 768.96 
L 1153.184211 768.96 
L 1153.184211 137.401905 
L 1151.629412 137.401905 
z
" style="fill:#1f77b4;"/>
   </g>
   <g id="patch_322">
    <path clip-path="url(#pa8a2a679e3)" d="M 1154.739009 768.96 
L 1156.293808 768.96 
L 1156.293808 136.800874 
L 1154.739009 136.800874 
z
" style="fill:#1f77b4;"/>
   </g>
   <g id="patch_323">
    <path clip-path="url(#pa8a2a679e3)" d="M 1157.848607 768.96 
L 1159.403406 768.96 
L 1159.403406 136.151763 
L 1157.848607 136.151763 
z
" style="fill:#1f77b4;"/>
   </g>
   <g id="patch_324">
    <path clip-path="url(#pa8a2a679e3)" d="M 1160.958204 768.96 
L 1162.513003 768.96 
L 1162.513003 135.652068 
L 1160.958204 135.652068 
z
" style="fill:#1f77b4;"/>
   </g>
   <g id="patch_325">
    <path clip-path="url(#pa8a2a679e3)" d="M 1164.067802 768.96 
L 1165.622601 768.96 
L 1165.622601 135.36 
L 1164.067802 135.36 
z
" style="fill:#1f77b4;"/>
   </g>
   <g id="matplotlib.axis_1">
    <g id="xtick_1">
     <g id="line2d_1">
      <defs>
       <path d="M 0 0 
L 0 3.5 
" id="m59c5644516" style="stroke:#000000;stroke-width:0.8;"/>
      </defs>
      <g>
       <use style="stroke:#000000;stroke-width:0.8;" x="163.554799" xlink:href="#m59c5644516" y="768.96"/>
      </g>
     </g>
     <g id="text_1">
      <!-- January -->
      <g transform="translate(144.59933 783.558437)scale(0.1 -0.1)">
       <defs>
        <path d="M 628 4666 
L 1259 4666 
L 1259 325 
Q 1259 -519 939 -900 
Q 619 -1281 -91 -1281 
L -331 -1281 
L -331 -750 
L -134 -750 
Q 284 -750 456 -515 
Q 628 -281 628 325 
L 628 4666 
z
" id="DejaVuSans-4a" transform="scale(0.015625)"/>
        <path d="M 2194 1759 
Q 1497 1759 1228 1600 
Q 959 1441 959 1056 
Q 959 750 1161 570 
Q 1363 391 1709 391 
Q 2188 391 2477 730 
Q 2766 1069 2766 1631 
L 2766 1759 
L 2194 1759 
z
M 3341 1997 
L 3341 0 
L 2766 0 
L 2766 531 
Q 2569 213 2275 61 
Q 1981 -91 1556 -91 
Q 1019 -91 701 211 
Q 384 513 384 1019 
Q 384 1609 779 1909 
Q 1175 2209 1959 2209 
L 2766 2209 
L 2766 2266 
Q 2766 2663 2505 2880 
Q 2244 3097 1772 3097 
Q 1472 3097 1187 3025 
Q 903 2953 641 2809 
L 641 3341 
Q 956 3463 1253 3523 
Q 1550 3584 1831 3584 
Q 2591 3584 2966 3190 
Q 3341 2797 3341 1997 
z
" id="DejaVuSans-61" transform="scale(0.015625)"/>
        <path d="M 3513 2113 
L 3513 0 
L 2938 0 
L 2938 2094 
Q 2938 2591 2744 2837 
Q 2550 3084 2163 3084 
Q 1697 3084 1428 2787 
Q 1159 2491 1159 1978 
L 1159 0 
L 581 0 
L 581 3500 
L 1159 3500 
L 1159 2956 
Q 1366 3272 1645 3428 
Q 1925 3584 2291 3584 
Q 2894 3584 3203 3211 
Q 3513 2838 3513 2113 
z
" id="DejaVuSans-6e" transform="scale(0.015625)"/>
        <path d="M 544 1381 
L 544 3500 
L 1119 3500 
L 1119 1403 
Q 1119 906 1312 657 
Q 1506 409 1894 409 
Q 2359 409 2629 706 
Q 2900 1003 2900 1516 
L 2900 3500 
L 3475 3500 
L 3475 0 
L 2900 0 
L 2900 538 
Q 2691 219 2414 64 
Q 2138 -91 1772 -91 
Q 1169 -91 856 284 
Q 544 659 544 1381 
z
M 1991 3584 
L 1991 3584 
z
" id="DejaVuSans-75" transform="scale(0.015625)"/>
        <path d="M 2631 2963 
Q 2534 3019 2420 3045 
Q 2306 3072 2169 3072 
Q 1681 3072 1420 2755 
Q 1159 2438 1159 1844 
L 1159 0 
L 581 0 
L 581 3500 
L 1159 3500 
L 1159 2956 
Q 1341 3275 1631 3429 
Q 1922 3584 2338 3584 
Q 2397 3584 2469 3576 
Q 2541 3569 2628 3553 
L 2631 2963 
z
" id="DejaVuSans-72" transform="scale(0.015625)"/>
        <path d="M 2059 -325 
Q 1816 -950 1584 -1140 
Q 1353 -1331 966 -1331 
L 506 -1331 
L 506 -850 
L 844 -850 
Q 1081 -850 1212 -737 
Q 1344 -625 1503 -206 
L 1606 56 
L 191 3500 
L 800 3500 
L 1894 763 
L 2988 3500 
L 3597 3500 
L 2059 -325 
z
" id="DejaVuSans-79" transform="scale(0.015625)"/>
       </defs>
       <use xlink:href="#DejaVuSans-4a"/>
       <use x="29.492188" xlink:href="#DejaVuSans-61"/>
       <use x="90.771484" xlink:href="#DejaVuSans-6e"/>
       <use x="154.150391" xlink:href="#DejaVuSans-75"/>
       <use x="217.529297" xlink:href="#DejaVuSans-61"/>
       <use x="278.808594" xlink:href="#DejaVuSans-72"/>
       <use x="319.921875" xlink:href="#DejaVuSans-79"/>
      </g>
     </g>
    </g>
    <g id="xtick_2">
     <g id="line2d_2">
      <g>
       <use style="stroke:#000000;stroke-width:0.8;" x="259.952322" xlink:href="#m59c5644516" y="768.96"/>
      </g>
     </g>
     <g id="text_2">
      <!-- February -->
      <g transform="translate(237.797634 783.558437)scale(0.1 -0.1)">
       <defs>
        <path d="M 628 4666 
L 3309 4666 
L 3309 4134 
L 1259 4134 
L 1259 2759 
L 3109 2759 
L 3109 2228 
L 1259 2228 
L 1259 0 
L 628 0 
L 628 4666 
z
" id="DejaVuSans-46" transform="scale(0.015625)"/>
        <path d="M 3597 1894 
L 3597 1613 
L 953 1613 
Q 991 1019 1311 708 
Q 1631 397 2203 397 
Q 2534 397 2845 478 
Q 3156 559 3463 722 
L 3463 178 
Q 3153 47 2828 -22 
Q 2503 -91 2169 -91 
Q 1331 -91 842 396 
Q 353 884 353 1716 
Q 353 2575 817 3079 
Q 1281 3584 2069 3584 
Q 2775 3584 3186 3129 
Q 3597 2675 3597 1894 
z
M 3022 2063 
Q 3016 2534 2758 2815 
Q 2500 3097 2075 3097 
Q 1594 3097 1305 2825 
Q 1016 2553 972 2059 
L 3022 2063 
z
" id="DejaVuSans-65" transform="scale(0.015625)"/>
        <path d="M 3116 1747 
Q 3116 2381 2855 2742 
Q 2594 3103 2138 3103 
Q 1681 3103 1420 2742 
Q 1159 2381 1159 1747 
Q 1159 1113 1420 752 
Q 1681 391 2138 391 
Q 2594 391 2855 752 
Q 3116 1113 3116 1747 
z
M 1159 2969 
Q 1341 3281 1617 3432 
Q 1894 3584 2278 3584 
Q 2916 3584 3314 3078 
Q 3713 2572 3713 1747 
Q 3713 922 3314 415 
Q 2916 -91 2278 -91 
Q 1894 -91 1617 61 
Q 1341 213 1159 525 
L 1159 0 
L 581 0 
L 581 4863 
L 1159 4863 
L 1159 2969 
z
" id="DejaVuSans-62" transform="scale(0.015625)"/>
       </defs>
       <use xlink:href="#DejaVuSans-46"/>
       <use x="52.019531" xlink:href="#DejaVuSans-65"/>
       <use x="113.542969" xlink:href="#DejaVuSans-62"/>
       <use x="177.019531" xlink:href="#DejaVuSans-72"/>
       <use x="218.132812" xlink:href="#DejaVuSans-75"/>
       <use x="281.511719" xlink:href="#DejaVuSans-61"/>
       <use x="342.791016" xlink:href="#DejaVuSans-72"/>
       <use x="383.904297" xlink:href="#DejaVuSans-79"/>
      </g>
     </g>
    </g>
    <g id="xtick_3">
     <g id="line2d_3">
      <g>
       <use style="stroke:#000000;stroke-width:0.8;" x="347.021053" xlink:href="#m59c5644516" y="768.96"/>
      </g>
     </g>
     <g id="text_3">
      <!-- March -->
      <g transform="translate(331.78199 783.558437)scale(0.1 -0.1)">
       <defs>
        <path d="M 628 4666 
L 1569 4666 
L 2759 1491 
L 3956 4666 
L 4897 4666 
L 4897 0 
L 4281 0 
L 4281 4097 
L 3078 897 
L 2444 897 
L 1241 4097 
L 1241 0 
L 628 0 
L 628 4666 
z
" id="DejaVuSans-4d" transform="scale(0.015625)"/>
        <path d="M 3122 3366 
L 3122 2828 
Q 2878 2963 2633 3030 
Q 2388 3097 2138 3097 
Q 1578 3097 1268 2742 
Q 959 2388 959 1747 
Q 959 1106 1268 751 
Q 1578 397 2138 397 
Q 2388 397 2633 464 
Q 2878 531 3122 666 
L 3122 134 
Q 2881 22 2623 -34 
Q 2366 -91 2075 -91 
Q 1284 -91 818 406 
Q 353 903 353 1747 
Q 353 2603 823 3093 
Q 1294 3584 2113 3584 
Q 2378 3584 2631 3529 
Q 2884 3475 3122 3366 
z
" id="DejaVuSans-63" transform="scale(0.015625)"/>
        <path d="M 3513 2113 
L 3513 0 
L 2938 0 
L 2938 2094 
Q 2938 2591 2744 2837 
Q 2550 3084 2163 3084 
Q 1697 3084 1428 2787 
Q 1159 2491 1159 1978 
L 1159 0 
L 581 0 
L 581 4863 
L 1159 4863 
L 1159 2956 
Q 1366 3272 1645 3428 
Q 1925 3584 2291 3584 
Q 2894 3584 3203 3211 
Q 3513 2838 3513 2113 
z
" id="DejaVuSans-68" transform="scale(0.015625)"/>
       </defs>
       <use xlink:href="#DejaVuSans-4d"/>
       <use x="86.279297" xlink:href="#DejaVuSans-61"/>
       <use x="147.558594" xlink:href="#DejaVuSans-72"/>
       <use x="186.421875" xlink:href="#DejaVuSans-63"/>
       <use x="241.402344" xlink:href="#DejaVuSans-68"/>
      </g>
     </g>
    </g>
    <g id="xtick_4">
     <g id="line2d_4">
      <g>
       <use style="stroke:#000000;stroke-width:0.8;" x="443.418576" xlink:href="#m59c5644516" y="768.96"/>
      </g>
     </g>
     <g id="text_4">
      <!-- April -->
      <g transform="translate(431.990451 783.558437)scale(0.1 -0.1)">
       <defs>
        <path d="M 2188 4044 
L 1331 1722 
L 3047 1722 
L 2188 4044 
z
M 1831 4666 
L 2547 4666 
L 4325 0 
L 3669 0 
L 3244 1197 
L 1141 1197 
L 716 0 
L 50 0 
L 1831 4666 
z
" id="DejaVuSans-41" transform="scale(0.015625)"/>
        <path d="M 1159 525 
L 1159 -1331 
L 581 -1331 
L 581 3500 
L 1159 3500 
L 1159 2969 
Q 1341 3281 1617 3432 
Q 1894 3584 2278 3584 
Q 2916 3584 3314 3078 
Q 3713 2572 3713 1747 
Q 3713 922 3314 415 
Q 2916 -91 2278 -91 
Q 1894 -91 1617 61 
Q 1341 213 1159 525 
z
M 3116 1747 
Q 3116 2381 2855 2742 
Q 2594 3103 2138 3103 
Q 1681 3103 1420 2742 
Q 1159 2381 1159 1747 
Q 1159 1113 1420 752 
Q 1681 391 2138 391 
Q 2594 391 2855 752 
Q 3116 1113 3116 1747 
z
" id="DejaVuSans-70" transform="scale(0.015625)"/>
        <path d="M 603 3500 
L 1178 3500 
L 1178 0 
L 603 0 
L 603 3500 
z
M 603 4863 
L 1178 4863 
L 1178 4134 
L 603 4134 
L 603 4863 
z
" id="DejaVuSans-69" transform="scale(0.015625)"/>
        <path d="M 603 4863 
L 1178 4863 
L 1178 0 
L 603 0 
L 603 4863 
z
" id="DejaVuSans-6c" transform="scale(0.015625)"/>
       </defs>
       <use xlink:href="#DejaVuSans-41"/>
       <use x="68.408203" xlink:href="#DejaVuSans-70"/>
       <use x="131.884766" xlink:href="#DejaVuSans-72"/>
       <use x="172.998047" xlink:href="#DejaVuSans-69"/>
       <use x="200.78125" xlink:href="#DejaVuSans-6c"/>
      </g>
     </g>
    </g>
    <g id="xtick_5">
     <g id="line2d_5">
      <g>
       <use style="stroke:#000000;stroke-width:0.8;" x="536.706502" xlink:href="#m59c5644516" y="768.96"/>
      </g>
     </g>
     <g id="text_5">
      <!-- May -->
      <g transform="translate(526.369002 783.558437)scale(0.1 -0.1)">
       <use xlink:href="#DejaVuSans-4d"/>
       <use x="86.279297" xlink:href="#DejaVuSans-61"/>
       <use x="147.558594" xlink:href="#DejaVuSans-79"/>
      </g>
     </g>
    </g>
    <g id="xtick_6">
     <g id="line2d_6">
      <g>
       <use style="stroke:#000000;stroke-width:0.8;" x="633.104025" xlink:href="#m59c5644516" y="768.96"/>
      </g>
     </g>
     <g id="text_6">
      <!-- June -->
      <g transform="translate(622.214962 783.558437)scale(0.1 -0.1)">
       <use xlink:href="#DejaVuSans-4a"/>
       <use x="29.492188" xlink:href="#DejaVuSans-75"/>
       <use x="92.871094" xlink:href="#DejaVuSans-6e"/>
       <use x="156.25" xlink:href="#DejaVuSans-65"/>
      </g>
     </g>
    </g>
    <g id="xtick_7">
     <g id="line2d_7">
      <g>
       <use style="stroke:#000000;stroke-width:0.8;" x="726.39195" xlink:href="#m59c5644516" y="768.96"/>
      </g>
     </g>
     <g id="text_7">
      <!-- July -->
      <g transform="translate(717.399763 783.558437)scale(0.1 -0.1)">
       <use xlink:href="#DejaVuSans-4a"/>
       <use x="29.492188" xlink:href="#DejaVuSans-75"/>
       <use x="92.871094" xlink:href="#DejaVuSans-6c"/>
       <use x="120.654297" xlink:href="#DejaVuSans-79"/>
      </g>
     </g>
    </g>
    <g id="xtick_8">
     <g id="line2d_8">
      <g>
       <use style="stroke:#000000;stroke-width:0.8;" x="822.789474" xlink:href="#m59c5644516" y="768.96"/>
      </g>
     </g>
     <g id="text_8">
      <!-- August -->
      <g transform="translate(805.292599 783.558437)scale(0.1 -0.1)">
       <defs>
        <path d="M 2906 1791 
Q 2906 2416 2648 2759 
Q 2391 3103 1925 3103 
Q 1463 3103 1205 2759 
Q 947 2416 947 1791 
Q 947 1169 1205 825 
Q 1463 481 1925 481 
Q 2391 481 2648 825 
Q 2906 1169 2906 1791 
z
M 3481 434 
Q 3481 -459 3084 -895 
Q 2688 -1331 1869 -1331 
Q 1566 -1331 1297 -1286 
Q 1028 -1241 775 -1147 
L 775 -588 
Q 1028 -725 1275 -790 
Q 1522 -856 1778 -856 
Q 2344 -856 2625 -561 
Q 2906 -266 2906 331 
L 2906 616 
Q 2728 306 2450 153 
Q 2172 0 1784 0 
Q 1141 0 747 490 
Q 353 981 353 1791 
Q 353 2603 747 3093 
Q 1141 3584 1784 3584 
Q 2172 3584 2450 3431 
Q 2728 3278 2906 2969 
L 2906 3500 
L 3481 3500 
L 3481 434 
z
" id="DejaVuSans-67" transform="scale(0.015625)"/>
        <path d="M 2834 3397 
L 2834 2853 
Q 2591 2978 2328 3040 
Q 2066 3103 1784 3103 
Q 1356 3103 1142 2972 
Q 928 2841 928 2578 
Q 928 2378 1081 2264 
Q 1234 2150 1697 2047 
L 1894 2003 
Q 2506 1872 2764 1633 
Q 3022 1394 3022 966 
Q 3022 478 2636 193 
Q 2250 -91 1575 -91 
Q 1294 -91 989 -36 
Q 684 19 347 128 
L 347 722 
Q 666 556 975 473 
Q 1284 391 1588 391 
Q 1994 391 2212 530 
Q 2431 669 2431 922 
Q 2431 1156 2273 1281 
Q 2116 1406 1581 1522 
L 1381 1569 
Q 847 1681 609 1914 
Q 372 2147 372 2553 
Q 372 3047 722 3315 
Q 1072 3584 1716 3584 
Q 2034 3584 2315 3537 
Q 2597 3491 2834 3397 
z
" id="DejaVuSans-73" transform="scale(0.015625)"/>
        <path d="M 1172 4494 
L 1172 3500 
L 2356 3500 
L 2356 3053 
L 1172 3053 
L 1172 1153 
Q 1172 725 1289 603 
Q 1406 481 1766 481 
L 2356 481 
L 2356 0 
L 1766 0 
Q 1100 0 847 248 
Q 594 497 594 1153 
L 594 3053 
L 172 3053 
L 172 3500 
L 594 3500 
L 594 4494 
L 1172 4494 
z
" id="DejaVuSans-74" transform="scale(0.015625)"/>
       </defs>
       <use xlink:href="#DejaVuSans-41"/>
       <use x="68.408203" xlink:href="#DejaVuSans-75"/>
       <use x="131.787109" xlink:href="#DejaVuSans-67"/>
       <use x="195.263672" xlink:href="#DejaVuSans-75"/>
       <use x="258.642578" xlink:href="#DejaVuSans-73"/>
       <use x="310.742188" xlink:href="#DejaVuSans-74"/>
      </g>
     </g>
    </g>
    <g id="xtick_9">
     <g id="line2d_9">
      <g>
       <use style="stroke:#000000;stroke-width:0.8;" x="919.186997" xlink:href="#m59c5644516" y="768.96"/>
      </g>
     </g>
     <g id="text_9">
      <!-- September -->
      <g transform="translate(891.548716 783.558437)scale(0.1 -0.1)">
       <defs>
        <path d="M 3425 4513 
L 3425 3897 
Q 3066 4069 2747 4153 
Q 2428 4238 2131 4238 
Q 1616 4238 1336 4038 
Q 1056 3838 1056 3469 
Q 1056 3159 1242 3001 
Q 1428 2844 1947 2747 
L 2328 2669 
Q 3034 2534 3370 2195 
Q 3706 1856 3706 1288 
Q 3706 609 3251 259 
Q 2797 -91 1919 -91 
Q 1588 -91 1214 -16 
Q 841 59 441 206 
L 441 856 
Q 825 641 1194 531 
Q 1563 422 1919 422 
Q 2459 422 2753 634 
Q 3047 847 3047 1241 
Q 3047 1584 2836 1778 
Q 2625 1972 2144 2069 
L 1759 2144 
Q 1053 2284 737 2584 
Q 422 2884 422 3419 
Q 422 4038 858 4394 
Q 1294 4750 2059 4750 
Q 2388 4750 2728 4690 
Q 3069 4631 3425 4513 
z
" id="DejaVuSans-53" transform="scale(0.015625)"/>
        <path d="M 3328 2828 
Q 3544 3216 3844 3400 
Q 4144 3584 4550 3584 
Q 5097 3584 5394 3201 
Q 5691 2819 5691 2113 
L 5691 0 
L 5113 0 
L 5113 2094 
Q 5113 2597 4934 2840 
Q 4756 3084 4391 3084 
Q 3944 3084 3684 2787 
Q 3425 2491 3425 1978 
L 3425 0 
L 2847 0 
L 2847 2094 
Q 2847 2600 2669 2842 
Q 2491 3084 2119 3084 
Q 1678 3084 1418 2786 
Q 1159 2488 1159 1978 
L 1159 0 
L 581 0 
L 581 3500 
L 1159 3500 
L 1159 2956 
Q 1356 3278 1631 3431 
Q 1906 3584 2284 3584 
Q 2666 3584 2933 3390 
Q 3200 3197 3328 2828 
z
" id="DejaVuSans-6d" transform="scale(0.015625)"/>
       </defs>
       <use xlink:href="#DejaVuSans-53"/>
       <use x="63.476562" xlink:href="#DejaVuSans-65"/>
       <use x="125" xlink:href="#DejaVuSans-70"/>
       <use x="188.476562" xlink:href="#DejaVuSans-74"/>
       <use x="227.685547" xlink:href="#DejaVuSans-65"/>
       <use x="289.208984" xlink:href="#DejaVuSans-6d"/>
       <use x="386.621094" xlink:href="#DejaVuSans-62"/>
       <use x="450.097656" xlink:href="#DejaVuSans-65"/>
       <use x="511.621094" xlink:href="#DejaVuSans-72"/>
      </g>
     </g>
    </g>
    <g id="xtick_10">
     <g id="line2d_10">
      <g>
       <use style="stroke:#000000;stroke-width:0.8;" x="1012.474923" xlink:href="#m59c5644516" y="768.96"/>
      </g>
     </g>
     <g id="text_10">
      <!-- October -->
      <g transform="translate(992.463985 783.558437)scale(0.1 -0.1)">
       <defs>
        <path d="M 2522 4238 
Q 1834 4238 1429 3725 
Q 1025 3213 1025 2328 
Q 1025 1447 1429 934 
Q 1834 422 2522 422 
Q 3209 422 3611 934 
Q 4013 1447 4013 2328 
Q 4013 3213 3611 3725 
Q 3209 4238 2522 4238 
z
M 2522 4750 
Q 3503 4750 4090 4092 
Q 4678 3434 4678 2328 
Q 4678 1225 4090 567 
Q 3503 -91 2522 -91 
Q 1538 -91 948 565 
Q 359 1222 359 2328 
Q 359 3434 948 4092 
Q 1538 4750 2522 4750 
z
" id="DejaVuSans-4f" transform="scale(0.015625)"/>
        <path d="M 1959 3097 
Q 1497 3097 1228 2736 
Q 959 2375 959 1747 
Q 959 1119 1226 758 
Q 1494 397 1959 397 
Q 2419 397 2687 759 
Q 2956 1122 2956 1747 
Q 2956 2369 2687 2733 
Q 2419 3097 1959 3097 
z
M 1959 3584 
Q 2709 3584 3137 3096 
Q 3566 2609 3566 1747 
Q 3566 888 3137 398 
Q 2709 -91 1959 -91 
Q 1206 -91 779 398 
Q 353 888 353 1747 
Q 353 2609 779 3096 
Q 1206 3584 1959 3584 
z
" id="DejaVuSans-6f" transform="scale(0.015625)"/>
       </defs>
       <use xlink:href="#DejaVuSans-4f"/>
       <use x="78.710938" xlink:href="#DejaVuSans-63"/>
       <use x="133.691406" xlink:href="#DejaVuSans-74"/>
       <use x="172.900391" xlink:href="#DejaVuSans-6f"/>
       <use x="234.082031" xlink:href="#DejaVuSans-62"/>
       <use x="297.558594" xlink:href="#DejaVuSans-65"/>
       <use x="359.082031" xlink:href="#DejaVuSans-72"/>
      </g>
     </g>
    </g>
    <g id="xtick_11">
     <g id="line2d_11">
      <g>
       <use style="stroke:#000000;stroke-width:0.8;" x="1108.872446" xlink:href="#m59c5644516" y="768.96"/>
      </g>
     </g>
     <g id="text_11">
      <!-- November -->
      <g transform="translate(1082.859946 783.558437)scale(0.1 -0.1)">
       <defs>
        <path d="M 628 4666 
L 1478 4666 
L 3547 763 
L 3547 4666 
L 4159 4666 
L 4159 0 
L 3309 0 
L 1241 3903 
L 1241 0 
L 628 0 
L 628 4666 
z
" id="DejaVuSans-4e" transform="scale(0.015625)"/>
        <path d="M 191 3500 
L 800 3500 
L 1894 563 
L 2988 3500 
L 3597 3500 
L 2284 0 
L 1503 0 
L 191 3500 
z
" id="DejaVuSans-76" transform="scale(0.015625)"/>
       </defs>
       <use xlink:href="#DejaVuSans-4e"/>
       <use x="74.804688" xlink:href="#DejaVuSans-6f"/>
       <use x="135.986328" xlink:href="#DejaVuSans-76"/>
       <use x="195.166016" xlink:href="#DejaVuSans-65"/>
       <use x="256.689453" xlink:href="#DejaVuSans-6d"/>
       <use x="354.101562" xlink:href="#DejaVuSans-62"/>
       <use x="417.578125" xlink:href="#DejaVuSans-65"/>
       <use x="479.101562" xlink:href="#DejaVuSans-72"/>
      </g>
     </g>
    </g>
   </g>
   <g id="matplotlib.axis_2">
    <g id="ytick_1">
     <g id="line2d_12">
      <defs>
       <path d="M 0 0 
L -3.5 0 
" id="me0e5bcf3ec" style="stroke:#000000;stroke-width:0.8;"/>
      </defs>
      <g>
       <use style="stroke:#000000;stroke-width:0.8;" x="162" xlink:href="#me0e5bcf3ec" y="768.96"/>
      </g>
     </g>
     <g id="text_12">
      <!-- 0.0 -->
      <g transform="translate(139.096875 772.759219)scale(0.1 -0.1)">
       <defs>
        <path d="M 2034 4250 
Q 1547 4250 1301 3770 
Q 1056 3291 1056 2328 
Q 1056 1369 1301 889 
Q 1547 409 2034 409 
Q 2525 409 2770 889 
Q 3016 1369 3016 2328 
Q 3016 3291 2770 3770 
Q 2525 4250 2034 4250 
z
M 2034 4750 
Q 2819 4750 3233 4129 
Q 3647 3509 3647 2328 
Q 3647 1150 3233 529 
Q 2819 -91 2034 -91 
Q 1250 -91 836 529 
Q 422 1150 422 2328 
Q 422 3509 836 4129 
Q 1250 4750 2034 4750 
z
" id="DejaVuSans-30" transform="scale(0.015625)"/>
        <path d="M 684 794 
L 1344 794 
L 1344 0 
L 684 0 
L 684 794 
z
" id="DejaVuSans-2e" transform="scale(0.015625)"/>
       </defs>
       <use xlink:href="#DejaVuSans-30"/>
       <use x="63.623047" xlink:href="#DejaVuSans-2e"/>
       <use x="95.410156" xlink:href="#DejaVuSans-30"/>
      </g>
     </g>
    </g>
    <g id="ytick_2">
     <g id="line2d_13">
      <g>
       <use style="stroke:#000000;stroke-width:0.8;" x="162" xlink:href="#me0e5bcf3ec" y="632.05725"/>
      </g>
     </g>
     <g id="text_13">
      <!-- 0.5 -->
      <g transform="translate(139.096875 635.856469)scale(0.1 -0.1)">
       <defs>
        <path d="M 691 4666 
L 3169 4666 
L 3169 4134 
L 1269 4134 
L 1269 2991 
Q 1406 3038 1543 3061 
Q 1681 3084 1819 3084 
Q 2600 3084 3056 2656 
Q 3513 2228 3513 1497 
Q 3513 744 3044 326 
Q 2575 -91 1722 -91 
Q 1428 -91 1123 -41 
Q 819 9 494 109 
L 494 744 
Q 775 591 1075 516 
Q 1375 441 1709 441 
Q 2250 441 2565 725 
Q 2881 1009 2881 1497 
Q 2881 1984 2565 2268 
Q 2250 2553 1709 2553 
Q 1456 2553 1204 2497 
Q 953 2441 691 2322 
L 691 4666 
z
" id="DejaVuSans-35" transform="scale(0.015625)"/>
       </defs>
       <use xlink:href="#DejaVuSans-30"/>
       <use x="63.623047" xlink:href="#DejaVuSans-2e"/>
       <use x="95.410156" xlink:href="#DejaVuSans-35"/>
      </g>
     </g>
    </g>
    <g id="ytick_3">
     <g id="line2d_14">
      <g>
       <use style="stroke:#000000;stroke-width:0.8;" x="162" xlink:href="#me0e5bcf3ec" y="495.1545"/>
      </g>
     </g>
     <g id="text_14">
      <!-- 1.0 -->
      <g transform="translate(139.096875 498.953719)scale(0.1 -0.1)">
       <defs>
        <path d="M 794 531 
L 1825 531 
L 1825 4091 
L 703 3866 
L 703 4441 
L 1819 4666 
L 2450 4666 
L 2450 531 
L 3481 531 
L 3481 0 
L 794 0 
L 794 531 
z
" id="DejaVuSans-31" transform="scale(0.015625)"/>
       </defs>
       <use xlink:href="#DejaVuSans-31"/>
       <use x="63.623047" xlink:href="#DejaVuSans-2e"/>
       <use x="95.410156" xlink:href="#DejaVuSans-30"/>
      </g>
     </g>
    </g>
    <g id="ytick_4">
     <g id="line2d_15">
      <g>
       <use style="stroke:#000000;stroke-width:0.8;" x="162" xlink:href="#me0e5bcf3ec" y="358.25175"/>
      </g>
     </g>
     <g id="text_15">
      <!-- 1.5 -->
      <g transform="translate(139.096875 362.050969)scale(0.1 -0.1)">
       <use xlink:href="#DejaVuSans-31"/>
       <use x="63.623047" xlink:href="#DejaVuSans-2e"/>
       <use x="95.410156" xlink:href="#DejaVuSans-35"/>
      </g>
     </g>
    </g>
    <g id="ytick_5">
     <g id="line2d_16">
      <g>
       <use style="stroke:#000000;stroke-width:0.8;" x="162" xlink:href="#me0e5bcf3ec" y="221.349001"/>
      </g>
     </g>
     <g id="text_16">
      <!-- 2.0 -->
      <g transform="translate(139.096875 225.148219)scale(0.1 -0.1)">
       <defs>
        <path d="M 1228 531 
L 3431 531 
L 3431 0 
L 469 0 
L 469 531 
Q 828 903 1448 1529 
Q 2069 2156 2228 2338 
Q 2531 2678 2651 2914 
Q 2772 3150 2772 3378 
Q 2772 3750 2511 3984 
Q 2250 4219 1831 4219 
Q 1534 4219 1204 4116 
Q 875 4013 500 3803 
L 500 4441 
Q 881 4594 1212 4672 
Q 1544 4750 1819 4750 
Q 2544 4750 2975 4387 
Q 3406 4025 3406 3419 
Q 3406 3131 3298 2873 
Q 3191 2616 2906 2266 
Q 2828 2175 2409 1742 
Q 1991 1309 1228 531 
z
" id="DejaVuSans-32" transform="scale(0.015625)"/>
       </defs>
       <use xlink:href="#DejaVuSans-32"/>
       <use x="63.623047" xlink:href="#DejaVuSans-2e"/>
       <use x="95.410156" xlink:href="#DejaVuSans-30"/>
      </g>
     </g>
    </g>
    <g id="text_17">
     <!-- Persons fully vaccinated (tens of millions) -->
     <g transform="translate(133.017188 540.480156)rotate(-90)scale(0.1 -0.1)">
      <defs>
       <path d="M 1259 4147 
L 1259 2394 
L 2053 2394 
Q 2494 2394 2734 2622 
Q 2975 2850 2975 3272 
Q 2975 3691 2734 3919 
Q 2494 4147 2053 4147 
L 1259 4147 
z
M 628 4666 
L 2053 4666 
Q 2838 4666 3239 4311 
Q 3641 3956 3641 3272 
Q 3641 2581 3239 2228 
Q 2838 1875 2053 1875 
L 1259 1875 
L 1259 0 
L 628 0 
L 628 4666 
z
" id="DejaVuSans-50" transform="scale(0.015625)"/>
       <path id="DejaVuSans-20" transform="scale(0.015625)"/>
       <path d="M 2375 4863 
L 2375 4384 
L 1825 4384 
Q 1516 4384 1395 4259 
Q 1275 4134 1275 3809 
L 1275 3500 
L 2222 3500 
L 2222 3053 
L 1275 3053 
L 1275 0 
L 697 0 
L 697 3053 
L 147 3053 
L 147 3500 
L 697 3500 
L 697 3744 
Q 697 4328 969 4595 
Q 1241 4863 1831 4863 
L 2375 4863 
z
" id="DejaVuSans-66" transform="scale(0.015625)"/>
       <path d="M 2906 2969 
L 2906 4863 
L 3481 4863 
L 3481 0 
L 2906 0 
L 2906 525 
Q 2725 213 2448 61 
Q 2172 -91 1784 -91 
Q 1150 -91 751 415 
Q 353 922 353 1747 
Q 353 2572 751 3078 
Q 1150 3584 1784 3584 
Q 2172 3584 2448 3432 
Q 2725 3281 2906 2969 
z
M 947 1747 
Q 947 1113 1208 752 
Q 1469 391 1925 391 
Q 2381 391 2643 752 
Q 2906 1113 2906 1747 
Q 2906 2381 2643 2742 
Q 2381 3103 1925 3103 
Q 1469 3103 1208 2742 
Q 947 2381 947 1747 
z
" id="DejaVuSans-64" transform="scale(0.015625)"/>
       <path d="M 1984 4856 
Q 1566 4138 1362 3434 
Q 1159 2731 1159 2009 
Q 1159 1288 1364 580 
Q 1569 -128 1984 -844 
L 1484 -844 
Q 1016 -109 783 600 
Q 550 1309 550 2009 
Q 550 2706 781 3412 
Q 1013 4119 1484 4856 
L 1984 4856 
z
" id="DejaVuSans-28" transform="scale(0.015625)"/>
       <path d="M 513 4856 
L 1013 4856 
Q 1481 4119 1714 3412 
Q 1947 2706 1947 2009 
Q 1947 1309 1714 600 
Q 1481 -109 1013 -844 
L 513 -844 
Q 928 -128 1133 580 
Q 1338 1288 1338 2009 
Q 1338 2731 1133 3434 
Q 928 4138 513 4856 
z
" id="DejaVuSans-29" transform="scale(0.015625)"/>
      </defs>
      <use xlink:href="#DejaVuSans-50"/>
      <use x="56.677734" xlink:href="#DejaVuSans-65"/>
      <use x="118.201172" xlink:href="#DejaVuSans-72"/>
      <use x="159.314453" xlink:href="#DejaVuSans-73"/>
      <use x="211.414062" xlink:href="#DejaVuSans-6f"/>
      <use x="272.595703" xlink:href="#DejaVuSans-6e"/>
      <use x="335.974609" xlink:href="#DejaVuSans-73"/>
      <use x="388.074219" xlink:href="#DejaVuSans-20"/>
      <use x="419.861328" xlink:href="#DejaVuSans-66"/>
      <use x="455.066406" xlink:href="#DejaVuSans-75"/>
      <use x="518.445312" xlink:href="#DejaVuSans-6c"/>
      <use x="546.228516" xlink:href="#DejaVuSans-6c"/>
      <use x="574.011719" xlink:href="#DejaVuSans-79"/>
      <use x="633.191406" xlink:href="#DejaVuSans-20"/>
      <use x="664.978516" xlink:href="#DejaVuSans-76"/>
      <use x="724.158203" xlink:href="#DejaVuSans-61"/>
      <use x="785.4375" xlink:href="#DejaVuSans-63"/>
      <use x="840.417969" xlink:href="#DejaVuSans-63"/>
      <use x="895.398438" xlink:href="#DejaVuSans-69"/>
      <use x="923.181641" xlink:href="#DejaVuSans-6e"/>
      <use x="986.560547" xlink:href="#DejaVuSans-61"/>
      <use x="1047.839844" xlink:href="#DejaVuSans-74"/>
      <use x="1087.048828" xlink:href="#DejaVuSans-65"/>
      <use x="1148.572266" xlink:href="#DejaVuSans-64"/>
      <use x="1212.048828" xlink:href="#DejaVuSans-20"/>
      <use x="1243.835938" xlink:href="#DejaVuSans-28"/>
      <use x="1282.849609" xlink:href="#DejaVuSans-74"/>
      <use x="1322.058594" xlink:href="#DejaVuSans-65"/>
      <use x="1383.582031" xlink:href="#DejaVuSans-6e"/>
      <use x="1446.960938" xlink:href="#DejaVuSans-73"/>
      <use x="1499.060547" xlink:href="#DejaVuSans-20"/>
      <use x="1530.847656" xlink:href="#DejaVuSans-6f"/>
      <use x="1592.029297" xlink:href="#DejaVuSans-66"/>
      <use x="1627.234375" xlink:href="#DejaVuSans-20"/>
      <use x="1659.021484" xlink:href="#DejaVuSans-6d"/>
      <use x="1756.433594" xlink:href="#DejaVuSans-69"/>
      <use x="1784.216797" xlink:href="#DejaVuSans-6c"/>
      <use x="1812" xlink:href="#DejaVuSans-6c"/>
      <use x="1839.783203" xlink:href="#DejaVuSans-69"/>
      <use x="1867.566406" xlink:href="#DejaVuSans-6f"/>
      <use x="1928.748047" xlink:href="#DejaVuSans-6e"/>
      <use x="1992.126953" xlink:href="#DejaVuSans-73"/>
      <use x="2044.226562" xlink:href="#DejaVuSans-29"/>
     </g>
    </g>
    <g id="text_18">
     <!-- 1e7 -->
     <g transform="translate(162 100.68)scale(0.1 -0.1)">
      <defs>
       <path d="M 525 4666 
L 3525 4666 
L 3525 4397 
L 1831 0 
L 1172 0 
L 2766 4134 
L 525 4134 
L 525 4666 
z
" id="DejaVuSans-37" transform="scale(0.015625)"/>
      </defs>
      <use xlink:href="#DejaVuSans-31"/>
      <use x="63.623047" xlink:href="#DejaVuSans-65"/>
      <use x="125.146484" xlink:href="#DejaVuSans-37"/>
     </g>
    </g>
   </g>
   <g id="patch_326">
    <path d="M 162 768.96 
L 162 103.68 
" style="fill:none;stroke:#000000;stroke-linecap:square;stroke-linejoin:miter;stroke-width:0.8;"/>
   </g>
   <g id="patch_327">
    <path d="M 1166.4 768.96 
L 1166.4 103.68 
" style="fill:none;stroke:#000000;stroke-linecap:square;stroke-linejoin:miter;stroke-width:0.8;"/>
   </g>
   <g id="patch_328">
    <path d="M 162 768.96 
L 1166.4 768.96 
" style="fill:none;stroke:#000000;stroke-linecap:square;stroke-linejoin:miter;stroke-width:0.8;"/>
   </g>
   <g id="patch_329">
    <path d="M 162 103.68 
L 1166.4 103.68 
" style="fill:none;stroke:#000000;stroke-linecap:square;stroke-linejoin:miter;stroke-width:0.8;"/>
   </g>
   <g id="text_19">
    <!-- Persons Fully Vaccinated -->
    <g transform="translate(590.380313 97.68)scale(0.12 -0.12)">
     <defs>
      <path d="M 1831 0 
L 50 4666 
L 709 4666 
L 2188 738 
L 3669 4666 
L 4325 4666 
L 2547 0 
L 1831 0 
z
" id="DejaVuSans-56" transform="scale(0.015625)"/>
     </defs>
     <use xlink:href="#DejaVuSans-50"/>
     <use x="56.677734" xlink:href="#DejaVuSans-65"/>
     <use x="118.201172" xlink:href="#DejaVuSans-72"/>
     <use x="159.314453" xlink:href="#DejaVuSans-73"/>
     <use x="211.414062" xlink:href="#DejaVuSans-6f"/>
     <use x="272.595703" xlink:href="#DejaVuSans-6e"/>
     <use x="335.974609" xlink:href="#DejaVuSans-73"/>
     <use x="388.074219" xlink:href="#DejaVuSans-20"/>
     <use x="419.861328" xlink:href="#DejaVuSans-46"/>
     <use x="471.880859" xlink:href="#DejaVuSans-75"/>
     <use x="535.259766" xlink:href="#DejaVuSans-6c"/>
     <use x="563.042969" xlink:href="#DejaVuSans-6c"/>
     <use x="590.826172" xlink:href="#DejaVuSans-79"/>
     <use x="650.005859" xlink:href="#DejaVuSans-20"/>
     <use x="681.792969" xlink:href="#DejaVuSans-56"/>
     <use x="742.451172" xlink:href="#DejaVuSans-61"/>
     <use x="803.730469" xlink:href="#DejaVuSans-63"/>
     <use x="858.710938" xlink:href="#DejaVuSans-63"/>
     <use x="913.691406" xlink:href="#DejaVuSans-69"/>
     <use x="941.474609" xlink:href="#DejaVuSans-6e"/>
     <use x="1004.853516" xlink:href="#DejaVuSans-61"/>
     <use x="1066.132812" xlink:href="#DejaVuSans-74"/>
     <use x="1105.341797" xlink:href="#DejaVuSans-65"/>
     <use x="1166.865234" xlink:href="#DejaVuSans-64"/>
    </g>
   </g>
  </g>
 </g>
 <defs>
  <clipPath id="pa8a2a679e3">
   <rect height="665.28" width="1004.4" x="162" y="103.68"/>
  </clipPath>
 </defs>
</svg>
