<?xml version="1.0" encoding="utf-8" standalone="no"?>
<!DOCTYPE svg PUBLIC "-//W3C//DTD SVG 1.1//EN"
  "http://www.w3.org/Graphics/SVG/1.1/DTD/svg11.dtd">
<svg height="864pt" version="1.1" viewBox="0 0 1296 864" width="1296pt" xmlns="http://www.w3.org/2000/svg" xmlns:xlink="http://www.w3.org/1999/xlink">
 <metadata>
  <rdf:RDF xmlns:cc="http://creativecommons.org/ns#" xmlns:dc="http://purl.org/dc/elements/1.1/" xmlns:rdf="http://www.w3.org/1999/02/22-rdf-syntax-ns#">
   <cc:Work>
    <dc:type rdf:resource="http://purl.org/dc/dcmitype/StillImage"/>
    <dc:date>2021-07-25T03:41:28.312222</dc:date>
    <dc:format>image/svg+xml</dc:format>
    <dc:creator>
     <cc:Agent>
      <dc:title>Matplotlib v3.4.2, https://matplotlib.org/</dc:title>
     </cc:Agent>
    </dc:creator>
   </cc:Work>
  </rdf:RDF>
 </metadata>
 <defs>
  <style type="text/css">*{stroke-linecap:butt;stroke-linejoin:round;}</style>
 </defs>
 <g id="figure_1">
  <g id="patch_1">
   <path d="M 0 864 
L 1296 864 
L 1296 0 
L 0 0 
z
" style="fill:#ffffff;"/>
  </g>
  <g id="axes_1">
   <g id="patch_2">
    <path d="M 162 768.96 
L 1166.4 768.96 
L 1166.4 103.68 
L 162 103.68 
z
" style="fill:#ffffff;"/>
   </g>
   <g id="patch_3">
    <path clip-path="url(#pf474e38635)" d="M 163.2555 768.96 
L 165.7665 768.96 
L 165.7665 768.947281 
L 163.2555 768.947281 
z
" style="fill:#1f77b4;"/>
   </g>
   <g id="patch_4">
    <path clip-path="url(#pf474e38635)" d="M 168.2775 768.96 
L 170.7885 768.96 
L 170.7885 768.920879 
L 168.2775 768.920879 
z
" style="fill:#1f77b4;"/>
   </g>
   <g id="patch_5">
    <path clip-path="url(#pf474e38635)" d="M 173.2995 768.96 
L 175.8105 768.96 
L 175.8105 768.69552 
L 173.2995 768.69552 
z
" style="fill:#1f77b4;"/>
   </g>
   <g id="patch_6">
    <path clip-path="url(#pf474e38635)" d="M 178.3215 768.96 
L 180.8325 768.96 
L 180.8325 767.035632 
L 178.3215 767.035632 
z
" style="fill:#1f77b4;"/>
   </g>
   <g id="patch_7">
    <path clip-path="url(#pf474e38635)" d="M 183.3435 768.96 
L 185.8545 768.96 
L 185.8545 765.048311 
L 183.3435 765.048311 
z
" style="fill:#1f77b4;"/>
   </g>
   <g id="patch_8">
    <path clip-path="url(#pf474e38635)" d="M 188.3655 768.96 
L 190.8765 768.96 
L 190.8765 763.9498 
L 188.3655 763.9498 
z
" style="fill:#1f77b4;"/>
   </g>
   <g id="patch_9">
    <path clip-path="url(#pf474e38635)" d="M 193.3875 768.96 
L 195.8985 768.96 
L 195.8985 763.280473 
L 193.3875 763.280473 
z
" style="fill:#1f77b4;"/>
   </g>
   <g id="patch_10">
    <path clip-path="url(#pf474e38635)" d="M 198.4095 768.96 
L 200.9205 768.96 
L 200.9205 762.241975 
L 198.4095 762.241975 
z
" style="fill:#1f77b4;"/>
   </g>
   <g id="patch_11">
    <path clip-path="url(#pf474e38635)" d="M 203.4315 768.96 
L 205.9425 768.96 
L 205.9425 761.262893 
L 203.4315 761.262893 
z
" style="fill:#1f77b4;"/>
   </g>
   <g id="patch_12">
    <path clip-path="url(#pf474e38635)" d="M 208.4535 768.96 
L 210.9645 768.96 
L 210.9645 760.464494 
L 208.4535 760.464494 
z
" style="fill:#1f77b4;"/>
   </g>
   <g id="patch_13">
    <path clip-path="url(#pf474e38635)" d="M 213.4755 768.96 
L 215.9865 768.96 
L 215.9865 759.495376 
L 213.4755 759.495376 
z
" style="fill:#1f77b4;"/>
   </g>
   <g id="patch_14">
    <path clip-path="url(#pf474e38635)" d="M 218.4975 768.96 
L 221.0085 768.96 
L 221.0085 759.305189 
L 218.4975 759.305189 
z
" style="fill:#1f77b4;"/>
   </g>
   <g id="patch_15">
    <path clip-path="url(#pf474e38635)" d="M 223.5195 768.96 
L 226.0305 768.96 
L 226.0305 759.187183 
L 223.5195 759.187183 
z
" style="fill:#1f77b4;"/>
   </g>
   <g id="patch_16">
    <path clip-path="url(#pf474e38635)" d="M 228.5415 768.96 
L 231.0525 768.96 
L 231.0525 759.132497 
L 228.5415 759.132497 
z
" style="fill:#1f77b4;"/>
   </g>
   <g id="patch_17">
    <path clip-path="url(#pf474e38635)" d="M 233.5635 768.96 
L 236.0745 768.96 
L 236.0745 758.863149 
L 233.5635 758.863149 
z
" style="fill:#1f77b4;"/>
   </g>
   <g id="patch_18">
    <path clip-path="url(#pf474e38635)" d="M 238.5855 768.96 
L 241.0965 768.96 
L 241.0965 758.42763 
L 238.5855 758.42763 
z
" style="fill:#1f77b4;"/>
   </g>
   <g id="patch_19">
    <path clip-path="url(#pf474e38635)" d="M 243.6075 768.96 
L 246.1185 768.96 
L 246.1185 757.548141 
L 243.6075 757.548141 
z
" style="fill:#1f77b4;"/>
   </g>
   <g id="patch_20">
    <path clip-path="url(#pf474e38635)" d="M 248.6295 768.96 
L 251.1405 768.96 
L 251.1405 756.678663 
L 248.6295 756.678663 
z
" style="fill:#1f77b4;"/>
   </g>
   <g id="patch_21">
    <path clip-path="url(#pf474e38635)" d="M 253.6515 768.96 
L 256.1625 768.96 
L 256.1625 756.072746 
L 253.6515 756.072746 
z
" style="fill:#1f77b4;"/>
   </g>
   <g id="patch_22">
    <path clip-path="url(#pf474e38635)" d="M 258.6735 768.96 
L 261.1845 768.96 
L 261.1845 755.861897 
L 258.6735 755.861897 
z
" style="fill:#1f77b4;"/>
   </g>
   <g id="patch_23">
    <path clip-path="url(#pf474e38635)" d="M 263.6955 768.96 
L 266.2065 768.96 
L 266.2065 755.562933 
L 263.6955 755.562933 
z
" style="fill:#1f77b4;"/>
   </g>
   <g id="patch_24">
    <path clip-path="url(#pf474e38635)" d="M 268.7175 768.96 
L 271.2285 768.96 
L 271.2285 754.750024 
L 268.7175 754.750024 
z
" style="fill:#1f77b4;"/>
   </g>
   <g id="patch_25">
    <path clip-path="url(#pf474e38635)" d="M 273.7395 768.96 
L 276.2505 768.96 
L 276.2505 753.359575 
L 273.7395 753.359575 
z
" style="fill:#1f77b4;"/>
   </g>
   <g id="patch_26">
    <path clip-path="url(#pf474e38635)" d="M 278.7615 768.96 
L 281.2725 768.96 
L 281.2725 751.424003 
L 278.7615 751.424003 
z
" style="fill:#1f77b4;"/>
   </g>
   <g id="patch_27">
    <path clip-path="url(#pf474e38635)" d="M 283.7835 768.96 
L 286.2945 768.96 
L 286.2945 749.799241 
L 283.7835 749.799241 
z
" style="fill:#1f77b4;"/>
   </g>
   <g id="patch_28">
    <path clip-path="url(#pf474e38635)" d="M 288.8055 768.96 
L 291.3165 768.96 
L 291.3165 748.344462 
L 288.8055 748.344462 
z
" style="fill:#1f77b4;"/>
   </g>
   <g id="patch_29">
    <path clip-path="url(#pf474e38635)" d="M 293.8275 768.96 
L 296.3385 768.96 
L 296.3385 747.564935 
L 293.8275 747.564935 
z
" style="fill:#1f77b4;"/>
   </g>
   <g id="patch_30">
    <path clip-path="url(#pf474e38635)" d="M 298.8495 768.96 
L 301.3605 768.96 
L 301.3605 747.12565 
L 298.8495 747.12565 
z
" style="fill:#1f77b4;"/>
   </g>
   <g id="patch_31">
    <path clip-path="url(#pf474e38635)" d="M 303.8715 768.96 
L 306.3825 768.96 
L 306.3825 746.332714 
L 303.8715 746.332714 
z
" style="fill:#1f77b4;"/>
   </g>
   <g id="patch_32">
    <path clip-path="url(#pf474e38635)" d="M 308.8935 768.96 
L 311.4045 768.96 
L 311.4045 744.588385 
L 308.8935 744.588385 
z
" style="fill:#1f77b4;"/>
   </g>
   <g id="patch_33">
    <path clip-path="url(#pf474e38635)" d="M 313.9155 768.96 
L 316.4265 768.96 
L 316.4265 743.302947 
L 313.9155 743.302947 
z
" style="fill:#1f77b4;"/>
   </g>
   <g id="patch_34">
    <path clip-path="url(#pf474e38635)" d="M 318.9375 768.96 
L 321.4485 768.96 
L 321.4485 741.562843 
L 318.9375 741.562843 
z
" style="fill:#1f77b4;"/>
   </g>
   <g id="patch_35">
    <path clip-path="url(#pf474e38635)" d="M 323.9595 768.96 
L 326.4705 768.96 
L 326.4705 740.209632 
L 323.9595 740.209632 
z
" style="fill:#1f77b4;"/>
   </g>
   <g id="patch_36">
    <path clip-path="url(#pf474e38635)" d="M 328.9815 768.96 
L 331.4925 768.96 
L 331.4925 738.99463 
L 328.9815 738.99463 
z
" style="fill:#1f77b4;"/>
   </g>
   <g id="patch_37">
    <path clip-path="url(#pf474e38635)" d="M 334.0035 768.96 
L 336.5145 768.96 
L 336.5145 738.582069 
L 334.0035 738.582069 
z
" style="fill:#1f77b4;"/>
   </g>
   <g id="patch_38">
    <path clip-path="url(#pf474e38635)" d="M 339.0255 768.96 
L 341.5365 768.96 
L 341.5365 737.183676 
L 339.0255 737.183676 
z
" style="fill:#1f77b4;"/>
   </g>
   <g id="patch_39">
    <path clip-path="url(#pf474e38635)" d="M 344.0475 768.96 
L 346.5585 768.96 
L 346.5585 735.427317 
L 344.0475 735.427317 
z
" style="fill:#1f77b4;"/>
   </g>
   <g id="patch_40">
    <path clip-path="url(#pf474e38635)" d="M 349.0695 768.96 
L 351.5805 768.96 
L 351.5805 733.310098 
L 349.0695 733.310098 
z
" style="fill:#1f77b4;"/>
   </g>
   <g id="patch_41">
    <path clip-path="url(#pf474e38635)" d="M 354.0915 768.96 
L 356.6025 768.96 
L 356.6025 730.28754 
L 354.0915 730.28754 
z
" style="fill:#1f77b4;"/>
   </g>
   <g id="patch_42">
    <path clip-path="url(#pf474e38635)" d="M 359.1135 768.96 
L 361.6245 768.96 
L 361.6245 727.550722 
L 359.1135 727.550722 
z
" style="fill:#1f77b4;"/>
   </g>
   <g id="patch_43">
    <path clip-path="url(#pf474e38635)" d="M 364.1355 768.96 
L 366.6465 768.96 
L 366.6465 725.851942 
L 364.1355 725.851942 
z
" style="fill:#1f77b4;"/>
   </g>
   <g id="patch_44">
    <path clip-path="url(#pf474e38635)" d="M 369.1575 768.96 
L 371.6685 768.96 
L 371.6685 724.940633 
L 369.1575 724.940633 
z
" style="fill:#1f77b4;"/>
   </g>
   <g id="patch_45">
    <path clip-path="url(#pf474e38635)" d="M 374.1795 768.96 
L 376.6905 768.96 
L 376.6905 724.037131 
L 374.1795 724.037131 
z
" style="fill:#1f77b4;"/>
   </g>
   <g id="patch_46">
    <path clip-path="url(#pf474e38635)" d="M 379.2015 768.96 
L 381.7125 768.96 
L 381.7125 722.219978 
L 379.2015 722.219978 
z
" style="fill:#1f77b4;"/>
   </g>
   <g id="patch_47">
    <path clip-path="url(#pf474e38635)" d="M 384.2235 768.96 
L 386.7345 768.96 
L 386.7345 719.177859 
L 384.2235 719.177859 
z
" style="fill:#1f77b4;"/>
   </g>
   <g id="patch_48">
    <path clip-path="url(#pf474e38635)" d="M 389.2455 768.96 
L 391.7565 768.96 
L 391.7565 715.05027 
L 389.2455 715.05027 
z
" style="fill:#1f77b4;"/>
   </g>
   <g id="patch_49">
    <path clip-path="url(#pf474e38635)" d="M 394.2675 768.96 
L 396.7785 768.96 
L 396.7785 711.242261 
L 394.2675 711.242261 
z
" style="fill:#1f77b4;"/>
   </g>
   <g id="patch_50">
    <path clip-path="url(#pf474e38635)" d="M 399.2895 768.96 
L 401.8005 768.96 
L 401.8005 710.504885 
L 399.2895 710.504885 
z
" style="fill:#1f77b4;"/>
   </g>
   <g id="patch_51">
    <path clip-path="url(#pf474e38635)" d="M 404.3115 768.96 
L 406.8225 768.96 
L 406.8225 707.734088 
L 404.3115 707.734088 
z
" style="fill:#1f77b4;"/>
   </g>
   <g id="patch_52">
    <path clip-path="url(#pf474e38635)" d="M 409.3335 768.96 
L 411.8445 768.96 
L 411.8445 705.448769 
L 409.3335 705.448769 
z
" style="fill:#1f77b4;"/>
   </g>
   <g id="patch_53">
    <path clip-path="url(#pf474e38635)" d="M 414.3555 768.96 
L 416.8665 768.96 
L 416.8665 702.041108 
L 414.3555 702.041108 
z
" style="fill:#1f77b4;"/>
   </g>
   <g id="patch_54">
    <path clip-path="url(#pf474e38635)" d="M 419.3775 768.96 
L 421.8885 768.96 
L 421.8885 695.786198 
L 419.3775 695.786198 
z
" style="fill:#1f77b4;"/>
   </g>
   <g id="patch_55">
    <path clip-path="url(#pf474e38635)" d="M 424.3995 768.96 
L 426.9105 768.96 
L 426.9105 689.28715 
L 424.3995 689.28715 
z
" style="fill:#1f77b4;"/>
   </g>
   <g id="patch_56">
    <path clip-path="url(#pf474e38635)" d="M 429.4215 768.96 
L 431.9325 768.96 
L 431.9325 683.50082 
L 429.4215 683.50082 
z
" style="fill:#1f77b4;"/>
   </g>
   <g id="patch_57">
    <path clip-path="url(#pf474e38635)" d="M 434.4435 768.96 
L 436.9545 768.96 
L 436.9545 678.41821 
L 434.4435 678.41821 
z
" style="fill:#1f77b4;"/>
   </g>
   <g id="patch_58">
    <path clip-path="url(#pf474e38635)" d="M 439.4655 768.96 
L 441.9765 768.96 
L 441.9765 675.868319 
L 439.4655 675.868319 
z
" style="fill:#1f77b4;"/>
   </g>
   <g id="patch_59">
    <path clip-path="url(#pf474e38635)" d="M 444.4875 768.96 
L 446.9985 768.96 
L 446.9985 672.272445 
L 444.4875 672.272445 
z
" style="fill:#1f77b4;"/>
   </g>
   <g id="patch_60">
    <path clip-path="url(#pf474e38635)" d="M 449.5095 768.96 
L 452.0205 768.96 
L 452.0205 667.404036 
L 449.5095 667.404036 
z
" style="fill:#1f77b4;"/>
   </g>
   <g id="patch_61">
    <path clip-path="url(#pf474e38635)" d="M 454.5315 768.96 
L 457.0425 768.96 
L 457.0425 661.930537 
L 454.5315 661.930537 
z
" style="fill:#1f77b4;"/>
   </g>
   <g id="patch_62">
    <path clip-path="url(#pf474e38635)" d="M 459.5535 768.96 
L 462.0645 768.96 
L 462.0645 653.982404 
L 459.5535 653.982404 
z
" style="fill:#1f77b4;"/>
   </g>
   <g id="patch_63">
    <path clip-path="url(#pf474e38635)" d="M 464.5755 768.96 
L 467.0865 768.96 
L 467.0865 646.428603 
L 464.5755 646.428603 
z
" style="fill:#1f77b4;"/>
   </g>
   <g id="patch_64">
    <path clip-path="url(#pf474e38635)" d="M 469.5975 768.96 
L 472.1085 768.96 
L 472.1085 640.54167 
L 469.5975 640.54167 
z
" style="fill:#1f77b4;"/>
   </g>
   <g id="patch_65">
    <path clip-path="url(#pf474e38635)" d="M 474.6195 768.96 
L 477.1305 768.96 
L 477.1305 638.715793 
L 474.6195 638.715793 
z
" style="fill:#1f77b4;"/>
   </g>
   <g id="patch_66">
    <path clip-path="url(#pf474e38635)" d="M 479.6415 768.96 
L 482.1525 768.96 
L 482.1525 633.929162 
L 479.6415 633.929162 
z
" style="fill:#1f77b4;"/>
   </g>
   <g id="patch_67">
    <path clip-path="url(#pf474e38635)" d="M 484.6635 768.96 
L 487.1745 768.96 
L 487.1745 627.707083 
L 484.6635 627.707083 
z
" style="fill:#1f77b4;"/>
   </g>
   <g id="patch_68">
    <path clip-path="url(#pf474e38635)" d="M 489.6855 768.96 
L 492.1965 768.96 
L 492.1965 620.805345 
L 489.6855 620.805345 
z
" style="fill:#1f77b4;"/>
   </g>
   <g id="patch_69">
    <path clip-path="url(#pf474e38635)" d="M 494.7075 768.96 
L 497.2185 768.96 
L 497.2185 613.438885 
L 494.7075 613.438885 
z
" style="fill:#1f77b4;"/>
   </g>
   <g id="patch_70">
    <path clip-path="url(#pf474e38635)" d="M 499.7295 768.96 
L 502.2405 768.96 
L 502.2405 605.153723 
L 499.7295 605.153723 
z
" style="fill:#1f77b4;"/>
   </g>
   <g id="patch_71">
    <path clip-path="url(#pf474e38635)" d="M 504.7515 768.96 
L 507.2625 768.96 
L 507.2625 599.853008 
L 504.7515 599.853008 
z
" style="fill:#1f77b4;"/>
   </g>
   <g id="patch_72">
    <path clip-path="url(#pf474e38635)" d="M 509.7735 768.96 
L 512.2845 768.96 
L 512.2845 594.590129 
L 509.7735 594.590129 
z
" style="fill:#1f77b4;"/>
   </g>
   <g id="patch_73">
    <path clip-path="url(#pf474e38635)" d="M 514.7955 768.96 
L 517.3065 768.96 
L 517.3065 589.913423 
L 514.7955 589.913423 
z
" style="fill:#1f77b4;"/>
   </g>
   <g id="patch_74">
    <path clip-path="url(#pf474e38635)" d="M 519.8175 768.96 
L 522.3285 768.96 
L 522.3285 584.62483 
L 519.8175 584.62483 
z
" style="fill:#1f77b4;"/>
   </g>
   <g id="patch_75">
    <path clip-path="url(#pf474e38635)" d="M 524.8395 768.96 
L 527.3505 768.96 
L 527.3505 579.865152 
L 524.8395 579.865152 
z
" style="fill:#1f77b4;"/>
   </g>
   <g id="patch_76">
    <path clip-path="url(#pf474e38635)" d="M 529.8615 768.96 
L 532.3725 768.96 
L 532.3725 574.507409 
L 529.8615 574.507409 
z
" style="fill:#1f77b4;"/>
   </g>
   <g id="patch_77">
    <path clip-path="url(#pf474e38635)" d="M 534.8835 768.96 
L 537.3945 768.96 
L 537.3945 569.011686 
L 534.8835 569.011686 
z
" style="fill:#1f77b4;"/>
   </g>
   <g id="patch_78">
    <path clip-path="url(#pf474e38635)" d="M 539.9055 768.96 
L 542.4165 768.96 
L 542.4165 565.738974 
L 539.9055 565.738974 
z
" style="fill:#1f77b4;"/>
   </g>
   <g id="patch_79">
    <path clip-path="url(#pf474e38635)" d="M 544.9275 768.96 
L 547.4385 768.96 
L 547.4385 563.941473 
L 544.9275 563.941473 
z
" style="fill:#1f77b4;"/>
   </g>
   <g id="patch_80">
    <path clip-path="url(#pf474e38635)" d="M 549.9495 768.96 
L 552.4605 768.96 
L 552.4605 560.997065 
L 549.9495 560.997065 
z
" style="fill:#1f77b4;"/>
   </g>
   <g id="patch_81">
    <path clip-path="url(#pf474e38635)" d="M 554.9715 768.96 
L 557.4825 768.96 
L 557.4825 557.491097 
L 554.9715 557.491097 
z
" style="fill:#1f77b4;"/>
   </g>
   <g id="patch_82">
    <path clip-path="url(#pf474e38635)" d="M 559.9935 768.96 
L 562.5045 768.96 
L 562.5045 553.845174 
L 559.9935 553.845174 
z
" style="fill:#1f77b4;"/>
   </g>
   <g id="patch_83">
    <path clip-path="url(#pf474e38635)" d="M 565.0155 768.96 
L 567.5265 768.96 
L 567.5265 549.06318 
L 565.0155 549.06318 
z
" style="fill:#1f77b4;"/>
   </g>
   <g id="patch_84">
    <path clip-path="url(#pf474e38635)" d="M 570.0375 768.96 
L 572.5485 768.96 
L 572.5485 543.115775 
L 570.0375 543.115775 
z
" style="fill:#1f77b4;"/>
   </g>
   <g id="patch_85">
    <path clip-path="url(#pf474e38635)" d="M 575.0595 768.96 
L 577.5705 768.96 
L 577.5705 537.961213 
L 575.0595 537.961213 
z
" style="fill:#1f77b4;"/>
   </g>
   <g id="patch_86">
    <path clip-path="url(#pf474e38635)" d="M 580.0815 768.96 
L 582.5925 768.96 
L 582.5925 535.907084 
L 580.0815 535.907084 
z
" style="fill:#1f77b4;"/>
   </g>
   <g id="patch_87">
    <path clip-path="url(#pf474e38635)" d="M 585.1035 768.96 
L 587.6145 768.96 
L 587.6145 532.832227 
L 585.1035 532.832227 
z
" style="fill:#1f77b4;"/>
   </g>
   <g id="patch_88">
    <path clip-path="url(#pf474e38635)" d="M 590.1255 768.96 
L 592.6365 768.96 
L 592.6365 527.231814 
L 590.1255 527.231814 
z
" style="fill:#1f77b4;"/>
   </g>
   <g id="patch_89">
    <path clip-path="url(#pf474e38635)" d="M 595.1475 768.96 
L 597.6585 768.96 
L 597.6585 522.508456 
L 595.1475 522.508456 
z
" style="fill:#1f77b4;"/>
   </g>
   <g id="patch_90">
    <path clip-path="url(#pf474e38635)" d="M 600.1695 768.96 
L 602.6805 768.96 
L 602.6805 515.963399 
L 600.1695 515.963399 
z
" style="fill:#1f77b4;"/>
   </g>
   <g id="patch_91">
    <path clip-path="url(#pf474e38635)" d="M 605.1915 768.96 
L 607.7025 768.96 
L 607.7025 509.328024 
L 605.1915 509.328024 
z
" style="fill:#1f77b4;"/>
   </g>
   <g id="patch_92">
    <path clip-path="url(#pf474e38635)" d="M 610.2135 768.96 
L 612.7245 768.96 
L 612.7245 504.28155 
L 610.2135 504.28155 
z
" style="fill:#1f77b4;"/>
   </g>
   <g id="patch_93">
    <path clip-path="url(#pf474e38635)" d="M 615.2355 768.96 
L 617.7465 768.96 
L 617.7465 502.859419 
L 615.2355 502.859419 
z
" style="fill:#1f77b4;"/>
   </g>
   <g id="patch_94">
    <path clip-path="url(#pf474e38635)" d="M 620.2575 768.96 
L 622.7685 768.96 
L 622.7685 498.097445 
L 620.2575 498.097445 
z
" style="fill:#1f77b4;"/>
   </g>
   <g id="patch_95">
    <path clip-path="url(#pf474e38635)" d="M 625.2795 768.96 
L 627.7905 768.96 
L 627.7905 490.652007 
L 625.2795 490.652007 
z
" style="fill:#1f77b4;"/>
   </g>
   <g id="patch_96">
    <path clip-path="url(#pf474e38635)" d="M 630.3015 768.96 
L 632.8125 768.96 
L 632.8125 482.383697 
L 630.3015 482.383697 
z
" style="fill:#1f77b4;"/>
   </g>
   <g id="patch_97">
    <path clip-path="url(#pf474e38635)" d="M 635.3235 768.96 
L 637.8345 768.96 
L 637.8345 472.606702 
L 635.3235 472.606702 
z
" style="fill:#1f77b4;"/>
   </g>
   <g id="patch_98">
    <path clip-path="url(#pf474e38635)" d="M 640.3455 768.96 
L 642.8565 768.96 
L 642.8565 461.117933 
L 640.3455 461.117933 
z
" style="fill:#1f77b4;"/>
   </g>
   <g id="patch_99">
    <path clip-path="url(#pf474e38635)" d="M 645.3675 768.96 
L 647.8785 768.96 
L 647.8785 453.52042 
L 645.3675 453.52042 
z
" style="fill:#1f77b4;"/>
   </g>
   <g id="patch_100">
    <path clip-path="url(#pf474e38635)" d="M 650.3895 768.96 
L 652.9005 768.96 
L 652.9005 449.748455 
L 650.3895 449.748455 
z
" style="fill:#1f77b4;"/>
   </g>
   <g id="patch_101">
    <path clip-path="url(#pf474e38635)" d="M 655.4115 768.96 
L 657.9225 768.96 
L 657.9225 443.396157 
L 655.4115 443.396157 
z
" style="fill:#1f77b4;"/>
   </g>
   <g id="patch_102">
    <path clip-path="url(#pf474e38635)" d="M 660.4335 768.96 
L 662.9445 768.96 
L 662.9445 435.546515 
L 660.4335 435.546515 
z
" style="fill:#1f77b4;"/>
   </g>
   <g id="patch_103">
    <path clip-path="url(#pf474e38635)" d="M 665.4555 768.96 
L 667.9665 768.96 
L 667.9665 428.793777 
L 665.4555 428.793777 
z
" style="fill:#1f77b4;"/>
   </g>
   <g id="patch_104">
    <path clip-path="url(#pf474e38635)" d="M 670.4775 768.96 
L 672.9885 768.96 
L 672.9885 419.683722 
L 670.4775 419.683722 
z
" style="fill:#1f77b4;"/>
   </g>
   <g id="patch_105">
    <path clip-path="url(#pf474e38635)" d="M 675.4995 768.96 
L 678.0105 768.96 
L 678.0105 410.81349 
L 675.4995 410.81349 
z
" style="fill:#1f77b4;"/>
   </g>
   <g id="patch_106">
    <path clip-path="url(#pf474e38635)" d="M 680.5215 768.96 
L 683.0325 768.96 
L 683.0325 404.64798 
L 680.5215 404.64798 
z
" style="fill:#1f77b4;"/>
   </g>
   <g id="patch_107">
    <path clip-path="url(#pf474e38635)" d="M 685.5435 768.96 
L 688.0545 768.96 
L 688.0545 401.096187 
L 685.5435 401.096187 
z
" style="fill:#1f77b4;"/>
   </g>
   <g id="patch_108">
    <path clip-path="url(#pf474e38635)" d="M 690.5655 768.96 
L 693.0765 768.96 
L 693.0765 395.98194 
L 690.5655 395.98194 
z
" style="fill:#1f77b4;"/>
   </g>
   <g id="patch_109">
    <path clip-path="url(#pf474e38635)" d="M 695.5875 768.96 
L 698.0985 768.96 
L 698.0985 387.813039 
L 695.5875 387.813039 
z
" style="fill:#1f77b4;"/>
   </g>
   <g id="patch_110">
    <path clip-path="url(#pf474e38635)" d="M 700.6095 768.96 
L 703.1205 768.96 
L 703.1205 380.528999 
L 700.6095 380.528999 
z
" style="fill:#1f77b4;"/>
   </g>
   <g id="patch_111">
    <path clip-path="url(#pf474e38635)" d="M 705.6315 768.96 
L 708.1425 768.96 
L 708.1425 372.811505 
L 705.6315 372.811505 
z
" style="fill:#1f77b4;"/>
   </g>
   <g id="patch_112">
    <path clip-path="url(#pf474e38635)" d="M 710.6535 768.96 
L 713.1645 768.96 
L 713.1645 365.69575 
L 710.6535 365.69575 
z
" style="fill:#1f77b4;"/>
   </g>
   <g id="patch_113">
    <path clip-path="url(#pf474e38635)" d="M 715.6755 768.96 
L 718.1865 768.96 
L 718.1865 360.933409 
L 715.6755 360.933409 
z
" style="fill:#1f77b4;"/>
   </g>
   <g id="patch_114">
    <path clip-path="url(#pf474e38635)" d="M 720.6975 768.96 
L 723.2085 768.96 
L 723.2085 358.884009 
L 720.6975 358.884009 
z
" style="fill:#1f77b4;"/>
   </g>
   <g id="patch_115">
    <path clip-path="url(#pf474e38635)" d="M 725.7195 768.96 
L 728.2305 768.96 
L 728.2305 354.499654 
L 725.7195 354.499654 
z
" style="fill:#1f77b4;"/>
   </g>
   <g id="patch_116">
    <path clip-path="url(#pf474e38635)" d="M 730.7415 768.96 
L 733.2525 768.96 
L 733.2525 348.258015 
L 730.7415 348.258015 
z
" style="fill:#1f77b4;"/>
   </g>
   <g id="patch_117">
    <path clip-path="url(#pf474e38635)" d="M 735.7635 768.96 
L 738.2745 768.96 
L 738.2745 341.749783 
L 735.7635 341.749783 
z
" style="fill:#1f77b4;"/>
   </g>
   <g id="patch_118">
    <path clip-path="url(#pf474e38635)" d="M 740.7855 768.96 
L 743.2965 768.96 
L 743.2965 335.416264 
L 740.7855 335.416264 
z
" style="fill:#1f77b4;"/>
   </g>
   <g id="patch_119">
    <path clip-path="url(#pf474e38635)" d="M 745.8075 768.96 
L 748.3185 768.96 
L 748.3185 330.086852 
L 745.8075 330.086852 
z
" style="fill:#1f77b4;"/>
   </g>
   <g id="patch_120">
    <path clip-path="url(#pf474e38635)" d="M 750.8295 768.96 
L 753.3405 768.96 
L 753.3405 327.698311 
L 750.8295 327.698311 
z
" style="fill:#1f77b4;"/>
   </g>
   <g id="patch_121">
    <path clip-path="url(#pf474e38635)" d="M 755.8515 768.96 
L 758.3625 768.96 
L 758.3625 326.875852 
L 755.8515 326.875852 
z
" style="fill:#1f77b4;"/>
   </g>
   <g id="patch_122">
    <path clip-path="url(#pf474e38635)" d="M 760.8735 768.96 
L 763.3845 768.96 
L 763.3845 324.29639 
L 760.8735 324.29639 
z
" style="fill:#1f77b4;"/>
   </g>
   <g id="patch_123">
    <path clip-path="url(#pf474e38635)" d="M 765.8955 768.96 
L 768.4065 768.96 
L 768.4065 317.502281 
L 765.8955 317.502281 
z
" style="fill:#1f77b4;"/>
   </g>
   <g id="patch_124">
    <path clip-path="url(#pf474e38635)" d="M 770.9175 768.96 
L 773.4285 768.96 
L 773.4285 310.924439 
L 770.9175 310.924439 
z
" style="fill:#1f77b4;"/>
   </g>
   <g id="patch_125">
    <path clip-path="url(#pf474e38635)" d="M 775.9395 768.96 
L 778.4505 768.96 
L 778.4505 305.948218 
L 775.9395 305.948218 
z
" style="fill:#1f77b4;"/>
   </g>
   <g id="patch_126">
    <path clip-path="url(#pf474e38635)" d="M 780.9615 768.96 
L 783.4725 768.96 
L 783.4725 298.677035 
L 780.9615 298.677035 
z
" style="fill:#1f77b4;"/>
   </g>
   <g id="patch_127">
    <path clip-path="url(#pf474e38635)" d="M 785.9835 768.96 
L 788.4945 768.96 
L 788.4945 293.788652 
L 785.9835 293.788652 
z
" style="fill:#1f77b4;"/>
   </g>
   <g id="patch_128">
    <path clip-path="url(#pf474e38635)" d="M 791.0055 768.96 
L 793.5165 768.96 
L 793.5165 289.461096 
L 791.0055 289.461096 
z
" style="fill:#1f77b4;"/>
   </g>
   <g id="patch_129">
    <path clip-path="url(#pf474e38635)" d="M 796.0275 768.96 
L 798.5385 768.96 
L 798.5385 285.737344 
L 796.0275 285.737344 
z
" style="fill:#1f77b4;"/>
   </g>
   <g id="patch_130">
    <path clip-path="url(#pf474e38635)" d="M 801.0495 768.96 
L 803.5605 768.96 
L 803.5605 280.66006 
L 801.0495 280.66006 
z
" style="fill:#1f77b4;"/>
   </g>
   <g id="patch_131">
    <path clip-path="url(#pf474e38635)" d="M 806.0715 768.96 
L 808.5825 768.96 
L 808.5825 276.110175 
L 806.0715 276.110175 
z
" style="fill:#1f77b4;"/>
   </g>
   <g id="patch_132">
    <path clip-path="url(#pf474e38635)" d="M 811.0935 768.96 
L 813.6045 768.96 
L 813.6045 271.399995 
L 811.0935 271.399995 
z
" style="fill:#1f77b4;"/>
   </g>
   <g id="patch_133">
    <path clip-path="url(#pf474e38635)" d="M 816.1155 768.96 
L 818.6265 768.96 
L 818.6265 264.710071 
L 816.1155 264.710071 
z
" style="fill:#1f77b4;"/>
   </g>
   <g id="patch_134">
    <path clip-path="url(#pf474e38635)" d="M 821.1375 768.96 
L 823.6485 768.96 
L 823.6485 260.950275 
L 821.1375 260.950275 
z
" style="fill:#1f77b4;"/>
   </g>
   <g id="patch_135">
    <path clip-path="url(#pf474e38635)" d="M 826.1595 768.96 
L 828.6705 768.96 
L 828.6705 259.447927 
L 826.1595 259.447927 
z
" style="fill:#1f77b4;"/>
   </g>
   <g id="patch_136">
    <path clip-path="url(#pf474e38635)" d="M 831.1815 768.96 
L 833.6925 768.96 
L 833.6925 256.794998 
L 831.1815 256.794998 
z
" style="fill:#1f77b4;"/>
   </g>
   <g id="patch_137">
    <path clip-path="url(#pf474e38635)" d="M 836.2035 768.96 
L 838.7145 768.96 
L 838.7145 251.921447 
L 836.2035 251.921447 
z
" style="fill:#1f77b4;"/>
   </g>
   <g id="patch_138">
    <path clip-path="url(#pf474e38635)" d="M 841.2255 768.96 
L 843.7365 768.96 
L 843.7365 247.579794 
L 841.2255 247.579794 
z
" style="fill:#1f77b4;"/>
   </g>
   <g id="patch_139">
    <path clip-path="url(#pf474e38635)" d="M 846.2475 768.96 
L 848.7585 768.96 
L 848.7585 241.992972 
L 846.2475 241.992972 
z
" style="fill:#1f77b4;"/>
   </g>
   <g id="patch_140">
    <path clip-path="url(#pf474e38635)" d="M 851.2695 768.96 
L 853.7805 768.96 
L 853.7805 238.069713 
L 851.2695 238.069713 
z
" style="fill:#1f77b4;"/>
   </g>
   <g id="patch_141">
    <path clip-path="url(#pf474e38635)" d="M 856.2915 768.96 
L 858.8025 768.96 
L 858.8025 235.107673 
L 856.2915 235.107673 
z
" style="fill:#1f77b4;"/>
   </g>
   <g id="patch_142">
    <path clip-path="url(#pf474e38635)" d="M 861.3135 768.96 
L 863.8245 768.96 
L 863.8245 233.65868 
L 861.3135 233.65868 
z
" style="fill:#1f77b4;"/>
   </g>
   <g id="patch_143">
    <path clip-path="url(#pf474e38635)" d="M 866.3355 768.96 
L 868.8465 768.96 
L 868.8465 231.227116 
L 866.3355 231.227116 
z
" style="fill:#1f77b4;"/>
   </g>
   <g id="patch_144">
    <path clip-path="url(#pf474e38635)" d="M 871.3575 768.96 
L 873.8685 768.96 
L 873.8685 228.28684 
L 871.3575 228.28684 
z
" style="fill:#1f77b4;"/>
   </g>
   <g id="patch_145">
    <path clip-path="url(#pf474e38635)" d="M 876.3795 768.96 
L 878.8905 768.96 
L 878.8905 225.28568 
L 876.3795 225.28568 
z
" style="fill:#1f77b4;"/>
   </g>
   <g id="patch_146">
    <path clip-path="url(#pf474e38635)" d="M 881.4015 768.96 
L 883.9125 768.96 
L 883.9125 222.21445 
L 881.4015 222.21445 
z
" style="fill:#1f77b4;"/>
   </g>
   <g id="patch_147">
    <path clip-path="url(#pf474e38635)" d="M 886.4235 768.96 
L 888.9345 768.96 
L 888.9345 219.435159 
L 886.4235 219.435159 
z
" style="fill:#1f77b4;"/>
   </g>
   <g id="patch_148">
    <path clip-path="url(#pf474e38635)" d="M 891.4455 768.96 
L 893.9565 768.96 
L 893.9565 217.553998 
L 891.4455 217.553998 
z
" style="fill:#1f77b4;"/>
   </g>
   <g id="patch_149">
    <path clip-path="url(#pf474e38635)" d="M 896.4675 768.96 
L 898.9785 768.96 
L 898.9785 216.626435 
L 896.4675 216.626435 
z
" style="fill:#1f77b4;"/>
   </g>
   <g id="patch_150">
    <path clip-path="url(#pf474e38635)" d="M 901.4895 768.96 
L 904.0005 768.96 
L 904.0005 215.832122 
L 901.4895 215.832122 
z
" style="fill:#1f77b4;"/>
   </g>
   <g id="patch_151">
    <path clip-path="url(#pf474e38635)" d="M 906.5115 768.96 
L 909.0225 768.96 
L 909.0225 214.081319 
L 906.5115 214.081319 
z
" style="fill:#1f77b4;"/>
   </g>
   <g id="patch_152">
    <path clip-path="url(#pf474e38635)" d="M 911.5335 768.96 
L 914.0445 768.96 
L 914.0445 212.255992 
L 911.5335 212.255992 
z
" style="fill:#1f77b4;"/>
   </g>
   <g id="patch_153">
    <path clip-path="url(#pf474e38635)" d="M 916.5555 768.96 
L 919.0665 768.96 
L 919.0665 209.722769 
L 916.5555 209.722769 
z
" style="fill:#1f77b4;"/>
   </g>
   <g id="patch_154">
    <path clip-path="url(#pf474e38635)" d="M 921.5775 768.96 
L 924.0885 768.96 
L 924.0885 207.06231 
L 921.5775 207.06231 
z
" style="fill:#1f77b4;"/>
   </g>
   <g id="patch_155">
    <path clip-path="url(#pf474e38635)" d="M 926.5995 768.96 
L 929.1105 768.96 
L 929.1105 204.770011 
L 926.5995 204.770011 
z
" style="fill:#1f77b4;"/>
   </g>
   <g id="patch_156">
    <path clip-path="url(#pf474e38635)" d="M 931.6215 768.96 
L 934.1325 768.96 
L 934.1325 203.276662 
L 931.6215 203.276662 
z
" style="fill:#1f77b4;"/>
   </g>
   <g id="patch_157">
    <path clip-path="url(#pf474e38635)" d="M 936.6435 768.96 
L 939.1545 768.96 
L 939.1545 201.143556 
L 936.6435 201.143556 
z
" style="fill:#1f77b4;"/>
   </g>
   <g id="patch_158">
    <path clip-path="url(#pf474e38635)" d="M 941.6655 768.96 
L 944.1765 768.96 
L 944.1765 198.633521 
L 941.6655 198.633521 
z
" style="fill:#1f77b4;"/>
   </g>
   <g id="patch_159">
    <path clip-path="url(#pf474e38635)" d="M 946.6875 768.96 
L 949.1985 768.96 
L 949.1985 195.572209 
L 946.6875 195.572209 
z
" style="fill:#1f77b4;"/>
   </g>
   <g id="patch_160">
    <path clip-path="url(#pf474e38635)" d="M 951.7095 768.96 
L 954.2205 768.96 
L 954.2205 193.365131 
L 951.7095 193.365131 
z
" style="fill:#1f77b4;"/>
   </g>
   <g id="patch_161">
    <path clip-path="url(#pf474e38635)" d="M 956.7315 768.96 
L 959.2425 768.96 
L 959.2425 191.299982 
L 956.7315 191.299982 
z
" style="fill:#1f77b4;"/>
   </g>
   <g id="patch_162">
    <path clip-path="url(#pf474e38635)" d="M 961.7535 768.96 
L 964.2645 768.96 
L 964.2645 190.073134 
L 961.7535 190.073134 
z
" style="fill:#1f77b4;"/>
   </g>
   <g id="patch_163">
    <path clip-path="url(#pf474e38635)" d="M 966.7755 768.96 
L 969.2865 768.96 
L 969.2865 188.885545 
L 966.7755 188.885545 
z
" style="fill:#1f77b4;"/>
   </g>
   <g id="patch_164">
    <path clip-path="url(#pf474e38635)" d="M 971.7975 768.96 
L 974.3085 768.96 
L 974.3085 185.248254 
L 971.7975 185.248254 
z
" style="fill:#1f77b4;"/>
   </g>
   <g id="patch_165">
    <path clip-path="url(#pf474e38635)" d="M 976.8195 768.96 
L 979.3305 768.96 
L 979.3305 182.436408 
L 976.8195 182.436408 
z
" style="fill:#1f77b4;"/>
   </g>
   <g id="patch_166">
    <path clip-path="url(#pf474e38635)" d="M 981.8415 768.96 
L 984.3525 768.96 
L 984.3525 180.446471 
L 981.8415 180.446471 
z
" style="fill:#1f77b4;"/>
   </g>
   <g id="patch_167">
    <path clip-path="url(#pf474e38635)" d="M 986.8635 768.96 
L 989.3745 768.96 
L 989.3745 177.934736 
L 986.8635 177.934736 
z
" style="fill:#1f77b4;"/>
   </g>
   <g id="patch_168">
    <path clip-path="url(#pf474e38635)" d="M 991.8855 768.96 
L 994.3965 768.96 
L 994.3965 176.671843 
L 991.8855 176.671843 
z
" style="fill:#1f77b4;"/>
   </g>
   <g id="patch_169">
    <path clip-path="url(#pf474e38635)" d="M 996.9075 768.96 
L 999.4185 768.96 
L 999.4185 174.743939 
L 996.9075 174.743939 
z
" style="fill:#1f77b4;"/>
   </g>
   <g id="patch_170">
    <path clip-path="url(#pf474e38635)" d="M 1001.9295 768.96 
L 1004.4405 768.96 
L 1004.4405 173.923637 
L 1001.9295 173.923637 
z
" style="fill:#1f77b4;"/>
   </g>
   <g id="patch_171">
    <path clip-path="url(#pf474e38635)" d="M 1006.9515 768.96 
L 1009.4625 768.96 
L 1009.4625 172.84285 
L 1006.9515 172.84285 
z
" style="fill:#1f77b4;"/>
   </g>
   <g id="patch_172">
    <path clip-path="url(#pf474e38635)" d="M 1011.9735 768.96 
L 1014.4845 768.96 
L 1014.4845 171.566045 
L 1011.9735 171.566045 
z
" style="fill:#1f77b4;"/>
   </g>
   <g id="patch_173">
    <path clip-path="url(#pf474e38635)" d="M 1016.9955 768.96 
L 1019.5065 768.96 
L 1019.5065 170.013648 
L 1016.9955 170.013648 
z
" style="fill:#1f77b4;"/>
   </g>
   <g id="patch_174">
    <path clip-path="url(#pf474e38635)" d="M 1022.0175 768.96 
L 1024.5285 768.96 
L 1024.5285 168.147088 
L 1022.0175 168.147088 
z
" style="fill:#1f77b4;"/>
   </g>
   <g id="patch_175">
    <path clip-path="url(#pf474e38635)" d="M 1027.0395 768.96 
L 1029.5505 768.96 
L 1029.5505 163.787803 
L 1027.0395 163.787803 
z
" style="fill:#1f77b4;"/>
   </g>
   <g id="patch_176">
    <path clip-path="url(#pf474e38635)" d="M 1032.0615 768.96 
L 1034.5725 768.96 
L 1034.5725 158.57355 
L 1032.0615 158.57355 
z
" style="fill:#1f77b4;"/>
   </g>
   <g id="patch_177">
    <path clip-path="url(#pf474e38635)" d="M 1037.0835 768.96 
L 1039.5945 768.96 
L 1039.5945 158.157958 
L 1037.0835 158.157958 
z
" style="fill:#1f77b4;"/>
   </g>
   <g id="patch_178">
    <path clip-path="url(#pf474e38635)" d="M 1042.1055 768.96 
L 1044.6165 768.96 
L 1044.6165 157.082957 
L 1042.1055 157.082957 
z
" style="fill:#1f77b4;"/>
   </g>
   <g id="patch_179">
    <path clip-path="url(#pf474e38635)" d="M 1047.1275 768.96 
L 1049.6385 768.96 
L 1049.6385 155.728919 
L 1047.1275 155.728919 
z
" style="fill:#1f77b4;"/>
   </g>
   <g id="patch_180">
    <path clip-path="url(#pf474e38635)" d="M 1052.1495 768.96 
L 1054.6605 768.96 
L 1054.6605 154.404728 
L 1052.1495 154.404728 
z
" style="fill:#1f77b4;"/>
   </g>
   <g id="patch_181">
    <path clip-path="url(#pf474e38635)" d="M 1057.1715 768.96 
L 1059.6825 768.96 
L 1059.6825 153.184997 
L 1057.1715 153.184997 
z
" style="fill:#1f77b4;"/>
   </g>
   <g id="patch_182">
    <path clip-path="url(#pf474e38635)" d="M 1062.1935 768.96 
L 1064.7045 768.96 
L 1064.7045 151.902681 
L 1062.1935 151.902681 
z
" style="fill:#1f77b4;"/>
   </g>
   <g id="patch_183">
    <path clip-path="url(#pf474e38635)" d="M 1067.2155 768.96 
L 1069.7265 768.96 
L 1069.7265 151.048723 
L 1067.2155 151.048723 
z
" style="fill:#1f77b4;"/>
   </g>
   <g id="patch_184">
    <path clip-path="url(#pf474e38635)" d="M 1072.2375 768.96 
L 1074.7485 768.96 
L 1074.7485 150.633682 
L 1072.2375 150.633682 
z
" style="fill:#1f77b4;"/>
   </g>
   <g id="patch_185">
    <path clip-path="url(#pf474e38635)" d="M 1077.2595 768.96 
L 1079.7705 768.96 
L 1079.7705 150.561868 
L 1077.2595 150.561868 
z
" style="fill:#1f77b4;"/>
   </g>
   <g id="patch_186">
    <path clip-path="url(#pf474e38635)" d="M 1082.2815 768.96 
L 1084.7925 768.96 
L 1084.7925 149.874449 
L 1082.2815 149.874449 
z
" style="fill:#1f77b4;"/>
   </g>
   <g id="patch_187">
    <path clip-path="url(#pf474e38635)" d="M 1087.3035 768.96 
L 1089.8145 768.96 
L 1089.8145 148.646499 
L 1087.3035 148.646499 
z
" style="fill:#1f77b4;"/>
   </g>
   <g id="patch_188">
    <path clip-path="url(#pf474e38635)" d="M 1092.3255 768.96 
L 1094.8365 768.96 
L 1094.8365 147.413958 
L 1092.3255 147.413958 
z
" style="fill:#1f77b4;"/>
   </g>
   <g id="patch_189">
    <path clip-path="url(#pf474e38635)" d="M 1097.3475 768.96 
L 1099.8585 768.96 
L 1099.8585 146.317329 
L 1097.3475 146.317329 
z
" style="fill:#1f77b4;"/>
   </g>
   <g id="patch_190">
    <path clip-path="url(#pf474e38635)" d="M 1102.3695 768.96 
L 1104.8805 768.96 
L 1104.8805 145.427005 
L 1102.3695 145.427005 
z
" style="fill:#1f77b4;"/>
   </g>
   <g id="patch_191">
    <path clip-path="url(#pf474e38635)" d="M 1107.3915 768.96 
L 1109.9025 768.96 
L 1109.9025 144.831144 
L 1107.3915 144.831144 
z
" style="fill:#1f77b4;"/>
   </g>
   <g id="patch_192">
    <path clip-path="url(#pf474e38635)" d="M 1112.4135 768.96 
L 1114.9245 768.96 
L 1114.9245 143.689563 
L 1112.4135 143.689563 
z
" style="fill:#1f77b4;"/>
   </g>
   <g id="patch_193">
    <path clip-path="url(#pf474e38635)" d="M 1117.4355 768.96 
L 1119.9465 768.96 
L 1119.9465 142.726047 
L 1117.4355 142.726047 
z
" style="fill:#1f77b4;"/>
   </g>
   <g id="patch_194">
    <path clip-path="url(#pf474e38635)" d="M 1122.4575 768.96 
L 1124.9685 768.96 
L 1124.9685 141.810239 
L 1122.4575 141.810239 
z
" style="fill:#1f77b4;"/>
   </g>
   <g id="patch_195">
    <path clip-path="url(#pf474e38635)" d="M 1127.4795 768.96 
L 1129.9905 768.96 
L 1129.9905 140.888875 
L 1127.4795 140.888875 
z
" style="fill:#1f77b4;"/>
   </g>
   <g id="patch_196">
    <path clip-path="url(#pf474e38635)" d="M 1132.5015 768.96 
L 1135.0125 768.96 
L 1135.0125 139.978025 
L 1132.5015 139.978025 
z
" style="fill:#1f77b4;"/>
   </g>
   <g id="patch_197">
    <path clip-path="url(#pf474e38635)" d="M 1137.5235 768.96 
L 1140.0345 768.96 
L 1140.0345 139.240328 
L 1137.5235 139.240328 
z
" style="fill:#1f77b4;"/>
   </g>
   <g id="patch_198">
    <path clip-path="url(#pf474e38635)" d="M 1142.5455 768.96 
L 1145.0565 768.96 
L 1145.0565 138.822532 
L 1142.5455 138.822532 
z
" style="fill:#1f77b4;"/>
   </g>
   <g id="patch_199">
    <path clip-path="url(#pf474e38635)" d="M 1147.5675 768.96 
L 1150.0785 768.96 
L 1150.0785 138.062197 
L 1147.5675 138.062197 
z
" style="fill:#1f77b4;"/>
   </g>
   <g id="patch_200">
    <path clip-path="url(#pf474e38635)" d="M 1152.5895 768.96 
L 1155.1005 768.96 
L 1155.1005 137.029852 
L 1152.5895 137.029852 
z
" style="fill:#1f77b4;"/>
   </g>
   <g id="patch_201">
    <path clip-path="url(#pf474e38635)" d="M 1157.6115 768.96 
L 1160.1225 768.96 
L 1160.1225 136.068678 
L 1157.6115 136.068678 
z
" style="fill:#1f77b4;"/>
   </g>
   <g id="patch_202">
    <path clip-path="url(#pf474e38635)" d="M 1162.6335 768.96 
L 1165.1445 768.96 
L 1165.1445 135.36 
L 1162.6335 135.36 
z
" style="fill:#1f77b4;"/>
   </g>
   <g id="matplotlib.axis_1">
    <g id="xtick_1">
     <g id="line2d_1">
      <defs>
       <path d="M 0 0 
L 0 3.5 
" id="m113b7761ec" style="stroke:#000000;stroke-width:0.8;"/>
      </defs>
      <g>
       <use style="stroke:#000000;stroke-width:0.8;" x="164.511" xlink:href="#m113b7761ec" y="768.96"/>
      </g>
     </g>
     <g id="text_1">
      <!-- January -->
      <g transform="translate(145.555531 783.558437)scale(0.1 -0.1)">
       <defs>
        <path d="M 628 4666 
L 1259 4666 
L 1259 325 
Q 1259 -519 939 -900 
Q 619 -1281 -91 -1281 
L -331 -1281 
L -331 -750 
L -134 -750 
Q 284 -750 456 -515 
Q 628 -281 628 325 
L 628 4666 
z
" id="DejaVuSans-4a" transform="scale(0.015625)"/>
        <path d="M 2194 1759 
Q 1497 1759 1228 1600 
Q 959 1441 959 1056 
Q 959 750 1161 570 
Q 1363 391 1709 391 
Q 2188 391 2477 730 
Q 2766 1069 2766 1631 
L 2766 1759 
L 2194 1759 
z
M 3341 1997 
L 3341 0 
L 2766 0 
L 2766 531 
Q 2569 213 2275 61 
Q 1981 -91 1556 -91 
Q 1019 -91 701 211 
Q 384 513 384 1019 
Q 384 1609 779 1909 
Q 1175 2209 1959 2209 
L 2766 2209 
L 2766 2266 
Q 2766 2663 2505 2880 
Q 2244 3097 1772 3097 
Q 1472 3097 1187 3025 
Q 903 2953 641 2809 
L 641 3341 
Q 956 3463 1253 3523 
Q 1550 3584 1831 3584 
Q 2591 3584 2966 3190 
Q 3341 2797 3341 1997 
z
" id="DejaVuSans-61" transform="scale(0.015625)"/>
        <path d="M 3513 2113 
L 3513 0 
L 2938 0 
L 2938 2094 
Q 2938 2591 2744 2837 
Q 2550 3084 2163 3084 
Q 1697 3084 1428 2787 
Q 1159 2491 1159 1978 
L 1159 0 
L 581 0 
L 581 3500 
L 1159 3500 
L 1159 2956 
Q 1366 3272 1645 3428 
Q 1925 3584 2291 3584 
Q 2894 3584 3203 3211 
Q 3513 2838 3513 2113 
z
" id="DejaVuSans-6e" transform="scale(0.015625)"/>
        <path d="M 544 1381 
L 544 3500 
L 1119 3500 
L 1119 1403 
Q 1119 906 1312 657 
Q 1506 409 1894 409 
Q 2359 409 2629 706 
Q 2900 1003 2900 1516 
L 2900 3500 
L 3475 3500 
L 3475 0 
L 2900 0 
L 2900 538 
Q 2691 219 2414 64 
Q 2138 -91 1772 -91 
Q 1169 -91 856 284 
Q 544 659 544 1381 
z
M 1991 3584 
L 1991 3584 
z
" id="DejaVuSans-75" transform="scale(0.015625)"/>
        <path d="M 2631 2963 
Q 2534 3019 2420 3045 
Q 2306 3072 2169 3072 
Q 1681 3072 1420 2755 
Q 1159 2438 1159 1844 
L 1159 0 
L 581 0 
L 581 3500 
L 1159 3500 
L 1159 2956 
Q 1341 3275 1631 3429 
Q 1922 3584 2338 3584 
Q 2397 3584 2469 3576 
Q 2541 3569 2628 3553 
L 2631 2963 
z
" id="DejaVuSans-72" transform="scale(0.015625)"/>
        <path d="M 2059 -325 
Q 1816 -950 1584 -1140 
Q 1353 -1331 966 -1331 
L 506 -1331 
L 506 -850 
L 844 -850 
Q 1081 -850 1212 -737 
Q 1344 -625 1503 -206 
L 1606 56 
L 191 3500 
L 800 3500 
L 1894 763 
L 2988 3500 
L 3597 3500 
L 2059 -325 
z
" id="DejaVuSans-79" transform="scale(0.015625)"/>
       </defs>
       <use xlink:href="#DejaVuSans-4a"/>
       <use x="29.492188" xlink:href="#DejaVuSans-61"/>
       <use x="90.771484" xlink:href="#DejaVuSans-6e"/>
       <use x="154.150391" xlink:href="#DejaVuSans-75"/>
       <use x="217.529297" xlink:href="#DejaVuSans-61"/>
       <use x="278.808594" xlink:href="#DejaVuSans-72"/>
       <use x="319.921875" xlink:href="#DejaVuSans-79"/>
      </g>
     </g>
    </g>
    <g id="xtick_2">
     <g id="line2d_2">
      <g>
       <use style="stroke:#000000;stroke-width:0.8;" x="320.193" xlink:href="#m113b7761ec" y="768.96"/>
      </g>
     </g>
     <g id="text_2">
      <!-- February -->
      <g transform="translate(298.038312 783.558437)scale(0.1 -0.1)">
       <defs>
        <path d="M 628 4666 
L 3309 4666 
L 3309 4134 
L 1259 4134 
L 1259 2759 
L 3109 2759 
L 3109 2228 
L 1259 2228 
L 1259 0 
L 628 0 
L 628 4666 
z
" id="DejaVuSans-46" transform="scale(0.015625)"/>
        <path d="M 3597 1894 
L 3597 1613 
L 953 1613 
Q 991 1019 1311 708 
Q 1631 397 2203 397 
Q 2534 397 2845 478 
Q 3156 559 3463 722 
L 3463 178 
Q 3153 47 2828 -22 
Q 2503 -91 2169 -91 
Q 1331 -91 842 396 
Q 353 884 353 1716 
Q 353 2575 817 3079 
Q 1281 3584 2069 3584 
Q 2775 3584 3186 3129 
Q 3597 2675 3597 1894 
z
M 3022 2063 
Q 3016 2534 2758 2815 
Q 2500 3097 2075 3097 
Q 1594 3097 1305 2825 
Q 1016 2553 972 2059 
L 3022 2063 
z
" id="DejaVuSans-65" transform="scale(0.015625)"/>
        <path d="M 3116 1747 
Q 3116 2381 2855 2742 
Q 2594 3103 2138 3103 
Q 1681 3103 1420 2742 
Q 1159 2381 1159 1747 
Q 1159 1113 1420 752 
Q 1681 391 2138 391 
Q 2594 391 2855 752 
Q 3116 1113 3116 1747 
z
M 1159 2969 
Q 1341 3281 1617 3432 
Q 1894 3584 2278 3584 
Q 2916 3584 3314 3078 
Q 3713 2572 3713 1747 
Q 3713 922 3314 415 
Q 2916 -91 2278 -91 
Q 1894 -91 1617 61 
Q 1341 213 1159 525 
L 1159 0 
L 581 0 
L 581 4863 
L 1159 4863 
L 1159 2969 
z
" id="DejaVuSans-62" transform="scale(0.015625)"/>
       </defs>
       <use xlink:href="#DejaVuSans-46"/>
       <use x="52.019531" xlink:href="#DejaVuSans-65"/>
       <use x="113.542969" xlink:href="#DejaVuSans-62"/>
       <use x="177.019531" xlink:href="#DejaVuSans-72"/>
       <use x="218.132812" xlink:href="#DejaVuSans-75"/>
       <use x="281.511719" xlink:href="#DejaVuSans-61"/>
       <use x="342.791016" xlink:href="#DejaVuSans-72"/>
       <use x="383.904297" xlink:href="#DejaVuSans-79"/>
      </g>
     </g>
    </g>
    <g id="xtick_3">
     <g id="line2d_3">
      <g>
       <use style="stroke:#000000;stroke-width:0.8;" x="460.809" xlink:href="#m113b7761ec" y="768.96"/>
      </g>
     </g>
     <g id="text_3">
      <!-- March -->
      <g transform="translate(445.569937 783.558437)scale(0.1 -0.1)">
       <defs>
        <path d="M 628 4666 
L 1569 4666 
L 2759 1491 
L 3956 4666 
L 4897 4666 
L 4897 0 
L 4281 0 
L 4281 4097 
L 3078 897 
L 2444 897 
L 1241 4097 
L 1241 0 
L 628 0 
L 628 4666 
z
" id="DejaVuSans-4d" transform="scale(0.015625)"/>
        <path d="M 3122 3366 
L 3122 2828 
Q 2878 2963 2633 3030 
Q 2388 3097 2138 3097 
Q 1578 3097 1268 2742 
Q 959 2388 959 1747 
Q 959 1106 1268 751 
Q 1578 397 2138 397 
Q 2388 397 2633 464 
Q 2878 531 3122 666 
L 3122 134 
Q 2881 22 2623 -34 
Q 2366 -91 2075 -91 
Q 1284 -91 818 406 
Q 353 903 353 1747 
Q 353 2603 823 3093 
Q 1294 3584 2113 3584 
Q 2378 3584 2631 3529 
Q 2884 3475 3122 3366 
z
" id="DejaVuSans-63" transform="scale(0.015625)"/>
        <path d="M 3513 2113 
L 3513 0 
L 2938 0 
L 2938 2094 
Q 2938 2591 2744 2837 
Q 2550 3084 2163 3084 
Q 1697 3084 1428 2787 
Q 1159 2491 1159 1978 
L 1159 0 
L 581 0 
L 581 4863 
L 1159 4863 
L 1159 2956 
Q 1366 3272 1645 3428 
Q 1925 3584 2291 3584 
Q 2894 3584 3203 3211 
Q 3513 2838 3513 2113 
z
" id="DejaVuSans-68" transform="scale(0.015625)"/>
       </defs>
       <use xlink:href="#DejaVuSans-4d"/>
       <use x="86.279297" xlink:href="#DejaVuSans-61"/>
       <use x="147.558594" xlink:href="#DejaVuSans-72"/>
       <use x="186.421875" xlink:href="#DejaVuSans-63"/>
       <use x="241.402344" xlink:href="#DejaVuSans-68"/>
      </g>
     </g>
    </g>
    <g id="xtick_4">
     <g id="line2d_4">
      <g>
       <use style="stroke:#000000;stroke-width:0.8;" x="616.491" xlink:href="#m113b7761ec" y="768.96"/>
      </g>
     </g>
     <g id="text_4">
      <!-- April -->
      <g transform="translate(605.062875 783.558437)scale(0.1 -0.1)">
       <defs>
        <path d="M 2188 4044 
L 1331 1722 
L 3047 1722 
L 2188 4044 
z
M 1831 4666 
L 2547 4666 
L 4325 0 
L 3669 0 
L 3244 1197 
L 1141 1197 
L 716 0 
L 50 0 
L 1831 4666 
z
" id="DejaVuSans-41" transform="scale(0.015625)"/>
        <path d="M 1159 525 
L 1159 -1331 
L 581 -1331 
L 581 3500 
L 1159 3500 
L 1159 2969 
Q 1341 3281 1617 3432 
Q 1894 3584 2278 3584 
Q 2916 3584 3314 3078 
Q 3713 2572 3713 1747 
Q 3713 922 3314 415 
Q 2916 -91 2278 -91 
Q 1894 -91 1617 61 
Q 1341 213 1159 525 
z
M 3116 1747 
Q 3116 2381 2855 2742 
Q 2594 3103 2138 3103 
Q 1681 3103 1420 2742 
Q 1159 2381 1159 1747 
Q 1159 1113 1420 752 
Q 1681 391 2138 391 
Q 2594 391 2855 752 
Q 3116 1113 3116 1747 
z
" id="DejaVuSans-70" transform="scale(0.015625)"/>
        <path d="M 603 3500 
L 1178 3500 
L 1178 0 
L 603 0 
L 603 3500 
z
M 603 4863 
L 1178 4863 
L 1178 4134 
L 603 4134 
L 603 4863 
z
" id="DejaVuSans-69" transform="scale(0.015625)"/>
        <path d="M 603 4863 
L 1178 4863 
L 1178 0 
L 603 0 
L 603 4863 
z
" id="DejaVuSans-6c" transform="scale(0.015625)"/>
       </defs>
       <use xlink:href="#DejaVuSans-41"/>
       <use x="68.408203" xlink:href="#DejaVuSans-70"/>
       <use x="131.884766" xlink:href="#DejaVuSans-72"/>
       <use x="172.998047" xlink:href="#DejaVuSans-69"/>
       <use x="200.78125" xlink:href="#DejaVuSans-6c"/>
      </g>
     </g>
    </g>
    <g id="xtick_5">
     <g id="line2d_5">
      <g>
       <use style="stroke:#000000;stroke-width:0.8;" x="767.151" xlink:href="#m113b7761ec" y="768.96"/>
      </g>
     </g>
     <g id="text_5">
      <!-- May -->
      <g transform="translate(756.8135 783.558437)scale(0.1 -0.1)">
       <use xlink:href="#DejaVuSans-4d"/>
       <use x="86.279297" xlink:href="#DejaVuSans-61"/>
       <use x="147.558594" xlink:href="#DejaVuSans-79"/>
      </g>
     </g>
    </g>
    <g id="xtick_6">
     <g id="line2d_6">
      <g>
       <use style="stroke:#000000;stroke-width:0.8;" x="922.833" xlink:href="#m113b7761ec" y="768.96"/>
      </g>
     </g>
     <g id="text_6">
      <!-- June -->
      <g transform="translate(911.943937 783.558437)scale(0.1 -0.1)">
       <use xlink:href="#DejaVuSans-4a"/>
       <use x="29.492188" xlink:href="#DejaVuSans-75"/>
       <use x="92.871094" xlink:href="#DejaVuSans-6e"/>
       <use x="156.25" xlink:href="#DejaVuSans-65"/>
      </g>
     </g>
    </g>
    <g id="xtick_7">
     <g id="line2d_7">
      <g>
       <use style="stroke:#000000;stroke-width:0.8;" x="1073.493" xlink:href="#m113b7761ec" y="768.96"/>
      </g>
     </g>
     <g id="text_7">
      <!-- July -->
      <g transform="translate(1064.500813 783.558437)scale(0.1 -0.1)">
       <use xlink:href="#DejaVuSans-4a"/>
       <use x="29.492188" xlink:href="#DejaVuSans-75"/>
       <use x="92.871094" xlink:href="#DejaVuSans-6c"/>
       <use x="120.654297" xlink:href="#DejaVuSans-79"/>
      </g>
     </g>
    </g>
   </g>
   <g id="matplotlib.axis_2">
    <g id="ytick_1">
     <g id="line2d_8">
      <defs>
       <path d="M 0 0 
L -3.5 0 
" id="mbbfa5fa2ef" style="stroke:#000000;stroke-width:0.8;"/>
      </defs>
      <g>
       <use style="stroke:#000000;stroke-width:0.8;" x="162" xlink:href="#mbbfa5fa2ef" y="768.96"/>
      </g>
     </g>
     <g id="text_8">
      <!-- 0.0 -->
      <g transform="translate(139.096875 772.759219)scale(0.1 -0.1)">
       <defs>
        <path d="M 2034 4250 
Q 1547 4250 1301 3770 
Q 1056 3291 1056 2328 
Q 1056 1369 1301 889 
Q 1547 409 2034 409 
Q 2525 409 2770 889 
Q 3016 1369 3016 2328 
Q 3016 3291 2770 3770 
Q 2525 4250 2034 4250 
z
M 2034 4750 
Q 2819 4750 3233 4129 
Q 3647 3509 3647 2328 
Q 3647 1150 3233 529 
Q 2819 -91 2034 -91 
Q 1250 -91 836 529 
Q 422 1150 422 2328 
Q 422 3509 836 4129 
Q 1250 4750 2034 4750 
z
" id="DejaVuSans-30" transform="scale(0.015625)"/>
        <path d="M 684 794 
L 1344 794 
L 1344 0 
L 684 0 
L 684 794 
z
" id="DejaVuSans-2e" transform="scale(0.015625)"/>
       </defs>
       <use xlink:href="#DejaVuSans-30"/>
       <use x="63.623047" xlink:href="#DejaVuSans-2e"/>
       <use x="95.410156" xlink:href="#DejaVuSans-30"/>
      </g>
     </g>
    </g>
    <g id="ytick_2">
     <g id="line2d_9">
      <g>
       <use style="stroke:#000000;stroke-width:0.8;" x="162" xlink:href="#mbbfa5fa2ef" y="677.12662"/>
      </g>
     </g>
     <g id="text_9">
      <!-- 0.2 -->
      <g transform="translate(139.096875 680.925838)scale(0.1 -0.1)">
       <defs>
        <path d="M 1228 531 
L 3431 531 
L 3431 0 
L 469 0 
L 469 531 
Q 828 903 1448 1529 
Q 2069 2156 2228 2338 
Q 2531 2678 2651 2914 
Q 2772 3150 2772 3378 
Q 2772 3750 2511 3984 
Q 2250 4219 1831 4219 
Q 1534 4219 1204 4116 
Q 875 4013 500 3803 
L 500 4441 
Q 881 4594 1212 4672 
Q 1544 4750 1819 4750 
Q 2544 4750 2975 4387 
Q 3406 4025 3406 3419 
Q 3406 3131 3298 2873 
Q 3191 2616 2906 2266 
Q 2828 2175 2409 1742 
Q 1991 1309 1228 531 
z
" id="DejaVuSans-32" transform="scale(0.015625)"/>
       </defs>
       <use xlink:href="#DejaVuSans-30"/>
       <use x="63.623047" xlink:href="#DejaVuSans-2e"/>
       <use x="95.410156" xlink:href="#DejaVuSans-32"/>
      </g>
     </g>
    </g>
    <g id="ytick_3">
     <g id="line2d_10">
      <g>
       <use style="stroke:#000000;stroke-width:0.8;" x="162" xlink:href="#mbbfa5fa2ef" y="585.293239"/>
      </g>
     </g>
     <g id="text_10">
      <!-- 0.4 -->
      <g transform="translate(139.096875 589.092458)scale(0.1 -0.1)">
       <defs>
        <path d="M 2419 4116 
L 825 1625 
L 2419 1625 
L 2419 4116 
z
M 2253 4666 
L 3047 4666 
L 3047 1625 
L 3713 1625 
L 3713 1100 
L 3047 1100 
L 3047 0 
L 2419 0 
L 2419 1100 
L 313 1100 
L 313 1709 
L 2253 4666 
z
" id="DejaVuSans-34" transform="scale(0.015625)"/>
       </defs>
       <use xlink:href="#DejaVuSans-30"/>
       <use x="63.623047" xlink:href="#DejaVuSans-2e"/>
       <use x="95.410156" xlink:href="#DejaVuSans-34"/>
      </g>
     </g>
    </g>
    <g id="ytick_4">
     <g id="line2d_11">
      <g>
       <use style="stroke:#000000;stroke-width:0.8;" x="162" xlink:href="#mbbfa5fa2ef" y="493.459859"/>
      </g>
     </g>
     <g id="text_11">
      <!-- 0.6 -->
      <g transform="translate(139.096875 497.259078)scale(0.1 -0.1)">
       <defs>
        <path d="M 2113 2584 
Q 1688 2584 1439 2293 
Q 1191 2003 1191 1497 
Q 1191 994 1439 701 
Q 1688 409 2113 409 
Q 2538 409 2786 701 
Q 3034 994 3034 1497 
Q 3034 2003 2786 2293 
Q 2538 2584 2113 2584 
z
M 3366 4563 
L 3366 3988 
Q 3128 4100 2886 4159 
Q 2644 4219 2406 4219 
Q 1781 4219 1451 3797 
Q 1122 3375 1075 2522 
Q 1259 2794 1537 2939 
Q 1816 3084 2150 3084 
Q 2853 3084 3261 2657 
Q 3669 2231 3669 1497 
Q 3669 778 3244 343 
Q 2819 -91 2113 -91 
Q 1303 -91 875 529 
Q 447 1150 447 2328 
Q 447 3434 972 4092 
Q 1497 4750 2381 4750 
Q 2619 4750 2861 4703 
Q 3103 4656 3366 4563 
z
" id="DejaVuSans-36" transform="scale(0.015625)"/>
       </defs>
       <use xlink:href="#DejaVuSans-30"/>
       <use x="63.623047" xlink:href="#DejaVuSans-2e"/>
       <use x="95.410156" xlink:href="#DejaVuSans-36"/>
      </g>
     </g>
    </g>
    <g id="ytick_5">
     <g id="line2d_12">
      <g>
       <use style="stroke:#000000;stroke-width:0.8;" x="162" xlink:href="#mbbfa5fa2ef" y="401.626478"/>
      </g>
     </g>
     <g id="text_12">
      <!-- 0.8 -->
      <g transform="translate(139.096875 405.425697)scale(0.1 -0.1)">
       <defs>
        <path d="M 2034 2216 
Q 1584 2216 1326 1975 
Q 1069 1734 1069 1313 
Q 1069 891 1326 650 
Q 1584 409 2034 409 
Q 2484 409 2743 651 
Q 3003 894 3003 1313 
Q 3003 1734 2745 1975 
Q 2488 2216 2034 2216 
z
M 1403 2484 
Q 997 2584 770 2862 
Q 544 3141 544 3541 
Q 544 4100 942 4425 
Q 1341 4750 2034 4750 
Q 2731 4750 3128 4425 
Q 3525 4100 3525 3541 
Q 3525 3141 3298 2862 
Q 3072 2584 2669 2484 
Q 3125 2378 3379 2068 
Q 3634 1759 3634 1313 
Q 3634 634 3220 271 
Q 2806 -91 2034 -91 
Q 1263 -91 848 271 
Q 434 634 434 1313 
Q 434 1759 690 2068 
Q 947 2378 1403 2484 
z
M 1172 3481 
Q 1172 3119 1398 2916 
Q 1625 2713 2034 2713 
Q 2441 2713 2670 2916 
Q 2900 3119 2900 3481 
Q 2900 3844 2670 4047 
Q 2441 4250 2034 4250 
Q 1625 4250 1398 4047 
Q 1172 3844 1172 3481 
z
" id="DejaVuSans-38" transform="scale(0.015625)"/>
       </defs>
       <use xlink:href="#DejaVuSans-30"/>
       <use x="63.623047" xlink:href="#DejaVuSans-2e"/>
       <use x="95.410156" xlink:href="#DejaVuSans-38"/>
      </g>
     </g>
    </g>
    <g id="ytick_6">
     <g id="line2d_13">
      <g>
       <use style="stroke:#000000;stroke-width:0.8;" x="162" xlink:href="#mbbfa5fa2ef" y="309.793098"/>
      </g>
     </g>
     <g id="text_13">
      <!-- 1.0 -->
      <g transform="translate(139.096875 313.592317)scale(0.1 -0.1)">
       <defs>
        <path d="M 794 531 
L 1825 531 
L 1825 4091 
L 703 3866 
L 703 4441 
L 1819 4666 
L 2450 4666 
L 2450 531 
L 3481 531 
L 3481 0 
L 794 0 
L 794 531 
z
" id="DejaVuSans-31" transform="scale(0.015625)"/>
       </defs>
       <use xlink:href="#DejaVuSans-31"/>
       <use x="63.623047" xlink:href="#DejaVuSans-2e"/>
       <use x="95.410156" xlink:href="#DejaVuSans-30"/>
      </g>
     </g>
    </g>
    <g id="ytick_7">
     <g id="line2d_14">
      <g>
       <use style="stroke:#000000;stroke-width:0.8;" x="162" xlink:href="#mbbfa5fa2ef" y="217.959718"/>
      </g>
     </g>
     <g id="text_14">
      <!-- 1.2 -->
      <g transform="translate(139.096875 221.758936)scale(0.1 -0.1)">
       <use xlink:href="#DejaVuSans-31"/>
       <use x="63.623047" xlink:href="#DejaVuSans-2e"/>
       <use x="95.410156" xlink:href="#DejaVuSans-32"/>
      </g>
     </g>
    </g>
    <g id="ytick_8">
     <g id="line2d_15">
      <g>
       <use style="stroke:#000000;stroke-width:0.8;" x="162" xlink:href="#mbbfa5fa2ef" y="126.126337"/>
      </g>
     </g>
     <g id="text_15">
      <!-- 1.4 -->
      <g transform="translate(139.096875 129.925556)scale(0.1 -0.1)">
       <use xlink:href="#DejaVuSans-31"/>
       <use x="63.623047" xlink:href="#DejaVuSans-2e"/>
       <use x="95.410156" xlink:href="#DejaVuSans-34"/>
      </g>
     </g>
    </g>
    <g id="text_16">
     <!-- Persons fully vaccinated (tens of millions) -->
     <g transform="translate(133.017188 540.480156)rotate(-90)scale(0.1 -0.1)">
      <defs>
       <path d="M 1259 4147 
L 1259 2394 
L 2053 2394 
Q 2494 2394 2734 2622 
Q 2975 2850 2975 3272 
Q 2975 3691 2734 3919 
Q 2494 4147 2053 4147 
L 1259 4147 
z
M 628 4666 
L 2053 4666 
Q 2838 4666 3239 4311 
Q 3641 3956 3641 3272 
Q 3641 2581 3239 2228 
Q 2838 1875 2053 1875 
L 1259 1875 
L 1259 0 
L 628 0 
L 628 4666 
z
" id="DejaVuSans-50" transform="scale(0.015625)"/>
       <path d="M 2834 3397 
L 2834 2853 
Q 2591 2978 2328 3040 
Q 2066 3103 1784 3103 
Q 1356 3103 1142 2972 
Q 928 2841 928 2578 
Q 928 2378 1081 2264 
Q 1234 2150 1697 2047 
L 1894 2003 
Q 2506 1872 2764 1633 
Q 3022 1394 3022 966 
Q 3022 478 2636 193 
Q 2250 -91 1575 -91 
Q 1294 -91 989 -36 
Q 684 19 347 128 
L 347 722 
Q 666 556 975 473 
Q 1284 391 1588 391 
Q 1994 391 2212 530 
Q 2431 669 2431 922 
Q 2431 1156 2273 1281 
Q 2116 1406 1581 1522 
L 1381 1569 
Q 847 1681 609 1914 
Q 372 2147 372 2553 
Q 372 3047 722 3315 
Q 1072 3584 1716 3584 
Q 2034 3584 2315 3537 
Q 2597 3491 2834 3397 
z
" id="DejaVuSans-73" transform="scale(0.015625)"/>
       <path d="M 1959 3097 
Q 1497 3097 1228 2736 
Q 959 2375 959 1747 
Q 959 1119 1226 758 
Q 1494 397 1959 397 
Q 2419 397 2687 759 
Q 2956 1122 2956 1747 
Q 2956 2369 2687 2733 
Q 2419 3097 1959 3097 
z
M 1959 3584 
Q 2709 3584 3137 3096 
Q 3566 2609 3566 1747 
Q 3566 888 3137 398 
Q 2709 -91 1959 -91 
Q 1206 -91 779 398 
Q 353 888 353 1747 
Q 353 2609 779 3096 
Q 1206 3584 1959 3584 
z
" id="DejaVuSans-6f" transform="scale(0.015625)"/>
       <path id="DejaVuSans-20" transform="scale(0.015625)"/>
       <path d="M 2375 4863 
L 2375 4384 
L 1825 4384 
Q 1516 4384 1395 4259 
Q 1275 4134 1275 3809 
L 1275 3500 
L 2222 3500 
L 2222 3053 
L 1275 3053 
L 1275 0 
L 697 0 
L 697 3053 
L 147 3053 
L 147 3500 
L 697 3500 
L 697 3744 
Q 697 4328 969 4595 
Q 1241 4863 1831 4863 
L 2375 4863 
z
" id="DejaVuSans-66" transform="scale(0.015625)"/>
       <path d="M 191 3500 
L 800 3500 
L 1894 563 
L 2988 3500 
L 3597 3500 
L 2284 0 
L 1503 0 
L 191 3500 
z
" id="DejaVuSans-76" transform="scale(0.015625)"/>
       <path d="M 1172 4494 
L 1172 3500 
L 2356 3500 
L 2356 3053 
L 1172 3053 
L 1172 1153 
Q 1172 725 1289 603 
Q 1406 481 1766 481 
L 2356 481 
L 2356 0 
L 1766 0 
Q 1100 0 847 248 
Q 594 497 594 1153 
L 594 3053 
L 172 3053 
L 172 3500 
L 594 3500 
L 594 4494 
L 1172 4494 
z
" id="DejaVuSans-74" transform="scale(0.015625)"/>
       <path d="M 2906 2969 
L 2906 4863 
L 3481 4863 
L 3481 0 
L 2906 0 
L 2906 525 
Q 2725 213 2448 61 
Q 2172 -91 1784 -91 
Q 1150 -91 751 415 
Q 353 922 353 1747 
Q 353 2572 751 3078 
Q 1150 3584 1784 3584 
Q 2172 3584 2448 3432 
Q 2725 3281 2906 2969 
z
M 947 1747 
Q 947 1113 1208 752 
Q 1469 391 1925 391 
Q 2381 391 2643 752 
Q 2906 1113 2906 1747 
Q 2906 2381 2643 2742 
Q 2381 3103 1925 3103 
Q 1469 3103 1208 2742 
Q 947 2381 947 1747 
z
" id="DejaVuSans-64" transform="scale(0.015625)"/>
       <path d="M 1984 4856 
Q 1566 4138 1362 3434 
Q 1159 2731 1159 2009 
Q 1159 1288 1364 580 
Q 1569 -128 1984 -844 
L 1484 -844 
Q 1016 -109 783 600 
Q 550 1309 550 2009 
Q 550 2706 781 3412 
Q 1013 4119 1484 4856 
L 1984 4856 
z
" id="DejaVuSans-28" transform="scale(0.015625)"/>
       <path d="M 3328 2828 
Q 3544 3216 3844 3400 
Q 4144 3584 4550 3584 
Q 5097 3584 5394 3201 
Q 5691 2819 5691 2113 
L 5691 0 
L 5113 0 
L 5113 2094 
Q 5113 2597 4934 2840 
Q 4756 3084 4391 3084 
Q 3944 3084 3684 2787 
Q 3425 2491 3425 1978 
L 3425 0 
L 2847 0 
L 2847 2094 
Q 2847 2600 2669 2842 
Q 2491 3084 2119 3084 
Q 1678 3084 1418 2786 
Q 1159 2488 1159 1978 
L 1159 0 
L 581 0 
L 581 3500 
L 1159 3500 
L 1159 2956 
Q 1356 3278 1631 3431 
Q 1906 3584 2284 3584 
Q 2666 3584 2933 3390 
Q 3200 3197 3328 2828 
z
" id="DejaVuSans-6d" transform="scale(0.015625)"/>
       <path d="M 513 4856 
L 1013 4856 
Q 1481 4119 1714 3412 
Q 1947 2706 1947 2009 
Q 1947 1309 1714 600 
Q 1481 -109 1013 -844 
L 513 -844 
Q 928 -128 1133 580 
Q 1338 1288 1338 2009 
Q 1338 2731 1133 3434 
Q 928 4138 513 4856 
z
" id="DejaVuSans-29" transform="scale(0.015625)"/>
      </defs>
      <use xlink:href="#DejaVuSans-50"/>
      <use x="56.677734" xlink:href="#DejaVuSans-65"/>
      <use x="118.201172" xlink:href="#DejaVuSans-72"/>
      <use x="159.314453" xlink:href="#DejaVuSans-73"/>
      <use x="211.414062" xlink:href="#DejaVuSans-6f"/>
      <use x="272.595703" xlink:href="#DejaVuSans-6e"/>
      <use x="335.974609" xlink:href="#DejaVuSans-73"/>
      <use x="388.074219" xlink:href="#DejaVuSans-20"/>
      <use x="419.861328" xlink:href="#DejaVuSans-66"/>
      <use x="455.066406" xlink:href="#DejaVuSans-75"/>
      <use x="518.445312" xlink:href="#DejaVuSans-6c"/>
      <use x="546.228516" xlink:href="#DejaVuSans-6c"/>
      <use x="574.011719" xlink:href="#DejaVuSans-79"/>
      <use x="633.191406" xlink:href="#DejaVuSans-20"/>
      <use x="664.978516" xlink:href="#DejaVuSans-76"/>
      <use x="724.158203" xlink:href="#DejaVuSans-61"/>
      <use x="785.4375" xlink:href="#DejaVuSans-63"/>
      <use x="840.417969" xlink:href="#DejaVuSans-63"/>
      <use x="895.398438" xlink:href="#DejaVuSans-69"/>
      <use x="923.181641" xlink:href="#DejaVuSans-6e"/>
      <use x="986.560547" xlink:href="#DejaVuSans-61"/>
      <use x="1047.839844" xlink:href="#DejaVuSans-74"/>
      <use x="1087.048828" xlink:href="#DejaVuSans-65"/>
      <use x="1148.572266" xlink:href="#DejaVuSans-64"/>
      <use x="1212.048828" xlink:href="#DejaVuSans-20"/>
      <use x="1243.835938" xlink:href="#DejaVuSans-28"/>
      <use x="1282.849609" xlink:href="#DejaVuSans-74"/>
      <use x="1322.058594" xlink:href="#DejaVuSans-65"/>
      <use x="1383.582031" xlink:href="#DejaVuSans-6e"/>
      <use x="1446.960938" xlink:href="#DejaVuSans-73"/>
      <use x="1499.060547" xlink:href="#DejaVuSans-20"/>
      <use x="1530.847656" xlink:href="#DejaVuSans-6f"/>
      <use x="1592.029297" xlink:href="#DejaVuSans-66"/>
      <use x="1627.234375" xlink:href="#DejaVuSans-20"/>
      <use x="1659.021484" xlink:href="#DejaVuSans-6d"/>
      <use x="1756.433594" xlink:href="#DejaVuSans-69"/>
      <use x="1784.216797" xlink:href="#DejaVuSans-6c"/>
      <use x="1812" xlink:href="#DejaVuSans-6c"/>
      <use x="1839.783203" xlink:href="#DejaVuSans-69"/>
      <use x="1867.566406" xlink:href="#DejaVuSans-6f"/>
      <use x="1928.748047" xlink:href="#DejaVuSans-6e"/>
      <use x="1992.126953" xlink:href="#DejaVuSans-73"/>
      <use x="2044.226562" xlink:href="#DejaVuSans-29"/>
     </g>
    </g>
    <g id="text_17">
     <!-- 1e7 -->
     <g transform="translate(162 100.68)scale(0.1 -0.1)">
      <defs>
       <path d="M 525 4666 
L 3525 4666 
L 3525 4397 
L 1831 0 
L 1172 0 
L 2766 4134 
L 525 4134 
L 525 4666 
z
" id="DejaVuSans-37" transform="scale(0.015625)"/>
      </defs>
      <use xlink:href="#DejaVuSans-31"/>
      <use x="63.623047" xlink:href="#DejaVuSans-65"/>
      <use x="125.146484" xlink:href="#DejaVuSans-37"/>
     </g>
    </g>
   </g>
   <g id="patch_203">
    <path d="M 162 768.96 
L 162 103.68 
" style="fill:none;stroke:#000000;stroke-linecap:square;stroke-linejoin:miter;stroke-width:0.8;"/>
   </g>
   <g id="patch_204">
    <path d="M 1166.4 768.96 
L 1166.4 103.68 
" style="fill:none;stroke:#000000;stroke-linecap:square;stroke-linejoin:miter;stroke-width:0.8;"/>
   </g>
   <g id="patch_205">
    <path d="M 162 768.96 
L 1166.4 768.96 
" style="fill:none;stroke:#000000;stroke-linecap:square;stroke-linejoin:miter;stroke-width:0.8;"/>
   </g>
   <g id="patch_206">
    <path d="M 162 103.68 
L 1166.4 103.68 
" style="fill:none;stroke:#000000;stroke-linecap:square;stroke-linejoin:miter;stroke-width:0.8;"/>
   </g>
   <g id="text_18">
    <!-- Persons Fully Vaccinated -->
    <g transform="translate(590.380313 97.68)scale(0.12 -0.12)">
     <defs>
      <path d="M 1831 0 
L 50 4666 
L 709 4666 
L 2188 738 
L 3669 4666 
L 4325 4666 
L 2547 0 
L 1831 0 
z
" id="DejaVuSans-56" transform="scale(0.015625)"/>
     </defs>
     <use xlink:href="#DejaVuSans-50"/>
     <use x="56.677734" xlink:href="#DejaVuSans-65"/>
     <use x="118.201172" xlink:href="#DejaVuSans-72"/>
     <use x="159.314453" xlink:href="#DejaVuSans-73"/>
     <use x="211.414062" xlink:href="#DejaVuSans-6f"/>
     <use x="272.595703" xlink:href="#DejaVuSans-6e"/>
     <use x="335.974609" xlink:href="#DejaVuSans-73"/>
     <use x="388.074219" xlink:href="#DejaVuSans-20"/>
     <use x="419.861328" xlink:href="#DejaVuSans-46"/>
     <use x="471.880859" xlink:href="#DejaVuSans-75"/>
     <use x="535.259766" xlink:href="#DejaVuSans-6c"/>
     <use x="563.042969" xlink:href="#DejaVuSans-6c"/>
     <use x="590.826172" xlink:href="#DejaVuSans-79"/>
     <use x="650.005859" xlink:href="#DejaVuSans-20"/>
     <use x="681.792969" xlink:href="#DejaVuSans-56"/>
     <use x="742.451172" xlink:href="#DejaVuSans-61"/>
     <use x="803.730469" xlink:href="#DejaVuSans-63"/>
     <use x="858.710938" xlink:href="#DejaVuSans-63"/>
     <use x="913.691406" xlink:href="#DejaVuSans-69"/>
     <use x="941.474609" xlink:href="#DejaVuSans-6e"/>
     <use x="1004.853516" xlink:href="#DejaVuSans-61"/>
     <use x="1066.132812" xlink:href="#DejaVuSans-74"/>
     <use x="1105.341797" xlink:href="#DejaVuSans-65"/>
     <use x="1166.865234" xlink:href="#DejaVuSans-64"/>
    </g>
   </g>
  </g>
 </g>
 <defs>
  <clipPath id="pf474e38635">
   <rect height="665.28" width="1004.4" x="162" y="103.68"/>
  </clipPath>
 </defs>
</svg>
