<?xml version="1.0" encoding="utf-8" standalone="no"?>
<!DOCTYPE svg PUBLIC "-//W3C//DTD SVG 1.1//EN"
  "http://www.w3.org/Graphics/SVG/1.1/DTD/svg11.dtd">
<svg height="864pt" version="1.1" viewBox="0 0 1296 864" width="1296pt" xmlns="http://www.w3.org/2000/svg" xmlns:xlink="http://www.w3.org/1999/xlink">
 <metadata>
  <rdf:RDF xmlns:cc="http://creativecommons.org/ns#" xmlns:dc="http://purl.org/dc/elements/1.1/" xmlns:rdf="http://www.w3.org/1999/02/22-rdf-syntax-ns#">
   <cc:Work>
    <dc:type rdf:resource="http://purl.org/dc/dcmitype/StillImage"/>
    <dc:date>2021-08-03T10:22:20.525088</dc:date>
    <dc:format>image/svg+xml</dc:format>
    <dc:creator>
     <cc:Agent>
      <dc:title>Matplotlib v3.4.2, https://matplotlib.org/</dc:title>
     </cc:Agent>
    </dc:creator>
   </cc:Work>
  </rdf:RDF>
 </metadata>
 <defs>
  <style type="text/css">*{stroke-linecap:butt;stroke-linejoin:round;}</style>
 </defs>
 <g id="figure_1">
  <g id="patch_1">
   <path d="M 0 864 
L 1296 864 
L 1296 0 
L 0 0 
z
" style="fill:#ffffff;"/>
  </g>
  <g id="axes_1">
   <g id="patch_2">
    <path d="M 162 768.96 
L 1166.4 768.96 
L 1166.4 103.68 
L 162 103.68 
z
" style="fill:#ffffff;"/>
   </g>
   <g id="patch_3">
    <path clip-path="url(#p750456a9b2)" d="M 163.195714 768.96 
L 165.587143 768.96 
L 165.587143 768.947451 
L 163.195714 768.947451 
z
" style="fill:#1f77b4;"/>
   </g>
   <g id="patch_4">
    <path clip-path="url(#p750456a9b2)" d="M 167.978571 768.96 
L 170.37 768.96 
L 170.37 768.921401 
L 167.978571 768.921401 
z
" style="fill:#1f77b4;"/>
   </g>
   <g id="patch_5">
    <path clip-path="url(#p750456a9b2)" d="M 172.761429 768.96 
L 175.152857 768.96 
L 175.152857 768.699052 
L 172.761429 768.699052 
z
" style="fill:#1f77b4;"/>
   </g>
   <g id="patch_6">
    <path clip-path="url(#p750456a9b2)" d="M 177.544286 768.96 
L 179.935714 768.96 
L 179.935714 767.061329 
L 177.544286 767.061329 
z
" style="fill:#1f77b4;"/>
   </g>
   <g id="patch_7">
    <path clip-path="url(#p750456a9b2)" d="M 182.327143 768.96 
L 184.718571 768.96 
L 184.718571 765.100546 
L 182.327143 765.100546 
z
" style="fill:#1f77b4;"/>
   </g>
   <g id="patch_8">
    <path clip-path="url(#p750456a9b2)" d="M 187.11 768.96 
L 189.501429 768.96 
L 189.501429 764.016705 
L 187.11 764.016705 
z
" style="fill:#1f77b4;"/>
   </g>
   <g id="patch_9">
    <path clip-path="url(#p750456a9b2)" d="M 191.892857 768.96 
L 194.284286 768.96 
L 194.284286 763.356315 
L 191.892857 763.356315 
z
" style="fill:#1f77b4;"/>
   </g>
   <g id="patch_10">
    <path clip-path="url(#p750456a9b2)" d="M 196.675714 768.96 
L 199.067143 768.96 
L 199.067143 762.331685 
L 196.675714 762.331685 
z
" style="fill:#1f77b4;"/>
   </g>
   <g id="patch_11">
    <path clip-path="url(#p750456a9b2)" d="M 201.458571 768.96 
L 203.85 768.96 
L 203.85 761.365677 
L 201.458571 761.365677 
z
" style="fill:#1f77b4;"/>
   </g>
   <g id="patch_12">
    <path clip-path="url(#p750456a9b2)" d="M 206.241429 768.96 
L 208.632857 768.96 
L 208.632857 760.57794 
L 206.241429 760.57794 
z
" style="fill:#1f77b4;"/>
   </g>
   <g id="patch_13">
    <path clip-path="url(#p750456a9b2)" d="M 211.024286 768.96 
L 213.415714 768.96 
L 213.415714 759.621763 
L 211.024286 759.621763 
z
" style="fill:#1f77b4;"/>
   </g>
   <g id="patch_14">
    <path clip-path="url(#p750456a9b2)" d="M 215.807143 768.96 
L 218.198571 768.96 
L 218.198571 759.434116 
L 215.807143 759.434116 
z
" style="fill:#1f77b4;"/>
   </g>
   <g id="patch_15">
    <path clip-path="url(#p750456a9b2)" d="M 220.59 768.96 
L 222.981429 768.96 
L 222.981429 759.317686 
L 220.59 759.317686 
z
" style="fill:#1f77b4;"/>
   </g>
   <g id="patch_16">
    <path clip-path="url(#p750456a9b2)" d="M 225.372857 768.96 
L 227.764286 768.96 
L 227.764286 759.263729 
L 225.372857 759.263729 
z
" style="fill:#1f77b4;"/>
   </g>
   <g id="patch_17">
    <path clip-path="url(#p750456a9b2)" d="M 230.155714 768.96 
L 232.547143 768.96 
L 232.547143 758.997979 
L 230.155714 758.997979 
z
" style="fill:#1f77b4;"/>
   </g>
   <g id="patch_18">
    <path clip-path="url(#p750456a9b2)" d="M 234.938571 768.96 
L 237.33 768.96 
L 237.33 758.568275 
L 234.938571 758.568275 
z
" style="fill:#1f77b4;"/>
   </g>
   <g id="patch_19">
    <path clip-path="url(#p750456a9b2)" d="M 239.721429 768.96 
L 242.112857 768.96 
L 242.112857 757.700531 
L 239.721429 757.700531 
z
" style="fill:#1f77b4;"/>
   </g>
   <g id="patch_20">
    <path clip-path="url(#p750456a9b2)" d="M 244.504286 768.96 
L 246.895714 768.96 
L 246.895714 756.842663 
L 244.504286 756.842663 
z
" style="fill:#1f77b4;"/>
   </g>
   <g id="patch_21">
    <path clip-path="url(#p750456a9b2)" d="M 249.287143 768.96 
L 251.678571 768.96 
L 251.678571 756.244838 
L 249.287143 756.244838 
z
" style="fill:#1f77b4;"/>
   </g>
   <g id="patch_22">
    <path clip-path="url(#p750456a9b2)" d="M 254.07 768.96 
L 256.461429 768.96 
L 256.461429 756.036804 
L 254.07 756.036804 
z
" style="fill:#1f77b4;"/>
   </g>
   <g id="patch_23">
    <path clip-path="url(#p750456a9b2)" d="M 258.852857 768.96 
L 261.244286 768.96 
L 261.244286 755.741832 
L 258.852857 755.741832 
z
" style="fill:#1f77b4;"/>
   </g>
   <g id="patch_24">
    <path clip-path="url(#p750456a9b2)" d="M 263.635714 768.96 
L 266.027143 768.96 
L 266.027143 754.939779 
L 263.635714 754.939779 
z
" style="fill:#1f77b4;"/>
   </g>
   <g id="patch_25">
    <path clip-path="url(#p750456a9b2)" d="M 268.418571 768.96 
L 270.81 768.96 
L 270.81 753.567897 
L 268.418571 753.567897 
z
" style="fill:#1f77b4;"/>
   </g>
   <g id="patch_26">
    <path clip-path="url(#p750456a9b2)" d="M 273.201429 768.96 
L 275.592857 768.96 
L 275.592857 751.658172 
L 273.201429 751.658172 
z
" style="fill:#1f77b4;"/>
   </g>
   <g id="patch_27">
    <path clip-path="url(#p750456a9b2)" d="M 277.984286 768.96 
L 280.375714 768.96 
L 280.375714 750.055106 
L 277.984286 750.055106 
z
" style="fill:#1f77b4;"/>
   </g>
   <g id="patch_28">
    <path clip-path="url(#p750456a9b2)" d="M 282.767143 768.96 
L 285.158571 768.96 
L 285.158571 748.619754 
L 282.767143 748.619754 
z
" style="fill:#1f77b4;"/>
   </g>
   <g id="patch_29">
    <path clip-path="url(#p750456a9b2)" d="M 287.55 768.96 
L 289.941429 768.96 
L 289.941429 747.850636 
L 287.55 747.850636 
z
" style="fill:#1f77b4;"/>
   </g>
   <g id="patch_30">
    <path clip-path="url(#p750456a9b2)" d="M 292.332857 768.96 
L 294.724286 768.96 
L 294.724286 747.417217 
L 292.332857 747.417217 
z
" style="fill:#1f77b4;"/>
   </g>
   <g id="patch_31">
    <path clip-path="url(#p750456a9b2)" d="M 297.115714 768.96 
L 299.507143 768.96 
L 299.507143 746.63487 
L 297.115714 746.63487 
z
" style="fill:#1f77b4;"/>
   </g>
   <g id="patch_32">
    <path clip-path="url(#p750456a9b2)" d="M 301.898571 768.96 
L 304.29 768.96 
L 304.29 744.913834 
L 301.898571 744.913834 
z
" style="fill:#1f77b4;"/>
   </g>
   <g id="patch_33">
    <path clip-path="url(#p750456a9b2)" d="M 306.681429 768.96 
L 309.072857 768.96 
L 309.072857 743.645561 
L 306.681429 743.645561 
z
" style="fill:#1f77b4;"/>
   </g>
   <g id="patch_34">
    <path clip-path="url(#p750456a9b2)" d="M 311.464286 768.96 
L 313.855714 768.96 
L 313.855714 741.928693 
L 311.464286 741.928693 
z
" style="fill:#1f77b4;"/>
   </g>
   <g id="patch_35">
    <path clip-path="url(#p750456a9b2)" d="M 316.247143 768.96 
L 318.638571 768.96 
L 318.638571 740.593553 
L 316.247143 740.593553 
z
" style="fill:#1f77b4;"/>
   </g>
   <g id="patch_36">
    <path clip-path="url(#p750456a9b2)" d="M 321.03 768.96 
L 323.421429 768.96 
L 323.421429 739.394776 
L 321.03 739.394776 
z
" style="fill:#1f77b4;"/>
   </g>
   <g id="patch_37">
    <path clip-path="url(#p750456a9b2)" d="M 325.812857 768.96 
L 328.204286 768.96 
L 328.204286 738.987724 
L 325.812857 738.987724 
z
" style="fill:#1f77b4;"/>
   </g>
   <g id="patch_38">
    <path clip-path="url(#p750456a9b2)" d="M 330.595714 768.96 
L 332.987143 768.96 
L 332.987143 737.608004 
L 330.595714 737.608004 
z
" style="fill:#1f77b4;"/>
   </g>
   <g id="patch_39">
    <path clip-path="url(#p750456a9b2)" d="M 335.378571 768.96 
L 337.77 768.96 
L 337.77 735.875099 
L 335.378571 735.875099 
z
" style="fill:#1f77b4;"/>
   </g>
   <g id="patch_40">
    <path clip-path="url(#p750456a9b2)" d="M 340.161429 768.96 
L 342.552857 768.96 
L 342.552857 733.786153 
L 340.161429 733.786153 
z
" style="fill:#1f77b4;"/>
   </g>
   <g id="patch_41">
    <path clip-path="url(#p750456a9b2)" d="M 344.944286 768.96 
L 347.335714 768.96 
L 347.335714 730.803957 
L 344.944286 730.803957 
z
" style="fill:#1f77b4;"/>
   </g>
   <g id="patch_42">
    <path clip-path="url(#p750456a9b2)" d="M 349.727143 768.96 
L 352.118571 768.96 
L 352.118571 728.103685 
L 349.727143 728.103685 
z
" style="fill:#1f77b4;"/>
   </g>
   <g id="patch_43">
    <path clip-path="url(#p750456a9b2)" d="M 354.51 768.96 
L 356.901429 768.96 
L 356.901429 726.42759 
L 354.51 726.42759 
z
" style="fill:#1f77b4;"/>
   </g>
   <g id="patch_44">
    <path clip-path="url(#p750456a9b2)" d="M 359.292857 768.96 
L 361.684286 768.96 
L 361.684286 725.528451 
L 359.292857 725.528451 
z
" style="fill:#1f77b4;"/>
   </g>
   <g id="patch_45">
    <path clip-path="url(#p750456a9b2)" d="M 364.075714 768.96 
L 366.467143 768.96 
L 366.467143 724.637013 
L 364.075714 724.637013 
z
" style="fill:#1f77b4;"/>
   </g>
   <g id="patch_46">
    <path clip-path="url(#p750456a9b2)" d="M 368.858571 768.96 
L 371.25 768.96 
L 371.25 722.844125 
L 368.858571 722.844125 
z
" style="fill:#1f77b4;"/>
   </g>
   <g id="patch_47">
    <path clip-path="url(#p750456a9b2)" d="M 373.641429 768.96 
L 376.032857 768.96 
L 376.032857 719.84263 
L 373.641429 719.84263 
z
" style="fill:#1f77b4;"/>
   </g>
   <g id="patch_48">
    <path clip-path="url(#p750456a9b2)" d="M 378.424286 768.96 
L 380.815714 768.96 
L 380.815714 715.770159 
L 378.424286 715.770159 
z
" style="fill:#1f77b4;"/>
   </g>
   <g id="patch_49">
    <path clip-path="url(#p750456a9b2)" d="M 383.207143 768.96 
L 385.598571 768.96 
L 385.598571 712.013001 
L 383.207143 712.013001 
z
" style="fill:#1f77b4;"/>
   </g>
   <g id="patch_50">
    <path clip-path="url(#p750456a9b2)" d="M 387.99 768.96 
L 390.381429 768.96 
L 390.381429 711.285472 
L 387.99 711.285472 
z
" style="fill:#1f77b4;"/>
   </g>
   <g id="patch_51">
    <path clip-path="url(#p750456a9b2)" d="M 392.772857 768.96 
L 395.164286 768.96 
L 395.164286 708.551675 
L 392.772857 708.551675 
z
" style="fill:#1f77b4;"/>
   </g>
   <g id="patch_52">
    <path clip-path="url(#p750456a9b2)" d="M 397.555714 768.96 
L 399.947143 768.96 
L 399.947143 706.296873 
L 397.555714 706.296873 
z
" style="fill:#1f77b4;"/>
   </g>
   <g id="patch_53">
    <path clip-path="url(#p750456a9b2)" d="M 402.338571 768.96 
L 404.73 768.96 
L 404.73 702.934716 
L 402.338571 702.934716 
z
" style="fill:#1f77b4;"/>
   </g>
   <g id="patch_54">
    <path clip-path="url(#p750456a9b2)" d="M 407.121429 768.96 
L 409.512857 768.96 
L 409.512857 696.763332 
L 407.121429 696.763332 
z
" style="fill:#1f77b4;"/>
   </g>
   <g id="patch_55">
    <path clip-path="url(#p750456a9b2)" d="M 411.904286 768.96 
L 414.295714 768.96 
L 414.295714 690.35107 
L 411.904286 690.35107 
z
" style="fill:#1f77b4;"/>
   </g>
   <g id="patch_56">
    <path clip-path="url(#p750456a9b2)" d="M 416.687143 768.96 
L 419.078571 768.96 
L 419.078571 684.642008 
L 416.687143 684.642008 
z
" style="fill:#1f77b4;"/>
   </g>
   <g id="patch_57">
    <path clip-path="url(#p750456a9b2)" d="M 421.47 768.96 
L 423.861429 768.96 
L 423.861429 679.627269 
L 421.47 679.627269 
z
" style="fill:#1f77b4;"/>
   </g>
   <g id="patch_58">
    <path clip-path="url(#p750456a9b2)" d="M 426.252857 768.96 
L 428.644286 768.96 
L 428.644286 677.111428 
L 426.252857 677.111428 
z
" style="fill:#1f77b4;"/>
   </g>
   <g id="patch_59">
    <path clip-path="url(#p750456a9b2)" d="M 431.035714 768.96 
L 433.427143 768.96 
L 433.427143 673.563572 
L 431.035714 673.563572 
z
" style="fill:#1f77b4;"/>
   </g>
   <g id="patch_60">
    <path clip-path="url(#p750456a9b2)" d="M 435.818571 768.96 
L 438.21 768.96 
L 438.21 668.760174 
L 435.818571 668.760174 
z
" style="fill:#1f77b4;"/>
   </g>
   <g id="patch_61">
    <path clip-path="url(#p750456a9b2)" d="M 440.601429 768.96 
L 442.992857 768.96 
L 442.992857 663.359766 
L 440.601429 663.359766 
z
" style="fill:#1f77b4;"/>
   </g>
   <g id="patch_62">
    <path clip-path="url(#p750456a9b2)" d="M 445.384286 768.96 
L 447.775714 768.96 
L 447.775714 655.517769 
L 445.384286 655.517769 
z
" style="fill:#1f77b4;"/>
   </g>
   <g id="patch_63">
    <path clip-path="url(#p750456a9b2)" d="M 450.167143 768.96 
L 452.558571 768.96 
L 452.558571 648.064839 
L 450.167143 648.064839 
z
" style="fill:#1f77b4;"/>
   </g>
   <g id="patch_64">
    <path clip-path="url(#p750456a9b2)" d="M 454.95 768.96 
L 457.341429 768.96 
L 457.341429 642.256518 
L 454.95 642.256518 
z
" style="fill:#1f77b4;"/>
   </g>
   <g id="patch_65">
    <path clip-path="url(#p750456a9b2)" d="M 459.732857 768.96 
L 462.124286 768.96 
L 462.124286 640.455023 
L 459.732857 640.455023 
z
" style="fill:#1f77b4;"/>
   </g>
   <g id="patch_66">
    <path clip-path="url(#p750456a9b2)" d="M 464.515714 768.96 
L 466.907143 768.96 
L 466.907143 635.73231 
L 464.515714 635.73231 
z
" style="fill:#1f77b4;"/>
   </g>
   <g id="patch_67">
    <path clip-path="url(#p750456a9b2)" d="M 469.298571 768.96 
L 471.69 768.96 
L 471.69 629.593318 
L 469.298571 629.593318 
z
" style="fill:#1f77b4;"/>
   </g>
   <g id="patch_68">
    <path clip-path="url(#p750456a9b2)" d="M 474.081429 768.96 
L 476.472857 768.96 
L 476.472857 622.783744 
L 474.081429 622.783744 
z
" style="fill:#1f77b4;"/>
   </g>
   <g id="patch_69">
    <path clip-path="url(#p750456a9b2)" d="M 478.864286 768.96 
L 481.255714 768.96 
L 481.255714 615.515652 
L 478.864286 615.515652 
z
" style="fill:#1f77b4;"/>
   </g>
   <g id="patch_70">
    <path clip-path="url(#p750456a9b2)" d="M 483.647143 768.96 
L 486.038571 768.96 
L 486.038571 607.341127 
L 483.647143 607.341127 
z
" style="fill:#1f77b4;"/>
   </g>
   <g id="patch_71">
    <path clip-path="url(#p750456a9b2)" d="M 488.43 768.96 
L 490.821429 768.96 
L 490.821429 602.111196 
L 488.43 602.111196 
z
" style="fill:#1f77b4;"/>
   </g>
   <g id="patch_72">
    <path clip-path="url(#p750456a9b2)" d="M 493.212857 768.96 
L 495.604286 768.96 
L 495.604286 596.918595 
L 493.212857 596.918595 
z
" style="fill:#1f77b4;"/>
   </g>
   <g id="patch_73">
    <path clip-path="url(#p750456a9b2)" d="M 497.995714 768.96 
L 500.387143 768.96 
L 500.387143 592.30434 
L 497.995714 592.30434 
z
" style="fill:#1f77b4;"/>
   </g>
   <g id="patch_74">
    <path clip-path="url(#p750456a9b2)" d="M 502.778571 768.96 
L 505.17 768.96 
L 505.17 587.086369 
L 502.778571 587.086369 
z
" style="fill:#1f77b4;"/>
   </g>
   <g id="patch_75">
    <path clip-path="url(#p750456a9b2)" d="M 507.561429 768.96 
L 509.952857 768.96 
L 509.952857 582.390249 
L 507.561429 582.390249 
z
" style="fill:#1f77b4;"/>
   </g>
   <g id="patch_76">
    <path clip-path="url(#p750456a9b2)" d="M 512.344286 768.96 
L 514.735714 768.96 
L 514.735714 577.104052 
L 512.344286 577.104052 
z
" style="fill:#1f77b4;"/>
   </g>
   <g id="patch_77">
    <path clip-path="url(#p750456a9b2)" d="M 517.127143 768.96 
L 519.518571 768.96 
L 519.518571 571.681716 
L 517.127143 571.681716 
z
" style="fill:#1f77b4;"/>
   </g>
   <g id="patch_78">
    <path clip-path="url(#p750456a9b2)" d="M 521.91 768.96 
L 524.301429 768.96 
L 524.301429 568.452707 
L 521.91 568.452707 
z
" style="fill:#1f77b4;"/>
   </g>
   <g id="patch_79">
    <path clip-path="url(#p750456a9b2)" d="M 526.692857 768.96 
L 529.084286 768.96 
L 529.084286 566.679209 
L 526.692857 566.679209 
z
" style="fill:#1f77b4;"/>
   </g>
   <g id="patch_80">
    <path clip-path="url(#p750456a9b2)" d="M 531.475714 768.96 
L 533.867143 768.96 
L 533.867143 563.77412 
L 531.475714 563.77412 
z
" style="fill:#1f77b4;"/>
   </g>
   <g id="patch_81">
    <path clip-path="url(#p750456a9b2)" d="M 536.258571 768.96 
L 538.65 768.96 
L 538.65 560.314968 
L 536.258571 560.314968 
z
" style="fill:#1f77b4;"/>
   </g>
   <g id="patch_82">
    <path clip-path="url(#p750456a9b2)" d="M 541.041429 768.96 
L 543.432857 768.96 
L 543.432857 556.717732 
L 541.041429 556.717732 
z
" style="fill:#1f77b4;"/>
   </g>
   <g id="patch_83">
    <path clip-path="url(#p750456a9b2)" d="M 545.824286 768.96 
L 548.215714 768.96 
L 548.215714 551.999595 
L 545.824286 551.999595 
z
" style="fill:#1f77b4;"/>
   </g>
   <g id="patch_84">
    <path clip-path="url(#p750456a9b2)" d="M 550.607143 768.96 
L 552.998571 768.96 
L 552.998571 546.131609 
L 550.607143 546.131609 
z
" style="fill:#1f77b4;"/>
   </g>
   <g id="patch_85">
    <path clip-path="url(#p750456a9b2)" d="M 555.39 768.96 
L 557.781429 768.96 
L 557.781429 541.045879 
L 555.39 541.045879 
z
" style="fill:#1f77b4;"/>
   </g>
   <g id="patch_86">
    <path clip-path="url(#p750456a9b2)" d="M 560.172857 768.96 
L 562.564286 768.96 
L 562.564286 539.01918 
L 560.172857 539.01918 
z
" style="fill:#1f77b4;"/>
   </g>
   <g id="patch_87">
    <path clip-path="url(#p750456a9b2)" d="M 564.955714 768.96 
L 567.347143 768.96 
L 567.347143 535.985384 
L 564.955714 535.985384 
z
" style="fill:#1f77b4;"/>
   </g>
   <g id="patch_88">
    <path clip-path="url(#p750456a9b2)" d="M 569.738571 768.96 
L 572.13 768.96 
L 572.13 530.459756 
L 569.738571 530.459756 
z
" style="fill:#1f77b4;"/>
   </g>
   <g id="patch_89">
    <path clip-path="url(#p750456a9b2)" d="M 574.521429 768.96 
L 576.912857 768.96 
L 576.912857 525.799472 
L 574.521429 525.799472 
z
" style="fill:#1f77b4;"/>
   </g>
   <g id="patch_90">
    <path clip-path="url(#p750456a9b2)" d="M 579.304286 768.96 
L 581.695714 768.96 
L 581.695714 519.341815 
L 579.304286 519.341815 
z
" style="fill:#1f77b4;"/>
   </g>
   <g id="patch_91">
    <path clip-path="url(#p750456a9b2)" d="M 584.087143 768.96 
L 586.478571 768.96 
L 586.478571 512.795047 
L 584.087143 512.795047 
z
" style="fill:#1f77b4;"/>
   </g>
   <g id="patch_92">
    <path clip-path="url(#p750456a9b2)" d="M 588.87 768.96 
L 591.261429 768.96 
L 591.261429 507.815961 
L 588.87 507.815961 
z
" style="fill:#1f77b4;"/>
   </g>
   <g id="patch_93">
    <path clip-path="url(#p750456a9b2)" d="M 593.652857 768.96 
L 596.044286 768.96 
L 596.044286 506.41282 
L 593.652857 506.41282 
z
" style="fill:#1f77b4;"/>
   </g>
   <g id="patch_94">
    <path clip-path="url(#p750456a9b2)" d="M 598.435714 768.96 
L 600.827143 768.96 
L 600.827143 501.714436 
L 598.435714 501.714436 
z
" style="fill:#1f77b4;"/>
   </g>
   <g id="patch_95">
    <path clip-path="url(#p750456a9b2)" d="M 603.218571 768.96 
L 605.61 768.96 
L 605.61 494.368422 
L 603.218571 494.368422 
z
" style="fill:#1f77b4;"/>
   </g>
   <g id="patch_96">
    <path clip-path="url(#p750456a9b2)" d="M 608.001429 768.96 
L 610.392857 768.96 
L 610.392857 486.210523 
L 608.001429 486.210523 
z
" style="fill:#1f77b4;"/>
   </g>
   <g id="patch_97">
    <path clip-path="url(#p750456a9b2)" d="M 612.784286 768.96 
L 615.175714 768.96 
L 615.175714 476.564087 
L 612.784286 476.564087 
z
" style="fill:#1f77b4;"/>
   </g>
   <g id="patch_98">
    <path clip-path="url(#p750456a9b2)" d="M 617.567143 768.96 
L 619.958571 768.96 
L 619.958571 465.228734 
L 617.567143 465.228734 
z
" style="fill:#1f77b4;"/>
   </g>
   <g id="patch_99">
    <path clip-path="url(#p750456a9b2)" d="M 622.35 768.96 
L 624.741429 768.96 
L 624.741429 457.732675 
L 622.35 457.732675 
z
" style="fill:#1f77b4;"/>
   </g>
   <g id="patch_100">
    <path clip-path="url(#p750456a9b2)" d="M 627.132857 768.96 
L 629.524286 768.96 
L 629.524286 454.01108 
L 627.132857 454.01108 
z
" style="fill:#1f77b4;"/>
   </g>
   <g id="patch_101">
    <path clip-path="url(#p750456a9b2)" d="M 631.915714 768.96 
L 634.307143 768.96 
L 634.307143 447.743607 
L 631.915714 447.743607 
z
" style="fill:#1f77b4;"/>
   </g>
   <g id="patch_102">
    <path clip-path="url(#p750456a9b2)" d="M 636.698571 768.96 
L 639.09 768.96 
L 639.09 439.998787 
L 636.698571 439.998787 
z
" style="fill:#1f77b4;"/>
   </g>
   <g id="patch_103">
    <path clip-path="url(#p750456a9b2)" d="M 641.481429 768.96 
L 643.872857 768.96 
L 643.872857 433.336222 
L 641.481429 433.336222 
z
" style="fill:#1f77b4;"/>
   </g>
   <g id="patch_104">
    <path clip-path="url(#p750456a9b2)" d="M 646.264286 768.96 
L 648.655714 768.96 
L 648.655714 424.347819 
L 646.264286 424.347819 
z
" style="fill:#1f77b4;"/>
   </g>
   <g id="patch_105">
    <path clip-path="url(#p750456a9b2)" d="M 651.047143 768.96 
L 653.438571 768.96 
L 653.438571 415.596036 
L 651.047143 415.596036 
z
" style="fill:#1f77b4;"/>
   </g>
   <g id="patch_106">
    <path clip-path="url(#p750456a9b2)" d="M 655.83 768.96 
L 658.221429 768.96 
L 658.221429 409.512859 
L 655.83 409.512859 
z
" style="fill:#1f77b4;"/>
   </g>
   <g id="patch_107">
    <path clip-path="url(#p750456a9b2)" d="M 660.612857 768.96 
L 663.004286 768.96 
L 663.004286 406.008494 
L 660.612857 406.008494 
z
" style="fill:#1f77b4;"/>
   </g>
   <g id="patch_108">
    <path clip-path="url(#p750456a9b2)" d="M 665.395714 768.96 
L 667.787143 768.96 
L 667.787143 400.962541 
L 665.395714 400.962541 
z
" style="fill:#1f77b4;"/>
   </g>
   <g id="patch_109">
    <path clip-path="url(#p750456a9b2)" d="M 670.178571 768.96 
L 672.57 768.96 
L 672.57 392.902725 
L 670.178571 392.902725 
z
" style="fill:#1f77b4;"/>
   </g>
   <g id="patch_110">
    <path clip-path="url(#p750456a9b2)" d="M 674.961429 768.96 
L 677.352857 768.96 
L 677.352857 385.715953 
L 674.961429 385.715953 
z
" style="fill:#1f77b4;"/>
   </g>
   <g id="patch_111">
    <path clip-path="url(#p750456a9b2)" d="M 679.744286 768.96 
L 682.135714 768.96 
L 682.135714 378.101515 
L 679.744286 378.101515 
z
" style="fill:#1f77b4;"/>
   </g>
   <g id="patch_112">
    <path clip-path="url(#p750456a9b2)" d="M 684.527143 768.96 
L 686.918571 768.96 
L 686.918571 371.080781 
L 684.527143 371.080781 
z
" style="fill:#1f77b4;"/>
   </g>
   <g id="patch_113">
    <path clip-path="url(#p750456a9b2)" d="M 689.31 768.96 
L 691.701429 768.96 
L 691.701429 366.382034 
L 689.31 366.382034 
z
" style="fill:#1f77b4;"/>
   </g>
   <g id="patch_114">
    <path clip-path="url(#p750456a9b2)" d="M 694.092857 768.96 
L 696.484286 768.96 
L 696.484286 364.360001 
L 694.092857 364.360001 
z
" style="fill:#1f77b4;"/>
   </g>
   <g id="patch_115">
    <path clip-path="url(#p750456a9b2)" d="M 698.875714 768.96 
L 701.267143 768.96 
L 701.267143 360.034193 
L 698.875714 360.034193 
z
" style="fill:#1f77b4;"/>
   </g>
   <g id="patch_116">
    <path clip-path="url(#p750456a9b2)" d="M 703.658571 768.96 
L 706.05 768.96 
L 706.05 353.875902 
L 703.658571 353.875902 
z
" style="fill:#1f77b4;"/>
   </g>
   <g id="patch_117">
    <path clip-path="url(#p750456a9b2)" d="M 708.441429 768.96 
L 710.832857 768.96 
L 710.832857 347.454579 
L 708.441429 347.454579 
z
" style="fill:#1f77b4;"/>
   </g>
   <g id="patch_118">
    <path clip-path="url(#p750456a9b2)" d="M 713.224286 768.96 
L 715.615714 768.96 
L 715.615714 341.205635 
L 713.224286 341.205635 
z
" style="fill:#1f77b4;"/>
   </g>
   <g id="patch_119">
    <path clip-path="url(#p750456a9b2)" d="M 718.007143 768.96 
L 720.398571 768.96 
L 720.398571 335.94739 
L 718.007143 335.94739 
z
" style="fill:#1f77b4;"/>
   </g>
   <g id="patch_120">
    <path clip-path="url(#p750456a9b2)" d="M 722.79 768.96 
L 725.181429 768.96 
L 725.181429 333.590745 
L 722.79 333.590745 
z
" style="fill:#1f77b4;"/>
   </g>
   <g id="patch_121">
    <path clip-path="url(#p750456a9b2)" d="M 727.572857 768.96 
L 729.964286 768.96 
L 729.964286 332.779268 
L 727.572857 332.779268 
z
" style="fill:#1f77b4;"/>
   </g>
   <g id="patch_122">
    <path clip-path="url(#p750456a9b2)" d="M 732.355714 768.96 
L 734.747143 768.96 
L 734.747143 330.234251 
L 732.355714 330.234251 
z
" style="fill:#1f77b4;"/>
   </g>
   <g id="patch_123">
    <path clip-path="url(#p750456a9b2)" d="M 737.138571 768.96 
L 739.53 768.96 
L 739.53 323.530868 
L 737.138571 323.530868 
z
" style="fill:#1f77b4;"/>
   </g>
   <g id="patch_124">
    <path clip-path="url(#p750456a9b2)" d="M 741.921429 768.96 
L 744.312857 768.96 
L 744.312857 317.040865 
L 741.921429 317.040865 
z
" style="fill:#1f77b4;"/>
   </g>
   <g id="patch_125">
    <path clip-path="url(#p750456a9b2)" d="M 746.704286 768.96 
L 749.095714 768.96 
L 749.095714 312.131094 
L 746.704286 312.131094 
z
" style="fill:#1f77b4;"/>
   </g>
   <g id="patch_126">
    <path clip-path="url(#p750456a9b2)" d="M 751.487143 768.96 
L 753.878571 768.96 
L 753.878571 304.957007 
L 751.487143 304.957007 
z
" style="fill:#1f77b4;"/>
   </g>
   <g id="patch_127">
    <path clip-path="url(#p750456a9b2)" d="M 756.27 768.96 
L 758.661429 768.96 
L 758.661429 300.133902 
L 756.27 300.133902 
z
" style="fill:#1f77b4;"/>
   </g>
   <g id="patch_128">
    <path clip-path="url(#p750456a9b2)" d="M 761.052857 768.96 
L 763.444286 768.96 
L 763.444286 295.864134 
L 761.052857 295.864134 
z
" style="fill:#1f77b4;"/>
   </g>
   <g id="patch_129">
    <path clip-path="url(#p750456a9b2)" d="M 765.835714 768.96 
L 768.227143 768.96 
L 768.227143 292.190108 
L 765.835714 292.190108 
z
" style="fill:#1f77b4;"/>
   </g>
   <g id="patch_130">
    <path clip-path="url(#p750456a9b2)" d="M 770.618571 768.96 
L 773.01 768.96 
L 773.01 287.180624 
L 770.618571 287.180624 
z
" style="fill:#1f77b4;"/>
   </g>
   <g id="patch_131">
    <path clip-path="url(#p750456a9b2)" d="M 775.401429 768.96 
L 777.792857 768.96 
L 777.792857 282.691496 
L 775.401429 282.691496 
z
" style="fill:#1f77b4;"/>
   </g>
   <g id="patch_132">
    <path clip-path="url(#p750456a9b2)" d="M 780.184286 768.96 
L 782.575714 768.96 
L 782.575714 278.044214 
L 780.184286 278.044214 
z
" style="fill:#1f77b4;"/>
   </g>
   <g id="patch_133">
    <path clip-path="url(#p750456a9b2)" d="M 784.967143 768.96 
L 787.358571 768.96 
L 787.358571 271.443625 
L 784.967143 271.443625 
z
" style="fill:#1f77b4;"/>
   </g>
   <g id="patch_134">
    <path clip-path="url(#p750456a9b2)" d="M 789.75 768.96 
L 792.141429 768.96 
L 792.141429 267.734035 
L 789.75 267.734035 
z
" style="fill:#1f77b4;"/>
   </g>
   <g id="patch_135">
    <path clip-path="url(#p750456a9b2)" d="M 794.532857 768.96 
L 796.924286 768.96 
L 796.924286 266.251749 
L 794.532857 266.251749 
z
" style="fill:#1f77b4;"/>
   </g>
   <g id="patch_136">
    <path clip-path="url(#p750456a9b2)" d="M 799.315714 768.96 
L 801.707143 768.96 
L 801.707143 263.634247 
L 799.315714 263.634247 
z
" style="fill:#1f77b4;"/>
   </g>
   <g id="patch_137">
    <path clip-path="url(#p750456a9b2)" d="M 804.098571 768.96 
L 806.49 768.96 
L 806.49 258.825774 
L 804.098571 258.825774 
z
" style="fill:#1f77b4;"/>
   </g>
   <g id="patch_138">
    <path clip-path="url(#p750456a9b2)" d="M 808.881429 768.96 
L 811.272857 768.96 
L 811.272857 254.542099 
L 808.881429 254.542099 
z
" style="fill:#1f77b4;"/>
   </g>
   <g id="patch_139">
    <path clip-path="url(#p750456a9b2)" d="M 813.664286 768.96 
L 816.055714 768.96 
L 816.055714 249.029881 
L 813.664286 249.029881 
z
" style="fill:#1f77b4;"/>
   </g>
   <g id="patch_140">
    <path clip-path="url(#p750456a9b2)" d="M 818.447143 768.96 
L 820.838571 768.96 
L 820.838571 245.159011 
L 818.447143 245.159011 
z
" style="fill:#1f77b4;"/>
   </g>
   <g id="patch_141">
    <path clip-path="url(#p750456a9b2)" d="M 823.23 768.96 
L 825.621429 768.96 
L 825.621429 242.236525 
L 823.23 242.236525 
z
" style="fill:#1f77b4;"/>
   </g>
   <g id="patch_142">
    <path clip-path="url(#p750456a9b2)" d="M 828.012857 768.96 
L 830.404286 768.96 
L 830.404286 240.806882 
L 828.012857 240.806882 
z
" style="fill:#1f77b4;"/>
   </g>
   <g id="patch_143">
    <path clip-path="url(#p750456a9b2)" d="M 832.795714 768.96 
L 835.187143 768.96 
L 835.187143 238.407787 
L 832.795714 238.407787 
z
" style="fill:#1f77b4;"/>
   </g>
   <g id="patch_144">
    <path clip-path="url(#p750456a9b2)" d="M 837.578571 768.96 
L 839.97 768.96 
L 839.97 235.506776 
L 837.578571 235.506776 
z
" style="fill:#1f77b4;"/>
   </g>
   <g id="patch_145">
    <path clip-path="url(#p750456a9b2)" d="M 842.361429 768.96 
L 844.752857 768.96 
L 844.752857 232.545691 
L 842.361429 232.545691 
z
" style="fill:#1f77b4;"/>
   </g>
   <g id="patch_146">
    <path clip-path="url(#p750456a9b2)" d="M 847.144286 768.96 
L 849.535714 768.96 
L 849.535714 229.515473 
L 847.144286 229.515473 
z
" style="fill:#1f77b4;"/>
   </g>
   <g id="patch_147">
    <path clip-path="url(#p750456a9b2)" d="M 851.927143 768.96 
L 854.318571 768.96 
L 854.318571 226.773296 
L 851.927143 226.773296 
z
" style="fill:#1f77b4;"/>
   </g>
   <g id="patch_148">
    <path clip-path="url(#p750456a9b2)" d="M 856.71 768.96 
L 859.101429 768.96 
L 859.101429 224.917255 
L 856.71 224.917255 
z
" style="fill:#1f77b4;"/>
   </g>
   <g id="patch_149">
    <path clip-path="url(#p750456a9b2)" d="M 861.492857 768.96 
L 863.884286 768.96 
L 863.884286 224.002078 
L 861.492857 224.002078 
z
" style="fill:#1f77b4;"/>
   </g>
   <g id="patch_150">
    <path clip-path="url(#p750456a9b2)" d="M 866.275714 768.96 
L 868.667143 768.96 
L 868.667143 223.218372 
L 866.275714 223.218372 
z
" style="fill:#1f77b4;"/>
   </g>
   <g id="patch_151">
    <path clip-path="url(#p750456a9b2)" d="M 871.058571 768.96 
L 873.45 768.96 
L 873.45 221.490948 
L 871.058571 221.490948 
z
" style="fill:#1f77b4;"/>
   </g>
   <g id="patch_152">
    <path clip-path="url(#p750456a9b2)" d="M 875.841429 768.96 
L 878.232857 768.96 
L 878.232857 219.689997 
L 875.841429 219.689997 
z
" style="fill:#1f77b4;"/>
   </g>
   <g id="patch_153">
    <path clip-path="url(#p750456a9b2)" d="M 880.624286 768.96 
L 883.015714 768.96 
L 883.015714 217.190601 
L 880.624286 217.190601 
z
" style="fill:#1f77b4;"/>
   </g>
   <g id="patch_154">
    <path clip-path="url(#p750456a9b2)" d="M 885.407143 768.96 
L 887.798571 768.96 
L 887.798571 214.565669 
L 885.407143 214.565669 
z
" style="fill:#1f77b4;"/>
   </g>
   <g id="patch_155">
    <path clip-path="url(#p750456a9b2)" d="M 890.19 768.96 
L 892.581429 768.96 
L 892.581429 212.30398 
L 890.19 212.30398 
z
" style="fill:#1f77b4;"/>
   </g>
   <g id="patch_156">
    <path clip-path="url(#p750456a9b2)" d="M 894.972857 768.96 
L 897.364286 768.96 
L 897.364286 210.830573 
L 894.972857 210.830573 
z
" style="fill:#1f77b4;"/>
   </g>
   <g id="patch_157">
    <path clip-path="url(#p750456a9b2)" d="M 899.755714 768.96 
L 902.147143 768.96 
L 902.147143 208.725952 
L 899.755714 208.725952 
z
" style="fill:#1f77b4;"/>
   </g>
   <g id="patch_158">
    <path clip-path="url(#p750456a9b2)" d="M 904.538571 768.96 
L 906.93 768.96 
L 906.93 206.249434 
L 904.538571 206.249434 
z
" style="fill:#1f77b4;"/>
   </g>
   <g id="patch_159">
    <path clip-path="url(#p750456a9b2)" d="M 909.321429 768.96 
L 911.712857 768.96 
L 911.712857 203.229002 
L 909.321429 203.229002 
z
" style="fill:#1f77b4;"/>
   </g>
   <g id="patch_160">
    <path clip-path="url(#p750456a9b2)" d="M 914.104286 768.96 
L 916.495714 768.96 
L 916.495714 201.051397 
L 914.104286 201.051397 
z
" style="fill:#1f77b4;"/>
   </g>
   <g id="patch_161">
    <path clip-path="url(#p750456a9b2)" d="M 918.887143 768.96 
L 921.278571 768.96 
L 921.278571 199.013825 
L 918.887143 199.013825 
z
" style="fill:#1f77b4;"/>
   </g>
   <g id="patch_162">
    <path clip-path="url(#p750456a9b2)" d="M 923.67 768.96 
L 926.061429 768.96 
L 926.061429 197.80336 
L 923.67 197.80336 
z
" style="fill:#1f77b4;"/>
   </g>
   <g id="patch_163">
    <path clip-path="url(#p750456a9b2)" d="M 928.452857 768.96 
L 930.844286 768.96 
L 930.844286 196.631629 
L 928.452857 196.631629 
z
" style="fill:#1f77b4;"/>
   </g>
   <g id="patch_164">
    <path clip-path="url(#p750456a9b2)" d="M 933.235714 768.96 
L 935.627143 768.96 
L 935.627143 193.04291 
L 933.235714 193.04291 
z
" style="fill:#1f77b4;"/>
   </g>
   <g id="patch_165">
    <path clip-path="url(#p750456a9b2)" d="M 938.018571 768.96 
L 940.41 768.96 
L 940.41 190.268612 
L 938.018571 190.268612 
z
" style="fill:#1f77b4;"/>
   </g>
   <g id="patch_166">
    <path clip-path="url(#p750456a9b2)" d="M 942.801429 768.96 
L 945.192857 768.96 
L 945.192857 188.305247 
L 942.801429 188.305247 
z
" style="fill:#1f77b4;"/>
   </g>
   <g id="patch_167">
    <path clip-path="url(#p750456a9b2)" d="M 947.584286 768.96 
L 949.975714 768.96 
L 949.975714 185.827053 
L 947.584286 185.827053 
z
" style="fill:#1f77b4;"/>
   </g>
   <g id="patch_168">
    <path clip-path="url(#p750456a9b2)" d="M 952.367143 768.96 
L 954.758571 768.96 
L 954.758571 184.581024 
L 952.367143 184.581024 
z
" style="fill:#1f77b4;"/>
   </g>
   <g id="patch_169">
    <path clip-path="url(#p750456a9b2)" d="M 957.15 768.96 
L 959.541429 768.96 
L 959.541429 182.678865 
L 957.15 182.678865 
z
" style="fill:#1f77b4;"/>
   </g>
   <g id="patch_170">
    <path clip-path="url(#p750456a9b2)" d="M 961.932857 768.96 
L 964.324286 768.96 
L 964.324286 181.869517 
L 961.932857 181.869517 
z
" style="fill:#1f77b4;"/>
   </g>
   <g id="patch_171">
    <path clip-path="url(#p750456a9b2)" d="M 966.715714 768.96 
L 969.107143 768.96 
L 969.107143 180.803162 
L 966.715714 180.803162 
z
" style="fill:#1f77b4;"/>
   </g>
   <g id="patch_172">
    <path clip-path="url(#p750456a9b2)" d="M 971.498571 768.96 
L 973.89 768.96 
L 973.89 179.543407 
L 971.498571 179.543407 
z
" style="fill:#1f77b4;"/>
   </g>
   <g id="patch_173">
    <path clip-path="url(#p750456a9b2)" d="M 976.281429 768.96 
L 978.672857 768.96 
L 978.672857 178.01174 
L 976.281429 178.01174 
z
" style="fill:#1f77b4;"/>
   </g>
   <g id="patch_174">
    <path clip-path="url(#p750456a9b2)" d="M 981.064286 768.96 
L 983.455714 768.96 
L 983.455714 176.170106 
L 981.064286 176.170106 
z
" style="fill:#1f77b4;"/>
   </g>
   <g id="patch_175">
    <path clip-path="url(#p750456a9b2)" d="M 985.847143 768.96 
L 988.238571 768.96 
L 988.238571 171.869033 
L 985.847143 171.869033 
z
" style="fill:#1f77b4;"/>
   </g>
   <g id="patch_176">
    <path clip-path="url(#p750456a9b2)" d="M 990.63 768.96 
L 993.021429 768.96 
L 993.021429 166.724409 
L 990.63 166.724409 
z
" style="fill:#1f77b4;"/>
   </g>
   <g id="patch_177">
    <path clip-path="url(#p750456a9b2)" d="M 995.412857 768.96 
L 997.804286 768.96 
L 997.804286 166.314366 
L 995.412857 166.314366 
z
" style="fill:#1f77b4;"/>
   </g>
   <g id="patch_178">
    <path clip-path="url(#p750456a9b2)" d="M 1000.195714 768.96 
L 1002.587143 768.96 
L 1002.587143 165.25372 
L 1000.195714 165.25372 
z
" style="fill:#1f77b4;"/>
   </g>
   <g id="patch_179">
    <path clip-path="url(#p750456a9b2)" d="M 1004.978571 768.96 
L 1007.37 768.96 
L 1007.37 163.917764 
L 1004.978571 163.917764 
z
" style="fill:#1f77b4;"/>
   </g>
   <g id="patch_180">
    <path clip-path="url(#p750456a9b2)" d="M 1009.761429 768.96 
L 1012.152857 768.96 
L 1012.152857 162.611255 
L 1009.761429 162.611255 
z
" style="fill:#1f77b4;"/>
   </g>
   <g id="patch_181">
    <path clip-path="url(#p750456a9b2)" d="M 1014.544286 768.96 
L 1016.935714 768.96 
L 1016.935714 161.407812 
L 1014.544286 161.407812 
z
" style="fill:#1f77b4;"/>
   </g>
   <g id="patch_182">
    <path clip-path="url(#p750456a9b2)" d="M 1019.327143 768.96 
L 1021.718571 768.96 
L 1021.718571 160.14262 
L 1019.327143 160.14262 
z
" style="fill:#1f77b4;"/>
   </g>
   <g id="patch_183">
    <path clip-path="url(#p750456a9b2)" d="M 1024.11 768.96 
L 1026.501429 768.96 
L 1026.501429 159.300065 
L 1024.11 159.300065 
z
" style="fill:#1f77b4;"/>
   </g>
   <g id="patch_184">
    <path clip-path="url(#p750456a9b2)" d="M 1028.892857 768.96 
L 1031.284286 768.96 
L 1031.284286 158.890566 
L 1028.892857 158.890566 
z
" style="fill:#1f77b4;"/>
   </g>
   <g id="patch_185">
    <path clip-path="url(#p750456a9b2)" d="M 1033.675714 768.96 
L 1036.067143 768.96 
L 1036.067143 158.819712 
L 1033.675714 158.819712 
z
" style="fill:#1f77b4;"/>
   </g>
   <g id="patch_186">
    <path clip-path="url(#p750456a9b2)" d="M 1038.458571 768.96 
L 1040.85 768.96 
L 1040.85 158.141472 
L 1038.458571 158.141472 
z
" style="fill:#1f77b4;"/>
   </g>
   <g id="patch_187">
    <path clip-path="url(#p750456a9b2)" d="M 1043.241429 768.96 
L 1045.632857 768.96 
L 1045.632857 156.92992 
L 1043.241429 156.92992 
z
" style="fill:#1f77b4;"/>
   </g>
   <g id="patch_188">
    <path clip-path="url(#p750456a9b2)" d="M 1048.024286 768.96 
L 1050.415714 768.96 
L 1050.415714 155.713837 
L 1048.024286 155.713837 
z
" style="fill:#1f77b4;"/>
   </g>
   <g id="patch_189">
    <path clip-path="url(#p750456a9b2)" d="M 1052.807143 768.96 
L 1055.198571 768.96 
L 1055.198571 154.631853 
L 1052.807143 154.631853 
z
" style="fill:#1f77b4;"/>
   </g>
   <g id="patch_190">
    <path clip-path="url(#p750456a9b2)" d="M 1057.59 768.96 
L 1059.981429 768.96 
L 1059.981429 153.753417 
L 1057.59 153.753417 
z
" style="fill:#1f77b4;"/>
   </g>
   <g id="patch_191">
    <path clip-path="url(#p750456a9b2)" d="M 1062.372857 768.96 
L 1064.764286 768.96 
L 1064.764286 153.165513 
L 1062.372857 153.165513 
z
" style="fill:#1f77b4;"/>
   </g>
   <g id="patch_192">
    <path clip-path="url(#p750456a9b2)" d="M 1067.155714 768.96 
L 1069.547143 768.96 
L 1069.547143 152.039177 
L 1067.155714 152.039177 
z
" style="fill:#1f77b4;"/>
   </g>
   <g id="patch_193">
    <path clip-path="url(#p750456a9b2)" d="M 1071.938571 768.96 
L 1074.33 768.96 
L 1074.33 151.088527 
L 1071.938571 151.088527 
z
" style="fill:#1f77b4;"/>
   </g>
   <g id="patch_194">
    <path clip-path="url(#p750456a9b2)" d="M 1076.721429 768.96 
L 1079.112857 768.96 
L 1079.112857 150.184948 
L 1076.721429 150.184948 
z
" style="fill:#1f77b4;"/>
   </g>
   <g id="patch_195">
    <path clip-path="url(#p750456a9b2)" d="M 1081.504286 768.96 
L 1083.895714 768.96 
L 1083.895714 149.275887 
L 1081.504286 149.275887 
z
" style="fill:#1f77b4;"/>
   </g>
   <g id="patch_196">
    <path clip-path="url(#p750456a9b2)" d="M 1086.287143 768.96 
L 1088.678571 768.96 
L 1088.678571 148.377201 
L 1086.287143 148.377201 
z
" style="fill:#1f77b4;"/>
   </g>
   <g id="patch_197">
    <path clip-path="url(#p750456a9b2)" d="M 1091.07 768.96 
L 1093.461429 768.96 
L 1093.461429 147.649355 
L 1091.07 147.649355 
z
" style="fill:#1f77b4;"/>
   </g>
   <g id="patch_198">
    <path clip-path="url(#p750456a9b2)" d="M 1095.852857 768.96 
L 1098.244286 768.96 
L 1098.244286 147.237138 
L 1095.852857 147.237138 
z
" style="fill:#1f77b4;"/>
   </g>
   <g id="patch_199">
    <path clip-path="url(#p750456a9b2)" d="M 1100.635714 768.96 
L 1103.027143 768.96 
L 1103.027143 146.486956 
L 1100.635714 146.486956 
z
" style="fill:#1f77b4;"/>
   </g>
   <g id="patch_200">
    <path clip-path="url(#p750456a9b2)" d="M 1105.418571 768.96 
L 1107.81 768.96 
L 1107.81 145.468397 
L 1105.418571 145.468397 
z
" style="fill:#1f77b4;"/>
   </g>
   <g id="patch_201">
    <path clip-path="url(#p750456a9b2)" d="M 1110.201429 768.96 
L 1112.592857 768.96 
L 1112.592857 144.520058 
L 1110.201429 144.520058 
z
" style="fill:#1f77b4;"/>
   </g>
   <g id="patch_202">
    <path clip-path="url(#p750456a9b2)" d="M 1114.984286 768.96 
L 1117.375714 768.96 
L 1117.375714 143.820843 
L 1114.984286 143.820843 
z
" style="fill:#1f77b4;"/>
   </g>
   <g id="patch_203">
    <path clip-path="url(#p750456a9b2)" d="M 1119.767143 768.96 
L 1122.158571 768.96 
L 1122.158571 143.102465 
L 1119.767143 143.102465 
z
" style="fill:#1f77b4;"/>
   </g>
   <g id="patch_204">
    <path clip-path="url(#p750456a9b2)" d="M 1124.55 768.96 
L 1126.941429 768.96 
L 1126.941429 142.667279 
L 1124.55 142.667279 
z
" style="fill:#1f77b4;"/>
   </g>
   <g id="patch_205">
    <path clip-path="url(#p750456a9b2)" d="M 1129.332857 768.96 
L 1131.724286 768.96 
L 1131.724286 142.426672 
L 1129.332857 142.426672 
z
" style="fill:#1f77b4;"/>
   </g>
   <g id="patch_206">
    <path clip-path="url(#p750456a9b2)" d="M 1134.115714 768.96 
L 1136.507143 768.96 
L 1136.507143 142.008203 
L 1134.115714 142.008203 
z
" style="fill:#1f77b4;"/>
   </g>
   <g id="patch_207">
    <path clip-path="url(#p750456a9b2)" d="M 1138.898571 768.96 
L 1141.29 768.96 
L 1141.29 141.053205 
L 1138.898571 141.053205 
z
" style="fill:#1f77b4;"/>
   </g>
   <g id="patch_208">
    <path clip-path="url(#p750456a9b2)" d="M 1143.681429 768.96 
L 1146.072857 768.96 
L 1146.072857 139.457614 
L 1143.681429 139.457614 
z
" style="fill:#1f77b4;"/>
   </g>
   <g id="patch_209">
    <path clip-path="url(#p750456a9b2)" d="M 1148.464286 768.96 
L 1150.855714 768.96 
L 1150.855714 138.6002 
L 1148.464286 138.6002 
z
" style="fill:#1f77b4;"/>
   </g>
   <g id="patch_210">
    <path clip-path="url(#p750456a9b2)" d="M 1153.247143 768.96 
L 1155.638571 768.96 
L 1155.638571 136.489417 
L 1153.247143 136.489417 
z
" style="fill:#1f77b4;"/>
   </g>
   <g id="patch_211">
    <path clip-path="url(#p750456a9b2)" d="M 1158.03 768.96 
L 1160.421429 768.96 
L 1160.421429 135.837046 
L 1158.03 135.837046 
z
" style="fill:#1f77b4;"/>
   </g>
   <g id="patch_212">
    <path clip-path="url(#p750456a9b2)" d="M 1162.812857 768.96 
L 1165.204286 768.96 
L 1165.204286 135.36 
L 1162.812857 135.36 
z
" style="fill:#1f77b4;"/>
   </g>
   <g id="matplotlib.axis_1">
    <g id="xtick_1">
     <g id="line2d_1">
      <defs>
       <path d="M 0 0 
L 0 3.5 
" id="md06f3a0135" style="stroke:#000000;stroke-width:0.8;"/>
      </defs>
      <g>
       <use style="stroke:#000000;stroke-width:0.8;" x="164.391429" xlink:href="#md06f3a0135" y="768.96"/>
      </g>
     </g>
     <g id="text_1">
      <!-- January -->
      <g transform="translate(145.43596 783.558437)scale(0.1 -0.1)">
       <defs>
        <path d="M 628 4666 
L 1259 4666 
L 1259 325 
Q 1259 -519 939 -900 
Q 619 -1281 -91 -1281 
L -331 -1281 
L -331 -750 
L -134 -750 
Q 284 -750 456 -515 
Q 628 -281 628 325 
L 628 4666 
z
" id="DejaVuSans-4a" transform="scale(0.015625)"/>
        <path d="M 2194 1759 
Q 1497 1759 1228 1600 
Q 959 1441 959 1056 
Q 959 750 1161 570 
Q 1363 391 1709 391 
Q 2188 391 2477 730 
Q 2766 1069 2766 1631 
L 2766 1759 
L 2194 1759 
z
M 3341 1997 
L 3341 0 
L 2766 0 
L 2766 531 
Q 2569 213 2275 61 
Q 1981 -91 1556 -91 
Q 1019 -91 701 211 
Q 384 513 384 1019 
Q 384 1609 779 1909 
Q 1175 2209 1959 2209 
L 2766 2209 
L 2766 2266 
Q 2766 2663 2505 2880 
Q 2244 3097 1772 3097 
Q 1472 3097 1187 3025 
Q 903 2953 641 2809 
L 641 3341 
Q 956 3463 1253 3523 
Q 1550 3584 1831 3584 
Q 2591 3584 2966 3190 
Q 3341 2797 3341 1997 
z
" id="DejaVuSans-61" transform="scale(0.015625)"/>
        <path d="M 3513 2113 
L 3513 0 
L 2938 0 
L 2938 2094 
Q 2938 2591 2744 2837 
Q 2550 3084 2163 3084 
Q 1697 3084 1428 2787 
Q 1159 2491 1159 1978 
L 1159 0 
L 581 0 
L 581 3500 
L 1159 3500 
L 1159 2956 
Q 1366 3272 1645 3428 
Q 1925 3584 2291 3584 
Q 2894 3584 3203 3211 
Q 3513 2838 3513 2113 
z
" id="DejaVuSans-6e" transform="scale(0.015625)"/>
        <path d="M 544 1381 
L 544 3500 
L 1119 3500 
L 1119 1403 
Q 1119 906 1312 657 
Q 1506 409 1894 409 
Q 2359 409 2629 706 
Q 2900 1003 2900 1516 
L 2900 3500 
L 3475 3500 
L 3475 0 
L 2900 0 
L 2900 538 
Q 2691 219 2414 64 
Q 2138 -91 1772 -91 
Q 1169 -91 856 284 
Q 544 659 544 1381 
z
M 1991 3584 
L 1991 3584 
z
" id="DejaVuSans-75" transform="scale(0.015625)"/>
        <path d="M 2631 2963 
Q 2534 3019 2420 3045 
Q 2306 3072 2169 3072 
Q 1681 3072 1420 2755 
Q 1159 2438 1159 1844 
L 1159 0 
L 581 0 
L 581 3500 
L 1159 3500 
L 1159 2956 
Q 1341 3275 1631 3429 
Q 1922 3584 2338 3584 
Q 2397 3584 2469 3576 
Q 2541 3569 2628 3553 
L 2631 2963 
z
" id="DejaVuSans-72" transform="scale(0.015625)"/>
        <path d="M 2059 -325 
Q 1816 -950 1584 -1140 
Q 1353 -1331 966 -1331 
L 506 -1331 
L 506 -850 
L 844 -850 
Q 1081 -850 1212 -737 
Q 1344 -625 1503 -206 
L 1606 56 
L 191 3500 
L 800 3500 
L 1894 763 
L 2988 3500 
L 3597 3500 
L 2059 -325 
z
" id="DejaVuSans-79" transform="scale(0.015625)"/>
       </defs>
       <use xlink:href="#DejaVuSans-4a"/>
       <use x="29.492188" xlink:href="#DejaVuSans-61"/>
       <use x="90.771484" xlink:href="#DejaVuSans-6e"/>
       <use x="154.150391" xlink:href="#DejaVuSans-75"/>
       <use x="217.529297" xlink:href="#DejaVuSans-61"/>
       <use x="278.808594" xlink:href="#DejaVuSans-72"/>
       <use x="319.921875" xlink:href="#DejaVuSans-79"/>
      </g>
     </g>
    </g>
    <g id="xtick_2">
     <g id="line2d_2">
      <g>
       <use style="stroke:#000000;stroke-width:0.8;" x="312.66" xlink:href="#md06f3a0135" y="768.96"/>
      </g>
     </g>
     <g id="text_2">
      <!-- February -->
      <g transform="translate(290.505313 783.558437)scale(0.1 -0.1)">
       <defs>
        <path d="M 628 4666 
L 3309 4666 
L 3309 4134 
L 1259 4134 
L 1259 2759 
L 3109 2759 
L 3109 2228 
L 1259 2228 
L 1259 0 
L 628 0 
L 628 4666 
z
" id="DejaVuSans-46" transform="scale(0.015625)"/>
        <path d="M 3597 1894 
L 3597 1613 
L 953 1613 
Q 991 1019 1311 708 
Q 1631 397 2203 397 
Q 2534 397 2845 478 
Q 3156 559 3463 722 
L 3463 178 
Q 3153 47 2828 -22 
Q 2503 -91 2169 -91 
Q 1331 -91 842 396 
Q 353 884 353 1716 
Q 353 2575 817 3079 
Q 1281 3584 2069 3584 
Q 2775 3584 3186 3129 
Q 3597 2675 3597 1894 
z
M 3022 2063 
Q 3016 2534 2758 2815 
Q 2500 3097 2075 3097 
Q 1594 3097 1305 2825 
Q 1016 2553 972 2059 
L 3022 2063 
z
" id="DejaVuSans-65" transform="scale(0.015625)"/>
        <path d="M 3116 1747 
Q 3116 2381 2855 2742 
Q 2594 3103 2138 3103 
Q 1681 3103 1420 2742 
Q 1159 2381 1159 1747 
Q 1159 1113 1420 752 
Q 1681 391 2138 391 
Q 2594 391 2855 752 
Q 3116 1113 3116 1747 
z
M 1159 2969 
Q 1341 3281 1617 3432 
Q 1894 3584 2278 3584 
Q 2916 3584 3314 3078 
Q 3713 2572 3713 1747 
Q 3713 922 3314 415 
Q 2916 -91 2278 -91 
Q 1894 -91 1617 61 
Q 1341 213 1159 525 
L 1159 0 
L 581 0 
L 581 4863 
L 1159 4863 
L 1159 2969 
z
" id="DejaVuSans-62" transform="scale(0.015625)"/>
       </defs>
       <use xlink:href="#DejaVuSans-46"/>
       <use x="52.019531" xlink:href="#DejaVuSans-65"/>
       <use x="113.542969" xlink:href="#DejaVuSans-62"/>
       <use x="177.019531" xlink:href="#DejaVuSans-72"/>
       <use x="218.132812" xlink:href="#DejaVuSans-75"/>
       <use x="281.511719" xlink:href="#DejaVuSans-61"/>
       <use x="342.791016" xlink:href="#DejaVuSans-72"/>
       <use x="383.904297" xlink:href="#DejaVuSans-79"/>
      </g>
     </g>
    </g>
    <g id="xtick_3">
     <g id="line2d_3">
      <g>
       <use style="stroke:#000000;stroke-width:0.8;" x="446.58" xlink:href="#md06f3a0135" y="768.96"/>
      </g>
     </g>
     <g id="text_3">
      <!-- March -->
      <g transform="translate(431.340938 783.558437)scale(0.1 -0.1)">
       <defs>
        <path d="M 628 4666 
L 1569 4666 
L 2759 1491 
L 3956 4666 
L 4897 4666 
L 4897 0 
L 4281 0 
L 4281 4097 
L 3078 897 
L 2444 897 
L 1241 4097 
L 1241 0 
L 628 0 
L 628 4666 
z
" id="DejaVuSans-4d" transform="scale(0.015625)"/>
        <path d="M 3122 3366 
L 3122 2828 
Q 2878 2963 2633 3030 
Q 2388 3097 2138 3097 
Q 1578 3097 1268 2742 
Q 959 2388 959 1747 
Q 959 1106 1268 751 
Q 1578 397 2138 397 
Q 2388 397 2633 464 
Q 2878 531 3122 666 
L 3122 134 
Q 2881 22 2623 -34 
Q 2366 -91 2075 -91 
Q 1284 -91 818 406 
Q 353 903 353 1747 
Q 353 2603 823 3093 
Q 1294 3584 2113 3584 
Q 2378 3584 2631 3529 
Q 2884 3475 3122 3366 
z
" id="DejaVuSans-63" transform="scale(0.015625)"/>
        <path d="M 3513 2113 
L 3513 0 
L 2938 0 
L 2938 2094 
Q 2938 2591 2744 2837 
Q 2550 3084 2163 3084 
Q 1697 3084 1428 2787 
Q 1159 2491 1159 1978 
L 1159 0 
L 581 0 
L 581 4863 
L 1159 4863 
L 1159 2956 
Q 1366 3272 1645 3428 
Q 1925 3584 2291 3584 
Q 2894 3584 3203 3211 
Q 3513 2838 3513 2113 
z
" id="DejaVuSans-68" transform="scale(0.015625)"/>
       </defs>
       <use xlink:href="#DejaVuSans-4d"/>
       <use x="86.279297" xlink:href="#DejaVuSans-61"/>
       <use x="147.558594" xlink:href="#DejaVuSans-72"/>
       <use x="186.421875" xlink:href="#DejaVuSans-63"/>
       <use x="241.402344" xlink:href="#DejaVuSans-68"/>
      </g>
     </g>
    </g>
    <g id="xtick_4">
     <g id="line2d_4">
      <g>
       <use style="stroke:#000000;stroke-width:0.8;" x="594.848571" xlink:href="#md06f3a0135" y="768.96"/>
      </g>
     </g>
     <g id="text_4">
      <!-- April -->
      <g transform="translate(583.420446 783.558437)scale(0.1 -0.1)">
       <defs>
        <path d="M 2188 4044 
L 1331 1722 
L 3047 1722 
L 2188 4044 
z
M 1831 4666 
L 2547 4666 
L 4325 0 
L 3669 0 
L 3244 1197 
L 1141 1197 
L 716 0 
L 50 0 
L 1831 4666 
z
" id="DejaVuSans-41" transform="scale(0.015625)"/>
        <path d="M 1159 525 
L 1159 -1331 
L 581 -1331 
L 581 3500 
L 1159 3500 
L 1159 2969 
Q 1341 3281 1617 3432 
Q 1894 3584 2278 3584 
Q 2916 3584 3314 3078 
Q 3713 2572 3713 1747 
Q 3713 922 3314 415 
Q 2916 -91 2278 -91 
Q 1894 -91 1617 61 
Q 1341 213 1159 525 
z
M 3116 1747 
Q 3116 2381 2855 2742 
Q 2594 3103 2138 3103 
Q 1681 3103 1420 2742 
Q 1159 2381 1159 1747 
Q 1159 1113 1420 752 
Q 1681 391 2138 391 
Q 2594 391 2855 752 
Q 3116 1113 3116 1747 
z
" id="DejaVuSans-70" transform="scale(0.015625)"/>
        <path d="M 603 3500 
L 1178 3500 
L 1178 0 
L 603 0 
L 603 3500 
z
M 603 4863 
L 1178 4863 
L 1178 4134 
L 603 4134 
L 603 4863 
z
" id="DejaVuSans-69" transform="scale(0.015625)"/>
        <path d="M 603 4863 
L 1178 4863 
L 1178 0 
L 603 0 
L 603 4863 
z
" id="DejaVuSans-6c" transform="scale(0.015625)"/>
       </defs>
       <use xlink:href="#DejaVuSans-41"/>
       <use x="68.408203" xlink:href="#DejaVuSans-70"/>
       <use x="131.884766" xlink:href="#DejaVuSans-72"/>
       <use x="172.998047" xlink:href="#DejaVuSans-69"/>
       <use x="200.78125" xlink:href="#DejaVuSans-6c"/>
      </g>
     </g>
    </g>
    <g id="xtick_5">
     <g id="line2d_5">
      <g>
       <use style="stroke:#000000;stroke-width:0.8;" x="738.334286" xlink:href="#md06f3a0135" y="768.96"/>
      </g>
     </g>
     <g id="text_5">
      <!-- May -->
      <g transform="translate(727.996786 783.558437)scale(0.1 -0.1)">
       <use xlink:href="#DejaVuSans-4d"/>
       <use x="86.279297" xlink:href="#DejaVuSans-61"/>
       <use x="147.558594" xlink:href="#DejaVuSans-79"/>
      </g>
     </g>
    </g>
    <g id="xtick_6">
     <g id="line2d_6">
      <g>
       <use style="stroke:#000000;stroke-width:0.8;" x="886.602857" xlink:href="#md06f3a0135" y="768.96"/>
      </g>
     </g>
     <g id="text_6">
      <!-- June -->
      <g transform="translate(875.713795 783.558437)scale(0.1 -0.1)">
       <use xlink:href="#DejaVuSans-4a"/>
       <use x="29.492188" xlink:href="#DejaVuSans-75"/>
       <use x="92.871094" xlink:href="#DejaVuSans-6e"/>
       <use x="156.25" xlink:href="#DejaVuSans-65"/>
      </g>
     </g>
    </g>
    <g id="xtick_7">
     <g id="line2d_7">
      <g>
       <use style="stroke:#000000;stroke-width:0.8;" x="1030.088571" xlink:href="#md06f3a0135" y="768.96"/>
      </g>
     </g>
     <g id="text_7">
      <!-- July -->
      <g transform="translate(1021.096384 783.558437)scale(0.1 -0.1)">
       <use xlink:href="#DejaVuSans-4a"/>
       <use x="29.492188" xlink:href="#DejaVuSans-75"/>
       <use x="92.871094" xlink:href="#DejaVuSans-6c"/>
       <use x="120.654297" xlink:href="#DejaVuSans-79"/>
      </g>
     </g>
    </g>
   </g>
   <g id="matplotlib.axis_2">
    <g id="ytick_1">
     <g id="line2d_8">
      <defs>
       <path d="M 0 0 
L -3.5 0 
" id="mb30ba1a4f0" style="stroke:#000000;stroke-width:0.8;"/>
      </defs>
      <g>
       <use style="stroke:#000000;stroke-width:0.8;" x="162" xlink:href="#mb30ba1a4f0" y="768.96"/>
      </g>
     </g>
     <g id="text_8">
      <!-- 0.0 -->
      <g transform="translate(139.096875 772.759219)scale(0.1 -0.1)">
       <defs>
        <path d="M 2034 4250 
Q 1547 4250 1301 3770 
Q 1056 3291 1056 2328 
Q 1056 1369 1301 889 
Q 1547 409 2034 409 
Q 2525 409 2770 889 
Q 3016 1369 3016 2328 
Q 3016 3291 2770 3770 
Q 2525 4250 2034 4250 
z
M 2034 4750 
Q 2819 4750 3233 4129 
Q 3647 3509 3647 2328 
Q 3647 1150 3233 529 
Q 2819 -91 2034 -91 
Q 1250 -91 836 529 
Q 422 1150 422 2328 
Q 422 3509 836 4129 
Q 1250 4750 2034 4750 
z
" id="DejaVuSans-30" transform="scale(0.015625)"/>
        <path d="M 684 794 
L 1344 794 
L 1344 0 
L 684 0 
L 684 794 
z
" id="DejaVuSans-2e" transform="scale(0.015625)"/>
       </defs>
       <use xlink:href="#DejaVuSans-30"/>
       <use x="63.623047" xlink:href="#DejaVuSans-2e"/>
       <use x="95.410156" xlink:href="#DejaVuSans-30"/>
      </g>
     </g>
    </g>
    <g id="ytick_2">
     <g id="line2d_9">
      <g>
       <use style="stroke:#000000;stroke-width:0.8;" x="162" xlink:href="#mb30ba1a4f0" y="678.352926"/>
      </g>
     </g>
     <g id="text_9">
      <!-- 0.2 -->
      <g transform="translate(139.096875 682.152145)scale(0.1 -0.1)">
       <defs>
        <path d="M 1228 531 
L 3431 531 
L 3431 0 
L 469 0 
L 469 531 
Q 828 903 1448 1529 
Q 2069 2156 2228 2338 
Q 2531 2678 2651 2914 
Q 2772 3150 2772 3378 
Q 2772 3750 2511 3984 
Q 2250 4219 1831 4219 
Q 1534 4219 1204 4116 
Q 875 4013 500 3803 
L 500 4441 
Q 881 4594 1212 4672 
Q 1544 4750 1819 4750 
Q 2544 4750 2975 4387 
Q 3406 4025 3406 3419 
Q 3406 3131 3298 2873 
Q 3191 2616 2906 2266 
Q 2828 2175 2409 1742 
Q 1991 1309 1228 531 
z
" id="DejaVuSans-32" transform="scale(0.015625)"/>
       </defs>
       <use xlink:href="#DejaVuSans-30"/>
       <use x="63.623047" xlink:href="#DejaVuSans-2e"/>
       <use x="95.410156" xlink:href="#DejaVuSans-32"/>
      </g>
     </g>
    </g>
    <g id="ytick_3">
     <g id="line2d_10">
      <g>
       <use style="stroke:#000000;stroke-width:0.8;" x="162" xlink:href="#mb30ba1a4f0" y="587.745852"/>
      </g>
     </g>
     <g id="text_10">
      <!-- 0.4 -->
      <g transform="translate(139.096875 591.545071)scale(0.1 -0.1)">
       <defs>
        <path d="M 2419 4116 
L 825 1625 
L 2419 1625 
L 2419 4116 
z
M 2253 4666 
L 3047 4666 
L 3047 1625 
L 3713 1625 
L 3713 1100 
L 3047 1100 
L 3047 0 
L 2419 0 
L 2419 1100 
L 313 1100 
L 313 1709 
L 2253 4666 
z
" id="DejaVuSans-34" transform="scale(0.015625)"/>
       </defs>
       <use xlink:href="#DejaVuSans-30"/>
       <use x="63.623047" xlink:href="#DejaVuSans-2e"/>
       <use x="95.410156" xlink:href="#DejaVuSans-34"/>
      </g>
     </g>
    </g>
    <g id="ytick_4">
     <g id="line2d_11">
      <g>
       <use style="stroke:#000000;stroke-width:0.8;" x="162" xlink:href="#mb30ba1a4f0" y="497.138779"/>
      </g>
     </g>
     <g id="text_11">
      <!-- 0.6 -->
      <g transform="translate(139.096875 500.937997)scale(0.1 -0.1)">
       <defs>
        <path d="M 2113 2584 
Q 1688 2584 1439 2293 
Q 1191 2003 1191 1497 
Q 1191 994 1439 701 
Q 1688 409 2113 409 
Q 2538 409 2786 701 
Q 3034 994 3034 1497 
Q 3034 2003 2786 2293 
Q 2538 2584 2113 2584 
z
M 3366 4563 
L 3366 3988 
Q 3128 4100 2886 4159 
Q 2644 4219 2406 4219 
Q 1781 4219 1451 3797 
Q 1122 3375 1075 2522 
Q 1259 2794 1537 2939 
Q 1816 3084 2150 3084 
Q 2853 3084 3261 2657 
Q 3669 2231 3669 1497 
Q 3669 778 3244 343 
Q 2819 -91 2113 -91 
Q 1303 -91 875 529 
Q 447 1150 447 2328 
Q 447 3434 972 4092 
Q 1497 4750 2381 4750 
Q 2619 4750 2861 4703 
Q 3103 4656 3366 4563 
z
" id="DejaVuSans-36" transform="scale(0.015625)"/>
       </defs>
       <use xlink:href="#DejaVuSans-30"/>
       <use x="63.623047" xlink:href="#DejaVuSans-2e"/>
       <use x="95.410156" xlink:href="#DejaVuSans-36"/>
      </g>
     </g>
    </g>
    <g id="ytick_5">
     <g id="line2d_12">
      <g>
       <use style="stroke:#000000;stroke-width:0.8;" x="162" xlink:href="#mb30ba1a4f0" y="406.531705"/>
      </g>
     </g>
     <g id="text_12">
      <!-- 0.8 -->
      <g transform="translate(139.096875 410.330923)scale(0.1 -0.1)">
       <defs>
        <path d="M 2034 2216 
Q 1584 2216 1326 1975 
Q 1069 1734 1069 1313 
Q 1069 891 1326 650 
Q 1584 409 2034 409 
Q 2484 409 2743 651 
Q 3003 894 3003 1313 
Q 3003 1734 2745 1975 
Q 2488 2216 2034 2216 
z
M 1403 2484 
Q 997 2584 770 2862 
Q 544 3141 544 3541 
Q 544 4100 942 4425 
Q 1341 4750 2034 4750 
Q 2731 4750 3128 4425 
Q 3525 4100 3525 3541 
Q 3525 3141 3298 2862 
Q 3072 2584 2669 2484 
Q 3125 2378 3379 2068 
Q 3634 1759 3634 1313 
Q 3634 634 3220 271 
Q 2806 -91 2034 -91 
Q 1263 -91 848 271 
Q 434 634 434 1313 
Q 434 1759 690 2068 
Q 947 2378 1403 2484 
z
M 1172 3481 
Q 1172 3119 1398 2916 
Q 1625 2713 2034 2713 
Q 2441 2713 2670 2916 
Q 2900 3119 2900 3481 
Q 2900 3844 2670 4047 
Q 2441 4250 2034 4250 
Q 1625 4250 1398 4047 
Q 1172 3844 1172 3481 
z
" id="DejaVuSans-38" transform="scale(0.015625)"/>
       </defs>
       <use xlink:href="#DejaVuSans-30"/>
       <use x="63.623047" xlink:href="#DejaVuSans-2e"/>
       <use x="95.410156" xlink:href="#DejaVuSans-38"/>
      </g>
     </g>
    </g>
    <g id="ytick_6">
     <g id="line2d_13">
      <g>
       <use style="stroke:#000000;stroke-width:0.8;" x="162" xlink:href="#mb30ba1a4f0" y="315.924631"/>
      </g>
     </g>
     <g id="text_13">
      <!-- 1.0 -->
      <g transform="translate(139.096875 319.72385)scale(0.1 -0.1)">
       <defs>
        <path d="M 794 531 
L 1825 531 
L 1825 4091 
L 703 3866 
L 703 4441 
L 1819 4666 
L 2450 4666 
L 2450 531 
L 3481 531 
L 3481 0 
L 794 0 
L 794 531 
z
" id="DejaVuSans-31" transform="scale(0.015625)"/>
       </defs>
       <use xlink:href="#DejaVuSans-31"/>
       <use x="63.623047" xlink:href="#DejaVuSans-2e"/>
       <use x="95.410156" xlink:href="#DejaVuSans-30"/>
      </g>
     </g>
    </g>
    <g id="ytick_7">
     <g id="line2d_14">
      <g>
       <use style="stroke:#000000;stroke-width:0.8;" x="162" xlink:href="#mb30ba1a4f0" y="225.317557"/>
      </g>
     </g>
     <g id="text_14">
      <!-- 1.2 -->
      <g transform="translate(139.096875 229.116776)scale(0.1 -0.1)">
       <use xlink:href="#DejaVuSans-31"/>
       <use x="63.623047" xlink:href="#DejaVuSans-2e"/>
       <use x="95.410156" xlink:href="#DejaVuSans-32"/>
      </g>
     </g>
    </g>
    <g id="ytick_8">
     <g id="line2d_15">
      <g>
       <use style="stroke:#000000;stroke-width:0.8;" x="162" xlink:href="#mb30ba1a4f0" y="134.710483"/>
      </g>
     </g>
     <g id="text_15">
      <!-- 1.4 -->
      <g transform="translate(139.096875 138.509702)scale(0.1 -0.1)">
       <use xlink:href="#DejaVuSans-31"/>
       <use x="63.623047" xlink:href="#DejaVuSans-2e"/>
       <use x="95.410156" xlink:href="#DejaVuSans-34"/>
      </g>
     </g>
    </g>
    <g id="text_16">
     <!-- Persons fully vaccinated (tens of millions) -->
     <g transform="translate(133.017188 540.480156)rotate(-90)scale(0.1 -0.1)">
      <defs>
       <path d="M 1259 4147 
L 1259 2394 
L 2053 2394 
Q 2494 2394 2734 2622 
Q 2975 2850 2975 3272 
Q 2975 3691 2734 3919 
Q 2494 4147 2053 4147 
L 1259 4147 
z
M 628 4666 
L 2053 4666 
Q 2838 4666 3239 4311 
Q 3641 3956 3641 3272 
Q 3641 2581 3239 2228 
Q 2838 1875 2053 1875 
L 1259 1875 
L 1259 0 
L 628 0 
L 628 4666 
z
" id="DejaVuSans-50" transform="scale(0.015625)"/>
       <path d="M 2834 3397 
L 2834 2853 
Q 2591 2978 2328 3040 
Q 2066 3103 1784 3103 
Q 1356 3103 1142 2972 
Q 928 2841 928 2578 
Q 928 2378 1081 2264 
Q 1234 2150 1697 2047 
L 1894 2003 
Q 2506 1872 2764 1633 
Q 3022 1394 3022 966 
Q 3022 478 2636 193 
Q 2250 -91 1575 -91 
Q 1294 -91 989 -36 
Q 684 19 347 128 
L 347 722 
Q 666 556 975 473 
Q 1284 391 1588 391 
Q 1994 391 2212 530 
Q 2431 669 2431 922 
Q 2431 1156 2273 1281 
Q 2116 1406 1581 1522 
L 1381 1569 
Q 847 1681 609 1914 
Q 372 2147 372 2553 
Q 372 3047 722 3315 
Q 1072 3584 1716 3584 
Q 2034 3584 2315 3537 
Q 2597 3491 2834 3397 
z
" id="DejaVuSans-73" transform="scale(0.015625)"/>
       <path d="M 1959 3097 
Q 1497 3097 1228 2736 
Q 959 2375 959 1747 
Q 959 1119 1226 758 
Q 1494 397 1959 397 
Q 2419 397 2687 759 
Q 2956 1122 2956 1747 
Q 2956 2369 2687 2733 
Q 2419 3097 1959 3097 
z
M 1959 3584 
Q 2709 3584 3137 3096 
Q 3566 2609 3566 1747 
Q 3566 888 3137 398 
Q 2709 -91 1959 -91 
Q 1206 -91 779 398 
Q 353 888 353 1747 
Q 353 2609 779 3096 
Q 1206 3584 1959 3584 
z
" id="DejaVuSans-6f" transform="scale(0.015625)"/>
       <path id="DejaVuSans-20" transform="scale(0.015625)"/>
       <path d="M 2375 4863 
L 2375 4384 
L 1825 4384 
Q 1516 4384 1395 4259 
Q 1275 4134 1275 3809 
L 1275 3500 
L 2222 3500 
L 2222 3053 
L 1275 3053 
L 1275 0 
L 697 0 
L 697 3053 
L 147 3053 
L 147 3500 
L 697 3500 
L 697 3744 
Q 697 4328 969 4595 
Q 1241 4863 1831 4863 
L 2375 4863 
z
" id="DejaVuSans-66" transform="scale(0.015625)"/>
       <path d="M 191 3500 
L 800 3500 
L 1894 563 
L 2988 3500 
L 3597 3500 
L 2284 0 
L 1503 0 
L 191 3500 
z
" id="DejaVuSans-76" transform="scale(0.015625)"/>
       <path d="M 1172 4494 
L 1172 3500 
L 2356 3500 
L 2356 3053 
L 1172 3053 
L 1172 1153 
Q 1172 725 1289 603 
Q 1406 481 1766 481 
L 2356 481 
L 2356 0 
L 1766 0 
Q 1100 0 847 248 
Q 594 497 594 1153 
L 594 3053 
L 172 3053 
L 172 3500 
L 594 3500 
L 594 4494 
L 1172 4494 
z
" id="DejaVuSans-74" transform="scale(0.015625)"/>
       <path d="M 2906 2969 
L 2906 4863 
L 3481 4863 
L 3481 0 
L 2906 0 
L 2906 525 
Q 2725 213 2448 61 
Q 2172 -91 1784 -91 
Q 1150 -91 751 415 
Q 353 922 353 1747 
Q 353 2572 751 3078 
Q 1150 3584 1784 3584 
Q 2172 3584 2448 3432 
Q 2725 3281 2906 2969 
z
M 947 1747 
Q 947 1113 1208 752 
Q 1469 391 1925 391 
Q 2381 391 2643 752 
Q 2906 1113 2906 1747 
Q 2906 2381 2643 2742 
Q 2381 3103 1925 3103 
Q 1469 3103 1208 2742 
Q 947 2381 947 1747 
z
" id="DejaVuSans-64" transform="scale(0.015625)"/>
       <path d="M 1984 4856 
Q 1566 4138 1362 3434 
Q 1159 2731 1159 2009 
Q 1159 1288 1364 580 
Q 1569 -128 1984 -844 
L 1484 -844 
Q 1016 -109 783 600 
Q 550 1309 550 2009 
Q 550 2706 781 3412 
Q 1013 4119 1484 4856 
L 1984 4856 
z
" id="DejaVuSans-28" transform="scale(0.015625)"/>
       <path d="M 3328 2828 
Q 3544 3216 3844 3400 
Q 4144 3584 4550 3584 
Q 5097 3584 5394 3201 
Q 5691 2819 5691 2113 
L 5691 0 
L 5113 0 
L 5113 2094 
Q 5113 2597 4934 2840 
Q 4756 3084 4391 3084 
Q 3944 3084 3684 2787 
Q 3425 2491 3425 1978 
L 3425 0 
L 2847 0 
L 2847 2094 
Q 2847 2600 2669 2842 
Q 2491 3084 2119 3084 
Q 1678 3084 1418 2786 
Q 1159 2488 1159 1978 
L 1159 0 
L 581 0 
L 581 3500 
L 1159 3500 
L 1159 2956 
Q 1356 3278 1631 3431 
Q 1906 3584 2284 3584 
Q 2666 3584 2933 3390 
Q 3200 3197 3328 2828 
z
" id="DejaVuSans-6d" transform="scale(0.015625)"/>
       <path d="M 513 4856 
L 1013 4856 
Q 1481 4119 1714 3412 
Q 1947 2706 1947 2009 
Q 1947 1309 1714 600 
Q 1481 -109 1013 -844 
L 513 -844 
Q 928 -128 1133 580 
Q 1338 1288 1338 2009 
Q 1338 2731 1133 3434 
Q 928 4138 513 4856 
z
" id="DejaVuSans-29" transform="scale(0.015625)"/>
      </defs>
      <use xlink:href="#DejaVuSans-50"/>
      <use x="56.677734" xlink:href="#DejaVuSans-65"/>
      <use x="118.201172" xlink:href="#DejaVuSans-72"/>
      <use x="159.314453" xlink:href="#DejaVuSans-73"/>
      <use x="211.414062" xlink:href="#DejaVuSans-6f"/>
      <use x="272.595703" xlink:href="#DejaVuSans-6e"/>
      <use x="335.974609" xlink:href="#DejaVuSans-73"/>
      <use x="388.074219" xlink:href="#DejaVuSans-20"/>
      <use x="419.861328" xlink:href="#DejaVuSans-66"/>
      <use x="455.066406" xlink:href="#DejaVuSans-75"/>
      <use x="518.445312" xlink:href="#DejaVuSans-6c"/>
      <use x="546.228516" xlink:href="#DejaVuSans-6c"/>
      <use x="574.011719" xlink:href="#DejaVuSans-79"/>
      <use x="633.191406" xlink:href="#DejaVuSans-20"/>
      <use x="664.978516" xlink:href="#DejaVuSans-76"/>
      <use x="724.158203" xlink:href="#DejaVuSans-61"/>
      <use x="785.4375" xlink:href="#DejaVuSans-63"/>
      <use x="840.417969" xlink:href="#DejaVuSans-63"/>
      <use x="895.398438" xlink:href="#DejaVuSans-69"/>
      <use x="923.181641" xlink:href="#DejaVuSans-6e"/>
      <use x="986.560547" xlink:href="#DejaVuSans-61"/>
      <use x="1047.839844" xlink:href="#DejaVuSans-74"/>
      <use x="1087.048828" xlink:href="#DejaVuSans-65"/>
      <use x="1148.572266" xlink:href="#DejaVuSans-64"/>
      <use x="1212.048828" xlink:href="#DejaVuSans-20"/>
      <use x="1243.835938" xlink:href="#DejaVuSans-28"/>
      <use x="1282.849609" xlink:href="#DejaVuSans-74"/>
      <use x="1322.058594" xlink:href="#DejaVuSans-65"/>
      <use x="1383.582031" xlink:href="#DejaVuSans-6e"/>
      <use x="1446.960938" xlink:href="#DejaVuSans-73"/>
      <use x="1499.060547" xlink:href="#DejaVuSans-20"/>
      <use x="1530.847656" xlink:href="#DejaVuSans-6f"/>
      <use x="1592.029297" xlink:href="#DejaVuSans-66"/>
      <use x="1627.234375" xlink:href="#DejaVuSans-20"/>
      <use x="1659.021484" xlink:href="#DejaVuSans-6d"/>
      <use x="1756.433594" xlink:href="#DejaVuSans-69"/>
      <use x="1784.216797" xlink:href="#DejaVuSans-6c"/>
      <use x="1812" xlink:href="#DejaVuSans-6c"/>
      <use x="1839.783203" xlink:href="#DejaVuSans-69"/>
      <use x="1867.566406" xlink:href="#DejaVuSans-6f"/>
      <use x="1928.748047" xlink:href="#DejaVuSans-6e"/>
      <use x="1992.126953" xlink:href="#DejaVuSans-73"/>
      <use x="2044.226562" xlink:href="#DejaVuSans-29"/>
     </g>
    </g>
    <g id="text_17">
     <!-- 1e7 -->
     <g transform="translate(162 100.68)scale(0.1 -0.1)">
      <defs>
       <path d="M 525 4666 
L 3525 4666 
L 3525 4397 
L 1831 0 
L 1172 0 
L 2766 4134 
L 525 4134 
L 525 4666 
z
" id="DejaVuSans-37" transform="scale(0.015625)"/>
      </defs>
      <use xlink:href="#DejaVuSans-31"/>
      <use x="63.623047" xlink:href="#DejaVuSans-65"/>
      <use x="125.146484" xlink:href="#DejaVuSans-37"/>
     </g>
    </g>
   </g>
   <g id="patch_213">
    <path d="M 162 768.96 
L 162 103.68 
" style="fill:none;stroke:#000000;stroke-linecap:square;stroke-linejoin:miter;stroke-width:0.8;"/>
   </g>
   <g id="patch_214">
    <path d="M 1166.4 768.96 
L 1166.4 103.68 
" style="fill:none;stroke:#000000;stroke-linecap:square;stroke-linejoin:miter;stroke-width:0.8;"/>
   </g>
   <g id="patch_215">
    <path d="M 162 768.96 
L 1166.4 768.96 
" style="fill:none;stroke:#000000;stroke-linecap:square;stroke-linejoin:miter;stroke-width:0.8;"/>
   </g>
   <g id="patch_216">
    <path d="M 162 103.68 
L 1166.4 103.68 
" style="fill:none;stroke:#000000;stroke-linecap:square;stroke-linejoin:miter;stroke-width:0.8;"/>
   </g>
   <g id="text_18">
    <!-- Persons Fully Vaccinated -->
    <g transform="translate(590.380313 97.68)scale(0.12 -0.12)">
     <defs>
      <path d="M 1831 0 
L 50 4666 
L 709 4666 
L 2188 738 
L 3669 4666 
L 4325 4666 
L 2547 0 
L 1831 0 
z
" id="DejaVuSans-56" transform="scale(0.015625)"/>
     </defs>
     <use xlink:href="#DejaVuSans-50"/>
     <use x="56.677734" xlink:href="#DejaVuSans-65"/>
     <use x="118.201172" xlink:href="#DejaVuSans-72"/>
     <use x="159.314453" xlink:href="#DejaVuSans-73"/>
     <use x="211.414062" xlink:href="#DejaVuSans-6f"/>
     <use x="272.595703" xlink:href="#DejaVuSans-6e"/>
     <use x="335.974609" xlink:href="#DejaVuSans-73"/>
     <use x="388.074219" xlink:href="#DejaVuSans-20"/>
     <use x="419.861328" xlink:href="#DejaVuSans-46"/>
     <use x="471.880859" xlink:href="#DejaVuSans-75"/>
     <use x="535.259766" xlink:href="#DejaVuSans-6c"/>
     <use x="563.042969" xlink:href="#DejaVuSans-6c"/>
     <use x="590.826172" xlink:href="#DejaVuSans-79"/>
     <use x="650.005859" xlink:href="#DejaVuSans-20"/>
     <use x="681.792969" xlink:href="#DejaVuSans-56"/>
     <use x="742.451172" xlink:href="#DejaVuSans-61"/>
     <use x="803.730469" xlink:href="#DejaVuSans-63"/>
     <use x="858.710938" xlink:href="#DejaVuSans-63"/>
     <use x="913.691406" xlink:href="#DejaVuSans-69"/>
     <use x="941.474609" xlink:href="#DejaVuSans-6e"/>
     <use x="1004.853516" xlink:href="#DejaVuSans-61"/>
     <use x="1066.132812" xlink:href="#DejaVuSans-74"/>
     <use x="1105.341797" xlink:href="#DejaVuSans-65"/>
     <use x="1166.865234" xlink:href="#DejaVuSans-64"/>
    </g>
   </g>
  </g>
 </g>
 <defs>
  <clipPath id="p750456a9b2">
   <rect height="665.28" width="1004.4" x="162" y="103.68"/>
  </clipPath>
 </defs>
</svg>
